<?xml version="1.0" encoding="utf-8"?>
<svg xmlns="http://www.w3.org/2000/svg" xmlns:xlink="http://www.w3.org/1999/xlink" width="600" height="400" viewBox="0 0 2400 1600">
<defs>
  <clipPath id="clip270">
    <rect x="0" y="0" width="2400" height="1600"/>
  </clipPath>
</defs>
<path clip-path="url(#clip270)" d="M0 1600 L2400 1600 L2400 0 L0 0  Z" fill="#ffffff" fill-rule="evenodd" fill-opacity="1"/>
<defs>
  <clipPath id="clip271">
    <rect x="480" y="0" width="1681" height="1600"/>
  </clipPath>
</defs>
<path clip-path="url(#clip270)" d="M128.138 662.16 L1152.76 662.16 L1152.76 97.5521 L128.138 97.5521  Z" fill="#ffffff" fill-rule="evenodd" fill-opacity="1"/>
<defs>
  <clipPath id="clip272">
    <rect x="128" y="97" width="1026" height="566"/>
  </clipPath>
</defs>
<polyline clip-path="url(#clip272)" style="stroke:#000000; stroke-linecap:round; stroke-linejoin:round; stroke-width:2; stroke-opacity:0.1; fill:none" points="298.482,662.16 298.482,97.5521 "/>
<polyline clip-path="url(#clip272)" style="stroke:#000000; stroke-linecap:round; stroke-linejoin:round; stroke-width:2; stroke-opacity:0.1; fill:none" points="526.459,662.16 526.459,97.5521 "/>
<polyline clip-path="url(#clip272)" style="stroke:#000000; stroke-linecap:round; stroke-linejoin:round; stroke-width:2; stroke-opacity:0.1; fill:none" points="754.435,662.16 754.435,97.5521 "/>
<polyline clip-path="url(#clip272)" style="stroke:#000000; stroke-linecap:round; stroke-linejoin:round; stroke-width:2; stroke-opacity:0.1; fill:none" points="982.412,662.16 982.412,97.5521 "/>
<polyline clip-path="url(#clip272)" style="stroke:#000000; stroke-linecap:round; stroke-linejoin:round; stroke-width:2; stroke-opacity:0.1; fill:none" points="128.138,662.16 1152.76,662.16 "/>
<polyline clip-path="url(#clip272)" style="stroke:#000000; stroke-linecap:round; stroke-linejoin:round; stroke-width:2; stroke-opacity:0.1; fill:none" points="128.138,515.509 1152.76,515.509 "/>
<polyline clip-path="url(#clip272)" style="stroke:#000000; stroke-linecap:round; stroke-linejoin:round; stroke-width:2; stroke-opacity:0.1; fill:none" points="128.138,368.857 1152.76,368.857 "/>
<polyline clip-path="url(#clip272)" style="stroke:#000000; stroke-linecap:round; stroke-linejoin:round; stroke-width:2; stroke-opacity:0.1; fill:none" points="128.138,222.206 1152.76,222.206 "/>
<polyline clip-path="url(#clip270)" style="stroke:#000000; stroke-linecap:round; stroke-linejoin:round; stroke-width:4; stroke-opacity:1; fill:none" points="128.138,662.16 1152.76,662.16 "/>
<polyline clip-path="url(#clip270)" style="stroke:#000000; stroke-linecap:round; stroke-linejoin:round; stroke-width:4; stroke-opacity:1; fill:none" points="298.482,662.16 298.482,643.263 "/>
<polyline clip-path="url(#clip270)" style="stroke:#000000; stroke-linecap:round; stroke-linejoin:round; stroke-width:4; stroke-opacity:1; fill:none" points="526.459,662.16 526.459,643.263 "/>
<polyline clip-path="url(#clip270)" style="stroke:#000000; stroke-linecap:round; stroke-linejoin:round; stroke-width:4; stroke-opacity:1; fill:none" points="754.435,662.16 754.435,643.263 "/>
<polyline clip-path="url(#clip270)" style="stroke:#000000; stroke-linecap:round; stroke-linejoin:round; stroke-width:4; stroke-opacity:1; fill:none" points="982.412,662.16 982.412,643.263 "/>
<path clip-path="url(#clip270)" d="M245.112 733.414 Q243.196 735.329 244.117 738.189 Q245.038 741.025 248.819 744.806 Q252.588 748.575 255.436 749.508 Q258.284 750.416 260.199 748.501 Q262.126 746.574 261.206 743.738 Q260.285 740.878 256.516 737.109 Q252.735 733.328 249.887 732.42 Q247.039 731.487 245.112 733.414 M243.147 731.45 Q246.229 728.369 250.292 729.191 Q254.355 729.989 258.996 734.629 Q263.624 739.257 264.434 743.333 Q265.244 747.384 262.163 750.466 Q259.082 753.547 255.018 752.749 Q250.955 751.926 246.327 747.298 Q241.687 742.658 240.876 738.607 Q240.066 734.531 243.147 731.45 Z" fill="#000000" fill-rule="nonzero" fill-opacity="1" /><path clip-path="url(#clip270)" d="M269.381 736.299 L271.972 733.709 L275.09 736.827 L272.5 739.417 L269.381 736.299 Z" fill="#000000" fill-rule="nonzero" fill-opacity="1" /><path clip-path="url(#clip270)" d="M277.091 717.418 Q275.323 719.186 275.249 721.15 Q275.188 723.102 276.845 724.759 Q278.503 726.417 280.454 726.355 Q282.419 726.282 284.186 724.514 Q285.954 722.746 286.028 720.782 Q286.089 718.806 284.444 717.161 Q282.787 715.503 280.823 715.577 Q278.871 715.638 277.091 717.418 M273.555 718.842 Q271.567 720.045 269.578 719.849 Q267.601 719.64 266.03 718.069 Q263.833 715.872 264.115 713.036 Q264.41 710.188 267.135 707.462 Q269.872 704.725 272.708 704.442 Q275.544 704.16 277.741 706.358 Q279.313 707.929 279.509 709.918 Q279.718 711.894 278.527 713.871 Q280.737 712.496 282.946 712.717 Q285.168 712.925 286.924 714.681 Q289.588 717.345 289.379 720.401 Q289.183 723.446 286.151 726.478 Q283.118 729.51 280.062 729.719 Q277.017 729.915 274.353 727.251 Q272.598 725.496 272.389 723.274 Q272.18 721.052 273.555 718.842 M268.731 715.835 Q270.155 717.259 271.837 717.173 Q273.531 717.075 275.139 715.466 Q276.735 713.871 276.833 712.176 Q276.943 710.47 275.519 709.046 Q274.095 707.622 272.389 707.732 Q270.695 707.831 269.099 709.427 Q267.491 711.035 267.393 712.729 Q267.307 714.411 268.731 715.835 Z" fill="#000000" fill-rule="nonzero" fill-opacity="1" /><path clip-path="url(#clip270)" d="M277.533 697.727 L289.318 685.942 L290.374 686.998 L300.992 710.924 L298.402 713.515 L288.422 691.012 L279.62 699.814 L277.533 697.727 Z" fill="#000000" fill-rule="nonzero" fill-opacity="1" /><path clip-path="url(#clip270)" d="M472.659 733.844 Q470.743 735.759 471.664 738.619 Q472.585 741.455 476.366 745.236 Q480.135 749.005 482.983 749.938 Q485.831 750.846 487.746 748.931 Q489.673 747.004 488.752 744.168 Q487.832 741.308 484.063 737.539 Q480.282 733.758 477.434 732.849 Q474.586 731.916 472.659 733.844 M470.694 731.88 Q473.776 728.798 477.839 729.621 Q481.902 730.419 486.543 735.059 Q491.171 739.687 491.981 743.763 Q492.791 747.814 489.71 750.895 Q486.629 753.977 482.565 753.179 Q478.502 752.356 473.874 747.728 Q469.233 743.088 468.423 739.037 Q467.613 734.961 470.694 731.88 Z" fill="#000000" fill-rule="nonzero" fill-opacity="1" /><path clip-path="url(#clip270)" d="M496.928 736.729 L499.519 734.138 L502.637 737.256 L500.046 739.847 L496.928 736.729 Z" fill="#000000" fill-rule="nonzero" fill-opacity="1" /><path clip-path="url(#clip270)" d="M504.638 717.848 Q502.87 719.616 502.796 721.58 Q502.735 723.532 504.392 725.189 Q506.05 726.846 508.001 726.785 Q509.966 726.711 511.733 724.944 Q513.501 723.176 513.575 721.212 Q513.636 719.235 511.991 717.59 Q510.334 715.933 508.37 716.007 Q506.418 716.068 504.638 717.848 M501.102 719.272 Q499.114 720.475 497.125 720.279 Q495.148 720.07 493.577 718.499 Q491.38 716.301 491.662 713.465 Q491.957 710.617 494.682 707.892 Q497.419 705.155 500.255 704.872 Q503.091 704.59 505.288 706.787 Q506.86 708.359 507.056 710.347 Q507.265 712.324 506.074 714.3 Q508.284 712.925 510.493 713.146 Q512.715 713.355 514.471 715.11 Q517.135 717.774 516.926 720.831 Q516.73 723.876 513.698 726.908 Q510.665 729.94 507.609 730.149 Q504.564 730.345 501.9 727.681 Q500.145 725.926 499.936 723.704 Q499.727 721.482 501.102 719.272 M496.278 716.264 Q497.702 717.688 499.384 717.602 Q501.078 717.504 502.686 715.896 Q504.282 714.3 504.38 712.606 Q504.49 710.9 503.066 709.476 Q501.642 708.052 499.936 708.162 Q498.242 708.26 496.646 709.856 Q495.038 711.464 494.94 713.159 Q494.854 714.84 496.278 716.264 Z" fill="#000000" fill-rule="nonzero" fill-opacity="1" /><path clip-path="url(#clip270)" d="M520.634 701.852 Q518.866 703.62 518.792 705.584 Q518.731 707.536 520.388 709.193 Q522.045 710.851 523.997 710.789 Q525.961 710.716 527.729 708.948 Q529.497 707.18 529.57 705.216 Q529.632 703.239 527.987 701.594 Q526.33 699.937 524.365 700.011 Q522.414 700.072 520.634 701.852 M517.098 703.276 Q515.109 704.479 513.121 704.283 Q511.144 704.074 509.573 702.503 Q507.375 700.305 507.658 697.47 Q507.952 694.622 510.678 691.896 Q513.415 689.159 516.251 688.876 Q519.087 688.594 521.284 690.791 Q522.855 692.363 523.052 694.352 Q523.261 696.328 522.07 698.304 Q524.28 696.93 526.489 697.15 Q528.711 697.359 530.467 699.115 Q533.131 701.779 532.922 704.835 Q532.725 707.88 529.693 710.912 Q526.661 713.944 523.604 714.153 Q520.56 714.349 517.896 711.685 Q516.14 709.93 515.932 707.708 Q515.723 705.486 517.098 703.276 M512.273 700.269 Q513.698 701.693 515.379 701.607 Q517.073 701.509 518.682 699.9 Q520.277 698.304 520.376 696.61 Q520.486 694.904 519.062 693.48 Q517.638 692.056 515.932 692.166 Q514.238 692.265 512.642 693.861 Q511.034 695.469 510.935 697.163 Q510.849 698.845 512.273 700.269 Z" fill="#000000" fill-rule="nonzero" fill-opacity="1" /><path clip-path="url(#clip270)" d="M700.684 733.795 Q698.769 735.71 699.69 738.57 Q700.611 741.406 704.392 745.187 Q708.16 748.956 711.008 749.889 Q713.857 750.797 715.772 748.882 Q717.699 746.955 716.778 744.119 Q715.858 741.259 712.089 737.49 Q708.308 733.709 705.46 732.8 Q702.612 731.867 700.684 733.795 M698.72 731.83 Q701.801 728.749 705.865 729.572 Q709.928 730.37 714.569 735.01 Q719.197 739.638 720.007 743.714 Q720.817 747.765 717.736 750.846 Q714.654 753.927 710.591 753.129 Q706.528 752.307 701.9 747.679 Q697.259 743.039 696.449 738.987 Q695.639 734.912 698.72 731.83 Z" fill="#000000" fill-rule="nonzero" fill-opacity="1" /><path clip-path="url(#clip270)" d="M724.954 736.68 L727.544 734.089 L730.662 737.207 L728.072 739.798 L724.954 736.68 Z" fill="#000000" fill-rule="nonzero" fill-opacity="1" /><path clip-path="url(#clip270)" d="M732.663 717.799 Q730.896 719.567 730.822 721.531 Q730.761 723.483 732.418 725.14 Q734.075 726.797 736.027 726.736 Q737.991 726.662 739.759 724.894 Q741.527 723.127 741.6 721.163 Q741.662 719.186 740.017 717.541 Q738.36 715.884 736.395 715.957 Q734.444 716.019 732.663 717.799 M729.128 719.223 Q727.139 720.426 725.151 720.23 Q723.174 720.021 721.603 718.45 Q719.405 716.252 719.688 713.416 Q719.982 710.568 722.708 707.843 Q725.445 705.105 728.281 704.823 Q731.117 704.541 733.314 706.738 Q734.885 708.309 735.082 710.298 Q735.291 712.275 734.1 714.251 Q736.309 712.876 738.519 713.097 Q740.741 713.306 742.497 715.061 Q745.161 717.725 744.952 720.782 Q744.755 723.826 741.723 726.859 Q738.691 729.891 735.634 730.1 Q732.59 730.296 729.926 727.632 Q728.17 725.877 727.962 723.655 Q727.753 721.433 729.128 719.223 M724.303 716.215 Q725.727 717.639 727.409 717.553 Q729.103 717.455 730.712 715.847 Q732.307 714.251 732.406 712.557 Q732.516 710.851 731.092 709.427 Q729.668 708.003 727.962 708.113 Q726.268 708.211 724.672 709.807 Q723.064 711.415 722.965 713.109 Q722.879 714.791 724.303 716.215 Z" fill="#000000" fill-rule="nonzero" fill-opacity="1" /><path clip-path="url(#clip270)" d="M751.753 715.356 L749.494 713.097 Q750.869 712.606 752.06 711.882 Q753.25 711.158 754.171 710.237 Q756.626 707.782 756.27 704.848 Q755.914 701.889 752.735 698.341 Q753.079 700.109 752.551 701.766 Q752.023 703.424 750.697 704.749 Q747.947 707.499 744.682 707.45 Q741.416 707.376 738.531 704.492 Q735.708 701.668 735.671 698.292 Q735.634 694.916 738.409 692.142 Q741.588 688.962 745.701 689.736 Q749.813 690.485 754.454 695.125 Q758.787 699.458 759.315 704.111 Q759.843 708.739 756.369 712.213 Q755.436 713.146 754.294 713.92 Q753.152 714.693 751.753 715.356 M748.917 702.65 Q750.587 700.981 750.415 698.869 Q750.255 696.745 748.266 694.757 Q746.29 692.78 744.166 692.621 Q742.042 692.436 740.373 694.106 Q738.703 695.776 738.875 697.912 Q739.047 700.023 741.024 702 Q743.012 703.988 745.124 704.16 Q747.247 704.32 748.917 702.65 Z" fill="#000000" fill-rule="nonzero" fill-opacity="1" /><path clip-path="url(#clip270)" d="M928.563 733.893 Q926.648 735.808 927.568 738.668 Q928.489 741.504 932.27 745.285 Q936.039 749.054 938.887 749.987 Q941.735 750.895 943.65 748.98 Q945.577 747.053 944.657 744.217 Q943.736 741.357 939.967 737.588 Q936.186 733.807 933.338 732.898 Q930.49 731.966 928.563 733.893 M926.599 731.929 Q929.68 728.847 933.743 729.67 Q937.807 730.468 942.447 735.108 Q947.075 739.736 947.885 743.812 Q948.695 747.863 945.614 750.944 Q942.533 754.026 938.469 753.228 Q934.406 752.405 929.778 747.777 Q925.138 743.137 924.327 739.086 Q923.517 735.01 926.599 731.929 Z" fill="#000000" fill-rule="nonzero" fill-opacity="1" /><path clip-path="url(#clip270)" d="M952.833 736.778 L955.423 734.187 L958.541 737.306 L955.951 739.896 L952.833 736.778 Z" fill="#000000" fill-rule="nonzero" fill-opacity="1" /><path clip-path="url(#clip270)" d="M963.635 731.45 L961.377 729.191 Q962.752 728.7 963.942 727.976 Q965.133 727.251 966.054 726.331 Q968.509 723.876 968.153 720.942 Q967.797 717.983 964.618 714.435 Q964.961 716.203 964.433 717.86 Q963.906 719.518 962.58 720.843 Q959.83 723.593 956.564 723.544 Q953.299 723.47 950.414 720.586 Q947.591 717.762 947.554 714.386 Q947.517 711.01 950.291 708.236 Q953.471 705.056 957.583 705.83 Q961.696 706.579 966.336 711.219 Q970.67 715.552 971.198 720.205 Q971.725 724.833 968.251 728.307 Q967.318 729.24 966.177 730.014 Q965.035 730.787 963.635 731.45 M960.8 718.744 Q962.469 717.075 962.297 714.963 Q962.138 712.839 960.149 710.851 Q958.173 708.874 956.049 708.715 Q953.925 708.53 952.256 710.2 Q950.586 711.87 950.758 714.006 Q950.93 716.117 952.906 718.094 Q954.895 720.082 957.006 720.254 Q959.13 720.414 960.8 718.744 Z" fill="#000000" fill-rule="nonzero" fill-opacity="1" /><path clip-path="url(#clip270)" d="M968.546 693.91 Q966.631 695.825 967.552 698.685 Q968.472 701.521 972.253 705.302 Q976.022 709.071 978.87 710.004 Q981.718 710.912 983.633 708.997 Q985.561 707.07 984.64 704.234 Q983.719 701.373 979.95 697.605 Q976.169 693.824 973.321 692.915 Q970.473 691.982 968.546 693.91 M966.582 691.945 Q969.663 688.864 973.726 689.687 Q977.79 690.485 982.43 695.125 Q987.058 699.753 987.868 703.829 Q988.679 707.88 985.597 710.961 Q982.516 714.042 978.453 713.244 Q974.389 712.422 969.761 707.794 Q965.121 703.154 964.311 699.102 Q963.5 695.027 966.582 691.945 Z" fill="#000000" fill-rule="nonzero" fill-opacity="1" /><polyline clip-path="url(#clip270)" style="stroke:#000000; stroke-linecap:round; stroke-linejoin:round; stroke-width:4; stroke-opacity:1; fill:none" points="128.138,662.16 128.138,97.5521 "/>
<polyline clip-path="url(#clip270)" style="stroke:#000000; stroke-linecap:round; stroke-linejoin:round; stroke-width:4; stroke-opacity:1; fill:none" points="128.138,662.16 147.035,662.16 "/>
<polyline clip-path="url(#clip270)" style="stroke:#000000; stroke-linecap:round; stroke-linejoin:round; stroke-width:4; stroke-opacity:1; fill:none" points="128.138,515.509 147.035,515.509 "/>
<polyline clip-path="url(#clip270)" style="stroke:#000000; stroke-linecap:round; stroke-linejoin:round; stroke-width:4; stroke-opacity:1; fill:none" points="128.138,368.857 147.035,368.857 "/>
<polyline clip-path="url(#clip270)" style="stroke:#000000; stroke-linecap:round; stroke-linejoin:round; stroke-width:4; stroke-opacity:1; fill:none" points="128.138,222.206 147.035,222.206 "/>
<path clip-path="url(#clip270)" d="M83.1795 651.509 Q80.4711 651.509 79.0996 654.183 Q77.7455 656.839 77.7455 662.186 Q77.7455 667.516 79.0996 670.19 Q80.4711 672.846 83.1795 672.846 Q85.9051 672.846 87.2593 670.19 Q88.6308 667.516 88.6308 662.186 Q88.6308 656.839 87.2593 654.183 Q85.9051 651.509 83.1795 651.509 M83.1795 648.732 Q87.5371 648.732 89.8287 652.186 Q92.1377 655.624 92.1377 662.186 Q92.1377 668.732 89.8287 672.186 Q87.5371 675.624 83.1795 675.624 Q78.8218 675.624 76.5128 672.186 Q74.2212 668.732 74.2212 662.186 Q74.2212 655.624 76.5128 652.186 Q78.8218 648.732 83.1795 648.732 Z" fill="#000000" fill-rule="nonzero" fill-opacity="1" /><path clip-path="url(#clip270)" d="M56.0789 525.518 L68.3184 525.518 L68.3184 528.469 L51.8602 528.469 L51.8602 525.518 Q53.8567 523.452 57.2942 519.979 Q60.749 516.49 61.6344 515.483 Q63.3184 513.59 63.9782 512.288 Q64.6552 510.969 64.6552 509.702 Q64.6552 507.636 63.1969 506.334 Q61.756 505.032 59.4296 505.032 Q57.7803 505.032 55.94 505.604 Q54.1171 506.177 52.0338 507.341 L52.0338 503.799 Q54.1518 502.948 55.9921 502.514 Q57.8324 502.08 59.3601 502.08 Q63.3879 502.08 65.7837 504.094 Q68.1795 506.108 68.1795 509.476 Q68.1795 511.073 67.5719 512.514 Q66.9816 513.938 65.4018 515.882 Q64.9677 516.386 62.6414 518.799 Q60.315 521.195 56.0789 525.518 Z" fill="#000000" fill-rule="nonzero" fill-opacity="1" /><path clip-path="url(#clip270)" d="M83.1795 504.858 Q80.4711 504.858 79.0996 507.531 Q77.7455 510.188 77.7455 515.535 Q77.7455 520.865 79.0996 523.538 Q80.4711 526.195 83.1795 526.195 Q85.9051 526.195 87.2593 523.538 Q88.6308 520.865 88.6308 515.535 Q88.6308 510.188 87.2593 507.531 Q85.9051 504.858 83.1795 504.858 M83.1795 502.08 Q87.5371 502.08 89.8287 505.535 Q92.1377 508.972 92.1377 515.535 Q92.1377 522.08 89.8287 525.535 Q87.5371 528.972 83.1795 528.972 Q78.8218 528.972 76.5128 525.535 Q74.2212 522.08 74.2212 515.535 Q74.2212 508.972 76.5128 505.535 Q78.8218 502.08 83.1795 502.08 Z" fill="#000000" fill-rule="nonzero" fill-opacity="1" /><path clip-path="url(#clip270)" d="M62.6935 358.953 L53.8393 372.79 L62.6935 372.79 L62.6935 358.953 M61.7733 355.897 L66.183 355.897 L66.183 372.79 L69.8809 372.79 L69.8809 375.706 L66.183 375.706 L66.183 381.817 L62.6935 381.817 L62.6935 375.706 L50.9921 375.706 L50.9921 372.321 L61.7733 355.897 Z" fill="#000000" fill-rule="nonzero" fill-opacity="1" /><path clip-path="url(#clip270)" d="M83.1795 358.206 Q80.4711 358.206 79.0996 360.88 Q77.7455 363.536 77.7455 368.883 Q77.7455 374.213 79.0996 376.887 Q80.4711 379.543 83.1795 379.543 Q85.9051 379.543 87.2593 376.887 Q88.6308 374.213 88.6308 368.883 Q88.6308 363.536 87.2593 360.88 Q85.9051 358.206 83.1795 358.206 M83.1795 355.429 Q87.5371 355.429 89.8287 358.883 Q92.1377 362.321 92.1377 368.883 Q92.1377 375.429 89.8287 378.883 Q87.5371 382.321 83.1795 382.321 Q78.8218 382.321 76.5128 378.883 Q74.2212 375.429 74.2212 368.883 Q74.2212 362.321 76.5128 358.883 Q78.8218 355.429 83.1795 355.429 Z" fill="#000000" fill-rule="nonzero" fill-opacity="1" /><path clip-path="url(#clip270)" d="M60.9921 220.808 Q58.631 220.808 57.2421 222.423 Q55.8706 224.037 55.8706 226.85 Q55.8706 229.645 57.2421 231.277 Q58.631 232.892 60.9921 232.892 Q63.3532 232.892 64.7247 231.277 Q66.1136 229.645 66.1136 226.85 Q66.1136 224.037 64.7247 222.423 Q63.3532 220.808 60.9921 220.808 M67.9538 209.819 L67.9538 213.013 Q66.6344 212.388 65.2802 212.058 Q63.9434 211.729 62.624 211.729 Q59.1518 211.729 57.3115 214.072 Q55.4886 216.416 55.2282 221.156 Q56.2525 219.645 57.7976 218.847 Q59.3428 218.031 61.2004 218.031 Q65.1066 218.031 67.3636 220.409 Q69.6379 222.77 69.6379 226.85 Q69.6379 230.843 67.2768 233.256 Q64.9157 235.669 60.9921 235.669 Q56.4956 235.669 54.1171 232.232 Q51.7386 228.777 51.7386 222.232 Q51.7386 216.086 54.6553 212.44 Q57.572 208.777 62.4851 208.777 Q63.8046 208.777 65.1414 209.038 Q66.4955 209.298 67.9538 209.819 Z" fill="#000000" fill-rule="nonzero" fill-opacity="1" /><path clip-path="url(#clip270)" d="M83.1795 211.555 Q80.4711 211.555 79.0996 214.229 Q77.7455 216.885 77.7455 222.232 Q77.7455 227.562 79.0996 230.235 Q80.4711 232.892 83.1795 232.892 Q85.9051 232.892 87.2593 230.235 Q88.6308 227.562 88.6308 222.232 Q88.6308 216.885 87.2593 214.229 Q85.9051 211.555 83.1795 211.555 M83.1795 208.777 Q87.5371 208.777 89.8287 212.232 Q92.1377 215.669 92.1377 222.232 Q92.1377 228.777 89.8287 232.232 Q87.5371 235.669 83.1795 235.669 Q78.8218 235.669 76.5128 232.232 Q74.2212 228.777 74.2212 222.232 Q74.2212 215.669 76.5128 212.232 Q78.8218 208.777 83.1795 208.777 Z" fill="#000000" fill-rule="nonzero" fill-opacity="1" /><path clip-path="url(#clip270)" d="M130.221 20.1758 Q131.633 17.8147 135.128 15.7314 Q136.494 14.9212 140.707 14.9212 Q145.429 14.9212 148.369 18.6712 Q151.332 22.4212 151.332 28.5323 Q151.332 34.6433 148.369 38.3933 Q145.429 42.1433 140.707 42.1433 Q137.86 42.1433 135.8 41.0322 Q133.763 39.8979 132.42 37.5831 L132.42 51.3331 L128.138 51.3331 L128.138 28.7637 Q128.138 23.4165 130.221 20.1758 M146.911 28.5323 Q146.911 23.8332 144.966 21.1712 Q143.045 18.486 139.665 18.486 Q136.286 18.486 134.341 21.1712 Q132.42 23.8332 132.42 28.5323 Q132.42 33.2313 134.341 35.9165 Q136.286 38.5785 139.665 38.5785 Q143.045 38.5785 144.966 35.9165 Q146.911 33.2313 146.911 28.5323 Z" fill="#000000" fill-rule="nonzero" fill-opacity="1" /><path clip-path="url(#clip272)" d="M184.494 647.495 L184.494 662.16 L298.482 662.16 L298.482 647.495 L184.494 647.495 L184.494 647.495  Z" fill="#009af9" fill-rule="evenodd" fill-opacity="1"/>
<polyline clip-path="url(#clip272)" style="stroke:#000000; stroke-linecap:round; stroke-linejoin:round; stroke-width:4; stroke-opacity:1; fill:none" points="184.494,647.495 184.494,662.16 298.482,662.16 298.482,647.495 184.494,647.495 "/>
<path clip-path="url(#clip272)" d="M298.482 581.502 L298.482 662.16 L412.47 662.16 L412.47 581.502 L298.482 581.502 L298.482 581.502  Z" fill="#009af9" fill-rule="evenodd" fill-opacity="1"/>
<polyline clip-path="url(#clip272)" style="stroke:#000000; stroke-linecap:round; stroke-linejoin:round; stroke-width:4; stroke-opacity:1; fill:none" points="298.482,581.502 298.482,662.16 412.47,662.16 412.47,581.502 298.482,581.502 "/>
<path clip-path="url(#clip272)" d="M412.47 588.835 L412.47 662.16 L526.459 662.16 L526.459 588.835 L412.47 588.835 L412.47 588.835  Z" fill="#009af9" fill-rule="evenodd" fill-opacity="1"/>
<polyline clip-path="url(#clip272)" style="stroke:#000000; stroke-linecap:round; stroke-linejoin:round; stroke-width:4; stroke-opacity:1; fill:none" points="412.47,588.835 412.47,662.16 526.459,662.16 526.459,588.835 412.47,588.835 "/>
<path clip-path="url(#clip272)" d="M526.459 97.5521 L526.459 662.16 L640.447 662.16 L640.447 97.5521 L526.459 97.5521 L526.459 97.5521  Z" fill="#009af9" fill-rule="evenodd" fill-opacity="1"/>
<polyline clip-path="url(#clip272)" style="stroke:#000000; stroke-linecap:round; stroke-linejoin:round; stroke-width:4; stroke-opacity:1; fill:none" points="526.459,97.5521 526.459,662.16 640.447,662.16 640.447,97.5521 526.459,97.5521 "/>
<path clip-path="url(#clip272)" d="M640.447 478.846 L640.447 662.16 L754.435 662.16 L754.435 478.846 L640.447 478.846 L640.447 478.846  Z" fill="#009af9" fill-rule="evenodd" fill-opacity="1"/>
<polyline clip-path="url(#clip272)" style="stroke:#000000; stroke-linecap:round; stroke-linejoin:round; stroke-width:4; stroke-opacity:1; fill:none" points="640.447,478.846 640.447,662.16 754.435,662.16 754.435,478.846 640.447,478.846 "/>
<path clip-path="url(#clip272)" d="M754.435 339.527 L754.435 662.16 L868.423 662.16 L868.423 339.527 L754.435 339.527 L754.435 339.527  Z" fill="#009af9" fill-rule="evenodd" fill-opacity="1"/>
<polyline clip-path="url(#clip272)" style="stroke:#000000; stroke-linecap:round; stroke-linejoin:round; stroke-width:4; stroke-opacity:1; fill:none" points="754.435,339.527 754.435,662.16 868.423,662.16 868.423,339.527 754.435,339.527 "/>
<path clip-path="url(#clip272)" d="M868.423 515.509 L868.423 662.16 L982.412 662.16 L982.412 515.509 L868.423 515.509 L868.423 515.509  Z" fill="#009af9" fill-rule="evenodd" fill-opacity="1"/>
<polyline clip-path="url(#clip272)" style="stroke:#000000; stroke-linecap:round; stroke-linejoin:round; stroke-width:4; stroke-opacity:1; fill:none" points="868.423,515.509 868.423,662.16 982.412,662.16 982.412,515.509 868.423,515.509 "/>
<path clip-path="url(#clip272)" d="M982.412 427.518 L982.412 662.16 L1096.4 662.16 L1096.4 427.518 L982.412 427.518 L982.412 427.518  Z" fill="#009af9" fill-rule="evenodd" fill-opacity="1"/>
<polyline clip-path="url(#clip272)" style="stroke:#000000; stroke-linecap:round; stroke-linejoin:round; stroke-width:4; stroke-opacity:1; fill:none" points="982.412,427.518 982.412,662.16 1096.4,662.16 1096.4,427.518 982.412,427.518 "/>
<circle clip-path="url(#clip272)" style="fill:#009af9; stroke:none; fill-opacity:0" cx="241.488" cy="647.495" r="2"/>
<circle clip-path="url(#clip272)" style="fill:#009af9; stroke:none; fill-opacity:0" cx="355.476" cy="581.502" r="2"/>
<circle clip-path="url(#clip272)" style="fill:#009af9; stroke:none; fill-opacity:0" cx="469.464" cy="588.835" r="2"/>
<circle clip-path="url(#clip272)" style="fill:#009af9; stroke:none; fill-opacity:0" cx="583.453" cy="97.5521" r="2"/>
<circle clip-path="url(#clip272)" style="fill:#009af9; stroke:none; fill-opacity:0" cx="697.441" cy="478.846" r="2"/>
<circle clip-path="url(#clip272)" style="fill:#009af9; stroke:none; fill-opacity:0" cx="811.429" cy="339.527" r="2"/>
<circle clip-path="url(#clip272)" style="fill:#009af9; stroke:none; fill-opacity:0" cx="925.418" cy="515.509" r="2"/>
<circle clip-path="url(#clip272)" style="fill:#009af9; stroke:none; fill-opacity:0" cx="1039.41" cy="427.518" r="2"/>
<polyline clip-path="url(#clip272)" style="stroke:#ff0000; stroke-linecap:round; stroke-linejoin:round; stroke-width:8; stroke-opacity:1; fill:none" stroke-dasharray="32, 20" points="726.424,1226.77 726.424,-467.056 "/>
<polyline clip-path="url(#clip272)" style="stroke:#ff0000; stroke-linecap:round; stroke-linejoin:round; stroke-width:6; stroke-opacity:1; fill:none" stroke-dasharray="24, 12, 3, 12" points="314.035,1226.77 314.035,-467.056 "/>
<polyline clip-path="url(#clip272)" style="stroke:#ff0000; stroke-linecap:round; stroke-linejoin:round; stroke-width:6; stroke-opacity:1; fill:none" stroke-dasharray="24, 12, 3, 12" points="1021.54,1226.77 1021.54,-467.056 "/>
<path clip-path="url(#clip270)" d="M1328.14 662.16 L2352.76 662.16 L2352.76 97.5521 L1328.14 97.5521  Z" fill="#ffffff" fill-rule="evenodd" fill-opacity="1"/>
<defs>
  <clipPath id="clip273">
    <rect x="1328" y="97" width="1026" height="566"/>
  </clipPath>
</defs>
<polyline clip-path="url(#clip273)" style="stroke:#000000; stroke-linecap:round; stroke-linejoin:round; stroke-width:2; stroke-opacity:0.1; fill:none" points="1475.68,662.16 1475.68,97.5521 "/>
<polyline clip-path="url(#clip273)" style="stroke:#000000; stroke-linecap:round; stroke-linejoin:round; stroke-width:2; stroke-opacity:0.1; fill:none" points="1658.07,662.16 1658.07,97.5521 "/>
<polyline clip-path="url(#clip273)" style="stroke:#000000; stroke-linecap:round; stroke-linejoin:round; stroke-width:2; stroke-opacity:0.1; fill:none" points="1840.45,662.16 1840.45,97.5521 "/>
<polyline clip-path="url(#clip273)" style="stroke:#000000; stroke-linecap:round; stroke-linejoin:round; stroke-width:2; stroke-opacity:0.1; fill:none" points="2022.83,662.16 2022.83,97.5521 "/>
<polyline clip-path="url(#clip273)" style="stroke:#000000; stroke-linecap:round; stroke-linejoin:round; stroke-width:2; stroke-opacity:0.1; fill:none" points="2205.21,662.16 2205.21,97.5521 "/>
<polyline clip-path="url(#clip273)" style="stroke:#000000; stroke-linecap:round; stroke-linejoin:round; stroke-width:2; stroke-opacity:0.1; fill:none" points="1328.14,662.16 2352.76,662.16 "/>
<polyline clip-path="url(#clip273)" style="stroke:#000000; stroke-linecap:round; stroke-linejoin:round; stroke-width:2; stroke-opacity:0.1; fill:none" points="1328.14,521.008 2352.76,521.008 "/>
<polyline clip-path="url(#clip273)" style="stroke:#000000; stroke-linecap:round; stroke-linejoin:round; stroke-width:2; stroke-opacity:0.1; fill:none" points="1328.14,379.856 2352.76,379.856 "/>
<polyline clip-path="url(#clip273)" style="stroke:#000000; stroke-linecap:round; stroke-linejoin:round; stroke-width:2; stroke-opacity:0.1; fill:none" points="1328.14,238.704 2352.76,238.704 "/>
<polyline clip-path="url(#clip273)" style="stroke:#000000; stroke-linecap:round; stroke-linejoin:round; stroke-width:2; stroke-opacity:0.1; fill:none" points="1328.14,97.5521 2352.76,97.5521 "/>
<polyline clip-path="url(#clip270)" style="stroke:#000000; stroke-linecap:round; stroke-linejoin:round; stroke-width:4; stroke-opacity:1; fill:none" points="1328.14,662.16 2352.76,662.16 "/>
<polyline clip-path="url(#clip270)" style="stroke:#000000; stroke-linecap:round; stroke-linejoin:round; stroke-width:4; stroke-opacity:1; fill:none" points="1475.68,662.16 1475.68,643.263 "/>
<polyline clip-path="url(#clip270)" style="stroke:#000000; stroke-linecap:round; stroke-linejoin:round; stroke-width:4; stroke-opacity:1; fill:none" points="1658.07,662.16 1658.07,643.263 "/>
<polyline clip-path="url(#clip270)" style="stroke:#000000; stroke-linecap:round; stroke-linejoin:round; stroke-width:4; stroke-opacity:1; fill:none" points="1840.45,662.16 1840.45,643.263 "/>
<polyline clip-path="url(#clip270)" style="stroke:#000000; stroke-linecap:round; stroke-linejoin:round; stroke-width:4; stroke-opacity:1; fill:none" points="2022.83,662.16 2022.83,643.263 "/>
<polyline clip-path="url(#clip270)" style="stroke:#000000; stroke-linecap:round; stroke-linejoin:round; stroke-width:4; stroke-opacity:1; fill:none" points="2205.21,662.16 2205.21,643.263 "/>
<path clip-path="url(#clip270)" d="M1422.49 733.242 Q1420.57 735.157 1421.49 738.018 Q1422.41 740.853 1426.19 744.634 Q1429.96 748.403 1432.81 749.336 Q1435.66 750.245 1437.57 748.33 Q1439.5 746.402 1438.58 743.566 Q1437.66 740.706 1433.89 736.937 Q1430.11 733.156 1427.26 732.248 Q1424.41 731.315 1422.49 733.242 M1420.52 731.278 Q1423.6 728.197 1427.67 729.019 Q1431.73 729.817 1436.37 734.458 Q1441 739.086 1441.81 743.161 Q1442.62 747.212 1439.54 750.294 Q1436.46 753.375 1432.39 752.577 Q1428.33 751.755 1423.7 747.126 Q1419.06 742.486 1418.25 738.435 Q1417.44 734.359 1420.52 731.278 Z" fill="#000000" fill-rule="nonzero" fill-opacity="1" /><path clip-path="url(#clip270)" d="M1446.76 736.127 L1449.35 733.537 L1452.46 736.655 L1449.87 739.245 L1446.76 736.127 Z" fill="#000000" fill-rule="nonzero" fill-opacity="1" /><path clip-path="url(#clip270)" d="M1455.5 713.858 Q1457.66 712.459 1459.85 712.667 Q1462.06 712.864 1463.83 714.632 Q1466.54 717.345 1466.16 720.696 Q1465.78 724.047 1462.35 727.485 Q1461.19 728.639 1459.73 729.633 Q1458.3 730.627 1456.54 731.474 L1454.15 729.081 Q1455.78 728.651 1457.31 727.73 Q1458.85 726.81 1460.19 725.471 Q1462.52 723.139 1462.81 721.003 Q1463.12 718.855 1461.36 717.099 Q1459.74 715.479 1457.69 715.712 Q1455.64 715.921 1453.62 717.946 L1451.48 720.082 L1449.44 718.044 L1451.68 715.81 Q1453.51 713.981 1453.75 712.287 Q1453.99 710.581 1452.61 709.206 Q1451.2 707.794 1449.44 708.052 Q1447.69 708.285 1445.82 710.151 Q1444.8 711.17 1443.86 712.557 Q1442.91 713.944 1441.98 715.81 L1439.77 713.6 Q1440.79 711.796 1441.82 710.372 Q1442.86 708.936 1443.96 707.843 Q1446.78 705.019 1449.71 704.663 Q1452.64 704.295 1454.82 706.48 Q1456.34 708.003 1456.53 709.93 Q1456.7 711.845 1455.5 713.858 Z" fill="#000000" fill-rule="nonzero" fill-opacity="1" /><path clip-path="url(#clip270)" d="M1472.2 712.741 L1476.26 708.69 L1462.27 694.708 L1458.75 699.999 L1456.49 697.74 L1459.99 692.473 L1462.47 689.994 L1478.71 706.235 L1482.76 702.184 L1484.85 704.271 L1474.29 714.828 L1472.2 712.741 Z" fill="#000000" fill-rule="nonzero" fill-opacity="1" /><path clip-path="url(#clip270)" d="M1605.06 733.046 Q1603.15 734.961 1604.07 737.821 Q1604.99 740.657 1608.77 744.438 Q1612.54 748.207 1615.39 749.14 Q1618.24 750.048 1620.15 748.133 Q1622.08 746.206 1621.16 743.37 Q1620.24 740.51 1616.47 736.741 Q1612.69 732.96 1609.84 732.051 Q1606.99 731.118 1605.06 733.046 M1603.1 731.082 Q1606.18 728 1610.24 728.823 Q1614.31 729.621 1618.95 734.261 Q1623.58 738.889 1624.39 742.965 Q1625.2 747.016 1622.11 750.097 Q1619.03 753.179 1614.97 752.381 Q1610.91 751.558 1606.28 746.93 Q1601.64 742.29 1600.83 738.239 Q1600.02 734.163 1603.1 731.082 Z" fill="#000000" fill-rule="nonzero" fill-opacity="1" /><path clip-path="url(#clip270)" d="M1629.33 735.931 L1631.92 733.34 L1635.04 736.459 L1632.45 739.049 L1629.33 735.931 Z" fill="#000000" fill-rule="nonzero" fill-opacity="1" /><path clip-path="url(#clip270)" d="M1638.07 713.662 Q1640.23 712.262 1642.43 712.471 Q1644.64 712.667 1646.41 714.435 Q1649.12 717.148 1648.74 720.5 Q1648.36 723.851 1644.92 727.288 Q1643.77 728.442 1642.31 729.437 Q1640.87 730.431 1639.12 731.278 L1636.72 728.884 Q1638.36 728.455 1639.89 727.534 Q1641.43 726.613 1642.76 725.275 Q1645.1 722.943 1645.39 720.807 Q1645.7 718.658 1643.94 716.903 Q1642.32 715.282 1640.27 715.516 Q1638.22 715.724 1636.2 717.75 L1634.06 719.886 L1632.02 717.848 L1634.26 715.614 Q1636.09 713.785 1636.33 712.091 Q1636.56 710.384 1635.19 709.009 Q1633.78 707.597 1632.02 707.855 Q1630.27 708.088 1628.4 709.954 Q1627.38 710.973 1626.44 712.361 Q1625.49 713.748 1624.56 715.614 L1622.35 713.404 Q1623.37 711.599 1624.4 710.175 Q1625.44 708.739 1626.53 707.647 Q1629.36 704.823 1632.29 704.467 Q1635.21 704.099 1637.4 706.284 Q1638.92 707.806 1639.11 709.733 Q1639.28 711.649 1638.07 713.662 Z" fill="#000000" fill-rule="nonzero" fill-opacity="1" /><path clip-path="url(#clip270)" d="M1656.49 710.838 L1665.14 702.184 L1667.23 704.271 L1655.59 715.908 L1653.5 713.821 Q1653.46 710.949 1653.43 706.063 Q1653.41 701.153 1653.32 699.814 Q1653.17 697.286 1652.72 695.898 Q1652.27 694.487 1651.37 693.59 Q1649.91 692.13 1647.96 692.24 Q1646.02 692.338 1644.37 693.983 Q1643.21 695.149 1642.31 696.856 Q1641.43 698.55 1640.77 700.846 L1638.27 698.341 Q1639.17 696.242 1640.16 694.634 Q1641.16 693.026 1642.24 691.945 Q1645.08 689.097 1648.2 688.827 Q1651.32 688.557 1653.7 690.939 Q1654.83 692.068 1655.42 693.517 Q1656.01 694.941 1656.27 697.433 Q1656.32 698.096 1656.38 701.447 Q1656.43 704.786 1656.49 710.838 Z" fill="#000000" fill-rule="nonzero" fill-opacity="1" /><path clip-path="url(#clip270)" d="M1786.94 733.549 Q1785.03 735.464 1785.95 738.325 Q1786.87 741.16 1790.65 744.941 Q1794.42 748.71 1797.27 749.643 Q1800.11 750.552 1802.03 748.636 Q1803.96 746.709 1803.04 743.873 Q1802.11 741.013 1798.35 737.244 Q1794.56 733.463 1791.72 732.555 Q1788.87 731.622 1786.94 733.549 M1784.98 731.585 Q1788.06 728.504 1792.12 729.326 Q1796.19 730.124 1800.83 734.764 Q1805.45 739.393 1806.26 743.468 Q1807.07 747.519 1803.99 750.601 Q1800.91 753.682 1796.85 752.884 Q1792.78 752.061 1788.16 747.433 Q1783.52 742.793 1782.71 738.742 Q1781.9 734.666 1784.98 731.585 Z" fill="#000000" fill-rule="nonzero" fill-opacity="1" /><path clip-path="url(#clip270)" d="M1811.21 736.434 L1813.8 733.844 L1816.92 736.962 L1814.33 739.552 L1811.21 736.434 Z" fill="#000000" fill-rule="nonzero" fill-opacity="1" /><path clip-path="url(#clip270)" d="M1819.95 714.165 Q1822.11 712.766 1824.31 712.974 Q1826.52 713.171 1828.29 714.939 Q1831 717.652 1830.62 721.003 Q1830.24 724.354 1826.8 727.792 Q1825.65 728.946 1824.19 729.94 Q1822.75 730.934 1821 731.781 L1818.6 729.388 Q1820.23 728.958 1821.77 728.037 Q1823.3 727.116 1824.64 725.778 Q1826.97 723.446 1827.27 721.31 Q1827.58 719.162 1825.82 717.406 Q1824.2 715.786 1822.15 716.019 Q1820.1 716.228 1818.07 718.253 L1815.94 720.389 L1813.9 718.351 L1816.13 716.117 Q1817.96 714.288 1818.21 712.594 Q1818.44 710.887 1817.07 709.513 Q1815.66 708.101 1813.9 708.359 Q1812.14 708.592 1810.28 710.458 Q1809.26 711.477 1808.31 712.864 Q1807.37 714.251 1806.44 716.117 L1804.23 713.907 Q1805.25 712.103 1806.28 710.679 Q1807.32 709.242 1808.41 708.15 Q1811.24 705.326 1814.17 704.97 Q1817.09 704.602 1819.28 706.787 Q1820.8 708.309 1820.98 710.237 Q1821.15 712.152 1819.95 714.165 Z" fill="#000000" fill-rule="nonzero" fill-opacity="1" /><path clip-path="url(#clip270)" d="M1835.95 698.169 Q1838.11 696.77 1840.31 696.979 Q1842.52 697.175 1844.28 698.943 Q1847 701.656 1846.62 705.007 Q1846.24 708.359 1842.8 711.796 Q1841.64 712.95 1840.18 713.944 Q1838.75 714.939 1836.99 715.786 L1834.6 713.392 Q1836.23 712.962 1837.76 712.041 Q1839.3 711.121 1840.64 709.783 Q1842.97 707.45 1843.26 705.314 Q1843.57 703.166 1841.82 701.41 Q1840.2 699.79 1838.15 700.023 Q1836.09 700.232 1834.07 702.257 L1831.93 704.393 L1829.9 702.356 L1832.13 700.121 Q1833.96 698.292 1834.2 696.598 Q1834.44 694.892 1833.06 693.517 Q1831.65 692.105 1829.9 692.363 Q1828.14 692.596 1826.27 694.462 Q1825.26 695.481 1824.31 696.868 Q1823.36 698.255 1822.43 700.121 L1820.22 697.912 Q1821.24 696.107 1822.27 694.683 Q1823.32 693.247 1824.41 692.154 Q1827.23 689.331 1830.17 688.975 Q1833.09 688.606 1835.27 690.791 Q1836.79 692.314 1836.98 694.241 Q1837.15 696.156 1835.95 698.169 Z" fill="#000000" fill-rule="nonzero" fill-opacity="1" /><path clip-path="url(#clip270)" d="M1968.72 734.151 Q1966.81 736.066 1967.73 738.926 Q1968.65 741.762 1972.43 745.543 Q1976.2 749.312 1979.05 750.245 Q1981.89 751.153 1983.81 749.238 Q1985.74 747.311 1984.82 744.475 Q1983.89 741.615 1980.13 737.846 Q1976.34 734.065 1973.5 733.156 Q1970.65 732.223 1968.72 734.151 M1966.76 732.186 Q1969.84 729.105 1973.9 729.928 Q1977.97 730.726 1982.61 735.366 Q1987.23 739.994 1988.04 744.07 Q1988.85 748.121 1985.77 751.202 Q1982.69 754.283 1978.63 753.485 Q1974.56 752.663 1969.94 748.035 Q1965.3 743.395 1964.49 739.343 Q1963.68 735.268 1966.76 732.186 Z" fill="#000000" fill-rule="nonzero" fill-opacity="1" /><path clip-path="url(#clip270)" d="M1992.99 737.036 L1995.58 734.445 L1998.7 737.563 L1996.11 740.154 L1992.99 737.036 Z" fill="#000000" fill-rule="nonzero" fill-opacity="1" /><path clip-path="url(#clip270)" d="M2001.73 714.767 Q2003.89 713.367 2006.09 713.576 Q2008.3 713.772 2010.07 715.54 Q2012.78 718.253 2012.4 721.604 Q2012.02 724.956 2008.58 728.393 Q2007.43 729.547 2005.97 730.541 Q2004.53 731.536 2002.78 732.383 L2000.38 729.989 Q2002.01 729.559 2003.55 728.639 Q2005.08 727.718 2006.42 726.38 Q2008.75 724.047 2009.05 721.911 Q2009.36 719.763 2007.6 718.008 Q2005.98 716.387 2003.93 716.62 Q2001.88 716.829 1999.85 718.855 L1997.72 720.991 L1995.68 718.953 L1997.91 716.719 Q1999.74 714.889 1999.99 713.195 Q2000.22 711.489 1998.85 710.114 Q1997.44 708.702 1995.68 708.96 Q1993.92 709.193 1992.06 711.059 Q1991.04 712.078 1990.09 713.465 Q1989.15 714.853 1988.22 716.719 L1986.01 714.509 Q1987.02 712.704 1988.06 711.28 Q1989.1 709.844 1990.19 708.751 Q1993.02 705.928 1995.95 705.572 Q1998.87 705.204 2001.06 707.389 Q2002.58 708.911 2002.76 710.838 Q2002.93 712.753 2001.73 714.767 Z" fill="#000000" fill-rule="nonzero" fill-opacity="1" /><path clip-path="url(#clip270)" d="M2010.74 693.185 L2014.27 709.23 L2020.53 702.969 L2010.74 693.185 M2007.93 691.675 L2011.05 688.557 L2022.99 700.502 L2025.61 697.887 L2027.67 699.949 L2025.06 702.564 L2029.38 706.885 L2026.91 709.353 L2022.59 705.032 L2014.31 713.306 L2011.92 710.912 L2007.93 691.675 Z" fill="#000000" fill-rule="nonzero" fill-opacity="1" /><path clip-path="url(#clip270)" d="M2151.89 733.365 Q2149.97 735.28 2150.89 738.14 Q2151.81 740.976 2155.6 744.757 Q2159.36 748.526 2162.21 749.459 Q2165.06 750.367 2166.98 748.452 Q2168.9 746.525 2167.98 743.689 Q2167.06 740.829 2163.29 737.06 Q2159.51 733.279 2156.66 732.371 Q2153.82 731.438 2151.89 733.365 M2149.92 731.401 Q2153.01 728.32 2157.07 729.142 Q2161.13 729.94 2165.77 734.58 Q2170.4 739.208 2171.21 743.284 Q2172.02 747.335 2168.94 750.416 Q2165.86 753.498 2161.8 752.7 Q2157.73 751.877 2153.1 747.249 Q2148.46 742.609 2147.65 738.558 Q2146.84 734.482 2149.92 731.401 Z" fill="#000000" fill-rule="nonzero" fill-opacity="1" /><path clip-path="url(#clip270)" d="M2176.16 736.25 L2178.75 733.66 L2181.87 736.778 L2179.28 739.368 L2176.16 736.25 Z" fill="#000000" fill-rule="nonzero" fill-opacity="1" /><path clip-path="url(#clip270)" d="M2184.9 713.981 Q2187.06 712.582 2189.26 712.79 Q2191.47 712.987 2193.23 714.754 Q2195.95 717.467 2195.57 720.819 Q2195.19 724.17 2191.75 727.607 Q2190.59 728.761 2189.13 729.756 Q2187.7 730.75 2185.94 731.597 L2183.55 729.203 Q2185.18 728.774 2186.72 727.853 Q2188.25 726.932 2189.59 725.594 Q2191.92 723.262 2192.22 721.126 Q2192.52 718.977 2190.77 717.222 Q2189.15 715.601 2187.1 715.835 Q2185.05 716.043 2183.02 718.069 L2180.88 720.205 L2178.85 718.167 L2181.08 715.933 Q2182.91 714.104 2183.16 712.41 Q2183.39 710.703 2182.01 709.328 Q2180.6 707.917 2178.85 708.174 Q2177.09 708.408 2175.23 710.274 Q2174.21 711.293 2173.26 712.68 Q2172.32 714.067 2171.38 715.933 L2169.17 713.723 Q2170.19 711.919 2171.22 710.495 Q2172.27 709.058 2173.36 707.966 Q2176.18 705.142 2179.12 704.786 Q2182.04 704.418 2184.22 706.603 Q2185.75 708.125 2185.93 710.053 Q2186.1 711.968 2184.9 713.981 Z" fill="#000000" fill-rule="nonzero" fill-opacity="1" /><path clip-path="url(#clip270)" d="M2184.96 697.028 L2194.69 687.293 L2196.78 689.38 L2189.32 696.844 L2193.81 701.337 Q2194.17 700.612 2194.62 699.986 Q2195.06 699.348 2195.6 698.808 Q2198.67 695.739 2202.15 695.628 Q2205.62 695.518 2208.49 698.39 Q2211.45 701.349 2211.26 704.835 Q2211.05 708.309 2207.7 711.661 Q2206.54 712.815 2205.14 713.821 Q2203.75 714.816 2202.09 715.7 L2199.59 713.208 Q2201.3 712.704 2202.77 711.82 Q2204.25 710.937 2205.56 709.623 Q2207.68 707.499 2207.81 705.142 Q2207.93 702.785 2206.01 700.87 Q2204.1 698.955 2201.74 699.078 Q2199.38 699.201 2197.26 701.324 Q2196.27 702.319 2195.49 703.534 Q2194.73 704.737 2194.17 706.235 L2184.96 697.028 Z" fill="#000000" fill-rule="nonzero" fill-opacity="1" /><polyline clip-path="url(#clip270)" style="stroke:#000000; stroke-linecap:round; stroke-linejoin:round; stroke-width:4; stroke-opacity:1; fill:none" points="1328.14,662.16 1328.14,97.5521 "/>
<polyline clip-path="url(#clip270)" style="stroke:#000000; stroke-linecap:round; stroke-linejoin:round; stroke-width:4; stroke-opacity:1; fill:none" points="1328.14,662.16 1347.04,662.16 "/>
<polyline clip-path="url(#clip270)" style="stroke:#000000; stroke-linecap:round; stroke-linejoin:round; stroke-width:4; stroke-opacity:1; fill:none" points="1328.14,521.008 1347.04,521.008 "/>
<polyline clip-path="url(#clip270)" style="stroke:#000000; stroke-linecap:round; stroke-linejoin:round; stroke-width:4; stroke-opacity:1; fill:none" points="1328.14,379.856 1347.04,379.856 "/>
<polyline clip-path="url(#clip270)" style="stroke:#000000; stroke-linecap:round; stroke-linejoin:round; stroke-width:4; stroke-opacity:1; fill:none" points="1328.14,238.704 1347.04,238.704 "/>
<polyline clip-path="url(#clip270)" style="stroke:#000000; stroke-linecap:round; stroke-linejoin:round; stroke-width:4; stroke-opacity:1; fill:none" points="1328.14,97.5521 1347.04,97.5521 "/>
<path clip-path="url(#clip270)" d="M1283.18 651.509 Q1280.47 651.509 1279.1 654.183 Q1277.75 656.839 1277.75 662.186 Q1277.75 667.516 1279.1 670.19 Q1280.47 672.846 1283.18 672.846 Q1285.91 672.846 1287.26 670.19 Q1288.63 667.516 1288.63 662.186 Q1288.63 656.839 1287.26 654.183 Q1285.91 651.509 1283.18 651.509 M1283.18 648.732 Q1287.54 648.732 1289.83 652.186 Q1292.14 655.624 1292.14 662.186 Q1292.14 668.732 1289.83 672.186 Q1287.54 675.624 1283.18 675.624 Q1278.82 675.624 1276.51 672.186 Q1274.22 668.732 1274.22 662.186 Q1274.22 655.624 1276.51 652.186 Q1278.82 648.732 1283.18 648.732 Z" fill="#000000" fill-rule="nonzero" fill-opacity="1" /><path clip-path="url(#clip270)" d="M1253.67 531.017 L1259.39 531.017 L1259.39 511.243 L1253.16 512.493 L1253.16 509.298 L1259.36 508.048 L1262.87 508.048 L1262.87 531.017 L1268.6 531.017 L1268.6 533.968 L1253.67 533.968 L1253.67 531.017 Z" fill="#000000" fill-rule="nonzero" fill-opacity="1" /><path clip-path="url(#clip270)" d="M1283.18 510.357 Q1280.47 510.357 1279.1 513.031 Q1277.75 515.687 1277.75 521.034 Q1277.75 526.364 1279.1 529.038 Q1280.47 531.694 1283.18 531.694 Q1285.91 531.694 1287.26 529.038 Q1288.63 526.364 1288.63 521.034 Q1288.63 515.687 1287.26 513.031 Q1285.91 510.357 1283.18 510.357 M1283.18 507.58 Q1287.54 507.58 1289.83 511.034 Q1292.14 514.472 1292.14 521.034 Q1292.14 527.579 1289.83 531.034 Q1287.54 534.472 1283.18 534.472 Q1278.82 534.472 1276.51 531.034 Q1274.22 527.579 1274.22 521.034 Q1274.22 514.472 1276.51 511.034 Q1278.82 507.58 1283.18 507.58 Z" fill="#000000" fill-rule="nonzero" fill-opacity="1" /><path clip-path="url(#clip270)" d="M1256.08 389.865 L1268.32 389.865 L1268.32 392.816 L1251.86 392.816 L1251.86 389.865 Q1253.86 387.799 1257.29 384.327 Q1260.75 380.837 1261.63 379.83 Q1263.32 377.938 1263.98 376.636 Q1264.66 375.316 1264.66 374.049 Q1264.66 371.983 1263.2 370.681 Q1261.76 369.379 1259.43 369.379 Q1257.78 369.379 1255.94 369.952 Q1254.12 370.525 1252.03 371.688 L1252.03 368.146 Q1254.15 367.296 1255.99 366.862 Q1257.83 366.428 1259.36 366.428 Q1263.39 366.428 1265.78 368.441 Q1268.18 370.455 1268.18 373.823 Q1268.18 375.421 1267.57 376.861 Q1266.98 378.285 1265.4 380.23 Q1264.97 380.733 1262.64 383.146 Q1260.31 385.542 1256.08 389.865 Z" fill="#000000" fill-rule="nonzero" fill-opacity="1" /><path clip-path="url(#clip270)" d="M1283.18 369.205 Q1280.47 369.205 1279.1 371.879 Q1277.75 374.535 1277.75 379.882 Q1277.75 385.212 1279.1 387.886 Q1280.47 390.542 1283.18 390.542 Q1285.91 390.542 1287.26 387.886 Q1288.63 385.212 1288.63 379.882 Q1288.63 374.535 1287.26 371.879 Q1285.91 369.205 1283.18 369.205 M1283.18 366.428 Q1287.54 366.428 1289.83 369.882 Q1292.14 373.32 1292.14 379.882 Q1292.14 386.427 1289.83 389.882 Q1287.54 393.32 1283.18 393.32 Q1278.82 393.32 1276.51 389.882 Q1274.22 386.427 1274.22 379.882 Q1274.22 373.32 1276.51 369.882 Q1278.82 366.428 1283.18 366.428 Z" fill="#000000" fill-rule="nonzero" fill-opacity="1" /><path clip-path="url(#clip270)" d="M1263.68 237.689 Q1266.2 238.227 1267.61 239.928 Q1269.03 241.63 1269.03 244.13 Q1269.03 247.966 1266.39 250.067 Q1263.75 252.168 1258.89 252.168 Q1257.26 252.168 1255.52 251.838 Q1253.8 251.525 1251.96 250.883 L1251.96 247.498 Q1253.42 248.348 1255.16 248.782 Q1256.89 249.216 1258.79 249.216 Q1262.09 249.216 1263.8 247.914 Q1265.54 246.612 1265.54 244.13 Q1265.54 241.838 1263.93 240.553 Q1262.33 239.251 1259.46 239.251 L1256.44 239.251 L1256.44 236.369 L1259.6 236.369 Q1262.19 236.369 1263.56 235.345 Q1264.93 234.303 1264.93 232.359 Q1264.93 230.362 1263.51 229.303 Q1262.1 228.227 1259.46 228.227 Q1258.02 228.227 1256.37 228.539 Q1254.72 228.852 1252.75 229.512 L1252.75 226.387 Q1254.74 225.831 1256.48 225.553 Q1258.23 225.275 1259.78 225.275 Q1263.77 225.275 1266.1 227.098 Q1268.42 228.904 1268.42 231.994 Q1268.42 234.147 1267.19 235.64 Q1265.96 237.116 1263.68 237.689 Z" fill="#000000" fill-rule="nonzero" fill-opacity="1" /><path clip-path="url(#clip270)" d="M1283.18 228.053 Q1280.47 228.053 1279.1 230.727 Q1277.75 233.383 1277.75 238.73 Q1277.75 244.06 1279.1 246.734 Q1280.47 249.39 1283.18 249.39 Q1285.91 249.39 1287.26 246.734 Q1288.63 244.06 1288.63 238.73 Q1288.63 233.383 1287.26 230.727 Q1285.91 228.053 1283.18 228.053 M1283.18 225.275 Q1287.54 225.275 1289.83 228.73 Q1292.14 232.168 1292.14 238.73 Q1292.14 245.275 1289.83 248.73 Q1287.54 252.168 1283.18 252.168 Q1278.82 252.168 1276.51 248.73 Q1274.22 245.275 1274.22 238.73 Q1274.22 232.168 1276.51 228.73 Q1278.82 225.275 1283.18 225.275 Z" fill="#000000" fill-rule="nonzero" fill-opacity="1" /><path clip-path="url(#clip270)" d="M1262.69 87.6477 L1253.84 101.484 L1262.69 101.484 L1262.69 87.6477 M1261.77 84.5921 L1266.18 84.5921 L1266.18 101.484 L1269.88 101.484 L1269.88 104.401 L1266.18 104.401 L1266.18 110.512 L1262.69 110.512 L1262.69 104.401 L1250.99 104.401 L1250.99 101.016 L1261.77 84.5921 Z" fill="#000000" fill-rule="nonzero" fill-opacity="1" /><path clip-path="url(#clip270)" d="M1283.18 86.9011 Q1280.47 86.9011 1279.1 89.5747 Q1277.75 92.231 1277.75 97.5782 Q1277.75 102.908 1279.1 105.582 Q1280.47 108.238 1283.18 108.238 Q1285.91 108.238 1287.26 105.582 Q1288.63 102.908 1288.63 97.5782 Q1288.63 92.231 1287.26 89.5747 Q1285.91 86.9011 1283.18 86.9011 M1283.18 84.1234 Q1287.54 84.1234 1289.83 87.5782 Q1292.14 91.0157 1292.14 97.5782 Q1292.14 104.123 1289.83 107.578 Q1287.54 111.016 1283.18 111.016 Q1278.82 111.016 1276.51 107.578 Q1274.22 104.123 1274.22 97.5782 Q1274.22 91.0157 1276.51 87.5782 Q1278.82 84.1234 1283.18 84.1234 Z" fill="#000000" fill-rule="nonzero" fill-opacity="1" /><path clip-path="url(#clip270)" d="M1340.04 18.9258 Q1336.52 18.9258 1334.62 21.4721 Q1332.63 24.1341 1332.63 28.5323 Q1332.63 33.185 1334.6 35.8702 Q1336.59 38.5322 1340.04 38.5322 Q1343.44 38.5322 1345.43 35.847 Q1347.42 33.1619 1347.42 28.5323 Q1347.42 24.2962 1345.43 21.4721 Q1343.6 18.9258 1340.04 18.9258 M1340.04 15.5462 L1354.18 15.5462 L1354.18 19.8054 L1349.41 19.8054 Q1351.93 23.4165 1351.93 28.5323 Q1351.93 34.898 1348.76 38.5091 Q1345.59 42.1433 1340.04 42.1433 Q1334.46 42.1433 1331.31 38.5091 Q1328.14 34.898 1328.14 28.5323 Q1328.14 22.1203 1331.31 18.5323 Q1333.92 15.5462 1340.04 15.5462 Z" fill="#000000" fill-rule="nonzero" fill-opacity="1" /><path clip-path="url(#clip270)" d="M1378.35 19.6666 Q1377.49 19.3656 1376.63 19.1342 Q1374.34 18.5323 1371.89 18.5323 Q1367.65 18.5323 1365.29 20.824 Q1363.09 22.9536 1362.67 26.8656 L1378.35 26.8656 L1378.35 30.1989 L1362.67 30.1989 Q1363.09 34.1109 1365.29 36.2405 Q1367.65 38.5322 1371.89 38.5322 Q1374.85 38.5322 1376.63 37.9304 L1378.35 37.3517 L1378.35 41.2174 L1376.52 41.634 Q1374.11 42.1433 1371.63 42.1433 Q1365.43 42.1433 1361.82 38.5322 Q1358.18 34.9211 1358.18 28.5323 Q1358.18 22.1434 1361.82 18.5323 Q1365.43 14.9212 1371.63 14.9212 Q1373.97 14.9212 1376.52 15.4305 Q1377.44 15.6157 1378.35 15.8934 L1378.35 19.6666 Z" fill="#000000" fill-rule="nonzero" fill-opacity="1" /><path clip-path="url(#clip273)" d="M1384.49 323.395 L1384.49 662.16 L1475.68 662.16 L1475.68 323.395 L1384.49 323.395 L1384.49 323.395  Z" fill="#009af9" fill-rule="evenodd" fill-opacity="1"/>
<polyline clip-path="url(#clip273)" style="stroke:#000000; stroke-linecap:round; stroke-linejoin:round; stroke-width:4; stroke-opacity:1; fill:none" points="1384.49,323.395 1384.49,662.16 1475.68,662.16 1475.68,323.395 1384.49,323.395 "/>
<path clip-path="url(#clip273)" d="M1475.68 422.202 L1475.68 662.16 L1566.87 662.16 L1566.87 422.202 L1475.68 422.202 L1475.68 422.202  Z" fill="#009af9" fill-rule="evenodd" fill-opacity="1"/>
<polyline clip-path="url(#clip273)" style="stroke:#000000; stroke-linecap:round; stroke-linejoin:round; stroke-width:4; stroke-opacity:1; fill:none" points="1475.68,422.202 1475.68,662.16 1566.87,662.16 1566.87,422.202 1475.68,422.202 "/>
<path clip-path="url(#clip273)" d="M1566.87 309.28 L1566.87 662.16 L1658.07 662.16 L1658.07 309.28 L1566.87 309.28 L1566.87 309.28  Z" fill="#009af9" fill-rule="evenodd" fill-opacity="1"/>
<polyline clip-path="url(#clip273)" style="stroke:#000000; stroke-linecap:round; stroke-linejoin:round; stroke-width:4; stroke-opacity:1; fill:none" points="1566.87,309.28 1566.87,662.16 1658.07,662.16 1658.07,309.28 1566.87,309.28 "/>
<path clip-path="url(#clip273)" d="M1658.07 125.783 L1658.07 662.16 L1749.26 662.16 L1749.26 125.783 L1658.07 125.783 L1658.07 125.783  Z" fill="#009af9" fill-rule="evenodd" fill-opacity="1"/>
<polyline clip-path="url(#clip273)" style="stroke:#000000; stroke-linecap:round; stroke-linejoin:round; stroke-width:4; stroke-opacity:1; fill:none" points="1658.07,125.783 1658.07,662.16 1749.26,662.16 1749.26,125.783 1658.07,125.783 "/>
<path clip-path="url(#clip273)" d="M1749.26 139.898 L1749.26 662.16 L1840.45 662.16 L1840.45 139.898 L1749.26 139.898 L1749.26 139.898  Z" fill="#009af9" fill-rule="evenodd" fill-opacity="1"/>
<polyline clip-path="url(#clip273)" style="stroke:#000000; stroke-linecap:round; stroke-linejoin:round; stroke-width:4; stroke-opacity:1; fill:none" points="1749.26,139.898 1749.26,662.16 1840.45,662.16 1840.45,139.898 1749.26,139.898 "/>
<path clip-path="url(#clip273)" d="M1840.45 97.5521 L1840.45 662.16 L1931.64 662.16 L1931.64 97.5521 L1840.45 97.5521 L1840.45 97.5521  Z" fill="#009af9" fill-rule="evenodd" fill-opacity="1"/>
<polyline clip-path="url(#clip273)" style="stroke:#000000; stroke-linecap:round; stroke-linejoin:round; stroke-width:4; stroke-opacity:1; fill:none" points="1840.45,97.5521 1840.45,662.16 1931.64,662.16 1931.64,97.5521 1840.45,97.5521 "/>
<path clip-path="url(#clip273)" d="M1931.64 309.28 L1931.64 662.16 L2022.83 662.16 L2022.83 309.28 L1931.64 309.28 L1931.64 309.28  Z" fill="#009af9" fill-rule="evenodd" fill-opacity="1"/>
<polyline clip-path="url(#clip273)" style="stroke:#000000; stroke-linecap:round; stroke-linejoin:round; stroke-width:4; stroke-opacity:1; fill:none" points="1931.64,309.28 1931.64,662.16 2022.83,662.16 2022.83,309.28 1931.64,309.28 "/>
<path clip-path="url(#clip273)" d="M2022.83 633.93 L2022.83 662.16 L2114.02 662.16 L2114.02 633.93 L2022.83 633.93 L2022.83 633.93  Z" fill="#009af9" fill-rule="evenodd" fill-opacity="1"/>
<polyline clip-path="url(#clip273)" style="stroke:#000000; stroke-linecap:round; stroke-linejoin:round; stroke-width:4; stroke-opacity:1; fill:none" points="2022.83,633.93 2022.83,662.16 2114.02,662.16 2114.02,633.93 2022.83,633.93 "/>
<path clip-path="url(#clip273)" d="M2114.02 662.16 L2114.02 662.16 L2205.21 662.16 L2205.21 662.16 L2114.02 662.16 L2114.02 662.16  Z" fill="#009af9" fill-rule="evenodd" fill-opacity="1"/>
<polyline clip-path="url(#clip273)" style="stroke:#000000; stroke-linecap:round; stroke-linejoin:round; stroke-width:4; stroke-opacity:1; fill:none" points="2114.02,662.16 2114.02,662.16 2205.21,662.16 2114.02,662.16 "/>
<path clip-path="url(#clip273)" d="M2205.21 478.663 L2205.21 662.16 L2296.4 662.16 L2296.4 478.663 L2205.21 478.663 L2205.21 478.663  Z" fill="#009af9" fill-rule="evenodd" fill-opacity="1"/>
<polyline clip-path="url(#clip273)" style="stroke:#000000; stroke-linecap:round; stroke-linejoin:round; stroke-width:4; stroke-opacity:1; fill:none" points="2205.21,478.663 2205.21,662.16 2296.4,662.16 2296.4,478.663 2205.21,478.663 "/>
<circle clip-path="url(#clip273)" style="fill:#009af9; stroke:none; fill-opacity:0" cx="1430.09" cy="323.395" r="2"/>
<circle clip-path="url(#clip273)" style="fill:#009af9; stroke:none; fill-opacity:0" cx="1521.28" cy="422.202" r="2"/>
<circle clip-path="url(#clip273)" style="fill:#009af9; stroke:none; fill-opacity:0" cx="1612.47" cy="309.28" r="2"/>
<circle clip-path="url(#clip273)" style="fill:#009af9; stroke:none; fill-opacity:0" cx="1703.66" cy="125.783" r="2"/>
<circle clip-path="url(#clip273)" style="fill:#009af9; stroke:none; fill-opacity:0" cx="1794.85" cy="139.898" r="2"/>
<circle clip-path="url(#clip273)" style="fill:#009af9; stroke:none; fill-opacity:0" cx="1886.04" cy="97.5521" r="2"/>
<circle clip-path="url(#clip273)" style="fill:#009af9; stroke:none; fill-opacity:0" cx="1977.23" cy="309.28" r="2"/>
<circle clip-path="url(#clip273)" style="fill:#009af9; stroke:none; fill-opacity:0" cx="2068.42" cy="633.93" r="2"/>
<circle clip-path="url(#clip273)" style="fill:#009af9; stroke:none; fill-opacity:0" cx="2159.61" cy="662.16" r="2"/>
<circle clip-path="url(#clip273)" style="fill:#009af9; stroke:none; fill-opacity:0" cx="2250.8" cy="478.663" r="2"/>
<polyline clip-path="url(#clip273)" style="stroke:#ff0000; stroke-linecap:round; stroke-linejoin:round; stroke-width:8; stroke-opacity:1; fill:none" stroke-dasharray="32, 20" points="1772.16,1226.77 1772.16,-467.056 "/>
<polyline clip-path="url(#clip273)" style="stroke:#ff0000; stroke-linecap:round; stroke-linejoin:round; stroke-width:6; stroke-opacity:1; fill:none" stroke-dasharray="24, 12, 3, 12" points="1398.49,1226.77 1398.49,-467.056 "/>
<polyline clip-path="url(#clip273)" style="stroke:#ff0000; stroke-linecap:round; stroke-linejoin:round; stroke-width:6; stroke-opacity:1; fill:none" stroke-dasharray="24, 12, 3, 12" points="2250.11,1226.77 2250.11,-467.056 "/>
<path clip-path="url(#clip270)" d="M128.138 1456.91 L1152.76 1456.91 L1152.76 892.306 L128.138 892.306  Z" fill="#ffffff" fill-rule="evenodd" fill-opacity="1"/>
<defs>
  <clipPath id="clip274">
    <rect x="128" y="892" width="1026" height="566"/>
  </clipPath>
</defs>
<polyline clip-path="url(#clip274)" style="stroke:#000000; stroke-linecap:round; stroke-linejoin:round; stroke-width:2; stroke-opacity:0.1; fill:none" points="184.494,1456.91 184.494,892.306 "/>
<polyline clip-path="url(#clip274)" style="stroke:#000000; stroke-linecap:round; stroke-linejoin:round; stroke-width:2; stroke-opacity:0.1; fill:none" points="391.745,1456.91 391.745,892.306 "/>
<polyline clip-path="url(#clip274)" style="stroke:#000000; stroke-linecap:round; stroke-linejoin:round; stroke-width:2; stroke-opacity:0.1; fill:none" points="598.997,1456.91 598.997,892.306 "/>
<polyline clip-path="url(#clip274)" style="stroke:#000000; stroke-linecap:round; stroke-linejoin:round; stroke-width:2; stroke-opacity:0.1; fill:none" points="806.248,1456.91 806.248,892.306 "/>
<polyline clip-path="url(#clip274)" style="stroke:#000000; stroke-linecap:round; stroke-linejoin:round; stroke-width:2; stroke-opacity:0.1; fill:none" points="1013.5,1456.91 1013.5,892.306 "/>
<polyline clip-path="url(#clip274)" style="stroke:#000000; stroke-linecap:round; stroke-linejoin:round; stroke-width:2; stroke-opacity:0.1; fill:none" points="128.138,1456.91 1152.76,1456.91 "/>
<polyline clip-path="url(#clip274)" style="stroke:#000000; stroke-linecap:round; stroke-linejoin:round; stroke-width:2; stroke-opacity:0.1; fill:none" points="128.138,1359.57 1152.76,1359.57 "/>
<polyline clip-path="url(#clip274)" style="stroke:#000000; stroke-linecap:round; stroke-linejoin:round; stroke-width:2; stroke-opacity:0.1; fill:none" points="128.138,1262.22 1152.76,1262.22 "/>
<polyline clip-path="url(#clip274)" style="stroke:#000000; stroke-linecap:round; stroke-linejoin:round; stroke-width:2; stroke-opacity:0.1; fill:none" points="128.138,1164.88 1152.76,1164.88 "/>
<polyline clip-path="url(#clip274)" style="stroke:#000000; stroke-linecap:round; stroke-linejoin:round; stroke-width:2; stroke-opacity:0.1; fill:none" points="128.138,1067.53 1152.76,1067.53 "/>
<polyline clip-path="url(#clip274)" style="stroke:#000000; stroke-linecap:round; stroke-linejoin:round; stroke-width:2; stroke-opacity:0.1; fill:none" points="128.138,970.183 1152.76,970.183 "/>
<polyline clip-path="url(#clip270)" style="stroke:#000000; stroke-linecap:round; stroke-linejoin:round; stroke-width:4; stroke-opacity:1; fill:none" points="128.138,1456.91 1152.76,1456.91 "/>
<polyline clip-path="url(#clip270)" style="stroke:#000000; stroke-linecap:round; stroke-linejoin:round; stroke-width:4; stroke-opacity:1; fill:none" points="184.494,1456.91 184.494,1438.02 "/>
<polyline clip-path="url(#clip270)" style="stroke:#000000; stroke-linecap:round; stroke-linejoin:round; stroke-width:4; stroke-opacity:1; fill:none" points="391.745,1456.91 391.745,1438.02 "/>
<polyline clip-path="url(#clip270)" style="stroke:#000000; stroke-linecap:round; stroke-linejoin:round; stroke-width:4; stroke-opacity:1; fill:none" points="598.997,1456.91 598.997,1438.02 "/>
<polyline clip-path="url(#clip270)" style="stroke:#000000; stroke-linecap:round; stroke-linejoin:round; stroke-width:4; stroke-opacity:1; fill:none" points="806.248,1456.91 806.248,1438.02 "/>
<polyline clip-path="url(#clip270)" style="stroke:#000000; stroke-linecap:round; stroke-linejoin:round; stroke-width:4; stroke-opacity:1; fill:none" points="1013.5,1456.91 1013.5,1438.02 "/>
<path clip-path="url(#clip270)" d="M114.649 1544.64 Q112.734 1546.56 113.654 1549.42 Q114.575 1552.25 118.356 1556.03 Q122.125 1559.8 124.973 1560.74 Q127.821 1561.65 129.736 1559.73 Q131.663 1557.8 130.743 1554.97 Q129.822 1552.11 126.053 1548.34 Q122.272 1544.56 119.424 1543.65 Q116.576 1542.72 114.649 1544.64 M112.685 1542.68 Q115.766 1539.6 119.829 1540.42 Q123.893 1541.22 128.533 1545.86 Q133.161 1550.49 133.971 1554.56 Q134.782 1558.61 131.7 1561.69 Q128.619 1564.78 124.556 1563.98 Q120.492 1563.15 115.864 1558.53 Q111.224 1553.89 110.413 1549.84 Q109.603 1545.76 112.685 1542.68 Z" fill="#000000" fill-rule="nonzero" fill-opacity="1" /><path clip-path="url(#clip270)" d="M138.919 1547.53 L141.509 1544.94 L144.627 1548.06 L142.037 1550.65 L138.919 1547.53 Z" fill="#000000" fill-rule="nonzero" fill-opacity="1" /><path clip-path="url(#clip270)" d="M131.725 1524.3 L141.46 1514.57 L143.547 1516.65 L136.083 1524.12 L140.576 1528.61 Q140.932 1527.89 141.386 1527.26 Q141.828 1526.62 142.368 1526.08 Q145.437 1523.01 148.911 1522.9 Q152.385 1522.79 155.258 1525.66 Q158.217 1528.62 158.02 1532.11 Q157.811 1535.58 154.46 1538.93 Q153.306 1540.09 151.907 1541.09 Q150.519 1542.09 148.85 1542.97 L146.358 1540.48 Q148.064 1539.98 149.537 1539.09 Q151.011 1538.21 152.324 1536.9 Q154.448 1534.77 154.571 1532.42 Q154.693 1530.06 152.778 1528.14 Q150.863 1526.23 148.506 1526.35 Q146.149 1526.47 144.025 1528.6 Q143.031 1529.59 142.258 1530.81 Q141.497 1532.01 140.932 1533.51 L131.725 1524.3 Z" fill="#000000" fill-rule="nonzero" fill-opacity="1" /><path clip-path="url(#clip270)" d="M163.655 1509.26 Q165.815 1507.86 168.013 1508.07 Q170.223 1508.27 171.99 1510.04 Q174.703 1512.75 174.323 1516.1 Q173.942 1519.45 170.505 1522.89 Q169.351 1524.04 167.89 1525.04 Q166.454 1526.03 164.698 1526.88 L162.305 1524.49 Q163.937 1524.06 165.472 1523.13 Q167.006 1522.21 168.344 1520.88 Q170.677 1518.54 170.971 1516.41 Q171.278 1514.26 169.523 1512.5 Q167.902 1510.88 165.852 1511.12 Q163.802 1511.33 161.777 1513.35 L159.641 1515.49 L157.603 1513.45 L159.837 1511.21 Q161.666 1509.39 161.912 1507.69 Q162.145 1505.99 160.77 1504.61 Q159.358 1503.2 157.603 1503.46 Q155.847 1503.69 153.981 1505.56 Q152.962 1506.57 152.017 1507.96 Q151.072 1509.35 150.139 1511.21 L147.929 1509.01 Q148.948 1507.2 149.979 1505.78 Q151.023 1504.34 152.115 1503.25 Q154.939 1500.42 157.873 1500.07 Q160.795 1499.7 162.98 1501.88 Q164.502 1503.41 164.686 1505.33 Q164.858 1507.25 163.655 1509.26 Z" fill="#000000" fill-rule="nonzero" fill-opacity="1" /><path clip-path="url(#clip270)" d="M170.628 1488.66 Q168.713 1490.58 169.633 1493.44 Q170.554 1496.27 174.335 1500.06 Q178.104 1503.82 180.952 1504.76 Q183.8 1505.67 185.715 1503.75 Q187.642 1501.82 186.722 1498.99 Q185.801 1496.13 182.032 1492.36 Q178.251 1488.58 175.403 1487.67 Q172.555 1486.74 170.628 1488.66 M168.664 1486.7 Q171.745 1483.62 175.808 1484.44 Q179.872 1485.24 184.512 1489.88 Q189.14 1494.51 189.95 1498.58 Q190.761 1502.63 187.679 1505.72 Q184.598 1508.8 180.535 1508 Q176.471 1507.18 171.843 1502.55 Q167.203 1497.91 166.392 1493.86 Q165.582 1489.78 168.664 1486.7 Z" fill="#000000" fill-rule="nonzero" fill-opacity="1" /><path clip-path="url(#clip270)" d="M322.428 1544.11 Q320.513 1546.03 321.434 1548.89 Q322.354 1551.73 326.135 1555.51 Q329.904 1559.28 332.752 1560.21 Q335.6 1561.12 337.515 1559.2 Q339.443 1557.27 338.522 1554.44 Q337.601 1551.58 333.833 1547.81 Q330.052 1544.03 327.203 1543.12 Q324.355 1542.19 322.428 1544.11 M320.464 1542.15 Q323.545 1539.07 327.609 1539.89 Q331.672 1540.69 336.312 1545.33 Q340.94 1549.96 341.751 1554.03 Q342.561 1558.08 339.48 1561.17 Q336.398 1564.25 332.335 1563.45 Q328.272 1562.63 323.643 1558 Q319.003 1553.36 318.193 1549.31 Q317.383 1545.23 320.464 1542.15 Z" fill="#000000" fill-rule="nonzero" fill-opacity="1" /><path clip-path="url(#clip270)" d="M346.698 1547 L349.288 1544.41 L352.406 1547.53 L349.816 1550.12 L346.698 1547 Z" fill="#000000" fill-rule="nonzero" fill-opacity="1" /><path clip-path="url(#clip270)" d="M339.504 1523.77 L349.239 1514.04 L351.326 1516.13 L343.862 1523.59 L348.355 1528.08 Q348.711 1527.36 349.165 1526.73 Q349.607 1526.09 350.148 1525.55 Q353.217 1522.48 356.691 1522.37 Q360.165 1522.26 363.037 1525.14 Q365.996 1528.09 365.8 1531.58 Q365.591 1535.05 362.239 1538.41 Q361.085 1539.56 359.686 1540.57 Q358.299 1541.56 356.629 1542.45 L354.137 1539.95 Q355.844 1539.45 357.317 1538.57 Q358.79 1537.68 360.103 1536.37 Q362.227 1534.24 362.35 1531.89 Q362.473 1529.53 360.558 1527.62 Q358.643 1525.7 356.286 1525.82 Q353.929 1525.95 351.805 1528.07 Q350.81 1529.06 350.037 1530.28 Q349.276 1531.48 348.711 1532.98 L339.504 1523.77 Z" fill="#000000" fill-rule="nonzero" fill-opacity="1" /><path clip-path="url(#clip270)" d="M371.434 1508.74 Q373.595 1507.34 375.792 1507.54 Q378.002 1507.74 379.77 1509.51 Q382.483 1512.22 382.102 1515.57 Q381.722 1518.92 378.284 1522.36 Q377.13 1523.52 375.669 1524.51 Q374.233 1525.5 372.478 1526.35 L370.084 1523.96 Q371.717 1523.53 373.251 1522.61 Q374.786 1521.69 376.124 1520.35 Q378.456 1518.02 378.751 1515.88 Q379.058 1513.73 377.302 1511.98 Q375.682 1510.36 373.632 1510.59 Q371.582 1510.8 369.556 1512.82 L367.42 1514.96 L365.382 1512.92 L367.616 1510.69 Q369.446 1508.86 369.691 1507.16 Q369.924 1505.46 368.549 1504.08 Q367.138 1502.67 365.382 1502.93 Q363.627 1503.16 361.761 1505.03 Q360.742 1506.05 359.797 1507.43 Q358.851 1508.82 357.918 1510.69 L355.709 1508.48 Q356.727 1506.67 357.759 1505.25 Q358.802 1503.81 359.895 1502.72 Q362.718 1499.9 365.652 1499.54 Q368.574 1499.17 370.759 1501.36 Q372.281 1502.88 372.465 1504.81 Q372.637 1506.72 371.434 1508.74 Z" fill="#000000" fill-rule="nonzero" fill-opacity="1" /><path clip-path="url(#clip270)" d="M371.496 1491.78 L381.231 1482.05 L383.318 1484.13 L375.854 1491.6 L380.347 1496.09 Q380.703 1495.37 381.157 1494.74 Q381.599 1494.1 382.139 1493.56 Q385.208 1490.49 388.682 1490.38 Q392.156 1490.27 395.029 1493.14 Q397.987 1496.1 397.791 1499.59 Q397.582 1503.06 394.231 1506.41 Q393.077 1507.57 391.678 1508.58 Q390.29 1509.57 388.621 1510.45 L386.129 1507.96 Q387.835 1507.46 389.308 1506.57 Q390.781 1505.69 392.095 1504.38 Q394.219 1502.25 394.341 1499.9 Q394.464 1497.54 392.549 1495.62 Q390.634 1493.71 388.277 1493.83 Q385.92 1493.95 383.796 1496.08 Q382.802 1497.07 382.029 1498.29 Q381.267 1499.49 380.703 1500.99 L371.496 1491.78 Z" fill="#000000" fill-rule="nonzero" fill-opacity="1" /><path clip-path="url(#clip270)" d="M529.152 1544.64 Q527.237 1546.56 528.157 1549.42 Q529.078 1552.25 532.859 1556.03 Q536.628 1559.8 539.476 1560.74 Q542.324 1561.65 544.239 1559.73 Q546.166 1557.8 545.246 1554.97 Q544.325 1552.11 540.556 1548.34 Q536.775 1544.56 533.927 1543.65 Q531.079 1542.72 529.152 1544.64 M527.188 1542.68 Q530.269 1539.6 534.332 1540.42 Q538.396 1541.22 543.036 1545.86 Q547.664 1550.49 548.474 1554.56 Q549.284 1558.61 546.203 1561.69 Q543.122 1564.78 539.058 1563.98 Q534.995 1563.15 530.367 1558.53 Q525.727 1553.89 524.916 1549.84 Q524.106 1545.76 527.188 1542.68 Z" fill="#000000" fill-rule="nonzero" fill-opacity="1" /><path clip-path="url(#clip270)" d="M553.422 1547.53 L556.012 1544.94 L559.13 1548.06 L556.54 1550.65 L553.422 1547.53 Z" fill="#000000" fill-rule="nonzero" fill-opacity="1" /><path clip-path="url(#clip270)" d="M546.228 1524.3 L555.963 1514.57 L558.05 1516.65 L550.586 1524.12 L555.079 1528.61 Q555.435 1527.89 555.889 1527.26 Q556.331 1526.62 556.871 1526.08 Q559.94 1523.01 563.414 1522.9 Q566.888 1522.79 569.761 1525.66 Q572.72 1528.62 572.523 1532.11 Q572.314 1535.58 568.963 1538.93 Q567.809 1540.09 566.41 1541.09 Q565.022 1542.09 563.353 1542.97 L560.861 1540.48 Q562.567 1539.98 564.04 1539.09 Q565.513 1538.21 566.827 1536.9 Q568.951 1534.77 569.074 1532.42 Q569.196 1530.06 567.281 1528.14 Q565.366 1526.23 563.009 1526.35 Q560.652 1526.47 558.528 1528.6 Q557.534 1529.59 556.761 1530.81 Q556 1532.01 555.435 1533.51 L546.228 1524.3 Z" fill="#000000" fill-rule="nonzero" fill-opacity="1" /><path clip-path="url(#clip270)" d="M571.173 1503.68 L574.696 1519.72 L580.957 1513.46 L571.173 1503.68 M568.362 1502.17 L571.48 1499.05 L583.424 1510.99 L586.039 1508.38 L588.101 1510.44 L585.487 1513.06 L589.808 1517.38 L587.34 1519.84 L583.019 1515.52 L574.745 1523.8 L572.351 1521.4 L568.362 1502.17 Z" fill="#000000" fill-rule="nonzero" fill-opacity="1" /><path clip-path="url(#clip270)" d="M585.131 1488.66 Q583.216 1490.58 584.136 1493.44 Q585.057 1496.27 588.838 1500.06 Q592.607 1503.82 595.455 1504.76 Q598.303 1505.67 600.218 1503.75 Q602.145 1501.82 601.225 1498.99 Q600.304 1496.13 596.535 1492.36 Q592.754 1488.58 589.906 1487.67 Q587.058 1486.74 585.131 1488.66 M583.167 1486.7 Q586.248 1483.62 590.311 1484.44 Q594.375 1485.24 599.015 1489.88 Q603.643 1494.51 604.453 1498.58 Q605.263 1502.63 602.182 1505.72 Q599.101 1508.8 595.037 1508 Q590.974 1507.18 586.346 1502.55 Q581.706 1497.91 580.895 1493.86 Q580.085 1489.78 583.167 1486.7 Z" fill="#000000" fill-rule="nonzero" fill-opacity="1" /><path clip-path="url(#clip270)" d="M736.931 1544.11 Q735.016 1546.03 735.937 1548.89 Q736.857 1551.73 740.638 1555.51 Q744.407 1559.28 747.255 1560.21 Q750.103 1561.12 752.018 1559.2 Q753.946 1557.27 753.025 1554.44 Q752.104 1551.58 748.336 1547.81 Q744.554 1544.03 741.706 1543.12 Q738.858 1542.19 736.931 1544.11 M734.967 1542.15 Q738.048 1539.07 742.112 1539.89 Q746.175 1540.69 750.815 1545.33 Q755.443 1549.96 756.254 1554.03 Q757.064 1558.08 753.983 1561.17 Q750.901 1564.25 746.838 1563.45 Q742.774 1562.63 738.146 1558 Q733.506 1553.36 732.696 1549.31 Q731.886 1545.23 734.967 1542.15 Z" fill="#000000" fill-rule="nonzero" fill-opacity="1" /><path clip-path="url(#clip270)" d="M761.201 1547 L763.791 1544.41 L766.909 1547.53 L764.319 1550.12 L761.201 1547 Z" fill="#000000" fill-rule="nonzero" fill-opacity="1" /><path clip-path="url(#clip270)" d="M754.007 1523.77 L763.742 1514.04 L765.829 1516.13 L758.365 1523.59 L762.858 1528.08 Q763.214 1527.36 763.668 1526.73 Q764.11 1526.09 764.65 1525.55 Q767.719 1522.48 771.194 1522.37 Q774.668 1522.26 777.54 1525.14 Q780.499 1528.09 780.302 1531.58 Q780.094 1535.05 776.742 1538.41 Q775.588 1539.56 774.189 1540.57 Q772.802 1541.56 771.132 1542.45 L768.64 1539.95 Q770.347 1539.45 771.82 1538.57 Q773.293 1537.68 774.606 1536.37 Q776.73 1534.24 776.853 1531.89 Q776.976 1529.53 775.061 1527.62 Q773.146 1525.7 770.789 1525.82 Q768.432 1525.95 766.308 1528.07 Q765.313 1529.06 764.54 1530.28 Q763.779 1531.48 763.214 1532.98 L754.007 1523.77 Z" fill="#000000" fill-rule="nonzero" fill-opacity="1" /><path clip-path="url(#clip270)" d="M778.952 1503.15 L782.475 1519.19 L788.736 1512.93 L778.952 1503.15 M776.141 1501.64 L779.259 1498.52 L791.204 1510.47 L793.818 1507.85 L795.881 1509.91 L793.266 1512.53 L797.587 1516.85 L795.12 1519.32 L790.799 1515 L782.524 1523.27 L780.131 1520.88 L776.141 1501.64 Z" fill="#000000" fill-rule="nonzero" fill-opacity="1" /><path clip-path="url(#clip270)" d="M785.999 1491.78 L795.734 1482.05 L797.82 1484.13 L790.357 1491.6 L794.85 1496.09 Q795.206 1495.37 795.66 1494.74 Q796.102 1494.1 796.642 1493.56 Q799.711 1490.49 803.185 1490.38 Q806.659 1490.27 809.532 1493.14 Q812.49 1496.1 812.294 1499.59 Q812.085 1503.06 808.734 1506.41 Q807.58 1507.57 806.18 1508.58 Q804.793 1509.57 803.124 1510.45 L800.632 1507.96 Q802.338 1507.46 803.811 1506.57 Q805.284 1505.69 806.598 1504.38 Q808.722 1502.25 808.844 1499.9 Q808.967 1497.54 807.052 1495.62 Q805.137 1493.71 802.78 1493.83 Q800.423 1493.95 798.299 1496.08 Q797.305 1497.07 796.531 1498.29 Q795.77 1499.49 795.206 1500.99 L785.999 1491.78 Z" fill="#000000" fill-rule="nonzero" fill-opacity="1" /><path clip-path="url(#clip270)" d="M943.655 1544.64 Q941.74 1546.56 942.66 1549.42 Q943.581 1552.25 947.362 1556.03 Q951.131 1559.8 953.979 1560.74 Q956.827 1561.65 958.742 1559.73 Q960.669 1557.8 959.749 1554.97 Q958.828 1552.11 955.059 1548.34 Q951.278 1544.56 948.43 1543.65 Q945.582 1542.72 943.655 1544.64 M941.69 1542.68 Q944.772 1539.6 948.835 1540.42 Q952.899 1541.22 957.539 1545.86 Q962.167 1550.49 962.977 1554.56 Q963.787 1558.61 960.706 1561.69 Q957.625 1564.78 953.561 1563.98 Q949.498 1563.15 944.87 1558.53 Q940.23 1553.89 939.419 1549.84 Q938.609 1545.76 941.69 1542.68 Z" fill="#000000" fill-rule="nonzero" fill-opacity="1" /><path clip-path="url(#clip270)" d="M967.924 1547.53 L970.515 1544.94 L973.633 1548.06 L971.043 1550.65 L967.924 1547.53 Z" fill="#000000" fill-rule="nonzero" fill-opacity="1" /><path clip-path="url(#clip270)" d="M960.731 1524.3 L970.466 1514.57 L972.553 1516.65 L965.089 1524.12 L969.582 1528.61 Q969.938 1527.89 970.392 1527.26 Q970.834 1526.62 971.374 1526.08 Q974.443 1523.01 977.917 1522.9 Q981.391 1522.79 984.264 1525.66 Q987.223 1528.62 987.026 1532.11 Q986.817 1535.58 983.466 1538.93 Q982.312 1540.09 980.913 1541.09 Q979.525 1542.09 977.856 1542.97 L975.364 1540.48 Q977.07 1539.98 978.543 1539.09 Q980.016 1538.21 981.33 1536.9 Q983.454 1534.77 983.577 1532.42 Q983.699 1530.06 981.784 1528.14 Q979.869 1526.23 977.512 1526.35 Q975.155 1526.47 973.031 1528.6 Q972.037 1529.59 971.264 1530.81 Q970.502 1532.01 969.938 1533.51 L960.731 1524.3 Z" fill="#000000" fill-rule="nonzero" fill-opacity="1" /><path clip-path="url(#clip270)" d="M976.726 1508.31 L986.461 1498.57 L988.548 1500.66 L981.084 1508.12 L985.578 1512.61 Q985.934 1511.89 986.388 1511.26 Q986.83 1510.63 987.37 1510.09 Q990.439 1507.02 993.913 1506.91 Q997.387 1506.8 1000.26 1509.67 Q1003.22 1512.63 1003.02 1516.11 Q1002.81 1519.59 999.462 1522.94 Q998.308 1524.09 996.908 1525.1 Q995.521 1526.09 993.852 1526.98 L991.36 1524.49 Q993.066 1523.98 994.539 1523.1 Q996.012 1522.21 997.326 1520.9 Q999.45 1518.78 999.572 1516.42 Q999.695 1514.06 997.78 1512.15 Q995.865 1510.23 993.508 1510.36 Q991.151 1510.48 989.027 1512.6 Q988.033 1513.6 987.259 1514.81 Q986.498 1516.01 985.934 1517.51 L976.726 1508.31 Z" fill="#000000" fill-rule="nonzero" fill-opacity="1" /><path clip-path="url(#clip270)" d="M999.634 1488.66 Q997.719 1490.58 998.639 1493.44 Q999.56 1496.27 1003.34 1500.06 Q1007.11 1503.82 1009.96 1504.76 Q1012.81 1505.67 1014.72 1503.75 Q1016.65 1501.82 1015.73 1498.99 Q1014.81 1496.13 1011.04 1492.36 Q1007.26 1488.58 1004.41 1487.67 Q1001.56 1486.74 999.634 1488.66 M997.669 1486.7 Q1000.75 1483.62 1004.81 1484.44 Q1008.88 1485.24 1013.52 1489.88 Q1018.15 1494.51 1018.96 1498.58 Q1019.77 1502.63 1016.69 1505.72 Q1013.6 1508.8 1009.54 1508 Q1005.48 1507.18 1000.85 1502.55 Q996.209 1497.91 995.398 1493.86 Q994.588 1489.78 997.669 1486.7 Z" fill="#000000" fill-rule="nonzero" fill-opacity="1" /><polyline clip-path="url(#clip270)" style="stroke:#000000; stroke-linecap:round; stroke-linejoin:round; stroke-width:4; stroke-opacity:1; fill:none" points="128.138,1456.91 128.138,892.306 "/>
<polyline clip-path="url(#clip270)" style="stroke:#000000; stroke-linecap:round; stroke-linejoin:round; stroke-width:4; stroke-opacity:1; fill:none" points="128.138,1456.91 147.035,1456.91 "/>
<polyline clip-path="url(#clip270)" style="stroke:#000000; stroke-linecap:round; stroke-linejoin:round; stroke-width:4; stroke-opacity:1; fill:none" points="128.138,1359.57 147.035,1359.57 "/>
<polyline clip-path="url(#clip270)" style="stroke:#000000; stroke-linecap:round; stroke-linejoin:round; stroke-width:4; stroke-opacity:1; fill:none" points="128.138,1262.22 147.035,1262.22 "/>
<polyline clip-path="url(#clip270)" style="stroke:#000000; stroke-linecap:round; stroke-linejoin:round; stroke-width:4; stroke-opacity:1; fill:none" points="128.138,1164.88 147.035,1164.88 "/>
<polyline clip-path="url(#clip270)" style="stroke:#000000; stroke-linecap:round; stroke-linejoin:round; stroke-width:4; stroke-opacity:1; fill:none" points="128.138,1067.53 147.035,1067.53 "/>
<polyline clip-path="url(#clip270)" style="stroke:#000000; stroke-linecap:round; stroke-linejoin:round; stroke-width:4; stroke-opacity:1; fill:none" points="128.138,970.183 147.035,970.183 "/>
<path clip-path="url(#clip270)" d="M83.1795 1446.26 Q80.4711 1446.26 79.0996 1448.94 Q77.7455 1451.59 77.7455 1456.94 Q77.7455 1462.27 79.0996 1464.94 Q80.4711 1467.6 83.1795 1467.6 Q85.9051 1467.6 87.2593 1464.94 Q88.6308 1462.27 88.6308 1456.94 Q88.6308 1451.59 87.2593 1448.94 Q85.9051 1446.26 83.1795 1446.26 M83.1795 1443.49 Q87.5371 1443.49 89.8287 1446.94 Q92.1377 1450.38 92.1377 1456.94 Q92.1377 1463.49 89.8287 1466.94 Q87.5371 1470.38 83.1795 1470.38 Q78.8218 1470.38 76.5128 1466.94 Q74.2212 1463.49 74.2212 1456.94 Q74.2212 1450.38 76.5128 1446.94 Q78.8218 1443.49 83.1795 1443.49 Z" fill="#000000" fill-rule="nonzero" fill-opacity="1" /><path clip-path="url(#clip270)" d="M53.6657 1369.58 L59.3949 1369.58 L59.3949 1349.8 L53.1623 1351.05 L53.1623 1347.86 L59.3601 1346.61 L62.8671 1346.61 L62.8671 1369.58 L68.5962 1369.58 L68.5962 1372.53 L53.6657 1372.53 L53.6657 1369.58 Z" fill="#000000" fill-rule="nonzero" fill-opacity="1" /><path clip-path="url(#clip270)" d="M83.1795 1348.92 Q80.4711 1348.92 79.0996 1351.59 Q77.7455 1354.25 77.7455 1359.59 Q77.7455 1364.92 79.0996 1367.6 Q80.4711 1370.25 83.1795 1370.25 Q85.9051 1370.25 87.2593 1367.6 Q88.6308 1364.92 88.6308 1359.59 Q88.6308 1354.25 87.2593 1351.59 Q85.9051 1348.92 83.1795 1348.92 M83.1795 1346.14 Q87.5371 1346.14 89.8287 1349.59 Q92.1377 1353.03 92.1377 1359.59 Q92.1377 1366.14 89.8287 1369.59 Q87.5371 1373.03 83.1795 1373.03 Q78.8218 1373.03 76.5128 1369.59 Q74.2212 1366.14 74.2212 1359.59 Q74.2212 1353.03 76.5128 1349.59 Q78.8218 1346.14 83.1795 1346.14 Z" fill="#000000" fill-rule="nonzero" fill-opacity="1" /><path clip-path="url(#clip270)" d="M56.0789 1272.23 L68.3184 1272.23 L68.3184 1275.18 L51.8602 1275.18 L51.8602 1272.23 Q53.8567 1270.16 57.2942 1266.69 Q60.749 1263.2 61.6344 1262.2 Q63.3184 1260.3 63.9782 1259 Q64.6552 1257.68 64.6552 1256.41 Q64.6552 1254.35 63.1969 1253.05 Q61.756 1251.74 59.4296 1251.74 Q57.7803 1251.74 55.94 1252.32 Q54.1171 1252.89 52.0338 1254.05 L52.0338 1250.51 Q54.1518 1249.66 55.9921 1249.23 Q57.8324 1248.79 59.3601 1248.79 Q63.3879 1248.79 65.7837 1250.81 Q68.1795 1252.82 68.1795 1256.19 Q68.1795 1257.79 67.5719 1259.23 Q66.9816 1260.65 65.4018 1262.6 Q64.9677 1263.1 62.6414 1265.51 Q60.315 1267.91 56.0789 1272.23 Z" fill="#000000" fill-rule="nonzero" fill-opacity="1" /><path clip-path="url(#clip270)" d="M83.1795 1251.57 Q80.4711 1251.57 79.0996 1254.24 Q77.7455 1256.9 77.7455 1262.25 Q77.7455 1267.58 79.0996 1270.25 Q80.4711 1272.91 83.1795 1272.91 Q85.9051 1272.91 87.2593 1270.25 Q88.6308 1267.58 88.6308 1262.25 Q88.6308 1256.9 87.2593 1254.24 Q85.9051 1251.57 83.1795 1251.57 M83.1795 1248.79 Q87.5371 1248.79 89.8287 1252.25 Q92.1377 1255.69 92.1377 1262.25 Q92.1377 1268.79 89.8287 1272.25 Q87.5371 1275.69 83.1795 1275.69 Q78.8218 1275.69 76.5128 1272.25 Q74.2212 1268.79 74.2212 1262.25 Q74.2212 1255.69 76.5128 1252.25 Q78.8218 1248.79 83.1795 1248.79 Z" fill="#000000" fill-rule="nonzero" fill-opacity="1" /><path clip-path="url(#clip270)" d="M63.683 1163.86 Q66.2004 1164.4 67.6066 1166.1 Q69.0302 1167.8 69.0302 1170.3 Q69.0302 1174.14 66.3913 1176.24 Q63.7525 1178.34 58.8914 1178.34 Q57.2595 1178.34 55.5234 1178.01 Q53.8046 1177.7 51.9643 1177.05 L51.9643 1173.67 Q53.4227 1174.52 55.1588 1174.95 Q56.8949 1175.39 58.7872 1175.39 Q62.0858 1175.39 63.8046 1174.09 Q65.5407 1172.78 65.5407 1170.3 Q65.5407 1168.01 63.9261 1166.72 Q62.3289 1165.42 59.4643 1165.42 L56.4435 1165.42 L56.4435 1162.54 L59.6032 1162.54 Q62.19 1162.54 63.5615 1161.52 Q64.933 1160.47 64.933 1158.53 Q64.933 1156.53 63.5094 1155.47 Q62.1032 1154.4 59.4643 1154.4 Q58.0233 1154.4 56.374 1154.71 Q54.7247 1155.02 52.7456 1155.68 L52.7456 1152.56 Q54.7421 1152 56.4782 1151.72 Q58.2317 1151.45 59.7768 1151.45 Q63.7698 1151.45 66.0962 1153.27 Q68.4226 1155.08 68.4226 1158.17 Q68.4226 1160.32 67.19 1161.81 Q65.9573 1163.29 63.683 1163.86 Z" fill="#000000" fill-rule="nonzero" fill-opacity="1" /><path clip-path="url(#clip270)" d="M83.1795 1154.22 Q80.4711 1154.22 79.0996 1156.9 Q77.7455 1159.55 77.7455 1164.9 Q77.7455 1170.23 79.0996 1172.91 Q80.4711 1175.56 83.1795 1175.56 Q85.9051 1175.56 87.2593 1172.91 Q88.6308 1170.23 88.6308 1164.9 Q88.6308 1159.55 87.2593 1156.9 Q85.9051 1154.22 83.1795 1154.22 M83.1795 1151.45 Q87.5371 1151.45 89.8287 1154.9 Q92.1377 1158.34 92.1377 1164.9 Q92.1377 1171.45 89.8287 1174.9 Q87.5371 1178.34 83.1795 1178.34 Q78.8218 1178.34 76.5128 1174.9 Q74.2212 1171.45 74.2212 1164.9 Q74.2212 1158.34 76.5128 1154.9 Q78.8218 1151.45 83.1795 1151.45 Z" fill="#000000" fill-rule="nonzero" fill-opacity="1" /><path clip-path="url(#clip270)" d="M62.6935 1057.62 L53.8393 1071.46 L62.6935 1071.46 L62.6935 1057.62 M61.7733 1054.57 L66.183 1054.57 L66.183 1071.46 L69.8809 1071.46 L69.8809 1074.38 L66.183 1074.38 L66.183 1080.49 L62.6935 1080.49 L62.6935 1074.38 L50.9921 1074.38 L50.9921 1070.99 L61.7733 1054.57 Z" fill="#000000" fill-rule="nonzero" fill-opacity="1" /><path clip-path="url(#clip270)" d="M83.1795 1056.88 Q80.4711 1056.88 79.0996 1059.55 Q77.7455 1062.21 77.7455 1067.56 Q77.7455 1072.89 79.0996 1075.56 Q80.4711 1078.22 83.1795 1078.22 Q85.9051 1078.22 87.2593 1075.56 Q88.6308 1072.89 88.6308 1067.56 Q88.6308 1062.21 87.2593 1059.55 Q85.9051 1056.88 83.1795 1056.88 M83.1795 1054.1 Q87.5371 1054.1 89.8287 1057.56 Q92.1377 1060.99 92.1377 1067.56 Q92.1377 1074.1 89.8287 1077.56 Q87.5371 1080.99 83.1795 1080.99 Q78.8218 1080.99 76.5128 1077.56 Q74.2212 1074.1 74.2212 1067.56 Q74.2212 1060.99 76.5128 1057.56 Q78.8218 1054.1 83.1795 1054.1 Z" fill="#000000" fill-rule="nonzero" fill-opacity="1" /><path clip-path="url(#clip270)" d="M53.0928 957.223 L66.8601 957.223 L66.8601 960.175 L56.3046 960.175 L56.3046 966.529 Q57.0685 966.268 57.8324 966.147 Q58.5963 966.008 59.3601 966.008 Q63.7004 966.008 66.2351 968.386 Q68.7698 970.765 68.7698 974.827 Q68.7698 979.011 66.1657 981.338 Q63.5615 983.647 58.8219 983.647 Q57.19 983.647 55.4886 983.369 Q53.8046 983.091 51.9991 982.536 L51.9991 979.011 Q53.5616 979.862 55.2282 980.279 Q56.8949 980.695 58.7525 980.695 Q61.756 980.695 63.5094 979.115 Q65.2629 977.536 65.2629 974.827 Q65.2629 972.119 63.5094 970.539 Q61.756 968.959 58.7525 968.959 Q57.3463 968.959 55.94 969.272 Q54.5511 969.584 53.0928 970.244 L53.0928 957.223 Z" fill="#000000" fill-rule="nonzero" fill-opacity="1" /><path clip-path="url(#clip270)" d="M83.1795 959.532 Q80.4711 959.532 79.0996 962.206 Q77.7455 964.862 77.7455 970.209 Q77.7455 975.539 79.0996 978.213 Q80.4711 980.869 83.1795 980.869 Q85.9051 980.869 87.2593 978.213 Q88.6308 975.539 88.6308 970.209 Q88.6308 964.862 87.2593 962.206 Q85.9051 959.532 83.1795 959.532 M83.1795 956.754 Q87.5371 956.754 89.8287 960.209 Q92.1377 963.647 92.1377 970.209 Q92.1377 976.754 89.8287 980.209 Q87.5371 983.647 83.1795 983.647 Q78.8218 983.647 76.5128 980.209 Q74.2212 976.754 74.2212 970.209 Q74.2212 963.647 76.5128 960.209 Q78.8218 956.754 83.1795 956.754 Z" fill="#000000" fill-rule="nonzero" fill-opacity="1" /><path clip-path="url(#clip270)" d="M140.036 813.68 Q136.517 813.68 134.619 816.226 Q132.628 818.888 132.628 823.286 Q132.628 827.939 134.596 830.624 Q136.587 833.286 140.036 833.286 Q143.439 833.286 145.429 830.601 Q147.42 827.916 147.42 823.286 Q147.42 819.05 145.429 816.226 Q143.601 813.68 140.036 813.68 M140.036 810.3 L154.179 810.3 L154.179 814.559 L149.411 814.559 Q151.934 818.171 151.934 823.286 Q151.934 829.652 148.763 833.263 Q145.591 836.897 140.036 836.897 Q134.457 836.897 131.309 833.263 Q128.138 829.652 128.138 823.286 Q128.138 816.874 131.309 813.286 Q133.925 810.3 140.036 810.3 Z" fill="#000000" fill-rule="nonzero" fill-opacity="1" /><path clip-path="url(#clip270)" d="M165.198 836.226 L157.281 810.3 L161.864 810.3 L168.554 832.059 Q171.332 829.189 173.647 825.208 Q175.406 822.221 175.499 819.629 Q175.545 818.402 174.989 816.087 Q174.341 813.333 171.888 810.3 L176.193 810.3 L176.193 810.3 Q177.79 812.36 178.855 815.231 Q179.827 817.87 179.827 819.675 Q179.827 824.212 176.679 828.263 Q172.582 833.541 169.735 836.226 L165.198 836.226 Z" fill="#000000" fill-rule="nonzero" fill-opacity="1" /><path clip-path="url(#clip274)" d="M184.494 1340.1 L184.494 1456.91 L267.394 1456.91 L267.394 1340.1 L184.494 1340.1 L184.494 1340.1  Z" fill="#009af9" fill-rule="evenodd" fill-opacity="1"/>
<polyline clip-path="url(#clip274)" style="stroke:#000000; stroke-linecap:round; stroke-linejoin:round; stroke-width:4; stroke-opacity:1; fill:none" points="184.494,1340.1 184.494,1456.91 267.394,1456.91 267.394,1340.1 184.494,1340.1 "/>
<path clip-path="url(#clip274)" d="M267.394 1310.9 L267.394 1456.91 L350.295 1456.91 L350.295 1310.9 L267.394 1310.9 L267.394 1310.9  Z" fill="#009af9" fill-rule="evenodd" fill-opacity="1"/>
<polyline clip-path="url(#clip274)" style="stroke:#000000; stroke-linecap:round; stroke-linejoin:round; stroke-width:4; stroke-opacity:1; fill:none" points="267.394,1310.9 267.394,1456.91 350.295,1456.91 350.295,1310.9 267.394,1310.9 "/>
<path clip-path="url(#clip274)" d="M350.295 1388.77 L350.295 1456.91 L433.195 1456.91 L433.195 1388.77 L350.295 1388.77 L350.295 1388.77  Z" fill="#009af9" fill-rule="evenodd" fill-opacity="1"/>
<polyline clip-path="url(#clip274)" style="stroke:#000000; stroke-linecap:round; stroke-linejoin:round; stroke-width:4; stroke-opacity:1; fill:none" points="350.295,1388.77 350.295,1456.91 433.195,1456.91 433.195,1388.77 350.295,1388.77 "/>
<path clip-path="url(#clip274)" d="M433.195 1340.1 L433.195 1456.91 L516.096 1456.91 L516.096 1340.1 L433.195 1340.1 L433.195 1340.1  Z" fill="#009af9" fill-rule="evenodd" fill-opacity="1"/>
<polyline clip-path="url(#clip274)" style="stroke:#000000; stroke-linecap:round; stroke-linejoin:round; stroke-width:4; stroke-opacity:1; fill:none" points="433.195,1340.1 433.195,1456.91 516.096,1456.91 516.096,1340.1 433.195,1340.1 "/>
<path clip-path="url(#clip274)" d="M516.096 1301.16 L516.096 1456.91 L598.997 1456.91 L598.997 1301.16 L516.096 1301.16 L516.096 1301.16  Z" fill="#009af9" fill-rule="evenodd" fill-opacity="1"/>
<polyline clip-path="url(#clip274)" style="stroke:#000000; stroke-linecap:round; stroke-linejoin:round; stroke-width:4; stroke-opacity:1; fill:none" points="516.096,1301.16 516.096,1456.91 598.997,1456.91 598.997,1301.16 516.096,1301.16 "/>
<path clip-path="url(#clip274)" d="M598.997 1125.94 L598.997 1456.91 L681.897 1456.91 L681.897 1125.94 L598.997 1125.94 L598.997 1125.94  Z" fill="#009af9" fill-rule="evenodd" fill-opacity="1"/>
<polyline clip-path="url(#clip274)" style="stroke:#000000; stroke-linecap:round; stroke-linejoin:round; stroke-width:4; stroke-opacity:1; fill:none" points="598.997,1125.94 598.997,1456.91 681.897,1456.91 681.897,1125.94 598.997,1125.94 "/>
<path clip-path="url(#clip274)" d="M681.897 892.306 L681.897 1456.91 L764.798 1456.91 L764.798 892.306 L681.897 892.306 L681.897 892.306  Z" fill="#009af9" fill-rule="evenodd" fill-opacity="1"/>
<polyline clip-path="url(#clip274)" style="stroke:#000000; stroke-linecap:round; stroke-linejoin:round; stroke-width:4; stroke-opacity:1; fill:none" points="681.897,892.306 681.897,1456.91 764.798,1456.91 764.798,892.306 681.897,892.306 "/>
<path clip-path="url(#clip274)" d="M764.798 1262.22 L764.798 1456.91 L847.698 1456.91 L847.698 1262.22 L764.798 1262.22 L764.798 1262.22  Z" fill="#009af9" fill-rule="evenodd" fill-opacity="1"/>
<polyline clip-path="url(#clip274)" style="stroke:#000000; stroke-linecap:round; stroke-linejoin:round; stroke-width:4; stroke-opacity:1; fill:none" points="764.798,1262.22 764.798,1456.91 847.698,1456.91 847.698,1262.22 764.798,1262.22 "/>
<path clip-path="url(#clip274)" d="M847.698 1262.22 L847.698 1456.91 L930.599 1456.91 L930.599 1262.22 L847.698 1262.22 L847.698 1262.22  Z" fill="#009af9" fill-rule="evenodd" fill-opacity="1"/>
<polyline clip-path="url(#clip274)" style="stroke:#000000; stroke-linecap:round; stroke-linejoin:round; stroke-width:4; stroke-opacity:1; fill:none" points="847.698,1262.22 847.698,1456.91 930.599,1456.91 930.599,1262.22 847.698,1262.22 "/>
<path clip-path="url(#clip274)" d="M930.599 1320.63 L930.599 1456.91 L1013.5 1456.91 L1013.5 1320.63 L930.599 1320.63 L930.599 1320.63  Z" fill="#009af9" fill-rule="evenodd" fill-opacity="1"/>
<polyline clip-path="url(#clip274)" style="stroke:#000000; stroke-linecap:round; stroke-linejoin:round; stroke-width:4; stroke-opacity:1; fill:none" points="930.599,1320.63 930.599,1456.91 1013.5,1456.91 1013.5,1320.63 930.599,1320.63 "/>
<path clip-path="url(#clip274)" d="M1013.5 1330.36 L1013.5 1456.91 L1096.4 1456.91 L1096.4 1330.36 L1013.5 1330.36 L1013.5 1330.36  Z" fill="#009af9" fill-rule="evenodd" fill-opacity="1"/>
<polyline clip-path="url(#clip274)" style="stroke:#000000; stroke-linecap:round; stroke-linejoin:round; stroke-width:4; stroke-opacity:1; fill:none" points="1013.5,1330.36 1013.5,1456.91 1096.4,1456.91 1096.4,1330.36 1013.5,1330.36 "/>
<circle clip-path="url(#clip274)" style="fill:#009af9; stroke:none; fill-opacity:0" cx="225.944" cy="1340.1" r="2"/>
<circle clip-path="url(#clip274)" style="fill:#009af9; stroke:none; fill-opacity:0" cx="308.844" cy="1310.9" r="2"/>
<circle clip-path="url(#clip274)" style="fill:#009af9; stroke:none; fill-opacity:0" cx="391.745" cy="1388.77" r="2"/>
<circle clip-path="url(#clip274)" style="fill:#009af9; stroke:none; fill-opacity:0" cx="474.646" cy="1340.1" r="2"/>
<circle clip-path="url(#clip274)" style="fill:#009af9; stroke:none; fill-opacity:0" cx="557.546" cy="1301.16" r="2"/>
<circle clip-path="url(#clip274)" style="fill:#009af9; stroke:none; fill-opacity:0" cx="640.447" cy="1125.94" r="2"/>
<circle clip-path="url(#clip274)" style="fill:#009af9; stroke:none; fill-opacity:0" cx="723.347" cy="892.306" r="2"/>
<circle clip-path="url(#clip274)" style="fill:#009af9; stroke:none; fill-opacity:0" cx="806.248" cy="1262.22" r="2"/>
<circle clip-path="url(#clip274)" style="fill:#009af9; stroke:none; fill-opacity:0" cx="889.149" cy="1262.22" r="2"/>
<circle clip-path="url(#clip274)" style="fill:#009af9; stroke:none; fill-opacity:0" cx="972.049" cy="1320.63" r="2"/>
<circle clip-path="url(#clip274)" style="fill:#009af9; stroke:none; fill-opacity:0" cx="1054.95" cy="1330.36" r="2"/>
<polyline clip-path="url(#clip274)" style="stroke:#ff0000; stroke-linecap:round; stroke-linejoin:round; stroke-width:8; stroke-opacity:1; fill:none" stroke-dasharray="32, 20" points="666.723,2021.52 666.723,327.698 "/>
<polyline clip-path="url(#clip274)" style="stroke:#ff0000; stroke-linecap:round; stroke-linejoin:round; stroke-width:6; stroke-opacity:1; fill:none" stroke-dasharray="24, 12, 3, 12" points="233.175,2021.52 233.175,327.698 "/>
<polyline clip-path="url(#clip274)" style="stroke:#ff0000; stroke-linecap:round; stroke-linejoin:round; stroke-width:6; stroke-opacity:1; fill:none" stroke-dasharray="24, 12, 3, 12" points="1076.33,2021.52 1076.33,327.698 "/>
</svg>
