<?xml version="1.0" encoding="utf-8"?>
<svg xmlns="http://www.w3.org/2000/svg" xmlns:xlink="http://www.w3.org/1999/xlink" width="600" height="400" viewBox="0 0 2400 1600">
<defs>
  <clipPath id="clip230">
    <rect x="0" y="0" width="2400" height="1600"/>
  </clipPath>
</defs>
<path clip-path="url(#clip230)" d="M0 1600 L2400 1600 L2400 0 L0 0  Z" fill="#ffffff" fill-rule="evenodd" fill-opacity="1"/>
<defs>
  <clipPath id="clip231">
    <rect x="480" y="0" width="1681" height="1600"/>
  </clipPath>
</defs>
<path clip-path="url(#clip230)" d="M128.138 667.406 L1152.76 667.406 L1152.76 97.5521 L128.138 97.5521  Z" fill="#ffffff" fill-rule="evenodd" fill-opacity="1"/>
<defs>
  <clipPath id="clip232">
    <rect x="128" y="97" width="1026" height="571"/>
  </clipPath>
</defs>
<polyline clip-path="url(#clip232)" style="stroke:#000000; stroke-linecap:round; stroke-linejoin:round; stroke-width:2; stroke-opacity:0.1; fill:none" points="298.482,667.406 298.482,97.5521 "/>
<polyline clip-path="url(#clip232)" style="stroke:#000000; stroke-linecap:round; stroke-linejoin:round; stroke-width:2; stroke-opacity:0.1; fill:none" points="526.459,667.406 526.459,97.5521 "/>
<polyline clip-path="url(#clip232)" style="stroke:#000000; stroke-linecap:round; stroke-linejoin:round; stroke-width:2; stroke-opacity:0.1; fill:none" points="754.435,667.406 754.435,97.5521 "/>
<polyline clip-path="url(#clip232)" style="stroke:#000000; stroke-linecap:round; stroke-linejoin:round; stroke-width:2; stroke-opacity:0.1; fill:none" points="982.412,667.406 982.412,97.5521 "/>
<polyline clip-path="url(#clip232)" style="stroke:#000000; stroke-linecap:round; stroke-linejoin:round; stroke-width:2; stroke-opacity:0.1; fill:none" points="128.138,667.406 1152.76,667.406 "/>
<polyline clip-path="url(#clip232)" style="stroke:#000000; stroke-linecap:round; stroke-linejoin:round; stroke-width:2; stroke-opacity:0.1; fill:none" points="128.138,530.092 1152.76,530.092 "/>
<polyline clip-path="url(#clip232)" style="stroke:#000000; stroke-linecap:round; stroke-linejoin:round; stroke-width:2; stroke-opacity:0.1; fill:none" points="128.138,392.778 1152.76,392.778 "/>
<polyline clip-path="url(#clip232)" style="stroke:#000000; stroke-linecap:round; stroke-linejoin:round; stroke-width:2; stroke-opacity:0.1; fill:none" points="128.138,255.464 1152.76,255.464 "/>
<polyline clip-path="url(#clip232)" style="stroke:#000000; stroke-linecap:round; stroke-linejoin:round; stroke-width:2; stroke-opacity:0.1; fill:none" points="128.138,118.149 1152.76,118.149 "/>
<polyline clip-path="url(#clip230)" style="stroke:#000000; stroke-linecap:round; stroke-linejoin:round; stroke-width:4; stroke-opacity:1; fill:none" points="128.138,667.406 1152.76,667.406 "/>
<polyline clip-path="url(#clip230)" style="stroke:#000000; stroke-linecap:round; stroke-linejoin:round; stroke-width:4; stroke-opacity:1; fill:none" points="298.482,667.406 298.482,648.509 "/>
<polyline clip-path="url(#clip230)" style="stroke:#000000; stroke-linecap:round; stroke-linejoin:round; stroke-width:4; stroke-opacity:1; fill:none" points="526.459,667.406 526.459,648.509 "/>
<polyline clip-path="url(#clip230)" style="stroke:#000000; stroke-linecap:round; stroke-linejoin:round; stroke-width:4; stroke-opacity:1; fill:none" points="754.435,667.406 754.435,648.509 "/>
<polyline clip-path="url(#clip230)" style="stroke:#000000; stroke-linecap:round; stroke-linejoin:round; stroke-width:4; stroke-opacity:1; fill:none" points="982.412,667.406 982.412,648.509 "/>
<path clip-path="url(#clip230)" d="M245.112 738.66 Q243.196 740.575 244.117 743.435 Q245.038 746.271 248.819 750.052 Q252.588 753.821 255.436 754.754 Q258.284 755.662 260.199 753.747 Q262.126 751.82 261.206 748.984 Q260.285 746.124 256.516 742.355 Q252.735 738.574 249.887 737.666 Q247.039 736.733 245.112 738.66 M243.147 736.696 Q246.229 733.615 250.292 734.437 Q254.355 735.235 258.996 739.875 Q263.624 744.503 264.434 748.579 Q265.244 752.63 262.163 755.712 Q259.082 758.793 255.018 757.995 Q250.955 757.172 246.327 752.544 Q241.687 747.904 240.876 743.853 Q240.066 739.777 243.147 736.696 Z" fill="#000000" fill-rule="nonzero" fill-opacity="1" /><path clip-path="url(#clip230)" d="M269.381 741.545 L271.972 738.955 L275.09 742.073 L272.5 744.663 L269.381 741.545 Z" fill="#000000" fill-rule="nonzero" fill-opacity="1" /><path clip-path="url(#clip230)" d="M277.091 722.664 Q275.323 724.432 275.249 726.396 Q275.188 728.348 276.845 730.005 Q278.503 731.663 280.454 731.601 Q282.419 731.528 284.186 729.76 Q285.954 727.992 286.028 726.028 Q286.089 724.052 284.444 722.407 Q282.787 720.749 280.823 720.823 Q278.871 720.884 277.091 722.664 M273.555 724.088 Q271.567 725.291 269.578 725.095 Q267.601 724.886 266.03 723.315 Q263.833 721.118 264.115 718.282 Q264.41 715.434 267.135 712.708 Q269.872 709.971 272.708 709.688 Q275.544 709.406 277.741 711.604 Q279.313 713.175 279.509 715.164 Q279.718 717.14 278.527 719.117 Q280.737 717.742 282.946 717.963 Q285.168 718.171 286.924 719.927 Q289.588 722.591 289.379 725.647 Q289.183 728.692 286.151 731.724 Q283.118 734.756 280.062 734.965 Q277.017 735.161 274.353 732.497 Q272.598 730.742 272.389 728.52 Q272.18 726.298 273.555 724.088 M268.731 721.081 Q270.155 722.505 271.837 722.419 Q273.531 722.321 275.139 720.712 Q276.735 719.117 276.833 717.422 Q276.943 715.716 275.519 714.292 Q274.095 712.868 272.389 712.978 Q270.695 713.077 269.099 714.673 Q267.491 716.281 267.393 717.975 Q267.307 719.657 268.731 721.081 Z" fill="#000000" fill-rule="nonzero" fill-opacity="1" /><path clip-path="url(#clip230)" d="M277.533 702.973 L289.318 691.188 L290.374 692.244 L300.992 716.17 L298.402 718.761 L288.422 696.258 L279.62 705.06 L277.533 702.973 Z" fill="#000000" fill-rule="nonzero" fill-opacity="1" /><path clip-path="url(#clip230)" d="M472.659 739.09 Q470.743 741.005 471.664 743.865 Q472.585 746.701 476.366 750.482 Q480.135 754.251 482.983 755.184 Q485.831 756.092 487.746 754.177 Q489.673 752.25 488.752 749.414 Q487.832 746.554 484.063 742.785 Q480.282 739.004 477.434 738.095 Q474.586 737.162 472.659 739.09 M470.694 737.126 Q473.776 734.044 477.839 734.867 Q481.902 735.665 486.543 740.305 Q491.171 744.933 491.981 749.009 Q492.791 753.06 489.71 756.141 Q486.629 759.223 482.565 758.425 Q478.502 757.602 473.874 752.974 Q469.233 748.334 468.423 744.283 Q467.613 740.207 470.694 737.126 Z" fill="#000000" fill-rule="nonzero" fill-opacity="1" /><path clip-path="url(#clip230)" d="M496.928 741.975 L499.519 739.384 L502.637 742.502 L500.046 745.093 L496.928 741.975 Z" fill="#000000" fill-rule="nonzero" fill-opacity="1" /><path clip-path="url(#clip230)" d="M504.638 723.094 Q502.87 724.862 502.796 726.826 Q502.735 728.778 504.392 730.435 Q506.05 732.092 508.001 732.031 Q509.966 731.957 511.733 730.19 Q513.501 728.422 513.575 726.458 Q513.636 724.481 511.991 722.836 Q510.334 721.179 508.37 721.253 Q506.418 721.314 504.638 723.094 M501.102 724.518 Q499.114 725.721 497.125 725.525 Q495.148 725.316 493.577 723.745 Q491.38 721.547 491.662 718.711 Q491.957 715.863 494.682 713.138 Q497.419 710.4 500.255 710.118 Q503.091 709.836 505.288 712.033 Q506.86 713.605 507.056 715.593 Q507.265 717.57 506.074 719.546 Q508.284 718.171 510.493 718.392 Q512.715 718.601 514.471 720.356 Q517.135 723.02 516.926 726.077 Q516.73 729.122 513.698 732.154 Q510.665 735.186 507.609 735.395 Q504.564 735.591 501.9 732.927 Q500.145 731.172 499.936 728.95 Q499.727 726.728 501.102 724.518 M496.278 721.51 Q497.702 722.934 499.384 722.848 Q501.078 722.75 502.686 721.142 Q504.282 719.546 504.38 717.852 Q504.49 716.146 503.066 714.722 Q501.642 713.298 499.936 713.408 Q498.242 713.506 496.646 715.102 Q495.038 716.71 494.94 718.405 Q494.854 720.086 496.278 721.51 Z" fill="#000000" fill-rule="nonzero" fill-opacity="1" /><path clip-path="url(#clip230)" d="M520.634 707.098 Q518.866 708.866 518.792 710.83 Q518.731 712.782 520.388 714.439 Q522.045 716.097 523.997 716.035 Q525.961 715.962 527.729 714.194 Q529.497 712.426 529.57 710.462 Q529.632 708.485 527.987 706.84 Q526.33 705.183 524.365 705.257 Q522.414 705.318 520.634 707.098 M517.098 708.522 Q515.109 709.725 513.121 709.529 Q511.144 709.32 509.573 707.749 Q507.375 705.551 507.658 702.716 Q507.952 699.868 510.678 697.142 Q513.415 694.405 516.251 694.122 Q519.087 693.84 521.284 696.037 Q522.855 697.609 523.052 699.598 Q523.261 701.574 522.07 703.55 Q524.28 702.176 526.489 702.396 Q528.711 702.605 530.467 704.361 Q533.131 707.025 532.922 710.081 Q532.725 713.126 529.693 716.158 Q526.661 719.19 523.604 719.399 Q520.56 719.595 517.896 716.931 Q516.14 715.176 515.932 712.954 Q515.723 710.732 517.098 708.522 M512.273 705.515 Q513.698 706.939 515.379 706.853 Q517.073 706.754 518.682 705.146 Q520.277 703.55 520.376 701.856 Q520.486 700.15 519.062 698.726 Q517.638 697.302 515.932 697.412 Q514.238 697.511 512.642 699.106 Q511.034 700.715 510.935 702.409 Q510.849 704.091 512.273 705.515 Z" fill="#000000" fill-rule="nonzero" fill-opacity="1" /><path clip-path="url(#clip230)" d="M700.684 739.041 Q698.769 740.956 699.69 743.816 Q700.611 746.652 704.392 750.433 Q708.16 754.202 711.008 755.135 Q713.857 756.043 715.772 754.128 Q717.699 752.201 716.778 749.365 Q715.858 746.504 712.089 742.736 Q708.308 738.955 705.46 738.046 Q702.612 737.113 700.684 739.041 M698.72 737.076 Q701.801 733.995 705.865 734.818 Q709.928 735.616 714.569 740.256 Q719.197 744.884 720.007 748.96 Q720.817 753.011 717.736 756.092 Q714.654 759.173 710.591 758.375 Q706.528 757.553 701.9 752.925 Q697.259 748.285 696.449 744.233 Q695.639 740.158 698.72 737.076 Z" fill="#000000" fill-rule="nonzero" fill-opacity="1" /><path clip-path="url(#clip230)" d="M724.954 741.926 L727.544 739.335 L730.662 742.453 L728.072 745.044 L724.954 741.926 Z" fill="#000000" fill-rule="nonzero" fill-opacity="1" /><path clip-path="url(#clip230)" d="M732.663 723.045 Q730.896 724.813 730.822 726.777 Q730.761 728.729 732.418 730.386 Q734.075 732.043 736.027 731.982 Q737.991 731.908 739.759 730.14 Q741.527 728.373 741.6 726.409 Q741.662 724.432 740.017 722.787 Q738.36 721.13 736.395 721.203 Q734.444 721.265 732.663 723.045 M729.128 724.469 Q727.139 725.672 725.151 725.476 Q723.174 725.267 721.603 723.696 Q719.405 721.498 719.688 718.662 Q719.982 715.814 722.708 713.089 Q725.445 710.351 728.281 710.069 Q731.117 709.787 733.314 711.984 Q734.885 713.555 735.082 715.544 Q735.291 717.521 734.1 719.497 Q736.309 718.122 738.519 718.343 Q740.741 718.552 742.497 720.307 Q745.161 722.971 744.952 726.028 Q744.755 729.072 741.723 732.105 Q738.691 735.137 735.634 735.346 Q732.59 735.542 729.926 732.878 Q728.17 731.123 727.962 728.901 Q727.753 726.679 729.128 724.469 M724.303 721.461 Q725.727 722.885 727.409 722.799 Q729.103 722.701 730.712 721.093 Q732.307 719.497 732.406 717.803 Q732.516 716.097 731.092 714.673 Q729.668 713.249 727.962 713.359 Q726.268 713.457 724.672 715.053 Q723.064 716.661 722.965 718.355 Q722.879 720.037 724.303 721.461 Z" fill="#000000" fill-rule="nonzero" fill-opacity="1" /><path clip-path="url(#clip230)" d="M751.753 720.602 L749.494 718.343 Q750.869 717.852 752.06 717.128 Q753.25 716.404 754.171 715.483 Q756.626 713.028 756.27 710.094 Q755.914 707.135 752.735 703.587 Q753.079 705.355 752.551 707.012 Q752.023 708.67 750.697 709.995 Q747.947 712.745 744.682 712.696 Q741.416 712.622 738.531 709.738 Q735.708 706.914 735.671 703.538 Q735.634 700.162 738.409 697.388 Q741.588 694.208 745.701 694.982 Q749.813 695.731 754.454 700.371 Q758.787 704.704 759.315 709.357 Q759.843 713.985 756.369 717.459 Q755.436 718.392 754.294 719.166 Q753.152 719.939 751.753 720.602 M748.917 707.896 Q750.587 706.227 750.415 704.115 Q750.255 701.991 748.266 700.003 Q746.29 698.026 744.166 697.867 Q742.042 697.682 740.373 699.352 Q738.703 701.022 738.875 703.158 Q739.047 705.269 741.024 707.246 Q743.012 709.234 745.124 709.406 Q747.247 709.566 748.917 707.896 Z" fill="#000000" fill-rule="nonzero" fill-opacity="1" /><path clip-path="url(#clip230)" d="M928.563 739.139 Q926.648 741.054 927.568 743.914 Q928.489 746.75 932.27 750.531 Q936.039 754.3 938.887 755.233 Q941.735 756.141 943.65 754.226 Q945.577 752.299 944.657 749.463 Q943.736 746.603 939.967 742.834 Q936.186 739.053 933.338 738.144 Q930.49 737.211 928.563 739.139 M926.599 737.175 Q929.68 734.093 933.743 734.916 Q937.807 735.714 942.447 740.354 Q947.075 744.982 947.885 749.058 Q948.695 753.109 945.614 756.19 Q942.533 759.272 938.469 758.474 Q934.406 757.651 929.778 753.023 Q925.138 748.383 924.327 744.332 Q923.517 740.256 926.599 737.175 Z" fill="#000000" fill-rule="nonzero" fill-opacity="1" /><path clip-path="url(#clip230)" d="M952.833 742.024 L955.423 739.433 L958.541 742.552 L955.951 745.142 L952.833 742.024 Z" fill="#000000" fill-rule="nonzero" fill-opacity="1" /><path clip-path="url(#clip230)" d="M963.635 736.696 L961.377 734.437 Q962.752 733.946 963.942 733.222 Q965.133 732.497 966.054 731.577 Q968.509 729.122 968.153 726.188 Q967.797 723.229 964.618 719.681 Q964.961 721.449 964.433 723.106 Q963.906 724.764 962.58 726.089 Q959.83 728.839 956.564 728.79 Q953.299 728.716 950.414 725.832 Q947.591 723.008 947.554 719.632 Q947.517 716.256 950.291 713.482 Q953.471 710.302 957.583 711.076 Q961.696 711.825 966.336 716.465 Q970.67 720.798 971.198 725.451 Q971.725 730.079 968.251 733.553 Q967.318 734.486 966.177 735.26 Q965.035 736.033 963.635 736.696 M960.8 723.99 Q962.469 722.321 962.297 720.209 Q962.138 718.085 960.149 716.097 Q958.173 714.12 956.049 713.961 Q953.925 713.776 952.256 715.446 Q950.586 717.116 950.758 719.252 Q950.93 721.363 952.906 723.339 Q954.895 725.328 957.006 725.5 Q959.13 725.66 960.8 723.99 Z" fill="#000000" fill-rule="nonzero" fill-opacity="1" /><path clip-path="url(#clip230)" d="M968.546 699.156 Q966.631 701.071 967.552 703.931 Q968.472 706.767 972.253 710.548 Q976.022 714.317 978.87 715.25 Q981.718 716.158 983.633 714.243 Q985.561 712.316 984.64 709.48 Q983.719 706.619 979.95 702.851 Q976.169 699.07 973.321 698.161 Q970.473 697.228 968.546 699.156 M966.582 697.191 Q969.663 694.11 973.726 694.933 Q977.79 695.731 982.43 700.371 Q987.058 704.999 987.868 709.075 Q988.679 713.126 985.597 716.207 Q982.516 719.288 978.453 718.49 Q974.389 717.668 969.761 713.04 Q965.121 708.399 964.311 704.348 Q963.5 700.273 966.582 697.191 Z" fill="#000000" fill-rule="nonzero" fill-opacity="1" /><polyline clip-path="url(#clip230)" style="stroke:#000000; stroke-linecap:round; stroke-linejoin:round; stroke-width:4; stroke-opacity:1; fill:none" points="128.138,667.406 128.138,97.5521 "/>
<polyline clip-path="url(#clip230)" style="stroke:#000000; stroke-linecap:round; stroke-linejoin:round; stroke-width:4; stroke-opacity:1; fill:none" points="128.138,667.406 147.035,667.406 "/>
<polyline clip-path="url(#clip230)" style="stroke:#000000; stroke-linecap:round; stroke-linejoin:round; stroke-width:4; stroke-opacity:1; fill:none" points="128.138,530.092 147.035,530.092 "/>
<polyline clip-path="url(#clip230)" style="stroke:#000000; stroke-linecap:round; stroke-linejoin:round; stroke-width:4; stroke-opacity:1; fill:none" points="128.138,392.778 147.035,392.778 "/>
<polyline clip-path="url(#clip230)" style="stroke:#000000; stroke-linecap:round; stroke-linejoin:round; stroke-width:4; stroke-opacity:1; fill:none" points="128.138,255.464 147.035,255.464 "/>
<polyline clip-path="url(#clip230)" style="stroke:#000000; stroke-linecap:round; stroke-linejoin:round; stroke-width:4; stroke-opacity:1; fill:none" points="128.138,118.149 147.035,118.149 "/>
<path clip-path="url(#clip230)" d="M83.1795 656.755 Q80.4711 656.755 79.0996 659.429 Q77.7455 662.085 77.7455 667.432 Q77.7455 672.762 79.0996 675.436 Q80.4711 678.092 83.1795 678.092 Q85.9051 678.092 87.2593 675.436 Q88.6308 672.762 88.6308 667.432 Q88.6308 662.085 87.2593 659.429 Q85.9051 656.755 83.1795 656.755 M83.1795 653.978 Q87.5371 653.978 89.8287 657.432 Q92.1377 660.87 92.1377 667.432 Q92.1377 673.978 89.8287 677.432 Q87.5371 680.87 83.1795 680.87 Q78.8218 680.87 76.5128 677.432 Q74.2212 673.978 74.2212 667.432 Q74.2212 660.87 76.5128 657.432 Q78.8218 653.978 83.1795 653.978 Z" fill="#000000" fill-rule="nonzero" fill-opacity="1" /><path clip-path="url(#clip230)" d="M56.0789 540.101 L68.3184 540.101 L68.3184 543.052 L51.8602 543.052 L51.8602 540.101 Q53.8567 538.035 57.2942 534.563 Q60.749 531.073 61.6344 530.066 Q63.3184 528.174 63.9782 526.872 Q64.6552 525.552 64.6552 524.285 Q64.6552 522.219 63.1969 520.917 Q61.756 519.615 59.4296 519.615 Q57.7803 519.615 55.94 520.188 Q54.1171 520.761 52.0338 521.924 L52.0338 518.382 Q54.1518 517.531 55.9921 517.097 Q57.8324 516.663 59.3601 516.663 Q63.3879 516.663 65.7837 518.677 Q68.1795 520.691 68.1795 524.059 Q68.1795 525.656 67.5719 527.097 Q66.9816 528.521 65.4018 530.465 Q64.9677 530.969 62.6414 533.382 Q60.315 535.778 56.0789 540.101 Z" fill="#000000" fill-rule="nonzero" fill-opacity="1" /><path clip-path="url(#clip230)" d="M83.1795 519.441 Q80.4711 519.441 79.0996 522.115 Q77.7455 524.771 77.7455 530.118 Q77.7455 535.448 79.0996 538.122 Q80.4711 540.778 83.1795 540.778 Q85.9051 540.778 87.2593 538.122 Q88.6308 535.448 88.6308 530.118 Q88.6308 524.771 87.2593 522.115 Q85.9051 519.441 83.1795 519.441 M83.1795 516.663 Q87.5371 516.663 89.8287 520.118 Q92.1377 523.556 92.1377 530.118 Q92.1377 536.663 89.8287 540.118 Q87.5371 543.556 83.1795 543.556 Q78.8218 543.556 76.5128 540.118 Q74.2212 536.663 74.2212 530.118 Q74.2212 523.556 76.5128 520.118 Q78.8218 516.663 83.1795 516.663 Z" fill="#000000" fill-rule="nonzero" fill-opacity="1" /><path clip-path="url(#clip230)" d="M62.6935 382.873 L53.8393 396.71 L62.6935 396.71 L62.6935 382.873 M61.7733 379.818 L66.183 379.818 L66.183 396.71 L69.8809 396.71 L69.8809 399.627 L66.183 399.627 L66.183 405.738 L62.6935 405.738 L62.6935 399.627 L50.9921 399.627 L50.9921 396.241 L61.7733 379.818 Z" fill="#000000" fill-rule="nonzero" fill-opacity="1" /><path clip-path="url(#clip230)" d="M83.1795 382.127 Q80.4711 382.127 79.0996 384.8 Q77.7455 387.457 77.7455 392.804 Q77.7455 398.134 79.0996 400.807 Q80.4711 403.464 83.1795 403.464 Q85.9051 403.464 87.2593 400.807 Q88.6308 398.134 88.6308 392.804 Q88.6308 387.457 87.2593 384.8 Q85.9051 382.127 83.1795 382.127 M83.1795 379.349 Q87.5371 379.349 89.8287 382.804 Q92.1377 386.241 92.1377 392.804 Q92.1377 399.349 89.8287 402.804 Q87.5371 406.241 83.1795 406.241 Q78.8218 406.241 76.5128 402.804 Q74.2212 399.349 74.2212 392.804 Q74.2212 386.241 76.5128 382.804 Q78.8218 379.349 83.1795 379.349 Z" fill="#000000" fill-rule="nonzero" fill-opacity="1" /><path clip-path="url(#clip230)" d="M60.9921 254.066 Q58.631 254.066 57.2421 255.681 Q55.8706 257.295 55.8706 260.108 Q55.8706 262.903 57.2421 264.535 Q58.631 266.149 60.9921 266.149 Q63.3532 266.149 64.7247 264.535 Q66.1136 262.903 66.1136 260.108 Q66.1136 257.295 64.7247 255.681 Q63.3532 254.066 60.9921 254.066 M67.9538 243.076 L67.9538 246.271 Q66.6344 245.646 65.2802 245.316 Q63.9434 244.986 62.624 244.986 Q59.1518 244.986 57.3115 247.33 Q55.4886 249.674 55.2282 254.413 Q56.2525 252.903 57.7976 252.104 Q59.3428 251.288 61.2004 251.288 Q65.1066 251.288 67.3636 253.667 Q69.6379 256.028 69.6379 260.108 Q69.6379 264.101 67.2768 266.514 Q64.9157 268.927 60.9921 268.927 Q56.4956 268.927 54.1171 265.49 Q51.7386 262.035 51.7386 255.49 Q51.7386 249.344 54.6553 245.698 Q57.572 242.035 62.4851 242.035 Q63.8046 242.035 65.1414 242.295 Q66.4955 242.556 67.9538 243.076 Z" fill="#000000" fill-rule="nonzero" fill-opacity="1" /><path clip-path="url(#clip230)" d="M83.1795 244.813 Q80.4711 244.813 79.0996 247.486 Q77.7455 250.142 77.7455 255.49 Q77.7455 260.819 79.0996 263.493 Q80.4711 266.149 83.1795 266.149 Q85.9051 266.149 87.2593 263.493 Q88.6308 260.819 88.6308 255.49 Q88.6308 250.142 87.2593 247.486 Q85.9051 244.813 83.1795 244.813 M83.1795 242.035 Q87.5371 242.035 89.8287 245.49 Q92.1377 248.927 92.1377 255.49 Q92.1377 262.035 89.8287 265.49 Q87.5371 268.927 83.1795 268.927 Q78.8218 268.927 76.5128 265.49 Q74.2212 262.035 74.2212 255.49 Q74.2212 248.927 76.5128 245.49 Q78.8218 242.035 83.1795 242.035 Z" fill="#000000" fill-rule="nonzero" fill-opacity="1" /><path clip-path="url(#clip230)" d="M60.558 118.8 Q58.0581 118.8 56.6171 120.137 Q55.1935 121.474 55.1935 123.818 Q55.1935 126.161 56.6171 127.498 Q58.0581 128.835 60.558 128.835 Q63.058 128.835 64.499 127.498 Q65.94 126.144 65.94 123.818 Q65.94 121.474 64.499 120.137 Q63.0754 118.8 60.558 118.8 M57.0511 117.307 Q54.7942 116.752 53.5268 115.207 Q52.2768 113.661 52.2768 111.439 Q52.2768 108.332 54.4817 106.526 Q56.7039 104.721 60.558 104.721 Q64.4296 104.721 66.6344 106.526 Q68.8393 108.332 68.8393 111.439 Q68.8393 113.661 67.5719 115.207 Q66.3219 116.752 64.0823 117.307 Q66.617 117.898 68.0233 119.616 Q69.4469 121.335 69.4469 123.818 Q69.4469 127.585 67.1379 129.599 Q64.8462 131.613 60.558 131.613 Q56.2699 131.613 53.9609 129.599 Q51.6692 127.585 51.6692 123.818 Q51.6692 121.335 53.0928 119.616 Q54.5164 117.898 57.0511 117.307 M55.7664 111.769 Q55.7664 113.783 57.0164 114.911 Q58.2838 116.04 60.558 116.04 Q62.815 116.04 64.0823 114.911 Q65.367 113.783 65.367 111.769 Q65.367 109.755 64.0823 108.627 Q62.815 107.498 60.558 107.498 Q58.2838 107.498 57.0164 108.627 Q55.7664 109.755 55.7664 111.769 Z" fill="#000000" fill-rule="nonzero" fill-opacity="1" /><path clip-path="url(#clip230)" d="M83.1795 107.498 Q80.4711 107.498 79.0996 110.172 Q77.7455 112.828 77.7455 118.175 Q77.7455 123.505 79.0996 126.179 Q80.4711 128.835 83.1795 128.835 Q85.9051 128.835 87.2593 126.179 Q88.6308 123.505 88.6308 118.175 Q88.6308 112.828 87.2593 110.172 Q85.9051 107.498 83.1795 107.498 M83.1795 104.721 Q87.5371 104.721 89.8287 108.175 Q92.1377 111.613 92.1377 118.175 Q92.1377 124.72 89.8287 128.175 Q87.5371 131.613 83.1795 131.613 Q78.8218 131.613 76.5128 128.175 Q74.2212 124.72 74.2212 118.175 Q74.2212 111.613 76.5128 108.175 Q78.8218 104.721 83.1795 104.721 Z" fill="#000000" fill-rule="nonzero" fill-opacity="1" /><path clip-path="url(#clip230)" d="M130.221 20.1758 Q131.633 17.8147 135.128 15.7314 Q136.494 14.9212 140.707 14.9212 Q145.429 14.9212 148.369 18.6712 Q151.332 22.4212 151.332 28.5323 Q151.332 34.6433 148.369 38.3933 Q145.429 42.1433 140.707 42.1433 Q137.86 42.1433 135.8 41.0322 Q133.763 39.8979 132.42 37.5831 L132.42 51.3331 L128.138 51.3331 L128.138 28.7637 Q128.138 23.4165 130.221 20.1758 M146.911 28.5323 Q146.911 23.8332 144.966 21.1712 Q143.045 18.486 139.665 18.486 Q136.286 18.486 134.341 21.1712 Q132.42 23.8332 132.42 28.5323 Q132.42 33.2313 134.341 35.9165 Q136.286 38.5785 139.665 38.5785 Q143.045 38.5785 144.966 35.9165 Q146.911 33.2313 146.911 28.5323 Z" fill="#000000" fill-rule="nonzero" fill-opacity="1" /><path clip-path="url(#clip232)" d="M184.494 660.541 L184.494 667.406 L298.482 667.406 L298.482 660.541 L184.494 660.541 L184.494 660.541  Z" fill="#009af9" fill-rule="evenodd" fill-opacity="1"/>
<polyline clip-path="url(#clip232)" style="stroke:#000000; stroke-linecap:round; stroke-linejoin:round; stroke-width:4; stroke-opacity:1; fill:none" points="184.494,660.541 184.494,667.406 298.482,667.406 298.482,660.541 184.494,660.541 "/>
<path clip-path="url(#clip232)" d="M298.482 550.689 L298.482 667.406 L412.47 667.406 L412.47 550.689 L298.482 550.689 L298.482 550.689  Z" fill="#009af9" fill-rule="evenodd" fill-opacity="1"/>
<polyline clip-path="url(#clip232)" style="stroke:#000000; stroke-linecap:round; stroke-linejoin:round; stroke-width:4; stroke-opacity:1; fill:none" points="298.482,550.689 298.482,667.406 412.47,667.406 412.47,550.689 298.482,550.689 "/>
<path clip-path="url(#clip232)" d="M412.47 591.884 L412.47 667.406 L526.459 667.406 L526.459 591.884 L412.47 591.884 L412.47 591.884  Z" fill="#009af9" fill-rule="evenodd" fill-opacity="1"/>
<polyline clip-path="url(#clip232)" style="stroke:#000000; stroke-linecap:round; stroke-linejoin:round; stroke-width:4; stroke-opacity:1; fill:none" points="412.47,591.884 412.47,667.406 526.459,667.406 526.459,591.884 412.47,591.884 "/>
<path clip-path="url(#clip232)" d="M526.459 475.166 L526.459 667.406 L640.447 667.406 L640.447 475.166 L526.459 475.166 L526.459 475.166  Z" fill="#009af9" fill-rule="evenodd" fill-opacity="1"/>
<polyline clip-path="url(#clip232)" style="stroke:#000000; stroke-linecap:round; stroke-linejoin:round; stroke-width:4; stroke-opacity:1; fill:none" points="526.459,475.166 526.459,667.406 640.447,667.406 640.447,475.166 526.459,475.166 "/>
<path clip-path="url(#clip232)" d="M640.447 509.495 L640.447 667.406 L754.435 667.406 L754.435 509.495 L640.447 509.495 L640.447 509.495  Z" fill="#009af9" fill-rule="evenodd" fill-opacity="1"/>
<polyline clip-path="url(#clip232)" style="stroke:#000000; stroke-linecap:round; stroke-linejoin:round; stroke-width:4; stroke-opacity:1; fill:none" points="640.447,509.495 640.447,667.406 754.435,667.406 754.435,509.495 640.447,509.495 "/>
<path clip-path="url(#clip232)" d="M754.435 97.5521 L754.435 667.406 L868.423 667.406 L868.423 97.5521 L754.435 97.5521 L754.435 97.5521  Z" fill="#009af9" fill-rule="evenodd" fill-opacity="1"/>
<polyline clip-path="url(#clip232)" style="stroke:#000000; stroke-linecap:round; stroke-linejoin:round; stroke-width:4; stroke-opacity:1; fill:none" points="754.435,97.5521 754.435,667.406 868.423,667.406 868.423,97.5521 754.435,97.5521 "/>
<path clip-path="url(#clip232)" d="M868.423 365.315 L868.423 667.406 L982.412 667.406 L982.412 365.315 L868.423 365.315 L868.423 365.315  Z" fill="#009af9" fill-rule="evenodd" fill-opacity="1"/>
<polyline clip-path="url(#clip232)" style="stroke:#000000; stroke-linecap:round; stroke-linejoin:round; stroke-width:4; stroke-opacity:1; fill:none" points="868.423,365.315 868.423,667.406 982.412,667.406 982.412,365.315 868.423,365.315 "/>
<path clip-path="url(#clip232)" d="M982.412 571.286 L982.412 667.406 L1096.4 667.406 L1096.4 571.286 L982.412 571.286 L982.412 571.286  Z" fill="#009af9" fill-rule="evenodd" fill-opacity="1"/>
<polyline clip-path="url(#clip232)" style="stroke:#000000; stroke-linecap:round; stroke-linejoin:round; stroke-width:4; stroke-opacity:1; fill:none" points="982.412,571.286 982.412,667.406 1096.4,667.406 1096.4,571.286 982.412,571.286 "/>
<circle clip-path="url(#clip232)" style="fill:#009af9; stroke:none; fill-opacity:0" cx="241.488" cy="660.541" r="2"/>
<circle clip-path="url(#clip232)" style="fill:#009af9; stroke:none; fill-opacity:0" cx="355.476" cy="550.689" r="2"/>
<circle clip-path="url(#clip232)" style="fill:#009af9; stroke:none; fill-opacity:0" cx="469.464" cy="591.884" r="2"/>
<circle clip-path="url(#clip232)" style="fill:#009af9; stroke:none; fill-opacity:0" cx="583.453" cy="475.166" r="2"/>
<circle clip-path="url(#clip232)" style="fill:#009af9; stroke:none; fill-opacity:0" cx="697.441" cy="509.495" r="2"/>
<circle clip-path="url(#clip232)" style="fill:#009af9; stroke:none; fill-opacity:0" cx="811.429" cy="97.5521" r="2"/>
<circle clip-path="url(#clip232)" style="fill:#009af9; stroke:none; fill-opacity:0" cx="925.418" cy="365.315" r="2"/>
<circle clip-path="url(#clip232)" style="fill:#009af9; stroke:none; fill-opacity:0" cx="1039.41" cy="571.286" r="2"/>
<polyline clip-path="url(#clip232)" style="stroke:#ff0000; stroke-linecap:round; stroke-linejoin:round; stroke-width:8; stroke-opacity:1; fill:none" stroke-dasharray="32, 20" points="772.749,1237.26 772.749,-472.302 "/>
<polyline clip-path="url(#clip232)" style="stroke:#ff0000; stroke-linecap:round; stroke-linejoin:round; stroke-width:6; stroke-opacity:1; fill:none" stroke-dasharray="24, 12, 3, 12" points="318.57,1237.26 318.57,-472.302 "/>
<polyline clip-path="url(#clip232)" style="stroke:#ff0000; stroke-linecap:round; stroke-linejoin:round; stroke-width:6; stroke-opacity:1; fill:none" stroke-dasharray="24, 12, 3, 12" points="1038.74,1237.26 1038.74,-472.302 "/>
<path clip-path="url(#clip230)" d="M1328.14 667.406 L2352.76 667.406 L2352.76 97.5521 L1328.14 97.5521  Z" fill="#ffffff" fill-rule="evenodd" fill-opacity="1"/>
<defs>
  <clipPath id="clip233">
    <rect x="1328" y="97" width="1026" height="571"/>
  </clipPath>
</defs>
<polyline clip-path="url(#clip233)" style="stroke:#000000; stroke-linecap:round; stroke-linejoin:round; stroke-width:2; stroke-opacity:0.1; fill:none" points="1384.49,667.406 1384.49,97.5521 "/>
<polyline clip-path="url(#clip233)" style="stroke:#000000; stroke-linecap:round; stroke-linejoin:round; stroke-width:2; stroke-opacity:0.1; fill:none" points="1566.87,667.406 1566.87,97.5521 "/>
<polyline clip-path="url(#clip233)" style="stroke:#000000; stroke-linecap:round; stroke-linejoin:round; stroke-width:2; stroke-opacity:0.1; fill:none" points="1749.26,667.406 1749.26,97.5521 "/>
<polyline clip-path="url(#clip233)" style="stroke:#000000; stroke-linecap:round; stroke-linejoin:round; stroke-width:2; stroke-opacity:0.1; fill:none" points="1931.64,667.406 1931.64,97.5521 "/>
<polyline clip-path="url(#clip233)" style="stroke:#000000; stroke-linecap:round; stroke-linejoin:round; stroke-width:2; stroke-opacity:0.1; fill:none" points="2114.02,667.406 2114.02,97.5521 "/>
<polyline clip-path="url(#clip233)" style="stroke:#000000; stroke-linecap:round; stroke-linejoin:round; stroke-width:2; stroke-opacity:0.1; fill:none" points="2296.4,667.406 2296.4,97.5521 "/>
<polyline clip-path="url(#clip233)" style="stroke:#000000; stroke-linecap:round; stroke-linejoin:round; stroke-width:2; stroke-opacity:0.1; fill:none" points="1328.14,667.406 2352.76,667.406 "/>
<polyline clip-path="url(#clip233)" style="stroke:#000000; stroke-linecap:round; stroke-linejoin:round; stroke-width:2; stroke-opacity:0.1; fill:none" points="1328.14,524.943 2352.76,524.943 "/>
<polyline clip-path="url(#clip233)" style="stroke:#000000; stroke-linecap:round; stroke-linejoin:round; stroke-width:2; stroke-opacity:0.1; fill:none" points="1328.14,382.479 2352.76,382.479 "/>
<polyline clip-path="url(#clip233)" style="stroke:#000000; stroke-linecap:round; stroke-linejoin:round; stroke-width:2; stroke-opacity:0.1; fill:none" points="1328.14,240.016 2352.76,240.016 "/>
<polyline clip-path="url(#clip233)" style="stroke:#000000; stroke-linecap:round; stroke-linejoin:round; stroke-width:2; stroke-opacity:0.1; fill:none" points="1328.14,97.5521 2352.76,97.5521 "/>
<polyline clip-path="url(#clip230)" style="stroke:#000000; stroke-linecap:round; stroke-linejoin:round; stroke-width:4; stroke-opacity:1; fill:none" points="1328.14,667.406 2352.76,667.406 "/>
<polyline clip-path="url(#clip230)" style="stroke:#000000; stroke-linecap:round; stroke-linejoin:round; stroke-width:4; stroke-opacity:1; fill:none" points="1384.49,667.406 1384.49,648.509 "/>
<polyline clip-path="url(#clip230)" style="stroke:#000000; stroke-linecap:round; stroke-linejoin:round; stroke-width:4; stroke-opacity:1; fill:none" points="1566.87,667.406 1566.87,648.509 "/>
<polyline clip-path="url(#clip230)" style="stroke:#000000; stroke-linecap:round; stroke-linejoin:round; stroke-width:4; stroke-opacity:1; fill:none" points="1749.26,667.406 1749.26,648.509 "/>
<polyline clip-path="url(#clip230)" style="stroke:#000000; stroke-linecap:round; stroke-linejoin:round; stroke-width:4; stroke-opacity:1; fill:none" points="1931.64,667.406 1931.64,648.509 "/>
<polyline clip-path="url(#clip230)" style="stroke:#000000; stroke-linecap:round; stroke-linejoin:round; stroke-width:4; stroke-opacity:1; fill:none" points="2114.02,667.406 2114.02,648.509 "/>
<polyline clip-path="url(#clip230)" style="stroke:#000000; stroke-linecap:round; stroke-linejoin:round; stroke-width:4; stroke-opacity:1; fill:none" points="2296.4,667.406 2296.4,648.509 "/>
<path clip-path="url(#clip230)" d="M1330.64 739.139 Q1328.73 741.054 1329.65 743.914 Q1330.57 746.75 1334.35 750.531 Q1338.12 754.3 1340.97 755.233 Q1343.82 756.141 1345.73 754.226 Q1347.66 752.299 1346.74 749.463 Q1345.82 746.603 1342.05 742.834 Q1338.27 739.053 1335.42 738.144 Q1332.57 737.211 1330.64 739.139 M1328.68 737.175 Q1331.76 734.093 1335.82 734.916 Q1339.89 735.714 1344.53 740.354 Q1349.16 744.982 1349.97 749.058 Q1350.78 753.109 1347.7 756.19 Q1344.61 759.272 1340.55 758.474 Q1336.49 757.651 1331.86 753.023 Q1327.22 748.383 1326.41 744.332 Q1325.6 740.256 1328.68 737.175 Z" fill="#000000" fill-rule="nonzero" fill-opacity="1" /><path clip-path="url(#clip230)" d="M1354.91 742.024 L1357.5 739.433 L1360.62 742.552 L1358.03 745.142 L1354.91 742.024 Z" fill="#000000" fill-rule="nonzero" fill-opacity="1" /><path clip-path="url(#clip230)" d="M1363.65 719.755 Q1365.82 718.355 1368.01 718.564 Q1370.22 718.761 1371.99 720.528 Q1374.7 723.241 1374.32 726.593 Q1373.94 729.944 1370.5 733.381 Q1369.35 734.535 1367.89 735.53 Q1366.45 736.524 1364.7 737.371 L1362.3 734.977 Q1363.94 734.548 1365.47 733.627 Q1367.01 732.706 1368.34 731.368 Q1370.68 729.036 1370.97 726.9 Q1371.28 724.751 1369.52 722.996 Q1367.9 721.375 1365.85 721.609 Q1363.8 721.817 1361.78 723.843 L1359.64 725.979 L1357.6 723.941 L1359.84 721.707 Q1361.67 719.878 1361.91 718.184 Q1362.14 716.477 1360.77 715.102 Q1359.36 713.69 1357.6 713.948 Q1355.85 714.182 1353.98 716.047 Q1352.96 717.066 1352.02 718.454 Q1351.07 719.841 1350.14 721.707 L1347.93 719.497 Q1348.95 717.692 1349.98 716.268 Q1351.02 714.832 1352.12 713.74 Q1354.94 710.916 1357.87 710.56 Q1360.79 710.192 1362.98 712.377 Q1364.5 713.899 1364.69 715.827 Q1364.86 717.742 1363.65 719.755 Z" fill="#000000" fill-rule="nonzero" fill-opacity="1" /><path clip-path="url(#clip230)" d="M1370.63 699.156 Q1368.71 701.071 1369.63 703.931 Q1370.55 706.767 1374.34 710.548 Q1378.1 714.317 1380.95 715.25 Q1383.8 716.158 1385.72 714.243 Q1387.64 712.316 1386.72 709.48 Q1385.8 706.619 1382.03 702.851 Q1378.25 699.07 1375.4 698.161 Q1372.56 697.228 1370.63 699.156 M1368.66 697.191 Q1371.74 694.11 1375.81 694.933 Q1379.87 695.731 1384.51 700.371 Q1389.14 704.999 1389.95 709.075 Q1390.76 713.126 1387.68 716.207 Q1384.6 719.288 1380.53 718.49 Q1376.47 717.668 1371.84 713.04 Q1367.2 708.399 1366.39 704.348 Q1365.58 700.273 1368.66 697.191 Z" fill="#000000" fill-rule="nonzero" fill-opacity="1" /><path clip-path="url(#clip230)" d="M1513.68 738.488 Q1511.76 740.403 1512.68 743.264 Q1513.6 746.099 1517.38 749.88 Q1521.15 753.649 1524 754.582 Q1526.85 755.491 1528.76 753.576 Q1530.69 751.648 1529.77 748.812 Q1528.85 745.952 1525.08 742.183 Q1521.3 738.402 1518.45 737.494 Q1515.6 736.561 1513.68 738.488 M1511.71 736.524 Q1514.79 733.443 1518.86 734.265 Q1522.92 735.063 1527.56 739.704 Q1532.19 744.332 1533 748.407 Q1533.81 752.458 1530.73 755.54 Q1527.65 758.621 1523.58 757.823 Q1519.52 757.001 1514.89 752.372 Q1510.25 747.732 1509.44 743.681 Q1508.63 739.605 1511.71 736.524 Z" fill="#000000" fill-rule="nonzero" fill-opacity="1" /><path clip-path="url(#clip230)" d="M1537.95 741.373 L1540.54 738.783 L1543.65 741.901 L1541.06 744.491 L1537.95 741.373 Z" fill="#000000" fill-rule="nonzero" fill-opacity="1" /><path clip-path="url(#clip230)" d="M1546.69 719.104 Q1548.85 717.705 1551.04 717.913 Q1553.25 718.11 1555.02 719.878 Q1557.74 722.591 1557.35 725.942 Q1556.97 729.293 1553.54 732.731 Q1552.38 733.885 1550.92 734.879 Q1549.49 735.873 1547.73 736.72 L1545.34 734.327 Q1546.97 733.897 1548.5 732.976 Q1550.04 732.056 1551.38 730.717 Q1553.71 728.385 1554 726.249 Q1554.31 724.101 1552.55 722.345 Q1550.93 720.725 1548.88 720.958 Q1546.83 721.167 1544.81 723.192 L1542.67 725.328 L1540.63 723.29 L1542.87 721.056 Q1544.7 719.227 1544.94 717.533 Q1545.18 715.827 1543.8 714.452 Q1542.39 713.04 1540.63 713.298 Q1538.88 713.531 1537.01 715.397 Q1535.99 716.416 1535.05 717.803 Q1534.1 719.19 1533.17 721.056 L1530.96 718.846 Q1531.98 717.042 1533.01 715.618 Q1534.05 714.182 1535.15 713.089 Q1537.97 710.265 1540.9 709.909 Q1543.83 709.541 1546.01 711.726 Q1547.53 713.249 1547.72 715.176 Q1547.89 717.091 1546.69 719.104 Z" fill="#000000" fill-rule="nonzero" fill-opacity="1" /><path clip-path="url(#clip230)" d="M1563.39 717.987 L1567.45 713.936 L1553.46 699.954 L1549.94 705.245 L1547.68 702.986 L1551.18 697.719 L1553.66 695.24 L1569.9 711.481 L1573.95 707.43 L1576.04 709.517 L1565.48 720.074 L1563.39 717.987 Z" fill="#000000" fill-rule="nonzero" fill-opacity="1" /><path clip-path="url(#clip230)" d="M1696.25 738.292 Q1694.34 740.207 1695.26 743.067 Q1696.18 745.903 1699.96 749.684 Q1703.73 753.453 1706.58 754.386 Q1709.43 755.294 1711.34 753.379 Q1713.27 751.452 1712.35 748.616 Q1711.43 745.756 1707.66 741.987 Q1703.88 738.206 1701.03 737.297 Q1698.18 736.364 1696.25 738.292 M1694.29 736.328 Q1697.37 733.246 1701.43 734.069 Q1705.5 734.867 1710.14 739.507 Q1714.77 744.135 1715.58 748.211 Q1716.39 752.262 1713.31 755.343 Q1710.22 758.425 1706.16 757.627 Q1702.1 756.804 1697.47 752.176 Q1692.83 747.536 1692.02 743.485 Q1691.21 739.409 1694.29 736.328 Z" fill="#000000" fill-rule="nonzero" fill-opacity="1" /><path clip-path="url(#clip230)" d="M1720.52 741.177 L1723.11 738.586 L1726.23 741.705 L1723.64 744.295 L1720.52 741.177 Z" fill="#000000" fill-rule="nonzero" fill-opacity="1" /><path clip-path="url(#clip230)" d="M1729.26 718.908 Q1731.43 717.508 1733.62 717.717 Q1735.83 717.913 1737.6 719.681 Q1740.31 722.394 1739.93 725.746 Q1739.55 729.097 1736.11 732.534 Q1734.96 733.688 1733.5 734.683 Q1732.06 735.677 1730.31 736.524 L1727.91 734.13 Q1729.55 733.701 1731.08 732.78 Q1732.62 731.859 1733.95 730.521 Q1736.29 728.189 1736.58 726.053 Q1736.89 723.904 1735.13 722.149 Q1733.51 720.528 1731.46 720.762 Q1729.41 720.97 1727.39 722.996 L1725.25 725.132 L1723.21 723.094 L1725.45 720.86 Q1727.28 719.031 1727.52 717.336 Q1727.75 715.63 1726.38 714.255 Q1724.97 712.843 1723.21 713.101 Q1721.46 713.334 1719.59 715.2 Q1718.57 716.219 1717.63 717.607 Q1716.68 718.994 1715.75 720.86 L1713.54 718.65 Q1714.56 716.845 1715.59 715.421 Q1716.63 713.985 1717.73 712.893 Q1720.55 710.069 1723.48 709.713 Q1726.4 709.345 1728.59 711.53 Q1730.11 713.052 1730.3 714.979 Q1730.47 716.895 1729.26 718.908 Z" fill="#000000" fill-rule="nonzero" fill-opacity="1" /><path clip-path="url(#clip230)" d="M1747.68 716.084 L1756.33 707.43 L1758.42 709.517 L1746.78 721.154 L1744.7 719.067 Q1744.65 716.195 1744.62 711.309 Q1744.6 706.398 1744.51 705.06 Q1744.36 702.532 1743.91 701.144 Q1743.46 699.733 1742.56 698.836 Q1741.1 697.376 1739.15 697.486 Q1737.21 697.584 1735.56 699.229 Q1734.4 700.395 1733.5 702.102 Q1732.62 703.796 1731.97 706.092 L1729.46 703.587 Q1730.36 701.488 1731.35 699.88 Q1732.35 698.272 1733.43 697.191 Q1736.27 694.343 1739.39 694.073 Q1742.51 693.803 1744.89 696.185 Q1746.02 697.314 1746.61 698.763 Q1747.2 700.187 1747.46 702.679 Q1747.51 703.342 1747.57 706.693 Q1747.62 710.032 1747.68 716.084 Z" fill="#000000" fill-rule="nonzero" fill-opacity="1" /><path clip-path="url(#clip230)" d="M1878.13 738.795 Q1876.22 740.71 1877.14 743.571 Q1878.06 746.406 1881.84 750.187 Q1885.61 753.956 1888.46 754.889 Q1891.3 755.797 1893.22 753.882 Q1895.15 751.955 1894.23 749.119 Q1893.31 746.259 1889.54 742.49 Q1885.76 738.709 1882.91 737.801 Q1880.06 736.868 1878.13 738.795 M1876.17 736.831 Q1879.25 733.75 1883.31 734.572 Q1887.38 735.37 1892.02 740.01 Q1896.64 744.639 1897.45 748.714 Q1898.26 752.765 1895.18 755.847 Q1892.1 758.928 1888.04 758.13 Q1883.98 757.307 1879.35 752.679 Q1874.71 748.039 1873.9 743.988 Q1873.09 739.912 1876.17 736.831 Z" fill="#000000" fill-rule="nonzero" fill-opacity="1" /><path clip-path="url(#clip230)" d="M1902.4 741.68 L1904.99 739.09 L1908.11 742.208 L1905.52 744.798 L1902.4 741.68 Z" fill="#000000" fill-rule="nonzero" fill-opacity="1" /><path clip-path="url(#clip230)" d="M1911.14 719.411 Q1913.3 718.012 1915.5 718.22 Q1917.71 718.417 1919.48 720.185 Q1922.19 722.898 1921.81 726.249 Q1921.43 729.6 1917.99 733.038 Q1916.84 734.192 1915.38 735.186 Q1913.94 736.18 1912.19 737.027 L1909.79 734.634 Q1911.42 734.204 1912.96 733.283 Q1914.49 732.362 1915.83 731.024 Q1918.16 728.692 1918.46 726.556 Q1918.77 724.408 1917.01 722.652 Q1915.39 721.032 1913.34 721.265 Q1911.29 721.474 1909.26 723.499 L1907.13 725.635 L1905.09 723.597 L1907.32 721.363 Q1909.15 719.534 1909.4 717.84 Q1909.63 716.133 1908.26 714.759 Q1906.85 713.347 1905.09 713.605 Q1903.33 713.838 1901.47 715.704 Q1900.45 716.723 1899.5 718.11 Q1898.56 719.497 1897.63 721.363 L1895.42 719.153 Q1896.44 717.349 1897.47 715.925 Q1898.51 714.488 1899.6 713.396 Q1902.43 710.572 1905.36 710.216 Q1908.28 709.848 1910.47 712.033 Q1911.99 713.555 1912.17 715.483 Q1912.35 717.398 1911.14 719.411 Z" fill="#000000" fill-rule="nonzero" fill-opacity="1" /><path clip-path="url(#clip230)" d="M1927.14 703.415 Q1929.3 702.016 1931.5 702.225 Q1933.71 702.421 1935.47 704.189 Q1938.19 706.902 1937.81 710.253 Q1937.43 713.605 1933.99 717.042 Q1932.83 718.196 1931.37 719.19 Q1929.94 720.185 1928.18 721.032 L1925.79 718.638 Q1927.42 718.208 1928.96 717.287 Q1930.49 716.367 1931.83 715.029 Q1934.16 712.696 1934.45 710.56 Q1934.76 708.412 1933.01 706.656 Q1931.39 705.036 1929.34 705.269 Q1927.29 705.478 1925.26 707.503 L1923.12 709.639 L1921.09 707.602 L1923.32 705.367 Q1925.15 703.538 1925.4 701.844 Q1925.63 700.138 1924.25 698.763 Q1922.84 697.351 1921.09 697.609 Q1919.33 697.842 1917.46 699.708 Q1916.45 700.727 1915.5 702.114 Q1914.56 703.501 1913.62 705.367 L1911.41 703.158 Q1912.43 701.353 1913.46 699.929 Q1914.51 698.493 1915.6 697.4 Q1918.42 694.577 1921.36 694.221 Q1924.28 693.852 1926.46 696.037 Q1927.99 697.56 1928.17 699.487 Q1928.34 701.402 1927.14 703.415 Z" fill="#000000" fill-rule="nonzero" fill-opacity="1" /><path clip-path="url(#clip230)" d="M2059.91 739.397 Q2058 741.312 2058.92 744.172 Q2059.84 747.008 2063.62 750.789 Q2067.39 754.558 2070.24 755.491 Q2073.08 756.399 2075 754.484 Q2076.93 752.557 2076.01 749.721 Q2075.09 746.86 2071.32 743.092 Q2067.54 739.311 2064.69 738.402 Q2061.84 737.469 2059.91 739.397 M2057.95 737.432 Q2061.03 734.351 2065.09 735.174 Q2069.16 735.972 2073.8 740.612 Q2078.42 745.24 2079.23 749.316 Q2080.04 753.367 2076.96 756.448 Q2073.88 759.529 2069.82 758.731 Q2065.76 757.909 2061.13 753.281 Q2056.49 748.641 2055.68 744.589 Q2054.87 740.514 2057.95 737.432 Z" fill="#000000" fill-rule="nonzero" fill-opacity="1" /><path clip-path="url(#clip230)" d="M2084.18 742.282 L2086.77 739.691 L2089.89 742.809 L2087.3 745.4 L2084.18 742.282 Z" fill="#000000" fill-rule="nonzero" fill-opacity="1" /><path clip-path="url(#clip230)" d="M2092.92 720.013 Q2095.08 718.613 2097.28 718.822 Q2099.49 719.018 2101.26 720.786 Q2103.97 723.499 2103.59 726.85 Q2103.21 730.202 2099.77 733.639 Q2098.62 734.793 2097.16 735.787 Q2095.72 736.782 2093.97 737.629 L2091.57 735.235 Q2093.2 734.805 2094.74 733.885 Q2096.27 732.964 2097.61 731.626 Q2099.94 729.293 2100.24 727.157 Q2100.55 725.009 2098.79 723.254 Q2097.17 721.633 2095.12 721.866 Q2093.07 722.075 2091.04 724.101 L2088.91 726.237 L2086.87 724.199 L2089.1 721.965 Q2090.93 720.135 2091.18 718.441 Q2091.41 716.735 2090.04 715.36 Q2088.63 713.948 2086.87 714.206 Q2085.11 714.439 2083.25 716.305 Q2082.23 717.324 2081.28 718.711 Q2080.34 720.099 2079.41 721.965 L2077.2 719.755 Q2078.22 717.95 2079.25 716.526 Q2080.29 715.09 2081.38 713.997 Q2084.21 711.174 2087.14 710.818 Q2090.06 710.45 2092.25 712.635 Q2093.77 714.157 2093.95 716.084 Q2094.13 717.999 2092.92 720.013 Z" fill="#000000" fill-rule="nonzero" fill-opacity="1" /><path clip-path="url(#clip230)" d="M2101.93 698.431 L2105.46 714.476 L2111.72 708.215 L2101.93 698.431 M2099.12 696.921 L2102.24 693.803 L2114.18 705.748 L2116.8 703.133 L2118.86 705.195 L2116.25 707.81 L2120.57 712.131 L2118.1 714.599 L2113.78 710.278 L2105.51 718.552 L2103.11 716.158 L2099.12 696.921 Z" fill="#000000" fill-rule="nonzero" fill-opacity="1" /><path clip-path="url(#clip230)" d="M2243.08 738.611 Q2241.16 740.526 2242.08 743.386 Q2243.01 746.222 2246.79 750.003 Q2250.56 753.772 2253.4 754.705 Q2256.25 755.613 2258.17 753.698 Q2260.09 751.771 2259.17 748.935 Q2258.25 746.075 2254.48 742.306 Q2250.7 738.525 2247.85 737.617 Q2245.01 736.684 2243.08 738.611 M2241.11 736.647 Q2244.2 733.565 2248.26 734.388 Q2252.32 735.186 2256.96 739.826 Q2261.59 744.454 2262.4 748.53 Q2263.21 752.581 2260.13 755.662 Q2257.05 758.744 2252.99 757.946 Q2248.92 757.123 2244.29 752.495 Q2239.65 747.855 2238.84 743.804 Q2238.03 739.728 2241.11 736.647 Z" fill="#000000" fill-rule="nonzero" fill-opacity="1" /><path clip-path="url(#clip230)" d="M2267.35 741.496 L2269.94 738.906 L2273.06 742.024 L2270.47 744.614 L2267.35 741.496 Z" fill="#000000" fill-rule="nonzero" fill-opacity="1" /><path clip-path="url(#clip230)" d="M2276.09 719.227 Q2278.25 717.828 2280.45 718.036 Q2282.66 718.233 2284.42 720 Q2287.14 722.713 2286.76 726.065 Q2286.38 729.416 2282.94 732.853 Q2281.79 734.007 2280.32 735.002 Q2278.89 735.996 2277.13 736.843 L2274.74 734.449 Q2276.37 734.02 2277.91 733.099 Q2279.44 732.178 2280.78 730.84 Q2283.11 728.508 2283.41 726.372 Q2283.71 724.223 2281.96 722.468 Q2280.34 720.847 2278.29 721.081 Q2276.24 721.289 2274.21 723.315 L2272.08 725.451 L2270.04 723.413 L2272.27 721.179 Q2274.1 719.35 2274.35 717.656 Q2274.58 715.949 2273.2 714.574 Q2271.79 713.163 2270.04 713.42 Q2268.28 713.654 2266.42 715.52 Q2265.4 716.539 2264.45 717.926 Q2263.51 719.313 2262.57 721.179 L2260.36 718.969 Q2261.38 717.165 2262.41 715.741 Q2263.46 714.304 2264.55 713.212 Q2267.37 710.388 2270.31 710.032 Q2273.23 709.664 2275.41 711.849 Q2276.94 713.371 2277.12 715.299 Q2277.29 717.214 2276.09 719.227 Z" fill="#000000" fill-rule="nonzero" fill-opacity="1" /><path clip-path="url(#clip230)" d="M2276.15 702.274 L2285.89 692.539 L2287.97 694.626 L2280.51 702.09 L2285 706.583 Q2285.36 705.858 2285.81 705.232 Q2286.25 704.594 2286.79 704.054 Q2289.86 700.985 2293.34 700.874 Q2296.81 700.764 2299.68 703.636 Q2302.64 706.595 2302.45 710.081 Q2302.24 713.555 2298.89 716.907 Q2297.73 718.061 2296.33 719.067 Q2294.95 720.062 2293.28 720.946 L2290.78 718.454 Q2292.49 717.95 2293.96 717.066 Q2295.44 716.183 2296.75 714.869 Q2298.87 712.745 2299 710.388 Q2299.12 708.031 2297.2 706.116 Q2295.29 704.201 2292.93 704.324 Q2290.58 704.447 2288.45 706.57 Q2287.46 707.565 2286.68 708.78 Q2285.92 709.983 2285.36 711.481 L2276.15 702.274 Z" fill="#000000" fill-rule="nonzero" fill-opacity="1" /><polyline clip-path="url(#clip230)" style="stroke:#000000; stroke-linecap:round; stroke-linejoin:round; stroke-width:4; stroke-opacity:1; fill:none" points="1328.14,667.406 1328.14,97.5521 "/>
<polyline clip-path="url(#clip230)" style="stroke:#000000; stroke-linecap:round; stroke-linejoin:round; stroke-width:4; stroke-opacity:1; fill:none" points="1328.14,667.406 1347.04,667.406 "/>
<polyline clip-path="url(#clip230)" style="stroke:#000000; stroke-linecap:round; stroke-linejoin:round; stroke-width:4; stroke-opacity:1; fill:none" points="1328.14,524.943 1347.04,524.943 "/>
<polyline clip-path="url(#clip230)" style="stroke:#000000; stroke-linecap:round; stroke-linejoin:round; stroke-width:4; stroke-opacity:1; fill:none" points="1328.14,382.479 1347.04,382.479 "/>
<polyline clip-path="url(#clip230)" style="stroke:#000000; stroke-linecap:round; stroke-linejoin:round; stroke-width:4; stroke-opacity:1; fill:none" points="1328.14,240.016 1347.04,240.016 "/>
<polyline clip-path="url(#clip230)" style="stroke:#000000; stroke-linecap:round; stroke-linejoin:round; stroke-width:4; stroke-opacity:1; fill:none" points="1328.14,97.5521 1347.04,97.5521 "/>
<path clip-path="url(#clip230)" d="M1283.18 656.755 Q1280.47 656.755 1279.1 659.429 Q1277.75 662.085 1277.75 667.432 Q1277.75 672.762 1279.1 675.436 Q1280.47 678.092 1283.18 678.092 Q1285.91 678.092 1287.26 675.436 Q1288.63 672.762 1288.63 667.432 Q1288.63 662.085 1287.26 659.429 Q1285.91 656.755 1283.18 656.755 M1283.18 653.978 Q1287.54 653.978 1289.83 657.432 Q1292.14 660.87 1292.14 667.432 Q1292.14 673.978 1289.83 677.432 Q1287.54 680.87 1283.18 680.87 Q1278.82 680.87 1276.51 677.432 Q1274.22 673.978 1274.22 667.432 Q1274.22 660.87 1276.51 657.432 Q1278.82 653.978 1283.18 653.978 Z" fill="#000000" fill-rule="nonzero" fill-opacity="1" /><path clip-path="url(#clip230)" d="M1256.08 534.951 L1268.32 534.951 L1268.32 537.903 L1251.86 537.903 L1251.86 534.951 Q1253.86 532.885 1257.29 529.413 Q1260.75 525.924 1261.63 524.917 Q1263.32 523.024 1263.98 521.722 Q1264.66 520.403 1264.66 519.136 Q1264.66 517.07 1263.2 515.768 Q1261.76 514.465 1259.43 514.465 Q1257.78 514.465 1255.94 515.038 Q1254.12 515.611 1252.03 516.774 L1252.03 513.233 Q1254.15 512.382 1255.99 511.948 Q1257.83 511.514 1259.36 511.514 Q1263.39 511.514 1265.78 513.528 Q1268.18 515.542 1268.18 518.91 Q1268.18 520.507 1267.57 521.948 Q1266.98 523.372 1265.4 525.316 Q1264.97 525.82 1262.64 528.233 Q1260.31 530.629 1256.08 534.951 Z" fill="#000000" fill-rule="nonzero" fill-opacity="1" /><path clip-path="url(#clip230)" d="M1283.18 514.292 Q1280.47 514.292 1279.1 516.965 Q1277.75 519.622 1277.75 524.969 Q1277.75 530.299 1279.1 532.972 Q1280.47 535.629 1283.18 535.629 Q1285.91 535.629 1287.26 532.972 Q1288.63 530.299 1288.63 524.969 Q1288.63 519.622 1287.26 516.965 Q1285.91 514.292 1283.18 514.292 M1283.18 511.514 Q1287.54 511.514 1289.83 514.969 Q1292.14 518.406 1292.14 524.969 Q1292.14 531.514 1289.83 534.969 Q1287.54 538.406 1283.18 538.406 Q1278.82 538.406 1276.51 534.969 Q1274.22 531.514 1274.22 524.969 Q1274.22 518.406 1276.51 514.969 Q1278.82 511.514 1283.18 511.514 Z" fill="#000000" fill-rule="nonzero" fill-opacity="1" /><path clip-path="url(#clip230)" d="M1262.69 372.575 L1253.84 386.412 L1262.69 386.412 L1262.69 372.575 M1261.77 369.519 L1266.18 369.519 L1266.18 386.412 L1269.88 386.412 L1269.88 389.328 L1266.18 389.328 L1266.18 395.439 L1262.69 395.439 L1262.69 389.328 L1250.99 389.328 L1250.99 385.943 L1261.77 369.519 Z" fill="#000000" fill-rule="nonzero" fill-opacity="1" /><path clip-path="url(#clip230)" d="M1283.18 371.828 Q1280.47 371.828 1279.1 374.502 Q1277.75 377.158 1277.75 382.505 Q1277.75 387.835 1279.1 390.509 Q1280.47 393.165 1283.18 393.165 Q1285.91 393.165 1287.26 390.509 Q1288.63 387.835 1288.63 382.505 Q1288.63 377.158 1287.26 374.502 Q1285.91 371.828 1283.18 371.828 M1283.18 369.05 Q1287.54 369.05 1289.83 372.505 Q1292.14 375.943 1292.14 382.505 Q1292.14 389.05 1289.83 392.505 Q1287.54 395.943 1283.18 395.943 Q1278.82 395.943 1276.51 392.505 Q1274.22 389.05 1274.22 382.505 Q1274.22 375.943 1276.51 372.505 Q1278.82 369.05 1283.18 369.05 Z" fill="#000000" fill-rule="nonzero" fill-opacity="1" /><path clip-path="url(#clip230)" d="M1260.99 238.618 Q1258.63 238.618 1257.24 240.233 Q1255.87 241.847 1255.87 244.66 Q1255.87 247.455 1257.24 249.087 Q1258.63 250.701 1260.99 250.701 Q1263.35 250.701 1264.72 249.087 Q1266.11 247.455 1266.11 244.66 Q1266.11 241.847 1264.72 240.233 Q1263.35 238.618 1260.99 238.618 M1267.95 227.629 L1267.95 230.823 Q1266.63 230.198 1265.28 229.868 Q1263.94 229.538 1262.62 229.538 Q1259.15 229.538 1257.31 231.882 Q1255.49 234.226 1255.23 238.965 Q1256.25 237.455 1257.8 236.656 Q1259.34 235.84 1261.2 235.84 Q1265.11 235.84 1267.36 238.219 Q1269.64 240.58 1269.64 244.66 Q1269.64 248.653 1267.28 251.066 Q1264.92 253.479 1260.99 253.479 Q1256.5 253.479 1254.12 250.042 Q1251.74 246.587 1251.74 240.042 Q1251.74 233.896 1254.66 230.25 Q1257.57 226.587 1262.49 226.587 Q1263.8 226.587 1265.14 226.847 Q1266.5 227.108 1267.95 227.629 Z" fill="#000000" fill-rule="nonzero" fill-opacity="1" /><path clip-path="url(#clip230)" d="M1283.18 229.365 Q1280.47 229.365 1279.1 232.038 Q1277.75 234.695 1277.75 240.042 Q1277.75 245.372 1279.1 248.045 Q1280.47 250.701 1283.18 250.701 Q1285.91 250.701 1287.26 248.045 Q1288.63 245.372 1288.63 240.042 Q1288.63 234.695 1287.26 232.038 Q1285.91 229.365 1283.18 229.365 M1283.18 226.587 Q1287.54 226.587 1289.83 230.042 Q1292.14 233.479 1292.14 240.042 Q1292.14 246.587 1289.83 250.042 Q1287.54 253.479 1283.18 253.479 Q1278.82 253.479 1276.51 250.042 Q1274.22 246.587 1274.22 240.042 Q1274.22 233.479 1276.51 230.042 Q1278.82 226.587 1283.18 226.587 Z" fill="#000000" fill-rule="nonzero" fill-opacity="1" /><path clip-path="url(#clip230)" d="M1260.56 98.2032 Q1258.06 98.2032 1256.62 99.54 Q1255.19 100.877 1255.19 103.22 Q1255.19 105.564 1256.62 106.901 Q1258.06 108.238 1260.56 108.238 Q1263.06 108.238 1264.5 106.901 Q1265.94 105.547 1265.94 103.22 Q1265.94 100.877 1264.5 99.54 Q1263.08 98.2032 1260.56 98.2032 M1257.05 96.7101 Q1254.79 96.1546 1253.53 94.6094 Q1252.28 93.0643 1252.28 90.8421 Q1252.28 87.7345 1254.48 85.9289 Q1256.7 84.1234 1260.56 84.1234 Q1264.43 84.1234 1266.63 85.9289 Q1268.84 87.7345 1268.84 90.8421 Q1268.84 93.0643 1267.57 94.6094 Q1266.32 96.1546 1264.08 96.7101 Q1266.62 97.3004 1268.02 99.0191 Q1269.45 100.738 1269.45 103.22 Q1269.45 106.988 1267.14 109.002 Q1264.85 111.016 1260.56 111.016 Q1256.27 111.016 1253.96 109.002 Q1251.67 106.988 1251.67 103.22 Q1251.67 100.738 1253.09 99.0191 Q1254.52 97.3004 1257.05 96.7101 M1255.77 91.172 Q1255.77 93.1858 1257.02 94.3143 Q1258.28 95.4428 1260.56 95.4428 Q1262.81 95.4428 1264.08 94.3143 Q1265.37 93.1858 1265.37 91.172 Q1265.37 89.1581 1264.08 88.0296 Q1262.81 86.9011 1260.56 86.9011 Q1258.28 86.9011 1257.02 88.0296 Q1255.77 89.1581 1255.77 91.172 Z" fill="#000000" fill-rule="nonzero" fill-opacity="1" /><path clip-path="url(#clip230)" d="M1283.18 86.9011 Q1280.47 86.9011 1279.1 89.5747 Q1277.75 92.231 1277.75 97.5782 Q1277.75 102.908 1279.1 105.582 Q1280.47 108.238 1283.18 108.238 Q1285.91 108.238 1287.26 105.582 Q1288.63 102.908 1288.63 97.5782 Q1288.63 92.231 1287.26 89.5747 Q1285.91 86.9011 1283.18 86.9011 M1283.18 84.1234 Q1287.54 84.1234 1289.83 87.5782 Q1292.14 91.0157 1292.14 97.5782 Q1292.14 104.123 1289.83 107.578 Q1287.54 111.016 1283.18 111.016 Q1278.82 111.016 1276.51 107.578 Q1274.22 104.123 1274.22 97.5782 Q1274.22 91.0157 1276.51 87.5782 Q1278.82 84.1234 1283.18 84.1234 Z" fill="#000000" fill-rule="nonzero" fill-opacity="1" /><path clip-path="url(#clip230)" d="M1340.04 18.9258 Q1336.52 18.9258 1334.62 21.4721 Q1332.63 24.1341 1332.63 28.5323 Q1332.63 33.185 1334.6 35.8702 Q1336.59 38.5322 1340.04 38.5322 Q1343.44 38.5322 1345.43 35.847 Q1347.42 33.1619 1347.42 28.5323 Q1347.42 24.2962 1345.43 21.4721 Q1343.6 18.9258 1340.04 18.9258 M1340.04 15.5462 L1354.18 15.5462 L1354.18 19.8054 L1349.41 19.8054 Q1351.93 23.4165 1351.93 28.5323 Q1351.93 34.898 1348.76 38.5091 Q1345.59 42.1433 1340.04 42.1433 Q1334.46 42.1433 1331.31 38.5091 Q1328.14 34.898 1328.14 28.5323 Q1328.14 22.1203 1331.31 18.5323 Q1333.92 15.5462 1340.04 15.5462 Z" fill="#000000" fill-rule="nonzero" fill-opacity="1" /><path clip-path="url(#clip230)" d="M1378.35 19.6666 Q1377.49 19.3656 1376.63 19.1342 Q1374.34 18.5323 1371.89 18.5323 Q1367.65 18.5323 1365.29 20.824 Q1363.09 22.9536 1362.67 26.8656 L1378.35 26.8656 L1378.35 30.1989 L1362.67 30.1989 Q1363.09 34.1109 1365.29 36.2405 Q1367.65 38.5322 1371.89 38.5322 Q1374.85 38.5322 1376.63 37.9304 L1378.35 37.3517 L1378.35 41.2174 L1376.52 41.634 Q1374.11 42.1433 1371.63 42.1433 Q1365.43 42.1433 1361.82 38.5322 Q1358.18 34.9211 1358.18 28.5323 Q1358.18 22.1434 1361.82 18.5323 Q1365.43 14.9212 1371.63 14.9212 Q1373.97 14.9212 1376.52 15.4305 Q1377.44 15.6157 1378.35 15.8934 L1378.35 19.6666 Z" fill="#000000" fill-rule="nonzero" fill-opacity="1" /><path clip-path="url(#clip233)" d="M1384.49 524.943 L1384.49 667.406 L1566.87 667.406 L1566.87 524.943 L1384.49 524.943 L1384.49 524.943  Z" fill="#009af9" fill-rule="evenodd" fill-opacity="1"/>
<polyline clip-path="url(#clip233)" style="stroke:#000000; stroke-linecap:round; stroke-linejoin:round; stroke-width:4; stroke-opacity:1; fill:none" points="1384.49,524.943 1384.49,667.406 1566.87,667.406 1566.87,524.943 1384.49,524.943 "/>
<path clip-path="url(#clip233)" d="M1566.87 97.5521 L1566.87 667.406 L1749.26 667.406 L1749.26 97.5521 L1566.87 97.5521 L1566.87 97.5521  Z" fill="#009af9" fill-rule="evenodd" fill-opacity="1"/>
<polyline clip-path="url(#clip233)" style="stroke:#000000; stroke-linecap:round; stroke-linejoin:round; stroke-width:4; stroke-opacity:1; fill:none" points="1566.87,97.5521 1566.87,667.406 1749.26,667.406 1749.26,97.5521 1566.87,97.5521 "/>
<path clip-path="url(#clip233)" d="M1749.26 268.508 L1749.26 667.406 L1931.64 667.406 L1931.64 268.508 L1749.26 268.508 L1749.26 268.508  Z" fill="#009af9" fill-rule="evenodd" fill-opacity="1"/>
<polyline clip-path="url(#clip233)" style="stroke:#000000; stroke-linecap:round; stroke-linejoin:round; stroke-width:4; stroke-opacity:1; fill:none" points="1749.26,268.508 1749.26,667.406 1931.64,667.406 1931.64,268.508 1749.26,268.508 "/>
<path clip-path="url(#clip233)" d="M1931.64 311.247 L1931.64 667.406 L2114.02 667.406 L2114.02 311.247 L1931.64 311.247 L1931.64 311.247  Z" fill="#009af9" fill-rule="evenodd" fill-opacity="1"/>
<polyline clip-path="url(#clip233)" style="stroke:#000000; stroke-linecap:round; stroke-linejoin:round; stroke-width:4; stroke-opacity:1; fill:none" points="1931.64,311.247 1931.64,667.406 2114.02,667.406 2114.02,311.247 1931.64,311.247 "/>
<path clip-path="url(#clip233)" d="M2114.02 560.559 L2114.02 667.406 L2296.4 667.406 L2296.4 560.559 L2114.02 560.559 L2114.02 560.559  Z" fill="#009af9" fill-rule="evenodd" fill-opacity="1"/>
<polyline clip-path="url(#clip233)" style="stroke:#000000; stroke-linecap:round; stroke-linejoin:round; stroke-width:4; stroke-opacity:1; fill:none" points="2114.02,560.559 2114.02,667.406 2296.4,667.406 2296.4,560.559 2114.02,560.559 "/>
<circle clip-path="url(#clip233)" style="fill:#009af9; stroke:none; fill-opacity:0" cx="1475.68" cy="524.943" r="2"/>
<circle clip-path="url(#clip233)" style="fill:#009af9; stroke:none; fill-opacity:0" cx="1658.07" cy="97.5521" r="2"/>
<circle clip-path="url(#clip233)" style="fill:#009af9; stroke:none; fill-opacity:0" cx="1840.45" cy="268.508" r="2"/>
<circle clip-path="url(#clip233)" style="fill:#009af9; stroke:none; fill-opacity:0" cx="2022.83" cy="311.247" r="2"/>
<circle clip-path="url(#clip233)" style="fill:#009af9; stroke:none; fill-opacity:0" cx="2205.21" cy="560.559" r="2"/>
<polyline clip-path="url(#clip233)" style="stroke:#ff0000; stroke-linecap:round; stroke-linejoin:round; stroke-width:8; stroke-opacity:1; fill:none" stroke-dasharray="32, 20" points="1792.01,1237.26 1792.01,-472.302 "/>
<polyline clip-path="url(#clip233)" style="stroke:#ff0000; stroke-linecap:round; stroke-linejoin:round; stroke-width:6; stroke-opacity:1; fill:none" stroke-dasharray="24, 12, 3, 12" points="1522.33,1237.26 1522.33,-472.302 "/>
<polyline clip-path="url(#clip233)" style="stroke:#ff0000; stroke-linecap:round; stroke-linejoin:round; stroke-width:6; stroke-opacity:1; fill:none" stroke-dasharray="24, 12, 3, 12" points="2226.85,1237.26 2226.85,-472.302 "/>
<path clip-path="url(#clip230)" d="M128.138 1467.41 L1152.76 1467.41 L1152.76 897.552 L128.138 897.552  Z" fill="#ffffff" fill-rule="evenodd" fill-opacity="1"/>
<defs>
  <clipPath id="clip234">
    <rect x="128" y="897" width="1026" height="571"/>
  </clipPath>
</defs>
<polyline clip-path="url(#clip234)" style="stroke:#000000; stroke-linecap:round; stroke-linejoin:round; stroke-width:2; stroke-opacity:0.1; fill:none" points="184.494,1467.41 184.494,897.552 "/>
<polyline clip-path="url(#clip234)" style="stroke:#000000; stroke-linecap:round; stroke-linejoin:round; stroke-width:2; stroke-opacity:0.1; fill:none" points="445.038,1467.41 445.038,897.552 "/>
<polyline clip-path="url(#clip234)" style="stroke:#000000; stroke-linecap:round; stroke-linejoin:round; stroke-width:2; stroke-opacity:0.1; fill:none" points="705.583,1467.41 705.583,897.552 "/>
<polyline clip-path="url(#clip234)" style="stroke:#000000; stroke-linecap:round; stroke-linejoin:round; stroke-width:2; stroke-opacity:0.1; fill:none" points="966.128,1467.41 966.128,897.552 "/>
<polyline clip-path="url(#clip234)" style="stroke:#000000; stroke-linecap:round; stroke-linejoin:round; stroke-width:2; stroke-opacity:0.1; fill:none" points="128.138,1467.41 1152.76,1467.41 "/>
<polyline clip-path="url(#clip234)" style="stroke:#000000; stroke-linecap:round; stroke-linejoin:round; stroke-width:2; stroke-opacity:0.1; fill:none" points="128.138,1311.28 1152.76,1311.28 "/>
<polyline clip-path="url(#clip234)" style="stroke:#000000; stroke-linecap:round; stroke-linejoin:round; stroke-width:2; stroke-opacity:0.1; fill:none" points="128.138,1155.16 1152.76,1155.16 "/>
<polyline clip-path="url(#clip234)" style="stroke:#000000; stroke-linecap:round; stroke-linejoin:round; stroke-width:2; stroke-opacity:0.1; fill:none" points="128.138,999.033 1152.76,999.033 "/>
<polyline clip-path="url(#clip230)" style="stroke:#000000; stroke-linecap:round; stroke-linejoin:round; stroke-width:4; stroke-opacity:1; fill:none" points="128.138,1467.41 1152.76,1467.41 "/>
<polyline clip-path="url(#clip230)" style="stroke:#000000; stroke-linecap:round; stroke-linejoin:round; stroke-width:4; stroke-opacity:1; fill:none" points="184.494,1467.41 184.494,1448.51 "/>
<polyline clip-path="url(#clip230)" style="stroke:#000000; stroke-linecap:round; stroke-linejoin:round; stroke-width:4; stroke-opacity:1; fill:none" points="445.038,1467.41 445.038,1448.51 "/>
<polyline clip-path="url(#clip230)" style="stroke:#000000; stroke-linecap:round; stroke-linejoin:round; stroke-width:4; stroke-opacity:1; fill:none" points="705.583,1467.41 705.583,1448.51 "/>
<polyline clip-path="url(#clip230)" style="stroke:#000000; stroke-linecap:round; stroke-linejoin:round; stroke-width:4; stroke-opacity:1; fill:none" points="966.128,1467.41 966.128,1448.51 "/>
<path clip-path="url(#clip230)" d="M130.988 1538.8 Q129.073 1540.71 129.994 1543.57 Q130.915 1546.41 134.696 1550.19 Q138.464 1553.96 141.312 1554.89 Q144.16 1555.8 146.076 1553.88 Q148.003 1551.96 147.082 1549.12 Q146.161 1546.26 142.393 1542.49 Q138.612 1538.71 135.764 1537.8 Q132.916 1536.87 130.988 1538.8 M129.024 1536.83 Q132.105 1533.75 136.169 1534.57 Q140.232 1535.37 144.872 1540.01 Q149.501 1544.64 150.311 1548.71 Q151.121 1552.77 148.04 1555.85 Q144.958 1558.93 140.895 1558.13 Q136.832 1557.31 132.204 1552.68 Q127.563 1548.04 126.753 1543.99 Q125.943 1539.91 129.024 1536.83 Z" fill="#000000" fill-rule="nonzero" fill-opacity="1" /><path clip-path="url(#clip230)" d="M155.258 1541.68 L157.848 1539.09 L160.966 1542.21 L158.376 1544.8 L155.258 1541.68 Z" fill="#000000" fill-rule="nonzero" fill-opacity="1" /><path clip-path="url(#clip230)" d="M148.064 1518.45 L157.799 1508.72 L159.886 1510.81 L152.422 1518.27 L156.915 1522.76 Q157.271 1522.04 157.726 1521.41 Q158.167 1520.77 158.708 1520.23 Q161.777 1517.16 165.251 1517.05 Q168.725 1516.94 171.598 1519.82 Q174.556 1522.77 174.36 1526.26 Q174.151 1529.74 170.8 1533.09 Q169.646 1534.24 168.246 1535.25 Q166.859 1536.24 165.189 1537.13 L162.697 1534.63 Q164.404 1534.13 165.877 1533.25 Q167.35 1532.36 168.664 1531.05 Q170.787 1528.93 170.91 1526.57 Q171.033 1524.21 169.118 1522.3 Q167.203 1520.38 164.846 1520.5 Q162.489 1520.63 160.365 1522.75 Q159.371 1523.74 158.597 1524.96 Q157.836 1526.16 157.271 1527.66 L148.064 1518.45 Z" fill="#000000" fill-rule="nonzero" fill-opacity="1" /><path clip-path="url(#clip230)" d="M179.994 1503.42 Q182.155 1502.02 184.352 1502.22 Q186.562 1502.42 188.33 1504.19 Q191.043 1506.9 190.662 1510.25 Q190.282 1513.6 186.844 1517.04 Q185.69 1518.2 184.23 1519.19 Q182.793 1520.18 181.038 1521.03 L178.644 1518.64 Q180.277 1518.21 181.811 1517.29 Q183.346 1516.37 184.684 1515.03 Q187.016 1512.7 187.311 1510.56 Q187.618 1508.41 185.862 1506.66 Q184.242 1505.04 182.192 1505.27 Q180.142 1505.48 178.116 1507.5 L175.98 1509.64 L173.942 1507.6 L176.177 1505.37 Q178.006 1503.54 178.251 1501.84 Q178.484 1500.14 177.109 1498.76 Q175.698 1497.35 173.942 1497.61 Q172.187 1497.84 170.321 1499.71 Q169.302 1500.73 168.357 1502.11 Q167.411 1503.5 166.478 1505.37 L164.269 1503.16 Q165.288 1501.35 166.319 1499.93 Q167.362 1498.49 168.455 1497.4 Q171.278 1494.58 174.212 1494.22 Q177.134 1493.85 179.319 1496.04 Q180.841 1497.56 181.026 1499.49 Q181.197 1501.4 179.994 1503.42 Z" fill="#000000" fill-rule="nonzero" fill-opacity="1" /><path clip-path="url(#clip230)" d="M390.931 1539.4 Q389.016 1541.31 389.937 1544.17 Q390.858 1547.01 394.639 1550.79 Q398.408 1554.56 401.256 1555.49 Q404.104 1556.4 406.019 1554.48 Q407.946 1552.56 407.025 1549.72 Q406.105 1546.86 402.336 1543.09 Q398.555 1539.31 395.707 1538.4 Q392.859 1537.47 390.931 1539.4 M388.967 1537.43 Q392.049 1534.35 396.112 1535.17 Q400.175 1535.97 404.816 1540.61 Q409.444 1545.24 410.254 1549.32 Q411.064 1553.37 407.983 1556.45 Q404.902 1559.53 400.838 1558.73 Q396.775 1557.91 392.147 1553.28 Q387.506 1548.64 386.696 1544.59 Q385.886 1540.51 388.967 1537.43 Z" fill="#000000" fill-rule="nonzero" fill-opacity="1" /><path clip-path="url(#clip230)" d="M415.201 1542.28 L417.791 1539.69 L420.91 1542.81 L418.319 1545.4 L415.201 1542.28 Z" fill="#000000" fill-rule="nonzero" fill-opacity="1" /><path clip-path="url(#clip230)" d="M408.007 1519.06 L417.742 1509.32 L419.829 1511.41 L412.365 1518.87 L416.859 1523.36 Q417.215 1522.64 417.669 1522.01 Q418.111 1521.38 418.651 1520.84 Q421.72 1517.77 425.194 1517.66 Q428.668 1517.55 431.541 1520.42 Q434.499 1523.38 434.303 1526.86 Q434.094 1530.34 430.743 1533.69 Q429.589 1534.84 428.189 1535.85 Q426.802 1536.84 425.133 1537.73 L422.641 1535.24 Q424.347 1534.73 425.82 1533.85 Q427.293 1532.96 428.607 1531.65 Q430.73 1529.53 430.853 1527.17 Q430.976 1524.81 429.061 1522.9 Q427.146 1520.98 424.789 1521.11 Q422.432 1521.23 420.308 1523.35 Q419.314 1524.35 418.54 1525.56 Q417.779 1526.76 417.215 1528.26 L408.007 1519.06 Z" fill="#000000" fill-rule="nonzero" fill-opacity="1" /><path clip-path="url(#clip230)" d="M432.952 1498.43 L436.476 1514.48 L442.737 1508.22 L432.952 1498.43 M430.141 1496.92 L433.259 1493.8 L445.204 1505.75 L447.819 1503.13 L449.881 1505.2 L447.266 1507.81 L451.588 1512.13 L449.12 1514.6 L444.799 1510.28 L436.525 1518.55 L434.131 1516.16 L430.141 1496.92 Z" fill="#000000" fill-rule="nonzero" fill-opacity="1" /><path clip-path="url(#clip230)" d="M652.262 1538.61 Q650.347 1540.53 651.267 1543.39 Q652.188 1546.22 655.969 1550 Q659.738 1553.77 662.586 1554.7 Q665.434 1555.61 667.349 1553.7 Q669.276 1551.77 668.356 1548.94 Q667.435 1546.07 663.666 1542.31 Q659.885 1538.53 657.037 1537.62 Q654.189 1536.68 652.262 1538.61 M650.298 1536.65 Q653.379 1533.57 657.442 1534.39 Q661.506 1535.19 666.146 1539.83 Q670.774 1544.45 671.584 1548.53 Q672.395 1552.58 669.313 1555.66 Q666.232 1558.74 662.169 1557.95 Q658.105 1557.12 653.477 1552.5 Q648.837 1547.85 648.027 1543.8 Q647.216 1539.73 650.298 1536.65 Z" fill="#000000" fill-rule="nonzero" fill-opacity="1" /><path clip-path="url(#clip230)" d="M676.532 1541.5 L679.122 1538.91 L682.24 1542.02 L679.65 1544.61 L676.532 1541.5 Z" fill="#000000" fill-rule="nonzero" fill-opacity="1" /><path clip-path="url(#clip230)" d="M669.338 1518.27 L679.073 1508.53 L681.16 1510.62 L673.696 1518.09 L678.189 1522.58 Q678.545 1521.85 678.999 1521.23 Q679.441 1520.59 679.981 1520.05 Q683.05 1516.98 686.524 1516.87 Q689.999 1516.76 692.871 1519.63 Q695.83 1522.59 695.633 1526.08 Q695.425 1529.55 692.073 1532.9 Q690.919 1534.06 689.52 1535.06 Q688.133 1536.06 686.463 1536.94 L683.971 1534.45 Q685.677 1533.95 687.15 1533.06 Q688.624 1532.18 689.937 1530.86 Q692.061 1528.74 692.184 1526.38 Q692.306 1524.03 690.391 1522.11 Q688.476 1520.2 686.119 1520.32 Q683.762 1520.44 681.638 1522.57 Q680.644 1523.56 679.871 1524.78 Q679.11 1525.98 678.545 1527.48 L669.338 1518.27 Z" fill="#000000" fill-rule="nonzero" fill-opacity="1" /><path clip-path="url(#clip230)" d="M685.334 1502.27 L695.069 1492.54 L697.155 1494.63 L689.692 1502.09 L694.185 1506.58 Q694.541 1505.86 694.995 1505.23 Q695.437 1504.59 695.977 1504.05 Q699.046 1500.98 702.52 1500.87 Q705.994 1500.76 708.867 1503.64 Q711.825 1506.59 711.629 1510.08 Q711.42 1513.56 708.069 1516.91 Q706.915 1518.06 705.515 1519.07 Q704.128 1520.06 702.459 1520.95 L699.967 1518.45 Q701.673 1517.95 703.146 1517.07 Q704.619 1516.18 705.933 1514.87 Q708.057 1512.75 708.179 1510.39 Q708.302 1508.03 706.387 1506.12 Q704.472 1504.2 702.115 1504.32 Q699.758 1504.45 697.634 1506.57 Q696.64 1507.56 695.866 1508.78 Q695.105 1509.98 694.541 1511.48 L685.334 1502.27 Z" fill="#000000" fill-rule="nonzero" fill-opacity="1" /><path clip-path="url(#clip230)" d="M912.193 1539.22 Q910.278 1541.14 911.198 1544 Q912.119 1546.84 915.9 1550.62 Q919.669 1554.39 922.517 1555.32 Q925.365 1556.23 927.28 1554.31 Q929.207 1552.38 928.287 1549.55 Q927.366 1546.69 923.597 1542.92 Q919.816 1539.14 916.968 1538.23 Q914.12 1537.3 912.193 1539.22 M910.229 1537.26 Q913.31 1534.18 917.373 1535 Q921.437 1535.8 926.077 1540.44 Q930.705 1545.07 931.515 1549.14 Q932.325 1553.19 929.244 1556.28 Q926.163 1559.36 922.1 1558.56 Q918.036 1557.74 913.408 1553.11 Q908.768 1548.47 907.957 1544.42 Q907.147 1540.34 910.229 1537.26 Z" fill="#000000" fill-rule="nonzero" fill-opacity="1" /><path clip-path="url(#clip230)" d="M936.463 1542.11 L939.053 1539.52 L942.171 1542.64 L939.581 1545.23 L936.463 1542.11 Z" fill="#000000" fill-rule="nonzero" fill-opacity="1" /><path clip-path="url(#clip230)" d="M929.269 1518.88 L939.004 1509.15 L941.091 1511.24 L933.627 1518.7 L938.12 1523.19 Q938.476 1522.47 938.93 1521.84 Q939.372 1521.2 939.912 1520.66 Q942.981 1517.59 946.455 1517.48 Q949.929 1517.37 952.802 1520.25 Q955.761 1523.2 955.564 1526.69 Q955.355 1530.17 952.004 1533.52 Q950.85 1534.67 949.451 1535.68 Q948.063 1536.67 946.394 1537.56 L943.902 1535.06 Q945.608 1534.56 947.081 1533.68 Q948.554 1532.79 949.868 1531.48 Q951.992 1529.35 952.115 1527 Q952.237 1524.64 950.322 1522.73 Q948.407 1520.81 946.05 1520.93 Q943.693 1521.06 941.569 1523.18 Q940.575 1524.17 939.802 1525.39 Q939.041 1526.59 938.476 1528.09 L929.269 1518.88 Z" fill="#000000" fill-rule="nonzero" fill-opacity="1" /><path clip-path="url(#clip230)" d="M959.026 1505.48 Q957.356 1507.15 957.516 1509.27 Q957.688 1511.38 959.677 1513.37 Q961.653 1515.35 963.777 1515.53 Q965.901 1515.69 967.57 1514.02 Q969.24 1512.35 969.068 1510.24 Q968.896 1508.1 966.92 1506.13 Q964.931 1504.14 962.807 1503.98 Q960.696 1503.81 959.026 1505.48 M956.178 1492.78 L958.437 1495.04 Q957.062 1495.53 955.871 1496.26 Q954.693 1496.97 953.76 1497.9 Q951.304 1500.36 951.66 1503.32 Q952.029 1506.26 955.196 1509.8 Q954.852 1508.01 955.38 1506.35 Q955.896 1504.68 957.209 1503.37 Q959.971 1500.6 963.249 1500.69 Q966.527 1500.75 969.412 1503.64 Q972.235 1506.46 972.272 1509.84 Q972.309 1513.21 969.534 1515.99 Q966.355 1519.17 962.242 1518.42 Q958.118 1517.66 953.489 1513.03 Q949.144 1508.68 948.628 1504.04 Q948.1 1499.39 951.574 1495.91 Q952.507 1494.98 953.637 1494.22 Q954.778 1493.45 956.178 1492.78 Z" fill="#000000" fill-rule="nonzero" fill-opacity="1" /><polyline clip-path="url(#clip230)" style="stroke:#000000; stroke-linecap:round; stroke-linejoin:round; stroke-width:4; stroke-opacity:1; fill:none" points="128.138,1467.41 128.138,897.552 "/>
<polyline clip-path="url(#clip230)" style="stroke:#000000; stroke-linecap:round; stroke-linejoin:round; stroke-width:4; stroke-opacity:1; fill:none" points="128.138,1467.41 147.035,1467.41 "/>
<polyline clip-path="url(#clip230)" style="stroke:#000000; stroke-linecap:round; stroke-linejoin:round; stroke-width:4; stroke-opacity:1; fill:none" points="128.138,1311.28 147.035,1311.28 "/>
<polyline clip-path="url(#clip230)" style="stroke:#000000; stroke-linecap:round; stroke-linejoin:round; stroke-width:4; stroke-opacity:1; fill:none" points="128.138,1155.16 147.035,1155.16 "/>
<polyline clip-path="url(#clip230)" style="stroke:#000000; stroke-linecap:round; stroke-linejoin:round; stroke-width:4; stroke-opacity:1; fill:none" points="128.138,999.033 147.035,999.033 "/>
<path clip-path="url(#clip230)" d="M83.1795 1456.76 Q80.4711 1456.76 79.0996 1459.43 Q77.7455 1462.09 77.7455 1467.43 Q77.7455 1472.76 79.0996 1475.44 Q80.4711 1478.09 83.1795 1478.09 Q85.9051 1478.09 87.2593 1475.44 Q88.6308 1472.76 88.6308 1467.43 Q88.6308 1462.09 87.2593 1459.43 Q85.9051 1456.76 83.1795 1456.76 M83.1795 1453.98 Q87.5371 1453.98 89.8287 1457.43 Q92.1377 1460.87 92.1377 1467.43 Q92.1377 1473.98 89.8287 1477.43 Q87.5371 1480.87 83.1795 1480.87 Q78.8218 1480.87 76.5128 1477.43 Q74.2212 1473.98 74.2212 1467.43 Q74.2212 1460.87 76.5128 1457.43 Q78.8218 1453.98 83.1795 1453.98 Z" fill="#000000" fill-rule="nonzero" fill-opacity="1" /><path clip-path="url(#clip230)" d="M56.0789 1321.29 L68.3184 1321.29 L68.3184 1324.24 L51.8602 1324.24 L51.8602 1321.29 Q53.8567 1319.22 57.2942 1315.75 Q60.749 1312.26 61.6344 1311.26 Q63.3184 1309.36 63.9782 1308.06 Q64.6552 1306.74 64.6552 1305.47 Q64.6552 1303.41 63.1969 1302.11 Q61.756 1300.8 59.4296 1300.8 Q57.7803 1300.8 55.94 1301.38 Q54.1171 1301.95 52.0338 1303.11 L52.0338 1299.57 Q54.1518 1298.72 55.9921 1298.29 Q57.8324 1297.85 59.3601 1297.85 Q63.3879 1297.85 65.7837 1299.87 Q68.1795 1301.88 68.1795 1305.25 Q68.1795 1306.85 67.5719 1308.29 Q66.9816 1309.71 65.4018 1311.66 Q64.9677 1312.16 62.6414 1314.57 Q60.315 1316.97 56.0789 1321.29 Z" fill="#000000" fill-rule="nonzero" fill-opacity="1" /><path clip-path="url(#clip230)" d="M83.1795 1300.63 Q80.4711 1300.63 79.0996 1303.3 Q77.7455 1305.96 77.7455 1311.31 Q77.7455 1316.64 79.0996 1319.31 Q80.4711 1321.97 83.1795 1321.97 Q85.9051 1321.97 87.2593 1319.31 Q88.6308 1316.64 88.6308 1311.31 Q88.6308 1305.96 87.2593 1303.3 Q85.9051 1300.63 83.1795 1300.63 M83.1795 1297.85 Q87.5371 1297.85 89.8287 1301.31 Q92.1377 1304.75 92.1377 1311.31 Q92.1377 1317.85 89.8287 1321.31 Q87.5371 1324.75 83.1795 1324.75 Q78.8218 1324.75 76.5128 1321.31 Q74.2212 1317.85 74.2212 1311.31 Q74.2212 1304.75 76.5128 1301.31 Q78.8218 1297.85 83.1795 1297.85 Z" fill="#000000" fill-rule="nonzero" fill-opacity="1" /><path clip-path="url(#clip230)" d="M62.6935 1145.25 L53.8393 1159.09 L62.6935 1159.09 L62.6935 1145.25 M61.7733 1142.2 L66.183 1142.2 L66.183 1159.09 L69.8809 1159.09 L69.8809 1162.01 L66.183 1162.01 L66.183 1168.12 L62.6935 1168.12 L62.6935 1162.01 L50.9921 1162.01 L50.9921 1158.62 L61.7733 1142.2 Z" fill="#000000" fill-rule="nonzero" fill-opacity="1" /><path clip-path="url(#clip230)" d="M83.1795 1144.51 Q80.4711 1144.51 79.0996 1147.18 Q77.7455 1149.84 77.7455 1155.18 Q77.7455 1160.51 79.0996 1163.19 Q80.4711 1165.84 83.1795 1165.84 Q85.9051 1165.84 87.2593 1163.19 Q88.6308 1160.51 88.6308 1155.18 Q88.6308 1149.84 87.2593 1147.18 Q85.9051 1144.51 83.1795 1144.51 M83.1795 1141.73 Q87.5371 1141.73 89.8287 1145.18 Q92.1377 1148.62 92.1377 1155.18 Q92.1377 1161.73 89.8287 1165.18 Q87.5371 1168.62 83.1795 1168.62 Q78.8218 1168.62 76.5128 1165.18 Q74.2212 1161.73 74.2212 1155.18 Q74.2212 1148.62 76.5128 1145.18 Q78.8218 1141.73 83.1795 1141.73 Z" fill="#000000" fill-rule="nonzero" fill-opacity="1" /><path clip-path="url(#clip230)" d="M60.9921 997.635 Q58.631 997.635 57.2421 999.25 Q55.8706 1000.86 55.8706 1003.68 Q55.8706 1006.47 57.2421 1008.1 Q58.631 1009.72 60.9921 1009.72 Q63.3532 1009.72 64.7247 1008.1 Q66.1136 1006.47 66.1136 1003.68 Q66.1136 1000.86 64.7247 999.25 Q63.3532 997.635 60.9921 997.635 M67.9538 986.646 L67.9538 989.84 Q66.6344 989.215 65.2802 988.886 Q63.9434 988.556 62.624 988.556 Q59.1518 988.556 57.3115 990.899 Q55.4886 993.243 55.2282 997.983 Q56.2525 996.472 57.7976 995.674 Q59.3428 994.858 61.2004 994.858 Q65.1066 994.858 67.3636 997.236 Q69.6379 999.597 69.6379 1003.68 Q69.6379 1007.67 67.2768 1010.08 Q64.9157 1012.5 60.9921 1012.5 Q56.4956 1012.5 54.1171 1009.06 Q51.7386 1005.6 51.7386 999.059 Q51.7386 992.913 54.6553 989.267 Q57.572 985.604 62.4851 985.604 Q63.8046 985.604 65.1414 985.865 Q66.4955 986.125 67.9538 986.646 Z" fill="#000000" fill-rule="nonzero" fill-opacity="1" /><path clip-path="url(#clip230)" d="M83.1795 988.382 Q80.4711 988.382 79.0996 991.056 Q77.7455 993.712 77.7455 999.059 Q77.7455 1004.39 79.0996 1007.06 Q80.4711 1009.72 83.1795 1009.72 Q85.9051 1009.72 87.2593 1007.06 Q88.6308 1004.39 88.6308 999.059 Q88.6308 993.712 87.2593 991.056 Q85.9051 988.382 83.1795 988.382 M83.1795 985.604 Q87.5371 985.604 89.8287 989.059 Q92.1377 992.497 92.1377 999.059 Q92.1377 1005.6 89.8287 1009.06 Q87.5371 1012.5 83.1795 1012.5 Q78.8218 1012.5 76.5128 1009.06 Q74.2212 1005.6 74.2212 999.059 Q74.2212 992.497 76.5128 989.059 Q78.8218 985.604 83.1795 985.604 Z" fill="#000000" fill-rule="nonzero" fill-opacity="1" /><path clip-path="url(#clip230)" d="M140.036 818.926 Q136.517 818.926 134.619 821.472 Q132.628 824.134 132.628 828.532 Q132.628 833.185 134.596 835.87 Q136.587 838.532 140.036 838.532 Q143.439 838.532 145.429 835.847 Q147.42 833.162 147.42 828.532 Q147.42 824.296 145.429 821.472 Q143.601 818.926 140.036 818.926 M140.036 815.546 L154.179 815.546 L154.179 819.805 L149.411 819.805 Q151.934 823.417 151.934 828.532 Q151.934 834.898 148.763 838.509 Q145.591 842.143 140.036 842.143 Q134.457 842.143 131.309 838.509 Q128.138 834.898 128.138 828.532 Q128.138 822.12 131.309 818.532 Q133.925 815.546 140.036 815.546 Z" fill="#000000" fill-rule="nonzero" fill-opacity="1" /><path clip-path="url(#clip230)" d="M165.198 841.472 L157.281 815.546 L161.864 815.546 L168.554 837.305 Q171.332 834.435 173.647 830.454 Q175.406 827.467 175.499 824.875 Q175.545 823.648 174.989 821.333 Q174.341 818.579 171.888 815.546 L176.193 815.546 L176.193 815.546 Q177.79 817.606 178.855 820.477 Q179.827 823.116 179.827 824.921 Q179.827 829.458 176.679 833.509 Q172.582 838.787 169.735 841.472 L165.198 841.472 Z" fill="#000000" fill-rule="nonzero" fill-opacity="1" /><path clip-path="url(#clip234)" d="M184.494 1365.93 L184.494 1467.41 L314.766 1467.41 L314.766 1365.93 L184.494 1365.93 L184.494 1365.93  Z" fill="#009af9" fill-rule="evenodd" fill-opacity="1"/>
<polyline clip-path="url(#clip234)" style="stroke:#000000; stroke-linecap:round; stroke-linejoin:round; stroke-width:4; stroke-opacity:1; fill:none" points="184.494,1365.93 184.494,1467.41 314.766,1467.41 314.766,1365.93 184.494,1365.93 "/>
<path clip-path="url(#clip234)" d="M314.766 1116.13 L314.766 1467.41 L445.038 1467.41 L445.038 1116.13 L314.766 1116.13 L314.766 1116.13  Z" fill="#009af9" fill-rule="evenodd" fill-opacity="1"/>
<polyline clip-path="url(#clip234)" style="stroke:#000000; stroke-linecap:round; stroke-linejoin:round; stroke-width:4; stroke-opacity:1; fill:none" points="314.766,1116.13 314.766,1467.41 445.038,1467.41 445.038,1116.13 314.766,1116.13 "/>
<path clip-path="url(#clip234)" d="M445.038 897.552 L445.038 1467.41 L575.311 1467.41 L575.311 897.552 L445.038 897.552 L445.038 897.552  Z" fill="#009af9" fill-rule="evenodd" fill-opacity="1"/>
<polyline clip-path="url(#clip234)" style="stroke:#000000; stroke-linecap:round; stroke-linejoin:round; stroke-width:4; stroke-opacity:1; fill:none" points="445.038,897.552 445.038,1467.41 575.311,1467.41 575.311,897.552 445.038,897.552 "/>
<path clip-path="url(#clip234)" d="M575.311 1139.55 L575.311 1467.41 L705.583 1467.41 L705.583 1139.55 L575.311 1139.55 L575.311 1139.55  Z" fill="#009af9" fill-rule="evenodd" fill-opacity="1"/>
<polyline clip-path="url(#clip234)" style="stroke:#000000; stroke-linecap:round; stroke-linejoin:round; stroke-width:4; stroke-opacity:1; fill:none" points="575.311,1139.55 575.311,1467.41 705.583,1467.41 705.583,1139.55 575.311,1139.55 "/>
<path clip-path="url(#clip234)" d="M705.583 1241.03 L705.583 1467.41 L835.855 1467.41 L835.855 1241.03 L705.583 1241.03 L705.583 1241.03  Z" fill="#009af9" fill-rule="evenodd" fill-opacity="1"/>
<polyline clip-path="url(#clip234)" style="stroke:#000000; stroke-linecap:round; stroke-linejoin:round; stroke-width:4; stroke-opacity:1; fill:none" points="705.583,1241.03 705.583,1467.41 835.855,1467.41 835.855,1241.03 705.583,1241.03 "/>
<path clip-path="url(#clip234)" d="M835.855 1397.15 L835.855 1467.41 L966.128 1467.41 L966.128 1397.15 L835.855 1397.15 L835.855 1397.15  Z" fill="#009af9" fill-rule="evenodd" fill-opacity="1"/>
<polyline clip-path="url(#clip234)" style="stroke:#000000; stroke-linecap:round; stroke-linejoin:round; stroke-width:4; stroke-opacity:1; fill:none" points="835.855,1397.15 835.855,1467.41 966.128,1467.41 966.128,1397.15 835.855,1397.15 "/>
<path clip-path="url(#clip234)" d="M966.128 1389.34 L966.128 1467.41 L1096.4 1467.41 L1096.4 1389.34 L966.128 1389.34 L966.128 1389.34  Z" fill="#009af9" fill-rule="evenodd" fill-opacity="1"/>
<polyline clip-path="url(#clip234)" style="stroke:#000000; stroke-linecap:round; stroke-linejoin:round; stroke-width:4; stroke-opacity:1; fill:none" points="966.128,1389.34 966.128,1467.41 1096.4,1467.41 1096.4,1389.34 966.128,1389.34 "/>
<circle clip-path="url(#clip234)" style="fill:#009af9; stroke:none; fill-opacity:0" cx="249.63" cy="1365.93" r="2"/>
<circle clip-path="url(#clip234)" style="fill:#009af9; stroke:none; fill-opacity:0" cx="379.902" cy="1116.13" r="2"/>
<circle clip-path="url(#clip234)" style="fill:#009af9; stroke:none; fill-opacity:0" cx="510.174" cy="897.552" r="2"/>
<circle clip-path="url(#clip234)" style="fill:#009af9; stroke:none; fill-opacity:0" cx="640.447" cy="1139.55" r="2"/>
<circle clip-path="url(#clip234)" style="fill:#009af9; stroke:none; fill-opacity:0" cx="770.719" cy="1241.03" r="2"/>
<circle clip-path="url(#clip234)" style="fill:#009af9; stroke:none; fill-opacity:0" cx="900.992" cy="1397.15" r="2"/>
<circle clip-path="url(#clip234)" style="fill:#009af9; stroke:none; fill-opacity:0" cx="1031.26" cy="1389.34" r="2"/>
<polyline clip-path="url(#clip234)" style="stroke:#ff0000; stroke-linecap:round; stroke-linejoin:round; stroke-width:8; stroke-opacity:1; fill:none" stroke-dasharray="32, 20" points="557.873,2037.26 557.873,327.698 "/>
<polyline clip-path="url(#clip234)" style="stroke:#ff0000; stroke-linecap:round; stroke-linejoin:round; stroke-width:6; stroke-opacity:1; fill:none" stroke-dasharray="24, 12, 3, 12" points="263.964,2037.26 263.964,327.698 "/>
<polyline clip-path="url(#clip234)" style="stroke:#ff0000; stroke-linecap:round; stroke-linejoin:round; stroke-width:6; stroke-opacity:1; fill:none" stroke-dasharray="24, 12, 3, 12" points="1003.57,2037.26 1003.57,327.698 "/>
</svg>
