<?xml version="1.0" encoding="utf-8"?>
<svg xmlns="http://www.w3.org/2000/svg" xmlns:xlink="http://www.w3.org/1999/xlink" width="600" height="400" viewBox="0 0 2400 1600">
<defs>
  <clipPath id="clip160">
    <rect x="0" y="0" width="2400" height="1600"/>
  </clipPath>
</defs>
<path clip-path="url(#clip160)" d="M0 1600 L2400 1600 L2400 0 L0 0  Z" fill="#ffffff" fill-rule="evenodd" fill-opacity="1"/>
<defs>
  <clipPath id="clip161">
    <rect x="480" y="0" width="1681" height="1600"/>
  </clipPath>
</defs>
<path clip-path="url(#clip160)" d="M128.138 662.16 L1152.76 662.16 L1152.76 97.5521 L128.138 97.5521  Z" fill="#ffffff" fill-rule="evenodd" fill-opacity="1"/>
<defs>
  <clipPath id="clip162">
    <rect x="128" y="97" width="1026" height="566"/>
  </clipPath>
</defs>
<polyline clip-path="url(#clip162)" style="stroke:#000000; stroke-linecap:round; stroke-linejoin:round; stroke-width:2; stroke-opacity:0.1; fill:none" points="314.766,662.16 314.766,97.5521 "/>
<polyline clip-path="url(#clip162)" style="stroke:#000000; stroke-linecap:round; stroke-linejoin:round; stroke-width:2; stroke-opacity:0.1; fill:none" points="575.311,662.16 575.311,97.5521 "/>
<polyline clip-path="url(#clip162)" style="stroke:#000000; stroke-linecap:round; stroke-linejoin:round; stroke-width:2; stroke-opacity:0.1; fill:none" points="835.855,662.16 835.855,97.5521 "/>
<polyline clip-path="url(#clip162)" style="stroke:#000000; stroke-linecap:round; stroke-linejoin:round; stroke-width:2; stroke-opacity:0.1; fill:none" points="1096.4,662.16 1096.4,97.5521 "/>
<polyline clip-path="url(#clip162)" style="stroke:#000000; stroke-linecap:round; stroke-linejoin:round; stroke-width:2; stroke-opacity:0.1; fill:none" points="128.138,662.16 1152.76,662.16 "/>
<polyline clip-path="url(#clip162)" style="stroke:#000000; stroke-linecap:round; stroke-linejoin:round; stroke-width:2; stroke-opacity:0.1; fill:none" points="128.138,577.89 1152.76,577.89 "/>
<polyline clip-path="url(#clip162)" style="stroke:#000000; stroke-linecap:round; stroke-linejoin:round; stroke-width:2; stroke-opacity:0.1; fill:none" points="128.138,493.621 1152.76,493.621 "/>
<polyline clip-path="url(#clip162)" style="stroke:#000000; stroke-linecap:round; stroke-linejoin:round; stroke-width:2; stroke-opacity:0.1; fill:none" points="128.138,409.351 1152.76,409.351 "/>
<polyline clip-path="url(#clip162)" style="stroke:#000000; stroke-linecap:round; stroke-linejoin:round; stroke-width:2; stroke-opacity:0.1; fill:none" points="128.138,325.081 1152.76,325.081 "/>
<polyline clip-path="url(#clip162)" style="stroke:#000000; stroke-linecap:round; stroke-linejoin:round; stroke-width:2; stroke-opacity:0.1; fill:none" points="128.138,240.811 1152.76,240.811 "/>
<polyline clip-path="url(#clip162)" style="stroke:#000000; stroke-linecap:round; stroke-linejoin:round; stroke-width:2; stroke-opacity:0.1; fill:none" points="128.138,156.541 1152.76,156.541 "/>
<polyline clip-path="url(#clip160)" style="stroke:#000000; stroke-linecap:round; stroke-linejoin:round; stroke-width:4; stroke-opacity:1; fill:none" points="128.138,662.16 1152.76,662.16 "/>
<polyline clip-path="url(#clip160)" style="stroke:#000000; stroke-linecap:round; stroke-linejoin:round; stroke-width:4; stroke-opacity:1; fill:none" points="314.766,662.16 314.766,643.263 "/>
<polyline clip-path="url(#clip160)" style="stroke:#000000; stroke-linecap:round; stroke-linejoin:round; stroke-width:4; stroke-opacity:1; fill:none" points="575.311,662.16 575.311,643.263 "/>
<polyline clip-path="url(#clip160)" style="stroke:#000000; stroke-linecap:round; stroke-linejoin:round; stroke-width:4; stroke-opacity:1; fill:none" points="835.855,662.16 835.855,643.263 "/>
<polyline clip-path="url(#clip160)" style="stroke:#000000; stroke-linecap:round; stroke-linejoin:round; stroke-width:4; stroke-opacity:1; fill:none" points="1096.4,662.16 1096.4,643.263 "/>
<path clip-path="url(#clip160)" d="M260.966 733.844 Q259.051 735.759 259.972 738.619 Q260.892 741.455 264.673 745.236 Q268.442 749.005 271.29 749.938 Q274.138 750.846 276.053 748.931 Q277.981 747.004 277.06 744.168 Q276.139 741.308 272.37 737.539 Q268.589 733.758 265.741 732.849 Q262.893 731.916 260.966 733.844 M259.002 731.88 Q262.083 728.798 266.146 729.621 Q270.21 730.419 274.85 735.059 Q279.478 739.687 280.289 743.763 Q281.099 747.814 278.017 750.895 Q274.936 753.977 270.873 753.179 Q266.809 752.356 262.181 747.728 Q257.541 743.088 256.731 739.037 Q255.92 734.961 259.002 731.88 Z" fill="#000000" fill-rule="nonzero" fill-opacity="1" /><path clip-path="url(#clip160)" d="M285.236 736.729 L287.826 734.138 L290.944 737.256 L288.354 739.847 L285.236 736.729 Z" fill="#000000" fill-rule="nonzero" fill-opacity="1" /><path clip-path="url(#clip160)" d="M292.945 717.848 Q291.177 719.616 291.104 721.58 Q291.042 723.532 292.7 725.189 Q294.357 726.846 296.309 726.785 Q298.273 726.711 300.041 724.944 Q301.809 723.176 301.882 721.212 Q301.944 719.235 300.299 717.59 Q298.641 715.933 296.677 716.007 Q294.725 716.068 292.945 717.848 M289.41 719.272 Q287.421 720.475 285.432 720.279 Q283.456 720.07 281.884 718.499 Q279.687 716.301 279.969 713.465 Q280.264 710.617 282.989 707.892 Q285.727 705.155 288.563 704.872 Q291.398 704.59 293.596 706.787 Q295.167 708.359 295.364 710.347 Q295.572 712.324 294.381 714.3 Q296.591 712.925 298.801 713.146 Q301.023 713.355 302.778 715.11 Q305.442 717.774 305.234 720.831 Q305.037 723.876 302.005 726.908 Q298.973 729.94 295.916 730.149 Q292.872 730.345 290.208 727.681 Q288.452 725.926 288.243 723.704 Q288.035 721.482 289.41 719.272 M284.585 716.264 Q286.009 717.688 287.691 717.602 Q289.385 717.504 290.993 715.896 Q292.589 714.3 292.687 712.606 Q292.798 710.9 291.374 709.476 Q289.95 708.052 288.243 708.162 Q286.549 708.26 284.953 709.856 Q283.345 711.464 283.247 713.159 Q283.161 714.84 284.585 716.264 Z" fill="#000000" fill-rule="nonzero" fill-opacity="1" /><path clip-path="url(#clip160)" d="M308.941 701.852 Q307.173 703.62 307.1 705.584 Q307.038 707.536 308.695 709.193 Q310.353 710.851 312.305 710.789 Q314.269 710.716 316.036 708.948 Q317.804 707.18 317.878 705.216 Q317.939 703.239 316.294 701.594 Q314.637 699.937 312.673 700.011 Q310.721 700.072 308.941 701.852 M305.405 703.276 Q303.417 704.479 301.428 704.283 Q299.451 704.074 297.88 702.503 Q295.683 700.305 295.965 697.47 Q296.26 694.622 298.985 691.896 Q301.723 689.159 304.558 688.876 Q307.394 688.594 309.592 690.791 Q311.163 692.363 311.359 694.352 Q311.568 696.328 310.377 698.304 Q312.587 696.93 314.797 697.15 Q317.019 697.359 318.774 699.115 Q321.438 701.779 321.229 704.835 Q321.033 707.88 318.001 710.912 Q314.968 713.944 311.912 714.153 Q308.867 714.349 306.203 711.685 Q304.448 709.93 304.239 707.708 Q304.03 705.486 305.405 703.276 M300.581 700.269 Q302.005 701.693 303.687 701.607 Q305.381 701.509 306.989 699.9 Q308.585 698.304 308.683 696.61 Q308.794 694.904 307.37 693.48 Q305.946 692.056 304.239 692.166 Q302.545 692.265 300.949 693.861 Q299.341 695.469 299.243 697.163 Q299.157 698.845 300.581 700.269 Z" fill="#000000" fill-rule="nonzero" fill-opacity="1" /><path clip-path="url(#clip160)" d="M521.56 733.795 Q519.645 735.71 520.565 738.57 Q521.486 741.406 525.267 745.187 Q529.036 748.956 531.884 749.889 Q534.732 750.797 536.647 748.882 Q538.574 746.955 537.654 744.119 Q536.733 741.259 532.964 737.49 Q529.183 733.709 526.335 732.8 Q523.487 731.867 521.56 733.795 M519.596 731.83 Q522.677 728.749 526.74 729.572 Q530.804 730.37 535.444 735.01 Q540.072 739.638 540.882 743.714 Q541.693 747.765 538.611 750.846 Q535.53 753.927 531.467 753.129 Q527.403 752.307 522.775 747.679 Q518.135 743.039 517.325 738.987 Q516.514 734.912 519.596 731.83 Z" fill="#000000" fill-rule="nonzero" fill-opacity="1" /><path clip-path="url(#clip160)" d="M545.83 736.68 L548.42 734.089 L551.538 737.207 L548.948 739.798 L545.83 736.68 Z" fill="#000000" fill-rule="nonzero" fill-opacity="1" /><path clip-path="url(#clip160)" d="M553.539 717.799 Q551.771 719.567 551.698 721.531 Q551.636 723.483 553.293 725.14 Q554.951 726.797 556.903 726.736 Q558.867 726.662 560.635 724.894 Q562.402 723.127 562.476 721.163 Q562.537 719.186 560.892 717.541 Q559.235 715.884 557.271 715.957 Q555.319 716.019 553.539 717.799 M550.003 719.223 Q548.015 720.426 546.026 720.23 Q544.05 720.021 542.478 718.45 Q540.281 716.252 540.563 713.416 Q540.858 710.568 543.583 707.843 Q546.321 705.105 549.156 704.823 Q551.992 704.541 554.19 706.738 Q555.761 708.309 555.957 710.298 Q556.166 712.275 554.975 714.251 Q557.185 712.876 559.395 713.097 Q561.617 713.306 563.372 715.061 Q566.036 717.725 565.827 720.782 Q565.631 723.826 562.599 726.859 Q559.567 729.891 556.51 730.1 Q553.465 730.296 550.801 727.632 Q549.046 725.877 548.837 723.655 Q548.629 721.433 550.003 719.223 M545.179 716.215 Q546.603 717.639 548.285 717.553 Q549.979 717.455 551.587 715.847 Q553.183 714.251 553.281 712.557 Q553.392 710.851 551.968 709.427 Q550.544 708.003 548.837 708.113 Q547.143 708.211 545.547 709.807 Q543.939 711.415 543.841 713.109 Q543.755 714.791 545.179 716.215 Z" fill="#000000" fill-rule="nonzero" fill-opacity="1" /><path clip-path="url(#clip160)" d="M572.628 715.356 L570.37 713.097 Q571.744 712.606 572.935 711.882 Q574.126 711.158 575.047 710.237 Q577.502 707.782 577.146 704.848 Q576.79 701.889 573.61 698.341 Q573.954 700.109 573.426 701.766 Q572.898 703.424 571.573 704.749 Q568.823 707.499 565.557 707.45 Q562.292 707.376 559.407 704.492 Q556.583 701.668 556.547 698.292 Q556.51 694.916 559.284 692.142 Q562.464 688.962 566.576 689.736 Q570.689 690.485 575.329 695.125 Q579.663 699.458 580.19 704.111 Q580.718 708.739 577.244 712.213 Q576.311 713.146 575.169 713.92 Q574.028 714.693 572.628 715.356 M569.793 702.65 Q571.462 700.981 571.29 698.869 Q571.131 696.745 569.142 694.757 Q567.165 692.78 565.042 692.621 Q562.918 692.436 561.248 694.106 Q559.579 695.776 559.751 697.912 Q559.923 700.023 561.899 702 Q563.888 703.988 565.999 704.16 Q568.123 704.32 569.793 702.65 Z" fill="#000000" fill-rule="nonzero" fill-opacity="1" /><path clip-path="url(#clip160)" d="M782.006 733.893 Q780.091 735.808 781.012 738.668 Q781.933 741.504 785.714 745.285 Q789.482 749.054 792.33 749.987 Q795.179 750.895 797.094 748.98 Q799.021 747.053 798.1 744.217 Q797.18 741.357 793.411 737.588 Q789.63 733.807 786.782 732.898 Q783.934 731.966 782.006 733.893 M780.042 731.929 Q783.123 728.847 787.187 729.67 Q791.25 730.468 795.891 735.108 Q800.519 739.736 801.329 743.812 Q802.139 747.863 799.058 750.944 Q795.976 754.026 791.913 753.228 Q787.85 752.405 783.222 747.777 Q778.581 743.137 777.771 739.086 Q776.961 735.01 780.042 731.929 Z" fill="#000000" fill-rule="nonzero" fill-opacity="1" /><path clip-path="url(#clip160)" d="M806.276 736.778 L808.866 734.187 L811.984 737.306 L809.394 739.896 L806.276 736.778 Z" fill="#000000" fill-rule="nonzero" fill-opacity="1" /><path clip-path="url(#clip160)" d="M817.079 731.45 L814.82 729.191 Q816.195 728.7 817.386 727.976 Q818.577 727.251 819.497 726.331 Q821.953 723.876 821.597 720.942 Q821.241 717.983 818.061 714.435 Q818.405 716.203 817.877 717.86 Q817.349 719.518 816.023 720.843 Q813.273 723.593 810.008 723.544 Q806.743 723.47 803.858 720.586 Q801.034 717.762 800.997 714.386 Q800.961 711.01 803.735 708.236 Q806.914 705.056 811.027 705.83 Q815.139 706.579 819.78 711.219 Q824.113 715.552 824.641 720.205 Q825.169 724.833 821.695 728.307 Q820.762 729.24 819.62 730.014 Q818.479 730.787 817.079 731.45 M814.243 718.744 Q815.913 717.075 815.741 714.963 Q815.581 712.839 813.593 710.851 Q811.616 708.874 809.492 708.715 Q807.369 708.53 805.699 710.2 Q804.03 711.87 804.201 714.006 Q804.373 716.117 806.35 718.094 Q808.338 720.082 810.45 720.254 Q812.574 720.414 814.243 718.744 Z" fill="#000000" fill-rule="nonzero" fill-opacity="1" /><path clip-path="url(#clip160)" d="M821.99 693.91 Q820.074 695.825 820.995 698.685 Q821.916 701.521 825.697 705.302 Q829.466 709.071 832.314 710.004 Q835.162 710.912 837.077 708.997 Q839.004 707.07 838.083 704.234 Q837.163 701.373 833.394 697.605 Q829.613 693.824 826.765 692.915 Q823.917 691.982 821.99 693.91 M820.025 691.945 Q823.107 688.864 827.17 689.687 Q831.233 690.485 835.874 695.125 Q840.502 699.753 841.312 703.829 Q842.122 707.88 839.041 710.961 Q835.96 714.042 831.896 713.244 Q827.833 712.422 823.205 707.794 Q818.564 703.154 817.754 699.102 Q816.944 695.027 820.025 691.945 Z" fill="#000000" fill-rule="nonzero" fill-opacity="1" /><path clip-path="url(#clip160)" d="M1043.2 733.242 Q1041.29 735.157 1042.21 738.018 Q1043.13 740.853 1046.91 744.634 Q1050.68 748.403 1053.53 749.336 Q1056.37 750.245 1058.29 748.33 Q1060.22 746.402 1059.3 743.566 Q1058.37 740.706 1054.61 736.937 Q1050.83 733.156 1047.98 732.248 Q1045.13 731.315 1043.2 733.242 M1041.24 731.278 Q1044.32 728.197 1048.38 729.019 Q1052.45 729.817 1057.09 734.458 Q1061.71 739.086 1062.52 743.161 Q1063.33 747.212 1060.25 750.294 Q1057.17 753.375 1053.11 752.577 Q1049.05 751.755 1044.42 747.126 Q1039.78 742.486 1038.97 738.435 Q1038.16 734.359 1041.24 731.278 Z" fill="#000000" fill-rule="nonzero" fill-opacity="1" /><path clip-path="url(#clip160)" d="M1067.47 736.127 L1070.06 733.537 L1073.18 736.655 L1070.59 739.245 L1067.47 736.127 Z" fill="#000000" fill-rule="nonzero" fill-opacity="1" /><path clip-path="url(#clip160)" d="M1078.27 730.799 L1076.02 728.54 Q1077.39 728.049 1078.58 727.325 Q1079.77 726.601 1080.69 725.68 Q1083.15 723.225 1082.79 720.291 Q1082.44 717.332 1079.26 713.785 Q1079.6 715.552 1079.07 717.21 Q1078.54 718.867 1077.22 720.193 Q1074.47 722.943 1071.2 722.893 Q1067.94 722.82 1065.05 719.935 Q1062.23 717.111 1062.19 713.736 Q1062.16 710.36 1064.93 707.585 Q1068.11 704.406 1072.22 705.179 Q1076.33 705.928 1080.98 710.568 Q1085.31 714.902 1085.84 719.554 Q1086.36 724.182 1082.89 727.657 Q1081.96 728.59 1080.82 729.363 Q1079.67 730.136 1078.27 730.799 M1075.44 718.094 Q1077.11 716.424 1076.94 714.312 Q1076.78 712.189 1074.79 710.2 Q1072.81 708.224 1070.69 708.064 Q1068.56 707.88 1066.89 709.549 Q1065.22 711.219 1065.4 713.355 Q1065.57 715.466 1067.55 717.443 Q1069.53 719.432 1071.65 719.603 Q1073.77 719.763 1075.44 718.094 Z" fill="#000000" fill-rule="nonzero" fill-opacity="1" /><path clip-path="url(#clip160)" d="M1092.92 712.741 L1096.97 708.69 L1082.99 694.708 L1079.47 699.999 L1077.21 697.74 L1080.71 692.473 L1083.18 689.994 L1099.43 706.235 L1103.48 702.184 L1105.56 704.271 L1095.01 714.828 L1092.92 712.741 Z" fill="#000000" fill-rule="nonzero" fill-opacity="1" /><polyline clip-path="url(#clip160)" style="stroke:#000000; stroke-linecap:round; stroke-linejoin:round; stroke-width:4; stroke-opacity:1; fill:none" points="128.138,662.16 128.138,97.5521 "/>
<polyline clip-path="url(#clip160)" style="stroke:#000000; stroke-linecap:round; stroke-linejoin:round; stroke-width:4; stroke-opacity:1; fill:none" points="128.138,662.16 147.035,662.16 "/>
<polyline clip-path="url(#clip160)" style="stroke:#000000; stroke-linecap:round; stroke-linejoin:round; stroke-width:4; stroke-opacity:1; fill:none" points="128.138,577.89 147.035,577.89 "/>
<polyline clip-path="url(#clip160)" style="stroke:#000000; stroke-linecap:round; stroke-linejoin:round; stroke-width:4; stroke-opacity:1; fill:none" points="128.138,493.621 147.035,493.621 "/>
<polyline clip-path="url(#clip160)" style="stroke:#000000; stroke-linecap:round; stroke-linejoin:round; stroke-width:4; stroke-opacity:1; fill:none" points="128.138,409.351 147.035,409.351 "/>
<polyline clip-path="url(#clip160)" style="stroke:#000000; stroke-linecap:round; stroke-linejoin:round; stroke-width:4; stroke-opacity:1; fill:none" points="128.138,325.081 147.035,325.081 "/>
<polyline clip-path="url(#clip160)" style="stroke:#000000; stroke-linecap:round; stroke-linejoin:round; stroke-width:4; stroke-opacity:1; fill:none" points="128.138,240.811 147.035,240.811 "/>
<polyline clip-path="url(#clip160)" style="stroke:#000000; stroke-linecap:round; stroke-linejoin:round; stroke-width:4; stroke-opacity:1; fill:none" points="128.138,156.541 147.035,156.541 "/>
<path clip-path="url(#clip160)" d="M83.1795 651.509 Q80.4711 651.509 79.0996 654.183 Q77.7455 656.839 77.7455 662.186 Q77.7455 667.516 79.0996 670.19 Q80.4711 672.846 83.1795 672.846 Q85.9051 672.846 87.2593 670.19 Q88.6308 667.516 88.6308 662.186 Q88.6308 656.839 87.2593 654.183 Q85.9051 651.509 83.1795 651.509 M83.1795 648.732 Q87.5371 648.732 89.8287 652.186 Q92.1377 655.624 92.1377 662.186 Q92.1377 668.732 89.8287 672.186 Q87.5371 675.624 83.1795 675.624 Q78.8218 675.624 76.5128 672.186 Q74.2212 668.732 74.2212 662.186 Q74.2212 655.624 76.5128 652.186 Q78.8218 648.732 83.1795 648.732 Z" fill="#000000" fill-rule="nonzero" fill-opacity="1" /><path clip-path="url(#clip160)" d="M53.6657 587.899 L59.3949 587.899 L59.3949 568.125 L53.1623 569.375 L53.1623 566.18 L59.3601 564.93 L62.8671 564.93 L62.8671 587.899 L68.5962 587.899 L68.5962 590.85 L53.6657 590.85 L53.6657 587.899 Z" fill="#000000" fill-rule="nonzero" fill-opacity="1" /><path clip-path="url(#clip160)" d="M83.1795 567.24 Q80.4711 567.24 79.0996 569.913 Q77.7455 572.569 77.7455 577.917 Q77.7455 583.246 79.0996 585.92 Q80.4711 588.576 83.1795 588.576 Q85.9051 588.576 87.2593 585.92 Q88.6308 583.246 88.6308 577.917 Q88.6308 572.569 87.2593 569.913 Q85.9051 567.24 83.1795 567.24 M83.1795 564.462 Q87.5371 564.462 89.8287 567.917 Q92.1377 571.354 92.1377 577.917 Q92.1377 584.462 89.8287 587.916 Q87.5371 591.354 83.1795 591.354 Q78.8218 591.354 76.5128 587.916 Q74.2212 584.462 74.2212 577.917 Q74.2212 571.354 76.5128 567.917 Q78.8218 564.462 83.1795 564.462 Z" fill="#000000" fill-rule="nonzero" fill-opacity="1" /><path clip-path="url(#clip160)" d="M56.0789 503.629 L68.3184 503.629 L68.3184 506.581 L51.8602 506.581 L51.8602 503.629 Q53.8567 501.563 57.2942 498.091 Q60.749 494.601 61.6344 493.595 Q63.3184 491.702 63.9782 490.4 Q64.6552 489.081 64.6552 487.813 Q64.6552 485.747 63.1969 484.445 Q61.756 483.143 59.4296 483.143 Q57.7803 483.143 55.94 483.716 Q54.1171 484.289 52.0338 485.452 L52.0338 481.911 Q54.1518 481.06 55.9921 480.626 Q57.8324 480.192 59.3601 480.192 Q63.3879 480.192 65.7837 482.206 Q68.1795 484.22 68.1795 487.588 Q68.1795 489.185 67.5719 490.626 Q66.9816 492.049 65.4018 493.994 Q64.9677 494.497 62.6414 496.911 Q60.315 499.306 56.0789 503.629 Z" fill="#000000" fill-rule="nonzero" fill-opacity="1" /><path clip-path="url(#clip160)" d="M83.1795 482.97 Q80.4711 482.97 79.0996 485.643 Q77.7455 488.299 77.7455 493.647 Q77.7455 498.976 79.0996 501.65 Q80.4711 504.306 83.1795 504.306 Q85.9051 504.306 87.2593 501.65 Q88.6308 498.976 88.6308 493.647 Q88.6308 488.299 87.2593 485.643 Q85.9051 482.97 83.1795 482.97 M83.1795 480.192 Q87.5371 480.192 89.8287 483.647 Q92.1377 487.084 92.1377 493.647 Q92.1377 500.192 89.8287 503.647 Q87.5371 507.084 83.1795 507.084 Q78.8218 507.084 76.5128 503.647 Q74.2212 500.192 74.2212 493.647 Q74.2212 487.084 76.5128 483.647 Q78.8218 480.192 83.1795 480.192 Z" fill="#000000" fill-rule="nonzero" fill-opacity="1" /><path clip-path="url(#clip160)" d="M63.683 408.335 Q66.2004 408.873 67.6066 410.575 Q69.0302 412.276 69.0302 414.776 Q69.0302 418.613 66.3913 420.713 Q63.7525 422.814 58.8914 422.814 Q57.2595 422.814 55.5234 422.484 Q53.8046 422.172 51.9643 421.529 L51.9643 418.144 Q53.4227 418.995 55.1588 419.429 Q56.8949 419.863 58.7872 419.863 Q62.0858 419.863 63.8046 418.561 Q65.5407 417.259 65.5407 414.776 Q65.5407 412.484 63.9261 411.2 Q62.3289 409.898 59.4643 409.898 L56.4435 409.898 L56.4435 407.016 L59.6032 407.016 Q62.19 407.016 63.5615 405.991 Q64.933 404.95 64.933 403.005 Q64.933 401.009 63.5094 399.95 Q62.1032 398.873 59.4643 398.873 Q58.0233 398.873 56.374 399.186 Q54.7247 399.498 52.7456 400.158 L52.7456 397.033 Q54.7421 396.478 56.4782 396.2 Q58.2317 395.922 59.7768 395.922 Q63.7698 395.922 66.0962 397.745 Q68.4226 399.55 68.4226 402.641 Q68.4226 404.793 67.19 406.286 Q65.9573 407.762 63.683 408.335 Z" fill="#000000" fill-rule="nonzero" fill-opacity="1" /><path clip-path="url(#clip160)" d="M83.1795 398.7 Q80.4711 398.7 79.0996 401.373 Q77.7455 404.03 77.7455 409.377 Q77.7455 414.707 79.0996 417.38 Q80.4711 420.036 83.1795 420.036 Q85.9051 420.036 87.2593 417.38 Q88.6308 414.707 88.6308 409.377 Q88.6308 404.03 87.2593 401.373 Q85.9051 398.7 83.1795 398.7 M83.1795 395.922 Q87.5371 395.922 89.8287 399.377 Q92.1377 402.814 92.1377 409.377 Q92.1377 415.922 89.8287 419.377 Q87.5371 422.814 83.1795 422.814 Q78.8218 422.814 76.5128 419.377 Q74.2212 415.922 74.2212 409.377 Q74.2212 402.814 76.5128 399.377 Q78.8218 395.922 83.1795 395.922 Z" fill="#000000" fill-rule="nonzero" fill-opacity="1" /><path clip-path="url(#clip160)" d="M62.6935 315.176 L53.8393 329.013 L62.6935 329.013 L62.6935 315.176 M61.7733 312.121 L66.183 312.121 L66.183 329.013 L69.8809 329.013 L69.8809 331.93 L66.183 331.93 L66.183 338.041 L62.6935 338.041 L62.6935 331.93 L50.9921 331.93 L50.9921 328.544 L61.7733 312.121 Z" fill="#000000" fill-rule="nonzero" fill-opacity="1" /><path clip-path="url(#clip160)" d="M83.1795 314.43 Q80.4711 314.43 79.0996 317.103 Q77.7455 319.76 77.7455 325.107 Q77.7455 330.437 79.0996 333.11 Q80.4711 335.767 83.1795 335.767 Q85.9051 335.767 87.2593 333.11 Q88.6308 330.437 88.6308 325.107 Q88.6308 319.76 87.2593 317.103 Q85.9051 314.43 83.1795 314.43 M83.1795 311.652 Q87.5371 311.652 89.8287 315.107 Q92.1377 318.544 92.1377 325.107 Q92.1377 331.652 89.8287 335.107 Q87.5371 338.544 83.1795 338.544 Q78.8218 338.544 76.5128 335.107 Q74.2212 331.652 74.2212 325.107 Q74.2212 318.544 76.5128 315.107 Q78.8218 311.652 83.1795 311.652 Z" fill="#000000" fill-rule="nonzero" fill-opacity="1" /><path clip-path="url(#clip160)" d="M53.0928 227.851 L66.8601 227.851 L66.8601 230.802 L56.3046 230.802 L56.3046 237.156 Q57.0685 236.896 57.8324 236.774 Q58.5963 236.636 59.3601 236.636 Q63.7004 236.636 66.2351 239.014 Q68.7698 241.393 68.7698 245.455 Q68.7698 249.639 66.1657 251.965 Q63.5615 254.274 58.8219 254.274 Q57.19 254.274 55.4886 253.997 Q53.8046 253.719 51.9991 253.163 L51.9991 249.639 Q53.5616 250.49 55.2282 250.906 Q56.8949 251.323 58.7525 251.323 Q61.756 251.323 63.5094 249.743 Q65.2629 248.163 65.2629 245.455 Q65.2629 242.747 63.5094 241.167 Q61.756 239.587 58.7525 239.587 Q57.3463 239.587 55.94 239.899 Q54.5511 240.212 53.0928 240.872 L53.0928 227.851 Z" fill="#000000" fill-rule="nonzero" fill-opacity="1" /><path clip-path="url(#clip160)" d="M83.1795 230.16 Q80.4711 230.16 79.0996 232.834 Q77.7455 235.49 77.7455 240.837 Q77.7455 246.167 79.0996 248.84 Q80.4711 251.497 83.1795 251.497 Q85.9051 251.497 87.2593 248.84 Q88.6308 246.167 88.6308 240.837 Q88.6308 235.49 87.2593 232.834 Q85.9051 230.16 83.1795 230.16 M83.1795 227.382 Q87.5371 227.382 89.8287 230.837 Q92.1377 234.275 92.1377 240.837 Q92.1377 247.382 89.8287 250.837 Q87.5371 254.274 83.1795 254.274 Q78.8218 254.274 76.5128 250.837 Q74.2212 247.382 74.2212 240.837 Q74.2212 234.275 76.5128 230.837 Q78.8218 227.382 83.1795 227.382 Z" fill="#000000" fill-rule="nonzero" fill-opacity="1" /><path clip-path="url(#clip160)" d="M60.9921 155.143 Q58.631 155.143 57.2421 156.758 Q55.8706 158.373 55.8706 161.185 Q55.8706 163.98 57.2421 165.612 Q58.631 167.227 60.9921 167.227 Q63.3532 167.227 64.7247 165.612 Q66.1136 163.98 66.1136 161.185 Q66.1136 158.373 64.7247 156.758 Q63.3532 155.143 60.9921 155.143 M67.9538 144.154 L67.9538 147.348 Q66.6344 146.723 65.2802 146.394 Q63.9434 146.064 62.624 146.064 Q59.1518 146.064 57.3115 148.407 Q55.4886 150.751 55.2282 155.491 Q56.2525 153.98 57.7976 153.182 Q59.3428 152.366 61.2004 152.366 Q65.1066 152.366 67.3636 154.744 Q69.6379 157.105 69.6379 161.185 Q69.6379 165.178 67.2768 167.591 Q64.9157 170.005 60.9921 170.005 Q56.4956 170.005 54.1171 166.567 Q51.7386 163.112 51.7386 156.567 Q51.7386 150.421 54.6553 146.775 Q57.572 143.112 62.4851 143.112 Q63.8046 143.112 65.1414 143.373 Q66.4955 143.633 67.9538 144.154 Z" fill="#000000" fill-rule="nonzero" fill-opacity="1" /><path clip-path="url(#clip160)" d="M83.1795 145.89 Q80.4711 145.89 79.0996 148.564 Q77.7455 151.22 77.7455 156.567 Q77.7455 161.897 79.0996 164.571 Q80.4711 167.227 83.1795 167.227 Q85.9051 167.227 87.2593 164.571 Q88.6308 161.897 88.6308 156.567 Q88.6308 151.22 87.2593 148.564 Q85.9051 145.89 83.1795 145.89 M83.1795 143.112 Q87.5371 143.112 89.8287 146.567 Q92.1377 150.005 92.1377 156.567 Q92.1377 163.112 89.8287 166.567 Q87.5371 170.005 83.1795 170.005 Q78.8218 170.005 76.5128 166.567 Q74.2212 163.112 74.2212 156.567 Q74.2212 150.005 76.5128 146.567 Q78.8218 143.112 83.1795 143.112 Z" fill="#000000" fill-rule="nonzero" fill-opacity="1" /><path clip-path="url(#clip160)" d="M130.221 20.1758 Q131.633 17.8147 135.128 15.7314 Q136.494 14.9212 140.707 14.9212 Q145.429 14.9212 148.369 18.6712 Q151.332 22.4212 151.332 28.5323 Q151.332 34.6433 148.369 38.3933 Q145.429 42.1433 140.707 42.1433 Q137.86 42.1433 135.8 41.0322 Q133.763 39.8979 132.42 37.5831 L132.42 51.3331 L128.138 51.3331 L128.138 28.7637 Q128.138 23.4165 130.221 20.1758 M146.911 28.5323 Q146.911 23.8332 144.966 21.1712 Q143.045 18.486 139.665 18.486 Q136.286 18.486 134.341 21.1712 Q132.42 23.8332 132.42 28.5323 Q132.42 33.2313 134.341 35.9165 Q136.286 38.5785 139.665 38.5785 Q143.045 38.5785 144.966 35.9165 Q146.911 33.2313 146.911 28.5323 Z" fill="#000000" fill-rule="nonzero" fill-opacity="1" /><path clip-path="url(#clip162)" d="M184.494 552.61 L184.494 662.16 L314.766 662.16 L314.766 552.61 L184.494 552.61 L184.494 552.61  Z" fill="#009af9" fill-rule="evenodd" fill-opacity="1"/>
<polyline clip-path="url(#clip162)" style="stroke:#000000; stroke-linecap:round; stroke-linejoin:round; stroke-width:4; stroke-opacity:1; fill:none" points="184.494,552.61 184.494,662.16 314.766,662.16 314.766,552.61 184.494,552.61 "/>
<path clip-path="url(#clip162)" d="M314.766 443.059 L314.766 662.16 L445.038 662.16 L445.038 443.059 L314.766 443.059 L314.766 443.059  Z" fill="#009af9" fill-rule="evenodd" fill-opacity="1"/>
<polyline clip-path="url(#clip162)" style="stroke:#000000; stroke-linecap:round; stroke-linejoin:round; stroke-width:4; stroke-opacity:1; fill:none" points="314.766,443.059 314.766,662.16 445.038,662.16 445.038,443.059 314.766,443.059 "/>
<path clip-path="url(#clip162)" d="M445.038 358.789 L445.038 662.16 L575.311 662.16 L575.311 358.789 L445.038 358.789 L445.038 358.789  Z" fill="#009af9" fill-rule="evenodd" fill-opacity="1"/>
<polyline clip-path="url(#clip162)" style="stroke:#000000; stroke-linecap:round; stroke-linejoin:round; stroke-width:4; stroke-opacity:1; fill:none" points="445.038,358.789 445.038,662.16 575.311,662.16 575.311,358.789 445.038,358.789 "/>
<path clip-path="url(#clip162)" d="M575.311 97.5521 L575.311 662.16 L705.583 662.16 L705.583 97.5521 L575.311 97.5521 L575.311 97.5521  Z" fill="#009af9" fill-rule="evenodd" fill-opacity="1"/>
<polyline clip-path="url(#clip162)" style="stroke:#000000; stroke-linecap:round; stroke-linejoin:round; stroke-width:4; stroke-opacity:1; fill:none" points="575.311,97.5521 575.311,662.16 705.583,662.16 705.583,97.5521 575.311,97.5521 "/>
<path clip-path="url(#clip162)" d="M705.583 358.789 L705.583 662.16 L835.855 662.16 L835.855 358.789 L705.583 358.789 L705.583 358.789  Z" fill="#009af9" fill-rule="evenodd" fill-opacity="1"/>
<polyline clip-path="url(#clip162)" style="stroke:#000000; stroke-linecap:round; stroke-linejoin:round; stroke-width:4; stroke-opacity:1; fill:none" points="705.583,358.789 705.583,662.16 835.855,662.16 835.855,358.789 705.583,358.789 "/>
<path clip-path="url(#clip162)" d="M835.855 409.351 L835.855 662.16 L966.128 662.16 L966.128 409.351 L835.855 409.351 L835.855 409.351  Z" fill="#009af9" fill-rule="evenodd" fill-opacity="1"/>
<polyline clip-path="url(#clip162)" style="stroke:#000000; stroke-linecap:round; stroke-linejoin:round; stroke-width:4; stroke-opacity:1; fill:none" points="835.855,409.351 835.855,662.16 966.128,662.16 966.128,409.351 835.855,409.351 "/>
<path clip-path="url(#clip162)" d="M966.128 552.61 L966.128 662.16 L1096.4 662.16 L1096.4 552.61 L966.128 552.61 L966.128 552.61  Z" fill="#009af9" fill-rule="evenodd" fill-opacity="1"/>
<polyline clip-path="url(#clip162)" style="stroke:#000000; stroke-linecap:round; stroke-linejoin:round; stroke-width:4; stroke-opacity:1; fill:none" points="966.128,552.61 966.128,662.16 1096.4,662.16 1096.4,552.61 966.128,552.61 "/>
<circle clip-path="url(#clip162)" style="fill:#009af9; stroke:none; fill-opacity:0" cx="249.63" cy="552.61" r="2"/>
<circle clip-path="url(#clip162)" style="fill:#009af9; stroke:none; fill-opacity:0" cx="379.902" cy="443.059" r="2"/>
<circle clip-path="url(#clip162)" style="fill:#009af9; stroke:none; fill-opacity:0" cx="510.174" cy="358.789" r="2"/>
<circle clip-path="url(#clip162)" style="fill:#009af9; stroke:none; fill-opacity:0" cx="640.447" cy="97.5521" r="2"/>
<circle clip-path="url(#clip162)" style="fill:#009af9; stroke:none; fill-opacity:0" cx="770.719" cy="358.789" r="2"/>
<circle clip-path="url(#clip162)" style="fill:#009af9; stroke:none; fill-opacity:0" cx="900.992" cy="409.351" r="2"/>
<circle clip-path="url(#clip162)" style="fill:#009af9; stroke:none; fill-opacity:0" cx="1031.26" cy="552.61" r="2"/>
<polyline clip-path="url(#clip162)" style="stroke:#ff0000; stroke-linecap:round; stroke-linejoin:round; stroke-width:8; stroke-opacity:1; fill:none" stroke-dasharray="32, 20" points="534.133,1226.77 534.133,-467.056 "/>
<polyline clip-path="url(#clip162)" style="stroke:#ff0000; stroke-linecap:round; stroke-linejoin:round; stroke-width:6; stroke-opacity:1; fill:none" stroke-dasharray="24, 12, 3, 12" points="247.396,1226.77 247.396,-467.056 "/>
<polyline clip-path="url(#clip162)" style="stroke:#ff0000; stroke-linecap:round; stroke-linejoin:round; stroke-width:6; stroke-opacity:1; fill:none" stroke-dasharray="24, 12, 3, 12" points="1006.51,1226.77 1006.51,-467.056 "/>
<path clip-path="url(#clip160)" d="M1328.14 662.16 L2352.76 662.16 L2352.76 97.5521 L1328.14 97.5521  Z" fill="#ffffff" fill-rule="evenodd" fill-opacity="1"/>
<defs>
  <clipPath id="clip163">
    <rect x="1328" y="97" width="1026" height="566"/>
  </clipPath>
</defs>
<polyline clip-path="url(#clip163)" style="stroke:#000000; stroke-linecap:round; stroke-linejoin:round; stroke-width:2; stroke-opacity:0.1; fill:none" points="1384.49,662.16 1384.49,97.5521 "/>
<polyline clip-path="url(#clip163)" style="stroke:#000000; stroke-linecap:round; stroke-linejoin:round; stroke-width:2; stroke-opacity:0.1; fill:none" points="1566.87,662.16 1566.87,97.5521 "/>
<polyline clip-path="url(#clip163)" style="stroke:#000000; stroke-linecap:round; stroke-linejoin:round; stroke-width:2; stroke-opacity:0.1; fill:none" points="1749.26,662.16 1749.26,97.5521 "/>
<polyline clip-path="url(#clip163)" style="stroke:#000000; stroke-linecap:round; stroke-linejoin:round; stroke-width:2; stroke-opacity:0.1; fill:none" points="1931.64,662.16 1931.64,97.5521 "/>
<polyline clip-path="url(#clip163)" style="stroke:#000000; stroke-linecap:round; stroke-linejoin:round; stroke-width:2; stroke-opacity:0.1; fill:none" points="2114.02,662.16 2114.02,97.5521 "/>
<polyline clip-path="url(#clip163)" style="stroke:#000000; stroke-linecap:round; stroke-linejoin:round; stroke-width:2; stroke-opacity:0.1; fill:none" points="2296.4,662.16 2296.4,97.5521 "/>
<polyline clip-path="url(#clip163)" style="stroke:#000000; stroke-linecap:round; stroke-linejoin:round; stroke-width:2; stroke-opacity:0.1; fill:none" points="1328.14,662.16 2352.76,662.16 "/>
<polyline clip-path="url(#clip163)" style="stroke:#000000; stroke-linecap:round; stroke-linejoin:round; stroke-width:2; stroke-opacity:0.1; fill:none" points="1328.14,533.84 2352.76,533.84 "/>
<polyline clip-path="url(#clip163)" style="stroke:#000000; stroke-linecap:round; stroke-linejoin:round; stroke-width:2; stroke-opacity:0.1; fill:none" points="1328.14,405.52 2352.76,405.52 "/>
<polyline clip-path="url(#clip163)" style="stroke:#000000; stroke-linecap:round; stroke-linejoin:round; stroke-width:2; stroke-opacity:0.1; fill:none" points="1328.14,277.2 2352.76,277.2 "/>
<polyline clip-path="url(#clip163)" style="stroke:#000000; stroke-linecap:round; stroke-linejoin:round; stroke-width:2; stroke-opacity:0.1; fill:none" points="1328.14,148.88 2352.76,148.88 "/>
<polyline clip-path="url(#clip160)" style="stroke:#000000; stroke-linecap:round; stroke-linejoin:round; stroke-width:4; stroke-opacity:1; fill:none" points="1328.14,662.16 2352.76,662.16 "/>
<polyline clip-path="url(#clip160)" style="stroke:#000000; stroke-linecap:round; stroke-linejoin:round; stroke-width:4; stroke-opacity:1; fill:none" points="1384.49,662.16 1384.49,643.263 "/>
<polyline clip-path="url(#clip160)" style="stroke:#000000; stroke-linecap:round; stroke-linejoin:round; stroke-width:4; stroke-opacity:1; fill:none" points="1566.87,662.16 1566.87,643.263 "/>
<polyline clip-path="url(#clip160)" style="stroke:#000000; stroke-linecap:round; stroke-linejoin:round; stroke-width:4; stroke-opacity:1; fill:none" points="1749.26,662.16 1749.26,643.263 "/>
<polyline clip-path="url(#clip160)" style="stroke:#000000; stroke-linecap:round; stroke-linejoin:round; stroke-width:4; stroke-opacity:1; fill:none" points="1931.64,662.16 1931.64,643.263 "/>
<polyline clip-path="url(#clip160)" style="stroke:#000000; stroke-linecap:round; stroke-linejoin:round; stroke-width:4; stroke-opacity:1; fill:none" points="2114.02,662.16 2114.02,643.263 "/>
<polyline clip-path="url(#clip160)" style="stroke:#000000; stroke-linecap:round; stroke-linejoin:round; stroke-width:4; stroke-opacity:1; fill:none" points="2296.4,662.16 2296.4,643.263 "/>
<path clip-path="url(#clip160)" d="M1330.64 733.893 Q1328.73 735.808 1329.65 738.668 Q1330.57 741.504 1334.35 745.285 Q1338.12 749.054 1340.97 749.987 Q1343.82 750.895 1345.73 748.98 Q1347.66 747.053 1346.74 744.217 Q1345.82 741.357 1342.05 737.588 Q1338.27 733.807 1335.42 732.898 Q1332.57 731.966 1330.64 733.893 M1328.68 731.929 Q1331.76 728.847 1335.82 729.67 Q1339.89 730.468 1344.53 735.108 Q1349.16 739.736 1349.97 743.812 Q1350.78 747.863 1347.7 750.944 Q1344.61 754.026 1340.55 753.228 Q1336.49 752.405 1331.86 747.777 Q1327.22 743.137 1326.41 739.086 Q1325.6 735.01 1328.68 731.929 Z" fill="#000000" fill-rule="nonzero" fill-opacity="1" /><path clip-path="url(#clip160)" d="M1354.91 736.778 L1357.5 734.187 L1360.62 737.306 L1358.03 739.896 L1354.91 736.778 Z" fill="#000000" fill-rule="nonzero" fill-opacity="1" /><path clip-path="url(#clip160)" d="M1363.65 714.509 Q1365.82 713.109 1368.01 713.318 Q1370.22 713.515 1371.99 715.282 Q1374.7 717.995 1374.32 721.347 Q1373.94 724.698 1370.5 728.135 Q1369.35 729.289 1367.89 730.284 Q1366.45 731.278 1364.7 732.125 L1362.3 729.731 Q1363.94 729.302 1365.47 728.381 Q1367.01 727.46 1368.34 726.122 Q1370.68 723.79 1370.97 721.654 Q1371.28 719.505 1369.52 717.75 Q1367.9 716.129 1365.85 716.363 Q1363.8 716.571 1361.78 718.597 L1359.64 720.733 L1357.6 718.695 L1359.84 716.461 Q1361.67 714.632 1361.91 712.938 Q1362.14 711.231 1360.77 709.856 Q1359.36 708.445 1357.6 708.702 Q1355.85 708.936 1353.98 710.802 Q1352.96 711.82 1352.02 713.208 Q1351.07 714.595 1350.14 716.461 L1347.93 714.251 Q1348.95 712.447 1349.98 711.022 Q1351.02 709.586 1352.12 708.494 Q1354.94 705.67 1357.87 705.314 Q1360.79 704.946 1362.98 707.131 Q1364.5 708.653 1364.69 710.581 Q1364.86 712.496 1363.65 714.509 Z" fill="#000000" fill-rule="nonzero" fill-opacity="1" /><path clip-path="url(#clip160)" d="M1370.63 693.91 Q1368.71 695.825 1369.63 698.685 Q1370.55 701.521 1374.34 705.302 Q1378.1 709.071 1380.95 710.004 Q1383.8 710.912 1385.72 708.997 Q1387.64 707.07 1386.72 704.234 Q1385.8 701.373 1382.03 697.605 Q1378.25 693.824 1375.4 692.915 Q1372.56 691.982 1370.63 693.91 M1368.66 691.945 Q1371.74 688.864 1375.81 689.687 Q1379.87 690.485 1384.51 695.125 Q1389.14 699.753 1389.95 703.829 Q1390.76 707.88 1387.68 710.961 Q1384.6 714.042 1380.53 713.244 Q1376.47 712.422 1371.84 707.794 Q1367.2 703.154 1366.39 699.102 Q1365.58 695.027 1368.66 691.945 Z" fill="#000000" fill-rule="nonzero" fill-opacity="1" /><path clip-path="url(#clip160)" d="M1513.68 733.242 Q1511.76 735.157 1512.68 738.018 Q1513.6 740.853 1517.38 744.634 Q1521.15 748.403 1524 749.336 Q1526.85 750.245 1528.76 748.33 Q1530.69 746.402 1529.77 743.566 Q1528.85 740.706 1525.08 736.937 Q1521.3 733.156 1518.45 732.248 Q1515.6 731.315 1513.68 733.242 M1511.71 731.278 Q1514.79 728.197 1518.86 729.019 Q1522.92 729.817 1527.56 734.458 Q1532.19 739.086 1533 743.161 Q1533.81 747.212 1530.73 750.294 Q1527.65 753.375 1523.58 752.577 Q1519.52 751.755 1514.89 747.126 Q1510.25 742.486 1509.44 738.435 Q1508.63 734.359 1511.71 731.278 Z" fill="#000000" fill-rule="nonzero" fill-opacity="1" /><path clip-path="url(#clip160)" d="M1537.95 736.127 L1540.54 733.537 L1543.65 736.655 L1541.06 739.245 L1537.95 736.127 Z" fill="#000000" fill-rule="nonzero" fill-opacity="1" /><path clip-path="url(#clip160)" d="M1546.69 713.858 Q1548.85 712.459 1551.04 712.667 Q1553.25 712.864 1555.02 714.632 Q1557.74 717.345 1557.35 720.696 Q1556.97 724.047 1553.54 727.485 Q1552.38 728.639 1550.92 729.633 Q1549.49 730.627 1547.73 731.474 L1545.34 729.081 Q1546.97 728.651 1548.5 727.73 Q1550.04 726.81 1551.38 725.471 Q1553.71 723.139 1554 721.003 Q1554.31 718.855 1552.55 717.099 Q1550.93 715.479 1548.88 715.712 Q1546.83 715.921 1544.81 717.946 L1542.67 720.082 L1540.63 718.044 L1542.87 715.81 Q1544.7 713.981 1544.94 712.287 Q1545.18 710.581 1543.8 709.206 Q1542.39 707.794 1540.63 708.052 Q1538.88 708.285 1537.01 710.151 Q1535.99 711.17 1535.05 712.557 Q1534.1 713.944 1533.17 715.81 L1530.96 713.6 Q1531.98 711.796 1533.01 710.372 Q1534.05 708.936 1535.15 707.843 Q1537.97 705.019 1540.9 704.663 Q1543.83 704.295 1546.01 706.48 Q1547.53 708.003 1547.72 709.93 Q1547.89 711.845 1546.69 713.858 Z" fill="#000000" fill-rule="nonzero" fill-opacity="1" /><path clip-path="url(#clip160)" d="M1563.39 712.741 L1567.45 708.69 L1553.46 694.708 L1549.94 699.999 L1547.68 697.74 L1551.18 692.473 L1553.66 689.994 L1569.9 706.235 L1573.95 702.184 L1576.04 704.271 L1565.48 714.828 L1563.39 712.741 Z" fill="#000000" fill-rule="nonzero" fill-opacity="1" /><path clip-path="url(#clip160)" d="M1696.25 733.046 Q1694.34 734.961 1695.26 737.821 Q1696.18 740.657 1699.96 744.438 Q1703.73 748.207 1706.58 749.14 Q1709.43 750.048 1711.34 748.133 Q1713.27 746.206 1712.35 743.37 Q1711.43 740.51 1707.66 736.741 Q1703.88 732.96 1701.03 732.051 Q1698.18 731.118 1696.25 733.046 M1694.29 731.082 Q1697.37 728 1701.43 728.823 Q1705.5 729.621 1710.14 734.261 Q1714.77 738.889 1715.58 742.965 Q1716.39 747.016 1713.31 750.097 Q1710.22 753.179 1706.16 752.381 Q1702.1 751.558 1697.47 746.93 Q1692.83 742.29 1692.02 738.239 Q1691.21 734.163 1694.29 731.082 Z" fill="#000000" fill-rule="nonzero" fill-opacity="1" /><path clip-path="url(#clip160)" d="M1720.52 735.931 L1723.11 733.34 L1726.23 736.459 L1723.64 739.049 L1720.52 735.931 Z" fill="#000000" fill-rule="nonzero" fill-opacity="1" /><path clip-path="url(#clip160)" d="M1729.26 713.662 Q1731.43 712.262 1733.62 712.471 Q1735.83 712.667 1737.6 714.435 Q1740.31 717.148 1739.93 720.5 Q1739.55 723.851 1736.11 727.288 Q1734.96 728.442 1733.5 729.437 Q1732.06 730.431 1730.31 731.278 L1727.91 728.884 Q1729.55 728.455 1731.08 727.534 Q1732.62 726.613 1733.95 725.275 Q1736.29 722.943 1736.58 720.807 Q1736.89 718.658 1735.13 716.903 Q1733.51 715.282 1731.46 715.516 Q1729.41 715.724 1727.39 717.75 L1725.25 719.886 L1723.21 717.848 L1725.45 715.614 Q1727.28 713.785 1727.52 712.091 Q1727.75 710.384 1726.38 709.009 Q1724.97 707.597 1723.21 707.855 Q1721.46 708.088 1719.59 709.954 Q1718.57 710.973 1717.63 712.361 Q1716.68 713.748 1715.75 715.614 L1713.54 713.404 Q1714.56 711.599 1715.59 710.175 Q1716.63 708.739 1717.73 707.647 Q1720.55 704.823 1723.48 704.467 Q1726.4 704.099 1728.59 706.284 Q1730.11 707.806 1730.3 709.733 Q1730.47 711.649 1729.26 713.662 Z" fill="#000000" fill-rule="nonzero" fill-opacity="1" /><path clip-path="url(#clip160)" d="M1747.68 710.838 L1756.33 702.184 L1758.42 704.271 L1746.78 715.908 L1744.7 713.821 Q1744.65 710.949 1744.62 706.063 Q1744.6 701.153 1744.51 699.814 Q1744.36 697.286 1743.91 695.898 Q1743.46 694.487 1742.56 693.59 Q1741.1 692.13 1739.15 692.24 Q1737.21 692.338 1735.56 693.983 Q1734.4 695.149 1733.5 696.856 Q1732.62 698.55 1731.97 700.846 L1729.46 698.341 Q1730.36 696.242 1731.35 694.634 Q1732.35 693.026 1733.43 691.945 Q1736.27 689.097 1739.39 688.827 Q1742.51 688.557 1744.89 690.939 Q1746.02 692.068 1746.61 693.517 Q1747.2 694.941 1747.46 697.433 Q1747.51 698.096 1747.57 701.447 Q1747.62 704.786 1747.68 710.838 Z" fill="#000000" fill-rule="nonzero" fill-opacity="1" /><path clip-path="url(#clip160)" d="M1878.13 733.549 Q1876.22 735.464 1877.14 738.325 Q1878.06 741.16 1881.84 744.941 Q1885.61 748.71 1888.46 749.643 Q1891.3 750.552 1893.22 748.636 Q1895.15 746.709 1894.23 743.873 Q1893.31 741.013 1889.54 737.244 Q1885.76 733.463 1882.91 732.555 Q1880.06 731.622 1878.13 733.549 M1876.17 731.585 Q1879.25 728.504 1883.31 729.326 Q1887.38 730.124 1892.02 734.764 Q1896.64 739.393 1897.45 743.468 Q1898.26 747.519 1895.18 750.601 Q1892.1 753.682 1888.04 752.884 Q1883.98 752.061 1879.35 747.433 Q1874.71 742.793 1873.9 738.742 Q1873.09 734.666 1876.17 731.585 Z" fill="#000000" fill-rule="nonzero" fill-opacity="1" /><path clip-path="url(#clip160)" d="M1902.4 736.434 L1904.99 733.844 L1908.11 736.962 L1905.52 739.552 L1902.4 736.434 Z" fill="#000000" fill-rule="nonzero" fill-opacity="1" /><path clip-path="url(#clip160)" d="M1911.14 714.165 Q1913.3 712.766 1915.5 712.974 Q1917.71 713.171 1919.48 714.939 Q1922.19 717.652 1921.81 721.003 Q1921.43 724.354 1917.99 727.792 Q1916.84 728.946 1915.38 729.94 Q1913.94 730.934 1912.19 731.781 L1909.79 729.388 Q1911.42 728.958 1912.96 728.037 Q1914.49 727.116 1915.83 725.778 Q1918.16 723.446 1918.46 721.31 Q1918.77 719.162 1917.01 717.406 Q1915.39 715.786 1913.34 716.019 Q1911.29 716.228 1909.26 718.253 L1907.13 720.389 L1905.09 718.351 L1907.32 716.117 Q1909.15 714.288 1909.4 712.594 Q1909.63 710.887 1908.26 709.513 Q1906.85 708.101 1905.09 708.359 Q1903.33 708.592 1901.47 710.458 Q1900.45 711.477 1899.5 712.864 Q1898.56 714.251 1897.63 716.117 L1895.42 713.907 Q1896.44 712.103 1897.47 710.679 Q1898.51 709.242 1899.6 708.15 Q1902.43 705.326 1905.36 704.97 Q1908.28 704.602 1910.47 706.787 Q1911.99 708.309 1912.17 710.237 Q1912.35 712.152 1911.14 714.165 Z" fill="#000000" fill-rule="nonzero" fill-opacity="1" /><path clip-path="url(#clip160)" d="M1927.14 698.169 Q1929.3 696.77 1931.5 696.979 Q1933.71 697.175 1935.47 698.943 Q1938.19 701.656 1937.81 705.007 Q1937.43 708.359 1933.99 711.796 Q1932.83 712.95 1931.37 713.944 Q1929.94 714.939 1928.18 715.786 L1925.79 713.392 Q1927.42 712.962 1928.96 712.041 Q1930.49 711.121 1931.83 709.783 Q1934.16 707.45 1934.45 705.314 Q1934.76 703.166 1933.01 701.41 Q1931.39 699.79 1929.34 700.023 Q1927.29 700.232 1925.26 702.257 L1923.12 704.393 L1921.09 702.356 L1923.32 700.121 Q1925.15 698.292 1925.4 696.598 Q1925.63 694.892 1924.25 693.517 Q1922.84 692.105 1921.09 692.363 Q1919.33 692.596 1917.46 694.462 Q1916.45 695.481 1915.5 696.868 Q1914.56 698.255 1913.62 700.121 L1911.41 697.912 Q1912.43 696.107 1913.46 694.683 Q1914.51 693.247 1915.6 692.154 Q1918.42 689.331 1921.36 688.975 Q1924.28 688.606 1926.46 690.791 Q1927.99 692.314 1928.17 694.241 Q1928.34 696.156 1927.14 698.169 Z" fill="#000000" fill-rule="nonzero" fill-opacity="1" /><path clip-path="url(#clip160)" d="M2059.91 734.151 Q2058 736.066 2058.92 738.926 Q2059.84 741.762 2063.62 745.543 Q2067.39 749.312 2070.24 750.245 Q2073.08 751.153 2075 749.238 Q2076.93 747.311 2076.01 744.475 Q2075.09 741.615 2071.32 737.846 Q2067.54 734.065 2064.69 733.156 Q2061.84 732.223 2059.91 734.151 M2057.95 732.186 Q2061.03 729.105 2065.09 729.928 Q2069.16 730.726 2073.8 735.366 Q2078.42 739.994 2079.23 744.07 Q2080.04 748.121 2076.96 751.202 Q2073.88 754.283 2069.82 753.485 Q2065.76 752.663 2061.13 748.035 Q2056.49 743.395 2055.68 739.343 Q2054.87 735.268 2057.95 732.186 Z" fill="#000000" fill-rule="nonzero" fill-opacity="1" /><path clip-path="url(#clip160)" d="M2084.18 737.036 L2086.77 734.445 L2089.89 737.563 L2087.3 740.154 L2084.18 737.036 Z" fill="#000000" fill-rule="nonzero" fill-opacity="1" /><path clip-path="url(#clip160)" d="M2092.92 714.767 Q2095.08 713.367 2097.28 713.576 Q2099.49 713.772 2101.26 715.54 Q2103.97 718.253 2103.59 721.604 Q2103.21 724.956 2099.77 728.393 Q2098.62 729.547 2097.16 730.541 Q2095.72 731.536 2093.97 732.383 L2091.57 729.989 Q2093.2 729.559 2094.74 728.639 Q2096.27 727.718 2097.61 726.38 Q2099.94 724.047 2100.24 721.911 Q2100.55 719.763 2098.79 718.008 Q2097.17 716.387 2095.12 716.62 Q2093.07 716.829 2091.04 718.855 L2088.91 720.991 L2086.87 718.953 L2089.1 716.719 Q2090.93 714.889 2091.18 713.195 Q2091.41 711.489 2090.04 710.114 Q2088.63 708.702 2086.87 708.96 Q2085.11 709.193 2083.25 711.059 Q2082.23 712.078 2081.28 713.465 Q2080.34 714.853 2079.41 716.719 L2077.2 714.509 Q2078.22 712.704 2079.25 711.28 Q2080.29 709.844 2081.38 708.751 Q2084.21 705.928 2087.14 705.572 Q2090.06 705.204 2092.25 707.389 Q2093.77 708.911 2093.95 710.838 Q2094.13 712.753 2092.92 714.767 Z" fill="#000000" fill-rule="nonzero" fill-opacity="1" /><path clip-path="url(#clip160)" d="M2101.93 693.185 L2105.46 709.23 L2111.72 702.969 L2101.93 693.185 M2099.12 691.675 L2102.24 688.557 L2114.18 700.502 L2116.8 697.887 L2118.86 699.949 L2116.25 702.564 L2120.57 706.885 L2118.1 709.353 L2113.78 705.032 L2105.51 713.306 L2103.11 710.912 L2099.12 691.675 Z" fill="#000000" fill-rule="nonzero" fill-opacity="1" /><path clip-path="url(#clip160)" d="M2243.08 733.365 Q2241.16 735.28 2242.08 738.14 Q2243.01 740.976 2246.79 744.757 Q2250.56 748.526 2253.4 749.459 Q2256.25 750.367 2258.17 748.452 Q2260.09 746.525 2259.17 743.689 Q2258.25 740.829 2254.48 737.06 Q2250.7 733.279 2247.85 732.371 Q2245.01 731.438 2243.08 733.365 M2241.11 731.401 Q2244.2 728.32 2248.26 729.142 Q2252.32 729.94 2256.96 734.58 Q2261.59 739.208 2262.4 743.284 Q2263.21 747.335 2260.13 750.416 Q2257.05 753.498 2252.99 752.7 Q2248.92 751.877 2244.29 747.249 Q2239.65 742.609 2238.84 738.558 Q2238.03 734.482 2241.11 731.401 Z" fill="#000000" fill-rule="nonzero" fill-opacity="1" /><path clip-path="url(#clip160)" d="M2267.35 736.25 L2269.94 733.66 L2273.06 736.778 L2270.47 739.368 L2267.35 736.25 Z" fill="#000000" fill-rule="nonzero" fill-opacity="1" /><path clip-path="url(#clip160)" d="M2276.09 713.981 Q2278.25 712.582 2280.45 712.79 Q2282.66 712.987 2284.42 714.754 Q2287.14 717.467 2286.76 720.819 Q2286.38 724.17 2282.94 727.607 Q2281.79 728.761 2280.32 729.756 Q2278.89 730.75 2277.13 731.597 L2274.74 729.203 Q2276.37 728.774 2277.91 727.853 Q2279.44 726.932 2280.78 725.594 Q2283.11 723.262 2283.41 721.126 Q2283.71 718.977 2281.96 717.222 Q2280.34 715.601 2278.29 715.835 Q2276.24 716.043 2274.21 718.069 L2272.08 720.205 L2270.04 718.167 L2272.27 715.933 Q2274.1 714.104 2274.35 712.41 Q2274.58 710.703 2273.2 709.328 Q2271.79 707.917 2270.04 708.174 Q2268.28 708.408 2266.42 710.274 Q2265.4 711.293 2264.45 712.68 Q2263.51 714.067 2262.57 715.933 L2260.36 713.723 Q2261.38 711.919 2262.41 710.495 Q2263.46 709.058 2264.55 707.966 Q2267.37 705.142 2270.31 704.786 Q2273.23 704.418 2275.41 706.603 Q2276.94 708.125 2277.12 710.053 Q2277.29 711.968 2276.09 713.981 Z" fill="#000000" fill-rule="nonzero" fill-opacity="1" /><path clip-path="url(#clip160)" d="M2276.15 697.028 L2285.89 687.293 L2287.97 689.38 L2280.51 696.844 L2285 701.337 Q2285.36 700.612 2285.81 699.986 Q2286.25 699.348 2286.79 698.808 Q2289.86 695.739 2293.34 695.628 Q2296.81 695.518 2299.68 698.39 Q2302.64 701.349 2302.45 704.835 Q2302.24 708.309 2298.89 711.661 Q2297.73 712.815 2296.33 713.821 Q2294.95 714.816 2293.28 715.7 L2290.78 713.208 Q2292.49 712.704 2293.96 711.82 Q2295.44 710.937 2296.75 709.623 Q2298.87 707.499 2299 705.142 Q2299.12 702.785 2297.2 700.87 Q2295.29 698.955 2292.93 699.078 Q2290.58 699.201 2288.45 701.324 Q2287.46 702.319 2286.68 703.534 Q2285.92 704.737 2285.36 706.235 L2276.15 697.028 Z" fill="#000000" fill-rule="nonzero" fill-opacity="1" /><polyline clip-path="url(#clip160)" style="stroke:#000000; stroke-linecap:round; stroke-linejoin:round; stroke-width:4; stroke-opacity:1; fill:none" points="1328.14,662.16 1328.14,97.5521 "/>
<polyline clip-path="url(#clip160)" style="stroke:#000000; stroke-linecap:round; stroke-linejoin:round; stroke-width:4; stroke-opacity:1; fill:none" points="1328.14,662.16 1347.04,662.16 "/>
<polyline clip-path="url(#clip160)" style="stroke:#000000; stroke-linecap:round; stroke-linejoin:round; stroke-width:4; stroke-opacity:1; fill:none" points="1328.14,533.84 1347.04,533.84 "/>
<polyline clip-path="url(#clip160)" style="stroke:#000000; stroke-linecap:round; stroke-linejoin:round; stroke-width:4; stroke-opacity:1; fill:none" points="1328.14,405.52 1347.04,405.52 "/>
<polyline clip-path="url(#clip160)" style="stroke:#000000; stroke-linecap:round; stroke-linejoin:round; stroke-width:4; stroke-opacity:1; fill:none" points="1328.14,277.2 1347.04,277.2 "/>
<polyline clip-path="url(#clip160)" style="stroke:#000000; stroke-linecap:round; stroke-linejoin:round; stroke-width:4; stroke-opacity:1; fill:none" points="1328.14,148.88 1347.04,148.88 "/>
<path clip-path="url(#clip160)" d="M1283.18 651.509 Q1280.47 651.509 1279.1 654.183 Q1277.75 656.839 1277.75 662.186 Q1277.75 667.516 1279.1 670.19 Q1280.47 672.846 1283.18 672.846 Q1285.91 672.846 1287.26 670.19 Q1288.63 667.516 1288.63 662.186 Q1288.63 656.839 1287.26 654.183 Q1285.91 651.509 1283.18 651.509 M1283.18 648.732 Q1287.54 648.732 1289.83 652.186 Q1292.14 655.624 1292.14 662.186 Q1292.14 668.732 1289.83 672.186 Q1287.54 675.624 1283.18 675.624 Q1278.82 675.624 1276.51 672.186 Q1274.22 668.732 1274.22 662.186 Q1274.22 655.624 1276.51 652.186 Q1278.82 648.732 1283.18 648.732 Z" fill="#000000" fill-rule="nonzero" fill-opacity="1" /><path clip-path="url(#clip160)" d="M1256.08 543.849 L1268.32 543.849 L1268.32 546.8 L1251.86 546.8 L1251.86 543.849 Q1253.86 541.783 1257.29 538.311 Q1260.75 534.821 1261.63 533.814 Q1263.32 531.922 1263.98 530.62 Q1264.66 529.3 1264.66 528.033 Q1264.66 525.967 1263.2 524.665 Q1261.76 523.363 1259.43 523.363 Q1257.78 523.363 1255.94 523.936 Q1254.12 524.509 1252.03 525.672 L1252.03 522.13 Q1254.15 521.28 1255.99 520.846 Q1257.83 520.412 1259.36 520.412 Q1263.39 520.412 1265.78 522.425 Q1268.18 524.439 1268.18 527.807 Q1268.18 529.405 1267.57 530.846 Q1266.98 532.269 1265.4 534.214 Q1264.97 534.717 1262.64 537.13 Q1260.31 539.526 1256.08 543.849 Z" fill="#000000" fill-rule="nonzero" fill-opacity="1" /><path clip-path="url(#clip160)" d="M1283.18 523.189 Q1280.47 523.189 1279.1 525.863 Q1277.75 528.519 1277.75 533.866 Q1277.75 539.196 1279.1 541.87 Q1280.47 544.526 1283.18 544.526 Q1285.91 544.526 1287.26 541.87 Q1288.63 539.196 1288.63 533.866 Q1288.63 528.519 1287.26 525.863 Q1285.91 523.189 1283.18 523.189 M1283.18 520.412 Q1287.54 520.412 1289.83 523.866 Q1292.14 527.304 1292.14 533.866 Q1292.14 540.411 1289.83 543.866 Q1287.54 547.304 1283.18 547.304 Q1278.82 547.304 1276.51 543.866 Q1274.22 540.411 1274.22 533.866 Q1274.22 527.304 1276.51 523.866 Q1278.82 520.412 1283.18 520.412 Z" fill="#000000" fill-rule="nonzero" fill-opacity="1" /><path clip-path="url(#clip160)" d="M1262.69 395.616 L1253.84 409.453 L1262.69 409.453 L1262.69 395.616 M1261.77 392.56 L1266.18 392.56 L1266.18 409.453 L1269.88 409.453 L1269.88 412.369 L1266.18 412.369 L1266.18 418.48 L1262.69 418.48 L1262.69 412.369 L1250.99 412.369 L1250.99 408.984 L1261.77 392.56 Z" fill="#000000" fill-rule="nonzero" fill-opacity="1" /><path clip-path="url(#clip160)" d="M1283.18 394.869 Q1280.47 394.869 1279.1 397.543 Q1277.75 400.199 1277.75 405.546 Q1277.75 410.876 1279.1 413.55 Q1280.47 416.206 1283.18 416.206 Q1285.91 416.206 1287.26 413.55 Q1288.63 410.876 1288.63 405.546 Q1288.63 400.199 1287.26 397.543 Q1285.91 394.869 1283.18 394.869 M1283.18 392.092 Q1287.54 392.092 1289.83 395.546 Q1292.14 398.984 1292.14 405.546 Q1292.14 412.091 1289.83 415.546 Q1287.54 418.984 1283.18 418.984 Q1278.82 418.984 1276.51 415.546 Q1274.22 412.091 1274.22 405.546 Q1274.22 398.984 1276.51 395.546 Q1278.82 392.092 1283.18 392.092 Z" fill="#000000" fill-rule="nonzero" fill-opacity="1" /><path clip-path="url(#clip160)" d="M1260.99 275.803 Q1258.63 275.803 1257.24 277.417 Q1255.87 279.032 1255.87 281.844 Q1255.87 284.639 1257.24 286.271 Q1258.63 287.886 1260.99 287.886 Q1263.35 287.886 1264.72 286.271 Q1266.11 284.639 1266.11 281.844 Q1266.11 279.032 1264.72 277.417 Q1263.35 275.803 1260.99 275.803 M1267.95 264.813 L1267.95 268.008 Q1266.63 267.383 1265.28 267.053 Q1263.94 266.723 1262.62 266.723 Q1259.15 266.723 1257.31 269.067 Q1255.49 271.41 1255.23 276.15 Q1256.25 274.639 1257.8 273.841 Q1259.34 273.025 1261.2 273.025 Q1265.11 273.025 1267.36 275.403 Q1269.64 277.764 1269.64 281.844 Q1269.64 285.837 1267.28 288.25 Q1264.92 290.664 1260.99 290.664 Q1256.5 290.664 1254.12 287.226 Q1251.74 283.771 1251.74 277.226 Q1251.74 271.08 1254.66 267.435 Q1257.57 263.771 1262.49 263.771 Q1263.8 263.771 1265.14 264.032 Q1266.5 264.292 1267.95 264.813 Z" fill="#000000" fill-rule="nonzero" fill-opacity="1" /><path clip-path="url(#clip160)" d="M1283.18 266.549 Q1280.47 266.549 1279.1 269.223 Q1277.75 271.879 1277.75 277.226 Q1277.75 282.556 1279.1 285.23 Q1280.47 287.886 1283.18 287.886 Q1285.91 287.886 1287.26 285.23 Q1288.63 282.556 1288.63 277.226 Q1288.63 271.879 1287.26 269.223 Q1285.91 266.549 1283.18 266.549 M1283.18 263.771 Q1287.54 263.771 1289.83 267.226 Q1292.14 270.664 1292.14 277.226 Q1292.14 283.771 1289.83 287.226 Q1287.54 290.664 1283.18 290.664 Q1278.82 290.664 1276.51 287.226 Q1274.22 283.771 1274.22 277.226 Q1274.22 270.664 1276.51 267.226 Q1278.82 263.771 1283.18 263.771 Z" fill="#000000" fill-rule="nonzero" fill-opacity="1" /><path clip-path="url(#clip160)" d="M1260.56 149.531 Q1258.06 149.531 1256.62 150.868 Q1255.19 152.205 1255.19 154.549 Q1255.19 156.892 1256.62 158.229 Q1258.06 159.566 1260.56 159.566 Q1263.06 159.566 1264.5 158.229 Q1265.94 156.875 1265.94 154.549 Q1265.94 152.205 1264.5 150.868 Q1263.08 149.531 1260.56 149.531 M1257.05 148.038 Q1254.79 147.483 1253.53 145.937 Q1252.28 144.392 1252.28 142.17 Q1252.28 139.062 1254.48 137.257 Q1256.7 135.451 1260.56 135.451 Q1264.43 135.451 1266.63 137.257 Q1268.84 139.062 1268.84 142.17 Q1268.84 144.392 1267.57 145.937 Q1266.32 147.483 1264.08 148.038 Q1266.62 148.628 1268.02 150.347 Q1269.45 152.066 1269.45 154.549 Q1269.45 158.316 1267.14 160.33 Q1264.85 162.344 1260.56 162.344 Q1256.27 162.344 1253.96 160.33 Q1251.67 158.316 1251.67 154.549 Q1251.67 152.066 1253.09 150.347 Q1254.52 148.628 1257.05 148.038 M1255.77 142.5 Q1255.77 144.514 1257.02 145.642 Q1258.28 146.771 1260.56 146.771 Q1262.81 146.771 1264.08 145.642 Q1265.37 144.514 1265.37 142.5 Q1265.37 140.486 1264.08 139.358 Q1262.81 138.229 1260.56 138.229 Q1258.28 138.229 1257.02 139.358 Q1255.77 140.486 1255.77 142.5 Z" fill="#000000" fill-rule="nonzero" fill-opacity="1" /><path clip-path="url(#clip160)" d="M1283.18 138.229 Q1280.47 138.229 1279.1 140.903 Q1277.75 143.559 1277.75 148.906 Q1277.75 154.236 1279.1 156.91 Q1280.47 159.566 1283.18 159.566 Q1285.91 159.566 1287.26 156.91 Q1288.63 154.236 1288.63 148.906 Q1288.63 143.559 1287.26 140.903 Q1285.91 138.229 1283.18 138.229 M1283.18 135.451 Q1287.54 135.451 1289.83 138.906 Q1292.14 142.344 1292.14 148.906 Q1292.14 155.451 1289.83 158.906 Q1287.54 162.344 1283.18 162.344 Q1278.82 162.344 1276.51 158.906 Q1274.22 155.451 1274.22 148.906 Q1274.22 142.344 1276.51 138.906 Q1278.82 135.451 1283.18 135.451 Z" fill="#000000" fill-rule="nonzero" fill-opacity="1" /><path clip-path="url(#clip160)" d="M1340.04 18.9258 Q1336.52 18.9258 1334.62 21.4721 Q1332.63 24.1341 1332.63 28.5323 Q1332.63 33.185 1334.6 35.8702 Q1336.59 38.5322 1340.04 38.5322 Q1343.44 38.5322 1345.43 35.847 Q1347.42 33.1619 1347.42 28.5323 Q1347.42 24.2962 1345.43 21.4721 Q1343.6 18.9258 1340.04 18.9258 M1340.04 15.5462 L1354.18 15.5462 L1354.18 19.8054 L1349.41 19.8054 Q1351.93 23.4165 1351.93 28.5323 Q1351.93 34.898 1348.76 38.5091 Q1345.59 42.1433 1340.04 42.1433 Q1334.46 42.1433 1331.31 38.5091 Q1328.14 34.898 1328.14 28.5323 Q1328.14 22.1203 1331.31 18.5323 Q1333.92 15.5462 1340.04 15.5462 Z" fill="#000000" fill-rule="nonzero" fill-opacity="1" /><path clip-path="url(#clip160)" d="M1378.35 19.6666 Q1377.49 19.3656 1376.63 19.1342 Q1374.34 18.5323 1371.89 18.5323 Q1367.65 18.5323 1365.29 20.824 Q1363.09 22.9536 1362.67 26.8656 L1378.35 26.8656 L1378.35 30.1989 L1362.67 30.1989 Q1363.09 34.1109 1365.29 36.2405 Q1367.65 38.5322 1371.89 38.5322 Q1374.85 38.5322 1376.63 37.9304 L1378.35 37.3517 L1378.35 41.2174 L1376.52 41.634 Q1374.11 42.1433 1371.63 42.1433 Q1365.43 42.1433 1361.82 38.5322 Q1358.18 34.9211 1358.18 28.5323 Q1358.18 22.1434 1361.82 18.5323 Q1365.43 14.9212 1371.63 14.9212 Q1373.97 14.9212 1376.52 15.4305 Q1377.44 15.6157 1378.35 15.8934 L1378.35 19.6666 Z" fill="#000000" fill-rule="nonzero" fill-opacity="1" /><path clip-path="url(#clip163)" d="M1384.49 309.28 L1384.49 662.16 L1566.87 662.16 L1566.87 309.28 L1384.49 309.28 L1384.49 309.28  Z" fill="#009af9" fill-rule="evenodd" fill-opacity="1"/>
<polyline clip-path="url(#clip163)" style="stroke:#000000; stroke-linecap:round; stroke-linejoin:round; stroke-width:4; stroke-opacity:1; fill:none" points="1384.49,309.28 1384.49,662.16 1566.87,662.16 1566.87,309.28 1384.49,309.28 "/>
<path clip-path="url(#clip163)" d="M1566.87 444.016 L1566.87 662.16 L1749.26 662.16 L1749.26 444.016 L1566.87 444.016 L1566.87 444.016  Z" fill="#009af9" fill-rule="evenodd" fill-opacity="1"/>
<polyline clip-path="url(#clip163)" style="stroke:#000000; stroke-linecap:round; stroke-linejoin:round; stroke-width:4; stroke-opacity:1; fill:none" points="1566.87,444.016 1566.87,662.16 1749.26,662.16 1749.26,444.016 1566.87,444.016 "/>
<path clip-path="url(#clip163)" d="M1749.26 97.5521 L1749.26 662.16 L1931.64 662.16 L1931.64 97.5521 L1749.26 97.5521 L1749.26 97.5521  Z" fill="#009af9" fill-rule="evenodd" fill-opacity="1"/>
<polyline clip-path="url(#clip163)" style="stroke:#000000; stroke-linecap:round; stroke-linejoin:round; stroke-width:4; stroke-opacity:1; fill:none" points="1749.26,97.5521 1749.26,662.16 1931.64,662.16 1931.64,97.5521 1749.26,97.5521 "/>
<path clip-path="url(#clip163)" d="M1931.64 463.264 L1931.64 662.16 L2114.02 662.16 L2114.02 463.264 L1931.64 463.264 L1931.64 463.264  Z" fill="#009af9" fill-rule="evenodd" fill-opacity="1"/>
<polyline clip-path="url(#clip163)" style="stroke:#000000; stroke-linecap:round; stroke-linejoin:round; stroke-width:4; stroke-opacity:1; fill:none" points="1931.64,463.264 1931.64,662.16 2114.02,662.16 2114.02,463.264 1931.64,463.264 "/>
<path clip-path="url(#clip163)" d="M2114.02 578.752 L2114.02 662.16 L2296.4 662.16 L2296.4 578.752 L2114.02 578.752 L2114.02 578.752  Z" fill="#009af9" fill-rule="evenodd" fill-opacity="1"/>
<polyline clip-path="url(#clip163)" style="stroke:#000000; stroke-linecap:round; stroke-linejoin:round; stroke-width:4; stroke-opacity:1; fill:none" points="2114.02,578.752 2114.02,662.16 2296.4,662.16 2296.4,578.752 2114.02,578.752 "/>
<circle clip-path="url(#clip163)" style="fill:#009af9; stroke:none; fill-opacity:0" cx="1475.68" cy="309.28" r="2"/>
<circle clip-path="url(#clip163)" style="fill:#009af9; stroke:none; fill-opacity:0" cx="1658.07" cy="444.016" r="2"/>
<circle clip-path="url(#clip163)" style="fill:#009af9; stroke:none; fill-opacity:0" cx="1840.45" cy="97.5521" r="2"/>
<circle clip-path="url(#clip163)" style="fill:#009af9; stroke:none; fill-opacity:0" cx="2022.83" cy="463.264" r="2"/>
<circle clip-path="url(#clip163)" style="fill:#009af9; stroke:none; fill-opacity:0" cx="2205.21" cy="578.752" r="2"/>
<polyline clip-path="url(#clip163)" style="stroke:#ff0000; stroke-linecap:round; stroke-linejoin:round; stroke-width:8; stroke-opacity:1; fill:none" stroke-dasharray="32, 20" points="1868.92,1226.77 1868.92,-467.056 "/>
<polyline clip-path="url(#clip163)" style="stroke:#ff0000; stroke-linecap:round; stroke-linejoin:round; stroke-width:6; stroke-opacity:1; fill:none" stroke-dasharray="24, 12, 3, 12" points="1420.53,1226.77 1420.53,-467.056 "/>
<polyline clip-path="url(#clip163)" style="stroke:#ff0000; stroke-linecap:round; stroke-linejoin:round; stroke-width:6; stroke-opacity:1; fill:none" stroke-dasharray="24, 12, 3, 12" points="2235.27,1226.77 2235.27,-467.056 "/>
<path clip-path="url(#clip160)" d="M128.138 1456.91 L1152.76 1456.91 L1152.76 892.306 L128.138 892.306  Z" fill="#ffffff" fill-rule="evenodd" fill-opacity="1"/>
<defs>
  <clipPath id="clip164">
    <rect x="128" y="892" width="1026" height="566"/>
  </clipPath>
</defs>
<polyline clip-path="url(#clip164)" style="stroke:#000000; stroke-linecap:round; stroke-linejoin:round; stroke-width:2; stroke-opacity:0.1; fill:none" points="336.478,1456.91 336.478,892.306 "/>
<polyline clip-path="url(#clip164)" style="stroke:#000000; stroke-linecap:round; stroke-linejoin:round; stroke-width:2; stroke-opacity:0.1; fill:none" points="589.785,1456.91 589.785,892.306 "/>
<polyline clip-path="url(#clip164)" style="stroke:#000000; stroke-linecap:round; stroke-linejoin:round; stroke-width:2; stroke-opacity:0.1; fill:none" points="843.093,1456.91 843.093,892.306 "/>
<polyline clip-path="url(#clip164)" style="stroke:#000000; stroke-linecap:round; stroke-linejoin:round; stroke-width:2; stroke-opacity:0.1; fill:none" points="1096.4,1456.91 1096.4,892.306 "/>
<polyline clip-path="url(#clip164)" style="stroke:#000000; stroke-linecap:round; stroke-linejoin:round; stroke-width:2; stroke-opacity:0.1; fill:none" points="128.138,1456.91 1152.76,1456.91 "/>
<polyline clip-path="url(#clip164)" style="stroke:#000000; stroke-linecap:round; stroke-linejoin:round; stroke-width:2; stroke-opacity:0.1; fill:none" points="128.138,1348.34 1152.76,1348.34 "/>
<polyline clip-path="url(#clip164)" style="stroke:#000000; stroke-linecap:round; stroke-linejoin:round; stroke-width:2; stroke-opacity:0.1; fill:none" points="128.138,1239.76 1152.76,1239.76 "/>
<polyline clip-path="url(#clip164)" style="stroke:#000000; stroke-linecap:round; stroke-linejoin:round; stroke-width:2; stroke-opacity:0.1; fill:none" points="128.138,1131.18 1152.76,1131.18 "/>
<polyline clip-path="url(#clip164)" style="stroke:#000000; stroke-linecap:round; stroke-linejoin:round; stroke-width:2; stroke-opacity:0.1; fill:none" points="128.138,1022.6 1152.76,1022.6 "/>
<polyline clip-path="url(#clip164)" style="stroke:#000000; stroke-linecap:round; stroke-linejoin:round; stroke-width:2; stroke-opacity:0.1; fill:none" points="128.138,914.022 1152.76,914.022 "/>
<polyline clip-path="url(#clip160)" style="stroke:#000000; stroke-linecap:round; stroke-linejoin:round; stroke-width:4; stroke-opacity:1; fill:none" points="128.138,1456.91 1152.76,1456.91 "/>
<polyline clip-path="url(#clip160)" style="stroke:#000000; stroke-linecap:round; stroke-linejoin:round; stroke-width:4; stroke-opacity:1; fill:none" points="336.478,1456.91 336.478,1438.02 "/>
<polyline clip-path="url(#clip160)" style="stroke:#000000; stroke-linecap:round; stroke-linejoin:round; stroke-width:4; stroke-opacity:1; fill:none" points="589.785,1456.91 589.785,1438.02 "/>
<polyline clip-path="url(#clip160)" style="stroke:#000000; stroke-linecap:round; stroke-linejoin:round; stroke-width:4; stroke-opacity:1; fill:none" points="843.093,1456.91 843.093,1438.02 "/>
<polyline clip-path="url(#clip160)" style="stroke:#000000; stroke-linecap:round; stroke-linejoin:round; stroke-width:4; stroke-opacity:1; fill:none" points="1096.4,1456.91 1096.4,1438.02 "/>
<path clip-path="url(#clip160)" d="M267.161 1544.11 Q265.246 1546.03 266.167 1548.89 Q267.087 1551.73 270.868 1555.51 Q274.637 1559.28 277.485 1560.21 Q280.333 1561.12 282.248 1559.2 Q284.176 1557.27 283.255 1554.44 Q282.334 1551.58 278.566 1547.81 Q274.784 1544.03 271.936 1543.12 Q269.088 1542.19 267.161 1544.11 M265.197 1542.15 Q268.278 1539.07 272.342 1539.89 Q276.405 1540.69 281.045 1545.33 Q285.673 1549.96 286.484 1554.03 Q287.294 1558.08 284.213 1561.17 Q281.131 1564.25 277.068 1563.45 Q273.004 1562.63 268.376 1558 Q263.736 1553.36 262.926 1549.31 Q262.116 1545.23 265.197 1542.15 Z" fill="#000000" fill-rule="nonzero" fill-opacity="1" /><path clip-path="url(#clip160)" d="M291.431 1547 L294.021 1544.41 L297.139 1547.53 L294.549 1550.12 L291.431 1547 Z" fill="#000000" fill-rule="nonzero" fill-opacity="1" /><path clip-path="url(#clip160)" d="M284.237 1523.77 L293.972 1514.04 L296.059 1516.13 L288.595 1523.59 L293.088 1528.08 Q293.444 1527.36 293.898 1526.73 Q294.34 1526.09 294.88 1525.55 Q297.949 1522.48 301.424 1522.37 Q304.898 1522.26 307.77 1525.14 Q310.729 1528.09 310.532 1531.58 Q310.324 1535.05 306.972 1538.41 Q305.818 1539.56 304.419 1540.57 Q303.032 1541.56 301.362 1542.45 L298.87 1539.95 Q300.577 1539.45 302.05 1538.57 Q303.523 1537.68 304.836 1536.37 Q306.96 1534.24 307.083 1531.89 Q307.206 1529.53 305.291 1527.62 Q303.375 1525.7 301.018 1525.82 Q298.661 1525.95 296.538 1528.07 Q295.543 1529.06 294.77 1530.28 Q294.009 1531.48 293.444 1532.98 L284.237 1523.77 Z" fill="#000000" fill-rule="nonzero" fill-opacity="1" /><path clip-path="url(#clip160)" d="M316.167 1508.74 Q318.328 1507.34 320.525 1507.54 Q322.735 1507.74 324.503 1509.51 Q327.216 1512.22 326.835 1515.57 Q326.455 1518.92 323.017 1522.36 Q321.863 1523.52 320.402 1524.51 Q318.966 1525.5 317.211 1526.35 L314.817 1523.96 Q316.45 1523.53 317.984 1522.61 Q319.519 1521.69 320.857 1520.35 Q323.189 1518.02 323.484 1515.88 Q323.791 1513.73 322.035 1511.98 Q320.415 1510.36 318.365 1510.59 Q316.314 1510.8 314.289 1512.82 L312.153 1514.96 L310.115 1512.92 L312.349 1510.69 Q314.178 1508.86 314.424 1507.16 Q314.657 1505.46 313.282 1504.08 Q311.871 1502.67 310.115 1502.93 Q308.36 1503.16 306.494 1505.03 Q305.475 1506.05 304.529 1507.43 Q303.584 1508.82 302.651 1510.69 L300.442 1508.48 Q301.46 1506.67 302.492 1505.25 Q303.535 1503.81 304.628 1502.72 Q307.451 1499.9 310.385 1499.54 Q313.307 1499.17 315.492 1501.36 Q317.014 1502.88 317.198 1504.81 Q317.37 1506.72 316.167 1508.74 Z" fill="#000000" fill-rule="nonzero" fill-opacity="1" /><path clip-path="url(#clip160)" d="M316.229 1491.78 L325.964 1482.05 L328.05 1484.13 L320.587 1491.6 L325.08 1496.09 Q325.436 1495.37 325.89 1494.74 Q326.332 1494.1 326.872 1493.56 Q329.941 1490.49 333.415 1490.38 Q336.889 1490.27 339.762 1493.14 Q342.72 1496.1 342.524 1499.59 Q342.315 1503.06 338.964 1506.41 Q337.81 1507.57 336.41 1508.58 Q335.023 1509.57 333.354 1510.45 L330.862 1507.96 Q332.568 1507.46 334.041 1506.57 Q335.514 1505.69 336.828 1504.38 Q338.952 1502.25 339.074 1499.9 Q339.197 1497.54 337.282 1495.62 Q335.367 1493.71 333.01 1493.83 Q330.653 1493.95 328.529 1496.08 Q327.535 1497.07 326.761 1498.29 Q326 1499.49 325.436 1500.99 L316.229 1491.78 Z" fill="#000000" fill-rule="nonzero" fill-opacity="1" /><path clip-path="url(#clip160)" d="M519.941 1544.64 Q518.025 1546.56 518.946 1549.42 Q519.867 1552.25 523.648 1556.03 Q527.417 1559.8 530.265 1560.74 Q533.113 1561.65 535.028 1559.73 Q536.955 1557.8 536.034 1554.97 Q535.114 1552.11 531.345 1548.34 Q527.564 1544.56 524.716 1543.65 Q521.868 1542.72 519.941 1544.64 M517.976 1542.68 Q521.058 1539.6 525.121 1540.42 Q529.184 1541.22 533.825 1545.86 Q538.453 1550.49 539.263 1554.56 Q540.073 1558.61 536.992 1561.69 Q533.911 1564.78 529.847 1563.98 Q525.784 1563.15 521.156 1558.53 Q516.515 1553.89 515.705 1549.84 Q514.895 1545.76 517.976 1542.68 Z" fill="#000000" fill-rule="nonzero" fill-opacity="1" /><path clip-path="url(#clip160)" d="M544.21 1547.53 L546.801 1544.94 L549.919 1548.06 L547.328 1550.65 L544.21 1547.53 Z" fill="#000000" fill-rule="nonzero" fill-opacity="1" /><path clip-path="url(#clip160)" d="M537.017 1524.3 L546.752 1514.57 L548.838 1516.65 L541.375 1524.12 L545.868 1528.61 Q546.224 1527.89 546.678 1527.26 Q547.12 1526.62 547.66 1526.08 Q550.729 1523.01 554.203 1522.9 Q557.677 1522.79 560.55 1525.66 Q563.508 1528.62 563.312 1532.11 Q563.103 1535.58 559.752 1538.93 Q558.598 1540.09 557.198 1541.09 Q555.811 1542.09 554.142 1542.97 L551.65 1540.48 Q553.356 1539.98 554.829 1539.09 Q556.302 1538.21 557.616 1536.9 Q559.74 1534.77 559.862 1532.42 Q559.985 1530.06 558.07 1528.14 Q556.155 1526.23 553.798 1526.35 Q551.441 1526.47 549.317 1528.6 Q548.323 1529.59 547.549 1530.81 Q546.788 1532.01 546.224 1533.51 L537.017 1524.3 Z" fill="#000000" fill-rule="nonzero" fill-opacity="1" /><path clip-path="url(#clip160)" d="M561.962 1503.68 L565.485 1519.72 L571.746 1513.46 L561.962 1503.68 M559.15 1502.17 L562.268 1499.05 L574.213 1510.99 L576.828 1508.38 L578.89 1510.44 L576.276 1513.06 L580.597 1517.38 L578.129 1519.84 L573.808 1515.52 L565.534 1523.8 L563.14 1521.4 L559.15 1502.17 Z" fill="#000000" fill-rule="nonzero" fill-opacity="1" /><path clip-path="url(#clip160)" d="M575.92 1488.66 Q574.004 1490.58 574.925 1493.44 Q575.846 1496.27 579.627 1500.06 Q583.396 1503.82 586.244 1504.76 Q589.092 1505.67 591.007 1503.75 Q592.934 1501.82 592.013 1498.99 Q591.093 1496.13 587.324 1492.36 Q583.543 1488.58 580.695 1487.67 Q577.847 1486.74 575.92 1488.66 M573.955 1486.7 Q577.037 1483.62 581.1 1484.44 Q585.163 1485.24 589.804 1489.88 Q594.432 1494.51 595.242 1498.58 Q596.052 1502.63 592.971 1505.72 Q589.89 1508.8 585.826 1508 Q581.763 1507.18 577.135 1502.55 Q572.494 1497.91 571.684 1493.86 Q570.874 1489.78 573.955 1486.7 Z" fill="#000000" fill-rule="nonzero" fill-opacity="1" /><path clip-path="url(#clip160)" d="M773.776 1544.11 Q771.861 1546.03 772.781 1548.89 Q773.702 1551.73 777.483 1555.51 Q781.252 1559.28 784.1 1560.21 Q786.948 1561.12 788.863 1559.2 Q790.79 1557.27 789.87 1554.44 Q788.949 1551.58 785.18 1547.81 Q781.399 1544.03 778.551 1543.12 Q775.703 1542.19 773.776 1544.11 M771.812 1542.15 Q774.893 1539.07 778.956 1539.89 Q783.02 1540.69 787.66 1545.33 Q792.288 1549.96 793.098 1554.03 Q793.909 1558.08 790.827 1561.17 Q787.746 1564.25 783.683 1563.45 Q779.619 1562.63 774.991 1558 Q770.351 1553.36 769.541 1549.31 Q768.73 1545.23 771.812 1542.15 Z" fill="#000000" fill-rule="nonzero" fill-opacity="1" /><path clip-path="url(#clip160)" d="M798.046 1547 L800.636 1544.41 L803.754 1547.53 L801.164 1550.12 L798.046 1547 Z" fill="#000000" fill-rule="nonzero" fill-opacity="1" /><path clip-path="url(#clip160)" d="M790.852 1523.77 L800.587 1514.04 L802.674 1516.13 L795.21 1523.59 L799.703 1528.08 Q800.059 1527.36 800.513 1526.73 Q800.955 1526.09 801.495 1525.55 Q804.564 1522.48 808.038 1522.37 Q811.512 1522.26 814.385 1525.14 Q817.344 1528.09 817.147 1531.58 Q816.938 1535.05 813.587 1538.41 Q812.433 1539.56 811.034 1540.57 Q809.646 1541.56 807.977 1542.45 L805.485 1539.95 Q807.191 1539.45 808.664 1538.57 Q810.138 1537.68 811.451 1536.37 Q813.575 1534.24 813.698 1531.89 Q813.82 1529.53 811.905 1527.62 Q809.99 1525.7 807.633 1525.82 Q805.276 1525.95 803.152 1528.07 Q802.158 1529.06 801.385 1530.28 Q800.624 1531.48 800.059 1532.98 L790.852 1523.77 Z" fill="#000000" fill-rule="nonzero" fill-opacity="1" /><path clip-path="url(#clip160)" d="M815.797 1503.15 L819.32 1519.19 L825.581 1512.93 L815.797 1503.15 M812.986 1501.64 L816.104 1498.52 L828.048 1510.47 L830.663 1507.85 L832.726 1509.91 L830.111 1512.53 L834.432 1516.85 L831.964 1519.32 L827.643 1515 L819.369 1523.27 L816.975 1520.88 L812.986 1501.64 Z" fill="#000000" fill-rule="nonzero" fill-opacity="1" /><path clip-path="url(#clip160)" d="M822.843 1491.78 L832.578 1482.05 L834.665 1484.13 L827.201 1491.6 L831.694 1496.09 Q832.05 1495.37 832.505 1494.74 Q832.947 1494.1 833.487 1493.56 Q836.556 1490.49 840.03 1490.38 Q843.504 1490.27 846.377 1493.14 Q849.335 1496.1 849.139 1499.59 Q848.93 1503.06 845.579 1506.41 Q844.425 1507.57 843.025 1508.58 Q841.638 1509.57 839.968 1510.45 L837.476 1507.96 Q839.183 1507.46 840.656 1506.57 Q842.129 1505.69 843.443 1504.38 Q845.566 1502.25 845.689 1499.9 Q845.812 1497.54 843.897 1495.62 Q841.982 1493.71 839.625 1493.83 Q837.268 1493.95 835.144 1496.08 Q834.15 1497.07 833.376 1498.29 Q832.615 1499.49 832.05 1500.99 L822.843 1491.78 Z" fill="#000000" fill-rule="nonzero" fill-opacity="1" /><path clip-path="url(#clip160)" d="M1026.56 1544.64 Q1024.64 1546.56 1025.56 1549.42 Q1026.48 1552.25 1030.26 1556.03 Q1034.03 1559.8 1036.88 1560.74 Q1039.73 1561.65 1041.64 1559.73 Q1043.57 1557.8 1042.65 1554.97 Q1041.73 1552.11 1037.96 1548.34 Q1034.18 1544.56 1031.33 1543.65 Q1028.48 1542.72 1026.56 1544.64 M1024.59 1542.68 Q1027.67 1539.6 1031.74 1540.42 Q1035.8 1541.22 1040.44 1545.86 Q1045.07 1550.49 1045.88 1554.56 Q1046.69 1558.61 1043.61 1561.69 Q1040.53 1564.78 1036.46 1563.98 Q1032.4 1563.15 1027.77 1558.53 Q1023.13 1553.89 1022.32 1549.84 Q1021.51 1545.76 1024.59 1542.68 Z" fill="#000000" fill-rule="nonzero" fill-opacity="1" /><path clip-path="url(#clip160)" d="M1050.83 1547.53 L1053.42 1544.94 L1056.53 1548.06 L1053.94 1550.65 L1050.83 1547.53 Z" fill="#000000" fill-rule="nonzero" fill-opacity="1" /><path clip-path="url(#clip160)" d="M1043.63 1524.3 L1053.37 1514.57 L1055.45 1516.65 L1047.99 1524.12 L1052.48 1528.61 Q1052.84 1527.89 1053.29 1527.26 Q1053.73 1526.62 1054.27 1526.08 Q1057.34 1523.01 1060.82 1522.9 Q1064.29 1522.79 1067.16 1525.66 Q1070.12 1528.62 1069.93 1532.11 Q1069.72 1535.58 1066.37 1538.93 Q1065.21 1540.09 1063.81 1541.09 Q1062.43 1542.09 1060.76 1542.97 L1058.26 1540.48 Q1059.97 1539.98 1061.44 1539.09 Q1062.92 1538.21 1064.23 1536.9 Q1066.35 1534.77 1066.48 1532.42 Q1066.6 1530.06 1064.68 1528.14 Q1062.77 1526.23 1060.41 1526.35 Q1058.06 1526.47 1055.93 1528.6 Q1054.94 1529.59 1054.16 1530.81 Q1053.4 1532.01 1052.84 1533.51 L1043.63 1524.3 Z" fill="#000000" fill-rule="nonzero" fill-opacity="1" /><path clip-path="url(#clip160)" d="M1059.63 1508.31 L1069.36 1498.57 L1071.45 1500.66 L1063.99 1508.12 L1068.48 1512.61 Q1068.83 1511.89 1069.29 1511.26 Q1069.73 1510.63 1070.27 1510.09 Q1073.34 1507.02 1076.81 1506.91 Q1080.29 1506.8 1083.16 1509.67 Q1086.12 1512.63 1085.92 1516.11 Q1085.71 1519.59 1082.36 1522.94 Q1081.21 1524.09 1079.81 1525.1 Q1078.42 1526.09 1076.75 1526.98 L1074.26 1524.49 Q1075.97 1523.98 1077.44 1523.1 Q1078.91 1522.21 1080.23 1520.9 Q1082.35 1518.78 1082.47 1516.42 Q1082.6 1514.06 1080.68 1512.15 Q1078.77 1510.23 1076.41 1510.36 Q1074.05 1510.48 1071.93 1512.6 Q1070.93 1513.6 1070.16 1514.81 Q1069.4 1516.01 1068.83 1517.51 L1059.63 1508.31 Z" fill="#000000" fill-rule="nonzero" fill-opacity="1" /><path clip-path="url(#clip160)" d="M1082.53 1488.66 Q1080.62 1490.58 1081.54 1493.44 Q1082.46 1496.27 1086.24 1500.06 Q1090.01 1503.82 1092.86 1504.76 Q1095.71 1505.67 1097.62 1503.75 Q1099.55 1501.82 1098.63 1498.99 Q1097.71 1496.13 1093.94 1492.36 Q1090.16 1488.58 1087.31 1487.67 Q1084.46 1486.74 1082.53 1488.66 M1080.57 1486.7 Q1083.65 1483.62 1087.71 1484.44 Q1091.78 1485.24 1096.42 1489.88 Q1101.05 1494.51 1101.86 1498.58 Q1102.67 1502.63 1099.59 1505.72 Q1096.5 1508.8 1092.44 1508 Q1088.38 1507.18 1083.75 1502.55 Q1079.11 1497.91 1078.3 1493.86 Q1077.49 1489.78 1080.57 1486.7 Z" fill="#000000" fill-rule="nonzero" fill-opacity="1" /><polyline clip-path="url(#clip160)" style="stroke:#000000; stroke-linecap:round; stroke-linejoin:round; stroke-width:4; stroke-opacity:1; fill:none" points="128.138,1456.91 128.138,892.306 "/>
<polyline clip-path="url(#clip160)" style="stroke:#000000; stroke-linecap:round; stroke-linejoin:round; stroke-width:4; stroke-opacity:1; fill:none" points="128.138,1456.91 147.035,1456.91 "/>
<polyline clip-path="url(#clip160)" style="stroke:#000000; stroke-linecap:round; stroke-linejoin:round; stroke-width:4; stroke-opacity:1; fill:none" points="128.138,1348.34 147.035,1348.34 "/>
<polyline clip-path="url(#clip160)" style="stroke:#000000; stroke-linecap:round; stroke-linejoin:round; stroke-width:4; stroke-opacity:1; fill:none" points="128.138,1239.76 147.035,1239.76 "/>
<polyline clip-path="url(#clip160)" style="stroke:#000000; stroke-linecap:round; stroke-linejoin:round; stroke-width:4; stroke-opacity:1; fill:none" points="128.138,1131.18 147.035,1131.18 "/>
<polyline clip-path="url(#clip160)" style="stroke:#000000; stroke-linecap:round; stroke-linejoin:round; stroke-width:4; stroke-opacity:1; fill:none" points="128.138,1022.6 147.035,1022.6 "/>
<polyline clip-path="url(#clip160)" style="stroke:#000000; stroke-linecap:round; stroke-linejoin:round; stroke-width:4; stroke-opacity:1; fill:none" points="128.138,914.022 147.035,914.022 "/>
<path clip-path="url(#clip160)" d="M83.1795 1446.26 Q80.4711 1446.26 79.0996 1448.94 Q77.7455 1451.59 77.7455 1456.94 Q77.7455 1462.27 79.0996 1464.94 Q80.4711 1467.6 83.1795 1467.6 Q85.9051 1467.6 87.2593 1464.94 Q88.6308 1462.27 88.6308 1456.94 Q88.6308 1451.59 87.2593 1448.94 Q85.9051 1446.26 83.1795 1446.26 M83.1795 1443.49 Q87.5371 1443.49 89.8287 1446.94 Q92.1377 1450.38 92.1377 1456.94 Q92.1377 1463.49 89.8287 1466.94 Q87.5371 1470.38 83.1795 1470.38 Q78.8218 1470.38 76.5128 1466.94 Q74.2212 1463.49 74.2212 1456.94 Q74.2212 1450.38 76.5128 1446.94 Q78.8218 1443.49 83.1795 1443.49 Z" fill="#000000" fill-rule="nonzero" fill-opacity="1" /><path clip-path="url(#clip160)" d="M53.6657 1358.34 L59.3949 1358.34 L59.3949 1338.57 L53.1623 1339.82 L53.1623 1336.63 L59.3601 1335.38 L62.8671 1335.38 L62.8671 1358.34 L68.5962 1358.34 L68.5962 1361.3 L53.6657 1361.3 L53.6657 1358.34 Z" fill="#000000" fill-rule="nonzero" fill-opacity="1" /><path clip-path="url(#clip160)" d="M83.1795 1337.68 Q80.4711 1337.68 79.0996 1340.36 Q77.7455 1343.01 77.7455 1348.36 Q77.7455 1353.69 79.0996 1356.37 Q80.4711 1359.02 83.1795 1359.02 Q85.9051 1359.02 87.2593 1356.37 Q88.6308 1353.69 88.6308 1348.36 Q88.6308 1343.01 87.2593 1340.36 Q85.9051 1337.68 83.1795 1337.68 M83.1795 1334.91 Q87.5371 1334.91 89.8287 1338.36 Q92.1377 1341.8 92.1377 1348.36 Q92.1377 1354.91 89.8287 1358.36 Q87.5371 1361.8 83.1795 1361.8 Q78.8218 1361.8 76.5128 1358.36 Q74.2212 1354.91 74.2212 1348.36 Q74.2212 1341.8 76.5128 1338.36 Q78.8218 1334.91 83.1795 1334.91 Z" fill="#000000" fill-rule="nonzero" fill-opacity="1" /><path clip-path="url(#clip160)" d="M56.0789 1249.77 L68.3184 1249.77 L68.3184 1252.72 L51.8602 1252.72 L51.8602 1249.77 Q53.8567 1247.7 57.2942 1244.23 Q60.749 1240.74 61.6344 1239.73 Q63.3184 1237.84 63.9782 1236.54 Q64.6552 1235.22 64.6552 1233.95 Q64.6552 1231.88 63.1969 1230.58 Q61.756 1229.28 59.4296 1229.28 Q57.7803 1229.28 55.94 1229.85 Q54.1171 1230.43 52.0338 1231.59 L52.0338 1228.05 Q54.1518 1227.2 55.9921 1226.76 Q57.8324 1226.33 59.3601 1226.33 Q63.3879 1226.33 65.7837 1228.34 Q68.1795 1230.36 68.1795 1233.72 Q68.1795 1235.32 67.5719 1236.76 Q66.9816 1238.19 65.4018 1240.13 Q64.9677 1240.63 62.6414 1243.05 Q60.315 1245.44 56.0789 1249.77 Z" fill="#000000" fill-rule="nonzero" fill-opacity="1" /><path clip-path="url(#clip160)" d="M83.1795 1229.11 Q80.4711 1229.11 79.0996 1231.78 Q77.7455 1234.44 77.7455 1239.78 Q77.7455 1245.11 79.0996 1247.79 Q80.4711 1250.44 83.1795 1250.44 Q85.9051 1250.44 87.2593 1247.79 Q88.6308 1245.11 88.6308 1239.78 Q88.6308 1234.44 87.2593 1231.78 Q85.9051 1229.11 83.1795 1229.11 M83.1795 1226.33 Q87.5371 1226.33 89.8287 1229.78 Q92.1377 1233.22 92.1377 1239.78 Q92.1377 1246.33 89.8287 1249.78 Q87.5371 1253.22 83.1795 1253.22 Q78.8218 1253.22 76.5128 1249.78 Q74.2212 1246.33 74.2212 1239.78 Q74.2212 1233.22 76.5128 1229.78 Q78.8218 1226.33 83.1795 1226.33 Z" fill="#000000" fill-rule="nonzero" fill-opacity="1" /><path clip-path="url(#clip160)" d="M63.683 1130.16 Q66.2004 1130.7 67.6066 1132.4 Q69.0302 1134.1 69.0302 1136.6 Q69.0302 1140.44 66.3913 1142.54 Q63.7525 1144.64 58.8914 1144.64 Q57.2595 1144.64 55.5234 1144.31 Q53.8046 1144 51.9643 1143.36 L51.9643 1139.97 Q53.4227 1140.82 55.1588 1141.26 Q56.8949 1141.69 58.7872 1141.69 Q62.0858 1141.69 63.8046 1140.39 Q65.5407 1139.09 65.5407 1136.6 Q65.5407 1134.31 63.9261 1133.03 Q62.3289 1131.73 59.4643 1131.73 L56.4435 1131.73 L56.4435 1128.84 L59.6032 1128.84 Q62.19 1128.84 63.5615 1127.82 Q64.933 1126.78 64.933 1124.83 Q64.933 1122.84 63.5094 1121.78 Q62.1032 1120.7 59.4643 1120.7 Q58.0233 1120.7 56.374 1121.01 Q54.7247 1121.33 52.7456 1121.99 L52.7456 1118.86 Q54.7421 1118.31 56.4782 1118.03 Q58.2317 1117.75 59.7768 1117.75 Q63.7698 1117.75 66.0962 1119.57 Q68.4226 1121.38 68.4226 1124.47 Q68.4226 1126.62 67.19 1128.11 Q65.9573 1129.59 63.683 1130.16 Z" fill="#000000" fill-rule="nonzero" fill-opacity="1" /><path clip-path="url(#clip160)" d="M83.1795 1120.53 Q80.4711 1120.53 79.0996 1123.2 Q77.7455 1125.86 77.7455 1131.2 Q77.7455 1136.53 79.0996 1139.21 Q80.4711 1141.86 83.1795 1141.86 Q85.9051 1141.86 87.2593 1139.21 Q88.6308 1136.53 88.6308 1131.2 Q88.6308 1125.86 87.2593 1123.2 Q85.9051 1120.53 83.1795 1120.53 M83.1795 1117.75 Q87.5371 1117.75 89.8287 1121.2 Q92.1377 1124.64 92.1377 1131.2 Q92.1377 1137.75 89.8287 1141.2 Q87.5371 1144.64 83.1795 1144.64 Q78.8218 1144.64 76.5128 1141.2 Q74.2212 1137.75 74.2212 1131.2 Q74.2212 1124.64 76.5128 1121.2 Q78.8218 1117.75 83.1795 1117.75 Z" fill="#000000" fill-rule="nonzero" fill-opacity="1" /><path clip-path="url(#clip160)" d="M62.6935 1012.7 L53.8393 1026.53 L62.6935 1026.53 L62.6935 1012.7 M61.7733 1009.64 L66.183 1009.64 L66.183 1026.53 L69.8809 1026.53 L69.8809 1029.45 L66.183 1029.45 L66.183 1035.56 L62.6935 1035.56 L62.6935 1029.45 L50.9921 1029.45 L50.9921 1026.06 L61.7733 1009.64 Z" fill="#000000" fill-rule="nonzero" fill-opacity="1" /><path clip-path="url(#clip160)" d="M83.1795 1011.95 Q80.4711 1011.95 79.0996 1014.62 Q77.7455 1017.28 77.7455 1022.63 Q77.7455 1027.96 79.0996 1030.63 Q80.4711 1033.29 83.1795 1033.29 Q85.9051 1033.29 87.2593 1030.63 Q88.6308 1027.96 88.6308 1022.63 Q88.6308 1017.28 87.2593 1014.62 Q85.9051 1011.95 83.1795 1011.95 M83.1795 1009.17 Q87.5371 1009.17 89.8287 1012.63 Q92.1377 1016.06 92.1377 1022.63 Q92.1377 1029.17 89.8287 1032.63 Q87.5371 1036.06 83.1795 1036.06 Q78.8218 1036.06 76.5128 1032.63 Q74.2212 1029.17 74.2212 1022.63 Q74.2212 1016.06 76.5128 1012.63 Q78.8218 1009.17 83.1795 1009.17 Z" fill="#000000" fill-rule="nonzero" fill-opacity="1" /><path clip-path="url(#clip160)" d="M53.0928 901.062 L66.8601 901.062 L66.8601 904.013 L56.3046 904.013 L56.3046 910.367 Q57.0685 910.107 57.8324 909.985 Q58.5963 909.847 59.3601 909.847 Q63.7004 909.847 66.2351 912.225 Q68.7698 914.603 68.7698 918.666 Q68.7698 922.85 66.1657 925.176 Q63.5615 927.485 58.8219 927.485 Q57.19 927.485 55.4886 927.208 Q53.8046 926.93 51.9991 926.374 L51.9991 922.85 Q53.5616 923.701 55.2282 924.117 Q56.8949 924.534 58.7525 924.534 Q61.756 924.534 63.5094 922.954 Q65.2629 921.374 65.2629 918.666 Q65.2629 915.958 63.5094 914.378 Q61.756 912.798 58.7525 912.798 Q57.3463 912.798 55.94 913.11 Q54.5511 913.423 53.0928 914.083 L53.0928 901.062 Z" fill="#000000" fill-rule="nonzero" fill-opacity="1" /><path clip-path="url(#clip160)" d="M83.1795 903.371 Q80.4711 903.371 79.0996 906.044 Q77.7455 908.701 77.7455 914.048 Q77.7455 919.378 79.0996 922.051 Q80.4711 924.708 83.1795 924.708 Q85.9051 924.708 87.2593 922.051 Q88.6308 919.378 88.6308 914.048 Q88.6308 908.701 87.2593 906.044 Q85.9051 903.371 83.1795 903.371 M83.1795 900.593 Q87.5371 900.593 89.8287 904.048 Q92.1377 907.485 92.1377 914.048 Q92.1377 920.593 89.8287 924.048 Q87.5371 927.485 83.1795 927.485 Q78.8218 927.485 76.5128 924.048 Q74.2212 920.593 74.2212 914.048 Q74.2212 907.485 76.5128 904.048 Q78.8218 900.593 83.1795 900.593 Z" fill="#000000" fill-rule="nonzero" fill-opacity="1" /><path clip-path="url(#clip160)" d="M140.036 813.68 Q136.517 813.68 134.619 816.226 Q132.628 818.888 132.628 823.286 Q132.628 827.939 134.596 830.624 Q136.587 833.286 140.036 833.286 Q143.439 833.286 145.429 830.601 Q147.42 827.916 147.42 823.286 Q147.42 819.05 145.429 816.226 Q143.601 813.68 140.036 813.68 M140.036 810.3 L154.179 810.3 L154.179 814.559 L149.411 814.559 Q151.934 818.171 151.934 823.286 Q151.934 829.652 148.763 833.263 Q145.591 836.897 140.036 836.897 Q134.457 836.897 131.309 833.263 Q128.138 829.652 128.138 823.286 Q128.138 816.874 131.309 813.286 Q133.925 810.3 140.036 810.3 Z" fill="#000000" fill-rule="nonzero" fill-opacity="1" /><path clip-path="url(#clip160)" d="M165.198 836.226 L157.281 810.3 L161.864 810.3 L168.554 832.059 Q171.332 829.189 173.647 825.208 Q175.406 822.221 175.499 819.629 Q175.545 818.402 174.989 816.087 Q174.341 813.333 171.888 810.3 L176.193 810.3 L176.193 810.3 Q177.79 812.36 178.855 815.231 Q179.827 817.87 179.827 819.675 Q179.827 824.212 176.679 828.263 Q172.582 833.541 169.735 836.226 L165.198 836.226 Z" fill="#000000" fill-rule="nonzero" fill-opacity="1" /><path clip-path="url(#clip164)" d="M184.494 1326.62 L184.494 1456.91 L285.817 1456.91 L285.817 1326.62 L184.494 1326.62 L184.494 1326.62  Z" fill="#009af9" fill-rule="evenodd" fill-opacity="1"/>
<polyline clip-path="url(#clip164)" style="stroke:#000000; stroke-linecap:round; stroke-linejoin:round; stroke-width:4; stroke-opacity:1; fill:none" points="184.494,1326.62 184.494,1456.91 285.817,1456.91 285.817,1326.62 184.494,1326.62 "/>
<path clip-path="url(#clip164)" d="M285.817 1424.34 L285.817 1456.91 L387.139 1456.91 L387.139 1424.34 L285.817 1424.34 L285.817 1424.34  Z" fill="#009af9" fill-rule="evenodd" fill-opacity="1"/>
<polyline clip-path="url(#clip164)" style="stroke:#000000; stroke-linecap:round; stroke-linejoin:round; stroke-width:4; stroke-opacity:1; fill:none" points="285.817,1424.34 285.817,1456.91 387.139,1456.91 387.139,1424.34 285.817,1424.34 "/>
<path clip-path="url(#clip164)" d="M387.139 1326.62 L387.139 1456.91 L488.462 1456.91 L488.462 1326.62 L387.139 1326.62 L387.139 1326.62  Z" fill="#009af9" fill-rule="evenodd" fill-opacity="1"/>
<polyline clip-path="url(#clip164)" style="stroke:#000000; stroke-linecap:round; stroke-linejoin:round; stroke-width:4; stroke-opacity:1; fill:none" points="387.139,1326.62 387.139,1456.91 488.462,1456.91 488.462,1326.62 387.139,1326.62 "/>
<path clip-path="url(#clip164)" d="M488.462 1337.48 L488.462 1456.91 L589.785 1456.91 L589.785 1337.48 L488.462 1337.48 L488.462 1337.48  Z" fill="#009af9" fill-rule="evenodd" fill-opacity="1"/>
<polyline clip-path="url(#clip164)" style="stroke:#000000; stroke-linecap:round; stroke-linejoin:round; stroke-width:4; stroke-opacity:1; fill:none" points="488.462,1337.48 488.462,1456.91 589.785,1456.91 589.785,1337.48 488.462,1337.48 "/>
<path clip-path="url(#clip164)" d="M589.785 1152.89 L589.785 1456.91 L691.108 1456.91 L691.108 1152.89 L589.785 1152.89 L589.785 1152.89  Z" fill="#009af9" fill-rule="evenodd" fill-opacity="1"/>
<polyline clip-path="url(#clip164)" style="stroke:#000000; stroke-linecap:round; stroke-linejoin:round; stroke-width:4; stroke-opacity:1; fill:none" points="589.785,1152.89 589.785,1456.91 691.108,1456.91 691.108,1152.89 589.785,1152.89 "/>
<path clip-path="url(#clip164)" d="M691.108 892.306 L691.108 1456.91 L792.431 1456.91 L792.431 892.306 L691.108 892.306 L691.108 892.306  Z" fill="#009af9" fill-rule="evenodd" fill-opacity="1"/>
<polyline clip-path="url(#clip164)" style="stroke:#000000; stroke-linecap:round; stroke-linejoin:round; stroke-width:4; stroke-opacity:1; fill:none" points="691.108,892.306 691.108,1456.91 792.431,1456.91 792.431,892.306 691.108,892.306 "/>
<path clip-path="url(#clip164)" d="M792.431 892.306 L792.431 1456.91 L893.754 1456.91 L893.754 892.306 L792.431 892.306 L792.431 892.306  Z" fill="#009af9" fill-rule="evenodd" fill-opacity="1"/>
<polyline clip-path="url(#clip164)" style="stroke:#000000; stroke-linecap:round; stroke-linejoin:round; stroke-width:4; stroke-opacity:1; fill:none" points="792.431,892.306 792.431,1456.91 893.754,1456.91 893.754,892.306 792.431,892.306 "/>
<path clip-path="url(#clip164)" d="M893.754 1098.61 L893.754 1456.91 L995.077 1456.91 L995.077 1098.61 L893.754 1098.61 L893.754 1098.61  Z" fill="#009af9" fill-rule="evenodd" fill-opacity="1"/>
<polyline clip-path="url(#clip164)" style="stroke:#000000; stroke-linecap:round; stroke-linejoin:round; stroke-width:4; stroke-opacity:1; fill:none" points="893.754,1098.61 893.754,1456.91 995.077,1456.91 995.077,1098.61 893.754,1098.61 "/>
<path clip-path="url(#clip164)" d="M995.077 1261.47 L995.077 1456.91 L1096.4 1456.91 L1096.4 1261.47 L995.077 1261.47 L995.077 1261.47  Z" fill="#009af9" fill-rule="evenodd" fill-opacity="1"/>
<polyline clip-path="url(#clip164)" style="stroke:#000000; stroke-linecap:round; stroke-linejoin:round; stroke-width:4; stroke-opacity:1; fill:none" points="995.077,1261.47 995.077,1456.91 1096.4,1456.91 1096.4,1261.47 995.077,1261.47 "/>
<circle clip-path="url(#clip164)" style="fill:#009af9; stroke:none; fill-opacity:0" cx="235.155" cy="1326.62" r="2"/>
<circle clip-path="url(#clip164)" style="fill:#009af9; stroke:none; fill-opacity:0" cx="336.478" cy="1424.34" r="2"/>
<circle clip-path="url(#clip164)" style="fill:#009af9; stroke:none; fill-opacity:0" cx="437.801" cy="1326.62" r="2"/>
<circle clip-path="url(#clip164)" style="fill:#009af9; stroke:none; fill-opacity:0" cx="539.124" cy="1337.48" r="2"/>
<circle clip-path="url(#clip164)" style="fill:#009af9; stroke:none; fill-opacity:0" cx="640.447" cy="1152.89" r="2"/>
<circle clip-path="url(#clip164)" style="fill:#009af9; stroke:none; fill-opacity:0" cx="944.416" cy="1098.61" r="2"/>
<circle clip-path="url(#clip164)" style="fill:#009af9; stroke:none; fill-opacity:0" cx="1045.74" cy="1261.47" r="2"/>
<polyline clip-path="url(#clip164)" style="stroke:#ff0000; stroke-linecap:round; stroke-linejoin:round; stroke-width:8; stroke-opacity:1; fill:none" stroke-dasharray="32, 20" points="698.04,2021.52 698.04,327.698 "/>
<polyline clip-path="url(#clip164)" style="stroke:#ff0000; stroke-linecap:round; stroke-linejoin:round; stroke-width:6; stroke-opacity:1; fill:none" stroke-dasharray="24, 12, 3, 12" points="227.786,2021.52 227.786,327.698 "/>
<polyline clip-path="url(#clip164)" style="stroke:#ff0000; stroke-linecap:round; stroke-linejoin:round; stroke-width:6; stroke-opacity:1; fill:none" stroke-dasharray="24, 12, 3, 12" points="1037.71,2021.52 1037.71,327.698 "/>
</svg>
