<?xml version="1.0" encoding="utf-8"?>
<svg xmlns="http://www.w3.org/2000/svg" xmlns:xlink="http://www.w3.org/1999/xlink" width="600" height="400" viewBox="0 0 2400 1600">
<defs>
  <clipPath id="clip140">
    <rect x="0" y="0" width="2400" height="1600"/>
  </clipPath>
</defs>
<path clip-path="url(#clip140)" d="M0 1600 L2400 1600 L2400 0 L0 0  Z" fill="#ffffff" fill-rule="evenodd" fill-opacity="1"/>
<defs>
  <clipPath id="clip141">
    <rect x="480" y="0" width="1681" height="1600"/>
  </clipPath>
</defs>
<path clip-path="url(#clip140)" d="M161.818 662.16 L1152.94 662.16 L1152.94 97.5521 L161.818 97.5521  Z" fill="#ffffff" fill-rule="evenodd" fill-opacity="1"/>
<defs>
  <clipPath id="clip142">
    <rect x="161" y="97" width="992" height="566"/>
  </clipPath>
</defs>
<polyline clip-path="url(#clip142)" style="stroke:#000000; stroke-linecap:round; stroke-linejoin:round; stroke-width:2; stroke-opacity:0.1; fill:none" points="180.826,662.16 180.826,97.5521 "/>
<polyline clip-path="url(#clip142)" style="stroke:#000000; stroke-linecap:round; stroke-linejoin:round; stroke-width:2; stroke-opacity:0.1; fill:none" points="443.235,662.16 443.235,97.5521 "/>
<polyline clip-path="url(#clip142)" style="stroke:#000000; stroke-linecap:round; stroke-linejoin:round; stroke-width:2; stroke-opacity:0.1; fill:none" points="705.644,662.16 705.644,97.5521 "/>
<polyline clip-path="url(#clip142)" style="stroke:#000000; stroke-linecap:round; stroke-linejoin:round; stroke-width:2; stroke-opacity:0.1; fill:none" points="968.053,662.16 968.053,97.5521 "/>
<polyline clip-path="url(#clip142)" style="stroke:#000000; stroke-linecap:round; stroke-linejoin:round; stroke-width:2; stroke-opacity:0.1; fill:none" points="161.818,646.181 1152.94,646.181 "/>
<polyline clip-path="url(#clip142)" style="stroke:#000000; stroke-linecap:round; stroke-linejoin:round; stroke-width:2; stroke-opacity:0.1; fill:none" points="161.818,521.646 1152.94,521.646 "/>
<polyline clip-path="url(#clip142)" style="stroke:#000000; stroke-linecap:round; stroke-linejoin:round; stroke-width:2; stroke-opacity:0.1; fill:none" points="161.818,397.111 1152.94,397.111 "/>
<polyline clip-path="url(#clip142)" style="stroke:#000000; stroke-linecap:round; stroke-linejoin:round; stroke-width:2; stroke-opacity:0.1; fill:none" points="161.818,272.577 1152.94,272.577 "/>
<polyline clip-path="url(#clip142)" style="stroke:#000000; stroke-linecap:round; stroke-linejoin:round; stroke-width:2; stroke-opacity:0.1; fill:none" points="161.818,148.042 1152.94,148.042 "/>
<polyline clip-path="url(#clip140)" style="stroke:#000000; stroke-linecap:round; stroke-linejoin:round; stroke-width:4; stroke-opacity:1; fill:none" points="161.818,662.16 1152.94,662.16 "/>
<polyline clip-path="url(#clip140)" style="stroke:#000000; stroke-linecap:round; stroke-linejoin:round; stroke-width:4; stroke-opacity:1; fill:none" points="180.826,662.16 180.826,643.263 "/>
<polyline clip-path="url(#clip140)" style="stroke:#000000; stroke-linecap:round; stroke-linejoin:round; stroke-width:4; stroke-opacity:1; fill:none" points="443.235,662.16 443.235,643.263 "/>
<polyline clip-path="url(#clip140)" style="stroke:#000000; stroke-linecap:round; stroke-linejoin:round; stroke-width:4; stroke-opacity:1; fill:none" points="705.644,662.16 705.644,643.263 "/>
<polyline clip-path="url(#clip140)" style="stroke:#000000; stroke-linecap:round; stroke-linejoin:round; stroke-width:4; stroke-opacity:1; fill:none" points="968.053,662.16 968.053,643.263 "/>
<path clip-path="url(#clip140)" d="M126.977 733.893 Q125.062 735.808 125.983 738.668 Q126.903 741.504 130.684 745.285 Q134.453 749.054 137.301 749.987 Q140.149 750.895 142.064 748.98 Q143.992 747.053 143.071 744.217 Q142.15 741.357 138.382 737.588 Q134.601 733.807 131.752 732.898 Q128.904 731.966 126.977 733.893 M125.013 731.929 Q128.094 728.847 132.158 729.67 Q136.221 730.468 140.861 735.108 Q145.489 739.736 146.3 743.812 Q147.11 747.863 144.029 750.944 Q140.947 754.026 136.884 753.228 Q132.82 752.405 128.192 747.777 Q123.552 743.137 122.742 739.086 Q121.932 735.01 125.013 731.929 Z" fill="#000000" fill-rule="nonzero" fill-opacity="1" /><path clip-path="url(#clip140)" d="M151.247 736.778 L153.837 734.187 L156.955 737.306 L154.365 739.896 L151.247 736.778 Z" fill="#000000" fill-rule="nonzero" fill-opacity="1" /><path clip-path="url(#clip140)" d="M158.956 717.897 Q157.189 719.665 157.115 721.629 Q157.053 723.581 158.711 725.238 Q160.368 726.895 162.32 726.834 Q164.284 726.76 166.052 724.993 Q167.82 723.225 167.893 721.261 Q167.955 719.284 166.31 717.639 Q164.652 715.982 162.688 716.056 Q160.736 716.117 158.956 717.897 M155.421 719.321 Q153.432 720.524 151.443 720.328 Q149.467 720.119 147.896 718.548 Q145.698 716.35 145.98 713.515 Q146.275 710.666 149 707.941 Q151.738 705.204 154.574 704.921 Q157.41 704.639 159.607 706.836 Q161.178 708.408 161.375 710.396 Q161.583 712.373 160.393 714.349 Q162.602 712.974 164.812 713.195 Q167.034 713.404 168.789 715.16 Q171.453 717.823 171.245 720.88 Q171.048 723.925 168.016 726.957 Q164.984 729.989 161.927 730.198 Q158.883 730.394 156.219 727.73 Q154.463 725.975 154.255 723.753 Q154.046 721.531 155.421 719.321 M150.596 716.313 Q152.02 717.738 153.702 717.652 Q155.396 717.553 157.004 715.945 Q158.6 714.349 158.698 712.655 Q158.809 710.949 157.385 709.525 Q155.961 708.101 154.255 708.211 Q152.56 708.309 150.965 709.905 Q149.356 711.514 149.258 713.208 Q149.172 714.889 150.596 716.313 Z" fill="#000000" fill-rule="nonzero" fill-opacity="1" /><path clip-path="url(#clip140)" d="M166.96 693.91 Q165.045 695.825 165.966 698.685 Q166.887 701.521 170.668 705.302 Q174.436 709.071 177.284 710.004 Q180.133 710.912 182.048 708.997 Q183.975 707.07 183.054 704.234 Q182.134 701.373 178.365 697.605 Q174.584 693.824 171.736 692.915 Q168.888 691.982 166.96 693.91 M164.996 691.945 Q168.077 688.864 172.141 689.687 Q176.204 690.485 180.845 695.125 Q185.473 699.753 186.283 703.829 Q187.093 707.88 184.012 710.961 Q180.93 714.042 176.867 713.244 Q172.804 712.422 168.176 707.794 Q163.535 703.154 162.725 699.102 Q161.915 695.027 164.996 691.945 Z" fill="#000000" fill-rule="nonzero" fill-opacity="1" /><path clip-path="url(#clip140)" d="M389.914 733.365 Q387.999 735.28 388.919 738.14 Q389.84 740.976 393.621 744.757 Q397.39 748.526 400.238 749.459 Q403.086 750.367 405.001 748.452 Q406.929 746.525 406.008 743.689 Q405.087 740.829 401.318 737.06 Q397.537 733.279 394.689 732.371 Q391.841 731.438 389.914 733.365 M387.95 731.401 Q391.031 728.32 395.094 729.142 Q399.158 729.94 403.798 734.58 Q408.426 739.208 409.236 743.284 Q410.047 747.335 406.965 750.416 Q403.884 753.498 399.821 752.7 Q395.757 751.877 391.129 747.249 Q386.489 742.609 385.679 738.558 Q384.868 734.482 387.95 731.401 Z" fill="#000000" fill-rule="nonzero" fill-opacity="1" /><path clip-path="url(#clip140)" d="M414.184 736.25 L416.774 733.66 L419.892 736.778 L417.302 739.368 L414.184 736.25 Z" fill="#000000" fill-rule="nonzero" fill-opacity="1" /><path clip-path="url(#clip140)" d="M421.893 717.369 Q420.125 719.137 420.052 721.101 Q419.99 723.053 421.648 724.71 Q423.305 726.368 425.257 726.306 Q427.221 726.233 428.989 724.465 Q430.756 722.697 430.83 720.733 Q430.891 718.756 429.246 717.111 Q427.589 715.454 425.625 715.528 Q423.673 715.589 421.893 717.369 M418.358 718.793 Q416.369 719.996 414.38 719.8 Q412.404 719.591 410.832 718.02 Q408.635 715.822 408.917 712.987 Q409.212 710.139 411.937 707.413 Q414.675 704.676 417.511 704.393 Q420.346 704.111 422.544 706.308 Q424.115 707.88 424.311 709.869 Q424.52 711.845 423.329 713.821 Q425.539 712.447 427.749 712.667 Q429.971 712.876 431.726 714.632 Q434.39 717.296 434.181 720.352 Q433.985 723.397 430.953 726.429 Q427.921 729.461 424.864 729.67 Q421.819 729.866 419.156 727.202 Q417.4 725.447 417.191 723.225 Q416.983 721.003 418.358 718.793 M413.533 715.786 Q414.957 717.21 416.639 717.124 Q418.333 717.025 419.941 715.417 Q421.537 713.821 421.635 712.127 Q421.746 710.421 420.322 708.997 Q418.898 707.573 417.191 707.683 Q415.497 707.782 413.901 709.377 Q412.293 710.986 412.195 712.68 Q412.109 714.362 413.533 715.786 Z" fill="#000000" fill-rule="nonzero" fill-opacity="1" /><path clip-path="url(#clip140)" d="M422.986 697.028 L432.721 687.293 L434.808 689.38 L427.344 696.844 L431.837 701.337 Q432.193 700.612 432.647 699.986 Q433.089 699.348 433.629 698.808 Q436.698 695.739 440.172 695.628 Q443.646 695.518 446.519 698.39 Q449.477 701.349 449.281 704.835 Q449.072 708.309 445.721 711.661 Q444.567 712.815 443.168 713.821 Q441.78 714.816 440.111 715.7 L437.619 713.208 Q439.325 712.704 440.798 711.82 Q442.271 710.937 443.585 709.623 Q445.709 707.499 445.831 705.142 Q445.954 702.785 444.039 700.87 Q442.124 698.955 439.767 699.078 Q437.41 699.201 435.286 701.324 Q434.292 702.319 433.519 703.534 Q432.757 704.737 432.193 706.235 L422.986 697.028 Z" fill="#000000" fill-rule="nonzero" fill-opacity="1" /><path clip-path="url(#clip140)" d="M651.795 733.893 Q649.88 735.808 650.801 738.668 Q651.721 741.504 655.502 745.285 Q659.271 749.054 662.119 749.987 Q664.967 750.895 666.882 748.98 Q668.81 747.053 667.889 744.217 Q666.968 741.357 663.199 737.588 Q659.418 733.807 656.57 732.898 Q653.722 731.966 651.795 733.893 M649.831 731.929 Q652.912 728.847 656.975 729.67 Q661.039 730.468 665.679 735.108 Q670.307 739.736 671.117 743.812 Q671.928 747.863 668.846 750.944 Q665.765 754.026 661.702 753.228 Q657.638 752.405 653.01 747.777 Q648.37 743.137 647.56 739.086 Q646.749 735.01 649.831 731.929 Z" fill="#000000" fill-rule="nonzero" fill-opacity="1" /><path clip-path="url(#clip140)" d="M676.065 736.778 L678.655 734.187 L681.773 737.306 L679.183 739.896 L676.065 736.778 Z" fill="#000000" fill-rule="nonzero" fill-opacity="1" /><path clip-path="url(#clip140)" d="M686.868 731.45 L684.609 729.191 Q685.984 728.7 687.175 727.976 Q688.365 727.251 689.286 726.331 Q691.741 723.876 691.385 720.942 Q691.029 717.983 687.85 714.435 Q688.194 716.203 687.666 717.86 Q687.138 719.518 685.812 720.843 Q683.062 723.593 679.797 723.544 Q676.531 723.47 673.646 720.586 Q670.823 717.762 670.786 714.386 Q670.749 711.01 673.524 708.236 Q676.703 705.056 680.816 705.83 Q684.928 706.579 689.568 711.219 Q693.902 715.552 694.43 720.205 Q694.958 724.833 691.484 728.307 Q690.551 729.24 689.409 730.014 Q688.267 730.787 686.868 731.45 M684.032 718.744 Q685.701 717.075 685.53 714.963 Q685.37 712.839 683.381 710.851 Q681.405 708.874 679.281 708.715 Q677.157 708.53 675.488 710.2 Q673.818 711.87 673.99 714.006 Q674.162 716.117 676.138 718.094 Q678.127 720.082 680.239 720.254 Q682.362 720.414 684.032 718.744 Z" fill="#000000" fill-rule="nonzero" fill-opacity="1" /><path clip-path="url(#clip140)" d="M691.778 693.91 Q689.863 695.825 690.784 698.685 Q691.704 701.521 695.486 705.302 Q699.254 709.071 702.102 710.004 Q704.95 710.912 706.865 708.997 Q708.793 707.07 707.872 704.234 Q706.951 701.373 703.183 697.605 Q699.402 693.824 696.554 692.915 Q693.705 691.982 691.778 693.91 M689.814 691.945 Q692.895 688.864 696.959 689.687 Q701.022 690.485 705.662 695.125 Q710.29 699.753 711.101 703.829 Q711.911 707.88 708.83 710.961 Q705.748 714.042 701.685 713.244 Q697.622 712.422 692.993 707.794 Q688.353 703.154 687.543 699.102 Q686.733 695.027 689.814 691.945 Z" fill="#000000" fill-rule="nonzero" fill-opacity="1" /><path clip-path="url(#clip140)" d="M914.732 733.365 Q912.817 735.28 913.737 738.14 Q914.658 740.976 918.439 744.757 Q922.208 748.526 925.056 749.459 Q927.904 750.367 929.819 748.452 Q931.746 746.525 930.826 743.689 Q929.905 740.829 926.136 737.06 Q922.355 733.279 919.507 732.371 Q916.659 731.438 914.732 733.365 M912.768 731.401 Q915.849 728.32 919.912 729.142 Q923.976 729.94 928.616 734.58 Q933.244 739.208 934.054 743.284 Q934.864 747.335 931.783 750.416 Q928.702 753.498 924.639 752.7 Q920.575 751.877 915.947 747.249 Q911.307 742.609 910.496 738.558 Q909.686 734.482 912.768 731.401 Z" fill="#000000" fill-rule="nonzero" fill-opacity="1" /><path clip-path="url(#clip140)" d="M939.002 736.25 L941.592 733.66 L944.71 736.778 L942.12 739.368 L939.002 736.25 Z" fill="#000000" fill-rule="nonzero" fill-opacity="1" /><path clip-path="url(#clip140)" d="M949.804 730.922 L947.546 728.663 Q948.921 728.172 950.111 727.448 Q951.302 726.724 952.223 725.803 Q954.678 723.348 954.322 720.414 Q953.966 717.455 950.787 713.907 Q951.13 715.675 950.602 717.332 Q950.075 718.99 948.749 720.315 Q945.999 723.065 942.733 723.016 Q939.468 722.943 936.583 720.058 Q933.76 717.234 933.723 713.858 Q933.686 710.482 936.46 707.708 Q939.64 704.528 943.752 705.302 Q947.865 706.051 952.505 710.691 Q956.839 715.024 957.367 719.677 Q957.894 724.305 954.42 727.779 Q953.487 728.712 952.346 729.486 Q951.204 730.259 949.804 730.922 M946.969 718.216 Q948.638 716.547 948.466 714.435 Q948.307 712.311 946.318 710.323 Q944.342 708.346 942.218 708.187 Q940.094 708.003 938.425 709.672 Q936.755 711.342 936.927 713.478 Q937.099 715.589 939.075 717.566 Q941.064 719.554 943.175 719.726 Q945.299 719.886 946.969 718.216 Z" fill="#000000" fill-rule="nonzero" fill-opacity="1" /><path clip-path="url(#clip140)" d="M947.803 697.028 L957.538 687.293 L959.625 689.38 L952.162 696.844 L956.655 701.337 Q957.011 700.612 957.465 699.986 Q957.907 699.348 958.447 698.808 Q961.516 695.739 964.99 695.628 Q968.464 695.518 971.337 698.39 Q974.295 701.349 974.099 704.835 Q973.89 708.309 970.539 711.661 Q969.385 712.815 967.985 713.821 Q966.598 714.816 964.929 715.7 L962.437 713.208 Q964.143 712.704 965.616 711.82 Q967.089 710.937 968.403 709.623 Q970.527 707.499 970.649 705.142 Q970.772 702.785 968.857 700.87 Q966.942 698.955 964.585 699.078 Q962.228 699.201 960.104 701.324 Q959.11 702.319 958.336 703.534 Q957.575 704.737 957.011 706.235 L947.803 697.028 Z" fill="#000000" fill-rule="nonzero" fill-opacity="1" /><polyline clip-path="url(#clip140)" style="stroke:#000000; stroke-linecap:round; stroke-linejoin:round; stroke-width:4; stroke-opacity:1; fill:none" points="161.818,662.16 161.818,97.5521 "/>
<polyline clip-path="url(#clip140)" style="stroke:#000000; stroke-linecap:round; stroke-linejoin:round; stroke-width:4; stroke-opacity:1; fill:none" points="161.818,646.181 180.716,646.181 "/>
<polyline clip-path="url(#clip140)" style="stroke:#000000; stroke-linecap:round; stroke-linejoin:round; stroke-width:4; stroke-opacity:1; fill:none" points="161.818,521.646 180.716,521.646 "/>
<polyline clip-path="url(#clip140)" style="stroke:#000000; stroke-linecap:round; stroke-linejoin:round; stroke-width:4; stroke-opacity:1; fill:none" points="161.818,397.111 180.716,397.111 "/>
<polyline clip-path="url(#clip140)" style="stroke:#000000; stroke-linecap:round; stroke-linejoin:round; stroke-width:4; stroke-opacity:1; fill:none" points="161.818,272.577 180.716,272.577 "/>
<polyline clip-path="url(#clip140)" style="stroke:#000000; stroke-linecap:round; stroke-linejoin:round; stroke-width:4; stroke-opacity:1; fill:none" points="161.818,148.042 180.716,148.042 "/>
<path clip-path="url(#clip140)" d="M116.86 635.53 Q114.152 635.53 112.78 638.204 Q111.426 640.86 111.426 646.207 Q111.426 651.537 112.78 654.21 Q114.152 656.867 116.86 656.867 Q119.586 656.867 120.94 654.21 Q122.311 651.537 122.311 646.207 Q122.311 640.86 120.94 638.204 Q119.586 635.53 116.86 635.53 M116.86 632.752 Q121.217 632.752 123.509 636.207 Q125.818 639.644 125.818 646.207 Q125.818 652.752 123.509 656.207 Q121.217 659.644 116.86 659.644 Q112.502 659.644 110.193 656.207 Q107.902 652.752 107.902 646.207 Q107.902 639.644 110.193 636.207 Q112.502 632.752 116.86 632.752 Z" fill="#000000" fill-rule="nonzero" fill-opacity="1" /><path clip-path="url(#clip140)" d="M110.888 531.655 L116.617 531.655 L116.617 511.881 L110.384 513.131 L110.384 509.936 L116.582 508.686 L120.089 508.686 L120.089 531.655 L125.818 531.655 L125.818 534.606 L110.888 534.606 L110.888 531.655 Z" fill="#000000" fill-rule="nonzero" fill-opacity="1" /><path clip-path="url(#clip140)" d="M113.579 407.12 L125.818 407.12 L125.818 410.071 L109.36 410.071 L109.36 407.12 Q111.356 405.054 114.794 401.582 Q118.249 398.092 119.134 397.085 Q120.818 395.193 121.478 393.891 Q122.155 392.571 122.155 391.304 Q122.155 389.238 120.697 387.936 Q119.256 386.634 116.929 386.634 Q115.28 386.634 113.44 387.207 Q111.617 387.78 109.533 388.943 L109.533 385.401 Q111.652 384.551 113.492 384.117 Q115.332 383.683 116.86 383.683 Q120.888 383.683 123.283 385.696 Q125.679 387.71 125.679 391.078 Q125.679 392.676 125.072 394.117 Q124.481 395.54 122.901 397.485 Q122.467 397.988 120.141 400.401 Q117.815 402.797 113.579 407.12 Z" fill="#000000" fill-rule="nonzero" fill-opacity="1" /><path clip-path="url(#clip140)" d="M120.471 271.561 Q122.988 272.099 124.395 273.8 Q125.818 275.502 125.818 278.002 Q125.818 281.839 123.179 283.939 Q120.54 286.04 115.679 286.04 Q114.047 286.04 112.311 285.71 Q110.593 285.398 108.752 284.755 L108.752 281.37 Q110.211 282.221 111.947 282.655 Q113.683 283.089 115.575 283.089 Q118.874 283.089 120.592 281.787 Q122.329 280.484 122.329 278.002 Q122.329 275.71 120.714 274.425 Q119.117 273.123 116.252 273.123 L113.231 273.123 L113.231 270.241 L116.391 270.241 Q118.978 270.241 120.349 269.217 Q121.721 268.176 121.721 266.231 Q121.721 264.235 120.297 263.176 Q118.891 262.099 116.252 262.099 Q114.811 262.099 113.162 262.412 Q111.513 262.724 109.533 263.384 L109.533 260.259 Q111.53 259.703 113.266 259.426 Q115.02 259.148 116.565 259.148 Q120.558 259.148 122.884 260.971 Q125.21 262.776 125.21 265.866 Q125.21 268.019 123.978 269.512 Q122.745 270.988 120.471 271.561 Z" fill="#000000" fill-rule="nonzero" fill-opacity="1" /><path clip-path="url(#clip140)" d="M118.631 138.137 L109.777 151.974 L118.631 151.974 L118.631 138.137 M117.711 135.082 L122.12 135.082 L122.12 151.974 L125.818 151.974 L125.818 154.891 L122.12 154.891 L122.12 161.002 L118.631 161.002 L118.631 154.891 L106.929 154.891 L106.929 151.505 L117.711 135.082 Z" fill="#000000" fill-rule="nonzero" fill-opacity="1" /><path clip-path="url(#clip140)" d="M163.901 20.1758 Q165.313 17.8147 168.809 15.7314 Q170.175 14.9212 174.387 14.9212 Q179.11 14.9212 182.049 18.6712 Q185.012 22.4212 185.012 28.5323 Q185.012 34.6433 182.049 38.3933 Q179.11 42.1433 174.387 42.1433 Q171.54 42.1433 169.48 41.0322 Q167.443 39.8979 166.1 37.5831 L166.1 51.3331 L161.818 51.3331 L161.818 28.7637 Q161.818 23.4165 163.901 20.1758 M180.591 28.5323 Q180.591 23.8332 178.647 21.1712 Q176.725 18.486 173.346 18.486 Q169.966 18.486 168.022 21.1712 Q166.1 23.8332 166.1 28.5323 Q166.1 33.2313 168.022 35.9165 Q169.966 38.5785 173.346 38.5785 Q176.725 38.5785 178.647 35.9165 Q180.591 33.2313 180.591 28.5323 Z" fill="#000000" fill-rule="nonzero" fill-opacity="1" /><polyline clip-path="url(#clip142)" style="stroke:#009af9; stroke-linecap:round; stroke-linejoin:round; stroke-width:4; stroke-opacity:1; fill:none" points="189.869,591.329 248.307,595.331 306.746,599.84 365.185,604.958 423.623,610.817 482.062,617.59 540.501,625.509 598.939,634.89 657.378,646.181 715.817,632.332 774.256,614.944 832.694,592.463 891.133,562.263 949.572,519.551 1008.01,454.526 1066.45,343.619 1124.89,113.532 "/>
<circle clip-path="url(#clip142)" cx="657.378" cy="646.181" r="10.8" fill="#ff0000" fill-rule="evenodd" fill-opacity="1" stroke="#000000" stroke-opacity="1" stroke-width="3.2"/>
<path clip-path="url(#clip140)" d="M1361.64 662.16 L2352.76 662.16 L2352.76 97.5521 L1361.64 97.5521  Z" fill="#ffffff" fill-rule="evenodd" fill-opacity="1"/>
<defs>
  <clipPath id="clip143">
    <rect x="1361" y="97" width="992" height="566"/>
  </clipPath>
</defs>
<polyline clip-path="url(#clip143)" style="stroke:#000000; stroke-linecap:round; stroke-linejoin:round; stroke-width:2; stroke-opacity:0.1; fill:none" points="1388.1,662.16 1388.1,97.5521 "/>
<polyline clip-path="url(#clip143)" style="stroke:#000000; stroke-linecap:round; stroke-linejoin:round; stroke-width:2; stroke-opacity:0.1; fill:none" points="1533.13,662.16 1533.13,97.5521 "/>
<polyline clip-path="url(#clip143)" style="stroke:#000000; stroke-linecap:round; stroke-linejoin:round; stroke-width:2; stroke-opacity:0.1; fill:none" points="1678.17,662.16 1678.17,97.5521 "/>
<polyline clip-path="url(#clip143)" style="stroke:#000000; stroke-linecap:round; stroke-linejoin:round; stroke-width:2; stroke-opacity:0.1; fill:none" points="1823.2,662.16 1823.2,97.5521 "/>
<polyline clip-path="url(#clip143)" style="stroke:#000000; stroke-linecap:round; stroke-linejoin:round; stroke-width:2; stroke-opacity:0.1; fill:none" points="1968.23,662.16 1968.23,97.5521 "/>
<polyline clip-path="url(#clip143)" style="stroke:#000000; stroke-linecap:round; stroke-linejoin:round; stroke-width:2; stroke-opacity:0.1; fill:none" points="2113.27,662.16 2113.27,97.5521 "/>
<polyline clip-path="url(#clip143)" style="stroke:#000000; stroke-linecap:round; stroke-linejoin:round; stroke-width:2; stroke-opacity:0.1; fill:none" points="2258.3,662.16 2258.3,97.5521 "/>
<polyline clip-path="url(#clip143)" style="stroke:#000000; stroke-linecap:round; stroke-linejoin:round; stroke-width:2; stroke-opacity:0.1; fill:none" points="1361.64,646.181 2352.76,646.181 "/>
<polyline clip-path="url(#clip143)" style="stroke:#000000; stroke-linecap:round; stroke-linejoin:round; stroke-width:2; stroke-opacity:0.1; fill:none" points="1361.64,504.137 2352.76,504.137 "/>
<polyline clip-path="url(#clip143)" style="stroke:#000000; stroke-linecap:round; stroke-linejoin:round; stroke-width:2; stroke-opacity:0.1; fill:none" points="1361.64,362.092 2352.76,362.092 "/>
<polyline clip-path="url(#clip143)" style="stroke:#000000; stroke-linecap:round; stroke-linejoin:round; stroke-width:2; stroke-opacity:0.1; fill:none" points="1361.64,220.048 2352.76,220.048 "/>
<polyline clip-path="url(#clip140)" style="stroke:#000000; stroke-linecap:round; stroke-linejoin:round; stroke-width:4; stroke-opacity:1; fill:none" points="1361.64,662.16 2352.76,662.16 "/>
<polyline clip-path="url(#clip140)" style="stroke:#000000; stroke-linecap:round; stroke-linejoin:round; stroke-width:4; stroke-opacity:1; fill:none" points="1388.1,662.16 1388.1,643.263 "/>
<polyline clip-path="url(#clip140)" style="stroke:#000000; stroke-linecap:round; stroke-linejoin:round; stroke-width:4; stroke-opacity:1; fill:none" points="1533.13,662.16 1533.13,643.263 "/>
<polyline clip-path="url(#clip140)" style="stroke:#000000; stroke-linecap:round; stroke-linejoin:round; stroke-width:4; stroke-opacity:1; fill:none" points="1678.17,662.16 1678.17,643.263 "/>
<polyline clip-path="url(#clip140)" style="stroke:#000000; stroke-linecap:round; stroke-linejoin:round; stroke-width:4; stroke-opacity:1; fill:none" points="1823.2,662.16 1823.2,643.263 "/>
<polyline clip-path="url(#clip140)" style="stroke:#000000; stroke-linecap:round; stroke-linejoin:round; stroke-width:4; stroke-opacity:1; fill:none" points="1968.23,662.16 1968.23,643.263 "/>
<polyline clip-path="url(#clip140)" style="stroke:#000000; stroke-linecap:round; stroke-linejoin:round; stroke-width:4; stroke-opacity:1; fill:none" points="2113.27,662.16 2113.27,643.263 "/>
<polyline clip-path="url(#clip140)" style="stroke:#000000; stroke-linecap:round; stroke-linejoin:round; stroke-width:4; stroke-opacity:1; fill:none" points="2258.3,662.16 2258.3,643.263 "/>
<path clip-path="url(#clip140)" d="M1334.35 733.795 Q1332.43 735.71 1333.35 738.57 Q1334.27 741.406 1338.05 745.187 Q1341.82 748.956 1344.67 749.889 Q1347.52 750.797 1349.43 748.882 Q1351.36 746.955 1350.44 744.119 Q1349.52 741.259 1345.75 737.49 Q1341.97 733.709 1339.12 732.8 Q1336.27 731.867 1334.35 733.795 M1332.38 731.83 Q1335.46 728.749 1339.53 729.572 Q1343.59 730.37 1348.23 735.01 Q1352.86 739.638 1353.67 743.714 Q1354.48 747.765 1351.4 750.846 Q1348.32 753.927 1344.25 753.129 Q1340.19 752.307 1335.56 747.679 Q1330.92 743.039 1330.11 738.987 Q1329.3 734.912 1332.38 731.83 Z" fill="#000000" fill-rule="nonzero" fill-opacity="1" /><path clip-path="url(#clip140)" d="M1358.62 736.68 L1361.21 734.089 L1364.32 737.207 L1361.73 739.798 L1358.62 736.68 Z" fill="#000000" fill-rule="nonzero" fill-opacity="1" /><path clip-path="url(#clip140)" d="M1369.77 727.583 L1378.43 718.928 L1380.52 721.015 L1368.88 732.653 L1366.79 730.566 Q1366.74 727.693 1366.72 722.808 Q1366.69 717.897 1366.61 716.559 Q1366.46 714.03 1366.01 712.643 Q1365.55 711.231 1364.66 710.335 Q1363.19 708.874 1361.24 708.985 Q1359.3 709.083 1357.66 710.728 Q1356.49 711.894 1355.6 713.6 Q1354.71 715.295 1354.06 717.59 L1351.56 715.086 Q1352.45 712.987 1353.45 711.378 Q1354.44 709.77 1355.52 708.69 Q1358.37 705.842 1361.49 705.572 Q1364.61 705.302 1366.99 707.683 Q1368.12 708.813 1368.71 710.261 Q1369.3 711.685 1369.55 714.177 Q1369.6 714.84 1369.66 718.192 Q1369.71 721.531 1369.77 727.583 Z" fill="#000000" fill-rule="nonzero" fill-opacity="1" /><path clip-path="url(#clip140)" d="M1385.41 715.356 L1383.16 713.097 Q1384.53 712.606 1385.72 711.882 Q1386.91 711.158 1387.83 710.237 Q1390.29 707.782 1389.93 704.848 Q1389.58 701.889 1386.4 698.341 Q1386.74 700.109 1386.21 701.766 Q1385.68 703.424 1384.36 704.749 Q1381.61 707.499 1378.34 707.45 Q1375.08 707.376 1372.19 704.492 Q1369.37 701.668 1369.33 698.292 Q1369.3 694.916 1372.07 692.142 Q1375.25 688.962 1379.36 689.736 Q1383.47 690.485 1388.11 695.125 Q1392.45 699.458 1392.98 704.111 Q1393.5 708.739 1390.03 712.213 Q1389.1 713.146 1387.96 713.92 Q1386.81 714.693 1385.41 715.356 M1382.58 702.65 Q1384.25 700.981 1384.08 698.869 Q1383.92 696.745 1381.93 694.757 Q1379.95 692.78 1377.83 692.621 Q1375.7 692.436 1374.03 694.106 Q1372.36 695.776 1372.54 697.912 Q1372.71 700.023 1374.68 702 Q1376.67 703.988 1378.78 704.16 Q1380.91 704.32 1382.58 702.65 Z" fill="#000000" fill-rule="nonzero" fill-opacity="1" /><path clip-path="url(#clip140)" d="M1479.28 733.893 Q1477.37 735.808 1478.29 738.668 Q1479.21 741.504 1482.99 745.285 Q1486.76 749.054 1489.61 749.987 Q1492.45 750.895 1494.37 748.98 Q1496.3 747.053 1495.38 744.217 Q1494.45 741.357 1490.69 737.588 Q1486.91 733.807 1484.06 732.898 Q1481.21 731.966 1479.28 733.893 M1477.32 731.929 Q1480.4 728.847 1484.46 729.67 Q1488.53 730.468 1493.17 735.108 Q1497.79 739.736 1498.6 743.812 Q1499.41 747.863 1496.33 750.944 Q1493.25 754.026 1489.19 753.228 Q1485.13 752.405 1480.5 747.777 Q1475.86 743.137 1475.05 739.086 Q1474.24 735.01 1477.32 731.929 Z" fill="#000000" fill-rule="nonzero" fill-opacity="1" /><path clip-path="url(#clip140)" d="M1503.55 736.778 L1506.14 734.187 L1509.26 737.306 L1506.67 739.896 L1503.55 736.778 Z" fill="#000000" fill-rule="nonzero" fill-opacity="1" /><path clip-path="url(#clip140)" d="M1512.29 714.509 Q1514.45 713.109 1516.65 713.318 Q1518.86 713.515 1520.63 715.282 Q1523.34 717.995 1522.96 721.347 Q1522.58 724.698 1519.14 728.135 Q1517.99 729.289 1516.53 730.284 Q1515.09 731.278 1513.34 732.125 L1510.94 729.731 Q1512.57 729.302 1514.11 728.381 Q1515.64 727.46 1516.98 726.122 Q1519.31 723.79 1519.61 721.654 Q1519.92 719.505 1518.16 717.75 Q1516.54 716.129 1514.49 716.363 Q1512.44 716.571 1510.41 718.597 L1508.28 720.733 L1506.24 718.695 L1508.47 716.461 Q1510.3 714.632 1510.55 712.938 Q1510.78 711.231 1509.41 709.856 Q1508 708.445 1506.24 708.702 Q1504.48 708.936 1502.62 710.802 Q1501.6 711.82 1500.65 713.208 Q1499.71 714.595 1498.78 716.461 L1496.57 714.251 Q1497.59 712.447 1498.62 711.022 Q1499.66 709.586 1500.75 708.494 Q1503.58 705.67 1506.51 705.314 Q1509.43 704.946 1511.62 707.131 Q1513.14 708.653 1513.32 710.581 Q1513.5 712.496 1512.29 714.509 Z" fill="#000000" fill-rule="nonzero" fill-opacity="1" /><path clip-path="url(#clip140)" d="M1519.26 693.91 Q1517.35 695.825 1518.27 698.685 Q1519.19 701.521 1522.97 705.302 Q1526.74 709.071 1529.59 710.004 Q1532.44 710.912 1534.35 708.997 Q1536.28 707.07 1535.36 704.234 Q1534.44 701.373 1530.67 697.605 Q1526.89 693.824 1524.04 692.915 Q1521.19 691.982 1519.26 693.91 M1517.3 691.945 Q1520.38 688.864 1524.45 689.687 Q1528.51 690.485 1533.15 695.125 Q1537.78 699.753 1538.59 703.829 Q1539.4 707.88 1536.32 710.961 Q1533.24 714.042 1529.17 713.244 Q1525.11 712.422 1520.48 707.794 Q1515.84 703.154 1515.03 699.102 Q1514.22 695.027 1517.3 691.945 Z" fill="#000000" fill-rule="nonzero" fill-opacity="1" /><path clip-path="url(#clip140)" d="M1624.97 733.242 Q1623.05 735.157 1623.97 738.018 Q1624.89 740.853 1628.67 744.634 Q1632.44 748.403 1635.29 749.336 Q1638.14 750.245 1640.05 748.33 Q1641.98 746.402 1641.06 743.566 Q1640.14 740.706 1636.37 736.937 Q1632.59 733.156 1629.74 732.248 Q1626.89 731.315 1624.97 733.242 M1623 731.278 Q1626.08 728.197 1630.15 729.019 Q1634.21 729.817 1638.85 734.458 Q1643.48 739.086 1644.29 743.161 Q1645.1 747.212 1642.02 750.294 Q1638.94 753.375 1634.87 752.577 Q1630.81 751.755 1626.18 747.126 Q1621.54 742.486 1620.73 738.435 Q1619.92 734.359 1623 731.278 Z" fill="#000000" fill-rule="nonzero" fill-opacity="1" /><path clip-path="url(#clip140)" d="M1649.24 736.127 L1651.83 733.537 L1654.94 736.655 L1652.35 739.245 L1649.24 736.127 Z" fill="#000000" fill-rule="nonzero" fill-opacity="1" /><path clip-path="url(#clip140)" d="M1657.98 713.858 Q1660.14 712.459 1662.33 712.667 Q1664.54 712.864 1666.31 714.632 Q1669.03 717.345 1668.64 720.696 Q1668.26 724.047 1664.83 727.485 Q1663.67 728.639 1662.21 729.633 Q1660.78 730.627 1659.02 731.474 L1656.63 729.081 Q1658.26 728.651 1659.79 727.73 Q1661.33 726.81 1662.67 725.471 Q1665 723.139 1665.29 721.003 Q1665.6 718.855 1663.84 717.099 Q1662.22 715.479 1660.17 715.712 Q1658.12 715.921 1656.1 717.946 L1653.96 720.082 L1651.92 718.044 L1654.16 715.81 Q1655.99 713.981 1656.23 712.287 Q1656.47 710.581 1655.09 709.206 Q1653.68 707.794 1651.92 708.052 Q1650.17 708.285 1648.3 710.151 Q1647.28 711.17 1646.34 712.557 Q1645.39 713.944 1644.46 715.81 L1642.25 713.6 Q1643.27 711.796 1644.3 710.372 Q1645.34 708.936 1646.44 707.843 Q1649.26 705.019 1652.19 704.663 Q1655.12 704.295 1657.3 706.48 Q1658.82 708.003 1659.01 709.93 Q1659.18 711.845 1657.98 713.858 Z" fill="#000000" fill-rule="nonzero" fill-opacity="1" /><path clip-path="url(#clip140)" d="M1674.68 712.741 L1678.74 708.69 L1664.75 694.708 L1661.23 699.999 L1658.97 697.74 L1662.47 692.473 L1664.95 689.994 L1681.19 706.235 L1685.24 702.184 L1687.33 704.271 L1676.77 714.828 L1674.68 712.741 Z" fill="#000000" fill-rule="nonzero" fill-opacity="1" /><path clip-path="url(#clip140)" d="M1770.2 733.046 Q1768.28 734.961 1769.2 737.821 Q1770.12 740.657 1773.9 744.438 Q1777.67 748.207 1780.52 749.14 Q1783.37 750.048 1785.28 748.133 Q1787.21 746.206 1786.29 743.37 Q1785.37 740.51 1781.6 736.741 Q1777.82 732.96 1774.97 732.051 Q1772.12 731.118 1770.2 733.046 M1768.23 731.082 Q1771.31 728 1775.38 728.823 Q1779.44 729.621 1784.08 734.261 Q1788.71 738.889 1789.52 742.965 Q1790.33 747.016 1787.25 750.097 Q1784.17 753.179 1780.1 752.381 Q1776.04 751.558 1771.41 746.93 Q1766.77 742.29 1765.96 738.239 Q1765.15 734.163 1768.23 731.082 Z" fill="#000000" fill-rule="nonzero" fill-opacity="1" /><path clip-path="url(#clip140)" d="M1794.47 735.931 L1797.06 733.34 L1800.18 736.459 L1797.59 739.049 L1794.47 735.931 Z" fill="#000000" fill-rule="nonzero" fill-opacity="1" /><path clip-path="url(#clip140)" d="M1803.21 713.662 Q1805.37 712.262 1807.57 712.471 Q1809.78 712.667 1811.54 714.435 Q1814.26 717.148 1813.88 720.5 Q1813.5 723.851 1810.06 727.288 Q1808.9 728.442 1807.44 729.437 Q1806.01 730.431 1804.25 731.278 L1801.86 728.884 Q1803.49 728.455 1805.02 727.534 Q1806.56 726.613 1807.9 725.275 Q1810.23 722.943 1810.52 720.807 Q1810.83 718.658 1809.08 716.903 Q1807.46 715.282 1805.41 715.516 Q1803.36 715.724 1801.33 717.75 L1799.19 719.886 L1797.16 717.848 L1799.39 715.614 Q1801.22 713.785 1801.46 712.091 Q1801.7 710.384 1800.32 709.009 Q1798.91 707.597 1797.16 707.855 Q1795.4 708.088 1793.53 709.954 Q1792.52 710.973 1791.57 712.361 Q1790.62 713.748 1789.69 715.614 L1787.48 713.404 Q1788.5 711.599 1789.53 710.175 Q1790.58 708.739 1791.67 707.647 Q1794.49 704.823 1797.43 704.467 Q1800.35 704.099 1802.53 706.284 Q1804.05 707.806 1804.24 709.733 Q1804.41 711.649 1803.21 713.662 Z" fill="#000000" fill-rule="nonzero" fill-opacity="1" /><path clip-path="url(#clip140)" d="M1821.62 710.838 L1830.28 702.184 L1832.36 704.271 L1820.73 715.908 L1818.64 713.821 Q1818.59 710.949 1818.57 706.063 Q1818.54 701.153 1818.45 699.814 Q1818.31 697.286 1817.85 695.898 Q1817.4 694.487 1816.5 693.59 Q1815.04 692.13 1813.09 692.24 Q1811.15 692.338 1809.51 693.983 Q1808.34 695.149 1807.44 696.856 Q1806.56 698.55 1805.91 700.846 L1803.4 698.341 Q1804.3 696.242 1805.29 694.634 Q1806.29 693.026 1807.37 691.945 Q1810.22 689.097 1813.34 688.827 Q1816.45 688.557 1818.84 690.939 Q1819.96 692.068 1820.55 693.517 Q1821.14 694.941 1821.4 697.433 Q1821.45 698.096 1821.51 701.447 Q1821.56 704.786 1821.62 710.838 Z" fill="#000000" fill-rule="nonzero" fill-opacity="1" /><path clip-path="url(#clip140)" d="M1914.73 733.549 Q1912.81 735.464 1913.73 738.325 Q1914.65 741.16 1918.44 744.941 Q1922.2 748.71 1925.05 749.643 Q1927.9 750.552 1929.82 748.636 Q1931.74 746.709 1930.82 743.873 Q1929.9 741.013 1926.13 737.244 Q1922.35 733.463 1919.5 732.555 Q1916.66 731.622 1914.73 733.549 M1912.76 731.585 Q1915.85 728.504 1919.91 729.326 Q1923.97 730.124 1928.61 734.764 Q1933.24 739.393 1934.05 743.468 Q1934.86 747.519 1931.78 750.601 Q1928.7 753.682 1924.64 752.884 Q1920.57 752.061 1915.94 747.433 Q1911.3 742.793 1910.49 738.742 Q1909.68 734.666 1912.76 731.585 Z" fill="#000000" fill-rule="nonzero" fill-opacity="1" /><path clip-path="url(#clip140)" d="M1939 736.434 L1941.59 733.844 L1944.71 736.962 L1942.12 739.552 L1939 736.434 Z" fill="#000000" fill-rule="nonzero" fill-opacity="1" /><path clip-path="url(#clip140)" d="M1947.74 714.165 Q1949.9 712.766 1952.1 712.974 Q1954.31 713.171 1956.07 714.939 Q1958.79 717.652 1958.41 721.003 Q1958.03 724.354 1954.59 727.792 Q1953.43 728.946 1951.97 729.94 Q1950.54 730.934 1948.78 731.781 L1946.39 729.388 Q1948.02 728.958 1949.56 728.037 Q1951.09 727.116 1952.43 725.778 Q1954.76 723.446 1955.06 721.31 Q1955.36 719.162 1953.61 717.406 Q1951.99 715.786 1949.94 716.019 Q1947.89 716.228 1945.86 718.253 L1943.72 720.389 L1941.69 718.351 L1943.92 716.117 Q1945.75 714.288 1946 712.594 Q1946.23 710.887 1944.85 709.513 Q1943.44 708.101 1941.69 708.359 Q1939.93 708.592 1938.07 710.458 Q1937.05 711.477 1936.1 712.864 Q1935.16 714.251 1934.22 716.117 L1932.01 713.907 Q1933.03 712.103 1934.06 710.679 Q1935.11 709.242 1936.2 708.15 Q1939.02 705.326 1941.96 704.97 Q1944.88 704.602 1947.06 706.787 Q1948.59 708.309 1948.77 710.237 Q1948.94 712.152 1947.74 714.165 Z" fill="#000000" fill-rule="nonzero" fill-opacity="1" /><path clip-path="url(#clip140)" d="M1963.73 698.169 Q1965.9 696.77 1968.09 696.979 Q1970.3 697.175 1972.07 698.943 Q1974.78 701.656 1974.4 705.007 Q1974.02 708.359 1970.58 711.796 Q1969.43 712.95 1967.97 713.944 Q1966.53 714.939 1964.78 715.786 L1962.38 713.392 Q1964.02 712.962 1965.55 712.041 Q1967.09 711.121 1968.42 709.783 Q1970.76 707.45 1971.05 705.314 Q1971.36 703.166 1969.6 701.41 Q1967.98 699.79 1965.93 700.023 Q1963.88 700.232 1961.86 702.257 L1959.72 704.393 L1957.68 702.356 L1959.92 700.121 Q1961.75 698.292 1961.99 696.598 Q1962.22 694.892 1960.85 693.517 Q1959.44 692.105 1957.68 692.363 Q1955.93 692.596 1954.06 694.462 Q1953.04 695.481 1952.1 696.868 Q1951.15 698.255 1950.22 700.121 L1948.01 697.912 Q1949.03 696.107 1950.06 694.683 Q1951.1 693.247 1952.19 692.154 Q1955.02 689.331 1957.95 688.975 Q1960.87 688.606 1963.06 690.791 Q1964.58 692.314 1964.77 694.241 Q1964.94 696.156 1963.73 698.169 Z" fill="#000000" fill-rule="nonzero" fill-opacity="1" /><path clip-path="url(#clip140)" d="M2059.16 734.151 Q2057.25 736.066 2058.17 738.926 Q2059.09 741.762 2062.87 745.543 Q2066.64 749.312 2069.49 750.245 Q2072.33 751.153 2074.25 749.238 Q2076.18 747.311 2075.26 744.475 Q2074.33 741.615 2070.57 737.846 Q2066.78 734.065 2063.94 733.156 Q2061.09 732.223 2059.16 734.151 M2057.2 732.186 Q2060.28 729.105 2064.34 729.928 Q2068.4 730.726 2073.05 735.366 Q2077.67 739.994 2078.48 744.07 Q2079.29 748.121 2076.21 751.202 Q2073.13 754.283 2069.07 753.485 Q2065 752.663 2060.38 748.035 Q2055.74 743.395 2054.93 739.343 Q2054.12 735.268 2057.2 732.186 Z" fill="#000000" fill-rule="nonzero" fill-opacity="1" /><path clip-path="url(#clip140)" d="M2083.43 737.036 L2086.02 734.445 L2089.14 737.563 L2086.55 740.154 L2083.43 737.036 Z" fill="#000000" fill-rule="nonzero" fill-opacity="1" /><path clip-path="url(#clip140)" d="M2092.17 714.767 Q2094.33 713.367 2096.53 713.576 Q2098.74 713.772 2100.51 715.54 Q2103.22 718.253 2102.84 721.604 Q2102.46 724.956 2099.02 728.393 Q2097.87 729.547 2096.41 730.541 Q2094.97 731.536 2093.21 732.383 L2090.82 729.989 Q2092.45 729.559 2093.99 728.639 Q2095.52 727.718 2096.86 726.38 Q2099.19 724.047 2099.49 721.911 Q2099.79 719.763 2098.04 718.008 Q2096.42 716.387 2094.37 716.62 Q2092.32 716.829 2090.29 718.855 L2088.16 720.991 L2086.12 718.953 L2088.35 716.719 Q2090.18 714.889 2090.43 713.195 Q2090.66 711.489 2089.29 710.114 Q2087.87 708.702 2086.12 708.96 Q2084.36 709.193 2082.5 711.059 Q2081.48 712.078 2080.53 713.465 Q2079.59 714.853 2078.66 716.719 L2076.45 714.509 Q2077.46 712.704 2078.5 711.28 Q2079.54 709.844 2080.63 708.751 Q2083.46 705.928 2086.39 705.572 Q2089.31 705.204 2091.5 707.389 Q2093.02 708.911 2093.2 710.838 Q2093.37 712.753 2092.17 714.767 Z" fill="#000000" fill-rule="nonzero" fill-opacity="1" /><path clip-path="url(#clip140)" d="M2101.18 693.185 L2104.71 709.23 L2110.97 702.969 L2101.18 693.185 M2098.37 691.675 L2101.49 688.557 L2113.43 700.502 L2116.05 697.887 L2118.11 699.949 L2115.5 702.564 L2119.82 706.885 L2117.35 709.353 L2113.03 705.032 L2104.75 713.306 L2102.36 710.912 L2098.37 691.675 Z" fill="#000000" fill-rule="nonzero" fill-opacity="1" /><path clip-path="url(#clip140)" d="M2204.98 733.365 Q2203.07 735.28 2203.99 738.14 Q2204.91 740.976 2208.69 744.757 Q2212.46 748.526 2215.31 749.459 Q2218.15 750.367 2220.07 748.452 Q2222 746.525 2221.08 743.689 Q2220.15 740.829 2216.39 737.06 Q2212.6 733.279 2209.76 732.371 Q2206.91 731.438 2204.98 733.365 M2203.02 731.401 Q2206.1 728.32 2210.16 729.142 Q2214.22 729.94 2218.87 734.58 Q2223.49 739.208 2224.3 743.284 Q2225.11 747.335 2222.03 750.416 Q2218.95 753.498 2214.89 752.7 Q2210.82 751.877 2206.2 747.249 Q2201.56 742.609 2200.75 738.558 Q2199.94 734.482 2203.02 731.401 Z" fill="#000000" fill-rule="nonzero" fill-opacity="1" /><path clip-path="url(#clip140)" d="M2229.25 736.25 L2231.84 733.66 L2234.96 736.778 L2232.37 739.368 L2229.25 736.25 Z" fill="#000000" fill-rule="nonzero" fill-opacity="1" /><path clip-path="url(#clip140)" d="M2237.99 713.981 Q2240.15 712.582 2242.35 712.79 Q2244.56 712.987 2246.33 714.754 Q2249.04 717.467 2248.66 720.819 Q2248.28 724.17 2244.84 727.607 Q2243.69 728.761 2242.23 729.756 Q2240.79 730.75 2239.03 731.597 L2236.64 729.203 Q2238.27 728.774 2239.81 727.853 Q2241.34 726.932 2242.68 725.594 Q2245.01 723.262 2245.31 721.126 Q2245.61 718.977 2243.86 717.222 Q2242.24 715.601 2240.19 715.835 Q2238.14 716.043 2236.11 718.069 L2233.98 720.205 L2231.94 718.167 L2234.17 715.933 Q2236 714.104 2236.25 712.41 Q2236.48 710.703 2235.11 709.328 Q2233.69 707.917 2231.94 708.174 Q2230.18 708.408 2228.32 710.274 Q2227.3 711.293 2226.35 712.68 Q2225.41 714.067 2224.48 715.933 L2222.27 713.723 Q2223.28 711.919 2224.32 710.495 Q2225.36 709.058 2226.45 707.966 Q2229.28 705.142 2232.21 704.786 Q2235.13 704.418 2237.32 706.603 Q2238.84 708.125 2239.02 710.053 Q2239.19 711.968 2237.99 713.981 Z" fill="#000000" fill-rule="nonzero" fill-opacity="1" /><path clip-path="url(#clip140)" d="M2238.05 697.028 L2247.79 687.293 L2249.87 689.38 L2242.41 696.844 L2246.9 701.337 Q2247.26 700.612 2247.71 699.986 Q2248.16 699.348 2248.7 698.808 Q2251.77 695.739 2255.24 695.628 Q2258.71 695.518 2261.59 698.39 Q2264.54 701.349 2264.35 704.835 Q2264.14 708.309 2260.79 711.661 Q2259.63 712.815 2258.23 713.821 Q2256.85 714.816 2255.18 715.7 L2252.69 713.208 Q2254.39 712.704 2255.87 711.82 Q2257.34 710.937 2258.65 709.623 Q2260.78 707.499 2260.9 705.142 Q2261.02 702.785 2259.11 700.87 Q2257.19 698.955 2254.83 699.078 Q2252.48 699.201 2250.35 701.324 Q2249.36 702.319 2248.59 703.534 Q2247.82 704.737 2247.26 706.235 L2238.05 697.028 Z" fill="#000000" fill-rule="nonzero" fill-opacity="1" /><polyline clip-path="url(#clip140)" style="stroke:#000000; stroke-linecap:round; stroke-linejoin:round; stroke-width:4; stroke-opacity:1; fill:none" points="1361.64,662.16 1361.64,97.5521 "/>
<polyline clip-path="url(#clip140)" style="stroke:#000000; stroke-linecap:round; stroke-linejoin:round; stroke-width:4; stroke-opacity:1; fill:none" points="1361.64,646.181 1380.53,646.181 "/>
<polyline clip-path="url(#clip140)" style="stroke:#000000; stroke-linecap:round; stroke-linejoin:round; stroke-width:4; stroke-opacity:1; fill:none" points="1361.64,504.137 1380.53,504.137 "/>
<polyline clip-path="url(#clip140)" style="stroke:#000000; stroke-linecap:round; stroke-linejoin:round; stroke-width:4; stroke-opacity:1; fill:none" points="1361.64,362.092 1380.53,362.092 "/>
<polyline clip-path="url(#clip140)" style="stroke:#000000; stroke-linecap:round; stroke-linejoin:round; stroke-width:4; stroke-opacity:1; fill:none" points="1361.64,220.048 1380.53,220.048 "/>
<path clip-path="url(#clip140)" d="M1260.13 635.53 Q1257.42 635.53 1256.05 638.204 Q1254.7 640.86 1254.7 646.207 Q1254.7 651.537 1256.05 654.21 Q1257.42 656.867 1260.13 656.867 Q1262.86 656.867 1264.21 654.21 Q1265.58 651.537 1265.58 646.207 Q1265.58 640.86 1264.21 638.204 Q1262.86 635.53 1260.13 635.53 M1260.13 632.752 Q1264.49 632.752 1266.78 636.207 Q1269.09 639.645 1269.09 646.207 Q1269.09 652.752 1266.78 656.207 Q1264.49 659.644 1260.13 659.644 Q1255.78 659.644 1253.47 656.207 Q1251.17 652.752 1251.17 646.207 Q1251.17 639.645 1253.47 636.207 Q1255.78 632.752 1260.13 632.752 Z" fill="#000000" fill-rule="nonzero" fill-opacity="1" /><path clip-path="url(#clip140)" d="M1275.25 654.731 L1278.92 654.731 L1278.92 659.141 L1275.25 659.141 L1275.25 654.731 Z" fill="#000000" fill-rule="nonzero" fill-opacity="1" /><path clip-path="url(#clip140)" d="M1294.06 635.53 Q1291.35 635.53 1289.98 638.204 Q1288.62 640.86 1288.62 646.207 Q1288.62 651.537 1289.98 654.21 Q1291.35 656.867 1294.06 656.867 Q1296.78 656.867 1298.14 654.21 Q1299.51 651.537 1299.51 646.207 Q1299.51 640.86 1298.14 638.204 Q1296.78 635.53 1294.06 635.53 M1294.06 632.752 Q1298.41 632.752 1300.71 636.207 Q1303.01 639.645 1303.01 646.207 Q1303.01 652.752 1300.71 656.207 Q1298.41 659.644 1294.06 659.644 Q1289.7 659.644 1287.39 656.207 Q1285.1 652.752 1285.1 646.207 Q1285.1 639.645 1287.39 636.207 Q1289.7 632.752 1294.06 632.752 Z" fill="#000000" fill-rule="nonzero" fill-opacity="1" /><path clip-path="url(#clip140)" d="M1316.68 635.53 Q1313.97 635.53 1312.6 638.204 Q1311.24 640.86 1311.24 646.207 Q1311.24 651.537 1312.6 654.21 Q1313.97 656.867 1316.68 656.867 Q1319.4 656.867 1320.76 654.21 Q1322.13 651.537 1322.13 646.207 Q1322.13 640.86 1320.76 638.204 Q1319.4 635.53 1316.68 635.53 M1316.68 632.752 Q1321.04 632.752 1323.33 636.207 Q1325.64 639.645 1325.64 646.207 Q1325.64 652.752 1323.33 656.207 Q1321.04 659.644 1316.68 659.644 Q1312.32 659.644 1310.01 656.207 Q1307.72 652.752 1307.72 646.207 Q1307.72 639.645 1310.01 636.207 Q1312.32 632.752 1316.68 632.752 Z" fill="#000000" fill-rule="nonzero" fill-opacity="1" /><path clip-path="url(#clip140)" d="M1260.88 493.486 Q1258.17 493.486 1256.8 496.159 Q1255.45 498.815 1255.45 504.163 Q1255.45 509.492 1256.8 512.166 Q1258.17 514.822 1260.88 514.822 Q1263.6 514.822 1264.96 512.166 Q1266.33 509.492 1266.33 504.163 Q1266.33 498.815 1264.96 496.159 Q1263.6 493.486 1260.88 493.486 M1260.88 490.708 Q1265.24 490.708 1267.53 494.163 Q1269.84 497.6 1269.84 504.163 Q1269.84 510.708 1267.53 514.163 Q1265.24 517.6 1260.88 517.6 Q1256.52 517.6 1254.21 514.163 Q1251.92 510.708 1251.92 504.163 Q1251.92 497.6 1254.21 494.163 Q1256.52 490.708 1260.88 490.708 Z" fill="#000000" fill-rule="nonzero" fill-opacity="1" /><path clip-path="url(#clip140)" d="M1276 512.687 L1279.66 512.687 L1279.66 517.097 L1276 517.097 L1276 512.687 Z" fill="#000000" fill-rule="nonzero" fill-opacity="1" /><path clip-path="url(#clip140)" d="M1294.8 493.486 Q1292.09 493.486 1290.72 496.159 Q1289.37 498.815 1289.37 504.163 Q1289.37 509.492 1290.72 512.166 Q1292.09 514.822 1294.8 514.822 Q1297.53 514.822 1298.88 512.166 Q1300.25 509.492 1300.25 504.163 Q1300.25 498.815 1298.88 496.159 Q1297.53 493.486 1294.8 493.486 M1294.8 490.708 Q1299.16 490.708 1301.45 494.163 Q1303.76 497.6 1303.76 504.163 Q1303.76 510.708 1301.45 514.163 Q1299.16 517.6 1294.8 517.6 Q1290.45 517.6 1288.14 514.163 Q1285.84 510.708 1285.84 504.163 Q1285.84 497.6 1288.14 494.163 Q1290.45 490.708 1294.8 490.708 Z" fill="#000000" fill-rule="nonzero" fill-opacity="1" /><path clip-path="url(#clip140)" d="M1309.96 491.177 L1323.73 491.177 L1323.73 494.128 L1313.17 494.128 L1313.17 500.482 Q1313.93 500.222 1314.7 500.1 Q1315.46 499.961 1316.23 499.961 Q1320.57 499.961 1323.1 502.34 Q1325.64 504.718 1325.64 508.781 Q1325.64 512.965 1323.03 515.291 Q1320.43 517.6 1315.69 517.6 Q1314.06 517.6 1312.35 517.322 Q1310.67 517.044 1308.87 516.489 L1308.87 512.965 Q1310.43 513.815 1312.09 514.232 Q1313.76 514.649 1315.62 514.649 Q1318.62 514.649 1320.38 513.069 Q1322.13 511.489 1322.13 508.781 Q1322.13 506.072 1320.38 504.492 Q1318.62 502.913 1315.62 502.913 Q1314.21 502.913 1312.81 503.225 Q1311.42 503.538 1309.96 504.197 L1309.96 491.177 Z" fill="#000000" fill-rule="nonzero" fill-opacity="1" /><path clip-path="url(#clip140)" d="M1260.13 351.441 Q1257.42 351.441 1256.05 354.115 Q1254.7 356.771 1254.7 362.118 Q1254.7 367.448 1256.05 370.122 Q1257.42 372.778 1260.13 372.778 Q1262.86 372.778 1264.21 370.122 Q1265.58 367.448 1265.58 362.118 Q1265.58 356.771 1264.21 354.115 Q1262.86 351.441 1260.13 351.441 M1260.13 348.663 Q1264.49 348.663 1266.78 352.118 Q1269.09 355.556 1269.09 362.118 Q1269.09 368.663 1266.78 372.118 Q1264.49 375.556 1260.13 375.556 Q1255.78 375.556 1253.47 372.118 Q1251.17 368.663 1251.17 362.118 Q1251.17 355.556 1253.47 352.118 Q1255.78 348.663 1260.13 348.663 Z" fill="#000000" fill-rule="nonzero" fill-opacity="1" /><path clip-path="url(#clip140)" d="M1275.25 370.643 L1278.92 370.643 L1278.92 375.052 L1275.25 375.052 L1275.25 370.643 Z" fill="#000000" fill-rule="nonzero" fill-opacity="1" /><path clip-path="url(#clip140)" d="M1287.16 372.101 L1292.89 372.101 L1292.89 352.327 L1286.66 353.577 L1286.66 350.382 L1292.86 349.132 L1296.37 349.132 L1296.37 372.101 L1302.09 372.101 L1302.09 375.052 L1287.16 375.052 L1287.16 372.101 Z" fill="#000000" fill-rule="nonzero" fill-opacity="1" /><path clip-path="url(#clip140)" d="M1316.68 351.441 Q1313.97 351.441 1312.6 354.115 Q1311.24 356.771 1311.24 362.118 Q1311.24 367.448 1312.6 370.122 Q1313.97 372.778 1316.68 372.778 Q1319.4 372.778 1320.76 370.122 Q1322.13 367.448 1322.13 362.118 Q1322.13 356.771 1320.76 354.115 Q1319.4 351.441 1316.68 351.441 M1316.68 348.663 Q1321.04 348.663 1323.33 352.118 Q1325.64 355.556 1325.64 362.118 Q1325.64 368.663 1323.33 372.118 Q1321.04 375.556 1316.68 375.556 Q1312.32 375.556 1310.01 372.118 Q1307.72 368.663 1307.72 362.118 Q1307.72 355.556 1310.01 352.118 Q1312.32 348.663 1316.68 348.663 Z" fill="#000000" fill-rule="nonzero" fill-opacity="1" /><path clip-path="url(#clip140)" d="M1260.88 209.397 Q1258.17 209.397 1256.8 212.07 Q1255.45 214.727 1255.45 220.074 Q1255.45 225.404 1256.8 228.077 Q1258.17 230.734 1260.88 230.734 Q1263.6 230.734 1264.96 228.077 Q1266.33 225.404 1266.33 220.074 Q1266.33 214.727 1264.96 212.07 Q1263.6 209.397 1260.88 209.397 M1260.88 206.619 Q1265.24 206.619 1267.53 210.074 Q1269.84 213.511 1269.84 220.074 Q1269.84 226.619 1267.53 230.074 Q1265.24 233.511 1260.88 233.511 Q1256.52 233.511 1254.21 230.074 Q1251.92 226.619 1251.92 220.074 Q1251.92 213.511 1254.21 210.074 Q1256.52 206.619 1260.88 206.619 Z" fill="#000000" fill-rule="nonzero" fill-opacity="1" /><path clip-path="url(#clip140)" d="M1276 228.598 L1279.66 228.598 L1279.66 233.008 L1276 233.008 L1276 228.598 Z" fill="#000000" fill-rule="nonzero" fill-opacity="1" /><path clip-path="url(#clip140)" d="M1287.91 230.056 L1293.64 230.056 L1293.64 210.282 L1287.41 211.532 L1287.41 208.338 L1293.6 207.088 L1297.11 207.088 L1297.11 230.056 L1302.84 230.056 L1302.84 233.008 L1287.91 233.008 L1287.91 230.056 Z" fill="#000000" fill-rule="nonzero" fill-opacity="1" /><path clip-path="url(#clip140)" d="M1309.96 207.088 L1323.73 207.088 L1323.73 210.039 L1313.17 210.039 L1313.17 216.393 Q1313.93 216.133 1314.7 216.011 Q1315.46 215.873 1316.23 215.873 Q1320.57 215.873 1323.1 218.251 Q1325.64 220.629 1325.64 224.692 Q1325.64 228.876 1323.03 231.202 Q1320.43 233.511 1315.69 233.511 Q1314.06 233.511 1312.35 233.234 Q1310.67 232.956 1308.87 232.4 L1308.87 228.876 Q1310.43 229.727 1312.09 230.143 Q1313.76 230.56 1315.62 230.56 Q1318.62 230.56 1320.38 228.98 Q1322.13 227.4 1322.13 224.692 Q1322.13 221.984 1320.38 220.404 Q1318.62 218.824 1315.62 218.824 Q1314.21 218.824 1312.81 219.136 Q1311.42 219.449 1309.96 220.109 L1309.96 207.088 Z" fill="#000000" fill-rule="nonzero" fill-opacity="1" /><path clip-path="url(#clip140)" d="M1373.53 18.9258 Q1370.02 18.9258 1368.12 21.4721 Q1366.13 24.1341 1366.13 28.5323 Q1366.13 33.185 1368.09 35.8702 Q1370.08 38.5322 1373.53 38.5322 Q1376.94 38.5322 1378.93 35.847 Q1380.92 33.1619 1380.92 28.5323 Q1380.92 24.2962 1378.93 21.4721 Q1377.1 18.9258 1373.53 18.9258 M1373.53 15.5462 L1387.68 15.5462 L1387.68 19.8054 L1382.91 19.8054 Q1385.43 23.4165 1385.43 28.5323 Q1385.43 34.898 1382.26 38.5091 Q1379.09 42.1433 1373.53 42.1433 Q1367.96 42.1433 1364.81 38.5091 Q1361.64 34.898 1361.64 28.5323 Q1361.64 22.1203 1364.81 18.5323 Q1367.42 15.5462 1373.53 15.5462 Z" fill="#000000" fill-rule="nonzero" fill-opacity="1" /><path clip-path="url(#clip140)" d="M1411.84 19.6666 Q1410.99 19.3656 1410.13 19.1342 Q1407.84 18.5323 1405.39 18.5323 Q1401.15 18.5323 1398.79 20.824 Q1396.59 22.9536 1396.17 26.8656 L1411.84 26.8656 L1411.84 30.1989 L1396.17 30.1989 Q1396.59 34.1109 1398.79 36.2405 Q1401.15 38.5322 1405.39 38.5322 Q1408.35 38.5322 1410.13 37.9304 L1411.84 37.3517 L1411.84 41.2174 L1410.02 41.634 Q1407.61 42.1433 1405.13 42.1433 Q1398.93 42.1433 1395.32 38.5322 Q1391.68 34.9211 1391.68 28.5323 Q1391.68 22.1434 1395.32 18.5323 Q1398.93 14.9212 1405.13 14.9212 Q1407.47 14.9212 1410.02 15.4305 Q1410.94 15.6157 1411.84 15.8934 L1411.84 19.6666 Z" fill="#000000" fill-rule="nonzero" fill-opacity="1" /><polyline clip-path="url(#clip143)" style="stroke:#009af9; stroke-linecap:round; stroke-linejoin:round; stroke-width:4; stroke-opacity:1; fill:none" points="1389.69,164.217 1448.13,221.691 1506.56,279.956 1565,339.014 1623.44,398.863 1681.88,459.505 1740.32,520.938 1798.76,583.164 1857.2,646.181 1915.63,582.372 1974.07,517.77 2032.51,452.377 2090.95,386.192 2149.39,319.215 2207.83,251.446 2266.27,182.885 2324.71,113.532 "/>
<circle clip-path="url(#clip143)" cx="1857.2" cy="646.181" r="10.8" fill="#ff0000" fill-rule="evenodd" fill-opacity="1" stroke="#000000" stroke-opacity="1" stroke-width="3.2"/>
<path clip-path="url(#clip140)" d="M161.818 1456.91 L1152.94 1456.91 L1152.94 892.306 L161.818 892.306  Z" fill="#ffffff" fill-rule="evenodd" fill-opacity="1"/>
<defs>
  <clipPath id="clip144">
    <rect x="161" y="892" width="992" height="566"/>
  </clipPath>
</defs>
<polyline clip-path="url(#clip144)" style="stroke:#000000; stroke-linecap:round; stroke-linejoin:round; stroke-width:2; stroke-opacity:0.1; fill:none" points="276.635,1456.91 276.635,892.306 "/>
<polyline clip-path="url(#clip144)" style="stroke:#000000; stroke-linecap:round; stroke-linejoin:round; stroke-width:2; stroke-opacity:0.1; fill:none" points="491.352,1456.91 491.352,892.306 "/>
<polyline clip-path="url(#clip144)" style="stroke:#000000; stroke-linecap:round; stroke-linejoin:round; stroke-width:2; stroke-opacity:0.1; fill:none" points="706.07,1456.91 706.07,892.306 "/>
<polyline clip-path="url(#clip144)" style="stroke:#000000; stroke-linecap:round; stroke-linejoin:round; stroke-width:2; stroke-opacity:0.1; fill:none" points="920.788,1456.91 920.788,892.306 "/>
<polyline clip-path="url(#clip144)" style="stroke:#000000; stroke-linecap:round; stroke-linejoin:round; stroke-width:2; stroke-opacity:0.1; fill:none" points="1135.51,1456.91 1135.51,892.306 "/>
<polyline clip-path="url(#clip144)" style="stroke:#000000; stroke-linecap:round; stroke-linejoin:round; stroke-width:2; stroke-opacity:0.1; fill:none" points="161.818,1440.94 1152.94,1440.94 "/>
<polyline clip-path="url(#clip144)" style="stroke:#000000; stroke-linecap:round; stroke-linejoin:round; stroke-width:2; stroke-opacity:0.1; fill:none" points="161.818,1322.34 1152.94,1322.34 "/>
<polyline clip-path="url(#clip144)" style="stroke:#000000; stroke-linecap:round; stroke-linejoin:round; stroke-width:2; stroke-opacity:0.1; fill:none" points="161.818,1203.74 1152.94,1203.74 "/>
<polyline clip-path="url(#clip144)" style="stroke:#000000; stroke-linecap:round; stroke-linejoin:round; stroke-width:2; stroke-opacity:0.1; fill:none" points="161.818,1085.14 1152.94,1085.14 "/>
<polyline clip-path="url(#clip144)" style="stroke:#000000; stroke-linecap:round; stroke-linejoin:round; stroke-width:2; stroke-opacity:0.1; fill:none" points="161.818,966.54 1152.94,966.54 "/>
<polyline clip-path="url(#clip140)" style="stroke:#000000; stroke-linecap:round; stroke-linejoin:round; stroke-width:4; stroke-opacity:1; fill:none" points="161.818,1456.91 1152.94,1456.91 "/>
<polyline clip-path="url(#clip140)" style="stroke:#000000; stroke-linecap:round; stroke-linejoin:round; stroke-width:4; stroke-opacity:1; fill:none" points="276.635,1456.91 276.635,1438.02 "/>
<polyline clip-path="url(#clip140)" style="stroke:#000000; stroke-linecap:round; stroke-linejoin:round; stroke-width:4; stroke-opacity:1; fill:none" points="491.352,1456.91 491.352,1438.02 "/>
<polyline clip-path="url(#clip140)" style="stroke:#000000; stroke-linecap:round; stroke-linejoin:round; stroke-width:4; stroke-opacity:1; fill:none" points="706.07,1456.91 706.07,1438.02 "/>
<polyline clip-path="url(#clip140)" style="stroke:#000000; stroke-linecap:round; stroke-linejoin:round; stroke-width:4; stroke-opacity:1; fill:none" points="920.788,1456.91 920.788,1438.02 "/>
<polyline clip-path="url(#clip140)" style="stroke:#000000; stroke-linecap:round; stroke-linejoin:round; stroke-width:4; stroke-opacity:1; fill:none" points="1135.51,1456.91 1135.51,1438.02 "/>
<path clip-path="url(#clip140)" d="M206.79 1544.64 Q204.875 1546.56 205.796 1549.42 Q206.716 1552.25 210.497 1556.03 Q214.266 1559.8 217.114 1560.74 Q219.962 1561.65 221.877 1559.73 Q223.805 1557.8 222.884 1554.97 Q221.963 1552.11 218.195 1548.34 Q214.413 1544.56 211.565 1543.65 Q208.717 1542.72 206.79 1544.64 M204.826 1542.68 Q207.907 1539.6 211.971 1540.42 Q216.034 1541.22 220.674 1545.86 Q225.302 1550.49 226.113 1554.56 Q226.923 1558.61 223.842 1561.69 Q220.76 1564.78 216.697 1563.98 Q212.633 1563.15 208.005 1558.53 Q203.365 1553.89 202.555 1549.84 Q201.745 1545.76 204.826 1542.68 Z" fill="#000000" fill-rule="nonzero" fill-opacity="1" /><path clip-path="url(#clip140)" d="M231.06 1547.53 L233.65 1544.94 L236.768 1548.06 L234.178 1550.65 L231.06 1547.53 Z" fill="#000000" fill-rule="nonzero" fill-opacity="1" /><path clip-path="url(#clip140)" d="M223.866 1524.3 L233.601 1514.57 L235.688 1516.65 L228.224 1524.12 L232.717 1528.61 Q233.073 1527.89 233.527 1527.26 Q233.969 1526.62 234.509 1526.08 Q237.578 1523.01 241.053 1522.9 Q244.527 1522.79 247.399 1525.66 Q250.358 1528.62 250.161 1532.11 Q249.953 1535.58 246.601 1538.93 Q245.447 1540.09 244.048 1541.09 Q242.661 1542.09 240.991 1542.97 L238.499 1540.48 Q240.206 1539.98 241.679 1539.09 Q243.152 1538.21 244.465 1536.9 Q246.589 1534.77 246.712 1532.42 Q246.835 1530.06 244.92 1528.14 Q243.005 1526.23 240.648 1526.35 Q238.29 1526.47 236.167 1528.6 Q235.172 1529.59 234.399 1530.81 Q233.638 1532.01 233.073 1533.51 L223.866 1524.3 Z" fill="#000000" fill-rule="nonzero" fill-opacity="1" /><path clip-path="url(#clip140)" d="M246.773 1504.66 Q244.858 1506.57 245.779 1509.43 Q246.7 1512.27 250.481 1516.05 Q254.249 1519.82 257.097 1520.75 Q259.946 1521.66 261.861 1519.75 Q263.788 1517.82 262.867 1514.98 Q261.947 1512.12 258.178 1508.35 Q254.397 1504.57 251.549 1503.67 Q248.701 1502.73 246.773 1504.66 M244.809 1502.7 Q247.89 1499.61 251.954 1500.44 Q256.017 1501.23 260.658 1505.87 Q265.286 1510.5 266.096 1514.58 Q266.906 1518.63 263.825 1521.71 Q260.743 1524.79 256.68 1523.99 Q252.617 1523.17 247.989 1518.54 Q243.348 1513.9 242.538 1509.85 Q241.728 1505.78 244.809 1502.7 Z" fill="#000000" fill-rule="nonzero" fill-opacity="1" /><path clip-path="url(#clip140)" d="M262.769 1488.66 Q260.854 1490.58 261.775 1493.44 Q262.695 1496.27 266.476 1500.06 Q270.245 1503.82 273.093 1504.76 Q275.941 1505.67 277.856 1503.75 Q279.784 1501.82 278.863 1498.99 Q277.942 1496.13 274.174 1492.36 Q270.392 1488.58 267.544 1487.67 Q264.696 1486.74 262.769 1488.66 M260.805 1486.7 Q263.886 1483.62 267.95 1484.44 Q272.013 1485.24 276.653 1489.88 Q281.281 1494.51 282.092 1498.58 Q282.902 1502.63 279.821 1505.72 Q276.739 1508.8 272.676 1508 Q268.612 1507.18 263.984 1502.55 Q259.344 1497.91 258.534 1493.86 Q257.724 1489.78 260.805 1486.7 Z" fill="#000000" fill-rule="nonzero" fill-opacity="1" /><path clip-path="url(#clip140)" d="M422.035 1544.11 Q420.12 1546.03 421.041 1548.89 Q421.962 1551.73 425.743 1555.51 Q429.512 1559.28 432.36 1560.21 Q435.208 1561.12 437.123 1559.2 Q439.05 1557.27 438.129 1554.44 Q437.209 1551.58 433.44 1547.81 Q429.659 1544.03 426.811 1543.12 Q423.963 1542.19 422.035 1544.11 M420.071 1542.15 Q423.153 1539.07 427.216 1539.89 Q431.279 1540.69 435.92 1545.33 Q440.548 1549.96 441.358 1554.03 Q442.168 1558.08 439.087 1561.17 Q436.006 1564.25 431.942 1563.45 Q427.879 1562.63 423.251 1558 Q418.61 1553.36 417.8 1549.31 Q416.99 1545.23 420.071 1542.15 Z" fill="#000000" fill-rule="nonzero" fill-opacity="1" /><path clip-path="url(#clip140)" d="M446.305 1547 L448.896 1544.41 L452.014 1547.53 L449.423 1550.12 L446.305 1547 Z" fill="#000000" fill-rule="nonzero" fill-opacity="1" /><path clip-path="url(#clip140)" d="M439.112 1523.77 L448.846 1514.04 L450.933 1516.13 L443.47 1523.59 L447.963 1528.08 Q448.319 1527.36 448.773 1526.73 Q449.215 1526.09 449.755 1525.55 Q452.824 1522.48 456.298 1522.37 Q459.772 1522.26 462.645 1525.14 Q465.603 1528.09 465.407 1531.58 Q465.198 1535.05 461.847 1538.41 Q460.693 1539.56 459.293 1540.57 Q457.906 1541.56 456.237 1542.45 L453.745 1539.95 Q455.451 1539.45 456.924 1538.57 Q458.397 1537.68 459.711 1536.37 Q461.835 1534.24 461.957 1531.89 Q462.08 1529.53 460.165 1527.62 Q458.25 1525.7 455.893 1525.82 Q453.536 1525.95 451.412 1528.07 Q450.418 1529.06 449.644 1530.28 Q448.883 1531.48 448.319 1532.98 L439.112 1523.77 Z" fill="#000000" fill-rule="nonzero" fill-opacity="1" /><path clip-path="url(#clip140)" d="M473.46 1521.91 L482.115 1513.25 L484.202 1515.34 L472.564 1526.98 L470.477 1524.89 Q470.428 1522.02 470.403 1517.13 Q470.379 1512.22 470.293 1510.88 Q470.145 1508.35 469.691 1506.97 Q469.237 1505.56 468.341 1504.66 Q466.88 1503.2 464.928 1503.31 Q462.989 1503.41 461.344 1505.05 Q460.177 1506.22 459.281 1507.92 Q458.397 1509.62 457.747 1511.91 L455.242 1509.41 Q456.138 1507.31 457.133 1505.7 Q458.127 1504.09 459.207 1503.01 Q462.056 1500.17 465.174 1499.9 Q468.292 1499.63 470.673 1502.01 Q471.803 1503.14 472.392 1504.59 Q472.981 1506.01 473.239 1508.5 Q473.288 1509.16 473.35 1512.52 Q473.399 1515.86 473.46 1521.91 Z" fill="#000000" fill-rule="nonzero" fill-opacity="1" /><path clip-path="url(#clip140)" d="M471.103 1491.78 L480.838 1482.05 L482.925 1484.13 L475.461 1491.6 L479.954 1496.09 Q480.31 1495.37 480.764 1494.74 Q481.206 1494.1 481.746 1493.56 Q484.815 1490.49 488.29 1490.38 Q491.764 1490.27 494.636 1493.14 Q497.595 1496.1 497.398 1499.59 Q497.19 1503.06 493.838 1506.41 Q492.684 1507.57 491.285 1508.58 Q489.898 1509.57 488.228 1510.45 L485.736 1507.96 Q487.443 1507.46 488.916 1506.57 Q490.389 1505.69 491.702 1504.38 Q493.826 1502.25 493.949 1499.9 Q494.072 1497.54 492.157 1495.62 Q490.241 1493.71 487.884 1493.83 Q485.527 1493.95 483.404 1496.08 Q482.409 1497.07 481.636 1498.29 Q480.875 1499.49 480.31 1500.99 L471.103 1491.78 Z" fill="#000000" fill-rule="nonzero" fill-opacity="1" /><path clip-path="url(#clip140)" d="M636.225 1544.64 Q634.31 1546.56 635.231 1549.42 Q636.152 1552.25 639.933 1556.03 Q643.701 1559.8 646.549 1560.74 Q649.397 1561.65 651.313 1559.73 Q653.24 1557.8 652.319 1554.97 Q651.398 1552.11 647.63 1548.34 Q643.849 1544.56 641.001 1543.65 Q638.153 1542.72 636.225 1544.64 M634.261 1542.68 Q637.342 1539.6 641.406 1540.42 Q645.469 1541.22 650.109 1545.86 Q654.738 1550.49 655.548 1554.56 Q656.358 1558.61 653.277 1561.69 Q650.195 1564.78 646.132 1563.98 Q642.069 1563.15 637.441 1558.53 Q632.8 1553.89 631.99 1549.84 Q631.18 1545.76 634.261 1542.68 Z" fill="#000000" fill-rule="nonzero" fill-opacity="1" /><path clip-path="url(#clip140)" d="M660.495 1547.53 L663.085 1544.94 L666.203 1548.06 L663.613 1550.65 L660.495 1547.53 Z" fill="#000000" fill-rule="nonzero" fill-opacity="1" /><path clip-path="url(#clip140)" d="M653.301 1524.3 L663.036 1514.57 L665.123 1516.65 L657.659 1524.12 L662.152 1528.61 Q662.508 1527.89 662.963 1527.26 Q663.404 1526.62 663.945 1526.08 Q667.014 1523.01 670.488 1522.9 Q673.962 1522.79 676.835 1525.66 Q679.793 1528.62 679.597 1532.11 Q679.388 1535.58 676.037 1538.93 Q674.883 1540.09 673.483 1541.09 Q672.096 1542.09 670.426 1542.97 L667.934 1540.48 Q669.641 1539.98 671.114 1539.09 Q672.587 1538.21 673.901 1536.9 Q676.024 1534.77 676.147 1532.42 Q676.27 1530.06 674.355 1528.14 Q672.44 1526.23 670.083 1526.35 Q667.726 1526.47 665.602 1528.6 Q664.608 1529.59 663.834 1530.81 Q663.073 1532.01 662.508 1533.51 L653.301 1524.3 Z" fill="#000000" fill-rule="nonzero" fill-opacity="1" /><path clip-path="url(#clip140)" d="M669.297 1508.31 L679.032 1498.57 L681.119 1500.66 L673.655 1508.12 L678.148 1512.61 Q678.504 1511.89 678.958 1511.26 Q679.4 1510.63 679.94 1510.09 Q683.009 1507.02 686.484 1506.91 Q689.958 1506.8 692.83 1509.67 Q695.789 1512.63 695.592 1516.11 Q695.384 1519.59 692.032 1522.94 Q690.878 1524.09 689.479 1525.1 Q688.092 1526.09 686.422 1526.98 L683.93 1524.49 Q685.636 1523.98 687.11 1523.1 Q688.583 1522.21 689.896 1520.9 Q692.02 1518.78 692.143 1516.42 Q692.266 1514.06 690.35 1512.15 Q688.435 1510.23 686.078 1510.36 Q683.721 1510.48 681.598 1512.6 Q680.603 1513.6 679.83 1514.81 Q679.069 1516.01 678.504 1517.51 L669.297 1508.31 Z" fill="#000000" fill-rule="nonzero" fill-opacity="1" /><path clip-path="url(#clip140)" d="M692.204 1488.66 Q690.289 1490.58 691.21 1493.44 Q692.131 1496.27 695.912 1500.06 Q699.68 1503.82 702.528 1504.76 Q705.376 1505.67 707.291 1503.75 Q709.219 1501.82 708.298 1498.99 Q707.377 1496.13 703.609 1492.36 Q699.828 1488.58 696.98 1487.67 Q694.132 1486.74 692.204 1488.66 M690.24 1486.7 Q693.321 1483.62 697.385 1484.44 Q701.448 1485.24 706.088 1489.88 Q710.717 1494.51 711.527 1498.58 Q712.337 1502.63 709.256 1505.72 Q706.174 1508.8 702.111 1508 Q698.048 1507.18 693.42 1502.55 Q688.779 1497.91 687.969 1493.86 Q687.159 1489.78 690.24 1486.7 Z" fill="#000000" fill-rule="nonzero" fill-opacity="1" /><path clip-path="url(#clip140)" d="M851.471 1544.11 Q849.556 1546.03 850.476 1548.89 Q851.397 1551.73 855.178 1555.51 Q858.947 1559.28 861.795 1560.21 Q864.643 1561.12 866.558 1559.2 Q868.485 1557.27 867.565 1554.44 Q866.644 1551.58 862.875 1547.81 Q859.094 1544.03 856.246 1543.12 Q853.398 1542.19 851.471 1544.11 M849.506 1542.15 Q852.588 1539.07 856.651 1539.89 Q860.715 1540.69 865.355 1545.33 Q869.983 1549.96 870.793 1554.03 Q871.603 1558.08 868.522 1561.17 Q865.441 1564.25 861.377 1563.45 Q857.314 1562.63 852.686 1558 Q848.046 1553.36 847.235 1549.31 Q846.425 1545.23 849.506 1542.15 Z" fill="#000000" fill-rule="nonzero" fill-opacity="1" /><path clip-path="url(#clip140)" d="M875.74 1547 L878.331 1544.41 L881.449 1547.53 L878.859 1550.12 L875.74 1547 Z" fill="#000000" fill-rule="nonzero" fill-opacity="1" /><path clip-path="url(#clip140)" d="M868.547 1523.77 L878.282 1514.04 L880.369 1516.13 L872.905 1523.59 L877.398 1528.08 Q877.754 1527.36 878.208 1526.73 Q878.65 1526.09 879.19 1525.55 Q882.259 1522.48 885.733 1522.37 Q889.207 1522.26 892.08 1525.14 Q895.038 1528.09 894.842 1531.58 Q894.633 1535.05 891.282 1538.41 Q890.128 1539.56 888.729 1540.57 Q887.341 1541.56 885.672 1542.45 L883.18 1539.95 Q884.886 1539.45 886.359 1538.57 Q887.832 1537.68 889.146 1536.37 Q891.27 1534.24 891.392 1531.89 Q891.515 1529.53 889.6 1527.62 Q887.685 1525.7 885.328 1525.82 Q882.971 1525.95 880.847 1528.07 Q879.853 1529.06 879.08 1530.28 Q878.318 1531.48 877.754 1532.98 L868.547 1523.77 Z" fill="#000000" fill-rule="nonzero" fill-opacity="1" /><path clip-path="url(#clip140)" d="M883.892 1508.43 L895.677 1496.64 L896.733 1497.7 L907.351 1521.62 L904.761 1524.22 L894.781 1501.71 L885.979 1510.52 L883.892 1508.43 Z" fill="#000000" fill-rule="nonzero" fill-opacity="1" /><path clip-path="url(#clip140)" d="M900.538 1491.78 L910.273 1482.05 L912.36 1484.13 L904.896 1491.6 L909.389 1496.09 Q909.745 1495.37 910.199 1494.74 Q910.641 1494.1 911.182 1493.56 Q914.251 1490.49 917.725 1490.38 Q921.199 1490.27 924.071 1493.14 Q927.03 1496.1 926.834 1499.59 Q926.625 1503.06 923.274 1506.41 Q922.12 1507.57 920.72 1508.58 Q919.333 1509.57 917.663 1510.45 L915.171 1507.96 Q916.878 1507.46 918.351 1506.57 Q919.824 1505.69 921.137 1504.38 Q923.261 1502.25 923.384 1499.9 Q923.507 1497.54 921.592 1495.62 Q919.677 1493.71 917.32 1493.83 Q914.963 1493.95 912.839 1496.08 Q911.844 1497.07 911.071 1498.29 Q910.31 1499.49 909.745 1500.99 L900.538 1491.78 Z" fill="#000000" fill-rule="nonzero" fill-opacity="1" /><path clip-path="url(#clip140)" d="M1065.66 1544.64 Q1063.75 1546.56 1064.67 1549.42 Q1065.59 1552.25 1069.37 1556.03 Q1073.14 1559.8 1075.98 1560.74 Q1078.83 1561.65 1080.75 1559.73 Q1082.67 1557.8 1081.75 1554.97 Q1080.83 1552.11 1077.06 1548.34 Q1073.28 1544.56 1070.44 1543.65 Q1067.59 1542.72 1065.66 1544.64 M1063.7 1542.68 Q1066.78 1539.6 1070.84 1540.42 Q1074.9 1541.22 1079.54 1545.86 Q1084.17 1550.49 1084.98 1554.56 Q1085.79 1558.61 1082.71 1561.69 Q1079.63 1564.78 1075.57 1563.98 Q1071.5 1563.15 1066.88 1558.53 Q1062.24 1553.89 1061.43 1549.84 Q1060.61 1545.76 1063.7 1542.68 Z" fill="#000000" fill-rule="nonzero" fill-opacity="1" /><path clip-path="url(#clip140)" d="M1089.93 1547.53 L1092.52 1544.94 L1095.64 1548.06 L1093.05 1550.65 L1089.93 1547.53 Z" fill="#000000" fill-rule="nonzero" fill-opacity="1" /><path clip-path="url(#clip140)" d="M1096.5 1526.89 Q1094.83 1528.56 1094.99 1530.68 Q1095.16 1532.8 1097.15 1534.78 Q1099.12 1536.76 1101.25 1536.95 Q1103.37 1537.11 1105.04 1535.44 Q1106.71 1533.77 1106.54 1531.65 Q1106.37 1529.52 1104.39 1527.54 Q1102.4 1525.55 1100.28 1525.39 Q1098.17 1525.22 1096.5 1526.89 M1093.65 1514.2 L1095.91 1516.46 Q1094.53 1516.95 1093.34 1517.67 Q1092.16 1518.38 1091.23 1519.32 Q1088.78 1521.77 1089.13 1524.73 Q1089.5 1527.68 1092.67 1531.21 Q1092.32 1529.42 1092.85 1527.76 Q1093.37 1526.09 1094.68 1524.78 Q1097.44 1522.02 1100.72 1522.1 Q1104 1522.17 1106.88 1525.05 Q1109.71 1527.87 1109.74 1531.25 Q1109.78 1534.63 1107.01 1537.4 Q1103.83 1540.58 1099.71 1539.83 Q1095.59 1539.07 1090.96 1534.44 Q1086.62 1530.1 1086.1 1525.46 Q1085.57 1520.8 1089.05 1517.33 Q1089.98 1516.4 1091.11 1515.63 Q1092.25 1514.86 1093.65 1514.2 Z" fill="#000000" fill-rule="nonzero" fill-opacity="1" /><path clip-path="url(#clip140)" d="M1105.64 1504.66 Q1103.73 1506.57 1104.65 1509.43 Q1105.57 1512.27 1109.35 1516.05 Q1113.12 1519.82 1115.97 1520.75 Q1118.82 1521.66 1120.73 1519.75 Q1122.66 1517.82 1121.74 1514.98 Q1120.82 1512.12 1117.05 1508.35 Q1113.27 1504.57 1110.42 1503.67 Q1107.57 1502.73 1105.64 1504.66 M1103.68 1502.7 Q1106.76 1499.61 1110.82 1500.44 Q1114.89 1501.23 1119.53 1505.87 Q1124.16 1510.5 1124.97 1514.58 Q1125.78 1518.63 1122.7 1521.71 Q1119.61 1524.79 1115.55 1523.99 Q1111.49 1523.17 1106.86 1518.54 Q1102.22 1513.9 1101.41 1509.85 Q1100.6 1505.78 1103.68 1502.7 Z" fill="#000000" fill-rule="nonzero" fill-opacity="1" /><path clip-path="url(#clip140)" d="M1121.64 1488.66 Q1119.72 1490.58 1120.64 1493.44 Q1121.57 1496.27 1125.35 1500.06 Q1129.12 1503.82 1131.96 1504.76 Q1134.81 1505.67 1136.73 1503.75 Q1138.65 1501.82 1137.73 1498.99 Q1136.81 1496.13 1133.04 1492.36 Q1129.26 1488.58 1126.41 1487.67 Q1123.57 1486.74 1121.64 1488.66 M1119.68 1486.7 Q1122.76 1483.62 1126.82 1484.44 Q1130.88 1485.24 1135.52 1489.88 Q1140.15 1494.51 1140.96 1498.58 Q1141.77 1502.63 1138.69 1505.72 Q1135.61 1508.8 1131.55 1508 Q1127.48 1507.18 1122.85 1502.55 Q1118.21 1497.91 1117.4 1493.86 Q1116.59 1489.78 1119.68 1486.7 Z" fill="#000000" fill-rule="nonzero" fill-opacity="1" /><polyline clip-path="url(#clip140)" style="stroke:#000000; stroke-linecap:round; stroke-linejoin:round; stroke-width:4; stroke-opacity:1; fill:none" points="161.818,1456.91 161.818,892.306 "/>
<polyline clip-path="url(#clip140)" style="stroke:#000000; stroke-linecap:round; stroke-linejoin:round; stroke-width:4; stroke-opacity:1; fill:none" points="161.818,1440.94 180.716,1440.94 "/>
<polyline clip-path="url(#clip140)" style="stroke:#000000; stroke-linecap:round; stroke-linejoin:round; stroke-width:4; stroke-opacity:1; fill:none" points="161.818,1322.34 180.716,1322.34 "/>
<polyline clip-path="url(#clip140)" style="stroke:#000000; stroke-linecap:round; stroke-linejoin:round; stroke-width:4; stroke-opacity:1; fill:none" points="161.818,1203.74 180.716,1203.74 "/>
<polyline clip-path="url(#clip140)" style="stroke:#000000; stroke-linecap:round; stroke-linejoin:round; stroke-width:4; stroke-opacity:1; fill:none" points="161.818,1085.14 180.716,1085.14 "/>
<polyline clip-path="url(#clip140)" style="stroke:#000000; stroke-linecap:round; stroke-linejoin:round; stroke-width:4; stroke-opacity:1; fill:none" points="161.818,966.54 180.716,966.54 "/>
<path clip-path="url(#clip140)" d="M60.315 1430.28 Q57.6067 1430.28 56.2352 1432.96 Q54.881 1435.61 54.881 1440.96 Q54.881 1446.29 56.2352 1448.96 Q57.6067 1451.62 60.315 1451.62 Q63.0407 1451.62 64.3948 1448.96 Q65.7664 1446.29 65.7664 1440.96 Q65.7664 1435.61 64.3948 1432.96 Q63.0407 1430.28 60.315 1430.28 M60.315 1427.51 Q64.6726 1427.51 66.9643 1430.96 Q69.2733 1434.4 69.2733 1440.96 Q69.2733 1447.51 66.9643 1450.96 Q64.6726 1454.4 60.315 1454.4 Q55.9574 1454.4 53.6484 1450.96 Q51.3567 1447.51 51.3567 1440.96 Q51.3567 1434.4 53.6484 1430.96 Q55.9574 1427.51 60.315 1427.51 Z" fill="#000000" fill-rule="nonzero" fill-opacity="1" /><path clip-path="url(#clip140)" d="M75.4364 1449.49 L79.0996 1449.49 L79.0996 1453.9 L75.4364 1453.9 L75.4364 1449.49 Z" fill="#000000" fill-rule="nonzero" fill-opacity="1" /><path clip-path="url(#clip140)" d="M94.2384 1430.28 Q91.5301 1430.28 90.1586 1432.96 Q88.8044 1435.61 88.8044 1440.96 Q88.8044 1446.29 90.1586 1448.96 Q91.5301 1451.62 94.2384 1451.62 Q96.9641 1451.62 98.3183 1448.96 Q99.6898 1446.29 99.6898 1440.96 Q99.6898 1435.61 98.3183 1432.96 Q96.9641 1430.28 94.2384 1430.28 M94.2384 1427.51 Q98.596 1427.51 100.888 1430.96 Q103.197 1434.4 103.197 1440.96 Q103.197 1447.51 100.888 1450.96 Q98.596 1454.4 94.2384 1454.4 Q89.8808 1454.4 87.5718 1450.96 Q85.2801 1447.51 85.2801 1440.96 Q85.2801 1434.4 87.5718 1430.96 Q89.8808 1427.51 94.2384 1427.51 Z" fill="#000000" fill-rule="nonzero" fill-opacity="1" /><path clip-path="url(#clip140)" d="M116.86 1430.28 Q114.152 1430.28 112.78 1432.96 Q111.426 1435.61 111.426 1440.96 Q111.426 1446.29 112.78 1448.96 Q114.152 1451.62 116.86 1451.62 Q119.586 1451.62 120.94 1448.96 Q122.311 1446.29 122.311 1440.96 Q122.311 1435.61 120.94 1432.96 Q119.586 1430.28 116.86 1430.28 M116.86 1427.51 Q121.217 1427.51 123.509 1430.96 Q125.818 1434.4 125.818 1440.96 Q125.818 1447.51 123.509 1450.96 Q121.217 1454.4 116.86 1454.4 Q112.502 1454.4 110.193 1450.96 Q107.902 1447.51 107.902 1440.96 Q107.902 1434.4 110.193 1430.96 Q112.502 1427.51 116.86 1427.51 Z" fill="#000000" fill-rule="nonzero" fill-opacity="1" /><path clip-path="url(#clip140)" d="M61.2351 1311.69 Q58.5268 1311.69 57.1553 1314.36 Q55.8011 1317.02 55.8011 1322.36 Q55.8011 1327.69 57.1553 1330.37 Q58.5268 1333.02 61.2351 1333.02 Q63.9608 1333.02 65.315 1330.37 Q66.6865 1327.69 66.6865 1322.36 Q66.6865 1317.02 65.315 1314.36 Q63.9608 1311.69 61.2351 1311.69 M61.2351 1308.91 Q65.5927 1308.91 67.8844 1312.36 Q70.1934 1315.8 70.1934 1322.36 Q70.1934 1328.91 67.8844 1332.36 Q65.5927 1335.8 61.2351 1335.8 Q56.8775 1335.8 54.5685 1332.36 Q52.2768 1328.91 52.2768 1322.36 Q52.2768 1315.8 54.5685 1312.36 Q56.8775 1308.91 61.2351 1308.91 Z" fill="#000000" fill-rule="nonzero" fill-opacity="1" /><path clip-path="url(#clip140)" d="M76.3566 1330.89 L80.0197 1330.89 L80.0197 1335.3 L76.3566 1335.3 L76.3566 1330.89 Z" fill="#000000" fill-rule="nonzero" fill-opacity="1" /><path clip-path="url(#clip140)" d="M95.1586 1311.69 Q92.4502 1311.69 91.0787 1314.36 Q89.7246 1317.02 89.7246 1322.36 Q89.7246 1327.69 91.0787 1330.37 Q92.4502 1333.02 95.1586 1333.02 Q97.8842 1333.02 99.2384 1330.37 Q100.61 1327.69 100.61 1322.36 Q100.61 1317.02 99.2384 1314.36 Q97.8842 1311.69 95.1586 1311.69 M95.1586 1308.91 Q99.5162 1308.91 101.808 1312.36 Q104.117 1315.8 104.117 1322.36 Q104.117 1328.91 101.808 1332.36 Q99.5162 1335.8 95.1586 1335.8 Q90.8009 1335.8 88.4919 1332.36 Q86.2003 1328.91 86.2003 1322.36 Q86.2003 1315.8 88.4919 1312.36 Q90.8009 1308.91 95.1586 1308.91 Z" fill="#000000" fill-rule="nonzero" fill-opacity="1" /><path clip-path="url(#clip140)" d="M110.888 1332.34 L116.617 1332.34 L116.617 1312.57 L110.384 1313.82 L110.384 1310.63 L116.582 1309.38 L120.089 1309.38 L120.089 1332.34 L125.818 1332.34 L125.818 1335.3 L110.888 1335.3 L110.888 1332.34 Z" fill="#000000" fill-rule="nonzero" fill-opacity="1" /><path clip-path="url(#clip140)" d="M61.5129 1193.09 Q58.8046 1193.09 57.4331 1195.76 Q56.0789 1198.42 56.0789 1203.76 Q56.0789 1209.09 57.4331 1211.77 Q58.8046 1214.42 61.5129 1214.42 Q64.2386 1214.42 65.5927 1211.77 Q66.9643 1209.09 66.9643 1203.76 Q66.9643 1198.42 65.5927 1195.76 Q64.2386 1193.09 61.5129 1193.09 M61.5129 1190.31 Q65.8705 1190.31 68.1622 1193.76 Q70.4712 1197.2 70.4712 1203.76 Q70.4712 1210.31 68.1622 1213.76 Q65.8705 1217.2 61.5129 1217.2 Q57.1553 1217.2 54.8463 1213.76 Q52.5546 1210.31 52.5546 1203.76 Q52.5546 1197.2 54.8463 1193.76 Q57.1553 1190.31 61.5129 1190.31 Z" fill="#000000" fill-rule="nonzero" fill-opacity="1" /><path clip-path="url(#clip140)" d="M76.6343 1212.29 L80.2975 1212.29 L80.2975 1216.7 L76.6343 1216.7 L76.6343 1212.29 Z" fill="#000000" fill-rule="nonzero" fill-opacity="1" /><path clip-path="url(#clip140)" d="M95.4363 1193.09 Q92.728 1193.09 91.3565 1195.76 Q90.0023 1198.42 90.0023 1203.76 Q90.0023 1209.09 91.3565 1211.77 Q92.728 1214.42 95.4363 1214.42 Q98.162 1214.42 99.5162 1211.77 Q100.888 1209.09 100.888 1203.76 Q100.888 1198.42 99.5162 1195.76 Q98.162 1193.09 95.4363 1193.09 M95.4363 1190.31 Q99.7939 1190.31 102.086 1193.76 Q104.395 1197.2 104.395 1203.76 Q104.395 1210.31 102.086 1213.76 Q99.7939 1217.2 95.4363 1217.2 Q91.0787 1217.2 88.7697 1213.76 Q86.478 1210.31 86.478 1203.76 Q86.478 1197.2 88.7697 1193.76 Q91.0787 1190.31 95.4363 1190.31 Z" fill="#000000" fill-rule="nonzero" fill-opacity="1" /><path clip-path="url(#clip140)" d="M113.579 1213.75 L125.818 1213.75 L125.818 1216.7 L109.36 1216.7 L109.36 1213.75 Q111.356 1211.68 114.794 1208.21 Q118.249 1204.72 119.134 1203.71 Q120.818 1201.82 121.478 1200.52 Q122.155 1199.2 122.155 1197.93 Q122.155 1195.86 120.697 1194.56 Q119.256 1193.26 116.929 1193.26 Q115.28 1193.26 113.44 1193.83 Q111.617 1194.41 109.533 1195.57 L109.533 1192.03 Q111.652 1191.18 113.492 1190.74 Q115.332 1190.31 116.86 1190.31 Q120.888 1190.31 123.283 1192.32 Q125.679 1194.34 125.679 1197.7 Q125.679 1199.3 125.072 1200.74 Q124.481 1202.17 122.901 1204.11 Q122.467 1204.61 120.141 1207.03 Q117.815 1209.42 113.579 1213.75 Z" fill="#000000" fill-rule="nonzero" fill-opacity="1" /><path clip-path="url(#clip140)" d="M60.8011 1074.49 Q58.0928 1074.49 56.7213 1077.16 Q55.3671 1079.82 55.3671 1085.16 Q55.3671 1090.49 56.7213 1093.17 Q58.0928 1095.82 60.8011 1095.82 Q63.5268 1095.82 64.8809 1093.17 Q66.2525 1090.49 66.2525 1085.16 Q66.2525 1079.82 64.8809 1077.16 Q63.5268 1074.49 60.8011 1074.49 M60.8011 1071.71 Q65.1587 1071.71 67.4504 1075.16 Q69.7594 1078.6 69.7594 1085.16 Q69.7594 1091.71 67.4504 1095.16 Q65.1587 1098.6 60.8011 1098.6 Q56.4435 1098.6 54.1345 1095.16 Q51.8428 1091.71 51.8428 1085.16 Q51.8428 1078.6 54.1345 1075.16 Q56.4435 1071.71 60.8011 1071.71 Z" fill="#000000" fill-rule="nonzero" fill-opacity="1" /><path clip-path="url(#clip140)" d="M75.9225 1093.69 L79.5857 1093.69 L79.5857 1098.1 L75.9225 1098.1 L75.9225 1093.69 Z" fill="#000000" fill-rule="nonzero" fill-opacity="1" /><path clip-path="url(#clip140)" d="M94.7245 1074.49 Q92.0162 1074.49 90.6447 1077.16 Q89.2905 1079.82 89.2905 1085.16 Q89.2905 1090.49 90.6447 1093.17 Q92.0162 1095.82 94.7245 1095.82 Q97.4502 1095.82 98.8044 1093.17 Q100.176 1090.49 100.176 1085.16 Q100.176 1079.82 98.8044 1077.16 Q97.4502 1074.49 94.7245 1074.49 M94.7245 1071.71 Q99.0821 1071.71 101.374 1075.16 Q103.683 1078.6 103.683 1085.16 Q103.683 1091.71 101.374 1095.16 Q99.0821 1098.6 94.7245 1098.6 Q90.3669 1098.6 88.0579 1095.16 Q85.7662 1091.71 85.7662 1085.16 Q85.7662 1078.6 88.0579 1075.16 Q90.3669 1071.71 94.7245 1071.71 Z" fill="#000000" fill-rule="nonzero" fill-opacity="1" /><path clip-path="url(#clip140)" d="M120.471 1084.12 Q122.988 1084.66 124.395 1086.36 Q125.818 1088.06 125.818 1090.56 Q125.818 1094.4 123.179 1096.5 Q120.54 1098.6 115.679 1098.6 Q114.047 1098.6 112.311 1098.27 Q110.593 1097.96 108.752 1097.32 L108.752 1093.93 Q110.211 1094.78 111.947 1095.22 Q113.683 1095.65 115.575 1095.65 Q118.874 1095.65 120.592 1094.35 Q122.329 1093.05 122.329 1090.56 Q122.329 1088.27 120.714 1086.99 Q119.117 1085.69 116.252 1085.69 L113.231 1085.69 L113.231 1082.8 L116.391 1082.8 Q118.978 1082.8 120.349 1081.78 Q121.721 1080.74 121.721 1078.79 Q121.721 1076.8 120.297 1075.74 Q118.891 1074.66 116.252 1074.66 Q114.811 1074.66 113.162 1074.97 Q111.513 1075.29 109.533 1075.95 L109.533 1072.82 Q111.53 1072.27 113.266 1071.99 Q115.02 1071.71 116.565 1071.71 Q120.558 1071.71 122.884 1073.53 Q125.21 1075.34 125.21 1078.43 Q125.21 1080.58 123.978 1082.07 Q122.745 1083.55 120.471 1084.12 Z" fill="#000000" fill-rule="nonzero" fill-opacity="1" /><path clip-path="url(#clip140)" d="M59.9504 955.889 Q57.2421 955.889 55.8706 958.562 Q54.5164 961.218 54.5164 966.566 Q54.5164 971.895 55.8706 974.569 Q57.2421 977.225 59.9504 977.225 Q62.6761 977.225 64.0303 974.569 Q65.4018 971.895 65.4018 966.566 Q65.4018 961.218 64.0303 958.562 Q62.6761 955.889 59.9504 955.889 M59.9504 953.111 Q64.308 953.111 66.5997 956.566 Q68.9087 960.003 68.9087 966.566 Q68.9087 973.111 66.5997 976.565 Q64.308 980.003 59.9504 980.003 Q55.5928 980.003 53.2838 976.565 Q50.9921 973.111 50.9921 966.566 Q50.9921 960.003 53.2838 956.566 Q55.5928 953.111 59.9504 953.111 Z" fill="#000000" fill-rule="nonzero" fill-opacity="1" /><path clip-path="url(#clip140)" d="M75.0719 975.09 L78.735 975.09 L78.735 979.5 L75.0719 979.5 L75.0719 975.09 Z" fill="#000000" fill-rule="nonzero" fill-opacity="1" /><path clip-path="url(#clip140)" d="M93.8738 955.889 Q91.1655 955.889 89.794 958.562 Q88.4398 961.218 88.4398 966.566 Q88.4398 971.895 89.794 974.569 Q91.1655 977.225 93.8738 977.225 Q96.5995 977.225 97.9537 974.569 Q99.3252 971.895 99.3252 966.566 Q99.3252 961.218 97.9537 958.562 Q96.5995 955.889 93.8738 955.889 M93.8738 953.111 Q98.2315 953.111 100.523 956.566 Q102.832 960.003 102.832 966.566 Q102.832 973.111 100.523 976.565 Q98.2315 980.003 93.8738 980.003 Q89.5162 980.003 87.2072 976.565 Q84.9156 973.111 84.9156 966.566 Q84.9156 960.003 87.2072 956.566 Q89.5162 953.111 93.8738 953.111 Z" fill="#000000" fill-rule="nonzero" fill-opacity="1" /><path clip-path="url(#clip140)" d="M118.631 956.635 L109.777 970.472 L118.631 970.472 L118.631 956.635 M117.711 953.58 L122.12 953.58 L122.12 970.472 L125.818 970.472 L125.818 973.388 L122.12 973.388 L122.12 979.5 L118.631 979.5 L118.631 973.388 L106.929 973.388 L106.929 970.003 L117.711 953.58 Z" fill="#000000" fill-rule="nonzero" fill-opacity="1" /><path clip-path="url(#clip140)" d="M173.716 813.68 Q170.198 813.68 168.3 816.226 Q166.309 818.888 166.309 823.286 Q166.309 827.939 168.276 830.624 Q170.267 833.286 173.716 833.286 Q177.119 833.286 179.11 830.601 Q181.1 827.916 181.1 823.286 Q181.1 819.05 179.11 816.226 Q177.281 813.68 173.716 813.68 M173.716 810.3 L187.86 810.3 L187.86 814.559 L183.091 814.559 Q185.614 818.171 185.614 823.286 Q185.614 829.652 182.443 833.263 Q179.272 836.897 173.716 836.897 Q168.138 836.897 164.989 833.263 Q161.818 829.652 161.818 823.286 Q161.818 816.874 164.989 813.286 Q167.605 810.3 173.716 810.3 Z" fill="#000000" fill-rule="nonzero" fill-opacity="1" /><path clip-path="url(#clip140)" d="M198.878 836.226 L190.961 810.3 L195.545 810.3 L202.235 832.059 Q205.012 829.189 207.327 825.208 Q209.086 822.221 209.179 819.629 Q209.225 818.402 208.67 816.087 Q208.022 813.333 205.568 810.3 L209.873 810.3 L209.873 810.3 Q211.471 812.36 212.535 815.231 Q213.508 817.87 213.508 819.675 Q213.508 824.212 210.36 828.263 Q206.262 833.541 203.415 836.226 L198.878 836.226 Z" fill="#000000" fill-rule="nonzero" fill-opacity="1" /><polyline clip-path="url(#clip144)" style="stroke:#009af9; stroke-linecap:round; stroke-linejoin:round; stroke-width:4; stroke-opacity:1; fill:none" points="189.869,958.968 248.307,1016.44 306.746,1074.71 365.185,1133.77 423.623,1193.62 482.062,1254.26 540.501,1315.69 598.939,1377.92 657.378,1440.93 715.817,1377.13 774.256,1312.52 832.694,1247.13 891.133,1180.95 949.572,1113.97 1008.01,1046.2 1066.45,977.639 1124.89,908.286 "/>
<circle clip-path="url(#clip144)" cx="657.378" cy="1440.93" r="10.8" fill="#ff0000" fill-rule="evenodd" fill-opacity="1" stroke="#000000" stroke-opacity="1" stroke-width="3.2"/>
</svg>
