<?xml version="1.0" encoding="utf-8"?>
<svg xmlns="http://www.w3.org/2000/svg" xmlns:xlink="http://www.w3.org/1999/xlink" width="600" height="400" viewBox="0 0 2400 1600">
<defs>
  <clipPath id="clip180">
    <rect x="0" y="0" width="2400" height="1600"/>
  </clipPath>
</defs>
<path clip-path="url(#clip180)" d="M0 1600 L2400 1600 L2400 0 L0 0  Z" fill="#ffffff" fill-rule="evenodd" fill-opacity="1"/>
<defs>
  <clipPath id="clip181">
    <rect x="480" y="0" width="1681" height="1600"/>
  </clipPath>
</defs>
<path clip-path="url(#clip180)" d="M161.818 667.406 L1152.94 667.406 L1152.94 97.5521 L161.818 97.5521  Z" fill="#ffffff" fill-rule="evenodd" fill-opacity="1"/>
<defs>
  <clipPath id="clip182">
    <rect x="161" y="97" width="992" height="571"/>
  </clipPath>
</defs>
<polyline clip-path="url(#clip182)" style="stroke:#000000; stroke-linecap:round; stroke-linejoin:round; stroke-width:2; stroke-opacity:0.1; fill:none" points="190.425,667.406 190.425,97.5521 "/>
<polyline clip-path="url(#clip182)" style="stroke:#000000; stroke-linecap:round; stroke-linejoin:round; stroke-width:2; stroke-opacity:0.1; fill:none" points="453.434,667.406 453.434,97.5521 "/>
<polyline clip-path="url(#clip182)" style="stroke:#000000; stroke-linecap:round; stroke-linejoin:round; stroke-width:2; stroke-opacity:0.1; fill:none" points="716.443,667.406 716.443,97.5521 "/>
<polyline clip-path="url(#clip182)" style="stroke:#000000; stroke-linecap:round; stroke-linejoin:round; stroke-width:2; stroke-opacity:0.1; fill:none" points="979.452,667.406 979.452,97.5521 "/>
<polyline clip-path="url(#clip182)" style="stroke:#000000; stroke-linecap:round; stroke-linejoin:round; stroke-width:2; stroke-opacity:0.1; fill:none" points="161.818,651.278 1152.94,651.278 "/>
<polyline clip-path="url(#clip182)" style="stroke:#000000; stroke-linecap:round; stroke-linejoin:round; stroke-width:2; stroke-opacity:0.1; fill:none" points="161.818,514.219 1152.94,514.219 "/>
<polyline clip-path="url(#clip182)" style="stroke:#000000; stroke-linecap:round; stroke-linejoin:round; stroke-width:2; stroke-opacity:0.1; fill:none" points="161.818,377.16 1152.94,377.16 "/>
<polyline clip-path="url(#clip182)" style="stroke:#000000; stroke-linecap:round; stroke-linejoin:round; stroke-width:2; stroke-opacity:0.1; fill:none" points="161.818,240.101 1152.94,240.101 "/>
<polyline clip-path="url(#clip182)" style="stroke:#000000; stroke-linecap:round; stroke-linejoin:round; stroke-width:2; stroke-opacity:0.1; fill:none" points="161.818,103.042 1152.94,103.042 "/>
<polyline clip-path="url(#clip180)" style="stroke:#000000; stroke-linecap:round; stroke-linejoin:round; stroke-width:4; stroke-opacity:1; fill:none" points="161.818,667.406 1152.94,667.406 "/>
<polyline clip-path="url(#clip180)" style="stroke:#000000; stroke-linecap:round; stroke-linejoin:round; stroke-width:4; stroke-opacity:1; fill:none" points="190.425,667.406 190.425,648.509 "/>
<polyline clip-path="url(#clip180)" style="stroke:#000000; stroke-linecap:round; stroke-linejoin:round; stroke-width:4; stroke-opacity:1; fill:none" points="453.434,667.406 453.434,648.509 "/>
<polyline clip-path="url(#clip180)" style="stroke:#000000; stroke-linecap:round; stroke-linejoin:round; stroke-width:4; stroke-opacity:1; fill:none" points="716.443,667.406 716.443,648.509 "/>
<polyline clip-path="url(#clip180)" style="stroke:#000000; stroke-linecap:round; stroke-linejoin:round; stroke-width:4; stroke-opacity:1; fill:none" points="979.452,667.406 979.452,648.509 "/>
<path clip-path="url(#clip180)" d="M136.576 739.139 Q134.661 741.054 135.582 743.914 Q136.503 746.75 140.284 750.531 Q144.052 754.3 146.9 755.233 Q149.748 756.141 151.664 754.226 Q153.591 752.299 152.67 749.463 Q151.749 746.603 147.981 742.834 Q144.2 739.053 141.352 738.144 Q138.504 737.211 136.576 739.139 M134.612 737.175 Q137.693 734.093 141.757 734.916 Q145.82 735.714 150.46 740.354 Q155.089 744.982 155.899 749.058 Q156.709 753.109 153.628 756.19 Q150.546 759.272 146.483 758.474 Q142.42 757.651 137.792 753.023 Q133.151 748.383 132.341 744.332 Q131.531 740.256 134.612 737.175 Z" fill="#000000" fill-rule="nonzero" fill-opacity="1" /><path clip-path="url(#clip180)" d="M160.846 742.024 L163.436 739.433 L166.554 742.552 L163.964 745.142 L160.846 742.024 Z" fill="#000000" fill-rule="nonzero" fill-opacity="1" /><path clip-path="url(#clip180)" d="M168.555 723.143 Q166.788 724.911 166.714 726.875 Q166.653 728.827 168.31 730.484 Q169.967 732.141 171.919 732.08 Q173.883 732.006 175.651 730.239 Q177.419 728.471 177.492 726.507 Q177.554 724.53 175.909 722.885 Q174.252 721.228 172.287 721.302 Q170.335 721.363 168.555 723.143 M165.02 724.567 Q163.031 725.77 161.042 725.574 Q159.066 725.365 157.495 723.794 Q155.297 721.596 155.58 718.761 Q155.874 715.912 158.6 713.187 Q161.337 710.45 164.173 710.167 Q167.009 709.885 169.206 712.082 Q170.777 713.654 170.974 715.642 Q171.183 717.619 169.992 719.595 Q172.201 718.22 174.411 718.441 Q176.633 718.65 178.389 720.406 Q181.052 723.069 180.844 726.126 Q180.647 729.171 177.615 732.203 Q174.583 735.235 171.526 735.444 Q168.482 735.64 165.818 732.976 Q164.062 731.221 163.854 728.999 Q163.645 726.777 165.02 724.567 M160.195 721.559 Q161.619 722.983 163.301 722.898 Q164.995 722.799 166.604 721.191 Q168.199 719.595 168.298 717.901 Q168.408 716.195 166.984 714.771 Q165.56 713.347 163.854 713.457 Q162.16 713.555 160.564 715.151 Q158.956 716.76 158.857 718.454 Q158.771 720.135 160.195 721.559 Z" fill="#000000" fill-rule="nonzero" fill-opacity="1" /><path clip-path="url(#clip180)" d="M176.559 699.156 Q174.644 701.071 175.565 703.931 Q176.486 706.767 180.267 710.548 Q184.036 714.317 186.884 715.25 Q189.732 716.158 191.647 714.243 Q193.574 712.316 192.653 709.48 Q191.733 706.619 187.964 702.851 Q184.183 699.07 181.335 698.161 Q178.487 697.228 176.559 699.156 M174.595 697.191 Q177.677 694.11 181.74 694.933 Q185.803 695.731 190.444 700.371 Q195.072 704.999 195.882 709.075 Q196.692 713.126 193.611 716.207 Q190.53 719.288 186.466 718.49 Q182.403 717.668 177.775 713.04 Q173.134 708.399 172.324 704.348 Q171.514 700.273 174.595 697.191 Z" fill="#000000" fill-rule="nonzero" fill-opacity="1" /><path clip-path="url(#clip180)" d="M400.113 738.611 Q398.198 740.526 399.119 743.386 Q400.039 746.222 403.82 750.003 Q407.589 753.772 410.437 754.705 Q413.285 755.613 415.2 753.698 Q417.128 751.771 416.207 748.935 Q415.286 746.075 411.517 742.306 Q407.736 738.525 404.888 737.617 Q402.04 736.684 400.113 738.611 M398.149 736.647 Q401.23 733.565 405.293 734.388 Q409.357 735.186 413.997 739.826 Q418.625 744.454 419.436 748.53 Q420.246 752.581 417.164 755.662 Q414.083 758.744 410.02 757.946 Q405.956 757.123 401.328 752.495 Q396.688 747.855 395.878 743.804 Q395.067 739.728 398.149 736.647 Z" fill="#000000" fill-rule="nonzero" fill-opacity="1" /><path clip-path="url(#clip180)" d="M424.383 741.496 L426.973 738.906 L430.091 742.024 L427.501 744.614 L424.383 741.496 Z" fill="#000000" fill-rule="nonzero" fill-opacity="1" /><path clip-path="url(#clip180)" d="M432.092 722.615 Q430.324 724.383 430.251 726.347 Q430.189 728.299 431.847 729.956 Q433.504 731.614 435.456 731.552 Q437.42 731.479 439.188 729.711 Q440.956 727.943 441.029 725.979 Q441.091 724.002 439.446 722.357 Q437.788 720.7 435.824 720.774 Q433.872 720.835 432.092 722.615 M428.557 724.039 Q426.568 725.242 424.579 725.046 Q422.603 724.837 421.031 723.266 Q418.834 721.068 419.116 718.233 Q419.411 715.385 422.136 712.659 Q424.874 709.922 427.71 709.639 Q430.545 709.357 432.743 711.554 Q434.314 713.126 434.511 715.115 Q434.719 717.091 433.528 719.067 Q435.738 717.692 437.948 717.913 Q440.17 718.122 441.925 719.878 Q444.589 722.542 444.381 725.598 Q444.184 728.643 441.152 731.675 Q438.12 734.707 435.063 734.916 Q432.019 735.112 429.355 732.448 Q427.599 730.693 427.39 728.471 Q427.182 726.249 428.557 724.039 M423.732 721.032 Q425.156 722.456 426.838 722.37 Q428.532 722.271 430.14 720.663 Q431.736 719.067 431.834 717.373 Q431.945 715.667 430.521 714.243 Q429.097 712.819 427.39 712.929 Q425.696 713.028 424.1 714.623 Q422.492 716.232 422.394 717.926 Q422.308 719.608 423.732 721.032 Z" fill="#000000" fill-rule="nonzero" fill-opacity="1" /><path clip-path="url(#clip180)" d="M433.185 702.274 L442.92 692.539 L445.007 694.626 L437.543 702.09 L442.036 706.583 Q442.392 705.858 442.846 705.232 Q443.288 704.594 443.828 704.054 Q446.897 700.985 450.371 700.874 Q453.845 700.764 456.718 703.636 Q459.677 706.595 459.48 710.081 Q459.271 713.555 455.92 716.907 Q454.766 718.061 453.367 719.067 Q451.979 720.062 450.31 720.946 L447.818 718.454 Q449.524 717.95 450.997 717.066 Q452.47 716.183 453.784 714.869 Q455.908 712.745 456.031 710.388 Q456.153 708.031 454.238 706.116 Q452.323 704.201 449.966 704.324 Q447.609 704.447 445.485 706.57 Q444.491 707.565 443.718 708.78 Q442.957 709.983 442.392 711.481 L433.185 702.274 Z" fill="#000000" fill-rule="nonzero" fill-opacity="1" /><path clip-path="url(#clip180)" d="M662.594 739.139 Q660.679 741.054 661.6 743.914 Q662.52 746.75 666.301 750.531 Q670.07 754.3 672.918 755.233 Q675.766 756.141 677.681 754.226 Q679.609 752.299 678.688 749.463 Q677.767 746.603 673.998 742.834 Q670.217 739.053 667.369 738.144 Q664.521 737.211 662.594 739.139 M660.63 737.175 Q663.711 734.093 667.774 734.916 Q671.838 735.714 676.478 740.354 Q681.106 744.982 681.917 749.058 Q682.727 753.109 679.645 756.19 Q676.564 759.272 672.501 758.474 Q668.437 757.651 663.809 753.023 Q659.169 748.383 658.359 744.332 Q657.548 740.256 660.63 737.175 Z" fill="#000000" fill-rule="nonzero" fill-opacity="1" /><path clip-path="url(#clip180)" d="M686.864 742.024 L689.454 739.433 L692.572 742.552 L689.982 745.142 L686.864 742.024 Z" fill="#000000" fill-rule="nonzero" fill-opacity="1" /><path clip-path="url(#clip180)" d="M697.667 736.696 L695.408 734.437 Q696.783 733.946 697.974 733.222 Q699.164 732.497 700.085 731.577 Q702.54 729.122 702.184 726.188 Q701.828 723.229 698.649 719.681 Q698.993 721.449 698.465 723.106 Q697.937 724.764 696.611 726.089 Q693.861 728.839 690.596 728.79 Q687.33 728.716 684.445 725.832 Q681.622 723.008 681.585 719.632 Q681.548 716.256 684.323 713.482 Q687.502 710.302 691.615 711.076 Q695.727 711.825 700.367 716.465 Q704.701 720.798 705.229 725.451 Q705.757 730.079 702.283 733.553 Q701.35 734.486 700.208 735.26 Q699.066 736.033 697.667 736.696 M694.831 723.99 Q696.501 722.321 696.329 720.209 Q696.169 718.085 694.18 716.097 Q692.204 714.12 690.08 713.961 Q687.956 713.776 686.287 715.446 Q684.617 717.116 684.789 719.252 Q684.961 721.363 686.937 723.339 Q688.926 725.328 691.038 725.5 Q693.161 725.66 694.831 723.99 Z" fill="#000000" fill-rule="nonzero" fill-opacity="1" /><path clip-path="url(#clip180)" d="M702.577 699.156 Q700.662 701.071 701.583 703.931 Q702.504 706.767 706.285 710.548 Q710.053 714.317 712.901 715.25 Q715.749 716.158 717.664 714.243 Q719.592 712.316 718.671 709.48 Q717.75 706.619 713.982 702.851 Q710.201 699.07 707.353 698.161 Q704.505 697.228 702.577 699.156 M700.613 697.191 Q703.694 694.11 707.758 694.933 Q711.821 695.731 716.461 700.371 Q721.09 704.999 721.9 709.075 Q722.71 713.126 719.629 716.207 Q716.547 719.288 712.484 718.49 Q708.421 717.668 703.793 713.04 Q699.152 708.399 698.342 704.348 Q697.532 700.273 700.613 697.191 Z" fill="#000000" fill-rule="nonzero" fill-opacity="1" /><path clip-path="url(#clip180)" d="M926.131 738.611 Q924.216 740.526 925.136 743.386 Q926.057 746.222 929.838 750.003 Q933.607 753.772 936.455 754.705 Q939.303 755.613 941.218 753.698 Q943.145 751.771 942.225 748.935 Q941.304 746.075 937.535 742.306 Q933.754 738.525 930.906 737.617 Q928.058 736.684 926.131 738.611 M924.167 736.647 Q927.248 733.565 931.311 734.388 Q935.375 735.186 940.015 739.826 Q944.643 744.454 945.453 748.53 Q946.263 752.581 943.182 755.662 Q940.101 758.744 936.037 757.946 Q931.974 757.123 927.346 752.495 Q922.706 747.855 921.895 743.804 Q921.085 739.728 924.167 736.647 Z" fill="#000000" fill-rule="nonzero" fill-opacity="1" /><path clip-path="url(#clip180)" d="M950.401 741.496 L952.991 738.906 L956.109 742.024 L953.519 744.614 L950.401 741.496 Z" fill="#000000" fill-rule="nonzero" fill-opacity="1" /><path clip-path="url(#clip180)" d="M961.203 736.168 L958.945 733.909 Q960.32 733.418 961.51 732.694 Q962.701 731.97 963.622 731.049 Q966.077 728.594 965.721 725.66 Q965.365 722.701 962.186 719.153 Q962.529 720.921 962.001 722.578 Q961.474 724.236 960.148 725.561 Q957.398 728.311 954.132 728.262 Q950.867 728.189 947.982 725.304 Q945.159 722.48 945.122 719.104 Q945.085 715.728 947.859 712.954 Q951.039 709.774 955.151 710.548 Q959.264 711.297 963.904 715.937 Q968.238 720.27 968.766 724.923 Q969.293 729.551 965.819 733.025 Q964.886 733.958 963.745 734.732 Q962.603 735.505 961.203 736.168 M958.368 723.462 Q960.037 721.793 959.865 719.681 Q959.706 717.557 957.717 715.569 Q955.741 713.592 953.617 713.433 Q951.493 713.249 949.824 714.918 Q948.154 716.588 948.326 718.724 Q948.498 720.835 950.474 722.812 Q952.463 724.8 954.574 724.972 Q956.698 725.132 958.368 723.462 Z" fill="#000000" fill-rule="nonzero" fill-opacity="1" /><path clip-path="url(#clip180)" d="M959.202 702.274 L968.937 692.539 L971.024 694.626 L963.56 702.09 L968.054 706.583 Q968.41 705.858 968.864 705.232 Q969.306 704.594 969.846 704.054 Q972.915 700.985 976.389 700.874 Q979.863 700.764 982.736 703.636 Q985.694 706.595 985.498 710.081 Q985.289 713.555 981.938 716.907 Q980.784 718.061 979.384 719.067 Q977.997 720.062 976.328 720.946 L973.836 718.454 Q975.542 717.95 977.015 717.066 Q978.488 716.183 979.802 714.869 Q981.926 712.745 982.048 710.388 Q982.171 708.031 980.256 706.116 Q978.341 704.201 975.984 704.324 Q973.627 704.447 971.503 706.57 Q970.509 707.565 969.735 708.78 Q968.974 709.983 968.41 711.481 L959.202 702.274 Z" fill="#000000" fill-rule="nonzero" fill-opacity="1" /><polyline clip-path="url(#clip180)" style="stroke:#000000; stroke-linecap:round; stroke-linejoin:round; stroke-width:4; stroke-opacity:1; fill:none" points="161.818,667.406 161.818,97.5521 "/>
<polyline clip-path="url(#clip180)" style="stroke:#000000; stroke-linecap:round; stroke-linejoin:round; stroke-width:4; stroke-opacity:1; fill:none" points="161.818,651.278 180.716,651.278 "/>
<polyline clip-path="url(#clip180)" style="stroke:#000000; stroke-linecap:round; stroke-linejoin:round; stroke-width:4; stroke-opacity:1; fill:none" points="161.818,514.219 180.716,514.219 "/>
<polyline clip-path="url(#clip180)" style="stroke:#000000; stroke-linecap:round; stroke-linejoin:round; stroke-width:4; stroke-opacity:1; fill:none" points="161.818,377.16 180.716,377.16 "/>
<polyline clip-path="url(#clip180)" style="stroke:#000000; stroke-linecap:round; stroke-linejoin:round; stroke-width:4; stroke-opacity:1; fill:none" points="161.818,240.101 180.716,240.101 "/>
<polyline clip-path="url(#clip180)" style="stroke:#000000; stroke-linecap:round; stroke-linejoin:round; stroke-width:4; stroke-opacity:1; fill:none" points="161.818,103.042 180.716,103.042 "/>
<path clip-path="url(#clip180)" d="M116.86 640.627 Q114.152 640.627 112.78 643.301 Q111.426 645.957 111.426 651.304 Q111.426 656.634 112.78 659.308 Q114.152 661.964 116.86 661.964 Q119.586 661.964 120.94 659.308 Q122.311 656.634 122.311 651.304 Q122.311 645.957 120.94 643.301 Q119.586 640.627 116.86 640.627 M116.86 637.85 Q121.217 637.85 123.509 641.305 Q125.818 644.742 125.818 651.304 Q125.818 657.85 123.509 661.304 Q121.217 664.742 116.86 664.742 Q112.502 664.742 110.193 661.304 Q107.902 657.85 107.902 651.304 Q107.902 644.742 110.193 641.305 Q112.502 637.85 116.86 637.85 Z" fill="#000000" fill-rule="nonzero" fill-opacity="1" /><path clip-path="url(#clip180)" d="M110.888 524.228 L116.617 524.228 L116.617 504.454 L110.384 505.704 L110.384 502.509 L116.582 501.259 L120.089 501.259 L120.089 524.228 L125.818 524.228 L125.818 527.179 L110.888 527.179 L110.888 524.228 Z" fill="#000000" fill-rule="nonzero" fill-opacity="1" /><path clip-path="url(#clip180)" d="M113.579 387.169 L125.818 387.169 L125.818 390.12 L109.36 390.12 L109.36 387.169 Q111.356 385.103 114.794 381.631 Q118.249 378.141 119.134 377.134 Q120.818 375.242 121.478 373.94 Q122.155 372.62 122.155 371.353 Q122.155 369.287 120.697 367.985 Q119.256 366.683 116.929 366.683 Q115.28 366.683 113.44 367.256 Q111.617 367.829 109.533 368.992 L109.533 365.45 Q111.652 364.6 113.492 364.166 Q115.332 363.732 116.86 363.732 Q120.888 363.732 123.283 365.745 Q125.679 367.759 125.679 371.127 Q125.679 372.725 125.072 374.166 Q124.481 375.589 122.901 377.534 Q122.467 378.037 120.141 380.45 Q117.815 382.846 113.579 387.169 Z" fill="#000000" fill-rule="nonzero" fill-opacity="1" /><path clip-path="url(#clip180)" d="M120.471 239.086 Q122.988 239.624 124.395 241.325 Q125.818 243.027 125.818 245.527 Q125.818 249.363 123.179 251.464 Q120.54 253.565 115.679 253.565 Q114.047 253.565 112.311 253.235 Q110.593 252.922 108.752 252.28 L108.752 248.895 Q110.211 249.745 111.947 250.179 Q113.683 250.613 115.575 250.613 Q118.874 250.613 120.592 249.311 Q122.329 248.009 122.329 245.527 Q122.329 243.235 120.714 241.95 Q119.117 240.648 116.252 240.648 L113.231 240.648 L113.231 237.766 L116.391 237.766 Q118.978 237.766 120.349 236.742 Q121.721 235.7 121.721 233.756 Q121.721 231.759 120.297 230.7 Q118.891 229.624 116.252 229.624 Q114.811 229.624 113.162 229.936 Q111.513 230.249 109.533 230.909 L109.533 227.784 Q111.53 227.228 113.266 226.95 Q115.02 226.673 116.565 226.673 Q120.558 226.673 122.884 228.495 Q125.21 230.301 125.21 233.391 Q125.21 235.544 123.978 237.037 Q122.745 238.513 120.471 239.086 Z" fill="#000000" fill-rule="nonzero" fill-opacity="1" /><path clip-path="url(#clip180)" d="M118.631 93.1378 L109.777 106.975 L118.631 106.975 L118.631 93.1378 M117.711 90.0823 L122.12 90.0823 L122.12 106.975 L125.818 106.975 L125.818 109.891 L122.12 109.891 L122.12 116.002 L118.631 116.002 L118.631 109.891 L106.929 109.891 L106.929 106.506 L117.711 90.0823 Z" fill="#000000" fill-rule="nonzero" fill-opacity="1" /><path clip-path="url(#clip180)" d="M163.901 20.1758 Q165.313 17.8147 168.809 15.7314 Q170.175 14.9212 174.387 14.9212 Q179.11 14.9212 182.049 18.6712 Q185.012 22.4212 185.012 28.5323 Q185.012 34.6433 182.049 38.3933 Q179.11 42.1433 174.387 42.1433 Q171.54 42.1433 169.48 41.0322 Q167.443 39.8979 166.1 37.5831 L166.1 51.3331 L161.818 51.3331 L161.818 28.7637 Q161.818 23.4165 163.901 20.1758 M180.591 28.5323 Q180.591 23.8332 178.647 21.1712 Q176.725 18.486 173.346 18.486 Q169.966 18.486 168.022 21.1712 Q166.1 23.8332 166.1 28.5323 Q166.1 33.2313 168.022 35.9165 Q169.966 38.5785 173.346 38.5785 Q176.725 38.5785 178.647 35.9165 Q180.591 33.2313 180.591 28.5323 Z" fill="#000000" fill-rule="nonzero" fill-opacity="1" /><polyline clip-path="url(#clip182)" style="stroke:#009af9; stroke-linecap:round; stroke-linejoin:round; stroke-width:4; stroke-opacity:1; fill:none" points="189.869,591.259 248.307,595.667 306.746,600.627 365.185,606.251 423.623,612.68 482.062,620.1 540.501,628.759 598.939,638.994 657.378,651.278 715.817,636.263 774.256,617.493 832.694,593.362 891.133,561.192 949.572,516.166 1008.01,448.662 1066.45,336.328 1124.89,113.68 "/>
<circle clip-path="url(#clip182)" cx="657.378" cy="651.278" r="10.8" fill="#ff0000" fill-rule="evenodd" fill-opacity="1" stroke="#000000" stroke-opacity="1" stroke-width="3.2"/>
<path clip-path="url(#clip180)" d="M1361.64 667.406 L2352.76 667.406 L2352.76 97.5521 L1361.64 97.5521  Z" fill="#ffffff" fill-rule="evenodd" fill-opacity="1"/>
<defs>
  <clipPath id="clip183">
    <rect x="1361" y="97" width="992" height="571"/>
  </clipPath>
</defs>
<polyline clip-path="url(#clip183)" style="stroke:#000000; stroke-linecap:round; stroke-linejoin:round; stroke-width:2; stroke-opacity:0.1; fill:none" points="1480.96,667.406 1480.96,97.5521 "/>
<polyline clip-path="url(#clip183)" style="stroke:#000000; stroke-linecap:round; stroke-linejoin:round; stroke-width:2; stroke-opacity:0.1; fill:none" points="1624.26,667.406 1624.26,97.5521 "/>
<polyline clip-path="url(#clip183)" style="stroke:#000000; stroke-linecap:round; stroke-linejoin:round; stroke-width:2; stroke-opacity:0.1; fill:none" points="1767.55,667.406 1767.55,97.5521 "/>
<polyline clip-path="url(#clip183)" style="stroke:#000000; stroke-linecap:round; stroke-linejoin:round; stroke-width:2; stroke-opacity:0.1; fill:none" points="1910.85,667.406 1910.85,97.5521 "/>
<polyline clip-path="url(#clip183)" style="stroke:#000000; stroke-linecap:round; stroke-linejoin:round; stroke-width:2; stroke-opacity:0.1; fill:none" points="2054.14,667.406 2054.14,97.5521 "/>
<polyline clip-path="url(#clip183)" style="stroke:#000000; stroke-linecap:round; stroke-linejoin:round; stroke-width:2; stroke-opacity:0.1; fill:none" points="2197.44,667.406 2197.44,97.5521 "/>
<polyline clip-path="url(#clip183)" style="stroke:#000000; stroke-linecap:round; stroke-linejoin:round; stroke-width:2; stroke-opacity:0.1; fill:none" points="2340.73,667.406 2340.73,97.5521 "/>
<polyline clip-path="url(#clip183)" style="stroke:#000000; stroke-linecap:round; stroke-linejoin:round; stroke-width:2; stroke-opacity:0.1; fill:none" points="1361.64,651.278 2352.76,651.278 "/>
<polyline clip-path="url(#clip183)" style="stroke:#000000; stroke-linecap:round; stroke-linejoin:round; stroke-width:2; stroke-opacity:0.1; fill:none" points="1361.64,508.303 2352.76,508.303 "/>
<polyline clip-path="url(#clip183)" style="stroke:#000000; stroke-linecap:round; stroke-linejoin:round; stroke-width:2; stroke-opacity:0.1; fill:none" points="1361.64,365.327 2352.76,365.327 "/>
<polyline clip-path="url(#clip183)" style="stroke:#000000; stroke-linecap:round; stroke-linejoin:round; stroke-width:2; stroke-opacity:0.1; fill:none" points="1361.64,222.351 2352.76,222.351 "/>
<polyline clip-path="url(#clip180)" style="stroke:#000000; stroke-linecap:round; stroke-linejoin:round; stroke-width:4; stroke-opacity:1; fill:none" points="1361.64,667.406 2352.76,667.406 "/>
<polyline clip-path="url(#clip180)" style="stroke:#000000; stroke-linecap:round; stroke-linejoin:round; stroke-width:4; stroke-opacity:1; fill:none" points="1480.96,667.406 1480.96,648.509 "/>
<polyline clip-path="url(#clip180)" style="stroke:#000000; stroke-linecap:round; stroke-linejoin:round; stroke-width:4; stroke-opacity:1; fill:none" points="1624.26,667.406 1624.26,648.509 "/>
<polyline clip-path="url(#clip180)" style="stroke:#000000; stroke-linecap:round; stroke-linejoin:round; stroke-width:4; stroke-opacity:1; fill:none" points="1767.55,667.406 1767.55,648.509 "/>
<polyline clip-path="url(#clip180)" style="stroke:#000000; stroke-linecap:round; stroke-linejoin:round; stroke-width:4; stroke-opacity:1; fill:none" points="1910.85,667.406 1910.85,648.509 "/>
<polyline clip-path="url(#clip180)" style="stroke:#000000; stroke-linecap:round; stroke-linejoin:round; stroke-width:4; stroke-opacity:1; fill:none" points="2054.14,667.406 2054.14,648.509 "/>
<polyline clip-path="url(#clip180)" style="stroke:#000000; stroke-linecap:round; stroke-linejoin:round; stroke-width:4; stroke-opacity:1; fill:none" points="2197.44,667.406 2197.44,648.509 "/>
<polyline clip-path="url(#clip180)" style="stroke:#000000; stroke-linecap:round; stroke-linejoin:round; stroke-width:4; stroke-opacity:1; fill:none" points="2340.73,667.406 2340.73,648.509 "/>
<path clip-path="url(#clip180)" d="M1427.11 739.139 Q1425.2 741.054 1426.12 743.914 Q1427.04 746.75 1430.82 750.531 Q1434.59 754.3 1437.44 755.233 Q1440.28 756.141 1442.2 754.226 Q1444.13 752.299 1443.21 749.463 Q1442.29 746.603 1438.52 742.834 Q1434.74 739.053 1431.89 738.144 Q1429.04 737.211 1427.11 739.139 M1425.15 737.175 Q1428.23 734.093 1432.29 734.916 Q1436.36 735.714 1441 740.354 Q1445.62 744.982 1446.43 749.058 Q1447.24 753.109 1444.16 756.19 Q1441.08 759.272 1437.02 758.474 Q1432.96 757.651 1428.33 753.023 Q1423.69 748.383 1422.88 744.332 Q1422.07 740.256 1425.15 737.175 Z" fill="#000000" fill-rule="nonzero" fill-opacity="1" /><path clip-path="url(#clip180)" d="M1451.38 742.024 L1453.97 739.433 L1457.09 742.552 L1454.5 745.142 L1451.38 742.024 Z" fill="#000000" fill-rule="nonzero" fill-opacity="1" /><path clip-path="url(#clip180)" d="M1460.12 719.755 Q1462.28 718.355 1464.48 718.564 Q1466.69 718.761 1468.46 720.528 Q1471.17 723.241 1470.79 726.593 Q1470.41 729.944 1466.97 733.381 Q1465.82 734.535 1464.36 735.53 Q1462.92 736.524 1461.17 737.371 L1458.77 734.977 Q1460.4 734.548 1461.94 733.627 Q1463.47 732.706 1464.81 731.368 Q1467.14 729.036 1467.44 726.9 Q1467.75 724.751 1465.99 722.996 Q1464.37 721.375 1462.32 721.609 Q1460.27 721.817 1458.24 723.843 L1456.11 725.979 L1454.07 723.941 L1456.3 721.707 Q1458.13 719.878 1458.38 718.184 Q1458.61 716.477 1457.24 715.102 Q1455.83 713.69 1454.07 713.948 Q1452.31 714.182 1450.45 716.047 Q1449.43 717.066 1448.48 718.454 Q1447.54 719.841 1446.61 721.707 L1444.4 719.497 Q1445.42 717.692 1446.45 716.268 Q1447.49 714.832 1448.58 713.74 Q1451.41 710.916 1454.34 710.56 Q1457.26 710.192 1459.45 712.377 Q1460.97 713.899 1461.15 715.827 Q1461.33 717.742 1460.12 719.755 Z" fill="#000000" fill-rule="nonzero" fill-opacity="1" /><path clip-path="url(#clip180)" d="M1467.1 699.156 Q1465.18 701.071 1466.1 703.931 Q1467.02 706.767 1470.8 710.548 Q1474.57 714.317 1477.42 715.25 Q1480.27 716.158 1482.18 714.243 Q1484.11 712.316 1483.19 709.48 Q1482.27 706.619 1478.5 702.851 Q1474.72 699.07 1471.87 698.161 Q1469.02 697.228 1467.1 699.156 M1465.13 697.191 Q1468.21 694.11 1472.28 694.933 Q1476.34 695.731 1480.98 700.371 Q1485.61 704.999 1486.42 709.075 Q1487.23 713.126 1484.15 716.207 Q1481.07 719.288 1477 718.49 Q1472.94 717.668 1468.31 713.04 Q1463.67 708.399 1462.86 704.348 Q1462.05 700.273 1465.13 697.191 Z" fill="#000000" fill-rule="nonzero" fill-opacity="1" /><path clip-path="url(#clip180)" d="M1571.06 738.488 Q1569.14 740.403 1570.06 743.264 Q1570.98 746.099 1574.77 749.88 Q1578.53 753.649 1581.38 754.582 Q1584.23 755.491 1586.15 753.576 Q1588.07 751.648 1587.15 748.812 Q1586.23 745.952 1582.46 742.183 Q1578.68 738.402 1575.83 737.494 Q1572.99 736.561 1571.06 738.488 M1569.09 736.524 Q1572.18 733.443 1576.24 734.265 Q1580.3 735.063 1584.94 739.704 Q1589.57 744.332 1590.38 748.407 Q1591.19 752.458 1588.11 755.54 Q1585.03 758.621 1580.96 757.823 Q1576.9 757.001 1572.27 752.372 Q1567.63 747.732 1566.82 743.681 Q1566.01 739.605 1569.09 736.524 Z" fill="#000000" fill-rule="nonzero" fill-opacity="1" /><path clip-path="url(#clip180)" d="M1595.33 741.373 L1597.92 738.783 L1601.04 741.901 L1598.45 744.491 L1595.33 741.373 Z" fill="#000000" fill-rule="nonzero" fill-opacity="1" /><path clip-path="url(#clip180)" d="M1604.07 719.104 Q1606.23 717.705 1608.43 717.913 Q1610.64 718.11 1612.4 719.878 Q1615.12 722.591 1614.74 725.942 Q1614.36 729.293 1610.92 732.731 Q1609.76 733.885 1608.3 734.879 Q1606.87 735.873 1605.11 736.72 L1602.72 734.327 Q1604.35 733.897 1605.89 732.976 Q1607.42 732.056 1608.76 730.717 Q1611.09 728.385 1611.38 726.249 Q1611.69 724.101 1609.94 722.345 Q1608.32 720.725 1606.27 720.958 Q1604.22 721.167 1602.19 723.192 L1600.05 725.328 L1598.02 723.29 L1600.25 721.056 Q1602.08 719.227 1602.33 717.533 Q1602.56 715.827 1601.18 714.452 Q1599.77 713.04 1598.02 713.298 Q1596.26 713.531 1594.39 715.397 Q1593.38 716.416 1592.43 717.803 Q1591.49 719.19 1590.55 721.056 L1588.34 718.846 Q1589.36 717.042 1590.39 715.618 Q1591.44 714.182 1592.53 713.089 Q1595.35 710.265 1598.29 709.909 Q1601.21 709.541 1603.39 711.726 Q1604.92 713.249 1605.1 715.176 Q1605.27 717.091 1604.07 719.104 Z" fill="#000000" fill-rule="nonzero" fill-opacity="1" /><path clip-path="url(#clip180)" d="M1620.78 717.987 L1624.83 713.936 L1610.84 699.954 L1607.32 705.245 L1605.06 702.986 L1608.56 697.719 L1611.04 695.24 L1627.28 711.481 L1631.33 707.43 L1633.42 709.517 L1622.86 720.074 L1620.78 717.987 Z" fill="#000000" fill-rule="nonzero" fill-opacity="1" /><path clip-path="url(#clip180)" d="M1714.55 738.292 Q1712.63 740.207 1713.56 743.067 Q1714.48 745.903 1718.26 749.684 Q1722.03 753.453 1724.87 754.386 Q1727.72 755.294 1729.64 753.379 Q1731.56 751.452 1730.64 748.616 Q1729.72 745.756 1725.95 741.987 Q1722.17 738.206 1719.33 737.297 Q1716.48 736.364 1714.55 738.292 M1712.59 736.328 Q1715.67 733.246 1719.73 734.069 Q1723.79 734.867 1728.43 739.507 Q1733.06 744.135 1733.87 748.211 Q1734.68 752.262 1731.6 755.343 Q1728.52 758.425 1724.46 757.627 Q1720.39 756.804 1715.77 752.176 Q1711.12 747.536 1710.31 743.485 Q1709.5 739.409 1712.59 736.328 Z" fill="#000000" fill-rule="nonzero" fill-opacity="1" /><path clip-path="url(#clip180)" d="M1738.82 741.177 L1741.41 738.586 L1744.53 741.705 L1741.94 744.295 L1738.82 741.177 Z" fill="#000000" fill-rule="nonzero" fill-opacity="1" /><path clip-path="url(#clip180)" d="M1747.56 718.908 Q1749.72 717.508 1751.92 717.717 Q1754.13 717.913 1755.9 719.681 Q1758.61 722.394 1758.23 725.746 Q1757.85 729.097 1754.41 732.534 Q1753.26 733.688 1751.8 734.683 Q1750.36 735.677 1748.6 736.524 L1746.21 734.13 Q1747.84 733.701 1749.38 732.78 Q1750.91 731.859 1752.25 730.521 Q1754.58 728.189 1754.88 726.053 Q1755.18 723.904 1753.43 722.149 Q1751.81 720.528 1749.76 720.762 Q1747.71 720.97 1745.68 722.996 L1743.55 725.132 L1741.51 723.094 L1743.74 720.86 Q1745.57 719.031 1745.82 717.336 Q1746.05 715.63 1744.68 714.255 Q1743.26 712.843 1741.51 713.101 Q1739.75 713.334 1737.89 715.2 Q1736.87 716.219 1735.92 717.607 Q1734.98 718.994 1734.04 720.86 L1731.83 718.65 Q1732.85 716.845 1733.88 715.421 Q1734.93 713.985 1736.02 712.893 Q1738.84 710.069 1741.78 709.713 Q1744.7 709.345 1746.88 711.53 Q1748.41 713.052 1748.59 714.979 Q1748.76 716.895 1747.56 718.908 Z" fill="#000000" fill-rule="nonzero" fill-opacity="1" /><path clip-path="url(#clip180)" d="M1765.97 716.084 L1774.63 707.43 L1776.72 709.517 L1765.08 721.154 L1762.99 719.067 Q1762.94 716.195 1762.92 711.309 Q1762.89 706.398 1762.81 705.06 Q1762.66 702.532 1762.21 701.144 Q1761.75 699.733 1760.86 698.836 Q1759.39 697.376 1757.44 697.486 Q1755.5 697.584 1753.86 699.229 Q1752.69 700.395 1751.8 702.102 Q1750.91 703.796 1750.26 706.092 L1747.76 703.587 Q1748.65 701.488 1749.65 699.88 Q1750.64 698.272 1751.72 697.191 Q1754.57 694.343 1757.69 694.073 Q1760.81 693.803 1763.19 696.185 Q1764.32 697.314 1764.91 698.763 Q1765.5 700.187 1765.75 702.679 Q1765.8 703.342 1765.86 706.693 Q1765.91 710.032 1765.97 716.084 Z" fill="#000000" fill-rule="nonzero" fill-opacity="1" /><path clip-path="url(#clip180)" d="M1857.34 738.795 Q1855.43 740.71 1856.35 743.571 Q1857.27 746.406 1861.05 750.187 Q1864.82 753.956 1867.67 754.889 Q1870.51 755.797 1872.43 753.882 Q1874.36 751.955 1873.44 749.119 Q1872.52 746.259 1868.75 742.49 Q1864.97 738.709 1862.12 737.801 Q1859.27 736.868 1857.34 738.795 M1855.38 736.831 Q1858.46 733.75 1862.52 734.572 Q1866.59 735.37 1871.23 740.01 Q1875.85 744.639 1876.66 748.714 Q1877.47 752.765 1874.39 755.847 Q1871.31 758.928 1867.25 758.13 Q1863.19 757.307 1858.56 752.679 Q1853.92 748.039 1853.11 743.988 Q1852.3 739.912 1855.38 736.831 Z" fill="#000000" fill-rule="nonzero" fill-opacity="1" /><path clip-path="url(#clip180)" d="M1881.61 741.68 L1884.2 739.09 L1887.32 742.208 L1884.73 744.798 L1881.61 741.68 Z" fill="#000000" fill-rule="nonzero" fill-opacity="1" /><path clip-path="url(#clip180)" d="M1890.35 719.411 Q1892.51 718.012 1894.71 718.22 Q1896.92 718.417 1898.69 720.185 Q1901.4 722.898 1901.02 726.249 Q1900.64 729.6 1897.2 733.038 Q1896.05 734.192 1894.59 735.186 Q1893.15 736.18 1891.4 737.027 L1889 734.634 Q1890.63 734.204 1892.17 733.283 Q1893.7 732.362 1895.04 731.024 Q1897.37 728.692 1897.67 726.556 Q1897.98 724.408 1896.22 722.652 Q1894.6 721.032 1892.55 721.265 Q1890.5 721.474 1888.47 723.499 L1886.34 725.635 L1884.3 723.597 L1886.53 721.363 Q1888.36 719.534 1888.61 717.84 Q1888.84 716.133 1887.47 714.759 Q1886.06 713.347 1884.3 713.605 Q1882.54 713.838 1880.68 715.704 Q1879.66 716.723 1878.71 718.11 Q1877.77 719.497 1876.84 721.363 L1874.63 719.153 Q1875.65 717.349 1876.68 715.925 Q1877.72 714.488 1878.81 713.396 Q1881.64 710.572 1884.57 710.216 Q1887.49 709.848 1889.68 712.033 Q1891.2 713.555 1891.38 715.483 Q1891.56 717.398 1890.35 719.411 Z" fill="#000000" fill-rule="nonzero" fill-opacity="1" /><path clip-path="url(#clip180)" d="M1906.35 703.415 Q1908.51 702.016 1910.71 702.225 Q1912.92 702.421 1914.68 704.189 Q1917.4 706.902 1917.02 710.253 Q1916.64 713.605 1913.2 717.042 Q1912.04 718.196 1910.58 719.19 Q1909.15 720.185 1907.39 721.032 L1905 718.638 Q1906.63 718.208 1908.16 717.287 Q1909.7 716.367 1911.04 715.029 Q1913.37 712.696 1913.66 710.56 Q1913.97 708.412 1912.22 706.656 Q1910.6 705.036 1908.55 705.269 Q1906.5 705.478 1904.47 707.503 L1902.33 709.639 L1900.3 707.602 L1902.53 705.367 Q1904.36 703.538 1904.6 701.844 Q1904.84 700.138 1903.46 698.763 Q1902.05 697.351 1900.3 697.609 Q1898.54 697.842 1896.67 699.708 Q1895.66 700.727 1894.71 702.114 Q1893.76 703.501 1892.83 705.367 L1890.62 703.158 Q1891.64 701.353 1892.67 699.929 Q1893.72 698.493 1894.81 697.4 Q1897.63 694.577 1900.57 694.221 Q1903.49 693.852 1905.67 696.037 Q1907.19 697.56 1907.38 699.487 Q1907.55 701.402 1906.35 703.415 Z" fill="#000000" fill-rule="nonzero" fill-opacity="1" /><path clip-path="url(#clip180)" d="M2000.04 739.397 Q1998.12 741.312 1999.04 744.172 Q1999.96 747.008 2003.74 750.789 Q2007.51 754.558 2010.36 755.491 Q2013.21 756.399 2015.12 754.484 Q2017.05 752.557 2016.13 749.721 Q2015.21 746.86 2011.44 743.092 Q2007.66 739.311 2004.81 738.402 Q2001.96 737.469 2000.04 739.397 M1998.07 737.432 Q2001.15 734.351 2005.22 735.174 Q2009.28 735.972 2013.92 740.612 Q2018.55 745.24 2019.36 749.316 Q2020.17 753.367 2017.09 756.448 Q2014.01 759.529 2009.94 758.731 Q2005.88 757.909 2001.25 753.281 Q1996.61 748.641 1995.8 744.589 Q1994.99 740.514 1998.07 737.432 Z" fill="#000000" fill-rule="nonzero" fill-opacity="1" /><path clip-path="url(#clip180)" d="M2024.31 742.282 L2026.9 739.691 L2030.01 742.809 L2027.42 745.4 L2024.31 742.282 Z" fill="#000000" fill-rule="nonzero" fill-opacity="1" /><path clip-path="url(#clip180)" d="M2033.05 720.013 Q2035.21 718.613 2037.4 718.822 Q2039.61 719.018 2041.38 720.786 Q2044.09 723.499 2043.71 726.85 Q2043.33 730.202 2039.9 733.639 Q2038.74 734.793 2037.28 735.787 Q2035.84 736.782 2034.09 737.629 L2031.7 735.235 Q2033.33 734.805 2034.86 733.885 Q2036.4 732.964 2037.74 731.626 Q2040.07 729.293 2040.36 727.157 Q2040.67 725.009 2038.91 723.254 Q2037.29 721.633 2035.24 721.866 Q2033.19 722.075 2031.17 724.101 L2029.03 726.237 L2026.99 724.199 L2029.23 721.965 Q2031.06 720.135 2031.3 718.441 Q2031.54 716.735 2030.16 715.36 Q2028.75 713.948 2026.99 714.206 Q2025.24 714.439 2023.37 716.305 Q2022.35 717.324 2021.41 718.711 Q2020.46 720.099 2019.53 721.965 L2017.32 719.755 Q2018.34 717.95 2019.37 716.526 Q2020.41 715.09 2021.51 713.997 Q2024.33 711.174 2027.26 710.818 Q2030.19 710.45 2032.37 712.635 Q2033.89 714.157 2034.08 716.084 Q2034.25 717.999 2033.05 720.013 Z" fill="#000000" fill-rule="nonzero" fill-opacity="1" /><path clip-path="url(#clip180)" d="M2042.06 698.431 L2045.58 714.476 L2051.84 708.215 L2042.06 698.431 M2039.25 696.921 L2042.36 693.803 L2054.31 705.748 L2056.92 703.133 L2058.99 705.195 L2056.37 707.81 L2060.69 712.131 L2058.22 714.599 L2053.9 710.278 L2045.63 718.552 L2043.24 716.158 L2039.25 696.921 Z" fill="#000000" fill-rule="nonzero" fill-opacity="1" /><path clip-path="url(#clip180)" d="M2144.12 738.611 Q2142.2 740.526 2143.12 743.386 Q2144.04 746.222 2147.82 750.003 Q2151.59 753.772 2154.44 754.705 Q2157.29 755.613 2159.2 753.698 Q2161.13 751.771 2160.21 748.935 Q2159.29 746.075 2155.52 742.306 Q2151.74 738.525 2148.89 737.617 Q2146.04 736.684 2144.12 738.611 M2142.15 736.647 Q2145.23 733.565 2149.3 734.388 Q2153.36 735.186 2158 739.826 Q2162.63 744.454 2163.44 748.53 Q2164.25 752.581 2161.17 755.662 Q2158.09 758.744 2154.02 757.946 Q2149.96 757.123 2145.33 752.495 Q2140.69 747.855 2139.88 743.804 Q2139.07 739.728 2142.15 736.647 Z" fill="#000000" fill-rule="nonzero" fill-opacity="1" /><path clip-path="url(#clip180)" d="M2168.39 741.496 L2170.98 738.906 L2174.09 742.024 L2171.5 744.614 L2168.39 741.496 Z" fill="#000000" fill-rule="nonzero" fill-opacity="1" /><path clip-path="url(#clip180)" d="M2177.13 719.227 Q2179.29 717.828 2181.49 718.036 Q2183.69 718.233 2185.46 720 Q2188.18 722.713 2187.79 726.065 Q2187.41 729.416 2183.98 732.853 Q2182.82 734.007 2181.36 735.002 Q2179.93 735.996 2178.17 736.843 L2175.78 734.449 Q2177.41 734.02 2178.94 733.099 Q2180.48 732.178 2181.82 730.84 Q2184.15 728.508 2184.44 726.372 Q2184.75 724.223 2182.99 722.468 Q2181.37 720.847 2179.32 721.081 Q2177.27 721.289 2175.25 723.315 L2173.11 725.451 L2171.07 723.413 L2173.31 721.179 Q2175.14 719.35 2175.38 717.656 Q2175.62 715.949 2174.24 714.574 Q2172.83 713.163 2171.07 713.42 Q2169.32 713.654 2167.45 715.52 Q2166.43 716.539 2165.49 717.926 Q2164.54 719.313 2163.61 721.179 L2161.4 718.969 Q2162.42 717.165 2163.45 715.741 Q2164.49 714.304 2165.59 713.212 Q2168.41 710.388 2171.34 710.032 Q2174.27 709.664 2176.45 711.849 Q2177.97 713.371 2178.16 715.299 Q2178.33 717.214 2177.13 719.227 Z" fill="#000000" fill-rule="nonzero" fill-opacity="1" /><path clip-path="url(#clip180)" d="M2177.19 702.274 L2186.92 692.539 L2189.01 694.626 L2181.55 702.09 L2186.04 706.583 Q2186.4 705.858 2186.85 705.232 Q2187.29 704.594 2187.83 704.054 Q2190.9 700.985 2194.37 700.874 Q2197.85 700.764 2200.72 703.636 Q2203.68 706.595 2203.48 710.081 Q2203.28 713.555 2199.92 716.907 Q2198.77 718.061 2197.37 719.067 Q2195.98 720.062 2194.31 720.946 L2191.82 718.454 Q2193.53 717.95 2195 717.066 Q2196.47 716.183 2197.79 714.869 Q2199.91 712.745 2200.03 710.388 Q2200.16 708.031 2198.24 706.116 Q2196.33 704.201 2193.97 704.324 Q2191.61 704.447 2189.49 706.57 Q2188.49 707.565 2187.72 708.78 Q2186.96 709.983 2186.4 711.481 L2177.19 702.274 Z" fill="#000000" fill-rule="nonzero" fill-opacity="1" /><path clip-path="url(#clip180)" d="M2286.8 739.225 Q2284.88 741.14 2285.8 744 Q2286.72 746.836 2290.51 750.617 Q2294.27 754.386 2297.12 755.319 Q2299.97 756.227 2301.89 754.312 Q2303.81 752.385 2302.89 749.549 Q2301.97 746.689 2298.2 742.92 Q2294.42 739.139 2291.57 738.23 Q2288.73 737.297 2286.8 739.225 M2284.83 737.261 Q2287.92 734.179 2291.98 735.002 Q2296.04 735.8 2300.68 740.44 Q2305.31 745.068 2306.12 749.144 Q2306.93 753.195 2303.85 756.276 Q2300.77 759.358 2296.7 758.56 Q2292.64 757.737 2288.01 753.109 Q2283.37 748.469 2282.56 744.418 Q2281.75 740.342 2284.83 737.261 Z" fill="#000000" fill-rule="nonzero" fill-opacity="1" /><path clip-path="url(#clip180)" d="M2311.07 742.11 L2313.66 739.519 L2316.78 742.638 L2314.19 745.228 L2311.07 742.11 Z" fill="#000000" fill-rule="nonzero" fill-opacity="1" /><path clip-path="url(#clip180)" d="M2319.81 719.841 Q2321.97 718.441 2324.17 718.65 Q2326.38 718.846 2328.14 720.614 Q2330.86 723.327 2330.48 726.679 Q2330.1 730.03 2326.66 733.467 Q2325.5 734.621 2324.04 735.616 Q2322.61 736.61 2320.85 737.457 L2318.46 735.063 Q2320.09 734.634 2321.63 733.713 Q2323.16 732.792 2324.5 731.454 Q2326.83 729.122 2327.13 726.985 Q2327.43 724.837 2325.68 723.082 Q2324.06 721.461 2322.01 721.695 Q2319.96 721.903 2317.93 723.929 L2315.79 726.065 L2313.76 724.027 L2315.99 721.793 Q2317.82 719.964 2318.07 718.269 Q2318.3 716.563 2316.92 715.188 Q2315.51 713.776 2313.76 714.034 Q2312 714.267 2310.13 716.133 Q2309.12 717.152 2308.17 718.54 Q2307.23 719.927 2306.29 721.793 L2304.08 719.583 Q2305.1 717.778 2306.13 716.354 Q2307.18 714.918 2308.27 713.826 Q2311.09 711.002 2314.03 710.646 Q2316.95 710.278 2319.13 712.463 Q2320.66 713.985 2320.84 715.912 Q2321.01 717.828 2319.81 719.841 Z" fill="#000000" fill-rule="nonzero" fill-opacity="1" /><path clip-path="url(#clip180)" d="M2333.63 705.478 Q2331.96 707.147 2332.12 709.271 Q2332.29 711.383 2334.28 713.371 Q2336.26 715.348 2338.38 715.532 Q2340.51 715.691 2342.18 714.022 Q2343.85 712.352 2343.67 710.241 Q2343.5 708.105 2341.52 706.128 Q2339.54 704.14 2337.41 703.98 Q2335.3 703.808 2333.63 705.478 M2330.78 692.784 L2333.04 695.043 Q2331.67 695.534 2330.48 696.258 Q2329.3 696.97 2328.36 697.903 Q2325.91 700.359 2326.27 703.317 Q2326.63 706.263 2329.8 709.799 Q2329.46 708.007 2329.99 706.349 Q2330.5 704.68 2331.81 703.366 Q2334.58 700.604 2337.85 700.69 Q2341.13 700.751 2344.02 703.636 Q2346.84 706.46 2346.88 709.836 Q2346.91 713.212 2344.14 715.986 Q2340.96 719.166 2336.85 718.417 Q2332.72 717.656 2328.09 713.028 Q2323.75 708.682 2323.23 704.041 Q2322.71 699.389 2326.18 695.915 Q2327.11 694.982 2328.24 694.221 Q2329.38 693.447 2330.78 692.784 Z" fill="#000000" fill-rule="nonzero" fill-opacity="1" /><polyline clip-path="url(#clip180)" style="stroke:#000000; stroke-linecap:round; stroke-linejoin:round; stroke-width:4; stroke-opacity:1; fill:none" points="1361.64,667.406 1361.64,97.5521 "/>
<polyline clip-path="url(#clip180)" style="stroke:#000000; stroke-linecap:round; stroke-linejoin:round; stroke-width:4; stroke-opacity:1; fill:none" points="1361.64,651.278 1380.53,651.278 "/>
<polyline clip-path="url(#clip180)" style="stroke:#000000; stroke-linecap:round; stroke-linejoin:round; stroke-width:4; stroke-opacity:1; fill:none" points="1361.64,508.303 1380.53,508.303 "/>
<polyline clip-path="url(#clip180)" style="stroke:#000000; stroke-linecap:round; stroke-linejoin:round; stroke-width:4; stroke-opacity:1; fill:none" points="1361.64,365.327 1380.53,365.327 "/>
<polyline clip-path="url(#clip180)" style="stroke:#000000; stroke-linecap:round; stroke-linejoin:round; stroke-width:4; stroke-opacity:1; fill:none" points="1361.64,222.351 1380.53,222.351 "/>
<path clip-path="url(#clip180)" d="M1260.13 640.627 Q1257.42 640.627 1256.05 643.301 Q1254.7 645.957 1254.7 651.304 Q1254.7 656.634 1256.05 659.308 Q1257.42 661.964 1260.13 661.964 Q1262.86 661.964 1264.21 659.308 Q1265.58 656.634 1265.58 651.304 Q1265.58 645.957 1264.21 643.301 Q1262.86 640.627 1260.13 640.627 M1260.13 637.85 Q1264.49 637.85 1266.78 641.305 Q1269.09 644.742 1269.09 651.304 Q1269.09 657.85 1266.78 661.304 Q1264.49 664.742 1260.13 664.742 Q1255.78 664.742 1253.47 661.304 Q1251.17 657.85 1251.17 651.304 Q1251.17 644.742 1253.47 641.305 Q1255.78 637.85 1260.13 637.85 Z" fill="#000000" fill-rule="nonzero" fill-opacity="1" /><path clip-path="url(#clip180)" d="M1275.25 659.829 L1278.92 659.829 L1278.92 664.238 L1275.25 664.238 L1275.25 659.829 Z" fill="#000000" fill-rule="nonzero" fill-opacity="1" /><path clip-path="url(#clip180)" d="M1294.06 640.627 Q1291.35 640.627 1289.98 643.301 Q1288.62 645.957 1288.62 651.304 Q1288.62 656.634 1289.98 659.308 Q1291.35 661.964 1294.06 661.964 Q1296.78 661.964 1298.14 659.308 Q1299.51 656.634 1299.51 651.304 Q1299.51 645.957 1298.14 643.301 Q1296.78 640.627 1294.06 640.627 M1294.06 637.85 Q1298.41 637.85 1300.71 641.305 Q1303.01 644.742 1303.01 651.304 Q1303.01 657.85 1300.71 661.304 Q1298.41 664.742 1294.06 664.742 Q1289.7 664.742 1287.39 661.304 Q1285.1 657.85 1285.1 651.304 Q1285.1 644.742 1287.39 641.305 Q1289.7 637.85 1294.06 637.85 Z" fill="#000000" fill-rule="nonzero" fill-opacity="1" /><path clip-path="url(#clip180)" d="M1316.68 640.627 Q1313.97 640.627 1312.6 643.301 Q1311.24 645.957 1311.24 651.304 Q1311.24 656.634 1312.6 659.308 Q1313.97 661.964 1316.68 661.964 Q1319.4 661.964 1320.76 659.308 Q1322.13 656.634 1322.13 651.304 Q1322.13 645.957 1320.76 643.301 Q1319.4 640.627 1316.68 640.627 M1316.68 637.85 Q1321.04 637.85 1323.33 641.305 Q1325.64 644.742 1325.64 651.304 Q1325.64 657.85 1323.33 661.304 Q1321.04 664.742 1316.68 664.742 Q1312.32 664.742 1310.01 661.304 Q1307.72 657.85 1307.72 651.304 Q1307.72 644.742 1310.01 641.305 Q1312.32 637.85 1316.68 637.85 Z" fill="#000000" fill-rule="nonzero" fill-opacity="1" /><path clip-path="url(#clip180)" d="M1260.88 497.652 Q1258.17 497.652 1256.8 500.325 Q1255.45 502.981 1255.45 508.329 Q1255.45 513.658 1256.8 516.332 Q1258.17 518.988 1260.88 518.988 Q1263.6 518.988 1264.96 516.332 Q1266.33 513.658 1266.33 508.329 Q1266.33 502.981 1264.96 500.325 Q1263.6 497.652 1260.88 497.652 M1260.88 494.874 Q1265.24 494.874 1267.53 498.329 Q1269.84 501.766 1269.84 508.329 Q1269.84 514.874 1267.53 518.329 Q1265.24 521.766 1260.88 521.766 Q1256.52 521.766 1254.21 518.329 Q1251.92 514.874 1251.92 508.329 Q1251.92 501.766 1254.21 498.329 Q1256.52 494.874 1260.88 494.874 Z" fill="#000000" fill-rule="nonzero" fill-opacity="1" /><path clip-path="url(#clip180)" d="M1276 516.853 L1279.66 516.853 L1279.66 521.263 L1276 521.263 L1276 516.853 Z" fill="#000000" fill-rule="nonzero" fill-opacity="1" /><path clip-path="url(#clip180)" d="M1294.8 497.652 Q1292.09 497.652 1290.72 500.325 Q1289.37 502.981 1289.37 508.329 Q1289.37 513.658 1290.72 516.332 Q1292.09 518.988 1294.8 518.988 Q1297.53 518.988 1298.88 516.332 Q1300.25 513.658 1300.25 508.329 Q1300.25 502.981 1298.88 500.325 Q1297.53 497.652 1294.8 497.652 M1294.8 494.874 Q1299.16 494.874 1301.45 498.329 Q1303.76 501.766 1303.76 508.329 Q1303.76 514.874 1301.45 518.329 Q1299.16 521.766 1294.8 521.766 Q1290.45 521.766 1288.14 518.329 Q1285.84 514.874 1285.84 508.329 Q1285.84 501.766 1288.14 498.329 Q1290.45 494.874 1294.8 494.874 Z" fill="#000000" fill-rule="nonzero" fill-opacity="1" /><path clip-path="url(#clip180)" d="M1309.96 495.343 L1323.73 495.343 L1323.73 498.294 L1313.17 498.294 L1313.17 504.648 Q1313.93 504.388 1314.7 504.266 Q1315.46 504.127 1316.23 504.127 Q1320.57 504.127 1323.1 506.506 Q1325.64 508.884 1325.64 512.947 Q1325.64 517.131 1323.03 519.457 Q1320.43 521.766 1315.69 521.766 Q1314.06 521.766 1312.35 521.488 Q1310.67 521.211 1308.87 520.655 L1308.87 517.131 Q1310.43 517.981 1312.09 518.398 Q1313.76 518.815 1315.62 518.815 Q1318.62 518.815 1320.38 517.235 Q1322.13 515.655 1322.13 512.947 Q1322.13 510.238 1320.38 508.658 Q1318.62 507.079 1315.62 507.079 Q1314.21 507.079 1312.81 507.391 Q1311.42 507.704 1309.96 508.363 L1309.96 495.343 Z" fill="#000000" fill-rule="nonzero" fill-opacity="1" /><path clip-path="url(#clip180)" d="M1260.13 354.676 Q1257.42 354.676 1256.05 357.349 Q1254.7 360.006 1254.7 365.353 Q1254.7 370.683 1256.05 373.356 Q1257.42 376.012 1260.13 376.012 Q1262.86 376.012 1264.21 373.356 Q1265.58 370.683 1265.58 365.353 Q1265.58 360.006 1264.21 357.349 Q1262.86 354.676 1260.13 354.676 M1260.13 351.898 Q1264.49 351.898 1266.78 355.353 Q1269.09 358.79 1269.09 365.353 Q1269.09 371.898 1266.78 375.353 Q1264.49 378.79 1260.13 378.79 Q1255.78 378.79 1253.47 375.353 Q1251.17 371.898 1251.17 365.353 Q1251.17 358.79 1253.47 355.353 Q1255.78 351.898 1260.13 351.898 Z" fill="#000000" fill-rule="nonzero" fill-opacity="1" /><path clip-path="url(#clip180)" d="M1275.25 373.877 L1278.92 373.877 L1278.92 378.287 L1275.25 378.287 L1275.25 373.877 Z" fill="#000000" fill-rule="nonzero" fill-opacity="1" /><path clip-path="url(#clip180)" d="M1287.16 375.335 L1292.89 375.335 L1292.89 355.561 L1286.66 356.811 L1286.66 353.617 L1292.86 352.367 L1296.37 352.367 L1296.37 375.335 L1302.09 375.335 L1302.09 378.287 L1287.16 378.287 L1287.16 375.335 Z" fill="#000000" fill-rule="nonzero" fill-opacity="1" /><path clip-path="url(#clip180)" d="M1316.68 354.676 Q1313.97 354.676 1312.6 357.349 Q1311.24 360.006 1311.24 365.353 Q1311.24 370.683 1312.6 373.356 Q1313.97 376.012 1316.68 376.012 Q1319.4 376.012 1320.76 373.356 Q1322.13 370.683 1322.13 365.353 Q1322.13 360.006 1320.76 357.349 Q1319.4 354.676 1316.68 354.676 M1316.68 351.898 Q1321.04 351.898 1323.33 355.353 Q1325.64 358.79 1325.64 365.353 Q1325.64 371.898 1323.33 375.353 Q1321.04 378.79 1316.68 378.79 Q1312.32 378.79 1310.01 375.353 Q1307.72 371.898 1307.72 365.353 Q1307.72 358.79 1310.01 355.353 Q1312.32 351.898 1316.68 351.898 Z" fill="#000000" fill-rule="nonzero" fill-opacity="1" /><path clip-path="url(#clip180)" d="M1260.88 211.7 Q1258.17 211.7 1256.8 214.373 Q1255.45 217.03 1255.45 222.377 Q1255.45 227.707 1256.8 230.38 Q1258.17 233.037 1260.88 233.037 Q1263.6 233.037 1264.96 230.38 Q1266.33 227.707 1266.33 222.377 Q1266.33 217.03 1264.96 214.373 Q1263.6 211.7 1260.88 211.7 M1260.88 208.922 Q1265.24 208.922 1267.53 212.377 Q1269.84 215.814 1269.84 222.377 Q1269.84 228.922 1267.53 232.377 Q1265.24 235.814 1260.88 235.814 Q1256.52 235.814 1254.21 232.377 Q1251.92 228.922 1251.92 222.377 Q1251.92 215.814 1254.21 212.377 Q1256.52 208.922 1260.88 208.922 Z" fill="#000000" fill-rule="nonzero" fill-opacity="1" /><path clip-path="url(#clip180)" d="M1276 230.901 L1279.66 230.901 L1279.66 235.311 L1276 235.311 L1276 230.901 Z" fill="#000000" fill-rule="nonzero" fill-opacity="1" /><path clip-path="url(#clip180)" d="M1287.91 232.36 L1293.64 232.36 L1293.64 212.585 L1287.41 213.835 L1287.41 210.641 L1293.6 209.391 L1297.11 209.391 L1297.11 232.36 L1302.84 232.36 L1302.84 235.311 L1287.91 235.311 L1287.91 232.36 Z" fill="#000000" fill-rule="nonzero" fill-opacity="1" /><path clip-path="url(#clip180)" d="M1309.96 209.391 L1323.73 209.391 L1323.73 212.342 L1313.17 212.342 L1313.17 218.696 Q1313.93 218.436 1314.7 218.314 Q1315.46 218.176 1316.23 218.176 Q1320.57 218.176 1323.1 220.554 Q1325.64 222.932 1325.64 226.995 Q1325.64 231.179 1323.03 233.505 Q1320.43 235.814 1315.69 235.814 Q1314.06 235.814 1312.35 235.537 Q1310.67 235.259 1308.87 234.703 L1308.87 231.179 Q1310.43 232.03 1312.09 232.446 Q1313.76 232.863 1315.62 232.863 Q1318.62 232.863 1320.38 231.283 Q1322.13 229.703 1322.13 226.995 Q1322.13 224.287 1320.38 222.707 Q1318.62 221.127 1315.62 221.127 Q1314.21 221.127 1312.81 221.439 Q1311.42 221.752 1309.96 222.412 L1309.96 209.391 Z" fill="#000000" fill-rule="nonzero" fill-opacity="1" /><path clip-path="url(#clip180)" d="M1373.53 18.9258 Q1370.02 18.9258 1368.12 21.4721 Q1366.13 24.1341 1366.13 28.5323 Q1366.13 33.185 1368.09 35.8702 Q1370.08 38.5322 1373.53 38.5322 Q1376.94 38.5322 1378.93 35.847 Q1380.92 33.1619 1380.92 28.5323 Q1380.92 24.2962 1378.93 21.4721 Q1377.1 18.9258 1373.53 18.9258 M1373.53 15.5462 L1387.68 15.5462 L1387.68 19.8054 L1382.91 19.8054 Q1385.43 23.4165 1385.43 28.5323 Q1385.43 34.898 1382.26 38.5091 Q1379.09 42.1433 1373.53 42.1433 Q1367.96 42.1433 1364.81 38.5091 Q1361.64 34.898 1361.64 28.5323 Q1361.64 22.1203 1364.81 18.5323 Q1367.42 15.5462 1373.53 15.5462 Z" fill="#000000" fill-rule="nonzero" fill-opacity="1" /><path clip-path="url(#clip180)" d="M1411.84 19.6666 Q1410.99 19.3656 1410.13 19.1342 Q1407.84 18.5323 1405.39 18.5323 Q1401.15 18.5323 1398.79 20.824 Q1396.59 22.9536 1396.17 26.8656 L1411.84 26.8656 L1411.84 30.1989 L1396.17 30.1989 Q1396.59 34.1109 1398.79 36.2405 Q1401.15 38.5322 1405.39 38.5322 Q1408.35 38.5322 1410.13 37.9304 L1411.84 37.3517 L1411.84 41.2174 L1410.02 41.634 Q1407.61 42.1433 1405.13 42.1433 Q1398.93 42.1433 1395.32 38.5322 Q1391.68 34.9211 1391.68 28.5323 Q1391.68 22.1434 1395.32 18.5323 Q1398.93 14.9212 1405.13 14.9212 Q1407.47 14.9212 1410.02 15.4305 Q1410.94 15.6157 1411.84 15.8934 L1411.84 19.6666 Z" fill="#000000" fill-rule="nonzero" fill-opacity="1" /><polyline clip-path="url(#clip183)" style="stroke:#009af9; stroke-linecap:round; stroke-linejoin:round; stroke-width:4; stroke-opacity:1; fill:none" points="1389.69,164.901 1448.13,222.897 1506.56,281.694 1565,341.29 1623.44,401.687 1681.88,462.885 1740.32,524.882 1798.76,587.68 1857.2,651.278 1915.63,586.88 1974.07,521.681 2032.51,455.682 2090.95,388.882 2149.39,321.282 2207.83,252.882 2266.27,183.681 2324.71,113.68 "/>
<circle clip-path="url(#clip183)" cx="1857.2" cy="651.278" r="10.8" fill="#ff0000" fill-rule="evenodd" fill-opacity="1" stroke="#000000" stroke-opacity="1" stroke-width="3.2"/>
<path clip-path="url(#clip180)" d="M161.818 1467.41 L1152.94 1467.41 L1152.94 897.552 L161.818 897.552  Z" fill="#ffffff" fill-rule="evenodd" fill-opacity="1"/>
<defs>
  <clipPath id="clip184">
    <rect x="161" y="897" width="992" height="571"/>
  </clipPath>
</defs>
<polyline clip-path="url(#clip184)" style="stroke:#000000; stroke-linecap:round; stroke-linejoin:round; stroke-width:2; stroke-opacity:0.1; fill:none" points="298.016,1467.41 298.016,897.552 "/>
<polyline clip-path="url(#clip184)" style="stroke:#000000; stroke-linecap:round; stroke-linejoin:round; stroke-width:2; stroke-opacity:0.1; fill:none" points="470.646,1467.41 470.646,897.552 "/>
<polyline clip-path="url(#clip184)" style="stroke:#000000; stroke-linecap:round; stroke-linejoin:round; stroke-width:2; stroke-opacity:0.1; fill:none" points="643.275,1467.41 643.275,897.552 "/>
<polyline clip-path="url(#clip184)" style="stroke:#000000; stroke-linecap:round; stroke-linejoin:round; stroke-width:2; stroke-opacity:0.1; fill:none" points="815.904,1467.41 815.904,897.552 "/>
<polyline clip-path="url(#clip184)" style="stroke:#000000; stroke-linecap:round; stroke-linejoin:round; stroke-width:2; stroke-opacity:0.1; fill:none" points="988.534,1467.41 988.534,897.552 "/>
<polyline clip-path="url(#clip184)" style="stroke:#000000; stroke-linecap:round; stroke-linejoin:round; stroke-width:2; stroke-opacity:0.1; fill:none" points="161.818,1451.28 1152.94,1451.28 "/>
<polyline clip-path="url(#clip184)" style="stroke:#000000; stroke-linecap:round; stroke-linejoin:round; stroke-width:2; stroke-opacity:0.1; fill:none" points="161.818,1330.38 1152.94,1330.38 "/>
<polyline clip-path="url(#clip184)" style="stroke:#000000; stroke-linecap:round; stroke-linejoin:round; stroke-width:2; stroke-opacity:0.1; fill:none" points="161.818,1209.48 1152.94,1209.48 "/>
<polyline clip-path="url(#clip184)" style="stroke:#000000; stroke-linecap:round; stroke-linejoin:round; stroke-width:2; stroke-opacity:0.1; fill:none" points="161.818,1088.59 1152.94,1088.59 "/>
<polyline clip-path="url(#clip184)" style="stroke:#000000; stroke-linecap:round; stroke-linejoin:round; stroke-width:2; stroke-opacity:0.1; fill:none" points="161.818,967.688 1152.94,967.688 "/>
<polyline clip-path="url(#clip180)" style="stroke:#000000; stroke-linecap:round; stroke-linejoin:round; stroke-width:4; stroke-opacity:1; fill:none" points="161.818,1467.41 1152.94,1467.41 "/>
<polyline clip-path="url(#clip180)" style="stroke:#000000; stroke-linecap:round; stroke-linejoin:round; stroke-width:4; stroke-opacity:1; fill:none" points="298.016,1467.41 298.016,1448.51 "/>
<polyline clip-path="url(#clip180)" style="stroke:#000000; stroke-linecap:round; stroke-linejoin:round; stroke-width:4; stroke-opacity:1; fill:none" points="470.646,1467.41 470.646,1448.51 "/>
<polyline clip-path="url(#clip180)" style="stroke:#000000; stroke-linecap:round; stroke-linejoin:round; stroke-width:4; stroke-opacity:1; fill:none" points="643.275,1467.41 643.275,1448.51 "/>
<polyline clip-path="url(#clip180)" style="stroke:#000000; stroke-linecap:round; stroke-linejoin:round; stroke-width:4; stroke-opacity:1; fill:none" points="815.904,1467.41 815.904,1448.51 "/>
<polyline clip-path="url(#clip180)" style="stroke:#000000; stroke-linecap:round; stroke-linejoin:round; stroke-width:4; stroke-opacity:1; fill:none" points="988.534,1467.41 988.534,1448.51 "/>
<path clip-path="url(#clip180)" d="M244.167 1539.14 Q242.252 1541.05 243.173 1543.91 Q244.094 1546.75 247.875 1550.53 Q251.643 1554.3 254.492 1555.23 Q257.34 1556.14 259.255 1554.23 Q261.182 1552.3 260.261 1549.46 Q259.341 1546.6 255.572 1542.83 Q251.791 1539.05 248.943 1538.14 Q246.095 1537.21 244.167 1539.14 M242.203 1537.17 Q245.284 1534.09 249.348 1534.92 Q253.411 1535.71 258.052 1540.35 Q262.68 1544.98 263.49 1549.06 Q264.3 1553.11 261.219 1556.19 Q258.138 1559.27 254.074 1558.47 Q250.011 1557.65 245.383 1553.02 Q240.742 1548.38 239.932 1544.33 Q239.122 1540.26 242.203 1537.17 Z" fill="#000000" fill-rule="nonzero" fill-opacity="1" /><path clip-path="url(#clip180)" d="M268.437 1542.02 L271.027 1539.43 L274.146 1542.55 L271.555 1545.14 L268.437 1542.02 Z" fill="#000000" fill-rule="nonzero" fill-opacity="1" /><path clip-path="url(#clip180)" d="M261.243 1518.8 L270.978 1509.06 L273.065 1511.15 L265.601 1518.61 L270.094 1523.11 Q270.45 1522.38 270.905 1521.76 Q271.347 1521.12 271.887 1520.58 Q274.956 1517.51 278.43 1517.4 Q281.904 1517.29 284.777 1520.16 Q287.735 1523.12 287.539 1526.6 Q287.33 1530.08 283.979 1533.43 Q282.825 1534.58 281.425 1535.59 Q280.038 1536.59 278.369 1537.47 L275.876 1534.98 Q277.583 1534.47 279.056 1533.59 Q280.529 1532.71 281.843 1531.39 Q283.966 1529.27 284.089 1526.91 Q284.212 1524.55 282.297 1522.64 Q280.382 1520.72 278.025 1520.85 Q275.668 1520.97 273.544 1523.09 Q272.55 1524.09 271.776 1525.3 Q271.015 1526.51 270.45 1528 L261.243 1518.8 Z" fill="#000000" fill-rule="nonzero" fill-opacity="1" /><path clip-path="url(#clip180)" d="M284.151 1499.16 Q282.235 1501.07 283.156 1503.93 Q284.077 1506.77 287.858 1510.55 Q291.627 1514.32 294.475 1515.25 Q297.323 1516.16 299.238 1514.24 Q301.165 1512.32 300.245 1509.48 Q299.324 1506.62 295.555 1502.85 Q291.774 1499.07 288.926 1498.16 Q286.078 1497.23 284.151 1499.16 M282.186 1497.19 Q285.268 1494.11 289.331 1494.93 Q293.394 1495.73 298.035 1500.37 Q302.663 1505 303.473 1509.07 Q304.283 1513.13 301.202 1516.21 Q298.121 1519.29 294.057 1518.49 Q289.994 1517.67 285.366 1513.04 Q280.726 1508.4 279.915 1504.35 Q279.105 1500.27 282.186 1497.19 Z" fill="#000000" fill-rule="nonzero" fill-opacity="1" /><path clip-path="url(#clip180)" d="M417.644 1538.29 Q415.729 1540.21 416.649 1543.07 Q417.57 1545.9 421.351 1549.68 Q425.12 1553.45 427.968 1554.39 Q430.816 1555.29 432.731 1553.38 Q434.658 1551.45 433.738 1548.62 Q432.817 1545.76 429.048 1541.99 Q425.267 1538.21 422.419 1537.3 Q419.571 1536.36 417.644 1538.29 M415.68 1536.33 Q418.761 1533.25 422.824 1534.07 Q426.888 1534.87 431.528 1539.51 Q436.156 1544.14 436.966 1548.21 Q437.776 1552.26 434.695 1555.34 Q431.614 1558.42 427.551 1557.63 Q423.487 1556.8 418.859 1552.18 Q414.219 1547.54 413.408 1543.48 Q412.598 1539.41 415.68 1536.33 Z" fill="#000000" fill-rule="nonzero" fill-opacity="1" /><path clip-path="url(#clip180)" d="M441.914 1541.18 L444.504 1538.59 L447.622 1541.7 L445.032 1544.29 L441.914 1541.18 Z" fill="#000000" fill-rule="nonzero" fill-opacity="1" /><path clip-path="url(#clip180)" d="M434.72 1517.95 L444.455 1508.22 L446.542 1510.3 L439.078 1517.77 L443.571 1522.26 Q443.927 1521.53 444.381 1520.91 Q444.823 1520.27 445.363 1519.73 Q448.432 1516.66 451.906 1516.55 Q455.38 1516.44 458.253 1519.31 Q461.212 1522.27 461.015 1525.76 Q460.806 1529.23 457.455 1532.58 Q456.301 1533.74 454.902 1534.74 Q453.514 1535.74 451.845 1536.62 L449.353 1534.13 Q451.059 1533.63 452.532 1532.74 Q454.005 1531.86 455.319 1530.55 Q457.443 1528.42 457.566 1526.06 Q457.688 1523.71 455.773 1521.79 Q453.858 1519.88 451.501 1520 Q449.144 1520.12 447.02 1522.25 Q446.026 1523.24 445.253 1524.46 Q444.492 1525.66 443.927 1527.16 L434.72 1517.95 Z" fill="#000000" fill-rule="nonzero" fill-opacity="1" /><path clip-path="url(#clip180)" d="M469.068 1516.08 L477.723 1507.43 L479.81 1509.52 L468.172 1521.15 L466.085 1519.07 Q466.036 1516.19 466.012 1511.31 Q465.987 1506.4 465.901 1505.06 Q465.754 1502.53 465.299 1501.14 Q464.845 1499.73 463.949 1498.84 Q462.488 1497.38 460.536 1497.49 Q458.597 1497.58 456.952 1499.23 Q455.786 1500.4 454.889 1502.1 Q454.005 1503.8 453.355 1506.09 L450.851 1503.59 Q451.747 1501.49 452.741 1499.88 Q453.735 1498.27 454.816 1497.19 Q457.664 1494.34 460.782 1494.07 Q463.9 1493.8 466.282 1496.18 Q467.411 1497.31 468 1498.76 Q468.589 1500.19 468.847 1502.68 Q468.896 1503.34 468.958 1506.69 Q469.007 1510.03 469.068 1516.08 Z" fill="#000000" fill-rule="nonzero" fill-opacity="1" /><path clip-path="url(#clip180)" d="M589.168 1539.4 Q587.253 1541.31 588.174 1544.17 Q589.095 1547.01 592.876 1550.79 Q596.644 1554.56 599.492 1555.49 Q602.34 1556.4 604.255 1554.48 Q606.183 1552.56 605.262 1549.72 Q604.341 1546.86 600.573 1543.09 Q596.792 1539.31 593.944 1538.4 Q591.096 1537.47 589.168 1539.4 M587.204 1537.43 Q590.285 1534.35 594.349 1535.17 Q598.412 1535.97 603.052 1540.61 Q607.681 1545.24 608.491 1549.32 Q609.301 1553.37 606.22 1556.45 Q603.138 1559.53 599.075 1558.73 Q595.012 1557.91 590.384 1553.28 Q585.743 1548.64 584.933 1544.59 Q584.123 1540.51 587.204 1537.43 Z" fill="#000000" fill-rule="nonzero" fill-opacity="1" /><path clip-path="url(#clip180)" d="M613.438 1542.28 L616.028 1539.69 L619.146 1542.81 L616.556 1545.4 L613.438 1542.28 Z" fill="#000000" fill-rule="nonzero" fill-opacity="1" /><path clip-path="url(#clip180)" d="M606.244 1519.06 L615.979 1509.32 L618.066 1511.41 L610.602 1518.87 L615.095 1523.36 Q615.451 1522.64 615.906 1522.01 Q616.347 1521.38 616.888 1520.84 Q619.957 1517.77 623.431 1517.66 Q626.905 1517.55 629.777 1520.42 Q632.736 1523.38 632.54 1526.86 Q632.331 1530.34 628.98 1533.69 Q627.826 1534.84 626.426 1535.85 Q625.039 1536.84 623.369 1537.73 L620.877 1535.24 Q622.584 1534.73 624.057 1533.85 Q625.53 1532.96 626.844 1531.65 Q628.967 1529.53 629.09 1527.17 Q629.213 1524.81 627.298 1522.9 Q625.383 1520.98 623.026 1521.11 Q620.669 1521.23 618.545 1523.35 Q617.551 1524.35 616.777 1525.56 Q616.016 1526.76 615.451 1528.26 L606.244 1519.06 Z" fill="#000000" fill-rule="nonzero" fill-opacity="1" /><path clip-path="url(#clip180)" d="M631.189 1498.43 L634.712 1514.48 L640.973 1508.22 L631.189 1498.43 M628.378 1496.92 L631.496 1493.8 L643.441 1505.75 L646.056 1503.13 L648.118 1505.2 L645.503 1507.81 L649.824 1512.13 L647.357 1514.6 L643.036 1510.28 L634.762 1518.55 L632.368 1516.16 L628.378 1496.92 Z" fill="#000000" fill-rule="nonzero" fill-opacity="1" /><path clip-path="url(#clip180)" d="M761.969 1539.22 Q760.054 1541.14 760.975 1544 Q761.896 1546.84 765.677 1550.62 Q769.445 1554.39 772.294 1555.32 Q775.142 1556.23 777.057 1554.31 Q778.984 1552.38 778.063 1549.55 Q777.143 1546.69 773.374 1542.92 Q769.593 1539.14 766.745 1538.23 Q763.897 1537.3 761.969 1539.22 M760.005 1537.26 Q763.086 1534.18 767.15 1535 Q771.213 1535.8 775.854 1540.44 Q780.482 1545.07 781.292 1549.14 Q782.102 1553.19 779.021 1556.28 Q775.94 1559.36 771.876 1558.56 Q767.813 1557.74 763.185 1553.11 Q758.544 1548.47 757.734 1544.42 Q756.924 1540.34 760.005 1537.26 Z" fill="#000000" fill-rule="nonzero" fill-opacity="1" /><path clip-path="url(#clip180)" d="M786.239 1542.11 L788.829 1539.52 L791.948 1542.64 L789.357 1545.23 L786.239 1542.11 Z" fill="#000000" fill-rule="nonzero" fill-opacity="1" /><path clip-path="url(#clip180)" d="M779.045 1518.88 L788.78 1509.15 L790.867 1511.24 L783.403 1518.7 L787.896 1523.19 Q788.252 1522.47 788.707 1521.84 Q789.149 1521.2 789.689 1520.66 Q792.758 1517.59 796.232 1517.48 Q799.706 1517.37 802.579 1520.25 Q805.537 1523.2 805.341 1526.69 Q805.132 1530.17 801.781 1533.52 Q800.627 1534.67 799.227 1535.68 Q797.84 1536.67 796.171 1537.56 L793.679 1535.06 Q795.385 1534.56 796.858 1533.68 Q798.331 1532.79 799.645 1531.48 Q801.768 1529.35 801.891 1527 Q802.014 1524.64 800.099 1522.73 Q798.184 1520.81 795.827 1520.93 Q793.47 1521.06 791.346 1523.18 Q790.352 1524.17 789.578 1525.39 Q788.817 1526.59 788.252 1528.09 L779.045 1518.88 Z" fill="#000000" fill-rule="nonzero" fill-opacity="1" /><path clip-path="url(#clip180)" d="M808.803 1505.48 Q807.133 1507.15 807.293 1509.27 Q807.465 1511.38 809.453 1513.37 Q811.43 1515.35 813.554 1515.53 Q815.677 1515.69 817.347 1514.02 Q819.016 1512.35 818.844 1510.24 Q818.673 1508.1 816.696 1506.13 Q814.707 1504.14 812.584 1503.98 Q810.472 1503.81 808.803 1505.48 M805.955 1492.78 L808.213 1495.04 Q806.838 1495.53 805.648 1496.26 Q804.469 1496.97 803.536 1497.9 Q801.081 1500.36 801.437 1503.32 Q801.805 1506.26 804.973 1509.8 Q804.629 1508.01 805.157 1506.35 Q805.672 1504.68 806.986 1503.37 Q809.748 1500.6 813.026 1500.69 Q816.303 1500.75 819.188 1503.64 Q822.012 1506.46 822.049 1509.84 Q822.085 1513.21 819.311 1515.99 Q816.131 1519.17 812.019 1518.42 Q807.894 1517.66 803.266 1513.03 Q798.92 1508.68 798.405 1504.04 Q797.877 1499.39 801.351 1495.91 Q802.284 1494.98 803.413 1494.22 Q804.555 1493.45 805.955 1492.78 Z" fill="#000000" fill-rule="nonzero" fill-opacity="1" /><path clip-path="url(#clip180)" d="M934.734 1539.09 Q932.819 1541 933.739 1543.87 Q934.66 1546.7 938.441 1550.48 Q942.21 1554.25 945.058 1555.18 Q947.906 1556.09 949.821 1554.18 Q951.748 1552.25 950.828 1549.41 Q949.907 1546.55 946.138 1542.78 Q942.357 1539 939.509 1538.1 Q936.661 1537.16 934.734 1539.09 M932.77 1537.13 Q935.851 1534.04 939.914 1534.87 Q943.978 1535.66 948.618 1540.31 Q953.246 1544.93 954.056 1549.01 Q954.867 1553.06 951.785 1556.14 Q948.704 1559.22 944.641 1558.42 Q940.577 1557.6 935.949 1552.97 Q931.309 1548.33 930.498 1544.28 Q929.688 1540.21 932.77 1537.13 Z" fill="#000000" fill-rule="nonzero" fill-opacity="1" /><path clip-path="url(#clip180)" d="M959.004 1541.97 L961.594 1539.38 L964.712 1542.5 L962.122 1545.09 L959.004 1541.97 Z" fill="#000000" fill-rule="nonzero" fill-opacity="1" /><path clip-path="url(#clip180)" d="M951.81 1518.75 L961.545 1509.01 L963.632 1511.1 L956.168 1518.56 L960.661 1523.06 Q961.017 1522.33 961.471 1521.71 Q961.913 1521.07 962.453 1520.53 Q965.522 1517.46 968.996 1517.35 Q972.47 1517.24 975.343 1520.11 Q978.302 1523.07 978.105 1526.56 Q977.896 1530.03 974.545 1533.38 Q973.391 1534.54 971.992 1535.54 Q970.604 1536.54 968.935 1537.42 L966.443 1534.93 Q968.149 1534.42 969.622 1533.54 Q971.096 1532.66 972.409 1531.34 Q974.533 1529.22 974.656 1526.86 Q974.778 1524.51 972.863 1522.59 Q970.948 1520.68 968.591 1520.8 Q966.234 1520.92 964.11 1523.04 Q963.116 1524.04 962.343 1525.25 Q961.582 1526.46 961.017 1527.96 L951.81 1518.75 Z" fill="#000000" fill-rule="nonzero" fill-opacity="1" /><path clip-path="url(#clip180)" d="M982.709 1507.1 Q980.941 1508.87 980.867 1510.83 Q980.806 1512.78 982.463 1514.44 Q984.12 1516.1 986.072 1516.04 Q988.037 1515.96 989.804 1514.19 Q991.572 1512.43 991.646 1510.46 Q991.707 1508.49 990.062 1506.84 Q988.405 1505.18 986.441 1505.26 Q984.489 1505.32 982.709 1507.1 M979.173 1508.52 Q977.184 1509.73 975.196 1509.53 Q973.219 1509.32 971.648 1507.75 Q969.451 1505.55 969.733 1502.72 Q970.027 1499.87 972.753 1497.14 Q975.49 1494.4 978.326 1494.12 Q981.162 1493.84 983.359 1496.04 Q984.931 1497.61 985.127 1499.6 Q985.336 1501.57 984.145 1503.55 Q986.355 1502.18 988.564 1502.4 Q990.786 1502.61 992.542 1504.36 Q995.206 1507.02 994.997 1510.08 Q994.801 1513.13 991.768 1516.16 Q988.736 1519.19 985.68 1519.4 Q982.635 1519.6 979.971 1516.93 Q978.216 1515.18 978.007 1512.95 Q977.798 1510.73 979.173 1508.52 M974.349 1505.51 Q975.773 1506.94 977.455 1506.85 Q979.149 1506.75 980.757 1505.15 Q982.353 1503.55 982.451 1501.86 Q982.561 1500.15 981.137 1498.73 Q979.713 1497.3 978.007 1497.41 Q976.313 1497.51 974.717 1499.11 Q973.109 1500.71 973.011 1502.41 Q972.925 1504.09 974.349 1505.51 Z" fill="#000000" fill-rule="nonzero" fill-opacity="1" /><polyline clip-path="url(#clip180)" style="stroke:#000000; stroke-linecap:round; stroke-linejoin:round; stroke-width:4; stroke-opacity:1; fill:none" points="161.818,1467.41 161.818,897.552 "/>
<polyline clip-path="url(#clip180)" style="stroke:#000000; stroke-linecap:round; stroke-linejoin:round; stroke-width:4; stroke-opacity:1; fill:none" points="161.818,1451.28 180.716,1451.28 "/>
<polyline clip-path="url(#clip180)" style="stroke:#000000; stroke-linecap:round; stroke-linejoin:round; stroke-width:4; stroke-opacity:1; fill:none" points="161.818,1330.38 180.716,1330.38 "/>
<polyline clip-path="url(#clip180)" style="stroke:#000000; stroke-linecap:round; stroke-linejoin:round; stroke-width:4; stroke-opacity:1; fill:none" points="161.818,1209.48 180.716,1209.48 "/>
<polyline clip-path="url(#clip180)" style="stroke:#000000; stroke-linecap:round; stroke-linejoin:round; stroke-width:4; stroke-opacity:1; fill:none" points="161.818,1088.59 180.716,1088.59 "/>
<polyline clip-path="url(#clip180)" style="stroke:#000000; stroke-linecap:round; stroke-linejoin:round; stroke-width:4; stroke-opacity:1; fill:none" points="161.818,967.688 180.716,967.688 "/>
<path clip-path="url(#clip180)" d="M60.315 1440.63 Q57.6067 1440.63 56.2352 1443.3 Q54.881 1445.96 54.881 1451.3 Q54.881 1456.63 56.2352 1459.31 Q57.6067 1461.96 60.315 1461.96 Q63.0407 1461.96 64.3948 1459.31 Q65.7664 1456.63 65.7664 1451.3 Q65.7664 1445.96 64.3948 1443.3 Q63.0407 1440.63 60.315 1440.63 M60.315 1437.85 Q64.6726 1437.85 66.9643 1441.3 Q69.2733 1444.74 69.2733 1451.3 Q69.2733 1457.85 66.9643 1461.3 Q64.6726 1464.74 60.315 1464.74 Q55.9574 1464.74 53.6484 1461.3 Q51.3567 1457.85 51.3567 1451.3 Q51.3567 1444.74 53.6484 1441.3 Q55.9574 1437.85 60.315 1437.85 Z" fill="#000000" fill-rule="nonzero" fill-opacity="1" /><path clip-path="url(#clip180)" d="M75.4364 1459.83 L79.0996 1459.83 L79.0996 1464.24 L75.4364 1464.24 L75.4364 1459.83 Z" fill="#000000" fill-rule="nonzero" fill-opacity="1" /><path clip-path="url(#clip180)" d="M94.2384 1440.63 Q91.5301 1440.63 90.1586 1443.3 Q88.8044 1445.96 88.8044 1451.3 Q88.8044 1456.63 90.1586 1459.31 Q91.5301 1461.96 94.2384 1461.96 Q96.9641 1461.96 98.3183 1459.31 Q99.6898 1456.63 99.6898 1451.3 Q99.6898 1445.96 98.3183 1443.3 Q96.9641 1440.63 94.2384 1440.63 M94.2384 1437.85 Q98.596 1437.85 100.888 1441.3 Q103.197 1444.74 103.197 1451.3 Q103.197 1457.85 100.888 1461.3 Q98.596 1464.74 94.2384 1464.74 Q89.8808 1464.74 87.5718 1461.3 Q85.2801 1457.85 85.2801 1451.3 Q85.2801 1444.74 87.5718 1441.3 Q89.8808 1437.85 94.2384 1437.85 Z" fill="#000000" fill-rule="nonzero" fill-opacity="1" /><path clip-path="url(#clip180)" d="M116.86 1440.63 Q114.152 1440.63 112.78 1443.3 Q111.426 1445.96 111.426 1451.3 Q111.426 1456.63 112.78 1459.31 Q114.152 1461.96 116.86 1461.96 Q119.586 1461.96 120.94 1459.31 Q122.311 1456.63 122.311 1451.3 Q122.311 1445.96 120.94 1443.3 Q119.586 1440.63 116.86 1440.63 M116.86 1437.85 Q121.217 1437.85 123.509 1441.3 Q125.818 1444.74 125.818 1451.3 Q125.818 1457.85 123.509 1461.3 Q121.217 1464.74 116.86 1464.74 Q112.502 1464.74 110.193 1461.3 Q107.902 1457.85 107.902 1451.3 Q107.902 1444.74 110.193 1441.3 Q112.502 1437.85 116.86 1437.85 Z" fill="#000000" fill-rule="nonzero" fill-opacity="1" /><path clip-path="url(#clip180)" d="M61.2351 1319.73 Q58.5268 1319.73 57.1553 1322.4 Q55.8011 1325.06 55.8011 1330.41 Q55.8011 1335.74 57.1553 1338.41 Q58.5268 1341.07 61.2351 1341.07 Q63.9608 1341.07 65.315 1338.41 Q66.6865 1335.74 66.6865 1330.41 Q66.6865 1325.06 65.315 1322.4 Q63.9608 1319.73 61.2351 1319.73 M61.2351 1316.95 Q65.5927 1316.95 67.8844 1320.41 Q70.1934 1323.84 70.1934 1330.41 Q70.1934 1336.95 67.8844 1340.41 Q65.5927 1343.84 61.2351 1343.84 Q56.8775 1343.84 54.5685 1340.41 Q52.2768 1336.95 52.2768 1330.41 Q52.2768 1323.84 54.5685 1320.41 Q56.8775 1316.95 61.2351 1316.95 Z" fill="#000000" fill-rule="nonzero" fill-opacity="1" /><path clip-path="url(#clip180)" d="M76.3566 1338.93 L80.0197 1338.93 L80.0197 1343.34 L76.3566 1343.34 L76.3566 1338.93 Z" fill="#000000" fill-rule="nonzero" fill-opacity="1" /><path clip-path="url(#clip180)" d="M95.1586 1319.73 Q92.4502 1319.73 91.0787 1322.4 Q89.7246 1325.06 89.7246 1330.41 Q89.7246 1335.74 91.0787 1338.41 Q92.4502 1341.07 95.1586 1341.07 Q97.8842 1341.07 99.2384 1338.41 Q100.61 1335.74 100.61 1330.41 Q100.61 1325.06 99.2384 1322.4 Q97.8842 1319.73 95.1586 1319.73 M95.1586 1316.95 Q99.5162 1316.95 101.808 1320.41 Q104.117 1323.84 104.117 1330.41 Q104.117 1336.95 101.808 1340.41 Q99.5162 1343.84 95.1586 1343.84 Q90.8009 1343.84 88.4919 1340.41 Q86.2003 1336.95 86.2003 1330.41 Q86.2003 1323.84 88.4919 1320.41 Q90.8009 1316.95 95.1586 1316.95 Z" fill="#000000" fill-rule="nonzero" fill-opacity="1" /><path clip-path="url(#clip180)" d="M110.888 1340.39 L116.617 1340.39 L116.617 1320.62 L110.384 1321.87 L110.384 1318.67 L116.582 1317.42 L120.089 1317.42 L120.089 1340.39 L125.818 1340.39 L125.818 1343.34 L110.888 1343.34 L110.888 1340.39 Z" fill="#000000" fill-rule="nonzero" fill-opacity="1" /><path clip-path="url(#clip180)" d="M61.5129 1198.83 Q58.8046 1198.83 57.4331 1201.51 Q56.0789 1204.16 56.0789 1209.51 Q56.0789 1214.84 57.4331 1217.51 Q58.8046 1220.17 61.5129 1220.17 Q64.2386 1220.17 65.5927 1217.51 Q66.9643 1214.84 66.9643 1209.51 Q66.9643 1204.16 65.5927 1201.51 Q64.2386 1198.83 61.5129 1198.83 M61.5129 1196.05 Q65.8705 1196.05 68.1622 1199.51 Q70.4712 1202.95 70.4712 1209.51 Q70.4712 1216.05 68.1622 1219.51 Q65.8705 1222.95 61.5129 1222.95 Q57.1553 1222.95 54.8463 1219.51 Q52.5546 1216.05 52.5546 1209.51 Q52.5546 1202.95 54.8463 1199.51 Q57.1553 1196.05 61.5129 1196.05 Z" fill="#000000" fill-rule="nonzero" fill-opacity="1" /><path clip-path="url(#clip180)" d="M76.6343 1218.03 L80.2975 1218.03 L80.2975 1222.44 L76.6343 1222.44 L76.6343 1218.03 Z" fill="#000000" fill-rule="nonzero" fill-opacity="1" /><path clip-path="url(#clip180)" d="M95.4363 1198.83 Q92.728 1198.83 91.3565 1201.51 Q90.0023 1204.16 90.0023 1209.51 Q90.0023 1214.84 91.3565 1217.51 Q92.728 1220.17 95.4363 1220.17 Q98.162 1220.17 99.5162 1217.51 Q100.888 1214.84 100.888 1209.51 Q100.888 1204.16 99.5162 1201.51 Q98.162 1198.83 95.4363 1198.83 M95.4363 1196.05 Q99.7939 1196.05 102.086 1199.51 Q104.395 1202.95 104.395 1209.51 Q104.395 1216.05 102.086 1219.51 Q99.7939 1222.95 95.4363 1222.95 Q91.0787 1222.95 88.7697 1219.51 Q86.478 1216.05 86.478 1209.51 Q86.478 1202.95 88.7697 1199.51 Q91.0787 1196.05 95.4363 1196.05 Z" fill="#000000" fill-rule="nonzero" fill-opacity="1" /><path clip-path="url(#clip180)" d="M113.579 1219.49 L125.818 1219.49 L125.818 1222.44 L109.36 1222.44 L109.36 1219.49 Q111.356 1217.43 114.794 1213.95 Q118.249 1210.46 119.134 1209.46 Q120.818 1207.56 121.478 1206.26 Q122.155 1204.94 122.155 1203.68 Q122.155 1201.61 120.697 1200.31 Q119.256 1199.01 116.929 1199.01 Q115.28 1199.01 113.44 1199.58 Q111.617 1200.15 109.533 1201.31 L109.533 1197.77 Q111.652 1196.92 113.492 1196.49 Q115.332 1196.05 116.86 1196.05 Q120.888 1196.05 123.283 1198.07 Q125.679 1200.08 125.679 1203.45 Q125.679 1205.05 125.072 1206.49 Q124.481 1207.91 122.901 1209.86 Q122.467 1210.36 120.141 1212.77 Q117.815 1215.17 113.579 1219.49 Z" fill="#000000" fill-rule="nonzero" fill-opacity="1" /><path clip-path="url(#clip180)" d="M60.8011 1077.93 Q58.0928 1077.93 56.7213 1080.61 Q55.3671 1083.26 55.3671 1088.61 Q55.3671 1093.94 56.7213 1096.61 Q58.0928 1099.27 60.8011 1099.27 Q63.5268 1099.27 64.8809 1096.61 Q66.2525 1093.94 66.2525 1088.61 Q66.2525 1083.26 64.8809 1080.61 Q63.5268 1077.93 60.8011 1077.93 M60.8011 1075.16 Q65.1587 1075.16 67.4504 1078.61 Q69.7594 1082.05 69.7594 1088.61 Q69.7594 1095.16 67.4504 1098.61 Q65.1587 1102.05 60.8011 1102.05 Q56.4435 1102.05 54.1345 1098.61 Q51.8428 1095.16 51.8428 1088.61 Q51.8428 1082.05 54.1345 1078.61 Q56.4435 1075.16 60.8011 1075.16 Z" fill="#000000" fill-rule="nonzero" fill-opacity="1" /><path clip-path="url(#clip180)" d="M75.9225 1097.14 L79.5857 1097.14 L79.5857 1101.55 L75.9225 1101.55 L75.9225 1097.14 Z" fill="#000000" fill-rule="nonzero" fill-opacity="1" /><path clip-path="url(#clip180)" d="M94.7245 1077.93 Q92.0162 1077.93 90.6447 1080.61 Q89.2905 1083.26 89.2905 1088.61 Q89.2905 1093.94 90.6447 1096.61 Q92.0162 1099.27 94.7245 1099.27 Q97.4502 1099.27 98.8044 1096.61 Q100.176 1093.94 100.176 1088.61 Q100.176 1083.26 98.8044 1080.61 Q97.4502 1077.93 94.7245 1077.93 M94.7245 1075.16 Q99.0821 1075.16 101.374 1078.61 Q103.683 1082.05 103.683 1088.61 Q103.683 1095.16 101.374 1098.61 Q99.0821 1102.05 94.7245 1102.05 Q90.3669 1102.05 88.0579 1098.61 Q85.7662 1095.16 85.7662 1088.61 Q85.7662 1082.05 88.0579 1078.61 Q90.3669 1075.16 94.7245 1075.16 Z" fill="#000000" fill-rule="nonzero" fill-opacity="1" /><path clip-path="url(#clip180)" d="M120.471 1087.57 Q122.988 1088.11 124.395 1089.81 Q125.818 1091.51 125.818 1094.01 Q125.818 1097.85 123.179 1099.95 Q120.54 1102.05 115.679 1102.05 Q114.047 1102.05 112.311 1101.72 Q110.593 1101.41 108.752 1100.76 L108.752 1097.38 Q110.211 1098.23 111.947 1098.66 Q113.683 1099.1 115.575 1099.1 Q118.874 1099.1 120.592 1097.8 Q122.329 1096.49 122.329 1094.01 Q122.329 1091.72 120.714 1090.43 Q119.117 1089.13 116.252 1089.13 L113.231 1089.13 L113.231 1086.25 L116.391 1086.25 Q118.978 1086.25 120.349 1085.23 Q121.721 1084.18 121.721 1082.24 Q121.721 1080.24 120.297 1079.18 Q118.891 1078.11 116.252 1078.11 Q114.811 1078.11 113.162 1078.42 Q111.513 1078.73 109.533 1079.39 L109.533 1076.27 Q111.53 1075.71 113.266 1075.43 Q115.02 1075.16 116.565 1075.16 Q120.558 1075.16 122.884 1076.98 Q125.21 1078.79 125.21 1081.88 Q125.21 1084.03 123.978 1085.52 Q122.745 1087 120.471 1087.57 Z" fill="#000000" fill-rule="nonzero" fill-opacity="1" /><path clip-path="url(#clip180)" d="M59.9504 957.037 Q57.2421 957.037 55.8706 959.71 Q54.5164 962.367 54.5164 967.714 Q54.5164 973.044 55.8706 975.717 Q57.2421 978.373 59.9504 978.373 Q62.6761 978.373 64.0303 975.717 Q65.4018 973.044 65.4018 967.714 Q65.4018 962.367 64.0303 959.71 Q62.6761 957.037 59.9504 957.037 M59.9504 954.259 Q64.308 954.259 66.5997 957.714 Q68.9087 961.151 68.9087 967.714 Q68.9087 974.259 66.5997 977.714 Q64.308 981.151 59.9504 981.151 Q55.5928 981.151 53.2838 977.714 Q50.9921 974.259 50.9921 967.714 Q50.9921 961.151 53.2838 957.714 Q55.5928 954.259 59.9504 954.259 Z" fill="#000000" fill-rule="nonzero" fill-opacity="1" /><path clip-path="url(#clip180)" d="M75.0719 976.238 L78.735 976.238 L78.735 980.648 L75.0719 980.648 L75.0719 976.238 Z" fill="#000000" fill-rule="nonzero" fill-opacity="1" /><path clip-path="url(#clip180)" d="M93.8738 957.037 Q91.1655 957.037 89.794 959.71 Q88.4398 962.367 88.4398 967.714 Q88.4398 973.044 89.794 975.717 Q91.1655 978.373 93.8738 978.373 Q96.5995 978.373 97.9537 975.717 Q99.3252 973.044 99.3252 967.714 Q99.3252 962.367 97.9537 959.71 Q96.5995 957.037 93.8738 957.037 M93.8738 954.259 Q98.2315 954.259 100.523 957.714 Q102.832 961.151 102.832 967.714 Q102.832 974.259 100.523 977.714 Q98.2315 981.151 93.8738 981.151 Q89.5162 981.151 87.2072 977.714 Q84.9156 974.259 84.9156 967.714 Q84.9156 961.151 87.2072 957.714 Q89.5162 954.259 93.8738 954.259 Z" fill="#000000" fill-rule="nonzero" fill-opacity="1" /><path clip-path="url(#clip180)" d="M118.631 957.783 L109.777 971.62 L118.631 971.62 L118.631 957.783 M117.711 954.728 L122.12 954.728 L122.12 971.62 L125.818 971.62 L125.818 974.537 L122.12 974.537 L122.12 980.648 L118.631 980.648 L118.631 974.537 L106.929 974.537 L106.929 971.151 L117.711 954.728 Z" fill="#000000" fill-rule="nonzero" fill-opacity="1" /><path clip-path="url(#clip180)" d="M173.716 818.926 Q170.198 818.926 168.3 821.472 Q166.309 824.134 166.309 828.532 Q166.309 833.185 168.276 835.87 Q170.267 838.532 173.716 838.532 Q177.119 838.532 179.11 835.847 Q181.1 833.162 181.1 828.532 Q181.1 824.296 179.11 821.472 Q177.281 818.926 173.716 818.926 M173.716 815.546 L187.86 815.546 L187.86 819.805 L183.091 819.805 Q185.614 823.417 185.614 828.532 Q185.614 834.898 182.443 838.509 Q179.272 842.143 173.716 842.143 Q168.138 842.143 164.989 838.509 Q161.818 834.898 161.818 828.532 Q161.818 822.12 164.989 818.532 Q167.605 815.546 173.716 815.546 Z" fill="#000000" fill-rule="nonzero" fill-opacity="1" /><path clip-path="url(#clip180)" d="M198.878 841.472 L190.961 815.546 L195.545 815.546 L202.235 837.305 Q205.012 834.435 207.327 830.454 Q209.086 827.467 209.179 824.875 Q209.225 823.648 208.67 821.333 Q208.022 818.579 205.568 815.546 L209.873 815.546 L209.873 815.546 Q211.471 817.606 212.535 820.477 Q213.508 823.116 213.508 824.921 Q213.508 829.458 210.36 833.509 Q206.262 838.787 203.415 841.472 L198.878 841.472 Z" fill="#000000" fill-rule="nonzero" fill-opacity="1" /><polyline clip-path="url(#clip184)" style="stroke:#009af9; stroke-linecap:round; stroke-linejoin:round; stroke-width:4; stroke-opacity:1; fill:none" points="189.869,964.919 248.307,1022.91 306.746,1081.71 365.185,1141.3 423.623,1201.69 482.062,1262.89 540.501,1324.89 598.939,1387.68 657.378,1451.28 715.817,1386.88 774.256,1321.68 832.694,1255.68 891.133,1188.88 949.572,1121.28 1008.01,1052.88 1066.45,983.682 1124.89,913.68 "/>
<circle clip-path="url(#clip184)" cx="657.378" cy="1451.28" r="10.8" fill="#ff0000" fill-rule="evenodd" fill-opacity="1" stroke="#000000" stroke-opacity="1" stroke-width="3.2"/>
</svg>
