<?xml version="1.0" encoding="utf-8"?>
<svg xmlns="http://www.w3.org/2000/svg" xmlns:xlink="http://www.w3.org/1999/xlink" width="600" height="400" viewBox="0 0 2400 1600">
<defs>
  <clipPath id="clip070">
    <rect x="0" y="0" width="2400" height="1600"/>
  </clipPath>
</defs>
<path clip-path="url(#clip070)" d="M0 1600 L2400 1600 L2400 0 L0 0  Z" fill="#ffffff" fill-rule="evenodd" fill-opacity="1"/>
<defs>
  <clipPath id="clip071">
    <rect x="480" y="0" width="1681" height="1600"/>
  </clipPath>
</defs>
<path clip-path="url(#clip070)" d="M161.818 667.406 L1152.94 667.406 L1152.94 97.5521 L161.818 97.5521  Z" fill="#ffffff" fill-rule="evenodd" fill-opacity="1"/>
<defs>
  <clipPath id="clip072">
    <rect x="161" y="97" width="992" height="571"/>
  </clipPath>
</defs>
<polyline clip-path="url(#clip072)" style="stroke:#000000; stroke-linecap:round; stroke-linejoin:round; stroke-width:2; stroke-opacity:0.1; fill:none" points="192.091,667.406 192.091,97.5521 "/>
<polyline clip-path="url(#clip072)" style="stroke:#000000; stroke-linecap:round; stroke-linejoin:round; stroke-width:2; stroke-opacity:0.1; fill:none" points="455.204,667.406 455.204,97.5521 "/>
<polyline clip-path="url(#clip072)" style="stroke:#000000; stroke-linecap:round; stroke-linejoin:round; stroke-width:2; stroke-opacity:0.1; fill:none" points="718.317,667.406 718.317,97.5521 "/>
<polyline clip-path="url(#clip072)" style="stroke:#000000; stroke-linecap:round; stroke-linejoin:round; stroke-width:2; stroke-opacity:0.1; fill:none" points="981.43,667.406 981.43,97.5521 "/>
<polyline clip-path="url(#clip072)" style="stroke:#000000; stroke-linecap:round; stroke-linejoin:round; stroke-width:2; stroke-opacity:0.1; fill:none" points="161.818,651.278 1152.94,651.278 "/>
<polyline clip-path="url(#clip072)" style="stroke:#000000; stroke-linecap:round; stroke-linejoin:round; stroke-width:2; stroke-opacity:0.1; fill:none" points="161.818,511.029 1152.94,511.029 "/>
<polyline clip-path="url(#clip072)" style="stroke:#000000; stroke-linecap:round; stroke-linejoin:round; stroke-width:2; stroke-opacity:0.1; fill:none" points="161.818,370.78 1152.94,370.78 "/>
<polyline clip-path="url(#clip072)" style="stroke:#000000; stroke-linecap:round; stroke-linejoin:round; stroke-width:2; stroke-opacity:0.1; fill:none" points="161.818,230.531 1152.94,230.531 "/>
<polyline clip-path="url(#clip070)" style="stroke:#000000; stroke-linecap:round; stroke-linejoin:round; stroke-width:4; stroke-opacity:1; fill:none" points="161.818,667.406 1152.94,667.406 "/>
<polyline clip-path="url(#clip070)" style="stroke:#000000; stroke-linecap:round; stroke-linejoin:round; stroke-width:4; stroke-opacity:1; fill:none" points="192.091,667.406 192.091,648.509 "/>
<polyline clip-path="url(#clip070)" style="stroke:#000000; stroke-linecap:round; stroke-linejoin:round; stroke-width:4; stroke-opacity:1; fill:none" points="455.204,667.406 455.204,648.509 "/>
<polyline clip-path="url(#clip070)" style="stroke:#000000; stroke-linecap:round; stroke-linejoin:round; stroke-width:4; stroke-opacity:1; fill:none" points="718.317,667.406 718.317,648.509 "/>
<polyline clip-path="url(#clip070)" style="stroke:#000000; stroke-linecap:round; stroke-linejoin:round; stroke-width:4; stroke-opacity:1; fill:none" points="981.43,667.406 981.43,648.509 "/>
<path clip-path="url(#clip070)" d="M138.242 739.139 Q136.327 741.054 137.248 743.914 Q138.169 746.75 141.95 750.531 Q145.718 754.3 148.566 755.233 Q151.415 756.141 153.33 754.226 Q155.257 752.299 154.336 749.463 Q153.416 746.603 149.647 742.834 Q145.866 739.053 143.018 738.144 Q140.17 737.211 138.242 739.139 M136.278 737.175 Q139.359 734.093 143.423 734.916 Q147.486 735.714 152.127 740.354 Q156.755 744.982 157.565 749.058 Q158.375 753.109 155.294 756.19 Q152.212 759.272 148.149 758.474 Q144.086 757.651 139.458 753.023 Q134.817 748.383 134.007 744.332 Q133.197 740.256 136.278 737.175 Z" fill="#000000" fill-rule="nonzero" fill-opacity="1" /><path clip-path="url(#clip070)" d="M162.512 742.024 L165.102 739.433 L168.221 742.552 L165.63 745.142 L162.512 742.024 Z" fill="#000000" fill-rule="nonzero" fill-opacity="1" /><path clip-path="url(#clip070)" d="M170.222 723.143 Q168.454 724.911 168.38 726.875 Q168.319 728.827 169.976 730.484 Q171.633 732.141 173.585 732.08 Q175.549 732.006 177.317 730.239 Q179.085 728.471 179.159 726.507 Q179.22 724.53 177.575 722.885 Q175.918 721.228 173.953 721.302 Q172.002 721.363 170.222 723.143 M166.686 724.567 Q164.697 725.77 162.709 725.574 Q160.732 725.365 159.161 723.794 Q156.963 721.596 157.246 718.761 Q157.54 715.912 160.266 713.187 Q163.003 710.45 165.839 710.167 Q168.675 709.885 170.872 712.082 Q172.443 713.654 172.64 715.642 Q172.849 717.619 171.658 719.595 Q173.868 718.22 176.077 718.441 Q178.299 718.65 180.055 720.406 Q182.719 723.069 182.51 726.126 Q182.313 729.171 179.281 732.203 Q176.249 735.235 173.192 735.444 Q170.148 735.64 167.484 732.976 Q165.728 731.221 165.52 728.999 Q165.311 726.777 166.686 724.567 M161.862 721.559 Q163.286 722.983 164.967 722.898 Q166.661 722.799 168.27 721.191 Q169.866 719.595 169.964 717.901 Q170.074 716.195 168.65 714.771 Q167.226 713.347 165.52 713.457 Q163.826 713.555 162.23 715.151 Q160.622 716.76 160.523 718.454 Q160.437 720.135 161.862 721.559 Z" fill="#000000" fill-rule="nonzero" fill-opacity="1" /><path clip-path="url(#clip070)" d="M178.226 699.156 Q176.31 701.071 177.231 703.931 Q178.152 706.767 181.933 710.548 Q185.702 714.317 188.55 715.25 Q191.398 716.158 193.313 714.243 Q195.24 712.316 194.319 709.48 Q193.399 706.619 189.63 702.851 Q185.849 699.07 183.001 698.161 Q180.153 697.228 178.226 699.156 M176.261 697.191 Q179.343 694.11 183.406 694.933 Q187.469 695.731 192.11 700.371 Q196.738 704.999 197.548 709.075 Q198.358 713.126 195.277 716.207 Q192.196 719.288 188.132 718.49 Q184.069 717.668 179.441 713.04 Q174.801 708.399 173.99 704.348 Q173.18 700.273 176.261 697.191 Z" fill="#000000" fill-rule="nonzero" fill-opacity="1" /><path clip-path="url(#clip070)" d="M401.883 738.611 Q399.968 740.526 400.889 743.386 Q401.81 746.222 405.591 750.003 Q409.359 753.772 412.207 754.705 Q415.055 755.613 416.97 753.698 Q418.898 751.771 417.977 748.935 Q417.056 746.075 413.288 742.306 Q409.507 738.525 406.659 737.617 Q403.811 736.684 401.883 738.611 M399.919 736.647 Q403 733.565 407.064 734.388 Q411.127 735.186 415.767 739.826 Q420.396 744.454 421.206 748.53 Q422.016 752.581 418.935 755.662 Q415.853 758.744 411.79 757.946 Q407.727 757.123 403.099 752.495 Q398.458 747.855 397.648 743.804 Q396.838 739.728 399.919 736.647 Z" fill="#000000" fill-rule="nonzero" fill-opacity="1" /><path clip-path="url(#clip070)" d="M426.153 741.496 L428.743 738.906 L431.861 742.024 L429.271 744.614 L426.153 741.496 Z" fill="#000000" fill-rule="nonzero" fill-opacity="1" /><path clip-path="url(#clip070)" d="M433.862 722.615 Q432.095 724.383 432.021 726.347 Q431.96 728.299 433.617 729.956 Q435.274 731.614 437.226 731.552 Q439.19 731.479 440.958 729.711 Q442.726 727.943 442.799 725.979 Q442.861 724.002 441.216 722.357 Q439.559 720.7 437.594 720.774 Q435.642 720.835 433.862 722.615 M430.327 724.039 Q428.338 725.242 426.349 725.046 Q424.373 724.837 422.802 723.266 Q420.604 721.068 420.887 718.233 Q421.181 715.385 423.906 712.659 Q426.644 709.922 429.48 709.639 Q432.316 709.357 434.513 711.554 Q436.084 713.126 436.281 715.115 Q436.489 717.091 435.299 719.067 Q437.508 717.692 439.718 717.913 Q441.94 718.122 443.696 719.878 Q446.359 722.542 446.151 725.598 Q445.954 728.643 442.922 731.675 Q439.89 734.707 436.833 734.916 Q433.789 735.112 431.125 732.448 Q429.369 730.693 429.161 728.471 Q428.952 726.249 430.327 724.039 M425.502 721.032 Q426.926 722.456 428.608 722.37 Q430.302 722.271 431.91 720.663 Q433.506 719.067 433.605 717.373 Q433.715 715.667 432.291 714.243 Q430.867 712.819 429.161 712.929 Q427.467 713.028 425.871 714.623 Q424.262 716.232 424.164 717.926 Q424.078 719.608 425.502 721.032 Z" fill="#000000" fill-rule="nonzero" fill-opacity="1" /><path clip-path="url(#clip070)" d="M434.955 702.274 L444.69 692.539 L446.777 694.626 L439.313 702.09 L443.806 706.583 Q444.162 705.858 444.616 705.232 Q445.058 704.594 445.598 704.054 Q448.667 700.985 452.141 700.874 Q455.616 700.764 458.488 703.636 Q461.447 706.595 461.25 710.081 Q461.042 713.555 457.69 716.907 Q456.536 718.061 455.137 719.067 Q453.75 720.062 452.08 720.946 L449.588 718.454 Q451.294 717.95 452.768 717.066 Q454.241 716.183 455.554 714.869 Q457.678 712.745 457.801 710.388 Q457.924 708.031 456.008 706.116 Q454.093 704.201 451.736 704.324 Q449.379 704.447 447.256 706.57 Q446.261 707.565 445.488 708.78 Q444.727 709.983 444.162 711.481 L434.955 702.274 Z" fill="#000000" fill-rule="nonzero" fill-opacity="1" /><path clip-path="url(#clip070)" d="M664.468 739.139 Q662.553 741.054 663.474 743.914 Q664.395 746.75 668.176 750.531 Q671.944 754.3 674.792 755.233 Q677.641 756.141 679.556 754.226 Q681.483 752.299 680.562 749.463 Q679.642 746.603 675.873 742.834 Q672.092 739.053 669.244 738.144 Q666.396 737.211 664.468 739.139 M662.504 737.175 Q665.585 734.093 669.649 734.916 Q673.712 735.714 678.353 740.354 Q682.981 744.982 683.791 749.058 Q684.601 753.109 681.52 756.19 Q678.438 759.272 674.375 758.474 Q670.312 757.651 665.684 753.023 Q661.043 748.383 660.233 744.332 Q659.423 740.256 662.504 737.175 Z" fill="#000000" fill-rule="nonzero" fill-opacity="1" /><path clip-path="url(#clip070)" d="M688.738 742.024 L691.328 739.433 L694.447 742.552 L691.856 745.142 L688.738 742.024 Z" fill="#000000" fill-rule="nonzero" fill-opacity="1" /><path clip-path="url(#clip070)" d="M699.541 736.696 L697.282 734.437 Q698.657 733.946 699.848 733.222 Q701.039 732.497 701.959 731.577 Q704.415 729.122 704.059 726.188 Q703.703 723.229 700.523 719.681 Q700.867 721.449 700.339 723.106 Q699.811 724.764 698.485 726.089 Q695.736 728.839 692.47 728.79 Q689.205 728.716 686.32 725.832 Q683.496 723.008 683.459 719.632 Q683.423 716.256 686.197 713.482 Q689.376 710.302 693.489 711.076 Q697.601 711.825 702.242 716.465 Q706.575 720.798 707.103 725.451 Q707.631 730.079 704.157 733.553 Q703.224 734.486 702.082 735.26 Q700.941 736.033 699.541 736.696 M696.705 723.99 Q698.375 722.321 698.203 720.209 Q698.043 718.085 696.055 716.097 Q694.078 714.12 691.954 713.961 Q689.831 713.776 688.161 715.446 Q686.492 717.116 686.663 719.252 Q686.835 721.363 688.812 723.339 Q690.801 725.328 692.912 725.5 Q695.036 725.66 696.705 723.99 Z" fill="#000000" fill-rule="nonzero" fill-opacity="1" /><path clip-path="url(#clip070)" d="M704.452 699.156 Q702.536 701.071 703.457 703.931 Q704.378 706.767 708.159 710.548 Q711.928 714.317 714.776 715.25 Q717.624 716.158 719.539 714.243 Q721.466 712.316 720.545 709.48 Q719.625 706.619 715.856 702.851 Q712.075 699.07 709.227 698.161 Q706.379 697.228 704.452 699.156 M702.487 697.191 Q705.569 694.11 709.632 694.933 Q713.695 695.731 718.336 700.371 Q722.964 704.999 723.774 709.075 Q724.584 713.126 721.503 716.207 Q718.422 719.288 714.358 718.49 Q710.295 717.668 705.667 713.04 Q701.027 708.399 700.216 704.348 Q699.406 700.273 702.487 697.191 Z" fill="#000000" fill-rule="nonzero" fill-opacity="1" /><path clip-path="url(#clip070)" d="M928.109 738.611 Q926.194 740.526 927.115 743.386 Q928.036 746.222 931.817 750.003 Q935.585 753.772 938.433 754.705 Q941.281 755.613 943.196 753.698 Q945.124 751.771 944.203 748.935 Q943.282 746.075 939.514 742.306 Q935.733 738.525 932.885 737.617 Q930.037 736.684 928.109 738.611 M926.145 736.647 Q929.226 733.565 933.29 734.388 Q937.353 735.186 941.993 739.826 Q946.622 744.454 947.432 748.53 Q948.242 752.581 945.161 755.662 Q942.079 758.744 938.016 757.946 Q933.953 757.123 929.325 752.495 Q924.684 747.855 923.874 743.804 Q923.064 739.728 926.145 736.647 Z" fill="#000000" fill-rule="nonzero" fill-opacity="1" /><path clip-path="url(#clip070)" d="M952.379 741.496 L954.969 738.906 L958.087 742.024 L955.497 744.614 L952.379 741.496 Z" fill="#000000" fill-rule="nonzero" fill-opacity="1" /><path clip-path="url(#clip070)" d="M963.182 736.168 L960.923 733.909 Q962.298 733.418 963.489 732.694 Q964.68 731.97 965.6 731.049 Q968.056 728.594 967.7 725.66 Q967.344 722.701 964.164 719.153 Q964.508 720.921 963.98 722.578 Q963.452 724.236 962.126 725.561 Q959.376 728.311 956.111 728.262 Q952.845 728.189 949.961 725.304 Q947.137 722.48 947.1 719.104 Q947.063 715.728 949.838 712.954 Q953.017 709.774 957.13 710.548 Q961.242 711.297 965.883 715.937 Q970.216 720.27 970.744 724.923 Q971.272 729.551 967.798 733.025 Q966.865 733.958 965.723 734.732 Q964.581 735.505 963.182 736.168 M960.346 723.462 Q962.016 721.793 961.844 719.681 Q961.684 717.557 959.696 715.569 Q957.719 713.592 955.595 713.433 Q953.472 713.249 951.802 714.918 Q950.132 716.588 950.304 718.724 Q950.476 720.835 952.453 722.812 Q954.441 724.8 956.553 724.972 Q958.677 725.132 960.346 723.462 Z" fill="#000000" fill-rule="nonzero" fill-opacity="1" /><path clip-path="url(#clip070)" d="M961.181 702.274 L970.916 692.539 L973.003 694.626 L965.539 702.09 L970.032 706.583 Q970.388 705.858 970.842 705.232 Q971.284 704.594 971.824 704.054 Q974.893 700.985 978.367 700.874 Q981.842 700.764 984.714 703.636 Q987.673 706.595 987.476 710.081 Q987.268 713.555 983.916 716.907 Q982.762 718.061 981.363 719.067 Q979.976 720.062 978.306 720.946 L975.814 718.454 Q977.52 717.95 978.994 717.066 Q980.467 716.183 981.78 714.869 Q983.904 712.745 984.027 710.388 Q984.15 708.031 982.234 706.116 Q980.319 704.201 977.962 704.324 Q975.605 704.447 973.482 706.57 Q972.487 707.565 971.714 708.78 Q970.953 709.983 970.388 711.481 L961.181 702.274 Z" fill="#000000" fill-rule="nonzero" fill-opacity="1" /><polyline clip-path="url(#clip070)" style="stroke:#000000; stroke-linecap:round; stroke-linejoin:round; stroke-width:4; stroke-opacity:1; fill:none" points="161.818,667.406 161.818,97.5521 "/>
<polyline clip-path="url(#clip070)" style="stroke:#000000; stroke-linecap:round; stroke-linejoin:round; stroke-width:4; stroke-opacity:1; fill:none" points="161.818,651.278 180.716,651.278 "/>
<polyline clip-path="url(#clip070)" style="stroke:#000000; stroke-linecap:round; stroke-linejoin:round; stroke-width:4; stroke-opacity:1; fill:none" points="161.818,511.029 180.716,511.029 "/>
<polyline clip-path="url(#clip070)" style="stroke:#000000; stroke-linecap:round; stroke-linejoin:round; stroke-width:4; stroke-opacity:1; fill:none" points="161.818,370.78 180.716,370.78 "/>
<polyline clip-path="url(#clip070)" style="stroke:#000000; stroke-linecap:round; stroke-linejoin:round; stroke-width:4; stroke-opacity:1; fill:none" points="161.818,230.531 180.716,230.531 "/>
<path clip-path="url(#clip070)" d="M116.86 640.627 Q114.152 640.627 112.78 643.301 Q111.426 645.957 111.426 651.304 Q111.426 656.634 112.78 659.308 Q114.152 661.964 116.86 661.964 Q119.586 661.964 120.94 659.308 Q122.311 656.634 122.311 651.304 Q122.311 645.957 120.94 643.301 Q119.586 640.627 116.86 640.627 M116.86 637.85 Q121.217 637.85 123.509 641.305 Q125.818 644.742 125.818 651.304 Q125.818 657.85 123.509 661.304 Q121.217 664.742 116.86 664.742 Q112.502 664.742 110.193 661.304 Q107.902 657.85 107.902 651.304 Q107.902 644.742 110.193 641.305 Q112.502 637.85 116.86 637.85 Z" fill="#000000" fill-rule="nonzero" fill-opacity="1" /><path clip-path="url(#clip070)" d="M110.888 521.038 L116.617 521.038 L116.617 501.264 L110.384 502.514 L110.384 499.319 L116.582 498.069 L120.089 498.069 L120.089 521.038 L125.818 521.038 L125.818 523.989 L110.888 523.989 L110.888 521.038 Z" fill="#000000" fill-rule="nonzero" fill-opacity="1" /><path clip-path="url(#clip070)" d="M113.579 380.788 L125.818 380.788 L125.818 383.74 L109.36 383.74 L109.36 380.788 Q111.356 378.723 114.794 375.25 Q118.249 371.761 119.134 370.754 Q120.818 368.861 121.478 367.559 Q122.155 366.24 122.155 364.973 Q122.155 362.907 120.697 361.605 Q119.256 360.302 116.929 360.302 Q115.28 360.302 113.44 360.875 Q111.617 361.448 109.533 362.612 L109.533 359.07 Q111.652 358.219 113.492 357.785 Q115.332 357.351 116.86 357.351 Q120.888 357.351 123.283 359.365 Q125.679 361.379 125.679 364.747 Q125.679 366.344 125.072 367.785 Q124.481 369.209 122.901 371.153 Q122.467 371.657 120.141 374.07 Q117.815 376.466 113.579 380.788 Z" fill="#000000" fill-rule="nonzero" fill-opacity="1" /><path clip-path="url(#clip070)" d="M120.471 229.515 Q122.988 230.053 124.395 231.755 Q125.818 233.456 125.818 235.956 Q125.818 239.793 123.179 241.893 Q120.54 243.994 115.679 243.994 Q114.047 243.994 112.311 243.664 Q110.593 243.352 108.752 242.709 L108.752 239.324 Q110.211 240.175 111.947 240.609 Q113.683 241.043 115.575 241.043 Q118.874 241.043 120.592 239.741 Q122.329 238.439 122.329 235.956 Q122.329 233.664 120.714 232.38 Q119.117 231.077 116.252 231.077 L113.231 231.077 L113.231 228.196 L116.391 228.196 Q118.978 228.196 120.349 227.171 Q121.721 226.13 121.721 224.185 Q121.721 222.189 120.297 221.13 Q118.891 220.053 116.252 220.053 Q114.811 220.053 113.162 220.366 Q111.513 220.678 109.533 221.338 L109.533 218.213 Q111.53 217.657 113.266 217.38 Q115.02 217.102 116.565 217.102 Q120.558 217.102 122.884 218.925 Q125.21 220.73 125.21 223.821 Q125.21 225.973 123.978 227.466 Q122.745 228.942 120.471 229.515 Z" fill="#000000" fill-rule="nonzero" fill-opacity="1" /><path clip-path="url(#clip070)" d="M163.901 20.1758 Q165.313 17.8147 168.809 15.7314 Q170.175 14.9212 174.387 14.9212 Q179.11 14.9212 182.049 18.6712 Q185.012 22.4212 185.012 28.5323 Q185.012 34.6433 182.049 38.3933 Q179.11 42.1433 174.387 42.1433 Q171.54 42.1433 169.48 41.0322 Q167.443 39.8979 166.1 37.5831 L166.1 51.3331 L161.818 51.3331 L161.818 28.7637 Q161.818 23.4165 163.901 20.1758 M180.591 28.5323 Q180.591 23.8332 178.647 21.1712 Q176.725 18.486 173.346 18.486 Q169.966 18.486 168.022 21.1712 Q166.1 23.8332 166.1 28.5323 Q166.1 33.2313 168.022 35.9165 Q169.966 38.5785 173.346 38.5785 Q176.725 38.5785 178.647 35.9165 Q180.591 33.2313 180.591 28.5323 Z" fill="#000000" fill-rule="nonzero" fill-opacity="1" /><polyline clip-path="url(#clip072)" style="stroke:#009af9; stroke-linecap:round; stroke-linejoin:round; stroke-width:4; stroke-opacity:1; fill:none" points="189.869,590.166 248.307,594.663 306.746,599.723 365.185,605.457 423.623,612.009 482.062,619.567 540.501,628.381 598.939,638.793 657.378,651.278 715.817,636.033 774.256,616.998 832.694,592.565 891.133,560.058 949.572,514.677 1008.01,446.878 1066.45,334.605 1124.89,113.68 "/>
<circle clip-path="url(#clip072)" cx="657.378" cy="651.278" r="10.8" fill="#ff0000" fill-rule="evenodd" fill-opacity="1" stroke="#000000" stroke-opacity="1" stroke-width="3.2"/>
<path clip-path="url(#clip070)" d="M1361.64 667.406 L2352.76 667.406 L2352.76 97.5521 L1361.64 97.5521  Z" fill="#ffffff" fill-rule="evenodd" fill-opacity="1"/>
<defs>
  <clipPath id="clip073">
    <rect x="1361" y="97" width="992" height="571"/>
  </clipPath>
</defs>
<polyline clip-path="url(#clip073)" style="stroke:#000000; stroke-linecap:round; stroke-linejoin:round; stroke-width:2; stroke-opacity:0.1; fill:none" points="1476.94,667.406 1476.94,97.5521 "/>
<polyline clip-path="url(#clip073)" style="stroke:#000000; stroke-linecap:round; stroke-linejoin:round; stroke-width:2; stroke-opacity:0.1; fill:none" points="1620.1,667.406 1620.1,97.5521 "/>
<polyline clip-path="url(#clip073)" style="stroke:#000000; stroke-linecap:round; stroke-linejoin:round; stroke-width:2; stroke-opacity:0.1; fill:none" points="1763.26,667.406 1763.26,97.5521 "/>
<polyline clip-path="url(#clip073)" style="stroke:#000000; stroke-linecap:round; stroke-linejoin:round; stroke-width:2; stroke-opacity:0.1; fill:none" points="1906.42,667.406 1906.42,97.5521 "/>
<polyline clip-path="url(#clip073)" style="stroke:#000000; stroke-linecap:round; stroke-linejoin:round; stroke-width:2; stroke-opacity:0.1; fill:none" points="2049.58,667.406 2049.58,97.5521 "/>
<polyline clip-path="url(#clip073)" style="stroke:#000000; stroke-linecap:round; stroke-linejoin:round; stroke-width:2; stroke-opacity:0.1; fill:none" points="2192.75,667.406 2192.75,97.5521 "/>
<polyline clip-path="url(#clip073)" style="stroke:#000000; stroke-linecap:round; stroke-linejoin:round; stroke-width:2; stroke-opacity:0.1; fill:none" points="2335.91,667.406 2335.91,97.5521 "/>
<polyline clip-path="url(#clip073)" style="stroke:#000000; stroke-linecap:round; stroke-linejoin:round; stroke-width:2; stroke-opacity:0.1; fill:none" points="1361.64,651.278 2352.76,651.278 "/>
<polyline clip-path="url(#clip073)" style="stroke:#000000; stroke-linecap:round; stroke-linejoin:round; stroke-width:2; stroke-opacity:0.1; fill:none" points="1361.64,508.123 2352.76,508.123 "/>
<polyline clip-path="url(#clip073)" style="stroke:#000000; stroke-linecap:round; stroke-linejoin:round; stroke-width:2; stroke-opacity:0.1; fill:none" points="1361.64,364.967 2352.76,364.967 "/>
<polyline clip-path="url(#clip073)" style="stroke:#000000; stroke-linecap:round; stroke-linejoin:round; stroke-width:2; stroke-opacity:0.1; fill:none" points="1361.64,221.811 2352.76,221.811 "/>
<polyline clip-path="url(#clip070)" style="stroke:#000000; stroke-linecap:round; stroke-linejoin:round; stroke-width:4; stroke-opacity:1; fill:none" points="1361.64,667.406 2352.76,667.406 "/>
<polyline clip-path="url(#clip070)" style="stroke:#000000; stroke-linecap:round; stroke-linejoin:round; stroke-width:4; stroke-opacity:1; fill:none" points="1476.94,667.406 1476.94,648.509 "/>
<polyline clip-path="url(#clip070)" style="stroke:#000000; stroke-linecap:round; stroke-linejoin:round; stroke-width:4; stroke-opacity:1; fill:none" points="1620.1,667.406 1620.1,648.509 "/>
<polyline clip-path="url(#clip070)" style="stroke:#000000; stroke-linecap:round; stroke-linejoin:round; stroke-width:4; stroke-opacity:1; fill:none" points="1763.26,667.406 1763.26,648.509 "/>
<polyline clip-path="url(#clip070)" style="stroke:#000000; stroke-linecap:round; stroke-linejoin:round; stroke-width:4; stroke-opacity:1; fill:none" points="1906.42,667.406 1906.42,648.509 "/>
<polyline clip-path="url(#clip070)" style="stroke:#000000; stroke-linecap:round; stroke-linejoin:round; stroke-width:4; stroke-opacity:1; fill:none" points="2049.58,667.406 2049.58,648.509 "/>
<polyline clip-path="url(#clip070)" style="stroke:#000000; stroke-linecap:round; stroke-linejoin:round; stroke-width:4; stroke-opacity:1; fill:none" points="2192.75,667.406 2192.75,648.509 "/>
<polyline clip-path="url(#clip070)" style="stroke:#000000; stroke-linecap:round; stroke-linejoin:round; stroke-width:4; stroke-opacity:1; fill:none" points="2335.91,667.406 2335.91,648.509 "/>
<path clip-path="url(#clip070)" d="M1423.09 739.139 Q1421.18 741.054 1422.1 743.914 Q1423.02 746.75 1426.8 750.531 Q1430.57 754.3 1433.41 755.233 Q1436.26 756.141 1438.18 754.226 Q1440.11 752.299 1439.18 749.463 Q1438.26 746.603 1434.5 742.834 Q1430.71 739.053 1427.87 738.144 Q1425.02 737.211 1423.09 739.139 M1421.13 737.175 Q1424.21 734.093 1428.27 734.916 Q1432.33 735.714 1436.97 740.354 Q1441.6 744.982 1442.41 749.058 Q1443.22 753.109 1440.14 756.19 Q1437.06 759.272 1433 758.474 Q1428.93 757.651 1424.31 753.023 Q1419.67 748.383 1418.86 744.332 Q1418.05 740.256 1421.13 737.175 Z" fill="#000000" fill-rule="nonzero" fill-opacity="1" /><path clip-path="url(#clip070)" d="M1447.36 742.024 L1449.95 739.433 L1453.07 742.552 L1450.48 745.142 L1447.36 742.024 Z" fill="#000000" fill-rule="nonzero" fill-opacity="1" /><path clip-path="url(#clip070)" d="M1456.1 719.755 Q1458.26 718.355 1460.46 718.564 Q1462.67 718.761 1464.44 720.528 Q1467.15 723.241 1466.77 726.593 Q1466.39 729.944 1462.95 733.381 Q1461.8 734.535 1460.34 735.53 Q1458.9 736.524 1457.14 737.371 L1454.75 734.977 Q1456.38 734.548 1457.92 733.627 Q1459.45 732.706 1460.79 731.368 Q1463.12 729.036 1463.42 726.9 Q1463.72 724.751 1461.97 722.996 Q1460.35 721.375 1458.3 721.609 Q1456.25 721.817 1454.22 723.843 L1452.09 725.979 L1450.05 723.941 L1452.28 721.707 Q1454.11 719.878 1454.36 718.184 Q1454.59 716.477 1453.22 715.102 Q1451.8 713.69 1450.05 713.948 Q1448.29 714.182 1446.43 716.047 Q1445.41 717.066 1444.46 718.454 Q1443.52 719.841 1442.59 721.707 L1440.38 719.497 Q1441.39 717.692 1442.43 716.268 Q1443.47 714.832 1444.56 713.74 Q1447.38 710.916 1450.32 710.56 Q1453.24 710.192 1455.43 712.377 Q1456.95 713.899 1457.13 715.827 Q1457.3 717.742 1456.1 719.755 Z" fill="#000000" fill-rule="nonzero" fill-opacity="1" /><path clip-path="url(#clip070)" d="M1463.07 699.156 Q1461.16 701.071 1462.08 703.931 Q1463 706.767 1466.78 710.548 Q1470.55 714.317 1473.4 715.25 Q1476.25 716.158 1478.16 714.243 Q1480.09 712.316 1479.17 709.48 Q1478.25 706.619 1474.48 702.851 Q1470.7 699.07 1467.85 698.161 Q1465 697.228 1463.07 699.156 M1461.11 697.191 Q1464.19 694.11 1468.25 694.933 Q1472.32 695.731 1476.96 700.371 Q1481.59 704.999 1482.4 709.075 Q1483.21 713.126 1480.13 716.207 Q1477.04 719.288 1472.98 718.49 Q1468.92 717.668 1464.29 713.04 Q1459.65 708.399 1458.84 704.348 Q1458.03 700.273 1461.11 697.191 Z" fill="#000000" fill-rule="nonzero" fill-opacity="1" /><path clip-path="url(#clip070)" d="M1566.9 738.488 Q1564.99 740.403 1565.91 743.264 Q1566.83 746.099 1570.61 749.88 Q1574.38 753.649 1577.23 754.582 Q1580.07 755.491 1581.99 753.576 Q1583.92 751.648 1583 748.812 Q1582.08 745.952 1578.31 742.183 Q1574.53 738.402 1571.68 737.494 Q1568.83 736.561 1566.9 738.488 M1564.94 736.524 Q1568.02 733.443 1572.08 734.265 Q1576.15 735.063 1580.79 739.704 Q1585.41 744.332 1586.23 748.407 Q1587.04 752.458 1583.95 755.54 Q1580.87 758.621 1576.81 757.823 Q1572.75 757.001 1568.12 752.372 Q1563.48 747.732 1562.67 743.681 Q1561.86 739.605 1564.94 736.524 Z" fill="#000000" fill-rule="nonzero" fill-opacity="1" /><path clip-path="url(#clip070)" d="M1591.17 741.373 L1593.76 738.783 L1596.88 741.901 L1594.29 744.491 L1591.17 741.373 Z" fill="#000000" fill-rule="nonzero" fill-opacity="1" /><path clip-path="url(#clip070)" d="M1599.91 719.104 Q1602.07 717.705 1604.27 717.913 Q1606.48 718.11 1608.25 719.878 Q1610.96 722.591 1610.58 725.942 Q1610.2 729.293 1606.76 732.731 Q1605.61 733.885 1604.15 734.879 Q1602.71 735.873 1600.96 736.72 L1598.56 734.327 Q1600.2 733.897 1601.73 732.976 Q1603.26 732.056 1604.6 730.717 Q1606.93 728.385 1607.23 726.249 Q1607.54 724.101 1605.78 722.345 Q1604.16 720.725 1602.11 720.958 Q1600.06 721.167 1598.03 723.192 L1595.9 725.328 L1593.86 723.29 L1596.1 721.056 Q1597.92 719.227 1598.17 717.533 Q1598.4 715.827 1597.03 714.452 Q1595.62 713.04 1593.86 713.298 Q1592.11 713.531 1590.24 715.397 Q1589.22 716.416 1588.28 717.803 Q1587.33 719.19 1586.4 721.056 L1584.19 718.846 Q1585.21 717.042 1586.24 715.618 Q1587.28 714.182 1588.37 713.089 Q1591.2 710.265 1594.13 709.909 Q1597.05 709.541 1599.24 711.726 Q1600.76 713.249 1600.94 715.176 Q1601.12 717.091 1599.91 719.104 Z" fill="#000000" fill-rule="nonzero" fill-opacity="1" /><path clip-path="url(#clip070)" d="M1616.62 717.987 L1620.67 713.936 L1606.69 699.954 L1603.17 705.245 L1600.91 702.986 L1604.41 697.719 L1606.89 695.24 L1623.13 711.481 L1627.18 707.43 L1629.27 709.517 L1618.71 720.074 L1616.62 717.987 Z" fill="#000000" fill-rule="nonzero" fill-opacity="1" /><path clip-path="url(#clip070)" d="M1710.26 738.292 Q1708.35 740.207 1709.27 743.067 Q1710.19 745.903 1713.97 749.684 Q1717.74 753.453 1720.58 754.386 Q1723.43 755.294 1725.35 753.379 Q1727.27 751.452 1726.35 748.616 Q1725.43 745.756 1721.66 741.987 Q1717.88 738.206 1715.04 737.297 Q1712.19 736.364 1710.26 738.292 M1708.3 736.328 Q1711.38 733.246 1715.44 734.069 Q1719.5 734.867 1724.14 739.507 Q1728.77 744.135 1729.58 748.211 Q1730.39 752.262 1727.31 755.343 Q1724.23 758.425 1720.17 757.627 Q1716.1 756.804 1711.48 752.176 Q1706.84 747.536 1706.02 743.485 Q1705.21 739.409 1708.3 736.328 Z" fill="#000000" fill-rule="nonzero" fill-opacity="1" /><path clip-path="url(#clip070)" d="M1734.53 741.177 L1737.12 738.586 L1740.24 741.705 L1737.65 744.295 L1734.53 741.177 Z" fill="#000000" fill-rule="nonzero" fill-opacity="1" /><path clip-path="url(#clip070)" d="M1743.27 718.908 Q1745.43 717.508 1747.63 717.717 Q1749.84 717.913 1751.61 719.681 Q1754.32 722.394 1753.94 725.746 Q1753.56 729.097 1750.12 732.534 Q1748.97 733.688 1747.51 734.683 Q1746.07 735.677 1744.31 736.524 L1741.92 734.13 Q1743.55 733.701 1745.09 732.78 Q1746.62 731.859 1747.96 730.521 Q1750.29 728.189 1750.59 726.053 Q1750.89 723.904 1749.14 722.149 Q1747.52 720.528 1745.47 720.762 Q1743.42 720.97 1741.39 722.996 L1739.26 725.132 L1737.22 723.094 L1739.45 720.86 Q1741.28 719.031 1741.53 717.336 Q1741.76 715.63 1740.39 714.255 Q1738.97 712.843 1737.22 713.101 Q1735.46 713.334 1733.6 715.2 Q1732.58 716.219 1731.63 717.607 Q1730.69 718.994 1729.75 720.86 L1727.54 718.65 Q1728.56 716.845 1729.6 715.421 Q1730.64 713.985 1731.73 712.893 Q1734.55 710.069 1737.49 709.713 Q1740.41 709.345 1742.6 711.53 Q1744.12 713.052 1744.3 714.979 Q1744.47 716.895 1743.27 718.908 Z" fill="#000000" fill-rule="nonzero" fill-opacity="1" /><path clip-path="url(#clip070)" d="M1761.68 716.084 L1770.34 707.43 L1772.43 709.517 L1760.79 721.154 L1758.7 719.067 Q1758.65 716.195 1758.63 711.309 Q1758.6 706.398 1758.52 705.06 Q1758.37 702.532 1757.92 701.144 Q1757.46 699.733 1756.57 698.836 Q1755.1 697.376 1753.15 697.486 Q1751.21 697.584 1749.57 699.229 Q1748.4 700.395 1747.51 702.102 Q1746.62 703.796 1745.97 706.092 L1743.47 703.587 Q1744.36 701.488 1745.36 699.88 Q1746.35 698.272 1747.43 697.191 Q1750.28 694.343 1753.4 694.073 Q1756.52 693.803 1758.9 696.185 Q1760.03 697.314 1760.62 698.763 Q1761.21 700.187 1761.46 702.679 Q1761.51 703.342 1761.57 706.693 Q1761.62 710.032 1761.68 716.084 Z" fill="#000000" fill-rule="nonzero" fill-opacity="1" /><path clip-path="url(#clip070)" d="M1852.92 738.795 Q1851 740.71 1851.92 743.571 Q1852.84 746.406 1856.63 750.187 Q1860.39 753.956 1863.24 754.889 Q1866.09 755.797 1868.01 753.882 Q1869.93 751.955 1869.01 749.119 Q1868.09 746.259 1864.32 742.49 Q1860.54 738.709 1857.69 737.801 Q1854.85 736.868 1852.92 738.795 M1850.95 736.831 Q1854.04 733.75 1858.1 734.572 Q1862.16 735.37 1866.8 740.01 Q1871.43 744.639 1872.24 748.714 Q1873.05 752.765 1869.97 755.847 Q1866.89 758.928 1862.82 758.13 Q1858.76 757.307 1854.13 752.679 Q1849.49 748.039 1848.68 743.988 Q1847.87 739.912 1850.95 736.831 Z" fill="#000000" fill-rule="nonzero" fill-opacity="1" /><path clip-path="url(#clip070)" d="M1877.19 741.68 L1879.78 739.09 L1882.9 742.208 L1880.31 744.798 L1877.19 741.68 Z" fill="#000000" fill-rule="nonzero" fill-opacity="1" /><path clip-path="url(#clip070)" d="M1885.93 719.411 Q1888.09 718.012 1890.29 718.22 Q1892.5 718.417 1894.26 720.185 Q1896.98 722.898 1896.6 726.249 Q1896.22 729.6 1892.78 733.038 Q1891.62 734.192 1890.16 735.186 Q1888.73 736.18 1886.97 737.027 L1884.58 734.634 Q1886.21 734.204 1887.75 733.283 Q1889.28 732.362 1890.62 731.024 Q1892.95 728.692 1893.25 726.556 Q1893.55 724.408 1891.8 722.652 Q1890.18 721.032 1888.13 721.265 Q1886.08 721.474 1884.05 723.499 L1881.91 725.635 L1879.88 723.597 L1882.11 721.363 Q1883.94 719.534 1884.19 717.84 Q1884.42 716.133 1883.04 714.759 Q1881.63 713.347 1879.88 713.605 Q1878.12 713.838 1876.26 715.704 Q1875.24 716.723 1874.29 718.11 Q1873.35 719.497 1872.41 721.363 L1870.2 719.153 Q1871.22 717.349 1872.25 715.925 Q1873.3 714.488 1874.39 713.396 Q1877.21 710.572 1880.15 710.216 Q1883.07 709.848 1885.25 712.033 Q1886.78 713.555 1886.96 715.483 Q1887.13 717.398 1885.93 719.411 Z" fill="#000000" fill-rule="nonzero" fill-opacity="1" /><path clip-path="url(#clip070)" d="M1901.92 703.415 Q1904.08 702.016 1906.28 702.225 Q1908.49 702.421 1910.26 704.189 Q1912.97 706.902 1912.59 710.253 Q1912.21 713.605 1908.77 717.042 Q1907.62 718.196 1906.16 719.19 Q1904.72 720.185 1902.97 721.032 L1900.57 718.638 Q1902.21 718.208 1903.74 717.287 Q1905.28 716.367 1906.61 715.029 Q1908.95 712.696 1909.24 710.56 Q1909.55 708.412 1907.79 706.656 Q1906.17 705.036 1904.12 705.269 Q1902.07 705.478 1900.05 707.503 L1897.91 709.639 L1895.87 707.602 L1898.11 705.367 Q1899.94 703.538 1900.18 701.844 Q1900.41 700.138 1899.04 698.763 Q1897.63 697.351 1895.87 697.609 Q1894.12 697.842 1892.25 699.708 Q1891.23 700.727 1890.29 702.114 Q1889.34 703.501 1888.41 705.367 L1886.2 703.158 Q1887.22 701.353 1888.25 699.929 Q1889.29 698.493 1890.38 697.4 Q1893.21 694.577 1896.14 694.221 Q1899.06 693.852 1901.25 696.037 Q1902.77 697.56 1902.96 699.487 Q1903.13 701.402 1901.92 703.415 Z" fill="#000000" fill-rule="nonzero" fill-opacity="1" /><path clip-path="url(#clip070)" d="M1995.48 739.397 Q1993.56 741.312 1994.48 744.172 Q1995.4 747.008 1999.19 750.789 Q2002.95 754.558 2005.8 755.491 Q2008.65 756.399 2010.57 754.484 Q2012.49 752.557 2011.57 749.721 Q2010.65 746.86 2006.88 743.092 Q2003.1 739.311 2000.25 738.402 Q1997.41 737.469 1995.48 739.397 M1993.51 737.432 Q1996.6 734.351 2000.66 735.174 Q2004.72 735.972 2009.36 740.612 Q2013.99 745.24 2014.8 749.316 Q2015.61 753.367 2012.53 756.448 Q2009.45 759.529 2005.38 758.731 Q2001.32 757.909 1996.69 753.281 Q1992.05 748.641 1991.24 744.589 Q1990.43 740.514 1993.51 737.432 Z" fill="#000000" fill-rule="nonzero" fill-opacity="1" /><path clip-path="url(#clip070)" d="M2019.75 742.282 L2022.34 739.691 L2025.46 742.809 L2022.87 745.4 L2019.75 742.282 Z" fill="#000000" fill-rule="nonzero" fill-opacity="1" /><path clip-path="url(#clip070)" d="M2028.49 720.013 Q2030.65 718.613 2032.85 718.822 Q2035.06 719.018 2036.82 720.786 Q2039.54 723.499 2039.16 726.85 Q2038.78 730.202 2035.34 733.639 Q2034.18 734.793 2032.72 735.787 Q2031.29 736.782 2029.53 737.629 L2027.14 735.235 Q2028.77 734.805 2030.31 733.885 Q2031.84 732.964 2033.18 731.626 Q2035.51 729.293 2035.8 727.157 Q2036.11 725.009 2034.36 723.254 Q2032.74 721.633 2030.69 721.866 Q2028.64 722.075 2026.61 724.101 L2024.47 726.237 L2022.44 724.199 L2024.67 721.965 Q2026.5 720.135 2026.75 718.441 Q2026.98 716.735 2025.6 715.36 Q2024.19 713.948 2022.44 714.206 Q2020.68 714.439 2018.81 716.305 Q2017.8 717.324 2016.85 718.711 Q2015.91 720.099 2014.97 721.965 L2012.76 719.755 Q2013.78 717.95 2014.81 716.526 Q2015.86 715.09 2016.95 713.997 Q2019.77 711.174 2022.71 710.818 Q2025.63 710.45 2027.81 712.635 Q2029.34 714.157 2029.52 716.084 Q2029.69 717.999 2028.49 720.013 Z" fill="#000000" fill-rule="nonzero" fill-opacity="1" /><path clip-path="url(#clip070)" d="M2037.5 698.431 L2041.02 714.476 L2047.28 708.215 L2037.5 698.431 M2034.69 696.921 L2037.81 693.803 L2049.75 705.748 L2052.37 703.133 L2054.43 705.195 L2051.81 707.81 L2056.13 712.131 L2053.67 714.599 L2049.35 710.278 L2041.07 718.552 L2038.68 716.158 L2034.69 696.921 Z" fill="#000000" fill-rule="nonzero" fill-opacity="1" /><path clip-path="url(#clip070)" d="M2139.42 738.611 Q2137.51 740.526 2138.43 743.386 Q2139.35 746.222 2143.13 750.003 Q2146.9 753.772 2149.75 754.705 Q2152.6 755.613 2154.51 753.698 Q2156.44 751.771 2155.52 748.935 Q2154.6 746.075 2150.83 742.306 Q2147.05 738.525 2144.2 737.617 Q2141.35 736.684 2139.42 738.611 M2137.46 736.647 Q2140.54 733.565 2144.61 734.388 Q2148.67 735.186 2153.31 739.826 Q2157.94 744.454 2158.75 748.53 Q2159.56 752.581 2156.48 755.662 Q2153.4 758.744 2149.33 757.946 Q2145.27 757.123 2140.64 752.495 Q2136 747.855 2135.19 743.804 Q2134.38 739.728 2137.46 736.647 Z" fill="#000000" fill-rule="nonzero" fill-opacity="1" /><path clip-path="url(#clip070)" d="M2163.69 741.496 L2166.28 738.906 L2169.4 742.024 L2166.81 744.614 L2163.69 741.496 Z" fill="#000000" fill-rule="nonzero" fill-opacity="1" /><path clip-path="url(#clip070)" d="M2172.44 719.227 Q2174.6 717.828 2176.79 718.036 Q2179 718.233 2180.77 720 Q2183.48 722.713 2183.1 726.065 Q2182.72 729.416 2179.29 732.853 Q2178.13 734.007 2176.67 735.002 Q2175.23 735.996 2173.48 736.843 L2171.08 734.449 Q2172.72 734.02 2174.25 733.099 Q2175.79 732.178 2177.12 730.84 Q2179.46 728.508 2179.75 726.372 Q2180.06 724.223 2178.3 722.468 Q2176.68 720.847 2174.63 721.081 Q2172.58 721.289 2170.56 723.315 L2168.42 725.451 L2166.38 723.413 L2168.62 721.179 Q2170.45 719.35 2170.69 717.656 Q2170.93 715.949 2169.55 714.574 Q2168.14 713.163 2166.38 713.42 Q2164.63 713.654 2162.76 715.52 Q2161.74 716.539 2160.8 717.926 Q2159.85 719.313 2158.92 721.179 L2156.71 718.969 Q2157.73 717.165 2158.76 715.741 Q2159.8 714.304 2160.9 713.212 Q2163.72 710.388 2166.65 710.032 Q2169.57 709.664 2171.76 711.849 Q2173.28 713.371 2173.47 715.299 Q2173.64 717.214 2172.44 719.227 Z" fill="#000000" fill-rule="nonzero" fill-opacity="1" /><path clip-path="url(#clip070)" d="M2172.5 702.274 L2182.23 692.539 L2184.32 694.626 L2176.85 702.09 L2181.35 706.583 Q2181.7 705.858 2182.16 705.232 Q2182.6 704.594 2183.14 704.054 Q2186.21 700.985 2189.68 700.874 Q2193.16 700.764 2196.03 703.636 Q2198.99 706.595 2198.79 710.081 Q2198.58 713.555 2195.23 716.907 Q2194.08 718.061 2192.68 719.067 Q2191.29 720.062 2189.62 720.946 L2187.13 718.454 Q2188.84 717.95 2190.31 717.066 Q2191.78 716.183 2193.1 714.869 Q2195.22 712.745 2195.34 710.388 Q2195.47 708.031 2193.55 706.116 Q2191.64 704.201 2189.28 704.324 Q2186.92 704.447 2184.8 706.57 Q2183.8 707.565 2183.03 708.78 Q2182.27 709.983 2181.7 711.481 L2172.5 702.274 Z" fill="#000000" fill-rule="nonzero" fill-opacity="1" /><path clip-path="url(#clip070)" d="M2281.97 739.225 Q2280.06 741.14 2280.98 744 Q2281.9 746.836 2285.68 750.617 Q2289.45 754.386 2292.3 755.319 Q2295.14 756.227 2297.06 754.312 Q2298.99 752.385 2298.07 749.549 Q2297.15 746.689 2293.38 742.92 Q2289.6 739.139 2286.75 738.23 Q2283.9 737.297 2281.97 739.225 M2280.01 737.261 Q2283.09 734.179 2287.15 735.002 Q2291.22 735.8 2295.86 740.44 Q2300.48 745.068 2301.29 749.144 Q2302.11 753.195 2299.02 756.276 Q2295.94 759.358 2291.88 758.56 Q2287.82 757.737 2283.19 753.109 Q2278.55 748.469 2277.74 744.418 Q2276.93 740.342 2280.01 737.261 Z" fill="#000000" fill-rule="nonzero" fill-opacity="1" /><path clip-path="url(#clip070)" d="M2306.24 742.11 L2308.83 739.519 L2311.95 742.638 L2309.36 745.228 L2306.24 742.11 Z" fill="#000000" fill-rule="nonzero" fill-opacity="1" /><path clip-path="url(#clip070)" d="M2314.98 719.841 Q2317.14 718.441 2319.34 718.65 Q2321.55 718.846 2323.32 720.614 Q2326.03 723.327 2325.65 726.679 Q2325.27 730.03 2321.83 733.467 Q2320.68 734.621 2319.22 735.616 Q2317.78 736.61 2316.03 737.457 L2313.63 735.063 Q2315.27 734.634 2316.8 733.713 Q2318.33 732.792 2319.67 731.454 Q2322 729.122 2322.3 726.985 Q2322.61 724.837 2320.85 723.082 Q2319.23 721.461 2317.18 721.695 Q2315.13 721.903 2313.1 723.929 L2310.97 726.065 L2308.93 724.027 L2311.16 721.793 Q2312.99 719.964 2313.24 718.269 Q2313.47 716.563 2312.1 715.188 Q2310.69 713.776 2308.93 714.034 Q2307.18 714.267 2305.31 716.133 Q2304.29 717.152 2303.35 718.54 Q2302.4 719.927 2301.47 721.793 L2299.26 719.583 Q2300.28 717.778 2301.31 716.354 Q2302.35 714.918 2303.44 713.826 Q2306.27 711.002 2309.2 710.646 Q2312.12 710.278 2314.31 712.463 Q2315.83 713.985 2316.01 715.912 Q2316.19 717.828 2314.98 719.841 Z" fill="#000000" fill-rule="nonzero" fill-opacity="1" /><path clip-path="url(#clip070)" d="M2328.81 705.478 Q2327.14 707.147 2327.3 709.271 Q2327.47 711.383 2329.46 713.371 Q2331.43 715.348 2333.56 715.532 Q2335.68 715.691 2337.35 714.022 Q2339.02 712.352 2338.85 710.241 Q2338.68 708.105 2336.7 706.128 Q2334.71 704.14 2332.59 703.98 Q2330.48 703.808 2328.81 705.478 M2325.96 692.784 L2328.22 695.043 Q2326.84 695.534 2325.65 696.258 Q2324.47 696.97 2323.54 697.903 Q2321.08 700.359 2321.44 703.317 Q2321.81 706.263 2324.98 709.799 Q2324.63 708.007 2325.16 706.349 Q2325.68 704.68 2326.99 703.366 Q2329.75 700.604 2333.03 700.69 Q2336.31 700.751 2339.19 703.636 Q2342.01 706.46 2342.05 709.836 Q2342.09 713.212 2339.31 715.986 Q2336.13 719.166 2332.02 718.417 Q2327.9 717.656 2323.27 713.028 Q2318.92 708.682 2318.41 704.041 Q2317.88 699.389 2321.35 695.915 Q2322.29 694.982 2323.42 694.221 Q2324.56 693.447 2325.96 692.784 Z" fill="#000000" fill-rule="nonzero" fill-opacity="1" /><polyline clip-path="url(#clip070)" style="stroke:#000000; stroke-linecap:round; stroke-linejoin:round; stroke-width:4; stroke-opacity:1; fill:none" points="1361.64,667.406 1361.64,97.5521 "/>
<polyline clip-path="url(#clip070)" style="stroke:#000000; stroke-linecap:round; stroke-linejoin:round; stroke-width:4; stroke-opacity:1; fill:none" points="1361.64,651.278 1380.53,651.278 "/>
<polyline clip-path="url(#clip070)" style="stroke:#000000; stroke-linecap:round; stroke-linejoin:round; stroke-width:4; stroke-opacity:1; fill:none" points="1361.64,508.123 1380.53,508.123 "/>
<polyline clip-path="url(#clip070)" style="stroke:#000000; stroke-linecap:round; stroke-linejoin:round; stroke-width:4; stroke-opacity:1; fill:none" points="1361.64,364.967 1380.53,364.967 "/>
<polyline clip-path="url(#clip070)" style="stroke:#000000; stroke-linecap:round; stroke-linejoin:round; stroke-width:4; stroke-opacity:1; fill:none" points="1361.64,221.811 1380.53,221.811 "/>
<path clip-path="url(#clip070)" d="M1260.13 640.627 Q1257.42 640.627 1256.05 643.301 Q1254.7 645.957 1254.7 651.304 Q1254.7 656.634 1256.05 659.308 Q1257.42 661.964 1260.13 661.964 Q1262.86 661.964 1264.21 659.308 Q1265.58 656.634 1265.58 651.304 Q1265.58 645.957 1264.21 643.301 Q1262.86 640.627 1260.13 640.627 M1260.13 637.85 Q1264.49 637.85 1266.78 641.305 Q1269.09 644.742 1269.09 651.304 Q1269.09 657.85 1266.78 661.304 Q1264.49 664.742 1260.13 664.742 Q1255.78 664.742 1253.47 661.304 Q1251.17 657.85 1251.17 651.304 Q1251.17 644.742 1253.47 641.305 Q1255.78 637.85 1260.13 637.85 Z" fill="#000000" fill-rule="nonzero" fill-opacity="1" /><path clip-path="url(#clip070)" d="M1275.25 659.829 L1278.92 659.829 L1278.92 664.238 L1275.25 664.238 L1275.25 659.829 Z" fill="#000000" fill-rule="nonzero" fill-opacity="1" /><path clip-path="url(#clip070)" d="M1294.06 640.627 Q1291.35 640.627 1289.98 643.301 Q1288.62 645.957 1288.62 651.304 Q1288.62 656.634 1289.98 659.308 Q1291.35 661.964 1294.06 661.964 Q1296.78 661.964 1298.14 659.308 Q1299.51 656.634 1299.51 651.304 Q1299.51 645.957 1298.14 643.301 Q1296.78 640.627 1294.06 640.627 M1294.06 637.85 Q1298.41 637.85 1300.71 641.305 Q1303.01 644.742 1303.01 651.304 Q1303.01 657.85 1300.71 661.304 Q1298.41 664.742 1294.06 664.742 Q1289.7 664.742 1287.39 661.304 Q1285.1 657.85 1285.1 651.304 Q1285.1 644.742 1287.39 641.305 Q1289.7 637.85 1294.06 637.85 Z" fill="#000000" fill-rule="nonzero" fill-opacity="1" /><path clip-path="url(#clip070)" d="M1316.68 640.627 Q1313.97 640.627 1312.6 643.301 Q1311.24 645.957 1311.24 651.304 Q1311.24 656.634 1312.6 659.308 Q1313.97 661.964 1316.68 661.964 Q1319.4 661.964 1320.76 659.308 Q1322.13 656.634 1322.13 651.304 Q1322.13 645.957 1320.76 643.301 Q1319.4 640.627 1316.68 640.627 M1316.68 637.85 Q1321.04 637.85 1323.33 641.305 Q1325.64 644.742 1325.64 651.304 Q1325.64 657.85 1323.33 661.304 Q1321.04 664.742 1316.68 664.742 Q1312.32 664.742 1310.01 661.304 Q1307.72 657.85 1307.72 651.304 Q1307.72 644.742 1310.01 641.305 Q1312.32 637.85 1316.68 637.85 Z" fill="#000000" fill-rule="nonzero" fill-opacity="1" /><path clip-path="url(#clip070)" d="M1260.88 497.472 Q1258.17 497.472 1256.8 500.145 Q1255.45 502.801 1255.45 508.149 Q1255.45 513.478 1256.8 516.152 Q1258.17 518.808 1260.88 518.808 Q1263.6 518.808 1264.96 516.152 Q1266.33 513.478 1266.33 508.149 Q1266.33 502.801 1264.96 500.145 Q1263.6 497.472 1260.88 497.472 M1260.88 494.694 Q1265.24 494.694 1267.53 498.149 Q1269.84 501.586 1269.84 508.149 Q1269.84 514.694 1267.53 518.148 Q1265.24 521.586 1260.88 521.586 Q1256.52 521.586 1254.21 518.148 Q1251.92 514.694 1251.92 508.149 Q1251.92 501.586 1254.21 498.149 Q1256.52 494.694 1260.88 494.694 Z" fill="#000000" fill-rule="nonzero" fill-opacity="1" /><path clip-path="url(#clip070)" d="M1276 516.673 L1279.66 516.673 L1279.66 521.083 L1276 521.083 L1276 516.673 Z" fill="#000000" fill-rule="nonzero" fill-opacity="1" /><path clip-path="url(#clip070)" d="M1294.8 497.472 Q1292.09 497.472 1290.72 500.145 Q1289.37 502.801 1289.37 508.149 Q1289.37 513.478 1290.72 516.152 Q1292.09 518.808 1294.8 518.808 Q1297.53 518.808 1298.88 516.152 Q1300.25 513.478 1300.25 508.149 Q1300.25 502.801 1298.88 500.145 Q1297.53 497.472 1294.8 497.472 M1294.8 494.694 Q1299.16 494.694 1301.45 498.149 Q1303.76 501.586 1303.76 508.149 Q1303.76 514.694 1301.45 518.148 Q1299.16 521.586 1294.8 521.586 Q1290.45 521.586 1288.14 518.148 Q1285.84 514.694 1285.84 508.149 Q1285.84 501.586 1288.14 498.149 Q1290.45 494.694 1294.8 494.694 Z" fill="#000000" fill-rule="nonzero" fill-opacity="1" /><path clip-path="url(#clip070)" d="M1309.96 495.163 L1323.73 495.163 L1323.73 498.114 L1313.17 498.114 L1313.17 504.468 Q1313.93 504.208 1314.7 504.086 Q1315.46 503.947 1316.23 503.947 Q1320.57 503.947 1323.1 506.326 Q1325.64 508.704 1325.64 512.767 Q1325.64 516.951 1323.03 519.277 Q1320.43 521.586 1315.69 521.586 Q1314.06 521.586 1312.35 521.308 Q1310.67 521.03 1308.87 520.475 L1308.87 516.951 Q1310.43 517.801 1312.09 518.218 Q1313.76 518.635 1315.62 518.635 Q1318.62 518.635 1320.38 517.055 Q1322.13 515.475 1322.13 512.767 Q1322.13 510.058 1320.38 508.478 Q1318.62 506.899 1315.62 506.899 Q1314.21 506.899 1312.81 507.211 Q1311.42 507.524 1309.96 508.183 L1309.96 495.163 Z" fill="#000000" fill-rule="nonzero" fill-opacity="1" /><path clip-path="url(#clip070)" d="M1260.13 354.316 Q1257.42 354.316 1256.05 356.989 Q1254.7 359.645 1254.7 364.993 Q1254.7 370.322 1256.05 372.996 Q1257.42 375.652 1260.13 375.652 Q1262.86 375.652 1264.21 372.996 Q1265.58 370.322 1265.58 364.993 Q1265.58 359.645 1264.21 356.989 Q1262.86 354.316 1260.13 354.316 M1260.13 351.538 Q1264.49 351.538 1266.78 354.993 Q1269.09 358.43 1269.09 364.993 Q1269.09 371.538 1266.78 374.993 Q1264.49 378.43 1260.13 378.43 Q1255.78 378.43 1253.47 374.993 Q1251.17 371.538 1251.17 364.993 Q1251.17 358.43 1253.47 354.993 Q1255.78 351.538 1260.13 351.538 Z" fill="#000000" fill-rule="nonzero" fill-opacity="1" /><path clip-path="url(#clip070)" d="M1275.25 373.517 L1278.92 373.517 L1278.92 377.927 L1275.25 377.927 L1275.25 373.517 Z" fill="#000000" fill-rule="nonzero" fill-opacity="1" /><path clip-path="url(#clip070)" d="M1287.16 374.975 L1292.89 374.975 L1292.89 355.201 L1286.66 356.451 L1286.66 353.257 L1292.86 352.007 L1296.37 352.007 L1296.37 374.975 L1302.09 374.975 L1302.09 377.927 L1287.16 377.927 L1287.16 374.975 Z" fill="#000000" fill-rule="nonzero" fill-opacity="1" /><path clip-path="url(#clip070)" d="M1316.68 354.316 Q1313.97 354.316 1312.6 356.989 Q1311.24 359.645 1311.24 364.993 Q1311.24 370.322 1312.6 372.996 Q1313.97 375.652 1316.68 375.652 Q1319.4 375.652 1320.76 372.996 Q1322.13 370.322 1322.13 364.993 Q1322.13 359.645 1320.76 356.989 Q1319.4 354.316 1316.68 354.316 M1316.68 351.538 Q1321.04 351.538 1323.33 354.993 Q1325.64 358.43 1325.64 364.993 Q1325.64 371.538 1323.33 374.993 Q1321.04 378.43 1316.68 378.43 Q1312.32 378.43 1310.01 374.993 Q1307.72 371.538 1307.72 364.993 Q1307.72 358.43 1310.01 354.993 Q1312.32 351.538 1316.68 351.538 Z" fill="#000000" fill-rule="nonzero" fill-opacity="1" /><path clip-path="url(#clip070)" d="M1260.88 211.16 Q1258.17 211.16 1256.8 213.833 Q1255.45 216.489 1255.45 221.837 Q1255.45 227.167 1256.8 229.84 Q1258.17 232.496 1260.88 232.496 Q1263.6 232.496 1264.96 229.84 Q1266.33 227.167 1266.33 221.837 Q1266.33 216.489 1264.96 213.833 Q1263.6 211.16 1260.88 211.16 M1260.88 208.382 Q1265.24 208.382 1267.53 211.837 Q1269.84 215.274 1269.84 221.837 Q1269.84 228.382 1267.53 231.837 Q1265.24 235.274 1260.88 235.274 Q1256.52 235.274 1254.21 231.837 Q1251.92 228.382 1251.92 221.837 Q1251.92 215.274 1254.21 211.837 Q1256.52 208.382 1260.88 208.382 Z" fill="#000000" fill-rule="nonzero" fill-opacity="1" /><path clip-path="url(#clip070)" d="M1276 230.361 L1279.66 230.361 L1279.66 234.771 L1276 234.771 L1276 230.361 Z" fill="#000000" fill-rule="nonzero" fill-opacity="1" /><path clip-path="url(#clip070)" d="M1287.91 231.819 L1293.64 231.819 L1293.64 212.045 L1287.41 213.295 L1287.41 210.101 L1293.6 208.851 L1297.11 208.851 L1297.11 231.819 L1302.84 231.819 L1302.84 234.771 L1287.91 234.771 L1287.91 231.819 Z" fill="#000000" fill-rule="nonzero" fill-opacity="1" /><path clip-path="url(#clip070)" d="M1309.96 208.851 L1323.73 208.851 L1323.73 211.802 L1313.17 211.802 L1313.17 218.156 Q1313.93 217.896 1314.7 217.774 Q1315.46 217.635 1316.23 217.635 Q1320.57 217.635 1323.1 220.014 Q1325.64 222.392 1325.64 226.455 Q1325.64 230.639 1323.03 232.965 Q1320.43 235.274 1315.69 235.274 Q1314.06 235.274 1312.35 234.996 Q1310.67 234.719 1308.87 234.163 L1308.87 230.639 Q1310.43 231.489 1312.09 231.906 Q1313.76 232.323 1315.62 232.323 Q1318.62 232.323 1320.38 230.743 Q1322.13 229.163 1322.13 226.455 Q1322.13 223.746 1320.38 222.167 Q1318.62 220.587 1315.62 220.587 Q1314.21 220.587 1312.81 220.899 Q1311.42 221.212 1309.96 221.871 L1309.96 208.851 Z" fill="#000000" fill-rule="nonzero" fill-opacity="1" /><path clip-path="url(#clip070)" d="M1373.53 18.9258 Q1370.02 18.9258 1368.12 21.4721 Q1366.13 24.1341 1366.13 28.5323 Q1366.13 33.185 1368.09 35.8702 Q1370.08 38.5322 1373.53 38.5322 Q1376.94 38.5322 1378.93 35.847 Q1380.92 33.1619 1380.92 28.5323 Q1380.92 24.2962 1378.93 21.4721 Q1377.1 18.9258 1373.53 18.9258 M1373.53 15.5462 L1387.68 15.5462 L1387.68 19.8054 L1382.91 19.8054 Q1385.43 23.4165 1385.43 28.5323 Q1385.43 34.898 1382.26 38.5091 Q1379.09 42.1433 1373.53 42.1433 Q1367.96 42.1433 1364.81 38.5091 Q1361.64 34.898 1361.64 28.5323 Q1361.64 22.1203 1364.81 18.5323 Q1367.42 15.5462 1373.53 15.5462 Z" fill="#000000" fill-rule="nonzero" fill-opacity="1" /><path clip-path="url(#clip070)" d="M1411.84 19.6666 Q1410.99 19.3656 1410.13 19.1342 Q1407.84 18.5323 1405.39 18.5323 Q1401.15 18.5323 1398.79 20.824 Q1396.59 22.9536 1396.17 26.8656 L1411.84 26.8656 L1411.84 30.1989 L1396.17 30.1989 Q1396.59 34.1109 1398.79 36.2405 Q1401.15 38.5322 1405.39 38.5322 Q1408.35 38.5322 1410.13 37.9304 L1411.84 37.3517 L1411.84 41.2174 L1410.02 41.634 Q1407.61 42.1433 1405.13 42.1433 Q1398.93 42.1433 1395.32 38.5322 Q1391.68 34.9211 1391.68 28.5323 Q1391.68 22.1434 1395.32 18.5323 Q1398.93 14.9212 1405.13 14.9212 Q1407.47 14.9212 1410.02 15.4305 Q1410.94 15.6157 1411.84 15.8934 L1411.84 19.6666 Z" fill="#000000" fill-rule="nonzero" fill-opacity="1" /><polyline clip-path="url(#clip073)" style="stroke:#009af9; stroke-linecap:round; stroke-linejoin:round; stroke-width:4; stroke-opacity:1; fill:none" points="1389.69,164.894 1448.13,222.891 1506.56,281.689 1565,341.287 1623.44,401.685 1681.88,462.883 1740.32,524.881 1798.76,587.68 1857.2,651.278 1915.63,586.879 1974.07,521.68 2032.51,455.681 2090.95,388.881 2149.39,321.281 2207.83,252.881 2266.27,183.681 2324.71,113.68 "/>
<circle clip-path="url(#clip073)" cx="1857.2" cy="651.278" r="10.8" fill="#ff0000" fill-rule="evenodd" fill-opacity="1" stroke="#000000" stroke-opacity="1" stroke-width="3.2"/>
<path clip-path="url(#clip070)" d="M161.818 1467.41 L1152.94 1467.41 L1152.94 897.552 L161.818 897.552  Z" fill="#ffffff" fill-rule="evenodd" fill-opacity="1"/>
<defs>
  <clipPath id="clip074">
    <rect x="161" y="897" width="992" height="571"/>
  </clipPath>
</defs>
<polyline clip-path="url(#clip074)" style="stroke:#000000; stroke-linecap:round; stroke-linejoin:round; stroke-width:2; stroke-opacity:0.1; fill:none" points="294.013,1467.41 294.013,897.552 "/>
<polyline clip-path="url(#clip074)" style="stroke:#000000; stroke-linecap:round; stroke-linejoin:round; stroke-width:2; stroke-opacity:0.1; fill:none" points="466.482,1467.41 466.482,897.552 "/>
<polyline clip-path="url(#clip074)" style="stroke:#000000; stroke-linecap:round; stroke-linejoin:round; stroke-width:2; stroke-opacity:0.1; fill:none" points="638.951,1467.41 638.951,897.552 "/>
<polyline clip-path="url(#clip074)" style="stroke:#000000; stroke-linecap:round; stroke-linejoin:round; stroke-width:2; stroke-opacity:0.1; fill:none" points="811.421,1467.41 811.421,897.552 "/>
<polyline clip-path="url(#clip074)" style="stroke:#000000; stroke-linecap:round; stroke-linejoin:round; stroke-width:2; stroke-opacity:0.1; fill:none" points="983.89,1467.41 983.89,897.552 "/>
<polyline clip-path="url(#clip074)" style="stroke:#000000; stroke-linecap:round; stroke-linejoin:round; stroke-width:2; stroke-opacity:0.1; fill:none" points="161.818,1451.28 1152.94,1451.28 "/>
<polyline clip-path="url(#clip074)" style="stroke:#000000; stroke-linecap:round; stroke-linejoin:round; stroke-width:2; stroke-opacity:0.1; fill:none" points="161.818,1330.38 1152.94,1330.38 "/>
<polyline clip-path="url(#clip074)" style="stroke:#000000; stroke-linecap:round; stroke-linejoin:round; stroke-width:2; stroke-opacity:0.1; fill:none" points="161.818,1209.49 1152.94,1209.49 "/>
<polyline clip-path="url(#clip074)" style="stroke:#000000; stroke-linecap:round; stroke-linejoin:round; stroke-width:2; stroke-opacity:0.1; fill:none" points="161.818,1088.6 1152.94,1088.6 "/>
<polyline clip-path="url(#clip074)" style="stroke:#000000; stroke-linecap:round; stroke-linejoin:round; stroke-width:2; stroke-opacity:0.1; fill:none" points="161.818,967.704 1152.94,967.704 "/>
<polyline clip-path="url(#clip070)" style="stroke:#000000; stroke-linecap:round; stroke-linejoin:round; stroke-width:4; stroke-opacity:1; fill:none" points="161.818,1467.41 1152.94,1467.41 "/>
<polyline clip-path="url(#clip070)" style="stroke:#000000; stroke-linecap:round; stroke-linejoin:round; stroke-width:4; stroke-opacity:1; fill:none" points="294.013,1467.41 294.013,1448.51 "/>
<polyline clip-path="url(#clip070)" style="stroke:#000000; stroke-linecap:round; stroke-linejoin:round; stroke-width:4; stroke-opacity:1; fill:none" points="466.482,1467.41 466.482,1448.51 "/>
<polyline clip-path="url(#clip070)" style="stroke:#000000; stroke-linecap:round; stroke-linejoin:round; stroke-width:4; stroke-opacity:1; fill:none" points="638.951,1467.41 638.951,1448.51 "/>
<polyline clip-path="url(#clip070)" style="stroke:#000000; stroke-linecap:round; stroke-linejoin:round; stroke-width:4; stroke-opacity:1; fill:none" points="811.421,1467.41 811.421,1448.51 "/>
<polyline clip-path="url(#clip070)" style="stroke:#000000; stroke-linecap:round; stroke-linejoin:round; stroke-width:4; stroke-opacity:1; fill:none" points="983.89,1467.41 983.89,1448.51 "/>
<path clip-path="url(#clip070)" d="M240.164 1539.14 Q238.249 1541.05 239.17 1543.91 Q240.09 1546.75 243.871 1550.53 Q247.64 1554.3 250.488 1555.23 Q253.336 1556.14 255.251 1554.23 Q257.179 1552.3 256.258 1549.46 Q255.337 1546.6 251.568 1542.83 Q247.787 1539.05 244.939 1538.14 Q242.091 1537.21 240.164 1539.14 M238.2 1537.17 Q241.281 1534.09 245.344 1534.92 Q249.408 1535.71 254.048 1540.35 Q258.676 1544.98 259.486 1549.06 Q260.297 1553.11 257.215 1556.19 Q254.134 1559.27 250.071 1558.47 Q246.007 1557.65 241.379 1553.02 Q236.739 1548.38 235.929 1544.33 Q235.118 1540.26 238.2 1537.17 Z" fill="#000000" fill-rule="nonzero" fill-opacity="1" /><path clip-path="url(#clip070)" d="M264.434 1542.02 L267.024 1539.43 L270.142 1542.55 L267.552 1545.14 L264.434 1542.02 Z" fill="#000000" fill-rule="nonzero" fill-opacity="1" /><path clip-path="url(#clip070)" d="M257.24 1518.8 L266.975 1509.06 L269.062 1511.15 L261.598 1518.61 L266.091 1523.11 Q266.447 1522.38 266.901 1521.76 Q267.343 1521.12 267.883 1520.58 Q270.952 1517.51 274.426 1517.4 Q277.901 1517.29 280.773 1520.16 Q283.732 1523.12 283.535 1526.6 Q283.327 1530.08 279.975 1533.43 Q278.821 1534.58 277.422 1535.59 Q276.035 1536.59 274.365 1537.47 L271.873 1534.98 Q273.579 1534.47 275.053 1533.59 Q276.526 1532.71 277.839 1531.39 Q279.963 1529.27 280.086 1526.91 Q280.209 1524.55 278.293 1522.64 Q276.378 1520.72 274.021 1520.85 Q271.664 1520.97 269.541 1523.09 Q268.546 1524.09 267.773 1525.3 Q267.012 1526.51 266.447 1528 L257.24 1518.8 Z" fill="#000000" fill-rule="nonzero" fill-opacity="1" /><path clip-path="url(#clip070)" d="M280.147 1499.16 Q278.232 1501.07 279.153 1503.93 Q280.073 1506.77 283.855 1510.55 Q287.623 1514.32 290.471 1515.25 Q293.319 1516.16 295.234 1514.24 Q297.162 1512.32 296.241 1509.48 Q295.32 1506.62 291.552 1502.85 Q287.771 1499.07 284.923 1498.16 Q282.074 1497.23 280.147 1499.16 M278.183 1497.19 Q281.264 1494.11 285.328 1494.93 Q289.391 1495.73 294.031 1500.37 Q298.659 1505 299.47 1509.07 Q300.28 1513.13 297.199 1516.21 Q294.117 1519.29 290.054 1518.49 Q285.991 1517.67 281.362 1513.04 Q276.722 1508.4 275.912 1504.35 Q275.102 1500.27 278.183 1497.19 Z" fill="#000000" fill-rule="nonzero" fill-opacity="1" /><path clip-path="url(#clip070)" d="M413.48 1538.29 Q411.565 1540.21 412.486 1543.07 Q413.406 1545.9 417.188 1549.68 Q420.956 1553.45 423.804 1554.39 Q426.652 1555.29 428.567 1553.38 Q430.495 1551.45 429.574 1548.62 Q428.653 1545.76 424.885 1541.99 Q421.104 1538.21 418.256 1537.3 Q415.407 1536.36 413.48 1538.29 M411.516 1536.33 Q414.597 1533.25 418.661 1534.07 Q422.724 1534.87 427.364 1539.51 Q431.992 1544.14 432.803 1548.21 Q433.613 1552.26 430.532 1555.34 Q427.45 1558.42 423.387 1557.63 Q419.324 1556.8 414.695 1552.18 Q410.055 1547.54 409.245 1543.48 Q408.435 1539.41 411.516 1536.33 Z" fill="#000000" fill-rule="nonzero" fill-opacity="1" /><path clip-path="url(#clip070)" d="M437.75 1541.18 L440.34 1538.59 L443.458 1541.7 L440.868 1544.29 L437.75 1541.18 Z" fill="#000000" fill-rule="nonzero" fill-opacity="1" /><path clip-path="url(#clip070)" d="M430.556 1517.95 L440.291 1508.22 L442.378 1510.3 L434.914 1517.77 L439.407 1522.26 Q439.763 1521.53 440.217 1520.91 Q440.659 1520.27 441.2 1519.73 Q444.269 1516.66 447.743 1516.55 Q451.217 1516.44 454.089 1519.31 Q457.048 1522.27 456.852 1525.76 Q456.643 1529.23 453.292 1532.58 Q452.138 1533.74 450.738 1534.74 Q449.351 1535.74 447.681 1536.62 L445.189 1534.13 Q446.896 1533.63 448.369 1532.74 Q449.842 1531.86 451.155 1530.55 Q453.279 1528.42 453.402 1526.06 Q453.525 1523.71 451.61 1521.79 Q449.695 1519.88 447.338 1520 Q444.981 1520.12 442.857 1522.25 Q441.862 1523.24 441.089 1524.46 Q440.328 1525.66 439.763 1527.16 L430.556 1517.95 Z" fill="#000000" fill-rule="nonzero" fill-opacity="1" /><path clip-path="url(#clip070)" d="M464.905 1516.08 L473.559 1507.43 L475.646 1509.52 L464.009 1521.15 L461.922 1519.07 Q461.872 1516.19 461.848 1511.31 Q461.823 1506.4 461.737 1505.06 Q461.59 1502.53 461.136 1501.14 Q460.682 1499.73 459.786 1498.84 Q458.325 1497.38 456.373 1497.49 Q454.433 1497.58 452.788 1499.23 Q451.622 1500.4 450.726 1502.1 Q449.842 1503.8 449.191 1506.09 L446.687 1503.59 Q447.583 1501.49 448.577 1499.88 Q449.572 1498.27 450.652 1497.19 Q453.5 1494.34 456.618 1494.07 Q459.736 1493.8 462.118 1496.18 Q463.247 1497.31 463.837 1498.76 Q464.426 1500.19 464.684 1502.68 Q464.733 1503.34 464.794 1506.69 Q464.843 1510.03 464.905 1516.08 Z" fill="#000000" fill-rule="nonzero" fill-opacity="1" /><path clip-path="url(#clip070)" d="M584.844 1539.4 Q582.929 1541.31 583.85 1544.17 Q584.771 1547.01 588.552 1550.79 Q592.321 1554.56 595.169 1555.49 Q598.017 1556.4 599.932 1554.48 Q601.859 1552.56 600.938 1549.72 Q600.018 1546.86 596.249 1543.09 Q592.468 1539.31 589.62 1538.4 Q586.772 1537.47 584.844 1539.4 M582.88 1537.43 Q585.962 1534.35 590.025 1535.17 Q594.088 1535.97 598.729 1540.61 Q603.357 1545.24 604.167 1549.32 Q604.977 1553.37 601.896 1556.45 Q598.815 1559.53 594.751 1558.73 Q590.688 1557.91 586.06 1553.28 Q581.419 1548.64 580.609 1544.59 Q579.799 1540.51 582.88 1537.43 Z" fill="#000000" fill-rule="nonzero" fill-opacity="1" /><path clip-path="url(#clip070)" d="M609.114 1542.28 L611.705 1539.69 L614.823 1542.81 L612.232 1545.4 L609.114 1542.28 Z" fill="#000000" fill-rule="nonzero" fill-opacity="1" /><path clip-path="url(#clip070)" d="M601.921 1519.06 L611.655 1509.32 L613.742 1511.41 L606.279 1518.87 L610.772 1523.36 Q611.128 1522.64 611.582 1522.01 Q612.024 1521.38 612.564 1520.84 Q615.633 1517.77 619.107 1517.66 Q622.581 1517.55 625.454 1520.42 Q628.412 1523.38 628.216 1526.86 Q628.007 1530.34 624.656 1533.69 Q623.502 1534.84 622.102 1535.85 Q620.715 1536.84 619.046 1537.73 L616.554 1535.24 Q618.26 1534.73 619.733 1533.85 Q621.206 1532.96 622.52 1531.65 Q624.644 1529.53 624.766 1527.17 Q624.889 1524.81 622.974 1522.9 Q621.059 1520.98 618.702 1521.11 Q616.345 1521.23 614.221 1523.35 Q613.227 1524.35 612.453 1525.56 Q611.692 1526.76 611.128 1528.26 L601.921 1519.06 Z" fill="#000000" fill-rule="nonzero" fill-opacity="1" /><path clip-path="url(#clip070)" d="M626.866 1498.43 L630.389 1514.48 L636.65 1508.22 L626.866 1498.43 M624.054 1496.92 L627.172 1493.8 L639.117 1505.75 L641.732 1503.13 L643.794 1505.2 L641.179 1507.81 L645.501 1512.13 L643.033 1514.6 L638.712 1510.28 L630.438 1518.55 L628.044 1516.16 L624.054 1496.92 Z" fill="#000000" fill-rule="nonzero" fill-opacity="1" /><path clip-path="url(#clip070)" d="M757.486 1539.22 Q755.57 1541.14 756.491 1544 Q757.412 1546.84 761.193 1550.62 Q764.962 1554.39 767.81 1555.32 Q770.658 1556.23 772.573 1554.31 Q774.5 1552.38 773.579 1549.55 Q772.659 1546.69 768.89 1542.92 Q765.109 1539.14 762.261 1538.23 Q759.413 1537.3 757.486 1539.22 M755.521 1537.26 Q758.603 1534.18 762.666 1535 Q766.729 1535.8 771.37 1540.44 Q775.998 1545.07 776.808 1549.14 Q777.618 1553.19 774.537 1556.28 Q771.456 1559.36 767.392 1558.56 Q763.329 1557.74 758.701 1553.11 Q754.06 1548.47 753.25 1544.42 Q752.44 1540.34 755.521 1537.26 Z" fill="#000000" fill-rule="nonzero" fill-opacity="1" /><path clip-path="url(#clip070)" d="M781.755 1542.11 L784.346 1539.52 L787.464 1542.64 L784.873 1545.23 L781.755 1542.11 Z" fill="#000000" fill-rule="nonzero" fill-opacity="1" /><path clip-path="url(#clip070)" d="M774.562 1518.88 L784.297 1509.15 L786.383 1511.24 L778.92 1518.7 L783.413 1523.19 Q783.769 1522.47 784.223 1521.84 Q784.665 1521.2 785.205 1520.66 Q788.274 1517.59 791.748 1517.48 Q795.222 1517.37 798.095 1520.25 Q801.053 1523.2 800.857 1526.69 Q800.648 1530.17 797.297 1533.52 Q796.143 1534.67 794.743 1535.68 Q793.356 1536.67 791.687 1537.56 L789.195 1535.06 Q790.901 1534.56 792.374 1533.68 Q793.847 1532.79 795.161 1531.48 Q797.285 1529.35 797.407 1527 Q797.53 1524.64 795.615 1522.73 Q793.7 1520.81 791.343 1520.93 Q788.986 1521.06 786.862 1523.18 Q785.868 1524.17 785.094 1525.39 Q784.333 1526.59 783.769 1528.09 L774.562 1518.88 Z" fill="#000000" fill-rule="nonzero" fill-opacity="1" /><path clip-path="url(#clip070)" d="M804.319 1505.48 Q802.649 1507.15 802.809 1509.27 Q802.981 1511.38 804.969 1513.37 Q806.946 1515.35 809.07 1515.53 Q811.193 1515.69 812.863 1514.02 Q814.533 1512.35 814.361 1510.24 Q814.189 1508.1 812.212 1506.13 Q810.224 1504.14 808.1 1503.98 Q805.988 1503.81 804.319 1505.48 M801.471 1492.78 L803.73 1495.04 Q802.355 1495.53 801.164 1496.26 Q799.985 1496.97 799.052 1497.9 Q796.597 1500.36 796.953 1503.32 Q797.321 1506.26 800.489 1509.8 Q800.145 1508.01 800.673 1506.35 Q801.188 1504.68 802.502 1503.37 Q805.264 1500.6 808.542 1500.69 Q811.82 1500.75 814.704 1503.64 Q817.528 1506.46 817.565 1509.84 Q817.602 1513.21 814.827 1515.99 Q811.648 1519.17 807.535 1518.42 Q803.41 1517.66 798.782 1513.03 Q794.437 1508.68 793.921 1504.04 Q793.393 1499.39 796.867 1495.91 Q797.8 1494.98 798.93 1494.22 Q800.071 1493.45 801.471 1492.78 Z" fill="#000000" fill-rule="nonzero" fill-opacity="1" /><path clip-path="url(#clip070)" d="M930.09 1539.09 Q928.175 1541 929.095 1543.87 Q930.016 1546.7 933.797 1550.48 Q937.566 1554.25 940.414 1555.18 Q943.262 1556.09 945.177 1554.18 Q947.104 1552.25 946.184 1549.41 Q945.263 1546.55 941.494 1542.78 Q937.713 1539 934.865 1538.1 Q932.017 1537.16 930.09 1539.09 M928.126 1537.13 Q931.207 1534.04 935.27 1534.87 Q939.334 1535.66 943.974 1540.31 Q948.602 1544.93 949.412 1549.01 Q950.223 1553.06 947.141 1556.14 Q944.06 1559.22 939.997 1558.42 Q935.933 1557.6 931.305 1552.97 Q926.665 1548.33 925.854 1544.28 Q925.044 1540.21 928.126 1537.13 Z" fill="#000000" fill-rule="nonzero" fill-opacity="1" /><path clip-path="url(#clip070)" d="M954.36 1541.97 L956.95 1539.38 L960.068 1542.5 L957.478 1545.09 L954.36 1541.97 Z" fill="#000000" fill-rule="nonzero" fill-opacity="1" /><path clip-path="url(#clip070)" d="M947.166 1518.75 L956.901 1509.01 L958.988 1511.1 L951.524 1518.56 L956.017 1523.06 Q956.373 1522.33 956.827 1521.71 Q957.269 1521.07 957.809 1520.53 Q960.878 1517.46 964.352 1517.35 Q967.826 1517.24 970.699 1520.11 Q973.658 1523.07 973.461 1526.56 Q973.252 1530.03 969.901 1533.38 Q968.747 1534.54 967.348 1535.54 Q965.96 1536.54 964.291 1537.42 L961.799 1534.93 Q963.505 1534.42 964.978 1533.54 Q966.452 1532.66 967.765 1531.34 Q969.889 1529.22 970.012 1526.86 Q970.134 1524.51 968.219 1522.59 Q966.304 1520.68 963.947 1520.8 Q961.59 1520.92 959.466 1523.04 Q958.472 1524.04 957.699 1525.25 Q956.938 1526.46 956.373 1527.96 L947.166 1518.75 Z" fill="#000000" fill-rule="nonzero" fill-opacity="1" /><path clip-path="url(#clip070)" d="M978.065 1507.1 Q976.297 1508.87 976.223 1510.83 Q976.162 1512.78 977.819 1514.44 Q979.476 1516.1 981.428 1516.04 Q983.393 1515.96 985.16 1514.19 Q986.928 1512.43 987.002 1510.46 Q987.063 1508.49 985.418 1506.84 Q983.761 1505.18 981.797 1505.26 Q979.845 1505.32 978.065 1507.1 M974.529 1508.52 Q972.54 1509.73 970.552 1509.53 Q968.575 1509.32 967.004 1507.75 Q964.807 1505.55 965.089 1502.72 Q965.384 1499.87 968.109 1497.14 Q970.846 1494.4 973.682 1494.12 Q976.518 1493.84 978.715 1496.04 Q980.287 1497.61 980.483 1499.6 Q980.692 1501.57 979.501 1503.55 Q981.711 1502.18 983.92 1502.4 Q986.142 1502.61 987.898 1504.36 Q990.562 1507.02 990.353 1510.08 Q990.157 1513.13 987.124 1516.16 Q984.092 1519.19 981.036 1519.4 Q977.991 1519.6 975.327 1516.93 Q973.572 1515.18 973.363 1512.95 Q973.154 1510.73 974.529 1508.52 M969.705 1505.51 Q971.129 1506.94 972.811 1506.85 Q974.505 1506.75 976.113 1505.15 Q977.709 1503.55 977.807 1501.86 Q977.917 1500.15 976.493 1498.73 Q975.069 1497.3 973.363 1497.41 Q971.669 1497.51 970.073 1499.11 Q968.465 1500.71 968.367 1502.41 Q968.281 1504.09 969.705 1505.51 Z" fill="#000000" fill-rule="nonzero" fill-opacity="1" /><polyline clip-path="url(#clip070)" style="stroke:#000000; stroke-linecap:round; stroke-linejoin:round; stroke-width:4; stroke-opacity:1; fill:none" points="161.818,1467.41 161.818,897.552 "/>
<polyline clip-path="url(#clip070)" style="stroke:#000000; stroke-linecap:round; stroke-linejoin:round; stroke-width:4; stroke-opacity:1; fill:none" points="161.818,1451.28 180.716,1451.28 "/>
<polyline clip-path="url(#clip070)" style="stroke:#000000; stroke-linecap:round; stroke-linejoin:round; stroke-width:4; stroke-opacity:1; fill:none" points="161.818,1330.38 180.716,1330.38 "/>
<polyline clip-path="url(#clip070)" style="stroke:#000000; stroke-linecap:round; stroke-linejoin:round; stroke-width:4; stroke-opacity:1; fill:none" points="161.818,1209.49 180.716,1209.49 "/>
<polyline clip-path="url(#clip070)" style="stroke:#000000; stroke-linecap:round; stroke-linejoin:round; stroke-width:4; stroke-opacity:1; fill:none" points="161.818,1088.6 180.716,1088.6 "/>
<polyline clip-path="url(#clip070)" style="stroke:#000000; stroke-linecap:round; stroke-linejoin:round; stroke-width:4; stroke-opacity:1; fill:none" points="161.818,967.704 180.716,967.704 "/>
<path clip-path="url(#clip070)" d="M60.315 1440.63 Q57.6067 1440.63 56.2352 1443.3 Q54.881 1445.96 54.881 1451.3 Q54.881 1456.63 56.2352 1459.31 Q57.6067 1461.96 60.315 1461.96 Q63.0407 1461.96 64.3948 1459.31 Q65.7664 1456.63 65.7664 1451.3 Q65.7664 1445.96 64.3948 1443.3 Q63.0407 1440.63 60.315 1440.63 M60.315 1437.85 Q64.6726 1437.85 66.9643 1441.3 Q69.2733 1444.74 69.2733 1451.3 Q69.2733 1457.85 66.9643 1461.3 Q64.6726 1464.74 60.315 1464.74 Q55.9574 1464.74 53.6484 1461.3 Q51.3567 1457.85 51.3567 1451.3 Q51.3567 1444.74 53.6484 1441.3 Q55.9574 1437.85 60.315 1437.85 Z" fill="#000000" fill-rule="nonzero" fill-opacity="1" /><path clip-path="url(#clip070)" d="M75.4364 1459.83 L79.0996 1459.83 L79.0996 1464.24 L75.4364 1464.24 L75.4364 1459.83 Z" fill="#000000" fill-rule="nonzero" fill-opacity="1" /><path clip-path="url(#clip070)" d="M94.2384 1440.63 Q91.5301 1440.63 90.1586 1443.3 Q88.8044 1445.96 88.8044 1451.3 Q88.8044 1456.63 90.1586 1459.31 Q91.5301 1461.96 94.2384 1461.96 Q96.9641 1461.96 98.3183 1459.31 Q99.6898 1456.63 99.6898 1451.3 Q99.6898 1445.96 98.3183 1443.3 Q96.9641 1440.63 94.2384 1440.63 M94.2384 1437.85 Q98.596 1437.85 100.888 1441.3 Q103.197 1444.74 103.197 1451.3 Q103.197 1457.85 100.888 1461.3 Q98.596 1464.74 94.2384 1464.74 Q89.8808 1464.74 87.5718 1461.3 Q85.2801 1457.85 85.2801 1451.3 Q85.2801 1444.74 87.5718 1441.3 Q89.8808 1437.85 94.2384 1437.85 Z" fill="#000000" fill-rule="nonzero" fill-opacity="1" /><path clip-path="url(#clip070)" d="M116.86 1440.63 Q114.152 1440.63 112.78 1443.3 Q111.426 1445.96 111.426 1451.3 Q111.426 1456.63 112.78 1459.31 Q114.152 1461.96 116.86 1461.96 Q119.586 1461.96 120.94 1459.31 Q122.311 1456.63 122.311 1451.3 Q122.311 1445.96 120.94 1443.3 Q119.586 1440.63 116.86 1440.63 M116.86 1437.85 Q121.217 1437.85 123.509 1441.3 Q125.818 1444.74 125.818 1451.3 Q125.818 1457.85 123.509 1461.3 Q121.217 1464.74 116.86 1464.74 Q112.502 1464.74 110.193 1461.3 Q107.902 1457.85 107.902 1451.3 Q107.902 1444.74 110.193 1441.3 Q112.502 1437.85 116.86 1437.85 Z" fill="#000000" fill-rule="nonzero" fill-opacity="1" /><path clip-path="url(#clip070)" d="M61.2351 1319.73 Q58.5268 1319.73 57.1553 1322.41 Q55.8011 1325.06 55.8011 1330.41 Q55.8011 1335.74 57.1553 1338.41 Q58.5268 1341.07 61.2351 1341.07 Q63.9608 1341.07 65.315 1338.41 Q66.6865 1335.74 66.6865 1330.41 Q66.6865 1325.06 65.315 1322.41 Q63.9608 1319.73 61.2351 1319.73 M61.2351 1316.96 Q65.5927 1316.96 67.8844 1320.41 Q70.1934 1323.85 70.1934 1330.41 Q70.1934 1336.96 67.8844 1340.41 Q65.5927 1343.85 61.2351 1343.85 Q56.8775 1343.85 54.5685 1340.41 Q52.2768 1336.96 52.2768 1330.41 Q52.2768 1323.85 54.5685 1320.41 Q56.8775 1316.96 61.2351 1316.96 Z" fill="#000000" fill-rule="nonzero" fill-opacity="1" /><path clip-path="url(#clip070)" d="M76.3566 1338.94 L80.0197 1338.94 L80.0197 1343.34 L76.3566 1343.34 L76.3566 1338.94 Z" fill="#000000" fill-rule="nonzero" fill-opacity="1" /><path clip-path="url(#clip070)" d="M95.1586 1319.73 Q92.4502 1319.73 91.0787 1322.41 Q89.7246 1325.06 89.7246 1330.41 Q89.7246 1335.74 91.0787 1338.41 Q92.4502 1341.07 95.1586 1341.07 Q97.8842 1341.07 99.2384 1338.41 Q100.61 1335.74 100.61 1330.41 Q100.61 1325.06 99.2384 1322.41 Q97.8842 1319.73 95.1586 1319.73 M95.1586 1316.96 Q99.5162 1316.96 101.808 1320.41 Q104.117 1323.85 104.117 1330.41 Q104.117 1336.96 101.808 1340.41 Q99.5162 1343.85 95.1586 1343.85 Q90.8009 1343.85 88.4919 1340.41 Q86.2003 1336.96 86.2003 1330.41 Q86.2003 1323.85 88.4919 1320.41 Q90.8009 1316.96 95.1586 1316.96 Z" fill="#000000" fill-rule="nonzero" fill-opacity="1" /><path clip-path="url(#clip070)" d="M110.888 1340.39 L116.617 1340.39 L116.617 1320.62 L110.384 1321.87 L110.384 1318.67 L116.582 1317.42 L120.089 1317.42 L120.089 1340.39 L125.818 1340.39 L125.818 1343.34 L110.888 1343.34 L110.888 1340.39 Z" fill="#000000" fill-rule="nonzero" fill-opacity="1" /><path clip-path="url(#clip070)" d="M61.5129 1198.84 Q58.8046 1198.84 57.4331 1201.51 Q56.0789 1204.17 56.0789 1209.52 Q56.0789 1214.85 57.4331 1217.52 Q58.8046 1220.18 61.5129 1220.18 Q64.2386 1220.18 65.5927 1217.52 Q66.9643 1214.85 66.9643 1209.52 Q66.9643 1204.17 65.5927 1201.51 Q64.2386 1198.84 61.5129 1198.84 M61.5129 1196.06 Q65.8705 1196.06 68.1622 1199.52 Q70.4712 1202.95 70.4712 1209.52 Q70.4712 1216.06 68.1622 1219.52 Q65.8705 1222.95 61.5129 1222.95 Q57.1553 1222.95 54.8463 1219.52 Q52.5546 1216.06 52.5546 1209.52 Q52.5546 1202.95 54.8463 1199.52 Q57.1553 1196.06 61.5129 1196.06 Z" fill="#000000" fill-rule="nonzero" fill-opacity="1" /><path clip-path="url(#clip070)" d="M76.6343 1218.04 L80.2975 1218.04 L80.2975 1222.45 L76.6343 1222.45 L76.6343 1218.04 Z" fill="#000000" fill-rule="nonzero" fill-opacity="1" /><path clip-path="url(#clip070)" d="M95.4363 1198.84 Q92.728 1198.84 91.3565 1201.51 Q90.0023 1204.17 90.0023 1209.52 Q90.0023 1214.85 91.3565 1217.52 Q92.728 1220.18 95.4363 1220.18 Q98.162 1220.18 99.5162 1217.52 Q100.888 1214.85 100.888 1209.52 Q100.888 1204.17 99.5162 1201.51 Q98.162 1198.84 95.4363 1198.84 M95.4363 1196.06 Q99.7939 1196.06 102.086 1199.52 Q104.395 1202.95 104.395 1209.52 Q104.395 1216.06 102.086 1219.52 Q99.7939 1222.95 95.4363 1222.95 Q91.0787 1222.95 88.7697 1219.52 Q86.478 1216.06 86.478 1209.52 Q86.478 1202.95 88.7697 1199.52 Q91.0787 1196.06 95.4363 1196.06 Z" fill="#000000" fill-rule="nonzero" fill-opacity="1" /><path clip-path="url(#clip070)" d="M113.579 1219.5 L125.818 1219.5 L125.818 1222.45 L109.36 1222.45 L109.36 1219.5 Q111.356 1217.43 114.794 1213.96 Q118.249 1210.47 119.134 1209.47 Q120.818 1207.57 121.478 1206.27 Q122.155 1204.95 122.155 1203.68 Q122.155 1201.62 120.697 1200.32 Q119.256 1199.01 116.929 1199.01 Q115.28 1199.01 113.44 1199.59 Q111.617 1200.16 109.533 1201.32 L109.533 1197.78 Q111.652 1196.93 113.492 1196.5 Q115.332 1196.06 116.86 1196.06 Q120.888 1196.06 123.283 1198.08 Q125.679 1200.09 125.679 1203.46 Q125.679 1205.06 125.072 1206.5 Q124.481 1207.92 122.901 1209.86 Q122.467 1210.37 120.141 1212.78 Q117.815 1215.18 113.579 1219.5 Z" fill="#000000" fill-rule="nonzero" fill-opacity="1" /><path clip-path="url(#clip070)" d="M60.8011 1077.95 Q58.0928 1077.95 56.7213 1080.62 Q55.3671 1083.28 55.3671 1088.62 Q55.3671 1093.95 56.7213 1096.63 Q58.0928 1099.28 60.8011 1099.28 Q63.5268 1099.28 64.8809 1096.63 Q66.2525 1093.95 66.2525 1088.62 Q66.2525 1083.28 64.8809 1080.62 Q63.5268 1077.95 60.8011 1077.95 M60.8011 1075.17 Q65.1587 1075.17 67.4504 1078.62 Q69.7594 1082.06 69.7594 1088.62 Q69.7594 1095.17 67.4504 1098.62 Q65.1587 1102.06 60.8011 1102.06 Q56.4435 1102.06 54.1345 1098.62 Q51.8428 1095.17 51.8428 1088.62 Q51.8428 1082.06 54.1345 1078.62 Q56.4435 1075.17 60.8011 1075.17 Z" fill="#000000" fill-rule="nonzero" fill-opacity="1" /><path clip-path="url(#clip070)" d="M75.9225 1097.15 L79.5857 1097.15 L79.5857 1101.56 L75.9225 1101.56 L75.9225 1097.15 Z" fill="#000000" fill-rule="nonzero" fill-opacity="1" /><path clip-path="url(#clip070)" d="M94.7245 1077.95 Q92.0162 1077.95 90.6447 1080.62 Q89.2905 1083.28 89.2905 1088.62 Q89.2905 1093.95 90.6447 1096.63 Q92.0162 1099.28 94.7245 1099.28 Q97.4502 1099.28 98.8044 1096.63 Q100.176 1093.95 100.176 1088.62 Q100.176 1083.28 98.8044 1080.62 Q97.4502 1077.95 94.7245 1077.95 M94.7245 1075.17 Q99.0821 1075.17 101.374 1078.62 Q103.683 1082.06 103.683 1088.62 Q103.683 1095.17 101.374 1098.62 Q99.0821 1102.06 94.7245 1102.06 Q90.3669 1102.06 88.0579 1098.62 Q85.7662 1095.17 85.7662 1088.62 Q85.7662 1082.06 88.0579 1078.62 Q90.3669 1075.17 94.7245 1075.17 Z" fill="#000000" fill-rule="nonzero" fill-opacity="1" /><path clip-path="url(#clip070)" d="M120.471 1087.58 Q122.988 1088.12 124.395 1089.82 Q125.818 1091.52 125.818 1094.02 Q125.818 1097.86 123.179 1099.96 Q120.54 1102.06 115.679 1102.06 Q114.047 1102.06 112.311 1101.73 Q110.593 1101.42 108.752 1100.78 L108.752 1097.39 Q110.211 1098.24 111.947 1098.68 Q113.683 1099.11 115.575 1099.11 Q118.874 1099.11 120.592 1097.81 Q122.329 1096.51 122.329 1094.02 Q122.329 1091.73 120.714 1090.45 Q119.117 1089.14 116.252 1089.14 L113.231 1089.14 L113.231 1086.26 L116.391 1086.26 Q118.978 1086.26 120.349 1085.24 Q121.721 1084.2 121.721 1082.25 Q121.721 1080.26 120.297 1079.2 Q118.891 1078.12 116.252 1078.12 Q114.811 1078.12 113.162 1078.43 Q111.513 1078.75 109.533 1079.41 L109.533 1076.28 Q111.53 1075.72 113.266 1075.45 Q115.02 1075.17 116.565 1075.17 Q120.558 1075.17 122.884 1076.99 Q125.21 1078.8 125.21 1081.89 Q125.21 1084.04 123.978 1085.53 Q122.745 1087.01 120.471 1087.58 Z" fill="#000000" fill-rule="nonzero" fill-opacity="1" /><path clip-path="url(#clip070)" d="M59.9504 957.053 Q57.2421 957.053 55.8706 959.727 Q54.5164 962.383 54.5164 967.73 Q54.5164 973.06 55.8706 975.734 Q57.2421 978.39 59.9504 978.39 Q62.6761 978.39 64.0303 975.734 Q65.4018 973.06 65.4018 967.73 Q65.4018 962.383 64.0303 959.727 Q62.6761 957.053 59.9504 957.053 M59.9504 954.276 Q64.308 954.276 66.5997 957.73 Q68.9087 961.168 68.9087 967.73 Q68.9087 974.275 66.5997 977.73 Q64.308 981.168 59.9504 981.168 Q55.5928 981.168 53.2838 977.73 Q50.9921 974.275 50.9921 967.73 Q50.9921 961.168 53.2838 957.73 Q55.5928 954.276 59.9504 954.276 Z" fill="#000000" fill-rule="nonzero" fill-opacity="1" /><path clip-path="url(#clip070)" d="M75.0719 976.255 L78.735 976.255 L78.735 980.664 L75.0719 980.664 L75.0719 976.255 Z" fill="#000000" fill-rule="nonzero" fill-opacity="1" /><path clip-path="url(#clip070)" d="M93.8738 957.053 Q91.1655 957.053 89.794 959.727 Q88.4398 962.383 88.4398 967.73 Q88.4398 973.06 89.794 975.734 Q91.1655 978.39 93.8738 978.39 Q96.5995 978.39 97.9537 975.734 Q99.3252 973.06 99.3252 967.73 Q99.3252 962.383 97.9537 959.727 Q96.5995 957.053 93.8738 957.053 M93.8738 954.276 Q98.2315 954.276 100.523 957.73 Q102.832 961.168 102.832 967.73 Q102.832 974.275 100.523 977.73 Q98.2315 981.168 93.8738 981.168 Q89.5162 981.168 87.2072 977.73 Q84.9156 974.275 84.9156 967.73 Q84.9156 961.168 87.2072 957.73 Q89.5162 954.276 93.8738 954.276 Z" fill="#000000" fill-rule="nonzero" fill-opacity="1" /><path clip-path="url(#clip070)" d="M118.631 957.8 L109.777 971.637 L118.631 971.637 L118.631 957.8 M117.711 954.744 L122.12 954.744 L122.12 971.637 L125.818 971.637 L125.818 974.553 L122.12 974.553 L122.12 980.664 L118.631 980.664 L118.631 974.553 L106.929 974.553 L106.929 971.168 L117.711 954.744 Z" fill="#000000" fill-rule="nonzero" fill-opacity="1" /><path clip-path="url(#clip070)" d="M173.716 818.926 Q170.198 818.926 168.3 821.472 Q166.309 824.134 166.309 828.532 Q166.309 833.185 168.276 835.87 Q170.267 838.532 173.716 838.532 Q177.119 838.532 179.11 835.847 Q181.1 833.162 181.1 828.532 Q181.1 824.296 179.11 821.472 Q177.281 818.926 173.716 818.926 M173.716 815.546 L187.86 815.546 L187.86 819.805 L183.091 819.805 Q185.614 823.417 185.614 828.532 Q185.614 834.898 182.443 838.509 Q179.272 842.143 173.716 842.143 Q168.138 842.143 164.989 838.509 Q161.818 834.898 161.818 828.532 Q161.818 822.12 164.989 818.532 Q167.605 815.546 173.716 815.546 Z" fill="#000000" fill-rule="nonzero" fill-opacity="1" /><path clip-path="url(#clip070)" d="M198.878 841.472 L190.961 815.546 L195.545 815.546 L202.235 837.305 Q205.012 834.435 207.327 830.454 Q209.086 827.467 209.179 824.875 Q209.225 823.648 208.67 821.333 Q208.022 818.579 205.568 815.546 L209.873 815.546 L209.873 815.546 Q211.471 817.606 212.535 820.477 Q213.508 823.116 213.508 824.921 Q213.508 829.458 210.36 833.509 Q206.262 838.787 203.415 841.472 L198.878 841.472 Z" fill="#000000" fill-rule="nonzero" fill-opacity="1" /><polyline clip-path="url(#clip074)" style="stroke:#009af9; stroke-linecap:round; stroke-linejoin:round; stroke-width:4; stroke-opacity:1; fill:none" points="189.869,964.876 248.307,1022.88 306.746,1081.68 365.185,1141.28 423.623,1201.68 482.062,1262.88 540.501,1324.88 598.939,1387.68 657.378,1451.28 715.817,1386.88 774.256,1321.68 832.694,1255.68 891.133,1188.88 949.572,1121.28 1008.01,1052.88 1066.45,983.68 1124.89,913.68 "/>
<circle clip-path="url(#clip074)" cx="657.378" cy="1451.28" r="10.8" fill="#ff0000" fill-rule="evenodd" fill-opacity="1" stroke="#000000" stroke-opacity="1" stroke-width="3.2"/>
</svg>
