<?xml version="1.0" encoding="utf-8"?>
<svg xmlns="http://www.w3.org/2000/svg" xmlns:xlink="http://www.w3.org/1999/xlink" width="600" height="400" viewBox="0 0 2400 1600">
<defs>
  <clipPath id="clip170">
    <rect x="0" y="0" width="2400" height="1600"/>
  </clipPath>
</defs>
<path clip-path="url(#clip170)" d="M0 1600 L2400 1600 L2400 0 L0 0  Z" fill="#ffffff" fill-rule="evenodd" fill-opacity="1"/>
<defs>
  <clipPath id="clip171">
    <rect x="1608" y="897" width="745" height="588"/>
  </clipPath>
</defs>
<path clip-path="url(#clip170)" d="M128.138 667.406 L1153.19 667.406 L1153.19 97.5521 L128.138 97.5521  Z" fill="#ffffff" fill-rule="evenodd" fill-opacity="1"/>
<defs>
  <clipPath id="clip172">
    <rect x="128" y="97" width="1026" height="571"/>
  </clipPath>
</defs>
<polyline clip-path="url(#clip172)" style="stroke:#000000; stroke-linecap:round; stroke-linejoin:round; stroke-width:2; stroke-opacity:0.1; fill:none" points="184.517,667.406 184.517,97.5521 "/>
<polyline clip-path="url(#clip172)" style="stroke:#000000; stroke-linecap:round; stroke-linejoin:round; stroke-width:2; stroke-opacity:0.1; fill:none" points="412.591,667.406 412.591,97.5521 "/>
<polyline clip-path="url(#clip172)" style="stroke:#000000; stroke-linecap:round; stroke-linejoin:round; stroke-width:2; stroke-opacity:0.1; fill:none" points="640.664,667.406 640.664,97.5521 "/>
<polyline clip-path="url(#clip172)" style="stroke:#000000; stroke-linecap:round; stroke-linejoin:round; stroke-width:2; stroke-opacity:0.1; fill:none" points="868.737,667.406 868.737,97.5521 "/>
<polyline clip-path="url(#clip172)" style="stroke:#000000; stroke-linecap:round; stroke-linejoin:round; stroke-width:2; stroke-opacity:0.1; fill:none" points="1096.81,667.406 1096.81,97.5521 "/>
<polyline clip-path="url(#clip172)" style="stroke:#000000; stroke-linecap:round; stroke-linejoin:round; stroke-width:2; stroke-opacity:0.1; fill:none" points="128.138,667.406 1153.19,667.406 "/>
<polyline clip-path="url(#clip172)" style="stroke:#000000; stroke-linecap:round; stroke-linejoin:round; stroke-width:2; stroke-opacity:0.1; fill:none" points="128.138,565.647 1153.19,565.647 "/>
<polyline clip-path="url(#clip172)" style="stroke:#000000; stroke-linecap:round; stroke-linejoin:round; stroke-width:2; stroke-opacity:0.1; fill:none" points="128.138,463.887 1153.19,463.887 "/>
<polyline clip-path="url(#clip172)" style="stroke:#000000; stroke-linecap:round; stroke-linejoin:round; stroke-width:2; stroke-opacity:0.1; fill:none" points="128.138,362.127 1153.19,362.127 "/>
<polyline clip-path="url(#clip172)" style="stroke:#000000; stroke-linecap:round; stroke-linejoin:round; stroke-width:2; stroke-opacity:0.1; fill:none" points="128.138,260.368 1153.19,260.368 "/>
<polyline clip-path="url(#clip172)" style="stroke:#000000; stroke-linecap:round; stroke-linejoin:round; stroke-width:2; stroke-opacity:0.1; fill:none" points="128.138,158.608 1153.19,158.608 "/>
<polyline clip-path="url(#clip170)" style="stroke:#000000; stroke-linecap:round; stroke-linejoin:round; stroke-width:4; stroke-opacity:1; fill:none" points="128.138,667.406 1153.19,667.406 "/>
<polyline clip-path="url(#clip170)" style="stroke:#000000; stroke-linecap:round; stroke-linejoin:round; stroke-width:4; stroke-opacity:1; fill:none" points="184.517,667.406 184.517,648.509 "/>
<polyline clip-path="url(#clip170)" style="stroke:#000000; stroke-linecap:round; stroke-linejoin:round; stroke-width:4; stroke-opacity:1; fill:none" points="412.591,667.406 412.591,648.509 "/>
<polyline clip-path="url(#clip170)" style="stroke:#000000; stroke-linecap:round; stroke-linejoin:round; stroke-width:4; stroke-opacity:1; fill:none" points="640.664,667.406 640.664,648.509 "/>
<polyline clip-path="url(#clip170)" style="stroke:#000000; stroke-linecap:round; stroke-linejoin:round; stroke-width:4; stroke-opacity:1; fill:none" points="868.737,667.406 868.737,648.509 "/>
<polyline clip-path="url(#clip170)" style="stroke:#000000; stroke-linecap:round; stroke-linejoin:round; stroke-width:4; stroke-opacity:1; fill:none" points="1096.81,667.406 1096.81,648.509 "/>
<path clip-path="url(#clip170)" d="M131.147 738.66 Q129.232 740.575 130.153 743.435 Q131.073 746.271 134.854 750.052 Q138.623 753.821 141.471 754.754 Q144.319 755.662 146.234 753.747 Q148.162 751.82 147.241 748.984 Q146.32 746.124 142.552 742.355 Q138.771 738.574 135.923 737.666 Q133.074 736.733 131.147 738.66 M129.183 736.696 Q132.264 733.615 136.328 734.437 Q140.391 735.235 145.031 739.875 Q149.659 744.503 150.47 748.579 Q151.28 752.63 148.199 755.712 Q145.117 758.793 141.054 757.995 Q136.991 757.172 132.362 752.544 Q127.722 747.904 126.912 743.853 Q126.102 739.777 129.183 736.696 Z" fill="#000000" fill-rule="nonzero" fill-opacity="1" /><path clip-path="url(#clip170)" d="M155.417 741.545 L158.007 738.955 L161.125 742.073 L158.535 744.663 L155.417 741.545 Z" fill="#000000" fill-rule="nonzero" fill-opacity="1" /><path clip-path="url(#clip170)" d="M163.126 722.664 Q161.359 724.432 161.285 726.396 Q161.224 728.348 162.881 730.005 Q164.538 731.663 166.49 731.601 Q168.454 731.528 170.222 729.76 Q171.99 727.992 172.063 726.028 Q172.125 724.052 170.48 722.407 Q168.822 720.749 166.858 720.823 Q164.906 720.884 163.126 722.664 M159.591 724.088 Q157.602 725.291 155.613 725.095 Q153.637 724.886 152.066 723.315 Q149.868 721.118 150.151 718.282 Q150.445 715.434 153.17 712.708 Q155.908 709.971 158.744 709.688 Q161.58 709.406 163.777 711.604 Q165.348 713.175 165.545 715.164 Q165.753 717.14 164.563 719.117 Q166.772 717.742 168.982 717.963 Q171.204 718.171 172.959 719.927 Q175.623 722.591 175.415 725.647 Q175.218 728.692 172.186 731.724 Q169.154 734.756 166.097 734.965 Q163.053 735.161 160.389 732.497 Q158.633 730.742 158.425 728.52 Q158.216 726.298 159.591 724.088 M154.766 721.081 Q156.19 722.505 157.872 722.419 Q159.566 722.321 161.174 720.712 Q162.77 719.117 162.869 717.422 Q162.979 715.716 161.555 714.292 Q160.131 712.868 158.425 712.978 Q156.73 713.077 155.135 714.673 Q153.526 716.281 153.428 717.975 Q153.342 719.657 154.766 721.081 Z" fill="#000000" fill-rule="nonzero" fill-opacity="1" /><path clip-path="url(#clip170)" d="M163.568 702.973 L175.353 691.188 L176.409 692.244 L187.028 716.17 L184.438 718.761 L174.457 696.258 L165.655 705.06 L163.568 702.973 Z" fill="#000000" fill-rule="nonzero" fill-opacity="1" /><path clip-path="url(#clip170)" d="M358.791 739.09 Q356.876 741.005 357.796 743.865 Q358.717 746.701 362.498 750.482 Q366.267 754.251 369.115 755.184 Q371.963 756.092 373.878 754.177 Q375.805 752.25 374.885 749.414 Q373.964 746.554 370.195 742.785 Q366.414 739.004 363.566 738.095 Q360.718 737.162 358.791 739.09 M356.826 737.126 Q359.908 734.044 363.971 734.867 Q368.035 735.665 372.675 740.305 Q377.303 744.933 378.113 749.009 Q378.923 753.06 375.842 756.141 Q372.761 759.223 368.697 758.425 Q364.634 757.602 360.006 752.974 Q355.366 748.334 354.555 744.283 Q353.745 740.207 356.826 737.126 Z" fill="#000000" fill-rule="nonzero" fill-opacity="1" /><path clip-path="url(#clip170)" d="M383.06 741.975 L385.651 739.384 L388.769 742.502 L386.179 745.093 L383.06 741.975 Z" fill="#000000" fill-rule="nonzero" fill-opacity="1" /><path clip-path="url(#clip170)" d="M390.77 723.094 Q389.002 724.862 388.928 726.826 Q388.867 728.778 390.524 730.435 Q392.182 732.092 394.134 732.031 Q396.098 731.957 397.865 730.19 Q399.633 728.422 399.707 726.458 Q399.768 724.481 398.123 722.836 Q396.466 721.179 394.502 721.253 Q392.55 721.314 390.77 723.094 M387.234 724.518 Q385.246 725.721 383.257 725.525 Q381.28 725.316 379.709 723.745 Q377.512 721.547 377.794 718.711 Q378.089 715.863 380.814 713.138 Q383.552 710.4 386.387 710.118 Q389.223 709.836 391.421 712.033 Q392.992 713.605 393.188 715.593 Q393.397 717.57 392.206 719.546 Q394.416 718.171 396.626 718.392 Q398.848 718.601 400.603 720.356 Q403.267 723.02 403.058 726.077 Q402.862 729.122 399.83 732.154 Q396.797 735.186 393.741 735.395 Q390.696 735.591 388.032 732.927 Q386.277 731.172 386.068 728.95 Q385.859 726.728 387.234 724.518 M382.41 721.51 Q383.834 722.934 385.516 722.848 Q387.21 722.75 388.818 721.142 Q390.414 719.546 390.512 717.852 Q390.623 716.146 389.199 714.722 Q387.775 713.298 386.068 713.408 Q384.374 713.506 382.778 715.102 Q381.17 716.71 381.072 718.405 Q380.986 720.086 382.41 721.51 Z" fill="#000000" fill-rule="nonzero" fill-opacity="1" /><path clip-path="url(#clip170)" d="M406.766 707.098 Q404.998 708.866 404.924 710.83 Q404.863 712.782 406.52 714.439 Q408.177 716.097 410.129 716.035 Q412.093 715.962 413.861 714.194 Q415.629 712.426 415.703 710.462 Q415.764 708.485 414.119 706.84 Q412.462 705.183 410.498 705.257 Q408.546 705.318 406.766 707.098 M403.23 708.522 Q401.241 709.725 399.253 709.529 Q397.276 709.32 395.705 707.749 Q393.507 705.551 393.79 702.716 Q394.084 699.868 396.81 697.142 Q399.547 694.405 402.383 694.122 Q405.219 693.84 407.416 696.037 Q408.988 697.609 409.184 699.598 Q409.393 701.574 408.202 703.55 Q410.412 702.176 412.621 702.396 Q414.843 702.605 416.599 704.361 Q419.263 707.025 419.054 710.081 Q418.858 713.126 415.825 716.158 Q412.793 719.19 409.736 719.399 Q406.692 719.595 404.028 716.931 Q402.273 715.176 402.064 712.954 Q401.855 710.732 403.23 708.522 M398.406 705.515 Q399.83 706.939 401.511 706.853 Q403.206 706.754 404.814 705.146 Q406.41 703.55 406.508 701.856 Q406.618 700.15 405.194 698.726 Q403.77 697.302 402.064 697.412 Q400.37 697.511 398.774 699.106 Q397.166 700.715 397.068 702.409 Q396.982 704.091 398.406 705.515 Z" fill="#000000" fill-rule="nonzero" fill-opacity="1" /><path clip-path="url(#clip170)" d="M586.913 739.041 Q584.998 740.956 585.919 743.816 Q586.839 746.652 590.62 750.433 Q594.389 754.202 597.237 755.135 Q600.085 756.043 602 754.128 Q603.928 752.201 603.007 749.365 Q602.086 746.504 598.317 742.736 Q594.536 738.955 591.688 738.046 Q588.84 737.113 586.913 739.041 M584.949 737.076 Q588.03 733.995 592.093 734.818 Q596.157 735.616 600.797 740.256 Q605.425 744.884 606.236 748.96 Q607.046 753.011 603.964 756.092 Q600.883 759.173 596.82 758.375 Q592.756 757.553 588.128 752.925 Q583.488 748.285 582.678 744.233 Q581.867 740.158 584.949 737.076 Z" fill="#000000" fill-rule="nonzero" fill-opacity="1" /><path clip-path="url(#clip170)" d="M611.183 741.926 L613.773 739.335 L616.891 742.453 L614.301 745.044 L611.183 741.926 Z" fill="#000000" fill-rule="nonzero" fill-opacity="1" /><path clip-path="url(#clip170)" d="M618.892 723.045 Q617.124 724.813 617.051 726.777 Q616.989 728.729 618.647 730.386 Q620.304 732.043 622.256 731.982 Q624.22 731.908 625.988 730.14 Q627.756 728.373 627.829 726.409 Q627.891 724.432 626.246 722.787 Q624.588 721.13 622.624 721.203 Q620.672 721.265 618.892 723.045 M615.357 724.469 Q613.368 725.672 611.379 725.476 Q609.403 725.267 607.831 723.696 Q605.634 721.498 605.916 718.662 Q606.211 715.814 608.936 713.089 Q611.674 710.351 614.51 710.069 Q617.345 709.787 619.543 711.984 Q621.114 713.555 621.311 715.544 Q621.519 717.521 620.328 719.497 Q622.538 718.122 624.748 718.343 Q626.97 718.552 628.725 720.307 Q631.389 722.971 631.181 726.028 Q630.984 729.072 627.952 732.105 Q624.92 735.137 621.863 735.346 Q618.819 735.542 616.155 732.878 Q614.399 731.123 614.19 728.901 Q613.982 726.679 615.357 724.469 M610.532 721.461 Q611.956 722.885 613.638 722.799 Q615.332 722.701 616.94 721.093 Q618.536 719.497 618.634 717.803 Q618.745 716.097 617.321 714.673 Q615.897 713.249 614.19 713.359 Q612.496 713.457 610.9 715.053 Q609.292 716.661 609.194 718.355 Q609.108 720.037 610.532 721.461 Z" fill="#000000" fill-rule="nonzero" fill-opacity="1" /><path clip-path="url(#clip170)" d="M637.982 720.602 L635.723 718.343 Q637.098 717.852 638.288 717.128 Q639.479 716.404 640.4 715.483 Q642.855 713.028 642.499 710.094 Q642.143 707.135 638.964 703.587 Q639.307 705.355 638.779 707.012 Q638.252 708.67 636.926 709.995 Q634.176 712.745 630.91 712.696 Q627.645 712.622 624.76 709.738 Q621.937 706.914 621.9 703.538 Q621.863 700.162 624.637 697.388 Q627.817 694.208 631.929 694.982 Q636.042 695.731 640.682 700.371 Q645.016 704.704 645.544 709.357 Q646.071 713.985 642.597 717.459 Q641.664 718.392 640.523 719.166 Q639.381 719.939 637.982 720.602 M635.146 707.896 Q636.815 706.227 636.643 704.115 Q636.484 701.991 634.495 700.003 Q632.519 698.026 630.395 697.867 Q628.271 697.682 626.602 699.352 Q624.932 701.022 625.104 703.158 Q625.276 705.269 627.252 707.246 Q629.241 709.234 631.352 709.406 Q633.476 709.566 635.146 707.896 Z" fill="#000000" fill-rule="nonzero" fill-opacity="1" /><path clip-path="url(#clip170)" d="M814.888 739.139 Q812.973 741.054 813.894 743.914 Q814.814 746.75 818.595 750.531 Q822.364 754.3 825.212 755.233 Q828.06 756.141 829.975 754.226 Q831.903 752.299 830.982 749.463 Q830.061 746.603 826.292 742.834 Q822.511 739.053 819.663 738.144 Q816.815 737.211 814.888 739.139 M812.924 737.175 Q816.005 734.093 820.068 734.916 Q824.132 735.714 828.772 740.354 Q833.4 744.982 834.211 749.058 Q835.021 753.109 831.939 756.19 Q828.858 759.272 824.795 758.474 Q820.731 757.651 816.103 753.023 Q811.463 748.383 810.653 744.332 Q809.842 740.256 812.924 737.175 Z" fill="#000000" fill-rule="nonzero" fill-opacity="1" /><path clip-path="url(#clip170)" d="M839.158 742.024 L841.748 739.433 L844.866 742.552 L842.276 745.142 L839.158 742.024 Z" fill="#000000" fill-rule="nonzero" fill-opacity="1" /><path clip-path="url(#clip170)" d="M849.961 736.696 L847.702 734.437 Q849.077 733.946 850.268 733.222 Q851.458 732.497 852.379 731.577 Q854.834 729.122 854.478 726.188 Q854.122 723.229 850.943 719.681 Q851.287 721.449 850.759 723.106 Q850.231 724.764 848.905 726.089 Q846.155 728.839 842.89 728.79 Q839.624 728.716 836.739 725.832 Q833.916 723.008 833.879 719.632 Q833.842 716.256 836.617 713.482 Q839.796 710.302 843.909 711.076 Q848.021 711.825 852.661 716.465 Q856.995 720.798 857.523 725.451 Q858.051 730.079 854.577 733.553 Q853.644 734.486 852.502 735.26 Q851.36 736.033 849.961 736.696 M847.125 723.99 Q848.795 722.321 848.623 720.209 Q848.463 718.085 846.474 716.097 Q844.498 714.12 842.374 713.961 Q840.25 713.776 838.581 715.446 Q836.911 717.116 837.083 719.252 Q837.255 721.363 839.231 723.339 Q841.22 725.328 843.332 725.5 Q845.455 725.66 847.125 723.99 Z" fill="#000000" fill-rule="nonzero" fill-opacity="1" /><path clip-path="url(#clip170)" d="M854.871 699.156 Q852.956 701.071 853.877 703.931 Q854.798 706.767 858.579 710.548 Q862.347 714.317 865.195 715.25 Q868.043 716.158 869.959 714.243 Q871.886 712.316 870.965 709.48 Q870.044 706.619 866.276 702.851 Q862.495 699.07 859.647 698.161 Q856.799 697.228 854.871 699.156 M852.907 697.191 Q855.988 694.11 860.052 694.933 Q864.115 695.731 868.755 700.371 Q873.384 704.999 874.194 709.075 Q875.004 713.126 871.923 716.207 Q868.841 719.288 864.778 718.49 Q860.715 717.668 856.087 713.04 Q851.446 708.399 850.636 704.348 Q849.826 700.273 852.907 697.191 Z" fill="#000000" fill-rule="nonzero" fill-opacity="1" /><path clip-path="url(#clip170)" d="M1043.61 738.488 Q1041.7 740.403 1042.62 743.264 Q1043.54 746.099 1047.32 749.88 Q1051.09 753.649 1053.94 754.582 Q1056.78 755.491 1058.7 753.576 Q1060.63 751.648 1059.71 748.812 Q1058.79 745.952 1055.02 742.183 Q1051.24 738.402 1048.39 737.494 Q1045.54 736.561 1043.61 738.488 M1041.65 736.524 Q1044.73 733.443 1048.79 734.265 Q1052.86 735.063 1057.5 739.704 Q1062.12 744.332 1062.93 748.407 Q1063.74 752.458 1060.66 755.54 Q1057.58 758.621 1053.52 757.823 Q1049.46 757.001 1044.83 752.372 Q1040.19 747.732 1039.38 743.681 Q1038.57 739.605 1041.65 736.524 Z" fill="#000000" fill-rule="nonzero" fill-opacity="1" /><path clip-path="url(#clip170)" d="M1067.88 741.373 L1070.47 738.783 L1073.59 741.901 L1071 744.491 L1067.88 741.373 Z" fill="#000000" fill-rule="nonzero" fill-opacity="1" /><path clip-path="url(#clip170)" d="M1078.68 736.045 L1076.43 733.786 Q1077.8 733.295 1078.99 732.571 Q1080.18 731.847 1081.1 730.926 Q1083.56 728.471 1083.2 725.537 Q1082.85 722.578 1079.67 719.031 Q1080.01 720.798 1079.48 722.456 Q1078.95 724.113 1077.63 725.439 Q1074.88 728.189 1071.61 728.139 Q1068.35 728.066 1065.46 725.181 Q1062.64 722.357 1062.6 718.981 Q1062.57 715.606 1065.34 712.831 Q1068.52 709.652 1072.63 710.425 Q1076.74 711.174 1081.39 715.814 Q1085.72 720.148 1086.25 724.8 Q1086.77 729.428 1083.3 732.903 Q1082.37 733.836 1081.23 734.609 Q1080.08 735.382 1078.68 736.045 M1075.85 723.339 Q1077.52 721.67 1077.35 719.558 Q1077.19 717.435 1075.2 715.446 Q1073.22 713.47 1071.1 713.31 Q1068.97 713.126 1067.3 714.795 Q1065.64 716.465 1065.81 718.601 Q1065.98 720.712 1067.96 722.689 Q1069.94 724.678 1072.06 724.849 Q1074.18 725.009 1075.85 723.339 Z" fill="#000000" fill-rule="nonzero" fill-opacity="1" /><path clip-path="url(#clip170)" d="M1093.33 717.987 L1097.38 713.936 L1083.4 699.954 L1079.88 705.245 L1077.62 702.986 L1081.12 697.719 L1083.6 695.24 L1099.84 711.481 L1103.89 707.43 L1105.97 709.517 L1095.42 720.074 L1093.33 717.987 Z" fill="#000000" fill-rule="nonzero" fill-opacity="1" /><polyline clip-path="url(#clip170)" style="stroke:#000000; stroke-linecap:round; stroke-linejoin:round; stroke-width:4; stroke-opacity:1; fill:none" points="128.138,667.406 128.138,97.5521 "/>
<polyline clip-path="url(#clip170)" style="stroke:#000000; stroke-linecap:round; stroke-linejoin:round; stroke-width:4; stroke-opacity:1; fill:none" points="128.138,667.406 147.035,667.406 "/>
<polyline clip-path="url(#clip170)" style="stroke:#000000; stroke-linecap:round; stroke-linejoin:round; stroke-width:4; stroke-opacity:1; fill:none" points="128.138,565.647 147.035,565.647 "/>
<polyline clip-path="url(#clip170)" style="stroke:#000000; stroke-linecap:round; stroke-linejoin:round; stroke-width:4; stroke-opacity:1; fill:none" points="128.138,463.887 147.035,463.887 "/>
<polyline clip-path="url(#clip170)" style="stroke:#000000; stroke-linecap:round; stroke-linejoin:round; stroke-width:4; stroke-opacity:1; fill:none" points="128.138,362.127 147.035,362.127 "/>
<polyline clip-path="url(#clip170)" style="stroke:#000000; stroke-linecap:round; stroke-linejoin:round; stroke-width:4; stroke-opacity:1; fill:none" points="128.138,260.368 147.035,260.368 "/>
<polyline clip-path="url(#clip170)" style="stroke:#000000; stroke-linecap:round; stroke-linejoin:round; stroke-width:4; stroke-opacity:1; fill:none" points="128.138,158.608 147.035,158.608 "/>
<path clip-path="url(#clip170)" d="M83.1795 656.755 Q80.4711 656.755 79.0996 659.429 Q77.7455 662.085 77.7455 667.432 Q77.7455 672.762 79.0996 675.436 Q80.4711 678.092 83.1795 678.092 Q85.9051 678.092 87.2593 675.436 Q88.6308 672.762 88.6308 667.432 Q88.6308 662.085 87.2593 659.429 Q85.9051 656.755 83.1795 656.755 M83.1795 653.978 Q87.5371 653.978 89.8287 657.432 Q92.1377 660.87 92.1377 667.432 Q92.1377 673.978 89.8287 677.432 Q87.5371 680.87 83.1795 680.87 Q78.8218 680.87 76.5128 677.432 Q74.2212 673.978 74.2212 667.432 Q74.2212 660.87 76.5128 657.432 Q78.8218 653.978 83.1795 653.978 Z" fill="#000000" fill-rule="nonzero" fill-opacity="1" /><path clip-path="url(#clip170)" d="M53.6657 575.655 L59.3949 575.655 L59.3949 555.881 L53.1623 557.131 L53.1623 553.937 L59.3601 552.687 L62.8671 552.687 L62.8671 575.655 L68.5962 575.655 L68.5962 578.607 L53.6657 578.607 L53.6657 575.655 Z" fill="#000000" fill-rule="nonzero" fill-opacity="1" /><path clip-path="url(#clip170)" d="M83.1795 554.996 Q80.4711 554.996 79.0996 557.669 Q77.7455 560.326 77.7455 565.673 Q77.7455 571.003 79.0996 573.676 Q80.4711 576.332 83.1795 576.332 Q85.9051 576.332 87.2593 573.676 Q88.6308 571.003 88.6308 565.673 Q88.6308 560.326 87.2593 557.669 Q85.9051 554.996 83.1795 554.996 M83.1795 552.218 Q87.5371 552.218 89.8287 555.673 Q92.1377 559.11 92.1377 565.673 Q92.1377 572.218 89.8287 575.673 Q87.5371 579.11 83.1795 579.11 Q78.8218 579.11 76.5128 575.673 Q74.2212 572.218 74.2212 565.673 Q74.2212 559.11 76.5128 555.673 Q78.8218 552.218 83.1795 552.218 Z" fill="#000000" fill-rule="nonzero" fill-opacity="1" /><path clip-path="url(#clip170)" d="M56.0789 473.896 L68.3184 473.896 L68.3184 476.847 L51.8602 476.847 L51.8602 473.896 Q53.8567 471.83 57.2942 468.357 Q60.749 464.868 61.6344 463.861 Q63.3184 461.969 63.9782 460.667 Q64.6552 459.347 64.6552 458.08 Q64.6552 456.014 63.1969 454.712 Q61.756 453.41 59.4296 453.41 Q57.7803 453.41 55.94 453.983 Q54.1171 454.555 52.0338 455.719 L52.0338 452.177 Q54.1518 451.326 55.9921 450.892 Q57.8324 450.458 59.3601 450.458 Q63.3879 450.458 65.7837 452.472 Q68.1795 454.486 68.1795 457.854 Q68.1795 459.451 67.5719 460.892 Q66.9816 462.316 65.4018 464.26 Q64.9677 464.764 62.6414 467.177 Q60.315 469.573 56.0789 473.896 Z" fill="#000000" fill-rule="nonzero" fill-opacity="1" /><path clip-path="url(#clip170)" d="M83.1795 453.236 Q80.4711 453.236 79.0996 455.91 Q77.7455 458.566 77.7455 463.913 Q77.7455 469.243 79.0996 471.916 Q80.4711 474.573 83.1795 474.573 Q85.9051 474.573 87.2593 471.916 Q88.6308 469.243 88.6308 463.913 Q88.6308 458.566 87.2593 455.91 Q85.9051 453.236 83.1795 453.236 M83.1795 450.458 Q87.5371 450.458 89.8287 453.913 Q92.1377 457.351 92.1377 463.913 Q92.1377 470.458 89.8287 473.913 Q87.5371 477.35 83.1795 477.35 Q78.8218 477.35 76.5128 473.913 Q74.2212 470.458 74.2212 463.913 Q74.2212 457.351 76.5128 453.913 Q78.8218 450.458 83.1795 450.458 Z" fill="#000000" fill-rule="nonzero" fill-opacity="1" /><path clip-path="url(#clip170)" d="M63.683 361.112 Q66.2004 361.65 67.6066 363.351 Q69.0302 365.053 69.0302 367.553 Q69.0302 371.389 66.3913 373.49 Q63.7525 375.591 58.8914 375.591 Q57.2595 375.591 55.5234 375.261 Q53.8046 374.948 51.9643 374.306 L51.9643 370.921 Q53.4227 371.771 55.1588 372.205 Q56.8949 372.639 58.7872 372.639 Q62.0858 372.639 63.8046 371.337 Q65.5407 370.035 65.5407 367.553 Q65.5407 365.261 63.9261 363.976 Q62.3289 362.674 59.4643 362.674 L56.4435 362.674 L56.4435 359.792 L59.6032 359.792 Q62.19 359.792 63.5615 358.768 Q64.933 357.726 64.933 355.782 Q64.933 353.785 63.5094 352.726 Q62.1032 351.65 59.4643 351.65 Q58.0233 351.65 56.374 351.962 Q54.7247 352.275 52.7456 352.935 L52.7456 349.81 Q54.7421 349.254 56.4782 348.976 Q58.2317 348.699 59.7768 348.699 Q63.7698 348.699 66.0962 350.521 Q68.4226 352.327 68.4226 355.417 Q68.4226 357.57 67.19 359.063 Q65.9573 360.539 63.683 361.112 Z" fill="#000000" fill-rule="nonzero" fill-opacity="1" /><path clip-path="url(#clip170)" d="M83.1795 351.476 Q80.4711 351.476 79.0996 354.15 Q77.7455 356.806 77.7455 362.153 Q77.7455 367.483 79.0996 370.157 Q80.4711 372.813 83.1795 372.813 Q85.9051 372.813 87.2593 370.157 Q88.6308 367.483 88.6308 362.153 Q88.6308 356.806 87.2593 354.15 Q85.9051 351.476 83.1795 351.476 M83.1795 348.699 Q87.5371 348.699 89.8287 352.153 Q92.1377 355.591 92.1377 362.153 Q92.1377 368.698 89.8287 372.153 Q87.5371 375.591 83.1795 375.591 Q78.8218 375.591 76.5128 372.153 Q74.2212 368.698 74.2212 362.153 Q74.2212 355.591 76.5128 352.153 Q78.8218 348.699 83.1795 348.699 Z" fill="#000000" fill-rule="nonzero" fill-opacity="1" /><path clip-path="url(#clip170)" d="M62.6935 250.463 L53.8393 264.3 L62.6935 264.3 L62.6935 250.463 M61.7733 247.408 L66.183 247.408 L66.183 264.3 L69.8809 264.3 L69.8809 267.217 L66.183 267.217 L66.183 273.328 L62.6935 273.328 L62.6935 267.217 L50.9921 267.217 L50.9921 263.831 L61.7733 247.408 Z" fill="#000000" fill-rule="nonzero" fill-opacity="1" /><path clip-path="url(#clip170)" d="M83.1795 249.717 Q80.4711 249.717 79.0996 252.39 Q77.7455 255.046 77.7455 260.394 Q77.7455 265.723 79.0996 268.397 Q80.4711 271.053 83.1795 271.053 Q85.9051 271.053 87.2593 268.397 Q88.6308 265.723 88.6308 260.394 Q88.6308 255.046 87.2593 252.39 Q85.9051 249.717 83.1795 249.717 M83.1795 246.939 Q87.5371 246.939 89.8287 250.394 Q92.1377 253.831 92.1377 260.394 Q92.1377 266.939 89.8287 270.394 Q87.5371 273.831 83.1795 273.831 Q78.8218 273.831 76.5128 270.394 Q74.2212 266.939 74.2212 260.394 Q74.2212 253.831 76.5128 250.394 Q78.8218 246.939 83.1795 246.939 Z" fill="#000000" fill-rule="nonzero" fill-opacity="1" /><path clip-path="url(#clip170)" d="M53.0928 145.648 L66.8601 145.648 L66.8601 148.599 L56.3046 148.599 L56.3046 154.953 Q57.0685 154.693 57.8324 154.571 Q58.5963 154.433 59.3601 154.433 Q63.7004 154.433 66.2351 156.811 Q68.7698 159.19 68.7698 163.252 Q68.7698 167.436 66.1657 169.762 Q63.5615 172.071 58.8219 172.071 Q57.19 172.071 55.4886 171.794 Q53.8046 171.516 51.9991 170.96 L51.9991 167.436 Q53.5616 168.287 55.2282 168.703 Q56.8949 169.12 58.7525 169.12 Q61.756 169.12 63.5094 167.54 Q65.2629 165.96 65.2629 163.252 Q65.2629 160.544 63.5094 158.964 Q61.756 157.384 58.7525 157.384 Q57.3463 157.384 55.94 157.696 Q54.5511 158.009 53.0928 158.669 L53.0928 145.648 Z" fill="#000000" fill-rule="nonzero" fill-opacity="1" /><path clip-path="url(#clip170)" d="M83.1795 147.957 Q80.4711 147.957 79.0996 150.631 Q77.7455 153.287 77.7455 158.634 Q77.7455 163.964 79.0996 166.637 Q80.4711 169.294 83.1795 169.294 Q85.9051 169.294 87.2593 166.637 Q88.6308 163.964 88.6308 158.634 Q88.6308 153.287 87.2593 150.631 Q85.9051 147.957 83.1795 147.957 M83.1795 145.179 Q87.5371 145.179 89.8287 148.634 Q92.1377 152.072 92.1377 158.634 Q92.1377 165.179 89.8287 168.634 Q87.5371 172.071 83.1795 172.071 Q78.8218 172.071 76.5128 168.634 Q74.2212 165.179 74.2212 158.634 Q74.2212 152.072 76.5128 148.634 Q78.8218 145.179 83.1795 145.179 Z" fill="#000000" fill-rule="nonzero" fill-opacity="1" /><path clip-path="url(#clip170)" d="M130.221 20.1758 Q131.633 17.8147 135.128 15.7314 Q136.494 14.9212 140.707 14.9212 Q145.429 14.9212 148.369 18.6712 Q151.332 22.4212 151.332 28.5323 Q151.332 34.6433 148.369 38.3933 Q145.429 42.1433 140.707 42.1433 Q137.86 42.1433 135.8 41.0322 Q133.763 39.8979 132.42 37.5831 L132.42 51.3331 L128.138 51.3331 L128.138 28.7637 Q128.138 23.4165 130.221 20.1758 M146.911 28.5323 Q146.911 23.8332 144.966 21.1712 Q143.045 18.486 139.665 18.486 Q136.286 18.486 134.341 21.1712 Q132.42 23.8332 132.42 28.5323 Q132.42 33.2313 134.341 35.9165 Q136.286 38.5785 139.665 38.5785 Q143.045 38.5785 144.966 35.9165 Q146.911 33.2313 146.911 28.5323 Z" fill="#000000" fill-rule="nonzero" fill-opacity="1" /><path clip-path="url(#clip172)" d="M184.517 636.878 L184.517 667.406 L298.554 667.406 L298.554 636.878 L184.517 636.878 L184.517 636.878  Z" fill="#009af9" fill-rule="evenodd" fill-opacity="1"/>
<polyline clip-path="url(#clip172)" style="stroke:#000000; stroke-linecap:round; stroke-linejoin:round; stroke-width:4; stroke-opacity:1; fill:none" points="184.517,636.878 184.517,667.406 298.554,667.406 298.554,636.878 184.517,636.878 "/>
<path clip-path="url(#clip172)" d="M298.554 423.183 L298.554 667.406 L412.591 667.406 L412.591 423.183 L298.554 423.183 L298.554 423.183  Z" fill="#009af9" fill-rule="evenodd" fill-opacity="1"/>
<polyline clip-path="url(#clip172)" style="stroke:#000000; stroke-linecap:round; stroke-linejoin:round; stroke-width:4; stroke-opacity:1; fill:none" points="298.554,423.183 298.554,667.406 412.591,667.406 412.591,423.183 298.554,423.183 "/>
<path clip-path="url(#clip172)" d="M412.591 341.775 L412.591 667.406 L526.627 667.406 L526.627 341.775 L412.591 341.775 L412.591 341.775  Z" fill="#009af9" fill-rule="evenodd" fill-opacity="1"/>
<polyline clip-path="url(#clip172)" style="stroke:#000000; stroke-linecap:round; stroke-linejoin:round; stroke-width:4; stroke-opacity:1; fill:none" points="412.591,341.775 412.591,667.406 526.627,667.406 526.627,341.775 412.591,341.775 "/>
<path clip-path="url(#clip172)" d="M526.627 97.5521 L526.627 667.406 L640.664 667.406 L640.664 97.5521 L526.627 97.5521 L526.627 97.5521  Z" fill="#009af9" fill-rule="evenodd" fill-opacity="1"/>
<polyline clip-path="url(#clip172)" style="stroke:#000000; stroke-linecap:round; stroke-linejoin:round; stroke-width:4; stroke-opacity:1; fill:none" points="526.627,97.5521 526.627,667.406 640.664,667.406 640.664,97.5521 526.627,97.5521 "/>
<path clip-path="url(#clip172)" d="M640.664 250.192 L640.664 667.406 L754.7 667.406 L754.7 250.192 L640.664 250.192 L640.664 250.192  Z" fill="#009af9" fill-rule="evenodd" fill-opacity="1"/>
<polyline clip-path="url(#clip172)" style="stroke:#000000; stroke-linecap:round; stroke-linejoin:round; stroke-width:4; stroke-opacity:1; fill:none" points="640.664,250.192 640.664,667.406 754.7,667.406 754.7,250.192 640.664,250.192 "/>
<path clip-path="url(#clip172)" d="M754.7 423.183 L754.7 667.406 L868.737 667.406 L868.737 423.183 L754.7 423.183 L754.7 423.183  Z" fill="#009af9" fill-rule="evenodd" fill-opacity="1"/>
<polyline clip-path="url(#clip172)" style="stroke:#000000; stroke-linecap:round; stroke-linejoin:round; stroke-width:4; stroke-opacity:1; fill:none" points="754.7,423.183 754.7,667.406 868.737,667.406 868.737,423.183 754.7,423.183 "/>
<path clip-path="url(#clip172)" d="M868.737 555.471 L868.737 667.406 L982.774 667.406 L982.774 555.471 L868.737 555.471 L868.737 555.471  Z" fill="#009af9" fill-rule="evenodd" fill-opacity="1"/>
<polyline clip-path="url(#clip172)" style="stroke:#000000; stroke-linecap:round; stroke-linejoin:round; stroke-width:4; stroke-opacity:1; fill:none" points="868.737,555.471 868.737,667.406 982.774,667.406 982.774,555.471 868.737,555.471 "/>
<path clip-path="url(#clip172)" d="M982.774 616.527 L982.774 667.406 L1096.81 667.406 L1096.81 616.527 L982.774 616.527 L982.774 616.527  Z" fill="#009af9" fill-rule="evenodd" fill-opacity="1"/>
<polyline clip-path="url(#clip172)" style="stroke:#000000; stroke-linecap:round; stroke-linejoin:round; stroke-width:4; stroke-opacity:1; fill:none" points="982.774,616.527 982.774,667.406 1096.81,667.406 1096.81,616.527 982.774,616.527 "/>
<circle clip-path="url(#clip172)" style="fill:#009af9; stroke:none; fill-opacity:0" cx="241.536" cy="636.878" r="2"/>
<circle clip-path="url(#clip172)" style="fill:#009af9; stroke:none; fill-opacity:0" cx="355.572" cy="423.183" r="2"/>
<circle clip-path="url(#clip172)" style="fill:#009af9; stroke:none; fill-opacity:0" cx="469.609" cy="341.775" r="2"/>
<circle clip-path="url(#clip172)" style="fill:#009af9; stroke:none; fill-opacity:0" cx="583.646" cy="97.5521" r="2"/>
<circle clip-path="url(#clip172)" style="fill:#009af9; stroke:none; fill-opacity:0" cx="697.682" cy="250.192" r="2"/>
<circle clip-path="url(#clip172)" style="fill:#009af9; stroke:none; fill-opacity:0" cx="811.719" cy="423.183" r="2"/>
<circle clip-path="url(#clip172)" style="fill:#009af9; stroke:none; fill-opacity:0" cx="925.755" cy="555.471" r="2"/>
<circle clip-path="url(#clip172)" style="fill:#009af9; stroke:none; fill-opacity:0" cx="1039.79" cy="616.527" r="2"/>
<polyline clip-path="url(#clip172)" style="stroke:#ff0000; stroke-linecap:round; stroke-linejoin:round; stroke-width:8; stroke-opacity:1; fill:none" stroke-dasharray="32, 20" points="625.603,1237.26 625.603,-472.302 "/>
<polyline clip-path="url(#clip172)" style="stroke:#ff0000; stroke-linecap:round; stroke-linejoin:round; stroke-width:6; stroke-opacity:1; fill:none" stroke-dasharray="24, 12, 3, 12" points="319.747,1237.26 319.747,-472.302 "/>
<polyline clip-path="url(#clip172)" style="stroke:#ff0000; stroke-linecap:round; stroke-linejoin:round; stroke-width:6; stroke-opacity:1; fill:none" stroke-dasharray="24, 12, 3, 12" points="1085.69,1237.26 1085.69,-472.302 "/>
<path clip-path="url(#clip170)" d="M1327.7 667.406 L2352.76 667.406 L2352.76 97.5521 L1327.7 97.5521  Z" fill="#ffffff" fill-rule="evenodd" fill-opacity="1"/>
<defs>
  <clipPath id="clip173">
    <rect x="1327" y="97" width="1026" height="571"/>
  </clipPath>
</defs>
<polyline clip-path="url(#clip173)" style="stroke:#000000; stroke-linecap:round; stroke-linejoin:round; stroke-width:2; stroke-opacity:0.1; fill:none" points="1384.08,667.406 1384.08,97.5521 "/>
<polyline clip-path="url(#clip173)" style="stroke:#000000; stroke-linecap:round; stroke-linejoin:round; stroke-width:2; stroke-opacity:0.1; fill:none" points="1536.13,667.406 1536.13,97.5521 "/>
<polyline clip-path="url(#clip173)" style="stroke:#000000; stroke-linecap:round; stroke-linejoin:round; stroke-width:2; stroke-opacity:0.1; fill:none" points="1688.18,667.406 1688.18,97.5521 "/>
<polyline clip-path="url(#clip173)" style="stroke:#000000; stroke-linecap:round; stroke-linejoin:round; stroke-width:2; stroke-opacity:0.1; fill:none" points="1840.23,667.406 1840.23,97.5521 "/>
<polyline clip-path="url(#clip173)" style="stroke:#000000; stroke-linecap:round; stroke-linejoin:round; stroke-width:2; stroke-opacity:0.1; fill:none" points="1992.28,667.406 1992.28,97.5521 "/>
<polyline clip-path="url(#clip173)" style="stroke:#000000; stroke-linecap:round; stroke-linejoin:round; stroke-width:2; stroke-opacity:0.1; fill:none" points="2144.33,667.406 2144.33,97.5521 "/>
<polyline clip-path="url(#clip173)" style="stroke:#000000; stroke-linecap:round; stroke-linejoin:round; stroke-width:2; stroke-opacity:0.1; fill:none" points="2296.38,667.406 2296.38,97.5521 "/>
<polyline clip-path="url(#clip173)" style="stroke:#000000; stroke-linecap:round; stroke-linejoin:round; stroke-width:2; stroke-opacity:0.1; fill:none" points="1327.7,667.406 2352.76,667.406 "/>
<polyline clip-path="url(#clip173)" style="stroke:#000000; stroke-linecap:round; stroke-linejoin:round; stroke-width:2; stroke-opacity:0.1; fill:none" points="1327.7,517.445 2352.76,517.445 "/>
<polyline clip-path="url(#clip173)" style="stroke:#000000; stroke-linecap:round; stroke-linejoin:round; stroke-width:2; stroke-opacity:0.1; fill:none" points="1327.7,367.483 2352.76,367.483 "/>
<polyline clip-path="url(#clip173)" style="stroke:#000000; stroke-linecap:round; stroke-linejoin:round; stroke-width:2; stroke-opacity:0.1; fill:none" points="1327.7,217.521 2352.76,217.521 "/>
<polyline clip-path="url(#clip170)" style="stroke:#000000; stroke-linecap:round; stroke-linejoin:round; stroke-width:4; stroke-opacity:1; fill:none" points="1327.7,667.406 2352.76,667.406 "/>
<polyline clip-path="url(#clip170)" style="stroke:#000000; stroke-linecap:round; stroke-linejoin:round; stroke-width:4; stroke-opacity:1; fill:none" points="1384.08,667.406 1384.08,648.509 "/>
<polyline clip-path="url(#clip170)" style="stroke:#000000; stroke-linecap:round; stroke-linejoin:round; stroke-width:4; stroke-opacity:1; fill:none" points="1536.13,667.406 1536.13,648.509 "/>
<polyline clip-path="url(#clip170)" style="stroke:#000000; stroke-linecap:round; stroke-linejoin:round; stroke-width:4; stroke-opacity:1; fill:none" points="1688.18,667.406 1688.18,648.509 "/>
<polyline clip-path="url(#clip170)" style="stroke:#000000; stroke-linecap:round; stroke-linejoin:round; stroke-width:4; stroke-opacity:1; fill:none" points="1840.23,667.406 1840.23,648.509 "/>
<polyline clip-path="url(#clip170)" style="stroke:#000000; stroke-linecap:round; stroke-linejoin:round; stroke-width:4; stroke-opacity:1; fill:none" points="1992.28,667.406 1992.28,648.509 "/>
<polyline clip-path="url(#clip170)" style="stroke:#000000; stroke-linecap:round; stroke-linejoin:round; stroke-width:4; stroke-opacity:1; fill:none" points="2144.33,667.406 2144.33,648.509 "/>
<polyline clip-path="url(#clip170)" style="stroke:#000000; stroke-linecap:round; stroke-linejoin:round; stroke-width:4; stroke-opacity:1; fill:none" points="2296.38,667.406 2296.38,648.509 "/>
<path clip-path="url(#clip170)" d="M1330.33 739.041 Q1328.42 740.956 1329.34 743.816 Q1330.26 746.652 1334.04 750.433 Q1337.81 754.202 1340.66 755.135 Q1343.5 756.043 1345.42 754.128 Q1347.35 752.201 1346.43 749.365 Q1345.51 746.504 1341.74 742.736 Q1337.96 738.955 1335.11 738.046 Q1332.26 737.113 1330.33 739.041 M1328.37 737.076 Q1331.45 733.995 1335.51 734.818 Q1339.58 735.616 1344.22 740.256 Q1348.84 744.884 1349.66 748.96 Q1350.47 753.011 1347.38 756.092 Q1344.3 759.173 1340.24 758.375 Q1336.18 757.553 1331.55 752.925 Q1326.91 748.285 1326.1 744.233 Q1325.29 740.158 1328.37 737.076 Z" fill="#000000" fill-rule="nonzero" fill-opacity="1" /><path clip-path="url(#clip170)" d="M1354.6 741.926 L1357.19 739.335 L1360.31 742.453 L1357.72 745.044 L1354.6 741.926 Z" fill="#000000" fill-rule="nonzero" fill-opacity="1" /><path clip-path="url(#clip170)" d="M1365.76 732.829 L1374.42 724.174 L1376.5 726.261 L1364.87 737.899 L1362.78 735.812 Q1362.73 732.939 1362.7 728.054 Q1362.68 723.143 1362.59 721.805 Q1362.45 719.276 1361.99 717.889 Q1361.54 716.477 1360.64 715.581 Q1359.18 714.12 1357.23 714.231 Q1355.29 714.329 1353.64 715.974 Q1352.48 717.14 1351.58 718.846 Q1350.7 720.541 1350.05 722.836 L1347.54 720.332 Q1348.44 718.233 1349.43 716.624 Q1350.43 715.016 1351.51 713.936 Q1354.36 711.088 1357.47 710.818 Q1360.59 710.548 1362.97 712.929 Q1364.1 714.059 1364.69 715.507 Q1365.28 716.931 1365.54 719.423 Q1365.59 720.086 1365.65 723.438 Q1365.7 726.777 1365.76 732.829 Z" fill="#000000" fill-rule="nonzero" fill-opacity="1" /><path clip-path="url(#clip170)" d="M1381.4 720.602 L1379.14 718.343 Q1380.52 717.852 1381.71 717.128 Q1382.9 716.404 1383.82 715.483 Q1386.27 713.028 1385.92 710.094 Q1385.56 707.135 1382.38 703.587 Q1382.73 705.355 1382.2 707.012 Q1381.67 708.67 1380.35 709.995 Q1377.6 712.745 1374.33 712.696 Q1371.06 712.622 1368.18 709.738 Q1365.36 706.914 1365.32 703.538 Q1365.28 700.162 1368.06 697.388 Q1371.24 694.208 1375.35 694.982 Q1379.46 695.731 1384.1 700.371 Q1388.44 704.704 1388.96 709.357 Q1389.49 713.985 1386.02 717.459 Q1385.08 718.392 1383.94 719.166 Q1382.8 719.939 1381.4 720.602 M1378.57 707.896 Q1380.23 706.227 1380.06 704.115 Q1379.9 701.991 1377.91 700.003 Q1375.94 698.026 1373.81 697.867 Q1371.69 697.682 1370.02 699.352 Q1368.35 701.022 1368.52 703.158 Q1368.7 705.269 1370.67 707.246 Q1372.66 709.234 1374.77 709.406 Q1376.9 709.566 1378.57 707.896 Z" fill="#000000" fill-rule="nonzero" fill-opacity="1" /><path clip-path="url(#clip170)" d="M1482.28 739.139 Q1480.37 741.054 1481.29 743.914 Q1482.21 746.75 1485.99 750.531 Q1489.76 754.3 1492.61 755.233 Q1495.46 756.141 1497.37 754.226 Q1499.3 752.299 1498.38 749.463 Q1497.46 746.603 1493.69 742.834 Q1489.91 739.053 1487.06 738.144 Q1484.21 737.211 1482.28 739.139 M1480.32 737.175 Q1483.4 734.093 1487.46 734.916 Q1491.53 735.714 1496.17 740.354 Q1500.8 744.982 1501.61 749.058 Q1502.42 753.109 1499.33 756.19 Q1496.25 759.272 1492.19 758.474 Q1488.13 757.651 1483.5 753.023 Q1478.86 748.383 1478.05 744.332 Q1477.24 740.256 1480.32 737.175 Z" fill="#000000" fill-rule="nonzero" fill-opacity="1" /><path clip-path="url(#clip170)" d="M1506.55 742.024 L1509.14 739.433 L1512.26 742.552 L1509.67 745.142 L1506.55 742.024 Z" fill="#000000" fill-rule="nonzero" fill-opacity="1" /><path clip-path="url(#clip170)" d="M1515.29 719.755 Q1517.45 718.355 1519.65 718.564 Q1521.86 718.761 1523.63 720.528 Q1526.34 723.241 1525.96 726.593 Q1525.58 729.944 1522.14 733.381 Q1520.99 734.535 1519.53 735.53 Q1518.09 736.524 1516.34 737.371 L1513.94 734.977 Q1515.58 734.548 1517.11 733.627 Q1518.64 732.706 1519.98 731.368 Q1522.32 729.036 1522.61 726.9 Q1522.92 724.751 1521.16 722.996 Q1519.54 721.375 1517.49 721.609 Q1515.44 721.817 1513.42 723.843 L1511.28 725.979 L1509.24 723.941 L1511.48 721.707 Q1513.3 719.878 1513.55 718.184 Q1513.78 716.477 1512.41 715.102 Q1511 713.69 1509.24 713.948 Q1507.49 714.182 1505.62 716.047 Q1504.6 717.066 1503.66 718.454 Q1502.71 719.841 1501.78 721.707 L1499.57 719.497 Q1500.59 717.692 1501.62 716.268 Q1502.66 714.832 1503.75 713.74 Q1506.58 710.916 1509.51 710.56 Q1512.43 710.192 1514.62 712.377 Q1516.14 713.899 1516.32 715.827 Q1516.5 717.742 1515.29 719.755 Z" fill="#000000" fill-rule="nonzero" fill-opacity="1" /><path clip-path="url(#clip170)" d="M1522.27 699.156 Q1520.35 701.071 1521.27 703.931 Q1522.19 706.767 1525.97 710.548 Q1529.74 714.317 1532.59 715.25 Q1535.44 716.158 1537.35 714.243 Q1539.28 712.316 1538.36 709.48 Q1537.44 706.619 1533.67 702.851 Q1529.89 699.07 1527.04 698.161 Q1524.19 697.228 1522.27 699.156 M1520.3 697.191 Q1523.38 694.11 1527.45 694.933 Q1531.51 695.731 1536.15 700.371 Q1540.78 704.999 1541.59 709.075 Q1542.4 713.126 1539.32 716.207 Q1536.24 719.288 1532.17 718.49 Q1528.11 717.668 1523.48 713.04 Q1518.84 708.399 1518.03 704.348 Q1517.22 700.273 1520.3 697.191 Z" fill="#000000" fill-rule="nonzero" fill-opacity="1" /><path clip-path="url(#clip170)" d="M1634.98 738.488 Q1633.07 740.403 1633.99 743.264 Q1634.91 746.099 1638.69 749.88 Q1642.46 753.649 1645.31 754.582 Q1648.15 755.491 1650.07 753.576 Q1652 751.648 1651.08 748.812 Q1650.16 745.952 1646.39 742.183 Q1642.61 738.402 1639.76 737.494 Q1636.91 736.561 1634.98 738.488 M1633.02 736.524 Q1636.1 733.443 1640.16 734.265 Q1644.23 735.063 1648.87 739.704 Q1653.49 744.332 1654.31 748.407 Q1655.12 752.458 1652.03 755.54 Q1648.95 758.621 1644.89 757.823 Q1640.83 757.001 1636.2 752.372 Q1631.56 747.732 1630.75 743.681 Q1629.94 739.605 1633.02 736.524 Z" fill="#000000" fill-rule="nonzero" fill-opacity="1" /><path clip-path="url(#clip170)" d="M1659.25 741.373 L1661.84 738.783 L1664.96 741.901 L1662.37 744.491 L1659.25 741.373 Z" fill="#000000" fill-rule="nonzero" fill-opacity="1" /><path clip-path="url(#clip170)" d="M1667.99 719.104 Q1670.15 717.705 1672.35 717.913 Q1674.56 718.11 1676.33 719.878 Q1679.04 722.591 1678.66 725.942 Q1678.28 729.293 1674.84 732.731 Q1673.69 733.885 1672.23 734.879 Q1670.79 735.873 1669.04 736.72 L1666.64 734.327 Q1668.28 733.897 1669.81 732.976 Q1671.34 732.056 1672.68 730.717 Q1675.01 728.385 1675.31 726.249 Q1675.62 724.101 1673.86 722.345 Q1672.24 720.725 1670.19 720.958 Q1668.14 721.167 1666.11 723.192 L1663.98 725.328 L1661.94 723.29 L1664.18 721.056 Q1666 719.227 1666.25 717.533 Q1666.48 715.827 1665.11 714.452 Q1663.7 713.04 1661.94 713.298 Q1660.19 713.531 1658.32 715.397 Q1657.3 716.416 1656.36 717.803 Q1655.41 719.19 1654.48 721.056 L1652.27 718.846 Q1653.29 717.042 1654.32 715.618 Q1655.36 714.182 1656.45 713.089 Q1659.28 710.265 1662.21 709.909 Q1665.13 709.541 1667.32 711.726 Q1668.84 713.249 1669.02 715.176 Q1669.2 717.091 1667.99 719.104 Z" fill="#000000" fill-rule="nonzero" fill-opacity="1" /><path clip-path="url(#clip170)" d="M1684.7 717.987 L1688.75 713.936 L1674.77 699.954 L1671.25 705.245 L1668.99 702.986 L1672.49 697.719 L1674.97 695.24 L1691.21 711.481 L1695.26 707.43 L1697.35 709.517 L1686.79 720.074 L1684.7 717.987 Z" fill="#000000" fill-rule="nonzero" fill-opacity="1" /><path clip-path="url(#clip170)" d="M1787.23 738.292 Q1785.31 740.207 1786.23 743.067 Q1787.15 745.903 1790.94 749.684 Q1794.7 753.453 1797.55 754.386 Q1800.4 755.294 1802.32 753.379 Q1804.24 751.452 1803.32 748.616 Q1802.4 745.756 1798.63 741.987 Q1794.85 738.206 1792 737.297 Q1789.16 736.364 1787.23 738.292 M1785.26 736.328 Q1788.34 733.246 1792.41 734.069 Q1796.47 734.867 1801.11 739.507 Q1805.74 744.135 1806.55 748.211 Q1807.36 752.262 1804.28 755.343 Q1801.2 758.425 1797.13 757.627 Q1793.07 756.804 1788.44 752.176 Q1783.8 747.536 1782.99 743.485 Q1782.18 739.409 1785.26 736.328 Z" fill="#000000" fill-rule="nonzero" fill-opacity="1" /><path clip-path="url(#clip170)" d="M1811.5 741.177 L1814.09 738.586 L1817.21 741.705 L1814.62 744.295 L1811.5 741.177 Z" fill="#000000" fill-rule="nonzero" fill-opacity="1" /><path clip-path="url(#clip170)" d="M1820.24 718.908 Q1822.4 717.508 1824.6 717.717 Q1826.81 717.913 1828.57 719.681 Q1831.29 722.394 1830.91 725.746 Q1830.53 729.097 1827.09 732.534 Q1825.93 733.688 1824.47 734.683 Q1823.04 735.677 1821.28 736.524 L1818.89 734.13 Q1820.52 733.701 1822.06 732.78 Q1823.59 731.859 1824.93 730.521 Q1827.26 728.189 1827.55 726.053 Q1827.86 723.904 1826.11 722.149 Q1824.49 720.528 1822.44 720.762 Q1820.39 720.97 1818.36 722.996 L1816.22 725.132 L1814.19 723.094 L1816.42 720.86 Q1818.25 719.031 1818.49 717.336 Q1818.73 715.63 1817.35 714.255 Q1815.94 712.843 1814.19 713.101 Q1812.43 713.334 1810.56 715.2 Q1809.55 716.219 1808.6 717.607 Q1807.66 718.994 1806.72 720.86 L1804.51 718.65 Q1805.53 716.845 1806.56 715.421 Q1807.61 713.985 1808.7 712.893 Q1811.52 710.069 1814.46 709.713 Q1817.38 709.345 1819.56 711.53 Q1821.09 713.052 1821.27 714.979 Q1821.44 716.895 1820.24 718.908 Z" fill="#000000" fill-rule="nonzero" fill-opacity="1" /><path clip-path="url(#clip170)" d="M1838.65 716.084 L1847.31 707.43 L1849.39 709.517 L1837.76 721.154 L1835.67 719.067 Q1835.62 716.195 1835.6 711.309 Q1835.57 706.398 1835.49 705.06 Q1835.34 702.532 1834.88 701.144 Q1834.43 699.733 1833.53 698.836 Q1832.07 697.376 1830.12 697.486 Q1828.18 697.584 1826.54 699.229 Q1825.37 700.395 1824.47 702.102 Q1823.59 703.796 1822.94 706.092 L1820.43 703.587 Q1821.33 701.488 1822.33 699.88 Q1823.32 698.272 1824.4 697.191 Q1827.25 694.343 1830.37 694.073 Q1833.48 693.803 1835.87 696.185 Q1837 697.314 1837.58 698.763 Q1838.17 700.187 1838.43 702.679 Q1838.48 703.342 1838.54 706.693 Q1838.59 710.032 1838.65 716.084 Z" fill="#000000" fill-rule="nonzero" fill-opacity="1" /><path clip-path="url(#clip170)" d="M1938.77 738.795 Q1936.86 740.71 1937.78 743.571 Q1938.7 746.406 1942.48 750.187 Q1946.25 753.956 1949.1 754.889 Q1951.95 755.797 1953.86 753.882 Q1955.79 751.955 1954.87 749.119 Q1953.95 746.259 1950.18 742.49 Q1946.4 738.709 1943.55 737.801 Q1940.7 736.868 1938.77 738.795 M1936.81 736.831 Q1939.89 733.75 1943.95 734.572 Q1948.02 735.37 1952.66 740.01 Q1957.29 744.639 1958.1 748.714 Q1958.91 752.765 1955.82 755.847 Q1952.74 758.928 1948.68 758.13 Q1944.62 757.307 1939.99 752.679 Q1935.35 748.039 1934.54 743.988 Q1933.73 739.912 1936.81 736.831 Z" fill="#000000" fill-rule="nonzero" fill-opacity="1" /><path clip-path="url(#clip170)" d="M1963.04 741.68 L1965.63 739.09 L1968.75 742.208 L1966.16 744.798 L1963.04 741.68 Z" fill="#000000" fill-rule="nonzero" fill-opacity="1" /><path clip-path="url(#clip170)" d="M1971.78 719.411 Q1973.94 718.012 1976.14 718.22 Q1978.35 718.417 1980.12 720.185 Q1982.83 722.898 1982.45 726.249 Q1982.07 729.6 1978.63 733.038 Q1977.48 734.192 1976.02 735.186 Q1974.58 736.18 1972.83 737.027 L1970.43 734.634 Q1972.07 734.204 1973.6 733.283 Q1975.14 732.362 1976.47 731.024 Q1978.81 728.692 1979.1 726.556 Q1979.41 724.408 1977.65 722.652 Q1976.03 721.032 1973.98 721.265 Q1971.93 721.474 1969.91 723.499 L1967.77 725.635 L1965.73 723.597 L1967.97 721.363 Q1969.79 719.534 1970.04 717.84 Q1970.27 716.133 1968.9 714.759 Q1967.49 713.347 1965.73 713.605 Q1963.98 713.838 1962.11 715.704 Q1961.09 716.723 1960.15 718.11 Q1959.2 719.497 1958.27 721.363 L1956.06 719.153 Q1957.08 717.349 1958.11 715.925 Q1959.15 714.488 1960.24 713.396 Q1963.07 710.572 1966 710.216 Q1968.92 709.848 1971.11 712.033 Q1972.63 713.555 1972.81 715.483 Q1972.99 717.398 1971.78 719.411 Z" fill="#000000" fill-rule="nonzero" fill-opacity="1" /><path clip-path="url(#clip170)" d="M1987.78 703.415 Q1989.94 702.016 1992.14 702.225 Q1994.35 702.421 1996.11 704.189 Q1998.83 706.902 1998.45 710.253 Q1998.07 713.605 1994.63 717.042 Q1993.48 718.196 1992.01 719.19 Q1990.58 720.185 1988.82 721.032 L1986.43 718.638 Q1988.06 718.208 1989.6 717.287 Q1991.13 716.367 1992.47 715.029 Q1994.8 712.696 1995.1 710.56 Q1995.4 708.412 1993.65 706.656 Q1992.03 705.036 1989.98 705.269 Q1987.93 705.478 1985.9 707.503 L1983.77 709.639 L1981.73 707.602 L1983.96 705.367 Q1985.79 703.538 1986.04 701.844 Q1986.27 700.138 1984.89 698.763 Q1983.48 697.351 1981.73 697.609 Q1979.97 697.842 1978.11 699.708 Q1977.09 700.727 1976.14 702.114 Q1975.2 703.501 1974.26 705.367 L1972.05 703.158 Q1973.07 701.353 1974.1 699.929 Q1975.15 698.493 1976.24 697.4 Q1979.06 694.577 1982 694.221 Q1984.92 693.852 1987.1 696.037 Q1988.63 697.56 1988.81 699.487 Q1988.98 701.402 1987.78 703.415 Z" fill="#000000" fill-rule="nonzero" fill-opacity="1" /><path clip-path="url(#clip170)" d="M2090.22 739.397 Q2088.31 741.312 2089.23 744.172 Q2090.15 747.008 2093.93 750.789 Q2097.7 754.558 2100.54 755.491 Q2103.39 756.399 2105.31 754.484 Q2107.24 752.557 2106.31 749.721 Q2105.39 746.86 2101.63 743.092 Q2097.84 739.311 2095 738.402 Q2092.15 737.469 2090.22 739.397 M2088.26 737.432 Q2091.34 734.351 2095.4 735.174 Q2099.46 735.972 2104.1 740.612 Q2108.73 745.24 2109.54 749.316 Q2110.35 753.367 2107.27 756.448 Q2104.19 759.529 2100.13 758.731 Q2096.06 757.909 2091.44 753.281 Q2086.8 748.641 2085.99 744.589 Q2085.18 740.514 2088.26 737.432 Z" fill="#000000" fill-rule="nonzero" fill-opacity="1" /><path clip-path="url(#clip170)" d="M2114.49 742.282 L2117.08 739.691 L2120.2 742.809 L2117.61 745.4 L2114.49 742.282 Z" fill="#000000" fill-rule="nonzero" fill-opacity="1" /><path clip-path="url(#clip170)" d="M2123.23 720.013 Q2125.39 718.613 2127.59 718.822 Q2129.8 719.018 2131.57 720.786 Q2134.28 723.499 2133.9 726.85 Q2133.52 730.202 2130.08 733.639 Q2128.93 734.793 2127.47 735.787 Q2126.03 736.782 2124.27 737.629 L2121.88 735.235 Q2123.51 734.805 2125.05 733.885 Q2126.58 732.964 2127.92 731.626 Q2130.25 729.293 2130.55 727.157 Q2130.85 725.009 2129.1 723.254 Q2127.48 721.633 2125.43 721.866 Q2123.38 722.075 2121.35 724.101 L2119.22 726.237 L2117.18 724.199 L2119.41 721.965 Q2121.24 720.135 2121.49 718.441 Q2121.72 716.735 2120.35 715.36 Q2118.93 713.948 2117.18 714.206 Q2115.42 714.439 2113.56 716.305 Q2112.54 717.324 2111.59 718.711 Q2110.65 720.099 2109.71 721.965 L2107.51 719.755 Q2108.52 717.95 2109.56 716.526 Q2110.6 715.09 2111.69 713.997 Q2114.51 711.174 2117.45 710.818 Q2120.37 710.45 2122.56 712.635 Q2124.08 714.157 2124.26 716.084 Q2124.43 717.999 2123.23 720.013 Z" fill="#000000" fill-rule="nonzero" fill-opacity="1" /><path clip-path="url(#clip170)" d="M2132.24 698.431 L2135.76 714.476 L2142.03 708.215 L2132.24 698.431 M2129.43 696.921 L2132.55 693.803 L2144.49 705.748 L2147.11 703.133 L2149.17 705.195 L2146.56 707.81 L2150.88 712.131 L2148.41 714.599 L2144.09 710.278 L2135.81 718.552 L2133.42 716.158 L2129.43 696.921 Z" fill="#000000" fill-rule="nonzero" fill-opacity="1" /><path clip-path="url(#clip170)" d="M2243.05 738.611 Q2241.14 740.526 2242.06 743.386 Q2242.98 746.222 2246.76 750.003 Q2250.53 753.772 2253.38 754.705 Q2256.23 755.613 2258.14 753.698 Q2260.07 751.771 2259.15 748.935 Q2258.23 746.075 2254.46 742.306 Q2250.68 738.525 2247.83 737.617 Q2244.98 736.684 2243.05 738.611 M2241.09 736.647 Q2244.17 733.565 2248.24 734.388 Q2252.3 735.186 2256.94 739.826 Q2261.57 744.454 2262.38 748.53 Q2263.19 752.581 2260.11 755.662 Q2257.03 758.744 2252.96 757.946 Q2248.9 757.123 2244.27 752.495 Q2239.63 747.855 2238.82 743.804 Q2238.01 739.728 2241.09 736.647 Z" fill="#000000" fill-rule="nonzero" fill-opacity="1" /><path clip-path="url(#clip170)" d="M2267.32 741.496 L2269.92 738.906 L2273.03 742.024 L2270.44 744.614 L2267.32 741.496 Z" fill="#000000" fill-rule="nonzero" fill-opacity="1" /><path clip-path="url(#clip170)" d="M2276.07 719.227 Q2278.23 717.828 2280.42 718.036 Q2282.63 718.233 2284.4 720 Q2287.11 722.713 2286.73 726.065 Q2286.35 729.416 2282.92 732.853 Q2281.76 734.007 2280.3 735.002 Q2278.86 735.996 2277.11 736.843 L2274.72 734.449 Q2276.35 734.02 2277.88 733.099 Q2279.42 732.178 2280.75 730.84 Q2283.09 728.508 2283.38 726.372 Q2283.69 724.223 2281.93 722.468 Q2280.31 720.847 2278.26 721.081 Q2276.21 721.289 2274.19 723.315 L2272.05 725.451 L2270.01 723.413 L2272.25 721.179 Q2274.08 719.35 2274.32 717.656 Q2274.56 715.949 2273.18 714.574 Q2271.77 713.163 2270.01 713.42 Q2268.26 713.654 2266.39 715.52 Q2265.37 716.539 2264.43 717.926 Q2263.48 719.313 2262.55 721.179 L2260.34 718.969 Q2261.36 717.165 2262.39 715.741 Q2263.43 714.304 2264.53 713.212 Q2267.35 710.388 2270.28 710.032 Q2273.21 709.664 2275.39 711.849 Q2276.91 713.371 2277.1 715.299 Q2277.27 717.214 2276.07 719.227 Z" fill="#000000" fill-rule="nonzero" fill-opacity="1" /><path clip-path="url(#clip170)" d="M2276.13 702.274 L2285.86 692.539 L2287.95 694.626 L2280.48 702.09 L2284.98 706.583 Q2285.33 705.858 2285.79 705.232 Q2286.23 704.594 2286.77 704.054 Q2289.84 700.985 2293.31 700.874 Q2296.79 700.764 2299.66 703.636 Q2302.62 706.595 2302.42 710.081 Q2302.21 713.555 2298.86 716.907 Q2297.71 718.061 2296.31 719.067 Q2294.92 720.062 2293.25 720.946 L2290.76 718.454 Q2292.47 717.95 2293.94 717.066 Q2295.41 716.183 2296.73 714.869 Q2298.85 712.745 2298.97 710.388 Q2299.1 708.031 2297.18 706.116 Q2295.27 704.201 2292.91 704.324 Q2290.55 704.447 2288.43 706.57 Q2287.43 707.565 2286.66 708.78 Q2285.9 709.983 2285.33 711.481 L2276.13 702.274 Z" fill="#000000" fill-rule="nonzero" fill-opacity="1" /><polyline clip-path="url(#clip170)" style="stroke:#000000; stroke-linecap:round; stroke-linejoin:round; stroke-width:4; stroke-opacity:1; fill:none" points="1327.7,667.406 1327.7,97.5521 "/>
<polyline clip-path="url(#clip170)" style="stroke:#000000; stroke-linecap:round; stroke-linejoin:round; stroke-width:4; stroke-opacity:1; fill:none" points="1327.7,667.406 1346.6,667.406 "/>
<polyline clip-path="url(#clip170)" style="stroke:#000000; stroke-linecap:round; stroke-linejoin:round; stroke-width:4; stroke-opacity:1; fill:none" points="1327.7,517.445 1346.6,517.445 "/>
<polyline clip-path="url(#clip170)" style="stroke:#000000; stroke-linecap:round; stroke-linejoin:round; stroke-width:4; stroke-opacity:1; fill:none" points="1327.7,367.483 1346.6,367.483 "/>
<polyline clip-path="url(#clip170)" style="stroke:#000000; stroke-linecap:round; stroke-linejoin:round; stroke-width:4; stroke-opacity:1; fill:none" points="1327.7,217.521 1346.6,217.521 "/>
<path clip-path="url(#clip170)" d="M1282.75 656.755 Q1280.04 656.755 1278.67 659.429 Q1277.31 662.085 1277.31 667.432 Q1277.31 672.762 1278.67 675.436 Q1280.04 678.092 1282.75 678.092 Q1285.47 678.092 1286.83 675.436 Q1288.2 672.762 1288.2 667.432 Q1288.2 662.085 1286.83 659.429 Q1285.47 656.755 1282.75 656.755 M1282.75 653.978 Q1287.1 653.978 1289.39 657.432 Q1291.7 660.87 1291.7 667.432 Q1291.7 673.978 1289.39 677.432 Q1287.1 680.87 1282.75 680.87 Q1278.39 680.87 1276.08 677.432 Q1273.79 673.978 1273.79 667.432 Q1273.79 660.87 1276.08 657.432 Q1278.39 653.978 1282.75 653.978 Z" fill="#000000" fill-rule="nonzero" fill-opacity="1" /><path clip-path="url(#clip170)" d="M1253.23 527.453 L1258.96 527.453 L1258.96 507.679 L1252.73 508.929 L1252.73 505.735 L1258.93 504.485 L1262.43 504.485 L1262.43 527.453 L1268.16 527.453 L1268.16 530.405 L1253.23 530.405 L1253.23 527.453 Z" fill="#000000" fill-rule="nonzero" fill-opacity="1" /><path clip-path="url(#clip170)" d="M1282.75 506.794 Q1280.04 506.794 1278.67 509.467 Q1277.31 512.124 1277.31 517.471 Q1277.31 522.801 1278.67 525.474 Q1280.04 528.13 1282.75 528.13 Q1285.47 528.13 1286.83 525.474 Q1288.2 522.801 1288.2 517.471 Q1288.2 512.124 1286.83 509.467 Q1285.47 506.794 1282.75 506.794 M1282.75 504.016 Q1287.1 504.016 1289.39 507.471 Q1291.7 510.908 1291.7 517.471 Q1291.7 524.016 1289.39 527.471 Q1287.1 530.908 1282.75 530.908 Q1278.39 530.908 1276.08 527.471 Q1273.79 524.016 1273.79 517.471 Q1273.79 510.908 1276.08 507.471 Q1278.39 504.016 1282.75 504.016 Z" fill="#000000" fill-rule="nonzero" fill-opacity="1" /><path clip-path="url(#clip170)" d="M1255.64 377.492 L1267.88 377.492 L1267.88 380.443 L1251.43 380.443 L1251.43 377.492 Q1253.42 375.426 1256.86 371.954 Q1260.31 368.464 1261.2 367.457 Q1262.88 365.565 1263.54 364.263 Q1264.22 362.943 1264.22 361.676 Q1264.22 359.61 1262.76 358.308 Q1261.32 357.006 1259 357.006 Q1257.35 357.006 1255.51 357.579 Q1253.68 358.152 1251.6 359.315 L1251.6 355.773 Q1253.72 354.922 1255.56 354.488 Q1257.4 354.054 1258.93 354.054 Q1262.95 354.054 1265.35 356.068 Q1267.75 358.082 1267.75 361.45 Q1267.75 363.047 1267.14 364.488 Q1266.55 365.912 1264.97 367.856 Q1264.53 368.36 1262.21 370.773 Q1259.88 373.169 1255.64 377.492 Z" fill="#000000" fill-rule="nonzero" fill-opacity="1" /><path clip-path="url(#clip170)" d="M1282.75 356.832 Q1280.04 356.832 1278.67 359.506 Q1277.31 362.162 1277.31 367.509 Q1277.31 372.839 1278.67 375.513 Q1280.04 378.169 1282.75 378.169 Q1285.47 378.169 1286.83 375.513 Q1288.2 372.839 1288.2 367.509 Q1288.2 362.162 1286.83 359.506 Q1285.47 356.832 1282.75 356.832 M1282.75 354.054 Q1287.1 354.054 1289.39 357.509 Q1291.7 360.947 1291.7 367.509 Q1291.7 374.054 1289.39 377.509 Q1287.1 380.947 1282.75 380.947 Q1278.39 380.947 1276.08 377.509 Q1273.79 374.054 1273.79 367.509 Q1273.79 360.947 1276.08 357.509 Q1278.39 354.054 1282.75 354.054 Z" fill="#000000" fill-rule="nonzero" fill-opacity="1" /><path clip-path="url(#clip170)" d="M1263.25 216.506 Q1265.77 217.044 1267.17 218.745 Q1268.6 220.447 1268.6 222.947 Q1268.6 226.784 1265.96 228.884 Q1263.32 230.985 1258.46 230.985 Q1256.83 230.985 1255.09 230.655 Q1253.37 230.343 1251.53 229.7 L1251.53 226.315 Q1252.99 227.165 1254.72 227.6 Q1256.46 228.034 1258.35 228.034 Q1261.65 228.034 1263.37 226.731 Q1265.11 225.429 1265.11 222.947 Q1265.11 220.655 1263.49 219.37 Q1261.89 218.068 1259.03 218.068 L1256.01 218.068 L1256.01 215.186 L1259.17 215.186 Q1261.76 215.186 1263.13 214.162 Q1264.5 213.12 1264.5 211.176 Q1264.5 209.179 1263.08 208.12 Q1261.67 207.044 1259.03 207.044 Q1257.59 207.044 1255.94 207.357 Q1254.29 207.669 1252.31 208.329 L1252.31 205.204 Q1254.31 204.648 1256.04 204.37 Q1257.8 204.093 1259.34 204.093 Q1263.34 204.093 1265.66 205.916 Q1267.99 207.721 1267.99 210.811 Q1267.99 212.964 1266.76 214.457 Q1265.52 215.933 1263.25 216.506 Z" fill="#000000" fill-rule="nonzero" fill-opacity="1" /><path clip-path="url(#clip170)" d="M1282.75 206.87 Q1280.04 206.87 1278.67 209.544 Q1277.31 212.2 1277.31 217.547 Q1277.31 222.877 1278.67 225.551 Q1280.04 228.207 1282.75 228.207 Q1285.47 228.207 1286.83 225.551 Q1288.2 222.877 1288.2 217.547 Q1288.2 212.2 1286.83 209.544 Q1285.47 206.87 1282.75 206.87 M1282.75 204.093 Q1287.1 204.093 1289.39 207.548 Q1291.7 210.985 1291.7 217.547 Q1291.7 224.093 1289.39 227.547 Q1287.1 230.985 1282.75 230.985 Q1278.39 230.985 1276.08 227.547 Q1273.79 224.093 1273.79 217.547 Q1273.79 210.985 1276.08 207.548 Q1278.39 204.093 1282.75 204.093 Z" fill="#000000" fill-rule="nonzero" fill-opacity="1" /><path clip-path="url(#clip170)" d="M1339.6 18.9258 Q1336.08 18.9258 1334.19 21.4721 Q1332.19 24.1341 1332.19 28.5323 Q1332.19 33.185 1334.16 35.8702 Q1336.15 38.5322 1339.6 38.5322 Q1343 38.5322 1345 35.847 Q1346.99 33.1619 1346.99 28.5323 Q1346.99 24.2962 1345 21.4721 Q1343.17 18.9258 1339.6 18.9258 M1339.6 15.5462 L1353.75 15.5462 L1353.75 19.8054 L1348.98 19.8054 Q1351.5 23.4165 1351.5 28.5323 Q1351.5 34.898 1348.33 38.5091 Q1345.16 42.1433 1339.6 42.1433 Q1334.02 42.1433 1330.87 38.5091 Q1327.7 34.898 1327.7 28.5323 Q1327.7 22.1203 1330.87 18.5323 Q1333.49 15.5462 1339.6 15.5462 Z" fill="#000000" fill-rule="nonzero" fill-opacity="1" /><path clip-path="url(#clip170)" d="M1377.91 19.6666 Q1377.06 19.3656 1376.2 19.1342 Q1373.91 18.5323 1371.45 18.5323 Q1367.22 18.5323 1364.86 20.824 Q1362.66 22.9536 1362.24 26.8656 L1377.91 26.8656 L1377.91 30.1989 L1362.24 30.1989 Q1362.66 34.1109 1364.86 36.2405 Q1367.22 38.5322 1371.45 38.5322 Q1374.42 38.5322 1376.2 37.9304 L1377.91 37.3517 L1377.91 41.2174 L1376.08 41.634 Q1373.68 42.1433 1371.2 42.1433 Q1365 42.1433 1361.38 38.5322 Q1357.75 34.9211 1357.75 28.5323 Q1357.75 22.1434 1361.38 18.5323 Q1365 14.9212 1371.2 14.9212 Q1373.54 14.9212 1376.08 15.4305 Q1377.01 15.6157 1377.91 15.8934 L1377.91 19.6666 Z" fill="#000000" fill-rule="nonzero" fill-opacity="1" /><path clip-path="url(#clip173)" d="M1384.08 637.414 L1384.08 667.406 L1460.11 667.406 L1460.11 637.414 L1384.08 637.414 L1384.08 637.414  Z" fill="#009af9" fill-rule="evenodd" fill-opacity="1"/>
<polyline clip-path="url(#clip173)" style="stroke:#000000; stroke-linecap:round; stroke-linejoin:round; stroke-width:4; stroke-opacity:1; fill:none" points="1384.08,637.414 1384.08,667.406 1460.11,667.406 1460.11,637.414 1384.08,637.414 "/>
<path clip-path="url(#clip173)" d="M1460.11 637.414 L1460.11 667.406 L1536.13 667.406 L1536.13 637.414 L1460.11 637.414 L1460.11 637.414  Z" fill="#009af9" fill-rule="evenodd" fill-opacity="1"/>
<polyline clip-path="url(#clip173)" style="stroke:#000000; stroke-linecap:round; stroke-linejoin:round; stroke-width:4; stroke-opacity:1; fill:none" points="1460.11,637.414 1460.11,667.406 1536.13,667.406 1536.13,637.414 1460.11,637.414 "/>
<path clip-path="url(#clip173)" d="M1536.13 577.429 L1536.13 667.406 L1612.16 667.406 L1612.16 577.429 L1536.13 577.429 L1536.13 577.429  Z" fill="#009af9" fill-rule="evenodd" fill-opacity="1"/>
<polyline clip-path="url(#clip173)" style="stroke:#000000; stroke-linecap:round; stroke-linejoin:round; stroke-width:4; stroke-opacity:1; fill:none" points="1536.13,577.429 1536.13,667.406 1612.16,667.406 1612.16,577.429 1536.13,577.429 "/>
<path clip-path="url(#clip173)" d="M1612.16 577.429 L1612.16 667.406 L1688.18 667.406 L1688.18 577.429 L1612.16 577.429 L1612.16 577.429  Z" fill="#009af9" fill-rule="evenodd" fill-opacity="1"/>
<polyline clip-path="url(#clip173)" style="stroke:#000000; stroke-linecap:round; stroke-linejoin:round; stroke-width:4; stroke-opacity:1; fill:none" points="1612.16,577.429 1612.16,667.406 1688.18,667.406 1688.18,577.429 1612.16,577.429 "/>
<path clip-path="url(#clip173)" d="M1688.18 382.479 L1688.18 667.406 L1764.21 667.406 L1764.21 382.479 L1688.18 382.479 L1688.18 382.479  Z" fill="#009af9" fill-rule="evenodd" fill-opacity="1"/>
<polyline clip-path="url(#clip173)" style="stroke:#000000; stroke-linecap:round; stroke-linejoin:round; stroke-width:4; stroke-opacity:1; fill:none" points="1688.18,382.479 1688.18,667.406 1764.21,667.406 1764.21,382.479 1688.18,382.479 "/>
<path clip-path="url(#clip173)" d="M1764.21 322.495 L1764.21 667.406 L1840.23 667.406 L1840.23 322.495 L1764.21 322.495 L1764.21 322.495  Z" fill="#009af9" fill-rule="evenodd" fill-opacity="1"/>
<polyline clip-path="url(#clip173)" style="stroke:#000000; stroke-linecap:round; stroke-linejoin:round; stroke-width:4; stroke-opacity:1; fill:none" points="1764.21,322.495 1764.21,667.406 1840.23,667.406 1840.23,322.495 1764.21,322.495 "/>
<path clip-path="url(#clip173)" d="M1840.23 97.5521 L1840.23 667.406 L1916.25 667.406 L1916.25 97.5521 L1840.23 97.5521 L1840.23 97.5521  Z" fill="#009af9" fill-rule="evenodd" fill-opacity="1"/>
<polyline clip-path="url(#clip173)" style="stroke:#000000; stroke-linecap:round; stroke-linejoin:round; stroke-width:4; stroke-opacity:1; fill:none" points="1840.23,97.5521 1840.23,667.406 1916.25,667.406 1916.25,97.5521 1840.23,97.5521 "/>
<path clip-path="url(#clip173)" d="M1916.25 337.491 L1916.25 667.406 L1992.28 667.406 L1992.28 337.491 L1916.25 337.491 L1916.25 337.491  Z" fill="#009af9" fill-rule="evenodd" fill-opacity="1"/>
<polyline clip-path="url(#clip173)" style="stroke:#000000; stroke-linecap:round; stroke-linejoin:round; stroke-width:4; stroke-opacity:1; fill:none" points="1916.25,337.491 1916.25,667.406 1992.28,667.406 1992.28,337.491 1916.25,337.491 "/>
<path clip-path="url(#clip173)" d="M1992.28 247.514 L1992.28 667.406 L2068.3 667.406 L2068.3 247.514 L1992.28 247.514 L1992.28 247.514  Z" fill="#009af9" fill-rule="evenodd" fill-opacity="1"/>
<polyline clip-path="url(#clip173)" style="stroke:#000000; stroke-linecap:round; stroke-linejoin:round; stroke-width:4; stroke-opacity:1; fill:none" points="1992.28,247.514 1992.28,667.406 2068.3,667.406 2068.3,247.514 1992.28,247.514 "/>
<path clip-path="url(#clip173)" d="M2068.3 322.495 L2068.3 667.406 L2144.33 667.406 L2144.33 322.495 L2068.3 322.495 L2068.3 322.495  Z" fill="#009af9" fill-rule="evenodd" fill-opacity="1"/>
<polyline clip-path="url(#clip173)" style="stroke:#000000; stroke-linecap:round; stroke-linejoin:round; stroke-width:4; stroke-opacity:1; fill:none" points="2068.3,322.495 2068.3,667.406 2144.33,667.406 2144.33,322.495 2068.3,322.495 "/>
<path clip-path="url(#clip173)" d="M2144.33 457.46 L2144.33 667.406 L2220.35 667.406 L2220.35 457.46 L2144.33 457.46 L2144.33 457.46  Z" fill="#009af9" fill-rule="evenodd" fill-opacity="1"/>
<polyline clip-path="url(#clip173)" style="stroke:#000000; stroke-linecap:round; stroke-linejoin:round; stroke-width:4; stroke-opacity:1; fill:none" points="2144.33,457.46 2144.33,667.406 2220.35,667.406 2220.35,457.46 2144.33,457.46 "/>
<path clip-path="url(#clip173)" d="M2220.35 472.456 L2220.35 667.406 L2296.38 667.406 L2296.38 472.456 L2220.35 472.456 L2220.35 472.456  Z" fill="#009af9" fill-rule="evenodd" fill-opacity="1"/>
<polyline clip-path="url(#clip173)" style="stroke:#000000; stroke-linecap:round; stroke-linejoin:round; stroke-width:4; stroke-opacity:1; fill:none" points="2220.35,472.456 2220.35,667.406 2296.38,667.406 2296.38,472.456 2220.35,472.456 "/>
<circle clip-path="url(#clip173)" style="fill:#009af9; stroke:none; fill-opacity:0" cx="1422.1" cy="637.414" r="2"/>
<circle clip-path="url(#clip173)" style="fill:#009af9; stroke:none; fill-opacity:0" cx="1498.12" cy="637.414" r="2"/>
<circle clip-path="url(#clip173)" style="fill:#009af9; stroke:none; fill-opacity:0" cx="1574.14" cy="577.429" r="2"/>
<circle clip-path="url(#clip173)" style="fill:#009af9; stroke:none; fill-opacity:0" cx="1650.17" cy="577.429" r="2"/>
<circle clip-path="url(#clip173)" style="fill:#009af9; stroke:none; fill-opacity:0" cx="1726.19" cy="382.479" r="2"/>
<circle clip-path="url(#clip173)" style="fill:#009af9; stroke:none; fill-opacity:0" cx="1802.22" cy="322.495" r="2"/>
<circle clip-path="url(#clip173)" style="fill:#009af9; stroke:none; fill-opacity:0" cx="1878.24" cy="97.5521" r="2"/>
<circle clip-path="url(#clip173)" style="fill:#009af9; stroke:none; fill-opacity:0" cx="1954.27" cy="337.491" r="2"/>
<circle clip-path="url(#clip173)" style="fill:#009af9; stroke:none; fill-opacity:0" cx="2030.29" cy="247.514" r="2"/>
<circle clip-path="url(#clip173)" style="fill:#009af9; stroke:none; fill-opacity:0" cx="2106.32" cy="322.495" r="2"/>
<circle clip-path="url(#clip173)" style="fill:#009af9; stroke:none; fill-opacity:0" cx="2182.34" cy="457.46" r="2"/>
<circle clip-path="url(#clip173)" style="fill:#009af9; stroke:none; fill-opacity:0" cx="2258.36" cy="472.456" r="2"/>
<polyline clip-path="url(#clip173)" style="stroke:#ff0000; stroke-linecap:round; stroke-linejoin:round; stroke-width:8; stroke-opacity:1; fill:none" stroke-dasharray="32, 20" points="1917.65,1237.26 1917.65,-472.302 "/>
<polyline clip-path="url(#clip173)" style="stroke:#ff0000; stroke-linecap:round; stroke-linejoin:round; stroke-width:6; stroke-opacity:1; fill:none" stroke-dasharray="24, 12, 3, 12" points="1505.11,1237.26 1505.11,-472.302 "/>
<polyline clip-path="url(#clip173)" style="stroke:#ff0000; stroke-linecap:round; stroke-linejoin:round; stroke-width:6; stroke-opacity:1; fill:none" stroke-dasharray="24, 12, 3, 12" points="2246.79,1237.26 2246.79,-472.302 "/>
<path clip-path="url(#clip170)" d="M128.138 1467.41 L1153.19 1467.41 L1153.19 897.552 L128.138 897.552  Z" fill="#ffffff" fill-rule="evenodd" fill-opacity="1"/>
<defs>
  <clipPath id="clip174">
    <rect x="128" y="897" width="1026" height="571"/>
  </clipPath>
</defs>
<polyline clip-path="url(#clip174)" style="stroke:#000000; stroke-linecap:round; stroke-linejoin:round; stroke-width:2; stroke-opacity:0.1; fill:none" points="314.845,1467.41 314.845,897.552 "/>
<polyline clip-path="url(#clip174)" style="stroke:#000000; stroke-linecap:round; stroke-linejoin:round; stroke-width:2; stroke-opacity:0.1; fill:none" points="575.5,1467.41 575.5,897.552 "/>
<polyline clip-path="url(#clip174)" style="stroke:#000000; stroke-linecap:round; stroke-linejoin:round; stroke-width:2; stroke-opacity:0.1; fill:none" points="836.155,1467.41 836.155,897.552 "/>
<polyline clip-path="url(#clip174)" style="stroke:#000000; stroke-linecap:round; stroke-linejoin:round; stroke-width:2; stroke-opacity:0.1; fill:none" points="1096.81,1467.41 1096.81,897.552 "/>
<polyline clip-path="url(#clip174)" style="stroke:#000000; stroke-linecap:round; stroke-linejoin:round; stroke-width:2; stroke-opacity:0.1; fill:none" points="128.138,1467.41 1153.19,1467.41 "/>
<polyline clip-path="url(#clip174)" style="stroke:#000000; stroke-linecap:round; stroke-linejoin:round; stroke-width:2; stroke-opacity:0.1; fill:none" points="128.138,1369.16 1153.19,1369.16 "/>
<polyline clip-path="url(#clip174)" style="stroke:#000000; stroke-linecap:round; stroke-linejoin:round; stroke-width:2; stroke-opacity:0.1; fill:none" points="128.138,1270.9 1153.19,1270.9 "/>
<polyline clip-path="url(#clip174)" style="stroke:#000000; stroke-linecap:round; stroke-linejoin:round; stroke-width:2; stroke-opacity:0.1; fill:none" points="128.138,1172.65 1153.19,1172.65 "/>
<polyline clip-path="url(#clip174)" style="stroke:#000000; stroke-linecap:round; stroke-linejoin:round; stroke-width:2; stroke-opacity:0.1; fill:none" points="128.138,1074.4 1153.19,1074.4 "/>
<polyline clip-path="url(#clip174)" style="stroke:#000000; stroke-linecap:round; stroke-linejoin:round; stroke-width:2; stroke-opacity:0.1; fill:none" points="128.138,976.153 1153.19,976.153 "/>
<polyline clip-path="url(#clip170)" style="stroke:#000000; stroke-linecap:round; stroke-linejoin:round; stroke-width:4; stroke-opacity:1; fill:none" points="128.138,1467.41 1153.19,1467.41 "/>
<polyline clip-path="url(#clip170)" style="stroke:#000000; stroke-linecap:round; stroke-linejoin:round; stroke-width:4; stroke-opacity:1; fill:none" points="314.845,1467.41 314.845,1448.51 "/>
<polyline clip-path="url(#clip170)" style="stroke:#000000; stroke-linecap:round; stroke-linejoin:round; stroke-width:4; stroke-opacity:1; fill:none" points="575.5,1467.41 575.5,1448.51 "/>
<polyline clip-path="url(#clip170)" style="stroke:#000000; stroke-linecap:round; stroke-linejoin:round; stroke-width:4; stroke-opacity:1; fill:none" points="836.155,1467.41 836.155,1448.51 "/>
<polyline clip-path="url(#clip170)" style="stroke:#000000; stroke-linecap:round; stroke-linejoin:round; stroke-width:4; stroke-opacity:1; fill:none" points="1096.81,1467.41 1096.81,1448.51 "/>
<path clip-path="url(#clip170)" d="M261.34 1538.8 Q259.425 1540.71 260.345 1543.57 Q261.266 1546.41 265.047 1550.19 Q268.816 1553.96 271.664 1554.89 Q274.512 1555.8 276.427 1553.88 Q278.354 1551.96 277.434 1549.12 Q276.513 1546.26 272.744 1542.49 Q268.963 1538.71 266.115 1537.8 Q263.267 1536.87 261.34 1538.8 M259.375 1536.83 Q262.457 1533.75 266.52 1534.57 Q270.584 1535.37 275.224 1540.01 Q279.852 1544.64 280.662 1548.71 Q281.472 1552.77 278.391 1555.85 Q275.31 1558.93 271.246 1558.13 Q267.183 1557.31 262.555 1552.68 Q257.915 1548.04 257.104 1543.99 Q256.294 1539.91 259.375 1536.83 Z" fill="#000000" fill-rule="nonzero" fill-opacity="1" /><path clip-path="url(#clip170)" d="M285.609 1541.68 L288.2 1539.09 L291.318 1542.21 L288.728 1544.8 L285.609 1541.68 Z" fill="#000000" fill-rule="nonzero" fill-opacity="1" /><path clip-path="url(#clip170)" d="M278.416 1518.45 L288.151 1508.72 L290.238 1510.81 L282.774 1518.27 L287.267 1522.76 Q287.623 1522.04 288.077 1521.41 Q288.519 1520.77 289.059 1520.23 Q292.128 1517.16 295.602 1517.05 Q299.076 1516.94 301.949 1519.82 Q304.907 1522.77 304.711 1526.26 Q304.502 1529.74 301.151 1533.09 Q299.997 1534.24 298.598 1535.25 Q297.21 1536.24 295.541 1537.13 L293.049 1534.63 Q294.755 1534.13 296.228 1533.25 Q297.701 1532.36 299.015 1531.05 Q301.139 1528.93 301.261 1526.57 Q301.384 1524.21 299.469 1522.3 Q297.554 1520.38 295.197 1520.5 Q292.84 1520.63 290.716 1522.75 Q289.722 1523.74 288.949 1524.96 Q288.187 1526.16 287.623 1527.66 L278.416 1518.45 Z" fill="#000000" fill-rule="nonzero" fill-opacity="1" /><path clip-path="url(#clip170)" d="M310.346 1503.42 Q312.506 1502.02 314.704 1502.22 Q316.913 1502.42 318.681 1504.19 Q321.394 1506.9 321.014 1510.25 Q320.633 1513.6 317.196 1517.04 Q316.042 1518.2 314.581 1519.19 Q313.145 1520.18 311.389 1521.03 L308.995 1518.64 Q310.628 1518.21 312.163 1517.29 Q313.697 1516.37 315.035 1515.03 Q317.368 1512.7 317.662 1510.56 Q317.969 1508.41 316.214 1506.66 Q314.593 1505.04 312.543 1505.27 Q310.493 1505.48 308.468 1507.5 L306.332 1509.64 L304.294 1507.6 L306.528 1505.37 Q308.357 1503.54 308.603 1501.84 Q308.836 1500.14 307.461 1498.76 Q306.049 1497.35 304.294 1497.61 Q302.538 1497.84 300.672 1499.71 Q299.653 1500.73 298.708 1502.11 Q297.763 1503.5 296.83 1505.37 L294.62 1503.16 Q295.639 1501.35 296.67 1499.93 Q297.714 1498.49 298.806 1497.4 Q301.63 1494.58 304.564 1494.22 Q307.485 1493.85 309.671 1496.04 Q311.193 1497.56 311.377 1499.49 Q311.549 1501.4 310.346 1503.42 Z" fill="#000000" fill-rule="nonzero" fill-opacity="1" /><path clip-path="url(#clip170)" d="M521.393 1539.4 Q519.478 1541.31 520.399 1544.17 Q521.32 1547.01 525.101 1550.79 Q528.869 1554.56 531.717 1555.49 Q534.565 1556.4 536.48 1554.48 Q538.408 1552.56 537.487 1549.72 Q536.566 1546.86 532.798 1543.09 Q529.017 1539.31 526.169 1538.4 Q523.321 1537.47 521.393 1539.4 M519.429 1537.43 Q522.51 1534.35 526.574 1535.17 Q530.637 1535.97 535.277 1540.61 Q539.906 1545.24 540.716 1549.32 Q541.526 1553.37 538.445 1556.45 Q535.363 1559.53 531.3 1558.73 Q527.237 1557.91 522.609 1553.28 Q517.968 1548.64 517.158 1544.59 Q516.348 1540.51 519.429 1537.43 Z" fill="#000000" fill-rule="nonzero" fill-opacity="1" /><path clip-path="url(#clip170)" d="M545.663 1542.28 L548.253 1539.69 L551.371 1542.81 L548.781 1545.4 L545.663 1542.28 Z" fill="#000000" fill-rule="nonzero" fill-opacity="1" /><path clip-path="url(#clip170)" d="M538.469 1519.06 L548.204 1509.32 L550.291 1511.41 L542.827 1518.87 L547.32 1523.36 Q547.676 1522.64 548.131 1522.01 Q548.572 1521.38 549.113 1520.84 Q552.182 1517.77 555.656 1517.66 Q559.13 1517.55 562.002 1520.42 Q564.961 1523.38 564.765 1526.86 Q564.556 1530.34 561.205 1533.69 Q560.051 1534.84 558.651 1535.85 Q557.264 1536.84 555.594 1537.73 L553.102 1535.24 Q554.809 1534.73 556.282 1533.85 Q557.755 1532.96 559.069 1531.65 Q561.192 1529.53 561.315 1527.17 Q561.438 1524.81 559.523 1522.9 Q557.608 1520.98 555.251 1521.11 Q552.894 1521.23 550.77 1523.35 Q549.776 1524.35 549.002 1525.56 Q548.241 1526.76 547.676 1528.26 L538.469 1519.06 Z" fill="#000000" fill-rule="nonzero" fill-opacity="1" /><path clip-path="url(#clip170)" d="M563.414 1498.43 L566.937 1514.48 L573.198 1508.22 L563.414 1498.43 M560.603 1496.92 L563.721 1493.8 L575.666 1505.75 L578.281 1503.13 L580.343 1505.2 L577.728 1507.81 L582.049 1512.13 L579.582 1514.6 L575.261 1510.28 L566.987 1518.55 L564.593 1516.16 L560.603 1496.92 Z" fill="#000000" fill-rule="nonzero" fill-opacity="1" /><path clip-path="url(#clip170)" d="M782.834 1538.61 Q780.919 1540.53 781.84 1543.39 Q782.76 1546.22 786.541 1550 Q790.31 1553.77 793.158 1554.7 Q796.006 1555.61 797.921 1553.7 Q799.849 1551.77 798.928 1548.94 Q798.007 1546.07 794.238 1542.31 Q790.457 1538.53 787.609 1537.62 Q784.761 1536.68 782.834 1538.61 M780.87 1536.65 Q783.951 1533.57 788.014 1534.39 Q792.078 1535.19 796.718 1539.83 Q801.346 1544.45 802.157 1548.53 Q802.967 1552.58 799.885 1555.66 Q796.804 1558.74 792.741 1557.95 Q788.677 1557.12 784.049 1552.5 Q779.409 1547.85 778.599 1543.8 Q777.788 1539.73 780.87 1536.65 Z" fill="#000000" fill-rule="nonzero" fill-opacity="1" /><path clip-path="url(#clip170)" d="M807.104 1541.5 L809.694 1538.91 L812.812 1542.02 L810.222 1544.61 L807.104 1541.5 Z" fill="#000000" fill-rule="nonzero" fill-opacity="1" /><path clip-path="url(#clip170)" d="M799.91 1518.27 L809.645 1508.53 L811.732 1510.62 L804.268 1518.09 L808.761 1522.58 Q809.117 1521.85 809.571 1521.23 Q810.013 1520.59 810.553 1520.05 Q813.622 1516.98 817.097 1516.87 Q820.571 1516.76 823.443 1519.63 Q826.402 1522.59 826.205 1526.08 Q825.997 1529.55 822.645 1532.9 Q821.491 1534.06 820.092 1535.06 Q818.705 1536.06 817.035 1536.94 L814.543 1534.45 Q816.249 1533.95 817.723 1533.06 Q819.196 1532.18 820.509 1530.86 Q822.633 1528.74 822.756 1526.38 Q822.879 1524.03 820.963 1522.11 Q819.048 1520.2 816.691 1520.32 Q814.334 1520.44 812.211 1522.57 Q811.216 1523.56 810.443 1524.78 Q809.682 1525.98 809.117 1527.48 L799.91 1518.27 Z" fill="#000000" fill-rule="nonzero" fill-opacity="1" /><path clip-path="url(#clip170)" d="M815.906 1502.27 L825.641 1492.54 L827.728 1494.63 L820.264 1502.09 L824.757 1506.58 Q825.113 1505.86 825.567 1505.23 Q826.009 1504.59 826.549 1504.05 Q829.618 1500.98 833.092 1500.87 Q836.566 1500.76 839.439 1503.64 Q842.398 1506.59 842.201 1510.08 Q841.992 1513.56 838.641 1516.91 Q837.487 1518.06 836.088 1519.07 Q834.7 1520.06 833.031 1520.95 L830.539 1518.45 Q832.245 1517.95 833.718 1517.07 Q835.191 1516.18 836.505 1514.87 Q838.629 1512.75 838.752 1510.39 Q838.874 1508.03 836.959 1506.12 Q835.044 1504.2 832.687 1504.32 Q830.33 1504.45 828.206 1506.57 Q827.212 1507.56 826.439 1508.78 Q825.678 1509.98 825.113 1511.48 L815.906 1502.27 Z" fill="#000000" fill-rule="nonzero" fill-opacity="1" /><path clip-path="url(#clip170)" d="M1042.88 1539.22 Q1040.96 1541.14 1041.88 1544 Q1042.8 1546.84 1046.58 1550.62 Q1050.35 1554.39 1053.2 1555.32 Q1056.05 1556.23 1057.96 1554.31 Q1059.89 1552.38 1058.97 1549.55 Q1058.05 1546.69 1054.28 1542.92 Q1050.5 1539.14 1047.65 1538.23 Q1044.8 1537.3 1042.88 1539.22 M1040.91 1537.26 Q1043.99 1534.18 1048.06 1535 Q1052.12 1535.8 1056.76 1540.44 Q1061.39 1545.07 1062.2 1549.14 Q1063.01 1553.19 1059.93 1556.28 Q1056.85 1559.36 1052.78 1558.56 Q1048.72 1557.74 1044.09 1553.11 Q1039.45 1548.47 1038.64 1544.42 Q1037.83 1540.34 1040.91 1537.26 Z" fill="#000000" fill-rule="nonzero" fill-opacity="1" /><path clip-path="url(#clip170)" d="M1067.15 1542.11 L1069.74 1539.52 L1072.85 1542.64 L1070.26 1545.23 L1067.15 1542.11 Z" fill="#000000" fill-rule="nonzero" fill-opacity="1" /><path clip-path="url(#clip170)" d="M1059.95 1518.88 L1069.69 1509.15 L1071.77 1511.24 L1064.31 1518.7 L1068.8 1523.19 Q1069.16 1522.47 1069.61 1521.84 Q1070.05 1521.2 1070.59 1520.66 Q1073.66 1517.59 1077.14 1517.48 Q1080.61 1517.37 1083.48 1520.25 Q1086.44 1523.2 1086.25 1526.69 Q1086.04 1530.17 1082.69 1533.52 Q1081.53 1534.67 1080.13 1535.68 Q1078.75 1536.67 1077.08 1537.56 L1074.58 1535.06 Q1076.29 1534.56 1077.76 1533.68 Q1079.24 1532.79 1080.55 1531.48 Q1082.67 1529.35 1082.8 1527 Q1082.92 1524.64 1081 1522.73 Q1079.09 1520.81 1076.73 1520.93 Q1074.38 1521.06 1072.25 1523.18 Q1071.26 1524.17 1070.48 1525.39 Q1069.72 1526.59 1069.16 1528.09 L1059.95 1518.88 Z" fill="#000000" fill-rule="nonzero" fill-opacity="1" /><path clip-path="url(#clip170)" d="M1089.71 1505.48 Q1088.04 1507.15 1088.2 1509.27 Q1088.37 1511.38 1090.36 1513.37 Q1092.34 1515.35 1094.46 1515.53 Q1096.58 1515.69 1098.25 1514.02 Q1099.92 1512.35 1099.75 1510.24 Q1099.58 1508.1 1097.6 1506.13 Q1095.61 1504.14 1093.49 1503.98 Q1091.38 1503.81 1089.71 1505.48 M1086.86 1492.78 L1089.12 1495.04 Q1087.74 1495.53 1086.55 1496.26 Q1085.38 1496.97 1084.44 1497.9 Q1081.99 1500.36 1082.34 1503.32 Q1082.71 1506.26 1085.88 1509.8 Q1085.53 1508.01 1086.06 1506.35 Q1086.58 1504.68 1087.89 1503.37 Q1090.65 1500.6 1093.93 1500.69 Q1097.21 1500.75 1100.09 1503.64 Q1102.92 1506.46 1102.95 1509.84 Q1102.99 1513.21 1100.22 1515.99 Q1097.04 1519.17 1092.92 1518.42 Q1088.8 1517.66 1084.17 1513.03 Q1079.83 1508.68 1079.31 1504.04 Q1078.78 1499.39 1082.26 1495.91 Q1083.19 1494.98 1084.32 1494.22 Q1085.46 1493.45 1086.86 1492.78 Z" fill="#000000" fill-rule="nonzero" fill-opacity="1" /><polyline clip-path="url(#clip170)" style="stroke:#000000; stroke-linecap:round; stroke-linejoin:round; stroke-width:4; stroke-opacity:1; fill:none" points="128.138,1467.41 128.138,897.552 "/>
<polyline clip-path="url(#clip170)" style="stroke:#000000; stroke-linecap:round; stroke-linejoin:round; stroke-width:4; stroke-opacity:1; fill:none" points="128.138,1467.41 147.035,1467.41 "/>
<polyline clip-path="url(#clip170)" style="stroke:#000000; stroke-linecap:round; stroke-linejoin:round; stroke-width:4; stroke-opacity:1; fill:none" points="128.138,1369.16 147.035,1369.16 "/>
<polyline clip-path="url(#clip170)" style="stroke:#000000; stroke-linecap:round; stroke-linejoin:round; stroke-width:4; stroke-opacity:1; fill:none" points="128.138,1270.9 147.035,1270.9 "/>
<polyline clip-path="url(#clip170)" style="stroke:#000000; stroke-linecap:round; stroke-linejoin:round; stroke-width:4; stroke-opacity:1; fill:none" points="128.138,1172.65 147.035,1172.65 "/>
<polyline clip-path="url(#clip170)" style="stroke:#000000; stroke-linecap:round; stroke-linejoin:round; stroke-width:4; stroke-opacity:1; fill:none" points="128.138,1074.4 147.035,1074.4 "/>
<polyline clip-path="url(#clip170)" style="stroke:#000000; stroke-linecap:round; stroke-linejoin:round; stroke-width:4; stroke-opacity:1; fill:none" points="128.138,976.153 147.035,976.153 "/>
<path clip-path="url(#clip170)" d="M83.1795 1456.76 Q80.4711 1456.76 79.0996 1459.43 Q77.7455 1462.09 77.7455 1467.43 Q77.7455 1472.76 79.0996 1475.44 Q80.4711 1478.09 83.1795 1478.09 Q85.9051 1478.09 87.2593 1475.44 Q88.6308 1472.76 88.6308 1467.43 Q88.6308 1462.09 87.2593 1459.43 Q85.9051 1456.76 83.1795 1456.76 M83.1795 1453.98 Q87.5371 1453.98 89.8287 1457.43 Q92.1377 1460.87 92.1377 1467.43 Q92.1377 1473.98 89.8287 1477.43 Q87.5371 1480.87 83.1795 1480.87 Q78.8218 1480.87 76.5128 1477.43 Q74.2212 1473.98 74.2212 1467.43 Q74.2212 1460.87 76.5128 1457.43 Q78.8218 1453.98 83.1795 1453.98 Z" fill="#000000" fill-rule="nonzero" fill-opacity="1" /><path clip-path="url(#clip170)" d="M53.6657 1379.16 L59.3949 1379.16 L59.3949 1359.39 L53.1623 1360.64 L53.1623 1357.45 L59.3601 1356.2 L62.8671 1356.2 L62.8671 1379.16 L68.5962 1379.16 L68.5962 1382.12 L53.6657 1382.12 L53.6657 1379.16 Z" fill="#000000" fill-rule="nonzero" fill-opacity="1" /><path clip-path="url(#clip170)" d="M83.1795 1358.5 Q80.4711 1358.5 79.0996 1361.18 Q77.7455 1363.83 77.7455 1369.18 Q77.7455 1374.51 79.0996 1377.19 Q80.4711 1379.84 83.1795 1379.84 Q85.9051 1379.84 87.2593 1377.19 Q88.6308 1374.51 88.6308 1369.18 Q88.6308 1363.83 87.2593 1361.18 Q85.9051 1358.5 83.1795 1358.5 M83.1795 1355.73 Q87.5371 1355.73 89.8287 1359.18 Q92.1377 1362.62 92.1377 1369.18 Q92.1377 1375.73 89.8287 1379.18 Q87.5371 1382.62 83.1795 1382.62 Q78.8218 1382.62 76.5128 1379.18 Q74.2212 1375.73 74.2212 1369.18 Q74.2212 1362.62 76.5128 1359.18 Q78.8218 1355.73 83.1795 1355.73 Z" fill="#000000" fill-rule="nonzero" fill-opacity="1" /><path clip-path="url(#clip170)" d="M56.0789 1280.91 L68.3184 1280.91 L68.3184 1283.86 L51.8602 1283.86 L51.8602 1280.91 Q53.8567 1278.85 57.2942 1275.38 Q60.749 1271.89 61.6344 1270.88 Q63.3184 1268.99 63.9782 1267.68 Q64.6552 1266.36 64.6552 1265.1 Q64.6552 1263.03 63.1969 1261.73 Q61.756 1260.43 59.4296 1260.43 Q57.7803 1260.43 55.94 1261 Q54.1171 1261.57 52.0338 1262.74 L52.0338 1259.19 Q54.1518 1258.34 55.9921 1257.91 Q57.8324 1257.48 59.3601 1257.48 Q63.3879 1257.48 65.7837 1259.49 Q68.1795 1261.5 68.1795 1264.87 Q68.1795 1266.47 67.5719 1267.91 Q66.9816 1269.33 65.4018 1271.28 Q64.9677 1271.78 62.6414 1274.19 Q60.315 1276.59 56.0789 1280.91 Z" fill="#000000" fill-rule="nonzero" fill-opacity="1" /><path clip-path="url(#clip170)" d="M83.1795 1260.25 Q80.4711 1260.25 79.0996 1262.93 Q77.7455 1265.58 77.7455 1270.93 Q77.7455 1276.26 79.0996 1278.93 Q80.4711 1281.59 83.1795 1281.59 Q85.9051 1281.59 87.2593 1278.93 Q88.6308 1276.26 88.6308 1270.93 Q88.6308 1265.58 87.2593 1262.93 Q85.9051 1260.25 83.1795 1260.25 M83.1795 1257.48 Q87.5371 1257.48 89.8287 1260.93 Q92.1377 1264.37 92.1377 1270.93 Q92.1377 1277.48 89.8287 1280.93 Q87.5371 1284.37 83.1795 1284.37 Q78.8218 1284.37 76.5128 1280.93 Q74.2212 1277.48 74.2212 1270.93 Q74.2212 1264.37 76.5128 1260.93 Q78.8218 1257.48 83.1795 1257.48 Z" fill="#000000" fill-rule="nonzero" fill-opacity="1" /><path clip-path="url(#clip170)" d="M63.683 1171.64 Q66.2004 1172.18 67.6066 1173.88 Q69.0302 1175.58 69.0302 1178.08 Q69.0302 1181.92 66.3913 1184.02 Q63.7525 1186.12 58.8914 1186.12 Q57.2595 1186.12 55.5234 1185.79 Q53.8046 1185.48 51.9643 1184.83 L51.9643 1181.45 Q53.4227 1182.3 55.1588 1182.73 Q56.8949 1183.17 58.7872 1183.17 Q62.0858 1183.17 63.8046 1181.86 Q65.5407 1180.56 65.5407 1178.08 Q65.5407 1175.79 63.9261 1174.5 Q62.3289 1173.2 59.4643 1173.2 L56.4435 1173.2 L56.4435 1170.32 L59.6032 1170.32 Q62.19 1170.32 63.5615 1169.29 Q64.933 1168.25 64.933 1166.31 Q64.933 1164.31 63.5094 1163.25 Q62.1032 1162.18 59.4643 1162.18 Q58.0233 1162.18 56.374 1162.49 Q54.7247 1162.8 52.7456 1163.46 L52.7456 1160.34 Q54.7421 1159.78 56.4782 1159.5 Q58.2317 1159.23 59.7768 1159.23 Q63.7698 1159.23 66.0962 1161.05 Q68.4226 1162.85 68.4226 1165.94 Q68.4226 1168.1 67.19 1169.59 Q65.9573 1171.07 63.683 1171.64 Z" fill="#000000" fill-rule="nonzero" fill-opacity="1" /><path clip-path="url(#clip170)" d="M83.1795 1162 Q80.4711 1162 79.0996 1164.68 Q77.7455 1167.33 77.7455 1172.68 Q77.7455 1178.01 79.0996 1180.68 Q80.4711 1183.34 83.1795 1183.34 Q85.9051 1183.34 87.2593 1180.68 Q88.6308 1178.01 88.6308 1172.68 Q88.6308 1167.33 87.2593 1164.68 Q85.9051 1162 83.1795 1162 M83.1795 1159.23 Q87.5371 1159.23 89.8287 1162.68 Q92.1377 1166.12 92.1377 1172.68 Q92.1377 1179.23 89.8287 1182.68 Q87.5371 1186.12 83.1795 1186.12 Q78.8218 1186.12 76.5128 1182.68 Q74.2212 1179.23 74.2212 1172.68 Q74.2212 1166.12 76.5128 1162.68 Q78.8218 1159.23 83.1795 1159.23 Z" fill="#000000" fill-rule="nonzero" fill-opacity="1" /><path clip-path="url(#clip170)" d="M62.6935 1064.5 L53.8393 1078.34 L62.6935 1078.34 L62.6935 1064.5 M61.7733 1061.44 L66.183 1061.44 L66.183 1078.34 L69.8809 1078.34 L69.8809 1081.25 L66.183 1081.25 L66.183 1087.36 L62.6935 1087.36 L62.6935 1081.25 L50.9921 1081.25 L50.9921 1077.87 L61.7733 1061.44 Z" fill="#000000" fill-rule="nonzero" fill-opacity="1" /><path clip-path="url(#clip170)" d="M83.1795 1063.75 Q80.4711 1063.75 79.0996 1066.43 Q77.7455 1069.08 77.7455 1074.43 Q77.7455 1079.76 79.0996 1082.43 Q80.4711 1085.09 83.1795 1085.09 Q85.9051 1085.09 87.2593 1082.43 Q88.6308 1079.76 88.6308 1074.43 Q88.6308 1069.08 87.2593 1066.43 Q85.9051 1063.75 83.1795 1063.75 M83.1795 1060.97 Q87.5371 1060.97 89.8287 1064.43 Q92.1377 1067.87 92.1377 1074.43 Q92.1377 1080.97 89.8287 1084.43 Q87.5371 1087.87 83.1795 1087.87 Q78.8218 1087.87 76.5128 1084.43 Q74.2212 1080.97 74.2212 1074.43 Q74.2212 1067.87 76.5128 1064.43 Q78.8218 1060.97 83.1795 1060.97 Z" fill="#000000" fill-rule="nonzero" fill-opacity="1" /><path clip-path="url(#clip170)" d="M53.0928 963.193 L66.8601 963.193 L66.8601 966.144 L56.3046 966.144 L56.3046 972.498 Q57.0685 972.238 57.8324 972.116 Q58.5963 971.977 59.3601 971.977 Q63.7004 971.977 66.2351 974.356 Q68.7698 976.734 68.7698 980.797 Q68.7698 984.981 66.1657 987.307 Q63.5615 989.616 58.8219 989.616 Q57.19 989.616 55.4886 989.338 Q53.8046 989.061 51.9991 988.505 L51.9991 984.981 Q53.5616 985.831 55.2282 986.248 Q56.8949 986.665 58.7525 986.665 Q61.756 986.665 63.5094 985.085 Q65.2629 983.505 65.2629 980.797 Q65.2629 978.088 63.5094 976.509 Q61.756 974.929 58.7525 974.929 Q57.3463 974.929 55.94 975.241 Q54.5511 975.554 53.0928 976.213 L53.0928 963.193 Z" fill="#000000" fill-rule="nonzero" fill-opacity="1" /><path clip-path="url(#clip170)" d="M83.1795 965.502 Q80.4711 965.502 79.0996 968.175 Q77.7455 970.832 77.7455 976.179 Q77.7455 981.509 79.0996 984.182 Q80.4711 986.838 83.1795 986.838 Q85.9051 986.838 87.2593 984.182 Q88.6308 981.509 88.6308 976.179 Q88.6308 970.832 87.2593 968.175 Q85.9051 965.502 83.1795 965.502 M83.1795 962.724 Q87.5371 962.724 89.8287 966.179 Q92.1377 969.616 92.1377 976.179 Q92.1377 982.724 89.8287 986.179 Q87.5371 989.616 83.1795 989.616 Q78.8218 989.616 76.5128 986.179 Q74.2212 982.724 74.2212 976.179 Q74.2212 969.616 76.5128 966.179 Q78.8218 962.724 83.1795 962.724 Z" fill="#000000" fill-rule="nonzero" fill-opacity="1" /><path clip-path="url(#clip170)" d="M140.036 818.926 Q136.517 818.926 134.619 821.472 Q132.628 824.134 132.628 828.532 Q132.628 833.185 134.596 835.87 Q136.587 838.532 140.036 838.532 Q143.439 838.532 145.429 835.847 Q147.42 833.162 147.42 828.532 Q147.42 824.296 145.429 821.472 Q143.601 818.926 140.036 818.926 M140.036 815.546 L154.179 815.546 L154.179 819.805 L149.411 819.805 Q151.934 823.417 151.934 828.532 Q151.934 834.898 148.763 838.509 Q145.591 842.143 140.036 842.143 Q134.457 842.143 131.309 838.509 Q128.138 834.898 128.138 828.532 Q128.138 822.12 131.309 818.532 Q133.925 815.546 140.036 815.546 Z" fill="#000000" fill-rule="nonzero" fill-opacity="1" /><path clip-path="url(#clip170)" d="M165.198 841.472 L157.281 815.546 L161.864 815.546 L168.554 837.305 Q171.332 834.435 173.647 830.454 Q175.406 827.467 175.499 824.875 Q175.545 823.648 174.989 821.333 Q174.341 818.579 171.888 815.546 L176.193 815.546 L176.193 815.546 Q177.79 817.606 178.855 820.477 Q179.827 823.116 179.827 824.921 Q179.827 829.458 176.679 833.509 Q172.582 838.787 169.735 841.472 L165.198 841.472 Z" fill="#000000" fill-rule="nonzero" fill-opacity="1" /><path clip-path="url(#clip174)" d="M184.517 1447.76 L184.517 1467.41 L314.845 1467.41 L314.845 1447.76 L184.517 1447.76 L184.517 1447.76  Z" fill="#009af9" fill-rule="evenodd" fill-opacity="1"/>
<polyline clip-path="url(#clip174)" style="stroke:#000000; stroke-linecap:round; stroke-linejoin:round; stroke-width:4; stroke-opacity:1; fill:none" points="184.517,1447.76 184.517,1467.41 314.845,1467.41 314.845,1447.76 184.517,1447.76 "/>
<path clip-path="url(#clip174)" d="M314.845 1221.78 L314.845 1467.41 L445.173 1467.41 L445.173 1221.78 L314.845 1221.78 L314.845 1221.78  Z" fill="#009af9" fill-rule="evenodd" fill-opacity="1"/>
<polyline clip-path="url(#clip174)" style="stroke:#000000; stroke-linecap:round; stroke-linejoin:round; stroke-width:4; stroke-opacity:1; fill:none" points="314.845,1221.78 314.845,1467.41 445.173,1467.41 445.173,1221.78 314.845,1221.78 "/>
<path clip-path="url(#clip174)" d="M445.173 917.202 L445.173 1467.41 L575.5 1467.41 L575.5 917.202 L445.173 917.202 L445.173 917.202  Z" fill="#009af9" fill-rule="evenodd" fill-opacity="1"/>
<polyline clip-path="url(#clip174)" style="stroke:#000000; stroke-linecap:round; stroke-linejoin:round; stroke-width:4; stroke-opacity:1; fill:none" points="445.173,917.202 445.173,1467.41 575.5,1467.41 575.5,917.202 445.173,917.202 "/>
<path clip-path="url(#clip174)" d="M575.5 897.552 L575.5 1467.41 L705.828 1467.41 L705.828 897.552 L575.5 897.552 L575.5 897.552  Z" fill="#009af9" fill-rule="evenodd" fill-opacity="1"/>
<polyline clip-path="url(#clip174)" style="stroke:#000000; stroke-linecap:round; stroke-linejoin:round; stroke-width:4; stroke-opacity:1; fill:none" points="575.5,897.552 575.5,1467.41 705.828,1467.41 705.828,897.552 575.5,897.552 "/>
<path clip-path="url(#clip174)" d="M705.828 1094.05 L705.828 1467.41 L836.155 1467.41 L836.155 1094.05 L705.828 1094.05 L705.828 1094.05  Z" fill="#009af9" fill-rule="evenodd" fill-opacity="1"/>
<polyline clip-path="url(#clip174)" style="stroke:#000000; stroke-linecap:round; stroke-linejoin:round; stroke-width:4; stroke-opacity:1; fill:none" points="705.828,1094.05 705.828,1467.41 836.155,1467.41 836.155,1094.05 705.828,1094.05 "/>
<path clip-path="url(#clip174)" d="M836.155 1339.68 L836.155 1467.41 L966.483 1467.41 L966.483 1339.68 L836.155 1339.68 L836.155 1339.68  Z" fill="#009af9" fill-rule="evenodd" fill-opacity="1"/>
<polyline clip-path="url(#clip174)" style="stroke:#000000; stroke-linecap:round; stroke-linejoin:round; stroke-width:4; stroke-opacity:1; fill:none" points="836.155,1339.68 836.155,1467.41 966.483,1467.41 966.483,1339.68 836.155,1339.68 "/>
<path clip-path="url(#clip174)" d="M966.483 1428.11 L966.483 1467.41 L1096.81 1467.41 L1096.81 1428.11 L966.483 1428.11 L966.483 1428.11  Z" fill="#009af9" fill-rule="evenodd" fill-opacity="1"/>
<polyline clip-path="url(#clip174)" style="stroke:#000000; stroke-linecap:round; stroke-linejoin:round; stroke-width:4; stroke-opacity:1; fill:none" points="966.483,1428.11 966.483,1467.41 1096.81,1467.41 1096.81,1428.11 966.483,1428.11 "/>
<circle clip-path="url(#clip174)" style="fill:#009af9; stroke:none; fill-opacity:0" cx="249.681" cy="1447.76" r="2"/>
<circle clip-path="url(#clip174)" style="fill:#009af9; stroke:none; fill-opacity:0" cx="380.009" cy="1221.78" r="2"/>
<circle clip-path="url(#clip174)" style="fill:#009af9; stroke:none; fill-opacity:0" cx="510.336" cy="917.202" r="2"/>
<circle clip-path="url(#clip174)" style="fill:#009af9; stroke:none; fill-opacity:0" cx="640.664" cy="897.552" r="2"/>
<circle clip-path="url(#clip174)" style="fill:#009af9; stroke:none; fill-opacity:0" cx="770.991" cy="1094.05" r="2"/>
<circle clip-path="url(#clip174)" style="fill:#009af9; stroke:none; fill-opacity:0" cx="901.319" cy="1339.68" r="2"/>
<circle clip-path="url(#clip174)" style="fill:#009af9; stroke:none; fill-opacity:0" cx="1031.65" cy="1428.11" r="2"/>
<polyline clip-path="url(#clip174)" style="stroke:#ff0000; stroke-linecap:round; stroke-linejoin:round; stroke-width:8; stroke-opacity:1; fill:none" stroke-dasharray="32, 20" points="631.614,2037.26 631.614,327.698 "/>
<polyline clip-path="url(#clip174)" style="stroke:#ff0000; stroke-linecap:round; stroke-linejoin:round; stroke-width:6; stroke-opacity:1; fill:none" stroke-dasharray="24, 12, 3, 12" points="356.358,2037.26 356.358,327.698 "/>
<polyline clip-path="url(#clip174)" style="stroke:#ff0000; stroke-linecap:round; stroke-linejoin:round; stroke-width:6; stroke-opacity:1; fill:none" stroke-dasharray="24, 12, 3, 12" points="1030,2037.26 1030,327.698 "/>
</svg>
