<?xml version="1.0" encoding="utf-8"?>
<svg xmlns="http://www.w3.org/2000/svg" xmlns:xlink="http://www.w3.org/1999/xlink" width="600" height="400" viewBox="0 0 2400 1600">
<defs>
  <clipPath id="clip080">
    <rect x="0" y="0" width="2400" height="1600"/>
  </clipPath>
</defs>
<path clip-path="url(#clip080)" d="M0 1600 L2400 1600 L2400 0 L0 0  Z" fill="#ffffff" fill-rule="evenodd" fill-opacity="1"/>
<defs>
  <clipPath id="clip081">
    <rect x="162" y="0" width="2195" height="1600"/>
  </clipPath>
</defs>
<path clip-path="url(#clip080)" d="M161.818 667.406 L1152.94 667.406 L1152.94 97.5521 L161.818 97.5521  Z" fill="#ffffff" fill-rule="evenodd" fill-opacity="1"/>
<defs>
  <clipPath id="clip082">
    <rect x="161" y="97" width="992" height="571"/>
  </clipPath>
</defs>
<polyline clip-path="url(#clip082)" style="stroke:#000000; stroke-linecap:round; stroke-linejoin:round; stroke-width:2; stroke-opacity:0.1; fill:none" points="187.736,667.406 187.736,97.5521 "/>
<polyline clip-path="url(#clip082)" style="stroke:#000000; stroke-linecap:round; stroke-linejoin:round; stroke-width:2; stroke-opacity:0.1; fill:none" points="450.577,667.406 450.577,97.5521 "/>
<polyline clip-path="url(#clip082)" style="stroke:#000000; stroke-linecap:round; stroke-linejoin:round; stroke-width:2; stroke-opacity:0.1; fill:none" points="713.418,667.406 713.418,97.5521 "/>
<polyline clip-path="url(#clip082)" style="stroke:#000000; stroke-linecap:round; stroke-linejoin:round; stroke-width:2; stroke-opacity:0.1; fill:none" points="976.259,667.406 976.259,97.5521 "/>
<polyline clip-path="url(#clip082)" style="stroke:#000000; stroke-linecap:round; stroke-linejoin:round; stroke-width:2; stroke-opacity:0.1; fill:none" points="161.818,651.278 1152.94,651.278 "/>
<polyline clip-path="url(#clip082)" style="stroke:#000000; stroke-linecap:round; stroke-linejoin:round; stroke-width:2; stroke-opacity:0.1; fill:none" points="161.818,518.317 1152.94,518.317 "/>
<polyline clip-path="url(#clip082)" style="stroke:#000000; stroke-linecap:round; stroke-linejoin:round; stroke-width:2; stroke-opacity:0.1; fill:none" points="161.818,385.356 1152.94,385.356 "/>
<polyline clip-path="url(#clip082)" style="stroke:#000000; stroke-linecap:round; stroke-linejoin:round; stroke-width:2; stroke-opacity:0.1; fill:none" points="161.818,252.394 1152.94,252.394 "/>
<polyline clip-path="url(#clip082)" style="stroke:#000000; stroke-linecap:round; stroke-linejoin:round; stroke-width:2; stroke-opacity:0.1; fill:none" points="161.818,119.433 1152.94,119.433 "/>
<polyline clip-path="url(#clip080)" style="stroke:#000000; stroke-linecap:round; stroke-linejoin:round; stroke-width:4; stroke-opacity:1; fill:none" points="161.818,667.406 1152.94,667.406 "/>
<polyline clip-path="url(#clip080)" style="stroke:#000000; stroke-linecap:round; stroke-linejoin:round; stroke-width:4; stroke-opacity:1; fill:none" points="187.736,667.406 187.736,648.509 "/>
<polyline clip-path="url(#clip080)" style="stroke:#000000; stroke-linecap:round; stroke-linejoin:round; stroke-width:4; stroke-opacity:1; fill:none" points="450.577,667.406 450.577,648.509 "/>
<polyline clip-path="url(#clip080)" style="stroke:#000000; stroke-linecap:round; stroke-linejoin:round; stroke-width:4; stroke-opacity:1; fill:none" points="713.418,667.406 713.418,648.509 "/>
<polyline clip-path="url(#clip080)" style="stroke:#000000; stroke-linecap:round; stroke-linejoin:round; stroke-width:4; stroke-opacity:1; fill:none" points="976.259,667.406 976.259,648.509 "/>
<path clip-path="url(#clip080)" d="M133.887 739.139 Q131.972 741.054 132.893 743.914 Q133.813 746.75 137.594 750.531 Q141.363 754.3 144.211 755.233 Q147.059 756.141 148.974 754.226 Q150.902 752.299 149.981 749.463 Q149.06 746.603 145.292 742.834 Q141.511 739.053 138.662 738.144 Q135.814 737.211 133.887 739.139 M131.923 737.175 Q135.004 734.093 139.068 734.916 Q143.131 735.714 147.771 740.354 Q152.399 744.982 153.21 749.058 Q154.02 753.109 150.939 756.19 Q147.857 759.272 143.794 758.474 Q139.73 757.651 135.102 753.023 Q130.462 748.383 129.652 744.332 Q128.842 740.256 131.923 737.175 Z" fill="#000000" fill-rule="nonzero" fill-opacity="1" /><path clip-path="url(#clip080)" d="M158.157 742.024 L160.747 739.433 L163.865 742.552 L161.275 745.142 L158.157 742.024 Z" fill="#000000" fill-rule="nonzero" fill-opacity="1" /><path clip-path="url(#clip080)" d="M165.866 723.143 Q164.099 724.911 164.025 726.875 Q163.963 728.827 165.621 730.484 Q167.278 732.141 169.23 732.08 Q171.194 732.006 172.962 730.239 Q174.73 728.471 174.803 726.507 Q174.865 724.53 173.22 722.885 Q171.562 721.228 169.598 721.302 Q167.646 721.363 165.866 723.143 M162.331 724.567 Q160.342 725.77 158.353 725.574 Q156.377 725.365 154.806 723.794 Q152.608 721.596 152.89 718.761 Q153.185 715.912 155.91 713.187 Q158.648 710.45 161.484 710.167 Q164.319 709.885 166.517 712.082 Q168.088 713.654 168.285 715.642 Q168.493 717.619 167.303 719.595 Q169.512 718.22 171.722 718.441 Q173.944 718.65 175.699 720.406 Q178.363 723.069 178.155 726.126 Q177.958 729.171 174.926 732.203 Q171.894 735.235 168.837 735.444 Q165.793 735.64 163.129 732.976 Q161.373 731.221 161.165 728.999 Q160.956 726.777 162.331 724.567 M157.506 721.559 Q158.93 722.983 160.612 722.898 Q162.306 722.799 163.914 721.191 Q165.51 719.595 165.608 717.901 Q165.719 716.195 164.295 714.771 Q162.871 713.347 161.165 713.457 Q159.47 713.555 157.875 715.151 Q156.266 716.76 156.168 718.454 Q156.082 720.135 157.506 721.559 Z" fill="#000000" fill-rule="nonzero" fill-opacity="1" /><path clip-path="url(#clip080)" d="M173.87 699.156 Q171.955 701.071 172.876 703.931 Q173.797 706.767 177.578 710.548 Q181.346 714.317 184.194 715.25 Q187.043 716.158 188.958 714.243 Q190.885 712.316 189.964 709.48 Q189.044 706.619 185.275 702.851 Q181.494 699.07 178.646 698.161 Q175.798 697.228 173.87 699.156 M171.906 697.191 Q174.987 694.11 179.051 694.933 Q183.114 695.731 187.755 700.371 Q192.383 704.999 193.193 709.075 Q194.003 713.126 190.922 716.207 Q187.84 719.288 183.777 718.49 Q179.714 717.668 175.086 713.04 Q170.445 708.399 169.635 704.348 Q168.825 700.273 171.906 697.191 Z" fill="#000000" fill-rule="nonzero" fill-opacity="1" /><path clip-path="url(#clip080)" d="M397.256 738.611 Q395.341 740.526 396.261 743.386 Q397.182 746.222 400.963 750.003 Q404.732 753.772 407.58 754.705 Q410.428 755.613 412.343 753.698 Q414.27 751.771 413.35 748.935 Q412.429 746.075 408.66 742.306 Q404.879 738.525 402.031 737.617 Q399.183 736.684 397.256 738.611 M395.292 736.647 Q398.373 733.565 402.436 734.388 Q406.5 735.186 411.14 739.826 Q415.768 744.454 416.578 748.53 Q417.389 752.581 414.307 755.662 Q411.226 758.744 407.163 757.946 Q403.099 757.123 398.471 752.495 Q393.831 747.855 393.02 743.804 Q392.21 739.728 395.292 736.647 Z" fill="#000000" fill-rule="nonzero" fill-opacity="1" /><path clip-path="url(#clip080)" d="M421.526 741.496 L424.116 738.906 L427.234 742.024 L424.644 744.614 L421.526 741.496 Z" fill="#000000" fill-rule="nonzero" fill-opacity="1" /><path clip-path="url(#clip080)" d="M429.235 722.615 Q427.467 724.383 427.394 726.347 Q427.332 728.299 428.989 729.956 Q430.647 731.614 432.599 731.552 Q434.563 731.479 436.331 729.711 Q438.098 727.943 438.172 725.979 Q438.233 724.002 436.588 722.357 Q434.931 720.7 432.967 720.774 Q431.015 720.835 429.235 722.615 M425.699 724.039 Q423.711 725.242 421.722 725.046 Q419.746 724.837 418.174 723.266 Q415.977 721.068 416.259 718.233 Q416.554 715.385 419.279 712.659 Q422.017 709.922 424.852 709.639 Q427.688 709.357 429.886 711.554 Q431.457 713.126 431.653 715.115 Q431.862 717.091 430.671 719.067 Q432.881 717.692 435.091 717.913 Q437.313 718.122 439.068 719.878 Q441.732 722.542 441.523 725.598 Q441.327 728.643 438.295 731.675 Q435.263 734.707 432.206 734.916 Q429.161 735.112 426.497 732.448 Q424.742 730.693 424.533 728.471 Q424.325 726.249 425.699 724.039 M420.875 721.032 Q422.299 722.456 423.981 722.37 Q425.675 722.271 427.283 720.663 Q428.879 719.067 428.977 717.373 Q429.088 715.667 427.664 714.243 Q426.24 712.819 424.533 712.929 Q422.839 713.028 421.243 714.623 Q419.635 716.232 419.537 717.926 Q419.451 719.608 420.875 721.032 Z" fill="#000000" fill-rule="nonzero" fill-opacity="1" /><path clip-path="url(#clip080)" d="M430.328 702.274 L440.062 692.539 L442.149 694.626 L434.686 702.09 L439.179 706.583 Q439.535 705.858 439.989 705.232 Q440.431 704.594 440.971 704.054 Q444.04 700.985 447.514 700.874 Q450.988 700.764 453.861 703.636 Q456.819 706.595 456.623 710.081 Q456.414 713.555 453.063 716.907 Q451.909 718.061 450.509 719.067 Q449.122 720.062 447.453 720.946 L444.961 718.454 Q446.667 717.95 448.14 717.066 Q449.613 716.183 450.927 714.869 Q453.051 712.745 453.173 710.388 Q453.296 708.031 451.381 706.116 Q449.466 704.201 447.109 704.324 Q444.752 704.447 442.628 706.57 Q441.634 707.565 440.86 708.78 Q440.099 709.983 439.535 711.481 L430.328 702.274 Z" fill="#000000" fill-rule="nonzero" fill-opacity="1" /><path clip-path="url(#clip080)" d="M659.569 739.139 Q657.654 741.054 658.574 743.914 Q659.495 746.75 663.276 750.531 Q667.045 754.3 669.893 755.233 Q672.741 756.141 674.656 754.226 Q676.583 752.299 675.663 749.463 Q674.742 746.603 670.973 742.834 Q667.192 739.053 664.344 738.144 Q661.496 737.211 659.569 739.139 M657.604 737.175 Q660.686 734.093 664.749 734.916 Q668.813 735.714 673.453 740.354 Q678.081 744.982 678.891 749.058 Q679.701 753.109 676.62 756.19 Q673.539 759.272 669.475 758.474 Q665.412 757.651 660.784 753.023 Q656.144 748.383 655.333 744.332 Q654.523 740.256 657.604 737.175 Z" fill="#000000" fill-rule="nonzero" fill-opacity="1" /><path clip-path="url(#clip080)" d="M683.838 742.024 L686.429 739.433 L689.547 742.552 L686.957 745.142 L683.838 742.024 Z" fill="#000000" fill-rule="nonzero" fill-opacity="1" /><path clip-path="url(#clip080)" d="M694.641 736.696 L692.383 734.437 Q693.758 733.946 694.948 733.222 Q696.139 732.497 697.06 731.577 Q699.515 729.122 699.159 726.188 Q698.803 723.229 695.624 719.681 Q695.967 721.449 695.439 723.106 Q694.912 724.764 693.586 726.089 Q690.836 728.839 687.57 728.79 Q684.305 728.716 681.42 725.832 Q678.597 723.008 678.56 719.632 Q678.523 716.256 681.297 713.482 Q684.477 710.302 688.589 711.076 Q692.702 711.825 697.342 716.465 Q701.676 720.798 702.204 725.451 Q702.731 730.079 699.257 733.553 Q698.324 734.486 697.183 735.26 Q696.041 736.033 694.641 736.696 M691.806 723.99 Q693.475 722.321 693.303 720.209 Q693.144 718.085 691.155 716.097 Q689.179 714.12 687.055 713.961 Q684.931 713.776 683.262 715.446 Q681.592 717.116 681.764 719.252 Q681.936 721.363 683.912 723.339 Q685.901 725.328 688.012 725.5 Q690.136 725.66 691.806 723.99 Z" fill="#000000" fill-rule="nonzero" fill-opacity="1" /><path clip-path="url(#clip080)" d="M699.552 699.156 Q697.637 701.071 698.558 703.931 Q699.478 706.767 703.259 710.548 Q707.028 714.317 709.876 715.25 Q712.724 716.158 714.639 714.243 Q716.567 712.316 715.646 709.48 Q714.725 706.619 710.956 702.851 Q707.175 699.07 704.327 698.161 Q701.479 697.228 699.552 699.156 M697.588 697.191 Q700.669 694.11 704.732 694.933 Q708.796 695.731 713.436 700.371 Q718.064 704.999 718.874 709.075 Q719.685 713.126 716.603 716.207 Q713.522 719.288 709.459 718.49 Q705.395 717.668 700.767 713.04 Q696.127 708.399 695.317 704.348 Q694.506 700.273 697.588 697.191 Z" fill="#000000" fill-rule="nonzero" fill-opacity="1" /><path clip-path="url(#clip080)" d="M922.937 738.611 Q921.022 740.526 921.943 743.386 Q922.864 746.222 926.645 750.003 Q930.413 753.772 933.262 754.705 Q936.11 755.613 938.025 753.698 Q939.952 751.771 939.031 748.935 Q938.111 746.075 934.342 742.306 Q930.561 738.525 927.713 737.617 Q924.865 736.684 922.937 738.611 M920.973 736.647 Q924.054 733.565 928.118 734.388 Q932.181 735.186 936.822 739.826 Q941.45 744.454 942.26 748.53 Q943.07 752.581 939.989 755.662 Q936.908 758.744 932.844 757.946 Q928.781 757.123 924.153 752.495 Q919.512 747.855 918.702 743.804 Q917.892 739.728 920.973 736.647 Z" fill="#000000" fill-rule="nonzero" fill-opacity="1" /><path clip-path="url(#clip080)" d="M947.207 741.496 L949.797 738.906 L952.916 742.024 L950.325 744.614 L947.207 741.496 Z" fill="#000000" fill-rule="nonzero" fill-opacity="1" /><path clip-path="url(#clip080)" d="M958.01 736.168 L955.751 733.909 Q957.126 733.418 958.317 732.694 Q959.508 731.97 960.428 731.049 Q962.884 728.594 962.528 725.66 Q962.172 722.701 958.992 719.153 Q959.336 720.921 958.808 722.578 Q958.28 724.236 956.954 725.561 Q954.205 728.311 950.939 728.262 Q947.674 728.189 944.789 725.304 Q941.965 722.48 941.928 719.104 Q941.892 715.728 944.666 712.954 Q947.846 709.774 951.958 710.548 Q956.07 711.297 960.711 715.937 Q965.044 720.27 965.572 724.923 Q966.1 729.551 962.626 733.025 Q961.693 733.958 960.551 734.732 Q959.41 735.505 958.01 736.168 M955.174 723.462 Q956.844 721.793 956.672 719.681 Q956.512 717.557 954.524 715.569 Q952.547 713.592 950.423 713.433 Q948.3 713.249 946.63 714.918 Q944.961 716.588 945.132 718.724 Q945.304 720.835 947.281 722.812 Q949.27 724.8 951.381 724.972 Q953.505 725.132 955.174 723.462 Z" fill="#000000" fill-rule="nonzero" fill-opacity="1" /><path clip-path="url(#clip080)" d="M956.009 702.274 L965.744 692.539 L967.831 694.626 L960.367 702.09 L964.86 706.583 Q965.216 705.858 965.67 705.232 Q966.112 704.594 966.652 704.054 Q969.721 700.985 973.196 700.874 Q976.67 700.764 979.542 703.636 Q982.501 706.595 982.304 710.081 Q982.096 713.555 978.744 716.907 Q977.59 718.061 976.191 719.067 Q974.804 720.062 973.134 720.946 L970.642 718.454 Q972.349 717.95 973.822 717.066 Q975.295 716.183 976.608 714.869 Q978.732 712.745 978.855 710.388 Q978.978 708.031 977.063 706.116 Q975.148 704.201 972.791 704.324 Q970.434 704.447 968.31 706.57 Q967.315 707.565 966.542 708.78 Q965.781 709.983 965.216 711.481 L956.009 702.274 Z" fill="#000000" fill-rule="nonzero" fill-opacity="1" /><polyline clip-path="url(#clip080)" style="stroke:#000000; stroke-linecap:round; stroke-linejoin:round; stroke-width:4; stroke-opacity:1; fill:none" points="161.818,667.406 161.818,97.5521 "/>
<polyline clip-path="url(#clip080)" style="stroke:#000000; stroke-linecap:round; stroke-linejoin:round; stroke-width:4; stroke-opacity:1; fill:none" points="161.818,651.278 180.716,651.278 "/>
<polyline clip-path="url(#clip080)" style="stroke:#000000; stroke-linecap:round; stroke-linejoin:round; stroke-width:4; stroke-opacity:1; fill:none" points="161.818,518.317 180.716,518.317 "/>
<polyline clip-path="url(#clip080)" style="stroke:#000000; stroke-linecap:round; stroke-linejoin:round; stroke-width:4; stroke-opacity:1; fill:none" points="161.818,385.356 180.716,385.356 "/>
<polyline clip-path="url(#clip080)" style="stroke:#000000; stroke-linecap:round; stroke-linejoin:round; stroke-width:4; stroke-opacity:1; fill:none" points="161.818,252.394 180.716,252.394 "/>
<polyline clip-path="url(#clip080)" style="stroke:#000000; stroke-linecap:round; stroke-linejoin:round; stroke-width:4; stroke-opacity:1; fill:none" points="161.818,119.433 180.716,119.433 "/>
<path clip-path="url(#clip080)" d="M116.86 640.627 Q114.152 640.627 112.78 643.301 Q111.426 645.957 111.426 651.304 Q111.426 656.634 112.78 659.308 Q114.152 661.964 116.86 661.964 Q119.586 661.964 120.94 659.308 Q122.311 656.634 122.311 651.304 Q122.311 645.957 120.94 643.301 Q119.586 640.627 116.86 640.627 M116.86 637.85 Q121.217 637.85 123.509 641.305 Q125.818 644.742 125.818 651.304 Q125.818 657.85 123.509 661.304 Q121.217 664.742 116.86 664.742 Q112.502 664.742 110.193 661.304 Q107.902 657.85 107.902 651.304 Q107.902 644.742 110.193 641.305 Q112.502 637.85 116.86 637.85 Z" fill="#000000" fill-rule="nonzero" fill-opacity="1" /><path clip-path="url(#clip080)" d="M110.888 528.326 L116.617 528.326 L116.617 508.551 L110.384 509.801 L110.384 506.607 L116.582 505.357 L120.089 505.357 L120.089 528.326 L125.818 528.326 L125.818 531.277 L110.888 531.277 L110.888 528.326 Z" fill="#000000" fill-rule="nonzero" fill-opacity="1" /><path clip-path="url(#clip080)" d="M113.579 395.364 L125.818 395.364 L125.818 398.316 L109.36 398.316 L109.36 395.364 Q111.356 393.298 114.794 389.826 Q118.249 386.337 119.134 385.33 Q120.818 383.437 121.478 382.135 Q122.155 380.816 122.155 379.548 Q122.155 377.482 120.697 376.18 Q119.256 374.878 116.929 374.878 Q115.28 374.878 113.44 375.451 Q111.617 376.024 109.533 377.187 L109.533 373.646 Q111.652 372.795 113.492 372.361 Q115.332 371.927 116.86 371.927 Q120.888 371.927 123.283 373.941 Q125.679 375.955 125.679 379.323 Q125.679 380.92 125.072 382.361 Q124.481 383.784 122.901 385.729 Q122.467 386.232 120.141 388.646 Q117.815 391.041 113.579 395.364 Z" fill="#000000" fill-rule="nonzero" fill-opacity="1" /><path clip-path="url(#clip080)" d="M120.471 251.379 Q122.988 251.917 124.395 253.618 Q125.818 255.32 125.818 257.82 Q125.818 261.656 123.179 263.757 Q120.54 265.858 115.679 265.858 Q114.047 265.858 112.311 265.528 Q110.593 265.215 108.752 264.573 L108.752 261.188 Q110.211 262.038 111.947 262.472 Q113.683 262.906 115.575 262.906 Q118.874 262.906 120.592 261.604 Q122.329 260.302 122.329 257.82 Q122.329 255.528 120.714 254.243 Q119.117 252.941 116.252 252.941 L113.231 252.941 L113.231 250.059 L116.391 250.059 Q118.978 250.059 120.349 249.035 Q121.721 247.993 121.721 246.049 Q121.721 244.052 120.297 242.993 Q118.891 241.917 116.252 241.917 Q114.811 241.917 113.162 242.229 Q111.513 242.542 109.533 243.202 L109.533 240.077 Q111.53 239.521 113.266 239.243 Q115.02 238.966 116.565 238.966 Q120.558 238.966 122.884 240.788 Q125.21 242.594 125.21 245.684 Q125.21 247.837 123.978 249.33 Q122.745 250.806 120.471 251.379 Z" fill="#000000" fill-rule="nonzero" fill-opacity="1" /><path clip-path="url(#clip080)" d="M118.631 109.528 L109.777 123.365 L118.631 123.365 L118.631 109.528 M117.711 106.473 L122.12 106.473 L122.12 123.365 L125.818 123.365 L125.818 126.282 L122.12 126.282 L122.12 132.393 L118.631 132.393 L118.631 126.282 L106.929 126.282 L106.929 122.896 L117.711 106.473 Z" fill="#000000" fill-rule="nonzero" fill-opacity="1" /><path clip-path="url(#clip080)" d="M163.901 20.1758 Q165.313 17.8147 168.809 15.7314 Q170.175 14.9212 174.387 14.9212 Q179.11 14.9212 182.049 18.6712 Q185.012 22.4212 185.012 28.5323 Q185.012 34.6433 182.049 38.3933 Q179.11 42.1433 174.387 42.1433 Q171.54 42.1433 169.48 41.0322 Q167.443 39.8979 166.1 37.5831 L166.1 51.3331 L161.818 51.3331 L161.818 28.7637 Q161.818 23.4165 163.901 20.1758 M180.591 28.5323 Q180.591 23.8332 178.647 21.1712 Q176.725 18.486 173.346 18.486 Q169.966 18.486 168.022 21.1712 Q166.1 23.8332 166.1 28.5323 Q166.1 33.2313 168.022 35.9165 Q169.966 38.5785 173.346 38.5785 Q176.725 38.5785 178.647 35.9165 Q180.591 33.2313 180.591 28.5323 Z" fill="#000000" fill-rule="nonzero" fill-opacity="1" /><polyline clip-path="url(#clip082)" style="stroke:#009af9; stroke-linecap:round; stroke-linejoin:round; stroke-width:4; stroke-opacity:1; fill:none" points="189.869,593.176 248.307,597.439 306.746,602.237 365.185,607.677 423.623,613.897 482.062,621.078 540.501,629.46 598.939,639.372 657.378,651.278 715.817,636.71 774.256,618.473 832.694,594.977 891.133,563.56 949.572,519.393 1008.01,452.727 1066.45,340.541 1124.89,113.68 "/>
<circle clip-path="url(#clip082)" cx="657.378" cy="651.278" r="10.8" fill="#ff0000" fill-rule="evenodd" fill-opacity="1" stroke="#000000" stroke-opacity="1" stroke-width="3.2"/>
<path clip-path="url(#clip080)" d="M1361.64 667.406 L2352.76 667.406 L2352.76 97.5521 L1361.64 97.5521  Z" fill="#ffffff" fill-rule="evenodd" fill-opacity="1"/>
<defs>
  <clipPath id="clip083">
    <rect x="1361" y="97" width="992" height="571"/>
  </clipPath>
</defs>
<polyline clip-path="url(#clip083)" style="stroke:#000000; stroke-linecap:round; stroke-linejoin:round; stroke-width:2; stroke-opacity:0.1; fill:none" points="1496.36,667.406 1496.36,97.5521 "/>
<polyline clip-path="url(#clip083)" style="stroke:#000000; stroke-linecap:round; stroke-linejoin:round; stroke-width:2; stroke-opacity:0.1; fill:none" points="1640.16,667.406 1640.16,97.5521 "/>
<polyline clip-path="url(#clip083)" style="stroke:#000000; stroke-linecap:round; stroke-linejoin:round; stroke-width:2; stroke-opacity:0.1; fill:none" points="1783.97,667.406 1783.97,97.5521 "/>
<polyline clip-path="url(#clip083)" style="stroke:#000000; stroke-linecap:round; stroke-linejoin:round; stroke-width:2; stroke-opacity:0.1; fill:none" points="1927.78,667.406 1927.78,97.5521 "/>
<polyline clip-path="url(#clip083)" style="stroke:#000000; stroke-linecap:round; stroke-linejoin:round; stroke-width:2; stroke-opacity:0.1; fill:none" points="2071.59,667.406 2071.59,97.5521 "/>
<polyline clip-path="url(#clip083)" style="stroke:#000000; stroke-linecap:round; stroke-linejoin:round; stroke-width:2; stroke-opacity:0.1; fill:none" points="2215.4,667.406 2215.4,97.5521 "/>
<polyline clip-path="url(#clip083)" style="stroke:#000000; stroke-linecap:round; stroke-linejoin:round; stroke-width:2; stroke-opacity:0.1; fill:none" points="1361.64,651.278 2352.76,651.278 "/>
<polyline clip-path="url(#clip083)" style="stroke:#000000; stroke-linecap:round; stroke-linejoin:round; stroke-width:2; stroke-opacity:0.1; fill:none" points="1361.64,508.032 2352.76,508.032 "/>
<polyline clip-path="url(#clip083)" style="stroke:#000000; stroke-linecap:round; stroke-linejoin:round; stroke-width:2; stroke-opacity:0.1; fill:none" points="1361.64,364.785 2352.76,364.785 "/>
<polyline clip-path="url(#clip083)" style="stroke:#000000; stroke-linecap:round; stroke-linejoin:round; stroke-width:2; stroke-opacity:0.1; fill:none" points="1361.64,221.539 2352.76,221.539 "/>
<polyline clip-path="url(#clip080)" style="stroke:#000000; stroke-linecap:round; stroke-linejoin:round; stroke-width:4; stroke-opacity:1; fill:none" points="1361.64,667.406 2352.76,667.406 "/>
<polyline clip-path="url(#clip080)" style="stroke:#000000; stroke-linecap:round; stroke-linejoin:round; stroke-width:4; stroke-opacity:1; fill:none" points="1496.36,667.406 1496.36,648.509 "/>
<polyline clip-path="url(#clip080)" style="stroke:#000000; stroke-linecap:round; stroke-linejoin:round; stroke-width:4; stroke-opacity:1; fill:none" points="1640.16,667.406 1640.16,648.509 "/>
<polyline clip-path="url(#clip080)" style="stroke:#000000; stroke-linecap:round; stroke-linejoin:round; stroke-width:4; stroke-opacity:1; fill:none" points="1783.97,667.406 1783.97,648.509 "/>
<polyline clip-path="url(#clip080)" style="stroke:#000000; stroke-linecap:round; stroke-linejoin:round; stroke-width:4; stroke-opacity:1; fill:none" points="1927.78,667.406 1927.78,648.509 "/>
<polyline clip-path="url(#clip080)" style="stroke:#000000; stroke-linecap:round; stroke-linejoin:round; stroke-width:4; stroke-opacity:1; fill:none" points="2071.59,667.406 2071.59,648.509 "/>
<polyline clip-path="url(#clip080)" style="stroke:#000000; stroke-linecap:round; stroke-linejoin:round; stroke-width:4; stroke-opacity:1; fill:none" points="2215.4,667.406 2215.4,648.509 "/>
<path clip-path="url(#clip080)" d="M1442.51 739.139 Q1440.59 741.054 1441.51 743.914 Q1442.43 746.75 1446.21 750.531 Q1449.98 754.3 1452.83 755.233 Q1455.68 756.141 1457.59 754.226 Q1459.52 752.299 1458.6 749.463 Q1457.68 746.603 1453.91 742.834 Q1450.13 739.053 1447.28 738.144 Q1444.43 737.211 1442.51 739.139 M1440.54 737.175 Q1443.62 734.093 1447.69 734.916 Q1451.75 735.714 1456.39 740.354 Q1461.02 744.982 1461.83 749.058 Q1462.64 753.109 1459.56 756.19 Q1456.48 759.272 1452.41 758.474 Q1448.35 757.651 1443.72 753.023 Q1439.08 748.383 1438.27 744.332 Q1437.46 740.256 1440.54 737.175 Z" fill="#000000" fill-rule="nonzero" fill-opacity="1" /><path clip-path="url(#clip080)" d="M1466.78 742.024 L1469.37 739.433 L1472.48 742.552 L1469.89 745.142 L1466.78 742.024 Z" fill="#000000" fill-rule="nonzero" fill-opacity="1" /><path clip-path="url(#clip080)" d="M1475.52 719.755 Q1477.68 718.355 1479.88 718.564 Q1482.08 718.761 1483.85 720.528 Q1486.57 723.241 1486.19 726.593 Q1485.8 729.944 1482.37 733.381 Q1481.21 734.535 1479.75 735.53 Q1478.32 736.524 1476.56 737.371 L1474.17 734.977 Q1475.8 734.548 1477.33 733.627 Q1478.87 732.706 1480.21 731.368 Q1482.54 729.036 1482.83 726.9 Q1483.14 724.751 1481.39 722.996 Q1479.76 721.375 1477.71 721.609 Q1475.66 721.817 1473.64 723.843 L1471.5 725.979 L1469.47 723.941 L1471.7 721.707 Q1473.53 719.878 1473.77 718.184 Q1474.01 716.477 1472.63 715.102 Q1471.22 713.69 1469.47 713.948 Q1467.71 714.182 1465.84 716.047 Q1464.82 717.066 1463.88 718.454 Q1462.93 719.841 1462 721.707 L1459.79 719.497 Q1460.81 717.692 1461.84 716.268 Q1462.89 714.832 1463.98 713.74 Q1466.8 710.916 1469.74 710.56 Q1472.66 710.192 1474.84 712.377 Q1476.36 713.899 1476.55 715.827 Q1476.72 717.742 1475.52 719.755 Z" fill="#000000" fill-rule="nonzero" fill-opacity="1" /><path clip-path="url(#clip080)" d="M1482.49 699.156 Q1480.57 701.071 1481.5 703.931 Q1482.42 706.767 1486.2 710.548 Q1489.97 714.317 1492.81 715.25 Q1495.66 716.158 1497.58 714.243 Q1499.5 712.316 1498.58 709.48 Q1497.66 706.619 1493.89 702.851 Q1490.11 699.07 1487.27 698.161 Q1484.42 697.228 1482.49 699.156 M1480.53 697.191 Q1483.61 694.11 1487.67 694.933 Q1491.73 695.731 1496.37 700.371 Q1501 704.999 1501.81 709.075 Q1502.62 713.126 1499.54 716.207 Q1496.46 719.288 1492.4 718.49 Q1488.33 717.668 1483.71 713.04 Q1479.06 708.399 1478.25 704.348 Q1477.44 700.273 1480.53 697.191 Z" fill="#000000" fill-rule="nonzero" fill-opacity="1" /><path clip-path="url(#clip080)" d="M1586.97 738.488 Q1585.05 740.403 1585.97 743.264 Q1586.89 746.099 1590.67 749.88 Q1594.44 753.649 1597.29 754.582 Q1600.14 755.491 1602.05 753.576 Q1603.98 751.648 1603.06 748.812 Q1602.14 745.952 1598.37 742.183 Q1594.59 738.402 1591.74 737.494 Q1588.89 736.561 1586.97 738.488 M1585 736.524 Q1588.08 733.443 1592.15 734.265 Q1596.21 735.063 1600.85 739.704 Q1605.48 744.332 1606.29 748.407 Q1607.1 752.458 1604.02 755.54 Q1600.94 758.621 1596.87 757.823 Q1592.81 757.001 1588.18 752.372 Q1583.54 747.732 1582.73 743.681 Q1581.92 739.605 1585 736.524 Z" fill="#000000" fill-rule="nonzero" fill-opacity="1" /><path clip-path="url(#clip080)" d="M1611.24 741.373 L1613.83 738.783 L1616.94 741.901 L1614.35 744.491 L1611.24 741.373 Z" fill="#000000" fill-rule="nonzero" fill-opacity="1" /><path clip-path="url(#clip080)" d="M1619.98 719.104 Q1622.14 717.705 1624.33 717.913 Q1626.54 718.11 1628.31 719.878 Q1631.02 722.591 1630.64 725.942 Q1630.26 729.293 1626.83 732.731 Q1625.67 733.885 1624.21 734.879 Q1622.78 735.873 1621.02 736.72 L1618.63 734.327 Q1620.26 733.897 1621.79 732.976 Q1623.33 732.056 1624.67 730.717 Q1627 728.385 1627.29 726.249 Q1627.6 724.101 1625.84 722.345 Q1624.22 720.725 1622.17 720.958 Q1620.12 721.167 1618.1 723.192 L1615.96 725.328 L1613.92 723.29 L1616.16 721.056 Q1617.99 719.227 1618.23 717.533 Q1618.47 715.827 1617.09 714.452 Q1615.68 713.04 1613.92 713.298 Q1612.17 713.531 1610.3 715.397 Q1609.28 716.416 1608.34 717.803 Q1607.39 719.19 1606.46 721.056 L1604.25 718.846 Q1605.27 717.042 1606.3 715.618 Q1607.34 714.182 1608.44 713.089 Q1611.26 710.265 1614.19 709.909 Q1617.12 709.541 1619.3 711.726 Q1620.82 713.249 1621.01 715.176 Q1621.18 717.091 1619.98 719.104 Z" fill="#000000" fill-rule="nonzero" fill-opacity="1" /><path clip-path="url(#clip080)" d="M1636.68 717.987 L1640.74 713.936 L1626.75 699.954 L1623.23 705.245 L1620.97 702.986 L1624.47 697.719 L1626.95 695.24 L1643.19 711.481 L1647.24 707.43 L1649.33 709.517 L1638.77 720.074 L1636.68 717.987 Z" fill="#000000" fill-rule="nonzero" fill-opacity="1" /><path clip-path="url(#clip080)" d="M1730.97 738.292 Q1729.06 740.207 1729.98 743.067 Q1730.9 745.903 1734.68 749.684 Q1738.45 753.453 1741.3 754.386 Q1744.14 755.294 1746.06 753.379 Q1747.99 751.452 1747.06 748.616 Q1746.14 745.756 1742.38 741.987 Q1738.59 738.206 1735.75 737.297 Q1732.9 736.364 1730.97 738.292 M1729.01 736.328 Q1732.09 733.246 1736.15 734.069 Q1740.21 734.867 1744.86 739.507 Q1749.48 744.135 1750.29 748.211 Q1751.1 752.262 1748.02 755.343 Q1744.94 758.425 1740.88 757.627 Q1736.81 756.804 1732.19 752.176 Q1727.55 747.536 1726.74 743.485 Q1725.93 739.409 1729.01 736.328 Z" fill="#000000" fill-rule="nonzero" fill-opacity="1" /><path clip-path="url(#clip080)" d="M1755.24 741.177 L1757.83 738.586 L1760.95 741.705 L1758.36 744.295 L1755.24 741.177 Z" fill="#000000" fill-rule="nonzero" fill-opacity="1" /><path clip-path="url(#clip080)" d="M1763.98 718.908 Q1766.14 717.508 1768.34 717.717 Q1770.55 717.913 1772.32 719.681 Q1775.03 722.394 1774.65 725.746 Q1774.27 729.097 1770.83 732.534 Q1769.68 733.688 1768.22 734.683 Q1766.78 735.677 1765.02 736.524 L1762.63 734.13 Q1764.26 733.701 1765.8 732.78 Q1767.33 731.859 1768.67 730.521 Q1771 728.189 1771.3 726.053 Q1771.6 723.904 1769.85 722.149 Q1768.23 720.528 1766.18 720.762 Q1764.13 720.97 1762.1 722.996 L1759.97 725.132 L1757.93 723.094 L1760.16 720.86 Q1761.99 719.031 1762.24 717.336 Q1762.47 715.63 1761.1 714.255 Q1759.68 712.843 1757.93 713.101 Q1756.17 713.334 1754.31 715.2 Q1753.29 716.219 1752.34 717.607 Q1751.4 718.994 1750.47 720.86 L1748.26 718.65 Q1749.27 716.845 1750.31 715.421 Q1751.35 713.985 1752.44 712.893 Q1755.27 710.069 1758.2 709.713 Q1761.12 709.345 1763.31 711.53 Q1764.83 713.052 1765.01 714.979 Q1765.18 716.895 1763.98 718.908 Z" fill="#000000" fill-rule="nonzero" fill-opacity="1" /><path clip-path="url(#clip080)" d="M1782.4 716.084 L1791.05 707.43 L1793.14 709.517 L1781.5 721.154 L1779.41 719.067 Q1779.36 716.195 1779.34 711.309 Q1779.31 706.398 1779.23 705.06 Q1779.08 702.532 1778.63 701.144 Q1778.17 699.733 1777.28 698.836 Q1775.82 697.376 1773.86 697.486 Q1771.92 697.584 1770.28 699.229 Q1769.11 700.395 1768.22 702.102 Q1767.33 703.796 1766.68 706.092 L1764.18 703.587 Q1765.07 701.488 1766.07 699.88 Q1767.06 698.272 1768.14 697.191 Q1770.99 694.343 1774.11 694.073 Q1777.23 693.803 1779.61 696.185 Q1780.74 697.314 1781.33 698.763 Q1781.92 700.187 1782.17 702.679 Q1782.22 703.342 1782.28 706.693 Q1782.33 710.032 1782.4 716.084 Z" fill="#000000" fill-rule="nonzero" fill-opacity="1" /><path clip-path="url(#clip080)" d="M1874.28 738.795 Q1872.36 740.71 1873.28 743.571 Q1874.2 746.406 1877.98 750.187 Q1881.75 753.956 1884.6 754.889 Q1887.45 755.797 1889.36 753.882 Q1891.29 751.955 1890.37 749.119 Q1889.45 746.259 1885.68 742.49 Q1881.9 738.709 1879.05 737.801 Q1876.2 736.868 1874.28 738.795 M1872.31 736.831 Q1875.39 733.75 1879.46 734.572 Q1883.52 735.37 1888.16 740.01 Q1892.79 744.639 1893.6 748.714 Q1894.41 752.765 1891.33 755.847 Q1888.25 758.928 1884.18 758.13 Q1880.12 757.307 1875.49 752.679 Q1870.85 748.039 1870.04 743.988 Q1869.23 739.912 1872.31 736.831 Z" fill="#000000" fill-rule="nonzero" fill-opacity="1" /><path clip-path="url(#clip080)" d="M1898.55 741.68 L1901.14 739.09 L1904.25 742.208 L1901.66 744.798 L1898.55 741.68 Z" fill="#000000" fill-rule="nonzero" fill-opacity="1" /><path clip-path="url(#clip080)" d="M1907.29 719.411 Q1909.45 718.012 1911.64 718.22 Q1913.85 718.417 1915.62 720.185 Q1918.33 722.898 1917.95 726.249 Q1917.57 729.6 1914.14 733.038 Q1912.98 734.192 1911.52 735.186 Q1910.09 736.18 1908.33 737.027 L1905.94 734.634 Q1907.57 734.204 1909.1 733.283 Q1910.64 732.362 1911.98 731.024 Q1914.31 728.692 1914.6 726.556 Q1914.91 724.408 1913.15 722.652 Q1911.53 721.032 1909.48 721.265 Q1907.43 721.474 1905.41 723.499 L1903.27 725.635 L1901.23 723.597 L1903.47 721.363 Q1905.3 719.534 1905.54 717.84 Q1905.78 716.133 1904.4 714.759 Q1902.99 713.347 1901.23 713.605 Q1899.48 713.838 1897.61 715.704 Q1896.59 716.723 1895.65 718.11 Q1894.7 719.497 1893.77 721.363 L1891.56 719.153 Q1892.58 717.349 1893.61 715.925 Q1894.65 714.488 1895.75 713.396 Q1898.57 710.572 1901.5 710.216 Q1904.43 709.848 1906.61 712.033 Q1908.13 713.555 1908.32 715.483 Q1908.49 717.398 1907.29 719.411 Z" fill="#000000" fill-rule="nonzero" fill-opacity="1" /><path clip-path="url(#clip080)" d="M1923.28 703.415 Q1925.44 702.016 1927.64 702.225 Q1929.85 702.421 1931.62 704.189 Q1934.33 706.902 1933.95 710.253 Q1933.57 713.605 1930.13 717.042 Q1928.98 718.196 1927.52 719.19 Q1926.08 720.185 1924.33 721.032 L1921.93 718.638 Q1923.56 718.208 1925.1 717.287 Q1926.63 716.367 1927.97 715.029 Q1930.3 712.696 1930.6 710.56 Q1930.91 708.412 1929.15 706.656 Q1927.53 705.036 1925.48 705.269 Q1923.43 705.478 1921.4 707.503 L1919.27 709.639 L1917.23 707.602 L1919.46 705.367 Q1921.29 703.538 1921.54 701.844 Q1921.77 700.138 1920.4 698.763 Q1918.99 697.351 1917.23 697.609 Q1915.47 697.842 1913.61 699.708 Q1912.59 700.727 1911.64 702.114 Q1910.7 703.501 1909.77 705.367 L1907.56 703.158 Q1908.58 701.353 1909.61 699.929 Q1910.65 698.493 1911.74 697.4 Q1914.57 694.577 1917.5 694.221 Q1920.42 693.852 1922.61 696.037 Q1924.13 697.56 1924.31 699.487 Q1924.49 701.402 1923.28 703.415 Z" fill="#000000" fill-rule="nonzero" fill-opacity="1" /><path clip-path="url(#clip080)" d="M2017.48 739.397 Q2015.57 741.312 2016.49 744.172 Q2017.41 747.008 2021.19 750.789 Q2024.96 754.558 2027.81 755.491 Q2030.66 756.399 2032.57 754.484 Q2034.5 752.557 2033.58 749.721 Q2032.66 746.86 2028.89 743.092 Q2025.11 739.311 2022.26 738.402 Q2019.41 737.469 2017.48 739.397 M2015.52 737.432 Q2018.6 734.351 2022.66 735.174 Q2026.73 735.972 2031.37 740.612 Q2036 745.24 2036.81 749.316 Q2037.62 753.367 2034.53 756.448 Q2031.45 759.529 2027.39 758.731 Q2023.33 757.909 2018.7 753.281 Q2014.06 748.641 2013.25 744.589 Q2012.44 740.514 2015.52 737.432 Z" fill="#000000" fill-rule="nonzero" fill-opacity="1" /><path clip-path="url(#clip080)" d="M2041.75 742.282 L2044.34 739.691 L2047.46 742.809 L2044.87 745.4 L2041.75 742.282 Z" fill="#000000" fill-rule="nonzero" fill-opacity="1" /><path clip-path="url(#clip080)" d="M2050.49 720.013 Q2052.65 718.613 2054.85 718.822 Q2057.06 719.018 2058.83 720.786 Q2061.54 723.499 2061.16 726.85 Q2060.78 730.202 2057.34 733.639 Q2056.19 734.793 2054.73 735.787 Q2053.29 736.782 2051.54 737.629 L2049.14 735.235 Q2050.78 734.805 2052.31 733.885 Q2053.84 732.964 2055.18 731.626 Q2057.52 729.293 2057.81 727.157 Q2058.12 725.009 2056.36 723.254 Q2054.74 721.633 2052.69 721.866 Q2050.64 722.075 2048.62 724.101 L2046.48 726.237 L2044.44 724.199 L2046.68 721.965 Q2048.5 720.135 2048.75 718.441 Q2048.98 716.735 2047.61 715.36 Q2046.2 713.948 2044.44 714.206 Q2042.69 714.439 2040.82 716.305 Q2039.8 717.324 2038.86 718.711 Q2037.91 720.099 2036.98 721.965 L2034.77 719.755 Q2035.79 717.95 2036.82 716.526 Q2037.86 715.09 2038.95 713.997 Q2041.78 711.174 2044.71 710.818 Q2047.63 710.45 2049.82 712.635 Q2051.34 714.157 2051.52 716.084 Q2051.7 717.999 2050.49 720.013 Z" fill="#000000" fill-rule="nonzero" fill-opacity="1" /><path clip-path="url(#clip080)" d="M2059.5 698.431 L2063.03 714.476 L2069.29 708.215 L2059.5 698.431 M2056.69 696.921 L2059.81 693.803 L2071.76 705.748 L2074.37 703.133 L2076.43 705.195 L2073.82 707.81 L2078.14 712.131 L2075.67 714.599 L2071.35 710.278 L2063.08 718.552 L2060.68 716.158 L2056.69 696.921 Z" fill="#000000" fill-rule="nonzero" fill-opacity="1" /><path clip-path="url(#clip080)" d="M2162.08 738.611 Q2160.16 740.526 2161.08 743.386 Q2162 746.222 2165.78 750.003 Q2169.55 753.772 2172.4 754.705 Q2175.25 755.613 2177.16 753.698 Q2179.09 751.771 2178.17 748.935 Q2177.25 746.075 2173.48 742.306 Q2169.7 738.525 2166.85 737.617 Q2164 736.684 2162.08 738.611 M2160.11 736.647 Q2163.19 733.565 2167.26 734.388 Q2171.32 735.186 2175.96 739.826 Q2180.59 744.454 2181.4 748.53 Q2182.21 752.581 2179.13 755.662 Q2176.05 758.744 2171.98 757.946 Q2167.92 757.123 2163.29 752.495 Q2158.65 747.855 2157.84 743.804 Q2157.03 739.728 2160.11 736.647 Z" fill="#000000" fill-rule="nonzero" fill-opacity="1" /><path clip-path="url(#clip080)" d="M2186.35 741.496 L2188.94 738.906 L2192.06 742.024 L2189.47 744.614 L2186.35 741.496 Z" fill="#000000" fill-rule="nonzero" fill-opacity="1" /><path clip-path="url(#clip080)" d="M2195.09 719.227 Q2197.25 717.828 2199.45 718.036 Q2201.66 718.233 2203.42 720 Q2206.14 722.713 2205.76 726.065 Q2205.37 729.416 2201.94 732.853 Q2200.78 734.007 2199.32 735.002 Q2197.89 735.996 2196.13 736.843 L2193.74 734.449 Q2195.37 734.02 2196.9 733.099 Q2198.44 732.178 2199.78 730.84 Q2202.11 728.508 2202.4 726.372 Q2202.71 724.223 2200.96 722.468 Q2199.34 720.847 2197.28 721.081 Q2195.23 721.289 2193.21 723.315 L2191.07 725.451 L2189.04 723.413 L2191.27 721.179 Q2193.1 719.35 2193.34 717.656 Q2193.58 715.949 2192.2 714.574 Q2190.79 713.163 2189.04 713.42 Q2187.28 713.654 2185.41 715.52 Q2184.4 716.539 2183.45 717.926 Q2182.5 719.313 2181.57 721.179 L2179.36 718.969 Q2180.38 717.165 2181.41 715.741 Q2182.46 714.304 2183.55 713.212 Q2186.37 710.388 2189.31 710.032 Q2192.23 709.664 2194.41 711.849 Q2195.93 713.371 2196.12 715.299 Q2196.29 717.214 2195.09 719.227 Z" fill="#000000" fill-rule="nonzero" fill-opacity="1" /><path clip-path="url(#clip080)" d="M2195.15 702.274 L2204.88 692.539 L2206.97 694.626 L2199.51 702.09 L2204 706.583 Q2204.36 705.858 2204.81 705.232 Q2205.25 704.594 2205.79 704.054 Q2208.86 700.985 2212.34 700.874 Q2215.81 700.764 2218.68 703.636 Q2221.64 706.595 2221.44 710.081 Q2221.24 713.555 2217.88 716.907 Q2216.73 718.061 2215.33 719.067 Q2213.94 720.062 2212.27 720.946 L2209.78 718.454 Q2211.49 717.95 2212.96 717.066 Q2214.43 716.183 2215.75 714.869 Q2217.87 712.745 2217.99 710.388 Q2218.12 708.031 2216.2 706.116 Q2214.29 704.201 2211.93 704.324 Q2209.57 704.447 2207.45 706.57 Q2206.46 707.565 2205.68 708.78 Q2204.92 709.983 2204.36 711.481 L2195.15 702.274 Z" fill="#000000" fill-rule="nonzero" fill-opacity="1" /><polyline clip-path="url(#clip080)" style="stroke:#000000; stroke-linecap:round; stroke-linejoin:round; stroke-width:4; stroke-opacity:1; fill:none" points="1361.64,667.406 1361.64,97.5521 "/>
<polyline clip-path="url(#clip080)" style="stroke:#000000; stroke-linecap:round; stroke-linejoin:round; stroke-width:4; stroke-opacity:1; fill:none" points="1361.64,651.278 1380.53,651.278 "/>
<polyline clip-path="url(#clip080)" style="stroke:#000000; stroke-linecap:round; stroke-linejoin:round; stroke-width:4; stroke-opacity:1; fill:none" points="1361.64,508.032 1380.53,508.032 "/>
<polyline clip-path="url(#clip080)" style="stroke:#000000; stroke-linecap:round; stroke-linejoin:round; stroke-width:4; stroke-opacity:1; fill:none" points="1361.64,364.785 1380.53,364.785 "/>
<polyline clip-path="url(#clip080)" style="stroke:#000000; stroke-linecap:round; stroke-linejoin:round; stroke-width:4; stroke-opacity:1; fill:none" points="1361.64,221.539 1380.53,221.539 "/>
<path clip-path="url(#clip080)" d="M1260.13 640.627 Q1257.42 640.627 1256.05 643.301 Q1254.7 645.957 1254.7 651.304 Q1254.7 656.634 1256.05 659.308 Q1257.42 661.964 1260.13 661.964 Q1262.86 661.964 1264.21 659.308 Q1265.58 656.634 1265.58 651.304 Q1265.58 645.957 1264.21 643.301 Q1262.86 640.627 1260.13 640.627 M1260.13 637.85 Q1264.49 637.85 1266.78 641.305 Q1269.09 644.742 1269.09 651.304 Q1269.09 657.85 1266.78 661.304 Q1264.49 664.742 1260.13 664.742 Q1255.78 664.742 1253.47 661.304 Q1251.17 657.85 1251.17 651.304 Q1251.17 644.742 1253.47 641.305 Q1255.78 637.85 1260.13 637.85 Z" fill="#000000" fill-rule="nonzero" fill-opacity="1" /><path clip-path="url(#clip080)" d="M1275.25 659.829 L1278.92 659.829 L1278.92 664.238 L1275.25 664.238 L1275.25 659.829 Z" fill="#000000" fill-rule="nonzero" fill-opacity="1" /><path clip-path="url(#clip080)" d="M1294.06 640.627 Q1291.35 640.627 1289.98 643.301 Q1288.62 645.957 1288.62 651.304 Q1288.62 656.634 1289.98 659.308 Q1291.35 661.964 1294.06 661.964 Q1296.78 661.964 1298.14 659.308 Q1299.51 656.634 1299.51 651.304 Q1299.51 645.957 1298.14 643.301 Q1296.78 640.627 1294.06 640.627 M1294.06 637.85 Q1298.41 637.85 1300.71 641.305 Q1303.01 644.742 1303.01 651.304 Q1303.01 657.85 1300.71 661.304 Q1298.41 664.742 1294.06 664.742 Q1289.7 664.742 1287.39 661.304 Q1285.1 657.85 1285.1 651.304 Q1285.1 644.742 1287.39 641.305 Q1289.7 637.85 1294.06 637.85 Z" fill="#000000" fill-rule="nonzero" fill-opacity="1" /><path clip-path="url(#clip080)" d="M1316.68 640.627 Q1313.97 640.627 1312.6 643.301 Q1311.24 645.957 1311.24 651.304 Q1311.24 656.634 1312.6 659.308 Q1313.97 661.964 1316.68 661.964 Q1319.4 661.964 1320.76 659.308 Q1322.13 656.634 1322.13 651.304 Q1322.13 645.957 1320.76 643.301 Q1319.4 640.627 1316.68 640.627 M1316.68 637.85 Q1321.04 637.85 1323.33 641.305 Q1325.64 644.742 1325.64 651.304 Q1325.64 657.85 1323.33 661.304 Q1321.04 664.742 1316.68 664.742 Q1312.32 664.742 1310.01 661.304 Q1307.72 657.85 1307.72 651.304 Q1307.72 644.742 1310.01 641.305 Q1312.32 637.85 1316.68 637.85 Z" fill="#000000" fill-rule="nonzero" fill-opacity="1" /><path clip-path="url(#clip080)" d="M1260.88 497.381 Q1258.17 497.381 1256.8 500.054 Q1255.45 502.711 1255.45 508.058 Q1255.45 513.388 1256.8 516.061 Q1258.17 518.718 1260.88 518.718 Q1263.6 518.718 1264.96 516.061 Q1266.33 513.388 1266.33 508.058 Q1266.33 502.711 1264.96 500.054 Q1263.6 497.381 1260.88 497.381 M1260.88 494.603 Q1265.24 494.603 1267.53 498.058 Q1269.84 501.495 1269.84 508.058 Q1269.84 514.603 1267.53 518.058 Q1265.24 521.495 1260.88 521.495 Q1256.52 521.495 1254.21 518.058 Q1251.92 514.603 1251.92 508.058 Q1251.92 501.495 1254.21 498.058 Q1256.52 494.603 1260.88 494.603 Z" fill="#000000" fill-rule="nonzero" fill-opacity="1" /><path clip-path="url(#clip080)" d="M1276 516.582 L1279.66 516.582 L1279.66 520.992 L1276 520.992 L1276 516.582 Z" fill="#000000" fill-rule="nonzero" fill-opacity="1" /><path clip-path="url(#clip080)" d="M1294.8 497.381 Q1292.09 497.381 1290.72 500.054 Q1289.37 502.711 1289.37 508.058 Q1289.37 513.388 1290.72 516.061 Q1292.09 518.718 1294.8 518.718 Q1297.53 518.718 1298.88 516.061 Q1300.25 513.388 1300.25 508.058 Q1300.25 502.711 1298.88 500.054 Q1297.53 497.381 1294.8 497.381 M1294.8 494.603 Q1299.16 494.603 1301.45 498.058 Q1303.76 501.495 1303.76 508.058 Q1303.76 514.603 1301.45 518.058 Q1299.16 521.495 1294.8 521.495 Q1290.45 521.495 1288.14 518.058 Q1285.84 514.603 1285.84 508.058 Q1285.84 501.495 1288.14 498.058 Q1290.45 494.603 1294.8 494.603 Z" fill="#000000" fill-rule="nonzero" fill-opacity="1" /><path clip-path="url(#clip080)" d="M1309.96 495.072 L1323.73 495.072 L1323.73 498.023 L1313.17 498.023 L1313.17 504.377 Q1313.93 504.117 1314.7 503.995 Q1315.46 503.857 1316.23 503.857 Q1320.57 503.857 1323.1 506.235 Q1325.64 508.613 1325.64 512.676 Q1325.64 516.86 1323.03 519.186 Q1320.43 521.495 1315.69 521.495 Q1314.06 521.495 1312.35 521.218 Q1310.67 520.94 1308.87 520.384 L1308.87 516.86 Q1310.43 517.711 1312.09 518.127 Q1313.76 518.544 1315.62 518.544 Q1318.62 518.544 1320.38 516.964 Q1322.13 515.384 1322.13 512.676 Q1322.13 509.968 1320.38 508.388 Q1318.62 506.808 1315.62 506.808 Q1314.21 506.808 1312.81 507.12 Q1311.42 507.433 1309.96 508.093 L1309.96 495.072 Z" fill="#000000" fill-rule="nonzero" fill-opacity="1" /><path clip-path="url(#clip080)" d="M1260.13 354.134 Q1257.42 354.134 1256.05 356.808 Q1254.7 359.464 1254.7 364.811 Q1254.7 370.141 1256.05 372.815 Q1257.42 375.471 1260.13 375.471 Q1262.86 375.471 1264.21 372.815 Q1265.58 370.141 1265.58 364.811 Q1265.58 359.464 1264.21 356.808 Q1262.86 354.134 1260.13 354.134 M1260.13 351.356 Q1264.49 351.356 1266.78 354.811 Q1269.09 358.249 1269.09 364.811 Q1269.09 371.356 1266.78 374.811 Q1264.49 378.249 1260.13 378.249 Q1255.78 378.249 1253.47 374.811 Q1251.17 371.356 1251.17 364.811 Q1251.17 358.249 1253.47 354.811 Q1255.78 351.356 1260.13 351.356 Z" fill="#000000" fill-rule="nonzero" fill-opacity="1" /><path clip-path="url(#clip080)" d="M1275.25 373.336 L1278.92 373.336 L1278.92 377.745 L1275.25 377.745 L1275.25 373.336 Z" fill="#000000" fill-rule="nonzero" fill-opacity="1" /><path clip-path="url(#clip080)" d="M1287.16 374.794 L1292.89 374.794 L1292.89 355.02 L1286.66 356.27 L1286.66 353.075 L1292.86 351.825 L1296.37 351.825 L1296.37 374.794 L1302.09 374.794 L1302.09 377.745 L1287.16 377.745 L1287.16 374.794 Z" fill="#000000" fill-rule="nonzero" fill-opacity="1" /><path clip-path="url(#clip080)" d="M1316.68 354.134 Q1313.97 354.134 1312.6 356.808 Q1311.24 359.464 1311.24 364.811 Q1311.24 370.141 1312.6 372.815 Q1313.97 375.471 1316.68 375.471 Q1319.4 375.471 1320.76 372.815 Q1322.13 370.141 1322.13 364.811 Q1322.13 359.464 1320.76 356.808 Q1319.4 354.134 1316.68 354.134 M1316.68 351.356 Q1321.04 351.356 1323.33 354.811 Q1325.64 358.249 1325.64 364.811 Q1325.64 371.356 1323.33 374.811 Q1321.04 378.249 1316.68 378.249 Q1312.32 378.249 1310.01 374.811 Q1307.72 371.356 1307.72 364.811 Q1307.72 358.249 1310.01 354.811 Q1312.32 351.356 1316.68 351.356 Z" fill="#000000" fill-rule="nonzero" fill-opacity="1" /><path clip-path="url(#clip080)" d="M1260.88 210.888 Q1258.17 210.888 1256.8 213.561 Q1255.45 216.217 1255.45 221.565 Q1255.45 226.895 1256.8 229.568 Q1258.17 232.224 1260.88 232.224 Q1263.6 232.224 1264.96 229.568 Q1266.33 226.895 1266.33 221.565 Q1266.33 216.217 1264.96 213.561 Q1263.6 210.888 1260.88 210.888 M1260.88 208.11 Q1265.24 208.11 1267.53 211.565 Q1269.84 215.002 1269.84 221.565 Q1269.84 228.11 1267.53 231.565 Q1265.24 235.002 1260.88 235.002 Q1256.52 235.002 1254.21 231.565 Q1251.92 228.11 1251.92 221.565 Q1251.92 215.002 1254.21 211.565 Q1256.52 208.11 1260.88 208.11 Z" fill="#000000" fill-rule="nonzero" fill-opacity="1" /><path clip-path="url(#clip080)" d="M1276 230.089 L1279.66 230.089 L1279.66 234.499 L1276 234.499 L1276 230.089 Z" fill="#000000" fill-rule="nonzero" fill-opacity="1" /><path clip-path="url(#clip080)" d="M1287.91 231.547 L1293.64 231.547 L1293.64 211.773 L1287.41 213.023 L1287.41 209.829 L1293.6 208.579 L1297.11 208.579 L1297.11 231.547 L1302.84 231.547 L1302.84 234.499 L1287.91 234.499 L1287.91 231.547 Z" fill="#000000" fill-rule="nonzero" fill-opacity="1" /><path clip-path="url(#clip080)" d="M1309.96 208.579 L1323.73 208.579 L1323.73 211.53 L1313.17 211.53 L1313.17 217.884 Q1313.93 217.624 1314.7 217.502 Q1315.46 217.363 1316.23 217.363 Q1320.57 217.363 1323.1 219.742 Q1325.64 222.12 1325.64 226.183 Q1325.64 230.367 1323.03 232.693 Q1320.43 235.002 1315.69 235.002 Q1314.06 235.002 1312.35 234.724 Q1310.67 234.447 1308.87 233.891 L1308.87 230.367 Q1310.43 231.217 1312.09 231.634 Q1313.76 232.051 1315.62 232.051 Q1318.62 232.051 1320.38 230.471 Q1322.13 228.891 1322.13 226.183 Q1322.13 223.474 1320.38 221.895 Q1318.62 220.315 1315.62 220.315 Q1314.21 220.315 1312.81 220.627 Q1311.42 220.94 1309.96 221.599 L1309.96 208.579 Z" fill="#000000" fill-rule="nonzero" fill-opacity="1" /><path clip-path="url(#clip080)" d="M1373.53 18.9258 Q1370.02 18.9258 1368.12 21.4721 Q1366.13 24.1341 1366.13 28.5323 Q1366.13 33.185 1368.09 35.8702 Q1370.08 38.5322 1373.53 38.5322 Q1376.94 38.5322 1378.93 35.847 Q1380.92 33.1619 1380.92 28.5323 Q1380.92 24.2962 1378.93 21.4721 Q1377.1 18.9258 1373.53 18.9258 M1373.53 15.5462 L1387.68 15.5462 L1387.68 19.8054 L1382.91 19.8054 Q1385.43 23.4165 1385.43 28.5323 Q1385.43 34.898 1382.26 38.5091 Q1379.09 42.1433 1373.53 42.1433 Q1367.96 42.1433 1364.81 38.5091 Q1361.64 34.898 1361.64 28.5323 Q1361.64 22.1203 1364.81 18.5323 Q1367.42 15.5462 1373.53 15.5462 Z" fill="#000000" fill-rule="nonzero" fill-opacity="1" /><path clip-path="url(#clip080)" d="M1411.84 19.6666 Q1410.99 19.3656 1410.13 19.1342 Q1407.84 18.5323 1405.39 18.5323 Q1401.15 18.5323 1398.79 20.824 Q1396.59 22.9536 1396.17 26.8656 L1411.84 26.8656 L1411.84 30.1989 L1396.17 30.1989 Q1396.59 34.1109 1398.79 36.2405 Q1401.15 38.5322 1405.39 38.5322 Q1408.35 38.5322 1410.13 37.9304 L1411.84 37.3517 L1411.84 41.2174 L1410.02 41.634 Q1407.61 42.1433 1405.13 42.1433 Q1398.93 42.1433 1395.32 38.5322 Q1391.68 34.9211 1391.68 28.5323 Q1391.68 22.1434 1395.32 18.5323 Q1398.93 14.9212 1405.13 14.9212 Q1407.47 14.9212 1410.02 15.4305 Q1410.94 15.6157 1411.84 15.8934 L1411.84 19.6666 Z" fill="#000000" fill-rule="nonzero" fill-opacity="1" /><polyline clip-path="url(#clip083)" style="stroke:#009af9; stroke-linecap:round; stroke-linejoin:round; stroke-width:4; stroke-opacity:1; fill:none" points="1389.69,164.877 1448.13,222.878 1506.56,281.678 1565,341.278 1623.44,401.678 1681.88,462.878 1740.32,524.878 1798.76,587.678 1857.2,651.278 1915.63,586.879 1974.07,521.679 2032.51,455.679 2090.95,388.879 2149.39,321.279 2207.83,252.879 2266.27,183.68 2324.71,113.68 "/>
<circle clip-path="url(#clip083)" cx="1857.2" cy="651.278" r="10.8" fill="#ff0000" fill-rule="evenodd" fill-opacity="1" stroke="#000000" stroke-opacity="1" stroke-width="3.2"/>
<path clip-path="url(#clip080)" d="M161.818 1467.41 L1152.94 1467.41 L1152.94 897.552 L161.818 897.552  Z" fill="#ffffff" fill-rule="evenodd" fill-opacity="1"/>
<defs>
  <clipPath id="clip084">
    <rect x="161" y="897" width="992" height="571"/>
  </clipPath>
</defs>
<polyline clip-path="url(#clip084)" style="stroke:#000000; stroke-linecap:round; stroke-linejoin:round; stroke-width:2; stroke-opacity:0.1; fill:none" points="293.886,1467.41 293.886,897.552 "/>
<polyline clip-path="url(#clip084)" style="stroke:#000000; stroke-linecap:round; stroke-linejoin:round; stroke-width:2; stroke-opacity:0.1; fill:none" points="466.35,1467.41 466.35,897.552 "/>
<polyline clip-path="url(#clip084)" style="stroke:#000000; stroke-linecap:round; stroke-linejoin:round; stroke-width:2; stroke-opacity:0.1; fill:none" points="638.814,1467.41 638.814,897.552 "/>
<polyline clip-path="url(#clip084)" style="stroke:#000000; stroke-linecap:round; stroke-linejoin:round; stroke-width:2; stroke-opacity:0.1; fill:none" points="811.278,1467.41 811.278,897.552 "/>
<polyline clip-path="url(#clip084)" style="stroke:#000000; stroke-linecap:round; stroke-linejoin:round; stroke-width:2; stroke-opacity:0.1; fill:none" points="983.742,1467.41 983.742,897.552 "/>
<polyline clip-path="url(#clip084)" style="stroke:#000000; stroke-linecap:round; stroke-linejoin:round; stroke-width:2; stroke-opacity:0.1; fill:none" points="161.818,1451.28 1152.94,1451.28 "/>
<polyline clip-path="url(#clip084)" style="stroke:#000000; stroke-linecap:round; stroke-linejoin:round; stroke-width:2; stroke-opacity:0.1; fill:none" points="161.818,1330.8 1152.94,1330.8 "/>
<polyline clip-path="url(#clip084)" style="stroke:#000000; stroke-linecap:round; stroke-linejoin:round; stroke-width:2; stroke-opacity:0.1; fill:none" points="161.818,1210.32 1152.94,1210.32 "/>
<polyline clip-path="url(#clip084)" style="stroke:#000000; stroke-linecap:round; stroke-linejoin:round; stroke-width:2; stroke-opacity:0.1; fill:none" points="161.818,1089.85 1152.94,1089.85 "/>
<polyline clip-path="url(#clip084)" style="stroke:#000000; stroke-linecap:round; stroke-linejoin:round; stroke-width:2; stroke-opacity:0.1; fill:none" points="161.818,969.37 1152.94,969.37 "/>
<polyline clip-path="url(#clip080)" style="stroke:#000000; stroke-linecap:round; stroke-linejoin:round; stroke-width:4; stroke-opacity:1; fill:none" points="161.818,1467.41 1152.94,1467.41 "/>
<polyline clip-path="url(#clip080)" style="stroke:#000000; stroke-linecap:round; stroke-linejoin:round; stroke-width:4; stroke-opacity:1; fill:none" points="293.886,1467.41 293.886,1448.51 "/>
<polyline clip-path="url(#clip080)" style="stroke:#000000; stroke-linecap:round; stroke-linejoin:round; stroke-width:4; stroke-opacity:1; fill:none" points="466.35,1467.41 466.35,1448.51 "/>
<polyline clip-path="url(#clip080)" style="stroke:#000000; stroke-linecap:round; stroke-linejoin:round; stroke-width:4; stroke-opacity:1; fill:none" points="638.814,1467.41 638.814,1448.51 "/>
<polyline clip-path="url(#clip080)" style="stroke:#000000; stroke-linecap:round; stroke-linejoin:round; stroke-width:4; stroke-opacity:1; fill:none" points="811.278,1467.41 811.278,1448.51 "/>
<polyline clip-path="url(#clip080)" style="stroke:#000000; stroke-linecap:round; stroke-linejoin:round; stroke-width:4; stroke-opacity:1; fill:none" points="983.742,1467.41 983.742,1448.51 "/>
<path clip-path="url(#clip080)" d="M240.037 1539.14 Q238.122 1541.05 239.043 1543.91 Q239.963 1546.75 243.744 1550.53 Q247.513 1554.3 250.361 1555.23 Q253.209 1556.14 255.124 1554.23 Q257.052 1552.3 256.131 1549.46 Q255.21 1546.6 251.441 1542.83 Q247.66 1539.05 244.812 1538.14 Q241.964 1537.21 240.037 1539.14 M238.073 1537.17 Q241.154 1534.09 245.217 1534.92 Q249.281 1535.71 253.921 1540.35 Q258.549 1544.98 259.359 1549.06 Q260.17 1553.11 257.088 1556.19 Q254.007 1559.27 249.944 1558.47 Q245.88 1557.65 241.252 1553.02 Q236.612 1548.38 235.802 1544.33 Q234.991 1540.26 238.073 1537.17 Z" fill="#000000" fill-rule="nonzero" fill-opacity="1" /><path clip-path="url(#clip080)" d="M264.307 1542.02 L266.897 1539.43 L270.015 1542.55 L267.425 1545.14 L264.307 1542.02 Z" fill="#000000" fill-rule="nonzero" fill-opacity="1" /><path clip-path="url(#clip080)" d="M257.113 1518.8 L266.848 1509.06 L268.935 1511.15 L261.471 1518.61 L265.964 1523.11 Q266.32 1522.38 266.774 1521.76 Q267.216 1521.12 267.756 1520.58 Q270.825 1517.51 274.299 1517.4 Q277.774 1517.29 280.646 1520.16 Q283.605 1523.12 283.408 1526.6 Q283.2 1530.08 279.848 1533.43 Q278.694 1534.58 277.295 1535.59 Q275.908 1536.59 274.238 1537.47 L271.746 1534.98 Q273.452 1534.47 274.926 1533.59 Q276.399 1532.71 277.712 1531.39 Q279.836 1529.27 279.959 1526.91 Q280.082 1524.55 278.166 1522.64 Q276.251 1520.72 273.894 1520.85 Q271.537 1520.97 269.414 1523.09 Q268.419 1524.09 267.646 1525.3 Q266.885 1526.51 266.32 1528 L257.113 1518.8 Z" fill="#000000" fill-rule="nonzero" fill-opacity="1" /><path clip-path="url(#clip080)" d="M280.02 1499.16 Q278.105 1501.07 279.026 1503.93 Q279.946 1506.77 283.728 1510.55 Q287.496 1514.32 290.344 1515.25 Q293.192 1516.16 295.107 1514.24 Q297.035 1512.32 296.114 1509.48 Q295.193 1506.62 291.425 1502.85 Q287.644 1499.07 284.796 1498.16 Q281.947 1497.23 280.02 1499.16 M278.056 1497.19 Q281.137 1494.11 285.201 1494.93 Q289.264 1495.73 293.904 1500.37 Q298.532 1505 299.343 1509.07 Q300.153 1513.13 297.072 1516.21 Q293.99 1519.29 289.927 1518.49 Q285.864 1517.67 281.235 1513.04 Q276.595 1508.4 275.785 1504.35 Q274.975 1500.27 278.056 1497.19 Z" fill="#000000" fill-rule="nonzero" fill-opacity="1" /><path clip-path="url(#clip080)" d="M413.348 1538.29 Q411.433 1540.21 412.354 1543.07 Q413.274 1545.9 417.055 1549.68 Q420.824 1553.45 423.672 1554.39 Q426.52 1555.29 428.435 1553.38 Q430.363 1551.45 429.442 1548.62 Q428.521 1545.76 424.753 1541.99 Q420.972 1538.21 418.123 1537.3 Q415.275 1536.36 413.348 1538.29 M411.384 1536.33 Q414.465 1533.25 418.529 1534.07 Q422.592 1534.87 427.232 1539.51 Q431.86 1544.14 432.671 1548.21 Q433.481 1552.26 430.4 1555.34 Q427.318 1558.42 423.255 1557.63 Q419.191 1556.8 414.563 1552.18 Q409.923 1547.54 409.113 1543.48 Q408.303 1539.41 411.384 1536.33 Z" fill="#000000" fill-rule="nonzero" fill-opacity="1" /><path clip-path="url(#clip080)" d="M437.618 1541.18 L440.208 1538.59 L443.326 1541.7 L440.736 1544.29 L437.618 1541.18 Z" fill="#000000" fill-rule="nonzero" fill-opacity="1" /><path clip-path="url(#clip080)" d="M430.424 1517.95 L440.159 1508.22 L442.246 1510.3 L434.782 1517.77 L439.275 1522.26 Q439.631 1521.53 440.085 1520.91 Q440.527 1520.27 441.067 1519.73 Q444.136 1516.66 447.611 1516.55 Q451.085 1516.44 453.957 1519.31 Q456.916 1522.27 456.719 1525.76 Q456.511 1529.23 453.159 1532.58 Q452.005 1533.74 450.606 1534.74 Q449.219 1535.74 447.549 1536.62 L445.057 1534.13 Q446.764 1533.63 448.237 1532.74 Q449.71 1531.86 451.023 1530.55 Q453.147 1528.42 453.27 1526.06 Q453.393 1523.71 451.478 1521.79 Q449.563 1519.88 447.206 1520 Q444.849 1520.12 442.725 1522.25 Q441.73 1523.24 440.957 1524.46 Q440.196 1525.66 439.631 1527.16 L430.424 1517.95 Z" fill="#000000" fill-rule="nonzero" fill-opacity="1" /><path clip-path="url(#clip080)" d="M464.773 1516.08 L473.427 1507.43 L475.514 1509.52 L463.876 1521.15 L461.79 1519.07 Q461.74 1516.19 461.716 1511.31 Q461.691 1506.4 461.605 1505.06 Q461.458 1502.53 461.004 1501.14 Q460.55 1499.73 459.653 1498.84 Q458.193 1497.38 456.241 1497.49 Q454.301 1497.58 452.656 1499.23 Q451.49 1500.4 450.594 1502.1 Q449.71 1503.8 449.059 1506.09 L446.555 1503.59 Q447.451 1501.49 448.445 1499.88 Q449.44 1498.27 450.52 1497.19 Q453.368 1494.34 456.486 1494.07 Q459.604 1493.8 461.986 1496.18 Q463.115 1497.31 463.705 1498.76 Q464.294 1500.19 464.552 1502.68 Q464.601 1503.34 464.662 1506.69 Q464.711 1510.03 464.773 1516.08 Z" fill="#000000" fill-rule="nonzero" fill-opacity="1" /><path clip-path="url(#clip080)" d="M584.707 1539.4 Q582.792 1541.31 583.713 1544.17 Q584.634 1547.01 588.415 1550.79 Q592.183 1554.56 595.032 1555.49 Q597.88 1556.4 599.795 1554.48 Q601.722 1552.56 600.801 1549.72 Q599.881 1546.86 596.112 1543.09 Q592.331 1539.31 589.483 1538.4 Q586.635 1537.47 584.707 1539.4 M582.743 1537.43 Q585.824 1534.35 589.888 1535.17 Q593.951 1535.97 598.592 1540.61 Q603.22 1545.24 604.03 1549.32 Q604.84 1553.37 601.759 1556.45 Q598.678 1559.53 594.614 1558.73 Q590.551 1557.91 585.923 1553.28 Q581.282 1548.64 580.472 1544.59 Q579.662 1540.51 582.743 1537.43 Z" fill="#000000" fill-rule="nonzero" fill-opacity="1" /><path clip-path="url(#clip080)" d="M608.977 1542.28 L611.567 1539.69 L614.686 1542.81 L612.095 1545.4 L608.977 1542.28 Z" fill="#000000" fill-rule="nonzero" fill-opacity="1" /><path clip-path="url(#clip080)" d="M601.783 1519.06 L611.518 1509.32 L613.605 1511.41 L606.141 1518.87 L610.634 1523.36 Q610.99 1522.64 611.445 1522.01 Q611.887 1521.38 612.427 1520.84 Q615.496 1517.77 618.97 1517.66 Q622.444 1517.55 625.317 1520.42 Q628.275 1523.38 628.079 1526.86 Q627.87 1530.34 624.519 1533.69 Q623.365 1534.84 621.965 1535.85 Q620.578 1536.84 618.909 1537.73 L616.416 1535.24 Q618.123 1534.73 619.596 1533.85 Q621.069 1532.96 622.383 1531.65 Q624.506 1529.53 624.629 1527.17 Q624.752 1524.81 622.837 1522.9 Q620.922 1520.98 618.565 1521.11 Q616.208 1521.23 614.084 1523.35 Q613.09 1524.35 612.316 1525.56 Q611.555 1526.76 610.99 1528.26 L601.783 1519.06 Z" fill="#000000" fill-rule="nonzero" fill-opacity="1" /><path clip-path="url(#clip080)" d="M626.728 1498.43 L630.252 1514.48 L636.512 1508.22 L626.728 1498.43 M623.917 1496.92 L627.035 1493.8 L638.98 1505.75 L641.595 1503.13 L643.657 1505.2 L641.042 1507.81 L645.363 1512.13 L642.896 1514.6 L638.575 1510.28 L630.301 1518.55 L627.907 1516.16 L623.917 1496.92 Z" fill="#000000" fill-rule="nonzero" fill-opacity="1" /><path clip-path="url(#clip080)" d="M757.343 1539.22 Q755.428 1541.14 756.349 1544 Q757.27 1546.84 761.051 1550.62 Q764.819 1554.39 767.667 1555.32 Q770.516 1556.23 772.431 1554.31 Q774.358 1552.38 773.437 1549.55 Q772.517 1546.69 768.748 1542.92 Q764.967 1539.14 762.119 1538.23 Q759.271 1537.3 757.343 1539.22 M755.379 1537.26 Q758.46 1534.18 762.524 1535 Q766.587 1535.8 771.228 1540.44 Q775.856 1545.07 776.666 1549.14 Q777.476 1553.19 774.395 1556.28 Q771.313 1559.36 767.25 1558.56 Q763.187 1557.74 758.559 1553.11 Q753.918 1548.47 753.108 1544.42 Q752.298 1540.34 755.379 1537.26 Z" fill="#000000" fill-rule="nonzero" fill-opacity="1" /><path clip-path="url(#clip080)" d="M781.613 1542.11 L784.203 1539.52 L787.321 1542.64 L784.731 1545.23 L781.613 1542.11 Z" fill="#000000" fill-rule="nonzero" fill-opacity="1" /><path clip-path="url(#clip080)" d="M774.419 1518.88 L784.154 1509.15 L786.241 1511.24 L778.777 1518.7 L783.27 1523.19 Q783.626 1522.47 784.081 1521.84 Q784.523 1521.2 785.063 1520.66 Q788.132 1517.59 791.606 1517.48 Q795.08 1517.37 797.953 1520.25 Q800.911 1523.2 800.715 1526.69 Q800.506 1530.17 797.155 1533.52 Q796.001 1534.67 794.601 1535.68 Q793.214 1536.67 791.544 1537.56 L789.052 1535.06 Q790.759 1534.56 792.232 1533.68 Q793.705 1532.79 795.019 1531.48 Q797.142 1529.35 797.265 1527 Q797.388 1524.64 795.473 1522.73 Q793.558 1520.81 791.201 1520.93 Q788.844 1521.06 786.72 1523.18 Q785.726 1524.17 784.952 1525.39 Q784.191 1526.59 783.626 1528.09 L774.419 1518.88 Z" fill="#000000" fill-rule="nonzero" fill-opacity="1" /><path clip-path="url(#clip080)" d="M804.177 1505.48 Q802.507 1507.15 802.667 1509.27 Q802.838 1511.38 804.827 1513.37 Q806.804 1515.35 808.927 1515.53 Q811.051 1515.69 812.721 1514.02 Q814.39 1512.35 814.218 1510.24 Q814.047 1508.1 812.07 1506.13 Q810.081 1504.14 807.958 1503.98 Q805.846 1503.81 804.177 1505.48 M801.329 1492.78 L803.587 1495.04 Q802.212 1495.53 801.022 1496.26 Q799.843 1496.97 798.91 1497.9 Q796.455 1500.36 796.811 1503.32 Q797.179 1506.26 800.346 1509.8 Q800.003 1508.01 800.531 1506.35 Q801.046 1504.68 802.36 1503.37 Q805.122 1500.6 808.4 1500.69 Q811.677 1500.75 814.562 1503.64 Q817.386 1506.46 817.422 1509.84 Q817.459 1513.21 814.685 1515.99 Q811.505 1519.17 807.393 1518.42 Q803.268 1517.66 798.64 1513.03 Q794.294 1508.68 793.779 1504.04 Q793.251 1499.39 796.725 1495.91 Q797.658 1494.98 798.787 1494.22 Q799.929 1493.45 801.329 1492.78 Z" fill="#000000" fill-rule="nonzero" fill-opacity="1" /><path clip-path="url(#clip080)" d="M929.942 1539.09 Q928.027 1541 928.948 1543.87 Q929.869 1546.7 933.65 1550.48 Q937.419 1554.25 940.267 1555.18 Q943.115 1556.09 945.03 1554.18 Q946.957 1552.25 946.036 1549.41 Q945.116 1546.55 941.347 1542.78 Q937.566 1539 934.718 1538.1 Q931.87 1537.16 929.942 1539.09 M927.978 1537.13 Q931.06 1534.04 935.123 1534.87 Q939.186 1535.66 943.827 1540.31 Q948.455 1544.93 949.265 1549.01 Q950.075 1553.06 946.994 1556.14 Q943.913 1559.22 939.849 1558.42 Q935.786 1557.6 931.158 1552.97 Q926.517 1548.33 925.707 1544.28 Q924.897 1540.21 927.978 1537.13 Z" fill="#000000" fill-rule="nonzero" fill-opacity="1" /><path clip-path="url(#clip080)" d="M954.212 1541.97 L956.803 1539.38 L959.921 1542.5 L957.33 1545.09 L954.212 1541.97 Z" fill="#000000" fill-rule="nonzero" fill-opacity="1" /><path clip-path="url(#clip080)" d="M947.018 1518.75 L956.753 1509.01 L958.84 1511.1 L951.376 1518.56 L955.87 1523.06 Q956.226 1522.33 956.68 1521.71 Q957.122 1521.07 957.662 1520.53 Q960.731 1517.46 964.205 1517.35 Q967.679 1517.24 970.552 1520.11 Q973.51 1523.07 973.314 1526.56 Q973.105 1530.03 969.754 1533.38 Q968.6 1534.54 967.2 1535.54 Q965.813 1536.54 964.144 1537.42 L961.652 1534.93 Q963.358 1534.42 964.831 1533.54 Q966.304 1532.66 967.618 1531.34 Q969.742 1529.22 969.864 1526.86 Q969.987 1524.51 968.072 1522.59 Q966.157 1520.68 963.8 1520.8 Q961.443 1520.92 959.319 1523.04 Q958.325 1524.04 957.551 1525.25 Q956.79 1526.46 956.226 1527.96 L947.018 1518.75 Z" fill="#000000" fill-rule="nonzero" fill-opacity="1" /><path clip-path="url(#clip080)" d="M977.917 1507.1 Q976.15 1508.87 976.076 1510.83 Q976.015 1512.78 977.672 1514.44 Q979.329 1516.1 981.281 1516.04 Q983.245 1515.96 985.013 1514.19 Q986.781 1512.43 986.854 1510.46 Q986.916 1508.49 985.271 1506.84 Q983.613 1505.18 981.649 1505.26 Q979.697 1505.32 977.917 1507.1 M974.382 1508.52 Q972.393 1509.73 970.404 1509.53 Q968.428 1509.32 966.857 1507.75 Q964.659 1505.55 964.942 1502.72 Q965.236 1499.87 967.961 1497.14 Q970.699 1494.4 973.535 1494.12 Q976.371 1493.84 978.568 1496.04 Q980.139 1497.61 980.336 1499.6 Q980.544 1501.57 979.354 1503.55 Q981.563 1502.18 983.773 1502.4 Q985.995 1502.61 987.751 1504.36 Q990.414 1507.02 990.206 1510.08 Q990.009 1513.13 986.977 1516.16 Q983.945 1519.19 980.888 1519.4 Q977.844 1519.6 975.18 1516.93 Q973.424 1515.18 973.216 1512.95 Q973.007 1510.73 974.382 1508.52 M969.557 1505.51 Q970.981 1506.94 972.663 1506.85 Q974.357 1506.75 975.965 1505.15 Q977.561 1503.55 977.66 1501.86 Q977.77 1500.15 976.346 1498.73 Q974.922 1497.3 973.216 1497.41 Q971.522 1497.51 969.926 1499.11 Q968.317 1500.71 968.219 1502.41 Q968.133 1504.09 969.557 1505.51 Z" fill="#000000" fill-rule="nonzero" fill-opacity="1" /><polyline clip-path="url(#clip080)" style="stroke:#000000; stroke-linecap:round; stroke-linejoin:round; stroke-width:4; stroke-opacity:1; fill:none" points="161.818,1467.41 161.818,897.552 "/>
<polyline clip-path="url(#clip080)" style="stroke:#000000; stroke-linecap:round; stroke-linejoin:round; stroke-width:4; stroke-opacity:1; fill:none" points="161.818,1451.28 180.716,1451.28 "/>
<polyline clip-path="url(#clip080)" style="stroke:#000000; stroke-linecap:round; stroke-linejoin:round; stroke-width:4; stroke-opacity:1; fill:none" points="161.818,1330.8 180.716,1330.8 "/>
<polyline clip-path="url(#clip080)" style="stroke:#000000; stroke-linecap:round; stroke-linejoin:round; stroke-width:4; stroke-opacity:1; fill:none" points="161.818,1210.32 180.716,1210.32 "/>
<polyline clip-path="url(#clip080)" style="stroke:#000000; stroke-linecap:round; stroke-linejoin:round; stroke-width:4; stroke-opacity:1; fill:none" points="161.818,1089.85 180.716,1089.85 "/>
<polyline clip-path="url(#clip080)" style="stroke:#000000; stroke-linecap:round; stroke-linejoin:round; stroke-width:4; stroke-opacity:1; fill:none" points="161.818,969.37 180.716,969.37 "/>
<path clip-path="url(#clip080)" d="M60.315 1440.63 Q57.6067 1440.63 56.2352 1443.3 Q54.881 1445.96 54.881 1451.3 Q54.881 1456.63 56.2352 1459.31 Q57.6067 1461.96 60.315 1461.96 Q63.0407 1461.96 64.3948 1459.31 Q65.7664 1456.63 65.7664 1451.3 Q65.7664 1445.96 64.3948 1443.3 Q63.0407 1440.63 60.315 1440.63 M60.315 1437.85 Q64.6726 1437.85 66.9643 1441.3 Q69.2733 1444.74 69.2733 1451.3 Q69.2733 1457.85 66.9643 1461.3 Q64.6726 1464.74 60.315 1464.74 Q55.9574 1464.74 53.6484 1461.3 Q51.3567 1457.85 51.3567 1451.3 Q51.3567 1444.74 53.6484 1441.3 Q55.9574 1437.85 60.315 1437.85 Z" fill="#000000" fill-rule="nonzero" fill-opacity="1" /><path clip-path="url(#clip080)" d="M75.4364 1459.83 L79.0996 1459.83 L79.0996 1464.24 L75.4364 1464.24 L75.4364 1459.83 Z" fill="#000000" fill-rule="nonzero" fill-opacity="1" /><path clip-path="url(#clip080)" d="M94.2384 1440.63 Q91.5301 1440.63 90.1586 1443.3 Q88.8044 1445.96 88.8044 1451.3 Q88.8044 1456.63 90.1586 1459.31 Q91.5301 1461.96 94.2384 1461.96 Q96.9641 1461.96 98.3183 1459.31 Q99.6898 1456.63 99.6898 1451.3 Q99.6898 1445.96 98.3183 1443.3 Q96.9641 1440.63 94.2384 1440.63 M94.2384 1437.85 Q98.596 1437.85 100.888 1441.3 Q103.197 1444.74 103.197 1451.3 Q103.197 1457.85 100.888 1461.3 Q98.596 1464.74 94.2384 1464.74 Q89.8808 1464.74 87.5718 1461.3 Q85.2801 1457.85 85.2801 1451.3 Q85.2801 1444.74 87.5718 1441.3 Q89.8808 1437.85 94.2384 1437.85 Z" fill="#000000" fill-rule="nonzero" fill-opacity="1" /><path clip-path="url(#clip080)" d="M116.86 1440.63 Q114.152 1440.63 112.78 1443.3 Q111.426 1445.96 111.426 1451.3 Q111.426 1456.63 112.78 1459.31 Q114.152 1461.96 116.86 1461.96 Q119.586 1461.96 120.94 1459.31 Q122.311 1456.63 122.311 1451.3 Q122.311 1445.96 120.94 1443.3 Q119.586 1440.63 116.86 1440.63 M116.86 1437.85 Q121.217 1437.85 123.509 1441.3 Q125.818 1444.74 125.818 1451.3 Q125.818 1457.85 123.509 1461.3 Q121.217 1464.74 116.86 1464.74 Q112.502 1464.74 110.193 1461.3 Q107.902 1457.85 107.902 1451.3 Q107.902 1444.74 110.193 1441.3 Q112.502 1437.85 116.86 1437.85 Z" fill="#000000" fill-rule="nonzero" fill-opacity="1" /><path clip-path="url(#clip080)" d="M61.2351 1320.15 Q58.5268 1320.15 57.1553 1322.82 Q55.8011 1325.48 55.8011 1330.83 Q55.8011 1336.16 57.1553 1338.83 Q58.5268 1341.49 61.2351 1341.49 Q63.9608 1341.49 65.315 1338.83 Q66.6865 1336.16 66.6865 1330.83 Q66.6865 1325.48 65.315 1322.82 Q63.9608 1320.15 61.2351 1320.15 M61.2351 1317.37 Q65.5927 1317.37 67.8844 1320.83 Q70.1934 1324.26 70.1934 1330.83 Q70.1934 1337.37 67.8844 1340.83 Q65.5927 1344.26 61.2351 1344.26 Q56.8775 1344.26 54.5685 1340.83 Q52.2768 1337.37 52.2768 1330.83 Q52.2768 1324.26 54.5685 1320.83 Q56.8775 1317.37 61.2351 1317.37 Z" fill="#000000" fill-rule="nonzero" fill-opacity="1" /><path clip-path="url(#clip080)" d="M76.3566 1339.35 L80.0197 1339.35 L80.0197 1343.76 L76.3566 1343.76 L76.3566 1339.35 Z" fill="#000000" fill-rule="nonzero" fill-opacity="1" /><path clip-path="url(#clip080)" d="M95.1586 1320.15 Q92.4502 1320.15 91.0787 1322.82 Q89.7246 1325.48 89.7246 1330.83 Q89.7246 1336.16 91.0787 1338.83 Q92.4502 1341.49 95.1586 1341.49 Q97.8842 1341.49 99.2384 1338.83 Q100.61 1336.16 100.61 1330.83 Q100.61 1325.48 99.2384 1322.82 Q97.8842 1320.15 95.1586 1320.15 M95.1586 1317.37 Q99.5162 1317.37 101.808 1320.83 Q104.117 1324.26 104.117 1330.83 Q104.117 1337.37 101.808 1340.83 Q99.5162 1344.26 95.1586 1344.26 Q90.8009 1344.26 88.4919 1340.83 Q86.2003 1337.37 86.2003 1330.83 Q86.2003 1324.26 88.4919 1320.83 Q90.8009 1317.37 95.1586 1317.37 Z" fill="#000000" fill-rule="nonzero" fill-opacity="1" /><path clip-path="url(#clip080)" d="M110.888 1340.81 L116.617 1340.81 L116.617 1321.04 L110.384 1322.29 L110.384 1319.09 L116.582 1317.84 L120.089 1317.84 L120.089 1340.81 L125.818 1340.81 L125.818 1343.76 L110.888 1343.76 L110.888 1340.81 Z" fill="#000000" fill-rule="nonzero" fill-opacity="1" /><path clip-path="url(#clip080)" d="M61.5129 1199.67 Q58.8046 1199.67 57.4331 1202.35 Q56.0789 1205 56.0789 1210.35 Q56.0789 1215.68 57.4331 1218.35 Q58.8046 1221.01 61.5129 1221.01 Q64.2386 1221.01 65.5927 1218.35 Q66.9643 1215.68 66.9643 1210.35 Q66.9643 1205 65.5927 1202.35 Q64.2386 1199.67 61.5129 1199.67 M61.5129 1196.9 Q65.8705 1196.9 68.1622 1200.35 Q70.4712 1203.79 70.4712 1210.35 Q70.4712 1216.9 68.1622 1220.35 Q65.8705 1223.79 61.5129 1223.79 Q57.1553 1223.79 54.8463 1220.35 Q52.5546 1216.9 52.5546 1210.35 Q52.5546 1203.79 54.8463 1200.35 Q57.1553 1196.9 61.5129 1196.9 Z" fill="#000000" fill-rule="nonzero" fill-opacity="1" /><path clip-path="url(#clip080)" d="M76.6343 1218.87 L80.2975 1218.87 L80.2975 1223.28 L76.6343 1223.28 L76.6343 1218.87 Z" fill="#000000" fill-rule="nonzero" fill-opacity="1" /><path clip-path="url(#clip080)" d="M95.4363 1199.67 Q92.728 1199.67 91.3565 1202.35 Q90.0023 1205 90.0023 1210.35 Q90.0023 1215.68 91.3565 1218.35 Q92.728 1221.01 95.4363 1221.01 Q98.162 1221.01 99.5162 1218.35 Q100.888 1215.68 100.888 1210.35 Q100.888 1205 99.5162 1202.35 Q98.162 1199.67 95.4363 1199.67 M95.4363 1196.9 Q99.7939 1196.9 102.086 1200.35 Q104.395 1203.79 104.395 1210.35 Q104.395 1216.9 102.086 1220.35 Q99.7939 1223.79 95.4363 1223.79 Q91.0787 1223.79 88.7697 1220.35 Q86.478 1216.9 86.478 1210.35 Q86.478 1203.79 88.7697 1200.35 Q91.0787 1196.9 95.4363 1196.9 Z" fill="#000000" fill-rule="nonzero" fill-opacity="1" /><path clip-path="url(#clip080)" d="M113.579 1220.33 L125.818 1220.33 L125.818 1223.28 L109.36 1223.28 L109.36 1220.33 Q111.356 1218.27 114.794 1214.79 Q118.249 1211.31 119.134 1210.3 Q120.818 1208.41 121.478 1207.1 Q122.155 1205.78 122.155 1204.52 Q122.155 1202.45 120.697 1201.15 Q119.256 1199.85 116.929 1199.85 Q115.28 1199.85 113.44 1200.42 Q111.617 1200.99 109.533 1202.16 L109.533 1198.61 Q111.652 1197.76 113.492 1197.33 Q115.332 1196.9 116.86 1196.9 Q120.888 1196.9 123.283 1198.91 Q125.679 1200.92 125.679 1204.29 Q125.679 1205.89 125.072 1207.33 Q124.481 1208.75 122.901 1210.7 Q122.467 1211.2 120.141 1213.61 Q117.815 1216.01 113.579 1220.33 Z" fill="#000000" fill-rule="nonzero" fill-opacity="1" /><path clip-path="url(#clip080)" d="M60.8011 1079.2 Q58.0928 1079.2 56.7213 1081.87 Q55.3671 1084.53 55.3671 1089.87 Q55.3671 1095.2 56.7213 1097.88 Q58.0928 1100.53 60.8011 1100.53 Q63.5268 1100.53 64.8809 1097.88 Q66.2525 1095.2 66.2525 1089.87 Q66.2525 1084.53 64.8809 1081.87 Q63.5268 1079.2 60.8011 1079.2 M60.8011 1076.42 Q65.1587 1076.42 67.4504 1079.87 Q69.7594 1083.31 69.7594 1089.87 Q69.7594 1096.42 67.4504 1099.87 Q65.1587 1103.31 60.8011 1103.31 Q56.4435 1103.31 54.1345 1099.87 Q51.8428 1096.42 51.8428 1089.87 Q51.8428 1083.31 54.1345 1079.87 Q56.4435 1076.42 60.8011 1076.42 Z" fill="#000000" fill-rule="nonzero" fill-opacity="1" /><path clip-path="url(#clip080)" d="M75.9225 1098.4 L79.5857 1098.4 L79.5857 1102.81 L75.9225 1102.81 L75.9225 1098.4 Z" fill="#000000" fill-rule="nonzero" fill-opacity="1" /><path clip-path="url(#clip080)" d="M94.7245 1079.2 Q92.0162 1079.2 90.6447 1081.87 Q89.2905 1084.53 89.2905 1089.87 Q89.2905 1095.2 90.6447 1097.88 Q92.0162 1100.53 94.7245 1100.53 Q97.4502 1100.53 98.8044 1097.88 Q100.176 1095.2 100.176 1089.87 Q100.176 1084.53 98.8044 1081.87 Q97.4502 1079.2 94.7245 1079.2 M94.7245 1076.42 Q99.0821 1076.42 101.374 1079.87 Q103.683 1083.31 103.683 1089.87 Q103.683 1096.42 101.374 1099.87 Q99.0821 1103.31 94.7245 1103.31 Q90.3669 1103.31 88.0579 1099.87 Q85.7662 1096.42 85.7662 1089.87 Q85.7662 1083.31 88.0579 1079.87 Q90.3669 1076.42 94.7245 1076.42 Z" fill="#000000" fill-rule="nonzero" fill-opacity="1" /><path clip-path="url(#clip080)" d="M120.471 1088.83 Q122.988 1089.37 124.395 1091.07 Q125.818 1092.77 125.818 1095.27 Q125.818 1099.11 123.179 1101.21 Q120.54 1103.31 115.679 1103.31 Q114.047 1103.31 112.311 1102.98 Q110.593 1102.67 108.752 1102.03 L108.752 1098.64 Q110.211 1099.49 111.947 1099.93 Q113.683 1100.36 115.575 1100.36 Q118.874 1100.36 120.592 1099.06 Q122.329 1097.75 122.329 1095.27 Q122.329 1092.98 120.714 1091.7 Q119.117 1090.39 116.252 1090.39 L113.231 1090.39 L113.231 1087.51 L116.391 1087.51 Q118.978 1087.51 120.349 1086.49 Q121.721 1085.45 121.721 1083.5 Q121.721 1081.51 120.297 1080.45 Q118.891 1079.37 116.252 1079.37 Q114.811 1079.37 113.162 1079.68 Q111.513 1079.99 109.533 1080.65 L109.533 1077.53 Q111.53 1076.97 113.266 1076.7 Q115.02 1076.42 116.565 1076.42 Q120.558 1076.42 122.884 1078.24 Q125.21 1080.05 125.21 1083.14 Q125.21 1085.29 123.978 1086.78 Q122.745 1088.26 120.471 1088.83 Z" fill="#000000" fill-rule="nonzero" fill-opacity="1" /><path clip-path="url(#clip080)" d="M59.9504 958.719 Q57.2421 958.719 55.8706 961.392 Q54.5164 964.049 54.5164 969.396 Q54.5164 974.726 55.8706 977.399 Q57.2421 980.056 59.9504 980.056 Q62.6761 980.056 64.0303 977.399 Q65.4018 974.726 65.4018 969.396 Q65.4018 964.049 64.0303 961.392 Q62.6761 958.719 59.9504 958.719 M59.9504 955.941 Q64.308 955.941 66.5997 959.396 Q68.9087 962.833 68.9087 969.396 Q68.9087 975.941 66.5997 979.396 Q64.308 982.833 59.9504 982.833 Q55.5928 982.833 53.2838 979.396 Q50.9921 975.941 50.9921 969.396 Q50.9921 962.833 53.2838 959.396 Q55.5928 955.941 59.9504 955.941 Z" fill="#000000" fill-rule="nonzero" fill-opacity="1" /><path clip-path="url(#clip080)" d="M75.0719 977.92 L78.735 977.92 L78.735 982.33 L75.0719 982.33 L75.0719 977.92 Z" fill="#000000" fill-rule="nonzero" fill-opacity="1" /><path clip-path="url(#clip080)" d="M93.8738 958.719 Q91.1655 958.719 89.794 961.392 Q88.4398 964.049 88.4398 969.396 Q88.4398 974.726 89.794 977.399 Q91.1655 980.056 93.8738 980.056 Q96.5995 980.056 97.9537 977.399 Q99.3252 974.726 99.3252 969.396 Q99.3252 964.049 97.9537 961.392 Q96.5995 958.719 93.8738 958.719 M93.8738 955.941 Q98.2315 955.941 100.523 959.396 Q102.832 962.833 102.832 969.396 Q102.832 975.941 100.523 979.396 Q98.2315 982.833 93.8738 982.833 Q89.5162 982.833 87.2072 979.396 Q84.9156 975.941 84.9156 969.396 Q84.9156 962.833 87.2072 959.396 Q89.5162 955.941 93.8738 955.941 Z" fill="#000000" fill-rule="nonzero" fill-opacity="1" /><path clip-path="url(#clip080)" d="M118.631 959.465 L109.777 973.302 L118.631 973.302 L118.631 959.465 M117.711 956.41 L122.12 956.41 L122.12 973.302 L125.818 973.302 L125.818 976.219 L122.12 976.219 L122.12 982.33 L118.631 982.33 L118.631 976.219 L106.929 976.219 L106.929 972.833 L117.711 956.41 Z" fill="#000000" fill-rule="nonzero" fill-opacity="1" /><path clip-path="url(#clip080)" d="M173.716 818.926 Q170.198 818.926 168.3 821.472 Q166.309 824.134 166.309 828.532 Q166.309 833.185 168.276 835.87 Q170.267 838.532 173.716 838.532 Q177.119 838.532 179.11 835.847 Q181.1 833.162 181.1 828.532 Q181.1 824.296 179.11 821.472 Q177.281 818.926 173.716 818.926 M173.716 815.546 L187.86 815.546 L187.86 819.805 L183.091 819.805 Q185.614 823.417 185.614 828.532 Q185.614 834.898 182.443 838.509 Q179.272 842.143 173.716 842.143 Q168.138 842.143 164.989 838.509 Q161.818 834.898 161.818 828.532 Q161.818 822.12 164.989 818.532 Q167.605 815.546 173.716 815.546 Z" fill="#000000" fill-rule="nonzero" fill-opacity="1" /><path clip-path="url(#clip080)" d="M198.878 841.472 L190.961 815.546 L195.545 815.546 L202.235 837.305 Q205.012 834.435 207.327 830.454 Q209.086 827.467 209.179 824.875 Q209.225 823.648 208.67 821.333 Q208.022 818.579 205.568 815.546 L209.873 815.546 L209.873 815.546 Q211.471 817.606 212.535 820.477 Q213.508 823.116 213.508 824.921 Q213.508 829.458 210.36 833.509 Q206.262 838.787 203.415 841.472 L198.878 841.472 Z" fill="#000000" fill-rule="nonzero" fill-opacity="1" /><polyline clip-path="url(#clip084)" style="stroke:#009af9; stroke-linecap:round; stroke-linejoin:round; stroke-width:4; stroke-opacity:1; fill:none" points="189.869,964.861 248.307,1022.86 306.746,1081.67 365.185,1141.27 423.623,1201.67 482.062,1262.87 540.501,1324.88 598.939,1387.68 657.378,1451.28 715.817,1386.88 774.256,1321.68 832.694,1255.68 891.133,1188.88 949.572,1121.28 1008.01,1052.88 1066.45,983.679 1124.89,913.68 "/>
<circle clip-path="url(#clip084)" cx="657.378" cy="1451.28" r="10.8" fill="#ff0000" fill-rule="evenodd" fill-opacity="1" stroke="#000000" stroke-opacity="1" stroke-width="3.2"/>
</svg>
