<?xml version="1.0" encoding="utf-8"?>
<svg xmlns="http://www.w3.org/2000/svg" xmlns:xlink="http://www.w3.org/1999/xlink" width="600" height="400" viewBox="0 0 2400 1600">
<defs>
  <clipPath id="clip020">
    <rect x="0" y="0" width="2400" height="1600"/>
  </clipPath>
</defs>
<path clip-path="url(#clip020)" d="M0 1600 L2400 1600 L2400 0 L0 0  Z" fill="#ffffff" fill-rule="evenodd" fill-opacity="1"/>
<defs>
  <clipPath id="clip021">
    <rect x="162" y="0" width="2195" height="1600"/>
  </clipPath>
</defs>
<path clip-path="url(#clip020)" d="M161.818 662.16 L1152.94 662.16 L1152.94 97.5521 L161.818 97.5521  Z" fill="#ffffff" fill-rule="evenodd" fill-opacity="1"/>
<defs>
  <clipPath id="clip022">
    <rect x="161" y="97" width="992" height="566"/>
  </clipPath>
</defs>
<polyline clip-path="url(#clip022)" style="stroke:#000000; stroke-linecap:round; stroke-linejoin:round; stroke-width:2; stroke-opacity:0.1; fill:none" points="187.489,662.16 187.489,97.5521 "/>
<polyline clip-path="url(#clip022)" style="stroke:#000000; stroke-linecap:round; stroke-linejoin:round; stroke-width:2; stroke-opacity:0.1; fill:none" points="450.315,662.16 450.315,97.5521 "/>
<polyline clip-path="url(#clip022)" style="stroke:#000000; stroke-linecap:round; stroke-linejoin:round; stroke-width:2; stroke-opacity:0.1; fill:none" points="713.14,662.16 713.14,97.5521 "/>
<polyline clip-path="url(#clip022)" style="stroke:#000000; stroke-linecap:round; stroke-linejoin:round; stroke-width:2; stroke-opacity:0.1; fill:none" points="975.965,662.16 975.965,97.5521 "/>
<polyline clip-path="url(#clip022)" style="stroke:#000000; stroke-linecap:round; stroke-linejoin:round; stroke-width:2; stroke-opacity:0.1; fill:none" points="161.818,646.181 1152.94,646.181 "/>
<polyline clip-path="url(#clip022)" style="stroke:#000000; stroke-linecap:round; stroke-linejoin:round; stroke-width:2; stroke-opacity:0.1; fill:none" points="161.818,511.416 1152.94,511.416 "/>
<polyline clip-path="url(#clip022)" style="stroke:#000000; stroke-linecap:round; stroke-linejoin:round; stroke-width:2; stroke-opacity:0.1; fill:none" points="161.818,376.65 1152.94,376.65 "/>
<polyline clip-path="url(#clip022)" style="stroke:#000000; stroke-linecap:round; stroke-linejoin:round; stroke-width:2; stroke-opacity:0.1; fill:none" points="161.818,241.885 1152.94,241.885 "/>
<polyline clip-path="url(#clip022)" style="stroke:#000000; stroke-linecap:round; stroke-linejoin:round; stroke-width:2; stroke-opacity:0.1; fill:none" points="161.818,107.12 1152.94,107.12 "/>
<polyline clip-path="url(#clip020)" style="stroke:#000000; stroke-linecap:round; stroke-linejoin:round; stroke-width:4; stroke-opacity:1; fill:none" points="161.818,662.16 1152.94,662.16 "/>
<polyline clip-path="url(#clip020)" style="stroke:#000000; stroke-linecap:round; stroke-linejoin:round; stroke-width:4; stroke-opacity:1; fill:none" points="187.489,662.16 187.489,643.263 "/>
<polyline clip-path="url(#clip020)" style="stroke:#000000; stroke-linecap:round; stroke-linejoin:round; stroke-width:4; stroke-opacity:1; fill:none" points="450.315,662.16 450.315,643.263 "/>
<polyline clip-path="url(#clip020)" style="stroke:#000000; stroke-linecap:round; stroke-linejoin:round; stroke-width:4; stroke-opacity:1; fill:none" points="713.14,662.16 713.14,643.263 "/>
<polyline clip-path="url(#clip020)" style="stroke:#000000; stroke-linecap:round; stroke-linejoin:round; stroke-width:4; stroke-opacity:1; fill:none" points="975.965,662.16 975.965,643.263 "/>
<path clip-path="url(#clip020)" d="M133.64 733.893 Q131.725 735.808 132.646 738.668 Q133.566 741.504 137.347 745.285 Q141.116 749.054 143.964 749.987 Q146.812 750.895 148.727 748.98 Q150.655 747.053 149.734 744.217 Q148.813 741.357 145.045 737.588 Q141.264 733.807 138.416 732.898 Q135.567 731.966 133.64 733.893 M131.676 731.929 Q134.757 728.847 138.821 729.67 Q142.884 730.468 147.524 735.108 Q152.152 739.736 152.963 743.812 Q153.773 747.863 150.692 750.944 Q147.61 754.026 143.547 753.228 Q139.484 752.405 134.855 747.777 Q130.215 743.137 129.405 739.086 Q128.595 735.01 131.676 731.929 Z" fill="#000000" fill-rule="nonzero" fill-opacity="1" /><path clip-path="url(#clip020)" d="M157.91 736.778 L160.5 734.187 L163.618 737.306 L161.028 739.896 L157.91 736.778 Z" fill="#000000" fill-rule="nonzero" fill-opacity="1" /><path clip-path="url(#clip020)" d="M165.619 717.897 Q163.852 719.665 163.778 721.629 Q163.717 723.581 165.374 725.238 Q167.031 726.895 168.983 726.834 Q170.947 726.76 172.715 724.993 Q174.483 723.225 174.556 721.261 Q174.618 719.284 172.973 717.639 Q171.315 715.982 169.351 716.056 Q167.399 716.117 165.619 717.897 M162.084 719.321 Q160.095 720.524 158.106 720.328 Q156.13 720.119 154.559 718.548 Q152.361 716.35 152.644 713.515 Q152.938 710.666 155.663 707.941 Q158.401 705.204 161.237 704.921 Q164.073 704.639 166.27 706.836 Q167.841 708.408 168.038 710.396 Q168.246 712.373 167.056 714.349 Q169.265 712.974 171.475 713.195 Q173.697 713.404 175.452 715.16 Q178.116 717.823 177.908 720.88 Q177.711 723.925 174.679 726.957 Q171.647 729.989 168.59 730.198 Q165.546 730.394 162.882 727.73 Q161.126 725.975 160.918 723.753 Q160.709 721.531 162.084 719.321 M157.259 716.313 Q158.683 717.738 160.365 717.652 Q162.059 717.553 163.667 715.945 Q165.263 714.349 165.362 712.655 Q165.472 710.949 164.048 709.525 Q162.624 708.101 160.918 708.211 Q159.223 708.309 157.628 709.905 Q156.019 711.514 155.921 713.208 Q155.835 714.889 157.259 716.313 Z" fill="#000000" fill-rule="nonzero" fill-opacity="1" /><path clip-path="url(#clip020)" d="M173.623 693.91 Q171.708 695.825 172.629 698.685 Q173.55 701.521 177.331 705.302 Q181.099 709.071 183.948 710.004 Q186.796 710.912 188.711 708.997 Q190.638 707.07 189.717 704.234 Q188.797 701.373 185.028 697.605 Q181.247 693.824 178.399 692.915 Q175.551 691.982 173.623 693.91 M171.659 691.945 Q174.74 688.864 178.804 689.687 Q182.867 690.485 187.508 695.125 Q192.136 699.753 192.946 703.829 Q193.756 707.88 190.675 710.961 Q187.594 714.042 183.53 713.244 Q179.467 712.422 174.839 707.794 Q170.198 703.154 169.388 699.102 Q168.578 695.027 171.659 691.945 Z" fill="#000000" fill-rule="nonzero" fill-opacity="1" /><path clip-path="url(#clip020)" d="M396.993 733.365 Q395.078 735.28 395.999 738.14 Q396.92 740.976 400.701 744.757 Q404.469 748.526 407.318 749.459 Q410.166 750.367 412.081 748.452 Q414.008 746.525 413.087 743.689 Q412.167 740.829 408.398 737.06 Q404.617 733.279 401.769 732.371 Q398.921 731.438 396.993 733.365 M395.029 731.401 Q398.11 728.32 402.174 729.142 Q406.237 729.94 410.878 734.58 Q415.506 739.208 416.316 743.284 Q417.126 747.335 414.045 750.416 Q410.964 753.498 406.9 752.7 Q402.837 751.877 398.209 747.249 Q393.568 742.609 392.758 738.558 Q391.948 734.482 395.029 731.401 Z" fill="#000000" fill-rule="nonzero" fill-opacity="1" /><path clip-path="url(#clip020)" d="M421.263 736.25 L423.853 733.66 L426.972 736.778 L424.381 739.368 L421.263 736.25 Z" fill="#000000" fill-rule="nonzero" fill-opacity="1" /><path clip-path="url(#clip020)" d="M428.973 717.369 Q427.205 719.137 427.131 721.101 Q427.07 723.053 428.727 724.71 Q430.384 726.368 432.336 726.306 Q434.3 726.233 436.068 724.465 Q437.836 722.697 437.91 720.733 Q437.971 718.756 436.326 717.111 Q434.669 715.454 432.705 715.528 Q430.753 715.589 428.973 717.369 M425.437 718.793 Q423.448 719.996 421.46 719.8 Q419.483 719.591 417.912 718.02 Q415.714 715.822 415.997 712.987 Q416.291 710.139 419.017 707.413 Q421.754 704.676 424.59 704.393 Q427.426 704.111 429.623 706.308 Q431.195 707.88 431.391 709.869 Q431.6 711.845 430.409 713.821 Q432.619 712.447 434.828 712.667 Q437.05 712.876 438.806 714.632 Q441.47 717.296 441.261 720.352 Q441.065 723.397 438.032 726.429 Q435 729.461 431.943 729.67 Q428.899 729.866 426.235 727.202 Q424.48 725.447 424.271 723.225 Q424.062 721.003 425.437 718.793 M420.613 715.786 Q422.037 717.21 423.718 717.124 Q425.413 717.025 427.021 715.417 Q428.617 713.821 428.715 712.127 Q428.825 710.421 427.401 708.997 Q425.977 707.573 424.271 707.683 Q422.577 707.782 420.981 709.377 Q419.373 710.986 419.274 712.68 Q419.189 714.362 420.613 715.786 Z" fill="#000000" fill-rule="nonzero" fill-opacity="1" /><path clip-path="url(#clip020)" d="M430.065 697.028 L439.8 687.293 L441.887 689.38 L434.423 696.844 L438.916 701.337 Q439.272 700.612 439.726 699.986 Q440.168 699.348 440.709 698.808 Q443.778 695.739 447.252 695.628 Q450.726 695.518 453.598 698.39 Q456.557 701.349 456.361 704.835 Q456.152 708.309 452.8 711.661 Q451.647 712.815 450.247 713.821 Q448.86 714.816 447.19 715.7 L444.698 713.208 Q446.405 712.704 447.878 711.82 Q449.351 710.937 450.664 709.623 Q452.788 707.499 452.911 705.142 Q453.034 702.785 451.119 700.87 Q449.204 698.955 446.847 699.078 Q444.49 699.201 442.366 701.324 Q441.371 702.319 440.598 703.534 Q439.837 704.737 439.272 706.235 L430.065 697.028 Z" fill="#000000" fill-rule="nonzero" fill-opacity="1" /><path clip-path="url(#clip020)" d="M659.291 733.893 Q657.376 735.808 658.296 738.668 Q659.217 741.504 662.998 745.285 Q666.767 749.054 669.615 749.987 Q672.463 750.895 674.378 748.98 Q676.306 747.053 675.385 744.217 Q674.464 741.357 670.695 737.588 Q666.914 733.807 664.066 732.898 Q661.218 731.966 659.291 733.893 M657.327 731.929 Q660.408 728.847 664.471 729.67 Q668.535 730.468 673.175 735.108 Q677.803 739.736 678.613 743.812 Q679.424 747.863 676.342 750.944 Q673.261 754.026 669.198 753.228 Q665.134 752.405 660.506 747.777 Q655.866 743.137 655.056 739.086 Q654.245 735.01 657.327 731.929 Z" fill="#000000" fill-rule="nonzero" fill-opacity="1" /><path clip-path="url(#clip020)" d="M683.561 736.778 L686.151 734.187 L689.269 737.306 L686.679 739.896 L683.561 736.778 Z" fill="#000000" fill-rule="nonzero" fill-opacity="1" /><path clip-path="url(#clip020)" d="M694.364 731.45 L692.105 729.191 Q693.48 728.7 694.671 727.976 Q695.861 727.251 696.782 726.331 Q699.237 723.876 698.881 720.942 Q698.525 717.983 695.346 714.435 Q695.689 716.203 695.162 717.86 Q694.634 719.518 693.308 720.843 Q690.558 723.593 687.293 723.544 Q684.027 723.47 681.142 720.586 Q678.319 717.762 678.282 714.386 Q678.245 711.01 681.02 708.236 Q684.199 705.056 688.312 705.83 Q692.424 706.579 697.064 711.219 Q701.398 715.552 701.926 720.205 Q702.454 724.833 698.979 728.307 Q698.046 729.24 696.905 730.014 Q695.763 730.787 694.364 731.45 M691.528 718.744 Q693.197 717.075 693.026 714.963 Q692.866 712.839 690.877 710.851 Q688.901 708.874 686.777 708.715 Q684.653 708.53 682.984 710.2 Q681.314 711.87 681.486 714.006 Q681.658 716.117 683.634 718.094 Q685.623 720.082 687.735 720.254 Q689.858 720.414 691.528 718.744 Z" fill="#000000" fill-rule="nonzero" fill-opacity="1" /><path clip-path="url(#clip020)" d="M699.274 693.91 Q697.359 695.825 698.28 698.685 Q699.2 701.521 702.981 705.302 Q706.75 709.071 709.598 710.004 Q712.446 710.912 714.361 708.997 Q716.289 707.07 715.368 704.234 Q714.447 701.373 710.679 697.605 Q706.898 693.824 704.049 692.915 Q701.201 691.982 699.274 693.91 M697.31 691.945 Q700.391 688.864 704.455 689.687 Q708.518 690.485 713.158 695.125 Q717.786 699.753 718.597 703.829 Q719.407 707.88 716.326 710.961 Q713.244 714.042 709.181 713.244 Q705.117 712.422 700.489 707.794 Q695.849 703.154 695.039 699.102 Q694.229 695.027 697.31 691.945 Z" fill="#000000" fill-rule="nonzero" fill-opacity="1" /><path clip-path="url(#clip020)" d="M922.644 733.365 Q920.729 735.28 921.65 738.14 Q922.57 740.976 926.351 744.757 Q930.12 748.526 932.968 749.459 Q935.816 750.367 937.731 748.452 Q939.659 746.525 938.738 743.689 Q937.817 740.829 934.049 737.06 Q930.268 733.279 927.419 732.371 Q924.571 731.438 922.644 733.365 M920.68 731.401 Q923.761 728.32 927.825 729.142 Q931.888 729.94 936.528 734.58 Q941.156 739.208 941.967 743.284 Q942.777 747.335 939.696 750.416 Q936.614 753.498 932.551 752.7 Q928.487 751.877 923.859 747.249 Q919.219 742.609 918.409 738.558 Q917.599 734.482 920.68 731.401 Z" fill="#000000" fill-rule="nonzero" fill-opacity="1" /><path clip-path="url(#clip020)" d="M946.914 736.25 L949.504 733.66 L952.622 736.778 L950.032 739.368 L946.914 736.25 Z" fill="#000000" fill-rule="nonzero" fill-opacity="1" /><path clip-path="url(#clip020)" d="M957.717 730.922 L955.458 728.663 Q956.833 728.172 958.024 727.448 Q959.215 726.724 960.135 725.803 Q962.59 723.348 962.234 720.414 Q961.878 717.455 958.699 713.907 Q959.043 715.675 958.515 717.332 Q957.987 718.99 956.661 720.315 Q953.911 723.065 950.646 723.016 Q947.38 722.943 944.496 720.058 Q941.672 717.234 941.635 713.858 Q941.598 710.482 944.373 707.708 Q947.552 704.528 951.665 705.302 Q955.777 706.051 960.418 710.691 Q964.751 715.024 965.279 719.677 Q965.807 724.305 962.333 727.779 Q961.4 728.712 960.258 729.486 Q959.116 730.259 957.717 730.922 M954.881 718.216 Q956.551 716.547 956.379 714.435 Q956.219 712.311 954.23 710.323 Q952.254 708.346 950.13 708.187 Q948.006 708.003 946.337 709.672 Q944.667 711.342 944.839 713.478 Q945.011 715.589 946.988 717.566 Q948.976 719.554 951.088 719.726 Q953.212 719.886 954.881 718.216 Z" fill="#000000" fill-rule="nonzero" fill-opacity="1" /><path clip-path="url(#clip020)" d="M955.716 697.028 L965.451 687.293 L967.538 689.38 L960.074 696.844 L964.567 701.337 Q964.923 700.612 965.377 699.986 Q965.819 699.348 966.359 698.808 Q969.428 695.739 972.902 695.628 Q976.377 695.518 979.249 698.39 Q982.208 701.349 982.011 704.835 Q981.803 708.309 978.451 711.661 Q977.297 712.815 975.898 713.821 Q974.511 714.816 972.841 715.7 L970.349 713.208 Q972.055 712.704 973.528 711.82 Q975.002 710.937 976.315 709.623 Q978.439 707.499 978.562 705.142 Q978.684 702.785 976.769 700.87 Q974.854 698.955 972.497 699.078 Q970.14 699.201 968.017 701.324 Q967.022 702.319 966.249 703.534 Q965.488 704.737 964.923 706.235 L955.716 697.028 Z" fill="#000000" fill-rule="nonzero" fill-opacity="1" /><polyline clip-path="url(#clip020)" style="stroke:#000000; stroke-linecap:round; stroke-linejoin:round; stroke-width:4; stroke-opacity:1; fill:none" points="161.818,662.16 161.818,97.5521 "/>
<polyline clip-path="url(#clip020)" style="stroke:#000000; stroke-linecap:round; stroke-linejoin:round; stroke-width:4; stroke-opacity:1; fill:none" points="161.818,646.181 180.716,646.181 "/>
<polyline clip-path="url(#clip020)" style="stroke:#000000; stroke-linecap:round; stroke-linejoin:round; stroke-width:4; stroke-opacity:1; fill:none" points="161.818,511.416 180.716,511.416 "/>
<polyline clip-path="url(#clip020)" style="stroke:#000000; stroke-linecap:round; stroke-linejoin:round; stroke-width:4; stroke-opacity:1; fill:none" points="161.818,376.65 180.716,376.65 "/>
<polyline clip-path="url(#clip020)" style="stroke:#000000; stroke-linecap:round; stroke-linejoin:round; stroke-width:4; stroke-opacity:1; fill:none" points="161.818,241.885 180.716,241.885 "/>
<polyline clip-path="url(#clip020)" style="stroke:#000000; stroke-linecap:round; stroke-linejoin:round; stroke-width:4; stroke-opacity:1; fill:none" points="161.818,107.12 180.716,107.12 "/>
<path clip-path="url(#clip020)" d="M116.86 635.53 Q114.152 635.53 112.78 638.204 Q111.426 640.86 111.426 646.207 Q111.426 651.537 112.78 654.21 Q114.152 656.867 116.86 656.867 Q119.586 656.867 120.94 654.21 Q122.311 651.537 122.311 646.207 Q122.311 640.86 120.94 638.204 Q119.586 635.53 116.86 635.53 M116.86 632.752 Q121.217 632.752 123.509 636.207 Q125.818 639.644 125.818 646.207 Q125.818 652.752 123.509 656.207 Q121.217 659.644 116.86 659.644 Q112.502 659.644 110.193 656.207 Q107.902 652.752 107.902 646.207 Q107.902 639.644 110.193 636.207 Q112.502 632.752 116.86 632.752 Z" fill="#000000" fill-rule="nonzero" fill-opacity="1" /><path clip-path="url(#clip020)" d="M110.888 521.424 L116.617 521.424 L116.617 501.65 L110.384 502.9 L110.384 499.706 L116.582 498.456 L120.089 498.456 L120.089 521.424 L125.818 521.424 L125.818 524.376 L110.888 524.376 L110.888 521.424 Z" fill="#000000" fill-rule="nonzero" fill-opacity="1" /><path clip-path="url(#clip020)" d="M113.579 386.659 L125.818 386.659 L125.818 389.61 L109.36 389.61 L109.36 386.659 Q111.356 384.593 114.794 381.121 Q118.249 377.631 119.134 376.624 Q120.818 374.732 121.478 373.43 Q122.155 372.111 122.155 370.843 Q122.155 368.777 120.697 367.475 Q119.256 366.173 116.929 366.173 Q115.28 366.173 113.44 366.746 Q111.617 367.319 109.533 368.482 L109.533 364.94 Q111.652 364.09 113.492 363.656 Q115.332 363.222 116.86 363.222 Q120.888 363.222 123.283 365.236 Q125.679 367.249 125.679 370.618 Q125.679 372.215 125.072 373.656 Q124.481 375.079 122.901 377.024 Q122.467 377.527 120.141 379.94 Q117.815 382.336 113.579 386.659 Z" fill="#000000" fill-rule="nonzero" fill-opacity="1" /><path clip-path="url(#clip020)" d="M120.471 240.87 Q122.988 241.408 124.395 243.109 Q125.818 244.811 125.818 247.311 Q125.818 251.147 123.179 253.248 Q120.54 255.349 115.679 255.349 Q114.047 255.349 112.311 255.019 Q110.593 254.706 108.752 254.064 L108.752 250.679 Q110.211 251.529 111.947 251.963 Q113.683 252.397 115.575 252.397 Q118.874 252.397 120.592 251.095 Q122.329 249.793 122.329 247.311 Q122.329 245.019 120.714 243.734 Q119.117 242.432 116.252 242.432 L113.231 242.432 L113.231 239.55 L116.391 239.55 Q118.978 239.55 120.349 238.526 Q121.721 237.484 121.721 235.54 Q121.721 233.543 120.297 232.484 Q118.891 231.408 116.252 231.408 Q114.811 231.408 113.162 231.72 Q111.513 232.033 109.533 232.693 L109.533 229.568 Q111.53 229.012 113.266 228.734 Q115.02 228.457 116.565 228.457 Q120.558 228.457 122.884 230.279 Q125.21 232.085 125.21 235.175 Q125.21 237.328 123.978 238.821 Q122.745 240.297 120.471 240.87 Z" fill="#000000" fill-rule="nonzero" fill-opacity="1" /><path clip-path="url(#clip020)" d="M118.631 97.2156 L109.777 111.052 L118.631 111.052 L118.631 97.2156 M117.711 94.16 L122.12 94.16 L122.12 111.052 L125.818 111.052 L125.818 113.969 L122.12 113.969 L122.12 120.08 L118.631 120.08 L118.631 113.969 L106.929 113.969 L106.929 110.584 L117.711 94.16 Z" fill="#000000" fill-rule="nonzero" fill-opacity="1" /><path clip-path="url(#clip020)" d="M163.901 20.1758 Q165.313 17.8147 168.809 15.7314 Q170.175 14.9212 174.387 14.9212 Q179.11 14.9212 182.049 18.6712 Q185.012 22.4212 185.012 28.5323 Q185.012 34.6433 182.049 38.3933 Q179.11 42.1433 174.387 42.1433 Q171.54 42.1433 169.48 41.0322 Q167.443 39.8979 166.1 37.5831 L166.1 51.3331 L161.818 51.3331 L161.818 28.7637 Q161.818 23.4165 163.901 20.1758 M180.591 28.5323 Q180.591 23.8332 178.647 21.1712 Q176.725 18.486 173.346 18.486 Q169.966 18.486 168.022 21.1712 Q166.1 23.8332 166.1 28.5323 Q166.1 33.2313 168.022 35.9165 Q169.966 38.5785 173.346 38.5785 Q176.725 38.5785 178.647 35.9165 Q180.591 33.2313 180.591 28.5323 Z" fill="#000000" fill-rule="nonzero" fill-opacity="1" /><polyline clip-path="url(#clip022)" style="stroke:#009af9; stroke-linecap:round; stroke-linejoin:round; stroke-width:4; stroke-opacity:1; fill:none" points="189.869,587.184 248.307,591.512 306.746,596.382 365.185,601.905 423.623,608.221 482.062,615.512 540.501,624.024 598.939,634.091 657.378,646.181 715.817,631.39 774.256,612.883 832.694,589.062 891.133,557.265 949.572,512.712 1008.01,445.87 1066.45,334.601 1124.89,113.532 "/>
<circle clip-path="url(#clip022)" cx="657.378" cy="646.181" r="10.8" fill="#ff0000" fill-rule="evenodd" fill-opacity="1" stroke="#000000" stroke-opacity="1" stroke-width="3.2"/>
<path clip-path="url(#clip020)" d="M1361.64 662.16 L2352.76 662.16 L2352.76 97.5521 L1361.64 97.5521  Z" fill="#ffffff" fill-rule="evenodd" fill-opacity="1"/>
<defs>
  <clipPath id="clip023">
    <rect x="1361" y="97" width="992" height="566"/>
  </clipPath>
</defs>
<polyline clip-path="url(#clip023)" style="stroke:#000000; stroke-linecap:round; stroke-linejoin:round; stroke-width:2; stroke-opacity:0.1; fill:none" points="1492.51,662.16 1492.51,97.5521 "/>
<polyline clip-path="url(#clip023)" style="stroke:#000000; stroke-linecap:round; stroke-linejoin:round; stroke-width:2; stroke-opacity:0.1; fill:none" points="1636.19,662.16 1636.19,97.5521 "/>
<polyline clip-path="url(#clip023)" style="stroke:#000000; stroke-linecap:round; stroke-linejoin:round; stroke-width:2; stroke-opacity:0.1; fill:none" points="1779.87,662.16 1779.87,97.5521 "/>
<polyline clip-path="url(#clip023)" style="stroke:#000000; stroke-linecap:round; stroke-linejoin:round; stroke-width:2; stroke-opacity:0.1; fill:none" points="1923.55,662.16 1923.55,97.5521 "/>
<polyline clip-path="url(#clip023)" style="stroke:#000000; stroke-linecap:round; stroke-linejoin:round; stroke-width:2; stroke-opacity:0.1; fill:none" points="2067.23,662.16 2067.23,97.5521 "/>
<polyline clip-path="url(#clip023)" style="stroke:#000000; stroke-linecap:round; stroke-linejoin:round; stroke-width:2; stroke-opacity:0.1; fill:none" points="2210.91,662.16 2210.91,97.5521 "/>
<polyline clip-path="url(#clip023)" style="stroke:#000000; stroke-linecap:round; stroke-linejoin:round; stroke-width:2; stroke-opacity:0.1; fill:none" points="1361.64,646.181 2352.76,646.181 "/>
<polyline clip-path="url(#clip023)" style="stroke:#000000; stroke-linecap:round; stroke-linejoin:round; stroke-width:2; stroke-opacity:0.1; fill:none" points="1361.64,504.354 2352.76,504.354 "/>
<polyline clip-path="url(#clip023)" style="stroke:#000000; stroke-linecap:round; stroke-linejoin:round; stroke-width:2; stroke-opacity:0.1; fill:none" points="1361.64,362.527 2352.76,362.527 "/>
<polyline clip-path="url(#clip023)" style="stroke:#000000; stroke-linecap:round; stroke-linejoin:round; stroke-width:2; stroke-opacity:0.1; fill:none" points="1361.64,220.7 2352.76,220.7 "/>
<polyline clip-path="url(#clip020)" style="stroke:#000000; stroke-linecap:round; stroke-linejoin:round; stroke-width:4; stroke-opacity:1; fill:none" points="1361.64,662.16 2352.76,662.16 "/>
<polyline clip-path="url(#clip020)" style="stroke:#000000; stroke-linecap:round; stroke-linejoin:round; stroke-width:4; stroke-opacity:1; fill:none" points="1492.51,662.16 1492.51,643.263 "/>
<polyline clip-path="url(#clip020)" style="stroke:#000000; stroke-linecap:round; stroke-linejoin:round; stroke-width:4; stroke-opacity:1; fill:none" points="1636.19,662.16 1636.19,643.263 "/>
<polyline clip-path="url(#clip020)" style="stroke:#000000; stroke-linecap:round; stroke-linejoin:round; stroke-width:4; stroke-opacity:1; fill:none" points="1779.87,662.16 1779.87,643.263 "/>
<polyline clip-path="url(#clip020)" style="stroke:#000000; stroke-linecap:round; stroke-linejoin:round; stroke-width:4; stroke-opacity:1; fill:none" points="1923.55,662.16 1923.55,643.263 "/>
<polyline clip-path="url(#clip020)" style="stroke:#000000; stroke-linecap:round; stroke-linejoin:round; stroke-width:4; stroke-opacity:1; fill:none" points="2067.23,662.16 2067.23,643.263 "/>
<polyline clip-path="url(#clip020)" style="stroke:#000000; stroke-linecap:round; stroke-linejoin:round; stroke-width:4; stroke-opacity:1; fill:none" points="2210.91,662.16 2210.91,643.263 "/>
<path clip-path="url(#clip020)" d="M1438.66 733.893 Q1436.75 735.808 1437.67 738.668 Q1438.59 741.504 1442.37 745.285 Q1446.14 749.054 1448.99 749.987 Q1451.83 750.895 1453.75 748.98 Q1455.68 747.053 1454.75 744.217 Q1453.83 741.357 1450.07 737.588 Q1446.28 733.807 1443.44 732.898 Q1440.59 731.966 1438.66 733.893 M1436.7 731.929 Q1439.78 728.847 1443.84 729.67 Q1447.9 730.468 1452.55 735.108 Q1457.17 739.736 1457.98 743.812 Q1458.79 747.863 1455.71 750.944 Q1452.63 754.026 1448.57 753.228 Q1444.5 752.405 1439.88 747.777 Q1435.24 743.137 1434.43 739.086 Q1433.62 735.01 1436.7 731.929 Z" fill="#000000" fill-rule="nonzero" fill-opacity="1" /><path clip-path="url(#clip020)" d="M1462.93 736.778 L1465.52 734.187 L1468.64 737.306 L1466.05 739.896 L1462.93 736.778 Z" fill="#000000" fill-rule="nonzero" fill-opacity="1" /><path clip-path="url(#clip020)" d="M1471.67 714.509 Q1473.83 713.109 1476.03 713.318 Q1478.24 713.515 1480.01 715.282 Q1482.72 717.995 1482.34 721.347 Q1481.96 724.698 1478.52 728.135 Q1477.37 729.289 1475.91 730.284 Q1474.47 731.278 1472.71 732.125 L1470.32 729.731 Q1471.95 729.302 1473.49 728.381 Q1475.02 727.46 1476.36 726.122 Q1478.69 723.79 1478.99 721.654 Q1479.29 719.505 1477.54 717.75 Q1475.92 716.129 1473.87 716.363 Q1471.82 716.571 1469.79 718.597 L1467.66 720.733 L1465.62 718.695 L1467.85 716.461 Q1469.68 714.632 1469.93 712.938 Q1470.16 711.231 1468.79 709.856 Q1467.37 708.445 1465.62 708.702 Q1463.86 708.936 1462 710.802 Q1460.98 711.82 1460.03 713.208 Q1459.09 714.595 1458.16 716.461 L1455.95 714.251 Q1456.96 712.447 1458 711.022 Q1459.04 709.586 1460.13 708.494 Q1462.96 705.67 1465.89 705.314 Q1468.81 704.946 1471 707.131 Q1472.52 708.653 1472.7 710.581 Q1472.87 712.496 1471.67 714.509 Z" fill="#000000" fill-rule="nonzero" fill-opacity="1" /><path clip-path="url(#clip020)" d="M1478.64 693.91 Q1476.73 695.825 1477.65 698.685 Q1478.57 701.521 1482.35 705.302 Q1486.12 709.071 1488.97 710.004 Q1491.82 710.912 1493.73 708.997 Q1495.66 707.07 1494.74 704.234 Q1493.82 701.373 1490.05 697.605 Q1486.27 693.824 1483.42 692.915 Q1480.57 691.982 1478.64 693.91 M1476.68 691.945 Q1479.76 688.864 1483.82 689.687 Q1487.89 690.485 1492.53 695.125 Q1497.16 699.753 1497.97 703.829 Q1498.78 707.88 1495.7 710.961 Q1492.61 714.042 1488.55 713.244 Q1484.49 712.422 1479.86 707.794 Q1475.22 703.154 1474.41 699.102 Q1473.6 695.027 1476.68 691.945 Z" fill="#000000" fill-rule="nonzero" fill-opacity="1" /><path clip-path="url(#clip020)" d="M1582.99 733.242 Q1581.08 735.157 1582 738.018 Q1582.92 740.853 1586.7 744.634 Q1590.47 748.403 1593.32 749.336 Q1596.16 750.245 1598.08 748.33 Q1600.01 746.402 1599.09 743.566 Q1598.17 740.706 1594.4 736.937 Q1590.62 733.156 1587.77 732.248 Q1584.92 731.315 1582.99 733.242 M1581.03 731.278 Q1584.11 728.197 1588.17 729.019 Q1592.24 729.817 1596.88 734.458 Q1601.5 739.086 1602.31 743.161 Q1603.12 747.212 1600.04 750.294 Q1596.96 753.375 1592.9 752.577 Q1588.84 751.755 1584.21 747.126 Q1579.57 742.486 1578.76 738.435 Q1577.95 734.359 1581.03 731.278 Z" fill="#000000" fill-rule="nonzero" fill-opacity="1" /><path clip-path="url(#clip020)" d="M1607.26 736.127 L1609.85 733.537 L1612.97 736.655 L1610.38 739.245 L1607.26 736.127 Z" fill="#000000" fill-rule="nonzero" fill-opacity="1" /><path clip-path="url(#clip020)" d="M1616 713.858 Q1618.16 712.459 1620.36 712.667 Q1622.57 712.864 1624.34 714.632 Q1627.05 717.345 1626.67 720.696 Q1626.29 724.047 1622.85 727.485 Q1621.7 728.639 1620.24 729.633 Q1618.8 730.627 1617.05 731.474 L1614.65 729.081 Q1616.28 728.651 1617.82 727.73 Q1619.35 726.81 1620.69 725.471 Q1623.02 723.139 1623.32 721.003 Q1623.63 718.855 1621.87 717.099 Q1620.25 715.479 1618.2 715.712 Q1616.15 715.921 1614.12 717.946 L1611.99 720.082 L1609.95 718.044 L1612.18 715.81 Q1614.01 713.981 1614.26 712.287 Q1614.49 710.581 1613.12 709.206 Q1611.71 707.794 1609.95 708.052 Q1608.19 708.285 1606.33 710.151 Q1605.31 711.17 1604.36 712.557 Q1603.42 713.944 1602.49 715.81 L1600.28 713.6 Q1601.3 711.796 1602.33 710.372 Q1603.37 708.936 1604.46 707.843 Q1607.29 705.019 1610.22 704.663 Q1613.14 704.295 1615.33 706.48 Q1616.85 708.003 1617.03 709.93 Q1617.21 711.845 1616 713.858 Z" fill="#000000" fill-rule="nonzero" fill-opacity="1" /><path clip-path="url(#clip020)" d="M1632.71 712.741 L1636.76 708.69 L1622.78 694.708 L1619.26 699.999 L1617 697.74 L1620.5 692.473 L1622.98 689.994 L1639.22 706.235 L1643.27 702.184 L1645.35 704.271 L1634.8 714.828 L1632.71 712.741 Z" fill="#000000" fill-rule="nonzero" fill-opacity="1" /><path clip-path="url(#clip020)" d="M1726.87 733.046 Q1724.95 734.961 1725.87 737.821 Q1726.79 740.657 1730.58 744.438 Q1734.34 748.207 1737.19 749.14 Q1740.04 750.048 1741.96 748.133 Q1743.88 746.206 1742.96 743.37 Q1742.04 740.51 1738.27 736.741 Q1734.49 732.96 1731.64 732.051 Q1728.8 731.118 1726.87 733.046 M1724.9 731.082 Q1727.99 728 1732.05 728.823 Q1736.11 729.621 1740.75 734.261 Q1745.38 738.889 1746.19 742.965 Q1747 747.016 1743.92 750.097 Q1740.84 753.179 1736.78 752.381 Q1732.71 751.558 1728.08 746.93 Q1723.44 742.29 1722.63 738.239 Q1721.82 734.163 1724.9 731.082 Z" fill="#000000" fill-rule="nonzero" fill-opacity="1" /><path clip-path="url(#clip020)" d="M1751.14 735.931 L1753.73 733.34 L1756.85 736.459 L1754.26 739.049 L1751.14 735.931 Z" fill="#000000" fill-rule="nonzero" fill-opacity="1" /><path clip-path="url(#clip020)" d="M1759.88 713.662 Q1762.04 712.262 1764.24 712.471 Q1766.45 712.667 1768.21 714.435 Q1770.93 717.148 1770.55 720.5 Q1770.17 723.851 1766.73 727.288 Q1765.58 728.442 1764.11 729.437 Q1762.68 730.431 1760.92 731.278 L1758.53 728.884 Q1760.16 728.455 1761.7 727.534 Q1763.23 726.613 1764.57 725.275 Q1766.9 722.943 1767.2 720.807 Q1767.5 718.658 1765.75 716.903 Q1764.13 715.282 1762.08 715.516 Q1760.03 715.724 1758 717.75 L1755.86 719.886 L1753.83 717.848 L1756.06 715.614 Q1757.89 713.785 1758.14 712.091 Q1758.37 710.384 1756.99 709.009 Q1755.58 707.597 1753.83 707.855 Q1752.07 708.088 1750.21 709.954 Q1749.19 710.973 1748.24 712.361 Q1747.3 713.748 1746.36 715.614 L1744.15 713.404 Q1745.17 711.599 1746.2 710.175 Q1747.25 708.739 1748.34 707.647 Q1751.16 704.823 1754.1 704.467 Q1757.02 704.099 1759.2 706.284 Q1760.73 707.806 1760.91 709.733 Q1761.08 711.649 1759.88 713.662 Z" fill="#000000" fill-rule="nonzero" fill-opacity="1" /><path clip-path="url(#clip020)" d="M1778.29 710.838 L1786.95 702.184 L1789.03 704.271 L1777.4 715.908 L1775.31 713.821 Q1775.26 710.949 1775.24 706.063 Q1775.21 701.153 1775.13 699.814 Q1774.98 697.286 1774.52 695.898 Q1774.07 694.487 1773.17 693.59 Q1771.71 692.13 1769.76 692.24 Q1767.82 692.338 1766.18 693.983 Q1765.01 695.149 1764.11 696.856 Q1763.23 698.55 1762.58 700.846 L1760.08 698.341 Q1760.97 696.242 1761.97 694.634 Q1762.96 693.026 1764.04 691.945 Q1766.89 689.097 1770.01 688.827 Q1773.12 688.557 1775.51 690.939 Q1776.64 692.068 1777.23 693.517 Q1777.81 694.941 1778.07 697.433 Q1778.12 698.096 1778.18 701.447 Q1778.23 704.786 1778.29 710.838 Z" fill="#000000" fill-rule="nonzero" fill-opacity="1" /><path clip-path="url(#clip020)" d="M1870.05 733.549 Q1868.13 735.464 1869.05 738.325 Q1869.97 741.16 1873.75 744.941 Q1877.52 748.71 1880.37 749.643 Q1883.22 750.552 1885.13 748.636 Q1887.06 746.709 1886.14 743.873 Q1885.22 741.013 1881.45 737.244 Q1877.67 733.463 1874.82 732.555 Q1871.97 731.622 1870.05 733.549 M1868.08 731.585 Q1871.16 728.504 1875.23 729.326 Q1879.29 730.124 1883.93 734.764 Q1888.56 739.393 1889.37 743.468 Q1890.18 747.519 1887.1 750.601 Q1884.02 753.682 1879.95 752.884 Q1875.89 752.061 1871.26 747.433 Q1866.62 742.793 1865.81 738.742 Q1865 734.666 1868.08 731.585 Z" fill="#000000" fill-rule="nonzero" fill-opacity="1" /><path clip-path="url(#clip020)" d="M1894.32 736.434 L1896.91 733.844 L1900.02 736.962 L1897.43 739.552 L1894.32 736.434 Z" fill="#000000" fill-rule="nonzero" fill-opacity="1" /><path clip-path="url(#clip020)" d="M1903.06 714.165 Q1905.22 712.766 1907.41 712.974 Q1909.62 713.171 1911.39 714.939 Q1914.1 717.652 1913.72 721.003 Q1913.34 724.354 1909.91 727.792 Q1908.75 728.946 1907.29 729.94 Q1905.85 730.934 1904.1 731.781 L1901.71 729.388 Q1903.34 728.958 1904.87 728.037 Q1906.41 727.116 1907.75 725.778 Q1910.08 723.446 1910.37 721.31 Q1910.68 719.162 1908.92 717.406 Q1907.3 715.786 1905.25 716.019 Q1903.2 716.228 1901.18 718.253 L1899.04 720.389 L1897 718.351 L1899.24 716.117 Q1901.07 714.288 1901.31 712.594 Q1901.55 710.887 1900.17 709.513 Q1898.76 708.101 1897 708.359 Q1895.25 708.592 1893.38 710.458 Q1892.36 711.477 1891.42 712.864 Q1890.47 714.251 1889.54 716.117 L1887.33 713.907 Q1888.35 712.103 1889.38 710.679 Q1890.42 709.242 1891.52 708.15 Q1894.34 705.326 1897.27 704.97 Q1900.2 704.602 1902.38 706.787 Q1903.9 708.309 1904.09 710.237 Q1904.26 712.152 1903.06 714.165 Z" fill="#000000" fill-rule="nonzero" fill-opacity="1" /><path clip-path="url(#clip020)" d="M1919.05 698.169 Q1921.21 696.77 1923.41 696.979 Q1925.62 697.175 1927.39 698.943 Q1930.1 701.656 1929.72 705.007 Q1929.34 708.359 1925.9 711.796 Q1924.75 712.95 1923.29 713.944 Q1921.85 714.939 1920.1 715.786 L1917.7 713.392 Q1919.33 712.962 1920.87 712.041 Q1922.4 711.121 1923.74 709.783 Q1926.07 707.45 1926.37 705.314 Q1926.68 703.166 1924.92 701.41 Q1923.3 699.79 1921.25 700.023 Q1919.2 700.232 1917.17 702.257 L1915.04 704.393 L1913 702.356 L1915.23 700.121 Q1917.06 698.292 1917.31 696.598 Q1917.54 694.892 1916.17 693.517 Q1914.76 692.105 1913 692.363 Q1911.24 692.596 1909.38 694.462 Q1908.36 695.481 1907.41 696.868 Q1906.47 698.255 1905.54 700.121 L1903.33 697.912 Q1904.34 696.107 1905.38 694.683 Q1906.42 693.247 1907.51 692.154 Q1910.34 689.331 1913.27 688.975 Q1916.19 688.606 1918.38 690.791 Q1919.9 692.314 1920.08 694.241 Q1920.25 696.156 1919.05 698.169 Z" fill="#000000" fill-rule="nonzero" fill-opacity="1" /><path clip-path="url(#clip020)" d="M2013.12 734.151 Q2011.21 736.066 2012.13 738.926 Q2013.05 741.762 2016.83 745.543 Q2020.6 749.312 2023.45 750.245 Q2026.3 751.153 2028.21 749.238 Q2030.14 747.311 2029.22 744.475 Q2028.3 741.615 2024.53 737.846 Q2020.75 734.065 2017.9 733.156 Q2015.05 732.223 2013.12 734.151 M2011.16 732.186 Q2014.24 729.105 2018.3 729.928 Q2022.37 730.726 2027.01 735.366 Q2031.64 739.994 2032.45 744.07 Q2033.26 748.121 2030.18 751.202 Q2027.09 754.283 2023.03 753.485 Q2018.97 752.663 2014.34 748.035 Q2009.7 743.395 2008.89 739.343 Q2008.08 735.268 2011.16 732.186 Z" fill="#000000" fill-rule="nonzero" fill-opacity="1" /><path clip-path="url(#clip020)" d="M2037.39 737.036 L2039.98 734.445 L2043.1 737.563 L2040.51 740.154 L2037.39 737.036 Z" fill="#000000" fill-rule="nonzero" fill-opacity="1" /><path clip-path="url(#clip020)" d="M2046.13 714.767 Q2048.3 713.367 2050.49 713.576 Q2052.7 713.772 2054.47 715.54 Q2057.18 718.253 2056.8 721.604 Q2056.42 724.956 2052.98 728.393 Q2051.83 729.547 2050.37 730.541 Q2048.93 731.536 2047.18 732.383 L2044.78 729.989 Q2046.42 729.559 2047.95 728.639 Q2049.49 727.718 2050.82 726.38 Q2053.16 724.047 2053.45 721.911 Q2053.76 719.763 2052 718.008 Q2050.38 716.387 2048.33 716.62 Q2046.28 716.829 2044.26 718.855 L2042.12 720.991 L2040.08 718.953 L2042.32 716.719 Q2044.15 714.889 2044.39 713.195 Q2044.62 711.489 2043.25 710.114 Q2041.84 708.702 2040.08 708.96 Q2038.33 709.193 2036.46 711.059 Q2035.44 712.078 2034.5 713.465 Q2033.55 714.853 2032.62 716.719 L2030.41 714.509 Q2031.43 712.704 2032.46 711.28 Q2033.5 709.844 2034.6 708.751 Q2037.42 705.928 2040.35 705.572 Q2043.27 705.204 2045.46 707.389 Q2046.98 708.911 2047.17 710.838 Q2047.34 712.753 2046.13 714.767 Z" fill="#000000" fill-rule="nonzero" fill-opacity="1" /><path clip-path="url(#clip020)" d="M2055.15 693.185 L2058.67 709.23 L2064.93 702.969 L2055.15 693.185 M2052.33 691.675 L2055.45 688.557 L2067.4 700.502 L2070.01 697.887 L2072.07 699.949 L2069.46 702.564 L2073.78 706.885 L2071.31 709.353 L2066.99 705.032 L2058.72 713.306 L2056.32 710.912 L2052.33 691.675 Z" fill="#000000" fill-rule="nonzero" fill-opacity="1" /><path clip-path="url(#clip020)" d="M2157.59 733.365 Q2155.68 735.28 2156.6 738.14 Q2157.52 740.976 2161.3 744.757 Q2165.07 748.526 2167.91 749.459 Q2170.76 750.367 2172.68 748.452 Q2174.6 746.525 2173.68 743.689 Q2172.76 740.829 2168.99 737.06 Q2165.21 733.279 2162.37 732.371 Q2159.52 731.438 2157.59 733.365 M2155.63 731.401 Q2158.71 728.32 2162.77 729.142 Q2166.83 729.94 2171.47 734.58 Q2176.1 739.208 2176.91 743.284 Q2177.72 747.335 2174.64 750.416 Q2171.56 753.498 2167.5 752.7 Q2163.43 751.877 2158.81 747.249 Q2154.17 742.609 2153.35 738.558 Q2152.54 734.482 2155.63 731.401 Z" fill="#000000" fill-rule="nonzero" fill-opacity="1" /><path clip-path="url(#clip020)" d="M2181.86 736.25 L2184.45 733.66 L2187.57 736.778 L2184.98 739.368 L2181.86 736.25 Z" fill="#000000" fill-rule="nonzero" fill-opacity="1" /><path clip-path="url(#clip020)" d="M2190.6 713.981 Q2192.76 712.582 2194.96 712.79 Q2197.17 712.987 2198.94 714.754 Q2201.65 717.467 2201.27 720.819 Q2200.89 724.17 2197.45 727.607 Q2196.3 728.761 2194.84 729.756 Q2193.4 730.75 2191.64 731.597 L2189.25 729.203 Q2190.88 728.774 2192.42 727.853 Q2193.95 726.932 2195.29 725.594 Q2197.62 723.262 2197.92 721.126 Q2198.22 718.977 2196.47 717.222 Q2194.85 715.601 2192.8 715.835 Q2190.75 716.043 2188.72 718.069 L2186.59 720.205 L2184.55 718.167 L2186.78 715.933 Q2188.61 714.104 2188.86 712.41 Q2189.09 710.703 2187.72 709.328 Q2186.3 707.917 2184.55 708.174 Q2182.79 708.408 2180.93 710.274 Q2179.91 711.293 2178.96 712.68 Q2178.02 714.067 2177.08 715.933 L2174.87 713.723 Q2175.89 711.919 2176.93 710.495 Q2177.97 709.058 2179.06 707.966 Q2181.88 705.142 2184.82 704.786 Q2187.74 704.418 2189.93 706.603 Q2191.45 708.125 2191.63 710.053 Q2191.8 711.968 2190.6 713.981 Z" fill="#000000" fill-rule="nonzero" fill-opacity="1" /><path clip-path="url(#clip020)" d="M2190.66 697.028 L2200.4 687.293 L2202.48 689.38 L2195.02 696.844 L2199.51 701.337 Q2199.87 700.612 2200.32 699.986 Q2200.77 699.348 2201.31 698.808 Q2204.37 695.739 2207.85 695.628 Q2211.32 695.518 2214.2 698.39 Q2217.15 701.349 2216.96 704.835 Q2216.75 708.309 2213.4 711.661 Q2212.24 712.815 2210.84 713.821 Q2209.46 714.816 2207.79 715.7 L2205.3 713.208 Q2207 712.704 2208.47 711.82 Q2209.95 710.937 2211.26 709.623 Q2213.39 707.499 2213.51 705.142 Q2213.63 702.785 2211.72 700.87 Q2209.8 698.955 2207.44 699.078 Q2205.09 699.201 2202.96 701.324 Q2201.97 702.319 2201.19 703.534 Q2200.43 704.737 2199.87 706.235 L2190.66 697.028 Z" fill="#000000" fill-rule="nonzero" fill-opacity="1" /><polyline clip-path="url(#clip020)" style="stroke:#000000; stroke-linecap:round; stroke-linejoin:round; stroke-width:4; stroke-opacity:1; fill:none" points="1361.64,662.16 1361.64,97.5521 "/>
<polyline clip-path="url(#clip020)" style="stroke:#000000; stroke-linecap:round; stroke-linejoin:round; stroke-width:4; stroke-opacity:1; fill:none" points="1361.64,646.181 1380.53,646.181 "/>
<polyline clip-path="url(#clip020)" style="stroke:#000000; stroke-linecap:round; stroke-linejoin:round; stroke-width:4; stroke-opacity:1; fill:none" points="1361.64,504.354 1380.53,504.354 "/>
<polyline clip-path="url(#clip020)" style="stroke:#000000; stroke-linecap:round; stroke-linejoin:round; stroke-width:4; stroke-opacity:1; fill:none" points="1361.64,362.527 1380.53,362.527 "/>
<polyline clip-path="url(#clip020)" style="stroke:#000000; stroke-linecap:round; stroke-linejoin:round; stroke-width:4; stroke-opacity:1; fill:none" points="1361.64,220.7 1380.53,220.7 "/>
<path clip-path="url(#clip020)" d="M1260.13 635.53 Q1257.42 635.53 1256.05 638.204 Q1254.7 640.86 1254.7 646.207 Q1254.7 651.537 1256.05 654.21 Q1257.42 656.867 1260.13 656.867 Q1262.86 656.867 1264.21 654.21 Q1265.58 651.537 1265.58 646.207 Q1265.58 640.86 1264.21 638.204 Q1262.86 635.53 1260.13 635.53 M1260.13 632.752 Q1264.49 632.752 1266.78 636.207 Q1269.09 639.645 1269.09 646.207 Q1269.09 652.752 1266.78 656.207 Q1264.49 659.644 1260.13 659.644 Q1255.78 659.644 1253.47 656.207 Q1251.17 652.752 1251.17 646.207 Q1251.17 639.645 1253.47 636.207 Q1255.78 632.752 1260.13 632.752 Z" fill="#000000" fill-rule="nonzero" fill-opacity="1" /><path clip-path="url(#clip020)" d="M1275.25 654.731 L1278.92 654.731 L1278.92 659.141 L1275.25 659.141 L1275.25 654.731 Z" fill="#000000" fill-rule="nonzero" fill-opacity="1" /><path clip-path="url(#clip020)" d="M1294.06 635.53 Q1291.35 635.53 1289.98 638.204 Q1288.62 640.86 1288.62 646.207 Q1288.62 651.537 1289.98 654.21 Q1291.35 656.867 1294.06 656.867 Q1296.78 656.867 1298.14 654.21 Q1299.51 651.537 1299.51 646.207 Q1299.51 640.86 1298.14 638.204 Q1296.78 635.53 1294.06 635.53 M1294.06 632.752 Q1298.41 632.752 1300.71 636.207 Q1303.01 639.645 1303.01 646.207 Q1303.01 652.752 1300.71 656.207 Q1298.41 659.644 1294.06 659.644 Q1289.7 659.644 1287.39 656.207 Q1285.1 652.752 1285.1 646.207 Q1285.1 639.645 1287.39 636.207 Q1289.7 632.752 1294.06 632.752 Z" fill="#000000" fill-rule="nonzero" fill-opacity="1" /><path clip-path="url(#clip020)" d="M1316.68 635.53 Q1313.97 635.53 1312.6 638.204 Q1311.24 640.86 1311.24 646.207 Q1311.24 651.537 1312.6 654.21 Q1313.97 656.867 1316.68 656.867 Q1319.4 656.867 1320.76 654.21 Q1322.13 651.537 1322.13 646.207 Q1322.13 640.86 1320.76 638.204 Q1319.4 635.53 1316.68 635.53 M1316.68 632.752 Q1321.04 632.752 1323.33 636.207 Q1325.64 639.645 1325.64 646.207 Q1325.64 652.752 1323.33 656.207 Q1321.04 659.644 1316.68 659.644 Q1312.32 659.644 1310.01 656.207 Q1307.72 652.752 1307.72 646.207 Q1307.72 639.645 1310.01 636.207 Q1312.32 632.752 1316.68 632.752 Z" fill="#000000" fill-rule="nonzero" fill-opacity="1" /><path clip-path="url(#clip020)" d="M1260.88 493.703 Q1258.17 493.703 1256.8 496.377 Q1255.45 499.033 1255.45 504.38 Q1255.45 509.71 1256.8 512.383 Q1258.17 515.04 1260.88 515.04 Q1263.6 515.04 1264.96 512.383 Q1266.33 509.71 1266.33 504.38 Q1266.33 499.033 1264.96 496.377 Q1263.6 493.703 1260.88 493.703 M1260.88 490.925 Q1265.24 490.925 1267.53 494.38 Q1269.84 497.818 1269.84 504.38 Q1269.84 510.925 1267.53 514.38 Q1265.24 517.817 1260.88 517.817 Q1256.52 517.817 1254.21 514.38 Q1251.92 510.925 1251.92 504.38 Q1251.92 497.818 1254.21 494.38 Q1256.52 490.925 1260.88 490.925 Z" fill="#000000" fill-rule="nonzero" fill-opacity="1" /><path clip-path="url(#clip020)" d="M1276 512.904 L1279.66 512.904 L1279.66 517.314 L1276 517.314 L1276 512.904 Z" fill="#000000" fill-rule="nonzero" fill-opacity="1" /><path clip-path="url(#clip020)" d="M1294.8 493.703 Q1292.09 493.703 1290.72 496.377 Q1289.37 499.033 1289.37 504.38 Q1289.37 509.71 1290.72 512.383 Q1292.09 515.04 1294.8 515.04 Q1297.53 515.04 1298.88 512.383 Q1300.25 509.71 1300.25 504.38 Q1300.25 499.033 1298.88 496.377 Q1297.53 493.703 1294.8 493.703 M1294.8 490.925 Q1299.16 490.925 1301.45 494.38 Q1303.76 497.818 1303.76 504.38 Q1303.76 510.925 1301.45 514.38 Q1299.16 517.817 1294.8 517.817 Q1290.45 517.817 1288.14 514.38 Q1285.84 510.925 1285.84 504.38 Q1285.84 497.818 1288.14 494.38 Q1290.45 490.925 1294.8 490.925 Z" fill="#000000" fill-rule="nonzero" fill-opacity="1" /><path clip-path="url(#clip020)" d="M1309.96 491.394 L1323.73 491.394 L1323.73 494.345 L1313.17 494.345 L1313.17 500.699 Q1313.93 500.439 1314.7 500.318 Q1315.46 500.179 1316.23 500.179 Q1320.57 500.179 1323.1 502.557 Q1325.64 504.936 1325.64 508.998 Q1325.64 513.182 1323.03 515.508 Q1320.43 517.817 1315.69 517.817 Q1314.06 517.817 1312.35 517.54 Q1310.67 517.262 1308.87 516.706 L1308.87 513.182 Q1310.43 514.033 1312.09 514.449 Q1313.76 514.866 1315.62 514.866 Q1318.62 514.866 1320.38 513.286 Q1322.13 511.706 1322.13 508.998 Q1322.13 506.29 1320.38 504.71 Q1318.62 503.13 1315.62 503.13 Q1314.21 503.13 1312.81 503.443 Q1311.42 503.755 1309.96 504.415 L1309.96 491.394 Z" fill="#000000" fill-rule="nonzero" fill-opacity="1" /><path clip-path="url(#clip020)" d="M1260.13 351.876 Q1257.42 351.876 1256.05 354.55 Q1254.7 357.206 1254.7 362.553 Q1254.7 367.883 1256.05 370.556 Q1257.42 373.213 1260.13 373.213 Q1262.86 373.213 1264.21 370.556 Q1265.58 367.883 1265.58 362.553 Q1265.58 357.206 1264.21 354.55 Q1262.86 351.876 1260.13 351.876 M1260.13 349.098 Q1264.49 349.098 1266.78 352.553 Q1269.09 355.991 1269.09 362.553 Q1269.09 369.098 1266.78 372.553 Q1264.49 375.99 1260.13 375.99 Q1255.78 375.99 1253.47 372.553 Q1251.17 369.098 1251.17 362.553 Q1251.17 355.991 1253.47 352.553 Q1255.78 349.098 1260.13 349.098 Z" fill="#000000" fill-rule="nonzero" fill-opacity="1" /><path clip-path="url(#clip020)" d="M1275.25 371.077 L1278.92 371.077 L1278.92 375.487 L1275.25 375.487 L1275.25 371.077 Z" fill="#000000" fill-rule="nonzero" fill-opacity="1" /><path clip-path="url(#clip020)" d="M1287.16 372.536 L1292.89 372.536 L1292.89 352.761 L1286.66 354.011 L1286.66 350.817 L1292.86 349.567 L1296.37 349.567 L1296.37 372.536 L1302.09 372.536 L1302.09 375.487 L1287.16 375.487 L1287.16 372.536 Z" fill="#000000" fill-rule="nonzero" fill-opacity="1" /><path clip-path="url(#clip020)" d="M1316.68 351.876 Q1313.97 351.876 1312.6 354.55 Q1311.24 357.206 1311.24 362.553 Q1311.24 367.883 1312.6 370.556 Q1313.97 373.213 1316.68 373.213 Q1319.4 373.213 1320.76 370.556 Q1322.13 367.883 1322.13 362.553 Q1322.13 357.206 1320.76 354.55 Q1319.4 351.876 1316.68 351.876 M1316.68 349.098 Q1321.04 349.098 1323.33 352.553 Q1325.64 355.991 1325.64 362.553 Q1325.64 369.098 1323.33 372.553 Q1321.04 375.99 1316.68 375.99 Q1312.32 375.99 1310.01 372.553 Q1307.72 369.098 1307.72 362.553 Q1307.72 355.991 1310.01 352.553 Q1312.32 349.098 1316.68 349.098 Z" fill="#000000" fill-rule="nonzero" fill-opacity="1" /><path clip-path="url(#clip020)" d="M1260.88 210.049 Q1258.17 210.049 1256.8 212.723 Q1255.45 215.379 1255.45 220.726 Q1255.45 226.056 1256.8 228.729 Q1258.17 231.386 1260.88 231.386 Q1263.6 231.386 1264.96 228.729 Q1266.33 226.056 1266.33 220.726 Q1266.33 215.379 1264.96 212.723 Q1263.6 210.049 1260.88 210.049 M1260.88 207.271 Q1265.24 207.271 1267.53 210.726 Q1269.84 214.164 1269.84 220.726 Q1269.84 227.271 1267.53 230.726 Q1265.24 234.163 1260.88 234.163 Q1256.52 234.163 1254.21 230.726 Q1251.92 227.271 1251.92 220.726 Q1251.92 214.164 1254.21 210.726 Q1256.52 207.271 1260.88 207.271 Z" fill="#000000" fill-rule="nonzero" fill-opacity="1" /><path clip-path="url(#clip020)" d="M1276 229.25 L1279.66 229.25 L1279.66 233.66 L1276 233.66 L1276 229.25 Z" fill="#000000" fill-rule="nonzero" fill-opacity="1" /><path clip-path="url(#clip020)" d="M1287.91 230.709 L1293.64 230.709 L1293.64 210.934 L1287.41 212.184 L1287.41 208.99 L1293.6 207.74 L1297.11 207.74 L1297.11 230.709 L1302.84 230.709 L1302.84 233.66 L1287.91 233.66 L1287.91 230.709 Z" fill="#000000" fill-rule="nonzero" fill-opacity="1" /><path clip-path="url(#clip020)" d="M1309.96 207.74 L1323.73 207.74 L1323.73 210.691 L1313.17 210.691 L1313.17 217.046 Q1313.93 216.785 1314.7 216.664 Q1315.46 216.525 1316.23 216.525 Q1320.57 216.525 1323.1 218.903 Q1325.64 221.282 1325.64 225.344 Q1325.64 229.528 1323.03 231.854 Q1320.43 234.163 1315.69 234.163 Q1314.06 234.163 1312.35 233.886 Q1310.67 233.608 1308.87 233.052 L1308.87 229.528 Q1310.43 230.379 1312.09 230.795 Q1313.76 231.212 1315.62 231.212 Q1318.62 231.212 1320.38 229.632 Q1322.13 228.052 1322.13 225.344 Q1322.13 222.636 1320.38 221.056 Q1318.62 219.476 1315.62 219.476 Q1314.21 219.476 1312.81 219.789 Q1311.42 220.101 1309.96 220.761 L1309.96 207.74 Z" fill="#000000" fill-rule="nonzero" fill-opacity="1" /><path clip-path="url(#clip020)" d="M1373.53 18.9258 Q1370.02 18.9258 1368.12 21.4721 Q1366.13 24.1341 1366.13 28.5323 Q1366.13 33.185 1368.09 35.8702 Q1370.08 38.5322 1373.53 38.5322 Q1376.94 38.5322 1378.93 35.847 Q1380.92 33.1619 1380.92 28.5323 Q1380.92 24.2962 1378.93 21.4721 Q1377.1 18.9258 1373.53 18.9258 M1373.53 15.5462 L1387.68 15.5462 L1387.68 19.8054 L1382.91 19.8054 Q1385.43 23.4165 1385.43 28.5323 Q1385.43 34.898 1382.26 38.5091 Q1379.09 42.1433 1373.53 42.1433 Q1367.96 42.1433 1364.81 38.5091 Q1361.64 34.898 1361.64 28.5323 Q1361.64 22.1203 1364.81 18.5323 Q1367.42 15.5462 1373.53 15.5462 Z" fill="#000000" fill-rule="nonzero" fill-opacity="1" /><path clip-path="url(#clip020)" d="M1411.84 19.6666 Q1410.99 19.3656 1410.13 19.1342 Q1407.84 18.5323 1405.39 18.5323 Q1401.15 18.5323 1398.79 20.824 Q1396.59 22.9536 1396.17 26.8656 L1411.84 26.8656 L1411.84 30.1989 L1396.17 30.1989 Q1396.59 34.1109 1398.79 36.2405 Q1401.15 38.5322 1405.39 38.5322 Q1408.35 38.5322 1410.13 37.9304 L1411.84 37.3517 L1411.84 41.2174 L1410.02 41.634 Q1407.61 42.1433 1405.13 42.1433 Q1398.93 42.1433 1395.32 38.5322 Q1391.68 34.9211 1391.68 28.5323 Q1391.68 22.1434 1395.32 18.5323 Q1398.93 14.9212 1405.13 14.9212 Q1407.47 14.9212 1410.02 15.4305 Q1410.94 15.6157 1411.84 15.8934 L1411.84 19.6666 Z" fill="#000000" fill-rule="nonzero" fill-opacity="1" /><polyline clip-path="url(#clip023)" style="stroke:#009af9; stroke-linecap:round; stroke-linejoin:round; stroke-width:4; stroke-opacity:1; fill:none" points="1389.69,164.26 1448.13,221.726 1506.56,279.984 1565,339.036 1623.44,398.879 1681.88,459.516 1740.32,520.945 1798.76,583.167 1857.2,646.181 1915.63,582.374 1974.07,517.774 2032.51,452.382 2090.95,386.197 2149.39,319.22 2207.83,251.45 2266.27,182.887 2324.71,113.532 "/>
<circle clip-path="url(#clip023)" cx="1857.2" cy="646.181" r="10.8" fill="#ff0000" fill-rule="evenodd" fill-opacity="1" stroke="#000000" stroke-opacity="1" stroke-width="3.2"/>
<path clip-path="url(#clip020)" d="M161.818 1456.91 L1152.94 1456.91 L1152.94 892.306 L161.818 892.306  Z" fill="#ffffff" fill-rule="evenodd" fill-opacity="1"/>
<defs>
  <clipPath id="clip024">
    <rect x="161" y="892" width="992" height="566"/>
  </clipPath>
</defs>
<polyline clip-path="url(#clip024)" style="stroke:#000000; stroke-linecap:round; stroke-linejoin:round; stroke-width:2; stroke-opacity:0.1; fill:none" points="286.077,1456.91 286.077,892.306 "/>
<polyline clip-path="url(#clip024)" style="stroke:#000000; stroke-linecap:round; stroke-linejoin:round; stroke-width:2; stroke-opacity:0.1; fill:none" points="501.267,1456.91 501.267,892.306 "/>
<polyline clip-path="url(#clip024)" style="stroke:#000000; stroke-linecap:round; stroke-linejoin:round; stroke-width:2; stroke-opacity:0.1; fill:none" points="716.457,1456.91 716.457,892.306 "/>
<polyline clip-path="url(#clip024)" style="stroke:#000000; stroke-linecap:round; stroke-linejoin:round; stroke-width:2; stroke-opacity:0.1; fill:none" points="931.646,1456.91 931.646,892.306 "/>
<polyline clip-path="url(#clip024)" style="stroke:#000000; stroke-linecap:round; stroke-linejoin:round; stroke-width:2; stroke-opacity:0.1; fill:none" points="1146.84,1456.91 1146.84,892.306 "/>
<polyline clip-path="url(#clip024)" style="stroke:#000000; stroke-linecap:round; stroke-linejoin:round; stroke-width:2; stroke-opacity:0.1; fill:none" points="161.818,1440.94 1152.94,1440.94 "/>
<polyline clip-path="url(#clip024)" style="stroke:#000000; stroke-linecap:round; stroke-linejoin:round; stroke-width:2; stroke-opacity:0.1; fill:none" points="161.818,1321.52 1152.94,1321.52 "/>
<polyline clip-path="url(#clip024)" style="stroke:#000000; stroke-linecap:round; stroke-linejoin:round; stroke-width:2; stroke-opacity:0.1; fill:none" points="161.818,1202.11 1152.94,1202.11 "/>
<polyline clip-path="url(#clip024)" style="stroke:#000000; stroke-linecap:round; stroke-linejoin:round; stroke-width:2; stroke-opacity:0.1; fill:none" points="161.818,1082.69 1152.94,1082.69 "/>
<polyline clip-path="url(#clip024)" style="stroke:#000000; stroke-linecap:round; stroke-linejoin:round; stroke-width:2; stroke-opacity:0.1; fill:none" points="161.818,963.278 1152.94,963.278 "/>
<polyline clip-path="url(#clip020)" style="stroke:#000000; stroke-linecap:round; stroke-linejoin:round; stroke-width:4; stroke-opacity:1; fill:none" points="161.818,1456.91 1152.94,1456.91 "/>
<polyline clip-path="url(#clip020)" style="stroke:#000000; stroke-linecap:round; stroke-linejoin:round; stroke-width:4; stroke-opacity:1; fill:none" points="286.077,1456.91 286.077,1438.02 "/>
<polyline clip-path="url(#clip020)" style="stroke:#000000; stroke-linecap:round; stroke-linejoin:round; stroke-width:4; stroke-opacity:1; fill:none" points="501.267,1456.91 501.267,1438.02 "/>
<polyline clip-path="url(#clip020)" style="stroke:#000000; stroke-linecap:round; stroke-linejoin:round; stroke-width:4; stroke-opacity:1; fill:none" points="716.457,1456.91 716.457,1438.02 "/>
<polyline clip-path="url(#clip020)" style="stroke:#000000; stroke-linecap:round; stroke-linejoin:round; stroke-width:4; stroke-opacity:1; fill:none" points="931.646,1456.91 931.646,1438.02 "/>
<polyline clip-path="url(#clip020)" style="stroke:#000000; stroke-linecap:round; stroke-linejoin:round; stroke-width:4; stroke-opacity:1; fill:none" points="1146.84,1456.91 1146.84,1438.02 "/>
<path clip-path="url(#clip020)" d="M216.232 1544.64 Q214.317 1546.56 215.238 1549.42 Q216.159 1552.25 219.94 1556.03 Q223.709 1559.8 226.557 1560.74 Q229.405 1561.65 231.32 1559.73 Q233.247 1557.8 232.326 1554.97 Q231.406 1552.11 227.637 1548.34 Q223.856 1544.56 221.008 1543.65 Q218.16 1542.72 216.232 1544.64 M214.268 1542.68 Q217.35 1539.6 221.413 1540.42 Q225.476 1541.22 230.117 1545.86 Q234.745 1550.49 235.555 1554.56 Q236.365 1558.61 233.284 1561.69 Q230.203 1564.78 226.139 1563.98 Q222.076 1563.15 217.448 1558.53 Q212.807 1553.89 211.997 1549.84 Q211.187 1545.76 214.268 1542.68 Z" fill="#000000" fill-rule="nonzero" fill-opacity="1" /><path clip-path="url(#clip020)" d="M240.502 1547.53 L243.092 1544.94 L246.211 1548.06 L243.62 1550.65 L240.502 1547.53 Z" fill="#000000" fill-rule="nonzero" fill-opacity="1" /><path clip-path="url(#clip020)" d="M233.308 1524.3 L243.043 1514.57 L245.13 1516.65 L237.666 1524.12 L242.16 1528.61 Q242.516 1527.89 242.97 1527.26 Q243.412 1526.62 243.952 1526.08 Q247.021 1523.01 250.495 1522.9 Q253.969 1522.79 256.842 1525.66 Q259.8 1528.62 259.604 1532.11 Q259.395 1535.58 256.044 1538.93 Q254.89 1540.09 253.49 1541.09 Q252.103 1542.09 250.434 1542.97 L247.942 1540.48 Q249.648 1539.98 251.121 1539.09 Q252.594 1538.21 253.908 1536.9 Q256.032 1534.77 256.154 1532.42 Q256.277 1530.06 254.362 1528.14 Q252.447 1526.23 250.09 1526.35 Q247.733 1526.47 245.609 1528.6 Q244.615 1529.59 243.841 1530.81 Q243.08 1532.01 242.516 1533.51 L233.308 1524.3 Z" fill="#000000" fill-rule="nonzero" fill-opacity="1" /><path clip-path="url(#clip020)" d="M256.216 1504.66 Q254.301 1506.57 255.221 1509.43 Q256.142 1512.27 259.923 1516.05 Q263.692 1519.82 266.54 1520.75 Q269.388 1521.66 271.303 1519.75 Q273.23 1517.82 272.31 1514.98 Q271.389 1512.12 267.62 1508.35 Q263.839 1504.57 260.991 1503.67 Q258.143 1502.73 256.216 1504.66 M254.251 1502.7 Q257.333 1499.61 261.396 1500.44 Q265.46 1501.23 270.1 1505.87 Q274.728 1510.5 275.538 1514.58 Q276.348 1518.63 273.267 1521.71 Q270.186 1524.79 266.122 1523.99 Q262.059 1523.17 257.431 1518.54 Q252.791 1513.9 251.98 1509.85 Q251.17 1505.78 254.251 1502.7 Z" fill="#000000" fill-rule="nonzero" fill-opacity="1" /><path clip-path="url(#clip020)" d="M272.211 1488.66 Q270.296 1490.58 271.217 1493.44 Q272.138 1496.27 275.919 1500.06 Q279.688 1503.82 282.536 1504.76 Q285.384 1505.67 287.299 1503.75 Q289.226 1501.82 288.305 1498.99 Q287.385 1496.13 283.616 1492.36 Q279.835 1488.58 276.987 1487.67 Q274.139 1486.74 272.211 1488.66 M270.247 1486.7 Q273.329 1483.62 277.392 1484.44 Q281.455 1485.24 286.096 1489.88 Q290.724 1494.51 291.534 1498.58 Q292.344 1502.63 289.263 1505.72 Q286.182 1508.8 282.118 1508 Q278.055 1507.18 273.427 1502.55 Q268.786 1497.91 267.976 1493.86 Q267.166 1489.78 270.247 1486.7 Z" fill="#000000" fill-rule="nonzero" fill-opacity="1" /><path clip-path="url(#clip020)" d="M431.95 1544.11 Q430.035 1546.03 430.956 1548.89 Q431.876 1551.73 435.657 1555.51 Q439.426 1559.28 442.274 1560.21 Q445.122 1561.12 447.037 1559.2 Q448.965 1557.27 448.044 1554.44 Q447.123 1551.58 443.354 1547.81 Q439.573 1544.03 436.725 1543.12 Q433.877 1542.19 431.95 1544.11 M429.986 1542.15 Q433.067 1539.07 437.13 1539.89 Q441.194 1540.69 445.834 1545.33 Q450.462 1549.96 451.273 1554.03 Q452.083 1558.08 449.001 1561.17 Q445.92 1564.25 441.857 1563.45 Q437.793 1562.63 433.165 1558 Q428.525 1553.36 427.715 1549.31 Q426.904 1545.23 429.986 1542.15 Z" fill="#000000" fill-rule="nonzero" fill-opacity="1" /><path clip-path="url(#clip020)" d="M456.22 1547 L458.81 1544.41 L461.928 1547.53 L459.338 1550.12 L456.22 1547 Z" fill="#000000" fill-rule="nonzero" fill-opacity="1" /><path clip-path="url(#clip020)" d="M449.026 1523.77 L458.761 1514.04 L460.848 1516.13 L453.384 1523.59 L457.877 1528.08 Q458.233 1527.36 458.687 1526.73 Q459.129 1526.09 459.669 1525.55 Q462.738 1522.48 466.213 1522.37 Q469.687 1522.26 472.559 1525.14 Q475.518 1528.09 475.321 1531.58 Q475.113 1535.05 471.761 1538.41 Q470.607 1539.56 469.208 1540.57 Q467.821 1541.56 466.151 1542.45 L463.659 1539.95 Q465.365 1539.45 466.839 1538.57 Q468.312 1537.68 469.625 1536.37 Q471.749 1534.24 471.872 1531.89 Q471.995 1529.53 470.08 1527.62 Q468.164 1525.7 465.807 1525.82 Q463.45 1525.95 461.327 1528.07 Q460.332 1529.06 459.559 1530.28 Q458.798 1531.48 458.233 1532.98 L449.026 1523.77 Z" fill="#000000" fill-rule="nonzero" fill-opacity="1" /><path clip-path="url(#clip020)" d="M483.375 1521.91 L492.029 1513.25 L494.116 1515.34 L482.478 1526.98 L480.391 1524.89 Q480.342 1522.02 480.318 1517.13 Q480.293 1512.22 480.207 1510.88 Q480.06 1508.35 479.606 1506.97 Q479.152 1505.56 478.255 1504.66 Q476.795 1503.2 474.843 1503.31 Q472.903 1503.41 471.258 1505.05 Q470.092 1506.22 469.196 1507.92 Q468.312 1509.62 467.661 1511.91 L465.157 1509.41 Q466.053 1507.31 467.047 1505.7 Q468.042 1504.09 469.122 1503.01 Q471.97 1500.17 475.088 1499.9 Q478.206 1499.63 480.588 1502.01 Q481.717 1503.14 482.307 1504.59 Q482.896 1506.01 483.154 1508.5 Q483.203 1509.16 483.264 1512.52 Q483.313 1515.86 483.375 1521.91 Z" fill="#000000" fill-rule="nonzero" fill-opacity="1" /><path clip-path="url(#clip020)" d="M481.018 1491.78 L490.752 1482.05 L492.839 1484.13 L485.376 1491.6 L489.869 1496.09 Q490.225 1495.37 490.679 1494.74 Q491.121 1494.1 491.661 1493.56 Q494.73 1490.49 498.204 1490.38 Q501.678 1490.27 504.551 1493.14 Q507.509 1496.1 507.313 1499.59 Q507.104 1503.06 503.753 1506.41 Q502.599 1507.57 501.199 1508.58 Q499.812 1509.57 498.143 1510.45 L495.651 1507.96 Q497.357 1507.46 498.83 1506.57 Q500.303 1505.69 501.617 1504.38 Q503.741 1502.25 503.863 1499.9 Q503.986 1497.54 502.071 1495.62 Q500.156 1493.71 497.799 1493.83 Q495.442 1493.95 493.318 1496.08 Q492.324 1497.07 491.55 1498.29 Q490.789 1499.49 490.225 1500.99 L481.018 1491.78 Z" fill="#000000" fill-rule="nonzero" fill-opacity="1" /><path clip-path="url(#clip020)" d="M646.612 1544.64 Q644.697 1546.56 645.617 1549.42 Q646.538 1552.25 650.319 1556.03 Q654.088 1559.8 656.936 1560.74 Q659.784 1561.65 661.699 1559.73 Q663.626 1557.8 662.706 1554.97 Q661.785 1552.11 658.016 1548.34 Q654.235 1544.56 651.387 1543.65 Q648.539 1542.72 646.612 1544.64 M644.648 1542.68 Q647.729 1539.6 651.792 1540.42 Q655.856 1541.22 660.496 1545.86 Q665.124 1550.49 665.934 1554.56 Q666.745 1558.61 663.663 1561.69 Q660.582 1564.78 656.519 1563.98 Q652.455 1563.15 647.827 1558.53 Q643.187 1553.89 642.377 1549.84 Q641.566 1545.76 644.648 1542.68 Z" fill="#000000" fill-rule="nonzero" fill-opacity="1" /><path clip-path="url(#clip020)" d="M670.882 1547.53 L673.472 1544.94 L676.59 1548.06 L674 1550.65 L670.882 1547.53 Z" fill="#000000" fill-rule="nonzero" fill-opacity="1" /><path clip-path="url(#clip020)" d="M663.688 1524.3 L673.423 1514.57 L675.51 1516.65 L668.046 1524.12 L672.539 1528.61 Q672.895 1527.89 673.349 1527.26 Q673.791 1526.62 674.331 1526.08 Q677.4 1523.01 680.874 1522.9 Q684.348 1522.79 687.221 1525.66 Q690.18 1528.62 689.983 1532.11 Q689.775 1535.58 686.423 1538.93 Q685.269 1540.09 683.87 1541.09 Q682.483 1542.09 680.813 1542.97 L678.321 1540.48 Q680.027 1539.98 681.5 1539.09 Q682.974 1538.21 684.287 1536.9 Q686.411 1534.77 686.534 1532.42 Q686.656 1530.06 684.741 1528.14 Q682.826 1526.23 680.469 1526.35 Q678.112 1526.47 675.988 1528.6 Q674.994 1529.59 674.221 1530.81 Q673.46 1532.01 672.895 1533.51 L663.688 1524.3 Z" fill="#000000" fill-rule="nonzero" fill-opacity="1" /><path clip-path="url(#clip020)" d="M679.684 1508.31 L689.419 1498.57 L691.505 1500.66 L684.042 1508.12 L688.535 1512.61 Q688.891 1511.89 689.345 1511.26 Q689.787 1510.63 690.327 1510.09 Q693.396 1507.02 696.87 1506.91 Q700.344 1506.8 703.217 1509.67 Q706.175 1512.63 705.979 1516.11 Q705.77 1519.59 702.419 1522.94 Q701.265 1524.09 699.865 1525.1 Q698.478 1526.09 696.809 1526.98 L694.317 1524.49 Q696.023 1523.98 697.496 1523.1 Q698.969 1522.21 700.283 1520.9 Q702.407 1518.78 702.529 1516.42 Q702.652 1514.06 700.737 1512.15 Q698.822 1510.23 696.465 1510.36 Q694.108 1510.48 691.984 1512.6 Q690.99 1513.6 690.216 1514.81 Q689.455 1516.01 688.891 1517.51 L679.684 1508.31 Z" fill="#000000" fill-rule="nonzero" fill-opacity="1" /><path clip-path="url(#clip020)" d="M702.591 1488.66 Q700.676 1490.58 701.596 1493.44 Q702.517 1496.27 706.298 1500.06 Q710.067 1503.82 712.915 1504.76 Q715.763 1505.67 717.678 1503.75 Q719.605 1501.82 718.685 1498.99 Q717.764 1496.13 713.995 1492.36 Q710.214 1488.58 707.366 1487.67 Q704.518 1486.74 702.591 1488.66 M700.627 1486.7 Q703.708 1483.62 707.771 1484.44 Q711.835 1485.24 716.475 1489.88 Q721.103 1494.51 721.913 1498.58 Q722.724 1502.63 719.642 1505.72 Q716.561 1508.8 712.498 1508 Q708.434 1507.18 703.806 1502.55 Q699.166 1497.91 698.356 1493.86 Q697.545 1489.78 700.627 1486.7 Z" fill="#000000" fill-rule="nonzero" fill-opacity="1" /><path clip-path="url(#clip020)" d="M862.329 1544.11 Q860.414 1546.03 861.335 1548.89 Q862.256 1551.73 866.037 1555.51 Q869.805 1559.28 872.654 1560.21 Q875.502 1561.12 877.417 1559.2 Q879.344 1557.27 878.423 1554.44 Q877.503 1551.58 873.734 1547.81 Q869.953 1544.03 867.105 1543.12 Q864.257 1542.19 862.329 1544.11 M860.365 1542.15 Q863.446 1539.07 867.51 1539.89 Q871.573 1540.69 876.214 1545.33 Q880.842 1549.96 881.652 1554.03 Q882.462 1558.08 879.381 1561.17 Q876.3 1564.25 872.236 1563.45 Q868.173 1562.63 863.545 1558 Q858.904 1553.36 858.094 1549.31 Q857.284 1545.23 860.365 1542.15 Z" fill="#000000" fill-rule="nonzero" fill-opacity="1" /><path clip-path="url(#clip020)" d="M886.599 1547 L889.189 1544.41 L892.308 1547.53 L889.717 1550.12 L886.599 1547 Z" fill="#000000" fill-rule="nonzero" fill-opacity="1" /><path clip-path="url(#clip020)" d="M879.405 1523.77 L889.14 1514.04 L891.227 1516.13 L883.763 1523.59 L888.256 1528.08 Q888.612 1527.36 889.067 1526.73 Q889.509 1526.09 890.049 1525.55 Q893.118 1522.48 896.592 1522.37 Q900.066 1522.26 902.939 1525.14 Q905.897 1528.09 905.701 1531.58 Q905.492 1535.05 902.141 1538.41 Q900.987 1539.56 899.587 1540.57 Q898.2 1541.56 896.531 1542.45 L894.038 1539.95 Q895.745 1539.45 897.218 1538.57 Q898.691 1537.68 900.005 1536.37 Q902.128 1534.24 902.251 1531.89 Q902.374 1529.53 900.459 1527.62 Q898.544 1525.7 896.187 1525.82 Q893.83 1525.95 891.706 1528.07 Q890.712 1529.06 889.938 1530.28 Q889.177 1531.48 888.612 1532.98 L879.405 1523.77 Z" fill="#000000" fill-rule="nonzero" fill-opacity="1" /><path clip-path="url(#clip020)" d="M894.751 1508.43 L906.536 1496.64 L907.591 1497.7 L918.21 1521.62 L915.62 1524.22 L905.639 1501.71 L896.837 1510.52 L894.751 1508.43 Z" fill="#000000" fill-rule="nonzero" fill-opacity="1" /><path clip-path="url(#clip020)" d="M911.397 1491.78 L921.132 1482.05 L923.219 1484.13 L915.755 1491.6 L920.248 1496.09 Q920.604 1495.37 921.058 1494.74 Q921.5 1494.1 922.04 1493.56 Q925.109 1490.49 928.583 1490.38 Q932.058 1490.27 934.93 1493.14 Q937.889 1496.1 937.692 1499.59 Q937.484 1503.06 934.132 1506.41 Q932.978 1507.57 931.579 1508.58 Q930.192 1509.57 928.522 1510.45 L926.03 1507.96 Q927.736 1507.46 929.21 1506.57 Q930.683 1505.69 931.996 1504.38 Q934.12 1502.25 934.243 1499.9 Q934.365 1497.54 932.45 1495.62 Q930.535 1493.71 928.178 1493.83 Q925.821 1493.95 923.698 1496.08 Q922.703 1497.07 921.93 1498.29 Q921.169 1499.49 920.604 1500.99 L911.397 1491.78 Z" fill="#000000" fill-rule="nonzero" fill-opacity="1" /><path clip-path="url(#clip020)" d="M1076.99 1544.64 Q1075.08 1546.56 1076 1549.42 Q1076.92 1552.25 1080.7 1556.03 Q1084.47 1559.8 1087.32 1560.74 Q1090.16 1561.65 1092.08 1559.73 Q1094.01 1557.8 1093.09 1554.97 Q1092.16 1552.11 1088.4 1548.34 Q1084.61 1544.56 1081.77 1543.65 Q1078.92 1542.72 1076.99 1544.64 M1075.03 1542.68 Q1078.11 1539.6 1082.17 1540.42 Q1086.24 1541.22 1090.88 1545.86 Q1095.5 1550.49 1096.31 1554.56 Q1097.12 1558.61 1094.04 1561.69 Q1090.96 1564.78 1086.9 1563.98 Q1082.83 1563.15 1078.21 1558.53 Q1073.57 1553.89 1072.76 1549.84 Q1071.95 1545.76 1075.03 1542.68 Z" fill="#000000" fill-rule="nonzero" fill-opacity="1" /><path clip-path="url(#clip020)" d="M1101.26 1547.53 L1103.85 1544.94 L1106.97 1548.06 L1104.38 1550.65 L1101.26 1547.53 Z" fill="#000000" fill-rule="nonzero" fill-opacity="1" /><path clip-path="url(#clip020)" d="M1107.83 1526.89 Q1106.16 1528.56 1106.32 1530.68 Q1106.49 1532.8 1108.48 1534.78 Q1110.46 1536.76 1112.58 1536.95 Q1114.7 1537.11 1116.37 1535.44 Q1118.04 1533.77 1117.87 1531.65 Q1117.7 1529.52 1115.72 1527.54 Q1113.73 1525.55 1111.61 1525.39 Q1109.5 1525.22 1107.83 1526.89 M1104.98 1514.2 L1107.24 1516.46 Q1105.86 1516.95 1104.67 1517.67 Q1103.5 1518.38 1102.56 1519.32 Q1100.11 1521.77 1100.46 1524.73 Q1100.83 1527.68 1104 1531.21 Q1103.65 1529.42 1104.18 1527.76 Q1104.7 1526.09 1106.01 1524.78 Q1108.77 1522.02 1112.05 1522.1 Q1115.33 1522.17 1118.21 1525.05 Q1121.04 1527.87 1121.07 1531.25 Q1121.11 1534.63 1118.34 1537.4 Q1115.16 1540.58 1111.05 1539.83 Q1106.92 1539.07 1102.29 1534.44 Q1097.95 1530.1 1097.43 1525.46 Q1096.9 1520.8 1100.38 1517.33 Q1101.31 1516.4 1102.44 1515.63 Q1103.58 1514.86 1104.98 1514.2 Z" fill="#000000" fill-rule="nonzero" fill-opacity="1" /><path clip-path="url(#clip020)" d="M1116.97 1504.66 Q1115.06 1506.57 1115.98 1509.43 Q1116.9 1512.27 1120.68 1516.05 Q1124.45 1519.82 1127.3 1520.75 Q1130.15 1521.66 1132.06 1519.75 Q1133.99 1517.82 1133.07 1514.98 Q1132.15 1512.12 1128.38 1508.35 Q1124.6 1504.57 1121.75 1503.67 Q1118.9 1502.73 1116.97 1504.66 M1115.01 1502.7 Q1118.09 1499.61 1122.15 1500.44 Q1126.22 1501.23 1130.86 1505.87 Q1135.49 1510.5 1136.3 1514.58 Q1137.11 1518.63 1134.03 1521.71 Q1130.94 1524.79 1126.88 1523.99 Q1122.82 1523.17 1118.19 1518.54 Q1113.55 1513.9 1112.74 1509.85 Q1111.93 1505.78 1115.01 1502.7 Z" fill="#000000" fill-rule="nonzero" fill-opacity="1" /><path clip-path="url(#clip020)" d="M1132.97 1488.66 Q1131.06 1490.58 1131.98 1493.44 Q1132.9 1496.27 1136.68 1500.06 Q1140.45 1503.82 1143.29 1504.76 Q1146.14 1505.67 1148.06 1503.75 Q1149.98 1501.82 1149.06 1498.99 Q1148.14 1496.13 1144.37 1492.36 Q1140.59 1488.58 1137.75 1487.67 Q1134.9 1486.74 1132.97 1488.66 M1131.01 1486.7 Q1134.09 1483.62 1138.15 1484.44 Q1142.21 1485.24 1146.85 1489.88 Q1151.48 1494.51 1152.29 1498.58 Q1153.1 1502.63 1150.02 1505.72 Q1146.94 1508.8 1142.88 1508 Q1138.81 1507.18 1134.19 1502.55 Q1129.55 1497.91 1128.73 1493.86 Q1127.92 1489.78 1131.01 1486.7 Z" fill="#000000" fill-rule="nonzero" fill-opacity="1" /><polyline clip-path="url(#clip020)" style="stroke:#000000; stroke-linecap:round; stroke-linejoin:round; stroke-width:4; stroke-opacity:1; fill:none" points="161.818,1456.91 161.818,892.306 "/>
<polyline clip-path="url(#clip020)" style="stroke:#000000; stroke-linecap:round; stroke-linejoin:round; stroke-width:4; stroke-opacity:1; fill:none" points="161.818,1440.94 180.716,1440.94 "/>
<polyline clip-path="url(#clip020)" style="stroke:#000000; stroke-linecap:round; stroke-linejoin:round; stroke-width:4; stroke-opacity:1; fill:none" points="161.818,1321.52 180.716,1321.52 "/>
<polyline clip-path="url(#clip020)" style="stroke:#000000; stroke-linecap:round; stroke-linejoin:round; stroke-width:4; stroke-opacity:1; fill:none" points="161.818,1202.11 180.716,1202.11 "/>
<polyline clip-path="url(#clip020)" style="stroke:#000000; stroke-linecap:round; stroke-linejoin:round; stroke-width:4; stroke-opacity:1; fill:none" points="161.818,1082.69 180.716,1082.69 "/>
<polyline clip-path="url(#clip020)" style="stroke:#000000; stroke-linecap:round; stroke-linejoin:round; stroke-width:4; stroke-opacity:1; fill:none" points="161.818,963.278 180.716,963.278 "/>
<path clip-path="url(#clip020)" d="M60.315 1430.28 Q57.6067 1430.28 56.2352 1432.96 Q54.881 1435.61 54.881 1440.96 Q54.881 1446.29 56.2352 1448.96 Q57.6067 1451.62 60.315 1451.62 Q63.0407 1451.62 64.3948 1448.96 Q65.7664 1446.29 65.7664 1440.96 Q65.7664 1435.61 64.3948 1432.96 Q63.0407 1430.28 60.315 1430.28 M60.315 1427.51 Q64.6726 1427.51 66.9643 1430.96 Q69.2733 1434.4 69.2733 1440.96 Q69.2733 1447.51 66.9643 1450.96 Q64.6726 1454.4 60.315 1454.4 Q55.9574 1454.4 53.6484 1450.96 Q51.3567 1447.51 51.3567 1440.96 Q51.3567 1434.4 53.6484 1430.96 Q55.9574 1427.51 60.315 1427.51 Z" fill="#000000" fill-rule="nonzero" fill-opacity="1" /><path clip-path="url(#clip020)" d="M75.4364 1449.49 L79.0996 1449.49 L79.0996 1453.9 L75.4364 1453.9 L75.4364 1449.49 Z" fill="#000000" fill-rule="nonzero" fill-opacity="1" /><path clip-path="url(#clip020)" d="M94.2384 1430.28 Q91.5301 1430.28 90.1586 1432.96 Q88.8044 1435.61 88.8044 1440.96 Q88.8044 1446.29 90.1586 1448.96 Q91.5301 1451.62 94.2384 1451.62 Q96.9641 1451.62 98.3183 1448.96 Q99.6898 1446.29 99.6898 1440.96 Q99.6898 1435.61 98.3183 1432.96 Q96.9641 1430.28 94.2384 1430.28 M94.2384 1427.51 Q98.596 1427.51 100.888 1430.96 Q103.197 1434.4 103.197 1440.96 Q103.197 1447.51 100.888 1450.96 Q98.596 1454.4 94.2384 1454.4 Q89.8808 1454.4 87.5718 1450.96 Q85.2801 1447.51 85.2801 1440.96 Q85.2801 1434.4 87.5718 1430.96 Q89.8808 1427.51 94.2384 1427.51 Z" fill="#000000" fill-rule="nonzero" fill-opacity="1" /><path clip-path="url(#clip020)" d="M116.86 1430.28 Q114.152 1430.28 112.78 1432.96 Q111.426 1435.61 111.426 1440.96 Q111.426 1446.29 112.78 1448.96 Q114.152 1451.62 116.86 1451.62 Q119.586 1451.62 120.94 1448.96 Q122.311 1446.29 122.311 1440.96 Q122.311 1435.61 120.94 1432.96 Q119.586 1430.28 116.86 1430.28 M116.86 1427.51 Q121.217 1427.51 123.509 1430.96 Q125.818 1434.4 125.818 1440.96 Q125.818 1447.51 123.509 1450.96 Q121.217 1454.4 116.86 1454.4 Q112.502 1454.4 110.193 1450.96 Q107.902 1447.51 107.902 1440.96 Q107.902 1434.4 110.193 1430.96 Q112.502 1427.51 116.86 1427.51 Z" fill="#000000" fill-rule="nonzero" fill-opacity="1" /><path clip-path="url(#clip020)" d="M61.2351 1310.87 Q58.5268 1310.87 57.1553 1313.54 Q55.8011 1316.2 55.8011 1321.55 Q55.8011 1326.88 57.1553 1329.55 Q58.5268 1332.21 61.2351 1332.21 Q63.9608 1332.21 65.315 1329.55 Q66.6865 1326.88 66.6865 1321.55 Q66.6865 1316.2 65.315 1313.54 Q63.9608 1310.87 61.2351 1310.87 M61.2351 1308.09 Q65.5927 1308.09 67.8844 1311.55 Q70.1934 1314.98 70.1934 1321.55 Q70.1934 1328.09 67.8844 1331.55 Q65.5927 1334.98 61.2351 1334.98 Q56.8775 1334.98 54.5685 1331.55 Q52.2768 1328.09 52.2768 1321.55 Q52.2768 1314.98 54.5685 1311.55 Q56.8775 1308.09 61.2351 1308.09 Z" fill="#000000" fill-rule="nonzero" fill-opacity="1" /><path clip-path="url(#clip020)" d="M76.3566 1330.07 L80.0197 1330.07 L80.0197 1334.48 L76.3566 1334.48 L76.3566 1330.07 Z" fill="#000000" fill-rule="nonzero" fill-opacity="1" /><path clip-path="url(#clip020)" d="M95.1586 1310.87 Q92.4502 1310.87 91.0787 1313.54 Q89.7246 1316.2 89.7246 1321.55 Q89.7246 1326.88 91.0787 1329.55 Q92.4502 1332.21 95.1586 1332.21 Q97.8842 1332.21 99.2384 1329.55 Q100.61 1326.88 100.61 1321.55 Q100.61 1316.2 99.2384 1313.54 Q97.8842 1310.87 95.1586 1310.87 M95.1586 1308.09 Q99.5162 1308.09 101.808 1311.55 Q104.117 1314.98 104.117 1321.55 Q104.117 1328.09 101.808 1331.55 Q99.5162 1334.98 95.1586 1334.98 Q90.8009 1334.98 88.4919 1331.55 Q86.2003 1328.09 86.2003 1321.55 Q86.2003 1314.98 88.4919 1311.55 Q90.8009 1308.09 95.1586 1308.09 Z" fill="#000000" fill-rule="nonzero" fill-opacity="1" /><path clip-path="url(#clip020)" d="M110.888 1331.53 L116.617 1331.53 L116.617 1311.76 L110.384 1313.01 L110.384 1309.81 L116.582 1308.56 L120.089 1308.56 L120.089 1331.53 L125.818 1331.53 L125.818 1334.48 L110.888 1334.48 L110.888 1331.53 Z" fill="#000000" fill-rule="nonzero" fill-opacity="1" /><path clip-path="url(#clip020)" d="M61.5129 1191.46 Q58.8046 1191.46 57.4331 1194.13 Q56.0789 1196.79 56.0789 1202.13 Q56.0789 1207.46 57.4331 1210.14 Q58.8046 1212.79 61.5129 1212.79 Q64.2386 1212.79 65.5927 1210.14 Q66.9643 1207.46 66.9643 1202.13 Q66.9643 1196.79 65.5927 1194.13 Q64.2386 1191.46 61.5129 1191.46 M61.5129 1188.68 Q65.8705 1188.68 68.1622 1192.13 Q70.4712 1195.57 70.4712 1202.13 Q70.4712 1208.68 68.1622 1212.13 Q65.8705 1215.57 61.5129 1215.57 Q57.1553 1215.57 54.8463 1212.13 Q52.5546 1208.68 52.5546 1202.13 Q52.5546 1195.57 54.8463 1192.13 Q57.1553 1188.68 61.5129 1188.68 Z" fill="#000000" fill-rule="nonzero" fill-opacity="1" /><path clip-path="url(#clip020)" d="M76.6343 1210.66 L80.2975 1210.66 L80.2975 1215.07 L76.6343 1215.07 L76.6343 1210.66 Z" fill="#000000" fill-rule="nonzero" fill-opacity="1" /><path clip-path="url(#clip020)" d="M95.4363 1191.46 Q92.728 1191.46 91.3565 1194.13 Q90.0023 1196.79 90.0023 1202.13 Q90.0023 1207.46 91.3565 1210.14 Q92.728 1212.79 95.4363 1212.79 Q98.162 1212.79 99.5162 1210.14 Q100.888 1207.46 100.888 1202.13 Q100.888 1196.79 99.5162 1194.13 Q98.162 1191.46 95.4363 1191.46 M95.4363 1188.68 Q99.7939 1188.68 102.086 1192.13 Q104.395 1195.57 104.395 1202.13 Q104.395 1208.68 102.086 1212.13 Q99.7939 1215.57 95.4363 1215.57 Q91.0787 1215.57 88.7697 1212.13 Q86.478 1208.68 86.478 1202.13 Q86.478 1195.57 88.7697 1192.13 Q91.0787 1188.68 95.4363 1188.68 Z" fill="#000000" fill-rule="nonzero" fill-opacity="1" /><path clip-path="url(#clip020)" d="M113.579 1212.12 L125.818 1212.12 L125.818 1215.07 L109.36 1215.07 L109.36 1212.12 Q111.356 1210.05 114.794 1206.58 Q118.249 1203.09 119.134 1202.08 Q120.818 1200.19 121.478 1198.89 Q122.155 1197.57 122.155 1196.3 Q122.155 1194.23 120.697 1192.93 Q119.256 1191.63 116.929 1191.63 Q115.28 1191.63 113.44 1192.2 Q111.617 1192.78 109.533 1193.94 L109.533 1190.4 Q111.652 1189.55 113.492 1189.11 Q115.332 1188.68 116.86 1188.68 Q120.888 1188.68 123.283 1190.69 Q125.679 1192.71 125.679 1196.07 Q125.679 1197.67 125.072 1199.11 Q124.481 1200.54 122.901 1202.48 Q122.467 1202.98 120.141 1205.4 Q117.815 1207.79 113.579 1212.12 Z" fill="#000000" fill-rule="nonzero" fill-opacity="1" /><path clip-path="url(#clip020)" d="M60.8011 1072.04 Q58.0928 1072.04 56.7213 1074.71 Q55.3671 1077.37 55.3671 1082.72 Q55.3671 1088.05 56.7213 1090.72 Q58.0928 1093.38 60.8011 1093.38 Q63.5268 1093.38 64.8809 1090.72 Q66.2525 1088.05 66.2525 1082.72 Q66.2525 1077.37 64.8809 1074.71 Q63.5268 1072.04 60.8011 1072.04 M60.8011 1069.26 Q65.1587 1069.26 67.4504 1072.72 Q69.7594 1076.16 69.7594 1082.72 Q69.7594 1089.26 67.4504 1092.72 Q65.1587 1096.16 60.8011 1096.16 Q56.4435 1096.16 54.1345 1092.72 Q51.8428 1089.26 51.8428 1082.72 Q51.8428 1076.16 54.1345 1072.72 Q56.4435 1069.26 60.8011 1069.26 Z" fill="#000000" fill-rule="nonzero" fill-opacity="1" /><path clip-path="url(#clip020)" d="M75.9225 1091.24 L79.5857 1091.24 L79.5857 1095.65 L75.9225 1095.65 L75.9225 1091.24 Z" fill="#000000" fill-rule="nonzero" fill-opacity="1" /><path clip-path="url(#clip020)" d="M94.7245 1072.04 Q92.0162 1072.04 90.6447 1074.71 Q89.2905 1077.37 89.2905 1082.72 Q89.2905 1088.05 90.6447 1090.72 Q92.0162 1093.38 94.7245 1093.38 Q97.4502 1093.38 98.8044 1090.72 Q100.176 1088.05 100.176 1082.72 Q100.176 1077.37 98.8044 1074.71 Q97.4502 1072.04 94.7245 1072.04 M94.7245 1069.26 Q99.0821 1069.26 101.374 1072.72 Q103.683 1076.16 103.683 1082.72 Q103.683 1089.26 101.374 1092.72 Q99.0821 1096.16 94.7245 1096.16 Q90.3669 1096.16 88.0579 1092.72 Q85.7662 1089.26 85.7662 1082.72 Q85.7662 1076.16 88.0579 1072.72 Q90.3669 1069.26 94.7245 1069.26 Z" fill="#000000" fill-rule="nonzero" fill-opacity="1" /><path clip-path="url(#clip020)" d="M120.471 1081.68 Q122.988 1082.21 124.395 1083.92 Q125.818 1085.62 125.818 1088.12 Q125.818 1091.95 123.179 1094.06 Q120.54 1096.16 115.679 1096.16 Q114.047 1096.16 112.311 1095.83 Q110.593 1095.51 108.752 1094.87 L108.752 1091.49 Q110.211 1092.34 111.947 1092.77 Q113.683 1093.2 115.575 1093.2 Q118.874 1093.2 120.592 1091.9 Q122.329 1090.6 122.329 1088.12 Q122.329 1085.83 120.714 1084.54 Q119.117 1083.24 116.252 1083.24 L113.231 1083.24 L113.231 1080.36 L116.391 1080.36 Q118.978 1080.36 120.349 1079.33 Q121.721 1078.29 121.721 1076.35 Q121.721 1074.35 120.297 1073.29 Q118.891 1072.21 116.252 1072.21 Q114.811 1072.21 113.162 1072.53 Q111.513 1072.84 109.533 1073.5 L109.533 1070.37 Q111.53 1069.82 113.266 1069.54 Q115.02 1069.26 116.565 1069.26 Q120.558 1069.26 122.884 1071.09 Q125.21 1072.89 125.21 1075.98 Q125.21 1078.14 123.978 1079.63 Q122.745 1081.1 120.471 1081.68 Z" fill="#000000" fill-rule="nonzero" fill-opacity="1" /><path clip-path="url(#clip020)" d="M59.9504 952.627 Q57.2421 952.627 55.8706 955.301 Q54.5164 957.957 54.5164 963.304 Q54.5164 968.634 55.8706 971.307 Q57.2421 973.964 59.9504 973.964 Q62.6761 973.964 64.0303 971.307 Q65.4018 968.634 65.4018 963.304 Q65.4018 957.957 64.0303 955.301 Q62.6761 952.627 59.9504 952.627 M59.9504 949.849 Q64.308 949.849 66.5997 953.304 Q68.9087 956.742 68.9087 963.304 Q68.9087 969.849 66.5997 973.304 Q64.308 976.741 59.9504 976.741 Q55.5928 976.741 53.2838 973.304 Q50.9921 969.849 50.9921 963.304 Q50.9921 956.742 53.2838 953.304 Q55.5928 949.849 59.9504 949.849 Z" fill="#000000" fill-rule="nonzero" fill-opacity="1" /><path clip-path="url(#clip020)" d="M75.0719 971.828 L78.735 971.828 L78.735 976.238 L75.0719 976.238 L75.0719 971.828 Z" fill="#000000" fill-rule="nonzero" fill-opacity="1" /><path clip-path="url(#clip020)" d="M93.8738 952.627 Q91.1655 952.627 89.794 955.301 Q88.4398 957.957 88.4398 963.304 Q88.4398 968.634 89.794 971.307 Q91.1655 973.964 93.8738 973.964 Q96.5995 973.964 97.9537 971.307 Q99.3252 968.634 99.3252 963.304 Q99.3252 957.957 97.9537 955.301 Q96.5995 952.627 93.8738 952.627 M93.8738 949.849 Q98.2315 949.849 100.523 953.304 Q102.832 956.742 102.832 963.304 Q102.832 969.849 100.523 973.304 Q98.2315 976.741 93.8738 976.741 Q89.5162 976.741 87.2072 973.304 Q84.9156 969.849 84.9156 963.304 Q84.9156 956.742 87.2072 953.304 Q89.5162 949.849 93.8738 949.849 Z" fill="#000000" fill-rule="nonzero" fill-opacity="1" /><path clip-path="url(#clip020)" d="M118.631 953.374 L109.777 967.21 L118.631 967.21 L118.631 953.374 M117.711 950.318 L122.12 950.318 L122.12 967.21 L125.818 967.21 L125.818 970.127 L122.12 970.127 L122.12 976.238 L118.631 976.238 L118.631 970.127 L106.929 970.127 L106.929 966.742 L117.711 950.318 Z" fill="#000000" fill-rule="nonzero" fill-opacity="1" /><path clip-path="url(#clip020)" d="M173.716 813.68 Q170.198 813.68 168.3 816.226 Q166.309 818.888 166.309 823.286 Q166.309 827.939 168.276 830.624 Q170.267 833.286 173.716 833.286 Q177.119 833.286 179.11 830.601 Q181.1 827.916 181.1 823.286 Q181.1 819.05 179.11 816.226 Q177.281 813.68 173.716 813.68 M173.716 810.3 L187.86 810.3 L187.86 814.559 L183.091 814.559 Q185.614 818.171 185.614 823.286 Q185.614 829.652 182.443 833.263 Q179.272 836.897 173.716 836.897 Q168.138 836.897 164.989 833.263 Q161.818 829.652 161.818 823.286 Q161.818 816.874 164.989 813.286 Q167.605 810.3 173.716 810.3 Z" fill="#000000" fill-rule="nonzero" fill-opacity="1" /><path clip-path="url(#clip020)" d="M198.878 836.226 L190.961 810.3 L195.545 810.3 L202.235 832.059 Q205.012 829.189 207.327 825.208 Q209.086 822.221 209.179 819.629 Q209.225 818.402 208.67 816.087 Q208.022 813.333 205.568 810.3 L209.873 810.3 L209.873 810.3 Q211.471 812.36 212.535 815.231 Q213.508 817.87 213.508 819.675 Q213.508 824.212 210.36 828.263 Q206.262 833.541 203.415 836.226 L198.878 836.226 Z" fill="#000000" fill-rule="nonzero" fill-opacity="1" /><polyline clip-path="url(#clip024)" style="stroke:#009af9; stroke-linecap:round; stroke-linejoin:round; stroke-width:4; stroke-opacity:1; fill:none" points="189.869,959.02 248.307,1016.49 306.746,1074.74 365.185,1133.79 423.623,1193.64 482.062,1254.27 540.501,1315.7 598.939,1377.92 657.378,1440.93 715.817,1377.13 774.256,1312.53 832.694,1247.14 891.133,1180.95 949.572,1113.97 1008.01,1046.2 1066.45,977.641 1124.89,908.286 "/>
<circle clip-path="url(#clip024)" cx="657.378" cy="1440.93" r="10.8" fill="#ff0000" fill-rule="evenodd" fill-opacity="1" stroke="#000000" stroke-opacity="1" stroke-width="3.2"/>
</svg>
