<?xml version="1.0" encoding="utf-8"?>
<svg xmlns="http://www.w3.org/2000/svg" xmlns:xlink="http://www.w3.org/1999/xlink" width="600" height="400" viewBox="0 0 2400 1600">
<defs>
  <clipPath id="clip060">
    <rect x="0" y="0" width="2400" height="1600"/>
  </clipPath>
</defs>
<path clip-path="url(#clip060)" d="M0 1600 L2400 1600 L2400 0 L0 0  Z" fill="#ffffff" fill-rule="evenodd" fill-opacity="1"/>
<defs>
  <clipPath id="clip061">
    <rect x="1608" y="897" width="745" height="588"/>
  </clipPath>
</defs>
<path clip-path="url(#clip060)" d="M128.138 667.406 L1152.76 667.406 L1152.76 97.5521 L128.138 97.5521  Z" fill="#ffffff" fill-rule="evenodd" fill-opacity="1"/>
<defs>
  <clipPath id="clip062">
    <rect x="128" y="97" width="1026" height="571"/>
  </clipPath>
</defs>
<polyline clip-path="url(#clip062)" style="stroke:#000000; stroke-linecap:round; stroke-linejoin:round; stroke-width:2; stroke-opacity:0.1; fill:none" points="184.494,667.406 184.494,97.5521 "/>
<polyline clip-path="url(#clip062)" style="stroke:#000000; stroke-linecap:round; stroke-linejoin:round; stroke-width:2; stroke-opacity:0.1; fill:none" points="412.47,667.406 412.47,97.5521 "/>
<polyline clip-path="url(#clip062)" style="stroke:#000000; stroke-linecap:round; stroke-linejoin:round; stroke-width:2; stroke-opacity:0.1; fill:none" points="640.447,667.406 640.447,97.5521 "/>
<polyline clip-path="url(#clip062)" style="stroke:#000000; stroke-linecap:round; stroke-linejoin:round; stroke-width:2; stroke-opacity:0.1; fill:none" points="868.423,667.406 868.423,97.5521 "/>
<polyline clip-path="url(#clip062)" style="stroke:#000000; stroke-linecap:round; stroke-linejoin:round; stroke-width:2; stroke-opacity:0.1; fill:none" points="1096.4,667.406 1096.4,97.5521 "/>
<polyline clip-path="url(#clip062)" style="stroke:#000000; stroke-linecap:round; stroke-linejoin:round; stroke-width:2; stroke-opacity:0.1; fill:none" points="128.138,667.406 1152.76,667.406 "/>
<polyline clip-path="url(#clip062)" style="stroke:#000000; stroke-linecap:round; stroke-linejoin:round; stroke-width:2; stroke-opacity:0.1; fill:none" points="128.138,548.687 1152.76,548.687 "/>
<polyline clip-path="url(#clip062)" style="stroke:#000000; stroke-linecap:round; stroke-linejoin:round; stroke-width:2; stroke-opacity:0.1; fill:none" points="128.138,429.967 1152.76,429.967 "/>
<polyline clip-path="url(#clip062)" style="stroke:#000000; stroke-linecap:round; stroke-linejoin:round; stroke-width:2; stroke-opacity:0.1; fill:none" points="128.138,311.247 1152.76,311.247 "/>
<polyline clip-path="url(#clip062)" style="stroke:#000000; stroke-linecap:round; stroke-linejoin:round; stroke-width:2; stroke-opacity:0.1; fill:none" points="128.138,192.528 1152.76,192.528 "/>
<polyline clip-path="url(#clip060)" style="stroke:#000000; stroke-linecap:round; stroke-linejoin:round; stroke-width:4; stroke-opacity:1; fill:none" points="128.138,667.406 1152.76,667.406 "/>
<polyline clip-path="url(#clip060)" style="stroke:#000000; stroke-linecap:round; stroke-linejoin:round; stroke-width:4; stroke-opacity:1; fill:none" points="184.494,667.406 184.494,648.509 "/>
<polyline clip-path="url(#clip060)" style="stroke:#000000; stroke-linecap:round; stroke-linejoin:round; stroke-width:4; stroke-opacity:1; fill:none" points="412.47,667.406 412.47,648.509 "/>
<polyline clip-path="url(#clip060)" style="stroke:#000000; stroke-linecap:round; stroke-linejoin:round; stroke-width:4; stroke-opacity:1; fill:none" points="640.447,667.406 640.447,648.509 "/>
<polyline clip-path="url(#clip060)" style="stroke:#000000; stroke-linecap:round; stroke-linejoin:round; stroke-width:4; stroke-opacity:1; fill:none" points="868.423,667.406 868.423,648.509 "/>
<polyline clip-path="url(#clip060)" style="stroke:#000000; stroke-linecap:round; stroke-linejoin:round; stroke-width:4; stroke-opacity:1; fill:none" points="1096.4,667.406 1096.4,648.509 "/>
<path clip-path="url(#clip060)" d="M131.123 738.66 Q129.208 740.575 130.129 743.435 Q131.05 746.271 134.831 750.052 Q138.599 753.821 141.447 754.754 Q144.295 755.662 146.211 753.747 Q148.138 751.82 147.217 748.984 Q146.296 746.124 142.528 742.355 Q138.747 738.574 135.899 737.666 Q133.051 736.733 131.123 738.66 M129.159 736.696 Q132.24 733.615 136.304 734.437 Q140.367 735.235 145.008 739.875 Q149.636 744.503 150.446 748.579 Q151.256 752.63 148.175 755.712 Q145.093 758.793 141.03 757.995 Q136.967 757.172 132.339 752.544 Q127.698 747.904 126.888 743.853 Q126.078 739.777 129.159 736.696 Z" fill="#000000" fill-rule="nonzero" fill-opacity="1" /><path clip-path="url(#clip060)" d="M155.393 741.545 L157.983 738.955 L161.101 742.073 L158.511 744.663 L155.393 741.545 Z" fill="#000000" fill-rule="nonzero" fill-opacity="1" /><path clip-path="url(#clip060)" d="M163.102 722.664 Q161.335 724.432 161.261 726.396 Q161.2 728.348 162.857 730.005 Q164.514 731.663 166.466 731.601 Q168.43 731.528 170.198 729.76 Q171.966 727.992 172.039 726.028 Q172.101 724.052 170.456 722.407 Q168.799 720.749 166.834 720.823 Q164.883 720.884 163.102 722.664 M159.567 724.088 Q157.578 725.291 155.589 725.095 Q153.613 724.886 152.042 723.315 Q149.844 721.118 150.127 718.282 Q150.421 715.434 153.147 712.708 Q155.884 709.971 158.72 709.688 Q161.556 709.406 163.753 711.604 Q165.324 713.175 165.521 715.164 Q165.73 717.14 164.539 719.117 Q166.748 717.742 168.958 717.963 Q171.18 718.171 172.936 719.927 Q175.6 722.591 175.391 725.647 Q175.194 728.692 172.162 731.724 Q169.13 734.756 166.073 734.965 Q163.029 735.161 160.365 732.497 Q158.609 730.742 158.401 728.52 Q158.192 726.298 159.567 724.088 M154.742 721.081 Q156.166 722.505 157.848 722.419 Q159.542 722.321 161.151 720.712 Q162.746 719.117 162.845 717.422 Q162.955 715.716 161.531 714.292 Q160.107 712.868 158.401 712.978 Q156.707 713.077 155.111 714.673 Q153.503 716.281 153.404 717.975 Q153.318 719.657 154.742 721.081 Z" fill="#000000" fill-rule="nonzero" fill-opacity="1" /><path clip-path="url(#clip060)" d="M163.544 702.973 L175.329 691.188 L176.385 692.244 L187.004 716.17 L184.414 718.761 L174.433 696.258 L165.631 705.06 L163.544 702.973 Z" fill="#000000" fill-rule="nonzero" fill-opacity="1" /><path clip-path="url(#clip060)" d="M358.67 739.09 Q356.755 741.005 357.676 743.865 Q358.597 746.701 362.378 750.482 Q366.146 754.251 368.994 755.184 Q371.842 756.092 373.758 754.177 Q375.685 752.25 374.764 749.414 Q373.843 746.554 370.075 742.785 Q366.294 739.004 363.446 738.095 Q360.598 737.162 358.67 739.09 M356.706 737.126 Q359.787 734.044 363.851 734.867 Q367.914 735.665 372.554 740.305 Q377.183 744.933 377.993 749.009 Q378.803 753.06 375.722 756.141 Q372.64 759.223 368.577 758.425 Q364.514 757.602 359.886 752.974 Q355.245 748.334 354.435 744.283 Q353.625 740.207 356.706 737.126 Z" fill="#000000" fill-rule="nonzero" fill-opacity="1" /><path clip-path="url(#clip060)" d="M382.94 741.975 L385.53 739.384 L388.648 742.502 L386.058 745.093 L382.94 741.975 Z" fill="#000000" fill-rule="nonzero" fill-opacity="1" /><path clip-path="url(#clip060)" d="M390.649 723.094 Q388.882 724.862 388.808 726.826 Q388.747 728.778 390.404 730.435 Q392.061 732.092 394.013 732.031 Q395.977 731.957 397.745 730.19 Q399.513 728.422 399.586 726.458 Q399.648 724.481 398.003 722.836 Q396.346 721.179 394.381 721.253 Q392.429 721.314 390.649 723.094 M387.114 724.518 Q385.125 725.721 383.136 725.525 Q381.16 725.316 379.589 723.745 Q377.391 721.547 377.674 718.711 Q377.968 715.863 380.694 713.138 Q383.431 710.4 386.267 710.118 Q389.103 709.836 391.3 712.033 Q392.871 713.605 393.068 715.593 Q393.277 717.57 392.086 719.546 Q394.295 718.171 396.505 718.392 Q398.727 718.601 400.483 720.356 Q403.146 723.02 402.938 726.077 Q402.741 729.122 399.709 732.154 Q396.677 735.186 393.62 735.395 Q390.576 735.591 387.912 732.927 Q386.156 731.172 385.948 728.95 Q385.739 726.728 387.114 724.518 M382.289 721.51 Q383.713 722.934 385.395 722.848 Q387.089 722.75 388.698 721.142 Q390.293 719.546 390.392 717.852 Q390.502 716.146 389.078 714.722 Q387.654 713.298 385.948 713.408 Q384.254 713.506 382.658 715.102 Q381.05 716.71 380.951 718.405 Q380.865 720.086 382.289 721.51 Z" fill="#000000" fill-rule="nonzero" fill-opacity="1" /><path clip-path="url(#clip060)" d="M406.645 707.098 Q404.877 708.866 404.804 710.83 Q404.742 712.782 406.4 714.439 Q408.057 716.097 410.009 716.035 Q411.973 715.962 413.741 714.194 Q415.509 712.426 415.582 710.462 Q415.644 708.485 413.999 706.84 Q412.341 705.183 410.377 705.257 Q408.425 705.318 406.645 707.098 M403.11 708.522 Q401.121 709.725 399.132 709.529 Q397.156 709.32 395.584 707.749 Q393.387 705.551 393.669 702.716 Q393.964 699.868 396.689 697.142 Q399.427 694.405 402.263 694.122 Q405.098 693.84 407.296 696.037 Q408.867 697.609 409.064 699.598 Q409.272 701.574 408.081 703.55 Q410.291 702.176 412.501 702.396 Q414.723 702.605 416.478 704.361 Q419.142 707.025 418.934 710.081 Q418.737 713.126 415.705 716.158 Q412.673 719.19 409.616 719.399 Q406.572 719.595 403.908 716.931 Q402.152 715.176 401.943 712.954 Q401.735 710.732 403.11 708.522 M398.285 705.515 Q399.709 706.939 401.391 706.853 Q403.085 706.754 404.693 705.146 Q406.289 703.55 406.387 701.856 Q406.498 700.15 405.074 698.726 Q403.65 697.302 401.943 697.412 Q400.249 697.511 398.653 699.106 Q397.045 700.715 396.947 702.409 Q396.861 704.091 398.285 705.515 Z" fill="#000000" fill-rule="nonzero" fill-opacity="1" /><path clip-path="url(#clip060)" d="M586.696 739.041 Q584.781 740.956 585.702 743.816 Q586.622 746.652 590.403 750.433 Q594.172 754.202 597.02 755.135 Q599.868 756.043 601.783 754.128 Q603.711 752.201 602.79 749.365 Q601.869 746.504 598.1 742.736 Q594.319 738.955 591.471 738.046 Q588.623 737.113 586.696 739.041 M584.732 737.076 Q587.813 733.995 591.876 734.818 Q595.94 735.616 600.58 740.256 Q605.208 744.884 606.019 748.96 Q606.829 753.011 603.747 756.092 Q600.666 759.173 596.603 758.375 Q592.539 757.553 587.911 752.925 Q583.271 748.285 582.461 744.233 Q581.65 740.158 584.732 737.076 Z" fill="#000000" fill-rule="nonzero" fill-opacity="1" /><path clip-path="url(#clip060)" d="M610.966 741.926 L613.556 739.335 L616.674 742.453 L614.084 745.044 L610.966 741.926 Z" fill="#000000" fill-rule="nonzero" fill-opacity="1" /><path clip-path="url(#clip060)" d="M618.675 723.045 Q616.907 724.813 616.834 726.777 Q616.772 728.729 618.43 730.386 Q620.087 732.043 622.039 731.982 Q624.003 731.908 625.771 730.14 Q627.539 728.373 627.612 726.409 Q627.674 724.432 626.029 722.787 Q624.371 721.13 622.407 721.203 Q620.455 721.265 618.675 723.045 M615.14 724.469 Q613.151 725.672 611.162 725.476 Q609.186 725.267 607.614 723.696 Q605.417 721.498 605.699 718.662 Q605.994 715.814 608.719 713.089 Q611.457 710.351 614.293 710.069 Q617.128 709.787 619.326 711.984 Q620.897 713.555 621.094 715.544 Q621.302 717.521 620.111 719.497 Q622.321 718.122 624.531 718.343 Q626.753 718.552 628.508 720.307 Q631.172 722.971 630.964 726.028 Q630.767 729.072 627.735 732.105 Q624.703 735.137 621.646 735.346 Q618.602 735.542 615.938 732.878 Q614.182 731.123 613.973 728.901 Q613.765 726.679 615.14 724.469 M610.315 721.461 Q611.739 722.885 613.421 722.799 Q615.115 722.701 616.723 721.093 Q618.319 719.497 618.417 717.803 Q618.528 716.097 617.104 714.673 Q615.68 713.249 613.973 713.359 Q612.279 713.457 610.683 715.053 Q609.075 716.661 608.977 718.355 Q608.891 720.037 610.315 721.461 Z" fill="#000000" fill-rule="nonzero" fill-opacity="1" /><path clip-path="url(#clip060)" d="M637.764 720.602 L635.506 718.343 Q636.881 717.852 638.071 717.128 Q639.262 716.404 640.183 715.483 Q642.638 713.028 642.282 710.094 Q641.926 707.135 638.747 703.587 Q639.09 705.355 638.562 707.012 Q638.035 708.67 636.709 709.995 Q633.959 712.745 630.693 712.696 Q627.428 712.622 624.543 709.738 Q621.72 706.914 621.683 703.538 Q621.646 700.162 624.42 697.388 Q627.6 694.208 631.712 694.982 Q635.825 695.731 640.465 700.371 Q644.799 704.704 645.327 709.357 Q645.854 713.985 642.38 717.459 Q641.447 718.392 640.306 719.166 Q639.164 719.939 637.764 720.602 M634.929 707.896 Q636.598 706.227 636.426 704.115 Q636.267 701.991 634.278 700.003 Q632.302 698.026 630.178 697.867 Q628.054 697.682 626.385 699.352 Q624.715 701.022 624.887 703.158 Q625.059 705.269 627.035 707.246 Q629.024 709.234 631.135 709.406 Q633.259 709.566 634.929 707.896 Z" fill="#000000" fill-rule="nonzero" fill-opacity="1" /><path clip-path="url(#clip060)" d="M814.574 739.139 Q812.659 741.054 813.58 743.914 Q814.501 746.75 818.282 750.531 Q822.051 754.3 824.899 755.233 Q827.747 756.141 829.662 754.226 Q831.589 752.299 830.668 749.463 Q829.748 746.603 825.979 742.834 Q822.198 739.053 819.35 738.144 Q816.502 737.211 814.574 739.139 M812.61 737.175 Q815.691 734.093 819.755 734.916 Q823.818 735.714 828.459 740.354 Q833.087 744.982 833.897 749.058 Q834.707 753.109 831.626 756.19 Q828.545 759.272 824.481 758.474 Q820.418 757.651 815.79 753.023 Q811.149 748.383 810.339 744.332 Q809.529 740.256 812.61 737.175 Z" fill="#000000" fill-rule="nonzero" fill-opacity="1" /><path clip-path="url(#clip060)" d="M838.844 742.024 L841.434 739.433 L844.553 742.552 L841.962 745.142 L838.844 742.024 Z" fill="#000000" fill-rule="nonzero" fill-opacity="1" /><path clip-path="url(#clip060)" d="M849.647 736.696 L847.388 734.437 Q848.763 733.946 849.954 733.222 Q851.145 732.497 852.066 731.577 Q854.521 729.122 854.165 726.188 Q853.809 723.229 850.629 719.681 Q850.973 721.449 850.445 723.106 Q849.917 724.764 848.591 726.089 Q845.842 728.839 842.576 728.79 Q839.311 728.716 836.426 725.832 Q833.602 723.008 833.565 719.632 Q833.529 716.256 836.303 713.482 Q839.483 710.302 843.595 711.076 Q847.708 711.825 852.348 716.465 Q856.681 720.798 857.209 725.451 Q857.737 730.079 854.263 733.553 Q853.33 734.486 852.188 735.26 Q851.047 736.033 849.647 736.696 M846.811 723.99 Q848.481 722.321 848.309 720.209 Q848.149 718.085 846.161 716.097 Q844.184 714.12 842.061 713.961 Q839.937 713.776 838.267 715.446 Q836.598 717.116 836.77 719.252 Q836.941 721.363 838.918 723.339 Q840.907 725.328 843.018 725.5 Q845.142 725.66 846.811 723.99 Z" fill="#000000" fill-rule="nonzero" fill-opacity="1" /><path clip-path="url(#clip060)" d="M854.558 699.156 Q852.643 701.071 853.563 703.931 Q854.484 706.767 858.265 710.548 Q862.034 714.317 864.882 715.25 Q867.73 716.158 869.645 714.243 Q871.572 712.316 870.652 709.48 Q869.731 706.619 865.962 702.851 Q862.181 699.07 859.333 698.161 Q856.485 697.228 854.558 699.156 M852.593 697.191 Q855.675 694.11 859.738 694.933 Q863.802 695.731 868.442 700.371 Q873.07 704.999 873.88 709.075 Q874.69 713.126 871.609 716.207 Q868.528 719.288 864.464 718.49 Q860.401 717.668 855.773 713.04 Q851.133 708.399 850.322 704.348 Q849.512 700.273 852.593 697.191 Z" fill="#000000" fill-rule="nonzero" fill-opacity="1" /><path clip-path="url(#clip060)" d="M1043.2 738.488 Q1041.29 740.403 1042.21 743.264 Q1043.13 746.099 1046.91 749.88 Q1050.68 753.649 1053.53 754.582 Q1056.37 755.491 1058.29 753.576 Q1060.22 751.648 1059.3 748.812 Q1058.37 745.952 1054.61 742.183 Q1050.83 738.402 1047.98 737.494 Q1045.13 736.561 1043.2 738.488 M1041.24 736.524 Q1044.32 733.443 1048.38 734.265 Q1052.45 735.063 1057.09 739.704 Q1061.71 744.332 1062.52 748.407 Q1063.33 752.458 1060.25 755.54 Q1057.17 758.621 1053.11 757.823 Q1049.05 757.001 1044.42 752.372 Q1039.78 747.732 1038.97 743.681 Q1038.16 739.605 1041.24 736.524 Z" fill="#000000" fill-rule="nonzero" fill-opacity="1" /><path clip-path="url(#clip060)" d="M1067.47 741.373 L1070.06 738.783 L1073.18 741.901 L1070.59 744.491 L1067.47 741.373 Z" fill="#000000" fill-rule="nonzero" fill-opacity="1" /><path clip-path="url(#clip060)" d="M1078.27 736.045 L1076.02 733.786 Q1077.39 733.295 1078.58 732.571 Q1079.77 731.847 1080.69 730.926 Q1083.15 728.471 1082.79 725.537 Q1082.44 722.578 1079.26 719.031 Q1079.6 720.798 1079.07 722.456 Q1078.54 724.113 1077.22 725.439 Q1074.47 728.189 1071.2 728.139 Q1067.94 728.066 1065.05 725.181 Q1062.23 722.357 1062.19 718.981 Q1062.16 715.606 1064.93 712.831 Q1068.11 709.652 1072.22 710.425 Q1076.33 711.174 1080.98 715.814 Q1085.31 720.148 1085.84 724.8 Q1086.36 729.428 1082.89 732.903 Q1081.96 733.836 1080.82 734.609 Q1079.67 735.382 1078.27 736.045 M1075.44 723.339 Q1077.11 721.67 1076.94 719.558 Q1076.78 717.435 1074.79 715.446 Q1072.81 713.47 1070.69 713.31 Q1068.56 713.126 1066.89 714.795 Q1065.22 716.465 1065.4 718.601 Q1065.57 720.712 1067.55 722.689 Q1069.53 724.678 1071.65 724.849 Q1073.77 725.009 1075.44 723.339 Z" fill="#000000" fill-rule="nonzero" fill-opacity="1" /><path clip-path="url(#clip060)" d="M1092.92 717.987 L1096.97 713.936 L1082.99 699.954 L1079.47 705.245 L1077.21 702.986 L1080.71 697.719 L1083.18 695.24 L1099.43 711.481 L1103.48 707.43 L1105.56 709.517 L1095.01 720.074 L1092.92 717.987 Z" fill="#000000" fill-rule="nonzero" fill-opacity="1" /><polyline clip-path="url(#clip060)" style="stroke:#000000; stroke-linecap:round; stroke-linejoin:round; stroke-width:4; stroke-opacity:1; fill:none" points="128.138,667.406 128.138,97.5521 "/>
<polyline clip-path="url(#clip060)" style="stroke:#000000; stroke-linecap:round; stroke-linejoin:round; stroke-width:4; stroke-opacity:1; fill:none" points="128.138,667.406 147.035,667.406 "/>
<polyline clip-path="url(#clip060)" style="stroke:#000000; stroke-linecap:round; stroke-linejoin:round; stroke-width:4; stroke-opacity:1; fill:none" points="128.138,548.687 147.035,548.687 "/>
<polyline clip-path="url(#clip060)" style="stroke:#000000; stroke-linecap:round; stroke-linejoin:round; stroke-width:4; stroke-opacity:1; fill:none" points="128.138,429.967 147.035,429.967 "/>
<polyline clip-path="url(#clip060)" style="stroke:#000000; stroke-linecap:round; stroke-linejoin:round; stroke-width:4; stroke-opacity:1; fill:none" points="128.138,311.247 147.035,311.247 "/>
<polyline clip-path="url(#clip060)" style="stroke:#000000; stroke-linecap:round; stroke-linejoin:round; stroke-width:4; stroke-opacity:1; fill:none" points="128.138,192.528 147.035,192.528 "/>
<path clip-path="url(#clip060)" d="M83.1795 656.755 Q80.4711 656.755 79.0996 659.429 Q77.7455 662.085 77.7455 667.432 Q77.7455 672.762 79.0996 675.436 Q80.4711 678.092 83.1795 678.092 Q85.9051 678.092 87.2593 675.436 Q88.6308 672.762 88.6308 667.432 Q88.6308 662.085 87.2593 659.429 Q85.9051 656.755 83.1795 656.755 M83.1795 653.978 Q87.5371 653.978 89.8287 657.432 Q92.1377 660.87 92.1377 667.432 Q92.1377 673.978 89.8287 677.432 Q87.5371 680.87 83.1795 680.87 Q78.8218 680.87 76.5128 677.432 Q74.2212 673.978 74.2212 667.432 Q74.2212 660.87 76.5128 657.432 Q78.8218 653.978 83.1795 653.978 Z" fill="#000000" fill-rule="nonzero" fill-opacity="1" /><path clip-path="url(#clip060)" d="M53.6657 558.695 L59.3949 558.695 L59.3949 538.921 L53.1623 540.171 L53.1623 536.977 L59.3601 535.727 L62.8671 535.727 L62.8671 558.695 L68.5962 558.695 L68.5962 561.647 L53.6657 561.647 L53.6657 558.695 Z" fill="#000000" fill-rule="nonzero" fill-opacity="1" /><path clip-path="url(#clip060)" d="M83.1795 538.036 Q80.4711 538.036 79.0996 540.709 Q77.7455 543.366 77.7455 548.713 Q77.7455 554.043 79.0996 556.716 Q80.4711 559.372 83.1795 559.372 Q85.9051 559.372 87.2593 556.716 Q88.6308 554.043 88.6308 548.713 Q88.6308 543.366 87.2593 540.709 Q85.9051 538.036 83.1795 538.036 M83.1795 535.258 Q87.5371 535.258 89.8287 538.713 Q92.1377 542.15 92.1377 548.713 Q92.1377 555.258 89.8287 558.713 Q87.5371 562.15 83.1795 562.15 Q78.8218 562.15 76.5128 558.713 Q74.2212 555.258 74.2212 548.713 Q74.2212 542.15 76.5128 538.713 Q78.8218 535.258 83.1795 535.258 Z" fill="#000000" fill-rule="nonzero" fill-opacity="1" /><path clip-path="url(#clip060)" d="M56.0789 439.976 L68.3184 439.976 L68.3184 442.927 L51.8602 442.927 L51.8602 439.976 Q53.8567 437.91 57.2942 434.438 Q60.749 430.948 61.6344 429.941 Q63.3184 428.049 63.9782 426.747 Q64.6552 425.427 64.6552 424.16 Q64.6552 422.094 63.1969 420.792 Q61.756 419.49 59.4296 419.49 Q57.7803 419.49 55.94 420.063 Q54.1171 420.636 52.0338 421.799 L52.0338 418.257 Q54.1518 417.406 55.9921 416.972 Q57.8324 416.538 59.3601 416.538 Q63.3879 416.538 65.7837 418.552 Q68.1795 420.566 68.1795 423.934 Q68.1795 425.531 67.5719 426.972 Q66.9816 428.396 65.4018 430.34 Q64.9677 430.844 62.6414 433.257 Q60.315 435.653 56.0789 439.976 Z" fill="#000000" fill-rule="nonzero" fill-opacity="1" /><path clip-path="url(#clip060)" d="M83.1795 419.316 Q80.4711 419.316 79.0996 421.99 Q77.7455 424.646 77.7455 429.993 Q77.7455 435.323 79.0996 437.997 Q80.4711 440.653 83.1795 440.653 Q85.9051 440.653 87.2593 437.997 Q88.6308 435.323 88.6308 429.993 Q88.6308 424.646 87.2593 421.99 Q85.9051 419.316 83.1795 419.316 M83.1795 416.538 Q87.5371 416.538 89.8287 419.993 Q92.1377 423.431 92.1377 429.993 Q92.1377 436.538 89.8287 439.993 Q87.5371 443.431 83.1795 443.431 Q78.8218 443.431 76.5128 439.993 Q74.2212 436.538 74.2212 429.993 Q74.2212 423.431 76.5128 419.993 Q78.8218 416.538 83.1795 416.538 Z" fill="#000000" fill-rule="nonzero" fill-opacity="1" /><path clip-path="url(#clip060)" d="M63.683 310.232 Q66.2004 310.77 67.6066 312.471 Q69.0302 314.173 69.0302 316.673 Q69.0302 320.51 66.3913 322.61 Q63.7525 324.711 58.8914 324.711 Q57.2595 324.711 55.5234 324.381 Q53.8046 324.069 51.9643 323.426 L51.9643 320.041 Q53.4227 320.892 55.1588 321.326 Q56.8949 321.76 58.7872 321.76 Q62.0858 321.76 63.8046 320.457 Q65.5407 319.155 65.5407 316.673 Q65.5407 314.381 63.9261 313.096 Q62.3289 311.794 59.4643 311.794 L56.4435 311.794 L56.4435 308.912 L59.6032 308.912 Q62.19 308.912 63.5615 307.888 Q64.933 306.846 64.933 304.902 Q64.933 302.905 63.5094 301.846 Q62.1032 300.77 59.4643 300.77 Q58.0233 300.77 56.374 301.083 Q54.7247 301.395 52.7456 302.055 L52.7456 298.93 Q54.7421 298.374 56.4782 298.096 Q58.2317 297.819 59.7768 297.819 Q63.7698 297.819 66.0962 299.642 Q68.4226 301.447 68.4226 304.537 Q68.4226 306.69 67.19 308.183 Q65.9573 309.659 63.683 310.232 Z" fill="#000000" fill-rule="nonzero" fill-opacity="1" /><path clip-path="url(#clip060)" d="M83.1795 300.596 Q80.4711 300.596 79.0996 303.27 Q77.7455 305.926 77.7455 311.274 Q77.7455 316.603 79.0996 319.277 Q80.4711 321.933 83.1795 321.933 Q85.9051 321.933 87.2593 319.277 Q88.6308 316.603 88.6308 311.274 Q88.6308 305.926 87.2593 303.27 Q85.9051 300.596 83.1795 300.596 M83.1795 297.819 Q87.5371 297.819 89.8287 301.274 Q92.1377 304.711 92.1377 311.274 Q92.1377 317.819 89.8287 321.273 Q87.5371 324.711 83.1795 324.711 Q78.8218 324.711 76.5128 321.273 Q74.2212 317.819 74.2212 311.274 Q74.2212 304.711 76.5128 301.274 Q78.8218 297.819 83.1795 297.819 Z" fill="#000000" fill-rule="nonzero" fill-opacity="1" /><path clip-path="url(#clip060)" d="M62.6935 182.623 L53.8393 196.46 L62.6935 196.46 L62.6935 182.623 M61.7733 179.568 L66.183 179.568 L66.183 196.46 L69.8809 196.46 L69.8809 199.377 L66.183 199.377 L66.183 205.488 L62.6935 205.488 L62.6935 199.377 L50.9921 199.377 L50.9921 195.991 L61.7733 179.568 Z" fill="#000000" fill-rule="nonzero" fill-opacity="1" /><path clip-path="url(#clip060)" d="M83.1795 181.877 Q80.4711 181.877 79.0996 184.55 Q77.7455 187.207 77.7455 192.554 Q77.7455 197.884 79.0996 200.557 Q80.4711 203.214 83.1795 203.214 Q85.9051 203.214 87.2593 200.557 Q88.6308 197.884 88.6308 192.554 Q88.6308 187.207 87.2593 184.55 Q85.9051 181.877 83.1795 181.877 M83.1795 179.099 Q87.5371 179.099 89.8287 182.554 Q92.1377 185.991 92.1377 192.554 Q92.1377 199.099 89.8287 202.554 Q87.5371 205.991 83.1795 205.991 Q78.8218 205.991 76.5128 202.554 Q74.2212 199.099 74.2212 192.554 Q74.2212 185.991 76.5128 182.554 Q78.8218 179.099 83.1795 179.099 Z" fill="#000000" fill-rule="nonzero" fill-opacity="1" /><path clip-path="url(#clip060)" d="M130.221 20.1758 Q131.633 17.8147 135.128 15.7314 Q136.494 14.9212 140.707 14.9212 Q145.429 14.9212 148.369 18.6712 Q151.332 22.4212 151.332 28.5323 Q151.332 34.6433 148.369 38.3933 Q145.429 42.1433 140.707 42.1433 Q137.86 42.1433 135.8 41.0322 Q133.763 39.8979 132.42 37.5831 L132.42 51.3331 L128.138 51.3331 L128.138 28.7637 Q128.138 23.4165 130.221 20.1758 M146.911 28.5323 Q146.911 23.8332 144.966 21.1712 Q143.045 18.486 139.665 18.486 Q136.286 18.486 134.341 21.1712 Q132.42 23.8332 132.42 28.5323 Q132.42 33.2313 134.341 35.9165 Q136.286 38.5785 139.665 38.5785 Q143.045 38.5785 144.966 35.9165 Q146.911 33.2313 146.911 28.5323 Z" fill="#000000" fill-rule="nonzero" fill-opacity="1" /><path clip-path="url(#clip062)" d="M184.494 619.919 L184.494 667.406 L298.482 667.406 L298.482 619.919 L184.494 619.919 L184.494 619.919  Z" fill="#009af9" fill-rule="evenodd" fill-opacity="1"/>
<polyline clip-path="url(#clip062)" style="stroke:#000000; stroke-linecap:round; stroke-linejoin:round; stroke-width:4; stroke-opacity:1; fill:none" points="184.494,619.919 184.494,667.406 298.482,667.406 298.482,619.919 184.494,619.919 "/>
<path clip-path="url(#clip062)" d="M298.482 501.199 L298.482 667.406 L412.47 667.406 L412.47 501.199 L298.482 501.199 L298.482 501.199  Z" fill="#009af9" fill-rule="evenodd" fill-opacity="1"/>
<polyline clip-path="url(#clip062)" style="stroke:#000000; stroke-linecap:round; stroke-linejoin:round; stroke-width:4; stroke-opacity:1; fill:none" points="298.482,501.199 298.482,667.406 412.47,667.406 412.47,501.199 298.482,501.199 "/>
<path clip-path="url(#clip062)" d="M412.47 334.991 L412.47 667.406 L526.459 667.406 L526.459 334.991 L412.47 334.991 L412.47 334.991  Z" fill="#009af9" fill-rule="evenodd" fill-opacity="1"/>
<polyline clip-path="url(#clip062)" style="stroke:#000000; stroke-linecap:round; stroke-linejoin:round; stroke-width:4; stroke-opacity:1; fill:none" points="412.47,334.991 412.47,667.406 526.459,667.406 526.459,334.991 412.47,334.991 "/>
<path clip-path="url(#clip062)" d="M526.459 97.5521 L526.459 667.406 L640.447 667.406 L640.447 97.5521 L526.459 97.5521 L526.459 97.5521  Z" fill="#009af9" fill-rule="evenodd" fill-opacity="1"/>
<polyline clip-path="url(#clip062)" style="stroke:#000000; stroke-linecap:round; stroke-linejoin:round; stroke-width:4; stroke-opacity:1; fill:none" points="526.459,97.5521 526.459,667.406 640.447,667.406 640.447,97.5521 526.459,97.5521 "/>
<path clip-path="url(#clip062)" d="M640.447 168.784 L640.447 667.406 L754.435 667.406 L754.435 168.784 L640.447 168.784 L640.447 168.784  Z" fill="#009af9" fill-rule="evenodd" fill-opacity="1"/>
<polyline clip-path="url(#clip062)" style="stroke:#000000; stroke-linecap:round; stroke-linejoin:round; stroke-width:4; stroke-opacity:1; fill:none" points="640.447,168.784 640.447,667.406 754.435,667.406 754.435,168.784 640.447,168.784 "/>
<path clip-path="url(#clip062)" d="M754.435 168.784 L754.435 667.406 L868.423 667.406 L868.423 168.784 L754.435 168.784 L754.435 168.784  Z" fill="#009af9" fill-rule="evenodd" fill-opacity="1"/>
<polyline clip-path="url(#clip062)" style="stroke:#000000; stroke-linecap:round; stroke-linejoin:round; stroke-width:4; stroke-opacity:1; fill:none" points="754.435,168.784 754.435,667.406 868.423,667.406 868.423,168.784 754.435,168.784 "/>
<path clip-path="url(#clip062)" d="M868.423 536.815 L868.423 667.406 L982.412 667.406 L982.412 536.815 L868.423 536.815 L868.423 536.815  Z" fill="#009af9" fill-rule="evenodd" fill-opacity="1"/>
<polyline clip-path="url(#clip062)" style="stroke:#000000; stroke-linecap:round; stroke-linejoin:round; stroke-width:4; stroke-opacity:1; fill:none" points="868.423,536.815 868.423,667.406 982.412,667.406 982.412,536.815 868.423,536.815 "/>
<path clip-path="url(#clip062)" d="M982.412 584.303 L982.412 667.406 L1096.4 667.406 L1096.4 584.303 L982.412 584.303 L982.412 584.303  Z" fill="#009af9" fill-rule="evenodd" fill-opacity="1"/>
<polyline clip-path="url(#clip062)" style="stroke:#000000; stroke-linecap:round; stroke-linejoin:round; stroke-width:4; stroke-opacity:1; fill:none" points="982.412,584.303 982.412,667.406 1096.4,667.406 1096.4,584.303 982.412,584.303 "/>
<circle clip-path="url(#clip062)" style="fill:#009af9; stroke:none; fill-opacity:0" cx="241.488" cy="619.919" r="2"/>
<circle clip-path="url(#clip062)" style="fill:#009af9; stroke:none; fill-opacity:0" cx="355.476" cy="501.199" r="2"/>
<circle clip-path="url(#clip062)" style="fill:#009af9; stroke:none; fill-opacity:0" cx="469.464" cy="334.991" r="2"/>
<circle clip-path="url(#clip062)" style="fill:#009af9; stroke:none; fill-opacity:0" cx="583.453" cy="97.5521" r="2"/>
<circle clip-path="url(#clip062)" style="fill:#009af9; stroke:none; fill-opacity:0" cx="697.441" cy="168.784" r="2"/>
<circle clip-path="url(#clip062)" style="fill:#009af9; stroke:none; fill-opacity:0" cx="811.429" cy="168.784" r="2"/>
<circle clip-path="url(#clip062)" style="fill:#009af9; stroke:none; fill-opacity:0" cx="925.418" cy="536.815" r="2"/>
<circle clip-path="url(#clip062)" style="fill:#009af9; stroke:none; fill-opacity:0" cx="1039.41" cy="584.303" r="2"/>
<polyline clip-path="url(#clip062)" style="stroke:#ff0000; stroke-linecap:round; stroke-linejoin:round; stroke-width:8; stroke-opacity:1; fill:none" stroke-dasharray="32, 20" points="626.33,1237.26 626.33,-472.302 "/>
<polyline clip-path="url(#clip062)" style="stroke:#ff0000; stroke-linecap:round; stroke-linejoin:round; stroke-width:6; stroke-opacity:1; fill:none" stroke-dasharray="24, 12, 3, 12" points="240.483,1237.26 240.483,-472.302 "/>
<polyline clip-path="url(#clip062)" style="stroke:#ff0000; stroke-linecap:round; stroke-linejoin:round; stroke-width:6; stroke-opacity:1; fill:none" stroke-dasharray="24, 12, 3, 12" points="1018.22,1237.26 1018.22,-472.302 "/>
<path clip-path="url(#clip060)" d="M1328.14 667.406 L2352.76 667.406 L2352.76 97.5521 L1328.14 97.5521  Z" fill="#ffffff" fill-rule="evenodd" fill-opacity="1"/>
<defs>
  <clipPath id="clip063">
    <rect x="1328" y="97" width="1026" height="571"/>
  </clipPath>
</defs>
<polyline clip-path="url(#clip063)" style="stroke:#000000; stroke-linecap:round; stroke-linejoin:round; stroke-width:2; stroke-opacity:0.1; fill:none" points="1514.77,667.406 1514.77,97.5521 "/>
<polyline clip-path="url(#clip063)" style="stroke:#000000; stroke-linecap:round; stroke-linejoin:round; stroke-width:2; stroke-opacity:0.1; fill:none" points="1775.31,667.406 1775.31,97.5521 "/>
<polyline clip-path="url(#clip063)" style="stroke:#000000; stroke-linecap:round; stroke-linejoin:round; stroke-width:2; stroke-opacity:0.1; fill:none" points="2035.86,667.406 2035.86,97.5521 "/>
<polyline clip-path="url(#clip063)" style="stroke:#000000; stroke-linecap:round; stroke-linejoin:round; stroke-width:2; stroke-opacity:0.1; fill:none" points="2296.4,667.406 2296.4,97.5521 "/>
<polyline clip-path="url(#clip063)" style="stroke:#000000; stroke-linecap:round; stroke-linejoin:round; stroke-width:2; stroke-opacity:0.1; fill:none" points="1328.14,667.406 2352.76,667.406 "/>
<polyline clip-path="url(#clip063)" style="stroke:#000000; stroke-linecap:round; stroke-linejoin:round; stroke-width:2; stroke-opacity:0.1; fill:none" points="1328.14,585.999 2352.76,585.999 "/>
<polyline clip-path="url(#clip063)" style="stroke:#000000; stroke-linecap:round; stroke-linejoin:round; stroke-width:2; stroke-opacity:0.1; fill:none" points="1328.14,504.591 2352.76,504.591 "/>
<polyline clip-path="url(#clip063)" style="stroke:#000000; stroke-linecap:round; stroke-linejoin:round; stroke-width:2; stroke-opacity:0.1; fill:none" points="1328.14,423.183 2352.76,423.183 "/>
<polyline clip-path="url(#clip063)" style="stroke:#000000; stroke-linecap:round; stroke-linejoin:round; stroke-width:2; stroke-opacity:0.1; fill:none" points="1328.14,341.775 2352.76,341.775 "/>
<polyline clip-path="url(#clip063)" style="stroke:#000000; stroke-linecap:round; stroke-linejoin:round; stroke-width:2; stroke-opacity:0.1; fill:none" points="1328.14,260.368 2352.76,260.368 "/>
<polyline clip-path="url(#clip063)" style="stroke:#000000; stroke-linecap:round; stroke-linejoin:round; stroke-width:2; stroke-opacity:0.1; fill:none" points="1328.14,178.96 2352.76,178.96 "/>
<polyline clip-path="url(#clip063)" style="stroke:#000000; stroke-linecap:round; stroke-linejoin:round; stroke-width:2; stroke-opacity:0.1; fill:none" points="1328.14,97.5521 2352.76,97.5521 "/>
<polyline clip-path="url(#clip060)" style="stroke:#000000; stroke-linecap:round; stroke-linejoin:round; stroke-width:4; stroke-opacity:1; fill:none" points="1328.14,667.406 2352.76,667.406 "/>
<polyline clip-path="url(#clip060)" style="stroke:#000000; stroke-linecap:round; stroke-linejoin:round; stroke-width:4; stroke-opacity:1; fill:none" points="1514.77,667.406 1514.77,648.509 "/>
<polyline clip-path="url(#clip060)" style="stroke:#000000; stroke-linecap:round; stroke-linejoin:round; stroke-width:4; stroke-opacity:1; fill:none" points="1775.31,667.406 1775.31,648.509 "/>
<polyline clip-path="url(#clip060)" style="stroke:#000000; stroke-linecap:round; stroke-linejoin:round; stroke-width:4; stroke-opacity:1; fill:none" points="2035.86,667.406 2035.86,648.509 "/>
<polyline clip-path="url(#clip060)" style="stroke:#000000; stroke-linecap:round; stroke-linejoin:round; stroke-width:4; stroke-opacity:1; fill:none" points="2296.4,667.406 2296.4,648.509 "/>
<path clip-path="url(#clip060)" d="M1460.92 739.139 Q1459 741.054 1459.92 743.914 Q1460.84 746.75 1464.62 750.531 Q1468.39 754.3 1471.24 755.233 Q1474.09 756.141 1476 754.226 Q1477.93 752.299 1477.01 749.463 Q1476.09 746.603 1472.32 742.834 Q1468.54 739.053 1465.69 738.144 Q1462.84 737.211 1460.92 739.139 M1458.95 737.175 Q1462.03 734.093 1466.1 734.916 Q1470.16 735.714 1474.8 740.354 Q1479.43 744.982 1480.24 749.058 Q1481.05 753.109 1477.97 756.19 Q1474.89 759.272 1470.82 758.474 Q1466.76 757.651 1462.13 753.023 Q1457.49 748.383 1456.68 744.332 Q1455.87 740.256 1458.95 737.175 Z" fill="#000000" fill-rule="nonzero" fill-opacity="1" /><path clip-path="url(#clip060)" d="M1485.19 742.024 L1487.78 739.433 L1490.9 742.552 L1488.3 745.142 L1485.19 742.024 Z" fill="#000000" fill-rule="nonzero" fill-opacity="1" /><path clip-path="url(#clip060)" d="M1493.93 719.755 Q1496.09 718.355 1498.29 718.564 Q1500.49 718.761 1502.26 720.528 Q1504.98 723.241 1504.6 726.593 Q1504.21 729.944 1500.78 733.381 Q1499.62 734.535 1498.16 735.53 Q1496.73 736.524 1494.97 737.371 L1492.58 734.977 Q1494.21 734.548 1495.74 733.627 Q1497.28 732.706 1498.62 731.368 Q1500.95 729.036 1501.24 726.9 Q1501.55 724.751 1499.8 722.996 Q1498.17 721.375 1496.12 721.609 Q1494.07 721.817 1492.05 723.843 L1489.91 725.979 L1487.88 723.941 L1490.11 721.707 Q1491.94 719.878 1492.18 718.184 Q1492.42 716.477 1491.04 715.102 Q1489.63 713.69 1487.88 713.948 Q1486.12 714.182 1484.25 716.047 Q1483.23 717.066 1482.29 718.454 Q1481.34 719.841 1480.41 721.707 L1478.2 719.497 Q1479.22 717.692 1480.25 716.268 Q1481.3 714.832 1482.39 713.74 Q1485.21 710.916 1488.15 710.56 Q1491.07 710.192 1493.25 712.377 Q1494.77 713.899 1494.96 715.827 Q1495.13 717.742 1493.93 719.755 Z" fill="#000000" fill-rule="nonzero" fill-opacity="1" /><path clip-path="url(#clip060)" d="M1500.9 699.156 Q1498.99 701.071 1499.91 703.931 Q1500.83 706.767 1504.61 710.548 Q1508.38 714.317 1511.22 715.25 Q1514.07 716.158 1515.99 714.243 Q1517.91 712.316 1516.99 709.48 Q1516.07 706.619 1512.3 702.851 Q1508.52 699.07 1505.68 698.161 Q1502.83 697.228 1500.9 699.156 M1498.94 697.191 Q1502.02 694.11 1506.08 694.933 Q1510.14 695.731 1514.78 700.371 Q1519.41 704.999 1520.22 709.075 Q1521.03 713.126 1517.95 716.207 Q1514.87 719.288 1510.81 718.49 Q1506.74 717.668 1502.12 713.04 Q1497.48 708.399 1496.66 704.348 Q1495.85 700.273 1498.94 697.191 Z" fill="#000000" fill-rule="nonzero" fill-opacity="1" /><path clip-path="url(#clip060)" d="M1722.31 738.292 Q1720.39 740.207 1721.31 743.067 Q1722.23 745.903 1726.02 749.684 Q1729.78 753.453 1732.63 754.386 Q1735.48 755.294 1737.4 753.379 Q1739.32 751.452 1738.4 748.616 Q1737.48 745.756 1733.71 741.987 Q1729.93 738.206 1727.08 737.297 Q1724.24 736.364 1722.31 738.292 M1720.34 736.328 Q1723.43 733.246 1727.49 734.069 Q1731.55 734.867 1736.19 739.507 Q1740.82 744.135 1741.63 748.211 Q1742.44 752.262 1739.36 755.343 Q1736.28 758.425 1732.22 757.627 Q1728.15 756.804 1723.52 752.176 Q1718.88 747.536 1718.07 743.485 Q1717.26 739.409 1720.34 736.328 Z" fill="#000000" fill-rule="nonzero" fill-opacity="1" /><path clip-path="url(#clip060)" d="M1746.58 741.177 L1749.17 738.586 L1752.29 741.705 L1749.7 744.295 L1746.58 741.177 Z" fill="#000000" fill-rule="nonzero" fill-opacity="1" /><path clip-path="url(#clip060)" d="M1755.32 718.908 Q1757.48 717.508 1759.68 717.717 Q1761.89 717.913 1763.65 719.681 Q1766.37 722.394 1765.99 725.746 Q1765.61 729.097 1762.17 732.534 Q1761.02 733.688 1759.55 734.683 Q1758.12 735.677 1756.36 736.524 L1753.97 734.13 Q1755.6 733.701 1757.14 732.78 Q1758.67 731.859 1760.01 730.521 Q1762.34 728.189 1762.64 726.053 Q1762.94 723.904 1761.19 722.149 Q1759.57 720.528 1757.52 720.762 Q1755.47 720.97 1753.44 722.996 L1751.3 725.132 L1749.27 723.094 L1751.5 720.86 Q1753.33 719.031 1753.58 717.336 Q1753.81 715.63 1752.43 714.255 Q1751.02 712.843 1749.27 713.101 Q1747.51 713.334 1745.65 715.2 Q1744.63 716.219 1743.68 717.607 Q1742.74 718.994 1741.8 720.86 L1739.59 718.65 Q1740.61 716.845 1741.64 715.421 Q1742.69 713.985 1743.78 712.893 Q1746.6 710.069 1749.54 709.713 Q1752.46 709.345 1754.64 711.53 Q1756.17 713.052 1756.35 714.979 Q1756.52 716.895 1755.32 718.908 Z" fill="#000000" fill-rule="nonzero" fill-opacity="1" /><path clip-path="url(#clip060)" d="M1773.73 716.084 L1782.39 707.43 L1784.47 709.517 L1772.84 721.154 L1770.75 719.067 Q1770.7 716.195 1770.68 711.309 Q1770.65 706.398 1770.57 705.06 Q1770.42 702.532 1769.96 701.144 Q1769.51 699.733 1768.61 698.836 Q1767.15 697.376 1765.2 697.486 Q1763.26 697.584 1761.62 699.229 Q1760.45 700.395 1759.55 702.102 Q1758.67 703.796 1758.02 706.092 L1755.52 703.587 Q1756.41 701.488 1757.41 699.88 Q1758.4 698.272 1759.48 697.191 Q1762.33 694.343 1765.45 694.073 Q1768.56 693.803 1770.95 696.185 Q1772.08 697.314 1772.67 698.763 Q1773.25 700.187 1773.51 702.679 Q1773.56 703.342 1773.62 706.693 Q1773.67 710.032 1773.73 716.084 Z" fill="#000000" fill-rule="nonzero" fill-opacity="1" /><path clip-path="url(#clip060)" d="M1981.75 739.397 Q1979.83 741.312 1980.75 744.172 Q1981.67 747.008 1985.46 750.789 Q1989.22 754.558 1992.07 755.491 Q1994.92 756.399 1996.84 754.484 Q1998.76 752.557 1997.84 749.721 Q1996.92 746.86 1993.15 743.092 Q1989.37 739.311 1986.52 738.402 Q1983.68 737.469 1981.75 739.397 M1979.78 737.432 Q1982.87 734.351 1986.93 735.174 Q1990.99 735.972 1995.63 740.612 Q2000.26 745.24 2001.07 749.316 Q2001.88 753.367 1998.8 756.448 Q1995.72 759.529 1991.66 758.731 Q1987.59 757.909 1982.96 753.281 Q1978.32 748.641 1977.51 744.589 Q1976.7 740.514 1979.78 737.432 Z" fill="#000000" fill-rule="nonzero" fill-opacity="1" /><path clip-path="url(#clip060)" d="M2006.02 742.282 L2008.61 739.691 L2011.73 742.809 L2009.14 745.4 L2006.02 742.282 Z" fill="#000000" fill-rule="nonzero" fill-opacity="1" /><path clip-path="url(#clip060)" d="M2014.76 720.013 Q2016.92 718.613 2019.12 718.822 Q2021.33 719.018 2023.09 720.786 Q2025.81 723.499 2025.43 726.85 Q2025.05 730.202 2021.61 733.639 Q2020.46 734.793 2018.99 735.787 Q2017.56 736.782 2015.8 737.629 L2013.41 735.235 Q2015.04 734.805 2016.58 733.885 Q2018.11 732.964 2019.45 731.626 Q2021.78 729.293 2022.08 727.157 Q2022.38 725.009 2020.63 723.254 Q2019.01 721.633 2016.96 721.866 Q2014.91 722.075 2012.88 724.101 L2010.74 726.237 L2008.71 724.199 L2010.94 721.965 Q2012.77 720.135 2013.02 718.441 Q2013.25 716.735 2011.87 715.36 Q2010.46 713.948 2008.71 714.206 Q2006.95 714.439 2005.09 716.305 Q2004.07 717.324 2003.12 718.711 Q2002.18 720.099 2001.24 721.965 L1999.03 719.755 Q2000.05 717.95 2001.08 716.526 Q2002.13 715.09 2003.22 713.997 Q2006.04 711.174 2008.98 710.818 Q2011.9 710.45 2014.08 712.635 Q2015.61 714.157 2015.79 716.084 Q2015.96 717.999 2014.76 720.013 Z" fill="#000000" fill-rule="nonzero" fill-opacity="1" /><path clip-path="url(#clip060)" d="M2023.77 698.431 L2027.29 714.476 L2033.55 708.215 L2023.77 698.431 M2020.96 696.921 L2024.08 693.803 L2036.02 705.748 L2038.64 703.133 L2040.7 705.195 L2038.08 707.81 L2042.4 712.131 L2039.94 714.599 L2035.62 710.278 L2027.34 718.552 L2024.95 716.158 L2020.96 696.921 Z" fill="#000000" fill-rule="nonzero" fill-opacity="1" /><path clip-path="url(#clip060)" d="M2242.47 739.225 Q2240.55 741.14 2241.47 744 Q2242.39 746.836 2246.17 750.617 Q2249.94 754.386 2252.79 755.319 Q2255.64 756.227 2257.55 754.312 Q2259.48 752.385 2258.56 749.549 Q2257.64 746.689 2253.87 742.92 Q2250.09 739.139 2247.24 738.23 Q2244.39 737.297 2242.47 739.225 M2240.5 737.261 Q2243.58 734.179 2247.65 735.002 Q2251.71 735.8 2256.35 740.44 Q2260.98 745.068 2261.79 749.144 Q2262.6 753.195 2259.52 756.276 Q2256.44 759.358 2252.37 758.56 Q2248.31 757.737 2243.68 753.109 Q2239.04 748.469 2238.23 744.418 Q2237.42 740.342 2240.5 737.261 Z" fill="#000000" fill-rule="nonzero" fill-opacity="1" /><path clip-path="url(#clip060)" d="M2266.73 742.11 L2269.33 739.519 L2272.44 742.638 L2269.85 745.228 L2266.73 742.11 Z" fill="#000000" fill-rule="nonzero" fill-opacity="1" /><path clip-path="url(#clip060)" d="M2275.48 719.841 Q2277.64 718.441 2279.83 718.65 Q2282.04 718.846 2283.81 720.614 Q2286.52 723.327 2286.14 726.679 Q2285.76 730.03 2282.33 733.467 Q2281.17 734.621 2279.71 735.616 Q2278.27 736.61 2276.52 737.457 L2274.13 735.063 Q2275.76 734.634 2277.29 733.713 Q2278.83 732.792 2280.16 731.454 Q2282.5 729.122 2282.79 726.985 Q2283.1 724.837 2281.34 723.082 Q2279.72 721.461 2277.67 721.695 Q2275.62 721.903 2273.6 723.929 L2271.46 726.065 L2269.42 724.027 L2271.66 721.793 Q2273.49 719.964 2273.73 718.269 Q2273.97 716.563 2272.59 715.188 Q2271.18 713.776 2269.42 714.034 Q2267.67 714.267 2265.8 716.133 Q2264.78 717.152 2263.84 718.54 Q2262.89 719.927 2261.96 721.793 L2259.75 719.583 Q2260.77 717.778 2261.8 716.354 Q2262.84 714.918 2263.94 713.826 Q2266.76 711.002 2269.69 710.646 Q2272.62 710.278 2274.8 712.463 Q2276.32 713.985 2276.51 715.912 Q2276.68 717.828 2275.48 719.841 Z" fill="#000000" fill-rule="nonzero" fill-opacity="1" /><path clip-path="url(#clip060)" d="M2289.3 705.478 Q2287.63 707.147 2287.79 709.271 Q2287.96 711.383 2289.95 713.371 Q2291.93 715.348 2294.05 715.532 Q2296.17 715.691 2297.84 714.022 Q2299.51 712.352 2299.34 710.241 Q2299.17 708.105 2297.19 706.128 Q2295.2 704.14 2293.08 703.98 Q2290.97 703.808 2289.3 705.478 M2286.45 692.784 L2288.71 695.043 Q2287.33 695.534 2286.14 696.258 Q2284.96 696.97 2284.03 697.903 Q2281.58 700.359 2281.93 703.317 Q2282.3 706.263 2285.47 709.799 Q2285.12 708.007 2285.65 706.349 Q2286.17 704.68 2287.48 703.366 Q2290.24 700.604 2293.52 700.69 Q2296.8 700.751 2299.68 703.636 Q2302.51 706.46 2302.54 709.836 Q2302.58 713.212 2299.81 715.986 Q2296.63 719.166 2292.51 718.417 Q2288.39 717.656 2283.76 713.028 Q2279.42 708.682 2278.9 704.041 Q2278.37 699.389 2281.85 695.915 Q2282.78 694.982 2283.91 694.221 Q2285.05 693.447 2286.45 692.784 Z" fill="#000000" fill-rule="nonzero" fill-opacity="1" /><polyline clip-path="url(#clip060)" style="stroke:#000000; stroke-linecap:round; stroke-linejoin:round; stroke-width:4; stroke-opacity:1; fill:none" points="1328.14,667.406 1328.14,97.5521 "/>
<polyline clip-path="url(#clip060)" style="stroke:#000000; stroke-linecap:round; stroke-linejoin:round; stroke-width:4; stroke-opacity:1; fill:none" points="1328.14,667.406 1347.04,667.406 "/>
<polyline clip-path="url(#clip060)" style="stroke:#000000; stroke-linecap:round; stroke-linejoin:round; stroke-width:4; stroke-opacity:1; fill:none" points="1328.14,585.999 1347.04,585.999 "/>
<polyline clip-path="url(#clip060)" style="stroke:#000000; stroke-linecap:round; stroke-linejoin:round; stroke-width:4; stroke-opacity:1; fill:none" points="1328.14,504.591 1347.04,504.591 "/>
<polyline clip-path="url(#clip060)" style="stroke:#000000; stroke-linecap:round; stroke-linejoin:round; stroke-width:4; stroke-opacity:1; fill:none" points="1328.14,423.183 1347.04,423.183 "/>
<polyline clip-path="url(#clip060)" style="stroke:#000000; stroke-linecap:round; stroke-linejoin:round; stroke-width:4; stroke-opacity:1; fill:none" points="1328.14,341.775 1347.04,341.775 "/>
<polyline clip-path="url(#clip060)" style="stroke:#000000; stroke-linecap:round; stroke-linejoin:round; stroke-width:4; stroke-opacity:1; fill:none" points="1328.14,260.368 1347.04,260.368 "/>
<polyline clip-path="url(#clip060)" style="stroke:#000000; stroke-linecap:round; stroke-linejoin:round; stroke-width:4; stroke-opacity:1; fill:none" points="1328.14,178.96 1347.04,178.96 "/>
<polyline clip-path="url(#clip060)" style="stroke:#000000; stroke-linecap:round; stroke-linejoin:round; stroke-width:4; stroke-opacity:1; fill:none" points="1328.14,97.5521 1347.04,97.5521 "/>
<path clip-path="url(#clip060)" d="M1283.18 656.755 Q1280.47 656.755 1279.1 659.429 Q1277.75 662.085 1277.75 667.432 Q1277.75 672.762 1279.1 675.436 Q1280.47 678.092 1283.18 678.092 Q1285.91 678.092 1287.26 675.436 Q1288.63 672.762 1288.63 667.432 Q1288.63 662.085 1287.26 659.429 Q1285.91 656.755 1283.18 656.755 M1283.18 653.978 Q1287.54 653.978 1289.83 657.432 Q1292.14 660.87 1292.14 667.432 Q1292.14 673.978 1289.83 677.432 Q1287.54 680.87 1283.18 680.87 Q1278.82 680.87 1276.51 677.432 Q1274.22 673.978 1274.22 667.432 Q1274.22 660.87 1276.51 657.432 Q1278.82 653.978 1283.18 653.978 Z" fill="#000000" fill-rule="nonzero" fill-opacity="1" /><path clip-path="url(#clip060)" d="M1253.67 596.007 L1259.39 596.007 L1259.39 576.233 L1253.16 577.483 L1253.16 574.289 L1259.36 573.039 L1262.87 573.039 L1262.87 596.007 L1268.6 596.007 L1268.6 598.959 L1253.67 598.959 L1253.67 596.007 Z" fill="#000000" fill-rule="nonzero" fill-opacity="1" /><path clip-path="url(#clip060)" d="M1283.18 575.348 Q1280.47 575.348 1279.1 578.021 Q1277.75 580.677 1277.75 586.025 Q1277.75 591.354 1279.1 594.028 Q1280.47 596.684 1283.18 596.684 Q1285.91 596.684 1287.26 594.028 Q1288.63 591.354 1288.63 586.025 Q1288.63 580.677 1287.26 578.021 Q1285.91 575.348 1283.18 575.348 M1283.18 572.57 Q1287.54 572.57 1289.83 576.025 Q1292.14 579.462 1292.14 586.025 Q1292.14 592.57 1289.83 596.025 Q1287.54 599.462 1283.18 599.462 Q1278.82 599.462 1276.51 596.025 Q1274.22 592.57 1274.22 586.025 Q1274.22 579.462 1276.51 576.025 Q1278.82 572.57 1283.18 572.57 Z" fill="#000000" fill-rule="nonzero" fill-opacity="1" /><path clip-path="url(#clip060)" d="M1256.08 514.599 L1268.32 514.599 L1268.32 517.551 L1251.86 517.551 L1251.86 514.599 Q1253.86 512.534 1257.29 509.061 Q1260.75 505.572 1261.63 504.565 Q1263.32 502.672 1263.98 501.37 Q1264.66 500.051 1264.66 498.784 Q1264.66 496.718 1263.2 495.416 Q1261.76 494.113 1259.43 494.113 Q1257.78 494.113 1255.94 494.686 Q1254.12 495.259 1252.03 496.423 L1252.03 492.881 Q1254.15 492.03 1255.99 491.596 Q1257.83 491.162 1259.36 491.162 Q1263.39 491.162 1265.78 493.176 Q1268.18 495.19 1268.18 498.558 Q1268.18 500.155 1267.57 501.596 Q1266.98 503.02 1265.4 504.964 Q1264.97 505.468 1262.64 507.881 Q1260.31 510.277 1256.08 514.599 Z" fill="#000000" fill-rule="nonzero" fill-opacity="1" /><path clip-path="url(#clip060)" d="M1283.18 493.94 Q1280.47 493.94 1279.1 496.613 Q1277.75 499.27 1277.75 504.617 Q1277.75 509.947 1279.1 512.62 Q1280.47 515.277 1283.18 515.277 Q1285.91 515.277 1287.26 512.62 Q1288.63 509.947 1288.63 504.617 Q1288.63 499.27 1287.26 496.613 Q1285.91 493.94 1283.18 493.94 M1283.18 491.162 Q1287.54 491.162 1289.83 494.617 Q1292.14 498.054 1292.14 504.617 Q1292.14 511.162 1289.83 514.617 Q1287.54 518.054 1283.18 518.054 Q1278.82 518.054 1276.51 514.617 Q1274.22 511.162 1274.22 504.617 Q1274.22 498.054 1276.51 494.617 Q1278.82 491.162 1283.18 491.162 Z" fill="#000000" fill-rule="nonzero" fill-opacity="1" /><path clip-path="url(#clip060)" d="M1263.68 422.167 Q1266.2 422.706 1267.61 424.407 Q1269.03 426.108 1269.03 428.608 Q1269.03 432.445 1266.39 434.546 Q1263.75 436.647 1258.89 436.647 Q1257.26 436.647 1255.52 436.317 Q1253.8 436.004 1251.96 435.362 L1251.96 431.976 Q1253.42 432.827 1255.16 433.261 Q1256.89 433.695 1258.79 433.695 Q1262.09 433.695 1263.8 432.393 Q1265.54 431.091 1265.54 428.608 Q1265.54 426.317 1263.93 425.032 Q1262.33 423.73 1259.46 423.73 L1256.44 423.73 L1256.44 420.848 L1259.6 420.848 Q1262.19 420.848 1263.56 419.824 Q1264.93 418.782 1264.93 416.838 Q1264.93 414.841 1263.51 413.782 Q1262.1 412.706 1259.46 412.706 Q1258.02 412.706 1256.37 413.018 Q1254.72 413.331 1252.75 413.99 L1252.75 410.865 Q1254.74 410.31 1256.48 410.032 Q1258.23 409.754 1259.78 409.754 Q1263.77 409.754 1266.1 411.577 Q1268.42 413.383 1268.42 416.473 Q1268.42 418.626 1267.19 420.119 Q1265.96 421.595 1263.68 422.167 Z" fill="#000000" fill-rule="nonzero" fill-opacity="1" /><path clip-path="url(#clip060)" d="M1283.18 412.532 Q1280.47 412.532 1279.1 415.206 Q1277.75 417.862 1277.75 423.209 Q1277.75 428.539 1279.1 431.213 Q1280.47 433.869 1283.18 433.869 Q1285.91 433.869 1287.26 431.213 Q1288.63 428.539 1288.63 423.209 Q1288.63 417.862 1287.26 415.206 Q1285.91 412.532 1283.18 412.532 M1283.18 409.754 Q1287.54 409.754 1289.83 413.209 Q1292.14 416.647 1292.14 423.209 Q1292.14 429.754 1289.83 433.209 Q1287.54 436.647 1283.18 436.647 Q1278.82 436.647 1276.51 433.209 Q1274.22 429.754 1274.22 423.209 Q1274.22 416.647 1276.51 413.209 Q1278.82 409.754 1283.18 409.754 Z" fill="#000000" fill-rule="nonzero" fill-opacity="1" /><path clip-path="url(#clip060)" d="M1262.69 331.871 L1253.84 345.708 L1262.69 345.708 L1262.69 331.871 M1261.77 328.815 L1266.18 328.815 L1266.18 345.708 L1269.88 345.708 L1269.88 348.624 L1266.18 348.624 L1266.18 354.735 L1262.69 354.735 L1262.69 348.624 L1250.99 348.624 L1250.99 345.239 L1261.77 328.815 Z" fill="#000000" fill-rule="nonzero" fill-opacity="1" /><path clip-path="url(#clip060)" d="M1283.18 331.124 Q1280.47 331.124 1279.1 333.798 Q1277.75 336.454 1277.75 341.801 Q1277.75 347.131 1279.1 349.805 Q1280.47 352.461 1283.18 352.461 Q1285.91 352.461 1287.26 349.805 Q1288.63 347.131 1288.63 341.801 Q1288.63 336.454 1287.26 333.798 Q1285.91 331.124 1283.18 331.124 M1283.18 328.347 Q1287.54 328.347 1289.83 331.801 Q1292.14 335.239 1292.14 341.801 Q1292.14 348.347 1289.83 351.801 Q1287.54 355.239 1283.18 355.239 Q1278.82 355.239 1276.51 351.801 Q1274.22 348.347 1274.22 341.801 Q1274.22 335.239 1276.51 331.801 Q1278.82 328.347 1283.18 328.347 Z" fill="#000000" fill-rule="nonzero" fill-opacity="1" /><path clip-path="url(#clip060)" d="M1253.09 247.408 L1266.86 247.408 L1266.86 250.359 L1256.3 250.359 L1256.3 256.713 Q1257.07 256.453 1257.83 256.331 Q1258.6 256.192 1259.36 256.192 Q1263.7 256.192 1266.24 258.571 Q1268.77 260.949 1268.77 265.012 Q1268.77 269.196 1266.17 271.522 Q1263.56 273.831 1258.82 273.831 Q1257.19 273.831 1255.49 273.553 Q1253.8 273.276 1252 272.72 L1252 269.196 Q1253.56 270.046 1255.23 270.463 Q1256.89 270.88 1258.75 270.88 Q1261.76 270.88 1263.51 269.3 Q1265.26 267.72 1265.26 265.012 Q1265.26 262.303 1263.51 260.724 Q1261.76 259.144 1258.75 259.144 Q1257.35 259.144 1255.94 259.456 Q1254.55 259.769 1253.09 260.428 L1253.09 247.408 Z" fill="#000000" fill-rule="nonzero" fill-opacity="1" /><path clip-path="url(#clip060)" d="M1283.18 249.717 Q1280.47 249.717 1279.1 252.39 Q1277.75 255.046 1277.75 260.394 Q1277.75 265.723 1279.1 268.397 Q1280.47 271.053 1283.18 271.053 Q1285.91 271.053 1287.26 268.397 Q1288.63 265.723 1288.63 260.394 Q1288.63 255.046 1287.26 252.39 Q1285.91 249.717 1283.18 249.717 M1283.18 246.939 Q1287.54 246.939 1289.83 250.394 Q1292.14 253.831 1292.14 260.394 Q1292.14 266.939 1289.83 270.394 Q1287.54 273.831 1283.18 273.831 Q1278.82 273.831 1276.51 270.394 Q1274.22 266.939 1274.22 260.394 Q1274.22 253.831 1276.51 250.394 Q1278.82 246.939 1283.18 246.939 Z" fill="#000000" fill-rule="nonzero" fill-opacity="1" /><path clip-path="url(#clip060)" d="M1260.99 177.562 Q1258.63 177.562 1257.24 179.177 Q1255.87 180.791 1255.87 183.604 Q1255.87 186.399 1257.24 188.031 Q1258.63 189.646 1260.99 189.646 Q1263.35 189.646 1264.72 188.031 Q1266.11 186.399 1266.11 183.604 Q1266.11 180.791 1264.72 179.177 Q1263.35 177.562 1260.99 177.562 M1267.95 166.573 L1267.95 169.767 Q1266.63 169.142 1265.28 168.812 Q1263.94 168.482 1262.62 168.482 Q1259.15 168.482 1257.31 170.826 Q1255.49 173.17 1255.23 177.91 Q1256.25 176.399 1257.8 175.601 Q1259.34 174.785 1261.2 174.785 Q1265.11 174.785 1267.36 177.163 Q1269.64 179.524 1269.64 183.604 Q1269.64 187.597 1267.28 190.01 Q1264.92 192.423 1260.99 192.423 Q1256.5 192.423 1254.12 188.986 Q1251.74 185.531 1251.74 178.986 Q1251.74 172.84 1254.66 169.194 Q1257.57 165.531 1262.49 165.531 Q1263.8 165.531 1265.14 165.792 Q1266.5 166.052 1267.95 166.573 Z" fill="#000000" fill-rule="nonzero" fill-opacity="1" /><path clip-path="url(#clip060)" d="M1283.18 168.309 Q1280.47 168.309 1279.1 170.982 Q1277.75 173.639 1277.75 178.986 Q1277.75 184.316 1279.1 186.989 Q1280.47 189.646 1283.18 189.646 Q1285.91 189.646 1287.26 186.989 Q1288.63 184.316 1288.63 178.986 Q1288.63 173.639 1287.26 170.982 Q1285.91 168.309 1283.18 168.309 M1283.18 165.531 Q1287.54 165.531 1289.83 168.986 Q1292.14 172.423 1292.14 178.986 Q1292.14 185.531 1289.83 188.986 Q1287.54 192.423 1283.18 192.423 Q1278.82 192.423 1276.51 188.986 Q1274.22 185.531 1274.22 178.986 Q1274.22 172.423 1276.51 168.986 Q1278.82 165.531 1283.18 165.531 Z" fill="#000000" fill-rule="nonzero" fill-opacity="1" /><path clip-path="url(#clip060)" d="M1252.17 84.5921 L1268.84 84.5921 L1268.84 86.0852 L1259.43 110.512 L1255.77 110.512 L1264.62 87.5435 L1252.17 87.5435 L1252.17 84.5921 Z" fill="#000000" fill-rule="nonzero" fill-opacity="1" /><path clip-path="url(#clip060)" d="M1283.18 86.9011 Q1280.47 86.9011 1279.1 89.5747 Q1277.75 92.231 1277.75 97.5782 Q1277.75 102.908 1279.1 105.582 Q1280.47 108.238 1283.18 108.238 Q1285.91 108.238 1287.26 105.582 Q1288.63 102.908 1288.63 97.5782 Q1288.63 92.231 1287.26 89.5747 Q1285.91 86.9011 1283.18 86.9011 M1283.18 84.1234 Q1287.54 84.1234 1289.83 87.5782 Q1292.14 91.0157 1292.14 97.5782 Q1292.14 104.123 1289.83 107.578 Q1287.54 111.016 1283.18 111.016 Q1278.82 111.016 1276.51 107.578 Q1274.22 104.123 1274.22 97.5782 Q1274.22 91.0157 1276.51 87.5782 Q1278.82 84.1234 1283.18 84.1234 Z" fill="#000000" fill-rule="nonzero" fill-opacity="1" /><path clip-path="url(#clip060)" d="M1340.04 18.9258 Q1336.52 18.9258 1334.62 21.4721 Q1332.63 24.1341 1332.63 28.5323 Q1332.63 33.185 1334.6 35.8702 Q1336.59 38.5322 1340.04 38.5322 Q1343.44 38.5322 1345.43 35.847 Q1347.42 33.1619 1347.42 28.5323 Q1347.42 24.2962 1345.43 21.4721 Q1343.6 18.9258 1340.04 18.9258 M1340.04 15.5462 L1354.18 15.5462 L1354.18 19.8054 L1349.41 19.8054 Q1351.93 23.4165 1351.93 28.5323 Q1351.93 34.898 1348.76 38.5091 Q1345.59 42.1433 1340.04 42.1433 Q1334.46 42.1433 1331.31 38.5091 Q1328.14 34.898 1328.14 28.5323 Q1328.14 22.1203 1331.31 18.5323 Q1333.92 15.5462 1340.04 15.5462 Z" fill="#000000" fill-rule="nonzero" fill-opacity="1" /><path clip-path="url(#clip060)" d="M1378.35 19.6666 Q1377.49 19.3656 1376.63 19.1342 Q1374.34 18.5323 1371.89 18.5323 Q1367.65 18.5323 1365.29 20.824 Q1363.09 22.9536 1362.67 26.8656 L1378.35 26.8656 L1378.35 30.1989 L1362.67 30.1989 Q1363.09 34.1109 1365.29 36.2405 Q1367.65 38.5322 1371.89 38.5322 Q1374.85 38.5322 1376.63 37.9304 L1378.35 37.3517 L1378.35 41.2174 L1376.52 41.634 Q1374.11 42.1433 1371.63 42.1433 Q1365.43 42.1433 1361.82 38.5322 Q1358.18 34.9211 1358.18 28.5323 Q1358.18 22.1434 1361.82 18.5323 Q1365.43 14.9212 1371.63 14.9212 Q1373.97 14.9212 1376.52 15.4305 Q1377.44 15.6157 1378.35 15.8934 L1378.35 19.6666 Z" fill="#000000" fill-rule="nonzero" fill-opacity="1" /><path clip-path="url(#clip063)" d="M1384.49 634.843 L1384.49 667.406 L1514.77 667.406 L1514.77 634.843 L1384.49 634.843 L1384.49 634.843  Z" fill="#009af9" fill-rule="evenodd" fill-opacity="1"/>
<polyline clip-path="url(#clip063)" style="stroke:#000000; stroke-linecap:round; stroke-linejoin:round; stroke-width:4; stroke-opacity:1; fill:none" points="1384.49,634.843 1384.49,667.406 1514.77,667.406 1514.77,634.843 1384.49,634.843 "/>
<path clip-path="url(#clip063)" d="M1514.77 472.028 L1514.77 667.406 L1645.04 667.406 L1645.04 472.028 L1514.77 472.028 L1514.77 472.028  Z" fill="#009af9" fill-rule="evenodd" fill-opacity="1"/>
<polyline clip-path="url(#clip063)" style="stroke:#000000; stroke-linecap:round; stroke-linejoin:round; stroke-width:4; stroke-opacity:1; fill:none" points="1514.77,472.028 1514.77,667.406 1645.04,667.406 1645.04,472.028 1514.77,472.028 "/>
<path clip-path="url(#clip063)" d="M1645.04 349.916 L1645.04 667.406 L1775.31 667.406 L1775.31 349.916 L1645.04 349.916 L1645.04 349.916  Z" fill="#009af9" fill-rule="evenodd" fill-opacity="1"/>
<polyline clip-path="url(#clip063)" style="stroke:#000000; stroke-linecap:round; stroke-linejoin:round; stroke-width:4; stroke-opacity:1; fill:none" points="1645.04,349.916 1645.04,667.406 1775.31,667.406 1775.31,349.916 1645.04,349.916 "/>
<path clip-path="url(#clip063)" d="M1775.31 97.5521 L1775.31 667.406 L1905.58 667.406 L1905.58 97.5521 L1775.31 97.5521 L1775.31 97.5521  Z" fill="#009af9" fill-rule="evenodd" fill-opacity="1"/>
<polyline clip-path="url(#clip063)" style="stroke:#000000; stroke-linecap:round; stroke-linejoin:round; stroke-width:4; stroke-opacity:1; fill:none" points="1775.31,97.5521 1775.31,667.406 1905.58,667.406 1905.58,97.5521 1775.31,97.5521 "/>
<path clip-path="url(#clip063)" d="M1905.58 292.931 L1905.58 667.406 L2035.86 667.406 L2035.86 292.931 L1905.58 292.931 L1905.58 292.931  Z" fill="#009af9" fill-rule="evenodd" fill-opacity="1"/>
<polyline clip-path="url(#clip063)" style="stroke:#000000; stroke-linecap:round; stroke-linejoin:round; stroke-width:4; stroke-opacity:1; fill:none" points="1905.58,292.931 1905.58,667.406 2035.86,667.406 2035.86,292.931 1905.58,292.931 "/>
<path clip-path="url(#clip063)" d="M2035.86 569.717 L2035.86 667.406 L2166.13 667.406 L2166.13 569.717 L2035.86 569.717 L2035.86 569.717  Z" fill="#009af9" fill-rule="evenodd" fill-opacity="1"/>
<polyline clip-path="url(#clip063)" style="stroke:#000000; stroke-linecap:round; stroke-linejoin:round; stroke-width:4; stroke-opacity:1; fill:none" points="2035.86,569.717 2035.86,667.406 2166.13,667.406 2166.13,569.717 2035.86,569.717 "/>
<path clip-path="url(#clip063)" d="M2166.13 659.266 L2166.13 667.406 L2296.4 667.406 L2296.4 659.266 L2166.13 659.266 L2166.13 659.266  Z" fill="#009af9" fill-rule="evenodd" fill-opacity="1"/>
<polyline clip-path="url(#clip063)" style="stroke:#000000; stroke-linecap:round; stroke-linejoin:round; stroke-width:4; stroke-opacity:1; fill:none" points="2166.13,659.266 2166.13,667.406 2296.4,667.406 2296.4,659.266 2166.13,659.266 "/>
<circle clip-path="url(#clip063)" style="fill:#009af9; stroke:none; fill-opacity:0" cx="1449.63" cy="634.843" r="2"/>
<circle clip-path="url(#clip063)" style="fill:#009af9; stroke:none; fill-opacity:0" cx="1579.9" cy="472.028" r="2"/>
<circle clip-path="url(#clip063)" style="fill:#009af9; stroke:none; fill-opacity:0" cx="1710.17" cy="349.916" r="2"/>
<circle clip-path="url(#clip063)" style="fill:#009af9; stroke:none; fill-opacity:0" cx="1840.45" cy="97.5521" r="2"/>
<circle clip-path="url(#clip063)" style="fill:#009af9; stroke:none; fill-opacity:0" cx="1970.72" cy="292.931" r="2"/>
<circle clip-path="url(#clip063)" style="fill:#009af9; stroke:none; fill-opacity:0" cx="2100.99" cy="569.717" r="2"/>
<circle clip-path="url(#clip063)" style="fill:#009af9; stroke:none; fill-opacity:0" cx="2231.26" cy="659.266" r="2"/>
<polyline clip-path="url(#clip063)" style="stroke:#ff0000; stroke-linecap:round; stroke-linejoin:round; stroke-width:8; stroke-opacity:1; fill:none" stroke-dasharray="32, 20" points="1848.81,1237.26 1848.81,-472.302 "/>
<polyline clip-path="url(#clip063)" style="stroke:#ff0000; stroke-linecap:round; stroke-linejoin:round; stroke-width:6; stroke-opacity:1; fill:none" stroke-dasharray="24, 12, 3, 12" points="1538.9,1237.26 1538.9,-472.302 "/>
<polyline clip-path="url(#clip063)" style="stroke:#ff0000; stroke-linecap:round; stroke-linejoin:round; stroke-width:6; stroke-opacity:1; fill:none" stroke-dasharray="24, 12, 3, 12" points="2164.32,1237.26 2164.32,-472.302 "/>
<path clip-path="url(#clip060)" d="M128.138 1467.41 L1152.76 1467.41 L1152.76 897.552 L128.138 897.552  Z" fill="#ffffff" fill-rule="evenodd" fill-opacity="1"/>
<defs>
  <clipPath id="clip064">
    <rect x="128" y="897" width="1026" height="571"/>
  </clipPath>
</defs>
<polyline clip-path="url(#clip064)" style="stroke:#000000; stroke-linecap:round; stroke-linejoin:round; stroke-width:2; stroke-opacity:0.1; fill:none" points="314.766,1467.41 314.766,897.552 "/>
<polyline clip-path="url(#clip064)" style="stroke:#000000; stroke-linecap:round; stroke-linejoin:round; stroke-width:2; stroke-opacity:0.1; fill:none" points="575.311,1467.41 575.311,897.552 "/>
<polyline clip-path="url(#clip064)" style="stroke:#000000; stroke-linecap:round; stroke-linejoin:round; stroke-width:2; stroke-opacity:0.1; fill:none" points="835.855,1467.41 835.855,897.552 "/>
<polyline clip-path="url(#clip064)" style="stroke:#000000; stroke-linecap:round; stroke-linejoin:round; stroke-width:2; stroke-opacity:0.1; fill:none" points="1096.4,1467.41 1096.4,897.552 "/>
<polyline clip-path="url(#clip064)" style="stroke:#000000; stroke-linecap:round; stroke-linejoin:round; stroke-width:2; stroke-opacity:0.1; fill:none" points="128.138,1467.41 1152.76,1467.41 "/>
<polyline clip-path="url(#clip064)" style="stroke:#000000; stroke-linecap:round; stroke-linejoin:round; stroke-width:2; stroke-opacity:0.1; fill:none" points="128.138,1383.6 1152.76,1383.6 "/>
<polyline clip-path="url(#clip064)" style="stroke:#000000; stroke-linecap:round; stroke-linejoin:round; stroke-width:2; stroke-opacity:0.1; fill:none" points="128.138,1299.8 1152.76,1299.8 "/>
<polyline clip-path="url(#clip064)" style="stroke:#000000; stroke-linecap:round; stroke-linejoin:round; stroke-width:2; stroke-opacity:0.1; fill:none" points="128.138,1216 1152.76,1216 "/>
<polyline clip-path="url(#clip064)" style="stroke:#000000; stroke-linecap:round; stroke-linejoin:round; stroke-width:2; stroke-opacity:0.1; fill:none" points="128.138,1132.2 1152.76,1132.2 "/>
<polyline clip-path="url(#clip064)" style="stroke:#000000; stroke-linecap:round; stroke-linejoin:round; stroke-width:2; stroke-opacity:0.1; fill:none" points="128.138,1048.4 1152.76,1048.4 "/>
<polyline clip-path="url(#clip064)" style="stroke:#000000; stroke-linecap:round; stroke-linejoin:round; stroke-width:2; stroke-opacity:0.1; fill:none" points="128.138,964.594 1152.76,964.594 "/>
<polyline clip-path="url(#clip060)" style="stroke:#000000; stroke-linecap:round; stroke-linejoin:round; stroke-width:4; stroke-opacity:1; fill:none" points="128.138,1467.41 1152.76,1467.41 "/>
<polyline clip-path="url(#clip060)" style="stroke:#000000; stroke-linecap:round; stroke-linejoin:round; stroke-width:4; stroke-opacity:1; fill:none" points="314.766,1467.41 314.766,1448.51 "/>
<polyline clip-path="url(#clip060)" style="stroke:#000000; stroke-linecap:round; stroke-linejoin:round; stroke-width:4; stroke-opacity:1; fill:none" points="575.311,1467.41 575.311,1448.51 "/>
<polyline clip-path="url(#clip060)" style="stroke:#000000; stroke-linecap:round; stroke-linejoin:round; stroke-width:4; stroke-opacity:1; fill:none" points="835.855,1467.41 835.855,1448.51 "/>
<polyline clip-path="url(#clip060)" style="stroke:#000000; stroke-linecap:round; stroke-linejoin:round; stroke-width:4; stroke-opacity:1; fill:none" points="1096.4,1467.41 1096.4,1448.51 "/>
<path clip-path="url(#clip060)" d="M261.261 1538.8 Q259.345 1540.71 260.266 1543.57 Q261.187 1546.41 264.968 1550.19 Q268.737 1553.96 271.585 1554.89 Q274.433 1555.8 276.348 1553.88 Q278.275 1551.96 277.355 1549.12 Q276.434 1546.26 272.665 1542.49 Q268.884 1538.71 266.036 1537.8 Q263.188 1536.87 261.261 1538.8 M259.296 1536.83 Q262.378 1533.75 266.441 1534.57 Q270.504 1535.37 275.145 1540.01 Q279.773 1544.64 280.583 1548.71 Q281.393 1552.77 278.312 1555.85 Q275.231 1558.93 271.167 1558.13 Q267.104 1557.31 262.476 1552.68 Q257.836 1548.04 257.025 1543.99 Q256.215 1539.91 259.296 1536.83 Z" fill="#000000" fill-rule="nonzero" fill-opacity="1" /><path clip-path="url(#clip060)" d="M285.53 1541.68 L288.121 1539.09 L291.239 1542.21 L288.649 1544.8 L285.53 1541.68 Z" fill="#000000" fill-rule="nonzero" fill-opacity="1" /><path clip-path="url(#clip060)" d="M278.337 1518.45 L288.072 1508.72 L290.158 1510.81 L282.695 1518.27 L287.188 1522.76 Q287.544 1522.04 287.998 1521.41 Q288.44 1520.77 288.98 1520.23 Q292.049 1517.16 295.523 1517.05 Q298.997 1516.94 301.87 1519.82 Q304.828 1522.77 304.632 1526.26 Q304.423 1529.74 301.072 1533.09 Q299.918 1534.24 298.519 1535.25 Q297.131 1536.24 295.462 1537.13 L292.97 1534.63 Q294.676 1534.13 296.149 1533.25 Q297.622 1532.36 298.936 1531.05 Q301.06 1528.93 301.182 1526.57 Q301.305 1524.21 299.39 1522.3 Q297.475 1520.38 295.118 1520.5 Q292.761 1520.63 290.637 1522.75 Q289.643 1523.74 288.87 1524.96 Q288.108 1526.16 287.544 1527.66 L278.337 1518.45 Z" fill="#000000" fill-rule="nonzero" fill-opacity="1" /><path clip-path="url(#clip060)" d="M310.267 1503.42 Q312.427 1502.02 314.625 1502.22 Q316.834 1502.42 318.602 1504.19 Q321.315 1506.9 320.935 1510.25 Q320.554 1513.6 317.117 1517.04 Q315.963 1518.2 314.502 1519.19 Q313.066 1520.18 311.31 1521.03 L308.916 1518.64 Q310.549 1518.21 312.084 1517.29 Q313.618 1516.37 314.956 1515.03 Q317.289 1512.7 317.583 1510.56 Q317.89 1508.41 316.135 1506.66 Q314.514 1505.04 312.464 1505.27 Q310.414 1505.48 308.388 1507.5 L306.252 1509.64 L304.215 1507.6 L306.449 1505.37 Q308.278 1503.54 308.524 1501.84 Q308.757 1500.14 307.382 1498.76 Q305.97 1497.35 304.215 1497.61 Q302.459 1497.84 300.593 1499.71 Q299.574 1500.73 298.629 1502.11 Q297.684 1503.5 296.751 1505.37 L294.541 1503.16 Q295.56 1501.35 296.591 1499.93 Q297.635 1498.49 298.727 1497.4 Q301.551 1494.58 304.485 1494.22 Q307.406 1493.85 309.592 1496.04 Q311.114 1497.56 311.298 1499.49 Q311.47 1501.4 310.267 1503.42 Z" fill="#000000" fill-rule="nonzero" fill-opacity="1" /><path clip-path="url(#clip060)" d="M521.204 1539.4 Q519.289 1541.31 520.209 1544.17 Q521.13 1547.01 524.911 1550.79 Q528.68 1554.56 531.528 1555.49 Q534.376 1556.4 536.291 1554.48 Q538.218 1552.56 537.298 1549.72 Q536.377 1546.86 532.608 1543.09 Q528.827 1539.31 525.979 1538.4 Q523.131 1537.47 521.204 1539.4 M519.24 1537.43 Q522.321 1534.35 526.384 1535.17 Q530.448 1535.97 535.088 1540.61 Q539.716 1545.24 540.526 1549.32 Q541.337 1553.37 538.255 1556.45 Q535.174 1559.53 531.111 1558.73 Q527.047 1557.91 522.419 1553.28 Q517.779 1548.64 516.969 1544.59 Q516.158 1540.51 519.24 1537.43 Z" fill="#000000" fill-rule="nonzero" fill-opacity="1" /><path clip-path="url(#clip060)" d="M545.474 1542.28 L548.064 1539.69 L551.182 1542.81 L548.592 1545.4 L545.474 1542.28 Z" fill="#000000" fill-rule="nonzero" fill-opacity="1" /><path clip-path="url(#clip060)" d="M538.28 1519.06 L548.015 1509.32 L550.102 1511.41 L542.638 1518.87 L547.131 1523.36 Q547.487 1522.64 547.941 1522.01 Q548.383 1521.38 548.923 1520.84 Q551.992 1517.77 555.466 1517.66 Q558.94 1517.55 561.813 1520.42 Q564.772 1523.38 564.575 1526.86 Q564.367 1530.34 561.015 1533.69 Q559.861 1534.84 558.462 1535.85 Q557.075 1536.84 555.405 1537.73 L552.913 1535.24 Q554.619 1534.73 556.092 1533.85 Q557.566 1532.96 558.879 1531.65 Q561.003 1529.53 561.126 1527.17 Q561.248 1524.81 559.333 1522.9 Q557.418 1520.98 555.061 1521.11 Q552.704 1521.23 550.58 1523.35 Q549.586 1524.35 548.813 1525.56 Q548.052 1526.76 547.487 1528.26 L538.28 1519.06 Z" fill="#000000" fill-rule="nonzero" fill-opacity="1" /><path clip-path="url(#clip060)" d="M563.225 1498.43 L566.748 1514.48 L573.009 1508.22 L563.225 1498.43 M560.414 1496.92 L563.532 1493.8 L575.476 1505.75 L578.091 1503.13 L580.154 1505.2 L577.539 1507.81 L581.86 1512.13 L579.392 1514.6 L575.071 1510.28 L566.797 1518.55 L564.403 1516.16 L560.414 1496.92 Z" fill="#000000" fill-rule="nonzero" fill-opacity="1" /><path clip-path="url(#clip060)" d="M782.534 1538.61 Q780.619 1540.53 781.54 1543.39 Q782.46 1546.22 786.242 1550 Q790.01 1553.77 792.858 1554.7 Q795.706 1555.61 797.621 1553.7 Q799.549 1551.77 798.628 1548.94 Q797.707 1546.07 793.939 1542.31 Q790.158 1538.53 787.31 1537.62 Q784.461 1536.68 782.534 1538.61 M780.57 1536.65 Q783.651 1533.57 787.715 1534.39 Q791.778 1535.19 796.418 1539.83 Q801.046 1544.45 801.857 1548.53 Q802.667 1552.58 799.586 1555.66 Q796.504 1558.74 792.441 1557.95 Q788.378 1557.12 783.749 1552.5 Q779.109 1547.85 778.299 1543.8 Q777.489 1539.73 780.57 1536.65 Z" fill="#000000" fill-rule="nonzero" fill-opacity="1" /><path clip-path="url(#clip060)" d="M806.804 1541.5 L809.394 1538.91 L812.512 1542.02 L809.922 1544.61 L806.804 1541.5 Z" fill="#000000" fill-rule="nonzero" fill-opacity="1" /><path clip-path="url(#clip060)" d="M799.61 1518.27 L809.345 1508.53 L811.432 1510.62 L803.968 1518.09 L808.461 1522.58 Q808.817 1521.85 809.271 1521.23 Q809.713 1520.59 810.254 1520.05 Q813.323 1516.98 816.797 1516.87 Q820.271 1516.76 823.143 1519.63 Q826.102 1522.59 825.906 1526.08 Q825.697 1529.55 822.346 1532.9 Q821.192 1534.06 819.792 1535.06 Q818.405 1536.06 816.735 1536.94 L814.243 1534.45 Q815.95 1533.95 817.423 1533.06 Q818.896 1532.18 820.209 1530.86 Q822.333 1528.74 822.456 1526.38 Q822.579 1524.03 820.664 1522.11 Q818.749 1520.2 816.392 1520.32 Q814.035 1520.44 811.911 1522.57 Q810.916 1523.56 810.143 1524.78 Q809.382 1525.98 808.817 1527.48 L799.61 1518.27 Z" fill="#000000" fill-rule="nonzero" fill-opacity="1" /><path clip-path="url(#clip060)" d="M815.606 1502.27 L825.341 1492.54 L827.428 1494.63 L819.964 1502.09 L824.457 1506.58 Q824.813 1505.86 825.267 1505.23 Q825.709 1504.59 826.249 1504.05 Q829.318 1500.98 832.792 1500.87 Q836.267 1500.76 839.139 1503.64 Q842.098 1506.59 841.901 1510.08 Q841.693 1513.56 838.341 1516.91 Q837.187 1518.06 835.788 1519.07 Q834.401 1520.06 832.731 1520.95 L830.239 1518.45 Q831.945 1517.95 833.419 1517.07 Q834.892 1516.18 836.205 1514.87 Q838.329 1512.75 838.452 1510.39 Q838.575 1508.03 836.659 1506.12 Q834.744 1504.2 832.387 1504.32 Q830.03 1504.45 827.907 1506.57 Q826.912 1507.56 826.139 1508.78 Q825.378 1509.98 824.813 1511.48 L815.606 1502.27 Z" fill="#000000" fill-rule="nonzero" fill-opacity="1" /><path clip-path="url(#clip060)" d="M1042.47 1539.22 Q1040.55 1541.14 1041.47 1544 Q1042.39 1546.84 1046.17 1550.62 Q1049.94 1554.39 1052.79 1555.32 Q1055.64 1556.23 1057.55 1554.31 Q1059.48 1552.38 1058.56 1549.55 Q1057.64 1546.69 1053.87 1542.92 Q1050.09 1539.14 1047.24 1538.23 Q1044.39 1537.3 1042.47 1539.22 M1040.5 1537.26 Q1043.58 1534.18 1047.65 1535 Q1051.71 1535.8 1056.35 1540.44 Q1060.98 1545.07 1061.79 1549.14 Q1062.6 1553.19 1059.52 1556.28 Q1056.44 1559.36 1052.37 1558.56 Q1048.31 1557.74 1043.68 1553.11 Q1039.04 1548.47 1038.23 1544.42 Q1037.42 1540.34 1040.5 1537.26 Z" fill="#000000" fill-rule="nonzero" fill-opacity="1" /><path clip-path="url(#clip060)" d="M1066.73 1542.11 L1069.33 1539.52 L1072.44 1542.64 L1069.85 1545.23 L1066.73 1542.11 Z" fill="#000000" fill-rule="nonzero" fill-opacity="1" /><path clip-path="url(#clip060)" d="M1059.54 1518.88 L1069.28 1509.15 L1071.36 1511.24 L1063.9 1518.7 L1068.39 1523.19 Q1068.75 1522.47 1069.2 1521.84 Q1069.64 1521.2 1070.18 1520.66 Q1073.25 1517.59 1076.73 1517.48 Q1080.2 1517.37 1083.07 1520.25 Q1086.03 1523.2 1085.84 1526.69 Q1085.63 1530.17 1082.28 1533.52 Q1081.12 1534.67 1079.72 1535.68 Q1078.34 1536.67 1076.67 1537.56 L1074.17 1535.06 Q1075.88 1534.56 1077.35 1533.68 Q1078.83 1532.79 1080.14 1531.48 Q1082.26 1529.35 1082.39 1527 Q1082.51 1524.64 1080.59 1522.73 Q1078.68 1520.81 1076.32 1520.93 Q1073.97 1521.06 1071.84 1523.18 Q1070.85 1524.17 1070.07 1525.39 Q1069.31 1526.59 1068.75 1528.09 L1059.54 1518.88 Z" fill="#000000" fill-rule="nonzero" fill-opacity="1" /><path clip-path="url(#clip060)" d="M1089.3 1505.48 Q1087.63 1507.15 1087.79 1509.27 Q1087.96 1511.38 1089.95 1513.37 Q1091.93 1515.35 1094.05 1515.53 Q1096.17 1515.69 1097.84 1514.02 Q1099.51 1512.35 1099.34 1510.24 Q1099.17 1508.1 1097.19 1506.13 Q1095.2 1504.14 1093.08 1503.98 Q1090.97 1503.81 1089.3 1505.48 M1086.45 1492.78 L1088.71 1495.04 Q1087.33 1495.53 1086.14 1496.26 Q1084.96 1496.97 1084.03 1497.9 Q1081.58 1500.36 1081.93 1503.32 Q1082.3 1506.26 1085.47 1509.8 Q1085.12 1508.01 1085.65 1506.35 Q1086.17 1504.68 1087.48 1503.37 Q1090.24 1500.6 1093.52 1500.69 Q1096.8 1500.75 1099.68 1503.64 Q1102.51 1506.46 1102.54 1509.84 Q1102.58 1513.21 1099.81 1515.99 Q1096.63 1519.17 1092.51 1518.42 Q1088.39 1517.66 1083.76 1513.03 Q1079.42 1508.68 1078.9 1504.04 Q1078.37 1499.39 1081.85 1495.91 Q1082.78 1494.98 1083.91 1494.22 Q1085.05 1493.45 1086.45 1492.78 Z" fill="#000000" fill-rule="nonzero" fill-opacity="1" /><polyline clip-path="url(#clip060)" style="stroke:#000000; stroke-linecap:round; stroke-linejoin:round; stroke-width:4; stroke-opacity:1; fill:none" points="128.138,1467.41 128.138,897.552 "/>
<polyline clip-path="url(#clip060)" style="stroke:#000000; stroke-linecap:round; stroke-linejoin:round; stroke-width:4; stroke-opacity:1; fill:none" points="128.138,1467.41 147.035,1467.41 "/>
<polyline clip-path="url(#clip060)" style="stroke:#000000; stroke-linecap:round; stroke-linejoin:round; stroke-width:4; stroke-opacity:1; fill:none" points="128.138,1383.6 147.035,1383.6 "/>
<polyline clip-path="url(#clip060)" style="stroke:#000000; stroke-linecap:round; stroke-linejoin:round; stroke-width:4; stroke-opacity:1; fill:none" points="128.138,1299.8 147.035,1299.8 "/>
<polyline clip-path="url(#clip060)" style="stroke:#000000; stroke-linecap:round; stroke-linejoin:round; stroke-width:4; stroke-opacity:1; fill:none" points="128.138,1216 147.035,1216 "/>
<polyline clip-path="url(#clip060)" style="stroke:#000000; stroke-linecap:round; stroke-linejoin:round; stroke-width:4; stroke-opacity:1; fill:none" points="128.138,1132.2 147.035,1132.2 "/>
<polyline clip-path="url(#clip060)" style="stroke:#000000; stroke-linecap:round; stroke-linejoin:round; stroke-width:4; stroke-opacity:1; fill:none" points="128.138,1048.4 147.035,1048.4 "/>
<polyline clip-path="url(#clip060)" style="stroke:#000000; stroke-linecap:round; stroke-linejoin:round; stroke-width:4; stroke-opacity:1; fill:none" points="128.138,964.594 147.035,964.594 "/>
<path clip-path="url(#clip060)" d="M83.1795 1456.76 Q80.4711 1456.76 79.0996 1459.43 Q77.7455 1462.09 77.7455 1467.43 Q77.7455 1472.76 79.0996 1475.44 Q80.4711 1478.09 83.1795 1478.09 Q85.9051 1478.09 87.2593 1475.44 Q88.6308 1472.76 88.6308 1467.43 Q88.6308 1462.09 87.2593 1459.43 Q85.9051 1456.76 83.1795 1456.76 M83.1795 1453.98 Q87.5371 1453.98 89.8287 1457.43 Q92.1377 1460.87 92.1377 1467.43 Q92.1377 1473.98 89.8287 1477.43 Q87.5371 1480.87 83.1795 1480.87 Q78.8218 1480.87 76.5128 1477.43 Q74.2212 1473.98 74.2212 1467.43 Q74.2212 1460.87 76.5128 1457.43 Q78.8218 1453.98 83.1795 1453.98 Z" fill="#000000" fill-rule="nonzero" fill-opacity="1" /><path clip-path="url(#clip060)" d="M53.6657 1393.61 L59.3949 1393.61 L59.3949 1373.84 L53.1623 1375.09 L53.1623 1371.89 L59.3601 1370.64 L62.8671 1370.64 L62.8671 1393.61 L68.5962 1393.61 L68.5962 1396.56 L53.6657 1396.56 L53.6657 1393.61 Z" fill="#000000" fill-rule="nonzero" fill-opacity="1" /><path clip-path="url(#clip060)" d="M83.1795 1372.95 Q80.4711 1372.95 79.0996 1375.63 Q77.7455 1378.28 77.7455 1383.63 Q77.7455 1388.96 79.0996 1391.63 Q80.4711 1394.29 83.1795 1394.29 Q85.9051 1394.29 87.2593 1391.63 Q88.6308 1388.96 88.6308 1383.63 Q88.6308 1378.28 87.2593 1375.63 Q85.9051 1372.95 83.1795 1372.95 M83.1795 1370.18 Q87.5371 1370.18 89.8287 1373.63 Q92.1377 1377.07 92.1377 1383.63 Q92.1377 1390.18 89.8287 1393.63 Q87.5371 1397.07 83.1795 1397.07 Q78.8218 1397.07 76.5128 1393.63 Q74.2212 1390.18 74.2212 1383.63 Q74.2212 1377.07 76.5128 1373.63 Q78.8218 1370.18 83.1795 1370.18 Z" fill="#000000" fill-rule="nonzero" fill-opacity="1" /><path clip-path="url(#clip060)" d="M56.0789 1309.81 L68.3184 1309.81 L68.3184 1312.76 L51.8602 1312.76 L51.8602 1309.81 Q53.8567 1307.74 57.2942 1304.27 Q60.749 1300.78 61.6344 1299.78 Q63.3184 1297.88 63.9782 1296.58 Q64.6552 1295.26 64.6552 1293.99 Q64.6552 1291.93 63.1969 1290.63 Q61.756 1289.32 59.4296 1289.32 Q57.7803 1289.32 55.94 1289.9 Q54.1171 1290.47 52.0338 1291.63 L52.0338 1288.09 Q54.1518 1287.24 55.9921 1286.81 Q57.8324 1286.37 59.3601 1286.37 Q63.3879 1286.37 65.7837 1288.39 Q68.1795 1290.4 68.1795 1293.77 Q68.1795 1295.37 67.5719 1296.81 Q66.9816 1298.23 65.4018 1300.18 Q64.9677 1300.68 62.6414 1303.09 Q60.315 1305.49 56.0789 1309.81 Z" fill="#000000" fill-rule="nonzero" fill-opacity="1" /><path clip-path="url(#clip060)" d="M83.1795 1289.15 Q80.4711 1289.15 79.0996 1291.82 Q77.7455 1294.48 77.7455 1299.83 Q77.7455 1305.16 79.0996 1307.83 Q80.4711 1310.49 83.1795 1310.49 Q85.9051 1310.49 87.2593 1307.83 Q88.6308 1305.16 88.6308 1299.83 Q88.6308 1294.48 87.2593 1291.82 Q85.9051 1289.15 83.1795 1289.15 M83.1795 1286.37 Q87.5371 1286.37 89.8287 1289.83 Q92.1377 1293.27 92.1377 1299.83 Q92.1377 1306.37 89.8287 1309.83 Q87.5371 1313.27 83.1795 1313.27 Q78.8218 1313.27 76.5128 1309.83 Q74.2212 1306.37 74.2212 1299.83 Q74.2212 1293.27 76.5128 1289.83 Q78.8218 1286.37 83.1795 1286.37 Z" fill="#000000" fill-rule="nonzero" fill-opacity="1" /><path clip-path="url(#clip060)" d="M63.683 1214.98 Q66.2004 1215.52 67.6066 1217.22 Q69.0302 1218.93 69.0302 1221.43 Q69.0302 1225.26 66.3913 1227.36 Q63.7525 1229.46 58.8914 1229.46 Q57.2595 1229.46 55.5234 1229.13 Q53.8046 1228.82 51.9643 1228.18 L51.9643 1224.79 Q53.4227 1225.64 55.1588 1226.08 Q56.8949 1226.51 58.7872 1226.51 Q62.0858 1226.51 63.8046 1225.21 Q65.5407 1223.91 65.5407 1221.43 Q65.5407 1219.13 63.9261 1217.85 Q62.3289 1216.55 59.4643 1216.55 L56.4435 1216.55 L56.4435 1213.67 L59.6032 1213.67 Q62.19 1213.67 63.5615 1212.64 Q64.933 1211.6 64.933 1209.65 Q64.933 1207.66 63.5094 1206.6 Q62.1032 1205.52 59.4643 1205.52 Q58.0233 1205.52 56.374 1205.84 Q54.7247 1206.15 52.7456 1206.81 L52.7456 1203.68 Q54.7421 1203.13 56.4782 1202.85 Q58.2317 1202.57 59.7768 1202.57 Q63.7698 1202.57 66.0962 1204.39 Q68.4226 1206.2 68.4226 1209.29 Q68.4226 1211.44 67.19 1212.94 Q65.9573 1214.41 63.683 1214.98 Z" fill="#000000" fill-rule="nonzero" fill-opacity="1" /><path clip-path="url(#clip060)" d="M83.1795 1205.35 Q80.4711 1205.35 79.0996 1208.02 Q77.7455 1210.68 77.7455 1216.03 Q77.7455 1221.36 79.0996 1224.03 Q80.4711 1226.69 83.1795 1226.69 Q85.9051 1226.69 87.2593 1224.03 Q88.6308 1221.36 88.6308 1216.03 Q88.6308 1210.68 87.2593 1208.02 Q85.9051 1205.35 83.1795 1205.35 M83.1795 1202.57 Q87.5371 1202.57 89.8287 1206.03 Q92.1377 1209.46 92.1377 1216.03 Q92.1377 1222.57 89.8287 1226.03 Q87.5371 1229.46 83.1795 1229.46 Q78.8218 1229.46 76.5128 1226.03 Q74.2212 1222.57 74.2212 1216.03 Q74.2212 1209.46 76.5128 1206.03 Q78.8218 1202.57 83.1795 1202.57 Z" fill="#000000" fill-rule="nonzero" fill-opacity="1" /><path clip-path="url(#clip060)" d="M62.6935 1122.29 L53.8393 1136.13 L62.6935 1136.13 L62.6935 1122.29 M61.7733 1119.24 L66.183 1119.24 L66.183 1136.13 L69.8809 1136.13 L69.8809 1139.05 L66.183 1139.05 L66.183 1145.16 L62.6935 1145.16 L62.6935 1139.05 L50.9921 1139.05 L50.9921 1135.66 L61.7733 1119.24 Z" fill="#000000" fill-rule="nonzero" fill-opacity="1" /><path clip-path="url(#clip060)" d="M83.1795 1121.55 Q80.4711 1121.55 79.0996 1124.22 Q77.7455 1126.88 77.7455 1132.22 Q77.7455 1137.55 79.0996 1140.23 Q80.4711 1142.88 83.1795 1142.88 Q85.9051 1142.88 87.2593 1140.23 Q88.6308 1137.55 88.6308 1132.22 Q88.6308 1126.88 87.2593 1124.22 Q85.9051 1121.55 83.1795 1121.55 M83.1795 1118.77 Q87.5371 1118.77 89.8287 1122.22 Q92.1377 1125.66 92.1377 1132.22 Q92.1377 1138.77 89.8287 1142.22 Q87.5371 1145.66 83.1795 1145.66 Q78.8218 1145.66 76.5128 1142.22 Q74.2212 1138.77 74.2212 1132.22 Q74.2212 1125.66 76.5128 1122.22 Q78.8218 1118.77 83.1795 1118.77 Z" fill="#000000" fill-rule="nonzero" fill-opacity="1" /><path clip-path="url(#clip060)" d="M53.0928 1035.44 L66.8601 1035.44 L66.8601 1038.39 L56.3046 1038.39 L56.3046 1044.74 Q57.0685 1044.48 57.8324 1044.36 Q58.5963 1044.22 59.3601 1044.22 Q63.7004 1044.22 66.2351 1046.6 Q68.7698 1048.98 68.7698 1053.04 Q68.7698 1057.22 66.1657 1059.55 Q63.5615 1061.86 58.8219 1061.86 Q57.19 1061.86 55.4886 1061.58 Q53.8046 1061.3 51.9991 1060.75 L51.9991 1057.22 Q53.5616 1058.07 55.2282 1058.49 Q56.8949 1058.91 58.7525 1058.91 Q61.756 1058.91 63.5094 1057.33 Q65.2629 1055.75 65.2629 1053.04 Q65.2629 1050.33 63.5094 1048.75 Q61.756 1047.17 58.7525 1047.17 Q57.3463 1047.17 55.94 1047.48 Q54.5511 1047.8 53.0928 1048.46 L53.0928 1035.44 Z" fill="#000000" fill-rule="nonzero" fill-opacity="1" /><path clip-path="url(#clip060)" d="M83.1795 1037.74 Q80.4711 1037.74 79.0996 1040.42 Q77.7455 1043.07 77.7455 1048.42 Q77.7455 1053.75 79.0996 1056.43 Q80.4711 1059.08 83.1795 1059.08 Q85.9051 1059.08 87.2593 1056.43 Q88.6308 1053.75 88.6308 1048.42 Q88.6308 1043.07 87.2593 1040.42 Q85.9051 1037.74 83.1795 1037.74 M83.1795 1034.97 Q87.5371 1034.97 89.8287 1038.42 Q92.1377 1041.86 92.1377 1048.42 Q92.1377 1054.97 89.8287 1058.42 Q87.5371 1061.86 83.1795 1061.86 Q78.8218 1061.86 76.5128 1058.42 Q74.2212 1054.97 74.2212 1048.42 Q74.2212 1041.86 76.5128 1038.42 Q78.8218 1034.97 83.1795 1034.97 Z" fill="#000000" fill-rule="nonzero" fill-opacity="1" /><path clip-path="url(#clip060)" d="M60.9921 963.196 Q58.631 963.196 57.2421 964.811 Q55.8706 966.425 55.8706 969.238 Q55.8706 972.033 57.2421 973.665 Q58.631 975.28 60.9921 975.28 Q63.3532 975.28 64.7247 973.665 Q66.1136 972.033 66.1136 969.238 Q66.1136 966.425 64.7247 964.811 Q63.3532 963.196 60.9921 963.196 M67.9538 952.207 L67.9538 955.401 Q66.6344 954.776 65.2802 954.446 Q63.9434 954.116 62.624 954.116 Q59.1518 954.116 57.3115 956.46 Q55.4886 958.804 55.2282 963.543 Q56.2525 962.033 57.7976 961.234 Q59.3428 960.418 61.2004 960.418 Q65.1066 960.418 67.3636 962.797 Q69.6379 965.158 69.6379 969.238 Q69.6379 973.231 67.2768 975.644 Q64.9157 978.057 60.9921 978.057 Q56.4956 978.057 54.1171 974.62 Q51.7386 971.165 51.7386 964.62 Q51.7386 958.474 54.6553 954.828 Q57.572 951.165 62.4851 951.165 Q63.8046 951.165 65.1414 951.425 Q66.4955 951.686 67.9538 952.207 Z" fill="#000000" fill-rule="nonzero" fill-opacity="1" /><path clip-path="url(#clip060)" d="M83.1795 953.943 Q80.4711 953.943 79.0996 956.616 Q77.7455 959.273 77.7455 964.62 Q77.7455 969.95 79.0996 972.623 Q80.4711 975.28 83.1795 975.28 Q85.9051 975.28 87.2593 972.623 Q88.6308 969.95 88.6308 964.62 Q88.6308 959.273 87.2593 956.616 Q85.9051 953.943 83.1795 953.943 M83.1795 951.165 Q87.5371 951.165 89.8287 954.62 Q92.1377 958.057 92.1377 964.62 Q92.1377 971.165 89.8287 974.62 Q87.5371 978.057 83.1795 978.057 Q78.8218 978.057 76.5128 974.62 Q74.2212 971.165 74.2212 964.62 Q74.2212 958.057 76.5128 954.62 Q78.8218 951.165 83.1795 951.165 Z" fill="#000000" fill-rule="nonzero" fill-opacity="1" /><path clip-path="url(#clip060)" d="M140.036 818.926 Q136.517 818.926 134.619 821.472 Q132.628 824.134 132.628 828.532 Q132.628 833.185 134.596 835.87 Q136.587 838.532 140.036 838.532 Q143.439 838.532 145.429 835.847 Q147.42 833.162 147.42 828.532 Q147.42 824.296 145.429 821.472 Q143.601 818.926 140.036 818.926 M140.036 815.546 L154.179 815.546 L154.179 819.805 L149.411 819.805 Q151.934 823.417 151.934 828.532 Q151.934 834.898 148.763 838.509 Q145.591 842.143 140.036 842.143 Q134.457 842.143 131.309 838.509 Q128.138 834.898 128.138 828.532 Q128.138 822.12 131.309 818.532 Q133.925 815.546 140.036 815.546 Z" fill="#000000" fill-rule="nonzero" fill-opacity="1" /><path clip-path="url(#clip060)" d="M165.198 841.472 L157.281 815.546 L161.864 815.546 L168.554 837.305 Q171.332 834.435 173.647 830.454 Q175.406 827.467 175.499 824.875 Q175.545 823.648 174.989 821.333 Q174.341 818.579 171.888 815.546 L176.193 815.546 L176.193 815.546 Q177.79 817.606 178.855 820.477 Q179.827 823.116 179.827 824.921 Q179.827 829.458 176.679 833.509 Q172.582 838.787 169.735 841.472 L165.198 841.472 Z" fill="#000000" fill-rule="nonzero" fill-opacity="1" /><path clip-path="url(#clip064)" d="M184.494 1433.89 L184.494 1467.41 L314.766 1467.41 L314.766 1433.89 L184.494 1433.89 L184.494 1433.89  Z" fill="#009af9" fill-rule="evenodd" fill-opacity="1"/>
<polyline clip-path="url(#clip064)" style="stroke:#000000; stroke-linecap:round; stroke-linejoin:round; stroke-width:4; stroke-opacity:1; fill:none" points="184.494,1433.89 184.494,1467.41 314.766,1467.41 314.766,1433.89 184.494,1433.89 "/>
<path clip-path="url(#clip064)" d="M314.766 1383.6 L314.766 1467.41 L445.038 1467.41 L445.038 1383.6 L314.766 1383.6 L314.766 1383.6  Z" fill="#009af9" fill-rule="evenodd" fill-opacity="1"/>
<polyline clip-path="url(#clip064)" style="stroke:#000000; stroke-linecap:round; stroke-linejoin:round; stroke-width:4; stroke-opacity:1; fill:none" points="314.766,1383.6 314.766,1467.41 445.038,1467.41 445.038,1383.6 314.766,1383.6 "/>
<path clip-path="url(#clip064)" d="M445.038 1090.3 L445.038 1467.41 L575.311 1467.41 L575.311 1090.3 L445.038 1090.3 L445.038 1090.3  Z" fill="#009af9" fill-rule="evenodd" fill-opacity="1"/>
<polyline clip-path="url(#clip064)" style="stroke:#000000; stroke-linecap:round; stroke-linejoin:round; stroke-width:4; stroke-opacity:1; fill:none" points="445.038,1090.3 445.038,1467.41 575.311,1467.41 575.311,1090.3 445.038,1090.3 "/>
<path clip-path="url(#clip064)" d="M575.311 897.552 L575.311 1467.41 L705.583 1467.41 L705.583 897.552 L575.311 897.552 L575.311 897.552  Z" fill="#009af9" fill-rule="evenodd" fill-opacity="1"/>
<polyline clip-path="url(#clip064)" style="stroke:#000000; stroke-linecap:round; stroke-linejoin:round; stroke-width:4; stroke-opacity:1; fill:none" points="575.311,897.552 575.311,1467.41 705.583,1467.41 705.583,897.552 575.311,897.552 "/>
<path clip-path="url(#clip064)" d="M705.583 1081.92 L705.583 1467.41 L835.855 1467.41 L835.855 1081.92 L705.583 1081.92 L705.583 1081.92  Z" fill="#009af9" fill-rule="evenodd" fill-opacity="1"/>
<polyline clip-path="url(#clip064)" style="stroke:#000000; stroke-linecap:round; stroke-linejoin:round; stroke-width:4; stroke-opacity:1; fill:none" points="705.583,1081.92 705.583,1467.41 835.855,1467.41 835.855,1081.92 705.583,1081.92 "/>
<path clip-path="url(#clip064)" d="M835.855 1299.8 L835.855 1467.41 L966.128 1467.41 L966.128 1299.8 L835.855 1299.8 L835.855 1299.8  Z" fill="#009af9" fill-rule="evenodd" fill-opacity="1"/>
<polyline clip-path="url(#clip064)" style="stroke:#000000; stroke-linecap:round; stroke-linejoin:round; stroke-width:4; stroke-opacity:1; fill:none" points="835.855,1299.8 835.855,1467.41 966.128,1467.41 966.128,1299.8 835.855,1299.8 "/>
<path clip-path="url(#clip064)" d="M966.128 1442.27 L966.128 1467.41 L1096.4 1467.41 L1096.4 1442.27 L966.128 1442.27 L966.128 1442.27  Z" fill="#009af9" fill-rule="evenodd" fill-opacity="1"/>
<polyline clip-path="url(#clip064)" style="stroke:#000000; stroke-linecap:round; stroke-linejoin:round; stroke-width:4; stroke-opacity:1; fill:none" points="966.128,1442.27 966.128,1467.41 1096.4,1467.41 1096.4,1442.27 966.128,1442.27 "/>
<circle clip-path="url(#clip064)" style="fill:#009af9; stroke:none; fill-opacity:0" cx="249.63" cy="1433.89" r="2"/>
<circle clip-path="url(#clip064)" style="fill:#009af9; stroke:none; fill-opacity:0" cx="379.902" cy="1383.6" r="2"/>
<circle clip-path="url(#clip064)" style="fill:#009af9; stroke:none; fill-opacity:0" cx="510.174" cy="1090.3" r="2"/>
<circle clip-path="url(#clip064)" style="fill:#009af9; stroke:none; fill-opacity:0" cx="640.447" cy="897.552" r="2"/>
<circle clip-path="url(#clip064)" style="fill:#009af9; stroke:none; fill-opacity:0" cx="770.719" cy="1081.92" r="2"/>
<circle clip-path="url(#clip064)" style="fill:#009af9; stroke:none; fill-opacity:0" cx="900.992" cy="1299.8" r="2"/>
<circle clip-path="url(#clip064)" style="fill:#009af9; stroke:none; fill-opacity:0" cx="1031.26" cy="1442.27" r="2"/>
<polyline clip-path="url(#clip064)" style="stroke:#ff0000; stroke-linecap:round; stroke-linejoin:round; stroke-width:8; stroke-opacity:1; fill:none" stroke-dasharray="32, 20" points="637.731,2037.26 637.731,327.698 "/>
<polyline clip-path="url(#clip064)" style="stroke:#ff0000; stroke-linecap:round; stroke-linejoin:round; stroke-width:6; stroke-opacity:1; fill:none" stroke-dasharray="24, 12, 3, 12" points="276.482,2037.26 276.482,327.698 "/>
<polyline clip-path="url(#clip064)" style="stroke:#ff0000; stroke-linecap:round; stroke-linejoin:round; stroke-width:6; stroke-opacity:1; fill:none" stroke-dasharray="24, 12, 3, 12" points="928.594,2037.26 928.594,327.698 "/>
</svg>
