<?xml version="1.0" encoding="utf-8"?>
<svg xmlns="http://www.w3.org/2000/svg" xmlns:xlink="http://www.w3.org/1999/xlink" width="600" height="400" viewBox="0 0 2400 1600">
<defs>
  <clipPath id="clip970">
    <rect x="0" y="0" width="2400" height="1600"/>
  </clipPath>
</defs>
<path clip-path="url(#clip970)" d="M0 1600 L2400 1600 L2400 0 L0 0  Z" fill="#ffffff" fill-rule="evenodd" fill-opacity="1"/>
<defs>
  <clipPath id="clip971">
    <rect x="162" y="0" width="2195" height="1600"/>
  </clipPath>
</defs>
<path clip-path="url(#clip970)" d="M161.818 667.406 L1152.94 667.406 L1152.94 97.5521 L161.818 97.5521  Z" fill="#ffffff" fill-rule="evenodd" fill-opacity="1"/>
<defs>
  <clipPath id="clip972">
    <rect x="161" y="97" width="992" height="571"/>
  </clipPath>
</defs>
<polyline clip-path="url(#clip972)" style="stroke:#000000; stroke-linecap:round; stroke-linejoin:round; stroke-width:2; stroke-opacity:0.1; fill:none" points="187.542,667.406 187.542,97.5521 "/>
<polyline clip-path="url(#clip972)" style="stroke:#000000; stroke-linecap:round; stroke-linejoin:round; stroke-width:2; stroke-opacity:0.1; fill:none" points="450.37,667.406 450.37,97.5521 "/>
<polyline clip-path="url(#clip972)" style="stroke:#000000; stroke-linecap:round; stroke-linejoin:round; stroke-width:2; stroke-opacity:0.1; fill:none" points="713.199,667.406 713.199,97.5521 "/>
<polyline clip-path="url(#clip972)" style="stroke:#000000; stroke-linecap:round; stroke-linejoin:round; stroke-width:2; stroke-opacity:0.1; fill:none" points="976.027,667.406 976.027,97.5521 "/>
<polyline clip-path="url(#clip972)" style="stroke:#000000; stroke-linecap:round; stroke-linejoin:round; stroke-width:2; stroke-opacity:0.1; fill:none" points="161.818,651.278 1152.94,651.278 "/>
<polyline clip-path="url(#clip972)" style="stroke:#000000; stroke-linecap:round; stroke-linejoin:round; stroke-width:2; stroke-opacity:0.1; fill:none" points="161.818,519.516 1152.94,519.516 "/>
<polyline clip-path="url(#clip972)" style="stroke:#000000; stroke-linecap:round; stroke-linejoin:round; stroke-width:2; stroke-opacity:0.1; fill:none" points="161.818,387.753 1152.94,387.753 "/>
<polyline clip-path="url(#clip972)" style="stroke:#000000; stroke-linecap:round; stroke-linejoin:round; stroke-width:2; stroke-opacity:0.1; fill:none" points="161.818,255.991 1152.94,255.991 "/>
<polyline clip-path="url(#clip972)" style="stroke:#000000; stroke-linecap:round; stroke-linejoin:round; stroke-width:2; stroke-opacity:0.1; fill:none" points="161.818,124.228 1152.94,124.228 "/>
<polyline clip-path="url(#clip970)" style="stroke:#000000; stroke-linecap:round; stroke-linejoin:round; stroke-width:4; stroke-opacity:1; fill:none" points="161.818,667.406 1152.94,667.406 "/>
<polyline clip-path="url(#clip970)" style="stroke:#000000; stroke-linecap:round; stroke-linejoin:round; stroke-width:4; stroke-opacity:1; fill:none" points="187.542,667.406 187.542,648.509 "/>
<polyline clip-path="url(#clip970)" style="stroke:#000000; stroke-linecap:round; stroke-linejoin:round; stroke-width:4; stroke-opacity:1; fill:none" points="450.37,667.406 450.37,648.509 "/>
<polyline clip-path="url(#clip970)" style="stroke:#000000; stroke-linecap:round; stroke-linejoin:round; stroke-width:4; stroke-opacity:1; fill:none" points="713.199,667.406 713.199,648.509 "/>
<polyline clip-path="url(#clip970)" style="stroke:#000000; stroke-linecap:round; stroke-linejoin:round; stroke-width:4; stroke-opacity:1; fill:none" points="976.027,667.406 976.027,648.509 "/>
<path clip-path="url(#clip970)" d="M133.692 739.139 Q131.777 741.054 132.698 743.914 Q133.619 746.75 137.4 750.531 Q141.169 754.3 144.017 755.233 Q146.865 756.141 148.78 754.226 Q150.707 752.299 149.786 749.463 Q148.866 746.603 145.097 742.834 Q141.316 739.053 138.468 738.144 Q135.62 737.211 133.692 739.139 M131.728 737.175 Q134.81 734.093 138.873 734.916 Q142.936 735.714 147.577 740.354 Q152.205 744.982 153.015 749.058 Q153.825 753.109 150.744 756.19 Q147.663 759.272 143.599 758.474 Q139.536 757.651 134.908 753.023 Q130.267 748.383 129.457 744.332 Q128.647 740.256 131.728 737.175 Z" fill="#000000" fill-rule="nonzero" fill-opacity="1" /><path clip-path="url(#clip970)" d="M157.962 742.024 L160.553 739.433 L163.671 742.552 L161.08 745.142 L157.962 742.024 Z" fill="#000000" fill-rule="nonzero" fill-opacity="1" /><path clip-path="url(#clip970)" d="M165.672 723.143 Q163.904 724.911 163.83 726.875 Q163.769 728.827 165.426 730.484 Q167.083 732.141 169.035 732.08 Q171 732.006 172.767 730.239 Q174.535 728.471 174.609 726.507 Q174.67 724.53 173.025 722.885 Q171.368 721.228 169.404 721.302 Q167.452 721.363 165.672 723.143 M162.136 724.567 Q160.147 725.77 158.159 725.574 Q156.182 725.365 154.611 723.794 Q152.414 721.596 152.696 718.761 Q152.99 715.912 155.716 713.187 Q158.453 710.45 161.289 710.167 Q164.125 709.885 166.322 712.082 Q167.894 713.654 168.09 715.642 Q168.299 717.619 167.108 719.595 Q169.318 718.22 171.527 718.441 Q173.749 718.65 175.505 720.406 Q178.169 723.069 177.96 726.126 Q177.764 729.171 174.731 732.203 Q171.699 735.235 168.643 735.444 Q165.598 735.64 162.934 732.976 Q161.179 731.221 160.97 728.999 Q160.761 726.777 162.136 724.567 M157.312 721.559 Q158.736 722.983 160.418 722.898 Q162.112 722.799 163.72 721.191 Q165.316 719.595 165.414 717.901 Q165.524 716.195 164.1 714.771 Q162.676 713.347 160.97 713.457 Q159.276 713.555 157.68 715.151 Q156.072 716.76 155.974 718.454 Q155.888 720.135 157.312 721.559 Z" fill="#000000" fill-rule="nonzero" fill-opacity="1" /><path clip-path="url(#clip970)" d="M173.676 699.156 Q171.761 701.071 172.681 703.931 Q173.602 706.767 177.383 710.548 Q181.152 714.317 184 715.25 Q186.848 716.158 188.763 714.243 Q190.69 712.316 189.77 709.48 Q188.849 706.619 185.08 702.851 Q181.299 699.07 178.451 698.161 Q175.603 697.228 173.676 699.156 M171.712 697.191 Q174.793 694.11 178.856 694.933 Q182.92 695.731 187.56 700.371 Q192.188 704.999 192.998 709.075 Q193.809 713.126 190.727 716.207 Q187.646 719.288 183.583 718.49 Q179.519 717.668 174.891 713.04 Q170.251 708.399 169.44 704.348 Q168.63 700.273 171.712 697.191 Z" fill="#000000" fill-rule="nonzero" fill-opacity="1" /><path clip-path="url(#clip970)" d="M397.049 738.611 Q395.134 740.526 396.055 743.386 Q396.975 746.222 400.756 750.003 Q404.525 753.772 407.373 754.705 Q410.221 755.613 412.136 753.698 Q414.064 751.771 413.143 748.935 Q412.222 746.075 408.453 742.306 Q404.672 738.525 401.824 737.617 Q398.976 736.684 397.049 738.611 M395.085 736.647 Q398.166 733.565 402.229 734.388 Q406.293 735.186 410.933 739.826 Q415.561 744.454 416.372 748.53 Q417.182 752.581 414.1 755.662 Q411.019 758.744 406.956 757.946 Q402.892 757.123 398.264 752.495 Q393.624 747.855 392.814 743.804 Q392.004 739.728 395.085 736.647 Z" fill="#000000" fill-rule="nonzero" fill-opacity="1" /><path clip-path="url(#clip970)" d="M421.319 741.496 L423.909 738.906 L427.027 742.024 L424.437 744.614 L421.319 741.496 Z" fill="#000000" fill-rule="nonzero" fill-opacity="1" /><path clip-path="url(#clip970)" d="M429.028 722.615 Q427.26 724.383 427.187 726.347 Q427.125 728.299 428.783 729.956 Q430.44 731.614 432.392 731.552 Q434.356 731.479 436.124 729.711 Q437.892 727.943 437.965 725.979 Q438.027 724.002 436.382 722.357 Q434.724 720.7 432.76 720.774 Q430.808 720.835 429.028 722.615 M425.493 724.039 Q423.504 725.242 421.515 725.046 Q419.539 724.837 417.967 723.266 Q415.77 721.068 416.052 718.233 Q416.347 715.385 419.072 712.659 Q421.81 709.922 424.646 709.639 Q427.481 709.357 429.679 711.554 Q431.25 713.126 431.447 715.115 Q431.655 717.091 430.465 719.067 Q432.674 717.692 434.884 717.913 Q437.106 718.122 438.861 719.878 Q441.525 722.542 441.317 725.598 Q441.12 728.643 438.088 731.675 Q435.056 734.707 431.999 734.916 Q428.955 735.112 426.291 732.448 Q424.535 730.693 424.326 728.471 Q424.118 726.249 425.493 724.039 M420.668 721.032 Q422.092 722.456 423.774 722.37 Q425.468 722.271 427.076 720.663 Q428.672 719.067 428.77 717.373 Q428.881 715.667 427.457 714.243 Q426.033 712.819 424.326 712.929 Q422.632 713.028 421.036 714.623 Q419.428 716.232 419.33 717.926 Q419.244 719.608 420.668 721.032 Z" fill="#000000" fill-rule="nonzero" fill-opacity="1" /><path clip-path="url(#clip970)" d="M430.121 702.274 L439.856 692.539 L441.943 694.626 L434.479 702.09 L438.972 706.583 Q439.328 705.858 439.782 705.232 Q440.224 704.594 440.764 704.054 Q443.833 700.985 447.307 700.874 Q450.781 700.764 453.654 703.636 Q456.613 706.595 456.416 710.081 Q456.207 713.555 452.856 716.907 Q451.702 718.061 450.303 719.067 Q448.915 720.062 447.246 720.946 L444.754 718.454 Q446.46 717.95 447.933 717.066 Q449.407 716.183 450.72 714.869 Q452.844 712.745 452.967 710.388 Q453.089 708.031 451.174 706.116 Q449.259 704.201 446.902 704.324 Q444.545 704.447 442.421 706.57 Q441.427 707.565 440.654 708.78 Q439.893 709.983 439.328 711.481 L430.121 702.274 Z" fill="#000000" fill-rule="nonzero" fill-opacity="1" /><path clip-path="url(#clip970)" d="M659.35 739.139 Q657.435 741.054 658.355 743.914 Q659.276 746.75 663.057 750.531 Q666.826 754.3 669.674 755.233 Q672.522 756.141 674.437 754.226 Q676.364 752.299 675.444 749.463 Q674.523 746.603 670.754 742.834 Q666.973 739.053 664.125 738.144 Q661.277 737.211 659.35 739.139 M657.386 737.175 Q660.467 734.093 664.53 734.916 Q668.594 735.714 673.234 740.354 Q677.862 744.982 678.672 749.058 Q679.483 753.109 676.401 756.19 Q673.32 759.272 669.257 758.474 Q665.193 757.651 660.565 753.023 Q655.925 748.383 655.114 744.332 Q654.304 740.256 657.386 737.175 Z" fill="#000000" fill-rule="nonzero" fill-opacity="1" /><path clip-path="url(#clip970)" d="M683.62 742.024 L686.21 739.433 L689.328 742.552 L686.738 745.142 L683.62 742.024 Z" fill="#000000" fill-rule="nonzero" fill-opacity="1" /><path clip-path="url(#clip970)" d="M694.423 736.696 L692.164 734.437 Q693.539 733.946 694.729 733.222 Q695.92 732.497 696.841 731.577 Q699.296 729.122 698.94 726.188 Q698.584 723.229 695.405 719.681 Q695.748 721.449 695.22 723.106 Q694.693 724.764 693.367 726.089 Q690.617 728.839 687.352 728.79 Q684.086 728.716 681.201 725.832 Q678.378 723.008 678.341 719.632 Q678.304 716.256 681.078 713.482 Q684.258 710.302 688.37 711.076 Q692.483 711.825 697.123 716.465 Q701.457 720.798 701.985 725.451 Q702.512 730.079 699.038 733.553 Q698.105 734.486 696.964 735.26 Q695.822 736.033 694.423 736.696 M691.587 723.99 Q693.256 722.321 693.084 720.209 Q692.925 718.085 690.936 716.097 Q688.96 714.12 686.836 713.961 Q684.712 713.776 683.043 715.446 Q681.373 717.116 681.545 719.252 Q681.717 721.363 683.693 723.339 Q685.682 725.328 687.793 725.5 Q689.917 725.66 691.587 723.99 Z" fill="#000000" fill-rule="nonzero" fill-opacity="1" /><path clip-path="url(#clip970)" d="M699.333 699.156 Q697.418 701.071 698.339 703.931 Q699.259 706.767 703.04 710.548 Q706.809 714.317 709.657 715.25 Q712.505 716.158 714.42 714.243 Q716.348 712.316 715.427 709.48 Q714.506 706.619 710.737 702.851 Q706.956 699.07 704.108 698.161 Q701.26 697.228 699.333 699.156 M697.369 697.191 Q700.45 694.11 704.513 694.933 Q708.577 695.731 713.217 700.371 Q717.845 704.999 718.656 709.075 Q719.466 713.126 716.384 716.207 Q713.303 719.288 709.24 718.49 Q705.176 717.668 700.548 713.04 Q695.908 708.399 695.098 704.348 Q694.288 700.273 697.369 697.191 Z" fill="#000000" fill-rule="nonzero" fill-opacity="1" /><path clip-path="url(#clip970)" d="M922.706 738.611 Q920.791 740.526 921.712 743.386 Q922.633 746.222 926.414 750.003 Q930.182 753.772 933.03 754.705 Q935.879 755.613 937.794 753.698 Q939.721 751.771 938.8 748.935 Q937.88 746.075 934.111 742.306 Q930.33 738.525 927.482 737.617 Q924.634 736.684 922.706 738.611 M920.742 736.647 Q923.823 733.565 927.887 734.388 Q931.95 735.186 936.591 739.826 Q941.219 744.454 942.029 748.53 Q942.839 752.581 939.758 755.662 Q936.676 758.744 932.613 757.946 Q928.55 757.123 923.922 752.495 Q919.281 747.855 918.471 743.804 Q917.661 739.728 920.742 736.647 Z" fill="#000000" fill-rule="nonzero" fill-opacity="1" /><path clip-path="url(#clip970)" d="M946.976 741.496 L949.566 738.906 L952.684 742.024 L950.094 744.614 L946.976 741.496 Z" fill="#000000" fill-rule="nonzero" fill-opacity="1" /><path clip-path="url(#clip970)" d="M957.779 736.168 L955.52 733.909 Q956.895 733.418 958.086 732.694 Q959.277 731.97 960.197 731.049 Q962.653 728.594 962.297 725.66 Q961.941 722.701 958.761 719.153 Q959.105 720.921 958.577 722.578 Q958.049 724.236 956.723 725.561 Q953.973 728.311 950.708 728.262 Q947.443 728.189 944.558 725.304 Q941.734 722.48 941.697 719.104 Q941.661 715.728 944.435 712.954 Q947.614 709.774 951.727 710.548 Q955.839 711.297 960.48 715.937 Q964.813 720.27 965.341 724.923 Q965.869 729.551 962.395 733.025 Q961.462 733.958 960.32 734.732 Q959.179 735.505 957.779 736.168 M954.943 723.462 Q956.613 721.793 956.441 719.681 Q956.281 717.557 954.293 715.569 Q952.316 713.592 950.192 713.433 Q948.069 713.249 946.399 714.918 Q944.73 716.588 944.901 718.724 Q945.073 720.835 947.05 722.812 Q949.038 724.8 951.15 724.972 Q953.274 725.132 954.943 723.462 Z" fill="#000000" fill-rule="nonzero" fill-opacity="1" /><path clip-path="url(#clip970)" d="M955.778 702.274 L965.513 692.539 L967.6 694.626 L960.136 702.09 L964.629 706.583 Q964.985 705.858 965.439 705.232 Q965.881 704.594 966.421 704.054 Q969.49 700.985 972.965 700.874 Q976.439 700.764 979.311 703.636 Q982.27 706.595 982.073 710.081 Q981.865 713.555 978.513 716.907 Q977.359 718.061 975.96 719.067 Q974.573 720.062 972.903 720.946 L970.411 718.454 Q972.118 717.95 973.591 717.066 Q975.064 716.183 976.377 714.869 Q978.501 712.745 978.624 710.388 Q978.747 708.031 976.832 706.116 Q974.916 704.201 972.559 704.324 Q970.202 704.447 968.079 706.57 Q967.084 707.565 966.311 708.78 Q965.55 709.983 964.985 711.481 L955.778 702.274 Z" fill="#000000" fill-rule="nonzero" fill-opacity="1" /><polyline clip-path="url(#clip970)" style="stroke:#000000; stroke-linecap:round; stroke-linejoin:round; stroke-width:4; stroke-opacity:1; fill:none" points="161.818,667.406 161.818,97.5521 "/>
<polyline clip-path="url(#clip970)" style="stroke:#000000; stroke-linecap:round; stroke-linejoin:round; stroke-width:4; stroke-opacity:1; fill:none" points="161.818,651.278 180.716,651.278 "/>
<polyline clip-path="url(#clip970)" style="stroke:#000000; stroke-linecap:round; stroke-linejoin:round; stroke-width:4; stroke-opacity:1; fill:none" points="161.818,519.516 180.716,519.516 "/>
<polyline clip-path="url(#clip970)" style="stroke:#000000; stroke-linecap:round; stroke-linejoin:round; stroke-width:4; stroke-opacity:1; fill:none" points="161.818,387.753 180.716,387.753 "/>
<polyline clip-path="url(#clip970)" style="stroke:#000000; stroke-linecap:round; stroke-linejoin:round; stroke-width:4; stroke-opacity:1; fill:none" points="161.818,255.991 180.716,255.991 "/>
<polyline clip-path="url(#clip970)" style="stroke:#000000; stroke-linecap:round; stroke-linejoin:round; stroke-width:4; stroke-opacity:1; fill:none" points="161.818,124.228 180.716,124.228 "/>
<path clip-path="url(#clip970)" d="M116.86 640.627 Q114.152 640.627 112.78 643.301 Q111.426 645.957 111.426 651.304 Q111.426 656.634 112.78 659.308 Q114.152 661.964 116.86 661.964 Q119.586 661.964 120.94 659.308 Q122.311 656.634 122.311 651.304 Q122.311 645.957 120.94 643.301 Q119.586 640.627 116.86 640.627 M116.86 637.85 Q121.217 637.85 123.509 641.305 Q125.818 644.742 125.818 651.304 Q125.818 657.85 123.509 661.304 Q121.217 664.742 116.86 664.742 Q112.502 664.742 110.193 661.304 Q107.902 657.85 107.902 651.304 Q107.902 644.742 110.193 641.305 Q112.502 637.85 116.86 637.85 Z" fill="#000000" fill-rule="nonzero" fill-opacity="1" /><path clip-path="url(#clip970)" d="M110.888 529.524 L116.617 529.524 L116.617 509.75 L110.384 511 L110.384 507.806 L116.582 506.556 L120.089 506.556 L120.089 529.524 L125.818 529.524 L125.818 532.476 L110.888 532.476 L110.888 529.524 Z" fill="#000000" fill-rule="nonzero" fill-opacity="1" /><path clip-path="url(#clip970)" d="M113.579 397.762 L125.818 397.762 L125.818 400.713 L109.36 400.713 L109.36 397.762 Q111.356 395.696 114.794 392.224 Q118.249 388.734 119.134 387.727 Q120.818 385.835 121.478 384.533 Q122.155 383.213 122.155 381.946 Q122.155 379.88 120.697 378.578 Q119.256 377.276 116.929 377.276 Q115.28 377.276 113.44 377.849 Q111.617 378.422 109.533 379.585 L109.533 376.043 Q111.652 375.192 113.492 374.758 Q115.332 374.324 116.86 374.324 Q120.888 374.324 123.283 376.338 Q125.679 378.352 125.679 381.72 Q125.679 383.317 125.072 384.758 Q124.481 386.182 122.901 388.126 Q122.467 388.63 120.141 391.043 Q117.815 393.439 113.579 397.762 Z" fill="#000000" fill-rule="nonzero" fill-opacity="1" /><path clip-path="url(#clip970)" d="M120.471 254.975 Q122.988 255.513 124.395 257.215 Q125.818 258.916 125.818 261.416 Q125.818 265.253 123.179 267.353 Q120.54 269.454 115.679 269.454 Q114.047 269.454 112.311 269.124 Q110.593 268.812 108.752 268.169 L108.752 264.784 Q110.211 265.635 111.947 266.069 Q113.683 266.503 115.575 266.503 Q118.874 266.503 120.592 265.201 Q122.329 263.899 122.329 261.416 Q122.329 259.124 120.714 257.84 Q119.117 256.537 116.252 256.537 L113.231 256.537 L113.231 253.656 L116.391 253.656 Q118.978 253.656 120.349 252.631 Q121.721 251.59 121.721 249.645 Q121.721 247.649 120.297 246.59 Q118.891 245.513 116.252 245.513 Q114.811 245.513 113.162 245.826 Q111.513 246.138 109.533 246.798 L109.533 243.673 Q111.53 243.117 113.266 242.84 Q115.02 242.562 116.565 242.562 Q120.558 242.562 122.884 244.385 Q125.21 246.19 125.21 249.281 Q125.21 251.433 123.978 252.926 Q122.745 254.402 120.471 254.975 Z" fill="#000000" fill-rule="nonzero" fill-opacity="1" /><path clip-path="url(#clip970)" d="M118.631 114.323 L109.777 128.16 L118.631 128.16 L118.631 114.323 M117.711 111.268 L122.12 111.268 L122.12 128.16 L125.818 128.16 L125.818 131.077 L122.12 131.077 L122.12 137.188 L118.631 137.188 L118.631 131.077 L106.929 131.077 L106.929 127.691 L117.711 111.268 Z" fill="#000000" fill-rule="nonzero" fill-opacity="1" /><path clip-path="url(#clip970)" d="M163.901 20.1758 Q165.313 17.8147 168.809 15.7314 Q170.175 14.9212 174.387 14.9212 Q179.11 14.9212 182.049 18.6712 Q185.012 22.4212 185.012 28.5323 Q185.012 34.6433 182.049 38.3933 Q179.11 42.1433 174.387 42.1433 Q171.54 42.1433 169.48 41.0322 Q167.443 39.8979 166.1 37.5831 L166.1 51.3331 L161.818 51.3331 L161.818 28.7637 Q161.818 23.4165 163.901 20.1758 M180.591 28.5323 Q180.591 23.8332 178.647 21.1712 Q176.725 18.486 173.346 18.486 Q169.966 18.486 168.022 21.1712 Q166.1 23.8332 166.1 28.5323 Q166.1 33.2313 168.022 35.9165 Q169.966 38.5785 173.346 38.5785 Q176.725 38.5785 178.647 35.9165 Q180.591 33.2313 180.591 28.5323 Z" fill="#000000" fill-rule="nonzero" fill-opacity="1" /><polyline clip-path="url(#clip972)" style="stroke:#009af9; stroke-linecap:round; stroke-linejoin:round; stroke-width:4; stroke-opacity:1; fill:none" points="189.869,593.519 248.307,597.752 306.746,602.517 365.185,607.921 423.623,614.102 482.062,621.239 540.501,629.573 598.939,639.433 657.378,651.278 715.817,636.779 774.256,618.619 832.694,595.211 891.133,563.887 949.572,519.805 1008.01,453.169 1066.45,340.862 1124.89,113.68 "/>
<circle clip-path="url(#clip972)" cx="657.378" cy="651.278" r="10.8" fill="#ff0000" fill-rule="evenodd" fill-opacity="1" stroke="#000000" stroke-opacity="1" stroke-width="3.2"/>
<path clip-path="url(#clip970)" d="M1361.64 667.406 L2352.76 667.406 L2352.76 97.5521 L1361.64 97.5521  Z" fill="#ffffff" fill-rule="evenodd" fill-opacity="1"/>
<defs>
  <clipPath id="clip973">
    <rect x="1361" y="97" width="992" height="571"/>
  </clipPath>
</defs>
<polyline clip-path="url(#clip973)" style="stroke:#000000; stroke-linecap:round; stroke-linejoin:round; stroke-width:2; stroke-opacity:0.1; fill:none" points="1489.06,667.406 1489.06,97.5521 "/>
<polyline clip-path="url(#clip973)" style="stroke:#000000; stroke-linecap:round; stroke-linejoin:round; stroke-width:2; stroke-opacity:0.1; fill:none" points="1632.63,667.406 1632.63,97.5521 "/>
<polyline clip-path="url(#clip973)" style="stroke:#000000; stroke-linecap:round; stroke-linejoin:round; stroke-width:2; stroke-opacity:0.1; fill:none" points="1776.19,667.406 1776.19,97.5521 "/>
<polyline clip-path="url(#clip973)" style="stroke:#000000; stroke-linecap:round; stroke-linejoin:round; stroke-width:2; stroke-opacity:0.1; fill:none" points="1919.76,667.406 1919.76,97.5521 "/>
<polyline clip-path="url(#clip973)" style="stroke:#000000; stroke-linecap:round; stroke-linejoin:round; stroke-width:2; stroke-opacity:0.1; fill:none" points="2063.32,667.406 2063.32,97.5521 "/>
<polyline clip-path="url(#clip973)" style="stroke:#000000; stroke-linecap:round; stroke-linejoin:round; stroke-width:2; stroke-opacity:0.1; fill:none" points="2206.89,667.406 2206.89,97.5521 "/>
<polyline clip-path="url(#clip973)" style="stroke:#000000; stroke-linecap:round; stroke-linejoin:round; stroke-width:2; stroke-opacity:0.1; fill:none" points="2350.45,667.406 2350.45,97.5521 "/>
<polyline clip-path="url(#clip973)" style="stroke:#000000; stroke-linecap:round; stroke-linejoin:round; stroke-width:2; stroke-opacity:0.1; fill:none" points="1361.64,651.278 2352.76,651.278 "/>
<polyline clip-path="url(#clip973)" style="stroke:#000000; stroke-linecap:round; stroke-linejoin:round; stroke-width:2; stroke-opacity:0.1; fill:none" points="1361.64,508.334 2352.76,508.334 "/>
<polyline clip-path="url(#clip973)" style="stroke:#000000; stroke-linecap:round; stroke-linejoin:round; stroke-width:2; stroke-opacity:0.1; fill:none" points="1361.64,365.39 2352.76,365.39 "/>
<polyline clip-path="url(#clip973)" style="stroke:#000000; stroke-linecap:round; stroke-linejoin:round; stroke-width:2; stroke-opacity:0.1; fill:none" points="1361.64,222.445 2352.76,222.445 "/>
<polyline clip-path="url(#clip970)" style="stroke:#000000; stroke-linecap:round; stroke-linejoin:round; stroke-width:4; stroke-opacity:1; fill:none" points="1361.64,667.406 2352.76,667.406 "/>
<polyline clip-path="url(#clip970)" style="stroke:#000000; stroke-linecap:round; stroke-linejoin:round; stroke-width:4; stroke-opacity:1; fill:none" points="1489.06,667.406 1489.06,648.509 "/>
<polyline clip-path="url(#clip970)" style="stroke:#000000; stroke-linecap:round; stroke-linejoin:round; stroke-width:4; stroke-opacity:1; fill:none" points="1632.63,667.406 1632.63,648.509 "/>
<polyline clip-path="url(#clip970)" style="stroke:#000000; stroke-linecap:round; stroke-linejoin:round; stroke-width:4; stroke-opacity:1; fill:none" points="1776.19,667.406 1776.19,648.509 "/>
<polyline clip-path="url(#clip970)" style="stroke:#000000; stroke-linecap:round; stroke-linejoin:round; stroke-width:4; stroke-opacity:1; fill:none" points="1919.76,667.406 1919.76,648.509 "/>
<polyline clip-path="url(#clip970)" style="stroke:#000000; stroke-linecap:round; stroke-linejoin:round; stroke-width:4; stroke-opacity:1; fill:none" points="2063.32,667.406 2063.32,648.509 "/>
<polyline clip-path="url(#clip970)" style="stroke:#000000; stroke-linecap:round; stroke-linejoin:round; stroke-width:4; stroke-opacity:1; fill:none" points="2206.89,667.406 2206.89,648.509 "/>
<polyline clip-path="url(#clip970)" style="stroke:#000000; stroke-linecap:round; stroke-linejoin:round; stroke-width:4; stroke-opacity:1; fill:none" points="2350.45,667.406 2350.45,648.509 "/>
<path clip-path="url(#clip970)" d="M1435.21 739.139 Q1433.3 741.054 1434.22 743.914 Q1435.14 746.75 1438.92 750.531 Q1442.69 754.3 1445.54 755.233 Q1448.39 756.141 1450.3 754.226 Q1452.23 752.299 1451.31 749.463 Q1450.39 746.603 1446.62 742.834 Q1442.84 739.053 1439.99 738.144 Q1437.14 737.211 1435.21 739.139 M1433.25 737.175 Q1436.33 734.093 1440.39 734.916 Q1444.46 735.714 1449.1 740.354 Q1453.73 744.982 1454.54 749.058 Q1455.35 753.109 1452.27 756.19 Q1449.18 759.272 1445.12 758.474 Q1441.06 757.651 1436.43 753.023 Q1431.79 748.383 1430.98 744.332 Q1430.17 740.256 1433.25 737.175 Z" fill="#000000" fill-rule="nonzero" fill-opacity="1" /><path clip-path="url(#clip970)" d="M1459.48 742.024 L1462.07 739.433 L1465.19 742.552 L1462.6 745.142 L1459.48 742.024 Z" fill="#000000" fill-rule="nonzero" fill-opacity="1" /><path clip-path="url(#clip970)" d="M1468.22 719.755 Q1470.38 718.355 1472.58 718.564 Q1474.79 718.761 1476.56 720.528 Q1479.27 723.241 1478.89 726.593 Q1478.51 729.944 1475.07 733.381 Q1473.92 734.535 1472.46 735.53 Q1471.02 736.524 1469.27 737.371 L1466.87 734.977 Q1468.51 734.548 1470.04 733.627 Q1471.58 732.706 1472.91 731.368 Q1475.25 729.036 1475.54 726.9 Q1475.85 724.751 1474.09 722.996 Q1472.47 721.375 1470.42 721.609 Q1468.37 721.817 1466.35 723.843 L1464.21 725.979 L1462.17 723.941 L1464.41 721.707 Q1466.24 719.878 1466.48 718.184 Q1466.71 716.477 1465.34 715.102 Q1463.93 713.69 1462.17 713.948 Q1460.42 714.182 1458.55 716.047 Q1457.53 717.066 1456.59 718.454 Q1455.64 719.841 1454.71 721.707 L1452.5 719.497 Q1453.52 717.692 1454.55 716.268 Q1455.59 714.832 1456.68 713.74 Q1459.51 710.916 1462.44 710.56 Q1465.36 710.192 1467.55 712.377 Q1469.07 713.899 1469.26 715.827 Q1469.43 717.742 1468.22 719.755 Z" fill="#000000" fill-rule="nonzero" fill-opacity="1" /><path clip-path="url(#clip970)" d="M1475.2 699.156 Q1473.28 701.071 1474.2 703.931 Q1475.12 706.767 1478.9 710.548 Q1482.67 714.317 1485.52 715.25 Q1488.37 716.158 1490.28 714.243 Q1492.21 712.316 1491.29 709.48 Q1490.37 706.619 1486.6 702.851 Q1482.82 699.07 1479.97 698.161 Q1477.12 697.228 1475.2 699.156 M1473.23 697.191 Q1476.31 694.11 1480.38 694.933 Q1484.44 695.731 1489.08 700.371 Q1493.71 704.999 1494.52 709.075 Q1495.33 713.126 1492.25 716.207 Q1489.17 719.288 1485.1 718.49 Q1481.04 717.668 1476.41 713.04 Q1471.77 708.399 1470.96 704.348 Q1470.15 700.273 1473.23 697.191 Z" fill="#000000" fill-rule="nonzero" fill-opacity="1" /><path clip-path="url(#clip970)" d="M1579.43 738.488 Q1577.51 740.403 1578.44 743.264 Q1579.36 746.099 1583.14 749.88 Q1586.91 753.649 1589.75 754.582 Q1592.6 755.491 1594.52 753.576 Q1596.44 751.648 1595.52 748.812 Q1594.6 745.952 1590.83 742.183 Q1587.05 738.402 1584.2 737.494 Q1581.36 736.561 1579.43 738.488 M1577.47 736.524 Q1580.55 733.443 1584.61 734.265 Q1588.67 735.063 1593.31 739.704 Q1597.94 744.332 1598.75 748.407 Q1599.56 752.458 1596.48 755.54 Q1593.4 758.621 1589.34 757.823 Q1585.27 757.001 1580.64 752.372 Q1576 747.732 1575.19 743.681 Q1574.38 739.605 1577.47 736.524 Z" fill="#000000" fill-rule="nonzero" fill-opacity="1" /><path clip-path="url(#clip970)" d="M1603.7 741.373 L1606.29 738.783 L1609.41 741.901 L1606.82 744.491 L1603.7 741.373 Z" fill="#000000" fill-rule="nonzero" fill-opacity="1" /><path clip-path="url(#clip970)" d="M1612.44 719.104 Q1614.6 717.705 1616.8 717.913 Q1619.01 718.11 1620.78 719.878 Q1623.49 722.591 1623.11 725.942 Q1622.73 729.293 1619.29 732.731 Q1618.14 733.885 1616.68 734.879 Q1615.24 735.873 1613.48 736.72 L1611.09 734.327 Q1612.72 733.897 1614.26 732.976 Q1615.79 732.056 1617.13 730.717 Q1619.46 728.385 1619.76 726.249 Q1620.06 724.101 1618.31 722.345 Q1616.69 720.725 1614.64 720.958 Q1612.59 721.167 1610.56 723.192 L1608.43 725.328 L1606.39 723.29 L1608.62 721.056 Q1610.45 719.227 1610.7 717.533 Q1610.93 715.827 1609.56 714.452 Q1608.14 713.04 1606.39 713.298 Q1604.63 713.531 1602.77 715.397 Q1601.75 716.416 1600.8 717.803 Q1599.86 719.19 1598.92 721.056 L1596.71 718.846 Q1597.73 717.042 1598.76 715.618 Q1599.81 714.182 1600.9 713.089 Q1603.72 710.265 1606.66 709.909 Q1609.58 709.541 1611.76 711.726 Q1613.29 713.249 1613.47 715.176 Q1613.64 717.091 1612.44 719.104 Z" fill="#000000" fill-rule="nonzero" fill-opacity="1" /><path clip-path="url(#clip970)" d="M1629.15 717.987 L1633.2 713.936 L1619.22 699.954 L1615.69 705.245 L1613.43 702.986 L1616.93 697.719 L1619.41 695.24 L1635.65 711.481 L1639.71 707.43 L1641.79 709.517 L1631.23 720.074 L1629.15 717.987 Z" fill="#000000" fill-rule="nonzero" fill-opacity="1" /><path clip-path="url(#clip970)" d="M1723.19 738.292 Q1721.28 740.207 1722.2 743.067 Q1723.12 745.903 1726.9 749.684 Q1730.67 753.453 1733.52 754.386 Q1736.36 755.294 1738.28 753.379 Q1740.21 751.452 1739.29 748.616 Q1738.36 745.756 1734.6 741.987 Q1730.81 738.206 1727.97 737.297 Q1725.12 736.364 1723.19 738.292 M1721.23 736.328 Q1724.31 733.246 1728.37 734.069 Q1732.44 734.867 1737.08 739.507 Q1741.7 744.135 1742.51 748.211 Q1743.32 752.262 1740.24 755.343 Q1737.16 758.425 1733.1 757.627 Q1729.03 756.804 1724.41 752.176 Q1719.77 747.536 1718.96 743.485 Q1718.15 739.409 1721.23 736.328 Z" fill="#000000" fill-rule="nonzero" fill-opacity="1" /><path clip-path="url(#clip970)" d="M1747.46 741.177 L1750.05 738.586 L1753.17 741.705 L1750.58 744.295 L1747.46 741.177 Z" fill="#000000" fill-rule="nonzero" fill-opacity="1" /><path clip-path="url(#clip970)" d="M1756.2 718.908 Q1758.36 717.508 1760.56 717.717 Q1762.77 717.913 1764.54 719.681 Q1767.25 722.394 1766.87 725.746 Q1766.49 729.097 1763.05 732.534 Q1761.9 733.688 1760.44 734.683 Q1759 735.677 1757.25 736.524 L1754.85 734.13 Q1756.48 733.701 1758.02 732.78 Q1759.55 731.859 1760.89 730.521 Q1763.22 728.189 1763.52 726.053 Q1763.83 723.904 1762.07 722.149 Q1760.45 720.528 1758.4 720.762 Q1756.35 720.97 1754.32 722.996 L1752.19 725.132 L1750.15 723.094 L1752.38 720.86 Q1754.21 719.031 1754.46 717.336 Q1754.69 715.63 1753.32 714.255 Q1751.91 712.843 1750.15 713.101 Q1748.39 713.334 1746.53 715.2 Q1745.51 716.219 1744.56 717.607 Q1743.62 718.994 1742.69 720.86 L1740.48 718.65 Q1741.5 716.845 1742.53 715.421 Q1743.57 713.985 1744.66 712.893 Q1747.49 710.069 1750.42 709.713 Q1753.34 709.345 1755.53 711.53 Q1757.05 713.052 1757.23 714.979 Q1757.4 716.895 1756.2 718.908 Z" fill="#000000" fill-rule="nonzero" fill-opacity="1" /><path clip-path="url(#clip970)" d="M1774.62 716.084 L1783.27 707.43 L1785.36 709.517 L1773.72 721.154 L1771.63 719.067 Q1771.58 716.195 1771.56 711.309 Q1771.53 706.398 1771.45 705.06 Q1771.3 702.532 1770.85 701.144 Q1770.39 699.733 1769.5 698.836 Q1768.04 697.376 1766.08 697.486 Q1764.14 697.584 1762.5 699.229 Q1761.33 700.395 1760.44 702.102 Q1759.55 703.796 1758.9 706.092 L1756.4 703.587 Q1757.29 701.488 1758.29 699.88 Q1759.28 698.272 1760.36 697.191 Q1763.21 694.343 1766.33 694.073 Q1769.45 693.803 1771.83 696.185 Q1772.96 697.314 1773.55 698.763 Q1774.14 700.187 1774.39 702.679 Q1774.44 703.342 1774.51 706.693 Q1774.55 710.032 1774.62 716.084 Z" fill="#000000" fill-rule="nonzero" fill-opacity="1" /><path clip-path="url(#clip970)" d="M1866.25 738.795 Q1864.34 740.71 1865.26 743.571 Q1866.18 746.406 1869.96 750.187 Q1873.73 753.956 1876.58 754.889 Q1879.43 755.797 1881.34 753.882 Q1883.27 751.955 1882.35 749.119 Q1881.43 746.259 1877.66 742.49 Q1873.88 738.709 1871.03 737.801 Q1868.18 736.868 1866.25 738.795 M1864.29 736.831 Q1867.37 733.75 1871.43 734.572 Q1875.5 735.37 1880.14 740.01 Q1884.77 744.639 1885.58 748.714 Q1886.39 752.765 1883.3 755.847 Q1880.22 758.928 1876.16 758.13 Q1872.1 757.307 1867.47 752.679 Q1862.83 748.039 1862.02 743.988 Q1861.21 739.912 1864.29 736.831 Z" fill="#000000" fill-rule="nonzero" fill-opacity="1" /><path clip-path="url(#clip970)" d="M1890.52 741.68 L1893.11 739.09 L1896.23 742.208 L1893.64 744.798 L1890.52 741.68 Z" fill="#000000" fill-rule="nonzero" fill-opacity="1" /><path clip-path="url(#clip970)" d="M1899.26 719.411 Q1901.42 718.012 1903.62 718.22 Q1905.83 718.417 1907.6 720.185 Q1910.31 722.898 1909.93 726.249 Q1909.55 729.6 1906.11 733.038 Q1904.96 734.192 1903.5 735.186 Q1902.06 736.18 1900.31 737.027 L1897.91 734.634 Q1899.55 734.204 1901.08 733.283 Q1902.62 732.362 1903.95 731.024 Q1906.29 728.692 1906.58 726.556 Q1906.89 724.408 1905.13 722.652 Q1903.51 721.032 1901.46 721.265 Q1899.41 721.474 1897.39 723.499 L1895.25 725.635 L1893.21 723.597 L1895.45 721.363 Q1897.28 719.534 1897.52 717.84 Q1897.75 716.133 1896.38 714.759 Q1894.97 713.347 1893.21 713.605 Q1891.46 713.838 1889.59 715.704 Q1888.57 716.723 1887.63 718.11 Q1886.68 719.497 1885.75 721.363 L1883.54 719.153 Q1884.56 717.349 1885.59 715.925 Q1886.63 714.488 1887.72 713.396 Q1890.55 710.572 1893.48 710.216 Q1896.4 709.848 1898.59 712.033 Q1900.11 713.555 1900.3 715.483 Q1900.47 717.398 1899.26 719.411 Z" fill="#000000" fill-rule="nonzero" fill-opacity="1" /><path clip-path="url(#clip970)" d="M1915.26 703.415 Q1917.42 702.016 1919.62 702.225 Q1921.83 702.421 1923.6 704.189 Q1926.31 706.902 1925.93 710.253 Q1925.55 713.605 1922.11 717.042 Q1920.96 718.196 1919.49 719.19 Q1918.06 720.185 1916.3 721.032 L1913.91 718.638 Q1915.54 718.208 1917.08 717.287 Q1918.61 716.367 1919.95 715.029 Q1922.28 712.696 1922.58 710.56 Q1922.88 708.412 1921.13 706.656 Q1919.51 705.036 1917.46 705.269 Q1915.41 705.478 1913.38 707.503 L1911.25 709.639 L1909.21 707.602 L1911.44 705.367 Q1913.27 703.538 1913.52 701.844 Q1913.75 700.138 1912.37 698.763 Q1910.96 697.351 1909.21 697.609 Q1907.45 697.842 1905.59 699.708 Q1904.57 700.727 1903.62 702.114 Q1902.68 703.501 1901.74 705.367 L1899.53 703.158 Q1900.55 701.353 1901.58 699.929 Q1902.63 698.493 1903.72 697.4 Q1906.54 694.577 1909.48 694.221 Q1912.4 693.852 1914.58 696.037 Q1916.11 697.56 1916.29 699.487 Q1916.46 701.402 1915.26 703.415 Z" fill="#000000" fill-rule="nonzero" fill-opacity="1" /><path clip-path="url(#clip970)" d="M2009.22 739.397 Q2007.3 741.312 2008.22 744.172 Q2009.14 747.008 2012.92 750.789 Q2016.69 754.558 2019.54 755.491 Q2022.39 756.399 2024.3 754.484 Q2026.23 752.557 2025.31 749.721 Q2024.39 746.86 2020.62 743.092 Q2016.84 739.311 2013.99 738.402 Q2011.14 737.469 2009.22 739.397 M2007.25 737.432 Q2010.33 734.351 2014.4 735.174 Q2018.46 735.972 2023.1 740.612 Q2027.73 745.24 2028.54 749.316 Q2029.35 753.367 2026.27 756.448 Q2023.19 759.529 2019.12 758.731 Q2015.06 757.909 2010.43 753.281 Q2005.79 748.641 2004.98 744.589 Q2004.17 740.514 2007.25 737.432 Z" fill="#000000" fill-rule="nonzero" fill-opacity="1" /><path clip-path="url(#clip970)" d="M2033.49 742.282 L2036.08 739.691 L2039.2 742.809 L2036.61 745.4 L2033.49 742.282 Z" fill="#000000" fill-rule="nonzero" fill-opacity="1" /><path clip-path="url(#clip970)" d="M2042.23 720.013 Q2044.39 718.613 2046.59 718.822 Q2048.8 719.018 2050.56 720.786 Q2053.28 723.499 2052.9 726.85 Q2052.52 730.202 2049.08 733.639 Q2047.92 734.793 2046.46 735.787 Q2045.03 736.782 2043.27 737.629 L2040.88 735.235 Q2042.51 734.805 2044.04 733.885 Q2045.58 732.964 2046.92 731.626 Q2049.25 729.293 2049.54 727.157 Q2049.85 725.009 2048.1 723.254 Q2046.48 721.633 2044.43 721.866 Q2042.38 722.075 2040.35 724.101 L2038.21 726.237 L2036.18 724.199 L2038.41 721.965 Q2040.24 720.135 2040.48 718.441 Q2040.72 716.735 2039.34 715.36 Q2037.93 713.948 2036.18 714.206 Q2034.42 714.439 2032.55 716.305 Q2031.54 717.324 2030.59 718.711 Q2029.64 720.099 2028.71 721.965 L2026.5 719.755 Q2027.52 717.95 2028.55 716.526 Q2029.6 715.09 2030.69 713.997 Q2033.51 711.174 2036.45 710.818 Q2039.37 710.45 2041.55 712.635 Q2043.07 714.157 2043.26 716.084 Q2043.43 717.999 2042.23 720.013 Z" fill="#000000" fill-rule="nonzero" fill-opacity="1" /><path clip-path="url(#clip970)" d="M2051.24 698.431 L2054.76 714.476 L2061.02 708.215 L2051.24 698.431 M2048.43 696.921 L2051.55 693.803 L2063.49 705.748 L2066.1 703.133 L2068.17 705.195 L2065.55 707.81 L2069.87 712.131 L2067.41 714.599 L2063.08 710.278 L2054.81 718.552 L2052.42 716.158 L2048.43 696.921 Z" fill="#000000" fill-rule="nonzero" fill-opacity="1" /><path clip-path="url(#clip970)" d="M2153.57 738.611 Q2151.65 740.526 2152.57 743.386 Q2153.49 746.222 2157.28 750.003 Q2161.04 753.772 2163.89 754.705 Q2166.74 755.613 2168.66 753.698 Q2170.58 751.771 2169.66 748.935 Q2168.74 746.075 2164.97 742.306 Q2161.19 738.525 2158.34 737.617 Q2155.5 736.684 2153.57 738.611 M2151.6 736.647 Q2154.69 733.565 2158.75 734.388 Q2162.81 735.186 2167.45 739.826 Q2172.08 744.454 2172.89 748.53 Q2173.7 752.581 2170.62 755.662 Q2167.54 758.744 2163.48 757.946 Q2159.41 757.123 2154.78 752.495 Q2150.14 747.855 2149.33 743.804 Q2148.52 739.728 2151.6 736.647 Z" fill="#000000" fill-rule="nonzero" fill-opacity="1" /><path clip-path="url(#clip970)" d="M2177.84 741.496 L2180.43 738.906 L2183.55 742.024 L2180.96 744.614 L2177.84 741.496 Z" fill="#000000" fill-rule="nonzero" fill-opacity="1" /><path clip-path="url(#clip970)" d="M2186.58 719.227 Q2188.74 717.828 2190.94 718.036 Q2193.15 718.233 2194.91 720 Q2197.63 722.713 2197.25 726.065 Q2196.87 729.416 2193.43 732.853 Q2192.27 734.007 2190.81 735.002 Q2189.38 735.996 2187.62 736.843 L2185.23 734.449 Q2186.86 734.02 2188.4 733.099 Q2189.93 732.178 2191.27 730.84 Q2193.6 728.508 2193.9 726.372 Q2194.2 724.223 2192.45 722.468 Q2190.83 720.847 2188.78 721.081 Q2186.73 721.289 2184.7 723.315 L2182.56 725.451 L2180.53 723.413 L2182.76 721.179 Q2184.59 719.35 2184.84 717.656 Q2185.07 715.949 2183.69 714.574 Q2182.28 713.163 2180.53 713.42 Q2178.77 713.654 2176.91 715.52 Q2175.89 716.539 2174.94 717.926 Q2174 719.313 2173.06 721.179 L2170.85 718.969 Q2171.87 717.165 2172.9 715.741 Q2173.95 714.304 2175.04 713.212 Q2177.86 710.388 2180.8 710.032 Q2183.72 709.664 2185.9 711.849 Q2187.43 713.371 2187.61 715.299 Q2187.78 717.214 2186.58 719.227 Z" fill="#000000" fill-rule="nonzero" fill-opacity="1" /><path clip-path="url(#clip970)" d="M2186.64 702.274 L2196.38 692.539 L2198.46 694.626 L2191 702.09 L2195.49 706.583 Q2195.85 705.858 2196.3 705.232 Q2196.74 704.594 2197.28 704.054 Q2200.35 700.985 2203.83 700.874 Q2207.3 700.764 2210.17 703.636 Q2213.13 706.595 2212.94 710.081 Q2212.73 713.555 2209.38 716.907 Q2208.22 718.061 2206.82 719.067 Q2205.43 720.062 2203.77 720.946 L2201.27 718.454 Q2202.98 717.95 2204.45 717.066 Q2205.93 716.183 2207.24 714.869 Q2209.36 712.745 2209.49 710.388 Q2209.61 708.031 2207.69 706.116 Q2205.78 704.201 2203.42 704.324 Q2201.06 704.447 2198.94 706.57 Q2197.95 707.565 2197.17 708.78 Q2196.41 709.983 2195.85 711.481 L2186.64 702.274 Z" fill="#000000" fill-rule="nonzero" fill-opacity="1" /><path clip-path="url(#clip970)" d="M2296.52 739.225 Q2294.6 741.14 2295.53 744 Q2296.45 746.836 2300.23 750.617 Q2304 754.386 2306.84 755.319 Q2309.69 756.227 2311.61 754.312 Q2313.53 752.385 2312.61 749.549 Q2311.69 746.689 2307.92 742.92 Q2304.14 739.139 2301.3 738.23 Q2298.45 737.297 2296.52 739.225 M2294.56 737.261 Q2297.64 734.179 2301.7 735.002 Q2305.76 735.8 2310.4 740.44 Q2315.03 745.068 2315.84 749.144 Q2316.65 753.195 2313.57 756.276 Q2310.49 759.358 2306.43 758.56 Q2302.36 757.737 2297.74 753.109 Q2293.09 748.469 2292.28 744.418 Q2291.47 740.342 2294.56 737.261 Z" fill="#000000" fill-rule="nonzero" fill-opacity="1" /><path clip-path="url(#clip970)" d="M2320.79 742.11 L2323.38 739.519 L2326.5 742.638 L2323.91 745.228 L2320.79 742.11 Z" fill="#000000" fill-rule="nonzero" fill-opacity="1" /><path clip-path="url(#clip970)" d="M2329.53 719.841 Q2331.69 718.441 2333.89 718.65 Q2336.1 718.846 2337.87 720.614 Q2340.58 723.327 2340.2 726.679 Q2339.82 730.03 2336.38 733.467 Q2335.23 734.621 2333.77 735.616 Q2332.33 736.61 2330.57 737.457 L2328.18 735.063 Q2329.81 734.634 2331.35 733.713 Q2332.88 732.792 2334.22 731.454 Q2336.55 729.122 2336.85 726.985 Q2337.15 724.837 2335.4 723.082 Q2333.78 721.461 2331.73 721.695 Q2329.68 721.903 2327.65 723.929 L2325.52 726.065 L2323.48 724.027 L2325.71 721.793 Q2327.54 719.964 2327.79 718.269 Q2328.02 716.563 2326.65 715.188 Q2325.23 713.776 2323.48 714.034 Q2321.72 714.267 2319.86 716.133 Q2318.84 717.152 2317.89 718.54 Q2316.95 719.927 2316.01 721.793 L2313.8 719.583 Q2314.82 717.778 2315.85 716.354 Q2316.9 714.918 2317.99 713.826 Q2320.81 711.002 2323.75 710.646 Q2326.67 710.278 2328.86 712.463 Q2330.38 713.985 2330.56 715.912 Q2330.73 717.828 2329.53 719.841 Z" fill="#000000" fill-rule="nonzero" fill-opacity="1" /><path clip-path="url(#clip970)" d="M2343.35 705.478 Q2341.68 707.147 2341.84 709.271 Q2342.02 711.383 2344 713.371 Q2345.98 715.348 2348.1 715.532 Q2350.23 715.691 2351.9 714.022 Q2353.57 712.352 2353.4 710.241 Q2353.22 708.105 2351.25 706.128 Q2349.26 704.14 2347.13 703.98 Q2345.02 703.808 2343.35 705.478 M2340.51 692.784 L2342.76 695.043 Q2341.39 695.534 2340.2 696.258 Q2339.02 696.97 2338.09 697.903 Q2335.63 700.359 2335.99 703.317 Q2336.36 706.263 2339.52 709.799 Q2339.18 708.007 2339.71 706.349 Q2340.22 704.68 2341.54 703.366 Q2344.3 700.604 2347.58 700.69 Q2350.85 700.751 2353.74 703.636 Q2356.56 706.46 2356.6 709.836 Q2356.64 713.212 2353.86 715.986 Q2350.68 719.166 2346.57 718.417 Q2342.44 717.656 2337.82 713.028 Q2333.47 708.682 2332.96 704.041 Q2332.43 699.389 2335.9 695.915 Q2336.83 694.982 2337.96 694.221 Q2339.11 693.447 2340.51 692.784 Z" fill="#000000" fill-rule="nonzero" fill-opacity="1" /><polyline clip-path="url(#clip970)" style="stroke:#000000; stroke-linecap:round; stroke-linejoin:round; stroke-width:4; stroke-opacity:1; fill:none" points="1361.64,667.406 1361.64,97.5521 "/>
<polyline clip-path="url(#clip970)" style="stroke:#000000; stroke-linecap:round; stroke-linejoin:round; stroke-width:4; stroke-opacity:1; fill:none" points="1361.64,651.278 1380.53,651.278 "/>
<polyline clip-path="url(#clip970)" style="stroke:#000000; stroke-linecap:round; stroke-linejoin:round; stroke-width:4; stroke-opacity:1; fill:none" points="1361.64,508.334 1380.53,508.334 "/>
<polyline clip-path="url(#clip970)" style="stroke:#000000; stroke-linecap:round; stroke-linejoin:round; stroke-width:4; stroke-opacity:1; fill:none" points="1361.64,365.39 1380.53,365.39 "/>
<polyline clip-path="url(#clip970)" style="stroke:#000000; stroke-linecap:round; stroke-linejoin:round; stroke-width:4; stroke-opacity:1; fill:none" points="1361.64,222.445 1380.53,222.445 "/>
<path clip-path="url(#clip970)" d="M1260.13 640.627 Q1257.42 640.627 1256.05 643.301 Q1254.7 645.957 1254.7 651.304 Q1254.7 656.634 1256.05 659.308 Q1257.42 661.964 1260.13 661.964 Q1262.86 661.964 1264.21 659.308 Q1265.58 656.634 1265.58 651.304 Q1265.58 645.957 1264.21 643.301 Q1262.86 640.627 1260.13 640.627 M1260.13 637.85 Q1264.49 637.85 1266.78 641.305 Q1269.09 644.742 1269.09 651.304 Q1269.09 657.85 1266.78 661.304 Q1264.49 664.742 1260.13 664.742 Q1255.78 664.742 1253.47 661.304 Q1251.17 657.85 1251.17 651.304 Q1251.17 644.742 1253.47 641.305 Q1255.78 637.85 1260.13 637.85 Z" fill="#000000" fill-rule="nonzero" fill-opacity="1" /><path clip-path="url(#clip970)" d="M1275.25 659.829 L1278.92 659.829 L1278.92 664.238 L1275.25 664.238 L1275.25 659.829 Z" fill="#000000" fill-rule="nonzero" fill-opacity="1" /><path clip-path="url(#clip970)" d="M1294.06 640.627 Q1291.35 640.627 1289.98 643.301 Q1288.62 645.957 1288.62 651.304 Q1288.62 656.634 1289.98 659.308 Q1291.35 661.964 1294.06 661.964 Q1296.78 661.964 1298.14 659.308 Q1299.51 656.634 1299.51 651.304 Q1299.51 645.957 1298.14 643.301 Q1296.78 640.627 1294.06 640.627 M1294.06 637.85 Q1298.41 637.85 1300.71 641.305 Q1303.01 644.742 1303.01 651.304 Q1303.01 657.85 1300.71 661.304 Q1298.41 664.742 1294.06 664.742 Q1289.7 664.742 1287.39 661.304 Q1285.1 657.85 1285.1 651.304 Q1285.1 644.742 1287.39 641.305 Q1289.7 637.85 1294.06 637.85 Z" fill="#000000" fill-rule="nonzero" fill-opacity="1" /><path clip-path="url(#clip970)" d="M1316.68 640.627 Q1313.97 640.627 1312.6 643.301 Q1311.24 645.957 1311.24 651.304 Q1311.24 656.634 1312.6 659.308 Q1313.97 661.964 1316.68 661.964 Q1319.4 661.964 1320.76 659.308 Q1322.13 656.634 1322.13 651.304 Q1322.13 645.957 1320.76 643.301 Q1319.4 640.627 1316.68 640.627 M1316.68 637.85 Q1321.04 637.85 1323.33 641.305 Q1325.64 644.742 1325.64 651.304 Q1325.64 657.85 1323.33 661.304 Q1321.04 664.742 1316.68 664.742 Q1312.32 664.742 1310.01 661.304 Q1307.72 657.85 1307.72 651.304 Q1307.72 644.742 1310.01 641.305 Q1312.32 637.85 1316.68 637.85 Z" fill="#000000" fill-rule="nonzero" fill-opacity="1" /><path clip-path="url(#clip970)" d="M1260.88 497.683 Q1258.17 497.683 1256.8 500.357 Q1255.45 503.013 1255.45 508.36 Q1255.45 513.69 1256.8 516.364 Q1258.17 519.02 1260.88 519.02 Q1263.6 519.02 1264.96 516.364 Q1266.33 513.69 1266.33 508.36 Q1266.33 503.013 1264.96 500.357 Q1263.6 497.683 1260.88 497.683 M1260.88 494.905 Q1265.24 494.905 1267.53 498.36 Q1269.84 501.798 1269.84 508.36 Q1269.84 514.905 1267.53 518.36 Q1265.24 521.798 1260.88 521.798 Q1256.52 521.798 1254.21 518.36 Q1251.92 514.905 1251.92 508.36 Q1251.92 501.798 1254.21 498.36 Q1256.52 494.905 1260.88 494.905 Z" fill="#000000" fill-rule="nonzero" fill-opacity="1" /><path clip-path="url(#clip970)" d="M1276 516.884 L1279.66 516.884 L1279.66 521.294 L1276 521.294 L1276 516.884 Z" fill="#000000" fill-rule="nonzero" fill-opacity="1" /><path clip-path="url(#clip970)" d="M1294.8 497.683 Q1292.09 497.683 1290.72 500.357 Q1289.37 503.013 1289.37 508.36 Q1289.37 513.69 1290.72 516.364 Q1292.09 519.02 1294.8 519.02 Q1297.53 519.02 1298.88 516.364 Q1300.25 513.69 1300.25 508.36 Q1300.25 503.013 1298.88 500.357 Q1297.53 497.683 1294.8 497.683 M1294.8 494.905 Q1299.16 494.905 1301.45 498.36 Q1303.76 501.798 1303.76 508.36 Q1303.76 514.905 1301.45 518.36 Q1299.16 521.798 1294.8 521.798 Q1290.45 521.798 1288.14 518.36 Q1285.84 514.905 1285.84 508.36 Q1285.84 501.798 1288.14 498.36 Q1290.45 494.905 1294.8 494.905 Z" fill="#000000" fill-rule="nonzero" fill-opacity="1" /><path clip-path="url(#clip970)" d="M1309.96 495.374 L1323.73 495.374 L1323.73 498.325 L1313.17 498.325 L1313.17 504.68 Q1313.93 504.419 1314.7 504.298 Q1315.46 504.159 1316.23 504.159 Q1320.57 504.159 1323.1 506.537 Q1325.64 508.916 1325.64 512.978 Q1325.64 517.162 1323.03 519.488 Q1320.43 521.798 1315.69 521.798 Q1314.06 521.798 1312.35 521.52 Q1310.67 521.242 1308.87 520.686 L1308.87 517.162 Q1310.43 518.013 1312.09 518.429 Q1313.76 518.846 1315.62 518.846 Q1318.62 518.846 1320.38 517.266 Q1322.13 515.686 1322.13 512.978 Q1322.13 510.27 1320.38 508.69 Q1318.62 507.11 1315.62 507.11 Q1314.21 507.11 1312.81 507.423 Q1311.42 507.735 1309.96 508.395 L1309.96 495.374 Z" fill="#000000" fill-rule="nonzero" fill-opacity="1" /><path clip-path="url(#clip970)" d="M1260.13 354.739 Q1257.42 354.739 1256.05 357.412 Q1254.7 360.069 1254.7 365.416 Q1254.7 370.746 1256.05 373.419 Q1257.42 376.075 1260.13 376.075 Q1262.86 376.075 1264.21 373.419 Q1265.58 370.746 1265.58 365.416 Q1265.58 360.069 1264.21 357.412 Q1262.86 354.739 1260.13 354.739 M1260.13 351.961 Q1264.49 351.961 1266.78 355.416 Q1269.09 358.853 1269.09 365.416 Q1269.09 371.961 1266.78 375.416 Q1264.49 378.853 1260.13 378.853 Q1255.78 378.853 1253.47 375.416 Q1251.17 371.961 1251.17 365.416 Q1251.17 358.853 1253.47 355.416 Q1255.78 351.961 1260.13 351.961 Z" fill="#000000" fill-rule="nonzero" fill-opacity="1" /><path clip-path="url(#clip970)" d="M1275.25 373.94 L1278.92 373.94 L1278.92 378.35 L1275.25 378.35 L1275.25 373.94 Z" fill="#000000" fill-rule="nonzero" fill-opacity="1" /><path clip-path="url(#clip970)" d="M1287.16 375.398 L1292.89 375.398 L1292.89 355.624 L1286.66 356.874 L1286.66 353.68 L1292.86 352.43 L1296.37 352.43 L1296.37 375.398 L1302.09 375.398 L1302.09 378.35 L1287.16 378.35 L1287.16 375.398 Z" fill="#000000" fill-rule="nonzero" fill-opacity="1" /><path clip-path="url(#clip970)" d="M1316.68 354.739 Q1313.97 354.739 1312.6 357.412 Q1311.24 360.069 1311.24 365.416 Q1311.24 370.746 1312.6 373.419 Q1313.97 376.075 1316.68 376.075 Q1319.4 376.075 1320.76 373.419 Q1322.13 370.746 1322.13 365.416 Q1322.13 360.069 1320.76 357.412 Q1319.4 354.739 1316.68 354.739 M1316.68 351.961 Q1321.04 351.961 1323.33 355.416 Q1325.64 358.853 1325.64 365.416 Q1325.64 371.961 1323.33 375.416 Q1321.04 378.853 1316.68 378.853 Q1312.32 378.853 1310.01 375.416 Q1307.72 371.961 1307.72 365.416 Q1307.72 358.853 1310.01 355.416 Q1312.32 351.961 1316.68 351.961 Z" fill="#000000" fill-rule="nonzero" fill-opacity="1" /><path clip-path="url(#clip970)" d="M1260.88 211.794 Q1258.17 211.794 1256.8 214.468 Q1255.45 217.124 1255.45 222.471 Q1255.45 227.801 1256.8 230.475 Q1258.17 233.131 1260.88 233.131 Q1263.6 233.131 1264.96 230.475 Q1266.33 227.801 1266.33 222.471 Q1266.33 217.124 1264.96 214.468 Q1263.6 211.794 1260.88 211.794 M1260.88 209.017 Q1265.24 209.017 1267.53 212.471 Q1269.84 215.909 1269.84 222.471 Q1269.84 229.016 1267.53 232.471 Q1265.24 235.909 1260.88 235.909 Q1256.52 235.909 1254.21 232.471 Q1251.92 229.016 1251.92 222.471 Q1251.92 215.909 1254.21 212.471 Q1256.52 209.017 1260.88 209.017 Z" fill="#000000" fill-rule="nonzero" fill-opacity="1" /><path clip-path="url(#clip970)" d="M1276 230.996 L1279.66 230.996 L1279.66 235.405 L1276 235.405 L1276 230.996 Z" fill="#000000" fill-rule="nonzero" fill-opacity="1" /><path clip-path="url(#clip970)" d="M1287.91 232.454 L1293.64 232.454 L1293.64 212.68 L1287.41 213.93 L1287.41 210.735 L1293.6 209.485 L1297.11 209.485 L1297.11 232.454 L1302.84 232.454 L1302.84 235.405 L1287.91 235.405 L1287.91 232.454 Z" fill="#000000" fill-rule="nonzero" fill-opacity="1" /><path clip-path="url(#clip970)" d="M1309.96 209.485 L1323.73 209.485 L1323.73 212.437 L1313.17 212.437 L1313.17 218.791 Q1313.93 218.53 1314.7 218.409 Q1315.46 218.27 1316.23 218.27 Q1320.57 218.27 1323.1 220.648 Q1325.64 223.027 1325.64 227.089 Q1325.64 231.273 1323.03 233.6 Q1320.43 235.909 1315.69 235.909 Q1314.06 235.909 1312.35 235.631 Q1310.67 235.353 1308.87 234.798 L1308.87 231.273 Q1310.43 232.124 1312.09 232.541 Q1313.76 232.957 1315.62 232.957 Q1318.62 232.957 1320.38 231.378 Q1322.13 229.798 1322.13 227.089 Q1322.13 224.381 1320.38 222.801 Q1318.62 221.221 1315.62 221.221 Q1314.21 221.221 1312.81 221.534 Q1311.42 221.846 1309.96 222.506 L1309.96 209.485 Z" fill="#000000" fill-rule="nonzero" fill-opacity="1" /><path clip-path="url(#clip970)" d="M1373.53 18.9258 Q1370.02 18.9258 1368.12 21.4721 Q1366.13 24.1341 1366.13 28.5323 Q1366.13 33.185 1368.09 35.8702 Q1370.08 38.5322 1373.53 38.5322 Q1376.94 38.5322 1378.93 35.847 Q1380.92 33.1619 1380.92 28.5323 Q1380.92 24.2962 1378.93 21.4721 Q1377.1 18.9258 1373.53 18.9258 M1373.53 15.5462 L1387.68 15.5462 L1387.68 19.8054 L1382.91 19.8054 Q1385.43 23.4165 1385.43 28.5323 Q1385.43 34.898 1382.26 38.5091 Q1379.09 42.1433 1373.53 42.1433 Q1367.96 42.1433 1364.81 38.5091 Q1361.64 34.898 1361.64 28.5323 Q1361.64 22.1203 1364.81 18.5323 Q1367.42 15.5462 1373.53 15.5462 Z" fill="#000000" fill-rule="nonzero" fill-opacity="1" /><path clip-path="url(#clip970)" d="M1411.84 19.6666 Q1410.99 19.3656 1410.13 19.1342 Q1407.84 18.5323 1405.39 18.5323 Q1401.15 18.5323 1398.79 20.824 Q1396.59 22.9536 1396.17 26.8656 L1411.84 26.8656 L1411.84 30.1989 L1396.17 30.1989 Q1396.59 34.1109 1398.79 36.2405 Q1401.15 38.5322 1405.39 38.5322 Q1408.35 38.5322 1410.13 37.9304 L1411.84 37.3517 L1411.84 41.2174 L1410.02 41.634 Q1407.61 42.1433 1405.13 42.1433 Q1398.93 42.1433 1395.32 38.5322 Q1391.68 34.9211 1391.68 28.5323 Q1391.68 22.1434 1395.32 18.5323 Q1398.93 14.9212 1405.13 14.9212 Q1407.47 14.9212 1410.02 15.4305 Q1410.94 15.6157 1411.84 15.8934 L1411.84 19.6666 Z" fill="#000000" fill-rule="nonzero" fill-opacity="1" /><polyline clip-path="url(#clip973)" style="stroke:#009af9; stroke-linecap:round; stroke-linejoin:round; stroke-width:4; stroke-opacity:1; fill:none" points="1389.69,164.949 1448.13,222.936 1506.56,281.725 1565,341.314 1623.44,401.705 1681.88,462.897 1740.32,524.89 1798.76,587.683 1857.2,651.278 1915.63,586.882 1974.07,521.685 2032.51,455.687 2090.95,388.888 2149.39,321.288 2207.83,252.886 2266.27,183.684 2324.71,113.68 "/>
<circle clip-path="url(#clip973)" cx="1857.2" cy="651.278" r="10.8" fill="#ff0000" fill-rule="evenodd" fill-opacity="1" stroke="#000000" stroke-opacity="1" stroke-width="3.2"/>
<path clip-path="url(#clip970)" d="M161.818 1467.41 L1152.94 1467.41 L1152.94 897.552 L161.818 897.552  Z" fill="#ffffff" fill-rule="evenodd" fill-opacity="1"/>
<defs>
  <clipPath id="clip974">
    <rect x="161" y="897" width="992" height="571"/>
  </clipPath>
</defs>
<polyline clip-path="url(#clip974)" style="stroke:#000000; stroke-linecap:round; stroke-linejoin:round; stroke-width:2; stroke-opacity:0.1; fill:none" points="291.954,1467.41 291.954,897.552 "/>
<polyline clip-path="url(#clip974)" style="stroke:#000000; stroke-linecap:round; stroke-linejoin:round; stroke-width:2; stroke-opacity:0.1; fill:none" points="464.341,1467.41 464.341,897.552 "/>
<polyline clip-path="url(#clip974)" style="stroke:#000000; stroke-linecap:round; stroke-linejoin:round; stroke-width:2; stroke-opacity:0.1; fill:none" points="636.728,1467.41 636.728,897.552 "/>
<polyline clip-path="url(#clip974)" style="stroke:#000000; stroke-linecap:round; stroke-linejoin:round; stroke-width:2; stroke-opacity:0.1; fill:none" points="809.115,1467.41 809.115,897.552 "/>
<polyline clip-path="url(#clip974)" style="stroke:#000000; stroke-linecap:round; stroke-linejoin:round; stroke-width:2; stroke-opacity:0.1; fill:none" points="981.502,1467.41 981.502,897.552 "/>
<polyline clip-path="url(#clip974)" style="stroke:#000000; stroke-linecap:round; stroke-linejoin:round; stroke-width:2; stroke-opacity:0.1; fill:none" points="161.818,1451.28 1152.94,1451.28 "/>
<polyline clip-path="url(#clip974)" style="stroke:#000000; stroke-linecap:round; stroke-linejoin:round; stroke-width:2; stroke-opacity:0.1; fill:none" points="161.818,1330.37 1152.94,1330.37 "/>
<polyline clip-path="url(#clip974)" style="stroke:#000000; stroke-linecap:round; stroke-linejoin:round; stroke-width:2; stroke-opacity:0.1; fill:none" points="161.818,1209.47 1152.94,1209.47 "/>
<polyline clip-path="url(#clip974)" style="stroke:#000000; stroke-linecap:round; stroke-linejoin:round; stroke-width:2; stroke-opacity:0.1; fill:none" points="161.818,1088.56 1152.94,1088.56 "/>
<polyline clip-path="url(#clip974)" style="stroke:#000000; stroke-linecap:round; stroke-linejoin:round; stroke-width:2; stroke-opacity:0.1; fill:none" points="161.818,967.654 1152.94,967.654 "/>
<polyline clip-path="url(#clip970)" style="stroke:#000000; stroke-linecap:round; stroke-linejoin:round; stroke-width:4; stroke-opacity:1; fill:none" points="161.818,1467.41 1152.94,1467.41 "/>
<polyline clip-path="url(#clip970)" style="stroke:#000000; stroke-linecap:round; stroke-linejoin:round; stroke-width:4; stroke-opacity:1; fill:none" points="291.954,1467.41 291.954,1448.51 "/>
<polyline clip-path="url(#clip970)" style="stroke:#000000; stroke-linecap:round; stroke-linejoin:round; stroke-width:4; stroke-opacity:1; fill:none" points="464.341,1467.41 464.341,1448.51 "/>
<polyline clip-path="url(#clip970)" style="stroke:#000000; stroke-linecap:round; stroke-linejoin:round; stroke-width:4; stroke-opacity:1; fill:none" points="636.728,1467.41 636.728,1448.51 "/>
<polyline clip-path="url(#clip970)" style="stroke:#000000; stroke-linecap:round; stroke-linejoin:round; stroke-width:4; stroke-opacity:1; fill:none" points="809.115,1467.41 809.115,1448.51 "/>
<polyline clip-path="url(#clip970)" style="stroke:#000000; stroke-linecap:round; stroke-linejoin:round; stroke-width:4; stroke-opacity:1; fill:none" points="981.502,1467.41 981.502,1448.51 "/>
<path clip-path="url(#clip970)" d="M238.105 1539.14 Q236.19 1541.05 237.111 1543.91 Q238.032 1546.75 241.813 1550.53 Q245.582 1554.3 248.43 1555.23 Q251.278 1556.14 253.193 1554.23 Q255.12 1552.3 254.199 1549.46 Q253.279 1546.6 249.51 1542.83 Q245.729 1539.05 242.881 1538.14 Q240.033 1537.21 238.105 1539.14 M236.141 1537.17 Q239.222 1534.09 243.286 1534.92 Q247.349 1535.71 251.99 1540.35 Q256.618 1544.98 257.428 1549.06 Q258.238 1553.11 255.157 1556.19 Q252.076 1559.27 248.012 1558.47 Q243.949 1557.65 239.321 1553.02 Q234.68 1548.38 233.87 1544.33 Q233.06 1540.26 236.141 1537.17 Z" fill="#000000" fill-rule="nonzero" fill-opacity="1" /><path clip-path="url(#clip970)" d="M262.375 1542.02 L264.965 1539.43 L268.084 1542.55 L265.493 1545.14 L262.375 1542.02 Z" fill="#000000" fill-rule="nonzero" fill-opacity="1" /><path clip-path="url(#clip970)" d="M255.181 1518.8 L264.916 1509.06 L267.003 1511.15 L259.539 1518.61 L264.032 1523.11 Q264.388 1522.38 264.843 1521.76 Q265.285 1521.12 265.825 1520.58 Q268.894 1517.51 272.368 1517.4 Q275.842 1517.29 278.715 1520.16 Q281.673 1523.12 281.477 1526.6 Q281.268 1530.08 277.917 1533.43 Q276.763 1534.58 275.363 1535.59 Q273.976 1536.59 272.307 1537.47 L269.815 1534.98 Q271.521 1534.47 272.994 1533.59 Q274.467 1532.71 275.781 1531.39 Q277.904 1529.27 278.027 1526.91 Q278.15 1524.55 276.235 1522.64 Q274.32 1520.72 271.963 1520.85 Q269.606 1520.97 267.482 1523.09 Q266.488 1524.09 265.714 1525.3 Q264.953 1526.51 264.388 1528 L255.181 1518.8 Z" fill="#000000" fill-rule="nonzero" fill-opacity="1" /><path clip-path="url(#clip970)" d="M278.089 1499.16 Q276.174 1501.07 277.094 1503.93 Q278.015 1506.77 281.796 1510.55 Q285.565 1514.32 288.413 1515.25 Q291.261 1516.16 293.176 1514.24 Q295.103 1512.32 294.183 1509.48 Q293.262 1506.62 289.493 1502.85 Q285.712 1499.07 282.864 1498.16 Q280.016 1497.23 278.089 1499.16 M276.124 1497.19 Q279.206 1494.11 283.269 1494.93 Q287.333 1495.73 291.973 1500.37 Q296.601 1505 297.411 1509.07 Q298.221 1513.13 295.14 1516.21 Q292.059 1519.29 287.995 1518.49 Q283.932 1517.67 279.304 1513.04 Q274.664 1508.4 273.853 1504.35 Q273.043 1500.27 276.124 1497.19 Z" fill="#000000" fill-rule="nonzero" fill-opacity="1" /><path clip-path="url(#clip970)" d="M411.339 1538.29 Q409.424 1540.21 410.345 1543.07 Q411.266 1545.9 415.047 1549.68 Q418.815 1553.45 421.663 1554.39 Q424.512 1555.29 426.427 1553.38 Q428.354 1551.45 427.433 1548.62 Q426.513 1545.76 422.744 1541.99 Q418.963 1538.21 416.115 1537.3 Q413.267 1536.36 411.339 1538.29 M409.375 1536.33 Q412.456 1533.25 416.52 1534.07 Q420.583 1534.87 425.224 1539.51 Q429.852 1544.14 430.662 1548.21 Q431.472 1552.26 428.391 1555.34 Q425.309 1558.42 421.246 1557.63 Q417.183 1556.8 412.555 1552.18 Q407.914 1547.54 407.104 1543.48 Q406.294 1539.41 409.375 1536.33 Z" fill="#000000" fill-rule="nonzero" fill-opacity="1" /><path clip-path="url(#clip970)" d="M435.609 1541.18 L438.199 1538.59 L441.317 1541.7 L438.727 1544.29 L435.609 1541.18 Z" fill="#000000" fill-rule="nonzero" fill-opacity="1" /><path clip-path="url(#clip970)" d="M428.415 1517.95 L438.15 1508.22 L440.237 1510.3 L432.773 1517.77 L437.266 1522.26 Q437.622 1521.53 438.077 1520.91 Q438.519 1520.27 439.059 1519.73 Q442.128 1516.66 445.602 1516.55 Q449.076 1516.44 451.949 1519.31 Q454.907 1522.27 454.711 1525.76 Q454.502 1529.23 451.151 1532.58 Q449.997 1533.74 448.597 1534.74 Q447.21 1535.74 445.54 1536.62 L443.048 1534.13 Q444.755 1533.63 446.228 1532.74 Q447.701 1531.86 449.015 1530.55 Q451.138 1528.42 451.261 1526.06 Q451.384 1523.71 449.469 1521.79 Q447.554 1519.88 445.197 1520 Q442.84 1520.12 440.716 1522.25 Q439.722 1523.24 438.948 1524.46 Q438.187 1525.66 437.622 1527.16 L428.415 1517.95 Z" fill="#000000" fill-rule="nonzero" fill-opacity="1" /><path clip-path="url(#clip970)" d="M462.764 1516.08 L471.418 1507.43 L473.505 1509.52 L461.868 1521.15 L459.781 1519.07 Q459.732 1516.19 459.707 1511.31 Q459.683 1506.4 459.597 1505.06 Q459.449 1502.53 458.995 1501.14 Q458.541 1499.73 457.645 1498.84 Q456.184 1497.38 454.232 1497.49 Q452.292 1497.58 450.647 1499.23 Q449.481 1500.4 448.585 1502.1 Q447.701 1503.8 447.05 1506.09 L444.546 1503.59 Q445.442 1501.49 446.437 1499.88 Q447.431 1498.27 448.511 1497.19 Q451.359 1494.34 454.477 1494.07 Q457.596 1493.8 459.977 1496.18 Q461.107 1497.31 461.696 1498.76 Q462.285 1500.19 462.543 1502.68 Q462.592 1503.34 462.653 1506.69 Q462.702 1510.03 462.764 1516.08 Z" fill="#000000" fill-rule="nonzero" fill-opacity="1" /><path clip-path="url(#clip970)" d="M582.621 1539.4 Q580.706 1541.31 581.627 1544.17 Q582.548 1547.01 586.329 1550.79 Q590.097 1554.56 592.945 1555.49 Q595.794 1556.4 597.709 1554.48 Q599.636 1552.56 598.715 1549.72 Q597.795 1546.86 594.026 1543.09 Q590.245 1539.31 587.397 1538.4 Q584.549 1537.47 582.621 1539.4 M580.657 1537.43 Q583.738 1534.35 587.802 1535.17 Q591.865 1535.97 596.506 1540.61 Q601.134 1545.24 601.944 1549.32 Q602.754 1553.37 599.673 1556.45 Q596.591 1559.53 592.528 1558.73 Q588.465 1557.91 583.837 1553.28 Q579.196 1548.64 578.386 1544.59 Q577.576 1540.51 580.657 1537.43 Z" fill="#000000" fill-rule="nonzero" fill-opacity="1" /><path clip-path="url(#clip970)" d="M606.891 1542.28 L609.481 1539.69 L612.599 1542.81 L610.009 1545.4 L606.891 1542.28 Z" fill="#000000" fill-rule="nonzero" fill-opacity="1" /><path clip-path="url(#clip970)" d="M599.697 1519.06 L609.432 1509.32 L611.519 1511.41 L604.055 1518.87 L608.548 1523.36 Q608.904 1522.64 609.359 1522.01 Q609.801 1521.38 610.341 1520.84 Q613.41 1517.77 616.884 1517.66 Q620.358 1517.55 623.231 1520.42 Q626.189 1523.38 625.993 1526.86 Q625.784 1530.34 622.433 1533.69 Q621.279 1534.84 619.879 1535.85 Q618.492 1536.84 616.822 1537.73 L614.33 1535.24 Q616.037 1534.73 617.51 1533.85 Q618.983 1532.96 620.297 1531.65 Q622.42 1529.53 622.543 1527.17 Q622.666 1524.81 620.751 1522.9 Q618.836 1520.98 616.479 1521.11 Q614.122 1521.23 611.998 1523.35 Q611.004 1524.35 610.23 1525.56 Q609.469 1526.76 608.904 1528.26 L599.697 1519.06 Z" fill="#000000" fill-rule="nonzero" fill-opacity="1" /><path clip-path="url(#clip970)" d="M624.642 1498.43 L628.166 1514.48 L634.426 1508.22 L624.642 1498.43 M621.831 1496.92 L624.949 1493.8 L636.894 1505.75 L639.509 1503.13 L641.571 1505.2 L638.956 1507.81 L643.277 1512.13 L640.81 1514.6 L636.489 1510.28 L628.215 1518.55 L625.821 1516.16 L621.831 1496.92 Z" fill="#000000" fill-rule="nonzero" fill-opacity="1" /><path clip-path="url(#clip970)" d="M755.18 1539.22 Q753.265 1541.14 754.186 1544 Q755.106 1546.84 758.887 1550.62 Q762.656 1554.39 765.504 1555.32 Q768.352 1556.23 770.267 1554.31 Q772.195 1552.38 771.274 1549.55 Q770.353 1546.69 766.584 1542.92 Q762.803 1539.14 759.955 1538.23 Q757.107 1537.3 755.18 1539.22 M753.216 1537.26 Q756.297 1534.18 760.36 1535 Q764.424 1535.8 769.064 1540.44 Q773.692 1545.07 774.503 1549.14 Q775.313 1553.19 772.231 1556.28 Q769.15 1559.36 765.087 1558.56 Q761.023 1557.74 756.395 1553.11 Q751.755 1548.47 750.945 1544.42 Q750.134 1540.34 753.216 1537.26 Z" fill="#000000" fill-rule="nonzero" fill-opacity="1" /><path clip-path="url(#clip970)" d="M779.45 1542.11 L782.04 1539.52 L785.158 1542.64 L782.568 1545.23 L779.45 1542.11 Z" fill="#000000" fill-rule="nonzero" fill-opacity="1" /><path clip-path="url(#clip970)" d="M772.256 1518.88 L781.991 1509.15 L784.078 1511.24 L776.614 1518.7 L781.107 1523.19 Q781.463 1522.47 781.917 1521.84 Q782.359 1521.2 782.899 1520.66 Q785.968 1517.59 789.443 1517.48 Q792.917 1517.37 795.789 1520.25 Q798.748 1523.2 798.551 1526.69 Q798.343 1530.17 794.991 1533.52 Q793.837 1534.67 792.438 1535.68 Q791.051 1536.67 789.381 1537.56 L786.889 1535.06 Q788.595 1534.56 790.069 1533.68 Q791.542 1532.79 792.855 1531.48 Q794.979 1529.35 795.102 1527 Q795.225 1524.64 793.31 1522.73 Q791.394 1520.81 789.037 1520.93 Q786.68 1521.06 784.557 1523.18 Q783.562 1524.17 782.789 1525.39 Q782.028 1526.59 781.463 1528.09 L772.256 1518.88 Z" fill="#000000" fill-rule="nonzero" fill-opacity="1" /><path clip-path="url(#clip970)" d="M802.013 1505.48 Q800.344 1507.15 800.503 1509.27 Q800.675 1511.38 802.664 1513.37 Q804.64 1515.35 806.764 1515.53 Q808.888 1515.69 810.557 1514.02 Q812.227 1512.35 812.055 1510.24 Q811.883 1508.1 809.907 1506.13 Q807.918 1504.14 805.794 1503.98 Q803.683 1503.81 802.013 1505.48 M799.165 1492.78 L801.424 1495.04 Q800.049 1495.53 798.858 1496.26 Q797.68 1496.97 796.747 1497.9 Q794.292 1500.36 794.648 1503.32 Q795.016 1506.26 798.183 1509.8 Q797.839 1508.01 798.367 1506.35 Q798.883 1504.68 800.196 1503.37 Q802.959 1500.6 806.236 1500.69 Q809.514 1500.75 812.399 1503.64 Q815.222 1506.46 815.259 1509.84 Q815.296 1513.21 812.522 1515.99 Q809.342 1519.17 805.23 1518.42 Q801.105 1517.66 796.477 1513.03 Q792.131 1508.68 791.615 1504.04 Q791.088 1499.39 794.562 1495.91 Q795.495 1494.98 796.624 1494.22 Q797.766 1493.45 799.165 1492.78 Z" fill="#000000" fill-rule="nonzero" fill-opacity="1" /><path clip-path="url(#clip970)" d="M927.702 1539.09 Q925.787 1541 926.707 1543.87 Q927.628 1546.7 931.409 1550.48 Q935.178 1554.25 938.026 1555.18 Q940.874 1556.09 942.789 1554.18 Q944.717 1552.25 943.796 1549.41 Q942.875 1546.55 939.106 1542.78 Q935.325 1539 932.477 1538.1 Q929.629 1537.16 927.702 1539.09 M925.738 1537.13 Q928.819 1534.04 932.882 1534.87 Q936.946 1535.66 941.586 1540.31 Q946.214 1544.93 947.024 1549.01 Q947.835 1553.06 944.753 1556.14 Q941.672 1559.22 937.609 1558.42 Q933.545 1557.6 928.917 1552.97 Q924.277 1548.33 923.467 1544.28 Q922.656 1540.21 925.738 1537.13 Z" fill="#000000" fill-rule="nonzero" fill-opacity="1" /><path clip-path="url(#clip970)" d="M951.972 1541.97 L954.562 1539.38 L957.68 1542.5 L955.09 1545.09 L951.972 1541.97 Z" fill="#000000" fill-rule="nonzero" fill-opacity="1" /><path clip-path="url(#clip970)" d="M944.778 1518.75 L954.513 1509.01 L956.6 1511.1 L949.136 1518.56 L953.629 1523.06 Q953.985 1522.33 954.439 1521.71 Q954.881 1521.07 955.421 1520.53 Q958.49 1517.46 961.964 1517.35 Q965.439 1517.24 968.311 1520.11 Q971.27 1523.07 971.073 1526.56 Q970.865 1530.03 967.513 1533.38 Q966.359 1534.54 964.96 1535.54 Q963.573 1536.54 961.903 1537.42 L959.411 1534.93 Q961.117 1534.42 962.591 1533.54 Q964.064 1532.66 965.377 1531.34 Q967.501 1529.22 967.624 1526.86 Q967.746 1524.51 965.831 1522.59 Q963.916 1520.68 961.559 1520.8 Q959.202 1520.92 957.079 1523.04 Q956.084 1524.04 955.311 1525.25 Q954.55 1526.46 953.985 1527.96 L944.778 1518.75 Z" fill="#000000" fill-rule="nonzero" fill-opacity="1" /><path clip-path="url(#clip970)" d="M975.677 1507.1 Q973.909 1508.87 973.835 1510.83 Q973.774 1512.78 975.431 1514.44 Q977.089 1516.1 979.04 1516.04 Q981.005 1515.96 982.772 1514.19 Q984.54 1512.43 984.614 1510.46 Q984.675 1508.49 983.03 1506.84 Q981.373 1505.18 979.409 1505.26 Q977.457 1505.32 975.677 1507.1 M972.141 1508.52 Q970.153 1509.73 968.164 1509.53 Q966.187 1509.32 964.616 1507.75 Q962.419 1505.55 962.701 1502.72 Q962.996 1499.87 965.721 1497.14 Q968.458 1494.4 971.294 1494.12 Q974.13 1493.84 976.327 1496.04 Q977.899 1497.61 978.095 1499.6 Q978.304 1501.57 977.113 1503.55 Q979.323 1502.18 981.533 1502.4 Q983.754 1502.61 985.51 1504.36 Q988.174 1507.02 987.965 1510.08 Q987.769 1513.13 984.737 1516.16 Q981.704 1519.19 978.648 1519.4 Q975.603 1519.6 972.939 1516.93 Q971.184 1515.18 970.975 1512.95 Q970.766 1510.73 972.141 1508.52 M967.317 1505.51 Q968.741 1506.94 970.423 1506.85 Q972.117 1506.75 973.725 1505.15 Q975.321 1503.55 975.419 1501.86 Q975.53 1500.15 974.105 1498.73 Q972.681 1497.3 970.975 1497.41 Q969.281 1497.51 967.685 1499.11 Q966.077 1500.71 965.979 1502.41 Q965.893 1504.09 967.317 1505.51 Z" fill="#000000" fill-rule="nonzero" fill-opacity="1" /><polyline clip-path="url(#clip970)" style="stroke:#000000; stroke-linecap:round; stroke-linejoin:round; stroke-width:4; stroke-opacity:1; fill:none" points="161.818,1467.41 161.818,897.552 "/>
<polyline clip-path="url(#clip970)" style="stroke:#000000; stroke-linecap:round; stroke-linejoin:round; stroke-width:4; stroke-opacity:1; fill:none" points="161.818,1451.28 180.716,1451.28 "/>
<polyline clip-path="url(#clip970)" style="stroke:#000000; stroke-linecap:round; stroke-linejoin:round; stroke-width:4; stroke-opacity:1; fill:none" points="161.818,1330.37 180.716,1330.37 "/>
<polyline clip-path="url(#clip970)" style="stroke:#000000; stroke-linecap:round; stroke-linejoin:round; stroke-width:4; stroke-opacity:1; fill:none" points="161.818,1209.47 180.716,1209.47 "/>
<polyline clip-path="url(#clip970)" style="stroke:#000000; stroke-linecap:round; stroke-linejoin:round; stroke-width:4; stroke-opacity:1; fill:none" points="161.818,1088.56 180.716,1088.56 "/>
<polyline clip-path="url(#clip970)" style="stroke:#000000; stroke-linecap:round; stroke-linejoin:round; stroke-width:4; stroke-opacity:1; fill:none" points="161.818,967.654 180.716,967.654 "/>
<path clip-path="url(#clip970)" d="M60.315 1440.63 Q57.6067 1440.63 56.2352 1443.3 Q54.881 1445.96 54.881 1451.3 Q54.881 1456.63 56.2352 1459.31 Q57.6067 1461.96 60.315 1461.96 Q63.0407 1461.96 64.3948 1459.31 Q65.7664 1456.63 65.7664 1451.3 Q65.7664 1445.96 64.3948 1443.3 Q63.0407 1440.63 60.315 1440.63 M60.315 1437.85 Q64.6726 1437.85 66.9643 1441.3 Q69.2733 1444.74 69.2733 1451.3 Q69.2733 1457.85 66.9643 1461.3 Q64.6726 1464.74 60.315 1464.74 Q55.9574 1464.74 53.6484 1461.3 Q51.3567 1457.85 51.3567 1451.3 Q51.3567 1444.74 53.6484 1441.3 Q55.9574 1437.85 60.315 1437.85 Z" fill="#000000" fill-rule="nonzero" fill-opacity="1" /><path clip-path="url(#clip970)" d="M75.4364 1459.83 L79.0996 1459.83 L79.0996 1464.24 L75.4364 1464.24 L75.4364 1459.83 Z" fill="#000000" fill-rule="nonzero" fill-opacity="1" /><path clip-path="url(#clip970)" d="M94.2384 1440.63 Q91.5301 1440.63 90.1586 1443.3 Q88.8044 1445.96 88.8044 1451.3 Q88.8044 1456.63 90.1586 1459.31 Q91.5301 1461.96 94.2384 1461.96 Q96.9641 1461.96 98.3183 1459.31 Q99.6898 1456.63 99.6898 1451.3 Q99.6898 1445.96 98.3183 1443.3 Q96.9641 1440.63 94.2384 1440.63 M94.2384 1437.85 Q98.596 1437.85 100.888 1441.3 Q103.197 1444.74 103.197 1451.3 Q103.197 1457.85 100.888 1461.3 Q98.596 1464.74 94.2384 1464.74 Q89.8808 1464.74 87.5718 1461.3 Q85.2801 1457.85 85.2801 1451.3 Q85.2801 1444.74 87.5718 1441.3 Q89.8808 1437.85 94.2384 1437.85 Z" fill="#000000" fill-rule="nonzero" fill-opacity="1" /><path clip-path="url(#clip970)" d="M116.86 1440.63 Q114.152 1440.63 112.78 1443.3 Q111.426 1445.96 111.426 1451.3 Q111.426 1456.63 112.78 1459.31 Q114.152 1461.96 116.86 1461.96 Q119.586 1461.96 120.94 1459.31 Q122.311 1456.63 122.311 1451.3 Q122.311 1445.96 120.94 1443.3 Q119.586 1440.63 116.86 1440.63 M116.86 1437.85 Q121.217 1437.85 123.509 1441.3 Q125.818 1444.74 125.818 1451.3 Q125.818 1457.85 123.509 1461.3 Q121.217 1464.74 116.86 1464.74 Q112.502 1464.74 110.193 1461.3 Q107.902 1457.85 107.902 1451.3 Q107.902 1444.74 110.193 1441.3 Q112.502 1437.85 116.86 1437.85 Z" fill="#000000" fill-rule="nonzero" fill-opacity="1" /><path clip-path="url(#clip970)" d="M61.2351 1319.72 Q58.5268 1319.72 57.1553 1322.39 Q55.8011 1325.05 55.8011 1330.4 Q55.8011 1335.73 57.1553 1338.4 Q58.5268 1341.06 61.2351 1341.06 Q63.9608 1341.06 65.315 1338.4 Q66.6865 1335.73 66.6865 1330.4 Q66.6865 1325.05 65.315 1322.39 Q63.9608 1319.72 61.2351 1319.72 M61.2351 1316.94 Q65.5927 1316.94 67.8844 1320.4 Q70.1934 1323.84 70.1934 1330.4 Q70.1934 1336.94 67.8844 1340.4 Q65.5927 1343.84 61.2351 1343.84 Q56.8775 1343.84 54.5685 1340.4 Q52.2768 1336.94 52.2768 1330.4 Q52.2768 1323.84 54.5685 1320.4 Q56.8775 1316.94 61.2351 1316.94 Z" fill="#000000" fill-rule="nonzero" fill-opacity="1" /><path clip-path="url(#clip970)" d="M76.3566 1338.92 L80.0197 1338.92 L80.0197 1343.33 L76.3566 1343.33 L76.3566 1338.92 Z" fill="#000000" fill-rule="nonzero" fill-opacity="1" /><path clip-path="url(#clip970)" d="M95.1586 1319.72 Q92.4502 1319.72 91.0787 1322.39 Q89.7246 1325.05 89.7246 1330.4 Q89.7246 1335.73 91.0787 1338.4 Q92.4502 1341.06 95.1586 1341.06 Q97.8842 1341.06 99.2384 1338.4 Q100.61 1335.73 100.61 1330.4 Q100.61 1325.05 99.2384 1322.39 Q97.8842 1319.72 95.1586 1319.72 M95.1586 1316.94 Q99.5162 1316.94 101.808 1320.4 Q104.117 1323.84 104.117 1330.4 Q104.117 1336.94 101.808 1340.4 Q99.5162 1343.84 95.1586 1343.84 Q90.8009 1343.84 88.4919 1340.4 Q86.2003 1336.94 86.2003 1330.4 Q86.2003 1323.84 88.4919 1320.4 Q90.8009 1316.94 95.1586 1316.94 Z" fill="#000000" fill-rule="nonzero" fill-opacity="1" /><path clip-path="url(#clip970)" d="M110.888 1340.38 L116.617 1340.38 L116.617 1320.61 L110.384 1321.86 L110.384 1318.66 L116.582 1317.41 L120.089 1317.41 L120.089 1340.38 L125.818 1340.38 L125.818 1343.33 L110.888 1343.33 L110.888 1340.38 Z" fill="#000000" fill-rule="nonzero" fill-opacity="1" /><path clip-path="url(#clip970)" d="M61.5129 1198.82 Q58.8046 1198.82 57.4331 1201.49 Q56.0789 1204.14 56.0789 1209.49 Q56.0789 1214.82 57.4331 1217.5 Q58.8046 1220.15 61.5129 1220.15 Q64.2386 1220.15 65.5927 1217.5 Q66.9643 1214.82 66.9643 1209.49 Q66.9643 1204.14 65.5927 1201.49 Q64.2386 1198.82 61.5129 1198.82 M61.5129 1196.04 Q65.8705 1196.04 68.1622 1199.49 Q70.4712 1202.93 70.4712 1209.49 Q70.4712 1216.04 68.1622 1219.49 Q65.8705 1222.93 61.5129 1222.93 Q57.1553 1222.93 54.8463 1219.49 Q52.5546 1216.04 52.5546 1209.49 Q52.5546 1202.93 54.8463 1199.49 Q57.1553 1196.04 61.5129 1196.04 Z" fill="#000000" fill-rule="nonzero" fill-opacity="1" /><path clip-path="url(#clip970)" d="M76.6343 1218.02 L80.2975 1218.02 L80.2975 1222.43 L76.6343 1222.43 L76.6343 1218.02 Z" fill="#000000" fill-rule="nonzero" fill-opacity="1" /><path clip-path="url(#clip970)" d="M95.4363 1198.82 Q92.728 1198.82 91.3565 1201.49 Q90.0023 1204.14 90.0023 1209.49 Q90.0023 1214.82 91.3565 1217.5 Q92.728 1220.15 95.4363 1220.15 Q98.162 1220.15 99.5162 1217.5 Q100.888 1214.82 100.888 1209.49 Q100.888 1204.14 99.5162 1201.49 Q98.162 1198.82 95.4363 1198.82 M95.4363 1196.04 Q99.7939 1196.04 102.086 1199.49 Q104.395 1202.93 104.395 1209.49 Q104.395 1216.04 102.086 1219.49 Q99.7939 1222.93 95.4363 1222.93 Q91.0787 1222.93 88.7697 1219.49 Q86.478 1216.04 86.478 1209.49 Q86.478 1202.93 88.7697 1199.49 Q91.0787 1196.04 95.4363 1196.04 Z" fill="#000000" fill-rule="nonzero" fill-opacity="1" /><path clip-path="url(#clip970)" d="M113.579 1219.47 L125.818 1219.47 L125.818 1222.43 L109.36 1222.43 L109.36 1219.47 Q111.356 1217.41 114.794 1213.94 Q118.249 1210.45 119.134 1209.44 Q120.818 1207.55 121.478 1206.25 Q122.155 1204.93 122.155 1203.66 Q122.155 1201.59 120.697 1200.29 Q119.256 1198.99 116.929 1198.99 Q115.28 1198.99 113.44 1199.56 Q111.617 1200.13 109.533 1201.3 L109.533 1197.76 Q111.652 1196.91 113.492 1196.47 Q115.332 1196.04 116.86 1196.04 Q120.888 1196.04 123.283 1198.05 Q125.679 1200.07 125.679 1203.43 Q125.679 1205.03 125.072 1206.47 Q124.481 1207.89 122.901 1209.84 Q122.467 1210.34 120.141 1212.76 Q117.815 1215.15 113.579 1219.47 Z" fill="#000000" fill-rule="nonzero" fill-opacity="1" /><path clip-path="url(#clip970)" d="M60.8011 1077.91 Q58.0928 1077.91 56.7213 1080.58 Q55.3671 1083.24 55.3671 1088.59 Q55.3671 1093.92 56.7213 1096.59 Q58.0928 1099.25 60.8011 1099.25 Q63.5268 1099.25 64.8809 1096.59 Q66.2525 1093.92 66.2525 1088.59 Q66.2525 1083.24 64.8809 1080.58 Q63.5268 1077.91 60.8011 1077.91 M60.8011 1075.13 Q65.1587 1075.13 67.4504 1078.59 Q69.7594 1082.02 69.7594 1088.59 Q69.7594 1095.13 67.4504 1098.59 Q65.1587 1102.02 60.8011 1102.02 Q56.4435 1102.02 54.1345 1098.59 Q51.8428 1095.13 51.8428 1088.59 Q51.8428 1082.02 54.1345 1078.59 Q56.4435 1075.13 60.8011 1075.13 Z" fill="#000000" fill-rule="nonzero" fill-opacity="1" /><path clip-path="url(#clip970)" d="M75.9225 1097.11 L79.5857 1097.11 L79.5857 1101.52 L75.9225 1101.52 L75.9225 1097.11 Z" fill="#000000" fill-rule="nonzero" fill-opacity="1" /><path clip-path="url(#clip970)" d="M94.7245 1077.91 Q92.0162 1077.91 90.6447 1080.58 Q89.2905 1083.24 89.2905 1088.59 Q89.2905 1093.92 90.6447 1096.59 Q92.0162 1099.25 94.7245 1099.25 Q97.4502 1099.25 98.8044 1096.59 Q100.176 1093.92 100.176 1088.59 Q100.176 1083.24 98.8044 1080.58 Q97.4502 1077.91 94.7245 1077.91 M94.7245 1075.13 Q99.0821 1075.13 101.374 1078.59 Q103.683 1082.02 103.683 1088.59 Q103.683 1095.13 101.374 1098.59 Q99.0821 1102.02 94.7245 1102.02 Q90.3669 1102.02 88.0579 1098.59 Q85.7662 1095.13 85.7662 1088.59 Q85.7662 1082.02 88.0579 1078.59 Q90.3669 1075.13 94.7245 1075.13 Z" fill="#000000" fill-rule="nonzero" fill-opacity="1" /><path clip-path="url(#clip970)" d="M120.471 1087.54 Q122.988 1088.08 124.395 1089.78 Q125.818 1091.49 125.818 1093.99 Q125.818 1097.82 123.179 1099.92 Q120.54 1102.02 115.679 1102.02 Q114.047 1102.02 112.311 1101.69 Q110.593 1101.38 108.752 1100.74 L108.752 1097.35 Q110.211 1098.2 111.947 1098.64 Q113.683 1099.07 115.575 1099.07 Q118.874 1099.07 120.592 1097.77 Q122.329 1096.47 122.329 1093.99 Q122.329 1091.69 120.714 1090.41 Q119.117 1089.11 116.252 1089.11 L113.231 1089.11 L113.231 1086.22 L116.391 1086.22 Q118.978 1086.22 120.349 1085.2 Q121.721 1084.16 121.721 1082.21 Q121.721 1080.22 120.297 1079.16 Q118.891 1078.08 116.252 1078.08 Q114.811 1078.08 113.162 1078.4 Q111.513 1078.71 109.533 1079.37 L109.533 1076.24 Q111.53 1075.69 113.266 1075.41 Q115.02 1075.13 116.565 1075.13 Q120.558 1075.13 122.884 1076.95 Q125.21 1078.76 125.21 1081.85 Q125.21 1084 123.978 1085.5 Q122.745 1086.97 120.471 1087.54 Z" fill="#000000" fill-rule="nonzero" fill-opacity="1" /><path clip-path="url(#clip970)" d="M59.9504 957.003 Q57.2421 957.003 55.8706 959.676 Q54.5164 962.333 54.5164 967.68 Q54.5164 973.01 55.8706 975.683 Q57.2421 978.339 59.9504 978.339 Q62.6761 978.339 64.0303 975.683 Q65.4018 973.01 65.4018 967.68 Q65.4018 962.333 64.0303 959.676 Q62.6761 957.003 59.9504 957.003 M59.9504 954.225 Q64.308 954.225 66.5997 957.68 Q68.9087 961.117 68.9087 967.68 Q68.9087 974.225 66.5997 977.68 Q64.308 981.117 59.9504 981.117 Q55.5928 981.117 53.2838 977.68 Q50.9921 974.225 50.9921 967.68 Q50.9921 961.117 53.2838 957.68 Q55.5928 954.225 59.9504 954.225 Z" fill="#000000" fill-rule="nonzero" fill-opacity="1" /><path clip-path="url(#clip970)" d="M75.0719 976.204 L78.735 976.204 L78.735 980.614 L75.0719 980.614 L75.0719 976.204 Z" fill="#000000" fill-rule="nonzero" fill-opacity="1" /><path clip-path="url(#clip970)" d="M93.8738 957.003 Q91.1655 957.003 89.794 959.676 Q88.4398 962.333 88.4398 967.68 Q88.4398 973.01 89.794 975.683 Q91.1655 978.339 93.8738 978.339 Q96.5995 978.339 97.9537 975.683 Q99.3252 973.01 99.3252 967.68 Q99.3252 962.333 97.9537 959.676 Q96.5995 957.003 93.8738 957.003 M93.8738 954.225 Q98.2315 954.225 100.523 957.68 Q102.832 961.117 102.832 967.68 Q102.832 974.225 100.523 977.68 Q98.2315 981.117 93.8738 981.117 Q89.5162 981.117 87.2072 977.68 Q84.9156 974.225 84.9156 967.68 Q84.9156 961.117 87.2072 957.68 Q89.5162 954.225 93.8738 954.225 Z" fill="#000000" fill-rule="nonzero" fill-opacity="1" /><path clip-path="url(#clip970)" d="M118.631 957.749 L109.777 971.586 L118.631 971.586 L118.631 957.749 M117.711 954.694 L122.12 954.694 L122.12 971.586 L125.818 971.586 L125.818 974.503 L122.12 974.503 L122.12 980.614 L118.631 980.614 L118.631 974.503 L106.929 974.503 L106.929 971.117 L117.711 954.694 Z" fill="#000000" fill-rule="nonzero" fill-opacity="1" /><path clip-path="url(#clip970)" d="M173.716 818.926 Q170.198 818.926 168.3 821.472 Q166.309 824.134 166.309 828.532 Q166.309 833.185 168.276 835.87 Q170.267 838.532 173.716 838.532 Q177.119 838.532 179.11 835.847 Q181.1 833.162 181.1 828.532 Q181.1 824.296 179.11 821.472 Q177.281 818.926 173.716 818.926 M173.716 815.546 L187.86 815.546 L187.86 819.805 L183.091 819.805 Q185.614 823.417 185.614 828.532 Q185.614 834.898 182.443 838.509 Q179.272 842.143 173.716 842.143 Q168.138 842.143 164.989 838.509 Q161.818 834.898 161.818 828.532 Q161.818 822.12 164.989 818.532 Q167.605 815.546 173.716 815.546 Z" fill="#000000" fill-rule="nonzero" fill-opacity="1" /><path clip-path="url(#clip970)" d="M198.878 841.472 L190.961 815.546 L195.545 815.546 L202.235 837.305 Q205.012 834.435 207.327 830.454 Q209.086 827.467 209.179 824.875 Q209.225 823.648 208.67 821.333 Q208.022 818.579 205.568 815.546 L209.873 815.546 L209.873 815.546 Q211.471 817.606 212.535 820.477 Q213.508 823.116 213.508 824.921 Q213.508 829.458 210.36 833.509 Q206.262 838.787 203.415 841.472 L198.878 841.472 Z" fill="#000000" fill-rule="nonzero" fill-opacity="1" /><polyline clip-path="url(#clip974)" style="stroke:#009af9; stroke-linecap:round; stroke-linejoin:round; stroke-width:4; stroke-opacity:1; fill:none" points="189.869,964.952 248.307,1022.94 306.746,1081.73 365.185,1141.32 423.623,1201.71 482.062,1262.9 540.501,1324.89 598.939,1387.68 657.378,1451.28 715.817,1386.88 774.256,1321.69 832.694,1255.69 891.133,1188.89 949.572,1121.29 1008.01,1052.89 1066.45,983.684 1124.89,913.68 "/>
<circle clip-path="url(#clip974)" cx="657.378" cy="1451.28" r="10.8" fill="#ff0000" fill-rule="evenodd" fill-opacity="1" stroke="#000000" stroke-opacity="1" stroke-width="3.2"/>
</svg>
