<?xml version="1.0" encoding="utf-8"?>
<svg xmlns="http://www.w3.org/2000/svg" xmlns:xlink="http://www.w3.org/1999/xlink" width="600" height="400" viewBox="0 0 2400 1600">
<defs>
  <clipPath id="clip020">
    <rect x="0" y="0" width="2400" height="1600"/>
  </clipPath>
</defs>
<path clip-path="url(#clip020)" d="M0 1600 L2400 1600 L2400 0 L0 0  Z" fill="#ffffff" fill-rule="evenodd" fill-opacity="1"/>
<defs>
  <clipPath id="clip021">
    <rect x="1608" y="897" width="745" height="588"/>
  </clipPath>
</defs>
<path clip-path="url(#clip020)" d="M128.138 667.406 L1152.76 667.406 L1152.76 97.5521 L128.138 97.5521  Z" fill="#ffffff" fill-rule="evenodd" fill-opacity="1"/>
<defs>
  <clipPath id="clip022">
    <rect x="128" y="97" width="1026" height="571"/>
  </clipPath>
</defs>
<polyline clip-path="url(#clip022)" style="stroke:#000000; stroke-linecap:round; stroke-linejoin:round; stroke-width:2; stroke-opacity:0.1; fill:none" points="275.684,667.406 275.684,97.5521 "/>
<polyline clip-path="url(#clip022)" style="stroke:#000000; stroke-linecap:round; stroke-linejoin:round; stroke-width:2; stroke-opacity:0.1; fill:none" points="458.066,667.406 458.066,97.5521 "/>
<polyline clip-path="url(#clip022)" style="stroke:#000000; stroke-linecap:round; stroke-linejoin:round; stroke-width:2; stroke-opacity:0.1; fill:none" points="640.447,667.406 640.447,97.5521 "/>
<polyline clip-path="url(#clip022)" style="stroke:#000000; stroke-linecap:round; stroke-linejoin:round; stroke-width:2; stroke-opacity:0.1; fill:none" points="822.828,667.406 822.828,97.5521 "/>
<polyline clip-path="url(#clip022)" style="stroke:#000000; stroke-linecap:round; stroke-linejoin:round; stroke-width:2; stroke-opacity:0.1; fill:none" points="1005.21,667.406 1005.21,97.5521 "/>
<polyline clip-path="url(#clip022)" style="stroke:#000000; stroke-linecap:round; stroke-linejoin:round; stroke-width:2; stroke-opacity:0.1; fill:none" points="128.138,667.406 1152.76,667.406 "/>
<polyline clip-path="url(#clip022)" style="stroke:#000000; stroke-linecap:round; stroke-linejoin:round; stroke-width:2; stroke-opacity:0.1; fill:none" points="128.138,546.161 1152.76,546.161 "/>
<polyline clip-path="url(#clip022)" style="stroke:#000000; stroke-linecap:round; stroke-linejoin:round; stroke-width:2; stroke-opacity:0.1; fill:none" points="128.138,424.915 1152.76,424.915 "/>
<polyline clip-path="url(#clip022)" style="stroke:#000000; stroke-linecap:round; stroke-linejoin:round; stroke-width:2; stroke-opacity:0.1; fill:none" points="128.138,303.67 1152.76,303.67 "/>
<polyline clip-path="url(#clip022)" style="stroke:#000000; stroke-linecap:round; stroke-linejoin:round; stroke-width:2; stroke-opacity:0.1; fill:none" points="128.138,182.424 1152.76,182.424 "/>
<polyline clip-path="url(#clip020)" style="stroke:#000000; stroke-linecap:round; stroke-linejoin:round; stroke-width:4; stroke-opacity:1; fill:none" points="128.138,667.406 1152.76,667.406 "/>
<polyline clip-path="url(#clip020)" style="stroke:#000000; stroke-linecap:round; stroke-linejoin:round; stroke-width:4; stroke-opacity:1; fill:none" points="275.684,667.406 275.684,648.509 "/>
<polyline clip-path="url(#clip020)" style="stroke:#000000; stroke-linecap:round; stroke-linejoin:round; stroke-width:4; stroke-opacity:1; fill:none" points="458.066,667.406 458.066,648.509 "/>
<polyline clip-path="url(#clip020)" style="stroke:#000000; stroke-linecap:round; stroke-linejoin:round; stroke-width:4; stroke-opacity:1; fill:none" points="640.447,667.406 640.447,648.509 "/>
<polyline clip-path="url(#clip020)" style="stroke:#000000; stroke-linecap:round; stroke-linejoin:round; stroke-width:4; stroke-opacity:1; fill:none" points="822.828,667.406 822.828,648.509 "/>
<polyline clip-path="url(#clip020)" style="stroke:#000000; stroke-linecap:round; stroke-linejoin:round; stroke-width:4; stroke-opacity:1; fill:none" points="1005.21,667.406 1005.21,648.509 "/>
<path clip-path="url(#clip020)" d="M222.314 738.66 Q220.399 740.575 221.32 743.435 Q222.24 746.271 226.021 750.052 Q229.79 753.821 232.638 754.754 Q235.486 755.662 237.401 753.747 Q239.329 751.82 238.408 748.984 Q237.487 746.124 233.718 742.355 Q229.937 738.574 227.089 737.666 Q224.241 736.733 222.314 738.66 M220.35 736.696 Q223.431 733.615 227.494 734.437 Q231.558 735.235 236.198 739.875 Q240.826 744.503 241.636 748.579 Q242.447 752.63 239.365 755.712 Q236.284 758.793 232.221 757.995 Q228.157 757.172 223.529 752.544 Q218.889 747.904 218.079 743.853 Q217.268 739.777 220.35 736.696 Z" fill="#000000" fill-rule="nonzero" fill-opacity="1" /><path clip-path="url(#clip020)" d="M246.584 741.545 L249.174 738.955 L252.292 742.073 L249.702 744.663 L246.584 741.545 Z" fill="#000000" fill-rule="nonzero" fill-opacity="1" /><path clip-path="url(#clip020)" d="M254.293 722.664 Q252.525 724.432 252.452 726.396 Q252.39 728.348 254.048 730.005 Q255.705 731.663 257.657 731.601 Q259.621 731.528 261.389 729.76 Q263.156 727.992 263.23 726.028 Q263.291 724.052 261.647 722.407 Q259.989 720.749 258.025 720.823 Q256.073 720.884 254.293 722.664 M250.758 724.088 Q248.769 725.291 246.78 725.095 Q244.804 724.886 243.232 723.315 Q241.035 721.118 241.317 718.282 Q241.612 715.434 244.337 712.708 Q247.075 709.971 249.911 709.688 Q252.746 709.406 254.944 711.604 Q256.515 713.175 256.712 715.164 Q256.92 717.14 255.729 719.117 Q257.939 717.742 260.149 717.963 Q262.371 718.171 264.126 719.927 Q266.79 722.591 266.581 725.647 Q266.385 728.692 263.353 731.724 Q260.321 734.756 257.264 734.965 Q254.219 735.161 251.556 732.497 Q249.8 730.742 249.591 728.52 Q249.383 726.298 250.758 724.088 M245.933 721.081 Q247.357 722.505 249.039 722.419 Q250.733 722.321 252.341 720.712 Q253.937 719.117 254.035 717.422 Q254.146 715.716 252.722 714.292 Q251.298 712.868 249.591 712.978 Q247.897 713.077 246.301 714.673 Q244.693 716.281 244.595 717.975 Q244.509 719.657 245.933 721.081 Z" fill="#000000" fill-rule="nonzero" fill-opacity="1" /><path clip-path="url(#clip020)" d="M254.735 702.973 L266.52 691.188 L267.576 692.244 L278.195 716.17 L275.604 718.761 L265.624 696.258 L256.822 705.06 L254.735 702.973 Z" fill="#000000" fill-rule="nonzero" fill-opacity="1" /><path clip-path="url(#clip020)" d="M404.266 739.09 Q402.35 741.005 403.271 743.865 Q404.192 746.701 407.973 750.482 Q411.742 754.251 414.59 755.184 Q417.438 756.092 419.353 754.177 Q421.28 752.25 420.359 749.414 Q419.439 746.554 415.67 742.785 Q411.889 739.004 409.041 738.095 Q406.193 737.162 404.266 739.09 M402.301 737.126 Q405.383 734.044 409.446 734.867 Q413.509 735.665 418.15 740.305 Q422.778 744.933 423.588 749.009 Q424.398 753.06 421.317 756.141 Q418.236 759.223 414.172 758.425 Q410.109 757.602 405.481 752.974 Q400.841 748.334 400.03 744.283 Q399.22 740.207 402.301 737.126 Z" fill="#000000" fill-rule="nonzero" fill-opacity="1" /><path clip-path="url(#clip020)" d="M428.535 741.975 L431.126 739.384 L434.244 742.502 L431.654 745.093 L428.535 741.975 Z" fill="#000000" fill-rule="nonzero" fill-opacity="1" /><path clip-path="url(#clip020)" d="M436.245 723.094 Q434.477 724.862 434.403 726.826 Q434.342 728.778 435.999 730.435 Q437.657 732.092 439.608 732.031 Q441.573 731.957 443.34 730.19 Q445.108 728.422 445.182 726.458 Q445.243 724.481 443.598 722.836 Q441.941 721.179 439.977 721.253 Q438.025 721.314 436.245 723.094 M432.709 724.518 Q430.721 725.721 428.732 725.525 Q426.755 725.316 425.184 723.745 Q422.987 721.547 423.269 718.711 Q423.564 715.863 426.289 713.138 Q429.026 710.4 431.862 710.118 Q434.698 709.836 436.895 712.033 Q438.467 713.605 438.663 715.593 Q438.872 717.57 437.681 719.546 Q439.891 718.171 442.1 718.392 Q444.322 718.601 446.078 720.356 Q448.742 723.02 448.533 726.077 Q448.337 729.122 445.305 732.154 Q442.272 735.186 439.216 735.395 Q436.171 735.591 433.507 732.927 Q431.752 731.172 431.543 728.95 Q431.334 726.728 432.709 724.518 M427.885 721.51 Q429.309 722.934 430.991 722.848 Q432.685 722.75 434.293 721.142 Q435.889 719.546 435.987 717.852 Q436.097 716.146 434.673 714.722 Q433.249 713.298 431.543 713.408 Q429.849 713.506 428.253 715.102 Q426.645 716.71 426.547 718.405 Q426.461 720.086 427.885 721.51 Z" fill="#000000" fill-rule="nonzero" fill-opacity="1" /><path clip-path="url(#clip020)" d="M452.241 707.098 Q450.473 708.866 450.399 710.83 Q450.338 712.782 451.995 714.439 Q453.652 716.097 455.604 716.035 Q457.568 715.962 459.336 714.194 Q461.104 712.426 461.178 710.462 Q461.239 708.485 459.594 706.84 Q457.937 705.183 455.972 705.257 Q454.021 705.318 452.241 707.098 M448.705 708.522 Q446.716 709.725 444.728 709.529 Q442.751 709.32 441.18 707.749 Q438.982 705.551 439.265 702.716 Q439.559 699.868 442.285 697.142 Q445.022 694.405 447.858 694.122 Q450.694 693.84 452.891 696.037 Q454.462 697.609 454.659 699.598 Q454.868 701.574 453.677 703.55 Q455.887 702.176 458.096 702.396 Q460.318 702.605 462.074 704.361 Q464.738 707.025 464.529 710.081 Q464.332 713.126 461.3 716.158 Q458.268 719.19 455.211 719.399 Q452.167 719.595 449.503 716.931 Q447.747 715.176 447.539 712.954 Q447.33 710.732 448.705 708.522 M443.88 705.515 Q445.305 706.939 446.986 706.853 Q448.68 706.754 450.289 705.146 Q451.885 703.55 451.983 701.856 Q452.093 700.15 450.669 698.726 Q449.245 697.302 447.539 697.412 Q445.845 697.511 444.249 699.106 Q442.641 700.715 442.542 702.409 Q442.456 704.091 443.88 705.515 Z" fill="#000000" fill-rule="nonzero" fill-opacity="1" /><path clip-path="url(#clip020)" d="M586.696 739.041 Q584.781 740.956 585.702 743.816 Q586.622 746.652 590.403 750.433 Q594.172 754.202 597.02 755.135 Q599.868 756.043 601.783 754.128 Q603.711 752.201 602.79 749.365 Q601.869 746.504 598.1 742.736 Q594.319 738.955 591.471 738.046 Q588.623 737.113 586.696 739.041 M584.732 737.076 Q587.813 733.995 591.876 734.818 Q595.94 735.616 600.58 740.256 Q605.208 744.884 606.019 748.96 Q606.829 753.011 603.747 756.092 Q600.666 759.173 596.603 758.375 Q592.539 757.553 587.911 752.925 Q583.271 748.285 582.461 744.233 Q581.65 740.158 584.732 737.076 Z" fill="#000000" fill-rule="nonzero" fill-opacity="1" /><path clip-path="url(#clip020)" d="M610.966 741.926 L613.556 739.335 L616.674 742.453 L614.084 745.044 L610.966 741.926 Z" fill="#000000" fill-rule="nonzero" fill-opacity="1" /><path clip-path="url(#clip020)" d="M618.675 723.045 Q616.907 724.813 616.834 726.777 Q616.772 728.729 618.43 730.386 Q620.087 732.043 622.039 731.982 Q624.003 731.908 625.771 730.14 Q627.539 728.373 627.612 726.409 Q627.674 724.432 626.029 722.787 Q624.371 721.13 622.407 721.203 Q620.455 721.265 618.675 723.045 M615.14 724.469 Q613.151 725.672 611.162 725.476 Q609.186 725.267 607.614 723.696 Q605.417 721.498 605.699 718.662 Q605.994 715.814 608.719 713.089 Q611.457 710.351 614.293 710.069 Q617.128 709.787 619.326 711.984 Q620.897 713.555 621.094 715.544 Q621.302 717.521 620.111 719.497 Q622.321 718.122 624.531 718.343 Q626.753 718.552 628.508 720.307 Q631.172 722.971 630.964 726.028 Q630.767 729.072 627.735 732.105 Q624.703 735.137 621.646 735.346 Q618.602 735.542 615.938 732.878 Q614.182 731.123 613.973 728.901 Q613.765 726.679 615.14 724.469 M610.315 721.461 Q611.739 722.885 613.421 722.799 Q615.115 722.701 616.723 721.093 Q618.319 719.497 618.417 717.803 Q618.528 716.097 617.104 714.673 Q615.68 713.249 613.973 713.359 Q612.279 713.457 610.683 715.053 Q609.075 716.661 608.977 718.355 Q608.891 720.037 610.315 721.461 Z" fill="#000000" fill-rule="nonzero" fill-opacity="1" /><path clip-path="url(#clip020)" d="M637.764 720.602 L635.506 718.343 Q636.881 717.852 638.071 717.128 Q639.262 716.404 640.183 715.483 Q642.638 713.028 642.282 710.094 Q641.926 707.135 638.747 703.587 Q639.09 705.355 638.562 707.012 Q638.035 708.67 636.709 709.995 Q633.959 712.745 630.693 712.696 Q627.428 712.622 624.543 709.738 Q621.72 706.914 621.683 703.538 Q621.646 700.162 624.42 697.388 Q627.6 694.208 631.712 694.982 Q635.825 695.731 640.465 700.371 Q644.799 704.704 645.327 709.357 Q645.854 713.985 642.38 717.459 Q641.447 718.392 640.306 719.166 Q639.164 719.939 637.764 720.602 M634.929 707.896 Q636.598 706.227 636.426 704.115 Q636.267 701.991 634.278 700.003 Q632.302 698.026 630.178 697.867 Q628.054 697.682 626.385 699.352 Q624.715 701.022 624.887 703.158 Q625.059 705.269 627.035 707.246 Q629.024 709.234 631.135 709.406 Q633.259 709.566 634.929 707.896 Z" fill="#000000" fill-rule="nonzero" fill-opacity="1" /><path clip-path="url(#clip020)" d="M768.979 739.139 Q767.064 741.054 767.985 743.914 Q768.905 746.75 772.686 750.531 Q776.455 754.3 779.303 755.233 Q782.151 756.141 784.066 754.226 Q785.994 752.299 785.073 749.463 Q784.152 746.603 780.384 742.834 Q776.602 739.053 773.754 738.144 Q770.906 737.211 768.979 739.139 M767.015 737.175 Q770.096 734.093 774.16 734.916 Q778.223 735.714 782.863 740.354 Q787.491 744.982 788.302 749.058 Q789.112 753.109 786.031 756.19 Q782.949 759.272 778.886 758.474 Q774.822 757.651 770.194 753.023 Q765.554 748.383 764.744 744.332 Q763.934 740.256 767.015 737.175 Z" fill="#000000" fill-rule="nonzero" fill-opacity="1" /><path clip-path="url(#clip020)" d="M793.249 742.024 L795.839 739.433 L798.957 742.552 L796.367 745.142 L793.249 742.024 Z" fill="#000000" fill-rule="nonzero" fill-opacity="1" /><path clip-path="url(#clip020)" d="M804.052 736.696 L801.793 734.437 Q803.168 733.946 804.359 733.222 Q805.55 732.497 806.47 731.577 Q808.925 729.122 808.569 726.188 Q808.213 723.229 805.034 719.681 Q805.378 721.449 804.85 723.106 Q804.322 724.764 802.996 726.089 Q800.246 728.839 796.981 728.79 Q793.715 728.716 790.83 725.832 Q788.007 723.008 787.97 719.632 Q787.933 716.256 790.708 713.482 Q793.887 710.302 798 711.076 Q802.112 711.825 806.753 716.465 Q811.086 720.798 811.614 725.451 Q812.142 730.079 808.668 733.553 Q807.735 734.486 806.593 735.26 Q805.451 736.033 804.052 736.696 M801.216 723.99 Q802.886 722.321 802.714 720.209 Q802.554 718.085 800.565 716.097 Q798.589 714.12 796.465 713.961 Q794.341 713.776 792.672 715.446 Q791.002 717.116 791.174 719.252 Q791.346 721.363 793.323 723.339 Q795.311 725.328 797.423 725.5 Q799.547 725.66 801.216 723.99 Z" fill="#000000" fill-rule="nonzero" fill-opacity="1" /><path clip-path="url(#clip020)" d="M808.962 699.156 Q807.047 701.071 807.968 703.931 Q808.889 706.767 812.67 710.548 Q816.438 714.317 819.286 715.25 Q822.135 716.158 824.05 714.243 Q825.977 712.316 825.056 709.48 Q824.136 706.619 820.367 702.851 Q816.586 699.07 813.738 698.161 Q810.89 697.228 808.962 699.156 M806.998 697.191 Q810.079 694.11 814.143 694.933 Q818.206 695.731 822.847 700.371 Q827.475 704.999 828.285 709.075 Q829.095 713.126 826.014 716.207 Q822.932 719.288 818.869 718.49 Q814.806 717.668 810.178 713.04 Q805.537 708.399 804.727 704.348 Q803.917 700.273 806.998 697.191 Z" fill="#000000" fill-rule="nonzero" fill-opacity="1" /><path clip-path="url(#clip020)" d="M952.011 738.488 Q950.096 740.403 951.017 743.264 Q951.937 746.099 955.718 749.88 Q959.487 753.649 962.335 754.582 Q965.183 755.491 967.098 753.576 Q969.026 751.648 968.105 748.812 Q967.184 745.952 963.415 742.183 Q959.634 738.402 956.786 737.494 Q953.938 736.561 952.011 738.488 M950.047 736.524 Q953.128 733.443 957.191 734.265 Q961.255 735.063 965.895 739.704 Q970.523 744.332 971.334 748.407 Q972.144 752.458 969.062 755.54 Q965.981 758.621 961.918 757.823 Q957.854 757.001 953.226 752.372 Q948.586 747.732 947.776 743.681 Q946.966 739.605 950.047 736.524 Z" fill="#000000" fill-rule="nonzero" fill-opacity="1" /><path clip-path="url(#clip020)" d="M976.281 741.373 L978.871 738.783 L981.989 741.901 L979.399 744.491 L976.281 741.373 Z" fill="#000000" fill-rule="nonzero" fill-opacity="1" /><path clip-path="url(#clip020)" d="M987.084 736.045 L984.825 733.786 Q986.2 733.295 987.391 732.571 Q988.581 731.847 989.502 730.926 Q991.957 728.471 991.601 725.537 Q991.245 722.578 988.066 719.031 Q988.41 720.798 987.882 722.456 Q987.354 724.113 986.028 725.439 Q983.278 728.189 980.013 728.139 Q976.747 728.066 973.862 725.181 Q971.039 722.357 971.002 718.981 Q970.965 715.606 973.74 712.831 Q976.919 709.652 981.032 710.425 Q985.144 711.174 989.785 715.814 Q994.118 720.148 994.646 724.8 Q995.174 729.428 991.7 732.903 Q990.767 733.836 989.625 734.609 Q988.483 735.382 987.084 736.045 M984.248 723.339 Q985.918 721.67 985.746 719.558 Q985.586 717.435 983.597 715.446 Q981.621 713.47 979.497 713.31 Q977.373 713.126 975.704 714.795 Q974.034 716.465 974.206 718.601 Q974.378 720.712 976.354 722.689 Q978.343 724.678 980.455 724.849 Q982.578 725.009 984.248 723.339 Z" fill="#000000" fill-rule="nonzero" fill-opacity="1" /><path clip-path="url(#clip020)" d="M1001.73 717.987 L1005.78 713.936 L991.798 699.954 L988.275 705.245 L986.016 702.986 L989.514 697.719 L991.994 695.24 L1008.24 711.481 L1012.29 707.43 L1014.37 709.517 L1003.82 720.074 L1001.73 717.987 Z" fill="#000000" fill-rule="nonzero" fill-opacity="1" /><polyline clip-path="url(#clip020)" style="stroke:#000000; stroke-linecap:round; stroke-linejoin:round; stroke-width:4; stroke-opacity:1; fill:none" points="128.138,667.406 128.138,97.5521 "/>
<polyline clip-path="url(#clip020)" style="stroke:#000000; stroke-linecap:round; stroke-linejoin:round; stroke-width:4; stroke-opacity:1; fill:none" points="128.138,667.406 147.035,667.406 "/>
<polyline clip-path="url(#clip020)" style="stroke:#000000; stroke-linecap:round; stroke-linejoin:round; stroke-width:4; stroke-opacity:1; fill:none" points="128.138,546.161 147.035,546.161 "/>
<polyline clip-path="url(#clip020)" style="stroke:#000000; stroke-linecap:round; stroke-linejoin:round; stroke-width:4; stroke-opacity:1; fill:none" points="128.138,424.915 147.035,424.915 "/>
<polyline clip-path="url(#clip020)" style="stroke:#000000; stroke-linecap:round; stroke-linejoin:round; stroke-width:4; stroke-opacity:1; fill:none" points="128.138,303.67 147.035,303.67 "/>
<polyline clip-path="url(#clip020)" style="stroke:#000000; stroke-linecap:round; stroke-linejoin:round; stroke-width:4; stroke-opacity:1; fill:none" points="128.138,182.424 147.035,182.424 "/>
<path clip-path="url(#clip020)" d="M83.1795 656.755 Q80.4711 656.755 79.0996 659.429 Q77.7455 662.085 77.7455 667.432 Q77.7455 672.762 79.0996 675.436 Q80.4711 678.092 83.1795 678.092 Q85.9051 678.092 87.2593 675.436 Q88.6308 672.762 88.6308 667.432 Q88.6308 662.085 87.2593 659.429 Q85.9051 656.755 83.1795 656.755 M83.1795 653.978 Q87.5371 653.978 89.8287 657.432 Q92.1377 660.87 92.1377 667.432 Q92.1377 673.978 89.8287 677.432 Q87.5371 680.87 83.1795 680.87 Q78.8218 680.87 76.5128 677.432 Q74.2212 673.978 74.2212 667.432 Q74.2212 660.87 76.5128 657.432 Q78.8218 653.978 83.1795 653.978 Z" fill="#000000" fill-rule="nonzero" fill-opacity="1" /><path clip-path="url(#clip020)" d="M53.6657 556.169 L59.3949 556.169 L59.3949 536.395 L53.1623 537.645 L53.1623 534.451 L59.3601 533.201 L62.8671 533.201 L62.8671 556.169 L68.5962 556.169 L68.5962 559.121 L53.6657 559.121 L53.6657 556.169 Z" fill="#000000" fill-rule="nonzero" fill-opacity="1" /><path clip-path="url(#clip020)" d="M83.1795 535.51 Q80.4711 535.51 79.0996 538.183 Q77.7455 540.84 77.7455 546.187 Q77.7455 551.517 79.0996 554.19 Q80.4711 556.846 83.1795 556.846 Q85.9051 556.846 87.2593 554.19 Q88.6308 551.517 88.6308 546.187 Q88.6308 540.84 87.2593 538.183 Q85.9051 535.51 83.1795 535.51 M83.1795 532.732 Q87.5371 532.732 89.8287 536.187 Q92.1377 539.624 92.1377 546.187 Q92.1377 552.732 89.8287 556.187 Q87.5371 559.624 83.1795 559.624 Q78.8218 559.624 76.5128 556.187 Q74.2212 552.732 74.2212 546.187 Q74.2212 539.624 76.5128 536.187 Q78.8218 532.732 83.1795 532.732 Z" fill="#000000" fill-rule="nonzero" fill-opacity="1" /><path clip-path="url(#clip020)" d="M56.0789 434.924 L68.3184 434.924 L68.3184 437.875 L51.8602 437.875 L51.8602 434.924 Q53.8567 432.858 57.2942 429.386 Q60.749 425.896 61.6344 424.889 Q63.3184 422.997 63.9782 421.695 Q64.6552 420.375 64.6552 419.108 Q64.6552 417.042 63.1969 415.74 Q61.756 414.438 59.4296 414.438 Q57.7803 414.438 55.94 415.011 Q54.1171 415.584 52.0338 416.747 L52.0338 413.205 Q54.1518 412.354 55.9921 411.92 Q57.8324 411.486 59.3601 411.486 Q63.3879 411.486 65.7837 413.5 Q68.1795 415.514 68.1795 418.882 Q68.1795 420.479 67.5719 421.92 Q66.9816 423.344 65.4018 425.288 Q64.9677 425.792 62.6414 428.205 Q60.315 430.601 56.0789 434.924 Z" fill="#000000" fill-rule="nonzero" fill-opacity="1" /><path clip-path="url(#clip020)" d="M83.1795 414.264 Q80.4711 414.264 79.0996 416.938 Q77.7455 419.594 77.7455 424.941 Q77.7455 430.271 79.0996 432.945 Q80.4711 435.601 83.1795 435.601 Q85.9051 435.601 87.2593 432.945 Q88.6308 430.271 88.6308 424.941 Q88.6308 419.594 87.2593 416.938 Q85.9051 414.264 83.1795 414.264 M83.1795 411.486 Q87.5371 411.486 89.8287 414.941 Q92.1377 418.379 92.1377 424.941 Q92.1377 431.486 89.8287 434.941 Q87.5371 438.379 83.1795 438.379 Q78.8218 438.379 76.5128 434.941 Q74.2212 431.486 74.2212 424.941 Q74.2212 418.379 76.5128 414.941 Q78.8218 411.486 83.1795 411.486 Z" fill="#000000" fill-rule="nonzero" fill-opacity="1" /><path clip-path="url(#clip020)" d="M63.683 302.654 Q66.2004 303.192 67.6066 304.894 Q69.0302 306.595 69.0302 309.095 Q69.0302 312.932 66.3913 315.032 Q63.7525 317.133 58.8914 317.133 Q57.2595 317.133 55.5234 316.803 Q53.8046 316.491 51.9643 315.848 L51.9643 312.463 Q53.4227 313.314 55.1588 313.748 Q56.8949 314.182 58.7872 314.182 Q62.0858 314.182 63.8046 312.88 Q65.5407 311.578 65.5407 309.095 Q65.5407 306.803 63.9261 305.519 Q62.3289 304.216 59.4643 304.216 L56.4435 304.216 L56.4435 301.335 L59.6032 301.335 Q62.19 301.335 63.5615 300.31 Q64.933 299.269 64.933 297.324 Q64.933 295.328 63.5094 294.269 Q62.1032 293.192 59.4643 293.192 Q58.0233 293.192 56.374 293.505 Q54.7247 293.817 52.7456 294.477 L52.7456 291.352 Q54.7421 290.796 56.4782 290.519 Q58.2317 290.241 59.7768 290.241 Q63.7698 290.241 66.0962 292.064 Q68.4226 293.869 68.4226 296.96 Q68.4226 299.112 67.19 300.605 Q65.9573 302.081 63.683 302.654 Z" fill="#000000" fill-rule="nonzero" fill-opacity="1" /><path clip-path="url(#clip020)" d="M83.1795 293.019 Q80.4711 293.019 79.0996 295.692 Q77.7455 298.348 77.7455 303.696 Q77.7455 309.025 79.0996 311.699 Q80.4711 314.355 83.1795 314.355 Q85.9051 314.355 87.2593 311.699 Q88.6308 309.025 88.6308 303.696 Q88.6308 298.348 87.2593 295.692 Q85.9051 293.019 83.1795 293.019 M83.1795 290.241 Q87.5371 290.241 89.8287 293.696 Q92.1377 297.133 92.1377 303.696 Q92.1377 310.241 89.8287 313.696 Q87.5371 317.133 83.1795 317.133 Q78.8218 317.133 76.5128 313.696 Q74.2212 310.241 74.2212 303.696 Q74.2212 297.133 76.5128 293.696 Q78.8218 290.241 83.1795 290.241 Z" fill="#000000" fill-rule="nonzero" fill-opacity="1" /><path clip-path="url(#clip020)" d="M62.6935 172.52 L53.8393 186.356 L62.6935 186.356 L62.6935 172.52 M61.7733 169.464 L66.183 169.464 L66.183 186.356 L69.8809 186.356 L69.8809 189.273 L66.183 189.273 L66.183 195.384 L62.6935 195.384 L62.6935 189.273 L50.9921 189.273 L50.9921 185.888 L61.7733 169.464 Z" fill="#000000" fill-rule="nonzero" fill-opacity="1" /><path clip-path="url(#clip020)" d="M83.1795 171.773 Q80.4711 171.773 79.0996 174.447 Q77.7455 177.103 77.7455 182.45 Q77.7455 187.78 79.0996 190.454 Q80.4711 193.11 83.1795 193.11 Q85.9051 193.11 87.2593 190.454 Q88.6308 187.78 88.6308 182.45 Q88.6308 177.103 87.2593 174.447 Q85.9051 171.773 83.1795 171.773 M83.1795 168.995 Q87.5371 168.995 89.8287 172.45 Q92.1377 175.888 92.1377 182.45 Q92.1377 188.995 89.8287 192.45 Q87.5371 195.888 83.1795 195.888 Q78.8218 195.888 76.5128 192.45 Q74.2212 188.995 74.2212 182.45 Q74.2212 175.888 76.5128 172.45 Q78.8218 168.995 83.1795 168.995 Z" fill="#000000" fill-rule="nonzero" fill-opacity="1" /><path clip-path="url(#clip020)" d="M130.221 20.1758 Q131.633 17.8147 135.128 15.7314 Q136.494 14.9212 140.707 14.9212 Q145.429 14.9212 148.369 18.6712 Q151.332 22.4212 151.332 28.5323 Q151.332 34.6433 148.369 38.3933 Q145.429 42.1433 140.707 42.1433 Q137.86 42.1433 135.8 41.0322 Q133.763 39.8979 132.42 37.5831 L132.42 51.3331 L128.138 51.3331 L128.138 28.7637 Q128.138 23.4165 130.221 20.1758 M146.911 28.5323 Q146.911 23.8332 144.966 21.1712 Q143.045 18.486 139.665 18.486 Q136.286 18.486 134.341 21.1712 Q132.42 23.8332 132.42 28.5323 Q132.42 33.2313 134.341 35.9165 Q136.286 38.5785 139.665 38.5785 Q143.045 38.5785 144.966 35.9165 Q146.911 33.2313 146.911 28.5323 Z" fill="#000000" fill-rule="nonzero" fill-opacity="1" /><path clip-path="url(#clip022)" d="M184.494 618.908 L184.494 667.406 L275.684 667.406 L275.684 618.908 L184.494 618.908 L184.494 618.908  Z" fill="#009af9" fill-rule="evenodd" fill-opacity="1"/>
<polyline clip-path="url(#clip022)" style="stroke:#000000; stroke-linecap:round; stroke-linejoin:round; stroke-width:4; stroke-opacity:1; fill:none" points="184.494,618.908 184.494,667.406 275.684,667.406 275.684,618.908 184.494,618.908 "/>
<path clip-path="url(#clip022)" d="M275.684 606.784 L275.684 667.406 L366.875 667.406 L366.875 606.784 L275.684 606.784 L275.684 606.784  Z" fill="#009af9" fill-rule="evenodd" fill-opacity="1"/>
<polyline clip-path="url(#clip022)" style="stroke:#000000; stroke-linecap:round; stroke-linejoin:round; stroke-width:4; stroke-opacity:1; fill:none" points="275.684,606.784 275.684,667.406 366.875,667.406 366.875,606.784 275.684,606.784 "/>
<path clip-path="url(#clip022)" d="M366.875 461.289 L366.875 667.406 L458.066 667.406 L458.066 461.289 L366.875 461.289 L366.875 461.289  Z" fill="#009af9" fill-rule="evenodd" fill-opacity="1"/>
<polyline clip-path="url(#clip022)" style="stroke:#000000; stroke-linecap:round; stroke-linejoin:round; stroke-width:4; stroke-opacity:1; fill:none" points="366.875,461.289 366.875,667.406 458.066,667.406 458.066,461.289 366.875,461.289 "/>
<path clip-path="url(#clip022)" d="M458.066 267.296 L458.066 667.406 L549.256 667.406 L549.256 267.296 L458.066 267.296 L458.066 267.296  Z" fill="#009af9" fill-rule="evenodd" fill-opacity="1"/>
<polyline clip-path="url(#clip022)" style="stroke:#000000; stroke-linecap:round; stroke-linejoin:round; stroke-width:4; stroke-opacity:1; fill:none" points="458.066,267.296 458.066,667.406 549.256,667.406 549.256,267.296 458.066,267.296 "/>
<path clip-path="url(#clip022)" d="M549.256 243.047 L549.256 667.406 L640.447 667.406 L640.447 243.047 L549.256 243.047 L549.256 243.047  Z" fill="#009af9" fill-rule="evenodd" fill-opacity="1"/>
<polyline clip-path="url(#clip022)" style="stroke:#000000; stroke-linecap:round; stroke-linejoin:round; stroke-width:4; stroke-opacity:1; fill:none" points="549.256,243.047 549.256,667.406 640.447,667.406 640.447,243.047 549.256,243.047 "/>
<path clip-path="url(#clip022)" d="M640.447 97.5521 L640.447 667.406 L731.637 667.406 L731.637 97.5521 L640.447 97.5521 L640.447 97.5521  Z" fill="#009af9" fill-rule="evenodd" fill-opacity="1"/>
<polyline clip-path="url(#clip022)" style="stroke:#000000; stroke-linecap:round; stroke-linejoin:round; stroke-width:4; stroke-opacity:1; fill:none" points="640.447,97.5521 640.447,667.406 731.637,667.406 731.637,97.5521 640.447,97.5521 "/>
<path clip-path="url(#clip022)" d="M731.637 267.296 L731.637 667.406 L822.828 667.406 L822.828 267.296 L731.637 267.296 L731.637 267.296  Z" fill="#009af9" fill-rule="evenodd" fill-opacity="1"/>
<polyline clip-path="url(#clip022)" style="stroke:#000000; stroke-linecap:round; stroke-linejoin:round; stroke-width:4; stroke-opacity:1; fill:none" points="731.637,267.296 731.637,667.406 822.828,667.406 822.828,267.296 731.637,267.296 "/>
<path clip-path="url(#clip022)" d="M822.828 473.413 L822.828 667.406 L914.019 667.406 L914.019 473.413 L822.828 473.413 L822.828 473.413  Z" fill="#009af9" fill-rule="evenodd" fill-opacity="1"/>
<polyline clip-path="url(#clip022)" style="stroke:#000000; stroke-linecap:round; stroke-linejoin:round; stroke-width:4; stroke-opacity:1; fill:none" points="822.828,473.413 822.828,667.406 914.019,667.406 914.019,473.413 822.828,473.413 "/>
<path clip-path="url(#clip022)" d="M914.019 606.784 L914.019 667.406 L1005.21 667.406 L1005.21 606.784 L914.019 606.784 L914.019 606.784  Z" fill="#009af9" fill-rule="evenodd" fill-opacity="1"/>
<polyline clip-path="url(#clip022)" style="stroke:#000000; stroke-linecap:round; stroke-linejoin:round; stroke-width:4; stroke-opacity:1; fill:none" points="914.019,606.784 914.019,667.406 1005.21,667.406 1005.21,606.784 914.019,606.784 "/>
<path clip-path="url(#clip022)" d="M1005.21 655.282 L1005.21 667.406 L1096.4 667.406 L1096.4 655.282 L1005.21 655.282 L1005.21 655.282  Z" fill="#009af9" fill-rule="evenodd" fill-opacity="1"/>
<polyline clip-path="url(#clip022)" style="stroke:#000000; stroke-linecap:round; stroke-linejoin:round; stroke-width:4; stroke-opacity:1; fill:none" points="1005.21,655.282 1005.21,667.406 1096.4,667.406 1096.4,655.282 1005.21,655.282 "/>
<circle clip-path="url(#clip022)" style="fill:#009af9; stroke:none; fill-opacity:0" cx="230.089" cy="618.908" r="2"/>
<circle clip-path="url(#clip022)" style="fill:#009af9; stroke:none; fill-opacity:0" cx="321.28" cy="606.784" r="2"/>
<circle clip-path="url(#clip022)" style="fill:#009af9; stroke:none; fill-opacity:0" cx="412.47" cy="461.289" r="2"/>
<circle clip-path="url(#clip022)" style="fill:#009af9; stroke:none; fill-opacity:0" cx="503.661" cy="267.296" r="2"/>
<circle clip-path="url(#clip022)" style="fill:#009af9; stroke:none; fill-opacity:0" cx="594.851" cy="243.047" r="2"/>
<circle clip-path="url(#clip022)" style="fill:#009af9; stroke:none; fill-opacity:0" cx="686.042" cy="97.5521" r="2"/>
<circle clip-path="url(#clip022)" style="fill:#009af9; stroke:none; fill-opacity:0" cx="777.233" cy="267.296" r="2"/>
<circle clip-path="url(#clip022)" style="fill:#009af9; stroke:none; fill-opacity:0" cx="868.423" cy="473.413" r="2"/>
<circle clip-path="url(#clip022)" style="fill:#009af9; stroke:none; fill-opacity:0" cx="959.614" cy="606.784" r="2"/>
<circle clip-path="url(#clip022)" style="fill:#009af9; stroke:none; fill-opacity:0" cx="1050.8" cy="655.282" r="2"/>
<polyline clip-path="url(#clip022)" style="stroke:#ff0000; stroke-linecap:round; stroke-linejoin:round; stroke-width:8; stroke-opacity:1; fill:none" stroke-dasharray="32, 20" points="636.63,1237.26 636.63,-472.302 "/>
<polyline clip-path="url(#clip022)" style="stroke:#ff0000; stroke-linecap:round; stroke-linejoin:round; stroke-width:6; stroke-opacity:1; fill:none" stroke-dasharray="24, 12, 3, 12" points="251.407,1237.26 251.407,-472.302 "/>
<polyline clip-path="url(#clip022)" style="stroke:#ff0000; stroke-linecap:round; stroke-linejoin:round; stroke-width:6; stroke-opacity:1; fill:none" stroke-dasharray="24, 12, 3, 12" points="915.729,1237.26 915.729,-472.302 "/>
<path clip-path="url(#clip020)" d="M1328.14 667.406 L2352.76 667.406 L2352.76 97.5521 L1328.14 97.5521  Z" fill="#ffffff" fill-rule="evenodd" fill-opacity="1"/>
<defs>
  <clipPath id="clip023">
    <rect x="1328" y="97" width="1026" height="571"/>
  </clipPath>
</defs>
<polyline clip-path="url(#clip023)" style="stroke:#000000; stroke-linecap:round; stroke-linejoin:round; stroke-width:2; stroke-opacity:0.1; fill:none" points="1514.77,667.406 1514.77,97.5521 "/>
<polyline clip-path="url(#clip023)" style="stroke:#000000; stroke-linecap:round; stroke-linejoin:round; stroke-width:2; stroke-opacity:0.1; fill:none" points="1775.31,667.406 1775.31,97.5521 "/>
<polyline clip-path="url(#clip023)" style="stroke:#000000; stroke-linecap:round; stroke-linejoin:round; stroke-width:2; stroke-opacity:0.1; fill:none" points="2035.86,667.406 2035.86,97.5521 "/>
<polyline clip-path="url(#clip023)" style="stroke:#000000; stroke-linecap:round; stroke-linejoin:round; stroke-width:2; stroke-opacity:0.1; fill:none" points="2296.4,667.406 2296.4,97.5521 "/>
<polyline clip-path="url(#clip023)" style="stroke:#000000; stroke-linecap:round; stroke-linejoin:round; stroke-width:2; stroke-opacity:0.1; fill:none" points="1328.14,667.406 2352.76,667.406 "/>
<polyline clip-path="url(#clip023)" style="stroke:#000000; stroke-linecap:round; stroke-linejoin:round; stroke-width:2; stroke-opacity:0.1; fill:none" points="1328.14,570.821 2352.76,570.821 "/>
<polyline clip-path="url(#clip023)" style="stroke:#000000; stroke-linecap:round; stroke-linejoin:round; stroke-width:2; stroke-opacity:0.1; fill:none" points="1328.14,474.235 2352.76,474.235 "/>
<polyline clip-path="url(#clip023)" style="stroke:#000000; stroke-linecap:round; stroke-linejoin:round; stroke-width:2; stroke-opacity:0.1; fill:none" points="1328.14,377.65 2352.76,377.65 "/>
<polyline clip-path="url(#clip023)" style="stroke:#000000; stroke-linecap:round; stroke-linejoin:round; stroke-width:2; stroke-opacity:0.1; fill:none" points="1328.14,281.065 2352.76,281.065 "/>
<polyline clip-path="url(#clip023)" style="stroke:#000000; stroke-linecap:round; stroke-linejoin:round; stroke-width:2; stroke-opacity:0.1; fill:none" points="1328.14,184.479 2352.76,184.479 "/>
<polyline clip-path="url(#clip020)" style="stroke:#000000; stroke-linecap:round; stroke-linejoin:round; stroke-width:4; stroke-opacity:1; fill:none" points="1328.14,667.406 2352.76,667.406 "/>
<polyline clip-path="url(#clip020)" style="stroke:#000000; stroke-linecap:round; stroke-linejoin:round; stroke-width:4; stroke-opacity:1; fill:none" points="1514.77,667.406 1514.77,648.509 "/>
<polyline clip-path="url(#clip020)" style="stroke:#000000; stroke-linecap:round; stroke-linejoin:round; stroke-width:4; stroke-opacity:1; fill:none" points="1775.31,667.406 1775.31,648.509 "/>
<polyline clip-path="url(#clip020)" style="stroke:#000000; stroke-linecap:round; stroke-linejoin:round; stroke-width:4; stroke-opacity:1; fill:none" points="2035.86,667.406 2035.86,648.509 "/>
<polyline clip-path="url(#clip020)" style="stroke:#000000; stroke-linecap:round; stroke-linejoin:round; stroke-width:4; stroke-opacity:1; fill:none" points="2296.4,667.406 2296.4,648.509 "/>
<path clip-path="url(#clip020)" d="M1460.92 739.139 Q1459 741.054 1459.92 743.914 Q1460.84 746.75 1464.62 750.531 Q1468.39 754.3 1471.24 755.233 Q1474.09 756.141 1476 754.226 Q1477.93 752.299 1477.01 749.463 Q1476.09 746.603 1472.32 742.834 Q1468.54 739.053 1465.69 738.144 Q1462.84 737.211 1460.92 739.139 M1458.95 737.175 Q1462.03 734.093 1466.1 734.916 Q1470.16 735.714 1474.8 740.354 Q1479.43 744.982 1480.24 749.058 Q1481.05 753.109 1477.97 756.19 Q1474.89 759.272 1470.82 758.474 Q1466.76 757.651 1462.13 753.023 Q1457.49 748.383 1456.68 744.332 Q1455.87 740.256 1458.95 737.175 Z" fill="#000000" fill-rule="nonzero" fill-opacity="1" /><path clip-path="url(#clip020)" d="M1485.19 742.024 L1487.78 739.433 L1490.9 742.552 L1488.3 745.142 L1485.19 742.024 Z" fill="#000000" fill-rule="nonzero" fill-opacity="1" /><path clip-path="url(#clip020)" d="M1493.93 719.755 Q1496.09 718.355 1498.29 718.564 Q1500.49 718.761 1502.26 720.528 Q1504.98 723.241 1504.6 726.593 Q1504.21 729.944 1500.78 733.381 Q1499.62 734.535 1498.16 735.53 Q1496.73 736.524 1494.97 737.371 L1492.58 734.977 Q1494.21 734.548 1495.74 733.627 Q1497.28 732.706 1498.62 731.368 Q1500.95 729.036 1501.24 726.9 Q1501.55 724.751 1499.8 722.996 Q1498.17 721.375 1496.12 721.609 Q1494.07 721.817 1492.05 723.843 L1489.91 725.979 L1487.88 723.941 L1490.11 721.707 Q1491.94 719.878 1492.18 718.184 Q1492.42 716.477 1491.04 715.102 Q1489.63 713.69 1487.88 713.948 Q1486.12 714.182 1484.25 716.047 Q1483.23 717.066 1482.29 718.454 Q1481.34 719.841 1480.41 721.707 L1478.2 719.497 Q1479.22 717.692 1480.25 716.268 Q1481.3 714.832 1482.39 713.74 Q1485.21 710.916 1488.15 710.56 Q1491.07 710.192 1493.25 712.377 Q1494.77 713.899 1494.96 715.827 Q1495.13 717.742 1493.93 719.755 Z" fill="#000000" fill-rule="nonzero" fill-opacity="1" /><path clip-path="url(#clip020)" d="M1500.9 699.156 Q1498.99 701.071 1499.91 703.931 Q1500.83 706.767 1504.61 710.548 Q1508.38 714.317 1511.22 715.25 Q1514.07 716.158 1515.99 714.243 Q1517.91 712.316 1516.99 709.48 Q1516.07 706.619 1512.3 702.851 Q1508.52 699.07 1505.68 698.161 Q1502.83 697.228 1500.9 699.156 M1498.94 697.191 Q1502.02 694.11 1506.08 694.933 Q1510.14 695.731 1514.78 700.371 Q1519.41 704.999 1520.22 709.075 Q1521.03 713.126 1517.95 716.207 Q1514.87 719.288 1510.81 718.49 Q1506.74 717.668 1502.12 713.04 Q1497.48 708.399 1496.66 704.348 Q1495.85 700.273 1498.94 697.191 Z" fill="#000000" fill-rule="nonzero" fill-opacity="1" /><path clip-path="url(#clip020)" d="M1722.31 738.292 Q1720.39 740.207 1721.31 743.067 Q1722.23 745.903 1726.02 749.684 Q1729.78 753.453 1732.63 754.386 Q1735.48 755.294 1737.4 753.379 Q1739.32 751.452 1738.4 748.616 Q1737.48 745.756 1733.71 741.987 Q1729.93 738.206 1727.08 737.297 Q1724.24 736.364 1722.31 738.292 M1720.34 736.328 Q1723.43 733.246 1727.49 734.069 Q1731.55 734.867 1736.19 739.507 Q1740.82 744.135 1741.63 748.211 Q1742.44 752.262 1739.36 755.343 Q1736.28 758.425 1732.22 757.627 Q1728.15 756.804 1723.52 752.176 Q1718.88 747.536 1718.07 743.485 Q1717.26 739.409 1720.34 736.328 Z" fill="#000000" fill-rule="nonzero" fill-opacity="1" /><path clip-path="url(#clip020)" d="M1746.58 741.177 L1749.17 738.586 L1752.29 741.705 L1749.7 744.295 L1746.58 741.177 Z" fill="#000000" fill-rule="nonzero" fill-opacity="1" /><path clip-path="url(#clip020)" d="M1755.32 718.908 Q1757.48 717.508 1759.68 717.717 Q1761.89 717.913 1763.65 719.681 Q1766.37 722.394 1765.99 725.746 Q1765.61 729.097 1762.17 732.534 Q1761.02 733.688 1759.55 734.683 Q1758.12 735.677 1756.36 736.524 L1753.97 734.13 Q1755.6 733.701 1757.14 732.78 Q1758.67 731.859 1760.01 730.521 Q1762.34 728.189 1762.64 726.053 Q1762.94 723.904 1761.19 722.149 Q1759.57 720.528 1757.52 720.762 Q1755.47 720.97 1753.44 722.996 L1751.3 725.132 L1749.27 723.094 L1751.5 720.86 Q1753.33 719.031 1753.58 717.336 Q1753.81 715.63 1752.43 714.255 Q1751.02 712.843 1749.27 713.101 Q1747.51 713.334 1745.65 715.2 Q1744.63 716.219 1743.68 717.607 Q1742.74 718.994 1741.8 720.86 L1739.59 718.65 Q1740.61 716.845 1741.64 715.421 Q1742.69 713.985 1743.78 712.893 Q1746.6 710.069 1749.54 709.713 Q1752.46 709.345 1754.64 711.53 Q1756.17 713.052 1756.35 714.979 Q1756.52 716.895 1755.32 718.908 Z" fill="#000000" fill-rule="nonzero" fill-opacity="1" /><path clip-path="url(#clip020)" d="M1773.73 716.084 L1782.39 707.43 L1784.47 709.517 L1772.84 721.154 L1770.75 719.067 Q1770.7 716.195 1770.68 711.309 Q1770.65 706.398 1770.57 705.06 Q1770.42 702.532 1769.96 701.144 Q1769.51 699.733 1768.61 698.836 Q1767.15 697.376 1765.2 697.486 Q1763.26 697.584 1761.62 699.229 Q1760.45 700.395 1759.55 702.102 Q1758.67 703.796 1758.02 706.092 L1755.52 703.587 Q1756.41 701.488 1757.41 699.88 Q1758.4 698.272 1759.48 697.191 Q1762.33 694.343 1765.45 694.073 Q1768.56 693.803 1770.95 696.185 Q1772.08 697.314 1772.67 698.763 Q1773.25 700.187 1773.51 702.679 Q1773.56 703.342 1773.62 706.693 Q1773.67 710.032 1773.73 716.084 Z" fill="#000000" fill-rule="nonzero" fill-opacity="1" /><path clip-path="url(#clip020)" d="M1981.75 739.397 Q1979.83 741.312 1980.75 744.172 Q1981.67 747.008 1985.46 750.789 Q1989.22 754.558 1992.07 755.491 Q1994.92 756.399 1996.84 754.484 Q1998.76 752.557 1997.84 749.721 Q1996.92 746.86 1993.15 743.092 Q1989.37 739.311 1986.52 738.402 Q1983.68 737.469 1981.75 739.397 M1979.78 737.432 Q1982.87 734.351 1986.93 735.174 Q1990.99 735.972 1995.63 740.612 Q2000.26 745.24 2001.07 749.316 Q2001.88 753.367 1998.8 756.448 Q1995.72 759.529 1991.66 758.731 Q1987.59 757.909 1982.96 753.281 Q1978.32 748.641 1977.51 744.589 Q1976.7 740.514 1979.78 737.432 Z" fill="#000000" fill-rule="nonzero" fill-opacity="1" /><path clip-path="url(#clip020)" d="M2006.02 742.282 L2008.61 739.691 L2011.73 742.809 L2009.14 745.4 L2006.02 742.282 Z" fill="#000000" fill-rule="nonzero" fill-opacity="1" /><path clip-path="url(#clip020)" d="M2014.76 720.013 Q2016.92 718.613 2019.12 718.822 Q2021.33 719.018 2023.09 720.786 Q2025.81 723.499 2025.43 726.85 Q2025.05 730.202 2021.61 733.639 Q2020.46 734.793 2018.99 735.787 Q2017.56 736.782 2015.8 737.629 L2013.41 735.235 Q2015.04 734.805 2016.58 733.885 Q2018.11 732.964 2019.45 731.626 Q2021.78 729.293 2022.08 727.157 Q2022.38 725.009 2020.63 723.254 Q2019.01 721.633 2016.96 721.866 Q2014.91 722.075 2012.88 724.101 L2010.74 726.237 L2008.71 724.199 L2010.94 721.965 Q2012.77 720.135 2013.02 718.441 Q2013.25 716.735 2011.87 715.36 Q2010.46 713.948 2008.71 714.206 Q2006.95 714.439 2005.09 716.305 Q2004.07 717.324 2003.12 718.711 Q2002.18 720.099 2001.24 721.965 L1999.03 719.755 Q2000.05 717.95 2001.08 716.526 Q2002.13 715.09 2003.22 713.997 Q2006.04 711.174 2008.98 710.818 Q2011.9 710.45 2014.08 712.635 Q2015.61 714.157 2015.79 716.084 Q2015.96 717.999 2014.76 720.013 Z" fill="#000000" fill-rule="nonzero" fill-opacity="1" /><path clip-path="url(#clip020)" d="M2023.77 698.431 L2027.29 714.476 L2033.55 708.215 L2023.77 698.431 M2020.96 696.921 L2024.08 693.803 L2036.02 705.748 L2038.64 703.133 L2040.7 705.195 L2038.08 707.81 L2042.4 712.131 L2039.94 714.599 L2035.62 710.278 L2027.34 718.552 L2024.95 716.158 L2020.96 696.921 Z" fill="#000000" fill-rule="nonzero" fill-opacity="1" /><path clip-path="url(#clip020)" d="M2242.47 739.225 Q2240.55 741.14 2241.47 744 Q2242.39 746.836 2246.17 750.617 Q2249.94 754.386 2252.79 755.319 Q2255.64 756.227 2257.55 754.312 Q2259.48 752.385 2258.56 749.549 Q2257.64 746.689 2253.87 742.92 Q2250.09 739.139 2247.24 738.23 Q2244.39 737.297 2242.47 739.225 M2240.5 737.261 Q2243.58 734.179 2247.65 735.002 Q2251.71 735.8 2256.35 740.44 Q2260.98 745.068 2261.79 749.144 Q2262.6 753.195 2259.52 756.276 Q2256.44 759.358 2252.37 758.56 Q2248.31 757.737 2243.68 753.109 Q2239.04 748.469 2238.23 744.418 Q2237.42 740.342 2240.5 737.261 Z" fill="#000000" fill-rule="nonzero" fill-opacity="1" /><path clip-path="url(#clip020)" d="M2266.73 742.11 L2269.33 739.519 L2272.44 742.638 L2269.85 745.228 L2266.73 742.11 Z" fill="#000000" fill-rule="nonzero" fill-opacity="1" /><path clip-path="url(#clip020)" d="M2275.48 719.841 Q2277.64 718.441 2279.83 718.65 Q2282.04 718.846 2283.81 720.614 Q2286.52 723.327 2286.14 726.679 Q2285.76 730.03 2282.33 733.467 Q2281.17 734.621 2279.71 735.616 Q2278.27 736.61 2276.52 737.457 L2274.13 735.063 Q2275.76 734.634 2277.29 733.713 Q2278.83 732.792 2280.16 731.454 Q2282.5 729.122 2282.79 726.985 Q2283.1 724.837 2281.34 723.082 Q2279.72 721.461 2277.67 721.695 Q2275.62 721.903 2273.6 723.929 L2271.46 726.065 L2269.42 724.027 L2271.66 721.793 Q2273.49 719.964 2273.73 718.269 Q2273.97 716.563 2272.59 715.188 Q2271.18 713.776 2269.42 714.034 Q2267.67 714.267 2265.8 716.133 Q2264.78 717.152 2263.84 718.54 Q2262.89 719.927 2261.96 721.793 L2259.75 719.583 Q2260.77 717.778 2261.8 716.354 Q2262.84 714.918 2263.94 713.826 Q2266.76 711.002 2269.69 710.646 Q2272.62 710.278 2274.8 712.463 Q2276.32 713.985 2276.51 715.912 Q2276.68 717.828 2275.48 719.841 Z" fill="#000000" fill-rule="nonzero" fill-opacity="1" /><path clip-path="url(#clip020)" d="M2289.3 705.478 Q2287.63 707.147 2287.79 709.271 Q2287.96 711.383 2289.95 713.371 Q2291.93 715.348 2294.05 715.532 Q2296.17 715.691 2297.84 714.022 Q2299.51 712.352 2299.34 710.241 Q2299.17 708.105 2297.19 706.128 Q2295.2 704.14 2293.08 703.98 Q2290.97 703.808 2289.3 705.478 M2286.45 692.784 L2288.71 695.043 Q2287.33 695.534 2286.14 696.258 Q2284.96 696.97 2284.03 697.903 Q2281.58 700.359 2281.93 703.317 Q2282.3 706.263 2285.47 709.799 Q2285.12 708.007 2285.65 706.349 Q2286.17 704.68 2287.48 703.366 Q2290.24 700.604 2293.52 700.69 Q2296.8 700.751 2299.68 703.636 Q2302.51 706.46 2302.54 709.836 Q2302.58 713.212 2299.81 715.986 Q2296.63 719.166 2292.51 718.417 Q2288.39 717.656 2283.76 713.028 Q2279.42 708.682 2278.9 704.041 Q2278.37 699.389 2281.85 695.915 Q2282.78 694.982 2283.91 694.221 Q2285.05 693.447 2286.45 692.784 Z" fill="#000000" fill-rule="nonzero" fill-opacity="1" /><polyline clip-path="url(#clip020)" style="stroke:#000000; stroke-linecap:round; stroke-linejoin:round; stroke-width:4; stroke-opacity:1; fill:none" points="1328.14,667.406 1328.14,97.5521 "/>
<polyline clip-path="url(#clip020)" style="stroke:#000000; stroke-linecap:round; stroke-linejoin:round; stroke-width:4; stroke-opacity:1; fill:none" points="1328.14,667.406 1347.04,667.406 "/>
<polyline clip-path="url(#clip020)" style="stroke:#000000; stroke-linecap:round; stroke-linejoin:round; stroke-width:4; stroke-opacity:1; fill:none" points="1328.14,570.821 1347.04,570.821 "/>
<polyline clip-path="url(#clip020)" style="stroke:#000000; stroke-linecap:round; stroke-linejoin:round; stroke-width:4; stroke-opacity:1; fill:none" points="1328.14,474.235 1347.04,474.235 "/>
<polyline clip-path="url(#clip020)" style="stroke:#000000; stroke-linecap:round; stroke-linejoin:round; stroke-width:4; stroke-opacity:1; fill:none" points="1328.14,377.65 1347.04,377.65 "/>
<polyline clip-path="url(#clip020)" style="stroke:#000000; stroke-linecap:round; stroke-linejoin:round; stroke-width:4; stroke-opacity:1; fill:none" points="1328.14,281.065 1347.04,281.065 "/>
<polyline clip-path="url(#clip020)" style="stroke:#000000; stroke-linecap:round; stroke-linejoin:round; stroke-width:4; stroke-opacity:1; fill:none" points="1328.14,184.479 1347.04,184.479 "/>
<path clip-path="url(#clip020)" d="M1283.18 656.755 Q1280.47 656.755 1279.1 659.429 Q1277.75 662.085 1277.75 667.432 Q1277.75 672.762 1279.1 675.436 Q1280.47 678.092 1283.18 678.092 Q1285.91 678.092 1287.26 675.436 Q1288.63 672.762 1288.63 667.432 Q1288.63 662.085 1287.26 659.429 Q1285.91 656.755 1283.18 656.755 M1283.18 653.978 Q1287.54 653.978 1289.83 657.432 Q1292.14 660.87 1292.14 667.432 Q1292.14 673.978 1289.83 677.432 Q1287.54 680.87 1283.18 680.87 Q1278.82 680.87 1276.51 677.432 Q1274.22 673.978 1274.22 667.432 Q1274.22 660.87 1276.51 657.432 Q1278.82 653.978 1283.18 653.978 Z" fill="#000000" fill-rule="nonzero" fill-opacity="1" /><path clip-path="url(#clip020)" d="M1253.67 580.83 L1259.39 580.83 L1259.39 561.055 L1253.16 562.305 L1253.16 559.111 L1259.36 557.861 L1262.87 557.861 L1262.87 580.83 L1268.6 580.83 L1268.6 583.781 L1253.67 583.781 L1253.67 580.83 Z" fill="#000000" fill-rule="nonzero" fill-opacity="1" /><path clip-path="url(#clip020)" d="M1283.18 560.17 Q1280.47 560.17 1279.1 562.844 Q1277.75 565.5 1277.75 570.847 Q1277.75 576.177 1279.1 578.85 Q1280.47 581.507 1283.18 581.507 Q1285.91 581.507 1287.26 578.85 Q1288.63 576.177 1288.63 570.847 Q1288.63 565.5 1287.26 562.844 Q1285.91 560.17 1283.18 560.17 M1283.18 557.392 Q1287.54 557.392 1289.83 560.847 Q1292.14 564.284 1292.14 570.847 Q1292.14 577.392 1289.83 580.847 Q1287.54 584.284 1283.18 584.284 Q1278.82 584.284 1276.51 580.847 Q1274.22 577.392 1274.22 570.847 Q1274.22 564.284 1276.51 560.847 Q1278.82 557.392 1283.18 557.392 Z" fill="#000000" fill-rule="nonzero" fill-opacity="1" /><path clip-path="url(#clip020)" d="M1256.08 484.244 L1268.32 484.244 L1268.32 487.195 L1251.86 487.195 L1251.86 484.244 Q1253.86 482.178 1257.29 478.706 Q1260.75 475.216 1261.63 474.209 Q1263.32 472.317 1263.98 471.015 Q1264.66 469.696 1264.66 468.428 Q1264.66 466.362 1263.2 465.06 Q1261.76 463.758 1259.43 463.758 Q1257.78 463.758 1255.94 464.331 Q1254.12 464.904 1252.03 466.067 L1252.03 462.525 Q1254.15 461.675 1255.99 461.241 Q1257.83 460.807 1259.36 460.807 Q1263.39 460.807 1265.78 462.821 Q1268.18 464.834 1268.18 468.202 Q1268.18 469.8 1267.57 471.241 Q1266.98 472.664 1265.4 474.609 Q1264.97 475.112 1262.64 477.525 Q1260.31 479.921 1256.08 484.244 Z" fill="#000000" fill-rule="nonzero" fill-opacity="1" /><path clip-path="url(#clip020)" d="M1283.18 463.584 Q1280.47 463.584 1279.1 466.258 Q1277.75 468.914 1277.75 474.261 Q1277.75 479.591 1279.1 482.265 Q1280.47 484.921 1283.18 484.921 Q1285.91 484.921 1287.26 482.265 Q1288.63 479.591 1288.63 474.261 Q1288.63 468.914 1287.26 466.258 Q1285.91 463.584 1283.18 463.584 M1283.18 460.807 Q1287.54 460.807 1289.83 464.262 Q1292.14 467.699 1292.14 474.261 Q1292.14 480.807 1289.83 484.261 Q1287.54 487.699 1283.18 487.699 Q1278.82 487.699 1276.51 484.261 Q1274.22 480.807 1274.22 474.261 Q1274.22 467.699 1276.51 464.262 Q1278.82 460.807 1283.18 460.807 Z" fill="#000000" fill-rule="nonzero" fill-opacity="1" /><path clip-path="url(#clip020)" d="M1263.68 376.634 Q1266.2 377.173 1267.61 378.874 Q1269.03 380.575 1269.03 383.075 Q1269.03 386.912 1266.39 389.013 Q1263.75 391.113 1258.89 391.113 Q1257.26 391.113 1255.52 390.784 Q1253.8 390.471 1251.96 389.829 L1251.96 386.443 Q1253.42 387.294 1255.16 387.728 Q1256.89 388.162 1258.79 388.162 Q1262.09 388.162 1263.8 386.86 Q1265.54 385.558 1265.54 383.075 Q1265.54 380.784 1263.93 379.499 Q1262.33 378.197 1259.46 378.197 L1256.44 378.197 L1256.44 375.315 L1259.6 375.315 Q1262.19 375.315 1263.56 374.291 Q1264.93 373.249 1264.93 371.305 Q1264.93 369.308 1263.51 368.249 Q1262.1 367.173 1259.46 367.173 Q1258.02 367.173 1256.37 367.485 Q1254.72 367.798 1252.75 368.457 L1252.75 365.332 Q1254.74 364.777 1256.48 364.499 Q1258.23 364.221 1259.78 364.221 Q1263.77 364.221 1266.1 366.044 Q1268.42 367.85 1268.42 370.94 Q1268.42 373.093 1267.19 374.586 Q1265.96 376.061 1263.68 376.634 Z" fill="#000000" fill-rule="nonzero" fill-opacity="1" /><path clip-path="url(#clip020)" d="M1283.18 366.999 Q1280.47 366.999 1279.1 369.673 Q1277.75 372.329 1277.75 377.676 Q1277.75 383.006 1279.1 385.679 Q1280.47 388.336 1283.18 388.336 Q1285.91 388.336 1287.26 385.679 Q1288.63 383.006 1288.63 377.676 Q1288.63 372.329 1287.26 369.673 Q1285.91 366.999 1283.18 366.999 M1283.18 364.221 Q1287.54 364.221 1289.83 367.676 Q1292.14 371.114 1292.14 377.676 Q1292.14 384.221 1289.83 387.676 Q1287.54 391.113 1283.18 391.113 Q1278.82 391.113 1276.51 387.676 Q1274.22 384.221 1274.22 377.676 Q1274.22 371.114 1276.51 367.676 Q1278.82 364.221 1283.18 364.221 Z" fill="#000000" fill-rule="nonzero" fill-opacity="1" /><path clip-path="url(#clip020)" d="M1262.69 271.16 L1253.84 284.997 L1262.69 284.997 L1262.69 271.16 M1261.77 268.105 L1266.18 268.105 L1266.18 284.997 L1269.88 284.997 L1269.88 287.913 L1266.18 287.913 L1266.18 294.025 L1262.69 294.025 L1262.69 287.913 L1250.99 287.913 L1250.99 284.528 L1261.77 268.105 Z" fill="#000000" fill-rule="nonzero" fill-opacity="1" /><path clip-path="url(#clip020)" d="M1283.18 270.414 Q1280.47 270.414 1279.1 273.087 Q1277.75 275.743 1277.75 281.091 Q1277.75 286.42 1279.1 289.094 Q1280.47 291.75 1283.18 291.75 Q1285.91 291.75 1287.26 289.094 Q1288.63 286.42 1288.63 281.091 Q1288.63 275.743 1287.26 273.087 Q1285.91 270.414 1283.18 270.414 M1283.18 267.636 Q1287.54 267.636 1289.83 271.091 Q1292.14 274.528 1292.14 281.091 Q1292.14 287.636 1289.83 291.09 Q1287.54 294.528 1283.18 294.528 Q1278.82 294.528 1276.51 291.09 Q1274.22 287.636 1274.22 281.091 Q1274.22 274.528 1276.51 271.091 Q1278.82 267.636 1283.18 267.636 Z" fill="#000000" fill-rule="nonzero" fill-opacity="1" /><path clip-path="url(#clip020)" d="M1253.09 171.519 L1266.86 171.519 L1266.86 174.47 L1256.3 174.47 L1256.3 180.825 Q1257.07 180.564 1257.83 180.443 Q1258.6 180.304 1259.36 180.304 Q1263.7 180.304 1266.24 182.682 Q1268.77 185.061 1268.77 189.123 Q1268.77 193.307 1266.17 195.633 Q1263.56 197.943 1258.82 197.943 Q1257.19 197.943 1255.49 197.665 Q1253.8 197.387 1252 196.831 L1252 193.307 Q1253.56 194.158 1255.23 194.574 Q1256.89 194.991 1258.75 194.991 Q1261.76 194.991 1263.51 193.411 Q1265.26 191.831 1265.26 189.123 Q1265.26 186.415 1263.51 184.835 Q1261.76 183.255 1258.75 183.255 Q1257.35 183.255 1255.94 183.568 Q1254.55 183.88 1253.09 184.54 L1253.09 171.519 Z" fill="#000000" fill-rule="nonzero" fill-opacity="1" /><path clip-path="url(#clip020)" d="M1283.18 173.828 Q1280.47 173.828 1279.1 176.502 Q1277.75 179.158 1277.75 184.505 Q1277.75 189.835 1279.1 192.509 Q1280.47 195.165 1283.18 195.165 Q1285.91 195.165 1287.26 192.509 Q1288.63 189.835 1288.63 184.505 Q1288.63 179.158 1287.26 176.502 Q1285.91 173.828 1283.18 173.828 M1283.18 171.05 Q1287.54 171.05 1289.83 174.505 Q1292.14 177.943 1292.14 184.505 Q1292.14 191.05 1289.83 194.505 Q1287.54 197.943 1283.18 197.943 Q1278.82 197.943 1276.51 194.505 Q1274.22 191.05 1274.22 184.505 Q1274.22 177.943 1276.51 174.505 Q1278.82 171.05 1283.18 171.05 Z" fill="#000000" fill-rule="nonzero" fill-opacity="1" /><path clip-path="url(#clip020)" d="M1340.04 18.9258 Q1336.52 18.9258 1334.62 21.4721 Q1332.63 24.1341 1332.63 28.5323 Q1332.63 33.185 1334.6 35.8702 Q1336.59 38.5322 1340.04 38.5322 Q1343.44 38.5322 1345.43 35.847 Q1347.42 33.1619 1347.42 28.5323 Q1347.42 24.2962 1345.43 21.4721 Q1343.6 18.9258 1340.04 18.9258 M1340.04 15.5462 L1354.18 15.5462 L1354.18 19.8054 L1349.41 19.8054 Q1351.93 23.4165 1351.93 28.5323 Q1351.93 34.898 1348.76 38.5091 Q1345.59 42.1433 1340.04 42.1433 Q1334.46 42.1433 1331.31 38.5091 Q1328.14 34.898 1328.14 28.5323 Q1328.14 22.1203 1331.31 18.5323 Q1333.92 15.5462 1340.04 15.5462 Z" fill="#000000" fill-rule="nonzero" fill-opacity="1" /><path clip-path="url(#clip020)" d="M1378.35 19.6666 Q1377.49 19.3656 1376.63 19.1342 Q1374.34 18.5323 1371.89 18.5323 Q1367.65 18.5323 1365.29 20.824 Q1363.09 22.9536 1362.67 26.8656 L1378.35 26.8656 L1378.35 30.1989 L1362.67 30.1989 Q1363.09 34.1109 1365.29 36.2405 Q1367.65 38.5322 1371.89 38.5322 Q1374.85 38.5322 1376.63 37.9304 L1378.35 37.3517 L1378.35 41.2174 L1376.52 41.634 Q1374.11 42.1433 1371.63 42.1433 Q1365.43 42.1433 1361.82 38.5322 Q1358.18 34.9211 1358.18 28.5323 Q1358.18 22.1434 1361.82 18.5323 Q1365.43 14.9212 1371.63 14.9212 Q1373.97 14.9212 1376.52 15.4305 Q1377.44 15.6157 1378.35 15.8934 L1378.35 19.6666 Z" fill="#000000" fill-rule="nonzero" fill-opacity="1" /><path clip-path="url(#clip023)" d="M1384.49 628.772 L1384.49 667.406 L1514.77 667.406 L1514.77 628.772 L1384.49 628.772 L1384.49 628.772  Z" fill="#009af9" fill-rule="evenodd" fill-opacity="1"/>
<polyline clip-path="url(#clip023)" style="stroke:#000000; stroke-linecap:round; stroke-linejoin:round; stroke-width:4; stroke-opacity:1; fill:none" points="1384.49,628.772 1384.49,667.406 1514.77,667.406 1514.77,628.772 1384.49,628.772 "/>
<path clip-path="url(#clip023)" d="M1514.77 387.309 L1514.77 667.406 L1645.04 667.406 L1645.04 387.309 L1514.77 387.309 L1514.77 387.309  Z" fill="#009af9" fill-rule="evenodd" fill-opacity="1"/>
<polyline clip-path="url(#clip023)" style="stroke:#000000; stroke-linecap:round; stroke-linejoin:round; stroke-width:4; stroke-opacity:1; fill:none" points="1514.77,387.309 1514.77,667.406 1645.04,667.406 1645.04,387.309 1514.77,387.309 "/>
<path clip-path="url(#clip023)" d="M1645.04 300.382 L1645.04 667.406 L1775.31 667.406 L1775.31 300.382 L1645.04 300.382 L1645.04 300.382  Z" fill="#009af9" fill-rule="evenodd" fill-opacity="1"/>
<polyline clip-path="url(#clip023)" style="stroke:#000000; stroke-linecap:round; stroke-linejoin:round; stroke-width:4; stroke-opacity:1; fill:none" points="1645.04,300.382 1645.04,667.406 1775.31,667.406 1775.31,300.382 1645.04,300.382 "/>
<path clip-path="url(#clip023)" d="M1775.31 97.5521 L1775.31 667.406 L1905.58 667.406 L1905.58 97.5521 L1775.31 97.5521 L1775.31 97.5521  Z" fill="#009af9" fill-rule="evenodd" fill-opacity="1"/>
<polyline clip-path="url(#clip023)" style="stroke:#000000; stroke-linecap:round; stroke-linejoin:round; stroke-width:4; stroke-opacity:1; fill:none" points="1775.31,97.5521 1775.31,667.406 1905.58,667.406 1905.58,97.5521 1775.31,97.5521 "/>
<path clip-path="url(#clip023)" d="M1905.58 223.113 L1905.58 667.406 L2035.86 667.406 L2035.86 223.113 L1905.58 223.113 L1905.58 223.113  Z" fill="#009af9" fill-rule="evenodd" fill-opacity="1"/>
<polyline clip-path="url(#clip023)" style="stroke:#000000; stroke-linecap:round; stroke-linejoin:round; stroke-width:4; stroke-opacity:1; fill:none" points="1905.58,223.113 1905.58,667.406 2035.86,667.406 2035.86,223.113 1905.58,223.113 "/>
<path clip-path="url(#clip023)" d="M2035.86 512.87 L2035.86 667.406 L2166.13 667.406 L2166.13 512.87 L2035.86 512.87 L2035.86 512.87  Z" fill="#009af9" fill-rule="evenodd" fill-opacity="1"/>
<polyline clip-path="url(#clip023)" style="stroke:#000000; stroke-linecap:round; stroke-linejoin:round; stroke-width:4; stroke-opacity:1; fill:none" points="2035.86,512.87 2035.86,667.406 2166.13,667.406 2166.13,512.87 2035.86,512.87 "/>
<path clip-path="url(#clip023)" d="M2166.13 628.772 L2166.13 667.406 L2296.4 667.406 L2296.4 628.772 L2166.13 628.772 L2166.13 628.772  Z" fill="#009af9" fill-rule="evenodd" fill-opacity="1"/>
<polyline clip-path="url(#clip023)" style="stroke:#000000; stroke-linecap:round; stroke-linejoin:round; stroke-width:4; stroke-opacity:1; fill:none" points="2166.13,628.772 2166.13,667.406 2296.4,667.406 2296.4,628.772 2166.13,628.772 "/>
<circle clip-path="url(#clip023)" style="fill:#009af9; stroke:none; fill-opacity:0" cx="1449.63" cy="628.772" r="2"/>
<circle clip-path="url(#clip023)" style="fill:#009af9; stroke:none; fill-opacity:0" cx="1579.9" cy="387.309" r="2"/>
<circle clip-path="url(#clip023)" style="fill:#009af9; stroke:none; fill-opacity:0" cx="1710.17" cy="300.382" r="2"/>
<circle clip-path="url(#clip023)" style="fill:#009af9; stroke:none; fill-opacity:0" cx="1840.45" cy="97.5521" r="2"/>
<circle clip-path="url(#clip023)" style="fill:#009af9; stroke:none; fill-opacity:0" cx="1970.72" cy="223.113" r="2"/>
<circle clip-path="url(#clip023)" style="fill:#009af9; stroke:none; fill-opacity:0" cx="2100.99" cy="512.87" r="2"/>
<circle clip-path="url(#clip023)" style="fill:#009af9; stroke:none; fill-opacity:0" cx="2231.26" cy="628.772" r="2"/>
<polyline clip-path="url(#clip023)" style="stroke:#ff0000; stroke-linecap:round; stroke-linejoin:round; stroke-width:8; stroke-opacity:1; fill:none" stroke-dasharray="32, 20" points="1839.99,1237.26 1839.99,-472.302 "/>
<polyline clip-path="url(#clip023)" style="stroke:#ff0000; stroke-linecap:round; stroke-linejoin:round; stroke-width:6; stroke-opacity:1; fill:none" stroke-dasharray="24, 12, 3, 12" points="1517.18,1237.26 1517.18,-472.302 "/>
<polyline clip-path="url(#clip023)" style="stroke:#ff0000; stroke-linecap:round; stroke-linejoin:round; stroke-width:6; stroke-opacity:1; fill:none" stroke-dasharray="24, 12, 3, 12" points="2213,1237.26 2213,-472.302 "/>
<path clip-path="url(#clip020)" d="M128.138 1467.41 L1152.76 1467.41 L1152.76 897.552 L128.138 897.552  Z" fill="#ffffff" fill-rule="evenodd" fill-opacity="1"/>
<defs>
  <clipPath id="clip024">
    <rect x="128" y="897" width="1026" height="571"/>
  </clipPath>
</defs>
<polyline clip-path="url(#clip024)" style="stroke:#000000; stroke-linecap:round; stroke-linejoin:round; stroke-width:2; stroke-opacity:0.1; fill:none" points="184.494,1467.41 184.494,897.552 "/>
<polyline clip-path="url(#clip024)" style="stroke:#000000; stroke-linecap:round; stroke-linejoin:round; stroke-width:2; stroke-opacity:0.1; fill:none" points="488.462,1467.41 488.462,897.552 "/>
<polyline clip-path="url(#clip024)" style="stroke:#000000; stroke-linecap:round; stroke-linejoin:round; stroke-width:2; stroke-opacity:0.1; fill:none" points="792.431,1467.41 792.431,897.552 "/>
<polyline clip-path="url(#clip024)" style="stroke:#000000; stroke-linecap:round; stroke-linejoin:round; stroke-width:2; stroke-opacity:0.1; fill:none" points="1096.4,1467.41 1096.4,897.552 "/>
<polyline clip-path="url(#clip024)" style="stroke:#000000; stroke-linecap:round; stroke-linejoin:round; stroke-width:2; stroke-opacity:0.1; fill:none" points="128.138,1467.41 1152.76,1467.41 "/>
<polyline clip-path="url(#clip024)" style="stroke:#000000; stroke-linecap:round; stroke-linejoin:round; stroke-width:2; stroke-opacity:0.1; fill:none" points="128.138,1355.67 1152.76,1355.67 "/>
<polyline clip-path="url(#clip024)" style="stroke:#000000; stroke-linecap:round; stroke-linejoin:round; stroke-width:2; stroke-opacity:0.1; fill:none" points="128.138,1243.93 1152.76,1243.93 "/>
<polyline clip-path="url(#clip024)" style="stroke:#000000; stroke-linecap:round; stroke-linejoin:round; stroke-width:2; stroke-opacity:0.1; fill:none" points="128.138,1132.2 1152.76,1132.2 "/>
<polyline clip-path="url(#clip024)" style="stroke:#000000; stroke-linecap:round; stroke-linejoin:round; stroke-width:2; stroke-opacity:0.1; fill:none" points="128.138,1020.46 1152.76,1020.46 "/>
<polyline clip-path="url(#clip024)" style="stroke:#000000; stroke-linecap:round; stroke-linejoin:round; stroke-width:2; stroke-opacity:0.1; fill:none" points="128.138,908.726 1152.76,908.726 "/>
<polyline clip-path="url(#clip020)" style="stroke:#000000; stroke-linecap:round; stroke-linejoin:round; stroke-width:4; stroke-opacity:1; fill:none" points="128.138,1467.41 1152.76,1467.41 "/>
<polyline clip-path="url(#clip020)" style="stroke:#000000; stroke-linecap:round; stroke-linejoin:round; stroke-width:4; stroke-opacity:1; fill:none" points="184.494,1467.41 184.494,1448.51 "/>
<polyline clip-path="url(#clip020)" style="stroke:#000000; stroke-linecap:round; stroke-linejoin:round; stroke-width:4; stroke-opacity:1; fill:none" points="488.462,1467.41 488.462,1448.51 "/>
<polyline clip-path="url(#clip020)" style="stroke:#000000; stroke-linecap:round; stroke-linejoin:round; stroke-width:4; stroke-opacity:1; fill:none" points="792.431,1467.41 792.431,1448.51 "/>
<polyline clip-path="url(#clip020)" style="stroke:#000000; stroke-linecap:round; stroke-linejoin:round; stroke-width:4; stroke-opacity:1; fill:none" points="1096.4,1467.41 1096.4,1448.51 "/>
<path clip-path="url(#clip020)" d="M130.988 1538.8 Q129.073 1540.71 129.994 1543.57 Q130.915 1546.41 134.696 1550.19 Q138.464 1553.96 141.312 1554.89 Q144.16 1555.8 146.076 1553.88 Q148.003 1551.96 147.082 1549.12 Q146.161 1546.26 142.393 1542.49 Q138.612 1538.71 135.764 1537.8 Q132.916 1536.87 130.988 1538.8 M129.024 1536.83 Q132.105 1533.75 136.169 1534.57 Q140.232 1535.37 144.872 1540.01 Q149.501 1544.64 150.311 1548.71 Q151.121 1552.77 148.04 1555.85 Q144.958 1558.93 140.895 1558.13 Q136.832 1557.31 132.204 1552.68 Q127.563 1548.04 126.753 1543.99 Q125.943 1539.91 129.024 1536.83 Z" fill="#000000" fill-rule="nonzero" fill-opacity="1" /><path clip-path="url(#clip020)" d="M155.258 1541.68 L157.848 1539.09 L160.966 1542.21 L158.376 1544.8 L155.258 1541.68 Z" fill="#000000" fill-rule="nonzero" fill-opacity="1" /><path clip-path="url(#clip020)" d="M148.064 1518.45 L157.799 1508.72 L159.886 1510.81 L152.422 1518.27 L156.915 1522.76 Q157.271 1522.04 157.726 1521.41 Q158.167 1520.77 158.708 1520.23 Q161.777 1517.16 165.251 1517.05 Q168.725 1516.94 171.598 1519.82 Q174.556 1522.77 174.36 1526.26 Q174.151 1529.74 170.8 1533.09 Q169.646 1534.24 168.246 1535.25 Q166.859 1536.24 165.189 1537.13 L162.697 1534.63 Q164.404 1534.13 165.877 1533.25 Q167.35 1532.36 168.664 1531.05 Q170.787 1528.93 170.91 1526.57 Q171.033 1524.21 169.118 1522.3 Q167.203 1520.38 164.846 1520.5 Q162.489 1520.63 160.365 1522.75 Q159.371 1523.74 158.597 1524.96 Q157.836 1526.16 157.271 1527.66 L148.064 1518.45 Z" fill="#000000" fill-rule="nonzero" fill-opacity="1" /><path clip-path="url(#clip020)" d="M179.994 1503.42 Q182.155 1502.02 184.352 1502.22 Q186.562 1502.42 188.33 1504.19 Q191.043 1506.9 190.662 1510.25 Q190.282 1513.6 186.844 1517.04 Q185.69 1518.2 184.23 1519.19 Q182.793 1520.18 181.038 1521.03 L178.644 1518.64 Q180.277 1518.21 181.811 1517.29 Q183.346 1516.37 184.684 1515.03 Q187.016 1512.7 187.311 1510.56 Q187.618 1508.41 185.862 1506.66 Q184.242 1505.04 182.192 1505.27 Q180.142 1505.48 178.116 1507.5 L175.98 1509.64 L173.942 1507.6 L176.177 1505.37 Q178.006 1503.54 178.251 1501.84 Q178.484 1500.14 177.109 1498.76 Q175.698 1497.35 173.942 1497.61 Q172.187 1497.84 170.321 1499.71 Q169.302 1500.73 168.357 1502.11 Q167.411 1503.5 166.478 1505.37 L164.269 1503.16 Q165.288 1501.35 166.319 1499.93 Q167.362 1498.49 168.455 1497.4 Q171.278 1494.58 174.212 1494.22 Q177.134 1493.85 179.319 1496.04 Q180.841 1497.56 181.026 1499.49 Q181.197 1501.4 179.994 1503.42 Z" fill="#000000" fill-rule="nonzero" fill-opacity="1" /><path clip-path="url(#clip020)" d="M434.356 1539.4 Q432.44 1541.31 433.361 1544.17 Q434.282 1547.01 438.063 1550.79 Q441.832 1554.56 444.68 1555.49 Q447.528 1556.4 449.443 1554.48 Q451.37 1552.56 450.449 1549.72 Q449.529 1546.86 445.76 1543.09 Q441.979 1539.31 439.131 1538.4 Q436.283 1537.47 434.356 1539.4 M432.391 1537.43 Q435.473 1534.35 439.536 1535.17 Q443.599 1535.97 448.24 1540.61 Q452.868 1545.24 453.678 1549.32 Q454.488 1553.37 451.407 1556.45 Q448.326 1559.53 444.262 1558.73 Q440.199 1557.91 435.571 1553.28 Q430.93 1548.64 430.12 1544.59 Q429.31 1540.51 432.391 1537.43 Z" fill="#000000" fill-rule="nonzero" fill-opacity="1" /><path clip-path="url(#clip020)" d="M458.625 1542.28 L461.216 1539.69 L464.334 1542.81 L461.743 1545.4 L458.625 1542.28 Z" fill="#000000" fill-rule="nonzero" fill-opacity="1" /><path clip-path="url(#clip020)" d="M451.432 1519.06 L461.167 1509.32 L463.253 1511.41 L455.79 1518.87 L460.283 1523.36 Q460.639 1522.64 461.093 1522.01 Q461.535 1521.38 462.075 1520.84 Q465.144 1517.77 468.618 1517.66 Q472.092 1517.55 474.965 1520.42 Q477.923 1523.38 477.727 1526.86 Q477.518 1530.34 474.167 1533.69 Q473.013 1534.84 471.613 1535.85 Q470.226 1536.84 468.557 1537.73 L466.065 1535.24 Q467.771 1534.73 469.244 1533.85 Q470.717 1532.96 472.031 1531.65 Q474.155 1529.53 474.277 1527.17 Q474.4 1524.81 472.485 1522.9 Q470.57 1520.98 468.213 1521.11 Q465.856 1521.23 463.732 1523.35 Q462.738 1524.35 461.964 1525.56 Q461.203 1526.76 460.639 1528.26 L451.432 1519.06 Z" fill="#000000" fill-rule="nonzero" fill-opacity="1" /><path clip-path="url(#clip020)" d="M476.377 1498.43 L479.9 1514.48 L486.161 1508.22 L476.377 1498.43 M473.565 1496.92 L476.683 1493.8 L488.628 1505.75 L491.243 1503.13 L493.305 1505.2 L490.691 1507.81 L495.012 1512.13 L492.544 1514.6 L488.223 1510.28 L479.949 1518.55 L477.555 1516.16 L473.565 1496.92 Z" fill="#000000" fill-rule="nonzero" fill-opacity="1" /><path clip-path="url(#clip020)" d="M739.11 1538.61 Q737.195 1540.53 738.116 1543.39 Q739.036 1546.22 742.817 1550 Q746.586 1553.77 749.434 1554.7 Q752.282 1555.61 754.197 1553.7 Q756.125 1551.77 755.204 1548.94 Q754.283 1546.07 750.515 1542.31 Q746.733 1538.53 743.885 1537.62 Q741.037 1536.68 739.11 1538.61 M737.146 1536.65 Q740.227 1533.57 744.291 1534.39 Q748.354 1535.19 752.994 1539.83 Q757.622 1544.45 758.433 1548.53 Q759.243 1552.58 756.162 1555.66 Q753.08 1558.74 749.017 1557.95 Q744.953 1557.12 740.325 1552.5 Q735.685 1547.85 734.875 1543.8 Q734.065 1539.73 737.146 1536.65 Z" fill="#000000" fill-rule="nonzero" fill-opacity="1" /><path clip-path="url(#clip020)" d="M763.38 1541.5 L765.97 1538.91 L769.088 1542.02 L766.498 1544.61 L763.38 1541.5 Z" fill="#000000" fill-rule="nonzero" fill-opacity="1" /><path clip-path="url(#clip020)" d="M756.186 1518.27 L765.921 1508.53 L768.008 1510.62 L760.544 1518.09 L765.037 1522.58 Q765.393 1521.85 765.847 1521.23 Q766.289 1520.59 766.829 1520.05 Q769.898 1516.98 773.373 1516.87 Q776.847 1516.76 779.719 1519.63 Q782.678 1522.59 782.481 1526.08 Q782.273 1529.55 778.921 1532.9 Q777.767 1534.06 776.368 1535.06 Q774.981 1536.06 773.311 1536.94 L770.819 1534.45 Q772.526 1533.95 773.999 1533.06 Q775.472 1532.18 776.785 1530.86 Q778.909 1528.74 779.032 1526.38 Q779.155 1524.03 777.24 1522.11 Q775.325 1520.2 772.967 1520.32 Q770.61 1520.44 768.487 1522.57 Q767.492 1523.56 766.719 1524.78 Q765.958 1525.98 765.393 1527.48 L756.186 1518.27 Z" fill="#000000" fill-rule="nonzero" fill-opacity="1" /><path clip-path="url(#clip020)" d="M772.182 1502.27 L781.917 1492.54 L784.004 1494.63 L776.54 1502.09 L781.033 1506.58 Q781.389 1505.86 781.843 1505.23 Q782.285 1504.59 782.825 1504.05 Q785.894 1500.98 789.368 1500.87 Q792.842 1500.76 795.715 1503.64 Q798.674 1506.59 798.477 1510.08 Q798.269 1513.56 794.917 1516.91 Q793.763 1518.06 792.364 1519.07 Q790.977 1520.06 789.307 1520.95 L786.815 1518.45 Q788.521 1517.95 789.994 1517.07 Q791.468 1516.18 792.781 1514.87 Q794.905 1512.75 795.028 1510.39 Q795.15 1508.03 793.235 1506.12 Q791.32 1504.2 788.963 1504.32 Q786.606 1504.45 784.482 1506.57 Q783.488 1507.56 782.715 1508.78 Q781.954 1509.98 781.389 1511.48 L772.182 1502.27 Z" fill="#000000" fill-rule="nonzero" fill-opacity="1" /><path clip-path="url(#clip020)" d="M1042.47 1539.22 Q1040.55 1541.14 1041.47 1544 Q1042.39 1546.84 1046.17 1550.62 Q1049.94 1554.39 1052.79 1555.32 Q1055.64 1556.23 1057.55 1554.31 Q1059.48 1552.38 1058.56 1549.55 Q1057.64 1546.69 1053.87 1542.92 Q1050.09 1539.14 1047.24 1538.23 Q1044.39 1537.3 1042.47 1539.22 M1040.5 1537.26 Q1043.58 1534.18 1047.65 1535 Q1051.71 1535.8 1056.35 1540.44 Q1060.98 1545.07 1061.79 1549.14 Q1062.6 1553.19 1059.52 1556.28 Q1056.44 1559.36 1052.37 1558.56 Q1048.31 1557.74 1043.68 1553.11 Q1039.04 1548.47 1038.23 1544.42 Q1037.42 1540.34 1040.5 1537.26 Z" fill="#000000" fill-rule="nonzero" fill-opacity="1" /><path clip-path="url(#clip020)" d="M1066.73 1542.11 L1069.33 1539.52 L1072.44 1542.64 L1069.85 1545.23 L1066.73 1542.11 Z" fill="#000000" fill-rule="nonzero" fill-opacity="1" /><path clip-path="url(#clip020)" d="M1059.54 1518.88 L1069.28 1509.15 L1071.36 1511.24 L1063.9 1518.7 L1068.39 1523.19 Q1068.75 1522.47 1069.2 1521.84 Q1069.64 1521.2 1070.18 1520.66 Q1073.25 1517.59 1076.73 1517.48 Q1080.2 1517.37 1083.07 1520.25 Q1086.03 1523.2 1085.84 1526.69 Q1085.63 1530.17 1082.28 1533.52 Q1081.12 1534.67 1079.72 1535.68 Q1078.34 1536.67 1076.67 1537.56 L1074.17 1535.06 Q1075.88 1534.56 1077.35 1533.68 Q1078.83 1532.79 1080.14 1531.48 Q1082.26 1529.35 1082.39 1527 Q1082.51 1524.64 1080.59 1522.73 Q1078.68 1520.81 1076.32 1520.93 Q1073.97 1521.06 1071.84 1523.18 Q1070.85 1524.17 1070.07 1525.39 Q1069.31 1526.59 1068.75 1528.09 L1059.54 1518.88 Z" fill="#000000" fill-rule="nonzero" fill-opacity="1" /><path clip-path="url(#clip020)" d="M1089.3 1505.48 Q1087.63 1507.15 1087.79 1509.27 Q1087.96 1511.38 1089.95 1513.37 Q1091.93 1515.35 1094.05 1515.53 Q1096.17 1515.69 1097.84 1514.02 Q1099.51 1512.35 1099.34 1510.24 Q1099.17 1508.1 1097.19 1506.13 Q1095.2 1504.14 1093.08 1503.98 Q1090.97 1503.81 1089.3 1505.48 M1086.45 1492.78 L1088.71 1495.04 Q1087.33 1495.53 1086.14 1496.26 Q1084.96 1496.97 1084.03 1497.9 Q1081.58 1500.36 1081.93 1503.32 Q1082.3 1506.26 1085.47 1509.8 Q1085.12 1508.01 1085.65 1506.35 Q1086.17 1504.68 1087.48 1503.37 Q1090.24 1500.6 1093.52 1500.69 Q1096.8 1500.75 1099.68 1503.64 Q1102.51 1506.46 1102.54 1509.84 Q1102.58 1513.21 1099.81 1515.99 Q1096.63 1519.17 1092.51 1518.42 Q1088.39 1517.66 1083.76 1513.03 Q1079.42 1508.68 1078.9 1504.04 Q1078.37 1499.39 1081.85 1495.91 Q1082.78 1494.98 1083.91 1494.22 Q1085.05 1493.45 1086.45 1492.78 Z" fill="#000000" fill-rule="nonzero" fill-opacity="1" /><polyline clip-path="url(#clip020)" style="stroke:#000000; stroke-linecap:round; stroke-linejoin:round; stroke-width:4; stroke-opacity:1; fill:none" points="128.138,1467.41 128.138,897.552 "/>
<polyline clip-path="url(#clip020)" style="stroke:#000000; stroke-linecap:round; stroke-linejoin:round; stroke-width:4; stroke-opacity:1; fill:none" points="128.138,1467.41 147.035,1467.41 "/>
<polyline clip-path="url(#clip020)" style="stroke:#000000; stroke-linecap:round; stroke-linejoin:round; stroke-width:4; stroke-opacity:1; fill:none" points="128.138,1355.67 147.035,1355.67 "/>
<polyline clip-path="url(#clip020)" style="stroke:#000000; stroke-linecap:round; stroke-linejoin:round; stroke-width:4; stroke-opacity:1; fill:none" points="128.138,1243.93 147.035,1243.93 "/>
<polyline clip-path="url(#clip020)" style="stroke:#000000; stroke-linecap:round; stroke-linejoin:round; stroke-width:4; stroke-opacity:1; fill:none" points="128.138,1132.2 147.035,1132.2 "/>
<polyline clip-path="url(#clip020)" style="stroke:#000000; stroke-linecap:round; stroke-linejoin:round; stroke-width:4; stroke-opacity:1; fill:none" points="128.138,1020.46 147.035,1020.46 "/>
<polyline clip-path="url(#clip020)" style="stroke:#000000; stroke-linecap:round; stroke-linejoin:round; stroke-width:4; stroke-opacity:1; fill:none" points="128.138,908.726 147.035,908.726 "/>
<path clip-path="url(#clip020)" d="M83.1795 1456.76 Q80.4711 1456.76 79.0996 1459.43 Q77.7455 1462.09 77.7455 1467.43 Q77.7455 1472.76 79.0996 1475.44 Q80.4711 1478.09 83.1795 1478.09 Q85.9051 1478.09 87.2593 1475.44 Q88.6308 1472.76 88.6308 1467.43 Q88.6308 1462.09 87.2593 1459.43 Q85.9051 1456.76 83.1795 1456.76 M83.1795 1453.98 Q87.5371 1453.98 89.8287 1457.43 Q92.1377 1460.87 92.1377 1467.43 Q92.1377 1473.98 89.8287 1477.43 Q87.5371 1480.87 83.1795 1480.87 Q78.8218 1480.87 76.5128 1477.43 Q74.2212 1473.98 74.2212 1467.43 Q74.2212 1460.87 76.5128 1457.43 Q78.8218 1453.98 83.1795 1453.98 Z" fill="#000000" fill-rule="nonzero" fill-opacity="1" /><path clip-path="url(#clip020)" d="M53.6657 1365.68 L59.3949 1365.68 L59.3949 1345.9 L53.1623 1347.15 L53.1623 1343.96 L59.3601 1342.71 L62.8671 1342.71 L62.8671 1365.68 L68.5962 1365.68 L68.5962 1368.63 L53.6657 1368.63 L53.6657 1365.68 Z" fill="#000000" fill-rule="nonzero" fill-opacity="1" /><path clip-path="url(#clip020)" d="M83.1795 1345.02 Q80.4711 1345.02 79.0996 1347.69 Q77.7455 1350.35 77.7455 1355.7 Q77.7455 1361.03 79.0996 1363.7 Q80.4711 1366.36 83.1795 1366.36 Q85.9051 1366.36 87.2593 1363.7 Q88.6308 1361.03 88.6308 1355.7 Q88.6308 1350.35 87.2593 1347.69 Q85.9051 1345.02 83.1795 1345.02 M83.1795 1342.24 Q87.5371 1342.24 89.8287 1345.7 Q92.1377 1349.13 92.1377 1355.7 Q92.1377 1362.24 89.8287 1365.7 Q87.5371 1369.13 83.1795 1369.13 Q78.8218 1369.13 76.5128 1365.7 Q74.2212 1362.24 74.2212 1355.7 Q74.2212 1349.13 76.5128 1345.7 Q78.8218 1342.24 83.1795 1342.24 Z" fill="#000000" fill-rule="nonzero" fill-opacity="1" /><path clip-path="url(#clip020)" d="M56.0789 1253.94 L68.3184 1253.94 L68.3184 1256.89 L51.8602 1256.89 L51.8602 1253.94 Q53.8567 1251.88 57.2942 1248.4 Q60.749 1244.92 61.6344 1243.91 Q63.3184 1242.02 63.9782 1240.71 Q64.6552 1239.39 64.6552 1238.13 Q64.6552 1236.06 63.1969 1234.76 Q61.756 1233.46 59.4296 1233.46 Q57.7803 1233.46 55.94 1234.03 Q54.1171 1234.6 52.0338 1235.77 L52.0338 1232.22 Q54.1518 1231.37 55.9921 1230.94 Q57.8324 1230.51 59.3601 1230.51 Q63.3879 1230.51 65.7837 1232.52 Q68.1795 1234.53 68.1795 1237.9 Q68.1795 1239.5 67.5719 1240.94 Q66.9816 1242.36 65.4018 1244.31 Q64.9677 1244.81 62.6414 1247.22 Q60.315 1249.62 56.0789 1253.94 Z" fill="#000000" fill-rule="nonzero" fill-opacity="1" /><path clip-path="url(#clip020)" d="M83.1795 1233.28 Q80.4711 1233.28 79.0996 1235.96 Q77.7455 1238.61 77.7455 1243.96 Q77.7455 1249.29 79.0996 1251.96 Q80.4711 1254.62 83.1795 1254.62 Q85.9051 1254.62 87.2593 1251.96 Q88.6308 1249.29 88.6308 1243.96 Q88.6308 1238.61 87.2593 1235.96 Q85.9051 1233.28 83.1795 1233.28 M83.1795 1230.51 Q87.5371 1230.51 89.8287 1233.96 Q92.1377 1237.4 92.1377 1243.96 Q92.1377 1250.51 89.8287 1253.96 Q87.5371 1257.4 83.1795 1257.4 Q78.8218 1257.4 76.5128 1253.96 Q74.2212 1250.51 74.2212 1243.96 Q74.2212 1237.4 76.5128 1233.96 Q78.8218 1230.51 83.1795 1230.51 Z" fill="#000000" fill-rule="nonzero" fill-opacity="1" /><path clip-path="url(#clip020)" d="M63.683 1131.18 Q66.2004 1131.72 67.6066 1133.42 Q69.0302 1135.12 69.0302 1137.62 Q69.0302 1141.46 66.3913 1143.56 Q63.7525 1145.66 58.8914 1145.66 Q57.2595 1145.66 55.5234 1145.33 Q53.8046 1145.02 51.9643 1144.38 L51.9643 1140.99 Q53.4227 1141.84 55.1588 1142.28 Q56.8949 1142.71 58.7872 1142.71 Q62.0858 1142.71 63.8046 1141.41 Q65.5407 1140.11 65.5407 1137.62 Q65.5407 1135.33 63.9261 1134.05 Q62.3289 1132.74 59.4643 1132.74 L56.4435 1132.74 L56.4435 1129.86 L59.6032 1129.86 Q62.19 1129.86 63.5615 1128.84 Q64.933 1127.8 64.933 1125.85 Q64.933 1123.86 63.5094 1122.8 Q62.1032 1121.72 59.4643 1121.72 Q58.0233 1121.72 56.374 1122.03 Q54.7247 1122.35 52.7456 1123.01 L52.7456 1119.88 Q54.7421 1119.32 56.4782 1119.05 Q58.2317 1118.77 59.7768 1118.77 Q63.7698 1118.77 66.0962 1120.59 Q68.4226 1122.4 68.4226 1125.49 Q68.4226 1127.64 67.19 1129.13 Q65.9573 1130.61 63.683 1131.18 Z" fill="#000000" fill-rule="nonzero" fill-opacity="1" /><path clip-path="url(#clip020)" d="M83.1795 1121.55 Q80.4711 1121.55 79.0996 1124.22 Q77.7455 1126.88 77.7455 1132.22 Q77.7455 1137.55 79.0996 1140.23 Q80.4711 1142.88 83.1795 1142.88 Q85.9051 1142.88 87.2593 1140.23 Q88.6308 1137.55 88.6308 1132.22 Q88.6308 1126.88 87.2593 1124.22 Q85.9051 1121.55 83.1795 1121.55 M83.1795 1118.77 Q87.5371 1118.77 89.8287 1122.22 Q92.1377 1125.66 92.1377 1132.22 Q92.1377 1138.77 89.8287 1142.22 Q87.5371 1145.66 83.1795 1145.66 Q78.8218 1145.66 76.5128 1142.22 Q74.2212 1138.77 74.2212 1132.22 Q74.2212 1125.66 76.5128 1122.22 Q78.8218 1118.77 83.1795 1118.77 Z" fill="#000000" fill-rule="nonzero" fill-opacity="1" /><path clip-path="url(#clip020)" d="M62.6935 1010.56 L53.8393 1024.39 L62.6935 1024.39 L62.6935 1010.56 M61.7733 1007.5 L66.183 1007.5 L66.183 1024.39 L69.8809 1024.39 L69.8809 1027.31 L66.183 1027.31 L66.183 1033.42 L62.6935 1033.42 L62.6935 1027.31 L50.9921 1027.31 L50.9921 1023.93 L61.7733 1007.5 Z" fill="#000000" fill-rule="nonzero" fill-opacity="1" /><path clip-path="url(#clip020)" d="M83.1795 1009.81 Q80.4711 1009.81 79.0996 1012.48 Q77.7455 1015.14 77.7455 1020.49 Q77.7455 1025.82 79.0996 1028.49 Q80.4711 1031.15 83.1795 1031.15 Q85.9051 1031.15 87.2593 1028.49 Q88.6308 1025.82 88.6308 1020.49 Q88.6308 1015.14 87.2593 1012.48 Q85.9051 1009.81 83.1795 1009.81 M83.1795 1007.03 Q87.5371 1007.03 89.8287 1010.49 Q92.1377 1013.93 92.1377 1020.49 Q92.1377 1027.03 89.8287 1030.49 Q87.5371 1033.93 83.1795 1033.93 Q78.8218 1033.93 76.5128 1030.49 Q74.2212 1027.03 74.2212 1020.49 Q74.2212 1013.93 76.5128 1010.49 Q78.8218 1007.03 83.1795 1007.03 Z" fill="#000000" fill-rule="nonzero" fill-opacity="1" /><path clip-path="url(#clip020)" d="M53.0928 895.766 L66.8601 895.766 L66.8601 898.717 L56.3046 898.717 L56.3046 905.071 Q57.0685 904.811 57.8324 904.689 Q58.5963 904.55 59.3601 904.55 Q63.7004 904.55 66.2351 906.929 Q68.7698 909.307 68.7698 913.37 Q68.7698 917.554 66.1657 919.88 Q63.5615 922.189 58.8219 922.189 Q57.19 922.189 55.4886 921.911 Q53.8046 921.634 51.9991 921.078 L51.9991 917.554 Q53.5616 918.405 55.2282 918.821 Q56.8949 919.238 58.7525 919.238 Q61.756 919.238 63.5094 917.658 Q65.2629 916.078 65.2629 913.37 Q65.2629 910.661 63.5094 909.082 Q61.756 907.502 58.7525 907.502 Q57.3463 907.502 55.94 907.814 Q54.5511 908.127 53.0928 908.787 L53.0928 895.766 Z" fill="#000000" fill-rule="nonzero" fill-opacity="1" /><path clip-path="url(#clip020)" d="M83.1795 898.075 Q80.4711 898.075 79.0996 900.748 Q77.7455 903.405 77.7455 908.752 Q77.7455 914.082 79.0996 916.755 Q80.4711 919.411 83.1795 919.411 Q85.9051 919.411 87.2593 916.755 Q88.6308 914.082 88.6308 908.752 Q88.6308 903.405 87.2593 900.748 Q85.9051 898.075 83.1795 898.075 M83.1795 895.297 Q87.5371 895.297 89.8287 898.752 Q92.1377 902.189 92.1377 908.752 Q92.1377 915.297 89.8287 918.752 Q87.5371 922.189 83.1795 922.189 Q78.8218 922.189 76.5128 918.752 Q74.2212 915.297 74.2212 908.752 Q74.2212 902.189 76.5128 898.752 Q78.8218 895.297 83.1795 895.297 Z" fill="#000000" fill-rule="nonzero" fill-opacity="1" /><path clip-path="url(#clip020)" d="M140.036 818.926 Q136.517 818.926 134.619 821.472 Q132.628 824.134 132.628 828.532 Q132.628 833.185 134.596 835.87 Q136.587 838.532 140.036 838.532 Q143.439 838.532 145.429 835.847 Q147.42 833.162 147.42 828.532 Q147.42 824.296 145.429 821.472 Q143.601 818.926 140.036 818.926 M140.036 815.546 L154.179 815.546 L154.179 819.805 L149.411 819.805 Q151.934 823.417 151.934 828.532 Q151.934 834.898 148.763 838.509 Q145.591 842.143 140.036 842.143 Q134.457 842.143 131.309 838.509 Q128.138 834.898 128.138 828.532 Q128.138 822.12 131.309 818.532 Q133.925 815.546 140.036 815.546 Z" fill="#000000" fill-rule="nonzero" fill-opacity="1" /><path clip-path="url(#clip020)" d="M165.198 841.472 L157.281 815.546 L161.864 815.546 L168.554 837.305 Q171.332 834.435 173.647 830.454 Q175.406 827.467 175.499 824.875 Q175.545 823.648 174.989 821.333 Q174.341 818.579 171.888 815.546 L176.193 815.546 L176.193 815.546 Q177.79 817.606 178.855 820.477 Q179.827 823.116 179.827 824.921 Q179.827 829.458 176.679 833.509 Q172.582 838.787 169.735 841.472 L165.198 841.472 Z" fill="#000000" fill-rule="nonzero" fill-opacity="1" /><path clip-path="url(#clip024)" d="M184.494 1255.11 L184.494 1467.41 L336.478 1467.41 L336.478 1255.11 L184.494 1255.11 L184.494 1255.11  Z" fill="#009af9" fill-rule="evenodd" fill-opacity="1"/>
<polyline clip-path="url(#clip024)" style="stroke:#000000; stroke-linecap:round; stroke-linejoin:round; stroke-width:4; stroke-opacity:1; fill:none" points="184.494,1255.11 184.494,1467.41 336.478,1467.41 336.478,1255.11 184.494,1255.11 "/>
<path clip-path="url(#clip024)" d="M336.478 931.073 L336.478 1467.41 L488.462 1467.41 L488.462 931.073 L336.478 931.073 L336.478 931.073  Z" fill="#009af9" fill-rule="evenodd" fill-opacity="1"/>
<polyline clip-path="url(#clip024)" style="stroke:#000000; stroke-linecap:round; stroke-linejoin:round; stroke-width:4; stroke-opacity:1; fill:none" points="336.478,931.073 336.478,1467.41 488.462,1467.41 488.462,931.073 336.478,931.073 "/>
<path clip-path="url(#clip024)" d="M488.462 897.552 L488.462 1467.41 L640.447 1467.41 L640.447 897.552 L488.462 897.552 L488.462 897.552  Z" fill="#009af9" fill-rule="evenodd" fill-opacity="1"/>
<polyline clip-path="url(#clip024)" style="stroke:#000000; stroke-linecap:round; stroke-linejoin:round; stroke-width:4; stroke-opacity:1; fill:none" points="488.462,897.552 488.462,1467.41 640.447,1467.41 640.447,897.552 488.462,897.552 "/>
<path clip-path="url(#clip024)" d="M640.447 953.42 L640.447 1467.41 L792.431 1467.41 L792.431 953.42 L640.447 953.42 L640.447 953.42  Z" fill="#009af9" fill-rule="evenodd" fill-opacity="1"/>
<polyline clip-path="url(#clip024)" style="stroke:#000000; stroke-linecap:round; stroke-linejoin:round; stroke-width:4; stroke-opacity:1; fill:none" points="640.447,953.42 640.447,1467.41 792.431,1467.41 792.431,953.42 640.447,953.42 "/>
<path clip-path="url(#clip024)" d="M792.431 1165.72 L792.431 1467.41 L944.416 1467.41 L944.416 1165.72 L792.431 1165.72 L792.431 1165.72  Z" fill="#009af9" fill-rule="evenodd" fill-opacity="1"/>
<polyline clip-path="url(#clip024)" style="stroke:#000000; stroke-linecap:round; stroke-linejoin:round; stroke-width:4; stroke-opacity:1; fill:none" points="792.431,1165.72 792.431,1467.41 944.416,1467.41 944.416,1165.72 792.431,1165.72 "/>
<path clip-path="url(#clip024)" d="M944.416 1411.54 L944.416 1467.41 L1096.4 1467.41 L1096.4 1411.54 L944.416 1411.54 L944.416 1411.54  Z" fill="#009af9" fill-rule="evenodd" fill-opacity="1"/>
<polyline clip-path="url(#clip024)" style="stroke:#000000; stroke-linecap:round; stroke-linejoin:round; stroke-width:4; stroke-opacity:1; fill:none" points="944.416,1411.54 944.416,1467.41 1096.4,1467.41 1096.4,1411.54 944.416,1411.54 "/>
<circle clip-path="url(#clip024)" style="fill:#009af9; stroke:none; fill-opacity:0" cx="260.486" cy="1255.11" r="2"/>
<circle clip-path="url(#clip024)" style="fill:#009af9; stroke:none; fill-opacity:0" cx="412.47" cy="931.073" r="2"/>
<circle clip-path="url(#clip024)" style="fill:#009af9; stroke:none; fill-opacity:0" cx="564.455" cy="897.552" r="2"/>
<circle clip-path="url(#clip024)" style="fill:#009af9; stroke:none; fill-opacity:0" cx="716.439" cy="953.42" r="2"/>
<circle clip-path="url(#clip024)" style="fill:#009af9; stroke:none; fill-opacity:0" cx="868.423" cy="1165.72" r="2"/>
<circle clip-path="url(#clip024)" style="fill:#009af9; stroke:none; fill-opacity:0" cx="1020.41" cy="1411.54" r="2"/>
<polyline clip-path="url(#clip024)" style="stroke:#ff0000; stroke-linecap:round; stroke-linejoin:round; stroke-width:8; stroke-opacity:1; fill:none" stroke-dasharray="32, 20" points="560.121,2037.26 560.121,327.698 "/>
<polyline clip-path="url(#clip024)" style="stroke:#ff0000; stroke-linecap:round; stroke-linejoin:round; stroke-width:6; stroke-opacity:1; fill:none" stroke-dasharray="24, 12, 3, 12" points="209.624,2037.26 209.624,327.698 "/>
<polyline clip-path="url(#clip024)" style="stroke:#ff0000; stroke-linecap:round; stroke-linejoin:round; stroke-width:6; stroke-opacity:1; fill:none" stroke-dasharray="24, 12, 3, 12" points="940.694,2037.26 940.694,327.698 "/>
</svg>
