<?xml version="1.0" encoding="utf-8"?>
<svg xmlns="http://www.w3.org/2000/svg" xmlns:xlink="http://www.w3.org/1999/xlink" width="600" height="400" viewBox="0 0 2400 1600">
<defs>
  <clipPath id="clip930">
    <rect x="0" y="0" width="2400" height="1600"/>
  </clipPath>
</defs>
<path clip-path="url(#clip930)" d="M0 1600 L2400 1600 L2400 0 L0 0  Z" fill="#ffffff" fill-rule="evenodd" fill-opacity="1"/>
<defs>
  <clipPath id="clip931">
    <rect x="162" y="0" width="2195" height="1600"/>
  </clipPath>
</defs>
<path clip-path="url(#clip930)" d="M161.818 667.406 L1152.94 667.406 L1152.94 97.5521 L161.818 97.5521  Z" fill="#ffffff" fill-rule="evenodd" fill-opacity="1"/>
<defs>
  <clipPath id="clip932">
    <rect x="161" y="97" width="992" height="571"/>
  </clipPath>
</defs>
<polyline clip-path="url(#clip932)" style="stroke:#000000; stroke-linecap:round; stroke-linejoin:round; stroke-width:2; stroke-opacity:0.1; fill:none" points="185.604,667.406 185.604,97.5521 "/>
<polyline clip-path="url(#clip932)" style="stroke:#000000; stroke-linecap:round; stroke-linejoin:round; stroke-width:2; stroke-opacity:0.1; fill:none" points="448.312,667.406 448.312,97.5521 "/>
<polyline clip-path="url(#clip932)" style="stroke:#000000; stroke-linecap:round; stroke-linejoin:round; stroke-width:2; stroke-opacity:0.1; fill:none" points="711.019,667.406 711.019,97.5521 "/>
<polyline clip-path="url(#clip932)" style="stroke:#000000; stroke-linecap:round; stroke-linejoin:round; stroke-width:2; stroke-opacity:0.1; fill:none" points="973.727,667.406 973.727,97.5521 "/>
<polyline clip-path="url(#clip932)" style="stroke:#000000; stroke-linecap:round; stroke-linejoin:round; stroke-width:2; stroke-opacity:0.1; fill:none" points="161.818,651.278 1152.94,651.278 "/>
<polyline clip-path="url(#clip932)" style="stroke:#000000; stroke-linecap:round; stroke-linejoin:round; stroke-width:2; stroke-opacity:0.1; fill:none" points="161.818,519.487 1152.94,519.487 "/>
<polyline clip-path="url(#clip932)" style="stroke:#000000; stroke-linecap:round; stroke-linejoin:round; stroke-width:2; stroke-opacity:0.1; fill:none" points="161.818,387.696 1152.94,387.696 "/>
<polyline clip-path="url(#clip932)" style="stroke:#000000; stroke-linecap:round; stroke-linejoin:round; stroke-width:2; stroke-opacity:0.1; fill:none" points="161.818,255.905 1152.94,255.905 "/>
<polyline clip-path="url(#clip932)" style="stroke:#000000; stroke-linecap:round; stroke-linejoin:round; stroke-width:2; stroke-opacity:0.1; fill:none" points="161.818,124.114 1152.94,124.114 "/>
<polyline clip-path="url(#clip930)" style="stroke:#000000; stroke-linecap:round; stroke-linejoin:round; stroke-width:4; stroke-opacity:1; fill:none" points="161.818,667.406 1152.94,667.406 "/>
<polyline clip-path="url(#clip930)" style="stroke:#000000; stroke-linecap:round; stroke-linejoin:round; stroke-width:4; stroke-opacity:1; fill:none" points="185.604,667.406 185.604,648.509 "/>
<polyline clip-path="url(#clip930)" style="stroke:#000000; stroke-linecap:round; stroke-linejoin:round; stroke-width:4; stroke-opacity:1; fill:none" points="448.312,667.406 448.312,648.509 "/>
<polyline clip-path="url(#clip930)" style="stroke:#000000; stroke-linecap:round; stroke-linejoin:round; stroke-width:4; stroke-opacity:1; fill:none" points="711.019,667.406 711.019,648.509 "/>
<polyline clip-path="url(#clip930)" style="stroke:#000000; stroke-linecap:round; stroke-linejoin:round; stroke-width:4; stroke-opacity:1; fill:none" points="973.727,667.406 973.727,648.509 "/>
<path clip-path="url(#clip930)" d="M131.755 739.139 Q129.84 741.054 130.761 743.914 Q131.681 746.75 135.462 750.531 Q139.231 754.3 142.079 755.233 Q144.927 756.141 146.842 754.226 Q148.77 752.299 147.849 749.463 Q146.928 746.603 143.159 742.834 Q139.378 739.053 136.53 738.144 Q133.682 737.211 131.755 739.139 M129.791 737.175 Q132.872 734.093 136.935 734.916 Q140.999 735.714 145.639 740.354 Q150.267 744.982 151.078 749.058 Q151.888 753.109 148.806 756.19 Q145.725 759.272 141.662 758.474 Q137.598 757.651 132.97 753.023 Q128.33 748.383 127.52 744.332 Q126.71 740.256 129.791 737.175 Z" fill="#000000" fill-rule="nonzero" fill-opacity="1" /><path clip-path="url(#clip930)" d="M156.025 742.024 L158.615 739.433 L161.733 742.552 L159.143 745.142 L156.025 742.024 Z" fill="#000000" fill-rule="nonzero" fill-opacity="1" /><path clip-path="url(#clip930)" d="M163.734 723.143 Q161.966 724.911 161.893 726.875 Q161.831 728.827 163.489 730.484 Q165.146 732.141 167.098 732.08 Q169.062 732.006 170.83 730.239 Q172.598 728.471 172.671 726.507 Q172.733 724.53 171.088 722.885 Q169.43 721.228 167.466 721.302 Q165.514 721.363 163.734 723.143 M160.199 724.567 Q158.21 725.77 156.221 725.574 Q154.245 725.365 152.673 723.794 Q150.476 721.596 150.758 718.761 Q151.053 715.912 153.778 713.187 Q156.516 710.45 159.352 710.167 Q162.187 709.885 164.385 712.082 Q165.956 713.654 166.153 715.642 Q166.361 717.619 165.171 719.595 Q167.38 718.22 169.59 718.441 Q171.812 718.65 173.567 720.406 Q176.231 723.069 176.023 726.126 Q175.826 729.171 172.794 732.203 Q169.762 735.235 166.705 735.444 Q163.661 735.64 160.997 732.976 Q159.241 731.221 159.032 728.999 Q158.824 726.777 160.199 724.567 M155.374 721.559 Q156.798 722.983 158.48 722.898 Q160.174 722.799 161.782 721.191 Q163.378 719.595 163.476 717.901 Q163.587 716.195 162.163 714.771 Q160.739 713.347 159.032 713.457 Q157.338 713.555 155.742 715.151 Q154.134 716.76 154.036 718.454 Q153.95 720.135 155.374 721.559 Z" fill="#000000" fill-rule="nonzero" fill-opacity="1" /><path clip-path="url(#clip930)" d="M171.738 699.156 Q169.823 701.071 170.744 703.931 Q171.665 706.767 175.446 710.548 Q179.214 714.317 182.062 715.25 Q184.91 716.158 186.826 714.243 Q188.753 712.316 187.832 709.48 Q186.911 706.619 183.143 702.851 Q179.362 699.07 176.514 698.161 Q173.666 697.228 171.738 699.156 M169.774 697.191 Q172.855 694.11 176.919 694.933 Q180.982 695.731 185.622 700.371 Q190.251 704.999 191.061 709.075 Q191.871 713.126 188.79 716.207 Q185.708 719.288 181.645 718.49 Q177.582 717.668 172.954 713.04 Q168.313 708.399 167.503 704.348 Q166.693 700.273 169.774 697.191 Z" fill="#000000" fill-rule="nonzero" fill-opacity="1" /><path clip-path="url(#clip930)" d="M394.99 738.611 Q393.075 740.526 393.996 743.386 Q394.917 746.222 398.698 750.003 Q402.467 753.772 405.315 754.705 Q408.163 755.613 410.078 753.698 Q412.005 751.771 411.084 748.935 Q410.164 746.075 406.395 742.306 Q402.614 738.525 399.766 737.617 Q396.918 736.684 394.99 738.611 M393.026 736.647 Q396.108 733.565 400.171 734.388 Q404.234 735.186 408.875 739.826 Q413.503 744.454 414.313 748.53 Q415.123 752.581 412.042 755.662 Q408.961 758.744 404.897 757.946 Q400.834 757.123 396.206 752.495 Q391.565 747.855 390.755 743.804 Q389.945 739.728 393.026 736.647 Z" fill="#000000" fill-rule="nonzero" fill-opacity="1" /><path clip-path="url(#clip930)" d="M419.26 741.496 L421.85 738.906 L424.969 742.024 L422.378 744.614 L419.26 741.496 Z" fill="#000000" fill-rule="nonzero" fill-opacity="1" /><path clip-path="url(#clip930)" d="M426.97 722.615 Q425.202 724.383 425.128 726.347 Q425.067 728.299 426.724 729.956 Q428.381 731.614 430.333 731.552 Q432.297 731.479 434.065 729.711 Q435.833 727.943 435.907 725.979 Q435.968 724.002 434.323 722.357 Q432.666 720.7 430.702 720.774 Q428.75 720.835 426.97 722.615 M423.434 724.039 Q421.445 725.242 419.457 725.046 Q417.48 724.837 415.909 723.266 Q413.711 721.068 413.994 718.233 Q414.288 715.385 417.014 712.659 Q419.751 709.922 422.587 709.639 Q425.423 709.357 427.62 711.554 Q429.192 713.126 429.388 715.115 Q429.597 717.091 428.406 719.067 Q430.616 717.692 432.825 717.913 Q435.047 718.122 436.803 719.878 Q439.467 722.542 439.258 725.598 Q439.062 728.643 436.029 731.675 Q432.997 734.707 429.94 734.916 Q426.896 735.112 424.232 732.448 Q422.477 730.693 422.268 728.471 Q422.059 726.249 423.434 724.039 M418.61 721.032 Q420.034 722.456 421.715 722.37 Q423.41 722.271 425.018 720.663 Q426.614 719.067 426.712 717.373 Q426.822 715.667 425.398 714.243 Q423.974 712.819 422.268 712.929 Q420.574 713.028 418.978 714.623 Q417.37 716.232 417.272 717.926 Q417.186 719.608 418.61 721.032 Z" fill="#000000" fill-rule="nonzero" fill-opacity="1" /><path clip-path="url(#clip930)" d="M428.062 702.274 L437.797 692.539 L439.884 694.626 L432.42 702.09 L436.913 706.583 Q437.269 705.858 437.723 705.232 Q438.165 704.594 438.706 704.054 Q441.775 700.985 445.249 700.874 Q448.723 700.764 451.595 703.636 Q454.554 706.595 454.358 710.081 Q454.149 713.555 450.798 716.907 Q449.644 718.061 448.244 719.067 Q446.857 720.062 445.187 720.946 L442.695 718.454 Q444.402 717.95 445.875 717.066 Q447.348 716.183 448.661 714.869 Q450.785 712.745 450.908 710.388 Q451.031 708.031 449.116 706.116 Q447.201 704.201 444.844 704.324 Q442.487 704.447 440.363 706.57 Q439.368 707.565 438.595 708.78 Q437.834 709.983 437.269 711.481 L428.062 702.274 Z" fill="#000000" fill-rule="nonzero" fill-opacity="1" /><path clip-path="url(#clip930)" d="M657.17 739.139 Q655.255 741.054 656.176 743.914 Q657.096 746.75 660.877 750.531 Q664.646 754.3 667.494 755.233 Q670.342 756.141 672.257 754.226 Q674.185 752.299 673.264 749.463 Q672.343 746.603 668.575 742.834 Q664.794 739.053 661.945 738.144 Q659.097 737.211 657.17 739.139 M655.206 737.175 Q658.287 734.093 662.351 734.916 Q666.414 735.714 671.054 740.354 Q675.682 744.982 676.493 749.058 Q677.303 753.109 674.222 756.19 Q671.14 759.272 667.077 758.474 Q663.013 757.651 658.385 753.023 Q653.745 748.383 652.935 744.332 Q652.125 740.256 655.206 737.175 Z" fill="#000000" fill-rule="nonzero" fill-opacity="1" /><path clip-path="url(#clip930)" d="M681.44 742.024 L684.03 739.433 L687.148 742.552 L684.558 745.142 L681.44 742.024 Z" fill="#000000" fill-rule="nonzero" fill-opacity="1" /><path clip-path="url(#clip930)" d="M692.243 736.696 L689.984 734.437 Q691.359 733.946 692.55 733.222 Q693.741 732.497 694.661 731.577 Q697.116 729.122 696.76 726.188 Q696.404 723.229 693.225 719.681 Q693.569 721.449 693.041 723.106 Q692.513 724.764 691.187 726.089 Q688.437 728.839 685.172 728.79 Q681.906 728.716 679.022 725.832 Q676.198 723.008 676.161 719.632 Q676.124 716.256 678.899 713.482 Q682.078 710.302 686.191 711.076 Q690.303 711.825 694.944 716.465 Q699.277 720.798 699.805 725.451 Q700.333 730.079 696.859 733.553 Q695.926 734.486 694.784 735.26 Q693.642 736.033 692.243 736.696 M689.407 723.99 Q691.077 722.321 690.905 720.209 Q690.745 718.085 688.756 716.097 Q686.78 714.12 684.656 713.961 Q682.532 713.776 680.863 715.446 Q679.193 717.116 679.365 719.252 Q679.537 721.363 681.514 723.339 Q683.502 725.328 685.614 725.5 Q687.738 725.66 689.407 723.99 Z" fill="#000000" fill-rule="nonzero" fill-opacity="1" /><path clip-path="url(#clip930)" d="M697.153 699.156 Q695.238 701.071 696.159 703.931 Q697.08 706.767 700.861 710.548 Q704.629 714.317 707.477 715.25 Q710.326 716.158 712.241 714.243 Q714.168 712.316 713.247 709.48 Q712.327 706.619 708.558 702.851 Q704.777 699.07 701.929 698.161 Q699.081 697.228 697.153 699.156 M695.189 697.191 Q698.27 694.11 702.334 694.933 Q706.397 695.731 711.038 700.371 Q715.666 704.999 716.476 709.075 Q717.286 713.126 714.205 716.207 Q711.123 719.288 707.06 718.49 Q702.997 717.668 698.369 713.04 Q693.728 708.399 692.918 704.348 Q692.108 700.273 695.189 697.191 Z" fill="#000000" fill-rule="nonzero" fill-opacity="1" /><path clip-path="url(#clip930)" d="M920.405 738.611 Q918.49 740.526 919.411 743.386 Q920.332 746.222 924.113 750.003 Q927.882 753.772 930.73 754.705 Q933.578 755.613 935.493 753.698 Q937.42 751.771 936.499 748.935 Q935.579 746.075 931.81 742.306 Q928.029 738.525 925.181 737.617 Q922.333 736.684 920.405 738.611 M918.441 736.647 Q921.523 733.565 925.586 734.388 Q929.649 735.186 934.29 739.826 Q938.918 744.454 939.728 748.53 Q940.538 752.581 937.457 755.662 Q934.376 758.744 930.312 757.946 Q926.249 757.123 921.621 752.495 Q916.98 747.855 916.17 743.804 Q915.36 739.728 918.441 736.647 Z" fill="#000000" fill-rule="nonzero" fill-opacity="1" /><path clip-path="url(#clip930)" d="M944.675 741.496 L947.266 738.906 L950.384 742.024 L947.793 744.614 L944.675 741.496 Z" fill="#000000" fill-rule="nonzero" fill-opacity="1" /><path clip-path="url(#clip930)" d="M955.478 736.168 L953.219 733.909 Q954.594 733.418 955.785 732.694 Q956.976 731.97 957.897 731.049 Q960.352 728.594 959.996 725.66 Q959.64 722.701 956.46 719.153 Q956.804 720.921 956.276 722.578 Q955.748 724.236 954.423 725.561 Q951.673 728.311 948.407 728.262 Q945.142 728.189 942.257 725.304 Q939.433 722.48 939.397 719.104 Q939.36 715.728 942.134 712.954 Q945.314 709.774 949.426 710.548 Q953.539 711.297 958.179 715.937 Q962.512 720.27 963.04 724.923 Q963.568 729.551 960.094 733.025 Q959.161 733.958 958.019 734.732 Q956.878 735.505 955.478 736.168 M952.642 723.462 Q954.312 721.793 954.14 719.681 Q953.981 717.557 951.992 715.569 Q950.015 713.592 947.892 713.433 Q945.768 713.249 944.098 714.918 Q942.429 716.588 942.601 718.724 Q942.773 720.835 944.749 722.812 Q946.738 724.8 948.849 724.972 Q950.973 725.132 952.642 723.462 Z" fill="#000000" fill-rule="nonzero" fill-opacity="1" /><path clip-path="url(#clip930)" d="M953.477 702.274 L963.212 692.539 L965.299 694.626 L957.835 702.09 L962.328 706.583 Q962.684 705.858 963.139 705.232 Q963.58 704.594 964.121 704.054 Q967.19 700.985 970.664 700.874 Q974.138 700.764 977.011 703.636 Q979.969 706.595 979.773 710.081 Q979.564 713.555 976.213 716.907 Q975.059 718.061 973.659 719.067 Q972.272 720.062 970.602 720.946 L968.11 718.454 Q969.817 717.95 971.29 717.066 Q972.763 716.183 974.077 714.869 Q976.2 712.745 976.323 710.388 Q976.446 708.031 974.531 706.116 Q972.616 704.201 970.259 704.324 Q967.902 704.447 965.778 706.57 Q964.784 707.565 964.01 708.78 Q963.249 709.983 962.684 711.481 L953.477 702.274 Z" fill="#000000" fill-rule="nonzero" fill-opacity="1" /><polyline clip-path="url(#clip930)" style="stroke:#000000; stroke-linecap:round; stroke-linejoin:round; stroke-width:4; stroke-opacity:1; fill:none" points="161.818,667.406 161.818,97.5521 "/>
<polyline clip-path="url(#clip930)" style="stroke:#000000; stroke-linecap:round; stroke-linejoin:round; stroke-width:4; stroke-opacity:1; fill:none" points="161.818,651.278 180.716,651.278 "/>
<polyline clip-path="url(#clip930)" style="stroke:#000000; stroke-linecap:round; stroke-linejoin:round; stroke-width:4; stroke-opacity:1; fill:none" points="161.818,519.487 180.716,519.487 "/>
<polyline clip-path="url(#clip930)" style="stroke:#000000; stroke-linecap:round; stroke-linejoin:round; stroke-width:4; stroke-opacity:1; fill:none" points="161.818,387.696 180.716,387.696 "/>
<polyline clip-path="url(#clip930)" style="stroke:#000000; stroke-linecap:round; stroke-linejoin:round; stroke-width:4; stroke-opacity:1; fill:none" points="161.818,255.905 180.716,255.905 "/>
<polyline clip-path="url(#clip930)" style="stroke:#000000; stroke-linecap:round; stroke-linejoin:round; stroke-width:4; stroke-opacity:1; fill:none" points="161.818,124.114 180.716,124.114 "/>
<path clip-path="url(#clip930)" d="M116.86 640.627 Q114.152 640.627 112.78 643.301 Q111.426 645.957 111.426 651.304 Q111.426 656.634 112.78 659.308 Q114.152 661.964 116.86 661.964 Q119.586 661.964 120.94 659.308 Q122.311 656.634 122.311 651.304 Q122.311 645.957 120.94 643.301 Q119.586 640.627 116.86 640.627 M116.86 637.85 Q121.217 637.85 123.509 641.305 Q125.818 644.742 125.818 651.304 Q125.818 657.85 123.509 661.304 Q121.217 664.742 116.86 664.742 Q112.502 664.742 110.193 661.304 Q107.902 657.85 107.902 651.304 Q107.902 644.742 110.193 641.305 Q112.502 637.85 116.86 637.85 Z" fill="#000000" fill-rule="nonzero" fill-opacity="1" /><path clip-path="url(#clip930)" d="M110.888 529.496 L116.617 529.496 L116.617 509.722 L110.384 510.972 L110.384 507.777 L116.582 506.527 L120.089 506.527 L120.089 529.496 L125.818 529.496 L125.818 532.447 L110.888 532.447 L110.888 529.496 Z" fill="#000000" fill-rule="nonzero" fill-opacity="1" /><path clip-path="url(#clip930)" d="M113.579 397.705 L125.818 397.705 L125.818 400.656 L109.36 400.656 L109.36 397.705 Q111.356 395.639 114.794 392.167 Q118.249 388.677 119.134 387.67 Q120.818 385.778 121.478 384.476 Q122.155 383.156 122.155 381.889 Q122.155 379.823 120.697 378.521 Q119.256 377.219 116.929 377.219 Q115.28 377.219 113.44 377.792 Q111.617 378.365 109.533 379.528 L109.533 375.986 Q111.652 375.136 113.492 374.701 Q115.332 374.267 116.86 374.267 Q120.888 374.267 123.283 376.281 Q125.679 378.295 125.679 381.663 Q125.679 383.26 125.072 384.701 Q124.481 386.125 122.901 388.069 Q122.467 388.573 120.141 390.986 Q117.815 393.382 113.579 397.705 Z" fill="#000000" fill-rule="nonzero" fill-opacity="1" /><path clip-path="url(#clip930)" d="M120.471 254.889 Q122.988 255.428 124.395 257.129 Q125.818 258.83 125.818 261.33 Q125.818 265.167 123.179 267.268 Q120.54 269.369 115.679 269.369 Q114.047 269.369 112.311 269.039 Q110.593 268.726 108.752 268.084 L108.752 264.698 Q110.211 265.549 111.947 265.983 Q113.683 266.417 115.575 266.417 Q118.874 266.417 120.592 265.115 Q122.329 263.813 122.329 261.33 Q122.329 259.039 120.714 257.754 Q119.117 256.452 116.252 256.452 L113.231 256.452 L113.231 253.57 L116.391 253.57 Q118.978 253.57 120.349 252.546 Q121.721 251.504 121.721 249.56 Q121.721 247.563 120.297 246.504 Q118.891 245.428 116.252 245.428 Q114.811 245.428 113.162 245.74 Q111.513 246.053 109.533 246.712 L109.533 243.587 Q111.53 243.032 113.266 242.754 Q115.02 242.476 116.565 242.476 Q120.558 242.476 122.884 244.299 Q125.21 246.105 125.21 249.195 Q125.21 251.348 123.978 252.841 Q122.745 254.317 120.471 254.889 Z" fill="#000000" fill-rule="nonzero" fill-opacity="1" /><path clip-path="url(#clip930)" d="M118.631 114.21 L109.777 128.046 L118.631 128.046 L118.631 114.21 M117.711 111.154 L122.12 111.154 L122.12 128.046 L125.818 128.046 L125.818 130.963 L122.12 130.963 L122.12 137.074 L118.631 137.074 L118.631 130.963 L106.929 130.963 L106.929 127.578 L117.711 111.154 Z" fill="#000000" fill-rule="nonzero" fill-opacity="1" /><path clip-path="url(#clip930)" d="M163.901 20.1758 Q165.313 17.8147 168.809 15.7314 Q170.175 14.9212 174.387 14.9212 Q179.11 14.9212 182.049 18.6712 Q185.012 22.4212 185.012 28.5323 Q185.012 34.6433 182.049 38.3933 Q179.11 42.1433 174.387 42.1433 Q171.54 42.1433 169.48 41.0322 Q167.443 39.8979 166.1 37.5831 L166.1 51.3331 L161.818 51.3331 L161.818 28.7637 Q161.818 23.4165 163.901 20.1758 M180.591 28.5323 Q180.591 23.8332 178.647 21.1712 Q176.725 18.486 173.346 18.486 Q169.966 18.486 168.022 21.1712 Q166.1 23.8332 166.1 28.5323 Q166.1 33.2313 168.022 35.9165 Q169.966 38.5785 173.346 38.5785 Q176.725 38.5785 178.647 35.9165 Q180.591 33.2313 180.591 28.5323 Z" fill="#000000" fill-rule="nonzero" fill-opacity="1" /><polyline clip-path="url(#clip932)" style="stroke:#009af9; stroke-linecap:round; stroke-linejoin:round; stroke-width:4; stroke-opacity:1; fill:none" points="189.869,593.518 248.307,597.751 306.746,602.517 365.185,607.921 423.623,614.102 482.062,621.239 540.501,629.573 598.939,639.433 657.378,651.278 715.817,636.78 774.256,618.624 832.694,595.226 891.133,563.932 949.572,519.921 1008.01,453.44 1066.45,341.371 1124.89,113.68 "/>
<circle clip-path="url(#clip932)" cx="657.378" cy="651.278" r="10.8" fill="#ff0000" fill-rule="evenodd" fill-opacity="1" stroke="#000000" stroke-opacity="1" stroke-width="3.2"/>
<path clip-path="url(#clip930)" d="M1361.64 667.406 L2352.76 667.406 L2352.76 97.5521 L1361.64 97.5521  Z" fill="#ffffff" fill-rule="evenodd" fill-opacity="1"/>
<defs>
  <clipPath id="clip933">
    <rect x="1361" y="97" width="992" height="571"/>
  </clipPath>
</defs>
<polyline clip-path="url(#clip933)" style="stroke:#000000; stroke-linecap:round; stroke-linejoin:round; stroke-width:2; stroke-opacity:0.1; fill:none" points="1498.04,667.406 1498.04,97.5521 "/>
<polyline clip-path="url(#clip933)" style="stroke:#000000; stroke-linecap:round; stroke-linejoin:round; stroke-width:2; stroke-opacity:0.1; fill:none" points="1641.9,667.406 1641.9,97.5521 "/>
<polyline clip-path="url(#clip933)" style="stroke:#000000; stroke-linecap:round; stroke-linejoin:round; stroke-width:2; stroke-opacity:0.1; fill:none" points="1785.77,667.406 1785.77,97.5521 "/>
<polyline clip-path="url(#clip933)" style="stroke:#000000; stroke-linecap:round; stroke-linejoin:round; stroke-width:2; stroke-opacity:0.1; fill:none" points="1929.63,667.406 1929.63,97.5521 "/>
<polyline clip-path="url(#clip933)" style="stroke:#000000; stroke-linecap:round; stroke-linejoin:round; stroke-width:2; stroke-opacity:0.1; fill:none" points="2073.49,667.406 2073.49,97.5521 "/>
<polyline clip-path="url(#clip933)" style="stroke:#000000; stroke-linecap:round; stroke-linejoin:round; stroke-width:2; stroke-opacity:0.1; fill:none" points="2217.36,667.406 2217.36,97.5521 "/>
<polyline clip-path="url(#clip933)" style="stroke:#000000; stroke-linecap:round; stroke-linejoin:round; stroke-width:2; stroke-opacity:0.1; fill:none" points="1361.64,651.278 2352.76,651.278 "/>
<polyline clip-path="url(#clip933)" style="stroke:#000000; stroke-linecap:round; stroke-linejoin:round; stroke-width:2; stroke-opacity:0.1; fill:none" points="1361.64,508.33 2352.76,508.33 "/>
<polyline clip-path="url(#clip933)" style="stroke:#000000; stroke-linecap:round; stroke-linejoin:round; stroke-width:2; stroke-opacity:0.1; fill:none" points="1361.64,365.382 2352.76,365.382 "/>
<polyline clip-path="url(#clip933)" style="stroke:#000000; stroke-linecap:round; stroke-linejoin:round; stroke-width:2; stroke-opacity:0.1; fill:none" points="1361.64,222.435 2352.76,222.435 "/>
<polyline clip-path="url(#clip930)" style="stroke:#000000; stroke-linecap:round; stroke-linejoin:round; stroke-width:4; stroke-opacity:1; fill:none" points="1361.64,667.406 2352.76,667.406 "/>
<polyline clip-path="url(#clip930)" style="stroke:#000000; stroke-linecap:round; stroke-linejoin:round; stroke-width:4; stroke-opacity:1; fill:none" points="1498.04,667.406 1498.04,648.509 "/>
<polyline clip-path="url(#clip930)" style="stroke:#000000; stroke-linecap:round; stroke-linejoin:round; stroke-width:4; stroke-opacity:1; fill:none" points="1641.9,667.406 1641.9,648.509 "/>
<polyline clip-path="url(#clip930)" style="stroke:#000000; stroke-linecap:round; stroke-linejoin:round; stroke-width:4; stroke-opacity:1; fill:none" points="1785.77,667.406 1785.77,648.509 "/>
<polyline clip-path="url(#clip930)" style="stroke:#000000; stroke-linecap:round; stroke-linejoin:round; stroke-width:4; stroke-opacity:1; fill:none" points="1929.63,667.406 1929.63,648.509 "/>
<polyline clip-path="url(#clip930)" style="stroke:#000000; stroke-linecap:round; stroke-linejoin:round; stroke-width:4; stroke-opacity:1; fill:none" points="2073.49,667.406 2073.49,648.509 "/>
<polyline clip-path="url(#clip930)" style="stroke:#000000; stroke-linecap:round; stroke-linejoin:round; stroke-width:4; stroke-opacity:1; fill:none" points="2217.36,667.406 2217.36,648.509 "/>
<path clip-path="url(#clip930)" d="M1444.19 739.139 Q1442.27 741.054 1443.19 743.914 Q1444.11 746.75 1447.89 750.531 Q1451.66 754.3 1454.51 755.233 Q1457.36 756.141 1459.27 754.226 Q1461.2 752.299 1460.28 749.463 Q1459.36 746.603 1455.59 742.834 Q1451.81 739.053 1448.96 738.144 Q1446.11 737.211 1444.19 739.139 M1442.22 737.175 Q1445.3 734.093 1449.37 734.916 Q1453.43 735.714 1458.07 740.354 Q1462.7 744.982 1463.51 749.058 Q1464.32 753.109 1461.24 756.19 Q1458.16 759.272 1454.09 758.474 Q1450.03 757.651 1445.4 753.023 Q1440.76 748.383 1439.95 744.332 Q1439.14 740.256 1442.22 737.175 Z" fill="#000000" fill-rule="nonzero" fill-opacity="1" /><path clip-path="url(#clip930)" d="M1468.46 742.024 L1471.05 739.433 L1474.17 742.552 L1471.58 745.142 L1468.46 742.024 Z" fill="#000000" fill-rule="nonzero" fill-opacity="1" /><path clip-path="url(#clip930)" d="M1477.2 719.755 Q1479.36 718.355 1481.56 718.564 Q1483.77 718.761 1485.53 720.528 Q1488.25 723.241 1487.87 726.593 Q1487.49 729.944 1484.05 733.381 Q1482.89 734.535 1481.43 735.53 Q1480 736.524 1478.24 737.371 L1475.85 734.977 Q1477.48 734.548 1479.01 733.627 Q1480.55 732.706 1481.89 731.368 Q1484.22 729.036 1484.51 726.9 Q1484.82 724.751 1483.07 722.996 Q1481.45 721.375 1479.4 721.609 Q1477.35 721.817 1475.32 723.843 L1473.18 725.979 L1471.15 723.941 L1473.38 721.707 Q1475.21 719.878 1475.45 718.184 Q1475.69 716.477 1474.31 715.102 Q1472.9 713.69 1471.15 713.948 Q1469.39 714.182 1467.52 716.047 Q1466.51 717.066 1465.56 718.454 Q1464.61 719.841 1463.68 721.707 L1461.47 719.497 Q1462.49 717.692 1463.52 716.268 Q1464.57 714.832 1465.66 713.74 Q1468.48 710.916 1471.42 710.56 Q1474.34 710.192 1476.52 712.377 Q1478.04 713.899 1478.23 715.827 Q1478.4 717.742 1477.2 719.755 Z" fill="#000000" fill-rule="nonzero" fill-opacity="1" /><path clip-path="url(#clip930)" d="M1484.17 699.156 Q1482.26 701.071 1483.18 703.931 Q1484.1 706.767 1487.88 710.548 Q1491.65 714.317 1494.49 715.25 Q1497.34 716.158 1499.26 714.243 Q1501.19 712.316 1500.26 709.48 Q1499.34 706.619 1495.58 702.851 Q1491.79 699.07 1488.95 698.161 Q1486.1 697.228 1484.17 699.156 M1482.21 697.191 Q1485.29 694.11 1489.35 694.933 Q1493.41 695.731 1498.05 700.371 Q1502.68 704.999 1503.49 709.075 Q1504.3 713.126 1501.22 716.207 Q1498.14 719.288 1494.08 718.49 Q1490.01 717.668 1485.39 713.04 Q1480.75 708.399 1479.94 704.348 Q1479.13 700.273 1482.21 697.191 Z" fill="#000000" fill-rule="nonzero" fill-opacity="1" /><path clip-path="url(#clip930)" d="M1588.7 738.488 Q1586.79 740.403 1587.71 743.264 Q1588.63 746.099 1592.41 749.88 Q1596.18 753.649 1599.03 754.582 Q1601.87 755.491 1603.79 753.576 Q1605.72 751.648 1604.8 748.812 Q1603.88 745.952 1600.11 742.183 Q1596.33 738.402 1593.48 737.494 Q1590.63 736.561 1588.7 738.488 M1586.74 736.524 Q1589.82 733.443 1593.88 734.265 Q1597.95 735.063 1602.59 739.704 Q1607.21 744.332 1608.03 748.407 Q1608.84 752.458 1605.75 755.54 Q1602.67 758.621 1598.61 757.823 Q1594.55 757.001 1589.92 752.372 Q1585.28 747.732 1584.47 743.681 Q1583.66 739.605 1586.74 736.524 Z" fill="#000000" fill-rule="nonzero" fill-opacity="1" /><path clip-path="url(#clip930)" d="M1612.97 741.373 L1615.56 738.783 L1618.68 741.901 L1616.09 744.491 L1612.97 741.373 Z" fill="#000000" fill-rule="nonzero" fill-opacity="1" /><path clip-path="url(#clip930)" d="M1621.71 719.104 Q1623.87 717.705 1626.07 717.913 Q1628.28 718.11 1630.05 719.878 Q1632.76 722.591 1632.38 725.942 Q1632 729.293 1628.56 732.731 Q1627.41 733.885 1625.95 734.879 Q1624.51 735.873 1622.76 736.72 L1620.36 734.327 Q1622 733.897 1623.53 732.976 Q1625.06 732.056 1626.4 730.717 Q1628.73 728.385 1629.03 726.249 Q1629.34 724.101 1627.58 722.345 Q1625.96 720.725 1623.91 720.958 Q1621.86 721.167 1619.83 723.192 L1617.7 725.328 L1615.66 723.29 L1617.9 721.056 Q1619.72 719.227 1619.97 717.533 Q1620.2 715.827 1618.83 714.452 Q1617.42 713.04 1615.66 713.298 Q1613.91 713.531 1612.04 715.397 Q1611.02 716.416 1610.08 717.803 Q1609.13 719.19 1608.2 721.056 L1605.99 718.846 Q1607.01 717.042 1608.04 715.618 Q1609.08 714.182 1610.17 713.089 Q1613 710.265 1615.93 709.909 Q1618.85 709.541 1621.04 711.726 Q1622.56 713.249 1622.74 715.176 Q1622.92 717.091 1621.71 719.104 Z" fill="#000000" fill-rule="nonzero" fill-opacity="1" /><path clip-path="url(#clip930)" d="M1638.42 717.987 L1642.47 713.936 L1628.49 699.954 L1624.97 705.245 L1622.71 702.986 L1626.21 697.719 L1628.69 695.24 L1644.93 711.481 L1648.98 707.43 L1651.07 709.517 L1640.51 720.074 L1638.42 717.987 Z" fill="#000000" fill-rule="nonzero" fill-opacity="1" /><path clip-path="url(#clip930)" d="M1732.76 738.292 Q1730.85 740.207 1731.77 743.067 Q1732.69 745.903 1736.47 749.684 Q1740.24 753.453 1743.09 754.386 Q1745.94 755.294 1747.85 753.379 Q1749.78 751.452 1748.86 748.616 Q1747.94 745.756 1744.17 741.987 Q1740.39 738.206 1737.54 737.297 Q1734.69 736.364 1732.76 738.292 M1730.8 736.328 Q1733.88 733.246 1737.94 734.069 Q1742.01 734.867 1746.65 739.507 Q1751.28 744.135 1752.09 748.211 Q1752.9 752.262 1749.81 755.343 Q1746.73 758.425 1742.67 757.627 Q1738.61 756.804 1733.98 752.176 Q1729.34 747.536 1728.53 743.485 Q1727.72 739.409 1730.8 736.328 Z" fill="#000000" fill-rule="nonzero" fill-opacity="1" /><path clip-path="url(#clip930)" d="M1757.03 741.177 L1759.62 738.586 L1762.74 741.705 L1760.15 744.295 L1757.03 741.177 Z" fill="#000000" fill-rule="nonzero" fill-opacity="1" /><path clip-path="url(#clip930)" d="M1765.77 718.908 Q1767.93 717.508 1770.13 717.717 Q1772.34 717.913 1774.11 719.681 Q1776.82 722.394 1776.44 725.746 Q1776.06 729.097 1772.62 732.534 Q1771.47 733.688 1770.01 734.683 Q1768.57 735.677 1766.82 736.524 L1764.42 734.13 Q1766.06 733.701 1767.59 732.78 Q1769.13 731.859 1770.46 730.521 Q1772.8 728.189 1773.09 726.053 Q1773.4 723.904 1771.64 722.149 Q1770.02 720.528 1767.97 720.762 Q1765.92 720.97 1763.9 722.996 L1761.76 725.132 L1759.72 723.094 L1761.96 720.86 Q1763.79 719.031 1764.03 717.336 Q1764.26 715.63 1762.89 714.255 Q1761.48 712.843 1759.72 713.101 Q1757.97 713.334 1756.1 715.2 Q1755.08 716.219 1754.14 717.607 Q1753.19 718.994 1752.26 720.86 L1750.05 718.65 Q1751.07 716.845 1752.1 715.421 Q1753.14 713.985 1754.23 712.893 Q1757.06 710.069 1759.99 709.713 Q1762.91 709.345 1765.1 711.53 Q1766.62 713.052 1766.81 714.979 Q1766.98 716.895 1765.77 718.908 Z" fill="#000000" fill-rule="nonzero" fill-opacity="1" /><path clip-path="url(#clip930)" d="M1784.19 716.084 L1792.84 707.43 L1794.93 709.517 L1783.29 721.154 L1781.2 719.067 Q1781.16 716.195 1781.13 711.309 Q1781.11 706.398 1781.02 705.06 Q1780.87 702.532 1780.42 701.144 Q1779.96 699.733 1779.07 698.836 Q1777.61 697.376 1775.66 697.486 Q1773.72 697.584 1772.07 699.229 Q1770.91 700.395 1770.01 702.102 Q1769.13 703.796 1768.47 706.092 L1765.97 703.587 Q1766.87 701.488 1767.86 699.88 Q1768.86 698.272 1769.94 697.191 Q1772.78 694.343 1775.9 694.073 Q1779.02 693.803 1781.4 696.185 Q1782.53 697.314 1783.12 698.763 Q1783.71 700.187 1783.97 702.679 Q1784.02 703.342 1784.08 706.693 Q1784.13 710.032 1784.19 716.084 Z" fill="#000000" fill-rule="nonzero" fill-opacity="1" /><path clip-path="url(#clip930)" d="M1876.12 738.795 Q1874.21 740.71 1875.13 743.571 Q1876.05 746.406 1879.83 750.187 Q1883.6 753.956 1886.45 754.889 Q1889.3 755.797 1891.21 753.882 Q1893.14 751.955 1892.22 749.119 Q1891.3 746.259 1887.53 742.49 Q1883.75 738.709 1880.9 737.801 Q1878.05 736.868 1876.12 738.795 M1874.16 736.831 Q1877.24 733.75 1881.31 734.572 Q1885.37 735.37 1890.01 740.01 Q1894.64 744.639 1895.45 748.714 Q1896.26 752.765 1893.18 755.847 Q1890.09 758.928 1886.03 758.13 Q1881.97 757.307 1877.34 752.679 Q1872.7 748.039 1871.89 743.988 Q1871.08 739.912 1874.16 736.831 Z" fill="#000000" fill-rule="nonzero" fill-opacity="1" /><path clip-path="url(#clip930)" d="M1900.39 741.68 L1902.98 739.09 L1906.1 742.208 L1903.51 744.798 L1900.39 741.68 Z" fill="#000000" fill-rule="nonzero" fill-opacity="1" /><path clip-path="url(#clip930)" d="M1909.14 719.411 Q1911.3 718.012 1913.49 718.22 Q1915.7 718.417 1917.47 720.185 Q1920.18 722.898 1919.8 726.249 Q1919.42 729.6 1915.99 733.038 Q1914.83 734.192 1913.37 735.186 Q1911.93 736.18 1910.18 737.027 L1907.78 734.634 Q1909.42 734.204 1910.95 733.283 Q1912.49 732.362 1913.82 731.024 Q1916.16 728.692 1916.45 726.556 Q1916.76 724.408 1915 722.652 Q1913.38 721.032 1911.33 721.265 Q1909.28 721.474 1907.26 723.499 L1905.12 725.635 L1903.08 723.597 L1905.32 721.363 Q1907.15 719.534 1907.39 717.84 Q1907.63 716.133 1906.25 714.759 Q1904.84 713.347 1903.08 713.605 Q1901.33 713.838 1899.46 715.704 Q1898.44 716.723 1897.5 718.11 Q1896.55 719.497 1895.62 721.363 L1893.41 719.153 Q1894.43 717.349 1895.46 715.925 Q1896.5 714.488 1897.6 713.396 Q1900.42 710.572 1903.35 710.216 Q1906.27 709.848 1908.46 712.033 Q1909.98 713.555 1910.17 715.483 Q1910.34 717.398 1909.14 719.411 Z" fill="#000000" fill-rule="nonzero" fill-opacity="1" /><path clip-path="url(#clip930)" d="M1925.13 703.415 Q1927.29 702.016 1929.49 702.225 Q1931.7 702.421 1933.47 704.189 Q1936.18 706.902 1935.8 710.253 Q1935.42 713.605 1931.98 717.042 Q1930.83 718.196 1929.37 719.19 Q1927.93 720.185 1926.17 721.032 L1923.78 718.638 Q1925.41 718.208 1926.95 717.287 Q1928.48 716.367 1929.82 715.029 Q1932.15 712.696 1932.45 710.56 Q1932.75 708.412 1931 706.656 Q1929.38 705.036 1927.33 705.269 Q1925.28 705.478 1923.25 707.503 L1921.12 709.639 L1919.08 707.602 L1921.31 705.367 Q1923.14 703.538 1923.39 701.844 Q1923.62 700.138 1922.25 698.763 Q1920.83 697.351 1919.08 697.609 Q1917.32 697.842 1915.46 699.708 Q1914.44 700.727 1913.49 702.114 Q1912.55 703.501 1911.61 705.367 L1909.41 703.158 Q1910.42 701.353 1911.46 699.929 Q1912.5 698.493 1913.59 697.4 Q1916.41 694.577 1919.35 694.221 Q1922.27 693.852 1924.46 696.037 Q1925.98 697.56 1926.16 699.487 Q1926.33 701.402 1925.13 703.415 Z" fill="#000000" fill-rule="nonzero" fill-opacity="1" /><path clip-path="url(#clip930)" d="M2019.39 739.397 Q2017.47 741.312 2018.39 744.172 Q2019.31 747.008 2023.09 750.789 Q2026.86 754.558 2029.71 755.491 Q2032.56 756.399 2034.47 754.484 Q2036.4 752.557 2035.48 749.721 Q2034.56 746.86 2030.79 743.092 Q2027.01 739.311 2024.16 738.402 Q2021.31 737.469 2019.39 739.397 M2017.42 737.432 Q2020.5 734.351 2024.57 735.174 Q2028.63 735.972 2033.27 740.612 Q2037.9 745.24 2038.71 749.316 Q2039.52 753.367 2036.44 756.448 Q2033.36 759.529 2029.29 758.731 Q2025.23 757.909 2020.6 753.281 Q2015.96 748.641 2015.15 744.589 Q2014.34 740.514 2017.42 737.432 Z" fill="#000000" fill-rule="nonzero" fill-opacity="1" /><path clip-path="url(#clip930)" d="M2043.66 742.282 L2046.25 739.691 L2049.37 742.809 L2046.78 745.4 L2043.66 742.282 Z" fill="#000000" fill-rule="nonzero" fill-opacity="1" /><path clip-path="url(#clip930)" d="M2052.4 720.013 Q2054.56 718.613 2056.76 718.822 Q2058.97 719.018 2060.73 720.786 Q2063.45 723.499 2063.07 726.85 Q2062.69 730.202 2059.25 733.639 Q2058.09 734.793 2056.63 735.787 Q2055.2 736.782 2053.44 737.629 L2051.05 735.235 Q2052.68 734.805 2054.21 733.885 Q2055.75 732.964 2057.09 731.626 Q2059.42 729.293 2059.71 727.157 Q2060.02 725.009 2058.27 723.254 Q2056.65 721.633 2054.6 721.866 Q2052.55 722.075 2050.52 724.101 L2048.38 726.237 L2046.35 724.199 L2048.58 721.965 Q2050.41 720.135 2050.65 718.441 Q2050.89 716.735 2049.51 715.36 Q2048.1 713.948 2046.35 714.206 Q2044.59 714.439 2042.72 716.305 Q2041.71 717.324 2040.76 718.711 Q2039.82 720.099 2038.88 721.965 L2036.67 719.755 Q2037.69 717.95 2038.72 716.526 Q2039.77 715.09 2040.86 713.997 Q2043.68 711.174 2046.62 710.818 Q2049.54 710.45 2051.72 712.635 Q2053.25 714.157 2053.43 716.084 Q2053.6 717.999 2052.4 720.013 Z" fill="#000000" fill-rule="nonzero" fill-opacity="1" /><path clip-path="url(#clip930)" d="M2061.41 698.431 L2064.93 714.476 L2071.19 708.215 L2061.41 698.431 M2058.6 696.921 L2061.72 693.803 L2073.66 705.748 L2076.28 703.133 L2078.34 705.195 L2075.72 707.81 L2080.04 712.131 L2077.58 714.599 L2073.26 710.278 L2064.98 718.552 L2062.59 716.158 L2058.6 696.921 Z" fill="#000000" fill-rule="nonzero" fill-opacity="1" /><path clip-path="url(#clip930)" d="M2164.04 738.611 Q2162.12 740.526 2163.04 743.386 Q2163.96 746.222 2167.75 750.003 Q2171.51 753.772 2174.36 754.705 Q2177.21 755.613 2179.13 753.698 Q2181.05 751.771 2180.13 748.935 Q2179.21 746.075 2175.44 742.306 Q2171.66 738.525 2168.81 737.617 Q2165.97 736.684 2164.04 738.611 M2162.07 736.647 Q2165.15 733.565 2169.22 734.388 Q2173.28 735.186 2177.92 739.826 Q2182.55 744.454 2183.36 748.53 Q2184.17 752.581 2181.09 755.662 Q2178.01 758.744 2173.94 757.946 Q2169.88 757.123 2165.25 752.495 Q2160.61 747.855 2159.8 743.804 Q2158.99 739.728 2162.07 736.647 Z" fill="#000000" fill-rule="nonzero" fill-opacity="1" /><path clip-path="url(#clip930)" d="M2188.31 741.496 L2190.9 738.906 L2194.02 742.024 L2191.43 744.614 L2188.31 741.496 Z" fill="#000000" fill-rule="nonzero" fill-opacity="1" /><path clip-path="url(#clip930)" d="M2197.05 719.227 Q2199.21 717.828 2201.41 718.036 Q2203.62 718.233 2205.38 720 Q2208.1 722.713 2207.72 726.065 Q2207.34 729.416 2203.9 732.853 Q2202.74 734.007 2201.28 735.002 Q2199.85 735.996 2198.09 736.843 L2195.7 734.449 Q2197.33 734.02 2198.87 733.099 Q2200.4 732.178 2201.74 730.84 Q2204.07 728.508 2204.36 726.372 Q2204.67 724.223 2202.92 722.468 Q2201.3 720.847 2199.25 721.081 Q2197.2 721.289 2195.17 723.315 L2193.03 725.451 L2191 723.413 L2193.23 721.179 Q2195.06 719.35 2195.3 717.656 Q2195.54 715.949 2194.16 714.574 Q2192.75 713.163 2191 713.42 Q2189.24 713.654 2187.37 715.52 Q2186.36 716.539 2185.41 717.926 Q2184.47 719.313 2183.53 721.179 L2181.32 718.969 Q2182.34 717.165 2183.37 715.741 Q2184.42 714.304 2185.51 713.212 Q2188.33 710.388 2191.27 710.032 Q2194.19 709.664 2196.37 711.849 Q2197.9 713.371 2198.08 715.299 Q2198.25 717.214 2197.05 719.227 Z" fill="#000000" fill-rule="nonzero" fill-opacity="1" /><path clip-path="url(#clip930)" d="M2197.11 702.274 L2206.84 692.539 L2208.93 694.626 L2201.47 702.09 L2205.96 706.583 Q2206.32 705.858 2206.77 705.232 Q2207.21 704.594 2207.75 704.054 Q2210.82 700.985 2214.3 700.874 Q2217.77 700.764 2220.64 703.636 Q2223.6 706.595 2223.4 710.081 Q2223.2 713.555 2219.84 716.907 Q2218.69 718.061 2217.29 719.067 Q2215.9 720.062 2214.23 720.946 L2211.74 718.454 Q2213.45 717.95 2214.92 717.066 Q2216.4 716.183 2217.71 714.869 Q2219.83 712.745 2219.96 710.388 Q2220.08 708.031 2218.16 706.116 Q2216.25 704.201 2213.89 704.324 Q2211.53 704.447 2209.41 706.57 Q2208.42 707.565 2207.64 708.78 Q2206.88 709.983 2206.32 711.481 L2197.11 702.274 Z" fill="#000000" fill-rule="nonzero" fill-opacity="1" /><polyline clip-path="url(#clip930)" style="stroke:#000000; stroke-linecap:round; stroke-linejoin:round; stroke-width:4; stroke-opacity:1; fill:none" points="1361.64,667.406 1361.64,97.5521 "/>
<polyline clip-path="url(#clip930)" style="stroke:#000000; stroke-linecap:round; stroke-linejoin:round; stroke-width:4; stroke-opacity:1; fill:none" points="1361.64,651.278 1380.53,651.278 "/>
<polyline clip-path="url(#clip930)" style="stroke:#000000; stroke-linecap:round; stroke-linejoin:round; stroke-width:4; stroke-opacity:1; fill:none" points="1361.64,508.33 1380.53,508.33 "/>
<polyline clip-path="url(#clip930)" style="stroke:#000000; stroke-linecap:round; stroke-linejoin:round; stroke-width:4; stroke-opacity:1; fill:none" points="1361.64,365.382 1380.53,365.382 "/>
<polyline clip-path="url(#clip930)" style="stroke:#000000; stroke-linecap:round; stroke-linejoin:round; stroke-width:4; stroke-opacity:1; fill:none" points="1361.64,222.435 1380.53,222.435 "/>
<path clip-path="url(#clip930)" d="M1260.13 640.627 Q1257.42 640.627 1256.05 643.301 Q1254.7 645.957 1254.7 651.304 Q1254.7 656.634 1256.05 659.308 Q1257.42 661.964 1260.13 661.964 Q1262.86 661.964 1264.21 659.308 Q1265.58 656.634 1265.58 651.304 Q1265.58 645.957 1264.21 643.301 Q1262.86 640.627 1260.13 640.627 M1260.13 637.85 Q1264.49 637.85 1266.78 641.305 Q1269.09 644.742 1269.09 651.304 Q1269.09 657.85 1266.78 661.304 Q1264.49 664.742 1260.13 664.742 Q1255.78 664.742 1253.47 661.304 Q1251.17 657.85 1251.17 651.304 Q1251.17 644.742 1253.47 641.305 Q1255.78 637.85 1260.13 637.85 Z" fill="#000000" fill-rule="nonzero" fill-opacity="1" /><path clip-path="url(#clip930)" d="M1275.25 659.829 L1278.92 659.829 L1278.92 664.238 L1275.25 664.238 L1275.25 659.829 Z" fill="#000000" fill-rule="nonzero" fill-opacity="1" /><path clip-path="url(#clip930)" d="M1294.06 640.627 Q1291.35 640.627 1289.98 643.301 Q1288.62 645.957 1288.62 651.304 Q1288.62 656.634 1289.98 659.308 Q1291.35 661.964 1294.06 661.964 Q1296.78 661.964 1298.14 659.308 Q1299.51 656.634 1299.51 651.304 Q1299.51 645.957 1298.14 643.301 Q1296.78 640.627 1294.06 640.627 M1294.06 637.85 Q1298.41 637.85 1300.71 641.305 Q1303.01 644.742 1303.01 651.304 Q1303.01 657.85 1300.71 661.304 Q1298.41 664.742 1294.06 664.742 Q1289.7 664.742 1287.39 661.304 Q1285.1 657.85 1285.1 651.304 Q1285.1 644.742 1287.39 641.305 Q1289.7 637.85 1294.06 637.85 Z" fill="#000000" fill-rule="nonzero" fill-opacity="1" /><path clip-path="url(#clip930)" d="M1316.68 640.627 Q1313.97 640.627 1312.6 643.301 Q1311.24 645.957 1311.24 651.304 Q1311.24 656.634 1312.6 659.308 Q1313.97 661.964 1316.68 661.964 Q1319.4 661.964 1320.76 659.308 Q1322.13 656.634 1322.13 651.304 Q1322.13 645.957 1320.76 643.301 Q1319.4 640.627 1316.68 640.627 M1316.68 637.85 Q1321.04 637.85 1323.33 641.305 Q1325.64 644.742 1325.64 651.304 Q1325.64 657.85 1323.33 661.304 Q1321.04 664.742 1316.68 664.742 Q1312.32 664.742 1310.01 661.304 Q1307.72 657.85 1307.72 651.304 Q1307.72 644.742 1310.01 641.305 Q1312.32 637.85 1316.68 637.85 Z" fill="#000000" fill-rule="nonzero" fill-opacity="1" /><path clip-path="url(#clip930)" d="M1260.88 497.679 Q1258.17 497.679 1256.8 500.353 Q1255.45 503.009 1255.45 508.357 Q1255.45 513.686 1256.8 516.36 Q1258.17 519.016 1260.88 519.016 Q1263.6 519.016 1264.96 516.36 Q1266.33 513.686 1266.33 508.357 Q1266.33 503.009 1264.96 500.353 Q1263.6 497.679 1260.88 497.679 M1260.88 494.902 Q1265.24 494.902 1267.53 498.357 Q1269.84 501.794 1269.84 508.357 Q1269.84 514.902 1267.53 518.356 Q1265.24 521.794 1260.88 521.794 Q1256.52 521.794 1254.21 518.356 Q1251.92 514.902 1251.92 508.357 Q1251.92 501.794 1254.21 498.357 Q1256.52 494.902 1260.88 494.902 Z" fill="#000000" fill-rule="nonzero" fill-opacity="1" /><path clip-path="url(#clip930)" d="M1276 516.881 L1279.66 516.881 L1279.66 521.29 L1276 521.29 L1276 516.881 Z" fill="#000000" fill-rule="nonzero" fill-opacity="1" /><path clip-path="url(#clip930)" d="M1294.8 497.679 Q1292.09 497.679 1290.72 500.353 Q1289.37 503.009 1289.37 508.357 Q1289.37 513.686 1290.72 516.36 Q1292.09 519.016 1294.8 519.016 Q1297.53 519.016 1298.88 516.36 Q1300.25 513.686 1300.25 508.357 Q1300.25 503.009 1298.88 500.353 Q1297.53 497.679 1294.8 497.679 M1294.8 494.902 Q1299.16 494.902 1301.45 498.357 Q1303.76 501.794 1303.76 508.357 Q1303.76 514.902 1301.45 518.356 Q1299.16 521.794 1294.8 521.794 Q1290.45 521.794 1288.14 518.356 Q1285.84 514.902 1285.84 508.357 Q1285.84 501.794 1288.14 498.357 Q1290.45 494.902 1294.8 494.902 Z" fill="#000000" fill-rule="nonzero" fill-opacity="1" /><path clip-path="url(#clip930)" d="M1309.96 495.37 L1323.73 495.37 L1323.73 498.322 L1313.17 498.322 L1313.17 504.676 Q1313.93 504.416 1314.7 504.294 Q1315.46 504.155 1316.23 504.155 Q1320.57 504.155 1323.1 506.534 Q1325.64 508.912 1325.64 512.975 Q1325.64 517.159 1323.03 519.485 Q1320.43 521.794 1315.69 521.794 Q1314.06 521.794 1312.35 521.516 Q1310.67 521.238 1308.87 520.683 L1308.87 517.159 Q1310.43 518.009 1312.09 518.426 Q1313.76 518.843 1315.62 518.843 Q1318.62 518.843 1320.38 517.263 Q1322.13 515.683 1322.13 512.975 Q1322.13 510.266 1320.38 508.686 Q1318.62 507.107 1315.62 507.107 Q1314.21 507.107 1312.81 507.419 Q1311.42 507.732 1309.96 508.391 L1309.96 495.37 Z" fill="#000000" fill-rule="nonzero" fill-opacity="1" /><path clip-path="url(#clip930)" d="M1260.13 354.732 Q1257.42 354.732 1256.05 357.405 Q1254.7 360.061 1254.7 365.409 Q1254.7 370.738 1256.05 373.412 Q1257.42 376.068 1260.13 376.068 Q1262.86 376.068 1264.21 373.412 Q1265.58 370.738 1265.58 365.409 Q1265.58 360.061 1264.21 357.405 Q1262.86 354.732 1260.13 354.732 M1260.13 351.954 Q1264.49 351.954 1266.78 355.409 Q1269.09 358.846 1269.09 365.409 Q1269.09 371.954 1266.78 375.408 Q1264.49 378.846 1260.13 378.846 Q1255.78 378.846 1253.47 375.408 Q1251.17 371.954 1251.17 365.409 Q1251.17 358.846 1253.47 355.409 Q1255.78 351.954 1260.13 351.954 Z" fill="#000000" fill-rule="nonzero" fill-opacity="1" /><path clip-path="url(#clip930)" d="M1275.25 373.933 L1278.92 373.933 L1278.92 378.342 L1275.25 378.342 L1275.25 373.933 Z" fill="#000000" fill-rule="nonzero" fill-opacity="1" /><path clip-path="url(#clip930)" d="M1287.16 375.391 L1292.89 375.391 L1292.89 355.617 L1286.66 356.867 L1286.66 353.672 L1292.86 352.422 L1296.37 352.422 L1296.37 375.391 L1302.09 375.391 L1302.09 378.342 L1287.16 378.342 L1287.16 375.391 Z" fill="#000000" fill-rule="nonzero" fill-opacity="1" /><path clip-path="url(#clip930)" d="M1316.68 354.732 Q1313.97 354.732 1312.6 357.405 Q1311.24 360.061 1311.24 365.409 Q1311.24 370.738 1312.6 373.412 Q1313.97 376.068 1316.68 376.068 Q1319.4 376.068 1320.76 373.412 Q1322.13 370.738 1322.13 365.409 Q1322.13 360.061 1320.76 357.405 Q1319.4 354.732 1316.68 354.732 M1316.68 351.954 Q1321.04 351.954 1323.33 355.409 Q1325.64 358.846 1325.64 365.409 Q1325.64 371.954 1323.33 375.408 Q1321.04 378.846 1316.68 378.846 Q1312.32 378.846 1310.01 375.408 Q1307.72 371.954 1307.72 365.409 Q1307.72 358.846 1310.01 355.409 Q1312.32 351.954 1316.68 351.954 Z" fill="#000000" fill-rule="nonzero" fill-opacity="1" /><path clip-path="url(#clip930)" d="M1260.88 211.784 Q1258.17 211.784 1256.8 214.457 Q1255.45 217.113 1255.45 222.461 Q1255.45 227.79 1256.8 230.464 Q1258.17 233.12 1260.88 233.12 Q1263.6 233.12 1264.96 230.464 Q1266.33 227.79 1266.33 222.461 Q1266.33 217.113 1264.96 214.457 Q1263.6 211.784 1260.88 211.784 M1260.88 209.006 Q1265.24 209.006 1267.53 212.461 Q1269.84 215.898 1269.84 222.461 Q1269.84 229.006 1267.53 232.461 Q1265.24 235.898 1260.88 235.898 Q1256.52 235.898 1254.21 232.461 Q1251.92 229.006 1251.92 222.461 Q1251.92 215.898 1254.21 212.461 Q1256.52 209.006 1260.88 209.006 Z" fill="#000000" fill-rule="nonzero" fill-opacity="1" /><path clip-path="url(#clip930)" d="M1276 230.985 L1279.66 230.985 L1279.66 235.395 L1276 235.395 L1276 230.985 Z" fill="#000000" fill-rule="nonzero" fill-opacity="1" /><path clip-path="url(#clip930)" d="M1287.91 232.443 L1293.64 232.443 L1293.64 212.669 L1287.41 213.919 L1287.41 210.725 L1293.6 209.475 L1297.11 209.475 L1297.11 232.443 L1302.84 232.443 L1302.84 235.395 L1287.91 235.395 L1287.91 232.443 Z" fill="#000000" fill-rule="nonzero" fill-opacity="1" /><path clip-path="url(#clip930)" d="M1309.96 209.475 L1323.73 209.475 L1323.73 212.426 L1313.17 212.426 L1313.17 218.78 Q1313.93 218.52 1314.7 218.398 Q1315.46 218.259 1316.23 218.259 Q1320.57 218.259 1323.1 220.638 Q1325.64 223.016 1325.64 227.079 Q1325.64 231.263 1323.03 233.589 Q1320.43 235.898 1315.69 235.898 Q1314.06 235.898 1312.35 235.62 Q1310.67 235.342 1308.87 234.787 L1308.87 231.263 Q1310.43 232.113 1312.09 232.53 Q1313.76 232.947 1315.62 232.947 Q1318.62 232.947 1320.38 231.367 Q1322.13 229.787 1322.13 227.079 Q1322.13 224.37 1320.38 222.79 Q1318.62 221.211 1315.62 221.211 Q1314.21 221.211 1312.81 221.523 Q1311.42 221.836 1309.96 222.495 L1309.96 209.475 Z" fill="#000000" fill-rule="nonzero" fill-opacity="1" /><path clip-path="url(#clip930)" d="M1373.53 18.9258 Q1370.02 18.9258 1368.12 21.4721 Q1366.13 24.1341 1366.13 28.5323 Q1366.13 33.185 1368.09 35.8702 Q1370.08 38.5322 1373.53 38.5322 Q1376.94 38.5322 1378.93 35.847 Q1380.92 33.1619 1380.92 28.5323 Q1380.92 24.2962 1378.93 21.4721 Q1377.1 18.9258 1373.53 18.9258 M1373.53 15.5462 L1387.68 15.5462 L1387.68 19.8054 L1382.91 19.8054 Q1385.43 23.4165 1385.43 28.5323 Q1385.43 34.898 1382.26 38.5091 Q1379.09 42.1433 1373.53 42.1433 Q1367.96 42.1433 1364.81 38.5091 Q1361.64 34.898 1361.64 28.5323 Q1361.64 22.1203 1364.81 18.5323 Q1367.42 15.5462 1373.53 15.5462 Z" fill="#000000" fill-rule="nonzero" fill-opacity="1" /><path clip-path="url(#clip930)" d="M1411.84 19.6666 Q1410.99 19.3656 1410.13 19.1342 Q1407.84 18.5323 1405.39 18.5323 Q1401.15 18.5323 1398.79 20.824 Q1396.59 22.9536 1396.17 26.8656 L1411.84 26.8656 L1411.84 30.1989 L1396.17 30.1989 Q1396.59 34.1109 1398.79 36.2405 Q1401.15 38.5322 1405.39 38.5322 Q1408.35 38.5322 1410.13 37.9304 L1411.84 37.3517 L1411.84 41.2174 L1410.02 41.634 Q1407.61 42.1433 1405.13 42.1433 Q1398.93 42.1433 1395.32 38.5322 Q1391.68 34.9211 1391.68 28.5323 Q1391.68 22.1434 1395.32 18.5323 Q1398.93 14.9212 1405.13 14.9212 Q1407.47 14.9212 1410.02 15.4305 Q1410.94 15.6157 1411.84 15.8934 L1411.84 19.6666 Z" fill="#000000" fill-rule="nonzero" fill-opacity="1" /><polyline clip-path="url(#clip933)" style="stroke:#009af9; stroke-linecap:round; stroke-linejoin:round; stroke-width:4; stroke-opacity:1; fill:none" points="1389.69,164.917 1448.13,222.91 1506.56,281.704 1565,341.298 1623.44,401.693 1681.88,462.889 1740.32,524.885 1798.76,587.681 1857.2,651.278 1915.63,586.881 1974.07,521.682 2032.51,455.683 2090.95,388.884 2149.39,321.284 2207.83,252.883 2266.27,183.682 2324.71,113.68 "/>
<circle clip-path="url(#clip933)" cx="1857.2" cy="651.278" r="10.8" fill="#ff0000" fill-rule="evenodd" fill-opacity="1" stroke="#000000" stroke-opacity="1" stroke-width="3.2"/>
<path clip-path="url(#clip930)" d="M161.818 1467.41 L1152.94 1467.41 L1152.94 897.552 L161.818 897.552  Z" fill="#ffffff" fill-rule="evenodd" fill-opacity="1"/>
<defs>
  <clipPath id="clip934">
    <rect x="161" y="897" width="992" height="571"/>
  </clipPath>
</defs>
<polyline clip-path="url(#clip934)" style="stroke:#000000; stroke-linecap:round; stroke-linejoin:round; stroke-width:2; stroke-opacity:0.1; fill:none" points="292.259,1467.41 292.259,897.552 "/>
<polyline clip-path="url(#clip934)" style="stroke:#000000; stroke-linecap:round; stroke-linejoin:round; stroke-width:2; stroke-opacity:0.1; fill:none" points="464.658,1467.41 464.658,897.552 "/>
<polyline clip-path="url(#clip934)" style="stroke:#000000; stroke-linecap:round; stroke-linejoin:round; stroke-width:2; stroke-opacity:0.1; fill:none" points="637.057,1467.41 637.057,897.552 "/>
<polyline clip-path="url(#clip934)" style="stroke:#000000; stroke-linecap:round; stroke-linejoin:round; stroke-width:2; stroke-opacity:0.1; fill:none" points="809.456,1467.41 809.456,897.552 "/>
<polyline clip-path="url(#clip934)" style="stroke:#000000; stroke-linecap:round; stroke-linejoin:round; stroke-width:2; stroke-opacity:0.1; fill:none" points="981.855,1467.41 981.855,897.552 "/>
<polyline clip-path="url(#clip934)" style="stroke:#000000; stroke-linecap:round; stroke-linejoin:round; stroke-width:2; stroke-opacity:0.1; fill:none" points="161.818,1451.28 1152.94,1451.28 "/>
<polyline clip-path="url(#clip934)" style="stroke:#000000; stroke-linecap:round; stroke-linejoin:round; stroke-width:2; stroke-opacity:0.1; fill:none" points="161.818,1330.52 1152.94,1330.52 "/>
<polyline clip-path="url(#clip934)" style="stroke:#000000; stroke-linecap:round; stroke-linejoin:round; stroke-width:2; stroke-opacity:0.1; fill:none" points="161.818,1209.76 1152.94,1209.76 "/>
<polyline clip-path="url(#clip934)" style="stroke:#000000; stroke-linecap:round; stroke-linejoin:round; stroke-width:2; stroke-opacity:0.1; fill:none" points="161.818,1089 1152.94,1089 "/>
<polyline clip-path="url(#clip934)" style="stroke:#000000; stroke-linecap:round; stroke-linejoin:round; stroke-width:2; stroke-opacity:0.1; fill:none" points="161.818,968.244 1152.94,968.244 "/>
<polyline clip-path="url(#clip930)" style="stroke:#000000; stroke-linecap:round; stroke-linejoin:round; stroke-width:4; stroke-opacity:1; fill:none" points="161.818,1467.41 1152.94,1467.41 "/>
<polyline clip-path="url(#clip930)" style="stroke:#000000; stroke-linecap:round; stroke-linejoin:round; stroke-width:4; stroke-opacity:1; fill:none" points="292.259,1467.41 292.259,1448.51 "/>
<polyline clip-path="url(#clip930)" style="stroke:#000000; stroke-linecap:round; stroke-linejoin:round; stroke-width:4; stroke-opacity:1; fill:none" points="464.658,1467.41 464.658,1448.51 "/>
<polyline clip-path="url(#clip930)" style="stroke:#000000; stroke-linecap:round; stroke-linejoin:round; stroke-width:4; stroke-opacity:1; fill:none" points="637.057,1467.41 637.057,1448.51 "/>
<polyline clip-path="url(#clip930)" style="stroke:#000000; stroke-linecap:round; stroke-linejoin:round; stroke-width:4; stroke-opacity:1; fill:none" points="809.456,1467.41 809.456,1448.51 "/>
<polyline clip-path="url(#clip930)" style="stroke:#000000; stroke-linecap:round; stroke-linejoin:round; stroke-width:4; stroke-opacity:1; fill:none" points="981.855,1467.41 981.855,1448.51 "/>
<path clip-path="url(#clip930)" d="M238.41 1539.14 Q236.495 1541.05 237.416 1543.91 Q238.336 1546.75 242.117 1550.53 Q245.886 1554.3 248.734 1555.23 Q251.582 1556.14 253.497 1554.23 Q255.425 1552.3 254.504 1549.46 Q253.583 1546.6 249.815 1542.83 Q246.034 1539.05 243.185 1538.14 Q240.337 1537.21 238.41 1539.14 M236.446 1537.17 Q239.527 1534.09 243.591 1534.92 Q247.654 1535.71 252.294 1540.35 Q256.922 1544.98 257.733 1549.06 Q258.543 1553.11 255.462 1556.19 Q252.38 1559.27 248.317 1558.47 Q244.253 1557.65 239.625 1553.02 Q234.985 1548.38 234.175 1544.33 Q233.365 1540.26 236.446 1537.17 Z" fill="#000000" fill-rule="nonzero" fill-opacity="1" /><path clip-path="url(#clip930)" d="M262.68 1542.02 L265.27 1539.43 L268.388 1542.55 L265.798 1545.14 L262.68 1542.02 Z" fill="#000000" fill-rule="nonzero" fill-opacity="1" /><path clip-path="url(#clip930)" d="M255.486 1518.8 L265.221 1509.06 L267.308 1511.15 L259.844 1518.61 L264.337 1523.11 Q264.693 1522.38 265.147 1521.76 Q265.589 1521.12 266.129 1520.58 Q269.198 1517.51 272.673 1517.4 Q276.147 1517.29 279.019 1520.16 Q281.978 1523.12 281.781 1526.6 Q281.573 1530.08 278.221 1533.43 Q277.067 1534.58 275.668 1535.59 Q274.281 1536.59 272.611 1537.47 L270.119 1534.98 Q271.826 1534.47 273.299 1533.59 Q274.772 1532.71 276.085 1531.39 Q278.209 1529.27 278.332 1526.91 Q278.455 1524.55 276.54 1522.64 Q274.625 1520.72 272.268 1520.85 Q269.911 1520.97 267.787 1523.09 Q266.792 1524.09 266.019 1525.3 Q265.258 1526.51 264.693 1528 L255.486 1518.8 Z" fill="#000000" fill-rule="nonzero" fill-opacity="1" /><path clip-path="url(#clip930)" d="M278.393 1499.16 Q276.478 1501.07 277.399 1503.93 Q278.32 1506.77 282.101 1510.55 Q285.869 1514.32 288.717 1515.25 Q291.566 1516.16 293.481 1514.24 Q295.408 1512.32 294.487 1509.48 Q293.567 1506.62 289.798 1502.85 Q286.017 1499.07 283.169 1498.16 Q280.321 1497.23 278.393 1499.16 M276.429 1497.19 Q279.51 1494.11 283.574 1494.93 Q287.637 1495.73 292.278 1500.37 Q296.906 1505 297.716 1509.07 Q298.526 1513.13 295.445 1516.21 Q292.363 1519.29 288.3 1518.49 Q284.237 1517.67 279.609 1513.04 Q274.968 1508.4 274.158 1504.35 Q273.348 1500.27 276.429 1497.19 Z" fill="#000000" fill-rule="nonzero" fill-opacity="1" /><path clip-path="url(#clip930)" d="M411.656 1538.29 Q409.741 1540.21 410.662 1543.07 Q411.582 1545.9 415.364 1549.68 Q419.132 1553.45 421.98 1554.39 Q424.828 1555.29 426.743 1553.38 Q428.671 1551.45 427.75 1548.62 Q426.829 1545.76 423.061 1541.99 Q419.28 1538.21 416.432 1537.3 Q413.583 1536.36 411.656 1538.29 M409.692 1536.33 Q412.773 1533.25 416.837 1534.07 Q420.9 1534.87 425.54 1539.51 Q430.168 1544.14 430.979 1548.21 Q431.789 1552.26 428.708 1555.34 Q425.626 1558.42 421.563 1557.63 Q417.5 1556.8 412.871 1552.18 Q408.231 1547.54 407.421 1543.48 Q406.611 1539.41 409.692 1536.33 Z" fill="#000000" fill-rule="nonzero" fill-opacity="1" /><path clip-path="url(#clip930)" d="M435.926 1541.18 L438.516 1538.59 L441.634 1541.7 L439.044 1544.29 L435.926 1541.18 Z" fill="#000000" fill-rule="nonzero" fill-opacity="1" /><path clip-path="url(#clip930)" d="M428.732 1517.95 L438.467 1508.22 L440.554 1510.3 L433.09 1517.77 L437.583 1522.26 Q437.939 1521.53 438.393 1520.91 Q438.835 1520.27 439.376 1519.73 Q442.445 1516.66 445.919 1516.55 Q449.393 1516.44 452.265 1519.31 Q455.224 1522.27 455.028 1525.76 Q454.819 1529.23 451.467 1532.58 Q450.314 1533.74 448.914 1534.74 Q447.527 1535.74 445.857 1536.62 L443.365 1534.13 Q445.072 1533.63 446.545 1532.74 Q448.018 1531.86 449.331 1530.55 Q451.455 1528.42 451.578 1526.06 Q451.701 1523.71 449.786 1521.79 Q447.871 1519.88 445.514 1520 Q443.157 1520.12 441.033 1522.25 Q440.038 1523.24 439.265 1524.46 Q438.504 1525.66 437.939 1527.16 L428.732 1517.95 Z" fill="#000000" fill-rule="nonzero" fill-opacity="1" /><path clip-path="url(#clip930)" d="M463.081 1516.08 L471.735 1507.43 L473.822 1509.52 L462.185 1521.15 L460.098 1519.07 Q460.048 1516.19 460.024 1511.31 Q459.999 1506.4 459.913 1505.06 Q459.766 1502.53 459.312 1501.14 Q458.858 1499.73 457.962 1498.84 Q456.501 1497.38 454.549 1497.49 Q452.609 1497.58 450.964 1499.23 Q449.798 1500.4 448.902 1502.1 Q448.018 1503.8 447.367 1506.09 L444.863 1503.59 Q445.759 1501.49 446.753 1499.88 Q447.748 1498.27 448.828 1497.19 Q451.676 1494.34 454.794 1494.07 Q457.912 1493.8 460.294 1496.18 Q461.423 1497.31 462.013 1498.76 Q462.602 1500.19 462.86 1502.68 Q462.909 1503.34 462.97 1506.69 Q463.019 1510.03 463.081 1516.08 Z" fill="#000000" fill-rule="nonzero" fill-opacity="1" /><path clip-path="url(#clip930)" d="M582.95 1539.4 Q581.035 1541.31 581.956 1544.17 Q582.877 1547.01 586.658 1550.79 Q590.426 1554.56 593.275 1555.49 Q596.123 1556.4 598.038 1554.48 Q599.965 1552.56 599.044 1549.72 Q598.124 1546.86 594.355 1543.09 Q590.574 1539.31 587.726 1538.4 Q584.878 1537.47 582.95 1539.4 M580.986 1537.43 Q584.067 1534.35 588.131 1535.17 Q592.194 1535.97 596.835 1540.61 Q601.463 1545.24 602.273 1549.32 Q603.083 1553.37 600.002 1556.45 Q596.921 1559.53 592.857 1558.73 Q588.794 1557.91 584.166 1553.28 Q579.525 1548.64 578.715 1544.59 Q577.905 1540.51 580.986 1537.43 Z" fill="#000000" fill-rule="nonzero" fill-opacity="1" /><path clip-path="url(#clip930)" d="M607.22 1542.28 L609.81 1539.69 L612.929 1542.81 L610.338 1545.4 L607.22 1542.28 Z" fill="#000000" fill-rule="nonzero" fill-opacity="1" /><path clip-path="url(#clip930)" d="M600.026 1519.06 L609.761 1509.32 L611.848 1511.41 L604.384 1518.87 L608.877 1523.36 Q609.233 1522.64 609.688 1522.01 Q610.13 1521.38 610.67 1520.84 Q613.739 1517.77 617.213 1517.66 Q620.687 1517.55 623.56 1520.42 Q626.518 1523.38 626.322 1526.86 Q626.113 1530.34 622.762 1533.69 Q621.608 1534.84 620.208 1535.85 Q618.821 1536.84 617.152 1537.73 L614.659 1535.24 Q616.366 1534.73 617.839 1533.85 Q619.312 1532.96 620.626 1531.65 Q622.749 1529.53 622.872 1527.17 Q622.995 1524.81 621.08 1522.9 Q619.165 1520.98 616.808 1521.11 Q614.451 1521.23 612.327 1523.35 Q611.333 1524.35 610.559 1525.56 Q609.798 1526.76 609.233 1528.26 L600.026 1519.06 Z" fill="#000000" fill-rule="nonzero" fill-opacity="1" /><path clip-path="url(#clip930)" d="M624.971 1498.43 L628.495 1514.48 L634.755 1508.22 L624.971 1498.43 M622.16 1496.92 L625.278 1493.8 L637.223 1505.75 L639.838 1503.13 L641.9 1505.2 L639.285 1507.81 L643.606 1512.13 L641.139 1514.6 L636.818 1510.28 L628.544 1518.55 L626.15 1516.16 L622.16 1496.92 Z" fill="#000000" fill-rule="nonzero" fill-opacity="1" /><path clip-path="url(#clip930)" d="M755.521 1539.22 Q753.606 1541.14 754.527 1544 Q755.448 1546.84 759.229 1550.62 Q762.997 1554.39 765.845 1555.32 Q768.693 1556.23 770.609 1554.31 Q772.536 1552.38 771.615 1549.55 Q770.694 1546.69 766.926 1542.92 Q763.145 1539.14 760.297 1538.23 Q757.449 1537.3 755.521 1539.22 M753.557 1537.26 Q756.638 1534.18 760.702 1535 Q764.765 1535.8 769.405 1540.44 Q774.034 1545.07 774.844 1549.14 Q775.654 1553.19 772.573 1556.28 Q769.491 1559.36 765.428 1558.56 Q761.365 1557.74 756.737 1553.11 Q752.096 1548.47 751.286 1544.42 Q750.476 1540.34 753.557 1537.26 Z" fill="#000000" fill-rule="nonzero" fill-opacity="1" /><path clip-path="url(#clip930)" d="M779.791 1542.11 L782.381 1539.52 L785.499 1542.64 L782.909 1545.23 L779.791 1542.11 Z" fill="#000000" fill-rule="nonzero" fill-opacity="1" /><path clip-path="url(#clip930)" d="M772.597 1518.88 L782.332 1509.15 L784.419 1511.24 L776.955 1518.7 L781.448 1523.19 Q781.804 1522.47 782.259 1521.84 Q782.7 1521.2 783.241 1520.66 Q786.31 1517.59 789.784 1517.48 Q793.258 1517.37 796.131 1520.25 Q799.089 1523.2 798.893 1526.69 Q798.684 1530.17 795.333 1533.52 Q794.179 1534.67 792.779 1535.68 Q791.392 1536.67 789.722 1537.56 L787.23 1535.06 Q788.937 1534.56 790.41 1533.68 Q791.883 1532.79 793.197 1531.48 Q795.32 1529.35 795.443 1527 Q795.566 1524.64 793.651 1522.73 Q791.736 1520.81 789.379 1520.93 Q787.022 1521.06 784.898 1523.18 Q783.904 1524.17 783.13 1525.39 Q782.369 1526.59 781.804 1528.09 L772.597 1518.88 Z" fill="#000000" fill-rule="nonzero" fill-opacity="1" /><path clip-path="url(#clip930)" d="M802.354 1505.48 Q800.685 1507.15 800.845 1509.27 Q801.016 1511.38 803.005 1513.37 Q804.982 1515.35 807.105 1515.53 Q809.229 1515.69 810.899 1514.02 Q812.568 1512.35 812.396 1510.24 Q812.224 1508.1 810.248 1506.13 Q808.259 1504.14 806.136 1503.98 Q804.024 1503.81 802.354 1505.48 M799.506 1492.78 L801.765 1495.04 Q800.39 1495.53 799.2 1496.26 Q798.021 1496.97 797.088 1497.9 Q794.633 1500.36 794.989 1503.32 Q795.357 1506.26 798.524 1509.8 Q798.181 1508.01 798.708 1506.35 Q799.224 1504.68 800.538 1503.37 Q803.3 1500.6 806.577 1500.69 Q809.855 1500.75 812.74 1503.64 Q815.564 1506.46 815.6 1509.84 Q815.637 1513.21 812.863 1515.99 Q809.683 1519.17 805.571 1518.42 Q801.446 1517.66 796.818 1513.03 Q792.472 1508.68 791.957 1504.04 Q791.429 1499.39 794.903 1495.91 Q795.836 1494.98 796.965 1494.22 Q798.107 1493.45 799.506 1492.78 Z" fill="#000000" fill-rule="nonzero" fill-opacity="1" /><path clip-path="url(#clip930)" d="M928.055 1539.09 Q926.14 1541 927.061 1543.87 Q927.982 1546.7 931.763 1550.48 Q935.531 1554.25 938.379 1555.18 Q941.228 1556.09 943.143 1554.18 Q945.07 1552.25 944.149 1549.41 Q943.229 1546.55 939.46 1542.78 Q935.679 1539 932.831 1538.1 Q929.983 1537.16 928.055 1539.09 M926.091 1537.13 Q929.172 1534.04 933.236 1534.87 Q937.299 1535.66 941.94 1540.31 Q946.568 1544.93 947.378 1549.01 Q948.188 1553.06 945.107 1556.14 Q942.025 1559.22 937.962 1558.42 Q933.899 1557.6 929.271 1552.97 Q924.63 1548.33 923.82 1544.28 Q923.01 1540.21 926.091 1537.13 Z" fill="#000000" fill-rule="nonzero" fill-opacity="1" /><path clip-path="url(#clip930)" d="M952.325 1541.97 L954.915 1539.38 L958.033 1542.5 L955.443 1545.09 L952.325 1541.97 Z" fill="#000000" fill-rule="nonzero" fill-opacity="1" /><path clip-path="url(#clip930)" d="M945.131 1518.75 L954.866 1509.01 L956.953 1511.1 L949.489 1518.56 L953.982 1523.06 Q954.338 1522.33 954.793 1521.71 Q955.235 1521.07 955.775 1520.53 Q958.844 1517.46 962.318 1517.35 Q965.792 1517.24 968.665 1520.11 Q971.623 1523.07 971.427 1526.56 Q971.218 1530.03 967.867 1533.38 Q966.713 1534.54 965.313 1535.54 Q963.926 1536.54 962.256 1537.42 L959.764 1534.93 Q961.471 1534.42 962.944 1533.54 Q964.417 1532.66 965.731 1531.34 Q967.854 1529.22 967.977 1526.86 Q968.1 1524.51 966.185 1522.59 Q964.27 1520.68 961.913 1520.8 Q959.556 1520.92 957.432 1523.04 Q956.438 1524.04 955.664 1525.25 Q954.903 1526.46 954.338 1527.96 L945.131 1518.75 Z" fill="#000000" fill-rule="nonzero" fill-opacity="1" /><path clip-path="url(#clip930)" d="M976.03 1507.1 Q974.262 1508.87 974.189 1510.83 Q974.127 1512.78 975.785 1514.44 Q977.442 1516.1 979.394 1516.04 Q981.358 1515.96 983.126 1514.19 Q984.894 1512.43 984.967 1510.46 Q985.029 1508.49 983.384 1506.84 Q981.726 1505.18 979.762 1505.26 Q977.81 1505.32 976.03 1507.1 M972.495 1508.52 Q970.506 1509.73 968.517 1509.53 Q966.541 1509.32 964.969 1507.75 Q962.772 1505.55 963.054 1502.72 Q963.349 1499.87 966.074 1497.14 Q968.812 1494.4 971.648 1494.12 Q974.483 1493.84 976.681 1496.04 Q978.252 1497.61 978.449 1499.6 Q978.657 1501.57 977.467 1503.55 Q979.676 1502.18 981.886 1502.4 Q984.108 1502.61 985.863 1504.36 Q988.527 1507.02 988.319 1510.08 Q988.122 1513.13 985.09 1516.16 Q982.058 1519.19 979.001 1519.4 Q975.957 1519.6 973.293 1516.93 Q971.537 1515.18 971.328 1512.95 Q971.12 1510.73 972.495 1508.52 M967.67 1505.51 Q969.094 1506.94 970.776 1506.85 Q972.47 1506.75 974.078 1505.15 Q975.674 1503.55 975.772 1501.86 Q975.883 1500.15 974.459 1498.73 Q973.035 1497.3 971.328 1497.41 Q969.634 1497.51 968.039 1499.11 Q966.43 1500.71 966.332 1502.41 Q966.246 1504.09 967.67 1505.51 Z" fill="#000000" fill-rule="nonzero" fill-opacity="1" /><polyline clip-path="url(#clip930)" style="stroke:#000000; stroke-linecap:round; stroke-linejoin:round; stroke-width:4; stroke-opacity:1; fill:none" points="161.818,1467.41 161.818,897.552 "/>
<polyline clip-path="url(#clip930)" style="stroke:#000000; stroke-linecap:round; stroke-linejoin:round; stroke-width:4; stroke-opacity:1; fill:none" points="161.818,1451.28 180.716,1451.28 "/>
<polyline clip-path="url(#clip930)" style="stroke:#000000; stroke-linecap:round; stroke-linejoin:round; stroke-width:4; stroke-opacity:1; fill:none" points="161.818,1330.52 180.716,1330.52 "/>
<polyline clip-path="url(#clip930)" style="stroke:#000000; stroke-linecap:round; stroke-linejoin:round; stroke-width:4; stroke-opacity:1; fill:none" points="161.818,1209.76 180.716,1209.76 "/>
<polyline clip-path="url(#clip930)" style="stroke:#000000; stroke-linecap:round; stroke-linejoin:round; stroke-width:4; stroke-opacity:1; fill:none" points="161.818,1089 180.716,1089 "/>
<polyline clip-path="url(#clip930)" style="stroke:#000000; stroke-linecap:round; stroke-linejoin:round; stroke-width:4; stroke-opacity:1; fill:none" points="161.818,968.244 180.716,968.244 "/>
<path clip-path="url(#clip930)" d="M60.315 1440.63 Q57.6067 1440.63 56.2352 1443.3 Q54.881 1445.96 54.881 1451.3 Q54.881 1456.63 56.2352 1459.31 Q57.6067 1461.96 60.315 1461.96 Q63.0407 1461.96 64.3948 1459.31 Q65.7664 1456.63 65.7664 1451.3 Q65.7664 1445.96 64.3948 1443.3 Q63.0407 1440.63 60.315 1440.63 M60.315 1437.85 Q64.6726 1437.85 66.9643 1441.3 Q69.2733 1444.74 69.2733 1451.3 Q69.2733 1457.85 66.9643 1461.3 Q64.6726 1464.74 60.315 1464.74 Q55.9574 1464.74 53.6484 1461.3 Q51.3567 1457.85 51.3567 1451.3 Q51.3567 1444.74 53.6484 1441.3 Q55.9574 1437.85 60.315 1437.85 Z" fill="#000000" fill-rule="nonzero" fill-opacity="1" /><path clip-path="url(#clip930)" d="M75.4364 1459.83 L79.0996 1459.83 L79.0996 1464.24 L75.4364 1464.24 L75.4364 1459.83 Z" fill="#000000" fill-rule="nonzero" fill-opacity="1" /><path clip-path="url(#clip930)" d="M94.2384 1440.63 Q91.5301 1440.63 90.1586 1443.3 Q88.8044 1445.96 88.8044 1451.3 Q88.8044 1456.63 90.1586 1459.31 Q91.5301 1461.96 94.2384 1461.96 Q96.9641 1461.96 98.3183 1459.31 Q99.6898 1456.63 99.6898 1451.3 Q99.6898 1445.96 98.3183 1443.3 Q96.9641 1440.63 94.2384 1440.63 M94.2384 1437.85 Q98.596 1437.85 100.888 1441.3 Q103.197 1444.74 103.197 1451.3 Q103.197 1457.85 100.888 1461.3 Q98.596 1464.74 94.2384 1464.74 Q89.8808 1464.74 87.5718 1461.3 Q85.2801 1457.85 85.2801 1451.3 Q85.2801 1444.74 87.5718 1441.3 Q89.8808 1437.85 94.2384 1437.85 Z" fill="#000000" fill-rule="nonzero" fill-opacity="1" /><path clip-path="url(#clip930)" d="M116.86 1440.63 Q114.152 1440.63 112.78 1443.3 Q111.426 1445.96 111.426 1451.3 Q111.426 1456.63 112.78 1459.31 Q114.152 1461.96 116.86 1461.96 Q119.586 1461.96 120.94 1459.31 Q122.311 1456.63 122.311 1451.3 Q122.311 1445.96 120.94 1443.3 Q119.586 1440.63 116.86 1440.63 M116.86 1437.85 Q121.217 1437.85 123.509 1441.3 Q125.818 1444.74 125.818 1451.3 Q125.818 1457.85 123.509 1461.3 Q121.217 1464.74 116.86 1464.74 Q112.502 1464.74 110.193 1461.3 Q107.902 1457.85 107.902 1451.3 Q107.902 1444.74 110.193 1441.3 Q112.502 1437.85 116.86 1437.85 Z" fill="#000000" fill-rule="nonzero" fill-opacity="1" /><path clip-path="url(#clip930)" d="M61.2351 1319.87 Q58.5268 1319.87 57.1553 1322.54 Q55.8011 1325.2 55.8011 1330.55 Q55.8011 1335.88 57.1553 1338.55 Q58.5268 1341.21 61.2351 1341.21 Q63.9608 1341.21 65.315 1338.55 Q66.6865 1335.88 66.6865 1330.55 Q66.6865 1325.2 65.315 1322.54 Q63.9608 1319.87 61.2351 1319.87 M61.2351 1317.09 Q65.5927 1317.09 67.8844 1320.55 Q70.1934 1323.98 70.1934 1330.55 Q70.1934 1337.09 67.8844 1340.55 Q65.5927 1343.98 61.2351 1343.98 Q56.8775 1343.98 54.5685 1340.55 Q52.2768 1337.09 52.2768 1330.55 Q52.2768 1323.98 54.5685 1320.55 Q56.8775 1317.09 61.2351 1317.09 Z" fill="#000000" fill-rule="nonzero" fill-opacity="1" /><path clip-path="url(#clip930)" d="M76.3566 1339.07 L80.0197 1339.07 L80.0197 1343.48 L76.3566 1343.48 L76.3566 1339.07 Z" fill="#000000" fill-rule="nonzero" fill-opacity="1" /><path clip-path="url(#clip930)" d="M95.1586 1319.87 Q92.4502 1319.87 91.0787 1322.54 Q89.7246 1325.2 89.7246 1330.55 Q89.7246 1335.88 91.0787 1338.55 Q92.4502 1341.21 95.1586 1341.21 Q97.8842 1341.21 99.2384 1338.55 Q100.61 1335.88 100.61 1330.55 Q100.61 1325.2 99.2384 1322.54 Q97.8842 1319.87 95.1586 1319.87 M95.1586 1317.09 Q99.5162 1317.09 101.808 1320.55 Q104.117 1323.98 104.117 1330.55 Q104.117 1337.09 101.808 1340.55 Q99.5162 1343.98 95.1586 1343.98 Q90.8009 1343.98 88.4919 1340.55 Q86.2003 1337.09 86.2003 1330.55 Q86.2003 1323.98 88.4919 1320.55 Q90.8009 1317.09 95.1586 1317.09 Z" fill="#000000" fill-rule="nonzero" fill-opacity="1" /><path clip-path="url(#clip930)" d="M110.888 1340.53 L116.617 1340.53 L116.617 1320.75 L110.384 1322 L110.384 1318.81 L116.582 1317.56 L120.089 1317.56 L120.089 1340.53 L125.818 1340.53 L125.818 1343.48 L110.888 1343.48 L110.888 1340.53 Z" fill="#000000" fill-rule="nonzero" fill-opacity="1" /><path clip-path="url(#clip930)" d="M61.5129 1199.11 Q58.8046 1199.11 57.4331 1201.78 Q56.0789 1204.44 56.0789 1209.79 Q56.0789 1215.12 57.4331 1217.79 Q58.8046 1220.45 61.5129 1220.45 Q64.2386 1220.45 65.5927 1217.79 Q66.9643 1215.12 66.9643 1209.79 Q66.9643 1204.44 65.5927 1201.78 Q64.2386 1199.11 61.5129 1199.11 M61.5129 1196.33 Q65.8705 1196.33 68.1622 1199.79 Q70.4712 1203.22 70.4712 1209.79 Q70.4712 1216.33 68.1622 1219.79 Q65.8705 1223.22 61.5129 1223.22 Q57.1553 1223.22 54.8463 1219.79 Q52.5546 1216.33 52.5546 1209.79 Q52.5546 1203.22 54.8463 1199.79 Q57.1553 1196.33 61.5129 1196.33 Z" fill="#000000" fill-rule="nonzero" fill-opacity="1" /><path clip-path="url(#clip930)" d="M76.6343 1218.31 L80.2975 1218.31 L80.2975 1222.72 L76.6343 1222.72 L76.6343 1218.31 Z" fill="#000000" fill-rule="nonzero" fill-opacity="1" /><path clip-path="url(#clip930)" d="M95.4363 1199.11 Q92.728 1199.11 91.3565 1201.78 Q90.0023 1204.44 90.0023 1209.79 Q90.0023 1215.12 91.3565 1217.79 Q92.728 1220.45 95.4363 1220.45 Q98.162 1220.45 99.5162 1217.79 Q100.888 1215.12 100.888 1209.79 Q100.888 1204.44 99.5162 1201.78 Q98.162 1199.11 95.4363 1199.11 M95.4363 1196.33 Q99.7939 1196.33 102.086 1199.79 Q104.395 1203.22 104.395 1209.79 Q104.395 1216.33 102.086 1219.79 Q99.7939 1223.22 95.4363 1223.22 Q91.0787 1223.22 88.7697 1219.79 Q86.478 1216.33 86.478 1209.79 Q86.478 1203.22 88.7697 1199.79 Q91.0787 1196.33 95.4363 1196.33 Z" fill="#000000" fill-rule="nonzero" fill-opacity="1" /><path clip-path="url(#clip930)" d="M113.579 1219.77 L125.818 1219.77 L125.818 1222.72 L109.36 1222.72 L109.36 1219.77 Q111.356 1217.7 114.794 1214.23 Q118.249 1210.74 119.134 1209.74 Q120.818 1207.84 121.478 1206.54 Q122.155 1205.22 122.155 1203.95 Q122.155 1201.89 120.697 1200.59 Q119.256 1199.28 116.929 1199.28 Q115.28 1199.28 113.44 1199.86 Q111.617 1200.43 109.533 1201.59 L109.533 1198.05 Q111.652 1197.2 113.492 1196.77 Q115.332 1196.33 116.86 1196.33 Q120.888 1196.33 123.283 1198.35 Q125.679 1200.36 125.679 1203.73 Q125.679 1205.33 125.072 1206.77 Q124.481 1208.19 122.901 1210.13 Q122.467 1210.64 120.141 1213.05 Q117.815 1215.45 113.579 1219.77 Z" fill="#000000" fill-rule="nonzero" fill-opacity="1" /><path clip-path="url(#clip930)" d="M60.8011 1078.35 Q58.0928 1078.35 56.7213 1081.03 Q55.3671 1083.68 55.3671 1089.03 Q55.3671 1094.36 56.7213 1097.03 Q58.0928 1099.69 60.8011 1099.69 Q63.5268 1099.69 64.8809 1097.03 Q66.2525 1094.36 66.2525 1089.03 Q66.2525 1083.68 64.8809 1081.03 Q63.5268 1078.35 60.8011 1078.35 M60.8011 1075.57 Q65.1587 1075.57 67.4504 1079.03 Q69.7594 1082.47 69.7594 1089.03 Q69.7594 1095.57 67.4504 1099.03 Q65.1587 1102.47 60.8011 1102.47 Q56.4435 1102.47 54.1345 1099.03 Q51.8428 1095.57 51.8428 1089.03 Q51.8428 1082.47 54.1345 1079.03 Q56.4435 1075.57 60.8011 1075.57 Z" fill="#000000" fill-rule="nonzero" fill-opacity="1" /><path clip-path="url(#clip930)" d="M75.9225 1097.55 L79.5857 1097.55 L79.5857 1101.96 L75.9225 1101.96 L75.9225 1097.55 Z" fill="#000000" fill-rule="nonzero" fill-opacity="1" /><path clip-path="url(#clip930)" d="M94.7245 1078.35 Q92.0162 1078.35 90.6447 1081.03 Q89.2905 1083.68 89.2905 1089.03 Q89.2905 1094.36 90.6447 1097.03 Q92.0162 1099.69 94.7245 1099.69 Q97.4502 1099.69 98.8044 1097.03 Q100.176 1094.36 100.176 1089.03 Q100.176 1083.68 98.8044 1081.03 Q97.4502 1078.35 94.7245 1078.35 M94.7245 1075.57 Q99.0821 1075.57 101.374 1079.03 Q103.683 1082.47 103.683 1089.03 Q103.683 1095.57 101.374 1099.03 Q99.0821 1102.47 94.7245 1102.47 Q90.3669 1102.47 88.0579 1099.03 Q85.7662 1095.57 85.7662 1089.03 Q85.7662 1082.47 88.0579 1079.03 Q90.3669 1075.57 94.7245 1075.57 Z" fill="#000000" fill-rule="nonzero" fill-opacity="1" /><path clip-path="url(#clip930)" d="M120.471 1087.99 Q122.988 1088.53 124.395 1090.23 Q125.818 1091.93 125.818 1094.43 Q125.818 1098.26 123.179 1100.37 Q120.54 1102.47 115.679 1102.47 Q114.047 1102.47 112.311 1102.14 Q110.593 1101.82 108.752 1101.18 L108.752 1097.8 Q110.211 1098.65 111.947 1099.08 Q113.683 1099.51 115.575 1099.51 Q118.874 1099.51 120.592 1098.21 Q122.329 1096.91 122.329 1094.43 Q122.329 1092.14 120.714 1090.85 Q119.117 1089.55 116.252 1089.55 L113.231 1089.55 L113.231 1086.67 L116.391 1086.67 Q118.978 1086.67 120.349 1085.64 Q121.721 1084.6 121.721 1082.66 Q121.721 1080.66 120.297 1079.6 Q118.891 1078.53 116.252 1078.53 Q114.811 1078.53 113.162 1078.84 Q111.513 1079.15 109.533 1079.81 L109.533 1076.68 Q111.53 1076.13 113.266 1075.85 Q115.02 1075.57 116.565 1075.57 Q120.558 1075.57 122.884 1077.4 Q125.21 1079.2 125.21 1082.29 Q125.21 1084.45 123.978 1085.94 Q122.745 1087.41 120.471 1087.99 Z" fill="#000000" fill-rule="nonzero" fill-opacity="1" /><path clip-path="url(#clip930)" d="M59.9504 957.593 Q57.2421 957.593 55.8706 960.267 Q54.5164 962.923 54.5164 968.27 Q54.5164 973.6 55.8706 976.273 Q57.2421 978.93 59.9504 978.93 Q62.6761 978.93 64.0303 976.273 Q65.4018 973.6 65.4018 968.27 Q65.4018 962.923 64.0303 960.267 Q62.6761 957.593 59.9504 957.593 M59.9504 954.815 Q64.308 954.815 66.5997 958.27 Q68.9087 961.708 68.9087 968.27 Q68.9087 974.815 66.5997 978.27 Q64.308 981.707 59.9504 981.707 Q55.5928 981.707 53.2838 978.27 Q50.9921 974.815 50.9921 968.27 Q50.9921 961.708 53.2838 958.27 Q55.5928 954.815 59.9504 954.815 Z" fill="#000000" fill-rule="nonzero" fill-opacity="1" /><path clip-path="url(#clip930)" d="M75.0719 976.794 L78.735 976.794 L78.735 981.204 L75.0719 981.204 L75.0719 976.794 Z" fill="#000000" fill-rule="nonzero" fill-opacity="1" /><path clip-path="url(#clip930)" d="M93.8738 957.593 Q91.1655 957.593 89.794 960.267 Q88.4398 962.923 88.4398 968.27 Q88.4398 973.6 89.794 976.273 Q91.1655 978.93 93.8738 978.93 Q96.5995 978.93 97.9537 976.273 Q99.3252 973.6 99.3252 968.27 Q99.3252 962.923 97.9537 960.267 Q96.5995 957.593 93.8738 957.593 M93.8738 954.815 Q98.2315 954.815 100.523 958.27 Q102.832 961.708 102.832 968.27 Q102.832 974.815 100.523 978.27 Q98.2315 981.707 93.8738 981.707 Q89.5162 981.707 87.2072 978.27 Q84.9156 974.815 84.9156 968.27 Q84.9156 961.708 87.2072 958.27 Q89.5162 954.815 93.8738 954.815 Z" fill="#000000" fill-rule="nonzero" fill-opacity="1" /><path clip-path="url(#clip930)" d="M118.631 958.339 L109.777 972.176 L118.631 972.176 L118.631 958.339 M117.711 955.284 L122.12 955.284 L122.12 972.176 L125.818 972.176 L125.818 975.093 L122.12 975.093 L122.12 981.204 L118.631 981.204 L118.631 975.093 L106.929 975.093 L106.929 971.707 L117.711 955.284 Z" fill="#000000" fill-rule="nonzero" fill-opacity="1" /><path clip-path="url(#clip930)" d="M173.716 818.926 Q170.198 818.926 168.3 821.472 Q166.309 824.134 166.309 828.532 Q166.309 833.185 168.276 835.87 Q170.267 838.532 173.716 838.532 Q177.119 838.532 179.11 835.847 Q181.1 833.162 181.1 828.532 Q181.1 824.296 179.11 821.472 Q177.281 818.926 173.716 818.926 M173.716 815.546 L187.86 815.546 L187.86 819.805 L183.091 819.805 Q185.614 823.417 185.614 828.532 Q185.614 834.898 182.443 838.509 Q179.272 842.143 173.716 842.143 Q168.138 842.143 164.989 838.509 Q161.818 834.898 161.818 828.532 Q161.818 822.12 164.989 818.532 Q167.605 815.546 173.716 815.546 Z" fill="#000000" fill-rule="nonzero" fill-opacity="1" /><path clip-path="url(#clip930)" d="M198.878 841.472 L190.961 815.546 L195.545 815.546 L202.235 837.305 Q205.012 834.435 207.327 830.454 Q209.086 827.467 209.179 824.875 Q209.225 823.648 208.67 821.333 Q208.022 818.579 205.568 815.546 L209.873 815.546 L209.873 815.546 Q211.471 817.606 212.535 820.477 Q213.508 823.116 213.508 824.921 Q213.508 829.458 210.36 833.509 Q206.262 838.787 203.415 841.472 L198.878 841.472 Z" fill="#000000" fill-rule="nonzero" fill-opacity="1" /><polyline clip-path="url(#clip934)" style="stroke:#009af9; stroke-linecap:round; stroke-linejoin:round; stroke-width:4; stroke-opacity:1; fill:none" points="189.869,964.941 248.307,1022.93 306.746,1081.72 365.185,1141.31 423.623,1201.7 482.062,1262.9 540.501,1324.89 598.939,1387.68 657.378,1451.28 715.817,1386.88 774.256,1321.68 832.694,1255.69 891.133,1188.89 949.572,1121.29 1008.01,1052.89 1066.45,983.683 1124.89,913.68 "/>
<circle clip-path="url(#clip934)" cx="657.378" cy="1451.28" r="10.8" fill="#ff0000" fill-rule="evenodd" fill-opacity="1" stroke="#000000" stroke-opacity="1" stroke-width="3.2"/>
</svg>
