<?xml version="1.0" encoding="utf-8"?>
<svg xmlns="http://www.w3.org/2000/svg" xmlns:xlink="http://www.w3.org/1999/xlink" width="600" height="400" viewBox="0 0 2400 1600">
<defs>
  <clipPath id="clip250">
    <rect x="0" y="0" width="2400" height="1600"/>
  </clipPath>
</defs>
<path clip-path="url(#clip250)" d="M0 1600 L2400 1600 L2400 0 L0 0  Z" fill="#ffffff" fill-rule="evenodd" fill-opacity="1"/>
<defs>
  <clipPath id="clip251">
    <rect x="480" y="0" width="1681" height="1600"/>
  </clipPath>
</defs>
<path clip-path="url(#clip250)" d="M128.138 667.406 L1152.76 667.406 L1152.76 97.5521 L128.138 97.5521  Z" fill="#ffffff" fill-rule="evenodd" fill-opacity="1"/>
<defs>
  <clipPath id="clip252">
    <rect x="128" y="97" width="1026" height="571"/>
  </clipPath>
</defs>
<polyline clip-path="url(#clip252)" style="stroke:#000000; stroke-linecap:round; stroke-linejoin:round; stroke-width:2; stroke-opacity:0.1; fill:none" points="298.482,667.406 298.482,97.5521 "/>
<polyline clip-path="url(#clip252)" style="stroke:#000000; stroke-linecap:round; stroke-linejoin:round; stroke-width:2; stroke-opacity:0.1; fill:none" points="526.459,667.406 526.459,97.5521 "/>
<polyline clip-path="url(#clip252)" style="stroke:#000000; stroke-linecap:round; stroke-linejoin:round; stroke-width:2; stroke-opacity:0.1; fill:none" points="754.435,667.406 754.435,97.5521 "/>
<polyline clip-path="url(#clip252)" style="stroke:#000000; stroke-linecap:round; stroke-linejoin:round; stroke-width:2; stroke-opacity:0.1; fill:none" points="982.412,667.406 982.412,97.5521 "/>
<polyline clip-path="url(#clip252)" style="stroke:#000000; stroke-linecap:round; stroke-linejoin:round; stroke-width:2; stroke-opacity:0.1; fill:none" points="128.138,667.406 1152.76,667.406 "/>
<polyline clip-path="url(#clip252)" style="stroke:#000000; stroke-linecap:round; stroke-linejoin:round; stroke-width:2; stroke-opacity:0.1; fill:none" points="128.138,544.857 1152.76,544.857 "/>
<polyline clip-path="url(#clip252)" style="stroke:#000000; stroke-linecap:round; stroke-linejoin:round; stroke-width:2; stroke-opacity:0.1; fill:none" points="128.138,422.308 1152.76,422.308 "/>
<polyline clip-path="url(#clip252)" style="stroke:#000000; stroke-linecap:round; stroke-linejoin:round; stroke-width:2; stroke-opacity:0.1; fill:none" points="128.138,299.758 1152.76,299.758 "/>
<polyline clip-path="url(#clip252)" style="stroke:#000000; stroke-linecap:round; stroke-linejoin:round; stroke-width:2; stroke-opacity:0.1; fill:none" points="128.138,177.209 1152.76,177.209 "/>
<polyline clip-path="url(#clip250)" style="stroke:#000000; stroke-linecap:round; stroke-linejoin:round; stroke-width:4; stroke-opacity:1; fill:none" points="128.138,667.406 1152.76,667.406 "/>
<polyline clip-path="url(#clip250)" style="stroke:#000000; stroke-linecap:round; stroke-linejoin:round; stroke-width:4; stroke-opacity:1; fill:none" points="298.482,667.406 298.482,648.509 "/>
<polyline clip-path="url(#clip250)" style="stroke:#000000; stroke-linecap:round; stroke-linejoin:round; stroke-width:4; stroke-opacity:1; fill:none" points="526.459,667.406 526.459,648.509 "/>
<polyline clip-path="url(#clip250)" style="stroke:#000000; stroke-linecap:round; stroke-linejoin:round; stroke-width:4; stroke-opacity:1; fill:none" points="754.435,667.406 754.435,648.509 "/>
<polyline clip-path="url(#clip250)" style="stroke:#000000; stroke-linecap:round; stroke-linejoin:round; stroke-width:4; stroke-opacity:1; fill:none" points="982.412,667.406 982.412,648.509 "/>
<path clip-path="url(#clip250)" d="M245.112 738.66 Q243.196 740.575 244.117 743.435 Q245.038 746.271 248.819 750.052 Q252.588 753.821 255.436 754.754 Q258.284 755.662 260.199 753.747 Q262.126 751.82 261.206 748.984 Q260.285 746.124 256.516 742.355 Q252.735 738.574 249.887 737.666 Q247.039 736.733 245.112 738.66 M243.147 736.696 Q246.229 733.615 250.292 734.437 Q254.355 735.235 258.996 739.875 Q263.624 744.503 264.434 748.579 Q265.244 752.63 262.163 755.712 Q259.082 758.793 255.018 757.995 Q250.955 757.172 246.327 752.544 Q241.687 747.904 240.876 743.853 Q240.066 739.777 243.147 736.696 Z" fill="#000000" fill-rule="nonzero" fill-opacity="1" /><path clip-path="url(#clip250)" d="M269.381 741.545 L271.972 738.955 L275.09 742.073 L272.5 744.663 L269.381 741.545 Z" fill="#000000" fill-rule="nonzero" fill-opacity="1" /><path clip-path="url(#clip250)" d="M277.091 722.664 Q275.323 724.432 275.249 726.396 Q275.188 728.348 276.845 730.005 Q278.503 731.663 280.454 731.601 Q282.419 731.528 284.186 729.76 Q285.954 727.992 286.028 726.028 Q286.089 724.052 284.444 722.407 Q282.787 720.749 280.823 720.823 Q278.871 720.884 277.091 722.664 M273.555 724.088 Q271.567 725.291 269.578 725.095 Q267.601 724.886 266.03 723.315 Q263.833 721.118 264.115 718.282 Q264.41 715.434 267.135 712.708 Q269.872 709.971 272.708 709.688 Q275.544 709.406 277.741 711.604 Q279.313 713.175 279.509 715.164 Q279.718 717.14 278.527 719.117 Q280.737 717.742 282.946 717.963 Q285.168 718.171 286.924 719.927 Q289.588 722.591 289.379 725.647 Q289.183 728.692 286.151 731.724 Q283.118 734.756 280.062 734.965 Q277.017 735.161 274.353 732.497 Q272.598 730.742 272.389 728.52 Q272.18 726.298 273.555 724.088 M268.731 721.081 Q270.155 722.505 271.837 722.419 Q273.531 722.321 275.139 720.712 Q276.735 719.117 276.833 717.422 Q276.943 715.716 275.519 714.292 Q274.095 712.868 272.389 712.978 Q270.695 713.077 269.099 714.673 Q267.491 716.281 267.393 717.975 Q267.307 719.657 268.731 721.081 Z" fill="#000000" fill-rule="nonzero" fill-opacity="1" /><path clip-path="url(#clip250)" d="M277.533 702.973 L289.318 691.188 L290.374 692.244 L300.992 716.17 L298.402 718.761 L288.422 696.258 L279.62 705.06 L277.533 702.973 Z" fill="#000000" fill-rule="nonzero" fill-opacity="1" /><path clip-path="url(#clip250)" d="M472.659 739.09 Q470.743 741.005 471.664 743.865 Q472.585 746.701 476.366 750.482 Q480.135 754.251 482.983 755.184 Q485.831 756.092 487.746 754.177 Q489.673 752.25 488.752 749.414 Q487.832 746.554 484.063 742.785 Q480.282 739.004 477.434 738.095 Q474.586 737.162 472.659 739.09 M470.694 737.126 Q473.776 734.044 477.839 734.867 Q481.902 735.665 486.543 740.305 Q491.171 744.933 491.981 749.009 Q492.791 753.06 489.71 756.141 Q486.629 759.223 482.565 758.425 Q478.502 757.602 473.874 752.974 Q469.233 748.334 468.423 744.283 Q467.613 740.207 470.694 737.126 Z" fill="#000000" fill-rule="nonzero" fill-opacity="1" /><path clip-path="url(#clip250)" d="M496.928 741.975 L499.519 739.384 L502.637 742.502 L500.046 745.093 L496.928 741.975 Z" fill="#000000" fill-rule="nonzero" fill-opacity="1" /><path clip-path="url(#clip250)" d="M504.638 723.094 Q502.87 724.862 502.796 726.826 Q502.735 728.778 504.392 730.435 Q506.05 732.092 508.001 732.031 Q509.966 731.957 511.733 730.19 Q513.501 728.422 513.575 726.458 Q513.636 724.481 511.991 722.836 Q510.334 721.179 508.37 721.253 Q506.418 721.314 504.638 723.094 M501.102 724.518 Q499.114 725.721 497.125 725.525 Q495.148 725.316 493.577 723.745 Q491.38 721.547 491.662 718.711 Q491.957 715.863 494.682 713.138 Q497.419 710.4 500.255 710.118 Q503.091 709.836 505.288 712.033 Q506.86 713.605 507.056 715.593 Q507.265 717.57 506.074 719.546 Q508.284 718.171 510.493 718.392 Q512.715 718.601 514.471 720.356 Q517.135 723.02 516.926 726.077 Q516.73 729.122 513.698 732.154 Q510.665 735.186 507.609 735.395 Q504.564 735.591 501.9 732.927 Q500.145 731.172 499.936 728.95 Q499.727 726.728 501.102 724.518 M496.278 721.51 Q497.702 722.934 499.384 722.848 Q501.078 722.75 502.686 721.142 Q504.282 719.546 504.38 717.852 Q504.49 716.146 503.066 714.722 Q501.642 713.298 499.936 713.408 Q498.242 713.506 496.646 715.102 Q495.038 716.71 494.94 718.405 Q494.854 720.086 496.278 721.51 Z" fill="#000000" fill-rule="nonzero" fill-opacity="1" /><path clip-path="url(#clip250)" d="M520.634 707.098 Q518.866 708.866 518.792 710.83 Q518.731 712.782 520.388 714.439 Q522.045 716.097 523.997 716.035 Q525.961 715.962 527.729 714.194 Q529.497 712.426 529.57 710.462 Q529.632 708.485 527.987 706.84 Q526.33 705.183 524.365 705.257 Q522.414 705.318 520.634 707.098 M517.098 708.522 Q515.109 709.725 513.121 709.529 Q511.144 709.32 509.573 707.749 Q507.375 705.551 507.658 702.716 Q507.952 699.868 510.678 697.142 Q513.415 694.405 516.251 694.122 Q519.087 693.84 521.284 696.037 Q522.855 697.609 523.052 699.598 Q523.261 701.574 522.07 703.55 Q524.28 702.176 526.489 702.396 Q528.711 702.605 530.467 704.361 Q533.131 707.025 532.922 710.081 Q532.725 713.126 529.693 716.158 Q526.661 719.19 523.604 719.399 Q520.56 719.595 517.896 716.931 Q516.14 715.176 515.932 712.954 Q515.723 710.732 517.098 708.522 M512.273 705.515 Q513.698 706.939 515.379 706.853 Q517.073 706.754 518.682 705.146 Q520.277 703.55 520.376 701.856 Q520.486 700.15 519.062 698.726 Q517.638 697.302 515.932 697.412 Q514.238 697.511 512.642 699.106 Q511.034 700.715 510.935 702.409 Q510.849 704.091 512.273 705.515 Z" fill="#000000" fill-rule="nonzero" fill-opacity="1" /><path clip-path="url(#clip250)" d="M700.684 739.041 Q698.769 740.956 699.69 743.816 Q700.611 746.652 704.392 750.433 Q708.16 754.202 711.008 755.135 Q713.857 756.043 715.772 754.128 Q717.699 752.201 716.778 749.365 Q715.858 746.504 712.089 742.736 Q708.308 738.955 705.46 738.046 Q702.612 737.113 700.684 739.041 M698.72 737.076 Q701.801 733.995 705.865 734.818 Q709.928 735.616 714.569 740.256 Q719.197 744.884 720.007 748.96 Q720.817 753.011 717.736 756.092 Q714.654 759.173 710.591 758.375 Q706.528 757.553 701.9 752.925 Q697.259 748.285 696.449 744.233 Q695.639 740.158 698.72 737.076 Z" fill="#000000" fill-rule="nonzero" fill-opacity="1" /><path clip-path="url(#clip250)" d="M724.954 741.926 L727.544 739.335 L730.662 742.453 L728.072 745.044 L724.954 741.926 Z" fill="#000000" fill-rule="nonzero" fill-opacity="1" /><path clip-path="url(#clip250)" d="M732.663 723.045 Q730.896 724.813 730.822 726.777 Q730.761 728.729 732.418 730.386 Q734.075 732.043 736.027 731.982 Q737.991 731.908 739.759 730.14 Q741.527 728.373 741.6 726.409 Q741.662 724.432 740.017 722.787 Q738.36 721.13 736.395 721.203 Q734.444 721.265 732.663 723.045 M729.128 724.469 Q727.139 725.672 725.151 725.476 Q723.174 725.267 721.603 723.696 Q719.405 721.498 719.688 718.662 Q719.982 715.814 722.708 713.089 Q725.445 710.351 728.281 710.069 Q731.117 709.787 733.314 711.984 Q734.885 713.555 735.082 715.544 Q735.291 717.521 734.1 719.497 Q736.309 718.122 738.519 718.343 Q740.741 718.552 742.497 720.307 Q745.161 722.971 744.952 726.028 Q744.755 729.072 741.723 732.105 Q738.691 735.137 735.634 735.346 Q732.59 735.542 729.926 732.878 Q728.17 731.123 727.962 728.901 Q727.753 726.679 729.128 724.469 M724.303 721.461 Q725.727 722.885 727.409 722.799 Q729.103 722.701 730.712 721.093 Q732.307 719.497 732.406 717.803 Q732.516 716.097 731.092 714.673 Q729.668 713.249 727.962 713.359 Q726.268 713.457 724.672 715.053 Q723.064 716.661 722.965 718.355 Q722.879 720.037 724.303 721.461 Z" fill="#000000" fill-rule="nonzero" fill-opacity="1" /><path clip-path="url(#clip250)" d="M751.753 720.602 L749.494 718.343 Q750.869 717.852 752.06 717.128 Q753.25 716.404 754.171 715.483 Q756.626 713.028 756.27 710.094 Q755.914 707.135 752.735 703.587 Q753.079 705.355 752.551 707.012 Q752.023 708.67 750.697 709.995 Q747.947 712.745 744.682 712.696 Q741.416 712.622 738.531 709.738 Q735.708 706.914 735.671 703.538 Q735.634 700.162 738.409 697.388 Q741.588 694.208 745.701 694.982 Q749.813 695.731 754.454 700.371 Q758.787 704.704 759.315 709.357 Q759.843 713.985 756.369 717.459 Q755.436 718.392 754.294 719.166 Q753.152 719.939 751.753 720.602 M748.917 707.896 Q750.587 706.227 750.415 704.115 Q750.255 701.991 748.266 700.003 Q746.29 698.026 744.166 697.867 Q742.042 697.682 740.373 699.352 Q738.703 701.022 738.875 703.158 Q739.047 705.269 741.024 707.246 Q743.012 709.234 745.124 709.406 Q747.247 709.566 748.917 707.896 Z" fill="#000000" fill-rule="nonzero" fill-opacity="1" /><path clip-path="url(#clip250)" d="M928.563 739.139 Q926.648 741.054 927.568 743.914 Q928.489 746.75 932.27 750.531 Q936.039 754.3 938.887 755.233 Q941.735 756.141 943.65 754.226 Q945.577 752.299 944.657 749.463 Q943.736 746.603 939.967 742.834 Q936.186 739.053 933.338 738.144 Q930.49 737.211 928.563 739.139 M926.599 737.175 Q929.68 734.093 933.743 734.916 Q937.807 735.714 942.447 740.354 Q947.075 744.982 947.885 749.058 Q948.695 753.109 945.614 756.19 Q942.533 759.272 938.469 758.474 Q934.406 757.651 929.778 753.023 Q925.138 748.383 924.327 744.332 Q923.517 740.256 926.599 737.175 Z" fill="#000000" fill-rule="nonzero" fill-opacity="1" /><path clip-path="url(#clip250)" d="M952.833 742.024 L955.423 739.433 L958.541 742.552 L955.951 745.142 L952.833 742.024 Z" fill="#000000" fill-rule="nonzero" fill-opacity="1" /><path clip-path="url(#clip250)" d="M963.635 736.696 L961.377 734.437 Q962.752 733.946 963.942 733.222 Q965.133 732.497 966.054 731.577 Q968.509 729.122 968.153 726.188 Q967.797 723.229 964.618 719.681 Q964.961 721.449 964.433 723.106 Q963.906 724.764 962.58 726.089 Q959.83 728.839 956.564 728.79 Q953.299 728.716 950.414 725.832 Q947.591 723.008 947.554 719.632 Q947.517 716.256 950.291 713.482 Q953.471 710.302 957.583 711.076 Q961.696 711.825 966.336 716.465 Q970.67 720.798 971.198 725.451 Q971.725 730.079 968.251 733.553 Q967.318 734.486 966.177 735.26 Q965.035 736.033 963.635 736.696 M960.8 723.99 Q962.469 722.321 962.297 720.209 Q962.138 718.085 960.149 716.097 Q958.173 714.12 956.049 713.961 Q953.925 713.776 952.256 715.446 Q950.586 717.116 950.758 719.252 Q950.93 721.363 952.906 723.339 Q954.895 725.328 957.006 725.5 Q959.13 725.66 960.8 723.99 Z" fill="#000000" fill-rule="nonzero" fill-opacity="1" /><path clip-path="url(#clip250)" d="M968.546 699.156 Q966.631 701.071 967.552 703.931 Q968.472 706.767 972.253 710.548 Q976.022 714.317 978.87 715.25 Q981.718 716.158 983.633 714.243 Q985.561 712.316 984.64 709.48 Q983.719 706.619 979.95 702.851 Q976.169 699.07 973.321 698.161 Q970.473 697.228 968.546 699.156 M966.582 697.191 Q969.663 694.11 973.726 694.933 Q977.79 695.731 982.43 700.371 Q987.058 704.999 987.868 709.075 Q988.679 713.126 985.597 716.207 Q982.516 719.288 978.453 718.49 Q974.389 717.668 969.761 713.04 Q965.121 708.399 964.311 704.348 Q963.5 700.273 966.582 697.191 Z" fill="#000000" fill-rule="nonzero" fill-opacity="1" /><polyline clip-path="url(#clip250)" style="stroke:#000000; stroke-linecap:round; stroke-linejoin:round; stroke-width:4; stroke-opacity:1; fill:none" points="128.138,667.406 128.138,97.5521 "/>
<polyline clip-path="url(#clip250)" style="stroke:#000000; stroke-linecap:round; stroke-linejoin:round; stroke-width:4; stroke-opacity:1; fill:none" points="128.138,667.406 147.035,667.406 "/>
<polyline clip-path="url(#clip250)" style="stroke:#000000; stroke-linecap:round; stroke-linejoin:round; stroke-width:4; stroke-opacity:1; fill:none" points="128.138,544.857 147.035,544.857 "/>
<polyline clip-path="url(#clip250)" style="stroke:#000000; stroke-linecap:round; stroke-linejoin:round; stroke-width:4; stroke-opacity:1; fill:none" points="128.138,422.308 147.035,422.308 "/>
<polyline clip-path="url(#clip250)" style="stroke:#000000; stroke-linecap:round; stroke-linejoin:round; stroke-width:4; stroke-opacity:1; fill:none" points="128.138,299.758 147.035,299.758 "/>
<polyline clip-path="url(#clip250)" style="stroke:#000000; stroke-linecap:round; stroke-linejoin:round; stroke-width:4; stroke-opacity:1; fill:none" points="128.138,177.209 147.035,177.209 "/>
<path clip-path="url(#clip250)" d="M83.1795 656.755 Q80.4711 656.755 79.0996 659.429 Q77.7455 662.085 77.7455 667.432 Q77.7455 672.762 79.0996 675.436 Q80.4711 678.092 83.1795 678.092 Q85.9051 678.092 87.2593 675.436 Q88.6308 672.762 88.6308 667.432 Q88.6308 662.085 87.2593 659.429 Q85.9051 656.755 83.1795 656.755 M83.1795 653.978 Q87.5371 653.978 89.8287 657.432 Q92.1377 660.87 92.1377 667.432 Q92.1377 673.978 89.8287 677.432 Q87.5371 680.87 83.1795 680.87 Q78.8218 680.87 76.5128 677.432 Q74.2212 673.978 74.2212 667.432 Q74.2212 660.87 76.5128 657.432 Q78.8218 653.978 83.1795 653.978 Z" fill="#000000" fill-rule="nonzero" fill-opacity="1" /><path clip-path="url(#clip250)" d="M56.0789 554.866 L68.3184 554.866 L68.3184 557.817 L51.8602 557.817 L51.8602 554.866 Q53.8567 552.8 57.2942 549.328 Q60.749 545.838 61.6344 544.831 Q63.3184 542.939 63.9782 541.637 Q64.6552 540.317 64.6552 539.05 Q64.6552 536.984 63.1969 535.682 Q61.756 534.38 59.4296 534.38 Q57.7803 534.38 55.94 534.953 Q54.1171 535.526 52.0338 536.689 L52.0338 533.147 Q54.1518 532.296 55.9921 531.862 Q57.8324 531.428 59.3601 531.428 Q63.3879 531.428 65.7837 533.442 Q68.1795 535.456 68.1795 538.824 Q68.1795 540.421 67.5719 541.862 Q66.9816 543.286 65.4018 545.23 Q64.9677 545.734 62.6414 548.147 Q60.315 550.543 56.0789 554.866 Z" fill="#000000" fill-rule="nonzero" fill-opacity="1" /><path clip-path="url(#clip250)" d="M83.1795 534.206 Q80.4711 534.206 79.0996 536.88 Q77.7455 539.536 77.7455 544.883 Q77.7455 550.213 79.0996 552.887 Q80.4711 555.543 83.1795 555.543 Q85.9051 555.543 87.2593 552.887 Q88.6308 550.213 88.6308 544.883 Q88.6308 539.536 87.2593 536.88 Q85.9051 534.206 83.1795 534.206 M83.1795 531.428 Q87.5371 531.428 89.8287 534.883 Q92.1377 538.321 92.1377 544.883 Q92.1377 551.428 89.8287 554.883 Q87.5371 558.321 83.1795 558.321 Q78.8218 558.321 76.5128 554.883 Q74.2212 551.428 74.2212 544.883 Q74.2212 538.321 76.5128 534.883 Q78.8218 531.428 83.1795 531.428 Z" fill="#000000" fill-rule="nonzero" fill-opacity="1" /><path clip-path="url(#clip250)" d="M62.6935 412.403 L53.8393 426.24 L62.6935 426.24 L62.6935 412.403 M61.7733 409.348 L66.183 409.348 L66.183 426.24 L69.8809 426.24 L69.8809 429.157 L66.183 429.157 L66.183 435.268 L62.6935 435.268 L62.6935 429.157 L50.9921 429.157 L50.9921 425.771 L61.7733 409.348 Z" fill="#000000" fill-rule="nonzero" fill-opacity="1" /><path clip-path="url(#clip250)" d="M83.1795 411.657 Q80.4711 411.657 79.0996 414.33 Q77.7455 416.987 77.7455 422.334 Q77.7455 427.664 79.0996 430.337 Q80.4711 432.993 83.1795 432.993 Q85.9051 432.993 87.2593 430.337 Q88.6308 427.664 88.6308 422.334 Q88.6308 416.987 87.2593 414.33 Q85.9051 411.657 83.1795 411.657 M83.1795 408.879 Q87.5371 408.879 89.8287 412.334 Q92.1377 415.771 92.1377 422.334 Q92.1377 428.879 89.8287 432.334 Q87.5371 435.771 83.1795 435.771 Q78.8218 435.771 76.5128 432.334 Q74.2212 428.879 74.2212 422.334 Q74.2212 415.771 76.5128 412.334 Q78.8218 408.879 83.1795 408.879 Z" fill="#000000" fill-rule="nonzero" fill-opacity="1" /><path clip-path="url(#clip250)" d="M60.9921 298.361 Q58.631 298.361 57.2421 299.975 Q55.8706 301.59 55.8706 304.403 Q55.8706 307.198 57.2421 308.83 Q58.631 310.444 60.9921 310.444 Q63.3532 310.444 64.7247 308.83 Q66.1136 307.198 66.1136 304.403 Q66.1136 301.59 64.7247 299.975 Q63.3532 298.361 60.9921 298.361 M67.9538 287.371 L67.9538 290.566 Q66.6344 289.941 65.2802 289.611 Q63.9434 289.281 62.624 289.281 Q59.1518 289.281 57.3115 291.625 Q55.4886 293.969 55.2282 298.708 Q56.2525 297.198 57.7976 296.399 Q59.3428 295.583 61.2004 295.583 Q65.1066 295.583 67.3636 297.962 Q69.6379 300.323 69.6379 304.403 Q69.6379 308.396 67.2768 310.809 Q64.9157 313.222 60.9921 313.222 Q56.4956 313.222 54.1171 309.784 Q51.7386 306.33 51.7386 299.785 Q51.7386 293.639 54.6553 289.993 Q57.572 286.33 62.4851 286.33 Q63.8046 286.33 65.1414 286.59 Q66.4955 286.851 67.9538 287.371 Z" fill="#000000" fill-rule="nonzero" fill-opacity="1" /><path clip-path="url(#clip250)" d="M83.1795 289.107 Q80.4711 289.107 79.0996 291.781 Q77.7455 294.437 77.7455 299.785 Q77.7455 305.114 79.0996 307.788 Q80.4711 310.444 83.1795 310.444 Q85.9051 310.444 87.2593 307.788 Q88.6308 305.114 88.6308 299.785 Q88.6308 294.437 87.2593 291.781 Q85.9051 289.107 83.1795 289.107 M83.1795 286.33 Q87.5371 286.33 89.8287 289.785 Q92.1377 293.222 92.1377 299.785 Q92.1377 306.33 89.8287 309.784 Q87.5371 313.222 83.1795 313.222 Q78.8218 313.222 76.5128 309.784 Q74.2212 306.33 74.2212 299.785 Q74.2212 293.222 76.5128 289.785 Q78.8218 286.33 83.1795 286.33 Z" fill="#000000" fill-rule="nonzero" fill-opacity="1" /><path clip-path="url(#clip250)" d="M60.558 177.86 Q58.0581 177.86 56.6171 179.197 Q55.1935 180.534 55.1935 182.878 Q55.1935 185.221 56.6171 186.558 Q58.0581 187.895 60.558 187.895 Q63.058 187.895 64.499 186.558 Q65.94 185.204 65.94 182.878 Q65.94 180.534 64.499 179.197 Q63.0754 177.86 60.558 177.86 M57.0511 176.367 Q54.7942 175.812 53.5268 174.266 Q52.2768 172.721 52.2768 170.499 Q52.2768 167.392 54.4817 165.586 Q56.7039 163.78 60.558 163.78 Q64.4296 163.78 66.6344 165.586 Q68.8393 167.392 68.8393 170.499 Q68.8393 172.721 67.5719 174.266 Q66.3219 175.812 64.0823 176.367 Q66.617 176.957 68.0233 178.676 Q69.4469 180.395 69.4469 182.878 Q69.4469 186.645 67.1379 188.659 Q64.8462 190.673 60.558 190.673 Q56.2699 190.673 53.9609 188.659 Q51.6692 186.645 51.6692 182.878 Q51.6692 180.395 53.0928 178.676 Q54.5164 176.957 57.0511 176.367 M55.7664 170.829 Q55.7664 172.843 57.0164 173.971 Q58.2838 175.1 60.558 175.1 Q62.815 175.1 64.0823 173.971 Q65.367 172.843 65.367 170.829 Q65.367 168.815 64.0823 167.687 Q62.815 166.558 60.558 166.558 Q58.2838 166.558 57.0164 167.687 Q55.7664 168.815 55.7664 170.829 Z" fill="#000000" fill-rule="nonzero" fill-opacity="1" /><path clip-path="url(#clip250)" d="M83.1795 166.558 Q80.4711 166.558 79.0996 169.232 Q77.7455 171.888 77.7455 177.235 Q77.7455 182.565 79.0996 185.239 Q80.4711 187.895 83.1795 187.895 Q85.9051 187.895 87.2593 185.239 Q88.6308 182.565 88.6308 177.235 Q88.6308 171.888 87.2593 169.232 Q85.9051 166.558 83.1795 166.558 M83.1795 163.78 Q87.5371 163.78 89.8287 167.235 Q92.1377 170.673 92.1377 177.235 Q92.1377 183.78 89.8287 187.235 Q87.5371 190.673 83.1795 190.673 Q78.8218 190.673 76.5128 187.235 Q74.2212 183.78 74.2212 177.235 Q74.2212 170.673 76.5128 167.235 Q78.8218 163.78 83.1795 163.78 Z" fill="#000000" fill-rule="nonzero" fill-opacity="1" /><path clip-path="url(#clip250)" d="M130.221 20.1758 Q131.633 17.8147 135.128 15.7314 Q136.494 14.9212 140.707 14.9212 Q145.429 14.9212 148.369 18.6712 Q151.332 22.4212 151.332 28.5323 Q151.332 34.6433 148.369 38.3933 Q145.429 42.1433 140.707 42.1433 Q137.86 42.1433 135.8 41.0322 Q133.763 39.8979 132.42 37.5831 L132.42 51.3331 L128.138 51.3331 L128.138 28.7637 Q128.138 23.4165 130.221 20.1758 M146.911 28.5323 Q146.911 23.8332 144.966 21.1712 Q143.045 18.486 139.665 18.486 Q136.286 18.486 134.341 21.1712 Q132.42 23.8332 132.42 28.5323 Q132.42 33.2313 134.341 35.9165 Q136.286 38.5785 139.665 38.5785 Q143.045 38.5785 144.966 35.9165 Q146.911 33.2313 146.911 28.5323 Z" fill="#000000" fill-rule="nonzero" fill-opacity="1" /><path clip-path="url(#clip252)" d="M184.494 593.877 L184.494 667.406 L298.482 667.406 L298.482 593.877 L184.494 593.877 L184.494 593.877  Z" fill="#009af9" fill-rule="evenodd" fill-opacity="1"/>
<polyline clip-path="url(#clip252)" style="stroke:#000000; stroke-linecap:round; stroke-linejoin:round; stroke-width:4; stroke-opacity:1; fill:none" points="184.494,593.877 184.494,667.406 298.482,667.406 298.482,593.877 184.494,593.877 "/>
<path clip-path="url(#clip252)" d="M298.482 569.367 L298.482 667.406 L412.47 667.406 L412.47 569.367 L298.482 569.367 L298.482 569.367  Z" fill="#009af9" fill-rule="evenodd" fill-opacity="1"/>
<polyline clip-path="url(#clip252)" style="stroke:#000000; stroke-linecap:round; stroke-linejoin:round; stroke-width:4; stroke-opacity:1; fill:none" points="298.482,569.367 298.482,667.406 412.47,667.406 412.47,569.367 298.482,569.367 "/>
<path clip-path="url(#clip252)" d="M412.47 630.642 L412.47 667.406 L526.459 667.406 L526.459 630.642 L412.47 630.642 L412.47 630.642  Z" fill="#009af9" fill-rule="evenodd" fill-opacity="1"/>
<polyline clip-path="url(#clip252)" style="stroke:#000000; stroke-linecap:round; stroke-linejoin:round; stroke-width:4; stroke-opacity:1; fill:none" points="412.47,630.642 412.47,667.406 526.459,667.406 526.459,630.642 412.47,630.642 "/>
<path clip-path="url(#clip252)" d="M526.459 361.033 L526.459 667.406 L640.447 667.406 L640.447 361.033 L526.459 361.033 L526.459 361.033  Z" fill="#009af9" fill-rule="evenodd" fill-opacity="1"/>
<polyline clip-path="url(#clip252)" style="stroke:#000000; stroke-linecap:round; stroke-linejoin:round; stroke-width:4; stroke-opacity:1; fill:none" points="526.459,361.033 526.459,667.406 640.447,667.406 640.447,361.033 526.459,361.033 "/>
<path clip-path="url(#clip252)" d="M640.447 97.5521 L640.447 667.406 L754.435 667.406 L754.435 97.5521 L640.447 97.5521 L640.447 97.5521  Z" fill="#009af9" fill-rule="evenodd" fill-opacity="1"/>
<polyline clip-path="url(#clip252)" style="stroke:#000000; stroke-linecap:round; stroke-linejoin:round; stroke-width:4; stroke-opacity:1; fill:none" points="640.447,97.5521 640.447,667.406 754.435,667.406 754.435,97.5521 640.447,97.5521 "/>
<path clip-path="url(#clip252)" d="M754.435 477.455 L754.435 667.406 L868.423 667.406 L868.423 477.455 L754.435 477.455 L754.435 477.455  Z" fill="#009af9" fill-rule="evenodd" fill-opacity="1"/>
<polyline clip-path="url(#clip252)" style="stroke:#000000; stroke-linecap:round; stroke-linejoin:round; stroke-width:4; stroke-opacity:1; fill:none" points="754.435,477.455 754.435,667.406 868.423,667.406 868.423,477.455 754.435,477.455 "/>
<path clip-path="url(#clip252)" d="M868.423 667.406 L868.423 667.406 L982.412 667.406 L982.412 667.406 L868.423 667.406 L868.423 667.406  Z" fill="#009af9" fill-rule="evenodd" fill-opacity="1"/>
<polyline clip-path="url(#clip252)" style="stroke:#000000; stroke-linecap:round; stroke-linejoin:round; stroke-width:4; stroke-opacity:1; fill:none" points="868.423,667.406 868.423,667.406 982.412,667.406 868.423,667.406 "/>
<path clip-path="url(#clip252)" d="M982.412 587.749 L982.412 667.406 L1096.4 667.406 L1096.4 587.749 L982.412 587.749 L982.412 587.749  Z" fill="#009af9" fill-rule="evenodd" fill-opacity="1"/>
<polyline clip-path="url(#clip252)" style="stroke:#000000; stroke-linecap:round; stroke-linejoin:round; stroke-width:4; stroke-opacity:1; fill:none" points="982.412,587.749 982.412,667.406 1096.4,667.406 1096.4,587.749 982.412,587.749 "/>
<circle clip-path="url(#clip252)" style="fill:#009af9; stroke:none; fill-opacity:0" cx="241.488" cy="593.877" r="2"/>
<circle clip-path="url(#clip252)" style="fill:#009af9; stroke:none; fill-opacity:0" cx="355.476" cy="569.367" r="2"/>
<circle clip-path="url(#clip252)" style="fill:#009af9; stroke:none; fill-opacity:0" cx="469.464" cy="630.642" r="2"/>
<circle clip-path="url(#clip252)" style="fill:#009af9; stroke:none; fill-opacity:0" cx="583.453" cy="361.033" r="2"/>
<circle clip-path="url(#clip252)" style="fill:#009af9; stroke:none; fill-opacity:0" cx="697.441" cy="97.5521" r="2"/>
<circle clip-path="url(#clip252)" style="fill:#009af9; stroke:none; fill-opacity:0" cx="811.429" cy="477.455" r="2"/>
<circle clip-path="url(#clip252)" style="fill:#009af9; stroke:none; fill-opacity:0" cx="925.418" cy="667.406" r="2"/>
<circle clip-path="url(#clip252)" style="fill:#009af9; stroke:none; fill-opacity:0" cx="1039.41" cy="587.749" r="2"/>
<polyline clip-path="url(#clip252)" style="stroke:#ff0000; stroke-linecap:round; stroke-linejoin:round; stroke-width:8; stroke-opacity:1; fill:none" stroke-dasharray="32, 20" points="684.515,1237.26 684.515,-472.302 "/>
<polyline clip-path="url(#clip252)" style="stroke:#ff0000; stroke-linecap:round; stroke-linejoin:round; stroke-width:6; stroke-opacity:1; fill:none" stroke-dasharray="24, 12, 3, 12" points="268.92,1237.26 268.92,-472.302 "/>
<polyline clip-path="url(#clip252)" style="stroke:#ff0000; stroke-linecap:round; stroke-linejoin:round; stroke-width:6; stroke-opacity:1; fill:none" stroke-dasharray="24, 12, 3, 12" points="1062.17,1237.26 1062.17,-472.302 "/>
<path clip-path="url(#clip250)" d="M1328.14 667.406 L2352.76 667.406 L2352.76 97.5521 L1328.14 97.5521  Z" fill="#ffffff" fill-rule="evenodd" fill-opacity="1"/>
<defs>
  <clipPath id="clip253">
    <rect x="1328" y="97" width="1026" height="571"/>
  </clipPath>
</defs>
<polyline clip-path="url(#clip253)" style="stroke:#000000; stroke-linecap:round; stroke-linejoin:round; stroke-width:2; stroke-opacity:0.1; fill:none" points="1384.49,667.406 1384.49,97.5521 "/>
<polyline clip-path="url(#clip253)" style="stroke:#000000; stroke-linecap:round; stroke-linejoin:round; stroke-width:2; stroke-opacity:0.1; fill:none" points="1536.48,667.406 1536.48,97.5521 "/>
<polyline clip-path="url(#clip253)" style="stroke:#000000; stroke-linecap:round; stroke-linejoin:round; stroke-width:2; stroke-opacity:0.1; fill:none" points="1688.46,667.406 1688.46,97.5521 "/>
<polyline clip-path="url(#clip253)" style="stroke:#000000; stroke-linecap:round; stroke-linejoin:round; stroke-width:2; stroke-opacity:0.1; fill:none" points="1840.45,667.406 1840.45,97.5521 "/>
<polyline clip-path="url(#clip253)" style="stroke:#000000; stroke-linecap:round; stroke-linejoin:round; stroke-width:2; stroke-opacity:0.1; fill:none" points="1992.43,667.406 1992.43,97.5521 "/>
<polyline clip-path="url(#clip253)" style="stroke:#000000; stroke-linecap:round; stroke-linejoin:round; stroke-width:2; stroke-opacity:0.1; fill:none" points="2144.42,667.406 2144.42,97.5521 "/>
<polyline clip-path="url(#clip253)" style="stroke:#000000; stroke-linecap:round; stroke-linejoin:round; stroke-width:2; stroke-opacity:0.1; fill:none" points="2296.4,667.406 2296.4,97.5521 "/>
<polyline clip-path="url(#clip253)" style="stroke:#000000; stroke-linecap:round; stroke-linejoin:round; stroke-width:2; stroke-opacity:0.1; fill:none" points="1328.14,667.406 2352.76,667.406 "/>
<polyline clip-path="url(#clip253)" style="stroke:#000000; stroke-linecap:round; stroke-linejoin:round; stroke-width:2; stroke-opacity:0.1; fill:none" points="1328.14,565.647 2352.76,565.647 "/>
<polyline clip-path="url(#clip253)" style="stroke:#000000; stroke-linecap:round; stroke-linejoin:round; stroke-width:2; stroke-opacity:0.1; fill:none" points="1328.14,463.887 2352.76,463.887 "/>
<polyline clip-path="url(#clip253)" style="stroke:#000000; stroke-linecap:round; stroke-linejoin:round; stroke-width:2; stroke-opacity:0.1; fill:none" points="1328.14,362.127 2352.76,362.127 "/>
<polyline clip-path="url(#clip253)" style="stroke:#000000; stroke-linecap:round; stroke-linejoin:round; stroke-width:2; stroke-opacity:0.1; fill:none" points="1328.14,260.368 2352.76,260.368 "/>
<polyline clip-path="url(#clip253)" style="stroke:#000000; stroke-linecap:round; stroke-linejoin:round; stroke-width:2; stroke-opacity:0.1; fill:none" points="1328.14,158.608 2352.76,158.608 "/>
<polyline clip-path="url(#clip250)" style="stroke:#000000; stroke-linecap:round; stroke-linejoin:round; stroke-width:4; stroke-opacity:1; fill:none" points="1328.14,667.406 2352.76,667.406 "/>
<polyline clip-path="url(#clip250)" style="stroke:#000000; stroke-linecap:round; stroke-linejoin:round; stroke-width:4; stroke-opacity:1; fill:none" points="1384.49,667.406 1384.49,648.509 "/>
<polyline clip-path="url(#clip250)" style="stroke:#000000; stroke-linecap:round; stroke-linejoin:round; stroke-width:4; stroke-opacity:1; fill:none" points="1536.48,667.406 1536.48,648.509 "/>
<polyline clip-path="url(#clip250)" style="stroke:#000000; stroke-linecap:round; stroke-linejoin:round; stroke-width:4; stroke-opacity:1; fill:none" points="1688.46,667.406 1688.46,648.509 "/>
<polyline clip-path="url(#clip250)" style="stroke:#000000; stroke-linecap:round; stroke-linejoin:round; stroke-width:4; stroke-opacity:1; fill:none" points="1840.45,667.406 1840.45,648.509 "/>
<polyline clip-path="url(#clip250)" style="stroke:#000000; stroke-linecap:round; stroke-linejoin:round; stroke-width:4; stroke-opacity:1; fill:none" points="1992.43,667.406 1992.43,648.509 "/>
<polyline clip-path="url(#clip250)" style="stroke:#000000; stroke-linecap:round; stroke-linejoin:round; stroke-width:4; stroke-opacity:1; fill:none" points="2144.42,667.406 2144.42,648.509 "/>
<polyline clip-path="url(#clip250)" style="stroke:#000000; stroke-linecap:round; stroke-linejoin:round; stroke-width:4; stroke-opacity:1; fill:none" points="2296.4,667.406 2296.4,648.509 "/>
<path clip-path="url(#clip250)" d="M1330.64 739.139 Q1328.73 741.054 1329.65 743.914 Q1330.57 746.75 1334.35 750.531 Q1338.12 754.3 1340.97 755.233 Q1343.82 756.141 1345.73 754.226 Q1347.66 752.299 1346.74 749.463 Q1345.82 746.603 1342.05 742.834 Q1338.27 739.053 1335.42 738.144 Q1332.57 737.211 1330.64 739.139 M1328.68 737.175 Q1331.76 734.093 1335.82 734.916 Q1339.89 735.714 1344.53 740.354 Q1349.16 744.982 1349.97 749.058 Q1350.78 753.109 1347.7 756.19 Q1344.61 759.272 1340.55 758.474 Q1336.49 757.651 1331.86 753.023 Q1327.22 748.383 1326.41 744.332 Q1325.6 740.256 1328.68 737.175 Z" fill="#000000" fill-rule="nonzero" fill-opacity="1" /><path clip-path="url(#clip250)" d="M1354.91 742.024 L1357.5 739.433 L1360.62 742.552 L1358.03 745.142 L1354.91 742.024 Z" fill="#000000" fill-rule="nonzero" fill-opacity="1" /><path clip-path="url(#clip250)" d="M1363.65 719.755 Q1365.82 718.355 1368.01 718.564 Q1370.22 718.761 1371.99 720.528 Q1374.7 723.241 1374.32 726.593 Q1373.94 729.944 1370.5 733.381 Q1369.35 734.535 1367.89 735.53 Q1366.45 736.524 1364.7 737.371 L1362.3 734.977 Q1363.94 734.548 1365.47 733.627 Q1367.01 732.706 1368.34 731.368 Q1370.68 729.036 1370.97 726.9 Q1371.28 724.751 1369.52 722.996 Q1367.9 721.375 1365.85 721.609 Q1363.8 721.817 1361.78 723.843 L1359.64 725.979 L1357.6 723.941 L1359.84 721.707 Q1361.67 719.878 1361.91 718.184 Q1362.14 716.477 1360.77 715.102 Q1359.36 713.69 1357.6 713.948 Q1355.85 714.182 1353.98 716.047 Q1352.96 717.066 1352.02 718.454 Q1351.07 719.841 1350.14 721.707 L1347.93 719.497 Q1348.95 717.692 1349.98 716.268 Q1351.02 714.832 1352.12 713.74 Q1354.94 710.916 1357.87 710.56 Q1360.79 710.192 1362.98 712.377 Q1364.5 713.899 1364.69 715.827 Q1364.86 717.742 1363.65 719.755 Z" fill="#000000" fill-rule="nonzero" fill-opacity="1" /><path clip-path="url(#clip250)" d="M1370.63 699.156 Q1368.71 701.071 1369.63 703.931 Q1370.55 706.767 1374.34 710.548 Q1378.1 714.317 1380.95 715.25 Q1383.8 716.158 1385.72 714.243 Q1387.64 712.316 1386.72 709.48 Q1385.8 706.619 1382.03 702.851 Q1378.25 699.07 1375.4 698.161 Q1372.56 697.228 1370.63 699.156 M1368.66 697.191 Q1371.74 694.11 1375.81 694.933 Q1379.87 695.731 1384.51 700.371 Q1389.14 704.999 1389.95 709.075 Q1390.76 713.126 1387.68 716.207 Q1384.6 719.288 1380.53 718.49 Q1376.47 717.668 1371.84 713.04 Q1367.2 708.399 1366.39 704.348 Q1365.58 700.273 1368.66 697.191 Z" fill="#000000" fill-rule="nonzero" fill-opacity="1" /><path clip-path="url(#clip250)" d="M1483.28 738.488 Q1481.36 740.403 1482.29 743.264 Q1483.21 746.099 1486.99 749.88 Q1490.76 753.649 1493.6 754.582 Q1496.45 755.491 1498.37 753.576 Q1500.29 751.648 1499.37 748.812 Q1498.45 745.952 1494.68 742.183 Q1490.9 738.402 1488.05 737.494 Q1485.21 736.561 1483.28 738.488 M1481.32 736.524 Q1484.4 733.443 1488.46 734.265 Q1492.52 735.063 1497.16 739.704 Q1501.79 744.332 1502.6 748.407 Q1503.41 752.458 1500.33 755.54 Q1497.25 758.621 1493.19 757.823 Q1489.12 757.001 1484.49 752.372 Q1479.85 747.732 1479.04 743.681 Q1478.23 739.605 1481.32 736.524 Z" fill="#000000" fill-rule="nonzero" fill-opacity="1" /><path clip-path="url(#clip250)" d="M1507.55 741.373 L1510.14 738.783 L1513.26 741.901 L1510.67 744.491 L1507.55 741.373 Z" fill="#000000" fill-rule="nonzero" fill-opacity="1" /><path clip-path="url(#clip250)" d="M1516.29 719.104 Q1518.45 717.705 1520.65 717.913 Q1522.86 718.11 1524.63 719.878 Q1527.34 722.591 1526.96 725.942 Q1526.58 729.293 1523.14 732.731 Q1521.99 733.885 1520.53 734.879 Q1519.09 735.873 1517.33 736.72 L1514.94 734.327 Q1516.57 733.897 1518.11 732.976 Q1519.64 732.056 1520.98 730.717 Q1523.31 728.385 1523.61 726.249 Q1523.91 724.101 1522.16 722.345 Q1520.54 720.725 1518.49 720.958 Q1516.44 721.167 1514.41 723.192 L1512.28 725.328 L1510.24 723.29 L1512.47 721.056 Q1514.3 719.227 1514.55 717.533 Q1514.78 715.827 1513.41 714.452 Q1511.99 713.04 1510.24 713.298 Q1508.48 713.531 1506.62 715.397 Q1505.6 716.416 1504.65 717.803 Q1503.71 719.19 1502.77 721.056 L1500.56 718.846 Q1501.58 717.042 1502.61 715.618 Q1503.66 714.182 1504.75 713.089 Q1507.57 710.265 1510.51 709.909 Q1513.43 709.541 1515.61 711.726 Q1517.14 713.249 1517.32 715.176 Q1517.49 717.091 1516.29 719.104 Z" fill="#000000" fill-rule="nonzero" fill-opacity="1" /><path clip-path="url(#clip250)" d="M1533 717.987 L1537.05 713.936 L1523.07 699.954 L1519.54 705.245 L1517.28 702.986 L1520.78 697.719 L1523.26 695.24 L1539.5 711.481 L1543.56 707.43 L1545.64 709.517 L1535.08 720.074 L1533 717.987 Z" fill="#000000" fill-rule="nonzero" fill-opacity="1" /><path clip-path="url(#clip250)" d="M1635.46 738.292 Q1633.55 740.207 1634.47 743.067 Q1635.39 745.903 1639.17 749.684 Q1642.94 753.453 1645.78 754.386 Q1648.63 755.294 1650.55 753.379 Q1652.48 751.452 1651.55 748.616 Q1650.63 745.756 1646.86 741.987 Q1643.08 738.206 1640.24 737.297 Q1637.39 736.364 1635.46 738.292 M1633.5 736.328 Q1636.58 733.246 1640.64 734.069 Q1644.7 734.867 1649.34 739.507 Q1653.97 744.135 1654.78 748.211 Q1655.59 752.262 1652.51 755.343 Q1649.43 758.425 1645.37 757.627 Q1641.3 756.804 1636.68 752.176 Q1632.04 747.536 1631.23 743.485 Q1630.41 739.409 1633.5 736.328 Z" fill="#000000" fill-rule="nonzero" fill-opacity="1" /><path clip-path="url(#clip250)" d="M1659.73 741.177 L1662.32 738.586 L1665.44 741.705 L1662.85 744.295 L1659.73 741.177 Z" fill="#000000" fill-rule="nonzero" fill-opacity="1" /><path clip-path="url(#clip250)" d="M1668.47 718.908 Q1670.63 717.508 1672.83 717.717 Q1675.04 717.913 1676.81 719.681 Q1679.52 722.394 1679.14 725.746 Q1678.76 729.097 1675.32 732.534 Q1674.17 733.688 1672.71 734.683 Q1671.27 735.677 1669.51 736.524 L1667.12 734.13 Q1668.75 733.701 1670.29 732.78 Q1671.82 731.859 1673.16 730.521 Q1675.49 728.189 1675.79 726.053 Q1676.09 723.904 1674.34 722.149 Q1672.72 720.528 1670.67 720.762 Q1668.62 720.97 1666.59 722.996 L1664.46 725.132 L1662.42 723.094 L1664.65 720.86 Q1666.48 719.031 1666.73 717.336 Q1666.96 715.63 1665.59 714.255 Q1664.17 712.843 1662.42 713.101 Q1660.66 713.334 1658.8 715.2 Q1657.78 716.219 1656.83 717.607 Q1655.89 718.994 1654.95 720.86 L1652.75 718.65 Q1653.76 716.845 1654.8 715.421 Q1655.84 713.985 1656.93 712.893 Q1659.75 710.069 1662.69 709.713 Q1665.61 709.345 1667.8 711.53 Q1669.32 713.052 1669.5 714.979 Q1669.67 716.895 1668.47 718.908 Z" fill="#000000" fill-rule="nonzero" fill-opacity="1" /><path clip-path="url(#clip250)" d="M1686.88 716.084 L1695.54 707.43 L1697.63 709.517 L1685.99 721.154 L1683.9 719.067 Q1683.85 716.195 1683.83 711.309 Q1683.8 706.398 1683.72 705.06 Q1683.57 702.532 1683.12 701.144 Q1682.66 699.733 1681.77 698.836 Q1680.3 697.376 1678.35 697.486 Q1676.41 697.584 1674.77 699.229 Q1673.6 700.395 1672.71 702.102 Q1671.82 703.796 1671.17 706.092 L1668.67 703.587 Q1669.56 701.488 1670.56 699.88 Q1671.55 698.272 1672.63 697.191 Q1675.48 694.343 1678.6 694.073 Q1681.72 693.803 1684.1 696.185 Q1685.23 697.314 1685.82 698.763 Q1686.41 700.187 1686.66 702.679 Q1686.71 703.342 1686.77 706.693 Q1686.82 710.032 1686.88 716.084 Z" fill="#000000" fill-rule="nonzero" fill-opacity="1" /><path clip-path="url(#clip250)" d="M1786.94 738.795 Q1785.03 740.71 1785.95 743.571 Q1786.87 746.406 1790.65 750.187 Q1794.42 753.956 1797.27 754.889 Q1800.11 755.797 1802.03 753.882 Q1803.96 751.955 1803.04 749.119 Q1802.11 746.259 1798.35 742.49 Q1794.56 738.709 1791.72 737.801 Q1788.87 736.868 1786.94 738.795 M1784.98 736.831 Q1788.06 733.75 1792.12 734.572 Q1796.19 735.37 1800.83 740.01 Q1805.45 744.639 1806.26 748.714 Q1807.07 752.765 1803.99 755.847 Q1800.91 758.928 1796.85 758.13 Q1792.78 757.307 1788.16 752.679 Q1783.52 748.039 1782.71 743.988 Q1781.9 739.912 1784.98 736.831 Z" fill="#000000" fill-rule="nonzero" fill-opacity="1" /><path clip-path="url(#clip250)" d="M1811.21 741.68 L1813.8 739.09 L1816.92 742.208 L1814.33 744.798 L1811.21 741.68 Z" fill="#000000" fill-rule="nonzero" fill-opacity="1" /><path clip-path="url(#clip250)" d="M1819.95 719.411 Q1822.11 718.012 1824.31 718.22 Q1826.52 718.417 1828.29 720.185 Q1831 722.898 1830.62 726.249 Q1830.24 729.6 1826.8 733.038 Q1825.65 734.192 1824.19 735.186 Q1822.75 736.18 1821 737.027 L1818.6 734.634 Q1820.23 734.204 1821.77 733.283 Q1823.3 732.362 1824.64 731.024 Q1826.97 728.692 1827.27 726.556 Q1827.58 724.408 1825.82 722.652 Q1824.2 721.032 1822.15 721.265 Q1820.1 721.474 1818.07 723.499 L1815.94 725.635 L1813.9 723.597 L1816.13 721.363 Q1817.96 719.534 1818.21 717.84 Q1818.44 716.133 1817.07 714.759 Q1815.66 713.347 1813.9 713.605 Q1812.14 713.838 1810.28 715.704 Q1809.26 716.723 1808.31 718.11 Q1807.37 719.497 1806.44 721.363 L1804.23 719.153 Q1805.25 717.349 1806.28 715.925 Q1807.32 714.488 1808.41 713.396 Q1811.24 710.572 1814.17 710.216 Q1817.09 709.848 1819.28 712.033 Q1820.8 713.555 1820.98 715.483 Q1821.15 717.398 1819.95 719.411 Z" fill="#000000" fill-rule="nonzero" fill-opacity="1" /><path clip-path="url(#clip250)" d="M1835.95 703.415 Q1838.11 702.016 1840.31 702.225 Q1842.52 702.421 1844.28 704.189 Q1847 706.902 1846.62 710.253 Q1846.24 713.605 1842.8 717.042 Q1841.64 718.196 1840.18 719.19 Q1838.75 720.185 1836.99 721.032 L1834.6 718.638 Q1836.23 718.208 1837.76 717.287 Q1839.3 716.367 1840.64 715.029 Q1842.97 712.696 1843.26 710.56 Q1843.57 708.412 1841.82 706.656 Q1840.2 705.036 1838.15 705.269 Q1836.09 705.478 1834.07 707.503 L1831.93 709.639 L1829.9 707.602 L1832.13 705.367 Q1833.96 703.538 1834.2 701.844 Q1834.44 700.138 1833.06 698.763 Q1831.65 697.351 1829.9 697.609 Q1828.14 697.842 1826.27 699.708 Q1825.26 700.727 1824.31 702.114 Q1823.36 703.501 1822.43 705.367 L1820.22 703.158 Q1821.24 701.353 1822.27 699.929 Q1823.32 698.493 1824.41 697.4 Q1827.23 694.577 1830.17 694.221 Q1833.09 693.852 1835.27 696.037 Q1836.79 697.56 1836.98 699.487 Q1837.15 701.402 1835.95 703.415 Z" fill="#000000" fill-rule="nonzero" fill-opacity="1" /><path clip-path="url(#clip250)" d="M1938.32 739.397 Q1936.41 741.312 1937.33 744.172 Q1938.25 747.008 1942.03 750.789 Q1945.8 754.558 1948.65 755.491 Q1951.5 756.399 1953.41 754.484 Q1955.34 752.557 1954.42 749.721 Q1953.5 746.86 1949.73 743.092 Q1945.95 739.311 1943.1 738.402 Q1940.25 737.469 1938.32 739.397 M1936.36 737.432 Q1939.44 734.351 1943.5 735.174 Q1947.57 735.972 1952.21 740.612 Q1956.84 745.24 1957.65 749.316 Q1958.46 753.367 1955.38 756.448 Q1952.29 759.529 1948.23 758.731 Q1944.17 757.909 1939.54 753.281 Q1934.9 748.641 1934.09 744.589 Q1933.28 740.514 1936.36 737.432 Z" fill="#000000" fill-rule="nonzero" fill-opacity="1" /><path clip-path="url(#clip250)" d="M1962.59 742.282 L1965.18 739.691 L1968.3 742.809 L1965.71 745.4 L1962.59 742.282 Z" fill="#000000" fill-rule="nonzero" fill-opacity="1" /><path clip-path="url(#clip250)" d="M1971.33 720.013 Q1973.5 718.613 1975.69 718.822 Q1977.9 719.018 1979.67 720.786 Q1982.38 723.499 1982 726.85 Q1981.62 730.202 1978.18 733.639 Q1977.03 734.793 1975.57 735.787 Q1974.13 736.782 1972.38 737.629 L1969.98 735.235 Q1971.62 734.805 1973.15 733.885 Q1974.69 732.964 1976.02 731.626 Q1978.36 729.293 1978.65 727.157 Q1978.96 725.009 1977.2 723.254 Q1975.58 721.633 1973.53 721.866 Q1971.48 722.075 1969.46 724.101 L1967.32 726.237 L1965.28 724.199 L1967.52 721.965 Q1969.35 720.135 1969.59 718.441 Q1969.82 716.735 1968.45 715.36 Q1967.04 713.948 1965.28 714.206 Q1963.53 714.439 1961.66 716.305 Q1960.64 717.324 1959.7 718.711 Q1958.75 720.099 1957.82 721.965 L1955.61 719.755 Q1956.63 717.95 1957.66 716.526 Q1958.7 715.09 1959.8 713.997 Q1962.62 711.174 1965.55 710.818 Q1968.47 710.45 1970.66 712.635 Q1972.18 714.157 1972.37 716.084 Q1972.54 717.999 1971.33 720.013 Z" fill="#000000" fill-rule="nonzero" fill-opacity="1" /><path clip-path="url(#clip250)" d="M1980.35 698.431 L1983.87 714.476 L1990.13 708.215 L1980.35 698.431 M1977.53 696.921 L1980.65 693.803 L1992.6 705.748 L1995.21 703.133 L1997.27 705.195 L1994.66 707.81 L1998.98 712.131 L1996.51 714.599 L1992.19 710.278 L1983.92 718.552 L1981.52 716.158 L1977.53 696.921 Z" fill="#000000" fill-rule="nonzero" fill-opacity="1" /><path clip-path="url(#clip250)" d="M2091.09 738.611 Q2089.18 740.526 2090.1 743.386 Q2091.02 746.222 2094.8 750.003 Q2098.57 753.772 2101.42 754.705 Q2104.27 755.613 2106.18 753.698 Q2108.11 751.771 2107.19 748.935 Q2106.27 746.075 2102.5 742.306 Q2098.72 738.525 2095.87 737.617 Q2093.02 736.684 2091.09 738.611 M2089.13 736.647 Q2092.21 733.565 2096.27 734.388 Q2100.34 735.186 2104.98 739.826 Q2109.61 744.454 2110.42 748.53 Q2111.23 752.581 2108.15 755.662 Q2105.06 758.744 2101 757.946 Q2096.94 757.123 2092.31 752.495 Q2087.67 747.855 2086.86 743.804 Q2086.05 739.728 2089.13 736.647 Z" fill="#000000" fill-rule="nonzero" fill-opacity="1" /><path clip-path="url(#clip250)" d="M2115.36 741.496 L2117.95 738.906 L2121.07 742.024 L2118.48 744.614 L2115.36 741.496 Z" fill="#000000" fill-rule="nonzero" fill-opacity="1" /><path clip-path="url(#clip250)" d="M2124.1 719.227 Q2126.27 717.828 2128.46 718.036 Q2130.67 718.233 2132.44 720 Q2135.15 722.713 2134.77 726.065 Q2134.39 729.416 2130.95 732.853 Q2129.8 734.007 2128.34 735.002 Q2126.9 735.996 2125.15 736.843 L2122.75 734.449 Q2124.39 734.02 2125.92 733.099 Q2127.46 732.178 2128.79 730.84 Q2131.13 728.508 2131.42 726.372 Q2131.73 724.223 2129.97 722.468 Q2128.35 720.847 2126.3 721.081 Q2124.25 721.289 2122.23 723.315 L2120.09 725.451 L2118.05 723.413 L2120.29 721.179 Q2122.12 719.35 2122.36 717.656 Q2122.59 715.949 2121.22 714.574 Q2119.81 713.163 2118.05 713.42 Q2116.3 713.654 2114.43 715.52 Q2113.41 716.539 2112.47 717.926 Q2111.52 719.313 2110.59 721.179 L2108.38 718.969 Q2109.4 717.165 2110.43 715.741 Q2111.47 714.304 2112.57 713.212 Q2115.39 710.388 2118.32 710.032 Q2121.24 709.664 2123.43 711.849 Q2124.95 713.371 2125.14 715.299 Q2125.31 717.214 2124.1 719.227 Z" fill="#000000" fill-rule="nonzero" fill-opacity="1" /><path clip-path="url(#clip250)" d="M2124.17 702.274 L2133.9 692.539 L2135.99 694.626 L2128.52 702.09 L2133.02 706.583 Q2133.37 705.858 2133.83 705.232 Q2134.27 704.594 2134.81 704.054 Q2137.88 700.985 2141.35 700.874 Q2144.83 700.764 2147.7 703.636 Q2150.66 706.595 2150.46 710.081 Q2150.25 713.555 2146.9 716.907 Q2145.75 718.061 2144.35 719.067 Q2142.96 720.062 2141.29 720.946 L2138.8 718.454 Q2140.51 717.95 2141.98 717.066 Q2143.45 716.183 2144.77 714.869 Q2146.89 712.745 2147.01 710.388 Q2147.13 708.031 2145.22 706.116 Q2143.3 704.201 2140.95 704.324 Q2138.59 704.447 2136.47 706.57 Q2135.47 707.565 2134.7 708.78 Q2133.94 709.983 2133.37 711.481 L2124.17 702.274 Z" fill="#000000" fill-rule="nonzero" fill-opacity="1" /><path clip-path="url(#clip250)" d="M2242.47 739.225 Q2240.55 741.14 2241.47 744 Q2242.39 746.836 2246.17 750.617 Q2249.94 754.386 2252.79 755.319 Q2255.64 756.227 2257.55 754.312 Q2259.48 752.385 2258.56 749.549 Q2257.64 746.689 2253.87 742.92 Q2250.09 739.139 2247.24 738.23 Q2244.39 737.297 2242.47 739.225 M2240.5 737.261 Q2243.58 734.179 2247.65 735.002 Q2251.71 735.8 2256.35 740.44 Q2260.98 745.068 2261.79 749.144 Q2262.6 753.195 2259.52 756.276 Q2256.44 759.358 2252.37 758.56 Q2248.31 757.737 2243.68 753.109 Q2239.04 748.469 2238.23 744.418 Q2237.42 740.342 2240.5 737.261 Z" fill="#000000" fill-rule="nonzero" fill-opacity="1" /><path clip-path="url(#clip250)" d="M2266.73 742.11 L2269.33 739.519 L2272.44 742.638 L2269.85 745.228 L2266.73 742.11 Z" fill="#000000" fill-rule="nonzero" fill-opacity="1" /><path clip-path="url(#clip250)" d="M2275.48 719.841 Q2277.64 718.441 2279.83 718.65 Q2282.04 718.846 2283.81 720.614 Q2286.52 723.327 2286.14 726.679 Q2285.76 730.03 2282.33 733.467 Q2281.17 734.621 2279.71 735.616 Q2278.27 736.61 2276.52 737.457 L2274.13 735.063 Q2275.76 734.634 2277.29 733.713 Q2278.83 732.792 2280.16 731.454 Q2282.5 729.122 2282.79 726.985 Q2283.1 724.837 2281.34 723.082 Q2279.72 721.461 2277.67 721.695 Q2275.62 721.903 2273.6 723.929 L2271.46 726.065 L2269.42 724.027 L2271.66 721.793 Q2273.49 719.964 2273.73 718.269 Q2273.97 716.563 2272.59 715.188 Q2271.18 713.776 2269.42 714.034 Q2267.67 714.267 2265.8 716.133 Q2264.78 717.152 2263.84 718.54 Q2262.89 719.927 2261.96 721.793 L2259.75 719.583 Q2260.77 717.778 2261.8 716.354 Q2262.84 714.918 2263.94 713.826 Q2266.76 711.002 2269.69 710.646 Q2272.62 710.278 2274.8 712.463 Q2276.32 713.985 2276.51 715.912 Q2276.68 717.828 2275.48 719.841 Z" fill="#000000" fill-rule="nonzero" fill-opacity="1" /><path clip-path="url(#clip250)" d="M2289.3 705.478 Q2287.63 707.147 2287.79 709.271 Q2287.96 711.383 2289.95 713.371 Q2291.93 715.348 2294.05 715.532 Q2296.17 715.691 2297.84 714.022 Q2299.51 712.352 2299.34 710.241 Q2299.17 708.105 2297.19 706.128 Q2295.2 704.14 2293.08 703.98 Q2290.97 703.808 2289.3 705.478 M2286.45 692.784 L2288.71 695.043 Q2287.33 695.534 2286.14 696.258 Q2284.96 696.97 2284.03 697.903 Q2281.58 700.359 2281.93 703.317 Q2282.3 706.263 2285.47 709.799 Q2285.12 708.007 2285.65 706.349 Q2286.17 704.68 2287.48 703.366 Q2290.24 700.604 2293.52 700.69 Q2296.8 700.751 2299.68 703.636 Q2302.51 706.46 2302.54 709.836 Q2302.58 713.212 2299.81 715.986 Q2296.63 719.166 2292.51 718.417 Q2288.39 717.656 2283.76 713.028 Q2279.42 708.682 2278.9 704.041 Q2278.37 699.389 2281.85 695.915 Q2282.78 694.982 2283.91 694.221 Q2285.05 693.447 2286.45 692.784 Z" fill="#000000" fill-rule="nonzero" fill-opacity="1" /><polyline clip-path="url(#clip250)" style="stroke:#000000; stroke-linecap:round; stroke-linejoin:round; stroke-width:4; stroke-opacity:1; fill:none" points="1328.14,667.406 1328.14,97.5521 "/>
<polyline clip-path="url(#clip250)" style="stroke:#000000; stroke-linecap:round; stroke-linejoin:round; stroke-width:4; stroke-opacity:1; fill:none" points="1328.14,667.406 1347.04,667.406 "/>
<polyline clip-path="url(#clip250)" style="stroke:#000000; stroke-linecap:round; stroke-linejoin:round; stroke-width:4; stroke-opacity:1; fill:none" points="1328.14,565.647 1347.04,565.647 "/>
<polyline clip-path="url(#clip250)" style="stroke:#000000; stroke-linecap:round; stroke-linejoin:round; stroke-width:4; stroke-opacity:1; fill:none" points="1328.14,463.887 1347.04,463.887 "/>
<polyline clip-path="url(#clip250)" style="stroke:#000000; stroke-linecap:round; stroke-linejoin:round; stroke-width:4; stroke-opacity:1; fill:none" points="1328.14,362.127 1347.04,362.127 "/>
<polyline clip-path="url(#clip250)" style="stroke:#000000; stroke-linecap:round; stroke-linejoin:round; stroke-width:4; stroke-opacity:1; fill:none" points="1328.14,260.368 1347.04,260.368 "/>
<polyline clip-path="url(#clip250)" style="stroke:#000000; stroke-linecap:round; stroke-linejoin:round; stroke-width:4; stroke-opacity:1; fill:none" points="1328.14,158.608 1347.04,158.608 "/>
<path clip-path="url(#clip250)" d="M1283.18 656.755 Q1280.47 656.755 1279.1 659.429 Q1277.75 662.085 1277.75 667.432 Q1277.75 672.762 1279.1 675.436 Q1280.47 678.092 1283.18 678.092 Q1285.91 678.092 1287.26 675.436 Q1288.63 672.762 1288.63 667.432 Q1288.63 662.085 1287.26 659.429 Q1285.91 656.755 1283.18 656.755 M1283.18 653.978 Q1287.54 653.978 1289.83 657.432 Q1292.14 660.87 1292.14 667.432 Q1292.14 673.978 1289.83 677.432 Q1287.54 680.87 1283.18 680.87 Q1278.82 680.87 1276.51 677.432 Q1274.22 673.978 1274.22 667.432 Q1274.22 660.87 1276.51 657.432 Q1278.82 653.978 1283.18 653.978 Z" fill="#000000" fill-rule="nonzero" fill-opacity="1" /><path clip-path="url(#clip250)" d="M1253.67 575.655 L1259.39 575.655 L1259.39 555.881 L1253.16 557.131 L1253.16 553.937 L1259.36 552.687 L1262.87 552.687 L1262.87 575.655 L1268.6 575.655 L1268.6 578.607 L1253.67 578.607 L1253.67 575.655 Z" fill="#000000" fill-rule="nonzero" fill-opacity="1" /><path clip-path="url(#clip250)" d="M1283.18 554.996 Q1280.47 554.996 1279.1 557.669 Q1277.75 560.326 1277.75 565.673 Q1277.75 571.003 1279.1 573.676 Q1280.47 576.332 1283.18 576.332 Q1285.91 576.332 1287.26 573.676 Q1288.63 571.003 1288.63 565.673 Q1288.63 560.326 1287.26 557.669 Q1285.91 554.996 1283.18 554.996 M1283.18 552.218 Q1287.54 552.218 1289.83 555.673 Q1292.14 559.11 1292.14 565.673 Q1292.14 572.218 1289.83 575.673 Q1287.54 579.11 1283.18 579.11 Q1278.82 579.11 1276.51 575.673 Q1274.22 572.218 1274.22 565.673 Q1274.22 559.11 1276.51 555.673 Q1278.82 552.218 1283.18 552.218 Z" fill="#000000" fill-rule="nonzero" fill-opacity="1" /><path clip-path="url(#clip250)" d="M1256.08 473.896 L1268.32 473.896 L1268.32 476.847 L1251.86 476.847 L1251.86 473.896 Q1253.86 471.83 1257.29 468.357 Q1260.75 464.868 1261.63 463.861 Q1263.32 461.969 1263.98 460.667 Q1264.66 459.347 1264.66 458.08 Q1264.66 456.014 1263.2 454.712 Q1261.76 453.41 1259.43 453.41 Q1257.78 453.41 1255.94 453.983 Q1254.12 454.555 1252.03 455.719 L1252.03 452.177 Q1254.15 451.326 1255.99 450.892 Q1257.83 450.458 1259.36 450.458 Q1263.39 450.458 1265.78 452.472 Q1268.18 454.486 1268.18 457.854 Q1268.18 459.451 1267.57 460.892 Q1266.98 462.316 1265.4 464.26 Q1264.97 464.764 1262.64 467.177 Q1260.31 469.573 1256.08 473.896 Z" fill="#000000" fill-rule="nonzero" fill-opacity="1" /><path clip-path="url(#clip250)" d="M1283.18 453.236 Q1280.47 453.236 1279.1 455.91 Q1277.75 458.566 1277.75 463.913 Q1277.75 469.243 1279.1 471.916 Q1280.47 474.573 1283.18 474.573 Q1285.91 474.573 1287.26 471.916 Q1288.63 469.243 1288.63 463.913 Q1288.63 458.566 1287.26 455.91 Q1285.91 453.236 1283.18 453.236 M1283.18 450.458 Q1287.54 450.458 1289.83 453.913 Q1292.14 457.351 1292.14 463.913 Q1292.14 470.458 1289.83 473.913 Q1287.54 477.35 1283.18 477.35 Q1278.82 477.35 1276.51 473.913 Q1274.22 470.458 1274.22 463.913 Q1274.22 457.351 1276.51 453.913 Q1278.82 450.458 1283.18 450.458 Z" fill="#000000" fill-rule="nonzero" fill-opacity="1" /><path clip-path="url(#clip250)" d="M1263.68 361.112 Q1266.2 361.65 1267.61 363.351 Q1269.03 365.053 1269.03 367.553 Q1269.03 371.389 1266.39 373.49 Q1263.75 375.591 1258.89 375.591 Q1257.26 375.591 1255.52 375.261 Q1253.8 374.948 1251.96 374.306 L1251.96 370.921 Q1253.42 371.771 1255.16 372.205 Q1256.89 372.639 1258.79 372.639 Q1262.09 372.639 1263.8 371.337 Q1265.54 370.035 1265.54 367.553 Q1265.54 365.261 1263.93 363.976 Q1262.33 362.674 1259.46 362.674 L1256.44 362.674 L1256.44 359.792 L1259.6 359.792 Q1262.19 359.792 1263.56 358.768 Q1264.93 357.726 1264.93 355.782 Q1264.93 353.785 1263.51 352.726 Q1262.1 351.65 1259.46 351.65 Q1258.02 351.65 1256.37 351.962 Q1254.72 352.275 1252.75 352.935 L1252.75 349.81 Q1254.74 349.254 1256.48 348.976 Q1258.23 348.699 1259.78 348.699 Q1263.77 348.699 1266.1 350.521 Q1268.42 352.327 1268.42 355.417 Q1268.42 357.57 1267.19 359.063 Q1265.96 360.539 1263.68 361.112 Z" fill="#000000" fill-rule="nonzero" fill-opacity="1" /><path clip-path="url(#clip250)" d="M1283.18 351.476 Q1280.47 351.476 1279.1 354.15 Q1277.75 356.806 1277.75 362.153 Q1277.75 367.483 1279.1 370.157 Q1280.47 372.813 1283.18 372.813 Q1285.91 372.813 1287.26 370.157 Q1288.63 367.483 1288.63 362.153 Q1288.63 356.806 1287.26 354.15 Q1285.91 351.476 1283.18 351.476 M1283.18 348.699 Q1287.54 348.699 1289.83 352.153 Q1292.14 355.591 1292.14 362.153 Q1292.14 368.698 1289.83 372.153 Q1287.54 375.591 1283.18 375.591 Q1278.82 375.591 1276.51 372.153 Q1274.22 368.698 1274.22 362.153 Q1274.22 355.591 1276.51 352.153 Q1278.82 348.699 1283.18 348.699 Z" fill="#000000" fill-rule="nonzero" fill-opacity="1" /><path clip-path="url(#clip250)" d="M1262.69 250.463 L1253.84 264.3 L1262.69 264.3 L1262.69 250.463 M1261.77 247.408 L1266.18 247.408 L1266.18 264.3 L1269.88 264.3 L1269.88 267.217 L1266.18 267.217 L1266.18 273.328 L1262.69 273.328 L1262.69 267.217 L1250.99 267.217 L1250.99 263.831 L1261.77 247.408 Z" fill="#000000" fill-rule="nonzero" fill-opacity="1" /><path clip-path="url(#clip250)" d="M1283.18 249.717 Q1280.47 249.717 1279.1 252.39 Q1277.75 255.046 1277.75 260.394 Q1277.75 265.723 1279.1 268.397 Q1280.47 271.053 1283.18 271.053 Q1285.91 271.053 1287.26 268.397 Q1288.63 265.723 1288.63 260.394 Q1288.63 255.046 1287.26 252.39 Q1285.91 249.717 1283.18 249.717 M1283.18 246.939 Q1287.54 246.939 1289.83 250.394 Q1292.14 253.831 1292.14 260.394 Q1292.14 266.939 1289.83 270.394 Q1287.54 273.831 1283.18 273.831 Q1278.82 273.831 1276.51 270.394 Q1274.22 266.939 1274.22 260.394 Q1274.22 253.831 1276.51 250.394 Q1278.82 246.939 1283.18 246.939 Z" fill="#000000" fill-rule="nonzero" fill-opacity="1" /><path clip-path="url(#clip250)" d="M1253.09 145.648 L1266.86 145.648 L1266.86 148.599 L1256.3 148.599 L1256.3 154.953 Q1257.07 154.693 1257.83 154.571 Q1258.6 154.433 1259.36 154.433 Q1263.7 154.433 1266.24 156.811 Q1268.77 159.19 1268.77 163.252 Q1268.77 167.436 1266.17 169.762 Q1263.56 172.071 1258.82 172.071 Q1257.19 172.071 1255.49 171.794 Q1253.8 171.516 1252 170.96 L1252 167.436 Q1253.56 168.287 1255.23 168.703 Q1256.89 169.12 1258.75 169.12 Q1261.76 169.12 1263.51 167.54 Q1265.26 165.96 1265.26 163.252 Q1265.26 160.544 1263.51 158.964 Q1261.76 157.384 1258.75 157.384 Q1257.35 157.384 1255.94 157.696 Q1254.55 158.009 1253.09 158.669 L1253.09 145.648 Z" fill="#000000" fill-rule="nonzero" fill-opacity="1" /><path clip-path="url(#clip250)" d="M1283.18 147.957 Q1280.47 147.957 1279.1 150.631 Q1277.75 153.287 1277.75 158.634 Q1277.75 163.964 1279.1 166.637 Q1280.47 169.294 1283.18 169.294 Q1285.91 169.294 1287.26 166.637 Q1288.63 163.964 1288.63 158.634 Q1288.63 153.287 1287.26 150.631 Q1285.91 147.957 1283.18 147.957 M1283.18 145.179 Q1287.54 145.179 1289.83 148.634 Q1292.14 152.072 1292.14 158.634 Q1292.14 165.179 1289.83 168.634 Q1287.54 172.071 1283.18 172.071 Q1278.82 172.071 1276.51 168.634 Q1274.22 165.179 1274.22 158.634 Q1274.22 152.072 1276.51 148.634 Q1278.82 145.179 1283.18 145.179 Z" fill="#000000" fill-rule="nonzero" fill-opacity="1" /><path clip-path="url(#clip250)" d="M1340.04 18.9258 Q1336.52 18.9258 1334.62 21.4721 Q1332.63 24.1341 1332.63 28.5323 Q1332.63 33.185 1334.6 35.8702 Q1336.59 38.5322 1340.04 38.5322 Q1343.44 38.5322 1345.43 35.847 Q1347.42 33.1619 1347.42 28.5323 Q1347.42 24.2962 1345.43 21.4721 Q1343.6 18.9258 1340.04 18.9258 M1340.04 15.5462 L1354.18 15.5462 L1354.18 19.8054 L1349.41 19.8054 Q1351.93 23.4165 1351.93 28.5323 Q1351.93 34.898 1348.76 38.5091 Q1345.59 42.1433 1340.04 42.1433 Q1334.46 42.1433 1331.31 38.5091 Q1328.14 34.898 1328.14 28.5323 Q1328.14 22.1203 1331.31 18.5323 Q1333.92 15.5462 1340.04 15.5462 Z" fill="#000000" fill-rule="nonzero" fill-opacity="1" /><path clip-path="url(#clip250)" d="M1378.35 19.6666 Q1377.49 19.3656 1376.63 19.1342 Q1374.34 18.5323 1371.89 18.5323 Q1367.65 18.5323 1365.29 20.824 Q1363.09 22.9536 1362.67 26.8656 L1378.35 26.8656 L1378.35 30.1989 L1362.67 30.1989 Q1363.09 34.1109 1365.29 36.2405 Q1367.65 38.5322 1371.89 38.5322 Q1374.85 38.5322 1376.63 37.9304 L1378.35 37.3517 L1378.35 41.2174 L1376.52 41.634 Q1374.11 42.1433 1371.63 42.1433 Q1365.43 42.1433 1361.82 38.5322 Q1358.18 34.9211 1358.18 28.5323 Q1358.18 22.1434 1361.82 18.5323 Q1365.43 14.9212 1371.63 14.9212 Q1373.97 14.9212 1376.52 15.4305 Q1377.44 15.6157 1378.35 15.8934 L1378.35 19.6666 Z" fill="#000000" fill-rule="nonzero" fill-opacity="1" /><path clip-path="url(#clip253)" d="M1384.49 545.295 L1384.49 667.406 L1460.49 667.406 L1460.49 545.295 L1384.49 545.295 L1384.49 545.295  Z" fill="#009af9" fill-rule="evenodd" fill-opacity="1"/>
<polyline clip-path="url(#clip253)" style="stroke:#000000; stroke-linecap:round; stroke-linejoin:round; stroke-width:4; stroke-opacity:1; fill:none" points="1384.49,545.295 1384.49,667.406 1460.49,667.406 1460.49,545.295 1384.49,545.295 "/>
<path clip-path="url(#clip253)" d="M1460.49 657.23 L1460.49 667.406 L1536.48 667.406 L1536.48 657.23 L1460.49 657.23 L1460.49 657.23  Z" fill="#009af9" fill-rule="evenodd" fill-opacity="1"/>
<polyline clip-path="url(#clip253)" style="stroke:#000000; stroke-linecap:round; stroke-linejoin:round; stroke-width:4; stroke-opacity:1; fill:none" points="1460.49,657.23 1460.49,667.406 1536.48,667.406 1536.48,657.23 1460.49,657.23 "/>
<path clip-path="url(#clip253)" d="M1536.48 606.351 L1536.48 667.406 L1612.47 667.406 L1612.47 606.351 L1536.48 606.351 L1536.48 606.351  Z" fill="#009af9" fill-rule="evenodd" fill-opacity="1"/>
<polyline clip-path="url(#clip253)" style="stroke:#000000; stroke-linecap:round; stroke-linejoin:round; stroke-width:4; stroke-opacity:1; fill:none" points="1536.48,606.351 1536.48,667.406 1612.47,667.406 1612.47,606.351 1536.48,606.351 "/>
<path clip-path="url(#clip253)" d="M1612.47 423.183 L1612.47 667.406 L1688.46 667.406 L1688.46 423.183 L1612.47 423.183 L1612.47 423.183  Z" fill="#009af9" fill-rule="evenodd" fill-opacity="1"/>
<polyline clip-path="url(#clip253)" style="stroke:#000000; stroke-linecap:round; stroke-linejoin:round; stroke-width:4; stroke-opacity:1; fill:none" points="1612.47,423.183 1612.47,667.406 1688.46,667.406 1688.46,423.183 1612.47,423.183 "/>
<path clip-path="url(#clip253)" d="M1688.46 626.702 L1688.46 667.406 L1764.45 667.406 L1764.45 626.702 L1688.46 626.702 L1688.46 626.702  Z" fill="#009af9" fill-rule="evenodd" fill-opacity="1"/>
<polyline clip-path="url(#clip253)" style="stroke:#000000; stroke-linecap:round; stroke-linejoin:round; stroke-width:4; stroke-opacity:1; fill:none" points="1688.46,626.702 1688.46,667.406 1764.45,667.406 1764.45,626.702 1688.46,626.702 "/>
<path clip-path="url(#clip253)" d="M1764.45 199.312 L1764.45 667.406 L1840.45 667.406 L1840.45 199.312 L1764.45 199.312 L1764.45 199.312  Z" fill="#009af9" fill-rule="evenodd" fill-opacity="1"/>
<polyline clip-path="url(#clip253)" style="stroke:#000000; stroke-linecap:round; stroke-linejoin:round; stroke-width:4; stroke-opacity:1; fill:none" points="1764.45,199.312 1764.45,667.406 1840.45,667.406 1840.45,199.312 1764.45,199.312 "/>
<path clip-path="url(#clip253)" d="M1840.45 97.5521 L1840.45 667.406 L1916.44 667.406 L1916.44 97.5521 L1840.45 97.5521 L1840.45 97.5521  Z" fill="#009af9" fill-rule="evenodd" fill-opacity="1"/>
<polyline clip-path="url(#clip253)" style="stroke:#000000; stroke-linecap:round; stroke-linejoin:round; stroke-width:4; stroke-opacity:1; fill:none" points="1840.45,97.5521 1840.45,667.406 1916.44,667.406 1916.44,97.5521 1840.45,97.5521 "/>
<path clip-path="url(#clip253)" d="M1916.44 382.479 L1916.44 667.406 L1992.43 667.406 L1992.43 382.479 L1916.44 382.479 L1916.44 382.479  Z" fill="#009af9" fill-rule="evenodd" fill-opacity="1"/>
<polyline clip-path="url(#clip253)" style="stroke:#000000; stroke-linecap:round; stroke-linejoin:round; stroke-width:4; stroke-opacity:1; fill:none" points="1916.44,382.479 1916.44,667.406 1992.43,667.406 1992.43,382.479 1916.44,382.479 "/>
<path clip-path="url(#clip253)" d="M1992.43 565.647 L1992.43 667.406 L2068.42 667.406 L2068.42 565.647 L1992.43 565.647 L1992.43 565.647  Z" fill="#009af9" fill-rule="evenodd" fill-opacity="1"/>
<polyline clip-path="url(#clip253)" style="stroke:#000000; stroke-linecap:round; stroke-linejoin:round; stroke-width:4; stroke-opacity:1; fill:none" points="1992.43,565.647 1992.43,667.406 2068.42,667.406 2068.42,565.647 1992.43,565.647 "/>
<path clip-path="url(#clip253)" d="M2068.42 463.887 L2068.42 667.406 L2144.42 667.406 L2144.42 463.887 L2068.42 463.887 L2068.42 463.887  Z" fill="#009af9" fill-rule="evenodd" fill-opacity="1"/>
<polyline clip-path="url(#clip253)" style="stroke:#000000; stroke-linecap:round; stroke-linejoin:round; stroke-width:4; stroke-opacity:1; fill:none" points="2068.42,463.887 2068.42,667.406 2144.42,667.406 2144.42,463.887 2068.42,463.887 "/>
<path clip-path="url(#clip253)" d="M2144.42 585.999 L2144.42 667.406 L2220.41 667.406 L2220.41 585.999 L2144.42 585.999 L2144.42 585.999  Z" fill="#009af9" fill-rule="evenodd" fill-opacity="1"/>
<polyline clip-path="url(#clip253)" style="stroke:#000000; stroke-linecap:round; stroke-linejoin:round; stroke-width:4; stroke-opacity:1; fill:none" points="2144.42,585.999 2144.42,667.406 2220.41,667.406 2220.41,585.999 2144.42,585.999 "/>
<path clip-path="url(#clip253)" d="M2220.41 606.351 L2220.41 667.406 L2296.4 667.406 L2296.4 606.351 L2220.41 606.351 L2220.41 606.351  Z" fill="#009af9" fill-rule="evenodd" fill-opacity="1"/>
<polyline clip-path="url(#clip253)" style="stroke:#000000; stroke-linecap:round; stroke-linejoin:round; stroke-width:4; stroke-opacity:1; fill:none" points="2220.41,606.351 2220.41,667.406 2296.4,667.406 2296.4,606.351 2220.41,606.351 "/>
<circle clip-path="url(#clip253)" style="fill:#009af9; stroke:none; fill-opacity:0" cx="1422.49" cy="545.295" r="2"/>
<circle clip-path="url(#clip253)" style="fill:#009af9; stroke:none; fill-opacity:0" cx="1498.48" cy="657.23" r="2"/>
<circle clip-path="url(#clip253)" style="fill:#009af9; stroke:none; fill-opacity:0" cx="1574.47" cy="606.351" r="2"/>
<circle clip-path="url(#clip253)" style="fill:#009af9; stroke:none; fill-opacity:0" cx="1650.47" cy="423.183" r="2"/>
<circle clip-path="url(#clip253)" style="fill:#009af9; stroke:none; fill-opacity:0" cx="1726.46" cy="626.702" r="2"/>
<circle clip-path="url(#clip253)" style="fill:#009af9; stroke:none; fill-opacity:0" cx="1802.45" cy="199.312" r="2"/>
<circle clip-path="url(#clip253)" style="fill:#009af9; stroke:none; fill-opacity:0" cx="1878.44" cy="97.5521" r="2"/>
<circle clip-path="url(#clip253)" style="fill:#009af9; stroke:none; fill-opacity:0" cx="1954.44" cy="382.479" r="2"/>
<circle clip-path="url(#clip253)" style="fill:#009af9; stroke:none; fill-opacity:0" cx="2030.43" cy="565.647" r="2"/>
<circle clip-path="url(#clip253)" style="fill:#009af9; stroke:none; fill-opacity:0" cx="2106.42" cy="463.887" r="2"/>
<circle clip-path="url(#clip253)" style="fill:#009af9; stroke:none; fill-opacity:0" cx="2182.41" cy="585.999" r="2"/>
<circle clip-path="url(#clip253)" style="fill:#009af9; stroke:none; fill-opacity:0" cx="2258.4" cy="606.351" r="2"/>
<polyline clip-path="url(#clip253)" style="stroke:#ff0000; stroke-linecap:round; stroke-linejoin:round; stroke-width:8; stroke-opacity:1; fill:none" stroke-dasharray="32, 20" points="1810.65,1237.26 1810.65,-472.302 "/>
<polyline clip-path="url(#clip253)" style="stroke:#ff0000; stroke-linecap:round; stroke-linejoin:round; stroke-width:6; stroke-opacity:1; fill:none" stroke-dasharray="24, 12, 3, 12" points="1419.45,1237.26 1419.45,-472.302 "/>
<polyline clip-path="url(#clip253)" style="stroke:#ff0000; stroke-linecap:round; stroke-linejoin:round; stroke-width:6; stroke-opacity:1; fill:none" stroke-dasharray="24, 12, 3, 12" points="2227.86,1237.26 2227.86,-472.302 "/>
<path clip-path="url(#clip250)" d="M128.138 1467.41 L1152.76 1467.41 L1152.76 897.552 L128.138 897.552  Z" fill="#ffffff" fill-rule="evenodd" fill-opacity="1"/>
<defs>
  <clipPath id="clip254">
    <rect x="128" y="897" width="1026" height="571"/>
  </clipPath>
</defs>
<polyline clip-path="url(#clip254)" style="stroke:#000000; stroke-linecap:round; stroke-linejoin:round; stroke-width:2; stroke-opacity:0.1; fill:none" points="184.494,1467.41 184.494,897.552 "/>
<polyline clip-path="url(#clip254)" style="stroke:#000000; stroke-linecap:round; stroke-linejoin:round; stroke-width:2; stroke-opacity:0.1; fill:none" points="488.462,1467.41 488.462,897.552 "/>
<polyline clip-path="url(#clip254)" style="stroke:#000000; stroke-linecap:round; stroke-linejoin:round; stroke-width:2; stroke-opacity:0.1; fill:none" points="792.431,1467.41 792.431,897.552 "/>
<polyline clip-path="url(#clip254)" style="stroke:#000000; stroke-linecap:round; stroke-linejoin:round; stroke-width:2; stroke-opacity:0.1; fill:none" points="1096.4,1467.41 1096.4,897.552 "/>
<polyline clip-path="url(#clip254)" style="stroke:#000000; stroke-linecap:round; stroke-linejoin:round; stroke-width:2; stroke-opacity:0.1; fill:none" points="128.138,1467.41 1152.76,1467.41 "/>
<polyline clip-path="url(#clip254)" style="stroke:#000000; stroke-linecap:round; stroke-linejoin:round; stroke-width:2; stroke-opacity:0.1; fill:none" points="128.138,1347.44 1152.76,1347.44 "/>
<polyline clip-path="url(#clip254)" style="stroke:#000000; stroke-linecap:round; stroke-linejoin:round; stroke-width:2; stroke-opacity:0.1; fill:none" points="128.138,1227.47 1152.76,1227.47 "/>
<polyline clip-path="url(#clip254)" style="stroke:#000000; stroke-linecap:round; stroke-linejoin:round; stroke-width:2; stroke-opacity:0.1; fill:none" points="128.138,1107.5 1152.76,1107.5 "/>
<polyline clip-path="url(#clip254)" style="stroke:#000000; stroke-linecap:round; stroke-linejoin:round; stroke-width:2; stroke-opacity:0.1; fill:none" points="128.138,987.529 1152.76,987.529 "/>
<polyline clip-path="url(#clip250)" style="stroke:#000000; stroke-linecap:round; stroke-linejoin:round; stroke-width:4; stroke-opacity:1; fill:none" points="128.138,1467.41 1152.76,1467.41 "/>
<polyline clip-path="url(#clip250)" style="stroke:#000000; stroke-linecap:round; stroke-linejoin:round; stroke-width:4; stroke-opacity:1; fill:none" points="184.494,1467.41 184.494,1448.51 "/>
<polyline clip-path="url(#clip250)" style="stroke:#000000; stroke-linecap:round; stroke-linejoin:round; stroke-width:4; stroke-opacity:1; fill:none" points="488.462,1467.41 488.462,1448.51 "/>
<polyline clip-path="url(#clip250)" style="stroke:#000000; stroke-linecap:round; stroke-linejoin:round; stroke-width:4; stroke-opacity:1; fill:none" points="792.431,1467.41 792.431,1448.51 "/>
<polyline clip-path="url(#clip250)" style="stroke:#000000; stroke-linecap:round; stroke-linejoin:round; stroke-width:4; stroke-opacity:1; fill:none" points="1096.4,1467.41 1096.4,1448.51 "/>
<path clip-path="url(#clip250)" d="M131.492 1538.29 Q129.576 1540.21 130.497 1543.07 Q131.418 1545.9 135.199 1549.68 Q138.968 1553.45 141.816 1554.39 Q144.664 1555.29 146.579 1553.38 Q148.506 1551.45 147.585 1548.62 Q146.665 1545.76 142.896 1541.99 Q139.115 1538.21 136.267 1537.3 Q133.419 1536.36 131.492 1538.29 M129.527 1536.33 Q132.609 1533.25 136.672 1534.07 Q140.735 1534.87 145.376 1539.51 Q150.004 1544.14 150.814 1548.21 Q151.624 1552.26 148.543 1555.34 Q145.462 1558.42 141.398 1557.63 Q137.335 1556.8 132.707 1552.18 Q128.066 1547.54 127.256 1543.48 Q126.446 1539.41 129.527 1536.33 Z" fill="#000000" fill-rule="nonzero" fill-opacity="1" /><path clip-path="url(#clip250)" d="M155.761 1541.18 L158.352 1538.59 L161.47 1541.7 L158.879 1544.29 L155.761 1541.18 Z" fill="#000000" fill-rule="nonzero" fill-opacity="1" /><path clip-path="url(#clip250)" d="M148.568 1517.95 L158.303 1508.22 L160.389 1510.3 L152.926 1517.77 L157.419 1522.26 Q157.775 1521.53 158.229 1520.91 Q158.671 1520.27 159.211 1519.73 Q162.28 1516.66 165.754 1516.55 Q169.228 1516.44 172.101 1519.31 Q175.059 1522.27 174.863 1525.76 Q174.654 1529.23 171.303 1532.58 Q170.149 1533.74 168.749 1534.74 Q167.362 1535.74 165.693 1536.62 L163.201 1534.13 Q164.907 1533.63 166.38 1532.74 Q167.853 1531.86 169.167 1530.55 Q171.291 1528.42 171.413 1526.06 Q171.536 1523.71 169.621 1521.79 Q167.706 1519.88 165.349 1520 Q162.992 1520.12 160.868 1522.25 Q159.874 1523.24 159.1 1524.46 Q158.339 1525.66 157.775 1527.16 L148.568 1517.95 Z" fill="#000000" fill-rule="nonzero" fill-opacity="1" /><path clip-path="url(#clip250)" d="M182.916 1516.08 L191.571 1507.43 L193.658 1509.52 L182.02 1521.15 L179.933 1519.07 Q179.884 1516.19 179.859 1511.31 Q179.835 1506.4 179.749 1505.06 Q179.602 1502.53 179.147 1501.14 Q178.693 1499.73 177.797 1498.84 Q176.336 1497.38 174.384 1497.49 Q172.445 1497.58 170.8 1499.23 Q169.633 1500.4 168.737 1502.1 Q167.853 1503.8 167.203 1506.09 L164.698 1503.59 Q165.595 1501.49 166.589 1499.88 Q167.583 1498.27 168.664 1497.19 Q171.512 1494.34 174.63 1494.07 Q177.748 1493.8 180.129 1496.18 Q181.259 1497.31 181.848 1498.76 Q182.437 1500.19 182.695 1502.68 Q182.744 1503.34 182.806 1506.69 Q182.855 1510.03 182.916 1516.08 Z" fill="#000000" fill-rule="nonzero" fill-opacity="1" /><path clip-path="url(#clip250)" d="M434.957 1538.8 Q433.042 1540.71 433.963 1543.57 Q434.883 1546.41 438.664 1550.19 Q442.433 1553.96 445.281 1554.89 Q448.129 1555.8 450.044 1553.88 Q451.972 1551.96 451.051 1549.12 Q450.13 1546.26 446.362 1542.49 Q442.581 1538.71 439.732 1537.8 Q436.884 1536.87 434.957 1538.8 M432.993 1536.83 Q436.074 1533.75 440.138 1534.57 Q444.201 1535.37 448.841 1540.01 Q453.469 1544.64 454.28 1548.71 Q455.09 1552.77 452.009 1555.85 Q448.927 1558.93 444.864 1558.13 Q440.8 1557.31 436.172 1552.68 Q431.532 1548.04 430.722 1543.99 Q429.912 1539.91 432.993 1536.83 Z" fill="#000000" fill-rule="nonzero" fill-opacity="1" /><path clip-path="url(#clip250)" d="M459.227 1541.68 L461.817 1539.09 L464.935 1542.21 L462.345 1544.8 L459.227 1541.68 Z" fill="#000000" fill-rule="nonzero" fill-opacity="1" /><path clip-path="url(#clip250)" d="M452.033 1518.45 L461.768 1508.72 L463.855 1510.81 L456.391 1518.27 L460.884 1522.76 Q461.24 1522.04 461.694 1521.41 Q462.136 1520.77 462.676 1520.23 Q465.745 1517.16 469.22 1517.05 Q472.694 1516.94 475.566 1519.82 Q478.525 1522.77 478.328 1526.26 Q478.12 1529.74 474.768 1533.09 Q473.614 1534.24 472.215 1535.25 Q470.828 1536.24 469.158 1537.13 L466.666 1534.63 Q468.373 1534.13 469.846 1533.25 Q471.319 1532.36 472.632 1531.05 Q474.756 1528.93 474.879 1526.57 Q475.002 1524.21 473.087 1522.3 Q471.172 1520.38 468.815 1520.5 Q466.458 1520.63 464.334 1522.75 Q463.339 1523.74 462.566 1524.96 Q461.805 1526.16 461.24 1527.66 L452.033 1518.45 Z" fill="#000000" fill-rule="nonzero" fill-opacity="1" /><path clip-path="url(#clip250)" d="M483.963 1503.42 Q486.124 1502.02 488.321 1502.22 Q490.531 1502.42 492.299 1504.19 Q495.012 1506.9 494.631 1510.25 Q494.251 1513.6 490.813 1517.04 Q489.659 1518.2 488.198 1519.19 Q486.762 1520.18 485.007 1521.03 L482.613 1518.64 Q484.246 1518.21 485.78 1517.29 Q487.315 1516.37 488.653 1515.03 Q490.985 1512.7 491.28 1510.56 Q491.587 1508.41 489.831 1506.66 Q488.211 1505.04 486.161 1505.27 Q484.111 1505.48 482.085 1507.5 L479.949 1509.64 L477.911 1507.6 L480.145 1505.37 Q481.974 1503.54 482.22 1501.84 Q482.453 1500.14 481.078 1498.76 Q479.667 1497.35 477.911 1497.61 Q476.156 1497.84 474.29 1499.71 Q473.271 1500.73 472.325 1502.11 Q471.38 1503.5 470.447 1505.37 L468.238 1503.16 Q469.256 1501.35 470.288 1499.93 Q471.331 1498.49 472.424 1497.4 Q475.247 1494.58 478.181 1494.22 Q481.103 1493.85 483.288 1496.04 Q484.81 1497.56 484.994 1499.49 Q485.166 1501.4 483.963 1503.42 Z" fill="#000000" fill-rule="nonzero" fill-opacity="1" /><path clip-path="url(#clip250)" d="M738.324 1539.4 Q736.409 1541.31 737.33 1544.17 Q738.251 1547.01 742.032 1550.79 Q745.801 1554.56 748.649 1555.49 Q751.497 1556.4 753.412 1554.48 Q755.339 1552.56 754.418 1549.72 Q753.498 1546.86 749.729 1543.09 Q745.948 1539.31 743.1 1538.4 Q740.252 1537.47 738.324 1539.4 M736.36 1537.43 Q739.441 1534.35 743.505 1535.17 Q747.568 1535.97 752.209 1540.61 Q756.837 1545.24 757.647 1549.32 Q758.457 1553.37 755.376 1556.45 Q752.295 1559.53 748.231 1558.73 Q744.168 1557.91 739.54 1553.28 Q734.899 1548.64 734.089 1544.59 Q733.279 1540.51 736.36 1537.43 Z" fill="#000000" fill-rule="nonzero" fill-opacity="1" /><path clip-path="url(#clip250)" d="M762.594 1542.28 L765.184 1539.69 L768.303 1542.81 L765.712 1545.4 L762.594 1542.28 Z" fill="#000000" fill-rule="nonzero" fill-opacity="1" /><path clip-path="url(#clip250)" d="M755.4 1519.06 L765.135 1509.32 L767.222 1511.41 L759.758 1518.87 L764.251 1523.36 Q764.607 1522.64 765.062 1522.01 Q765.504 1521.38 766.044 1520.84 Q769.113 1517.77 772.587 1517.66 Q776.061 1517.55 778.934 1520.42 Q781.892 1523.38 781.696 1526.86 Q781.487 1530.34 778.136 1533.69 Q776.982 1534.84 775.582 1535.85 Q774.195 1536.84 772.526 1537.73 L770.034 1535.24 Q771.74 1534.73 773.213 1533.85 Q774.686 1532.96 776 1531.65 Q778.123 1529.53 778.246 1527.17 Q778.369 1524.81 776.454 1522.9 Q774.539 1520.98 772.182 1521.11 Q769.825 1521.23 767.701 1523.35 Q766.707 1524.35 765.933 1525.56 Q765.172 1526.76 764.607 1528.26 L755.4 1519.06 Z" fill="#000000" fill-rule="nonzero" fill-opacity="1" /><path clip-path="url(#clip250)" d="M780.345 1498.43 L783.869 1514.48 L790.129 1508.22 L780.345 1498.43 M777.534 1496.92 L780.652 1493.8 L792.597 1505.75 L795.212 1503.13 L797.274 1505.2 L794.659 1507.81 L798.981 1512.13 L796.513 1514.6 L792.192 1510.28 L783.918 1518.55 L781.524 1516.16 L777.534 1496.92 Z" fill="#000000" fill-rule="nonzero" fill-opacity="1" /><path clip-path="url(#clip250)" d="M1043.08 1538.61 Q1041.16 1540.53 1042.08 1543.39 Q1043.01 1546.22 1046.79 1550 Q1050.56 1553.77 1053.4 1554.7 Q1056.25 1555.61 1058.17 1553.7 Q1060.09 1551.77 1059.17 1548.94 Q1058.25 1546.07 1054.48 1542.31 Q1050.7 1538.53 1047.85 1537.62 Q1045.01 1536.68 1043.08 1538.61 M1041.11 1536.65 Q1044.2 1533.57 1048.26 1534.39 Q1052.32 1535.19 1056.96 1539.83 Q1061.59 1544.45 1062.4 1548.53 Q1063.21 1552.58 1060.13 1555.66 Q1057.05 1558.74 1052.99 1557.95 Q1048.92 1557.12 1044.29 1552.5 Q1039.65 1547.85 1038.84 1543.8 Q1038.03 1539.73 1041.11 1536.65 Z" fill="#000000" fill-rule="nonzero" fill-opacity="1" /><path clip-path="url(#clip250)" d="M1067.35 1541.5 L1069.94 1538.91 L1073.06 1542.02 L1070.47 1544.61 L1067.35 1541.5 Z" fill="#000000" fill-rule="nonzero" fill-opacity="1" /><path clip-path="url(#clip250)" d="M1060.15 1518.27 L1069.89 1508.53 L1071.98 1510.62 L1064.51 1518.09 L1069.01 1522.58 Q1069.36 1521.85 1069.82 1521.23 Q1070.26 1520.59 1070.8 1520.05 Q1073.87 1516.98 1077.34 1516.87 Q1080.82 1516.76 1083.69 1519.63 Q1086.65 1522.59 1086.45 1526.08 Q1086.24 1529.55 1082.89 1532.9 Q1081.74 1534.06 1080.34 1535.06 Q1078.95 1536.06 1077.28 1536.94 L1074.79 1534.45 Q1076.49 1533.95 1077.97 1533.06 Q1079.44 1532.18 1080.75 1530.86 Q1082.88 1528.74 1083 1526.38 Q1083.12 1524.03 1081.21 1522.11 Q1079.29 1520.2 1076.94 1520.32 Q1074.58 1520.44 1072.46 1522.57 Q1071.46 1523.56 1070.69 1524.78 Q1069.93 1525.98 1069.36 1527.48 L1060.15 1518.27 Z" fill="#000000" fill-rule="nonzero" fill-opacity="1" /><path clip-path="url(#clip250)" d="M1076.15 1502.27 L1085.89 1492.54 L1087.97 1494.63 L1080.51 1502.09 L1085 1506.58 Q1085.36 1505.86 1085.81 1505.23 Q1086.25 1504.59 1086.79 1504.05 Q1089.86 1500.98 1093.34 1500.87 Q1096.81 1500.76 1099.68 1503.64 Q1102.64 1506.59 1102.45 1510.08 Q1102.24 1513.56 1098.89 1516.91 Q1097.73 1518.06 1096.33 1519.07 Q1094.95 1520.06 1093.28 1520.95 L1090.78 1518.45 Q1092.49 1517.95 1093.96 1517.07 Q1095.44 1516.18 1096.75 1514.87 Q1098.87 1512.75 1099 1510.39 Q1099.12 1508.03 1097.2 1506.12 Q1095.29 1504.2 1092.93 1504.32 Q1090.58 1504.45 1088.45 1506.57 Q1087.46 1507.56 1086.68 1508.78 Q1085.92 1509.98 1085.36 1511.48 L1076.15 1502.27 Z" fill="#000000" fill-rule="nonzero" fill-opacity="1" /><polyline clip-path="url(#clip250)" style="stroke:#000000; stroke-linecap:round; stroke-linejoin:round; stroke-width:4; stroke-opacity:1; fill:none" points="128.138,1467.41 128.138,897.552 "/>
<polyline clip-path="url(#clip250)" style="stroke:#000000; stroke-linecap:round; stroke-linejoin:round; stroke-width:4; stroke-opacity:1; fill:none" points="128.138,1467.41 147.035,1467.41 "/>
<polyline clip-path="url(#clip250)" style="stroke:#000000; stroke-linecap:round; stroke-linejoin:round; stroke-width:4; stroke-opacity:1; fill:none" points="128.138,1347.44 147.035,1347.44 "/>
<polyline clip-path="url(#clip250)" style="stroke:#000000; stroke-linecap:round; stroke-linejoin:round; stroke-width:4; stroke-opacity:1; fill:none" points="128.138,1227.47 147.035,1227.47 "/>
<polyline clip-path="url(#clip250)" style="stroke:#000000; stroke-linecap:round; stroke-linejoin:round; stroke-width:4; stroke-opacity:1; fill:none" points="128.138,1107.5 147.035,1107.5 "/>
<polyline clip-path="url(#clip250)" style="stroke:#000000; stroke-linecap:round; stroke-linejoin:round; stroke-width:4; stroke-opacity:1; fill:none" points="128.138,987.529 147.035,987.529 "/>
<path clip-path="url(#clip250)" d="M83.1795 1456.76 Q80.4711 1456.76 79.0996 1459.43 Q77.7455 1462.09 77.7455 1467.43 Q77.7455 1472.76 79.0996 1475.44 Q80.4711 1478.09 83.1795 1478.09 Q85.9051 1478.09 87.2593 1475.44 Q88.6308 1472.76 88.6308 1467.43 Q88.6308 1462.09 87.2593 1459.43 Q85.9051 1456.76 83.1795 1456.76 M83.1795 1453.98 Q87.5371 1453.98 89.8287 1457.43 Q92.1377 1460.87 92.1377 1467.43 Q92.1377 1473.98 89.8287 1477.43 Q87.5371 1480.87 83.1795 1480.87 Q78.8218 1480.87 76.5128 1477.43 Q74.2212 1473.98 74.2212 1467.43 Q74.2212 1460.87 76.5128 1457.43 Q78.8218 1453.98 83.1795 1453.98 Z" fill="#000000" fill-rule="nonzero" fill-opacity="1" /><path clip-path="url(#clip250)" d="M56.0789 1357.45 L68.3184 1357.45 L68.3184 1360.4 L51.8602 1360.4 L51.8602 1357.45 Q53.8567 1355.38 57.2942 1351.91 Q60.749 1348.42 61.6344 1347.41 Q63.3184 1345.52 63.9782 1344.22 Q64.6552 1342.9 64.6552 1341.63 Q64.6552 1339.56 63.1969 1338.26 Q61.756 1336.96 59.4296 1336.96 Q57.7803 1336.96 55.94 1337.53 Q54.1171 1338.11 52.0338 1339.27 L52.0338 1335.73 Q54.1518 1334.88 55.9921 1334.44 Q57.8324 1334.01 59.3601 1334.01 Q63.3879 1334.01 65.7837 1336.02 Q68.1795 1338.04 68.1795 1341.4 Q68.1795 1343 67.5719 1344.44 Q66.9816 1345.87 65.4018 1347.81 Q64.9677 1348.31 62.6414 1350.73 Q60.315 1353.12 56.0789 1357.45 Z" fill="#000000" fill-rule="nonzero" fill-opacity="1" /><path clip-path="url(#clip250)" d="M83.1795 1336.79 Q80.4711 1336.79 79.0996 1339.46 Q77.7455 1342.12 77.7455 1347.46 Q77.7455 1352.79 79.0996 1355.47 Q80.4711 1358.12 83.1795 1358.12 Q85.9051 1358.12 87.2593 1355.47 Q88.6308 1352.79 88.6308 1347.46 Q88.6308 1342.12 87.2593 1339.46 Q85.9051 1336.79 83.1795 1336.79 M83.1795 1334.01 Q87.5371 1334.01 89.8287 1337.46 Q92.1377 1340.9 92.1377 1347.46 Q92.1377 1354.01 89.8287 1357.46 Q87.5371 1360.9 83.1795 1360.9 Q78.8218 1360.9 76.5128 1357.46 Q74.2212 1354.01 74.2212 1347.46 Q74.2212 1340.9 76.5128 1337.46 Q78.8218 1334.01 83.1795 1334.01 Z" fill="#000000" fill-rule="nonzero" fill-opacity="1" /><path clip-path="url(#clip250)" d="M62.6935 1217.56 L53.8393 1231.4 L62.6935 1231.4 L62.6935 1217.56 M61.7733 1214.51 L66.183 1214.51 L66.183 1231.4 L69.8809 1231.4 L69.8809 1234.32 L66.183 1234.32 L66.183 1240.43 L62.6935 1240.43 L62.6935 1234.32 L50.9921 1234.32 L50.9921 1230.93 L61.7733 1214.51 Z" fill="#000000" fill-rule="nonzero" fill-opacity="1" /><path clip-path="url(#clip250)" d="M83.1795 1216.82 Q80.4711 1216.82 79.0996 1219.49 Q77.7455 1222.15 77.7455 1227.49 Q77.7455 1232.82 79.0996 1235.5 Q80.4711 1238.15 83.1795 1238.15 Q85.9051 1238.15 87.2593 1235.5 Q88.6308 1232.82 88.6308 1227.49 Q88.6308 1222.15 87.2593 1219.49 Q85.9051 1216.82 83.1795 1216.82 M83.1795 1214.04 Q87.5371 1214.04 89.8287 1217.49 Q92.1377 1220.93 92.1377 1227.49 Q92.1377 1234.04 89.8287 1237.49 Q87.5371 1240.93 83.1795 1240.93 Q78.8218 1240.93 76.5128 1237.49 Q74.2212 1234.04 74.2212 1227.49 Q74.2212 1220.93 76.5128 1217.49 Q78.8218 1214.04 83.1795 1214.04 Z" fill="#000000" fill-rule="nonzero" fill-opacity="1" /><path clip-path="url(#clip250)" d="M60.9921 1106.1 Q58.631 1106.1 57.2421 1107.72 Q55.8706 1109.33 55.8706 1112.14 Q55.8706 1114.94 57.2421 1116.57 Q58.631 1118.18 60.9921 1118.18 Q63.3532 1118.18 64.7247 1116.57 Q66.1136 1114.94 66.1136 1112.14 Q66.1136 1109.33 64.7247 1107.72 Q63.3532 1106.1 60.9921 1106.1 M67.9538 1095.11 L67.9538 1098.31 Q66.6344 1097.68 65.2802 1097.35 Q63.9434 1097.02 62.624 1097.02 Q59.1518 1097.02 57.3115 1099.36 Q55.4886 1101.71 55.2282 1106.45 Q56.2525 1104.94 57.7976 1104.14 Q59.3428 1103.32 61.2004 1103.32 Q65.1066 1103.32 67.3636 1105.7 Q69.6379 1108.06 69.6379 1112.14 Q69.6379 1116.14 67.2768 1118.55 Q64.9157 1120.96 60.9921 1120.96 Q56.4956 1120.96 54.1171 1117.52 Q51.7386 1114.07 51.7386 1107.52 Q51.7386 1101.38 54.6553 1097.73 Q57.572 1094.07 62.4851 1094.07 Q63.8046 1094.07 65.1414 1094.33 Q66.4955 1094.59 67.9538 1095.11 Z" fill="#000000" fill-rule="nonzero" fill-opacity="1" /><path clip-path="url(#clip250)" d="M83.1795 1096.85 Q80.4711 1096.85 79.0996 1099.52 Q77.7455 1102.18 77.7455 1107.52 Q77.7455 1112.85 79.0996 1115.53 Q80.4711 1118.18 83.1795 1118.18 Q85.9051 1118.18 87.2593 1115.53 Q88.6308 1112.85 88.6308 1107.52 Q88.6308 1102.18 87.2593 1099.52 Q85.9051 1096.85 83.1795 1096.85 M83.1795 1094.07 Q87.5371 1094.07 89.8287 1097.52 Q92.1377 1100.96 92.1377 1107.52 Q92.1377 1114.07 89.8287 1117.52 Q87.5371 1120.96 83.1795 1120.96 Q78.8218 1120.96 76.5128 1117.52 Q74.2212 1114.07 74.2212 1107.52 Q74.2212 1100.96 76.5128 1097.52 Q78.8218 1094.07 83.1795 1094.07 Z" fill="#000000" fill-rule="nonzero" fill-opacity="1" /><path clip-path="url(#clip250)" d="M60.558 988.18 Q58.0581 988.18 56.6171 989.517 Q55.1935 990.854 55.1935 993.197 Q55.1935 995.541 56.6171 996.878 Q58.0581 998.215 60.558 998.215 Q63.058 998.215 64.499 996.878 Q65.94 995.524 65.94 993.197 Q65.94 990.854 64.499 989.517 Q63.0754 988.18 60.558 988.18 M57.0511 986.687 Q54.7942 986.132 53.5268 984.586 Q52.2768 983.041 52.2768 980.819 Q52.2768 977.711 54.4817 975.906 Q56.7039 974.1 60.558 974.1 Q64.4296 974.1 66.6344 975.906 Q68.8393 977.711 68.8393 980.819 Q68.8393 983.041 67.5719 984.586 Q66.3219 986.132 64.0823 986.687 Q66.617 987.277 68.0233 988.996 Q69.4469 990.715 69.4469 993.197 Q69.4469 996.965 67.1379 998.979 Q64.8462 1000.99 60.558 1000.99 Q56.2699 1000.99 53.9609 998.979 Q51.6692 996.965 51.6692 993.197 Q51.6692 990.715 53.0928 988.996 Q54.5164 987.277 57.0511 986.687 M55.7664 981.149 Q55.7664 983.163 57.0164 984.291 Q58.2838 985.42 60.558 985.42 Q62.815 985.42 64.0823 984.291 Q65.367 983.163 65.367 981.149 Q65.367 979.135 64.0823 978.007 Q62.815 976.878 60.558 976.878 Q58.2838 976.878 57.0164 978.007 Q55.7664 979.135 55.7664 981.149 Z" fill="#000000" fill-rule="nonzero" fill-opacity="1" /><path clip-path="url(#clip250)" d="M83.1795 976.878 Q80.4711 976.878 79.0996 979.552 Q77.7455 982.208 77.7455 987.555 Q77.7455 992.885 79.0996 995.559 Q80.4711 998.215 83.1795 998.215 Q85.9051 998.215 87.2593 995.559 Q88.6308 992.885 88.6308 987.555 Q88.6308 982.208 87.2593 979.552 Q85.9051 976.878 83.1795 976.878 M83.1795 974.1 Q87.5371 974.1 89.8287 977.555 Q92.1377 980.993 92.1377 987.555 Q92.1377 994.1 89.8287 997.555 Q87.5371 1000.99 83.1795 1000.99 Q78.8218 1000.99 76.5128 997.555 Q74.2212 994.1 74.2212 987.555 Q74.2212 980.993 76.5128 977.555 Q78.8218 974.1 83.1795 974.1 Z" fill="#000000" fill-rule="nonzero" fill-opacity="1" /><path clip-path="url(#clip250)" d="M140.036 818.926 Q136.517 818.926 134.619 821.472 Q132.628 824.134 132.628 828.532 Q132.628 833.185 134.596 835.87 Q136.587 838.532 140.036 838.532 Q143.439 838.532 145.429 835.847 Q147.42 833.162 147.42 828.532 Q147.42 824.296 145.429 821.472 Q143.601 818.926 140.036 818.926 M140.036 815.546 L154.179 815.546 L154.179 819.805 L149.411 819.805 Q151.934 823.417 151.934 828.532 Q151.934 834.898 148.763 838.509 Q145.591 842.143 140.036 842.143 Q134.457 842.143 131.309 838.509 Q128.138 834.898 128.138 828.532 Q128.138 822.12 131.309 818.532 Q133.925 815.546 140.036 815.546 Z" fill="#000000" fill-rule="nonzero" fill-opacity="1" /><path clip-path="url(#clip250)" d="M165.198 841.472 L157.281 815.546 L161.864 815.546 L168.554 837.305 Q171.332 834.435 173.647 830.454 Q175.406 827.467 175.499 824.875 Q175.545 823.648 174.989 821.333 Q174.341 818.579 171.888 815.546 L176.193 815.546 L176.193 815.546 Q177.79 817.606 178.855 820.477 Q179.827 823.116 179.827 824.921 Q179.827 829.458 176.679 833.509 Q172.582 838.787 169.735 841.472 L165.198 841.472 Z" fill="#000000" fill-rule="nonzero" fill-opacity="1" /><path clip-path="url(#clip254)" d="M184.494 1389.43 L184.494 1467.41 L336.478 1467.41 L336.478 1389.43 L184.494 1389.43 L184.494 1389.43  Z" fill="#009af9" fill-rule="evenodd" fill-opacity="1"/>
<polyline clip-path="url(#clip254)" style="stroke:#000000; stroke-linecap:round; stroke-linejoin:round; stroke-width:4; stroke-opacity:1; fill:none" points="184.494,1389.43 184.494,1467.41 336.478,1467.41 336.478,1389.43 184.494,1389.43 "/>
<path clip-path="url(#clip254)" d="M336.478 1407.42 L336.478 1467.41 L488.462 1467.41 L488.462 1407.42 L336.478 1407.42 L336.478 1407.42  Z" fill="#009af9" fill-rule="evenodd" fill-opacity="1"/>
<polyline clip-path="url(#clip254)" style="stroke:#000000; stroke-linecap:round; stroke-linejoin:round; stroke-width:4; stroke-opacity:1; fill:none" points="336.478,1407.42 336.478,1467.41 488.462,1467.41 488.462,1407.42 336.478,1407.42 "/>
<path clip-path="url(#clip254)" d="M488.462 1323.44 L488.462 1467.41 L640.447 1467.41 L640.447 1323.44 L488.462 1323.44 L488.462 1323.44  Z" fill="#009af9" fill-rule="evenodd" fill-opacity="1"/>
<polyline clip-path="url(#clip254)" style="stroke:#000000; stroke-linecap:round; stroke-linejoin:round; stroke-width:4; stroke-opacity:1; fill:none" points="488.462,1323.44 488.462,1467.41 640.447,1467.41 640.447,1323.44 488.462,1323.44 "/>
<path clip-path="url(#clip254)" d="M640.447 1311.45 L640.447 1467.41 L792.431 1467.41 L792.431 1311.45 L640.447 1311.45 L640.447 1311.45  Z" fill="#009af9" fill-rule="evenodd" fill-opacity="1"/>
<polyline clip-path="url(#clip254)" style="stroke:#000000; stroke-linecap:round; stroke-linejoin:round; stroke-width:4; stroke-opacity:1; fill:none" points="640.447,1311.45 640.447,1467.41 792.431,1467.41 792.431,1311.45 640.447,1311.45 "/>
<path clip-path="url(#clip254)" d="M792.431 897.552 L792.431 1467.41 L944.416 1467.41 L944.416 897.552 L792.431 897.552 L792.431 897.552  Z" fill="#009af9" fill-rule="evenodd" fill-opacity="1"/>
<polyline clip-path="url(#clip254)" style="stroke:#000000; stroke-linecap:round; stroke-linejoin:round; stroke-width:4; stroke-opacity:1; fill:none" points="792.431,897.552 792.431,1467.41 944.416,1467.41 944.416,897.552 792.431,897.552 "/>
<path clip-path="url(#clip254)" d="M944.416 1149.49 L944.416 1467.41 L1096.4 1467.41 L1096.4 1149.49 L944.416 1149.49 L944.416 1149.49  Z" fill="#009af9" fill-rule="evenodd" fill-opacity="1"/>
<polyline clip-path="url(#clip254)" style="stroke:#000000; stroke-linecap:round; stroke-linejoin:round; stroke-width:4; stroke-opacity:1; fill:none" points="944.416,1149.49 944.416,1467.41 1096.4,1467.41 1096.4,1149.49 944.416,1149.49 "/>
<circle clip-path="url(#clip254)" style="fill:#009af9; stroke:none; fill-opacity:0" cx="260.486" cy="1389.43" r="2"/>
<circle clip-path="url(#clip254)" style="fill:#009af9; stroke:none; fill-opacity:0" cx="412.47" cy="1407.42" r="2"/>
<circle clip-path="url(#clip254)" style="fill:#009af9; stroke:none; fill-opacity:0" cx="564.455" cy="1323.44" r="2"/>
<circle clip-path="url(#clip254)" style="fill:#009af9; stroke:none; fill-opacity:0" cx="716.439" cy="1311.45" r="2"/>
<circle clip-path="url(#clip254)" style="fill:#009af9; stroke:none; fill-opacity:0" cx="868.423" cy="897.552" r="2"/>
<circle clip-path="url(#clip254)" style="fill:#009af9; stroke:none; fill-opacity:0" cx="1020.41" cy="1149.49" r="2"/>
<polyline clip-path="url(#clip254)" style="stroke:#ff0000; stroke-linecap:round; stroke-linejoin:round; stroke-width:8; stroke-opacity:1; fill:none" stroke-dasharray="32, 20" points="822.143,2037.26 822.143,327.698 "/>
<polyline clip-path="url(#clip254)" style="stroke:#ff0000; stroke-linecap:round; stroke-linejoin:round; stroke-width:6; stroke-opacity:1; fill:none" stroke-dasharray="24, 12, 3, 12" points="300.483,2037.26 300.483,327.698 "/>
<polyline clip-path="url(#clip254)" style="stroke:#ff0000; stroke-linecap:round; stroke-linejoin:round; stroke-width:6; stroke-opacity:1; fill:none" stroke-dasharray="24, 12, 3, 12" points="1064.88,2037.26 1064.88,327.698 "/>
</svg>
