<?xml version="1.0" encoding="utf-8"?>
<svg xmlns="http://www.w3.org/2000/svg" xmlns:xlink="http://www.w3.org/1999/xlink" width="600" height="400" viewBox="0 0 2400 1600">
<defs>
  <clipPath id="clip790">
    <rect x="0" y="0" width="2400" height="1600"/>
  </clipPath>
</defs>
<path clip-path="url(#clip790)" d="M0 1600 L2400 1600 L2400 0 L0 0  Z" fill="#ffffff" fill-rule="evenodd" fill-opacity="1"/>
<defs>
  <clipPath id="clip791">
    <rect x="480" y="0" width="1681" height="1600"/>
  </clipPath>
</defs>
<path clip-path="url(#clip790)" d="M128.138 662.16 L1152.76 662.16 L1152.76 97.5521 L128.138 97.5521  Z" fill="#ffffff" fill-rule="evenodd" fill-opacity="1"/>
<defs>
  <clipPath id="clip792">
    <rect x="128" y="97" width="1026" height="566"/>
  </clipPath>
</defs>
<polyline clip-path="url(#clip792)" style="stroke:#000000; stroke-linecap:round; stroke-linejoin:round; stroke-width:2; stroke-opacity:0.1; fill:none" points="184.494,662.16 184.494,97.5521 "/>
<polyline clip-path="url(#clip792)" style="stroke:#000000; stroke-linecap:round; stroke-linejoin:round; stroke-width:2; stroke-opacity:0.1; fill:none" points="366.875,662.16 366.875,97.5521 "/>
<polyline clip-path="url(#clip792)" style="stroke:#000000; stroke-linecap:round; stroke-linejoin:round; stroke-width:2; stroke-opacity:0.1; fill:none" points="549.256,662.16 549.256,97.5521 "/>
<polyline clip-path="url(#clip792)" style="stroke:#000000; stroke-linecap:round; stroke-linejoin:round; stroke-width:2; stroke-opacity:0.1; fill:none" points="731.637,662.16 731.637,97.5521 "/>
<polyline clip-path="url(#clip792)" style="stroke:#000000; stroke-linecap:round; stroke-linejoin:round; stroke-width:2; stroke-opacity:0.1; fill:none" points="914.019,662.16 914.019,97.5521 "/>
<polyline clip-path="url(#clip792)" style="stroke:#000000; stroke-linecap:round; stroke-linejoin:round; stroke-width:2; stroke-opacity:0.1; fill:none" points="1096.4,662.16 1096.4,97.5521 "/>
<polyline clip-path="url(#clip792)" style="stroke:#000000; stroke-linecap:round; stroke-linejoin:round; stroke-width:2; stroke-opacity:0.1; fill:none" points="128.138,662.16 1152.76,662.16 "/>
<polyline clip-path="url(#clip792)" style="stroke:#000000; stroke-linecap:round; stroke-linejoin:round; stroke-width:2; stroke-opacity:0.1; fill:none" points="128.138,546.934 1152.76,546.934 "/>
<polyline clip-path="url(#clip792)" style="stroke:#000000; stroke-linecap:round; stroke-linejoin:round; stroke-width:2; stroke-opacity:0.1; fill:none" points="128.138,431.708 1152.76,431.708 "/>
<polyline clip-path="url(#clip792)" style="stroke:#000000; stroke-linecap:round; stroke-linejoin:round; stroke-width:2; stroke-opacity:0.1; fill:none" points="128.138,316.482 1152.76,316.482 "/>
<polyline clip-path="url(#clip792)" style="stroke:#000000; stroke-linecap:round; stroke-linejoin:round; stroke-width:2; stroke-opacity:0.1; fill:none" points="128.138,201.256 1152.76,201.256 "/>
<polyline clip-path="url(#clip790)" style="stroke:#000000; stroke-linecap:round; stroke-linejoin:round; stroke-width:4; stroke-opacity:1; fill:none" points="128.138,662.16 1152.76,662.16 "/>
<polyline clip-path="url(#clip790)" style="stroke:#000000; stroke-linecap:round; stroke-linejoin:round; stroke-width:4; stroke-opacity:1; fill:none" points="184.494,662.16 184.494,643.263 "/>
<polyline clip-path="url(#clip790)" style="stroke:#000000; stroke-linecap:round; stroke-linejoin:round; stroke-width:4; stroke-opacity:1; fill:none" points="366.875,662.16 366.875,643.263 "/>
<polyline clip-path="url(#clip790)" style="stroke:#000000; stroke-linecap:round; stroke-linejoin:round; stroke-width:4; stroke-opacity:1; fill:none" points="549.256,662.16 549.256,643.263 "/>
<polyline clip-path="url(#clip790)" style="stroke:#000000; stroke-linecap:round; stroke-linejoin:round; stroke-width:4; stroke-opacity:1; fill:none" points="731.637,662.16 731.637,643.263 "/>
<polyline clip-path="url(#clip790)" style="stroke:#000000; stroke-linecap:round; stroke-linejoin:round; stroke-width:4; stroke-opacity:1; fill:none" points="914.019,662.16 914.019,643.263 "/>
<polyline clip-path="url(#clip790)" style="stroke:#000000; stroke-linecap:round; stroke-linejoin:round; stroke-width:4; stroke-opacity:1; fill:none" points="1096.4,662.16 1096.4,643.263 "/>
<path clip-path="url(#clip790)" d="M131.172 733.365 Q129.257 735.28 130.178 738.14 Q131.099 740.976 134.88 744.757 Q138.648 748.526 141.497 749.459 Q144.345 750.367 146.26 748.452 Q148.187 746.525 147.266 743.689 Q146.346 740.829 142.577 737.06 Q138.796 733.279 135.948 732.371 Q133.1 731.438 131.172 733.365 M129.208 731.401 Q132.289 728.32 136.353 729.142 Q140.416 729.94 145.057 734.58 Q149.685 739.208 150.495 743.284 Q151.305 747.335 148.224 750.416 Q145.143 753.498 141.079 752.7 Q137.016 751.877 132.388 747.249 Q127.747 742.609 126.937 738.558 Q126.127 734.482 129.208 731.401 Z" fill="#000000" fill-rule="nonzero" fill-opacity="1" /><path clip-path="url(#clip790)" d="M155.442 736.25 L158.032 733.66 L161.151 736.778 L158.56 739.368 L155.442 736.25 Z" fill="#000000" fill-rule="nonzero" fill-opacity="1" /><path clip-path="url(#clip790)" d="M163.152 717.369 Q161.384 719.137 161.31 721.101 Q161.249 723.053 162.906 724.71 Q164.563 726.368 166.515 726.306 Q168.479 726.233 170.247 724.465 Q172.015 722.697 172.089 720.733 Q172.15 718.756 170.505 717.111 Q168.848 715.454 166.884 715.528 Q164.932 715.589 163.152 717.369 M159.616 718.793 Q157.627 719.996 155.639 719.8 Q153.662 719.591 152.091 718.02 Q149.893 715.822 150.176 712.987 Q150.47 710.139 153.196 707.413 Q155.933 704.676 158.769 704.393 Q161.605 704.111 163.802 706.308 Q165.374 707.88 165.57 709.869 Q165.779 711.845 164.588 713.821 Q166.798 712.447 169.007 712.667 Q171.229 712.876 172.985 714.632 Q175.649 717.296 175.44 720.352 Q175.244 723.397 172.211 726.429 Q169.179 729.461 166.122 729.67 Q163.078 729.866 160.414 727.202 Q158.659 725.447 158.45 723.225 Q158.241 721.003 159.616 718.793 M154.792 715.786 Q156.216 717.21 157.897 717.124 Q159.592 717.025 161.2 715.417 Q162.796 713.821 162.894 712.127 Q163.004 710.421 161.58 708.997 Q160.156 707.573 158.45 707.683 Q156.756 707.782 155.16 709.377 Q153.552 710.986 153.453 712.68 Q153.368 714.362 154.792 715.786 Z" fill="#000000" fill-rule="nonzero" fill-opacity="1" /><path clip-path="url(#clip790)" d="M164.244 697.028 L173.979 687.293 L176.066 689.38 L168.602 696.844 L173.095 701.337 Q173.451 700.612 173.905 699.986 Q174.347 699.348 174.888 698.808 Q177.957 695.739 181.431 695.628 Q184.905 695.518 187.777 698.39 Q190.736 701.349 190.54 704.835 Q190.331 708.309 186.979 711.661 Q185.826 712.815 184.426 713.821 Q183.039 714.816 181.369 715.7 L178.877 713.208 Q180.584 712.704 182.057 711.82 Q183.53 710.937 184.843 709.623 Q186.967 707.499 187.09 705.142 Q187.213 702.785 185.298 700.87 Q183.383 698.955 181.026 699.078 Q178.669 699.201 176.545 701.324 Q175.55 702.319 174.777 703.534 Q174.016 704.737 173.451 706.235 L164.244 697.028 Z" fill="#000000" fill-rule="nonzero" fill-opacity="1" /><path clip-path="url(#clip790)" d="M312.94 733.979 Q311.025 735.894 311.945 738.754 Q312.866 741.59 316.647 745.371 Q320.416 749.14 323.264 750.073 Q326.112 750.981 328.027 749.066 Q329.955 747.139 329.034 744.303 Q328.113 741.443 324.344 737.674 Q320.563 733.893 317.715 732.984 Q314.867 732.051 312.94 733.979 M310.976 732.015 Q314.057 728.933 318.12 729.756 Q322.184 730.554 326.824 735.194 Q331.452 739.822 332.262 743.898 Q333.073 747.949 329.991 751.03 Q326.91 754.112 322.847 753.314 Q318.783 752.491 314.155 747.863 Q309.515 743.223 308.705 739.172 Q307.894 735.096 310.976 732.015 Z" fill="#000000" fill-rule="nonzero" fill-opacity="1" /><path clip-path="url(#clip790)" d="M337.21 736.864 L339.8 734.273 L342.918 737.392 L340.328 739.982 L337.21 736.864 Z" fill="#000000" fill-rule="nonzero" fill-opacity="1" /><path clip-path="url(#clip790)" d="M344.919 717.983 Q343.151 719.751 343.078 721.715 Q343.016 723.667 344.674 725.324 Q346.331 726.981 348.283 726.92 Q350.247 726.846 352.015 725.079 Q353.782 723.311 353.856 721.347 Q353.917 719.37 352.272 717.725 Q350.615 716.068 348.651 716.142 Q346.699 716.203 344.919 717.983 M341.384 719.407 Q339.395 720.61 337.406 720.414 Q335.43 720.205 333.858 718.634 Q331.661 716.436 331.943 713.6 Q332.238 710.752 334.963 708.027 Q337.701 705.29 340.537 705.007 Q343.372 704.725 345.57 706.922 Q347.141 708.494 347.337 710.482 Q347.546 712.459 346.355 714.435 Q348.565 713.06 350.775 713.281 Q352.997 713.49 354.752 715.245 Q357.416 717.909 357.207 720.966 Q357.011 724.011 353.979 727.043 Q350.947 730.075 347.89 730.284 Q344.845 730.48 342.182 727.816 Q340.426 726.061 340.217 723.839 Q340.009 721.617 341.384 719.407 M336.559 716.399 Q337.983 717.823 339.665 717.738 Q341.359 717.639 342.967 716.031 Q344.563 714.435 344.661 712.741 Q344.772 711.035 343.348 709.611 Q341.924 708.187 340.217 708.297 Q338.523 708.395 336.927 709.991 Q335.319 711.599 335.221 713.294 Q335.135 714.975 336.559 716.399 Z" fill="#000000" fill-rule="nonzero" fill-opacity="1" /><path clip-path="url(#clip790)" d="M359.773 700.232 Q358.104 701.901 358.263 704.025 Q358.435 706.137 360.424 708.125 Q362.4 710.102 364.524 710.286 Q366.648 710.446 368.317 708.776 Q369.987 707.106 369.815 704.995 Q369.643 702.859 367.667 700.882 Q365.678 698.894 363.554 698.734 Q361.443 698.562 359.773 700.232 M356.925 687.538 L359.184 689.797 Q357.809 690.288 356.618 691.012 Q355.44 691.724 354.507 692.657 Q352.051 695.113 352.407 698.071 Q352.776 701.017 355.943 704.553 Q355.599 702.761 356.127 701.103 Q356.643 699.434 357.956 698.12 Q360.718 695.358 363.996 695.444 Q367.274 695.506 370.159 698.39 Q372.982 701.214 373.019 704.59 Q373.056 707.966 370.281 710.74 Q367.102 713.92 362.989 713.171 Q358.865 712.41 354.237 707.782 Q349.891 703.436 349.375 698.795 Q348.847 694.143 352.322 690.669 Q353.255 689.736 354.384 688.975 Q355.526 688.201 356.925 687.538 Z" fill="#000000" fill-rule="nonzero" fill-opacity="1" /><path clip-path="url(#clip790)" d="M495.886 733.414 Q493.971 735.329 494.891 738.189 Q495.812 741.025 499.593 744.806 Q503.362 748.575 506.21 749.508 Q509.058 750.416 510.973 748.501 Q512.901 746.574 511.98 743.738 Q511.059 740.878 507.29 737.109 Q503.509 733.328 500.661 732.42 Q497.813 731.487 495.886 733.414 M493.922 731.45 Q497.003 728.369 501.066 729.191 Q505.13 729.989 509.77 734.629 Q514.398 739.257 515.208 743.333 Q516.019 747.384 512.937 750.466 Q509.856 753.547 505.793 752.749 Q501.729 751.926 497.101 747.298 Q492.461 742.658 491.651 738.607 Q490.84 734.531 493.922 731.45 Z" fill="#000000" fill-rule="nonzero" fill-opacity="1" /><path clip-path="url(#clip790)" d="M520.156 736.299 L522.746 733.709 L525.864 736.827 L523.274 739.417 L520.156 736.299 Z" fill="#000000" fill-rule="nonzero" fill-opacity="1" /><path clip-path="url(#clip790)" d="M527.865 717.418 Q526.097 719.186 526.024 721.15 Q525.962 723.102 527.62 724.759 Q529.277 726.417 531.229 726.355 Q533.193 726.282 534.961 724.514 Q536.728 722.746 536.802 720.782 Q536.863 718.806 535.218 717.161 Q533.561 715.503 531.597 715.577 Q529.645 715.638 527.865 717.418 M524.33 718.842 Q522.341 720.045 520.352 719.849 Q518.376 719.64 516.804 718.069 Q514.607 715.872 514.889 713.036 Q515.184 710.188 517.909 707.462 Q520.647 704.725 523.483 704.442 Q526.318 704.16 528.516 706.358 Q530.087 707.929 530.283 709.918 Q530.492 711.894 529.301 713.871 Q531.511 712.496 533.721 712.717 Q535.943 712.925 537.698 714.681 Q540.362 717.345 540.153 720.401 Q539.957 723.446 536.925 726.478 Q533.893 729.51 530.836 729.719 Q527.791 729.915 525.128 727.251 Q523.372 725.496 523.163 723.274 Q522.955 721.052 524.33 718.842 M519.505 715.835 Q520.929 717.259 522.611 717.173 Q524.305 717.075 525.913 715.466 Q527.509 713.871 527.607 712.176 Q527.718 710.47 526.294 709.046 Q524.87 707.622 523.163 707.732 Q521.469 707.831 519.873 709.427 Q518.265 711.035 518.167 712.729 Q518.081 714.411 519.505 715.835 Z" fill="#000000" fill-rule="nonzero" fill-opacity="1" /><path clip-path="url(#clip790)" d="M528.307 697.727 L540.092 685.942 L541.148 686.998 L551.767 710.924 L549.176 713.515 L539.196 691.012 L530.394 699.814 L528.307 697.727 Z" fill="#000000" fill-rule="nonzero" fill-opacity="1" /><path clip-path="url(#clip790)" d="M677.837 733.844 Q675.922 735.759 676.843 738.619 Q677.764 741.455 681.545 745.236 Q685.314 749.005 688.162 749.938 Q691.01 750.846 692.925 748.931 Q694.852 747.004 693.931 744.168 Q693.011 741.308 689.242 737.539 Q685.461 733.758 682.613 732.849 Q679.765 731.916 677.837 733.844 M675.873 731.88 Q678.955 728.798 683.018 729.621 Q687.081 730.419 691.722 735.059 Q696.35 739.687 697.16 743.763 Q697.97 747.814 694.889 750.895 Q691.808 753.977 687.744 753.179 Q683.681 752.356 679.053 747.728 Q674.412 743.088 673.602 739.037 Q672.792 734.961 675.873 731.88 Z" fill="#000000" fill-rule="nonzero" fill-opacity="1" /><path clip-path="url(#clip790)" d="M702.107 736.729 L704.698 734.138 L707.816 737.256 L705.225 739.847 L702.107 736.729 Z" fill="#000000" fill-rule="nonzero" fill-opacity="1" /><path clip-path="url(#clip790)" d="M709.817 717.848 Q708.049 719.616 707.975 721.58 Q707.914 723.532 709.571 725.189 Q711.228 726.846 713.18 726.785 Q715.145 726.711 716.912 724.944 Q718.68 723.176 718.754 721.212 Q718.815 719.235 717.17 717.59 Q715.513 715.933 713.549 716.007 Q711.597 716.068 709.817 717.848 M706.281 719.272 Q704.292 720.475 702.304 720.279 Q700.327 720.07 698.756 718.499 Q696.559 716.301 696.841 713.465 Q697.136 710.617 699.861 707.892 Q702.598 705.155 705.434 704.872 Q708.27 704.59 710.467 706.787 Q712.039 708.359 712.235 710.347 Q712.444 712.324 711.253 714.3 Q713.463 712.925 715.672 713.146 Q717.894 713.355 719.65 715.11 Q722.314 717.774 722.105 720.831 Q721.909 723.876 718.876 726.908 Q715.844 729.94 712.788 730.149 Q709.743 730.345 707.079 727.681 Q705.324 725.926 705.115 723.704 Q704.906 721.482 706.281 719.272 M701.457 716.264 Q702.881 717.688 704.563 717.602 Q706.257 717.504 707.865 715.896 Q709.461 714.3 709.559 712.606 Q709.669 710.9 708.245 709.476 Q706.821 708.052 705.115 708.162 Q703.421 708.26 701.825 709.856 Q700.217 711.464 700.119 713.159 Q700.033 714.84 701.457 716.264 Z" fill="#000000" fill-rule="nonzero" fill-opacity="1" /><path clip-path="url(#clip790)" d="M725.812 701.852 Q724.045 703.62 723.971 705.584 Q723.91 707.536 725.567 709.193 Q727.224 710.851 729.176 710.789 Q731.14 710.716 732.908 708.948 Q734.676 707.18 734.749 705.216 Q734.811 703.239 733.166 701.594 Q731.509 699.937 729.544 700.011 Q727.593 700.072 725.812 701.852 M722.277 703.276 Q720.288 704.479 718.299 704.283 Q716.323 704.074 714.752 702.503 Q712.554 700.305 712.837 697.47 Q713.131 694.622 715.857 691.896 Q718.594 689.159 721.43 688.876 Q724.266 688.594 726.463 690.791 Q728.034 692.363 728.231 694.352 Q728.44 696.328 727.249 698.304 Q729.458 696.93 731.668 697.15 Q733.89 697.359 735.646 699.115 Q738.31 701.779 738.101 704.835 Q737.904 707.88 734.872 710.912 Q731.84 713.944 728.783 714.153 Q725.739 714.349 723.075 711.685 Q721.319 709.93 721.111 707.708 Q720.902 705.486 722.277 703.276 M717.452 700.269 Q718.876 701.693 720.558 701.607 Q722.252 701.509 723.861 699.9 Q725.456 698.304 725.555 696.61 Q725.665 694.904 724.241 693.48 Q722.817 692.056 721.111 692.166 Q719.417 692.265 717.821 693.861 Q716.213 695.469 716.114 697.163 Q716.028 698.845 717.452 700.269 Z" fill="#000000" fill-rule="nonzero" fill-opacity="1" /><path clip-path="url(#clip790)" d="M860.268 733.795 Q858.353 735.71 859.274 738.57 Q860.194 741.406 863.975 745.187 Q867.744 748.956 870.592 749.889 Q873.44 750.797 875.355 748.882 Q877.283 746.955 876.362 744.119 Q875.441 741.259 871.672 737.49 Q867.891 733.709 865.043 732.8 Q862.195 731.867 860.268 733.795 M858.304 731.83 Q861.385 728.749 865.448 729.572 Q869.512 730.37 874.152 735.01 Q878.78 739.638 879.59 743.714 Q880.401 747.765 877.319 750.846 Q874.238 753.927 870.175 753.129 Q866.111 752.307 861.483 747.679 Q856.843 743.039 856.033 738.987 Q855.222 734.912 858.304 731.83 Z" fill="#000000" fill-rule="nonzero" fill-opacity="1" /><path clip-path="url(#clip790)" d="M884.538 736.68 L887.128 734.089 L890.246 737.207 L887.656 739.798 L884.538 736.68 Z" fill="#000000" fill-rule="nonzero" fill-opacity="1" /><path clip-path="url(#clip790)" d="M892.247 717.799 Q890.479 719.567 890.406 721.531 Q890.344 723.483 892.002 725.14 Q893.659 726.797 895.611 726.736 Q897.575 726.662 899.343 724.894 Q901.11 723.127 901.184 721.163 Q901.246 719.186 899.601 717.541 Q897.943 715.884 895.979 715.957 Q894.027 716.019 892.247 717.799 M888.712 719.223 Q886.723 720.426 884.734 720.23 Q882.758 720.021 881.186 718.45 Q878.989 716.252 879.271 713.416 Q879.566 710.568 882.291 707.843 Q885.029 705.105 887.865 704.823 Q890.7 704.541 892.898 706.738 Q894.469 708.309 894.666 710.298 Q894.874 712.275 893.683 714.251 Q895.893 712.876 898.103 713.097 Q900.325 713.306 902.08 715.061 Q904.744 717.725 904.535 720.782 Q904.339 723.826 901.307 726.859 Q898.275 729.891 895.218 730.1 Q892.173 730.296 889.51 727.632 Q887.754 725.877 887.545 723.655 Q887.337 721.433 888.712 719.223 M883.887 716.215 Q885.311 717.639 886.993 717.553 Q888.687 717.455 890.295 715.847 Q891.891 714.251 891.989 712.557 Q892.1 710.851 890.676 709.427 Q889.252 708.003 887.545 708.113 Q885.851 708.211 884.255 709.807 Q882.647 711.415 882.549 713.109 Q882.463 714.791 883.887 716.215 Z" fill="#000000" fill-rule="nonzero" fill-opacity="1" /><path clip-path="url(#clip790)" d="M911.336 715.356 L909.078 713.097 Q910.453 712.606 911.643 711.882 Q912.834 711.158 913.755 710.237 Q916.21 707.782 915.854 704.848 Q915.498 701.889 912.319 698.341 Q912.662 700.109 912.134 701.766 Q911.607 703.424 910.281 704.749 Q907.531 707.499 904.265 707.45 Q901 707.376 898.115 704.492 Q895.292 701.668 895.255 698.292 Q895.218 694.916 897.992 692.142 Q901.172 688.962 905.284 689.736 Q909.397 690.485 914.037 695.125 Q918.371 699.458 918.899 704.111 Q919.426 708.739 915.952 712.213 Q915.019 713.146 913.878 713.92 Q912.736 714.693 911.336 715.356 M908.501 702.65 Q910.17 700.981 909.998 698.869 Q909.839 696.745 907.85 694.757 Q905.874 692.78 903.75 692.621 Q901.626 692.436 899.957 694.106 Q898.287 695.776 898.459 697.912 Q898.631 700.023 900.607 702 Q902.596 703.988 904.707 704.16 Q906.831 704.32 908.501 702.65 Z" fill="#000000" fill-rule="nonzero" fill-opacity="1" /><path clip-path="url(#clip790)" d="M1042.55 733.893 Q1040.64 735.808 1041.56 738.668 Q1042.48 741.504 1046.26 745.285 Q1050.03 749.054 1052.88 749.987 Q1055.72 750.895 1057.64 748.98 Q1059.57 747.053 1058.64 744.217 Q1057.72 741.357 1053.96 737.588 Q1050.17 733.807 1047.33 732.898 Q1044.48 731.966 1042.55 733.893 M1040.59 731.929 Q1043.67 728.847 1047.73 729.67 Q1051.79 730.468 1056.44 735.108 Q1061.06 739.736 1061.87 743.812 Q1062.68 747.863 1059.6 750.944 Q1056.52 754.026 1052.46 753.228 Q1048.39 752.405 1043.77 747.777 Q1039.13 743.137 1038.32 739.086 Q1037.51 735.01 1040.59 731.929 Z" fill="#000000" fill-rule="nonzero" fill-opacity="1" /><path clip-path="url(#clip790)" d="M1066.82 736.778 L1069.41 734.187 L1072.53 737.306 L1069.94 739.896 L1066.82 736.778 Z" fill="#000000" fill-rule="nonzero" fill-opacity="1" /><path clip-path="url(#clip790)" d="M1077.62 731.45 L1075.36 729.191 Q1076.74 728.7 1077.93 727.976 Q1079.12 727.251 1080.04 726.331 Q1082.5 723.876 1082.14 720.942 Q1081.79 717.983 1078.61 714.435 Q1078.95 716.203 1078.42 717.86 Q1077.89 719.518 1076.57 720.843 Q1073.82 723.593 1070.55 723.544 Q1067.29 723.47 1064.4 720.586 Q1061.58 717.762 1061.54 714.386 Q1061.51 711.01 1064.28 708.236 Q1067.46 705.056 1071.57 705.83 Q1075.68 706.579 1080.32 711.219 Q1084.66 715.552 1085.19 720.205 Q1085.71 724.833 1082.24 728.307 Q1081.31 729.24 1080.16 730.014 Q1079.02 730.787 1077.62 731.45 M1074.79 718.744 Q1076.46 717.075 1076.29 714.963 Q1076.13 712.839 1074.14 710.851 Q1072.16 708.874 1070.04 708.715 Q1067.91 708.53 1066.24 710.2 Q1064.57 711.87 1064.75 714.006 Q1064.92 716.117 1066.89 718.094 Q1068.88 720.082 1070.99 720.254 Q1073.12 720.414 1074.79 718.744 Z" fill="#000000" fill-rule="nonzero" fill-opacity="1" /><path clip-path="url(#clip790)" d="M1082.53 693.91 Q1080.62 695.825 1081.54 698.685 Q1082.46 701.521 1086.24 705.302 Q1090.01 709.071 1092.86 710.004 Q1095.71 710.912 1097.62 708.997 Q1099.55 707.07 1098.63 704.234 Q1097.71 701.373 1093.94 697.605 Q1090.16 693.824 1087.31 692.915 Q1084.46 691.982 1082.53 693.91 M1080.57 691.945 Q1083.65 688.864 1087.71 689.687 Q1091.78 690.485 1096.42 695.125 Q1101.05 699.753 1101.86 703.829 Q1102.67 707.88 1099.59 710.961 Q1096.5 714.042 1092.44 713.244 Q1088.38 712.422 1083.75 707.794 Q1079.11 703.154 1078.3 699.102 Q1077.49 695.027 1080.57 691.945 Z" fill="#000000" fill-rule="nonzero" fill-opacity="1" /><polyline clip-path="url(#clip790)" style="stroke:#000000; stroke-linecap:round; stroke-linejoin:round; stroke-width:4; stroke-opacity:1; fill:none" points="128.138,662.16 128.138,97.5521 "/>
<polyline clip-path="url(#clip790)" style="stroke:#000000; stroke-linecap:round; stroke-linejoin:round; stroke-width:4; stroke-opacity:1; fill:none" points="128.138,662.16 147.035,662.16 "/>
<polyline clip-path="url(#clip790)" style="stroke:#000000; stroke-linecap:round; stroke-linejoin:round; stroke-width:4; stroke-opacity:1; fill:none" points="128.138,546.934 147.035,546.934 "/>
<polyline clip-path="url(#clip790)" style="stroke:#000000; stroke-linecap:round; stroke-linejoin:round; stroke-width:4; stroke-opacity:1; fill:none" points="128.138,431.708 147.035,431.708 "/>
<polyline clip-path="url(#clip790)" style="stroke:#000000; stroke-linecap:round; stroke-linejoin:round; stroke-width:4; stroke-opacity:1; fill:none" points="128.138,316.482 147.035,316.482 "/>
<polyline clip-path="url(#clip790)" style="stroke:#000000; stroke-linecap:round; stroke-linejoin:round; stroke-width:4; stroke-opacity:1; fill:none" points="128.138,201.256 147.035,201.256 "/>
<path clip-path="url(#clip790)" d="M83.1795 651.509 Q80.4711 651.509 79.0996 654.183 Q77.7455 656.839 77.7455 662.186 Q77.7455 667.516 79.0996 670.19 Q80.4711 672.846 83.1795 672.846 Q85.9051 672.846 87.2593 670.19 Q88.6308 667.516 88.6308 662.186 Q88.6308 656.839 87.2593 654.183 Q85.9051 651.509 83.1795 651.509 M83.1795 648.732 Q87.5371 648.732 89.8287 652.186 Q92.1377 655.624 92.1377 662.186 Q92.1377 668.732 89.8287 672.186 Q87.5371 675.624 83.1795 675.624 Q78.8218 675.624 76.5128 672.186 Q74.2212 668.732 74.2212 662.186 Q74.2212 655.624 76.5128 652.186 Q78.8218 648.732 83.1795 648.732 Z" fill="#000000" fill-rule="nonzero" fill-opacity="1" /><path clip-path="url(#clip790)" d="M53.6657 556.943 L59.3949 556.943 L59.3949 537.169 L53.1623 538.419 L53.1623 535.224 L59.3601 533.974 L62.8671 533.974 L62.8671 556.943 L68.5962 556.943 L68.5962 559.894 L53.6657 559.894 L53.6657 556.943 Z" fill="#000000" fill-rule="nonzero" fill-opacity="1" /><path clip-path="url(#clip790)" d="M83.1795 536.283 Q80.4711 536.283 79.0996 538.957 Q77.7455 541.613 77.7455 546.96 Q77.7455 552.29 79.0996 554.964 Q80.4711 557.62 83.1795 557.62 Q85.9051 557.62 87.2593 554.964 Q88.6308 552.29 88.6308 546.96 Q88.6308 541.613 87.2593 538.957 Q85.9051 536.283 83.1795 536.283 M83.1795 533.505 Q87.5371 533.505 89.8287 536.96 Q92.1377 540.398 92.1377 546.96 Q92.1377 553.505 89.8287 556.96 Q87.5371 560.398 83.1795 560.398 Q78.8218 560.398 76.5128 556.96 Q74.2212 553.505 74.2212 546.96 Q74.2212 540.398 76.5128 536.96 Q78.8218 533.505 83.1795 533.505 Z" fill="#000000" fill-rule="nonzero" fill-opacity="1" /><path clip-path="url(#clip790)" d="M56.0789 441.717 L68.3184 441.717 L68.3184 444.668 L51.8602 444.668 L51.8602 441.717 Q53.8567 439.651 57.2942 436.178 Q60.749 432.689 61.6344 431.682 Q63.3184 429.79 63.9782 428.488 Q64.6552 427.168 64.6552 425.901 Q64.6552 423.835 63.1969 422.533 Q61.756 421.231 59.4296 421.231 Q57.7803 421.231 55.94 421.804 Q54.1171 422.376 52.0338 423.54 L52.0338 419.998 Q54.1518 419.147 55.9921 418.713 Q57.8324 418.279 59.3601 418.279 Q63.3879 418.279 65.7837 420.293 Q68.1795 422.307 68.1795 425.675 Q68.1795 427.272 67.5719 428.713 Q66.9816 430.137 65.4018 432.081 Q64.9677 432.585 62.6414 434.998 Q60.315 437.394 56.0789 441.717 Z" fill="#000000" fill-rule="nonzero" fill-opacity="1" /><path clip-path="url(#clip790)" d="M83.1795 421.057 Q80.4711 421.057 79.0996 423.731 Q77.7455 426.387 77.7455 431.734 Q77.7455 437.064 79.0996 439.737 Q80.4711 442.394 83.1795 442.394 Q85.9051 442.394 87.2593 439.737 Q88.6308 437.064 88.6308 431.734 Q88.6308 426.387 87.2593 423.731 Q85.9051 421.057 83.1795 421.057 M83.1795 418.279 Q87.5371 418.279 89.8287 421.734 Q92.1377 425.172 92.1377 431.734 Q92.1377 438.279 89.8287 441.734 Q87.5371 445.171 83.1795 445.171 Q78.8218 445.171 76.5128 441.734 Q74.2212 438.279 74.2212 431.734 Q74.2212 425.172 76.5128 421.734 Q78.8218 418.279 83.1795 418.279 Z" fill="#000000" fill-rule="nonzero" fill-opacity="1" /><path clip-path="url(#clip790)" d="M63.683 315.466 Q66.2004 316.004 67.6066 317.706 Q69.0302 319.407 69.0302 321.907 Q69.0302 325.744 66.3913 327.845 Q63.7525 329.945 58.8914 329.945 Q57.2595 329.945 55.5234 329.615 Q53.8046 329.303 51.9643 328.661 L51.9643 325.275 Q53.4227 326.126 55.1588 326.56 Q56.8949 326.994 58.7872 326.994 Q62.0858 326.994 63.8046 325.692 Q65.5407 324.39 65.5407 321.907 Q65.5407 319.616 63.9261 318.331 Q62.3289 317.029 59.4643 317.029 L56.4435 317.029 L56.4435 314.147 L59.6032 314.147 Q62.19 314.147 63.5615 313.122 Q64.933 312.081 64.933 310.136 Q64.933 308.14 63.5094 307.081 Q62.1032 306.004 59.4643 306.004 Q58.0233 306.004 56.374 306.317 Q54.7247 306.629 52.7456 307.289 L52.7456 304.164 Q54.7421 303.609 56.4782 303.331 Q58.2317 303.053 59.7768 303.053 Q63.7698 303.053 66.0962 304.876 Q68.4226 306.682 68.4226 309.772 Q68.4226 311.925 67.19 313.418 Q65.9573 314.893 63.683 315.466 Z" fill="#000000" fill-rule="nonzero" fill-opacity="1" /><path clip-path="url(#clip790)" d="M83.1795 305.831 Q80.4711 305.831 79.0996 308.504 Q77.7455 311.161 77.7455 316.508 Q77.7455 321.838 79.0996 324.511 Q80.4711 327.168 83.1795 327.168 Q85.9051 327.168 87.2593 324.511 Q88.6308 321.838 88.6308 316.508 Q88.6308 311.161 87.2593 308.504 Q85.9051 305.831 83.1795 305.831 M83.1795 303.053 Q87.5371 303.053 89.8287 306.508 Q92.1377 309.945 92.1377 316.508 Q92.1377 323.053 89.8287 326.508 Q87.5371 329.945 83.1795 329.945 Q78.8218 329.945 76.5128 326.508 Q74.2212 323.053 74.2212 316.508 Q74.2212 309.945 76.5128 306.508 Q78.8218 303.053 83.1795 303.053 Z" fill="#000000" fill-rule="nonzero" fill-opacity="1" /><path clip-path="url(#clip790)" d="M62.6935 191.351 L53.8393 205.188 L62.6935 205.188 L62.6935 191.351 M61.7733 188.296 L66.183 188.296 L66.183 205.188 L69.8809 205.188 L69.8809 208.105 L66.183 208.105 L66.183 214.216 L62.6935 214.216 L62.6935 208.105 L50.9921 208.105 L50.9921 204.719 L61.7733 188.296 Z" fill="#000000" fill-rule="nonzero" fill-opacity="1" /><path clip-path="url(#clip790)" d="M83.1795 190.605 Q80.4711 190.605 79.0996 193.278 Q77.7455 195.935 77.7455 201.282 Q77.7455 206.612 79.0996 209.285 Q80.4711 211.941 83.1795 211.941 Q85.9051 211.941 87.2593 209.285 Q88.6308 206.612 88.6308 201.282 Q88.6308 195.935 87.2593 193.278 Q85.9051 190.605 83.1795 190.605 M83.1795 187.827 Q87.5371 187.827 89.8287 191.282 Q92.1377 194.719 92.1377 201.282 Q92.1377 207.827 89.8287 211.282 Q87.5371 214.719 83.1795 214.719 Q78.8218 214.719 76.5128 211.282 Q74.2212 207.827 74.2212 201.282 Q74.2212 194.719 76.5128 191.282 Q78.8218 187.827 83.1795 187.827 Z" fill="#000000" fill-rule="nonzero" fill-opacity="1" /><path clip-path="url(#clip790)" d="M130.221 20.1758 Q131.633 17.8147 135.128 15.7314 Q136.494 14.9212 140.707 14.9212 Q145.429 14.9212 148.369 18.6712 Q151.332 22.4212 151.332 28.5323 Q151.332 34.6433 148.369 38.3933 Q145.429 42.1433 140.707 42.1433 Q137.86 42.1433 135.8 41.0322 Q133.763 39.8979 132.42 37.5831 L132.42 51.3331 L128.138 51.3331 L128.138 28.7637 Q128.138 23.4165 130.221 20.1758 M146.911 28.5323 Q146.911 23.8332 144.966 21.1712 Q143.045 18.486 139.665 18.486 Q136.286 18.486 134.341 21.1712 Q132.42 23.8332 132.42 28.5323 Q132.42 33.2313 134.341 35.9165 Q136.286 38.5785 139.665 38.5785 Q143.045 38.5785 144.966 35.9165 Q146.911 33.2313 146.911 28.5323 Z" fill="#000000" fill-rule="nonzero" fill-opacity="1" /><path clip-path="url(#clip792)" d="M184.494 523.889 L184.494 662.16 L275.684 662.16 L275.684 523.889 L184.494 523.889 L184.494 523.889  Z" fill="#009af9" fill-rule="evenodd" fill-opacity="1"/>
<polyline clip-path="url(#clip792)" style="stroke:#000000; stroke-linecap:round; stroke-linejoin:round; stroke-width:4; stroke-opacity:1; fill:none" points="184.494,523.889 184.494,662.16 275.684,662.16 275.684,523.889 184.494,523.889 "/>
<path clip-path="url(#clip792)" d="M275.684 650.638 L275.684 662.16 L366.875 662.16 L366.875 650.638 L275.684 650.638 L275.684 650.638  Z" fill="#009af9" fill-rule="evenodd" fill-opacity="1"/>
<polyline clip-path="url(#clip792)" style="stroke:#000000; stroke-linecap:round; stroke-linejoin:round; stroke-width:4; stroke-opacity:1; fill:none" points="275.684,650.638 275.684,662.16 366.875,662.16 366.875,650.638 275.684,650.638 "/>
<path clip-path="url(#clip792)" d="M366.875 662.16 L366.875 662.16 L458.066 662.16 L458.066 662.16 L366.875 662.16 L366.875 662.16  Z" fill="#009af9" fill-rule="evenodd" fill-opacity="1"/>
<polyline clip-path="url(#clip792)" style="stroke:#000000; stroke-linecap:round; stroke-linejoin:round; stroke-width:4; stroke-opacity:1; fill:none" points="366.875,662.16 366.875,662.16 458.066,662.16 366.875,662.16 "/>
<path clip-path="url(#clip792)" d="M458.066 593.025 L458.066 662.16 L549.256 662.16 L549.256 593.025 L458.066 593.025 L458.066 593.025  Z" fill="#009af9" fill-rule="evenodd" fill-opacity="1"/>
<polyline clip-path="url(#clip792)" style="stroke:#000000; stroke-linecap:round; stroke-linejoin:round; stroke-width:4; stroke-opacity:1; fill:none" points="458.066,593.025 458.066,662.16 549.256,662.16 549.256,593.025 458.066,593.025 "/>
<path clip-path="url(#clip792)" d="M549.256 224.301 L549.256 662.16 L640.447 662.16 L640.447 224.301 L549.256 224.301 L549.256 224.301  Z" fill="#009af9" fill-rule="evenodd" fill-opacity="1"/>
<polyline clip-path="url(#clip792)" style="stroke:#000000; stroke-linecap:round; stroke-linejoin:round; stroke-width:4; stroke-opacity:1; fill:none" points="549.256,224.301 549.256,662.16 640.447,662.16 640.447,224.301 549.256,224.301 "/>
<path clip-path="url(#clip792)" d="M640.447 328.004 L640.447 662.16 L731.637 662.16 L731.637 328.004 L640.447 328.004 L640.447 328.004  Z" fill="#009af9" fill-rule="evenodd" fill-opacity="1"/>
<polyline clip-path="url(#clip792)" style="stroke:#000000; stroke-linecap:round; stroke-linejoin:round; stroke-width:4; stroke-opacity:1; fill:none" points="640.447,328.004 640.447,662.16 731.637,662.16 731.637,328.004 640.447,328.004 "/>
<path clip-path="url(#clip792)" d="M731.637 97.5521 L731.637 662.16 L822.828 662.16 L822.828 97.5521 L731.637 97.5521 L731.637 97.5521  Z" fill="#009af9" fill-rule="evenodd" fill-opacity="1"/>
<polyline clip-path="url(#clip792)" style="stroke:#000000; stroke-linecap:round; stroke-linejoin:round; stroke-width:4; stroke-opacity:1; fill:none" points="731.637,97.5521 731.637,662.16 822.828,662.16 822.828,97.5521 731.637,97.5521 "/>
<path clip-path="url(#clip792)" d="M822.828 166.688 L822.828 662.16 L914.019 662.16 L914.019 166.688 L822.828 166.688 L822.828 166.688  Z" fill="#009af9" fill-rule="evenodd" fill-opacity="1"/>
<polyline clip-path="url(#clip792)" style="stroke:#000000; stroke-linecap:round; stroke-linejoin:round; stroke-width:4; stroke-opacity:1; fill:none" points="822.828,166.688 822.828,662.16 914.019,662.16 914.019,166.688 822.828,166.688 "/>
<path clip-path="url(#clip792)" d="M914.019 420.185 L914.019 662.16 L1005.21 662.16 L1005.21 420.185 L914.019 420.185 L914.019 420.185  Z" fill="#009af9" fill-rule="evenodd" fill-opacity="1"/>
<polyline clip-path="url(#clip792)" style="stroke:#000000; stroke-linecap:round; stroke-linejoin:round; stroke-width:4; stroke-opacity:1; fill:none" points="914.019,420.185 914.019,662.16 1005.21,662.16 1005.21,420.185 914.019,420.185 "/>
<path clip-path="url(#clip792)" d="M1005.21 408.663 L1005.21 662.16 L1096.4 662.16 L1096.4 408.663 L1005.21 408.663 L1005.21 408.663  Z" fill="#009af9" fill-rule="evenodd" fill-opacity="1"/>
<polyline clip-path="url(#clip792)" style="stroke:#000000; stroke-linecap:round; stroke-linejoin:round; stroke-width:4; stroke-opacity:1; fill:none" points="1005.21,408.663 1005.21,662.16 1096.4,662.16 1096.4,408.663 1005.21,408.663 "/>
<circle clip-path="url(#clip792)" style="fill:#009af9; stroke:none; fill-opacity:0" cx="230.089" cy="523.889" r="2"/>
<circle clip-path="url(#clip792)" style="fill:#009af9; stroke:none; fill-opacity:0" cx="321.28" cy="650.638" r="2"/>
<circle clip-path="url(#clip792)" style="fill:#009af9; stroke:none; fill-opacity:0" cx="412.47" cy="662.16" r="2"/>
<circle clip-path="url(#clip792)" style="fill:#009af9; stroke:none; fill-opacity:0" cx="503.661" cy="593.025" r="2"/>
<circle clip-path="url(#clip792)" style="fill:#009af9; stroke:none; fill-opacity:0" cx="594.851" cy="224.301" r="2"/>
<circle clip-path="url(#clip792)" style="fill:#009af9; stroke:none; fill-opacity:0" cx="686.042" cy="328.004" r="2"/>
<circle clip-path="url(#clip792)" style="fill:#009af9; stroke:none; fill-opacity:0" cx="777.233" cy="97.5521" r="2"/>
<circle clip-path="url(#clip792)" style="fill:#009af9; stroke:none; fill-opacity:0" cx="868.423" cy="166.688" r="2"/>
<circle clip-path="url(#clip792)" style="fill:#009af9; stroke:none; fill-opacity:0" cx="959.614" cy="420.185" r="2"/>
<circle clip-path="url(#clip792)" style="fill:#009af9; stroke:none; fill-opacity:0" cx="1050.8" cy="408.663" r="2"/>
<polyline clip-path="url(#clip792)" style="stroke:#ff0000; stroke-linecap:round; stroke-linejoin:round; stroke-width:8; stroke-opacity:1; fill:none" stroke-dasharray="32, 20" points="853.557,1226.77 853.557,-467.056 "/>
<polyline clip-path="url(#clip792)" style="stroke:#ff0000; stroke-linecap:round; stroke-linejoin:round; stroke-width:6; stroke-opacity:1; fill:none" stroke-dasharray="24, 12, 3, 12" points="235.222,1226.77 235.222,-467.056 "/>
<polyline clip-path="url(#clip792)" style="stroke:#ff0000; stroke-linecap:round; stroke-linejoin:round; stroke-width:6; stroke-opacity:1; fill:none" stroke-dasharray="24, 12, 3, 12" points="1043.06,1226.77 1043.06,-467.056 "/>
<path clip-path="url(#clip790)" d="M1328.14 662.16 L2352.76 662.16 L2352.76 97.5521 L1328.14 97.5521  Z" fill="#ffffff" fill-rule="evenodd" fill-opacity="1"/>
<defs>
  <clipPath id="clip793">
    <rect x="1328" y="97" width="1026" height="566"/>
  </clipPath>
</defs>
<polyline clip-path="url(#clip793)" style="stroke:#000000; stroke-linecap:round; stroke-linejoin:round; stroke-width:2; stroke-opacity:0.1; fill:none" points="1384.49,662.16 1384.49,97.5521 "/>
<polyline clip-path="url(#clip793)" style="stroke:#000000; stroke-linecap:round; stroke-linejoin:round; stroke-width:2; stroke-opacity:0.1; fill:none" points="1612.47,662.16 1612.47,97.5521 "/>
<polyline clip-path="url(#clip793)" style="stroke:#000000; stroke-linecap:round; stroke-linejoin:round; stroke-width:2; stroke-opacity:0.1; fill:none" points="1840.45,662.16 1840.45,97.5521 "/>
<polyline clip-path="url(#clip793)" style="stroke:#000000; stroke-linecap:round; stroke-linejoin:round; stroke-width:2; stroke-opacity:0.1; fill:none" points="2068.42,662.16 2068.42,97.5521 "/>
<polyline clip-path="url(#clip793)" style="stroke:#000000; stroke-linecap:round; stroke-linejoin:round; stroke-width:2; stroke-opacity:0.1; fill:none" points="2296.4,662.16 2296.4,97.5521 "/>
<polyline clip-path="url(#clip793)" style="stroke:#000000; stroke-linecap:round; stroke-linejoin:round; stroke-width:2; stroke-opacity:0.1; fill:none" points="1328.14,662.16 2352.76,662.16 "/>
<polyline clip-path="url(#clip793)" style="stroke:#000000; stroke-linecap:round; stroke-linejoin:round; stroke-width:2; stroke-opacity:0.1; fill:none" points="1328.14,505.325 2352.76,505.325 "/>
<polyline clip-path="url(#clip793)" style="stroke:#000000; stroke-linecap:round; stroke-linejoin:round; stroke-width:2; stroke-opacity:0.1; fill:none" points="1328.14,348.489 2352.76,348.489 "/>
<polyline clip-path="url(#clip793)" style="stroke:#000000; stroke-linecap:round; stroke-linejoin:round; stroke-width:2; stroke-opacity:0.1; fill:none" points="1328.14,191.654 2352.76,191.654 "/>
<polyline clip-path="url(#clip790)" style="stroke:#000000; stroke-linecap:round; stroke-linejoin:round; stroke-width:4; stroke-opacity:1; fill:none" points="1328.14,662.16 2352.76,662.16 "/>
<polyline clip-path="url(#clip790)" style="stroke:#000000; stroke-linecap:round; stroke-linejoin:round; stroke-width:4; stroke-opacity:1; fill:none" points="1384.49,662.16 1384.49,643.263 "/>
<polyline clip-path="url(#clip790)" style="stroke:#000000; stroke-linecap:round; stroke-linejoin:round; stroke-width:4; stroke-opacity:1; fill:none" points="1612.47,662.16 1612.47,643.263 "/>
<polyline clip-path="url(#clip790)" style="stroke:#000000; stroke-linecap:round; stroke-linejoin:round; stroke-width:4; stroke-opacity:1; fill:none" points="1840.45,662.16 1840.45,643.263 "/>
<polyline clip-path="url(#clip790)" style="stroke:#000000; stroke-linecap:round; stroke-linejoin:round; stroke-width:4; stroke-opacity:1; fill:none" points="2068.42,662.16 2068.42,643.263 "/>
<polyline clip-path="url(#clip790)" style="stroke:#000000; stroke-linecap:round; stroke-linejoin:round; stroke-width:4; stroke-opacity:1; fill:none" points="2296.4,662.16 2296.4,643.263 "/>
<path clip-path="url(#clip790)" d="M1330.64 733.893 Q1328.73 735.808 1329.65 738.668 Q1330.57 741.504 1334.35 745.285 Q1338.12 749.054 1340.97 749.987 Q1343.82 750.895 1345.73 748.98 Q1347.66 747.053 1346.74 744.217 Q1345.82 741.357 1342.05 737.588 Q1338.27 733.807 1335.42 732.898 Q1332.57 731.966 1330.64 733.893 M1328.68 731.929 Q1331.76 728.847 1335.82 729.67 Q1339.89 730.468 1344.53 735.108 Q1349.16 739.736 1349.97 743.812 Q1350.78 747.863 1347.7 750.944 Q1344.61 754.026 1340.55 753.228 Q1336.49 752.405 1331.86 747.777 Q1327.22 743.137 1326.41 739.086 Q1325.6 735.01 1328.68 731.929 Z" fill="#000000" fill-rule="nonzero" fill-opacity="1" /><path clip-path="url(#clip790)" d="M1354.91 736.778 L1357.5 734.187 L1360.62 737.306 L1358.03 739.896 L1354.91 736.778 Z" fill="#000000" fill-rule="nonzero" fill-opacity="1" /><path clip-path="url(#clip790)" d="M1363.65 714.509 Q1365.82 713.109 1368.01 713.318 Q1370.22 713.515 1371.99 715.282 Q1374.7 717.995 1374.32 721.347 Q1373.94 724.698 1370.5 728.135 Q1369.35 729.289 1367.89 730.284 Q1366.45 731.278 1364.7 732.125 L1362.3 729.731 Q1363.94 729.302 1365.47 728.381 Q1367.01 727.46 1368.34 726.122 Q1370.68 723.79 1370.97 721.654 Q1371.28 719.505 1369.52 717.75 Q1367.9 716.129 1365.85 716.363 Q1363.8 716.571 1361.78 718.597 L1359.64 720.733 L1357.6 718.695 L1359.84 716.461 Q1361.67 714.632 1361.91 712.938 Q1362.14 711.231 1360.77 709.856 Q1359.36 708.445 1357.6 708.702 Q1355.85 708.936 1353.98 710.802 Q1352.96 711.82 1352.02 713.208 Q1351.07 714.595 1350.14 716.461 L1347.93 714.251 Q1348.95 712.447 1349.98 711.022 Q1351.02 709.586 1352.12 708.494 Q1354.94 705.67 1357.87 705.314 Q1360.79 704.946 1362.98 707.131 Q1364.5 708.653 1364.69 710.581 Q1364.86 712.496 1363.65 714.509 Z" fill="#000000" fill-rule="nonzero" fill-opacity="1" /><path clip-path="url(#clip790)" d="M1370.63 693.91 Q1368.71 695.825 1369.63 698.685 Q1370.55 701.521 1374.34 705.302 Q1378.1 709.071 1380.95 710.004 Q1383.8 710.912 1385.72 708.997 Q1387.64 707.07 1386.72 704.234 Q1385.8 701.373 1382.03 697.605 Q1378.25 693.824 1375.4 692.915 Q1372.56 691.982 1370.63 693.91 M1368.66 691.945 Q1371.74 688.864 1375.81 689.687 Q1379.87 690.485 1384.51 695.125 Q1389.14 699.753 1389.95 703.829 Q1390.76 707.88 1387.68 710.961 Q1384.6 714.042 1380.53 713.244 Q1376.47 712.422 1371.84 707.794 Q1367.2 703.154 1366.39 699.102 Q1365.58 695.027 1368.66 691.945 Z" fill="#000000" fill-rule="nonzero" fill-opacity="1" /><path clip-path="url(#clip790)" d="M1559.47 733.046 Q1557.55 734.961 1558.47 737.821 Q1559.39 740.657 1563.18 744.438 Q1566.94 748.207 1569.79 749.14 Q1572.64 750.048 1574.56 748.133 Q1576.48 746.206 1575.56 743.37 Q1574.64 740.51 1570.87 736.741 Q1567.09 732.96 1564.24 732.051 Q1561.4 731.118 1559.47 733.046 M1557.5 731.082 Q1560.59 728 1564.65 728.823 Q1568.71 729.621 1573.35 734.261 Q1577.98 738.889 1578.79 742.965 Q1579.6 747.016 1576.52 750.097 Q1573.44 753.179 1569.37 752.381 Q1565.31 751.558 1560.68 746.93 Q1556.04 742.29 1555.23 738.239 Q1554.42 734.163 1557.5 731.082 Z" fill="#000000" fill-rule="nonzero" fill-opacity="1" /><path clip-path="url(#clip790)" d="M1583.74 735.931 L1586.33 733.34 L1589.45 736.459 L1586.86 739.049 L1583.74 735.931 Z" fill="#000000" fill-rule="nonzero" fill-opacity="1" /><path clip-path="url(#clip790)" d="M1592.48 713.662 Q1594.64 712.262 1596.84 712.471 Q1599.05 712.667 1600.81 714.435 Q1603.53 717.148 1603.15 720.5 Q1602.77 723.851 1599.33 727.288 Q1598.17 728.442 1596.71 729.437 Q1595.28 730.431 1593.52 731.278 L1591.13 728.884 Q1592.76 728.455 1594.3 727.534 Q1595.83 726.613 1597.17 725.275 Q1599.5 722.943 1599.8 720.807 Q1600.1 718.658 1598.35 716.903 Q1596.73 715.282 1594.68 715.516 Q1592.63 715.724 1590.6 717.75 L1588.46 719.886 L1586.43 717.848 L1588.66 715.614 Q1590.49 713.785 1590.74 712.091 Q1590.97 710.384 1589.59 709.009 Q1588.18 707.597 1586.43 707.855 Q1584.67 708.088 1582.81 709.954 Q1581.79 710.973 1580.84 712.361 Q1579.9 713.748 1578.96 715.614 L1576.75 713.404 Q1577.77 711.599 1578.8 710.175 Q1579.85 708.739 1580.94 707.647 Q1583.76 704.823 1586.7 704.467 Q1589.62 704.099 1591.8 706.284 Q1593.33 707.806 1593.51 709.733 Q1593.68 711.649 1592.48 713.662 Z" fill="#000000" fill-rule="nonzero" fill-opacity="1" /><path clip-path="url(#clip790)" d="M1610.89 710.838 L1619.55 702.184 L1621.63 704.271 L1610 715.908 L1607.91 713.821 Q1607.86 710.949 1607.84 706.063 Q1607.81 701.153 1607.73 699.814 Q1607.58 697.286 1607.12 695.898 Q1606.67 694.487 1605.77 693.59 Q1604.31 692.13 1602.36 692.24 Q1600.42 692.338 1598.78 693.983 Q1597.61 695.149 1596.71 696.856 Q1595.83 698.55 1595.18 700.846 L1592.67 698.341 Q1593.57 696.242 1594.57 694.634 Q1595.56 693.026 1596.64 691.945 Q1599.49 689.097 1602.61 688.827 Q1605.72 688.557 1608.11 690.939 Q1609.24 692.068 1609.82 693.517 Q1610.41 694.941 1610.67 697.433 Q1610.72 698.096 1610.78 701.447 Q1610.83 704.786 1610.89 710.838 Z" fill="#000000" fill-rule="nonzero" fill-opacity="1" /><path clip-path="url(#clip790)" d="M1786.34 734.151 Q1784.42 736.066 1785.35 738.926 Q1786.27 741.762 1790.05 745.543 Q1793.82 749.312 1796.66 750.245 Q1799.51 751.153 1801.43 749.238 Q1803.35 747.311 1802.43 744.475 Q1801.51 741.615 1797.74 737.846 Q1793.96 734.065 1791.12 733.156 Q1788.27 732.223 1786.34 734.151 M1784.38 732.186 Q1787.46 729.105 1791.52 729.928 Q1795.58 730.726 1800.22 735.366 Q1804.85 739.994 1805.66 744.07 Q1806.47 748.121 1803.39 751.202 Q1800.31 754.283 1796.25 753.485 Q1792.18 752.663 1787.56 748.035 Q1782.91 743.395 1782.1 739.343 Q1781.29 735.268 1784.38 732.186 Z" fill="#000000" fill-rule="nonzero" fill-opacity="1" /><path clip-path="url(#clip790)" d="M1810.61 737.036 L1813.2 734.445 L1816.32 737.563 L1813.73 740.154 L1810.61 737.036 Z" fill="#000000" fill-rule="nonzero" fill-opacity="1" /><path clip-path="url(#clip790)" d="M1819.35 714.767 Q1821.51 713.367 1823.71 713.576 Q1825.92 713.772 1827.69 715.54 Q1830.4 718.253 1830.02 721.604 Q1829.64 724.956 1826.2 728.393 Q1825.05 729.547 1823.59 730.541 Q1822.15 731.536 1820.39 732.383 L1818 729.989 Q1819.63 729.559 1821.17 728.639 Q1822.7 727.718 1824.04 726.38 Q1826.37 724.047 1826.67 721.911 Q1826.97 719.763 1825.22 718.008 Q1823.6 716.387 1821.55 716.62 Q1819.5 716.829 1817.47 718.855 L1815.34 720.991 L1813.3 718.953 L1815.53 716.719 Q1817.36 714.889 1817.61 713.195 Q1817.84 711.489 1816.47 710.114 Q1815.05 708.702 1813.3 708.96 Q1811.54 709.193 1809.68 711.059 Q1808.66 712.078 1807.71 713.465 Q1806.77 714.853 1805.83 716.719 L1803.62 714.509 Q1804.64 712.704 1805.67 711.28 Q1806.72 709.844 1807.81 708.751 Q1810.63 705.928 1813.57 705.572 Q1816.49 705.204 1818.68 707.389 Q1820.2 708.911 1820.38 710.838 Q1820.55 712.753 1819.35 714.767 Z" fill="#000000" fill-rule="nonzero" fill-opacity="1" /><path clip-path="url(#clip790)" d="M1828.36 693.185 L1831.88 709.23 L1838.15 702.969 L1828.36 693.185 M1825.55 691.675 L1828.67 688.557 L1840.61 700.502 L1843.23 697.887 L1845.29 699.949 L1842.67 702.564 L1847 706.885 L1844.53 709.353 L1840.21 705.032 L1831.93 713.306 L1829.54 710.912 L1825.55 691.675 Z" fill="#000000" fill-rule="nonzero" fill-opacity="1" /><path clip-path="url(#clip790)" d="M2014.49 733.979 Q2012.57 735.894 2013.49 738.754 Q2014.41 741.59 2018.2 745.371 Q2021.96 749.14 2024.81 750.073 Q2027.66 750.981 2029.58 749.066 Q2031.5 747.139 2030.58 744.303 Q2029.66 741.443 2025.89 737.674 Q2022.11 733.893 2019.26 732.984 Q2016.42 732.051 2014.49 733.979 M2012.52 732.015 Q2015.61 728.933 2019.67 729.756 Q2023.73 730.554 2028.37 735.194 Q2033 739.822 2033.81 743.898 Q2034.62 747.949 2031.54 751.03 Q2028.46 754.112 2024.4 753.314 Q2020.33 752.491 2015.7 747.863 Q2011.06 743.223 2010.25 739.172 Q2009.44 735.096 2012.52 732.015 Z" fill="#000000" fill-rule="nonzero" fill-opacity="1" /><path clip-path="url(#clip790)" d="M2038.76 736.864 L2041.35 734.273 L2044.47 737.392 L2041.88 739.982 L2038.76 736.864 Z" fill="#000000" fill-rule="nonzero" fill-opacity="1" /><path clip-path="url(#clip790)" d="M2047.5 714.595 Q2049.66 713.195 2051.86 713.404 Q2054.07 713.6 2055.83 715.368 Q2058.55 718.081 2058.17 721.433 Q2057.79 724.784 2054.35 728.221 Q2053.19 729.375 2051.73 730.37 Q2050.3 731.364 2048.54 732.211 L2046.15 729.817 Q2047.78 729.388 2049.32 728.467 Q2050.85 727.546 2052.19 726.208 Q2054.52 723.876 2054.82 721.74 Q2055.12 719.591 2053.37 717.836 Q2051.75 716.215 2049.7 716.449 Q2047.65 716.657 2045.62 718.683 L2043.48 720.819 L2041.45 718.781 L2043.68 716.547 Q2045.51 714.718 2045.76 713.023 Q2045.99 711.317 2044.61 709.942 Q2043.2 708.53 2041.45 708.788 Q2039.69 709.021 2037.83 710.887 Q2036.81 711.906 2035.86 713.294 Q2034.92 714.681 2033.98 716.547 L2031.77 714.337 Q2032.79 712.532 2033.82 711.108 Q2034.87 709.672 2035.96 708.58 Q2038.78 705.756 2041.72 705.4 Q2044.64 705.032 2046.82 707.217 Q2048.35 708.739 2048.53 710.666 Q2048.7 712.582 2047.5 714.595 Z" fill="#000000" fill-rule="nonzero" fill-opacity="1" /><path clip-path="url(#clip790)" d="M2061.32 700.232 Q2059.65 701.901 2059.81 704.025 Q2059.98 706.137 2061.97 708.125 Q2063.95 710.102 2066.07 710.286 Q2068.2 710.446 2069.87 708.776 Q2071.54 707.106 2071.36 704.995 Q2071.19 702.859 2069.22 700.882 Q2067.23 698.894 2065.1 698.734 Q2062.99 698.562 2061.32 700.232 M2058.47 687.538 L2060.73 689.797 Q2059.36 690.288 2058.17 691.012 Q2056.99 691.724 2056.06 692.657 Q2053.6 695.113 2053.96 698.071 Q2054.32 701.017 2057.49 704.553 Q2057.15 702.761 2057.68 701.103 Q2058.19 699.434 2059.5 698.12 Q2062.27 695.358 2065.54 695.444 Q2068.82 695.506 2071.71 698.39 Q2074.53 701.214 2074.57 704.59 Q2074.6 707.966 2071.83 710.74 Q2068.65 713.92 2064.54 713.171 Q2060.41 712.41 2055.79 707.782 Q2051.44 703.436 2050.92 698.795 Q2050.4 694.143 2053.87 690.669 Q2054.8 689.736 2055.93 688.975 Q2057.07 688.201 2058.47 687.538 Z" fill="#000000" fill-rule="nonzero" fill-opacity="1" /><path clip-path="url(#clip790)" d="M2242.6 733.844 Q2240.69 735.759 2241.61 738.619 Q2242.53 741.455 2246.31 745.236 Q2250.08 749.005 2252.92 749.938 Q2255.77 750.846 2257.69 748.931 Q2259.61 747.004 2258.69 744.168 Q2257.77 741.308 2254 737.539 Q2250.22 733.758 2247.38 732.849 Q2244.53 731.916 2242.6 733.844 M2240.64 731.88 Q2243.72 728.798 2247.78 729.621 Q2251.84 730.419 2256.48 735.059 Q2261.11 739.687 2261.92 743.763 Q2262.73 747.814 2259.65 750.895 Q2256.57 753.977 2252.51 753.179 Q2248.44 752.356 2243.82 747.728 Q2239.18 743.088 2238.36 739.037 Q2237.55 734.961 2240.64 731.88 Z" fill="#000000" fill-rule="nonzero" fill-opacity="1" /><path clip-path="url(#clip790)" d="M2266.87 736.729 L2269.46 734.138 L2272.58 737.256 L2269.99 739.847 L2266.87 736.729 Z" fill="#000000" fill-rule="nonzero" fill-opacity="1" /><path clip-path="url(#clip790)" d="M2275.61 714.46 Q2277.77 713.06 2279.97 713.269 Q2282.18 713.465 2283.95 715.233 Q2286.66 717.946 2286.28 721.298 Q2285.9 724.649 2282.46 728.086 Q2281.31 729.24 2279.85 730.235 Q2278.41 731.229 2276.65 732.076 L2274.26 729.682 Q2275.89 729.252 2277.43 728.332 Q2278.96 727.411 2280.3 726.073 Q2282.63 723.741 2282.93 721.604 Q2283.23 719.456 2281.48 717.701 Q2279.86 716.08 2277.81 716.313 Q2275.76 716.522 2273.73 718.548 L2271.6 720.684 L2269.56 718.646 L2271.79 716.412 Q2273.62 714.583 2273.87 712.888 Q2274.1 711.182 2272.73 709.807 Q2271.31 708.395 2269.56 708.653 Q2267.8 708.886 2265.94 710.752 Q2264.92 711.771 2263.97 713.159 Q2263.03 714.546 2262.09 716.412 L2259.88 714.202 Q2260.9 712.397 2261.93 710.973 Q2262.98 709.537 2264.07 708.445 Q2266.89 705.621 2269.83 705.265 Q2272.75 704.897 2274.94 707.082 Q2276.46 708.604 2276.64 710.531 Q2276.81 712.447 2275.61 714.46 Z" fill="#000000" fill-rule="nonzero" fill-opacity="1" /><path clip-path="url(#clip790)" d="M2290.58 701.852 Q2288.81 703.62 2288.73 705.584 Q2288.67 707.536 2290.33 709.193 Q2291.99 710.851 2293.94 710.789 Q2295.9 710.716 2297.67 708.948 Q2299.44 707.18 2299.51 705.216 Q2299.57 703.239 2297.93 701.594 Q2296.27 699.937 2294.31 700.011 Q2292.36 700.072 2290.58 701.852 M2287.04 703.276 Q2285.05 704.479 2283.06 704.283 Q2281.09 704.074 2279.51 702.503 Q2277.32 700.305 2277.6 697.47 Q2277.89 694.622 2280.62 691.896 Q2283.36 689.159 2286.19 688.876 Q2289.03 688.594 2291.23 690.791 Q2292.8 692.363 2292.99 694.352 Q2293.2 696.328 2292.01 698.304 Q2294.22 696.93 2296.43 697.15 Q2298.65 697.359 2300.41 699.115 Q2303.07 701.779 2302.86 704.835 Q2302.67 707.88 2299.63 710.912 Q2296.6 713.944 2293.55 714.153 Q2290.5 714.349 2287.84 711.685 Q2286.08 709.93 2285.87 707.708 Q2285.66 705.486 2287.04 703.276 M2282.22 700.269 Q2283.64 701.693 2285.32 701.607 Q2287.02 701.509 2288.62 699.9 Q2290.22 698.304 2290.32 696.61 Q2290.43 694.904 2289 693.48 Q2287.58 692.056 2285.87 692.166 Q2284.18 692.265 2282.58 693.861 Q2280.98 695.469 2280.88 697.163 Q2280.79 698.845 2282.22 700.269 Z" fill="#000000" fill-rule="nonzero" fill-opacity="1" /><polyline clip-path="url(#clip790)" style="stroke:#000000; stroke-linecap:round; stroke-linejoin:round; stroke-width:4; stroke-opacity:1; fill:none" points="1328.14,662.16 1328.14,97.5521 "/>
<polyline clip-path="url(#clip790)" style="stroke:#000000; stroke-linecap:round; stroke-linejoin:round; stroke-width:4; stroke-opacity:1; fill:none" points="1328.14,662.16 1347.04,662.16 "/>
<polyline clip-path="url(#clip790)" style="stroke:#000000; stroke-linecap:round; stroke-linejoin:round; stroke-width:4; stroke-opacity:1; fill:none" points="1328.14,505.325 1347.04,505.325 "/>
<polyline clip-path="url(#clip790)" style="stroke:#000000; stroke-linecap:round; stroke-linejoin:round; stroke-width:4; stroke-opacity:1; fill:none" points="1328.14,348.489 1347.04,348.489 "/>
<polyline clip-path="url(#clip790)" style="stroke:#000000; stroke-linecap:round; stroke-linejoin:round; stroke-width:4; stroke-opacity:1; fill:none" points="1328.14,191.654 1347.04,191.654 "/>
<path clip-path="url(#clip790)" d="M1283.18 651.509 Q1280.47 651.509 1279.1 654.183 Q1277.75 656.839 1277.75 662.186 Q1277.75 667.516 1279.1 670.19 Q1280.47 672.846 1283.18 672.846 Q1285.91 672.846 1287.26 670.19 Q1288.63 667.516 1288.63 662.186 Q1288.63 656.839 1287.26 654.183 Q1285.91 651.509 1283.18 651.509 M1283.18 648.732 Q1287.54 648.732 1289.83 652.186 Q1292.14 655.624 1292.14 662.186 Q1292.14 668.732 1289.83 672.186 Q1287.54 675.624 1283.18 675.624 Q1278.82 675.624 1276.51 672.186 Q1274.22 668.732 1274.22 662.186 Q1274.22 655.624 1276.51 652.186 Q1278.82 648.732 1283.18 648.732 Z" fill="#000000" fill-rule="nonzero" fill-opacity="1" /><path clip-path="url(#clip790)" d="M1256.08 515.333 L1268.32 515.333 L1268.32 518.285 L1251.86 518.285 L1251.86 515.333 Q1253.86 513.267 1257.29 509.795 Q1260.75 506.306 1261.63 505.299 Q1263.32 503.406 1263.98 502.104 Q1264.66 500.785 1264.66 499.517 Q1264.66 497.452 1263.2 496.149 Q1261.76 494.847 1259.43 494.847 Q1257.78 494.847 1255.94 495.42 Q1254.12 495.993 1252.03 497.156 L1252.03 493.615 Q1254.15 492.764 1255.99 492.33 Q1257.83 491.896 1259.36 491.896 Q1263.39 491.896 1265.78 493.91 Q1268.18 495.924 1268.18 499.292 Q1268.18 500.889 1267.57 502.33 Q1266.98 503.754 1265.4 505.698 Q1264.97 506.201 1262.64 508.615 Q1260.31 511.01 1256.08 515.333 Z" fill="#000000" fill-rule="nonzero" fill-opacity="1" /><path clip-path="url(#clip790)" d="M1283.18 494.674 Q1280.47 494.674 1279.1 497.347 Q1277.75 500.004 1277.75 505.351 Q1277.75 510.681 1279.1 513.354 Q1280.47 516.01 1283.18 516.01 Q1285.91 516.01 1287.26 513.354 Q1288.63 510.681 1288.63 505.351 Q1288.63 500.004 1287.26 497.347 Q1285.91 494.674 1283.18 494.674 M1283.18 491.896 Q1287.54 491.896 1289.83 495.351 Q1292.14 498.788 1292.14 505.351 Q1292.14 511.896 1289.83 515.351 Q1287.54 518.788 1283.18 518.788 Q1278.82 518.788 1276.51 515.351 Q1274.22 511.896 1274.22 505.351 Q1274.22 498.788 1276.51 495.351 Q1278.82 491.896 1283.18 491.896 Z" fill="#000000" fill-rule="nonzero" fill-opacity="1" /><path clip-path="url(#clip790)" d="M1262.69 338.585 L1253.84 352.421 L1262.69 352.421 L1262.69 338.585 M1261.77 335.529 L1266.18 335.529 L1266.18 352.421 L1269.88 352.421 L1269.88 355.338 L1266.18 355.338 L1266.18 361.449 L1262.69 361.449 L1262.69 355.338 L1250.99 355.338 L1250.99 351.953 L1261.77 335.529 Z" fill="#000000" fill-rule="nonzero" fill-opacity="1" /><path clip-path="url(#clip790)" d="M1283.18 337.838 Q1280.47 337.838 1279.1 340.512 Q1277.75 343.168 1277.75 348.515 Q1277.75 353.845 1279.1 356.519 Q1280.47 359.175 1283.18 359.175 Q1285.91 359.175 1287.26 356.519 Q1288.63 353.845 1288.63 348.515 Q1288.63 343.168 1287.26 340.512 Q1285.91 337.838 1283.18 337.838 M1283.18 335.06 Q1287.54 335.06 1289.83 338.515 Q1292.14 341.953 1292.14 348.515 Q1292.14 355.06 1289.83 358.515 Q1287.54 361.953 1283.18 361.953 Q1278.82 361.953 1276.51 358.515 Q1274.22 355.06 1274.22 348.515 Q1274.22 341.953 1276.51 338.515 Q1278.82 335.06 1283.18 335.06 Z" fill="#000000" fill-rule="nonzero" fill-opacity="1" /><path clip-path="url(#clip790)" d="M1260.99 190.256 Q1258.63 190.256 1257.24 191.871 Q1255.87 193.485 1255.87 196.298 Q1255.87 199.093 1257.24 200.725 Q1258.63 202.339 1260.99 202.339 Q1263.35 202.339 1264.72 200.725 Q1266.11 199.093 1266.11 196.298 Q1266.11 193.485 1264.72 191.871 Q1263.35 190.256 1260.99 190.256 M1267.95 179.266 L1267.95 182.461 Q1266.63 181.836 1265.28 181.506 Q1263.94 181.176 1262.62 181.176 Q1259.15 181.176 1257.31 183.52 Q1255.49 185.864 1255.23 190.603 Q1256.25 189.093 1257.8 188.294 Q1259.34 187.478 1261.2 187.478 Q1265.11 187.478 1267.36 189.857 Q1269.64 192.218 1269.64 196.298 Q1269.64 200.291 1267.28 202.704 Q1264.92 205.117 1260.99 205.117 Q1256.5 205.117 1254.12 201.679 Q1251.74 198.225 1251.74 191.68 Q1251.74 185.534 1254.66 181.888 Q1257.57 178.225 1262.49 178.225 Q1263.8 178.225 1265.14 178.485 Q1266.5 178.746 1267.95 179.266 Z" fill="#000000" fill-rule="nonzero" fill-opacity="1" /><path clip-path="url(#clip790)" d="M1283.18 181.003 Q1280.47 181.003 1279.1 183.676 Q1277.75 186.332 1277.75 191.68 Q1277.75 197.009 1279.1 199.683 Q1280.47 202.339 1283.18 202.339 Q1285.91 202.339 1287.26 199.683 Q1288.63 197.009 1288.63 191.68 Q1288.63 186.332 1287.26 183.676 Q1285.91 181.003 1283.18 181.003 M1283.18 178.225 Q1287.54 178.225 1289.83 181.68 Q1292.14 185.117 1292.14 191.68 Q1292.14 198.225 1289.83 201.679 Q1287.54 205.117 1283.18 205.117 Q1278.82 205.117 1276.51 201.679 Q1274.22 198.225 1274.22 191.68 Q1274.22 185.117 1276.51 181.68 Q1278.82 178.225 1283.18 178.225 Z" fill="#000000" fill-rule="nonzero" fill-opacity="1" /><path clip-path="url(#clip790)" d="M1340.04 18.9258 Q1336.52 18.9258 1334.62 21.4721 Q1332.63 24.1341 1332.63 28.5323 Q1332.63 33.185 1334.6 35.8702 Q1336.59 38.5322 1340.04 38.5322 Q1343.44 38.5322 1345.43 35.847 Q1347.42 33.1619 1347.42 28.5323 Q1347.42 24.2962 1345.43 21.4721 Q1343.6 18.9258 1340.04 18.9258 M1340.04 15.5462 L1354.18 15.5462 L1354.18 19.8054 L1349.41 19.8054 Q1351.93 23.4165 1351.93 28.5323 Q1351.93 34.898 1348.76 38.5091 Q1345.59 42.1433 1340.04 42.1433 Q1334.46 42.1433 1331.31 38.5091 Q1328.14 34.898 1328.14 28.5323 Q1328.14 22.1203 1331.31 18.5323 Q1333.92 15.5462 1340.04 15.5462 Z" fill="#000000" fill-rule="nonzero" fill-opacity="1" /><path clip-path="url(#clip790)" d="M1378.35 19.6666 Q1377.49 19.3656 1376.63 19.1342 Q1374.34 18.5323 1371.89 18.5323 Q1367.65 18.5323 1365.29 20.824 Q1363.09 22.9536 1362.67 26.8656 L1378.35 26.8656 L1378.35 30.1989 L1362.67 30.1989 Q1363.09 34.1109 1365.29 36.2405 Q1367.65 38.5322 1371.89 38.5322 Q1374.85 38.5322 1376.63 37.9304 L1378.35 37.3517 L1378.35 41.2174 L1376.52 41.634 Q1374.11 42.1433 1371.63 42.1433 Q1365.43 42.1433 1361.82 38.5322 Q1358.18 34.9211 1358.18 28.5323 Q1358.18 22.1434 1361.82 18.5323 Q1365.43 14.9212 1371.63 14.9212 Q1373.97 14.9212 1376.52 15.4305 Q1377.44 15.6157 1378.35 15.8934 L1378.35 19.6666 Z" fill="#000000" fill-rule="nonzero" fill-opacity="1" /><path clip-path="url(#clip793)" d="M1384.49 575.901 L1384.49 662.16 L1498.48 662.16 L1498.48 575.901 L1384.49 575.901 L1384.49 575.901  Z" fill="#009af9" fill-rule="evenodd" fill-opacity="1"/>
<polyline clip-path="url(#clip793)" style="stroke:#000000; stroke-linecap:round; stroke-linejoin:round; stroke-width:4; stroke-opacity:1; fill:none" points="1384.49,575.901 1384.49,662.16 1498.48,662.16 1498.48,575.901 1384.49,575.901 "/>
<path clip-path="url(#clip793)" d="M1498.48 528.85 L1498.48 662.16 L1612.47 662.16 L1612.47 528.85 L1498.48 528.85 L1498.48 528.85  Z" fill="#009af9" fill-rule="evenodd" fill-opacity="1"/>
<polyline clip-path="url(#clip793)" style="stroke:#000000; stroke-linecap:round; stroke-linejoin:round; stroke-width:4; stroke-opacity:1; fill:none" points="1498.48,528.85 1498.48,662.16 1612.47,662.16 1612.47,528.85 1498.48,528.85 "/>
<path clip-path="url(#clip793)" d="M1612.47 97.5521 L1612.47 662.16 L1726.46 662.16 L1726.46 97.5521 L1612.47 97.5521 L1612.47 97.5521  Z" fill="#009af9" fill-rule="evenodd" fill-opacity="1"/>
<polyline clip-path="url(#clip793)" style="stroke:#000000; stroke-linecap:round; stroke-linejoin:round; stroke-width:4; stroke-opacity:1; fill:none" points="1612.47,97.5521 1612.47,662.16 1726.46,662.16 1726.46,97.5521 1612.47,97.5521 "/>
<path clip-path="url(#clip793)" d="M1726.46 332.806 L1726.46 662.16 L1840.45 662.16 L1840.45 332.806 L1726.46 332.806 L1726.46 332.806  Z" fill="#009af9" fill-rule="evenodd" fill-opacity="1"/>
<polyline clip-path="url(#clip793)" style="stroke:#000000; stroke-linecap:round; stroke-linejoin:round; stroke-width:4; stroke-opacity:1; fill:none" points="1726.46,332.806 1726.46,662.16 1840.45,662.16 1840.45,332.806 1726.46,332.806 "/>
<path clip-path="url(#clip793)" d="M1840.45 160.286 L1840.45 662.16 L1954.44 662.16 L1954.44 160.286 L1840.45 160.286 L1840.45 160.286  Z" fill="#009af9" fill-rule="evenodd" fill-opacity="1"/>
<polyline clip-path="url(#clip793)" style="stroke:#000000; stroke-linecap:round; stroke-linejoin:round; stroke-width:4; stroke-opacity:1; fill:none" points="1840.45,160.286 1840.45,662.16 1954.44,662.16 1954.44,160.286 1840.45,160.286 "/>
<path clip-path="url(#clip793)" d="M1954.44 646.477 L1954.44 662.16 L2068.42 662.16 L2068.42 646.477 L1954.44 646.477 L1954.44 646.477  Z" fill="#009af9" fill-rule="evenodd" fill-opacity="1"/>
<polyline clip-path="url(#clip793)" style="stroke:#000000; stroke-linecap:round; stroke-linejoin:round; stroke-width:4; stroke-opacity:1; fill:none" points="1954.44,646.477 1954.44,662.16 2068.42,662.16 2068.42,646.477 1954.44,646.477 "/>
<path clip-path="url(#clip793)" d="M2068.42 575.901 L2068.42 662.16 L2182.41 662.16 L2182.41 575.901 L2068.42 575.901 L2068.42 575.901  Z" fill="#009af9" fill-rule="evenodd" fill-opacity="1"/>
<polyline clip-path="url(#clip793)" style="stroke:#000000; stroke-linecap:round; stroke-linejoin:round; stroke-width:4; stroke-opacity:1; fill:none" points="2068.42,575.901 2068.42,662.16 2182.41,662.16 2182.41,575.901 2068.42,575.901 "/>
<path clip-path="url(#clip793)" d="M2182.41 646.477 L2182.41 662.16 L2296.4 662.16 L2296.4 646.477 L2182.41 646.477 L2182.41 646.477  Z" fill="#009af9" fill-rule="evenodd" fill-opacity="1"/>
<polyline clip-path="url(#clip793)" style="stroke:#000000; stroke-linecap:round; stroke-linejoin:round; stroke-width:4; stroke-opacity:1; fill:none" points="2182.41,646.477 2182.41,662.16 2296.4,662.16 2296.4,646.477 2182.41,646.477 "/>
<circle clip-path="url(#clip793)" style="fill:#009af9; stroke:none; fill-opacity:0" cx="1441.49" cy="575.901" r="2"/>
<circle clip-path="url(#clip793)" style="fill:#009af9; stroke:none; fill-opacity:0" cx="1555.48" cy="528.85" r="2"/>
<circle clip-path="url(#clip793)" style="fill:#009af9; stroke:none; fill-opacity:0" cx="1669.46" cy="97.5521" r="2"/>
<circle clip-path="url(#clip793)" style="fill:#009af9; stroke:none; fill-opacity:0" cx="1783.45" cy="332.806" r="2"/>
<circle clip-path="url(#clip793)" style="fill:#009af9; stroke:none; fill-opacity:0" cx="1897.44" cy="160.286" r="2"/>
<circle clip-path="url(#clip793)" style="fill:#009af9; stroke:none; fill-opacity:0" cx="2011.43" cy="646.477" r="2"/>
<circle clip-path="url(#clip793)" style="fill:#009af9; stroke:none; fill-opacity:0" cx="2125.42" cy="575.901" r="2"/>
<circle clip-path="url(#clip793)" style="fill:#009af9; stroke:none; fill-opacity:0" cx="2239.41" cy="646.477" r="2"/>
<polyline clip-path="url(#clip793)" style="stroke:#ff0000; stroke-linecap:round; stroke-linejoin:round; stroke-width:8; stroke-opacity:1; fill:none" stroke-dasharray="32, 20" points="1714.48,1226.77 1714.48,-467.056 "/>
<polyline clip-path="url(#clip793)" style="stroke:#ff0000; stroke-linecap:round; stroke-linejoin:round; stroke-width:6; stroke-opacity:1; fill:none" stroke-dasharray="24, 12, 3, 12" points="1475.93,1226.77 1475.93,-467.056 "/>
<polyline clip-path="url(#clip793)" style="stroke:#ff0000; stroke-linecap:round; stroke-linejoin:round; stroke-width:6; stroke-opacity:1; fill:none" stroke-dasharray="24, 12, 3, 12" points="2178.44,1226.77 2178.44,-467.056 "/>
<path clip-path="url(#clip790)" d="M128.138 1456.91 L1152.76 1456.91 L1152.76 892.306 L128.138 892.306  Z" fill="#ffffff" fill-rule="evenodd" fill-opacity="1"/>
<defs>
  <clipPath id="clip794">
    <rect x="128" y="892" width="1026" height="566"/>
  </clipPath>
</defs>
<polyline clip-path="url(#clip794)" style="stroke:#000000; stroke-linecap:round; stroke-linejoin:round; stroke-width:2; stroke-opacity:0.1; fill:none" points="184.494,1456.91 184.494,892.306 "/>
<polyline clip-path="url(#clip794)" style="stroke:#000000; stroke-linecap:round; stroke-linejoin:round; stroke-width:2; stroke-opacity:0.1; fill:none" points="366.875,1456.91 366.875,892.306 "/>
<polyline clip-path="url(#clip794)" style="stroke:#000000; stroke-linecap:round; stroke-linejoin:round; stroke-width:2; stroke-opacity:0.1; fill:none" points="549.256,1456.91 549.256,892.306 "/>
<polyline clip-path="url(#clip794)" style="stroke:#000000; stroke-linecap:round; stroke-linejoin:round; stroke-width:2; stroke-opacity:0.1; fill:none" points="731.637,1456.91 731.637,892.306 "/>
<polyline clip-path="url(#clip794)" style="stroke:#000000; stroke-linecap:round; stroke-linejoin:round; stroke-width:2; stroke-opacity:0.1; fill:none" points="914.019,1456.91 914.019,892.306 "/>
<polyline clip-path="url(#clip794)" style="stroke:#000000; stroke-linecap:round; stroke-linejoin:round; stroke-width:2; stroke-opacity:0.1; fill:none" points="1096.4,1456.91 1096.4,892.306 "/>
<polyline clip-path="url(#clip794)" style="stroke:#000000; stroke-linecap:round; stroke-linejoin:round; stroke-width:2; stroke-opacity:0.1; fill:none" points="128.138,1456.91 1152.76,1456.91 "/>
<polyline clip-path="url(#clip794)" style="stroke:#000000; stroke-linecap:round; stroke-linejoin:round; stroke-width:2; stroke-opacity:0.1; fill:none" points="128.138,1367.29 1152.76,1367.29 "/>
<polyline clip-path="url(#clip794)" style="stroke:#000000; stroke-linecap:round; stroke-linejoin:round; stroke-width:2; stroke-opacity:0.1; fill:none" points="128.138,1277.67 1152.76,1277.67 "/>
<polyline clip-path="url(#clip794)" style="stroke:#000000; stroke-linecap:round; stroke-linejoin:round; stroke-width:2; stroke-opacity:0.1; fill:none" points="128.138,1188.05 1152.76,1188.05 "/>
<polyline clip-path="url(#clip794)" style="stroke:#000000; stroke-linecap:round; stroke-linejoin:round; stroke-width:2; stroke-opacity:0.1; fill:none" points="128.138,1098.43 1152.76,1098.43 "/>
<polyline clip-path="url(#clip794)" style="stroke:#000000; stroke-linecap:round; stroke-linejoin:round; stroke-width:2; stroke-opacity:0.1; fill:none" points="128.138,1008.81 1152.76,1008.81 "/>
<polyline clip-path="url(#clip794)" style="stroke:#000000; stroke-linecap:round; stroke-linejoin:round; stroke-width:2; stroke-opacity:0.1; fill:none" points="128.138,919.192 1152.76,919.192 "/>
<polyline clip-path="url(#clip790)" style="stroke:#000000; stroke-linecap:round; stroke-linejoin:round; stroke-width:4; stroke-opacity:1; fill:none" points="128.138,1456.91 1152.76,1456.91 "/>
<polyline clip-path="url(#clip790)" style="stroke:#000000; stroke-linecap:round; stroke-linejoin:round; stroke-width:4; stroke-opacity:1; fill:none" points="184.494,1456.91 184.494,1438.02 "/>
<polyline clip-path="url(#clip790)" style="stroke:#000000; stroke-linecap:round; stroke-linejoin:round; stroke-width:4; stroke-opacity:1; fill:none" points="366.875,1456.91 366.875,1438.02 "/>
<polyline clip-path="url(#clip790)" style="stroke:#000000; stroke-linecap:round; stroke-linejoin:round; stroke-width:4; stroke-opacity:1; fill:none" points="549.256,1456.91 549.256,1438.02 "/>
<polyline clip-path="url(#clip790)" style="stroke:#000000; stroke-linecap:round; stroke-linejoin:round; stroke-width:4; stroke-opacity:1; fill:none" points="731.637,1456.91 731.637,1438.02 "/>
<polyline clip-path="url(#clip790)" style="stroke:#000000; stroke-linecap:round; stroke-linejoin:round; stroke-width:4; stroke-opacity:1; fill:none" points="914.019,1456.91 914.019,1438.02 "/>
<polyline clip-path="url(#clip790)" style="stroke:#000000; stroke-linecap:round; stroke-linejoin:round; stroke-width:4; stroke-opacity:1; fill:none" points="1096.4,1456.91 1096.4,1438.02 "/>
<path clip-path="url(#clip790)" d="M115.177 1544.11 Q113.262 1546.03 114.182 1548.89 Q115.103 1551.73 118.884 1555.51 Q122.653 1559.28 125.501 1560.21 Q128.349 1561.12 130.264 1559.2 Q132.191 1557.27 131.271 1554.44 Q130.35 1551.58 126.581 1547.81 Q122.8 1544.03 119.952 1543.12 Q117.104 1542.19 115.177 1544.11 M113.212 1542.15 Q116.294 1539.07 120.357 1539.89 Q124.42 1540.69 129.061 1545.33 Q133.689 1549.96 134.499 1554.03 Q135.309 1558.08 132.228 1561.17 Q129.147 1564.25 125.083 1563.45 Q121.02 1562.63 116.392 1558 Q111.752 1553.36 110.941 1549.31 Q110.131 1545.23 113.212 1542.15 Z" fill="#000000" fill-rule="nonzero" fill-opacity="1" /><path clip-path="url(#clip790)" d="M139.446 1547 L142.037 1544.41 L145.155 1547.53 L142.565 1550.12 L139.446 1547 Z" fill="#000000" fill-rule="nonzero" fill-opacity="1" /><path clip-path="url(#clip790)" d="M132.253 1523.77 L141.988 1514.04 L144.075 1516.13 L136.611 1523.59 L141.104 1528.08 Q141.46 1527.36 141.914 1526.73 Q142.356 1526.09 142.896 1525.55 Q145.965 1522.48 149.439 1522.37 Q152.913 1522.26 155.786 1525.14 Q158.744 1528.09 158.548 1531.58 Q158.339 1535.05 154.988 1538.41 Q153.834 1539.56 152.435 1540.57 Q151.047 1541.56 149.378 1542.45 L146.886 1539.95 Q148.592 1539.45 150.065 1538.57 Q151.538 1537.68 152.852 1536.37 Q154.976 1534.24 155.098 1531.89 Q155.221 1529.53 153.306 1527.62 Q151.391 1525.7 149.034 1525.82 Q146.677 1525.95 144.553 1528.07 Q143.559 1529.06 142.786 1530.28 Q142.024 1531.48 141.46 1532.98 L132.253 1523.77 Z" fill="#000000" fill-rule="nonzero" fill-opacity="1" /><path clip-path="url(#clip790)" d="M166.601 1521.91 L175.256 1513.25 L177.343 1515.34 L165.705 1526.98 L163.618 1524.89 Q163.569 1522.02 163.544 1517.13 Q163.52 1512.22 163.434 1510.88 Q163.287 1508.35 162.832 1506.97 Q162.378 1505.56 161.482 1504.66 Q160.021 1503.2 158.069 1503.31 Q156.13 1503.41 154.485 1505.05 Q153.318 1506.22 152.422 1507.92 Q151.538 1509.62 150.888 1511.91 L148.383 1509.41 Q149.28 1507.31 150.274 1505.7 Q151.268 1504.09 152.349 1503.01 Q155.197 1500.17 158.315 1499.9 Q161.433 1499.63 163.814 1502.01 Q164.944 1503.14 165.533 1504.59 Q166.122 1506.01 166.38 1508.5 Q166.429 1509.16 166.491 1512.52 Q166.54 1515.86 166.601 1521.91 Z" fill="#000000" fill-rule="nonzero" fill-opacity="1" /><path clip-path="url(#clip790)" d="M164.244 1491.78 L173.979 1482.05 L176.066 1484.13 L168.602 1491.6 L173.095 1496.09 Q173.451 1495.37 173.905 1494.74 Q174.347 1494.1 174.888 1493.56 Q177.957 1490.49 181.431 1490.38 Q184.905 1490.27 187.777 1493.14 Q190.736 1496.1 190.54 1499.59 Q190.331 1503.06 186.979 1506.41 Q185.826 1507.57 184.426 1508.58 Q183.039 1509.57 181.369 1510.45 L178.877 1507.96 Q180.584 1507.46 182.057 1506.57 Q183.53 1505.69 184.843 1504.38 Q186.967 1502.25 187.09 1499.9 Q187.213 1497.54 185.298 1495.62 Q183.383 1493.71 181.026 1493.83 Q178.669 1493.95 176.545 1496.08 Q175.55 1497.07 174.777 1498.29 Q174.016 1499.49 173.451 1500.99 L164.244 1491.78 Z" fill="#000000" fill-rule="nonzero" fill-opacity="1" /><path clip-path="url(#clip790)" d="M297.03 1544.64 Q295.115 1546.56 296.036 1549.42 Q296.956 1552.25 300.737 1556.03 Q304.506 1559.8 307.354 1560.74 Q310.202 1561.65 312.117 1559.73 Q314.045 1557.8 313.124 1554.97 Q312.203 1552.11 308.435 1548.34 Q304.653 1544.56 301.805 1543.65 Q298.957 1542.72 297.03 1544.64 M295.066 1542.68 Q298.147 1539.6 302.211 1540.42 Q306.274 1541.22 310.914 1545.86 Q315.542 1550.49 316.353 1554.56 Q317.163 1558.61 314.082 1561.69 Q311 1564.78 306.937 1563.98 Q302.873 1563.15 298.245 1558.53 Q293.605 1553.89 292.795 1549.84 Q291.985 1545.76 295.066 1542.68 Z" fill="#000000" fill-rule="nonzero" fill-opacity="1" /><path clip-path="url(#clip790)" d="M321.3 1547.53 L323.89 1544.94 L327.008 1548.06 L324.418 1550.65 L321.3 1547.53 Z" fill="#000000" fill-rule="nonzero" fill-opacity="1" /><path clip-path="url(#clip790)" d="M314.106 1524.3 L323.841 1514.57 L325.928 1516.65 L318.464 1524.12 L322.957 1528.61 Q323.313 1527.89 323.767 1527.26 Q324.209 1526.62 324.749 1526.08 Q327.818 1523.01 331.293 1522.9 Q334.767 1522.79 337.639 1525.66 Q340.598 1528.62 340.401 1532.11 Q340.193 1535.58 336.841 1538.93 Q335.687 1540.09 334.288 1541.09 Q332.901 1542.09 331.231 1542.97 L328.739 1540.48 Q330.446 1539.98 331.919 1539.09 Q333.392 1538.21 334.705 1536.9 Q336.829 1534.77 336.952 1532.42 Q337.075 1530.06 335.16 1528.14 Q333.245 1526.23 330.887 1526.35 Q328.53 1526.47 326.407 1528.6 Q325.412 1529.59 324.639 1530.81 Q323.878 1532.01 323.313 1533.51 L314.106 1524.3 Z" fill="#000000" fill-rule="nonzero" fill-opacity="1" /><path clip-path="url(#clip790)" d="M346.036 1509.26 Q348.197 1507.86 350.394 1508.07 Q352.604 1508.27 354.372 1510.04 Q357.085 1512.75 356.704 1516.1 Q356.324 1519.45 352.886 1522.89 Q351.732 1524.04 350.271 1525.04 Q348.835 1526.03 347.08 1526.88 L344.686 1524.49 Q346.319 1524.06 347.853 1523.13 Q349.388 1522.21 350.726 1520.88 Q353.058 1518.54 353.353 1516.41 Q353.66 1514.26 351.904 1512.5 Q350.284 1510.88 348.234 1511.12 Q346.184 1511.33 344.158 1513.35 L342.022 1515.49 L339.984 1513.45 L342.218 1511.21 Q344.047 1509.39 344.293 1507.69 Q344.526 1505.99 343.151 1504.61 Q341.74 1503.2 339.984 1503.46 Q338.229 1503.69 336.363 1505.56 Q335.344 1506.57 334.398 1507.96 Q333.453 1509.35 332.52 1511.21 L330.311 1509.01 Q331.329 1507.2 332.361 1505.78 Q333.404 1504.34 334.497 1503.25 Q337.32 1500.42 340.254 1500.07 Q343.176 1499.7 345.361 1501.88 Q346.883 1503.41 347.067 1505.33 Q347.239 1507.25 346.036 1509.26 Z" fill="#000000" fill-rule="nonzero" fill-opacity="1" /><path clip-path="url(#clip790)" d="M353.009 1488.66 Q351.094 1490.58 352.015 1493.44 Q352.935 1496.27 356.716 1500.06 Q360.485 1503.82 363.333 1504.76 Q366.181 1505.67 368.096 1503.75 Q370.024 1501.82 369.103 1498.99 Q368.182 1496.13 364.414 1492.36 Q360.632 1488.58 357.784 1487.67 Q354.936 1486.74 353.009 1488.66 M351.045 1486.7 Q354.126 1483.62 358.19 1484.44 Q362.253 1485.24 366.893 1489.88 Q371.521 1494.51 372.332 1498.58 Q373.142 1502.63 370.061 1505.72 Q366.979 1508.8 362.916 1508 Q358.852 1507.18 354.224 1502.55 Q349.584 1497.91 348.774 1493.86 Q347.964 1489.78 351.045 1486.7 Z" fill="#000000" fill-rule="nonzero" fill-opacity="1" /><path clip-path="url(#clip790)" d="M479.939 1544.11 Q478.024 1546.03 478.945 1548.89 Q479.866 1551.73 483.647 1555.51 Q487.415 1559.28 490.263 1560.21 Q493.111 1561.12 495.027 1559.2 Q496.954 1557.27 496.033 1554.44 Q495.112 1551.58 491.344 1547.81 Q487.563 1544.03 484.715 1543.12 Q481.867 1542.19 479.939 1544.11 M477.975 1542.15 Q481.056 1539.07 485.12 1539.89 Q489.183 1540.69 493.823 1545.33 Q498.452 1549.96 499.262 1554.03 Q500.072 1558.08 496.991 1561.17 Q493.909 1564.25 489.846 1563.45 Q485.783 1562.63 481.155 1558 Q476.514 1553.36 475.704 1549.31 Q474.894 1545.23 477.975 1542.15 Z" fill="#000000" fill-rule="nonzero" fill-opacity="1" /><path clip-path="url(#clip790)" d="M504.209 1547 L506.799 1544.41 L509.917 1547.53 L507.327 1550.12 L504.209 1547 Z" fill="#000000" fill-rule="nonzero" fill-opacity="1" /><path clip-path="url(#clip790)" d="M497.015 1523.77 L506.75 1514.04 L508.837 1516.13 L501.373 1523.59 L505.866 1528.08 Q506.222 1527.36 506.677 1526.73 Q507.118 1526.09 507.659 1525.55 Q510.728 1522.48 514.202 1522.37 Q517.676 1522.26 520.549 1525.14 Q523.507 1528.09 523.311 1531.58 Q523.102 1535.05 519.751 1538.41 Q518.597 1539.56 517.197 1540.57 Q515.81 1541.56 514.14 1542.45 L511.648 1539.95 Q513.355 1539.45 514.828 1538.57 Q516.301 1537.68 517.615 1536.37 Q519.738 1534.24 519.861 1531.89 Q519.984 1529.53 518.069 1527.62 Q516.154 1525.7 513.797 1525.82 Q511.44 1525.95 509.316 1528.07 Q508.322 1529.06 507.548 1530.28 Q506.787 1531.48 506.222 1532.98 L497.015 1523.77 Z" fill="#000000" fill-rule="nonzero" fill-opacity="1" /><path clip-path="url(#clip790)" d="M528.945 1508.74 Q531.106 1507.34 533.303 1507.54 Q535.513 1507.74 537.281 1509.51 Q539.994 1512.22 539.613 1515.57 Q539.233 1518.92 535.795 1522.36 Q534.641 1523.52 533.181 1524.51 Q531.744 1525.5 529.989 1526.35 L527.595 1523.96 Q529.228 1523.53 530.762 1522.61 Q532.297 1521.69 533.635 1520.35 Q535.967 1518.02 536.262 1515.88 Q536.569 1513.73 534.813 1511.98 Q533.193 1510.36 531.143 1510.59 Q529.093 1510.8 527.067 1512.82 L524.931 1514.96 L522.893 1512.92 L525.128 1510.69 Q526.957 1508.86 527.202 1507.16 Q527.435 1505.46 526.06 1504.08 Q524.649 1502.67 522.893 1502.93 Q521.138 1503.16 519.272 1505.03 Q518.253 1506.05 517.308 1507.43 Q516.362 1508.82 515.429 1510.69 L513.22 1508.48 Q514.239 1506.67 515.27 1505.25 Q516.313 1503.81 517.406 1502.72 Q520.229 1499.9 523.163 1499.54 Q526.085 1499.17 528.27 1501.36 Q529.792 1502.88 529.977 1504.81 Q530.148 1506.72 528.945 1508.74 Z" fill="#000000" fill-rule="nonzero" fill-opacity="1" /><path clip-path="url(#clip790)" d="M529.007 1491.78 L538.742 1482.05 L540.829 1484.13 L533.365 1491.6 L537.858 1496.09 Q538.214 1495.37 538.668 1494.74 Q539.11 1494.1 539.65 1493.56 Q542.719 1490.49 546.193 1490.38 Q549.667 1490.27 552.54 1493.14 Q555.499 1496.1 555.302 1499.59 Q555.093 1503.06 551.742 1506.41 Q550.588 1507.57 549.189 1508.58 Q547.801 1509.57 546.132 1510.45 L543.64 1507.96 Q545.346 1507.46 546.819 1506.57 Q548.292 1505.69 549.606 1504.38 Q551.73 1502.25 551.853 1499.9 Q551.975 1497.54 550.06 1495.62 Q548.145 1493.71 545.788 1493.83 Q543.431 1493.95 541.307 1496.08 Q540.313 1497.07 539.54 1498.29 Q538.779 1499.49 538.214 1500.99 L529.007 1491.78 Z" fill="#000000" fill-rule="nonzero" fill-opacity="1" /><path clip-path="url(#clip790)" d="M661.793 1544.64 Q659.878 1546.56 660.798 1549.42 Q661.719 1552.25 665.5 1556.03 Q669.269 1559.8 672.117 1560.74 Q674.965 1561.65 676.88 1559.73 Q678.807 1557.8 677.887 1554.97 Q676.966 1552.11 673.197 1548.34 Q669.416 1544.56 666.568 1543.65 Q663.72 1542.72 661.793 1544.64 M659.828 1542.68 Q662.91 1539.6 666.973 1540.42 Q671.037 1541.22 675.677 1545.86 Q680.305 1550.49 681.115 1554.56 Q681.925 1558.61 678.844 1561.69 Q675.763 1564.78 671.699 1563.98 Q667.636 1563.15 663.008 1558.53 Q658.368 1553.89 657.557 1549.84 Q656.747 1545.76 659.828 1542.68 Z" fill="#000000" fill-rule="nonzero" fill-opacity="1" /><path clip-path="url(#clip790)" d="M686.062 1547.53 L688.653 1544.94 L691.771 1548.06 L689.181 1550.65 L686.062 1547.53 Z" fill="#000000" fill-rule="nonzero" fill-opacity="1" /><path clip-path="url(#clip790)" d="M678.869 1524.3 L688.604 1514.57 L690.691 1516.65 L683.227 1524.12 L687.72 1528.61 Q688.076 1527.89 688.53 1527.26 Q688.972 1526.62 689.512 1526.08 Q692.581 1523.01 696.055 1522.9 Q699.529 1522.79 702.402 1525.66 Q705.36 1528.62 705.164 1532.11 Q704.955 1535.58 701.604 1538.93 Q700.45 1540.09 699.051 1541.09 Q697.663 1542.09 695.994 1542.97 L693.502 1540.48 Q695.208 1539.98 696.681 1539.09 Q698.154 1538.21 699.468 1536.9 Q701.592 1534.77 701.714 1532.42 Q701.837 1530.06 699.922 1528.14 Q698.007 1526.23 695.65 1526.35 Q693.293 1526.47 691.169 1528.6 Q690.175 1529.59 689.402 1530.81 Q688.64 1532.01 688.076 1533.51 L678.869 1524.3 Z" fill="#000000" fill-rule="nonzero" fill-opacity="1" /><path clip-path="url(#clip790)" d="M703.814 1503.68 L707.337 1519.72 L713.598 1513.46 L703.814 1503.68 M701.002 1502.17 L704.121 1499.05 L716.065 1510.99 L718.68 1508.38 L720.742 1510.44 L718.128 1513.06 L722.449 1517.38 L719.981 1519.84 L715.66 1515.52 L707.386 1523.8 L704.992 1521.4 L701.002 1502.17 Z" fill="#000000" fill-rule="nonzero" fill-opacity="1" /><path clip-path="url(#clip790)" d="M717.772 1488.66 Q715.857 1490.58 716.777 1493.44 Q717.698 1496.27 721.479 1500.06 Q725.248 1503.82 728.096 1504.76 Q730.944 1505.67 732.859 1503.75 Q734.786 1501.82 733.866 1498.99 Q732.945 1496.13 729.176 1492.36 Q725.395 1488.58 722.547 1487.67 Q719.699 1486.74 717.772 1488.66 M715.807 1486.7 Q718.889 1483.62 722.952 1484.44 Q727.016 1485.24 731.656 1489.88 Q736.284 1494.51 737.094 1498.58 Q737.904 1502.63 734.823 1505.72 Q731.742 1508.8 727.678 1508 Q723.615 1507.18 718.987 1502.55 Q714.347 1497.91 713.536 1493.86 Q712.726 1489.78 715.807 1486.7 Z" fill="#000000" fill-rule="nonzero" fill-opacity="1" /><path clip-path="url(#clip790)" d="M844.702 1544.11 Q842.787 1546.03 843.707 1548.89 Q844.628 1551.73 848.409 1555.51 Q852.178 1559.28 855.026 1560.21 Q857.874 1561.12 859.789 1559.2 Q861.716 1557.27 860.796 1554.44 Q859.875 1551.58 856.106 1547.81 Q852.325 1544.03 849.477 1543.12 Q846.629 1542.19 844.702 1544.11 M842.738 1542.15 Q845.819 1539.07 849.882 1539.89 Q853.946 1540.69 858.586 1545.33 Q863.214 1549.96 864.024 1554.03 Q864.835 1558.08 861.753 1561.17 Q858.672 1564.25 854.609 1563.45 Q850.545 1562.63 845.917 1558 Q841.277 1553.36 840.467 1549.31 Q839.656 1545.23 842.738 1542.15 Z" fill="#000000" fill-rule="nonzero" fill-opacity="1" /><path clip-path="url(#clip790)" d="M868.972 1547 L871.562 1544.41 L874.68 1547.53 L872.09 1550.12 L868.972 1547 Z" fill="#000000" fill-rule="nonzero" fill-opacity="1" /><path clip-path="url(#clip790)" d="M861.778 1523.77 L871.513 1514.04 L873.6 1516.13 L866.136 1523.59 L870.629 1528.08 Q870.985 1527.36 871.439 1526.73 Q871.881 1526.09 872.421 1525.55 Q875.49 1522.48 878.964 1522.37 Q882.439 1522.26 885.311 1525.14 Q888.27 1528.09 888.073 1531.58 Q887.865 1535.05 884.513 1538.41 Q883.359 1539.56 881.96 1540.57 Q880.573 1541.56 878.903 1542.45 L876.411 1539.95 Q878.117 1539.45 879.59 1538.57 Q881.064 1537.68 882.377 1536.37 Q884.501 1534.24 884.624 1531.89 Q884.746 1529.53 882.831 1527.62 Q880.916 1525.7 878.559 1525.82 Q876.202 1525.95 874.079 1528.07 Q873.084 1529.06 872.311 1530.28 Q871.55 1531.48 870.985 1532.98 L861.778 1523.77 Z" fill="#000000" fill-rule="nonzero" fill-opacity="1" /><path clip-path="url(#clip790)" d="M886.723 1503.15 L890.246 1519.19 L896.507 1512.93 L886.723 1503.15 M883.912 1501.64 L887.03 1498.52 L898.974 1510.47 L901.589 1507.85 L903.652 1509.91 L901.037 1512.53 L905.358 1516.85 L902.89 1519.32 L898.569 1515 L890.295 1523.27 L887.901 1520.88 L883.912 1501.64 Z" fill="#000000" fill-rule="nonzero" fill-opacity="1" /><path clip-path="url(#clip790)" d="M893.769 1491.78 L903.504 1482.05 L905.591 1484.13 L898.127 1491.6 L902.62 1496.09 Q902.976 1495.37 903.431 1494.74 Q903.873 1494.1 904.413 1493.56 Q907.482 1490.49 910.956 1490.38 Q914.43 1490.27 917.303 1493.14 Q920.261 1496.1 920.065 1499.59 Q919.856 1503.06 916.505 1506.41 Q915.351 1507.57 913.951 1508.58 Q912.564 1509.57 910.895 1510.45 L908.402 1507.96 Q910.109 1507.46 911.582 1506.57 Q913.055 1505.69 914.369 1504.38 Q916.492 1502.25 916.615 1499.9 Q916.738 1497.54 914.823 1495.62 Q912.908 1493.71 910.551 1493.83 Q908.194 1493.95 906.07 1496.08 Q905.076 1497.07 904.302 1498.29 Q903.541 1499.49 902.976 1500.99 L893.769 1491.78 Z" fill="#000000" fill-rule="nonzero" fill-opacity="1" /><path clip-path="url(#clip790)" d="M1026.56 1544.64 Q1024.64 1546.56 1025.56 1549.42 Q1026.48 1552.25 1030.26 1556.03 Q1034.03 1559.8 1036.88 1560.74 Q1039.73 1561.65 1041.64 1559.73 Q1043.57 1557.8 1042.65 1554.97 Q1041.73 1552.11 1037.96 1548.34 Q1034.18 1544.56 1031.33 1543.65 Q1028.48 1542.72 1026.56 1544.64 M1024.59 1542.68 Q1027.67 1539.6 1031.74 1540.42 Q1035.8 1541.22 1040.44 1545.86 Q1045.07 1550.49 1045.88 1554.56 Q1046.69 1558.61 1043.61 1561.69 Q1040.53 1564.78 1036.46 1563.98 Q1032.4 1563.15 1027.77 1558.53 Q1023.13 1553.89 1022.32 1549.84 Q1021.51 1545.76 1024.59 1542.68 Z" fill="#000000" fill-rule="nonzero" fill-opacity="1" /><path clip-path="url(#clip790)" d="M1050.83 1547.53 L1053.42 1544.94 L1056.53 1548.06 L1053.94 1550.65 L1050.83 1547.53 Z" fill="#000000" fill-rule="nonzero" fill-opacity="1" /><path clip-path="url(#clip790)" d="M1043.63 1524.3 L1053.37 1514.57 L1055.45 1516.65 L1047.99 1524.12 L1052.48 1528.61 Q1052.84 1527.89 1053.29 1527.26 Q1053.73 1526.62 1054.27 1526.08 Q1057.34 1523.01 1060.82 1522.9 Q1064.29 1522.79 1067.16 1525.66 Q1070.12 1528.62 1069.93 1532.11 Q1069.72 1535.58 1066.37 1538.93 Q1065.21 1540.09 1063.81 1541.09 Q1062.43 1542.09 1060.76 1542.97 L1058.26 1540.48 Q1059.97 1539.98 1061.44 1539.09 Q1062.92 1538.21 1064.23 1536.9 Q1066.35 1534.77 1066.48 1532.42 Q1066.6 1530.06 1064.68 1528.14 Q1062.77 1526.23 1060.41 1526.35 Q1058.06 1526.47 1055.93 1528.6 Q1054.94 1529.59 1054.16 1530.81 Q1053.4 1532.01 1052.84 1533.51 L1043.63 1524.3 Z" fill="#000000" fill-rule="nonzero" fill-opacity="1" /><path clip-path="url(#clip790)" d="M1059.63 1508.31 L1069.36 1498.57 L1071.45 1500.66 L1063.99 1508.12 L1068.48 1512.61 Q1068.83 1511.89 1069.29 1511.26 Q1069.73 1510.63 1070.27 1510.09 Q1073.34 1507.02 1076.81 1506.91 Q1080.29 1506.8 1083.16 1509.67 Q1086.12 1512.63 1085.92 1516.11 Q1085.71 1519.59 1082.36 1522.94 Q1081.21 1524.09 1079.81 1525.1 Q1078.42 1526.09 1076.75 1526.98 L1074.26 1524.49 Q1075.97 1523.98 1077.44 1523.1 Q1078.91 1522.21 1080.23 1520.9 Q1082.35 1518.78 1082.47 1516.42 Q1082.6 1514.06 1080.68 1512.15 Q1078.77 1510.23 1076.41 1510.36 Q1074.05 1510.48 1071.93 1512.6 Q1070.93 1513.6 1070.16 1514.81 Q1069.4 1516.01 1068.83 1517.51 L1059.63 1508.31 Z" fill="#000000" fill-rule="nonzero" fill-opacity="1" /><path clip-path="url(#clip790)" d="M1082.53 1488.66 Q1080.62 1490.58 1081.54 1493.44 Q1082.46 1496.27 1086.24 1500.06 Q1090.01 1503.82 1092.86 1504.76 Q1095.71 1505.67 1097.62 1503.75 Q1099.55 1501.82 1098.63 1498.99 Q1097.71 1496.13 1093.94 1492.36 Q1090.16 1488.58 1087.31 1487.67 Q1084.46 1486.74 1082.53 1488.66 M1080.57 1486.7 Q1083.65 1483.62 1087.71 1484.44 Q1091.78 1485.24 1096.42 1489.88 Q1101.05 1494.51 1101.86 1498.58 Q1102.67 1502.63 1099.59 1505.72 Q1096.5 1508.8 1092.44 1508 Q1088.38 1507.18 1083.75 1502.55 Q1079.11 1497.91 1078.3 1493.86 Q1077.49 1489.78 1080.57 1486.7 Z" fill="#000000" fill-rule="nonzero" fill-opacity="1" /><polyline clip-path="url(#clip790)" style="stroke:#000000; stroke-linecap:round; stroke-linejoin:round; stroke-width:4; stroke-opacity:1; fill:none" points="128.138,1456.91 128.138,892.306 "/>
<polyline clip-path="url(#clip790)" style="stroke:#000000; stroke-linecap:round; stroke-linejoin:round; stroke-width:4; stroke-opacity:1; fill:none" points="128.138,1456.91 147.035,1456.91 "/>
<polyline clip-path="url(#clip790)" style="stroke:#000000; stroke-linecap:round; stroke-linejoin:round; stroke-width:4; stroke-opacity:1; fill:none" points="128.138,1367.29 147.035,1367.29 "/>
<polyline clip-path="url(#clip790)" style="stroke:#000000; stroke-linecap:round; stroke-linejoin:round; stroke-width:4; stroke-opacity:1; fill:none" points="128.138,1277.67 147.035,1277.67 "/>
<polyline clip-path="url(#clip790)" style="stroke:#000000; stroke-linecap:round; stroke-linejoin:round; stroke-width:4; stroke-opacity:1; fill:none" points="128.138,1188.05 147.035,1188.05 "/>
<polyline clip-path="url(#clip790)" style="stroke:#000000; stroke-linecap:round; stroke-linejoin:round; stroke-width:4; stroke-opacity:1; fill:none" points="128.138,1098.43 147.035,1098.43 "/>
<polyline clip-path="url(#clip790)" style="stroke:#000000; stroke-linecap:round; stroke-linejoin:round; stroke-width:4; stroke-opacity:1; fill:none" points="128.138,1008.81 147.035,1008.81 "/>
<polyline clip-path="url(#clip790)" style="stroke:#000000; stroke-linecap:round; stroke-linejoin:round; stroke-width:4; stroke-opacity:1; fill:none" points="128.138,919.192 147.035,919.192 "/>
<path clip-path="url(#clip790)" d="M83.1795 1446.26 Q80.4711 1446.26 79.0996 1448.94 Q77.7455 1451.59 77.7455 1456.94 Q77.7455 1462.27 79.0996 1464.94 Q80.4711 1467.6 83.1795 1467.6 Q85.9051 1467.6 87.2593 1464.94 Q88.6308 1462.27 88.6308 1456.94 Q88.6308 1451.59 87.2593 1448.94 Q85.9051 1446.26 83.1795 1446.26 M83.1795 1443.49 Q87.5371 1443.49 89.8287 1446.94 Q92.1377 1450.38 92.1377 1456.94 Q92.1377 1463.49 89.8287 1466.94 Q87.5371 1470.38 83.1795 1470.38 Q78.8218 1470.38 76.5128 1466.94 Q74.2212 1463.49 74.2212 1456.94 Q74.2212 1450.38 76.5128 1446.94 Q78.8218 1443.49 83.1795 1443.49 Z" fill="#000000" fill-rule="nonzero" fill-opacity="1" /><path clip-path="url(#clip790)" d="M53.6657 1377.3 L59.3949 1377.3 L59.3949 1357.53 L53.1623 1358.78 L53.1623 1355.58 L59.3601 1354.33 L62.8671 1354.33 L62.8671 1377.3 L68.5962 1377.3 L68.5962 1380.25 L53.6657 1380.25 L53.6657 1377.3 Z" fill="#000000" fill-rule="nonzero" fill-opacity="1" /><path clip-path="url(#clip790)" d="M83.1795 1356.64 Q80.4711 1356.64 79.0996 1359.32 Q77.7455 1361.97 77.7455 1367.32 Q77.7455 1372.65 79.0996 1375.32 Q80.4711 1377.98 83.1795 1377.98 Q85.9051 1377.98 87.2593 1375.32 Q88.6308 1372.65 88.6308 1367.32 Q88.6308 1361.97 87.2593 1359.32 Q85.9051 1356.64 83.1795 1356.64 M83.1795 1353.87 Q87.5371 1353.87 89.8287 1357.32 Q92.1377 1360.76 92.1377 1367.32 Q92.1377 1373.87 89.8287 1377.32 Q87.5371 1380.76 83.1795 1380.76 Q78.8218 1380.76 76.5128 1377.32 Q74.2212 1373.87 74.2212 1367.32 Q74.2212 1360.76 76.5128 1357.32 Q78.8218 1353.87 83.1795 1353.87 Z" fill="#000000" fill-rule="nonzero" fill-opacity="1" /><path clip-path="url(#clip790)" d="M56.0789 1287.68 L68.3184 1287.68 L68.3184 1290.63 L51.8602 1290.63 L51.8602 1287.68 Q53.8567 1285.62 57.2942 1282.14 Q60.749 1278.65 61.6344 1277.65 Q63.3184 1275.76 63.9782 1274.45 Q64.6552 1273.13 64.6552 1271.87 Q64.6552 1269.8 63.1969 1268.5 Q61.756 1267.2 59.4296 1267.2 Q57.7803 1267.2 55.94 1267.77 Q54.1171 1268.34 52.0338 1269.51 L52.0338 1265.96 Q54.1518 1265.11 55.9921 1264.68 Q57.8324 1264.24 59.3601 1264.24 Q63.3879 1264.24 65.7837 1266.26 Q68.1795 1268.27 68.1795 1271.64 Q68.1795 1273.24 67.5719 1274.68 Q66.9816 1276.1 65.4018 1278.05 Q64.9677 1278.55 62.6414 1280.96 Q60.315 1283.36 56.0789 1287.68 Z" fill="#000000" fill-rule="nonzero" fill-opacity="1" /><path clip-path="url(#clip790)" d="M83.1795 1267.02 Q80.4711 1267.02 79.0996 1269.7 Q77.7455 1272.35 77.7455 1277.7 Q77.7455 1283.03 79.0996 1285.7 Q80.4711 1288.36 83.1795 1288.36 Q85.9051 1288.36 87.2593 1285.7 Q88.6308 1283.03 88.6308 1277.7 Q88.6308 1272.35 87.2593 1269.7 Q85.9051 1267.02 83.1795 1267.02 M83.1795 1264.24 Q87.5371 1264.24 89.8287 1267.7 Q92.1377 1271.14 92.1377 1277.7 Q92.1377 1284.24 89.8287 1287.7 Q87.5371 1291.14 83.1795 1291.14 Q78.8218 1291.14 76.5128 1287.7 Q74.2212 1284.24 74.2212 1277.7 Q74.2212 1271.14 76.5128 1267.7 Q78.8218 1264.24 83.1795 1264.24 Z" fill="#000000" fill-rule="nonzero" fill-opacity="1" /><path clip-path="url(#clip790)" d="M63.683 1187.04 Q66.2004 1187.58 67.6066 1189.28 Q69.0302 1190.98 69.0302 1193.48 Q69.0302 1197.32 66.3913 1199.42 Q63.7525 1201.52 58.8914 1201.52 Q57.2595 1201.52 55.5234 1201.19 Q53.8046 1200.87 51.9643 1200.23 L51.9643 1196.85 Q53.4227 1197.7 55.1588 1198.13 Q56.8949 1198.57 58.7872 1198.57 Q62.0858 1198.57 63.8046 1197.26 Q65.5407 1195.96 65.5407 1193.48 Q65.5407 1191.19 63.9261 1189.9 Q62.3289 1188.6 59.4643 1188.6 L56.4435 1188.6 L56.4435 1185.72 L59.6032 1185.72 Q62.19 1185.72 63.5615 1184.69 Q64.933 1183.65 64.933 1181.71 Q64.933 1179.71 63.5094 1178.65 Q62.1032 1177.58 59.4643 1177.58 Q58.0233 1177.58 56.374 1177.89 Q54.7247 1178.2 52.7456 1178.86 L52.7456 1175.74 Q54.7421 1175.18 56.4782 1174.9 Q58.2317 1174.62 59.7768 1174.62 Q63.7698 1174.62 66.0962 1176.45 Q68.4226 1178.25 68.4226 1181.34 Q68.4226 1183.5 67.19 1184.99 Q65.9573 1186.46 63.683 1187.04 Z" fill="#000000" fill-rule="nonzero" fill-opacity="1" /><path clip-path="url(#clip790)" d="M83.1795 1177.4 Q80.4711 1177.4 79.0996 1180.08 Q77.7455 1182.73 77.7455 1188.08 Q77.7455 1193.41 79.0996 1196.08 Q80.4711 1198.74 83.1795 1198.74 Q85.9051 1198.74 87.2593 1196.08 Q88.6308 1193.41 88.6308 1188.08 Q88.6308 1182.73 87.2593 1180.08 Q85.9051 1177.4 83.1795 1177.4 M83.1795 1174.62 Q87.5371 1174.62 89.8287 1178.08 Q92.1377 1181.52 92.1377 1188.08 Q92.1377 1194.62 89.8287 1198.08 Q87.5371 1201.52 83.1795 1201.52 Q78.8218 1201.52 76.5128 1198.08 Q74.2212 1194.62 74.2212 1188.08 Q74.2212 1181.52 76.5128 1178.08 Q78.8218 1174.62 83.1795 1174.62 Z" fill="#000000" fill-rule="nonzero" fill-opacity="1" /><path clip-path="url(#clip790)" d="M62.6935 1088.53 L53.8393 1102.37 L62.6935 1102.37 L62.6935 1088.53 M61.7733 1085.47 L66.183 1085.47 L66.183 1102.37 L69.8809 1102.37 L69.8809 1105.28 L66.183 1105.28 L66.183 1111.39 L62.6935 1111.39 L62.6935 1105.28 L50.9921 1105.28 L50.9921 1101.9 L61.7733 1085.47 Z" fill="#000000" fill-rule="nonzero" fill-opacity="1" /><path clip-path="url(#clip790)" d="M83.1795 1087.78 Q80.4711 1087.78 79.0996 1090.46 Q77.7455 1093.11 77.7455 1098.46 Q77.7455 1103.79 79.0996 1106.46 Q80.4711 1109.12 83.1795 1109.12 Q85.9051 1109.12 87.2593 1106.46 Q88.6308 1103.79 88.6308 1098.46 Q88.6308 1093.11 87.2593 1090.46 Q85.9051 1087.78 83.1795 1087.78 M83.1795 1085 Q87.5371 1085 89.8287 1088.46 Q92.1377 1091.9 92.1377 1098.46 Q92.1377 1105 89.8287 1108.46 Q87.5371 1111.9 83.1795 1111.9 Q78.8218 1111.9 76.5128 1108.46 Q74.2212 1105 74.2212 1098.46 Q74.2212 1091.9 76.5128 1088.46 Q78.8218 1085 83.1795 1085 Z" fill="#000000" fill-rule="nonzero" fill-opacity="1" /><path clip-path="url(#clip790)" d="M53.0928 995.853 L66.8601 995.853 L66.8601 998.804 L56.3046 998.804 L56.3046 1005.16 Q57.0685 1004.9 57.8324 1004.78 Q58.5963 1004.64 59.3601 1004.64 Q63.7004 1004.64 66.2351 1007.02 Q68.7698 1009.39 68.7698 1013.46 Q68.7698 1017.64 66.1657 1019.97 Q63.5615 1022.28 58.8219 1022.28 Q57.19 1022.28 55.4886 1022 Q53.8046 1021.72 51.9991 1021.16 L51.9991 1017.64 Q53.5616 1018.49 55.2282 1018.91 Q56.8949 1019.32 58.7525 1019.32 Q61.756 1019.32 63.5094 1017.74 Q65.2629 1016.16 65.2629 1013.46 Q65.2629 1010.75 63.5094 1009.17 Q61.756 1007.59 58.7525 1007.59 Q57.3463 1007.59 55.94 1007.9 Q54.5511 1008.21 53.0928 1008.87 L53.0928 995.853 Z" fill="#000000" fill-rule="nonzero" fill-opacity="1" /><path clip-path="url(#clip790)" d="M83.1795 998.162 Q80.4711 998.162 79.0996 1000.84 Q77.7455 1003.49 77.7455 1008.84 Q77.7455 1014.17 79.0996 1016.84 Q80.4711 1019.5 83.1795 1019.5 Q85.9051 1019.5 87.2593 1016.84 Q88.6308 1014.17 88.6308 1008.84 Q88.6308 1003.49 87.2593 1000.84 Q85.9051 998.162 83.1795 998.162 M83.1795 995.384 Q87.5371 995.384 89.8287 998.839 Q92.1377 1002.28 92.1377 1008.84 Q92.1377 1015.38 89.8287 1018.84 Q87.5371 1022.28 83.1795 1022.28 Q78.8218 1022.28 76.5128 1018.84 Q74.2212 1015.38 74.2212 1008.84 Q74.2212 1002.28 76.5128 998.839 Q78.8218 995.384 83.1795 995.384 Z" fill="#000000" fill-rule="nonzero" fill-opacity="1" /><path clip-path="url(#clip790)" d="M60.9921 917.795 Q58.631 917.795 57.2421 919.409 Q55.8706 921.024 55.8706 923.836 Q55.8706 926.631 57.2421 928.263 Q58.631 929.878 60.9921 929.878 Q63.3532 929.878 64.7247 928.263 Q66.1136 926.631 66.1136 923.836 Q66.1136 921.024 64.7247 919.409 Q63.3532 917.795 60.9921 917.795 M67.9538 906.805 L67.9538 910 Q66.6344 909.375 65.2802 909.045 Q63.9434 908.715 62.624 908.715 Q59.1518 908.715 57.3115 911.059 Q55.4886 913.402 55.2282 918.142 Q56.2525 916.631 57.7976 915.833 Q59.3428 915.017 61.2004 915.017 Q65.1066 915.017 67.3636 917.395 Q69.6379 919.756 69.6379 923.836 Q69.6379 927.829 67.2768 930.243 Q64.9157 932.656 60.9921 932.656 Q56.4956 932.656 54.1171 929.218 Q51.7386 925.763 51.7386 919.218 Q51.7386 913.072 54.6553 909.427 Q57.572 905.764 62.4851 905.764 Q63.8046 905.764 65.1414 906.024 Q66.4955 906.284 67.9538 906.805 Z" fill="#000000" fill-rule="nonzero" fill-opacity="1" /><path clip-path="url(#clip790)" d="M83.1795 908.541 Q80.4711 908.541 79.0996 911.215 Q77.7455 913.871 77.7455 919.218 Q77.7455 924.548 79.0996 927.222 Q80.4711 929.878 83.1795 929.878 Q85.9051 929.878 87.2593 927.222 Q88.6308 924.548 88.6308 919.218 Q88.6308 913.871 87.2593 911.215 Q85.9051 908.541 83.1795 908.541 M83.1795 905.764 Q87.5371 905.764 89.8287 909.218 Q92.1377 912.656 92.1377 919.218 Q92.1377 925.763 89.8287 929.218 Q87.5371 932.656 83.1795 932.656 Q78.8218 932.656 76.5128 929.218 Q74.2212 925.763 74.2212 919.218 Q74.2212 912.656 76.5128 909.218 Q78.8218 905.764 83.1795 905.764 Z" fill="#000000" fill-rule="nonzero" fill-opacity="1" /><path clip-path="url(#clip790)" d="M140.036 813.68 Q136.517 813.68 134.619 816.226 Q132.628 818.888 132.628 823.286 Q132.628 827.939 134.596 830.624 Q136.587 833.286 140.036 833.286 Q143.439 833.286 145.429 830.601 Q147.42 827.916 147.42 823.286 Q147.42 819.05 145.429 816.226 Q143.601 813.68 140.036 813.68 M140.036 810.3 L154.179 810.3 L154.179 814.559 L149.411 814.559 Q151.934 818.171 151.934 823.286 Q151.934 829.652 148.763 833.263 Q145.591 836.897 140.036 836.897 Q134.457 836.897 131.309 833.263 Q128.138 829.652 128.138 823.286 Q128.138 816.874 131.309 813.286 Q133.925 810.3 140.036 810.3 Z" fill="#000000" fill-rule="nonzero" fill-opacity="1" /><path clip-path="url(#clip790)" d="M165.198 836.226 L157.281 810.3 L161.864 810.3 L168.554 832.059 Q171.332 829.189 173.647 825.208 Q175.406 822.221 175.499 819.629 Q175.545 818.402 174.989 816.087 Q174.341 813.333 171.888 810.3 L176.193 810.3 L176.193 810.3 Q177.79 812.36 178.855 815.231 Q179.827 817.87 179.827 819.675 Q179.827 824.212 176.679 828.263 Q172.582 833.541 169.735 836.226 L165.198 836.226 Z" fill="#000000" fill-rule="nonzero" fill-opacity="1" /><path clip-path="url(#clip794)" d="M184.494 1143.24 L184.494 1456.91 L366.875 1456.91 L366.875 1143.24 L184.494 1143.24 L184.494 1143.24  Z" fill="#009af9" fill-rule="evenodd" fill-opacity="1"/>
<polyline clip-path="url(#clip794)" style="stroke:#000000; stroke-linecap:round; stroke-linejoin:round; stroke-width:4; stroke-opacity:1; fill:none" points="184.494,1143.24 184.494,1456.91 366.875,1456.91 366.875,1143.24 184.494,1143.24 "/>
<path clip-path="url(#clip794)" d="M366.875 955.04 L366.875 1456.91 L549.256 1456.91 L549.256 955.04 L366.875 955.04 L366.875 955.04  Z" fill="#009af9" fill-rule="evenodd" fill-opacity="1"/>
<polyline clip-path="url(#clip794)" style="stroke:#000000; stroke-linecap:round; stroke-linejoin:round; stroke-width:4; stroke-opacity:1; fill:none" points="366.875,955.04 366.875,1456.91 549.256,1456.91 549.256,955.04 366.875,955.04 "/>
<path clip-path="url(#clip794)" d="M549.256 892.306 L549.256 1456.91 L731.637 1456.91 L731.637 892.306 L549.256 892.306 L549.256 892.306  Z" fill="#009af9" fill-rule="evenodd" fill-opacity="1"/>
<polyline clip-path="url(#clip794)" style="stroke:#000000; stroke-linecap:round; stroke-linejoin:round; stroke-width:4; stroke-opacity:1; fill:none" points="549.256,892.306 549.256,1456.91 731.637,1456.91 731.637,892.306 549.256,892.306 "/>
<path clip-path="url(#clip794)" d="M731.637 937.116 L731.637 1456.91 L914.019 1456.91 L914.019 937.116 L731.637 937.116 L731.637 937.116  Z" fill="#009af9" fill-rule="evenodd" fill-opacity="1"/>
<polyline clip-path="url(#clip794)" style="stroke:#000000; stroke-linecap:round; stroke-linejoin:round; stroke-width:4; stroke-opacity:1; fill:none" points="731.637,937.116 731.637,1456.91 914.019,1456.91 914.019,937.116 731.637,937.116 "/>
<path clip-path="url(#clip794)" d="M914.019 1376.26 L914.019 1456.91 L1096.4 1456.91 L1096.4 1376.26 L914.019 1376.26 L914.019 1376.26  Z" fill="#009af9" fill-rule="evenodd" fill-opacity="1"/>
<polyline clip-path="url(#clip794)" style="stroke:#000000; stroke-linecap:round; stroke-linejoin:round; stroke-width:4; stroke-opacity:1; fill:none" points="914.019,1376.26 914.019,1456.91 1096.4,1456.91 1096.4,1376.26 914.019,1376.26 "/>
<circle clip-path="url(#clip794)" style="fill:#009af9; stroke:none; fill-opacity:0" cx="275.684" cy="1143.24" r="2"/>
<circle clip-path="url(#clip794)" style="fill:#009af9; stroke:none; fill-opacity:0" cx="458.066" cy="955.04" r="2"/>
<circle clip-path="url(#clip794)" style="fill:#009af9; stroke:none; fill-opacity:0" cx="640.447" cy="892.306" r="2"/>
<circle clip-path="url(#clip794)" style="fill:#009af9; stroke:none; fill-opacity:0" cx="822.828" cy="937.116" r="2"/>
<circle clip-path="url(#clip794)" style="fill:#009af9; stroke:none; fill-opacity:0" cx="1005.21" cy="1376.26" r="2"/>
<polyline clip-path="url(#clip794)" style="stroke:#ff0000; stroke-linecap:round; stroke-linejoin:round; stroke-width:8; stroke-opacity:1; fill:none" stroke-dasharray="32, 20" points="725.928,2021.52 725.928,327.698 "/>
<polyline clip-path="url(#clip794)" style="stroke:#ff0000; stroke-linecap:round; stroke-linejoin:round; stroke-width:6; stroke-opacity:1; fill:none" stroke-dasharray="24, 12, 3, 12" points="264.453,2021.52 264.453,327.698 "/>
<polyline clip-path="url(#clip794)" style="stroke:#ff0000; stroke-linecap:round; stroke-linejoin:round; stroke-width:6; stroke-opacity:1; fill:none" stroke-dasharray="24, 12, 3, 12" points="947.067,2021.52 947.067,327.698 "/>
</svg>
