<?xml version="1.0" encoding="utf-8"?>
<svg xmlns="http://www.w3.org/2000/svg" xmlns:xlink="http://www.w3.org/1999/xlink" width="600" height="400" viewBox="0 0 2400 1600">
<defs>
  <clipPath id="clip490">
    <rect x="0" y="0" width="2400" height="1600"/>
  </clipPath>
</defs>
<path clip-path="url(#clip490)" d="M0 1600 L2400 1600 L2400 0 L0 0  Z" fill="#ffffff" fill-rule="evenodd" fill-opacity="1"/>
<defs>
  <clipPath id="clip491">
    <rect x="480" y="0" width="1681" height="1600"/>
  </clipPath>
</defs>
<path clip-path="url(#clip490)" d="M128.138 662.16 L1152.76 662.16 L1152.76 97.5521 L128.138 97.5521  Z" fill="#ffffff" fill-rule="evenodd" fill-opacity="1"/>
<defs>
  <clipPath id="clip492">
    <rect x="128" y="97" width="1026" height="566"/>
  </clipPath>
</defs>
<polyline clip-path="url(#clip492)" style="stroke:#000000; stroke-linecap:round; stroke-linejoin:round; stroke-width:2; stroke-opacity:0.1; fill:none" points="241.488,662.16 241.488,97.5521 "/>
<polyline clip-path="url(#clip492)" style="stroke:#000000; stroke-linecap:round; stroke-linejoin:round; stroke-width:2; stroke-opacity:0.1; fill:none" points="526.459,662.16 526.459,97.5521 "/>
<polyline clip-path="url(#clip492)" style="stroke:#000000; stroke-linecap:round; stroke-linejoin:round; stroke-width:2; stroke-opacity:0.1; fill:none" points="811.429,662.16 811.429,97.5521 "/>
<polyline clip-path="url(#clip492)" style="stroke:#000000; stroke-linecap:round; stroke-linejoin:round; stroke-width:2; stroke-opacity:0.1; fill:none" points="1096.4,662.16 1096.4,97.5521 "/>
<polyline clip-path="url(#clip492)" style="stroke:#000000; stroke-linecap:round; stroke-linejoin:round; stroke-width:2; stroke-opacity:0.1; fill:none" points="128.138,662.16 1152.76,662.16 "/>
<polyline clip-path="url(#clip492)" style="stroke:#000000; stroke-linecap:round; stroke-linejoin:round; stroke-width:2; stroke-opacity:0.1; fill:none" points="128.138,561.337 1152.76,561.337 "/>
<polyline clip-path="url(#clip492)" style="stroke:#000000; stroke-linecap:round; stroke-linejoin:round; stroke-width:2; stroke-opacity:0.1; fill:none" points="128.138,460.515 1152.76,460.515 "/>
<polyline clip-path="url(#clip492)" style="stroke:#000000; stroke-linecap:round; stroke-linejoin:round; stroke-width:2; stroke-opacity:0.1; fill:none" points="128.138,359.692 1152.76,359.692 "/>
<polyline clip-path="url(#clip492)" style="stroke:#000000; stroke-linecap:round; stroke-linejoin:round; stroke-width:2; stroke-opacity:0.1; fill:none" points="128.138,258.869 1152.76,258.869 "/>
<polyline clip-path="url(#clip492)" style="stroke:#000000; stroke-linecap:round; stroke-linejoin:round; stroke-width:2; stroke-opacity:0.1; fill:none" points="128.138,158.046 1152.76,158.046 "/>
<polyline clip-path="url(#clip490)" style="stroke:#000000; stroke-linecap:round; stroke-linejoin:round; stroke-width:4; stroke-opacity:1; fill:none" points="128.138,662.16 1152.76,662.16 "/>
<polyline clip-path="url(#clip490)" style="stroke:#000000; stroke-linecap:round; stroke-linejoin:round; stroke-width:4; stroke-opacity:1; fill:none" points="241.488,662.16 241.488,643.263 "/>
<polyline clip-path="url(#clip490)" style="stroke:#000000; stroke-linecap:round; stroke-linejoin:round; stroke-width:4; stroke-opacity:1; fill:none" points="526.459,662.16 526.459,643.263 "/>
<polyline clip-path="url(#clip490)" style="stroke:#000000; stroke-linecap:round; stroke-linejoin:round; stroke-width:4; stroke-opacity:1; fill:none" points="811.429,662.16 811.429,643.263 "/>
<polyline clip-path="url(#clip490)" style="stroke:#000000; stroke-linecap:round; stroke-linejoin:round; stroke-width:4; stroke-opacity:1; fill:none" points="1096.4,662.16 1096.4,643.263 "/>
<path clip-path="url(#clip490)" d="M187.688 733.844 Q185.773 735.759 186.693 738.619 Q187.614 741.455 191.395 745.236 Q195.164 749.005 198.012 749.938 Q200.86 750.846 202.775 748.931 Q204.702 747.004 203.782 744.168 Q202.861 741.308 199.092 737.539 Q195.311 733.758 192.463 732.849 Q189.615 731.916 187.688 733.844 M185.724 731.88 Q188.805 728.798 192.868 729.621 Q196.932 730.419 201.572 735.059 Q206.2 739.687 207.01 743.763 Q207.821 747.814 204.739 750.895 Q201.658 753.977 197.595 753.179 Q193.531 752.356 188.903 747.728 Q184.263 743.088 183.452 739.037 Q182.642 734.961 185.724 731.88 Z" fill="#000000" fill-rule="nonzero" fill-opacity="1" /><path clip-path="url(#clip490)" d="M211.958 736.729 L214.548 734.138 L217.666 737.256 L215.076 739.847 L211.958 736.729 Z" fill="#000000" fill-rule="nonzero" fill-opacity="1" /><path clip-path="url(#clip490)" d="M219.667 717.848 Q217.899 719.616 217.826 721.58 Q217.764 723.532 219.421 725.189 Q221.079 726.846 223.031 726.785 Q224.995 726.711 226.763 724.944 Q228.53 723.176 228.604 721.212 Q228.665 719.235 227.02 717.59 Q225.363 715.933 223.399 716.007 Q221.447 716.068 219.667 717.848 M216.131 719.272 Q214.143 720.475 212.154 720.279 Q210.178 720.07 208.606 718.499 Q206.409 716.301 206.691 713.465 Q206.986 710.617 209.711 707.892 Q212.449 705.155 215.284 704.872 Q218.12 704.59 220.318 706.787 Q221.889 708.359 222.085 710.347 Q222.294 712.324 221.103 714.3 Q223.313 712.925 225.523 713.146 Q227.745 713.355 229.5 715.11 Q232.164 717.774 231.955 720.831 Q231.759 723.876 228.727 726.908 Q225.695 729.94 222.638 730.149 Q219.593 730.345 216.929 727.681 Q215.174 725.926 214.965 723.704 Q214.757 721.482 216.131 719.272 M211.307 716.264 Q212.731 717.688 214.413 717.602 Q216.107 717.504 217.715 715.896 Q219.311 714.3 219.409 712.606 Q219.52 710.9 218.096 709.476 Q216.672 708.052 214.965 708.162 Q213.271 708.26 211.675 709.856 Q210.067 711.464 209.969 713.159 Q209.883 714.84 211.307 716.264 Z" fill="#000000" fill-rule="nonzero" fill-opacity="1" /><path clip-path="url(#clip490)" d="M235.663 701.852 Q233.895 703.62 233.821 705.584 Q233.76 707.536 235.417 709.193 Q237.074 710.851 239.026 710.789 Q240.991 710.716 242.758 708.948 Q244.526 707.18 244.6 705.216 Q244.661 703.239 243.016 701.594 Q241.359 699.937 239.395 700.011 Q237.443 700.072 235.663 701.852 M232.127 703.276 Q230.138 704.479 228.15 704.283 Q226.173 704.074 224.602 702.503 Q222.405 700.305 222.687 697.47 Q222.982 694.622 225.707 691.896 Q228.444 689.159 231.28 688.876 Q234.116 688.594 236.313 690.791 Q237.885 692.363 238.081 694.352 Q238.29 696.328 237.099 698.304 Q239.309 696.93 241.518 697.15 Q243.74 697.359 245.496 699.115 Q248.16 701.779 247.951 704.835 Q247.755 707.88 244.722 710.912 Q241.69 713.944 238.634 714.153 Q235.589 714.349 232.925 711.685 Q231.17 709.93 230.961 707.708 Q230.752 705.486 232.127 703.276 M227.303 700.269 Q228.727 701.693 230.409 701.607 Q232.103 701.509 233.711 699.9 Q235.307 698.304 235.405 696.61 Q235.515 694.904 234.091 693.48 Q232.667 692.056 230.961 692.166 Q229.267 692.265 227.671 693.861 Q226.063 695.469 225.965 697.163 Q225.879 698.845 227.303 700.269 Z" fill="#000000" fill-rule="nonzero" fill-opacity="1" /><path clip-path="url(#clip490)" d="M472.708 733.795 Q470.793 735.71 471.713 738.57 Q472.634 741.406 476.415 745.187 Q480.184 748.956 483.032 749.889 Q485.88 750.797 487.795 748.882 Q489.722 746.955 488.802 744.119 Q487.881 741.259 484.112 737.49 Q480.331 733.709 477.483 732.8 Q474.635 731.867 472.708 733.795 M470.743 731.83 Q473.825 728.749 477.888 729.572 Q481.952 730.37 486.592 735.01 Q491.22 739.638 492.03 743.714 Q492.84 747.765 489.759 750.846 Q486.678 753.927 482.614 753.129 Q478.551 752.307 473.923 747.679 Q469.283 743.039 468.472 738.987 Q467.662 734.912 470.743 731.83 Z" fill="#000000" fill-rule="nonzero" fill-opacity="1" /><path clip-path="url(#clip490)" d="M496.977 736.68 L499.568 734.089 L502.686 737.207 L500.096 739.798 L496.977 736.68 Z" fill="#000000" fill-rule="nonzero" fill-opacity="1" /><path clip-path="url(#clip490)" d="M504.687 717.799 Q502.919 719.567 502.845 721.531 Q502.784 723.483 504.441 725.14 Q506.099 726.797 508.051 726.736 Q510.015 726.662 511.782 724.894 Q513.55 723.127 513.624 721.163 Q513.685 719.186 512.04 717.541 Q510.383 715.884 508.419 715.957 Q506.467 716.019 504.687 717.799 M501.151 719.223 Q499.163 720.426 497.174 720.23 Q495.197 720.021 493.626 718.45 Q491.429 716.252 491.711 713.416 Q492.006 710.568 494.731 707.843 Q497.469 705.105 500.304 704.823 Q503.14 704.541 505.337 706.738 Q506.909 708.309 507.105 710.298 Q507.314 712.275 506.123 714.251 Q508.333 712.876 510.543 713.097 Q512.765 713.306 514.52 715.061 Q517.184 717.725 516.975 720.782 Q516.779 723.826 513.747 726.859 Q510.714 729.891 507.658 730.1 Q504.613 730.296 501.949 727.632 Q500.194 725.877 499.985 723.655 Q499.776 721.433 501.151 719.223 M496.327 716.215 Q497.751 717.639 499.433 717.553 Q501.127 717.455 502.735 715.847 Q504.331 714.251 504.429 712.557 Q504.54 710.851 503.116 709.427 Q501.691 708.003 499.985 708.113 Q498.291 708.211 496.695 709.807 Q495.087 711.415 494.989 713.109 Q494.903 714.791 496.327 716.215 Z" fill="#000000" fill-rule="nonzero" fill-opacity="1" /><path clip-path="url(#clip490)" d="M523.776 715.356 L521.517 713.097 Q522.892 712.606 524.083 711.882 Q525.274 711.158 526.195 710.237 Q528.65 707.782 528.294 704.848 Q527.938 701.889 524.758 698.341 Q525.102 700.109 524.574 701.766 Q524.046 703.424 522.72 704.749 Q519.971 707.499 516.705 707.45 Q513.44 707.376 510.555 704.492 Q507.731 701.668 507.694 698.292 Q507.658 694.916 510.432 692.142 Q513.612 688.962 517.724 689.736 Q521.837 690.485 526.477 695.125 Q530.81 699.458 531.338 704.111 Q531.866 708.739 528.392 712.213 Q527.459 713.146 526.317 713.92 Q525.176 714.693 523.776 715.356 M520.94 702.65 Q522.61 700.981 522.438 698.869 Q522.278 696.745 520.29 694.757 Q518.313 692.78 516.19 692.621 Q514.066 692.436 512.396 694.106 Q510.727 695.776 510.899 697.912 Q511.07 700.023 513.047 702 Q515.036 703.988 517.147 704.16 Q519.271 704.32 520.94 702.65 Z" fill="#000000" fill-rule="nonzero" fill-opacity="1" /><path clip-path="url(#clip490)" d="M757.58 733.893 Q755.665 735.808 756.586 738.668 Q757.507 741.504 761.288 745.285 Q765.056 749.054 767.904 749.987 Q770.752 750.895 772.668 748.98 Q774.595 747.053 773.674 744.217 Q772.753 741.357 768.985 737.588 Q765.204 733.807 762.356 732.898 Q759.508 731.966 757.58 733.893 M755.616 731.929 Q758.697 728.847 762.761 729.67 Q766.824 730.468 771.464 735.108 Q776.093 739.736 776.903 743.812 Q777.713 747.863 774.632 750.944 Q771.55 754.026 767.487 753.228 Q763.424 752.405 758.796 747.777 Q754.155 743.137 753.345 739.086 Q752.535 735.01 755.616 731.929 Z" fill="#000000" fill-rule="nonzero" fill-opacity="1" /><path clip-path="url(#clip490)" d="M781.85 736.778 L784.44 734.187 L787.558 737.306 L784.968 739.896 L781.85 736.778 Z" fill="#000000" fill-rule="nonzero" fill-opacity="1" /><path clip-path="url(#clip490)" d="M792.653 731.45 L790.394 729.191 Q791.769 728.7 792.96 727.976 Q794.151 727.251 795.071 726.331 Q797.527 723.876 797.171 720.942 Q796.815 717.983 793.635 714.435 Q793.979 716.203 793.451 717.86 Q792.923 719.518 791.597 720.843 Q788.847 723.593 785.582 723.544 Q782.317 723.47 779.432 720.586 Q776.608 717.762 776.571 714.386 Q776.534 711.01 779.309 708.236 Q782.488 705.056 786.601 705.83 Q790.713 706.579 795.354 711.219 Q799.687 715.552 800.215 720.205 Q800.743 724.833 797.269 728.307 Q796.336 729.24 795.194 730.014 Q794.052 730.787 792.653 731.45 M789.817 718.744 Q791.487 717.075 791.315 714.963 Q791.155 712.839 789.167 710.851 Q787.19 708.874 785.066 708.715 Q782.943 708.53 781.273 710.2 Q779.604 711.87 779.775 714.006 Q779.947 716.117 781.924 718.094 Q783.912 720.082 786.024 720.254 Q788.148 720.414 789.817 718.744 Z" fill="#000000" fill-rule="nonzero" fill-opacity="1" /><path clip-path="url(#clip490)" d="M797.563 693.91 Q795.648 695.825 796.569 698.685 Q797.49 701.521 801.271 705.302 Q805.04 709.071 807.888 710.004 Q810.736 710.912 812.651 708.997 Q814.578 707.07 813.657 704.234 Q812.737 701.373 808.968 697.605 Q805.187 693.824 802.339 692.915 Q799.491 691.982 797.563 693.91 M795.599 691.945 Q798.681 688.864 802.744 689.687 Q806.807 690.485 811.448 695.125 Q816.076 699.753 816.886 703.829 Q817.696 707.88 814.615 710.961 Q811.534 714.042 807.47 713.244 Q803.407 712.422 798.779 707.794 Q794.138 703.154 793.328 699.102 Q792.518 695.027 795.599 691.945 Z" fill="#000000" fill-rule="nonzero" fill-opacity="1" /><path clip-path="url(#clip490)" d="M1043.2 733.242 Q1041.29 735.157 1042.21 738.018 Q1043.13 740.853 1046.91 744.634 Q1050.68 748.403 1053.53 749.336 Q1056.37 750.245 1058.29 748.33 Q1060.22 746.402 1059.3 743.566 Q1058.37 740.706 1054.61 736.937 Q1050.83 733.156 1047.98 732.248 Q1045.13 731.315 1043.2 733.242 M1041.24 731.278 Q1044.32 728.197 1048.38 729.019 Q1052.45 729.817 1057.09 734.458 Q1061.71 739.086 1062.52 743.161 Q1063.33 747.212 1060.25 750.294 Q1057.17 753.375 1053.11 752.577 Q1049.05 751.755 1044.42 747.126 Q1039.78 742.486 1038.97 738.435 Q1038.16 734.359 1041.24 731.278 Z" fill="#000000" fill-rule="nonzero" fill-opacity="1" /><path clip-path="url(#clip490)" d="M1067.47 736.127 L1070.06 733.537 L1073.18 736.655 L1070.59 739.245 L1067.47 736.127 Z" fill="#000000" fill-rule="nonzero" fill-opacity="1" /><path clip-path="url(#clip490)" d="M1078.27 730.799 L1076.02 728.54 Q1077.39 728.049 1078.58 727.325 Q1079.77 726.601 1080.69 725.68 Q1083.15 723.225 1082.79 720.291 Q1082.44 717.332 1079.26 713.785 Q1079.6 715.552 1079.07 717.21 Q1078.54 718.867 1077.22 720.193 Q1074.47 722.943 1071.2 722.893 Q1067.94 722.82 1065.05 719.935 Q1062.23 717.111 1062.19 713.736 Q1062.16 710.36 1064.93 707.585 Q1068.11 704.406 1072.22 705.179 Q1076.33 705.928 1080.98 710.568 Q1085.31 714.902 1085.84 719.554 Q1086.36 724.182 1082.89 727.657 Q1081.96 728.59 1080.82 729.363 Q1079.67 730.136 1078.27 730.799 M1075.44 718.094 Q1077.11 716.424 1076.94 714.312 Q1076.78 712.189 1074.79 710.2 Q1072.81 708.224 1070.69 708.064 Q1068.56 707.88 1066.89 709.549 Q1065.22 711.219 1065.4 713.355 Q1065.57 715.466 1067.55 717.443 Q1069.53 719.432 1071.65 719.603 Q1073.77 719.763 1075.44 718.094 Z" fill="#000000" fill-rule="nonzero" fill-opacity="1" /><path clip-path="url(#clip490)" d="M1092.92 712.741 L1096.97 708.69 L1082.99 694.708 L1079.47 699.999 L1077.21 697.74 L1080.71 692.473 L1083.18 689.994 L1099.43 706.235 L1103.48 702.184 L1105.56 704.271 L1095.01 714.828 L1092.92 712.741 Z" fill="#000000" fill-rule="nonzero" fill-opacity="1" /><polyline clip-path="url(#clip490)" style="stroke:#000000; stroke-linecap:round; stroke-linejoin:round; stroke-width:4; stroke-opacity:1; fill:none" points="128.138,662.16 128.138,97.5521 "/>
<polyline clip-path="url(#clip490)" style="stroke:#000000; stroke-linecap:round; stroke-linejoin:round; stroke-width:4; stroke-opacity:1; fill:none" points="128.138,662.16 147.035,662.16 "/>
<polyline clip-path="url(#clip490)" style="stroke:#000000; stroke-linecap:round; stroke-linejoin:round; stroke-width:4; stroke-opacity:1; fill:none" points="128.138,561.337 147.035,561.337 "/>
<polyline clip-path="url(#clip490)" style="stroke:#000000; stroke-linecap:round; stroke-linejoin:round; stroke-width:4; stroke-opacity:1; fill:none" points="128.138,460.515 147.035,460.515 "/>
<polyline clip-path="url(#clip490)" style="stroke:#000000; stroke-linecap:round; stroke-linejoin:round; stroke-width:4; stroke-opacity:1; fill:none" points="128.138,359.692 147.035,359.692 "/>
<polyline clip-path="url(#clip490)" style="stroke:#000000; stroke-linecap:round; stroke-linejoin:round; stroke-width:4; stroke-opacity:1; fill:none" points="128.138,258.869 147.035,258.869 "/>
<polyline clip-path="url(#clip490)" style="stroke:#000000; stroke-linecap:round; stroke-linejoin:round; stroke-width:4; stroke-opacity:1; fill:none" points="128.138,158.046 147.035,158.046 "/>
<path clip-path="url(#clip490)" d="M83.1795 651.509 Q80.4711 651.509 79.0996 654.183 Q77.7455 656.839 77.7455 662.186 Q77.7455 667.516 79.0996 670.19 Q80.4711 672.846 83.1795 672.846 Q85.9051 672.846 87.2593 670.19 Q88.6308 667.516 88.6308 662.186 Q88.6308 656.839 87.2593 654.183 Q85.9051 651.509 83.1795 651.509 M83.1795 648.732 Q87.5371 648.732 89.8287 652.186 Q92.1377 655.624 92.1377 662.186 Q92.1377 668.732 89.8287 672.186 Q87.5371 675.624 83.1795 675.624 Q78.8218 675.624 76.5128 672.186 Q74.2212 668.732 74.2212 662.186 Q74.2212 655.624 76.5128 652.186 Q78.8218 648.732 83.1795 648.732 Z" fill="#000000" fill-rule="nonzero" fill-opacity="1" /><path clip-path="url(#clip490)" d="M53.6657 571.346 L59.3949 571.346 L59.3949 551.572 L53.1623 552.822 L53.1623 549.627 L59.3601 548.377 L62.8671 548.377 L62.8671 571.346 L68.5962 571.346 L68.5962 574.297 L53.6657 574.297 L53.6657 571.346 Z" fill="#000000" fill-rule="nonzero" fill-opacity="1" /><path clip-path="url(#clip490)" d="M83.1795 550.686 Q80.4711 550.686 79.0996 553.36 Q77.7455 556.016 77.7455 561.364 Q77.7455 566.693 79.0996 569.367 Q80.4711 572.023 83.1795 572.023 Q85.9051 572.023 87.2593 569.367 Q88.6308 566.693 88.6308 561.364 Q88.6308 556.016 87.2593 553.36 Q85.9051 550.686 83.1795 550.686 M83.1795 547.909 Q87.5371 547.909 89.8287 551.364 Q92.1377 554.801 92.1377 561.364 Q92.1377 567.909 89.8287 571.363 Q87.5371 574.801 83.1795 574.801 Q78.8218 574.801 76.5128 571.363 Q74.2212 567.909 74.2212 561.364 Q74.2212 554.801 76.5128 551.364 Q78.8218 547.909 83.1795 547.909 Z" fill="#000000" fill-rule="nonzero" fill-opacity="1" /><path clip-path="url(#clip490)" d="M56.0789 470.523 L68.3184 470.523 L68.3184 473.475 L51.8602 473.475 L51.8602 470.523 Q53.8567 468.457 57.2942 464.985 Q60.749 461.495 61.6344 460.489 Q63.3184 458.596 63.9782 457.294 Q64.6552 455.975 64.6552 454.707 Q64.6552 452.641 63.1969 451.339 Q61.756 450.037 59.4296 450.037 Q57.7803 450.037 55.94 450.61 Q54.1171 451.183 52.0338 452.346 L52.0338 448.805 Q54.1518 447.954 55.9921 447.52 Q57.8324 447.086 59.3601 447.086 Q63.3879 447.086 65.7837 449.1 Q68.1795 451.114 68.1795 454.482 Q68.1795 456.079 67.5719 457.52 Q66.9816 458.943 65.4018 460.888 Q64.9677 461.391 62.6414 463.804 Q60.315 466.2 56.0789 470.523 Z" fill="#000000" fill-rule="nonzero" fill-opacity="1" /><path clip-path="url(#clip490)" d="M83.1795 449.864 Q80.4711 449.864 79.0996 452.537 Q77.7455 455.193 77.7455 460.541 Q77.7455 465.87 79.0996 468.544 Q80.4711 471.2 83.1795 471.2 Q85.9051 471.2 87.2593 468.544 Q88.6308 465.87 88.6308 460.541 Q88.6308 455.193 87.2593 452.537 Q85.9051 449.864 83.1795 449.864 M83.1795 447.086 Q87.5371 447.086 89.8287 450.541 Q92.1377 453.978 92.1377 460.541 Q92.1377 467.086 89.8287 470.541 Q87.5371 473.978 83.1795 473.978 Q78.8218 473.978 76.5128 470.541 Q74.2212 467.086 74.2212 460.541 Q74.2212 453.978 76.5128 450.541 Q78.8218 447.086 83.1795 447.086 Z" fill="#000000" fill-rule="nonzero" fill-opacity="1" /><path clip-path="url(#clip490)" d="M63.683 358.676 Q66.2004 359.214 67.6066 360.916 Q69.0302 362.617 69.0302 365.117 Q69.0302 368.954 66.3913 371.054 Q63.7525 373.155 58.8914 373.155 Q57.2595 373.155 55.5234 372.825 Q53.8046 372.513 51.9643 371.87 L51.9643 368.485 Q53.4227 369.336 55.1588 369.77 Q56.8949 370.204 58.7872 370.204 Q62.0858 370.204 63.8046 368.902 Q65.5407 367.6 65.5407 365.117 Q65.5407 362.825 63.9261 361.541 Q62.3289 360.239 59.4643 360.239 L56.4435 360.239 L56.4435 357.357 L59.6032 357.357 Q62.19 357.357 63.5615 356.332 Q64.933 355.291 64.933 353.346 Q64.933 351.35 63.5094 350.291 Q62.1032 349.214 59.4643 349.214 Q58.0233 349.214 56.374 349.527 Q54.7247 349.839 52.7456 350.499 L52.7456 347.374 Q54.7421 346.818 56.4782 346.541 Q58.2317 346.263 59.7768 346.263 Q63.7698 346.263 66.0962 348.086 Q68.4226 349.891 68.4226 352.982 Q68.4226 355.134 67.19 356.627 Q65.9573 358.103 63.683 358.676 Z" fill="#000000" fill-rule="nonzero" fill-opacity="1" /><path clip-path="url(#clip490)" d="M83.1795 349.041 Q80.4711 349.041 79.0996 351.714 Q77.7455 354.371 77.7455 359.718 Q77.7455 365.048 79.0996 367.721 Q80.4711 370.377 83.1795 370.377 Q85.9051 370.377 87.2593 367.721 Q88.6308 365.048 88.6308 359.718 Q88.6308 354.371 87.2593 351.714 Q85.9051 349.041 83.1795 349.041 M83.1795 346.263 Q87.5371 346.263 89.8287 349.718 Q92.1377 353.155 92.1377 359.718 Q92.1377 366.263 89.8287 369.718 Q87.5371 373.155 83.1795 373.155 Q78.8218 373.155 76.5128 369.718 Q74.2212 366.263 74.2212 359.718 Q74.2212 353.155 76.5128 349.718 Q78.8218 346.263 83.1795 346.263 Z" fill="#000000" fill-rule="nonzero" fill-opacity="1" /><path clip-path="url(#clip490)" d="M62.6935 248.964 L53.8393 262.801 L62.6935 262.801 L62.6935 248.964 M61.7733 245.909 L66.183 245.909 L66.183 262.801 L69.8809 262.801 L69.8809 265.718 L66.183 265.718 L66.183 271.829 L62.6935 271.829 L62.6935 265.718 L50.9921 265.718 L50.9921 262.332 L61.7733 245.909 Z" fill="#000000" fill-rule="nonzero" fill-opacity="1" /><path clip-path="url(#clip490)" d="M83.1795 248.218 Q80.4711 248.218 79.0996 250.891 Q77.7455 253.548 77.7455 258.895 Q77.7455 264.225 79.0996 266.898 Q80.4711 269.554 83.1795 269.554 Q85.9051 269.554 87.2593 266.898 Q88.6308 264.225 88.6308 258.895 Q88.6308 253.548 87.2593 250.891 Q85.9051 248.218 83.1795 248.218 M83.1795 245.44 Q87.5371 245.44 89.8287 248.895 Q92.1377 252.332 92.1377 258.895 Q92.1377 265.44 89.8287 268.895 Q87.5371 272.332 83.1795 272.332 Q78.8218 272.332 76.5128 268.895 Q74.2212 265.44 74.2212 258.895 Q74.2212 252.332 76.5128 248.895 Q78.8218 245.44 83.1795 245.44 Z" fill="#000000" fill-rule="nonzero" fill-opacity="1" /><path clip-path="url(#clip490)" d="M53.0928 145.086 L66.8601 145.086 L66.8601 148.037 L56.3046 148.037 L56.3046 154.391 Q57.0685 154.131 57.8324 154.009 Q58.5963 153.871 59.3601 153.871 Q63.7004 153.871 66.2351 156.249 Q68.7698 158.627 68.7698 162.69 Q68.7698 166.874 66.1657 169.2 Q63.5615 171.509 58.8219 171.509 Q57.19 171.509 55.4886 171.232 Q53.8046 170.954 51.9991 170.398 L51.9991 166.874 Q53.5616 167.725 55.2282 168.141 Q56.8949 168.558 58.7525 168.558 Q61.756 168.558 63.5094 166.978 Q65.2629 165.398 65.2629 162.69 Q65.2629 159.982 63.5094 158.402 Q61.756 156.822 58.7525 156.822 Q57.3463 156.822 55.94 157.134 Q54.5511 157.447 53.0928 158.107 L53.0928 145.086 Z" fill="#000000" fill-rule="nonzero" fill-opacity="1" /><path clip-path="url(#clip490)" d="M83.1795 147.395 Q80.4711 147.395 79.0996 150.068 Q77.7455 152.725 77.7455 158.072 Q77.7455 163.402 79.0996 166.075 Q80.4711 168.732 83.1795 168.732 Q85.9051 168.732 87.2593 166.075 Q88.6308 163.402 88.6308 158.072 Q88.6308 152.725 87.2593 150.068 Q85.9051 147.395 83.1795 147.395 M83.1795 144.617 Q87.5371 144.617 89.8287 148.072 Q92.1377 151.509 92.1377 158.072 Q92.1377 164.617 89.8287 168.072 Q87.5371 171.509 83.1795 171.509 Q78.8218 171.509 76.5128 168.072 Q74.2212 164.617 74.2212 158.072 Q74.2212 151.509 76.5128 148.072 Q78.8218 144.617 83.1795 144.617 Z" fill="#000000" fill-rule="nonzero" fill-opacity="1" /><path clip-path="url(#clip490)" d="M130.221 20.1758 Q131.633 17.8147 135.128 15.7314 Q136.494 14.9212 140.707 14.9212 Q145.429 14.9212 148.369 18.6712 Q151.332 22.4212 151.332 28.5323 Q151.332 34.6433 148.369 38.3933 Q145.429 42.1433 140.707 42.1433 Q137.86 42.1433 135.8 41.0322 Q133.763 39.8979 132.42 37.5831 L132.42 51.3331 L128.138 51.3331 L128.138 28.7637 Q128.138 23.4165 130.221 20.1758 M146.911 28.5323 Q146.911 23.8332 144.966 21.1712 Q143.045 18.486 139.665 18.486 Q136.286 18.486 134.341 21.1712 Q132.42 23.8332 132.42 28.5323 Q132.42 33.2313 134.341 35.9165 Q136.286 38.5785 139.665 38.5785 Q143.045 38.5785 144.966 35.9165 Q146.911 33.2313 146.911 28.5323 Z" fill="#000000" fill-rule="nonzero" fill-opacity="1" /><path clip-path="url(#clip492)" d="M184.494 561.337 L184.494 662.16 L241.488 662.16 L241.488 561.337 L184.494 561.337 L184.494 561.337  Z" fill="#009af9" fill-rule="evenodd" fill-opacity="1"/>
<polyline clip-path="url(#clip492)" style="stroke:#000000; stroke-linecap:round; stroke-linejoin:round; stroke-width:4; stroke-opacity:1; fill:none" points="184.494,561.337 184.494,662.16 241.488,662.16 241.488,561.337 184.494,561.337 "/>
<path clip-path="url(#clip492)" d="M241.488 521.008 L241.488 662.16 L298.482 662.16 L298.482 521.008 L241.488 521.008 L241.488 521.008  Z" fill="#009af9" fill-rule="evenodd" fill-opacity="1"/>
<polyline clip-path="url(#clip492)" style="stroke:#000000; stroke-linecap:round; stroke-linejoin:round; stroke-width:4; stroke-opacity:1; fill:none" points="241.488,521.008 241.488,662.16 298.482,662.16 298.482,521.008 241.488,521.008 "/>
<path clip-path="url(#clip492)" d="M298.482 561.337 L298.482 662.16 L355.476 662.16 L355.476 561.337 L298.482 561.337 L298.482 561.337  Z" fill="#009af9" fill-rule="evenodd" fill-opacity="1"/>
<polyline clip-path="url(#clip492)" style="stroke:#000000; stroke-linecap:round; stroke-linejoin:round; stroke-width:4; stroke-opacity:1; fill:none" points="298.482,561.337 298.482,662.16 355.476,662.16 355.476,561.337 298.482,561.337 "/>
<path clip-path="url(#clip492)" d="M355.476 510.926 L355.476 662.16 L412.47 662.16 L412.47 510.926 L355.476 510.926 L355.476 510.926  Z" fill="#009af9" fill-rule="evenodd" fill-opacity="1"/>
<polyline clip-path="url(#clip492)" style="stroke:#000000; stroke-linecap:round; stroke-linejoin:round; stroke-width:4; stroke-opacity:1; fill:none" points="355.476,510.926 355.476,662.16 412.47,662.16 412.47,510.926 355.476,510.926 "/>
<path clip-path="url(#clip492)" d="M412.47 268.951 L412.47 662.16 L469.464 662.16 L469.464 268.951 L412.47 268.951 L412.47 268.951  Z" fill="#009af9" fill-rule="evenodd" fill-opacity="1"/>
<polyline clip-path="url(#clip492)" style="stroke:#000000; stroke-linecap:round; stroke-linejoin:round; stroke-width:4; stroke-opacity:1; fill:none" points="412.47,268.951 412.47,662.16 469.464,662.16 469.464,268.951 412.47,268.951 "/>
<path clip-path="url(#clip492)" d="M469.464 97.5521 L469.464 662.16 L526.459 662.16 L526.459 97.5521 L469.464 97.5521 L469.464 97.5521  Z" fill="#009af9" fill-rule="evenodd" fill-opacity="1"/>
<polyline clip-path="url(#clip492)" style="stroke:#000000; stroke-linecap:round; stroke-linejoin:round; stroke-width:4; stroke-opacity:1; fill:none" points="469.464,97.5521 469.464,662.16 526.459,662.16 526.459,97.5521 469.464,97.5521 "/>
<path clip-path="url(#clip492)" d="M526.459 279.033 L526.459 662.16 L583.453 662.16 L583.453 279.033 L526.459 279.033 L526.459 279.033  Z" fill="#009af9" fill-rule="evenodd" fill-opacity="1"/>
<polyline clip-path="url(#clip492)" style="stroke:#000000; stroke-linecap:round; stroke-linejoin:round; stroke-width:4; stroke-opacity:1; fill:none" points="526.459,279.033 526.459,662.16 583.453,662.16 583.453,279.033 526.459,279.033 "/>
<path clip-path="url(#clip492)" d="M583.453 571.42 L583.453 662.16 L640.447 662.16 L640.447 571.42 L583.453 571.42 L583.453 571.42  Z" fill="#009af9" fill-rule="evenodd" fill-opacity="1"/>
<polyline clip-path="url(#clip492)" style="stroke:#000000; stroke-linecap:round; stroke-linejoin:round; stroke-width:4; stroke-opacity:1; fill:none" points="583.453,571.42 583.453,662.16 640.447,662.16 640.447,571.42 583.453,571.42 "/>
<path clip-path="url(#clip492)" d="M640.447 561.337 L640.447 662.16 L697.441 662.16 L697.441 561.337 L640.447 561.337 L640.447 561.337  Z" fill="#009af9" fill-rule="evenodd" fill-opacity="1"/>
<polyline clip-path="url(#clip492)" style="stroke:#000000; stroke-linecap:round; stroke-linejoin:round; stroke-width:4; stroke-opacity:1; fill:none" points="640.447,561.337 640.447,662.16 697.441,662.16 697.441,561.337 640.447,561.337 "/>
<path clip-path="url(#clip492)" d="M697.441 591.584 L697.441 662.16 L754.435 662.16 L754.435 591.584 L697.441 591.584 L697.441 591.584  Z" fill="#009af9" fill-rule="evenodd" fill-opacity="1"/>
<polyline clip-path="url(#clip492)" style="stroke:#000000; stroke-linecap:round; stroke-linejoin:round; stroke-width:4; stroke-opacity:1; fill:none" points="697.441,591.584 697.441,662.16 754.435,662.16 754.435,591.584 697.441,591.584 "/>
<path clip-path="url(#clip492)" d="M754.435 662.16 L754.435 662.16 L811.429 662.16 L811.429 662.16 L754.435 662.16 L754.435 662.16  Z" fill="#009af9" fill-rule="evenodd" fill-opacity="1"/>
<polyline clip-path="url(#clip492)" style="stroke:#000000; stroke-linecap:round; stroke-linejoin:round; stroke-width:4; stroke-opacity:1; fill:none" points="754.435,662.16 754.435,662.16 811.429,662.16 754.435,662.16 "/>
<path clip-path="url(#clip492)" d="M811.429 662.16 L811.429 662.16 L868.423 662.16 L868.423 662.16 L811.429 662.16 L811.429 662.16  Z" fill="#009af9" fill-rule="evenodd" fill-opacity="1"/>
<polyline clip-path="url(#clip492)" style="stroke:#000000; stroke-linecap:round; stroke-linejoin:round; stroke-width:4; stroke-opacity:1; fill:none" points="811.429,662.16 811.429,662.16 868.423,662.16 811.429,662.16 "/>
<path clip-path="url(#clip492)" d="M868.423 662.16 L868.423 662.16 L925.418 662.16 L925.418 662.16 L868.423 662.16 L868.423 662.16  Z" fill="#009af9" fill-rule="evenodd" fill-opacity="1"/>
<polyline clip-path="url(#clip492)" style="stroke:#000000; stroke-linecap:round; stroke-linejoin:round; stroke-width:4; stroke-opacity:1; fill:none" points="868.423,662.16 868.423,662.16 925.418,662.16 868.423,662.16 "/>
<path clip-path="url(#clip492)" d="M925.418 641.996 L925.418 662.16 L982.412 662.16 L982.412 641.996 L925.418 641.996 L925.418 641.996  Z" fill="#009af9" fill-rule="evenodd" fill-opacity="1"/>
<polyline clip-path="url(#clip492)" style="stroke:#000000; stroke-linecap:round; stroke-linejoin:round; stroke-width:4; stroke-opacity:1; fill:none" points="925.418,641.996 925.418,662.16 982.412,662.16 982.412,641.996 925.418,641.996 "/>
<path clip-path="url(#clip492)" d="M982.412 581.502 L982.412 662.16 L1039.41 662.16 L1039.41 581.502 L982.412 581.502 L982.412 581.502  Z" fill="#009af9" fill-rule="evenodd" fill-opacity="1"/>
<polyline clip-path="url(#clip492)" style="stroke:#000000; stroke-linecap:round; stroke-linejoin:round; stroke-width:4; stroke-opacity:1; fill:none" points="982.412,581.502 982.412,662.16 1039.41,662.16 1039.41,581.502 982.412,581.502 "/>
<path clip-path="url(#clip492)" d="M1039.41 631.914 L1039.41 662.16 L1096.4 662.16 L1096.4 631.914 L1039.41 631.914 L1039.41 631.914  Z" fill="#009af9" fill-rule="evenodd" fill-opacity="1"/>
<polyline clip-path="url(#clip492)" style="stroke:#000000; stroke-linecap:round; stroke-linejoin:round; stroke-width:4; stroke-opacity:1; fill:none" points="1039.41,631.914 1039.41,662.16 1096.4,662.16 1096.4,631.914 1039.41,631.914 "/>
<circle clip-path="url(#clip492)" style="fill:#009af9; stroke:none; fill-opacity:0" cx="212.991" cy="561.337" r="2"/>
<circle clip-path="url(#clip492)" style="fill:#009af9; stroke:none; fill-opacity:0" cx="269.985" cy="521.008" r="2"/>
<circle clip-path="url(#clip492)" style="fill:#009af9; stroke:none; fill-opacity:0" cx="326.979" cy="561.337" r="2"/>
<circle clip-path="url(#clip492)" style="fill:#009af9; stroke:none; fill-opacity:0" cx="383.973" cy="510.926" r="2"/>
<circle clip-path="url(#clip492)" style="fill:#009af9; stroke:none; fill-opacity:0" cx="440.967" cy="268.951" r="2"/>
<circle clip-path="url(#clip492)" style="fill:#009af9; stroke:none; fill-opacity:0" cx="497.961" cy="97.5521" r="2"/>
<circle clip-path="url(#clip492)" style="fill:#009af9; stroke:none; fill-opacity:0" cx="554.956" cy="279.033" r="2"/>
<circle clip-path="url(#clip492)" style="fill:#009af9; stroke:none; fill-opacity:0" cx="611.95" cy="571.42" r="2"/>
<circle clip-path="url(#clip492)" style="fill:#009af9; stroke:none; fill-opacity:0" cx="668.944" cy="561.337" r="2"/>
<circle clip-path="url(#clip492)" style="fill:#009af9; stroke:none; fill-opacity:0" cx="725.938" cy="591.584" r="2"/>
<circle clip-path="url(#clip492)" style="fill:#009af9; stroke:none; fill-opacity:0" cx="782.932" cy="662.16" r="2"/>
<circle clip-path="url(#clip492)" style="fill:#009af9; stroke:none; fill-opacity:0" cx="839.926" cy="662.16" r="2"/>
<circle clip-path="url(#clip492)" style="fill:#009af9; stroke:none; fill-opacity:0" cx="896.921" cy="662.16" r="2"/>
<circle clip-path="url(#clip492)" style="fill:#009af9; stroke:none; fill-opacity:0" cx="953.915" cy="641.996" r="2"/>
<circle clip-path="url(#clip492)" style="fill:#009af9; stroke:none; fill-opacity:0" cx="1010.91" cy="581.502" r="2"/>
<circle clip-path="url(#clip492)" style="fill:#009af9; stroke:none; fill-opacity:0" cx="1067.9" cy="631.914" r="2"/>
<polyline clip-path="url(#clip492)" style="stroke:#ff0000; stroke-linecap:round; stroke-linejoin:round; stroke-width:8; stroke-opacity:1; fill:none" stroke-dasharray="32, 20" points="518.809,1226.77 518.809,-467.056 "/>
<polyline clip-path="url(#clip492)" style="stroke:#ff0000; stroke-linecap:round; stroke-linejoin:round; stroke-width:6; stroke-opacity:1; fill:none" stroke-dasharray="24, 12, 3, 12" points="221.378,1226.77 221.378,-467.056 "/>
<polyline clip-path="url(#clip492)" style="stroke:#ff0000; stroke-linecap:round; stroke-linejoin:round; stroke-width:6; stroke-opacity:1; fill:none" stroke-dasharray="24, 12, 3, 12" points="1024.09,1226.77 1024.09,-467.056 "/>
<path clip-path="url(#clip490)" d="M1328.14 662.16 L2352.76 662.16 L2352.76 97.5521 L1328.14 97.5521  Z" fill="#ffffff" fill-rule="evenodd" fill-opacity="1"/>
<defs>
  <clipPath id="clip493">
    <rect x="1328" y="97" width="1026" height="566"/>
  </clipPath>
</defs>
<polyline clip-path="url(#clip493)" style="stroke:#000000; stroke-linecap:round; stroke-linejoin:round; stroke-width:2; stroke-opacity:0.1; fill:none" points="1475.68,662.16 1475.68,97.5521 "/>
<polyline clip-path="url(#clip493)" style="stroke:#000000; stroke-linecap:round; stroke-linejoin:round; stroke-width:2; stroke-opacity:0.1; fill:none" points="1658.07,662.16 1658.07,97.5521 "/>
<polyline clip-path="url(#clip493)" style="stroke:#000000; stroke-linecap:round; stroke-linejoin:round; stroke-width:2; stroke-opacity:0.1; fill:none" points="1840.45,662.16 1840.45,97.5521 "/>
<polyline clip-path="url(#clip493)" style="stroke:#000000; stroke-linecap:round; stroke-linejoin:round; stroke-width:2; stroke-opacity:0.1; fill:none" points="2022.83,662.16 2022.83,97.5521 "/>
<polyline clip-path="url(#clip493)" style="stroke:#000000; stroke-linecap:round; stroke-linejoin:round; stroke-width:2; stroke-opacity:0.1; fill:none" points="2205.21,662.16 2205.21,97.5521 "/>
<polyline clip-path="url(#clip493)" style="stroke:#000000; stroke-linecap:round; stroke-linejoin:round; stroke-width:2; stroke-opacity:0.1; fill:none" points="1328.14,662.16 2352.76,662.16 "/>
<polyline clip-path="url(#clip493)" style="stroke:#000000; stroke-linecap:round; stroke-linejoin:round; stroke-width:2; stroke-opacity:0.1; fill:none" points="1328.14,571.095 2352.76,571.095 "/>
<polyline clip-path="url(#clip493)" style="stroke:#000000; stroke-linecap:round; stroke-linejoin:round; stroke-width:2; stroke-opacity:0.1; fill:none" points="1328.14,480.029 2352.76,480.029 "/>
<polyline clip-path="url(#clip493)" style="stroke:#000000; stroke-linecap:round; stroke-linejoin:round; stroke-width:2; stroke-opacity:0.1; fill:none" points="1328.14,388.963 2352.76,388.963 "/>
<polyline clip-path="url(#clip493)" style="stroke:#000000; stroke-linecap:round; stroke-linejoin:round; stroke-width:2; stroke-opacity:0.1; fill:none" points="1328.14,297.897 2352.76,297.897 "/>
<polyline clip-path="url(#clip493)" style="stroke:#000000; stroke-linecap:round; stroke-linejoin:round; stroke-width:2; stroke-opacity:0.1; fill:none" points="1328.14,206.831 2352.76,206.831 "/>
<polyline clip-path="url(#clip493)" style="stroke:#000000; stroke-linecap:round; stroke-linejoin:round; stroke-width:2; stroke-opacity:0.1; fill:none" points="1328.14,115.765 2352.76,115.765 "/>
<polyline clip-path="url(#clip490)" style="stroke:#000000; stroke-linecap:round; stroke-linejoin:round; stroke-width:4; stroke-opacity:1; fill:none" points="1328.14,662.16 2352.76,662.16 "/>
<polyline clip-path="url(#clip490)" style="stroke:#000000; stroke-linecap:round; stroke-linejoin:round; stroke-width:4; stroke-opacity:1; fill:none" points="1475.68,662.16 1475.68,643.263 "/>
<polyline clip-path="url(#clip490)" style="stroke:#000000; stroke-linecap:round; stroke-linejoin:round; stroke-width:4; stroke-opacity:1; fill:none" points="1658.07,662.16 1658.07,643.263 "/>
<polyline clip-path="url(#clip490)" style="stroke:#000000; stroke-linecap:round; stroke-linejoin:round; stroke-width:4; stroke-opacity:1; fill:none" points="1840.45,662.16 1840.45,643.263 "/>
<polyline clip-path="url(#clip490)" style="stroke:#000000; stroke-linecap:round; stroke-linejoin:round; stroke-width:4; stroke-opacity:1; fill:none" points="2022.83,662.16 2022.83,643.263 "/>
<polyline clip-path="url(#clip490)" style="stroke:#000000; stroke-linecap:round; stroke-linejoin:round; stroke-width:4; stroke-opacity:1; fill:none" points="2205.21,662.16 2205.21,643.263 "/>
<path clip-path="url(#clip490)" d="M1421.84 733.893 Q1419.92 735.808 1420.84 738.668 Q1421.76 741.504 1425.54 745.285 Q1429.31 749.054 1432.16 749.987 Q1435.01 750.895 1436.92 748.98 Q1438.85 747.053 1437.93 744.217 Q1437.01 741.357 1433.24 737.588 Q1429.46 733.807 1426.61 732.898 Q1423.76 731.966 1421.84 733.893 M1419.87 731.929 Q1422.95 728.847 1427.02 729.67 Q1431.08 730.468 1435.72 735.108 Q1440.35 739.736 1441.16 743.812 Q1441.97 747.863 1438.89 750.944 Q1435.81 754.026 1431.74 753.228 Q1427.68 752.405 1423.05 747.777 Q1418.41 743.137 1417.6 739.086 Q1416.79 735.01 1419.87 731.929 Z" fill="#000000" fill-rule="nonzero" fill-opacity="1" /><path clip-path="url(#clip490)" d="M1446.1 736.778 L1448.7 734.187 L1451.81 737.306 L1449.22 739.896 L1446.1 736.778 Z" fill="#000000" fill-rule="nonzero" fill-opacity="1" /><path clip-path="url(#clip490)" d="M1454.85 714.509 Q1457.01 713.109 1459.2 713.318 Q1461.41 713.515 1463.18 715.282 Q1465.89 717.995 1465.51 721.347 Q1465.13 724.698 1461.7 728.135 Q1460.54 729.289 1459.08 730.284 Q1457.64 731.278 1455.89 732.125 L1453.5 729.731 Q1455.13 729.302 1456.66 728.381 Q1458.2 727.46 1459.54 726.122 Q1461.87 723.79 1462.16 721.654 Q1462.47 719.505 1460.71 717.75 Q1459.09 716.129 1457.04 716.363 Q1454.99 716.571 1452.97 718.597 L1450.83 720.733 L1448.79 718.695 L1451.03 716.461 Q1452.86 714.632 1453.1 712.938 Q1453.34 711.231 1451.96 709.856 Q1450.55 708.445 1448.79 708.702 Q1447.04 708.936 1445.17 710.802 Q1444.15 711.82 1443.21 713.208 Q1442.26 714.595 1441.33 716.461 L1439.12 714.251 Q1440.14 712.447 1441.17 711.022 Q1442.21 709.586 1443.31 708.494 Q1446.13 705.67 1449.06 705.314 Q1451.99 704.946 1454.17 707.131 Q1455.69 708.653 1455.88 710.581 Q1456.05 712.496 1454.85 714.509 Z" fill="#000000" fill-rule="nonzero" fill-opacity="1" /><path clip-path="url(#clip490)" d="M1461.82 693.91 Q1459.9 695.825 1460.82 698.685 Q1461.74 701.521 1465.53 705.302 Q1469.29 709.071 1472.14 710.004 Q1474.99 710.912 1476.91 708.997 Q1478.83 707.07 1477.91 704.234 Q1476.99 701.373 1473.22 697.605 Q1469.44 693.824 1466.59 692.915 Q1463.75 691.982 1461.82 693.91 M1459.85 691.945 Q1462.94 688.864 1467 689.687 Q1471.06 690.485 1475.7 695.125 Q1480.33 699.753 1481.14 703.829 Q1481.95 707.88 1478.87 710.961 Q1475.79 714.042 1471.73 713.244 Q1467.66 712.422 1463.03 707.794 Q1458.39 703.154 1457.58 699.102 Q1456.77 695.027 1459.85 691.945 Z" fill="#000000" fill-rule="nonzero" fill-opacity="1" /><path clip-path="url(#clip490)" d="M1604.87 733.242 Q1602.95 735.157 1603.87 738.018 Q1604.79 740.853 1608.57 744.634 Q1612.34 748.403 1615.19 749.336 Q1618.04 750.245 1619.95 748.33 Q1621.88 746.402 1620.96 743.566 Q1620.04 740.706 1616.27 736.937 Q1612.49 733.156 1609.64 732.248 Q1606.79 731.315 1604.87 733.242 M1602.9 731.278 Q1605.98 728.197 1610.05 729.019 Q1614.11 729.817 1618.75 734.458 Q1623.38 739.086 1624.19 743.161 Q1625 747.212 1621.92 750.294 Q1618.84 753.375 1614.77 752.577 Q1610.71 751.755 1606.08 747.126 Q1601.44 742.486 1600.63 738.435 Q1599.82 734.359 1602.9 731.278 Z" fill="#000000" fill-rule="nonzero" fill-opacity="1" /><path clip-path="url(#clip490)" d="M1629.14 736.127 L1631.73 733.537 L1634.85 736.655 L1632.26 739.245 L1629.14 736.127 Z" fill="#000000" fill-rule="nonzero" fill-opacity="1" /><path clip-path="url(#clip490)" d="M1637.88 713.858 Q1640.04 712.459 1642.24 712.667 Q1644.45 712.864 1646.21 714.632 Q1648.93 717.345 1648.55 720.696 Q1648.16 724.047 1644.73 727.485 Q1643.57 728.639 1642.11 729.633 Q1640.68 730.627 1638.92 731.474 L1636.53 729.081 Q1638.16 728.651 1639.69 727.73 Q1641.23 726.81 1642.57 725.471 Q1644.9 723.139 1645.19 721.003 Q1645.5 718.855 1643.75 717.099 Q1642.13 715.479 1640.07 715.712 Q1638.02 715.921 1636 717.946 L1633.86 720.082 L1631.83 718.044 L1634.06 715.81 Q1635.89 713.981 1636.13 712.287 Q1636.37 710.581 1634.99 709.206 Q1633.58 707.794 1631.83 708.052 Q1630.07 708.285 1628.2 710.151 Q1627.19 711.17 1626.24 712.557 Q1625.29 713.944 1624.36 715.81 L1622.15 713.6 Q1623.17 711.796 1624.2 710.372 Q1625.25 708.936 1626.34 707.843 Q1629.16 705.019 1632.1 704.663 Q1635.02 704.295 1637.2 706.48 Q1638.72 708.003 1638.91 709.93 Q1639.08 711.845 1637.88 713.858 Z" fill="#000000" fill-rule="nonzero" fill-opacity="1" /><path clip-path="url(#clip490)" d="M1654.59 712.741 L1658.64 708.69 L1644.65 694.708 L1641.13 699.999 L1638.87 697.74 L1642.37 692.473 L1644.85 689.994 L1661.09 706.235 L1665.14 702.184 L1667.23 704.271 L1656.67 714.828 L1654.59 712.741 Z" fill="#000000" fill-rule="nonzero" fill-opacity="1" /><path clip-path="url(#clip490)" d="M1787.44 733.046 Q1785.53 734.961 1786.45 737.821 Q1787.37 740.657 1791.15 744.438 Q1794.92 748.207 1797.77 749.14 Q1800.62 750.048 1802.53 748.133 Q1804.46 746.206 1803.54 743.37 Q1802.62 740.51 1798.85 736.741 Q1795.07 732.96 1792.22 732.051 Q1789.37 731.118 1787.44 733.046 M1785.48 731.082 Q1788.56 728 1792.63 728.823 Q1796.69 729.621 1801.33 734.261 Q1805.96 738.889 1806.77 742.965 Q1807.58 747.016 1804.5 750.097 Q1801.41 753.179 1797.35 752.381 Q1793.29 751.558 1788.66 746.93 Q1784.02 742.29 1783.21 738.239 Q1782.4 734.163 1785.48 731.082 Z" fill="#000000" fill-rule="nonzero" fill-opacity="1" /><path clip-path="url(#clip490)" d="M1811.71 735.931 L1814.3 733.34 L1817.42 736.459 L1814.83 739.049 L1811.71 735.931 Z" fill="#000000" fill-rule="nonzero" fill-opacity="1" /><path clip-path="url(#clip490)" d="M1820.46 713.662 Q1822.62 712.262 1824.81 712.471 Q1827.02 712.667 1828.79 714.435 Q1831.5 717.148 1831.12 720.5 Q1830.74 723.851 1827.31 727.288 Q1826.15 728.442 1824.69 729.437 Q1823.25 730.431 1821.5 731.278 L1819.1 728.884 Q1820.74 728.455 1822.27 727.534 Q1823.81 726.613 1825.14 725.275 Q1827.48 722.943 1827.77 720.807 Q1828.08 718.658 1826.32 716.903 Q1824.7 715.282 1822.65 715.516 Q1820.6 715.724 1818.58 717.75 L1816.44 719.886 L1814.4 717.848 L1816.64 715.614 Q1818.47 713.785 1818.71 712.091 Q1818.95 710.384 1817.57 709.009 Q1816.16 707.597 1814.4 707.855 Q1812.65 708.088 1810.78 709.954 Q1809.76 710.973 1808.82 712.361 Q1807.87 713.748 1806.94 715.614 L1804.73 713.404 Q1805.75 711.599 1806.78 710.175 Q1807.82 708.739 1808.92 707.647 Q1811.74 704.823 1814.67 704.467 Q1817.59 704.099 1819.78 706.284 Q1821.3 707.806 1821.49 709.733 Q1821.66 711.649 1820.46 713.662 Z" fill="#000000" fill-rule="nonzero" fill-opacity="1" /><path clip-path="url(#clip490)" d="M1838.87 710.838 L1847.52 702.184 L1849.61 704.271 L1837.97 715.908 L1835.89 713.821 Q1835.84 710.949 1835.81 706.063 Q1835.79 701.153 1835.7 699.814 Q1835.55 697.286 1835.1 695.898 Q1834.65 694.487 1833.75 693.59 Q1832.29 692.13 1830.34 692.24 Q1828.4 692.338 1826.75 693.983 Q1825.59 695.149 1824.69 696.856 Q1823.81 698.55 1823.16 700.846 L1820.65 698.341 Q1821.55 696.242 1822.54 694.634 Q1823.54 693.026 1824.62 691.945 Q1827.46 689.097 1830.58 688.827 Q1833.7 688.557 1836.08 690.939 Q1837.21 692.068 1837.8 693.517 Q1838.39 694.941 1838.65 697.433 Q1838.7 698.096 1838.76 701.447 Q1838.81 704.786 1838.87 710.838 Z" fill="#000000" fill-rule="nonzero" fill-opacity="1" /><path clip-path="url(#clip490)" d="M1969.32 733.549 Q1967.41 735.464 1968.33 738.325 Q1969.25 741.16 1973.03 744.941 Q1976.8 748.71 1979.65 749.643 Q1982.5 750.552 1984.41 748.636 Q1986.34 746.709 1985.42 743.873 Q1984.5 741.013 1980.73 737.244 Q1976.95 733.463 1974.1 732.555 Q1971.25 731.622 1969.32 733.549 M1967.36 731.585 Q1970.44 728.504 1974.5 729.326 Q1978.57 730.124 1983.21 734.764 Q1987.84 739.393 1988.65 743.468 Q1989.46 747.519 1986.37 750.601 Q1983.29 753.682 1979.23 752.884 Q1975.17 752.061 1970.54 747.433 Q1965.9 742.793 1965.09 738.742 Q1964.28 734.666 1967.36 731.585 Z" fill="#000000" fill-rule="nonzero" fill-opacity="1" /><path clip-path="url(#clip490)" d="M1993.59 736.434 L1996.18 733.844 L1999.3 736.962 L1996.71 739.552 L1993.59 736.434 Z" fill="#000000" fill-rule="nonzero" fill-opacity="1" /><path clip-path="url(#clip490)" d="M2002.33 714.165 Q2004.49 712.766 2006.69 712.974 Q2008.9 713.171 2010.67 714.939 Q2013.38 717.652 2013 721.003 Q2012.62 724.354 2009.18 727.792 Q2008.03 728.946 2006.57 729.94 Q2005.13 730.934 2003.38 731.781 L2000.98 729.388 Q2002.62 728.958 2004.15 728.037 Q2005.68 727.116 2007.02 725.778 Q2009.36 723.446 2009.65 721.31 Q2009.96 719.162 2008.2 717.406 Q2006.58 715.786 2004.53 716.019 Q2002.48 716.228 2000.45 718.253 L1998.32 720.389 L1996.28 718.351 L1998.52 716.117 Q2000.34 714.288 2000.59 712.594 Q2000.82 710.887 1999.45 709.513 Q1998.04 708.101 1996.28 708.359 Q1994.53 708.592 1992.66 710.458 Q1991.64 711.477 1990.7 712.864 Q1989.75 714.251 1988.82 716.117 L1986.61 713.907 Q1987.63 712.103 1988.66 710.679 Q1989.7 709.242 1990.79 708.15 Q1993.62 705.326 1996.55 704.97 Q1999.47 704.602 2001.66 706.787 Q2003.18 708.309 2003.36 710.237 Q2003.54 712.152 2002.33 714.165 Z" fill="#000000" fill-rule="nonzero" fill-opacity="1" /><path clip-path="url(#clip490)" d="M2018.33 698.169 Q2020.49 696.77 2022.69 696.979 Q2024.9 697.175 2026.66 698.943 Q2029.38 701.656 2029 705.007 Q2028.62 708.359 2025.18 711.796 Q2024.03 712.95 2022.56 713.944 Q2021.13 714.939 2019.37 715.786 L2016.98 713.392 Q2018.61 712.962 2020.15 712.041 Q2021.68 711.121 2023.02 709.783 Q2025.35 707.45 2025.65 705.314 Q2025.95 703.166 2024.2 701.41 Q2022.58 699.79 2020.53 700.023 Q2018.48 700.232 2016.45 702.257 L2014.31 704.393 L2012.28 702.356 L2014.51 700.121 Q2016.34 698.292 2016.59 696.598 Q2016.82 694.892 2015.44 693.517 Q2014.03 692.105 2012.28 692.363 Q2010.52 692.596 2008.66 694.462 Q2007.64 695.481 2006.69 696.868 Q2005.75 698.255 2004.81 700.121 L2002.6 697.912 Q2003.62 696.107 2004.65 694.683 Q2005.7 693.247 2006.79 692.154 Q2009.61 689.331 2012.55 688.975 Q2015.47 688.606 2017.65 690.791 Q2019.18 692.314 2019.36 694.241 Q2019.53 696.156 2018.33 698.169 Z" fill="#000000" fill-rule="nonzero" fill-opacity="1" /><path clip-path="url(#clip490)" d="M2151.1 734.151 Q2149.19 736.066 2150.11 738.926 Q2151.03 741.762 2154.81 745.543 Q2158.58 749.312 2161.43 750.245 Q2164.27 751.153 2166.19 749.238 Q2168.12 747.311 2167.2 744.475 Q2166.28 741.615 2162.51 737.846 Q2158.73 734.065 2155.88 733.156 Q2153.03 732.223 2151.1 734.151 M2149.14 732.186 Q2152.22 729.105 2156.28 729.928 Q2160.35 730.726 2164.99 735.366 Q2169.61 739.994 2170.43 744.07 Q2171.24 748.121 2168.15 751.202 Q2165.07 754.283 2161.01 753.485 Q2156.95 752.663 2152.32 748.035 Q2147.68 743.395 2146.87 739.343 Q2146.06 735.268 2149.14 732.186 Z" fill="#000000" fill-rule="nonzero" fill-opacity="1" /><path clip-path="url(#clip490)" d="M2175.37 737.036 L2177.96 734.445 L2181.08 737.563 L2178.49 740.154 L2175.37 737.036 Z" fill="#000000" fill-rule="nonzero" fill-opacity="1" /><path clip-path="url(#clip490)" d="M2184.11 714.767 Q2186.27 713.367 2188.47 713.576 Q2190.68 713.772 2192.45 715.54 Q2195.16 718.253 2194.78 721.604 Q2194.4 724.956 2190.96 728.393 Q2189.81 729.547 2188.35 730.541 Q2186.91 731.536 2185.16 732.383 L2182.76 729.989 Q2184.4 729.559 2185.93 728.639 Q2187.46 727.718 2188.8 726.38 Q2191.13 724.047 2191.43 721.911 Q2191.74 719.763 2189.98 718.008 Q2188.36 716.387 2186.31 716.62 Q2184.26 716.829 2182.23 718.855 L2180.1 720.991 L2178.06 718.953 L2180.3 716.719 Q2182.12 714.889 2182.37 713.195 Q2182.6 711.489 2181.23 710.114 Q2179.82 708.702 2178.06 708.96 Q2176.31 709.193 2174.44 711.059 Q2173.42 712.078 2172.48 713.465 Q2171.53 714.853 2170.6 716.719 L2168.39 714.509 Q2169.41 712.704 2170.44 711.28 Q2171.48 709.844 2172.57 708.751 Q2175.4 705.928 2178.33 705.572 Q2181.25 705.204 2183.44 707.389 Q2184.96 708.911 2185.14 710.838 Q2185.32 712.753 2184.11 714.767 Z" fill="#000000" fill-rule="nonzero" fill-opacity="1" /><path clip-path="url(#clip490)" d="M2193.12 693.185 L2196.65 709.23 L2202.91 702.969 L2193.12 693.185 M2190.31 691.675 L2193.43 688.557 L2205.38 700.502 L2207.99 697.887 L2210.05 699.949 L2207.44 702.564 L2211.76 706.885 L2209.29 709.353 L2204.97 705.032 L2196.7 713.306 L2194.3 710.912 L2190.31 691.675 Z" fill="#000000" fill-rule="nonzero" fill-opacity="1" /><polyline clip-path="url(#clip490)" style="stroke:#000000; stroke-linecap:round; stroke-linejoin:round; stroke-width:4; stroke-opacity:1; fill:none" points="1328.14,662.16 1328.14,97.5521 "/>
<polyline clip-path="url(#clip490)" style="stroke:#000000; stroke-linecap:round; stroke-linejoin:round; stroke-width:4; stroke-opacity:1; fill:none" points="1328.14,662.16 1347.04,662.16 "/>
<polyline clip-path="url(#clip490)" style="stroke:#000000; stroke-linecap:round; stroke-linejoin:round; stroke-width:4; stroke-opacity:1; fill:none" points="1328.14,571.095 1347.04,571.095 "/>
<polyline clip-path="url(#clip490)" style="stroke:#000000; stroke-linecap:round; stroke-linejoin:round; stroke-width:4; stroke-opacity:1; fill:none" points="1328.14,480.029 1347.04,480.029 "/>
<polyline clip-path="url(#clip490)" style="stroke:#000000; stroke-linecap:round; stroke-linejoin:round; stroke-width:4; stroke-opacity:1; fill:none" points="1328.14,388.963 1347.04,388.963 "/>
<polyline clip-path="url(#clip490)" style="stroke:#000000; stroke-linecap:round; stroke-linejoin:round; stroke-width:4; stroke-opacity:1; fill:none" points="1328.14,297.897 1347.04,297.897 "/>
<polyline clip-path="url(#clip490)" style="stroke:#000000; stroke-linecap:round; stroke-linejoin:round; stroke-width:4; stroke-opacity:1; fill:none" points="1328.14,206.831 1347.04,206.831 "/>
<polyline clip-path="url(#clip490)" style="stroke:#000000; stroke-linecap:round; stroke-linejoin:round; stroke-width:4; stroke-opacity:1; fill:none" points="1328.14,115.765 1347.04,115.765 "/>
<path clip-path="url(#clip490)" d="M1283.18 651.509 Q1280.47 651.509 1279.1 654.183 Q1277.75 656.839 1277.75 662.186 Q1277.75 667.516 1279.1 670.19 Q1280.47 672.846 1283.18 672.846 Q1285.91 672.846 1287.26 670.19 Q1288.63 667.516 1288.63 662.186 Q1288.63 656.839 1287.26 654.183 Q1285.91 651.509 1283.18 651.509 M1283.18 648.732 Q1287.54 648.732 1289.83 652.186 Q1292.14 655.624 1292.14 662.186 Q1292.14 668.732 1289.83 672.186 Q1287.54 675.624 1283.18 675.624 Q1278.82 675.624 1276.51 672.186 Q1274.22 668.732 1274.22 662.186 Q1274.22 655.624 1276.51 652.186 Q1278.82 648.732 1283.18 648.732 Z" fill="#000000" fill-rule="nonzero" fill-opacity="1" /><path clip-path="url(#clip490)" d="M1253.67 581.103 L1259.39 581.103 L1259.39 561.329 L1253.16 562.579 L1253.16 559.385 L1259.36 558.135 L1262.87 558.135 L1262.87 581.103 L1268.6 581.103 L1268.6 584.055 L1253.67 584.055 L1253.67 581.103 Z" fill="#000000" fill-rule="nonzero" fill-opacity="1" /><path clip-path="url(#clip490)" d="M1283.18 560.444 Q1280.47 560.444 1279.1 563.117 Q1277.75 565.773 1277.75 571.121 Q1277.75 576.45 1279.1 579.124 Q1280.47 581.78 1283.18 581.78 Q1285.91 581.78 1287.26 579.124 Q1288.63 576.45 1288.63 571.121 Q1288.63 565.773 1287.26 563.117 Q1285.91 560.444 1283.18 560.444 M1283.18 557.666 Q1287.54 557.666 1289.83 561.121 Q1292.14 564.558 1292.14 571.121 Q1292.14 577.666 1289.83 581.121 Q1287.54 584.558 1283.18 584.558 Q1278.82 584.558 1276.51 581.121 Q1274.22 577.666 1274.22 571.121 Q1274.22 564.558 1276.51 561.121 Q1278.82 557.666 1283.18 557.666 Z" fill="#000000" fill-rule="nonzero" fill-opacity="1" /><path clip-path="url(#clip490)" d="M1256.08 490.037 L1268.32 490.037 L1268.32 492.989 L1251.86 492.989 L1251.86 490.037 Q1253.86 487.971 1257.29 484.499 Q1260.75 481.01 1261.63 480.003 Q1263.32 478.11 1263.98 476.808 Q1264.66 475.489 1264.66 474.221 Q1264.66 472.155 1263.2 470.853 Q1261.76 469.551 1259.43 469.551 Q1257.78 469.551 1255.94 470.124 Q1254.12 470.697 1252.03 471.86 L1252.03 468.319 Q1254.15 467.468 1255.99 467.034 Q1257.83 466.6 1259.36 466.6 Q1263.39 466.6 1265.78 468.614 Q1268.18 470.628 1268.18 473.996 Q1268.18 475.593 1267.57 477.034 Q1266.98 478.458 1265.4 480.402 Q1264.97 480.905 1262.64 483.319 Q1260.31 485.714 1256.08 490.037 Z" fill="#000000" fill-rule="nonzero" fill-opacity="1" /><path clip-path="url(#clip490)" d="M1283.18 469.378 Q1280.47 469.378 1279.1 472.051 Q1277.75 474.708 1277.75 480.055 Q1277.75 485.385 1279.1 488.058 Q1280.47 490.714 1283.18 490.714 Q1285.91 490.714 1287.26 488.058 Q1288.63 485.385 1288.63 480.055 Q1288.63 474.708 1287.26 472.051 Q1285.91 469.378 1283.18 469.378 M1283.18 466.6 Q1287.54 466.6 1289.83 470.055 Q1292.14 473.492 1292.14 480.055 Q1292.14 486.6 1289.83 490.055 Q1287.54 493.492 1283.18 493.492 Q1278.82 493.492 1276.51 490.055 Q1274.22 486.6 1274.22 480.055 Q1274.22 473.492 1276.51 470.055 Q1278.82 466.6 1283.18 466.6 Z" fill="#000000" fill-rule="nonzero" fill-opacity="1" /><path clip-path="url(#clip490)" d="M1263.68 387.947 Q1266.2 388.485 1267.61 390.187 Q1269.03 391.888 1269.03 394.388 Q1269.03 398.225 1266.39 400.326 Q1263.75 402.426 1258.89 402.426 Q1257.26 402.426 1255.52 402.096 Q1253.8 401.784 1251.96 401.142 L1251.96 397.756 Q1253.42 398.607 1255.16 399.041 Q1256.89 399.475 1258.79 399.475 Q1262.09 399.475 1263.8 398.173 Q1265.54 396.871 1265.54 394.388 Q1265.54 392.096 1263.93 390.812 Q1262.33 389.51 1259.46 389.51 L1256.44 389.51 L1256.44 386.628 L1259.6 386.628 Q1262.19 386.628 1263.56 385.603 Q1264.93 384.562 1264.93 382.617 Q1264.93 380.621 1263.51 379.562 Q1262.1 378.485 1259.46 378.485 Q1258.02 378.485 1256.37 378.798 Q1254.72 379.11 1252.75 379.77 L1252.75 376.645 Q1254.74 376.09 1256.48 375.812 Q1258.23 375.534 1259.78 375.534 Q1263.77 375.534 1266.1 377.357 Q1268.42 379.163 1268.42 382.253 Q1268.42 384.406 1267.19 385.899 Q1265.96 387.374 1263.68 387.947 Z" fill="#000000" fill-rule="nonzero" fill-opacity="1" /><path clip-path="url(#clip490)" d="M1283.18 378.312 Q1280.47 378.312 1279.1 380.985 Q1277.75 383.642 1277.75 388.989 Q1277.75 394.319 1279.1 396.992 Q1280.47 399.649 1283.18 399.649 Q1285.91 399.649 1287.26 396.992 Q1288.63 394.319 1288.63 388.989 Q1288.63 383.642 1287.26 380.985 Q1285.91 378.312 1283.18 378.312 M1283.18 375.534 Q1287.54 375.534 1289.83 378.989 Q1292.14 382.426 1292.14 388.989 Q1292.14 395.534 1289.83 398.989 Q1287.54 402.426 1283.18 402.426 Q1278.82 402.426 1276.51 398.989 Q1274.22 395.534 1274.22 388.989 Q1274.22 382.426 1276.51 378.989 Q1278.82 375.534 1283.18 375.534 Z" fill="#000000" fill-rule="nonzero" fill-opacity="1" /><path clip-path="url(#clip490)" d="M1262.69 287.993 L1253.84 301.829 L1262.69 301.829 L1262.69 287.993 M1261.77 284.937 L1266.18 284.937 L1266.18 301.829 L1269.88 301.829 L1269.88 304.746 L1266.18 304.746 L1266.18 310.857 L1262.69 310.857 L1262.69 304.746 L1250.99 304.746 L1250.99 301.361 L1261.77 284.937 Z" fill="#000000" fill-rule="nonzero" fill-opacity="1" /><path clip-path="url(#clip490)" d="M1283.18 287.246 Q1280.47 287.246 1279.1 289.92 Q1277.75 292.576 1277.75 297.923 Q1277.75 303.253 1279.1 305.926 Q1280.47 308.583 1283.18 308.583 Q1285.91 308.583 1287.26 305.926 Q1288.63 303.253 1288.63 297.923 Q1288.63 292.576 1287.26 289.92 Q1285.91 287.246 1283.18 287.246 M1283.18 284.468 Q1287.54 284.468 1289.83 287.923 Q1292.14 291.361 1292.14 297.923 Q1292.14 304.468 1289.83 307.923 Q1287.54 311.36 1283.18 311.36 Q1278.82 311.36 1276.51 307.923 Q1274.22 304.468 1274.22 297.923 Q1274.22 291.361 1276.51 287.923 Q1278.82 284.468 1283.18 284.468 Z" fill="#000000" fill-rule="nonzero" fill-opacity="1" /><path clip-path="url(#clip490)" d="M1253.09 193.871 L1266.86 193.871 L1266.86 196.823 L1256.3 196.823 L1256.3 203.177 Q1257.07 202.916 1257.83 202.795 Q1258.6 202.656 1259.36 202.656 Q1263.7 202.656 1266.24 205.034 Q1268.77 207.413 1268.77 211.475 Q1268.77 215.659 1266.17 217.986 Q1263.56 220.295 1258.82 220.295 Q1257.19 220.295 1255.49 220.017 Q1253.8 219.739 1252 219.184 L1252 215.659 Q1253.56 216.51 1255.23 216.927 Q1256.89 217.343 1258.75 217.343 Q1261.76 217.343 1263.51 215.763 Q1265.26 214.184 1265.26 211.475 Q1265.26 208.767 1263.51 207.187 Q1261.76 205.607 1258.75 205.607 Q1257.35 205.607 1255.94 205.92 Q1254.55 206.232 1253.09 206.892 L1253.09 193.871 Z" fill="#000000" fill-rule="nonzero" fill-opacity="1" /><path clip-path="url(#clip490)" d="M1283.18 196.18 Q1280.47 196.18 1279.1 198.854 Q1277.75 201.51 1277.75 206.857 Q1277.75 212.187 1279.1 214.861 Q1280.47 217.517 1283.18 217.517 Q1285.91 217.517 1287.26 214.861 Q1288.63 212.187 1288.63 206.857 Q1288.63 201.51 1287.26 198.854 Q1285.91 196.18 1283.18 196.18 M1283.18 193.402 Q1287.54 193.402 1289.83 196.857 Q1292.14 200.295 1292.14 206.857 Q1292.14 213.402 1289.83 216.857 Q1287.54 220.295 1283.18 220.295 Q1278.82 220.295 1276.51 216.857 Q1274.22 213.402 1274.22 206.857 Q1274.22 200.295 1276.51 196.857 Q1278.82 193.402 1283.18 193.402 Z" fill="#000000" fill-rule="nonzero" fill-opacity="1" /><path clip-path="url(#clip490)" d="M1260.99 114.368 Q1258.63 114.368 1257.24 115.982 Q1255.87 117.597 1255.87 120.409 Q1255.87 123.204 1257.24 124.836 Q1258.63 126.451 1260.99 126.451 Q1263.35 126.451 1264.72 124.836 Q1266.11 123.204 1266.11 120.409 Q1266.11 117.597 1264.72 115.982 Q1263.35 114.368 1260.99 114.368 M1267.95 103.378 L1267.95 106.573 Q1266.63 105.948 1265.28 105.618 Q1263.94 105.288 1262.62 105.288 Q1259.15 105.288 1257.31 107.632 Q1255.49 109.975 1255.23 114.715 Q1256.25 113.205 1257.8 112.406 Q1259.34 111.59 1261.2 111.59 Q1265.11 111.59 1267.36 113.968 Q1269.64 116.33 1269.64 120.409 Q1269.64 124.402 1267.28 126.816 Q1264.92 129.229 1260.99 129.229 Q1256.5 129.229 1254.12 125.791 Q1251.74 122.336 1251.74 115.791 Q1251.74 109.646 1254.66 106 Q1257.57 102.337 1262.49 102.337 Q1263.8 102.337 1265.14 102.597 Q1266.5 102.857 1267.95 103.378 Z" fill="#000000" fill-rule="nonzero" fill-opacity="1" /><path clip-path="url(#clip490)" d="M1283.18 105.114 Q1280.47 105.114 1279.1 107.788 Q1277.75 110.444 1277.75 115.791 Q1277.75 121.121 1279.1 123.795 Q1280.47 126.451 1283.18 126.451 Q1285.91 126.451 1287.26 123.795 Q1288.63 121.121 1288.63 115.791 Q1288.63 110.444 1287.26 107.788 Q1285.91 105.114 1283.18 105.114 M1283.18 102.337 Q1287.54 102.337 1289.83 105.791 Q1292.14 109.229 1292.14 115.791 Q1292.14 122.336 1289.83 125.791 Q1287.54 129.229 1283.18 129.229 Q1278.82 129.229 1276.51 125.791 Q1274.22 122.336 1274.22 115.791 Q1274.22 109.229 1276.51 105.791 Q1278.82 102.337 1283.18 102.337 Z" fill="#000000" fill-rule="nonzero" fill-opacity="1" /><path clip-path="url(#clip490)" d="M1340.04 18.9258 Q1336.52 18.9258 1334.62 21.4721 Q1332.63 24.1341 1332.63 28.5323 Q1332.63 33.185 1334.6 35.8702 Q1336.59 38.5322 1340.04 38.5322 Q1343.44 38.5322 1345.43 35.847 Q1347.42 33.1619 1347.42 28.5323 Q1347.42 24.2962 1345.43 21.4721 Q1343.6 18.9258 1340.04 18.9258 M1340.04 15.5462 L1354.18 15.5462 L1354.18 19.8054 L1349.41 19.8054 Q1351.93 23.4165 1351.93 28.5323 Q1351.93 34.898 1348.76 38.5091 Q1345.59 42.1433 1340.04 42.1433 Q1334.46 42.1433 1331.31 38.5091 Q1328.14 34.898 1328.14 28.5323 Q1328.14 22.1203 1331.31 18.5323 Q1333.92 15.5462 1340.04 15.5462 Z" fill="#000000" fill-rule="nonzero" fill-opacity="1" /><path clip-path="url(#clip490)" d="M1378.35 19.6666 Q1377.49 19.3656 1376.63 19.1342 Q1374.34 18.5323 1371.89 18.5323 Q1367.65 18.5323 1365.29 20.824 Q1363.09 22.9536 1362.67 26.8656 L1378.35 26.8656 L1378.35 30.1989 L1362.67 30.1989 Q1363.09 34.1109 1365.29 36.2405 Q1367.65 38.5322 1371.89 38.5322 Q1374.85 38.5322 1376.63 37.9304 L1378.35 37.3517 L1378.35 41.2174 L1376.52 41.634 Q1374.11 42.1433 1371.63 42.1433 Q1365.43 42.1433 1361.82 38.5322 Q1358.18 34.9211 1358.18 28.5323 Q1358.18 22.1434 1361.82 18.5323 Q1365.43 14.9212 1371.63 14.9212 Q1373.97 14.9212 1376.52 15.4305 Q1377.44 15.6157 1378.35 15.8934 L1378.35 19.6666 Z" fill="#000000" fill-rule="nonzero" fill-opacity="1" /><path clip-path="url(#clip493)" d="M1384.49 543.775 L1384.49 662.16 L1475.68 662.16 L1475.68 543.775 L1384.49 543.775 L1384.49 543.775  Z" fill="#009af9" fill-rule="evenodd" fill-opacity="1"/>
<polyline clip-path="url(#clip493)" style="stroke:#000000; stroke-linecap:round; stroke-linejoin:round; stroke-width:4; stroke-opacity:1; fill:none" points="1384.49,543.775 1384.49,662.16 1475.68,662.16 1475.68,543.775 1384.49,543.775 "/>
<path clip-path="url(#clip493)" d="M1475.68 662.16 L1475.68 662.16 L1566.87 662.16 L1566.87 662.16 L1475.68 662.16 L1475.68 662.16  Z" fill="#009af9" fill-rule="evenodd" fill-opacity="1"/>
<polyline clip-path="url(#clip493)" style="stroke:#000000; stroke-linecap:round; stroke-linejoin:round; stroke-width:4; stroke-opacity:1; fill:none" points="1475.68,662.16 1475.68,662.16 1566.87,662.16 1475.68,662.16 "/>
<path clip-path="url(#clip493)" d="M1566.87 662.16 L1566.87 662.16 L1658.07 662.16 L1658.07 662.16 L1566.87 662.16 L1566.87 662.16  Z" fill="#009af9" fill-rule="evenodd" fill-opacity="1"/>
<polyline clip-path="url(#clip493)" style="stroke:#000000; stroke-linecap:round; stroke-linejoin:round; stroke-width:4; stroke-opacity:1; fill:none" points="1566.87,662.16 1566.87,662.16 1658.07,662.16 1566.87,662.16 "/>
<path clip-path="url(#clip493)" d="M1658.07 653.054 L1658.07 662.16 L1749.26 662.16 L1749.26 653.054 L1658.07 653.054 L1658.07 653.054  Z" fill="#009af9" fill-rule="evenodd" fill-opacity="1"/>
<polyline clip-path="url(#clip493)" style="stroke:#000000; stroke-linecap:round; stroke-linejoin:round; stroke-width:4; stroke-opacity:1; fill:none" points="1658.07,653.054 1658.07,662.16 1749.26,662.16 1749.26,653.054 1658.07,653.054 "/>
<path clip-path="url(#clip493)" d="M1749.26 452.709 L1749.26 662.16 L1840.45 662.16 L1840.45 452.709 L1749.26 452.709 L1749.26 452.709  Z" fill="#009af9" fill-rule="evenodd" fill-opacity="1"/>
<polyline clip-path="url(#clip493)" style="stroke:#000000; stroke-linecap:round; stroke-linejoin:round; stroke-width:4; stroke-opacity:1; fill:none" points="1749.26,452.709 1749.26,662.16 1840.45,662.16 1840.45,452.709 1749.26,452.709 "/>
<path clip-path="url(#clip493)" d="M1840.45 279.684 L1840.45 662.16 L1931.64 662.16 L1931.64 279.684 L1840.45 279.684 L1840.45 279.684  Z" fill="#009af9" fill-rule="evenodd" fill-opacity="1"/>
<polyline clip-path="url(#clip493)" style="stroke:#000000; stroke-linecap:round; stroke-linejoin:round; stroke-width:4; stroke-opacity:1; fill:none" points="1840.45,279.684 1840.45,662.16 1931.64,662.16 1931.64,279.684 1840.45,279.684 "/>
<path clip-path="url(#clip493)" d="M1931.64 97.5521 L1931.64 662.16 L2022.83 662.16 L2022.83 97.5521 L1931.64 97.5521 L1931.64 97.5521  Z" fill="#009af9" fill-rule="evenodd" fill-opacity="1"/>
<polyline clip-path="url(#clip493)" style="stroke:#000000; stroke-linecap:round; stroke-linejoin:round; stroke-width:4; stroke-opacity:1; fill:none" points="1931.64,97.5521 1931.64,662.16 2022.83,662.16 2022.83,97.5521 1931.64,97.5521 "/>
<path clip-path="url(#clip493)" d="M2022.83 243.257 L2022.83 662.16 L2114.02 662.16 L2114.02 243.257 L2022.83 243.257 L2022.83 243.257  Z" fill="#009af9" fill-rule="evenodd" fill-opacity="1"/>
<polyline clip-path="url(#clip493)" style="stroke:#000000; stroke-linecap:round; stroke-linejoin:round; stroke-width:4; stroke-opacity:1; fill:none" points="2022.83,243.257 2022.83,662.16 2114.02,662.16 2114.02,243.257 2022.83,243.257 "/>
<path clip-path="url(#clip493)" d="M2114.02 516.455 L2114.02 662.16 L2205.21 662.16 L2205.21 516.455 L2114.02 516.455 L2114.02 516.455  Z" fill="#009af9" fill-rule="evenodd" fill-opacity="1"/>
<polyline clip-path="url(#clip493)" style="stroke:#000000; stroke-linecap:round; stroke-linejoin:round; stroke-width:4; stroke-opacity:1; fill:none" points="2114.02,516.455 2114.02,662.16 2205.21,662.16 2205.21,516.455 2114.02,516.455 "/>
<path clip-path="url(#clip493)" d="M2205.21 498.242 L2205.21 662.16 L2296.4 662.16 L2296.4 498.242 L2205.21 498.242 L2205.21 498.242  Z" fill="#009af9" fill-rule="evenodd" fill-opacity="1"/>
<polyline clip-path="url(#clip493)" style="stroke:#000000; stroke-linecap:round; stroke-linejoin:round; stroke-width:4; stroke-opacity:1; fill:none" points="2205.21,498.242 2205.21,662.16 2296.4,662.16 2296.4,498.242 2205.21,498.242 "/>
<circle clip-path="url(#clip493)" style="fill:#009af9; stroke:none; fill-opacity:0" cx="1430.09" cy="543.775" r="2"/>
<circle clip-path="url(#clip493)" style="fill:#009af9; stroke:none; fill-opacity:0" cx="1521.28" cy="662.16" r="2"/>
<circle clip-path="url(#clip493)" style="fill:#009af9; stroke:none; fill-opacity:0" cx="1612.47" cy="662.16" r="2"/>
<circle clip-path="url(#clip493)" style="fill:#009af9; stroke:none; fill-opacity:0" cx="1703.66" cy="653.054" r="2"/>
<circle clip-path="url(#clip493)" style="fill:#009af9; stroke:none; fill-opacity:0" cx="1794.85" cy="452.709" r="2"/>
<circle clip-path="url(#clip493)" style="fill:#009af9; stroke:none; fill-opacity:0" cx="1886.04" cy="279.684" r="2"/>
<circle clip-path="url(#clip493)" style="fill:#009af9; stroke:none; fill-opacity:0" cx="1977.23" cy="97.5521" r="2"/>
<circle clip-path="url(#clip493)" style="fill:#009af9; stroke:none; fill-opacity:0" cx="2068.42" cy="243.257" r="2"/>
<circle clip-path="url(#clip493)" style="fill:#009af9; stroke:none; fill-opacity:0" cx="2159.61" cy="516.455" r="2"/>
<circle clip-path="url(#clip493)" style="fill:#009af9; stroke:none; fill-opacity:0" cx="2250.8" cy="498.242" r="2"/>
<polyline clip-path="url(#clip493)" style="stroke:#ff0000; stroke-linecap:round; stroke-linejoin:round; stroke-width:8; stroke-opacity:1; fill:none" stroke-dasharray="32, 20" points="1898.48,1226.77 1898.48,-467.056 "/>
<polyline clip-path="url(#clip493)" style="stroke:#ff0000; stroke-linecap:round; stroke-linejoin:round; stroke-width:6; stroke-opacity:1; fill:none" stroke-dasharray="24, 12, 3, 12" points="1426.61,1226.77 1426.61,-467.056 "/>
<polyline clip-path="url(#clip493)" style="stroke:#ff0000; stroke-linecap:round; stroke-linejoin:round; stroke-width:6; stroke-opacity:1; fill:none" stroke-dasharray="24, 12, 3, 12" points="2271.57,1226.77 2271.57,-467.056 "/>
<path clip-path="url(#clip490)" d="M128.138 1456.91 L1152.76 1456.91 L1152.76 892.306 L128.138 892.306  Z" fill="#ffffff" fill-rule="evenodd" fill-opacity="1"/>
<defs>
  <clipPath id="clip494">
    <rect x="128" y="892" width="1026" height="566"/>
  </clipPath>
</defs>
<polyline clip-path="url(#clip494)" style="stroke:#000000; stroke-linecap:round; stroke-linejoin:round; stroke-width:2; stroke-opacity:0.1; fill:none" points="184.494,1456.91 184.494,892.306 "/>
<polyline clip-path="url(#clip494)" style="stroke:#000000; stroke-linecap:round; stroke-linejoin:round; stroke-width:2; stroke-opacity:0.1; fill:none" points="366.875,1456.91 366.875,892.306 "/>
<polyline clip-path="url(#clip494)" style="stroke:#000000; stroke-linecap:round; stroke-linejoin:round; stroke-width:2; stroke-opacity:0.1; fill:none" points="549.256,1456.91 549.256,892.306 "/>
<polyline clip-path="url(#clip494)" style="stroke:#000000; stroke-linecap:round; stroke-linejoin:round; stroke-width:2; stroke-opacity:0.1; fill:none" points="731.637,1456.91 731.637,892.306 "/>
<polyline clip-path="url(#clip494)" style="stroke:#000000; stroke-linecap:round; stroke-linejoin:round; stroke-width:2; stroke-opacity:0.1; fill:none" points="914.019,1456.91 914.019,892.306 "/>
<polyline clip-path="url(#clip494)" style="stroke:#000000; stroke-linecap:round; stroke-linejoin:round; stroke-width:2; stroke-opacity:0.1; fill:none" points="1096.4,1456.91 1096.4,892.306 "/>
<polyline clip-path="url(#clip494)" style="stroke:#000000; stroke-linecap:round; stroke-linejoin:round; stroke-width:2; stroke-opacity:0.1; fill:none" points="128.138,1456.91 1152.76,1456.91 "/>
<polyline clip-path="url(#clip494)" style="stroke:#000000; stroke-linecap:round; stroke-linejoin:round; stroke-width:2; stroke-opacity:0.1; fill:none" points="128.138,1300.08 1152.76,1300.08 "/>
<polyline clip-path="url(#clip494)" style="stroke:#000000; stroke-linecap:round; stroke-linejoin:round; stroke-width:2; stroke-opacity:0.1; fill:none" points="128.138,1143.24 1152.76,1143.24 "/>
<polyline clip-path="url(#clip494)" style="stroke:#000000; stroke-linecap:round; stroke-linejoin:round; stroke-width:2; stroke-opacity:0.1; fill:none" points="128.138,986.408 1152.76,986.408 "/>
<polyline clip-path="url(#clip490)" style="stroke:#000000; stroke-linecap:round; stroke-linejoin:round; stroke-width:4; stroke-opacity:1; fill:none" points="128.138,1456.91 1152.76,1456.91 "/>
<polyline clip-path="url(#clip490)" style="stroke:#000000; stroke-linecap:round; stroke-linejoin:round; stroke-width:4; stroke-opacity:1; fill:none" points="184.494,1456.91 184.494,1438.02 "/>
<polyline clip-path="url(#clip490)" style="stroke:#000000; stroke-linecap:round; stroke-linejoin:round; stroke-width:4; stroke-opacity:1; fill:none" points="366.875,1456.91 366.875,1438.02 "/>
<polyline clip-path="url(#clip490)" style="stroke:#000000; stroke-linecap:round; stroke-linejoin:round; stroke-width:4; stroke-opacity:1; fill:none" points="549.256,1456.91 549.256,1438.02 "/>
<polyline clip-path="url(#clip490)" style="stroke:#000000; stroke-linecap:round; stroke-linejoin:round; stroke-width:4; stroke-opacity:1; fill:none" points="731.637,1456.91 731.637,1438.02 "/>
<polyline clip-path="url(#clip490)" style="stroke:#000000; stroke-linecap:round; stroke-linejoin:round; stroke-width:4; stroke-opacity:1; fill:none" points="914.019,1456.91 914.019,1438.02 "/>
<polyline clip-path="url(#clip490)" style="stroke:#000000; stroke-linecap:round; stroke-linejoin:round; stroke-width:4; stroke-opacity:1; fill:none" points="1096.4,1456.91 1096.4,1438.02 "/>
<path clip-path="url(#clip490)" d="M114.649 1544.64 Q112.734 1546.56 113.654 1549.42 Q114.575 1552.25 118.356 1556.03 Q122.125 1559.8 124.973 1560.74 Q127.821 1561.65 129.736 1559.73 Q131.663 1557.8 130.743 1554.97 Q129.822 1552.11 126.053 1548.34 Q122.272 1544.56 119.424 1543.65 Q116.576 1542.72 114.649 1544.64 M112.685 1542.68 Q115.766 1539.6 119.829 1540.42 Q123.893 1541.22 128.533 1545.86 Q133.161 1550.49 133.971 1554.56 Q134.782 1558.61 131.7 1561.69 Q128.619 1564.78 124.556 1563.98 Q120.492 1563.15 115.864 1558.53 Q111.224 1553.89 110.413 1549.84 Q109.603 1545.76 112.685 1542.68 Z" fill="#000000" fill-rule="nonzero" fill-opacity="1" /><path clip-path="url(#clip490)" d="M138.919 1547.53 L141.509 1544.94 L144.627 1548.06 L142.037 1550.65 L138.919 1547.53 Z" fill="#000000" fill-rule="nonzero" fill-opacity="1" /><path clip-path="url(#clip490)" d="M131.725 1524.3 L141.46 1514.57 L143.547 1516.65 L136.083 1524.12 L140.576 1528.61 Q140.932 1527.89 141.386 1527.26 Q141.828 1526.62 142.368 1526.08 Q145.437 1523.01 148.911 1522.9 Q152.385 1522.79 155.258 1525.66 Q158.217 1528.62 158.02 1532.11 Q157.811 1535.58 154.46 1538.93 Q153.306 1540.09 151.907 1541.09 Q150.519 1542.09 148.85 1542.97 L146.358 1540.48 Q148.064 1539.98 149.537 1539.09 Q151.011 1538.21 152.324 1536.9 Q154.448 1534.77 154.571 1532.42 Q154.693 1530.06 152.778 1528.14 Q150.863 1526.23 148.506 1526.35 Q146.149 1526.47 144.025 1528.6 Q143.031 1529.59 142.258 1530.81 Q141.497 1532.01 140.932 1533.51 L131.725 1524.3 Z" fill="#000000" fill-rule="nonzero" fill-opacity="1" /><path clip-path="url(#clip490)" d="M163.655 1509.26 Q165.815 1507.86 168.013 1508.07 Q170.223 1508.27 171.99 1510.04 Q174.703 1512.75 174.323 1516.1 Q173.942 1519.45 170.505 1522.89 Q169.351 1524.04 167.89 1525.04 Q166.454 1526.03 164.698 1526.88 L162.305 1524.49 Q163.937 1524.06 165.472 1523.13 Q167.006 1522.21 168.344 1520.88 Q170.677 1518.54 170.971 1516.41 Q171.278 1514.26 169.523 1512.5 Q167.902 1510.88 165.852 1511.12 Q163.802 1511.33 161.777 1513.35 L159.641 1515.49 L157.603 1513.45 L159.837 1511.21 Q161.666 1509.39 161.912 1507.69 Q162.145 1505.99 160.77 1504.61 Q159.358 1503.2 157.603 1503.46 Q155.847 1503.69 153.981 1505.56 Q152.962 1506.57 152.017 1507.96 Q151.072 1509.35 150.139 1511.21 L147.929 1509.01 Q148.948 1507.2 149.979 1505.78 Q151.023 1504.34 152.115 1503.25 Q154.939 1500.42 157.873 1500.07 Q160.795 1499.7 162.98 1501.88 Q164.502 1503.41 164.686 1505.33 Q164.858 1507.25 163.655 1509.26 Z" fill="#000000" fill-rule="nonzero" fill-opacity="1" /><path clip-path="url(#clip490)" d="M170.628 1488.66 Q168.713 1490.58 169.633 1493.44 Q170.554 1496.27 174.335 1500.06 Q178.104 1503.82 180.952 1504.76 Q183.8 1505.67 185.715 1503.75 Q187.642 1501.82 186.722 1498.99 Q185.801 1496.13 182.032 1492.36 Q178.251 1488.58 175.403 1487.67 Q172.555 1486.74 170.628 1488.66 M168.664 1486.7 Q171.745 1483.62 175.808 1484.44 Q179.872 1485.24 184.512 1489.88 Q189.14 1494.51 189.95 1498.58 Q190.761 1502.63 187.679 1505.72 Q184.598 1508.8 180.535 1508 Q176.471 1507.18 171.843 1502.55 Q167.203 1497.91 166.392 1493.86 Q165.582 1489.78 168.664 1486.7 Z" fill="#000000" fill-rule="nonzero" fill-opacity="1" /><path clip-path="url(#clip490)" d="M297.558 1544.11 Q295.643 1546.03 296.564 1548.89 Q297.484 1551.73 301.265 1555.51 Q305.034 1559.28 307.882 1560.21 Q310.73 1561.12 312.645 1559.2 Q314.573 1557.27 313.652 1554.44 Q312.731 1551.58 308.962 1547.81 Q305.181 1544.03 302.333 1543.12 Q299.485 1542.19 297.558 1544.11 M295.594 1542.15 Q298.675 1539.07 302.738 1539.89 Q306.802 1540.69 311.442 1545.33 Q316.07 1549.96 316.88 1554.03 Q317.691 1558.08 314.609 1561.17 Q311.528 1564.25 307.465 1563.45 Q303.401 1562.63 298.773 1558 Q294.133 1553.36 293.323 1549.31 Q292.512 1545.23 295.594 1542.15 Z" fill="#000000" fill-rule="nonzero" fill-opacity="1" /><path clip-path="url(#clip490)" d="M321.828 1547 L324.418 1544.41 L327.536 1547.53 L324.946 1550.12 L321.828 1547 Z" fill="#000000" fill-rule="nonzero" fill-opacity="1" /><path clip-path="url(#clip490)" d="M314.634 1523.77 L324.369 1514.04 L326.456 1516.13 L318.992 1523.59 L323.485 1528.08 Q323.841 1527.36 324.295 1526.73 Q324.737 1526.09 325.277 1525.55 Q328.346 1522.48 331.82 1522.37 Q335.295 1522.26 338.167 1525.14 Q341.126 1528.09 340.929 1531.58 Q340.721 1535.05 337.369 1538.41 Q336.215 1539.56 334.816 1540.57 Q333.429 1541.56 331.759 1542.45 L329.267 1539.95 Q330.973 1539.45 332.447 1538.57 Q333.92 1537.68 335.233 1536.37 Q337.357 1534.24 337.48 1531.89 Q337.603 1529.53 335.687 1527.62 Q333.772 1525.7 331.415 1525.82 Q329.058 1525.95 326.935 1528.07 Q325.94 1529.06 325.167 1530.28 Q324.406 1531.48 323.841 1532.98 L314.634 1523.77 Z" fill="#000000" fill-rule="nonzero" fill-opacity="1" /><path clip-path="url(#clip490)" d="M346.564 1508.74 Q348.725 1507.34 350.922 1507.54 Q353.132 1507.74 354.9 1509.51 Q357.613 1512.22 357.232 1515.57 Q356.851 1518.92 353.414 1522.36 Q352.26 1523.52 350.799 1524.51 Q349.363 1525.5 347.608 1526.35 L345.214 1523.96 Q346.846 1523.53 348.381 1522.61 Q349.915 1521.69 351.254 1520.35 Q353.586 1518.02 353.881 1515.88 Q354.188 1513.73 352.432 1511.98 Q350.812 1510.36 348.761 1510.59 Q346.711 1510.8 344.686 1512.82 L342.55 1514.96 L340.512 1512.92 L342.746 1510.69 Q344.575 1508.86 344.821 1507.16 Q345.054 1505.46 343.679 1504.08 Q342.267 1502.67 340.512 1502.93 Q338.756 1503.16 336.891 1505.03 Q335.872 1506.05 334.926 1507.43 Q333.981 1508.82 333.048 1510.69 L330.838 1508.48 Q331.857 1506.67 332.889 1505.25 Q333.932 1503.81 335.025 1502.72 Q337.848 1499.9 340.782 1499.54 Q343.704 1499.17 345.889 1501.36 Q347.411 1502.88 347.595 1504.81 Q347.767 1506.72 346.564 1508.74 Z" fill="#000000" fill-rule="nonzero" fill-opacity="1" /><path clip-path="url(#clip490)" d="M346.625 1491.78 L356.36 1482.05 L358.447 1484.13 L350.983 1491.6 L355.477 1496.09 Q355.833 1495.37 356.287 1494.74 Q356.729 1494.1 357.269 1493.56 Q360.338 1490.49 363.812 1490.38 Q367.286 1490.27 370.159 1493.14 Q373.117 1496.1 372.921 1499.59 Q372.712 1503.06 369.361 1506.41 Q368.207 1507.57 366.807 1508.58 Q365.42 1509.57 363.751 1510.45 L361.259 1507.96 Q362.965 1507.46 364.438 1506.57 Q365.911 1505.69 367.225 1504.38 Q369.348 1502.25 369.471 1499.9 Q369.594 1497.54 367.679 1495.62 Q365.764 1493.71 363.407 1493.83 Q361.05 1493.95 358.926 1496.08 Q357.932 1497.07 357.158 1498.29 Q356.397 1499.49 355.833 1500.99 L346.625 1491.78 Z" fill="#000000" fill-rule="nonzero" fill-opacity="1" /><path clip-path="url(#clip490)" d="M479.411 1544.64 Q477.496 1546.56 478.417 1549.42 Q479.338 1552.25 483.119 1556.03 Q486.887 1559.8 489.736 1560.74 Q492.584 1561.65 494.499 1559.73 Q496.426 1557.8 495.505 1554.97 Q494.585 1552.11 490.816 1548.34 Q487.035 1544.56 484.187 1543.65 Q481.339 1542.72 479.411 1544.64 M477.447 1542.68 Q480.528 1539.6 484.592 1540.42 Q488.655 1541.22 493.296 1545.86 Q497.924 1550.49 498.734 1554.56 Q499.544 1558.61 496.463 1561.69 Q493.382 1564.78 489.318 1563.98 Q485.255 1563.15 480.627 1558.53 Q475.986 1553.89 475.176 1549.84 Q474.366 1545.76 477.447 1542.68 Z" fill="#000000" fill-rule="nonzero" fill-opacity="1" /><path clip-path="url(#clip490)" d="M503.681 1547.53 L506.271 1544.94 L509.39 1548.06 L506.799 1550.65 L503.681 1547.53 Z" fill="#000000" fill-rule="nonzero" fill-opacity="1" /><path clip-path="url(#clip490)" d="M496.487 1524.3 L506.222 1514.57 L508.309 1516.65 L500.845 1524.12 L505.338 1528.61 Q505.694 1527.89 506.149 1527.26 Q506.591 1526.62 507.131 1526.08 Q510.2 1523.01 513.674 1522.9 Q517.148 1522.79 520.021 1525.66 Q522.979 1528.62 522.783 1532.11 Q522.574 1535.58 519.223 1538.93 Q518.069 1540.09 516.669 1541.09 Q515.282 1542.09 513.613 1542.97 L511.12 1540.48 Q512.827 1539.98 514.3 1539.09 Q515.773 1538.21 517.087 1536.9 Q519.21 1534.77 519.333 1532.42 Q519.456 1530.06 517.541 1528.14 Q515.626 1526.23 513.269 1526.35 Q510.912 1526.47 508.788 1528.6 Q507.794 1529.59 507.02 1530.81 Q506.259 1532.01 505.694 1533.51 L496.487 1524.3 Z" fill="#000000" fill-rule="nonzero" fill-opacity="1" /><path clip-path="url(#clip490)" d="M521.432 1503.68 L524.956 1519.72 L531.216 1513.46 L521.432 1503.68 M518.621 1502.17 L521.739 1499.05 L533.684 1510.99 L536.299 1508.38 L538.361 1510.44 L535.746 1513.06 L540.068 1517.38 L537.6 1519.84 L533.279 1515.52 L525.005 1523.8 L522.611 1521.4 L518.621 1502.17 Z" fill="#000000" fill-rule="nonzero" fill-opacity="1" /><path clip-path="url(#clip490)" d="M535.39 1488.66 Q533.475 1490.58 534.396 1493.44 Q535.317 1496.27 539.098 1500.06 Q542.866 1503.82 545.715 1504.76 Q548.563 1505.67 550.478 1503.75 Q552.405 1501.82 551.484 1498.99 Q550.564 1496.13 546.795 1492.36 Q543.014 1488.58 540.166 1487.67 Q537.318 1486.74 535.39 1488.66 M533.426 1486.7 Q536.507 1483.62 540.571 1484.44 Q544.634 1485.24 549.275 1489.88 Q553.903 1494.51 554.713 1498.58 Q555.523 1502.63 552.442 1505.72 Q549.361 1508.8 545.297 1508 Q541.234 1507.18 536.606 1502.55 Q531.965 1497.91 531.155 1493.86 Q530.345 1489.78 533.426 1486.7 Z" fill="#000000" fill-rule="nonzero" fill-opacity="1" /><path clip-path="url(#clip490)" d="M662.321 1544.11 Q660.405 1546.03 661.326 1548.89 Q662.247 1551.73 666.028 1555.51 Q669.797 1559.28 672.645 1560.21 Q675.493 1561.12 677.408 1559.2 Q679.335 1557.27 678.414 1554.44 Q677.494 1551.58 673.725 1547.81 Q669.944 1544.03 667.096 1543.12 Q664.248 1542.19 662.321 1544.11 M660.356 1542.15 Q663.438 1539.07 667.501 1539.89 Q671.564 1540.69 676.205 1545.33 Q680.833 1549.96 681.643 1554.03 Q682.453 1558.08 679.372 1561.17 Q676.291 1564.25 672.227 1563.45 Q668.164 1562.63 663.536 1558 Q658.895 1553.36 658.085 1549.31 Q657.275 1545.23 660.356 1542.15 Z" fill="#000000" fill-rule="nonzero" fill-opacity="1" /><path clip-path="url(#clip490)" d="M686.59 1547 L689.181 1544.41 L692.299 1547.53 L689.708 1550.12 L686.59 1547 Z" fill="#000000" fill-rule="nonzero" fill-opacity="1" /><path clip-path="url(#clip490)" d="M679.397 1523.77 L689.132 1514.04 L691.218 1516.13 L683.755 1523.59 L688.248 1528.08 Q688.604 1527.36 689.058 1526.73 Q689.5 1526.09 690.04 1525.55 Q693.109 1522.48 696.583 1522.37 Q700.057 1522.26 702.93 1525.14 Q705.888 1528.09 705.692 1531.58 Q705.483 1535.05 702.132 1538.41 Q700.978 1539.56 699.578 1540.57 Q698.191 1541.56 696.522 1542.45 L694.03 1539.95 Q695.736 1539.45 697.209 1538.57 Q698.682 1537.68 699.996 1536.37 Q702.12 1534.24 702.242 1531.89 Q702.365 1529.53 700.45 1527.62 Q698.535 1525.7 696.178 1525.82 Q693.821 1525.95 691.697 1528.07 Q690.703 1529.06 689.929 1530.28 Q689.168 1531.48 688.604 1532.98 L679.397 1523.77 Z" fill="#000000" fill-rule="nonzero" fill-opacity="1" /><path clip-path="url(#clip490)" d="M704.342 1503.15 L707.865 1519.19 L714.126 1512.93 L704.342 1503.15 M701.53 1501.64 L704.648 1498.52 L716.593 1510.47 L719.208 1507.85 L721.27 1509.91 L718.656 1512.53 L722.977 1516.85 L720.509 1519.32 L716.188 1515 L707.914 1523.27 L705.52 1520.88 L701.53 1501.64 Z" fill="#000000" fill-rule="nonzero" fill-opacity="1" /><path clip-path="url(#clip490)" d="M711.388 1491.78 L721.123 1482.05 L723.21 1484.13 L715.746 1491.6 L720.239 1496.09 Q720.595 1495.37 721.049 1494.74 Q721.491 1494.1 722.031 1493.56 Q725.1 1490.49 728.575 1490.38 Q732.049 1490.27 734.921 1493.14 Q737.88 1496.1 737.683 1499.59 Q737.475 1503.06 734.123 1506.41 Q732.969 1507.57 731.57 1508.58 Q730.183 1509.57 728.513 1510.45 L726.021 1507.96 Q727.728 1507.46 729.201 1506.57 Q730.674 1505.69 731.987 1504.38 Q734.111 1502.25 734.234 1499.9 Q734.357 1497.54 732.442 1495.62 Q730.526 1493.71 728.169 1493.83 Q725.812 1493.95 723.689 1496.08 Q722.694 1497.07 721.921 1498.29 Q721.16 1499.49 720.595 1500.99 L711.388 1491.78 Z" fill="#000000" fill-rule="nonzero" fill-opacity="1" /><path clip-path="url(#clip490)" d="M844.174 1544.64 Q842.259 1546.56 843.18 1549.42 Q844.1 1552.25 847.881 1556.03 Q851.65 1559.8 854.498 1560.74 Q857.346 1561.65 859.261 1559.73 Q861.189 1557.8 860.268 1554.97 Q859.347 1552.11 855.578 1548.34 Q851.797 1544.56 848.949 1543.65 Q846.101 1542.72 844.174 1544.64 M842.21 1542.68 Q845.291 1539.6 849.354 1540.42 Q853.418 1541.22 858.058 1545.86 Q862.686 1550.49 863.497 1554.56 Q864.307 1558.61 861.225 1561.69 Q858.144 1564.78 854.081 1563.98 Q850.017 1563.15 845.389 1558.53 Q840.749 1553.89 839.939 1549.84 Q839.128 1545.76 842.21 1542.68 Z" fill="#000000" fill-rule="nonzero" fill-opacity="1" /><path clip-path="url(#clip490)" d="M868.444 1547.53 L871.034 1544.94 L874.152 1548.06 L871.562 1550.65 L868.444 1547.53 Z" fill="#000000" fill-rule="nonzero" fill-opacity="1" /><path clip-path="url(#clip490)" d="M861.25 1524.3 L870.985 1514.57 L873.072 1516.65 L865.608 1524.12 L870.101 1528.61 Q870.457 1527.89 870.911 1527.26 Q871.353 1526.62 871.893 1526.08 Q874.962 1523.01 878.437 1522.9 Q881.911 1522.79 884.783 1525.66 Q887.742 1528.62 887.545 1532.11 Q887.337 1535.58 883.985 1538.93 Q882.831 1540.09 881.432 1541.09 Q880.045 1542.09 878.375 1542.97 L875.883 1540.48 Q877.589 1539.98 879.063 1539.09 Q880.536 1538.21 881.849 1536.9 Q883.973 1534.77 884.096 1532.42 Q884.219 1530.06 882.303 1528.14 Q880.388 1526.23 878.031 1526.35 Q875.674 1526.47 873.551 1528.6 Q872.556 1529.59 871.783 1530.81 Q871.022 1532.01 870.457 1533.51 L861.25 1524.3 Z" fill="#000000" fill-rule="nonzero" fill-opacity="1" /><path clip-path="url(#clip490)" d="M877.246 1508.31 L886.981 1498.57 L889.068 1500.66 L881.604 1508.12 L886.097 1512.61 Q886.453 1511.89 886.907 1511.26 Q887.349 1510.63 887.889 1510.09 Q890.958 1507.02 894.432 1506.91 Q897.906 1506.8 900.779 1509.67 Q903.738 1512.63 903.541 1516.11 Q903.332 1519.59 899.981 1522.94 Q898.827 1524.09 897.428 1525.1 Q896.04 1526.09 894.371 1526.98 L891.879 1524.49 Q893.585 1523.98 895.058 1523.1 Q896.531 1522.21 897.845 1520.9 Q899.969 1518.78 900.092 1516.42 Q900.214 1514.06 898.299 1512.15 Q896.384 1510.23 894.027 1510.36 Q891.67 1510.48 889.546 1512.6 Q888.552 1513.6 887.779 1514.81 Q887.018 1516.01 886.453 1517.51 L877.246 1508.31 Z" fill="#000000" fill-rule="nonzero" fill-opacity="1" /><path clip-path="url(#clip490)" d="M900.153 1488.66 Q898.238 1490.58 899.159 1493.44 Q900.079 1496.27 903.86 1500.06 Q907.629 1503.82 910.477 1504.76 Q913.325 1505.67 915.24 1503.75 Q917.168 1501.82 916.247 1498.99 Q915.326 1496.13 911.557 1492.36 Q907.776 1488.58 904.928 1487.67 Q902.08 1486.74 900.153 1488.66 M898.189 1486.7 Q901.27 1483.62 905.333 1484.44 Q909.397 1485.24 914.037 1489.88 Q918.665 1494.51 919.476 1498.58 Q920.286 1502.63 917.204 1505.72 Q914.123 1508.8 910.06 1508 Q905.996 1507.18 901.368 1502.55 Q896.728 1497.91 895.918 1493.86 Q895.107 1489.78 898.189 1486.7 Z" fill="#000000" fill-rule="nonzero" fill-opacity="1" /><path clip-path="url(#clip490)" d="M1027.08 1544.11 Q1025.17 1546.03 1026.09 1548.89 Q1027.01 1551.73 1030.79 1555.51 Q1034.56 1559.28 1037.41 1560.21 Q1040.26 1561.12 1042.17 1559.2 Q1044.1 1557.27 1043.18 1554.44 Q1042.26 1551.58 1038.49 1547.81 Q1034.71 1544.03 1031.86 1543.12 Q1029.01 1542.19 1027.08 1544.11 M1025.12 1542.15 Q1028.2 1539.07 1032.26 1539.89 Q1036.33 1540.69 1040.97 1545.33 Q1045.6 1549.96 1046.41 1554.03 Q1047.22 1558.08 1044.13 1561.17 Q1041.05 1564.25 1036.99 1563.45 Q1032.93 1562.63 1028.3 1558 Q1023.66 1553.36 1022.85 1549.31 Q1022.04 1545.23 1025.12 1542.15 Z" fill="#000000" fill-rule="nonzero" fill-opacity="1" /><path clip-path="url(#clip490)" d="M1051.35 1547 L1053.94 1544.41 L1057.06 1547.53 L1054.47 1550.12 L1051.35 1547 Z" fill="#000000" fill-rule="nonzero" fill-opacity="1" /><path clip-path="url(#clip490)" d="M1044.16 1523.77 L1053.89 1514.04 L1055.98 1516.13 L1048.52 1523.59 L1053.01 1528.08 Q1053.37 1527.36 1053.82 1526.73 Q1054.26 1526.09 1054.8 1525.55 Q1057.87 1522.48 1061.35 1522.37 Q1064.82 1522.26 1067.69 1525.14 Q1070.65 1528.09 1070.45 1531.58 Q1070.25 1535.05 1066.89 1538.41 Q1065.74 1539.56 1064.34 1540.57 Q1062.95 1541.56 1061.28 1542.45 L1058.79 1539.95 Q1060.5 1539.45 1061.97 1538.57 Q1063.44 1537.68 1064.76 1536.37 Q1066.88 1534.24 1067 1531.89 Q1067.13 1529.53 1065.21 1527.62 Q1063.3 1525.7 1060.94 1525.82 Q1058.58 1525.95 1056.46 1528.07 Q1055.47 1529.06 1054.69 1530.28 Q1053.93 1531.48 1053.37 1532.98 L1044.16 1523.77 Z" fill="#000000" fill-rule="nonzero" fill-opacity="1" /><path clip-path="url(#clip490)" d="M1060.15 1507.78 L1069.89 1498.04 L1071.98 1500.13 L1064.51 1507.59 L1069.01 1512.09 Q1069.36 1511.36 1069.82 1510.74 Q1070.26 1510.1 1070.8 1509.56 Q1073.87 1506.49 1077.34 1506.38 Q1080.82 1506.27 1083.69 1509.14 Q1086.65 1512.1 1086.45 1515.59 Q1086.24 1519.06 1082.89 1522.41 Q1081.74 1523.56 1080.34 1524.57 Q1078.95 1525.57 1077.28 1526.45 L1074.79 1523.96 Q1076.49 1523.45 1077.97 1522.57 Q1079.44 1521.69 1080.75 1520.37 Q1082.88 1518.25 1083 1515.89 Q1083.12 1513.53 1081.21 1511.62 Q1079.29 1509.7 1076.94 1509.83 Q1074.58 1509.95 1072.46 1512.07 Q1071.46 1513.07 1070.69 1514.28 Q1069.93 1515.49 1069.36 1516.98 L1060.15 1507.78 Z" fill="#000000" fill-rule="nonzero" fill-opacity="1" /><path clip-path="url(#clip490)" d="M1076.15 1491.78 L1085.89 1482.05 L1087.97 1484.13 L1080.51 1491.6 L1085 1496.09 Q1085.36 1495.37 1085.81 1494.74 Q1086.25 1494.1 1086.79 1493.56 Q1089.86 1490.49 1093.34 1490.38 Q1096.81 1490.27 1099.68 1493.14 Q1102.64 1496.1 1102.45 1499.59 Q1102.24 1503.06 1098.89 1506.41 Q1097.73 1507.57 1096.33 1508.58 Q1094.95 1509.57 1093.28 1510.45 L1090.78 1507.96 Q1092.49 1507.46 1093.96 1506.57 Q1095.44 1505.69 1096.75 1504.38 Q1098.87 1502.25 1099 1499.9 Q1099.12 1497.54 1097.2 1495.62 Q1095.29 1493.71 1092.93 1493.83 Q1090.58 1493.95 1088.45 1496.08 Q1087.46 1497.07 1086.68 1498.29 Q1085.92 1499.49 1085.36 1500.99 L1076.15 1491.78 Z" fill="#000000" fill-rule="nonzero" fill-opacity="1" /><polyline clip-path="url(#clip490)" style="stroke:#000000; stroke-linecap:round; stroke-linejoin:round; stroke-width:4; stroke-opacity:1; fill:none" points="128.138,1456.91 128.138,892.306 "/>
<polyline clip-path="url(#clip490)" style="stroke:#000000; stroke-linecap:round; stroke-linejoin:round; stroke-width:4; stroke-opacity:1; fill:none" points="128.138,1456.91 147.035,1456.91 "/>
<polyline clip-path="url(#clip490)" style="stroke:#000000; stroke-linecap:round; stroke-linejoin:round; stroke-width:4; stroke-opacity:1; fill:none" points="128.138,1300.08 147.035,1300.08 "/>
<polyline clip-path="url(#clip490)" style="stroke:#000000; stroke-linecap:round; stroke-linejoin:round; stroke-width:4; stroke-opacity:1; fill:none" points="128.138,1143.24 147.035,1143.24 "/>
<polyline clip-path="url(#clip490)" style="stroke:#000000; stroke-linecap:round; stroke-linejoin:round; stroke-width:4; stroke-opacity:1; fill:none" points="128.138,986.408 147.035,986.408 "/>
<path clip-path="url(#clip490)" d="M83.1795 1446.26 Q80.4711 1446.26 79.0996 1448.94 Q77.7455 1451.59 77.7455 1456.94 Q77.7455 1462.27 79.0996 1464.94 Q80.4711 1467.6 83.1795 1467.6 Q85.9051 1467.6 87.2593 1464.94 Q88.6308 1462.27 88.6308 1456.94 Q88.6308 1451.59 87.2593 1448.94 Q85.9051 1446.26 83.1795 1446.26 M83.1795 1443.49 Q87.5371 1443.49 89.8287 1446.94 Q92.1377 1450.38 92.1377 1456.94 Q92.1377 1463.49 89.8287 1466.94 Q87.5371 1470.38 83.1795 1470.38 Q78.8218 1470.38 76.5128 1466.94 Q74.2212 1463.49 74.2212 1456.94 Q74.2212 1450.38 76.5128 1446.94 Q78.8218 1443.49 83.1795 1443.49 Z" fill="#000000" fill-rule="nonzero" fill-opacity="1" /><path clip-path="url(#clip490)" d="M56.0789 1310.09 L68.3184 1310.09 L68.3184 1313.04 L51.8602 1313.04 L51.8602 1310.09 Q53.8567 1308.02 57.2942 1304.55 Q60.749 1301.06 61.6344 1300.05 Q63.3184 1298.16 63.9782 1296.86 Q64.6552 1295.54 64.6552 1294.27 Q64.6552 1292.21 63.1969 1290.9 Q61.756 1289.6 59.4296 1289.6 Q57.7803 1289.6 55.94 1290.17 Q54.1171 1290.75 52.0338 1291.91 L52.0338 1288.37 Q54.1518 1287.52 55.9921 1287.08 Q57.8324 1286.65 59.3601 1286.65 Q63.3879 1286.65 65.7837 1288.66 Q68.1795 1290.68 68.1795 1294.05 Q68.1795 1295.64 67.5719 1297.08 Q66.9816 1298.51 65.4018 1300.45 Q64.9677 1300.96 62.6414 1303.37 Q60.315 1305.76 56.0789 1310.09 Z" fill="#000000" fill-rule="nonzero" fill-opacity="1" /><path clip-path="url(#clip490)" d="M83.1795 1289.43 Q80.4711 1289.43 79.0996 1292.1 Q77.7455 1294.76 77.7455 1300.1 Q77.7455 1305.43 79.0996 1308.11 Q80.4711 1310.76 83.1795 1310.76 Q85.9051 1310.76 87.2593 1308.11 Q88.6308 1305.43 88.6308 1300.1 Q88.6308 1294.76 87.2593 1292.1 Q85.9051 1289.43 83.1795 1289.43 M83.1795 1286.65 Q87.5371 1286.65 89.8287 1290.1 Q92.1377 1293.54 92.1377 1300.1 Q92.1377 1306.65 89.8287 1310.1 Q87.5371 1313.54 83.1795 1313.54 Q78.8218 1313.54 76.5128 1310.1 Q74.2212 1306.65 74.2212 1300.1 Q74.2212 1293.54 76.5128 1290.1 Q78.8218 1286.65 83.1795 1286.65 Z" fill="#000000" fill-rule="nonzero" fill-opacity="1" /><path clip-path="url(#clip490)" d="M62.6935 1133.34 L53.8393 1147.18 L62.6935 1147.18 L62.6935 1133.34 M61.7733 1130.28 L66.183 1130.28 L66.183 1147.18 L69.8809 1147.18 L69.8809 1150.09 L66.183 1150.09 L66.183 1156.2 L62.6935 1156.2 L62.6935 1150.09 L50.9921 1150.09 L50.9921 1146.71 L61.7733 1130.28 Z" fill="#000000" fill-rule="nonzero" fill-opacity="1" /><path clip-path="url(#clip490)" d="M83.1795 1132.59 Q80.4711 1132.59 79.0996 1135.27 Q77.7455 1137.92 77.7455 1143.27 Q77.7455 1148.6 79.0996 1151.27 Q80.4711 1153.93 83.1795 1153.93 Q85.9051 1153.93 87.2593 1151.27 Q88.6308 1148.6 88.6308 1143.27 Q88.6308 1137.92 87.2593 1135.27 Q85.9051 1132.59 83.1795 1132.59 M83.1795 1129.81 Q87.5371 1129.81 89.8287 1133.27 Q92.1377 1136.71 92.1377 1143.27 Q92.1377 1149.81 89.8287 1153.27 Q87.5371 1156.71 83.1795 1156.71 Q78.8218 1156.71 76.5128 1153.27 Q74.2212 1149.81 74.2212 1143.27 Q74.2212 1136.71 76.5128 1133.27 Q78.8218 1129.81 83.1795 1129.81 Z" fill="#000000" fill-rule="nonzero" fill-opacity="1" /><path clip-path="url(#clip490)" d="M60.9921 985.01 Q58.631 985.01 57.2421 986.625 Q55.8706 988.239 55.8706 991.052 Q55.8706 993.847 57.2421 995.479 Q58.631 997.093 60.9921 997.093 Q63.3532 997.093 64.7247 995.479 Q66.1136 993.847 66.1136 991.052 Q66.1136 988.239 64.7247 986.625 Q63.3532 985.01 60.9921 985.01 M67.9538 974.02 L67.9538 977.215 Q66.6344 976.59 65.2802 976.26 Q63.9434 975.93 62.624 975.93 Q59.1518 975.93 57.3115 978.274 Q55.4886 980.618 55.2282 985.357 Q56.2525 983.847 57.7976 983.048 Q59.3428 982.232 61.2004 982.232 Q65.1066 982.232 67.3636 984.611 Q69.6379 986.972 69.6379 991.052 Q69.6379 995.045 67.2768 997.458 Q64.9157 999.871 60.9921 999.871 Q56.4956 999.871 54.1171 996.434 Q51.7386 992.979 51.7386 986.434 Q51.7386 980.288 54.6553 976.642 Q57.572 972.979 62.4851 972.979 Q63.8046 972.979 65.1414 973.239 Q66.4955 973.5 67.9538 974.02 Z" fill="#000000" fill-rule="nonzero" fill-opacity="1" /><path clip-path="url(#clip490)" d="M83.1795 975.757 Q80.4711 975.757 79.0996 978.43 Q77.7455 981.086 77.7455 986.434 Q77.7455 991.763 79.0996 994.437 Q80.4711 997.093 83.1795 997.093 Q85.9051 997.093 87.2593 994.437 Q88.6308 991.763 88.6308 986.434 Q88.6308 981.086 87.2593 978.43 Q85.9051 975.757 83.1795 975.757 M83.1795 972.979 Q87.5371 972.979 89.8287 976.434 Q92.1377 979.871 92.1377 986.434 Q92.1377 992.979 89.8287 996.434 Q87.5371 999.871 83.1795 999.871 Q78.8218 999.871 76.5128 996.434 Q74.2212 992.979 74.2212 986.434 Q74.2212 979.871 76.5128 976.434 Q78.8218 972.979 83.1795 972.979 Z" fill="#000000" fill-rule="nonzero" fill-opacity="1" /><path clip-path="url(#clip490)" d="M140.036 813.68 Q136.517 813.68 134.619 816.226 Q132.628 818.888 132.628 823.286 Q132.628 827.939 134.596 830.624 Q136.587 833.286 140.036 833.286 Q143.439 833.286 145.429 830.601 Q147.42 827.916 147.42 823.286 Q147.42 819.05 145.429 816.226 Q143.601 813.68 140.036 813.68 M140.036 810.3 L154.179 810.3 L154.179 814.559 L149.411 814.559 Q151.934 818.171 151.934 823.286 Q151.934 829.652 148.763 833.263 Q145.591 836.897 140.036 836.897 Q134.457 836.897 131.309 833.263 Q128.138 829.652 128.138 823.286 Q128.138 816.874 131.309 813.286 Q133.925 810.3 140.036 810.3 Z" fill="#000000" fill-rule="nonzero" fill-opacity="1" /><path clip-path="url(#clip490)" d="M165.198 836.226 L157.281 810.3 L161.864 810.3 L168.554 832.059 Q171.332 829.189 173.647 825.208 Q175.406 822.221 175.499 819.629 Q175.545 818.402 174.989 816.087 Q174.341 813.333 171.888 810.3 L176.193 810.3 L176.193 810.3 Q177.79 812.36 178.855 815.231 Q179.827 817.87 179.827 819.675 Q179.827 824.212 176.679 828.263 Q172.582 833.541 169.735 836.226 L165.198 836.226 Z" fill="#000000" fill-rule="nonzero" fill-opacity="1" /><path clip-path="url(#clip494)" d="M184.494 1292.24 L184.494 1456.91 L366.875 1456.91 L366.875 1292.24 L184.494 1292.24 L184.494 1292.24  Z" fill="#009af9" fill-rule="evenodd" fill-opacity="1"/>
<polyline clip-path="url(#clip494)" style="stroke:#000000; stroke-linecap:round; stroke-linejoin:round; stroke-width:4; stroke-opacity:1; fill:none" points="184.494,1292.24 184.494,1456.91 366.875,1456.91 366.875,1292.24 184.494,1292.24 "/>
<path clip-path="url(#clip494)" d="M366.875 892.306 L366.875 1456.91 L549.256 1456.91 L549.256 892.306 L366.875 892.306 L366.875 892.306  Z" fill="#009af9" fill-rule="evenodd" fill-opacity="1"/>
<polyline clip-path="url(#clip494)" style="stroke:#000000; stroke-linecap:round; stroke-linejoin:round; stroke-width:4; stroke-opacity:1; fill:none" points="366.875,892.306 366.875,1456.91 549.256,1456.91 549.256,892.306 366.875,892.306 "/>
<path clip-path="url(#clip494)" d="M549.256 970.724 L549.256 1456.91 L731.637 1456.91 L731.637 970.724 L549.256 970.724 L549.256 970.724  Z" fill="#009af9" fill-rule="evenodd" fill-opacity="1"/>
<polyline clip-path="url(#clip494)" style="stroke:#000000; stroke-linecap:round; stroke-linejoin:round; stroke-width:4; stroke-opacity:1; fill:none" points="549.256,970.724 549.256,1456.91 731.637,1456.91 731.637,970.724 549.256,970.724 "/>
<path clip-path="url(#clip494)" d="M731.637 1056.98 L731.637 1456.91 L914.019 1456.91 L914.019 1056.98 L731.637 1056.98 L731.637 1056.98  Z" fill="#009af9" fill-rule="evenodd" fill-opacity="1"/>
<polyline clip-path="url(#clip494)" style="stroke:#000000; stroke-linecap:round; stroke-linejoin:round; stroke-width:4; stroke-opacity:1; fill:none" points="731.637,1056.98 731.637,1456.91 914.019,1456.91 914.019,1056.98 731.637,1056.98 "/>
<path clip-path="url(#clip494)" d="M914.019 1339.29 L914.019 1456.91 L1096.4 1456.91 L1096.4 1339.29 L914.019 1339.29 L914.019 1339.29  Z" fill="#009af9" fill-rule="evenodd" fill-opacity="1"/>
<polyline clip-path="url(#clip494)" style="stroke:#000000; stroke-linecap:round; stroke-linejoin:round; stroke-width:4; stroke-opacity:1; fill:none" points="914.019,1339.29 914.019,1456.91 1096.4,1456.91 1096.4,1339.29 914.019,1339.29 "/>
<circle clip-path="url(#clip494)" style="fill:#009af9; stroke:none; fill-opacity:0" cx="275.684" cy="1292.24" r="2"/>
<circle clip-path="url(#clip494)" style="fill:#009af9; stroke:none; fill-opacity:0" cx="458.066" cy="892.306" r="2"/>
<circle clip-path="url(#clip494)" style="fill:#009af9; stroke:none; fill-opacity:0" cx="640.447" cy="970.724" r="2"/>
<circle clip-path="url(#clip494)" style="fill:#009af9; stroke:none; fill-opacity:0" cx="822.828" cy="1056.98" r="2"/>
<circle clip-path="url(#clip494)" style="fill:#009af9; stroke:none; fill-opacity:0" cx="1005.21" cy="1339.29" r="2"/>
<polyline clip-path="url(#clip494)" style="stroke:#ff0000; stroke-linecap:round; stroke-linejoin:round; stroke-width:8; stroke-opacity:1; fill:none" stroke-dasharray="32, 20" points="676.731,2021.52 676.731,327.698 "/>
<polyline clip-path="url(#clip494)" style="stroke:#ff0000; stroke-linecap:round; stroke-linejoin:round; stroke-width:6; stroke-opacity:1; fill:none" stroke-dasharray="24, 12, 3, 12" points="309.824,2021.52 309.824,327.698 "/>
<polyline clip-path="url(#clip494)" style="stroke:#ff0000; stroke-linecap:round; stroke-linejoin:round; stroke-width:6; stroke-opacity:1; fill:none" stroke-dasharray="24, 12, 3, 12" points="994.087,2021.52 994.087,327.698 "/>
</svg>
