<?xml version="1.0" encoding="utf-8"?>
<svg xmlns="http://www.w3.org/2000/svg" xmlns:xlink="http://www.w3.org/1999/xlink" width="600" height="400" viewBox="0 0 2400 1600">
<defs>
  <clipPath id="clip150">
    <rect x="0" y="0" width="2400" height="1600"/>
  </clipPath>
</defs>
<path clip-path="url(#clip150)" d="M0 1600 L2400 1600 L2400 0 L0 0  Z" fill="#ffffff" fill-rule="evenodd" fill-opacity="1"/>
<defs>
  <clipPath id="clip151">
    <rect x="480" y="0" width="1681" height="1600"/>
  </clipPath>
</defs>
<path clip-path="url(#clip150)" d="M128.138 662.16 L1152.76 662.16 L1152.76 97.5521 L128.138 97.5521  Z" fill="#ffffff" fill-rule="evenodd" fill-opacity="1"/>
<defs>
  <clipPath id="clip152">
    <rect x="128" y="97" width="1026" height="566"/>
  </clipPath>
</defs>
<polyline clip-path="url(#clip152)" style="stroke:#000000; stroke-linecap:round; stroke-linejoin:round; stroke-width:2; stroke-opacity:0.1; fill:none" points="184.494,662.16 184.494,97.5521 "/>
<polyline clip-path="url(#clip152)" style="stroke:#000000; stroke-linecap:round; stroke-linejoin:round; stroke-width:2; stroke-opacity:0.1; fill:none" points="387.139,662.16 387.139,97.5521 "/>
<polyline clip-path="url(#clip152)" style="stroke:#000000; stroke-linecap:round; stroke-linejoin:round; stroke-width:2; stroke-opacity:0.1; fill:none" points="589.785,662.16 589.785,97.5521 "/>
<polyline clip-path="url(#clip152)" style="stroke:#000000; stroke-linecap:round; stroke-linejoin:round; stroke-width:2; stroke-opacity:0.1; fill:none" points="792.431,662.16 792.431,97.5521 "/>
<polyline clip-path="url(#clip152)" style="stroke:#000000; stroke-linecap:round; stroke-linejoin:round; stroke-width:2; stroke-opacity:0.1; fill:none" points="995.077,662.16 995.077,97.5521 "/>
<polyline clip-path="url(#clip152)" style="stroke:#000000; stroke-linecap:round; stroke-linejoin:round; stroke-width:2; stroke-opacity:0.1; fill:none" points="128.138,662.16 1152.76,662.16 "/>
<polyline clip-path="url(#clip152)" style="stroke:#000000; stroke-linecap:round; stroke-linejoin:round; stroke-width:2; stroke-opacity:0.1; fill:none" points="128.138,572.54 1152.76,572.54 "/>
<polyline clip-path="url(#clip152)" style="stroke:#000000; stroke-linecap:round; stroke-linejoin:round; stroke-width:2; stroke-opacity:0.1; fill:none" points="128.138,482.92 1152.76,482.92 "/>
<polyline clip-path="url(#clip152)" style="stroke:#000000; stroke-linecap:round; stroke-linejoin:round; stroke-width:2; stroke-opacity:0.1; fill:none" points="128.138,393.299 1152.76,393.299 "/>
<polyline clip-path="url(#clip152)" style="stroke:#000000; stroke-linecap:round; stroke-linejoin:round; stroke-width:2; stroke-opacity:0.1; fill:none" points="128.138,303.679 1152.76,303.679 "/>
<polyline clip-path="url(#clip152)" style="stroke:#000000; stroke-linecap:round; stroke-linejoin:round; stroke-width:2; stroke-opacity:0.1; fill:none" points="128.138,214.059 1152.76,214.059 "/>
<polyline clip-path="url(#clip152)" style="stroke:#000000; stroke-linecap:round; stroke-linejoin:round; stroke-width:2; stroke-opacity:0.1; fill:none" points="128.138,124.438 1152.76,124.438 "/>
<polyline clip-path="url(#clip150)" style="stroke:#000000; stroke-linecap:round; stroke-linejoin:round; stroke-width:4; stroke-opacity:1; fill:none" points="128.138,662.16 1152.76,662.16 "/>
<polyline clip-path="url(#clip150)" style="stroke:#000000; stroke-linecap:round; stroke-linejoin:round; stroke-width:4; stroke-opacity:1; fill:none" points="184.494,662.16 184.494,643.263 "/>
<polyline clip-path="url(#clip150)" style="stroke:#000000; stroke-linecap:round; stroke-linejoin:round; stroke-width:4; stroke-opacity:1; fill:none" points="387.139,662.16 387.139,643.263 "/>
<polyline clip-path="url(#clip150)" style="stroke:#000000; stroke-linecap:round; stroke-linejoin:round; stroke-width:4; stroke-opacity:1; fill:none" points="589.785,662.16 589.785,643.263 "/>
<polyline clip-path="url(#clip150)" style="stroke:#000000; stroke-linecap:round; stroke-linejoin:round; stroke-width:4; stroke-opacity:1; fill:none" points="792.431,662.16 792.431,643.263 "/>
<polyline clip-path="url(#clip150)" style="stroke:#000000; stroke-linecap:round; stroke-linejoin:round; stroke-width:4; stroke-opacity:1; fill:none" points="995.077,662.16 995.077,643.263 "/>
<path clip-path="url(#clip150)" d="M131.123 733.414 Q129.208 735.329 130.129 738.189 Q131.05 741.025 134.831 744.806 Q138.599 748.575 141.447 749.508 Q144.295 750.416 146.211 748.501 Q148.138 746.574 147.217 743.738 Q146.296 740.878 142.528 737.109 Q138.747 733.328 135.899 732.42 Q133.051 731.487 131.123 733.414 M129.159 731.45 Q132.24 728.369 136.304 729.191 Q140.367 729.989 145.008 734.629 Q149.636 739.257 150.446 743.333 Q151.256 747.384 148.175 750.466 Q145.093 753.547 141.03 752.749 Q136.967 751.926 132.339 747.298 Q127.698 742.658 126.888 738.607 Q126.078 734.531 129.159 731.45 Z" fill="#000000" fill-rule="nonzero" fill-opacity="1" /><path clip-path="url(#clip150)" d="M155.393 736.299 L157.983 733.709 L161.101 736.827 L158.511 739.417 L155.393 736.299 Z" fill="#000000" fill-rule="nonzero" fill-opacity="1" /><path clip-path="url(#clip150)" d="M163.102 717.418 Q161.335 719.186 161.261 721.15 Q161.2 723.102 162.857 724.759 Q164.514 726.417 166.466 726.355 Q168.43 726.282 170.198 724.514 Q171.966 722.746 172.039 720.782 Q172.101 718.806 170.456 717.161 Q168.799 715.503 166.834 715.577 Q164.883 715.638 163.102 717.418 M159.567 718.842 Q157.578 720.045 155.589 719.849 Q153.613 719.64 152.042 718.069 Q149.844 715.872 150.127 713.036 Q150.421 710.188 153.147 707.462 Q155.884 704.725 158.72 704.442 Q161.556 704.16 163.753 706.358 Q165.324 707.929 165.521 709.918 Q165.73 711.894 164.539 713.871 Q166.748 712.496 168.958 712.717 Q171.18 712.925 172.936 714.681 Q175.6 717.345 175.391 720.401 Q175.194 723.446 172.162 726.478 Q169.13 729.51 166.073 729.719 Q163.029 729.915 160.365 727.251 Q158.609 725.496 158.401 723.274 Q158.192 721.052 159.567 718.842 M154.742 715.835 Q156.166 717.259 157.848 717.173 Q159.542 717.075 161.151 715.466 Q162.746 713.871 162.845 712.176 Q162.955 710.47 161.531 709.046 Q160.107 707.622 158.401 707.732 Q156.707 707.831 155.111 709.427 Q153.503 711.035 153.404 712.729 Q153.318 714.411 154.742 715.835 Z" fill="#000000" fill-rule="nonzero" fill-opacity="1" /><path clip-path="url(#clip150)" d="M163.544 697.727 L175.329 685.942 L176.385 686.998 L187.004 710.924 L184.414 713.515 L174.433 691.012 L165.631 699.814 L163.544 697.727 Z" fill="#000000" fill-rule="nonzero" fill-opacity="1" /><path clip-path="url(#clip150)" d="M333.339 733.844 Q331.424 735.759 332.345 738.619 Q333.266 741.455 337.047 745.236 Q340.816 749.005 343.664 749.938 Q346.512 750.846 348.427 748.931 Q350.354 747.004 349.433 744.168 Q348.513 741.308 344.744 737.539 Q340.963 733.758 338.115 732.849 Q335.267 731.916 333.339 733.844 M331.375 731.88 Q334.457 728.798 338.52 729.621 Q342.583 730.419 347.224 735.059 Q351.852 739.687 352.662 743.763 Q353.472 747.814 350.391 750.895 Q347.31 753.977 343.246 753.179 Q339.183 752.356 334.555 747.728 Q329.914 743.088 329.104 739.037 Q328.294 734.961 331.375 731.88 Z" fill="#000000" fill-rule="nonzero" fill-opacity="1" /><path clip-path="url(#clip150)" d="M357.609 736.729 L360.2 734.138 L363.318 737.256 L360.727 739.847 L357.609 736.729 Z" fill="#000000" fill-rule="nonzero" fill-opacity="1" /><path clip-path="url(#clip150)" d="M365.319 717.848 Q363.551 719.616 363.477 721.58 Q363.416 723.532 365.073 725.189 Q366.73 726.846 368.682 726.785 Q370.647 726.711 372.414 724.944 Q374.182 723.176 374.256 721.212 Q374.317 719.235 372.672 717.59 Q371.015 715.933 369.051 716.007 Q367.099 716.068 365.319 717.848 M361.783 719.272 Q359.794 720.475 357.806 720.279 Q355.829 720.07 354.258 718.499 Q352.061 716.301 352.343 713.465 Q352.637 710.617 355.363 707.892 Q358.1 705.155 360.936 704.872 Q363.772 704.59 365.969 706.787 Q367.541 708.359 367.737 710.347 Q367.946 712.324 366.755 714.3 Q368.965 712.925 371.174 713.146 Q373.396 713.355 375.152 715.11 Q377.816 717.774 377.607 720.831 Q377.411 723.876 374.378 726.908 Q371.346 729.94 368.29 730.149 Q365.245 730.345 362.581 727.681 Q360.826 725.926 360.617 723.704 Q360.408 721.482 361.783 719.272 M356.959 716.264 Q358.383 717.688 360.065 717.602 Q361.759 717.504 363.367 715.896 Q364.963 714.3 365.061 712.606 Q365.171 710.9 363.747 709.476 Q362.323 708.052 360.617 708.162 Q358.923 708.26 357.327 709.856 Q355.719 711.464 355.621 713.159 Q355.535 714.84 356.959 716.264 Z" fill="#000000" fill-rule="nonzero" fill-opacity="1" /><path clip-path="url(#clip150)" d="M381.314 701.852 Q379.547 703.62 379.473 705.584 Q379.412 707.536 381.069 709.193 Q382.726 710.851 384.678 710.789 Q386.642 710.716 388.41 708.948 Q390.178 707.18 390.251 705.216 Q390.313 703.239 388.668 701.594 Q387.011 699.937 385.046 700.011 Q383.094 700.072 381.314 701.852 M377.779 703.276 Q375.79 704.479 373.801 704.283 Q371.825 704.074 370.254 702.503 Q368.056 700.305 368.339 697.47 Q368.633 694.622 371.359 691.896 Q374.096 689.159 376.932 688.876 Q379.768 688.594 381.965 690.791 Q383.536 692.363 383.733 694.352 Q383.942 696.328 382.751 698.304 Q384.96 696.93 387.17 697.15 Q389.392 697.359 391.148 699.115 Q393.812 701.779 393.603 704.835 Q393.406 707.88 390.374 710.912 Q387.342 713.944 384.285 714.153 Q381.241 714.349 378.577 711.685 Q376.821 709.93 376.613 707.708 Q376.404 705.486 377.779 703.276 M372.954 700.269 Q374.378 701.693 376.06 701.607 Q377.754 701.509 379.363 699.9 Q380.958 698.304 381.057 696.61 Q381.167 694.904 379.743 693.48 Q378.319 692.056 376.613 692.166 Q374.919 692.265 373.323 693.861 Q371.715 695.469 371.616 697.163 Q371.53 698.845 372.954 700.269 Z" fill="#000000" fill-rule="nonzero" fill-opacity="1" /><path clip-path="url(#clip150)" d="M536.034 733.795 Q534.119 735.71 535.04 738.57 Q535.961 741.406 539.742 745.187 Q543.511 748.956 546.359 749.889 Q549.207 750.797 551.122 748.882 Q553.049 746.955 552.128 744.119 Q551.208 741.259 547.439 737.49 Q543.658 733.709 540.81 732.8 Q537.962 731.867 536.034 733.795 M534.07 731.83 Q537.152 728.749 541.215 729.572 Q545.278 730.37 549.919 735.01 Q554.547 739.638 555.357 743.714 Q556.167 747.765 553.086 750.846 Q550.005 753.927 545.941 753.129 Q541.878 752.307 537.25 747.679 Q532.609 743.039 531.799 738.987 Q530.989 734.912 534.07 731.83 Z" fill="#000000" fill-rule="nonzero" fill-opacity="1" /><path clip-path="url(#clip150)" d="M560.304 736.68 L562.895 734.089 L566.013 737.207 L563.422 739.798 L560.304 736.68 Z" fill="#000000" fill-rule="nonzero" fill-opacity="1" /><path clip-path="url(#clip150)" d="M568.014 717.799 Q566.246 719.567 566.172 721.531 Q566.111 723.483 567.768 725.14 Q569.425 726.797 571.377 726.736 Q573.342 726.662 575.109 724.894 Q576.877 723.127 576.951 721.163 Q577.012 719.186 575.367 717.541 Q573.71 715.884 571.746 715.957 Q569.794 716.019 568.014 717.799 M564.478 719.223 Q562.489 720.426 560.501 720.23 Q558.524 720.021 556.953 718.45 Q554.756 716.252 555.038 713.416 Q555.332 710.568 558.058 707.843 Q560.795 705.105 563.631 704.823 Q566.467 704.541 568.664 706.738 Q570.236 708.309 570.432 710.298 Q570.641 712.275 569.45 714.251 Q571.66 712.876 573.869 713.097 Q576.091 713.306 577.847 715.061 Q580.511 717.725 580.302 720.782 Q580.106 723.826 577.073 726.859 Q574.041 729.891 570.985 730.1 Q567.94 730.296 565.276 727.632 Q563.521 725.877 563.312 723.655 Q563.103 721.433 564.478 719.223 M559.654 716.215 Q561.078 717.639 562.76 717.553 Q564.454 717.455 566.062 715.847 Q567.658 714.251 567.756 712.557 Q567.866 710.851 566.442 709.427 Q565.018 708.003 563.312 708.113 Q561.618 708.211 560.022 709.807 Q558.414 711.415 558.316 713.109 Q558.23 714.791 559.654 716.215 Z" fill="#000000" fill-rule="nonzero" fill-opacity="1" /><path clip-path="url(#clip150)" d="M587.103 715.356 L584.844 713.097 Q586.219 712.606 587.41 711.882 Q588.601 711.158 589.521 710.237 Q591.977 707.782 591.621 704.848 Q591.265 701.889 588.085 698.341 Q588.429 700.109 587.901 701.766 Q587.373 703.424 586.047 704.749 Q583.297 707.499 580.032 707.45 Q576.767 707.376 573.882 704.492 Q571.058 701.668 571.021 698.292 Q570.985 694.916 573.759 692.142 Q576.938 688.962 581.051 689.736 Q585.163 690.485 589.804 695.125 Q594.137 699.458 594.665 704.111 Q595.193 708.739 591.719 712.213 Q590.786 713.146 589.644 713.92 Q588.502 714.693 587.103 715.356 M584.267 702.65 Q585.937 700.981 585.765 698.869 Q585.605 696.745 583.617 694.757 Q581.64 692.78 579.516 692.621 Q577.393 692.436 575.723 694.106 Q574.054 695.776 574.225 697.912 Q574.397 700.023 576.374 702 Q578.362 703.988 580.474 704.16 Q582.598 704.32 584.267 702.65 Z" fill="#000000" fill-rule="nonzero" fill-opacity="1" /><path clip-path="url(#clip150)" d="M738.582 733.893 Q736.667 735.808 737.588 738.668 Q738.509 741.504 742.29 745.285 Q746.058 749.054 748.906 749.987 Q751.754 750.895 753.669 748.98 Q755.597 747.053 754.676 744.217 Q753.755 741.357 749.987 737.588 Q746.206 733.807 743.358 732.898 Q740.51 731.966 738.582 733.893 M736.618 731.929 Q739.699 728.847 743.763 729.67 Q747.826 730.468 752.466 735.108 Q757.095 739.736 757.905 743.812 Q758.715 747.863 755.634 750.944 Q752.552 754.026 748.489 753.228 Q744.426 752.405 739.797 747.777 Q735.157 743.137 734.347 739.086 Q733.537 735.01 736.618 731.929 Z" fill="#000000" fill-rule="nonzero" fill-opacity="1" /><path clip-path="url(#clip150)" d="M762.852 736.778 L765.442 734.187 L768.56 737.306 L765.97 739.896 L762.852 736.778 Z" fill="#000000" fill-rule="nonzero" fill-opacity="1" /><path clip-path="url(#clip150)" d="M773.655 731.45 L771.396 729.191 Q772.771 728.7 773.962 727.976 Q775.153 727.251 776.073 726.331 Q778.529 723.876 778.173 720.942 Q777.817 717.983 774.637 714.435 Q774.981 716.203 774.453 717.86 Q773.925 719.518 772.599 720.843 Q769.849 723.593 766.584 723.544 Q763.318 723.47 760.434 720.586 Q757.61 717.762 757.573 714.386 Q757.536 711.01 760.311 708.236 Q763.49 705.056 767.603 705.83 Q771.715 706.579 776.356 711.219 Q780.689 715.552 781.217 720.205 Q781.745 724.833 778.271 728.307 Q777.338 729.24 776.196 730.014 Q775.054 730.787 773.655 731.45 M770.819 718.744 Q772.489 717.075 772.317 714.963 Q772.157 712.839 770.169 710.851 Q768.192 708.874 766.068 708.715 Q763.945 708.53 762.275 710.2 Q760.605 711.87 760.777 714.006 Q760.949 716.117 762.926 718.094 Q764.914 720.082 767.026 720.254 Q769.15 720.414 770.819 718.744 Z" fill="#000000" fill-rule="nonzero" fill-opacity="1" /><path clip-path="url(#clip150)" d="M778.565 693.91 Q776.65 695.825 777.571 698.685 Q778.492 701.521 782.273 705.302 Q786.042 709.071 788.89 710.004 Q791.738 710.912 793.653 708.997 Q795.58 707.07 794.659 704.234 Q793.739 701.373 789.97 697.605 Q786.189 693.824 783.341 692.915 Q780.493 691.982 778.565 693.91 M776.601 691.945 Q779.683 688.864 783.746 689.687 Q787.809 690.485 792.45 695.125 Q797.078 699.753 797.888 703.829 Q798.698 707.88 795.617 710.961 Q792.536 714.042 788.472 713.244 Q784.409 712.422 779.781 707.794 Q775.14 703.154 774.33 699.102 Q773.52 695.027 776.601 691.945 Z" fill="#000000" fill-rule="nonzero" fill-opacity="1" /><path clip-path="url(#clip150)" d="M941.879 733.242 Q939.964 735.157 940.884 738.018 Q941.805 740.853 945.586 744.634 Q949.355 748.403 952.203 749.336 Q955.051 750.245 956.966 748.33 Q958.893 746.402 957.973 743.566 Q957.052 740.706 953.283 736.937 Q949.502 733.156 946.654 732.248 Q943.806 731.315 941.879 733.242 M939.915 731.278 Q942.996 728.197 947.059 729.019 Q951.123 729.817 955.763 734.458 Q960.391 739.086 961.201 743.161 Q962.011 747.212 958.93 750.294 Q955.849 753.375 951.785 752.577 Q947.722 751.755 943.094 747.126 Q938.454 742.486 937.643 738.435 Q936.833 734.359 939.915 731.278 Z" fill="#000000" fill-rule="nonzero" fill-opacity="1" /><path clip-path="url(#clip150)" d="M966.149 736.127 L968.739 733.537 L971.857 736.655 L969.267 739.245 L966.149 736.127 Z" fill="#000000" fill-rule="nonzero" fill-opacity="1" /><path clip-path="url(#clip150)" d="M976.951 730.799 L974.693 728.54 Q976.068 728.049 977.258 727.325 Q978.449 726.601 979.37 725.68 Q981.825 723.225 981.469 720.291 Q981.113 717.332 977.934 713.785 Q978.277 715.552 977.749 717.21 Q977.222 718.867 975.896 720.193 Q973.146 722.943 969.88 722.893 Q966.615 722.82 963.73 719.935 Q960.907 717.111 960.87 713.736 Q960.833 710.36 963.607 707.585 Q966.787 704.406 970.899 705.179 Q975.012 705.928 979.652 710.568 Q983.986 714.902 984.514 719.554 Q985.041 724.182 981.567 727.657 Q980.634 728.59 979.493 729.363 Q978.351 730.136 976.951 730.799 M974.116 718.094 Q975.785 716.424 975.613 714.312 Q975.454 712.189 973.465 710.2 Q971.489 708.224 969.365 708.064 Q967.241 707.88 965.572 709.549 Q963.902 711.219 964.074 713.355 Q964.246 715.466 966.222 717.443 Q968.211 719.432 970.322 719.603 Q972.446 719.763 974.116 718.094 Z" fill="#000000" fill-rule="nonzero" fill-opacity="1" /><path clip-path="url(#clip150)" d="M991.597 712.741 L995.648 708.69 L981.666 694.708 L978.142 699.999 L975.883 697.74 L979.382 692.473 L981.862 689.994 L998.103 706.235 L1002.15 702.184 L1004.24 704.271 L993.684 714.828 L991.597 712.741 Z" fill="#000000" fill-rule="nonzero" fill-opacity="1" /><polyline clip-path="url(#clip150)" style="stroke:#000000; stroke-linecap:round; stroke-linejoin:round; stroke-width:4; stroke-opacity:1; fill:none" points="128.138,662.16 128.138,97.5521 "/>
<polyline clip-path="url(#clip150)" style="stroke:#000000; stroke-linecap:round; stroke-linejoin:round; stroke-width:4; stroke-opacity:1; fill:none" points="128.138,662.16 147.035,662.16 "/>
<polyline clip-path="url(#clip150)" style="stroke:#000000; stroke-linecap:round; stroke-linejoin:round; stroke-width:4; stroke-opacity:1; fill:none" points="128.138,572.54 147.035,572.54 "/>
<polyline clip-path="url(#clip150)" style="stroke:#000000; stroke-linecap:round; stroke-linejoin:round; stroke-width:4; stroke-opacity:1; fill:none" points="128.138,482.92 147.035,482.92 "/>
<polyline clip-path="url(#clip150)" style="stroke:#000000; stroke-linecap:round; stroke-linejoin:round; stroke-width:4; stroke-opacity:1; fill:none" points="128.138,393.299 147.035,393.299 "/>
<polyline clip-path="url(#clip150)" style="stroke:#000000; stroke-linecap:round; stroke-linejoin:round; stroke-width:4; stroke-opacity:1; fill:none" points="128.138,303.679 147.035,303.679 "/>
<polyline clip-path="url(#clip150)" style="stroke:#000000; stroke-linecap:round; stroke-linejoin:round; stroke-width:4; stroke-opacity:1; fill:none" points="128.138,214.059 147.035,214.059 "/>
<polyline clip-path="url(#clip150)" style="stroke:#000000; stroke-linecap:round; stroke-linejoin:round; stroke-width:4; stroke-opacity:1; fill:none" points="128.138,124.438 147.035,124.438 "/>
<path clip-path="url(#clip150)" d="M83.1795 651.509 Q80.4711 651.509 79.0996 654.183 Q77.7455 656.839 77.7455 662.186 Q77.7455 667.516 79.0996 670.19 Q80.4711 672.846 83.1795 672.846 Q85.9051 672.846 87.2593 670.19 Q88.6308 667.516 88.6308 662.186 Q88.6308 656.839 87.2593 654.183 Q85.9051 651.509 83.1795 651.509 M83.1795 648.732 Q87.5371 648.732 89.8287 652.186 Q92.1377 655.624 92.1377 662.186 Q92.1377 668.732 89.8287 672.186 Q87.5371 675.624 83.1795 675.624 Q78.8218 675.624 76.5128 672.186 Q74.2212 668.732 74.2212 662.186 Q74.2212 655.624 76.5128 652.186 Q78.8218 648.732 83.1795 648.732 Z" fill="#000000" fill-rule="nonzero" fill-opacity="1" /><path clip-path="url(#clip150)" d="M53.6657 582.549 L59.3949 582.549 L59.3949 562.774 L53.1623 564.024 L53.1623 560.83 L59.3601 559.58 L62.8671 559.58 L62.8671 582.549 L68.5962 582.549 L68.5962 585.5 L53.6657 585.5 L53.6657 582.549 Z" fill="#000000" fill-rule="nonzero" fill-opacity="1" /><path clip-path="url(#clip150)" d="M83.1795 561.889 Q80.4711 561.889 79.0996 564.563 Q77.7455 567.219 77.7455 572.566 Q77.7455 577.896 79.0996 580.569 Q80.4711 583.226 83.1795 583.226 Q85.9051 583.226 87.2593 580.569 Q88.6308 577.896 88.6308 572.566 Q88.6308 567.219 87.2593 564.563 Q85.9051 561.889 83.1795 561.889 M83.1795 559.111 Q87.5371 559.111 89.8287 562.566 Q92.1377 566.004 92.1377 572.566 Q92.1377 579.111 89.8287 582.566 Q87.5371 586.003 83.1795 586.003 Q78.8218 586.003 76.5128 582.566 Q74.2212 579.111 74.2212 572.566 Q74.2212 566.004 76.5128 562.566 Q78.8218 559.111 83.1795 559.111 Z" fill="#000000" fill-rule="nonzero" fill-opacity="1" /><path clip-path="url(#clip150)" d="M56.0789 492.928 L68.3184 492.928 L68.3184 495.88 L51.8602 495.88 L51.8602 492.928 Q53.8567 490.862 57.2942 487.39 Q60.749 483.901 61.6344 482.894 Q63.3184 481.001 63.9782 479.699 Q64.6552 478.38 64.6552 477.112 Q64.6552 475.046 63.1969 473.744 Q61.756 472.442 59.4296 472.442 Q57.7803 472.442 55.94 473.015 Q54.1171 473.588 52.0338 474.751 L52.0338 471.21 Q54.1518 470.359 55.9921 469.925 Q57.8324 469.491 59.3601 469.491 Q63.3879 469.491 65.7837 471.505 Q68.1795 473.519 68.1795 476.887 Q68.1795 478.484 67.5719 479.925 Q66.9816 481.348 65.4018 483.293 Q64.9677 483.796 62.6414 486.21 Q60.315 488.605 56.0789 492.928 Z" fill="#000000" fill-rule="nonzero" fill-opacity="1" /><path clip-path="url(#clip150)" d="M83.1795 472.269 Q80.4711 472.269 79.0996 474.942 Q77.7455 477.599 77.7455 482.946 Q77.7455 488.276 79.0996 490.949 Q80.4711 493.605 83.1795 493.605 Q85.9051 493.605 87.2593 490.949 Q88.6308 488.276 88.6308 482.946 Q88.6308 477.599 87.2593 474.942 Q85.9051 472.269 83.1795 472.269 M83.1795 469.491 Q87.5371 469.491 89.8287 472.946 Q92.1377 476.383 92.1377 482.946 Q92.1377 489.491 89.8287 492.946 Q87.5371 496.383 83.1795 496.383 Q78.8218 496.383 76.5128 492.946 Q74.2212 489.491 74.2212 482.946 Q74.2212 476.383 76.5128 472.946 Q78.8218 469.491 83.1795 469.491 Z" fill="#000000" fill-rule="nonzero" fill-opacity="1" /><path clip-path="url(#clip150)" d="M63.683 392.284 Q66.2004 392.822 67.6066 394.523 Q69.0302 396.225 69.0302 398.725 Q69.0302 402.561 66.3913 404.662 Q63.7525 406.763 58.8914 406.763 Q57.2595 406.763 55.5234 406.433 Q53.8046 406.12 51.9643 405.478 L51.9643 402.093 Q53.4227 402.943 55.1588 403.377 Q56.8949 403.811 58.7872 403.811 Q62.0858 403.811 63.8046 402.509 Q65.5407 401.207 65.5407 398.725 Q65.5407 396.433 63.9261 395.148 Q62.3289 393.846 59.4643 393.846 L56.4435 393.846 L56.4435 390.964 L59.6032 390.964 Q62.19 390.964 63.5615 389.94 Q64.933 388.898 64.933 386.954 Q64.933 384.957 63.5094 383.898 Q62.1032 382.822 59.4643 382.822 Q58.0233 382.822 56.374 383.134 Q54.7247 383.447 52.7456 384.107 L52.7456 380.982 Q54.7421 380.426 56.4782 380.148 Q58.2317 379.871 59.7768 379.871 Q63.7698 379.871 66.0962 381.693 Q68.4226 383.499 68.4226 386.589 Q68.4226 388.742 67.19 390.235 Q65.9573 391.711 63.683 392.284 Z" fill="#000000" fill-rule="nonzero" fill-opacity="1" /><path clip-path="url(#clip150)" d="M83.1795 382.648 Q80.4711 382.648 79.0996 385.322 Q77.7455 387.978 77.7455 393.325 Q77.7455 398.655 79.0996 401.329 Q80.4711 403.985 83.1795 403.985 Q85.9051 403.985 87.2593 401.329 Q88.6308 398.655 88.6308 393.325 Q88.6308 387.978 87.2593 385.322 Q85.9051 382.648 83.1795 382.648 M83.1795 379.871 Q87.5371 379.871 89.8287 383.325 Q92.1377 386.763 92.1377 393.325 Q92.1377 399.87 89.8287 403.325 Q87.5371 406.763 83.1795 406.763 Q78.8218 406.763 76.5128 403.325 Q74.2212 399.87 74.2212 393.325 Q74.2212 386.763 76.5128 383.325 Q78.8218 379.871 83.1795 379.871 Z" fill="#000000" fill-rule="nonzero" fill-opacity="1" /><path clip-path="url(#clip150)" d="M62.6935 293.774 L53.8393 307.611 L62.6935 307.611 L62.6935 293.774 M61.7733 290.719 L66.183 290.719 L66.183 307.611 L69.8809 307.611 L69.8809 310.528 L66.183 310.528 L66.183 316.639 L62.6935 316.639 L62.6935 310.528 L50.9921 310.528 L50.9921 307.142 L61.7733 290.719 Z" fill="#000000" fill-rule="nonzero" fill-opacity="1" /><path clip-path="url(#clip150)" d="M83.1795 293.028 Q80.4711 293.028 79.0996 295.702 Q77.7455 298.358 77.7455 303.705 Q77.7455 309.035 79.0996 311.708 Q80.4711 314.365 83.1795 314.365 Q85.9051 314.365 87.2593 311.708 Q88.6308 309.035 88.6308 303.705 Q88.6308 298.358 87.2593 295.702 Q85.9051 293.028 83.1795 293.028 M83.1795 290.25 Q87.5371 290.25 89.8287 293.705 Q92.1377 297.143 92.1377 303.705 Q92.1377 310.25 89.8287 313.705 Q87.5371 317.142 83.1795 317.142 Q78.8218 317.142 76.5128 313.705 Q74.2212 310.25 74.2212 303.705 Q74.2212 297.143 76.5128 293.705 Q78.8218 290.25 83.1795 290.25 Z" fill="#000000" fill-rule="nonzero" fill-opacity="1" /><path clip-path="url(#clip150)" d="M53.0928 201.099 L66.8601 201.099 L66.8601 204.05 L56.3046 204.05 L56.3046 210.404 Q57.0685 210.144 57.8324 210.022 Q58.5963 209.883 59.3601 209.883 Q63.7004 209.883 66.2351 212.262 Q68.7698 214.64 68.7698 218.703 Q68.7698 222.887 66.1657 225.213 Q63.5615 227.522 58.8219 227.522 Q57.19 227.522 55.4886 227.244 Q53.8046 226.967 51.9991 226.411 L51.9991 222.887 Q53.5616 223.737 55.2282 224.154 Q56.8949 224.571 58.7525 224.571 Q61.756 224.571 63.5094 222.991 Q65.2629 221.411 65.2629 218.703 Q65.2629 215.994 63.5094 214.414 Q61.756 212.835 58.7525 212.835 Q57.3463 212.835 55.94 213.147 Q54.5511 213.46 53.0928 214.119 L53.0928 201.099 Z" fill="#000000" fill-rule="nonzero" fill-opacity="1" /><path clip-path="url(#clip150)" d="M83.1795 203.408 Q80.4711 203.408 79.0996 206.081 Q77.7455 208.737 77.7455 214.085 Q77.7455 219.414 79.0996 222.088 Q80.4711 224.744 83.1795 224.744 Q85.9051 224.744 87.2593 222.088 Q88.6308 219.414 88.6308 214.085 Q88.6308 208.737 87.2593 206.081 Q85.9051 203.408 83.1795 203.408 M83.1795 200.63 Q87.5371 200.63 89.8287 204.085 Q92.1377 207.522 92.1377 214.085 Q92.1377 220.63 89.8287 224.085 Q87.5371 227.522 83.1795 227.522 Q78.8218 227.522 76.5128 224.085 Q74.2212 220.63 74.2212 214.085 Q74.2212 207.522 76.5128 204.085 Q78.8218 200.63 83.1795 200.63 Z" fill="#000000" fill-rule="nonzero" fill-opacity="1" /><path clip-path="url(#clip150)" d="M60.9921 123.041 Q58.631 123.041 57.2421 124.655 Q55.8706 126.27 55.8706 129.082 Q55.8706 131.877 57.2421 133.509 Q58.631 135.124 60.9921 135.124 Q63.3532 135.124 64.7247 133.509 Q66.1136 131.877 66.1136 129.082 Q66.1136 126.27 64.7247 124.655 Q63.3532 123.041 60.9921 123.041 M67.9538 112.051 L67.9538 115.246 Q66.6344 114.621 65.2802 114.291 Q63.9434 113.961 62.624 113.961 Q59.1518 113.961 57.3115 116.305 Q55.4886 118.648 55.2282 123.388 Q56.2525 121.877 57.7976 121.079 Q59.3428 120.263 61.2004 120.263 Q65.1066 120.263 67.3636 122.641 Q69.6379 125.002 69.6379 129.082 Q69.6379 133.075 67.2768 135.489 Q64.9157 137.902 60.9921 137.902 Q56.4956 137.902 54.1171 134.464 Q51.7386 131.009 51.7386 124.464 Q51.7386 118.318 54.6553 114.673 Q57.572 111.009 62.4851 111.009 Q63.8046 111.009 65.1414 111.27 Q66.4955 111.53 67.9538 112.051 Z" fill="#000000" fill-rule="nonzero" fill-opacity="1" /><path clip-path="url(#clip150)" d="M83.1795 113.787 Q80.4711 113.787 79.0996 116.461 Q77.7455 119.117 77.7455 124.464 Q77.7455 129.794 79.0996 132.468 Q80.4711 135.124 83.1795 135.124 Q85.9051 135.124 87.2593 132.468 Q88.6308 129.794 88.6308 124.464 Q88.6308 119.117 87.2593 116.461 Q85.9051 113.787 83.1795 113.787 M83.1795 111.009 Q87.5371 111.009 89.8287 114.464 Q92.1377 117.902 92.1377 124.464 Q92.1377 131.009 89.8287 134.464 Q87.5371 137.902 83.1795 137.902 Q78.8218 137.902 76.5128 134.464 Q74.2212 131.009 74.2212 124.464 Q74.2212 117.902 76.5128 114.464 Q78.8218 111.009 83.1795 111.009 Z" fill="#000000" fill-rule="nonzero" fill-opacity="1" /><path clip-path="url(#clip150)" d="M130.221 20.1758 Q131.633 17.8147 135.128 15.7314 Q136.494 14.9212 140.707 14.9212 Q145.429 14.9212 148.369 18.6712 Q151.332 22.4212 151.332 28.5323 Q151.332 34.6433 148.369 38.3933 Q145.429 42.1433 140.707 42.1433 Q137.86 42.1433 135.8 41.0322 Q133.763 39.8979 132.42 37.5831 L132.42 51.3331 L128.138 51.3331 L128.138 28.7637 Q128.138 23.4165 130.221 20.1758 M146.911 28.5323 Q146.911 23.8332 144.966 21.1712 Q143.045 18.486 139.665 18.486 Q136.286 18.486 134.341 21.1712 Q132.42 23.8332 132.42 28.5323 Q132.42 33.2313 134.341 35.9165 Q136.286 38.5785 139.665 38.5785 Q143.045 38.5785 144.966 35.9165 Q146.911 33.2313 146.911 28.5323 Z" fill="#000000" fill-rule="nonzero" fill-opacity="1" /><path clip-path="url(#clip152)" d="M184.494 653.198 L184.494 662.16 L285.817 662.16 L285.817 653.198 L184.494 653.198 L184.494 653.198  Z" fill="#009af9" fill-rule="evenodd" fill-opacity="1"/>
<polyline clip-path="url(#clip152)" style="stroke:#000000; stroke-linecap:round; stroke-linejoin:round; stroke-width:4; stroke-opacity:1; fill:none" points="184.494,653.198 184.494,662.16 285.817,662.16 285.817,653.198 184.494,653.198 "/>
<path clip-path="url(#clip152)" d="M285.817 384.337 L285.817 662.16 L387.139 662.16 L387.139 384.337 L285.817 384.337 L285.817 384.337  Z" fill="#009af9" fill-rule="evenodd" fill-opacity="1"/>
<polyline clip-path="url(#clip152)" style="stroke:#000000; stroke-linecap:round; stroke-linejoin:round; stroke-width:4; stroke-opacity:1; fill:none" points="285.817,384.337 285.817,662.16 387.139,662.16 387.139,384.337 285.817,384.337 "/>
<path clip-path="url(#clip152)" d="M387.139 303.679 L387.139 662.16 L488.462 662.16 L488.462 303.679 L387.139 303.679 L387.139 303.679  Z" fill="#009af9" fill-rule="evenodd" fill-opacity="1"/>
<polyline clip-path="url(#clip152)" style="stroke:#000000; stroke-linecap:round; stroke-linejoin:round; stroke-width:4; stroke-opacity:1; fill:none" points="387.139,303.679 387.139,662.16 488.462,662.16 488.462,303.679 387.139,303.679 "/>
<path clip-path="url(#clip152)" d="M488.462 97.5521 L488.462 662.16 L589.785 662.16 L589.785 97.5521 L488.462 97.5521 L488.462 97.5521  Z" fill="#009af9" fill-rule="evenodd" fill-opacity="1"/>
<polyline clip-path="url(#clip152)" style="stroke:#000000; stroke-linecap:round; stroke-linejoin:round; stroke-width:4; stroke-opacity:1; fill:none" points="488.462,97.5521 488.462,662.16 589.785,662.16 589.785,97.5521 488.462,97.5521 "/>
<path clip-path="url(#clip152)" d="M589.785 330.565 L589.785 662.16 L691.108 662.16 L691.108 330.565 L589.785 330.565 L589.785 330.565  Z" fill="#009af9" fill-rule="evenodd" fill-opacity="1"/>
<polyline clip-path="url(#clip152)" style="stroke:#000000; stroke-linecap:round; stroke-linejoin:round; stroke-width:4; stroke-opacity:1; fill:none" points="589.785,330.565 589.785,662.16 691.108,662.16 691.108,330.565 589.785,330.565 "/>
<path clip-path="url(#clip152)" d="M691.108 420.185 L691.108 662.16 L792.431 662.16 L792.431 420.185 L691.108 420.185 L691.108 420.185  Z" fill="#009af9" fill-rule="evenodd" fill-opacity="1"/>
<polyline clip-path="url(#clip152)" style="stroke:#000000; stroke-linecap:round; stroke-linejoin:round; stroke-width:4; stroke-opacity:1; fill:none" points="691.108,420.185 691.108,662.16 792.431,662.16 792.431,420.185 691.108,420.185 "/>
<path clip-path="url(#clip152)" d="M792.431 581.502 L792.431 662.16 L893.754 662.16 L893.754 581.502 L792.431 581.502 L792.431 581.502  Z" fill="#009af9" fill-rule="evenodd" fill-opacity="1"/>
<polyline clip-path="url(#clip152)" style="stroke:#000000; stroke-linecap:round; stroke-linejoin:round; stroke-width:4; stroke-opacity:1; fill:none" points="792.431,581.502 792.431,662.16 893.754,662.16 893.754,581.502 792.431,581.502 "/>
<path clip-path="url(#clip152)" d="M893.754 653.198 L893.754 662.16 L995.077 662.16 L995.077 653.198 L893.754 653.198 L893.754 653.198  Z" fill="#009af9" fill-rule="evenodd" fill-opacity="1"/>
<polyline clip-path="url(#clip152)" style="stroke:#000000; stroke-linecap:round; stroke-linejoin:round; stroke-width:4; stroke-opacity:1; fill:none" points="893.754,653.198 893.754,662.16 995.077,662.16 995.077,653.198 893.754,653.198 "/>
<path clip-path="url(#clip152)" d="M995.077 554.616 L995.077 662.16 L1096.4 662.16 L1096.4 554.616 L995.077 554.616 L995.077 554.616  Z" fill="#009af9" fill-rule="evenodd" fill-opacity="1"/>
<polyline clip-path="url(#clip152)" style="stroke:#000000; stroke-linecap:round; stroke-linejoin:round; stroke-width:4; stroke-opacity:1; fill:none" points="995.077,554.616 995.077,662.16 1096.4,662.16 1096.4,554.616 995.077,554.616 "/>
<circle clip-path="url(#clip152)" style="fill:#009af9; stroke:none; fill-opacity:0" cx="235.155" cy="653.198" r="2"/>
<circle clip-path="url(#clip152)" style="fill:#009af9; stroke:none; fill-opacity:0" cx="336.478" cy="384.337" r="2"/>
<circle clip-path="url(#clip152)" style="fill:#009af9; stroke:none; fill-opacity:0" cx="437.801" cy="303.679" r="2"/>
<circle clip-path="url(#clip152)" style="fill:#009af9; stroke:none; fill-opacity:0" cx="539.124" cy="97.5521" r="2"/>
<circle clip-path="url(#clip152)" style="fill:#009af9; stroke:none; fill-opacity:0" cx="640.447" cy="330.565" r="2"/>
<circle clip-path="url(#clip152)" style="fill:#009af9; stroke:none; fill-opacity:0" cx="741.77" cy="420.185" r="2"/>
<circle clip-path="url(#clip152)" style="fill:#009af9; stroke:none; fill-opacity:0" cx="843.093" cy="581.502" r="2"/>
<circle clip-path="url(#clip152)" style="fill:#009af9; stroke:none; fill-opacity:0" cx="944.416" cy="653.198" r="2"/>
<circle clip-path="url(#clip152)" style="fill:#009af9; stroke:none; fill-opacity:0" cx="1045.74" cy="554.616" r="2"/>
<polyline clip-path="url(#clip152)" style="stroke:#ff0000; stroke-linecap:round; stroke-linejoin:round; stroke-width:8; stroke-opacity:1; fill:none" stroke-dasharray="32, 20" points="577.616,1226.77 577.616,-467.056 "/>
<polyline clip-path="url(#clip152)" style="stroke:#ff0000; stroke-linecap:round; stroke-linejoin:round; stroke-width:6; stroke-opacity:1; fill:none" stroke-dasharray="24, 12, 3, 12" points="299.207,1226.77 299.207,-467.056 "/>
<polyline clip-path="url(#clip152)" style="stroke:#ff0000; stroke-linecap:round; stroke-linejoin:round; stroke-width:6; stroke-opacity:1; fill:none" stroke-dasharray="24, 12, 3, 12" points="1034.91,1226.77 1034.91,-467.056 "/>
<path clip-path="url(#clip150)" d="M1328.14 662.16 L2352.76 662.16 L2352.76 97.5521 L1328.14 97.5521  Z" fill="#ffffff" fill-rule="evenodd" fill-opacity="1"/>
<defs>
  <clipPath id="clip153">
    <rect x="1328" y="97" width="1026" height="566"/>
  </clipPath>
</defs>
<polyline clip-path="url(#clip153)" style="stroke:#000000; stroke-linecap:round; stroke-linejoin:round; stroke-width:2; stroke-opacity:0.1; fill:none" points="1384.49,662.16 1384.49,97.5521 "/>
<polyline clip-path="url(#clip153)" style="stroke:#000000; stroke-linecap:round; stroke-linejoin:round; stroke-width:2; stroke-opacity:0.1; fill:none" points="1645.04,662.16 1645.04,97.5521 "/>
<polyline clip-path="url(#clip153)" style="stroke:#000000; stroke-linecap:round; stroke-linejoin:round; stroke-width:2; stroke-opacity:0.1; fill:none" points="1905.58,662.16 1905.58,97.5521 "/>
<polyline clip-path="url(#clip153)" style="stroke:#000000; stroke-linecap:round; stroke-linejoin:round; stroke-width:2; stroke-opacity:0.1; fill:none" points="2166.13,662.16 2166.13,97.5521 "/>
<polyline clip-path="url(#clip153)" style="stroke:#000000; stroke-linecap:round; stroke-linejoin:round; stroke-width:2; stroke-opacity:0.1; fill:none" points="1328.14,662.16 2352.76,662.16 "/>
<polyline clip-path="url(#clip153)" style="stroke:#000000; stroke-linecap:round; stroke-linejoin:round; stroke-width:2; stroke-opacity:0.1; fill:none" points="1328.14,527.73 2352.76,527.73 "/>
<polyline clip-path="url(#clip153)" style="stroke:#000000; stroke-linecap:round; stroke-linejoin:round; stroke-width:2; stroke-opacity:0.1; fill:none" points="1328.14,393.299 2352.76,393.299 "/>
<polyline clip-path="url(#clip153)" style="stroke:#000000; stroke-linecap:round; stroke-linejoin:round; stroke-width:2; stroke-opacity:0.1; fill:none" points="1328.14,258.869 2352.76,258.869 "/>
<polyline clip-path="url(#clip153)" style="stroke:#000000; stroke-linecap:round; stroke-linejoin:round; stroke-width:2; stroke-opacity:0.1; fill:none" points="1328.14,124.438 2352.76,124.438 "/>
<polyline clip-path="url(#clip150)" style="stroke:#000000; stroke-linecap:round; stroke-linejoin:round; stroke-width:4; stroke-opacity:1; fill:none" points="1328.14,662.16 2352.76,662.16 "/>
<polyline clip-path="url(#clip150)" style="stroke:#000000; stroke-linecap:round; stroke-linejoin:round; stroke-width:4; stroke-opacity:1; fill:none" points="1384.49,662.16 1384.49,643.263 "/>
<polyline clip-path="url(#clip150)" style="stroke:#000000; stroke-linecap:round; stroke-linejoin:round; stroke-width:4; stroke-opacity:1; fill:none" points="1645.04,662.16 1645.04,643.263 "/>
<polyline clip-path="url(#clip150)" style="stroke:#000000; stroke-linecap:round; stroke-linejoin:round; stroke-width:4; stroke-opacity:1; fill:none" points="1905.58,662.16 1905.58,643.263 "/>
<polyline clip-path="url(#clip150)" style="stroke:#000000; stroke-linecap:round; stroke-linejoin:round; stroke-width:4; stroke-opacity:1; fill:none" points="2166.13,662.16 2166.13,643.263 "/>
<path clip-path="url(#clip150)" d="M1330.69 733.844 Q1328.78 735.759 1329.7 738.619 Q1330.62 741.455 1334.4 745.236 Q1338.17 749.005 1341.02 749.938 Q1343.87 750.846 1345.78 748.931 Q1347.71 747.004 1346.79 744.168 Q1345.87 741.308 1342.1 737.539 Q1338.32 733.758 1335.47 732.849 Q1332.62 731.916 1330.69 733.844 M1328.73 731.88 Q1331.81 728.798 1335.87 729.621 Q1339.94 730.419 1344.58 735.059 Q1349.21 739.687 1350.02 743.763 Q1350.83 747.814 1347.75 750.895 Q1344.66 753.977 1340.6 753.179 Q1336.54 752.356 1331.91 747.728 Q1327.27 743.088 1326.46 739.037 Q1325.65 734.961 1328.73 731.88 Z" fill="#000000" fill-rule="nonzero" fill-opacity="1" /><path clip-path="url(#clip150)" d="M1354.96 736.729 L1357.55 734.138 L1360.67 737.256 L1358.08 739.847 L1354.96 736.729 Z" fill="#000000" fill-rule="nonzero" fill-opacity="1" /><path clip-path="url(#clip150)" d="M1366.12 727.632 L1374.78 718.977 L1376.86 721.064 L1365.23 732.702 L1363.14 730.615 Q1363.09 727.743 1363.07 722.857 Q1363.04 717.946 1362.96 716.608 Q1362.81 714.079 1362.35 712.692 Q1361.9 711.28 1361 710.384 Q1359.54 708.923 1357.59 709.034 Q1355.65 709.132 1354.01 710.777 Q1352.84 711.943 1351.94 713.65 Q1351.06 715.344 1350.41 717.639 L1347.9 715.135 Q1348.8 713.036 1349.8 711.428 Q1350.79 709.819 1351.87 708.739 Q1354.72 705.891 1357.84 705.621 Q1360.95 705.351 1363.34 707.732 Q1364.47 708.862 1365.05 710.31 Q1365.64 711.734 1365.9 714.227 Q1365.95 714.889 1366.01 718.241 Q1366.06 721.58 1366.12 727.632 Z" fill="#000000" fill-rule="nonzero" fill-opacity="1" /><path clip-path="url(#clip150)" d="M1378.67 701.852 Q1376.9 703.62 1376.83 705.584 Q1376.77 707.536 1378.42 709.193 Q1380.08 710.851 1382.03 710.789 Q1384 710.716 1385.76 708.948 Q1387.53 707.18 1387.61 705.216 Q1387.67 703.239 1386.02 701.594 Q1384.36 699.937 1382.4 700.011 Q1380.45 700.072 1378.67 701.852 M1375.13 703.276 Q1373.14 704.479 1371.16 704.283 Q1369.18 704.074 1367.61 702.503 Q1365.41 700.305 1365.69 697.47 Q1365.99 694.622 1368.71 691.896 Q1371.45 689.159 1374.29 688.876 Q1377.12 688.594 1379.32 690.791 Q1380.89 692.363 1381.09 694.352 Q1381.3 696.328 1380.1 698.304 Q1382.31 696.93 1384.52 697.15 Q1386.75 697.359 1388.5 699.115 Q1391.17 701.779 1390.96 704.835 Q1390.76 707.88 1387.73 710.912 Q1384.7 713.944 1381.64 714.153 Q1378.59 714.349 1375.93 711.685 Q1374.18 709.93 1373.97 707.708 Q1373.76 705.486 1375.13 703.276 M1370.31 700.269 Q1371.73 701.693 1373.41 701.607 Q1375.11 701.509 1376.72 699.9 Q1378.31 698.304 1378.41 696.61 Q1378.52 694.904 1377.1 693.48 Q1375.67 692.056 1373.97 692.166 Q1372.27 692.265 1370.68 693.861 Q1369.07 695.469 1368.97 697.163 Q1368.88 698.845 1370.31 700.269 Z" fill="#000000" fill-rule="nonzero" fill-opacity="1" /><path clip-path="url(#clip150)" d="M1591.19 733.893 Q1589.27 735.808 1590.19 738.668 Q1591.12 741.504 1594.9 745.285 Q1598.67 749.054 1601.51 749.987 Q1604.36 750.895 1606.28 748.98 Q1608.2 747.053 1607.28 744.217 Q1606.36 741.357 1602.59 737.588 Q1598.81 733.807 1595.96 732.898 Q1593.12 731.966 1591.19 733.893 M1589.23 731.929 Q1592.31 728.847 1596.37 729.67 Q1600.43 730.468 1605.07 735.108 Q1609.7 739.736 1610.51 743.812 Q1611.32 747.863 1608.24 750.944 Q1605.16 754.026 1601.1 753.228 Q1597.03 752.405 1592.4 747.777 Q1587.76 743.137 1586.95 739.086 Q1586.14 735.01 1589.23 731.929 Z" fill="#000000" fill-rule="nonzero" fill-opacity="1" /><path clip-path="url(#clip150)" d="M1615.46 736.778 L1618.05 734.187 L1621.17 737.306 L1618.58 739.896 L1615.46 736.778 Z" fill="#000000" fill-rule="nonzero" fill-opacity="1" /><path clip-path="url(#clip150)" d="M1624.2 714.509 Q1626.36 713.109 1628.56 713.318 Q1630.77 713.515 1632.54 715.282 Q1635.25 717.995 1634.87 721.347 Q1634.49 724.698 1631.05 728.135 Q1629.9 729.289 1628.43 730.284 Q1627 731.278 1625.24 732.125 L1622.85 729.731 Q1624.48 729.302 1626.02 728.381 Q1627.55 727.46 1628.89 726.122 Q1631.22 723.79 1631.52 721.654 Q1631.82 719.505 1630.07 717.75 Q1628.45 716.129 1626.4 716.363 Q1624.35 716.571 1622.32 718.597 L1620.19 720.733 L1618.15 718.695 L1620.38 716.461 Q1622.21 714.632 1622.46 712.938 Q1622.69 711.231 1621.31 709.856 Q1619.9 708.445 1618.15 708.702 Q1616.39 708.936 1614.53 710.802 Q1613.51 711.82 1612.56 713.208 Q1611.62 714.595 1610.68 716.461 L1608.47 714.251 Q1609.49 712.447 1610.52 711.022 Q1611.57 709.586 1612.66 708.494 Q1615.48 705.67 1618.42 705.314 Q1621.34 704.946 1623.52 707.131 Q1625.05 708.653 1625.23 710.581 Q1625.4 712.496 1624.2 714.509 Z" fill="#000000" fill-rule="nonzero" fill-opacity="1" /><path clip-path="url(#clip150)" d="M1631.17 693.91 Q1629.26 695.825 1630.18 698.685 Q1631.1 701.521 1634.88 705.302 Q1638.65 709.071 1641.5 710.004 Q1644.34 710.912 1646.26 708.997 Q1648.19 707.07 1647.27 704.234 Q1646.35 701.373 1642.58 697.605 Q1638.8 693.824 1635.95 692.915 Q1633.1 691.982 1631.17 693.91 M1629.21 691.945 Q1632.29 688.864 1636.35 689.687 Q1640.42 690.485 1645.06 695.125 Q1649.68 699.753 1650.5 703.829 Q1651.31 707.88 1648.22 710.961 Q1645.14 714.042 1641.08 713.244 Q1637.02 712.422 1632.39 707.794 Q1627.75 703.154 1626.94 699.102 Q1626.13 695.027 1629.21 691.945 Z" fill="#000000" fill-rule="nonzero" fill-opacity="1" /><path clip-path="url(#clip150)" d="M1852.58 733.046 Q1850.67 734.961 1851.59 737.821 Q1852.51 740.657 1856.29 744.438 Q1860.06 748.207 1862.91 749.14 Q1865.75 750.048 1867.67 748.133 Q1869.6 746.206 1868.67 743.37 Q1867.75 740.51 1863.99 736.741 Q1860.2 732.96 1857.36 732.051 Q1854.51 731.118 1852.58 733.046 M1850.62 731.082 Q1853.7 728 1857.76 728.823 Q1861.82 729.621 1866.47 734.261 Q1871.09 738.889 1871.9 742.965 Q1872.71 747.016 1869.63 750.097 Q1866.55 753.179 1862.49 752.381 Q1858.42 751.558 1853.8 746.93 Q1849.16 742.29 1848.35 738.239 Q1847.54 734.163 1850.62 731.082 Z" fill="#000000" fill-rule="nonzero" fill-opacity="1" /><path clip-path="url(#clip150)" d="M1876.85 735.931 L1879.44 733.34 L1882.56 736.459 L1879.97 739.049 L1876.85 735.931 Z" fill="#000000" fill-rule="nonzero" fill-opacity="1" /><path clip-path="url(#clip150)" d="M1885.59 713.662 Q1887.75 712.262 1889.95 712.471 Q1892.16 712.667 1893.93 714.435 Q1896.64 717.148 1896.26 720.5 Q1895.88 723.851 1892.44 727.288 Q1891.29 728.442 1889.83 729.437 Q1888.39 730.431 1886.63 731.278 L1884.24 728.884 Q1885.87 728.455 1887.41 727.534 Q1888.94 726.613 1890.28 725.275 Q1892.61 722.943 1892.91 720.807 Q1893.21 718.658 1891.46 716.903 Q1889.84 715.282 1887.79 715.516 Q1885.74 715.724 1883.71 717.75 L1881.58 719.886 L1879.54 717.848 L1881.77 715.614 Q1883.6 713.785 1883.85 712.091 Q1884.08 710.384 1882.71 709.009 Q1881.29 707.597 1879.54 707.855 Q1877.78 708.088 1875.92 709.954 Q1874.9 710.973 1873.95 712.361 Q1873.01 713.748 1872.08 715.614 L1869.87 713.404 Q1870.88 711.599 1871.92 710.175 Q1872.96 708.739 1874.05 707.647 Q1876.88 704.823 1879.81 704.467 Q1882.73 704.099 1884.92 706.284 Q1886.44 707.806 1886.62 709.733 Q1886.79 711.649 1885.59 713.662 Z" fill="#000000" fill-rule="nonzero" fill-opacity="1" /><path clip-path="url(#clip150)" d="M1904.01 710.838 L1912.66 702.184 L1914.75 704.271 L1903.11 715.908 L1901.02 713.821 Q1900.97 710.949 1900.95 706.063 Q1900.92 701.153 1900.84 699.814 Q1900.69 697.286 1900.24 695.898 Q1899.78 694.487 1898.89 693.59 Q1897.43 692.13 1895.47 692.24 Q1893.53 692.338 1891.89 693.983 Q1890.72 695.149 1889.83 696.856 Q1888.94 698.55 1888.29 700.846 L1885.79 698.341 Q1886.68 696.242 1887.68 694.634 Q1888.67 693.026 1889.75 691.945 Q1892.6 689.097 1895.72 688.827 Q1898.84 688.557 1901.22 690.939 Q1902.35 692.068 1902.94 693.517 Q1903.53 694.941 1903.78 697.433 Q1903.83 698.096 1903.9 701.447 Q1903.94 704.786 1904.01 710.838 Z" fill="#000000" fill-rule="nonzero" fill-opacity="1" /><path clip-path="url(#clip150)" d="M2112.02 734.151 Q2110.11 736.066 2111.03 738.926 Q2111.95 741.762 2115.73 745.543 Q2119.5 749.312 2122.35 750.245 Q2125.19 751.153 2127.11 749.238 Q2129.04 747.311 2128.11 744.475 Q2127.19 741.615 2123.43 737.846 Q2119.64 734.065 2116.8 733.156 Q2113.95 732.223 2112.02 734.151 M2110.06 732.186 Q2113.14 729.105 2117.2 729.928 Q2121.26 730.726 2125.91 735.366 Q2130.53 739.994 2131.34 744.07 Q2132.15 748.121 2129.07 751.202 Q2125.99 754.283 2121.93 753.485 Q2117.86 752.663 2113.24 748.035 Q2108.6 743.395 2107.79 739.343 Q2106.98 735.268 2110.06 732.186 Z" fill="#000000" fill-rule="nonzero" fill-opacity="1" /><path clip-path="url(#clip150)" d="M2136.29 737.036 L2138.88 734.445 L2142 737.563 L2139.41 740.154 L2136.29 737.036 Z" fill="#000000" fill-rule="nonzero" fill-opacity="1" /><path clip-path="url(#clip150)" d="M2145.03 714.767 Q2147.19 713.367 2149.39 713.576 Q2151.6 713.772 2153.37 715.54 Q2156.08 718.253 2155.7 721.604 Q2155.32 724.956 2151.88 728.393 Q2150.73 729.547 2149.27 730.541 Q2147.83 731.536 2146.07 732.383 L2143.68 729.989 Q2145.31 729.559 2146.85 728.639 Q2148.38 727.718 2149.72 726.38 Q2152.05 724.047 2152.35 721.911 Q2152.65 719.763 2150.9 718.008 Q2149.28 716.387 2147.23 716.62 Q2145.18 716.829 2143.15 718.855 L2141.02 720.991 L2138.98 718.953 L2141.21 716.719 Q2143.04 714.889 2143.29 713.195 Q2143.52 711.489 2142.15 710.114 Q2140.73 708.702 2138.98 708.96 Q2137.22 709.193 2135.36 711.059 Q2134.34 712.078 2133.39 713.465 Q2132.45 714.853 2131.52 716.719 L2129.31 714.509 Q2130.32 712.704 2131.36 711.28 Q2132.4 709.844 2133.49 708.751 Q2136.32 705.928 2139.25 705.572 Q2142.17 705.204 2144.36 707.389 Q2145.88 708.911 2146.06 710.838 Q2146.23 712.753 2145.03 714.767 Z" fill="#000000" fill-rule="nonzero" fill-opacity="1" /><path clip-path="url(#clip150)" d="M2154.04 693.185 L2157.57 709.23 L2163.83 702.969 L2154.04 693.185 M2151.23 691.675 L2154.35 688.557 L2166.29 700.502 L2168.91 697.887 L2170.97 699.949 L2168.36 702.564 L2172.68 706.885 L2170.21 709.353 L2165.89 705.032 L2157.61 713.306 L2155.22 710.912 L2151.23 691.675 Z" fill="#000000" fill-rule="nonzero" fill-opacity="1" /><polyline clip-path="url(#clip150)" style="stroke:#000000; stroke-linecap:round; stroke-linejoin:round; stroke-width:4; stroke-opacity:1; fill:none" points="1328.14,662.16 1328.14,97.5521 "/>
<polyline clip-path="url(#clip150)" style="stroke:#000000; stroke-linecap:round; stroke-linejoin:round; stroke-width:4; stroke-opacity:1; fill:none" points="1328.14,662.16 1347.04,662.16 "/>
<polyline clip-path="url(#clip150)" style="stroke:#000000; stroke-linecap:round; stroke-linejoin:round; stroke-width:4; stroke-opacity:1; fill:none" points="1328.14,527.73 1347.04,527.73 "/>
<polyline clip-path="url(#clip150)" style="stroke:#000000; stroke-linecap:round; stroke-linejoin:round; stroke-width:4; stroke-opacity:1; fill:none" points="1328.14,393.299 1347.04,393.299 "/>
<polyline clip-path="url(#clip150)" style="stroke:#000000; stroke-linecap:round; stroke-linejoin:round; stroke-width:4; stroke-opacity:1; fill:none" points="1328.14,258.869 1347.04,258.869 "/>
<polyline clip-path="url(#clip150)" style="stroke:#000000; stroke-linecap:round; stroke-linejoin:round; stroke-width:4; stroke-opacity:1; fill:none" points="1328.14,124.438 1347.04,124.438 "/>
<path clip-path="url(#clip150)" d="M1283.18 651.509 Q1280.47 651.509 1279.1 654.183 Q1277.75 656.839 1277.75 662.186 Q1277.75 667.516 1279.1 670.19 Q1280.47 672.846 1283.18 672.846 Q1285.91 672.846 1287.26 670.19 Q1288.63 667.516 1288.63 662.186 Q1288.63 656.839 1287.26 654.183 Q1285.91 651.509 1283.18 651.509 M1283.18 648.732 Q1287.54 648.732 1289.83 652.186 Q1292.14 655.624 1292.14 662.186 Q1292.14 668.732 1289.83 672.186 Q1287.54 675.624 1283.18 675.624 Q1278.82 675.624 1276.51 672.186 Q1274.22 668.732 1274.22 662.186 Q1274.22 655.624 1276.51 652.186 Q1278.82 648.732 1283.18 648.732 Z" fill="#000000" fill-rule="nonzero" fill-opacity="1" /><path clip-path="url(#clip150)" d="M1253.67 537.738 L1259.39 537.738 L1259.39 517.964 L1253.16 519.214 L1253.16 516.02 L1259.36 514.77 L1262.87 514.77 L1262.87 537.738 L1268.6 537.738 L1268.6 540.69 L1253.67 540.69 L1253.67 537.738 Z" fill="#000000" fill-rule="nonzero" fill-opacity="1" /><path clip-path="url(#clip150)" d="M1283.18 517.079 Q1280.47 517.079 1279.1 519.752 Q1277.75 522.409 1277.75 527.756 Q1277.75 533.086 1279.1 535.759 Q1280.47 538.416 1283.18 538.416 Q1285.91 538.416 1287.26 535.759 Q1288.63 533.086 1288.63 527.756 Q1288.63 522.409 1287.26 519.752 Q1285.91 517.079 1283.18 517.079 M1283.18 514.301 Q1287.54 514.301 1289.83 517.756 Q1292.14 521.193 1292.14 527.756 Q1292.14 534.301 1289.83 537.756 Q1287.54 541.193 1283.18 541.193 Q1278.82 541.193 1276.51 537.756 Q1274.22 534.301 1274.22 527.756 Q1274.22 521.193 1276.51 517.756 Q1278.82 514.301 1283.18 514.301 Z" fill="#000000" fill-rule="nonzero" fill-opacity="1" /><path clip-path="url(#clip150)" d="M1256.08 403.308 L1268.32 403.308 L1268.32 406.259 L1251.86 406.259 L1251.86 403.308 Q1253.86 401.242 1257.29 397.77 Q1260.75 394.28 1261.63 393.273 Q1263.32 391.381 1263.98 390.079 Q1264.66 388.759 1264.66 387.492 Q1264.66 385.426 1263.2 384.124 Q1261.76 382.822 1259.43 382.822 Q1257.78 382.822 1255.94 383.395 Q1254.12 383.968 1252.03 385.131 L1252.03 381.589 Q1254.15 380.739 1255.99 380.305 Q1257.83 379.871 1259.36 379.871 Q1263.39 379.871 1265.78 381.884 Q1268.18 383.898 1268.18 387.266 Q1268.18 388.864 1267.57 390.305 Q1266.98 391.728 1265.4 393.673 Q1264.97 394.176 1262.64 396.589 Q1260.31 398.985 1256.08 403.308 Z" fill="#000000" fill-rule="nonzero" fill-opacity="1" /><path clip-path="url(#clip150)" d="M1283.18 382.648 Q1280.47 382.648 1279.1 385.322 Q1277.75 387.978 1277.75 393.325 Q1277.75 398.655 1279.1 401.329 Q1280.47 403.985 1283.18 403.985 Q1285.91 403.985 1287.26 401.329 Q1288.63 398.655 1288.63 393.325 Q1288.63 387.978 1287.26 385.322 Q1285.91 382.648 1283.18 382.648 M1283.18 379.871 Q1287.54 379.871 1289.83 383.325 Q1292.14 386.763 1292.14 393.325 Q1292.14 399.87 1289.83 403.325 Q1287.54 406.763 1283.18 406.763 Q1278.82 406.763 1276.51 403.325 Q1274.22 399.87 1274.22 393.325 Q1274.22 386.763 1276.51 383.325 Q1278.82 379.871 1283.18 379.871 Z" fill="#000000" fill-rule="nonzero" fill-opacity="1" /><path clip-path="url(#clip150)" d="M1263.68 257.853 Q1266.2 258.391 1267.61 260.093 Q1269.03 261.794 1269.03 264.294 Q1269.03 268.131 1266.39 270.232 Q1263.75 272.332 1258.89 272.332 Q1257.26 272.332 1255.52 272.002 Q1253.8 271.69 1251.96 271.048 L1251.96 267.662 Q1253.42 268.513 1255.16 268.947 Q1256.89 269.381 1258.79 269.381 Q1262.09 269.381 1263.8 268.079 Q1265.54 266.777 1265.54 264.294 Q1265.54 262.002 1263.93 260.718 Q1262.33 259.416 1259.46 259.416 L1256.44 259.416 L1256.44 256.534 L1259.6 256.534 Q1262.19 256.534 1263.56 255.509 Q1264.93 254.468 1264.93 252.523 Q1264.93 250.527 1263.51 249.468 Q1262.1 248.391 1259.46 248.391 Q1258.02 248.391 1256.37 248.704 Q1254.72 249.016 1252.75 249.676 L1252.75 246.551 Q1254.74 245.996 1256.48 245.718 Q1258.23 245.44 1259.78 245.44 Q1263.77 245.44 1266.1 247.263 Q1268.42 249.068 1268.42 252.159 Q1268.42 254.312 1267.19 255.805 Q1265.96 257.28 1263.68 257.853 Z" fill="#000000" fill-rule="nonzero" fill-opacity="1" /><path clip-path="url(#clip150)" d="M1283.18 248.218 Q1280.47 248.218 1279.1 250.891 Q1277.75 253.548 1277.75 258.895 Q1277.75 264.225 1279.1 266.898 Q1280.47 269.554 1283.18 269.554 Q1285.91 269.554 1287.26 266.898 Q1288.63 264.225 1288.63 258.895 Q1288.63 253.548 1287.26 250.891 Q1285.91 248.218 1283.18 248.218 M1283.18 245.44 Q1287.54 245.44 1289.83 248.895 Q1292.14 252.332 1292.14 258.895 Q1292.14 265.44 1289.83 268.895 Q1287.54 272.332 1283.18 272.332 Q1278.82 272.332 1276.51 268.895 Q1274.22 265.44 1274.22 258.895 Q1274.22 252.332 1276.51 248.895 Q1278.82 245.44 1283.18 245.44 Z" fill="#000000" fill-rule="nonzero" fill-opacity="1" /><path clip-path="url(#clip150)" d="M1262.69 114.534 L1253.84 128.371 L1262.69 128.371 L1262.69 114.534 M1261.77 111.478 L1266.18 111.478 L1266.18 128.371 L1269.88 128.371 L1269.88 131.287 L1266.18 131.287 L1266.18 137.398 L1262.69 137.398 L1262.69 131.287 L1250.99 131.287 L1250.99 127.902 L1261.77 111.478 Z" fill="#000000" fill-rule="nonzero" fill-opacity="1" /><path clip-path="url(#clip150)" d="M1283.18 113.787 Q1280.47 113.787 1279.1 116.461 Q1277.75 119.117 1277.75 124.464 Q1277.75 129.794 1279.1 132.468 Q1280.47 135.124 1283.18 135.124 Q1285.91 135.124 1287.26 132.468 Q1288.63 129.794 1288.63 124.464 Q1288.63 119.117 1287.26 116.461 Q1285.91 113.787 1283.18 113.787 M1283.18 111.009 Q1287.54 111.009 1289.83 114.464 Q1292.14 117.902 1292.14 124.464 Q1292.14 131.009 1289.83 134.464 Q1287.54 137.902 1283.18 137.902 Q1278.82 137.902 1276.51 134.464 Q1274.22 131.009 1274.22 124.464 Q1274.22 117.902 1276.51 114.464 Q1278.82 111.009 1283.18 111.009 Z" fill="#000000" fill-rule="nonzero" fill-opacity="1" /><path clip-path="url(#clip150)" d="M1340.04 18.9258 Q1336.52 18.9258 1334.62 21.4721 Q1332.63 24.1341 1332.63 28.5323 Q1332.63 33.185 1334.6 35.8702 Q1336.59 38.5322 1340.04 38.5322 Q1343.44 38.5322 1345.43 35.847 Q1347.42 33.1619 1347.42 28.5323 Q1347.42 24.2962 1345.43 21.4721 Q1343.6 18.9258 1340.04 18.9258 M1340.04 15.5462 L1354.18 15.5462 L1354.18 19.8054 L1349.41 19.8054 Q1351.93 23.4165 1351.93 28.5323 Q1351.93 34.898 1348.76 38.5091 Q1345.59 42.1433 1340.04 42.1433 Q1334.46 42.1433 1331.31 38.5091 Q1328.14 34.898 1328.14 28.5323 Q1328.14 22.1203 1331.31 18.5323 Q1333.92 15.5462 1340.04 15.5462 Z" fill="#000000" fill-rule="nonzero" fill-opacity="1" /><path clip-path="url(#clip150)" d="M1378.35 19.6666 Q1377.49 19.3656 1376.63 19.1342 Q1374.34 18.5323 1371.89 18.5323 Q1367.65 18.5323 1365.29 20.824 Q1363.09 22.9536 1362.67 26.8656 L1378.35 26.8656 L1378.35 30.1989 L1362.67 30.1989 Q1363.09 34.1109 1365.29 36.2405 Q1367.65 38.5322 1371.89 38.5322 Q1374.85 38.5322 1376.63 37.9304 L1378.35 37.3517 L1378.35 41.2174 L1376.52 41.634 Q1374.11 42.1433 1371.63 42.1433 Q1365.43 42.1433 1361.82 38.5322 Q1358.18 34.9211 1358.18 28.5323 Q1358.18 22.1434 1361.82 18.5323 Q1365.43 14.9212 1371.63 14.9212 Q1373.97 14.9212 1376.52 15.4305 Q1377.44 15.6157 1378.35 15.8934 L1378.35 19.6666 Z" fill="#000000" fill-rule="nonzero" fill-opacity="1" /><path clip-path="url(#clip153)" d="M1384.49 554.616 L1384.49 662.16 L1449.63 662.16 L1449.63 554.616 L1384.49 554.616 L1384.49 554.616  Z" fill="#009af9" fill-rule="evenodd" fill-opacity="1"/>
<polyline clip-path="url(#clip153)" style="stroke:#000000; stroke-linecap:round; stroke-linejoin:round; stroke-width:4; stroke-opacity:1; fill:none" points="1384.49,554.616 1384.49,662.16 1449.63,662.16 1449.63,554.616 1384.49,554.616 "/>
<path clip-path="url(#clip153)" d="M1449.63 594.945 L1449.63 662.16 L1514.77 662.16 L1514.77 594.945 L1449.63 594.945 L1449.63 594.945  Z" fill="#009af9" fill-rule="evenodd" fill-opacity="1"/>
<polyline clip-path="url(#clip153)" style="stroke:#000000; stroke-linecap:round; stroke-linejoin:round; stroke-width:4; stroke-opacity:1; fill:none" points="1449.63,594.945 1449.63,662.16 1514.77,662.16 1514.77,594.945 1449.63,594.945 "/>
<path clip-path="url(#clip153)" d="M1514.77 662.16 L1514.77 662.16 L1579.9 662.16 L1579.9 662.16 L1514.77 662.16 L1514.77 662.16  Z" fill="#009af9" fill-rule="evenodd" fill-opacity="1"/>
<polyline clip-path="url(#clip153)" style="stroke:#000000; stroke-linecap:round; stroke-linejoin:round; stroke-width:4; stroke-opacity:1; fill:none" points="1514.77,662.16 1514.77,662.16 1579.9,662.16 1514.77,662.16 "/>
<path clip-path="url(#clip153)" d="M1579.9 662.16 L1579.9 662.16 L1645.04 662.16 L1645.04 662.16 L1579.9 662.16 L1579.9 662.16  Z" fill="#009af9" fill-rule="evenodd" fill-opacity="1"/>
<polyline clip-path="url(#clip153)" style="stroke:#000000; stroke-linecap:round; stroke-linejoin:round; stroke-width:4; stroke-opacity:1; fill:none" points="1579.9,662.16 1579.9,662.16 1645.04,662.16 1579.9,662.16 "/>
<path clip-path="url(#clip153)" d="M1645.04 662.16 L1645.04 662.16 L1710.17 662.16 L1710.17 662.16 L1645.04 662.16 L1645.04 662.16  Z" fill="#009af9" fill-rule="evenodd" fill-opacity="1"/>
<polyline clip-path="url(#clip153)" style="stroke:#000000; stroke-linecap:round; stroke-linejoin:round; stroke-width:4; stroke-opacity:1; fill:none" points="1645.04,662.16 1645.04,662.16 1710.17,662.16 1645.04,662.16 "/>
<path clip-path="url(#clip153)" d="M1710.17 648.717 L1710.17 662.16 L1775.31 662.16 L1775.31 648.717 L1710.17 648.717 L1710.17 648.717  Z" fill="#009af9" fill-rule="evenodd" fill-opacity="1"/>
<polyline clip-path="url(#clip153)" style="stroke:#000000; stroke-linecap:round; stroke-linejoin:round; stroke-width:4; stroke-opacity:1; fill:none" points="1710.17,648.717 1710.17,662.16 1775.31,662.16 1775.31,648.717 1710.17,648.717 "/>
<path clip-path="url(#clip153)" d="M1775.31 352.97 L1775.31 662.16 L1840.45 662.16 L1840.45 352.97 L1775.31 352.97 L1775.31 352.97  Z" fill="#009af9" fill-rule="evenodd" fill-opacity="1"/>
<polyline clip-path="url(#clip153)" style="stroke:#000000; stroke-linecap:round; stroke-linejoin:round; stroke-width:4; stroke-opacity:1; fill:none" points="1775.31,352.97 1775.31,662.16 1840.45,662.16 1840.45,352.97 1775.31,352.97 "/>
<path clip-path="url(#clip153)" d="M1840.45 366.413 L1840.45 662.16 L1905.58 662.16 L1905.58 366.413 L1840.45 366.413 L1840.45 366.413  Z" fill="#009af9" fill-rule="evenodd" fill-opacity="1"/>
<polyline clip-path="url(#clip153)" style="stroke:#000000; stroke-linecap:round; stroke-linejoin:round; stroke-width:4; stroke-opacity:1; fill:none" points="1840.45,366.413 1840.45,662.16 1905.58,662.16 1905.58,366.413 1840.45,366.413 "/>
<path clip-path="url(#clip153)" d="M1905.58 299.198 L1905.58 662.16 L1970.72 662.16 L1970.72 299.198 L1905.58 299.198 L1905.58 299.198  Z" fill="#009af9" fill-rule="evenodd" fill-opacity="1"/>
<polyline clip-path="url(#clip153)" style="stroke:#000000; stroke-linecap:round; stroke-linejoin:round; stroke-width:4; stroke-opacity:1; fill:none" points="1905.58,299.198 1905.58,662.16 1970.72,662.16 1970.72,299.198 1905.58,299.198 "/>
<path clip-path="url(#clip153)" d="M1970.72 97.5521 L1970.72 662.16 L2035.86 662.16 L2035.86 97.5521 L1970.72 97.5521 L1970.72 97.5521  Z" fill="#009af9" fill-rule="evenodd" fill-opacity="1"/>
<polyline clip-path="url(#clip153)" style="stroke:#000000; stroke-linecap:round; stroke-linejoin:round; stroke-width:4; stroke-opacity:1; fill:none" points="1970.72,97.5521 1970.72,662.16 2035.86,662.16 2035.86,97.5521 1970.72,97.5521 "/>
<path clip-path="url(#clip153)" d="M2035.86 97.5521 L2035.86 662.16 L2100.99 662.16 L2100.99 97.5521 L2035.86 97.5521 L2035.86 97.5521  Z" fill="#009af9" fill-rule="evenodd" fill-opacity="1"/>
<polyline clip-path="url(#clip153)" style="stroke:#000000; stroke-linecap:round; stroke-linejoin:round; stroke-width:4; stroke-opacity:1; fill:none" points="2035.86,97.5521 2035.86,662.16 2100.99,662.16 2100.99,97.5521 2035.86,97.5521 "/>
<path clip-path="url(#clip153)" d="M2100.99 285.755 L2100.99 662.16 L2166.13 662.16 L2166.13 285.755 L2100.99 285.755 L2100.99 285.755  Z" fill="#009af9" fill-rule="evenodd" fill-opacity="1"/>
<polyline clip-path="url(#clip153)" style="stroke:#000000; stroke-linecap:round; stroke-linejoin:round; stroke-width:4; stroke-opacity:1; fill:none" points="2100.99,285.755 2100.99,662.16 2166.13,662.16 2166.13,285.755 2100.99,285.755 "/>
<path clip-path="url(#clip153)" d="M2166.13 366.413 L2166.13 662.16 L2231.26 662.16 L2231.26 366.413 L2166.13 366.413 L2166.13 366.413  Z" fill="#009af9" fill-rule="evenodd" fill-opacity="1"/>
<polyline clip-path="url(#clip153)" style="stroke:#000000; stroke-linecap:round; stroke-linejoin:round; stroke-width:4; stroke-opacity:1; fill:none" points="2166.13,366.413 2166.13,662.16 2231.26,662.16 2231.26,366.413 2166.13,366.413 "/>
<path clip-path="url(#clip153)" d="M2231.26 648.717 L2231.26 662.16 L2296.4 662.16 L2296.4 648.717 L2231.26 648.717 L2231.26 648.717  Z" fill="#009af9" fill-rule="evenodd" fill-opacity="1"/>
<polyline clip-path="url(#clip153)" style="stroke:#000000; stroke-linecap:round; stroke-linejoin:round; stroke-width:4; stroke-opacity:1; fill:none" points="2231.26,648.717 2231.26,662.16 2296.4,662.16 2296.4,648.717 2231.26,648.717 "/>
<circle clip-path="url(#clip153)" style="fill:#009af9; stroke:none; fill-opacity:0" cx="1417.06" cy="554.616" r="2"/>
<circle clip-path="url(#clip153)" style="fill:#009af9; stroke:none; fill-opacity:0" cx="1482.2" cy="594.945" r="2"/>
<circle clip-path="url(#clip153)" style="fill:#009af9; stroke:none; fill-opacity:0" cx="1547.33" cy="662.16" r="2"/>
<circle clip-path="url(#clip153)" style="fill:#009af9; stroke:none; fill-opacity:0" cx="1612.47" cy="662.16" r="2"/>
<circle clip-path="url(#clip153)" style="fill:#009af9; stroke:none; fill-opacity:0" cx="1677.61" cy="662.16" r="2"/>
<circle clip-path="url(#clip153)" style="fill:#009af9; stroke:none; fill-opacity:0" cx="1742.74" cy="648.717" r="2"/>
<circle clip-path="url(#clip153)" style="fill:#009af9; stroke:none; fill-opacity:0" cx="1807.88" cy="352.97" r="2"/>
<circle clip-path="url(#clip153)" style="fill:#009af9; stroke:none; fill-opacity:0" cx="1873.01" cy="366.413" r="2"/>
<circle clip-path="url(#clip153)" style="fill:#009af9; stroke:none; fill-opacity:0" cx="1938.15" cy="299.198" r="2"/>
<circle clip-path="url(#clip153)" style="fill:#009af9; stroke:none; fill-opacity:0" cx="2003.29" cy="97.5521" r="2"/>
<circle clip-path="url(#clip153)" style="fill:#009af9; stroke:none; fill-opacity:0" cx="2068.42" cy="97.5521" r="2"/>
<circle clip-path="url(#clip153)" style="fill:#009af9; stroke:none; fill-opacity:0" cx="2133.56" cy="285.755" r="2"/>
<circle clip-path="url(#clip153)" style="fill:#009af9; stroke:none; fill-opacity:0" cx="2198.7" cy="366.413" r="2"/>
<circle clip-path="url(#clip153)" style="fill:#009af9; stroke:none; fill-opacity:0" cx="2263.83" cy="648.717" r="2"/>
<polyline clip-path="url(#clip153)" style="stroke:#ff0000; stroke-linecap:round; stroke-linejoin:round; stroke-width:8; stroke-opacity:1; fill:none" stroke-dasharray="32, 20" points="1982.75,1226.77 1982.75,-467.056 "/>
<polyline clip-path="url(#clip153)" style="stroke:#ff0000; stroke-linecap:round; stroke-linejoin:round; stroke-width:6; stroke-opacity:1; fill:none" stroke-dasharray="24, 12, 3, 12" points="1430.43,1226.77 1430.43,-467.056 "/>
<polyline clip-path="url(#clip153)" style="stroke:#ff0000; stroke-linecap:round; stroke-linejoin:round; stroke-width:6; stroke-opacity:1; fill:none" stroke-dasharray="24, 12, 3, 12" points="2212.58,1226.77 2212.58,-467.056 "/>
<path clip-path="url(#clip150)" d="M128.138 1456.91 L1152.76 1456.91 L1152.76 892.306 L128.138 892.306  Z" fill="#ffffff" fill-rule="evenodd" fill-opacity="1"/>
<defs>
  <clipPath id="clip154">
    <rect x="128" y="892" width="1026" height="566"/>
  </clipPath>
</defs>
<polyline clip-path="url(#clip154)" style="stroke:#000000; stroke-linecap:round; stroke-linejoin:round; stroke-width:2; stroke-opacity:0.1; fill:none" points="254.64,1456.91 254.64,892.306 "/>
<polyline clip-path="url(#clip154)" style="stroke:#000000; stroke-linecap:round; stroke-linejoin:round; stroke-width:2; stroke-opacity:0.1; fill:none" points="430.007,1456.91 430.007,892.306 "/>
<polyline clip-path="url(#clip154)" style="stroke:#000000; stroke-linecap:round; stroke-linejoin:round; stroke-width:2; stroke-opacity:0.1; fill:none" points="605.373,1456.91 605.373,892.306 "/>
<polyline clip-path="url(#clip154)" style="stroke:#000000; stroke-linecap:round; stroke-linejoin:round; stroke-width:2; stroke-opacity:0.1; fill:none" points="780.74,1456.91 780.74,892.306 "/>
<polyline clip-path="url(#clip154)" style="stroke:#000000; stroke-linecap:round; stroke-linejoin:round; stroke-width:2; stroke-opacity:0.1; fill:none" points="956.107,1456.91 956.107,892.306 "/>
<polyline clip-path="url(#clip154)" style="stroke:#000000; stroke-linecap:round; stroke-linejoin:round; stroke-width:2; stroke-opacity:0.1; fill:none" points="1131.47,1456.91 1131.47,892.306 "/>
<polyline clip-path="url(#clip154)" style="stroke:#000000; stroke-linecap:round; stroke-linejoin:round; stroke-width:2; stroke-opacity:0.1; fill:none" points="128.138,1456.91 1152.76,1456.91 "/>
<polyline clip-path="url(#clip154)" style="stroke:#000000; stroke-linecap:round; stroke-linejoin:round; stroke-width:2; stroke-opacity:0.1; fill:none" points="128.138,1336.78 1152.76,1336.78 "/>
<polyline clip-path="url(#clip154)" style="stroke:#000000; stroke-linecap:round; stroke-linejoin:round; stroke-width:2; stroke-opacity:0.1; fill:none" points="128.138,1216.66 1152.76,1216.66 "/>
<polyline clip-path="url(#clip154)" style="stroke:#000000; stroke-linecap:round; stroke-linejoin:round; stroke-width:2; stroke-opacity:0.1; fill:none" points="128.138,1096.53 1152.76,1096.53 "/>
<polyline clip-path="url(#clip154)" style="stroke:#000000; stroke-linecap:round; stroke-linejoin:round; stroke-width:2; stroke-opacity:0.1; fill:none" points="128.138,976.397 1152.76,976.397 "/>
<polyline clip-path="url(#clip150)" style="stroke:#000000; stroke-linecap:round; stroke-linejoin:round; stroke-width:4; stroke-opacity:1; fill:none" points="128.138,1456.91 1152.76,1456.91 "/>
<polyline clip-path="url(#clip150)" style="stroke:#000000; stroke-linecap:round; stroke-linejoin:round; stroke-width:4; stroke-opacity:1; fill:none" points="254.64,1456.91 254.64,1438.02 "/>
<polyline clip-path="url(#clip150)" style="stroke:#000000; stroke-linecap:round; stroke-linejoin:round; stroke-width:4; stroke-opacity:1; fill:none" points="430.007,1456.91 430.007,1438.02 "/>
<polyline clip-path="url(#clip150)" style="stroke:#000000; stroke-linecap:round; stroke-linejoin:round; stroke-width:4; stroke-opacity:1; fill:none" points="605.373,1456.91 605.373,1438.02 "/>
<polyline clip-path="url(#clip150)" style="stroke:#000000; stroke-linecap:round; stroke-linejoin:round; stroke-width:4; stroke-opacity:1; fill:none" points="780.74,1456.91 780.74,1438.02 "/>
<polyline clip-path="url(#clip150)" style="stroke:#000000; stroke-linecap:round; stroke-linejoin:round; stroke-width:4; stroke-opacity:1; fill:none" points="956.107,1456.91 956.107,1438.02 "/>
<polyline clip-path="url(#clip150)" style="stroke:#000000; stroke-linecap:round; stroke-linejoin:round; stroke-width:4; stroke-opacity:1; fill:none" points="1131.47,1456.91 1131.47,1438.02 "/>
<path clip-path="url(#clip150)" d="M184.795 1544.64 Q182.88 1546.56 183.801 1549.42 Q184.722 1552.25 188.503 1556.03 Q192.272 1559.8 195.12 1560.74 Q197.968 1561.65 199.883 1559.73 Q201.81 1557.8 200.889 1554.97 Q199.969 1552.11 196.2 1548.34 Q192.419 1544.56 189.571 1543.65 Q186.723 1542.72 184.795 1544.64 M182.831 1542.68 Q185.913 1539.6 189.976 1540.42 Q194.039 1541.22 198.68 1545.86 Q203.308 1550.49 204.118 1554.56 Q204.928 1558.61 201.847 1561.69 Q198.766 1564.78 194.702 1563.98 Q190.639 1563.15 186.011 1558.53 Q181.37 1553.89 180.56 1549.84 Q179.75 1545.76 182.831 1542.68 Z" fill="#000000" fill-rule="nonzero" fill-opacity="1" /><path clip-path="url(#clip150)" d="M209.065 1547.53 L211.655 1544.94 L214.774 1548.06 L212.183 1550.65 L209.065 1547.53 Z" fill="#000000" fill-rule="nonzero" fill-opacity="1" /><path clip-path="url(#clip150)" d="M201.871 1524.3 L211.606 1514.57 L213.693 1516.65 L206.229 1524.12 L210.722 1528.61 Q211.078 1527.89 211.533 1527.26 Q211.975 1526.62 212.515 1526.08 Q215.584 1523.01 219.058 1522.9 Q222.532 1522.79 225.405 1525.66 Q228.363 1528.62 228.167 1532.11 Q227.958 1535.58 224.607 1538.93 Q223.453 1540.09 222.053 1541.09 Q220.666 1542.09 218.997 1542.97 L216.505 1540.48 Q218.211 1539.98 219.684 1539.09 Q221.157 1538.21 222.471 1536.9 Q224.594 1534.77 224.717 1532.42 Q224.84 1530.06 222.925 1528.14 Q221.01 1526.23 218.653 1526.35 Q216.296 1526.47 214.172 1528.6 Q213.178 1529.59 212.404 1530.81 Q211.643 1532.01 211.078 1533.51 L201.871 1524.3 Z" fill="#000000" fill-rule="nonzero" fill-opacity="1" /><path clip-path="url(#clip150)" d="M233.802 1509.26 Q235.962 1507.86 238.16 1508.07 Q240.369 1508.27 242.137 1510.04 Q244.85 1512.75 244.469 1516.1 Q244.089 1519.45 240.652 1522.89 Q239.498 1524.04 238.037 1525.04 Q236.6 1526.03 234.845 1526.88 L232.451 1524.49 Q234.084 1524.06 235.618 1523.13 Q237.153 1522.21 238.491 1520.88 Q240.823 1518.54 241.118 1516.41 Q241.425 1514.26 239.67 1512.5 Q238.049 1510.88 235.999 1511.12 Q233.949 1511.33 231.923 1513.35 L229.787 1515.49 L227.749 1513.45 L229.984 1511.21 Q231.813 1509.39 232.058 1507.69 Q232.292 1505.99 230.917 1504.61 Q229.505 1503.2 227.749 1503.46 Q225.994 1503.69 224.128 1505.56 Q223.109 1506.57 222.164 1507.96 Q221.219 1509.35 220.286 1511.21 L218.076 1509.01 Q219.095 1507.2 220.126 1505.78 Q221.169 1504.34 222.262 1503.25 Q225.086 1500.42 228.02 1500.07 Q230.941 1499.7 233.126 1501.88 Q234.649 1503.41 234.833 1505.33 Q235.005 1507.25 233.802 1509.26 Z" fill="#000000" fill-rule="nonzero" fill-opacity="1" /><path clip-path="url(#clip150)" d="M240.774 1488.66 Q238.859 1490.58 239.78 1493.44 Q240.701 1496.27 244.482 1500.06 Q248.251 1503.82 251.099 1504.76 Q253.947 1505.67 255.862 1503.75 Q257.789 1501.82 256.868 1498.99 Q255.948 1496.13 252.179 1492.36 Q248.398 1488.58 245.55 1487.67 Q242.702 1486.74 240.774 1488.66 M238.81 1486.7 Q241.891 1483.62 245.955 1484.44 Q250.018 1485.24 254.659 1489.88 Q259.287 1494.51 260.097 1498.58 Q260.907 1502.63 257.826 1505.72 Q254.745 1508.8 250.681 1508 Q246.618 1507.18 241.99 1502.55 Q237.349 1497.91 236.539 1493.86 Q235.729 1489.78 238.81 1486.7 Z" fill="#000000" fill-rule="nonzero" fill-opacity="1" /><path clip-path="url(#clip150)" d="M360.69 1544.11 Q358.775 1546.03 359.696 1548.89 Q360.616 1551.73 364.397 1555.51 Q368.166 1559.28 371.014 1560.21 Q373.862 1561.12 375.777 1559.2 Q377.705 1557.27 376.784 1554.44 Q375.863 1551.58 372.094 1547.81 Q368.313 1544.03 365.465 1543.12 Q362.617 1542.19 360.69 1544.11 M358.726 1542.15 Q361.807 1539.07 365.87 1539.89 Q369.934 1540.69 374.574 1545.33 Q379.202 1549.96 380.012 1554.03 Q380.823 1558.08 377.741 1561.17 Q374.66 1564.25 370.597 1563.45 Q366.533 1562.63 361.905 1558 Q357.265 1553.36 356.455 1549.31 Q355.644 1545.23 358.726 1542.15 Z" fill="#000000" fill-rule="nonzero" fill-opacity="1" /><path clip-path="url(#clip150)" d="M384.96 1547 L387.55 1544.41 L390.668 1547.53 L388.078 1550.12 L384.96 1547 Z" fill="#000000" fill-rule="nonzero" fill-opacity="1" /><path clip-path="url(#clip150)" d="M377.766 1523.77 L387.501 1514.04 L389.588 1516.13 L382.124 1523.59 L386.617 1528.08 Q386.973 1527.36 387.427 1526.73 Q387.869 1526.09 388.409 1525.55 Q391.478 1522.48 394.952 1522.37 Q398.427 1522.26 401.299 1525.14 Q404.258 1528.09 404.061 1531.58 Q403.853 1535.05 400.501 1538.41 Q399.347 1539.56 397.948 1540.57 Q396.561 1541.56 394.891 1542.45 L392.399 1539.95 Q394.105 1539.45 395.579 1538.57 Q397.052 1537.68 398.365 1536.37 Q400.489 1534.24 400.612 1531.89 Q400.735 1529.53 398.819 1527.62 Q396.904 1525.7 394.547 1525.82 Q392.19 1525.95 390.067 1528.07 Q389.072 1529.06 388.299 1530.28 Q387.538 1531.48 386.973 1532.98 L377.766 1523.77 Z" fill="#000000" fill-rule="nonzero" fill-opacity="1" /><path clip-path="url(#clip150)" d="M409.696 1508.74 Q411.857 1507.34 414.054 1507.54 Q416.264 1507.74 418.032 1509.51 Q420.745 1512.22 420.364 1515.57 Q419.983 1518.92 416.546 1522.36 Q415.392 1523.52 413.931 1524.51 Q412.495 1525.5 410.74 1526.35 L408.346 1523.96 Q409.978 1523.53 411.513 1522.61 Q413.047 1521.69 414.386 1520.35 Q416.718 1518.02 417.013 1515.88 Q417.32 1513.73 415.564 1511.98 Q413.944 1510.36 411.893 1510.59 Q409.843 1510.8 407.818 1512.82 L405.682 1514.96 L403.644 1512.92 L405.878 1510.69 Q407.707 1508.86 407.953 1507.16 Q408.186 1505.46 406.811 1504.08 Q405.399 1502.67 403.644 1502.93 Q401.888 1503.16 400.022 1505.03 Q399.004 1506.05 398.058 1507.43 Q397.113 1508.82 396.18 1510.69 L393.97 1508.48 Q394.989 1506.67 396.02 1505.25 Q397.064 1503.81 398.157 1502.72 Q400.98 1499.9 403.914 1499.54 Q406.836 1499.17 409.021 1501.36 Q410.543 1502.88 410.727 1504.81 Q410.899 1506.72 409.696 1508.74 Z" fill="#000000" fill-rule="nonzero" fill-opacity="1" /><path clip-path="url(#clip150)" d="M409.757 1491.78 L419.492 1482.05 L421.579 1484.13 L414.115 1491.6 L418.609 1496.09 Q418.965 1495.37 419.419 1494.74 Q419.861 1494.1 420.401 1493.56 Q423.47 1490.49 426.944 1490.38 Q430.418 1490.27 433.291 1493.14 Q436.249 1496.1 436.053 1499.59 Q435.844 1503.06 432.493 1506.41 Q431.339 1507.57 429.939 1508.58 Q428.552 1509.57 426.883 1510.45 L424.391 1507.96 Q426.097 1507.46 427.57 1506.57 Q429.043 1505.69 430.357 1504.38 Q432.48 1502.25 432.603 1499.9 Q432.726 1497.54 430.811 1495.62 Q428.896 1493.71 426.539 1493.83 Q424.182 1493.95 422.058 1496.08 Q421.064 1497.07 420.29 1498.29 Q419.529 1499.49 418.965 1500.99 L409.757 1491.78 Z" fill="#000000" fill-rule="nonzero" fill-opacity="1" /><path clip-path="url(#clip150)" d="M535.529 1544.64 Q533.614 1546.56 534.534 1549.42 Q535.455 1552.25 539.236 1556.03 Q543.005 1559.8 545.853 1560.74 Q548.701 1561.65 550.616 1559.73 Q552.543 1557.8 551.623 1554.97 Q550.702 1552.11 546.933 1548.34 Q543.152 1544.56 540.304 1543.65 Q537.456 1542.72 535.529 1544.64 M533.564 1542.68 Q536.646 1539.6 540.709 1540.42 Q544.773 1541.22 549.413 1545.86 Q554.041 1550.49 554.851 1554.56 Q555.661 1558.61 552.58 1561.69 Q549.499 1564.78 545.435 1563.98 Q541.372 1563.15 536.744 1558.53 Q532.104 1553.89 531.293 1549.84 Q530.483 1545.76 533.564 1542.68 Z" fill="#000000" fill-rule="nonzero" fill-opacity="1" /><path clip-path="url(#clip150)" d="M559.798 1547.53 L562.389 1544.94 L565.507 1548.06 L562.917 1550.65 L559.798 1547.53 Z" fill="#000000" fill-rule="nonzero" fill-opacity="1" /><path clip-path="url(#clip150)" d="M552.605 1524.3 L562.34 1514.57 L564.427 1516.65 L556.963 1524.12 L561.456 1528.61 Q561.812 1527.89 562.266 1527.26 Q562.708 1526.62 563.248 1526.08 Q566.317 1523.01 569.791 1522.9 Q573.265 1522.79 576.138 1525.66 Q579.097 1528.62 578.9 1532.11 Q578.691 1535.58 575.34 1538.93 Q574.186 1540.09 572.787 1541.09 Q571.399 1542.09 569.73 1542.97 L567.238 1540.48 Q568.944 1539.98 570.417 1539.09 Q571.89 1538.21 573.204 1536.9 Q575.328 1534.77 575.451 1532.42 Q575.573 1530.06 573.658 1528.14 Q571.743 1526.23 569.386 1526.35 Q567.029 1526.47 564.905 1528.6 Q563.911 1529.59 563.138 1530.81 Q562.376 1532.01 561.812 1533.51 L552.605 1524.3 Z" fill="#000000" fill-rule="nonzero" fill-opacity="1" /><path clip-path="url(#clip150)" d="M577.55 1503.68 L581.073 1519.72 L587.334 1513.46 L577.55 1503.68 M574.739 1502.17 L577.857 1499.05 L589.801 1510.99 L592.416 1508.38 L594.478 1510.44 L591.864 1513.06 L596.185 1517.38 L593.717 1519.84 L589.396 1515.52 L581.122 1523.8 L578.728 1521.4 L574.739 1502.17 Z" fill="#000000" fill-rule="nonzero" fill-opacity="1" /><path clip-path="url(#clip150)" d="M591.508 1488.66 Q589.593 1490.58 590.513 1493.44 Q591.434 1496.27 595.215 1500.06 Q598.984 1503.82 601.832 1504.76 Q604.68 1505.67 606.595 1503.75 Q608.522 1501.82 607.602 1498.99 Q606.681 1496.13 602.912 1492.36 Q599.131 1488.58 596.283 1487.67 Q593.435 1486.74 591.508 1488.66 M589.543 1486.7 Q592.625 1483.62 596.688 1484.44 Q600.752 1485.24 605.392 1489.88 Q610.02 1494.51 610.83 1498.58 Q611.64 1502.63 608.559 1505.72 Q605.478 1508.8 601.414 1508 Q597.351 1507.18 592.723 1502.55 Q588.083 1497.91 587.272 1493.86 Q586.462 1489.78 589.543 1486.7 Z" fill="#000000" fill-rule="nonzero" fill-opacity="1" /><path clip-path="url(#clip150)" d="M711.423 1544.11 Q709.508 1546.03 710.429 1548.89 Q711.35 1551.73 715.131 1555.51 Q718.899 1559.28 721.747 1560.21 Q724.595 1561.12 726.51 1559.2 Q728.438 1557.27 727.517 1554.44 Q726.596 1551.58 722.828 1547.81 Q719.047 1544.03 716.199 1543.12 Q713.351 1542.19 711.423 1544.11 M709.459 1542.15 Q712.54 1539.07 716.604 1539.89 Q720.667 1540.69 725.307 1545.33 Q729.936 1549.96 730.746 1554.03 Q731.556 1558.08 728.475 1561.17 Q725.393 1564.25 721.33 1563.45 Q717.267 1562.63 712.639 1558 Q707.998 1553.36 707.188 1549.31 Q706.378 1545.23 709.459 1542.15 Z" fill="#000000" fill-rule="nonzero" fill-opacity="1" /><path clip-path="url(#clip150)" d="M735.693 1547 L738.283 1544.41 L741.401 1547.53 L738.811 1550.12 L735.693 1547 Z" fill="#000000" fill-rule="nonzero" fill-opacity="1" /><path clip-path="url(#clip150)" d="M728.499 1523.77 L738.234 1514.04 L740.321 1516.13 L732.857 1523.59 L737.35 1528.08 Q737.706 1527.36 738.161 1526.73 Q738.602 1526.09 739.143 1525.55 Q742.212 1522.48 745.686 1522.37 Q749.16 1522.26 752.032 1525.14 Q754.991 1528.09 754.795 1531.58 Q754.586 1535.05 751.235 1538.41 Q750.081 1539.56 748.681 1540.57 Q747.294 1541.56 745.624 1542.45 L743.132 1539.95 Q744.839 1539.45 746.312 1538.57 Q747.785 1537.68 749.099 1536.37 Q751.222 1534.24 751.345 1531.89 Q751.468 1529.53 749.553 1527.62 Q747.638 1525.7 745.281 1525.82 Q742.924 1525.95 740.8 1528.07 Q739.805 1529.06 739.032 1530.28 Q738.271 1531.48 737.706 1532.98 L728.499 1523.77 Z" fill="#000000" fill-rule="nonzero" fill-opacity="1" /><path clip-path="url(#clip150)" d="M753.444 1503.15 L756.967 1519.19 L763.228 1512.93 L753.444 1503.15 M750.633 1501.64 L753.751 1498.52 L765.696 1510.47 L768.311 1507.85 L770.373 1509.91 L767.758 1512.53 L772.079 1516.85 L769.612 1519.32 L765.291 1515 L757.017 1523.27 L754.623 1520.88 L750.633 1501.64 Z" fill="#000000" fill-rule="nonzero" fill-opacity="1" /><path clip-path="url(#clip150)" d="M760.491 1491.78 L770.226 1482.05 L772.313 1484.13 L764.849 1491.6 L769.342 1496.09 Q769.698 1495.37 770.152 1494.74 Q770.594 1494.1 771.134 1493.56 Q774.203 1490.49 777.677 1490.38 Q781.151 1490.27 784.024 1493.14 Q786.983 1496.1 786.786 1499.59 Q786.577 1503.06 783.226 1506.41 Q782.072 1507.57 780.673 1508.58 Q779.285 1509.57 777.616 1510.45 L775.124 1507.96 Q776.83 1507.46 778.303 1506.57 Q779.776 1505.69 781.09 1504.38 Q783.214 1502.25 783.337 1499.9 Q783.459 1497.54 781.544 1495.62 Q779.629 1493.71 777.272 1493.83 Q774.915 1493.95 772.791 1496.08 Q771.797 1497.07 771.024 1498.29 Q770.262 1499.49 769.698 1500.99 L760.491 1491.78 Z" fill="#000000" fill-rule="nonzero" fill-opacity="1" /><path clip-path="url(#clip150)" d="M886.262 1544.64 Q884.347 1546.56 885.268 1549.42 Q886.188 1552.25 889.969 1556.03 Q893.738 1559.8 896.586 1560.74 Q899.434 1561.65 901.349 1559.73 Q903.277 1557.8 902.356 1554.97 Q901.435 1552.11 897.666 1548.34 Q893.885 1544.56 891.037 1543.65 Q888.189 1542.72 886.262 1544.64 M884.298 1542.68 Q887.379 1539.6 891.442 1540.42 Q895.506 1541.22 900.146 1545.86 Q904.774 1550.49 905.585 1554.56 Q906.395 1558.61 903.313 1561.69 Q900.232 1564.78 896.169 1563.98 Q892.105 1563.15 887.477 1558.53 Q882.837 1553.89 882.027 1549.84 Q881.216 1545.76 884.298 1542.68 Z" fill="#000000" fill-rule="nonzero" fill-opacity="1" /><path clip-path="url(#clip150)" d="M910.532 1547.53 L913.122 1544.94 L916.24 1548.06 L913.65 1550.65 L910.532 1547.53 Z" fill="#000000" fill-rule="nonzero" fill-opacity="1" /><path clip-path="url(#clip150)" d="M903.338 1524.3 L913.073 1514.57 L915.16 1516.65 L907.696 1524.12 L912.189 1528.61 Q912.545 1527.89 912.999 1527.26 Q913.441 1526.62 913.981 1526.08 Q917.05 1523.01 920.525 1522.9 Q923.999 1522.79 926.871 1525.66 Q929.83 1528.62 929.633 1532.11 Q929.425 1535.58 926.073 1538.93 Q924.919 1540.09 923.52 1541.09 Q922.133 1542.09 920.463 1542.97 L917.971 1540.48 Q919.677 1539.98 921.151 1539.09 Q922.624 1538.21 923.937 1536.9 Q926.061 1534.77 926.184 1532.42 Q926.307 1530.06 924.391 1528.14 Q922.476 1526.23 920.119 1526.35 Q917.762 1526.47 915.639 1528.6 Q914.644 1529.59 913.871 1530.81 Q913.11 1532.01 912.545 1533.51 L903.338 1524.3 Z" fill="#000000" fill-rule="nonzero" fill-opacity="1" /><path clip-path="url(#clip150)" d="M919.334 1508.31 L929.069 1498.57 L931.156 1500.66 L923.692 1508.12 L928.185 1512.61 Q928.541 1511.89 928.995 1511.26 Q929.437 1510.63 929.977 1510.09 Q933.046 1507.02 936.52 1506.91 Q939.994 1506.8 942.867 1509.67 Q945.826 1512.63 945.629 1516.11 Q945.42 1519.59 942.069 1522.94 Q940.915 1524.09 939.516 1525.1 Q938.128 1526.09 936.459 1526.98 L933.967 1524.49 Q935.673 1523.98 937.146 1523.1 Q938.619 1522.21 939.933 1520.9 Q942.057 1518.78 942.18 1516.42 Q942.302 1514.06 940.387 1512.15 Q938.472 1510.23 936.115 1510.36 Q933.758 1510.48 931.634 1512.6 Q930.64 1513.6 929.867 1514.81 Q929.106 1516.01 928.541 1517.51 L919.334 1508.31 Z" fill="#000000" fill-rule="nonzero" fill-opacity="1" /><path clip-path="url(#clip150)" d="M942.241 1488.66 Q940.326 1490.58 941.247 1493.44 Q942.167 1496.27 945.948 1500.06 Q949.717 1503.82 952.565 1504.76 Q955.413 1505.67 957.328 1503.75 Q959.256 1501.82 958.335 1498.99 Q957.414 1496.13 953.645 1492.36 Q949.864 1488.58 947.016 1487.67 Q944.168 1486.74 942.241 1488.66 M940.277 1486.7 Q943.358 1483.62 947.421 1484.44 Q951.485 1485.24 956.125 1489.88 Q960.753 1494.51 961.563 1498.58 Q962.374 1502.63 959.292 1505.72 Q956.211 1508.8 952.148 1508 Q948.084 1507.18 943.456 1502.55 Q938.816 1497.91 938.006 1493.86 Q937.195 1489.78 940.277 1486.7 Z" fill="#000000" fill-rule="nonzero" fill-opacity="1" /><path clip-path="url(#clip150)" d="M1062.16 1544.11 Q1060.24 1546.03 1061.16 1548.89 Q1062.08 1551.73 1065.86 1555.51 Q1069.63 1559.28 1072.48 1560.21 Q1075.33 1561.12 1077.24 1559.2 Q1079.17 1557.27 1078.25 1554.44 Q1077.33 1551.58 1073.56 1547.81 Q1069.78 1544.03 1066.93 1543.12 Q1064.08 1542.19 1062.16 1544.11 M1060.19 1542.15 Q1063.27 1539.07 1067.34 1539.89 Q1071.4 1540.69 1076.04 1545.33 Q1080.67 1549.96 1081.48 1554.03 Q1082.29 1558.08 1079.21 1561.17 Q1076.13 1564.25 1072.06 1563.45 Q1068 1562.63 1063.37 1558 Q1058.73 1553.36 1057.92 1549.31 Q1057.11 1545.23 1060.19 1542.15 Z" fill="#000000" fill-rule="nonzero" fill-opacity="1" /><path clip-path="url(#clip150)" d="M1086.43 1547 L1089.02 1544.41 L1092.13 1547.53 L1089.54 1550.12 L1086.43 1547 Z" fill="#000000" fill-rule="nonzero" fill-opacity="1" /><path clip-path="url(#clip150)" d="M1079.23 1523.77 L1088.97 1514.04 L1091.05 1516.13 L1083.59 1523.59 L1088.08 1528.08 Q1088.44 1527.36 1088.89 1526.73 Q1089.34 1526.09 1089.88 1525.55 Q1092.94 1522.48 1096.42 1522.37 Q1099.89 1522.26 1102.77 1525.14 Q1105.72 1528.09 1105.53 1531.58 Q1105.32 1535.05 1101.97 1538.41 Q1100.81 1539.56 1099.41 1540.57 Q1098.03 1541.56 1096.36 1542.45 L1093.87 1539.95 Q1095.57 1539.45 1097.05 1538.57 Q1098.52 1537.68 1099.83 1536.37 Q1101.96 1534.24 1102.08 1531.89 Q1102.2 1529.53 1100.29 1527.62 Q1098.37 1525.7 1096.01 1525.82 Q1093.66 1525.95 1091.53 1528.07 Q1090.54 1529.06 1089.77 1530.28 Q1089 1531.48 1088.44 1532.98 L1079.23 1523.77 Z" fill="#000000" fill-rule="nonzero" fill-opacity="1" /><path clip-path="url(#clip150)" d="M1095.23 1507.78 L1104.96 1498.04 L1107.05 1500.13 L1099.59 1507.59 L1104.08 1512.09 Q1104.44 1511.36 1104.89 1510.74 Q1105.33 1510.1 1105.87 1509.56 Q1108.94 1506.49 1112.41 1506.38 Q1115.89 1506.27 1118.76 1509.14 Q1121.72 1512.1 1121.52 1515.59 Q1121.31 1519.06 1117.96 1522.41 Q1116.81 1523.56 1115.41 1524.57 Q1114.02 1525.57 1112.35 1526.45 L1109.86 1523.96 Q1111.57 1523.45 1113.04 1522.57 Q1114.51 1521.69 1115.83 1520.37 Q1117.95 1518.25 1118.07 1515.89 Q1118.2 1513.53 1116.28 1511.62 Q1114.37 1509.7 1112.01 1509.83 Q1109.65 1509.95 1107.53 1512.07 Q1106.53 1513.07 1105.76 1514.28 Q1105 1515.49 1104.44 1516.98 L1095.23 1507.78 Z" fill="#000000" fill-rule="nonzero" fill-opacity="1" /><path clip-path="url(#clip150)" d="M1111.22 1491.78 L1120.96 1482.05 L1123.05 1484.13 L1115.58 1491.6 L1120.08 1496.09 Q1120.43 1495.37 1120.89 1494.74 Q1121.33 1494.1 1121.87 1493.56 Q1124.94 1490.49 1128.41 1490.38 Q1131.88 1490.27 1134.76 1493.14 Q1137.72 1496.1 1137.52 1499.59 Q1137.31 1503.06 1133.96 1506.41 Q1132.81 1507.57 1131.41 1508.58 Q1130.02 1509.57 1128.35 1510.45 L1125.86 1507.96 Q1127.56 1507.46 1129.04 1506.57 Q1130.51 1505.69 1131.82 1504.38 Q1133.95 1502.25 1134.07 1499.9 Q1134.19 1497.54 1132.28 1495.62 Q1130.36 1493.71 1128.01 1493.83 Q1125.65 1493.95 1123.52 1496.08 Q1122.53 1497.07 1121.76 1498.29 Q1121 1499.49 1120.43 1500.99 L1111.22 1491.78 Z" fill="#000000" fill-rule="nonzero" fill-opacity="1" /><polyline clip-path="url(#clip150)" style="stroke:#000000; stroke-linecap:round; stroke-linejoin:round; stroke-width:4; stroke-opacity:1; fill:none" points="128.138,1456.91 128.138,892.306 "/>
<polyline clip-path="url(#clip150)" style="stroke:#000000; stroke-linecap:round; stroke-linejoin:round; stroke-width:4; stroke-opacity:1; fill:none" points="128.138,1456.91 147.035,1456.91 "/>
<polyline clip-path="url(#clip150)" style="stroke:#000000; stroke-linecap:round; stroke-linejoin:round; stroke-width:4; stroke-opacity:1; fill:none" points="128.138,1336.78 147.035,1336.78 "/>
<polyline clip-path="url(#clip150)" style="stroke:#000000; stroke-linecap:round; stroke-linejoin:round; stroke-width:4; stroke-opacity:1; fill:none" points="128.138,1216.66 147.035,1216.66 "/>
<polyline clip-path="url(#clip150)" style="stroke:#000000; stroke-linecap:round; stroke-linejoin:round; stroke-width:4; stroke-opacity:1; fill:none" points="128.138,1096.53 147.035,1096.53 "/>
<polyline clip-path="url(#clip150)" style="stroke:#000000; stroke-linecap:round; stroke-linejoin:round; stroke-width:4; stroke-opacity:1; fill:none" points="128.138,976.397 147.035,976.397 "/>
<path clip-path="url(#clip150)" d="M83.1795 1446.26 Q80.4711 1446.26 79.0996 1448.94 Q77.7455 1451.59 77.7455 1456.94 Q77.7455 1462.27 79.0996 1464.94 Q80.4711 1467.6 83.1795 1467.6 Q85.9051 1467.6 87.2593 1464.94 Q88.6308 1462.27 88.6308 1456.94 Q88.6308 1451.59 87.2593 1448.94 Q85.9051 1446.26 83.1795 1446.26 M83.1795 1443.49 Q87.5371 1443.49 89.8287 1446.94 Q92.1377 1450.38 92.1377 1456.94 Q92.1377 1463.49 89.8287 1466.94 Q87.5371 1470.38 83.1795 1470.38 Q78.8218 1470.38 76.5128 1466.94 Q74.2212 1463.49 74.2212 1456.94 Q74.2212 1450.38 76.5128 1446.94 Q78.8218 1443.49 83.1795 1443.49 Z" fill="#000000" fill-rule="nonzero" fill-opacity="1" /><path clip-path="url(#clip150)" d="M53.6657 1346.79 L59.3949 1346.79 L59.3949 1327.02 L53.1623 1328.27 L53.1623 1325.07 L59.3601 1323.82 L62.8671 1323.82 L62.8671 1346.79 L68.5962 1346.79 L68.5962 1349.74 L53.6657 1349.74 L53.6657 1346.79 Z" fill="#000000" fill-rule="nonzero" fill-opacity="1" /><path clip-path="url(#clip150)" d="M83.1795 1326.13 Q80.4711 1326.13 79.0996 1328.81 Q77.7455 1331.46 77.7455 1336.81 Q77.7455 1342.14 79.0996 1344.81 Q80.4711 1347.47 83.1795 1347.47 Q85.9051 1347.47 87.2593 1344.81 Q88.6308 1342.14 88.6308 1336.81 Q88.6308 1331.46 87.2593 1328.81 Q85.9051 1326.13 83.1795 1326.13 M83.1795 1323.36 Q87.5371 1323.36 89.8287 1326.81 Q92.1377 1330.25 92.1377 1336.81 Q92.1377 1343.36 89.8287 1346.81 Q87.5371 1350.25 83.1795 1350.25 Q78.8218 1350.25 76.5128 1346.81 Q74.2212 1343.36 74.2212 1336.81 Q74.2212 1330.25 76.5128 1326.81 Q78.8218 1323.36 83.1795 1323.36 Z" fill="#000000" fill-rule="nonzero" fill-opacity="1" /><path clip-path="url(#clip150)" d="M56.0789 1226.66 L68.3184 1226.66 L68.3184 1229.62 L51.8602 1229.62 L51.8602 1226.66 Q53.8567 1224.6 57.2942 1221.13 Q60.749 1217.64 61.6344 1216.63 Q63.3184 1214.74 63.9782 1213.44 Q64.6552 1212.12 64.6552 1210.85 Q64.6552 1208.78 63.1969 1207.48 Q61.756 1206.18 59.4296 1206.18 Q57.7803 1206.18 55.94 1206.75 Q54.1171 1207.32 52.0338 1208.49 L52.0338 1204.95 Q54.1518 1204.09 55.9921 1203.66 Q57.8324 1203.23 59.3601 1203.23 Q63.3879 1203.23 65.7837 1205.24 Q68.1795 1207.25 68.1795 1210.62 Q68.1795 1212.22 67.5719 1213.66 Q66.9816 1215.08 65.4018 1217.03 Q64.9677 1217.53 62.6414 1219.95 Q60.315 1222.34 56.0789 1226.66 Z" fill="#000000" fill-rule="nonzero" fill-opacity="1" /><path clip-path="url(#clip150)" d="M83.1795 1206 Q80.4711 1206 79.0996 1208.68 Q77.7455 1211.33 77.7455 1216.68 Q77.7455 1222.01 79.0996 1224.69 Q80.4711 1227.34 83.1795 1227.34 Q85.9051 1227.34 87.2593 1224.69 Q88.6308 1222.01 88.6308 1216.68 Q88.6308 1211.33 87.2593 1208.68 Q85.9051 1206 83.1795 1206 M83.1795 1203.23 Q87.5371 1203.23 89.8287 1206.68 Q92.1377 1210.12 92.1377 1216.68 Q92.1377 1223.23 89.8287 1226.68 Q87.5371 1230.12 83.1795 1230.12 Q78.8218 1230.12 76.5128 1226.68 Q74.2212 1223.23 74.2212 1216.68 Q74.2212 1210.12 76.5128 1206.68 Q78.8218 1203.23 83.1795 1203.23 Z" fill="#000000" fill-rule="nonzero" fill-opacity="1" /><path clip-path="url(#clip150)" d="M63.683 1095.51 Q66.2004 1096.05 67.6066 1097.75 Q69.0302 1099.45 69.0302 1101.95 Q69.0302 1105.79 66.3913 1107.89 Q63.7525 1109.99 58.8914 1109.99 Q57.2595 1109.99 55.5234 1109.66 Q53.8046 1109.35 51.9643 1108.7 L51.9643 1105.32 Q53.4227 1106.17 55.1588 1106.6 Q56.8949 1107.04 58.7872 1107.04 Q62.0858 1107.04 63.8046 1105.74 Q65.5407 1104.43 65.5407 1101.95 Q65.5407 1099.66 63.9261 1098.38 Q62.3289 1097.07 59.4643 1097.07 L56.4435 1097.07 L56.4435 1094.19 L59.6032 1094.19 Q62.19 1094.19 63.5615 1093.17 Q64.933 1092.13 64.933 1090.18 Q64.933 1088.18 63.5094 1087.13 Q62.1032 1086.05 59.4643 1086.05 Q58.0233 1086.05 56.374 1086.36 Q54.7247 1086.67 52.7456 1087.33 L52.7456 1084.21 Q54.7421 1083.65 56.4782 1083.38 Q58.2317 1083.1 59.7768 1083.1 Q63.7698 1083.1 66.0962 1084.92 Q68.4226 1086.73 68.4226 1089.82 Q68.4226 1091.97 67.19 1093.46 Q65.9573 1094.94 63.683 1095.51 Z" fill="#000000" fill-rule="nonzero" fill-opacity="1" /><path clip-path="url(#clip150)" d="M83.1795 1085.88 Q80.4711 1085.88 79.0996 1088.55 Q77.7455 1091.2 77.7455 1096.55 Q77.7455 1101.88 79.0996 1104.56 Q80.4711 1107.21 83.1795 1107.21 Q85.9051 1107.21 87.2593 1104.56 Q88.6308 1101.88 88.6308 1096.55 Q88.6308 1091.2 87.2593 1088.55 Q85.9051 1085.88 83.1795 1085.88 M83.1795 1083.1 Q87.5371 1083.1 89.8287 1086.55 Q92.1377 1089.99 92.1377 1096.55 Q92.1377 1103.1 89.8287 1106.55 Q87.5371 1109.99 83.1795 1109.99 Q78.8218 1109.99 76.5128 1106.55 Q74.2212 1103.1 74.2212 1096.55 Q74.2212 1089.99 76.5128 1086.55 Q78.8218 1083.1 83.1795 1083.1 Z" fill="#000000" fill-rule="nonzero" fill-opacity="1" /><path clip-path="url(#clip150)" d="M62.6935 966.492 L53.8393 980.329 L62.6935 980.329 L62.6935 966.492 M61.7733 963.437 L66.183 963.437 L66.183 980.329 L69.8809 980.329 L69.8809 983.246 L66.183 983.246 L66.183 989.357 L62.6935 989.357 L62.6935 983.246 L50.9921 983.246 L50.9921 979.86 L61.7733 963.437 Z" fill="#000000" fill-rule="nonzero" fill-opacity="1" /><path clip-path="url(#clip150)" d="M83.1795 965.746 Q80.4711 965.746 79.0996 968.419 Q77.7455 971.076 77.7455 976.423 Q77.7455 981.753 79.0996 984.426 Q80.4711 987.082 83.1795 987.082 Q85.9051 987.082 87.2593 984.426 Q88.6308 981.753 88.6308 976.423 Q88.6308 971.076 87.2593 968.419 Q85.9051 965.746 83.1795 965.746 M83.1795 962.968 Q87.5371 962.968 89.8287 966.423 Q92.1377 969.86 92.1377 976.423 Q92.1377 982.968 89.8287 986.423 Q87.5371 989.86 83.1795 989.86 Q78.8218 989.86 76.5128 986.423 Q74.2212 982.968 74.2212 976.423 Q74.2212 969.86 76.5128 966.423 Q78.8218 962.968 83.1795 962.968 Z" fill="#000000" fill-rule="nonzero" fill-opacity="1" /><path clip-path="url(#clip150)" d="M140.036 813.68 Q136.517 813.68 134.619 816.226 Q132.628 818.888 132.628 823.286 Q132.628 827.939 134.596 830.624 Q136.587 833.286 140.036 833.286 Q143.439 833.286 145.429 830.601 Q147.42 827.916 147.42 823.286 Q147.42 819.05 145.429 816.226 Q143.601 813.68 140.036 813.68 M140.036 810.3 L154.179 810.3 L154.179 814.559 L149.411 814.559 Q151.934 818.171 151.934 823.286 Q151.934 829.652 148.763 833.263 Q145.591 836.897 140.036 836.897 Q134.457 836.897 131.309 833.263 Q128.138 829.652 128.138 823.286 Q128.138 816.874 131.309 813.286 Q133.925 810.3 140.036 810.3 Z" fill="#000000" fill-rule="nonzero" fill-opacity="1" /><path clip-path="url(#clip150)" d="M165.198 836.226 L157.281 810.3 L161.864 810.3 L168.554 832.059 Q171.332 829.189 173.647 825.208 Q175.406 822.221 175.499 819.629 Q175.545 818.402 174.989 816.087 Q174.341 813.333 171.888 810.3 L176.193 810.3 L176.193 810.3 Q177.79 812.36 178.855 815.231 Q179.827 817.87 179.827 819.675 Q179.827 824.212 176.679 828.263 Q172.582 833.541 169.735 836.226 L165.198 836.226 Z" fill="#000000" fill-rule="nonzero" fill-opacity="1" /><path clip-path="url(#clip154)" d="M184.494 1444.9 L184.494 1456.91 L254.64 1456.91 L254.64 1444.9 L184.494 1444.9 L184.494 1444.9  Z" fill="#009af9" fill-rule="evenodd" fill-opacity="1"/>
<polyline clip-path="url(#clip154)" style="stroke:#000000; stroke-linecap:round; stroke-linejoin:round; stroke-width:4; stroke-opacity:1; fill:none" points="184.494,1444.9 184.494,1456.91 254.64,1456.91 254.64,1444.9 184.494,1444.9 "/>
<path clip-path="url(#clip154)" d="M254.64 1312.76 L254.64 1456.91 L324.787 1456.91 L324.787 1312.76 L254.64 1312.76 L254.64 1312.76  Z" fill="#009af9" fill-rule="evenodd" fill-opacity="1"/>
<polyline clip-path="url(#clip154)" style="stroke:#000000; stroke-linecap:round; stroke-linejoin:round; stroke-width:4; stroke-opacity:1; fill:none" points="254.64,1312.76 254.64,1456.91 324.787,1456.91 324.787,1312.76 254.64,1312.76 "/>
<path clip-path="url(#clip154)" d="M324.787 1276.72 L324.787 1456.91 L394.934 1456.91 L394.934 1276.72 L324.787 1276.72 L324.787 1276.72  Z" fill="#009af9" fill-rule="evenodd" fill-opacity="1"/>
<polyline clip-path="url(#clip154)" style="stroke:#000000; stroke-linecap:round; stroke-linejoin:round; stroke-width:4; stroke-opacity:1; fill:none" points="324.787,1276.72 324.787,1456.91 394.934,1456.91 394.934,1276.72 324.787,1276.72 "/>
<path clip-path="url(#clip154)" d="M394.934 1276.72 L394.934 1456.91 L465.08 1456.91 L465.08 1276.72 L394.934 1276.72 L394.934 1276.72  Z" fill="#009af9" fill-rule="evenodd" fill-opacity="1"/>
<polyline clip-path="url(#clip154)" style="stroke:#000000; stroke-linecap:round; stroke-linejoin:round; stroke-width:4; stroke-opacity:1; fill:none" points="394.934,1276.72 394.934,1456.91 465.08,1456.91 465.08,1276.72 394.934,1276.72 "/>
<path clip-path="url(#clip154)" d="M465.08 1384.84 L465.08 1456.91 L535.227 1456.91 L535.227 1384.84 L465.08 1384.84 L465.08 1384.84  Z" fill="#009af9" fill-rule="evenodd" fill-opacity="1"/>
<polyline clip-path="url(#clip154)" style="stroke:#000000; stroke-linecap:round; stroke-linejoin:round; stroke-width:4; stroke-opacity:1; fill:none" points="465.08,1384.84 465.08,1456.91 535.227,1456.91 535.227,1384.84 465.08,1384.84 "/>
<path clip-path="url(#clip154)" d="M535.227 892.306 L535.227 1456.91 L605.373 1456.91 L605.373 892.306 L535.227 892.306 L535.227 892.306  Z" fill="#009af9" fill-rule="evenodd" fill-opacity="1"/>
<polyline clip-path="url(#clip154)" style="stroke:#000000; stroke-linecap:round; stroke-linejoin:round; stroke-width:4; stroke-opacity:1; fill:none" points="535.227,892.306 535.227,1456.91 605.373,1456.91 605.373,892.306 535.227,892.306 "/>
<path clip-path="url(#clip154)" d="M605.373 1012.44 L605.373 1456.91 L675.52 1456.91 L675.52 1012.44 L605.373 1012.44 L605.373 1012.44  Z" fill="#009af9" fill-rule="evenodd" fill-opacity="1"/>
<polyline clip-path="url(#clip154)" style="stroke:#000000; stroke-linecap:round; stroke-linejoin:round; stroke-width:4; stroke-opacity:1; fill:none" points="605.373,1012.44 605.373,1456.91 675.52,1456.91 675.52,1012.44 605.373,1012.44 "/>
<path clip-path="url(#clip154)" d="M675.52 1192.63 L675.52 1456.91 L745.667 1456.91 L745.667 1192.63 L675.52 1192.63 L675.52 1192.63  Z" fill="#009af9" fill-rule="evenodd" fill-opacity="1"/>
<polyline clip-path="url(#clip154)" style="stroke:#000000; stroke-linecap:round; stroke-linejoin:round; stroke-width:4; stroke-opacity:1; fill:none" points="675.52,1192.63 675.52,1456.91 745.667,1456.91 745.667,1192.63 675.52,1192.63 "/>
<path clip-path="url(#clip154)" d="M745.667 1024.45 L745.667 1456.91 L815.813 1456.91 L815.813 1024.45 L745.667 1024.45 L745.667 1024.45  Z" fill="#009af9" fill-rule="evenodd" fill-opacity="1"/>
<polyline clip-path="url(#clip154)" style="stroke:#000000; stroke-linecap:round; stroke-linejoin:round; stroke-width:4; stroke-opacity:1; fill:none" points="745.667,1024.45 745.667,1456.91 815.813,1456.91 815.813,1024.45 745.667,1024.45 "/>
<path clip-path="url(#clip154)" d="M815.813 1432.89 L815.813 1456.91 L885.96 1456.91 L885.96 1432.89 L815.813 1432.89 L815.813 1432.89  Z" fill="#009af9" fill-rule="evenodd" fill-opacity="1"/>
<polyline clip-path="url(#clip154)" style="stroke:#000000; stroke-linecap:round; stroke-linejoin:round; stroke-width:4; stroke-opacity:1; fill:none" points="815.813,1432.89 815.813,1456.91 885.96,1456.91 885.96,1432.89 815.813,1432.89 "/>
<path clip-path="url(#clip154)" d="M885.96 1444.9 L885.96 1456.91 L956.107 1456.91 L956.107 1444.9 L885.96 1444.9 L885.96 1444.9  Z" fill="#009af9" fill-rule="evenodd" fill-opacity="1"/>
<polyline clip-path="url(#clip154)" style="stroke:#000000; stroke-linecap:round; stroke-linejoin:round; stroke-width:4; stroke-opacity:1; fill:none" points="885.96,1444.9 885.96,1456.91 956.107,1456.91 956.107,1444.9 885.96,1444.9 "/>
<path clip-path="url(#clip154)" d="M956.107 1324.77 L956.107 1456.91 L1026.25 1456.91 L1026.25 1324.77 L956.107 1324.77 L956.107 1324.77  Z" fill="#009af9" fill-rule="evenodd" fill-opacity="1"/>
<polyline clip-path="url(#clip154)" style="stroke:#000000; stroke-linecap:round; stroke-linejoin:round; stroke-width:4; stroke-opacity:1; fill:none" points="956.107,1324.77 956.107,1456.91 1026.25,1456.91 1026.25,1324.77 956.107,1324.77 "/>
<path clip-path="url(#clip154)" d="M1026.25 1264.71 L1026.25 1456.91 L1096.4 1456.91 L1096.4 1264.71 L1026.25 1264.71 L1026.25 1264.71  Z" fill="#009af9" fill-rule="evenodd" fill-opacity="1"/>
<polyline clip-path="url(#clip154)" style="stroke:#000000; stroke-linecap:round; stroke-linejoin:round; stroke-width:4; stroke-opacity:1; fill:none" points="1026.25,1264.71 1026.25,1456.91 1096.4,1456.91 1096.4,1264.71 1026.25,1264.71 "/>
<circle clip-path="url(#clip154)" style="fill:#009af9; stroke:none; fill-opacity:0" cx="219.567" cy="1444.9" r="2"/>
<circle clip-path="url(#clip154)" style="fill:#009af9; stroke:none; fill-opacity:0" cx="289.714" cy="1312.76" r="2"/>
<circle clip-path="url(#clip154)" style="fill:#009af9; stroke:none; fill-opacity:0" cx="359.86" cy="1276.72" r="2"/>
<circle clip-path="url(#clip154)" style="fill:#009af9; stroke:none; fill-opacity:0" cx="430.007" cy="1276.72" r="2"/>
<circle clip-path="url(#clip154)" style="fill:#009af9; stroke:none; fill-opacity:0" cx="500.154" cy="1384.84" r="2"/>
<circle clip-path="url(#clip154)" style="fill:#009af9; stroke:none; fill-opacity:0" cx="570.3" cy="892.306" r="2"/>
<circle clip-path="url(#clip154)" style="fill:#009af9; stroke:none; fill-opacity:0" cx="640.447" cy="1012.44" r="2"/>
<circle clip-path="url(#clip154)" style="fill:#009af9; stroke:none; fill-opacity:0" cx="710.593" cy="1192.63" r="2"/>
<circle clip-path="url(#clip154)" style="fill:#009af9; stroke:none; fill-opacity:0" cx="780.74" cy="1024.45" r="2"/>
<circle clip-path="url(#clip154)" style="fill:#009af9; stroke:none; fill-opacity:0" cx="850.887" cy="1432.89" r="2"/>
<circle clip-path="url(#clip154)" style="fill:#009af9; stroke:none; fill-opacity:0" cx="921.033" cy="1444.9" r="2"/>
<circle clip-path="url(#clip154)" style="fill:#009af9; stroke:none; fill-opacity:0" cx="991.18" cy="1324.77" r="2"/>
<circle clip-path="url(#clip154)" style="fill:#009af9; stroke:none; fill-opacity:0" cx="1061.33" cy="1264.71" r="2"/>
<polyline clip-path="url(#clip154)" style="stroke:#ff0000; stroke-linecap:round; stroke-linejoin:round; stroke-width:8; stroke-opacity:1; fill:none" stroke-dasharray="32, 20" points="657.093,2021.52 657.093,327.698 "/>
<polyline clip-path="url(#clip154)" style="stroke:#ff0000; stroke-linecap:round; stroke-linejoin:round; stroke-width:6; stroke-opacity:1; fill:none" stroke-dasharray="24, 12, 3, 12" points="271.136,2021.52 271.136,327.698 "/>
<polyline clip-path="url(#clip154)" style="stroke:#ff0000; stroke-linecap:round; stroke-linejoin:round; stroke-width:6; stroke-opacity:1; fill:none" stroke-dasharray="24, 12, 3, 12" points="1070.97,2021.52 1070.97,327.698 "/>
</svg>
