<?xml version="1.0" encoding="utf-8"?>
<svg xmlns="http://www.w3.org/2000/svg" xmlns:xlink="http://www.w3.org/1999/xlink" width="600" height="400" viewBox="0 0 2400 1600">
<defs>
  <clipPath id="clip400">
    <rect x="0" y="0" width="2400" height="1600"/>
  </clipPath>
</defs>
<path clip-path="url(#clip400)" d="M0 1600 L2400 1600 L2400 0 L0 0  Z" fill="#ffffff" fill-rule="evenodd" fill-opacity="1"/>
<defs>
  <clipPath id="clip401">
    <rect x="480" y="0" width="1681" height="1600"/>
  </clipPath>
</defs>
<path clip-path="url(#clip400)" d="M161.818 662.16 L1152.94 662.16 L1152.94 97.5521 L161.818 97.5521  Z" fill="#ffffff" fill-rule="evenodd" fill-opacity="1"/>
<defs>
  <clipPath id="clip402">
    <rect x="161" y="97" width="992" height="566"/>
  </clipPath>
</defs>
<polyline clip-path="url(#clip402)" style="stroke:#000000; stroke-linecap:round; stroke-linejoin:round; stroke-width:2; stroke-opacity:0.1; fill:none" points="185.884,662.16 185.884,97.5521 "/>
<polyline clip-path="url(#clip402)" style="stroke:#000000; stroke-linecap:round; stroke-linejoin:round; stroke-width:2; stroke-opacity:0.1; fill:none" points="448.609,662.16 448.609,97.5521 "/>
<polyline clip-path="url(#clip402)" style="stroke:#000000; stroke-linecap:round; stroke-linejoin:round; stroke-width:2; stroke-opacity:0.1; fill:none" points="711.334,662.16 711.334,97.5521 "/>
<polyline clip-path="url(#clip402)" style="stroke:#000000; stroke-linecap:round; stroke-linejoin:round; stroke-width:2; stroke-opacity:0.1; fill:none" points="974.059,662.16 974.059,97.5521 "/>
<polyline clip-path="url(#clip402)" style="stroke:#000000; stroke-linecap:round; stroke-linejoin:round; stroke-width:2; stroke-opacity:0.1; fill:none" points="161.818,646.181 1152.94,646.181 "/>
<polyline clip-path="url(#clip402)" style="stroke:#000000; stroke-linecap:round; stroke-linejoin:round; stroke-width:2; stroke-opacity:0.1; fill:none" points="161.818,516.923 1152.94,516.923 "/>
<polyline clip-path="url(#clip402)" style="stroke:#000000; stroke-linecap:round; stroke-linejoin:round; stroke-width:2; stroke-opacity:0.1; fill:none" points="161.818,387.665 1152.94,387.665 "/>
<polyline clip-path="url(#clip402)" style="stroke:#000000; stroke-linecap:round; stroke-linejoin:round; stroke-width:2; stroke-opacity:0.1; fill:none" points="161.818,258.407 1152.94,258.407 "/>
<polyline clip-path="url(#clip402)" style="stroke:#000000; stroke-linecap:round; stroke-linejoin:round; stroke-width:2; stroke-opacity:0.1; fill:none" points="161.818,129.149 1152.94,129.149 "/>
<polyline clip-path="url(#clip400)" style="stroke:#000000; stroke-linecap:round; stroke-linejoin:round; stroke-width:4; stroke-opacity:1; fill:none" points="161.818,662.16 1152.94,662.16 "/>
<polyline clip-path="url(#clip400)" style="stroke:#000000; stroke-linecap:round; stroke-linejoin:round; stroke-width:4; stroke-opacity:1; fill:none" points="185.884,662.16 185.884,643.263 "/>
<polyline clip-path="url(#clip400)" style="stroke:#000000; stroke-linecap:round; stroke-linejoin:round; stroke-width:4; stroke-opacity:1; fill:none" points="448.609,662.16 448.609,643.263 "/>
<polyline clip-path="url(#clip400)" style="stroke:#000000; stroke-linecap:round; stroke-linejoin:round; stroke-width:4; stroke-opacity:1; fill:none" points="711.334,662.16 711.334,643.263 "/>
<polyline clip-path="url(#clip400)" style="stroke:#000000; stroke-linecap:round; stroke-linejoin:round; stroke-width:4; stroke-opacity:1; fill:none" points="974.059,662.16 974.059,643.263 "/>
<path clip-path="url(#clip400)" d="M132.035 733.893 Q130.12 735.808 131.04 738.668 Q131.961 741.504 135.742 745.285 Q139.511 749.054 142.359 749.987 Q145.207 750.895 147.122 748.98 Q149.049 747.053 148.129 744.217 Q147.208 741.357 143.439 737.588 Q139.658 733.807 136.81 732.898 Q133.962 731.966 132.035 733.893 M130.07 731.929 Q133.152 728.847 137.215 729.67 Q141.278 730.468 145.919 735.108 Q150.547 739.736 151.357 743.812 Q152.167 747.863 149.086 750.944 Q146.005 754.026 141.941 753.228 Q137.878 752.405 133.25 747.777 Q128.61 743.137 127.799 739.086 Q126.989 735.01 130.07 731.929 Z" fill="#000000" fill-rule="nonzero" fill-opacity="1" /><path clip-path="url(#clip400)" d="M156.304 736.778 L158.895 734.187 L162.013 737.306 L159.423 739.896 L156.304 736.778 Z" fill="#000000" fill-rule="nonzero" fill-opacity="1" /><path clip-path="url(#clip400)" d="M164.014 717.897 Q162.246 719.665 162.172 721.629 Q162.111 723.581 163.768 725.238 Q165.426 726.895 167.377 726.834 Q169.342 726.76 171.109 724.993 Q172.877 723.225 172.951 721.261 Q173.012 719.284 171.367 717.639 Q169.71 715.982 167.746 716.056 Q165.794 716.117 164.014 717.897 M160.478 719.321 Q158.49 720.524 156.501 720.328 Q154.524 720.119 152.953 718.548 Q150.756 716.35 151.038 713.515 Q151.333 710.666 154.058 707.941 Q156.795 705.204 159.631 704.921 Q162.467 704.639 164.664 706.836 Q166.236 708.408 166.432 710.396 Q166.641 712.373 165.45 714.349 Q167.66 712.974 169.87 713.195 Q172.091 713.404 173.847 715.16 Q176.511 717.823 176.302 720.88 Q176.106 723.925 173.074 726.957 Q170.041 729.989 166.985 730.198 Q163.94 730.394 161.276 727.73 Q159.521 725.975 159.312 723.753 Q159.103 721.531 160.478 719.321 M155.654 716.313 Q157.078 717.738 158.76 717.652 Q160.454 717.553 162.062 715.945 Q163.658 714.349 163.756 712.655 Q163.867 710.949 162.442 709.525 Q161.018 708.101 159.312 708.211 Q157.618 708.309 156.022 709.905 Q154.414 711.514 154.316 713.208 Q154.23 714.889 155.654 716.313 Z" fill="#000000" fill-rule="nonzero" fill-opacity="1" /><path clip-path="url(#clip400)" d="M172.018 693.91 Q170.103 695.825 171.023 698.685 Q171.944 701.521 175.725 705.302 Q179.494 709.071 182.342 710.004 Q185.19 710.912 187.105 708.997 Q189.032 707.07 188.112 704.234 Q187.191 701.373 183.422 697.605 Q179.641 693.824 176.793 692.915 Q173.945 691.982 172.018 693.91 M170.054 691.945 Q173.135 688.864 177.198 689.687 Q181.262 690.485 185.902 695.125 Q190.53 699.753 191.34 703.829 Q192.151 707.88 189.069 710.961 Q185.988 714.042 181.925 713.244 Q177.861 712.422 173.233 707.794 Q168.593 703.154 167.783 699.102 Q166.972 695.027 170.054 691.945 Z" fill="#000000" fill-rule="nonzero" fill-opacity="1" /><path clip-path="url(#clip400)" d="M395.287 733.365 Q393.372 735.28 394.293 738.14 Q395.214 740.976 398.995 744.757 Q402.764 748.526 405.612 749.459 Q408.46 750.367 410.375 748.452 Q412.302 746.525 411.381 743.689 Q410.461 740.829 406.692 737.06 Q402.911 733.279 400.063 732.371 Q397.215 731.438 395.287 733.365 M393.323 731.401 Q396.405 728.32 400.468 729.142 Q404.531 729.94 409.172 734.58 Q413.8 739.208 414.61 743.284 Q415.42 747.335 412.339 750.416 Q409.258 753.498 405.194 752.7 Q401.131 751.877 396.503 747.249 Q391.862 742.609 391.052 738.558 Q390.242 734.482 393.323 731.401 Z" fill="#000000" fill-rule="nonzero" fill-opacity="1" /><path clip-path="url(#clip400)" d="M419.557 736.25 L422.148 733.66 L425.266 736.778 L422.675 739.368 L419.557 736.25 Z" fill="#000000" fill-rule="nonzero" fill-opacity="1" /><path clip-path="url(#clip400)" d="M427.267 717.369 Q425.499 719.137 425.425 721.101 Q425.364 723.053 427.021 724.71 Q428.678 726.368 430.63 726.306 Q432.595 726.233 434.362 724.465 Q436.13 722.697 436.204 720.733 Q436.265 718.756 434.62 717.111 Q432.963 715.454 430.999 715.528 Q429.047 715.589 427.267 717.369 M423.731 718.793 Q421.742 719.996 419.754 719.8 Q417.777 719.591 416.206 718.02 Q414.009 715.822 414.291 712.987 Q414.586 710.139 417.311 707.413 Q420.048 704.676 422.884 704.393 Q425.72 704.111 427.917 706.308 Q429.489 707.88 429.685 709.869 Q429.894 711.845 428.703 713.821 Q430.913 712.447 433.122 712.667 Q435.344 712.876 437.1 714.632 Q439.764 717.296 439.555 720.352 Q439.359 723.397 436.326 726.429 Q433.294 729.461 430.238 729.67 Q427.193 729.866 424.529 727.202 Q422.774 725.447 422.565 723.225 Q422.356 721.003 423.731 718.793 M418.907 715.786 Q420.331 717.21 422.013 717.124 Q423.707 717.025 425.315 715.417 Q426.911 713.821 427.009 712.127 Q427.119 710.421 425.695 708.997 Q424.271 707.573 422.565 707.683 Q420.871 707.782 419.275 709.377 Q417.667 710.986 417.569 712.68 Q417.483 714.362 418.907 715.786 Z" fill="#000000" fill-rule="nonzero" fill-opacity="1" /><path clip-path="url(#clip400)" d="M428.359 697.028 L438.094 687.293 L440.181 689.38 L432.717 696.844 L437.21 701.337 Q437.566 700.612 438.021 699.986 Q438.463 699.348 439.003 698.808 Q442.072 695.739 445.546 695.628 Q449.02 695.518 451.893 698.39 Q454.851 701.349 454.655 704.835 Q454.446 708.309 451.095 711.661 Q449.941 712.815 448.541 713.821 Q447.154 714.816 445.484 715.7 L442.992 713.208 Q444.699 712.704 446.172 711.82 Q447.645 710.937 448.959 709.623 Q451.082 707.499 451.205 705.142 Q451.328 702.785 449.413 700.87 Q447.498 698.955 445.141 699.078 Q442.784 699.201 440.66 701.324 Q439.666 702.319 438.892 703.534 Q438.131 704.737 437.566 706.235 L428.359 697.028 Z" fill="#000000" fill-rule="nonzero" fill-opacity="1" /><path clip-path="url(#clip400)" d="M657.485 733.893 Q655.57 735.808 656.49 738.668 Q657.411 741.504 661.192 745.285 Q664.961 749.054 667.809 749.987 Q670.657 750.895 672.572 748.98 Q674.499 747.053 673.579 744.217 Q672.658 741.357 668.889 737.588 Q665.108 733.807 662.26 732.898 Q659.412 731.966 657.485 733.893 M655.52 731.929 Q658.602 728.847 662.665 729.67 Q666.729 730.468 671.369 735.108 Q675.997 739.736 676.807 743.812 Q677.617 747.863 674.536 750.944 Q671.455 754.026 667.391 753.228 Q663.328 752.405 658.7 747.777 Q654.06 743.137 653.249 739.086 Q652.439 735.01 655.52 731.929 Z" fill="#000000" fill-rule="nonzero" fill-opacity="1" /><path clip-path="url(#clip400)" d="M681.754 736.778 L684.345 734.187 L687.463 737.306 L684.873 739.896 L681.754 736.778 Z" fill="#000000" fill-rule="nonzero" fill-opacity="1" /><path clip-path="url(#clip400)" d="M692.557 731.45 L690.299 729.191 Q691.674 728.7 692.864 727.976 Q694.055 727.251 694.976 726.331 Q697.431 723.876 697.075 720.942 Q696.719 717.983 693.54 714.435 Q693.883 716.203 693.355 717.86 Q692.827 719.518 691.502 720.843 Q688.752 723.593 685.486 723.544 Q682.221 723.47 679.336 720.586 Q676.513 717.762 676.476 714.386 Q676.439 711.01 679.213 708.236 Q682.393 705.056 686.505 705.83 Q690.618 706.579 695.258 711.219 Q699.592 715.552 700.119 720.205 Q700.647 724.833 697.173 728.307 Q696.24 729.24 695.099 730.014 Q693.957 730.787 692.557 731.45 M689.722 718.744 Q691.391 717.075 691.219 714.963 Q691.06 712.839 689.071 710.851 Q687.095 708.874 684.971 708.715 Q682.847 708.53 681.177 710.2 Q679.508 711.87 679.68 714.006 Q679.852 716.117 681.828 718.094 Q683.817 720.082 685.928 720.254 Q688.052 720.414 689.722 718.744 Z" fill="#000000" fill-rule="nonzero" fill-opacity="1" /><path clip-path="url(#clip400)" d="M697.468 693.91 Q695.553 695.825 696.473 698.685 Q697.394 701.521 701.175 705.302 Q704.944 709.071 707.792 710.004 Q710.64 710.912 712.555 708.997 Q714.483 707.07 713.562 704.234 Q712.641 701.373 708.872 697.605 Q705.091 693.824 702.243 692.915 Q699.395 691.982 697.468 693.91 M695.504 691.945 Q698.585 688.864 702.648 689.687 Q706.712 690.485 711.352 695.125 Q715.98 699.753 716.79 703.829 Q717.601 707.88 714.519 710.961 Q711.438 714.042 707.375 713.244 Q703.311 712.422 698.683 707.794 Q694.043 703.154 693.233 699.102 Q692.422 695.027 695.504 691.945 Z" fill="#000000" fill-rule="nonzero" fill-opacity="1" /><path clip-path="url(#clip400)" d="M920.738 733.365 Q918.822 735.28 919.743 738.14 Q920.664 740.976 924.445 744.757 Q928.214 748.526 931.062 749.459 Q933.91 750.367 935.825 748.452 Q937.752 746.525 936.831 743.689 Q935.911 740.829 932.142 737.06 Q928.361 733.279 925.513 732.371 Q922.665 731.438 920.738 733.365 M918.773 731.401 Q921.855 728.32 925.918 729.142 Q929.981 729.94 934.622 734.58 Q939.25 739.208 940.06 743.284 Q940.87 747.335 937.789 750.416 Q934.708 753.498 930.644 752.7 Q926.581 751.877 921.953 747.249 Q917.312 742.609 916.502 738.558 Q915.692 734.482 918.773 731.401 Z" fill="#000000" fill-rule="nonzero" fill-opacity="1" /><path clip-path="url(#clip400)" d="M945.007 736.25 L947.598 733.66 L950.716 736.778 L948.125 739.368 L945.007 736.25 Z" fill="#000000" fill-rule="nonzero" fill-opacity="1" /><path clip-path="url(#clip400)" d="M955.81 730.922 L953.552 728.663 Q954.926 728.172 956.117 727.448 Q957.308 726.724 958.229 725.803 Q960.684 723.348 960.328 720.414 Q959.972 717.455 956.792 713.907 Q957.136 715.675 956.608 717.332 Q956.08 718.99 954.755 720.315 Q952.005 723.065 948.739 723.016 Q945.474 722.943 942.589 720.058 Q939.765 717.234 939.729 713.858 Q939.692 710.482 942.466 707.708 Q945.646 704.528 949.758 705.302 Q953.871 706.051 958.511 710.691 Q962.845 715.024 963.372 719.677 Q963.9 724.305 960.426 727.779 Q959.493 728.712 958.351 729.486 Q957.21 730.259 955.81 730.922 M952.975 718.216 Q954.644 716.547 954.472 714.435 Q954.313 712.311 952.324 710.323 Q950.347 708.346 948.224 708.187 Q946.1 708.003 944.43 709.672 Q942.761 711.342 942.933 713.478 Q943.105 715.589 945.081 717.566 Q947.07 719.554 949.181 719.726 Q951.305 719.886 952.975 718.216 Z" fill="#000000" fill-rule="nonzero" fill-opacity="1" /><path clip-path="url(#clip400)" d="M953.809 697.028 L963.544 687.293 L965.631 689.38 L958.167 696.844 L962.66 701.337 Q963.016 700.612 963.471 699.986 Q963.913 699.348 964.453 698.808 Q967.522 695.739 970.996 695.628 Q974.47 695.518 977.343 698.39 Q980.301 701.349 980.105 704.835 Q979.896 708.309 976.545 711.661 Q975.391 712.815 973.991 713.821 Q972.604 714.816 970.934 715.7 L968.442 713.208 Q970.149 712.704 971.622 711.82 Q973.095 710.937 974.409 709.623 Q976.532 707.499 976.655 705.142 Q976.778 702.785 974.863 700.87 Q972.948 698.955 970.591 699.078 Q968.234 699.201 966.11 701.324 Q965.116 702.319 964.342 703.534 Q963.581 704.737 963.016 706.235 L953.809 697.028 Z" fill="#000000" fill-rule="nonzero" fill-opacity="1" /><polyline clip-path="url(#clip400)" style="stroke:#000000; stroke-linecap:round; stroke-linejoin:round; stroke-width:4; stroke-opacity:1; fill:none" points="161.818,662.16 161.818,97.5521 "/>
<polyline clip-path="url(#clip400)" style="stroke:#000000; stroke-linecap:round; stroke-linejoin:round; stroke-width:4; stroke-opacity:1; fill:none" points="161.818,646.181 180.716,646.181 "/>
<polyline clip-path="url(#clip400)" style="stroke:#000000; stroke-linecap:round; stroke-linejoin:round; stroke-width:4; stroke-opacity:1; fill:none" points="161.818,516.923 180.716,516.923 "/>
<polyline clip-path="url(#clip400)" style="stroke:#000000; stroke-linecap:round; stroke-linejoin:round; stroke-width:4; stroke-opacity:1; fill:none" points="161.818,387.665 180.716,387.665 "/>
<polyline clip-path="url(#clip400)" style="stroke:#000000; stroke-linecap:round; stroke-linejoin:round; stroke-width:4; stroke-opacity:1; fill:none" points="161.818,258.407 180.716,258.407 "/>
<polyline clip-path="url(#clip400)" style="stroke:#000000; stroke-linecap:round; stroke-linejoin:round; stroke-width:4; stroke-opacity:1; fill:none" points="161.818,129.149 180.716,129.149 "/>
<path clip-path="url(#clip400)" d="M116.86 635.53 Q114.152 635.53 112.78 638.204 Q111.426 640.86 111.426 646.207 Q111.426 651.537 112.78 654.21 Q114.152 656.867 116.86 656.867 Q119.586 656.867 120.94 654.21 Q122.311 651.537 122.311 646.207 Q122.311 640.86 120.94 638.204 Q119.586 635.53 116.86 635.53 M116.86 632.752 Q121.217 632.752 123.509 636.207 Q125.818 639.644 125.818 646.207 Q125.818 652.752 123.509 656.207 Q121.217 659.644 116.86 659.644 Q112.502 659.644 110.193 656.207 Q107.902 652.752 107.902 646.207 Q107.902 639.644 110.193 636.207 Q112.502 632.752 116.86 632.752 Z" fill="#000000" fill-rule="nonzero" fill-opacity="1" /><path clip-path="url(#clip400)" d="M110.888 526.932 L116.617 526.932 L116.617 507.157 L110.384 508.407 L110.384 505.213 L116.582 503.963 L120.089 503.963 L120.089 526.932 L125.818 526.932 L125.818 529.883 L110.888 529.883 L110.888 526.932 Z" fill="#000000" fill-rule="nonzero" fill-opacity="1" /><path clip-path="url(#clip400)" d="M113.579 397.674 L125.818 397.674 L125.818 400.625 L109.36 400.625 L109.36 397.674 Q111.356 395.608 114.794 392.136 Q118.249 388.646 119.134 387.639 Q120.818 385.747 121.478 384.445 Q122.155 383.125 122.155 381.858 Q122.155 379.792 120.697 378.49 Q119.256 377.188 116.929 377.188 Q115.28 377.188 113.44 377.761 Q111.617 378.334 109.533 379.497 L109.533 375.955 Q111.652 375.104 113.492 374.67 Q115.332 374.236 116.86 374.236 Q120.888 374.236 123.283 376.25 Q125.679 378.264 125.679 381.632 Q125.679 383.229 125.072 384.67 Q124.481 386.094 122.901 388.038 Q122.467 388.542 120.141 390.955 Q117.815 393.351 113.579 397.674 Z" fill="#000000" fill-rule="nonzero" fill-opacity="1" /><path clip-path="url(#clip400)" d="M120.471 257.392 Q122.988 257.93 124.395 259.631 Q125.818 261.333 125.818 263.833 Q125.818 267.669 123.179 269.77 Q120.54 271.871 115.679 271.871 Q114.047 271.871 112.311 271.541 Q110.593 271.228 108.752 270.586 L108.752 267.201 Q110.211 268.051 111.947 268.485 Q113.683 268.919 115.575 268.919 Q118.874 268.919 120.592 267.617 Q122.329 266.315 122.329 263.833 Q122.329 261.541 120.714 260.256 Q119.117 258.954 116.252 258.954 L113.231 258.954 L113.231 256.072 L116.391 256.072 Q118.978 256.072 120.349 255.048 Q121.721 254.006 121.721 252.062 Q121.721 250.065 120.297 249.006 Q118.891 247.93 116.252 247.93 Q114.811 247.93 113.162 248.242 Q111.513 248.555 109.533 249.215 L109.533 246.09 Q111.53 245.534 113.266 245.256 Q115.02 244.978 116.565 244.978 Q120.558 244.978 122.884 246.801 Q125.21 248.607 125.21 251.697 Q125.21 253.85 123.978 255.343 Q122.745 256.819 120.471 257.392 Z" fill="#000000" fill-rule="nonzero" fill-opacity="1" /><path clip-path="url(#clip400)" d="M118.631 119.245 L109.777 133.082 L118.631 133.082 L118.631 119.245 M117.711 116.189 L122.12 116.189 L122.12 133.082 L125.818 133.082 L125.818 135.998 L122.12 135.998 L122.12 142.109 L118.631 142.109 L118.631 135.998 L106.929 135.998 L106.929 132.613 L117.711 116.189 Z" fill="#000000" fill-rule="nonzero" fill-opacity="1" /><path clip-path="url(#clip400)" d="M163.901 20.1758 Q165.313 17.8147 168.809 15.7314 Q170.175 14.9212 174.387 14.9212 Q179.11 14.9212 182.049 18.6712 Q185.012 22.4212 185.012 28.5323 Q185.012 34.6433 182.049 38.3933 Q179.11 42.1433 174.387 42.1433 Q171.54 42.1433 169.48 41.0322 Q167.443 39.8979 166.1 37.5831 L166.1 51.3331 L161.818 51.3331 L161.818 28.7637 Q161.818 23.4165 163.901 20.1758 M180.591 28.5323 Q180.591 23.8332 178.647 21.1712 Q176.725 18.486 173.346 18.486 Q169.966 18.486 168.022 21.1712 Q166.1 23.8332 166.1 28.5323 Q166.1 33.2313 168.022 35.9165 Q169.966 38.5785 173.346 38.5785 Q176.725 38.5785 178.647 35.9165 Q180.591 33.2313 180.591 28.5323 Z" fill="#000000" fill-rule="nonzero" fill-opacity="1" /><polyline clip-path="url(#clip402)" style="stroke:#009af9; stroke-linecap:round; stroke-linejoin:round; stroke-width:4; stroke-opacity:1; fill:none" points="189.869,589.371 248.307,593.526 306.746,598.206 365.185,603.515 423.623,609.59 482.062,616.608 540.501,624.807 598.939,634.513 657.378,646.181 715.817,631.889 774.256,613.978 832.694,590.874 891.133,559.938 949.572,516.378 1008.01,450.495 1066.45,339.316 1124.89,113.532 "/>
<circle clip-path="url(#clip402)" cx="657.378" cy="646.181" r="10.8" fill="#ff0000" fill-rule="evenodd" fill-opacity="1" stroke="#000000" stroke-opacity="1" stroke-width="3.2"/>
<path clip-path="url(#clip400)" d="M1361.64 662.16 L2352.76 662.16 L2352.76 97.5521 L1361.64 97.5521  Z" fill="#ffffff" fill-rule="evenodd" fill-opacity="1"/>
<defs>
  <clipPath id="clip403">
    <rect x="1361" y="97" width="992" height="566"/>
  </clipPath>
</defs>
<polyline clip-path="url(#clip403)" style="stroke:#000000; stroke-linecap:round; stroke-linejoin:round; stroke-width:2; stroke-opacity:0.1; fill:none" points="1377.19,662.16 1377.19,97.5521 "/>
<polyline clip-path="url(#clip403)" style="stroke:#000000; stroke-linecap:round; stroke-linejoin:round; stroke-width:2; stroke-opacity:0.1; fill:none" points="1521.85,662.16 1521.85,97.5521 "/>
<polyline clip-path="url(#clip403)" style="stroke:#000000; stroke-linecap:round; stroke-linejoin:round; stroke-width:2; stroke-opacity:0.1; fill:none" points="1666.51,662.16 1666.51,97.5521 "/>
<polyline clip-path="url(#clip403)" style="stroke:#000000; stroke-linecap:round; stroke-linejoin:round; stroke-width:2; stroke-opacity:0.1; fill:none" points="1811.17,662.16 1811.17,97.5521 "/>
<polyline clip-path="url(#clip403)" style="stroke:#000000; stroke-linecap:round; stroke-linejoin:round; stroke-width:2; stroke-opacity:0.1; fill:none" points="1955.83,662.16 1955.83,97.5521 "/>
<polyline clip-path="url(#clip403)" style="stroke:#000000; stroke-linecap:round; stroke-linejoin:round; stroke-width:2; stroke-opacity:0.1; fill:none" points="2100.49,662.16 2100.49,97.5521 "/>
<polyline clip-path="url(#clip403)" style="stroke:#000000; stroke-linecap:round; stroke-linejoin:round; stroke-width:2; stroke-opacity:0.1; fill:none" points="2245.14,662.16 2245.14,97.5521 "/>
<polyline clip-path="url(#clip403)" style="stroke:#000000; stroke-linecap:round; stroke-linejoin:round; stroke-width:2; stroke-opacity:0.1; fill:none" points="1361.64,646.181 2352.76,646.181 "/>
<polyline clip-path="url(#clip403)" style="stroke:#000000; stroke-linecap:round; stroke-linejoin:round; stroke-width:2; stroke-opacity:0.1; fill:none" points="1361.64,504.251 2352.76,504.251 "/>
<polyline clip-path="url(#clip403)" style="stroke:#000000; stroke-linecap:round; stroke-linejoin:round; stroke-width:2; stroke-opacity:0.1; fill:none" points="1361.64,362.321 2352.76,362.321 "/>
<polyline clip-path="url(#clip403)" style="stroke:#000000; stroke-linecap:round; stroke-linejoin:round; stroke-width:2; stroke-opacity:0.1; fill:none" points="1361.64,220.392 2352.76,220.392 "/>
<polyline clip-path="url(#clip400)" style="stroke:#000000; stroke-linecap:round; stroke-linejoin:round; stroke-width:4; stroke-opacity:1; fill:none" points="1361.64,662.16 2352.76,662.16 "/>
<polyline clip-path="url(#clip400)" style="stroke:#000000; stroke-linecap:round; stroke-linejoin:round; stroke-width:4; stroke-opacity:1; fill:none" points="1377.19,662.16 1377.19,643.263 "/>
<polyline clip-path="url(#clip400)" style="stroke:#000000; stroke-linecap:round; stroke-linejoin:round; stroke-width:4; stroke-opacity:1; fill:none" points="1521.85,662.16 1521.85,643.263 "/>
<polyline clip-path="url(#clip400)" style="stroke:#000000; stroke-linecap:round; stroke-linejoin:round; stroke-width:4; stroke-opacity:1; fill:none" points="1666.51,662.16 1666.51,643.263 "/>
<polyline clip-path="url(#clip400)" style="stroke:#000000; stroke-linecap:round; stroke-linejoin:round; stroke-width:4; stroke-opacity:1; fill:none" points="1811.17,662.16 1811.17,643.263 "/>
<polyline clip-path="url(#clip400)" style="stroke:#000000; stroke-linecap:round; stroke-linejoin:round; stroke-width:4; stroke-opacity:1; fill:none" points="1955.83,662.16 1955.83,643.263 "/>
<polyline clip-path="url(#clip400)" style="stroke:#000000; stroke-linecap:round; stroke-linejoin:round; stroke-width:4; stroke-opacity:1; fill:none" points="2100.49,662.16 2100.49,643.263 "/>
<polyline clip-path="url(#clip400)" style="stroke:#000000; stroke-linecap:round; stroke-linejoin:round; stroke-width:4; stroke-opacity:1; fill:none" points="2245.14,662.16 2245.14,643.263 "/>
<path clip-path="url(#clip400)" d="M1323.44 733.795 Q1321.53 735.71 1322.45 738.57 Q1323.37 741.406 1327.15 745.187 Q1330.92 748.956 1333.77 749.889 Q1336.62 750.797 1338.53 748.882 Q1340.46 746.955 1339.54 744.119 Q1338.62 741.259 1334.85 737.49 Q1331.07 733.709 1328.22 732.8 Q1325.37 731.867 1323.44 733.795 M1321.48 731.83 Q1324.56 728.749 1328.62 729.572 Q1332.69 730.37 1337.33 735.01 Q1341.96 739.638 1342.77 743.714 Q1343.58 747.765 1340.5 750.846 Q1337.41 753.927 1333.35 753.129 Q1329.29 752.307 1324.66 747.679 Q1320.02 743.039 1319.21 738.987 Q1318.4 734.912 1321.48 731.83 Z" fill="#000000" fill-rule="nonzero" fill-opacity="1" /><path clip-path="url(#clip400)" d="M1347.71 736.68 L1350.3 734.089 L1353.42 737.207 L1350.83 739.798 L1347.71 736.68 Z" fill="#000000" fill-rule="nonzero" fill-opacity="1" /><path clip-path="url(#clip400)" d="M1358.87 727.583 L1367.53 718.928 L1369.61 721.015 L1357.98 732.653 L1355.89 730.566 Q1355.84 727.693 1355.82 722.808 Q1355.79 717.897 1355.71 716.559 Q1355.56 714.03 1355.1 712.643 Q1354.65 711.231 1353.75 710.335 Q1352.29 708.874 1350.34 708.985 Q1348.4 709.083 1346.76 710.728 Q1345.59 711.894 1344.69 713.6 Q1343.81 715.295 1343.16 717.59 L1340.65 715.086 Q1341.55 712.987 1342.55 711.378 Q1343.54 709.77 1344.62 708.69 Q1347.47 705.842 1350.59 705.572 Q1353.7 705.302 1356.09 707.683 Q1357.22 708.813 1357.8 710.261 Q1358.39 711.685 1358.65 714.177 Q1358.7 714.84 1358.76 718.192 Q1358.81 721.531 1358.87 727.583 Z" fill="#000000" fill-rule="nonzero" fill-opacity="1" /><path clip-path="url(#clip400)" d="M1374.51 715.356 L1372.25 713.097 Q1373.63 712.606 1374.82 711.882 Q1376.01 711.158 1376.93 710.237 Q1379.39 707.782 1379.03 704.848 Q1378.67 701.889 1375.49 698.341 Q1375.84 700.109 1375.31 701.766 Q1374.78 703.424 1373.46 704.749 Q1370.71 707.499 1367.44 707.45 Q1364.18 707.376 1361.29 704.492 Q1358.47 701.668 1358.43 698.292 Q1358.39 694.916 1361.17 692.142 Q1364.35 688.962 1368.46 689.736 Q1372.57 690.485 1377.21 695.125 Q1381.55 699.458 1382.07 704.111 Q1382.6 708.739 1379.13 712.213 Q1378.19 713.146 1377.05 713.92 Q1375.91 714.693 1374.51 715.356 M1371.68 702.65 Q1373.35 700.981 1373.17 698.869 Q1373.01 696.745 1371.03 694.757 Q1369.05 692.78 1366.93 692.621 Q1364.8 692.436 1363.13 694.106 Q1361.46 695.776 1361.63 697.912 Q1361.81 700.023 1363.78 702 Q1365.77 703.988 1367.88 704.16 Q1370.01 704.32 1371.68 702.65 Z" fill="#000000" fill-rule="nonzero" fill-opacity="1" /><path clip-path="url(#clip400)" d="M1468 733.893 Q1466.09 735.808 1467.01 738.668 Q1467.93 741.504 1471.71 745.285 Q1475.48 749.054 1478.33 749.987 Q1481.18 750.895 1483.09 748.98 Q1485.02 747.053 1484.1 744.217 Q1483.18 741.357 1479.41 737.588 Q1475.63 733.807 1472.78 732.898 Q1469.93 731.966 1468 733.893 M1466.04 731.929 Q1469.12 728.847 1473.18 729.67 Q1477.25 730.468 1481.89 735.108 Q1486.52 739.736 1487.33 743.812 Q1488.14 747.863 1485.06 750.944 Q1481.97 754.026 1477.91 753.228 Q1473.85 752.405 1469.22 747.777 Q1464.58 743.137 1463.77 739.086 Q1462.96 735.01 1466.04 731.929 Z" fill="#000000" fill-rule="nonzero" fill-opacity="1" /><path clip-path="url(#clip400)" d="M1492.27 736.778 L1494.86 734.187 L1497.98 737.306 L1495.39 739.896 L1492.27 736.778 Z" fill="#000000" fill-rule="nonzero" fill-opacity="1" /><path clip-path="url(#clip400)" d="M1501.01 714.509 Q1503.17 713.109 1505.37 713.318 Q1507.58 713.515 1509.35 715.282 Q1512.06 717.995 1511.68 721.347 Q1511.3 724.698 1507.86 728.135 Q1506.71 729.289 1505.25 730.284 Q1503.81 731.278 1502.06 732.125 L1499.66 729.731 Q1501.3 729.302 1502.83 728.381 Q1504.37 727.46 1505.7 726.122 Q1508.04 723.79 1508.33 721.654 Q1508.64 719.505 1506.88 717.75 Q1505.26 716.129 1503.21 716.363 Q1501.16 716.571 1499.14 718.597 L1497 720.733 L1494.96 718.695 L1497.2 716.461 Q1499.03 714.632 1499.27 712.938 Q1499.5 711.231 1498.13 709.856 Q1496.72 708.445 1494.96 708.702 Q1493.21 708.936 1491.34 710.802 Q1490.32 711.82 1489.38 713.208 Q1488.43 714.595 1487.5 716.461 L1485.29 714.251 Q1486.31 712.447 1487.34 711.022 Q1488.38 709.586 1489.47 708.494 Q1492.3 705.67 1495.23 705.314 Q1498.15 704.946 1500.34 707.131 Q1501.86 708.653 1502.05 710.581 Q1502.22 712.496 1501.01 714.509 Z" fill="#000000" fill-rule="nonzero" fill-opacity="1" /><path clip-path="url(#clip400)" d="M1507.99 693.91 Q1506.07 695.825 1506.99 698.685 Q1507.91 701.521 1511.69 705.302 Q1515.46 709.071 1518.31 710.004 Q1521.16 710.912 1523.07 708.997 Q1525 707.07 1524.08 704.234 Q1523.16 701.373 1519.39 697.605 Q1515.61 693.824 1512.76 692.915 Q1509.91 691.982 1507.99 693.91 M1506.02 691.945 Q1509.1 688.864 1513.17 689.687 Q1517.23 690.485 1521.87 695.125 Q1526.5 699.753 1527.31 703.829 Q1528.12 707.88 1525.04 710.961 Q1521.96 714.042 1517.89 713.244 Q1513.83 712.422 1509.2 707.794 Q1504.56 703.154 1503.75 699.102 Q1502.94 695.027 1506.02 691.945 Z" fill="#000000" fill-rule="nonzero" fill-opacity="1" /><path clip-path="url(#clip400)" d="M1613.31 733.242 Q1611.4 735.157 1612.32 738.018 Q1613.24 740.853 1617.02 744.634 Q1620.79 748.403 1623.64 749.336 Q1626.49 750.245 1628.4 748.33 Q1630.33 746.402 1629.41 743.566 Q1628.49 740.706 1624.72 736.937 Q1620.94 733.156 1618.09 732.248 Q1615.24 731.315 1613.31 733.242 M1611.35 731.278 Q1614.43 728.197 1618.49 729.019 Q1622.56 729.817 1627.2 734.458 Q1631.83 739.086 1632.64 743.161 Q1633.45 747.212 1630.36 750.294 Q1627.28 753.375 1623.22 752.577 Q1619.16 751.755 1614.53 747.126 Q1609.89 742.486 1609.08 738.435 Q1608.27 734.359 1611.35 731.278 Z" fill="#000000" fill-rule="nonzero" fill-opacity="1" /><path clip-path="url(#clip400)" d="M1637.58 736.127 L1640.17 733.537 L1643.29 736.655 L1640.7 739.245 L1637.58 736.127 Z" fill="#000000" fill-rule="nonzero" fill-opacity="1" /><path clip-path="url(#clip400)" d="M1646.32 713.858 Q1648.48 712.459 1650.68 712.667 Q1652.89 712.864 1654.66 714.632 Q1657.37 717.345 1656.99 720.696 Q1656.61 724.047 1653.17 727.485 Q1652.02 728.639 1650.56 729.633 Q1649.12 730.627 1647.37 731.474 L1644.97 729.081 Q1646.61 728.651 1648.14 727.73 Q1649.67 726.81 1651.01 725.471 Q1653.35 723.139 1653.64 721.003 Q1653.95 718.855 1652.19 717.099 Q1650.57 715.479 1648.52 715.712 Q1646.47 715.921 1644.44 717.946 L1642.31 720.082 L1640.27 718.044 L1642.51 715.81 Q1644.33 713.981 1644.58 712.287 Q1644.81 710.581 1643.44 709.206 Q1642.03 707.794 1640.27 708.052 Q1638.52 708.285 1636.65 710.151 Q1635.63 711.17 1634.69 712.557 Q1633.74 713.944 1632.81 715.81 L1630.6 713.6 Q1631.62 711.796 1632.65 710.372 Q1633.69 708.936 1634.78 707.843 Q1637.61 705.019 1640.54 704.663 Q1643.46 704.295 1645.65 706.48 Q1647.17 708.003 1647.35 709.93 Q1647.53 711.845 1646.32 713.858 Z" fill="#000000" fill-rule="nonzero" fill-opacity="1" /><path clip-path="url(#clip400)" d="M1663.03 712.741 L1667.08 708.69 L1653.1 694.708 L1649.58 699.999 L1647.32 697.74 L1650.82 692.473 L1653.3 689.994 L1669.54 706.235 L1673.59 702.184 L1675.68 704.271 L1665.12 714.828 L1663.03 712.741 Z" fill="#000000" fill-rule="nonzero" fill-opacity="1" /><path clip-path="url(#clip400)" d="M1758.17 733.046 Q1756.25 734.961 1757.17 737.821 Q1758.09 740.657 1761.87 744.438 Q1765.64 748.207 1768.49 749.14 Q1771.34 750.048 1773.25 748.133 Q1775.18 746.206 1774.26 743.37 Q1773.34 740.51 1769.57 736.741 Q1765.79 732.96 1762.94 732.051 Q1760.09 731.118 1758.17 733.046 M1756.2 731.082 Q1759.28 728 1763.35 728.823 Q1767.41 729.621 1772.05 734.261 Q1776.68 738.889 1777.49 742.965 Q1778.3 747.016 1775.22 750.097 Q1772.14 753.179 1768.07 752.381 Q1764.01 751.558 1759.38 746.93 Q1754.74 742.29 1753.93 738.239 Q1753.12 734.163 1756.2 731.082 Z" fill="#000000" fill-rule="nonzero" fill-opacity="1" /><path clip-path="url(#clip400)" d="M1782.44 735.931 L1785.03 733.34 L1788.15 736.459 L1785.56 739.049 L1782.44 735.931 Z" fill="#000000" fill-rule="nonzero" fill-opacity="1" /><path clip-path="url(#clip400)" d="M1791.18 713.662 Q1793.34 712.262 1795.54 712.471 Q1797.75 712.667 1799.51 714.435 Q1802.23 717.148 1801.85 720.5 Q1801.47 723.851 1798.03 727.288 Q1796.87 728.442 1795.41 729.437 Q1793.98 730.431 1792.22 731.278 L1789.83 728.884 Q1791.46 728.455 1792.99 727.534 Q1794.53 726.613 1795.87 725.275 Q1798.2 722.943 1798.49 720.807 Q1798.8 718.658 1797.05 716.903 Q1795.43 715.282 1793.38 715.516 Q1791.33 715.724 1789.3 717.75 L1787.16 719.886 L1785.13 717.848 L1787.36 715.614 Q1789.19 713.785 1789.43 712.091 Q1789.67 710.384 1788.29 709.009 Q1786.88 707.597 1785.13 707.855 Q1783.37 708.088 1781.5 709.954 Q1780.49 710.973 1779.54 712.361 Q1778.6 713.748 1777.66 715.614 L1775.45 713.404 Q1776.47 711.599 1777.5 710.175 Q1778.55 708.739 1779.64 707.647 Q1782.46 704.823 1785.4 704.467 Q1788.32 704.099 1790.5 706.284 Q1792.03 707.806 1792.21 709.733 Q1792.38 711.649 1791.18 713.662 Z" fill="#000000" fill-rule="nonzero" fill-opacity="1" /><path clip-path="url(#clip400)" d="M1809.59 710.838 L1818.25 702.184 L1820.33 704.271 L1808.7 715.908 L1806.61 713.821 Q1806.56 710.949 1806.54 706.063 Q1806.51 701.153 1806.42 699.814 Q1806.28 697.286 1805.82 695.898 Q1805.37 694.487 1804.47 693.59 Q1803.01 692.13 1801.06 692.24 Q1799.12 692.338 1797.48 693.983 Q1796.31 695.149 1795.41 696.856 Q1794.53 698.55 1793.88 700.846 L1791.37 698.341 Q1792.27 696.242 1793.26 694.634 Q1794.26 693.026 1795.34 691.945 Q1798.19 689.097 1801.31 688.827 Q1804.42 688.557 1806.81 690.939 Q1807.93 692.068 1808.52 693.517 Q1809.11 694.941 1809.37 697.433 Q1809.42 698.096 1809.48 701.447 Q1809.53 704.786 1809.59 710.838 Z" fill="#000000" fill-rule="nonzero" fill-opacity="1" /><path clip-path="url(#clip400)" d="M1902.32 733.549 Q1900.41 735.464 1901.33 738.325 Q1902.25 741.16 1906.03 744.941 Q1909.8 748.71 1912.65 749.643 Q1915.49 750.552 1917.41 748.636 Q1919.34 746.709 1918.42 743.873 Q1917.5 741.013 1913.73 737.244 Q1909.95 733.463 1907.1 732.555 Q1904.25 731.622 1902.32 733.549 M1900.36 731.585 Q1903.44 728.504 1907.5 729.326 Q1911.57 730.124 1916.21 734.764 Q1920.84 739.393 1921.65 743.468 Q1922.46 747.519 1919.37 750.601 Q1916.29 753.682 1912.23 752.884 Q1908.17 752.061 1903.54 747.433 Q1898.9 742.793 1898.09 738.742 Q1897.28 734.666 1900.36 731.585 Z" fill="#000000" fill-rule="nonzero" fill-opacity="1" /><path clip-path="url(#clip400)" d="M1926.59 736.434 L1929.18 733.844 L1932.3 736.962 L1929.71 739.552 L1926.59 736.434 Z" fill="#000000" fill-rule="nonzero" fill-opacity="1" /><path clip-path="url(#clip400)" d="M1935.33 714.165 Q1937.49 712.766 1939.69 712.974 Q1941.9 713.171 1943.67 714.939 Q1946.38 717.652 1946 721.003 Q1945.62 724.354 1942.18 727.792 Q1941.03 728.946 1939.57 729.94 Q1938.13 730.934 1936.38 731.781 L1933.98 729.388 Q1935.62 728.958 1937.15 728.037 Q1938.68 727.116 1940.02 725.778 Q1942.36 723.446 1942.65 721.31 Q1942.96 719.162 1941.2 717.406 Q1939.58 715.786 1937.53 716.019 Q1935.48 716.228 1933.45 718.253 L1931.32 720.389 L1929.28 718.351 L1931.52 716.117 Q1933.34 714.288 1933.59 712.594 Q1933.82 710.887 1932.45 709.513 Q1931.04 708.101 1929.28 708.359 Q1927.53 708.592 1925.66 710.458 Q1924.64 711.477 1923.7 712.864 Q1922.75 714.251 1921.82 716.117 L1919.61 713.907 Q1920.63 712.103 1921.66 710.679 Q1922.7 709.242 1923.79 708.15 Q1926.62 705.326 1929.55 704.97 Q1932.47 704.602 1934.66 706.787 Q1936.18 708.309 1936.36 710.237 Q1936.54 712.152 1935.33 714.165 Z" fill="#000000" fill-rule="nonzero" fill-opacity="1" /><path clip-path="url(#clip400)" d="M1951.33 698.169 Q1953.49 696.77 1955.69 696.979 Q1957.9 697.175 1959.66 698.943 Q1962.38 701.656 1962 705.007 Q1961.62 708.359 1958.18 711.796 Q1957.02 712.95 1955.56 713.944 Q1954.13 714.939 1952.37 715.786 L1949.98 713.392 Q1951.61 712.962 1953.15 712.041 Q1954.68 711.121 1956.02 709.783 Q1958.35 707.45 1958.65 705.314 Q1958.95 703.166 1957.2 701.41 Q1955.58 699.79 1953.53 700.023 Q1951.48 700.232 1949.45 702.257 L1947.31 704.393 L1945.28 702.356 L1947.51 700.121 Q1949.34 698.292 1949.59 696.598 Q1949.82 694.892 1948.44 693.517 Q1947.03 692.105 1945.28 692.363 Q1943.52 692.596 1941.66 694.462 Q1940.64 695.481 1939.69 696.868 Q1938.75 698.255 1937.81 700.121 L1935.6 697.912 Q1936.62 696.107 1937.65 694.683 Q1938.7 693.247 1939.79 692.154 Q1942.61 689.331 1945.55 688.975 Q1948.47 688.606 1950.65 690.791 Q1952.18 692.314 1952.36 694.241 Q1952.53 696.156 1951.33 698.169 Z" fill="#000000" fill-rule="nonzero" fill-opacity="1" /><path clip-path="url(#clip400)" d="M2046.38 734.151 Q2044.46 736.066 2045.39 738.926 Q2046.31 741.762 2050.09 745.543 Q2053.86 749.312 2056.7 750.245 Q2059.55 751.153 2061.47 749.238 Q2063.39 747.311 2062.47 744.475 Q2061.55 741.615 2057.78 737.846 Q2054 734.065 2051.15 733.156 Q2048.31 732.223 2046.38 734.151 M2044.42 732.186 Q2047.5 729.105 2051.56 729.928 Q2055.62 730.726 2060.26 735.366 Q2064.89 739.994 2065.7 744.07 Q2066.51 748.121 2063.43 751.202 Q2060.35 754.283 2056.29 753.485 Q2052.22 752.663 2047.59 748.035 Q2042.95 743.395 2042.14 739.343 Q2041.33 735.268 2044.42 732.186 Z" fill="#000000" fill-rule="nonzero" fill-opacity="1" /><path clip-path="url(#clip400)" d="M2070.65 737.036 L2073.24 734.445 L2076.36 737.563 L2073.77 740.154 L2070.65 737.036 Z" fill="#000000" fill-rule="nonzero" fill-opacity="1" /><path clip-path="url(#clip400)" d="M2079.39 714.767 Q2081.55 713.367 2083.75 713.576 Q2085.96 713.772 2087.73 715.54 Q2090.44 718.253 2090.06 721.604 Q2089.68 724.956 2086.24 728.393 Q2085.09 729.547 2083.63 730.541 Q2082.19 731.536 2080.43 732.383 L2078.04 729.989 Q2079.67 729.559 2081.21 728.639 Q2082.74 727.718 2084.08 726.38 Q2086.41 724.047 2086.71 721.911 Q2087.01 719.763 2085.26 718.008 Q2083.64 716.387 2081.59 716.62 Q2079.54 716.829 2077.51 718.855 L2075.38 720.991 L2073.34 718.953 L2075.57 716.719 Q2077.4 714.889 2077.65 713.195 Q2077.88 711.489 2076.51 710.114 Q2075.09 708.702 2073.34 708.96 Q2071.58 709.193 2069.72 711.059 Q2068.7 712.078 2067.75 713.465 Q2066.81 714.853 2065.87 716.719 L2063.66 714.509 Q2064.68 712.704 2065.71 711.28 Q2066.76 709.844 2067.85 708.751 Q2070.67 705.928 2073.61 705.572 Q2076.53 705.204 2078.71 707.389 Q2080.24 708.911 2080.42 710.838 Q2080.59 712.753 2079.39 714.767 Z" fill="#000000" fill-rule="nonzero" fill-opacity="1" /><path clip-path="url(#clip400)" d="M2088.4 693.185 L2091.92 709.23 L2098.18 702.969 L2088.4 693.185 M2085.59 691.675 L2088.71 688.557 L2100.65 700.502 L2103.27 697.887 L2105.33 699.949 L2102.71 702.564 L2107.04 706.885 L2104.57 709.353 L2100.25 705.032 L2091.97 713.306 L2089.58 710.912 L2085.59 691.675 Z" fill="#000000" fill-rule="nonzero" fill-opacity="1" /><path clip-path="url(#clip400)" d="M2191.82 733.365 Q2189.91 735.28 2190.83 738.14 Q2191.75 740.976 2195.53 744.757 Q2199.3 748.526 2202.15 749.459 Q2205 750.367 2206.91 748.452 Q2208.84 746.525 2207.92 743.689 Q2207 740.829 2203.23 737.06 Q2199.45 733.279 2196.6 732.371 Q2193.75 731.438 2191.82 733.365 M2189.86 731.401 Q2192.94 728.32 2197 729.142 Q2201.07 729.94 2205.71 734.58 Q2210.34 739.208 2211.15 743.284 Q2211.96 747.335 2208.88 750.416 Q2205.79 753.498 2201.73 752.7 Q2197.67 751.877 2193.04 747.249 Q2188.4 742.609 2187.59 738.558 Q2186.78 734.482 2189.86 731.401 Z" fill="#000000" fill-rule="nonzero" fill-opacity="1" /><path clip-path="url(#clip400)" d="M2216.09 736.25 L2218.68 733.66 L2221.8 736.778 L2219.21 739.368 L2216.09 736.25 Z" fill="#000000" fill-rule="nonzero" fill-opacity="1" /><path clip-path="url(#clip400)" d="M2224.83 713.981 Q2226.99 712.582 2229.19 712.79 Q2231.4 712.987 2233.17 714.754 Q2235.88 717.467 2235.5 720.819 Q2235.12 724.17 2231.68 727.607 Q2230.53 728.761 2229.07 729.756 Q2227.63 730.75 2225.88 731.597 L2223.48 729.203 Q2225.12 728.774 2226.65 727.853 Q2228.19 726.932 2229.52 725.594 Q2231.86 723.262 2232.15 721.126 Q2232.46 718.977 2230.7 717.222 Q2229.08 715.601 2227.03 715.835 Q2224.98 716.043 2222.96 718.069 L2220.82 720.205 L2218.78 718.167 L2221.02 715.933 Q2222.85 714.104 2223.09 712.41 Q2223.32 710.703 2221.95 709.328 Q2220.54 707.917 2218.78 708.174 Q2217.03 708.408 2215.16 710.274 Q2214.14 711.293 2213.2 712.68 Q2212.25 714.067 2211.32 715.933 L2209.11 713.723 Q2210.13 711.919 2211.16 710.495 Q2212.2 709.058 2213.29 707.966 Q2216.12 705.142 2219.05 704.786 Q2221.97 704.418 2224.16 706.603 Q2225.68 708.125 2225.87 710.053 Q2226.04 711.968 2224.83 713.981 Z" fill="#000000" fill-rule="nonzero" fill-opacity="1" /><path clip-path="url(#clip400)" d="M2224.9 697.028 L2234.63 687.293 L2236.72 689.38 L2229.25 696.844 L2233.75 701.337 Q2234.1 700.612 2234.56 699.986 Q2235 699.348 2235.54 698.808 Q2238.61 695.739 2242.08 695.628 Q2245.56 695.518 2248.43 698.39 Q2251.39 701.349 2251.19 704.835 Q2250.98 708.309 2247.63 711.661 Q2246.48 712.815 2245.08 713.821 Q2243.69 714.816 2242.02 715.7 L2239.53 713.208 Q2241.23 712.704 2242.71 711.82 Q2244.18 710.937 2245.49 709.623 Q2247.62 707.499 2247.74 705.142 Q2247.86 702.785 2245.95 700.87 Q2244.03 698.955 2241.68 699.078 Q2239.32 699.201 2237.2 701.324 Q2236.2 702.319 2235.43 703.534 Q2234.67 704.737 2234.1 706.235 L2224.9 697.028 Z" fill="#000000" fill-rule="nonzero" fill-opacity="1" /><polyline clip-path="url(#clip400)" style="stroke:#000000; stroke-linecap:round; stroke-linejoin:round; stroke-width:4; stroke-opacity:1; fill:none" points="1361.64,662.16 1361.64,97.5521 "/>
<polyline clip-path="url(#clip400)" style="stroke:#000000; stroke-linecap:round; stroke-linejoin:round; stroke-width:4; stroke-opacity:1; fill:none" points="1361.64,646.181 1380.53,646.181 "/>
<polyline clip-path="url(#clip400)" style="stroke:#000000; stroke-linecap:round; stroke-linejoin:round; stroke-width:4; stroke-opacity:1; fill:none" points="1361.64,504.251 1380.53,504.251 "/>
<polyline clip-path="url(#clip400)" style="stroke:#000000; stroke-linecap:round; stroke-linejoin:round; stroke-width:4; stroke-opacity:1; fill:none" points="1361.64,362.321 1380.53,362.321 "/>
<polyline clip-path="url(#clip400)" style="stroke:#000000; stroke-linecap:round; stroke-linejoin:round; stroke-width:4; stroke-opacity:1; fill:none" points="1361.64,220.392 1380.53,220.392 "/>
<path clip-path="url(#clip400)" d="M1260.13 635.53 Q1257.42 635.53 1256.05 638.204 Q1254.7 640.86 1254.7 646.207 Q1254.7 651.537 1256.05 654.21 Q1257.42 656.867 1260.13 656.867 Q1262.86 656.867 1264.21 654.21 Q1265.58 651.537 1265.58 646.207 Q1265.58 640.86 1264.21 638.204 Q1262.86 635.53 1260.13 635.53 M1260.13 632.752 Q1264.49 632.752 1266.78 636.207 Q1269.09 639.644 1269.09 646.207 Q1269.09 652.752 1266.78 656.207 Q1264.49 659.644 1260.13 659.644 Q1255.78 659.644 1253.47 656.207 Q1251.17 652.752 1251.17 646.207 Q1251.17 639.644 1253.47 636.207 Q1255.78 632.752 1260.13 632.752 Z" fill="#000000" fill-rule="nonzero" fill-opacity="1" /><path clip-path="url(#clip400)" d="M1275.25 654.731 L1278.92 654.731 L1278.92 659.141 L1275.25 659.141 L1275.25 654.731 Z" fill="#000000" fill-rule="nonzero" fill-opacity="1" /><path clip-path="url(#clip400)" d="M1294.06 635.53 Q1291.35 635.53 1289.98 638.204 Q1288.62 640.86 1288.62 646.207 Q1288.62 651.537 1289.98 654.21 Q1291.35 656.867 1294.06 656.867 Q1296.78 656.867 1298.14 654.21 Q1299.51 651.537 1299.51 646.207 Q1299.51 640.86 1298.14 638.204 Q1296.78 635.53 1294.06 635.53 M1294.06 632.752 Q1298.41 632.752 1300.71 636.207 Q1303.01 639.644 1303.01 646.207 Q1303.01 652.752 1300.71 656.207 Q1298.41 659.644 1294.06 659.644 Q1289.7 659.644 1287.39 656.207 Q1285.1 652.752 1285.1 646.207 Q1285.1 639.644 1287.39 636.207 Q1289.7 632.752 1294.06 632.752 Z" fill="#000000" fill-rule="nonzero" fill-opacity="1" /><path clip-path="url(#clip400)" d="M1316.68 635.53 Q1313.97 635.53 1312.6 638.204 Q1311.24 640.86 1311.24 646.207 Q1311.24 651.537 1312.6 654.21 Q1313.97 656.867 1316.68 656.867 Q1319.4 656.867 1320.76 654.21 Q1322.13 651.537 1322.13 646.207 Q1322.13 640.86 1320.76 638.204 Q1319.4 635.53 1316.68 635.53 M1316.68 632.752 Q1321.04 632.752 1323.33 636.207 Q1325.64 639.644 1325.64 646.207 Q1325.64 652.752 1323.33 656.207 Q1321.04 659.644 1316.68 659.644 Q1312.32 659.644 1310.01 656.207 Q1307.72 652.752 1307.72 646.207 Q1307.72 639.644 1310.01 636.207 Q1312.32 632.752 1316.68 632.752 Z" fill="#000000" fill-rule="nonzero" fill-opacity="1" /><path clip-path="url(#clip400)" d="M1260.88 493.6 Q1258.17 493.6 1256.8 496.274 Q1255.45 498.93 1255.45 504.277 Q1255.45 509.607 1256.8 512.281 Q1258.17 514.937 1260.88 514.937 Q1263.6 514.937 1264.96 512.281 Q1266.33 509.607 1266.33 504.277 Q1266.33 498.93 1264.96 496.274 Q1263.6 493.6 1260.88 493.6 M1260.88 490.822 Q1265.24 490.822 1267.53 494.277 Q1269.84 497.715 1269.84 504.277 Q1269.84 510.822 1267.53 514.277 Q1265.24 517.715 1260.88 517.715 Q1256.52 517.715 1254.21 514.277 Q1251.92 510.822 1251.92 504.277 Q1251.92 497.715 1254.21 494.277 Q1256.52 490.822 1260.88 490.822 Z" fill="#000000" fill-rule="nonzero" fill-opacity="1" /><path clip-path="url(#clip400)" d="M1276 512.802 L1279.66 512.802 L1279.66 517.211 L1276 517.211 L1276 512.802 Z" fill="#000000" fill-rule="nonzero" fill-opacity="1" /><path clip-path="url(#clip400)" d="M1294.8 493.6 Q1292.09 493.6 1290.72 496.274 Q1289.37 498.93 1289.37 504.277 Q1289.37 509.607 1290.72 512.281 Q1292.09 514.937 1294.8 514.937 Q1297.53 514.937 1298.88 512.281 Q1300.25 509.607 1300.25 504.277 Q1300.25 498.93 1298.88 496.274 Q1297.53 493.6 1294.8 493.6 M1294.8 490.822 Q1299.16 490.822 1301.45 494.277 Q1303.76 497.715 1303.76 504.277 Q1303.76 510.822 1301.45 514.277 Q1299.16 517.715 1294.8 517.715 Q1290.45 517.715 1288.14 514.277 Q1285.84 510.822 1285.84 504.277 Q1285.84 497.715 1288.14 494.277 Q1290.45 490.822 1294.8 490.822 Z" fill="#000000" fill-rule="nonzero" fill-opacity="1" /><path clip-path="url(#clip400)" d="M1309.96 491.291 L1323.73 491.291 L1323.73 494.243 L1313.17 494.243 L1313.17 500.597 Q1313.93 500.336 1314.7 500.215 Q1315.46 500.076 1316.23 500.076 Q1320.57 500.076 1323.1 502.454 Q1325.64 504.833 1325.64 508.895 Q1325.64 513.079 1323.03 515.406 Q1320.43 517.715 1315.69 517.715 Q1314.06 517.715 1312.35 517.437 Q1310.67 517.159 1308.87 516.604 L1308.87 513.079 Q1310.43 513.93 1312.09 514.347 Q1313.76 514.763 1315.62 514.763 Q1318.62 514.763 1320.38 513.183 Q1322.13 511.604 1322.13 508.895 Q1322.13 506.187 1320.38 504.607 Q1318.62 503.027 1315.62 503.027 Q1314.21 503.027 1312.81 503.34 Q1311.42 503.652 1309.96 504.312 L1309.96 491.291 Z" fill="#000000" fill-rule="nonzero" fill-opacity="1" /><path clip-path="url(#clip400)" d="M1260.13 351.671 Q1257.42 351.671 1256.05 354.344 Q1254.7 357 1254.7 362.348 Q1254.7 367.677 1256.05 370.351 Q1257.42 373.007 1260.13 373.007 Q1262.86 373.007 1264.21 370.351 Q1265.58 367.677 1265.58 362.348 Q1265.58 357 1264.21 354.344 Q1262.86 351.671 1260.13 351.671 M1260.13 348.893 Q1264.49 348.893 1266.78 352.348 Q1269.09 355.785 1269.09 362.348 Q1269.09 368.893 1266.78 372.347 Q1264.49 375.785 1260.13 375.785 Q1255.78 375.785 1253.47 372.347 Q1251.17 368.893 1251.17 362.348 Q1251.17 355.785 1253.47 352.348 Q1255.78 348.893 1260.13 348.893 Z" fill="#000000" fill-rule="nonzero" fill-opacity="1" /><path clip-path="url(#clip400)" d="M1275.25 370.872 L1278.92 370.872 L1278.92 375.281 L1275.25 375.281 L1275.25 370.872 Z" fill="#000000" fill-rule="nonzero" fill-opacity="1" /><path clip-path="url(#clip400)" d="M1287.16 372.33 L1292.89 372.33 L1292.89 352.556 L1286.66 353.806 L1286.66 350.611 L1292.86 349.361 L1296.37 349.361 L1296.37 372.33 L1302.09 372.33 L1302.09 375.281 L1287.16 375.281 L1287.16 372.33 Z" fill="#000000" fill-rule="nonzero" fill-opacity="1" /><path clip-path="url(#clip400)" d="M1316.68 351.671 Q1313.97 351.671 1312.6 354.344 Q1311.24 357 1311.24 362.348 Q1311.24 367.677 1312.6 370.351 Q1313.97 373.007 1316.68 373.007 Q1319.4 373.007 1320.76 370.351 Q1322.13 367.677 1322.13 362.348 Q1322.13 357 1320.76 354.344 Q1319.4 351.671 1316.68 351.671 M1316.68 348.893 Q1321.04 348.893 1323.33 352.348 Q1325.64 355.785 1325.64 362.348 Q1325.64 368.893 1323.33 372.347 Q1321.04 375.785 1316.68 375.785 Q1312.32 375.785 1310.01 372.347 Q1307.72 368.893 1307.72 362.348 Q1307.72 355.785 1310.01 352.348 Q1312.32 348.893 1316.68 348.893 Z" fill="#000000" fill-rule="nonzero" fill-opacity="1" /><path clip-path="url(#clip400)" d="M1260.88 209.741 Q1258.17 209.741 1256.8 212.414 Q1255.45 215.071 1255.45 220.418 Q1255.45 225.748 1256.8 228.421 Q1258.17 231.077 1260.88 231.077 Q1263.6 231.077 1264.96 228.421 Q1266.33 225.748 1266.33 220.418 Q1266.33 215.071 1264.96 212.414 Q1263.6 209.741 1260.88 209.741 M1260.88 206.963 Q1265.24 206.963 1267.53 210.418 Q1269.84 213.855 1269.84 220.418 Q1269.84 226.963 1267.53 230.418 Q1265.24 233.855 1260.88 233.855 Q1256.52 233.855 1254.21 230.418 Q1251.92 226.963 1251.92 220.418 Q1251.92 213.855 1254.21 210.418 Q1256.52 206.963 1260.88 206.963 Z" fill="#000000" fill-rule="nonzero" fill-opacity="1" /><path clip-path="url(#clip400)" d="M1276 228.942 L1279.66 228.942 L1279.66 233.352 L1276 233.352 L1276 228.942 Z" fill="#000000" fill-rule="nonzero" fill-opacity="1" /><path clip-path="url(#clip400)" d="M1287.91 230.4 L1293.64 230.4 L1293.64 210.626 L1287.41 211.876 L1287.41 208.682 L1293.6 207.432 L1297.11 207.432 L1297.11 230.4 L1302.84 230.4 L1302.84 233.352 L1287.91 233.352 L1287.91 230.4 Z" fill="#000000" fill-rule="nonzero" fill-opacity="1" /><path clip-path="url(#clip400)" d="M1309.96 207.432 L1323.73 207.432 L1323.73 210.383 L1313.17 210.383 L1313.17 216.737 Q1313.93 216.477 1314.7 216.355 Q1315.46 216.216 1316.23 216.216 Q1320.57 216.216 1323.1 218.595 Q1325.64 220.973 1325.64 225.036 Q1325.64 229.22 1323.03 231.546 Q1320.43 233.855 1315.69 233.855 Q1314.06 233.855 1312.35 233.577 Q1310.67 233.3 1308.87 232.744 L1308.87 229.22 Q1310.43 230.071 1312.09 230.487 Q1313.76 230.904 1315.62 230.904 Q1318.62 230.904 1320.38 229.324 Q1322.13 227.744 1322.13 225.036 Q1322.13 222.328 1320.38 220.748 Q1318.62 219.168 1315.62 219.168 Q1314.21 219.168 1312.81 219.48 Q1311.42 219.793 1309.96 220.453 L1309.96 207.432 Z" fill="#000000" fill-rule="nonzero" fill-opacity="1" /><path clip-path="url(#clip400)" d="M1373.53 18.9258 Q1370.02 18.9258 1368.12 21.4721 Q1366.13 24.1341 1366.13 28.5323 Q1366.13 33.185 1368.09 35.8702 Q1370.08 38.5322 1373.53 38.5322 Q1376.94 38.5322 1378.93 35.847 Q1380.92 33.1619 1380.92 28.5323 Q1380.92 24.2962 1378.93 21.4721 Q1377.1 18.9258 1373.53 18.9258 M1373.53 15.5462 L1387.68 15.5462 L1387.68 19.8054 L1382.91 19.8054 Q1385.43 23.4165 1385.43 28.5323 Q1385.43 34.898 1382.26 38.5091 Q1379.09 42.1433 1373.53 42.1433 Q1367.96 42.1433 1364.81 38.5091 Q1361.64 34.898 1361.64 28.5323 Q1361.64 22.1203 1364.81 18.5323 Q1367.42 15.5462 1373.53 15.5462 Z" fill="#000000" fill-rule="nonzero" fill-opacity="1" /><path clip-path="url(#clip400)" d="M1411.84 19.6666 Q1410.99 19.3656 1410.13 19.1342 Q1407.84 18.5323 1405.39 18.5323 Q1401.15 18.5323 1398.79 20.824 Q1396.59 22.9536 1396.17 26.8656 L1411.84 26.8656 L1411.84 30.1989 L1396.17 30.1989 Q1396.59 34.1109 1398.79 36.2405 Q1401.15 38.5322 1405.39 38.5322 Q1408.35 38.5322 1410.13 37.9304 L1411.84 37.3517 L1411.84 41.2174 L1410.02 41.634 Q1407.61 42.1433 1405.13 42.1433 Q1398.93 42.1433 1395.32 38.5322 Q1391.68 34.9211 1391.68 28.5323 Q1391.68 22.1434 1395.32 18.5323 Q1398.93 14.9212 1405.13 14.9212 Q1407.47 14.9212 1410.02 15.4305 Q1410.94 15.6157 1411.84 15.8934 L1411.84 19.6666 Z" fill="#000000" fill-rule="nonzero" fill-opacity="1" /><polyline clip-path="url(#clip403)" style="stroke:#009af9; stroke-linecap:round; stroke-linejoin:round; stroke-width:4; stroke-opacity:1; fill:none" points="1389.69,164.231 1448.13,221.702 1506.56,279.965 1565,339.021 1623.44,398.868 1681.88,459.508 1740.32,520.94 1798.76,583.165 1857.2,646.181 1915.63,582.372 1974.07,517.772 2032.51,452.379 2090.95,386.194 2149.39,319.216 2207.83,251.447 2266.27,182.885 2324.71,113.532 "/>
<circle clip-path="url(#clip403)" cx="1857.2" cy="646.181" r="10.8" fill="#ff0000" fill-rule="evenodd" fill-opacity="1" stroke="#000000" stroke-opacity="1" stroke-width="3.2"/>
<path clip-path="url(#clip400)" d="M161.818 1456.91 L1152.94 1456.91 L1152.94 892.306 L161.818 892.306  Z" fill="#ffffff" fill-rule="evenodd" fill-opacity="1"/>
<defs>
  <clipPath id="clip404">
    <rect x="161" y="892" width="992" height="566"/>
  </clipPath>
</defs>
<polyline clip-path="url(#clip404)" style="stroke:#000000; stroke-linecap:round; stroke-linejoin:round; stroke-width:2; stroke-opacity:0.1; fill:none" points="283.24,1456.91 283.24,892.306 "/>
<polyline clip-path="url(#clip404)" style="stroke:#000000; stroke-linecap:round; stroke-linejoin:round; stroke-width:2; stroke-opacity:0.1; fill:none" points="498.288,1456.91 498.288,892.306 "/>
<polyline clip-path="url(#clip404)" style="stroke:#000000; stroke-linecap:round; stroke-linejoin:round; stroke-width:2; stroke-opacity:0.1; fill:none" points="713.336,1456.91 713.336,892.306 "/>
<polyline clip-path="url(#clip404)" style="stroke:#000000; stroke-linecap:round; stroke-linejoin:round; stroke-width:2; stroke-opacity:0.1; fill:none" points="928.384,1456.91 928.384,892.306 "/>
<polyline clip-path="url(#clip404)" style="stroke:#000000; stroke-linecap:round; stroke-linejoin:round; stroke-width:2; stroke-opacity:0.1; fill:none" points="1143.43,1456.91 1143.43,892.306 "/>
<polyline clip-path="url(#clip404)" style="stroke:#000000; stroke-linecap:round; stroke-linejoin:round; stroke-width:2; stroke-opacity:0.1; fill:none" points="161.818,1440.93 1152.94,1440.93 "/>
<polyline clip-path="url(#clip404)" style="stroke:#000000; stroke-linecap:round; stroke-linejoin:round; stroke-width:2; stroke-opacity:0.1; fill:none" points="161.818,1321.95 1152.94,1321.95 "/>
<polyline clip-path="url(#clip404)" style="stroke:#000000; stroke-linecap:round; stroke-linejoin:round; stroke-width:2; stroke-opacity:0.1; fill:none" points="161.818,1202.96 1152.94,1202.96 "/>
<polyline clip-path="url(#clip404)" style="stroke:#000000; stroke-linecap:round; stroke-linejoin:round; stroke-width:2; stroke-opacity:0.1; fill:none" points="161.818,1083.97 1152.94,1083.97 "/>
<polyline clip-path="url(#clip404)" style="stroke:#000000; stroke-linecap:round; stroke-linejoin:round; stroke-width:2; stroke-opacity:0.1; fill:none" points="161.818,964.98 1152.94,964.98 "/>
<polyline clip-path="url(#clip400)" style="stroke:#000000; stroke-linecap:round; stroke-linejoin:round; stroke-width:4; stroke-opacity:1; fill:none" points="161.818,1456.91 1152.94,1456.91 "/>
<polyline clip-path="url(#clip400)" style="stroke:#000000; stroke-linecap:round; stroke-linejoin:round; stroke-width:4; stroke-opacity:1; fill:none" points="283.24,1456.91 283.24,1438.02 "/>
<polyline clip-path="url(#clip400)" style="stroke:#000000; stroke-linecap:round; stroke-linejoin:round; stroke-width:4; stroke-opacity:1; fill:none" points="498.288,1456.91 498.288,1438.02 "/>
<polyline clip-path="url(#clip400)" style="stroke:#000000; stroke-linecap:round; stroke-linejoin:round; stroke-width:4; stroke-opacity:1; fill:none" points="713.336,1456.91 713.336,1438.02 "/>
<polyline clip-path="url(#clip400)" style="stroke:#000000; stroke-linecap:round; stroke-linejoin:round; stroke-width:4; stroke-opacity:1; fill:none" points="928.384,1456.91 928.384,1438.02 "/>
<polyline clip-path="url(#clip400)" style="stroke:#000000; stroke-linecap:round; stroke-linejoin:round; stroke-width:4; stroke-opacity:1; fill:none" points="1143.43,1456.91 1143.43,1438.02 "/>
<path clip-path="url(#clip400)" d="M213.395 1544.64 Q211.48 1546.56 212.401 1549.42 Q213.322 1552.25 217.103 1556.03 Q220.872 1559.8 223.72 1560.74 Q226.568 1561.65 228.483 1559.73 Q230.41 1557.8 229.489 1554.97 Q228.569 1552.11 224.8 1548.34 Q221.019 1544.56 218.171 1543.65 Q215.323 1542.72 213.395 1544.64 M211.431 1542.68 Q214.513 1539.6 218.576 1540.42 Q222.639 1541.22 227.28 1545.86 Q231.908 1550.49 232.718 1554.56 Q233.528 1558.61 230.447 1561.69 Q227.366 1564.78 223.302 1563.98 Q219.239 1563.15 214.611 1558.53 Q209.97 1553.89 209.16 1549.84 Q208.35 1545.76 211.431 1542.68 Z" fill="#000000" fill-rule="nonzero" fill-opacity="1" /><path clip-path="url(#clip400)" d="M237.665 1547.53 L240.256 1544.94 L243.374 1548.06 L240.783 1550.65 L237.665 1547.53 Z" fill="#000000" fill-rule="nonzero" fill-opacity="1" /><path clip-path="url(#clip400)" d="M230.471 1524.3 L240.206 1514.57 L242.293 1516.65 L234.829 1524.12 L239.323 1528.61 Q239.679 1527.89 240.133 1527.26 Q240.575 1526.62 241.115 1526.08 Q244.184 1523.01 247.658 1522.9 Q251.132 1522.79 254.005 1525.66 Q256.963 1528.62 256.767 1532.11 Q256.558 1535.58 253.207 1538.93 Q252.053 1540.09 250.653 1541.09 Q249.266 1542.09 247.597 1542.97 L245.105 1540.48 Q246.811 1539.98 248.284 1539.09 Q249.757 1538.21 251.071 1536.9 Q253.195 1534.77 253.317 1532.42 Q253.44 1530.06 251.525 1528.14 Q249.61 1526.23 247.253 1526.35 Q244.896 1526.47 242.772 1528.6 Q241.778 1529.59 241.004 1530.81 Q240.243 1532.01 239.679 1533.51 L230.471 1524.3 Z" fill="#000000" fill-rule="nonzero" fill-opacity="1" /><path clip-path="url(#clip400)" d="M253.379 1504.66 Q251.464 1506.57 252.384 1509.43 Q253.305 1512.27 257.086 1516.05 Q260.855 1519.82 263.703 1520.75 Q266.551 1521.66 268.466 1519.75 Q270.393 1517.82 269.473 1514.98 Q268.552 1512.12 264.783 1508.35 Q261.002 1504.57 258.154 1503.67 Q255.306 1502.73 253.379 1504.66 M251.414 1502.7 Q254.496 1499.61 258.559 1500.44 Q262.623 1501.23 267.263 1505.87 Q271.891 1510.5 272.701 1514.58 Q273.511 1518.63 270.43 1521.71 Q267.349 1524.79 263.285 1523.99 Q259.222 1523.17 254.594 1518.54 Q249.954 1513.9 249.143 1509.85 Q248.333 1505.78 251.414 1502.7 Z" fill="#000000" fill-rule="nonzero" fill-opacity="1" /><path clip-path="url(#clip400)" d="M269.374 1488.66 Q267.459 1490.58 268.38 1493.44 Q269.301 1496.27 273.082 1500.06 Q276.851 1503.82 279.699 1504.76 Q282.547 1505.67 284.462 1503.75 Q286.389 1501.82 285.468 1498.99 Q284.548 1496.13 280.779 1492.36 Q276.998 1488.58 274.15 1487.67 Q271.302 1486.74 269.374 1488.66 M267.41 1486.7 Q270.492 1483.62 274.555 1484.44 Q278.618 1485.24 283.259 1489.88 Q287.887 1494.51 288.697 1498.58 Q289.507 1502.63 286.426 1505.72 Q283.345 1508.8 279.281 1508 Q275.218 1507.18 270.59 1502.55 Q265.949 1497.91 265.139 1493.86 Q264.329 1489.78 267.41 1486.7 Z" fill="#000000" fill-rule="nonzero" fill-opacity="1" /><path clip-path="url(#clip400)" d="M428.971 1544.11 Q427.056 1546.03 427.977 1548.89 Q428.897 1551.73 432.679 1555.51 Q436.447 1559.28 439.295 1560.21 Q442.143 1561.12 444.058 1559.2 Q445.986 1557.27 445.065 1554.44 Q444.144 1551.58 440.376 1547.81 Q436.595 1544.03 433.747 1543.12 Q430.898 1542.19 428.971 1544.11 M427.007 1542.15 Q430.088 1539.07 434.152 1539.89 Q438.215 1540.69 442.855 1545.33 Q447.483 1549.96 448.294 1554.03 Q449.104 1558.08 446.023 1561.17 Q442.941 1564.25 438.878 1563.45 Q434.815 1562.63 430.186 1558 Q425.546 1553.36 424.736 1549.31 Q423.926 1545.23 427.007 1542.15 Z" fill="#000000" fill-rule="nonzero" fill-opacity="1" /><path clip-path="url(#clip400)" d="M453.241 1547 L455.831 1544.41 L458.949 1547.53 L456.359 1550.12 L453.241 1547 Z" fill="#000000" fill-rule="nonzero" fill-opacity="1" /><path clip-path="url(#clip400)" d="M446.047 1523.77 L455.782 1514.04 L457.869 1516.13 L450.405 1523.59 L454.898 1528.08 Q455.254 1527.36 455.708 1526.73 Q456.15 1526.09 456.691 1525.55 Q459.76 1522.48 463.234 1522.37 Q466.708 1522.26 469.58 1525.14 Q472.539 1528.09 472.343 1531.58 Q472.134 1535.05 468.782 1538.41 Q467.629 1539.56 466.229 1540.57 Q464.842 1541.56 463.172 1542.45 L460.68 1539.95 Q462.387 1539.45 463.86 1538.57 Q465.333 1537.68 466.646 1536.37 Q468.77 1534.24 468.893 1531.89 Q469.016 1529.53 467.101 1527.62 Q465.186 1525.7 462.829 1525.82 Q460.472 1525.95 458.348 1528.07 Q457.353 1529.06 456.58 1530.28 Q455.819 1531.48 455.254 1532.98 L446.047 1523.77 Z" fill="#000000" fill-rule="nonzero" fill-opacity="1" /><path clip-path="url(#clip400)" d="M480.396 1521.91 L489.05 1513.25 L491.137 1515.34 L479.5 1526.98 L477.413 1524.89 Q477.363 1522.02 477.339 1517.13 Q477.314 1512.22 477.228 1510.88 Q477.081 1508.35 476.627 1506.97 Q476.173 1505.56 475.277 1504.66 Q473.816 1503.2 471.864 1503.31 Q469.924 1503.41 468.279 1505.05 Q467.113 1506.22 466.217 1507.92 Q465.333 1509.62 464.682 1511.91 L462.178 1509.41 Q463.074 1507.31 464.068 1505.7 Q465.063 1504.09 466.143 1503.01 Q468.991 1500.17 472.109 1499.9 Q475.227 1499.63 477.609 1502.01 Q478.738 1503.14 479.328 1504.59 Q479.917 1506.01 480.175 1508.5 Q480.224 1509.16 480.285 1512.52 Q480.334 1515.86 480.396 1521.91 Z" fill="#000000" fill-rule="nonzero" fill-opacity="1" /><path clip-path="url(#clip400)" d="M478.039 1491.78 L487.774 1482.05 L489.861 1484.13 L482.397 1491.6 L486.89 1496.09 Q487.246 1495.37 487.7 1494.74 Q488.142 1494.1 488.682 1493.56 Q491.751 1490.49 495.225 1490.38 Q498.699 1490.27 501.572 1493.14 Q504.53 1496.1 504.334 1499.59 Q504.125 1503.06 500.774 1506.41 Q499.62 1507.57 498.221 1508.58 Q496.833 1509.57 495.164 1510.45 L492.672 1507.96 Q494.378 1507.46 495.851 1506.57 Q497.324 1505.69 498.638 1504.38 Q500.762 1502.25 500.884 1499.9 Q501.007 1497.54 499.092 1495.62 Q497.177 1493.71 494.82 1493.83 Q492.463 1493.95 490.339 1496.08 Q489.345 1497.07 488.572 1498.29 Q487.81 1499.49 487.246 1500.99 L478.039 1491.78 Z" fill="#000000" fill-rule="nonzero" fill-opacity="1" /><path clip-path="url(#clip400)" d="M643.491 1544.64 Q641.576 1546.56 642.497 1549.42 Q643.417 1552.25 647.198 1556.03 Q650.967 1559.8 653.815 1560.74 Q656.663 1561.65 658.578 1559.73 Q660.506 1557.8 659.585 1554.97 Q658.664 1552.11 654.896 1548.34 Q651.115 1544.56 648.266 1543.65 Q645.418 1542.72 643.491 1544.64 M641.527 1542.68 Q644.608 1539.6 648.672 1540.42 Q652.735 1541.22 657.375 1545.86 Q662.003 1550.49 662.814 1554.56 Q663.624 1558.61 660.543 1561.69 Q657.461 1564.78 653.398 1563.98 Q649.335 1563.15 644.706 1558.53 Q640.066 1553.89 639.256 1549.84 Q638.446 1545.76 641.527 1542.68 Z" fill="#000000" fill-rule="nonzero" fill-opacity="1" /><path clip-path="url(#clip400)" d="M667.761 1547.53 L670.351 1544.94 L673.469 1548.06 L670.879 1550.65 L667.761 1547.53 Z" fill="#000000" fill-rule="nonzero" fill-opacity="1" /><path clip-path="url(#clip400)" d="M660.567 1524.3 L670.302 1514.57 L672.389 1516.65 L664.925 1524.12 L669.418 1528.61 Q669.774 1527.89 670.228 1527.26 Q670.67 1526.62 671.211 1526.08 Q674.28 1523.01 677.754 1522.9 Q681.228 1522.79 684.1 1525.66 Q687.059 1528.62 686.863 1532.11 Q686.654 1535.58 683.302 1538.93 Q682.149 1540.09 680.749 1541.09 Q679.362 1542.09 677.692 1542.97 L675.2 1540.48 Q676.907 1539.98 678.38 1539.09 Q679.853 1538.21 681.166 1536.9 Q683.29 1534.77 683.413 1532.42 Q683.536 1530.06 681.621 1528.14 Q679.706 1526.23 677.349 1526.35 Q674.992 1526.47 672.868 1528.6 Q671.873 1529.59 671.1 1530.81 Q670.339 1532.01 669.774 1533.51 L660.567 1524.3 Z" fill="#000000" fill-rule="nonzero" fill-opacity="1" /><path clip-path="url(#clip400)" d="M676.563 1508.31 L686.298 1498.57 L688.385 1500.66 L680.921 1508.12 L685.414 1512.61 Q685.77 1511.89 686.224 1511.26 Q686.666 1510.63 687.206 1510.09 Q690.275 1507.02 693.749 1506.91 Q697.224 1506.8 700.096 1509.67 Q703.055 1512.63 702.858 1516.11 Q702.65 1519.59 699.298 1522.94 Q698.144 1524.09 696.745 1525.1 Q695.358 1526.09 693.688 1526.98 L691.196 1524.49 Q692.902 1523.98 694.376 1523.1 Q695.849 1522.21 697.162 1520.9 Q699.286 1518.78 699.409 1516.42 Q699.531 1514.06 697.616 1512.15 Q695.701 1510.23 693.344 1510.36 Q690.987 1510.48 688.864 1512.6 Q687.869 1513.6 687.096 1514.81 Q686.335 1516.01 685.77 1517.51 L676.563 1508.31 Z" fill="#000000" fill-rule="nonzero" fill-opacity="1" /><path clip-path="url(#clip400)" d="M699.47 1488.66 Q697.555 1490.58 698.476 1493.44 Q699.396 1496.27 703.177 1500.06 Q706.946 1503.82 709.794 1504.76 Q712.642 1505.67 714.557 1503.75 Q716.485 1501.82 715.564 1498.99 Q714.643 1496.13 710.875 1492.36 Q707.094 1488.58 704.245 1487.67 Q701.397 1486.74 699.47 1488.66 M697.506 1486.7 Q700.587 1483.62 704.651 1484.44 Q708.714 1485.24 713.354 1489.88 Q717.982 1494.51 718.793 1498.58 Q719.603 1502.63 716.522 1505.72 Q713.44 1508.8 709.377 1508 Q705.314 1507.18 700.685 1502.55 Q696.045 1497.91 695.235 1493.86 Q694.425 1489.78 697.506 1486.7 Z" fill="#000000" fill-rule="nonzero" fill-opacity="1" /><path clip-path="url(#clip400)" d="M859.067 1544.11 Q857.152 1546.03 858.072 1548.89 Q858.993 1551.73 862.774 1555.51 Q866.543 1559.28 869.391 1560.21 Q872.239 1561.12 874.154 1559.2 Q876.081 1557.27 875.161 1554.44 Q874.24 1551.58 870.471 1547.81 Q866.69 1544.03 863.842 1543.12 Q860.994 1542.19 859.067 1544.11 M857.103 1542.15 Q860.184 1539.07 864.247 1539.89 Q868.311 1540.69 872.951 1545.33 Q877.579 1549.96 878.389 1554.03 Q879.2 1558.08 876.118 1561.17 Q873.037 1564.25 868.974 1563.45 Q864.91 1562.63 860.282 1558 Q855.642 1553.36 854.832 1549.31 Q854.021 1545.23 857.103 1542.15 Z" fill="#000000" fill-rule="nonzero" fill-opacity="1" /><path clip-path="url(#clip400)" d="M883.337 1547 L885.927 1544.41 L889.045 1547.53 L886.455 1550.12 L883.337 1547 Z" fill="#000000" fill-rule="nonzero" fill-opacity="1" /><path clip-path="url(#clip400)" d="M876.143 1523.77 L885.878 1514.04 L887.965 1516.13 L880.501 1523.59 L884.994 1528.08 Q885.35 1527.36 885.804 1526.73 Q886.246 1526.09 886.786 1525.55 Q889.855 1522.48 893.329 1522.37 Q896.804 1522.26 899.676 1525.14 Q902.635 1528.09 902.438 1531.58 Q902.23 1535.05 898.878 1538.41 Q897.724 1539.56 896.325 1540.57 Q894.938 1541.56 893.268 1542.45 L890.776 1539.95 Q892.482 1539.45 893.955 1538.57 Q895.429 1537.68 896.742 1536.37 Q898.866 1534.24 898.989 1531.89 Q899.111 1529.53 897.196 1527.62 Q895.281 1525.7 892.924 1525.82 Q890.567 1525.95 888.444 1528.07 Q887.449 1529.06 886.676 1530.28 Q885.915 1531.48 885.35 1532.98 L876.143 1523.77 Z" fill="#000000" fill-rule="nonzero" fill-opacity="1" /><path clip-path="url(#clip400)" d="M891.488 1508.43 L903.273 1496.64 L904.329 1497.7 L914.948 1521.62 L912.357 1524.22 L902.377 1501.71 L893.575 1510.52 L891.488 1508.43 Z" fill="#000000" fill-rule="nonzero" fill-opacity="1" /><path clip-path="url(#clip400)" d="M908.134 1491.78 L917.869 1482.05 L919.956 1484.13 L912.492 1491.6 L916.985 1496.09 Q917.341 1495.37 917.796 1494.74 Q918.238 1494.1 918.778 1493.56 Q921.847 1490.49 925.321 1490.38 Q928.795 1490.27 931.668 1493.14 Q934.626 1496.1 934.43 1499.59 Q934.221 1503.06 930.87 1506.41 Q929.716 1507.57 928.316 1508.58 Q926.929 1509.57 925.26 1510.45 L922.767 1507.96 Q924.474 1507.46 925.947 1506.57 Q927.42 1505.69 928.734 1504.38 Q930.857 1502.25 930.98 1499.9 Q931.103 1497.54 929.188 1495.62 Q927.273 1493.71 924.916 1493.83 Q922.559 1493.95 920.435 1496.08 Q919.441 1497.07 918.667 1498.29 Q917.906 1499.49 917.341 1500.99 L908.134 1491.78 Z" fill="#000000" fill-rule="nonzero" fill-opacity="1" /><path clip-path="url(#clip400)" d="M1073.59 1544.64 Q1071.67 1546.56 1072.59 1549.42 Q1073.51 1552.25 1077.29 1556.03 Q1081.06 1559.8 1083.91 1560.74 Q1086.76 1561.65 1088.67 1559.73 Q1090.6 1557.8 1089.68 1554.97 Q1088.76 1552.11 1084.99 1548.34 Q1081.21 1544.56 1078.36 1543.65 Q1075.51 1542.72 1073.59 1544.64 M1071.62 1542.68 Q1074.7 1539.6 1078.77 1540.42 Q1082.83 1541.22 1087.47 1545.86 Q1092.1 1550.49 1092.91 1554.56 Q1093.72 1558.61 1090.64 1561.69 Q1087.56 1564.78 1083.49 1563.98 Q1079.43 1563.15 1074.8 1558.53 Q1070.16 1553.89 1069.35 1549.84 Q1068.54 1545.76 1071.62 1542.68 Z" fill="#000000" fill-rule="nonzero" fill-opacity="1" /><path clip-path="url(#clip400)" d="M1097.86 1547.53 L1100.45 1544.94 L1103.56 1548.06 L1100.97 1550.65 L1097.86 1547.53 Z" fill="#000000" fill-rule="nonzero" fill-opacity="1" /><path clip-path="url(#clip400)" d="M1104.42 1526.89 Q1102.75 1528.56 1102.91 1530.68 Q1103.09 1532.8 1105.07 1534.78 Q1107.05 1536.76 1109.18 1536.95 Q1111.3 1537.11 1112.97 1535.44 Q1114.64 1533.77 1114.47 1531.65 Q1114.29 1529.52 1112.32 1527.54 Q1110.33 1525.55 1108.21 1525.39 Q1106.09 1525.22 1104.42 1526.89 M1101.58 1514.2 L1103.84 1516.46 Q1102.46 1516.95 1101.27 1517.67 Q1100.09 1518.38 1099.16 1519.32 Q1096.7 1521.77 1097.06 1524.73 Q1097.43 1527.68 1100.59 1531.21 Q1100.25 1529.42 1100.78 1527.76 Q1101.29 1526.09 1102.61 1524.78 Q1105.37 1522.02 1108.65 1522.1 Q1111.93 1522.17 1114.81 1525.05 Q1117.63 1527.87 1117.67 1531.25 Q1117.71 1534.63 1114.93 1537.4 Q1111.75 1540.58 1107.64 1539.83 Q1103.52 1539.07 1098.89 1534.44 Q1094.54 1530.1 1094.03 1525.46 Q1093.5 1520.8 1096.97 1517.33 Q1097.91 1516.4 1099.04 1515.63 Q1100.18 1514.86 1101.58 1514.2 Z" fill="#000000" fill-rule="nonzero" fill-opacity="1" /><path clip-path="url(#clip400)" d="M1113.57 1504.66 Q1111.65 1506.57 1112.58 1509.43 Q1113.5 1512.27 1117.28 1516.05 Q1121.05 1519.82 1123.89 1520.75 Q1126.74 1521.66 1128.66 1519.75 Q1130.58 1517.82 1129.66 1514.98 Q1128.74 1512.12 1124.97 1508.35 Q1121.19 1504.57 1118.35 1503.67 Q1115.5 1502.73 1113.57 1504.66 M1111.61 1502.7 Q1114.69 1499.61 1118.75 1500.44 Q1122.81 1501.23 1127.45 1505.87 Q1132.08 1510.5 1132.89 1514.58 Q1133.7 1518.63 1130.62 1521.71 Q1127.54 1524.79 1123.48 1523.99 Q1119.41 1523.17 1114.79 1518.54 Q1110.14 1513.9 1109.33 1509.85 Q1108.52 1505.78 1111.61 1502.7 Z" fill="#000000" fill-rule="nonzero" fill-opacity="1" /><path clip-path="url(#clip400)" d="M1129.57 1488.66 Q1127.65 1490.58 1128.57 1493.44 Q1129.49 1496.27 1133.27 1500.06 Q1137.04 1503.82 1139.89 1504.76 Q1142.74 1505.67 1144.65 1503.75 Q1146.58 1501.82 1145.66 1498.99 Q1144.74 1496.13 1140.97 1492.36 Q1137.19 1488.58 1134.34 1487.67 Q1131.49 1486.74 1129.57 1488.66 M1127.6 1486.7 Q1130.68 1483.62 1134.75 1484.44 Q1138.81 1485.24 1143.45 1489.88 Q1148.08 1494.51 1148.89 1498.58 Q1149.7 1502.63 1146.62 1505.72 Q1143.54 1508.8 1139.47 1508 Q1135.41 1507.18 1130.78 1502.55 Q1126.14 1497.91 1125.33 1493.86 Q1124.52 1489.78 1127.6 1486.7 Z" fill="#000000" fill-rule="nonzero" fill-opacity="1" /><polyline clip-path="url(#clip400)" style="stroke:#000000; stroke-linecap:round; stroke-linejoin:round; stroke-width:4; stroke-opacity:1; fill:none" points="161.818,1456.91 161.818,892.306 "/>
<polyline clip-path="url(#clip400)" style="stroke:#000000; stroke-linecap:round; stroke-linejoin:round; stroke-width:4; stroke-opacity:1; fill:none" points="161.818,1440.93 180.716,1440.93 "/>
<polyline clip-path="url(#clip400)" style="stroke:#000000; stroke-linecap:round; stroke-linejoin:round; stroke-width:4; stroke-opacity:1; fill:none" points="161.818,1321.95 180.716,1321.95 "/>
<polyline clip-path="url(#clip400)" style="stroke:#000000; stroke-linecap:round; stroke-linejoin:round; stroke-width:4; stroke-opacity:1; fill:none" points="161.818,1202.96 180.716,1202.96 "/>
<polyline clip-path="url(#clip400)" style="stroke:#000000; stroke-linecap:round; stroke-linejoin:round; stroke-width:4; stroke-opacity:1; fill:none" points="161.818,1083.97 180.716,1083.97 "/>
<polyline clip-path="url(#clip400)" style="stroke:#000000; stroke-linecap:round; stroke-linejoin:round; stroke-width:4; stroke-opacity:1; fill:none" points="161.818,964.98 180.716,964.98 "/>
<path clip-path="url(#clip400)" d="M60.315 1430.28 Q57.6067 1430.28 56.2352 1432.96 Q54.881 1435.61 54.881 1440.96 Q54.881 1446.29 56.2352 1448.96 Q57.6067 1451.62 60.315 1451.62 Q63.0407 1451.62 64.3948 1448.96 Q65.7664 1446.29 65.7664 1440.96 Q65.7664 1435.61 64.3948 1432.96 Q63.0407 1430.28 60.315 1430.28 M60.315 1427.51 Q64.6726 1427.51 66.9643 1430.96 Q69.2733 1434.4 69.2733 1440.96 Q69.2733 1447.51 66.9643 1450.96 Q64.6726 1454.4 60.315 1454.4 Q55.9574 1454.4 53.6484 1450.96 Q51.3567 1447.51 51.3567 1440.96 Q51.3567 1434.4 53.6484 1430.96 Q55.9574 1427.51 60.315 1427.51 Z" fill="#000000" fill-rule="nonzero" fill-opacity="1" /><path clip-path="url(#clip400)" d="M75.4364 1449.49 L79.0996 1449.49 L79.0996 1453.89 L75.4364 1453.89 L75.4364 1449.49 Z" fill="#000000" fill-rule="nonzero" fill-opacity="1" /><path clip-path="url(#clip400)" d="M94.2384 1430.28 Q91.5301 1430.28 90.1586 1432.96 Q88.8044 1435.61 88.8044 1440.96 Q88.8044 1446.29 90.1586 1448.96 Q91.5301 1451.62 94.2384 1451.62 Q96.9641 1451.62 98.3183 1448.96 Q99.6898 1446.29 99.6898 1440.96 Q99.6898 1435.61 98.3183 1432.96 Q96.9641 1430.28 94.2384 1430.28 M94.2384 1427.51 Q98.596 1427.51 100.888 1430.96 Q103.197 1434.4 103.197 1440.96 Q103.197 1447.51 100.888 1450.96 Q98.596 1454.4 94.2384 1454.4 Q89.8808 1454.4 87.5718 1450.96 Q85.2801 1447.51 85.2801 1440.96 Q85.2801 1434.4 87.5718 1430.96 Q89.8808 1427.51 94.2384 1427.51 Z" fill="#000000" fill-rule="nonzero" fill-opacity="1" /><path clip-path="url(#clip400)" d="M116.86 1430.28 Q114.152 1430.28 112.78 1432.96 Q111.426 1435.61 111.426 1440.96 Q111.426 1446.29 112.78 1448.96 Q114.152 1451.62 116.86 1451.62 Q119.586 1451.62 120.94 1448.96 Q122.311 1446.29 122.311 1440.96 Q122.311 1435.61 120.94 1432.96 Q119.586 1430.28 116.86 1430.28 M116.86 1427.51 Q121.217 1427.51 123.509 1430.96 Q125.818 1434.4 125.818 1440.96 Q125.818 1447.51 123.509 1450.96 Q121.217 1454.4 116.86 1454.4 Q112.502 1454.4 110.193 1450.96 Q107.902 1447.51 107.902 1440.96 Q107.902 1434.4 110.193 1430.96 Q112.502 1427.51 116.86 1427.51 Z" fill="#000000" fill-rule="nonzero" fill-opacity="1" /><path clip-path="url(#clip400)" d="M61.2351 1311.3 Q58.5268 1311.3 57.1553 1313.97 Q55.8011 1316.63 55.8011 1321.97 Q55.8011 1327.3 57.1553 1329.98 Q58.5268 1332.63 61.2351 1332.63 Q63.9608 1332.63 65.315 1329.98 Q66.6865 1327.3 66.6865 1321.97 Q66.6865 1316.63 65.315 1313.97 Q63.9608 1311.3 61.2351 1311.3 M61.2351 1308.52 Q65.5927 1308.52 67.8844 1311.97 Q70.1934 1315.41 70.1934 1321.97 Q70.1934 1328.52 67.8844 1331.97 Q65.5927 1335.41 61.2351 1335.41 Q56.8775 1335.41 54.5685 1331.97 Q52.2768 1328.52 52.2768 1321.97 Q52.2768 1315.41 54.5685 1311.97 Q56.8775 1308.52 61.2351 1308.52 Z" fill="#000000" fill-rule="nonzero" fill-opacity="1" /><path clip-path="url(#clip400)" d="M76.3566 1330.5 L80.0197 1330.5 L80.0197 1334.91 L76.3566 1334.91 L76.3566 1330.5 Z" fill="#000000" fill-rule="nonzero" fill-opacity="1" /><path clip-path="url(#clip400)" d="M95.1586 1311.3 Q92.4502 1311.3 91.0787 1313.97 Q89.7246 1316.63 89.7246 1321.97 Q89.7246 1327.3 91.0787 1329.98 Q92.4502 1332.63 95.1586 1332.63 Q97.8842 1332.63 99.2384 1329.98 Q100.61 1327.3 100.61 1321.97 Q100.61 1316.63 99.2384 1313.97 Q97.8842 1311.3 95.1586 1311.3 M95.1586 1308.52 Q99.5162 1308.52 101.808 1311.97 Q104.117 1315.41 104.117 1321.97 Q104.117 1328.52 101.808 1331.97 Q99.5162 1335.41 95.1586 1335.41 Q90.8009 1335.41 88.4919 1331.97 Q86.2003 1328.52 86.2003 1321.97 Q86.2003 1315.41 88.4919 1311.97 Q90.8009 1308.52 95.1586 1308.52 Z" fill="#000000" fill-rule="nonzero" fill-opacity="1" /><path clip-path="url(#clip400)" d="M110.888 1331.95 L116.617 1331.95 L116.617 1312.18 L110.384 1313.43 L110.384 1310.24 L116.582 1308.99 L120.089 1308.99 L120.089 1331.95 L125.818 1331.95 L125.818 1334.91 L110.888 1334.91 L110.888 1331.95 Z" fill="#000000" fill-rule="nonzero" fill-opacity="1" /><path clip-path="url(#clip400)" d="M61.5129 1192.31 Q58.8046 1192.31 57.4331 1194.98 Q56.0789 1197.64 56.0789 1202.98 Q56.0789 1208.31 57.4331 1210.99 Q58.8046 1213.64 61.5129 1213.64 Q64.2386 1213.64 65.5927 1210.99 Q66.9643 1208.31 66.9643 1202.98 Q66.9643 1197.64 65.5927 1194.98 Q64.2386 1192.31 61.5129 1192.31 M61.5129 1189.53 Q65.8705 1189.53 68.1622 1192.98 Q70.4712 1196.42 70.4712 1202.98 Q70.4712 1209.53 68.1622 1212.98 Q65.8705 1216.42 61.5129 1216.42 Q57.1553 1216.42 54.8463 1212.98 Q52.5546 1209.53 52.5546 1202.98 Q52.5546 1196.42 54.8463 1192.98 Q57.1553 1189.53 61.5129 1189.53 Z" fill="#000000" fill-rule="nonzero" fill-opacity="1" /><path clip-path="url(#clip400)" d="M76.6343 1211.51 L80.2975 1211.51 L80.2975 1215.92 L76.6343 1215.92 L76.6343 1211.51 Z" fill="#000000" fill-rule="nonzero" fill-opacity="1" /><path clip-path="url(#clip400)" d="M95.4363 1192.31 Q92.728 1192.31 91.3565 1194.98 Q90.0023 1197.64 90.0023 1202.98 Q90.0023 1208.31 91.3565 1210.99 Q92.728 1213.64 95.4363 1213.64 Q98.162 1213.64 99.5162 1210.99 Q100.888 1208.31 100.888 1202.98 Q100.888 1197.64 99.5162 1194.98 Q98.162 1192.31 95.4363 1192.31 M95.4363 1189.53 Q99.7939 1189.53 102.086 1192.98 Q104.395 1196.42 104.395 1202.98 Q104.395 1209.53 102.086 1212.98 Q99.7939 1216.42 95.4363 1216.42 Q91.0787 1216.42 88.7697 1212.98 Q86.478 1209.53 86.478 1202.98 Q86.478 1196.42 88.7697 1192.98 Q91.0787 1189.53 95.4363 1189.53 Z" fill="#000000" fill-rule="nonzero" fill-opacity="1" /><path clip-path="url(#clip400)" d="M113.579 1212.97 L125.818 1212.97 L125.818 1215.92 L109.36 1215.92 L109.36 1212.97 Q111.356 1210.9 114.794 1207.43 Q118.249 1203.94 119.134 1202.93 Q120.818 1201.04 121.478 1199.74 Q122.155 1198.42 122.155 1197.15 Q122.155 1195.08 120.697 1193.78 Q119.256 1192.48 116.929 1192.48 Q115.28 1192.48 113.44 1193.05 Q111.617 1193.63 109.533 1194.79 L109.533 1191.25 Q111.652 1190.4 113.492 1189.96 Q115.332 1189.53 116.86 1189.53 Q120.888 1189.53 123.283 1191.54 Q125.679 1193.56 125.679 1196.92 Q125.679 1198.52 125.072 1199.96 Q124.481 1201.39 122.901 1203.33 Q122.467 1203.83 120.141 1206.25 Q117.815 1208.64 113.579 1212.97 Z" fill="#000000" fill-rule="nonzero" fill-opacity="1" /><path clip-path="url(#clip400)" d="M60.8011 1073.32 Q58.0928 1073.32 56.7213 1075.99 Q55.3671 1078.65 55.3671 1084 Q55.3671 1089.32 56.7213 1092 Q58.0928 1094.65 60.8011 1094.65 Q63.5268 1094.65 64.8809 1092 Q66.2525 1089.32 66.2525 1084 Q66.2525 1078.65 64.8809 1075.99 Q63.5268 1073.32 60.8011 1073.32 M60.8011 1070.54 Q65.1587 1070.54 67.4504 1074 Q69.7594 1077.43 69.7594 1084 Q69.7594 1090.54 67.4504 1094 Q65.1587 1097.43 60.8011 1097.43 Q56.4435 1097.43 54.1345 1094 Q51.8428 1090.54 51.8428 1084 Q51.8428 1077.43 54.1345 1074 Q56.4435 1070.54 60.8011 1070.54 Z" fill="#000000" fill-rule="nonzero" fill-opacity="1" /><path clip-path="url(#clip400)" d="M75.9225 1092.52 L79.5857 1092.52 L79.5857 1096.93 L75.9225 1096.93 L75.9225 1092.52 Z" fill="#000000" fill-rule="nonzero" fill-opacity="1" /><path clip-path="url(#clip400)" d="M94.7245 1073.32 Q92.0162 1073.32 90.6447 1075.99 Q89.2905 1078.65 89.2905 1084 Q89.2905 1089.32 90.6447 1092 Q92.0162 1094.65 94.7245 1094.65 Q97.4502 1094.65 98.8044 1092 Q100.176 1089.32 100.176 1084 Q100.176 1078.65 98.8044 1075.99 Q97.4502 1073.32 94.7245 1073.32 M94.7245 1070.54 Q99.0821 1070.54 101.374 1074 Q103.683 1077.43 103.683 1084 Q103.683 1090.54 101.374 1094 Q99.0821 1097.43 94.7245 1097.43 Q90.3669 1097.43 88.0579 1094 Q85.7662 1090.54 85.7662 1084 Q85.7662 1077.43 88.0579 1074 Q90.3669 1070.54 94.7245 1070.54 Z" fill="#000000" fill-rule="nonzero" fill-opacity="1" /><path clip-path="url(#clip400)" d="M120.471 1082.95 Q122.988 1083.49 124.395 1085.19 Q125.818 1086.89 125.818 1089.39 Q125.818 1093.23 123.179 1095.33 Q120.54 1097.43 115.679 1097.43 Q114.047 1097.43 112.311 1097.1 Q110.593 1096.79 108.752 1096.15 L108.752 1092.76 Q110.211 1093.61 111.947 1094.05 Q113.683 1094.48 115.575 1094.48 Q118.874 1094.48 120.592 1093.18 Q122.329 1091.88 122.329 1089.39 Q122.329 1087.1 120.714 1085.82 Q119.117 1084.52 116.252 1084.52 L113.231 1084.52 L113.231 1081.63 L116.391 1081.63 Q118.978 1081.63 120.349 1080.61 Q121.721 1079.57 121.721 1077.62 Q121.721 1075.63 120.297 1074.57 Q118.891 1073.49 116.252 1073.49 Q114.811 1073.49 113.162 1073.8 Q111.513 1074.12 109.533 1074.78 L109.533 1071.65 Q111.53 1071.1 113.266 1070.82 Q115.02 1070.54 116.565 1070.54 Q120.558 1070.54 122.884 1072.36 Q125.21 1074.17 125.21 1077.26 Q125.21 1079.41 123.978 1080.9 Q122.745 1082.38 120.471 1082.95 Z" fill="#000000" fill-rule="nonzero" fill-opacity="1" /><path clip-path="url(#clip400)" d="M59.9504 954.329 Q57.2421 954.329 55.8706 957.003 Q54.5164 959.659 54.5164 965.006 Q54.5164 970.336 55.8706 973.01 Q57.2421 975.666 59.9504 975.666 Q62.6761 975.666 64.0303 973.01 Q65.4018 970.336 65.4018 965.006 Q65.4018 959.659 64.0303 957.003 Q62.6761 954.329 59.9504 954.329 M59.9504 951.552 Q64.308 951.552 66.5997 955.006 Q68.9087 958.444 68.9087 965.006 Q68.9087 971.552 66.5997 975.006 Q64.308 978.444 59.9504 978.444 Q55.5928 978.444 53.2838 975.006 Q50.9921 971.552 50.9921 965.006 Q50.9921 958.444 53.2838 955.006 Q55.5928 951.552 59.9504 951.552 Z" fill="#000000" fill-rule="nonzero" fill-opacity="1" /><path clip-path="url(#clip400)" d="M75.0719 973.531 L78.735 973.531 L78.735 977.94 L75.0719 977.94 L75.0719 973.531 Z" fill="#000000" fill-rule="nonzero" fill-opacity="1" /><path clip-path="url(#clip400)" d="M93.8738 954.329 Q91.1655 954.329 89.794 957.003 Q88.4398 959.659 88.4398 965.006 Q88.4398 970.336 89.794 973.01 Q91.1655 975.666 93.8738 975.666 Q96.5995 975.666 97.9537 973.01 Q99.3252 970.336 99.3252 965.006 Q99.3252 959.659 97.9537 957.003 Q96.5995 954.329 93.8738 954.329 M93.8738 951.552 Q98.2315 951.552 100.523 955.006 Q102.832 958.444 102.832 965.006 Q102.832 971.552 100.523 975.006 Q98.2315 978.444 93.8738 978.444 Q89.5162 978.444 87.2072 975.006 Q84.9156 971.552 84.9156 965.006 Q84.9156 958.444 87.2072 955.006 Q89.5162 951.552 93.8738 951.552 Z" fill="#000000" fill-rule="nonzero" fill-opacity="1" /><path clip-path="url(#clip400)" d="M118.631 955.076 L109.777 968.913 L118.631 968.913 L118.631 955.076 M117.711 952.02 L122.12 952.02 L122.12 968.913 L125.818 968.913 L125.818 971.829 L122.12 971.829 L122.12 977.94 L118.631 977.94 L118.631 971.829 L106.929 971.829 L106.929 968.444 L117.711 952.02 Z" fill="#000000" fill-rule="nonzero" fill-opacity="1" /><path clip-path="url(#clip400)" d="M173.716 813.68 Q170.198 813.68 168.3 816.226 Q166.309 818.888 166.309 823.286 Q166.309 827.939 168.276 830.624 Q170.267 833.286 173.716 833.286 Q177.119 833.286 179.11 830.601 Q181.1 827.916 181.1 823.286 Q181.1 819.05 179.11 816.226 Q177.281 813.68 173.716 813.68 M173.716 810.3 L187.86 810.3 L187.86 814.559 L183.091 814.559 Q185.614 818.171 185.614 823.286 Q185.614 829.652 182.443 833.263 Q179.272 836.897 173.716 836.897 Q168.138 836.897 164.989 833.263 Q161.818 829.652 161.818 823.286 Q161.818 816.874 164.989 813.286 Q167.605 810.3 173.716 810.3 Z" fill="#000000" fill-rule="nonzero" fill-opacity="1" /><path clip-path="url(#clip400)" d="M198.878 836.226 L190.961 810.3 L195.545 810.3 L202.235 832.059 Q205.012 829.189 207.327 825.208 Q209.086 822.221 209.179 819.629 Q209.225 818.402 208.67 816.087 Q208.022 813.333 205.568 810.3 L209.873 810.3 L209.873 810.3 Q211.471 812.36 212.535 815.231 Q213.508 817.87 213.508 819.675 Q213.508 824.212 210.36 828.263 Q206.262 833.541 203.415 836.226 L198.878 836.226 Z" fill="#000000" fill-rule="nonzero" fill-opacity="1" /><polyline clip-path="url(#clip404)" style="stroke:#009af9; stroke-linecap:round; stroke-linejoin:round; stroke-width:4; stroke-opacity:1; fill:none" points="189.869,958.985 248.307,1016.46 306.746,1074.72 365.185,1133.77 423.623,1193.62 482.062,1254.26 540.501,1315.69 598.939,1377.92 657.378,1440.93 715.817,1377.13 774.256,1312.53 832.694,1247.13 891.133,1180.95 949.572,1113.97 1008.01,1046.2 1066.45,977.639 1124.89,908.286 "/>
<circle clip-path="url(#clip404)" cx="657.378" cy="1440.93" r="10.8" fill="#ff0000" fill-rule="evenodd" fill-opacity="1" stroke="#000000" stroke-opacity="1" stroke-width="3.2"/>
</svg>
