<?xml version="1.0" encoding="utf-8"?>
<svg xmlns="http://www.w3.org/2000/svg" xmlns:xlink="http://www.w3.org/1999/xlink" width="600" height="400" viewBox="0 0 2400 1600">
<defs>
  <clipPath id="clip060">
    <rect x="0" y="0" width="2400" height="1600"/>
  </clipPath>
</defs>
<path clip-path="url(#clip060)" d="M0 1600 L2400 1600 L2400 0 L0 0  Z" fill="#ffffff" fill-rule="evenodd" fill-opacity="1"/>
<defs>
  <clipPath id="clip061">
    <rect x="480" y="0" width="1681" height="1600"/>
  </clipPath>
</defs>
<path clip-path="url(#clip060)" d="M161.818 667.406 L1152.94 667.406 L1152.94 97.5521 L161.818 97.5521  Z" fill="#ffffff" fill-rule="evenodd" fill-opacity="1"/>
<defs>
  <clipPath id="clip062">
    <rect x="161" y="97" width="992" height="571"/>
  </clipPath>
</defs>
<polyline clip-path="url(#clip062)" style="stroke:#000000; stroke-linecap:round; stroke-linejoin:round; stroke-width:2; stroke-opacity:0.1; fill:none" points="187.453,667.406 187.453,97.5521 "/>
<polyline clip-path="url(#clip062)" style="stroke:#000000; stroke-linecap:round; stroke-linejoin:round; stroke-width:2; stroke-opacity:0.1; fill:none" points="450.276,667.406 450.276,97.5521 "/>
<polyline clip-path="url(#clip062)" style="stroke:#000000; stroke-linecap:round; stroke-linejoin:round; stroke-width:2; stroke-opacity:0.1; fill:none" points="713.099,667.406 713.099,97.5521 "/>
<polyline clip-path="url(#clip062)" style="stroke:#000000; stroke-linecap:round; stroke-linejoin:round; stroke-width:2; stroke-opacity:0.1; fill:none" points="975.922,667.406 975.922,97.5521 "/>
<polyline clip-path="url(#clip062)" style="stroke:#000000; stroke-linecap:round; stroke-linejoin:round; stroke-width:2; stroke-opacity:0.1; fill:none" points="161.818,651.278 1152.94,651.278 "/>
<polyline clip-path="url(#clip062)" style="stroke:#000000; stroke-linecap:round; stroke-linejoin:round; stroke-width:2; stroke-opacity:0.1; fill:none" points="161.818,516.341 1152.94,516.341 "/>
<polyline clip-path="url(#clip062)" style="stroke:#000000; stroke-linecap:round; stroke-linejoin:round; stroke-width:2; stroke-opacity:0.1; fill:none" points="161.818,381.403 1152.94,381.403 "/>
<polyline clip-path="url(#clip062)" style="stroke:#000000; stroke-linecap:round; stroke-linejoin:round; stroke-width:2; stroke-opacity:0.1; fill:none" points="161.818,246.465 1152.94,246.465 "/>
<polyline clip-path="url(#clip062)" style="stroke:#000000; stroke-linecap:round; stroke-linejoin:round; stroke-width:2; stroke-opacity:0.1; fill:none" points="161.818,111.528 1152.94,111.528 "/>
<polyline clip-path="url(#clip060)" style="stroke:#000000; stroke-linecap:round; stroke-linejoin:round; stroke-width:4; stroke-opacity:1; fill:none" points="161.818,667.406 1152.94,667.406 "/>
<polyline clip-path="url(#clip060)" style="stroke:#000000; stroke-linecap:round; stroke-linejoin:round; stroke-width:4; stroke-opacity:1; fill:none" points="187.453,667.406 187.453,648.509 "/>
<polyline clip-path="url(#clip060)" style="stroke:#000000; stroke-linecap:round; stroke-linejoin:round; stroke-width:4; stroke-opacity:1; fill:none" points="450.276,667.406 450.276,648.509 "/>
<polyline clip-path="url(#clip060)" style="stroke:#000000; stroke-linecap:round; stroke-linejoin:round; stroke-width:4; stroke-opacity:1; fill:none" points="713.099,667.406 713.099,648.509 "/>
<polyline clip-path="url(#clip060)" style="stroke:#000000; stroke-linecap:round; stroke-linejoin:round; stroke-width:4; stroke-opacity:1; fill:none" points="975.922,667.406 975.922,648.509 "/>
<path clip-path="url(#clip060)" d="M133.604 739.139 Q131.689 741.054 132.61 743.914 Q133.53 746.75 137.311 750.531 Q141.08 754.3 143.928 755.233 Q146.776 756.141 148.691 754.226 Q150.619 752.299 149.698 749.463 Q148.777 746.603 145.008 742.834 Q141.227 739.053 138.379 738.144 Q135.531 737.211 133.604 739.139 M131.64 737.175 Q134.721 734.093 138.785 734.916 Q142.848 735.714 147.488 740.354 Q152.116 744.982 152.927 749.058 Q153.737 753.109 150.655 756.19 Q147.574 759.272 143.511 758.474 Q139.447 757.651 134.819 753.023 Q130.179 748.383 129.369 744.332 Q128.559 740.256 131.64 737.175 Z" fill="#000000" fill-rule="nonzero" fill-opacity="1" /><path clip-path="url(#clip060)" d="M157.874 742.024 L160.464 739.433 L163.582 742.552 L160.992 745.142 L157.874 742.024 Z" fill="#000000" fill-rule="nonzero" fill-opacity="1" /><path clip-path="url(#clip060)" d="M165.583 723.143 Q163.815 724.911 163.742 726.875 Q163.68 728.827 165.338 730.484 Q166.995 732.141 168.947 732.08 Q170.911 732.006 172.679 730.239 Q174.447 728.471 174.52 726.507 Q174.582 724.53 172.937 722.885 Q171.279 721.228 169.315 721.302 Q167.363 721.363 165.583 723.143 M162.048 724.567 Q160.059 725.77 158.07 725.574 Q156.094 725.365 154.522 723.794 Q152.325 721.596 152.607 718.761 Q152.902 715.912 155.627 713.187 Q158.365 710.45 161.201 710.167 Q164.036 709.885 166.234 712.082 Q167.805 713.654 168.002 715.642 Q168.21 717.619 167.02 719.595 Q169.229 718.22 171.439 718.441 Q173.661 718.65 175.416 720.406 Q178.08 723.069 177.872 726.126 Q177.675 729.171 174.643 732.203 Q171.611 735.235 168.554 735.444 Q165.51 735.64 162.846 732.976 Q161.09 731.221 160.881 728.999 Q160.673 726.777 162.048 724.567 M157.223 721.559 Q158.647 722.983 160.329 722.898 Q162.023 722.799 163.631 721.191 Q165.227 719.595 165.325 717.901 Q165.436 716.195 164.012 714.771 Q162.588 713.347 160.881 713.457 Q159.187 713.555 157.591 715.151 Q155.983 716.76 155.885 718.454 Q155.799 720.135 157.223 721.559 Z" fill="#000000" fill-rule="nonzero" fill-opacity="1" /><path clip-path="url(#clip060)" d="M173.587 699.156 Q171.672 701.071 172.593 703.931 Q173.514 706.767 177.295 710.548 Q181.063 714.317 183.911 715.25 Q186.759 716.158 188.675 714.243 Q190.602 712.316 189.681 709.48 Q188.76 706.619 184.992 702.851 Q181.211 699.07 178.363 698.161 Q175.515 697.228 173.587 699.156 M171.623 697.191 Q174.704 694.11 178.768 694.933 Q182.831 695.731 187.472 700.371 Q192.1 704.999 192.91 709.075 Q193.72 713.126 190.639 716.207 Q187.557 719.288 183.494 718.49 Q179.431 717.668 174.803 713.04 Q170.162 708.399 169.352 704.348 Q168.542 700.273 171.623 697.191 Z" fill="#000000" fill-rule="nonzero" fill-opacity="1" /><path clip-path="url(#clip060)" d="M396.955 738.611 Q395.04 740.526 395.961 743.386 Q396.881 746.222 400.662 750.003 Q404.431 753.772 407.279 754.705 Q410.127 755.613 412.042 753.698 Q413.97 751.771 413.049 748.935 Q412.128 746.075 408.359 742.306 Q404.578 738.525 401.73 737.617 Q398.882 736.684 396.955 738.611 M394.991 736.647 Q398.072 733.565 402.135 734.388 Q406.199 735.186 410.839 739.826 Q415.467 744.454 416.278 748.53 Q417.088 752.581 414.006 755.662 Q410.925 758.744 406.862 757.946 Q402.798 757.123 398.17 752.495 Q393.53 747.855 392.72 743.804 Q391.91 739.728 394.991 736.647 Z" fill="#000000" fill-rule="nonzero" fill-opacity="1" /><path clip-path="url(#clip060)" d="M421.225 741.496 L423.815 738.906 L426.933 742.024 L424.343 744.614 L421.225 741.496 Z" fill="#000000" fill-rule="nonzero" fill-opacity="1" /><path clip-path="url(#clip060)" d="M428.934 722.615 Q427.166 724.383 427.093 726.347 Q427.031 728.299 428.689 729.956 Q430.346 731.614 432.298 731.552 Q434.262 731.479 436.03 729.711 Q437.798 727.943 437.871 725.979 Q437.933 724.002 436.288 722.357 Q434.63 720.7 432.666 720.774 Q430.714 720.835 428.934 722.615 M425.399 724.039 Q423.41 725.242 421.421 725.046 Q419.445 724.837 417.873 723.266 Q415.676 721.068 415.958 718.233 Q416.253 715.385 418.978 712.659 Q421.716 709.922 424.552 709.639 Q427.387 709.357 429.585 711.554 Q431.156 713.126 431.353 715.115 Q431.561 717.091 430.371 719.067 Q432.58 717.692 434.79 717.913 Q437.012 718.122 438.767 719.878 Q441.431 722.542 441.223 725.598 Q441.026 728.643 437.994 731.675 Q434.962 734.707 431.905 734.916 Q428.861 735.112 426.197 732.448 Q424.441 730.693 424.232 728.471 Q424.024 726.249 425.399 724.039 M420.574 721.032 Q421.998 722.456 423.68 722.37 Q425.374 722.271 426.982 720.663 Q428.578 719.067 428.676 717.373 Q428.787 715.667 427.363 714.243 Q425.939 712.819 424.232 712.929 Q422.538 713.028 420.942 714.623 Q419.334 716.232 419.236 717.926 Q419.15 719.608 420.574 721.032 Z" fill="#000000" fill-rule="nonzero" fill-opacity="1" /><path clip-path="url(#clip060)" d="M430.027 702.274 L439.762 692.539 L441.849 694.626 L434.385 702.09 L438.878 706.583 Q439.234 705.858 439.688 705.232 Q440.13 704.594 440.67 704.054 Q443.739 700.985 447.213 700.874 Q450.687 700.764 453.56 703.636 Q456.519 706.595 456.322 710.081 Q456.113 713.555 452.762 716.907 Q451.608 718.061 450.209 719.067 Q448.821 720.062 447.152 720.946 L444.66 718.454 Q446.366 717.95 447.839 717.066 Q449.313 716.183 450.626 714.869 Q452.75 712.745 452.873 710.388 Q452.995 708.031 451.08 706.116 Q449.165 704.201 446.808 704.324 Q444.451 704.447 442.327 706.57 Q441.333 707.565 440.56 708.78 Q439.799 709.983 439.234 711.481 L430.027 702.274 Z" fill="#000000" fill-rule="nonzero" fill-opacity="1" /><path clip-path="url(#clip060)" d="M659.25 739.139 Q657.335 741.054 658.256 743.914 Q659.177 746.75 662.958 750.531 Q666.726 754.3 669.574 755.233 Q672.422 756.141 674.338 754.226 Q676.265 752.299 675.344 749.463 Q674.423 746.603 670.655 742.834 Q666.874 739.053 664.026 738.144 Q661.178 737.211 659.25 739.139 M657.286 737.175 Q660.367 734.093 664.431 734.916 Q668.494 735.714 673.134 740.354 Q677.763 744.982 678.573 749.058 Q679.383 753.109 676.302 756.19 Q673.22 759.272 669.157 758.474 Q665.094 757.651 660.466 753.023 Q655.825 748.383 655.015 744.332 Q654.205 740.256 657.286 737.175 Z" fill="#000000" fill-rule="nonzero" fill-opacity="1" /><path clip-path="url(#clip060)" d="M683.52 742.024 L686.11 739.433 L689.228 742.552 L686.638 745.142 L683.52 742.024 Z" fill="#000000" fill-rule="nonzero" fill-opacity="1" /><path clip-path="url(#clip060)" d="M694.323 736.696 L692.064 734.437 Q693.439 733.946 694.63 733.222 Q695.821 732.497 696.741 731.577 Q699.197 729.122 698.841 726.188 Q698.485 723.229 695.305 719.681 Q695.649 721.449 695.121 723.106 Q694.593 724.764 693.267 726.089 Q690.517 728.839 687.252 728.79 Q683.987 728.716 681.102 725.832 Q678.278 723.008 678.241 719.632 Q678.205 716.256 680.979 713.482 Q684.158 710.302 688.271 711.076 Q692.383 711.825 697.024 716.465 Q701.357 720.798 701.885 725.451 Q702.413 730.079 698.939 733.553 Q698.006 734.486 696.864 735.26 Q695.722 736.033 694.323 736.696 M691.487 723.99 Q693.157 722.321 692.985 720.209 Q692.825 718.085 690.837 716.097 Q688.86 714.12 686.736 713.961 Q684.613 713.776 682.943 715.446 Q681.274 717.116 681.445 719.252 Q681.617 721.363 683.594 723.339 Q685.582 725.328 687.694 725.5 Q689.818 725.66 691.487 723.99 Z" fill="#000000" fill-rule="nonzero" fill-opacity="1" /><path clip-path="url(#clip060)" d="M699.233 699.156 Q697.318 701.071 698.239 703.931 Q699.16 706.767 702.941 710.548 Q706.71 714.317 709.558 715.25 Q712.406 716.158 714.321 714.243 Q716.248 712.316 715.327 709.48 Q714.407 706.619 710.638 702.851 Q706.857 699.07 704.009 698.161 Q701.161 697.228 699.233 699.156 M697.269 697.191 Q700.351 694.11 704.414 694.933 Q708.477 695.731 713.118 700.371 Q717.746 704.999 718.556 709.075 Q719.366 713.126 716.285 716.207 Q713.204 719.288 709.14 718.49 Q705.077 717.668 700.449 713.04 Q695.808 708.399 694.998 704.348 Q694.188 700.273 697.269 697.191 Z" fill="#000000" fill-rule="nonzero" fill-opacity="1" /><path clip-path="url(#clip060)" d="M922.601 738.611 Q920.686 740.526 921.607 743.386 Q922.528 746.222 926.309 750.003 Q930.077 753.772 932.925 754.705 Q935.773 755.613 937.689 753.698 Q939.616 751.771 938.695 748.935 Q937.774 746.075 934.006 742.306 Q930.225 738.525 927.377 737.617 Q924.529 736.684 922.601 738.611 M920.637 736.647 Q923.718 733.565 927.782 734.388 Q931.845 735.186 936.485 739.826 Q941.114 744.454 941.924 748.53 Q942.734 752.581 939.653 755.662 Q936.571 758.744 932.508 757.946 Q928.445 757.123 923.817 752.495 Q919.176 747.855 918.366 743.804 Q917.556 739.728 920.637 736.647 Z" fill="#000000" fill-rule="nonzero" fill-opacity="1" /><path clip-path="url(#clip060)" d="M946.871 741.496 L949.461 738.906 L952.579 742.024 L949.989 744.614 L946.871 741.496 Z" fill="#000000" fill-rule="nonzero" fill-opacity="1" /><path clip-path="url(#clip060)" d="M957.674 736.168 L955.415 733.909 Q956.79 733.418 957.981 732.694 Q959.172 731.97 960.092 731.049 Q962.548 728.594 962.192 725.66 Q961.836 722.701 958.656 719.153 Q959 720.921 958.472 722.578 Q957.944 724.236 956.618 725.561 Q953.868 728.311 950.603 728.262 Q947.338 728.189 944.453 725.304 Q941.629 722.48 941.592 719.104 Q941.555 715.728 944.33 712.954 Q947.509 709.774 951.622 710.548 Q955.734 711.297 960.375 715.937 Q964.708 720.27 965.236 724.923 Q965.764 729.551 962.29 733.025 Q961.357 733.958 960.215 734.732 Q959.073 735.505 957.674 736.168 M954.838 723.462 Q956.508 721.793 956.336 719.681 Q956.176 717.557 954.188 715.569 Q952.211 713.592 950.087 713.433 Q947.964 713.249 946.294 714.918 Q944.625 716.588 944.796 718.724 Q944.968 720.835 946.945 722.812 Q948.933 724.8 951.045 724.972 Q953.169 725.132 954.838 723.462 Z" fill="#000000" fill-rule="nonzero" fill-opacity="1" /><path clip-path="url(#clip060)" d="M955.673 702.274 L965.408 692.539 L967.495 694.626 L960.031 702.09 L964.524 706.583 Q964.88 705.858 965.334 705.232 Q965.776 704.594 966.316 704.054 Q969.385 700.985 972.86 700.874 Q976.334 700.764 979.206 703.636 Q982.165 706.595 981.968 710.081 Q981.76 713.555 978.408 716.907 Q977.254 718.061 975.855 719.067 Q974.468 720.062 972.798 720.946 L970.306 718.454 Q972.012 717.95 973.486 717.066 Q974.959 716.183 976.272 714.869 Q978.396 712.745 978.519 710.388 Q978.642 708.031 976.726 706.116 Q974.811 704.201 972.454 704.324 Q970.097 704.447 967.974 706.57 Q966.979 707.565 966.206 708.78 Q965.445 709.983 964.88 711.481 L955.673 702.274 Z" fill="#000000" fill-rule="nonzero" fill-opacity="1" /><polyline clip-path="url(#clip060)" style="stroke:#000000; stroke-linecap:round; stroke-linejoin:round; stroke-width:4; stroke-opacity:1; fill:none" points="161.818,667.406 161.818,97.5521 "/>
<polyline clip-path="url(#clip060)" style="stroke:#000000; stroke-linecap:round; stroke-linejoin:round; stroke-width:4; stroke-opacity:1; fill:none" points="161.818,651.278 180.716,651.278 "/>
<polyline clip-path="url(#clip060)" style="stroke:#000000; stroke-linecap:round; stroke-linejoin:round; stroke-width:4; stroke-opacity:1; fill:none" points="161.818,516.341 180.716,516.341 "/>
<polyline clip-path="url(#clip060)" style="stroke:#000000; stroke-linecap:round; stroke-linejoin:round; stroke-width:4; stroke-opacity:1; fill:none" points="161.818,381.403 180.716,381.403 "/>
<polyline clip-path="url(#clip060)" style="stroke:#000000; stroke-linecap:round; stroke-linejoin:round; stroke-width:4; stroke-opacity:1; fill:none" points="161.818,246.465 180.716,246.465 "/>
<polyline clip-path="url(#clip060)" style="stroke:#000000; stroke-linecap:round; stroke-linejoin:round; stroke-width:4; stroke-opacity:1; fill:none" points="161.818,111.528 180.716,111.528 "/>
<path clip-path="url(#clip060)" d="M116.86 640.627 Q114.152 640.627 112.78 643.301 Q111.426 645.957 111.426 651.304 Q111.426 656.634 112.78 659.308 Q114.152 661.964 116.86 661.964 Q119.586 661.964 120.94 659.308 Q122.311 656.634 122.311 651.304 Q122.311 645.957 120.94 643.301 Q119.586 640.627 116.86 640.627 M116.86 637.85 Q121.217 637.85 123.509 641.305 Q125.818 644.742 125.818 651.304 Q125.818 657.85 123.509 661.304 Q121.217 664.742 116.86 664.742 Q112.502 664.742 110.193 661.304 Q107.902 657.85 107.902 651.304 Q107.902 644.742 110.193 641.305 Q112.502 637.85 116.86 637.85 Z" fill="#000000" fill-rule="nonzero" fill-opacity="1" /><path clip-path="url(#clip060)" d="M110.888 526.349 L116.617 526.349 L116.617 506.575 L110.384 507.825 L110.384 504.631 L116.582 503.381 L120.089 503.381 L120.089 526.349 L125.818 526.349 L125.818 529.301 L110.888 529.301 L110.888 526.349 Z" fill="#000000" fill-rule="nonzero" fill-opacity="1" /><path clip-path="url(#clip060)" d="M113.579 391.412 L125.818 391.412 L125.818 394.363 L109.36 394.363 L109.36 391.412 Q111.356 389.346 114.794 385.874 Q118.249 382.384 119.134 381.377 Q120.818 379.485 121.478 378.183 Q122.155 376.863 122.155 375.596 Q122.155 373.53 120.697 372.228 Q119.256 370.926 116.929 370.926 Q115.28 370.926 113.44 371.499 Q111.617 372.072 109.533 373.235 L109.533 369.693 Q111.652 368.842 113.492 368.408 Q115.332 367.974 116.86 367.974 Q120.888 367.974 123.283 369.988 Q125.679 372.002 125.679 375.37 Q125.679 376.967 125.072 378.408 Q124.481 379.832 122.901 381.776 Q122.467 382.28 120.141 384.693 Q117.815 387.089 113.579 391.412 Z" fill="#000000" fill-rule="nonzero" fill-opacity="1" /><path clip-path="url(#clip060)" d="M120.471 245.45 Q122.988 245.988 124.395 247.689 Q125.818 249.391 125.818 251.891 Q125.818 255.728 123.179 257.828 Q120.54 259.929 115.679 259.929 Q114.047 259.929 112.311 259.599 Q110.593 259.287 108.752 258.644 L108.752 255.259 Q110.211 256.11 111.947 256.544 Q113.683 256.978 115.575 256.978 Q118.874 256.978 120.592 255.676 Q122.329 254.373 122.329 251.891 Q122.329 249.599 120.714 248.314 Q119.117 247.012 116.252 247.012 L113.231 247.012 L113.231 244.13 L116.391 244.13 Q118.978 244.13 120.349 243.106 Q121.721 242.064 121.721 240.12 Q121.721 238.124 120.297 237.064 Q118.891 235.988 116.252 235.988 Q114.811 235.988 113.162 236.301 Q111.513 236.613 109.533 237.273 L109.533 234.148 Q111.53 233.592 113.266 233.315 Q115.02 233.037 116.565 233.037 Q120.558 233.037 122.884 234.86 Q125.21 236.665 125.21 239.755 Q125.21 241.908 123.978 243.401 Q122.745 244.877 120.471 245.45 Z" fill="#000000" fill-rule="nonzero" fill-opacity="1" /><path clip-path="url(#clip060)" d="M118.631 101.623 L109.777 115.46 L118.631 115.46 L118.631 101.623 M117.711 98.5678 L122.12 98.5678 L122.12 115.46 L125.818 115.46 L125.818 118.377 L122.12 118.377 L122.12 124.488 L118.631 124.488 L118.631 118.377 L106.929 118.377 L106.929 114.991 L117.711 98.5678 Z" fill="#000000" fill-rule="nonzero" fill-opacity="1" /><path clip-path="url(#clip060)" d="M163.901 20.1758 Q165.313 17.8147 168.809 15.7314 Q170.175 14.9212 174.387 14.9212 Q179.11 14.9212 182.049 18.6712 Q185.012 22.4212 185.012 28.5323 Q185.012 34.6433 182.049 38.3933 Q179.11 42.1433 174.387 42.1433 Q171.54 42.1433 169.48 41.0322 Q167.443 39.8979 166.1 37.5831 L166.1 51.3331 L161.818 51.3331 L161.818 28.7637 Q161.818 23.4165 163.901 20.1758 M180.591 28.5323 Q180.591 23.8332 178.647 21.1712 Q176.725 18.486 173.346 18.486 Q169.966 18.486 168.022 21.1712 Q166.1 23.8332 166.1 28.5323 Q166.1 33.2313 168.022 35.9165 Q169.966 38.5785 173.346 38.5785 Q176.725 38.5785 178.647 35.9165 Q180.591 33.2313 180.591 28.5323 Z" fill="#000000" fill-rule="nonzero" fill-opacity="1" /><polyline clip-path="url(#clip062)" style="stroke:#009af9; stroke-linecap:round; stroke-linejoin:round; stroke-width:4; stroke-opacity:1; fill:none" points="189.869,592.251 248.307,596.59 306.746,601.473 365.185,607.007 423.623,613.331 482.062,620.629 540.501,629.143 598.939,639.205 657.378,651.278 715.817,636.521 774.256,618.071 832.694,594.339 891.133,562.667 949.572,518.246 1008.01,451.395 1066.45,339.319 1124.89,113.68 "/>
<circle clip-path="url(#clip062)" cx="657.378" cy="651.278" r="10.8" fill="#ff0000" fill-rule="evenodd" fill-opacity="1" stroke="#000000" stroke-opacity="1" stroke-width="3.2"/>
<path clip-path="url(#clip060)" d="M1361.64 667.406 L2352.76 667.406 L2352.76 97.5521 L1361.64 97.5521  Z" fill="#ffffff" fill-rule="evenodd" fill-opacity="1"/>
<defs>
  <clipPath id="clip063">
    <rect x="1361" y="97" width="992" height="571"/>
  </clipPath>
</defs>
<polyline clip-path="url(#clip063)" style="stroke:#000000; stroke-linecap:round; stroke-linejoin:round; stroke-width:2; stroke-opacity:0.1; fill:none" points="1485.35,667.406 1485.35,97.5521 "/>
<polyline clip-path="url(#clip063)" style="stroke:#000000; stroke-linecap:round; stroke-linejoin:round; stroke-width:2; stroke-opacity:0.1; fill:none" points="1628.79,667.406 1628.79,97.5521 "/>
<polyline clip-path="url(#clip063)" style="stroke:#000000; stroke-linecap:round; stroke-linejoin:round; stroke-width:2; stroke-opacity:0.1; fill:none" points="1772.23,667.406 1772.23,97.5521 "/>
<polyline clip-path="url(#clip063)" style="stroke:#000000; stroke-linecap:round; stroke-linejoin:round; stroke-width:2; stroke-opacity:0.1; fill:none" points="1915.67,667.406 1915.67,97.5521 "/>
<polyline clip-path="url(#clip063)" style="stroke:#000000; stroke-linecap:round; stroke-linejoin:round; stroke-width:2; stroke-opacity:0.1; fill:none" points="2059.11,667.406 2059.11,97.5521 "/>
<polyline clip-path="url(#clip063)" style="stroke:#000000; stroke-linecap:round; stroke-linejoin:round; stroke-width:2; stroke-opacity:0.1; fill:none" points="2202.56,667.406 2202.56,97.5521 "/>
<polyline clip-path="url(#clip063)" style="stroke:#000000; stroke-linecap:round; stroke-linejoin:round; stroke-width:2; stroke-opacity:0.1; fill:none" points="2346,667.406 2346,97.5521 "/>
<polyline clip-path="url(#clip063)" style="stroke:#000000; stroke-linecap:round; stroke-linejoin:round; stroke-width:2; stroke-opacity:0.1; fill:none" points="1361.64,651.278 2352.76,651.278 "/>
<polyline clip-path="url(#clip063)" style="stroke:#000000; stroke-linecap:round; stroke-linejoin:round; stroke-width:2; stroke-opacity:0.1; fill:none" points="1361.64,508.27 2352.76,508.27 "/>
<polyline clip-path="url(#clip063)" style="stroke:#000000; stroke-linecap:round; stroke-linejoin:round; stroke-width:2; stroke-opacity:0.1; fill:none" points="1361.64,365.261 2352.76,365.261 "/>
<polyline clip-path="url(#clip063)" style="stroke:#000000; stroke-linecap:round; stroke-linejoin:round; stroke-width:2; stroke-opacity:0.1; fill:none" points="1361.64,222.252 2352.76,222.252 "/>
<polyline clip-path="url(#clip060)" style="stroke:#000000; stroke-linecap:round; stroke-linejoin:round; stroke-width:4; stroke-opacity:1; fill:none" points="1361.64,667.406 2352.76,667.406 "/>
<polyline clip-path="url(#clip060)" style="stroke:#000000; stroke-linecap:round; stroke-linejoin:round; stroke-width:4; stroke-opacity:1; fill:none" points="1485.35,667.406 1485.35,648.509 "/>
<polyline clip-path="url(#clip060)" style="stroke:#000000; stroke-linecap:round; stroke-linejoin:round; stroke-width:4; stroke-opacity:1; fill:none" points="1628.79,667.406 1628.79,648.509 "/>
<polyline clip-path="url(#clip060)" style="stroke:#000000; stroke-linecap:round; stroke-linejoin:round; stroke-width:4; stroke-opacity:1; fill:none" points="1772.23,667.406 1772.23,648.509 "/>
<polyline clip-path="url(#clip060)" style="stroke:#000000; stroke-linecap:round; stroke-linejoin:round; stroke-width:4; stroke-opacity:1; fill:none" points="1915.67,667.406 1915.67,648.509 "/>
<polyline clip-path="url(#clip060)" style="stroke:#000000; stroke-linecap:round; stroke-linejoin:round; stroke-width:4; stroke-opacity:1; fill:none" points="2059.11,667.406 2059.11,648.509 "/>
<polyline clip-path="url(#clip060)" style="stroke:#000000; stroke-linecap:round; stroke-linejoin:round; stroke-width:4; stroke-opacity:1; fill:none" points="2202.56,667.406 2202.56,648.509 "/>
<polyline clip-path="url(#clip060)" style="stroke:#000000; stroke-linecap:round; stroke-linejoin:round; stroke-width:4; stroke-opacity:1; fill:none" points="2346,667.406 2346,648.509 "/>
<path clip-path="url(#clip060)" d="M1431.5 739.139 Q1429.58 741.054 1430.5 743.914 Q1431.43 746.75 1435.21 750.531 Q1438.98 754.3 1441.82 755.233 Q1444.67 756.141 1446.59 754.226 Q1448.51 752.299 1447.59 749.463 Q1446.67 746.603 1442.9 742.834 Q1439.12 739.053 1436.27 738.144 Q1433.43 737.211 1431.5 739.139 M1429.54 737.175 Q1432.62 734.093 1436.68 734.916 Q1440.74 735.714 1445.38 740.354 Q1450.01 744.982 1450.82 749.058 Q1451.63 753.109 1448.55 756.19 Q1445.47 759.272 1441.41 758.474 Q1437.34 757.651 1432.71 753.023 Q1428.07 748.383 1427.26 744.332 Q1426.45 740.256 1429.54 737.175 Z" fill="#000000" fill-rule="nonzero" fill-opacity="1" /><path clip-path="url(#clip060)" d="M1455.77 742.024 L1458.36 739.433 L1461.48 742.552 L1458.89 745.142 L1455.77 742.024 Z" fill="#000000" fill-rule="nonzero" fill-opacity="1" /><path clip-path="url(#clip060)" d="M1464.51 719.755 Q1466.67 718.355 1468.87 718.564 Q1471.08 718.761 1472.85 720.528 Q1475.56 723.241 1475.18 726.593 Q1474.8 729.944 1471.36 733.381 Q1470.21 734.535 1468.74 735.53 Q1467.31 736.524 1465.55 737.371 L1463.16 734.977 Q1464.79 734.548 1466.33 733.627 Q1467.86 732.706 1469.2 731.368 Q1471.53 729.036 1471.83 726.9 Q1472.13 724.751 1470.38 722.996 Q1468.76 721.375 1466.71 721.609 Q1464.66 721.817 1462.63 723.843 L1460.5 725.979 L1458.46 723.941 L1460.69 721.707 Q1462.52 719.878 1462.77 718.184 Q1463 716.477 1461.62 715.102 Q1460.21 713.69 1458.46 713.948 Q1456.7 714.182 1454.84 716.047 Q1453.82 717.066 1452.87 718.454 Q1451.93 719.841 1450.99 721.707 L1448.78 719.497 Q1449.8 717.692 1450.83 716.268 Q1451.88 714.832 1452.97 713.74 Q1455.79 710.916 1458.73 710.56 Q1461.65 710.192 1463.83 712.377 Q1465.36 713.899 1465.54 715.827 Q1465.71 717.742 1464.51 719.755 Z" fill="#000000" fill-rule="nonzero" fill-opacity="1" /><path clip-path="url(#clip060)" d="M1471.48 699.156 Q1469.57 701.071 1470.49 703.931 Q1471.41 706.767 1475.19 710.548 Q1478.96 714.317 1481.81 715.25 Q1484.65 716.158 1486.57 714.243 Q1488.5 712.316 1487.58 709.48 Q1486.66 706.619 1482.89 702.851 Q1479.11 699.07 1476.26 698.161 Q1473.41 697.228 1471.48 699.156 M1469.52 697.191 Q1472.6 694.11 1476.66 694.933 Q1480.73 695.731 1485.37 700.371 Q1489.99 704.999 1490.81 709.075 Q1491.62 713.126 1488.53 716.207 Q1485.45 719.288 1481.39 718.49 Q1477.33 717.668 1472.7 713.04 Q1468.06 708.399 1467.25 704.348 Q1466.44 700.273 1469.52 697.191 Z" fill="#000000" fill-rule="nonzero" fill-opacity="1" /><path clip-path="url(#clip060)" d="M1575.59 738.488 Q1573.68 740.403 1574.6 743.264 Q1575.52 746.099 1579.3 749.88 Q1583.07 753.649 1585.92 754.582 Q1588.76 755.491 1590.68 753.576 Q1592.61 751.648 1591.69 748.812 Q1590.76 745.952 1587 742.183 Q1583.21 738.402 1580.37 737.494 Q1577.52 736.561 1575.59 738.488 M1573.63 736.524 Q1576.71 733.443 1580.77 734.265 Q1584.84 735.063 1589.48 739.704 Q1594.1 744.332 1594.91 748.407 Q1595.72 752.458 1592.64 755.54 Q1589.56 758.621 1585.5 757.823 Q1581.43 757.001 1576.81 752.372 Q1572.17 747.732 1571.36 743.681 Q1570.55 739.605 1573.63 736.524 Z" fill="#000000" fill-rule="nonzero" fill-opacity="1" /><path clip-path="url(#clip060)" d="M1599.86 741.373 L1602.45 738.783 L1605.57 741.901 L1602.98 744.491 L1599.86 741.373 Z" fill="#000000" fill-rule="nonzero" fill-opacity="1" /><path clip-path="url(#clip060)" d="M1608.6 719.104 Q1610.76 717.705 1612.96 717.913 Q1615.17 718.11 1616.94 719.878 Q1619.65 722.591 1619.27 725.942 Q1618.89 729.293 1615.45 732.731 Q1614.3 733.885 1612.84 734.879 Q1611.4 735.873 1609.65 736.72 L1607.25 734.327 Q1608.88 733.897 1610.42 732.976 Q1611.95 732.056 1613.29 730.717 Q1615.62 728.385 1615.92 726.249 Q1616.23 724.101 1614.47 722.345 Q1612.85 720.725 1610.8 720.958 Q1608.75 721.167 1606.72 723.192 L1604.59 725.328 L1602.55 723.29 L1604.78 721.056 Q1606.61 719.227 1606.86 717.533 Q1607.09 715.827 1605.72 714.452 Q1604.31 713.04 1602.55 713.298 Q1600.79 713.531 1598.93 715.397 Q1597.91 716.416 1596.96 717.803 Q1596.02 719.19 1595.09 721.056 L1592.88 718.846 Q1593.9 717.042 1594.93 715.618 Q1595.97 714.182 1597.06 713.089 Q1599.89 710.265 1602.82 709.909 Q1605.74 709.541 1607.93 711.726 Q1609.45 713.249 1609.63 715.176 Q1609.8 717.091 1608.6 719.104 Z" fill="#000000" fill-rule="nonzero" fill-opacity="1" /><path clip-path="url(#clip060)" d="M1625.31 717.987 L1629.36 713.936 L1615.38 699.954 L1611.85 705.245 L1609.6 702.986 L1613.09 697.719 L1615.57 695.24 L1631.82 711.481 L1635.87 707.43 L1637.95 709.517 L1627.4 720.074 L1625.31 717.987 Z" fill="#000000" fill-rule="nonzero" fill-opacity="1" /><path clip-path="url(#clip060)" d="M1719.23 738.292 Q1717.31 740.207 1718.24 743.067 Q1719.16 745.903 1722.94 749.684 Q1726.71 753.453 1729.55 754.386 Q1732.4 755.294 1734.32 753.379 Q1736.24 751.452 1735.32 748.616 Q1734.4 745.756 1730.63 741.987 Q1726.85 738.206 1724 737.297 Q1721.16 736.364 1719.23 738.292 M1717.27 736.328 Q1720.35 733.246 1724.41 734.069 Q1728.47 734.867 1733.11 739.507 Q1737.74 744.135 1738.55 748.211 Q1739.36 752.262 1736.28 755.343 Q1733.2 758.425 1729.14 757.627 Q1725.07 756.804 1720.44 752.176 Q1715.8 747.536 1714.99 743.485 Q1714.18 739.409 1717.27 736.328 Z" fill="#000000" fill-rule="nonzero" fill-opacity="1" /><path clip-path="url(#clip060)" d="M1743.5 741.177 L1746.09 738.586 L1749.21 741.705 L1746.62 744.295 L1743.5 741.177 Z" fill="#000000" fill-rule="nonzero" fill-opacity="1" /><path clip-path="url(#clip060)" d="M1752.24 718.908 Q1754.4 717.508 1756.6 717.717 Q1758.81 717.913 1760.58 719.681 Q1763.29 722.394 1762.91 725.746 Q1762.53 729.097 1759.09 732.534 Q1757.94 733.688 1756.48 734.683 Q1755.04 735.677 1753.28 736.524 L1750.89 734.13 Q1752.52 733.701 1754.06 732.78 Q1755.59 731.859 1756.93 730.521 Q1759.26 728.189 1759.56 726.053 Q1759.86 723.904 1758.11 722.149 Q1756.49 720.528 1754.44 720.762 Q1752.39 720.97 1750.36 722.996 L1748.23 725.132 L1746.19 723.094 L1748.42 720.86 Q1750.25 719.031 1750.5 717.336 Q1750.73 715.63 1749.35 714.255 Q1747.94 712.843 1746.19 713.101 Q1744.43 713.334 1742.57 715.2 Q1741.55 716.219 1740.6 717.607 Q1739.66 718.994 1738.72 720.86 L1736.51 718.65 Q1737.53 716.845 1738.56 715.421 Q1739.61 713.985 1740.7 712.893 Q1743.52 710.069 1746.46 709.713 Q1749.38 709.345 1751.56 711.53 Q1753.09 713.052 1753.27 714.979 Q1753.44 716.895 1752.24 718.908 Z" fill="#000000" fill-rule="nonzero" fill-opacity="1" /><path clip-path="url(#clip060)" d="M1770.65 716.084 L1779.31 707.43 L1781.4 709.517 L1769.76 721.154 L1767.67 719.067 Q1767.62 716.195 1767.6 711.309 Q1767.57 706.398 1767.49 705.06 Q1767.34 702.532 1766.89 701.144 Q1766.43 699.733 1765.53 698.836 Q1764.07 697.376 1762.12 697.486 Q1760.18 697.584 1758.54 699.229 Q1757.37 700.395 1756.48 702.102 Q1755.59 703.796 1754.94 706.092 L1752.44 703.587 Q1753.33 701.488 1754.33 699.88 Q1755.32 698.272 1756.4 697.191 Q1759.25 694.343 1762.37 694.073 Q1765.49 693.803 1767.87 696.185 Q1769 697.314 1769.59 698.763 Q1770.18 700.187 1770.43 702.679 Q1770.48 703.342 1770.54 706.693 Q1770.59 710.032 1770.65 716.084 Z" fill="#000000" fill-rule="nonzero" fill-opacity="1" /><path clip-path="url(#clip060)" d="M1862.17 738.795 Q1860.25 740.71 1861.17 743.571 Q1862.09 746.406 1865.88 750.187 Q1869.64 753.956 1872.49 754.889 Q1875.34 755.797 1877.25 753.882 Q1879.18 751.955 1878.26 749.119 Q1877.34 746.259 1873.57 742.49 Q1869.79 738.709 1866.94 737.801 Q1864.1 736.868 1862.17 738.795 M1860.2 736.831 Q1863.28 733.75 1867.35 734.572 Q1871.41 735.37 1876.05 740.01 Q1880.68 744.639 1881.49 748.714 Q1882.3 752.765 1879.22 755.847 Q1876.14 758.928 1872.07 758.13 Q1868.01 757.307 1863.38 752.679 Q1858.74 748.039 1857.93 743.988 Q1857.12 739.912 1860.2 736.831 Z" fill="#000000" fill-rule="nonzero" fill-opacity="1" /><path clip-path="url(#clip060)" d="M1886.44 741.68 L1889.03 739.09 L1892.15 742.208 L1889.56 744.798 L1886.44 741.68 Z" fill="#000000" fill-rule="nonzero" fill-opacity="1" /><path clip-path="url(#clip060)" d="M1895.18 719.411 Q1897.34 718.012 1899.54 718.22 Q1901.75 718.417 1903.51 720.185 Q1906.23 722.898 1905.85 726.249 Q1905.47 729.6 1902.03 733.038 Q1900.87 734.192 1899.41 735.186 Q1897.98 736.18 1896.22 737.027 L1893.83 734.634 Q1895.46 734.204 1896.99 733.283 Q1898.53 732.362 1899.87 731.024 Q1902.2 728.692 1902.49 726.556 Q1902.8 724.408 1901.05 722.652 Q1899.43 721.032 1897.38 721.265 Q1895.33 721.474 1893.3 723.499 L1891.16 725.635 L1889.13 723.597 L1891.36 721.363 Q1893.19 719.534 1893.43 717.84 Q1893.67 716.133 1892.29 714.759 Q1890.88 713.347 1889.13 713.605 Q1887.37 713.838 1885.5 715.704 Q1884.49 716.723 1883.54 718.11 Q1882.6 719.497 1881.66 721.363 L1879.45 719.153 Q1880.47 717.349 1881.5 715.925 Q1882.55 714.488 1883.64 713.396 Q1886.46 710.572 1889.4 710.216 Q1892.32 709.848 1894.5 712.033 Q1896.03 713.555 1896.21 715.483 Q1896.38 717.398 1895.18 719.411 Z" fill="#000000" fill-rule="nonzero" fill-opacity="1" /><path clip-path="url(#clip060)" d="M1911.17 703.415 Q1913.33 702.016 1915.53 702.225 Q1917.74 702.421 1919.51 704.189 Q1922.22 706.902 1921.84 710.253 Q1921.46 713.605 1918.02 717.042 Q1916.87 718.196 1915.41 719.19 Q1913.97 720.185 1912.22 721.032 L1909.82 718.638 Q1911.46 718.208 1912.99 717.287 Q1914.53 716.367 1915.86 715.029 Q1918.2 712.696 1918.49 710.56 Q1918.8 708.412 1917.04 706.656 Q1915.42 705.036 1913.37 705.269 Q1911.32 705.478 1909.3 707.503 L1907.16 709.639 L1905.12 707.602 L1907.36 705.367 Q1909.19 703.538 1909.43 701.844 Q1909.66 700.138 1908.29 698.763 Q1906.88 697.351 1905.12 697.609 Q1903.37 697.842 1901.5 699.708 Q1900.48 700.727 1899.54 702.114 Q1898.59 703.501 1897.66 705.367 L1895.45 703.158 Q1896.47 701.353 1897.5 699.929 Q1898.54 698.493 1899.63 697.4 Q1902.46 694.577 1905.39 694.221 Q1908.31 693.852 1910.5 696.037 Q1912.02 697.56 1912.21 699.487 Q1912.38 701.402 1911.17 703.415 Z" fill="#000000" fill-rule="nonzero" fill-opacity="1" /><path clip-path="url(#clip060)" d="M2005.01 739.397 Q2003.09 741.312 2004.01 744.172 Q2004.93 747.008 2008.72 750.789 Q2012.48 754.558 2015.33 755.491 Q2018.18 756.399 2020.1 754.484 Q2022.02 752.557 2021.1 749.721 Q2020.18 746.86 2016.41 743.092 Q2012.63 739.311 2009.78 738.402 Q2006.94 737.469 2005.01 739.397 M2003.04 737.432 Q2006.12 734.351 2010.19 735.174 Q2014.25 735.972 2018.89 740.612 Q2023.52 745.24 2024.33 749.316 Q2025.14 753.367 2022.06 756.448 Q2018.98 759.529 2014.91 758.731 Q2010.85 757.909 2006.22 753.281 Q2001.58 748.641 2000.77 744.589 Q1999.96 740.514 2003.04 737.432 Z" fill="#000000" fill-rule="nonzero" fill-opacity="1" /><path clip-path="url(#clip060)" d="M2029.28 742.282 L2031.87 739.691 L2034.99 742.809 L2032.4 745.4 L2029.28 742.282 Z" fill="#000000" fill-rule="nonzero" fill-opacity="1" /><path clip-path="url(#clip060)" d="M2038.02 720.013 Q2040.18 718.613 2042.38 718.822 Q2044.59 719.018 2046.35 720.786 Q2049.07 723.499 2048.69 726.85 Q2048.31 730.202 2044.87 733.639 Q2043.71 734.793 2042.25 735.787 Q2040.82 736.782 2039.06 737.629 L2036.67 735.235 Q2038.3 734.805 2039.83 733.885 Q2041.37 732.964 2042.71 731.626 Q2045.04 729.293 2045.33 727.157 Q2045.64 725.009 2043.89 723.254 Q2042.27 721.633 2040.22 721.866 Q2038.17 722.075 2036.14 724.101 L2034 726.237 L2031.97 724.199 L2034.2 721.965 Q2036.03 720.135 2036.27 718.441 Q2036.51 716.735 2035.13 715.36 Q2033.72 713.948 2031.97 714.206 Q2030.21 714.439 2028.34 716.305 Q2027.33 717.324 2026.38 718.711 Q2025.44 720.099 2024.5 721.965 L2022.29 719.755 Q2023.31 717.95 2024.34 716.526 Q2025.39 715.09 2026.48 713.997 Q2029.3 711.174 2032.24 710.818 Q2035.16 710.45 2037.34 712.635 Q2038.87 714.157 2039.05 716.084 Q2039.22 717.999 2038.02 720.013 Z" fill="#000000" fill-rule="nonzero" fill-opacity="1" /><path clip-path="url(#clip060)" d="M2047.03 698.431 L2050.55 714.476 L2056.81 708.215 L2047.03 698.431 M2044.22 696.921 L2047.34 693.803 L2059.28 705.748 L2061.9 703.133 L2063.96 705.195 L2061.34 707.81 L2065.66 712.131 L2063.2 714.599 L2058.88 710.278 L2050.6 718.552 L2048.21 716.158 L2044.22 696.921 Z" fill="#000000" fill-rule="nonzero" fill-opacity="1" /><path clip-path="url(#clip060)" d="M2149.23 738.611 Q2147.32 740.526 2148.24 743.386 Q2149.16 746.222 2152.94 750.003 Q2156.71 753.772 2159.56 754.705 Q2162.41 755.613 2164.32 753.698 Q2166.25 751.771 2165.33 748.935 Q2164.41 746.075 2160.64 742.306 Q2156.86 738.525 2154.01 737.617 Q2151.16 736.684 2149.23 738.611 M2147.27 736.647 Q2150.35 733.565 2154.42 734.388 Q2158.48 735.186 2163.12 739.826 Q2167.75 744.454 2168.56 748.53 Q2169.37 752.581 2166.29 755.662 Q2163.21 758.744 2159.14 757.946 Q2155.08 757.123 2150.45 752.495 Q2145.81 747.855 2145 743.804 Q2144.19 739.728 2147.27 736.647 Z" fill="#000000" fill-rule="nonzero" fill-opacity="1" /><path clip-path="url(#clip060)" d="M2173.5 741.496 L2176.1 738.906 L2179.21 742.024 L2176.62 744.614 L2173.5 741.496 Z" fill="#000000" fill-rule="nonzero" fill-opacity="1" /><path clip-path="url(#clip060)" d="M2182.25 719.227 Q2184.41 717.828 2186.6 718.036 Q2188.81 718.233 2190.58 720 Q2193.29 722.713 2192.91 726.065 Q2192.53 729.416 2189.1 732.853 Q2187.94 734.007 2186.48 735.002 Q2185.04 735.996 2183.29 736.843 L2180.89 734.449 Q2182.53 734.02 2184.06 733.099 Q2185.6 732.178 2186.93 730.84 Q2189.27 728.508 2189.56 726.372 Q2189.87 724.223 2188.11 722.468 Q2186.49 720.847 2184.44 721.081 Q2182.39 721.289 2180.37 723.315 L2178.23 725.451 L2176.19 723.413 L2178.43 721.179 Q2180.26 719.35 2180.5 717.656 Q2180.74 715.949 2179.36 714.574 Q2177.95 713.163 2176.19 713.42 Q2174.44 713.654 2172.57 715.52 Q2171.55 716.539 2170.61 717.926 Q2169.66 719.313 2168.73 721.179 L2166.52 718.969 Q2167.54 717.165 2168.57 715.741 Q2169.61 714.304 2170.71 713.212 Q2173.53 710.388 2176.46 710.032 Q2179.39 709.664 2181.57 711.849 Q2183.09 713.371 2183.28 715.299 Q2183.45 717.214 2182.25 719.227 Z" fill="#000000" fill-rule="nonzero" fill-opacity="1" /><path clip-path="url(#clip060)" d="M2182.31 702.274 L2192.04 692.539 L2194.13 694.626 L2186.66 702.09 L2191.16 706.583 Q2191.51 705.858 2191.97 705.232 Q2192.41 704.594 2192.95 704.054 Q2196.02 700.985 2199.49 700.874 Q2202.97 700.764 2205.84 703.636 Q2208.8 706.595 2208.6 710.081 Q2208.39 713.555 2205.04 716.907 Q2203.89 718.061 2202.49 719.067 Q2201.1 720.062 2199.43 720.946 L2196.94 718.454 Q2198.65 717.95 2200.12 717.066 Q2201.59 716.183 2202.91 714.869 Q2205.03 712.745 2205.15 710.388 Q2205.28 708.031 2203.36 706.116 Q2201.45 704.201 2199.09 704.324 Q2196.73 704.447 2194.61 706.57 Q2193.61 707.565 2192.84 708.78 Q2192.08 709.983 2191.51 711.481 L2182.31 702.274 Z" fill="#000000" fill-rule="nonzero" fill-opacity="1" /><path clip-path="url(#clip060)" d="M2292.06 739.225 Q2290.15 741.14 2291.07 744 Q2291.99 746.836 2295.77 750.617 Q2299.54 754.386 2302.39 755.319 Q2305.23 756.227 2307.15 754.312 Q2309.08 752.385 2308.16 749.549 Q2307.24 746.689 2303.47 742.92 Q2299.69 739.139 2296.84 738.23 Q2293.99 737.297 2292.06 739.225 M2290.1 737.261 Q2293.18 734.179 2297.24 735.002 Q2301.31 735.8 2305.95 740.44 Q2310.58 745.068 2311.39 749.144 Q2312.2 753.195 2309.11 756.276 Q2306.03 759.358 2301.97 758.56 Q2297.91 757.737 2293.28 753.109 Q2288.64 748.469 2287.83 744.418 Q2287.02 740.342 2290.1 737.261 Z" fill="#000000" fill-rule="nonzero" fill-opacity="1" /><path clip-path="url(#clip060)" d="M2316.33 742.11 L2318.92 739.519 L2322.04 742.638 L2319.45 745.228 L2316.33 742.11 Z" fill="#000000" fill-rule="nonzero" fill-opacity="1" /><path clip-path="url(#clip060)" d="M2325.07 719.841 Q2327.23 718.441 2329.43 718.65 Q2331.64 718.846 2333.41 720.614 Q2336.12 723.327 2335.74 726.679 Q2335.36 730.03 2331.92 733.467 Q2330.77 734.621 2329.31 735.616 Q2327.87 736.61 2326.12 737.457 L2323.72 735.063 Q2325.36 734.634 2326.89 733.713 Q2328.42 732.792 2329.76 731.454 Q2332.1 729.122 2332.39 726.985 Q2332.7 724.837 2330.94 723.082 Q2329.32 721.461 2327.27 721.695 Q2325.22 721.903 2323.19 723.929 L2321.06 726.065 L2319.02 724.027 L2321.26 721.793 Q2323.08 719.964 2323.33 718.269 Q2323.56 716.563 2322.19 715.188 Q2320.78 713.776 2319.02 714.034 Q2317.27 714.267 2315.4 716.133 Q2314.38 717.152 2313.44 718.54 Q2312.49 719.927 2311.56 721.793 L2309.35 719.583 Q2310.37 717.778 2311.4 716.354 Q2312.44 714.918 2313.53 713.826 Q2316.36 711.002 2319.29 710.646 Q2322.21 710.278 2324.4 712.463 Q2325.92 713.985 2326.1 715.912 Q2326.28 717.828 2325.07 719.841 Z" fill="#000000" fill-rule="nonzero" fill-opacity="1" /><path clip-path="url(#clip060)" d="M2338.9 705.478 Q2337.23 707.147 2337.39 709.271 Q2337.56 711.383 2339.55 713.371 Q2341.52 715.348 2343.65 715.532 Q2345.77 715.691 2347.44 714.022 Q2349.11 712.352 2348.94 710.241 Q2348.77 708.105 2346.79 706.128 Q2344.8 704.14 2342.68 703.98 Q2340.57 703.808 2338.9 705.478 M2336.05 692.784 L2338.31 695.043 Q2336.93 695.534 2335.74 696.258 Q2334.56 696.97 2333.63 697.903 Q2331.17 700.359 2331.53 703.317 Q2331.9 706.263 2335.07 709.799 Q2334.72 708.007 2335.25 706.349 Q2335.77 704.68 2337.08 703.366 Q2339.84 700.604 2343.12 700.69 Q2346.4 700.751 2349.28 703.636 Q2352.11 706.46 2352.14 709.836 Q2352.18 713.212 2349.4 715.986 Q2346.22 719.166 2342.11 718.417 Q2337.99 717.656 2333.36 713.028 Q2329.01 708.682 2328.5 704.041 Q2327.97 699.389 2331.44 695.915 Q2332.38 694.982 2333.51 694.221 Q2334.65 693.447 2336.05 692.784 Z" fill="#000000" fill-rule="nonzero" fill-opacity="1" /><polyline clip-path="url(#clip060)" style="stroke:#000000; stroke-linecap:round; stroke-linejoin:round; stroke-width:4; stroke-opacity:1; fill:none" points="1361.64,667.406 1361.64,97.5521 "/>
<polyline clip-path="url(#clip060)" style="stroke:#000000; stroke-linecap:round; stroke-linejoin:round; stroke-width:4; stroke-opacity:1; fill:none" points="1361.64,651.278 1380.53,651.278 "/>
<polyline clip-path="url(#clip060)" style="stroke:#000000; stroke-linecap:round; stroke-linejoin:round; stroke-width:4; stroke-opacity:1; fill:none" points="1361.64,508.27 1380.53,508.27 "/>
<polyline clip-path="url(#clip060)" style="stroke:#000000; stroke-linecap:round; stroke-linejoin:round; stroke-width:4; stroke-opacity:1; fill:none" points="1361.64,365.261 1380.53,365.261 "/>
<polyline clip-path="url(#clip060)" style="stroke:#000000; stroke-linecap:round; stroke-linejoin:round; stroke-width:4; stroke-opacity:1; fill:none" points="1361.64,222.252 1380.53,222.252 "/>
<path clip-path="url(#clip060)" d="M1260.13 640.627 Q1257.42 640.627 1256.05 643.301 Q1254.7 645.957 1254.7 651.304 Q1254.7 656.634 1256.05 659.308 Q1257.42 661.964 1260.13 661.964 Q1262.86 661.964 1264.21 659.308 Q1265.58 656.634 1265.58 651.304 Q1265.58 645.957 1264.21 643.301 Q1262.86 640.627 1260.13 640.627 M1260.13 637.85 Q1264.49 637.85 1266.78 641.305 Q1269.09 644.742 1269.09 651.304 Q1269.09 657.85 1266.78 661.304 Q1264.49 664.742 1260.13 664.742 Q1255.78 664.742 1253.47 661.304 Q1251.17 657.85 1251.17 651.304 Q1251.17 644.742 1253.47 641.305 Q1255.78 637.85 1260.13 637.85 Z" fill="#000000" fill-rule="nonzero" fill-opacity="1" /><path clip-path="url(#clip060)" d="M1275.25 659.829 L1278.92 659.829 L1278.92 664.238 L1275.25 664.238 L1275.25 659.829 Z" fill="#000000" fill-rule="nonzero" fill-opacity="1" /><path clip-path="url(#clip060)" d="M1294.06 640.627 Q1291.35 640.627 1289.98 643.301 Q1288.62 645.957 1288.62 651.304 Q1288.62 656.634 1289.98 659.308 Q1291.35 661.964 1294.06 661.964 Q1296.78 661.964 1298.14 659.308 Q1299.51 656.634 1299.51 651.304 Q1299.51 645.957 1298.14 643.301 Q1296.78 640.627 1294.06 640.627 M1294.06 637.85 Q1298.41 637.85 1300.71 641.305 Q1303.01 644.742 1303.01 651.304 Q1303.01 657.85 1300.71 661.304 Q1298.41 664.742 1294.06 664.742 Q1289.7 664.742 1287.39 661.304 Q1285.1 657.85 1285.1 651.304 Q1285.1 644.742 1287.39 641.305 Q1289.7 637.85 1294.06 637.85 Z" fill="#000000" fill-rule="nonzero" fill-opacity="1" /><path clip-path="url(#clip060)" d="M1316.68 640.627 Q1313.97 640.627 1312.6 643.301 Q1311.24 645.957 1311.24 651.304 Q1311.24 656.634 1312.6 659.308 Q1313.97 661.964 1316.68 661.964 Q1319.4 661.964 1320.76 659.308 Q1322.13 656.634 1322.13 651.304 Q1322.13 645.957 1320.76 643.301 Q1319.4 640.627 1316.68 640.627 M1316.68 637.85 Q1321.04 637.85 1323.33 641.305 Q1325.64 644.742 1325.64 651.304 Q1325.64 657.85 1323.33 661.304 Q1321.04 664.742 1316.68 664.742 Q1312.32 664.742 1310.01 661.304 Q1307.72 657.85 1307.72 651.304 Q1307.72 644.742 1310.01 641.305 Q1312.32 637.85 1316.68 637.85 Z" fill="#000000" fill-rule="nonzero" fill-opacity="1" /><path clip-path="url(#clip060)" d="M1260.88 497.619 Q1258.17 497.619 1256.8 500.292 Q1255.45 502.949 1255.45 508.296 Q1255.45 513.626 1256.8 516.299 Q1258.17 518.955 1260.88 518.955 Q1263.6 518.955 1264.96 516.299 Q1266.33 513.626 1266.33 508.296 Q1266.33 502.949 1264.96 500.292 Q1263.6 497.619 1260.88 497.619 M1260.88 494.841 Q1265.24 494.841 1267.53 498.296 Q1269.84 501.733 1269.84 508.296 Q1269.84 514.841 1267.53 518.296 Q1265.24 521.733 1260.88 521.733 Q1256.52 521.733 1254.21 518.296 Q1251.92 514.841 1251.92 508.296 Q1251.92 501.733 1254.21 498.296 Q1256.52 494.841 1260.88 494.841 Z" fill="#000000" fill-rule="nonzero" fill-opacity="1" /><path clip-path="url(#clip060)" d="M1276 516.82 L1279.66 516.82 L1279.66 521.23 L1276 521.23 L1276 516.82 Z" fill="#000000" fill-rule="nonzero" fill-opacity="1" /><path clip-path="url(#clip060)" d="M1294.8 497.619 Q1292.09 497.619 1290.72 500.292 Q1289.37 502.949 1289.37 508.296 Q1289.37 513.626 1290.72 516.299 Q1292.09 518.955 1294.8 518.955 Q1297.53 518.955 1298.88 516.299 Q1300.25 513.626 1300.25 508.296 Q1300.25 502.949 1298.88 500.292 Q1297.53 497.619 1294.8 497.619 M1294.8 494.841 Q1299.16 494.841 1301.45 498.296 Q1303.76 501.733 1303.76 508.296 Q1303.76 514.841 1301.45 518.296 Q1299.16 521.733 1294.8 521.733 Q1290.45 521.733 1288.14 518.296 Q1285.84 514.841 1285.84 508.296 Q1285.84 501.733 1288.14 498.296 Q1290.45 494.841 1294.8 494.841 Z" fill="#000000" fill-rule="nonzero" fill-opacity="1" /><path clip-path="url(#clip060)" d="M1309.96 495.31 L1323.73 495.31 L1323.73 498.261 L1313.17 498.261 L1313.17 504.615 Q1313.93 504.355 1314.7 504.233 Q1315.46 504.094 1316.23 504.094 Q1320.57 504.094 1323.1 506.473 Q1325.64 508.851 1325.64 512.914 Q1325.64 517.098 1323.03 519.424 Q1320.43 521.733 1315.69 521.733 Q1314.06 521.733 1312.35 521.455 Q1310.67 521.178 1308.87 520.622 L1308.87 517.098 Q1310.43 517.949 1312.09 518.365 Q1313.76 518.782 1315.62 518.782 Q1318.62 518.782 1320.38 517.202 Q1322.13 515.622 1322.13 512.914 Q1322.13 510.205 1320.38 508.626 Q1318.62 507.046 1315.62 507.046 Q1314.21 507.046 1312.81 507.358 Q1311.42 507.671 1309.96 508.331 L1309.96 495.31 Z" fill="#000000" fill-rule="nonzero" fill-opacity="1" /><path clip-path="url(#clip060)" d="M1260.13 354.61 Q1257.42 354.61 1256.05 357.284 Q1254.7 359.94 1254.7 365.287 Q1254.7 370.617 1256.05 373.291 Q1257.42 375.947 1260.13 375.947 Q1262.86 375.947 1264.21 373.291 Q1265.58 370.617 1265.58 365.287 Q1265.58 359.94 1264.21 357.284 Q1262.86 354.61 1260.13 354.61 M1260.13 351.832 Q1264.49 351.832 1266.78 355.287 Q1269.09 358.725 1269.09 365.287 Q1269.09 371.832 1266.78 375.287 Q1264.49 378.725 1260.13 378.725 Q1255.78 378.725 1253.47 375.287 Q1251.17 371.832 1251.17 365.287 Q1251.17 358.725 1253.47 355.287 Q1255.78 351.832 1260.13 351.832 Z" fill="#000000" fill-rule="nonzero" fill-opacity="1" /><path clip-path="url(#clip060)" d="M1275.25 373.811 L1278.92 373.811 L1278.92 378.221 L1275.25 378.221 L1275.25 373.811 Z" fill="#000000" fill-rule="nonzero" fill-opacity="1" /><path clip-path="url(#clip060)" d="M1287.16 375.27 L1292.89 375.27 L1292.89 355.495 L1286.66 356.745 L1286.66 353.551 L1292.86 352.301 L1296.37 352.301 L1296.37 375.27 L1302.09 375.27 L1302.09 378.221 L1287.16 378.221 L1287.16 375.27 Z" fill="#000000" fill-rule="nonzero" fill-opacity="1" /><path clip-path="url(#clip060)" d="M1316.68 354.61 Q1313.97 354.61 1312.6 357.284 Q1311.24 359.94 1311.24 365.287 Q1311.24 370.617 1312.6 373.291 Q1313.97 375.947 1316.68 375.947 Q1319.4 375.947 1320.76 373.291 Q1322.13 370.617 1322.13 365.287 Q1322.13 359.94 1320.76 357.284 Q1319.4 354.61 1316.68 354.61 M1316.68 351.832 Q1321.04 351.832 1323.33 355.287 Q1325.64 358.725 1325.64 365.287 Q1325.64 371.832 1323.33 375.287 Q1321.04 378.725 1316.68 378.725 Q1312.32 378.725 1310.01 375.287 Q1307.72 371.832 1307.72 365.287 Q1307.72 358.725 1310.01 355.287 Q1312.32 351.832 1316.68 351.832 Z" fill="#000000" fill-rule="nonzero" fill-opacity="1" /><path clip-path="url(#clip060)" d="M1260.88 211.601 Q1258.17 211.601 1256.8 214.275 Q1255.45 216.931 1255.45 222.278 Q1255.45 227.608 1256.8 230.282 Q1258.17 232.938 1260.88 232.938 Q1263.6 232.938 1264.96 230.282 Q1266.33 227.608 1266.33 222.278 Q1266.33 216.931 1264.96 214.275 Q1263.6 211.601 1260.88 211.601 M1260.88 208.824 Q1265.24 208.824 1267.53 212.278 Q1269.84 215.716 1269.84 222.278 Q1269.84 228.823 1267.53 232.278 Q1265.24 235.716 1260.88 235.716 Q1256.52 235.716 1254.21 232.278 Q1251.92 228.823 1251.92 222.278 Q1251.92 215.716 1254.21 212.278 Q1256.52 208.824 1260.88 208.824 Z" fill="#000000" fill-rule="nonzero" fill-opacity="1" /><path clip-path="url(#clip060)" d="M1276 230.803 L1279.66 230.803 L1279.66 235.212 L1276 235.212 L1276 230.803 Z" fill="#000000" fill-rule="nonzero" fill-opacity="1" /><path clip-path="url(#clip060)" d="M1287.91 232.261 L1293.64 232.261 L1293.64 212.487 L1287.41 213.737 L1287.41 210.542 L1293.6 209.292 L1297.11 209.292 L1297.11 232.261 L1302.84 232.261 L1302.84 235.212 L1287.91 235.212 L1287.91 232.261 Z" fill="#000000" fill-rule="nonzero" fill-opacity="1" /><path clip-path="url(#clip060)" d="M1309.96 209.292 L1323.73 209.292 L1323.73 212.244 L1313.17 212.244 L1313.17 218.598 Q1313.93 218.337 1314.7 218.216 Q1315.46 218.077 1316.23 218.077 Q1320.57 218.077 1323.1 220.455 Q1325.64 222.834 1325.64 226.896 Q1325.64 231.08 1323.03 233.407 Q1320.43 235.716 1315.69 235.716 Q1314.06 235.716 1312.35 235.438 Q1310.67 235.16 1308.87 234.605 L1308.87 231.08 Q1310.43 231.931 1312.09 232.348 Q1313.76 232.764 1315.62 232.764 Q1318.62 232.764 1320.38 231.185 Q1322.13 229.605 1322.13 226.896 Q1322.13 224.188 1320.38 222.608 Q1318.62 221.028 1315.62 221.028 Q1314.21 221.028 1312.81 221.341 Q1311.42 221.653 1309.96 222.313 L1309.96 209.292 Z" fill="#000000" fill-rule="nonzero" fill-opacity="1" /><path clip-path="url(#clip060)" d="M1373.53 18.9258 Q1370.02 18.9258 1368.12 21.4721 Q1366.13 24.1341 1366.13 28.5323 Q1366.13 33.185 1368.09 35.8702 Q1370.08 38.5322 1373.53 38.5322 Q1376.94 38.5322 1378.93 35.847 Q1380.92 33.1619 1380.92 28.5323 Q1380.92 24.2962 1378.93 21.4721 Q1377.1 18.9258 1373.53 18.9258 M1373.53 15.5462 L1387.68 15.5462 L1387.68 19.8054 L1382.91 19.8054 Q1385.43 23.4165 1385.43 28.5323 Q1385.43 34.898 1382.26 38.5091 Q1379.09 42.1433 1373.53 42.1433 Q1367.96 42.1433 1364.81 38.5091 Q1361.64 34.898 1361.64 28.5323 Q1361.64 22.1203 1364.81 18.5323 Q1367.42 15.5462 1373.53 15.5462 Z" fill="#000000" fill-rule="nonzero" fill-opacity="1" /><path clip-path="url(#clip060)" d="M1411.84 19.6666 Q1410.99 19.3656 1410.13 19.1342 Q1407.84 18.5323 1405.39 18.5323 Q1401.15 18.5323 1398.79 20.824 Q1396.59 22.9536 1396.17 26.8656 L1411.84 26.8656 L1411.84 30.1989 L1396.17 30.1989 Q1396.59 34.1109 1398.79 36.2405 Q1401.15 38.5322 1405.39 38.5322 Q1408.35 38.5322 1410.13 37.9304 L1411.84 37.3517 L1411.84 41.2174 L1410.02 41.634 Q1407.61 42.1433 1405.13 42.1433 Q1398.93 42.1433 1395.32 38.5322 Q1391.68 34.9211 1391.68 28.5323 Q1391.68 22.1434 1395.32 18.5323 Q1398.93 14.9212 1405.13 14.9212 Q1407.47 14.9212 1410.02 15.4305 Q1410.94 15.6157 1411.84 15.8934 L1411.84 19.6666 Z" fill="#000000" fill-rule="nonzero" fill-opacity="1" /><polyline clip-path="url(#clip063)" style="stroke:#009af9; stroke-linecap:round; stroke-linejoin:round; stroke-width:4; stroke-opacity:1; fill:none" points="1389.69,164.884 1448.13,222.883 1506.56,281.682 1565,341.281 1623.44,401.681 1681.88,462.88 1740.32,524.879 1798.76,587.679 1857.2,651.278 1915.63,586.879 1974.07,521.679 2032.51,455.679 2090.95,388.88 2149.39,321.28 2207.83,252.88 2266.27,183.68 2324.71,113.68 "/>
<circle clip-path="url(#clip063)" cx="1857.2" cy="651.278" r="10.8" fill="#ff0000" fill-rule="evenodd" fill-opacity="1" stroke="#000000" stroke-opacity="1" stroke-width="3.2"/>
<path clip-path="url(#clip060)" d="M161.818 1467.41 L1152.94 1467.41 L1152.94 897.552 L161.818 897.552  Z" fill="#ffffff" fill-rule="evenodd" fill-opacity="1"/>
<defs>
  <clipPath id="clip064">
    <rect x="161" y="897" width="992" height="571"/>
  </clipPath>
</defs>
<polyline clip-path="url(#clip064)" style="stroke:#000000; stroke-linecap:round; stroke-linejoin:round; stroke-width:2; stroke-opacity:0.1; fill:none" points="299.286,1467.41 299.286,897.552 "/>
<polyline clip-path="url(#clip064)" style="stroke:#000000; stroke-linecap:round; stroke-linejoin:round; stroke-width:2; stroke-opacity:0.1; fill:none" points="471.966,1467.41 471.966,897.552 "/>
<polyline clip-path="url(#clip064)" style="stroke:#000000; stroke-linecap:round; stroke-linejoin:round; stroke-width:2; stroke-opacity:0.1; fill:none" points="644.646,1467.41 644.646,897.552 "/>
<polyline clip-path="url(#clip064)" style="stroke:#000000; stroke-linecap:round; stroke-linejoin:round; stroke-width:2; stroke-opacity:0.1; fill:none" points="817.326,1467.41 817.326,897.552 "/>
<polyline clip-path="url(#clip064)" style="stroke:#000000; stroke-linecap:round; stroke-linejoin:round; stroke-width:2; stroke-opacity:0.1; fill:none" points="990.006,1467.41 990.006,897.552 "/>
<polyline clip-path="url(#clip064)" style="stroke:#000000; stroke-linecap:round; stroke-linejoin:round; stroke-width:2; stroke-opacity:0.1; fill:none" points="161.818,1451.28 1152.94,1451.28 "/>
<polyline clip-path="url(#clip064)" style="stroke:#000000; stroke-linecap:round; stroke-linejoin:round; stroke-width:2; stroke-opacity:0.1; fill:none" points="161.818,1330.35 1152.94,1330.35 "/>
<polyline clip-path="url(#clip064)" style="stroke:#000000; stroke-linecap:round; stroke-linejoin:round; stroke-width:2; stroke-opacity:0.1; fill:none" points="161.818,1209.41 1152.94,1209.41 "/>
<polyline clip-path="url(#clip064)" style="stroke:#000000; stroke-linecap:round; stroke-linejoin:round; stroke-width:2; stroke-opacity:0.1; fill:none" points="161.818,1088.48 1152.94,1088.48 "/>
<polyline clip-path="url(#clip064)" style="stroke:#000000; stroke-linecap:round; stroke-linejoin:round; stroke-width:2; stroke-opacity:0.1; fill:none" points="161.818,967.55 1152.94,967.55 "/>
<polyline clip-path="url(#clip060)" style="stroke:#000000; stroke-linecap:round; stroke-linejoin:round; stroke-width:4; stroke-opacity:1; fill:none" points="161.818,1467.41 1152.94,1467.41 "/>
<polyline clip-path="url(#clip060)" style="stroke:#000000; stroke-linecap:round; stroke-linejoin:round; stroke-width:4; stroke-opacity:1; fill:none" points="299.286,1467.41 299.286,1448.51 "/>
<polyline clip-path="url(#clip060)" style="stroke:#000000; stroke-linecap:round; stroke-linejoin:round; stroke-width:4; stroke-opacity:1; fill:none" points="471.966,1467.41 471.966,1448.51 "/>
<polyline clip-path="url(#clip060)" style="stroke:#000000; stroke-linecap:round; stroke-linejoin:round; stroke-width:4; stroke-opacity:1; fill:none" points="644.646,1467.41 644.646,1448.51 "/>
<polyline clip-path="url(#clip060)" style="stroke:#000000; stroke-linecap:round; stroke-linejoin:round; stroke-width:4; stroke-opacity:1; fill:none" points="817.326,1467.41 817.326,1448.51 "/>
<polyline clip-path="url(#clip060)" style="stroke:#000000; stroke-linecap:round; stroke-linejoin:round; stroke-width:4; stroke-opacity:1; fill:none" points="990.006,1467.41 990.006,1448.51 "/>
<path clip-path="url(#clip060)" d="M245.437 1539.14 Q243.522 1541.05 244.443 1543.91 Q245.363 1546.75 249.144 1550.53 Q252.913 1554.3 255.761 1555.23 Q258.609 1556.14 260.524 1554.23 Q262.452 1552.3 261.531 1549.46 Q260.61 1546.6 256.841 1542.83 Q253.06 1539.05 250.212 1538.14 Q247.364 1537.21 245.437 1539.14 M243.473 1537.17 Q246.554 1534.09 250.617 1534.92 Q254.681 1535.71 259.321 1540.35 Q263.949 1544.98 264.76 1549.06 Q265.57 1553.11 262.488 1556.19 Q259.407 1559.27 255.344 1558.47 Q251.28 1557.65 246.652 1553.02 Q242.012 1548.38 241.202 1544.33 Q240.391 1540.26 243.473 1537.17 Z" fill="#000000" fill-rule="nonzero" fill-opacity="1" /><path clip-path="url(#clip060)" d="M269.707 1542.02 L272.297 1539.43 L275.415 1542.55 L272.825 1545.14 L269.707 1542.02 Z" fill="#000000" fill-rule="nonzero" fill-opacity="1" /><path clip-path="url(#clip060)" d="M262.513 1518.8 L272.248 1509.06 L274.335 1511.15 L266.871 1518.61 L271.364 1523.11 Q271.72 1522.38 272.174 1521.76 Q272.616 1521.12 273.156 1520.58 Q276.225 1517.51 279.7 1517.4 Q283.174 1517.29 286.046 1520.16 Q289.005 1523.12 288.808 1526.6 Q288.6 1530.08 285.248 1533.43 Q284.094 1534.58 282.695 1535.59 Q281.308 1536.59 279.638 1537.47 L277.146 1534.98 Q278.852 1534.47 280.326 1533.59 Q281.799 1532.71 283.112 1531.39 Q285.236 1529.27 285.359 1526.91 Q285.482 1524.55 283.567 1522.64 Q281.651 1520.72 279.294 1520.85 Q276.937 1520.97 274.814 1523.09 Q273.819 1524.09 273.046 1525.3 Q272.285 1526.51 271.72 1528 L262.513 1518.8 Z" fill="#000000" fill-rule="nonzero" fill-opacity="1" /><path clip-path="url(#clip060)" d="M285.42 1499.16 Q283.505 1501.07 284.426 1503.93 Q285.347 1506.77 289.128 1510.55 Q292.896 1514.32 295.744 1515.25 Q298.592 1516.16 300.508 1514.24 Q302.435 1512.32 301.514 1509.48 Q300.593 1506.62 296.825 1502.85 Q293.044 1499.07 290.196 1498.16 Q287.348 1497.23 285.42 1499.16 M283.456 1497.19 Q286.537 1494.11 290.601 1494.93 Q294.664 1495.73 299.304 1500.37 Q303.933 1505 304.743 1509.07 Q305.553 1513.13 302.472 1516.21 Q299.39 1519.29 295.327 1518.49 Q291.264 1517.67 286.636 1513.04 Q281.995 1508.4 281.185 1504.35 Q280.375 1500.27 283.456 1497.19 Z" fill="#000000" fill-rule="nonzero" fill-opacity="1" /><path clip-path="url(#clip060)" d="M418.964 1538.29 Q417.049 1540.21 417.97 1543.07 Q418.89 1545.9 422.672 1549.68 Q426.44 1553.45 429.288 1554.39 Q432.136 1555.29 434.051 1553.38 Q435.979 1551.45 435.058 1548.62 Q434.137 1545.76 430.369 1541.99 Q426.588 1538.21 423.74 1537.3 Q420.891 1536.36 418.964 1538.29 M417 1536.33 Q420.081 1533.25 424.145 1534.07 Q428.208 1534.87 432.848 1539.51 Q437.476 1544.14 438.287 1548.21 Q439.097 1552.26 436.016 1555.34 Q432.934 1558.42 428.871 1557.63 Q424.808 1556.8 420.179 1552.18 Q415.539 1547.54 414.729 1543.48 Q413.919 1539.41 417 1536.33 Z" fill="#000000" fill-rule="nonzero" fill-opacity="1" /><path clip-path="url(#clip060)" d="M443.234 1541.18 L445.824 1538.59 L448.942 1541.7 L446.352 1544.29 L443.234 1541.18 Z" fill="#000000" fill-rule="nonzero" fill-opacity="1" /><path clip-path="url(#clip060)" d="M436.04 1517.95 L445.775 1508.22 L447.862 1510.3 L440.398 1517.77 L444.891 1522.26 Q445.247 1521.53 445.701 1520.91 Q446.143 1520.27 446.684 1519.73 Q449.753 1516.66 453.227 1516.55 Q456.701 1516.44 459.573 1519.31 Q462.532 1522.27 462.336 1525.76 Q462.127 1529.23 458.775 1532.58 Q457.622 1533.74 456.222 1534.74 Q454.835 1535.74 453.165 1536.62 L450.673 1534.13 Q452.38 1533.63 453.853 1532.74 Q455.326 1531.86 456.639 1530.55 Q458.763 1528.42 458.886 1526.06 Q459.009 1523.71 457.094 1521.79 Q455.179 1519.88 452.822 1520 Q450.465 1520.12 448.341 1522.25 Q447.346 1523.24 446.573 1524.46 Q445.812 1525.66 445.247 1527.16 L436.04 1517.95 Z" fill="#000000" fill-rule="nonzero" fill-opacity="1" /><path clip-path="url(#clip060)" d="M470.389 1516.08 L479.043 1507.43 L481.13 1509.52 L469.493 1521.15 L467.406 1519.07 Q467.356 1516.19 467.332 1511.31 Q467.307 1506.4 467.221 1505.06 Q467.074 1502.53 466.62 1501.14 Q466.166 1499.73 465.27 1498.84 Q463.809 1497.38 461.857 1497.49 Q459.917 1497.58 458.272 1499.23 Q457.106 1500.4 456.21 1502.1 Q455.326 1503.8 454.675 1506.09 L452.171 1503.59 Q453.067 1501.49 454.061 1499.88 Q455.056 1498.27 456.136 1497.19 Q458.984 1494.34 462.102 1494.07 Q465.22 1493.8 467.602 1496.18 Q468.731 1497.31 469.321 1498.76 Q469.91 1500.19 470.168 1502.68 Q470.217 1503.34 470.278 1506.69 Q470.327 1510.03 470.389 1516.08 Z" fill="#000000" fill-rule="nonzero" fill-opacity="1" /><path clip-path="url(#clip060)" d="M590.539 1539.4 Q588.624 1541.31 589.545 1544.17 Q590.466 1547.01 594.247 1550.79 Q598.016 1554.56 600.864 1555.49 Q603.712 1556.4 605.627 1554.48 Q607.554 1552.56 606.633 1549.72 Q605.713 1546.86 601.944 1543.09 Q598.163 1539.31 595.315 1538.4 Q592.467 1537.47 590.539 1539.4 M588.575 1537.43 Q591.657 1534.35 595.72 1535.17 Q599.783 1535.97 604.424 1540.61 Q609.052 1545.24 609.862 1549.32 Q610.672 1553.37 607.591 1556.45 Q604.51 1559.53 600.446 1558.73 Q596.383 1557.91 591.755 1553.28 Q587.114 1548.64 586.304 1544.59 Q585.494 1540.51 588.575 1537.43 Z" fill="#000000" fill-rule="nonzero" fill-opacity="1" /><path clip-path="url(#clip060)" d="M614.809 1542.28 L617.399 1539.69 L620.518 1542.81 L617.927 1545.4 L614.809 1542.28 Z" fill="#000000" fill-rule="nonzero" fill-opacity="1" /><path clip-path="url(#clip060)" d="M607.615 1519.06 L617.35 1509.32 L619.437 1511.41 L611.973 1518.87 L616.466 1523.36 Q616.822 1522.64 617.277 1522.01 Q617.719 1521.38 618.259 1520.84 Q621.328 1517.77 624.802 1517.66 Q628.276 1517.55 631.149 1520.42 Q634.107 1523.38 633.911 1526.86 Q633.702 1530.34 630.351 1533.69 Q629.197 1534.84 627.797 1535.85 Q626.41 1536.84 624.741 1537.73 L622.249 1535.24 Q623.955 1534.73 625.428 1533.85 Q626.901 1532.96 628.215 1531.65 Q630.338 1529.53 630.461 1527.17 Q630.584 1524.81 628.669 1522.9 Q626.754 1520.98 624.397 1521.11 Q622.04 1521.23 619.916 1523.35 Q618.922 1524.35 618.148 1525.56 Q617.387 1526.76 616.822 1528.26 L607.615 1519.06 Z" fill="#000000" fill-rule="nonzero" fill-opacity="1" /><path clip-path="url(#clip060)" d="M632.56 1498.43 L636.084 1514.48 L642.344 1508.22 L632.56 1498.43 M629.749 1496.92 L632.867 1493.8 L644.812 1505.75 L647.427 1503.13 L649.489 1505.2 L646.874 1507.81 L651.196 1512.13 L648.728 1514.6 L644.407 1510.28 L636.133 1518.55 L633.739 1516.16 L629.749 1496.92 Z" fill="#000000" fill-rule="nonzero" fill-opacity="1" /><path clip-path="url(#clip060)" d="M763.391 1539.22 Q761.476 1541.14 762.397 1544 Q763.318 1546.84 767.099 1550.62 Q770.867 1554.39 773.716 1555.32 Q776.564 1556.23 778.479 1554.31 Q780.406 1552.38 779.485 1549.55 Q778.565 1546.69 774.796 1542.92 Q771.015 1539.14 768.167 1538.23 Q765.319 1537.3 763.391 1539.22 M761.427 1537.26 Q764.508 1534.18 768.572 1535 Q772.635 1535.8 777.276 1540.44 Q781.904 1545.07 782.714 1549.14 Q783.524 1553.19 780.443 1556.28 Q777.362 1559.36 773.298 1558.56 Q769.235 1557.74 764.607 1553.11 Q759.966 1548.47 759.156 1544.42 Q758.346 1540.34 761.427 1537.26 Z" fill="#000000" fill-rule="nonzero" fill-opacity="1" /><path clip-path="url(#clip060)" d="M787.661 1542.11 L790.251 1539.52 L793.37 1542.64 L790.779 1545.23 L787.661 1542.11 Z" fill="#000000" fill-rule="nonzero" fill-opacity="1" /><path clip-path="url(#clip060)" d="M780.467 1518.88 L790.202 1509.15 L792.289 1511.24 L784.825 1518.7 L789.318 1523.19 Q789.674 1522.47 790.129 1521.84 Q790.571 1521.2 791.111 1520.66 Q794.18 1517.59 797.654 1517.48 Q801.128 1517.37 804.001 1520.25 Q806.959 1523.2 806.763 1526.69 Q806.554 1530.17 803.203 1533.52 Q802.049 1534.67 800.649 1535.68 Q799.262 1536.67 797.593 1537.56 L795.1 1535.06 Q796.807 1534.56 798.28 1533.68 Q799.753 1532.79 801.067 1531.48 Q803.19 1529.35 803.313 1527 Q803.436 1524.64 801.521 1522.73 Q799.606 1520.81 797.249 1520.93 Q794.892 1521.06 792.768 1523.18 Q791.774 1524.17 791 1525.39 Q790.239 1526.59 789.674 1528.09 L780.467 1518.88 Z" fill="#000000" fill-rule="nonzero" fill-opacity="1" /><path clip-path="url(#clip060)" d="M810.225 1505.48 Q808.555 1507.15 808.715 1509.27 Q808.887 1511.38 810.875 1513.37 Q812.852 1515.35 814.975 1515.53 Q817.099 1515.69 818.769 1514.02 Q820.438 1512.35 820.266 1510.24 Q820.095 1508.1 818.118 1506.13 Q816.129 1504.14 814.006 1503.98 Q811.894 1503.81 810.225 1505.48 M807.377 1492.78 L809.635 1495.04 Q808.26 1495.53 807.07 1496.26 Q805.891 1496.97 804.958 1497.9 Q802.503 1500.36 802.859 1503.32 Q803.227 1506.26 806.395 1509.8 Q806.051 1508.01 806.579 1506.35 Q807.094 1504.68 808.408 1503.37 Q811.17 1500.6 814.448 1500.69 Q817.725 1500.75 820.61 1503.64 Q823.434 1506.46 823.471 1509.84 Q823.507 1513.21 820.733 1515.99 Q817.553 1519.17 813.441 1518.42 Q809.316 1517.66 804.688 1513.03 Q800.342 1508.68 799.827 1504.04 Q799.299 1499.39 802.773 1495.91 Q803.706 1494.98 804.835 1494.22 Q805.977 1493.45 807.377 1492.78 Z" fill="#000000" fill-rule="nonzero" fill-opacity="1" /><path clip-path="url(#clip060)" d="M936.206 1539.09 Q934.291 1541 935.212 1543.87 Q936.133 1546.7 939.914 1550.48 Q943.683 1554.25 946.531 1555.18 Q949.379 1556.09 951.294 1554.18 Q953.221 1552.25 952.3 1549.41 Q951.38 1546.55 947.611 1542.78 Q943.83 1539 940.982 1538.1 Q938.134 1537.16 936.206 1539.09 M934.242 1537.13 Q937.324 1534.04 941.387 1534.87 Q945.45 1535.66 950.091 1540.31 Q954.719 1544.93 955.529 1549.01 Q956.339 1553.06 953.258 1556.14 Q950.177 1559.22 946.113 1558.42 Q942.05 1557.6 937.422 1552.97 Q932.781 1548.33 931.971 1544.28 Q931.161 1540.21 934.242 1537.13 Z" fill="#000000" fill-rule="nonzero" fill-opacity="1" /><path clip-path="url(#clip060)" d="M960.476 1541.97 L963.067 1539.38 L966.185 1542.5 L963.594 1545.09 L960.476 1541.97 Z" fill="#000000" fill-rule="nonzero" fill-opacity="1" /><path clip-path="url(#clip060)" d="M953.283 1518.75 L963.017 1509.01 L965.104 1511.1 L957.641 1518.56 L962.134 1523.06 Q962.49 1522.33 962.944 1521.71 Q963.386 1521.07 963.926 1520.53 Q966.995 1517.46 970.469 1517.35 Q973.943 1517.24 976.816 1520.11 Q979.774 1523.07 979.578 1526.56 Q979.369 1530.03 976.018 1533.38 Q974.864 1534.54 973.464 1535.54 Q972.077 1536.54 970.408 1537.42 L967.916 1534.93 Q969.622 1534.42 971.095 1533.54 Q972.568 1532.66 973.882 1531.34 Q976.006 1529.22 976.128 1526.86 Q976.251 1524.51 974.336 1522.59 Q972.421 1520.68 970.064 1520.8 Q967.707 1520.92 965.583 1523.04 Q964.589 1524.04 963.815 1525.25 Q963.054 1526.46 962.49 1527.96 L953.283 1518.75 Z" fill="#000000" fill-rule="nonzero" fill-opacity="1" /><path clip-path="url(#clip060)" d="M984.181 1507.1 Q982.414 1508.87 982.34 1510.83 Q982.279 1512.78 983.936 1514.44 Q985.593 1516.1 987.545 1516.04 Q989.509 1515.96 991.277 1514.19 Q993.045 1512.43 993.118 1510.46 Q993.18 1508.49 991.535 1506.84 Q989.878 1505.18 987.913 1505.26 Q985.961 1505.32 984.181 1507.1 M980.646 1508.52 Q978.657 1509.73 976.668 1509.53 Q974.692 1509.32 973.121 1507.75 Q970.923 1505.55 971.206 1502.72 Q971.5 1499.87 974.226 1497.14 Q976.963 1494.4 979.799 1494.12 Q982.635 1493.84 984.832 1496.04 Q986.403 1497.61 986.6 1499.6 Q986.809 1501.57 985.618 1503.55 Q987.827 1502.18 990.037 1502.4 Q992.259 1502.61 994.015 1504.36 Q996.679 1507.02 996.47 1510.08 Q996.273 1513.13 993.241 1516.16 Q990.209 1519.19 987.152 1519.4 Q984.108 1519.6 981.444 1516.93 Q979.688 1515.18 979.48 1512.95 Q979.271 1510.73 980.646 1508.52 M975.821 1505.51 Q977.245 1506.94 978.927 1506.85 Q980.621 1506.75 982.23 1505.15 Q983.825 1503.55 983.924 1501.86 Q984.034 1500.15 982.61 1498.73 Q981.186 1497.3 979.48 1497.41 Q977.786 1497.51 976.19 1499.11 Q974.582 1500.71 974.483 1502.41 Q974.397 1504.09 975.821 1505.51 Z" fill="#000000" fill-rule="nonzero" fill-opacity="1" /><polyline clip-path="url(#clip060)" style="stroke:#000000; stroke-linecap:round; stroke-linejoin:round; stroke-width:4; stroke-opacity:1; fill:none" points="161.818,1467.41 161.818,897.552 "/>
<polyline clip-path="url(#clip060)" style="stroke:#000000; stroke-linecap:round; stroke-linejoin:round; stroke-width:4; stroke-opacity:1; fill:none" points="161.818,1451.28 180.716,1451.28 "/>
<polyline clip-path="url(#clip060)" style="stroke:#000000; stroke-linecap:round; stroke-linejoin:round; stroke-width:4; stroke-opacity:1; fill:none" points="161.818,1330.35 180.716,1330.35 "/>
<polyline clip-path="url(#clip060)" style="stroke:#000000; stroke-linecap:round; stroke-linejoin:round; stroke-width:4; stroke-opacity:1; fill:none" points="161.818,1209.41 180.716,1209.41 "/>
<polyline clip-path="url(#clip060)" style="stroke:#000000; stroke-linecap:round; stroke-linejoin:round; stroke-width:4; stroke-opacity:1; fill:none" points="161.818,1088.48 180.716,1088.48 "/>
<polyline clip-path="url(#clip060)" style="stroke:#000000; stroke-linecap:round; stroke-linejoin:round; stroke-width:4; stroke-opacity:1; fill:none" points="161.818,967.55 180.716,967.55 "/>
<path clip-path="url(#clip060)" d="M60.315 1440.63 Q57.6067 1440.63 56.2352 1443.3 Q54.881 1445.96 54.881 1451.3 Q54.881 1456.63 56.2352 1459.31 Q57.6067 1461.96 60.315 1461.96 Q63.0407 1461.96 64.3948 1459.31 Q65.7664 1456.63 65.7664 1451.3 Q65.7664 1445.96 64.3948 1443.3 Q63.0407 1440.63 60.315 1440.63 M60.315 1437.85 Q64.6726 1437.85 66.9643 1441.3 Q69.2733 1444.74 69.2733 1451.3 Q69.2733 1457.85 66.9643 1461.3 Q64.6726 1464.74 60.315 1464.74 Q55.9574 1464.74 53.6484 1461.3 Q51.3567 1457.85 51.3567 1451.3 Q51.3567 1444.74 53.6484 1441.3 Q55.9574 1437.85 60.315 1437.85 Z" fill="#000000" fill-rule="nonzero" fill-opacity="1" /><path clip-path="url(#clip060)" d="M75.4364 1459.83 L79.0996 1459.83 L79.0996 1464.24 L75.4364 1464.24 L75.4364 1459.83 Z" fill="#000000" fill-rule="nonzero" fill-opacity="1" /><path clip-path="url(#clip060)" d="M94.2384 1440.63 Q91.5301 1440.63 90.1586 1443.3 Q88.8044 1445.96 88.8044 1451.3 Q88.8044 1456.63 90.1586 1459.31 Q91.5301 1461.96 94.2384 1461.96 Q96.9641 1461.96 98.3183 1459.31 Q99.6898 1456.63 99.6898 1451.3 Q99.6898 1445.96 98.3183 1443.3 Q96.9641 1440.63 94.2384 1440.63 M94.2384 1437.85 Q98.596 1437.85 100.888 1441.3 Q103.197 1444.74 103.197 1451.3 Q103.197 1457.85 100.888 1461.3 Q98.596 1464.74 94.2384 1464.74 Q89.8808 1464.74 87.5718 1461.3 Q85.2801 1457.85 85.2801 1451.3 Q85.2801 1444.74 87.5718 1441.3 Q89.8808 1437.85 94.2384 1437.85 Z" fill="#000000" fill-rule="nonzero" fill-opacity="1" /><path clip-path="url(#clip060)" d="M116.86 1440.63 Q114.152 1440.63 112.78 1443.3 Q111.426 1445.96 111.426 1451.3 Q111.426 1456.63 112.78 1459.31 Q114.152 1461.96 116.86 1461.96 Q119.586 1461.96 120.94 1459.31 Q122.311 1456.63 122.311 1451.3 Q122.311 1445.96 120.94 1443.3 Q119.586 1440.63 116.86 1440.63 M116.86 1437.85 Q121.217 1437.85 123.509 1441.3 Q125.818 1444.74 125.818 1451.3 Q125.818 1457.85 123.509 1461.3 Q121.217 1464.74 116.86 1464.74 Q112.502 1464.74 110.193 1461.3 Q107.902 1457.85 107.902 1451.3 Q107.902 1444.74 110.193 1441.3 Q112.502 1437.85 116.86 1437.85 Z" fill="#000000" fill-rule="nonzero" fill-opacity="1" /><path clip-path="url(#clip060)" d="M61.2351 1319.7 Q58.5268 1319.7 57.1553 1322.37 Q55.8011 1325.03 55.8011 1330.37 Q55.8011 1335.7 57.1553 1338.38 Q58.5268 1341.03 61.2351 1341.03 Q63.9608 1341.03 65.315 1338.38 Q66.6865 1335.7 66.6865 1330.37 Q66.6865 1325.03 65.315 1322.37 Q63.9608 1319.7 61.2351 1319.7 M61.2351 1316.92 Q65.5927 1316.92 67.8844 1320.37 Q70.1934 1323.81 70.1934 1330.37 Q70.1934 1336.92 67.8844 1340.37 Q65.5927 1343.81 61.2351 1343.81 Q56.8775 1343.81 54.5685 1340.37 Q52.2768 1336.92 52.2768 1330.37 Q52.2768 1323.81 54.5685 1320.37 Q56.8775 1316.92 61.2351 1316.92 Z" fill="#000000" fill-rule="nonzero" fill-opacity="1" /><path clip-path="url(#clip060)" d="M76.3566 1338.9 L80.0197 1338.9 L80.0197 1343.31 L76.3566 1343.31 L76.3566 1338.9 Z" fill="#000000" fill-rule="nonzero" fill-opacity="1" /><path clip-path="url(#clip060)" d="M95.1586 1319.7 Q92.4502 1319.7 91.0787 1322.37 Q89.7246 1325.03 89.7246 1330.37 Q89.7246 1335.7 91.0787 1338.38 Q92.4502 1341.03 95.1586 1341.03 Q97.8842 1341.03 99.2384 1338.38 Q100.61 1335.7 100.61 1330.37 Q100.61 1325.03 99.2384 1322.37 Q97.8842 1319.7 95.1586 1319.7 M95.1586 1316.92 Q99.5162 1316.92 101.808 1320.37 Q104.117 1323.81 104.117 1330.37 Q104.117 1336.92 101.808 1340.37 Q99.5162 1343.81 95.1586 1343.81 Q90.8009 1343.81 88.4919 1340.37 Q86.2003 1336.92 86.2003 1330.37 Q86.2003 1323.81 88.4919 1320.37 Q90.8009 1316.92 95.1586 1316.92 Z" fill="#000000" fill-rule="nonzero" fill-opacity="1" /><path clip-path="url(#clip060)" d="M110.888 1340.35 L116.617 1340.35 L116.617 1320.58 L110.384 1321.83 L110.384 1318.64 L116.582 1317.39 L120.089 1317.39 L120.089 1340.35 L125.818 1340.35 L125.818 1343.31 L110.888 1343.31 L110.888 1340.35 Z" fill="#000000" fill-rule="nonzero" fill-opacity="1" /><path clip-path="url(#clip060)" d="M61.5129 1198.76 Q58.8046 1198.76 57.4331 1201.44 Q56.0789 1204.09 56.0789 1209.44 Q56.0789 1214.77 57.4331 1217.44 Q58.8046 1220.1 61.5129 1220.1 Q64.2386 1220.1 65.5927 1217.44 Q66.9643 1214.77 66.9643 1209.44 Q66.9643 1204.09 65.5927 1201.44 Q64.2386 1198.76 61.5129 1198.76 M61.5129 1195.99 Q65.8705 1195.99 68.1622 1199.44 Q70.4712 1202.88 70.4712 1209.44 Q70.4712 1215.99 68.1622 1219.44 Q65.8705 1222.88 61.5129 1222.88 Q57.1553 1222.88 54.8463 1219.44 Q52.5546 1215.99 52.5546 1209.44 Q52.5546 1202.88 54.8463 1199.44 Q57.1553 1195.99 61.5129 1195.99 Z" fill="#000000" fill-rule="nonzero" fill-opacity="1" /><path clip-path="url(#clip060)" d="M76.6343 1217.96 L80.2975 1217.96 L80.2975 1222.37 L76.6343 1222.37 L76.6343 1217.96 Z" fill="#000000" fill-rule="nonzero" fill-opacity="1" /><path clip-path="url(#clip060)" d="M95.4363 1198.76 Q92.728 1198.76 91.3565 1201.44 Q90.0023 1204.09 90.0023 1209.44 Q90.0023 1214.77 91.3565 1217.44 Q92.728 1220.1 95.4363 1220.1 Q98.162 1220.1 99.5162 1217.44 Q100.888 1214.77 100.888 1209.44 Q100.888 1204.09 99.5162 1201.44 Q98.162 1198.76 95.4363 1198.76 M95.4363 1195.99 Q99.7939 1195.99 102.086 1199.44 Q104.395 1202.88 104.395 1209.44 Q104.395 1215.99 102.086 1219.44 Q99.7939 1222.88 95.4363 1222.88 Q91.0787 1222.88 88.7697 1219.44 Q86.478 1215.99 86.478 1209.44 Q86.478 1202.88 88.7697 1199.44 Q91.0787 1195.99 95.4363 1195.99 Z" fill="#000000" fill-rule="nonzero" fill-opacity="1" /><path clip-path="url(#clip060)" d="M113.579 1219.42 L125.818 1219.42 L125.818 1222.37 L109.36 1222.37 L109.36 1219.42 Q111.356 1217.36 114.794 1213.88 Q118.249 1210.4 119.134 1209.39 Q120.818 1207.5 121.478 1206.19 Q122.155 1204.87 122.155 1203.61 Q122.155 1201.54 120.697 1200.24 Q119.256 1198.94 116.929 1198.94 Q115.28 1198.94 113.44 1199.51 Q111.617 1200.08 109.533 1201.25 L109.533 1197.7 Q111.652 1196.85 113.492 1196.42 Q115.332 1195.99 116.86 1195.99 Q120.888 1195.99 123.283 1198 Q125.679 1200.01 125.679 1203.38 Q125.679 1204.98 125.072 1206.42 Q124.481 1207.84 122.901 1209.79 Q122.467 1210.29 120.141 1212.7 Q117.815 1215.1 113.579 1219.42 Z" fill="#000000" fill-rule="nonzero" fill-opacity="1" /><path clip-path="url(#clip060)" d="M60.8011 1077.83 Q58.0928 1077.83 56.7213 1080.5 Q55.3671 1083.16 55.3671 1088.51 Q55.3671 1093.84 56.7213 1096.51 Q58.0928 1099.17 60.8011 1099.17 Q63.5268 1099.17 64.8809 1096.51 Q66.2525 1093.84 66.2525 1088.51 Q66.2525 1083.16 64.8809 1080.5 Q63.5268 1077.83 60.8011 1077.83 M60.8011 1075.05 Q65.1587 1075.05 67.4504 1078.51 Q69.7594 1081.95 69.7594 1088.51 Q69.7594 1095.05 67.4504 1098.51 Q65.1587 1101.95 60.8011 1101.95 Q56.4435 1101.95 54.1345 1098.51 Q51.8428 1095.05 51.8428 1088.51 Q51.8428 1081.95 54.1345 1078.51 Q56.4435 1075.05 60.8011 1075.05 Z" fill="#000000" fill-rule="nonzero" fill-opacity="1" /><path clip-path="url(#clip060)" d="M75.9225 1097.03 L79.5857 1097.03 L79.5857 1101.44 L75.9225 1101.44 L75.9225 1097.03 Z" fill="#000000" fill-rule="nonzero" fill-opacity="1" /><path clip-path="url(#clip060)" d="M94.7245 1077.83 Q92.0162 1077.83 90.6447 1080.5 Q89.2905 1083.16 89.2905 1088.51 Q89.2905 1093.84 90.6447 1096.51 Q92.0162 1099.17 94.7245 1099.17 Q97.4502 1099.17 98.8044 1096.51 Q100.176 1093.84 100.176 1088.51 Q100.176 1083.16 98.8044 1080.5 Q97.4502 1077.83 94.7245 1077.83 M94.7245 1075.05 Q99.0821 1075.05 101.374 1078.51 Q103.683 1081.95 103.683 1088.51 Q103.683 1095.05 101.374 1098.51 Q99.0821 1101.95 94.7245 1101.95 Q90.3669 1101.95 88.0579 1098.51 Q85.7662 1095.05 85.7662 1088.51 Q85.7662 1081.95 88.0579 1078.51 Q90.3669 1075.05 94.7245 1075.05 Z" fill="#000000" fill-rule="nonzero" fill-opacity="1" /><path clip-path="url(#clip060)" d="M120.471 1087.47 Q122.988 1088 124.395 1089.71 Q125.818 1091.41 125.818 1093.91 Q125.818 1097.74 123.179 1099.84 Q120.54 1101.95 115.679 1101.95 Q114.047 1101.95 112.311 1101.62 Q110.593 1101.3 108.752 1100.66 L108.752 1097.28 Q110.211 1098.13 111.947 1098.56 Q113.683 1098.99 115.575 1098.99 Q118.874 1098.99 120.592 1097.69 Q122.329 1096.39 122.329 1093.91 Q122.329 1091.62 120.714 1090.33 Q119.117 1089.03 116.252 1089.03 L113.231 1089.03 L113.231 1086.15 L116.391 1086.15 Q118.978 1086.15 120.349 1085.12 Q121.721 1084.08 121.721 1082.14 Q121.721 1080.14 120.297 1079.08 Q118.891 1078 116.252 1078 Q114.811 1078 113.162 1078.32 Q111.513 1078.63 109.533 1079.29 L109.533 1076.16 Q111.53 1075.61 113.266 1075.33 Q115.02 1075.05 116.565 1075.05 Q120.558 1075.05 122.884 1076.88 Q125.21 1078.68 125.21 1081.77 Q125.21 1083.92 123.978 1085.42 Q122.745 1086.89 120.471 1087.47 Z" fill="#000000" fill-rule="nonzero" fill-opacity="1" /><path clip-path="url(#clip060)" d="M59.9504 956.899 Q57.2421 956.899 55.8706 959.572 Q54.5164 962.229 54.5164 967.576 Q54.5164 972.906 55.8706 975.579 Q57.2421 978.235 59.9504 978.235 Q62.6761 978.235 64.0303 975.579 Q65.4018 972.906 65.4018 967.576 Q65.4018 962.229 64.0303 959.572 Q62.6761 956.899 59.9504 956.899 M59.9504 954.121 Q64.308 954.121 66.5997 957.576 Q68.9087 961.013 68.9087 967.576 Q68.9087 974.121 66.5997 977.576 Q64.308 981.013 59.9504 981.013 Q55.5928 981.013 53.2838 977.576 Q50.9921 974.121 50.9921 967.576 Q50.9921 961.013 53.2838 957.576 Q55.5928 954.121 59.9504 954.121 Z" fill="#000000" fill-rule="nonzero" fill-opacity="1" /><path clip-path="url(#clip060)" d="M75.0719 976.1 L78.735 976.1 L78.735 980.51 L75.0719 980.51 L75.0719 976.1 Z" fill="#000000" fill-rule="nonzero" fill-opacity="1" /><path clip-path="url(#clip060)" d="M93.8738 956.899 Q91.1655 956.899 89.794 959.572 Q88.4398 962.229 88.4398 967.576 Q88.4398 972.906 89.794 975.579 Q91.1655 978.235 93.8738 978.235 Q96.5995 978.235 97.9537 975.579 Q99.3252 972.906 99.3252 967.576 Q99.3252 962.229 97.9537 959.572 Q96.5995 956.899 93.8738 956.899 M93.8738 954.121 Q98.2315 954.121 100.523 957.576 Q102.832 961.013 102.832 967.576 Q102.832 974.121 100.523 977.576 Q98.2315 981.013 93.8738 981.013 Q89.5162 981.013 87.2072 977.576 Q84.9156 974.121 84.9156 967.576 Q84.9156 961.013 87.2072 957.576 Q89.5162 954.121 93.8738 954.121 Z" fill="#000000" fill-rule="nonzero" fill-opacity="1" /><path clip-path="url(#clip060)" d="M118.631 957.645 L109.777 971.482 L118.631 971.482 L118.631 957.645 M117.711 954.59 L122.12 954.59 L122.12 971.482 L125.818 971.482 L125.818 974.399 L122.12 974.399 L122.12 980.51 L118.631 980.51 L118.631 974.399 L106.929 974.399 L106.929 971.013 L117.711 954.59 Z" fill="#000000" fill-rule="nonzero" fill-opacity="1" /><path clip-path="url(#clip060)" d="M173.716 818.926 Q170.198 818.926 168.3 821.472 Q166.309 824.134 166.309 828.532 Q166.309 833.185 168.276 835.87 Q170.267 838.532 173.716 838.532 Q177.119 838.532 179.11 835.847 Q181.1 833.162 181.1 828.532 Q181.1 824.296 179.11 821.472 Q177.281 818.926 173.716 818.926 M173.716 815.546 L187.86 815.546 L187.86 819.805 L183.091 819.805 Q185.614 823.417 185.614 828.532 Q185.614 834.898 182.443 838.509 Q179.272 842.143 173.716 842.143 Q168.138 842.143 164.989 838.509 Q161.818 834.898 161.818 828.532 Q161.818 822.12 164.989 818.532 Q167.605 815.546 173.716 815.546 Z" fill="#000000" fill-rule="nonzero" fill-opacity="1" /><path clip-path="url(#clip060)" d="M198.878 841.472 L190.961 815.546 L195.545 815.546 L202.235 837.305 Q205.012 834.435 207.327 830.454 Q209.086 827.467 209.179 824.875 Q209.225 823.648 208.67 821.333 Q208.022 818.579 205.568 815.546 L209.873 815.546 L209.873 815.546 Q211.471 817.606 212.535 820.477 Q213.508 823.116 213.508 824.921 Q213.508 829.458 210.36 833.509 Q206.262 838.787 203.415 841.472 L198.878 841.472 Z" fill="#000000" fill-rule="nonzero" fill-opacity="1" /><polyline clip-path="url(#clip064)" style="stroke:#009af9; stroke-linecap:round; stroke-linejoin:round; stroke-width:4; stroke-opacity:1; fill:none" points="189.869,964.857 248.307,1022.86 306.746,1081.66 365.185,1141.27 423.623,1201.67 482.062,1262.87 540.501,1324.88 598.939,1387.68 657.378,1451.28 715.817,1386.88 774.256,1321.68 832.694,1255.68 891.133,1188.88 949.572,1121.28 1008.01,1052.88 1066.45,983.679 1124.89,913.68 "/>
<circle clip-path="url(#clip064)" cx="657.378" cy="1451.28" r="10.8" fill="#ff0000" fill-rule="evenodd" fill-opacity="1" stroke="#000000" stroke-opacity="1" stroke-width="3.2"/>
</svg>
