<?xml version="1.0" encoding="utf-8"?>
<svg xmlns="http://www.w3.org/2000/svg" xmlns:xlink="http://www.w3.org/1999/xlink" width="600" height="400" viewBox="0 0 2400 1600">
<defs>
  <clipPath id="clip160">
    <rect x="0" y="0" width="2400" height="1600"/>
  </clipPath>
</defs>
<path clip-path="url(#clip160)" d="M0 1600 L2400 1600 L2400 0 L0 0  Z" fill="#ffffff" fill-rule="evenodd" fill-opacity="1"/>
<defs>
  <clipPath id="clip161">
    <rect x="480" y="0" width="1681" height="1600"/>
  </clipPath>
</defs>
<path clip-path="url(#clip160)" d="M161.818 667.406 L1152.94 667.406 L1152.94 97.5521 L161.818 97.5521  Z" fill="#ffffff" fill-rule="evenodd" fill-opacity="1"/>
<defs>
  <clipPath id="clip162">
    <rect x="161" y="97" width="992" height="571"/>
  </clipPath>
</defs>
<polyline clip-path="url(#clip162)" style="stroke:#000000; stroke-linecap:round; stroke-linejoin:round; stroke-width:2; stroke-opacity:0.1; fill:none" points="199.147,667.406 199.147,97.5521 "/>
<polyline clip-path="url(#clip162)" style="stroke:#000000; stroke-linecap:round; stroke-linejoin:round; stroke-width:2; stroke-opacity:0.1; fill:none" points="462.701,667.406 462.701,97.5521 "/>
<polyline clip-path="url(#clip162)" style="stroke:#000000; stroke-linecap:round; stroke-linejoin:round; stroke-width:2; stroke-opacity:0.1; fill:none" points="726.255,667.406 726.255,97.5521 "/>
<polyline clip-path="url(#clip162)" style="stroke:#000000; stroke-linecap:round; stroke-linejoin:round; stroke-width:2; stroke-opacity:0.1; fill:none" points="989.809,667.406 989.809,97.5521 "/>
<polyline clip-path="url(#clip162)" style="stroke:#000000; stroke-linecap:round; stroke-linejoin:round; stroke-width:2; stroke-opacity:0.1; fill:none" points="161.818,651.278 1152.94,651.278 "/>
<polyline clip-path="url(#clip162)" style="stroke:#000000; stroke-linecap:round; stroke-linejoin:round; stroke-width:2; stroke-opacity:0.1; fill:none" points="161.818,500.861 1152.94,500.861 "/>
<polyline clip-path="url(#clip162)" style="stroke:#000000; stroke-linecap:round; stroke-linejoin:round; stroke-width:2; stroke-opacity:0.1; fill:none" points="161.818,350.443 1152.94,350.443 "/>
<polyline clip-path="url(#clip162)" style="stroke:#000000; stroke-linecap:round; stroke-linejoin:round; stroke-width:2; stroke-opacity:0.1; fill:none" points="161.818,200.025 1152.94,200.025 "/>
<polyline clip-path="url(#clip160)" style="stroke:#000000; stroke-linecap:round; stroke-linejoin:round; stroke-width:4; stroke-opacity:1; fill:none" points="161.818,667.406 1152.94,667.406 "/>
<polyline clip-path="url(#clip160)" style="stroke:#000000; stroke-linecap:round; stroke-linejoin:round; stroke-width:4; stroke-opacity:1; fill:none" points="199.147,667.406 199.147,648.509 "/>
<polyline clip-path="url(#clip160)" style="stroke:#000000; stroke-linecap:round; stroke-linejoin:round; stroke-width:4; stroke-opacity:1; fill:none" points="462.701,667.406 462.701,648.509 "/>
<polyline clip-path="url(#clip160)" style="stroke:#000000; stroke-linecap:round; stroke-linejoin:round; stroke-width:4; stroke-opacity:1; fill:none" points="726.255,667.406 726.255,648.509 "/>
<polyline clip-path="url(#clip160)" style="stroke:#000000; stroke-linecap:round; stroke-linejoin:round; stroke-width:4; stroke-opacity:1; fill:none" points="989.809,667.406 989.809,648.509 "/>
<path clip-path="url(#clip160)" d="M145.298 739.139 Q143.383 741.054 144.304 743.914 Q145.225 746.75 149.006 750.531 Q152.774 754.3 155.622 755.233 Q158.47 756.141 160.386 754.226 Q162.313 752.299 161.392 749.463 Q160.471 746.603 156.703 742.834 Q152.922 739.053 150.074 738.144 Q147.226 737.211 145.298 739.139 M143.334 737.175 Q146.415 734.093 150.479 734.916 Q154.542 735.714 159.182 740.354 Q163.811 744.982 164.621 749.058 Q165.431 753.109 162.35 756.19 Q159.268 759.272 155.205 758.474 Q151.142 757.651 146.514 753.023 Q141.873 748.383 141.063 744.332 Q140.253 740.256 143.334 737.175 Z" fill="#000000" fill-rule="nonzero" fill-opacity="1" /><path clip-path="url(#clip160)" d="M169.568 742.024 L172.158 739.433 L175.276 742.552 L172.686 745.142 L169.568 742.024 Z" fill="#000000" fill-rule="nonzero" fill-opacity="1" /><path clip-path="url(#clip160)" d="M177.277 723.143 Q175.51 724.911 175.436 726.875 Q175.375 728.827 177.032 730.484 Q178.689 732.141 180.641 732.08 Q182.605 732.006 184.373 730.239 Q186.141 728.471 186.214 726.507 Q186.276 724.53 184.631 722.885 Q182.974 721.228 181.009 721.302 Q179.057 721.363 177.277 723.143 M173.742 724.567 Q171.753 725.77 169.764 725.574 Q167.788 725.365 166.217 723.794 Q164.019 721.596 164.302 718.761 Q164.596 715.912 167.322 713.187 Q170.059 710.45 172.895 710.167 Q175.731 709.885 177.928 712.082 Q179.499 713.654 179.696 715.642 Q179.905 717.619 178.714 719.595 Q180.923 718.22 183.133 718.441 Q185.355 718.65 187.111 720.406 Q189.774 723.069 189.566 726.126 Q189.369 729.171 186.337 732.203 Q183.305 735.235 180.248 735.444 Q177.204 735.64 174.54 732.976 Q172.784 731.221 172.576 728.999 Q172.367 726.777 173.742 724.567 M168.917 721.559 Q170.341 722.983 172.023 722.898 Q173.717 722.799 175.326 721.191 Q176.921 719.595 177.02 717.901 Q177.13 716.195 175.706 714.771 Q174.282 713.347 172.576 713.457 Q170.882 713.555 169.286 715.151 Q167.678 716.76 167.579 718.454 Q167.493 720.135 168.917 721.559 Z" fill="#000000" fill-rule="nonzero" fill-opacity="1" /><path clip-path="url(#clip160)" d="M185.281 699.156 Q183.366 701.071 184.287 703.931 Q185.208 706.767 188.989 710.548 Q192.758 714.317 195.606 715.25 Q198.454 716.158 200.369 714.243 Q202.296 712.316 201.375 709.48 Q200.455 706.619 196.686 702.851 Q192.905 699.07 190.057 698.161 Q187.209 697.228 185.281 699.156 M183.317 697.191 Q186.399 694.11 190.462 694.933 Q194.525 695.731 199.166 700.371 Q203.794 704.999 204.604 709.075 Q205.414 713.126 202.333 716.207 Q199.252 719.288 195.188 718.49 Q191.125 717.668 186.497 713.04 Q181.856 708.399 181.046 704.348 Q180.236 700.273 183.317 697.191 Z" fill="#000000" fill-rule="nonzero" fill-opacity="1" /><path clip-path="url(#clip160)" d="M409.38 738.611 Q407.465 740.526 408.386 743.386 Q409.306 746.222 413.087 750.003 Q416.856 753.772 419.704 754.705 Q422.552 755.613 424.467 753.698 Q426.395 751.771 425.474 748.935 Q424.553 746.075 420.785 742.306 Q417.004 738.525 414.155 737.617 Q411.307 736.684 409.38 738.611 M407.416 736.647 Q410.497 733.565 414.561 734.388 Q418.624 735.186 423.264 739.826 Q427.892 744.454 428.703 748.53 Q429.513 752.581 426.432 755.662 Q423.35 758.744 419.287 757.946 Q415.223 757.123 410.595 752.495 Q405.955 747.855 405.145 743.804 Q404.335 739.728 407.416 736.647 Z" fill="#000000" fill-rule="nonzero" fill-opacity="1" /><path clip-path="url(#clip160)" d="M433.65 741.496 L436.24 738.906 L439.358 742.024 L436.768 744.614 L433.65 741.496 Z" fill="#000000" fill-rule="nonzero" fill-opacity="1" /><path clip-path="url(#clip160)" d="M441.359 722.615 Q439.592 724.383 439.518 726.347 Q439.457 728.299 441.114 729.956 Q442.771 731.614 444.723 731.552 Q446.687 731.479 448.455 729.711 Q450.223 727.943 450.296 725.979 Q450.358 724.002 448.713 722.357 Q447.055 720.7 445.091 720.774 Q443.139 720.835 441.359 722.615 M437.824 724.039 Q435.835 725.242 433.846 725.046 Q431.87 724.837 430.299 723.266 Q428.101 721.068 428.383 718.233 Q428.678 715.385 431.403 712.659 Q434.141 709.922 436.977 709.639 Q439.813 709.357 442.01 711.554 Q443.581 713.126 443.778 715.115 Q443.986 717.091 442.796 719.067 Q445.005 717.692 447.215 717.913 Q449.437 718.122 451.192 719.878 Q453.856 722.542 453.648 725.598 Q453.451 728.643 450.419 731.675 Q447.387 734.707 444.33 734.916 Q441.286 735.112 438.622 732.448 Q436.866 730.693 436.658 728.471 Q436.449 726.249 437.824 724.039 M432.999 721.032 Q434.423 722.456 436.105 722.37 Q437.799 722.271 439.407 720.663 Q441.003 719.067 441.102 717.373 Q441.212 715.667 439.788 714.243 Q438.364 712.819 436.658 712.929 Q434.963 713.028 433.368 714.623 Q431.759 716.232 431.661 717.926 Q431.575 719.608 432.999 721.032 Z" fill="#000000" fill-rule="nonzero" fill-opacity="1" /><path clip-path="url(#clip160)" d="M442.452 702.274 L452.187 692.539 L454.274 694.626 L446.81 702.09 L451.303 706.583 Q451.659 705.858 452.113 705.232 Q452.555 704.594 453.095 704.054 Q456.164 700.985 459.638 700.874 Q463.113 700.764 465.985 703.636 Q468.944 706.595 468.747 710.081 Q468.539 713.555 465.187 716.907 Q464.033 718.061 462.634 719.067 Q461.247 720.062 459.577 720.946 L457.085 718.454 Q458.791 717.95 460.264 717.066 Q461.738 716.183 463.051 714.869 Q465.175 712.745 465.298 710.388 Q465.42 708.031 463.505 706.116 Q461.59 704.201 459.233 704.324 Q456.876 704.447 454.753 706.57 Q453.758 707.565 452.985 708.78 Q452.224 709.983 451.659 711.481 L442.452 702.274 Z" fill="#000000" fill-rule="nonzero" fill-opacity="1" /><path clip-path="url(#clip160)" d="M672.406 739.139 Q670.491 741.054 671.412 743.914 Q672.333 746.75 676.114 750.531 Q679.882 754.3 682.73 755.233 Q685.578 756.141 687.494 754.226 Q689.421 752.299 688.5 749.463 Q687.579 746.603 683.811 742.834 Q680.03 739.053 677.182 738.144 Q674.334 737.211 672.406 739.139 M670.442 737.175 Q673.523 734.093 677.587 734.916 Q681.65 735.714 686.29 740.354 Q690.919 744.982 691.729 749.058 Q692.539 753.109 689.458 756.19 Q686.376 759.272 682.313 758.474 Q678.25 757.651 673.622 753.023 Q668.981 748.383 668.171 744.332 Q667.361 740.256 670.442 737.175 Z" fill="#000000" fill-rule="nonzero" fill-opacity="1" /><path clip-path="url(#clip160)" d="M696.676 742.024 L699.266 739.433 L702.384 742.552 L699.794 745.142 L696.676 742.024 Z" fill="#000000" fill-rule="nonzero" fill-opacity="1" /><path clip-path="url(#clip160)" d="M707.479 736.696 L705.22 734.437 Q706.595 733.946 707.786 733.222 Q708.977 732.497 709.897 731.577 Q712.353 729.122 711.997 726.188 Q711.641 723.229 708.461 719.681 Q708.805 721.449 708.277 723.106 Q707.749 724.764 706.423 726.089 Q703.673 728.839 700.408 728.79 Q697.143 728.716 694.258 725.832 Q691.434 723.008 691.397 719.632 Q691.36 716.256 694.135 713.482 Q697.314 710.302 701.427 711.076 Q705.539 711.825 710.18 716.465 Q714.513 720.798 715.041 725.451 Q715.569 730.079 712.095 733.553 Q711.162 734.486 710.02 735.26 Q708.878 736.033 707.479 736.696 M704.643 723.99 Q706.313 722.321 706.141 720.209 Q705.981 718.085 703.993 716.097 Q702.016 714.12 699.892 713.961 Q697.769 713.776 696.099 715.446 Q694.43 717.116 694.601 719.252 Q694.773 721.363 696.75 723.339 Q698.738 725.328 700.85 725.5 Q702.974 725.66 704.643 723.99 Z" fill="#000000" fill-rule="nonzero" fill-opacity="1" /><path clip-path="url(#clip160)" d="M712.389 699.156 Q710.474 701.071 711.395 703.931 Q712.316 706.767 716.097 710.548 Q719.866 714.317 722.714 715.25 Q725.562 716.158 727.477 714.243 Q729.404 712.316 728.483 709.48 Q727.563 706.619 723.794 702.851 Q720.013 699.07 717.165 698.161 Q714.317 697.228 712.389 699.156 M710.425 697.191 Q713.507 694.11 717.57 694.933 Q721.633 695.731 726.274 700.371 Q730.902 704.999 731.712 709.075 Q732.522 713.126 729.441 716.207 Q726.36 719.288 722.296 718.49 Q718.233 717.668 713.605 713.04 Q708.964 708.399 708.154 704.348 Q707.344 700.273 710.425 697.191 Z" fill="#000000" fill-rule="nonzero" fill-opacity="1" /><path clip-path="url(#clip160)" d="M936.488 738.611 Q934.573 740.526 935.494 743.386 Q936.414 746.222 940.195 750.003 Q943.964 753.772 946.812 754.705 Q949.66 755.613 951.575 753.698 Q953.503 751.771 952.582 748.935 Q951.661 746.075 947.893 742.306 Q944.112 738.525 941.263 737.617 Q938.415 736.684 936.488 738.611 M934.524 736.647 Q937.605 733.565 941.669 734.388 Q945.732 735.186 950.372 739.826 Q955 744.454 955.811 748.53 Q956.621 752.581 953.54 755.662 Q950.458 758.744 946.395 757.946 Q942.331 757.123 937.703 752.495 Q933.063 747.855 932.253 743.804 Q931.443 739.728 934.524 736.647 Z" fill="#000000" fill-rule="nonzero" fill-opacity="1" /><path clip-path="url(#clip160)" d="M960.758 741.496 L963.348 738.906 L966.466 742.024 L963.876 744.614 L960.758 741.496 Z" fill="#000000" fill-rule="nonzero" fill-opacity="1" /><path clip-path="url(#clip160)" d="M971.561 736.168 L969.302 733.909 Q970.677 733.418 971.868 732.694 Q973.059 731.97 973.979 731.049 Q976.434 728.594 976.078 725.66 Q975.722 722.701 972.543 719.153 Q972.887 720.921 972.359 722.578 Q971.831 724.236 970.505 725.561 Q967.755 728.311 964.49 728.262 Q961.224 728.189 958.34 725.304 Q955.516 722.48 955.479 719.104 Q955.442 715.728 958.217 712.954 Q961.396 709.774 965.509 710.548 Q969.621 711.297 974.262 715.937 Q978.595 720.27 979.123 724.923 Q979.651 729.551 976.177 733.025 Q975.244 733.958 974.102 734.732 Q972.96 735.505 971.561 736.168 M968.725 723.462 Q970.395 721.793 970.223 719.681 Q970.063 717.557 968.074 715.569 Q966.098 713.592 963.974 713.433 Q961.85 713.249 960.181 714.918 Q958.511 716.588 958.683 718.724 Q958.855 720.835 960.832 722.812 Q962.82 724.8 964.932 724.972 Q967.056 725.132 968.725 723.462 Z" fill="#000000" fill-rule="nonzero" fill-opacity="1" /><path clip-path="url(#clip160)" d="M969.56 702.274 L979.295 692.539 L981.382 694.626 L973.918 702.09 L978.411 706.583 Q978.767 705.858 979.221 705.232 Q979.663 704.594 980.203 704.054 Q983.272 700.985 986.746 700.874 Q990.221 700.764 993.093 703.636 Q996.052 706.595 995.855 710.081 Q995.647 713.555 992.295 716.907 Q991.141 718.061 989.742 719.067 Q988.355 720.062 986.685 720.946 L984.193 718.454 Q985.899 717.95 987.372 717.066 Q988.846 716.183 990.159 714.869 Q992.283 712.745 992.406 710.388 Q992.528 708.031 990.613 706.116 Q988.698 704.201 986.341 704.324 Q983.984 704.447 981.861 706.57 Q980.866 707.565 980.093 708.78 Q979.332 709.983 978.767 711.481 L969.56 702.274 Z" fill="#000000" fill-rule="nonzero" fill-opacity="1" /><polyline clip-path="url(#clip160)" style="stroke:#000000; stroke-linecap:round; stroke-linejoin:round; stroke-width:4; stroke-opacity:1; fill:none" points="161.818,667.406 161.818,97.5521 "/>
<polyline clip-path="url(#clip160)" style="stroke:#000000; stroke-linecap:round; stroke-linejoin:round; stroke-width:4; stroke-opacity:1; fill:none" points="161.818,651.278 180.716,651.278 "/>
<polyline clip-path="url(#clip160)" style="stroke:#000000; stroke-linecap:round; stroke-linejoin:round; stroke-width:4; stroke-opacity:1; fill:none" points="161.818,500.861 180.716,500.861 "/>
<polyline clip-path="url(#clip160)" style="stroke:#000000; stroke-linecap:round; stroke-linejoin:round; stroke-width:4; stroke-opacity:1; fill:none" points="161.818,350.443 180.716,350.443 "/>
<polyline clip-path="url(#clip160)" style="stroke:#000000; stroke-linecap:round; stroke-linejoin:round; stroke-width:4; stroke-opacity:1; fill:none" points="161.818,200.025 180.716,200.025 "/>
<path clip-path="url(#clip160)" d="M116.86 640.627 Q114.152 640.627 112.78 643.301 Q111.426 645.957 111.426 651.304 Q111.426 656.634 112.78 659.308 Q114.152 661.964 116.86 661.964 Q119.586 661.964 120.94 659.308 Q122.311 656.634 122.311 651.304 Q122.311 645.957 120.94 643.301 Q119.586 640.627 116.86 640.627 M116.86 637.85 Q121.217 637.85 123.509 641.305 Q125.818 644.742 125.818 651.304 Q125.818 657.85 123.509 661.304 Q121.217 664.742 116.86 664.742 Q112.502 664.742 110.193 661.304 Q107.902 657.85 107.902 651.304 Q107.902 644.742 110.193 641.305 Q112.502 637.85 116.86 637.85 Z" fill="#000000" fill-rule="nonzero" fill-opacity="1" /><path clip-path="url(#clip160)" d="M110.888 510.869 L116.617 510.869 L116.617 491.095 L110.384 492.345 L110.384 489.151 L116.582 487.901 L120.089 487.901 L120.089 510.869 L125.818 510.869 L125.818 513.821 L110.888 513.821 L110.888 510.869 Z" fill="#000000" fill-rule="nonzero" fill-opacity="1" /><path clip-path="url(#clip160)" d="M113.579 360.452 L125.818 360.452 L125.818 363.403 L109.36 363.403 L109.36 360.452 Q111.356 358.386 114.794 354.913 Q118.249 351.424 119.134 350.417 Q120.818 348.525 121.478 347.222 Q122.155 345.903 122.155 344.636 Q122.155 342.57 120.697 341.268 Q119.256 339.966 116.929 339.966 Q115.28 339.966 113.44 340.538 Q111.617 341.111 109.533 342.275 L109.533 338.733 Q111.652 337.882 113.492 337.448 Q115.332 337.014 116.86 337.014 Q120.888 337.014 123.283 339.028 Q125.679 341.042 125.679 344.41 Q125.679 346.007 125.072 347.448 Q124.481 348.872 122.901 350.816 Q122.467 351.32 120.141 353.733 Q117.815 356.129 113.579 360.452 Z" fill="#000000" fill-rule="nonzero" fill-opacity="1" /><path clip-path="url(#clip160)" d="M120.471 199.01 Q122.988 199.548 124.395 201.249 Q125.818 202.95 125.818 205.45 Q125.818 209.287 123.179 211.388 Q120.54 213.489 115.679 213.489 Q114.047 213.489 112.311 213.159 Q110.593 212.846 108.752 212.204 L108.752 208.818 Q110.211 209.669 111.947 210.103 Q113.683 210.537 115.575 210.537 Q118.874 210.537 120.592 209.235 Q122.329 207.933 122.329 205.45 Q122.329 203.159 120.714 201.874 Q119.117 200.572 116.252 200.572 L113.231 200.572 L113.231 197.69 L116.391 197.69 Q118.978 197.69 120.349 196.666 Q121.721 195.624 121.721 193.68 Q121.721 191.683 120.297 190.624 Q118.891 189.548 116.252 189.548 Q114.811 189.548 113.162 189.86 Q111.513 190.173 109.533 190.832 L109.533 187.707 Q111.53 187.152 113.266 186.874 Q115.02 186.596 116.565 186.596 Q120.558 186.596 122.884 188.419 Q125.21 190.225 125.21 193.315 Q125.21 195.468 123.978 196.961 Q122.745 198.437 120.471 199.01 Z" fill="#000000" fill-rule="nonzero" fill-opacity="1" /><path clip-path="url(#clip160)" d="M163.901 20.1758 Q165.313 17.8147 168.809 15.7314 Q170.175 14.9212 174.387 14.9212 Q179.11 14.9212 182.049 18.6712 Q185.012 22.4212 185.012 28.5323 Q185.012 34.6433 182.049 38.3933 Q179.11 42.1433 174.387 42.1433 Q171.54 42.1433 169.48 41.0322 Q167.443 39.8979 166.1 37.5831 L166.1 51.3331 L161.818 51.3331 L161.818 28.7637 Q161.818 23.4165 163.901 20.1758 M180.591 28.5323 Q180.591 23.8332 178.647 21.1712 Q176.725 18.486 173.346 18.486 Q169.966 18.486 168.022 21.1712 Q166.1 23.8332 166.1 28.5323 Q166.1 33.2313 168.022 35.9165 Q169.966 38.5785 173.346 38.5785 Q176.725 38.5785 178.647 35.9165 Q180.591 33.2313 180.591 28.5323 Z" fill="#000000" fill-rule="nonzero" fill-opacity="1" /><polyline clip-path="url(#clip162)" style="stroke:#009af9; stroke-linecap:round; stroke-linejoin:round; stroke-width:4; stroke-opacity:1; fill:none" points="189.869,586.07 248.307,590.903 306.746,596.333 365.185,602.48 423.623,609.492 482.062,617.567 540.501,626.965 598.939,638.038 657.378,651.278 715.817,635.168 774.256,615.14 832.694,589.565 891.133,555.765 949.572,508.99 1008.01,439.949 1066.45,327.696 1124.89,113.68 "/>
<circle clip-path="url(#clip162)" cx="657.378" cy="651.278" r="10.8" fill="#ff0000" fill-rule="evenodd" fill-opacity="1" stroke="#000000" stroke-opacity="1" stroke-width="3.2"/>
<path clip-path="url(#clip160)" d="M1361.64 667.406 L2352.76 667.406 L2352.76 97.5521 L1361.64 97.5521  Z" fill="#ffffff" fill-rule="evenodd" fill-opacity="1"/>
<defs>
  <clipPath id="clip163">
    <rect x="1361" y="97" width="992" height="571"/>
  </clipPath>
</defs>
<polyline clip-path="url(#clip163)" style="stroke:#000000; stroke-linecap:round; stroke-linejoin:round; stroke-width:2; stroke-opacity:0.1; fill:none" points="1457.59,667.406 1457.59,97.5521 "/>
<polyline clip-path="url(#clip163)" style="stroke:#000000; stroke-linecap:round; stroke-linejoin:round; stroke-width:2; stroke-opacity:0.1; fill:none" points="1600.11,667.406 1600.11,97.5521 "/>
<polyline clip-path="url(#clip163)" style="stroke:#000000; stroke-linecap:round; stroke-linejoin:round; stroke-width:2; stroke-opacity:0.1; fill:none" points="1742.62,667.406 1742.62,97.5521 "/>
<polyline clip-path="url(#clip163)" style="stroke:#000000; stroke-linecap:round; stroke-linejoin:round; stroke-width:2; stroke-opacity:0.1; fill:none" points="1885.14,667.406 1885.14,97.5521 "/>
<polyline clip-path="url(#clip163)" style="stroke:#000000; stroke-linecap:round; stroke-linejoin:round; stroke-width:2; stroke-opacity:0.1; fill:none" points="2027.65,667.406 2027.65,97.5521 "/>
<polyline clip-path="url(#clip163)" style="stroke:#000000; stroke-linecap:round; stroke-linejoin:round; stroke-width:2; stroke-opacity:0.1; fill:none" points="2170.17,667.406 2170.17,97.5521 "/>
<polyline clip-path="url(#clip163)" style="stroke:#000000; stroke-linecap:round; stroke-linejoin:round; stroke-width:2; stroke-opacity:0.1; fill:none" points="2312.69,667.406 2312.69,97.5521 "/>
<polyline clip-path="url(#clip163)" style="stroke:#000000; stroke-linecap:round; stroke-linejoin:round; stroke-width:2; stroke-opacity:0.1; fill:none" points="1361.64,651.278 2352.76,651.278 "/>
<polyline clip-path="url(#clip163)" style="stroke:#000000; stroke-linecap:round; stroke-linejoin:round; stroke-width:2; stroke-opacity:0.1; fill:none" points="1361.64,508.096 2352.76,508.096 "/>
<polyline clip-path="url(#clip163)" style="stroke:#000000; stroke-linecap:round; stroke-linejoin:round; stroke-width:2; stroke-opacity:0.1; fill:none" points="1361.64,364.913 2352.76,364.913 "/>
<polyline clip-path="url(#clip163)" style="stroke:#000000; stroke-linecap:round; stroke-linejoin:round; stroke-width:2; stroke-opacity:0.1; fill:none" points="1361.64,221.73 2352.76,221.73 "/>
<polyline clip-path="url(#clip160)" style="stroke:#000000; stroke-linecap:round; stroke-linejoin:round; stroke-width:4; stroke-opacity:1; fill:none" points="1361.64,667.406 2352.76,667.406 "/>
<polyline clip-path="url(#clip160)" style="stroke:#000000; stroke-linecap:round; stroke-linejoin:round; stroke-width:4; stroke-opacity:1; fill:none" points="1457.59,667.406 1457.59,648.509 "/>
<polyline clip-path="url(#clip160)" style="stroke:#000000; stroke-linecap:round; stroke-linejoin:round; stroke-width:4; stroke-opacity:1; fill:none" points="1600.11,667.406 1600.11,648.509 "/>
<polyline clip-path="url(#clip160)" style="stroke:#000000; stroke-linecap:round; stroke-linejoin:round; stroke-width:4; stroke-opacity:1; fill:none" points="1742.62,667.406 1742.62,648.509 "/>
<polyline clip-path="url(#clip160)" style="stroke:#000000; stroke-linecap:round; stroke-linejoin:round; stroke-width:4; stroke-opacity:1; fill:none" points="1885.14,667.406 1885.14,648.509 "/>
<polyline clip-path="url(#clip160)" style="stroke:#000000; stroke-linecap:round; stroke-linejoin:round; stroke-width:4; stroke-opacity:1; fill:none" points="2027.65,667.406 2027.65,648.509 "/>
<polyline clip-path="url(#clip160)" style="stroke:#000000; stroke-linecap:round; stroke-linejoin:round; stroke-width:4; stroke-opacity:1; fill:none" points="2170.17,667.406 2170.17,648.509 "/>
<polyline clip-path="url(#clip160)" style="stroke:#000000; stroke-linecap:round; stroke-linejoin:round; stroke-width:4; stroke-opacity:1; fill:none" points="2312.69,667.406 2312.69,648.509 "/>
<path clip-path="url(#clip160)" d="M1403.74 739.139 Q1401.83 741.054 1402.75 743.914 Q1403.67 746.75 1407.45 750.531 Q1411.22 754.3 1414.06 755.233 Q1416.91 756.141 1418.83 754.226 Q1420.76 752.299 1419.83 749.463 Q1418.91 746.603 1415.14 742.834 Q1411.36 739.053 1408.52 738.144 Q1405.67 737.211 1403.74 739.139 M1401.78 737.175 Q1404.86 734.093 1408.92 734.916 Q1412.98 735.714 1417.62 740.354 Q1422.25 744.982 1423.06 749.058 Q1423.87 753.109 1420.79 756.19 Q1417.71 759.272 1413.65 758.474 Q1409.58 757.651 1404.96 753.023 Q1400.32 748.383 1399.51 744.332 Q1398.69 740.256 1401.78 737.175 Z" fill="#000000" fill-rule="nonzero" fill-opacity="1" /><path clip-path="url(#clip160)" d="M1428.01 742.024 L1430.6 739.433 L1433.72 742.552 L1431.13 745.142 L1428.01 742.024 Z" fill="#000000" fill-rule="nonzero" fill-opacity="1" /><path clip-path="url(#clip160)" d="M1436.75 719.755 Q1438.91 718.355 1441.11 718.564 Q1443.32 718.761 1445.09 720.528 Q1447.8 723.241 1447.42 726.593 Q1447.04 729.944 1443.6 733.381 Q1442.45 734.535 1440.99 735.53 Q1439.55 736.524 1437.79 737.371 L1435.4 734.977 Q1437.03 734.548 1438.57 733.627 Q1440.1 732.706 1441.44 731.368 Q1443.77 729.036 1444.07 726.9 Q1444.37 724.751 1442.62 722.996 Q1441 721.375 1438.95 721.609 Q1436.9 721.817 1434.87 723.843 L1432.74 725.979 L1430.7 723.941 L1432.93 721.707 Q1434.76 719.878 1435.01 718.184 Q1435.24 716.477 1433.87 715.102 Q1432.45 713.69 1430.7 713.948 Q1428.94 714.182 1427.08 716.047 Q1426.06 717.066 1425.11 718.454 Q1424.17 719.841 1423.23 721.707 L1421.03 719.497 Q1422.04 717.692 1423.08 716.268 Q1424.12 714.832 1425.21 713.74 Q1428.03 710.916 1430.97 710.56 Q1433.89 710.192 1436.08 712.377 Q1437.6 713.899 1437.78 715.827 Q1437.95 717.742 1436.75 719.755 Z" fill="#000000" fill-rule="nonzero" fill-opacity="1" /><path clip-path="url(#clip160)" d="M1443.72 699.156 Q1441.81 701.071 1442.73 703.931 Q1443.65 706.767 1447.43 710.548 Q1451.2 714.317 1454.05 715.25 Q1456.9 716.158 1458.81 714.243 Q1460.74 712.316 1459.82 709.48 Q1458.9 706.619 1455.13 702.851 Q1451.35 699.07 1448.5 698.161 Q1445.65 697.228 1443.72 699.156 M1441.76 697.191 Q1444.84 694.11 1448.9 694.933 Q1452.97 695.731 1457.61 700.371 Q1462.24 704.999 1463.05 709.075 Q1463.86 713.126 1460.78 716.207 Q1457.69 719.288 1453.63 718.49 Q1449.57 717.668 1444.94 713.04 Q1440.3 708.399 1439.49 704.348 Q1438.68 700.273 1441.76 697.191 Z" fill="#000000" fill-rule="nonzero" fill-opacity="1" /><path clip-path="url(#clip160)" d="M1546.91 738.488 Q1544.99 740.403 1545.91 743.264 Q1546.83 746.099 1550.61 749.88 Q1554.38 753.649 1557.23 754.582 Q1560.08 755.491 1561.99 753.576 Q1563.92 751.648 1563 748.812 Q1562.08 745.952 1558.31 742.183 Q1554.53 738.402 1551.68 737.494 Q1548.83 736.561 1546.91 738.488 M1544.94 736.524 Q1548.02 733.443 1552.09 734.265 Q1556.15 735.063 1560.79 739.704 Q1565.42 744.332 1566.23 748.407 Q1567.04 752.458 1563.96 755.54 Q1560.88 758.621 1556.81 757.823 Q1552.75 757.001 1548.12 752.372 Q1543.48 747.732 1542.67 743.681 Q1541.86 739.605 1544.94 736.524 Z" fill="#000000" fill-rule="nonzero" fill-opacity="1" /><path clip-path="url(#clip160)" d="M1571.18 741.373 L1573.77 738.783 L1576.89 741.901 L1574.3 744.491 L1571.18 741.373 Z" fill="#000000" fill-rule="nonzero" fill-opacity="1" /><path clip-path="url(#clip160)" d="M1579.92 719.104 Q1582.08 717.705 1584.28 717.913 Q1586.49 718.11 1588.25 719.878 Q1590.97 722.591 1590.59 725.942 Q1590.21 729.293 1586.77 732.731 Q1585.61 733.885 1584.15 734.879 Q1582.72 735.873 1580.96 736.72 L1578.57 734.327 Q1580.2 733.897 1581.73 732.976 Q1583.27 732.056 1584.61 730.717 Q1586.94 728.385 1587.23 726.249 Q1587.54 724.101 1585.79 722.345 Q1584.17 720.725 1582.12 720.958 Q1580.07 721.167 1578.04 723.192 L1575.9 725.328 L1573.87 723.29 L1576.1 721.056 Q1577.93 719.227 1578.17 717.533 Q1578.41 715.827 1577.03 714.452 Q1575.62 713.04 1573.87 713.298 Q1572.11 713.531 1570.24 715.397 Q1569.23 716.416 1568.28 717.803 Q1567.33 719.19 1566.4 721.056 L1564.19 718.846 Q1565.21 717.042 1566.24 715.618 Q1567.29 714.182 1568.38 713.089 Q1571.2 710.265 1574.14 709.909 Q1577.06 709.541 1579.24 711.726 Q1580.76 713.249 1580.95 715.176 Q1581.12 717.091 1579.92 719.104 Z" fill="#000000" fill-rule="nonzero" fill-opacity="1" /><path clip-path="url(#clip160)" d="M1596.63 717.987 L1600.68 713.936 L1586.69 699.954 L1583.17 705.245 L1580.91 702.986 L1584.41 697.719 L1586.89 695.24 L1603.13 711.481 L1607.18 707.43 L1609.27 709.517 L1598.71 720.074 L1596.63 717.987 Z" fill="#000000" fill-rule="nonzero" fill-opacity="1" /><path clip-path="url(#clip160)" d="M1689.62 738.292 Q1687.7 740.207 1688.63 743.067 Q1689.55 745.903 1693.33 749.684 Q1697.1 753.453 1699.94 754.386 Q1702.79 755.294 1704.71 753.379 Q1706.63 751.452 1705.71 748.616 Q1704.79 745.756 1701.02 741.987 Q1697.24 738.206 1694.4 737.297 Q1691.55 736.364 1689.62 738.292 M1687.66 736.328 Q1690.74 733.246 1694.8 734.069 Q1698.86 734.867 1703.5 739.507 Q1708.13 744.135 1708.94 748.211 Q1709.75 752.262 1706.67 755.343 Q1703.59 758.425 1699.53 757.627 Q1695.46 756.804 1690.84 752.176 Q1686.19 747.536 1685.38 743.485 Q1684.57 739.409 1687.66 736.328 Z" fill="#000000" fill-rule="nonzero" fill-opacity="1" /><path clip-path="url(#clip160)" d="M1713.89 741.177 L1716.48 738.586 L1719.6 741.705 L1717.01 744.295 L1713.89 741.177 Z" fill="#000000" fill-rule="nonzero" fill-opacity="1" /><path clip-path="url(#clip160)" d="M1722.63 718.908 Q1724.79 717.508 1726.99 717.717 Q1729.2 717.913 1730.97 719.681 Q1733.68 722.394 1733.3 725.746 Q1732.92 729.097 1729.48 732.534 Q1728.33 733.688 1726.87 734.683 Q1725.43 735.677 1723.67 736.524 L1721.28 734.13 Q1722.91 733.701 1724.45 732.78 Q1725.98 731.859 1727.32 730.521 Q1729.65 728.189 1729.95 726.053 Q1730.25 723.904 1728.5 722.149 Q1726.88 720.528 1724.83 720.762 Q1722.78 720.97 1720.75 722.996 L1718.62 725.132 L1716.58 723.094 L1718.81 720.86 Q1720.64 719.031 1720.89 717.336 Q1721.12 715.63 1719.75 714.255 Q1718.33 712.843 1716.58 713.101 Q1714.82 713.334 1712.96 715.2 Q1711.94 716.219 1710.99 717.607 Q1710.05 718.994 1709.11 720.86 L1706.9 718.65 Q1707.92 716.845 1708.95 715.421 Q1710 713.985 1711.09 712.893 Q1713.91 710.069 1716.85 709.713 Q1719.77 709.345 1721.96 711.53 Q1723.48 713.052 1723.66 714.979 Q1723.83 716.895 1722.63 718.908 Z" fill="#000000" fill-rule="nonzero" fill-opacity="1" /><path clip-path="url(#clip160)" d="M1741.04 716.084 L1749.7 707.43 L1751.79 709.517 L1740.15 721.154 L1738.06 719.067 Q1738.01 716.195 1737.99 711.309 Q1737.96 706.398 1737.88 705.06 Q1737.73 702.532 1737.28 701.144 Q1736.82 699.733 1735.93 698.836 Q1734.46 697.376 1732.51 697.486 Q1730.57 697.584 1728.93 699.229 Q1727.76 700.395 1726.87 702.102 Q1725.98 703.796 1725.33 706.092 L1722.83 703.587 Q1723.72 701.488 1724.72 699.88 Q1725.71 698.272 1726.79 697.191 Q1729.64 694.343 1732.76 694.073 Q1735.88 693.803 1738.26 696.185 Q1739.39 697.314 1739.98 698.763 Q1740.57 700.187 1740.82 702.679 Q1740.87 703.342 1740.93 706.693 Q1740.98 710.032 1741.04 716.084 Z" fill="#000000" fill-rule="nonzero" fill-opacity="1" /><path clip-path="url(#clip160)" d="M1831.63 738.795 Q1829.72 740.71 1830.64 743.571 Q1831.56 746.406 1835.34 750.187 Q1839.11 753.956 1841.96 754.889 Q1844.81 755.797 1846.72 753.882 Q1848.65 751.955 1847.73 749.119 Q1846.81 746.259 1843.04 742.49 Q1839.26 738.709 1836.41 737.801 Q1833.56 736.868 1831.63 738.795 M1829.67 736.831 Q1832.75 733.75 1836.81 734.572 Q1840.88 735.37 1845.52 740.01 Q1850.15 744.639 1850.96 748.714 Q1851.77 752.765 1848.68 755.847 Q1845.6 758.928 1841.54 758.13 Q1837.48 757.307 1832.85 752.679 Q1828.21 748.039 1827.4 743.988 Q1826.59 739.912 1829.67 736.831 Z" fill="#000000" fill-rule="nonzero" fill-opacity="1" /><path clip-path="url(#clip160)" d="M1855.9 741.68 L1858.49 739.09 L1861.61 742.208 L1859.02 744.798 L1855.9 741.68 Z" fill="#000000" fill-rule="nonzero" fill-opacity="1" /><path clip-path="url(#clip160)" d="M1864.64 719.411 Q1866.8 718.012 1869 718.22 Q1871.21 718.417 1872.98 720.185 Q1875.69 722.898 1875.31 726.249 Q1874.93 729.6 1871.49 733.038 Q1870.34 734.192 1868.88 735.186 Q1867.44 736.18 1865.69 737.027 L1863.29 734.634 Q1864.93 734.204 1866.46 733.283 Q1867.99 732.362 1869.33 731.024 Q1871.67 728.692 1871.96 726.556 Q1872.27 724.408 1870.51 722.652 Q1868.89 721.032 1866.84 721.265 Q1864.79 721.474 1862.77 723.499 L1860.63 725.635 L1858.59 723.597 L1860.83 721.363 Q1862.65 719.534 1862.9 717.84 Q1863.13 716.133 1861.76 714.759 Q1860.35 713.347 1858.59 713.605 Q1856.84 713.838 1854.97 715.704 Q1853.95 716.723 1853.01 718.11 Q1852.06 719.497 1851.13 721.363 L1848.92 719.153 Q1849.94 717.349 1850.97 715.925 Q1852.01 714.488 1853.1 713.396 Q1855.93 710.572 1858.86 710.216 Q1861.78 709.848 1863.97 712.033 Q1865.49 713.555 1865.67 715.483 Q1865.85 717.398 1864.64 719.411 Z" fill="#000000" fill-rule="nonzero" fill-opacity="1" /><path clip-path="url(#clip160)" d="M1880.64 703.415 Q1882.8 702.016 1885 702.225 Q1887.21 702.421 1888.97 704.189 Q1891.69 706.902 1891.31 710.253 Q1890.93 713.605 1887.49 717.042 Q1886.34 718.196 1884.87 719.19 Q1883.44 720.185 1881.68 721.032 L1879.29 718.638 Q1880.92 718.208 1882.46 717.287 Q1883.99 716.367 1885.33 715.029 Q1887.66 712.696 1887.96 710.56 Q1888.26 708.412 1886.51 706.656 Q1884.89 705.036 1882.84 705.269 Q1880.79 705.478 1878.76 707.503 L1876.62 709.639 L1874.59 707.602 L1876.82 705.367 Q1878.65 703.538 1878.9 701.844 Q1879.13 700.138 1877.75 698.763 Q1876.34 697.351 1874.59 697.609 Q1872.83 697.842 1870.97 699.708 Q1869.95 700.727 1869 702.114 Q1868.06 703.501 1867.12 705.367 L1864.91 703.158 Q1865.93 701.353 1866.96 699.929 Q1868.01 698.493 1869.1 697.4 Q1871.92 694.577 1874.86 694.221 Q1877.78 693.852 1879.96 696.037 Q1881.49 697.56 1881.67 699.487 Q1881.84 701.402 1880.64 703.415 Z" fill="#000000" fill-rule="nonzero" fill-opacity="1" /><path clip-path="url(#clip160)" d="M1973.55 739.397 Q1971.63 741.312 1972.55 744.172 Q1973.47 747.008 1977.26 750.789 Q1981.02 754.558 1983.87 755.491 Q1986.72 756.399 1988.64 754.484 Q1990.56 752.557 1989.64 749.721 Q1988.72 746.86 1984.95 743.092 Q1981.17 739.311 1978.32 738.402 Q1975.48 737.469 1973.55 739.397 M1971.58 737.432 Q1974.66 734.351 1978.73 735.174 Q1982.79 735.972 1987.43 740.612 Q1992.06 745.24 1992.87 749.316 Q1993.68 753.367 1990.6 756.448 Q1987.52 759.529 1983.45 758.731 Q1979.39 757.909 1974.76 753.281 Q1970.12 748.641 1969.31 744.589 Q1968.5 740.514 1971.58 737.432 Z" fill="#000000" fill-rule="nonzero" fill-opacity="1" /><path clip-path="url(#clip160)" d="M1997.82 742.282 L2000.41 739.691 L2003.53 742.809 L2000.94 745.4 L1997.82 742.282 Z" fill="#000000" fill-rule="nonzero" fill-opacity="1" /><path clip-path="url(#clip160)" d="M2006.56 720.013 Q2008.72 718.613 2010.92 718.822 Q2013.13 719.018 2014.89 720.786 Q2017.61 723.499 2017.23 726.85 Q2016.85 730.202 2013.41 733.639 Q2012.25 734.793 2010.79 735.787 Q2009.36 736.782 2007.6 737.629 L2005.21 735.235 Q2006.84 734.805 2008.38 733.885 Q2009.91 732.964 2011.25 731.626 Q2013.58 729.293 2013.87 727.157 Q2014.18 725.009 2012.43 723.254 Q2010.81 721.633 2008.76 721.866 Q2006.71 722.075 2004.68 724.101 L2002.54 726.237 L2000.51 724.199 L2002.74 721.965 Q2004.57 720.135 2004.81 718.441 Q2005.05 716.735 2003.67 715.36 Q2002.26 713.948 2000.51 714.206 Q1998.75 714.439 1996.88 716.305 Q1995.87 717.324 1994.92 718.711 Q1993.98 720.099 1993.04 721.965 L1990.83 719.755 Q1991.85 717.95 1992.88 716.526 Q1993.93 715.09 1995.02 713.997 Q1997.84 711.174 2000.78 710.818 Q2003.7 710.45 2005.88 712.635 Q2007.41 714.157 2007.59 716.084 Q2007.76 717.999 2006.56 720.013 Z" fill="#000000" fill-rule="nonzero" fill-opacity="1" /><path clip-path="url(#clip160)" d="M2015.57 698.431 L2019.09 714.476 L2025.35 708.215 L2015.57 698.431 M2012.76 696.921 L2015.88 693.803 L2027.82 705.748 L2030.44 703.133 L2032.5 705.195 L2029.88 707.81 L2034.2 712.131 L2031.74 714.599 L2027.42 710.278 L2019.14 718.552 L2016.75 716.158 L2012.76 696.921 Z" fill="#000000" fill-rule="nonzero" fill-opacity="1" /><path clip-path="url(#clip160)" d="M2116.85 738.611 Q2114.93 740.526 2115.86 743.386 Q2116.78 746.222 2120.56 750.003 Q2124.33 753.772 2127.17 754.705 Q2130.02 755.613 2131.94 753.698 Q2133.86 751.771 2132.94 748.935 Q2132.02 746.075 2128.25 742.306 Q2124.47 738.525 2121.63 737.617 Q2118.78 736.684 2116.85 738.611 M2114.89 736.647 Q2117.97 733.565 2122.03 734.388 Q2126.09 735.186 2130.73 739.826 Q2135.36 744.454 2136.17 748.53 Q2136.98 752.581 2133.9 755.662 Q2130.82 758.744 2126.76 757.946 Q2122.69 757.123 2118.07 752.495 Q2113.42 747.855 2112.61 743.804 Q2111.8 739.728 2114.89 736.647 Z" fill="#000000" fill-rule="nonzero" fill-opacity="1" /><path clip-path="url(#clip160)" d="M2141.12 741.496 L2143.71 738.906 L2146.83 742.024 L2144.24 744.614 L2141.12 741.496 Z" fill="#000000" fill-rule="nonzero" fill-opacity="1" /><path clip-path="url(#clip160)" d="M2149.86 719.227 Q2152.02 717.828 2154.22 718.036 Q2156.43 718.233 2158.2 720 Q2160.91 722.713 2160.53 726.065 Q2160.15 729.416 2156.71 732.853 Q2155.56 734.007 2154.1 735.002 Q2152.66 735.996 2150.9 736.843 L2148.51 734.449 Q2150.14 734.02 2151.68 733.099 Q2153.21 732.178 2154.55 730.84 Q2156.88 728.508 2157.18 726.372 Q2157.48 724.223 2155.73 722.468 Q2154.11 720.847 2152.06 721.081 Q2150.01 721.289 2147.98 723.315 L2145.85 725.451 L2143.81 723.413 L2146.04 721.179 Q2147.87 719.35 2148.12 717.656 Q2148.35 715.949 2146.98 714.574 Q2145.56 713.163 2143.81 713.42 Q2142.05 713.654 2140.19 715.52 Q2139.17 716.539 2138.22 717.926 Q2137.28 719.313 2136.34 721.179 L2134.13 718.969 Q2135.15 717.165 2136.18 715.741 Q2137.23 714.304 2138.32 713.212 Q2141.14 710.388 2144.08 710.032 Q2147 709.664 2149.18 711.849 Q2150.71 713.371 2150.89 715.299 Q2151.06 717.214 2149.86 719.227 Z" fill="#000000" fill-rule="nonzero" fill-opacity="1" /><path clip-path="url(#clip160)" d="M2149.92 702.274 L2159.66 692.539 L2161.74 694.626 L2154.28 702.09 L2158.77 706.583 Q2159.13 705.858 2159.58 705.232 Q2160.02 704.594 2160.56 704.054 Q2163.63 700.985 2167.11 700.874 Q2170.58 700.764 2173.45 703.636 Q2176.41 706.595 2176.22 710.081 Q2176.01 713.555 2172.66 716.907 Q2171.5 718.061 2170.1 719.067 Q2168.72 720.062 2167.05 720.946 L2164.55 718.454 Q2166.26 717.95 2167.73 717.066 Q2169.21 716.183 2170.52 714.869 Q2172.64 712.745 2172.77 710.388 Q2172.89 708.031 2170.97 706.116 Q2169.06 704.201 2166.7 704.324 Q2164.35 704.447 2162.22 706.57 Q2161.23 707.565 2160.45 708.78 Q2159.69 709.983 2159.13 711.481 L2149.92 702.274 Z" fill="#000000" fill-rule="nonzero" fill-opacity="1" /><path clip-path="url(#clip160)" d="M2258.75 739.225 Q2256.84 741.14 2257.76 744 Q2258.68 746.836 2262.46 750.617 Q2266.23 754.386 2269.08 755.319 Q2271.92 756.227 2273.84 754.312 Q2275.77 752.385 2274.85 749.549 Q2273.93 746.689 2270.16 742.92 Q2266.38 739.139 2263.53 738.23 Q2260.68 737.297 2258.75 739.225 M2256.79 737.261 Q2259.87 734.179 2263.93 735.002 Q2268 735.8 2272.64 740.44 Q2277.26 745.068 2278.07 749.144 Q2278.88 753.195 2275.8 756.276 Q2272.72 759.358 2268.66 758.56 Q2264.6 757.737 2259.97 753.109 Q2255.33 748.469 2254.52 744.418 Q2253.71 740.342 2256.79 737.261 Z" fill="#000000" fill-rule="nonzero" fill-opacity="1" /><path clip-path="url(#clip160)" d="M2283.02 742.11 L2285.61 739.519 L2288.73 742.638 L2286.14 745.228 L2283.02 742.11 Z" fill="#000000" fill-rule="nonzero" fill-opacity="1" /><path clip-path="url(#clip160)" d="M2291.76 719.841 Q2293.92 718.441 2296.12 718.65 Q2298.33 718.846 2300.1 720.614 Q2302.81 723.327 2302.43 726.679 Q2302.05 730.03 2298.61 733.467 Q2297.46 734.621 2296 735.616 Q2294.56 736.61 2292.81 737.457 L2290.41 735.063 Q2292.04 734.634 2293.58 733.713 Q2295.11 732.792 2296.45 731.454 Q2298.78 729.122 2299.08 726.985 Q2299.39 724.837 2297.63 723.082 Q2296.01 721.461 2293.96 721.695 Q2291.91 721.903 2289.88 723.929 L2287.75 726.065 L2285.71 724.027 L2287.94 721.793 Q2289.77 719.964 2290.02 718.269 Q2290.25 716.563 2288.88 715.188 Q2287.47 713.776 2285.71 714.034 Q2283.95 714.267 2282.09 716.133 Q2281.07 717.152 2280.12 718.54 Q2279.18 719.927 2278.25 721.793 L2276.04 719.583 Q2277.06 717.778 2278.09 716.354 Q2279.13 714.918 2280.22 713.826 Q2283.05 711.002 2285.98 710.646 Q2288.9 710.278 2291.09 712.463 Q2292.61 713.985 2292.79 715.912 Q2292.97 717.828 2291.76 719.841 Z" fill="#000000" fill-rule="nonzero" fill-opacity="1" /><path clip-path="url(#clip160)" d="M2305.59 705.478 Q2303.92 707.147 2304.08 709.271 Q2304.25 711.383 2306.24 713.371 Q2308.21 715.348 2310.34 715.532 Q2312.46 715.691 2314.13 714.022 Q2315.8 712.352 2315.63 710.241 Q2315.46 708.105 2313.48 706.128 Q2311.49 704.14 2309.37 703.98 Q2307.25 703.808 2305.59 705.478 M2302.74 692.784 L2305 695.043 Q2303.62 695.534 2302.43 696.258 Q2301.25 696.97 2300.32 697.903 Q2297.86 700.359 2298.22 703.317 Q2298.59 706.263 2301.76 709.799 Q2301.41 708.007 2301.94 706.349 Q2302.46 704.68 2303.77 703.366 Q2306.53 700.604 2309.81 700.69 Q2313.09 700.751 2315.97 703.636 Q2318.79 706.46 2318.83 709.836 Q2318.87 713.212 2316.09 715.986 Q2312.91 719.166 2308.8 718.417 Q2304.68 717.656 2300.05 713.028 Q2295.7 708.682 2295.19 704.041 Q2294.66 699.389 2298.13 695.915 Q2299.07 694.982 2300.2 694.221 Q2301.34 693.447 2302.74 692.784 Z" fill="#000000" fill-rule="nonzero" fill-opacity="1" /><polyline clip-path="url(#clip160)" style="stroke:#000000; stroke-linecap:round; stroke-linejoin:round; stroke-width:4; stroke-opacity:1; fill:none" points="1361.64,667.406 1361.64,97.5521 "/>
<polyline clip-path="url(#clip160)" style="stroke:#000000; stroke-linecap:round; stroke-linejoin:round; stroke-width:4; stroke-opacity:1; fill:none" points="1361.64,651.278 1380.53,651.278 "/>
<polyline clip-path="url(#clip160)" style="stroke:#000000; stroke-linecap:round; stroke-linejoin:round; stroke-width:4; stroke-opacity:1; fill:none" points="1361.64,508.096 1380.53,508.096 "/>
<polyline clip-path="url(#clip160)" style="stroke:#000000; stroke-linecap:round; stroke-linejoin:round; stroke-width:4; stroke-opacity:1; fill:none" points="1361.64,364.913 1380.53,364.913 "/>
<polyline clip-path="url(#clip160)" style="stroke:#000000; stroke-linecap:round; stroke-linejoin:round; stroke-width:4; stroke-opacity:1; fill:none" points="1361.64,221.73 1380.53,221.73 "/>
<path clip-path="url(#clip160)" d="M1260.13 640.627 Q1257.42 640.627 1256.05 643.301 Q1254.7 645.957 1254.7 651.304 Q1254.7 656.634 1256.05 659.308 Q1257.42 661.964 1260.13 661.964 Q1262.86 661.964 1264.21 659.308 Q1265.58 656.634 1265.58 651.304 Q1265.58 645.957 1264.21 643.301 Q1262.86 640.627 1260.13 640.627 M1260.13 637.85 Q1264.49 637.85 1266.78 641.305 Q1269.09 644.742 1269.09 651.304 Q1269.09 657.85 1266.78 661.304 Q1264.49 664.742 1260.13 664.742 Q1255.78 664.742 1253.47 661.304 Q1251.17 657.85 1251.17 651.304 Q1251.17 644.742 1253.47 641.305 Q1255.78 637.85 1260.13 637.85 Z" fill="#000000" fill-rule="nonzero" fill-opacity="1" /><path clip-path="url(#clip160)" d="M1275.25 659.829 L1278.92 659.829 L1278.92 664.238 L1275.25 664.238 L1275.25 659.829 Z" fill="#000000" fill-rule="nonzero" fill-opacity="1" /><path clip-path="url(#clip160)" d="M1294.06 640.627 Q1291.35 640.627 1289.98 643.301 Q1288.62 645.957 1288.62 651.304 Q1288.62 656.634 1289.98 659.308 Q1291.35 661.964 1294.06 661.964 Q1296.78 661.964 1298.14 659.308 Q1299.51 656.634 1299.51 651.304 Q1299.51 645.957 1298.14 643.301 Q1296.78 640.627 1294.06 640.627 M1294.06 637.85 Q1298.41 637.85 1300.71 641.305 Q1303.01 644.742 1303.01 651.304 Q1303.01 657.85 1300.71 661.304 Q1298.41 664.742 1294.06 664.742 Q1289.7 664.742 1287.39 661.304 Q1285.1 657.85 1285.1 651.304 Q1285.1 644.742 1287.39 641.305 Q1289.7 637.85 1294.06 637.85 Z" fill="#000000" fill-rule="nonzero" fill-opacity="1" /><path clip-path="url(#clip160)" d="M1316.68 640.627 Q1313.97 640.627 1312.6 643.301 Q1311.24 645.957 1311.24 651.304 Q1311.24 656.634 1312.6 659.308 Q1313.97 661.964 1316.68 661.964 Q1319.4 661.964 1320.76 659.308 Q1322.13 656.634 1322.13 651.304 Q1322.13 645.957 1320.76 643.301 Q1319.4 640.627 1316.68 640.627 M1316.68 637.85 Q1321.04 637.85 1323.33 641.305 Q1325.64 644.742 1325.64 651.304 Q1325.64 657.85 1323.33 661.304 Q1321.04 664.742 1316.68 664.742 Q1312.32 664.742 1310.01 661.304 Q1307.72 657.85 1307.72 651.304 Q1307.72 644.742 1310.01 641.305 Q1312.32 637.85 1316.68 637.85 Z" fill="#000000" fill-rule="nonzero" fill-opacity="1" /><path clip-path="url(#clip160)" d="M1260.88 497.445 Q1258.17 497.445 1256.8 500.118 Q1255.45 502.775 1255.45 508.122 Q1255.45 513.452 1256.8 516.125 Q1258.17 518.781 1260.88 518.781 Q1263.6 518.781 1264.96 516.125 Q1266.33 513.452 1266.33 508.122 Q1266.33 502.775 1264.96 500.118 Q1263.6 497.445 1260.88 497.445 M1260.88 494.667 Q1265.24 494.667 1267.53 498.122 Q1269.84 501.559 1269.84 508.122 Q1269.84 514.667 1267.53 518.122 Q1265.24 521.559 1260.88 521.559 Q1256.52 521.559 1254.21 518.122 Q1251.92 514.667 1251.92 508.122 Q1251.92 501.559 1254.21 498.122 Q1256.52 494.667 1260.88 494.667 Z" fill="#000000" fill-rule="nonzero" fill-opacity="1" /><path clip-path="url(#clip160)" d="M1276 516.646 L1279.66 516.646 L1279.66 521.056 L1276 521.056 L1276 516.646 Z" fill="#000000" fill-rule="nonzero" fill-opacity="1" /><path clip-path="url(#clip160)" d="M1294.8 497.445 Q1292.09 497.445 1290.72 500.118 Q1289.37 502.775 1289.37 508.122 Q1289.37 513.452 1290.72 516.125 Q1292.09 518.781 1294.8 518.781 Q1297.53 518.781 1298.88 516.125 Q1300.25 513.452 1300.25 508.122 Q1300.25 502.775 1298.88 500.118 Q1297.53 497.445 1294.8 497.445 M1294.8 494.667 Q1299.16 494.667 1301.45 498.122 Q1303.76 501.559 1303.76 508.122 Q1303.76 514.667 1301.45 518.122 Q1299.16 521.559 1294.8 521.559 Q1290.45 521.559 1288.14 518.122 Q1285.84 514.667 1285.84 508.122 Q1285.84 501.559 1288.14 498.122 Q1290.45 494.667 1294.8 494.667 Z" fill="#000000" fill-rule="nonzero" fill-opacity="1" /><path clip-path="url(#clip160)" d="M1309.96 495.136 L1323.73 495.136 L1323.73 498.087 L1313.17 498.087 L1313.17 504.441 Q1313.93 504.181 1314.7 504.059 Q1315.46 503.92 1316.23 503.92 Q1320.57 503.92 1323.1 506.299 Q1325.64 508.677 1325.64 512.74 Q1325.64 516.924 1323.03 519.25 Q1320.43 521.559 1315.69 521.559 Q1314.06 521.559 1312.35 521.281 Q1310.67 521.004 1308.87 520.448 L1308.87 516.924 Q1310.43 517.775 1312.09 518.191 Q1313.76 518.608 1315.62 518.608 Q1318.62 518.608 1320.38 517.028 Q1322.13 515.448 1322.13 512.74 Q1322.13 510.032 1320.38 508.452 Q1318.62 506.872 1315.62 506.872 Q1314.21 506.872 1312.81 507.184 Q1311.42 507.497 1309.96 508.157 L1309.96 495.136 Z" fill="#000000" fill-rule="nonzero" fill-opacity="1" /><path clip-path="url(#clip160)" d="M1260.13 354.262 Q1257.42 354.262 1256.05 356.936 Q1254.7 359.592 1254.7 364.939 Q1254.7 370.269 1256.05 372.943 Q1257.42 375.599 1260.13 375.599 Q1262.86 375.599 1264.21 372.943 Q1265.58 370.269 1265.58 364.939 Q1265.58 359.592 1264.21 356.936 Q1262.86 354.262 1260.13 354.262 M1260.13 351.484 Q1264.49 351.484 1266.78 354.939 Q1269.09 358.377 1269.09 364.939 Q1269.09 371.484 1266.78 374.939 Q1264.49 378.377 1260.13 378.377 Q1255.78 378.377 1253.47 374.939 Q1251.17 371.484 1251.17 364.939 Q1251.17 358.377 1253.47 354.939 Q1255.78 351.484 1260.13 351.484 Z" fill="#000000" fill-rule="nonzero" fill-opacity="1" /><path clip-path="url(#clip160)" d="M1275.25 373.463 L1278.92 373.463 L1278.92 377.873 L1275.25 377.873 L1275.25 373.463 Z" fill="#000000" fill-rule="nonzero" fill-opacity="1" /><path clip-path="url(#clip160)" d="M1287.16 374.922 L1292.89 374.922 L1292.89 355.148 L1286.66 356.398 L1286.66 353.203 L1292.86 351.953 L1296.37 351.953 L1296.37 374.922 L1302.09 374.922 L1302.09 377.873 L1287.16 377.873 L1287.16 374.922 Z" fill="#000000" fill-rule="nonzero" fill-opacity="1" /><path clip-path="url(#clip160)" d="M1316.68 354.262 Q1313.97 354.262 1312.6 356.936 Q1311.24 359.592 1311.24 364.939 Q1311.24 370.269 1312.6 372.943 Q1313.97 375.599 1316.68 375.599 Q1319.4 375.599 1320.76 372.943 Q1322.13 370.269 1322.13 364.939 Q1322.13 359.592 1320.76 356.936 Q1319.4 354.262 1316.68 354.262 M1316.68 351.484 Q1321.04 351.484 1323.33 354.939 Q1325.64 358.377 1325.64 364.939 Q1325.64 371.484 1323.33 374.939 Q1321.04 378.377 1316.68 378.377 Q1312.32 378.377 1310.01 374.939 Q1307.72 371.484 1307.72 364.939 Q1307.72 358.377 1310.01 354.939 Q1312.32 351.484 1316.68 351.484 Z" fill="#000000" fill-rule="nonzero" fill-opacity="1" /><path clip-path="url(#clip160)" d="M1260.88 211.079 Q1258.17 211.079 1256.8 213.753 Q1255.45 216.409 1255.45 221.756 Q1255.45 227.086 1256.8 229.76 Q1258.17 232.416 1260.88 232.416 Q1263.6 232.416 1264.96 229.76 Q1266.33 227.086 1266.33 221.756 Q1266.33 216.409 1264.96 213.753 Q1263.6 211.079 1260.88 211.079 M1260.88 208.302 Q1265.24 208.302 1267.53 211.757 Q1269.84 215.194 1269.84 221.756 Q1269.84 228.302 1267.53 231.756 Q1265.24 235.194 1260.88 235.194 Q1256.52 235.194 1254.21 231.756 Q1251.92 228.302 1251.92 221.756 Q1251.92 215.194 1254.21 211.757 Q1256.52 208.302 1260.88 208.302 Z" fill="#000000" fill-rule="nonzero" fill-opacity="1" /><path clip-path="url(#clip160)" d="M1276 230.281 L1279.66 230.281 L1279.66 234.69 L1276 234.69 L1276 230.281 Z" fill="#000000" fill-rule="nonzero" fill-opacity="1" /><path clip-path="url(#clip160)" d="M1287.91 231.739 L1293.64 231.739 L1293.64 211.965 L1287.41 213.215 L1287.41 210.02 L1293.6 208.77 L1297.11 208.77 L1297.11 231.739 L1302.84 231.739 L1302.84 234.69 L1287.91 234.69 L1287.91 231.739 Z" fill="#000000" fill-rule="nonzero" fill-opacity="1" /><path clip-path="url(#clip160)" d="M1309.96 208.77 L1323.73 208.77 L1323.73 211.722 L1313.17 211.722 L1313.17 218.076 Q1313.93 217.816 1314.7 217.694 Q1315.46 217.555 1316.23 217.555 Q1320.57 217.555 1323.1 219.934 Q1325.64 222.312 1325.64 226.375 Q1325.64 230.559 1323.03 232.885 Q1320.43 235.194 1315.69 235.194 Q1314.06 235.194 1312.35 234.916 Q1310.67 234.638 1308.87 234.083 L1308.87 230.559 Q1310.43 231.409 1312.09 231.826 Q1313.76 232.243 1315.62 232.243 Q1318.62 232.243 1320.38 230.663 Q1322.13 229.083 1322.13 226.375 Q1322.13 223.666 1320.38 222.086 Q1318.62 220.506 1315.62 220.506 Q1314.21 220.506 1312.81 220.819 Q1311.42 221.131 1309.96 221.791 L1309.96 208.77 Z" fill="#000000" fill-rule="nonzero" fill-opacity="1" /><path clip-path="url(#clip160)" d="M1373.53 18.9258 Q1370.02 18.9258 1368.12 21.4721 Q1366.13 24.1341 1366.13 28.5323 Q1366.13 33.185 1368.09 35.8702 Q1370.08 38.5322 1373.53 38.5322 Q1376.94 38.5322 1378.93 35.847 Q1380.92 33.1619 1380.92 28.5323 Q1380.92 24.2962 1378.93 21.4721 Q1377.1 18.9258 1373.53 18.9258 M1373.53 15.5462 L1387.68 15.5462 L1387.68 19.8054 L1382.91 19.8054 Q1385.43 23.4165 1385.43 28.5323 Q1385.43 34.898 1382.26 38.5091 Q1379.09 42.1433 1373.53 42.1433 Q1367.96 42.1433 1364.81 38.5091 Q1361.64 34.898 1361.64 28.5323 Q1361.64 22.1203 1364.81 18.5323 Q1367.42 15.5462 1373.53 15.5462 Z" fill="#000000" fill-rule="nonzero" fill-opacity="1" /><path clip-path="url(#clip160)" d="M1411.84 19.6666 Q1410.99 19.3656 1410.13 19.1342 Q1407.84 18.5323 1405.39 18.5323 Q1401.15 18.5323 1398.79 20.824 Q1396.59 22.9536 1396.17 26.8656 L1411.84 26.8656 L1411.84 30.1989 L1396.17 30.1989 Q1396.59 34.1109 1398.79 36.2405 Q1401.15 38.5322 1405.39 38.5322 Q1408.35 38.5322 1410.13 37.9304 L1411.84 37.3517 L1411.84 41.2174 L1410.02 41.634 Q1407.61 42.1433 1405.13 42.1433 Q1398.93 42.1433 1395.32 38.5322 Q1391.68 34.9211 1391.68 28.5323 Q1391.68 22.1434 1395.32 18.5323 Q1398.93 14.9212 1405.13 14.9212 Q1407.47 14.9212 1410.02 15.4305 Q1410.94 15.6157 1411.84 15.8934 L1411.84 19.6666 Z" fill="#000000" fill-rule="nonzero" fill-opacity="1" /><polyline clip-path="url(#clip163)" style="stroke:#009af9; stroke-linecap:round; stroke-linejoin:round; stroke-width:4; stroke-opacity:1; fill:none" points="1389.69,164.879 1448.13,222.879 1506.56,281.679 1565,341.279 1623.44,401.679 1681.88,462.879 1740.32,524.879 1798.76,587.679 1857.2,651.278 1915.63,586.879 1974.07,521.679 2032.51,455.679 2090.95,388.879 2149.39,321.279 2207.83,252.88 2266.27,183.68 2324.71,113.68 "/>
<circle clip-path="url(#clip163)" cx="1857.2" cy="651.278" r="10.8" fill="#ff0000" fill-rule="evenodd" fill-opacity="1" stroke="#000000" stroke-opacity="1" stroke-width="3.2"/>
<path clip-path="url(#clip160)" d="M161.818 1467.41 L1152.94 1467.41 L1152.94 897.552 L161.818 897.552  Z" fill="#ffffff" fill-rule="evenodd" fill-opacity="1"/>
<defs>
  <clipPath id="clip164">
    <rect x="161" y="897" width="992" height="571"/>
  </clipPath>
</defs>
<polyline clip-path="url(#clip164)" style="stroke:#000000; stroke-linecap:round; stroke-linejoin:round; stroke-width:2; stroke-opacity:0.1; fill:none" points="303.253,1467.41 303.253,897.552 "/>
<polyline clip-path="url(#clip164)" style="stroke:#000000; stroke-linecap:round; stroke-linejoin:round; stroke-width:2; stroke-opacity:0.1; fill:none" points="476.092,1467.41 476.092,897.552 "/>
<polyline clip-path="url(#clip164)" style="stroke:#000000; stroke-linecap:round; stroke-linejoin:round; stroke-width:2; stroke-opacity:0.1; fill:none" points="648.931,1467.41 648.931,897.552 "/>
<polyline clip-path="url(#clip164)" style="stroke:#000000; stroke-linecap:round; stroke-linejoin:round; stroke-width:2; stroke-opacity:0.1; fill:none" points="821.77,1467.41 821.77,897.552 "/>
<polyline clip-path="url(#clip164)" style="stroke:#000000; stroke-linecap:round; stroke-linejoin:round; stroke-width:2; stroke-opacity:0.1; fill:none" points="994.608,1467.41 994.608,897.552 "/>
<polyline clip-path="url(#clip164)" style="stroke:#000000; stroke-linecap:round; stroke-linejoin:round; stroke-width:2; stroke-opacity:0.1; fill:none" points="161.818,1451.28 1152.94,1451.28 "/>
<polyline clip-path="url(#clip164)" style="stroke:#000000; stroke-linecap:round; stroke-linejoin:round; stroke-width:2; stroke-opacity:0.1; fill:none" points="161.818,1330.22 1152.94,1330.22 "/>
<polyline clip-path="url(#clip164)" style="stroke:#000000; stroke-linecap:round; stroke-linejoin:round; stroke-width:2; stroke-opacity:0.1; fill:none" points="161.818,1209.17 1152.94,1209.17 "/>
<polyline clip-path="url(#clip164)" style="stroke:#000000; stroke-linecap:round; stroke-linejoin:round; stroke-width:2; stroke-opacity:0.1; fill:none" points="161.818,1088.12 1152.94,1088.12 "/>
<polyline clip-path="url(#clip164)" style="stroke:#000000; stroke-linecap:round; stroke-linejoin:round; stroke-width:2; stroke-opacity:0.1; fill:none" points="161.818,967.063 1152.94,967.063 "/>
<polyline clip-path="url(#clip160)" style="stroke:#000000; stroke-linecap:round; stroke-linejoin:round; stroke-width:4; stroke-opacity:1; fill:none" points="161.818,1467.41 1152.94,1467.41 "/>
<polyline clip-path="url(#clip160)" style="stroke:#000000; stroke-linecap:round; stroke-linejoin:round; stroke-width:4; stroke-opacity:1; fill:none" points="303.253,1467.41 303.253,1448.51 "/>
<polyline clip-path="url(#clip160)" style="stroke:#000000; stroke-linecap:round; stroke-linejoin:round; stroke-width:4; stroke-opacity:1; fill:none" points="476.092,1467.41 476.092,1448.51 "/>
<polyline clip-path="url(#clip160)" style="stroke:#000000; stroke-linecap:round; stroke-linejoin:round; stroke-width:4; stroke-opacity:1; fill:none" points="648.931,1467.41 648.931,1448.51 "/>
<polyline clip-path="url(#clip160)" style="stroke:#000000; stroke-linecap:round; stroke-linejoin:round; stroke-width:4; stroke-opacity:1; fill:none" points="821.77,1467.41 821.77,1448.51 "/>
<polyline clip-path="url(#clip160)" style="stroke:#000000; stroke-linecap:round; stroke-linejoin:round; stroke-width:4; stroke-opacity:1; fill:none" points="994.608,1467.41 994.608,1448.51 "/>
<path clip-path="url(#clip160)" d="M249.404 1539.14 Q247.489 1541.05 248.41 1543.91 Q249.331 1546.75 253.112 1550.53 Q256.88 1554.3 259.728 1555.23 Q262.576 1556.14 264.492 1554.23 Q266.419 1552.3 265.498 1549.46 Q264.577 1546.6 260.809 1542.83 Q257.028 1539.05 254.18 1538.14 Q251.332 1537.21 249.404 1539.14 M247.44 1537.17 Q250.521 1534.09 254.585 1534.92 Q258.648 1535.71 263.288 1540.35 Q267.917 1544.98 268.727 1549.06 Q269.537 1553.11 266.456 1556.19 Q263.374 1559.27 259.311 1558.47 Q255.248 1557.65 250.62 1553.02 Q245.979 1548.38 245.169 1544.33 Q244.359 1540.26 247.44 1537.17 Z" fill="#000000" fill-rule="nonzero" fill-opacity="1" /><path clip-path="url(#clip160)" d="M273.674 1542.02 L276.264 1539.43 L279.382 1542.55 L276.792 1545.14 L273.674 1542.02 Z" fill="#000000" fill-rule="nonzero" fill-opacity="1" /><path clip-path="url(#clip160)" d="M266.48 1518.8 L276.215 1509.06 L278.302 1511.15 L270.838 1518.61 L275.331 1523.11 Q275.687 1522.38 276.142 1521.76 Q276.583 1521.12 277.124 1520.58 Q280.193 1517.51 283.667 1517.4 Q287.141 1517.29 290.014 1520.16 Q292.972 1523.12 292.776 1526.6 Q292.567 1530.08 289.216 1533.43 Q288.062 1534.58 286.662 1535.59 Q285.275 1536.59 283.605 1537.47 L281.113 1534.98 Q282.82 1534.47 284.293 1533.59 Q285.766 1532.71 287.08 1531.39 Q289.203 1529.27 289.326 1526.91 Q289.449 1524.55 287.534 1522.64 Q285.619 1520.72 283.262 1520.85 Q280.905 1520.97 278.781 1523.09 Q277.787 1524.09 277.013 1525.3 Q276.252 1526.51 275.687 1528 L266.48 1518.8 Z" fill="#000000" fill-rule="nonzero" fill-opacity="1" /><path clip-path="url(#clip160)" d="M289.387 1499.16 Q287.472 1501.07 288.393 1503.93 Q289.314 1506.77 293.095 1510.55 Q296.864 1514.32 299.712 1515.25 Q302.56 1516.16 304.475 1514.24 Q306.402 1512.32 305.481 1509.48 Q304.561 1506.62 300.792 1502.85 Q297.011 1499.07 294.163 1498.16 Q291.315 1497.23 289.387 1499.16 M287.423 1497.19 Q290.505 1494.11 294.568 1494.93 Q298.631 1495.73 303.272 1500.37 Q307.9 1505 308.71 1509.07 Q309.52 1513.13 306.439 1516.21 Q303.358 1519.29 299.294 1518.49 Q295.231 1517.67 290.603 1513.04 Q285.962 1508.4 285.152 1504.35 Q284.342 1500.27 287.423 1497.19 Z" fill="#000000" fill-rule="nonzero" fill-opacity="1" /><path clip-path="url(#clip160)" d="M423.09 1538.29 Q421.175 1540.21 422.096 1543.07 Q423.016 1545.9 426.797 1549.68 Q430.566 1553.45 433.414 1554.39 Q436.262 1555.29 438.177 1553.38 Q440.105 1551.45 439.184 1548.62 Q438.263 1545.76 434.495 1541.99 Q430.714 1538.21 427.865 1537.3 Q425.017 1536.36 423.09 1538.29 M421.126 1536.33 Q424.207 1533.25 428.271 1534.07 Q432.334 1534.87 436.974 1539.51 Q441.602 1544.14 442.413 1548.21 Q443.223 1552.26 440.142 1555.34 Q437.06 1558.42 432.997 1557.63 Q428.933 1556.8 424.305 1552.18 Q419.665 1547.54 418.855 1543.48 Q418.045 1539.41 421.126 1536.33 Z" fill="#000000" fill-rule="nonzero" fill-opacity="1" /><path clip-path="url(#clip160)" d="M447.36 1541.18 L449.95 1538.59 L453.068 1541.7 L450.478 1544.29 L447.36 1541.18 Z" fill="#000000" fill-rule="nonzero" fill-opacity="1" /><path clip-path="url(#clip160)" d="M440.166 1517.95 L449.901 1508.22 L451.988 1510.3 L444.524 1517.77 L449.017 1522.26 Q449.373 1521.53 449.827 1520.91 Q450.269 1520.27 450.809 1519.73 Q453.878 1516.66 457.353 1516.55 Q460.827 1516.44 463.699 1519.31 Q466.658 1522.27 466.461 1525.76 Q466.253 1529.23 462.901 1532.58 Q461.747 1533.74 460.348 1534.74 Q458.961 1535.74 457.291 1536.62 L454.799 1534.13 Q456.506 1533.63 457.979 1532.74 Q459.452 1531.86 460.765 1530.55 Q462.889 1528.42 463.012 1526.06 Q463.135 1523.71 461.22 1521.79 Q459.305 1519.88 456.948 1520 Q454.591 1520.12 452.467 1522.25 Q451.472 1523.24 450.699 1524.46 Q449.938 1525.66 449.373 1527.16 L440.166 1517.95 Z" fill="#000000" fill-rule="nonzero" fill-opacity="1" /><path clip-path="url(#clip160)" d="M474.515 1516.08 L483.169 1507.43 L485.256 1509.52 L473.618 1521.15 L471.532 1519.07 Q471.482 1516.19 471.458 1511.31 Q471.433 1506.4 471.347 1505.06 Q471.2 1502.53 470.746 1501.14 Q470.292 1499.73 469.395 1498.84 Q467.935 1497.38 465.983 1497.49 Q464.043 1497.58 462.398 1499.23 Q461.232 1500.4 460.336 1502.1 Q459.452 1503.8 458.801 1506.09 L456.297 1503.59 Q457.193 1501.49 458.187 1499.88 Q459.182 1498.27 460.262 1497.19 Q463.11 1494.34 466.228 1494.07 Q469.346 1493.8 471.728 1496.18 Q472.857 1497.31 473.447 1498.76 Q474.036 1500.19 474.294 1502.68 Q474.343 1503.34 474.404 1506.69 Q474.453 1510.03 474.515 1516.08 Z" fill="#000000" fill-rule="nonzero" fill-opacity="1" /><path clip-path="url(#clip160)" d="M594.824 1539.4 Q592.909 1541.31 593.83 1544.17 Q594.75 1547.01 598.531 1550.79 Q602.3 1554.56 605.148 1555.49 Q607.996 1556.4 609.911 1554.48 Q611.839 1552.56 610.918 1549.72 Q609.997 1546.86 606.228 1543.09 Q602.447 1539.31 599.599 1538.4 Q596.751 1537.47 594.824 1539.4 M592.86 1537.43 Q595.941 1534.35 600.005 1535.17 Q604.068 1535.97 608.708 1540.61 Q613.336 1545.24 614.147 1549.32 Q614.957 1553.37 611.875 1556.45 Q608.794 1559.53 604.731 1558.73 Q600.667 1557.91 596.039 1553.28 Q591.399 1548.64 590.589 1544.59 Q589.779 1540.51 592.86 1537.43 Z" fill="#000000" fill-rule="nonzero" fill-opacity="1" /><path clip-path="url(#clip160)" d="M619.094 1542.28 L621.684 1539.69 L624.802 1542.81 L622.212 1545.4 L619.094 1542.28 Z" fill="#000000" fill-rule="nonzero" fill-opacity="1" /><path clip-path="url(#clip160)" d="M611.9 1519.06 L621.635 1509.32 L623.722 1511.41 L616.258 1518.87 L620.751 1523.36 Q621.107 1522.64 621.561 1522.01 Q622.003 1521.38 622.543 1520.84 Q625.612 1517.77 629.087 1517.66 Q632.561 1517.55 635.433 1520.42 Q638.392 1523.38 638.195 1526.86 Q637.987 1530.34 634.635 1533.69 Q633.481 1534.84 632.082 1535.85 Q630.695 1536.84 629.025 1537.73 L626.533 1535.24 Q628.24 1534.73 629.713 1533.85 Q631.186 1532.96 632.499 1531.65 Q634.623 1529.53 634.746 1527.17 Q634.869 1524.81 632.954 1522.9 Q631.038 1520.98 628.681 1521.11 Q626.324 1521.23 624.201 1523.35 Q623.206 1524.35 622.433 1525.56 Q621.672 1526.76 621.107 1528.26 L611.9 1519.06 Z" fill="#000000" fill-rule="nonzero" fill-opacity="1" /><path clip-path="url(#clip160)" d="M636.845 1498.43 L640.368 1514.48 L646.629 1508.22 L636.845 1498.43 M634.034 1496.92 L637.152 1493.8 L649.097 1505.75 L651.711 1503.13 L653.774 1505.2 L651.159 1507.81 L655.48 1512.13 L653.013 1514.6 L648.691 1510.28 L640.417 1518.55 L638.024 1516.16 L634.034 1496.92 Z" fill="#000000" fill-rule="nonzero" fill-opacity="1" /><path clip-path="url(#clip160)" d="M767.835 1539.22 Q765.92 1541.14 766.84 1544 Q767.761 1546.84 771.542 1550.62 Q775.311 1554.39 778.159 1555.32 Q781.007 1556.23 782.922 1554.31 Q784.849 1552.38 783.929 1549.55 Q783.008 1546.69 779.239 1542.92 Q775.458 1539.14 772.61 1538.23 Q769.762 1537.3 767.835 1539.22 M765.87 1537.26 Q768.952 1534.18 773.015 1535 Q777.079 1535.8 781.719 1540.44 Q786.347 1545.07 787.157 1549.14 Q787.967 1553.19 784.886 1556.28 Q781.805 1559.36 777.741 1558.56 Q773.678 1557.74 769.05 1553.11 Q764.41 1548.47 763.599 1544.42 Q762.789 1540.34 765.87 1537.26 Z" fill="#000000" fill-rule="nonzero" fill-opacity="1" /><path clip-path="url(#clip160)" d="M792.104 1542.11 L794.695 1539.52 L797.813 1542.64 L795.223 1545.23 L792.104 1542.11 Z" fill="#000000" fill-rule="nonzero" fill-opacity="1" /><path clip-path="url(#clip160)" d="M784.911 1518.88 L794.646 1509.15 L796.733 1511.24 L789.269 1518.7 L793.762 1523.19 Q794.118 1522.47 794.572 1521.84 Q795.014 1521.2 795.554 1520.66 Q798.623 1517.59 802.097 1517.48 Q805.571 1517.37 808.444 1520.25 Q811.403 1523.2 811.206 1526.69 Q810.997 1530.17 807.646 1533.52 Q806.492 1534.67 805.093 1535.68 Q803.705 1536.67 802.036 1537.56 L799.544 1535.06 Q801.25 1534.56 802.723 1533.68 Q804.196 1532.79 805.51 1531.48 Q807.634 1529.35 807.757 1527 Q807.879 1524.64 805.964 1522.73 Q804.049 1520.81 801.692 1520.93 Q799.335 1521.06 797.211 1523.18 Q796.217 1524.17 795.444 1525.39 Q794.682 1526.59 794.118 1528.09 L784.911 1518.88 Z" fill="#000000" fill-rule="nonzero" fill-opacity="1" /><path clip-path="url(#clip160)" d="M814.668 1505.48 Q812.998 1507.15 813.158 1509.27 Q813.33 1511.38 815.319 1513.37 Q817.295 1515.35 819.419 1515.53 Q821.543 1515.69 823.212 1514.02 Q824.882 1512.35 824.71 1510.24 Q824.538 1508.1 822.561 1506.13 Q820.573 1504.14 818.449 1503.98 Q816.337 1503.81 814.668 1505.48 M811.82 1492.78 L814.079 1495.04 Q812.704 1495.53 811.513 1496.26 Q810.334 1496.97 809.402 1497.9 Q806.946 1500.36 807.302 1503.32 Q807.671 1506.26 810.838 1509.8 Q810.494 1508.01 811.022 1506.35 Q811.538 1504.68 812.851 1503.37 Q815.613 1500.6 818.891 1500.69 Q822.169 1500.75 825.054 1503.64 Q827.877 1506.46 827.914 1509.84 Q827.951 1513.21 825.176 1515.99 Q821.997 1519.17 817.884 1518.42 Q813.76 1517.66 809.131 1513.03 Q804.786 1508.68 804.27 1504.04 Q803.742 1499.39 807.216 1495.91 Q808.149 1494.98 809.279 1494.22 Q810.42 1493.45 811.82 1492.78 Z" fill="#000000" fill-rule="nonzero" fill-opacity="1" /><path clip-path="url(#clip160)" d="M940.808 1539.09 Q938.893 1541 939.814 1543.87 Q940.735 1546.7 944.516 1550.48 Q948.285 1554.25 951.133 1555.18 Q953.981 1556.09 955.896 1554.18 Q957.823 1552.25 956.902 1549.41 Q955.982 1546.55 952.213 1542.78 Q948.432 1539 945.584 1538.1 Q942.736 1537.16 940.808 1539.09 M938.844 1537.13 Q941.926 1534.04 945.989 1534.87 Q950.052 1535.66 954.693 1540.31 Q959.321 1544.93 960.131 1549.01 Q960.941 1553.06 957.86 1556.14 Q954.779 1559.22 950.715 1558.42 Q946.652 1557.6 942.024 1552.97 Q937.383 1548.33 936.573 1544.28 Q935.763 1540.21 938.844 1537.13 Z" fill="#000000" fill-rule="nonzero" fill-opacity="1" /><path clip-path="url(#clip160)" d="M965.078 1541.97 L967.669 1539.38 L970.787 1542.5 L968.196 1545.09 L965.078 1541.97 Z" fill="#000000" fill-rule="nonzero" fill-opacity="1" /><path clip-path="url(#clip160)" d="M957.885 1518.75 L967.619 1509.01 L969.706 1511.1 L962.243 1518.56 L966.736 1523.06 Q967.092 1522.33 967.546 1521.71 Q967.988 1521.07 968.528 1520.53 Q971.597 1517.46 975.071 1517.35 Q978.545 1517.24 981.418 1520.11 Q984.376 1523.07 984.18 1526.56 Q983.971 1530.03 980.62 1533.38 Q979.466 1534.54 978.066 1535.54 Q976.679 1536.54 975.01 1537.42 L972.518 1534.93 Q974.224 1534.42 975.697 1533.54 Q977.17 1532.66 978.484 1531.34 Q980.608 1529.22 980.73 1526.86 Q980.853 1524.51 978.938 1522.59 Q977.023 1520.68 974.666 1520.8 Q972.309 1520.92 970.185 1523.04 Q969.191 1524.04 968.417 1525.25 Q967.656 1526.46 967.092 1527.96 L957.885 1518.75 Z" fill="#000000" fill-rule="nonzero" fill-opacity="1" /><path clip-path="url(#clip160)" d="M988.783 1507.1 Q987.016 1508.87 986.942 1510.83 Q986.881 1512.78 988.538 1514.44 Q990.195 1516.1 992.147 1516.04 Q994.111 1515.96 995.879 1514.19 Q997.647 1512.43 997.72 1510.46 Q997.782 1508.49 996.137 1506.84 Q994.48 1505.18 992.515 1505.26 Q990.563 1505.32 988.783 1507.1 M985.248 1508.52 Q983.259 1509.73 981.27 1509.53 Q979.294 1509.32 977.723 1507.75 Q975.525 1505.55 975.808 1502.72 Q976.102 1499.87 978.828 1497.14 Q981.565 1494.4 984.401 1494.12 Q987.237 1493.84 989.434 1496.04 Q991.005 1497.61 991.202 1499.6 Q991.411 1501.57 990.22 1503.55 Q992.429 1502.18 994.639 1502.4 Q996.861 1502.61 998.617 1504.36 Q1001.28 1507.02 1001.07 1510.08 Q1000.88 1513.13 997.843 1516.16 Q994.811 1519.19 991.754 1519.4 Q988.71 1519.6 986.046 1516.93 Q984.29 1515.18 984.082 1512.95 Q983.873 1510.73 985.248 1508.52 M980.423 1505.51 Q981.847 1506.94 983.529 1506.85 Q985.223 1506.75 986.832 1505.15 Q988.427 1503.55 988.526 1501.86 Q988.636 1500.15 987.212 1498.73 Q985.788 1497.3 984.082 1497.41 Q982.388 1497.51 980.792 1499.11 Q979.184 1500.71 979.085 1502.41 Q978.999 1504.09 980.423 1505.51 Z" fill="#000000" fill-rule="nonzero" fill-opacity="1" /><polyline clip-path="url(#clip160)" style="stroke:#000000; stroke-linecap:round; stroke-linejoin:round; stroke-width:4; stroke-opacity:1; fill:none" points="161.818,1467.41 161.818,897.552 "/>
<polyline clip-path="url(#clip160)" style="stroke:#000000; stroke-linecap:round; stroke-linejoin:round; stroke-width:4; stroke-opacity:1; fill:none" points="161.818,1451.28 180.716,1451.28 "/>
<polyline clip-path="url(#clip160)" style="stroke:#000000; stroke-linecap:round; stroke-linejoin:round; stroke-width:4; stroke-opacity:1; fill:none" points="161.818,1330.22 180.716,1330.22 "/>
<polyline clip-path="url(#clip160)" style="stroke:#000000; stroke-linecap:round; stroke-linejoin:round; stroke-width:4; stroke-opacity:1; fill:none" points="161.818,1209.17 180.716,1209.17 "/>
<polyline clip-path="url(#clip160)" style="stroke:#000000; stroke-linecap:round; stroke-linejoin:round; stroke-width:4; stroke-opacity:1; fill:none" points="161.818,1088.12 180.716,1088.12 "/>
<polyline clip-path="url(#clip160)" style="stroke:#000000; stroke-linecap:round; stroke-linejoin:round; stroke-width:4; stroke-opacity:1; fill:none" points="161.818,967.063 180.716,967.063 "/>
<path clip-path="url(#clip160)" d="M60.315 1440.63 Q57.6067 1440.63 56.2352 1443.3 Q54.881 1445.96 54.881 1451.3 Q54.881 1456.63 56.2352 1459.31 Q57.6067 1461.96 60.315 1461.96 Q63.0407 1461.96 64.3948 1459.31 Q65.7664 1456.63 65.7664 1451.3 Q65.7664 1445.96 64.3948 1443.3 Q63.0407 1440.63 60.315 1440.63 M60.315 1437.85 Q64.6726 1437.85 66.9643 1441.3 Q69.2733 1444.74 69.2733 1451.3 Q69.2733 1457.85 66.9643 1461.3 Q64.6726 1464.74 60.315 1464.74 Q55.9574 1464.74 53.6484 1461.3 Q51.3567 1457.85 51.3567 1451.3 Q51.3567 1444.74 53.6484 1441.3 Q55.9574 1437.85 60.315 1437.85 Z" fill="#000000" fill-rule="nonzero" fill-opacity="1" /><path clip-path="url(#clip160)" d="M75.4364 1459.83 L79.0996 1459.83 L79.0996 1464.24 L75.4364 1464.24 L75.4364 1459.83 Z" fill="#000000" fill-rule="nonzero" fill-opacity="1" /><path clip-path="url(#clip160)" d="M94.2384 1440.63 Q91.5301 1440.63 90.1586 1443.3 Q88.8044 1445.96 88.8044 1451.3 Q88.8044 1456.63 90.1586 1459.31 Q91.5301 1461.96 94.2384 1461.96 Q96.9641 1461.96 98.3183 1459.31 Q99.6898 1456.63 99.6898 1451.3 Q99.6898 1445.96 98.3183 1443.3 Q96.9641 1440.63 94.2384 1440.63 M94.2384 1437.85 Q98.596 1437.85 100.888 1441.3 Q103.197 1444.74 103.197 1451.3 Q103.197 1457.85 100.888 1461.3 Q98.596 1464.74 94.2384 1464.74 Q89.8808 1464.74 87.5718 1461.3 Q85.2801 1457.85 85.2801 1451.3 Q85.2801 1444.74 87.5718 1441.3 Q89.8808 1437.85 94.2384 1437.85 Z" fill="#000000" fill-rule="nonzero" fill-opacity="1" /><path clip-path="url(#clip160)" d="M116.86 1440.63 Q114.152 1440.63 112.78 1443.3 Q111.426 1445.96 111.426 1451.3 Q111.426 1456.63 112.78 1459.31 Q114.152 1461.96 116.86 1461.96 Q119.586 1461.96 120.94 1459.31 Q122.311 1456.63 122.311 1451.3 Q122.311 1445.96 120.94 1443.3 Q119.586 1440.63 116.86 1440.63 M116.86 1437.85 Q121.217 1437.85 123.509 1441.3 Q125.818 1444.74 125.818 1451.3 Q125.818 1457.85 123.509 1461.3 Q121.217 1464.74 116.86 1464.74 Q112.502 1464.74 110.193 1461.3 Q107.902 1457.85 107.902 1451.3 Q107.902 1444.74 110.193 1441.3 Q112.502 1437.85 116.86 1437.85 Z" fill="#000000" fill-rule="nonzero" fill-opacity="1" /><path clip-path="url(#clip160)" d="M61.2351 1319.57 Q58.5268 1319.57 57.1553 1322.25 Q55.8011 1324.9 55.8011 1330.25 Q55.8011 1335.58 57.1553 1338.25 Q58.5268 1340.91 61.2351 1340.91 Q63.9608 1340.91 65.315 1338.25 Q66.6865 1335.58 66.6865 1330.25 Q66.6865 1324.9 65.315 1322.25 Q63.9608 1319.57 61.2351 1319.57 M61.2351 1316.8 Q65.5927 1316.8 67.8844 1320.25 Q70.1934 1323.69 70.1934 1330.25 Q70.1934 1336.8 67.8844 1340.25 Q65.5927 1343.69 61.2351 1343.69 Q56.8775 1343.69 54.5685 1340.25 Q52.2768 1336.8 52.2768 1330.25 Q52.2768 1323.69 54.5685 1320.25 Q56.8775 1316.8 61.2351 1316.8 Z" fill="#000000" fill-rule="nonzero" fill-opacity="1" /><path clip-path="url(#clip160)" d="M76.3566 1338.78 L80.0197 1338.78 L80.0197 1343.18 L76.3566 1343.18 L76.3566 1338.78 Z" fill="#000000" fill-rule="nonzero" fill-opacity="1" /><path clip-path="url(#clip160)" d="M95.1586 1319.57 Q92.4502 1319.57 91.0787 1322.25 Q89.7246 1324.9 89.7246 1330.25 Q89.7246 1335.58 91.0787 1338.25 Q92.4502 1340.91 95.1586 1340.91 Q97.8842 1340.91 99.2384 1338.25 Q100.61 1335.58 100.61 1330.25 Q100.61 1324.9 99.2384 1322.25 Q97.8842 1319.57 95.1586 1319.57 M95.1586 1316.8 Q99.5162 1316.8 101.808 1320.25 Q104.117 1323.69 104.117 1330.25 Q104.117 1336.8 101.808 1340.25 Q99.5162 1343.69 95.1586 1343.69 Q90.8009 1343.69 88.4919 1340.25 Q86.2003 1336.8 86.2003 1330.25 Q86.2003 1323.69 88.4919 1320.25 Q90.8009 1316.8 95.1586 1316.8 Z" fill="#000000" fill-rule="nonzero" fill-opacity="1" /><path clip-path="url(#clip160)" d="M110.888 1340.23 L116.617 1340.23 L116.617 1320.46 L110.384 1321.71 L110.384 1318.51 L116.582 1317.26 L120.089 1317.26 L120.089 1340.23 L125.818 1340.23 L125.818 1343.18 L110.888 1343.18 L110.888 1340.23 Z" fill="#000000" fill-rule="nonzero" fill-opacity="1" /><path clip-path="url(#clip160)" d="M61.5129 1198.52 Q58.8046 1198.52 57.4331 1201.19 Q56.0789 1203.85 56.0789 1209.2 Q56.0789 1214.53 57.4331 1217.2 Q58.8046 1219.86 61.5129 1219.86 Q64.2386 1219.86 65.5927 1217.2 Q66.9643 1214.53 66.9643 1209.2 Q66.9643 1203.85 65.5927 1201.19 Q64.2386 1198.52 61.5129 1198.52 M61.5129 1195.74 Q65.8705 1195.74 68.1622 1199.2 Q70.4712 1202.63 70.4712 1209.2 Q70.4712 1215.74 68.1622 1219.2 Q65.8705 1222.63 61.5129 1222.63 Q57.1553 1222.63 54.8463 1219.2 Q52.5546 1215.74 52.5546 1209.2 Q52.5546 1202.63 54.8463 1199.2 Q57.1553 1195.74 61.5129 1195.74 Z" fill="#000000" fill-rule="nonzero" fill-opacity="1" /><path clip-path="url(#clip160)" d="M76.6343 1217.72 L80.2975 1217.72 L80.2975 1222.13 L76.6343 1222.13 L76.6343 1217.72 Z" fill="#000000" fill-rule="nonzero" fill-opacity="1" /><path clip-path="url(#clip160)" d="M95.4363 1198.52 Q92.728 1198.52 91.3565 1201.19 Q90.0023 1203.85 90.0023 1209.2 Q90.0023 1214.53 91.3565 1217.2 Q92.728 1219.86 95.4363 1219.86 Q98.162 1219.86 99.5162 1217.2 Q100.888 1214.53 100.888 1209.2 Q100.888 1203.85 99.5162 1201.19 Q98.162 1198.52 95.4363 1198.52 M95.4363 1195.74 Q99.7939 1195.74 102.086 1199.2 Q104.395 1202.63 104.395 1209.2 Q104.395 1215.74 102.086 1219.2 Q99.7939 1222.63 95.4363 1222.63 Q91.0787 1222.63 88.7697 1219.2 Q86.478 1215.74 86.478 1209.2 Q86.478 1202.63 88.7697 1199.2 Q91.0787 1195.74 95.4363 1195.74 Z" fill="#000000" fill-rule="nonzero" fill-opacity="1" /><path clip-path="url(#clip160)" d="M113.579 1219.18 L125.818 1219.18 L125.818 1222.13 L109.36 1222.13 L109.36 1219.18 Q111.356 1217.11 114.794 1213.64 Q118.249 1210.15 119.134 1209.14 Q120.818 1207.25 121.478 1205.95 Q122.155 1204.63 122.155 1203.36 Q122.155 1201.3 120.697 1200 Q119.256 1198.69 116.929 1198.69 Q115.28 1198.69 113.44 1199.27 Q111.617 1199.84 109.533 1201 L109.533 1197.46 Q111.652 1196.61 113.492 1196.18 Q115.332 1195.74 116.86 1195.74 Q120.888 1195.74 123.283 1197.76 Q125.679 1199.77 125.679 1203.14 Q125.679 1204.74 125.072 1206.18 Q124.481 1207.6 122.901 1209.54 Q122.467 1210.05 120.141 1212.46 Q117.815 1214.86 113.579 1219.18 Z" fill="#000000" fill-rule="nonzero" fill-opacity="1" /><path clip-path="url(#clip160)" d="M60.8011 1077.47 Q58.0928 1077.47 56.7213 1080.14 Q55.3671 1082.8 55.3671 1088.14 Q55.3671 1093.47 56.7213 1096.15 Q58.0928 1098.8 60.8011 1098.8 Q63.5268 1098.8 64.8809 1096.15 Q66.2525 1093.47 66.2525 1088.14 Q66.2525 1082.8 64.8809 1080.14 Q63.5268 1077.47 60.8011 1077.47 M60.8011 1074.69 Q65.1587 1074.69 67.4504 1078.14 Q69.7594 1081.58 69.7594 1088.14 Q69.7594 1094.69 67.4504 1098.14 Q65.1587 1101.58 60.8011 1101.58 Q56.4435 1101.58 54.1345 1098.14 Q51.8428 1094.69 51.8428 1088.14 Q51.8428 1081.58 54.1345 1078.14 Q56.4435 1074.69 60.8011 1074.69 Z" fill="#000000" fill-rule="nonzero" fill-opacity="1" /><path clip-path="url(#clip160)" d="M75.9225 1096.67 L79.5857 1096.67 L79.5857 1101.08 L75.9225 1101.08 L75.9225 1096.67 Z" fill="#000000" fill-rule="nonzero" fill-opacity="1" /><path clip-path="url(#clip160)" d="M94.7245 1077.47 Q92.0162 1077.47 90.6447 1080.14 Q89.2905 1082.8 89.2905 1088.14 Q89.2905 1093.47 90.6447 1096.15 Q92.0162 1098.8 94.7245 1098.8 Q97.4502 1098.8 98.8044 1096.15 Q100.176 1093.47 100.176 1088.14 Q100.176 1082.8 98.8044 1080.14 Q97.4502 1077.47 94.7245 1077.47 M94.7245 1074.69 Q99.0821 1074.69 101.374 1078.14 Q103.683 1081.58 103.683 1088.14 Q103.683 1094.69 101.374 1098.14 Q99.0821 1101.58 94.7245 1101.58 Q90.3669 1101.58 88.0579 1098.14 Q85.7662 1094.69 85.7662 1088.14 Q85.7662 1081.58 88.0579 1078.14 Q90.3669 1074.69 94.7245 1074.69 Z" fill="#000000" fill-rule="nonzero" fill-opacity="1" /><path clip-path="url(#clip160)" d="M120.471 1087.1 Q122.988 1087.64 124.395 1089.34 Q125.818 1091.04 125.818 1093.54 Q125.818 1097.38 123.179 1099.48 Q120.54 1101.58 115.679 1101.58 Q114.047 1101.58 112.311 1101.25 Q110.593 1100.94 108.752 1100.3 L108.752 1096.91 Q110.211 1097.76 111.947 1098.2 Q113.683 1098.63 115.575 1098.63 Q118.874 1098.63 120.592 1097.33 Q122.329 1096.03 122.329 1093.54 Q122.329 1091.25 120.714 1089.97 Q119.117 1088.66 116.252 1088.66 L113.231 1088.66 L113.231 1085.78 L116.391 1085.78 Q118.978 1085.78 120.349 1084.76 Q121.721 1083.72 121.721 1081.77 Q121.721 1079.78 120.297 1078.72 Q118.891 1077.64 116.252 1077.64 Q114.811 1077.64 113.162 1077.95 Q111.513 1078.26 109.533 1078.92 L109.533 1075.8 Q111.53 1075.24 113.266 1074.97 Q115.02 1074.69 116.565 1074.69 Q120.558 1074.69 122.884 1076.51 Q125.21 1078.32 125.21 1081.41 Q125.21 1083.56 123.978 1085.05 Q122.745 1086.53 120.471 1087.1 Z" fill="#000000" fill-rule="nonzero" fill-opacity="1" /><path clip-path="url(#clip160)" d="M59.9504 956.412 Q57.2421 956.412 55.8706 959.086 Q54.5164 961.742 54.5164 967.089 Q54.5164 972.419 55.8706 975.093 Q57.2421 977.749 59.9504 977.749 Q62.6761 977.749 64.0303 975.093 Q65.4018 972.419 65.4018 967.089 Q65.4018 961.742 64.0303 959.086 Q62.6761 956.412 59.9504 956.412 M59.9504 953.635 Q64.308 953.635 66.5997 957.089 Q68.9087 960.527 68.9087 967.089 Q68.9087 973.634 66.5997 977.089 Q64.308 980.527 59.9504 980.527 Q55.5928 980.527 53.2838 977.089 Q50.9921 973.634 50.9921 967.089 Q50.9921 960.527 53.2838 957.089 Q55.5928 953.635 59.9504 953.635 Z" fill="#000000" fill-rule="nonzero" fill-opacity="1" /><path clip-path="url(#clip160)" d="M75.0719 975.614 L78.735 975.614 L78.735 980.023 L75.0719 980.023 L75.0719 975.614 Z" fill="#000000" fill-rule="nonzero" fill-opacity="1" /><path clip-path="url(#clip160)" d="M93.8738 956.412 Q91.1655 956.412 89.794 959.086 Q88.4398 961.742 88.4398 967.089 Q88.4398 972.419 89.794 975.093 Q91.1655 977.749 93.8738 977.749 Q96.5995 977.749 97.9537 975.093 Q99.3252 972.419 99.3252 967.089 Q99.3252 961.742 97.9537 959.086 Q96.5995 956.412 93.8738 956.412 M93.8738 953.635 Q98.2315 953.635 100.523 957.089 Q102.832 960.527 102.832 967.089 Q102.832 973.634 100.523 977.089 Q98.2315 980.527 93.8738 980.527 Q89.5162 980.527 87.2072 977.089 Q84.9156 973.634 84.9156 967.089 Q84.9156 960.527 87.2072 957.089 Q89.5162 953.635 93.8738 953.635 Z" fill="#000000" fill-rule="nonzero" fill-opacity="1" /><path clip-path="url(#clip160)" d="M118.631 957.159 L109.777 970.996 L118.631 970.996 L118.631 957.159 M117.711 954.103 L122.12 954.103 L122.12 970.996 L125.818 970.996 L125.818 973.912 L122.12 973.912 L122.12 980.023 L118.631 980.023 L118.631 973.912 L106.929 973.912 L106.929 970.527 L117.711 954.103 Z" fill="#000000" fill-rule="nonzero" fill-opacity="1" /><path clip-path="url(#clip160)" d="M173.716 818.926 Q170.198 818.926 168.3 821.472 Q166.309 824.134 166.309 828.532 Q166.309 833.185 168.276 835.87 Q170.267 838.532 173.716 838.532 Q177.119 838.532 179.11 835.847 Q181.1 833.162 181.1 828.532 Q181.1 824.296 179.11 821.472 Q177.281 818.926 173.716 818.926 M173.716 815.546 L187.86 815.546 L187.86 819.805 L183.091 819.805 Q185.614 823.417 185.614 828.532 Q185.614 834.898 182.443 838.509 Q179.272 842.143 173.716 842.143 Q168.138 842.143 164.989 838.509 Q161.818 834.898 161.818 828.532 Q161.818 822.12 164.989 818.532 Q167.605 815.546 173.716 815.546 Z" fill="#000000" fill-rule="nonzero" fill-opacity="1" /><path clip-path="url(#clip160)" d="M198.878 841.472 L190.961 815.546 L195.545 815.546 L202.235 837.305 Q205.012 834.435 207.327 830.454 Q209.086 827.467 209.179 824.875 Q209.225 823.648 208.67 821.333 Q208.022 818.579 205.568 815.546 L209.873 815.546 L209.873 815.546 Q211.471 817.606 212.535 820.477 Q213.508 823.116 213.508 824.921 Q213.508 829.458 210.36 833.509 Q206.262 838.787 203.415 841.472 L198.878 841.472 Z" fill="#000000" fill-rule="nonzero" fill-opacity="1" /><polyline clip-path="url(#clip164)" style="stroke:#009af9; stroke-linecap:round; stroke-linejoin:round; stroke-width:4; stroke-opacity:1; fill:none" points="189.869,964.89 248.307,1022.89 306.746,1081.69 365.185,1141.28 423.623,1201.68 482.062,1262.88 540.501,1324.88 598.939,1387.68 657.378,1451.28 715.817,1386.88 774.256,1321.68 832.694,1255.68 891.133,1188.88 949.572,1121.28 1008.01,1052.88 1066.45,983.68 1124.89,913.68 "/>
<circle clip-path="url(#clip164)" cx="657.378" cy="1451.28" r="10.8" fill="#ff0000" fill-rule="evenodd" fill-opacity="1" stroke="#000000" stroke-opacity="1" stroke-width="3.2"/>
</svg>
