<?xml version="1.0" encoding="utf-8"?>
<svg xmlns="http://www.w3.org/2000/svg" xmlns:xlink="http://www.w3.org/1999/xlink" width="600" height="400" viewBox="0 0 2400 1600">
<defs>
  <clipPath id="clip700">
    <rect x="0" y="0" width="2400" height="1600"/>
  </clipPath>
</defs>
<path clip-path="url(#clip700)" d="M0 1600 L2400 1600 L2400 0 L0 0  Z" fill="#ffffff" fill-rule="evenodd" fill-opacity="1"/>
<defs>
  <clipPath id="clip701">
    <rect x="480" y="0" width="1681" height="1600"/>
  </clipPath>
</defs>
<path clip-path="url(#clip700)" d="M161.818 667.406 L1152.94 667.406 L1152.94 97.5521 L161.818 97.5521  Z" fill="#ffffff" fill-rule="evenodd" fill-opacity="1"/>
<defs>
  <clipPath id="clip702">
    <rect x="161" y="97" width="992" height="571"/>
  </clipPath>
</defs>
<polyline clip-path="url(#clip702)" style="stroke:#000000; stroke-linecap:round; stroke-linejoin:round; stroke-width:2; stroke-opacity:0.1; fill:none" points="200.327,667.406 200.327,97.5521 "/>
<polyline clip-path="url(#clip702)" style="stroke:#000000; stroke-linecap:round; stroke-linejoin:round; stroke-width:2; stroke-opacity:0.1; fill:none" points="463.955,667.406 463.955,97.5521 "/>
<polyline clip-path="url(#clip702)" style="stroke:#000000; stroke-linecap:round; stroke-linejoin:round; stroke-width:2; stroke-opacity:0.1; fill:none" points="727.583,667.406 727.583,97.5521 "/>
<polyline clip-path="url(#clip702)" style="stroke:#000000; stroke-linecap:round; stroke-linejoin:round; stroke-width:2; stroke-opacity:0.1; fill:none" points="991.211,667.406 991.211,97.5521 "/>
<polyline clip-path="url(#clip702)" style="stroke:#000000; stroke-linecap:round; stroke-linejoin:round; stroke-width:2; stroke-opacity:0.1; fill:none" points="161.818,651.278 1152.94,651.278 "/>
<polyline clip-path="url(#clip702)" style="stroke:#000000; stroke-linecap:round; stroke-linejoin:round; stroke-width:2; stroke-opacity:0.1; fill:none" points="161.818,500.858 1152.94,500.858 "/>
<polyline clip-path="url(#clip702)" style="stroke:#000000; stroke-linecap:round; stroke-linejoin:round; stroke-width:2; stroke-opacity:0.1; fill:none" points="161.818,350.438 1152.94,350.438 "/>
<polyline clip-path="url(#clip702)" style="stroke:#000000; stroke-linecap:round; stroke-linejoin:round; stroke-width:2; stroke-opacity:0.1; fill:none" points="161.818,200.017 1152.94,200.017 "/>
<polyline clip-path="url(#clip700)" style="stroke:#000000; stroke-linecap:round; stroke-linejoin:round; stroke-width:4; stroke-opacity:1; fill:none" points="161.818,667.406 1152.94,667.406 "/>
<polyline clip-path="url(#clip700)" style="stroke:#000000; stroke-linecap:round; stroke-linejoin:round; stroke-width:4; stroke-opacity:1; fill:none" points="200.327,667.406 200.327,648.509 "/>
<polyline clip-path="url(#clip700)" style="stroke:#000000; stroke-linecap:round; stroke-linejoin:round; stroke-width:4; stroke-opacity:1; fill:none" points="463.955,667.406 463.955,648.509 "/>
<polyline clip-path="url(#clip700)" style="stroke:#000000; stroke-linecap:round; stroke-linejoin:round; stroke-width:4; stroke-opacity:1; fill:none" points="727.583,667.406 727.583,648.509 "/>
<polyline clip-path="url(#clip700)" style="stroke:#000000; stroke-linecap:round; stroke-linejoin:round; stroke-width:4; stroke-opacity:1; fill:none" points="991.211,667.406 991.211,648.509 "/>
<path clip-path="url(#clip700)" d="M146.478 739.139 Q144.563 741.054 145.484 743.914 Q146.405 746.75 150.186 750.531 Q153.954 754.3 156.802 755.233 Q159.651 756.141 161.566 754.226 Q163.493 752.299 162.572 749.463 Q161.652 746.603 157.883 742.834 Q154.102 739.053 151.254 738.144 Q148.406 737.211 146.478 739.139 M144.514 737.175 Q147.595 734.093 151.659 734.916 Q155.722 735.714 160.363 740.354 Q164.991 744.982 165.801 749.058 Q166.611 753.109 163.53 756.19 Q160.448 759.272 156.385 758.474 Q152.322 757.651 147.694 753.023 Q143.053 748.383 142.243 744.332 Q141.433 740.256 144.514 737.175 Z" fill="#000000" fill-rule="nonzero" fill-opacity="1" /><path clip-path="url(#clip700)" d="M170.748 742.024 L173.338 739.433 L176.456 742.552 L173.866 745.142 L170.748 742.024 Z" fill="#000000" fill-rule="nonzero" fill-opacity="1" /><path clip-path="url(#clip700)" d="M178.457 723.143 Q176.69 724.911 176.616 726.875 Q176.555 728.827 178.212 730.484 Q179.869 732.141 181.821 732.08 Q183.785 732.006 185.553 730.239 Q187.321 728.471 187.394 726.507 Q187.456 724.53 185.811 722.885 Q184.154 721.228 182.189 721.302 Q180.238 721.363 178.457 723.143 M174.922 724.567 Q172.933 725.77 170.945 725.574 Q168.968 725.365 167.397 723.794 Q165.199 721.596 165.482 718.761 Q165.776 715.912 168.502 713.187 Q171.239 710.45 174.075 710.167 Q176.911 709.885 179.108 712.082 Q180.679 713.654 180.876 715.642 Q181.085 717.619 179.894 719.595 Q182.103 718.22 184.313 718.441 Q186.535 718.65 188.291 720.406 Q190.955 723.069 190.746 726.126 Q190.549 729.171 187.517 732.203 Q184.485 735.235 181.428 735.444 Q178.384 735.64 175.72 732.976 Q173.964 731.221 173.756 728.999 Q173.547 726.777 174.922 724.567 M170.097 721.559 Q171.521 722.983 173.203 722.898 Q174.897 722.799 176.506 721.191 Q178.101 719.595 178.2 717.901 Q178.31 716.195 176.886 714.771 Q175.462 713.347 173.756 713.457 Q172.062 713.555 170.466 715.151 Q168.858 716.76 168.759 718.454 Q168.673 720.135 170.097 721.559 Z" fill="#000000" fill-rule="nonzero" fill-opacity="1" /><path clip-path="url(#clip700)" d="M186.461 699.156 Q184.546 701.071 185.467 703.931 Q186.388 706.767 190.169 710.548 Q193.938 714.317 196.786 715.25 Q199.634 716.158 201.549 714.243 Q203.476 712.316 202.555 709.48 Q201.635 706.619 197.866 702.851 Q194.085 699.07 191.237 698.161 Q188.389 697.228 186.461 699.156 M184.497 697.191 Q187.579 694.11 191.642 694.933 Q195.705 695.731 200.346 700.371 Q204.974 704.999 205.784 709.075 Q206.594 713.126 203.513 716.207 Q200.432 719.288 196.368 718.49 Q192.305 717.668 187.677 713.04 Q183.036 708.399 182.226 704.348 Q181.416 700.273 184.497 697.191 Z" fill="#000000" fill-rule="nonzero" fill-opacity="1" /><path clip-path="url(#clip700)" d="M410.634 738.611 Q408.719 740.526 409.64 743.386 Q410.56 746.222 414.341 750.003 Q418.11 753.772 420.958 754.705 Q423.806 755.613 425.721 753.698 Q427.649 751.771 426.728 748.935 Q425.807 746.075 422.038 742.306 Q418.257 738.525 415.409 737.617 Q412.561 736.684 410.634 738.611 M408.67 736.647 Q411.751 733.565 415.814 734.388 Q419.878 735.186 424.518 739.826 Q429.146 744.454 429.956 748.53 Q430.767 752.581 427.685 755.662 Q424.604 758.744 420.541 757.946 Q416.477 757.123 411.849 752.495 Q407.209 747.855 406.399 743.804 Q405.588 739.728 408.67 736.647 Z" fill="#000000" fill-rule="nonzero" fill-opacity="1" /><path clip-path="url(#clip700)" d="M434.904 741.496 L437.494 738.906 L440.612 742.024 L438.022 744.614 L434.904 741.496 Z" fill="#000000" fill-rule="nonzero" fill-opacity="1" /><path clip-path="url(#clip700)" d="M442.613 722.615 Q440.845 724.383 440.772 726.347 Q440.71 728.299 442.368 729.956 Q444.025 731.614 445.977 731.552 Q447.941 731.479 449.709 729.711 Q451.476 727.943 451.55 725.979 Q451.611 724.002 449.966 722.357 Q448.309 720.7 446.345 720.774 Q444.393 720.835 442.613 722.615 M439.078 724.039 Q437.089 725.242 435.1 725.046 Q433.124 724.837 431.552 723.266 Q429.355 721.068 429.637 718.233 Q429.932 715.385 432.657 712.659 Q435.395 709.922 438.231 709.639 Q441.066 709.357 443.264 711.554 Q444.835 713.126 445.031 715.115 Q445.24 717.091 444.049 719.067 Q446.259 717.692 448.469 717.913 Q450.691 718.122 452.446 719.878 Q455.11 722.542 454.901 725.598 Q454.705 728.643 451.673 731.675 Q448.641 734.707 445.584 734.916 Q442.539 735.112 439.876 732.448 Q438.12 730.693 437.911 728.471 Q437.703 726.249 439.078 724.039 M434.253 721.032 Q435.677 722.456 437.359 722.37 Q439.053 722.271 440.661 720.663 Q442.257 719.067 442.355 717.373 Q442.466 715.667 441.042 714.243 Q439.618 712.819 437.911 712.929 Q436.217 713.028 434.621 714.623 Q433.013 716.232 432.915 717.926 Q432.829 719.608 434.253 721.032 Z" fill="#000000" fill-rule="nonzero" fill-opacity="1" /><path clip-path="url(#clip700)" d="M443.706 702.274 L453.441 692.539 L455.528 694.626 L448.064 702.09 L452.557 706.583 Q452.913 705.858 453.367 705.232 Q453.809 704.594 454.349 704.054 Q457.418 700.985 460.892 700.874 Q464.366 700.764 467.239 703.636 Q470.197 706.595 470.001 710.081 Q469.792 713.555 466.441 716.907 Q465.287 718.061 463.888 719.067 Q462.5 720.062 460.831 720.946 L458.339 718.454 Q460.045 717.95 461.518 717.066 Q462.991 716.183 464.305 714.869 Q466.429 712.745 466.551 710.388 Q466.674 708.031 464.759 706.116 Q462.844 704.201 460.487 704.324 Q458.13 704.447 456.006 706.57 Q455.012 707.565 454.239 708.78 Q453.477 709.983 452.913 711.481 L443.706 702.274 Z" fill="#000000" fill-rule="nonzero" fill-opacity="1" /><path clip-path="url(#clip700)" d="M673.734 739.139 Q671.819 741.054 672.739 743.914 Q673.66 746.75 677.441 750.531 Q681.21 754.3 684.058 755.233 Q686.906 756.141 688.821 754.226 Q690.748 752.299 689.828 749.463 Q688.907 746.603 685.138 742.834 Q681.357 739.053 678.509 738.144 Q675.661 737.211 673.734 739.139 M671.77 737.175 Q674.851 734.093 678.914 734.916 Q682.978 735.714 687.618 740.354 Q692.246 744.982 693.056 749.058 Q693.867 753.109 690.785 756.19 Q687.704 759.272 683.641 758.474 Q679.577 757.651 674.949 753.023 Q670.309 748.383 669.498 744.332 Q668.688 740.256 671.77 737.175 Z" fill="#000000" fill-rule="nonzero" fill-opacity="1" /><path clip-path="url(#clip700)" d="M698.004 742.024 L700.594 739.433 L703.712 742.552 L701.122 745.142 L698.004 742.024 Z" fill="#000000" fill-rule="nonzero" fill-opacity="1" /><path clip-path="url(#clip700)" d="M708.807 736.696 L706.548 734.437 Q707.923 733.946 709.113 733.222 Q710.304 732.497 711.225 731.577 Q713.68 729.122 713.324 726.188 Q712.968 723.229 709.789 719.681 Q710.132 721.449 709.604 723.106 Q709.077 724.764 707.751 726.089 Q705.001 728.839 701.736 728.79 Q698.47 728.716 695.585 725.832 Q692.762 723.008 692.725 719.632 Q692.688 716.256 695.462 713.482 Q698.642 710.302 702.754 711.076 Q706.867 711.825 711.507 716.465 Q715.841 720.798 716.369 725.451 Q716.896 730.079 713.422 733.553 Q712.489 734.486 711.348 735.26 Q710.206 736.033 708.807 736.696 M705.971 723.99 Q707.64 722.321 707.468 720.209 Q707.309 718.085 705.32 716.097 Q703.344 714.12 701.22 713.961 Q699.096 713.776 697.427 715.446 Q695.757 717.116 695.929 719.252 Q696.101 721.363 698.077 723.339 Q700.066 725.328 702.177 725.5 Q704.301 725.66 705.971 723.99 Z" fill="#000000" fill-rule="nonzero" fill-opacity="1" /><path clip-path="url(#clip700)" d="M713.717 699.156 Q711.802 701.071 712.723 703.931 Q713.643 706.767 717.424 710.548 Q721.193 714.317 724.041 715.25 Q726.889 716.158 728.804 714.243 Q730.732 712.316 729.811 709.48 Q728.89 706.619 725.121 702.851 Q721.34 699.07 718.492 698.161 Q715.644 697.228 713.717 699.156 M711.753 697.191 Q714.834 694.11 718.897 694.933 Q722.961 695.731 727.601 700.371 Q732.229 704.999 733.04 709.075 Q733.85 713.126 730.768 716.207 Q727.687 719.288 723.624 718.49 Q719.56 717.668 714.932 713.04 Q710.292 708.399 709.482 704.348 Q708.672 700.273 711.753 697.191 Z" fill="#000000" fill-rule="nonzero" fill-opacity="1" /><path clip-path="url(#clip700)" d="M937.889 738.611 Q935.974 740.526 936.895 743.386 Q937.816 746.222 941.597 750.003 Q945.365 753.772 948.214 754.705 Q951.062 755.613 952.977 753.698 Q954.904 751.771 953.983 748.935 Q953.063 746.075 949.294 742.306 Q945.513 738.525 942.665 737.617 Q939.817 736.684 937.889 738.611 M935.925 736.647 Q939.006 733.565 943.07 734.388 Q947.133 735.186 951.774 739.826 Q956.402 744.454 957.212 748.53 Q958.022 752.581 954.941 755.662 Q951.86 758.744 947.796 757.946 Q943.733 757.123 939.105 752.495 Q934.464 747.855 933.654 743.804 Q932.844 739.728 935.925 736.647 Z" fill="#000000" fill-rule="nonzero" fill-opacity="1" /><path clip-path="url(#clip700)" d="M962.159 741.496 L964.749 738.906 L967.868 742.024 L965.277 744.614 L962.159 741.496 Z" fill="#000000" fill-rule="nonzero" fill-opacity="1" /><path clip-path="url(#clip700)" d="M972.962 736.168 L970.703 733.909 Q972.078 733.418 973.269 732.694 Q974.46 731.97 975.381 731.049 Q977.836 728.594 977.48 725.66 Q977.124 722.701 973.944 719.153 Q974.288 720.921 973.76 722.578 Q973.232 724.236 971.906 725.561 Q969.157 728.311 965.891 728.262 Q962.626 728.189 959.741 725.304 Q956.917 722.48 956.88 719.104 Q956.844 715.728 959.618 712.954 Q962.798 709.774 966.91 710.548 Q971.023 711.297 975.663 715.937 Q979.996 720.27 980.524 724.923 Q981.052 729.551 977.578 733.025 Q976.645 733.958 975.503 734.732 Q974.362 735.505 972.962 736.168 M970.126 723.462 Q971.796 721.793 971.624 719.681 Q971.464 717.557 969.476 715.569 Q967.499 713.592 965.376 713.433 Q963.252 713.249 961.582 714.918 Q959.913 716.588 960.085 718.724 Q960.256 720.835 962.233 722.812 Q964.222 724.8 966.333 724.972 Q968.457 725.132 970.126 723.462 Z" fill="#000000" fill-rule="nonzero" fill-opacity="1" /><path clip-path="url(#clip700)" d="M970.961 702.274 L980.696 692.539 L982.783 694.626 L975.319 702.09 L979.812 706.583 Q980.168 705.858 980.622 705.232 Q981.064 704.594 981.605 704.054 Q984.674 700.985 988.148 700.874 Q991.622 700.764 994.494 703.636 Q997.453 706.595 997.257 710.081 Q997.048 713.555 993.696 716.907 Q992.543 718.061 991.143 719.067 Q989.756 720.062 988.086 720.946 L985.594 718.454 Q987.301 717.95 988.774 717.066 Q990.247 716.183 991.56 714.869 Q993.684 712.745 993.807 710.388 Q993.93 708.031 992.015 706.116 Q990.1 704.201 987.743 704.324 Q985.386 704.447 983.262 706.57 Q982.267 707.565 981.494 708.78 Q980.733 709.983 980.168 711.481 L970.961 702.274 Z" fill="#000000" fill-rule="nonzero" fill-opacity="1" /><polyline clip-path="url(#clip700)" style="stroke:#000000; stroke-linecap:round; stroke-linejoin:round; stroke-width:4; stroke-opacity:1; fill:none" points="161.818,667.406 161.818,97.5521 "/>
<polyline clip-path="url(#clip700)" style="stroke:#000000; stroke-linecap:round; stroke-linejoin:round; stroke-width:4; stroke-opacity:1; fill:none" points="161.818,651.278 180.716,651.278 "/>
<polyline clip-path="url(#clip700)" style="stroke:#000000; stroke-linecap:round; stroke-linejoin:round; stroke-width:4; stroke-opacity:1; fill:none" points="161.818,500.858 180.716,500.858 "/>
<polyline clip-path="url(#clip700)" style="stroke:#000000; stroke-linecap:round; stroke-linejoin:round; stroke-width:4; stroke-opacity:1; fill:none" points="161.818,350.438 180.716,350.438 "/>
<polyline clip-path="url(#clip700)" style="stroke:#000000; stroke-linecap:round; stroke-linejoin:round; stroke-width:4; stroke-opacity:1; fill:none" points="161.818,200.017 180.716,200.017 "/>
<path clip-path="url(#clip700)" d="M116.86 640.627 Q114.152 640.627 112.78 643.301 Q111.426 645.957 111.426 651.304 Q111.426 656.634 112.78 659.308 Q114.152 661.964 116.86 661.964 Q119.586 661.964 120.94 659.308 Q122.311 656.634 122.311 651.304 Q122.311 645.957 120.94 643.301 Q119.586 640.627 116.86 640.627 M116.86 637.85 Q121.217 637.85 123.509 641.305 Q125.818 644.742 125.818 651.304 Q125.818 657.85 123.509 661.304 Q121.217 664.742 116.86 664.742 Q112.502 664.742 110.193 661.304 Q107.902 657.85 107.902 651.304 Q107.902 644.742 110.193 641.305 Q112.502 637.85 116.86 637.85 Z" fill="#000000" fill-rule="nonzero" fill-opacity="1" /><path clip-path="url(#clip700)" d="M110.888 510.867 L116.617 510.867 L116.617 491.092 L110.384 492.342 L110.384 489.148 L116.582 487.898 L120.089 487.898 L120.089 510.867 L125.818 510.867 L125.818 513.818 L110.888 513.818 L110.888 510.867 Z" fill="#000000" fill-rule="nonzero" fill-opacity="1" /><path clip-path="url(#clip700)" d="M113.579 360.446 L125.818 360.446 L125.818 363.398 L109.36 363.398 L109.36 360.446 Q111.356 358.38 114.794 354.908 Q118.249 351.418 119.134 350.412 Q120.818 348.519 121.478 347.217 Q122.155 345.898 122.155 344.63 Q122.155 342.564 120.697 341.262 Q119.256 339.96 116.929 339.96 Q115.28 339.96 113.44 340.533 Q111.617 341.106 109.533 342.269 L109.533 338.728 Q111.652 337.877 113.492 337.443 Q115.332 337.009 116.86 337.009 Q120.888 337.009 123.283 339.023 Q125.679 341.037 125.679 344.405 Q125.679 346.002 125.072 347.443 Q124.481 348.866 122.901 350.811 Q122.467 351.314 120.141 353.727 Q117.815 356.123 113.579 360.446 Z" fill="#000000" fill-rule="nonzero" fill-opacity="1" /><path clip-path="url(#clip700)" d="M120.471 199.002 Q122.988 199.54 124.395 201.241 Q125.818 202.942 125.818 205.442 Q125.818 209.279 123.179 211.38 Q120.54 213.481 115.679 213.481 Q114.047 213.481 112.311 213.151 Q110.593 212.838 108.752 212.196 L108.752 208.811 Q110.211 209.661 111.947 210.095 Q113.683 210.529 115.575 210.529 Q118.874 210.529 120.592 209.227 Q122.329 207.925 122.329 205.442 Q122.329 203.151 120.714 201.866 Q119.117 200.564 116.252 200.564 L113.231 200.564 L113.231 197.682 L116.391 197.682 Q118.978 197.682 120.349 196.658 Q121.721 195.616 121.721 193.672 Q121.721 191.675 120.297 190.616 Q118.891 189.54 116.252 189.54 Q114.811 189.54 113.162 189.852 Q111.513 190.165 109.533 190.824 L109.533 187.7 Q111.53 187.144 113.266 186.866 Q115.02 186.588 116.565 186.588 Q120.558 186.588 122.884 188.411 Q125.21 190.217 125.21 193.307 Q125.21 195.46 123.978 196.953 Q122.745 198.429 120.471 199.002 Z" fill="#000000" fill-rule="nonzero" fill-opacity="1" /><path clip-path="url(#clip700)" d="M163.901 20.1758 Q165.313 17.8147 168.809 15.7314 Q170.175 14.9212 174.387 14.9212 Q179.11 14.9212 182.049 18.6712 Q185.012 22.4212 185.012 28.5323 Q185.012 34.6433 182.049 38.3933 Q179.11 42.1433 174.387 42.1433 Q171.54 42.1433 169.48 41.0322 Q167.443 39.8979 166.1 37.5831 L166.1 51.3331 L161.818 51.3331 L161.818 28.7637 Q161.818 23.4165 163.901 20.1758 M180.591 28.5323 Q180.591 23.8332 178.647 21.1712 Q176.725 18.486 173.346 18.486 Q169.966 18.486 168.022 21.1712 Q166.1 23.8332 166.1 28.5323 Q166.1 33.2313 168.022 35.9165 Q169.966 38.5785 173.346 38.5785 Q176.725 38.5785 178.647 35.9165 Q180.591 33.2313 180.591 28.5323 Z" fill="#000000" fill-rule="nonzero" fill-opacity="1" /><polyline clip-path="url(#clip702)" style="stroke:#009af9; stroke-linecap:round; stroke-linejoin:round; stroke-width:4; stroke-opacity:1; fill:none" points="189.869,586.038 248.307,590.867 306.746,596.295 365.185,602.438 423.623,609.45 482.062,617.527 540.501,626.931 598.939,638.016 657.378,651.278 715.817,635.131 774.256,615.044 832.694,589.379 891.133,555.443 949.572,508.475 1008.01,439.199 1066.45,326.825 1124.89,113.68 "/>
<circle clip-path="url(#clip702)" cx="657.378" cy="651.278" r="10.8" fill="#ff0000" fill-rule="evenodd" fill-opacity="1" stroke="#000000" stroke-opacity="1" stroke-width="3.2"/>
<path clip-path="url(#clip700)" d="M1361.64 667.406 L2352.76 667.406 L2352.76 97.5521 L1361.64 97.5521  Z" fill="#ffffff" fill-rule="evenodd" fill-opacity="1"/>
<defs>
  <clipPath id="clip703">
    <rect x="1361" y="97" width="992" height="571"/>
  </clipPath>
</defs>
<polyline clip-path="url(#clip703)" style="stroke:#000000; stroke-linecap:round; stroke-linejoin:round; stroke-width:2; stroke-opacity:0.1; fill:none" points="1445.77,667.406 1445.77,97.5521 "/>
<polyline clip-path="url(#clip703)" style="stroke:#000000; stroke-linecap:round; stroke-linejoin:round; stroke-width:2; stroke-opacity:0.1; fill:none" points="1587.89,667.406 1587.89,97.5521 "/>
<polyline clip-path="url(#clip703)" style="stroke:#000000; stroke-linecap:round; stroke-linejoin:round; stroke-width:2; stroke-opacity:0.1; fill:none" points="1730.01,667.406 1730.01,97.5521 "/>
<polyline clip-path="url(#clip703)" style="stroke:#000000; stroke-linecap:round; stroke-linejoin:round; stroke-width:2; stroke-opacity:0.1; fill:none" points="1872.13,667.406 1872.13,97.5521 "/>
<polyline clip-path="url(#clip703)" style="stroke:#000000; stroke-linecap:round; stroke-linejoin:round; stroke-width:2; stroke-opacity:0.1; fill:none" points="2014.26,667.406 2014.26,97.5521 "/>
<polyline clip-path="url(#clip703)" style="stroke:#000000; stroke-linecap:round; stroke-linejoin:round; stroke-width:2; stroke-opacity:0.1; fill:none" points="2156.38,667.406 2156.38,97.5521 "/>
<polyline clip-path="url(#clip703)" style="stroke:#000000; stroke-linecap:round; stroke-linejoin:round; stroke-width:2; stroke-opacity:0.1; fill:none" points="2298.5,667.406 2298.5,97.5521 "/>
<polyline clip-path="url(#clip703)" style="stroke:#000000; stroke-linecap:round; stroke-linejoin:round; stroke-width:2; stroke-opacity:0.1; fill:none" points="1361.64,651.278 2352.76,651.278 "/>
<polyline clip-path="url(#clip703)" style="stroke:#000000; stroke-linecap:round; stroke-linejoin:round; stroke-width:2; stroke-opacity:0.1; fill:none" points="1361.64,508.246 2352.76,508.246 "/>
<polyline clip-path="url(#clip703)" style="stroke:#000000; stroke-linecap:round; stroke-linejoin:round; stroke-width:2; stroke-opacity:0.1; fill:none" points="1361.64,365.214 2352.76,365.214 "/>
<polyline clip-path="url(#clip703)" style="stroke:#000000; stroke-linecap:round; stroke-linejoin:round; stroke-width:2; stroke-opacity:0.1; fill:none" points="1361.64,222.181 2352.76,222.181 "/>
<polyline clip-path="url(#clip700)" style="stroke:#000000; stroke-linecap:round; stroke-linejoin:round; stroke-width:4; stroke-opacity:1; fill:none" points="1361.64,667.406 2352.76,667.406 "/>
<polyline clip-path="url(#clip700)" style="stroke:#000000; stroke-linecap:round; stroke-linejoin:round; stroke-width:4; stroke-opacity:1; fill:none" points="1445.77,667.406 1445.77,648.509 "/>
<polyline clip-path="url(#clip700)" style="stroke:#000000; stroke-linecap:round; stroke-linejoin:round; stroke-width:4; stroke-opacity:1; fill:none" points="1587.89,667.406 1587.89,648.509 "/>
<polyline clip-path="url(#clip700)" style="stroke:#000000; stroke-linecap:round; stroke-linejoin:round; stroke-width:4; stroke-opacity:1; fill:none" points="1730.01,667.406 1730.01,648.509 "/>
<polyline clip-path="url(#clip700)" style="stroke:#000000; stroke-linecap:round; stroke-linejoin:round; stroke-width:4; stroke-opacity:1; fill:none" points="1872.13,667.406 1872.13,648.509 "/>
<polyline clip-path="url(#clip700)" style="stroke:#000000; stroke-linecap:round; stroke-linejoin:round; stroke-width:4; stroke-opacity:1; fill:none" points="2014.26,667.406 2014.26,648.509 "/>
<polyline clip-path="url(#clip700)" style="stroke:#000000; stroke-linecap:round; stroke-linejoin:round; stroke-width:4; stroke-opacity:1; fill:none" points="2156.38,667.406 2156.38,648.509 "/>
<polyline clip-path="url(#clip700)" style="stroke:#000000; stroke-linecap:round; stroke-linejoin:round; stroke-width:4; stroke-opacity:1; fill:none" points="2298.5,667.406 2298.5,648.509 "/>
<path clip-path="url(#clip700)" d="M1391.92 739.139 Q1390 741.054 1390.92 743.914 Q1391.84 746.75 1395.63 750.531 Q1399.39 754.3 1402.24 755.233 Q1405.09 756.141 1407.01 754.226 Q1408.93 752.299 1408.01 749.463 Q1407.09 746.603 1403.32 742.834 Q1399.54 739.053 1396.69 738.144 Q1393.85 737.211 1391.92 739.139 M1389.95 737.175 Q1393.03 734.093 1397.1 734.916 Q1401.16 735.714 1405.8 740.354 Q1410.43 744.982 1411.24 749.058 Q1412.05 753.109 1408.97 756.19 Q1405.89 759.272 1401.82 758.474 Q1397.76 757.651 1393.13 753.023 Q1388.49 748.383 1387.68 744.332 Q1386.87 740.256 1389.95 737.175 Z" fill="#000000" fill-rule="nonzero" fill-opacity="1" /><path clip-path="url(#clip700)" d="M1416.19 742.024 L1418.78 739.433 L1421.9 742.552 L1419.31 745.142 L1416.19 742.024 Z" fill="#000000" fill-rule="nonzero" fill-opacity="1" /><path clip-path="url(#clip700)" d="M1424.93 719.755 Q1427.09 718.355 1429.29 718.564 Q1431.5 718.761 1433.26 720.528 Q1435.98 723.241 1435.6 726.593 Q1435.22 729.944 1431.78 733.381 Q1430.62 734.535 1429.16 735.53 Q1427.73 736.524 1425.97 737.371 L1423.58 734.977 Q1425.21 734.548 1426.75 733.627 Q1428.28 732.706 1429.62 731.368 Q1431.95 729.036 1432.24 726.9 Q1432.55 724.751 1430.8 722.996 Q1429.18 721.375 1427.13 721.609 Q1425.08 721.817 1423.05 723.843 L1420.91 725.979 L1418.88 723.941 L1421.11 721.707 Q1422.94 719.878 1423.19 718.184 Q1423.42 716.477 1422.04 715.102 Q1420.63 713.69 1418.88 713.948 Q1417.12 714.182 1415.25 716.047 Q1414.24 717.066 1413.29 718.454 Q1412.35 719.841 1411.41 721.707 L1409.2 719.497 Q1410.22 717.692 1411.25 716.268 Q1412.3 714.832 1413.39 713.74 Q1416.21 710.916 1419.15 710.56 Q1422.07 710.192 1424.25 712.377 Q1425.78 713.899 1425.96 715.827 Q1426.13 717.742 1424.93 719.755 Z" fill="#000000" fill-rule="nonzero" fill-opacity="1" /><path clip-path="url(#clip700)" d="M1431.9 699.156 Q1429.99 701.071 1430.91 703.931 Q1431.83 706.767 1435.61 710.548 Q1439.38 714.317 1442.23 715.25 Q1445.07 716.158 1446.99 714.243 Q1448.92 712.316 1448 709.48 Q1447.07 706.619 1443.31 702.851 Q1439.52 699.07 1436.68 698.161 Q1433.83 697.228 1431.9 699.156 M1429.94 697.191 Q1433.02 694.11 1437.08 694.933 Q1441.14 695.731 1445.79 700.371 Q1450.41 704.999 1451.22 709.075 Q1452.03 713.126 1448.95 716.207 Q1445.87 719.288 1441.81 718.49 Q1437.74 717.668 1433.12 713.04 Q1428.48 708.399 1427.67 704.348 Q1426.86 700.273 1429.94 697.191 Z" fill="#000000" fill-rule="nonzero" fill-opacity="1" /><path clip-path="url(#clip700)" d="M1534.69 738.488 Q1532.78 740.403 1533.7 743.264 Q1534.62 746.099 1538.4 749.88 Q1542.17 753.649 1545.01 754.582 Q1547.86 755.491 1549.78 753.576 Q1551.71 751.648 1550.78 748.812 Q1549.86 745.952 1546.1 742.183 Q1542.31 738.402 1539.47 737.494 Q1536.62 736.561 1534.69 738.488 M1532.73 736.524 Q1535.81 733.443 1539.87 734.265 Q1543.93 735.063 1548.57 739.704 Q1553.2 744.332 1554.01 748.407 Q1554.82 752.458 1551.74 755.54 Q1548.66 758.621 1544.6 757.823 Q1540.53 757.001 1535.91 752.372 Q1531.27 747.732 1530.46 743.681 Q1529.65 739.605 1532.73 736.524 Z" fill="#000000" fill-rule="nonzero" fill-opacity="1" /><path clip-path="url(#clip700)" d="M1558.96 741.373 L1561.55 738.783 L1564.67 741.901 L1562.08 744.491 L1558.96 741.373 Z" fill="#000000" fill-rule="nonzero" fill-opacity="1" /><path clip-path="url(#clip700)" d="M1567.7 719.104 Q1569.86 717.705 1572.06 717.913 Q1574.27 718.11 1576.04 719.878 Q1578.75 722.591 1578.37 725.942 Q1577.99 729.293 1574.55 732.731 Q1573.4 733.885 1571.94 734.879 Q1570.5 735.873 1568.74 736.72 L1566.35 734.327 Q1567.98 733.897 1569.52 732.976 Q1571.05 732.056 1572.39 730.717 Q1574.72 728.385 1575.02 726.249 Q1575.32 724.101 1573.57 722.345 Q1571.95 720.725 1569.9 720.958 Q1567.85 721.167 1565.82 723.192 L1563.69 725.328 L1561.65 723.29 L1563.88 721.056 Q1565.71 719.227 1565.96 717.533 Q1566.19 715.827 1564.82 714.452 Q1563.4 713.04 1561.65 713.298 Q1559.89 713.531 1558.03 715.397 Q1557.01 716.416 1556.06 717.803 Q1555.12 719.19 1554.19 721.056 L1551.98 718.846 Q1552.99 717.042 1554.03 715.618 Q1555.07 714.182 1556.16 713.089 Q1558.99 710.265 1561.92 709.909 Q1564.84 709.541 1567.03 711.726 Q1568.55 713.249 1568.73 715.176 Q1568.9 717.091 1567.7 719.104 Z" fill="#000000" fill-rule="nonzero" fill-opacity="1" /><path clip-path="url(#clip700)" d="M1584.41 717.987 L1588.46 713.936 L1574.48 699.954 L1570.95 705.245 L1568.7 702.986 L1572.19 697.719 L1574.67 695.24 L1590.92 711.481 L1594.97 707.43 L1597.05 709.517 L1586.5 720.074 L1584.41 717.987 Z" fill="#000000" fill-rule="nonzero" fill-opacity="1" /><path clip-path="url(#clip700)" d="M1677.01 738.292 Q1675.09 740.207 1676.01 743.067 Q1676.94 745.903 1680.72 749.684 Q1684.49 753.453 1687.33 754.386 Q1690.18 755.294 1692.1 753.379 Q1694.02 751.452 1693.1 748.616 Q1692.18 745.756 1688.41 741.987 Q1684.63 738.206 1681.78 737.297 Q1678.94 736.364 1677.01 738.292 M1675.05 736.328 Q1678.13 733.246 1682.19 734.069 Q1686.25 734.867 1690.89 739.507 Q1695.52 744.135 1696.33 748.211 Q1697.14 752.262 1694.06 755.343 Q1690.98 758.425 1686.92 757.627 Q1682.85 756.804 1678.22 752.176 Q1673.58 747.536 1672.77 743.485 Q1671.96 739.409 1675.05 736.328 Z" fill="#000000" fill-rule="nonzero" fill-opacity="1" /><path clip-path="url(#clip700)" d="M1701.28 741.177 L1703.87 738.586 L1706.99 741.705 L1704.4 744.295 L1701.28 741.177 Z" fill="#000000" fill-rule="nonzero" fill-opacity="1" /><path clip-path="url(#clip700)" d="M1710.02 718.908 Q1712.18 717.508 1714.38 717.717 Q1716.59 717.913 1718.36 719.681 Q1721.07 722.394 1720.69 725.746 Q1720.31 729.097 1716.87 732.534 Q1715.72 733.688 1714.25 734.683 Q1712.82 735.677 1711.06 736.524 L1708.67 734.13 Q1710.3 733.701 1711.84 732.78 Q1713.37 731.859 1714.71 730.521 Q1717.04 728.189 1717.34 726.053 Q1717.64 723.904 1715.89 722.149 Q1714.27 720.528 1712.22 720.762 Q1710.17 720.97 1708.14 722.996 L1706.01 725.132 L1703.97 723.094 L1706.2 720.86 Q1708.03 719.031 1708.28 717.336 Q1708.51 715.63 1707.13 714.255 Q1705.72 712.843 1703.97 713.101 Q1702.21 713.334 1700.35 715.2 Q1699.33 716.219 1698.38 717.607 Q1697.44 718.994 1696.5 720.86 L1694.29 718.65 Q1695.31 716.845 1696.34 715.421 Q1697.39 713.985 1698.48 712.893 Q1701.3 710.069 1704.24 709.713 Q1707.16 709.345 1709.34 711.53 Q1710.87 713.052 1711.05 714.979 Q1711.22 716.895 1710.02 718.908 Z" fill="#000000" fill-rule="nonzero" fill-opacity="1" /><path clip-path="url(#clip700)" d="M1728.43 716.084 L1737.09 707.43 L1739.18 709.517 L1727.54 721.154 L1725.45 719.067 Q1725.4 716.195 1725.38 711.309 Q1725.35 706.398 1725.27 705.06 Q1725.12 702.532 1724.67 701.144 Q1724.21 699.733 1723.31 698.836 Q1721.85 697.376 1719.9 697.486 Q1717.96 697.584 1716.32 699.229 Q1715.15 700.395 1714.25 702.102 Q1713.37 703.796 1712.72 706.092 L1710.22 703.587 Q1711.11 701.488 1712.11 699.88 Q1713.1 698.272 1714.18 697.191 Q1717.03 694.343 1720.15 694.073 Q1723.27 693.803 1725.65 696.185 Q1726.78 697.314 1727.37 698.763 Q1727.96 700.187 1728.21 702.679 Q1728.26 703.342 1728.32 706.693 Q1728.37 710.032 1728.43 716.084 Z" fill="#000000" fill-rule="nonzero" fill-opacity="1" /><path clip-path="url(#clip700)" d="M1818.63 738.795 Q1816.71 740.71 1817.63 743.571 Q1818.55 746.406 1822.34 750.187 Q1826.1 753.956 1828.95 754.889 Q1831.8 755.797 1833.72 753.882 Q1835.64 751.955 1834.72 749.119 Q1833.8 746.259 1830.03 742.49 Q1826.25 738.709 1823.4 737.801 Q1820.56 736.868 1818.63 738.795 M1816.66 736.831 Q1819.75 733.75 1823.81 734.572 Q1827.87 735.37 1832.51 740.01 Q1837.14 744.639 1837.95 748.714 Q1838.76 752.765 1835.68 755.847 Q1832.6 758.928 1828.53 758.13 Q1824.47 757.307 1819.84 752.679 Q1815.2 748.039 1814.39 743.988 Q1813.58 739.912 1816.66 736.831 Z" fill="#000000" fill-rule="nonzero" fill-opacity="1" /><path clip-path="url(#clip700)" d="M1842.9 741.68 L1845.49 739.09 L1848.61 742.208 L1846.02 744.798 L1842.9 741.68 Z" fill="#000000" fill-rule="nonzero" fill-opacity="1" /><path clip-path="url(#clip700)" d="M1851.64 719.411 Q1853.8 718.012 1856 718.22 Q1858.21 718.417 1859.97 720.185 Q1862.69 722.898 1862.31 726.249 Q1861.93 729.6 1858.49 733.038 Q1857.33 734.192 1855.87 735.186 Q1854.44 736.18 1852.68 737.027 L1850.29 734.634 Q1851.92 734.204 1853.46 733.283 Q1854.99 732.362 1856.33 731.024 Q1858.66 728.692 1858.96 726.556 Q1859.26 724.408 1857.51 722.652 Q1855.89 721.032 1853.84 721.265 Q1851.79 721.474 1849.76 723.499 L1847.62 725.635 L1845.59 723.597 L1847.82 721.363 Q1849.65 719.534 1849.9 717.84 Q1850.13 716.133 1848.75 714.759 Q1847.34 713.347 1845.59 713.605 Q1843.83 713.838 1841.97 715.704 Q1840.95 716.723 1840 718.11 Q1839.06 719.497 1838.12 721.363 L1835.91 719.153 Q1836.93 717.349 1837.96 715.925 Q1839.01 714.488 1840.1 713.396 Q1842.92 710.572 1845.86 710.216 Q1848.78 709.848 1850.96 712.033 Q1852.49 713.555 1852.67 715.483 Q1852.84 717.398 1851.64 719.411 Z" fill="#000000" fill-rule="nonzero" fill-opacity="1" /><path clip-path="url(#clip700)" d="M1867.63 703.415 Q1869.79 702.016 1871.99 702.225 Q1874.2 702.421 1875.97 704.189 Q1878.68 706.902 1878.3 710.253 Q1877.92 713.605 1874.48 717.042 Q1873.33 718.196 1871.87 719.19 Q1870.43 720.185 1868.68 721.032 L1866.28 718.638 Q1867.92 718.208 1869.45 717.287 Q1870.99 716.367 1872.32 715.029 Q1874.66 712.696 1874.95 710.56 Q1875.26 708.412 1873.5 706.656 Q1871.88 705.036 1869.83 705.269 Q1867.78 705.478 1865.76 707.503 L1863.62 709.639 L1861.58 707.602 L1863.82 705.367 Q1865.65 703.538 1865.89 701.844 Q1866.12 700.138 1864.75 698.763 Q1863.34 697.351 1861.58 697.609 Q1859.83 697.842 1857.96 699.708 Q1856.94 700.727 1856 702.114 Q1855.05 703.501 1854.12 705.367 L1851.91 703.158 Q1852.93 701.353 1853.96 699.929 Q1855 698.493 1856.09 697.4 Q1858.92 694.577 1861.85 694.221 Q1864.77 693.852 1866.96 696.037 Q1868.48 697.56 1868.67 699.487 Q1868.84 701.402 1867.63 703.415 Z" fill="#000000" fill-rule="nonzero" fill-opacity="1" /><path clip-path="url(#clip700)" d="M1960.15 739.397 Q1958.23 741.312 1959.15 744.172 Q1960.08 747.008 1963.86 750.789 Q1967.62 754.558 1970.47 755.491 Q1973.32 756.399 1975.24 754.484 Q1977.16 752.557 1976.24 749.721 Q1975.32 746.86 1971.55 743.092 Q1967.77 739.311 1964.92 738.402 Q1962.08 737.469 1960.15 739.397 M1958.18 737.432 Q1961.27 734.351 1965.33 735.174 Q1969.39 735.972 1974.03 740.612 Q1978.66 745.24 1979.47 749.316 Q1980.28 753.367 1977.2 756.448 Q1974.12 759.529 1970.06 758.731 Q1965.99 757.909 1961.36 753.281 Q1956.72 748.641 1955.91 744.589 Q1955.1 740.514 1958.18 737.432 Z" fill="#000000" fill-rule="nonzero" fill-opacity="1" /><path clip-path="url(#clip700)" d="M1984.42 742.282 L1987.01 739.691 L1990.13 742.809 L1987.54 745.4 L1984.42 742.282 Z" fill="#000000" fill-rule="nonzero" fill-opacity="1" /><path clip-path="url(#clip700)" d="M1993.16 720.013 Q1995.32 718.613 1997.52 718.822 Q1999.73 719.018 2001.49 720.786 Q2004.21 723.499 2003.83 726.85 Q2003.45 730.202 2000.01 733.639 Q1998.86 734.793 1997.39 735.787 Q1995.96 736.782 1994.2 737.629 L1991.81 735.235 Q1993.44 734.805 1994.98 733.885 Q1996.51 732.964 1997.85 731.626 Q2000.18 729.293 2000.48 727.157 Q2000.78 725.009 1999.03 723.254 Q1997.41 721.633 1995.36 721.866 Q1993.31 722.075 1991.28 724.101 L1989.14 726.237 L1987.11 724.199 L1989.34 721.965 Q1991.17 720.135 1991.42 718.441 Q1991.65 716.735 1990.27 715.36 Q1988.86 713.948 1987.11 714.206 Q1985.35 714.439 1983.49 716.305 Q1982.47 717.324 1981.52 718.711 Q1980.58 720.099 1979.64 721.965 L1977.43 719.755 Q1978.45 717.95 1979.48 716.526 Q1980.53 715.09 1981.62 713.997 Q1984.44 711.174 1987.38 710.818 Q1990.3 710.45 1992.48 712.635 Q1994.01 714.157 1994.19 716.084 Q1994.36 717.999 1993.16 720.013 Z" fill="#000000" fill-rule="nonzero" fill-opacity="1" /><path clip-path="url(#clip700)" d="M2002.17 698.431 L2005.69 714.476 L2011.95 708.215 L2002.17 698.431 M1999.36 696.921 L2002.48 693.803 L2014.42 705.748 L2017.04 703.133 L2019.1 705.195 L2016.48 707.81 L2020.81 712.131 L2018.34 714.599 L2014.02 710.278 L2005.74 718.552 L2003.35 716.158 L1999.36 696.921 Z" fill="#000000" fill-rule="nonzero" fill-opacity="1" /><path clip-path="url(#clip700)" d="M2103.06 738.611 Q2101.14 740.526 2102.06 743.386 Q2102.98 746.222 2106.76 750.003 Q2110.53 753.772 2113.38 754.705 Q2116.23 755.613 2118.14 753.698 Q2120.07 751.771 2119.15 748.935 Q2118.23 746.075 2114.46 742.306 Q2110.68 738.525 2107.83 737.617 Q2104.98 736.684 2103.06 738.611 M2101.09 736.647 Q2104.17 733.565 2108.24 734.388 Q2112.3 735.186 2116.94 739.826 Q2121.57 744.454 2122.38 748.53 Q2123.19 752.581 2120.11 755.662 Q2117.03 758.744 2112.96 757.946 Q2108.9 757.123 2104.27 752.495 Q2099.63 747.855 2098.82 743.804 Q2098.01 739.728 2101.09 736.647 Z" fill="#000000" fill-rule="nonzero" fill-opacity="1" /><path clip-path="url(#clip700)" d="M2127.33 741.496 L2129.92 738.906 L2133.03 742.024 L2130.44 744.614 L2127.33 741.496 Z" fill="#000000" fill-rule="nonzero" fill-opacity="1" /><path clip-path="url(#clip700)" d="M2136.07 719.227 Q2138.23 717.828 2140.43 718.036 Q2142.63 718.233 2144.4 720 Q2147.12 722.713 2146.74 726.065 Q2146.35 729.416 2142.92 732.853 Q2141.76 734.007 2140.3 735.002 Q2138.87 735.996 2137.11 736.843 L2134.72 734.449 Q2136.35 734.02 2137.88 733.099 Q2139.42 732.178 2140.76 730.84 Q2143.09 728.508 2143.38 726.372 Q2143.69 724.223 2141.94 722.468 Q2140.31 720.847 2138.26 721.081 Q2136.21 721.289 2134.19 723.315 L2132.05 725.451 L2130.01 723.413 L2132.25 721.179 Q2134.08 719.35 2134.32 717.656 Q2134.56 715.949 2133.18 714.574 Q2131.77 713.163 2130.01 713.42 Q2128.26 713.654 2126.39 715.52 Q2125.37 716.539 2124.43 717.926 Q2123.48 719.313 2122.55 721.179 L2120.34 718.969 Q2121.36 717.165 2122.39 715.741 Q2123.44 714.304 2124.53 713.212 Q2127.35 710.388 2130.29 710.032 Q2133.21 709.664 2135.39 711.849 Q2136.91 713.371 2137.1 715.299 Q2137.27 717.214 2136.07 719.227 Z" fill="#000000" fill-rule="nonzero" fill-opacity="1" /><path clip-path="url(#clip700)" d="M2136.13 702.274 L2145.86 692.539 L2147.95 694.626 L2140.49 702.09 L2144.98 706.583 Q2145.34 705.858 2145.79 705.232 Q2146.23 704.594 2146.77 704.054 Q2149.84 700.985 2153.32 700.874 Q2156.79 700.764 2159.66 703.636 Q2162.62 706.595 2162.42 710.081 Q2162.22 713.555 2158.86 716.907 Q2157.71 718.061 2156.31 719.067 Q2154.92 720.062 2153.25 720.946 L2150.76 718.454 Q2152.47 717.95 2153.94 717.066 Q2155.41 716.183 2156.73 714.869 Q2158.85 712.745 2158.97 710.388 Q2159.1 708.031 2157.18 706.116 Q2155.27 704.201 2152.91 704.324 Q2150.55 704.447 2148.43 706.57 Q2147.43 707.565 2146.66 708.78 Q2145.9 709.983 2145.34 711.481 L2136.13 702.274 Z" fill="#000000" fill-rule="nonzero" fill-opacity="1" /><path clip-path="url(#clip700)" d="M2244.57 739.225 Q2242.65 741.14 2243.57 744 Q2244.49 746.836 2248.27 750.617 Q2252.04 754.386 2254.89 755.319 Q2257.74 756.227 2259.65 754.312 Q2261.58 752.385 2260.66 749.549 Q2259.74 746.689 2255.97 742.92 Q2252.19 739.139 2249.34 738.23 Q2246.49 737.297 2244.57 739.225 M2242.6 737.261 Q2245.68 734.179 2249.75 735.002 Q2253.81 735.8 2258.45 740.44 Q2263.08 745.068 2263.89 749.144 Q2264.7 753.195 2261.62 756.276 Q2258.54 759.358 2254.47 758.56 Q2250.41 757.737 2245.78 753.109 Q2241.14 748.469 2240.33 744.418 Q2239.52 740.342 2242.6 737.261 Z" fill="#000000" fill-rule="nonzero" fill-opacity="1" /><path clip-path="url(#clip700)" d="M2268.83 742.11 L2271.43 739.519 L2274.54 742.638 L2271.95 745.228 L2268.83 742.11 Z" fill="#000000" fill-rule="nonzero" fill-opacity="1" /><path clip-path="url(#clip700)" d="M2277.58 719.841 Q2279.74 718.441 2281.93 718.65 Q2284.14 718.846 2285.91 720.614 Q2288.62 723.327 2288.24 726.679 Q2287.86 730.03 2284.43 733.467 Q2283.27 734.621 2281.81 735.616 Q2280.37 736.61 2278.62 737.457 L2276.23 735.063 Q2277.86 734.634 2279.39 733.713 Q2280.93 732.792 2282.26 731.454 Q2284.6 729.122 2284.89 726.985 Q2285.2 724.837 2283.44 723.082 Q2281.82 721.461 2279.77 721.695 Q2277.72 721.903 2275.7 723.929 L2273.56 726.065 L2271.52 724.027 L2273.76 721.793 Q2275.59 719.964 2275.83 718.269 Q2276.07 716.563 2274.69 715.188 Q2273.28 713.776 2271.52 714.034 Q2269.77 714.267 2267.9 716.133 Q2266.88 717.152 2265.94 718.54 Q2264.99 719.927 2264.06 721.793 L2261.85 719.583 Q2262.87 717.778 2263.9 716.354 Q2264.94 714.918 2266.04 713.826 Q2268.86 711.002 2271.79 710.646 Q2274.72 710.278 2276.9 712.463 Q2278.42 713.985 2278.61 715.912 Q2278.78 717.828 2277.58 719.841 Z" fill="#000000" fill-rule="nonzero" fill-opacity="1" /><path clip-path="url(#clip700)" d="M2291.4 705.478 Q2289.73 707.147 2289.89 709.271 Q2290.06 711.383 2292.05 713.371 Q2294.03 715.348 2296.15 715.532 Q2298.27 715.691 2299.94 714.022 Q2301.61 712.352 2301.44 710.241 Q2301.27 708.105 2299.29 706.128 Q2297.3 704.14 2295.18 703.98 Q2293.07 703.808 2291.4 705.478 M2288.55 692.784 L2290.81 695.043 Q2289.43 695.534 2288.24 696.258 Q2287.06 696.97 2286.13 697.903 Q2283.68 700.359 2284.03 703.317 Q2284.4 706.263 2287.57 709.799 Q2287.22 708.007 2287.75 706.349 Q2288.27 704.68 2289.58 703.366 Q2292.34 700.604 2295.62 700.69 Q2298.9 700.751 2301.78 703.636 Q2304.61 706.46 2304.64 709.836 Q2304.68 713.212 2301.91 715.986 Q2298.73 719.166 2294.61 718.417 Q2290.49 717.656 2285.86 713.028 Q2281.52 708.682 2281 704.041 Q2280.47 699.389 2283.95 695.915 Q2284.88 694.982 2286.01 694.221 Q2287.15 693.447 2288.55 692.784 Z" fill="#000000" fill-rule="nonzero" fill-opacity="1" /><polyline clip-path="url(#clip700)" style="stroke:#000000; stroke-linecap:round; stroke-linejoin:round; stroke-width:4; stroke-opacity:1; fill:none" points="1361.64,667.406 1361.64,97.5521 "/>
<polyline clip-path="url(#clip700)" style="stroke:#000000; stroke-linecap:round; stroke-linejoin:round; stroke-width:4; stroke-opacity:1; fill:none" points="1361.64,651.278 1380.53,651.278 "/>
<polyline clip-path="url(#clip700)" style="stroke:#000000; stroke-linecap:round; stroke-linejoin:round; stroke-width:4; stroke-opacity:1; fill:none" points="1361.64,508.246 1380.53,508.246 "/>
<polyline clip-path="url(#clip700)" style="stroke:#000000; stroke-linecap:round; stroke-linejoin:round; stroke-width:4; stroke-opacity:1; fill:none" points="1361.64,365.214 1380.53,365.214 "/>
<polyline clip-path="url(#clip700)" style="stroke:#000000; stroke-linecap:round; stroke-linejoin:round; stroke-width:4; stroke-opacity:1; fill:none" points="1361.64,222.181 1380.53,222.181 "/>
<path clip-path="url(#clip700)" d="M1260.13 640.627 Q1257.42 640.627 1256.05 643.301 Q1254.7 645.957 1254.7 651.304 Q1254.7 656.634 1256.05 659.308 Q1257.42 661.964 1260.13 661.964 Q1262.86 661.964 1264.21 659.308 Q1265.58 656.634 1265.58 651.304 Q1265.58 645.957 1264.21 643.301 Q1262.86 640.627 1260.13 640.627 M1260.13 637.85 Q1264.49 637.85 1266.78 641.305 Q1269.09 644.742 1269.09 651.304 Q1269.09 657.85 1266.78 661.304 Q1264.49 664.742 1260.13 664.742 Q1255.78 664.742 1253.47 661.304 Q1251.17 657.85 1251.17 651.304 Q1251.17 644.742 1253.47 641.305 Q1255.78 637.85 1260.13 637.85 Z" fill="#000000" fill-rule="nonzero" fill-opacity="1" /><path clip-path="url(#clip700)" d="M1275.25 659.829 L1278.92 659.829 L1278.92 664.238 L1275.25 664.238 L1275.25 659.829 Z" fill="#000000" fill-rule="nonzero" fill-opacity="1" /><path clip-path="url(#clip700)" d="M1294.06 640.627 Q1291.35 640.627 1289.98 643.301 Q1288.62 645.957 1288.62 651.304 Q1288.62 656.634 1289.98 659.308 Q1291.35 661.964 1294.06 661.964 Q1296.78 661.964 1298.14 659.308 Q1299.51 656.634 1299.51 651.304 Q1299.51 645.957 1298.14 643.301 Q1296.78 640.627 1294.06 640.627 M1294.06 637.85 Q1298.41 637.85 1300.71 641.305 Q1303.01 644.742 1303.01 651.304 Q1303.01 657.85 1300.71 661.304 Q1298.41 664.742 1294.06 664.742 Q1289.7 664.742 1287.39 661.304 Q1285.1 657.85 1285.1 651.304 Q1285.1 644.742 1287.39 641.305 Q1289.7 637.85 1294.06 637.85 Z" fill="#000000" fill-rule="nonzero" fill-opacity="1" /><path clip-path="url(#clip700)" d="M1316.68 640.627 Q1313.97 640.627 1312.6 643.301 Q1311.24 645.957 1311.24 651.304 Q1311.24 656.634 1312.6 659.308 Q1313.97 661.964 1316.68 661.964 Q1319.4 661.964 1320.76 659.308 Q1322.13 656.634 1322.13 651.304 Q1322.13 645.957 1320.76 643.301 Q1319.4 640.627 1316.68 640.627 M1316.68 637.85 Q1321.04 637.85 1323.33 641.305 Q1325.64 644.742 1325.64 651.304 Q1325.64 657.85 1323.33 661.304 Q1321.04 664.742 1316.68 664.742 Q1312.32 664.742 1310.01 661.304 Q1307.72 657.85 1307.72 651.304 Q1307.72 644.742 1310.01 641.305 Q1312.32 637.85 1316.68 637.85 Z" fill="#000000" fill-rule="nonzero" fill-opacity="1" /><path clip-path="url(#clip700)" d="M1260.88 497.595 Q1258.17 497.595 1256.8 500.269 Q1255.45 502.925 1255.45 508.272 Q1255.45 513.602 1256.8 516.276 Q1258.17 518.932 1260.88 518.932 Q1263.6 518.932 1264.96 516.276 Q1266.33 513.602 1266.33 508.272 Q1266.33 502.925 1264.96 500.269 Q1263.6 497.595 1260.88 497.595 M1260.88 494.817 Q1265.24 494.817 1267.53 498.272 Q1269.84 501.71 1269.84 508.272 Q1269.84 514.817 1267.53 518.272 Q1265.24 521.71 1260.88 521.71 Q1256.52 521.71 1254.21 518.272 Q1251.92 514.817 1251.92 508.272 Q1251.92 501.71 1254.21 498.272 Q1256.52 494.817 1260.88 494.817 Z" fill="#000000" fill-rule="nonzero" fill-opacity="1" /><path clip-path="url(#clip700)" d="M1276 516.796 L1279.66 516.796 L1279.66 521.206 L1276 521.206 L1276 516.796 Z" fill="#000000" fill-rule="nonzero" fill-opacity="1" /><path clip-path="url(#clip700)" d="M1294.8 497.595 Q1292.09 497.595 1290.72 500.269 Q1289.37 502.925 1289.37 508.272 Q1289.37 513.602 1290.72 516.276 Q1292.09 518.932 1294.8 518.932 Q1297.53 518.932 1298.88 516.276 Q1300.25 513.602 1300.25 508.272 Q1300.25 502.925 1298.88 500.269 Q1297.53 497.595 1294.8 497.595 M1294.8 494.817 Q1299.16 494.817 1301.45 498.272 Q1303.76 501.71 1303.76 508.272 Q1303.76 514.817 1301.45 518.272 Q1299.16 521.71 1294.8 521.71 Q1290.45 521.71 1288.14 518.272 Q1285.84 514.817 1285.84 508.272 Q1285.84 501.71 1288.14 498.272 Q1290.45 494.817 1294.8 494.817 Z" fill="#000000" fill-rule="nonzero" fill-opacity="1" /><path clip-path="url(#clip700)" d="M1309.96 495.286 L1323.73 495.286 L1323.73 498.237 L1313.17 498.237 L1313.17 504.592 Q1313.93 504.331 1314.7 504.21 Q1315.46 504.071 1316.23 504.071 Q1320.57 504.071 1323.1 506.449 Q1325.64 508.828 1325.64 512.89 Q1325.64 517.074 1323.03 519.4 Q1320.43 521.71 1315.69 521.71 Q1314.06 521.71 1312.35 521.432 Q1310.67 521.154 1308.87 520.598 L1308.87 517.074 Q1310.43 517.925 1312.09 518.341 Q1313.76 518.758 1315.62 518.758 Q1318.62 518.758 1320.38 517.178 Q1322.13 515.598 1322.13 512.89 Q1322.13 510.182 1320.38 508.602 Q1318.62 507.022 1315.62 507.022 Q1314.21 507.022 1312.81 507.335 Q1311.42 507.647 1309.96 508.307 L1309.96 495.286 Z" fill="#000000" fill-rule="nonzero" fill-opacity="1" /><path clip-path="url(#clip700)" d="M1260.13 354.563 Q1257.42 354.563 1256.05 357.236 Q1254.7 359.892 1254.7 365.24 Q1254.7 370.57 1256.05 373.243 Q1257.42 375.899 1260.13 375.899 Q1262.86 375.899 1264.21 373.243 Q1265.58 370.57 1265.58 365.24 Q1265.58 359.892 1264.21 357.236 Q1262.86 354.563 1260.13 354.563 M1260.13 351.785 Q1264.49 351.785 1266.78 355.24 Q1269.09 358.677 1269.09 365.24 Q1269.09 371.785 1266.78 375.24 Q1264.49 378.677 1260.13 378.677 Q1255.78 378.677 1253.47 375.24 Q1251.17 371.785 1251.17 365.24 Q1251.17 358.677 1253.47 355.24 Q1255.78 351.785 1260.13 351.785 Z" fill="#000000" fill-rule="nonzero" fill-opacity="1" /><path clip-path="url(#clip700)" d="M1275.25 373.764 L1278.92 373.764 L1278.92 378.174 L1275.25 378.174 L1275.25 373.764 Z" fill="#000000" fill-rule="nonzero" fill-opacity="1" /><path clip-path="url(#clip700)" d="M1287.16 375.222 L1292.89 375.222 L1292.89 355.448 L1286.66 356.698 L1286.66 353.504 L1292.86 352.254 L1296.37 352.254 L1296.37 375.222 L1302.09 375.222 L1302.09 378.174 L1287.16 378.174 L1287.16 375.222 Z" fill="#000000" fill-rule="nonzero" fill-opacity="1" /><path clip-path="url(#clip700)" d="M1316.68 354.563 Q1313.97 354.563 1312.6 357.236 Q1311.24 359.892 1311.24 365.24 Q1311.24 370.57 1312.6 373.243 Q1313.97 375.899 1316.68 375.899 Q1319.4 375.899 1320.76 373.243 Q1322.13 370.57 1322.13 365.24 Q1322.13 359.892 1320.76 357.236 Q1319.4 354.563 1316.68 354.563 M1316.68 351.785 Q1321.04 351.785 1323.33 355.24 Q1325.64 358.677 1325.64 365.24 Q1325.64 371.785 1323.33 375.24 Q1321.04 378.677 1316.68 378.677 Q1312.32 378.677 1310.01 375.24 Q1307.72 371.785 1307.72 365.24 Q1307.72 358.677 1310.01 355.24 Q1312.32 351.785 1316.68 351.785 Z" fill="#000000" fill-rule="nonzero" fill-opacity="1" /><path clip-path="url(#clip700)" d="M1260.88 211.53 Q1258.17 211.53 1256.8 214.204 Q1255.45 216.86 1255.45 222.207 Q1255.45 227.537 1256.8 230.211 Q1258.17 232.867 1260.88 232.867 Q1263.6 232.867 1264.96 230.211 Q1266.33 227.537 1266.33 222.207 Q1266.33 216.86 1264.96 214.204 Q1263.6 211.53 1260.88 211.53 M1260.88 208.753 Q1265.24 208.753 1267.53 212.207 Q1269.84 215.645 1269.84 222.207 Q1269.84 228.752 1267.53 232.207 Q1265.24 235.645 1260.88 235.645 Q1256.52 235.645 1254.21 232.207 Q1251.92 228.752 1251.92 222.207 Q1251.92 215.645 1254.21 212.207 Q1256.52 208.753 1260.88 208.753 Z" fill="#000000" fill-rule="nonzero" fill-opacity="1" /><path clip-path="url(#clip700)" d="M1276 230.732 L1279.66 230.732 L1279.66 235.141 L1276 235.141 L1276 230.732 Z" fill="#000000" fill-rule="nonzero" fill-opacity="1" /><path clip-path="url(#clip700)" d="M1287.91 232.19 L1293.64 232.19 L1293.64 212.416 L1287.41 213.666 L1287.41 210.471 L1293.6 209.221 L1297.11 209.221 L1297.11 232.19 L1302.84 232.19 L1302.84 235.141 L1287.91 235.141 L1287.91 232.19 Z" fill="#000000" fill-rule="nonzero" fill-opacity="1" /><path clip-path="url(#clip700)" d="M1309.96 209.221 L1323.73 209.221 L1323.73 212.173 L1313.17 212.173 L1313.17 218.527 Q1313.93 218.266 1314.7 218.145 Q1315.46 218.006 1316.23 218.006 Q1320.57 218.006 1323.1 220.384 Q1325.64 222.763 1325.64 226.825 Q1325.64 231.009 1323.03 233.336 Q1320.43 235.645 1315.69 235.645 Q1314.06 235.645 1312.35 235.367 Q1310.67 235.089 1308.87 234.534 L1308.87 231.009 Q1310.43 231.86 1312.09 232.277 Q1313.76 232.693 1315.62 232.693 Q1318.62 232.693 1320.38 231.114 Q1322.13 229.534 1322.13 226.825 Q1322.13 224.117 1320.38 222.537 Q1318.62 220.957 1315.62 220.957 Q1314.21 220.957 1312.81 221.27 Q1311.42 221.582 1309.96 222.242 L1309.96 209.221 Z" fill="#000000" fill-rule="nonzero" fill-opacity="1" /><path clip-path="url(#clip700)" d="M1373.53 18.9258 Q1370.02 18.9258 1368.12 21.4721 Q1366.13 24.1341 1366.13 28.5323 Q1366.13 33.185 1368.09 35.8702 Q1370.08 38.5322 1373.53 38.5322 Q1376.94 38.5322 1378.93 35.847 Q1380.92 33.1619 1380.92 28.5323 Q1380.92 24.2962 1378.93 21.4721 Q1377.1 18.9258 1373.53 18.9258 M1373.53 15.5462 L1387.68 15.5462 L1387.68 19.8054 L1382.91 19.8054 Q1385.43 23.4165 1385.43 28.5323 Q1385.43 34.898 1382.26 38.5091 Q1379.09 42.1433 1373.53 42.1433 Q1367.96 42.1433 1364.81 38.5091 Q1361.64 34.898 1361.64 28.5323 Q1361.64 22.1203 1364.81 18.5323 Q1367.42 15.5462 1373.53 15.5462 Z" fill="#000000" fill-rule="nonzero" fill-opacity="1" /><path clip-path="url(#clip700)" d="M1411.84 19.6666 Q1410.99 19.3656 1410.13 19.1342 Q1407.84 18.5323 1405.39 18.5323 Q1401.15 18.5323 1398.79 20.824 Q1396.59 22.9536 1396.17 26.8656 L1411.84 26.8656 L1411.84 30.1989 L1396.17 30.1989 Q1396.59 34.1109 1398.79 36.2405 Q1401.15 38.5322 1405.39 38.5322 Q1408.35 38.5322 1410.13 37.9304 L1411.84 37.3517 L1411.84 41.2174 L1410.02 41.634 Q1407.61 42.1433 1405.13 42.1433 Q1398.93 42.1433 1395.32 38.5322 Q1391.68 34.9211 1391.68 28.5323 Q1391.68 22.1434 1395.32 18.5323 Q1398.93 14.9212 1405.13 14.9212 Q1407.47 14.9212 1410.02 15.4305 Q1410.94 15.6157 1411.84 15.8934 L1411.84 19.6666 Z" fill="#000000" fill-rule="nonzero" fill-opacity="1" /><polyline clip-path="url(#clip703)" style="stroke:#009af9; stroke-linecap:round; stroke-linejoin:round; stroke-width:4; stroke-opacity:1; fill:none" points="1389.69,164.901 1448.13,222.897 1506.56,281.693 1565,341.29 1623.44,401.687 1681.88,462.884 1740.32,524.882 1798.76,587.68 1857.2,651.278 1915.63,586.88 1974.07,521.681 2032.51,455.681 2090.95,388.882 2149.39,321.282 2207.83,252.882 2266.27,183.681 2324.71,113.68 "/>
<circle clip-path="url(#clip703)" cx="1857.2" cy="651.278" r="10.8" fill="#ff0000" fill-rule="evenodd" fill-opacity="1" stroke="#000000" stroke-opacity="1" stroke-width="3.2"/>
<path clip-path="url(#clip700)" d="M161.818 1467.41 L1152.94 1467.41 L1152.94 897.552 L161.818 897.552  Z" fill="#ffffff" fill-rule="evenodd" fill-opacity="1"/>
<defs>
  <clipPath id="clip704">
    <rect x="161" y="897" width="992" height="571"/>
  </clipPath>
</defs>
<polyline clip-path="url(#clip704)" style="stroke:#000000; stroke-linecap:round; stroke-linejoin:round; stroke-width:2; stroke-opacity:0.1; fill:none" points="312.33,1467.41 312.33,897.552 "/>
<polyline clip-path="url(#clip704)" style="stroke:#000000; stroke-linecap:round; stroke-linejoin:round; stroke-width:2; stroke-opacity:0.1; fill:none" points="485.532,1467.41 485.532,897.552 "/>
<polyline clip-path="url(#clip704)" style="stroke:#000000; stroke-linecap:round; stroke-linejoin:round; stroke-width:2; stroke-opacity:0.1; fill:none" points="658.734,1467.41 658.734,897.552 "/>
<polyline clip-path="url(#clip704)" style="stroke:#000000; stroke-linecap:round; stroke-linejoin:round; stroke-width:2; stroke-opacity:0.1; fill:none" points="831.936,1467.41 831.936,897.552 "/>
<polyline clip-path="url(#clip704)" style="stroke:#000000; stroke-linecap:round; stroke-linejoin:round; stroke-width:2; stroke-opacity:0.1; fill:none" points="1005.14,1467.41 1005.14,897.552 "/>
<polyline clip-path="url(#clip704)" style="stroke:#000000; stroke-linecap:round; stroke-linejoin:round; stroke-width:2; stroke-opacity:0.1; fill:none" points="161.818,1451.28 1152.94,1451.28 "/>
<polyline clip-path="url(#clip704)" style="stroke:#000000; stroke-linecap:round; stroke-linejoin:round; stroke-width:2; stroke-opacity:0.1; fill:none" points="161.818,1329.88 1152.94,1329.88 "/>
<polyline clip-path="url(#clip704)" style="stroke:#000000; stroke-linecap:round; stroke-linejoin:round; stroke-width:2; stroke-opacity:0.1; fill:none" points="161.818,1208.48 1152.94,1208.48 "/>
<polyline clip-path="url(#clip704)" style="stroke:#000000; stroke-linecap:round; stroke-linejoin:round; stroke-width:2; stroke-opacity:0.1; fill:none" points="161.818,1087.09 1152.94,1087.09 "/>
<polyline clip-path="url(#clip704)" style="stroke:#000000; stroke-linecap:round; stroke-linejoin:round; stroke-width:2; stroke-opacity:0.1; fill:none" points="161.818,965.689 1152.94,965.689 "/>
<polyline clip-path="url(#clip700)" style="stroke:#000000; stroke-linecap:round; stroke-linejoin:round; stroke-width:4; stroke-opacity:1; fill:none" points="161.818,1467.41 1152.94,1467.41 "/>
<polyline clip-path="url(#clip700)" style="stroke:#000000; stroke-linecap:round; stroke-linejoin:round; stroke-width:4; stroke-opacity:1; fill:none" points="312.33,1467.41 312.33,1448.51 "/>
<polyline clip-path="url(#clip700)" style="stroke:#000000; stroke-linecap:round; stroke-linejoin:round; stroke-width:4; stroke-opacity:1; fill:none" points="485.532,1467.41 485.532,1448.51 "/>
<polyline clip-path="url(#clip700)" style="stroke:#000000; stroke-linecap:round; stroke-linejoin:round; stroke-width:4; stroke-opacity:1; fill:none" points="658.734,1467.41 658.734,1448.51 "/>
<polyline clip-path="url(#clip700)" style="stroke:#000000; stroke-linecap:round; stroke-linejoin:round; stroke-width:4; stroke-opacity:1; fill:none" points="831.936,1467.41 831.936,1448.51 "/>
<polyline clip-path="url(#clip700)" style="stroke:#000000; stroke-linecap:round; stroke-linejoin:round; stroke-width:4; stroke-opacity:1; fill:none" points="1005.14,1467.41 1005.14,1448.51 "/>
<path clip-path="url(#clip700)" d="M258.481 1539.14 Q256.566 1541.05 257.486 1543.91 Q258.407 1546.75 262.188 1550.53 Q265.957 1554.3 268.805 1555.23 Q271.653 1556.14 273.568 1554.23 Q275.496 1552.3 274.575 1549.46 Q273.654 1546.6 269.885 1542.83 Q266.104 1539.05 263.256 1538.14 Q260.408 1537.21 258.481 1539.14 M256.517 1537.17 Q259.598 1534.09 263.661 1534.92 Q267.725 1535.71 272.365 1540.35 Q276.993 1544.98 277.803 1549.06 Q278.614 1553.11 275.532 1556.19 Q272.451 1559.27 268.388 1558.47 Q264.324 1557.65 259.696 1553.02 Q255.056 1548.38 254.246 1544.33 Q253.435 1540.26 256.517 1537.17 Z" fill="#000000" fill-rule="nonzero" fill-opacity="1" /><path clip-path="url(#clip700)" d="M282.751 1542.02 L285.341 1539.43 L288.459 1542.55 L285.869 1545.14 L282.751 1542.02 Z" fill="#000000" fill-rule="nonzero" fill-opacity="1" /><path clip-path="url(#clip700)" d="M275.557 1518.8 L285.292 1509.06 L287.379 1511.15 L279.915 1518.61 L284.408 1523.11 Q284.764 1522.38 285.218 1521.76 Q285.66 1521.12 286.2 1520.58 Q289.269 1517.51 292.743 1517.4 Q296.218 1517.29 299.09 1520.16 Q302.049 1523.12 301.852 1526.6 Q301.644 1530.08 298.292 1533.43 Q297.138 1534.58 295.739 1535.59 Q294.352 1536.59 292.682 1537.47 L290.19 1534.98 Q291.896 1534.47 293.37 1533.59 Q294.843 1532.71 296.156 1531.39 Q298.28 1529.27 298.403 1526.91 Q298.525 1524.55 296.61 1522.64 Q294.695 1520.72 292.338 1520.85 Q289.981 1520.97 287.858 1523.09 Q286.863 1524.09 286.09 1525.3 Q285.329 1526.51 284.764 1528 L275.557 1518.8 Z" fill="#000000" fill-rule="nonzero" fill-opacity="1" /><path clip-path="url(#clip700)" d="M298.464 1499.16 Q296.549 1501.07 297.47 1503.93 Q298.39 1506.77 302.171 1510.55 Q305.94 1514.32 308.788 1515.25 Q311.636 1516.16 313.551 1514.24 Q315.479 1512.32 314.558 1509.48 Q313.637 1506.62 309.869 1502.85 Q306.088 1499.07 303.239 1498.16 Q300.391 1497.23 298.464 1499.16 M296.5 1497.19 Q299.581 1494.11 303.645 1494.93 Q307.708 1495.73 312.348 1500.37 Q316.976 1505 317.787 1509.07 Q318.597 1513.13 315.516 1516.21 Q312.434 1519.29 308.371 1518.49 Q304.308 1517.67 299.679 1513.04 Q295.039 1508.4 294.229 1504.35 Q293.419 1500.27 296.5 1497.19 Z" fill="#000000" fill-rule="nonzero" fill-opacity="1" /><path clip-path="url(#clip700)" d="M432.53 1538.29 Q430.615 1540.21 431.535 1543.07 Q432.456 1545.9 436.237 1549.68 Q440.006 1553.45 442.854 1554.39 Q445.702 1555.29 447.617 1553.38 Q449.544 1551.45 448.624 1548.62 Q447.703 1545.76 443.934 1541.99 Q440.153 1538.21 437.305 1537.3 Q434.457 1536.36 432.53 1538.29 M430.566 1536.33 Q433.647 1533.25 437.71 1534.07 Q441.774 1534.87 446.414 1539.51 Q451.042 1544.14 451.852 1548.21 Q452.663 1552.26 449.581 1555.34 Q446.5 1558.42 442.437 1557.63 Q438.373 1556.8 433.745 1552.18 Q429.105 1547.54 428.295 1543.48 Q427.484 1539.41 430.566 1536.33 Z" fill="#000000" fill-rule="nonzero" fill-opacity="1" /><path clip-path="url(#clip700)" d="M456.8 1541.18 L459.39 1538.59 L462.508 1541.7 L459.918 1544.29 L456.8 1541.18 Z" fill="#000000" fill-rule="nonzero" fill-opacity="1" /><path clip-path="url(#clip700)" d="M449.606 1517.95 L459.341 1508.22 L461.428 1510.3 L453.964 1517.77 L458.457 1522.26 Q458.813 1521.53 459.267 1520.91 Q459.709 1520.27 460.249 1519.73 Q463.318 1516.66 466.792 1516.55 Q470.266 1516.44 473.139 1519.31 Q476.098 1522.27 475.901 1525.76 Q475.693 1529.23 472.341 1532.58 Q471.187 1533.74 469.788 1534.74 Q468.401 1535.74 466.731 1536.62 L464.239 1534.13 Q465.945 1533.63 467.418 1532.74 Q468.892 1531.86 470.205 1530.55 Q472.329 1528.42 472.452 1526.06 Q472.574 1523.71 470.659 1521.79 Q468.744 1519.88 466.387 1520 Q464.03 1520.12 461.906 1522.25 Q460.912 1523.24 460.139 1524.46 Q459.378 1525.66 458.813 1527.16 L449.606 1517.95 Z" fill="#000000" fill-rule="nonzero" fill-opacity="1" /><path clip-path="url(#clip700)" d="M483.954 1516.08 L492.609 1507.43 L494.696 1509.52 L483.058 1521.15 L480.971 1519.07 Q480.922 1516.19 480.898 1511.31 Q480.873 1506.4 480.787 1505.06 Q480.64 1502.53 480.186 1501.14 Q479.731 1499.73 478.835 1498.84 Q477.374 1497.38 475.422 1497.49 Q473.483 1497.58 471.838 1499.23 Q470.672 1500.4 469.775 1502.1 Q468.892 1503.8 468.241 1506.09 L465.737 1503.59 Q466.633 1501.49 467.627 1499.88 Q468.621 1498.27 469.702 1497.19 Q472.55 1494.34 475.668 1494.07 Q478.786 1493.8 481.168 1496.18 Q482.297 1497.31 482.886 1498.76 Q483.476 1500.19 483.733 1502.68 Q483.782 1503.34 483.844 1506.69 Q483.893 1510.03 483.954 1516.08 Z" fill="#000000" fill-rule="nonzero" fill-opacity="1" /><path clip-path="url(#clip700)" d="M604.627 1539.4 Q602.712 1541.31 603.632 1544.17 Q604.553 1547.01 608.334 1550.79 Q612.103 1554.56 614.951 1555.49 Q617.799 1556.4 619.714 1554.48 Q621.641 1552.56 620.721 1549.72 Q619.8 1546.86 616.031 1543.09 Q612.25 1539.31 609.402 1538.4 Q606.554 1537.47 604.627 1539.4 M602.663 1537.43 Q605.744 1534.35 609.807 1535.17 Q613.871 1535.97 618.511 1540.61 Q623.139 1545.24 623.949 1549.32 Q624.76 1553.37 621.678 1556.45 Q618.597 1559.53 614.534 1558.73 Q610.47 1557.91 605.842 1553.28 Q601.202 1548.64 600.392 1544.59 Q599.581 1540.51 602.663 1537.43 Z" fill="#000000" fill-rule="nonzero" fill-opacity="1" /><path clip-path="url(#clip700)" d="M628.897 1542.28 L631.487 1539.69 L634.605 1542.81 L632.015 1545.4 L628.897 1542.28 Z" fill="#000000" fill-rule="nonzero" fill-opacity="1" /><path clip-path="url(#clip700)" d="M621.703 1519.06 L631.438 1509.32 L633.525 1511.41 L626.061 1518.87 L630.554 1523.36 Q630.91 1522.64 631.364 1522.01 Q631.806 1521.38 632.346 1520.84 Q635.415 1517.77 638.889 1517.66 Q642.363 1517.55 645.236 1520.42 Q648.195 1523.38 647.998 1526.86 Q647.79 1530.34 644.438 1533.69 Q643.284 1534.84 641.885 1535.85 Q640.498 1536.84 638.828 1537.73 L636.336 1535.24 Q638.042 1534.73 639.515 1533.85 Q640.989 1532.96 642.302 1531.65 Q644.426 1529.53 644.549 1527.17 Q644.671 1524.81 642.756 1522.9 Q640.841 1520.98 638.484 1521.11 Q636.127 1521.23 634.003 1523.35 Q633.009 1524.35 632.236 1525.56 Q631.475 1526.76 630.91 1528.26 L621.703 1519.06 Z" fill="#000000" fill-rule="nonzero" fill-opacity="1" /><path clip-path="url(#clip700)" d="M646.648 1498.43 L650.171 1514.48 L656.432 1508.22 L646.648 1498.43 M643.837 1496.92 L646.955 1493.8 L658.899 1505.75 L661.514 1503.13 L663.577 1505.2 L660.962 1507.81 L665.283 1512.13 L662.815 1514.6 L658.494 1510.28 L650.22 1518.55 L647.826 1516.16 L643.837 1496.92 Z" fill="#000000" fill-rule="nonzero" fill-opacity="1" /><path clip-path="url(#clip700)" d="M778 1539.22 Q776.085 1541.14 777.006 1544 Q777.927 1546.84 781.708 1550.62 Q785.477 1554.39 788.325 1555.32 Q791.173 1556.23 793.088 1554.31 Q795.015 1552.38 794.094 1549.55 Q793.174 1546.69 789.405 1542.92 Q785.624 1539.14 782.776 1538.23 Q779.928 1537.3 778 1539.22 M776.036 1537.26 Q779.118 1534.18 783.181 1535 Q787.244 1535.8 791.885 1540.44 Q796.513 1545.07 797.323 1549.14 Q798.133 1553.19 795.052 1556.28 Q791.971 1559.36 787.907 1558.56 Q783.844 1557.74 779.216 1553.11 Q774.575 1548.47 773.765 1544.42 Q772.955 1540.34 776.036 1537.26 Z" fill="#000000" fill-rule="nonzero" fill-opacity="1" /><path clip-path="url(#clip700)" d="M802.27 1542.11 L804.861 1539.52 L807.979 1542.64 L805.388 1545.23 L802.27 1542.11 Z" fill="#000000" fill-rule="nonzero" fill-opacity="1" /><path clip-path="url(#clip700)" d="M795.077 1518.88 L804.811 1509.15 L806.898 1511.24 L799.435 1518.7 L803.928 1523.19 Q804.284 1522.47 804.738 1521.84 Q805.18 1521.2 805.72 1520.66 Q808.789 1517.59 812.263 1517.48 Q815.737 1517.37 818.61 1520.25 Q821.568 1523.2 821.372 1526.69 Q821.163 1530.17 817.812 1533.52 Q816.658 1534.67 815.258 1535.68 Q813.871 1536.67 812.202 1537.56 L809.71 1535.06 Q811.416 1534.56 812.889 1533.68 Q814.362 1532.79 815.676 1531.48 Q817.8 1529.35 817.922 1527 Q818.045 1524.64 816.13 1522.73 Q814.215 1520.81 811.858 1520.93 Q809.501 1521.06 807.377 1523.18 Q806.383 1524.17 805.609 1525.39 Q804.848 1526.59 804.284 1528.09 L795.077 1518.88 Z" fill="#000000" fill-rule="nonzero" fill-opacity="1" /><path clip-path="url(#clip700)" d="M824.834 1505.48 Q823.164 1507.15 823.324 1509.27 Q823.496 1511.38 825.484 1513.37 Q827.461 1515.35 829.585 1515.53 Q831.708 1515.69 833.378 1514.02 Q835.048 1512.35 834.876 1510.24 Q834.704 1508.1 832.727 1506.13 Q830.739 1504.14 828.615 1503.98 Q826.503 1503.81 824.834 1505.48 M821.986 1492.78 L824.245 1495.04 Q822.87 1495.53 821.679 1496.26 Q820.5 1496.97 819.567 1497.9 Q817.112 1500.36 817.468 1503.32 Q817.836 1506.26 821.004 1509.8 Q820.66 1508.01 821.188 1506.35 Q821.703 1504.68 823.017 1503.37 Q825.779 1500.6 829.057 1500.69 Q832.334 1500.75 835.219 1503.64 Q838.043 1506.46 838.08 1509.84 Q838.117 1513.21 835.342 1515.99 Q832.163 1519.17 828.05 1518.42 Q823.925 1517.66 819.297 1513.03 Q814.952 1508.68 814.436 1504.04 Q813.908 1499.39 817.382 1495.91 Q818.315 1494.98 819.445 1494.22 Q820.586 1493.45 821.986 1492.78 Z" fill="#000000" fill-rule="nonzero" fill-opacity="1" /><path clip-path="url(#clip700)" d="M951.337 1539.09 Q949.422 1541 950.343 1543.87 Q951.264 1546.7 955.045 1550.48 Q958.814 1554.25 961.662 1555.18 Q964.51 1556.09 966.425 1554.18 Q968.352 1552.25 967.431 1549.41 Q966.511 1546.55 962.742 1542.78 Q958.961 1539 956.113 1538.1 Q953.265 1537.16 951.337 1539.09 M949.373 1537.13 Q952.455 1534.04 956.518 1534.87 Q960.581 1535.66 965.222 1540.31 Q969.85 1544.93 970.66 1549.01 Q971.47 1553.06 968.389 1556.14 Q965.308 1559.22 961.244 1558.42 Q957.181 1557.6 952.553 1552.97 Q947.912 1548.33 947.102 1544.28 Q946.292 1540.21 949.373 1537.13 Z" fill="#000000" fill-rule="nonzero" fill-opacity="1" /><path clip-path="url(#clip700)" d="M975.607 1541.97 L978.197 1539.38 L981.316 1542.5 L978.725 1545.09 L975.607 1541.97 Z" fill="#000000" fill-rule="nonzero" fill-opacity="1" /><path clip-path="url(#clip700)" d="M968.413 1518.75 L978.148 1509.01 L980.235 1511.1 L972.771 1518.56 L977.265 1523.06 Q977.621 1522.33 978.075 1521.71 Q978.517 1521.07 979.057 1520.53 Q982.126 1517.46 985.6 1517.35 Q989.074 1517.24 991.947 1520.11 Q994.905 1523.07 994.709 1526.56 Q994.5 1530.03 991.149 1533.38 Q989.995 1534.54 988.595 1535.54 Q987.208 1536.54 985.539 1537.42 L983.047 1534.93 Q984.753 1534.42 986.226 1533.54 Q987.699 1532.66 989.013 1531.34 Q991.136 1529.22 991.259 1526.86 Q991.382 1524.51 989.467 1522.59 Q987.552 1520.68 985.195 1520.8 Q982.838 1520.92 980.714 1523.04 Q979.72 1524.04 978.946 1525.25 Q978.185 1526.46 977.621 1527.96 L968.413 1518.75 Z" fill="#000000" fill-rule="nonzero" fill-opacity="1" /><path clip-path="url(#clip700)" d="M999.312 1507.1 Q997.545 1508.87 997.471 1510.83 Q997.41 1512.78 999.067 1514.44 Q1000.72 1516.1 1002.68 1516.04 Q1004.64 1515.96 1006.41 1514.19 Q1008.18 1512.43 1008.25 1510.46 Q1008.31 1508.49 1006.67 1506.84 Q1005.01 1505.18 1003.04 1505.26 Q1001.09 1505.32 999.312 1507.1 M995.777 1508.52 Q993.788 1509.73 991.799 1509.53 Q989.823 1509.32 988.252 1507.75 Q986.054 1505.55 986.337 1502.72 Q986.631 1499.87 989.356 1497.14 Q992.094 1494.4 994.93 1494.12 Q997.766 1493.84 999.963 1496.04 Q1001.53 1497.61 1001.73 1499.6 Q1001.94 1501.57 1000.75 1503.55 Q1002.96 1502.18 1005.17 1502.4 Q1007.39 1502.61 1009.15 1504.36 Q1011.81 1507.02 1011.6 1510.08 Q1011.4 1513.13 1008.37 1516.16 Q1005.34 1519.19 1002.28 1519.4 Q999.239 1519.6 996.575 1516.93 Q994.819 1515.18 994.611 1512.95 Q994.402 1510.73 995.777 1508.52 M990.952 1505.51 Q992.376 1506.94 994.058 1506.85 Q995.752 1506.75 997.36 1505.15 Q998.956 1503.55 999.055 1501.86 Q999.165 1500.15 997.741 1498.73 Q996.317 1497.3 994.611 1497.41 Q992.917 1497.51 991.321 1499.11 Q989.712 1500.71 989.614 1502.41 Q989.528 1504.09 990.952 1505.51 Z" fill="#000000" fill-rule="nonzero" fill-opacity="1" /><polyline clip-path="url(#clip700)" style="stroke:#000000; stroke-linecap:round; stroke-linejoin:round; stroke-width:4; stroke-opacity:1; fill:none" points="161.818,1467.41 161.818,897.552 "/>
<polyline clip-path="url(#clip700)" style="stroke:#000000; stroke-linecap:round; stroke-linejoin:round; stroke-width:4; stroke-opacity:1; fill:none" points="161.818,1451.28 180.716,1451.28 "/>
<polyline clip-path="url(#clip700)" style="stroke:#000000; stroke-linecap:round; stroke-linejoin:round; stroke-width:4; stroke-opacity:1; fill:none" points="161.818,1329.88 180.716,1329.88 "/>
<polyline clip-path="url(#clip700)" style="stroke:#000000; stroke-linecap:round; stroke-linejoin:round; stroke-width:4; stroke-opacity:1; fill:none" points="161.818,1208.48 180.716,1208.48 "/>
<polyline clip-path="url(#clip700)" style="stroke:#000000; stroke-linecap:round; stroke-linejoin:round; stroke-width:4; stroke-opacity:1; fill:none" points="161.818,1087.09 180.716,1087.09 "/>
<polyline clip-path="url(#clip700)" style="stroke:#000000; stroke-linecap:round; stroke-linejoin:round; stroke-width:4; stroke-opacity:1; fill:none" points="161.818,965.689 180.716,965.689 "/>
<path clip-path="url(#clip700)" d="M60.315 1440.63 Q57.6067 1440.63 56.2352 1443.3 Q54.881 1445.96 54.881 1451.3 Q54.881 1456.63 56.2352 1459.31 Q57.6067 1461.96 60.315 1461.96 Q63.0407 1461.96 64.3948 1459.31 Q65.7664 1456.63 65.7664 1451.3 Q65.7664 1445.96 64.3948 1443.3 Q63.0407 1440.63 60.315 1440.63 M60.315 1437.85 Q64.6726 1437.85 66.9643 1441.3 Q69.2733 1444.74 69.2733 1451.3 Q69.2733 1457.85 66.9643 1461.3 Q64.6726 1464.74 60.315 1464.74 Q55.9574 1464.74 53.6484 1461.3 Q51.3567 1457.85 51.3567 1451.3 Q51.3567 1444.74 53.6484 1441.3 Q55.9574 1437.85 60.315 1437.85 Z" fill="#000000" fill-rule="nonzero" fill-opacity="1" /><path clip-path="url(#clip700)" d="M75.4364 1459.83 L79.0996 1459.83 L79.0996 1464.24 L75.4364 1464.24 L75.4364 1459.83 Z" fill="#000000" fill-rule="nonzero" fill-opacity="1" /><path clip-path="url(#clip700)" d="M94.2384 1440.63 Q91.5301 1440.63 90.1586 1443.3 Q88.8044 1445.96 88.8044 1451.3 Q88.8044 1456.63 90.1586 1459.31 Q91.5301 1461.96 94.2384 1461.96 Q96.9641 1461.96 98.3183 1459.31 Q99.6898 1456.63 99.6898 1451.3 Q99.6898 1445.96 98.3183 1443.3 Q96.9641 1440.63 94.2384 1440.63 M94.2384 1437.85 Q98.596 1437.85 100.888 1441.3 Q103.197 1444.74 103.197 1451.3 Q103.197 1457.85 100.888 1461.3 Q98.596 1464.74 94.2384 1464.74 Q89.8808 1464.74 87.5718 1461.3 Q85.2801 1457.85 85.2801 1451.3 Q85.2801 1444.74 87.5718 1441.3 Q89.8808 1437.85 94.2384 1437.85 Z" fill="#000000" fill-rule="nonzero" fill-opacity="1" /><path clip-path="url(#clip700)" d="M116.86 1440.63 Q114.152 1440.63 112.78 1443.3 Q111.426 1445.96 111.426 1451.3 Q111.426 1456.63 112.78 1459.31 Q114.152 1461.96 116.86 1461.96 Q119.586 1461.96 120.94 1459.31 Q122.311 1456.63 122.311 1451.3 Q122.311 1445.96 120.94 1443.3 Q119.586 1440.63 116.86 1440.63 M116.86 1437.85 Q121.217 1437.85 123.509 1441.3 Q125.818 1444.74 125.818 1451.3 Q125.818 1457.85 123.509 1461.3 Q121.217 1464.74 116.86 1464.74 Q112.502 1464.74 110.193 1461.3 Q107.902 1457.85 107.902 1451.3 Q107.902 1444.74 110.193 1441.3 Q112.502 1437.85 116.86 1437.85 Z" fill="#000000" fill-rule="nonzero" fill-opacity="1" /><path clip-path="url(#clip700)" d="M61.2351 1319.23 Q58.5268 1319.23 57.1553 1321.9 Q55.8011 1324.56 55.8011 1329.91 Q55.8011 1335.24 57.1553 1337.91 Q58.5268 1340.57 61.2351 1340.57 Q63.9608 1340.57 65.315 1337.91 Q66.6865 1335.24 66.6865 1329.91 Q66.6865 1324.56 65.315 1321.9 Q63.9608 1319.23 61.2351 1319.23 M61.2351 1316.45 Q65.5927 1316.45 67.8844 1319.91 Q70.1934 1323.34 70.1934 1329.91 Q70.1934 1336.45 67.8844 1339.91 Q65.5927 1343.34 61.2351 1343.34 Q56.8775 1343.34 54.5685 1339.91 Q52.2768 1336.45 52.2768 1329.91 Q52.2768 1323.34 54.5685 1319.91 Q56.8775 1316.45 61.2351 1316.45 Z" fill="#000000" fill-rule="nonzero" fill-opacity="1" /><path clip-path="url(#clip700)" d="M76.3566 1338.43 L80.0197 1338.43 L80.0197 1342.84 L76.3566 1342.84 L76.3566 1338.43 Z" fill="#000000" fill-rule="nonzero" fill-opacity="1" /><path clip-path="url(#clip700)" d="M95.1586 1319.23 Q92.4502 1319.23 91.0787 1321.9 Q89.7246 1324.56 89.7246 1329.91 Q89.7246 1335.24 91.0787 1337.91 Q92.4502 1340.57 95.1586 1340.57 Q97.8842 1340.57 99.2384 1337.91 Q100.61 1335.24 100.61 1329.91 Q100.61 1324.56 99.2384 1321.9 Q97.8842 1319.23 95.1586 1319.23 M95.1586 1316.45 Q99.5162 1316.45 101.808 1319.91 Q104.117 1323.34 104.117 1329.91 Q104.117 1336.45 101.808 1339.91 Q99.5162 1343.34 95.1586 1343.34 Q90.8009 1343.34 88.4919 1339.91 Q86.2003 1336.45 86.2003 1329.91 Q86.2003 1323.34 88.4919 1319.91 Q90.8009 1316.45 95.1586 1316.45 Z" fill="#000000" fill-rule="nonzero" fill-opacity="1" /><path clip-path="url(#clip700)" d="M110.888 1339.89 L116.617 1339.89 L116.617 1320.12 L110.384 1321.37 L110.384 1318.17 L116.582 1316.92 L120.089 1316.92 L120.089 1339.89 L125.818 1339.89 L125.818 1342.84 L110.888 1342.84 L110.888 1339.89 Z" fill="#000000" fill-rule="nonzero" fill-opacity="1" /><path clip-path="url(#clip700)" d="M61.5129 1197.83 Q58.8046 1197.83 57.4331 1200.51 Q56.0789 1203.16 56.0789 1208.51 Q56.0789 1213.84 57.4331 1216.51 Q58.8046 1219.17 61.5129 1219.17 Q64.2386 1219.17 65.5927 1216.51 Q66.9643 1213.84 66.9643 1208.51 Q66.9643 1203.16 65.5927 1200.51 Q64.2386 1197.83 61.5129 1197.83 M61.5129 1195.05 Q65.8705 1195.05 68.1622 1198.51 Q70.4712 1201.95 70.4712 1208.51 Q70.4712 1215.05 68.1622 1218.51 Q65.8705 1221.95 61.5129 1221.95 Q57.1553 1221.95 54.8463 1218.51 Q52.5546 1215.05 52.5546 1208.51 Q52.5546 1201.95 54.8463 1198.51 Q57.1553 1195.05 61.5129 1195.05 Z" fill="#000000" fill-rule="nonzero" fill-opacity="1" /><path clip-path="url(#clip700)" d="M76.6343 1217.03 L80.2975 1217.03 L80.2975 1221.44 L76.6343 1221.44 L76.6343 1217.03 Z" fill="#000000" fill-rule="nonzero" fill-opacity="1" /><path clip-path="url(#clip700)" d="M95.4363 1197.83 Q92.728 1197.83 91.3565 1200.51 Q90.0023 1203.16 90.0023 1208.51 Q90.0023 1213.84 91.3565 1216.51 Q92.728 1219.17 95.4363 1219.17 Q98.162 1219.17 99.5162 1216.51 Q100.888 1213.84 100.888 1208.51 Q100.888 1203.16 99.5162 1200.51 Q98.162 1197.83 95.4363 1197.83 M95.4363 1195.05 Q99.7939 1195.05 102.086 1198.51 Q104.395 1201.95 104.395 1208.51 Q104.395 1215.05 102.086 1218.51 Q99.7939 1221.95 95.4363 1221.95 Q91.0787 1221.95 88.7697 1218.51 Q86.478 1215.05 86.478 1208.51 Q86.478 1201.95 88.7697 1198.51 Q91.0787 1195.05 95.4363 1195.05 Z" fill="#000000" fill-rule="nonzero" fill-opacity="1" /><path clip-path="url(#clip700)" d="M113.579 1218.49 L125.818 1218.49 L125.818 1221.44 L109.36 1221.44 L109.36 1218.49 Q111.356 1216.43 114.794 1212.95 Q118.249 1209.46 119.134 1208.46 Q120.818 1206.57 121.478 1205.26 Q122.155 1203.94 122.155 1202.68 Q122.155 1200.61 120.697 1199.31 Q119.256 1198.01 116.929 1198.01 Q115.28 1198.01 113.44 1198.58 Q111.617 1199.15 109.533 1200.32 L109.533 1196.77 Q111.652 1195.92 113.492 1195.49 Q115.332 1195.05 116.86 1195.05 Q120.888 1195.05 123.283 1197.07 Q125.679 1199.08 125.679 1202.45 Q125.679 1204.05 125.072 1205.49 Q124.481 1206.91 122.901 1208.86 Q122.467 1209.36 120.141 1211.77 Q117.815 1214.17 113.579 1218.49 Z" fill="#000000" fill-rule="nonzero" fill-opacity="1" /><path clip-path="url(#clip700)" d="M60.8011 1076.44 Q58.0928 1076.44 56.7213 1079.11 Q55.3671 1081.77 55.3671 1087.11 Q55.3671 1092.44 56.7213 1095.12 Q58.0928 1097.77 60.8011 1097.77 Q63.5268 1097.77 64.8809 1095.12 Q66.2525 1092.44 66.2525 1087.11 Q66.2525 1081.77 64.8809 1079.11 Q63.5268 1076.44 60.8011 1076.44 M60.8011 1073.66 Q65.1587 1073.66 67.4504 1077.11 Q69.7594 1080.55 69.7594 1087.11 Q69.7594 1093.66 67.4504 1097.11 Q65.1587 1100.55 60.8011 1100.55 Q56.4435 1100.55 54.1345 1097.11 Q51.8428 1093.66 51.8428 1087.11 Q51.8428 1080.55 54.1345 1077.11 Q56.4435 1073.66 60.8011 1073.66 Z" fill="#000000" fill-rule="nonzero" fill-opacity="1" /><path clip-path="url(#clip700)" d="M75.9225 1095.64 L79.5857 1095.64 L79.5857 1100.05 L75.9225 1100.05 L75.9225 1095.64 Z" fill="#000000" fill-rule="nonzero" fill-opacity="1" /><path clip-path="url(#clip700)" d="M94.7245 1076.44 Q92.0162 1076.44 90.6447 1079.11 Q89.2905 1081.77 89.2905 1087.11 Q89.2905 1092.44 90.6447 1095.12 Q92.0162 1097.77 94.7245 1097.77 Q97.4502 1097.77 98.8044 1095.12 Q100.176 1092.44 100.176 1087.11 Q100.176 1081.77 98.8044 1079.11 Q97.4502 1076.44 94.7245 1076.44 M94.7245 1073.66 Q99.0821 1073.66 101.374 1077.11 Q103.683 1080.55 103.683 1087.11 Q103.683 1093.66 101.374 1097.11 Q99.0821 1100.55 94.7245 1100.55 Q90.3669 1100.55 88.0579 1097.11 Q85.7662 1093.66 85.7662 1087.11 Q85.7662 1080.55 88.0579 1077.11 Q90.3669 1073.66 94.7245 1073.66 Z" fill="#000000" fill-rule="nonzero" fill-opacity="1" /><path clip-path="url(#clip700)" d="M120.471 1086.07 Q122.988 1086.61 124.395 1088.31 Q125.818 1090.01 125.818 1092.51 Q125.818 1096.35 123.179 1098.45 Q120.54 1100.55 115.679 1100.55 Q114.047 1100.55 112.311 1100.22 Q110.593 1099.91 108.752 1099.27 L108.752 1095.88 Q110.211 1096.73 111.947 1097.16 Q113.683 1097.6 115.575 1097.6 Q118.874 1097.6 120.592 1096.3 Q122.329 1094.99 122.329 1092.51 Q122.329 1090.22 120.714 1088.94 Q119.117 1087.63 116.252 1087.63 L113.231 1087.63 L113.231 1084.75 L116.391 1084.75 Q118.978 1084.75 120.349 1083.73 Q121.721 1082.69 121.721 1080.74 Q121.721 1078.74 120.297 1077.69 Q118.891 1076.61 116.252 1076.61 Q114.811 1076.61 113.162 1076.92 Q111.513 1077.23 109.533 1077.89 L109.533 1074.77 Q111.53 1074.21 113.266 1073.94 Q115.02 1073.66 116.565 1073.66 Q120.558 1073.66 122.884 1075.48 Q125.21 1077.29 125.21 1080.38 Q125.21 1082.53 123.978 1084.02 Q122.745 1085.5 120.471 1086.07 Z" fill="#000000" fill-rule="nonzero" fill-opacity="1" /><path clip-path="url(#clip700)" d="M59.9504 955.038 Q57.2421 955.038 55.8706 957.712 Q54.5164 960.368 54.5164 965.715 Q54.5164 971.045 55.8706 973.718 Q57.2421 976.375 59.9504 976.375 Q62.6761 976.375 64.0303 973.718 Q65.4018 971.045 65.4018 965.715 Q65.4018 960.368 64.0303 957.712 Q62.6761 955.038 59.9504 955.038 M59.9504 952.26 Q64.308 952.26 66.5997 955.715 Q68.9087 959.153 68.9087 965.715 Q68.9087 972.26 66.5997 975.715 Q64.308 979.152 59.9504 979.152 Q55.5928 979.152 53.2838 975.715 Q50.9921 972.26 50.9921 965.715 Q50.9921 959.153 53.2838 955.715 Q55.5928 952.26 59.9504 952.26 Z" fill="#000000" fill-rule="nonzero" fill-opacity="1" /><path clip-path="url(#clip700)" d="M75.0719 974.239 L78.735 974.239 L78.735 978.649 L75.0719 978.649 L75.0719 974.239 Z" fill="#000000" fill-rule="nonzero" fill-opacity="1" /><path clip-path="url(#clip700)" d="M93.8738 955.038 Q91.1655 955.038 89.794 957.712 Q88.4398 960.368 88.4398 965.715 Q88.4398 971.045 89.794 973.718 Q91.1655 976.375 93.8738 976.375 Q96.5995 976.375 97.9537 973.718 Q99.3252 971.045 99.3252 965.715 Q99.3252 960.368 97.9537 957.712 Q96.5995 955.038 93.8738 955.038 M93.8738 952.26 Q98.2315 952.26 100.523 955.715 Q102.832 959.153 102.832 965.715 Q102.832 972.26 100.523 975.715 Q98.2315 979.152 93.8738 979.152 Q89.5162 979.152 87.2072 975.715 Q84.9156 972.26 84.9156 965.715 Q84.9156 959.153 87.2072 955.715 Q89.5162 952.26 93.8738 952.26 Z" fill="#000000" fill-rule="nonzero" fill-opacity="1" /><path clip-path="url(#clip700)" d="M118.631 955.784 L109.777 969.621 L118.631 969.621 L118.631 955.784 M117.711 952.729 L122.12 952.729 L122.12 969.621 L125.818 969.621 L125.818 972.538 L122.12 972.538 L122.12 978.649 L118.631 978.649 L118.631 972.538 L106.929 972.538 L106.929 969.152 L117.711 952.729 Z" fill="#000000" fill-rule="nonzero" fill-opacity="1" /><path clip-path="url(#clip700)" d="M173.716 818.926 Q170.198 818.926 168.3 821.472 Q166.309 824.134 166.309 828.532 Q166.309 833.185 168.276 835.87 Q170.267 838.532 173.716 838.532 Q177.119 838.532 179.11 835.847 Q181.1 833.162 181.1 828.532 Q181.1 824.296 179.11 821.472 Q177.281 818.926 173.716 818.926 M173.716 815.546 L187.86 815.546 L187.86 819.805 L183.091 819.805 Q185.614 823.417 185.614 828.532 Q185.614 834.898 182.443 838.509 Q179.272 842.143 173.716 842.143 Q168.138 842.143 164.989 838.509 Q161.818 834.898 161.818 828.532 Q161.818 822.12 164.989 818.532 Q167.605 815.546 173.716 815.546 Z" fill="#000000" fill-rule="nonzero" fill-opacity="1" /><path clip-path="url(#clip700)" d="M198.878 841.472 L190.961 815.546 L195.545 815.546 L202.235 837.305 Q205.012 834.435 207.327 830.454 Q209.086 827.467 209.179 824.875 Q209.225 823.648 208.67 821.333 Q208.022 818.579 205.568 815.546 L209.873 815.546 L209.873 815.546 Q211.471 817.606 212.535 820.477 Q213.508 823.116 213.508 824.921 Q213.508 829.458 210.36 833.509 Q206.262 838.787 203.415 841.472 L198.878 841.472 Z" fill="#000000" fill-rule="nonzero" fill-opacity="1" /><polyline clip-path="url(#clip704)" style="stroke:#009af9; stroke-linecap:round; stroke-linejoin:round; stroke-width:4; stroke-opacity:1; fill:none" points="189.869,964.877 248.307,1022.88 306.746,1081.68 365.185,1141.28 423.623,1201.68 482.062,1262.88 540.501,1324.88 598.939,1387.68 657.378,1451.28 715.817,1386.88 774.256,1321.68 832.694,1255.68 891.133,1188.88 949.572,1121.28 1008.01,1052.88 1066.45,983.68 1124.89,913.68 "/>
<circle clip-path="url(#clip704)" cx="657.378" cy="1451.28" r="10.8" fill="#ff0000" fill-rule="evenodd" fill-opacity="1" stroke="#000000" stroke-opacity="1" stroke-width="3.2"/>
</svg>
