<?xml version="1.0" encoding="utf-8"?>
<svg xmlns="http://www.w3.org/2000/svg" xmlns:xlink="http://www.w3.org/1999/xlink" width="600" height="400" viewBox="0 0 2400 1600">
<defs>
  <clipPath id="clip450">
    <rect x="0" y="0" width="2400" height="1600"/>
  </clipPath>
</defs>
<path clip-path="url(#clip450)" d="M0 1600 L2400 1600 L2400 0 L0 0  Z" fill="#ffffff" fill-rule="evenodd" fill-opacity="1"/>
<defs>
  <clipPath id="clip451">
    <rect x="480" y="0" width="1681" height="1600"/>
  </clipPath>
</defs>
<path clip-path="url(#clip450)" d="M161.818 667.406 L1152.94 667.406 L1152.94 97.5521 L161.818 97.5521  Z" fill="#ffffff" fill-rule="evenodd" fill-opacity="1"/>
<defs>
  <clipPath id="clip452">
    <rect x="161" y="97" width="992" height="571"/>
  </clipPath>
</defs>
<polyline clip-path="url(#clip452)" style="stroke:#000000; stroke-linecap:round; stroke-linejoin:round; stroke-width:2; stroke-opacity:0.1; fill:none" points="186.945,667.406 186.945,97.5521 "/>
<polyline clip-path="url(#clip452)" style="stroke:#000000; stroke-linecap:round; stroke-linejoin:round; stroke-width:2; stroke-opacity:0.1; fill:none" points="449.736,667.406 449.736,97.5521 "/>
<polyline clip-path="url(#clip452)" style="stroke:#000000; stroke-linecap:round; stroke-linejoin:round; stroke-width:2; stroke-opacity:0.1; fill:none" points="712.527,667.406 712.527,97.5521 "/>
<polyline clip-path="url(#clip452)" style="stroke:#000000; stroke-linecap:round; stroke-linejoin:round; stroke-width:2; stroke-opacity:0.1; fill:none" points="975.319,667.406 975.319,97.5521 "/>
<polyline clip-path="url(#clip452)" style="stroke:#000000; stroke-linecap:round; stroke-linejoin:round; stroke-width:2; stroke-opacity:0.1; fill:none" points="161.818,651.278 1152.94,651.278 "/>
<polyline clip-path="url(#clip452)" style="stroke:#000000; stroke-linecap:round; stroke-linejoin:round; stroke-width:2; stroke-opacity:0.1; fill:none" points="161.818,520.273 1152.94,520.273 "/>
<polyline clip-path="url(#clip452)" style="stroke:#000000; stroke-linecap:round; stroke-linejoin:round; stroke-width:2; stroke-opacity:0.1; fill:none" points="161.818,389.268 1152.94,389.268 "/>
<polyline clip-path="url(#clip452)" style="stroke:#000000; stroke-linecap:round; stroke-linejoin:round; stroke-width:2; stroke-opacity:0.1; fill:none" points="161.818,258.263 1152.94,258.263 "/>
<polyline clip-path="url(#clip452)" style="stroke:#000000; stroke-linecap:round; stroke-linejoin:round; stroke-width:2; stroke-opacity:0.1; fill:none" points="161.818,127.258 1152.94,127.258 "/>
<polyline clip-path="url(#clip450)" style="stroke:#000000; stroke-linecap:round; stroke-linejoin:round; stroke-width:4; stroke-opacity:1; fill:none" points="161.818,667.406 1152.94,667.406 "/>
<polyline clip-path="url(#clip450)" style="stroke:#000000; stroke-linecap:round; stroke-linejoin:round; stroke-width:4; stroke-opacity:1; fill:none" points="186.945,667.406 186.945,648.509 "/>
<polyline clip-path="url(#clip450)" style="stroke:#000000; stroke-linecap:round; stroke-linejoin:round; stroke-width:4; stroke-opacity:1; fill:none" points="449.736,667.406 449.736,648.509 "/>
<polyline clip-path="url(#clip450)" style="stroke:#000000; stroke-linecap:round; stroke-linejoin:round; stroke-width:4; stroke-opacity:1; fill:none" points="712.527,667.406 712.527,648.509 "/>
<polyline clip-path="url(#clip450)" style="stroke:#000000; stroke-linecap:round; stroke-linejoin:round; stroke-width:4; stroke-opacity:1; fill:none" points="975.319,667.406 975.319,648.509 "/>
<path clip-path="url(#clip450)" d="M133.095 739.139 Q131.18 741.054 132.101 743.914 Q133.022 746.75 136.803 750.531 Q140.572 754.3 143.42 755.233 Q146.268 756.141 148.183 754.226 Q150.11 752.299 149.189 749.463 Q148.269 746.603 144.5 742.834 Q140.719 739.053 137.871 738.144 Q135.023 737.211 133.095 739.139 M131.131 737.175 Q134.213 734.093 138.276 734.916 Q142.339 735.714 146.98 740.354 Q151.608 744.982 152.418 749.058 Q153.228 753.109 150.147 756.19 Q147.066 759.272 143.002 758.474 Q138.939 757.651 134.311 753.023 Q129.67 748.383 128.86 744.332 Q128.05 740.256 131.131 737.175 Z" fill="#000000" fill-rule="nonzero" fill-opacity="1" /><path clip-path="url(#clip450)" d="M157.365 742.024 L159.956 739.433 L163.074 742.552 L160.483 745.142 L157.365 742.024 Z" fill="#000000" fill-rule="nonzero" fill-opacity="1" /><path clip-path="url(#clip450)" d="M165.075 723.143 Q163.307 724.911 163.233 726.875 Q163.172 728.827 164.829 730.484 Q166.486 732.141 168.438 732.08 Q170.403 732.006 172.17 730.239 Q173.938 728.471 174.012 726.507 Q174.073 724.53 172.428 722.885 Q170.771 721.228 168.807 721.302 Q166.855 721.363 165.075 723.143 M161.539 724.567 Q159.55 725.77 157.562 725.574 Q155.585 725.365 154.014 723.794 Q151.817 721.596 152.099 718.761 Q152.393 715.912 155.119 713.187 Q157.856 710.45 160.692 710.167 Q163.528 709.885 165.725 712.082 Q167.297 713.654 167.493 715.642 Q167.702 717.619 166.511 719.595 Q168.721 718.22 170.93 718.441 Q173.152 718.65 174.908 720.406 Q177.572 723.069 177.363 726.126 Q177.167 729.171 174.134 732.203 Q171.102 735.235 168.046 735.444 Q165.001 735.64 162.337 732.976 Q160.582 731.221 160.373 728.999 Q160.164 726.777 161.539 724.567 M156.715 721.559 Q158.139 722.983 159.821 722.898 Q161.515 722.799 163.123 721.191 Q164.719 719.595 164.817 717.901 Q164.927 716.195 163.503 714.771 Q162.079 713.347 160.373 713.457 Q158.679 713.555 157.083 715.151 Q155.475 716.76 155.377 718.454 Q155.291 720.135 156.715 721.559 Z" fill="#000000" fill-rule="nonzero" fill-opacity="1" /><path clip-path="url(#clip450)" d="M173.079 699.156 Q171.164 701.071 172.084 703.931 Q173.005 706.767 176.786 710.548 Q180.555 714.317 183.403 715.25 Q186.251 716.158 188.166 714.243 Q190.093 712.316 189.173 709.48 Q188.252 706.619 184.483 702.851 Q180.702 699.07 177.854 698.161 Q175.006 697.228 173.079 699.156 M171.115 697.191 Q174.196 694.11 178.259 694.933 Q182.323 695.731 186.963 700.371 Q191.591 704.999 192.401 709.075 Q193.211 713.126 190.13 716.207 Q187.049 719.288 182.986 718.49 Q178.922 717.668 174.294 713.04 Q169.654 708.399 168.843 704.348 Q168.033 700.273 171.115 697.191 Z" fill="#000000" fill-rule="nonzero" fill-opacity="1" /><path clip-path="url(#clip450)" d="M396.415 738.611 Q394.5 740.526 395.42 743.386 Q396.341 746.222 400.122 750.003 Q403.891 753.772 406.739 754.705 Q409.587 755.613 411.502 753.698 Q413.429 751.771 412.509 748.935 Q411.588 746.075 407.819 742.306 Q404.038 738.525 401.19 737.617 Q398.342 736.684 396.415 738.611 M394.45 736.647 Q397.532 733.565 401.595 734.388 Q405.659 735.186 410.299 739.826 Q414.927 744.454 415.737 748.53 Q416.547 752.581 413.466 755.662 Q410.385 758.744 406.321 757.946 Q402.258 757.123 397.63 752.495 Q392.99 747.855 392.179 743.804 Q391.369 739.728 394.45 736.647 Z" fill="#000000" fill-rule="nonzero" fill-opacity="1" /><path clip-path="url(#clip450)" d="M420.684 741.496 L423.275 738.906 L426.393 742.024 L423.803 744.614 L420.684 741.496 Z" fill="#000000" fill-rule="nonzero" fill-opacity="1" /><path clip-path="url(#clip450)" d="M428.394 722.615 Q426.626 724.383 426.552 726.347 Q426.491 728.299 428.148 729.956 Q429.806 731.614 431.758 731.552 Q433.722 731.479 435.489 729.711 Q437.257 727.943 437.331 725.979 Q437.392 724.002 435.747 722.357 Q434.09 720.7 432.126 720.774 Q430.174 720.835 428.394 722.615 M424.858 724.039 Q422.87 725.242 420.881 725.046 Q418.904 724.837 417.333 723.266 Q415.136 721.068 415.418 718.233 Q415.713 715.385 418.438 712.659 Q421.176 709.922 424.011 709.639 Q426.847 709.357 429.045 711.554 Q430.616 713.126 430.812 715.115 Q431.021 717.091 429.83 719.067 Q432.04 717.692 434.25 717.913 Q436.472 718.122 438.227 719.878 Q440.891 722.542 440.682 725.598 Q440.486 728.643 437.454 731.675 Q434.421 734.707 431.365 734.916 Q428.32 735.112 425.656 732.448 Q423.901 730.693 423.692 728.471 Q423.483 726.249 424.858 724.039 M420.034 721.032 Q421.458 722.456 423.14 722.37 Q424.834 722.271 426.442 720.663 Q428.038 719.067 428.136 717.373 Q428.247 715.667 426.823 714.243 Q425.399 712.819 423.692 712.929 Q421.998 713.028 420.402 714.623 Q418.794 716.232 418.696 717.926 Q418.61 719.608 420.034 721.032 Z" fill="#000000" fill-rule="nonzero" fill-opacity="1" /><path clip-path="url(#clip450)" d="M429.486 702.274 L439.221 692.539 L441.308 694.626 L433.844 702.09 L438.338 706.583 Q438.694 705.858 439.148 705.232 Q439.59 704.594 440.13 704.054 Q443.199 700.985 446.673 700.874 Q450.147 700.764 453.02 703.636 Q455.978 706.595 455.782 710.081 Q455.573 713.555 452.222 716.907 Q451.068 718.061 449.668 719.067 Q448.281 720.062 446.612 720.946 L444.12 718.454 Q445.826 717.95 447.299 717.066 Q448.772 716.183 450.086 714.869 Q452.21 712.745 452.332 710.388 Q452.455 708.031 450.54 706.116 Q448.625 704.201 446.268 704.324 Q443.911 704.447 441.787 706.57 Q440.793 707.565 440.019 708.78 Q439.258 709.983 438.694 711.481 L429.486 702.274 Z" fill="#000000" fill-rule="nonzero" fill-opacity="1" /><path clip-path="url(#clip450)" d="M658.678 739.139 Q656.763 741.054 657.684 743.914 Q658.604 746.75 662.385 750.531 Q666.154 754.3 669.002 755.233 Q671.85 756.141 673.765 754.226 Q675.693 752.299 674.772 749.463 Q673.851 746.603 670.083 742.834 Q666.302 739.053 663.454 738.144 Q660.605 737.211 658.678 739.139 M656.714 737.175 Q659.795 734.093 663.859 734.916 Q667.922 735.714 672.562 740.354 Q677.19 744.982 678.001 749.058 Q678.811 753.109 675.73 756.19 Q672.648 759.272 668.585 758.474 Q664.522 757.651 659.893 753.023 Q655.253 748.383 654.443 744.332 Q653.633 740.256 656.714 737.175 Z" fill="#000000" fill-rule="nonzero" fill-opacity="1" /><path clip-path="url(#clip450)" d="M682.948 742.024 L685.538 739.433 L688.656 742.552 L686.066 745.142 L682.948 742.024 Z" fill="#000000" fill-rule="nonzero" fill-opacity="1" /><path clip-path="url(#clip450)" d="M693.751 736.696 L691.492 734.437 Q692.867 733.946 694.058 733.222 Q695.249 732.497 696.169 731.577 Q698.625 729.122 698.269 726.188 Q697.912 723.229 694.733 719.681 Q695.077 721.449 694.549 723.106 Q694.021 724.764 692.695 726.089 Q689.945 728.839 686.68 728.79 Q683.414 728.716 680.53 725.832 Q677.706 723.008 677.669 719.632 Q677.632 716.256 680.407 713.482 Q683.586 710.302 687.699 711.076 Q691.811 711.825 696.452 716.465 Q700.785 720.798 701.313 725.451 Q701.841 730.079 698.367 733.553 Q697.434 734.486 696.292 735.26 Q695.15 736.033 693.751 736.696 M690.915 723.99 Q692.585 722.321 692.413 720.209 Q692.253 718.085 690.264 716.097 Q688.288 714.12 686.164 713.961 Q684.041 713.776 682.371 715.446 Q680.701 717.116 680.873 719.252 Q681.045 721.363 683.022 723.339 Q685.01 725.328 687.122 725.5 Q689.246 725.66 690.915 723.99 Z" fill="#000000" fill-rule="nonzero" fill-opacity="1" /><path clip-path="url(#clip450)" d="M698.661 699.156 Q696.746 701.071 697.667 703.931 Q698.588 706.767 702.369 710.548 Q706.137 714.317 708.986 715.25 Q711.834 716.158 713.749 714.243 Q715.676 712.316 714.755 709.48 Q713.835 706.619 710.066 702.851 Q706.285 699.07 703.437 698.161 Q700.589 697.228 698.661 699.156 M696.697 697.191 Q699.778 694.11 703.842 694.933 Q707.905 695.731 712.546 700.371 Q717.174 704.999 717.984 709.075 Q718.794 713.126 715.713 716.207 Q712.632 719.288 708.568 718.49 Q704.505 717.668 699.877 713.04 Q695.236 708.399 694.426 704.348 Q693.616 700.273 696.697 697.191 Z" fill="#000000" fill-rule="nonzero" fill-opacity="1" /><path clip-path="url(#clip450)" d="M921.997 738.611 Q920.082 740.526 921.003 743.386 Q921.924 746.222 925.705 750.003 Q929.473 753.772 932.321 754.705 Q935.17 755.613 937.085 753.698 Q939.012 751.771 938.091 748.935 Q937.171 746.075 933.402 742.306 Q929.621 738.525 926.773 737.617 Q923.925 736.684 921.997 738.611 M920.033 736.647 Q923.114 733.565 927.178 734.388 Q931.241 735.186 935.882 739.826 Q940.51 744.454 941.32 748.53 Q942.13 752.581 939.049 755.662 Q935.967 758.744 931.904 757.946 Q927.841 757.123 923.213 752.495 Q918.572 747.855 917.762 743.804 Q916.952 739.728 920.033 736.647 Z" fill="#000000" fill-rule="nonzero" fill-opacity="1" /><path clip-path="url(#clip450)" d="M946.267 741.496 L948.857 738.906 L951.976 742.024 L949.385 744.614 L946.267 741.496 Z" fill="#000000" fill-rule="nonzero" fill-opacity="1" /><path clip-path="url(#clip450)" d="M957.07 736.168 L954.811 733.909 Q956.186 733.418 957.377 732.694 Q958.568 731.97 959.488 731.049 Q961.944 728.594 961.588 725.66 Q961.232 722.701 958.052 719.153 Q958.396 720.921 957.868 722.578 Q957.34 724.236 956.014 725.561 Q953.265 728.311 949.999 728.262 Q946.734 728.189 943.849 725.304 Q941.025 722.48 940.988 719.104 Q940.952 715.728 943.726 712.954 Q946.905 709.774 951.018 710.548 Q955.13 711.297 959.771 715.937 Q964.104 720.27 964.632 724.923 Q965.16 729.551 961.686 733.025 Q960.753 733.958 959.611 734.732 Q958.47 735.505 957.07 736.168 M954.234 723.462 Q955.904 721.793 955.732 719.681 Q955.572 717.557 953.584 715.569 Q951.607 713.592 949.483 713.433 Q947.36 713.249 945.69 714.918 Q944.021 716.588 944.192 718.724 Q944.364 720.835 946.341 722.812 Q948.33 724.8 950.441 724.972 Q952.565 725.132 954.234 723.462 Z" fill="#000000" fill-rule="nonzero" fill-opacity="1" /><path clip-path="url(#clip450)" d="M955.069 702.274 L964.804 692.539 L966.891 694.626 L959.427 702.09 L963.92 706.583 Q964.276 705.858 964.73 705.232 Q965.172 704.594 965.712 704.054 Q968.781 700.985 972.256 700.874 Q975.73 700.764 978.602 703.636 Q981.561 706.595 981.364 710.081 Q981.156 713.555 977.804 716.907 Q976.65 718.061 975.251 719.067 Q973.864 720.062 972.194 720.946 L969.702 718.454 Q971.409 717.95 972.882 717.066 Q974.355 716.183 975.668 714.869 Q977.792 712.745 977.915 710.388 Q978.038 708.031 976.123 706.116 Q974.208 704.201 971.851 704.324 Q969.494 704.447 967.37 706.57 Q966.375 707.565 965.602 708.78 Q964.841 709.983 964.276 711.481 L955.069 702.274 Z" fill="#000000" fill-rule="nonzero" fill-opacity="1" /><polyline clip-path="url(#clip450)" style="stroke:#000000; stroke-linecap:round; stroke-linejoin:round; stroke-width:4; stroke-opacity:1; fill:none" points="161.818,667.406 161.818,97.5521 "/>
<polyline clip-path="url(#clip450)" style="stroke:#000000; stroke-linecap:round; stroke-linejoin:round; stroke-width:4; stroke-opacity:1; fill:none" points="161.818,651.278 180.716,651.278 "/>
<polyline clip-path="url(#clip450)" style="stroke:#000000; stroke-linecap:round; stroke-linejoin:round; stroke-width:4; stroke-opacity:1; fill:none" points="161.818,520.273 180.716,520.273 "/>
<polyline clip-path="url(#clip450)" style="stroke:#000000; stroke-linecap:round; stroke-linejoin:round; stroke-width:4; stroke-opacity:1; fill:none" points="161.818,389.268 180.716,389.268 "/>
<polyline clip-path="url(#clip450)" style="stroke:#000000; stroke-linecap:round; stroke-linejoin:round; stroke-width:4; stroke-opacity:1; fill:none" points="161.818,258.263 180.716,258.263 "/>
<polyline clip-path="url(#clip450)" style="stroke:#000000; stroke-linecap:round; stroke-linejoin:round; stroke-width:4; stroke-opacity:1; fill:none" points="161.818,127.258 180.716,127.258 "/>
<path clip-path="url(#clip450)" d="M116.86 640.627 Q114.152 640.627 112.78 643.301 Q111.426 645.957 111.426 651.304 Q111.426 656.634 112.78 659.308 Q114.152 661.964 116.86 661.964 Q119.586 661.964 120.94 659.308 Q122.311 656.634 122.311 651.304 Q122.311 645.957 120.94 643.301 Q119.586 640.627 116.86 640.627 M116.86 637.85 Q121.217 637.85 123.509 641.305 Q125.818 644.742 125.818 651.304 Q125.818 657.85 123.509 661.304 Q121.217 664.742 116.86 664.742 Q112.502 664.742 110.193 661.304 Q107.902 657.85 107.902 651.304 Q107.902 644.742 110.193 641.305 Q112.502 637.85 116.86 637.85 Z" fill="#000000" fill-rule="nonzero" fill-opacity="1" /><path clip-path="url(#clip450)" d="M110.888 530.282 L116.617 530.282 L116.617 510.508 L110.384 511.758 L110.384 508.563 L116.582 507.313 L120.089 507.313 L120.089 530.282 L125.818 530.282 L125.818 533.233 L110.888 533.233 L110.888 530.282 Z" fill="#000000" fill-rule="nonzero" fill-opacity="1" /><path clip-path="url(#clip450)" d="M113.579 399.277 L125.818 399.277 L125.818 402.228 L109.36 402.228 L109.36 399.277 Q111.356 397.211 114.794 393.739 Q118.249 390.249 119.134 389.242 Q120.818 387.35 121.478 386.048 Q122.155 384.728 122.155 383.461 Q122.155 381.395 120.697 380.093 Q119.256 378.791 116.929 378.791 Q115.28 378.791 113.44 379.364 Q111.617 379.937 109.533 381.1 L109.533 377.558 Q111.652 376.708 113.492 376.274 Q115.332 375.84 116.86 375.84 Q120.888 375.84 123.283 377.853 Q125.679 379.867 125.679 383.235 Q125.679 384.833 125.072 386.273 Q124.481 387.697 122.901 389.642 Q122.467 390.145 120.141 392.558 Q117.815 394.954 113.579 399.277 Z" fill="#000000" fill-rule="nonzero" fill-opacity="1" /><path clip-path="url(#clip450)" d="M120.471 257.248 Q122.988 257.786 124.395 259.487 Q125.818 261.189 125.818 263.689 Q125.818 267.525 123.179 269.626 Q120.54 271.727 115.679 271.727 Q114.047 271.727 112.311 271.397 Q110.593 271.084 108.752 270.442 L108.752 267.057 Q110.211 267.907 111.947 268.341 Q113.683 268.775 115.575 268.775 Q118.874 268.775 120.592 267.473 Q122.329 266.171 122.329 263.689 Q122.329 261.397 120.714 260.112 Q119.117 258.81 116.252 258.81 L113.231 258.81 L113.231 255.928 L116.391 255.928 Q118.978 255.928 120.349 254.904 Q121.721 253.862 121.721 251.918 Q121.721 249.921 120.297 248.862 Q118.891 247.786 116.252 247.786 Q114.811 247.786 113.162 248.098 Q111.513 248.411 109.533 249.071 L109.533 245.946 Q111.53 245.39 113.266 245.112 Q115.02 244.834 116.565 244.834 Q120.558 244.834 122.884 246.657 Q125.21 248.463 125.21 251.553 Q125.21 253.706 123.978 255.199 Q122.745 256.675 120.471 257.248 Z" fill="#000000" fill-rule="nonzero" fill-opacity="1" /><path clip-path="url(#clip450)" d="M118.631 117.354 L109.777 131.19 L118.631 131.19 L118.631 117.354 M117.711 114.298 L122.12 114.298 L122.12 131.19 L125.818 131.19 L125.818 134.107 L122.12 134.107 L122.12 140.218 L118.631 140.218 L118.631 134.107 L106.929 134.107 L106.929 130.722 L117.711 114.298 Z" fill="#000000" fill-rule="nonzero" fill-opacity="1" /><path clip-path="url(#clip450)" d="M163.901 20.1758 Q165.313 17.8147 168.809 15.7314 Q170.175 14.9212 174.387 14.9212 Q179.11 14.9212 182.049 18.6712 Q185.012 22.4212 185.012 28.5323 Q185.012 34.6433 182.049 38.3933 Q179.11 42.1433 174.387 42.1433 Q171.54 42.1433 169.48 41.0322 Q167.443 39.8979 166.1 37.5831 L166.1 51.3331 L161.818 51.3331 L161.818 28.7637 Q161.818 23.4165 163.901 20.1758 M180.591 28.5323 Q180.591 23.8332 178.647 21.1712 Q176.725 18.486 173.346 18.486 Q169.966 18.486 168.022 21.1712 Q166.1 23.8332 166.1 28.5323 Q166.1 33.2313 168.022 35.9165 Q169.966 38.5785 173.346 38.5785 Q176.725 38.5785 178.647 35.9165 Q180.591 33.2313 180.591 28.5323 Z" fill="#000000" fill-rule="nonzero" fill-opacity="1" /><polyline clip-path="url(#clip452)" style="stroke:#009af9; stroke-linecap:round; stroke-linejoin:round; stroke-width:4; stroke-opacity:1; fill:none" points="189.869,593.7 248.307,597.908 306.746,602.648 365.185,608.026 423.623,614.181 482.062,621.293 540.501,629.604 598.939,639.444 657.378,651.278 715.817,636.779 774.256,618.603 832.694,595.155 891.133,563.762 949.572,519.583 1008.01,452.856 1066.45,340.568 1124.89,113.68 "/>
<circle clip-path="url(#clip452)" cx="657.378" cy="651.278" r="10.8" fill="#ff0000" fill-rule="evenodd" fill-opacity="1" stroke="#000000" stroke-opacity="1" stroke-width="3.2"/>
<path clip-path="url(#clip450)" d="M1361.64 667.406 L2352.76 667.406 L2352.76 97.5521 L1361.64 97.5521  Z" fill="#ffffff" fill-rule="evenodd" fill-opacity="1"/>
<defs>
  <clipPath id="clip453">
    <rect x="1361" y="97" width="992" height="571"/>
  </clipPath>
</defs>
<polyline clip-path="url(#clip453)" style="stroke:#000000; stroke-linecap:round; stroke-linejoin:round; stroke-width:2; stroke-opacity:0.1; fill:none" points="1367.56,667.406 1367.56,97.5521 "/>
<polyline clip-path="url(#clip453)" style="stroke:#000000; stroke-linecap:round; stroke-linejoin:round; stroke-width:2; stroke-opacity:0.1; fill:none" points="1511.89,667.406 1511.89,97.5521 "/>
<polyline clip-path="url(#clip453)" style="stroke:#000000; stroke-linecap:round; stroke-linejoin:round; stroke-width:2; stroke-opacity:0.1; fill:none" points="1656.21,667.406 1656.21,97.5521 "/>
<polyline clip-path="url(#clip453)" style="stroke:#000000; stroke-linecap:round; stroke-linejoin:round; stroke-width:2; stroke-opacity:0.1; fill:none" points="1800.54,667.406 1800.54,97.5521 "/>
<polyline clip-path="url(#clip453)" style="stroke:#000000; stroke-linecap:round; stroke-linejoin:round; stroke-width:2; stroke-opacity:0.1; fill:none" points="1944.86,667.406 1944.86,97.5521 "/>
<polyline clip-path="url(#clip453)" style="stroke:#000000; stroke-linecap:round; stroke-linejoin:round; stroke-width:2; stroke-opacity:0.1; fill:none" points="2089.19,667.406 2089.19,97.5521 "/>
<polyline clip-path="url(#clip453)" style="stroke:#000000; stroke-linecap:round; stroke-linejoin:round; stroke-width:2; stroke-opacity:0.1; fill:none" points="2233.52,667.406 2233.52,97.5521 "/>
<polyline clip-path="url(#clip453)" style="stroke:#000000; stroke-linecap:round; stroke-linejoin:round; stroke-width:2; stroke-opacity:0.1; fill:none" points="1361.64,651.278 2352.76,651.278 "/>
<polyline clip-path="url(#clip453)" style="stroke:#000000; stroke-linecap:round; stroke-linejoin:round; stroke-width:2; stroke-opacity:0.1; fill:none" points="1361.64,508.082 2352.76,508.082 "/>
<polyline clip-path="url(#clip453)" style="stroke:#000000; stroke-linecap:round; stroke-linejoin:round; stroke-width:2; stroke-opacity:0.1; fill:none" points="1361.64,364.886 2352.76,364.886 "/>
<polyline clip-path="url(#clip453)" style="stroke:#000000; stroke-linecap:round; stroke-linejoin:round; stroke-width:2; stroke-opacity:0.1; fill:none" points="1361.64,221.689 2352.76,221.689 "/>
<polyline clip-path="url(#clip450)" style="stroke:#000000; stroke-linecap:round; stroke-linejoin:round; stroke-width:4; stroke-opacity:1; fill:none" points="1361.64,667.406 2352.76,667.406 "/>
<polyline clip-path="url(#clip450)" style="stroke:#000000; stroke-linecap:round; stroke-linejoin:round; stroke-width:4; stroke-opacity:1; fill:none" points="1367.56,667.406 1367.56,648.509 "/>
<polyline clip-path="url(#clip450)" style="stroke:#000000; stroke-linecap:round; stroke-linejoin:round; stroke-width:4; stroke-opacity:1; fill:none" points="1511.89,667.406 1511.89,648.509 "/>
<polyline clip-path="url(#clip450)" style="stroke:#000000; stroke-linecap:round; stroke-linejoin:round; stroke-width:4; stroke-opacity:1; fill:none" points="1656.21,667.406 1656.21,648.509 "/>
<polyline clip-path="url(#clip450)" style="stroke:#000000; stroke-linecap:round; stroke-linejoin:round; stroke-width:4; stroke-opacity:1; fill:none" points="1800.54,667.406 1800.54,648.509 "/>
<polyline clip-path="url(#clip450)" style="stroke:#000000; stroke-linecap:round; stroke-linejoin:round; stroke-width:4; stroke-opacity:1; fill:none" points="1944.86,667.406 1944.86,648.509 "/>
<polyline clip-path="url(#clip450)" style="stroke:#000000; stroke-linecap:round; stroke-linejoin:round; stroke-width:4; stroke-opacity:1; fill:none" points="2089.19,667.406 2089.19,648.509 "/>
<polyline clip-path="url(#clip450)" style="stroke:#000000; stroke-linecap:round; stroke-linejoin:round; stroke-width:4; stroke-opacity:1; fill:none" points="2233.52,667.406 2233.52,648.509 "/>
<path clip-path="url(#clip450)" d="M1313.81 739.041 Q1311.89 740.956 1312.81 743.816 Q1313.74 746.652 1317.52 750.433 Q1321.29 754.202 1324.13 755.135 Q1326.98 756.043 1328.9 754.128 Q1330.82 752.201 1329.9 749.365 Q1328.98 746.504 1325.21 742.736 Q1321.43 738.955 1318.58 738.046 Q1315.74 737.113 1313.81 739.041 M1311.85 737.076 Q1314.93 733.995 1318.99 734.818 Q1323.05 735.616 1327.69 740.256 Q1332.32 744.884 1333.13 748.96 Q1333.94 753.011 1330.86 756.092 Q1327.78 759.173 1323.72 758.375 Q1319.65 757.553 1315.02 752.925 Q1310.38 748.285 1309.57 744.233 Q1308.76 740.158 1311.85 737.076 Z" fill="#000000" fill-rule="nonzero" fill-opacity="1" /><path clip-path="url(#clip450)" d="M1338.08 741.926 L1340.67 739.335 L1343.79 742.453 L1341.2 745.044 L1338.08 741.926 Z" fill="#000000" fill-rule="nonzero" fill-opacity="1" /><path clip-path="url(#clip450)" d="M1349.24 732.829 L1357.89 724.174 L1359.98 726.261 L1348.34 737.899 L1346.25 735.812 Q1346.21 732.939 1346.18 728.054 Q1346.16 723.143 1346.07 721.805 Q1345.92 719.276 1345.47 717.889 Q1345.02 716.477 1344.12 715.581 Q1342.66 714.12 1340.71 714.231 Q1338.77 714.329 1337.12 715.974 Q1335.96 717.14 1335.06 718.846 Q1334.18 720.541 1333.52 722.836 L1331.02 720.332 Q1331.92 718.233 1332.91 716.624 Q1333.91 715.016 1334.99 713.936 Q1337.83 711.088 1340.95 710.818 Q1344.07 710.548 1346.45 712.929 Q1347.58 714.059 1348.17 715.507 Q1348.76 716.931 1349.02 719.423 Q1349.07 720.086 1349.13 723.438 Q1349.18 726.777 1349.24 732.829 Z" fill="#000000" fill-rule="nonzero" fill-opacity="1" /><path clip-path="url(#clip450)" d="M1364.88 720.602 L1362.62 718.343 Q1363.99 717.852 1365.18 717.128 Q1366.38 716.404 1367.3 715.483 Q1369.75 713.028 1369.4 710.094 Q1369.04 707.135 1365.86 703.587 Q1366.2 705.355 1365.68 707.012 Q1365.15 708.67 1363.82 709.995 Q1361.07 712.745 1357.81 712.696 Q1354.54 712.622 1351.66 709.738 Q1348.83 706.914 1348.8 703.538 Q1348.76 700.162 1351.53 697.388 Q1354.71 694.208 1358.83 694.982 Q1362.94 695.731 1367.58 700.371 Q1371.91 704.704 1372.44 709.357 Q1372.97 713.985 1369.49 717.459 Q1368.56 718.392 1367.42 719.166 Q1366.28 719.939 1364.88 720.602 M1362.04 707.896 Q1363.71 706.227 1363.54 704.115 Q1363.38 701.991 1361.39 700.003 Q1359.41 698.026 1357.29 697.867 Q1355.17 697.682 1353.5 699.352 Q1351.83 701.022 1352 703.158 Q1352.17 705.269 1354.15 707.246 Q1356.14 709.234 1358.25 709.406 Q1360.37 709.566 1362.04 707.896 Z" fill="#000000" fill-rule="nonzero" fill-opacity="1" /><path clip-path="url(#clip450)" d="M1458.04 739.139 Q1456.12 741.054 1457.04 743.914 Q1457.96 746.75 1461.74 750.531 Q1465.51 754.3 1468.36 755.233 Q1471.21 756.141 1473.12 754.226 Q1475.05 752.299 1474.13 749.463 Q1473.21 746.603 1469.44 742.834 Q1465.66 739.053 1462.81 738.144 Q1459.96 737.211 1458.04 739.139 M1456.07 737.175 Q1459.15 734.093 1463.22 734.916 Q1467.28 735.714 1471.92 740.354 Q1476.55 744.982 1477.36 749.058 Q1478.17 753.109 1475.09 756.19 Q1472.01 759.272 1467.94 758.474 Q1463.88 757.651 1459.25 753.023 Q1454.61 748.383 1453.8 744.332 Q1452.99 740.256 1456.07 737.175 Z" fill="#000000" fill-rule="nonzero" fill-opacity="1" /><path clip-path="url(#clip450)" d="M1482.31 742.024 L1484.9 739.433 L1488.02 742.552 L1485.43 745.142 L1482.31 742.024 Z" fill="#000000" fill-rule="nonzero" fill-opacity="1" /><path clip-path="url(#clip450)" d="M1491.05 719.755 Q1493.21 718.355 1495.41 718.564 Q1497.62 718.761 1499.38 720.528 Q1502.1 723.241 1501.72 726.593 Q1501.33 729.944 1497.9 733.381 Q1496.74 734.535 1495.28 735.53 Q1493.85 736.524 1492.09 737.371 L1489.7 734.977 Q1491.33 734.548 1492.86 733.627 Q1494.4 732.706 1495.74 731.368 Q1498.07 729.036 1498.36 726.9 Q1498.67 724.751 1496.92 722.996 Q1495.3 721.375 1493.25 721.609 Q1491.19 721.817 1489.17 723.843 L1487.03 725.979 L1485 723.941 L1487.23 721.707 Q1489.06 719.878 1489.3 718.184 Q1489.54 716.477 1488.16 715.102 Q1486.75 713.69 1485 713.948 Q1483.24 714.182 1481.37 716.047 Q1480.36 717.066 1479.41 718.454 Q1478.46 719.841 1477.53 721.707 L1475.32 719.497 Q1476.34 717.692 1477.37 716.268 Q1478.42 714.832 1479.51 713.74 Q1482.33 710.916 1485.27 710.56 Q1488.19 710.192 1490.37 712.377 Q1491.89 713.899 1492.08 715.827 Q1492.25 717.742 1491.05 719.755 Z" fill="#000000" fill-rule="nonzero" fill-opacity="1" /><path clip-path="url(#clip450)" d="M1498.02 699.156 Q1496.11 701.071 1497.03 703.931 Q1497.95 706.767 1501.73 710.548 Q1505.5 714.317 1508.34 715.25 Q1511.19 716.158 1513.11 714.243 Q1515.04 712.316 1514.11 709.48 Q1513.19 706.619 1509.42 702.851 Q1505.64 699.07 1502.8 698.161 Q1499.95 697.228 1498.02 699.156 M1496.06 697.191 Q1499.14 694.11 1503.2 694.933 Q1507.26 695.731 1511.9 700.371 Q1516.53 704.999 1517.34 709.075 Q1518.15 713.126 1515.07 716.207 Q1511.99 719.288 1507.93 718.49 Q1503.86 717.668 1499.24 713.04 Q1494.6 708.399 1493.79 704.348 Q1492.97 700.273 1496.06 697.191 Z" fill="#000000" fill-rule="nonzero" fill-opacity="1" /><path clip-path="url(#clip450)" d="M1603.01 738.488 Q1601.1 740.403 1602.02 743.264 Q1602.94 746.099 1606.72 749.88 Q1610.49 753.649 1613.34 754.582 Q1616.19 755.491 1618.1 753.576 Q1620.03 751.648 1619.11 748.812 Q1618.19 745.952 1614.42 742.183 Q1610.64 738.402 1607.79 737.494 Q1604.94 736.561 1603.01 738.488 M1601.05 736.524 Q1604.13 733.443 1608.19 734.265 Q1612.26 735.063 1616.9 739.704 Q1621.53 744.332 1622.34 748.407 Q1623.15 752.458 1620.07 755.54 Q1616.98 758.621 1612.92 757.823 Q1608.86 757.001 1604.23 752.372 Q1599.59 747.732 1598.78 743.681 Q1597.97 739.605 1601.05 736.524 Z" fill="#000000" fill-rule="nonzero" fill-opacity="1" /><path clip-path="url(#clip450)" d="M1627.28 741.373 L1629.87 738.783 L1632.99 741.901 L1630.4 744.491 L1627.28 741.373 Z" fill="#000000" fill-rule="nonzero" fill-opacity="1" /><path clip-path="url(#clip450)" d="M1636.02 719.104 Q1638.19 717.705 1640.38 717.913 Q1642.59 718.11 1644.36 719.878 Q1647.07 722.591 1646.69 725.942 Q1646.31 729.293 1642.87 732.731 Q1641.72 733.885 1640.26 734.879 Q1638.82 735.873 1637.07 736.72 L1634.67 734.327 Q1636.31 733.897 1637.84 732.976 Q1639.38 732.056 1640.71 730.717 Q1643.05 728.385 1643.34 726.249 Q1643.65 724.101 1641.89 722.345 Q1640.27 720.725 1638.22 720.958 Q1636.17 721.167 1634.15 723.192 L1632.01 725.328 L1629.97 723.29 L1632.21 721.056 Q1634.04 719.227 1634.28 717.533 Q1634.51 715.827 1633.14 714.452 Q1631.73 713.04 1629.97 713.298 Q1628.22 713.531 1626.35 715.397 Q1625.33 716.416 1624.39 717.803 Q1623.44 719.19 1622.51 721.056 L1620.3 718.846 Q1621.32 717.042 1622.35 715.618 Q1623.39 714.182 1624.48 713.089 Q1627.31 710.265 1630.24 709.909 Q1633.16 709.541 1635.35 711.726 Q1636.87 713.249 1637.06 715.176 Q1637.23 717.091 1636.02 719.104 Z" fill="#000000" fill-rule="nonzero" fill-opacity="1" /><path clip-path="url(#clip450)" d="M1652.73 717.987 L1656.78 713.936 L1642.8 699.954 L1639.28 705.245 L1637.02 702.986 L1640.52 697.719 L1643 695.24 L1659.24 711.481 L1663.29 707.43 L1665.38 709.517 L1654.82 720.074 L1652.73 717.987 Z" fill="#000000" fill-rule="nonzero" fill-opacity="1" /><path clip-path="url(#clip450)" d="M1747.54 738.292 Q1745.62 740.207 1746.54 743.067 Q1747.46 745.903 1751.24 749.684 Q1755.01 753.453 1757.86 754.386 Q1760.71 755.294 1762.62 753.379 Q1764.55 751.452 1763.63 748.616 Q1762.71 745.756 1758.94 741.987 Q1755.16 738.206 1752.31 737.297 Q1749.46 736.364 1747.54 738.292 M1745.57 736.328 Q1748.65 733.246 1752.72 734.069 Q1756.78 734.867 1761.42 739.507 Q1766.05 744.135 1766.86 748.211 Q1767.67 752.262 1764.59 755.343 Q1761.51 758.425 1757.44 757.627 Q1753.38 756.804 1748.75 752.176 Q1744.11 747.536 1743.3 743.485 Q1742.49 739.409 1745.57 736.328 Z" fill="#000000" fill-rule="nonzero" fill-opacity="1" /><path clip-path="url(#clip450)" d="M1771.81 741.177 L1774.4 738.586 L1777.51 741.705 L1774.92 744.295 L1771.81 741.177 Z" fill="#000000" fill-rule="nonzero" fill-opacity="1" /><path clip-path="url(#clip450)" d="M1780.55 718.908 Q1782.71 717.508 1784.91 717.717 Q1787.11 717.913 1788.88 719.681 Q1791.6 722.394 1791.21 725.746 Q1790.83 729.097 1787.4 732.534 Q1786.24 733.688 1784.78 734.683 Q1783.35 735.677 1781.59 736.524 L1779.2 734.13 Q1780.83 733.701 1782.36 732.78 Q1783.9 731.859 1785.24 730.521 Q1787.57 728.189 1787.86 726.053 Q1788.17 723.904 1786.41 722.149 Q1784.79 720.528 1782.74 720.762 Q1780.69 720.97 1778.67 722.996 L1776.53 725.132 L1774.49 723.094 L1776.73 720.86 Q1778.56 719.031 1778.8 717.336 Q1779.04 715.63 1777.66 714.255 Q1776.25 712.843 1774.49 713.101 Q1772.74 713.334 1770.87 715.2 Q1769.85 716.219 1768.91 717.607 Q1767.96 718.994 1767.03 720.86 L1764.82 718.65 Q1765.84 716.845 1766.87 715.421 Q1767.91 713.985 1769.01 712.893 Q1771.83 710.069 1774.76 709.713 Q1777.69 709.345 1779.87 711.53 Q1781.39 713.052 1781.58 714.979 Q1781.75 716.895 1780.55 718.908 Z" fill="#000000" fill-rule="nonzero" fill-opacity="1" /><path clip-path="url(#clip450)" d="M1798.96 716.084 L1807.62 707.43 L1809.7 709.517 L1798.07 721.154 L1795.98 719.067 Q1795.93 716.195 1795.9 711.309 Q1795.88 706.398 1795.79 705.06 Q1795.65 702.532 1795.19 701.144 Q1794.74 699.733 1793.84 698.836 Q1792.38 697.376 1790.43 697.486 Q1788.49 697.584 1786.84 699.229 Q1785.68 700.395 1784.78 702.102 Q1783.9 703.796 1783.25 706.092 L1780.74 703.587 Q1781.64 701.488 1782.63 699.88 Q1783.63 698.272 1784.71 697.191 Q1787.56 694.343 1790.67 694.073 Q1793.79 693.803 1796.17 696.185 Q1797.3 697.314 1797.89 698.763 Q1798.48 700.187 1798.74 702.679 Q1798.79 703.342 1798.85 706.693 Q1798.9 710.032 1798.96 716.084 Z" fill="#000000" fill-rule="nonzero" fill-opacity="1" /><path clip-path="url(#clip450)" d="M1891.36 738.795 Q1889.44 740.71 1890.37 743.571 Q1891.29 746.406 1895.07 750.187 Q1898.84 753.956 1901.68 754.889 Q1904.53 755.797 1906.45 753.882 Q1908.37 751.955 1907.45 749.119 Q1906.53 746.259 1902.76 742.49 Q1898.98 738.709 1896.13 737.801 Q1893.29 736.868 1891.36 738.795 M1889.4 736.831 Q1892.48 733.75 1896.54 734.572 Q1900.6 735.37 1905.24 740.01 Q1909.87 744.639 1910.68 748.714 Q1911.49 752.765 1908.41 755.847 Q1905.33 758.928 1901.27 758.13 Q1897.2 757.307 1892.57 752.679 Q1887.93 748.039 1887.12 743.988 Q1886.31 739.912 1889.4 736.831 Z" fill="#000000" fill-rule="nonzero" fill-opacity="1" /><path clip-path="url(#clip450)" d="M1915.63 741.68 L1918.22 739.09 L1921.34 742.208 L1918.75 744.798 L1915.63 741.68 Z" fill="#000000" fill-rule="nonzero" fill-opacity="1" /><path clip-path="url(#clip450)" d="M1924.37 719.411 Q1926.53 718.012 1928.73 718.22 Q1930.94 718.417 1932.71 720.185 Q1935.42 722.898 1935.04 726.249 Q1934.66 729.6 1931.22 733.038 Q1930.07 734.192 1928.61 735.186 Q1927.17 736.18 1925.41 737.027 L1923.02 734.634 Q1924.65 734.204 1926.19 733.283 Q1927.72 732.362 1929.06 731.024 Q1931.39 728.692 1931.69 726.556 Q1931.99 724.408 1930.24 722.652 Q1928.62 721.032 1926.57 721.265 Q1924.52 721.474 1922.49 723.499 L1920.36 725.635 L1918.32 723.597 L1920.55 721.363 Q1922.38 719.534 1922.63 717.84 Q1922.86 716.133 1921.48 714.759 Q1920.07 713.347 1918.32 713.605 Q1916.56 713.838 1914.7 715.704 Q1913.68 716.723 1912.73 718.11 Q1911.79 719.497 1910.85 721.363 L1908.64 719.153 Q1909.66 717.349 1910.69 715.925 Q1911.74 714.488 1912.83 713.396 Q1915.65 710.572 1918.59 710.216 Q1921.51 709.848 1923.69 712.033 Q1925.22 713.555 1925.4 715.483 Q1925.57 717.398 1924.37 719.411 Z" fill="#000000" fill-rule="nonzero" fill-opacity="1" /><path clip-path="url(#clip450)" d="M1940.37 703.415 Q1942.53 702.016 1944.72 702.225 Q1946.93 702.421 1948.7 704.189 Q1951.41 706.902 1951.03 710.253 Q1950.65 713.605 1947.22 717.042 Q1946.06 718.196 1944.6 719.19 Q1943.16 720.185 1941.41 721.032 L1939.02 718.638 Q1940.65 718.208 1942.18 717.287 Q1943.72 716.367 1945.06 715.029 Q1947.39 712.696 1947.68 710.56 Q1947.99 708.412 1946.23 706.656 Q1944.61 705.036 1942.56 705.269 Q1940.51 705.478 1938.49 707.503 L1936.35 709.639 L1934.31 707.602 L1936.55 705.367 Q1938.38 703.538 1938.62 701.844 Q1938.86 700.138 1937.48 698.763 Q1936.07 697.351 1934.31 697.609 Q1932.56 697.842 1930.69 699.708 Q1929.67 700.727 1928.73 702.114 Q1927.78 703.501 1926.85 705.367 L1924.64 703.158 Q1925.66 701.353 1926.69 699.929 Q1927.73 698.493 1928.83 697.4 Q1931.65 694.577 1934.58 694.221 Q1937.51 693.852 1939.69 696.037 Q1941.21 697.56 1941.4 699.487 Q1941.57 701.402 1940.37 703.415 Z" fill="#000000" fill-rule="nonzero" fill-opacity="1" /><path clip-path="url(#clip450)" d="M2035.08 739.397 Q2033.17 741.312 2034.09 744.172 Q2035.01 747.008 2038.79 750.789 Q2042.56 754.558 2045.41 755.491 Q2048.26 756.399 2050.17 754.484 Q2052.1 752.557 2051.18 749.721 Q2050.26 746.86 2046.49 743.092 Q2042.71 739.311 2039.86 738.402 Q2037.01 737.469 2035.08 739.397 M2033.12 737.432 Q2036.2 734.351 2040.26 735.174 Q2044.33 735.972 2048.97 740.612 Q2053.6 745.24 2054.41 749.316 Q2055.22 753.367 2052.14 756.448 Q2049.05 759.529 2044.99 758.731 Q2040.93 757.909 2036.3 753.281 Q2031.66 748.641 2030.85 744.589 Q2030.04 740.514 2033.12 737.432 Z" fill="#000000" fill-rule="nonzero" fill-opacity="1" /><path clip-path="url(#clip450)" d="M2059.35 742.282 L2061.94 739.691 L2065.06 742.809 L2062.47 745.4 L2059.35 742.282 Z" fill="#000000" fill-rule="nonzero" fill-opacity="1" /><path clip-path="url(#clip450)" d="M2068.09 720.013 Q2070.26 718.613 2072.45 718.822 Q2074.66 719.018 2076.43 720.786 Q2079.14 723.499 2078.76 726.85 Q2078.38 730.202 2074.94 733.639 Q2073.79 734.793 2072.33 735.787 Q2070.89 736.782 2069.14 737.629 L2066.74 735.235 Q2068.38 734.805 2069.91 733.885 Q2071.45 732.964 2072.78 731.626 Q2075.12 729.293 2075.41 727.157 Q2075.72 725.009 2073.96 723.254 Q2072.34 721.633 2070.29 721.866 Q2068.24 722.075 2066.22 724.101 L2064.08 726.237 L2062.04 724.199 L2064.28 721.965 Q2066.11 720.135 2066.35 718.441 Q2066.58 716.735 2065.21 715.36 Q2063.8 713.948 2062.04 714.206 Q2060.29 714.439 2058.42 716.305 Q2057.4 717.324 2056.46 718.711 Q2055.51 720.099 2054.58 721.965 L2052.37 719.755 Q2053.39 717.95 2054.42 716.526 Q2055.46 715.09 2056.55 713.997 Q2059.38 711.174 2062.31 710.818 Q2065.23 710.45 2067.42 712.635 Q2068.94 714.157 2069.13 716.084 Q2069.3 717.999 2068.09 720.013 Z" fill="#000000" fill-rule="nonzero" fill-opacity="1" /><path clip-path="url(#clip450)" d="M2077.11 698.431 L2080.63 714.476 L2086.89 708.215 L2077.11 698.431 M2074.29 696.921 L2077.41 693.803 L2089.36 705.748 L2091.97 703.133 L2094.03 705.195 L2091.42 707.81 L2095.74 712.131 L2093.27 714.599 L2088.95 710.278 L2080.68 718.552 L2078.28 716.158 L2074.29 696.921 Z" fill="#000000" fill-rule="nonzero" fill-opacity="1" /><path clip-path="url(#clip450)" d="M2180.2 738.611 Q2178.28 740.526 2179.2 743.386 Q2180.12 746.222 2183.9 750.003 Q2187.67 753.772 2190.52 754.705 Q2193.37 755.613 2195.28 753.698 Q2197.21 751.771 2196.29 748.935 Q2195.37 746.075 2191.6 742.306 Q2187.82 738.525 2184.97 737.617 Q2182.12 736.684 2180.2 738.611 M2178.23 736.647 Q2181.31 733.565 2185.38 734.388 Q2189.44 735.186 2194.08 739.826 Q2198.71 744.454 2199.52 748.53 Q2200.33 752.581 2197.25 755.662 Q2194.17 758.744 2190.1 757.946 Q2186.04 757.123 2181.41 752.495 Q2176.77 747.855 2175.96 743.804 Q2175.15 739.728 2178.23 736.647 Z" fill="#000000" fill-rule="nonzero" fill-opacity="1" /><path clip-path="url(#clip450)" d="M2204.47 741.496 L2207.06 738.906 L2210.17 742.024 L2207.58 744.614 L2204.47 741.496 Z" fill="#000000" fill-rule="nonzero" fill-opacity="1" /><path clip-path="url(#clip450)" d="M2213.21 719.227 Q2215.37 717.828 2217.56 718.036 Q2219.77 718.233 2221.54 720 Q2224.25 722.713 2223.87 726.065 Q2223.49 729.416 2220.06 732.853 Q2218.9 734.007 2217.44 735.002 Q2216.01 735.996 2214.25 736.843 L2211.86 734.449 Q2213.49 734.02 2215.02 733.099 Q2216.56 732.178 2217.9 730.84 Q2220.23 728.508 2220.52 726.372 Q2220.83 724.223 2219.07 722.468 Q2217.45 720.847 2215.4 721.081 Q2213.35 721.289 2211.33 723.315 L2209.19 725.451 L2207.15 723.413 L2209.39 721.179 Q2211.22 719.35 2211.46 717.656 Q2211.7 715.949 2210.32 714.574 Q2208.91 713.163 2207.15 713.42 Q2205.4 713.654 2203.53 715.52 Q2202.51 716.539 2201.57 717.926 Q2200.62 719.313 2199.69 721.179 L2197.48 718.969 Q2198.5 717.165 2199.53 715.741 Q2200.57 714.304 2201.67 713.212 Q2204.49 710.388 2207.42 710.032 Q2210.35 709.664 2212.53 711.849 Q2214.05 713.371 2214.24 715.299 Q2214.41 717.214 2213.21 719.227 Z" fill="#000000" fill-rule="nonzero" fill-opacity="1" /><path clip-path="url(#clip450)" d="M2213.27 702.274 L2223 692.539 L2225.09 694.626 L2217.63 702.09 L2222.12 706.583 Q2222.47 705.858 2222.93 705.232 Q2223.37 704.594 2223.91 704.054 Q2226.98 700.985 2230.45 700.874 Q2233.93 700.764 2236.8 703.636 Q2239.76 706.595 2239.56 710.081 Q2239.35 713.555 2236 716.907 Q2234.85 718.061 2233.45 719.067 Q2232.06 720.062 2230.39 720.946 L2227.9 718.454 Q2229.61 717.95 2231.08 717.066 Q2232.55 716.183 2233.87 714.869 Q2235.99 712.745 2236.11 710.388 Q2236.24 708.031 2234.32 706.116 Q2232.41 704.201 2230.05 704.324 Q2227.69 704.447 2225.57 706.57 Q2224.57 707.565 2223.8 708.78 Q2223.04 709.983 2222.47 711.481 L2213.27 702.274 Z" fill="#000000" fill-rule="nonzero" fill-opacity="1" /><polyline clip-path="url(#clip450)" style="stroke:#000000; stroke-linecap:round; stroke-linejoin:round; stroke-width:4; stroke-opacity:1; fill:none" points="1361.64,667.406 1361.64,97.5521 "/>
<polyline clip-path="url(#clip450)" style="stroke:#000000; stroke-linecap:round; stroke-linejoin:round; stroke-width:4; stroke-opacity:1; fill:none" points="1361.64,651.278 1380.53,651.278 "/>
<polyline clip-path="url(#clip450)" style="stroke:#000000; stroke-linecap:round; stroke-linejoin:round; stroke-width:4; stroke-opacity:1; fill:none" points="1361.64,508.082 1380.53,508.082 "/>
<polyline clip-path="url(#clip450)" style="stroke:#000000; stroke-linecap:round; stroke-linejoin:round; stroke-width:4; stroke-opacity:1; fill:none" points="1361.64,364.886 1380.53,364.886 "/>
<polyline clip-path="url(#clip450)" style="stroke:#000000; stroke-linecap:round; stroke-linejoin:round; stroke-width:4; stroke-opacity:1; fill:none" points="1361.64,221.689 1380.53,221.689 "/>
<path clip-path="url(#clip450)" d="M1260.13 640.627 Q1257.42 640.627 1256.05 643.301 Q1254.7 645.957 1254.7 651.304 Q1254.7 656.634 1256.05 659.308 Q1257.42 661.964 1260.13 661.964 Q1262.86 661.964 1264.21 659.308 Q1265.58 656.634 1265.58 651.304 Q1265.58 645.957 1264.21 643.301 Q1262.86 640.627 1260.13 640.627 M1260.13 637.85 Q1264.49 637.85 1266.78 641.305 Q1269.09 644.742 1269.09 651.304 Q1269.09 657.85 1266.78 661.304 Q1264.49 664.742 1260.13 664.742 Q1255.78 664.742 1253.47 661.304 Q1251.17 657.85 1251.17 651.304 Q1251.17 644.742 1253.47 641.305 Q1255.78 637.85 1260.13 637.85 Z" fill="#000000" fill-rule="nonzero" fill-opacity="1" /><path clip-path="url(#clip450)" d="M1275.25 659.829 L1278.92 659.829 L1278.92 664.238 L1275.25 664.238 L1275.25 659.829 Z" fill="#000000" fill-rule="nonzero" fill-opacity="1" /><path clip-path="url(#clip450)" d="M1294.06 640.627 Q1291.35 640.627 1289.98 643.301 Q1288.62 645.957 1288.62 651.304 Q1288.62 656.634 1289.98 659.308 Q1291.35 661.964 1294.06 661.964 Q1296.78 661.964 1298.14 659.308 Q1299.51 656.634 1299.51 651.304 Q1299.51 645.957 1298.14 643.301 Q1296.78 640.627 1294.06 640.627 M1294.06 637.85 Q1298.41 637.85 1300.71 641.305 Q1303.01 644.742 1303.01 651.304 Q1303.01 657.85 1300.71 661.304 Q1298.41 664.742 1294.06 664.742 Q1289.7 664.742 1287.39 661.304 Q1285.1 657.85 1285.1 651.304 Q1285.1 644.742 1287.39 641.305 Q1289.7 637.85 1294.06 637.85 Z" fill="#000000" fill-rule="nonzero" fill-opacity="1" /><path clip-path="url(#clip450)" d="M1316.68 640.627 Q1313.97 640.627 1312.6 643.301 Q1311.24 645.957 1311.24 651.304 Q1311.24 656.634 1312.6 659.308 Q1313.97 661.964 1316.68 661.964 Q1319.4 661.964 1320.76 659.308 Q1322.13 656.634 1322.13 651.304 Q1322.13 645.957 1320.76 643.301 Q1319.4 640.627 1316.68 640.627 M1316.68 637.85 Q1321.04 637.85 1323.33 641.305 Q1325.64 644.742 1325.64 651.304 Q1325.64 657.85 1323.33 661.304 Q1321.04 664.742 1316.68 664.742 Q1312.32 664.742 1310.01 661.304 Q1307.72 657.85 1307.72 651.304 Q1307.72 644.742 1310.01 641.305 Q1312.32 637.85 1316.68 637.85 Z" fill="#000000" fill-rule="nonzero" fill-opacity="1" /><path clip-path="url(#clip450)" d="M1260.88 497.431 Q1258.17 497.431 1256.8 500.105 Q1255.45 502.761 1255.45 508.108 Q1255.45 513.438 1256.8 516.112 Q1258.17 518.768 1260.88 518.768 Q1263.6 518.768 1264.96 516.112 Q1266.33 513.438 1266.33 508.108 Q1266.33 502.761 1264.96 500.105 Q1263.6 497.431 1260.88 497.431 M1260.88 494.653 Q1265.24 494.653 1267.53 498.108 Q1269.84 501.546 1269.84 508.108 Q1269.84 514.653 1267.53 518.108 Q1265.24 521.546 1260.88 521.546 Q1256.52 521.546 1254.21 518.108 Q1251.92 514.653 1251.92 508.108 Q1251.92 501.546 1254.21 498.108 Q1256.52 494.653 1260.88 494.653 Z" fill="#000000" fill-rule="nonzero" fill-opacity="1" /><path clip-path="url(#clip450)" d="M1276 516.632 L1279.66 516.632 L1279.66 521.042 L1276 521.042 L1276 516.632 Z" fill="#000000" fill-rule="nonzero" fill-opacity="1" /><path clip-path="url(#clip450)" d="M1294.8 497.431 Q1292.09 497.431 1290.72 500.105 Q1289.37 502.761 1289.37 508.108 Q1289.37 513.438 1290.72 516.112 Q1292.09 518.768 1294.8 518.768 Q1297.53 518.768 1298.88 516.112 Q1300.25 513.438 1300.25 508.108 Q1300.25 502.761 1298.88 500.105 Q1297.53 497.431 1294.8 497.431 M1294.8 494.653 Q1299.16 494.653 1301.45 498.108 Q1303.76 501.546 1303.76 508.108 Q1303.76 514.653 1301.45 518.108 Q1299.16 521.546 1294.8 521.546 Q1290.45 521.546 1288.14 518.108 Q1285.84 514.653 1285.84 508.108 Q1285.84 501.546 1288.14 498.108 Q1290.45 494.653 1294.8 494.653 Z" fill="#000000" fill-rule="nonzero" fill-opacity="1" /><path clip-path="url(#clip450)" d="M1309.96 495.122 L1323.73 495.122 L1323.73 498.073 L1313.17 498.073 L1313.17 504.428 Q1313.93 504.167 1314.7 504.046 Q1315.46 503.907 1316.23 503.907 Q1320.57 503.907 1323.1 506.285 Q1325.64 508.664 1325.64 512.726 Q1325.64 516.91 1323.03 519.237 Q1320.43 521.546 1315.69 521.546 Q1314.06 521.546 1312.35 521.268 Q1310.67 520.99 1308.87 520.434 L1308.87 516.91 Q1310.43 517.761 1312.09 518.178 Q1313.76 518.594 1315.62 518.594 Q1318.62 518.594 1320.38 517.014 Q1322.13 515.435 1322.13 512.726 Q1322.13 510.018 1320.38 508.438 Q1318.62 506.858 1315.62 506.858 Q1314.21 506.858 1312.81 507.171 Q1311.42 507.483 1309.96 508.143 L1309.96 495.122 Z" fill="#000000" fill-rule="nonzero" fill-opacity="1" /><path clip-path="url(#clip450)" d="M1260.13 354.235 Q1257.42 354.235 1256.05 356.908 Q1254.7 359.565 1254.7 364.912 Q1254.7 370.242 1256.05 372.915 Q1257.42 375.572 1260.13 375.572 Q1262.86 375.572 1264.21 372.915 Q1265.58 370.242 1265.58 364.912 Q1265.58 359.565 1264.21 356.908 Q1262.86 354.235 1260.13 354.235 M1260.13 351.457 Q1264.49 351.457 1266.78 354.912 Q1269.09 358.349 1269.09 364.912 Q1269.09 371.457 1266.78 374.912 Q1264.49 378.349 1260.13 378.349 Q1255.78 378.349 1253.47 374.912 Q1251.17 371.457 1251.17 364.912 Q1251.17 358.349 1253.47 354.912 Q1255.78 351.457 1260.13 351.457 Z" fill="#000000" fill-rule="nonzero" fill-opacity="1" /><path clip-path="url(#clip450)" d="M1275.25 373.436 L1278.92 373.436 L1278.92 377.846 L1275.25 377.846 L1275.25 373.436 Z" fill="#000000" fill-rule="nonzero" fill-opacity="1" /><path clip-path="url(#clip450)" d="M1287.16 374.894 L1292.89 374.894 L1292.89 355.12 L1286.66 356.37 L1286.66 353.176 L1292.86 351.926 L1296.37 351.926 L1296.37 374.894 L1302.09 374.894 L1302.09 377.846 L1287.16 377.846 L1287.16 374.894 Z" fill="#000000" fill-rule="nonzero" fill-opacity="1" /><path clip-path="url(#clip450)" d="M1316.68 354.235 Q1313.97 354.235 1312.6 356.908 Q1311.24 359.565 1311.24 364.912 Q1311.24 370.242 1312.6 372.915 Q1313.97 375.572 1316.68 375.572 Q1319.4 375.572 1320.76 372.915 Q1322.13 370.242 1322.13 364.912 Q1322.13 359.565 1320.76 356.908 Q1319.4 354.235 1316.68 354.235 M1316.68 351.457 Q1321.04 351.457 1323.33 354.912 Q1325.64 358.349 1325.64 364.912 Q1325.64 371.457 1323.33 374.912 Q1321.04 378.349 1316.68 378.349 Q1312.32 378.349 1310.01 374.912 Q1307.72 371.457 1307.72 364.912 Q1307.72 358.349 1310.01 354.912 Q1312.32 351.457 1316.68 351.457 Z" fill="#000000" fill-rule="nonzero" fill-opacity="1" /><path clip-path="url(#clip450)" d="M1260.88 211.039 Q1258.17 211.039 1256.8 213.712 Q1255.45 216.368 1255.45 221.716 Q1255.45 227.045 1256.8 229.719 Q1258.17 232.375 1260.88 232.375 Q1263.6 232.375 1264.96 229.719 Q1266.33 227.045 1266.33 221.716 Q1266.33 216.368 1264.96 213.712 Q1263.6 211.039 1260.88 211.039 M1260.88 208.261 Q1265.24 208.261 1267.53 211.716 Q1269.84 215.153 1269.84 221.716 Q1269.84 228.261 1267.53 231.715 Q1265.24 235.153 1260.88 235.153 Q1256.52 235.153 1254.21 231.715 Q1251.92 228.261 1251.92 221.716 Q1251.92 215.153 1254.21 211.716 Q1256.52 208.261 1260.88 208.261 Z" fill="#000000" fill-rule="nonzero" fill-opacity="1" /><path clip-path="url(#clip450)" d="M1276 230.24 L1279.66 230.24 L1279.66 234.649 L1276 234.649 L1276 230.24 Z" fill="#000000" fill-rule="nonzero" fill-opacity="1" /><path clip-path="url(#clip450)" d="M1287.91 231.698 L1293.64 231.698 L1293.64 211.924 L1287.41 213.174 L1287.41 209.979 L1293.6 208.729 L1297.11 208.729 L1297.11 231.698 L1302.84 231.698 L1302.84 234.649 L1287.91 234.649 L1287.91 231.698 Z" fill="#000000" fill-rule="nonzero" fill-opacity="1" /><path clip-path="url(#clip450)" d="M1309.96 208.729 L1323.73 208.729 L1323.73 211.681 L1313.17 211.681 L1313.17 218.035 Q1313.93 217.775 1314.7 217.653 Q1315.46 217.514 1316.23 217.514 Q1320.57 217.514 1323.1 219.893 Q1325.64 222.271 1325.64 226.334 Q1325.64 230.518 1323.03 232.844 Q1320.43 235.153 1315.69 235.153 Q1314.06 235.153 1312.35 234.875 Q1310.67 234.597 1308.87 234.042 L1308.87 230.518 Q1310.43 231.368 1312.09 231.785 Q1313.76 232.202 1315.62 232.202 Q1318.62 232.202 1320.38 230.622 Q1322.13 229.042 1322.13 226.334 Q1322.13 223.625 1320.38 222.045 Q1318.62 220.466 1315.62 220.466 Q1314.21 220.466 1312.81 220.778 Q1311.42 221.091 1309.96 221.75 L1309.96 208.729 Z" fill="#000000" fill-rule="nonzero" fill-opacity="1" /><path clip-path="url(#clip450)" d="M1373.53 18.9258 Q1370.02 18.9258 1368.12 21.4721 Q1366.13 24.1341 1366.13 28.5323 Q1366.13 33.185 1368.09 35.8702 Q1370.08 38.5322 1373.53 38.5322 Q1376.94 38.5322 1378.93 35.847 Q1380.92 33.1619 1380.92 28.5323 Q1380.92 24.2962 1378.93 21.4721 Q1377.1 18.9258 1373.53 18.9258 M1373.53 15.5462 L1387.68 15.5462 L1387.68 19.8054 L1382.91 19.8054 Q1385.43 23.4165 1385.43 28.5323 Q1385.43 34.898 1382.26 38.5091 Q1379.09 42.1433 1373.53 42.1433 Q1367.96 42.1433 1364.81 38.5091 Q1361.64 34.898 1361.64 28.5323 Q1361.64 22.1203 1364.81 18.5323 Q1367.42 15.5462 1373.53 15.5462 Z" fill="#000000" fill-rule="nonzero" fill-opacity="1" /><path clip-path="url(#clip450)" d="M1411.84 19.6666 Q1410.99 19.3656 1410.13 19.1342 Q1407.84 18.5323 1405.39 18.5323 Q1401.15 18.5323 1398.79 20.824 Q1396.59 22.9536 1396.17 26.8656 L1411.84 26.8656 L1411.84 30.1989 L1396.17 30.1989 Q1396.59 34.1109 1398.79 36.2405 Q1401.15 38.5322 1405.39 38.5322 Q1408.35 38.5322 1410.13 37.9304 L1411.84 37.3517 L1411.84 41.2174 L1410.02 41.634 Q1407.61 42.1433 1405.13 42.1433 Q1398.93 42.1433 1395.32 38.5322 Q1391.68 34.9211 1391.68 28.5323 Q1391.68 22.1434 1395.32 18.5323 Q1398.93 14.9212 1405.13 14.9212 Q1407.47 14.9212 1410.02 15.4305 Q1410.94 15.6157 1411.84 15.8934 L1411.84 19.6666 Z" fill="#000000" fill-rule="nonzero" fill-opacity="1" /><polyline clip-path="url(#clip453)" style="stroke:#009af9; stroke-linecap:round; stroke-linejoin:round; stroke-width:4; stroke-opacity:1; fill:none" points="1389.69,164.867 1448.13,222.869 1506.56,281.671 1565,341.273 1623.44,401.674 1681.88,462.876 1740.32,524.877 1798.76,587.678 1857.2,651.278 1915.63,586.878 1974.07,521.678 2032.51,455.678 2090.95,388.878 2149.39,321.278 2207.83,252.878 2266.27,183.679 2324.71,113.68 "/>
<circle clip-path="url(#clip453)" cx="1857.2" cy="651.278" r="10.8" fill="#ff0000" fill-rule="evenodd" fill-opacity="1" stroke="#000000" stroke-opacity="1" stroke-width="3.2"/>
<path clip-path="url(#clip450)" d="M161.818 1467.41 L1152.94 1467.41 L1152.94 897.552 L161.818 897.552  Z" fill="#ffffff" fill-rule="evenodd" fill-opacity="1"/>
<defs>
  <clipPath id="clip454">
    <rect x="161" y="897" width="992" height="571"/>
  </clipPath>
</defs>
<polyline clip-path="url(#clip454)" style="stroke:#000000; stroke-linecap:round; stroke-linejoin:round; stroke-width:2; stroke-opacity:0.1; fill:none" points="292.258,1467.41 292.258,897.552 "/>
<polyline clip-path="url(#clip454)" style="stroke:#000000; stroke-linecap:round; stroke-linejoin:round; stroke-width:2; stroke-opacity:0.1; fill:none" points="464.657,1467.41 464.657,897.552 "/>
<polyline clip-path="url(#clip454)" style="stroke:#000000; stroke-linecap:round; stroke-linejoin:round; stroke-width:2; stroke-opacity:0.1; fill:none" points="637.056,1467.41 637.056,897.552 "/>
<polyline clip-path="url(#clip454)" style="stroke:#000000; stroke-linecap:round; stroke-linejoin:round; stroke-width:2; stroke-opacity:0.1; fill:none" points="809.455,1467.41 809.455,897.552 "/>
<polyline clip-path="url(#clip454)" style="stroke:#000000; stroke-linecap:round; stroke-linejoin:round; stroke-width:2; stroke-opacity:0.1; fill:none" points="981.854,1467.41 981.854,897.552 "/>
<polyline clip-path="url(#clip454)" style="stroke:#000000; stroke-linecap:round; stroke-linejoin:round; stroke-width:2; stroke-opacity:0.1; fill:none" points="161.818,1451.28 1152.94,1451.28 "/>
<polyline clip-path="url(#clip454)" style="stroke:#000000; stroke-linecap:round; stroke-linejoin:round; stroke-width:2; stroke-opacity:0.1; fill:none" points="161.818,1330.96 1152.94,1330.96 "/>
<polyline clip-path="url(#clip454)" style="stroke:#000000; stroke-linecap:round; stroke-linejoin:round; stroke-width:2; stroke-opacity:0.1; fill:none" points="161.818,1210.64 1152.94,1210.64 "/>
<polyline clip-path="url(#clip454)" style="stroke:#000000; stroke-linecap:round; stroke-linejoin:round; stroke-width:2; stroke-opacity:0.1; fill:none" points="161.818,1090.32 1152.94,1090.32 "/>
<polyline clip-path="url(#clip454)" style="stroke:#000000; stroke-linecap:round; stroke-linejoin:round; stroke-width:2; stroke-opacity:0.1; fill:none" points="161.818,970.002 1152.94,970.002 "/>
<polyline clip-path="url(#clip450)" style="stroke:#000000; stroke-linecap:round; stroke-linejoin:round; stroke-width:4; stroke-opacity:1; fill:none" points="161.818,1467.41 1152.94,1467.41 "/>
<polyline clip-path="url(#clip450)" style="stroke:#000000; stroke-linecap:round; stroke-linejoin:round; stroke-width:4; stroke-opacity:1; fill:none" points="292.258,1467.41 292.258,1448.51 "/>
<polyline clip-path="url(#clip450)" style="stroke:#000000; stroke-linecap:round; stroke-linejoin:round; stroke-width:4; stroke-opacity:1; fill:none" points="464.657,1467.41 464.657,1448.51 "/>
<polyline clip-path="url(#clip450)" style="stroke:#000000; stroke-linecap:round; stroke-linejoin:round; stroke-width:4; stroke-opacity:1; fill:none" points="637.056,1467.41 637.056,1448.51 "/>
<polyline clip-path="url(#clip450)" style="stroke:#000000; stroke-linecap:round; stroke-linejoin:round; stroke-width:4; stroke-opacity:1; fill:none" points="809.455,1467.41 809.455,1448.51 "/>
<polyline clip-path="url(#clip450)" style="stroke:#000000; stroke-linecap:round; stroke-linejoin:round; stroke-width:4; stroke-opacity:1; fill:none" points="981.854,1467.41 981.854,1448.51 "/>
<path clip-path="url(#clip450)" d="M238.409 1539.14 Q236.494 1541.05 237.414 1543.91 Q238.335 1546.75 242.116 1550.53 Q245.885 1554.3 248.733 1555.23 Q251.581 1556.14 253.496 1554.23 Q255.423 1552.3 254.503 1549.46 Q253.582 1546.6 249.813 1542.83 Q246.032 1539.05 243.184 1538.14 Q240.336 1537.21 238.409 1539.14 M236.445 1537.17 Q239.526 1534.09 243.589 1534.92 Q247.653 1535.71 252.293 1540.35 Q256.921 1544.98 257.731 1549.06 Q258.542 1553.11 255.46 1556.19 Q252.379 1559.27 248.316 1558.47 Q244.252 1557.65 239.624 1553.02 Q234.984 1548.38 234.173 1544.33 Q233.363 1540.26 236.445 1537.17 Z" fill="#000000" fill-rule="nonzero" fill-opacity="1" /><path clip-path="url(#clip450)" d="M262.679 1542.02 L265.269 1539.43 L268.387 1542.55 L265.797 1545.14 L262.679 1542.02 Z" fill="#000000" fill-rule="nonzero" fill-opacity="1" /><path clip-path="url(#clip450)" d="M255.485 1518.8 L265.22 1509.06 L267.307 1511.15 L259.843 1518.61 L264.336 1523.11 Q264.692 1522.38 265.146 1521.76 Q265.588 1521.12 266.128 1520.58 Q269.197 1517.51 272.671 1517.4 Q276.145 1517.29 279.018 1520.16 Q281.977 1523.12 281.78 1526.6 Q281.571 1530.08 278.22 1533.43 Q277.066 1534.58 275.667 1535.59 Q274.279 1536.59 272.61 1537.47 L270.118 1534.98 Q271.824 1534.47 273.297 1533.59 Q274.771 1532.71 276.084 1531.39 Q278.208 1529.27 278.331 1526.91 Q278.453 1524.55 276.538 1522.64 Q274.623 1520.72 272.266 1520.85 Q269.909 1520.97 267.785 1523.09 Q266.791 1524.09 266.018 1525.3 Q265.257 1526.51 264.692 1528 L255.485 1518.8 Z" fill="#000000" fill-rule="nonzero" fill-opacity="1" /><path clip-path="url(#clip450)" d="M278.392 1499.16 Q276.477 1501.07 277.398 1503.93 Q278.318 1506.77 282.099 1510.55 Q285.868 1514.32 288.716 1515.25 Q291.564 1516.16 293.479 1514.24 Q295.407 1512.32 294.486 1509.48 Q293.565 1506.62 289.796 1502.85 Q286.015 1499.07 283.167 1498.16 Q280.319 1497.23 278.392 1499.16 M276.428 1497.19 Q279.509 1494.11 283.572 1494.93 Q287.636 1495.73 292.276 1500.37 Q296.904 1505 297.715 1509.07 Q298.525 1513.13 295.443 1516.21 Q292.362 1519.29 288.299 1518.49 Q284.235 1517.67 279.607 1513.04 Q274.967 1508.4 274.157 1504.35 Q273.346 1500.27 276.428 1497.19 Z" fill="#000000" fill-rule="nonzero" fill-opacity="1" /><path clip-path="url(#clip450)" d="M411.655 1538.29 Q409.74 1540.21 410.66 1543.07 Q411.581 1545.9 415.362 1549.68 Q419.131 1553.45 421.979 1554.39 Q424.827 1555.29 426.742 1553.38 Q428.669 1551.45 427.749 1548.62 Q426.828 1545.76 423.059 1541.99 Q419.278 1538.21 416.43 1537.3 Q413.582 1536.36 411.655 1538.29 M409.691 1536.33 Q412.772 1533.25 416.835 1534.07 Q420.899 1534.87 425.539 1539.51 Q430.167 1544.14 430.977 1548.21 Q431.788 1552.26 428.706 1555.34 Q425.625 1558.42 421.562 1557.63 Q417.498 1556.8 412.87 1552.18 Q408.23 1547.54 407.419 1543.48 Q406.609 1539.41 409.691 1536.33 Z" fill="#000000" fill-rule="nonzero" fill-opacity="1" /><path clip-path="url(#clip450)" d="M435.925 1541.18 L438.515 1538.59 L441.633 1541.7 L439.043 1544.29 L435.925 1541.18 Z" fill="#000000" fill-rule="nonzero" fill-opacity="1" /><path clip-path="url(#clip450)" d="M428.731 1517.95 L438.466 1508.22 L440.553 1510.3 L433.089 1517.77 L437.582 1522.26 Q437.938 1521.53 438.392 1520.91 Q438.834 1520.27 439.374 1519.73 Q442.443 1516.66 445.917 1516.55 Q449.391 1516.44 452.264 1519.31 Q455.223 1522.27 455.026 1525.76 Q454.817 1529.23 451.466 1532.58 Q450.312 1533.74 448.913 1534.74 Q447.525 1535.74 445.856 1536.62 L443.364 1534.13 Q445.07 1533.63 446.543 1532.74 Q448.017 1531.86 449.33 1530.55 Q451.454 1528.42 451.577 1526.06 Q451.699 1523.71 449.784 1521.79 Q447.869 1519.88 445.512 1520 Q443.155 1520.12 441.031 1522.25 Q440.037 1523.24 439.264 1524.46 Q438.503 1525.66 437.938 1527.16 L428.731 1517.95 Z" fill="#000000" fill-rule="nonzero" fill-opacity="1" /><path clip-path="url(#clip450)" d="M463.079 1516.08 L471.734 1507.43 L473.821 1509.52 L462.183 1521.15 L460.096 1519.07 Q460.047 1516.19 460.023 1511.31 Q459.998 1506.4 459.912 1505.06 Q459.765 1502.53 459.311 1501.14 Q458.856 1499.73 457.96 1498.84 Q456.499 1497.38 454.547 1497.49 Q452.608 1497.58 450.963 1499.23 Q449.797 1500.4 448.9 1502.1 Q448.017 1503.8 447.366 1506.09 L444.862 1503.59 Q445.758 1501.49 446.752 1499.88 Q447.746 1498.27 448.827 1497.19 Q451.675 1494.34 454.793 1494.07 Q457.911 1493.8 460.293 1496.18 Q461.422 1497.31 462.011 1498.76 Q462.601 1500.19 462.858 1502.68 Q462.907 1503.34 462.969 1506.69 Q463.018 1510.03 463.079 1516.08 Z" fill="#000000" fill-rule="nonzero" fill-opacity="1" /><path clip-path="url(#clip450)" d="M582.949 1539.4 Q581.034 1541.31 581.955 1544.17 Q582.875 1547.01 586.656 1550.79 Q590.425 1554.56 593.273 1555.49 Q596.121 1556.4 598.036 1554.48 Q599.964 1552.56 599.043 1549.72 Q598.122 1546.86 594.353 1543.09 Q590.572 1539.31 587.724 1538.4 Q584.876 1537.47 582.949 1539.4 M580.985 1537.43 Q584.066 1534.35 588.129 1535.17 Q592.193 1535.97 596.833 1540.61 Q601.461 1545.24 602.271 1549.32 Q603.082 1553.37 600 1556.45 Q596.919 1559.53 592.856 1558.73 Q588.792 1557.91 584.164 1553.28 Q579.524 1548.64 578.714 1544.59 Q577.903 1540.51 580.985 1537.43 Z" fill="#000000" fill-rule="nonzero" fill-opacity="1" /><path clip-path="url(#clip450)" d="M607.219 1542.28 L609.809 1539.69 L612.927 1542.81 L610.337 1545.4 L607.219 1542.28 Z" fill="#000000" fill-rule="nonzero" fill-opacity="1" /><path clip-path="url(#clip450)" d="M600.025 1519.06 L609.76 1509.32 L611.847 1511.41 L604.383 1518.87 L608.876 1523.36 Q609.232 1522.64 609.686 1522.01 Q610.128 1521.38 610.668 1520.84 Q613.737 1517.77 617.211 1517.66 Q620.686 1517.55 623.558 1520.42 Q626.517 1523.38 626.32 1526.86 Q626.112 1530.34 622.76 1533.69 Q621.606 1534.84 620.207 1535.85 Q618.82 1536.84 617.15 1537.73 L614.658 1535.24 Q616.364 1534.73 617.838 1533.85 Q619.311 1532.96 620.624 1531.65 Q622.748 1529.53 622.871 1527.17 Q622.993 1524.81 621.078 1522.9 Q619.163 1520.98 616.806 1521.11 Q614.449 1521.23 612.326 1523.35 Q611.331 1524.35 610.558 1525.56 Q609.797 1526.76 609.232 1528.26 L600.025 1519.06 Z" fill="#000000" fill-rule="nonzero" fill-opacity="1" /><path clip-path="url(#clip450)" d="M624.97 1498.43 L628.493 1514.48 L634.754 1508.22 L624.97 1498.43 M622.159 1496.92 L625.277 1493.8 L637.221 1505.75 L639.836 1503.13 L641.899 1505.2 L639.284 1507.81 L643.605 1512.13 L641.138 1514.6 L636.816 1510.28 L628.542 1518.55 L626.148 1516.16 L622.159 1496.92 Z" fill="#000000" fill-rule="nonzero" fill-opacity="1" /><path clip-path="url(#clip450)" d="M755.52 1539.22 Q753.605 1541.14 754.525 1544 Q755.446 1546.84 759.227 1550.62 Q762.996 1554.39 765.844 1555.32 Q768.692 1556.23 770.607 1554.31 Q772.534 1552.38 771.614 1549.55 Q770.693 1546.69 766.924 1542.92 Q763.143 1539.14 760.295 1538.23 Q757.447 1537.3 755.52 1539.22 M753.556 1537.26 Q756.637 1534.18 760.7 1535 Q764.764 1535.8 769.404 1540.44 Q774.032 1545.07 774.842 1549.14 Q775.653 1553.19 772.571 1556.28 Q769.49 1559.36 765.427 1558.56 Q761.363 1557.74 756.735 1553.11 Q752.095 1548.47 751.284 1544.42 Q750.474 1540.34 753.556 1537.26 Z" fill="#000000" fill-rule="nonzero" fill-opacity="1" /><path clip-path="url(#clip450)" d="M779.79 1542.11 L782.38 1539.52 L785.498 1542.64 L782.908 1545.23 L779.79 1542.11 Z" fill="#000000" fill-rule="nonzero" fill-opacity="1" /><path clip-path="url(#clip450)" d="M772.596 1518.88 L782.331 1509.15 L784.418 1511.24 L776.954 1518.7 L781.447 1523.19 Q781.803 1522.47 782.257 1521.84 Q782.699 1521.2 783.239 1520.66 Q786.308 1517.59 789.782 1517.48 Q793.256 1517.37 796.129 1520.25 Q799.088 1523.2 798.891 1526.69 Q798.682 1530.17 795.331 1533.52 Q794.177 1534.67 792.778 1535.68 Q791.39 1536.67 789.721 1537.56 L787.229 1535.06 Q788.935 1534.56 790.408 1533.68 Q791.881 1532.79 793.195 1531.48 Q795.319 1529.35 795.442 1527 Q795.564 1524.64 793.649 1522.73 Q791.734 1520.81 789.377 1520.93 Q787.02 1521.06 784.896 1523.18 Q783.902 1524.17 783.129 1525.39 Q782.368 1526.59 781.803 1528.09 L772.596 1518.88 Z" fill="#000000" fill-rule="nonzero" fill-opacity="1" /><path clip-path="url(#clip450)" d="M802.353 1505.48 Q800.683 1507.15 800.843 1509.27 Q801.015 1511.38 803.004 1513.37 Q804.98 1515.35 807.104 1515.53 Q809.228 1515.69 810.897 1514.02 Q812.567 1512.35 812.395 1510.24 Q812.223 1508.1 810.247 1506.13 Q808.258 1504.14 806.134 1503.98 Q804.023 1503.81 802.353 1505.48 M799.505 1492.78 L801.764 1495.04 Q800.389 1495.53 799.198 1496.26 Q798.02 1496.97 797.087 1497.9 Q794.631 1500.36 794.987 1503.32 Q795.356 1506.26 798.523 1509.8 Q798.179 1508.01 798.707 1506.35 Q799.223 1504.68 800.536 1503.37 Q803.298 1500.6 806.576 1500.69 Q809.854 1500.75 812.739 1503.64 Q815.562 1506.46 815.599 1509.84 Q815.636 1513.21 812.861 1515.99 Q809.682 1519.17 805.569 1518.42 Q801.445 1517.66 796.816 1513.03 Q792.471 1508.68 791.955 1504.04 Q791.427 1499.39 794.901 1495.91 Q795.834 1494.98 796.964 1494.22 Q798.105 1493.45 799.505 1492.78 Z" fill="#000000" fill-rule="nonzero" fill-opacity="1" /><path clip-path="url(#clip450)" d="M928.054 1539.09 Q926.139 1541 927.059 1543.87 Q927.98 1546.7 931.761 1550.48 Q935.53 1554.25 938.378 1555.18 Q941.226 1556.09 943.141 1554.18 Q945.068 1552.25 944.148 1549.41 Q943.227 1546.55 939.458 1542.78 Q935.677 1539 932.829 1538.1 Q929.981 1537.16 928.054 1539.09 M926.09 1537.13 Q929.171 1534.04 933.234 1534.87 Q937.298 1535.66 941.938 1540.31 Q946.566 1544.93 947.376 1549.01 Q948.187 1553.06 945.105 1556.14 Q942.024 1559.22 937.961 1558.42 Q933.897 1557.6 929.269 1552.97 Q924.629 1548.33 923.818 1544.28 Q923.008 1540.21 926.09 1537.13 Z" fill="#000000" fill-rule="nonzero" fill-opacity="1" /><path clip-path="url(#clip450)" d="M952.324 1541.97 L954.914 1539.38 L958.032 1542.5 L955.442 1545.09 L952.324 1541.97 Z" fill="#000000" fill-rule="nonzero" fill-opacity="1" /><path clip-path="url(#clip450)" d="M945.13 1518.75 L954.865 1509.01 L956.952 1511.1 L949.488 1518.56 L953.981 1523.06 Q954.337 1522.33 954.791 1521.71 Q955.233 1521.07 955.773 1520.53 Q958.842 1517.46 962.316 1517.35 Q965.79 1517.24 968.663 1520.11 Q971.622 1523.07 971.425 1526.56 Q971.216 1530.03 967.865 1533.38 Q966.711 1534.54 965.312 1535.54 Q963.924 1536.54 962.255 1537.42 L959.763 1534.93 Q961.469 1534.42 962.942 1533.54 Q964.416 1532.66 965.729 1531.34 Q967.853 1529.22 967.976 1526.86 Q968.098 1524.51 966.183 1522.59 Q964.268 1520.68 961.911 1520.8 Q959.554 1520.92 957.43 1523.04 Q956.436 1524.04 955.663 1525.25 Q954.902 1526.46 954.337 1527.96 L945.13 1518.75 Z" fill="#000000" fill-rule="nonzero" fill-opacity="1" /><path clip-path="url(#clip450)" d="M976.029 1507.1 Q974.261 1508.87 974.187 1510.83 Q974.126 1512.78 975.783 1514.44 Q977.44 1516.1 979.392 1516.04 Q981.357 1515.96 983.124 1514.19 Q984.892 1512.43 984.966 1510.46 Q985.027 1508.49 983.382 1506.84 Q981.725 1505.18 979.761 1505.26 Q977.809 1505.32 976.029 1507.1 M972.493 1508.52 Q970.504 1509.73 968.516 1509.53 Q966.539 1509.32 964.968 1507.75 Q962.771 1505.55 963.053 1502.72 Q963.347 1499.87 966.073 1497.14 Q968.81 1494.4 971.646 1494.12 Q974.482 1493.84 976.679 1496.04 Q978.251 1497.61 978.447 1499.6 Q978.656 1501.57 977.465 1503.55 Q979.675 1502.18 981.884 1502.4 Q984.106 1502.61 985.862 1504.36 Q988.526 1507.02 988.317 1510.08 Q988.121 1513.13 985.088 1516.16 Q982.056 1519.19 979 1519.4 Q975.955 1519.6 973.291 1516.93 Q971.536 1515.18 971.327 1512.95 Q971.118 1510.73 972.493 1508.52 M967.669 1505.51 Q969.093 1506.94 970.775 1506.85 Q972.469 1506.75 974.077 1505.15 Q975.673 1503.55 975.771 1501.86 Q975.881 1500.15 974.457 1498.73 Q973.033 1497.3 971.327 1497.41 Q969.633 1497.51 968.037 1499.11 Q966.429 1500.71 966.331 1502.41 Q966.245 1504.09 967.669 1505.51 Z" fill="#000000" fill-rule="nonzero" fill-opacity="1" /><polyline clip-path="url(#clip450)" style="stroke:#000000; stroke-linecap:round; stroke-linejoin:round; stroke-width:4; stroke-opacity:1; fill:none" points="161.818,1467.41 161.818,897.552 "/>
<polyline clip-path="url(#clip450)" style="stroke:#000000; stroke-linecap:round; stroke-linejoin:round; stroke-width:4; stroke-opacity:1; fill:none" points="161.818,1451.28 180.716,1451.28 "/>
<polyline clip-path="url(#clip450)" style="stroke:#000000; stroke-linecap:round; stroke-linejoin:round; stroke-width:4; stroke-opacity:1; fill:none" points="161.818,1330.96 180.716,1330.96 "/>
<polyline clip-path="url(#clip450)" style="stroke:#000000; stroke-linecap:round; stroke-linejoin:round; stroke-width:4; stroke-opacity:1; fill:none" points="161.818,1210.64 180.716,1210.64 "/>
<polyline clip-path="url(#clip450)" style="stroke:#000000; stroke-linecap:round; stroke-linejoin:round; stroke-width:4; stroke-opacity:1; fill:none" points="161.818,1090.32 180.716,1090.32 "/>
<polyline clip-path="url(#clip450)" style="stroke:#000000; stroke-linecap:round; stroke-linejoin:round; stroke-width:4; stroke-opacity:1; fill:none" points="161.818,970.002 180.716,970.002 "/>
<path clip-path="url(#clip450)" d="M60.315 1440.63 Q57.6067 1440.63 56.2352 1443.3 Q54.881 1445.96 54.881 1451.3 Q54.881 1456.63 56.2352 1459.31 Q57.6067 1461.96 60.315 1461.96 Q63.0407 1461.96 64.3948 1459.31 Q65.7664 1456.63 65.7664 1451.3 Q65.7664 1445.96 64.3948 1443.3 Q63.0407 1440.63 60.315 1440.63 M60.315 1437.85 Q64.6726 1437.85 66.9643 1441.3 Q69.2733 1444.74 69.2733 1451.3 Q69.2733 1457.85 66.9643 1461.3 Q64.6726 1464.74 60.315 1464.74 Q55.9574 1464.74 53.6484 1461.3 Q51.3567 1457.85 51.3567 1451.3 Q51.3567 1444.74 53.6484 1441.3 Q55.9574 1437.85 60.315 1437.85 Z" fill="#000000" fill-rule="nonzero" fill-opacity="1" /><path clip-path="url(#clip450)" d="M75.4364 1459.83 L79.0996 1459.83 L79.0996 1464.24 L75.4364 1464.24 L75.4364 1459.83 Z" fill="#000000" fill-rule="nonzero" fill-opacity="1" /><path clip-path="url(#clip450)" d="M94.2384 1440.63 Q91.5301 1440.63 90.1586 1443.3 Q88.8044 1445.96 88.8044 1451.3 Q88.8044 1456.63 90.1586 1459.31 Q91.5301 1461.96 94.2384 1461.96 Q96.9641 1461.96 98.3183 1459.31 Q99.6898 1456.63 99.6898 1451.3 Q99.6898 1445.96 98.3183 1443.3 Q96.9641 1440.63 94.2384 1440.63 M94.2384 1437.85 Q98.596 1437.85 100.888 1441.3 Q103.197 1444.74 103.197 1451.3 Q103.197 1457.85 100.888 1461.3 Q98.596 1464.74 94.2384 1464.74 Q89.8808 1464.74 87.5718 1461.3 Q85.2801 1457.85 85.2801 1451.3 Q85.2801 1444.74 87.5718 1441.3 Q89.8808 1437.85 94.2384 1437.85 Z" fill="#000000" fill-rule="nonzero" fill-opacity="1" /><path clip-path="url(#clip450)" d="M116.86 1440.63 Q114.152 1440.63 112.78 1443.3 Q111.426 1445.96 111.426 1451.3 Q111.426 1456.63 112.78 1459.31 Q114.152 1461.96 116.86 1461.96 Q119.586 1461.96 120.94 1459.31 Q122.311 1456.63 122.311 1451.3 Q122.311 1445.96 120.94 1443.3 Q119.586 1440.63 116.86 1440.63 M116.86 1437.85 Q121.217 1437.85 123.509 1441.3 Q125.818 1444.74 125.818 1451.3 Q125.818 1457.85 123.509 1461.3 Q121.217 1464.74 116.86 1464.74 Q112.502 1464.74 110.193 1461.3 Q107.902 1457.85 107.902 1451.3 Q107.902 1444.74 110.193 1441.3 Q112.502 1437.85 116.86 1437.85 Z" fill="#000000" fill-rule="nonzero" fill-opacity="1" /><path clip-path="url(#clip450)" d="M61.2351 1320.31 Q58.5268 1320.31 57.1553 1322.98 Q55.8011 1325.64 55.8011 1330.99 Q55.8011 1336.32 57.1553 1338.99 Q58.5268 1341.65 61.2351 1341.65 Q63.9608 1341.65 65.315 1338.99 Q66.6865 1336.32 66.6865 1330.99 Q66.6865 1325.64 65.315 1322.98 Q63.9608 1320.31 61.2351 1320.31 M61.2351 1317.53 Q65.5927 1317.53 67.8844 1320.99 Q70.1934 1324.42 70.1934 1330.99 Q70.1934 1337.53 67.8844 1340.99 Q65.5927 1344.42 61.2351 1344.42 Q56.8775 1344.42 54.5685 1340.99 Q52.2768 1337.53 52.2768 1330.99 Q52.2768 1324.42 54.5685 1320.99 Q56.8775 1317.53 61.2351 1317.53 Z" fill="#000000" fill-rule="nonzero" fill-opacity="1" /><path clip-path="url(#clip450)" d="M76.3566 1339.51 L80.0197 1339.51 L80.0197 1343.92 L76.3566 1343.92 L76.3566 1339.51 Z" fill="#000000" fill-rule="nonzero" fill-opacity="1" /><path clip-path="url(#clip450)" d="M95.1586 1320.31 Q92.4502 1320.31 91.0787 1322.98 Q89.7246 1325.64 89.7246 1330.99 Q89.7246 1336.32 91.0787 1338.99 Q92.4502 1341.65 95.1586 1341.65 Q97.8842 1341.65 99.2384 1338.99 Q100.61 1336.32 100.61 1330.99 Q100.61 1325.64 99.2384 1322.98 Q97.8842 1320.31 95.1586 1320.31 M95.1586 1317.53 Q99.5162 1317.53 101.808 1320.99 Q104.117 1324.42 104.117 1330.99 Q104.117 1337.53 101.808 1340.99 Q99.5162 1344.42 95.1586 1344.42 Q90.8009 1344.42 88.4919 1340.99 Q86.2003 1337.53 86.2003 1330.99 Q86.2003 1324.42 88.4919 1320.99 Q90.8009 1317.53 95.1586 1317.53 Z" fill="#000000" fill-rule="nonzero" fill-opacity="1" /><path clip-path="url(#clip450)" d="M110.888 1340.97 L116.617 1340.97 L116.617 1321.19 L110.384 1322.44 L110.384 1319.25 L116.582 1318 L120.089 1318 L120.089 1340.97 L125.818 1340.97 L125.818 1343.92 L110.888 1343.92 L110.888 1340.97 Z" fill="#000000" fill-rule="nonzero" fill-opacity="1" /><path clip-path="url(#clip450)" d="M61.5129 1199.99 Q58.8046 1199.99 57.4331 1202.66 Q56.0789 1205.32 56.0789 1210.67 Q56.0789 1216 57.4331 1218.67 Q58.8046 1221.33 61.5129 1221.33 Q64.2386 1221.33 65.5927 1218.67 Q66.9643 1216 66.9643 1210.67 Q66.9643 1205.32 65.5927 1202.66 Q64.2386 1199.99 61.5129 1199.99 M61.5129 1197.21 Q65.8705 1197.21 68.1622 1200.67 Q70.4712 1204.1 70.4712 1210.67 Q70.4712 1217.21 68.1622 1220.67 Q65.8705 1224.1 61.5129 1224.1 Q57.1553 1224.1 54.8463 1220.67 Q52.5546 1217.21 52.5546 1210.67 Q52.5546 1204.1 54.8463 1200.67 Q57.1553 1197.21 61.5129 1197.21 Z" fill="#000000" fill-rule="nonzero" fill-opacity="1" /><path clip-path="url(#clip450)" d="M76.6343 1219.19 L80.2975 1219.19 L80.2975 1223.6 L76.6343 1223.6 L76.6343 1219.19 Z" fill="#000000" fill-rule="nonzero" fill-opacity="1" /><path clip-path="url(#clip450)" d="M95.4363 1199.99 Q92.728 1199.99 91.3565 1202.66 Q90.0023 1205.32 90.0023 1210.67 Q90.0023 1216 91.3565 1218.67 Q92.728 1221.33 95.4363 1221.33 Q98.162 1221.33 99.5162 1218.67 Q100.888 1216 100.888 1210.67 Q100.888 1205.32 99.5162 1202.66 Q98.162 1199.99 95.4363 1199.99 M95.4363 1197.21 Q99.7939 1197.21 102.086 1200.67 Q104.395 1204.1 104.395 1210.67 Q104.395 1217.21 102.086 1220.67 Q99.7939 1224.1 95.4363 1224.1 Q91.0787 1224.1 88.7697 1220.67 Q86.478 1217.21 86.478 1210.67 Q86.478 1204.1 88.7697 1200.67 Q91.0787 1197.21 95.4363 1197.21 Z" fill="#000000" fill-rule="nonzero" fill-opacity="1" /><path clip-path="url(#clip450)" d="M113.579 1220.65 L125.818 1220.65 L125.818 1223.6 L109.36 1223.6 L109.36 1220.65 Q111.356 1218.58 114.794 1215.11 Q118.249 1211.62 119.134 1210.61 Q120.818 1208.72 121.478 1207.42 Q122.155 1206.1 122.155 1204.83 Q122.155 1202.77 120.697 1201.46 Q119.256 1200.16 116.929 1200.16 Q115.28 1200.16 113.44 1200.74 Q111.617 1201.31 109.533 1202.47 L109.533 1198.93 Q111.652 1198.08 113.492 1197.65 Q115.332 1197.21 116.86 1197.21 Q120.888 1197.21 123.283 1199.23 Q125.679 1201.24 125.679 1204.61 Q125.679 1206.2 125.072 1207.65 Q124.481 1209.07 122.901 1211.01 Q122.467 1211.52 120.141 1213.93 Q117.815 1216.33 113.579 1220.65 Z" fill="#000000" fill-rule="nonzero" fill-opacity="1" /><path clip-path="url(#clip450)" d="M60.8011 1079.67 Q58.0928 1079.67 56.7213 1082.34 Q55.3671 1085 55.3671 1090.35 Q55.3671 1095.68 56.7213 1098.35 Q58.0928 1101.01 60.8011 1101.01 Q63.5268 1101.01 64.8809 1098.35 Q66.2525 1095.68 66.2525 1090.35 Q66.2525 1085 64.8809 1082.34 Q63.5268 1079.67 60.8011 1079.67 M60.8011 1076.89 Q65.1587 1076.89 67.4504 1080.35 Q69.7594 1083.78 69.7594 1090.35 Q69.7594 1096.89 67.4504 1100.35 Q65.1587 1103.78 60.8011 1103.78 Q56.4435 1103.78 54.1345 1100.35 Q51.8428 1096.89 51.8428 1090.35 Q51.8428 1083.78 54.1345 1080.35 Q56.4435 1076.89 60.8011 1076.89 Z" fill="#000000" fill-rule="nonzero" fill-opacity="1" /><path clip-path="url(#clip450)" d="M75.9225 1098.87 L79.5857 1098.87 L79.5857 1103.28 L75.9225 1103.28 L75.9225 1098.87 Z" fill="#000000" fill-rule="nonzero" fill-opacity="1" /><path clip-path="url(#clip450)" d="M94.7245 1079.67 Q92.0162 1079.67 90.6447 1082.34 Q89.2905 1085 89.2905 1090.35 Q89.2905 1095.68 90.6447 1098.35 Q92.0162 1101.01 94.7245 1101.01 Q97.4502 1101.01 98.8044 1098.35 Q100.176 1095.68 100.176 1090.35 Q100.176 1085 98.8044 1082.34 Q97.4502 1079.67 94.7245 1079.67 M94.7245 1076.89 Q99.0821 1076.89 101.374 1080.35 Q103.683 1083.78 103.683 1090.35 Q103.683 1096.89 101.374 1100.35 Q99.0821 1103.78 94.7245 1103.78 Q90.3669 1103.78 88.0579 1100.35 Q85.7662 1096.89 85.7662 1090.35 Q85.7662 1083.78 88.0579 1080.35 Q90.3669 1076.89 94.7245 1076.89 Z" fill="#000000" fill-rule="nonzero" fill-opacity="1" /><path clip-path="url(#clip450)" d="M120.471 1089.31 Q122.988 1089.84 124.395 1091.55 Q125.818 1093.25 125.818 1095.75 Q125.818 1099.58 123.179 1101.68 Q120.54 1103.78 115.679 1103.78 Q114.047 1103.78 112.311 1103.45 Q110.593 1103.14 108.752 1102.5 L108.752 1099.11 Q110.211 1099.97 111.947 1100.4 Q113.683 1100.83 115.575 1100.83 Q118.874 1100.83 120.592 1099.53 Q122.329 1098.23 122.329 1095.75 Q122.329 1093.45 120.714 1092.17 Q119.117 1090.87 116.252 1090.87 L113.231 1090.87 L113.231 1087.99 L116.391 1087.99 Q118.978 1087.99 120.349 1086.96 Q121.721 1085.92 121.721 1083.98 Q121.721 1081.98 120.297 1080.92 Q118.891 1079.84 116.252 1079.84 Q114.811 1079.84 113.162 1080.16 Q111.513 1080.47 109.533 1081.13 L109.533 1078 Q111.53 1077.45 113.266 1077.17 Q115.02 1076.89 116.565 1076.89 Q120.558 1076.89 122.884 1078.72 Q125.21 1080.52 125.21 1083.61 Q125.21 1085.76 123.978 1087.26 Q122.745 1088.73 120.471 1089.31 Z" fill="#000000" fill-rule="nonzero" fill-opacity="1" /><path clip-path="url(#clip450)" d="M59.9504 959.351 Q57.2421 959.351 55.8706 962.025 Q54.5164 964.681 54.5164 970.028 Q54.5164 975.358 55.8706 978.031 Q57.2421 980.688 59.9504 980.688 Q62.6761 980.688 64.0303 978.031 Q65.4018 975.358 65.4018 970.028 Q65.4018 964.681 64.0303 962.025 Q62.6761 959.351 59.9504 959.351 M59.9504 956.573 Q64.308 956.573 66.5997 960.028 Q68.9087 963.466 68.9087 970.028 Q68.9087 976.573 66.5997 980.028 Q64.308 983.465 59.9504 983.465 Q55.5928 983.465 53.2838 980.028 Q50.9921 976.573 50.9921 970.028 Q50.9921 963.466 53.2838 960.028 Q55.5928 956.573 59.9504 956.573 Z" fill="#000000" fill-rule="nonzero" fill-opacity="1" /><path clip-path="url(#clip450)" d="M75.0719 978.552 L78.735 978.552 L78.735 982.962 L75.0719 982.962 L75.0719 978.552 Z" fill="#000000" fill-rule="nonzero" fill-opacity="1" /><path clip-path="url(#clip450)" d="M93.8738 959.351 Q91.1655 959.351 89.794 962.025 Q88.4398 964.681 88.4398 970.028 Q88.4398 975.358 89.794 978.031 Q91.1655 980.688 93.8738 980.688 Q96.5995 980.688 97.9537 978.031 Q99.3252 975.358 99.3252 970.028 Q99.3252 964.681 97.9537 962.025 Q96.5995 959.351 93.8738 959.351 M93.8738 956.573 Q98.2315 956.573 100.523 960.028 Q102.832 963.466 102.832 970.028 Q102.832 976.573 100.523 980.028 Q98.2315 983.465 93.8738 983.465 Q89.5162 983.465 87.2072 980.028 Q84.9156 976.573 84.9156 970.028 Q84.9156 963.466 87.2072 960.028 Q89.5162 956.573 93.8738 956.573 Z" fill="#000000" fill-rule="nonzero" fill-opacity="1" /><path clip-path="url(#clip450)" d="M118.631 960.098 L109.777 973.934 L118.631 973.934 L118.631 960.098 M117.711 957.042 L122.12 957.042 L122.12 973.934 L125.818 973.934 L125.818 976.851 L122.12 976.851 L122.12 982.962 L118.631 982.962 L118.631 976.851 L106.929 976.851 L106.929 973.466 L117.711 957.042 Z" fill="#000000" fill-rule="nonzero" fill-opacity="1" /><path clip-path="url(#clip450)" d="M173.716 818.926 Q170.198 818.926 168.3 821.472 Q166.309 824.134 166.309 828.532 Q166.309 833.185 168.276 835.87 Q170.267 838.532 173.716 838.532 Q177.119 838.532 179.11 835.847 Q181.1 833.162 181.1 828.532 Q181.1 824.296 179.11 821.472 Q177.281 818.926 173.716 818.926 M173.716 815.546 L187.86 815.546 L187.86 819.805 L183.091 819.805 Q185.614 823.417 185.614 828.532 Q185.614 834.898 182.443 838.509 Q179.272 842.143 173.716 842.143 Q168.138 842.143 164.989 838.509 Q161.818 834.898 161.818 828.532 Q161.818 822.12 164.989 818.532 Q167.605 815.546 173.716 815.546 Z" fill="#000000" fill-rule="nonzero" fill-opacity="1" /><path clip-path="url(#clip450)" d="M198.878 841.472 L190.961 815.546 L195.545 815.546 L202.235 837.305 Q205.012 834.435 207.327 830.454 Q209.086 827.467 209.179 824.875 Q209.225 823.648 208.67 821.333 Q208.022 818.579 205.568 815.546 L209.873 815.546 L209.873 815.546 Q211.471 817.606 212.535 820.477 Q213.508 823.116 213.508 824.921 Q213.508 829.458 210.36 833.509 Q206.262 838.787 203.415 841.472 L198.878 841.472 Z" fill="#000000" fill-rule="nonzero" fill-opacity="1" /><polyline clip-path="url(#clip454)" style="stroke:#009af9; stroke-linecap:round; stroke-linejoin:round; stroke-width:4; stroke-opacity:1; fill:none" points="189.869,964.853 248.307,1022.86 306.746,1081.66 365.185,1141.27 423.623,1201.67 482.062,1262.87 540.501,1324.87 598.939,1387.68 657.378,1451.28 715.817,1386.88 774.256,1321.68 832.694,1255.68 891.133,1188.88 949.572,1121.28 1008.01,1052.88 1066.45,983.678 1124.89,913.68 "/>
<circle clip-path="url(#clip454)" cx="657.378" cy="1451.28" r="10.8" fill="#ff0000" fill-rule="evenodd" fill-opacity="1" stroke="#000000" stroke-opacity="1" stroke-width="3.2"/>
</svg>
