<?xml version="1.0" encoding="utf-8"?>
<svg xmlns="http://www.w3.org/2000/svg" xmlns:xlink="http://www.w3.org/1999/xlink" width="650" height="540" viewBox="0 0 2600 2160">
<defs>
  <clipPath id="clip370">
    <rect x="0" y="0" width="2600" height="2160"/>
  </clipPath>
</defs>
<path clip-path="url(#clip370)" d="M0 2160 L2600 2160 L2600 0 L0 0  Z" fill="#ffffff" fill-rule="evenodd" fill-opacity="1"/>
<defs>
  <clipPath id="clip371">
    <rect x="520" y="0" width="1821" height="1821"/>
  </clipPath>
</defs>
<path clip-path="url(#clip370)" d="M176 1939.45 L2552.76 1939.45 L2552.76 47.2441 L176 47.2441  Z" fill="#ffffff" fill-rule="evenodd" fill-opacity="1"/>
<defs>
  <clipPath id="clip372">
    <rect x="175" y="47" width="2378" height="1893"/>
  </clipPath>
</defs>
<polyline clip-path="url(#clip372)" style="stroke:#000000; stroke-linecap:round; stroke-linejoin:round; stroke-width:2; stroke-opacity:0.1; fill:none" points="243.266,1939.45 243.266,47.2441 "/>
<polyline clip-path="url(#clip372)" style="stroke:#000000; stroke-linecap:round; stroke-linejoin:round; stroke-width:2; stroke-opacity:0.1; fill:none" points="1364.38,1939.45 1364.38,47.2441 "/>
<polyline clip-path="url(#clip372)" style="stroke:#000000; stroke-linecap:round; stroke-linejoin:round; stroke-width:2; stroke-opacity:0.1; fill:none" points="2485.49,1939.45 2485.49,47.2441 "/>
<polyline clip-path="url(#clip372)" style="stroke:#000000; stroke-linecap:round; stroke-linejoin:round; stroke-width:2; stroke-opacity:0.1; fill:none" points="176,1885.9 2552.76,1885.9 "/>
<polyline clip-path="url(#clip372)" style="stroke:#000000; stroke-linecap:round; stroke-linejoin:round; stroke-width:2; stroke-opacity:0.1; fill:none" points="176,1439.62 2552.76,1439.62 "/>
<polyline clip-path="url(#clip372)" style="stroke:#000000; stroke-linecap:round; stroke-linejoin:round; stroke-width:2; stroke-opacity:0.1; fill:none" points="176,993.348 2552.76,993.348 "/>
<polyline clip-path="url(#clip372)" style="stroke:#000000; stroke-linecap:round; stroke-linejoin:round; stroke-width:2; stroke-opacity:0.1; fill:none" points="176,547.072 2552.76,547.072 "/>
<polyline clip-path="url(#clip372)" style="stroke:#000000; stroke-linecap:round; stroke-linejoin:round; stroke-width:2; stroke-opacity:0.1; fill:none" points="176,100.797 2552.76,100.797 "/>
<polyline clip-path="url(#clip370)" style="stroke:#000000; stroke-linecap:round; stroke-linejoin:round; stroke-width:4; stroke-opacity:1; fill:none" points="176,1939.45 2552.76,1939.45 "/>
<polyline clip-path="url(#clip370)" style="stroke:#000000; stroke-linecap:round; stroke-linejoin:round; stroke-width:4; stroke-opacity:1; fill:none" points="243.266,1939.45 243.266,1920.55 "/>
<polyline clip-path="url(#clip370)" style="stroke:#000000; stroke-linecap:round; stroke-linejoin:round; stroke-width:4; stroke-opacity:1; fill:none" points="1364.38,1939.45 1364.38,1920.55 "/>
<polyline clip-path="url(#clip370)" style="stroke:#000000; stroke-linecap:round; stroke-linejoin:round; stroke-width:4; stroke-opacity:1; fill:none" points="2485.49,1939.45 2485.49,1920.55 "/>
<path clip-path="url(#clip370)" d="M220.157 1981.17 Q216.965 1984.36 218.499 1989.13 Q220.034 1993.85 226.336 2000.15 Q232.617 2006.44 237.364 2007.99 Q242.11 2009.5 245.302 2006.31 Q248.514 2003.1 246.98 1998.37 Q245.445 1993.61 239.164 1987.33 Q232.862 1981.02 228.116 1979.51 Q223.369 1977.95 220.157 1981.17 M216.883 1977.89 Q222.019 1972.76 228.791 1974.13 Q235.563 1975.46 243.297 1983.19 Q251.011 1990.91 252.361 1997.7 Q253.711 2004.45 248.576 2009.59 Q243.44 2014.72 236.668 2013.39 Q229.896 2012.02 222.182 2004.31 Q214.448 1996.57 213.098 1989.82 Q211.748 1983.03 216.883 1977.89 Z" fill="#000000" fill-rule="nonzero" fill-opacity="1" /><path clip-path="url(#clip370)" d="M1358.58 2012.55 L1365.33 2005.8 L1342.03 1982.5 L1336.15 1991.31 L1332.39 1987.55 L1338.22 1978.77 L1342.35 1974.64 L1369.42 2001.71 L1376.17 1994.96 L1379.65 1998.44 L1362.06 2016.03 L1358.58 2012.55 Z" fill="#000000" fill-rule="nonzero" fill-opacity="1" /><path clip-path="url(#clip370)" d="M2482.86 2009.38 L2497.28 1994.96 L2500.76 1998.44 L2481.37 2017.83 L2477.89 2014.35 Q2477.81 2009.57 2477.77 2001.42 Q2477.72 1993.24 2477.58 1991.01 Q2477.34 1986.79 2476.58 1984.48 Q2475.82 1982.13 2474.33 1980.63 Q2471.89 1978.2 2468.64 1978.38 Q2465.41 1978.55 2462.67 1981.29 Q2460.72 1983.23 2459.23 1986.08 Q2457.76 1988.9 2456.67 1992.73 L2452.5 1988.55 Q2453.99 1985.05 2455.65 1982.37 Q2457.31 1979.69 2459.11 1977.89 Q2463.85 1973.15 2469.05 1972.7 Q2474.25 1972.25 2478.22 1976.22 Q2480.1 1978.1 2481.08 1980.51 Q2482.06 1982.89 2482.49 1987.04 Q2482.57 1988.14 2482.68 1993.73 Q2482.76 1999.29 2482.86 2009.38 Z" fill="#000000" fill-rule="nonzero" fill-opacity="1" /><path clip-path="url(#clip370)" d="M1286.91 2055.75 L1293.93 2055.75 L1293.93 2101.69 L1319.17 2101.69 L1319.17 2107.59 L1286.91 2107.59 L1286.91 2055.75 Z" fill="#000000" fill-rule="nonzero" fill-opacity="1" /><path clip-path="url(#clip370)" d="M1343.93 2088.05 Q1336.18 2088.05 1333.2 2089.82 Q1330.21 2091.59 1330.21 2095.86 Q1330.21 2099.26 1332.43 2101.28 Q1334.69 2103.25 1338.54 2103.25 Q1343.86 2103.25 1347.05 2099.5 Q1350.28 2095.72 1350.28 2089.47 L1350.28 2088.05 L1343.93 2088.05 M1356.67 2085.41 L1356.67 2107.59 L1350.28 2107.59 L1350.28 2101.69 Q1348.09 2105.23 1344.83 2106.94 Q1341.57 2108.6 1336.84 2108.6 Q1330.87 2108.6 1327.33 2105.27 Q1323.82 2101.9 1323.82 2096.28 Q1323.82 2089.71 1328.2 2086.38 Q1332.61 2083.05 1341.32 2083.05 L1350.28 2083.05 L1350.28 2082.42 Q1350.28 2078.01 1347.36 2075.62 Q1344.48 2073.19 1339.24 2073.19 Q1335.91 2073.19 1332.75 2073.98 Q1329.59 2074.78 1326.67 2076.38 L1326.67 2070.48 Q1330.18 2069.12 1333.48 2068.46 Q1336.77 2067.77 1339.9 2067.77 Q1348.34 2067.77 1352.5 2072.14 Q1356.67 2076.52 1356.67 2085.41 Z" fill="#000000" fill-rule="nonzero" fill-opacity="1" /><path clip-path="url(#clip370)" d="M1395.42 2087.7 Q1395.42 2080.75 1392.54 2076.94 Q1389.69 2073.12 1384.52 2073.12 Q1379.38 2073.12 1376.5 2076.94 Q1373.65 2080.75 1373.65 2087.7 Q1373.65 2094.61 1376.5 2098.43 Q1379.38 2102.25 1384.52 2102.25 Q1389.69 2102.25 1392.54 2098.43 Q1395.42 2094.61 1395.42 2087.7 M1401.81 2102.77 Q1401.81 2112.7 1397.4 2117.53 Q1392.99 2122.39 1383.89 2122.39 Q1380.52 2122.39 1377.54 2121.87 Q1374.55 2121.38 1371.74 2120.34 L1371.74 2114.12 Q1374.55 2115.65 1377.29 2116.38 Q1380.04 2117.11 1382.88 2117.11 Q1389.17 2117.11 1392.29 2113.81 Q1395.42 2110.55 1395.42 2103.91 L1395.42 2100.75 Q1393.44 2104.19 1390.35 2105.89 Q1387.26 2107.59 1382.95 2107.59 Q1375.8 2107.59 1371.43 2102.14 Q1367.05 2096.69 1367.05 2087.7 Q1367.05 2078.67 1371.43 2073.22 Q1375.8 2067.77 1382.95 2067.77 Q1387.26 2067.77 1390.35 2069.47 Q1393.44 2071.17 1395.42 2074.61 L1395.42 2068.71 L1401.81 2068.71 L1401.81 2102.77 Z" fill="#000000" fill-rule="nonzero" fill-opacity="1" /><path clip-path="url(#clip370)" d="M1439.76 2069.85 L1439.76 2075.89 Q1437.05 2074.5 1434.13 2073.81 Q1431.22 2073.12 1428.09 2073.12 Q1423.34 2073.12 1420.94 2074.57 Q1418.58 2076.03 1418.58 2078.95 Q1418.58 2081.17 1420.28 2082.46 Q1421.98 2083.71 1427.12 2084.85 L1429.31 2085.34 Q1436.11 2086.8 1438.96 2089.47 Q1441.84 2092.11 1441.84 2096.87 Q1441.84 2102.28 1437.54 2105.44 Q1433.27 2108.6 1425.77 2108.6 Q1422.64 2108.6 1419.24 2107.98 Q1415.87 2107.39 1412.12 2106.17 L1412.12 2099.57 Q1415.66 2101.41 1419.1 2102.35 Q1422.54 2103.25 1425.91 2103.25 Q1430.42 2103.25 1432.85 2101.73 Q1435.28 2100.16 1435.28 2097.35 Q1435.28 2094.75 1433.51 2093.36 Q1431.77 2091.97 1425.84 2090.69 L1423.61 2090.16 Q1417.68 2088.91 1415.04 2086.34 Q1412.4 2083.74 1412.4 2079.23 Q1412.4 2073.74 1416.29 2070.75 Q1420.18 2067.77 1427.33 2067.77 Q1430.87 2067.77 1434 2068.29 Q1437.12 2068.81 1439.76 2069.85 Z" fill="#000000" fill-rule="nonzero" fill-opacity="1" /><polyline clip-path="url(#clip370)" style="stroke:#000000; stroke-linecap:round; stroke-linejoin:round; stroke-width:4; stroke-opacity:1; fill:none" points="176,1939.45 176,47.2441 "/>
<polyline clip-path="url(#clip370)" style="stroke:#000000; stroke-linecap:round; stroke-linejoin:round; stroke-width:4; stroke-opacity:1; fill:none" points="176,1885.9 194.897,1885.9 "/>
<polyline clip-path="url(#clip370)" style="stroke:#000000; stroke-linecap:round; stroke-linejoin:round; stroke-width:4; stroke-opacity:1; fill:none" points="176,1439.62 194.897,1439.62 "/>
<polyline clip-path="url(#clip370)" style="stroke:#000000; stroke-linecap:round; stroke-linejoin:round; stroke-width:4; stroke-opacity:1; fill:none" points="176,993.348 194.897,993.348 "/>
<polyline clip-path="url(#clip370)" style="stroke:#000000; stroke-linecap:round; stroke-linejoin:round; stroke-width:4; stroke-opacity:1; fill:none" points="176,547.072 194.897,547.072 "/>
<polyline clip-path="url(#clip370)" style="stroke:#000000; stroke-linecap:round; stroke-linejoin:round; stroke-width:4; stroke-opacity:1; fill:none" points="176,100.797 194.897,100.797 "/>
<path clip-path="url(#clip370)" d="M64.9226 1868.15 Q60.4087 1868.15 58.1229 1872.6 Q55.8659 1877.03 55.8659 1885.94 Q55.8659 1894.82 58.1229 1899.28 Q60.4087 1903.71 64.9226 1903.71 Q69.4654 1903.71 71.7223 1899.28 Q74.0082 1894.82 74.0082 1885.94 Q74.0082 1877.03 71.7223 1872.6 Q69.4654 1868.15 64.9226 1868.15 M64.9226 1863.52 Q72.1853 1863.52 76.0047 1869.28 Q79.8531 1875 79.8531 1885.94 Q79.8531 1896.85 76.0047 1902.61 Q72.1853 1908.34 64.9226 1908.34 Q57.6599 1908.34 53.8115 1902.61 Q49.9921 1896.85 49.9921 1885.94 Q49.9921 1875 53.8115 1869.28 Q57.6599 1863.52 64.9226 1863.52 Z" fill="#000000" fill-rule="nonzero" fill-opacity="1" /><path clip-path="url(#clip370)" d="M90.125 1900.15 L96.2303 1900.15 L96.2303 1907.5 L90.125 1907.5 L90.125 1900.15 Z" fill="#000000" fill-rule="nonzero" fill-opacity="1" /><path clip-path="url(#clip370)" d="M125.021 1869.39 L110.264 1892.45 L125.021 1892.45 L125.021 1869.39 M123.487 1864.3 L130.837 1864.3 L130.837 1892.45 L137 1892.45 L137 1897.31 L130.837 1897.31 L130.837 1907.5 L125.021 1907.5 L125.021 1897.31 L105.518 1897.31 L105.518 1891.67 L123.487 1864.3 Z" fill="#000000" fill-rule="nonzero" fill-opacity="1" /><path clip-path="url(#clip370)" d="M66.7744 1421.87 Q62.2606 1421.87 59.9747 1426.33 Q57.7178 1430.75 57.7178 1439.67 Q57.7178 1448.55 59.9747 1453.01 Q62.2606 1457.43 66.7744 1457.43 Q71.3172 1457.43 73.5742 1453.01 Q75.86 1448.55 75.86 1439.67 Q75.86 1430.75 73.5742 1426.33 Q71.3172 1421.87 66.7744 1421.87 M66.7744 1417.24 Q74.0371 1417.24 77.8566 1423 Q81.7049 1428.73 81.7049 1439.67 Q81.7049 1450.57 77.8566 1456.33 Q74.0371 1462.06 66.7744 1462.06 Q59.5118 1462.06 55.6634 1456.33 Q51.844 1450.57 51.844 1439.67 Q51.844 1428.73 55.6634 1423 Q59.5118 1417.24 66.7744 1417.24 Z" fill="#000000" fill-rule="nonzero" fill-opacity="1" /><path clip-path="url(#clip370)" d="M91.9769 1453.87 L98.0821 1453.87 L98.0821 1461.22 L91.9769 1461.22 L91.9769 1453.87 Z" fill="#000000" fill-rule="nonzero" fill-opacity="1" /><path clip-path="url(#clip370)" d="M110.871 1418.02 L133.817 1418.02 L133.817 1422.94 L116.224 1422.94 L116.224 1433.53 Q117.498 1433.1 118.771 1432.9 Q120.044 1432.66 121.317 1432.66 Q128.551 1432.66 132.775 1436.63 Q137 1440.59 137 1447.36 Q137 1454.34 132.66 1458.21 Q128.319 1462.06 120.42 1462.06 Q117.7 1462.06 114.864 1461.6 Q112.058 1461.14 109.049 1460.21 L109.049 1454.34 Q111.653 1455.75 114.43 1456.45 Q117.208 1457.14 120.304 1457.14 Q125.31 1457.14 128.232 1454.51 Q131.155 1451.88 131.155 1447.36 Q131.155 1442.85 128.232 1440.22 Q125.31 1437.58 120.304 1437.58 Q117.961 1437.58 115.617 1438.1 Q113.302 1438.62 110.871 1439.72 L110.871 1418.02 Z" fill="#000000" fill-rule="nonzero" fill-opacity="1" /><path clip-path="url(#clip370)" d="M65.3277 975.596 Q60.8138 975.596 58.528 980.052 Q56.271 984.479 56.271 993.391 Q56.271 1002.27 58.528 1006.73 Q60.8138 1011.16 65.3277 1011.16 Q69.8705 1011.16 72.1274 1006.73 Q74.4133 1002.27 74.4133 993.391 Q74.4133 984.479 72.1274 980.052 Q69.8705 975.596 65.3277 975.596 M65.3277 970.966 Q72.5904 970.966 76.4098 976.725 Q80.2582 982.454 80.2582 993.391 Q80.2582 1004.3 76.4098 1010.06 Q72.5904 1015.79 65.3277 1015.79 Q58.065 1015.79 54.2166 1010.06 Q50.3972 1004.3 50.3972 993.391 Q50.3972 982.454 54.2166 976.725 Q58.065 970.966 65.3277 970.966 Z" fill="#000000" fill-rule="nonzero" fill-opacity="1" /><path clip-path="url(#clip370)" d="M90.5301 1007.6 L96.6354 1007.6 L96.6354 1014.95 L90.5301 1014.95 L90.5301 1007.6 Z" fill="#000000" fill-rule="nonzero" fill-opacity="1" /><path clip-path="url(#clip370)" d="M122.59 991.018 Q118.655 991.018 116.34 993.709 Q114.054 996.4 114.054 1001.09 Q114.054 1005.75 116.34 1008.47 Q118.655 1011.16 122.59 1011.16 Q126.525 1011.16 128.811 1008.47 Q131.126 1005.75 131.126 1001.09 Q131.126 996.4 128.811 993.709 Q126.525 991.018 122.59 991.018 M134.193 972.703 L134.193 978.027 Q131.994 976.985 129.737 976.435 Q127.509 975.885 125.31 975.885 Q119.523 975.885 116.456 979.792 Q113.418 983.698 112.984 991.597 Q114.691 989.08 117.266 987.749 Q119.841 986.389 122.937 986.389 Q129.448 986.389 133.209 990.353 Q137 994.288 137 1001.09 Q137 1007.74 133.065 1011.76 Q129.129 1015.79 122.59 1015.79 Q115.096 1015.79 111.132 1010.06 Q107.168 1004.3 107.168 993.391 Q107.168 983.148 112.029 977.072 Q116.89 970.966 125.079 970.966 Q127.278 970.966 129.506 971.401 Q131.763 971.835 134.193 972.703 Z" fill="#000000" fill-rule="nonzero" fill-opacity="1" /><path clip-path="url(#clip370)" d="M66.6587 529.321 Q62.1448 529.321 59.859 533.777 Q57.602 538.204 57.602 547.116 Q57.602 555.999 59.859 560.455 Q62.1448 564.882 66.6587 564.882 Q71.2015 564.882 73.4584 560.455 Q75.7443 555.999 75.7443 547.116 Q75.7443 538.204 73.4584 533.777 Q71.2015 529.321 66.6587 529.321 M66.6587 524.691 Q73.9214 524.691 77.7408 530.449 Q81.5892 536.178 81.5892 547.116 Q81.5892 558.024 77.7408 563.782 Q73.9214 569.512 66.6587 569.512 Q59.396 569.512 55.5477 563.782 Q51.7282 558.024 51.7282 547.116 Q51.7282 536.178 55.5477 530.449 Q59.396 524.691 66.6587 524.691 Z" fill="#000000" fill-rule="nonzero" fill-opacity="1" /><path clip-path="url(#clip370)" d="M91.8611 561.323 L97.9664 561.323 L97.9664 568.672 L91.8611 568.672 L91.8611 561.323 Z" fill="#000000" fill-rule="nonzero" fill-opacity="1" /><path clip-path="url(#clip370)" d="M109.222 525.472 L137 525.472 L137 527.961 L121.317 568.672 L115.212 568.672 L129.969 530.391 L109.222 530.391 L109.222 525.472 Z" fill="#000000" fill-rule="nonzero" fill-opacity="1" /><path clip-path="url(#clip370)" d="M65.646 83.0455 Q61.1321 83.0455 58.8462 87.5015 Q56.5893 91.9285 56.5893 100.841 Q56.5893 109.724 58.8462 114.18 Q61.1321 118.607 65.646 118.607 Q70.1888 118.607 72.4457 114.18 Q74.7316 109.724 74.7316 100.841 Q74.7316 91.9285 72.4457 87.5015 Q70.1888 83.0455 65.646 83.0455 M65.646 78.4159 Q72.9087 78.4159 76.7281 84.174 Q80.5765 89.9031 80.5765 100.841 Q80.5765 111.749 76.7281 117.507 Q72.9087 123.236 65.646 123.236 Q58.3833 123.236 54.5349 117.507 Q50.7155 111.749 50.7155 100.841 Q50.7155 89.9031 54.5349 84.174 Q58.3833 78.4159 65.646 78.4159 Z" fill="#000000" fill-rule="nonzero" fill-opacity="1" /><path clip-path="url(#clip370)" d="M90.8484 115.048 L96.9537 115.048 L96.9537 122.397 L90.8484 122.397 L90.8484 115.048 Z" fill="#000000" fill-rule="nonzero" fill-opacity="1" /><path clip-path="url(#clip370)" d="M122.185 101.882 Q118.018 101.882 115.617 104.11 Q113.244 106.338 113.244 110.244 Q113.244 114.151 115.617 116.379 Q118.018 118.607 122.185 118.607 Q126.352 118.607 128.753 116.379 Q131.155 114.122 131.155 110.244 Q131.155 106.338 128.753 104.11 Q126.381 101.882 122.185 101.882 M116.34 99.3938 Q112.579 98.4679 110.466 95.8926 Q108.383 93.3174 108.383 89.6137 Q108.383 84.4344 112.058 81.4251 Q115.761 78.4159 122.185 78.4159 Q128.638 78.4159 132.312 81.4251 Q135.987 84.4344 135.987 89.6137 Q135.987 93.3174 133.875 95.8926 Q131.791 98.4679 128.059 99.3938 Q132.283 100.378 134.627 103.242 Q137 106.107 137 110.244 Q137 116.523 133.151 119.88 Q129.332 123.236 122.185 123.236 Q115.038 123.236 111.19 119.88 Q107.37 116.523 107.37 110.244 Q107.37 106.107 109.743 103.242 Q112.116 100.378 116.34 99.3938 M114.199 90.1635 Q114.199 93.52 116.282 95.4007 Q118.395 97.2815 122.185 97.2815 Q125.947 97.2815 128.059 95.4007 Q130.2 93.52 130.2 90.1635 Q130.2 86.807 128.059 84.9263 Q125.947 83.0455 122.185 83.0455 Q118.395 83.0455 116.282 84.9263 Q114.199 86.807 114.199 90.1635 Z" fill="#000000" fill-rule="nonzero" fill-opacity="1" /><polyline clip-path="url(#clip372)" style="stroke:#0000ff; stroke-linecap:round; stroke-linejoin:round; stroke-width:6; stroke-opacity:1; fill:none" points="243.266,100.797 1364.38,1662.76 2485.49,1885.9 "/>
<circle clip-path="url(#clip372)" cx="243.266" cy="100.797" r="18" fill="#0000ff" fill-rule="evenodd" fill-opacity="1" stroke="none"/>
<circle clip-path="url(#clip372)" cx="1364.38" cy="1662.76" r="18" fill="#0000ff" fill-rule="evenodd" fill-opacity="1" stroke="none"/>
<circle clip-path="url(#clip372)" cx="2485.49" cy="1885.9" r="18" fill="#0000ff" fill-rule="evenodd" fill-opacity="1" stroke="none"/>
<polyline clip-path="url(#clip372)" style="stroke:#ff0000; stroke-linecap:round; stroke-linejoin:round; stroke-width:6; stroke-opacity:1; fill:none" stroke-dasharray="24, 15" points="243.266,100.797 1364.38,1662.76 2485.49,1885.9 "/>
<line clip-path="url(#clip372)" x1="243.266" y1="100.797" x2="219.266" y2="76.7971" style="stroke:#ff0000; stroke-width:8.64; stroke-opacity:1"/>
<line clip-path="url(#clip372)" x1="243.266" y1="100.797" x2="219.266" y2="124.797" style="stroke:#ff0000; stroke-width:8.64; stroke-opacity:1"/>
<line clip-path="url(#clip372)" x1="243.266" y1="100.797" x2="267.266" y2="124.797" style="stroke:#ff0000; stroke-width:8.64; stroke-opacity:1"/>
<line clip-path="url(#clip372)" x1="243.266" y1="100.797" x2="267.266" y2="76.7971" style="stroke:#ff0000; stroke-width:8.64; stroke-opacity:1"/>
<line clip-path="url(#clip372)" x1="1364.38" y1="1662.76" x2="1340.38" y2="1638.76" style="stroke:#ff0000; stroke-width:8.64; stroke-opacity:1"/>
<line clip-path="url(#clip372)" x1="1364.38" y1="1662.76" x2="1340.38" y2="1686.76" style="stroke:#ff0000; stroke-width:8.64; stroke-opacity:1"/>
<line clip-path="url(#clip372)" x1="1364.38" y1="1662.76" x2="1388.38" y2="1686.76" style="stroke:#ff0000; stroke-width:8.64; stroke-opacity:1"/>
<line clip-path="url(#clip372)" x1="1364.38" y1="1662.76" x2="1388.38" y2="1638.76" style="stroke:#ff0000; stroke-width:8.64; stroke-opacity:1"/>
<line clip-path="url(#clip372)" x1="2485.49" y1="1885.9" x2="2461.49" y2="1861.9" style="stroke:#ff0000; stroke-width:8.64; stroke-opacity:1"/>
<line clip-path="url(#clip372)" x1="2485.49" y1="1885.9" x2="2461.49" y2="1909.9" style="stroke:#ff0000; stroke-width:8.64; stroke-opacity:1"/>
<line clip-path="url(#clip372)" x1="2485.49" y1="1885.9" x2="2509.49" y2="1909.9" style="stroke:#ff0000; stroke-width:8.64; stroke-opacity:1"/>
<line clip-path="url(#clip372)" x1="2485.49" y1="1885.9" x2="2509.49" y2="1861.9" style="stroke:#ff0000; stroke-width:8.64; stroke-opacity:1"/>
<path clip-path="url(#clip370)" d="M255.225 304.718 L659.451 304.718 L659.451 110.318 L255.225 110.318  Z" fill="#ffffff" fill-rule="evenodd" fill-opacity="1"/>
<polyline clip-path="url(#clip370)" style="stroke:#000000; stroke-linecap:round; stroke-linejoin:round; stroke-width:4; stroke-opacity:0; fill:none" points="255.225,304.718 659.451,304.718 659.451,110.318 255.225,110.318 255.225,304.718 "/>
<polyline clip-path="url(#clip370)" style="stroke:#0000ff; stroke-linecap:round; stroke-linejoin:round; stroke-width:7.5; stroke-opacity:1; fill:none" points="281.633,175.118 440.084,175.118 "/>
<circle clip-path="url(#clip370)" cx="360.859" cy="175.118" r="17.6056" fill="#0000ff" fill-rule="evenodd" fill-opacity="1" stroke="none"/>
<path clip-path="url(#clip370)" d="M472.337 158.321 L472.337 191.914 L479.397 191.914 Q488.338 191.914 492.476 187.864 Q496.642 183.813 496.642 175.074 Q496.642 166.394 492.476 162.372 Q488.338 158.321 479.397 158.321 L472.337 158.321 M466.492 153.518 L478.5 153.518 Q491.058 153.518 496.932 158.755 Q502.806 163.963 502.806 175.074 Q502.806 186.243 496.903 191.48 Q491 196.718 478.5 196.718 L466.492 196.718 L466.492 153.518 Z" fill="#000000" fill-rule="nonzero" fill-opacity="1" /><path clip-path="url(#clip370)" d="M526.619 180.427 Q520.167 180.427 517.678 181.903 Q515.19 183.379 515.19 186.938 Q515.19 189.773 517.042 191.451 Q518.922 193.101 522.134 193.101 Q526.561 193.101 529.223 189.976 Q531.914 186.822 531.914 181.614 L531.914 180.427 L526.619 180.427 M537.238 178.228 L537.238 196.718 L531.914 196.718 L531.914 191.799 Q530.091 194.75 527.371 196.168 Q524.652 197.557 520.716 197.557 Q515.74 197.557 512.788 194.779 Q509.866 191.972 509.866 187.285 Q509.866 181.816 513.512 179.038 Q517.186 176.261 524.449 176.261 L531.914 176.261 L531.914 175.74 Q531.914 172.065 529.484 170.069 Q527.082 168.043 522.713 168.043 Q519.935 168.043 517.302 168.709 Q514.669 169.374 512.238 170.705 L512.238 165.786 Q515.161 164.658 517.91 164.108 Q520.659 163.529 523.263 163.529 Q530.294 163.529 533.766 167.175 Q537.238 170.821 537.238 178.228 Z" fill="#000000" fill-rule="nonzero" fill-opacity="1" /><path clip-path="url(#clip370)" d="M553.471 155.109 L553.471 164.31 L564.437 164.31 L564.437 168.448 L553.471 168.448 L553.471 186.041 Q553.471 190.005 554.541 191.133 Q555.641 192.262 558.969 192.262 L564.437 192.262 L564.437 196.718 L558.969 196.718 Q552.805 196.718 550.462 194.432 Q548.118 192.117 548.118 186.041 L548.118 168.448 L544.212 168.448 L544.212 164.31 L548.118 164.31 L548.118 155.109 L553.471 155.109 Z" fill="#000000" fill-rule="nonzero" fill-opacity="1" /><path clip-path="url(#clip370)" d="M586.167 180.427 Q579.715 180.427 577.227 181.903 Q574.738 183.379 574.738 186.938 Q574.738 189.773 576.59 191.451 Q578.471 193.101 581.683 193.101 Q586.11 193.101 588.772 189.976 Q591.463 186.822 591.463 181.614 L591.463 180.427 L586.167 180.427 M596.787 178.228 L596.787 196.718 L591.463 196.718 L591.463 191.799 Q589.64 194.75 586.92 196.168 Q584.2 197.557 580.265 197.557 Q575.288 197.557 572.337 194.779 Q569.414 191.972 569.414 187.285 Q569.414 181.816 573.06 179.038 Q576.735 176.261 583.997 176.261 L591.463 176.261 L591.463 175.74 Q591.463 172.065 589.032 170.069 Q586.63 168.043 582.261 168.043 Q579.483 168.043 576.85 168.709 Q574.217 169.374 571.787 170.705 L571.787 165.786 Q574.709 164.658 577.458 164.108 Q580.207 163.529 582.811 163.529 Q589.842 163.529 593.314 167.175 Q596.787 170.821 596.787 178.228 Z" fill="#000000" fill-rule="nonzero" fill-opacity="1" /><polyline clip-path="url(#clip370)" style="stroke:#ff0000; stroke-linecap:round; stroke-linejoin:round; stroke-width:7.5; stroke-opacity:1; fill:none" stroke-dasharray="30, 19" points="281.633,239.918 440.084,239.918 "/>
<line clip-path="url(#clip370)" x1="360.859" y1="239.918" x2="341.297" y2="220.356" style="stroke:#ff0000; stroke-width:9.87429; stroke-opacity:1"/>
<line clip-path="url(#clip370)" x1="360.859" y1="239.918" x2="341.297" y2="259.479" style="stroke:#ff0000; stroke-width:9.87429; stroke-opacity:1"/>
<line clip-path="url(#clip370)" x1="360.859" y1="239.918" x2="380.42" y2="259.479" style="stroke:#ff0000; stroke-width:9.87429; stroke-opacity:1"/>
<line clip-path="url(#clip370)" x1="360.859" y1="239.918" x2="380.42" y2="220.356" style="stroke:#ff0000; stroke-width:9.87429; stroke-opacity:1"/>
<path clip-path="url(#clip370)" d="M466.492 218.318 L475.202 218.318 L486.226 247.716 L497.308 218.318 L506.017 218.318 L506.017 261.518 L500.317 261.518 L500.317 223.584 L489.177 253.213 L483.303 253.213 L472.163 223.584 L472.163 261.518 L466.492 261.518 L466.492 218.318 Z" fill="#000000" fill-rule="nonzero" fill-opacity="1" /><path clip-path="url(#clip370)" d="M529.947 232.843 Q525.664 232.843 523.176 236.2 Q520.687 239.527 520.687 245.343 Q520.687 251.159 523.147 254.515 Q525.635 257.843 529.947 257.843 Q534.2 257.843 536.689 254.486 Q539.177 251.13 539.177 245.343 Q539.177 239.585 536.689 236.228 Q534.2 232.843 529.947 232.843 M529.947 228.329 Q536.891 228.329 540.855 232.843 Q544.819 237.357 544.819 245.343 Q544.819 253.3 540.855 257.843 Q536.891 262.357 529.947 262.357 Q522.973 262.357 519.009 257.843 Q515.074 253.3 515.074 245.343 Q515.074 237.357 519.009 232.843 Q522.973 228.329 529.947 228.329 Z" fill="#000000" fill-rule="nonzero" fill-opacity="1" /><path clip-path="url(#clip370)" d="M574.97 234.029 L574.97 216.495 L580.294 216.495 L580.294 261.518 L574.97 261.518 L574.97 256.657 Q573.291 259.55 570.716 260.968 Q568.17 262.357 564.582 262.357 Q558.708 262.357 555.004 257.669 Q551.33 252.982 551.33 245.343 Q551.33 237.704 555.004 233.017 Q558.708 228.329 564.582 228.329 Q568.17 228.329 570.716 229.747 Q573.291 231.136 574.97 234.029 M556.827 245.343 Q556.827 251.217 559.229 254.573 Q561.659 257.901 565.884 257.901 Q570.109 257.901 572.539 254.573 Q574.97 251.217 574.97 245.343 Q574.97 239.469 572.539 236.142 Q570.109 232.785 565.884 232.785 Q561.659 232.785 559.229 236.142 Q556.827 239.469 556.827 245.343 Z" fill="#000000" fill-rule="nonzero" fill-opacity="1" /><path clip-path="url(#clip370)" d="M618.98 243.983 L618.98 246.587 L594.501 246.587 Q594.848 252.085 597.799 254.978 Q600.78 257.843 606.075 257.843 Q609.142 257.843 612.006 257.091 Q614.9 256.338 617.736 254.834 L617.736 259.868 Q614.871 261.084 611.862 261.72 Q608.853 262.357 605.756 262.357 Q598.002 262.357 593.459 257.843 Q588.945 253.329 588.945 245.632 Q588.945 237.675 593.228 233.017 Q597.539 228.329 604.831 228.329 Q611.37 228.329 615.16 232.554 Q618.98 236.749 618.98 243.983 M613.656 242.421 Q613.598 238.051 611.196 235.447 Q608.824 232.843 604.888 232.843 Q600.432 232.843 597.741 235.36 Q595.079 237.878 594.674 242.449 L613.656 242.421 Z" fill="#000000" fill-rule="nonzero" fill-opacity="1" /><path clip-path="url(#clip370)" d="M627.718 216.495 L633.042 216.495 L633.042 261.518 L627.718 261.518 L627.718 216.495 Z" fill="#000000" fill-rule="nonzero" fill-opacity="1" /></svg>
