<?xml version="1.0" encoding="utf-8"?>
<svg xmlns="http://www.w3.org/2000/svg" xmlns:xlink="http://www.w3.org/1999/xlink" width="600" height="400" viewBox="0 0 2400 1600">
<defs>
  <clipPath id="clip200">
    <rect x="0" y="0" width="2400" height="1600"/>
  </clipPath>
</defs>
<path clip-path="url(#clip200)" d="M0 1600 L2400 1600 L2400 0 L0 0  Z" fill="#ffffff" fill-rule="evenodd" fill-opacity="1"/>
<defs>
  <clipPath id="clip201">
    <rect x="162" y="0" width="2195" height="1600"/>
  </clipPath>
</defs>
<path clip-path="url(#clip200)" d="M161.818 667.406 L1152.94 667.406 L1152.94 97.5521 L161.818 97.5521  Z" fill="#ffffff" fill-rule="evenodd" fill-opacity="1"/>
<defs>
  <clipPath id="clip202">
    <rect x="161" y="97" width="992" height="571"/>
  </clipPath>
</defs>
<polyline clip-path="url(#clip202)" style="stroke:#000000; stroke-linecap:round; stroke-linejoin:round; stroke-width:2; stroke-opacity:0.1; fill:none" points="188.205,667.406 188.205,97.5521 "/>
<polyline clip-path="url(#clip202)" style="stroke:#000000; stroke-linecap:round; stroke-linejoin:round; stroke-width:2; stroke-opacity:0.1; fill:none" points="451.075,667.406 451.075,97.5521 "/>
<polyline clip-path="url(#clip202)" style="stroke:#000000; stroke-linecap:round; stroke-linejoin:round; stroke-width:2; stroke-opacity:0.1; fill:none" points="713.945,667.406 713.945,97.5521 "/>
<polyline clip-path="url(#clip202)" style="stroke:#000000; stroke-linecap:round; stroke-linejoin:round; stroke-width:2; stroke-opacity:0.1; fill:none" points="976.816,667.406 976.816,97.5521 "/>
<polyline clip-path="url(#clip202)" style="stroke:#000000; stroke-linecap:round; stroke-linejoin:round; stroke-width:2; stroke-opacity:0.1; fill:none" points="161.818,651.278 1152.94,651.278 "/>
<polyline clip-path="url(#clip202)" style="stroke:#000000; stroke-linecap:round; stroke-linejoin:round; stroke-width:2; stroke-opacity:0.1; fill:none" points="161.818,517.598 1152.94,517.598 "/>
<polyline clip-path="url(#clip202)" style="stroke:#000000; stroke-linecap:round; stroke-linejoin:round; stroke-width:2; stroke-opacity:0.1; fill:none" points="161.818,383.918 1152.94,383.918 "/>
<polyline clip-path="url(#clip202)" style="stroke:#000000; stroke-linecap:round; stroke-linejoin:round; stroke-width:2; stroke-opacity:0.1; fill:none" points="161.818,250.238 1152.94,250.238 "/>
<polyline clip-path="url(#clip202)" style="stroke:#000000; stroke-linecap:round; stroke-linejoin:round; stroke-width:2; stroke-opacity:0.1; fill:none" points="161.818,116.558 1152.94,116.558 "/>
<polyline clip-path="url(#clip200)" style="stroke:#000000; stroke-linecap:round; stroke-linejoin:round; stroke-width:4; stroke-opacity:1; fill:none" points="161.818,667.406 1152.94,667.406 "/>
<polyline clip-path="url(#clip200)" style="stroke:#000000; stroke-linecap:round; stroke-linejoin:round; stroke-width:4; stroke-opacity:1; fill:none" points="188.205,667.406 188.205,648.509 "/>
<polyline clip-path="url(#clip200)" style="stroke:#000000; stroke-linecap:round; stroke-linejoin:round; stroke-width:4; stroke-opacity:1; fill:none" points="451.075,667.406 451.075,648.509 "/>
<polyline clip-path="url(#clip200)" style="stroke:#000000; stroke-linecap:round; stroke-linejoin:round; stroke-width:4; stroke-opacity:1; fill:none" points="713.945,667.406 713.945,648.509 "/>
<polyline clip-path="url(#clip200)" style="stroke:#000000; stroke-linecap:round; stroke-linejoin:round; stroke-width:4; stroke-opacity:1; fill:none" points="976.816,667.406 976.816,648.509 "/>
<path clip-path="url(#clip200)" d="M134.356 739.139 Q132.441 741.054 133.362 743.914 Q134.283 746.75 138.064 750.531 Q141.832 754.3 144.68 755.233 Q147.528 756.141 149.444 754.226 Q151.371 752.299 150.45 749.463 Q149.529 746.603 145.761 742.834 Q141.98 739.053 139.132 738.144 Q136.284 737.211 134.356 739.139 M132.392 737.175 Q135.473 734.093 139.537 734.916 Q143.6 735.714 148.24 740.354 Q152.869 744.982 153.679 749.058 Q154.489 753.109 151.408 756.19 Q148.326 759.272 144.263 758.474 Q140.2 757.651 135.572 753.023 Q130.931 748.383 130.121 744.332 Q129.311 740.256 132.392 737.175 Z" fill="#000000" fill-rule="nonzero" fill-opacity="1" /><path clip-path="url(#clip200)" d="M158.626 742.024 L161.216 739.433 L164.334 742.552 L161.744 745.142 L158.626 742.024 Z" fill="#000000" fill-rule="nonzero" fill-opacity="1" /><path clip-path="url(#clip200)" d="M166.335 723.143 Q164.568 724.911 164.494 726.875 Q164.433 728.827 166.09 730.484 Q167.747 732.141 169.699 732.08 Q171.663 732.006 173.431 730.239 Q175.199 728.471 175.272 726.507 Q175.334 724.53 173.689 722.885 Q172.032 721.228 170.067 721.302 Q168.115 721.363 166.335 723.143 M162.8 724.567 Q160.811 725.77 158.822 725.574 Q156.846 725.365 155.275 723.794 Q153.077 721.596 153.36 718.761 Q153.654 715.912 156.379 713.187 Q159.117 710.45 161.953 710.167 Q164.789 709.885 166.986 712.082 Q168.557 713.654 168.754 715.642 Q168.962 717.619 167.772 719.595 Q169.981 718.22 172.191 718.441 Q174.413 718.65 176.169 720.406 Q178.832 723.069 178.624 726.126 Q178.427 729.171 175.395 732.203 Q172.363 735.235 169.306 735.444 Q166.262 735.64 163.598 732.976 Q161.842 731.221 161.634 728.999 Q161.425 726.777 162.8 724.567 M157.975 721.559 Q159.399 722.983 161.081 722.898 Q162.775 722.799 164.384 721.191 Q165.979 719.595 166.078 717.901 Q166.188 716.195 164.764 714.771 Q163.34 713.347 161.634 713.457 Q159.94 713.555 158.344 715.151 Q156.736 716.76 156.637 718.454 Q156.551 720.135 157.975 721.559 Z" fill="#000000" fill-rule="nonzero" fill-opacity="1" /><path clip-path="url(#clip200)" d="M174.339 699.156 Q172.424 701.071 173.345 703.931 Q174.266 706.767 178.047 710.548 Q181.816 714.317 184.664 715.25 Q187.512 716.158 189.427 714.243 Q191.354 712.316 190.433 709.48 Q189.513 706.619 185.744 702.851 Q181.963 699.07 179.115 698.161 Q176.267 697.228 174.339 699.156 M172.375 697.191 Q175.457 694.11 179.52 694.933 Q183.583 695.731 188.224 700.371 Q192.852 704.999 193.662 709.075 Q194.472 713.126 191.391 716.207 Q188.31 719.288 184.246 718.49 Q180.183 717.668 175.555 713.04 Q170.914 708.399 170.104 704.348 Q169.294 700.273 172.375 697.191 Z" fill="#000000" fill-rule="nonzero" fill-opacity="1" /><path clip-path="url(#clip200)" d="M397.754 738.611 Q395.839 740.526 396.76 743.386 Q397.681 746.222 401.462 750.003 Q405.23 753.772 408.078 754.705 Q410.926 755.613 412.841 753.698 Q414.769 751.771 413.848 748.935 Q412.927 746.075 409.159 742.306 Q405.378 738.525 402.53 737.617 Q399.682 736.684 397.754 738.611 M395.79 736.647 Q398.871 733.565 402.935 734.388 Q406.998 735.186 411.638 739.826 Q416.267 744.454 417.077 748.53 Q417.887 752.581 414.806 755.662 Q411.724 758.744 407.661 757.946 Q403.598 757.123 398.97 752.495 Q394.329 747.855 393.519 743.804 Q392.709 739.728 395.79 736.647 Z" fill="#000000" fill-rule="nonzero" fill-opacity="1" /><path clip-path="url(#clip200)" d="M422.024 741.496 L424.614 738.906 L427.732 742.024 L425.142 744.614 L422.024 741.496 Z" fill="#000000" fill-rule="nonzero" fill-opacity="1" /><path clip-path="url(#clip200)" d="M429.733 722.615 Q427.966 724.383 427.892 726.347 Q427.831 728.299 429.488 729.956 Q431.145 731.614 433.097 731.552 Q435.061 731.479 436.829 729.711 Q438.597 727.943 438.67 725.979 Q438.732 724.002 437.087 722.357 Q435.43 720.7 433.465 720.774 Q431.513 720.835 429.733 722.615 M426.198 724.039 Q424.209 725.242 422.22 725.046 Q420.244 724.837 418.673 723.266 Q416.475 721.068 416.758 718.233 Q417.052 715.385 419.777 712.659 Q422.515 709.922 425.351 709.639 Q428.187 709.357 430.384 711.554 Q431.955 713.126 432.152 715.115 Q432.36 717.091 431.17 719.067 Q433.379 717.692 435.589 717.913 Q437.811 718.122 439.567 719.878 Q442.23 722.542 442.022 725.598 Q441.825 728.643 438.793 731.675 Q435.761 734.707 432.704 734.916 Q429.66 735.112 426.996 732.448 Q425.24 730.693 425.032 728.471 Q424.823 726.249 426.198 724.039 M421.373 721.032 Q422.797 722.456 424.479 722.37 Q426.173 722.271 427.781 720.663 Q429.377 719.067 429.476 717.373 Q429.586 715.667 428.162 714.243 Q426.738 712.819 425.032 712.929 Q423.338 713.028 421.742 714.623 Q420.133 716.232 420.035 717.926 Q419.949 719.608 421.373 721.032 Z" fill="#000000" fill-rule="nonzero" fill-opacity="1" /><path clip-path="url(#clip200)" d="M430.826 702.274 L440.561 692.539 L442.648 694.626 L435.184 702.09 L439.677 706.583 Q440.033 705.858 440.487 705.232 Q440.929 704.594 441.469 704.054 Q444.538 700.985 448.012 700.874 Q451.487 700.764 454.359 703.636 Q457.318 706.595 457.121 710.081 Q456.913 713.555 453.561 716.907 Q452.407 718.061 451.008 719.067 Q449.621 720.062 447.951 720.946 L445.459 718.454 Q447.165 717.95 448.639 717.066 Q450.112 716.183 451.425 714.869 Q453.549 712.745 453.672 710.388 Q453.795 708.031 451.879 706.116 Q449.964 704.201 447.607 704.324 Q445.25 704.447 443.127 706.57 Q442.132 707.565 441.359 708.78 Q440.598 709.983 440.033 711.481 L430.826 702.274 Z" fill="#000000" fill-rule="nonzero" fill-opacity="1" /><path clip-path="url(#clip200)" d="M660.096 739.139 Q658.181 741.054 659.102 743.914 Q660.023 746.75 663.804 750.531 Q667.573 754.3 670.421 755.233 Q673.269 756.141 675.184 754.226 Q677.111 752.299 676.19 749.463 Q675.27 746.603 671.501 742.834 Q667.72 739.053 664.872 738.144 Q662.024 737.211 660.096 739.139 M658.132 737.175 Q661.214 734.093 665.277 734.916 Q669.34 735.714 673.981 740.354 Q678.609 744.982 679.419 749.058 Q680.229 753.109 677.148 756.19 Q674.067 759.272 670.003 758.474 Q665.94 757.651 661.312 753.023 Q656.671 748.383 655.861 744.332 Q655.051 740.256 658.132 737.175 Z" fill="#000000" fill-rule="nonzero" fill-opacity="1" /><path clip-path="url(#clip200)" d="M684.366 742.024 L686.957 739.433 L690.075 742.552 L687.484 745.142 L684.366 742.024 Z" fill="#000000" fill-rule="nonzero" fill-opacity="1" /><path clip-path="url(#clip200)" d="M695.169 736.696 L692.91 734.437 Q694.285 733.946 695.476 733.222 Q696.667 732.497 697.588 731.577 Q700.043 729.122 699.687 726.188 Q699.331 723.229 696.151 719.681 Q696.495 721.449 695.967 723.106 Q695.439 724.764 694.113 726.089 Q691.364 728.839 688.098 728.79 Q684.833 728.716 681.948 725.832 Q679.124 723.008 679.088 719.632 Q679.051 716.256 681.825 713.482 Q685.005 710.302 689.117 711.076 Q693.23 711.825 697.87 716.465 Q702.203 720.798 702.731 725.451 Q703.259 730.079 699.785 733.553 Q698.852 734.486 697.71 735.26 Q696.569 736.033 695.169 736.696 M692.333 723.99 Q694.003 722.321 693.831 720.209 Q693.672 718.085 691.683 716.097 Q689.706 714.12 687.583 713.961 Q685.459 713.776 683.789 715.446 Q682.12 717.116 682.292 719.252 Q682.463 721.363 684.44 723.339 Q686.429 725.328 688.54 725.5 Q690.664 725.66 692.333 723.99 Z" fill="#000000" fill-rule="nonzero" fill-opacity="1" /><path clip-path="url(#clip200)" d="M700.08 699.156 Q698.165 701.071 699.085 703.931 Q700.006 706.767 703.787 710.548 Q707.556 714.317 710.404 715.25 Q713.252 716.158 715.167 714.243 Q717.094 712.316 716.174 709.48 Q715.253 706.619 711.484 702.851 Q707.703 699.07 704.855 698.161 Q702.007 697.228 700.08 699.156 M698.115 697.191 Q701.197 694.11 705.26 694.933 Q709.324 695.731 713.964 700.371 Q718.592 704.999 719.402 709.075 Q720.212 713.126 717.131 716.207 Q714.05 719.288 709.986 718.49 Q705.923 717.668 701.295 713.04 Q696.655 708.399 695.844 704.348 Q695.034 700.273 698.115 697.191 Z" fill="#000000" fill-rule="nonzero" fill-opacity="1" /><path clip-path="url(#clip200)" d="M923.494 738.611 Q921.579 740.526 922.5 743.386 Q923.421 746.222 927.202 750.003 Q930.971 753.772 933.819 754.705 Q936.667 755.613 938.582 753.698 Q940.509 751.771 939.588 748.935 Q938.668 746.075 934.899 742.306 Q931.118 738.525 928.27 737.617 Q925.422 736.684 923.494 738.611 M921.53 736.647 Q924.612 733.565 928.675 734.388 Q932.738 735.186 937.379 739.826 Q942.007 744.454 942.817 748.53 Q943.627 752.581 940.546 755.662 Q937.465 758.744 933.401 757.946 Q929.338 757.123 924.71 752.495 Q920.069 747.855 919.259 743.804 Q918.449 739.728 921.53 736.647 Z" fill="#000000" fill-rule="nonzero" fill-opacity="1" /><path clip-path="url(#clip200)" d="M947.764 741.496 L950.354 738.906 L953.473 742.024 L950.882 744.614 L947.764 741.496 Z" fill="#000000" fill-rule="nonzero" fill-opacity="1" /><path clip-path="url(#clip200)" d="M958.567 736.168 L956.308 733.909 Q957.683 733.418 958.874 732.694 Q960.065 731.97 960.986 731.049 Q963.441 728.594 963.085 725.66 Q962.729 722.701 959.549 719.153 Q959.893 720.921 959.365 722.578 Q958.837 724.236 957.511 725.561 Q954.762 728.311 951.496 728.262 Q948.231 728.189 945.346 725.304 Q942.522 722.48 942.486 719.104 Q942.449 715.728 945.223 712.954 Q948.403 709.774 952.515 710.548 Q956.628 711.297 961.268 715.937 Q965.601 720.27 966.129 724.923 Q966.657 729.551 963.183 733.025 Q962.25 733.958 961.108 734.732 Q959.967 735.505 958.567 736.168 M955.731 723.462 Q957.401 721.793 957.229 719.681 Q957.07 717.557 955.081 715.569 Q953.104 713.592 950.981 713.433 Q948.857 713.249 947.187 714.918 Q945.518 716.588 945.69 718.724 Q945.861 720.835 947.838 722.812 Q949.827 724.8 951.938 724.972 Q954.062 725.132 955.731 723.462 Z" fill="#000000" fill-rule="nonzero" fill-opacity="1" /><path clip-path="url(#clip200)" d="M956.566 702.274 L966.301 692.539 L968.388 694.626 L960.924 702.09 L965.417 706.583 Q965.773 705.858 966.227 705.232 Q966.669 704.594 967.21 704.054 Q970.279 700.985 973.753 700.874 Q977.227 700.764 980.099 703.636 Q983.058 706.595 982.862 710.081 Q982.653 713.555 979.302 716.907 Q978.148 718.061 976.748 719.067 Q975.361 720.062 973.691 720.946 L971.199 718.454 Q972.906 717.95 974.379 717.066 Q975.852 716.183 977.165 714.869 Q979.289 712.745 979.412 710.388 Q979.535 708.031 977.62 706.116 Q975.705 704.201 973.348 704.324 Q970.991 704.447 968.867 706.57 Q967.872 707.565 967.099 708.78 Q966.338 709.983 965.773 711.481 L956.566 702.274 Z" fill="#000000" fill-rule="nonzero" fill-opacity="1" /><polyline clip-path="url(#clip200)" style="stroke:#000000; stroke-linecap:round; stroke-linejoin:round; stroke-width:4; stroke-opacity:1; fill:none" points="161.818,667.406 161.818,97.5521 "/>
<polyline clip-path="url(#clip200)" style="stroke:#000000; stroke-linecap:round; stroke-linejoin:round; stroke-width:4; stroke-opacity:1; fill:none" points="161.818,651.278 180.716,651.278 "/>
<polyline clip-path="url(#clip200)" style="stroke:#000000; stroke-linecap:round; stroke-linejoin:round; stroke-width:4; stroke-opacity:1; fill:none" points="161.818,517.598 180.716,517.598 "/>
<polyline clip-path="url(#clip200)" style="stroke:#000000; stroke-linecap:round; stroke-linejoin:round; stroke-width:4; stroke-opacity:1; fill:none" points="161.818,383.918 180.716,383.918 "/>
<polyline clip-path="url(#clip200)" style="stroke:#000000; stroke-linecap:round; stroke-linejoin:round; stroke-width:4; stroke-opacity:1; fill:none" points="161.818,250.238 180.716,250.238 "/>
<polyline clip-path="url(#clip200)" style="stroke:#000000; stroke-linecap:round; stroke-linejoin:round; stroke-width:4; stroke-opacity:1; fill:none" points="161.818,116.558 180.716,116.558 "/>
<path clip-path="url(#clip200)" d="M116.86 640.627 Q114.152 640.627 112.78 643.301 Q111.426 645.957 111.426 651.304 Q111.426 656.634 112.78 659.308 Q114.152 661.964 116.86 661.964 Q119.586 661.964 120.94 659.308 Q122.311 656.634 122.311 651.304 Q122.311 645.957 120.94 643.301 Q119.586 640.627 116.86 640.627 M116.86 637.85 Q121.217 637.85 123.509 641.305 Q125.818 644.742 125.818 651.304 Q125.818 657.85 123.509 661.304 Q121.217 664.742 116.86 664.742 Q112.502 664.742 110.193 661.304 Q107.902 657.85 107.902 651.304 Q107.902 644.742 110.193 641.305 Q112.502 637.85 116.86 637.85 Z" fill="#000000" fill-rule="nonzero" fill-opacity="1" /><path clip-path="url(#clip200)" d="M110.888 527.607 L116.617 527.607 L116.617 507.833 L110.384 509.083 L110.384 505.888 L116.582 504.638 L120.089 504.638 L120.089 527.607 L125.818 527.607 L125.818 530.558 L110.888 530.558 L110.888 527.607 Z" fill="#000000" fill-rule="nonzero" fill-opacity="1" /><path clip-path="url(#clip200)" d="M113.579 393.927 L125.818 393.927 L125.818 396.878 L109.36 396.878 L109.36 393.927 Q111.356 391.861 114.794 388.389 Q118.249 384.899 119.134 383.892 Q120.818 382 121.478 380.698 Q122.155 379.378 122.155 378.111 Q122.155 376.045 120.697 374.743 Q119.256 373.441 116.929 373.441 Q115.28 373.441 113.44 374.014 Q111.617 374.587 109.533 375.75 L109.533 372.208 Q111.652 371.358 113.492 370.923 Q115.332 370.489 116.86 370.489 Q120.888 370.489 123.283 372.503 Q125.679 374.517 125.679 377.885 Q125.679 379.482 125.072 380.923 Q124.481 382.347 122.901 384.291 Q122.467 384.795 120.141 387.208 Q117.815 389.604 113.579 393.927 Z" fill="#000000" fill-rule="nonzero" fill-opacity="1" /><path clip-path="url(#clip200)" d="M120.471 249.222 Q122.988 249.761 124.395 251.462 Q125.818 253.163 125.818 255.663 Q125.818 259.5 123.179 261.601 Q120.54 263.702 115.679 263.702 Q114.047 263.702 112.311 263.372 Q110.593 263.059 108.752 262.417 L108.752 259.031 Q110.211 259.882 111.947 260.316 Q113.683 260.75 115.575 260.75 Q118.874 260.75 120.592 259.448 Q122.329 258.146 122.329 255.663 Q122.329 253.372 120.714 252.087 Q119.117 250.785 116.252 250.785 L113.231 250.785 L113.231 247.903 L116.391 247.903 Q118.978 247.903 120.349 246.879 Q121.721 245.837 121.721 243.893 Q121.721 241.896 120.297 240.837 Q118.891 239.761 116.252 239.761 Q114.811 239.761 113.162 240.073 Q111.513 240.386 109.533 241.045 L109.533 237.92 Q111.53 237.365 113.266 237.087 Q115.02 236.809 116.565 236.809 Q120.558 236.809 122.884 238.632 Q125.21 240.438 125.21 243.528 Q125.21 245.681 123.978 247.174 Q122.745 248.65 120.471 249.222 Z" fill="#000000" fill-rule="nonzero" fill-opacity="1" /><path clip-path="url(#clip200)" d="M118.631 106.654 L109.777 120.49 L118.631 120.49 L118.631 106.654 M117.711 103.598 L122.12 103.598 L122.12 120.49 L125.818 120.49 L125.818 123.407 L122.12 123.407 L122.12 129.518 L118.631 129.518 L118.631 123.407 L106.929 123.407 L106.929 120.022 L117.711 103.598 Z" fill="#000000" fill-rule="nonzero" fill-opacity="1" /><path clip-path="url(#clip200)" d="M163.901 20.1758 Q165.313 17.8147 168.809 15.7314 Q170.175 14.9212 174.387 14.9212 Q179.11 14.9212 182.049 18.6712 Q185.012 22.4212 185.012 28.5323 Q185.012 34.6433 182.049 38.3933 Q179.11 42.1433 174.387 42.1433 Q171.54 42.1433 169.48 41.0322 Q167.443 39.8979 166.1 37.5831 L166.1 51.3331 L161.818 51.3331 L161.818 28.7637 Q161.818 23.4165 163.901 20.1758 M180.591 28.5323 Q180.591 23.8332 178.647 21.1712 Q176.725 18.486 173.346 18.486 Q169.966 18.486 168.022 21.1712 Q166.1 23.8332 166.1 28.5323 Q166.1 33.2313 168.022 35.9165 Q169.966 38.5785 173.346 38.5785 Q176.725 38.5785 178.647 35.9165 Q180.591 33.2313 180.591 28.5323 Z" fill="#000000" fill-rule="nonzero" fill-opacity="1" /><polyline clip-path="url(#clip202)" style="stroke:#009af9; stroke-linecap:round; stroke-linejoin:round; stroke-width:4; stroke-opacity:1; fill:none" points="189.869,592.751 248.307,597.05 306.746,601.887 365.185,607.37 423.623,613.638 482.062,620.873 540.501,629.315 598.939,639.296 657.378,651.278 715.817,636.624 774.256,618.291 832.694,594.689 891.133,563.158 949.572,518.881 1008.01,452.136 1066.45,339.993 1124.89,113.68 "/>
<circle clip-path="url(#clip202)" cx="657.378" cy="651.278" r="10.8" fill="#ff0000" fill-rule="evenodd" fill-opacity="1" stroke="#000000" stroke-opacity="1" stroke-width="3.2"/>
<path clip-path="url(#clip200)" d="M1361.64 667.406 L2352.76 667.406 L2352.76 97.5521 L1361.64 97.5521  Z" fill="#ffffff" fill-rule="evenodd" fill-opacity="1"/>
<defs>
  <clipPath id="clip203">
    <rect x="1361" y="97" width="992" height="571"/>
  </clipPath>
</defs>
<polyline clip-path="url(#clip203)" style="stroke:#000000; stroke-linecap:round; stroke-linejoin:round; stroke-width:2; stroke-opacity:0.1; fill:none" points="1479.23,667.406 1479.23,97.5521 "/>
<polyline clip-path="url(#clip203)" style="stroke:#000000; stroke-linecap:round; stroke-linejoin:round; stroke-width:2; stroke-opacity:0.1; fill:none" points="1622.47,667.406 1622.47,97.5521 "/>
<polyline clip-path="url(#clip203)" style="stroke:#000000; stroke-linecap:round; stroke-linejoin:round; stroke-width:2; stroke-opacity:0.1; fill:none" points="1765.71,667.406 1765.71,97.5521 "/>
<polyline clip-path="url(#clip203)" style="stroke:#000000; stroke-linecap:round; stroke-linejoin:round; stroke-width:2; stroke-opacity:0.1; fill:none" points="1908.94,667.406 1908.94,97.5521 "/>
<polyline clip-path="url(#clip203)" style="stroke:#000000; stroke-linecap:round; stroke-linejoin:round; stroke-width:2; stroke-opacity:0.1; fill:none" points="2052.18,667.406 2052.18,97.5521 "/>
<polyline clip-path="url(#clip203)" style="stroke:#000000; stroke-linecap:round; stroke-linejoin:round; stroke-width:2; stroke-opacity:0.1; fill:none" points="2195.42,667.406 2195.42,97.5521 "/>
<polyline clip-path="url(#clip203)" style="stroke:#000000; stroke-linecap:round; stroke-linejoin:round; stroke-width:2; stroke-opacity:0.1; fill:none" points="2338.66,667.406 2338.66,97.5521 "/>
<polyline clip-path="url(#clip203)" style="stroke:#000000; stroke-linecap:round; stroke-linejoin:round; stroke-width:2; stroke-opacity:0.1; fill:none" points="1361.64,651.278 2352.76,651.278 "/>
<polyline clip-path="url(#clip203)" style="stroke:#000000; stroke-linecap:round; stroke-linejoin:round; stroke-width:2; stroke-opacity:0.1; fill:none" points="1361.64,508.265 2352.76,508.265 "/>
<polyline clip-path="url(#clip203)" style="stroke:#000000; stroke-linecap:round; stroke-linejoin:round; stroke-width:2; stroke-opacity:0.1; fill:none" points="1361.64,365.251 2352.76,365.251 "/>
<polyline clip-path="url(#clip203)" style="stroke:#000000; stroke-linecap:round; stroke-linejoin:round; stroke-width:2; stroke-opacity:0.1; fill:none" points="1361.64,222.237 2352.76,222.237 "/>
<polyline clip-path="url(#clip200)" style="stroke:#000000; stroke-linecap:round; stroke-linejoin:round; stroke-width:4; stroke-opacity:1; fill:none" points="1361.64,667.406 2352.76,667.406 "/>
<polyline clip-path="url(#clip200)" style="stroke:#000000; stroke-linecap:round; stroke-linejoin:round; stroke-width:4; stroke-opacity:1; fill:none" points="1479.23,667.406 1479.23,648.509 "/>
<polyline clip-path="url(#clip200)" style="stroke:#000000; stroke-linecap:round; stroke-linejoin:round; stroke-width:4; stroke-opacity:1; fill:none" points="1622.47,667.406 1622.47,648.509 "/>
<polyline clip-path="url(#clip200)" style="stroke:#000000; stroke-linecap:round; stroke-linejoin:round; stroke-width:4; stroke-opacity:1; fill:none" points="1765.71,667.406 1765.71,648.509 "/>
<polyline clip-path="url(#clip200)" style="stroke:#000000; stroke-linecap:round; stroke-linejoin:round; stroke-width:4; stroke-opacity:1; fill:none" points="1908.94,667.406 1908.94,648.509 "/>
<polyline clip-path="url(#clip200)" style="stroke:#000000; stroke-linecap:round; stroke-linejoin:round; stroke-width:4; stroke-opacity:1; fill:none" points="2052.18,667.406 2052.18,648.509 "/>
<polyline clip-path="url(#clip200)" style="stroke:#000000; stroke-linecap:round; stroke-linejoin:round; stroke-width:4; stroke-opacity:1; fill:none" points="2195.42,667.406 2195.42,648.509 "/>
<polyline clip-path="url(#clip200)" style="stroke:#000000; stroke-linecap:round; stroke-linejoin:round; stroke-width:4; stroke-opacity:1; fill:none" points="2338.66,667.406 2338.66,648.509 "/>
<path clip-path="url(#clip200)" d="M1425.38 739.139 Q1423.47 741.054 1424.39 743.914 Q1425.31 746.75 1429.09 750.531 Q1432.86 754.3 1435.71 755.233 Q1438.55 756.141 1440.47 754.226 Q1442.4 752.299 1441.48 749.463 Q1440.56 746.603 1436.79 742.834 Q1433.01 739.053 1430.16 738.144 Q1427.31 737.211 1425.38 739.139 M1423.42 737.175 Q1426.5 734.093 1430.56 734.916 Q1434.63 735.714 1439.27 740.354 Q1443.9 744.982 1444.71 749.058 Q1445.52 753.109 1442.43 756.19 Q1439.35 759.272 1435.29 758.474 Q1431.23 757.651 1426.6 753.023 Q1421.96 748.383 1421.15 744.332 Q1420.34 740.256 1423.42 737.175 Z" fill="#000000" fill-rule="nonzero" fill-opacity="1" /><path clip-path="url(#clip200)" d="M1449.65 742.024 L1452.24 739.433 L1455.36 742.552 L1452.77 745.142 L1449.65 742.024 Z" fill="#000000" fill-rule="nonzero" fill-opacity="1" /><path clip-path="url(#clip200)" d="M1458.39 719.755 Q1460.55 718.355 1462.75 718.564 Q1464.96 718.761 1466.73 720.528 Q1469.44 723.241 1469.06 726.593 Q1468.68 729.944 1465.24 733.381 Q1464.09 734.535 1462.63 735.53 Q1461.19 736.524 1459.44 737.371 L1457.04 734.977 Q1458.68 734.548 1460.21 733.627 Q1461.74 732.706 1463.08 731.368 Q1465.42 729.036 1465.71 726.9 Q1466.02 724.751 1464.26 722.996 Q1462.64 721.375 1460.59 721.609 Q1458.54 721.817 1456.51 723.843 L1454.38 725.979 L1452.34 723.941 L1454.58 721.707 Q1456.4 719.878 1456.65 718.184 Q1456.88 716.477 1455.51 715.102 Q1454.1 713.69 1452.34 713.948 Q1450.59 714.182 1448.72 716.047 Q1447.7 717.066 1446.76 718.454 Q1445.81 719.841 1444.88 721.707 L1442.67 719.497 Q1443.69 717.692 1444.72 716.268 Q1445.76 714.832 1446.85 713.74 Q1449.68 710.916 1452.61 710.56 Q1455.53 710.192 1457.72 712.377 Q1459.24 713.899 1459.42 715.827 Q1459.6 717.742 1458.39 719.755 Z" fill="#000000" fill-rule="nonzero" fill-opacity="1" /><path clip-path="url(#clip200)" d="M1465.37 699.156 Q1463.45 701.071 1464.37 703.931 Q1465.29 706.767 1469.07 710.548 Q1472.84 714.317 1475.69 715.25 Q1478.54 716.158 1480.45 714.243 Q1482.38 712.316 1481.46 709.48 Q1480.54 706.619 1476.77 702.851 Q1472.99 699.07 1470.14 698.161 Q1467.29 697.228 1465.37 699.156 M1463.4 697.191 Q1466.48 694.11 1470.55 694.933 Q1474.61 695.731 1479.25 700.371 Q1483.88 704.999 1484.69 709.075 Q1485.5 713.126 1482.42 716.207 Q1479.34 719.288 1475.27 718.49 Q1471.21 717.668 1466.58 713.04 Q1461.94 708.399 1461.13 704.348 Q1460.32 700.273 1463.4 697.191 Z" fill="#000000" fill-rule="nonzero" fill-opacity="1" /><path clip-path="url(#clip200)" d="M1569.27 738.488 Q1567.36 740.403 1568.28 743.264 Q1569.2 746.099 1572.98 749.88 Q1576.75 753.649 1579.6 754.582 Q1582.44 755.491 1584.36 753.576 Q1586.29 751.648 1585.36 748.812 Q1584.44 745.952 1580.68 742.183 Q1576.89 738.402 1574.05 737.494 Q1571.2 736.561 1569.27 738.488 M1567.31 736.524 Q1570.39 733.443 1574.45 734.265 Q1578.51 735.063 1583.16 739.704 Q1587.78 744.332 1588.59 748.407 Q1589.4 752.458 1586.32 755.54 Q1583.24 758.621 1579.18 757.823 Q1575.11 757.001 1570.49 752.372 Q1565.85 747.732 1565.04 743.681 Q1564.23 739.605 1567.31 736.524 Z" fill="#000000" fill-rule="nonzero" fill-opacity="1" /><path clip-path="url(#clip200)" d="M1593.54 741.373 L1596.13 738.783 L1599.25 741.901 L1596.66 744.491 L1593.54 741.373 Z" fill="#000000" fill-rule="nonzero" fill-opacity="1" /><path clip-path="url(#clip200)" d="M1602.28 719.104 Q1604.44 717.705 1606.64 717.913 Q1608.85 718.11 1610.62 719.878 Q1613.33 722.591 1612.95 725.942 Q1612.57 729.293 1609.13 732.731 Q1607.98 733.885 1606.52 734.879 Q1605.08 735.873 1603.32 736.72 L1600.93 734.327 Q1602.56 733.897 1604.1 732.976 Q1605.63 732.056 1606.97 730.717 Q1609.3 728.385 1609.6 726.249 Q1609.9 724.101 1608.15 722.345 Q1606.53 720.725 1604.48 720.958 Q1602.43 721.167 1600.4 723.192 L1598.27 725.328 L1596.23 723.29 L1598.46 721.056 Q1600.29 719.227 1600.54 717.533 Q1600.77 715.827 1599.4 714.452 Q1597.98 713.04 1596.23 713.298 Q1594.47 713.531 1592.61 715.397 Q1591.59 716.416 1590.64 717.803 Q1589.7 719.19 1588.77 721.056 L1586.56 718.846 Q1587.57 717.042 1588.61 715.618 Q1589.65 714.182 1590.74 713.089 Q1593.57 710.265 1596.5 709.909 Q1599.42 709.541 1601.61 711.726 Q1603.13 713.249 1603.31 715.176 Q1603.48 717.091 1602.28 719.104 Z" fill="#000000" fill-rule="nonzero" fill-opacity="1" /><path clip-path="url(#clip200)" d="M1618.99 717.987 L1623.04 713.936 L1609.06 699.954 L1605.53 705.245 L1603.28 702.986 L1606.77 697.719 L1609.25 695.24 L1625.5 711.481 L1629.55 707.43 L1631.63 709.517 L1621.08 720.074 L1618.99 717.987 Z" fill="#000000" fill-rule="nonzero" fill-opacity="1" /><path clip-path="url(#clip200)" d="M1712.71 738.292 Q1710.79 740.207 1711.71 743.067 Q1712.63 745.903 1716.41 749.684 Q1720.18 753.453 1723.03 754.386 Q1725.88 755.294 1727.79 753.379 Q1729.72 751.452 1728.8 748.616 Q1727.88 745.756 1724.11 741.987 Q1720.33 738.206 1717.48 737.297 Q1714.63 736.364 1712.71 738.292 M1710.74 736.328 Q1713.82 733.246 1717.89 734.069 Q1721.95 734.867 1726.59 739.507 Q1731.22 744.135 1732.03 748.211 Q1732.84 752.262 1729.76 755.343 Q1726.68 758.425 1722.61 757.627 Q1718.55 756.804 1713.92 752.176 Q1709.28 747.536 1708.47 743.485 Q1707.66 739.409 1710.74 736.328 Z" fill="#000000" fill-rule="nonzero" fill-opacity="1" /><path clip-path="url(#clip200)" d="M1736.97 741.177 L1739.57 738.586 L1742.68 741.705 L1740.09 744.295 L1736.97 741.177 Z" fill="#000000" fill-rule="nonzero" fill-opacity="1" /><path clip-path="url(#clip200)" d="M1745.72 718.908 Q1747.88 717.508 1750.07 717.717 Q1752.28 717.913 1754.05 719.681 Q1756.76 722.394 1756.38 725.746 Q1756 729.097 1752.57 732.534 Q1751.41 733.688 1749.95 734.683 Q1748.51 735.677 1746.76 736.524 L1744.37 734.13 Q1746 733.701 1747.53 732.78 Q1749.07 731.859 1750.41 730.521 Q1752.74 728.189 1753.03 726.053 Q1753.34 723.904 1751.58 722.149 Q1749.96 720.528 1747.91 720.762 Q1745.86 720.97 1743.84 722.996 L1741.7 725.132 L1739.66 723.094 L1741.9 720.86 Q1743.73 719.031 1743.97 717.336 Q1744.21 715.63 1742.83 714.255 Q1741.42 712.843 1739.66 713.101 Q1737.91 713.334 1736.04 715.2 Q1735.02 716.219 1734.08 717.607 Q1733.13 718.994 1732.2 720.86 L1729.99 718.65 Q1731.01 716.845 1732.04 715.421 Q1733.08 713.985 1734.18 712.893 Q1737 710.069 1739.93 709.713 Q1742.86 709.345 1745.04 711.53 Q1746.56 713.052 1746.75 714.979 Q1746.92 716.895 1745.72 718.908 Z" fill="#000000" fill-rule="nonzero" fill-opacity="1" /><path clip-path="url(#clip200)" d="M1764.13 716.084 L1772.78 707.43 L1774.87 709.517 L1763.23 721.154 L1761.15 719.067 Q1761.1 716.195 1761.07 711.309 Q1761.05 706.398 1760.96 705.06 Q1760.82 702.532 1760.36 701.144 Q1759.91 699.733 1759.01 698.836 Q1757.55 697.376 1755.6 697.486 Q1753.66 697.584 1752.01 699.229 Q1750.85 700.395 1749.95 702.102 Q1749.07 703.796 1748.42 706.092 L1745.91 703.587 Q1746.81 701.488 1747.8 699.88 Q1748.8 698.272 1749.88 697.191 Q1752.73 694.343 1755.84 694.073 Q1758.96 693.803 1761.34 696.185 Q1762.47 697.314 1763.06 698.763 Q1763.65 700.187 1763.91 702.679 Q1763.96 703.342 1764.02 706.693 Q1764.07 710.032 1764.13 716.084 Z" fill="#000000" fill-rule="nonzero" fill-opacity="1" /><path clip-path="url(#clip200)" d="M1855.44 738.795 Q1853.52 740.71 1854.45 743.571 Q1855.37 746.406 1859.15 750.187 Q1862.92 753.956 1865.76 754.889 Q1868.61 755.797 1870.53 753.882 Q1872.45 751.955 1871.53 749.119 Q1870.61 746.259 1866.84 742.49 Q1863.06 738.709 1860.21 737.801 Q1857.37 736.868 1855.44 738.795 M1853.48 736.831 Q1856.56 733.75 1860.62 734.572 Q1864.68 735.37 1869.32 740.01 Q1873.95 744.639 1874.76 748.714 Q1875.57 752.765 1872.49 755.847 Q1869.41 758.928 1865.35 758.13 Q1861.28 757.307 1856.65 752.679 Q1852.01 748.039 1851.2 743.988 Q1850.39 739.912 1853.48 736.831 Z" fill="#000000" fill-rule="nonzero" fill-opacity="1" /><path clip-path="url(#clip200)" d="M1879.71 741.68 L1882.3 739.09 L1885.42 742.208 L1882.83 744.798 L1879.71 741.68 Z" fill="#000000" fill-rule="nonzero" fill-opacity="1" /><path clip-path="url(#clip200)" d="M1888.45 719.411 Q1890.61 718.012 1892.81 718.22 Q1895.02 718.417 1896.79 720.185 Q1899.5 722.898 1899.12 726.249 Q1898.74 729.6 1895.3 733.038 Q1894.15 734.192 1892.69 735.186 Q1891.25 736.18 1889.49 737.027 L1887.1 734.634 Q1888.73 734.204 1890.27 733.283 Q1891.8 732.362 1893.14 731.024 Q1895.47 728.692 1895.77 726.556 Q1896.07 724.408 1894.32 722.652 Q1892.7 721.032 1890.65 721.265 Q1888.6 721.474 1886.57 723.499 L1884.44 725.635 L1882.4 723.597 L1884.63 721.363 Q1886.46 719.534 1886.71 717.84 Q1886.94 716.133 1885.57 714.759 Q1884.15 713.347 1882.4 713.605 Q1880.64 713.838 1878.78 715.704 Q1877.76 716.723 1876.81 718.11 Q1875.87 719.497 1874.93 721.363 L1872.72 719.153 Q1873.74 717.349 1874.77 715.925 Q1875.82 714.488 1876.91 713.396 Q1879.73 710.572 1882.67 710.216 Q1885.59 709.848 1887.77 712.033 Q1889.3 713.555 1889.48 715.483 Q1889.65 717.398 1888.45 719.411 Z" fill="#000000" fill-rule="nonzero" fill-opacity="1" /><path clip-path="url(#clip200)" d="M1904.45 703.415 Q1906.61 702.016 1908.8 702.225 Q1911.01 702.421 1912.78 704.189 Q1915.49 706.902 1915.11 710.253 Q1914.73 713.605 1911.3 717.042 Q1910.14 718.196 1908.68 719.19 Q1907.24 720.185 1905.49 721.032 L1903.1 718.638 Q1904.73 718.208 1906.26 717.287 Q1907.8 716.367 1909.14 715.029 Q1911.47 712.696 1911.76 710.56 Q1912.07 708.412 1910.31 706.656 Q1908.69 705.036 1906.64 705.269 Q1904.59 705.478 1902.57 707.503 L1900.43 709.639 L1898.39 707.602 L1900.63 705.367 Q1902.46 703.538 1902.7 701.844 Q1902.94 700.138 1901.56 698.763 Q1900.15 697.351 1898.39 697.609 Q1896.64 697.842 1894.77 699.708 Q1893.75 700.727 1892.81 702.114 Q1891.86 703.501 1890.93 705.367 L1888.72 703.158 Q1889.74 701.353 1890.77 699.929 Q1891.81 698.493 1892.91 697.4 Q1895.73 694.577 1898.66 694.221 Q1901.59 693.852 1903.77 696.037 Q1905.29 697.56 1905.48 699.487 Q1905.65 701.402 1904.45 703.415 Z" fill="#000000" fill-rule="nonzero" fill-opacity="1" /><path clip-path="url(#clip200)" d="M1998.08 739.397 Q1996.16 741.312 1997.08 744.172 Q1998 747.008 2001.78 750.789 Q2005.55 754.558 2008.4 755.491 Q2011.25 756.399 2013.16 754.484 Q2015.09 752.557 2014.17 749.721 Q2013.25 746.86 2009.48 743.092 Q2005.7 739.311 2002.85 738.402 Q2000 737.469 1998.08 739.397 M1996.11 737.432 Q1999.19 734.351 2003.26 735.174 Q2007.32 735.972 2011.96 740.612 Q2016.59 745.24 2017.4 749.316 Q2018.21 753.367 2015.13 756.448 Q2012.05 759.529 2007.98 758.731 Q2003.92 757.909 1999.29 753.281 Q1994.65 748.641 1993.84 744.589 Q1993.03 740.514 1996.11 737.432 Z" fill="#000000" fill-rule="nonzero" fill-opacity="1" /><path clip-path="url(#clip200)" d="M2022.35 742.282 L2024.94 739.691 L2028.05 742.809 L2025.46 745.4 L2022.35 742.282 Z" fill="#000000" fill-rule="nonzero" fill-opacity="1" /><path clip-path="url(#clip200)" d="M2031.09 720.013 Q2033.25 718.613 2035.44 718.822 Q2037.65 719.018 2039.42 720.786 Q2042.13 723.499 2041.75 726.85 Q2041.37 730.202 2037.94 733.639 Q2036.78 734.793 2035.32 735.787 Q2033.89 736.782 2032.13 737.629 L2029.74 735.235 Q2031.37 734.805 2032.9 733.885 Q2034.44 732.964 2035.78 731.626 Q2038.11 729.293 2038.4 727.157 Q2038.71 725.009 2036.95 723.254 Q2035.33 721.633 2033.28 721.866 Q2031.23 722.075 2029.21 724.101 L2027.07 726.237 L2025.03 724.199 L2027.27 721.965 Q2029.1 720.135 2029.34 718.441 Q2029.58 716.735 2028.2 715.36 Q2026.79 713.948 2025.03 714.206 Q2023.28 714.439 2021.41 716.305 Q2020.39 717.324 2019.45 718.711 Q2018.5 720.099 2017.57 721.965 L2015.36 719.755 Q2016.38 717.95 2017.41 716.526 Q2018.45 715.09 2019.55 713.997 Q2022.37 711.174 2025.3 710.818 Q2028.23 710.45 2030.41 712.635 Q2031.93 714.157 2032.12 716.084 Q2032.29 717.999 2031.09 720.013 Z" fill="#000000" fill-rule="nonzero" fill-opacity="1" /><path clip-path="url(#clip200)" d="M2040.1 698.431 L2043.62 714.476 L2049.88 708.215 L2040.1 698.431 M2037.29 696.921 L2040.4 693.803 L2052.35 705.748 L2054.96 703.133 L2057.03 705.195 L2054.41 707.81 L2058.73 712.131 L2056.26 714.599 L2051.94 710.278 L2043.67 718.552 L2041.28 716.158 L2037.29 696.921 Z" fill="#000000" fill-rule="nonzero" fill-opacity="1" /><path clip-path="url(#clip200)" d="M2142.1 738.611 Q2140.18 740.526 2141.1 743.386 Q2142.03 746.222 2145.81 750.003 Q2149.58 753.772 2152.42 754.705 Q2155.27 755.613 2157.19 753.698 Q2159.11 751.771 2158.19 748.935 Q2157.27 746.075 2153.5 742.306 Q2149.72 738.525 2146.87 737.617 Q2144.03 736.684 2142.1 738.611 M2140.13 736.647 Q2143.22 733.565 2147.28 734.388 Q2151.34 735.186 2155.98 739.826 Q2160.61 744.454 2161.42 748.53 Q2162.23 752.581 2159.15 755.662 Q2156.07 758.744 2152.01 757.946 Q2147.94 757.123 2143.31 752.495 Q2138.67 747.855 2137.86 743.804 Q2137.05 739.728 2140.13 736.647 Z" fill="#000000" fill-rule="nonzero" fill-opacity="1" /><path clip-path="url(#clip200)" d="M2166.37 741.496 L2168.96 738.906 L2172.08 742.024 L2169.49 744.614 L2166.37 741.496 Z" fill="#000000" fill-rule="nonzero" fill-opacity="1" /><path clip-path="url(#clip200)" d="M2175.11 719.227 Q2177.27 717.828 2179.47 718.036 Q2181.68 718.233 2183.44 720 Q2186.16 722.713 2185.78 726.065 Q2185.4 729.416 2181.96 732.853 Q2180.81 734.007 2179.34 735.002 Q2177.91 735.996 2176.15 736.843 L2173.76 734.449 Q2175.39 734.02 2176.93 733.099 Q2178.46 732.178 2179.8 730.84 Q2182.13 728.508 2182.43 726.372 Q2182.73 724.223 2180.98 722.468 Q2179.36 720.847 2177.31 721.081 Q2175.26 721.289 2173.23 723.315 L2171.1 725.451 L2169.06 723.413 L2171.29 721.179 Q2173.12 719.35 2173.37 717.656 Q2173.6 715.949 2172.22 714.574 Q2170.81 713.163 2169.06 713.42 Q2167.3 713.654 2165.44 715.52 Q2164.42 716.539 2163.47 717.926 Q2162.53 719.313 2161.59 721.179 L2159.38 718.969 Q2160.4 717.165 2161.43 715.741 Q2162.48 714.304 2163.57 713.212 Q2166.39 710.388 2169.33 710.032 Q2172.25 709.664 2174.43 711.849 Q2175.96 713.371 2176.14 715.299 Q2176.31 717.214 2175.11 719.227 Z" fill="#000000" fill-rule="nonzero" fill-opacity="1" /><path clip-path="url(#clip200)" d="M2175.17 702.274 L2184.91 692.539 L2186.99 694.626 L2179.53 702.09 L2184.02 706.583 Q2184.38 705.858 2184.83 705.232 Q2185.27 704.594 2185.81 704.054 Q2188.88 700.985 2192.36 700.874 Q2195.83 700.764 2198.7 703.636 Q2201.66 706.595 2201.47 710.081 Q2201.26 713.555 2197.91 716.907 Q2196.75 718.061 2195.35 719.067 Q2193.97 720.062 2192.3 720.946 L2189.8 718.454 Q2191.51 717.95 2192.98 717.066 Q2194.46 716.183 2195.77 714.869 Q2197.89 712.745 2198.02 710.388 Q2198.14 708.031 2196.22 706.116 Q2194.31 704.201 2191.95 704.324 Q2189.6 704.447 2187.47 706.57 Q2186.48 707.565 2185.7 708.78 Q2184.94 709.983 2184.38 711.481 L2175.17 702.274 Z" fill="#000000" fill-rule="nonzero" fill-opacity="1" /><path clip-path="url(#clip200)" d="M2284.72 739.225 Q2282.81 741.14 2283.73 744 Q2284.65 746.836 2288.43 750.617 Q2292.2 754.386 2295.05 755.319 Q2297.9 756.227 2299.81 754.312 Q2301.74 752.385 2300.82 749.549 Q2299.9 746.689 2296.13 742.92 Q2292.35 739.139 2289.5 738.23 Q2286.65 737.297 2284.72 739.225 M2282.76 737.261 Q2285.84 734.179 2289.9 735.002 Q2293.97 735.8 2298.61 740.44 Q2303.24 745.068 2304.05 749.144 Q2304.86 753.195 2301.77 756.276 Q2298.69 759.358 2294.63 758.56 Q2290.57 757.737 2285.94 753.109 Q2281.3 748.469 2280.49 744.418 Q2279.68 740.342 2282.76 737.261 Z" fill="#000000" fill-rule="nonzero" fill-opacity="1" /><path clip-path="url(#clip200)" d="M2308.99 742.11 L2311.58 739.519 L2314.7 742.638 L2312.11 745.228 L2308.99 742.11 Z" fill="#000000" fill-rule="nonzero" fill-opacity="1" /><path clip-path="url(#clip200)" d="M2317.73 719.841 Q2319.89 718.441 2322.09 718.65 Q2324.3 718.846 2326.07 720.614 Q2328.78 723.327 2328.4 726.679 Q2328.02 730.03 2324.58 733.467 Q2323.43 734.621 2321.97 735.616 Q2320.53 736.61 2318.78 737.457 L2316.38 735.063 Q2318.02 734.634 2319.55 733.713 Q2321.08 732.792 2322.42 731.454 Q2324.76 729.122 2325.05 726.985 Q2325.36 724.837 2323.6 723.082 Q2321.98 721.461 2319.93 721.695 Q2317.88 721.903 2315.86 723.929 L2313.72 726.065 L2311.68 724.027 L2313.92 721.793 Q2315.74 719.964 2315.99 718.269 Q2316.22 716.563 2314.85 715.188 Q2313.44 713.776 2311.68 714.034 Q2309.93 714.267 2308.06 716.133 Q2307.04 717.152 2306.1 718.54 Q2305.15 719.927 2304.22 721.793 L2302.01 719.583 Q2303.03 717.778 2304.06 716.354 Q2305.1 714.918 2306.19 713.826 Q2309.02 711.002 2311.95 710.646 Q2314.87 710.278 2317.06 712.463 Q2318.58 713.985 2318.76 715.912 Q2318.94 717.828 2317.73 719.841 Z" fill="#000000" fill-rule="nonzero" fill-opacity="1" /><path clip-path="url(#clip200)" d="M2331.56 705.478 Q2329.89 707.147 2330.05 709.271 Q2330.22 711.383 2332.21 713.371 Q2334.18 715.348 2336.31 715.532 Q2338.43 715.691 2340.1 714.022 Q2341.77 712.352 2341.6 710.241 Q2341.43 708.105 2339.45 706.128 Q2337.46 704.14 2335.34 703.98 Q2333.23 703.808 2331.56 705.478 M2328.71 692.784 L2330.97 695.043 Q2329.59 695.534 2328.4 696.258 Q2327.22 696.97 2326.29 697.903 Q2323.83 700.359 2324.19 703.317 Q2324.56 706.263 2327.73 709.799 Q2327.38 708.007 2327.91 706.349 Q2328.43 704.68 2329.74 703.366 Q2332.5 700.604 2335.78 700.69 Q2339.06 700.751 2341.94 703.636 Q2344.77 706.46 2344.8 709.836 Q2344.84 713.212 2342.06 715.986 Q2338.89 719.166 2334.77 718.417 Q2330.65 717.656 2326.02 713.028 Q2321.67 708.682 2321.16 704.041 Q2320.63 699.389 2324.1 695.915 Q2325.04 694.982 2326.17 694.221 Q2327.31 693.447 2328.71 692.784 Z" fill="#000000" fill-rule="nonzero" fill-opacity="1" /><polyline clip-path="url(#clip200)" style="stroke:#000000; stroke-linecap:round; stroke-linejoin:round; stroke-width:4; stroke-opacity:1; fill:none" points="1361.64,667.406 1361.64,97.5521 "/>
<polyline clip-path="url(#clip200)" style="stroke:#000000; stroke-linecap:round; stroke-linejoin:round; stroke-width:4; stroke-opacity:1; fill:none" points="1361.64,651.278 1380.53,651.278 "/>
<polyline clip-path="url(#clip200)" style="stroke:#000000; stroke-linecap:round; stroke-linejoin:round; stroke-width:4; stroke-opacity:1; fill:none" points="1361.64,508.265 1380.53,508.265 "/>
<polyline clip-path="url(#clip200)" style="stroke:#000000; stroke-linecap:round; stroke-linejoin:round; stroke-width:4; stroke-opacity:1; fill:none" points="1361.64,365.251 1380.53,365.251 "/>
<polyline clip-path="url(#clip200)" style="stroke:#000000; stroke-linecap:round; stroke-linejoin:round; stroke-width:4; stroke-opacity:1; fill:none" points="1361.64,222.237 1380.53,222.237 "/>
<path clip-path="url(#clip200)" d="M1260.13 640.627 Q1257.42 640.627 1256.05 643.301 Q1254.7 645.957 1254.7 651.304 Q1254.7 656.634 1256.05 659.308 Q1257.42 661.964 1260.13 661.964 Q1262.86 661.964 1264.21 659.308 Q1265.58 656.634 1265.58 651.304 Q1265.58 645.957 1264.21 643.301 Q1262.86 640.627 1260.13 640.627 M1260.13 637.85 Q1264.49 637.85 1266.78 641.305 Q1269.09 644.742 1269.09 651.304 Q1269.09 657.85 1266.78 661.304 Q1264.49 664.742 1260.13 664.742 Q1255.78 664.742 1253.47 661.304 Q1251.17 657.85 1251.17 651.304 Q1251.17 644.742 1253.47 641.305 Q1255.78 637.85 1260.13 637.85 Z" fill="#000000" fill-rule="nonzero" fill-opacity="1" /><path clip-path="url(#clip200)" d="M1275.25 659.829 L1278.92 659.829 L1278.92 664.238 L1275.25 664.238 L1275.25 659.829 Z" fill="#000000" fill-rule="nonzero" fill-opacity="1" /><path clip-path="url(#clip200)" d="M1294.06 640.627 Q1291.35 640.627 1289.98 643.301 Q1288.62 645.957 1288.62 651.304 Q1288.62 656.634 1289.98 659.308 Q1291.35 661.964 1294.06 661.964 Q1296.78 661.964 1298.14 659.308 Q1299.51 656.634 1299.51 651.304 Q1299.51 645.957 1298.14 643.301 Q1296.78 640.627 1294.06 640.627 M1294.06 637.85 Q1298.41 637.85 1300.71 641.305 Q1303.01 644.742 1303.01 651.304 Q1303.01 657.85 1300.71 661.304 Q1298.41 664.742 1294.06 664.742 Q1289.7 664.742 1287.39 661.304 Q1285.1 657.85 1285.1 651.304 Q1285.1 644.742 1287.39 641.305 Q1289.7 637.85 1294.06 637.85 Z" fill="#000000" fill-rule="nonzero" fill-opacity="1" /><path clip-path="url(#clip200)" d="M1316.68 640.627 Q1313.97 640.627 1312.6 643.301 Q1311.24 645.957 1311.24 651.304 Q1311.24 656.634 1312.6 659.308 Q1313.97 661.964 1316.68 661.964 Q1319.4 661.964 1320.76 659.308 Q1322.13 656.634 1322.13 651.304 Q1322.13 645.957 1320.76 643.301 Q1319.4 640.627 1316.68 640.627 M1316.68 637.85 Q1321.04 637.85 1323.33 641.305 Q1325.64 644.742 1325.64 651.304 Q1325.64 657.85 1323.33 661.304 Q1321.04 664.742 1316.68 664.742 Q1312.32 664.742 1310.01 661.304 Q1307.72 657.85 1307.72 651.304 Q1307.72 644.742 1310.01 641.305 Q1312.32 637.85 1316.68 637.85 Z" fill="#000000" fill-rule="nonzero" fill-opacity="1" /><path clip-path="url(#clip200)" d="M1260.88 497.614 Q1258.17 497.614 1256.8 500.287 Q1255.45 502.944 1255.45 508.291 Q1255.45 513.621 1256.8 516.294 Q1258.17 518.95 1260.88 518.95 Q1263.6 518.95 1264.96 516.294 Q1266.33 513.621 1266.33 508.291 Q1266.33 502.944 1264.96 500.287 Q1263.6 497.614 1260.88 497.614 M1260.88 494.836 Q1265.24 494.836 1267.53 498.291 Q1269.84 501.728 1269.84 508.291 Q1269.84 514.836 1267.53 518.291 Q1265.24 521.728 1260.88 521.728 Q1256.52 521.728 1254.21 518.291 Q1251.92 514.836 1251.92 508.291 Q1251.92 501.728 1254.21 498.291 Q1256.52 494.836 1260.88 494.836 Z" fill="#000000" fill-rule="nonzero" fill-opacity="1" /><path clip-path="url(#clip200)" d="M1276 516.815 L1279.66 516.815 L1279.66 521.225 L1276 521.225 L1276 516.815 Z" fill="#000000" fill-rule="nonzero" fill-opacity="1" /><path clip-path="url(#clip200)" d="M1294.8 497.614 Q1292.09 497.614 1290.72 500.287 Q1289.37 502.944 1289.37 508.291 Q1289.37 513.621 1290.72 516.294 Q1292.09 518.95 1294.8 518.95 Q1297.53 518.95 1298.88 516.294 Q1300.25 513.621 1300.25 508.291 Q1300.25 502.944 1298.88 500.287 Q1297.53 497.614 1294.8 497.614 M1294.8 494.836 Q1299.16 494.836 1301.45 498.291 Q1303.76 501.728 1303.76 508.291 Q1303.76 514.836 1301.45 518.291 Q1299.16 521.728 1294.8 521.728 Q1290.45 521.728 1288.14 518.291 Q1285.84 514.836 1285.84 508.291 Q1285.84 501.728 1288.14 498.291 Q1290.45 494.836 1294.8 494.836 Z" fill="#000000" fill-rule="nonzero" fill-opacity="1" /><path clip-path="url(#clip200)" d="M1309.96 495.305 L1323.73 495.305 L1323.73 498.256 L1313.17 498.256 L1313.17 504.61 Q1313.93 504.35 1314.7 504.228 Q1315.46 504.089 1316.23 504.089 Q1320.57 504.089 1323.1 506.468 Q1325.64 508.846 1325.64 512.909 Q1325.64 517.093 1323.03 519.419 Q1320.43 521.728 1315.69 521.728 Q1314.06 521.728 1312.35 521.45 Q1310.67 521.173 1308.87 520.617 L1308.87 517.093 Q1310.43 517.943 1312.09 518.36 Q1313.76 518.777 1315.62 518.777 Q1318.62 518.777 1320.38 517.197 Q1322.13 515.617 1322.13 512.909 Q1322.13 510.2 1320.38 508.621 Q1318.62 507.041 1315.62 507.041 Q1314.21 507.041 1312.81 507.353 Q1311.42 507.666 1309.96 508.325 L1309.96 495.305 Z" fill="#000000" fill-rule="nonzero" fill-opacity="1" /><path clip-path="url(#clip200)" d="M1260.13 354.6 Q1257.42 354.6 1256.05 357.274 Q1254.7 359.93 1254.7 365.277 Q1254.7 370.607 1256.05 373.28 Q1257.42 375.937 1260.13 375.937 Q1262.86 375.937 1264.21 373.28 Q1265.58 370.607 1265.58 365.277 Q1265.58 359.93 1264.21 357.274 Q1262.86 354.6 1260.13 354.6 M1260.13 351.822 Q1264.49 351.822 1266.78 355.277 Q1269.09 358.715 1269.09 365.277 Q1269.09 371.822 1266.78 375.277 Q1264.49 378.714 1260.13 378.714 Q1255.78 378.714 1253.47 375.277 Q1251.17 371.822 1251.17 365.277 Q1251.17 358.715 1253.47 355.277 Q1255.78 351.822 1260.13 351.822 Z" fill="#000000" fill-rule="nonzero" fill-opacity="1" /><path clip-path="url(#clip200)" d="M1275.25 373.801 L1278.92 373.801 L1278.92 378.211 L1275.25 378.211 L1275.25 373.801 Z" fill="#000000" fill-rule="nonzero" fill-opacity="1" /><path clip-path="url(#clip200)" d="M1287.16 375.26 L1292.89 375.26 L1292.89 355.485 L1286.66 356.735 L1286.66 353.541 L1292.86 352.291 L1296.37 352.291 L1296.37 375.26 L1302.09 375.26 L1302.09 378.211 L1287.16 378.211 L1287.16 375.26 Z" fill="#000000" fill-rule="nonzero" fill-opacity="1" /><path clip-path="url(#clip200)" d="M1316.68 354.6 Q1313.97 354.6 1312.6 357.274 Q1311.24 359.93 1311.24 365.277 Q1311.24 370.607 1312.6 373.28 Q1313.97 375.937 1316.68 375.937 Q1319.4 375.937 1320.76 373.28 Q1322.13 370.607 1322.13 365.277 Q1322.13 359.93 1320.76 357.274 Q1319.4 354.6 1316.68 354.6 M1316.68 351.822 Q1321.04 351.822 1323.33 355.277 Q1325.64 358.715 1325.64 365.277 Q1325.64 371.822 1323.33 375.277 Q1321.04 378.714 1316.68 378.714 Q1312.32 378.714 1310.01 375.277 Q1307.72 371.822 1307.72 365.277 Q1307.72 358.715 1310.01 355.277 Q1312.32 351.822 1316.68 351.822 Z" fill="#000000" fill-rule="nonzero" fill-opacity="1" /><path clip-path="url(#clip200)" d="M1260.88 211.586 Q1258.17 211.586 1256.8 214.26 Q1255.45 216.916 1255.45 222.263 Q1255.45 227.593 1256.8 230.267 Q1258.17 232.923 1260.88 232.923 Q1263.6 232.923 1264.96 230.267 Q1266.33 227.593 1266.33 222.263 Q1266.33 216.916 1264.96 214.26 Q1263.6 211.586 1260.88 211.586 M1260.88 208.808 Q1265.24 208.808 1267.53 212.263 Q1269.84 215.701 1269.84 222.263 Q1269.84 228.808 1267.53 232.263 Q1265.24 235.701 1260.88 235.701 Q1256.52 235.701 1254.21 232.263 Q1251.92 228.808 1251.92 222.263 Q1251.92 215.701 1254.21 212.263 Q1256.52 208.808 1260.88 208.808 Z" fill="#000000" fill-rule="nonzero" fill-opacity="1" /><path clip-path="url(#clip200)" d="M1276 230.788 L1279.66 230.788 L1279.66 235.197 L1276 235.197 L1276 230.788 Z" fill="#000000" fill-rule="nonzero" fill-opacity="1" /><path clip-path="url(#clip200)" d="M1287.91 232.246 L1293.64 232.246 L1293.64 212.472 L1287.41 213.722 L1287.41 210.527 L1293.6 209.277 L1297.11 209.277 L1297.11 232.246 L1302.84 232.246 L1302.84 235.197 L1287.91 235.197 L1287.91 232.246 Z" fill="#000000" fill-rule="nonzero" fill-opacity="1" /><path clip-path="url(#clip200)" d="M1309.96 209.277 L1323.73 209.277 L1323.73 212.229 L1313.17 212.229 L1313.17 218.583 Q1313.93 218.322 1314.7 218.201 Q1315.46 218.062 1316.23 218.062 Q1320.57 218.062 1323.1 220.44 Q1325.64 222.819 1325.64 226.881 Q1325.64 231.065 1323.03 233.392 Q1320.43 235.701 1315.69 235.701 Q1314.06 235.701 1312.35 235.423 Q1310.67 235.145 1308.87 234.59 L1308.87 231.065 Q1310.43 231.916 1312.09 232.333 Q1313.76 232.749 1315.62 232.749 Q1318.62 232.749 1320.38 231.169 Q1322.13 229.59 1322.13 226.881 Q1322.13 224.173 1320.38 222.593 Q1318.62 221.013 1315.62 221.013 Q1314.21 221.013 1312.81 221.326 Q1311.42 221.638 1309.96 222.298 L1309.96 209.277 Z" fill="#000000" fill-rule="nonzero" fill-opacity="1" /><path clip-path="url(#clip200)" d="M1373.53 18.9258 Q1370.02 18.9258 1368.12 21.4721 Q1366.13 24.1341 1366.13 28.5323 Q1366.13 33.185 1368.09 35.8702 Q1370.08 38.5322 1373.53 38.5322 Q1376.94 38.5322 1378.93 35.847 Q1380.92 33.1619 1380.92 28.5323 Q1380.92 24.2962 1378.93 21.4721 Q1377.1 18.9258 1373.53 18.9258 M1373.53 15.5462 L1387.68 15.5462 L1387.68 19.8054 L1382.91 19.8054 Q1385.43 23.4165 1385.43 28.5323 Q1385.43 34.898 1382.26 38.5091 Q1379.09 42.1433 1373.53 42.1433 Q1367.96 42.1433 1364.81 38.5091 Q1361.64 34.898 1361.64 28.5323 Q1361.64 22.1203 1364.81 18.5323 Q1367.42 15.5462 1373.53 15.5462 Z" fill="#000000" fill-rule="nonzero" fill-opacity="1" /><path clip-path="url(#clip200)" d="M1411.84 19.6666 Q1410.99 19.3656 1410.13 19.1342 Q1407.84 18.5323 1405.39 18.5323 Q1401.15 18.5323 1398.79 20.824 Q1396.59 22.9536 1396.17 26.8656 L1411.84 26.8656 L1411.84 30.1989 L1396.17 30.1989 Q1396.59 34.1109 1398.79 36.2405 Q1401.15 38.5322 1405.39 38.5322 Q1408.35 38.5322 1410.13 37.9304 L1411.84 37.3517 L1411.84 41.2174 L1410.02 41.634 Q1407.61 42.1433 1405.13 42.1433 Q1398.93 42.1433 1395.32 38.5322 Q1391.68 34.9211 1391.68 28.5323 Q1391.68 22.1434 1395.32 18.5323 Q1398.93 14.9212 1405.13 14.9212 Q1407.47 14.9212 1410.02 15.4305 Q1410.94 15.6157 1411.84 15.8934 L1411.84 19.6666 Z" fill="#000000" fill-rule="nonzero" fill-opacity="1" /><polyline clip-path="url(#clip203)" style="stroke:#009af9; stroke-linecap:round; stroke-linejoin:round; stroke-width:4; stroke-opacity:1; fill:none" points="1389.69,164.918 1448.13,222.911 1506.56,281.705 1565,341.299 1623.44,401.693 1681.88,462.889 1740.32,524.885 1798.76,587.681 1857.2,651.278 1915.63,586.881 1974.07,521.682 2032.51,455.683 2090.95,388.884 2149.39,321.284 2207.83,252.883 2266.27,183.682 2324.71,113.68 "/>
<circle clip-path="url(#clip203)" cx="1857.2" cy="651.278" r="10.8" fill="#ff0000" fill-rule="evenodd" fill-opacity="1" stroke="#000000" stroke-opacity="1" stroke-width="3.2"/>
<path clip-path="url(#clip200)" d="M161.818 1467.41 L1152.94 1467.41 L1152.94 897.552 L161.818 897.552  Z" fill="#ffffff" fill-rule="evenodd" fill-opacity="1"/>
<defs>
  <clipPath id="clip204">
    <rect x="161" y="897" width="992" height="571"/>
  </clipPath>
</defs>
<polyline clip-path="url(#clip204)" style="stroke:#000000; stroke-linecap:round; stroke-linejoin:round; stroke-width:2; stroke-opacity:0.1; fill:none" points="297.127,1467.41 297.127,897.552 "/>
<polyline clip-path="url(#clip204)" style="stroke:#000000; stroke-linecap:round; stroke-linejoin:round; stroke-width:2; stroke-opacity:0.1; fill:none" points="469.721,1467.41 469.721,897.552 "/>
<polyline clip-path="url(#clip204)" style="stroke:#000000; stroke-linecap:round; stroke-linejoin:round; stroke-width:2; stroke-opacity:0.1; fill:none" points="642.315,1467.41 642.315,897.552 "/>
<polyline clip-path="url(#clip204)" style="stroke:#000000; stroke-linecap:round; stroke-linejoin:round; stroke-width:2; stroke-opacity:0.1; fill:none" points="814.909,1467.41 814.909,897.552 "/>
<polyline clip-path="url(#clip204)" style="stroke:#000000; stroke-linecap:round; stroke-linejoin:round; stroke-width:2; stroke-opacity:0.1; fill:none" points="987.502,1467.41 987.502,897.552 "/>
<polyline clip-path="url(#clip204)" style="stroke:#000000; stroke-linecap:round; stroke-linejoin:round; stroke-width:2; stroke-opacity:0.1; fill:none" points="161.818,1451.28 1152.94,1451.28 "/>
<polyline clip-path="url(#clip204)" style="stroke:#000000; stroke-linecap:round; stroke-linejoin:round; stroke-width:2; stroke-opacity:0.1; fill:none" points="161.818,1330.44 1152.94,1330.44 "/>
<polyline clip-path="url(#clip204)" style="stroke:#000000; stroke-linecap:round; stroke-linejoin:round; stroke-width:2; stroke-opacity:0.1; fill:none" points="161.818,1209.59 1152.94,1209.59 "/>
<polyline clip-path="url(#clip204)" style="stroke:#000000; stroke-linecap:round; stroke-linejoin:round; stroke-width:2; stroke-opacity:0.1; fill:none" points="161.818,1088.75 1152.94,1088.75 "/>
<polyline clip-path="url(#clip204)" style="stroke:#000000; stroke-linecap:round; stroke-linejoin:round; stroke-width:2; stroke-opacity:0.1; fill:none" points="161.818,967.911 1152.94,967.911 "/>
<polyline clip-path="url(#clip200)" style="stroke:#000000; stroke-linecap:round; stroke-linejoin:round; stroke-width:4; stroke-opacity:1; fill:none" points="161.818,1467.41 1152.94,1467.41 "/>
<polyline clip-path="url(#clip200)" style="stroke:#000000; stroke-linecap:round; stroke-linejoin:round; stroke-width:4; stroke-opacity:1; fill:none" points="297.127,1467.41 297.127,1448.51 "/>
<polyline clip-path="url(#clip200)" style="stroke:#000000; stroke-linecap:round; stroke-linejoin:round; stroke-width:4; stroke-opacity:1; fill:none" points="469.721,1467.41 469.721,1448.51 "/>
<polyline clip-path="url(#clip200)" style="stroke:#000000; stroke-linecap:round; stroke-linejoin:round; stroke-width:4; stroke-opacity:1; fill:none" points="642.315,1467.41 642.315,1448.51 "/>
<polyline clip-path="url(#clip200)" style="stroke:#000000; stroke-linecap:round; stroke-linejoin:round; stroke-width:4; stroke-opacity:1; fill:none" points="814.909,1467.41 814.909,1448.51 "/>
<polyline clip-path="url(#clip200)" style="stroke:#000000; stroke-linecap:round; stroke-linejoin:round; stroke-width:4; stroke-opacity:1; fill:none" points="987.502,1467.41 987.502,1448.51 "/>
<path clip-path="url(#clip200)" d="M243.278 1539.14 Q241.363 1541.05 242.284 1543.91 Q243.205 1546.75 246.986 1550.53 Q250.754 1554.3 253.602 1555.23 Q256.451 1556.14 258.366 1554.23 Q260.293 1552.3 259.372 1549.46 Q258.452 1546.6 254.683 1542.83 Q250.902 1539.05 248.054 1538.14 Q245.206 1537.21 243.278 1539.14 M241.314 1537.17 Q244.395 1534.09 248.459 1534.92 Q252.522 1535.71 257.163 1540.35 Q261.791 1544.98 262.601 1549.06 Q263.411 1553.11 260.33 1556.19 Q257.248 1559.27 253.185 1558.47 Q249.122 1557.65 244.494 1553.02 Q239.853 1548.38 239.043 1544.33 Q238.233 1540.26 241.314 1537.17 Z" fill="#000000" fill-rule="nonzero" fill-opacity="1" /><path clip-path="url(#clip200)" d="M267.548 1542.02 L270.138 1539.43 L273.257 1542.55 L270.666 1545.14 L267.548 1542.02 Z" fill="#000000" fill-rule="nonzero" fill-opacity="1" /><path clip-path="url(#clip200)" d="M260.354 1518.8 L270.089 1509.06 L272.176 1511.15 L264.712 1518.61 L269.205 1523.11 Q269.561 1522.38 270.016 1521.76 Q270.458 1521.12 270.998 1520.58 Q274.067 1517.51 277.541 1517.4 Q281.015 1517.29 283.888 1520.16 Q286.846 1523.12 286.65 1526.6 Q286.441 1530.08 283.09 1533.43 Q281.936 1534.58 280.536 1535.59 Q279.149 1536.59 277.479 1537.47 L274.987 1534.98 Q276.694 1534.47 278.167 1533.59 Q279.64 1532.71 280.954 1531.39 Q283.077 1529.27 283.2 1526.91 Q283.323 1524.55 281.408 1522.64 Q279.493 1520.72 277.136 1520.85 Q274.779 1520.97 272.655 1523.09 Q271.661 1524.09 270.887 1525.3 Q270.126 1526.51 269.561 1528 L260.354 1518.8 Z" fill="#000000" fill-rule="nonzero" fill-opacity="1" /><path clip-path="url(#clip200)" d="M283.262 1499.16 Q281.346 1501.07 282.267 1503.93 Q283.188 1506.77 286.969 1510.55 Q290.738 1514.32 293.586 1515.25 Q296.434 1516.16 298.349 1514.24 Q300.276 1512.32 299.355 1509.48 Q298.435 1506.62 294.666 1502.85 Q290.885 1499.07 288.037 1498.16 Q285.189 1497.23 283.262 1499.16 M281.297 1497.19 Q284.379 1494.11 288.442 1494.93 Q292.505 1495.73 297.146 1500.37 Q301.774 1505 302.584 1509.07 Q303.394 1513.13 300.313 1516.21 Q297.232 1519.29 293.168 1518.49 Q289.105 1517.67 284.477 1513.04 Q279.836 1508.4 279.026 1504.35 Q278.216 1500.27 281.297 1497.19 Z" fill="#000000" fill-rule="nonzero" fill-opacity="1" /><path clip-path="url(#clip200)" d="M416.719 1538.29 Q414.804 1540.21 415.725 1543.07 Q416.645 1545.9 420.426 1549.68 Q424.195 1553.45 427.043 1554.39 Q429.891 1555.29 431.806 1553.38 Q433.734 1551.45 432.813 1548.62 Q431.892 1545.76 428.124 1541.99 Q424.343 1538.21 421.494 1537.3 Q418.646 1536.36 416.719 1538.29 M414.755 1536.33 Q417.836 1533.25 421.9 1534.07 Q425.963 1534.87 430.603 1539.51 Q435.231 1544.14 436.042 1548.21 Q436.852 1552.26 433.771 1555.34 Q430.689 1558.42 426.626 1557.63 Q422.563 1556.8 417.934 1552.18 Q413.294 1547.54 412.484 1543.48 Q411.674 1539.41 414.755 1536.33 Z" fill="#000000" fill-rule="nonzero" fill-opacity="1" /><path clip-path="url(#clip200)" d="M440.989 1541.18 L443.579 1538.59 L446.697 1541.7 L444.107 1544.29 L440.989 1541.18 Z" fill="#000000" fill-rule="nonzero" fill-opacity="1" /><path clip-path="url(#clip200)" d="M433.795 1517.95 L443.53 1508.22 L445.617 1510.3 L438.153 1517.77 L442.646 1522.26 Q443.002 1521.53 443.456 1520.91 Q443.898 1520.27 444.439 1519.73 Q447.508 1516.66 450.982 1516.55 Q454.456 1516.44 457.328 1519.31 Q460.287 1522.27 460.091 1525.76 Q459.882 1529.23 456.53 1532.58 Q455.377 1533.74 453.977 1534.74 Q452.59 1535.74 450.92 1536.62 L448.428 1534.13 Q450.135 1533.63 451.608 1532.74 Q453.081 1531.86 454.394 1530.55 Q456.518 1528.42 456.641 1526.06 Q456.764 1523.71 454.849 1521.79 Q452.934 1519.88 450.577 1520 Q448.22 1520.12 446.096 1522.25 Q445.101 1523.24 444.328 1524.46 Q443.567 1525.66 443.002 1527.16 L433.795 1517.95 Z" fill="#000000" fill-rule="nonzero" fill-opacity="1" /><path clip-path="url(#clip200)" d="M468.144 1516.08 L476.798 1507.43 L478.885 1509.52 L467.247 1521.15 L465.161 1519.07 Q465.111 1516.19 465.087 1511.31 Q465.062 1506.4 464.976 1505.06 Q464.829 1502.53 464.375 1501.14 Q463.921 1499.73 463.025 1498.84 Q461.564 1497.38 459.612 1497.49 Q457.672 1497.58 456.027 1499.23 Q454.861 1500.4 453.965 1502.1 Q453.081 1503.8 452.43 1506.09 L449.926 1503.59 Q450.822 1501.49 451.816 1499.88 Q452.811 1498.27 453.891 1497.19 Q456.739 1494.34 459.857 1494.07 Q462.975 1493.8 465.357 1496.18 Q466.486 1497.31 467.076 1498.76 Q467.665 1500.19 467.923 1502.68 Q467.972 1503.34 468.033 1506.69 Q468.082 1510.03 468.144 1516.08 Z" fill="#000000" fill-rule="nonzero" fill-opacity="1" /><path clip-path="url(#clip200)" d="M588.208 1539.4 Q586.293 1541.31 587.214 1544.17 Q588.134 1547.01 591.915 1550.79 Q595.684 1554.56 598.532 1555.49 Q601.38 1556.4 603.295 1554.48 Q605.223 1552.56 604.302 1549.72 Q603.381 1546.86 599.612 1543.09 Q595.831 1539.31 592.983 1538.4 Q590.135 1537.47 588.208 1539.4 M586.244 1537.43 Q589.325 1534.35 593.389 1535.17 Q597.452 1535.97 602.092 1540.61 Q606.72 1545.24 607.531 1549.32 Q608.341 1553.37 605.259 1556.45 Q602.178 1559.53 598.115 1558.73 Q594.051 1557.91 589.423 1553.28 Q584.783 1548.64 583.973 1544.59 Q583.163 1540.51 586.244 1537.43 Z" fill="#000000" fill-rule="nonzero" fill-opacity="1" /><path clip-path="url(#clip200)" d="M612.478 1542.28 L615.068 1539.69 L618.186 1542.81 L615.596 1545.4 L612.478 1542.28 Z" fill="#000000" fill-rule="nonzero" fill-opacity="1" /><path clip-path="url(#clip200)" d="M605.284 1519.06 L615.019 1509.32 L617.106 1511.41 L609.642 1518.87 L614.135 1523.36 Q614.491 1522.64 614.945 1522.01 Q615.387 1521.38 615.927 1520.84 Q618.996 1517.77 622.471 1517.66 Q625.945 1517.55 628.817 1520.42 Q631.776 1523.38 631.579 1526.86 Q631.371 1530.34 628.019 1533.69 Q626.865 1534.84 625.466 1535.85 Q624.079 1536.84 622.409 1537.73 L619.917 1535.24 Q621.624 1534.73 623.097 1533.85 Q624.57 1532.96 625.883 1531.65 Q628.007 1529.53 628.13 1527.17 Q628.253 1524.81 626.338 1522.9 Q624.422 1520.98 622.065 1521.11 Q619.708 1521.23 617.585 1523.35 Q616.59 1524.35 615.817 1525.56 Q615.056 1526.76 614.491 1528.26 L605.284 1519.06 Z" fill="#000000" fill-rule="nonzero" fill-opacity="1" /><path clip-path="url(#clip200)" d="M630.229 1498.43 L633.752 1514.48 L640.013 1508.22 L630.229 1498.43 M627.418 1496.92 L630.536 1493.8 L642.481 1505.75 L645.095 1503.13 L647.158 1505.2 L644.543 1507.81 L648.864 1512.13 L646.397 1514.6 L642.076 1510.28 L633.801 1518.55 L631.408 1516.16 L627.418 1496.92 Z" fill="#000000" fill-rule="nonzero" fill-opacity="1" /><path clip-path="url(#clip200)" d="M760.974 1539.22 Q759.059 1541.14 759.979 1544 Q760.9 1546.84 764.681 1550.62 Q768.45 1554.39 771.298 1555.32 Q774.146 1556.23 776.061 1554.31 Q777.988 1552.38 777.068 1549.55 Q776.147 1546.69 772.378 1542.92 Q768.597 1539.14 765.749 1538.23 Q762.901 1537.3 760.974 1539.22 M759.009 1537.26 Q762.091 1534.18 766.154 1535 Q770.218 1535.8 774.858 1540.44 Q779.486 1545.07 780.296 1549.14 Q781.106 1553.19 778.025 1556.28 Q774.944 1559.36 770.88 1558.56 Q766.817 1557.74 762.189 1553.11 Q757.549 1548.47 756.738 1544.42 Q755.928 1540.34 759.009 1537.26 Z" fill="#000000" fill-rule="nonzero" fill-opacity="1" /><path clip-path="url(#clip200)" d="M785.243 1542.11 L787.834 1539.52 L790.952 1542.64 L788.362 1545.23 L785.243 1542.11 Z" fill="#000000" fill-rule="nonzero" fill-opacity="1" /><path clip-path="url(#clip200)" d="M778.05 1518.88 L787.785 1509.15 L789.872 1511.24 L782.408 1518.7 L786.901 1523.19 Q787.257 1522.47 787.711 1521.84 Q788.153 1521.2 788.693 1520.66 Q791.762 1517.59 795.236 1517.48 Q798.71 1517.37 801.583 1520.25 Q804.541 1523.2 804.345 1526.69 Q804.136 1530.17 800.785 1533.52 Q799.631 1534.67 798.232 1535.68 Q796.844 1536.67 795.175 1537.56 L792.683 1535.06 Q794.389 1534.56 795.862 1533.68 Q797.335 1532.79 798.649 1531.48 Q800.773 1529.35 800.895 1527 Q801.018 1524.64 799.103 1522.73 Q797.188 1520.81 794.831 1520.93 Q792.474 1521.06 790.35 1523.18 Q789.356 1524.17 788.583 1525.39 Q787.821 1526.59 787.257 1528.09 L778.05 1518.88 Z" fill="#000000" fill-rule="nonzero" fill-opacity="1" /><path clip-path="url(#clip200)" d="M807.807 1505.48 Q806.137 1507.15 806.297 1509.27 Q806.469 1511.38 808.458 1513.37 Q810.434 1515.35 812.558 1515.53 Q814.682 1515.69 816.351 1514.02 Q818.021 1512.35 817.849 1510.24 Q817.677 1508.1 815.7 1506.13 Q813.712 1504.14 811.588 1503.98 Q809.476 1503.81 807.807 1505.48 M804.959 1492.78 L807.218 1495.04 Q805.843 1495.53 804.652 1496.26 Q803.473 1496.97 802.54 1497.9 Q800.085 1500.36 800.441 1503.32 Q800.81 1506.26 803.977 1509.8 Q803.633 1508.01 804.161 1506.35 Q804.677 1504.68 805.99 1503.37 Q808.752 1500.6 812.03 1500.69 Q815.308 1500.75 818.192 1503.64 Q821.016 1506.46 821.053 1509.84 Q821.09 1513.21 818.315 1515.99 Q815.136 1519.17 811.023 1518.42 Q806.898 1517.66 802.27 1513.03 Q797.925 1508.68 797.409 1504.04 Q796.881 1499.39 800.355 1495.91 Q801.288 1494.98 802.418 1494.22 Q803.559 1493.45 804.959 1492.78 Z" fill="#000000" fill-rule="nonzero" fill-opacity="1" /><path clip-path="url(#clip200)" d="M933.702 1539.09 Q931.787 1541 932.708 1543.87 Q933.629 1546.7 937.41 1550.48 Q941.179 1554.25 944.027 1555.18 Q946.875 1556.09 948.79 1554.18 Q950.717 1552.25 949.796 1549.41 Q948.876 1546.55 945.107 1542.78 Q941.326 1539 938.478 1538.1 Q935.63 1537.16 933.702 1539.09 M931.738 1537.13 Q934.82 1534.04 938.883 1534.87 Q942.946 1535.66 947.587 1540.31 Q952.215 1544.93 953.025 1549.01 Q953.835 1553.06 950.754 1556.14 Q947.673 1559.22 943.609 1558.42 Q939.546 1557.6 934.918 1552.97 Q930.277 1548.33 929.467 1544.28 Q928.657 1540.21 931.738 1537.13 Z" fill="#000000" fill-rule="nonzero" fill-opacity="1" /><path clip-path="url(#clip200)" d="M957.972 1541.97 L960.563 1539.38 L963.681 1542.5 L961.09 1545.09 L957.972 1541.97 Z" fill="#000000" fill-rule="nonzero" fill-opacity="1" /><path clip-path="url(#clip200)" d="M950.778 1518.75 L960.513 1509.01 L962.6 1511.1 L955.136 1518.56 L959.63 1523.06 Q959.986 1522.33 960.44 1521.71 Q960.882 1521.07 961.422 1520.53 Q964.491 1517.46 967.965 1517.35 Q971.439 1517.24 974.312 1520.11 Q977.27 1523.07 977.074 1526.56 Q976.865 1530.03 973.514 1533.38 Q972.36 1534.54 970.96 1535.54 Q969.573 1536.54 967.904 1537.42 L965.412 1534.93 Q967.118 1534.42 968.591 1533.54 Q970.064 1532.66 971.378 1531.34 Q973.502 1529.22 973.624 1526.86 Q973.747 1524.51 971.832 1522.59 Q969.917 1520.68 967.56 1520.8 Q965.203 1520.92 963.079 1523.04 Q962.085 1524.04 961.311 1525.25 Q960.55 1526.46 959.986 1527.96 L950.778 1518.75 Z" fill="#000000" fill-rule="nonzero" fill-opacity="1" /><path clip-path="url(#clip200)" d="M981.677 1507.1 Q979.91 1508.87 979.836 1510.83 Q979.775 1512.78 981.432 1514.44 Q983.089 1516.1 985.041 1516.04 Q987.005 1515.96 988.773 1514.19 Q990.541 1512.43 990.614 1510.46 Q990.676 1508.49 989.031 1506.84 Q987.374 1505.18 985.409 1505.26 Q983.457 1505.32 981.677 1507.1 M978.142 1508.52 Q976.153 1509.73 974.164 1509.53 Q972.188 1509.32 970.617 1507.75 Q968.419 1505.55 968.702 1502.72 Q968.996 1499.87 971.721 1497.14 Q974.459 1494.4 977.295 1494.12 Q980.131 1493.84 982.328 1496.04 Q983.899 1497.61 984.096 1499.6 Q984.304 1501.57 983.114 1503.55 Q985.323 1502.18 987.533 1502.4 Q989.755 1502.61 991.511 1504.36 Q994.174 1507.02 993.966 1510.08 Q993.769 1513.13 990.737 1516.16 Q987.705 1519.19 984.648 1519.4 Q981.604 1519.6 978.94 1516.93 Q977.184 1515.18 976.976 1512.95 Q976.767 1510.73 978.142 1508.52 M973.317 1505.51 Q974.741 1506.94 976.423 1506.85 Q978.117 1506.75 979.725 1505.15 Q981.321 1503.55 981.42 1501.86 Q981.53 1500.15 980.106 1498.73 Q978.682 1497.3 976.976 1497.41 Q975.282 1497.51 973.686 1499.11 Q972.077 1500.71 971.979 1502.41 Q971.893 1504.09 973.317 1505.51 Z" fill="#000000" fill-rule="nonzero" fill-opacity="1" /><polyline clip-path="url(#clip200)" style="stroke:#000000; stroke-linecap:round; stroke-linejoin:round; stroke-width:4; stroke-opacity:1; fill:none" points="161.818,1467.41 161.818,897.552 "/>
<polyline clip-path="url(#clip200)" style="stroke:#000000; stroke-linecap:round; stroke-linejoin:round; stroke-width:4; stroke-opacity:1; fill:none" points="161.818,1451.28 180.716,1451.28 "/>
<polyline clip-path="url(#clip200)" style="stroke:#000000; stroke-linecap:round; stroke-linejoin:round; stroke-width:4; stroke-opacity:1; fill:none" points="161.818,1330.44 180.716,1330.44 "/>
<polyline clip-path="url(#clip200)" style="stroke:#000000; stroke-linecap:round; stroke-linejoin:round; stroke-width:4; stroke-opacity:1; fill:none" points="161.818,1209.59 180.716,1209.59 "/>
<polyline clip-path="url(#clip200)" style="stroke:#000000; stroke-linecap:round; stroke-linejoin:round; stroke-width:4; stroke-opacity:1; fill:none" points="161.818,1088.75 180.716,1088.75 "/>
<polyline clip-path="url(#clip200)" style="stroke:#000000; stroke-linecap:round; stroke-linejoin:round; stroke-width:4; stroke-opacity:1; fill:none" points="161.818,967.911 180.716,967.911 "/>
<path clip-path="url(#clip200)" d="M60.315 1440.63 Q57.6067 1440.63 56.2352 1443.3 Q54.881 1445.96 54.881 1451.3 Q54.881 1456.63 56.2352 1459.31 Q57.6067 1461.96 60.315 1461.96 Q63.0407 1461.96 64.3948 1459.31 Q65.7664 1456.63 65.7664 1451.3 Q65.7664 1445.96 64.3948 1443.3 Q63.0407 1440.63 60.315 1440.63 M60.315 1437.85 Q64.6726 1437.85 66.9643 1441.3 Q69.2733 1444.74 69.2733 1451.3 Q69.2733 1457.85 66.9643 1461.3 Q64.6726 1464.74 60.315 1464.74 Q55.9574 1464.74 53.6484 1461.3 Q51.3567 1457.85 51.3567 1451.3 Q51.3567 1444.74 53.6484 1441.3 Q55.9574 1437.85 60.315 1437.85 Z" fill="#000000" fill-rule="nonzero" fill-opacity="1" /><path clip-path="url(#clip200)" d="M75.4364 1459.83 L79.0996 1459.83 L79.0996 1464.24 L75.4364 1464.24 L75.4364 1459.83 Z" fill="#000000" fill-rule="nonzero" fill-opacity="1" /><path clip-path="url(#clip200)" d="M94.2384 1440.63 Q91.5301 1440.63 90.1586 1443.3 Q88.8044 1445.96 88.8044 1451.3 Q88.8044 1456.63 90.1586 1459.31 Q91.5301 1461.96 94.2384 1461.96 Q96.9641 1461.96 98.3183 1459.31 Q99.6898 1456.63 99.6898 1451.3 Q99.6898 1445.96 98.3183 1443.3 Q96.9641 1440.63 94.2384 1440.63 M94.2384 1437.85 Q98.596 1437.85 100.888 1441.3 Q103.197 1444.74 103.197 1451.3 Q103.197 1457.85 100.888 1461.3 Q98.596 1464.74 94.2384 1464.74 Q89.8808 1464.74 87.5718 1461.3 Q85.2801 1457.85 85.2801 1451.3 Q85.2801 1444.74 87.5718 1441.3 Q89.8808 1437.85 94.2384 1437.85 Z" fill="#000000" fill-rule="nonzero" fill-opacity="1" /><path clip-path="url(#clip200)" d="M116.86 1440.63 Q114.152 1440.63 112.78 1443.3 Q111.426 1445.96 111.426 1451.3 Q111.426 1456.63 112.78 1459.31 Q114.152 1461.96 116.86 1461.96 Q119.586 1461.96 120.94 1459.31 Q122.311 1456.63 122.311 1451.3 Q122.311 1445.96 120.94 1443.3 Q119.586 1440.63 116.86 1440.63 M116.86 1437.85 Q121.217 1437.85 123.509 1441.3 Q125.818 1444.74 125.818 1451.3 Q125.818 1457.85 123.509 1461.3 Q121.217 1464.74 116.86 1464.74 Q112.502 1464.74 110.193 1461.3 Q107.902 1457.85 107.902 1451.3 Q107.902 1444.74 110.193 1441.3 Q112.502 1437.85 116.86 1437.85 Z" fill="#000000" fill-rule="nonzero" fill-opacity="1" /><path clip-path="url(#clip200)" d="M61.2351 1319.79 Q58.5268 1319.79 57.1553 1322.46 Q55.8011 1325.12 55.8011 1330.46 Q55.8011 1335.79 57.1553 1338.47 Q58.5268 1341.12 61.2351 1341.12 Q63.9608 1341.12 65.315 1338.47 Q66.6865 1335.79 66.6865 1330.46 Q66.6865 1325.12 65.315 1322.46 Q63.9608 1319.79 61.2351 1319.79 M61.2351 1317.01 Q65.5927 1317.01 67.8844 1320.46 Q70.1934 1323.9 70.1934 1330.46 Q70.1934 1337.01 67.8844 1340.46 Q65.5927 1343.9 61.2351 1343.9 Q56.8775 1343.9 54.5685 1340.46 Q52.2768 1337.01 52.2768 1330.46 Q52.2768 1323.9 54.5685 1320.46 Q56.8775 1317.01 61.2351 1317.01 Z" fill="#000000" fill-rule="nonzero" fill-opacity="1" /><path clip-path="url(#clip200)" d="M76.3566 1338.99 L80.0197 1338.99 L80.0197 1343.4 L76.3566 1343.4 L76.3566 1338.99 Z" fill="#000000" fill-rule="nonzero" fill-opacity="1" /><path clip-path="url(#clip200)" d="M95.1586 1319.79 Q92.4502 1319.79 91.0787 1322.46 Q89.7246 1325.12 89.7246 1330.46 Q89.7246 1335.79 91.0787 1338.47 Q92.4502 1341.12 95.1586 1341.12 Q97.8842 1341.12 99.2384 1338.47 Q100.61 1335.79 100.61 1330.46 Q100.61 1325.12 99.2384 1322.46 Q97.8842 1319.79 95.1586 1319.79 M95.1586 1317.01 Q99.5162 1317.01 101.808 1320.46 Q104.117 1323.9 104.117 1330.46 Q104.117 1337.01 101.808 1340.46 Q99.5162 1343.9 95.1586 1343.9 Q90.8009 1343.9 88.4919 1340.46 Q86.2003 1337.01 86.2003 1330.46 Q86.2003 1323.9 88.4919 1320.46 Q90.8009 1317.01 95.1586 1317.01 Z" fill="#000000" fill-rule="nonzero" fill-opacity="1" /><path clip-path="url(#clip200)" d="M110.888 1340.45 L116.617 1340.45 L116.617 1320.67 L110.384 1321.92 L110.384 1318.73 L116.582 1317.48 L120.089 1317.48 L120.089 1340.45 L125.818 1340.45 L125.818 1343.4 L110.888 1343.4 L110.888 1340.45 Z" fill="#000000" fill-rule="nonzero" fill-opacity="1" /><path clip-path="url(#clip200)" d="M61.5129 1198.94 Q58.8046 1198.94 57.4331 1201.62 Q56.0789 1204.27 56.0789 1209.62 Q56.0789 1214.95 57.4331 1217.62 Q58.8046 1220.28 61.5129 1220.28 Q64.2386 1220.28 65.5927 1217.62 Q66.9643 1214.95 66.9643 1209.62 Q66.9643 1204.27 65.5927 1201.62 Q64.2386 1198.94 61.5129 1198.94 M61.5129 1196.17 Q65.8705 1196.17 68.1622 1199.62 Q70.4712 1203.06 70.4712 1209.62 Q70.4712 1216.17 68.1622 1219.62 Q65.8705 1223.06 61.5129 1223.06 Q57.1553 1223.06 54.8463 1219.62 Q52.5546 1216.17 52.5546 1209.62 Q52.5546 1203.06 54.8463 1199.62 Q57.1553 1196.17 61.5129 1196.17 Z" fill="#000000" fill-rule="nonzero" fill-opacity="1" /><path clip-path="url(#clip200)" d="M76.6343 1218.14 L80.2975 1218.14 L80.2975 1222.55 L76.6343 1222.55 L76.6343 1218.14 Z" fill="#000000" fill-rule="nonzero" fill-opacity="1" /><path clip-path="url(#clip200)" d="M95.4363 1198.94 Q92.728 1198.94 91.3565 1201.62 Q90.0023 1204.27 90.0023 1209.62 Q90.0023 1214.95 91.3565 1217.62 Q92.728 1220.28 95.4363 1220.28 Q98.162 1220.28 99.5162 1217.62 Q100.888 1214.95 100.888 1209.62 Q100.888 1204.27 99.5162 1201.62 Q98.162 1198.94 95.4363 1198.94 M95.4363 1196.17 Q99.7939 1196.17 102.086 1199.62 Q104.395 1203.06 104.395 1209.62 Q104.395 1216.17 102.086 1219.62 Q99.7939 1223.06 95.4363 1223.06 Q91.0787 1223.06 88.7697 1219.62 Q86.478 1216.17 86.478 1209.62 Q86.478 1203.06 88.7697 1199.62 Q91.0787 1196.17 95.4363 1196.17 Z" fill="#000000" fill-rule="nonzero" fill-opacity="1" /><path clip-path="url(#clip200)" d="M113.579 1219.6 L125.818 1219.6 L125.818 1222.55 L109.36 1222.55 L109.36 1219.6 Q111.356 1217.54 114.794 1214.07 Q118.249 1210.58 119.134 1209.57 Q120.818 1207.68 121.478 1206.37 Q122.155 1205.05 122.155 1203.79 Q122.155 1201.72 120.697 1200.42 Q119.256 1199.12 116.929 1199.12 Q115.28 1199.12 113.44 1199.69 Q111.617 1200.26 109.533 1201.43 L109.533 1197.88 Q111.652 1197.03 113.492 1196.6 Q115.332 1196.17 116.86 1196.17 Q120.888 1196.17 123.283 1198.18 Q125.679 1200.19 125.679 1203.56 Q125.679 1205.16 125.072 1206.6 Q124.481 1208.02 122.901 1209.97 Q122.467 1210.47 120.141 1212.88 Q117.815 1215.28 113.579 1219.6 Z" fill="#000000" fill-rule="nonzero" fill-opacity="1" /><path clip-path="url(#clip200)" d="M60.8011 1078.1 Q58.0928 1078.1 56.7213 1080.78 Q55.3671 1083.43 55.3671 1088.78 Q55.3671 1094.11 56.7213 1096.78 Q58.0928 1099.44 60.8011 1099.44 Q63.5268 1099.44 64.8809 1096.78 Q66.2525 1094.11 66.2525 1088.78 Q66.2525 1083.43 64.8809 1080.78 Q63.5268 1078.1 60.8011 1078.1 M60.8011 1075.32 Q65.1587 1075.32 67.4504 1078.78 Q69.7594 1082.22 69.7594 1088.78 Q69.7594 1095.32 67.4504 1098.78 Q65.1587 1102.22 60.8011 1102.22 Q56.4435 1102.22 54.1345 1098.78 Q51.8428 1095.32 51.8428 1088.78 Q51.8428 1082.22 54.1345 1078.78 Q56.4435 1075.32 60.8011 1075.32 Z" fill="#000000" fill-rule="nonzero" fill-opacity="1" /><path clip-path="url(#clip200)" d="M75.9225 1097.3 L79.5857 1097.3 L79.5857 1101.71 L75.9225 1101.71 L75.9225 1097.3 Z" fill="#000000" fill-rule="nonzero" fill-opacity="1" /><path clip-path="url(#clip200)" d="M94.7245 1078.1 Q92.0162 1078.1 90.6447 1080.78 Q89.2905 1083.43 89.2905 1088.78 Q89.2905 1094.11 90.6447 1096.78 Q92.0162 1099.44 94.7245 1099.44 Q97.4502 1099.44 98.8044 1096.78 Q100.176 1094.11 100.176 1088.78 Q100.176 1083.43 98.8044 1080.78 Q97.4502 1078.1 94.7245 1078.1 M94.7245 1075.32 Q99.0821 1075.32 101.374 1078.78 Q103.683 1082.22 103.683 1088.78 Q103.683 1095.32 101.374 1098.78 Q99.0821 1102.22 94.7245 1102.22 Q90.3669 1102.22 88.0579 1098.78 Q85.7662 1095.32 85.7662 1088.78 Q85.7662 1082.22 88.0579 1078.78 Q90.3669 1075.32 94.7245 1075.32 Z" fill="#000000" fill-rule="nonzero" fill-opacity="1" /><path clip-path="url(#clip200)" d="M120.471 1087.74 Q122.988 1088.28 124.395 1089.98 Q125.818 1091.68 125.818 1094.18 Q125.818 1098.01 123.179 1100.12 Q120.54 1102.22 115.679 1102.22 Q114.047 1102.22 112.311 1101.89 Q110.593 1101.57 108.752 1100.93 L108.752 1097.55 Q110.211 1098.4 111.947 1098.83 Q113.683 1099.26 115.575 1099.26 Q118.874 1099.26 120.592 1097.96 Q122.329 1096.66 122.329 1094.18 Q122.329 1091.89 120.714 1090.6 Q119.117 1089.3 116.252 1089.3 L113.231 1089.3 L113.231 1086.42 L116.391 1086.42 Q118.978 1086.42 120.349 1085.39 Q121.721 1084.35 121.721 1082.41 Q121.721 1080.41 120.297 1079.35 Q118.891 1078.28 116.252 1078.28 Q114.811 1078.28 113.162 1078.59 Q111.513 1078.9 109.533 1079.56 L109.533 1076.44 Q111.53 1075.88 113.266 1075.6 Q115.02 1075.32 116.565 1075.32 Q120.558 1075.32 122.884 1077.15 Q125.21 1078.95 125.21 1082.04 Q125.21 1084.2 123.978 1085.69 Q122.745 1087.16 120.471 1087.74 Z" fill="#000000" fill-rule="nonzero" fill-opacity="1" /><path clip-path="url(#clip200)" d="M59.9504 957.26 Q57.2421 957.26 55.8706 959.933 Q54.5164 962.59 54.5164 967.937 Q54.5164 973.267 55.8706 975.94 Q57.2421 978.596 59.9504 978.596 Q62.6761 978.596 64.0303 975.94 Q65.4018 973.267 65.4018 967.937 Q65.4018 962.59 64.0303 959.933 Q62.6761 957.26 59.9504 957.26 M59.9504 954.482 Q64.308 954.482 66.5997 957.937 Q68.9087 961.374 68.9087 967.937 Q68.9087 974.482 66.5997 977.937 Q64.308 981.374 59.9504 981.374 Q55.5928 981.374 53.2838 977.937 Q50.9921 974.482 50.9921 967.937 Q50.9921 961.374 53.2838 957.937 Q55.5928 954.482 59.9504 954.482 Z" fill="#000000" fill-rule="nonzero" fill-opacity="1" /><path clip-path="url(#clip200)" d="M75.0719 976.461 L78.735 976.461 L78.735 980.871 L75.0719 980.871 L75.0719 976.461 Z" fill="#000000" fill-rule="nonzero" fill-opacity="1" /><path clip-path="url(#clip200)" d="M93.8738 957.26 Q91.1655 957.26 89.794 959.933 Q88.4398 962.59 88.4398 967.937 Q88.4398 973.267 89.794 975.94 Q91.1655 978.596 93.8738 978.596 Q96.5995 978.596 97.9537 975.94 Q99.3252 973.267 99.3252 967.937 Q99.3252 962.59 97.9537 959.933 Q96.5995 957.26 93.8738 957.26 M93.8738 954.482 Q98.2315 954.482 100.523 957.937 Q102.832 961.374 102.832 967.937 Q102.832 974.482 100.523 977.937 Q98.2315 981.374 93.8738 981.374 Q89.5162 981.374 87.2072 977.937 Q84.9156 974.482 84.9156 967.937 Q84.9156 961.374 87.2072 957.937 Q89.5162 954.482 93.8738 954.482 Z" fill="#000000" fill-rule="nonzero" fill-opacity="1" /><path clip-path="url(#clip200)" d="M118.631 958.006 L109.777 971.843 L118.631 971.843 L118.631 958.006 M117.711 954.951 L122.12 954.951 L122.12 971.843 L125.818 971.843 L125.818 974.76 L122.12 974.76 L122.12 980.871 L118.631 980.871 L118.631 974.76 L106.929 974.76 L106.929 971.374 L117.711 954.951 Z" fill="#000000" fill-rule="nonzero" fill-opacity="1" /><path clip-path="url(#clip200)" d="M173.716 818.926 Q170.198 818.926 168.3 821.472 Q166.309 824.134 166.309 828.532 Q166.309 833.185 168.276 835.87 Q170.267 838.532 173.716 838.532 Q177.119 838.532 179.11 835.847 Q181.1 833.162 181.1 828.532 Q181.1 824.296 179.11 821.472 Q177.281 818.926 173.716 818.926 M173.716 815.546 L187.86 815.546 L187.86 819.805 L183.091 819.805 Q185.614 823.417 185.614 828.532 Q185.614 834.898 182.443 838.509 Q179.272 842.143 173.716 842.143 Q168.138 842.143 164.989 838.509 Q161.818 834.898 161.818 828.532 Q161.818 822.12 164.989 818.532 Q167.605 815.546 173.716 815.546 Z" fill="#000000" fill-rule="nonzero" fill-opacity="1" /><path clip-path="url(#clip200)" d="M198.878 841.472 L190.961 815.546 L195.545 815.546 L202.235 837.305 Q205.012 834.435 207.327 830.454 Q209.086 827.467 209.179 824.875 Q209.225 823.648 208.67 821.333 Q208.022 818.579 205.568 815.546 L209.873 815.546 L209.873 815.546 Q211.471 817.606 212.535 820.477 Q213.508 823.116 213.508 824.921 Q213.508 829.458 210.36 833.509 Q206.262 838.787 203.415 841.472 L198.878 841.472 Z" fill="#000000" fill-rule="nonzero" fill-opacity="1" /><polyline clip-path="url(#clip204)" style="stroke:#009af9; stroke-linecap:round; stroke-linejoin:round; stroke-width:4; stroke-opacity:1; fill:none" points="189.869,964.958 248.307,1022.94 306.746,1081.73 365.185,1141.32 423.623,1201.71 482.062,1262.9 540.501,1324.89 598.939,1387.68 657.378,1451.28 715.817,1386.88 774.256,1321.69 832.694,1255.69 891.133,1188.89 949.572,1121.29 1008.01,1052.89 1066.45,983.684 1124.89,913.68 "/>
<circle clip-path="url(#clip204)" cx="657.378" cy="1451.28" r="10.8" fill="#ff0000" fill-rule="evenodd" fill-opacity="1" stroke="#000000" stroke-opacity="1" stroke-width="3.2"/>
</svg>
