<?xml version="1.0" encoding="utf-8"?>
<svg xmlns="http://www.w3.org/2000/svg" xmlns:xlink="http://www.w3.org/1999/xlink" width="600" height="400" viewBox="0 0 2400 1600">
<defs>
  <clipPath id="clip310">
    <rect x="0" y="0" width="2400" height="1600"/>
  </clipPath>
</defs>
<path clip-path="url(#clip310)" d="M0 1600 L2400 1600 L2400 0 L0 0  Z" fill="#ffffff" fill-rule="evenodd" fill-opacity="1"/>
<defs>
  <clipPath id="clip311">
    <rect x="480" y="0" width="1681" height="1600"/>
  </clipPath>
</defs>
<path clip-path="url(#clip310)" d="M128.138 662.16 L1152.76 662.16 L1152.76 97.5521 L128.138 97.5521  Z" fill="#ffffff" fill-rule="evenodd" fill-opacity="1"/>
<defs>
  <clipPath id="clip312">
    <rect x="128" y="97" width="1026" height="566"/>
  </clipPath>
</defs>
<polyline clip-path="url(#clip312)" style="stroke:#000000; stroke-linecap:round; stroke-linejoin:round; stroke-width:2; stroke-opacity:0.1; fill:none" points="314.766,662.16 314.766,97.5521 "/>
<polyline clip-path="url(#clip312)" style="stroke:#000000; stroke-linecap:round; stroke-linejoin:round; stroke-width:2; stroke-opacity:0.1; fill:none" points="575.311,662.16 575.311,97.5521 "/>
<polyline clip-path="url(#clip312)" style="stroke:#000000; stroke-linecap:round; stroke-linejoin:round; stroke-width:2; stroke-opacity:0.1; fill:none" points="835.855,662.16 835.855,97.5521 "/>
<polyline clip-path="url(#clip312)" style="stroke:#000000; stroke-linecap:round; stroke-linejoin:round; stroke-width:2; stroke-opacity:0.1; fill:none" points="1096.4,662.16 1096.4,97.5521 "/>
<polyline clip-path="url(#clip312)" style="stroke:#000000; stroke-linecap:round; stroke-linejoin:round; stroke-width:2; stroke-opacity:0.1; fill:none" points="128.138,662.16 1152.76,662.16 "/>
<polyline clip-path="url(#clip312)" style="stroke:#000000; stroke-linecap:round; stroke-linejoin:round; stroke-width:2; stroke-opacity:0.1; fill:none" points="128.138,575.298 1152.76,575.298 "/>
<polyline clip-path="url(#clip312)" style="stroke:#000000; stroke-linecap:round; stroke-linejoin:round; stroke-width:2; stroke-opacity:0.1; fill:none" points="128.138,488.435 1152.76,488.435 "/>
<polyline clip-path="url(#clip312)" style="stroke:#000000; stroke-linecap:round; stroke-linejoin:round; stroke-width:2; stroke-opacity:0.1; fill:none" points="128.138,401.572 1152.76,401.572 "/>
<polyline clip-path="url(#clip312)" style="stroke:#000000; stroke-linecap:round; stroke-linejoin:round; stroke-width:2; stroke-opacity:0.1; fill:none" points="128.138,314.709 1152.76,314.709 "/>
<polyline clip-path="url(#clip312)" style="stroke:#000000; stroke-linecap:round; stroke-linejoin:round; stroke-width:2; stroke-opacity:0.1; fill:none" points="128.138,227.846 1152.76,227.846 "/>
<polyline clip-path="url(#clip312)" style="stroke:#000000; stroke-linecap:round; stroke-linejoin:round; stroke-width:2; stroke-opacity:0.1; fill:none" points="128.138,140.984 1152.76,140.984 "/>
<polyline clip-path="url(#clip310)" style="stroke:#000000; stroke-linecap:round; stroke-linejoin:round; stroke-width:4; stroke-opacity:1; fill:none" points="128.138,662.16 1152.76,662.16 "/>
<polyline clip-path="url(#clip310)" style="stroke:#000000; stroke-linecap:round; stroke-linejoin:round; stroke-width:4; stroke-opacity:1; fill:none" points="314.766,662.16 314.766,643.263 "/>
<polyline clip-path="url(#clip310)" style="stroke:#000000; stroke-linecap:round; stroke-linejoin:round; stroke-width:4; stroke-opacity:1; fill:none" points="575.311,662.16 575.311,643.263 "/>
<polyline clip-path="url(#clip310)" style="stroke:#000000; stroke-linecap:round; stroke-linejoin:round; stroke-width:4; stroke-opacity:1; fill:none" points="835.855,662.16 835.855,643.263 "/>
<polyline clip-path="url(#clip310)" style="stroke:#000000; stroke-linecap:round; stroke-linejoin:round; stroke-width:4; stroke-opacity:1; fill:none" points="1096.4,662.16 1096.4,643.263 "/>
<path clip-path="url(#clip310)" d="M260.966 733.844 Q259.051 735.759 259.972 738.619 Q260.892 741.455 264.673 745.236 Q268.442 749.005 271.29 749.938 Q274.138 750.846 276.053 748.931 Q277.981 747.004 277.06 744.168 Q276.139 741.308 272.37 737.539 Q268.589 733.758 265.741 732.849 Q262.893 731.916 260.966 733.844 M259.002 731.88 Q262.083 728.798 266.146 729.621 Q270.21 730.419 274.85 735.059 Q279.478 739.687 280.289 743.763 Q281.099 747.814 278.017 750.895 Q274.936 753.977 270.873 753.179 Q266.809 752.356 262.181 747.728 Q257.541 743.088 256.731 739.037 Q255.92 734.961 259.002 731.88 Z" fill="#000000" fill-rule="nonzero" fill-opacity="1" /><path clip-path="url(#clip310)" d="M285.236 736.729 L287.826 734.138 L290.944 737.256 L288.354 739.847 L285.236 736.729 Z" fill="#000000" fill-rule="nonzero" fill-opacity="1" /><path clip-path="url(#clip310)" d="M292.945 717.848 Q291.177 719.616 291.104 721.58 Q291.042 723.532 292.7 725.189 Q294.357 726.846 296.309 726.785 Q298.273 726.711 300.041 724.944 Q301.809 723.176 301.882 721.212 Q301.944 719.235 300.299 717.59 Q298.641 715.933 296.677 716.007 Q294.725 716.068 292.945 717.848 M289.41 719.272 Q287.421 720.475 285.432 720.279 Q283.456 720.07 281.884 718.499 Q279.687 716.301 279.969 713.465 Q280.264 710.617 282.989 707.892 Q285.727 705.155 288.563 704.872 Q291.398 704.59 293.596 706.787 Q295.167 708.359 295.364 710.347 Q295.572 712.324 294.381 714.3 Q296.591 712.925 298.801 713.146 Q301.023 713.355 302.778 715.11 Q305.442 717.774 305.234 720.831 Q305.037 723.876 302.005 726.908 Q298.973 729.94 295.916 730.149 Q292.872 730.345 290.208 727.681 Q288.452 725.926 288.243 723.704 Q288.035 721.482 289.41 719.272 M284.585 716.264 Q286.009 717.688 287.691 717.602 Q289.385 717.504 290.993 715.896 Q292.589 714.3 292.687 712.606 Q292.798 710.9 291.374 709.476 Q289.95 708.052 288.243 708.162 Q286.549 708.26 284.953 709.856 Q283.345 711.464 283.247 713.159 Q283.161 714.84 284.585 716.264 Z" fill="#000000" fill-rule="nonzero" fill-opacity="1" /><path clip-path="url(#clip310)" d="M308.941 701.852 Q307.173 703.62 307.1 705.584 Q307.038 707.536 308.695 709.193 Q310.353 710.851 312.305 710.789 Q314.269 710.716 316.036 708.948 Q317.804 707.18 317.878 705.216 Q317.939 703.239 316.294 701.594 Q314.637 699.937 312.673 700.011 Q310.721 700.072 308.941 701.852 M305.405 703.276 Q303.417 704.479 301.428 704.283 Q299.451 704.074 297.88 702.503 Q295.683 700.305 295.965 697.47 Q296.26 694.622 298.985 691.896 Q301.723 689.159 304.558 688.876 Q307.394 688.594 309.592 690.791 Q311.163 692.363 311.359 694.352 Q311.568 696.328 310.377 698.304 Q312.587 696.93 314.797 697.15 Q317.019 697.359 318.774 699.115 Q321.438 701.779 321.229 704.835 Q321.033 707.88 318.001 710.912 Q314.968 713.944 311.912 714.153 Q308.867 714.349 306.203 711.685 Q304.448 709.93 304.239 707.708 Q304.03 705.486 305.405 703.276 M300.581 700.269 Q302.005 701.693 303.687 701.607 Q305.381 701.509 306.989 699.9 Q308.585 698.304 308.683 696.61 Q308.794 694.904 307.37 693.48 Q305.946 692.056 304.239 692.166 Q302.545 692.265 300.949 693.861 Q299.341 695.469 299.243 697.163 Q299.157 698.845 300.581 700.269 Z" fill="#000000" fill-rule="nonzero" fill-opacity="1" /><path clip-path="url(#clip310)" d="M521.56 733.795 Q519.645 735.71 520.565 738.57 Q521.486 741.406 525.267 745.187 Q529.036 748.956 531.884 749.889 Q534.732 750.797 536.647 748.882 Q538.574 746.955 537.654 744.119 Q536.733 741.259 532.964 737.49 Q529.183 733.709 526.335 732.8 Q523.487 731.867 521.56 733.795 M519.596 731.83 Q522.677 728.749 526.74 729.572 Q530.804 730.37 535.444 735.01 Q540.072 739.638 540.882 743.714 Q541.693 747.765 538.611 750.846 Q535.53 753.927 531.467 753.129 Q527.403 752.307 522.775 747.679 Q518.135 743.039 517.325 738.987 Q516.514 734.912 519.596 731.83 Z" fill="#000000" fill-rule="nonzero" fill-opacity="1" /><path clip-path="url(#clip310)" d="M545.83 736.68 L548.42 734.089 L551.538 737.207 L548.948 739.798 L545.83 736.68 Z" fill="#000000" fill-rule="nonzero" fill-opacity="1" /><path clip-path="url(#clip310)" d="M553.539 717.799 Q551.771 719.567 551.698 721.531 Q551.636 723.483 553.293 725.14 Q554.951 726.797 556.903 726.736 Q558.867 726.662 560.635 724.894 Q562.402 723.127 562.476 721.163 Q562.537 719.186 560.892 717.541 Q559.235 715.884 557.271 715.957 Q555.319 716.019 553.539 717.799 M550.003 719.223 Q548.015 720.426 546.026 720.23 Q544.05 720.021 542.478 718.45 Q540.281 716.252 540.563 713.416 Q540.858 710.568 543.583 707.843 Q546.321 705.105 549.156 704.823 Q551.992 704.541 554.19 706.738 Q555.761 708.309 555.957 710.298 Q556.166 712.275 554.975 714.251 Q557.185 712.876 559.395 713.097 Q561.617 713.306 563.372 715.061 Q566.036 717.725 565.827 720.782 Q565.631 723.826 562.599 726.859 Q559.567 729.891 556.51 730.1 Q553.465 730.296 550.801 727.632 Q549.046 725.877 548.837 723.655 Q548.629 721.433 550.003 719.223 M545.179 716.215 Q546.603 717.639 548.285 717.553 Q549.979 717.455 551.587 715.847 Q553.183 714.251 553.281 712.557 Q553.392 710.851 551.968 709.427 Q550.544 708.003 548.837 708.113 Q547.143 708.211 545.547 709.807 Q543.939 711.415 543.841 713.109 Q543.755 714.791 545.179 716.215 Z" fill="#000000" fill-rule="nonzero" fill-opacity="1" /><path clip-path="url(#clip310)" d="M572.628 715.356 L570.37 713.097 Q571.744 712.606 572.935 711.882 Q574.126 711.158 575.047 710.237 Q577.502 707.782 577.146 704.848 Q576.79 701.889 573.61 698.341 Q573.954 700.109 573.426 701.766 Q572.898 703.424 571.573 704.749 Q568.823 707.499 565.557 707.45 Q562.292 707.376 559.407 704.492 Q556.583 701.668 556.547 698.292 Q556.51 694.916 559.284 692.142 Q562.464 688.962 566.576 689.736 Q570.689 690.485 575.329 695.125 Q579.663 699.458 580.19 704.111 Q580.718 708.739 577.244 712.213 Q576.311 713.146 575.169 713.92 Q574.028 714.693 572.628 715.356 M569.793 702.65 Q571.462 700.981 571.29 698.869 Q571.131 696.745 569.142 694.757 Q567.165 692.78 565.042 692.621 Q562.918 692.436 561.248 694.106 Q559.579 695.776 559.751 697.912 Q559.923 700.023 561.899 702 Q563.888 703.988 565.999 704.16 Q568.123 704.32 569.793 702.65 Z" fill="#000000" fill-rule="nonzero" fill-opacity="1" /><path clip-path="url(#clip310)" d="M782.006 733.893 Q780.091 735.808 781.012 738.668 Q781.933 741.504 785.714 745.285 Q789.482 749.054 792.33 749.987 Q795.179 750.895 797.094 748.98 Q799.021 747.053 798.1 744.217 Q797.18 741.357 793.411 737.588 Q789.63 733.807 786.782 732.898 Q783.934 731.966 782.006 733.893 M780.042 731.929 Q783.123 728.847 787.187 729.67 Q791.25 730.468 795.891 735.108 Q800.519 739.736 801.329 743.812 Q802.139 747.863 799.058 750.944 Q795.976 754.026 791.913 753.228 Q787.85 752.405 783.222 747.777 Q778.581 743.137 777.771 739.086 Q776.961 735.01 780.042 731.929 Z" fill="#000000" fill-rule="nonzero" fill-opacity="1" /><path clip-path="url(#clip310)" d="M806.276 736.778 L808.866 734.187 L811.984 737.306 L809.394 739.896 L806.276 736.778 Z" fill="#000000" fill-rule="nonzero" fill-opacity="1" /><path clip-path="url(#clip310)" d="M817.079 731.45 L814.82 729.191 Q816.195 728.7 817.386 727.976 Q818.577 727.251 819.497 726.331 Q821.953 723.876 821.597 720.942 Q821.241 717.983 818.061 714.435 Q818.405 716.203 817.877 717.86 Q817.349 719.518 816.023 720.843 Q813.273 723.593 810.008 723.544 Q806.743 723.47 803.858 720.586 Q801.034 717.762 800.997 714.386 Q800.961 711.01 803.735 708.236 Q806.914 705.056 811.027 705.83 Q815.139 706.579 819.78 711.219 Q824.113 715.552 824.641 720.205 Q825.169 724.833 821.695 728.307 Q820.762 729.24 819.62 730.014 Q818.479 730.787 817.079 731.45 M814.243 718.744 Q815.913 717.075 815.741 714.963 Q815.581 712.839 813.593 710.851 Q811.616 708.874 809.492 708.715 Q807.369 708.53 805.699 710.2 Q804.03 711.87 804.201 714.006 Q804.373 716.117 806.35 718.094 Q808.338 720.082 810.45 720.254 Q812.574 720.414 814.243 718.744 Z" fill="#000000" fill-rule="nonzero" fill-opacity="1" /><path clip-path="url(#clip310)" d="M821.99 693.91 Q820.074 695.825 820.995 698.685 Q821.916 701.521 825.697 705.302 Q829.466 709.071 832.314 710.004 Q835.162 710.912 837.077 708.997 Q839.004 707.07 838.083 704.234 Q837.163 701.373 833.394 697.605 Q829.613 693.824 826.765 692.915 Q823.917 691.982 821.99 693.91 M820.025 691.945 Q823.107 688.864 827.17 689.687 Q831.233 690.485 835.874 695.125 Q840.502 699.753 841.312 703.829 Q842.122 707.88 839.041 710.961 Q835.96 714.042 831.896 713.244 Q827.833 712.422 823.205 707.794 Q818.564 703.154 817.754 699.102 Q816.944 695.027 820.025 691.945 Z" fill="#000000" fill-rule="nonzero" fill-opacity="1" /><path clip-path="url(#clip310)" d="M1043.2 733.242 Q1041.29 735.157 1042.21 738.018 Q1043.13 740.853 1046.91 744.634 Q1050.68 748.403 1053.53 749.336 Q1056.37 750.245 1058.29 748.33 Q1060.22 746.402 1059.3 743.566 Q1058.37 740.706 1054.61 736.937 Q1050.83 733.156 1047.98 732.248 Q1045.13 731.315 1043.2 733.242 M1041.24 731.278 Q1044.32 728.197 1048.38 729.019 Q1052.45 729.817 1057.09 734.458 Q1061.71 739.086 1062.52 743.161 Q1063.33 747.212 1060.25 750.294 Q1057.17 753.375 1053.11 752.577 Q1049.05 751.755 1044.42 747.126 Q1039.78 742.486 1038.97 738.435 Q1038.16 734.359 1041.24 731.278 Z" fill="#000000" fill-rule="nonzero" fill-opacity="1" /><path clip-path="url(#clip310)" d="M1067.47 736.127 L1070.06 733.537 L1073.18 736.655 L1070.59 739.245 L1067.47 736.127 Z" fill="#000000" fill-rule="nonzero" fill-opacity="1" /><path clip-path="url(#clip310)" d="M1078.27 730.799 L1076.02 728.54 Q1077.39 728.049 1078.58 727.325 Q1079.77 726.601 1080.69 725.68 Q1083.15 723.225 1082.79 720.291 Q1082.44 717.332 1079.26 713.785 Q1079.6 715.552 1079.07 717.21 Q1078.54 718.867 1077.22 720.193 Q1074.47 722.943 1071.2 722.893 Q1067.94 722.82 1065.05 719.935 Q1062.23 717.111 1062.19 713.736 Q1062.16 710.36 1064.93 707.585 Q1068.11 704.406 1072.22 705.179 Q1076.33 705.928 1080.98 710.568 Q1085.31 714.902 1085.84 719.554 Q1086.36 724.182 1082.89 727.657 Q1081.96 728.59 1080.82 729.363 Q1079.67 730.136 1078.27 730.799 M1075.44 718.094 Q1077.11 716.424 1076.94 714.312 Q1076.78 712.189 1074.79 710.2 Q1072.81 708.224 1070.69 708.064 Q1068.56 707.88 1066.89 709.549 Q1065.22 711.219 1065.4 713.355 Q1065.57 715.466 1067.55 717.443 Q1069.53 719.432 1071.65 719.603 Q1073.77 719.763 1075.44 718.094 Z" fill="#000000" fill-rule="nonzero" fill-opacity="1" /><path clip-path="url(#clip310)" d="M1092.92 712.741 L1096.97 708.69 L1082.99 694.708 L1079.47 699.999 L1077.21 697.74 L1080.71 692.473 L1083.18 689.994 L1099.43 706.235 L1103.48 702.184 L1105.56 704.271 L1095.01 714.828 L1092.92 712.741 Z" fill="#000000" fill-rule="nonzero" fill-opacity="1" /><polyline clip-path="url(#clip310)" style="stroke:#000000; stroke-linecap:round; stroke-linejoin:round; stroke-width:4; stroke-opacity:1; fill:none" points="128.138,662.16 128.138,97.5521 "/>
<polyline clip-path="url(#clip310)" style="stroke:#000000; stroke-linecap:round; stroke-linejoin:round; stroke-width:4; stroke-opacity:1; fill:none" points="128.138,662.16 147.035,662.16 "/>
<polyline clip-path="url(#clip310)" style="stroke:#000000; stroke-linecap:round; stroke-linejoin:round; stroke-width:4; stroke-opacity:1; fill:none" points="128.138,575.298 147.035,575.298 "/>
<polyline clip-path="url(#clip310)" style="stroke:#000000; stroke-linecap:round; stroke-linejoin:round; stroke-width:4; stroke-opacity:1; fill:none" points="128.138,488.435 147.035,488.435 "/>
<polyline clip-path="url(#clip310)" style="stroke:#000000; stroke-linecap:round; stroke-linejoin:round; stroke-width:4; stroke-opacity:1; fill:none" points="128.138,401.572 147.035,401.572 "/>
<polyline clip-path="url(#clip310)" style="stroke:#000000; stroke-linecap:round; stroke-linejoin:round; stroke-width:4; stroke-opacity:1; fill:none" points="128.138,314.709 147.035,314.709 "/>
<polyline clip-path="url(#clip310)" style="stroke:#000000; stroke-linecap:round; stroke-linejoin:round; stroke-width:4; stroke-opacity:1; fill:none" points="128.138,227.846 147.035,227.846 "/>
<polyline clip-path="url(#clip310)" style="stroke:#000000; stroke-linecap:round; stroke-linejoin:round; stroke-width:4; stroke-opacity:1; fill:none" points="128.138,140.984 147.035,140.984 "/>
<path clip-path="url(#clip310)" d="M83.1795 651.509 Q80.4711 651.509 79.0996 654.183 Q77.7455 656.839 77.7455 662.186 Q77.7455 667.516 79.0996 670.19 Q80.4711 672.846 83.1795 672.846 Q85.9051 672.846 87.2593 670.19 Q88.6308 667.516 88.6308 662.186 Q88.6308 656.839 87.2593 654.183 Q85.9051 651.509 83.1795 651.509 M83.1795 648.732 Q87.5371 648.732 89.8287 652.186 Q92.1377 655.624 92.1377 662.186 Q92.1377 668.732 89.8287 672.186 Q87.5371 675.624 83.1795 675.624 Q78.8218 675.624 76.5128 672.186 Q74.2212 668.732 74.2212 662.186 Q74.2212 655.624 76.5128 652.186 Q78.8218 648.732 83.1795 648.732 Z" fill="#000000" fill-rule="nonzero" fill-opacity="1" /><path clip-path="url(#clip310)" d="M53.6657 585.306 L59.3949 585.306 L59.3949 565.532 L53.1623 566.782 L53.1623 563.588 L59.3601 562.338 L62.8671 562.338 L62.8671 585.306 L68.5962 585.306 L68.5962 588.258 L53.6657 588.258 L53.6657 585.306 Z" fill="#000000" fill-rule="nonzero" fill-opacity="1" /><path clip-path="url(#clip310)" d="M83.1795 564.647 Q80.4711 564.647 79.0996 567.32 Q77.7455 569.976 77.7455 575.324 Q77.7455 580.653 79.0996 583.327 Q80.4711 585.983 83.1795 585.983 Q85.9051 585.983 87.2593 583.327 Q88.6308 580.653 88.6308 575.324 Q88.6308 569.976 87.2593 567.32 Q85.9051 564.647 83.1795 564.647 M83.1795 561.869 Q87.5371 561.869 89.8287 565.324 Q92.1377 568.761 92.1377 575.324 Q92.1377 581.869 89.8287 585.324 Q87.5371 588.761 83.1795 588.761 Q78.8218 588.761 76.5128 585.324 Q74.2212 581.869 74.2212 575.324 Q74.2212 568.761 76.5128 565.324 Q78.8218 561.869 83.1795 561.869 Z" fill="#000000" fill-rule="nonzero" fill-opacity="1" /><path clip-path="url(#clip310)" d="M56.0789 498.443 L68.3184 498.443 L68.3184 501.395 L51.8602 501.395 L51.8602 498.443 Q53.8567 496.377 57.2942 492.905 Q60.749 489.416 61.6344 488.409 Q63.3184 486.516 63.9782 485.214 Q64.6552 483.895 64.6552 482.627 Q64.6552 480.562 63.1969 479.259 Q61.756 477.957 59.4296 477.957 Q57.7803 477.957 55.94 478.53 Q54.1171 479.103 52.0338 480.266 L52.0338 476.725 Q54.1518 475.874 55.9921 475.44 Q57.8324 475.006 59.3601 475.006 Q63.3879 475.006 65.7837 477.02 Q68.1795 479.034 68.1795 482.402 Q68.1795 483.999 67.5719 485.44 Q66.9816 486.864 65.4018 488.808 Q64.9677 489.311 62.6414 491.725 Q60.315 494.12 56.0789 498.443 Z" fill="#000000" fill-rule="nonzero" fill-opacity="1" /><path clip-path="url(#clip310)" d="M83.1795 477.784 Q80.4711 477.784 79.0996 480.457 Q77.7455 483.114 77.7455 488.461 Q77.7455 493.791 79.0996 496.464 Q80.4711 499.12 83.1795 499.12 Q85.9051 499.12 87.2593 496.464 Q88.6308 493.791 88.6308 488.461 Q88.6308 483.114 87.2593 480.457 Q85.9051 477.784 83.1795 477.784 M83.1795 475.006 Q87.5371 475.006 89.8287 478.461 Q92.1377 481.898 92.1377 488.461 Q92.1377 495.006 89.8287 498.461 Q87.5371 501.898 83.1795 501.898 Q78.8218 501.898 76.5128 498.461 Q74.2212 495.006 74.2212 488.461 Q74.2212 481.898 76.5128 478.461 Q78.8218 475.006 83.1795 475.006 Z" fill="#000000" fill-rule="nonzero" fill-opacity="1" /><path clip-path="url(#clip310)" d="M63.683 400.556 Q66.2004 401.095 67.6066 402.796 Q69.0302 404.497 69.0302 406.997 Q69.0302 410.834 66.3913 412.935 Q63.7525 415.035 58.8914 415.035 Q57.2595 415.035 55.5234 414.706 Q53.8046 414.393 51.9643 413.751 L51.9643 410.365 Q53.4227 411.216 55.1588 411.65 Q56.8949 412.084 58.7872 412.084 Q62.0858 412.084 63.8046 410.782 Q65.5407 409.48 65.5407 406.997 Q65.5407 404.706 63.9261 403.421 Q62.3289 402.119 59.4643 402.119 L56.4435 402.119 L56.4435 399.237 L59.6032 399.237 Q62.19 399.237 63.5615 398.213 Q64.933 397.171 64.933 395.226 Q64.933 393.23 63.5094 392.171 Q62.1032 391.095 59.4643 391.095 Q58.0233 391.095 56.374 391.407 Q54.7247 391.72 52.7456 392.379 L52.7456 389.254 Q54.7421 388.699 56.4782 388.421 Q58.2317 388.143 59.7768 388.143 Q63.7698 388.143 66.0962 389.966 Q68.4226 391.772 68.4226 394.862 Q68.4226 397.015 67.19 398.508 Q65.9573 399.983 63.683 400.556 Z" fill="#000000" fill-rule="nonzero" fill-opacity="1" /><path clip-path="url(#clip310)" d="M83.1795 390.921 Q80.4711 390.921 79.0996 393.595 Q77.7455 396.251 77.7455 401.598 Q77.7455 406.928 79.0996 409.601 Q80.4711 412.258 83.1795 412.258 Q85.9051 412.258 87.2593 409.601 Q88.6308 406.928 88.6308 401.598 Q88.6308 396.251 87.2593 393.595 Q85.9051 390.921 83.1795 390.921 M83.1795 388.143 Q87.5371 388.143 89.8287 391.598 Q92.1377 395.036 92.1377 401.598 Q92.1377 408.143 89.8287 411.598 Q87.5371 415.035 83.1795 415.035 Q78.8218 415.035 76.5128 411.598 Q74.2212 408.143 74.2212 401.598 Q74.2212 395.036 76.5128 391.598 Q78.8218 388.143 83.1795 388.143 Z" fill="#000000" fill-rule="nonzero" fill-opacity="1" /><path clip-path="url(#clip310)" d="M62.6935 304.805 L53.8393 318.641 L62.6935 318.641 L62.6935 304.805 M61.7733 301.749 L66.183 301.749 L66.183 318.641 L69.8809 318.641 L69.8809 321.558 L66.183 321.558 L66.183 327.669 L62.6935 327.669 L62.6935 321.558 L50.9921 321.558 L50.9921 318.173 L61.7733 301.749 Z" fill="#000000" fill-rule="nonzero" fill-opacity="1" /><path clip-path="url(#clip310)" d="M83.1795 304.058 Q80.4711 304.058 79.0996 306.732 Q77.7455 309.388 77.7455 314.735 Q77.7455 320.065 79.0996 322.739 Q80.4711 325.395 83.1795 325.395 Q85.9051 325.395 87.2593 322.739 Q88.6308 320.065 88.6308 314.735 Q88.6308 309.388 87.2593 306.732 Q85.9051 304.058 83.1795 304.058 M83.1795 301.28 Q87.5371 301.28 89.8287 304.735 Q92.1377 308.173 92.1377 314.735 Q92.1377 321.28 89.8287 324.735 Q87.5371 328.173 83.1795 328.173 Q78.8218 328.173 76.5128 324.735 Q74.2212 321.28 74.2212 314.735 Q74.2212 308.173 76.5128 304.735 Q78.8218 301.28 83.1795 301.28 Z" fill="#000000" fill-rule="nonzero" fill-opacity="1" /><path clip-path="url(#clip310)" d="M53.0928 214.886 L66.8601 214.886 L66.8601 217.838 L56.3046 217.838 L56.3046 224.192 Q57.0685 223.931 57.8324 223.81 Q58.5963 223.671 59.3601 223.671 Q63.7004 223.671 66.2351 226.049 Q68.7698 228.428 68.7698 232.49 Q68.7698 236.674 66.1657 239.001 Q63.5615 241.31 58.8219 241.31 Q57.19 241.31 55.4886 241.032 Q53.8046 240.754 51.9991 240.199 L51.9991 236.674 Q53.5616 237.525 55.2282 237.942 Q56.8949 238.358 58.7525 238.358 Q61.756 238.358 63.5094 236.779 Q65.2629 235.199 65.2629 232.49 Q65.2629 229.782 63.5094 228.202 Q61.756 226.622 58.7525 226.622 Q57.3463 226.622 55.94 226.935 Q54.5511 227.247 53.0928 227.907 L53.0928 214.886 Z" fill="#000000" fill-rule="nonzero" fill-opacity="1" /><path clip-path="url(#clip310)" d="M83.1795 217.195 Q80.4711 217.195 79.0996 219.869 Q77.7455 222.525 77.7455 227.872 Q77.7455 233.202 79.0996 235.876 Q80.4711 238.532 83.1795 238.532 Q85.9051 238.532 87.2593 235.876 Q88.6308 233.202 88.6308 227.872 Q88.6308 222.525 87.2593 219.869 Q85.9051 217.195 83.1795 217.195 M83.1795 214.418 Q87.5371 214.418 89.8287 217.872 Q92.1377 221.31 92.1377 227.872 Q92.1377 234.417 89.8287 237.872 Q87.5371 241.31 83.1795 241.31 Q78.8218 241.31 76.5128 237.872 Q74.2212 234.417 74.2212 227.872 Q74.2212 221.31 76.5128 217.872 Q78.8218 214.418 83.1795 214.418 Z" fill="#000000" fill-rule="nonzero" fill-opacity="1" /><path clip-path="url(#clip310)" d="M60.9921 139.586 Q58.631 139.586 57.2421 141.201 Q55.8706 142.815 55.8706 145.628 Q55.8706 148.423 57.2421 150.055 Q58.631 151.669 60.9921 151.669 Q63.3532 151.669 64.7247 150.055 Q66.1136 148.423 66.1136 145.628 Q66.1136 142.815 64.7247 141.201 Q63.3532 139.586 60.9921 139.586 M67.9538 128.596 L67.9538 131.791 Q66.6344 131.166 65.2802 130.836 Q63.9434 130.506 62.624 130.506 Q59.1518 130.506 57.3115 132.85 Q55.4886 135.194 55.2282 139.933 Q56.2525 138.423 57.7976 137.624 Q59.3428 136.808 61.2004 136.808 Q65.1066 136.808 67.3636 139.187 Q69.6379 141.548 69.6379 145.628 Q69.6379 149.621 67.2768 152.034 Q64.9157 154.447 60.9921 154.447 Q56.4956 154.447 54.1171 151.01 Q51.7386 147.555 51.7386 141.01 Q51.7386 134.864 54.6553 131.218 Q57.572 127.555 62.4851 127.555 Q63.8046 127.555 65.1414 127.815 Q66.4955 128.076 67.9538 128.596 Z" fill="#000000" fill-rule="nonzero" fill-opacity="1" /><path clip-path="url(#clip310)" d="M83.1795 130.333 Q80.4711 130.333 79.0996 133.006 Q77.7455 135.662 77.7455 141.01 Q77.7455 146.339 79.0996 149.013 Q80.4711 151.669 83.1795 151.669 Q85.9051 151.669 87.2593 149.013 Q88.6308 146.339 88.6308 141.01 Q88.6308 135.662 87.2593 133.006 Q85.9051 130.333 83.1795 130.333 M83.1795 127.555 Q87.5371 127.555 89.8287 131.01 Q92.1377 134.447 92.1377 141.01 Q92.1377 147.555 89.8287 151.01 Q87.5371 154.447 83.1795 154.447 Q78.8218 154.447 76.5128 151.01 Q74.2212 147.555 74.2212 141.01 Q74.2212 134.447 76.5128 131.01 Q78.8218 127.555 83.1795 127.555 Z" fill="#000000" fill-rule="nonzero" fill-opacity="1" /><path clip-path="url(#clip310)" d="M130.221 20.1758 Q131.633 17.8147 135.128 15.7314 Q136.494 14.9212 140.707 14.9212 Q145.429 14.9212 148.369 18.6712 Q151.332 22.4212 151.332 28.5323 Q151.332 34.6433 148.369 38.3933 Q145.429 42.1433 140.707 42.1433 Q137.86 42.1433 135.8 41.0322 Q133.763 39.8979 132.42 37.5831 L132.42 51.3331 L128.138 51.3331 L128.138 28.7637 Q128.138 23.4165 130.221 20.1758 M146.911 28.5323 Q146.911 23.8332 144.966 21.1712 Q143.045 18.486 139.665 18.486 Q136.286 18.486 134.341 21.1712 Q132.42 23.8332 132.42 28.5323 Q132.42 33.2313 134.341 35.9165 Q136.286 38.5785 139.665 38.5785 Q143.045 38.5785 144.966 35.9165 Q146.911 33.2313 146.911 28.5323 Z" fill="#000000" fill-rule="nonzero" fill-opacity="1" /><path clip-path="url(#clip312)" d="M184.494 401.572 L184.494 662.16 L314.766 662.16 L314.766 401.572 L184.494 401.572 L184.494 401.572  Z" fill="#009af9" fill-rule="evenodd" fill-opacity="1"/>
<polyline clip-path="url(#clip312)" style="stroke:#000000; stroke-linecap:round; stroke-linejoin:round; stroke-width:4; stroke-opacity:1; fill:none" points="184.494,401.572 184.494,662.16 314.766,662.16 314.766,401.572 184.494,401.572 "/>
<path clip-path="url(#clip312)" d="M314.766 236.533 L314.766 662.16 L445.038 662.16 L445.038 236.533 L314.766 236.533 L314.766 236.533  Z" fill="#009af9" fill-rule="evenodd" fill-opacity="1"/>
<polyline clip-path="url(#clip312)" style="stroke:#000000; stroke-linecap:round; stroke-linejoin:round; stroke-width:4; stroke-opacity:1; fill:none" points="314.766,236.533 314.766,662.16 445.038,662.16 445.038,236.533 314.766,236.533 "/>
<path clip-path="url(#clip312)" d="M445.038 279.964 L445.038 662.16 L575.311 662.16 L575.311 279.964 L445.038 279.964 L445.038 279.964  Z" fill="#009af9" fill-rule="evenodd" fill-opacity="1"/>
<polyline clip-path="url(#clip312)" style="stroke:#000000; stroke-linecap:round; stroke-linejoin:round; stroke-width:4; stroke-opacity:1; fill:none" points="445.038,279.964 445.038,662.16 575.311,662.16 575.311,279.964 445.038,279.964 "/>
<path clip-path="url(#clip312)" d="M575.311 97.5521 L575.311 662.16 L705.583 662.16 L705.583 97.5521 L575.311 97.5521 L575.311 97.5521  Z" fill="#009af9" fill-rule="evenodd" fill-opacity="1"/>
<polyline clip-path="url(#clip312)" style="stroke:#000000; stroke-linecap:round; stroke-linejoin:round; stroke-width:4; stroke-opacity:1; fill:none" points="575.311,97.5521 575.311,662.16 705.583,662.16 705.583,97.5521 575.311,97.5521 "/>
<path clip-path="url(#clip312)" d="M705.583 618.729 L705.583 662.16 L835.855 662.16 L835.855 618.729 L705.583 618.729 L705.583 618.729  Z" fill="#009af9" fill-rule="evenodd" fill-opacity="1"/>
<polyline clip-path="url(#clip312)" style="stroke:#000000; stroke-linecap:round; stroke-linejoin:round; stroke-width:4; stroke-opacity:1; fill:none" points="705.583,618.729 705.583,662.16 835.855,662.16 835.855,618.729 705.583,618.729 "/>
<path clip-path="url(#clip312)" d="M835.855 453.69 L835.855 662.16 L966.128 662.16 L966.128 453.69 L835.855 453.69 L835.855 453.69  Z" fill="#009af9" fill-rule="evenodd" fill-opacity="1"/>
<polyline clip-path="url(#clip312)" style="stroke:#000000; stroke-linecap:round; stroke-linejoin:round; stroke-width:4; stroke-opacity:1; fill:none" points="835.855,453.69 835.855,662.16 966.128,662.16 966.128,453.69 835.855,453.69 "/>
<path clip-path="url(#clip312)" d="M966.128 627.415 L966.128 662.16 L1096.4 662.16 L1096.4 627.415 L966.128 627.415 L966.128 627.415  Z" fill="#009af9" fill-rule="evenodd" fill-opacity="1"/>
<polyline clip-path="url(#clip312)" style="stroke:#000000; stroke-linecap:round; stroke-linejoin:round; stroke-width:4; stroke-opacity:1; fill:none" points="966.128,627.415 966.128,662.16 1096.4,662.16 1096.4,627.415 966.128,627.415 "/>
<circle clip-path="url(#clip312)" style="fill:#009af9; stroke:none; fill-opacity:0" cx="249.63" cy="401.572" r="2"/>
<circle clip-path="url(#clip312)" style="fill:#009af9; stroke:none; fill-opacity:0" cx="379.902" cy="236.533" r="2"/>
<circle clip-path="url(#clip312)" style="fill:#009af9; stroke:none; fill-opacity:0" cx="510.174" cy="279.964" r="2"/>
<circle clip-path="url(#clip312)" style="fill:#009af9; stroke:none; fill-opacity:0" cx="640.447" cy="97.5521" r="2"/>
<circle clip-path="url(#clip312)" style="fill:#009af9; stroke:none; fill-opacity:0" cx="770.719" cy="618.729" r="2"/>
<circle clip-path="url(#clip312)" style="fill:#009af9; stroke:none; fill-opacity:0" cx="900.992" cy="453.69" r="2"/>
<circle clip-path="url(#clip312)" style="fill:#009af9; stroke:none; fill-opacity:0" cx="1031.26" cy="627.415" r="2"/>
<polyline clip-path="url(#clip312)" style="stroke:#ff0000; stroke-linecap:round; stroke-linejoin:round; stroke-width:8; stroke-opacity:1; fill:none" stroke-dasharray="32, 20" points="583.111,1226.77 583.111,-467.056 "/>
<polyline clip-path="url(#clip312)" style="stroke:#ff0000; stroke-linecap:round; stroke-linejoin:round; stroke-width:6; stroke-opacity:1; fill:none" stroke-dasharray="24, 12, 3, 12" points="253.225,1226.77 253.225,-467.056 "/>
<polyline clip-path="url(#clip312)" style="stroke:#ff0000; stroke-linecap:round; stroke-linejoin:round; stroke-width:6; stroke-opacity:1; fill:none" stroke-dasharray="24, 12, 3, 12" points="965.267,1226.77 965.267,-467.056 "/>
<path clip-path="url(#clip310)" d="M1328.14 662.16 L2352.76 662.16 L2352.76 97.5521 L1328.14 97.5521  Z" fill="#ffffff" fill-rule="evenodd" fill-opacity="1"/>
<defs>
  <clipPath id="clip313">
    <rect x="1328" y="97" width="1026" height="566"/>
  </clipPath>
</defs>
<polyline clip-path="url(#clip313)" style="stroke:#000000; stroke-linecap:round; stroke-linejoin:round; stroke-width:2; stroke-opacity:0.1; fill:none" points="1384.49,662.16 1384.49,97.5521 "/>
<polyline clip-path="url(#clip313)" style="stroke:#000000; stroke-linecap:round; stroke-linejoin:round; stroke-width:2; stroke-opacity:0.1; fill:none" points="1587.14,662.16 1587.14,97.5521 "/>
<polyline clip-path="url(#clip313)" style="stroke:#000000; stroke-linecap:round; stroke-linejoin:round; stroke-width:2; stroke-opacity:0.1; fill:none" points="1789.79,662.16 1789.79,97.5521 "/>
<polyline clip-path="url(#clip313)" style="stroke:#000000; stroke-linecap:round; stroke-linejoin:round; stroke-width:2; stroke-opacity:0.1; fill:none" points="1992.43,662.16 1992.43,97.5521 "/>
<polyline clip-path="url(#clip313)" style="stroke:#000000; stroke-linecap:round; stroke-linejoin:round; stroke-width:2; stroke-opacity:0.1; fill:none" points="2195.08,662.16 2195.08,97.5521 "/>
<polyline clip-path="url(#clip313)" style="stroke:#000000; stroke-linecap:round; stroke-linejoin:round; stroke-width:2; stroke-opacity:0.1; fill:none" points="1328.14,662.16 2352.76,662.16 "/>
<polyline clip-path="url(#clip313)" style="stroke:#000000; stroke-linecap:round; stroke-linejoin:round; stroke-width:2; stroke-opacity:0.1; fill:none" points="1328.14,530.856 2352.76,530.856 "/>
<polyline clip-path="url(#clip313)" style="stroke:#000000; stroke-linecap:round; stroke-linejoin:round; stroke-width:2; stroke-opacity:0.1; fill:none" points="1328.14,399.552 2352.76,399.552 "/>
<polyline clip-path="url(#clip313)" style="stroke:#000000; stroke-linecap:round; stroke-linejoin:round; stroke-width:2; stroke-opacity:0.1; fill:none" points="1328.14,268.248 2352.76,268.248 "/>
<polyline clip-path="url(#clip313)" style="stroke:#000000; stroke-linecap:round; stroke-linejoin:round; stroke-width:2; stroke-opacity:0.1; fill:none" points="1328.14,136.943 2352.76,136.943 "/>
<polyline clip-path="url(#clip310)" style="stroke:#000000; stroke-linecap:round; stroke-linejoin:round; stroke-width:4; stroke-opacity:1; fill:none" points="1328.14,662.16 2352.76,662.16 "/>
<polyline clip-path="url(#clip310)" style="stroke:#000000; stroke-linecap:round; stroke-linejoin:round; stroke-width:4; stroke-opacity:1; fill:none" points="1384.49,662.16 1384.49,643.263 "/>
<polyline clip-path="url(#clip310)" style="stroke:#000000; stroke-linecap:round; stroke-linejoin:round; stroke-width:4; stroke-opacity:1; fill:none" points="1587.14,662.16 1587.14,643.263 "/>
<polyline clip-path="url(#clip310)" style="stroke:#000000; stroke-linecap:round; stroke-linejoin:round; stroke-width:4; stroke-opacity:1; fill:none" points="1789.79,662.16 1789.79,643.263 "/>
<polyline clip-path="url(#clip310)" style="stroke:#000000; stroke-linecap:round; stroke-linejoin:round; stroke-width:4; stroke-opacity:1; fill:none" points="1992.43,662.16 1992.43,643.263 "/>
<polyline clip-path="url(#clip310)" style="stroke:#000000; stroke-linecap:round; stroke-linejoin:round; stroke-width:4; stroke-opacity:1; fill:none" points="2195.08,662.16 2195.08,643.263 "/>
<path clip-path="url(#clip310)" d="M1330.64 733.893 Q1328.73 735.808 1329.65 738.668 Q1330.57 741.504 1334.35 745.285 Q1338.12 749.054 1340.97 749.987 Q1343.82 750.895 1345.73 748.98 Q1347.66 747.053 1346.74 744.217 Q1345.82 741.357 1342.05 737.588 Q1338.27 733.807 1335.42 732.898 Q1332.57 731.966 1330.64 733.893 M1328.68 731.929 Q1331.76 728.847 1335.82 729.67 Q1339.89 730.468 1344.53 735.108 Q1349.16 739.736 1349.97 743.812 Q1350.78 747.863 1347.7 750.944 Q1344.61 754.026 1340.55 753.228 Q1336.49 752.405 1331.86 747.777 Q1327.22 743.137 1326.41 739.086 Q1325.6 735.01 1328.68 731.929 Z" fill="#000000" fill-rule="nonzero" fill-opacity="1" /><path clip-path="url(#clip310)" d="M1354.91 736.778 L1357.5 734.187 L1360.62 737.306 L1358.03 739.896 L1354.91 736.778 Z" fill="#000000" fill-rule="nonzero" fill-opacity="1" /><path clip-path="url(#clip310)" d="M1363.65 714.509 Q1365.82 713.109 1368.01 713.318 Q1370.22 713.515 1371.99 715.282 Q1374.7 717.995 1374.32 721.347 Q1373.94 724.698 1370.5 728.135 Q1369.35 729.289 1367.89 730.284 Q1366.45 731.278 1364.7 732.125 L1362.3 729.731 Q1363.94 729.302 1365.47 728.381 Q1367.01 727.46 1368.34 726.122 Q1370.68 723.79 1370.97 721.654 Q1371.28 719.505 1369.52 717.75 Q1367.9 716.129 1365.85 716.363 Q1363.8 716.571 1361.78 718.597 L1359.64 720.733 L1357.6 718.695 L1359.84 716.461 Q1361.67 714.632 1361.91 712.938 Q1362.14 711.231 1360.77 709.856 Q1359.36 708.445 1357.6 708.702 Q1355.85 708.936 1353.98 710.802 Q1352.96 711.82 1352.02 713.208 Q1351.07 714.595 1350.14 716.461 L1347.93 714.251 Q1348.95 712.447 1349.98 711.022 Q1351.02 709.586 1352.12 708.494 Q1354.94 705.67 1357.87 705.314 Q1360.79 704.946 1362.98 707.131 Q1364.5 708.653 1364.69 710.581 Q1364.86 712.496 1363.65 714.509 Z" fill="#000000" fill-rule="nonzero" fill-opacity="1" /><path clip-path="url(#clip310)" d="M1370.63 693.91 Q1368.71 695.825 1369.63 698.685 Q1370.55 701.521 1374.34 705.302 Q1378.1 709.071 1380.95 710.004 Q1383.8 710.912 1385.72 708.997 Q1387.64 707.07 1386.72 704.234 Q1385.8 701.373 1382.03 697.605 Q1378.25 693.824 1375.4 692.915 Q1372.56 691.982 1370.63 693.91 M1368.66 691.945 Q1371.74 688.864 1375.81 689.687 Q1379.87 690.485 1384.51 695.125 Q1389.14 699.753 1389.95 703.829 Q1390.76 707.88 1387.68 710.961 Q1384.6 714.042 1380.53 713.244 Q1376.47 712.422 1371.84 707.794 Q1367.2 703.154 1366.39 699.102 Q1365.58 695.027 1368.66 691.945 Z" fill="#000000" fill-rule="nonzero" fill-opacity="1" /><path clip-path="url(#clip310)" d="M1533.94 733.242 Q1532.03 735.157 1532.95 738.018 Q1533.87 740.853 1537.65 744.634 Q1541.42 748.403 1544.27 749.336 Q1547.11 750.245 1549.03 748.33 Q1550.96 746.402 1550.03 743.566 Q1549.11 740.706 1545.35 736.937 Q1541.56 733.156 1538.72 732.248 Q1535.87 731.315 1533.94 733.242 M1531.98 731.278 Q1535.06 728.197 1539.12 729.019 Q1543.18 729.817 1547.83 734.458 Q1552.45 739.086 1553.26 743.161 Q1554.07 747.212 1550.99 750.294 Q1547.91 753.375 1543.85 752.577 Q1539.78 751.755 1535.16 747.126 Q1530.52 742.486 1529.71 738.435 Q1528.9 734.359 1531.98 731.278 Z" fill="#000000" fill-rule="nonzero" fill-opacity="1" /><path clip-path="url(#clip310)" d="M1558.21 736.127 L1560.8 733.537 L1563.92 736.655 L1561.33 739.245 L1558.21 736.127 Z" fill="#000000" fill-rule="nonzero" fill-opacity="1" /><path clip-path="url(#clip310)" d="M1566.95 713.858 Q1569.11 712.459 1571.31 712.667 Q1573.52 712.864 1575.29 714.632 Q1578 717.345 1577.62 720.696 Q1577.24 724.047 1573.8 727.485 Q1572.65 728.639 1571.19 729.633 Q1569.75 730.627 1567.99 731.474 L1565.6 729.081 Q1567.23 728.651 1568.77 727.73 Q1570.3 726.81 1571.64 725.471 Q1573.97 723.139 1574.27 721.003 Q1574.57 718.855 1572.82 717.099 Q1571.2 715.479 1569.15 715.712 Q1567.1 715.921 1565.07 717.946 L1562.94 720.082 L1560.9 718.044 L1563.13 715.81 Q1564.96 713.981 1565.21 712.287 Q1565.44 710.581 1564.07 709.206 Q1562.65 707.794 1560.9 708.052 Q1559.14 708.285 1557.28 710.151 Q1556.26 711.17 1555.31 712.557 Q1554.37 713.944 1553.44 715.81 L1551.23 713.6 Q1552.24 711.796 1553.28 710.372 Q1554.32 708.936 1555.41 707.843 Q1558.24 705.019 1561.17 704.663 Q1564.09 704.295 1566.28 706.48 Q1567.8 708.003 1567.98 709.93 Q1568.15 711.845 1566.95 713.858 Z" fill="#000000" fill-rule="nonzero" fill-opacity="1" /><path clip-path="url(#clip310)" d="M1583.66 712.741 L1587.71 708.69 L1573.73 694.708 L1570.2 699.999 L1567.95 697.74 L1571.44 692.473 L1573.92 689.994 L1590.17 706.235 L1594.22 702.184 L1596.3 704.271 L1585.75 714.828 L1583.66 712.741 Z" fill="#000000" fill-rule="nonzero" fill-opacity="1" /><path clip-path="url(#clip310)" d="M1736.78 733.046 Q1734.87 734.961 1735.79 737.821 Q1736.71 740.657 1740.49 744.438 Q1744.26 748.207 1747.11 749.14 Q1749.96 750.048 1751.87 748.133 Q1753.8 746.206 1752.88 743.37 Q1751.96 740.51 1748.19 736.741 Q1744.41 732.96 1741.56 732.051 Q1738.71 731.118 1736.78 733.046 M1734.82 731.082 Q1737.9 728 1741.96 728.823 Q1746.03 729.621 1750.67 734.261 Q1755.3 738.889 1756.11 742.965 Q1756.92 747.016 1753.83 750.097 Q1750.75 753.179 1746.69 752.381 Q1742.63 751.558 1738 746.93 Q1733.36 742.29 1732.55 738.239 Q1731.74 734.163 1734.82 731.082 Z" fill="#000000" fill-rule="nonzero" fill-opacity="1" /><path clip-path="url(#clip310)" d="M1761.05 735.931 L1763.64 733.34 L1766.76 736.459 L1764.17 739.049 L1761.05 735.931 Z" fill="#000000" fill-rule="nonzero" fill-opacity="1" /><path clip-path="url(#clip310)" d="M1769.79 713.662 Q1771.95 712.262 1774.15 712.471 Q1776.36 712.667 1778.13 714.435 Q1780.84 717.148 1780.46 720.5 Q1780.08 723.851 1776.64 727.288 Q1775.49 728.442 1774.03 729.437 Q1772.59 730.431 1770.84 731.278 L1768.44 728.884 Q1770.08 728.455 1771.61 727.534 Q1773.15 726.613 1774.48 725.275 Q1776.82 722.943 1777.11 720.807 Q1777.42 718.658 1775.66 716.903 Q1774.04 715.282 1771.99 715.516 Q1769.94 715.724 1767.92 717.75 L1765.78 719.886 L1763.74 717.848 L1765.98 715.614 Q1767.81 713.785 1768.05 712.091 Q1768.28 710.384 1766.91 709.009 Q1765.5 707.597 1763.74 707.855 Q1761.99 708.088 1760.12 709.954 Q1759.1 710.973 1758.16 712.361 Q1757.21 713.748 1756.28 715.614 L1754.07 713.404 Q1755.09 711.599 1756.12 710.175 Q1757.16 708.739 1758.25 707.647 Q1761.08 704.823 1764.01 704.467 Q1766.93 704.099 1769.12 706.284 Q1770.64 707.806 1770.82 709.733 Q1771 711.649 1769.79 713.662 Z" fill="#000000" fill-rule="nonzero" fill-opacity="1" /><path clip-path="url(#clip310)" d="M1788.21 710.838 L1796.86 702.184 L1798.95 704.271 L1787.31 715.908 L1785.22 713.821 Q1785.18 710.949 1785.15 706.063 Q1785.13 701.153 1785.04 699.814 Q1784.89 697.286 1784.44 695.898 Q1783.98 694.487 1783.09 693.59 Q1781.63 692.13 1779.68 692.24 Q1777.74 692.338 1776.09 693.983 Q1774.93 695.149 1774.03 696.856 Q1773.15 698.55 1772.49 700.846 L1769.99 698.341 Q1770.89 696.242 1771.88 694.634 Q1772.88 693.026 1773.96 691.945 Q1776.8 689.097 1779.92 688.827 Q1783.04 688.557 1785.42 690.939 Q1786.55 692.068 1787.14 693.517 Q1787.73 694.941 1787.99 697.433 Q1788.04 698.096 1788.1 701.447 Q1788.15 704.786 1788.21 710.838 Z" fill="#000000" fill-rule="nonzero" fill-opacity="1" /><path clip-path="url(#clip310)" d="M1938.93 733.549 Q1937.01 735.464 1937.93 738.325 Q1938.85 741.16 1942.63 744.941 Q1946.4 748.71 1949.25 749.643 Q1952.1 750.552 1954.01 748.636 Q1955.94 746.709 1955.02 743.873 Q1954.1 741.013 1950.33 737.244 Q1946.55 733.463 1943.7 732.555 Q1940.85 731.622 1938.93 733.549 M1936.96 731.585 Q1940.04 728.504 1944.11 729.326 Q1948.17 730.124 1952.81 734.764 Q1957.44 739.393 1958.25 743.468 Q1959.06 747.519 1955.98 750.601 Q1952.9 753.682 1948.83 752.884 Q1944.77 752.061 1940.14 747.433 Q1935.5 742.793 1934.69 738.742 Q1933.88 734.666 1936.96 731.585 Z" fill="#000000" fill-rule="nonzero" fill-opacity="1" /><path clip-path="url(#clip310)" d="M1963.2 736.434 L1965.79 733.844 L1968.9 736.962 L1966.31 739.552 L1963.2 736.434 Z" fill="#000000" fill-rule="nonzero" fill-opacity="1" /><path clip-path="url(#clip310)" d="M1971.94 714.165 Q1974.1 712.766 1976.29 712.974 Q1978.5 713.171 1980.27 714.939 Q1982.98 717.652 1982.6 721.003 Q1982.22 724.354 1978.79 727.792 Q1977.63 728.946 1976.17 729.94 Q1974.74 730.934 1972.98 731.781 L1970.59 729.388 Q1972.22 728.958 1973.75 728.037 Q1975.29 727.116 1976.63 725.778 Q1978.96 723.446 1979.25 721.31 Q1979.56 719.162 1977.8 717.406 Q1976.18 715.786 1974.13 716.019 Q1972.08 716.228 1970.06 718.253 L1967.92 720.389 L1965.88 718.351 L1968.12 716.117 Q1969.95 714.288 1970.19 712.594 Q1970.43 710.887 1969.05 709.513 Q1967.64 708.101 1965.88 708.359 Q1964.13 708.592 1962.26 710.458 Q1961.24 711.477 1960.3 712.864 Q1959.35 714.251 1958.42 716.117 L1956.21 713.907 Q1957.23 712.103 1958.26 710.679 Q1959.3 709.242 1960.4 708.15 Q1963.22 705.326 1966.15 704.97 Q1969.08 704.602 1971.26 706.787 Q1972.78 708.309 1972.97 710.237 Q1973.14 712.152 1971.94 714.165 Z" fill="#000000" fill-rule="nonzero" fill-opacity="1" /><path clip-path="url(#clip310)" d="M1987.93 698.169 Q1990.09 696.77 1992.29 696.979 Q1994.5 697.175 1996.27 698.943 Q1998.98 701.656 1998.6 705.007 Q1998.22 708.359 1994.78 711.796 Q1993.63 712.95 1992.17 713.944 Q1990.73 714.939 1988.98 715.786 L1986.58 713.392 Q1988.21 712.962 1989.75 712.041 Q1991.28 711.121 1992.62 709.783 Q1994.95 707.45 1995.25 705.314 Q1995.56 703.166 1993.8 701.41 Q1992.18 699.79 1990.13 700.023 Q1988.08 700.232 1986.05 702.257 L1983.92 704.393 L1981.88 702.356 L1984.11 700.121 Q1985.94 698.292 1986.19 696.598 Q1986.42 694.892 1985.05 693.517 Q1983.64 692.105 1981.88 692.363 Q1980.12 692.596 1978.26 694.462 Q1977.24 695.481 1976.29 696.868 Q1975.35 698.255 1974.42 700.121 L1972.21 697.912 Q1973.23 696.107 1974.26 694.683 Q1975.3 693.247 1976.39 692.154 Q1979.22 689.331 1982.15 688.975 Q1985.07 688.606 1987.26 690.791 Q1988.78 692.314 1988.96 694.241 Q1989.14 696.156 1987.93 698.169 Z" fill="#000000" fill-rule="nonzero" fill-opacity="1" /><path clip-path="url(#clip310)" d="M2140.97 734.151 Q2139.06 736.066 2139.98 738.926 Q2140.9 741.762 2144.68 745.543 Q2148.45 749.312 2151.29 750.245 Q2154.14 751.153 2156.06 749.238 Q2157.98 747.311 2157.06 744.475 Q2156.14 741.615 2152.37 737.846 Q2148.59 734.065 2145.75 733.156 Q2142.9 732.223 2140.97 734.151 M2139.01 732.186 Q2142.09 729.105 2146.15 729.928 Q2150.21 730.726 2154.85 735.366 Q2159.48 739.994 2160.29 744.07 Q2161.1 748.121 2158.02 751.202 Q2154.94 754.283 2150.88 753.485 Q2146.81 752.663 2142.19 748.035 Q2137.55 743.395 2136.74 739.343 Q2135.92 735.268 2139.01 732.186 Z" fill="#000000" fill-rule="nonzero" fill-opacity="1" /><path clip-path="url(#clip310)" d="M2165.24 737.036 L2167.83 734.445 L2170.95 737.563 L2168.36 740.154 L2165.24 737.036 Z" fill="#000000" fill-rule="nonzero" fill-opacity="1" /><path clip-path="url(#clip310)" d="M2173.98 714.767 Q2176.14 713.367 2178.34 713.576 Q2180.55 713.772 2182.32 715.54 Q2185.03 718.253 2184.65 721.604 Q2184.27 724.956 2180.83 728.393 Q2179.68 729.547 2178.22 730.541 Q2176.78 731.536 2175.02 732.383 L2172.63 729.989 Q2174.26 729.559 2175.8 728.639 Q2177.33 727.718 2178.67 726.38 Q2181 724.047 2181.3 721.911 Q2181.6 719.763 2179.85 718.008 Q2178.23 716.387 2176.18 716.62 Q2174.13 716.829 2172.1 718.855 L2169.97 720.991 L2167.93 718.953 L2170.16 716.719 Q2171.99 714.889 2172.24 713.195 Q2172.47 711.489 2171.1 710.114 Q2169.68 708.702 2167.93 708.96 Q2166.17 709.193 2164.31 711.059 Q2163.29 712.078 2162.34 713.465 Q2161.4 714.853 2160.46 716.719 L2158.25 714.509 Q2159.27 712.704 2160.31 711.28 Q2161.35 709.844 2162.44 708.751 Q2165.26 705.928 2168.2 705.572 Q2171.12 705.204 2173.31 707.389 Q2174.83 708.911 2175.01 710.838 Q2175.18 712.753 2173.98 714.767 Z" fill="#000000" fill-rule="nonzero" fill-opacity="1" /><path clip-path="url(#clip310)" d="M2182.99 693.185 L2186.51 709.23 L2192.78 702.969 L2182.99 693.185 M2180.18 691.675 L2183.3 688.557 L2195.24 700.502 L2197.86 697.887 L2199.92 699.949 L2197.31 702.564 L2201.63 706.885 L2199.16 709.353 L2194.84 705.032 L2186.56 713.306 L2184.17 710.912 L2180.18 691.675 Z" fill="#000000" fill-rule="nonzero" fill-opacity="1" /><polyline clip-path="url(#clip310)" style="stroke:#000000; stroke-linecap:round; stroke-linejoin:round; stroke-width:4; stroke-opacity:1; fill:none" points="1328.14,662.16 1328.14,97.5521 "/>
<polyline clip-path="url(#clip310)" style="stroke:#000000; stroke-linecap:round; stroke-linejoin:round; stroke-width:4; stroke-opacity:1; fill:none" points="1328.14,662.16 1347.04,662.16 "/>
<polyline clip-path="url(#clip310)" style="stroke:#000000; stroke-linecap:round; stroke-linejoin:round; stroke-width:4; stroke-opacity:1; fill:none" points="1328.14,530.856 1347.04,530.856 "/>
<polyline clip-path="url(#clip310)" style="stroke:#000000; stroke-linecap:round; stroke-linejoin:round; stroke-width:4; stroke-opacity:1; fill:none" points="1328.14,399.552 1347.04,399.552 "/>
<polyline clip-path="url(#clip310)" style="stroke:#000000; stroke-linecap:round; stroke-linejoin:round; stroke-width:4; stroke-opacity:1; fill:none" points="1328.14,268.248 1347.04,268.248 "/>
<polyline clip-path="url(#clip310)" style="stroke:#000000; stroke-linecap:round; stroke-linejoin:round; stroke-width:4; stroke-opacity:1; fill:none" points="1328.14,136.943 1347.04,136.943 "/>
<path clip-path="url(#clip310)" d="M1283.18 651.509 Q1280.47 651.509 1279.1 654.183 Q1277.75 656.839 1277.75 662.186 Q1277.75 667.516 1279.1 670.19 Q1280.47 672.846 1283.18 672.846 Q1285.91 672.846 1287.26 670.19 Q1288.63 667.516 1288.63 662.186 Q1288.63 656.839 1287.26 654.183 Q1285.91 651.509 1283.18 651.509 M1283.18 648.732 Q1287.54 648.732 1289.83 652.186 Q1292.14 655.624 1292.14 662.186 Q1292.14 668.732 1289.83 672.186 Q1287.54 675.624 1283.18 675.624 Q1278.82 675.624 1276.51 672.186 Q1274.22 668.732 1274.22 662.186 Q1274.22 655.624 1276.51 652.186 Q1278.82 648.732 1283.18 648.732 Z" fill="#000000" fill-rule="nonzero" fill-opacity="1" /><path clip-path="url(#clip310)" d="M1253.67 540.865 L1259.39 540.865 L1259.39 521.091 L1253.16 522.341 L1253.16 519.146 L1259.36 517.896 L1262.87 517.896 L1262.87 540.865 L1268.6 540.865 L1268.6 543.816 L1253.67 543.816 L1253.67 540.865 Z" fill="#000000" fill-rule="nonzero" fill-opacity="1" /><path clip-path="url(#clip310)" d="M1283.18 520.205 Q1280.47 520.205 1279.1 522.879 Q1277.75 525.535 1277.75 530.882 Q1277.75 536.212 1279.1 538.886 Q1280.47 541.542 1283.18 541.542 Q1285.91 541.542 1287.26 538.886 Q1288.63 536.212 1288.63 530.882 Q1288.63 525.535 1287.26 522.879 Q1285.91 520.205 1283.18 520.205 M1283.18 517.427 Q1287.54 517.427 1289.83 520.882 Q1292.14 524.32 1292.14 530.882 Q1292.14 537.427 1289.83 540.882 Q1287.54 544.32 1283.18 544.32 Q1278.82 544.32 1276.51 540.882 Q1274.22 537.427 1274.22 530.882 Q1274.22 524.32 1276.51 520.882 Q1278.82 517.427 1283.18 517.427 Z" fill="#000000" fill-rule="nonzero" fill-opacity="1" /><path clip-path="url(#clip310)" d="M1256.08 409.561 L1268.32 409.561 L1268.32 412.512 L1251.86 412.512 L1251.86 409.561 Q1253.86 407.495 1257.29 404.022 Q1260.75 400.533 1261.63 399.526 Q1263.32 397.633 1263.98 396.331 Q1264.66 395.012 1264.66 393.745 Q1264.66 391.679 1263.2 390.377 Q1261.76 389.075 1259.43 389.075 Q1257.78 389.075 1255.94 389.647 Q1254.12 390.22 1252.03 391.384 L1252.03 387.842 Q1254.15 386.991 1255.99 386.557 Q1257.83 386.123 1259.36 386.123 Q1263.39 386.123 1265.78 388.137 Q1268.18 390.151 1268.18 393.519 Q1268.18 395.116 1267.57 396.557 Q1266.98 397.981 1265.4 399.925 Q1264.97 400.429 1262.64 402.842 Q1260.31 405.238 1256.08 409.561 Z" fill="#000000" fill-rule="nonzero" fill-opacity="1" /><path clip-path="url(#clip310)" d="M1283.18 388.901 Q1280.47 388.901 1279.1 391.574 Q1277.75 394.231 1277.75 399.578 Q1277.75 404.908 1279.1 407.581 Q1280.47 410.238 1283.18 410.238 Q1285.91 410.238 1287.26 407.581 Q1288.63 404.908 1288.63 399.578 Q1288.63 394.231 1287.26 391.574 Q1285.91 388.901 1283.18 388.901 M1283.18 386.123 Q1287.54 386.123 1289.83 389.578 Q1292.14 393.015 1292.14 399.578 Q1292.14 406.123 1289.83 409.578 Q1287.54 413.015 1283.18 413.015 Q1278.82 413.015 1276.51 409.578 Q1274.22 406.123 1274.22 399.578 Q1274.22 393.015 1276.51 389.578 Q1278.82 386.123 1283.18 386.123 Z" fill="#000000" fill-rule="nonzero" fill-opacity="1" /><path clip-path="url(#clip310)" d="M1263.68 267.232 Q1266.2 267.77 1267.61 269.472 Q1269.03 271.173 1269.03 273.673 Q1269.03 277.51 1266.39 279.61 Q1263.75 281.711 1258.89 281.711 Q1257.26 281.711 1255.52 281.381 Q1253.8 281.069 1251.96 280.426 L1251.96 277.041 Q1253.42 277.892 1255.16 278.326 Q1256.89 278.76 1258.79 278.76 Q1262.09 278.76 1263.8 277.458 Q1265.54 276.156 1265.54 273.673 Q1265.54 271.381 1263.93 270.097 Q1262.33 268.795 1259.46 268.795 L1256.44 268.795 L1256.44 265.913 L1259.6 265.913 Q1262.19 265.913 1263.56 264.888 Q1264.93 263.847 1264.93 261.902 Q1264.93 259.906 1263.51 258.847 Q1262.1 257.77 1259.46 257.77 Q1258.02 257.77 1256.37 258.083 Q1254.72 258.395 1252.75 259.055 L1252.75 255.93 Q1254.74 255.374 1256.48 255.097 Q1258.23 254.819 1259.78 254.819 Q1263.77 254.819 1266.1 256.642 Q1268.42 258.447 1268.42 261.538 Q1268.42 263.69 1267.19 265.183 Q1265.96 266.659 1263.68 267.232 Z" fill="#000000" fill-rule="nonzero" fill-opacity="1" /><path clip-path="url(#clip310)" d="M1283.18 257.597 Q1280.47 257.597 1279.1 260.27 Q1277.75 262.926 1277.75 268.274 Q1277.75 273.604 1279.1 276.277 Q1280.47 278.933 1283.18 278.933 Q1285.91 278.933 1287.26 276.277 Q1288.63 273.604 1288.63 268.274 Q1288.63 262.926 1287.26 260.27 Q1285.91 257.597 1283.18 257.597 M1283.18 254.819 Q1287.54 254.819 1289.83 258.274 Q1292.14 261.711 1292.14 268.274 Q1292.14 274.819 1289.83 278.274 Q1287.54 281.711 1283.18 281.711 Q1278.82 281.711 1276.51 278.274 Q1274.22 274.819 1274.22 268.274 Q1274.22 261.711 1276.51 258.274 Q1278.82 254.819 1283.18 254.819 Z" fill="#000000" fill-rule="nonzero" fill-opacity="1" /><path clip-path="url(#clip310)" d="M1262.69 127.039 L1253.84 140.876 L1262.69 140.876 L1262.69 127.039 M1261.77 123.983 L1266.18 123.983 L1266.18 140.876 L1269.88 140.876 L1269.88 143.792 L1266.18 143.792 L1266.18 149.903 L1262.69 149.903 L1262.69 143.792 L1250.99 143.792 L1250.99 140.407 L1261.77 123.983 Z" fill="#000000" fill-rule="nonzero" fill-opacity="1" /><path clip-path="url(#clip310)" d="M1283.18 126.292 Q1280.47 126.292 1279.1 128.966 Q1277.75 131.622 1277.75 136.969 Q1277.75 142.299 1279.1 144.973 Q1280.47 147.629 1283.18 147.629 Q1285.91 147.629 1287.26 144.973 Q1288.63 142.299 1288.63 136.969 Q1288.63 131.622 1287.26 128.966 Q1285.91 126.292 1283.18 126.292 M1283.18 123.515 Q1287.54 123.515 1289.83 126.969 Q1292.14 130.407 1292.14 136.969 Q1292.14 143.515 1289.83 146.969 Q1287.54 150.407 1283.18 150.407 Q1278.82 150.407 1276.51 146.969 Q1274.22 143.515 1274.22 136.969 Q1274.22 130.407 1276.51 126.969 Q1278.82 123.515 1283.18 123.515 Z" fill="#000000" fill-rule="nonzero" fill-opacity="1" /><path clip-path="url(#clip310)" d="M1340.04 18.9258 Q1336.52 18.9258 1334.62 21.4721 Q1332.63 24.1341 1332.63 28.5323 Q1332.63 33.185 1334.6 35.8702 Q1336.59 38.5322 1340.04 38.5322 Q1343.44 38.5322 1345.43 35.847 Q1347.42 33.1619 1347.42 28.5323 Q1347.42 24.2962 1345.43 21.4721 Q1343.6 18.9258 1340.04 18.9258 M1340.04 15.5462 L1354.18 15.5462 L1354.18 19.8054 L1349.41 19.8054 Q1351.93 23.4165 1351.93 28.5323 Q1351.93 34.898 1348.76 38.5091 Q1345.59 42.1433 1340.04 42.1433 Q1334.46 42.1433 1331.31 38.5091 Q1328.14 34.898 1328.14 28.5323 Q1328.14 22.1203 1331.31 18.5323 Q1333.92 15.5462 1340.04 15.5462 Z" fill="#000000" fill-rule="nonzero" fill-opacity="1" /><path clip-path="url(#clip310)" d="M1378.35 19.6666 Q1377.49 19.3656 1376.63 19.1342 Q1374.34 18.5323 1371.89 18.5323 Q1367.65 18.5323 1365.29 20.824 Q1363.09 22.9536 1362.67 26.8656 L1378.35 26.8656 L1378.35 30.1989 L1362.67 30.1989 Q1363.09 34.1109 1365.29 36.2405 Q1367.65 38.5322 1371.89 38.5322 Q1374.85 38.5322 1376.63 37.9304 L1378.35 37.3517 L1378.35 41.2174 L1376.52 41.634 Q1374.11 42.1433 1371.63 42.1433 Q1365.43 42.1433 1361.82 38.5322 Q1358.18 34.9211 1358.18 28.5323 Q1358.18 22.1434 1361.82 18.5323 Q1365.43 14.9212 1371.63 14.9212 Q1373.97 14.9212 1376.52 15.4305 Q1377.44 15.6157 1378.35 15.8934 L1378.35 19.6666 Z" fill="#000000" fill-rule="nonzero" fill-opacity="1" /><path clip-path="url(#clip313)" d="M1384.49 570.247 L1384.49 662.16 L1485.82 662.16 L1485.82 570.247 L1384.49 570.247 L1384.49 570.247  Z" fill="#009af9" fill-rule="evenodd" fill-opacity="1"/>
<polyline clip-path="url(#clip313)" style="stroke:#000000; stroke-linecap:round; stroke-linejoin:round; stroke-width:4; stroke-opacity:1; fill:none" points="1384.49,570.247 1384.49,662.16 1485.82,662.16 1485.82,570.247 1384.49,570.247 "/>
<path clip-path="url(#clip313)" d="M1485.82 583.378 L1485.82 662.16 L1587.14 662.16 L1587.14 583.378 L1485.82 583.378 L1485.82 583.378  Z" fill="#009af9" fill-rule="evenodd" fill-opacity="1"/>
<polyline clip-path="url(#clip313)" style="stroke:#000000; stroke-linecap:round; stroke-linejoin:round; stroke-width:4; stroke-opacity:1; fill:none" points="1485.82,583.378 1485.82,662.16 1587.14,662.16 1587.14,583.378 1485.82,583.378 "/>
<path clip-path="url(#clip313)" d="M1587.14 438.943 L1587.14 662.16 L1688.46 662.16 L1688.46 438.943 L1587.14 438.943 L1587.14 438.943  Z" fill="#009af9" fill-rule="evenodd" fill-opacity="1"/>
<polyline clip-path="url(#clip313)" style="stroke:#000000; stroke-linecap:round; stroke-linejoin:round; stroke-width:4; stroke-opacity:1; fill:none" points="1587.14,438.943 1587.14,662.16 1688.46,662.16 1688.46,438.943 1587.14,438.943 "/>
<path clip-path="url(#clip313)" d="M1688.46 347.03 L1688.46 662.16 L1789.79 662.16 L1789.79 347.03 L1688.46 347.03 L1688.46 347.03  Z" fill="#009af9" fill-rule="evenodd" fill-opacity="1"/>
<polyline clip-path="url(#clip313)" style="stroke:#000000; stroke-linecap:round; stroke-linejoin:round; stroke-width:4; stroke-opacity:1; fill:none" points="1688.46,347.03 1688.46,662.16 1789.79,662.16 1789.79,347.03 1688.46,347.03 "/>
<path clip-path="url(#clip313)" d="M1789.79 294.508 L1789.79 662.16 L1891.11 662.16 L1891.11 294.508 L1789.79 294.508 L1789.79 294.508  Z" fill="#009af9" fill-rule="evenodd" fill-opacity="1"/>
<polyline clip-path="url(#clip313)" style="stroke:#000000; stroke-linecap:round; stroke-linejoin:round; stroke-width:4; stroke-opacity:1; fill:none" points="1789.79,294.508 1789.79,662.16 1891.11,662.16 1891.11,294.508 1789.79,294.508 "/>
<path clip-path="url(#clip313)" d="M1891.11 189.465 L1891.11 662.16 L1992.43 662.16 L1992.43 189.465 L1891.11 189.465 L1891.11 189.465  Z" fill="#009af9" fill-rule="evenodd" fill-opacity="1"/>
<polyline clip-path="url(#clip313)" style="stroke:#000000; stroke-linecap:round; stroke-linejoin:round; stroke-width:4; stroke-opacity:1; fill:none" points="1891.11,189.465 1891.11,662.16 1992.43,662.16 1992.43,189.465 1891.11,189.465 "/>
<path clip-path="url(#clip313)" d="M1992.43 97.5521 L1992.43 662.16 L2093.75 662.16 L2093.75 97.5521 L1992.43 97.5521 L1992.43 97.5521  Z" fill="#009af9" fill-rule="evenodd" fill-opacity="1"/>
<polyline clip-path="url(#clip313)" style="stroke:#000000; stroke-linecap:round; stroke-linejoin:round; stroke-width:4; stroke-opacity:1; fill:none" points="1992.43,97.5521 1992.43,662.16 2093.75,662.16 2093.75,97.5521 1992.43,97.5521 "/>
<path clip-path="url(#clip313)" d="M2093.75 97.5521 L2093.75 662.16 L2195.08 662.16 L2195.08 97.5521 L2093.75 97.5521 L2093.75 97.5521  Z" fill="#009af9" fill-rule="evenodd" fill-opacity="1"/>
<polyline clip-path="url(#clip313)" style="stroke:#000000; stroke-linecap:round; stroke-linejoin:round; stroke-width:4; stroke-opacity:1; fill:none" points="2093.75,97.5521 2093.75,662.16 2195.08,662.16 2195.08,97.5521 2093.75,97.5521 "/>
<path clip-path="url(#clip313)" d="M2195.08 438.943 L2195.08 662.16 L2296.4 662.16 L2296.4 438.943 L2195.08 438.943 L2195.08 438.943  Z" fill="#009af9" fill-rule="evenodd" fill-opacity="1"/>
<polyline clip-path="url(#clip313)" style="stroke:#000000; stroke-linecap:round; stroke-linejoin:round; stroke-width:4; stroke-opacity:1; fill:none" points="2195.08,438.943 2195.08,662.16 2296.4,662.16 2296.4,438.943 2195.08,438.943 "/>
<circle clip-path="url(#clip313)" style="fill:#009af9; stroke:none; fill-opacity:0" cx="1435.16" cy="570.247" r="2"/>
<circle clip-path="url(#clip313)" style="fill:#009af9; stroke:none; fill-opacity:0" cx="1536.48" cy="583.378" r="2"/>
<circle clip-path="url(#clip313)" style="fill:#009af9; stroke:none; fill-opacity:0" cx="1637.8" cy="438.943" r="2"/>
<circle clip-path="url(#clip313)" style="fill:#009af9; stroke:none; fill-opacity:0" cx="1739.12" cy="347.03" r="2"/>
<circle clip-path="url(#clip313)" style="fill:#009af9; stroke:none; fill-opacity:0" cx="1840.45" cy="294.508" r="2"/>
<circle clip-path="url(#clip313)" style="fill:#009af9; stroke:none; fill-opacity:0" cx="1941.77" cy="189.465" r="2"/>
<circle clip-path="url(#clip313)" style="fill:#009af9; stroke:none; fill-opacity:0" cx="2043.09" cy="97.5521" r="2"/>
<circle clip-path="url(#clip313)" style="fill:#009af9; stroke:none; fill-opacity:0" cx="2144.42" cy="97.5521" r="2"/>
<circle clip-path="url(#clip313)" style="fill:#009af9; stroke:none; fill-opacity:0" cx="2245.74" cy="438.943" r="2"/>
<polyline clip-path="url(#clip313)" style="stroke:#ff0000; stroke-linecap:round; stroke-linejoin:round; stroke-width:8; stroke-opacity:1; fill:none" stroke-dasharray="32, 20" points="1867.7,1226.77 1867.7,-467.056 "/>
<polyline clip-path="url(#clip313)" style="stroke:#ff0000; stroke-linecap:round; stroke-linejoin:round; stroke-width:6; stroke-opacity:1; fill:none" stroke-dasharray="24, 12, 3, 12" points="1470.4,1226.77 1470.4,-467.056 "/>
<polyline clip-path="url(#clip313)" style="stroke:#ff0000; stroke-linecap:round; stroke-linejoin:round; stroke-width:6; stroke-opacity:1; fill:none" stroke-dasharray="24, 12, 3, 12" points="2238.35,1226.77 2238.35,-467.056 "/>
<path clip-path="url(#clip310)" d="M128.138 1456.91 L1152.76 1456.91 L1152.76 892.306 L128.138 892.306  Z" fill="#ffffff" fill-rule="evenodd" fill-opacity="1"/>
<defs>
  <clipPath id="clip314">
    <rect x="128" y="892" width="1026" height="566"/>
  </clipPath>
</defs>
<polyline clip-path="url(#clip314)" style="stroke:#000000; stroke-linecap:round; stroke-linejoin:round; stroke-width:2; stroke-opacity:0.1; fill:none" points="184.494,1456.91 184.494,892.306 "/>
<polyline clip-path="url(#clip314)" style="stroke:#000000; stroke-linecap:round; stroke-linejoin:round; stroke-width:2; stroke-opacity:0.1; fill:none" points="412.47,1456.91 412.47,892.306 "/>
<polyline clip-path="url(#clip314)" style="stroke:#000000; stroke-linecap:round; stroke-linejoin:round; stroke-width:2; stroke-opacity:0.1; fill:none" points="640.447,1456.91 640.447,892.306 "/>
<polyline clip-path="url(#clip314)" style="stroke:#000000; stroke-linecap:round; stroke-linejoin:round; stroke-width:2; stroke-opacity:0.1; fill:none" points="868.423,1456.91 868.423,892.306 "/>
<polyline clip-path="url(#clip314)" style="stroke:#000000; stroke-linecap:round; stroke-linejoin:round; stroke-width:2; stroke-opacity:0.1; fill:none" points="1096.4,1456.91 1096.4,892.306 "/>
<polyline clip-path="url(#clip314)" style="stroke:#000000; stroke-linecap:round; stroke-linejoin:round; stroke-width:2; stroke-opacity:0.1; fill:none" points="128.138,1456.91 1152.76,1456.91 "/>
<polyline clip-path="url(#clip314)" style="stroke:#000000; stroke-linecap:round; stroke-linejoin:round; stroke-width:2; stroke-opacity:0.1; fill:none" points="128.138,1313.98 1152.76,1313.98 "/>
<polyline clip-path="url(#clip314)" style="stroke:#000000; stroke-linecap:round; stroke-linejoin:round; stroke-width:2; stroke-opacity:0.1; fill:none" points="128.138,1171.04 1152.76,1171.04 "/>
<polyline clip-path="url(#clip314)" style="stroke:#000000; stroke-linecap:round; stroke-linejoin:round; stroke-width:2; stroke-opacity:0.1; fill:none" points="128.138,1028.1 1152.76,1028.1 "/>
<polyline clip-path="url(#clip310)" style="stroke:#000000; stroke-linecap:round; stroke-linejoin:round; stroke-width:4; stroke-opacity:1; fill:none" points="128.138,1456.91 1152.76,1456.91 "/>
<polyline clip-path="url(#clip310)" style="stroke:#000000; stroke-linecap:round; stroke-linejoin:round; stroke-width:4; stroke-opacity:1; fill:none" points="184.494,1456.91 184.494,1438.02 "/>
<polyline clip-path="url(#clip310)" style="stroke:#000000; stroke-linecap:round; stroke-linejoin:round; stroke-width:4; stroke-opacity:1; fill:none" points="412.47,1456.91 412.47,1438.02 "/>
<polyline clip-path="url(#clip310)" style="stroke:#000000; stroke-linecap:round; stroke-linejoin:round; stroke-width:4; stroke-opacity:1; fill:none" points="640.447,1456.91 640.447,1438.02 "/>
<polyline clip-path="url(#clip310)" style="stroke:#000000; stroke-linecap:round; stroke-linejoin:round; stroke-width:4; stroke-opacity:1; fill:none" points="868.423,1456.91 868.423,1438.02 "/>
<polyline clip-path="url(#clip310)" style="stroke:#000000; stroke-linecap:round; stroke-linejoin:round; stroke-width:4; stroke-opacity:1; fill:none" points="1096.4,1456.91 1096.4,1438.02 "/>
<path clip-path="url(#clip310)" d="M115.177 1544.11 Q113.262 1546.03 114.182 1548.89 Q115.103 1551.73 118.884 1555.51 Q122.653 1559.28 125.501 1560.21 Q128.349 1561.12 130.264 1559.2 Q132.191 1557.27 131.271 1554.44 Q130.35 1551.58 126.581 1547.81 Q122.8 1544.03 119.952 1543.12 Q117.104 1542.19 115.177 1544.11 M113.212 1542.15 Q116.294 1539.07 120.357 1539.89 Q124.42 1540.69 129.061 1545.33 Q133.689 1549.96 134.499 1554.03 Q135.309 1558.08 132.228 1561.17 Q129.147 1564.25 125.083 1563.45 Q121.02 1562.63 116.392 1558 Q111.752 1553.36 110.941 1549.31 Q110.131 1545.23 113.212 1542.15 Z" fill="#000000" fill-rule="nonzero" fill-opacity="1" /><path clip-path="url(#clip310)" d="M139.446 1547 L142.037 1544.41 L145.155 1547.53 L142.565 1550.12 L139.446 1547 Z" fill="#000000" fill-rule="nonzero" fill-opacity="1" /><path clip-path="url(#clip310)" d="M132.253 1523.77 L141.988 1514.04 L144.075 1516.13 L136.611 1523.59 L141.104 1528.08 Q141.46 1527.36 141.914 1526.73 Q142.356 1526.09 142.896 1525.55 Q145.965 1522.48 149.439 1522.37 Q152.913 1522.26 155.786 1525.14 Q158.744 1528.09 158.548 1531.58 Q158.339 1535.05 154.988 1538.41 Q153.834 1539.56 152.435 1540.57 Q151.047 1541.56 149.378 1542.45 L146.886 1539.95 Q148.592 1539.45 150.065 1538.57 Q151.538 1537.68 152.852 1536.37 Q154.976 1534.24 155.098 1531.89 Q155.221 1529.53 153.306 1527.62 Q151.391 1525.7 149.034 1525.82 Q146.677 1525.95 144.553 1528.07 Q143.559 1529.06 142.786 1530.28 Q142.024 1531.48 141.46 1532.98 L132.253 1523.77 Z" fill="#000000" fill-rule="nonzero" fill-opacity="1" /><path clip-path="url(#clip310)" d="M164.183 1508.74 Q166.343 1507.34 168.541 1507.54 Q170.75 1507.74 172.518 1509.51 Q175.231 1512.22 174.851 1515.57 Q174.47 1518.92 171.033 1522.36 Q169.879 1523.52 168.418 1524.51 Q166.982 1525.5 165.226 1526.35 L162.832 1523.96 Q164.465 1523.53 166 1522.61 Q167.534 1521.69 168.872 1520.35 Q171.205 1518.02 171.499 1515.88 Q171.806 1513.73 170.051 1511.98 Q168.43 1510.36 166.38 1510.59 Q164.33 1510.8 162.305 1512.82 L160.168 1514.96 L158.131 1512.92 L160.365 1510.69 Q162.194 1508.86 162.44 1507.16 Q162.673 1505.46 161.298 1504.08 Q159.886 1502.67 158.131 1502.93 Q156.375 1503.16 154.509 1505.03 Q153.49 1506.05 152.545 1507.43 Q151.6 1508.82 150.667 1510.69 L148.457 1508.48 Q149.476 1506.67 150.507 1505.25 Q151.551 1503.81 152.643 1502.72 Q155.467 1499.9 158.401 1499.54 Q161.322 1499.17 163.508 1501.36 Q165.03 1502.88 165.214 1504.81 Q165.386 1506.72 164.183 1508.74 Z" fill="#000000" fill-rule="nonzero" fill-opacity="1" /><path clip-path="url(#clip310)" d="M164.244 1491.78 L173.979 1482.05 L176.066 1484.13 L168.602 1491.6 L173.095 1496.09 Q173.451 1495.37 173.905 1494.74 Q174.347 1494.1 174.888 1493.56 Q177.957 1490.49 181.431 1490.38 Q184.905 1490.27 187.777 1493.14 Q190.736 1496.1 190.54 1499.59 Q190.331 1503.06 186.979 1506.41 Q185.826 1507.57 184.426 1508.58 Q183.039 1509.57 181.369 1510.45 L178.877 1507.96 Q180.584 1507.46 182.057 1506.57 Q183.53 1505.69 184.843 1504.38 Q186.967 1502.25 187.09 1499.9 Q187.213 1497.54 185.298 1495.62 Q183.383 1493.71 181.026 1493.83 Q178.669 1493.95 176.545 1496.08 Q175.55 1497.07 174.777 1498.29 Q174.016 1499.49 173.451 1500.99 L164.244 1491.78 Z" fill="#000000" fill-rule="nonzero" fill-opacity="1" /><path clip-path="url(#clip310)" d="M342.625 1544.64 Q340.71 1546.56 341.631 1549.42 Q342.552 1552.25 346.333 1556.03 Q350.101 1559.8 352.95 1560.74 Q355.798 1561.65 357.713 1559.73 Q359.64 1557.8 358.719 1554.97 Q357.799 1552.11 354.03 1548.34 Q350.249 1544.56 347.401 1543.65 Q344.553 1542.72 342.625 1544.64 M340.661 1542.68 Q343.742 1539.6 347.806 1540.42 Q351.869 1541.22 356.51 1545.86 Q361.138 1550.49 361.948 1554.56 Q362.758 1558.61 359.677 1561.69 Q356.596 1564.78 352.532 1563.98 Q348.469 1563.15 343.841 1558.53 Q339.2 1553.89 338.39 1549.84 Q337.58 1545.76 340.661 1542.68 Z" fill="#000000" fill-rule="nonzero" fill-opacity="1" /><path clip-path="url(#clip310)" d="M366.895 1547.53 L369.485 1544.94 L372.604 1548.06 L370.013 1550.65 L366.895 1547.53 Z" fill="#000000" fill-rule="nonzero" fill-opacity="1" /><path clip-path="url(#clip310)" d="M359.701 1524.3 L369.436 1514.57 L371.523 1516.65 L364.059 1524.12 L368.552 1528.61 Q368.908 1527.89 369.363 1527.26 Q369.805 1526.62 370.345 1526.08 Q373.414 1523.01 376.888 1522.9 Q380.362 1522.79 383.235 1525.66 Q386.193 1528.62 385.997 1532.11 Q385.788 1535.58 382.437 1538.93 Q381.283 1540.09 379.883 1541.09 Q378.496 1542.09 376.827 1542.97 L374.335 1540.48 Q376.041 1539.98 377.514 1539.09 Q378.987 1538.21 380.301 1536.9 Q382.424 1534.77 382.547 1532.42 Q382.67 1530.06 380.755 1528.14 Q378.84 1526.23 376.483 1526.35 Q374.126 1526.47 372.002 1528.6 Q371.008 1529.59 370.234 1530.81 Q369.473 1532.01 368.908 1533.51 L359.701 1524.3 Z" fill="#000000" fill-rule="nonzero" fill-opacity="1" /><path clip-path="url(#clip310)" d="M384.646 1503.68 L388.17 1519.72 L394.43 1513.46 L384.646 1503.68 M381.835 1502.17 L384.953 1499.05 L396.898 1510.99 L399.513 1508.38 L401.575 1510.44 L398.96 1513.06 L403.282 1517.38 L400.814 1519.84 L396.493 1515.52 L388.219 1523.8 L385.825 1521.4 L381.835 1502.17 Z" fill="#000000" fill-rule="nonzero" fill-opacity="1" /><path clip-path="url(#clip310)" d="M398.604 1488.66 Q396.689 1490.58 397.61 1493.44 Q398.531 1496.27 402.312 1500.06 Q406.08 1503.82 408.929 1504.76 Q411.777 1505.67 413.692 1503.75 Q415.619 1501.82 414.698 1498.99 Q413.778 1496.13 410.009 1492.36 Q406.228 1488.58 403.38 1487.67 Q400.532 1486.74 398.604 1488.66 M396.64 1486.7 Q399.721 1483.62 403.785 1484.44 Q407.848 1485.24 412.489 1489.88 Q417.117 1494.51 417.927 1498.58 Q418.737 1502.63 415.656 1505.72 Q412.575 1508.8 408.511 1508 Q404.448 1507.18 399.82 1502.55 Q395.179 1497.91 394.369 1493.86 Q393.559 1489.78 396.64 1486.7 Z" fill="#000000" fill-rule="nonzero" fill-opacity="1" /><path clip-path="url(#clip310)" d="M571.13 1544.11 Q569.215 1546.03 570.135 1548.89 Q571.056 1551.73 574.837 1555.51 Q578.606 1559.28 581.454 1560.21 Q584.302 1561.12 586.217 1559.2 Q588.145 1557.27 587.224 1554.44 Q586.303 1551.58 582.534 1547.81 Q578.753 1544.03 575.905 1543.12 Q573.057 1542.19 571.13 1544.11 M569.166 1542.15 Q572.247 1539.07 576.31 1539.89 Q580.374 1540.69 585.014 1545.33 Q589.642 1549.96 590.452 1554.03 Q591.263 1558.08 588.181 1561.17 Q585.1 1564.25 581.037 1563.45 Q576.973 1562.63 572.345 1558 Q567.705 1553.36 566.895 1549.31 Q566.084 1545.23 569.166 1542.15 Z" fill="#000000" fill-rule="nonzero" fill-opacity="1" /><path clip-path="url(#clip310)" d="M595.4 1547 L597.99 1544.41 L601.108 1547.53 L598.518 1550.12 L595.4 1547 Z" fill="#000000" fill-rule="nonzero" fill-opacity="1" /><path clip-path="url(#clip310)" d="M588.206 1523.77 L597.941 1514.04 L600.028 1516.13 L592.564 1523.59 L597.057 1528.08 Q597.413 1527.36 597.867 1526.73 Q598.309 1526.09 598.849 1525.55 Q601.918 1522.48 605.392 1522.37 Q608.867 1522.26 611.739 1525.14 Q614.698 1528.09 614.501 1531.58 Q614.293 1535.05 610.941 1538.41 Q609.787 1539.56 608.388 1540.57 Q607.001 1541.56 605.331 1542.45 L602.839 1539.95 Q604.545 1539.45 606.019 1538.57 Q607.492 1537.68 608.805 1536.37 Q610.929 1534.24 611.052 1531.89 Q611.174 1529.53 609.259 1527.62 Q607.344 1525.7 604.987 1525.82 Q602.63 1525.95 600.507 1528.07 Q599.512 1529.06 598.739 1530.28 Q597.978 1531.48 597.413 1532.98 L588.206 1523.77 Z" fill="#000000" fill-rule="nonzero" fill-opacity="1" /><path clip-path="url(#clip310)" d="M613.151 1503.15 L616.674 1519.19 L622.935 1512.93 L613.151 1503.15 M610.34 1501.64 L613.458 1498.52 L625.402 1510.47 L628.017 1507.85 L630.08 1509.91 L627.465 1512.53 L631.786 1516.85 L629.319 1519.32 L624.997 1515 L616.723 1523.27 L614.329 1520.88 L610.34 1501.64 Z" fill="#000000" fill-rule="nonzero" fill-opacity="1" /><path clip-path="url(#clip310)" d="M620.197 1491.78 L629.932 1482.05 L632.019 1484.13 L624.555 1491.6 L629.048 1496.09 Q629.404 1495.37 629.859 1494.74 Q630.301 1494.1 630.841 1493.56 Q633.91 1490.49 637.384 1490.38 Q640.858 1490.27 643.731 1493.14 Q646.689 1496.1 646.493 1499.59 Q646.284 1503.06 642.933 1506.41 Q641.779 1507.57 640.379 1508.58 Q638.992 1509.57 637.323 1510.45 L634.831 1507.96 Q636.537 1507.46 638.01 1506.57 Q639.483 1505.69 640.797 1504.38 Q642.92 1502.25 643.043 1499.9 Q643.166 1497.54 641.251 1495.62 Q639.336 1493.71 636.979 1493.83 Q634.622 1493.95 632.498 1496.08 Q631.504 1497.07 630.73 1498.29 Q629.969 1499.49 629.404 1500.99 L620.197 1491.78 Z" fill="#000000" fill-rule="nonzero" fill-opacity="1" /><path clip-path="url(#clip310)" d="M798.579 1544.64 Q796.664 1546.56 797.584 1549.42 Q798.505 1552.25 802.286 1556.03 Q806.055 1559.8 808.903 1560.74 Q811.751 1561.65 813.666 1559.73 Q815.593 1557.8 814.673 1554.97 Q813.752 1552.11 809.983 1548.34 Q806.202 1544.56 803.354 1543.65 Q800.506 1542.72 798.579 1544.64 M796.614 1542.68 Q799.696 1539.6 803.759 1540.42 Q807.823 1541.22 812.463 1545.86 Q817.091 1550.49 817.901 1554.56 Q818.711 1558.61 815.63 1561.69 Q812.549 1564.78 808.485 1563.98 Q804.422 1563.15 799.794 1558.53 Q795.154 1553.89 794.343 1549.84 Q793.533 1545.76 796.614 1542.68 Z" fill="#000000" fill-rule="nonzero" fill-opacity="1" /><path clip-path="url(#clip310)" d="M822.848 1547.53 L825.439 1544.94 L828.557 1548.06 L825.967 1550.65 L822.848 1547.53 Z" fill="#000000" fill-rule="nonzero" fill-opacity="1" /><path clip-path="url(#clip310)" d="M815.655 1524.3 L825.39 1514.57 L827.477 1516.65 L820.013 1524.12 L824.506 1528.61 Q824.862 1527.89 825.316 1527.26 Q825.758 1526.62 826.298 1526.08 Q829.367 1523.01 832.841 1522.9 Q836.315 1522.79 839.188 1525.66 Q842.146 1528.62 841.95 1532.11 Q841.741 1535.58 838.39 1538.93 Q837.236 1540.09 835.837 1541.09 Q834.449 1542.09 832.78 1542.97 L830.288 1540.48 Q831.994 1539.98 833.467 1539.09 Q834.94 1538.21 836.254 1536.9 Q838.378 1534.77 838.5 1532.42 Q838.623 1530.06 836.708 1528.14 Q834.793 1526.23 832.436 1526.35 Q830.079 1526.47 827.955 1528.6 Q826.961 1529.59 826.188 1530.81 Q825.426 1532.01 824.862 1533.51 L815.655 1524.3 Z" fill="#000000" fill-rule="nonzero" fill-opacity="1" /><path clip-path="url(#clip310)" d="M831.65 1508.31 L841.385 1498.57 L843.472 1500.66 L836.008 1508.12 L840.501 1512.61 Q840.857 1511.89 841.312 1511.26 Q841.754 1510.63 842.294 1510.09 Q845.363 1507.02 848.837 1506.91 Q852.311 1506.8 855.184 1509.67 Q858.142 1512.63 857.946 1516.11 Q857.737 1519.59 854.386 1522.94 Q853.232 1524.09 851.832 1525.1 Q850.445 1526.09 848.776 1526.98 L846.284 1524.49 Q847.99 1523.98 849.463 1523.1 Q850.936 1522.21 852.25 1520.9 Q854.373 1518.78 854.496 1516.42 Q854.619 1514.06 852.704 1512.15 Q850.789 1510.23 848.432 1510.36 Q846.075 1510.48 843.951 1512.6 Q842.957 1513.6 842.183 1514.81 Q841.422 1516.01 840.857 1517.51 L831.65 1508.31 Z" fill="#000000" fill-rule="nonzero" fill-opacity="1" /><path clip-path="url(#clip310)" d="M854.558 1488.66 Q852.643 1490.58 853.563 1493.44 Q854.484 1496.27 858.265 1500.06 Q862.034 1503.82 864.882 1504.76 Q867.73 1505.67 869.645 1503.75 Q871.572 1501.82 870.652 1498.99 Q869.731 1496.13 865.962 1492.36 Q862.181 1488.58 859.333 1487.67 Q856.485 1486.74 854.558 1488.66 M852.593 1486.7 Q855.675 1483.62 859.738 1484.44 Q863.802 1485.24 868.442 1489.88 Q873.07 1494.51 873.88 1498.58 Q874.69 1502.63 871.609 1505.72 Q868.528 1508.8 864.464 1508 Q860.401 1507.18 855.773 1502.55 Q851.133 1497.91 850.322 1493.86 Q849.512 1489.78 852.593 1486.7 Z" fill="#000000" fill-rule="nonzero" fill-opacity="1" /><path clip-path="url(#clip310)" d="M1027.08 1544.11 Q1025.17 1546.03 1026.09 1548.89 Q1027.01 1551.73 1030.79 1555.51 Q1034.56 1559.28 1037.41 1560.21 Q1040.26 1561.12 1042.17 1559.2 Q1044.1 1557.27 1043.18 1554.44 Q1042.26 1551.58 1038.49 1547.81 Q1034.71 1544.03 1031.86 1543.12 Q1029.01 1542.19 1027.08 1544.11 M1025.12 1542.15 Q1028.2 1539.07 1032.26 1539.89 Q1036.33 1540.69 1040.97 1545.33 Q1045.6 1549.96 1046.41 1554.03 Q1047.22 1558.08 1044.13 1561.17 Q1041.05 1564.25 1036.99 1563.45 Q1032.93 1562.63 1028.3 1558 Q1023.66 1553.36 1022.85 1549.31 Q1022.04 1545.23 1025.12 1542.15 Z" fill="#000000" fill-rule="nonzero" fill-opacity="1" /><path clip-path="url(#clip310)" d="M1051.35 1547 L1053.94 1544.41 L1057.06 1547.53 L1054.47 1550.12 L1051.35 1547 Z" fill="#000000" fill-rule="nonzero" fill-opacity="1" /><path clip-path="url(#clip310)" d="M1044.16 1523.77 L1053.89 1514.04 L1055.98 1516.13 L1048.52 1523.59 L1053.01 1528.08 Q1053.37 1527.36 1053.82 1526.73 Q1054.26 1526.09 1054.8 1525.55 Q1057.87 1522.48 1061.35 1522.37 Q1064.82 1522.26 1067.69 1525.14 Q1070.65 1528.09 1070.45 1531.58 Q1070.25 1535.05 1066.89 1538.41 Q1065.74 1539.56 1064.34 1540.57 Q1062.95 1541.56 1061.28 1542.45 L1058.79 1539.95 Q1060.5 1539.45 1061.97 1538.57 Q1063.44 1537.68 1064.76 1536.37 Q1066.88 1534.24 1067 1531.89 Q1067.13 1529.53 1065.21 1527.62 Q1063.3 1525.7 1060.94 1525.82 Q1058.58 1525.95 1056.46 1528.07 Q1055.47 1529.06 1054.69 1530.28 Q1053.93 1531.48 1053.37 1532.98 L1044.16 1523.77 Z" fill="#000000" fill-rule="nonzero" fill-opacity="1" /><path clip-path="url(#clip310)" d="M1060.15 1507.78 L1069.89 1498.04 L1071.98 1500.13 L1064.51 1507.59 L1069.01 1512.09 Q1069.36 1511.36 1069.82 1510.74 Q1070.26 1510.1 1070.8 1509.56 Q1073.87 1506.49 1077.34 1506.38 Q1080.82 1506.27 1083.69 1509.14 Q1086.65 1512.1 1086.45 1515.59 Q1086.24 1519.06 1082.89 1522.41 Q1081.74 1523.56 1080.34 1524.57 Q1078.95 1525.57 1077.28 1526.45 L1074.79 1523.96 Q1076.49 1523.45 1077.97 1522.57 Q1079.44 1521.69 1080.75 1520.37 Q1082.88 1518.25 1083 1515.89 Q1083.12 1513.53 1081.21 1511.62 Q1079.29 1509.7 1076.94 1509.83 Q1074.58 1509.95 1072.46 1512.07 Q1071.46 1513.07 1070.69 1514.28 Q1069.93 1515.49 1069.36 1516.98 L1060.15 1507.78 Z" fill="#000000" fill-rule="nonzero" fill-opacity="1" /><path clip-path="url(#clip310)" d="M1076.15 1491.78 L1085.89 1482.05 L1087.97 1484.13 L1080.51 1491.6 L1085 1496.09 Q1085.36 1495.37 1085.81 1494.74 Q1086.25 1494.1 1086.79 1493.56 Q1089.86 1490.49 1093.34 1490.38 Q1096.81 1490.27 1099.68 1493.14 Q1102.64 1496.1 1102.45 1499.59 Q1102.24 1503.06 1098.89 1506.41 Q1097.73 1507.57 1096.33 1508.58 Q1094.95 1509.57 1093.28 1510.45 L1090.78 1507.96 Q1092.49 1507.46 1093.96 1506.57 Q1095.44 1505.69 1096.75 1504.38 Q1098.87 1502.25 1099 1499.9 Q1099.12 1497.54 1097.2 1495.62 Q1095.29 1493.71 1092.93 1493.83 Q1090.58 1493.95 1088.45 1496.08 Q1087.46 1497.07 1086.68 1498.29 Q1085.92 1499.49 1085.36 1500.99 L1076.15 1491.78 Z" fill="#000000" fill-rule="nonzero" fill-opacity="1" /><polyline clip-path="url(#clip310)" style="stroke:#000000; stroke-linecap:round; stroke-linejoin:round; stroke-width:4; stroke-opacity:1; fill:none" points="128.138,1456.91 128.138,892.306 "/>
<polyline clip-path="url(#clip310)" style="stroke:#000000; stroke-linecap:round; stroke-linejoin:round; stroke-width:4; stroke-opacity:1; fill:none" points="128.138,1456.91 147.035,1456.91 "/>
<polyline clip-path="url(#clip310)" style="stroke:#000000; stroke-linecap:round; stroke-linejoin:round; stroke-width:4; stroke-opacity:1; fill:none" points="128.138,1313.98 147.035,1313.98 "/>
<polyline clip-path="url(#clip310)" style="stroke:#000000; stroke-linecap:round; stroke-linejoin:round; stroke-width:4; stroke-opacity:1; fill:none" points="128.138,1171.04 147.035,1171.04 "/>
<polyline clip-path="url(#clip310)" style="stroke:#000000; stroke-linecap:round; stroke-linejoin:round; stroke-width:4; stroke-opacity:1; fill:none" points="128.138,1028.1 147.035,1028.1 "/>
<path clip-path="url(#clip310)" d="M83.1795 1446.26 Q80.4711 1446.26 79.0996 1448.94 Q77.7455 1451.59 77.7455 1456.94 Q77.7455 1462.27 79.0996 1464.94 Q80.4711 1467.6 83.1795 1467.6 Q85.9051 1467.6 87.2593 1464.94 Q88.6308 1462.27 88.6308 1456.94 Q88.6308 1451.59 87.2593 1448.94 Q85.9051 1446.26 83.1795 1446.26 M83.1795 1443.49 Q87.5371 1443.49 89.8287 1446.94 Q92.1377 1450.38 92.1377 1456.94 Q92.1377 1463.49 89.8287 1466.94 Q87.5371 1470.38 83.1795 1470.38 Q78.8218 1470.38 76.5128 1466.94 Q74.2212 1463.49 74.2212 1456.94 Q74.2212 1450.38 76.5128 1446.94 Q78.8218 1443.49 83.1795 1443.49 Z" fill="#000000" fill-rule="nonzero" fill-opacity="1" /><path clip-path="url(#clip310)" d="M56.0789 1323.98 L68.3184 1323.98 L68.3184 1326.94 L51.8602 1326.94 L51.8602 1323.98 Q53.8567 1321.92 57.2942 1318.45 Q60.749 1314.96 61.6344 1313.95 Q63.3184 1312.06 63.9782 1310.76 Q64.6552 1309.44 64.6552 1308.17 Q64.6552 1306.1 63.1969 1304.8 Q61.756 1303.5 59.4296 1303.5 Q57.7803 1303.5 55.94 1304.07 Q54.1171 1304.64 52.0338 1305.81 L52.0338 1302.27 Q54.1518 1301.41 55.9921 1300.98 Q57.8324 1300.55 59.3601 1300.55 Q63.3879 1300.55 65.7837 1302.56 Q68.1795 1304.57 68.1795 1307.94 Q68.1795 1309.54 67.5719 1310.98 Q66.9816 1312.4 65.4018 1314.35 Q64.9677 1314.85 62.6414 1317.27 Q60.315 1319.66 56.0789 1323.98 Z" fill="#000000" fill-rule="nonzero" fill-opacity="1" /><path clip-path="url(#clip310)" d="M83.1795 1303.32 Q80.4711 1303.32 79.0996 1306 Q77.7455 1308.65 77.7455 1314 Q77.7455 1319.33 79.0996 1322.01 Q80.4711 1324.66 83.1795 1324.66 Q85.9051 1324.66 87.2593 1322.01 Q88.6308 1319.33 88.6308 1314 Q88.6308 1308.65 87.2593 1306 Q85.9051 1303.32 83.1795 1303.32 M83.1795 1300.55 Q87.5371 1300.55 89.8287 1304 Q92.1377 1307.44 92.1377 1314 Q92.1377 1320.55 89.8287 1324 Q87.5371 1327.44 83.1795 1327.44 Q78.8218 1327.44 76.5128 1324 Q74.2212 1320.55 74.2212 1314 Q74.2212 1307.44 76.5128 1304 Q78.8218 1300.55 83.1795 1300.55 Z" fill="#000000" fill-rule="nonzero" fill-opacity="1" /><path clip-path="url(#clip310)" d="M62.6935 1161.13 L53.8393 1174.97 L62.6935 1174.97 L62.6935 1161.13 M61.7733 1158.08 L66.183 1158.08 L66.183 1174.97 L69.8809 1174.97 L69.8809 1177.89 L66.183 1177.89 L66.183 1184 L62.6935 1184 L62.6935 1177.89 L50.9921 1177.89 L50.9921 1174.5 L61.7733 1158.08 Z" fill="#000000" fill-rule="nonzero" fill-opacity="1" /><path clip-path="url(#clip310)" d="M83.1795 1160.39 Q80.4711 1160.39 79.0996 1163.06 Q77.7455 1165.72 77.7455 1171.06 Q77.7455 1176.39 79.0996 1179.07 Q80.4711 1181.72 83.1795 1181.72 Q85.9051 1181.72 87.2593 1179.07 Q88.6308 1176.39 88.6308 1171.06 Q88.6308 1165.72 87.2593 1163.06 Q85.9051 1160.39 83.1795 1160.39 M83.1795 1157.61 Q87.5371 1157.61 89.8287 1161.06 Q92.1377 1164.5 92.1377 1171.06 Q92.1377 1177.61 89.8287 1181.06 Q87.5371 1184.5 83.1795 1184.5 Q78.8218 1184.5 76.5128 1181.06 Q74.2212 1177.61 74.2212 1171.06 Q74.2212 1164.5 76.5128 1161.06 Q78.8218 1157.61 83.1795 1157.61 Z" fill="#000000" fill-rule="nonzero" fill-opacity="1" /><path clip-path="url(#clip310)" d="M60.9921 1026.7 Q58.631 1026.7 57.2421 1028.32 Q55.8706 1029.93 55.8706 1032.74 Q55.8706 1035.54 57.2421 1037.17 Q58.631 1038.78 60.9921 1038.78 Q63.3532 1038.78 64.7247 1037.17 Q66.1136 1035.54 66.1136 1032.74 Q66.1136 1029.93 64.7247 1028.32 Q63.3532 1026.7 60.9921 1026.7 M67.9538 1015.71 L67.9538 1018.91 Q66.6344 1018.28 65.2802 1017.95 Q63.9434 1017.62 62.624 1017.62 Q59.1518 1017.62 57.3115 1019.96 Q55.4886 1022.31 55.2282 1027.05 Q56.2525 1025.54 57.7976 1024.74 Q59.3428 1023.92 61.2004 1023.92 Q65.1066 1023.92 67.3636 1026.3 Q69.6379 1028.66 69.6379 1032.74 Q69.6379 1036.74 67.2768 1039.15 Q64.9157 1041.56 60.9921 1041.56 Q56.4956 1041.56 54.1171 1038.12 Q51.7386 1034.67 51.7386 1028.12 Q51.7386 1021.98 54.6553 1018.33 Q57.572 1014.67 62.4851 1014.67 Q63.8046 1014.67 65.1414 1014.93 Q66.4955 1015.19 67.9538 1015.71 Z" fill="#000000" fill-rule="nonzero" fill-opacity="1" /><path clip-path="url(#clip310)" d="M83.1795 1017.45 Q80.4711 1017.45 79.0996 1020.12 Q77.7455 1022.78 77.7455 1028.12 Q77.7455 1033.45 79.0996 1036.13 Q80.4711 1038.78 83.1795 1038.78 Q85.9051 1038.78 87.2593 1036.13 Q88.6308 1033.45 88.6308 1028.12 Q88.6308 1022.78 87.2593 1020.12 Q85.9051 1017.45 83.1795 1017.45 M83.1795 1014.67 Q87.5371 1014.67 89.8287 1018.12 Q92.1377 1021.56 92.1377 1028.12 Q92.1377 1034.67 89.8287 1038.12 Q87.5371 1041.56 83.1795 1041.56 Q78.8218 1041.56 76.5128 1038.12 Q74.2212 1034.67 74.2212 1028.12 Q74.2212 1021.56 76.5128 1018.12 Q78.8218 1014.67 83.1795 1014.67 Z" fill="#000000" fill-rule="nonzero" fill-opacity="1" /><path clip-path="url(#clip310)" d="M140.036 813.68 Q136.517 813.68 134.619 816.226 Q132.628 818.888 132.628 823.286 Q132.628 827.939 134.596 830.624 Q136.587 833.286 140.036 833.286 Q143.439 833.286 145.429 830.601 Q147.42 827.916 147.42 823.286 Q147.42 819.05 145.429 816.226 Q143.601 813.68 140.036 813.68 M140.036 810.3 L154.179 810.3 L154.179 814.559 L149.411 814.559 Q151.934 818.171 151.934 823.286 Q151.934 829.652 148.763 833.263 Q145.591 836.897 140.036 836.897 Q134.457 836.897 131.309 833.263 Q128.138 829.652 128.138 823.286 Q128.138 816.874 131.309 813.286 Q133.925 810.3 140.036 810.3 Z" fill="#000000" fill-rule="nonzero" fill-opacity="1" /><path clip-path="url(#clip310)" d="M165.198 836.226 L157.281 810.3 L161.864 810.3 L168.554 832.059 Q171.332 829.189 173.647 825.208 Q175.406 822.221 175.499 819.629 Q175.545 818.402 174.989 816.087 Q174.341 813.333 171.888 810.3 L176.193 810.3 L176.193 810.3 Q177.79 812.36 178.855 815.231 Q179.827 817.87 179.827 819.675 Q179.827 824.212 176.679 828.263 Q172.582 833.541 169.735 836.226 L165.198 836.226 Z" fill="#000000" fill-rule="nonzero" fill-opacity="1" /><path clip-path="url(#clip314)" d="M184.494 892.306 L184.494 1456.91 L412.47 1456.91 L412.47 892.306 L184.494 892.306 L184.494 892.306  Z" fill="#009af9" fill-rule="evenodd" fill-opacity="1"/>
<polyline clip-path="url(#clip314)" style="stroke:#000000; stroke-linecap:round; stroke-linejoin:round; stroke-width:4; stroke-opacity:1; fill:none" points="184.494,892.306 184.494,1456.91 412.47,1456.91 412.47,892.306 184.494,892.306 "/>
<path clip-path="url(#clip314)" d="M412.47 949.482 L412.47 1456.91 L640.447 1456.91 L640.447 949.482 L412.47 949.482 L412.47 949.482  Z" fill="#009af9" fill-rule="evenodd" fill-opacity="1"/>
<polyline clip-path="url(#clip314)" style="stroke:#000000; stroke-linecap:round; stroke-linejoin:round; stroke-width:4; stroke-opacity:1; fill:none" points="412.47,949.482 412.47,1456.91 640.447,1456.91 640.447,949.482 412.47,949.482 "/>
<path clip-path="url(#clip314)" d="M640.447 1171.04 L640.447 1456.91 L868.423 1456.91 L868.423 1171.04 L640.447 1171.04 L640.447 1171.04  Z" fill="#009af9" fill-rule="evenodd" fill-opacity="1"/>
<polyline clip-path="url(#clip314)" style="stroke:#000000; stroke-linecap:round; stroke-linejoin:round; stroke-width:4; stroke-opacity:1; fill:none" points="640.447,1171.04 640.447,1456.91 868.423,1456.91 868.423,1171.04 640.447,1171.04 "/>
<path clip-path="url(#clip314)" d="M868.423 1235.36 L868.423 1456.91 L1096.4 1456.91 L1096.4 1235.36 L868.423 1235.36 L868.423 1235.36  Z" fill="#009af9" fill-rule="evenodd" fill-opacity="1"/>
<polyline clip-path="url(#clip314)" style="stroke:#000000; stroke-linecap:round; stroke-linejoin:round; stroke-width:4; stroke-opacity:1; fill:none" points="868.423,1235.36 868.423,1456.91 1096.4,1456.91 1096.4,1235.36 868.423,1235.36 "/>
<circle clip-path="url(#clip314)" style="fill:#009af9; stroke:none; fill-opacity:0" cx="298.482" cy="892.306" r="2"/>
<circle clip-path="url(#clip314)" style="fill:#009af9; stroke:none; fill-opacity:0" cx="526.459" cy="949.482" r="2"/>
<circle clip-path="url(#clip314)" style="fill:#009af9; stroke:none; fill-opacity:0" cx="754.435" cy="1171.04" r="2"/>
<circle clip-path="url(#clip314)" style="fill:#009af9; stroke:none; fill-opacity:0" cx="982.412" cy="1235.36" r="2"/>
<polyline clip-path="url(#clip314)" style="stroke:#ff0000; stroke-linecap:round; stroke-linejoin:round; stroke-width:8; stroke-opacity:1; fill:none" stroke-dasharray="32, 20" points="587.121,2021.52 587.121,327.698 "/>
<polyline clip-path="url(#clip314)" style="stroke:#ff0000; stroke-linecap:round; stroke-linejoin:round; stroke-width:6; stroke-opacity:1; fill:none" stroke-dasharray="24, 12, 3, 12" points="226.052,2021.52 226.052,327.698 "/>
<polyline clip-path="url(#clip314)" style="stroke:#ff0000; stroke-linecap:round; stroke-linejoin:round; stroke-width:6; stroke-opacity:1; fill:none" stroke-dasharray="24, 12, 3, 12" points="968.863,2021.52 968.863,327.698 "/>
</svg>
