<?xml version="1.0" encoding="utf-8"?>
<svg xmlns="http://www.w3.org/2000/svg" xmlns:xlink="http://www.w3.org/1999/xlink" width="600" height="400" viewBox="0 0 2400 1600">
<defs>
  <clipPath id="clip220">
    <rect x="0" y="0" width="2400" height="1600"/>
  </clipPath>
</defs>
<path clip-path="url(#clip220)" d="M0 1600 L2400 1600 L2400 0 L0 0  Z" fill="#ffffff" fill-rule="evenodd" fill-opacity="1"/>
<defs>
  <clipPath id="clip221">
    <rect x="480" y="0" width="1681" height="1600"/>
  </clipPath>
</defs>
<path clip-path="url(#clip220)" d="M161.818 662.16 L1152.94 662.16 L1152.94 97.5521 L161.818 97.5521  Z" fill="#ffffff" fill-rule="evenodd" fill-opacity="1"/>
<defs>
  <clipPath id="clip222">
    <rect x="161" y="97" width="992" height="566"/>
  </clipPath>
</defs>
<polyline clip-path="url(#clip222)" style="stroke:#000000; stroke-linecap:round; stroke-linejoin:round; stroke-width:2; stroke-opacity:0.1; fill:none" points="183.203,662.16 183.203,97.5521 "/>
<polyline clip-path="url(#clip222)" style="stroke:#000000; stroke-linecap:round; stroke-linejoin:round; stroke-width:2; stroke-opacity:0.1; fill:none" points="445.76,662.16 445.76,97.5521 "/>
<polyline clip-path="url(#clip222)" style="stroke:#000000; stroke-linecap:round; stroke-linejoin:round; stroke-width:2; stroke-opacity:0.1; fill:none" points="708.318,662.16 708.318,97.5521 "/>
<polyline clip-path="url(#clip222)" style="stroke:#000000; stroke-linecap:round; stroke-linejoin:round; stroke-width:2; stroke-opacity:0.1; fill:none" points="970.875,662.16 970.875,97.5521 "/>
<polyline clip-path="url(#clip222)" style="stroke:#000000; stroke-linecap:round; stroke-linejoin:round; stroke-width:2; stroke-opacity:0.1; fill:none" points="161.818,646.181 1152.94,646.181 "/>
<polyline clip-path="url(#clip222)" style="stroke:#000000; stroke-linecap:round; stroke-linejoin:round; stroke-width:2; stroke-opacity:0.1; fill:none" points="161.818,519.63 1152.94,519.63 "/>
<polyline clip-path="url(#clip222)" style="stroke:#000000; stroke-linecap:round; stroke-linejoin:round; stroke-width:2; stroke-opacity:0.1; fill:none" points="161.818,393.079 1152.94,393.079 "/>
<polyline clip-path="url(#clip222)" style="stroke:#000000; stroke-linecap:round; stroke-linejoin:round; stroke-width:2; stroke-opacity:0.1; fill:none" points="161.818,266.529 1152.94,266.529 "/>
<polyline clip-path="url(#clip222)" style="stroke:#000000; stroke-linecap:round; stroke-linejoin:round; stroke-width:2; stroke-opacity:0.1; fill:none" points="161.818,139.978 1152.94,139.978 "/>
<polyline clip-path="url(#clip220)" style="stroke:#000000; stroke-linecap:round; stroke-linejoin:round; stroke-width:4; stroke-opacity:1; fill:none" points="161.818,662.16 1152.94,662.16 "/>
<polyline clip-path="url(#clip220)" style="stroke:#000000; stroke-linecap:round; stroke-linejoin:round; stroke-width:4; stroke-opacity:1; fill:none" points="183.203,662.16 183.203,643.263 "/>
<polyline clip-path="url(#clip220)" style="stroke:#000000; stroke-linecap:round; stroke-linejoin:round; stroke-width:4; stroke-opacity:1; fill:none" points="445.76,662.16 445.76,643.263 "/>
<polyline clip-path="url(#clip220)" style="stroke:#000000; stroke-linecap:round; stroke-linejoin:round; stroke-width:4; stroke-opacity:1; fill:none" points="708.318,662.16 708.318,643.263 "/>
<polyline clip-path="url(#clip220)" style="stroke:#000000; stroke-linecap:round; stroke-linejoin:round; stroke-width:4; stroke-opacity:1; fill:none" points="970.875,662.16 970.875,643.263 "/>
<path clip-path="url(#clip220)" d="M129.354 733.893 Q127.438 735.808 128.359 738.668 Q129.28 741.504 133.061 745.285 Q136.83 749.054 139.678 749.987 Q142.526 750.895 144.441 748.98 Q146.368 747.053 145.448 744.217 Q144.527 741.357 140.758 737.588 Q136.977 733.807 134.129 732.898 Q131.281 731.966 129.354 733.893 M127.389 731.929 Q130.471 728.847 134.534 729.67 Q138.597 730.468 143.238 735.108 Q147.866 739.736 148.676 743.812 Q149.486 747.863 146.405 750.944 Q143.324 754.026 139.26 753.228 Q135.197 752.405 130.569 747.777 Q125.929 743.137 125.118 739.086 Q124.308 735.01 127.389 731.929 Z" fill="#000000" fill-rule="nonzero" fill-opacity="1" /><path clip-path="url(#clip220)" d="M153.623 736.778 L156.214 734.187 L159.332 737.306 L156.742 739.896 L153.623 736.778 Z" fill="#000000" fill-rule="nonzero" fill-opacity="1" /><path clip-path="url(#clip220)" d="M161.333 717.897 Q159.565 719.665 159.491 721.629 Q159.43 723.581 161.087 725.238 Q162.745 726.895 164.696 726.834 Q166.661 726.76 168.428 724.993 Q170.196 723.225 170.27 721.261 Q170.331 719.284 168.686 717.639 Q167.029 715.982 165.065 716.056 Q163.113 716.117 161.333 717.897 M157.797 719.321 Q155.809 720.524 153.82 720.328 Q151.843 720.119 150.272 718.548 Q148.075 716.35 148.357 713.515 Q148.652 710.666 151.377 707.941 Q154.114 705.204 156.95 704.921 Q159.786 704.639 161.983 706.836 Q163.555 708.408 163.751 710.396 Q163.96 712.373 162.769 714.349 Q164.979 712.974 167.188 713.195 Q169.41 713.404 171.166 715.16 Q173.83 717.823 173.621 720.88 Q173.425 723.925 170.393 726.957 Q167.36 729.989 164.304 730.198 Q161.259 730.394 158.595 727.73 Q156.84 725.975 156.631 723.753 Q156.422 721.531 157.797 719.321 M152.973 716.313 Q154.397 717.738 156.079 717.652 Q157.773 717.553 159.381 715.945 Q160.977 714.349 161.075 712.655 Q161.185 710.949 159.761 709.525 Q158.337 708.101 156.631 708.211 Q154.937 708.309 153.341 709.905 Q151.733 711.514 151.635 713.208 Q151.549 714.889 152.973 716.313 Z" fill="#000000" fill-rule="nonzero" fill-opacity="1" /><path clip-path="url(#clip220)" d="M169.337 693.91 Q167.422 695.825 168.342 698.685 Q169.263 701.521 173.044 705.302 Q176.813 709.071 179.661 710.004 Q182.509 710.912 184.424 708.997 Q186.351 707.07 185.431 704.234 Q184.51 701.373 180.741 697.605 Q176.96 693.824 174.112 692.915 Q171.264 691.982 169.337 693.91 M167.373 691.945 Q170.454 688.864 174.517 689.687 Q178.581 690.485 183.221 695.125 Q187.849 699.753 188.659 703.829 Q189.47 707.88 186.388 710.961 Q183.307 714.042 179.244 713.244 Q175.18 712.422 170.552 707.794 Q165.912 703.154 165.102 699.102 Q164.291 695.027 167.373 691.945 Z" fill="#000000" fill-rule="nonzero" fill-opacity="1" /><path clip-path="url(#clip220)" d="M392.439 733.365 Q390.524 735.28 391.445 738.14 Q392.365 740.976 396.146 744.757 Q399.915 748.526 402.763 749.459 Q405.611 750.367 407.526 748.452 Q409.454 746.525 408.533 743.689 Q407.612 740.829 403.843 737.06 Q400.062 733.279 397.214 732.371 Q394.366 731.438 392.439 733.365 M390.475 731.401 Q393.556 728.32 397.619 729.142 Q401.683 729.94 406.323 734.58 Q410.951 739.208 411.761 743.284 Q412.572 747.335 409.49 750.416 Q406.409 753.498 402.346 752.7 Q398.282 751.877 393.654 747.249 Q389.014 742.609 388.204 738.558 Q387.393 734.482 390.475 731.401 Z" fill="#000000" fill-rule="nonzero" fill-opacity="1" /><path clip-path="url(#clip220)" d="M416.709 736.25 L419.299 733.66 L422.417 736.778 L419.827 739.368 L416.709 736.25 Z" fill="#000000" fill-rule="nonzero" fill-opacity="1" /><path clip-path="url(#clip220)" d="M424.418 717.369 Q422.65 719.137 422.577 721.101 Q422.515 723.053 424.173 724.71 Q425.83 726.368 427.782 726.306 Q429.746 726.233 431.514 724.465 Q433.281 722.697 433.355 720.733 Q433.416 718.756 431.771 717.111 Q430.114 715.454 428.15 715.528 Q426.198 715.589 424.418 717.369 M420.883 718.793 Q418.894 719.996 416.905 719.8 Q414.929 719.591 413.357 718.02 Q411.16 715.822 411.442 712.987 Q411.737 710.139 414.462 707.413 Q417.2 704.676 420.036 704.393 Q422.871 704.111 425.069 706.308 Q426.64 707.88 426.837 709.869 Q427.045 711.845 425.854 713.821 Q428.064 712.447 430.274 712.667 Q432.496 712.876 434.251 714.632 Q436.915 717.296 436.706 720.352 Q436.51 723.397 433.478 726.429 Q430.446 729.461 427.389 729.67 Q424.344 729.866 421.681 727.202 Q419.925 725.447 419.716 723.225 Q419.508 721.003 420.883 718.793 M416.058 715.786 Q417.482 717.21 419.164 717.124 Q420.858 717.025 422.466 715.417 Q424.062 713.821 424.16 712.127 Q424.271 710.421 422.847 708.997 Q421.423 707.573 419.716 707.683 Q418.022 707.782 416.426 709.377 Q414.818 710.986 414.72 712.68 Q414.634 714.362 416.058 715.786 Z" fill="#000000" fill-rule="nonzero" fill-opacity="1" /><path clip-path="url(#clip220)" d="M425.511 697.028 L435.246 687.293 L437.333 689.38 L429.869 696.844 L434.362 701.337 Q434.718 700.612 435.172 699.986 Q435.614 699.348 436.154 698.808 Q439.223 695.739 442.697 695.628 Q446.171 695.518 449.044 698.39 Q452.002 701.349 451.806 704.835 Q451.597 708.309 448.246 711.661 Q447.092 712.815 445.693 713.821 Q444.305 714.816 442.636 715.7 L440.144 713.208 Q441.85 712.704 443.323 711.82 Q444.796 710.937 446.11 709.623 Q448.234 707.499 448.356 705.142 Q448.479 702.785 446.564 700.87 Q444.649 698.955 442.292 699.078 Q439.935 699.201 437.811 701.324 Q436.817 702.319 436.044 703.534 Q435.282 704.737 434.718 706.235 L425.511 697.028 Z" fill="#000000" fill-rule="nonzero" fill-opacity="1" /><path clip-path="url(#clip220)" d="M654.468 733.893 Q652.553 735.808 653.474 738.668 Q654.395 741.504 658.176 745.285 Q661.945 749.054 664.793 749.987 Q667.641 750.895 669.556 748.98 Q671.483 747.053 670.562 744.217 Q669.642 741.357 665.873 737.588 Q662.092 733.807 659.244 732.898 Q656.396 731.966 654.468 733.893 M652.504 731.929 Q655.586 728.847 659.649 729.67 Q663.712 730.468 668.353 735.108 Q672.981 739.736 673.791 743.812 Q674.601 747.863 671.52 750.944 Q668.439 754.026 664.375 753.228 Q660.312 752.405 655.684 747.777 Q651.043 743.137 650.233 739.086 Q649.423 735.01 652.504 731.929 Z" fill="#000000" fill-rule="nonzero" fill-opacity="1" /><path clip-path="url(#clip220)" d="M678.738 736.778 L681.329 734.187 L684.447 737.306 L681.856 739.896 L678.738 736.778 Z" fill="#000000" fill-rule="nonzero" fill-opacity="1" /><path clip-path="url(#clip220)" d="M689.541 731.45 L687.282 729.191 Q688.657 728.7 689.848 727.976 Q691.039 727.251 691.96 726.331 Q694.415 723.876 694.059 720.942 Q693.703 717.983 690.523 714.435 Q690.867 716.203 690.339 717.86 Q689.811 719.518 688.486 720.843 Q685.736 723.593 682.47 723.544 Q679.205 723.47 676.32 720.586 Q673.496 717.762 673.46 714.386 Q673.423 711.01 676.197 708.236 Q679.377 705.056 683.489 705.83 Q687.602 706.579 692.242 711.219 Q696.575 715.552 697.103 720.205 Q697.631 724.833 694.157 728.307 Q693.224 729.24 692.082 730.014 Q690.941 730.787 689.541 731.45 M686.705 718.744 Q688.375 717.075 688.203 714.963 Q688.044 712.839 686.055 710.851 Q684.078 708.874 681.955 708.715 Q679.831 708.53 678.161 710.2 Q676.492 711.87 676.664 714.006 Q676.836 716.117 678.812 718.094 Q680.801 720.082 682.912 720.254 Q685.036 720.414 686.705 718.744 Z" fill="#000000" fill-rule="nonzero" fill-opacity="1" /><path clip-path="url(#clip220)" d="M694.452 693.91 Q692.537 695.825 693.457 698.685 Q694.378 701.521 698.159 705.302 Q701.928 709.071 704.776 710.004 Q707.624 710.912 709.539 708.997 Q711.466 707.07 710.546 704.234 Q709.625 701.373 705.856 697.605 Q702.075 693.824 699.227 692.915 Q696.379 691.982 694.452 693.91 M692.488 691.945 Q695.569 688.864 699.632 689.687 Q703.696 690.485 708.336 695.125 Q712.964 699.753 713.774 703.829 Q714.585 707.88 711.503 710.961 Q708.422 714.042 704.359 713.244 Q700.295 712.422 695.667 707.794 Q691.027 703.154 690.216 699.102 Q689.406 695.027 692.488 691.945 Z" fill="#000000" fill-rule="nonzero" fill-opacity="1" /><path clip-path="url(#clip220)" d="M917.554 733.365 Q915.639 735.28 916.559 738.14 Q917.48 740.976 921.261 744.757 Q925.03 748.526 927.878 749.459 Q930.726 750.367 932.641 748.452 Q934.568 746.525 933.648 743.689 Q932.727 740.829 928.958 737.06 Q925.177 733.279 922.329 732.371 Q919.481 731.438 917.554 733.365 M915.59 731.401 Q918.671 728.32 922.734 729.142 Q926.798 729.94 931.438 734.58 Q936.066 739.208 936.876 743.284 Q937.687 747.335 934.605 750.416 Q931.524 753.498 927.461 752.7 Q923.397 751.877 918.769 747.249 Q914.129 742.609 913.319 738.558 Q912.508 734.482 915.59 731.401 Z" fill="#000000" fill-rule="nonzero" fill-opacity="1" /><path clip-path="url(#clip220)" d="M941.824 736.25 L944.414 733.66 L947.532 736.778 L944.942 739.368 L941.824 736.25 Z" fill="#000000" fill-rule="nonzero" fill-opacity="1" /><path clip-path="url(#clip220)" d="M952.627 730.922 L950.368 728.663 Q951.743 728.172 952.933 727.448 Q954.124 726.724 955.045 725.803 Q957.5 723.348 957.144 720.414 Q956.788 717.455 953.609 713.907 Q953.952 715.675 953.425 717.332 Q952.897 718.99 951.571 720.315 Q948.821 723.065 945.556 723.016 Q942.29 722.943 939.405 720.058 Q936.582 717.234 936.545 713.858 Q936.508 710.482 939.282 707.708 Q942.462 704.528 946.574 705.302 Q950.687 706.051 955.327 710.691 Q959.661 715.024 960.189 719.677 Q960.717 724.305 957.242 727.779 Q956.309 728.712 955.168 729.486 Q954.026 730.259 952.627 730.922 M949.791 718.216 Q951.46 716.547 951.288 714.435 Q951.129 712.311 949.14 710.323 Q947.164 708.346 945.04 708.187 Q942.916 708.003 941.247 709.672 Q939.577 711.342 939.749 713.478 Q939.921 715.589 941.897 717.566 Q943.886 719.554 945.998 719.726 Q948.121 719.886 949.791 718.216 Z" fill="#000000" fill-rule="nonzero" fill-opacity="1" /><path clip-path="url(#clip220)" d="M950.626 697.028 L960.361 687.293 L962.447 689.38 L954.984 696.844 L959.477 701.337 Q959.833 700.612 960.287 699.986 Q960.729 699.348 961.269 698.808 Q964.338 695.739 967.812 695.628 Q971.286 695.518 974.159 698.39 Q977.117 701.349 976.921 704.835 Q976.712 708.309 973.361 711.661 Q972.207 712.815 970.807 713.821 Q969.42 714.816 967.751 715.7 L965.259 713.208 Q966.965 712.704 968.438 711.82 Q969.911 710.937 971.225 709.623 Q973.349 707.499 973.471 705.142 Q973.594 702.785 971.679 700.87 Q969.764 698.955 967.407 699.078 Q965.05 699.201 962.926 701.324 Q961.932 702.319 961.158 703.534 Q960.397 704.737 959.833 706.235 L950.626 697.028 Z" fill="#000000" fill-rule="nonzero" fill-opacity="1" /><polyline clip-path="url(#clip220)" style="stroke:#000000; stroke-linecap:round; stroke-linejoin:round; stroke-width:4; stroke-opacity:1; fill:none" points="161.818,662.16 161.818,97.5521 "/>
<polyline clip-path="url(#clip220)" style="stroke:#000000; stroke-linecap:round; stroke-linejoin:round; stroke-width:4; stroke-opacity:1; fill:none" points="161.818,646.181 180.716,646.181 "/>
<polyline clip-path="url(#clip220)" style="stroke:#000000; stroke-linecap:round; stroke-linejoin:round; stroke-width:4; stroke-opacity:1; fill:none" points="161.818,519.63 180.716,519.63 "/>
<polyline clip-path="url(#clip220)" style="stroke:#000000; stroke-linecap:round; stroke-linejoin:round; stroke-width:4; stroke-opacity:1; fill:none" points="161.818,393.079 180.716,393.079 "/>
<polyline clip-path="url(#clip220)" style="stroke:#000000; stroke-linecap:round; stroke-linejoin:round; stroke-width:4; stroke-opacity:1; fill:none" points="161.818,266.529 180.716,266.529 "/>
<polyline clip-path="url(#clip220)" style="stroke:#000000; stroke-linecap:round; stroke-linejoin:round; stroke-width:4; stroke-opacity:1; fill:none" points="161.818,139.978 180.716,139.978 "/>
<path clip-path="url(#clip220)" d="M116.86 635.53 Q114.152 635.53 112.78 638.204 Q111.426 640.86 111.426 646.207 Q111.426 651.537 112.78 654.21 Q114.152 656.867 116.86 656.867 Q119.586 656.867 120.94 654.21 Q122.311 651.537 122.311 646.207 Q122.311 640.86 120.94 638.204 Q119.586 635.53 116.86 635.53 M116.86 632.752 Q121.217 632.752 123.509 636.207 Q125.818 639.644 125.818 646.207 Q125.818 652.752 123.509 656.207 Q121.217 659.644 116.86 659.644 Q112.502 659.644 110.193 656.207 Q107.902 652.752 107.902 646.207 Q107.902 639.644 110.193 636.207 Q112.502 632.752 116.86 632.752 Z" fill="#000000" fill-rule="nonzero" fill-opacity="1" /><path clip-path="url(#clip220)" d="M110.888 529.639 L116.617 529.639 L116.617 509.865 L110.384 511.115 L110.384 507.92 L116.582 506.67 L120.089 506.67 L120.089 529.639 L125.818 529.639 L125.818 532.59 L110.888 532.59 L110.888 529.639 Z" fill="#000000" fill-rule="nonzero" fill-opacity="1" /><path clip-path="url(#clip220)" d="M113.579 403.088 L125.818 403.088 L125.818 406.039 L109.36 406.039 L109.36 403.088 Q111.356 401.022 114.794 397.55 Q118.249 394.06 119.134 393.053 Q120.818 391.161 121.478 389.859 Q122.155 388.54 122.155 387.272 Q122.155 385.206 120.697 383.904 Q119.256 382.602 116.929 382.602 Q115.28 382.602 113.44 383.175 Q111.617 383.748 109.533 384.911 L109.533 381.369 Q111.652 380.519 113.492 380.085 Q115.332 379.651 116.86 379.651 Q120.888 379.651 123.283 381.665 Q125.679 383.678 125.679 387.046 Q125.679 388.644 125.072 390.085 Q124.481 391.508 122.901 393.453 Q122.467 393.956 120.141 396.369 Q117.815 398.765 113.579 403.088 Z" fill="#000000" fill-rule="nonzero" fill-opacity="1" /><path clip-path="url(#clip220)" d="M120.471 265.513 Q122.988 266.051 124.395 267.753 Q125.818 269.454 125.818 271.954 Q125.818 275.791 123.179 277.891 Q120.54 279.992 115.679 279.992 Q114.047 279.992 112.311 279.662 Q110.593 279.35 108.752 278.707 L108.752 275.322 Q110.211 276.173 111.947 276.607 Q113.683 277.041 115.575 277.041 Q118.874 277.041 120.592 275.739 Q122.329 274.437 122.329 271.954 Q122.329 269.662 120.714 268.378 Q119.117 267.076 116.252 267.076 L113.231 267.076 L113.231 264.194 L116.391 264.194 Q118.978 264.194 120.349 263.169 Q121.721 262.128 121.721 260.183 Q121.721 258.187 120.297 257.128 Q118.891 256.051 116.252 256.051 Q114.811 256.051 113.162 256.364 Q111.513 256.676 109.533 257.336 L109.533 254.211 Q111.53 253.655 113.266 253.378 Q115.02 253.1 116.565 253.1 Q120.558 253.1 122.884 254.923 Q125.21 256.728 125.21 259.819 Q125.21 261.971 123.978 263.464 Q122.745 264.94 120.471 265.513 Z" fill="#000000" fill-rule="nonzero" fill-opacity="1" /><path clip-path="url(#clip220)" d="M118.631 130.073 L109.777 143.91 L118.631 143.91 L118.631 130.073 M117.711 127.018 L122.12 127.018 L122.12 143.91 L125.818 143.91 L125.818 146.827 L122.12 146.827 L122.12 152.938 L118.631 152.938 L118.631 146.827 L106.929 146.827 L106.929 143.441 L117.711 127.018 Z" fill="#000000" fill-rule="nonzero" fill-opacity="1" /><path clip-path="url(#clip220)" d="M163.901 20.1758 Q165.313 17.8147 168.809 15.7314 Q170.175 14.9212 174.387 14.9212 Q179.11 14.9212 182.049 18.6712 Q185.012 22.4212 185.012 28.5323 Q185.012 34.6433 182.049 38.3933 Q179.11 42.1433 174.387 42.1433 Q171.54 42.1433 169.48 41.0322 Q167.443 39.8979 166.1 37.5831 L166.1 51.3331 L161.818 51.3331 L161.818 28.7637 Q161.818 23.4165 163.901 20.1758 M180.591 28.5323 Q180.591 23.8332 178.647 21.1712 Q176.725 18.486 173.346 18.486 Q169.966 18.486 168.022 21.1712 Q166.1 23.8332 166.1 28.5323 Q166.1 33.2313 168.022 35.9165 Q169.966 38.5785 173.346 38.5785 Q176.725 38.5785 178.647 35.9165 Q180.591 33.2313 180.591 28.5323 Z" fill="#000000" fill-rule="nonzero" fill-opacity="1" /><polyline clip-path="url(#clip222)" style="stroke:#009af9; stroke-linecap:round; stroke-linejoin:round; stroke-width:4; stroke-opacity:1; fill:none" points="189.869,590.429 248.307,594.498 306.746,599.082 365.185,604.285 423.623,610.241 482.062,617.126 540.501,625.175 598.939,634.709 657.378,646.181 715.817,632.114 774.256,614.46 832.694,591.649 891.133,561.042 949.572,517.83 1008.01,452.255 1066.45,341.098 1124.89,113.532 "/>
<circle clip-path="url(#clip222)" cx="657.378" cy="646.181" r="10.8" fill="#ff0000" fill-rule="evenodd" fill-opacity="1" stroke="#000000" stroke-opacity="1" stroke-width="3.2"/>
<path clip-path="url(#clip220)" d="M1361.64 662.16 L2352.76 662.16 L2352.76 97.5521 L1361.64 97.5521  Z" fill="#ffffff" fill-rule="evenodd" fill-opacity="1"/>
<defs>
  <clipPath id="clip223">
    <rect x="1361" y="97" width="992" height="566"/>
  </clipPath>
</defs>
<polyline clip-path="url(#clip223)" style="stroke:#000000; stroke-linecap:round; stroke-linejoin:round; stroke-width:2; stroke-opacity:0.1; fill:none" points="1368.6,662.16 1368.6,97.5521 "/>
<polyline clip-path="url(#clip223)" style="stroke:#000000; stroke-linecap:round; stroke-linejoin:round; stroke-width:2; stroke-opacity:0.1; fill:none" points="1512.96,662.16 1512.96,97.5521 "/>
<polyline clip-path="url(#clip223)" style="stroke:#000000; stroke-linecap:round; stroke-linejoin:round; stroke-width:2; stroke-opacity:0.1; fill:none" points="1657.33,662.16 1657.33,97.5521 "/>
<polyline clip-path="url(#clip223)" style="stroke:#000000; stroke-linecap:round; stroke-linejoin:round; stroke-width:2; stroke-opacity:0.1; fill:none" points="1801.69,662.16 1801.69,97.5521 "/>
<polyline clip-path="url(#clip223)" style="stroke:#000000; stroke-linecap:round; stroke-linejoin:round; stroke-width:2; stroke-opacity:0.1; fill:none" points="1946.05,662.16 1946.05,97.5521 "/>
<polyline clip-path="url(#clip223)" style="stroke:#000000; stroke-linecap:round; stroke-linejoin:round; stroke-width:2; stroke-opacity:0.1; fill:none" points="2090.41,662.16 2090.41,97.5521 "/>
<polyline clip-path="url(#clip223)" style="stroke:#000000; stroke-linecap:round; stroke-linejoin:round; stroke-width:2; stroke-opacity:0.1; fill:none" points="2234.77,662.16 2234.77,97.5521 "/>
<polyline clip-path="url(#clip223)" style="stroke:#000000; stroke-linecap:round; stroke-linejoin:round; stroke-width:2; stroke-opacity:0.1; fill:none" points="1361.64,646.181 2352.76,646.181 "/>
<polyline clip-path="url(#clip223)" style="stroke:#000000; stroke-linecap:round; stroke-linejoin:round; stroke-width:2; stroke-opacity:0.1; fill:none" points="1361.64,504.432 2352.76,504.432 "/>
<polyline clip-path="url(#clip223)" style="stroke:#000000; stroke-linecap:round; stroke-linejoin:round; stroke-width:2; stroke-opacity:0.1; fill:none" points="1361.64,362.683 2352.76,362.683 "/>
<polyline clip-path="url(#clip223)" style="stroke:#000000; stroke-linecap:round; stroke-linejoin:round; stroke-width:2; stroke-opacity:0.1; fill:none" points="1361.64,220.934 2352.76,220.934 "/>
<polyline clip-path="url(#clip220)" style="stroke:#000000; stroke-linecap:round; stroke-linejoin:round; stroke-width:4; stroke-opacity:1; fill:none" points="1361.64,662.16 2352.76,662.16 "/>
<polyline clip-path="url(#clip220)" style="stroke:#000000; stroke-linecap:round; stroke-linejoin:round; stroke-width:4; stroke-opacity:1; fill:none" points="1368.6,662.16 1368.6,643.263 "/>
<polyline clip-path="url(#clip220)" style="stroke:#000000; stroke-linecap:round; stroke-linejoin:round; stroke-width:4; stroke-opacity:1; fill:none" points="1512.96,662.16 1512.96,643.263 "/>
<polyline clip-path="url(#clip220)" style="stroke:#000000; stroke-linecap:round; stroke-linejoin:round; stroke-width:4; stroke-opacity:1; fill:none" points="1657.33,662.16 1657.33,643.263 "/>
<polyline clip-path="url(#clip220)" style="stroke:#000000; stroke-linecap:round; stroke-linejoin:round; stroke-width:4; stroke-opacity:1; fill:none" points="1801.69,662.16 1801.69,643.263 "/>
<polyline clip-path="url(#clip220)" style="stroke:#000000; stroke-linecap:round; stroke-linejoin:round; stroke-width:4; stroke-opacity:1; fill:none" points="1946.05,662.16 1946.05,643.263 "/>
<polyline clip-path="url(#clip220)" style="stroke:#000000; stroke-linecap:round; stroke-linejoin:round; stroke-width:4; stroke-opacity:1; fill:none" points="2090.41,662.16 2090.41,643.263 "/>
<polyline clip-path="url(#clip220)" style="stroke:#000000; stroke-linecap:round; stroke-linejoin:round; stroke-width:4; stroke-opacity:1; fill:none" points="2234.77,662.16 2234.77,643.263 "/>
<path clip-path="url(#clip220)" d="M1314.85 733.795 Q1312.94 735.71 1313.86 738.57 Q1314.78 741.406 1318.56 745.187 Q1322.33 748.956 1325.18 749.889 Q1328.02 750.797 1329.94 748.882 Q1331.87 746.955 1330.94 744.119 Q1330.02 741.259 1326.26 737.49 Q1322.47 733.709 1319.63 732.8 Q1316.78 731.867 1314.85 733.795 M1312.89 731.83 Q1315.97 728.749 1320.03 729.572 Q1324.09 730.37 1328.74 735.01 Q1333.36 739.638 1334.17 743.714 Q1334.98 747.765 1331.9 750.846 Q1328.82 753.927 1324.76 753.129 Q1320.69 752.307 1316.07 747.679 Q1311.43 743.039 1310.62 738.987 Q1309.81 734.912 1312.89 731.83 Z" fill="#000000" fill-rule="nonzero" fill-opacity="1" /><path clip-path="url(#clip220)" d="M1339.12 736.68 L1341.71 734.089 L1344.83 737.207 L1342.24 739.798 L1339.12 736.68 Z" fill="#000000" fill-rule="nonzero" fill-opacity="1" /><path clip-path="url(#clip220)" d="M1350.28 727.583 L1358.93 718.928 L1361.02 721.015 L1349.38 732.653 L1347.3 730.566 Q1347.25 727.693 1347.22 722.808 Q1347.2 717.897 1347.11 716.559 Q1346.97 714.03 1346.51 712.643 Q1346.06 711.231 1345.16 710.335 Q1343.7 708.874 1341.75 708.985 Q1339.81 709.083 1338.16 710.728 Q1337 711.894 1336.1 713.6 Q1335.22 715.295 1334.57 717.59 L1332.06 715.086 Q1332.96 712.987 1333.95 711.378 Q1334.95 709.77 1336.03 708.69 Q1338.88 705.842 1341.99 705.572 Q1345.11 705.302 1347.49 707.683 Q1348.62 708.813 1349.21 710.261 Q1349.8 711.685 1350.06 714.177 Q1350.11 714.84 1350.17 718.192 Q1350.22 721.531 1350.28 727.583 Z" fill="#000000" fill-rule="nonzero" fill-opacity="1" /><path clip-path="url(#clip220)" d="M1365.92 715.356 L1363.66 713.097 Q1365.04 712.606 1366.23 711.882 Q1367.42 711.158 1368.34 710.237 Q1370.79 707.782 1370.44 704.848 Q1370.08 701.889 1366.9 698.341 Q1367.25 700.109 1366.72 701.766 Q1366.19 703.424 1364.86 704.749 Q1362.11 707.499 1358.85 707.45 Q1355.58 707.376 1352.7 704.492 Q1349.87 701.668 1349.84 698.292 Q1349.8 694.916 1352.58 692.142 Q1355.75 688.962 1359.87 689.736 Q1363.98 690.485 1368.62 695.125 Q1372.95 699.458 1373.48 704.111 Q1374.01 708.739 1370.54 712.213 Q1369.6 713.146 1368.46 713.92 Q1367.32 714.693 1365.92 715.356 M1363.08 702.65 Q1364.75 700.981 1364.58 698.869 Q1364.42 696.745 1362.43 694.757 Q1360.46 692.78 1358.33 692.621 Q1356.21 692.436 1354.54 694.106 Q1352.87 695.776 1353.04 697.912 Q1353.21 700.023 1355.19 702 Q1357.18 703.988 1359.29 704.16 Q1361.41 704.32 1363.08 702.65 Z" fill="#000000" fill-rule="nonzero" fill-opacity="1" /><path clip-path="url(#clip220)" d="M1459.11 733.893 Q1457.2 735.808 1458.12 738.668 Q1459.04 741.504 1462.82 745.285 Q1466.59 749.054 1469.44 749.987 Q1472.29 750.895 1474.2 748.98 Q1476.13 747.053 1475.21 744.217 Q1474.29 741.357 1470.52 737.588 Q1466.74 733.807 1463.89 732.898 Q1461.04 731.966 1459.11 733.893 M1457.15 731.929 Q1460.23 728.847 1464.3 729.67 Q1468.36 730.468 1473 735.108 Q1477.63 739.736 1478.44 743.812 Q1479.25 747.863 1476.17 750.944 Q1473.08 754.026 1469.02 753.228 Q1464.96 752.405 1460.33 747.777 Q1455.69 743.137 1454.88 739.086 Q1454.07 735.01 1457.15 731.929 Z" fill="#000000" fill-rule="nonzero" fill-opacity="1" /><path clip-path="url(#clip220)" d="M1483.38 736.778 L1485.97 734.187 L1489.09 737.306 L1486.5 739.896 L1483.38 736.778 Z" fill="#000000" fill-rule="nonzero" fill-opacity="1" /><path clip-path="url(#clip220)" d="M1492.13 714.509 Q1494.29 713.109 1496.48 713.318 Q1498.69 713.515 1500.46 715.282 Q1503.17 717.995 1502.79 721.347 Q1502.41 724.698 1498.98 728.135 Q1497.82 729.289 1496.36 730.284 Q1494.92 731.278 1493.17 732.125 L1490.77 729.731 Q1492.41 729.302 1493.94 728.381 Q1495.48 727.46 1496.81 726.122 Q1499.15 723.79 1499.44 721.654 Q1499.75 719.505 1497.99 717.75 Q1496.37 716.129 1494.32 716.363 Q1492.27 716.571 1490.25 718.597 L1488.11 720.733 L1486.07 718.695 L1488.31 716.461 Q1490.14 714.632 1490.38 712.938 Q1490.62 711.231 1489.24 709.856 Q1487.83 708.445 1486.07 708.702 Q1484.32 708.936 1482.45 710.802 Q1481.43 711.82 1480.49 713.208 Q1479.54 714.595 1478.61 716.461 L1476.4 714.251 Q1477.42 712.447 1478.45 711.022 Q1479.49 709.586 1480.59 708.494 Q1483.41 705.67 1486.34 705.314 Q1489.26 704.946 1491.45 707.131 Q1492.97 708.653 1493.16 710.581 Q1493.33 712.496 1492.13 714.509 Z" fill="#000000" fill-rule="nonzero" fill-opacity="1" /><path clip-path="url(#clip220)" d="M1499.1 693.91 Q1497.18 695.825 1498.1 698.685 Q1499.02 701.521 1502.81 705.302 Q1506.57 709.071 1509.42 710.004 Q1512.27 710.912 1514.19 708.997 Q1516.11 707.07 1515.19 704.234 Q1514.27 701.373 1510.5 697.605 Q1506.72 693.824 1503.87 692.915 Q1501.03 691.982 1499.1 693.91 M1497.13 691.945 Q1500.22 688.864 1504.28 689.687 Q1508.34 690.485 1512.98 695.125 Q1517.61 699.753 1518.42 703.829 Q1519.23 707.88 1516.15 710.961 Q1513.07 714.042 1509 713.244 Q1504.94 712.422 1500.31 707.794 Q1495.67 703.154 1494.86 699.102 Q1494.05 695.027 1497.13 691.945 Z" fill="#000000" fill-rule="nonzero" fill-opacity="1" /><path clip-path="url(#clip220)" d="M1604.13 733.242 Q1602.21 735.157 1603.13 738.018 Q1604.05 740.853 1607.83 744.634 Q1611.6 748.403 1614.45 749.336 Q1617.3 750.245 1619.21 748.33 Q1621.14 746.402 1620.22 743.566 Q1619.3 740.706 1615.53 736.937 Q1611.75 733.156 1608.9 732.248 Q1606.05 731.315 1604.13 733.242 M1602.16 731.278 Q1605.24 728.197 1609.31 729.019 Q1613.37 729.817 1618.01 734.458 Q1622.64 739.086 1623.45 743.161 Q1624.26 747.212 1621.18 750.294 Q1618.1 753.375 1614.03 752.577 Q1609.97 751.755 1605.34 747.126 Q1600.7 742.486 1599.89 738.435 Q1599.08 734.359 1602.16 731.278 Z" fill="#000000" fill-rule="nonzero" fill-opacity="1" /><path clip-path="url(#clip220)" d="M1628.4 736.127 L1630.99 733.537 L1634.11 736.655 L1631.52 739.245 L1628.4 736.127 Z" fill="#000000" fill-rule="nonzero" fill-opacity="1" /><path clip-path="url(#clip220)" d="M1637.14 713.858 Q1639.3 712.459 1641.5 712.667 Q1643.71 712.864 1645.47 714.632 Q1648.19 717.345 1647.81 720.696 Q1647.43 724.047 1643.99 727.485 Q1642.83 728.639 1641.37 729.633 Q1639.94 730.627 1638.18 731.474 L1635.79 729.081 Q1637.42 728.651 1638.95 727.73 Q1640.49 726.81 1641.83 725.471 Q1644.16 723.139 1644.45 721.003 Q1644.76 718.855 1643.01 717.099 Q1641.39 715.479 1639.34 715.712 Q1637.29 715.921 1635.26 717.946 L1633.12 720.082 L1631.09 718.044 L1633.32 715.81 Q1635.15 713.981 1635.39 712.287 Q1635.63 710.581 1634.25 709.206 Q1632.84 707.794 1631.09 708.052 Q1629.33 708.285 1627.46 710.151 Q1626.45 711.17 1625.5 712.557 Q1624.55 713.944 1623.62 715.81 L1621.41 713.6 Q1622.43 711.796 1623.46 710.372 Q1624.51 708.936 1625.6 707.843 Q1628.42 705.019 1631.36 704.663 Q1634.28 704.295 1636.46 706.48 Q1637.98 708.003 1638.17 709.93 Q1638.34 711.845 1637.14 713.858 Z" fill="#000000" fill-rule="nonzero" fill-opacity="1" /><path clip-path="url(#clip220)" d="M1653.85 712.741 L1657.9 708.69 L1643.91 694.708 L1640.39 699.999 L1638.13 697.74 L1641.63 692.473 L1644.11 689.994 L1660.35 706.235 L1664.4 702.184 L1666.49 704.271 L1655.93 714.828 L1653.85 712.741 Z" fill="#000000" fill-rule="nonzero" fill-opacity="1" /><path clip-path="url(#clip220)" d="M1748.69 733.046 Q1746.77 734.961 1747.69 737.821 Q1748.61 740.657 1752.39 744.438 Q1756.16 748.207 1759.01 749.14 Q1761.86 750.048 1763.77 748.133 Q1765.7 746.206 1764.78 743.37 Q1763.86 740.51 1760.09 736.741 Q1756.31 732.96 1753.46 732.051 Q1750.61 731.118 1748.69 733.046 M1746.72 731.082 Q1749.8 728 1753.87 728.823 Q1757.93 729.621 1762.57 734.261 Q1767.2 738.889 1768.01 742.965 Q1768.82 747.016 1765.74 750.097 Q1762.66 753.179 1758.59 752.381 Q1754.53 751.558 1749.9 746.93 Q1745.26 742.29 1744.45 738.239 Q1743.64 734.163 1746.72 731.082 Z" fill="#000000" fill-rule="nonzero" fill-opacity="1" /><path clip-path="url(#clip220)" d="M1772.96 735.931 L1775.55 733.34 L1778.66 736.459 L1776.07 739.049 L1772.96 735.931 Z" fill="#000000" fill-rule="nonzero" fill-opacity="1" /><path clip-path="url(#clip220)" d="M1781.7 713.662 Q1783.86 712.262 1786.05 712.471 Q1788.26 712.667 1790.03 714.435 Q1792.74 717.148 1792.36 720.5 Q1791.98 723.851 1788.55 727.288 Q1787.39 728.442 1785.93 729.437 Q1784.5 730.431 1782.74 731.278 L1780.35 728.884 Q1781.98 728.455 1783.51 727.534 Q1785.05 726.613 1786.39 725.275 Q1788.72 722.943 1789.01 720.807 Q1789.32 718.658 1787.56 716.903 Q1785.94 715.282 1783.89 715.516 Q1781.84 715.724 1779.82 717.75 L1777.68 719.886 L1775.64 717.848 L1777.88 715.614 Q1779.71 713.785 1779.95 712.091 Q1780.19 710.384 1778.81 709.009 Q1777.4 707.597 1775.64 707.855 Q1773.89 708.088 1772.02 709.954 Q1771 710.973 1770.06 712.361 Q1769.11 713.748 1768.18 715.614 L1765.97 713.404 Q1766.99 711.599 1768.02 710.175 Q1769.06 708.739 1770.16 707.647 Q1772.98 704.823 1775.91 704.467 Q1778.84 704.099 1781.02 706.284 Q1782.54 707.806 1782.73 709.733 Q1782.9 711.649 1781.7 713.662 Z" fill="#000000" fill-rule="nonzero" fill-opacity="1" /><path clip-path="url(#clip220)" d="M1800.11 710.838 L1808.77 702.184 L1810.85 704.271 L1799.21 715.908 L1797.13 713.821 Q1797.08 710.949 1797.05 706.063 Q1797.03 701.153 1796.94 699.814 Q1796.8 697.286 1796.34 695.898 Q1795.89 694.487 1794.99 693.59 Q1793.53 692.13 1791.58 692.24 Q1789.64 692.338 1787.99 693.983 Q1786.83 695.149 1785.93 696.856 Q1785.05 698.55 1784.4 700.846 L1781.89 698.341 Q1782.79 696.242 1783.78 694.634 Q1784.78 693.026 1785.86 691.945 Q1788.71 689.097 1791.82 688.827 Q1794.94 688.557 1797.32 690.939 Q1798.45 692.068 1799.04 693.517 Q1799.63 694.941 1799.89 697.433 Q1799.94 698.096 1800 701.447 Q1800.05 704.786 1800.11 710.838 Z" fill="#000000" fill-rule="nonzero" fill-opacity="1" /><path clip-path="url(#clip220)" d="M1892.54 733.549 Q1890.63 735.464 1891.55 738.325 Q1892.47 741.16 1896.25 744.941 Q1900.02 748.71 1902.87 749.643 Q1905.72 750.552 1907.63 748.636 Q1909.56 746.709 1908.64 743.873 Q1907.72 741.013 1903.95 737.244 Q1900.17 733.463 1897.32 732.555 Q1894.47 731.622 1892.54 733.549 M1890.58 731.585 Q1893.66 728.504 1897.73 729.326 Q1901.79 730.124 1906.43 734.764 Q1911.06 739.393 1911.87 743.468 Q1912.68 747.519 1909.6 750.601 Q1906.52 753.682 1902.45 752.884 Q1898.39 752.061 1893.76 747.433 Q1889.12 742.793 1888.31 738.742 Q1887.5 734.666 1890.58 731.585 Z" fill="#000000" fill-rule="nonzero" fill-opacity="1" /><path clip-path="url(#clip220)" d="M1916.81 736.434 L1919.4 733.844 L1922.52 736.962 L1919.93 739.552 L1916.81 736.434 Z" fill="#000000" fill-rule="nonzero" fill-opacity="1" /><path clip-path="url(#clip220)" d="M1925.56 714.165 Q1927.72 712.766 1929.91 712.974 Q1932.12 713.171 1933.89 714.939 Q1936.6 717.652 1936.22 721.003 Q1935.84 724.354 1932.41 727.792 Q1931.25 728.946 1929.79 729.94 Q1928.35 730.934 1926.6 731.781 L1924.2 729.388 Q1925.84 728.958 1927.37 728.037 Q1928.91 727.116 1930.24 725.778 Q1932.58 723.446 1932.87 721.31 Q1933.18 719.162 1931.42 717.406 Q1929.8 715.786 1927.75 716.019 Q1925.7 716.228 1923.68 718.253 L1921.54 720.389 L1919.5 718.351 L1921.74 716.117 Q1923.57 714.288 1923.81 712.594 Q1924.05 710.887 1922.67 709.513 Q1921.26 708.101 1919.5 708.359 Q1917.75 708.592 1915.88 710.458 Q1914.86 711.477 1913.92 712.864 Q1912.97 714.251 1912.04 716.117 L1909.83 713.907 Q1910.85 712.103 1911.88 710.679 Q1912.92 709.242 1914.02 708.15 Q1916.84 705.326 1919.77 704.97 Q1922.69 704.602 1924.88 706.787 Q1926.4 708.309 1926.59 710.237 Q1926.76 712.152 1925.56 714.165 Z" fill="#000000" fill-rule="nonzero" fill-opacity="1" /><path clip-path="url(#clip220)" d="M1941.55 698.169 Q1943.71 696.77 1945.91 696.979 Q1948.12 697.175 1949.89 698.943 Q1952.6 701.656 1952.22 705.007 Q1951.84 708.359 1948.4 711.796 Q1947.25 712.95 1945.79 713.944 Q1944.35 714.939 1942.59 715.786 L1940.2 713.392 Q1941.83 712.962 1943.37 712.041 Q1944.9 711.121 1946.24 709.783 Q1948.57 707.45 1948.87 705.314 Q1949.17 703.166 1947.42 701.41 Q1945.8 699.79 1943.75 700.023 Q1941.7 700.232 1939.67 702.257 L1937.54 704.393 L1935.5 702.356 L1937.73 700.121 Q1939.56 698.292 1939.81 696.598 Q1940.04 694.892 1938.67 693.517 Q1937.25 692.105 1935.5 692.363 Q1933.74 692.596 1931.88 694.462 Q1930.86 695.481 1929.91 696.868 Q1928.97 698.255 1928.03 700.121 L1925.83 697.912 Q1926.84 696.107 1927.88 694.683 Q1928.92 693.247 1930.01 692.154 Q1932.83 689.331 1935.77 688.975 Q1938.69 688.606 1940.88 690.791 Q1942.4 692.314 1942.58 694.241 Q1942.75 696.156 1941.55 698.169 Z" fill="#000000" fill-rule="nonzero" fill-opacity="1" /><path clip-path="url(#clip220)" d="M2036.31 734.151 Q2034.39 736.066 2035.31 738.926 Q2036.23 741.762 2040.01 745.543 Q2043.78 749.312 2046.63 750.245 Q2049.48 751.153 2051.39 749.238 Q2053.32 747.311 2052.4 744.475 Q2051.48 741.615 2047.71 737.846 Q2043.93 734.065 2041.08 733.156 Q2038.23 732.223 2036.31 734.151 M2034.34 732.186 Q2037.42 729.105 2041.49 729.928 Q2045.55 730.726 2050.19 735.366 Q2054.82 739.994 2055.63 744.07 Q2056.44 748.121 2053.36 751.202 Q2050.28 754.283 2046.21 753.485 Q2042.15 752.663 2037.52 748.035 Q2032.88 743.395 2032.07 739.343 Q2031.26 735.268 2034.34 732.186 Z" fill="#000000" fill-rule="nonzero" fill-opacity="1" /><path clip-path="url(#clip220)" d="M2060.58 737.036 L2063.17 734.445 L2066.28 737.563 L2063.69 740.154 L2060.58 737.036 Z" fill="#000000" fill-rule="nonzero" fill-opacity="1" /><path clip-path="url(#clip220)" d="M2069.32 714.767 Q2071.48 713.367 2073.67 713.576 Q2075.88 713.772 2077.65 715.54 Q2080.36 718.253 2079.98 721.604 Q2079.6 724.956 2076.17 728.393 Q2075.01 729.547 2073.55 730.541 Q2072.11 731.536 2070.36 732.383 L2067.97 729.989 Q2069.6 729.559 2071.13 728.639 Q2072.67 727.718 2074.01 726.38 Q2076.34 724.047 2076.63 721.911 Q2076.94 719.763 2075.18 718.008 Q2073.56 716.387 2071.51 716.62 Q2069.46 716.829 2067.44 718.855 L2065.3 720.991 L2063.26 718.953 L2065.5 716.719 Q2067.33 714.889 2067.57 713.195 Q2067.81 711.489 2066.43 710.114 Q2065.02 708.702 2063.26 708.96 Q2061.51 709.193 2059.64 711.059 Q2058.62 712.078 2057.68 713.465 Q2056.73 714.853 2055.8 716.719 L2053.59 714.509 Q2054.61 712.704 2055.64 711.28 Q2056.68 709.844 2057.78 708.751 Q2060.6 705.928 2063.53 705.572 Q2066.46 705.204 2068.64 707.389 Q2070.16 708.911 2070.35 710.838 Q2070.52 712.753 2069.32 714.767 Z" fill="#000000" fill-rule="nonzero" fill-opacity="1" /><path clip-path="url(#clip220)" d="M2078.33 693.185 L2081.85 709.23 L2088.11 702.969 L2078.33 693.185 M2075.52 691.675 L2078.63 688.557 L2090.58 700.502 L2093.19 697.887 L2095.26 699.949 L2092.64 702.564 L2096.96 706.885 L2094.49 709.353 L2090.17 705.032 L2081.9 713.306 L2079.5 710.912 L2075.52 691.675 Z" fill="#000000" fill-rule="nonzero" fill-opacity="1" /><path clip-path="url(#clip220)" d="M2181.45 733.365 Q2179.54 735.28 2180.46 738.14 Q2181.38 740.976 2185.16 744.757 Q2188.93 748.526 2191.78 749.459 Q2194.63 750.367 2196.54 748.452 Q2198.47 746.525 2197.55 743.689 Q2196.63 740.829 2192.86 737.06 Q2189.08 733.279 2186.23 732.371 Q2183.38 731.438 2181.45 733.365 M2179.49 731.401 Q2182.57 728.32 2186.63 729.142 Q2190.7 729.94 2195.34 734.58 Q2199.97 739.208 2200.78 743.284 Q2201.59 747.335 2198.5 750.416 Q2195.42 753.498 2191.36 752.7 Q2187.3 751.877 2182.67 747.249 Q2178.03 742.609 2177.22 738.558 Q2176.41 734.482 2179.49 731.401 Z" fill="#000000" fill-rule="nonzero" fill-opacity="1" /><path clip-path="url(#clip220)" d="M2205.72 736.25 L2208.31 733.66 L2211.43 736.778 L2208.84 739.368 L2205.72 736.25 Z" fill="#000000" fill-rule="nonzero" fill-opacity="1" /><path clip-path="url(#clip220)" d="M2214.46 713.981 Q2216.62 712.582 2218.82 712.79 Q2221.03 712.987 2222.8 714.754 Q2225.51 717.467 2225.13 720.819 Q2224.75 724.17 2221.31 727.607 Q2220.16 728.761 2218.7 729.756 Q2217.26 730.75 2215.51 731.597 L2213.11 729.203 Q2214.75 728.774 2216.28 727.853 Q2217.81 726.932 2219.15 725.594 Q2221.49 723.262 2221.78 721.126 Q2222.09 718.977 2220.33 717.222 Q2218.71 715.601 2216.66 715.835 Q2214.61 716.043 2212.59 718.069 L2210.45 720.205 L2208.41 718.167 L2210.65 715.933 Q2212.47 714.104 2212.72 712.41 Q2212.95 710.703 2211.58 709.328 Q2210.17 707.917 2208.41 708.174 Q2206.66 708.408 2204.79 710.274 Q2203.77 711.293 2202.83 712.68 Q2201.88 714.067 2200.95 715.933 L2198.74 713.723 Q2199.76 711.919 2200.79 710.495 Q2201.83 709.058 2202.92 707.966 Q2205.75 705.142 2208.68 704.786 Q2211.6 704.418 2213.79 706.603 Q2215.31 708.125 2215.49 710.053 Q2215.67 711.968 2214.46 713.981 Z" fill="#000000" fill-rule="nonzero" fill-opacity="1" /><path clip-path="url(#clip220)" d="M2214.52 697.028 L2224.26 687.293 L2226.35 689.38 L2218.88 696.844 L2223.38 701.337 Q2223.73 700.612 2224.19 699.986 Q2224.63 699.348 2225.17 698.808 Q2228.24 695.739 2231.71 695.628 Q2235.19 695.518 2238.06 698.39 Q2241.02 701.349 2240.82 704.835 Q2240.61 708.309 2237.26 711.661 Q2236.11 712.815 2234.71 713.821 Q2233.32 714.816 2231.65 715.7 L2229.16 713.208 Q2230.86 712.704 2232.34 711.82 Q2233.81 710.937 2235.12 709.623 Q2237.25 707.499 2237.37 705.142 Q2237.49 702.785 2235.58 700.87 Q2233.66 698.955 2231.31 699.078 Q2228.95 699.201 2226.83 701.324 Q2225.83 702.319 2225.06 703.534 Q2224.3 704.737 2223.73 706.235 L2214.52 697.028 Z" fill="#000000" fill-rule="nonzero" fill-opacity="1" /><polyline clip-path="url(#clip220)" style="stroke:#000000; stroke-linecap:round; stroke-linejoin:round; stroke-width:4; stroke-opacity:1; fill:none" points="1361.64,662.16 1361.64,97.5521 "/>
<polyline clip-path="url(#clip220)" style="stroke:#000000; stroke-linecap:round; stroke-linejoin:round; stroke-width:4; stroke-opacity:1; fill:none" points="1361.64,646.181 1380.53,646.181 "/>
<polyline clip-path="url(#clip220)" style="stroke:#000000; stroke-linecap:round; stroke-linejoin:round; stroke-width:4; stroke-opacity:1; fill:none" points="1361.64,504.432 1380.53,504.432 "/>
<polyline clip-path="url(#clip220)" style="stroke:#000000; stroke-linecap:round; stroke-linejoin:round; stroke-width:4; stroke-opacity:1; fill:none" points="1361.64,362.683 1380.53,362.683 "/>
<polyline clip-path="url(#clip220)" style="stroke:#000000; stroke-linecap:round; stroke-linejoin:round; stroke-width:4; stroke-opacity:1; fill:none" points="1361.64,220.934 1380.53,220.934 "/>
<path clip-path="url(#clip220)" d="M1260.13 635.53 Q1257.42 635.53 1256.05 638.204 Q1254.7 640.86 1254.7 646.207 Q1254.7 651.537 1256.05 654.21 Q1257.42 656.867 1260.13 656.867 Q1262.86 656.867 1264.21 654.21 Q1265.58 651.537 1265.58 646.207 Q1265.58 640.86 1264.21 638.204 Q1262.86 635.53 1260.13 635.53 M1260.13 632.752 Q1264.49 632.752 1266.78 636.207 Q1269.09 639.644 1269.09 646.207 Q1269.09 652.752 1266.78 656.207 Q1264.49 659.644 1260.13 659.644 Q1255.78 659.644 1253.47 656.207 Q1251.17 652.752 1251.17 646.207 Q1251.17 639.644 1253.47 636.207 Q1255.78 632.752 1260.13 632.752 Z" fill="#000000" fill-rule="nonzero" fill-opacity="1" /><path clip-path="url(#clip220)" d="M1275.25 654.731 L1278.92 654.731 L1278.92 659.141 L1275.25 659.141 L1275.25 654.731 Z" fill="#000000" fill-rule="nonzero" fill-opacity="1" /><path clip-path="url(#clip220)" d="M1294.06 635.53 Q1291.35 635.53 1289.98 638.204 Q1288.62 640.86 1288.62 646.207 Q1288.62 651.537 1289.98 654.21 Q1291.35 656.867 1294.06 656.867 Q1296.78 656.867 1298.14 654.21 Q1299.51 651.537 1299.51 646.207 Q1299.51 640.86 1298.14 638.204 Q1296.78 635.53 1294.06 635.53 M1294.06 632.752 Q1298.41 632.752 1300.71 636.207 Q1303.01 639.644 1303.01 646.207 Q1303.01 652.752 1300.71 656.207 Q1298.41 659.644 1294.06 659.644 Q1289.7 659.644 1287.39 656.207 Q1285.1 652.752 1285.1 646.207 Q1285.1 639.644 1287.39 636.207 Q1289.7 632.752 1294.06 632.752 Z" fill="#000000" fill-rule="nonzero" fill-opacity="1" /><path clip-path="url(#clip220)" d="M1316.68 635.53 Q1313.97 635.53 1312.6 638.204 Q1311.24 640.86 1311.24 646.207 Q1311.24 651.537 1312.6 654.21 Q1313.97 656.867 1316.68 656.867 Q1319.4 656.867 1320.76 654.21 Q1322.13 651.537 1322.13 646.207 Q1322.13 640.86 1320.76 638.204 Q1319.4 635.53 1316.68 635.53 M1316.68 632.752 Q1321.04 632.752 1323.33 636.207 Q1325.64 639.644 1325.64 646.207 Q1325.64 652.752 1323.33 656.207 Q1321.04 659.644 1316.68 659.644 Q1312.32 659.644 1310.01 656.207 Q1307.72 652.752 1307.72 646.207 Q1307.72 639.644 1310.01 636.207 Q1312.32 632.752 1316.68 632.752 Z" fill="#000000" fill-rule="nonzero" fill-opacity="1" /><path clip-path="url(#clip220)" d="M1260.88 493.781 Q1258.17 493.781 1256.8 496.454 Q1255.45 499.111 1255.45 504.458 Q1255.45 509.788 1256.8 512.461 Q1258.17 515.118 1260.88 515.118 Q1263.6 515.118 1264.96 512.461 Q1266.33 509.788 1266.33 504.458 Q1266.33 499.111 1264.96 496.454 Q1263.6 493.781 1260.88 493.781 M1260.88 491.003 Q1265.24 491.003 1267.53 494.458 Q1269.84 497.895 1269.84 504.458 Q1269.84 511.003 1267.53 514.458 Q1265.24 517.895 1260.88 517.895 Q1256.52 517.895 1254.21 514.458 Q1251.92 511.003 1251.92 504.458 Q1251.92 497.895 1254.21 494.458 Q1256.52 491.003 1260.88 491.003 Z" fill="#000000" fill-rule="nonzero" fill-opacity="1" /><path clip-path="url(#clip220)" d="M1276 512.982 L1279.66 512.982 L1279.66 517.392 L1276 517.392 L1276 512.982 Z" fill="#000000" fill-rule="nonzero" fill-opacity="1" /><path clip-path="url(#clip220)" d="M1294.8 493.781 Q1292.09 493.781 1290.72 496.454 Q1289.37 499.111 1289.37 504.458 Q1289.37 509.788 1290.72 512.461 Q1292.09 515.118 1294.8 515.118 Q1297.53 515.118 1298.88 512.461 Q1300.25 509.788 1300.25 504.458 Q1300.25 499.111 1298.88 496.454 Q1297.53 493.781 1294.8 493.781 M1294.8 491.003 Q1299.16 491.003 1301.45 494.458 Q1303.76 497.895 1303.76 504.458 Q1303.76 511.003 1301.45 514.458 Q1299.16 517.895 1294.8 517.895 Q1290.45 517.895 1288.14 514.458 Q1285.84 511.003 1285.84 504.458 Q1285.84 497.895 1288.14 494.458 Q1290.45 491.003 1294.8 491.003 Z" fill="#000000" fill-rule="nonzero" fill-opacity="1" /><path clip-path="url(#clip220)" d="M1309.96 491.472 L1323.73 491.472 L1323.73 494.423 L1313.17 494.423 L1313.17 500.777 Q1313.93 500.517 1314.7 500.395 Q1315.46 500.256 1316.23 500.256 Q1320.57 500.256 1323.1 502.635 Q1325.64 505.013 1325.64 509.076 Q1325.64 513.26 1323.03 515.586 Q1320.43 517.895 1315.69 517.895 Q1314.06 517.895 1312.35 517.617 Q1310.67 517.34 1308.87 516.784 L1308.87 513.26 Q1310.43 514.111 1312.09 514.527 Q1313.76 514.944 1315.62 514.944 Q1318.62 514.944 1320.38 513.364 Q1322.13 511.784 1322.13 509.076 Q1322.13 506.368 1320.38 504.788 Q1318.62 503.208 1315.62 503.208 Q1314.21 503.208 1312.81 503.52 Q1311.42 503.833 1309.96 504.493 L1309.96 491.472 Z" fill="#000000" fill-rule="nonzero" fill-opacity="1" /><path clip-path="url(#clip220)" d="M1260.13 352.032 Q1257.42 352.032 1256.05 354.705 Q1254.7 357.362 1254.7 362.709 Q1254.7 368.039 1256.05 370.712 Q1257.42 373.368 1260.13 373.368 Q1262.86 373.368 1264.21 370.712 Q1265.58 368.039 1265.58 362.709 Q1265.58 357.362 1264.21 354.705 Q1262.86 352.032 1260.13 352.032 M1260.13 349.254 Q1264.49 349.254 1266.78 352.709 Q1269.09 356.146 1269.09 362.709 Q1269.09 369.254 1266.78 372.709 Q1264.49 376.146 1260.13 376.146 Q1255.78 376.146 1253.47 372.709 Q1251.17 369.254 1251.17 362.709 Q1251.17 356.146 1253.47 352.709 Q1255.78 349.254 1260.13 349.254 Z" fill="#000000" fill-rule="nonzero" fill-opacity="1" /><path clip-path="url(#clip220)" d="M1275.25 371.233 L1278.92 371.233 L1278.92 375.643 L1275.25 375.643 L1275.25 371.233 Z" fill="#000000" fill-rule="nonzero" fill-opacity="1" /><path clip-path="url(#clip220)" d="M1287.16 372.691 L1292.89 372.691 L1292.89 352.917 L1286.66 354.167 L1286.66 350.973 L1292.86 349.723 L1296.37 349.723 L1296.37 372.691 L1302.09 372.691 L1302.09 375.643 L1287.16 375.643 L1287.16 372.691 Z" fill="#000000" fill-rule="nonzero" fill-opacity="1" /><path clip-path="url(#clip220)" d="M1316.68 352.032 Q1313.97 352.032 1312.6 354.705 Q1311.24 357.362 1311.24 362.709 Q1311.24 368.039 1312.6 370.712 Q1313.97 373.368 1316.68 373.368 Q1319.4 373.368 1320.76 370.712 Q1322.13 368.039 1322.13 362.709 Q1322.13 357.362 1320.76 354.705 Q1319.4 352.032 1316.68 352.032 M1316.68 349.254 Q1321.04 349.254 1323.33 352.709 Q1325.64 356.146 1325.64 362.709 Q1325.64 369.254 1323.33 372.709 Q1321.04 376.146 1316.68 376.146 Q1312.32 376.146 1310.01 372.709 Q1307.72 369.254 1307.72 362.709 Q1307.72 356.146 1310.01 352.709 Q1312.32 349.254 1316.68 349.254 Z" fill="#000000" fill-rule="nonzero" fill-opacity="1" /><path clip-path="url(#clip220)" d="M1260.88 210.283 Q1258.17 210.283 1256.8 212.956 Q1255.45 215.612 1255.45 220.96 Q1255.45 226.289 1256.8 228.963 Q1258.17 231.619 1260.88 231.619 Q1263.6 231.619 1264.96 228.963 Q1266.33 226.289 1266.33 220.96 Q1266.33 215.612 1264.96 212.956 Q1263.6 210.283 1260.88 210.283 M1260.88 207.505 Q1265.24 207.505 1267.53 210.96 Q1269.84 214.397 1269.84 220.96 Q1269.84 227.505 1267.53 230.96 Q1265.24 234.397 1260.88 234.397 Q1256.52 234.397 1254.21 230.96 Q1251.92 227.505 1251.92 220.96 Q1251.92 214.397 1254.21 210.96 Q1256.52 207.505 1260.88 207.505 Z" fill="#000000" fill-rule="nonzero" fill-opacity="1" /><path clip-path="url(#clip220)" d="M1276 229.484 L1279.66 229.484 L1279.66 233.894 L1276 233.894 L1276 229.484 Z" fill="#000000" fill-rule="nonzero" fill-opacity="1" /><path clip-path="url(#clip220)" d="M1287.91 230.942 L1293.64 230.942 L1293.64 211.168 L1287.41 212.418 L1287.41 209.224 L1293.6 207.974 L1297.11 207.974 L1297.11 230.942 L1302.84 230.942 L1302.84 233.894 L1287.91 233.894 L1287.91 230.942 Z" fill="#000000" fill-rule="nonzero" fill-opacity="1" /><path clip-path="url(#clip220)" d="M1309.96 207.974 L1323.73 207.974 L1323.73 210.925 L1313.17 210.925 L1313.17 217.279 Q1313.93 217.019 1314.7 216.897 Q1315.46 216.758 1316.23 216.758 Q1320.57 216.758 1323.1 219.137 Q1325.64 221.515 1325.64 225.578 Q1325.64 229.762 1323.03 232.088 Q1320.43 234.397 1315.69 234.397 Q1314.06 234.397 1312.35 234.119 Q1310.67 233.841 1308.87 233.286 L1308.87 229.762 Q1310.43 230.612 1312.09 231.029 Q1313.76 231.446 1315.62 231.446 Q1318.62 231.446 1320.38 229.866 Q1322.13 228.286 1322.13 225.578 Q1322.13 222.869 1320.38 221.289 Q1318.62 219.71 1315.62 219.71 Q1314.21 219.71 1312.81 220.022 Q1311.42 220.335 1309.96 220.994 L1309.96 207.974 Z" fill="#000000" fill-rule="nonzero" fill-opacity="1" /><path clip-path="url(#clip220)" d="M1373.53 18.9258 Q1370.02 18.9258 1368.12 21.4721 Q1366.13 24.1341 1366.13 28.5323 Q1366.13 33.185 1368.09 35.8702 Q1370.08 38.5322 1373.53 38.5322 Q1376.94 38.5322 1378.93 35.847 Q1380.92 33.1619 1380.92 28.5323 Q1380.92 24.2962 1378.93 21.4721 Q1377.1 18.9258 1373.53 18.9258 M1373.53 15.5462 L1387.68 15.5462 L1387.68 19.8054 L1382.91 19.8054 Q1385.43 23.4165 1385.43 28.5323 Q1385.43 34.898 1382.26 38.5091 Q1379.09 42.1433 1373.53 42.1433 Q1367.96 42.1433 1364.81 38.5091 Q1361.64 34.898 1361.64 28.5323 Q1361.64 22.1203 1364.81 18.5323 Q1367.42 15.5462 1373.53 15.5462 Z" fill="#000000" fill-rule="nonzero" fill-opacity="1" /><path clip-path="url(#clip220)" d="M1411.84 19.6666 Q1410.99 19.3656 1410.13 19.1342 Q1407.84 18.5323 1405.39 18.5323 Q1401.15 18.5323 1398.79 20.824 Q1396.59 22.9536 1396.17 26.8656 L1411.84 26.8656 L1411.84 30.1989 L1396.17 30.1989 Q1396.59 34.1109 1398.79 36.2405 Q1401.15 38.5322 1405.39 38.5322 Q1408.35 38.5322 1410.13 37.9304 L1411.84 37.3517 L1411.84 41.2174 L1410.02 41.634 Q1407.61 42.1433 1405.13 42.1433 Q1398.93 42.1433 1395.32 38.5322 Q1391.68 34.9211 1391.68 28.5323 Q1391.68 22.1434 1395.32 18.5323 Q1398.93 14.9212 1405.13 14.9212 Q1407.47 14.9212 1410.02 15.4305 Q1410.94 15.6157 1411.84 15.8934 L1411.84 19.6666 Z" fill="#000000" fill-rule="nonzero" fill-opacity="1" /><polyline clip-path="url(#clip223)" style="stroke:#009af9; stroke-linecap:round; stroke-linejoin:round; stroke-width:4; stroke-opacity:1; fill:none" points="1389.69,164.295 1448.13,221.754 1506.56,280.007 1565,339.053 1623.44,398.892 1681.88,459.525 1740.32,520.95 1798.76,583.169 1857.2,646.181 1915.63,582.376 1974.07,517.778 2032.51,452.386 2090.95,386.202 2149.39,319.224 2207.83,251.453 2266.27,182.889 2324.71,113.532 "/>
<circle clip-path="url(#clip223)" cx="1857.2" cy="646.181" r="10.8" fill="#ff0000" fill-rule="evenodd" fill-opacity="1" stroke="#000000" stroke-opacity="1" stroke-width="3.2"/>
<path clip-path="url(#clip220)" d="M161.818 1456.91 L1152.94 1456.91 L1152.94 892.306 L161.818 892.306  Z" fill="#ffffff" fill-rule="evenodd" fill-opacity="1"/>
<defs>
  <clipPath id="clip224">
    <rect x="161" y="892" width="992" height="566"/>
  </clipPath>
</defs>
<polyline clip-path="url(#clip224)" style="stroke:#000000; stroke-linecap:round; stroke-linejoin:round; stroke-width:2; stroke-opacity:0.1; fill:none" points="280.585,1456.91 280.585,892.306 "/>
<polyline clip-path="url(#clip224)" style="stroke:#000000; stroke-linecap:round; stroke-linejoin:round; stroke-width:2; stroke-opacity:0.1; fill:none" points="495.5,1456.91 495.5,892.306 "/>
<polyline clip-path="url(#clip224)" style="stroke:#000000; stroke-linecap:round; stroke-linejoin:round; stroke-width:2; stroke-opacity:0.1; fill:none" points="710.415,1456.91 710.415,892.306 "/>
<polyline clip-path="url(#clip224)" style="stroke:#000000; stroke-linecap:round; stroke-linejoin:round; stroke-width:2; stroke-opacity:0.1; fill:none" points="925.33,1456.91 925.33,892.306 "/>
<polyline clip-path="url(#clip224)" style="stroke:#000000; stroke-linecap:round; stroke-linejoin:round; stroke-width:2; stroke-opacity:0.1; fill:none" points="1140.25,1456.91 1140.25,892.306 "/>
<polyline clip-path="url(#clip224)" style="stroke:#000000; stroke-linecap:round; stroke-linejoin:round; stroke-width:2; stroke-opacity:0.1; fill:none" points="161.818,1440.94 1152.94,1440.94 "/>
<polyline clip-path="url(#clip224)" style="stroke:#000000; stroke-linecap:round; stroke-linejoin:round; stroke-width:2; stroke-opacity:0.1; fill:none" points="161.818,1321.59 1152.94,1321.59 "/>
<polyline clip-path="url(#clip224)" style="stroke:#000000; stroke-linecap:round; stroke-linejoin:round; stroke-width:2; stroke-opacity:0.1; fill:none" points="161.818,1202.25 1152.94,1202.25 "/>
<polyline clip-path="url(#clip224)" style="stroke:#000000; stroke-linecap:round; stroke-linejoin:round; stroke-width:2; stroke-opacity:0.1; fill:none" points="161.818,1082.9 1152.94,1082.9 "/>
<polyline clip-path="url(#clip224)" style="stroke:#000000; stroke-linecap:round; stroke-linejoin:round; stroke-width:2; stroke-opacity:0.1; fill:none" points="161.818,963.559 1152.94,963.559 "/>
<polyline clip-path="url(#clip220)" style="stroke:#000000; stroke-linecap:round; stroke-linejoin:round; stroke-width:4; stroke-opacity:1; fill:none" points="161.818,1456.91 1152.94,1456.91 "/>
<polyline clip-path="url(#clip220)" style="stroke:#000000; stroke-linecap:round; stroke-linejoin:round; stroke-width:4; stroke-opacity:1; fill:none" points="280.585,1456.91 280.585,1438.02 "/>
<polyline clip-path="url(#clip220)" style="stroke:#000000; stroke-linecap:round; stroke-linejoin:round; stroke-width:4; stroke-opacity:1; fill:none" points="495.5,1456.91 495.5,1438.02 "/>
<polyline clip-path="url(#clip220)" style="stroke:#000000; stroke-linecap:round; stroke-linejoin:round; stroke-width:4; stroke-opacity:1; fill:none" points="710.415,1456.91 710.415,1438.02 "/>
<polyline clip-path="url(#clip220)" style="stroke:#000000; stroke-linecap:round; stroke-linejoin:round; stroke-width:4; stroke-opacity:1; fill:none" points="925.33,1456.91 925.33,1438.02 "/>
<polyline clip-path="url(#clip220)" style="stroke:#000000; stroke-linecap:round; stroke-linejoin:round; stroke-width:4; stroke-opacity:1; fill:none" points="1140.25,1456.91 1140.25,1438.02 "/>
<path clip-path="url(#clip220)" d="M210.74 1544.64 Q208.825 1546.56 209.746 1549.42 Q210.667 1552.25 214.448 1556.03 Q218.216 1559.8 221.065 1560.74 Q223.913 1561.65 225.828 1559.73 Q227.755 1557.8 226.834 1554.97 Q225.914 1552.11 222.145 1548.34 Q218.364 1544.56 215.516 1543.65 Q212.668 1542.72 210.74 1544.64 M208.776 1542.68 Q211.857 1539.6 215.921 1540.42 Q219.984 1541.22 224.625 1545.86 Q229.253 1550.49 230.063 1554.56 Q230.873 1558.61 227.792 1561.69 Q224.711 1564.78 220.647 1563.98 Q216.584 1563.15 211.956 1558.53 Q207.315 1553.89 206.505 1549.84 Q205.695 1545.76 208.776 1542.68 Z" fill="#000000" fill-rule="nonzero" fill-opacity="1" /><path clip-path="url(#clip220)" d="M235.01 1547.53 L237.6 1544.94 L240.719 1548.06 L238.128 1550.65 L235.01 1547.53 Z" fill="#000000" fill-rule="nonzero" fill-opacity="1" /><path clip-path="url(#clip220)" d="M227.816 1524.3 L237.551 1514.57 L239.638 1516.65 L232.174 1524.12 L236.667 1528.61 Q237.023 1527.89 237.478 1527.26 Q237.92 1526.62 238.46 1526.08 Q241.529 1523.01 245.003 1522.9 Q248.477 1522.79 251.35 1525.66 Q254.308 1528.62 254.112 1532.11 Q253.903 1535.58 250.552 1538.93 Q249.398 1540.09 247.998 1541.09 Q246.611 1542.09 244.942 1542.97 L242.449 1540.48 Q244.156 1539.98 245.629 1539.09 Q247.102 1538.21 248.416 1536.9 Q250.539 1534.77 250.662 1532.42 Q250.785 1530.06 248.87 1528.14 Q246.955 1526.23 244.598 1526.35 Q242.241 1526.47 240.117 1528.6 Q239.123 1529.59 238.349 1530.81 Q237.588 1532.01 237.023 1533.51 L227.816 1524.3 Z" fill="#000000" fill-rule="nonzero" fill-opacity="1" /><path clip-path="url(#clip220)" d="M250.724 1504.66 Q248.808 1506.57 249.729 1509.43 Q250.65 1512.27 254.431 1516.05 Q258.2 1519.82 261.048 1520.75 Q263.896 1521.66 265.811 1519.75 Q267.738 1517.82 266.818 1514.98 Q265.897 1512.12 262.128 1508.35 Q258.347 1504.57 255.499 1503.67 Q252.651 1502.73 250.724 1504.66 M248.759 1502.7 Q251.841 1499.61 255.904 1500.44 Q259.967 1501.23 264.608 1505.87 Q269.236 1510.5 270.046 1514.58 Q270.856 1518.63 267.775 1521.71 Q264.694 1524.79 260.63 1523.99 Q256.567 1523.17 251.939 1518.54 Q247.299 1513.9 246.488 1509.85 Q245.678 1505.78 248.759 1502.7 Z" fill="#000000" fill-rule="nonzero" fill-opacity="1" /><path clip-path="url(#clip220)" d="M266.719 1488.66 Q264.804 1490.58 265.725 1493.44 Q266.646 1496.27 270.427 1500.06 Q274.195 1503.82 277.044 1504.76 Q279.892 1505.67 281.807 1503.75 Q283.734 1501.82 282.813 1498.99 Q281.893 1496.13 278.124 1492.36 Q274.343 1488.58 271.495 1487.67 Q268.647 1486.74 266.719 1488.66 M264.755 1486.7 Q267.836 1483.62 271.9 1484.44 Q275.963 1485.24 280.604 1489.88 Q285.232 1494.51 286.042 1498.58 Q286.852 1502.63 283.771 1505.72 Q280.69 1508.8 276.626 1508 Q272.563 1507.18 267.935 1502.55 Q263.294 1497.91 262.484 1493.86 Q261.674 1489.78 264.755 1486.7 Z" fill="#000000" fill-rule="nonzero" fill-opacity="1" /><path clip-path="url(#clip220)" d="M426.183 1544.11 Q424.268 1546.03 425.189 1548.89 Q426.11 1551.73 429.891 1555.51 Q433.659 1559.28 436.507 1560.21 Q439.356 1561.12 441.271 1559.2 Q443.198 1557.27 442.277 1554.44 Q441.357 1551.58 437.588 1547.81 Q433.807 1544.03 430.959 1543.12 Q428.111 1542.19 426.183 1544.11 M424.219 1542.15 Q427.3 1539.07 431.364 1539.89 Q435.427 1540.69 440.068 1545.33 Q444.696 1549.96 445.506 1554.03 Q446.316 1558.08 443.235 1561.17 Q440.153 1564.25 436.09 1563.45 Q432.027 1562.63 427.399 1558 Q422.758 1553.36 421.948 1549.31 Q421.138 1545.23 424.219 1542.15 Z" fill="#000000" fill-rule="nonzero" fill-opacity="1" /><path clip-path="url(#clip220)" d="M450.453 1547 L453.043 1544.41 L456.162 1547.53 L453.571 1550.12 L450.453 1547 Z" fill="#000000" fill-rule="nonzero" fill-opacity="1" /><path clip-path="url(#clip220)" d="M443.259 1523.77 L452.994 1514.04 L455.081 1516.13 L447.617 1523.59 L452.11 1528.08 Q452.466 1527.36 452.921 1526.73 Q453.363 1526.09 453.903 1525.55 Q456.972 1522.48 460.446 1522.37 Q463.92 1522.26 466.793 1525.14 Q469.751 1528.09 469.555 1531.58 Q469.346 1535.05 465.995 1538.41 Q464.841 1539.56 463.441 1540.57 Q462.054 1541.56 460.384 1542.45 L457.892 1539.95 Q459.599 1539.45 461.072 1538.57 Q462.545 1537.68 463.859 1536.37 Q465.982 1534.24 466.105 1531.89 Q466.228 1529.53 464.313 1527.62 Q462.398 1525.7 460.041 1525.82 Q457.684 1525.95 455.56 1528.07 Q454.566 1529.06 453.792 1530.28 Q453.031 1531.48 452.466 1532.98 L443.259 1523.77 Z" fill="#000000" fill-rule="nonzero" fill-opacity="1" /><path clip-path="url(#clip220)" d="M477.608 1521.91 L486.262 1513.25 L488.349 1515.34 L476.712 1526.98 L474.625 1524.89 Q474.576 1522.02 474.551 1517.13 Q474.527 1512.22 474.441 1510.88 Q474.293 1508.35 473.839 1506.97 Q473.385 1505.56 472.489 1504.66 Q471.028 1503.2 469.076 1503.31 Q467.136 1503.41 465.491 1505.05 Q464.325 1506.22 463.429 1507.92 Q462.545 1509.62 461.894 1511.91 L459.39 1509.41 Q460.286 1507.31 461.281 1505.7 Q462.275 1504.09 463.355 1503.01 Q466.203 1500.17 469.321 1499.9 Q472.44 1499.63 474.821 1502.01 Q475.951 1503.14 476.54 1504.59 Q477.129 1506.01 477.387 1508.5 Q477.436 1509.16 477.497 1512.52 Q477.546 1515.86 477.608 1521.91 Z" fill="#000000" fill-rule="nonzero" fill-opacity="1" /><path clip-path="url(#clip220)" d="M475.251 1491.78 L484.986 1482.05 L487.073 1484.13 L479.609 1491.6 L484.102 1496.09 Q484.458 1495.37 484.912 1494.74 Q485.354 1494.1 485.894 1493.56 Q488.963 1490.49 492.437 1490.38 Q495.912 1490.27 498.784 1493.14 Q501.743 1496.1 501.546 1499.59 Q501.338 1503.06 497.986 1506.41 Q496.832 1507.57 495.433 1508.58 Q494.046 1509.57 492.376 1510.45 L489.884 1507.96 Q491.59 1507.46 493.063 1506.57 Q494.537 1505.69 495.85 1504.38 Q497.974 1502.25 498.097 1499.9 Q498.219 1497.54 496.304 1495.62 Q494.389 1493.71 492.032 1493.83 Q489.675 1493.95 487.551 1496.08 Q486.557 1497.07 485.784 1498.29 Q485.023 1499.49 484.458 1500.99 L475.251 1491.78 Z" fill="#000000" fill-rule="nonzero" fill-opacity="1" /><path clip-path="url(#clip220)" d="M640.571 1544.64 Q638.655 1546.56 639.576 1549.42 Q640.497 1552.25 644.278 1556.03 Q648.047 1559.8 650.895 1560.74 Q653.743 1561.65 655.658 1559.73 Q657.585 1557.8 656.664 1554.97 Q655.744 1552.11 651.975 1548.34 Q648.194 1544.56 645.346 1543.65 Q642.498 1542.72 640.571 1544.64 M638.606 1542.68 Q641.688 1539.6 645.751 1540.42 Q649.814 1541.22 654.455 1545.86 Q659.083 1550.49 659.893 1554.56 Q660.703 1558.61 657.622 1561.69 Q654.541 1564.78 650.477 1563.98 Q646.414 1563.15 641.786 1558.53 Q637.145 1553.89 636.335 1549.84 Q635.525 1545.76 638.606 1542.68 Z" fill="#000000" fill-rule="nonzero" fill-opacity="1" /><path clip-path="url(#clip220)" d="M664.84 1547.53 L667.431 1544.94 L670.549 1548.06 L667.958 1550.65 L664.84 1547.53 Z" fill="#000000" fill-rule="nonzero" fill-opacity="1" /><path clip-path="url(#clip220)" d="M657.647 1524.3 L667.381 1514.57 L669.468 1516.65 L662.005 1524.12 L666.498 1528.61 Q666.854 1527.89 667.308 1527.26 Q667.75 1526.62 668.29 1526.08 Q671.359 1523.01 674.833 1522.9 Q678.307 1522.79 681.18 1525.66 Q684.138 1528.62 683.942 1532.11 Q683.733 1535.58 680.382 1538.93 Q679.228 1540.09 677.828 1541.09 Q676.441 1542.09 674.772 1542.97 L672.28 1540.48 Q673.986 1539.98 675.459 1539.09 Q676.932 1538.21 678.246 1536.9 Q680.37 1534.77 680.492 1532.42 Q680.615 1530.06 678.7 1528.14 Q676.785 1526.23 674.428 1526.35 Q672.071 1526.47 669.947 1528.6 Q668.953 1529.59 668.179 1530.81 Q667.418 1532.01 666.854 1533.51 L657.647 1524.3 Z" fill="#000000" fill-rule="nonzero" fill-opacity="1" /><path clip-path="url(#clip220)" d="M673.642 1508.31 L683.377 1498.57 L685.464 1500.66 L678 1508.12 L682.493 1512.61 Q682.849 1511.89 683.304 1511.26 Q683.746 1510.63 684.286 1510.09 Q687.355 1507.02 690.829 1506.91 Q694.303 1506.8 697.176 1509.67 Q700.134 1512.63 699.938 1516.11 Q699.729 1519.59 696.378 1522.94 Q695.224 1524.09 693.824 1525.1 Q692.437 1526.09 690.767 1526.98 L688.275 1524.49 Q689.982 1523.98 691.455 1523.1 Q692.928 1522.21 694.242 1520.9 Q696.365 1518.78 696.488 1516.42 Q696.611 1514.06 694.696 1512.15 Q692.781 1510.23 690.424 1510.36 Q688.067 1510.48 685.943 1512.6 Q684.949 1513.6 684.175 1514.81 Q683.414 1516.01 682.849 1517.51 L673.642 1508.31 Z" fill="#000000" fill-rule="nonzero" fill-opacity="1" /><path clip-path="url(#clip220)" d="M696.549 1488.66 Q694.634 1490.58 695.555 1493.44 Q696.476 1496.27 700.257 1500.06 Q704.026 1503.82 706.874 1504.76 Q709.722 1505.67 711.637 1503.75 Q713.564 1501.82 712.643 1498.99 Q711.723 1496.13 707.954 1492.36 Q704.173 1488.58 701.325 1487.67 Q698.477 1486.74 696.549 1488.66 M694.585 1486.7 Q697.667 1483.62 701.73 1484.44 Q705.793 1485.24 710.434 1489.88 Q715.062 1494.51 715.872 1498.58 Q716.682 1502.63 713.601 1505.72 Q710.52 1508.8 706.456 1508 Q702.393 1507.18 697.765 1502.55 Q693.124 1497.91 692.314 1493.86 Q691.504 1489.78 694.585 1486.7 Z" fill="#000000" fill-rule="nonzero" fill-opacity="1" /><path clip-path="url(#clip220)" d="M856.013 1544.11 Q854.098 1546.03 855.019 1548.89 Q855.94 1551.73 859.721 1555.51 Q863.49 1559.28 866.338 1560.21 Q869.186 1561.12 871.101 1559.2 Q873.028 1557.27 872.107 1554.44 Q871.187 1551.58 867.418 1547.81 Q863.637 1544.03 860.789 1543.12 Q857.941 1542.19 856.013 1544.11 M854.049 1542.15 Q857.131 1539.07 861.194 1539.89 Q865.257 1540.69 869.898 1545.33 Q874.526 1549.96 875.336 1554.03 Q876.146 1558.08 873.065 1561.17 Q869.984 1564.25 865.92 1563.45 Q861.857 1562.63 857.229 1558 Q852.588 1553.36 851.778 1549.31 Q850.968 1545.23 854.049 1542.15 Z" fill="#000000" fill-rule="nonzero" fill-opacity="1" /><path clip-path="url(#clip220)" d="M880.283 1547 L882.874 1544.41 L885.992 1547.53 L883.401 1550.12 L880.283 1547 Z" fill="#000000" fill-rule="nonzero" fill-opacity="1" /><path clip-path="url(#clip220)" d="M873.09 1523.77 L882.824 1514.04 L884.911 1516.13 L877.448 1523.59 L881.941 1528.08 Q882.297 1527.36 882.751 1526.73 Q883.193 1526.09 883.733 1525.55 Q886.802 1522.48 890.276 1522.37 Q893.75 1522.26 896.623 1525.14 Q899.581 1528.09 899.385 1531.58 Q899.176 1535.05 895.825 1538.41 Q894.671 1539.56 893.271 1540.57 Q891.884 1541.56 890.215 1542.45 L887.723 1539.95 Q889.429 1539.45 890.902 1538.57 Q892.375 1537.68 893.689 1536.37 Q895.813 1534.24 895.935 1531.89 Q896.058 1529.53 894.143 1527.62 Q892.228 1525.7 889.871 1525.82 Q887.514 1525.95 885.39 1528.07 Q884.396 1529.06 883.622 1530.28 Q882.861 1531.48 882.297 1532.98 L873.09 1523.77 Z" fill="#000000" fill-rule="nonzero" fill-opacity="1" /><path clip-path="url(#clip220)" d="M888.435 1508.43 L900.22 1496.64 L901.275 1497.7 L911.894 1521.62 L909.304 1524.22 L899.324 1501.71 L890.522 1510.52 L888.435 1508.43 Z" fill="#000000" fill-rule="nonzero" fill-opacity="1" /><path clip-path="url(#clip220)" d="M905.081 1491.78 L914.816 1482.05 L916.903 1484.13 L909.439 1491.6 L913.932 1496.09 Q914.288 1495.37 914.742 1494.74 Q915.184 1494.1 915.724 1493.56 Q918.793 1490.49 922.268 1490.38 Q925.742 1490.27 928.614 1493.14 Q931.573 1496.1 931.376 1499.59 Q931.168 1503.06 927.816 1506.41 Q926.662 1507.57 925.263 1508.58 Q923.876 1509.57 922.206 1510.45 L919.714 1507.96 Q921.42 1507.46 922.894 1506.57 Q924.367 1505.69 925.68 1504.38 Q927.804 1502.25 927.927 1499.9 Q928.05 1497.54 926.135 1495.62 Q924.219 1493.71 921.862 1493.83 Q919.505 1493.95 917.382 1496.08 Q916.387 1497.07 915.614 1498.29 Q914.853 1499.49 914.288 1500.99 L905.081 1491.78 Z" fill="#000000" fill-rule="nonzero" fill-opacity="1" /><path clip-path="url(#clip220)" d="M1070.4 1544.64 Q1068.49 1546.56 1069.41 1549.42 Q1070.33 1552.25 1074.11 1556.03 Q1077.88 1559.8 1080.72 1560.74 Q1083.57 1561.65 1085.49 1559.73 Q1087.42 1557.8 1086.49 1554.97 Q1085.57 1552.11 1081.81 1548.34 Q1078.02 1544.56 1075.18 1543.65 Q1072.33 1542.72 1070.4 1544.64 M1068.44 1542.68 Q1071.52 1539.6 1075.58 1540.42 Q1079.64 1541.22 1084.28 1545.86 Q1088.91 1550.49 1089.72 1554.56 Q1090.53 1558.61 1087.45 1561.69 Q1084.37 1564.78 1080.31 1563.98 Q1076.24 1563.15 1071.62 1558.53 Q1066.98 1553.89 1066.17 1549.84 Q1065.36 1545.76 1068.44 1542.68 Z" fill="#000000" fill-rule="nonzero" fill-opacity="1" /><path clip-path="url(#clip220)" d="M1094.67 1547.53 L1097.26 1544.94 L1100.38 1548.06 L1097.79 1550.65 L1094.67 1547.53 Z" fill="#000000" fill-rule="nonzero" fill-opacity="1" /><path clip-path="url(#clip220)" d="M1101.24 1526.89 Q1099.57 1528.56 1099.73 1530.68 Q1099.9 1532.8 1101.89 1534.78 Q1103.87 1536.76 1105.99 1536.95 Q1108.11 1537.11 1109.78 1535.44 Q1111.45 1533.77 1111.28 1531.65 Q1111.11 1529.52 1109.13 1527.54 Q1107.14 1525.55 1105.02 1525.39 Q1102.91 1525.22 1101.24 1526.89 M1098.39 1514.2 L1100.65 1516.46 Q1099.27 1516.95 1098.08 1517.67 Q1096.9 1518.38 1095.97 1519.32 Q1093.52 1521.77 1093.87 1524.73 Q1094.24 1527.68 1097.41 1531.21 Q1097.06 1529.42 1097.59 1527.76 Q1098.11 1526.09 1099.42 1524.78 Q1102.18 1522.02 1105.46 1522.1 Q1108.74 1522.17 1111.62 1525.05 Q1114.45 1527.87 1114.48 1531.25 Q1114.52 1534.63 1111.75 1537.4 Q1108.57 1540.58 1104.45 1539.83 Q1100.33 1539.07 1095.7 1534.44 Q1091.36 1530.1 1090.84 1525.46 Q1090.31 1520.8 1093.79 1517.33 Q1094.72 1516.4 1095.85 1515.63 Q1096.99 1514.86 1098.39 1514.2 Z" fill="#000000" fill-rule="nonzero" fill-opacity="1" /><path clip-path="url(#clip220)" d="M1110.38 1504.66 Q1108.47 1506.57 1109.39 1509.43 Q1110.31 1512.27 1114.09 1516.05 Q1117.86 1519.82 1120.71 1520.75 Q1123.56 1521.66 1125.47 1519.75 Q1127.4 1517.82 1126.48 1514.98 Q1125.56 1512.12 1121.79 1508.35 Q1118.01 1504.57 1115.16 1503.67 Q1112.31 1502.73 1110.38 1504.66 M1108.42 1502.7 Q1111.5 1499.61 1115.56 1500.44 Q1119.63 1501.23 1124.27 1505.87 Q1128.9 1510.5 1129.71 1514.58 Q1130.52 1518.63 1127.44 1521.71 Q1124.35 1524.79 1120.29 1523.99 Q1116.23 1523.17 1111.6 1518.54 Q1106.96 1513.9 1106.15 1509.85 Q1105.34 1505.78 1108.42 1502.7 Z" fill="#000000" fill-rule="nonzero" fill-opacity="1" /><path clip-path="url(#clip220)" d="M1126.38 1488.66 Q1124.46 1490.58 1125.39 1493.44 Q1126.31 1496.27 1130.09 1500.06 Q1133.86 1503.82 1136.7 1504.76 Q1139.55 1505.67 1141.47 1503.75 Q1143.39 1501.82 1142.47 1498.99 Q1141.55 1496.13 1137.78 1492.36 Q1134 1488.58 1131.16 1487.67 Q1128.31 1486.74 1126.38 1488.66 M1124.42 1486.7 Q1127.5 1483.62 1131.56 1484.44 Q1135.62 1485.24 1140.26 1489.88 Q1144.89 1494.51 1145.7 1498.58 Q1146.51 1502.63 1143.43 1505.72 Q1140.35 1508.8 1136.29 1508 Q1132.22 1507.18 1127.59 1502.55 Q1122.95 1497.91 1122.14 1493.86 Q1121.33 1489.78 1124.42 1486.7 Z" fill="#000000" fill-rule="nonzero" fill-opacity="1" /><polyline clip-path="url(#clip220)" style="stroke:#000000; stroke-linecap:round; stroke-linejoin:round; stroke-width:4; stroke-opacity:1; fill:none" points="161.818,1456.91 161.818,892.306 "/>
<polyline clip-path="url(#clip220)" style="stroke:#000000; stroke-linecap:round; stroke-linejoin:round; stroke-width:4; stroke-opacity:1; fill:none" points="161.818,1440.94 180.716,1440.94 "/>
<polyline clip-path="url(#clip220)" style="stroke:#000000; stroke-linecap:round; stroke-linejoin:round; stroke-width:4; stroke-opacity:1; fill:none" points="161.818,1321.59 180.716,1321.59 "/>
<polyline clip-path="url(#clip220)" style="stroke:#000000; stroke-linecap:round; stroke-linejoin:round; stroke-width:4; stroke-opacity:1; fill:none" points="161.818,1202.25 180.716,1202.25 "/>
<polyline clip-path="url(#clip220)" style="stroke:#000000; stroke-linecap:round; stroke-linejoin:round; stroke-width:4; stroke-opacity:1; fill:none" points="161.818,1082.9 180.716,1082.9 "/>
<polyline clip-path="url(#clip220)" style="stroke:#000000; stroke-linecap:round; stroke-linejoin:round; stroke-width:4; stroke-opacity:1; fill:none" points="161.818,963.559 180.716,963.559 "/>
<path clip-path="url(#clip220)" d="M60.315 1430.28 Q57.6067 1430.28 56.2352 1432.96 Q54.881 1435.61 54.881 1440.96 Q54.881 1446.29 56.2352 1448.96 Q57.6067 1451.62 60.315 1451.62 Q63.0407 1451.62 64.3948 1448.96 Q65.7664 1446.29 65.7664 1440.96 Q65.7664 1435.61 64.3948 1432.96 Q63.0407 1430.28 60.315 1430.28 M60.315 1427.51 Q64.6726 1427.51 66.9643 1430.96 Q69.2733 1434.4 69.2733 1440.96 Q69.2733 1447.51 66.9643 1450.96 Q64.6726 1454.4 60.315 1454.4 Q55.9574 1454.4 53.6484 1450.96 Q51.3567 1447.51 51.3567 1440.96 Q51.3567 1434.4 53.6484 1430.96 Q55.9574 1427.51 60.315 1427.51 Z" fill="#000000" fill-rule="nonzero" fill-opacity="1" /><path clip-path="url(#clip220)" d="M75.4364 1449.49 L79.0996 1449.49 L79.0996 1453.9 L75.4364 1453.9 L75.4364 1449.49 Z" fill="#000000" fill-rule="nonzero" fill-opacity="1" /><path clip-path="url(#clip220)" d="M94.2384 1430.28 Q91.5301 1430.28 90.1586 1432.96 Q88.8044 1435.61 88.8044 1440.96 Q88.8044 1446.29 90.1586 1448.96 Q91.5301 1451.62 94.2384 1451.62 Q96.9641 1451.62 98.3183 1448.96 Q99.6898 1446.29 99.6898 1440.96 Q99.6898 1435.61 98.3183 1432.96 Q96.9641 1430.28 94.2384 1430.28 M94.2384 1427.51 Q98.596 1427.51 100.888 1430.96 Q103.197 1434.4 103.197 1440.96 Q103.197 1447.51 100.888 1450.96 Q98.596 1454.4 94.2384 1454.4 Q89.8808 1454.4 87.5718 1450.96 Q85.2801 1447.51 85.2801 1440.96 Q85.2801 1434.4 87.5718 1430.96 Q89.8808 1427.51 94.2384 1427.51 Z" fill="#000000" fill-rule="nonzero" fill-opacity="1" /><path clip-path="url(#clip220)" d="M116.86 1430.28 Q114.152 1430.28 112.78 1432.96 Q111.426 1435.61 111.426 1440.96 Q111.426 1446.29 112.78 1448.96 Q114.152 1451.62 116.86 1451.62 Q119.586 1451.62 120.94 1448.96 Q122.311 1446.29 122.311 1440.96 Q122.311 1435.61 120.94 1432.96 Q119.586 1430.28 116.86 1430.28 M116.86 1427.51 Q121.217 1427.51 123.509 1430.96 Q125.818 1434.4 125.818 1440.96 Q125.818 1447.51 123.509 1450.96 Q121.217 1454.4 116.86 1454.4 Q112.502 1454.4 110.193 1450.96 Q107.902 1447.51 107.902 1440.96 Q107.902 1434.4 110.193 1430.96 Q112.502 1427.51 116.86 1427.51 Z" fill="#000000" fill-rule="nonzero" fill-opacity="1" /><path clip-path="url(#clip220)" d="M61.2351 1310.94 Q58.5268 1310.94 57.1553 1313.61 Q55.8011 1316.27 55.8011 1321.62 Q55.8011 1326.95 57.1553 1329.62 Q58.5268 1332.28 61.2351 1332.28 Q63.9608 1332.28 65.315 1329.62 Q66.6865 1326.95 66.6865 1321.62 Q66.6865 1316.27 65.315 1313.61 Q63.9608 1310.94 61.2351 1310.94 M61.2351 1308.16 Q65.5927 1308.16 67.8844 1311.62 Q70.1934 1315.05 70.1934 1321.62 Q70.1934 1328.16 67.8844 1331.62 Q65.5927 1335.05 61.2351 1335.05 Q56.8775 1335.05 54.5685 1331.62 Q52.2768 1328.16 52.2768 1321.62 Q52.2768 1315.05 54.5685 1311.62 Q56.8775 1308.16 61.2351 1308.16 Z" fill="#000000" fill-rule="nonzero" fill-opacity="1" /><path clip-path="url(#clip220)" d="M76.3566 1330.14 L80.0197 1330.14 L80.0197 1334.55 L76.3566 1334.55 L76.3566 1330.14 Z" fill="#000000" fill-rule="nonzero" fill-opacity="1" /><path clip-path="url(#clip220)" d="M95.1586 1310.94 Q92.4502 1310.94 91.0787 1313.61 Q89.7246 1316.27 89.7246 1321.62 Q89.7246 1326.95 91.0787 1329.62 Q92.4502 1332.28 95.1586 1332.28 Q97.8842 1332.28 99.2384 1329.62 Q100.61 1326.95 100.61 1321.62 Q100.61 1316.27 99.2384 1313.61 Q97.8842 1310.94 95.1586 1310.94 M95.1586 1308.16 Q99.5162 1308.16 101.808 1311.62 Q104.117 1315.05 104.117 1321.62 Q104.117 1328.16 101.808 1331.62 Q99.5162 1335.05 95.1586 1335.05 Q90.8009 1335.05 88.4919 1331.62 Q86.2003 1328.16 86.2003 1321.62 Q86.2003 1315.05 88.4919 1311.62 Q90.8009 1308.16 95.1586 1308.16 Z" fill="#000000" fill-rule="nonzero" fill-opacity="1" /><path clip-path="url(#clip220)" d="M110.888 1331.6 L116.617 1331.6 L116.617 1311.83 L110.384 1313.08 L110.384 1309.88 L116.582 1308.63 L120.089 1308.63 L120.089 1331.6 L125.818 1331.6 L125.818 1334.55 L110.888 1334.55 L110.888 1331.6 Z" fill="#000000" fill-rule="nonzero" fill-opacity="1" /><path clip-path="url(#clip220)" d="M61.5129 1191.6 Q58.8046 1191.6 57.4331 1194.27 Q56.0789 1196.93 56.0789 1202.27 Q56.0789 1207.6 57.4331 1210.28 Q58.8046 1212.93 61.5129 1212.93 Q64.2386 1212.93 65.5927 1210.28 Q66.9643 1207.6 66.9643 1202.27 Q66.9643 1196.93 65.5927 1194.27 Q64.2386 1191.6 61.5129 1191.6 M61.5129 1188.82 Q65.8705 1188.82 68.1622 1192.27 Q70.4712 1195.71 70.4712 1202.27 Q70.4712 1208.82 68.1622 1212.27 Q65.8705 1215.71 61.5129 1215.71 Q57.1553 1215.71 54.8463 1212.27 Q52.5546 1208.82 52.5546 1202.27 Q52.5546 1195.71 54.8463 1192.27 Q57.1553 1188.82 61.5129 1188.82 Z" fill="#000000" fill-rule="nonzero" fill-opacity="1" /><path clip-path="url(#clip220)" d="M76.6343 1210.8 L80.2975 1210.8 L80.2975 1215.21 L76.6343 1215.21 L76.6343 1210.8 Z" fill="#000000" fill-rule="nonzero" fill-opacity="1" /><path clip-path="url(#clip220)" d="M95.4363 1191.6 Q92.728 1191.6 91.3565 1194.27 Q90.0023 1196.93 90.0023 1202.27 Q90.0023 1207.6 91.3565 1210.28 Q92.728 1212.93 95.4363 1212.93 Q98.162 1212.93 99.5162 1210.28 Q100.888 1207.6 100.888 1202.27 Q100.888 1196.93 99.5162 1194.27 Q98.162 1191.6 95.4363 1191.6 M95.4363 1188.82 Q99.7939 1188.82 102.086 1192.27 Q104.395 1195.71 104.395 1202.27 Q104.395 1208.82 102.086 1212.27 Q99.7939 1215.71 95.4363 1215.71 Q91.0787 1215.71 88.7697 1212.27 Q86.478 1208.82 86.478 1202.27 Q86.478 1195.71 88.7697 1192.27 Q91.0787 1188.82 95.4363 1188.82 Z" fill="#000000" fill-rule="nonzero" fill-opacity="1" /><path clip-path="url(#clip220)" d="M113.579 1212.26 L125.818 1212.26 L125.818 1215.21 L109.36 1215.21 L109.36 1212.26 Q111.356 1210.19 114.794 1206.72 Q118.249 1203.23 119.134 1202.22 Q120.818 1200.33 121.478 1199.03 Q122.155 1197.71 122.155 1196.44 Q122.155 1194.37 120.697 1193.07 Q119.256 1191.77 116.929 1191.77 Q115.28 1191.77 113.44 1192.34 Q111.617 1192.92 109.533 1194.08 L109.533 1190.54 Q111.652 1189.69 113.492 1189.25 Q115.332 1188.82 116.86 1188.82 Q120.888 1188.82 123.283 1190.83 Q125.679 1192.85 125.679 1196.21 Q125.679 1197.81 125.072 1199.25 Q124.481 1200.68 122.901 1202.62 Q122.467 1203.12 120.141 1205.54 Q117.815 1207.93 113.579 1212.26 Z" fill="#000000" fill-rule="nonzero" fill-opacity="1" /><path clip-path="url(#clip220)" d="M60.8011 1072.25 Q58.0928 1072.25 56.7213 1074.93 Q55.3671 1077.58 55.3671 1082.93 Q55.3671 1088.26 56.7213 1090.93 Q58.0928 1093.59 60.8011 1093.59 Q63.5268 1093.59 64.8809 1090.93 Q66.2525 1088.26 66.2525 1082.93 Q66.2525 1077.58 64.8809 1074.93 Q63.5268 1072.25 60.8011 1072.25 M60.8011 1069.47 Q65.1587 1069.47 67.4504 1072.93 Q69.7594 1076.37 69.7594 1082.93 Q69.7594 1089.47 67.4504 1092.93 Q65.1587 1096.37 60.8011 1096.37 Q56.4435 1096.37 54.1345 1092.93 Q51.8428 1089.47 51.8428 1082.93 Q51.8428 1076.37 54.1345 1072.93 Q56.4435 1069.47 60.8011 1069.47 Z" fill="#000000" fill-rule="nonzero" fill-opacity="1" /><path clip-path="url(#clip220)" d="M75.9225 1091.45 L79.5857 1091.45 L79.5857 1095.86 L75.9225 1095.86 L75.9225 1091.45 Z" fill="#000000" fill-rule="nonzero" fill-opacity="1" /><path clip-path="url(#clip220)" d="M94.7245 1072.25 Q92.0162 1072.25 90.6447 1074.93 Q89.2905 1077.58 89.2905 1082.93 Q89.2905 1088.26 90.6447 1090.93 Q92.0162 1093.59 94.7245 1093.59 Q97.4502 1093.59 98.8044 1090.93 Q100.176 1088.26 100.176 1082.93 Q100.176 1077.58 98.8044 1074.93 Q97.4502 1072.25 94.7245 1072.25 M94.7245 1069.47 Q99.0821 1069.47 101.374 1072.93 Q103.683 1076.37 103.683 1082.93 Q103.683 1089.47 101.374 1092.93 Q99.0821 1096.37 94.7245 1096.37 Q90.3669 1096.37 88.0579 1092.93 Q85.7662 1089.47 85.7662 1082.93 Q85.7662 1076.37 88.0579 1072.93 Q90.3669 1069.47 94.7245 1069.47 Z" fill="#000000" fill-rule="nonzero" fill-opacity="1" /><path clip-path="url(#clip220)" d="M120.471 1081.89 Q122.988 1082.43 124.395 1084.13 Q125.818 1085.83 125.818 1088.33 Q125.818 1092.17 123.179 1094.27 Q120.54 1096.37 115.679 1096.37 Q114.047 1096.37 112.311 1096.04 Q110.593 1095.72 108.752 1095.08 L108.752 1091.7 Q110.211 1092.55 111.947 1092.98 Q113.683 1093.42 115.575 1093.42 Q118.874 1093.42 120.592 1092.11 Q122.329 1090.81 122.329 1088.33 Q122.329 1086.04 120.714 1084.75 Q119.117 1083.45 116.252 1083.45 L113.231 1083.45 L113.231 1080.57 L116.391 1080.57 Q118.978 1080.57 120.349 1079.54 Q121.721 1078.5 121.721 1076.56 Q121.721 1074.56 120.297 1073.5 Q118.891 1072.43 116.252 1072.43 Q114.811 1072.43 113.162 1072.74 Q111.513 1073.05 109.533 1073.71 L109.533 1070.59 Q111.53 1070.03 113.266 1069.75 Q115.02 1069.47 116.565 1069.47 Q120.558 1069.47 122.884 1071.3 Q125.21 1073.1 125.21 1076.19 Q125.21 1078.35 123.978 1079.84 Q122.745 1081.31 120.471 1081.89 Z" fill="#000000" fill-rule="nonzero" fill-opacity="1" /><path clip-path="url(#clip220)" d="M59.9504 952.908 Q57.2421 952.908 55.8706 955.582 Q54.5164 958.238 54.5164 963.585 Q54.5164 968.915 55.8706 971.588 Q57.2421 974.245 59.9504 974.245 Q62.6761 974.245 64.0303 971.588 Q65.4018 968.915 65.4018 963.585 Q65.4018 958.238 64.0303 955.582 Q62.6761 952.908 59.9504 952.908 M59.9504 950.13 Q64.308 950.13 66.5997 953.585 Q68.9087 957.023 68.9087 963.585 Q68.9087 970.13 66.5997 973.585 Q64.308 977.022 59.9504 977.022 Q55.5928 977.022 53.2838 973.585 Q50.9921 970.13 50.9921 963.585 Q50.9921 957.023 53.2838 953.585 Q55.5928 950.13 59.9504 950.13 Z" fill="#000000" fill-rule="nonzero" fill-opacity="1" /><path clip-path="url(#clip220)" d="M75.0719 972.109 L78.735 972.109 L78.735 976.519 L75.0719 976.519 L75.0719 972.109 Z" fill="#000000" fill-rule="nonzero" fill-opacity="1" /><path clip-path="url(#clip220)" d="M93.8738 952.908 Q91.1655 952.908 89.794 955.582 Q88.4398 958.238 88.4398 963.585 Q88.4398 968.915 89.794 971.588 Q91.1655 974.245 93.8738 974.245 Q96.5995 974.245 97.9537 971.588 Q99.3252 968.915 99.3252 963.585 Q99.3252 958.238 97.9537 955.582 Q96.5995 952.908 93.8738 952.908 M93.8738 950.13 Q98.2315 950.13 100.523 953.585 Q102.832 957.023 102.832 963.585 Q102.832 970.13 100.523 973.585 Q98.2315 977.022 93.8738 977.022 Q89.5162 977.022 87.2072 973.585 Q84.9156 970.13 84.9156 963.585 Q84.9156 957.023 87.2072 953.585 Q89.5162 950.13 93.8738 950.13 Z" fill="#000000" fill-rule="nonzero" fill-opacity="1" /><path clip-path="url(#clip220)" d="M118.631 953.655 L109.777 967.491 L118.631 967.491 L118.631 953.655 M117.711 950.599 L122.12 950.599 L122.12 967.491 L125.818 967.491 L125.818 970.408 L122.12 970.408 L122.12 976.519 L118.631 976.519 L118.631 970.408 L106.929 970.408 L106.929 967.022 L117.711 950.599 Z" fill="#000000" fill-rule="nonzero" fill-opacity="1" /><path clip-path="url(#clip220)" d="M173.716 813.68 Q170.198 813.68 168.3 816.226 Q166.309 818.888 166.309 823.286 Q166.309 827.939 168.276 830.624 Q170.267 833.286 173.716 833.286 Q177.119 833.286 179.11 830.601 Q181.1 827.916 181.1 823.286 Q181.1 819.05 179.11 816.226 Q177.281 813.68 173.716 813.68 M173.716 810.3 L187.86 810.3 L187.86 814.559 L183.091 814.559 Q185.614 818.171 185.614 823.286 Q185.614 829.652 182.443 833.263 Q179.272 836.897 173.716 836.897 Q168.138 836.897 164.989 833.263 Q161.818 829.652 161.818 823.286 Q161.818 816.874 164.989 813.286 Q167.605 810.3 173.716 810.3 Z" fill="#000000" fill-rule="nonzero" fill-opacity="1" /><path clip-path="url(#clip220)" d="M198.878 836.226 L190.961 810.3 L195.545 810.3 L202.235 832.059 Q205.012 829.189 207.327 825.208 Q209.086 822.221 209.179 819.629 Q209.225 818.402 208.67 816.087 Q208.022 813.333 205.568 810.3 L209.873 810.3 L209.873 810.3 Q211.471 812.36 212.535 815.231 Q213.508 817.87 213.508 819.675 Q213.508 824.212 210.36 828.263 Q206.262 833.541 203.415 836.226 L198.878 836.226 Z" fill="#000000" fill-rule="nonzero" fill-opacity="1" /><polyline clip-path="url(#clip224)" style="stroke:#009af9; stroke-linecap:round; stroke-linejoin:round; stroke-width:4; stroke-opacity:1; fill:none" points="189.869,959.069 248.307,1016.52 306.746,1074.77 365.185,1133.82 423.623,1193.65 482.062,1254.28 540.501,1315.71 598.939,1377.92 657.378,1440.93 715.817,1377.13 774.256,1312.53 832.694,1247.14 891.133,1180.96 949.572,1113.98 1008.01,1046.21 1066.45,977.644 1124.89,908.286 "/>
<circle clip-path="url(#clip224)" cx="657.378" cy="1440.93" r="10.8" fill="#ff0000" fill-rule="evenodd" fill-opacity="1" stroke="#000000" stroke-opacity="1" stroke-width="3.2"/>
</svg>
