<?xml version="1.0" encoding="utf-8"?>
<svg xmlns="http://www.w3.org/2000/svg" xmlns:xlink="http://www.w3.org/1999/xlink" width="600" height="400" viewBox="0 0 2400 1600">
<defs>
  <clipPath id="clip320">
    <rect x="0" y="0" width="2400" height="1600"/>
  </clipPath>
</defs>
<path clip-path="url(#clip320)" d="M0 1600 L2400 1600 L2400 0 L0 0  Z" fill="#ffffff" fill-rule="evenodd" fill-opacity="1"/>
<defs>
  <clipPath id="clip321">
    <rect x="1608" y="897" width="745" height="588"/>
  </clipPath>
</defs>
<path clip-path="url(#clip320)" d="M128.138 667.406 L1153.19 667.406 L1153.19 97.5521 L128.138 97.5521  Z" fill="#ffffff" fill-rule="evenodd" fill-opacity="1"/>
<defs>
  <clipPath id="clip322">
    <rect x="128" y="97" width="1026" height="571"/>
  </clipPath>
</defs>
<polyline clip-path="url(#clip322)" style="stroke:#000000; stroke-linecap:round; stroke-linejoin:round; stroke-width:2; stroke-opacity:0.1; fill:none" points="184.517,667.406 184.517,97.5521 "/>
<polyline clip-path="url(#clip322)" style="stroke:#000000; stroke-linecap:round; stroke-linejoin:round; stroke-width:2; stroke-opacity:0.1; fill:none" points="412.591,667.406 412.591,97.5521 "/>
<polyline clip-path="url(#clip322)" style="stroke:#000000; stroke-linecap:round; stroke-linejoin:round; stroke-width:2; stroke-opacity:0.1; fill:none" points="640.664,667.406 640.664,97.5521 "/>
<polyline clip-path="url(#clip322)" style="stroke:#000000; stroke-linecap:round; stroke-linejoin:round; stroke-width:2; stroke-opacity:0.1; fill:none" points="868.737,667.406 868.737,97.5521 "/>
<polyline clip-path="url(#clip322)" style="stroke:#000000; stroke-linecap:round; stroke-linejoin:round; stroke-width:2; stroke-opacity:0.1; fill:none" points="1096.81,667.406 1096.81,97.5521 "/>
<polyline clip-path="url(#clip322)" style="stroke:#000000; stroke-linecap:round; stroke-linejoin:round; stroke-width:2; stroke-opacity:0.1; fill:none" points="128.138,667.406 1153.19,667.406 "/>
<polyline clip-path="url(#clip322)" style="stroke:#000000; stroke-linecap:round; stroke-linejoin:round; stroke-width:2; stroke-opacity:0.1; fill:none" points="128.138,559.887 1153.19,559.887 "/>
<polyline clip-path="url(#clip322)" style="stroke:#000000; stroke-linecap:round; stroke-linejoin:round; stroke-width:2; stroke-opacity:0.1; fill:none" points="128.138,452.367 1153.19,452.367 "/>
<polyline clip-path="url(#clip322)" style="stroke:#000000; stroke-linecap:round; stroke-linejoin:round; stroke-width:2; stroke-opacity:0.1; fill:none" points="128.138,344.847 1153.19,344.847 "/>
<polyline clip-path="url(#clip322)" style="stroke:#000000; stroke-linecap:round; stroke-linejoin:round; stroke-width:2; stroke-opacity:0.1; fill:none" points="128.138,237.328 1153.19,237.328 "/>
<polyline clip-path="url(#clip322)" style="stroke:#000000; stroke-linecap:round; stroke-linejoin:round; stroke-width:2; stroke-opacity:0.1; fill:none" points="128.138,129.808 1153.19,129.808 "/>
<polyline clip-path="url(#clip320)" style="stroke:#000000; stroke-linecap:round; stroke-linejoin:round; stroke-width:4; stroke-opacity:1; fill:none" points="128.138,667.406 1153.19,667.406 "/>
<polyline clip-path="url(#clip320)" style="stroke:#000000; stroke-linecap:round; stroke-linejoin:round; stroke-width:4; stroke-opacity:1; fill:none" points="184.517,667.406 184.517,648.509 "/>
<polyline clip-path="url(#clip320)" style="stroke:#000000; stroke-linecap:round; stroke-linejoin:round; stroke-width:4; stroke-opacity:1; fill:none" points="412.591,667.406 412.591,648.509 "/>
<polyline clip-path="url(#clip320)" style="stroke:#000000; stroke-linecap:round; stroke-linejoin:round; stroke-width:4; stroke-opacity:1; fill:none" points="640.664,667.406 640.664,648.509 "/>
<polyline clip-path="url(#clip320)" style="stroke:#000000; stroke-linecap:round; stroke-linejoin:round; stroke-width:4; stroke-opacity:1; fill:none" points="868.737,667.406 868.737,648.509 "/>
<polyline clip-path="url(#clip320)" style="stroke:#000000; stroke-linecap:round; stroke-linejoin:round; stroke-width:4; stroke-opacity:1; fill:none" points="1096.81,667.406 1096.81,648.509 "/>
<path clip-path="url(#clip320)" d="M131.147 738.66 Q129.232 740.575 130.153 743.435 Q131.073 746.271 134.854 750.052 Q138.623 753.821 141.471 754.754 Q144.319 755.662 146.234 753.747 Q148.162 751.82 147.241 748.984 Q146.32 746.124 142.552 742.355 Q138.771 738.574 135.923 737.666 Q133.074 736.733 131.147 738.66 M129.183 736.696 Q132.264 733.615 136.328 734.437 Q140.391 735.235 145.031 739.875 Q149.659 744.503 150.47 748.579 Q151.28 752.63 148.199 755.712 Q145.117 758.793 141.054 757.995 Q136.991 757.172 132.362 752.544 Q127.722 747.904 126.912 743.853 Q126.102 739.777 129.183 736.696 Z" fill="#000000" fill-rule="nonzero" fill-opacity="1" /><path clip-path="url(#clip320)" d="M155.417 741.545 L158.007 738.955 L161.125 742.073 L158.535 744.663 L155.417 741.545 Z" fill="#000000" fill-rule="nonzero" fill-opacity="1" /><path clip-path="url(#clip320)" d="M163.126 722.664 Q161.359 724.432 161.285 726.396 Q161.224 728.348 162.881 730.005 Q164.538 731.663 166.49 731.601 Q168.454 731.528 170.222 729.76 Q171.99 727.992 172.063 726.028 Q172.125 724.052 170.48 722.407 Q168.822 720.749 166.858 720.823 Q164.906 720.884 163.126 722.664 M159.591 724.088 Q157.602 725.291 155.613 725.095 Q153.637 724.886 152.066 723.315 Q149.868 721.118 150.151 718.282 Q150.445 715.434 153.17 712.708 Q155.908 709.971 158.744 709.688 Q161.58 709.406 163.777 711.604 Q165.348 713.175 165.545 715.164 Q165.753 717.14 164.563 719.117 Q166.772 717.742 168.982 717.963 Q171.204 718.171 172.959 719.927 Q175.623 722.591 175.415 725.647 Q175.218 728.692 172.186 731.724 Q169.154 734.756 166.097 734.965 Q163.053 735.161 160.389 732.497 Q158.633 730.742 158.425 728.52 Q158.216 726.298 159.591 724.088 M154.766 721.081 Q156.19 722.505 157.872 722.419 Q159.566 722.321 161.174 720.712 Q162.77 719.117 162.869 717.422 Q162.979 715.716 161.555 714.292 Q160.131 712.868 158.425 712.978 Q156.73 713.077 155.135 714.673 Q153.526 716.281 153.428 717.975 Q153.342 719.657 154.766 721.081 Z" fill="#000000" fill-rule="nonzero" fill-opacity="1" /><path clip-path="url(#clip320)" d="M163.568 702.973 L175.353 691.188 L176.409 692.244 L187.028 716.17 L184.438 718.761 L174.457 696.258 L165.655 705.06 L163.568 702.973 Z" fill="#000000" fill-rule="nonzero" fill-opacity="1" /><path clip-path="url(#clip320)" d="M358.791 739.09 Q356.876 741.005 357.796 743.865 Q358.717 746.701 362.498 750.482 Q366.267 754.251 369.115 755.184 Q371.963 756.092 373.878 754.177 Q375.805 752.25 374.885 749.414 Q373.964 746.554 370.195 742.785 Q366.414 739.004 363.566 738.095 Q360.718 737.162 358.791 739.09 M356.826 737.126 Q359.908 734.044 363.971 734.867 Q368.035 735.665 372.675 740.305 Q377.303 744.933 378.113 749.009 Q378.923 753.06 375.842 756.141 Q372.761 759.223 368.697 758.425 Q364.634 757.602 360.006 752.974 Q355.366 748.334 354.555 744.283 Q353.745 740.207 356.826 737.126 Z" fill="#000000" fill-rule="nonzero" fill-opacity="1" /><path clip-path="url(#clip320)" d="M383.06 741.975 L385.651 739.384 L388.769 742.502 L386.179 745.093 L383.06 741.975 Z" fill="#000000" fill-rule="nonzero" fill-opacity="1" /><path clip-path="url(#clip320)" d="M390.77 723.094 Q389.002 724.862 388.928 726.826 Q388.867 728.778 390.524 730.435 Q392.182 732.092 394.134 732.031 Q396.098 731.957 397.865 730.19 Q399.633 728.422 399.707 726.458 Q399.768 724.481 398.123 722.836 Q396.466 721.179 394.502 721.253 Q392.55 721.314 390.77 723.094 M387.234 724.518 Q385.246 725.721 383.257 725.525 Q381.28 725.316 379.709 723.745 Q377.512 721.547 377.794 718.711 Q378.089 715.863 380.814 713.138 Q383.552 710.4 386.387 710.118 Q389.223 709.836 391.421 712.033 Q392.992 713.605 393.188 715.593 Q393.397 717.57 392.206 719.546 Q394.416 718.171 396.626 718.392 Q398.848 718.601 400.603 720.356 Q403.267 723.02 403.058 726.077 Q402.862 729.122 399.83 732.154 Q396.797 735.186 393.741 735.395 Q390.696 735.591 388.032 732.927 Q386.277 731.172 386.068 728.95 Q385.859 726.728 387.234 724.518 M382.41 721.51 Q383.834 722.934 385.516 722.848 Q387.21 722.75 388.818 721.142 Q390.414 719.546 390.512 717.852 Q390.623 716.146 389.199 714.722 Q387.775 713.298 386.068 713.408 Q384.374 713.506 382.778 715.102 Q381.17 716.71 381.072 718.405 Q380.986 720.086 382.41 721.51 Z" fill="#000000" fill-rule="nonzero" fill-opacity="1" /><path clip-path="url(#clip320)" d="M406.766 707.098 Q404.998 708.866 404.924 710.83 Q404.863 712.782 406.52 714.439 Q408.177 716.097 410.129 716.035 Q412.093 715.962 413.861 714.194 Q415.629 712.426 415.703 710.462 Q415.764 708.485 414.119 706.84 Q412.462 705.183 410.498 705.257 Q408.546 705.318 406.766 707.098 M403.23 708.522 Q401.241 709.725 399.253 709.529 Q397.276 709.32 395.705 707.749 Q393.507 705.551 393.79 702.716 Q394.084 699.868 396.81 697.142 Q399.547 694.405 402.383 694.122 Q405.219 693.84 407.416 696.037 Q408.988 697.609 409.184 699.598 Q409.393 701.574 408.202 703.55 Q410.412 702.176 412.621 702.396 Q414.843 702.605 416.599 704.361 Q419.263 707.025 419.054 710.081 Q418.858 713.126 415.825 716.158 Q412.793 719.19 409.736 719.399 Q406.692 719.595 404.028 716.931 Q402.273 715.176 402.064 712.954 Q401.855 710.732 403.23 708.522 M398.406 705.515 Q399.83 706.939 401.511 706.853 Q403.206 706.754 404.814 705.146 Q406.41 703.55 406.508 701.856 Q406.618 700.15 405.194 698.726 Q403.77 697.302 402.064 697.412 Q400.37 697.511 398.774 699.106 Q397.166 700.715 397.068 702.409 Q396.982 704.091 398.406 705.515 Z" fill="#000000" fill-rule="nonzero" fill-opacity="1" /><path clip-path="url(#clip320)" d="M586.913 739.041 Q584.998 740.956 585.919 743.816 Q586.839 746.652 590.62 750.433 Q594.389 754.202 597.237 755.135 Q600.085 756.043 602 754.128 Q603.928 752.201 603.007 749.365 Q602.086 746.504 598.317 742.736 Q594.536 738.955 591.688 738.046 Q588.84 737.113 586.913 739.041 M584.949 737.076 Q588.03 733.995 592.093 734.818 Q596.157 735.616 600.797 740.256 Q605.425 744.884 606.236 748.96 Q607.046 753.011 603.964 756.092 Q600.883 759.173 596.82 758.375 Q592.756 757.553 588.128 752.925 Q583.488 748.285 582.678 744.233 Q581.867 740.158 584.949 737.076 Z" fill="#000000" fill-rule="nonzero" fill-opacity="1" /><path clip-path="url(#clip320)" d="M611.183 741.926 L613.773 739.335 L616.891 742.453 L614.301 745.044 L611.183 741.926 Z" fill="#000000" fill-rule="nonzero" fill-opacity="1" /><path clip-path="url(#clip320)" d="M618.892 723.045 Q617.124 724.813 617.051 726.777 Q616.989 728.729 618.647 730.386 Q620.304 732.043 622.256 731.982 Q624.22 731.908 625.988 730.14 Q627.756 728.373 627.829 726.409 Q627.891 724.432 626.246 722.787 Q624.588 721.13 622.624 721.203 Q620.672 721.265 618.892 723.045 M615.357 724.469 Q613.368 725.672 611.379 725.476 Q609.403 725.267 607.831 723.696 Q605.634 721.498 605.916 718.662 Q606.211 715.814 608.936 713.089 Q611.674 710.351 614.51 710.069 Q617.345 709.787 619.543 711.984 Q621.114 713.555 621.311 715.544 Q621.519 717.521 620.328 719.497 Q622.538 718.122 624.748 718.343 Q626.97 718.552 628.725 720.307 Q631.389 722.971 631.181 726.028 Q630.984 729.072 627.952 732.105 Q624.92 735.137 621.863 735.346 Q618.819 735.542 616.155 732.878 Q614.399 731.123 614.19 728.901 Q613.982 726.679 615.357 724.469 M610.532 721.461 Q611.956 722.885 613.638 722.799 Q615.332 722.701 616.94 721.093 Q618.536 719.497 618.634 717.803 Q618.745 716.097 617.321 714.673 Q615.897 713.249 614.19 713.359 Q612.496 713.457 610.9 715.053 Q609.292 716.661 609.194 718.355 Q609.108 720.037 610.532 721.461 Z" fill="#000000" fill-rule="nonzero" fill-opacity="1" /><path clip-path="url(#clip320)" d="M637.982 720.602 L635.723 718.343 Q637.098 717.852 638.288 717.128 Q639.479 716.404 640.4 715.483 Q642.855 713.028 642.499 710.094 Q642.143 707.135 638.964 703.587 Q639.307 705.355 638.779 707.012 Q638.252 708.67 636.926 709.995 Q634.176 712.745 630.91 712.696 Q627.645 712.622 624.76 709.738 Q621.937 706.914 621.9 703.538 Q621.863 700.162 624.637 697.388 Q627.817 694.208 631.929 694.982 Q636.042 695.731 640.682 700.371 Q645.016 704.704 645.544 709.357 Q646.071 713.985 642.597 717.459 Q641.664 718.392 640.523 719.166 Q639.381 719.939 637.982 720.602 M635.146 707.896 Q636.815 706.227 636.643 704.115 Q636.484 701.991 634.495 700.003 Q632.519 698.026 630.395 697.867 Q628.271 697.682 626.602 699.352 Q624.932 701.022 625.104 703.158 Q625.276 705.269 627.252 707.246 Q629.241 709.234 631.352 709.406 Q633.476 709.566 635.146 707.896 Z" fill="#000000" fill-rule="nonzero" fill-opacity="1" /><path clip-path="url(#clip320)" d="M814.888 739.139 Q812.973 741.054 813.894 743.914 Q814.814 746.75 818.595 750.531 Q822.364 754.3 825.212 755.233 Q828.06 756.141 829.975 754.226 Q831.903 752.299 830.982 749.463 Q830.061 746.603 826.292 742.834 Q822.511 739.053 819.663 738.144 Q816.815 737.211 814.888 739.139 M812.924 737.175 Q816.005 734.093 820.068 734.916 Q824.132 735.714 828.772 740.354 Q833.4 744.982 834.211 749.058 Q835.021 753.109 831.939 756.19 Q828.858 759.272 824.795 758.474 Q820.731 757.651 816.103 753.023 Q811.463 748.383 810.653 744.332 Q809.842 740.256 812.924 737.175 Z" fill="#000000" fill-rule="nonzero" fill-opacity="1" /><path clip-path="url(#clip320)" d="M839.158 742.024 L841.748 739.433 L844.866 742.552 L842.276 745.142 L839.158 742.024 Z" fill="#000000" fill-rule="nonzero" fill-opacity="1" /><path clip-path="url(#clip320)" d="M849.961 736.696 L847.702 734.437 Q849.077 733.946 850.268 733.222 Q851.458 732.497 852.379 731.577 Q854.834 729.122 854.478 726.188 Q854.122 723.229 850.943 719.681 Q851.287 721.449 850.759 723.106 Q850.231 724.764 848.905 726.089 Q846.155 728.839 842.89 728.79 Q839.624 728.716 836.739 725.832 Q833.916 723.008 833.879 719.632 Q833.842 716.256 836.617 713.482 Q839.796 710.302 843.909 711.076 Q848.021 711.825 852.661 716.465 Q856.995 720.798 857.523 725.451 Q858.051 730.079 854.577 733.553 Q853.644 734.486 852.502 735.26 Q851.36 736.033 849.961 736.696 M847.125 723.99 Q848.795 722.321 848.623 720.209 Q848.463 718.085 846.474 716.097 Q844.498 714.12 842.374 713.961 Q840.25 713.776 838.581 715.446 Q836.911 717.116 837.083 719.252 Q837.255 721.363 839.231 723.339 Q841.22 725.328 843.332 725.5 Q845.455 725.66 847.125 723.99 Z" fill="#000000" fill-rule="nonzero" fill-opacity="1" /><path clip-path="url(#clip320)" d="M854.871 699.156 Q852.956 701.071 853.877 703.931 Q854.798 706.767 858.579 710.548 Q862.347 714.317 865.195 715.25 Q868.043 716.158 869.959 714.243 Q871.886 712.316 870.965 709.48 Q870.044 706.619 866.276 702.851 Q862.495 699.07 859.647 698.161 Q856.799 697.228 854.871 699.156 M852.907 697.191 Q855.988 694.11 860.052 694.933 Q864.115 695.731 868.755 700.371 Q873.384 704.999 874.194 709.075 Q875.004 713.126 871.923 716.207 Q868.841 719.288 864.778 718.49 Q860.715 717.668 856.087 713.04 Q851.446 708.399 850.636 704.348 Q849.826 700.273 852.907 697.191 Z" fill="#000000" fill-rule="nonzero" fill-opacity="1" /><path clip-path="url(#clip320)" d="M1043.61 738.488 Q1041.7 740.403 1042.62 743.264 Q1043.54 746.099 1047.32 749.88 Q1051.09 753.649 1053.94 754.582 Q1056.78 755.491 1058.7 753.576 Q1060.63 751.648 1059.71 748.812 Q1058.79 745.952 1055.02 742.183 Q1051.24 738.402 1048.39 737.494 Q1045.54 736.561 1043.61 738.488 M1041.65 736.524 Q1044.73 733.443 1048.79 734.265 Q1052.86 735.063 1057.5 739.704 Q1062.12 744.332 1062.93 748.407 Q1063.74 752.458 1060.66 755.54 Q1057.58 758.621 1053.52 757.823 Q1049.46 757.001 1044.83 752.372 Q1040.19 747.732 1039.38 743.681 Q1038.57 739.605 1041.65 736.524 Z" fill="#000000" fill-rule="nonzero" fill-opacity="1" /><path clip-path="url(#clip320)" d="M1067.88 741.373 L1070.47 738.783 L1073.59 741.901 L1071 744.491 L1067.88 741.373 Z" fill="#000000" fill-rule="nonzero" fill-opacity="1" /><path clip-path="url(#clip320)" d="M1078.68 736.045 L1076.43 733.786 Q1077.8 733.295 1078.99 732.571 Q1080.18 731.847 1081.1 730.926 Q1083.56 728.471 1083.2 725.537 Q1082.85 722.578 1079.67 719.031 Q1080.01 720.798 1079.48 722.456 Q1078.95 724.113 1077.63 725.439 Q1074.88 728.189 1071.61 728.139 Q1068.35 728.066 1065.46 725.181 Q1062.64 722.357 1062.6 718.981 Q1062.57 715.606 1065.34 712.831 Q1068.52 709.652 1072.63 710.425 Q1076.74 711.174 1081.39 715.814 Q1085.72 720.148 1086.25 724.8 Q1086.77 729.428 1083.3 732.903 Q1082.37 733.836 1081.23 734.609 Q1080.08 735.382 1078.68 736.045 M1075.85 723.339 Q1077.52 721.67 1077.35 719.558 Q1077.19 717.435 1075.2 715.446 Q1073.22 713.47 1071.1 713.31 Q1068.97 713.126 1067.3 714.795 Q1065.64 716.465 1065.81 718.601 Q1065.98 720.712 1067.96 722.689 Q1069.94 724.678 1072.06 724.849 Q1074.18 725.009 1075.85 723.339 Z" fill="#000000" fill-rule="nonzero" fill-opacity="1" /><path clip-path="url(#clip320)" d="M1093.33 717.987 L1097.38 713.936 L1083.4 699.954 L1079.88 705.245 L1077.62 702.986 L1081.12 697.719 L1083.6 695.24 L1099.84 711.481 L1103.89 707.43 L1105.97 709.517 L1095.42 720.074 L1093.33 717.987 Z" fill="#000000" fill-rule="nonzero" fill-opacity="1" /><polyline clip-path="url(#clip320)" style="stroke:#000000; stroke-linecap:round; stroke-linejoin:round; stroke-width:4; stroke-opacity:1; fill:none" points="128.138,667.406 128.138,97.5521 "/>
<polyline clip-path="url(#clip320)" style="stroke:#000000; stroke-linecap:round; stroke-linejoin:round; stroke-width:4; stroke-opacity:1; fill:none" points="128.138,667.406 147.035,667.406 "/>
<polyline clip-path="url(#clip320)" style="stroke:#000000; stroke-linecap:round; stroke-linejoin:round; stroke-width:4; stroke-opacity:1; fill:none" points="128.138,559.887 147.035,559.887 "/>
<polyline clip-path="url(#clip320)" style="stroke:#000000; stroke-linecap:round; stroke-linejoin:round; stroke-width:4; stroke-opacity:1; fill:none" points="128.138,452.367 147.035,452.367 "/>
<polyline clip-path="url(#clip320)" style="stroke:#000000; stroke-linecap:round; stroke-linejoin:round; stroke-width:4; stroke-opacity:1; fill:none" points="128.138,344.847 147.035,344.847 "/>
<polyline clip-path="url(#clip320)" style="stroke:#000000; stroke-linecap:round; stroke-linejoin:round; stroke-width:4; stroke-opacity:1; fill:none" points="128.138,237.328 147.035,237.328 "/>
<polyline clip-path="url(#clip320)" style="stroke:#000000; stroke-linecap:round; stroke-linejoin:round; stroke-width:4; stroke-opacity:1; fill:none" points="128.138,129.808 147.035,129.808 "/>
<path clip-path="url(#clip320)" d="M83.1795 656.755 Q80.4711 656.755 79.0996 659.429 Q77.7455 662.085 77.7455 667.432 Q77.7455 672.762 79.0996 675.436 Q80.4711 678.092 83.1795 678.092 Q85.9051 678.092 87.2593 675.436 Q88.6308 672.762 88.6308 667.432 Q88.6308 662.085 87.2593 659.429 Q85.9051 656.755 83.1795 656.755 M83.1795 653.978 Q87.5371 653.978 89.8287 657.432 Q92.1377 660.87 92.1377 667.432 Q92.1377 673.978 89.8287 677.432 Q87.5371 680.87 83.1795 680.87 Q78.8218 680.87 76.5128 677.432 Q74.2212 673.978 74.2212 667.432 Q74.2212 660.87 76.5128 657.432 Q78.8218 653.978 83.1795 653.978 Z" fill="#000000" fill-rule="nonzero" fill-opacity="1" /><path clip-path="url(#clip320)" d="M53.6657 569.895 L59.3949 569.895 L59.3949 550.121 L53.1623 551.371 L53.1623 548.177 L59.3601 546.927 L62.8671 546.927 L62.8671 569.895 L68.5962 569.895 L68.5962 572.847 L53.6657 572.847 L53.6657 569.895 Z" fill="#000000" fill-rule="nonzero" fill-opacity="1" /><path clip-path="url(#clip320)" d="M83.1795 549.236 Q80.4711 549.236 79.0996 551.909 Q77.7455 554.566 77.7455 559.913 Q77.7455 565.243 79.0996 567.916 Q80.4711 570.572 83.1795 570.572 Q85.9051 570.572 87.2593 567.916 Q88.6308 565.243 88.6308 559.913 Q88.6308 554.566 87.2593 551.909 Q85.9051 549.236 83.1795 549.236 M83.1795 546.458 Q87.5371 546.458 89.8287 549.913 Q92.1377 553.35 92.1377 559.913 Q92.1377 566.458 89.8287 569.913 Q87.5371 573.35 83.1795 573.35 Q78.8218 573.35 76.5128 569.913 Q74.2212 566.458 74.2212 559.913 Q74.2212 553.35 76.5128 549.913 Q78.8218 546.458 83.1795 546.458 Z" fill="#000000" fill-rule="nonzero" fill-opacity="1" /><path clip-path="url(#clip320)" d="M56.0789 462.376 L68.3184 462.376 L68.3184 465.327 L51.8602 465.327 L51.8602 462.376 Q53.8567 460.31 57.2942 456.837 Q60.749 453.348 61.6344 452.341 Q63.3184 450.449 63.9782 449.147 Q64.6552 447.827 64.6552 446.56 Q64.6552 444.494 63.1969 443.192 Q61.756 441.89 59.4296 441.89 Q57.7803 441.89 55.94 442.463 Q54.1171 443.035 52.0338 444.199 L52.0338 440.657 Q54.1518 439.806 55.9921 439.372 Q57.8324 438.938 59.3601 438.938 Q63.3879 438.938 65.7837 440.952 Q68.1795 442.966 68.1795 446.334 Q68.1795 447.931 67.5719 449.372 Q66.9816 450.796 65.4018 452.74 Q64.9677 453.244 62.6414 455.657 Q60.315 458.053 56.0789 462.376 Z" fill="#000000" fill-rule="nonzero" fill-opacity="1" /><path clip-path="url(#clip320)" d="M83.1795 441.716 Q80.4711 441.716 79.0996 444.39 Q77.7455 447.046 77.7455 452.393 Q77.7455 457.723 79.0996 460.396 Q80.4711 463.053 83.1795 463.053 Q85.9051 463.053 87.2593 460.396 Q88.6308 457.723 88.6308 452.393 Q88.6308 447.046 87.2593 444.39 Q85.9051 441.716 83.1795 441.716 M83.1795 438.938 Q87.5371 438.938 89.8287 442.393 Q92.1377 445.831 92.1377 452.393 Q92.1377 458.938 89.8287 462.393 Q87.5371 465.83 83.1795 465.83 Q78.8218 465.83 76.5128 462.393 Q74.2212 458.938 74.2212 452.393 Q74.2212 445.831 76.5128 442.393 Q78.8218 438.938 83.1795 438.938 Z" fill="#000000" fill-rule="nonzero" fill-opacity="1" /><path clip-path="url(#clip320)" d="M63.683 343.832 Q66.2004 344.37 67.6066 346.071 Q69.0302 347.773 69.0302 350.273 Q69.0302 354.109 66.3913 356.21 Q63.7525 358.311 58.8914 358.311 Q57.2595 358.311 55.5234 357.981 Q53.8046 357.668 51.9643 357.026 L51.9643 353.641 Q53.4227 354.491 55.1588 354.925 Q56.8949 355.359 58.7872 355.359 Q62.0858 355.359 63.8046 354.057 Q65.5407 352.755 65.5407 350.273 Q65.5407 347.981 63.9261 346.696 Q62.3289 345.394 59.4643 345.394 L56.4435 345.394 L56.4435 342.512 L59.6032 342.512 Q62.19 342.512 63.5615 341.488 Q64.933 340.446 64.933 338.502 Q64.933 336.505 63.5094 335.446 Q62.1032 334.37 59.4643 334.37 Q58.0233 334.37 56.374 334.682 Q54.7247 334.995 52.7456 335.655 L52.7456 332.53 Q54.7421 331.974 56.4782 331.696 Q58.2317 331.419 59.7768 331.419 Q63.7698 331.419 66.0962 333.242 Q68.4226 335.047 68.4226 338.137 Q68.4226 340.29 67.19 341.783 Q65.9573 343.259 63.683 343.832 Z" fill="#000000" fill-rule="nonzero" fill-opacity="1" /><path clip-path="url(#clip320)" d="M83.1795 334.196 Q80.4711 334.196 79.0996 336.87 Q77.7455 339.526 77.7455 344.873 Q77.7455 350.203 79.0996 352.877 Q80.4711 355.533 83.1795 355.533 Q85.9051 355.533 87.2593 352.877 Q88.6308 350.203 88.6308 344.873 Q88.6308 339.526 87.2593 336.87 Q85.9051 334.196 83.1795 334.196 M83.1795 331.419 Q87.5371 331.419 89.8287 334.873 Q92.1377 338.311 92.1377 344.873 Q92.1377 351.419 89.8287 354.873 Q87.5371 358.311 83.1795 358.311 Q78.8218 358.311 76.5128 354.873 Q74.2212 351.419 74.2212 344.873 Q74.2212 338.311 76.5128 334.873 Q78.8218 331.419 83.1795 331.419 Z" fill="#000000" fill-rule="nonzero" fill-opacity="1" /><path clip-path="url(#clip320)" d="M62.6935 227.423 L53.8393 241.26 L62.6935 241.26 L62.6935 227.423 M61.7733 224.368 L66.183 224.368 L66.183 241.26 L69.8809 241.26 L69.8809 244.177 L66.183 244.177 L66.183 250.288 L62.6935 250.288 L62.6935 244.177 L50.9921 244.177 L50.9921 240.791 L61.7733 224.368 Z" fill="#000000" fill-rule="nonzero" fill-opacity="1" /><path clip-path="url(#clip320)" d="M83.1795 226.677 Q80.4711 226.677 79.0996 229.35 Q77.7455 232.007 77.7455 237.354 Q77.7455 242.684 79.0996 245.357 Q80.4711 248.013 83.1795 248.013 Q85.9051 248.013 87.2593 245.357 Q88.6308 242.684 88.6308 237.354 Q88.6308 232.007 87.2593 229.35 Q85.9051 226.677 83.1795 226.677 M83.1795 223.899 Q87.5371 223.899 89.8287 227.354 Q92.1377 230.791 92.1377 237.354 Q92.1377 243.899 89.8287 247.354 Q87.5371 250.791 83.1795 250.791 Q78.8218 250.791 76.5128 247.354 Q74.2212 243.899 74.2212 237.354 Q74.2212 230.791 76.5128 227.354 Q78.8218 223.899 83.1795 223.899 Z" fill="#000000" fill-rule="nonzero" fill-opacity="1" /><path clip-path="url(#clip320)" d="M53.0928 116.848 L66.8601 116.848 L66.8601 119.799 L56.3046 119.799 L56.3046 126.154 Q57.0685 125.893 57.8324 125.772 Q58.5963 125.633 59.3601 125.633 Q63.7004 125.633 66.2351 128.011 Q68.7698 130.39 68.7698 134.452 Q68.7698 138.636 66.1657 140.962 Q63.5615 143.271 58.8219 143.271 Q57.19 143.271 55.4886 142.994 Q53.8046 142.716 51.9991 142.16 L51.9991 138.636 Q53.5616 139.487 55.2282 139.903 Q56.8949 140.32 58.7525 140.32 Q61.756 140.32 63.5094 138.74 Q65.2629 137.16 65.2629 134.452 Q65.2629 131.744 63.5094 130.164 Q61.756 128.584 58.7525 128.584 Q57.3463 128.584 55.94 128.897 Q54.5511 129.209 53.0928 129.869 L53.0928 116.848 Z" fill="#000000" fill-rule="nonzero" fill-opacity="1" /><path clip-path="url(#clip320)" d="M83.1795 119.157 Q80.4711 119.157 79.0996 121.831 Q77.7455 124.487 77.7455 129.834 Q77.7455 135.164 79.0996 137.837 Q80.4711 140.494 83.1795 140.494 Q85.9051 140.494 87.2593 137.837 Q88.6308 135.164 88.6308 129.834 Q88.6308 124.487 87.2593 121.831 Q85.9051 119.157 83.1795 119.157 M83.1795 116.379 Q87.5371 116.379 89.8287 119.834 Q92.1377 123.272 92.1377 129.834 Q92.1377 136.379 89.8287 139.834 Q87.5371 143.271 83.1795 143.271 Q78.8218 143.271 76.5128 139.834 Q74.2212 136.379 74.2212 129.834 Q74.2212 123.272 76.5128 119.834 Q78.8218 116.379 83.1795 116.379 Z" fill="#000000" fill-rule="nonzero" fill-opacity="1" /><path clip-path="url(#clip320)" d="M130.221 20.1758 Q131.633 17.8147 135.128 15.7314 Q136.494 14.9212 140.707 14.9212 Q145.429 14.9212 148.369 18.6712 Q151.332 22.4212 151.332 28.5323 Q151.332 34.6433 148.369 38.3933 Q145.429 42.1433 140.707 42.1433 Q137.86 42.1433 135.8 41.0322 Q133.763 39.8979 132.42 37.5831 L132.42 51.3331 L128.138 51.3331 L128.138 28.7637 Q128.138 23.4165 130.221 20.1758 M146.911 28.5323 Q146.911 23.8332 144.966 21.1712 Q143.045 18.486 139.665 18.486 Q136.286 18.486 134.341 21.1712 Q132.42 23.8332 132.42 28.5323 Q132.42 33.2313 134.341 35.9165 Q136.286 38.5785 139.665 38.5785 Q143.045 38.5785 144.966 35.9165 Q146.911 33.2313 146.911 28.5323 Z" fill="#000000" fill-rule="nonzero" fill-opacity="1" /><path clip-path="url(#clip322)" d="M184.517 592.143 L184.517 667.406 L298.554 667.406 L298.554 592.143 L184.517 592.143 L184.517 592.143  Z" fill="#009af9" fill-rule="evenodd" fill-opacity="1"/>
<polyline clip-path="url(#clip322)" style="stroke:#000000; stroke-linecap:round; stroke-linejoin:round; stroke-width:4; stroke-opacity:1; fill:none" points="184.517,592.143 184.517,667.406 298.554,667.406 298.554,592.143 184.517,592.143 "/>
<path clip-path="url(#clip322)" d="M298.554 516.879 L298.554 667.406 L412.591 667.406 L412.591 516.879 L298.554 516.879 L298.554 516.879  Z" fill="#009af9" fill-rule="evenodd" fill-opacity="1"/>
<polyline clip-path="url(#clip322)" style="stroke:#000000; stroke-linecap:round; stroke-linejoin:round; stroke-width:4; stroke-opacity:1; fill:none" points="298.554,516.879 298.554,667.406 412.591,667.406 412.591,516.879 298.554,516.879 "/>
<path clip-path="url(#clip322)" d="M412.591 334.095 L412.591 667.406 L526.627 667.406 L526.627 334.095 L412.591 334.095 L412.591 334.095  Z" fill="#009af9" fill-rule="evenodd" fill-opacity="1"/>
<polyline clip-path="url(#clip322)" style="stroke:#000000; stroke-linecap:round; stroke-linejoin:round; stroke-width:4; stroke-opacity:1; fill:none" points="412.591,334.095 412.591,667.406 526.627,667.406 526.627,334.095 412.591,334.095 "/>
<path clip-path="url(#clip322)" d="M526.627 97.5521 L526.627 667.406 L640.664 667.406 L640.664 97.5521 L526.627 97.5521 L526.627 97.5521  Z" fill="#009af9" fill-rule="evenodd" fill-opacity="1"/>
<polyline clip-path="url(#clip322)" style="stroke:#000000; stroke-linecap:round; stroke-linejoin:round; stroke-width:4; stroke-opacity:1; fill:none" points="526.627,97.5521 526.627,667.406 640.664,667.406 640.664,97.5521 526.627,97.5521 "/>
<path clip-path="url(#clip322)" d="M640.664 205.072 L640.664 667.406 L754.7 667.406 L754.7 205.072 L640.664 205.072 L640.664 205.072  Z" fill="#009af9" fill-rule="evenodd" fill-opacity="1"/>
<polyline clip-path="url(#clip322)" style="stroke:#000000; stroke-linecap:round; stroke-linejoin:round; stroke-width:4; stroke-opacity:1; fill:none" points="640.664,205.072 640.664,667.406 754.7,667.406 754.7,205.072 640.664,205.072 "/>
<path clip-path="url(#clip322)" d="M754.7 344.847 L754.7 667.406 L868.737 667.406 L868.737 344.847 L754.7 344.847 L754.7 344.847  Z" fill="#009af9" fill-rule="evenodd" fill-opacity="1"/>
<polyline clip-path="url(#clip322)" style="stroke:#000000; stroke-linecap:round; stroke-linejoin:round; stroke-width:4; stroke-opacity:1; fill:none" points="754.7,344.847 754.7,667.406 868.737,667.406 868.737,344.847 754.7,344.847 "/>
<path clip-path="url(#clip322)" d="M868.737 527.631 L868.737 667.406 L982.774 667.406 L982.774 527.631 L868.737 527.631 L868.737 527.631  Z" fill="#009af9" fill-rule="evenodd" fill-opacity="1"/>
<polyline clip-path="url(#clip322)" style="stroke:#000000; stroke-linecap:round; stroke-linejoin:round; stroke-width:4; stroke-opacity:1; fill:none" points="868.737,527.631 868.737,667.406 982.774,667.406 982.774,527.631 868.737,527.631 "/>
<path clip-path="url(#clip322)" d="M982.774 613.647 L982.774 667.406 L1096.81 667.406 L1096.81 613.647 L982.774 613.647 L982.774 613.647  Z" fill="#009af9" fill-rule="evenodd" fill-opacity="1"/>
<polyline clip-path="url(#clip322)" style="stroke:#000000; stroke-linecap:round; stroke-linejoin:round; stroke-width:4; stroke-opacity:1; fill:none" points="982.774,613.647 982.774,667.406 1096.81,667.406 1096.81,613.647 982.774,613.647 "/>
<circle clip-path="url(#clip322)" style="fill:#009af9; stroke:none; fill-opacity:0" cx="241.536" cy="592.143" r="2"/>
<circle clip-path="url(#clip322)" style="fill:#009af9; stroke:none; fill-opacity:0" cx="355.572" cy="516.879" r="2"/>
<circle clip-path="url(#clip322)" style="fill:#009af9; stroke:none; fill-opacity:0" cx="469.609" cy="334.095" r="2"/>
<circle clip-path="url(#clip322)" style="fill:#009af9; stroke:none; fill-opacity:0" cx="583.646" cy="97.5521" r="2"/>
<circle clip-path="url(#clip322)" style="fill:#009af9; stroke:none; fill-opacity:0" cx="697.682" cy="205.072" r="2"/>
<circle clip-path="url(#clip322)" style="fill:#009af9; stroke:none; fill-opacity:0" cx="811.719" cy="344.847" r="2"/>
<circle clip-path="url(#clip322)" style="fill:#009af9; stroke:none; fill-opacity:0" cx="925.755" cy="527.631" r="2"/>
<circle clip-path="url(#clip322)" style="fill:#009af9; stroke:none; fill-opacity:0" cx="1039.79" cy="613.647" r="2"/>
<polyline clip-path="url(#clip322)" style="stroke:#ff0000; stroke-linecap:round; stroke-linejoin:round; stroke-width:8; stroke-opacity:1; fill:none" stroke-dasharray="32, 20" points="661.163,1237.26 661.163,-472.302 "/>
<polyline clip-path="url(#clip322)" style="stroke:#ff0000; stroke-linecap:round; stroke-linejoin:round; stroke-width:6; stroke-opacity:1; fill:none" stroke-dasharray="24, 12, 3, 12" points="375.958,1237.26 375.958,-472.302 "/>
<polyline clip-path="url(#clip322)" style="stroke:#ff0000; stroke-linecap:round; stroke-linejoin:round; stroke-width:6; stroke-opacity:1; fill:none" stroke-dasharray="24, 12, 3, 12" points="1075.83,1237.26 1075.83,-472.302 "/>
<path clip-path="url(#clip320)" d="M1327.7 667.406 L2352.76 667.406 L2352.76 97.5521 L1327.7 97.5521  Z" fill="#ffffff" fill-rule="evenodd" fill-opacity="1"/>
<defs>
  <clipPath id="clip323">
    <rect x="1327" y="97" width="1026" height="571"/>
  </clipPath>
</defs>
<polyline clip-path="url(#clip323)" style="stroke:#000000; stroke-linecap:round; stroke-linejoin:round; stroke-width:2; stroke-opacity:0.1; fill:none" points="1384.08,667.406 1384.08,97.5521 "/>
<polyline clip-path="url(#clip323)" style="stroke:#000000; stroke-linecap:round; stroke-linejoin:round; stroke-width:2; stroke-opacity:0.1; fill:none" points="1524.44,667.406 1524.44,97.5521 "/>
<polyline clip-path="url(#clip323)" style="stroke:#000000; stroke-linecap:round; stroke-linejoin:round; stroke-width:2; stroke-opacity:0.1; fill:none" points="1664.79,667.406 1664.79,97.5521 "/>
<polyline clip-path="url(#clip323)" style="stroke:#000000; stroke-linecap:round; stroke-linejoin:round; stroke-width:2; stroke-opacity:0.1; fill:none" points="1805.14,667.406 1805.14,97.5521 "/>
<polyline clip-path="url(#clip323)" style="stroke:#000000; stroke-linecap:round; stroke-linejoin:round; stroke-width:2; stroke-opacity:0.1; fill:none" points="1945.49,667.406 1945.49,97.5521 "/>
<polyline clip-path="url(#clip323)" style="stroke:#000000; stroke-linecap:round; stroke-linejoin:round; stroke-width:2; stroke-opacity:0.1; fill:none" points="2085.85,667.406 2085.85,97.5521 "/>
<polyline clip-path="url(#clip323)" style="stroke:#000000; stroke-linecap:round; stroke-linejoin:round; stroke-width:2; stroke-opacity:0.1; fill:none" points="2226.2,667.406 2226.2,97.5521 "/>
<polyline clip-path="url(#clip323)" style="stroke:#000000; stroke-linecap:round; stroke-linejoin:round; stroke-width:2; stroke-opacity:0.1; fill:none" points="1327.7,667.406 2352.76,667.406 "/>
<polyline clip-path="url(#clip323)" style="stroke:#000000; stroke-linecap:round; stroke-linejoin:round; stroke-width:2; stroke-opacity:0.1; fill:none" points="1327.7,509.114 2352.76,509.114 "/>
<polyline clip-path="url(#clip323)" style="stroke:#000000; stroke-linecap:round; stroke-linejoin:round; stroke-width:2; stroke-opacity:0.1; fill:none" points="1327.7,350.821 2352.76,350.821 "/>
<polyline clip-path="url(#clip323)" style="stroke:#000000; stroke-linecap:round; stroke-linejoin:round; stroke-width:2; stroke-opacity:0.1; fill:none" points="1327.7,192.528 2352.76,192.528 "/>
<polyline clip-path="url(#clip320)" style="stroke:#000000; stroke-linecap:round; stroke-linejoin:round; stroke-width:4; stroke-opacity:1; fill:none" points="1327.7,667.406 2352.76,667.406 "/>
<polyline clip-path="url(#clip320)" style="stroke:#000000; stroke-linecap:round; stroke-linejoin:round; stroke-width:4; stroke-opacity:1; fill:none" points="1384.08,667.406 1384.08,648.509 "/>
<polyline clip-path="url(#clip320)" style="stroke:#000000; stroke-linecap:round; stroke-linejoin:round; stroke-width:4; stroke-opacity:1; fill:none" points="1524.44,667.406 1524.44,648.509 "/>
<polyline clip-path="url(#clip320)" style="stroke:#000000; stroke-linecap:round; stroke-linejoin:round; stroke-width:4; stroke-opacity:1; fill:none" points="1664.79,667.406 1664.79,648.509 "/>
<polyline clip-path="url(#clip320)" style="stroke:#000000; stroke-linecap:round; stroke-linejoin:round; stroke-width:4; stroke-opacity:1; fill:none" points="1805.14,667.406 1805.14,648.509 "/>
<polyline clip-path="url(#clip320)" style="stroke:#000000; stroke-linecap:round; stroke-linejoin:round; stroke-width:4; stroke-opacity:1; fill:none" points="1945.49,667.406 1945.49,648.509 "/>
<polyline clip-path="url(#clip320)" style="stroke:#000000; stroke-linecap:round; stroke-linejoin:round; stroke-width:4; stroke-opacity:1; fill:none" points="2085.85,667.406 2085.85,648.509 "/>
<polyline clip-path="url(#clip320)" style="stroke:#000000; stroke-linecap:round; stroke-linejoin:round; stroke-width:4; stroke-opacity:1; fill:none" points="2226.2,667.406 2226.2,648.509 "/>
<path clip-path="url(#clip320)" d="M1330.33 739.041 Q1328.42 740.956 1329.34 743.816 Q1330.26 746.652 1334.04 750.433 Q1337.81 754.202 1340.66 755.135 Q1343.5 756.043 1345.42 754.128 Q1347.35 752.201 1346.43 749.365 Q1345.51 746.504 1341.74 742.736 Q1337.96 738.955 1335.11 738.046 Q1332.26 737.113 1330.33 739.041 M1328.37 737.076 Q1331.45 733.995 1335.51 734.818 Q1339.58 735.616 1344.22 740.256 Q1348.84 744.884 1349.66 748.96 Q1350.47 753.011 1347.38 756.092 Q1344.3 759.173 1340.24 758.375 Q1336.18 757.553 1331.55 752.925 Q1326.91 748.285 1326.1 744.233 Q1325.29 740.158 1328.37 737.076 Z" fill="#000000" fill-rule="nonzero" fill-opacity="1" /><path clip-path="url(#clip320)" d="M1354.6 741.926 L1357.19 739.335 L1360.31 742.453 L1357.72 745.044 L1354.6 741.926 Z" fill="#000000" fill-rule="nonzero" fill-opacity="1" /><path clip-path="url(#clip320)" d="M1365.76 732.829 L1374.42 724.174 L1376.5 726.261 L1364.87 737.899 L1362.78 735.812 Q1362.73 732.939 1362.7 728.054 Q1362.68 723.143 1362.59 721.805 Q1362.45 719.276 1361.99 717.889 Q1361.54 716.477 1360.64 715.581 Q1359.18 714.12 1357.23 714.231 Q1355.29 714.329 1353.64 715.974 Q1352.48 717.14 1351.58 718.846 Q1350.7 720.541 1350.05 722.836 L1347.54 720.332 Q1348.44 718.233 1349.43 716.624 Q1350.43 715.016 1351.51 713.936 Q1354.36 711.088 1357.47 710.818 Q1360.59 710.548 1362.97 712.929 Q1364.1 714.059 1364.69 715.507 Q1365.28 716.931 1365.54 719.423 Q1365.59 720.086 1365.65 723.438 Q1365.7 726.777 1365.76 732.829 Z" fill="#000000" fill-rule="nonzero" fill-opacity="1" /><path clip-path="url(#clip320)" d="M1381.4 720.602 L1379.14 718.343 Q1380.52 717.852 1381.71 717.128 Q1382.9 716.404 1383.82 715.483 Q1386.27 713.028 1385.92 710.094 Q1385.56 707.135 1382.38 703.587 Q1382.73 705.355 1382.2 707.012 Q1381.67 708.67 1380.35 709.995 Q1377.6 712.745 1374.33 712.696 Q1371.06 712.622 1368.18 709.738 Q1365.36 706.914 1365.32 703.538 Q1365.28 700.162 1368.06 697.388 Q1371.24 694.208 1375.35 694.982 Q1379.46 695.731 1384.1 700.371 Q1388.44 704.704 1388.96 709.357 Q1389.49 713.985 1386.02 717.459 Q1385.08 718.392 1383.94 719.166 Q1382.8 719.939 1381.4 720.602 M1378.57 707.896 Q1380.23 706.227 1380.06 704.115 Q1379.9 701.991 1377.91 700.003 Q1375.94 698.026 1373.81 697.867 Q1371.69 697.682 1370.02 699.352 Q1368.35 701.022 1368.52 703.158 Q1368.7 705.269 1370.67 707.246 Q1372.66 709.234 1374.77 709.406 Q1376.9 709.566 1378.57 707.896 Z" fill="#000000" fill-rule="nonzero" fill-opacity="1" /><path clip-path="url(#clip320)" d="M1470.59 739.139 Q1468.67 741.054 1469.59 743.914 Q1470.51 746.75 1474.29 750.531 Q1478.06 754.3 1480.91 755.233 Q1483.76 756.141 1485.67 754.226 Q1487.6 752.299 1486.68 749.463 Q1485.76 746.603 1481.99 742.834 Q1478.21 739.053 1475.36 738.144 Q1472.51 737.211 1470.59 739.139 M1468.62 737.175 Q1471.7 734.093 1475.77 734.916 Q1479.83 735.714 1484.47 740.354 Q1489.1 744.982 1489.91 749.058 Q1490.72 753.109 1487.64 756.19 Q1484.56 759.272 1480.49 758.474 Q1476.43 757.651 1471.8 753.023 Q1467.16 748.383 1466.35 744.332 Q1465.54 740.256 1468.62 737.175 Z" fill="#000000" fill-rule="nonzero" fill-opacity="1" /><path clip-path="url(#clip320)" d="M1494.86 742.024 L1497.45 739.433 L1500.57 742.552 L1497.98 745.142 L1494.86 742.024 Z" fill="#000000" fill-rule="nonzero" fill-opacity="1" /><path clip-path="url(#clip320)" d="M1503.6 719.755 Q1505.76 718.355 1507.96 718.564 Q1510.17 718.761 1511.93 720.528 Q1514.65 723.241 1514.27 726.593 Q1513.88 729.944 1510.45 733.381 Q1509.29 734.535 1507.83 735.53 Q1506.4 736.524 1504.64 737.371 L1502.25 734.977 Q1503.88 734.548 1505.41 733.627 Q1506.95 732.706 1508.29 731.368 Q1510.62 729.036 1510.91 726.9 Q1511.22 724.751 1509.47 722.996 Q1507.85 721.375 1505.79 721.609 Q1503.74 721.817 1501.72 723.843 L1499.58 725.979 L1497.55 723.941 L1499.78 721.707 Q1501.61 719.878 1501.85 718.184 Q1502.09 716.477 1500.71 715.102 Q1499.3 713.69 1497.55 713.948 Q1495.79 714.182 1493.92 716.047 Q1492.91 717.066 1491.96 718.454 Q1491.01 719.841 1490.08 721.707 L1487.87 719.497 Q1488.89 717.692 1489.92 716.268 Q1490.97 714.832 1492.06 713.74 Q1494.88 710.916 1497.82 710.56 Q1500.74 710.192 1502.92 712.377 Q1504.44 713.899 1504.63 715.827 Q1504.8 717.742 1503.6 719.755 Z" fill="#000000" fill-rule="nonzero" fill-opacity="1" /><path clip-path="url(#clip320)" d="M1510.57 699.156 Q1508.66 701.071 1509.58 703.931 Q1510.5 706.767 1514.28 710.548 Q1518.05 714.317 1520.89 715.25 Q1523.74 716.158 1525.66 714.243 Q1527.58 712.316 1526.66 709.48 Q1525.74 706.619 1521.97 702.851 Q1518.19 699.07 1515.35 698.161 Q1512.5 697.228 1510.57 699.156 M1508.61 697.191 Q1511.69 694.11 1515.75 694.933 Q1519.81 695.731 1524.45 700.371 Q1529.08 704.999 1529.89 709.075 Q1530.7 713.126 1527.62 716.207 Q1524.54 719.288 1520.48 718.49 Q1516.41 717.668 1511.79 713.04 Q1507.15 708.399 1506.34 704.348 Q1505.52 700.273 1508.61 697.191 Z" fill="#000000" fill-rule="nonzero" fill-opacity="1" /><path clip-path="url(#clip320)" d="M1611.59 738.488 Q1609.68 740.403 1610.6 743.264 Q1611.52 746.099 1615.3 749.88 Q1619.07 753.649 1621.91 754.582 Q1624.76 755.491 1626.68 753.576 Q1628.61 751.648 1627.68 748.812 Q1626.76 745.952 1622.99 742.183 Q1619.21 738.402 1616.37 737.494 Q1613.52 736.561 1611.59 738.488 M1609.63 736.524 Q1612.71 733.443 1616.77 734.265 Q1620.83 735.063 1625.47 739.704 Q1630.1 744.332 1630.91 748.407 Q1631.72 752.458 1628.64 755.54 Q1625.56 758.621 1621.5 757.823 Q1617.43 757.001 1612.81 752.372 Q1608.17 747.732 1607.36 743.681 Q1606.54 739.605 1609.63 736.524 Z" fill="#000000" fill-rule="nonzero" fill-opacity="1" /><path clip-path="url(#clip320)" d="M1635.86 741.373 L1638.45 738.783 L1641.57 741.901 L1638.98 744.491 L1635.86 741.373 Z" fill="#000000" fill-rule="nonzero" fill-opacity="1" /><path clip-path="url(#clip320)" d="M1644.6 719.104 Q1646.76 717.705 1648.96 717.913 Q1651.17 718.11 1652.94 719.878 Q1655.65 722.591 1655.27 725.942 Q1654.89 729.293 1651.45 732.731 Q1650.3 733.885 1648.84 734.879 Q1647.4 735.873 1645.64 736.72 L1643.25 734.327 Q1644.88 733.897 1646.42 732.976 Q1647.95 732.056 1649.29 730.717 Q1651.62 728.385 1651.92 726.249 Q1652.22 724.101 1650.47 722.345 Q1648.85 720.725 1646.8 720.958 Q1644.75 721.167 1642.72 723.192 L1640.59 725.328 L1638.55 723.29 L1640.78 721.056 Q1642.61 719.227 1642.86 717.533 Q1643.09 715.827 1641.72 714.452 Q1640.3 713.04 1638.55 713.298 Q1636.79 713.531 1634.93 715.397 Q1633.91 716.416 1632.96 717.803 Q1632.02 719.19 1631.08 721.056 L1628.88 718.846 Q1629.89 717.042 1630.93 715.618 Q1631.97 714.182 1633.06 713.089 Q1635.88 710.265 1638.82 709.909 Q1641.74 709.541 1643.93 711.726 Q1645.45 713.249 1645.63 715.176 Q1645.8 717.091 1644.6 719.104 Z" fill="#000000" fill-rule="nonzero" fill-opacity="1" /><path clip-path="url(#clip320)" d="M1661.31 717.987 L1665.36 713.936 L1651.38 699.954 L1647.85 705.245 L1645.6 702.986 L1649.09 697.719 L1651.57 695.24 L1667.81 711.481 L1671.87 707.43 L1673.95 709.517 L1663.4 720.074 L1661.31 717.987 Z" fill="#000000" fill-rule="nonzero" fill-opacity="1" /><path clip-path="url(#clip320)" d="M1752.14 738.292 Q1750.22 740.207 1751.15 743.067 Q1752.07 745.903 1755.85 749.684 Q1759.62 753.453 1762.46 754.386 Q1765.31 755.294 1767.23 753.379 Q1769.15 751.452 1768.23 748.616 Q1767.31 745.756 1763.54 741.987 Q1759.76 738.206 1756.91 737.297 Q1754.07 736.364 1752.14 738.292 M1750.18 736.328 Q1753.26 733.246 1757.32 734.069 Q1761.38 734.867 1766.02 739.507 Q1770.65 744.135 1771.46 748.211 Q1772.27 752.262 1769.19 755.343 Q1766.11 758.425 1762.05 757.627 Q1757.98 756.804 1753.35 752.176 Q1748.71 747.536 1747.9 743.485 Q1747.09 739.409 1750.18 736.328 Z" fill="#000000" fill-rule="nonzero" fill-opacity="1" /><path clip-path="url(#clip320)" d="M1776.41 741.177 L1779 738.586 L1782.12 741.705 L1779.53 744.295 L1776.41 741.177 Z" fill="#000000" fill-rule="nonzero" fill-opacity="1" /><path clip-path="url(#clip320)" d="M1785.15 718.908 Q1787.31 717.508 1789.51 717.717 Q1791.72 717.913 1793.49 719.681 Q1796.2 722.394 1795.82 725.746 Q1795.44 729.097 1792 732.534 Q1790.85 733.688 1789.39 734.683 Q1787.95 735.677 1786.19 736.524 L1783.8 734.13 Q1785.43 733.701 1786.97 732.78 Q1788.5 731.859 1789.84 730.521 Q1792.17 728.189 1792.47 726.053 Q1792.77 723.904 1791.02 722.149 Q1789.4 720.528 1787.35 720.762 Q1785.3 720.97 1783.27 722.996 L1781.14 725.132 L1779.1 723.094 L1781.33 720.86 Q1783.16 719.031 1783.41 717.336 Q1783.64 715.63 1782.27 714.255 Q1780.85 712.843 1779.1 713.101 Q1777.34 713.334 1775.48 715.2 Q1774.46 716.219 1773.51 717.607 Q1772.57 718.994 1771.63 720.86 L1769.42 718.65 Q1770.44 716.845 1771.47 715.421 Q1772.52 713.985 1773.61 712.893 Q1776.43 710.069 1779.37 709.713 Q1782.29 709.345 1784.47 711.53 Q1786 713.052 1786.18 714.979 Q1786.35 716.895 1785.15 718.908 Z" fill="#000000" fill-rule="nonzero" fill-opacity="1" /><path clip-path="url(#clip320)" d="M1803.56 716.084 L1812.22 707.43 L1814.31 709.517 L1802.67 721.154 L1800.58 719.067 Q1800.53 716.195 1800.51 711.309 Q1800.48 706.398 1800.4 705.06 Q1800.25 702.532 1799.8 701.144 Q1799.34 699.733 1798.45 698.836 Q1796.98 697.376 1795.03 697.486 Q1793.09 697.584 1791.45 699.229 Q1790.28 700.395 1789.39 702.102 Q1788.5 703.796 1787.85 706.092 L1785.35 703.587 Q1786.24 701.488 1787.24 699.88 Q1788.23 698.272 1789.31 697.191 Q1792.16 694.343 1795.28 694.073 Q1798.4 693.803 1800.78 696.185 Q1801.91 697.314 1802.5 698.763 Q1803.09 700.187 1803.34 702.679 Q1803.39 703.342 1803.45 706.693 Q1803.5 710.032 1803.56 716.084 Z" fill="#000000" fill-rule="nonzero" fill-opacity="1" /><path clip-path="url(#clip320)" d="M1891.99 738.795 Q1890.07 740.71 1890.99 743.571 Q1891.92 746.406 1895.7 750.187 Q1899.47 753.956 1902.31 754.889 Q1905.16 755.797 1907.08 753.882 Q1909 751.955 1908.08 749.119 Q1907.16 746.259 1903.39 742.49 Q1899.61 738.709 1896.76 737.801 Q1893.92 736.868 1891.99 738.795 M1890.02 736.831 Q1893.11 733.75 1897.17 734.572 Q1901.23 735.37 1905.87 740.01 Q1910.5 744.639 1911.31 748.714 Q1912.12 752.765 1909.04 755.847 Q1905.96 758.928 1901.9 758.13 Q1897.83 757.307 1893.2 752.679 Q1888.56 748.039 1887.75 743.988 Q1886.94 739.912 1890.02 736.831 Z" fill="#000000" fill-rule="nonzero" fill-opacity="1" /><path clip-path="url(#clip320)" d="M1916.26 741.68 L1918.85 739.09 L1921.97 742.208 L1919.38 744.798 L1916.26 741.68 Z" fill="#000000" fill-rule="nonzero" fill-opacity="1" /><path clip-path="url(#clip320)" d="M1925 719.411 Q1927.16 718.012 1929.36 718.22 Q1931.57 718.417 1933.33 720.185 Q1936.05 722.898 1935.67 726.249 Q1935.29 729.6 1931.85 733.038 Q1930.7 734.192 1929.23 735.186 Q1927.8 736.18 1926.04 737.027 L1923.65 734.634 Q1925.28 734.204 1926.82 733.283 Q1928.35 732.362 1929.69 731.024 Q1932.02 728.692 1932.32 726.556 Q1932.62 724.408 1930.87 722.652 Q1929.25 721.032 1927.2 721.265 Q1925.15 721.474 1923.12 723.499 L1920.99 725.635 L1918.95 723.597 L1921.18 721.363 Q1923.01 719.534 1923.26 717.84 Q1923.49 716.133 1922.11 714.759 Q1920.7 713.347 1918.95 713.605 Q1917.19 713.838 1915.33 715.704 Q1914.31 716.723 1913.36 718.11 Q1912.42 719.497 1911.48 721.363 L1909.27 719.153 Q1910.29 717.349 1911.32 715.925 Q1912.37 714.488 1913.46 713.396 Q1916.28 710.572 1919.22 710.216 Q1922.14 709.848 1924.32 712.033 Q1925.85 713.555 1926.03 715.483 Q1926.2 717.398 1925 719.411 Z" fill="#000000" fill-rule="nonzero" fill-opacity="1" /><path clip-path="url(#clip320)" d="M1941 703.415 Q1943.16 702.016 1945.35 702.225 Q1947.56 702.421 1949.33 704.189 Q1952.04 706.902 1951.66 710.253 Q1951.28 713.605 1947.85 717.042 Q1946.69 718.196 1945.23 719.19 Q1943.79 720.185 1942.04 721.032 L1939.64 718.638 Q1941.28 718.208 1942.81 717.287 Q1944.35 716.367 1945.68 715.029 Q1948.02 712.696 1948.31 710.56 Q1948.62 708.412 1946.86 706.656 Q1945.24 705.036 1943.19 705.269 Q1941.14 705.478 1939.12 707.503 L1936.98 709.639 L1934.94 707.602 L1937.18 705.367 Q1939.01 703.538 1939.25 701.844 Q1939.49 700.138 1938.11 698.763 Q1936.7 697.351 1934.94 697.609 Q1933.19 697.842 1931.32 699.708 Q1930.3 700.727 1929.36 702.114 Q1928.41 703.501 1927.48 705.367 L1925.27 703.158 Q1926.29 701.353 1927.32 699.929 Q1928.36 698.493 1929.46 697.4 Q1932.28 694.577 1935.21 694.221 Q1938.13 693.852 1940.32 696.037 Q1941.84 697.56 1942.03 699.487 Q1942.2 701.402 1941 703.415 Z" fill="#000000" fill-rule="nonzero" fill-opacity="1" /><path clip-path="url(#clip320)" d="M2031.74 739.397 Q2029.83 741.312 2030.75 744.172 Q2031.67 747.008 2035.45 750.789 Q2039.22 754.558 2042.06 755.491 Q2044.91 756.399 2046.83 754.484 Q2048.75 752.557 2047.83 749.721 Q2046.91 746.86 2043.14 743.092 Q2039.36 739.311 2036.52 738.402 Q2033.67 737.469 2031.74 739.397 M2029.78 737.432 Q2032.86 734.351 2036.92 735.174 Q2040.98 735.972 2045.62 740.612 Q2050.25 745.24 2051.06 749.316 Q2051.87 753.367 2048.79 756.448 Q2045.71 759.529 2041.65 758.731 Q2037.58 757.909 2032.96 753.281 Q2028.32 748.641 2027.5 744.589 Q2026.69 740.514 2029.78 737.432 Z" fill="#000000" fill-rule="nonzero" fill-opacity="1" /><path clip-path="url(#clip320)" d="M2056.01 742.282 L2058.6 739.691 L2061.72 742.809 L2059.13 745.4 L2056.01 742.282 Z" fill="#000000" fill-rule="nonzero" fill-opacity="1" /><path clip-path="url(#clip320)" d="M2064.75 720.013 Q2066.91 718.613 2069.11 718.822 Q2071.32 719.018 2073.09 720.786 Q2075.8 723.499 2075.42 726.85 Q2075.04 730.202 2071.6 733.639 Q2070.45 734.793 2068.99 735.787 Q2067.55 736.782 2065.79 737.629 L2063.4 735.235 Q2065.03 734.805 2066.57 733.885 Q2068.1 732.964 2069.44 731.626 Q2071.77 729.293 2072.07 727.157 Q2072.37 725.009 2070.62 723.254 Q2069 721.633 2066.95 721.866 Q2064.9 722.075 2062.87 724.101 L2060.74 726.237 L2058.7 724.199 L2060.93 721.965 Q2062.76 720.135 2063.01 718.441 Q2063.24 716.735 2061.87 715.36 Q2060.45 713.948 2058.7 714.206 Q2056.94 714.439 2055.08 716.305 Q2054.06 717.324 2053.11 718.711 Q2052.17 720.099 2051.23 721.965 L2049.02 719.755 Q2050.04 717.95 2051.08 716.526 Q2052.12 715.09 2053.21 713.997 Q2056.03 711.174 2058.97 710.818 Q2061.89 710.45 2064.08 712.635 Q2065.6 714.157 2065.78 716.084 Q2065.95 717.999 2064.75 720.013 Z" fill="#000000" fill-rule="nonzero" fill-opacity="1" /><path clip-path="url(#clip320)" d="M2073.76 698.431 L2077.28 714.476 L2083.55 708.215 L2073.76 698.431 M2070.95 696.921 L2074.07 693.803 L2086.01 705.748 L2088.63 703.133 L2090.69 705.195 L2088.08 707.81 L2092.4 712.131 L2089.93 714.599 L2085.61 710.278 L2077.33 718.552 L2074.94 716.158 L2070.95 696.921 Z" fill="#000000" fill-rule="nonzero" fill-opacity="1" /><path clip-path="url(#clip320)" d="M2172.88 738.611 Q2170.96 740.526 2171.88 743.386 Q2172.8 746.222 2176.59 750.003 Q2180.35 753.772 2183.2 754.705 Q2186.05 755.613 2187.97 753.698 Q2189.89 751.771 2188.97 748.935 Q2188.05 746.075 2184.28 742.306 Q2180.5 738.525 2177.65 737.617 Q2174.81 736.684 2172.88 738.611 M2170.91 736.647 Q2174 733.565 2178.06 734.388 Q2182.12 735.186 2186.76 739.826 Q2191.39 744.454 2192.2 748.53 Q2193.01 752.581 2189.93 755.662 Q2186.85 758.744 2182.79 757.946 Q2178.72 757.123 2174.09 752.495 Q2169.45 747.855 2168.64 743.804 Q2167.83 739.728 2170.91 736.647 Z" fill="#000000" fill-rule="nonzero" fill-opacity="1" /><path clip-path="url(#clip320)" d="M2197.15 741.496 L2199.74 738.906 L2202.86 742.024 L2200.27 744.614 L2197.15 741.496 Z" fill="#000000" fill-rule="nonzero" fill-opacity="1" /><path clip-path="url(#clip320)" d="M2205.89 719.227 Q2208.05 717.828 2210.25 718.036 Q2212.46 718.233 2214.22 720 Q2216.94 722.713 2216.56 726.065 Q2216.18 729.416 2212.74 732.853 Q2211.59 734.007 2210.12 735.002 Q2208.69 735.996 2206.93 736.843 L2204.54 734.449 Q2206.17 734.02 2207.71 733.099 Q2209.24 732.178 2210.58 730.84 Q2212.91 728.508 2213.21 726.372 Q2213.51 724.223 2211.76 722.468 Q2210.14 720.847 2208.09 721.081 Q2206.04 721.289 2204.01 723.315 L2201.87 725.451 L2199.84 723.413 L2202.07 721.179 Q2203.9 719.35 2204.15 717.656 Q2204.38 715.949 2203 714.574 Q2201.59 713.163 2199.84 713.42 Q2198.08 713.654 2196.22 715.52 Q2195.2 716.539 2194.25 717.926 Q2193.31 719.313 2192.37 721.179 L2190.16 718.969 Q2191.18 717.165 2192.21 715.741 Q2193.26 714.304 2194.35 713.212 Q2197.17 710.388 2200.11 710.032 Q2203.03 709.664 2205.21 711.849 Q2206.74 713.371 2206.92 715.299 Q2207.09 717.214 2205.89 719.227 Z" fill="#000000" fill-rule="nonzero" fill-opacity="1" /><path clip-path="url(#clip320)" d="M2205.95 702.274 L2215.69 692.539 L2217.77 694.626 L2210.31 702.09 L2214.8 706.583 Q2215.16 705.858 2215.61 705.232 Q2216.05 704.594 2216.59 704.054 Q2219.66 700.985 2223.14 700.874 Q2226.61 700.764 2229.48 703.636 Q2232.44 706.595 2232.25 710.081 Q2232.04 713.555 2228.69 716.907 Q2227.53 718.061 2226.13 719.067 Q2224.75 720.062 2223.08 720.946 L2220.58 718.454 Q2222.29 717.95 2223.76 717.066 Q2225.24 716.183 2226.55 714.869 Q2228.67 712.745 2228.8 710.388 Q2228.92 708.031 2227 706.116 Q2225.09 704.201 2222.73 704.324 Q2220.37 704.447 2218.25 706.57 Q2217.26 707.565 2216.48 708.78 Q2215.72 709.983 2215.16 711.481 L2205.95 702.274 Z" fill="#000000" fill-rule="nonzero" fill-opacity="1" /><polyline clip-path="url(#clip320)" style="stroke:#000000; stroke-linecap:round; stroke-linejoin:round; stroke-width:4; stroke-opacity:1; fill:none" points="1327.7,667.406 1327.7,97.5521 "/>
<polyline clip-path="url(#clip320)" style="stroke:#000000; stroke-linecap:round; stroke-linejoin:round; stroke-width:4; stroke-opacity:1; fill:none" points="1327.7,667.406 1346.6,667.406 "/>
<polyline clip-path="url(#clip320)" style="stroke:#000000; stroke-linecap:round; stroke-linejoin:round; stroke-width:4; stroke-opacity:1; fill:none" points="1327.7,509.114 1346.6,509.114 "/>
<polyline clip-path="url(#clip320)" style="stroke:#000000; stroke-linecap:round; stroke-linejoin:round; stroke-width:4; stroke-opacity:1; fill:none" points="1327.7,350.821 1346.6,350.821 "/>
<polyline clip-path="url(#clip320)" style="stroke:#000000; stroke-linecap:round; stroke-linejoin:round; stroke-width:4; stroke-opacity:1; fill:none" points="1327.7,192.528 1346.6,192.528 "/>
<path clip-path="url(#clip320)" d="M1282.75 656.755 Q1280.04 656.755 1278.67 659.429 Q1277.31 662.085 1277.31 667.432 Q1277.31 672.762 1278.67 675.436 Q1280.04 678.092 1282.75 678.092 Q1285.47 678.092 1286.83 675.436 Q1288.2 672.762 1288.2 667.432 Q1288.2 662.085 1286.83 659.429 Q1285.47 656.755 1282.75 656.755 M1282.75 653.978 Q1287.1 653.978 1289.39 657.432 Q1291.7 660.87 1291.7 667.432 Q1291.7 673.978 1289.39 677.432 Q1287.1 680.87 1282.75 680.87 Q1278.39 680.87 1276.08 677.432 Q1273.79 673.978 1273.79 667.432 Q1273.79 660.87 1276.08 657.432 Q1278.39 653.978 1282.75 653.978 Z" fill="#000000" fill-rule="nonzero" fill-opacity="1" /><path clip-path="url(#clip320)" d="M1253.23 519.122 L1258.96 519.122 L1258.96 499.348 L1252.73 500.598 L1252.73 497.404 L1258.93 496.154 L1262.43 496.154 L1262.43 519.122 L1268.16 519.122 L1268.16 522.074 L1253.23 522.074 L1253.23 519.122 Z" fill="#000000" fill-rule="nonzero" fill-opacity="1" /><path clip-path="url(#clip320)" d="M1282.75 498.463 Q1280.04 498.463 1278.67 501.136 Q1277.31 503.792 1277.31 509.14 Q1277.31 514.469 1278.67 517.143 Q1280.04 519.799 1282.75 519.799 Q1285.47 519.799 1286.83 517.143 Q1288.2 514.469 1288.2 509.14 Q1288.2 503.792 1286.83 501.136 Q1285.47 498.463 1282.75 498.463 M1282.75 495.685 Q1287.1 495.685 1289.39 499.14 Q1291.7 502.577 1291.7 509.14 Q1291.7 515.685 1289.39 519.14 Q1287.1 522.577 1282.75 522.577 Q1278.39 522.577 1276.08 519.14 Q1273.79 515.685 1273.79 509.14 Q1273.79 502.577 1276.08 499.14 Q1278.39 495.685 1282.75 495.685 Z" fill="#000000" fill-rule="nonzero" fill-opacity="1" /><path clip-path="url(#clip320)" d="M1255.64 360.829 L1267.88 360.829 L1267.88 363.781 L1251.43 363.781 L1251.43 360.829 Q1253.42 358.763 1256.86 355.291 Q1260.31 351.802 1261.2 350.795 Q1262.88 348.902 1263.54 347.6 Q1264.22 346.281 1264.22 345.013 Q1264.22 342.947 1262.76 341.645 Q1261.32 340.343 1259 340.343 Q1257.35 340.343 1255.51 340.916 Q1253.68 341.489 1251.6 342.652 L1251.6 339.111 Q1253.72 338.26 1255.56 337.826 Q1257.4 337.392 1258.93 337.392 Q1262.95 337.392 1265.35 339.406 Q1267.75 341.42 1267.75 344.788 Q1267.75 346.385 1267.14 347.826 Q1266.55 349.25 1264.97 351.194 Q1264.53 351.697 1262.21 354.111 Q1259.88 356.506 1255.64 360.829 Z" fill="#000000" fill-rule="nonzero" fill-opacity="1" /><path clip-path="url(#clip320)" d="M1282.75 340.17 Q1280.04 340.17 1278.67 342.843 Q1277.31 345.5 1277.31 350.847 Q1277.31 356.177 1278.67 358.85 Q1280.04 361.506 1282.75 361.506 Q1285.47 361.506 1286.83 358.85 Q1288.2 356.177 1288.2 350.847 Q1288.2 345.5 1286.83 342.843 Q1285.47 340.17 1282.75 340.17 M1282.75 337.392 Q1287.1 337.392 1289.39 340.847 Q1291.7 344.284 1291.7 350.847 Q1291.7 357.392 1289.39 360.847 Q1287.1 364.284 1282.75 364.284 Q1278.39 364.284 1276.08 360.847 Q1273.79 357.392 1273.79 350.847 Q1273.79 344.284 1276.08 340.847 Q1278.39 337.392 1282.75 337.392 Z" fill="#000000" fill-rule="nonzero" fill-opacity="1" /><path clip-path="url(#clip320)" d="M1263.25 191.512 Q1265.77 192.05 1267.17 193.752 Q1268.6 195.453 1268.6 197.953 Q1268.6 201.79 1265.96 203.891 Q1263.32 205.991 1258.46 205.991 Q1256.83 205.991 1255.09 205.661 Q1253.37 205.349 1251.53 204.707 L1251.53 201.321 Q1252.99 202.172 1254.72 202.606 Q1256.46 203.04 1258.35 203.04 Q1261.65 203.04 1263.37 201.738 Q1265.11 200.436 1265.11 197.953 Q1265.11 195.661 1263.49 194.377 Q1261.89 193.075 1259.03 193.075 L1256.01 193.075 L1256.01 190.193 L1259.17 190.193 Q1261.76 190.193 1263.13 189.168 Q1264.5 188.127 1264.5 186.182 Q1264.5 184.186 1263.08 183.127 Q1261.67 182.05 1259.03 182.05 Q1257.59 182.05 1255.94 182.363 Q1254.29 182.675 1252.31 183.335 L1252.31 180.21 Q1254.31 179.655 1256.04 179.377 Q1257.8 179.099 1259.34 179.099 Q1263.34 179.099 1265.66 180.922 Q1267.99 182.728 1267.99 185.818 Q1267.99 187.971 1266.76 189.464 Q1265.52 190.939 1263.25 191.512 Z" fill="#000000" fill-rule="nonzero" fill-opacity="1" /><path clip-path="url(#clip320)" d="M1282.75 181.877 Q1280.04 181.877 1278.67 184.55 Q1277.31 187.207 1277.31 192.554 Q1277.31 197.884 1278.67 200.557 Q1280.04 203.214 1282.75 203.214 Q1285.47 203.214 1286.83 200.557 Q1288.2 197.884 1288.2 192.554 Q1288.2 187.207 1286.83 184.55 Q1285.47 181.877 1282.75 181.877 M1282.75 179.099 Q1287.1 179.099 1289.39 182.554 Q1291.7 185.991 1291.7 192.554 Q1291.7 199.099 1289.39 202.554 Q1287.1 205.991 1282.75 205.991 Q1278.39 205.991 1276.08 202.554 Q1273.79 199.099 1273.79 192.554 Q1273.79 185.991 1276.08 182.554 Q1278.39 179.099 1282.75 179.099 Z" fill="#000000" fill-rule="nonzero" fill-opacity="1" /><path clip-path="url(#clip320)" d="M1339.6 18.9258 Q1336.08 18.9258 1334.19 21.4721 Q1332.19 24.1341 1332.19 28.5323 Q1332.19 33.185 1334.16 35.8702 Q1336.15 38.5322 1339.6 38.5322 Q1343 38.5322 1345 35.847 Q1346.99 33.1619 1346.99 28.5323 Q1346.99 24.2962 1345 21.4721 Q1343.17 18.9258 1339.6 18.9258 M1339.6 15.5462 L1353.75 15.5462 L1353.75 19.8054 L1348.98 19.8054 Q1351.5 23.4165 1351.5 28.5323 Q1351.5 34.898 1348.33 38.5091 Q1345.16 42.1433 1339.6 42.1433 Q1334.02 42.1433 1330.87 38.5091 Q1327.7 34.898 1327.7 28.5323 Q1327.7 22.1203 1330.87 18.5323 Q1333.49 15.5462 1339.6 15.5462 Z" fill="#000000" fill-rule="nonzero" fill-opacity="1" /><path clip-path="url(#clip320)" d="M1377.91 19.6666 Q1377.06 19.3656 1376.2 19.1342 Q1373.91 18.5323 1371.45 18.5323 Q1367.22 18.5323 1364.86 20.824 Q1362.66 22.9536 1362.24 26.8656 L1377.91 26.8656 L1377.91 30.1989 L1362.24 30.1989 Q1362.66 34.1109 1364.86 36.2405 Q1367.22 38.5322 1371.45 38.5322 Q1374.42 38.5322 1376.2 37.9304 L1377.91 37.3517 L1377.91 41.2174 L1376.08 41.634 Q1373.68 42.1433 1371.2 42.1433 Q1365 42.1433 1361.38 38.5322 Q1357.75 34.9211 1357.75 28.5323 Q1357.75 22.1434 1361.38 18.5323 Q1365 14.9212 1371.2 14.9212 Q1373.54 14.9212 1376.08 15.4305 Q1377.01 15.6157 1377.91 15.8934 L1377.91 19.6666 Z" fill="#000000" fill-rule="nonzero" fill-opacity="1" /><path clip-path="url(#clip323)" d="M1384.08 651.577 L1384.08 667.406 L1454.26 667.406 L1454.26 651.577 L1384.08 651.577 L1384.08 651.577  Z" fill="#009af9" fill-rule="evenodd" fill-opacity="1"/>
<polyline clip-path="url(#clip323)" style="stroke:#000000; stroke-linecap:round; stroke-linejoin:round; stroke-width:4; stroke-opacity:1; fill:none" points="1384.08,651.577 1384.08,667.406 1454.26,667.406 1454.26,651.577 1384.08,651.577 "/>
<path clip-path="url(#clip323)" d="M1454.26 588.26 L1454.26 667.406 L1524.44 667.406 L1524.44 588.26 L1454.26 588.26 L1454.26 588.26  Z" fill="#009af9" fill-rule="evenodd" fill-opacity="1"/>
<polyline clip-path="url(#clip323)" style="stroke:#000000; stroke-linecap:round; stroke-linejoin:round; stroke-width:4; stroke-opacity:1; fill:none" points="1454.26,588.26 1454.26,667.406 1524.44,667.406 1524.44,588.26 1454.26,588.26 "/>
<path clip-path="url(#clip323)" d="M1524.44 556.601 L1524.44 667.406 L1594.61 667.406 L1594.61 556.601 L1524.44 556.601 L1524.44 556.601  Z" fill="#009af9" fill-rule="evenodd" fill-opacity="1"/>
<polyline clip-path="url(#clip323)" style="stroke:#000000; stroke-linecap:round; stroke-linejoin:round; stroke-width:4; stroke-opacity:1; fill:none" points="1524.44,556.601 1524.44,667.406 1594.61,667.406 1594.61,556.601 1524.44,556.601 "/>
<path clip-path="url(#clip323)" d="M1594.61 493.284 L1594.61 667.406 L1664.79 667.406 L1664.79 493.284 L1594.61 493.284 L1594.61 493.284  Z" fill="#009af9" fill-rule="evenodd" fill-opacity="1"/>
<polyline clip-path="url(#clip323)" style="stroke:#000000; stroke-linecap:round; stroke-linejoin:round; stroke-width:4; stroke-opacity:1; fill:none" points="1594.61,493.284 1594.61,667.406 1664.79,667.406 1664.79,493.284 1594.61,493.284 "/>
<path clip-path="url(#clip323)" d="M1664.79 350.821 L1664.79 667.406 L1734.97 667.406 L1734.97 350.821 L1664.79 350.821 L1664.79 350.821  Z" fill="#009af9" fill-rule="evenodd" fill-opacity="1"/>
<polyline clip-path="url(#clip323)" style="stroke:#000000; stroke-linecap:round; stroke-linejoin:round; stroke-width:4; stroke-opacity:1; fill:none" points="1664.79,350.821 1664.79,667.406 1734.97,667.406 1734.97,350.821 1664.79,350.821 "/>
<path clip-path="url(#clip323)" d="M1734.97 240.016 L1734.97 667.406 L1805.14 667.406 L1805.14 240.016 L1734.97 240.016 L1734.97 240.016  Z" fill="#009af9" fill-rule="evenodd" fill-opacity="1"/>
<polyline clip-path="url(#clip323)" style="stroke:#000000; stroke-linecap:round; stroke-linejoin:round; stroke-width:4; stroke-opacity:1; fill:none" points="1734.97,240.016 1734.97,667.406 1805.14,667.406 1805.14,240.016 1734.97,240.016 "/>
<path clip-path="url(#clip323)" d="M1805.14 240.016 L1805.14 667.406 L1875.32 667.406 L1875.32 240.016 L1805.14 240.016 L1805.14 240.016  Z" fill="#009af9" fill-rule="evenodd" fill-opacity="1"/>
<polyline clip-path="url(#clip323)" style="stroke:#000000; stroke-linecap:round; stroke-linejoin:round; stroke-width:4; stroke-opacity:1; fill:none" points="1805.14,240.016 1805.14,667.406 1875.32,667.406 1875.32,240.016 1805.14,240.016 "/>
<path clip-path="url(#clip323)" d="M1875.32 97.5521 L1875.32 667.406 L1945.49 667.406 L1945.49 97.5521 L1875.32 97.5521 L1875.32 97.5521  Z" fill="#009af9" fill-rule="evenodd" fill-opacity="1"/>
<polyline clip-path="url(#clip323)" style="stroke:#000000; stroke-linecap:round; stroke-linejoin:round; stroke-width:4; stroke-opacity:1; fill:none" points="1875.32,97.5521 1875.32,667.406 1945.49,667.406 1945.49,97.5521 1875.32,97.5521 "/>
<path clip-path="url(#clip323)" d="M1945.49 271.674 L1945.49 667.406 L2015.67 667.406 L2015.67 271.674 L1945.49 271.674 L1945.49 271.674  Z" fill="#009af9" fill-rule="evenodd" fill-opacity="1"/>
<polyline clip-path="url(#clip323)" style="stroke:#000000; stroke-linecap:round; stroke-linejoin:round; stroke-width:4; stroke-opacity:1; fill:none" points="1945.49,271.674 1945.49,667.406 2015.67,667.406 2015.67,271.674 1945.49,271.674 "/>
<path clip-path="url(#clip323)" d="M2015.67 350.821 L2015.67 667.406 L2085.85 667.406 L2085.85 350.821 L2015.67 350.821 L2015.67 350.821  Z" fill="#009af9" fill-rule="evenodd" fill-opacity="1"/>
<polyline clip-path="url(#clip323)" style="stroke:#000000; stroke-linecap:round; stroke-linejoin:round; stroke-width:4; stroke-opacity:1; fill:none" points="2015.67,350.821 2015.67,667.406 2085.85,667.406 2085.85,350.821 2015.67,350.821 "/>
<path clip-path="url(#clip323)" d="M2085.85 524.943 L2085.85 667.406 L2156.02 667.406 L2156.02 524.943 L2085.85 524.943 L2085.85 524.943  Z" fill="#009af9" fill-rule="evenodd" fill-opacity="1"/>
<polyline clip-path="url(#clip323)" style="stroke:#000000; stroke-linecap:round; stroke-linejoin:round; stroke-width:4; stroke-opacity:1; fill:none" points="2085.85,524.943 2085.85,667.406 2156.02,667.406 2156.02,524.943 2085.85,524.943 "/>
<path clip-path="url(#clip323)" d="M2156.02 572.431 L2156.02 667.406 L2226.2 667.406 L2226.2 572.431 L2156.02 572.431 L2156.02 572.431  Z" fill="#009af9" fill-rule="evenodd" fill-opacity="1"/>
<polyline clip-path="url(#clip323)" style="stroke:#000000; stroke-linecap:round; stroke-linejoin:round; stroke-width:4; stroke-opacity:1; fill:none" points="2156.02,572.431 2156.02,667.406 2226.2,667.406 2226.2,572.431 2156.02,572.431 "/>
<path clip-path="url(#clip323)" d="M2226.2 635.748 L2226.2 667.406 L2296.38 667.406 L2296.38 635.748 L2226.2 635.748 L2226.2 635.748  Z" fill="#009af9" fill-rule="evenodd" fill-opacity="1"/>
<polyline clip-path="url(#clip323)" style="stroke:#000000; stroke-linecap:round; stroke-linejoin:round; stroke-width:4; stroke-opacity:1; fill:none" points="2226.2,635.748 2226.2,667.406 2296.38,667.406 2296.38,635.748 2226.2,635.748 "/>
<circle clip-path="url(#clip323)" style="fill:#009af9; stroke:none; fill-opacity:0" cx="1419.17" cy="651.577" r="2"/>
<circle clip-path="url(#clip323)" style="fill:#009af9; stroke:none; fill-opacity:0" cx="1489.35" cy="588.26" r="2"/>
<circle clip-path="url(#clip323)" style="fill:#009af9; stroke:none; fill-opacity:0" cx="1559.52" cy="556.601" r="2"/>
<circle clip-path="url(#clip323)" style="fill:#009af9; stroke:none; fill-opacity:0" cx="1629.7" cy="493.284" r="2"/>
<circle clip-path="url(#clip323)" style="fill:#009af9; stroke:none; fill-opacity:0" cx="1699.88" cy="350.821" r="2"/>
<circle clip-path="url(#clip323)" style="fill:#009af9; stroke:none; fill-opacity:0" cx="1770.05" cy="240.016" r="2"/>
<circle clip-path="url(#clip323)" style="fill:#009af9; stroke:none; fill-opacity:0" cx="1840.23" cy="240.016" r="2"/>
<circle clip-path="url(#clip323)" style="fill:#009af9; stroke:none; fill-opacity:0" cx="1910.41" cy="97.5521" r="2"/>
<circle clip-path="url(#clip323)" style="fill:#009af9; stroke:none; fill-opacity:0" cx="1980.58" cy="271.674" r="2"/>
<circle clip-path="url(#clip323)" style="fill:#009af9; stroke:none; fill-opacity:0" cx="2050.76" cy="350.821" r="2"/>
<circle clip-path="url(#clip323)" style="fill:#009af9; stroke:none; fill-opacity:0" cx="2120.94" cy="524.943" r="2"/>
<circle clip-path="url(#clip323)" style="fill:#009af9; stroke:none; fill-opacity:0" cx="2191.11" cy="572.431" r="2"/>
<circle clip-path="url(#clip323)" style="fill:#009af9; stroke:none; fill-opacity:0" cx="2261.29" cy="635.748" r="2"/>
<polyline clip-path="url(#clip323)" style="stroke:#ff0000; stroke-linecap:round; stroke-linejoin:round; stroke-width:8; stroke-opacity:1; fill:none" stroke-dasharray="32, 20" points="1838.55,1237.26 1838.55,-472.302 "/>
<polyline clip-path="url(#clip323)" style="stroke:#ff0000; stroke-linecap:round; stroke-linejoin:round; stroke-width:6; stroke-opacity:1; fill:none" stroke-dasharray="24, 12, 3, 12" points="1449.67,1237.26 1449.67,-472.302 "/>
<polyline clip-path="url(#clip323)" style="stroke:#ff0000; stroke-linecap:round; stroke-linejoin:round; stroke-width:6; stroke-opacity:1; fill:none" stroke-dasharray="24, 12, 3, 12" points="2125.87,1237.26 2125.87,-472.302 "/>
<path clip-path="url(#clip320)" d="M128.138 1467.41 L1153.19 1467.41 L1153.19 897.552 L128.138 897.552  Z" fill="#ffffff" fill-rule="evenodd" fill-opacity="1"/>
<defs>
  <clipPath id="clip324">
    <rect x="128" y="897" width="1026" height="571"/>
  </clipPath>
</defs>
<polyline clip-path="url(#clip324)" style="stroke:#000000; stroke-linecap:round; stroke-linejoin:round; stroke-width:2; stroke-opacity:0.1; fill:none" points="314.845,1467.41 314.845,897.552 "/>
<polyline clip-path="url(#clip324)" style="stroke:#000000; stroke-linecap:round; stroke-linejoin:round; stroke-width:2; stroke-opacity:0.1; fill:none" points="575.5,1467.41 575.5,897.552 "/>
<polyline clip-path="url(#clip324)" style="stroke:#000000; stroke-linecap:round; stroke-linejoin:round; stroke-width:2; stroke-opacity:0.1; fill:none" points="836.155,1467.41 836.155,897.552 "/>
<polyline clip-path="url(#clip324)" style="stroke:#000000; stroke-linecap:round; stroke-linejoin:round; stroke-width:2; stroke-opacity:0.1; fill:none" points="1096.81,1467.41 1096.81,897.552 "/>
<polyline clip-path="url(#clip324)" style="stroke:#000000; stroke-linecap:round; stroke-linejoin:round; stroke-width:2; stroke-opacity:0.1; fill:none" points="128.138,1467.41 1153.19,1467.41 "/>
<polyline clip-path="url(#clip324)" style="stroke:#000000; stroke-linecap:round; stroke-linejoin:round; stroke-width:2; stroke-opacity:0.1; fill:none" points="128.138,1378.37 1153.19,1378.37 "/>
<polyline clip-path="url(#clip324)" style="stroke:#000000; stroke-linecap:round; stroke-linejoin:round; stroke-width:2; stroke-opacity:0.1; fill:none" points="128.138,1289.33 1153.19,1289.33 "/>
<polyline clip-path="url(#clip324)" style="stroke:#000000; stroke-linecap:round; stroke-linejoin:round; stroke-width:2; stroke-opacity:0.1; fill:none" points="128.138,1200.29 1153.19,1200.29 "/>
<polyline clip-path="url(#clip324)" style="stroke:#000000; stroke-linecap:round; stroke-linejoin:round; stroke-width:2; stroke-opacity:0.1; fill:none" points="128.138,1111.25 1153.19,1111.25 "/>
<polyline clip-path="url(#clip324)" style="stroke:#000000; stroke-linecap:round; stroke-linejoin:round; stroke-width:2; stroke-opacity:0.1; fill:none" points="128.138,1022.21 1153.19,1022.21 "/>
<polyline clip-path="url(#clip324)" style="stroke:#000000; stroke-linecap:round; stroke-linejoin:round; stroke-width:2; stroke-opacity:0.1; fill:none" points="128.138,933.168 1153.19,933.168 "/>
<polyline clip-path="url(#clip320)" style="stroke:#000000; stroke-linecap:round; stroke-linejoin:round; stroke-width:4; stroke-opacity:1; fill:none" points="128.138,1467.41 1153.19,1467.41 "/>
<polyline clip-path="url(#clip320)" style="stroke:#000000; stroke-linecap:round; stroke-linejoin:round; stroke-width:4; stroke-opacity:1; fill:none" points="314.845,1467.41 314.845,1448.51 "/>
<polyline clip-path="url(#clip320)" style="stroke:#000000; stroke-linecap:round; stroke-linejoin:round; stroke-width:4; stroke-opacity:1; fill:none" points="575.5,1467.41 575.5,1448.51 "/>
<polyline clip-path="url(#clip320)" style="stroke:#000000; stroke-linecap:round; stroke-linejoin:round; stroke-width:4; stroke-opacity:1; fill:none" points="836.155,1467.41 836.155,1448.51 "/>
<polyline clip-path="url(#clip320)" style="stroke:#000000; stroke-linecap:round; stroke-linejoin:round; stroke-width:4; stroke-opacity:1; fill:none" points="1096.81,1467.41 1096.81,1448.51 "/>
<path clip-path="url(#clip320)" d="M261.34 1538.8 Q259.425 1540.71 260.345 1543.57 Q261.266 1546.41 265.047 1550.19 Q268.816 1553.96 271.664 1554.89 Q274.512 1555.8 276.427 1553.88 Q278.354 1551.96 277.434 1549.12 Q276.513 1546.26 272.744 1542.49 Q268.963 1538.71 266.115 1537.8 Q263.267 1536.87 261.34 1538.8 M259.375 1536.83 Q262.457 1533.75 266.52 1534.57 Q270.584 1535.37 275.224 1540.01 Q279.852 1544.64 280.662 1548.71 Q281.472 1552.77 278.391 1555.85 Q275.31 1558.93 271.246 1558.13 Q267.183 1557.31 262.555 1552.68 Q257.915 1548.04 257.104 1543.99 Q256.294 1539.91 259.375 1536.83 Z" fill="#000000" fill-rule="nonzero" fill-opacity="1" /><path clip-path="url(#clip320)" d="M285.609 1541.68 L288.2 1539.09 L291.318 1542.21 L288.728 1544.8 L285.609 1541.68 Z" fill="#000000" fill-rule="nonzero" fill-opacity="1" /><path clip-path="url(#clip320)" d="M278.416 1518.45 L288.151 1508.72 L290.238 1510.81 L282.774 1518.27 L287.267 1522.76 Q287.623 1522.04 288.077 1521.41 Q288.519 1520.77 289.059 1520.23 Q292.128 1517.16 295.602 1517.05 Q299.076 1516.94 301.949 1519.82 Q304.907 1522.77 304.711 1526.26 Q304.502 1529.74 301.151 1533.09 Q299.997 1534.24 298.598 1535.25 Q297.21 1536.24 295.541 1537.13 L293.049 1534.63 Q294.755 1534.13 296.228 1533.25 Q297.701 1532.36 299.015 1531.05 Q301.139 1528.93 301.261 1526.57 Q301.384 1524.21 299.469 1522.3 Q297.554 1520.38 295.197 1520.5 Q292.84 1520.63 290.716 1522.75 Q289.722 1523.74 288.949 1524.96 Q288.187 1526.16 287.623 1527.66 L278.416 1518.45 Z" fill="#000000" fill-rule="nonzero" fill-opacity="1" /><path clip-path="url(#clip320)" d="M310.346 1503.42 Q312.506 1502.02 314.704 1502.22 Q316.913 1502.42 318.681 1504.19 Q321.394 1506.9 321.014 1510.25 Q320.633 1513.6 317.196 1517.04 Q316.042 1518.2 314.581 1519.19 Q313.145 1520.18 311.389 1521.03 L308.995 1518.64 Q310.628 1518.21 312.163 1517.29 Q313.697 1516.37 315.035 1515.03 Q317.368 1512.7 317.662 1510.56 Q317.969 1508.41 316.214 1506.66 Q314.593 1505.04 312.543 1505.27 Q310.493 1505.48 308.468 1507.5 L306.332 1509.64 L304.294 1507.6 L306.528 1505.37 Q308.357 1503.54 308.603 1501.84 Q308.836 1500.14 307.461 1498.76 Q306.049 1497.35 304.294 1497.61 Q302.538 1497.84 300.672 1499.71 Q299.653 1500.73 298.708 1502.11 Q297.763 1503.5 296.83 1505.37 L294.62 1503.16 Q295.639 1501.35 296.67 1499.93 Q297.714 1498.49 298.806 1497.4 Q301.63 1494.58 304.564 1494.22 Q307.485 1493.85 309.671 1496.04 Q311.193 1497.56 311.377 1499.49 Q311.549 1501.4 310.346 1503.42 Z" fill="#000000" fill-rule="nonzero" fill-opacity="1" /><path clip-path="url(#clip320)" d="M521.393 1539.4 Q519.478 1541.31 520.399 1544.17 Q521.32 1547.01 525.101 1550.79 Q528.869 1554.56 531.717 1555.49 Q534.565 1556.4 536.48 1554.48 Q538.408 1552.56 537.487 1549.72 Q536.566 1546.86 532.798 1543.09 Q529.017 1539.31 526.169 1538.4 Q523.321 1537.47 521.393 1539.4 M519.429 1537.43 Q522.51 1534.35 526.574 1535.17 Q530.637 1535.97 535.277 1540.61 Q539.906 1545.24 540.716 1549.32 Q541.526 1553.37 538.445 1556.45 Q535.363 1559.53 531.3 1558.73 Q527.237 1557.91 522.609 1553.28 Q517.968 1548.64 517.158 1544.59 Q516.348 1540.51 519.429 1537.43 Z" fill="#000000" fill-rule="nonzero" fill-opacity="1" /><path clip-path="url(#clip320)" d="M545.663 1542.28 L548.253 1539.69 L551.371 1542.81 L548.781 1545.4 L545.663 1542.28 Z" fill="#000000" fill-rule="nonzero" fill-opacity="1" /><path clip-path="url(#clip320)" d="M538.469 1519.06 L548.204 1509.32 L550.291 1511.41 L542.827 1518.87 L547.32 1523.36 Q547.676 1522.64 548.131 1522.01 Q548.572 1521.38 549.113 1520.84 Q552.182 1517.77 555.656 1517.66 Q559.13 1517.55 562.002 1520.42 Q564.961 1523.38 564.765 1526.86 Q564.556 1530.34 561.205 1533.69 Q560.051 1534.84 558.651 1535.85 Q557.264 1536.84 555.594 1537.73 L553.102 1535.24 Q554.809 1534.73 556.282 1533.85 Q557.755 1532.96 559.069 1531.65 Q561.192 1529.53 561.315 1527.17 Q561.438 1524.81 559.523 1522.9 Q557.608 1520.98 555.251 1521.11 Q552.894 1521.23 550.77 1523.35 Q549.776 1524.35 549.002 1525.56 Q548.241 1526.76 547.676 1528.26 L538.469 1519.06 Z" fill="#000000" fill-rule="nonzero" fill-opacity="1" /><path clip-path="url(#clip320)" d="M563.414 1498.43 L566.937 1514.48 L573.198 1508.22 L563.414 1498.43 M560.603 1496.92 L563.721 1493.8 L575.666 1505.75 L578.281 1503.13 L580.343 1505.2 L577.728 1507.81 L582.049 1512.13 L579.582 1514.6 L575.261 1510.28 L566.987 1518.55 L564.593 1516.16 L560.603 1496.92 Z" fill="#000000" fill-rule="nonzero" fill-opacity="1" /><path clip-path="url(#clip320)" d="M782.834 1538.61 Q780.919 1540.53 781.84 1543.39 Q782.76 1546.22 786.541 1550 Q790.31 1553.77 793.158 1554.7 Q796.006 1555.61 797.921 1553.7 Q799.849 1551.77 798.928 1548.94 Q798.007 1546.07 794.238 1542.31 Q790.457 1538.53 787.609 1537.62 Q784.761 1536.68 782.834 1538.61 M780.87 1536.65 Q783.951 1533.57 788.014 1534.39 Q792.078 1535.19 796.718 1539.83 Q801.346 1544.45 802.157 1548.53 Q802.967 1552.58 799.885 1555.66 Q796.804 1558.74 792.741 1557.95 Q788.677 1557.12 784.049 1552.5 Q779.409 1547.85 778.599 1543.8 Q777.788 1539.73 780.87 1536.65 Z" fill="#000000" fill-rule="nonzero" fill-opacity="1" /><path clip-path="url(#clip320)" d="M807.104 1541.5 L809.694 1538.91 L812.812 1542.02 L810.222 1544.61 L807.104 1541.5 Z" fill="#000000" fill-rule="nonzero" fill-opacity="1" /><path clip-path="url(#clip320)" d="M799.91 1518.27 L809.645 1508.53 L811.732 1510.62 L804.268 1518.09 L808.761 1522.58 Q809.117 1521.85 809.571 1521.23 Q810.013 1520.59 810.553 1520.05 Q813.622 1516.98 817.097 1516.87 Q820.571 1516.76 823.443 1519.63 Q826.402 1522.59 826.205 1526.08 Q825.997 1529.55 822.645 1532.9 Q821.491 1534.06 820.092 1535.06 Q818.705 1536.06 817.035 1536.94 L814.543 1534.45 Q816.249 1533.95 817.723 1533.06 Q819.196 1532.18 820.509 1530.86 Q822.633 1528.74 822.756 1526.38 Q822.879 1524.03 820.963 1522.11 Q819.048 1520.2 816.691 1520.32 Q814.334 1520.44 812.211 1522.57 Q811.216 1523.56 810.443 1524.78 Q809.682 1525.98 809.117 1527.48 L799.91 1518.27 Z" fill="#000000" fill-rule="nonzero" fill-opacity="1" /><path clip-path="url(#clip320)" d="M815.906 1502.27 L825.641 1492.54 L827.728 1494.63 L820.264 1502.09 L824.757 1506.58 Q825.113 1505.86 825.567 1505.23 Q826.009 1504.59 826.549 1504.05 Q829.618 1500.98 833.092 1500.87 Q836.566 1500.76 839.439 1503.64 Q842.398 1506.59 842.201 1510.08 Q841.992 1513.56 838.641 1516.91 Q837.487 1518.06 836.088 1519.07 Q834.7 1520.06 833.031 1520.95 L830.539 1518.45 Q832.245 1517.95 833.718 1517.07 Q835.191 1516.18 836.505 1514.87 Q838.629 1512.75 838.752 1510.39 Q838.874 1508.03 836.959 1506.12 Q835.044 1504.2 832.687 1504.32 Q830.33 1504.45 828.206 1506.57 Q827.212 1507.56 826.439 1508.78 Q825.678 1509.98 825.113 1511.48 L815.906 1502.27 Z" fill="#000000" fill-rule="nonzero" fill-opacity="1" /><path clip-path="url(#clip320)" d="M1042.88 1539.22 Q1040.96 1541.14 1041.88 1544 Q1042.8 1546.84 1046.58 1550.62 Q1050.35 1554.39 1053.2 1555.32 Q1056.05 1556.23 1057.96 1554.31 Q1059.89 1552.38 1058.97 1549.55 Q1058.05 1546.69 1054.28 1542.92 Q1050.5 1539.14 1047.65 1538.23 Q1044.8 1537.3 1042.88 1539.22 M1040.91 1537.26 Q1043.99 1534.18 1048.06 1535 Q1052.12 1535.8 1056.76 1540.44 Q1061.39 1545.07 1062.2 1549.14 Q1063.01 1553.19 1059.93 1556.28 Q1056.85 1559.36 1052.78 1558.56 Q1048.72 1557.74 1044.09 1553.11 Q1039.45 1548.47 1038.64 1544.42 Q1037.83 1540.34 1040.91 1537.26 Z" fill="#000000" fill-rule="nonzero" fill-opacity="1" /><path clip-path="url(#clip320)" d="M1067.15 1542.11 L1069.74 1539.52 L1072.85 1542.64 L1070.26 1545.23 L1067.15 1542.11 Z" fill="#000000" fill-rule="nonzero" fill-opacity="1" /><path clip-path="url(#clip320)" d="M1059.95 1518.88 L1069.69 1509.15 L1071.77 1511.24 L1064.31 1518.7 L1068.8 1523.19 Q1069.16 1522.47 1069.61 1521.84 Q1070.05 1521.2 1070.59 1520.66 Q1073.66 1517.59 1077.14 1517.48 Q1080.61 1517.37 1083.48 1520.25 Q1086.44 1523.2 1086.25 1526.69 Q1086.04 1530.17 1082.69 1533.52 Q1081.53 1534.67 1080.13 1535.68 Q1078.75 1536.67 1077.08 1537.56 L1074.58 1535.06 Q1076.29 1534.56 1077.76 1533.68 Q1079.24 1532.79 1080.55 1531.48 Q1082.67 1529.35 1082.8 1527 Q1082.92 1524.64 1081 1522.73 Q1079.09 1520.81 1076.73 1520.93 Q1074.38 1521.06 1072.25 1523.18 Q1071.26 1524.17 1070.48 1525.39 Q1069.72 1526.59 1069.16 1528.09 L1059.95 1518.88 Z" fill="#000000" fill-rule="nonzero" fill-opacity="1" /><path clip-path="url(#clip320)" d="M1089.71 1505.48 Q1088.04 1507.15 1088.2 1509.27 Q1088.37 1511.38 1090.36 1513.37 Q1092.34 1515.35 1094.46 1515.53 Q1096.58 1515.69 1098.25 1514.02 Q1099.92 1512.35 1099.75 1510.24 Q1099.58 1508.1 1097.6 1506.13 Q1095.61 1504.14 1093.49 1503.98 Q1091.38 1503.81 1089.71 1505.48 M1086.86 1492.78 L1089.12 1495.04 Q1087.74 1495.53 1086.55 1496.26 Q1085.38 1496.97 1084.44 1497.9 Q1081.99 1500.36 1082.34 1503.32 Q1082.71 1506.26 1085.88 1509.8 Q1085.53 1508.01 1086.06 1506.35 Q1086.58 1504.68 1087.89 1503.37 Q1090.65 1500.6 1093.93 1500.69 Q1097.21 1500.75 1100.09 1503.64 Q1102.92 1506.46 1102.95 1509.84 Q1102.99 1513.21 1100.22 1515.99 Q1097.04 1519.17 1092.92 1518.42 Q1088.8 1517.66 1084.17 1513.03 Q1079.83 1508.68 1079.31 1504.04 Q1078.78 1499.39 1082.26 1495.91 Q1083.19 1494.98 1084.32 1494.22 Q1085.46 1493.45 1086.86 1492.78 Z" fill="#000000" fill-rule="nonzero" fill-opacity="1" /><polyline clip-path="url(#clip320)" style="stroke:#000000; stroke-linecap:round; stroke-linejoin:round; stroke-width:4; stroke-opacity:1; fill:none" points="128.138,1467.41 128.138,897.552 "/>
<polyline clip-path="url(#clip320)" style="stroke:#000000; stroke-linecap:round; stroke-linejoin:round; stroke-width:4; stroke-opacity:1; fill:none" points="128.138,1467.41 147.035,1467.41 "/>
<polyline clip-path="url(#clip320)" style="stroke:#000000; stroke-linecap:round; stroke-linejoin:round; stroke-width:4; stroke-opacity:1; fill:none" points="128.138,1378.37 147.035,1378.37 "/>
<polyline clip-path="url(#clip320)" style="stroke:#000000; stroke-linecap:round; stroke-linejoin:round; stroke-width:4; stroke-opacity:1; fill:none" points="128.138,1289.33 147.035,1289.33 "/>
<polyline clip-path="url(#clip320)" style="stroke:#000000; stroke-linecap:round; stroke-linejoin:round; stroke-width:4; stroke-opacity:1; fill:none" points="128.138,1200.29 147.035,1200.29 "/>
<polyline clip-path="url(#clip320)" style="stroke:#000000; stroke-linecap:round; stroke-linejoin:round; stroke-width:4; stroke-opacity:1; fill:none" points="128.138,1111.25 147.035,1111.25 "/>
<polyline clip-path="url(#clip320)" style="stroke:#000000; stroke-linecap:round; stroke-linejoin:round; stroke-width:4; stroke-opacity:1; fill:none" points="128.138,1022.21 147.035,1022.21 "/>
<polyline clip-path="url(#clip320)" style="stroke:#000000; stroke-linecap:round; stroke-linejoin:round; stroke-width:4; stroke-opacity:1; fill:none" points="128.138,933.168 147.035,933.168 "/>
<path clip-path="url(#clip320)" d="M83.1795 1456.76 Q80.4711 1456.76 79.0996 1459.43 Q77.7455 1462.09 77.7455 1467.43 Q77.7455 1472.76 79.0996 1475.44 Q80.4711 1478.09 83.1795 1478.09 Q85.9051 1478.09 87.2593 1475.44 Q88.6308 1472.76 88.6308 1467.43 Q88.6308 1462.09 87.2593 1459.43 Q85.9051 1456.76 83.1795 1456.76 M83.1795 1453.98 Q87.5371 1453.98 89.8287 1457.43 Q92.1377 1460.87 92.1377 1467.43 Q92.1377 1473.98 89.8287 1477.43 Q87.5371 1480.87 83.1795 1480.87 Q78.8218 1480.87 76.5128 1477.43 Q74.2212 1473.98 74.2212 1467.43 Q74.2212 1460.87 76.5128 1457.43 Q78.8218 1453.98 83.1795 1453.98 Z" fill="#000000" fill-rule="nonzero" fill-opacity="1" /><path clip-path="url(#clip320)" d="M53.6657 1388.38 L59.3949 1388.38 L59.3949 1368.6 L53.1623 1369.85 L53.1623 1366.66 L59.3601 1365.41 L62.8671 1365.41 L62.8671 1388.38 L68.5962 1388.38 L68.5962 1391.33 L53.6657 1391.33 L53.6657 1388.38 Z" fill="#000000" fill-rule="nonzero" fill-opacity="1" /><path clip-path="url(#clip320)" d="M83.1795 1367.72 Q80.4711 1367.72 79.0996 1370.39 Q77.7455 1373.05 77.7455 1378.39 Q77.7455 1383.72 79.0996 1386.4 Q80.4711 1389.05 83.1795 1389.05 Q85.9051 1389.05 87.2593 1386.4 Q88.6308 1383.72 88.6308 1378.39 Q88.6308 1373.05 87.2593 1370.39 Q85.9051 1367.72 83.1795 1367.72 M83.1795 1364.94 Q87.5371 1364.94 89.8287 1368.39 Q92.1377 1371.83 92.1377 1378.39 Q92.1377 1384.94 89.8287 1388.39 Q87.5371 1391.83 83.1795 1391.83 Q78.8218 1391.83 76.5128 1388.39 Q74.2212 1384.94 74.2212 1378.39 Q74.2212 1371.83 76.5128 1368.39 Q78.8218 1364.94 83.1795 1364.94 Z" fill="#000000" fill-rule="nonzero" fill-opacity="1" /><path clip-path="url(#clip320)" d="M56.0789 1299.34 L68.3184 1299.34 L68.3184 1302.29 L51.8602 1302.29 L51.8602 1299.34 Q53.8567 1297.27 57.2942 1293.8 Q60.749 1290.31 61.6344 1289.3 Q63.3184 1287.41 63.9782 1286.11 Q64.6552 1284.79 64.6552 1283.52 Q64.6552 1281.45 63.1969 1280.15 Q61.756 1278.85 59.4296 1278.85 Q57.7803 1278.85 55.94 1279.42 Q54.1171 1280 52.0338 1281.16 L52.0338 1277.62 Q54.1518 1276.77 55.9921 1276.33 Q57.8324 1275.9 59.3601 1275.9 Q63.3879 1275.9 65.7837 1277.91 Q68.1795 1279.93 68.1795 1283.29 Q68.1795 1284.89 67.5719 1286.33 Q66.9816 1287.76 65.4018 1289.7 Q64.9677 1290.2 62.6414 1292.62 Q60.315 1295.01 56.0789 1299.34 Z" fill="#000000" fill-rule="nonzero" fill-opacity="1" /><path clip-path="url(#clip320)" d="M83.1795 1278.68 Q80.4711 1278.68 79.0996 1281.35 Q77.7455 1284.01 77.7455 1289.35 Q77.7455 1294.68 79.0996 1297.36 Q80.4711 1300.01 83.1795 1300.01 Q85.9051 1300.01 87.2593 1297.36 Q88.6308 1294.68 88.6308 1289.35 Q88.6308 1284.01 87.2593 1281.35 Q85.9051 1278.68 83.1795 1278.68 M83.1795 1275.9 Q87.5371 1275.9 89.8287 1279.35 Q92.1377 1282.79 92.1377 1289.35 Q92.1377 1295.9 89.8287 1299.35 Q87.5371 1302.79 83.1795 1302.79 Q78.8218 1302.79 76.5128 1299.35 Q74.2212 1295.9 74.2212 1289.35 Q74.2212 1282.79 76.5128 1279.35 Q78.8218 1275.9 83.1795 1275.9 Z" fill="#000000" fill-rule="nonzero" fill-opacity="1" /><path clip-path="url(#clip320)" d="M63.683 1199.27 Q66.2004 1199.81 67.6066 1201.51 Q69.0302 1203.21 69.0302 1205.71 Q69.0302 1209.55 66.3913 1211.65 Q63.7525 1213.75 58.8914 1213.75 Q57.2595 1213.75 55.5234 1213.42 Q53.8046 1213.11 51.9643 1212.47 L51.9643 1209.08 Q53.4227 1209.93 55.1588 1210.37 Q56.8949 1210.8 58.7872 1210.8 Q62.0858 1210.8 63.8046 1209.5 Q65.5407 1208.2 65.5407 1205.71 Q65.5407 1203.42 63.9261 1202.14 Q62.3289 1200.83 59.4643 1200.83 L56.4435 1200.83 L56.4435 1197.95 L59.6032 1197.95 Q62.19 1197.95 63.5615 1196.93 Q64.933 1195.89 64.933 1193.94 Q64.933 1191.95 63.5094 1190.89 Q62.1032 1189.81 59.4643 1189.81 Q58.0233 1189.81 56.374 1190.12 Q54.7247 1190.43 52.7456 1191.09 L52.7456 1187.97 Q54.7421 1187.41 56.4782 1187.14 Q58.2317 1186.86 59.7768 1186.86 Q63.7698 1186.86 66.0962 1188.68 Q68.4226 1190.49 68.4226 1193.58 Q68.4226 1195.73 67.19 1197.22 Q65.9573 1198.7 63.683 1199.27 Z" fill="#000000" fill-rule="nonzero" fill-opacity="1" /><path clip-path="url(#clip320)" d="M83.1795 1189.64 Q80.4711 1189.64 79.0996 1192.31 Q77.7455 1194.97 77.7455 1200.31 Q77.7455 1205.64 79.0996 1208.32 Q80.4711 1210.97 83.1795 1210.97 Q85.9051 1210.97 87.2593 1208.32 Q88.6308 1205.64 88.6308 1200.31 Q88.6308 1194.97 87.2593 1192.31 Q85.9051 1189.64 83.1795 1189.64 M83.1795 1186.86 Q87.5371 1186.86 89.8287 1190.31 Q92.1377 1193.75 92.1377 1200.31 Q92.1377 1206.86 89.8287 1210.31 Q87.5371 1213.75 83.1795 1213.75 Q78.8218 1213.75 76.5128 1210.31 Q74.2212 1206.86 74.2212 1200.31 Q74.2212 1193.75 76.5128 1190.31 Q78.8218 1186.86 83.1795 1186.86 Z" fill="#000000" fill-rule="nonzero" fill-opacity="1" /><path clip-path="url(#clip320)" d="M62.6935 1101.34 L53.8393 1115.18 L62.6935 1115.18 L62.6935 1101.34 M61.7733 1098.29 L66.183 1098.29 L66.183 1115.18 L69.8809 1115.18 L69.8809 1118.1 L66.183 1118.1 L66.183 1124.21 L62.6935 1124.21 L62.6935 1118.1 L50.9921 1118.1 L50.9921 1114.71 L61.7733 1098.29 Z" fill="#000000" fill-rule="nonzero" fill-opacity="1" /><path clip-path="url(#clip320)" d="M83.1795 1100.6 Q80.4711 1100.6 79.0996 1103.27 Q77.7455 1105.93 77.7455 1111.27 Q77.7455 1116.6 79.0996 1119.28 Q80.4711 1121.93 83.1795 1121.93 Q85.9051 1121.93 87.2593 1119.28 Q88.6308 1116.6 88.6308 1111.27 Q88.6308 1105.93 87.2593 1103.27 Q85.9051 1100.6 83.1795 1100.6 M83.1795 1097.82 Q87.5371 1097.82 89.8287 1101.27 Q92.1377 1104.71 92.1377 1111.27 Q92.1377 1117.82 89.8287 1121.27 Q87.5371 1124.71 83.1795 1124.71 Q78.8218 1124.71 76.5128 1121.27 Q74.2212 1117.82 74.2212 1111.27 Q74.2212 1104.71 76.5128 1101.27 Q78.8218 1097.82 83.1795 1097.82 Z" fill="#000000" fill-rule="nonzero" fill-opacity="1" /><path clip-path="url(#clip320)" d="M53.0928 1009.25 L66.8601 1009.25 L66.8601 1012.2 L56.3046 1012.2 L56.3046 1018.55 Q57.0685 1018.29 57.8324 1018.17 Q58.5963 1018.03 59.3601 1018.03 Q63.7004 1018.03 66.2351 1020.41 Q68.7698 1022.79 68.7698 1026.85 Q68.7698 1031.04 66.1657 1033.36 Q63.5615 1035.67 58.8219 1035.67 Q57.19 1035.67 55.4886 1035.39 Q53.8046 1035.12 51.9991 1034.56 L51.9991 1031.04 Q53.5616 1031.89 55.2282 1032.3 Q56.8949 1032.72 58.7525 1032.72 Q61.756 1032.72 63.5094 1031.14 Q65.2629 1029.56 65.2629 1026.85 Q65.2629 1024.14 63.5094 1022.56 Q61.756 1020.98 58.7525 1020.98 Q57.3463 1020.98 55.94 1021.3 Q54.5511 1021.61 53.0928 1022.27 L53.0928 1009.25 Z" fill="#000000" fill-rule="nonzero" fill-opacity="1" /><path clip-path="url(#clip320)" d="M83.1795 1011.56 Q80.4711 1011.56 79.0996 1014.23 Q77.7455 1016.89 77.7455 1022.23 Q77.7455 1027.56 79.0996 1030.24 Q80.4711 1032.89 83.1795 1032.89 Q85.9051 1032.89 87.2593 1030.24 Q88.6308 1027.56 88.6308 1022.23 Q88.6308 1016.89 87.2593 1014.23 Q85.9051 1011.56 83.1795 1011.56 M83.1795 1008.78 Q87.5371 1008.78 89.8287 1012.23 Q92.1377 1015.67 92.1377 1022.23 Q92.1377 1028.78 89.8287 1032.23 Q87.5371 1035.67 83.1795 1035.67 Q78.8218 1035.67 76.5128 1032.23 Q74.2212 1028.78 74.2212 1022.23 Q74.2212 1015.67 76.5128 1012.23 Q78.8218 1008.78 83.1795 1008.78 Z" fill="#000000" fill-rule="nonzero" fill-opacity="1" /><path clip-path="url(#clip320)" d="M60.9921 931.77 Q58.631 931.77 57.2421 933.385 Q55.8706 935 55.8706 937.812 Q55.8706 940.607 57.2421 942.239 Q58.631 943.854 60.9921 943.854 Q63.3532 943.854 64.7247 942.239 Q66.1136 940.607 66.1136 937.812 Q66.1136 935 64.7247 933.385 Q63.3532 931.77 60.9921 931.77 M67.9538 920.781 L67.9538 923.975 Q66.6344 923.35 65.2802 923.021 Q63.9434 922.691 62.624 922.691 Q59.1518 922.691 57.3115 925.034 Q55.4886 927.378 55.2282 932.118 Q56.2525 930.607 57.7976 929.809 Q59.3428 928.993 61.2004 928.993 Q65.1066 928.993 67.3636 931.371 Q69.6379 933.732 69.6379 937.812 Q69.6379 941.805 67.2768 944.218 Q64.9157 946.631 60.9921 946.631 Q56.4956 946.631 54.1171 943.194 Q51.7386 939.739 51.7386 933.194 Q51.7386 927.048 54.6553 923.402 Q57.572 919.739 62.4851 919.739 Q63.8046 919.739 65.1414 920 Q66.4955 920.26 67.9538 920.781 Z" fill="#000000" fill-rule="nonzero" fill-opacity="1" /><path clip-path="url(#clip320)" d="M83.1795 922.517 Q80.4711 922.517 79.0996 925.191 Q77.7455 927.847 77.7455 933.194 Q77.7455 938.524 79.0996 941.197 Q80.4711 943.854 83.1795 943.854 Q85.9051 943.854 87.2593 941.197 Q88.6308 938.524 88.6308 933.194 Q88.6308 927.847 87.2593 925.191 Q85.9051 922.517 83.1795 922.517 M83.1795 919.739 Q87.5371 919.739 89.8287 923.194 Q92.1377 926.632 92.1377 933.194 Q92.1377 939.739 89.8287 943.194 Q87.5371 946.631 83.1795 946.631 Q78.8218 946.631 76.5128 943.194 Q74.2212 939.739 74.2212 933.194 Q74.2212 926.632 76.5128 923.194 Q78.8218 919.739 83.1795 919.739 Z" fill="#000000" fill-rule="nonzero" fill-opacity="1" /><path clip-path="url(#clip320)" d="M140.036 818.926 Q136.517 818.926 134.619 821.472 Q132.628 824.134 132.628 828.532 Q132.628 833.185 134.596 835.87 Q136.587 838.532 140.036 838.532 Q143.439 838.532 145.429 835.847 Q147.42 833.162 147.42 828.532 Q147.42 824.296 145.429 821.472 Q143.601 818.926 140.036 818.926 M140.036 815.546 L154.179 815.546 L154.179 819.805 L149.411 819.805 Q151.934 823.417 151.934 828.532 Q151.934 834.898 148.763 838.509 Q145.591 842.143 140.036 842.143 Q134.457 842.143 131.309 838.509 Q128.138 834.898 128.138 828.532 Q128.138 822.12 131.309 818.532 Q133.925 815.546 140.036 815.546 Z" fill="#000000" fill-rule="nonzero" fill-opacity="1" /><path clip-path="url(#clip320)" d="M165.198 841.472 L157.281 815.546 L161.864 815.546 L168.554 837.305 Q171.332 834.435 173.647 830.454 Q175.406 827.467 175.499 824.875 Q175.545 823.648 174.989 821.333 Q174.341 818.579 171.888 815.546 L176.193 815.546 L176.193 815.546 Q177.79 817.606 178.855 820.477 Q179.827 823.116 179.827 824.921 Q179.827 829.458 176.679 833.509 Q172.582 838.787 169.735 841.472 L165.198 841.472 Z" fill="#000000" fill-rule="nonzero" fill-opacity="1" /><path clip-path="url(#clip324)" d="M184.517 1431.79 L184.517 1467.41 L314.845 1467.41 L314.845 1431.79 L184.517 1431.79 L184.517 1431.79  Z" fill="#009af9" fill-rule="evenodd" fill-opacity="1"/>
<polyline clip-path="url(#clip324)" style="stroke:#000000; stroke-linecap:round; stroke-linejoin:round; stroke-width:4; stroke-opacity:1; fill:none" points="184.517,1431.79 184.517,1467.41 314.845,1467.41 314.845,1431.79 184.517,1431.79 "/>
<path clip-path="url(#clip324)" d="M314.845 1280.42 L314.845 1467.41 L445.173 1467.41 L445.173 1280.42 L314.845 1280.42 L314.845 1280.42  Z" fill="#009af9" fill-rule="evenodd" fill-opacity="1"/>
<polyline clip-path="url(#clip324)" style="stroke:#000000; stroke-linecap:round; stroke-linejoin:round; stroke-width:4; stroke-opacity:1; fill:none" points="314.845,1280.42 314.845,1467.41 445.173,1467.41 445.173,1280.42 314.845,1280.42 "/>
<path clip-path="url(#clip324)" d="M445.173 1013.3 L445.173 1467.41 L575.5 1467.41 L575.5 1013.3 L445.173 1013.3 L445.173 1013.3  Z" fill="#009af9" fill-rule="evenodd" fill-opacity="1"/>
<polyline clip-path="url(#clip324)" style="stroke:#000000; stroke-linecap:round; stroke-linejoin:round; stroke-width:4; stroke-opacity:1; fill:none" points="445.173,1013.3 445.173,1467.41 575.5,1467.41 575.5,1013.3 445.173,1013.3 "/>
<path clip-path="url(#clip324)" d="M575.5 897.552 L575.5 1467.41 L705.828 1467.41 L705.828 897.552 L575.5 897.552 L575.5 897.552  Z" fill="#009af9" fill-rule="evenodd" fill-opacity="1"/>
<polyline clip-path="url(#clip324)" style="stroke:#000000; stroke-linecap:round; stroke-linejoin:round; stroke-width:4; stroke-opacity:1; fill:none" points="575.5,897.552 575.5,1467.41 705.828,1467.41 705.828,897.552 575.5,897.552 "/>
<path clip-path="url(#clip324)" d="M705.828 1111.25 L705.828 1467.41 L836.155 1467.41 L836.155 1111.25 L705.828 1111.25 L705.828 1111.25  Z" fill="#009af9" fill-rule="evenodd" fill-opacity="1"/>
<polyline clip-path="url(#clip324)" style="stroke:#000000; stroke-linecap:round; stroke-linejoin:round; stroke-width:4; stroke-opacity:1; fill:none" points="705.828,1111.25 705.828,1467.41 836.155,1467.41 836.155,1111.25 705.828,1111.25 "/>
<path clip-path="url(#clip324)" d="M836.155 1333.85 L836.155 1467.41 L966.483 1467.41 L966.483 1333.85 L836.155 1333.85 L836.155 1333.85  Z" fill="#009af9" fill-rule="evenodd" fill-opacity="1"/>
<polyline clip-path="url(#clip324)" style="stroke:#000000; stroke-linecap:round; stroke-linejoin:round; stroke-width:4; stroke-opacity:1; fill:none" points="836.155,1333.85 836.155,1467.41 966.483,1467.41 966.483,1333.85 836.155,1333.85 "/>
<path clip-path="url(#clip324)" d="M966.483 1458.5 L966.483 1467.41 L1096.81 1467.41 L1096.81 1458.5 L966.483 1458.5 L966.483 1458.5  Z" fill="#009af9" fill-rule="evenodd" fill-opacity="1"/>
<polyline clip-path="url(#clip324)" style="stroke:#000000; stroke-linecap:round; stroke-linejoin:round; stroke-width:4; stroke-opacity:1; fill:none" points="966.483,1458.5 966.483,1467.41 1096.81,1467.41 1096.81,1458.5 966.483,1458.5 "/>
<circle clip-path="url(#clip324)" style="fill:#009af9; stroke:none; fill-opacity:0" cx="249.681" cy="1431.79" r="2"/>
<circle clip-path="url(#clip324)" style="fill:#009af9; stroke:none; fill-opacity:0" cx="380.009" cy="1280.42" r="2"/>
<circle clip-path="url(#clip324)" style="fill:#009af9; stroke:none; fill-opacity:0" cx="510.336" cy="1013.3" r="2"/>
<circle clip-path="url(#clip324)" style="fill:#009af9; stroke:none; fill-opacity:0" cx="640.664" cy="897.552" r="2"/>
<circle clip-path="url(#clip324)" style="fill:#009af9; stroke:none; fill-opacity:0" cx="770.991" cy="1111.25" r="2"/>
<circle clip-path="url(#clip324)" style="fill:#009af9; stroke:none; fill-opacity:0" cx="901.319" cy="1333.85" r="2"/>
<circle clip-path="url(#clip324)" style="fill:#009af9; stroke:none; fill-opacity:0" cx="1031.65" cy="1458.5" r="2"/>
<polyline clip-path="url(#clip324)" style="stroke:#ff0000; stroke-linecap:round; stroke-linejoin:round; stroke-width:8; stroke-opacity:1; fill:none" stroke-dasharray="32, 20" points="638.656,2037.26 638.656,327.698 "/>
<polyline clip-path="url(#clip324)" style="stroke:#ff0000; stroke-linecap:round; stroke-linejoin:round; stroke-width:6; stroke-opacity:1; fill:none" stroke-dasharray="24, 12, 3, 12" points="329.486,2037.26 329.486,327.698 "/>
<polyline clip-path="url(#clip324)" style="stroke:#ff0000; stroke-linecap:round; stroke-linejoin:round; stroke-width:6; stroke-opacity:1; fill:none" stroke-dasharray="24, 12, 3, 12" points="949.326,2037.26 949.326,327.698 "/>
</svg>
