<?xml version="1.0" encoding="utf-8"?>
<svg xmlns="http://www.w3.org/2000/svg" xmlns:xlink="http://www.w3.org/1999/xlink" width="600" height="400" viewBox="0 0 2400 1600">
<defs>
  <clipPath id="clip230">
    <rect x="0" y="0" width="2400" height="1600"/>
  </clipPath>
</defs>
<path clip-path="url(#clip230)" d="M0 1600 L2400 1600 L2400 0 L0 0  Z" fill="#ffffff" fill-rule="evenodd" fill-opacity="1"/>
<defs>
  <clipPath id="clip231">
    <rect x="162" y="0" width="2195" height="1600"/>
  </clipPath>
</defs>
<path clip-path="url(#clip230)" d="M161.818 667.406 L1152.94 667.406 L1152.94 97.5521 L161.818 97.5521  Z" fill="#ffffff" fill-rule="evenodd" fill-opacity="1"/>
<defs>
  <clipPath id="clip232">
    <rect x="161" y="97" width="992" height="571"/>
  </clipPath>
</defs>
<polyline clip-path="url(#clip232)" style="stroke:#000000; stroke-linecap:round; stroke-linejoin:round; stroke-width:2; stroke-opacity:0.1; fill:none" points="180.376,667.406 180.376,97.5521 "/>
<polyline clip-path="url(#clip232)" style="stroke:#000000; stroke-linecap:round; stroke-linejoin:round; stroke-width:2; stroke-opacity:0.1; fill:none" points="442.757,667.406 442.757,97.5521 "/>
<polyline clip-path="url(#clip232)" style="stroke:#000000; stroke-linecap:round; stroke-linejoin:round; stroke-width:2; stroke-opacity:0.1; fill:none" points="705.138,667.406 705.138,97.5521 "/>
<polyline clip-path="url(#clip232)" style="stroke:#000000; stroke-linecap:round; stroke-linejoin:round; stroke-width:2; stroke-opacity:0.1; fill:none" points="967.519,667.406 967.519,97.5521 "/>
<polyline clip-path="url(#clip232)" style="stroke:#000000; stroke-linecap:round; stroke-linejoin:round; stroke-width:2; stroke-opacity:0.1; fill:none" points="161.818,651.278 1152.94,651.278 "/>
<polyline clip-path="url(#clip232)" style="stroke:#000000; stroke-linecap:round; stroke-linejoin:round; stroke-width:2; stroke-opacity:0.1; fill:none" points="161.818,529.133 1152.94,529.133 "/>
<polyline clip-path="url(#clip232)" style="stroke:#000000; stroke-linecap:round; stroke-linejoin:round; stroke-width:2; stroke-opacity:0.1; fill:none" points="161.818,406.988 1152.94,406.988 "/>
<polyline clip-path="url(#clip232)" style="stroke:#000000; stroke-linecap:round; stroke-linejoin:round; stroke-width:2; stroke-opacity:0.1; fill:none" points="161.818,284.842 1152.94,284.842 "/>
<polyline clip-path="url(#clip232)" style="stroke:#000000; stroke-linecap:round; stroke-linejoin:round; stroke-width:2; stroke-opacity:0.1; fill:none" points="161.818,162.697 1152.94,162.697 "/>
<polyline clip-path="url(#clip230)" style="stroke:#000000; stroke-linecap:round; stroke-linejoin:round; stroke-width:4; stroke-opacity:1; fill:none" points="161.818,667.406 1152.94,667.406 "/>
<polyline clip-path="url(#clip230)" style="stroke:#000000; stroke-linecap:round; stroke-linejoin:round; stroke-width:4; stroke-opacity:1; fill:none" points="180.376,667.406 180.376,648.509 "/>
<polyline clip-path="url(#clip230)" style="stroke:#000000; stroke-linecap:round; stroke-linejoin:round; stroke-width:4; stroke-opacity:1; fill:none" points="442.757,667.406 442.757,648.509 "/>
<polyline clip-path="url(#clip230)" style="stroke:#000000; stroke-linecap:round; stroke-linejoin:round; stroke-width:4; stroke-opacity:1; fill:none" points="705.138,667.406 705.138,648.509 "/>
<polyline clip-path="url(#clip230)" style="stroke:#000000; stroke-linecap:round; stroke-linejoin:round; stroke-width:4; stroke-opacity:1; fill:none" points="967.519,667.406 967.519,648.509 "/>
<path clip-path="url(#clip230)" d="M126.527 739.139 Q124.612 741.054 125.533 743.914 Q126.453 746.75 130.234 750.531 Q134.003 754.3 136.851 755.233 Q139.699 756.141 141.614 754.226 Q143.542 752.299 142.621 749.463 Q141.7 746.603 137.932 742.834 Q134.151 739.053 131.302 738.144 Q128.454 737.211 126.527 739.139 M124.563 737.175 Q127.644 734.093 131.708 734.916 Q135.771 735.714 140.411 740.354 Q145.039 744.982 145.85 749.058 Q146.66 753.109 143.579 756.19 Q140.497 759.272 136.434 758.474 Q132.371 757.651 127.742 753.023 Q123.102 748.383 122.292 744.332 Q121.482 740.256 124.563 737.175 Z" fill="#000000" fill-rule="nonzero" fill-opacity="1" /><path clip-path="url(#clip230)" d="M150.797 742.024 L153.387 739.433 L156.505 742.552 L153.915 745.142 L150.797 742.024 Z" fill="#000000" fill-rule="nonzero" fill-opacity="1" /><path clip-path="url(#clip230)" d="M158.506 723.143 Q156.739 724.911 156.665 726.875 Q156.604 728.827 158.261 730.484 Q159.918 732.141 161.87 732.08 Q163.834 732.006 165.602 730.239 Q167.37 728.471 167.443 726.507 Q167.505 724.53 165.86 722.885 Q164.202 721.228 162.238 721.302 Q160.286 721.363 158.506 723.143 M154.971 724.567 Q152.982 725.77 150.993 725.574 Q149.017 725.365 147.446 723.794 Q145.248 721.596 145.53 718.761 Q145.825 715.912 148.55 713.187 Q151.288 710.45 154.124 710.167 Q156.96 709.885 159.157 712.082 Q160.728 713.654 160.925 715.642 Q161.133 717.619 159.943 719.595 Q162.152 718.22 164.362 718.441 Q166.584 718.65 168.339 720.406 Q171.003 723.069 170.795 726.126 Q170.598 729.171 167.566 732.203 Q164.534 735.235 161.477 735.444 Q158.433 735.64 155.769 732.976 Q154.013 731.221 153.805 728.999 Q153.596 726.777 154.971 724.567 M150.146 721.559 Q151.57 722.983 153.252 722.898 Q154.946 722.799 156.554 721.191 Q158.15 719.595 158.249 717.901 Q158.359 716.195 156.935 714.771 Q155.511 713.347 153.805 713.457 Q152.11 713.555 150.515 715.151 Q148.906 716.76 148.808 718.454 Q148.722 720.135 150.146 721.559 Z" fill="#000000" fill-rule="nonzero" fill-opacity="1" /><path clip-path="url(#clip230)" d="M166.51 699.156 Q164.595 701.071 165.516 703.931 Q166.437 706.767 170.218 710.548 Q173.986 714.317 176.835 715.25 Q179.683 716.158 181.598 714.243 Q183.525 712.316 182.604 709.48 Q181.684 706.619 177.915 702.851 Q174.134 699.07 171.286 698.161 Q168.438 697.228 166.51 699.156 M164.546 697.191 Q167.627 694.11 171.691 694.933 Q175.754 695.731 180.395 700.371 Q185.023 704.999 185.833 709.075 Q186.643 713.126 183.562 716.207 Q180.481 719.288 176.417 718.49 Q172.354 717.668 167.726 713.04 Q163.085 708.399 162.275 704.348 Q161.465 700.273 164.546 697.191 Z" fill="#000000" fill-rule="nonzero" fill-opacity="1" /><path clip-path="url(#clip230)" d="M389.436 738.611 Q387.521 740.526 388.441 743.386 Q389.362 746.222 393.143 750.003 Q396.912 753.772 399.76 754.705 Q402.608 755.613 404.523 753.698 Q406.45 751.771 405.53 748.935 Q404.609 746.075 400.84 742.306 Q397.059 738.525 394.211 737.617 Q391.363 736.684 389.436 738.611 M387.472 736.647 Q390.553 733.565 394.616 734.388 Q398.68 735.186 403.32 739.826 Q407.948 744.454 408.758 748.53 Q409.569 752.581 406.487 755.662 Q403.406 758.744 399.343 757.946 Q395.279 757.123 390.651 752.495 Q386.011 747.855 385.201 743.804 Q384.39 739.728 387.472 736.647 Z" fill="#000000" fill-rule="nonzero" fill-opacity="1" /><path clip-path="url(#clip230)" d="M413.706 741.496 L416.296 738.906 L419.414 742.024 L416.824 744.614 L413.706 741.496 Z" fill="#000000" fill-rule="nonzero" fill-opacity="1" /><path clip-path="url(#clip230)" d="M421.415 722.615 Q419.647 724.383 419.574 726.347 Q419.512 728.299 421.169 729.956 Q422.827 731.614 424.779 731.552 Q426.743 731.479 428.511 729.711 Q430.278 727.943 430.352 725.979 Q430.413 724.002 428.768 722.357 Q427.111 720.7 425.147 720.774 Q423.195 720.835 421.415 722.615 M417.879 724.039 Q415.891 725.242 413.902 725.046 Q411.926 724.837 410.354 723.266 Q408.157 721.068 408.439 718.233 Q408.734 715.385 411.459 712.659 Q414.197 709.922 417.032 709.639 Q419.868 709.357 422.066 711.554 Q423.637 713.126 423.833 715.115 Q424.042 717.091 422.851 719.067 Q425.061 717.692 427.271 717.913 Q429.493 718.122 431.248 719.878 Q433.912 722.542 433.703 725.598 Q433.507 728.643 430.475 731.675 Q427.443 734.707 424.386 734.916 Q421.341 735.112 418.677 732.448 Q416.922 730.693 416.713 728.471 Q416.505 726.249 417.879 724.039 M413.055 721.032 Q414.479 722.456 416.161 722.37 Q417.855 722.271 419.463 720.663 Q421.059 719.067 421.157 717.373 Q421.268 715.667 419.844 714.243 Q418.42 712.819 416.713 712.929 Q415.019 713.028 413.423 714.623 Q411.815 716.232 411.717 717.926 Q411.631 719.608 413.055 721.032 Z" fill="#000000" fill-rule="nonzero" fill-opacity="1" /><path clip-path="url(#clip230)" d="M422.508 702.274 L432.242 692.539 L434.329 694.626 L426.866 702.09 L431.359 706.583 Q431.715 705.858 432.169 705.232 Q432.611 704.594 433.151 704.054 Q436.22 700.985 439.694 700.874 Q443.168 700.764 446.041 703.636 Q448.999 706.595 448.803 710.081 Q448.594 713.555 445.243 716.907 Q444.089 718.061 442.689 719.067 Q441.302 720.062 439.633 720.946 L437.141 718.454 Q438.847 717.95 440.32 717.066 Q441.793 716.183 443.107 714.869 Q445.231 712.745 445.353 710.388 Q445.476 708.031 443.561 706.116 Q441.646 704.201 439.289 704.324 Q436.932 704.447 434.808 706.57 Q433.814 707.565 433.04 708.78 Q432.279 709.983 431.715 711.481 L422.508 702.274 Z" fill="#000000" fill-rule="nonzero" fill-opacity="1" /><path clip-path="url(#clip230)" d="M651.289 739.139 Q649.374 741.054 650.294 743.914 Q651.215 746.75 654.996 750.531 Q658.765 754.3 661.613 755.233 Q664.461 756.141 666.376 754.226 Q668.303 752.299 667.383 749.463 Q666.462 746.603 662.693 742.834 Q658.912 739.053 656.064 738.144 Q653.216 737.211 651.289 739.139 M649.325 737.175 Q652.406 734.093 656.469 734.916 Q660.533 735.714 665.173 740.354 Q669.801 744.982 670.611 749.058 Q671.421 753.109 668.34 756.19 Q665.259 759.272 661.195 758.474 Q657.132 757.651 652.504 753.023 Q647.864 748.383 647.053 744.332 Q646.243 740.256 649.325 737.175 Z" fill="#000000" fill-rule="nonzero" fill-opacity="1" /><path clip-path="url(#clip230)" d="M675.559 742.024 L678.149 739.433 L681.267 742.552 L678.677 745.142 L675.559 742.024 Z" fill="#000000" fill-rule="nonzero" fill-opacity="1" /><path clip-path="url(#clip230)" d="M686.361 736.696 L684.103 734.437 Q685.478 733.946 686.668 733.222 Q687.859 732.497 688.78 731.577 Q691.235 729.122 690.879 726.188 Q690.523 723.229 687.344 719.681 Q687.687 721.449 687.159 723.106 Q686.632 724.764 685.306 726.089 Q682.556 728.839 679.29 728.79 Q676.025 728.716 673.14 725.832 Q670.317 723.008 670.28 719.632 Q670.243 716.256 673.017 713.482 Q676.197 710.302 680.309 711.076 Q684.422 711.825 689.062 716.465 Q693.396 720.798 693.924 725.451 Q694.451 730.079 690.977 733.553 Q690.044 734.486 688.903 735.26 Q687.761 736.033 686.361 736.696 M683.526 723.99 Q685.195 722.321 685.023 720.209 Q684.864 718.085 682.875 716.097 Q680.899 714.12 678.775 713.961 Q676.651 713.776 674.982 715.446 Q673.312 717.116 673.484 719.252 Q673.656 721.363 675.632 723.339 Q677.621 725.328 679.732 725.5 Q681.856 725.66 683.526 723.99 Z" fill="#000000" fill-rule="nonzero" fill-opacity="1" /><path clip-path="url(#clip230)" d="M691.272 699.156 Q689.357 701.071 690.278 703.931 Q691.198 706.767 694.979 710.548 Q698.748 714.317 701.596 715.25 Q704.444 716.158 706.359 714.243 Q708.287 712.316 707.366 709.48 Q706.445 706.619 702.676 702.851 Q698.895 699.07 696.047 698.161 Q693.199 697.228 691.272 699.156 M689.308 697.191 Q692.389 694.11 696.452 694.933 Q700.516 695.731 705.156 700.371 Q709.784 704.999 710.594 709.075 Q711.405 713.126 708.323 716.207 Q705.242 719.288 701.179 718.49 Q697.115 717.668 692.487 713.04 Q687.847 708.399 687.037 704.348 Q686.226 700.273 689.308 697.191 Z" fill="#000000" fill-rule="nonzero" fill-opacity="1" /><path clip-path="url(#clip230)" d="M914.197 738.611 Q912.282 740.526 913.203 743.386 Q914.124 746.222 917.905 750.003 Q921.673 753.772 924.522 754.705 Q927.37 755.613 929.285 753.698 Q931.212 751.771 930.291 748.935 Q929.371 746.075 925.602 742.306 Q921.821 738.525 918.973 737.617 Q916.125 736.684 914.197 738.611 M912.233 736.647 Q915.314 733.565 919.378 734.388 Q923.441 735.186 928.082 739.826 Q932.71 744.454 933.52 748.53 Q934.33 752.581 931.249 755.662 Q928.168 758.744 924.104 757.946 Q920.041 757.123 915.413 752.495 Q910.772 747.855 909.962 743.804 Q909.152 739.728 912.233 736.647 Z" fill="#000000" fill-rule="nonzero" fill-opacity="1" /><path clip-path="url(#clip230)" d="M938.467 741.496 L941.057 738.906 L944.176 742.024 L941.585 744.614 L938.467 741.496 Z" fill="#000000" fill-rule="nonzero" fill-opacity="1" /><path clip-path="url(#clip230)" d="M949.27 736.168 L947.011 733.909 Q948.386 733.418 949.577 732.694 Q950.768 731.97 951.689 731.049 Q954.144 728.594 953.788 725.66 Q953.432 722.701 950.252 719.153 Q950.596 720.921 950.068 722.578 Q949.54 724.236 948.214 725.561 Q945.465 728.311 942.199 728.262 Q938.934 728.189 936.049 725.304 Q933.225 722.48 933.188 719.104 Q933.152 715.728 935.926 712.954 Q939.106 709.774 943.218 710.548 Q947.331 711.297 951.971 715.937 Q956.304 720.27 956.832 724.923 Q957.36 729.551 953.886 733.025 Q952.953 733.958 951.811 734.732 Q950.67 735.505 949.27 736.168 M946.434 723.462 Q948.104 721.793 947.932 719.681 Q947.772 717.557 945.784 715.569 Q943.807 713.592 941.684 713.433 Q939.56 713.249 937.89 714.918 Q936.221 716.588 936.393 718.724 Q936.564 720.835 938.541 722.812 Q940.53 724.8 942.641 724.972 Q944.765 725.132 946.434 723.462 Z" fill="#000000" fill-rule="nonzero" fill-opacity="1" /><path clip-path="url(#clip230)" d="M947.269 702.274 L957.004 692.539 L959.091 694.626 L951.627 702.09 L956.12 706.583 Q956.476 705.858 956.93 705.232 Q957.372 704.594 957.913 704.054 Q960.982 700.985 964.456 700.874 Q967.93 700.764 970.802 703.636 Q973.761 706.595 973.565 710.081 Q973.356 713.555 970.004 716.907 Q968.851 718.061 967.451 719.067 Q966.064 720.062 964.394 720.946 L961.902 718.454 Q963.609 717.95 965.082 717.066 Q966.555 716.183 967.868 714.869 Q969.992 712.745 970.115 710.388 Q970.238 708.031 968.323 706.116 Q966.408 704.201 964.051 704.324 Q961.694 704.447 959.57 706.57 Q958.575 707.565 957.802 708.78 Q957.041 709.983 956.476 711.481 L947.269 702.274 Z" fill="#000000" fill-rule="nonzero" fill-opacity="1" /><polyline clip-path="url(#clip230)" style="stroke:#000000; stroke-linecap:round; stroke-linejoin:round; stroke-width:4; stroke-opacity:1; fill:none" points="161.818,667.406 161.818,97.5521 "/>
<polyline clip-path="url(#clip230)" style="stroke:#000000; stroke-linecap:round; stroke-linejoin:round; stroke-width:4; stroke-opacity:1; fill:none" points="161.818,651.278 180.716,651.278 "/>
<polyline clip-path="url(#clip230)" style="stroke:#000000; stroke-linecap:round; stroke-linejoin:round; stroke-width:4; stroke-opacity:1; fill:none" points="161.818,529.133 180.716,529.133 "/>
<polyline clip-path="url(#clip230)" style="stroke:#000000; stroke-linecap:round; stroke-linejoin:round; stroke-width:4; stroke-opacity:1; fill:none" points="161.818,406.988 180.716,406.988 "/>
<polyline clip-path="url(#clip230)" style="stroke:#000000; stroke-linecap:round; stroke-linejoin:round; stroke-width:4; stroke-opacity:1; fill:none" points="161.818,284.842 180.716,284.842 "/>
<polyline clip-path="url(#clip230)" style="stroke:#000000; stroke-linecap:round; stroke-linejoin:round; stroke-width:4; stroke-opacity:1; fill:none" points="161.818,162.697 180.716,162.697 "/>
<path clip-path="url(#clip230)" d="M116.86 640.627 Q114.152 640.627 112.78 643.301 Q111.426 645.957 111.426 651.304 Q111.426 656.634 112.78 659.308 Q114.152 661.964 116.86 661.964 Q119.586 661.964 120.94 659.308 Q122.311 656.634 122.311 651.304 Q122.311 645.957 120.94 643.301 Q119.586 640.627 116.86 640.627 M116.86 637.85 Q121.217 637.85 123.509 641.305 Q125.818 644.742 125.818 651.304 Q125.818 657.85 123.509 661.304 Q121.217 664.742 116.86 664.742 Q112.502 664.742 110.193 661.304 Q107.902 657.85 107.902 651.304 Q107.902 644.742 110.193 641.305 Q112.502 637.85 116.86 637.85 Z" fill="#000000" fill-rule="nonzero" fill-opacity="1" /><path clip-path="url(#clip230)" d="M110.888 539.142 L116.617 539.142 L116.617 519.368 L110.384 520.618 L110.384 517.423 L116.582 516.173 L120.089 516.173 L120.089 539.142 L125.818 539.142 L125.818 542.093 L110.888 542.093 L110.888 539.142 Z" fill="#000000" fill-rule="nonzero" fill-opacity="1" /><path clip-path="url(#clip230)" d="M113.579 416.996 L125.818 416.996 L125.818 419.948 L109.36 419.948 L109.36 416.996 Q111.356 414.93 114.794 411.458 Q118.249 407.969 119.134 406.962 Q120.818 405.069 121.478 403.767 Q122.155 402.448 122.155 401.181 Q122.155 399.115 120.697 397.812 Q119.256 396.51 116.929 396.51 Q115.28 396.51 113.44 397.083 Q111.617 397.656 109.533 398.819 L109.533 395.278 Q111.652 394.427 113.492 393.993 Q115.332 393.559 116.86 393.559 Q120.888 393.559 123.283 395.573 Q125.679 397.587 125.679 400.955 Q125.679 402.552 125.072 403.993 Q124.481 405.417 122.901 407.361 Q122.467 407.865 120.141 410.278 Q117.815 412.674 113.579 416.996 Z" fill="#000000" fill-rule="nonzero" fill-opacity="1" /><path clip-path="url(#clip230)" d="M120.471 283.827 Q122.988 284.365 124.395 286.066 Q125.818 287.768 125.818 290.268 Q125.818 294.105 123.179 296.205 Q120.54 298.306 115.679 298.306 Q114.047 298.306 112.311 297.976 Q110.593 297.664 108.752 297.021 L108.752 293.636 Q110.211 294.487 111.947 294.921 Q113.683 295.355 115.575 295.355 Q118.874 295.355 120.592 294.052 Q122.329 292.75 122.329 290.268 Q122.329 287.976 120.714 286.691 Q119.117 285.389 116.252 285.389 L113.231 285.389 L113.231 282.507 L116.391 282.507 Q118.978 282.507 120.349 281.483 Q121.721 280.441 121.721 278.497 Q121.721 276.5 120.297 275.441 Q118.891 274.365 116.252 274.365 Q114.811 274.365 113.162 274.678 Q111.513 274.99 109.533 275.65 L109.533 272.525 Q111.53 271.969 113.266 271.691 Q115.02 271.414 116.565 271.414 Q120.558 271.414 122.884 273.237 Q125.21 275.042 125.21 278.132 Q125.21 280.285 123.978 281.778 Q122.745 283.254 120.471 283.827 Z" fill="#000000" fill-rule="nonzero" fill-opacity="1" /><path clip-path="url(#clip230)" d="M118.631 152.793 L109.777 166.629 L118.631 166.629 L118.631 152.793 M117.711 149.737 L122.12 149.737 L122.12 166.629 L125.818 166.629 L125.818 169.546 L122.12 169.546 L122.12 175.657 L118.631 175.657 L118.631 169.546 L106.929 169.546 L106.929 166.161 L117.711 149.737 Z" fill="#000000" fill-rule="nonzero" fill-opacity="1" /><path clip-path="url(#clip230)" d="M163.901 20.1758 Q165.313 17.8147 168.809 15.7314 Q170.175 14.9212 174.387 14.9212 Q179.11 14.9212 182.049 18.6712 Q185.012 22.4212 185.012 28.5323 Q185.012 34.6433 182.049 38.3933 Q179.11 42.1433 174.387 42.1433 Q171.54 42.1433 169.48 41.0322 Q167.443 39.8979 166.1 37.5831 L166.1 51.3331 L161.818 51.3331 L161.818 28.7637 Q161.818 23.4165 163.901 20.1758 M180.591 28.5323 Q180.591 23.8332 178.647 21.1712 Q176.725 18.486 173.346 18.486 Q169.966 18.486 168.022 21.1712 Q166.1 23.8332 166.1 28.5323 Q166.1 33.2313 168.022 35.9165 Q169.966 38.5785 173.346 38.5785 Q176.725 38.5785 178.647 35.9165 Q180.591 33.2313 180.591 28.5323 Z" fill="#000000" fill-rule="nonzero" fill-opacity="1" /><polyline clip-path="url(#clip232)" style="stroke:#009af9; stroke-linecap:round; stroke-linejoin:round; stroke-width:4; stroke-opacity:1; fill:none" points="189.869,597.313 248.307,601.24 306.746,605.665 365.185,610.691 423.623,616.447 482.062,623.107 540.501,630.899 598.939,640.141 657.378,651.278 715.817,637.597 774.256,620.388 832.694,598.086 891.133,568.043 949.572,525.395 1008.01,460.145 1066.45,348.099 1124.89,113.68 "/>
<circle clip-path="url(#clip232)" cx="657.378" cy="651.278" r="10.8" fill="#ff0000" fill-rule="evenodd" fill-opacity="1" stroke="#000000" stroke-opacity="1" stroke-width="3.2"/>
<path clip-path="url(#clip230)" d="M1361.64 667.406 L2352.76 667.406 L2352.76 97.5521 L1361.64 97.5521  Z" fill="#ffffff" fill-rule="evenodd" fill-opacity="1"/>
<defs>
  <clipPath id="clip233">
    <rect x="1361" y="97" width="992" height="571"/>
  </clipPath>
</defs>
<polyline clip-path="url(#clip233)" style="stroke:#000000; stroke-linecap:round; stroke-linejoin:round; stroke-width:2; stroke-opacity:0.1; fill:none" points="1387.62,667.406 1387.62,97.5521 "/>
<polyline clip-path="url(#clip233)" style="stroke:#000000; stroke-linecap:round; stroke-linejoin:round; stroke-width:2; stroke-opacity:0.1; fill:none" points="1532.64,667.406 1532.64,97.5521 "/>
<polyline clip-path="url(#clip233)" style="stroke:#000000; stroke-linecap:round; stroke-linejoin:round; stroke-width:2; stroke-opacity:0.1; fill:none" points="1677.66,667.406 1677.66,97.5521 "/>
<polyline clip-path="url(#clip233)" style="stroke:#000000; stroke-linecap:round; stroke-linejoin:round; stroke-width:2; stroke-opacity:0.1; fill:none" points="1822.67,667.406 1822.67,97.5521 "/>
<polyline clip-path="url(#clip233)" style="stroke:#000000; stroke-linecap:round; stroke-linejoin:round; stroke-width:2; stroke-opacity:0.1; fill:none" points="1967.69,667.406 1967.69,97.5521 "/>
<polyline clip-path="url(#clip233)" style="stroke:#000000; stroke-linecap:round; stroke-linejoin:round; stroke-width:2; stroke-opacity:0.1; fill:none" points="2112.71,667.406 2112.71,97.5521 "/>
<polyline clip-path="url(#clip233)" style="stroke:#000000; stroke-linecap:round; stroke-linejoin:round; stroke-width:2; stroke-opacity:0.1; fill:none" points="2257.73,667.406 2257.73,97.5521 "/>
<polyline clip-path="url(#clip233)" style="stroke:#000000; stroke-linecap:round; stroke-linejoin:round; stroke-width:2; stroke-opacity:0.1; fill:none" points="1361.64,651.278 2352.76,651.278 "/>
<polyline clip-path="url(#clip233)" style="stroke:#000000; stroke-linecap:round; stroke-linejoin:round; stroke-width:2; stroke-opacity:0.1; fill:none" points="1361.64,508.274 2352.76,508.274 "/>
<polyline clip-path="url(#clip233)" style="stroke:#000000; stroke-linecap:round; stroke-linejoin:round; stroke-width:2; stroke-opacity:0.1; fill:none" points="1361.64,365.269 2352.76,365.269 "/>
<polyline clip-path="url(#clip233)" style="stroke:#000000; stroke-linecap:round; stroke-linejoin:round; stroke-width:2; stroke-opacity:0.1; fill:none" points="1361.64,222.264 2352.76,222.264 "/>
<polyline clip-path="url(#clip230)" style="stroke:#000000; stroke-linecap:round; stroke-linejoin:round; stroke-width:4; stroke-opacity:1; fill:none" points="1361.64,667.406 2352.76,667.406 "/>
<polyline clip-path="url(#clip230)" style="stroke:#000000; stroke-linecap:round; stroke-linejoin:round; stroke-width:4; stroke-opacity:1; fill:none" points="1387.62,667.406 1387.62,648.509 "/>
<polyline clip-path="url(#clip230)" style="stroke:#000000; stroke-linecap:round; stroke-linejoin:round; stroke-width:4; stroke-opacity:1; fill:none" points="1532.64,667.406 1532.64,648.509 "/>
<polyline clip-path="url(#clip230)" style="stroke:#000000; stroke-linecap:round; stroke-linejoin:round; stroke-width:4; stroke-opacity:1; fill:none" points="1677.66,667.406 1677.66,648.509 "/>
<polyline clip-path="url(#clip230)" style="stroke:#000000; stroke-linecap:round; stroke-linejoin:round; stroke-width:4; stroke-opacity:1; fill:none" points="1822.67,667.406 1822.67,648.509 "/>
<polyline clip-path="url(#clip230)" style="stroke:#000000; stroke-linecap:round; stroke-linejoin:round; stroke-width:4; stroke-opacity:1; fill:none" points="1967.69,667.406 1967.69,648.509 "/>
<polyline clip-path="url(#clip230)" style="stroke:#000000; stroke-linecap:round; stroke-linejoin:round; stroke-width:4; stroke-opacity:1; fill:none" points="2112.71,667.406 2112.71,648.509 "/>
<polyline clip-path="url(#clip230)" style="stroke:#000000; stroke-linecap:round; stroke-linejoin:round; stroke-width:4; stroke-opacity:1; fill:none" points="2257.73,667.406 2257.73,648.509 "/>
<path clip-path="url(#clip230)" d="M1333.87 739.041 Q1331.95 740.956 1332.87 743.816 Q1333.8 746.652 1337.58 750.433 Q1341.35 754.202 1344.19 755.135 Q1347.04 756.043 1348.96 754.128 Q1350.88 752.201 1349.96 749.365 Q1349.04 746.504 1345.27 742.736 Q1341.49 738.955 1338.64 738.046 Q1335.8 737.113 1333.87 739.041 M1331.9 737.076 Q1334.99 733.995 1339.05 734.818 Q1343.11 735.616 1347.75 740.256 Q1352.38 744.884 1353.19 748.96 Q1354 753.011 1350.92 756.092 Q1347.84 759.173 1343.78 758.375 Q1339.71 757.553 1335.08 752.925 Q1330.44 748.285 1329.63 744.233 Q1328.82 740.158 1331.9 737.076 Z" fill="#000000" fill-rule="nonzero" fill-opacity="1" /><path clip-path="url(#clip230)" d="M1358.14 741.926 L1360.73 739.335 L1363.85 742.453 L1361.26 745.044 L1358.14 741.926 Z" fill="#000000" fill-rule="nonzero" fill-opacity="1" /><path clip-path="url(#clip230)" d="M1369.3 732.829 L1377.95 724.174 L1380.04 726.261 L1368.4 737.899 L1366.31 735.812 Q1366.27 732.939 1366.24 728.054 Q1366.22 723.143 1366.13 721.805 Q1365.98 719.276 1365.53 717.889 Q1365.07 716.477 1364.18 715.581 Q1362.72 714.12 1360.77 714.231 Q1358.83 714.329 1357.18 715.974 Q1356.02 717.14 1355.12 718.846 Q1354.24 720.541 1353.58 722.836 L1351.08 720.332 Q1351.98 718.233 1352.97 716.624 Q1353.97 715.016 1355.05 713.936 Q1357.89 711.088 1361.01 710.818 Q1364.13 710.548 1366.51 712.929 Q1367.64 714.059 1368.23 715.507 Q1368.82 716.931 1369.08 719.423 Q1369.13 720.086 1369.19 723.438 Q1369.24 726.777 1369.3 732.829 Z" fill="#000000" fill-rule="nonzero" fill-opacity="1" /><path clip-path="url(#clip230)" d="M1384.94 720.602 L1382.68 718.343 Q1384.05 717.852 1385.24 717.128 Q1386.44 716.404 1387.36 715.483 Q1389.81 713.028 1389.46 710.094 Q1389.1 707.135 1385.92 703.587 Q1386.26 705.355 1385.74 707.012 Q1385.21 708.67 1383.88 709.995 Q1381.13 712.745 1377.87 712.696 Q1374.6 712.622 1371.72 709.738 Q1368.89 706.914 1368.86 703.538 Q1368.82 700.162 1371.59 697.388 Q1374.77 694.208 1378.89 694.982 Q1383 695.731 1387.64 700.371 Q1391.97 704.704 1392.5 709.357 Q1393.03 713.985 1389.55 717.459 Q1388.62 718.392 1387.48 719.166 Q1386.34 719.939 1384.94 720.602 M1382.1 707.896 Q1383.77 706.227 1383.6 704.115 Q1383.44 701.991 1381.45 700.003 Q1379.47 698.026 1377.35 697.867 Q1375.23 697.682 1373.56 699.352 Q1371.89 701.022 1372.06 703.158 Q1372.23 705.269 1374.21 707.246 Q1376.2 709.234 1378.31 709.406 Q1380.43 709.566 1382.1 707.896 Z" fill="#000000" fill-rule="nonzero" fill-opacity="1" /><path clip-path="url(#clip230)" d="M1478.79 739.139 Q1476.87 741.054 1477.79 743.914 Q1478.72 746.75 1482.5 750.531 Q1486.26 754.3 1489.11 755.233 Q1491.96 756.141 1493.88 754.226 Q1495.8 752.299 1494.88 749.463 Q1493.96 746.603 1490.19 742.834 Q1486.41 739.053 1483.56 738.144 Q1480.72 737.211 1478.79 739.139 M1476.82 737.175 Q1479.91 734.093 1483.97 734.916 Q1488.03 735.714 1492.67 740.354 Q1497.3 744.982 1498.11 749.058 Q1498.92 753.109 1495.84 756.19 Q1492.76 759.272 1488.7 758.474 Q1484.63 757.651 1480 753.023 Q1475.36 748.383 1474.55 744.332 Q1473.74 740.256 1476.82 737.175 Z" fill="#000000" fill-rule="nonzero" fill-opacity="1" /><path clip-path="url(#clip230)" d="M1503.06 742.024 L1505.65 739.433 L1508.77 742.552 L1506.18 745.142 L1503.06 742.024 Z" fill="#000000" fill-rule="nonzero" fill-opacity="1" /><path clip-path="url(#clip230)" d="M1511.8 719.755 Q1513.96 718.355 1516.16 718.564 Q1518.37 718.761 1520.13 720.528 Q1522.85 723.241 1522.47 726.593 Q1522.09 729.944 1518.65 733.381 Q1517.5 734.535 1516.03 735.53 Q1514.6 736.524 1512.84 737.371 L1510.45 734.977 Q1512.08 734.548 1513.62 733.627 Q1515.15 732.706 1516.49 731.368 Q1518.82 729.036 1519.12 726.9 Q1519.42 724.751 1517.67 722.996 Q1516.05 721.375 1514 721.609 Q1511.95 721.817 1509.92 723.843 L1507.78 725.979 L1505.75 723.941 L1507.98 721.707 Q1509.81 719.878 1510.06 718.184 Q1510.29 716.477 1508.91 715.102 Q1507.5 713.69 1505.75 713.948 Q1503.99 714.182 1502.13 716.047 Q1501.11 717.066 1500.16 718.454 Q1499.22 719.841 1498.28 721.707 L1496.07 719.497 Q1497.09 717.692 1498.12 716.268 Q1499.17 714.832 1500.26 713.74 Q1503.08 710.916 1506.02 710.56 Q1508.94 710.192 1511.12 712.377 Q1512.65 713.899 1512.83 715.827 Q1513 717.742 1511.8 719.755 Z" fill="#000000" fill-rule="nonzero" fill-opacity="1" /><path clip-path="url(#clip230)" d="M1518.77 699.156 Q1516.86 701.071 1517.78 703.931 Q1518.7 706.767 1522.48 710.548 Q1526.25 714.317 1529.1 715.25 Q1531.94 716.158 1533.86 714.243 Q1535.79 712.316 1534.87 709.48 Q1533.95 706.619 1530.18 702.851 Q1526.4 699.07 1523.55 698.161 Q1520.7 697.228 1518.77 699.156 M1516.81 697.191 Q1519.89 694.11 1523.95 694.933 Q1528.02 695.731 1532.66 700.371 Q1537.28 704.999 1538.09 709.075 Q1538.9 713.126 1535.82 716.207 Q1532.74 719.288 1528.68 718.49 Q1524.62 717.668 1519.99 713.04 Q1515.35 708.399 1514.54 704.348 Q1513.73 700.273 1516.81 697.191 Z" fill="#000000" fill-rule="nonzero" fill-opacity="1" /><path clip-path="url(#clip230)" d="M1624.46 738.488 Q1622.54 740.403 1623.46 743.264 Q1624.38 746.099 1628.16 749.88 Q1631.93 753.649 1634.78 754.582 Q1637.63 755.491 1639.54 753.576 Q1641.47 751.648 1640.55 748.812 Q1639.63 745.952 1635.86 742.183 Q1632.08 738.402 1629.23 737.494 Q1626.38 736.561 1624.46 738.488 M1622.49 736.524 Q1625.57 733.443 1629.64 734.265 Q1633.7 735.063 1638.34 739.704 Q1642.97 744.332 1643.78 748.407 Q1644.59 752.458 1641.51 755.54 Q1638.43 758.621 1634.36 757.823 Q1630.3 757.001 1625.67 752.372 Q1621.03 747.732 1620.22 743.681 Q1619.41 739.605 1622.49 736.524 Z" fill="#000000" fill-rule="nonzero" fill-opacity="1" /><path clip-path="url(#clip230)" d="M1648.73 741.373 L1651.32 738.783 L1654.44 741.901 L1651.85 744.491 L1648.73 741.373 Z" fill="#000000" fill-rule="nonzero" fill-opacity="1" /><path clip-path="url(#clip230)" d="M1657.47 719.104 Q1659.63 717.705 1661.83 717.913 Q1664.04 718.11 1665.8 719.878 Q1668.52 722.591 1668.14 725.942 Q1667.76 729.293 1664.32 732.731 Q1663.16 733.885 1661.7 734.879 Q1660.27 735.873 1658.51 736.72 L1656.12 734.327 Q1657.75 733.897 1659.28 732.976 Q1660.82 732.056 1662.16 730.717 Q1664.49 728.385 1664.78 726.249 Q1665.09 724.101 1663.34 722.345 Q1661.72 720.725 1659.67 720.958 Q1657.62 721.167 1655.59 723.192 L1653.45 725.328 L1651.42 723.29 L1653.65 721.056 Q1655.48 719.227 1655.72 717.533 Q1655.96 715.827 1654.58 714.452 Q1653.17 713.04 1651.42 713.298 Q1649.66 713.531 1647.79 715.397 Q1646.78 716.416 1645.83 717.803 Q1644.88 719.19 1643.95 721.056 L1641.74 718.846 Q1642.76 717.042 1643.79 715.618 Q1644.84 714.182 1645.93 713.089 Q1648.75 710.265 1651.69 709.909 Q1654.61 709.541 1656.79 711.726 Q1658.31 713.249 1658.5 715.176 Q1658.67 717.091 1657.47 719.104 Z" fill="#000000" fill-rule="nonzero" fill-opacity="1" /><path clip-path="url(#clip230)" d="M1674.18 717.987 L1678.23 713.936 L1664.24 699.954 L1660.72 705.245 L1658.46 702.986 L1661.96 697.719 L1664.44 695.24 L1680.68 711.481 L1684.73 707.43 L1686.82 709.517 L1676.26 720.074 L1674.18 717.987 Z" fill="#000000" fill-rule="nonzero" fill-opacity="1" /><path clip-path="url(#clip230)" d="M1769.67 738.292 Q1767.76 740.207 1768.68 743.067 Q1769.6 745.903 1773.38 749.684 Q1777.15 753.453 1780 754.386 Q1782.84 755.294 1784.76 753.379 Q1786.69 751.452 1785.77 748.616 Q1784.84 745.756 1781.08 741.987 Q1777.3 738.206 1774.45 737.297 Q1771.6 736.364 1769.67 738.292 M1767.71 736.328 Q1770.79 733.246 1774.85 734.069 Q1778.92 734.867 1783.56 739.507 Q1788.18 744.135 1788.99 748.211 Q1789.8 752.262 1786.72 755.343 Q1783.64 758.425 1779.58 757.627 Q1775.52 756.804 1770.89 752.176 Q1766.25 747.536 1765.44 743.485 Q1764.63 739.409 1767.71 736.328 Z" fill="#000000" fill-rule="nonzero" fill-opacity="1" /><path clip-path="url(#clip230)" d="M1793.94 741.177 L1796.53 738.586 L1799.65 741.705 L1797.06 744.295 L1793.94 741.177 Z" fill="#000000" fill-rule="nonzero" fill-opacity="1" /><path clip-path="url(#clip230)" d="M1802.68 718.908 Q1804.84 717.508 1807.04 717.717 Q1809.25 717.913 1811.02 719.681 Q1813.73 722.394 1813.35 725.746 Q1812.97 729.097 1809.53 732.534 Q1808.38 733.688 1806.92 734.683 Q1805.48 735.677 1803.73 736.524 L1801.33 734.13 Q1802.96 733.701 1804.5 732.78 Q1806.03 731.859 1807.37 730.521 Q1809.7 728.189 1810 726.053 Q1810.31 723.904 1808.55 722.149 Q1806.93 720.528 1804.88 720.762 Q1802.83 720.97 1800.8 722.996 L1798.67 725.132 L1796.63 723.094 L1798.86 720.86 Q1800.69 719.031 1800.94 717.336 Q1801.17 715.63 1799.8 714.255 Q1798.39 712.843 1796.63 713.101 Q1794.87 713.334 1793.01 715.2 Q1791.99 716.219 1791.04 717.607 Q1790.1 718.994 1789.17 720.86 L1786.96 718.65 Q1787.98 716.845 1789.01 715.421 Q1790.05 713.985 1791.14 712.893 Q1793.97 710.069 1796.9 709.713 Q1799.82 709.345 1802.01 711.53 Q1803.53 713.052 1803.71 714.979 Q1803.89 716.895 1802.68 718.908 Z" fill="#000000" fill-rule="nonzero" fill-opacity="1" /><path clip-path="url(#clip230)" d="M1821.1 716.084 L1829.75 707.43 L1831.84 709.517 L1820.2 721.154 L1818.11 719.067 Q1818.06 716.195 1818.04 711.309 Q1818.01 706.398 1817.93 705.06 Q1817.78 702.532 1817.33 701.144 Q1816.87 699.733 1815.98 698.836 Q1814.52 697.376 1812.56 697.486 Q1810.62 697.584 1808.98 699.229 Q1807.81 700.395 1806.92 702.102 Q1806.03 703.796 1805.38 706.092 L1802.88 703.587 Q1803.77 701.488 1804.77 699.88 Q1805.76 698.272 1806.84 697.191 Q1809.69 694.343 1812.81 694.073 Q1815.93 693.803 1818.31 696.185 Q1819.44 697.314 1820.03 698.763 Q1820.62 700.187 1820.88 702.679 Q1820.92 703.342 1820.99 706.693 Q1821.03 710.032 1821.1 716.084 Z" fill="#000000" fill-rule="nonzero" fill-opacity="1" /><path clip-path="url(#clip230)" d="M1914.19 738.795 Q1912.27 740.71 1913.19 743.571 Q1914.11 746.406 1917.89 750.187 Q1921.66 753.956 1924.51 754.889 Q1927.36 755.797 1929.27 753.882 Q1931.2 751.955 1930.28 749.119 Q1929.36 746.259 1925.59 742.49 Q1921.81 738.709 1918.96 737.801 Q1916.11 736.868 1914.19 738.795 M1912.22 736.831 Q1915.3 733.75 1919.37 734.572 Q1923.43 735.37 1928.07 740.01 Q1932.7 744.639 1933.51 748.714 Q1934.32 752.765 1931.24 755.847 Q1928.16 758.928 1924.09 758.13 Q1920.03 757.307 1915.4 752.679 Q1910.76 748.039 1909.95 743.988 Q1909.14 739.912 1912.22 736.831 Z" fill="#000000" fill-rule="nonzero" fill-opacity="1" /><path clip-path="url(#clip230)" d="M1938.46 741.68 L1941.05 739.09 L1944.16 742.208 L1941.57 744.798 L1938.46 741.68 Z" fill="#000000" fill-rule="nonzero" fill-opacity="1" /><path clip-path="url(#clip230)" d="M1947.2 719.411 Q1949.36 718.012 1951.55 718.22 Q1953.76 718.417 1955.53 720.185 Q1958.25 722.898 1957.86 726.249 Q1957.48 729.6 1954.05 733.038 Q1952.89 734.192 1951.43 735.186 Q1950 736.18 1948.24 737.027 L1945.85 734.634 Q1947.48 734.204 1949.01 733.283 Q1950.55 732.362 1951.89 731.024 Q1954.22 728.692 1954.51 726.556 Q1954.82 724.408 1953.06 722.652 Q1951.44 721.032 1949.39 721.265 Q1947.34 721.474 1945.32 723.499 L1943.18 725.635 L1941.14 723.597 L1943.38 721.363 Q1945.21 719.534 1945.45 717.84 Q1945.69 716.133 1944.31 714.759 Q1942.9 713.347 1941.14 713.605 Q1939.39 713.838 1937.52 715.704 Q1936.5 716.723 1935.56 718.11 Q1934.61 719.497 1933.68 721.363 L1931.47 719.153 Q1932.49 717.349 1933.52 715.925 Q1934.56 714.488 1935.66 713.396 Q1938.48 710.572 1941.41 710.216 Q1944.34 709.848 1946.52 712.033 Q1948.04 713.555 1948.23 715.483 Q1948.4 717.398 1947.2 719.411 Z" fill="#000000" fill-rule="nonzero" fill-opacity="1" /><path clip-path="url(#clip230)" d="M1963.19 703.415 Q1965.35 702.016 1967.55 702.225 Q1969.76 702.421 1971.53 704.189 Q1974.24 706.902 1973.86 710.253 Q1973.48 713.605 1970.04 717.042 Q1968.89 718.196 1967.43 719.19 Q1965.99 720.185 1964.24 721.032 L1961.84 718.638 Q1963.47 718.208 1965.01 717.287 Q1966.54 716.367 1967.88 715.029 Q1970.21 712.696 1970.51 710.56 Q1970.82 708.412 1969.06 706.656 Q1967.44 705.036 1965.39 705.269 Q1963.34 705.478 1961.31 707.503 L1959.18 709.639 L1957.14 707.602 L1959.37 705.367 Q1961.2 703.538 1961.45 701.844 Q1961.68 700.138 1960.31 698.763 Q1958.9 697.351 1957.14 697.609 Q1955.38 697.842 1953.52 699.708 Q1952.5 700.727 1951.55 702.114 Q1950.61 703.501 1949.68 705.367 L1947.47 703.158 Q1948.49 701.353 1949.52 699.929 Q1950.56 698.493 1951.65 697.4 Q1954.48 694.577 1957.41 694.221 Q1960.33 693.852 1962.52 696.037 Q1964.04 697.56 1964.22 699.487 Q1964.4 701.402 1963.19 703.415 Z" fill="#000000" fill-rule="nonzero" fill-opacity="1" /><path clip-path="url(#clip230)" d="M2058.6 739.397 Q2056.69 741.312 2057.61 744.172 Q2058.53 747.008 2062.31 750.789 Q2066.08 754.558 2068.93 755.491 Q2071.77 756.399 2073.69 754.484 Q2075.62 752.557 2074.7 749.721 Q2073.78 746.86 2070.01 743.092 Q2066.23 739.311 2063.38 738.402 Q2060.53 737.469 2058.6 739.397 M2056.64 737.432 Q2059.72 734.351 2063.78 735.174 Q2067.85 735.972 2072.49 740.612 Q2077.11 745.24 2077.93 749.316 Q2078.74 753.367 2075.65 756.448 Q2072.57 759.529 2068.51 758.731 Q2064.45 757.909 2059.82 753.281 Q2055.18 748.641 2054.37 744.589 Q2053.56 740.514 2056.64 737.432 Z" fill="#000000" fill-rule="nonzero" fill-opacity="1" /><path clip-path="url(#clip230)" d="M2082.87 742.282 L2085.46 739.691 L2088.58 742.809 L2085.99 745.4 L2082.87 742.282 Z" fill="#000000" fill-rule="nonzero" fill-opacity="1" /><path clip-path="url(#clip230)" d="M2091.61 720.013 Q2093.77 718.613 2095.97 718.822 Q2098.18 719.018 2099.95 720.786 Q2102.66 723.499 2102.28 726.85 Q2101.9 730.202 2098.46 733.639 Q2097.31 734.793 2095.85 735.787 Q2094.41 736.782 2092.66 737.629 L2090.26 735.235 Q2091.9 734.805 2093.43 733.885 Q2094.96 732.964 2096.3 731.626 Q2098.63 729.293 2098.93 727.157 Q2099.24 725.009 2097.48 723.254 Q2095.86 721.633 2093.81 721.866 Q2091.76 722.075 2089.73 724.101 L2087.6 726.237 L2085.56 724.199 L2087.8 721.965 Q2089.62 720.135 2089.87 718.441 Q2090.1 716.735 2088.73 715.36 Q2087.32 713.948 2085.56 714.206 Q2083.81 714.439 2081.94 716.305 Q2080.92 717.324 2079.98 718.711 Q2079.03 720.099 2078.1 721.965 L2075.89 719.755 Q2076.91 717.95 2077.94 716.526 Q2078.98 715.09 2080.07 713.997 Q2082.9 711.174 2085.83 710.818 Q2088.75 710.45 2090.94 712.635 Q2092.46 714.157 2092.64 716.084 Q2092.82 717.999 2091.61 720.013 Z" fill="#000000" fill-rule="nonzero" fill-opacity="1" /><path clip-path="url(#clip230)" d="M2100.62 698.431 L2104.15 714.476 L2110.41 708.215 L2100.62 698.431 M2097.81 696.921 L2100.93 693.803 L2112.88 705.748 L2115.49 703.133 L2117.55 705.195 L2114.94 707.81 L2119.26 712.131 L2116.79 714.599 L2112.47 710.278 L2104.2 718.552 L2101.8 716.158 L2097.81 696.921 Z" fill="#000000" fill-rule="nonzero" fill-opacity="1" /><path clip-path="url(#clip230)" d="M2204.41 738.611 Q2202.49 740.526 2203.41 743.386 Q2204.33 746.222 2208.11 750.003 Q2211.88 753.772 2214.73 754.705 Q2217.58 755.613 2219.49 753.698 Q2221.42 751.771 2220.5 748.935 Q2219.58 746.075 2215.81 742.306 Q2212.03 738.525 2209.18 737.617 Q2206.33 736.684 2204.41 738.611 M2202.44 736.647 Q2205.52 733.565 2209.59 734.388 Q2213.65 735.186 2218.29 739.826 Q2222.92 744.454 2223.73 748.53 Q2224.54 752.581 2221.46 755.662 Q2218.38 758.744 2214.31 757.946 Q2210.25 757.123 2205.62 752.495 Q2200.98 747.855 2200.17 743.804 Q2199.36 739.728 2202.44 736.647 Z" fill="#000000" fill-rule="nonzero" fill-opacity="1" /><path clip-path="url(#clip230)" d="M2228.68 741.496 L2231.27 738.906 L2234.38 742.024 L2231.79 744.614 L2228.68 741.496 Z" fill="#000000" fill-rule="nonzero" fill-opacity="1" /><path clip-path="url(#clip230)" d="M2237.42 719.227 Q2239.58 717.828 2241.77 718.036 Q2243.98 718.233 2245.75 720 Q2248.47 722.713 2248.08 726.065 Q2247.7 729.416 2244.27 732.853 Q2243.11 734.007 2241.65 735.002 Q2240.22 735.996 2238.46 736.843 L2236.07 734.449 Q2237.7 734.02 2239.23 733.099 Q2240.77 732.178 2242.11 730.84 Q2244.44 728.508 2244.73 726.372 Q2245.04 724.223 2243.28 722.468 Q2241.66 720.847 2239.61 721.081 Q2237.56 721.289 2235.54 723.315 L2233.4 725.451 L2231.36 723.413 L2233.6 721.179 Q2235.43 719.35 2235.67 717.656 Q2235.91 715.949 2234.53 714.574 Q2233.12 713.163 2231.36 713.42 Q2229.61 713.654 2227.74 715.52 Q2226.72 716.539 2225.78 717.926 Q2224.83 719.313 2223.9 721.179 L2221.69 718.969 Q2222.71 717.165 2223.74 715.741 Q2224.78 714.304 2225.88 713.212 Q2228.7 710.388 2231.63 710.032 Q2234.56 709.664 2236.74 711.849 Q2238.26 713.371 2238.45 715.299 Q2238.62 717.214 2237.42 719.227 Z" fill="#000000" fill-rule="nonzero" fill-opacity="1" /><path clip-path="url(#clip230)" d="M2237.48 702.274 L2247.21 692.539 L2249.3 694.626 L2241.84 702.09 L2246.33 706.583 Q2246.69 705.858 2247.14 705.232 Q2247.58 704.594 2248.12 704.054 Q2251.19 700.985 2254.66 700.874 Q2258.14 700.764 2261.01 703.636 Q2263.97 706.595 2263.77 710.081 Q2263.56 713.555 2260.21 716.907 Q2259.06 718.061 2257.66 719.067 Q2256.27 720.062 2254.6 720.946 L2252.11 718.454 Q2253.82 717.95 2255.29 717.066 Q2256.76 716.183 2258.08 714.869 Q2260.2 712.745 2260.32 710.388 Q2260.45 708.031 2258.53 706.116 Q2256.62 704.201 2254.26 704.324 Q2251.9 704.447 2249.78 706.57 Q2248.78 707.565 2248.01 708.78 Q2247.25 709.983 2246.69 711.481 L2237.48 702.274 Z" fill="#000000" fill-rule="nonzero" fill-opacity="1" /><polyline clip-path="url(#clip230)" style="stroke:#000000; stroke-linecap:round; stroke-linejoin:round; stroke-width:4; stroke-opacity:1; fill:none" points="1361.64,667.406 1361.64,97.5521 "/>
<polyline clip-path="url(#clip230)" style="stroke:#000000; stroke-linecap:round; stroke-linejoin:round; stroke-width:4; stroke-opacity:1; fill:none" points="1361.64,651.278 1380.53,651.278 "/>
<polyline clip-path="url(#clip230)" style="stroke:#000000; stroke-linecap:round; stroke-linejoin:round; stroke-width:4; stroke-opacity:1; fill:none" points="1361.64,508.274 1380.53,508.274 "/>
<polyline clip-path="url(#clip230)" style="stroke:#000000; stroke-linecap:round; stroke-linejoin:round; stroke-width:4; stroke-opacity:1; fill:none" points="1361.64,365.269 1380.53,365.269 "/>
<polyline clip-path="url(#clip230)" style="stroke:#000000; stroke-linecap:round; stroke-linejoin:round; stroke-width:4; stroke-opacity:1; fill:none" points="1361.64,222.264 1380.53,222.264 "/>
<path clip-path="url(#clip230)" d="M1260.13 640.627 Q1257.42 640.627 1256.05 643.301 Q1254.7 645.957 1254.7 651.304 Q1254.7 656.634 1256.05 659.308 Q1257.42 661.964 1260.13 661.964 Q1262.86 661.964 1264.21 659.308 Q1265.58 656.634 1265.58 651.304 Q1265.58 645.957 1264.21 643.301 Q1262.86 640.627 1260.13 640.627 M1260.13 637.85 Q1264.49 637.85 1266.78 641.305 Q1269.09 644.742 1269.09 651.304 Q1269.09 657.85 1266.78 661.304 Q1264.49 664.742 1260.13 664.742 Q1255.78 664.742 1253.47 661.304 Q1251.17 657.85 1251.17 651.304 Q1251.17 644.742 1253.47 641.305 Q1255.78 637.85 1260.13 637.85 Z" fill="#000000" fill-rule="nonzero" fill-opacity="1" /><path clip-path="url(#clip230)" d="M1275.25 659.829 L1278.92 659.829 L1278.92 664.238 L1275.25 664.238 L1275.25 659.829 Z" fill="#000000" fill-rule="nonzero" fill-opacity="1" /><path clip-path="url(#clip230)" d="M1294.06 640.627 Q1291.35 640.627 1289.98 643.301 Q1288.62 645.957 1288.62 651.304 Q1288.62 656.634 1289.98 659.308 Q1291.35 661.964 1294.06 661.964 Q1296.78 661.964 1298.14 659.308 Q1299.51 656.634 1299.51 651.304 Q1299.51 645.957 1298.14 643.301 Q1296.78 640.627 1294.06 640.627 M1294.06 637.85 Q1298.41 637.85 1300.71 641.305 Q1303.01 644.742 1303.01 651.304 Q1303.01 657.85 1300.71 661.304 Q1298.41 664.742 1294.06 664.742 Q1289.7 664.742 1287.39 661.304 Q1285.1 657.85 1285.1 651.304 Q1285.1 644.742 1287.39 641.305 Q1289.7 637.85 1294.06 637.85 Z" fill="#000000" fill-rule="nonzero" fill-opacity="1" /><path clip-path="url(#clip230)" d="M1316.68 640.627 Q1313.97 640.627 1312.6 643.301 Q1311.24 645.957 1311.24 651.304 Q1311.24 656.634 1312.6 659.308 Q1313.97 661.964 1316.68 661.964 Q1319.4 661.964 1320.76 659.308 Q1322.13 656.634 1322.13 651.304 Q1322.13 645.957 1320.76 643.301 Q1319.4 640.627 1316.68 640.627 M1316.68 637.85 Q1321.04 637.85 1323.33 641.305 Q1325.64 644.742 1325.64 651.304 Q1325.64 657.85 1323.33 661.304 Q1321.04 664.742 1316.68 664.742 Q1312.32 664.742 1310.01 661.304 Q1307.72 657.85 1307.72 651.304 Q1307.72 644.742 1310.01 641.305 Q1312.32 637.85 1316.68 637.85 Z" fill="#000000" fill-rule="nonzero" fill-opacity="1" /><path clip-path="url(#clip230)" d="M1260.88 497.623 Q1258.17 497.623 1256.8 500.296 Q1255.45 502.953 1255.45 508.3 Q1255.45 513.63 1256.8 516.303 Q1258.17 518.959 1260.88 518.959 Q1263.6 518.959 1264.96 516.303 Q1266.33 513.63 1266.33 508.3 Q1266.33 502.953 1264.96 500.296 Q1263.6 497.623 1260.88 497.623 M1260.88 494.845 Q1265.24 494.845 1267.53 498.3 Q1269.84 501.737 1269.84 508.3 Q1269.84 514.845 1267.53 518.3 Q1265.24 521.737 1260.88 521.737 Q1256.52 521.737 1254.21 518.3 Q1251.92 514.845 1251.92 508.3 Q1251.92 501.737 1254.21 498.3 Q1256.52 494.845 1260.88 494.845 Z" fill="#000000" fill-rule="nonzero" fill-opacity="1" /><path clip-path="url(#clip230)" d="M1276 516.824 L1279.66 516.824 L1279.66 521.234 L1276 521.234 L1276 516.824 Z" fill="#000000" fill-rule="nonzero" fill-opacity="1" /><path clip-path="url(#clip230)" d="M1294.8 497.623 Q1292.09 497.623 1290.72 500.296 Q1289.37 502.953 1289.37 508.3 Q1289.37 513.63 1290.72 516.303 Q1292.09 518.959 1294.8 518.959 Q1297.53 518.959 1298.88 516.303 Q1300.25 513.63 1300.25 508.3 Q1300.25 502.953 1298.88 500.296 Q1297.53 497.623 1294.8 497.623 M1294.8 494.845 Q1299.16 494.845 1301.45 498.3 Q1303.76 501.737 1303.76 508.3 Q1303.76 514.845 1301.45 518.3 Q1299.16 521.737 1294.8 521.737 Q1290.45 521.737 1288.14 518.3 Q1285.84 514.845 1285.84 508.3 Q1285.84 501.737 1288.14 498.3 Q1290.45 494.845 1294.8 494.845 Z" fill="#000000" fill-rule="nonzero" fill-opacity="1" /><path clip-path="url(#clip230)" d="M1309.96 495.314 L1323.73 495.314 L1323.73 498.265 L1313.17 498.265 L1313.17 504.619 Q1313.93 504.359 1314.7 504.237 Q1315.46 504.098 1316.23 504.098 Q1320.57 504.098 1323.1 506.477 Q1325.64 508.855 1325.64 512.918 Q1325.64 517.102 1323.03 519.428 Q1320.43 521.737 1315.69 521.737 Q1314.06 521.737 1312.35 521.459 Q1310.67 521.182 1308.87 520.626 L1308.87 517.102 Q1310.43 517.952 1312.09 518.369 Q1313.76 518.786 1315.62 518.786 Q1318.62 518.786 1320.38 517.206 Q1322.13 515.626 1322.13 512.918 Q1322.13 510.209 1320.38 508.63 Q1318.62 507.05 1315.62 507.05 Q1314.21 507.05 1312.81 507.362 Q1311.42 507.675 1309.96 508.334 L1309.96 495.314 Z" fill="#000000" fill-rule="nonzero" fill-opacity="1" /><path clip-path="url(#clip230)" d="M1260.13 354.618 Q1257.42 354.618 1256.05 357.292 Q1254.7 359.948 1254.7 365.295 Q1254.7 370.625 1256.05 373.298 Q1257.42 375.955 1260.13 375.955 Q1262.86 375.955 1264.21 373.298 Q1265.58 370.625 1265.58 365.295 Q1265.58 359.948 1264.21 357.292 Q1262.86 354.618 1260.13 354.618 M1260.13 351.84 Q1264.49 351.84 1266.78 355.295 Q1269.09 358.733 1269.09 365.295 Q1269.09 371.84 1266.78 375.295 Q1264.49 378.732 1260.13 378.732 Q1255.78 378.732 1253.47 375.295 Q1251.17 371.84 1251.17 365.295 Q1251.17 358.733 1253.47 355.295 Q1255.78 351.84 1260.13 351.84 Z" fill="#000000" fill-rule="nonzero" fill-opacity="1" /><path clip-path="url(#clip230)" d="M1275.25 373.819 L1278.92 373.819 L1278.92 378.229 L1275.25 378.229 L1275.25 373.819 Z" fill="#000000" fill-rule="nonzero" fill-opacity="1" /><path clip-path="url(#clip230)" d="M1287.16 375.278 L1292.89 375.278 L1292.89 355.503 L1286.66 356.753 L1286.66 353.559 L1292.86 352.309 L1296.37 352.309 L1296.37 375.278 L1302.09 375.278 L1302.09 378.229 L1287.16 378.229 L1287.16 375.278 Z" fill="#000000" fill-rule="nonzero" fill-opacity="1" /><path clip-path="url(#clip230)" d="M1316.68 354.618 Q1313.97 354.618 1312.6 357.292 Q1311.24 359.948 1311.24 365.295 Q1311.24 370.625 1312.6 373.298 Q1313.97 375.955 1316.68 375.955 Q1319.4 375.955 1320.76 373.298 Q1322.13 370.625 1322.13 365.295 Q1322.13 359.948 1320.76 357.292 Q1319.4 354.618 1316.68 354.618 M1316.68 351.84 Q1321.04 351.84 1323.33 355.295 Q1325.64 358.733 1325.64 365.295 Q1325.64 371.84 1323.33 375.295 Q1321.04 378.732 1316.68 378.732 Q1312.32 378.732 1310.01 375.295 Q1307.72 371.84 1307.72 365.295 Q1307.72 358.733 1310.01 355.295 Q1312.32 351.84 1316.68 351.84 Z" fill="#000000" fill-rule="nonzero" fill-opacity="1" /><path clip-path="url(#clip230)" d="M1260.88 211.613 Q1258.17 211.613 1256.8 214.287 Q1255.45 216.943 1255.45 222.29 Q1255.45 227.62 1256.8 230.294 Q1258.17 232.95 1260.88 232.95 Q1263.6 232.95 1264.96 230.294 Q1266.33 227.62 1266.33 222.29 Q1266.33 216.943 1264.96 214.287 Q1263.6 211.613 1260.88 211.613 M1260.88 208.835 Q1265.24 208.835 1267.53 212.29 Q1269.84 215.728 1269.84 222.29 Q1269.84 228.835 1267.53 232.29 Q1265.24 235.728 1260.88 235.728 Q1256.52 235.728 1254.21 232.29 Q1251.92 228.835 1251.92 222.29 Q1251.92 215.728 1254.21 212.29 Q1256.52 208.835 1260.88 208.835 Z" fill="#000000" fill-rule="nonzero" fill-opacity="1" /><path clip-path="url(#clip230)" d="M1276 230.814 L1279.66 230.814 L1279.66 235.224 L1276 235.224 L1276 230.814 Z" fill="#000000" fill-rule="nonzero" fill-opacity="1" /><path clip-path="url(#clip230)" d="M1287.91 232.273 L1293.64 232.273 L1293.64 212.499 L1287.41 213.749 L1287.41 210.554 L1293.6 209.304 L1297.11 209.304 L1297.11 232.273 L1302.84 232.273 L1302.84 235.224 L1287.91 235.224 L1287.91 232.273 Z" fill="#000000" fill-rule="nonzero" fill-opacity="1" /><path clip-path="url(#clip230)" d="M1309.96 209.304 L1323.73 209.304 L1323.73 212.256 L1313.17 212.256 L1313.17 218.61 Q1313.93 218.349 1314.7 218.228 Q1315.46 218.089 1316.23 218.089 Q1320.57 218.089 1323.1 220.467 Q1325.64 222.846 1325.64 226.908 Q1325.64 231.092 1323.03 233.419 Q1320.43 235.728 1315.69 235.728 Q1314.06 235.728 1312.35 235.45 Q1310.67 235.172 1308.87 234.617 L1308.87 231.092 Q1310.43 231.943 1312.09 232.36 Q1313.76 232.776 1315.62 232.776 Q1318.62 232.776 1320.38 231.196 Q1322.13 229.617 1322.13 226.908 Q1322.13 224.2 1320.38 222.62 Q1318.62 221.04 1315.62 221.04 Q1314.21 221.04 1312.81 221.353 Q1311.42 221.665 1309.96 222.325 L1309.96 209.304 Z" fill="#000000" fill-rule="nonzero" fill-opacity="1" /><path clip-path="url(#clip230)" d="M1373.53 18.9258 Q1370.02 18.9258 1368.12 21.4721 Q1366.13 24.1341 1366.13 28.5323 Q1366.13 33.185 1368.09 35.8702 Q1370.08 38.5322 1373.53 38.5322 Q1376.94 38.5322 1378.93 35.847 Q1380.92 33.1619 1380.92 28.5323 Q1380.92 24.2962 1378.93 21.4721 Q1377.1 18.9258 1373.53 18.9258 M1373.53 15.5462 L1387.68 15.5462 L1387.68 19.8054 L1382.91 19.8054 Q1385.43 23.4165 1385.43 28.5323 Q1385.43 34.898 1382.26 38.5091 Q1379.09 42.1433 1373.53 42.1433 Q1367.96 42.1433 1364.81 38.5091 Q1361.64 34.898 1361.64 28.5323 Q1361.64 22.1203 1364.81 18.5323 Q1367.42 15.5462 1373.53 15.5462 Z" fill="#000000" fill-rule="nonzero" fill-opacity="1" /><path clip-path="url(#clip230)" d="M1411.84 19.6666 Q1410.99 19.3656 1410.13 19.1342 Q1407.84 18.5323 1405.39 18.5323 Q1401.15 18.5323 1398.79 20.824 Q1396.59 22.9536 1396.17 26.8656 L1411.84 26.8656 L1411.84 30.1989 L1396.17 30.1989 Q1396.59 34.1109 1398.79 36.2405 Q1401.15 38.5322 1405.39 38.5322 Q1408.35 38.5322 1410.13 37.9304 L1411.84 37.3517 L1411.84 41.2174 L1410.02 41.634 Q1407.61 42.1433 1405.13 42.1433 Q1398.93 42.1433 1395.32 38.5322 Q1391.68 34.9211 1391.68 28.5323 Q1391.68 22.1434 1395.32 18.5323 Q1398.93 14.9212 1405.13 14.9212 Q1407.47 14.9212 1410.02 15.4305 Q1410.94 15.6157 1411.84 15.8934 L1411.84 19.6666 Z" fill="#000000" fill-rule="nonzero" fill-opacity="1" /><polyline clip-path="url(#clip233)" style="stroke:#009af9; stroke-linecap:round; stroke-linejoin:round; stroke-width:4; stroke-opacity:1; fill:none" points="1389.69,164.891 1448.13,222.889 1506.56,281.687 1565,341.285 1623.44,401.683 1681.88,462.882 1740.32,524.881 1798.76,587.679 1857.2,651.278 1915.63,586.879 1974.07,521.68 2032.51,455.68 2090.95,388.881 2149.39,321.281 2207.83,252.881 2266.27,183.68 2324.71,113.68 "/>
<circle clip-path="url(#clip233)" cx="1857.2" cy="651.278" r="10.8" fill="#ff0000" fill-rule="evenodd" fill-opacity="1" stroke="#000000" stroke-opacity="1" stroke-width="3.2"/>
<path clip-path="url(#clip230)" d="M161.818 1467.41 L1152.94 1467.41 L1152.94 897.552 L161.818 897.552  Z" fill="#ffffff" fill-rule="evenodd" fill-opacity="1"/>
<defs>
  <clipPath id="clip234">
    <rect x="161" y="897" width="992" height="571"/>
  </clipPath>
</defs>
<polyline clip-path="url(#clip234)" style="stroke:#000000; stroke-linecap:round; stroke-linejoin:round; stroke-width:2; stroke-opacity:0.1; fill:none" points="291.738,1467.41 291.738,897.552 "/>
<polyline clip-path="url(#clip234)" style="stroke:#000000; stroke-linecap:round; stroke-linejoin:round; stroke-width:2; stroke-opacity:0.1; fill:none" points="464.117,1467.41 464.117,897.552 "/>
<polyline clip-path="url(#clip234)" style="stroke:#000000; stroke-linecap:round; stroke-linejoin:round; stroke-width:2; stroke-opacity:0.1; fill:none" points="636.495,1467.41 636.495,897.552 "/>
<polyline clip-path="url(#clip234)" style="stroke:#000000; stroke-linecap:round; stroke-linejoin:round; stroke-width:2; stroke-opacity:0.1; fill:none" points="808.873,1467.41 808.873,897.552 "/>
<polyline clip-path="url(#clip234)" style="stroke:#000000; stroke-linecap:round; stroke-linejoin:round; stroke-width:2; stroke-opacity:0.1; fill:none" points="981.251,1467.41 981.251,897.552 "/>
<polyline clip-path="url(#clip234)" style="stroke:#000000; stroke-linecap:round; stroke-linejoin:round; stroke-width:2; stroke-opacity:0.1; fill:none" points="161.818,1451.28 1152.94,1451.28 "/>
<polyline clip-path="url(#clip234)" style="stroke:#000000; stroke-linecap:round; stroke-linejoin:round; stroke-width:2; stroke-opacity:0.1; fill:none" points="161.818,1330.95 1152.94,1330.95 "/>
<polyline clip-path="url(#clip234)" style="stroke:#000000; stroke-linecap:round; stroke-linejoin:round; stroke-width:2; stroke-opacity:0.1; fill:none" points="161.818,1210.62 1152.94,1210.62 "/>
<polyline clip-path="url(#clip234)" style="stroke:#000000; stroke-linecap:round; stroke-linejoin:round; stroke-width:2; stroke-opacity:0.1; fill:none" points="161.818,1090.3 1152.94,1090.3 "/>
<polyline clip-path="url(#clip234)" style="stroke:#000000; stroke-linecap:round; stroke-linejoin:round; stroke-width:2; stroke-opacity:0.1; fill:none" points="161.818,969.969 1152.94,969.969 "/>
<polyline clip-path="url(#clip230)" style="stroke:#000000; stroke-linecap:round; stroke-linejoin:round; stroke-width:4; stroke-opacity:1; fill:none" points="161.818,1467.41 1152.94,1467.41 "/>
<polyline clip-path="url(#clip230)" style="stroke:#000000; stroke-linecap:round; stroke-linejoin:round; stroke-width:4; stroke-opacity:1; fill:none" points="291.738,1467.41 291.738,1448.51 "/>
<polyline clip-path="url(#clip230)" style="stroke:#000000; stroke-linecap:round; stroke-linejoin:round; stroke-width:4; stroke-opacity:1; fill:none" points="464.117,1467.41 464.117,1448.51 "/>
<polyline clip-path="url(#clip230)" style="stroke:#000000; stroke-linecap:round; stroke-linejoin:round; stroke-width:4; stroke-opacity:1; fill:none" points="636.495,1467.41 636.495,1448.51 "/>
<polyline clip-path="url(#clip230)" style="stroke:#000000; stroke-linecap:round; stroke-linejoin:round; stroke-width:4; stroke-opacity:1; fill:none" points="808.873,1467.41 808.873,1448.51 "/>
<polyline clip-path="url(#clip230)" style="stroke:#000000; stroke-linecap:round; stroke-linejoin:round; stroke-width:4; stroke-opacity:1; fill:none" points="981.251,1467.41 981.251,1448.51 "/>
<path clip-path="url(#clip230)" d="M237.889 1539.14 Q235.974 1541.05 236.895 1543.91 Q237.816 1546.75 241.597 1550.53 Q245.365 1554.3 248.213 1555.23 Q251.061 1556.14 252.977 1554.23 Q254.904 1552.3 253.983 1549.46 Q253.062 1546.6 249.294 1542.83 Q245.513 1539.05 242.665 1538.14 Q239.817 1537.21 237.889 1539.14 M235.925 1537.17 Q239.006 1534.09 243.07 1534.92 Q247.133 1535.71 251.774 1540.35 Q256.402 1544.98 257.212 1549.06 Q258.022 1553.11 254.941 1556.19 Q251.859 1559.27 247.796 1558.47 Q243.733 1557.65 239.105 1553.02 Q234.464 1548.38 233.654 1544.33 Q232.844 1540.26 235.925 1537.17 Z" fill="#000000" fill-rule="nonzero" fill-opacity="1" /><path clip-path="url(#clip230)" d="M262.159 1542.02 L264.749 1539.43 L267.867 1542.55 L265.277 1545.14 L262.159 1542.02 Z" fill="#000000" fill-rule="nonzero" fill-opacity="1" /><path clip-path="url(#clip230)" d="M254.965 1518.8 L264.7 1509.06 L266.787 1511.15 L259.323 1518.61 L263.816 1523.11 Q264.172 1522.38 264.627 1521.76 Q265.069 1521.12 265.609 1520.58 Q268.678 1517.51 272.152 1517.4 Q275.626 1517.29 278.499 1520.16 Q281.457 1523.12 281.261 1526.6 Q281.052 1530.08 277.701 1533.43 Q276.547 1534.58 275.147 1535.59 Q273.76 1536.59 272.09 1537.47 L269.598 1534.98 Q271.305 1534.47 272.778 1533.59 Q274.251 1532.71 275.565 1531.39 Q277.688 1529.27 277.811 1526.91 Q277.934 1524.55 276.019 1522.64 Q274.104 1520.72 271.747 1520.85 Q269.39 1520.97 267.266 1523.09 Q266.272 1524.09 265.498 1525.3 Q264.737 1526.51 264.172 1528 L254.965 1518.8 Z" fill="#000000" fill-rule="nonzero" fill-opacity="1" /><path clip-path="url(#clip230)" d="M277.872 1499.16 Q275.957 1501.07 276.878 1503.93 Q277.799 1506.77 281.58 1510.55 Q285.349 1514.32 288.197 1515.25 Q291.045 1516.16 292.96 1514.24 Q294.887 1512.32 293.966 1509.48 Q293.046 1506.62 289.277 1502.85 Q285.496 1499.07 282.648 1498.16 Q279.8 1497.23 277.872 1499.16 M275.908 1497.19 Q278.99 1494.11 283.053 1494.93 Q287.116 1495.73 291.757 1500.37 Q296.385 1505 297.195 1509.07 Q298.005 1513.13 294.924 1516.21 Q291.843 1519.29 287.779 1518.49 Q283.716 1517.67 279.088 1513.04 Q274.447 1508.4 273.637 1504.35 Q272.827 1500.27 275.908 1497.19 Z" fill="#000000" fill-rule="nonzero" fill-opacity="1" /><path clip-path="url(#clip230)" d="M411.114 1538.29 Q409.199 1540.21 410.12 1543.07 Q411.041 1545.9 414.822 1549.68 Q418.591 1553.45 421.439 1554.39 Q424.287 1555.29 426.202 1553.38 Q428.129 1551.45 427.208 1548.62 Q426.288 1545.76 422.519 1541.99 Q418.738 1538.21 415.89 1537.3 Q413.042 1536.36 411.114 1538.29 M409.15 1536.33 Q412.232 1533.25 416.295 1534.07 Q420.358 1534.87 424.999 1539.51 Q429.627 1544.14 430.437 1548.21 Q431.247 1552.26 428.166 1555.34 Q425.085 1558.42 421.021 1557.63 Q416.958 1556.8 412.33 1552.18 Q407.689 1547.54 406.879 1543.48 Q406.069 1539.41 409.15 1536.33 Z" fill="#000000" fill-rule="nonzero" fill-opacity="1" /><path clip-path="url(#clip230)" d="M435.384 1541.18 L437.975 1538.59 L441.093 1541.7 L438.502 1544.29 L435.384 1541.18 Z" fill="#000000" fill-rule="nonzero" fill-opacity="1" /><path clip-path="url(#clip230)" d="M428.191 1517.95 L437.925 1508.22 L440.012 1510.3 L432.549 1517.77 L437.042 1522.26 Q437.398 1521.53 437.852 1520.91 Q438.294 1520.27 438.834 1519.73 Q441.903 1516.66 445.377 1516.55 Q448.851 1516.44 451.724 1519.31 Q454.682 1522.27 454.486 1525.76 Q454.277 1529.23 450.926 1532.58 Q449.772 1533.74 448.372 1534.74 Q446.985 1535.74 445.316 1536.62 L442.824 1534.13 Q444.53 1533.63 446.003 1532.74 Q447.476 1531.86 448.79 1530.55 Q450.914 1528.42 451.036 1526.06 Q451.159 1523.71 449.244 1521.79 Q447.329 1519.88 444.972 1520 Q442.615 1520.12 440.491 1522.25 Q439.497 1523.24 438.723 1524.46 Q437.962 1525.66 437.398 1527.16 L428.191 1517.95 Z" fill="#000000" fill-rule="nonzero" fill-opacity="1" /><path clip-path="url(#clip230)" d="M462.539 1516.08 L471.194 1507.43 L473.281 1509.52 L461.643 1521.15 L459.556 1519.07 Q459.507 1516.19 459.482 1511.31 Q459.458 1506.4 459.372 1505.06 Q459.224 1502.53 458.77 1501.14 Q458.316 1499.73 457.42 1498.84 Q455.959 1497.38 454.007 1497.49 Q452.068 1497.58 450.423 1499.23 Q449.256 1500.4 448.36 1502.1 Q447.476 1503.8 446.826 1506.09 L444.321 1503.59 Q445.217 1501.49 446.212 1499.88 Q447.206 1498.27 448.287 1497.19 Q451.135 1494.34 454.253 1494.07 Q457.371 1493.8 459.752 1496.18 Q460.882 1497.31 461.471 1498.76 Q462.06 1500.19 462.318 1502.68 Q462.367 1503.34 462.429 1506.69 Q462.478 1510.03 462.539 1516.08 Z" fill="#000000" fill-rule="nonzero" fill-opacity="1" /><path clip-path="url(#clip230)" d="M582.388 1539.4 Q580.473 1541.31 581.393 1544.17 Q582.314 1547.01 586.095 1550.79 Q589.864 1554.56 592.712 1555.49 Q595.56 1556.4 597.475 1554.48 Q599.403 1552.56 598.482 1549.72 Q597.561 1546.86 593.792 1543.09 Q590.011 1539.31 587.163 1538.4 Q584.315 1537.47 582.388 1539.4 M580.424 1537.43 Q583.505 1534.35 587.568 1535.17 Q591.632 1535.97 596.272 1540.61 Q600.9 1545.24 601.71 1549.32 Q602.521 1553.37 599.439 1556.45 Q596.358 1559.53 592.295 1558.73 Q588.231 1557.91 583.603 1553.28 Q578.963 1548.64 578.153 1544.59 Q577.342 1540.51 580.424 1537.43 Z" fill="#000000" fill-rule="nonzero" fill-opacity="1" /><path clip-path="url(#clip230)" d="M606.658 1542.28 L609.248 1539.69 L612.366 1542.81 L609.776 1545.4 L606.658 1542.28 Z" fill="#000000" fill-rule="nonzero" fill-opacity="1" /><path clip-path="url(#clip230)" d="M599.464 1519.06 L609.199 1509.32 L611.286 1511.41 L603.822 1518.87 L608.315 1523.36 Q608.671 1522.64 609.125 1522.01 Q609.567 1521.38 610.107 1520.84 Q613.176 1517.77 616.65 1517.66 Q620.125 1517.55 622.997 1520.42 Q625.956 1523.38 625.759 1526.86 Q625.551 1530.34 622.199 1533.69 Q621.045 1534.84 619.646 1535.85 Q618.259 1536.84 616.589 1537.73 L614.097 1535.24 Q615.803 1534.73 617.276 1533.85 Q618.75 1532.96 620.063 1531.65 Q622.187 1529.53 622.31 1527.17 Q622.432 1524.81 620.517 1522.9 Q618.602 1520.98 616.245 1521.11 Q613.888 1521.23 611.765 1523.35 Q610.77 1524.35 609.997 1525.56 Q609.236 1526.76 608.671 1528.26 L599.464 1519.06 Z" fill="#000000" fill-rule="nonzero" fill-opacity="1" /><path clip-path="url(#clip230)" d="M624.409 1498.43 L627.932 1514.48 L634.193 1508.22 L624.409 1498.43 M621.598 1496.92 L624.716 1493.8 L636.66 1505.75 L639.275 1503.13 L641.338 1505.2 L638.723 1507.81 L643.044 1512.13 L640.577 1514.6 L636.255 1510.28 L627.981 1518.55 L625.587 1516.16 L621.598 1496.92 Z" fill="#000000" fill-rule="nonzero" fill-opacity="1" /><path clip-path="url(#clip230)" d="M754.938 1539.22 Q753.023 1541.14 753.944 1544 Q754.864 1546.84 758.645 1550.62 Q762.414 1554.39 765.262 1555.32 Q768.11 1556.23 770.025 1554.31 Q771.953 1552.38 771.032 1549.55 Q770.111 1546.69 766.342 1542.92 Q762.561 1539.14 759.713 1538.23 Q756.865 1537.3 754.938 1539.22 M752.974 1537.26 Q756.055 1534.18 760.118 1535 Q764.182 1535.8 768.822 1540.44 Q773.45 1545.07 774.26 1549.14 Q775.071 1553.19 771.989 1556.28 Q768.908 1559.36 764.845 1558.56 Q760.781 1557.74 756.153 1553.11 Q751.513 1548.47 750.703 1544.42 Q749.892 1540.34 752.974 1537.26 Z" fill="#000000" fill-rule="nonzero" fill-opacity="1" /><path clip-path="url(#clip230)" d="M779.208 1542.11 L781.798 1539.52 L784.916 1542.64 L782.326 1545.23 L779.208 1542.11 Z" fill="#000000" fill-rule="nonzero" fill-opacity="1" /><path clip-path="url(#clip230)" d="M772.014 1518.88 L781.749 1509.15 L783.836 1511.24 L776.372 1518.7 L780.865 1523.19 Q781.221 1522.47 781.675 1521.84 Q782.117 1521.2 782.657 1520.66 Q785.726 1517.59 789.2 1517.48 Q792.675 1517.37 795.547 1520.25 Q798.506 1523.2 798.309 1526.69 Q798.101 1530.17 794.749 1533.52 Q793.595 1534.67 792.196 1535.68 Q790.809 1536.67 789.139 1537.56 L786.647 1535.06 Q788.353 1534.56 789.827 1533.68 Q791.3 1532.79 792.613 1531.48 Q794.737 1529.35 794.86 1527 Q794.983 1524.64 793.067 1522.73 Q791.152 1520.81 788.795 1520.93 Q786.438 1521.06 784.315 1523.18 Q783.32 1524.17 782.547 1525.39 Q781.786 1526.59 781.221 1528.09 L772.014 1518.88 Z" fill="#000000" fill-rule="nonzero" fill-opacity="1" /><path clip-path="url(#clip230)" d="M801.771 1505.48 Q800.102 1507.15 800.261 1509.27 Q800.433 1511.38 802.422 1513.37 Q804.398 1515.35 806.522 1515.53 Q808.646 1515.69 810.315 1514.02 Q811.985 1512.35 811.813 1510.24 Q811.641 1508.1 809.665 1506.13 Q807.676 1504.14 805.552 1503.98 Q803.441 1503.81 801.771 1505.48 M798.923 1492.78 L801.182 1495.04 Q799.807 1495.53 798.616 1496.26 Q797.438 1496.97 796.505 1497.9 Q794.05 1500.36 794.406 1503.32 Q794.774 1506.26 797.941 1509.8 Q797.597 1508.01 798.125 1506.35 Q798.641 1504.68 799.954 1503.37 Q802.716 1500.6 805.994 1500.69 Q809.272 1500.75 812.157 1503.64 Q814.98 1506.46 815.017 1509.84 Q815.054 1513.21 812.28 1515.99 Q809.1 1519.17 804.988 1518.42 Q800.863 1517.66 796.235 1513.03 Q791.889 1508.68 791.373 1504.04 Q790.845 1499.39 794.32 1495.91 Q795.253 1494.98 796.382 1494.22 Q797.524 1493.45 798.923 1492.78 Z" fill="#000000" fill-rule="nonzero" fill-opacity="1" /><path clip-path="url(#clip230)" d="M927.451 1539.09 Q925.536 1541 926.457 1543.87 Q927.377 1546.7 931.159 1550.48 Q934.927 1554.25 937.775 1555.18 Q940.623 1556.09 942.538 1554.18 Q944.466 1552.25 943.545 1549.41 Q942.624 1546.55 938.856 1542.78 Q935.075 1539 932.227 1538.1 Q929.378 1537.16 927.451 1539.09 M925.487 1537.13 Q928.568 1534.04 932.632 1534.87 Q936.695 1535.66 941.335 1540.31 Q945.963 1544.93 946.774 1549.01 Q947.584 1553.06 944.503 1556.14 Q941.421 1559.22 937.358 1558.42 Q933.295 1557.6 928.666 1552.97 Q924.026 1548.33 923.216 1544.28 Q922.406 1540.21 925.487 1537.13 Z" fill="#000000" fill-rule="nonzero" fill-opacity="1" /><path clip-path="url(#clip230)" d="M951.721 1541.97 L954.311 1539.38 L957.429 1542.5 L954.839 1545.09 L951.721 1541.97 Z" fill="#000000" fill-rule="nonzero" fill-opacity="1" /><path clip-path="url(#clip230)" d="M944.527 1518.75 L954.262 1509.01 L956.349 1511.1 L948.885 1518.56 L953.378 1523.06 Q953.734 1522.33 954.188 1521.71 Q954.63 1521.07 955.171 1520.53 Q958.24 1517.46 961.714 1517.35 Q965.188 1517.24 968.06 1520.11 Q971.019 1523.07 970.823 1526.56 Q970.614 1530.03 967.263 1533.38 Q966.109 1534.54 964.709 1535.54 Q963.322 1536.54 961.652 1537.42 L959.16 1534.93 Q960.867 1534.42 962.34 1533.54 Q963.813 1532.66 965.126 1531.34 Q967.25 1529.22 967.373 1526.86 Q967.496 1524.51 965.581 1522.59 Q963.666 1520.68 961.309 1520.8 Q958.952 1520.92 956.828 1523.04 Q955.833 1524.04 955.06 1525.25 Q954.299 1526.46 953.734 1527.96 L944.527 1518.75 Z" fill="#000000" fill-rule="nonzero" fill-opacity="1" /><path clip-path="url(#clip230)" d="M975.426 1507.1 Q973.658 1508.87 973.585 1510.83 Q973.523 1512.78 975.181 1514.44 Q976.838 1516.1 978.79 1516.04 Q980.754 1515.96 982.522 1514.19 Q984.289 1512.43 984.363 1510.46 Q984.424 1508.49 982.779 1506.84 Q981.122 1505.18 979.158 1505.26 Q977.206 1505.32 975.426 1507.1 M971.891 1508.52 Q969.902 1509.73 967.913 1509.53 Q965.937 1509.32 964.365 1507.75 Q962.168 1505.55 962.45 1502.72 Q962.745 1499.87 965.47 1497.14 Q968.208 1494.4 971.044 1494.12 Q973.879 1493.84 976.077 1496.04 Q977.648 1497.61 977.844 1499.6 Q978.053 1501.57 976.862 1503.55 Q979.072 1502.18 981.282 1502.4 Q983.504 1502.61 985.259 1504.36 Q987.923 1507.02 987.714 1510.08 Q987.518 1513.13 984.486 1516.16 Q981.454 1519.19 978.397 1519.4 Q975.352 1519.6 972.689 1516.93 Q970.933 1515.18 970.724 1512.95 Q970.516 1510.73 971.891 1508.52 M967.066 1505.51 Q968.49 1506.94 970.172 1506.85 Q971.866 1506.75 973.474 1505.15 Q975.07 1503.55 975.168 1501.86 Q975.279 1500.15 973.855 1498.73 Q972.431 1497.3 970.724 1497.41 Q969.03 1497.51 967.434 1499.11 Q965.826 1500.71 965.728 1502.41 Q965.642 1504.09 967.066 1505.51 Z" fill="#000000" fill-rule="nonzero" fill-opacity="1" /><polyline clip-path="url(#clip230)" style="stroke:#000000; stroke-linecap:round; stroke-linejoin:round; stroke-width:4; stroke-opacity:1; fill:none" points="161.818,1467.41 161.818,897.552 "/>
<polyline clip-path="url(#clip230)" style="stroke:#000000; stroke-linecap:round; stroke-linejoin:round; stroke-width:4; stroke-opacity:1; fill:none" points="161.818,1451.28 180.716,1451.28 "/>
<polyline clip-path="url(#clip230)" style="stroke:#000000; stroke-linecap:round; stroke-linejoin:round; stroke-width:4; stroke-opacity:1; fill:none" points="161.818,1330.95 180.716,1330.95 "/>
<polyline clip-path="url(#clip230)" style="stroke:#000000; stroke-linecap:round; stroke-linejoin:round; stroke-width:4; stroke-opacity:1; fill:none" points="161.818,1210.62 180.716,1210.62 "/>
<polyline clip-path="url(#clip230)" style="stroke:#000000; stroke-linecap:round; stroke-linejoin:round; stroke-width:4; stroke-opacity:1; fill:none" points="161.818,1090.3 180.716,1090.3 "/>
<polyline clip-path="url(#clip230)" style="stroke:#000000; stroke-linecap:round; stroke-linejoin:round; stroke-width:4; stroke-opacity:1; fill:none" points="161.818,969.969 180.716,969.969 "/>
<path clip-path="url(#clip230)" d="M60.315 1440.63 Q57.6067 1440.63 56.2352 1443.3 Q54.881 1445.96 54.881 1451.3 Q54.881 1456.63 56.2352 1459.31 Q57.6067 1461.96 60.315 1461.96 Q63.0407 1461.96 64.3948 1459.31 Q65.7664 1456.63 65.7664 1451.3 Q65.7664 1445.96 64.3948 1443.3 Q63.0407 1440.63 60.315 1440.63 M60.315 1437.85 Q64.6726 1437.85 66.9643 1441.3 Q69.2733 1444.74 69.2733 1451.3 Q69.2733 1457.85 66.9643 1461.3 Q64.6726 1464.74 60.315 1464.74 Q55.9574 1464.74 53.6484 1461.3 Q51.3567 1457.85 51.3567 1451.3 Q51.3567 1444.74 53.6484 1441.3 Q55.9574 1437.85 60.315 1437.85 Z" fill="#000000" fill-rule="nonzero" fill-opacity="1" /><path clip-path="url(#clip230)" d="M75.4364 1459.83 L79.0996 1459.83 L79.0996 1464.24 L75.4364 1464.24 L75.4364 1459.83 Z" fill="#000000" fill-rule="nonzero" fill-opacity="1" /><path clip-path="url(#clip230)" d="M94.2384 1440.63 Q91.5301 1440.63 90.1586 1443.3 Q88.8044 1445.96 88.8044 1451.3 Q88.8044 1456.63 90.1586 1459.31 Q91.5301 1461.96 94.2384 1461.96 Q96.9641 1461.96 98.3183 1459.31 Q99.6898 1456.63 99.6898 1451.3 Q99.6898 1445.96 98.3183 1443.3 Q96.9641 1440.63 94.2384 1440.63 M94.2384 1437.85 Q98.596 1437.85 100.888 1441.3 Q103.197 1444.74 103.197 1451.3 Q103.197 1457.85 100.888 1461.3 Q98.596 1464.74 94.2384 1464.74 Q89.8808 1464.74 87.5718 1461.3 Q85.2801 1457.85 85.2801 1451.3 Q85.2801 1444.74 87.5718 1441.3 Q89.8808 1437.85 94.2384 1437.85 Z" fill="#000000" fill-rule="nonzero" fill-opacity="1" /><path clip-path="url(#clip230)" d="M116.86 1440.63 Q114.152 1440.63 112.78 1443.3 Q111.426 1445.96 111.426 1451.3 Q111.426 1456.63 112.78 1459.31 Q114.152 1461.96 116.86 1461.96 Q119.586 1461.96 120.94 1459.31 Q122.311 1456.63 122.311 1451.3 Q122.311 1445.96 120.94 1443.3 Q119.586 1440.63 116.86 1440.63 M116.86 1437.85 Q121.217 1437.85 123.509 1441.3 Q125.818 1444.74 125.818 1451.3 Q125.818 1457.85 123.509 1461.3 Q121.217 1464.74 116.86 1464.74 Q112.502 1464.74 110.193 1461.3 Q107.902 1457.85 107.902 1451.3 Q107.902 1444.74 110.193 1441.3 Q112.502 1437.85 116.86 1437.85 Z" fill="#000000" fill-rule="nonzero" fill-opacity="1" /><path clip-path="url(#clip230)" d="M61.2351 1320.3 Q58.5268 1320.3 57.1553 1322.97 Q55.8011 1325.63 55.8011 1330.98 Q55.8011 1336.31 57.1553 1338.98 Q58.5268 1341.64 61.2351 1341.64 Q63.9608 1341.64 65.315 1338.98 Q66.6865 1336.31 66.6865 1330.98 Q66.6865 1325.63 65.315 1322.97 Q63.9608 1320.3 61.2351 1320.3 M61.2351 1317.52 Q65.5927 1317.52 67.8844 1320.98 Q70.1934 1324.41 70.1934 1330.98 Q70.1934 1337.52 67.8844 1340.98 Q65.5927 1344.41 61.2351 1344.41 Q56.8775 1344.41 54.5685 1340.98 Q52.2768 1337.52 52.2768 1330.98 Q52.2768 1324.41 54.5685 1320.98 Q56.8775 1317.52 61.2351 1317.52 Z" fill="#000000" fill-rule="nonzero" fill-opacity="1" /><path clip-path="url(#clip230)" d="M76.3566 1339.5 L80.0197 1339.5 L80.0197 1343.91 L76.3566 1343.91 L76.3566 1339.5 Z" fill="#000000" fill-rule="nonzero" fill-opacity="1" /><path clip-path="url(#clip230)" d="M95.1586 1320.3 Q92.4502 1320.3 91.0787 1322.97 Q89.7246 1325.63 89.7246 1330.98 Q89.7246 1336.31 91.0787 1338.98 Q92.4502 1341.64 95.1586 1341.64 Q97.8842 1341.64 99.2384 1338.98 Q100.61 1336.31 100.61 1330.98 Q100.61 1325.63 99.2384 1322.97 Q97.8842 1320.3 95.1586 1320.3 M95.1586 1317.52 Q99.5162 1317.52 101.808 1320.98 Q104.117 1324.41 104.117 1330.98 Q104.117 1337.52 101.808 1340.98 Q99.5162 1344.41 95.1586 1344.41 Q90.8009 1344.41 88.4919 1340.98 Q86.2003 1337.52 86.2003 1330.98 Q86.2003 1324.41 88.4919 1320.98 Q90.8009 1317.52 95.1586 1317.52 Z" fill="#000000" fill-rule="nonzero" fill-opacity="1" /><path clip-path="url(#clip230)" d="M110.888 1340.96 L116.617 1340.96 L116.617 1321.19 L110.384 1322.44 L110.384 1319.24 L116.582 1317.99 L120.089 1317.99 L120.089 1340.96 L125.818 1340.96 L125.818 1343.91 L110.888 1343.91 L110.888 1340.96 Z" fill="#000000" fill-rule="nonzero" fill-opacity="1" /><path clip-path="url(#clip230)" d="M61.5129 1199.97 Q58.8046 1199.97 57.4331 1202.65 Q56.0789 1205.3 56.0789 1210.65 Q56.0789 1215.98 57.4331 1218.65 Q58.8046 1221.31 61.5129 1221.31 Q64.2386 1221.31 65.5927 1218.65 Q66.9643 1215.98 66.9643 1210.65 Q66.9643 1205.3 65.5927 1202.65 Q64.2386 1199.97 61.5129 1199.97 M61.5129 1197.2 Q65.8705 1197.2 68.1622 1200.65 Q70.4712 1204.09 70.4712 1210.65 Q70.4712 1217.2 68.1622 1220.65 Q65.8705 1224.09 61.5129 1224.09 Q57.1553 1224.09 54.8463 1220.65 Q52.5546 1217.2 52.5546 1210.65 Q52.5546 1204.09 54.8463 1200.65 Q57.1553 1197.2 61.5129 1197.2 Z" fill="#000000" fill-rule="nonzero" fill-opacity="1" /><path clip-path="url(#clip230)" d="M76.6343 1219.17 L80.2975 1219.17 L80.2975 1223.58 L76.6343 1223.58 L76.6343 1219.17 Z" fill="#000000" fill-rule="nonzero" fill-opacity="1" /><path clip-path="url(#clip230)" d="M95.4363 1199.97 Q92.728 1199.97 91.3565 1202.65 Q90.0023 1205.3 90.0023 1210.65 Q90.0023 1215.98 91.3565 1218.65 Q92.728 1221.31 95.4363 1221.31 Q98.162 1221.31 99.5162 1218.65 Q100.888 1215.98 100.888 1210.65 Q100.888 1205.3 99.5162 1202.65 Q98.162 1199.97 95.4363 1199.97 M95.4363 1197.2 Q99.7939 1197.2 102.086 1200.65 Q104.395 1204.09 104.395 1210.65 Q104.395 1217.2 102.086 1220.65 Q99.7939 1224.09 95.4363 1224.09 Q91.0787 1224.09 88.7697 1220.65 Q86.478 1217.2 86.478 1210.65 Q86.478 1204.09 88.7697 1200.65 Q91.0787 1197.2 95.4363 1197.2 Z" fill="#000000" fill-rule="nonzero" fill-opacity="1" /><path clip-path="url(#clip230)" d="M113.579 1220.63 L125.818 1220.63 L125.818 1223.58 L109.36 1223.58 L109.36 1220.63 Q111.356 1218.57 114.794 1215.09 Q118.249 1211.6 119.134 1210.6 Q120.818 1208.71 121.478 1207.4 Q122.155 1206.08 122.155 1204.82 Q122.155 1202.75 120.697 1201.45 Q119.256 1200.15 116.929 1200.15 Q115.28 1200.15 113.44 1200.72 Q111.617 1201.29 109.533 1202.46 L109.533 1198.91 Q111.652 1198.06 113.492 1197.63 Q115.332 1197.2 116.86 1197.2 Q120.888 1197.2 123.283 1199.21 Q125.679 1201.22 125.679 1204.59 Q125.679 1206.19 125.072 1207.63 Q124.481 1209.05 122.901 1211 Q122.467 1211.5 120.141 1213.91 Q117.815 1216.31 113.579 1220.63 Z" fill="#000000" fill-rule="nonzero" fill-opacity="1" /><path clip-path="url(#clip230)" d="M60.8011 1079.65 Q58.0928 1079.65 56.7213 1082.32 Q55.3671 1084.98 55.3671 1090.32 Q55.3671 1095.65 56.7213 1098.33 Q58.0928 1100.98 60.8011 1100.98 Q63.5268 1100.98 64.8809 1098.33 Q66.2525 1095.65 66.2525 1090.32 Q66.2525 1084.98 64.8809 1082.32 Q63.5268 1079.65 60.8011 1079.65 M60.8011 1076.87 Q65.1587 1076.87 67.4504 1080.32 Q69.7594 1083.76 69.7594 1090.32 Q69.7594 1096.87 67.4504 1100.32 Q65.1587 1103.76 60.8011 1103.76 Q56.4435 1103.76 54.1345 1100.32 Q51.8428 1096.87 51.8428 1090.32 Q51.8428 1083.76 54.1345 1080.32 Q56.4435 1076.87 60.8011 1076.87 Z" fill="#000000" fill-rule="nonzero" fill-opacity="1" /><path clip-path="url(#clip230)" d="M75.9225 1098.85 L79.5857 1098.85 L79.5857 1103.26 L75.9225 1103.26 L75.9225 1098.85 Z" fill="#000000" fill-rule="nonzero" fill-opacity="1" /><path clip-path="url(#clip230)" d="M94.7245 1079.65 Q92.0162 1079.65 90.6447 1082.32 Q89.2905 1084.98 89.2905 1090.32 Q89.2905 1095.65 90.6447 1098.33 Q92.0162 1100.98 94.7245 1100.98 Q97.4502 1100.98 98.8044 1098.33 Q100.176 1095.65 100.176 1090.32 Q100.176 1084.98 98.8044 1082.32 Q97.4502 1079.65 94.7245 1079.65 M94.7245 1076.87 Q99.0821 1076.87 101.374 1080.32 Q103.683 1083.76 103.683 1090.32 Q103.683 1096.87 101.374 1100.32 Q99.0821 1103.76 94.7245 1103.76 Q90.3669 1103.76 88.0579 1100.32 Q85.7662 1096.87 85.7662 1090.32 Q85.7662 1083.76 88.0579 1080.32 Q90.3669 1076.87 94.7245 1076.87 Z" fill="#000000" fill-rule="nonzero" fill-opacity="1" /><path clip-path="url(#clip230)" d="M120.471 1089.28 Q122.988 1089.82 124.395 1091.52 Q125.818 1093.22 125.818 1095.72 Q125.818 1099.56 123.179 1101.66 Q120.54 1103.76 115.679 1103.76 Q114.047 1103.76 112.311 1103.43 Q110.593 1103.12 108.752 1102.48 L108.752 1099.09 Q110.211 1099.94 111.947 1100.37 Q113.683 1100.81 115.575 1100.81 Q118.874 1100.81 120.592 1099.51 Q122.329 1098.2 122.329 1095.72 Q122.329 1093.43 120.714 1092.15 Q119.117 1090.84 116.252 1090.84 L113.231 1090.84 L113.231 1087.96 L116.391 1087.96 Q118.978 1087.96 120.349 1086.94 Q121.721 1085.9 121.721 1083.95 Q121.721 1081.95 120.297 1080.9 Q118.891 1079.82 116.252 1079.82 Q114.811 1079.82 113.162 1080.13 Q111.513 1080.44 109.533 1081.1 L109.533 1077.98 Q111.53 1077.42 113.266 1077.15 Q115.02 1076.87 116.565 1076.87 Q120.558 1076.87 122.884 1078.69 Q125.21 1080.5 125.21 1083.59 Q125.21 1085.74 123.978 1087.23 Q122.745 1088.71 120.471 1089.28 Z" fill="#000000" fill-rule="nonzero" fill-opacity="1" /><path clip-path="url(#clip230)" d="M59.9504 959.318 Q57.2421 959.318 55.8706 961.992 Q54.5164 964.648 54.5164 969.995 Q54.5164 975.325 55.8706 977.999 Q57.2421 980.655 59.9504 980.655 Q62.6761 980.655 64.0303 977.999 Q65.4018 975.325 65.4018 969.995 Q65.4018 964.648 64.0303 961.992 Q62.6761 959.318 59.9504 959.318 M59.9504 956.541 Q64.308 956.541 66.5997 959.996 Q68.9087 963.433 68.9087 969.995 Q68.9087 976.541 66.5997 979.995 Q64.308 983.433 59.9504 983.433 Q55.5928 983.433 53.2838 979.995 Q50.9921 976.541 50.9921 969.995 Q50.9921 963.433 53.2838 959.996 Q55.5928 956.541 59.9504 956.541 Z" fill="#000000" fill-rule="nonzero" fill-opacity="1" /><path clip-path="url(#clip230)" d="M75.0719 978.52 L78.735 978.52 L78.735 982.929 L75.0719 982.929 L75.0719 978.52 Z" fill="#000000" fill-rule="nonzero" fill-opacity="1" /><path clip-path="url(#clip230)" d="M93.8738 959.318 Q91.1655 959.318 89.794 961.992 Q88.4398 964.648 88.4398 969.995 Q88.4398 975.325 89.794 977.999 Q91.1655 980.655 93.8738 980.655 Q96.5995 980.655 97.9537 977.999 Q99.3252 975.325 99.3252 969.995 Q99.3252 964.648 97.9537 961.992 Q96.5995 959.318 93.8738 959.318 M93.8738 956.541 Q98.2315 956.541 100.523 959.996 Q102.832 963.433 102.832 969.995 Q102.832 976.541 100.523 979.995 Q98.2315 983.433 93.8738 983.433 Q89.5162 983.433 87.2072 979.995 Q84.9156 976.541 84.9156 969.995 Q84.9156 963.433 87.2072 959.996 Q89.5162 956.541 93.8738 956.541 Z" fill="#000000" fill-rule="nonzero" fill-opacity="1" /><path clip-path="url(#clip230)" d="M118.631 960.065 L109.777 973.902 L118.631 973.902 L118.631 960.065 M117.711 957.009 L122.12 957.009 L122.12 973.902 L125.818 973.902 L125.818 976.818 L122.12 976.818 L122.12 982.929 L118.631 982.929 L118.631 976.818 L106.929 976.818 L106.929 973.433 L117.711 957.009 Z" fill="#000000" fill-rule="nonzero" fill-opacity="1" /><path clip-path="url(#clip230)" d="M173.716 818.926 Q170.198 818.926 168.3 821.472 Q166.309 824.134 166.309 828.532 Q166.309 833.185 168.276 835.87 Q170.267 838.532 173.716 838.532 Q177.119 838.532 179.11 835.847 Q181.1 833.162 181.1 828.532 Q181.1 824.296 179.11 821.472 Q177.281 818.926 173.716 818.926 M173.716 815.546 L187.86 815.546 L187.86 819.805 L183.091 819.805 Q185.614 823.417 185.614 828.532 Q185.614 834.898 182.443 838.509 Q179.272 842.143 173.716 842.143 Q168.138 842.143 164.989 838.509 Q161.818 834.898 161.818 828.532 Q161.818 822.12 164.989 818.532 Q167.605 815.546 173.716 815.546 Z" fill="#000000" fill-rule="nonzero" fill-opacity="1" /><path clip-path="url(#clip230)" d="M198.878 841.472 L190.961 815.546 L195.545 815.546 L202.235 837.305 Q205.012 834.435 207.327 830.454 Q209.086 827.467 209.179 824.875 Q209.225 823.648 208.67 821.333 Q208.022 818.579 205.568 815.546 L209.873 815.546 L209.873 815.546 Q211.471 817.606 212.535 820.477 Q213.508 823.116 213.508 824.921 Q213.508 829.458 210.36 833.509 Q206.262 838.787 203.415 841.472 L198.878 841.472 Z" fill="#000000" fill-rule="nonzero" fill-opacity="1" /><polyline clip-path="url(#clip234)" style="stroke:#009af9; stroke-linecap:round; stroke-linejoin:round; stroke-width:4; stroke-opacity:1; fill:none" points="189.869,964.885 248.307,1022.88 306.746,1081.68 365.185,1141.28 423.623,1201.68 482.062,1262.88 540.501,1324.88 598.939,1387.68 657.378,1451.28 715.817,1386.88 774.256,1321.68 832.694,1255.68 891.133,1188.88 949.572,1121.28 1008.01,1052.88 1066.45,983.68 1124.89,913.68 "/>
<circle clip-path="url(#clip234)" cx="657.378" cy="1451.28" r="10.8" fill="#ff0000" fill-rule="evenodd" fill-opacity="1" stroke="#000000" stroke-opacity="1" stroke-width="3.2"/>
</svg>
