<?xml version="1.0" encoding="utf-8"?>
<svg xmlns="http://www.w3.org/2000/svg" xmlns:xlink="http://www.w3.org/1999/xlink" width="600" height="400" viewBox="0 0 2400 1600">
<defs>
  <clipPath id="clip180">
    <rect x="0" y="0" width="2400" height="1600"/>
  </clipPath>
</defs>
<path clip-path="url(#clip180)" d="M0 1600 L2400 1600 L2400 0 L0 0  Z" fill="#ffffff" fill-rule="evenodd" fill-opacity="1"/>
<defs>
  <clipPath id="clip181">
    <rect x="480" y="0" width="1681" height="1600"/>
  </clipPath>
</defs>
<path clip-path="url(#clip180)" d="M161.818 667.406 L1152.94 667.406 L1152.94 97.5521 L161.818 97.5521  Z" fill="#ffffff" fill-rule="evenodd" fill-opacity="1"/>
<defs>
  <clipPath id="clip182">
    <rect x="161" y="97" width="992" height="571"/>
  </clipPath>
</defs>
<polyline clip-path="url(#clip182)" style="stroke:#000000; stroke-linecap:round; stroke-linejoin:round; stroke-width:2; stroke-opacity:0.1; fill:none" points="187.107,667.406 187.107,97.5521 "/>
<polyline clip-path="url(#clip182)" style="stroke:#000000; stroke-linecap:round; stroke-linejoin:round; stroke-width:2; stroke-opacity:0.1; fill:none" points="449.909,667.406 449.909,97.5521 "/>
<polyline clip-path="url(#clip182)" style="stroke:#000000; stroke-linecap:round; stroke-linejoin:round; stroke-width:2; stroke-opacity:0.1; fill:none" points="712.71,667.406 712.71,97.5521 "/>
<polyline clip-path="url(#clip182)" style="stroke:#000000; stroke-linecap:round; stroke-linejoin:round; stroke-width:2; stroke-opacity:0.1; fill:none" points="975.512,667.406 975.512,97.5521 "/>
<polyline clip-path="url(#clip182)" style="stroke:#000000; stroke-linecap:round; stroke-linejoin:round; stroke-width:2; stroke-opacity:0.1; fill:none" points="161.818,651.278 1152.94,651.278 "/>
<polyline clip-path="url(#clip182)" style="stroke:#000000; stroke-linecap:round; stroke-linejoin:round; stroke-width:2; stroke-opacity:0.1; fill:none" points="161.818,517.583 1152.94,517.583 "/>
<polyline clip-path="url(#clip182)" style="stroke:#000000; stroke-linecap:round; stroke-linejoin:round; stroke-width:2; stroke-opacity:0.1; fill:none" points="161.818,383.888 1152.94,383.888 "/>
<polyline clip-path="url(#clip182)" style="stroke:#000000; stroke-linecap:round; stroke-linejoin:round; stroke-width:2; stroke-opacity:0.1; fill:none" points="161.818,250.192 1152.94,250.192 "/>
<polyline clip-path="url(#clip182)" style="stroke:#000000; stroke-linecap:round; stroke-linejoin:round; stroke-width:2; stroke-opacity:0.1; fill:none" points="161.818,116.497 1152.94,116.497 "/>
<polyline clip-path="url(#clip180)" style="stroke:#000000; stroke-linecap:round; stroke-linejoin:round; stroke-width:4; stroke-opacity:1; fill:none" points="161.818,667.406 1152.94,667.406 "/>
<polyline clip-path="url(#clip180)" style="stroke:#000000; stroke-linecap:round; stroke-linejoin:round; stroke-width:4; stroke-opacity:1; fill:none" points="187.107,667.406 187.107,648.509 "/>
<polyline clip-path="url(#clip180)" style="stroke:#000000; stroke-linecap:round; stroke-linejoin:round; stroke-width:4; stroke-opacity:1; fill:none" points="449.909,667.406 449.909,648.509 "/>
<polyline clip-path="url(#clip180)" style="stroke:#000000; stroke-linecap:round; stroke-linejoin:round; stroke-width:4; stroke-opacity:1; fill:none" points="712.71,667.406 712.71,648.509 "/>
<polyline clip-path="url(#clip180)" style="stroke:#000000; stroke-linecap:round; stroke-linejoin:round; stroke-width:4; stroke-opacity:1; fill:none" points="975.512,667.406 975.512,648.509 "/>
<path clip-path="url(#clip180)" d="M133.258 739.139 Q131.343 741.054 132.264 743.914 Q133.184 746.75 136.966 750.531 Q140.734 754.3 143.582 755.233 Q146.43 756.141 148.345 754.226 Q150.273 752.299 149.352 749.463 Q148.431 746.603 144.663 742.834 Q140.882 739.053 138.034 738.144 Q135.186 737.211 133.258 739.139 M131.294 737.175 Q134.375 734.093 138.439 734.916 Q142.502 735.714 147.142 740.354 Q151.771 744.982 152.581 749.058 Q153.391 753.109 150.31 756.19 Q147.228 759.272 143.165 758.474 Q139.102 757.651 134.473 753.023 Q129.833 748.383 129.023 744.332 Q128.213 740.256 131.294 737.175 Z" fill="#000000" fill-rule="nonzero" fill-opacity="1" /><path clip-path="url(#clip180)" d="M157.528 742.024 L160.118 739.433 L163.236 742.552 L160.646 745.142 L157.528 742.024 Z" fill="#000000" fill-rule="nonzero" fill-opacity="1" /><path clip-path="url(#clip180)" d="M165.237 723.143 Q163.47 724.911 163.396 726.875 Q163.335 728.827 164.992 730.484 Q166.649 732.141 168.601 732.08 Q170.565 732.006 172.333 730.239 Q174.101 728.471 174.174 726.507 Q174.236 724.53 172.591 722.885 Q170.933 721.228 168.969 721.302 Q167.017 721.363 165.237 723.143 M161.702 724.567 Q159.713 725.77 157.724 725.574 Q155.748 725.365 154.177 723.794 Q151.979 721.596 152.262 718.761 Q152.556 715.912 155.281 713.187 Q158.019 710.45 160.855 710.167 Q163.691 709.885 165.888 712.082 Q167.459 713.654 167.656 715.642 Q167.864 717.619 166.674 719.595 Q168.883 718.22 171.093 718.441 Q173.315 718.65 175.071 720.406 Q177.734 723.069 177.526 726.126 Q177.329 729.171 174.297 732.203 Q171.265 735.235 168.208 735.444 Q165.164 735.64 162.5 732.976 Q160.744 731.221 160.536 728.999 Q160.327 726.777 161.702 724.567 M156.877 721.559 Q158.301 722.983 159.983 722.898 Q161.677 722.799 163.285 721.191 Q164.881 719.595 164.98 717.901 Q165.09 716.195 163.666 714.771 Q162.242 713.347 160.536 713.457 Q158.842 713.555 157.246 715.151 Q155.637 716.76 155.539 718.454 Q155.453 720.135 156.877 721.559 Z" fill="#000000" fill-rule="nonzero" fill-opacity="1" /><path clip-path="url(#clip180)" d="M173.241 699.156 Q171.326 701.071 172.247 703.931 Q173.168 706.767 176.949 710.548 Q180.718 714.317 183.566 715.25 Q186.414 716.158 188.329 714.243 Q190.256 712.316 189.335 709.48 Q188.415 706.619 184.646 702.851 Q180.865 699.07 178.017 698.161 Q175.169 697.228 173.241 699.156 M171.277 697.191 Q174.359 694.11 178.422 694.933 Q182.485 695.731 187.126 700.371 Q191.754 704.999 192.564 709.075 Q193.374 713.126 190.293 716.207 Q187.212 719.288 183.148 718.49 Q179.085 717.668 174.457 713.04 Q169.816 708.399 169.006 704.348 Q168.196 700.273 171.277 697.191 Z" fill="#000000" fill-rule="nonzero" fill-opacity="1" /><path clip-path="url(#clip180)" d="M396.588 738.611 Q394.672 740.526 395.593 743.386 Q396.514 746.222 400.295 750.003 Q404.064 753.772 406.912 754.705 Q409.76 755.613 411.675 753.698 Q413.602 751.771 412.681 748.935 Q411.761 746.075 407.992 742.306 Q404.211 738.525 401.363 737.617 Q398.515 736.684 396.588 738.611 M394.623 736.647 Q397.705 733.565 401.768 734.388 Q405.831 735.186 410.472 739.826 Q415.1 744.454 415.91 748.53 Q416.72 752.581 413.639 755.662 Q410.558 758.744 406.494 757.946 Q402.431 757.123 397.803 752.495 Q393.162 747.855 392.352 743.804 Q391.542 739.728 394.623 736.647 Z" fill="#000000" fill-rule="nonzero" fill-opacity="1" /><path clip-path="url(#clip180)" d="M420.857 741.496 L423.448 738.906 L426.566 742.024 L423.975 744.614 L420.857 741.496 Z" fill="#000000" fill-rule="nonzero" fill-opacity="1" /><path clip-path="url(#clip180)" d="M428.567 722.615 Q426.799 724.383 426.725 726.347 Q426.664 728.299 428.321 729.956 Q429.978 731.614 431.93 731.552 Q433.895 731.479 435.662 729.711 Q437.43 727.943 437.504 725.979 Q437.565 724.002 435.92 722.357 Q434.263 720.7 432.299 720.774 Q430.347 720.835 428.567 722.615 M425.031 724.039 Q423.042 725.242 421.054 725.046 Q419.077 724.837 417.506 723.266 Q415.309 721.068 415.591 718.233 Q415.886 715.385 418.611 712.659 Q421.348 709.922 424.184 709.639 Q427.02 709.357 429.217 711.554 Q430.789 713.126 430.985 715.115 Q431.194 717.091 430.003 719.067 Q432.213 717.692 434.422 717.913 Q436.644 718.122 438.4 719.878 Q441.064 722.542 440.855 725.598 Q440.659 728.643 437.626 731.675 Q434.594 734.707 431.538 734.916 Q428.493 735.112 425.829 732.448 Q424.074 730.693 423.865 728.471 Q423.656 726.249 425.031 724.039 M420.207 721.032 Q421.631 722.456 423.313 722.37 Q425.007 722.271 426.615 720.663 Q428.211 719.067 428.309 717.373 Q428.419 715.667 426.995 714.243 Q425.571 712.819 423.865 712.929 Q422.171 713.028 420.575 714.623 Q418.967 716.232 418.869 717.926 Q418.783 719.608 420.207 721.032 Z" fill="#000000" fill-rule="nonzero" fill-opacity="1" /><path clip-path="url(#clip180)" d="M429.659 702.274 L439.394 692.539 L441.481 694.626 L434.017 702.09 L438.51 706.583 Q438.866 705.858 439.321 705.232 Q439.763 704.594 440.303 704.054 Q443.372 700.985 446.846 700.874 Q450.32 700.764 453.193 703.636 Q456.151 706.595 455.955 710.081 Q455.746 713.555 452.395 716.907 Q451.241 718.061 449.841 719.067 Q448.454 720.062 446.784 720.946 L444.292 718.454 Q445.999 717.95 447.472 717.066 Q448.945 716.183 450.259 714.869 Q452.382 712.745 452.505 710.388 Q452.628 708.031 450.713 706.116 Q448.798 704.201 446.441 704.324 Q444.084 704.447 441.96 706.57 Q440.966 707.565 440.192 708.78 Q439.431 709.983 438.866 711.481 L429.659 702.274 Z" fill="#000000" fill-rule="nonzero" fill-opacity="1" /><path clip-path="url(#clip180)" d="M658.861 739.139 Q656.946 741.054 657.867 743.914 Q658.787 746.75 662.569 750.531 Q666.337 754.3 669.185 755.233 Q672.033 756.141 673.948 754.226 Q675.876 752.299 674.955 749.463 Q674.034 746.603 670.266 742.834 Q666.485 739.053 663.637 738.144 Q660.788 737.211 658.861 739.139 M656.897 737.175 Q659.978 734.093 664.042 734.916 Q668.105 735.714 672.745 740.354 Q677.373 744.982 678.184 749.058 Q678.994 753.109 675.913 756.19 Q672.831 759.272 668.768 758.474 Q664.705 757.651 660.076 753.023 Q655.436 748.383 654.626 744.332 Q653.816 740.256 656.897 737.175 Z" fill="#000000" fill-rule="nonzero" fill-opacity="1" /><path clip-path="url(#clip180)" d="M683.131 742.024 L685.721 739.433 L688.839 742.552 L686.249 745.142 L683.131 742.024 Z" fill="#000000" fill-rule="nonzero" fill-opacity="1" /><path clip-path="url(#clip180)" d="M693.934 736.696 L691.675 734.437 Q693.05 733.946 694.241 733.222 Q695.432 732.497 696.352 731.577 Q698.808 729.122 698.452 726.188 Q698.096 723.229 694.916 719.681 Q695.26 721.449 694.732 723.106 Q694.204 724.764 692.878 726.089 Q690.128 728.839 686.863 728.79 Q683.597 728.716 680.713 725.832 Q677.889 723.008 677.852 719.632 Q677.815 716.256 680.59 713.482 Q683.769 710.302 687.882 711.076 Q691.994 711.825 696.635 716.465 Q700.968 720.798 701.496 725.451 Q702.024 730.079 698.55 733.553 Q697.617 734.486 696.475 735.26 Q695.333 736.033 693.934 736.696 M691.098 723.99 Q692.768 722.321 692.596 720.209 Q692.436 718.085 690.448 716.097 Q688.471 714.12 686.347 713.961 Q684.224 713.776 682.554 715.446 Q680.884 717.116 681.056 719.252 Q681.228 721.363 683.205 723.339 Q685.193 725.328 687.305 725.5 Q689.429 725.66 691.098 723.99 Z" fill="#000000" fill-rule="nonzero" fill-opacity="1" /><path clip-path="url(#clip180)" d="M698.844 699.156 Q696.929 701.071 697.85 703.931 Q698.771 706.767 702.552 710.548 Q706.321 714.317 709.169 715.25 Q712.017 716.158 713.932 714.243 Q715.859 712.316 714.938 709.48 Q714.018 706.619 710.249 702.851 Q706.468 699.07 703.62 698.161 Q700.772 697.228 698.844 699.156 M696.88 697.191 Q699.961 694.11 704.025 694.933 Q708.088 695.731 712.729 700.371 Q717.357 704.999 718.167 709.075 Q718.977 713.126 715.896 716.207 Q712.815 719.288 708.751 718.49 Q704.688 717.668 700.06 713.04 Q695.419 708.399 694.609 704.348 Q693.799 700.273 696.88 697.191 Z" fill="#000000" fill-rule="nonzero" fill-opacity="1" /><path clip-path="url(#clip180)" d="M922.19 738.611 Q920.275 740.526 921.196 743.386 Q922.117 746.222 925.898 750.003 Q929.667 753.772 932.515 754.705 Q935.363 755.613 937.278 753.698 Q939.205 751.771 938.284 748.935 Q937.364 746.075 933.595 742.306 Q929.814 738.525 926.966 737.617 Q924.118 736.684 922.19 738.611 M920.226 736.647 Q923.308 733.565 927.371 734.388 Q931.434 735.186 936.075 739.826 Q940.703 744.454 941.513 748.53 Q942.323 752.581 939.242 755.662 Q936.161 758.744 932.097 757.946 Q928.034 757.123 923.406 752.495 Q918.765 747.855 917.955 743.804 Q917.145 739.728 920.226 736.647 Z" fill="#000000" fill-rule="nonzero" fill-opacity="1" /><path clip-path="url(#clip180)" d="M946.46 741.496 L949.051 738.906 L952.169 742.024 L949.578 744.614 L946.46 741.496 Z" fill="#000000" fill-rule="nonzero" fill-opacity="1" /><path clip-path="url(#clip180)" d="M957.263 736.168 L955.004 733.909 Q956.379 733.418 957.57 732.694 Q958.761 731.97 959.682 731.049 Q962.137 728.594 961.781 725.66 Q961.425 722.701 958.245 719.153 Q958.589 720.921 958.061 722.578 Q957.533 724.236 956.208 725.561 Q953.458 728.311 950.192 728.262 Q946.927 728.189 944.042 725.304 Q941.218 722.48 941.182 719.104 Q941.145 715.728 943.919 712.954 Q947.099 709.774 951.211 710.548 Q955.324 711.297 959.964 715.937 Q964.297 720.27 964.825 724.923 Q965.353 729.551 961.879 733.025 Q960.946 733.958 959.804 734.732 Q958.663 735.505 957.263 736.168 M954.428 723.462 Q956.097 721.793 955.925 719.681 Q955.766 717.557 953.777 715.569 Q951.8 713.592 949.677 713.433 Q947.553 713.249 945.883 714.918 Q944.214 716.588 944.386 718.724 Q944.558 720.835 946.534 722.812 Q948.523 724.8 950.634 724.972 Q952.758 725.132 954.428 723.462 Z" fill="#000000" fill-rule="nonzero" fill-opacity="1" /><path clip-path="url(#clip180)" d="M955.262 702.274 L964.997 692.539 L967.084 694.626 L959.62 702.09 L964.113 706.583 Q964.469 705.858 964.924 705.232 Q965.366 704.594 965.906 704.054 Q968.975 700.985 972.449 700.874 Q975.923 700.764 978.796 703.636 Q981.754 706.595 981.558 710.081 Q981.349 713.555 977.998 716.907 Q976.844 718.061 975.444 719.067 Q974.057 720.062 972.387 720.946 L969.895 718.454 Q971.602 717.95 973.075 717.066 Q974.548 716.183 975.862 714.869 Q977.985 712.745 978.108 710.388 Q978.231 708.031 976.316 706.116 Q974.401 704.201 972.044 704.324 Q969.687 704.447 967.563 706.57 Q966.569 707.565 965.795 708.78 Q965.034 709.983 964.469 711.481 L955.262 702.274 Z" fill="#000000" fill-rule="nonzero" fill-opacity="1" /><polyline clip-path="url(#clip180)" style="stroke:#000000; stroke-linecap:round; stroke-linejoin:round; stroke-width:4; stroke-opacity:1; fill:none" points="161.818,667.406 161.818,97.5521 "/>
<polyline clip-path="url(#clip180)" style="stroke:#000000; stroke-linecap:round; stroke-linejoin:round; stroke-width:4; stroke-opacity:1; fill:none" points="161.818,651.278 180.716,651.278 "/>
<polyline clip-path="url(#clip180)" style="stroke:#000000; stroke-linecap:round; stroke-linejoin:round; stroke-width:4; stroke-opacity:1; fill:none" points="161.818,517.583 180.716,517.583 "/>
<polyline clip-path="url(#clip180)" style="stroke:#000000; stroke-linecap:round; stroke-linejoin:round; stroke-width:4; stroke-opacity:1; fill:none" points="161.818,383.888 180.716,383.888 "/>
<polyline clip-path="url(#clip180)" style="stroke:#000000; stroke-linecap:round; stroke-linejoin:round; stroke-width:4; stroke-opacity:1; fill:none" points="161.818,250.192 180.716,250.192 "/>
<polyline clip-path="url(#clip180)" style="stroke:#000000; stroke-linecap:round; stroke-linejoin:round; stroke-width:4; stroke-opacity:1; fill:none" points="161.818,116.497 180.716,116.497 "/>
<path clip-path="url(#clip180)" d="M116.86 640.627 Q114.152 640.627 112.78 643.301 Q111.426 645.957 111.426 651.304 Q111.426 656.634 112.78 659.308 Q114.152 661.964 116.86 661.964 Q119.586 661.964 120.94 659.308 Q122.311 656.634 122.311 651.304 Q122.311 645.957 120.94 643.301 Q119.586 640.627 116.86 640.627 M116.86 637.85 Q121.217 637.85 123.509 641.305 Q125.818 644.742 125.818 651.304 Q125.818 657.85 123.509 661.304 Q121.217 664.742 116.86 664.742 Q112.502 664.742 110.193 661.304 Q107.902 657.85 107.902 651.304 Q107.902 644.742 110.193 641.305 Q112.502 637.85 116.86 637.85 Z" fill="#000000" fill-rule="nonzero" fill-opacity="1" /><path clip-path="url(#clip180)" d="M110.888 527.592 L116.617 527.592 L116.617 507.818 L110.384 509.067 L110.384 505.873 L116.582 504.623 L120.089 504.623 L120.089 527.592 L125.818 527.592 L125.818 530.543 L110.888 530.543 L110.888 527.592 Z" fill="#000000" fill-rule="nonzero" fill-opacity="1" /><path clip-path="url(#clip180)" d="M113.579 393.896 L125.818 393.896 L125.818 396.848 L109.36 396.848 L109.36 393.896 Q111.356 391.83 114.794 388.358 Q118.249 384.869 119.134 383.862 Q120.818 381.969 121.478 380.667 Q122.155 379.348 122.155 378.08 Q122.155 376.015 120.697 374.712 Q119.256 373.41 116.929 373.41 Q115.28 373.41 113.44 373.983 Q111.617 374.556 109.533 375.719 L109.533 372.178 Q111.652 371.327 113.492 370.893 Q115.332 370.459 116.86 370.459 Q120.888 370.459 123.283 372.473 Q125.679 374.487 125.679 377.855 Q125.679 379.452 125.072 380.893 Q124.481 382.317 122.901 384.261 Q122.467 384.764 120.141 387.178 Q117.815 389.573 113.579 393.896 Z" fill="#000000" fill-rule="nonzero" fill-opacity="1" /><path clip-path="url(#clip180)" d="M120.471 249.177 Q122.988 249.715 124.395 251.416 Q125.818 253.118 125.818 255.618 Q125.818 259.455 123.179 261.555 Q120.54 263.656 115.679 263.656 Q114.047 263.656 112.311 263.326 Q110.593 263.014 108.752 262.371 L108.752 258.986 Q110.211 259.836 111.947 260.27 Q113.683 260.705 115.575 260.705 Q118.874 260.705 120.592 259.402 Q122.329 258.1 122.329 255.618 Q122.329 253.326 120.714 252.041 Q119.117 250.739 116.252 250.739 L113.231 250.739 L113.231 247.857 L116.391 247.857 Q118.978 247.857 120.349 246.833 Q121.721 245.791 121.721 243.847 Q121.721 241.85 120.297 240.791 Q118.891 239.715 116.252 239.715 Q114.811 239.715 113.162 240.028 Q111.513 240.34 109.533 241 L109.533 237.875 Q111.53 237.319 113.266 237.041 Q115.02 236.764 116.565 236.764 Q120.558 236.764 122.884 238.587 Q125.21 240.392 125.21 243.482 Q125.21 245.635 123.978 247.128 Q122.745 248.604 120.471 249.177 Z" fill="#000000" fill-rule="nonzero" fill-opacity="1" /><path clip-path="url(#clip180)" d="M118.631 106.593 L109.777 120.429 L118.631 120.429 L118.631 106.593 M117.711 103.537 L122.12 103.537 L122.12 120.429 L125.818 120.429 L125.818 123.346 L122.12 123.346 L122.12 129.457 L118.631 129.457 L118.631 123.346 L106.929 123.346 L106.929 119.961 L117.711 103.537 Z" fill="#000000" fill-rule="nonzero" fill-opacity="1" /><path clip-path="url(#clip180)" d="M163.901 20.1758 Q165.313 17.8147 168.809 15.7314 Q170.175 14.9212 174.387 14.9212 Q179.11 14.9212 182.049 18.6712 Q185.012 22.4212 185.012 28.5323 Q185.012 34.6433 182.049 38.3933 Q179.11 42.1433 174.387 42.1433 Q171.54 42.1433 169.48 41.0322 Q167.443 39.8979 166.1 37.5831 L166.1 51.3331 L161.818 51.3331 L161.818 28.7637 Q161.818 23.4165 163.901 20.1758 M180.591 28.5323 Q180.591 23.8332 178.647 21.1712 Q176.725 18.486 173.346 18.486 Q169.966 18.486 168.022 21.1712 Q166.1 23.8332 166.1 28.5323 Q166.1 33.2313 168.022 35.9165 Q169.966 38.5785 173.346 38.5785 Q176.725 38.5785 178.647 35.9165 Q180.591 33.2313 180.591 28.5323 Z" fill="#000000" fill-rule="nonzero" fill-opacity="1" /><polyline clip-path="url(#clip182)" style="stroke:#009af9; stroke-linecap:round; stroke-linejoin:round; stroke-width:4; stroke-opacity:1; fill:none" points="189.869,592.64 248.307,596.937 306.746,601.774 365.185,607.261 423.623,613.536 482.062,620.783 540.501,629.244 598.939,639.254 657.378,651.278 715.817,636.566 774.256,618.151 832.694,594.439 891.133,562.763 949.572,518.304 1008.01,451.368 1066.45,339.175 1124.89,113.68 "/>
<circle clip-path="url(#clip182)" cx="657.378" cy="651.278" r="10.8" fill="#ff0000" fill-rule="evenodd" fill-opacity="1" stroke="#000000" stroke-opacity="1" stroke-width="3.2"/>
<path clip-path="url(#clip180)" d="M1361.64 667.406 L2352.76 667.406 L2352.76 97.5521 L1361.64 97.5521  Z" fill="#ffffff" fill-rule="evenodd" fill-opacity="1"/>
<defs>
  <clipPath id="clip183">
    <rect x="1361" y="97" width="992" height="571"/>
  </clipPath>
</defs>
<polyline clip-path="url(#clip183)" style="stroke:#000000; stroke-linecap:round; stroke-linejoin:round; stroke-width:2; stroke-opacity:0.1; fill:none" points="1364.34,667.406 1364.34,97.5521 "/>
<polyline clip-path="url(#clip183)" style="stroke:#000000; stroke-linecap:round; stroke-linejoin:round; stroke-width:2; stroke-opacity:0.1; fill:none" points="1508.55,667.406 1508.55,97.5521 "/>
<polyline clip-path="url(#clip183)" style="stroke:#000000; stroke-linecap:round; stroke-linejoin:round; stroke-width:2; stroke-opacity:0.1; fill:none" points="1652.77,667.406 1652.77,97.5521 "/>
<polyline clip-path="url(#clip183)" style="stroke:#000000; stroke-linecap:round; stroke-linejoin:round; stroke-width:2; stroke-opacity:0.1; fill:none" points="1796.98,667.406 1796.98,97.5521 "/>
<polyline clip-path="url(#clip183)" style="stroke:#000000; stroke-linecap:round; stroke-linejoin:round; stroke-width:2; stroke-opacity:0.1; fill:none" points="1941.2,667.406 1941.2,97.5521 "/>
<polyline clip-path="url(#clip183)" style="stroke:#000000; stroke-linecap:round; stroke-linejoin:round; stroke-width:2; stroke-opacity:0.1; fill:none" points="2085.41,667.406 2085.41,97.5521 "/>
<polyline clip-path="url(#clip183)" style="stroke:#000000; stroke-linecap:round; stroke-linejoin:round; stroke-width:2; stroke-opacity:0.1; fill:none" points="2229.63,667.406 2229.63,97.5521 "/>
<polyline clip-path="url(#clip183)" style="stroke:#000000; stroke-linecap:round; stroke-linejoin:round; stroke-width:2; stroke-opacity:0.1; fill:none" points="1361.64,651.278 2352.76,651.278 "/>
<polyline clip-path="url(#clip183)" style="stroke:#000000; stroke-linecap:round; stroke-linejoin:round; stroke-width:2; stroke-opacity:0.1; fill:none" points="1361.64,507.907 2352.76,507.907 "/>
<polyline clip-path="url(#clip183)" style="stroke:#000000; stroke-linecap:round; stroke-linejoin:round; stroke-width:2; stroke-opacity:0.1; fill:none" points="1361.64,364.535 2352.76,364.535 "/>
<polyline clip-path="url(#clip183)" style="stroke:#000000; stroke-linecap:round; stroke-linejoin:round; stroke-width:2; stroke-opacity:0.1; fill:none" points="1361.64,221.164 2352.76,221.164 "/>
<polyline clip-path="url(#clip180)" style="stroke:#000000; stroke-linecap:round; stroke-linejoin:round; stroke-width:4; stroke-opacity:1; fill:none" points="1361.64,667.406 2352.76,667.406 "/>
<polyline clip-path="url(#clip180)" style="stroke:#000000; stroke-linecap:round; stroke-linejoin:round; stroke-width:4; stroke-opacity:1; fill:none" points="1364.34,667.406 1364.34,648.509 "/>
<polyline clip-path="url(#clip180)" style="stroke:#000000; stroke-linecap:round; stroke-linejoin:round; stroke-width:4; stroke-opacity:1; fill:none" points="1508.55,667.406 1508.55,648.509 "/>
<polyline clip-path="url(#clip180)" style="stroke:#000000; stroke-linecap:round; stroke-linejoin:round; stroke-width:4; stroke-opacity:1; fill:none" points="1652.77,667.406 1652.77,648.509 "/>
<polyline clip-path="url(#clip180)" style="stroke:#000000; stroke-linecap:round; stroke-linejoin:round; stroke-width:4; stroke-opacity:1; fill:none" points="1796.98,667.406 1796.98,648.509 "/>
<polyline clip-path="url(#clip180)" style="stroke:#000000; stroke-linecap:round; stroke-linejoin:round; stroke-width:4; stroke-opacity:1; fill:none" points="1941.2,667.406 1941.2,648.509 "/>
<polyline clip-path="url(#clip180)" style="stroke:#000000; stroke-linecap:round; stroke-linejoin:round; stroke-width:4; stroke-opacity:1; fill:none" points="2085.41,667.406 2085.41,648.509 "/>
<polyline clip-path="url(#clip180)" style="stroke:#000000; stroke-linecap:round; stroke-linejoin:round; stroke-width:4; stroke-opacity:1; fill:none" points="2229.63,667.406 2229.63,648.509 "/>
<path clip-path="url(#clip180)" d="M1310.59 739.041 Q1308.67 740.956 1309.59 743.816 Q1310.51 746.652 1314.29 750.433 Q1318.06 754.202 1320.91 755.135 Q1323.76 756.043 1325.67 754.128 Q1327.6 752.201 1326.68 749.365 Q1325.76 746.504 1321.99 742.736 Q1318.21 738.955 1315.36 738.046 Q1312.51 737.113 1310.59 739.041 M1308.62 737.076 Q1311.7 733.995 1315.77 734.818 Q1319.83 735.616 1324.47 740.256 Q1329.1 744.884 1329.91 748.96 Q1330.72 753.011 1327.64 756.092 Q1324.56 759.173 1320.49 758.375 Q1316.43 757.553 1311.8 752.925 Q1307.16 748.285 1306.35 744.233 Q1305.54 740.158 1308.62 737.076 Z" fill="#000000" fill-rule="nonzero" fill-opacity="1" /><path clip-path="url(#clip180)" d="M1334.85 741.926 L1337.45 739.335 L1340.56 742.453 L1337.97 745.044 L1334.85 741.926 Z" fill="#000000" fill-rule="nonzero" fill-opacity="1" /><path clip-path="url(#clip180)" d="M1346.01 732.829 L1354.67 724.174 L1356.76 726.261 L1345.12 737.899 L1343.03 735.812 Q1342.98 732.939 1342.96 728.054 Q1342.93 723.143 1342.85 721.805 Q1342.7 719.276 1342.25 717.889 Q1341.79 716.477 1340.89 715.581 Q1339.43 714.12 1337.48 714.231 Q1335.54 714.329 1333.9 715.974 Q1332.73 717.14 1331.83 718.846 Q1330.95 720.541 1330.3 722.836 L1327.8 720.332 Q1328.69 718.233 1329.69 716.624 Q1330.68 715.016 1331.76 713.936 Q1334.61 711.088 1337.73 710.818 Q1340.85 710.548 1343.23 712.929 Q1344.36 714.059 1344.95 715.507 Q1345.54 716.931 1345.79 719.423 Q1345.84 720.086 1345.9 723.438 Q1345.95 726.777 1346.01 732.829 Z" fill="#000000" fill-rule="nonzero" fill-opacity="1" /><path clip-path="url(#clip180)" d="M1361.65 720.602 L1359.39 718.343 Q1360.77 717.852 1361.96 717.128 Q1363.15 716.404 1364.07 715.483 Q1366.53 713.028 1366.17 710.094 Q1365.82 707.135 1362.64 703.587 Q1362.98 705.355 1362.45 707.012 Q1361.92 708.67 1360.6 709.995 Q1357.85 712.745 1354.58 712.696 Q1351.32 712.622 1348.43 709.738 Q1345.61 706.914 1345.57 703.538 Q1345.54 700.162 1348.31 697.388 Q1351.49 694.208 1355.6 694.982 Q1359.71 695.731 1364.35 700.371 Q1368.69 704.704 1369.22 709.357 Q1369.74 713.985 1366.27 717.459 Q1365.34 718.392 1364.19 719.166 Q1363.05 719.939 1361.65 720.602 M1358.82 707.896 Q1360.49 706.227 1360.32 704.115 Q1360.16 701.991 1358.17 700.003 Q1356.19 698.026 1354.07 697.867 Q1351.94 697.682 1350.27 699.352 Q1348.6 701.022 1348.78 703.158 Q1348.95 705.269 1350.92 707.246 Q1352.91 709.234 1355.02 709.406 Q1357.15 709.566 1358.82 707.896 Z" fill="#000000" fill-rule="nonzero" fill-opacity="1" /><path clip-path="url(#clip180)" d="M1454.7 739.139 Q1452.79 741.054 1453.71 743.914 Q1454.63 746.75 1458.41 750.531 Q1462.18 754.3 1465.03 755.233 Q1467.87 756.141 1469.79 754.226 Q1471.72 752.299 1470.8 749.463 Q1469.88 746.603 1466.11 742.834 Q1462.33 739.053 1459.48 738.144 Q1456.63 737.211 1454.7 739.139 M1452.74 737.175 Q1455.82 734.093 1459.88 734.916 Q1463.95 735.714 1468.59 740.354 Q1473.21 744.982 1474.02 749.058 Q1474.83 753.109 1471.75 756.19 Q1468.67 759.272 1464.61 758.474 Q1460.55 757.651 1455.92 753.023 Q1451.28 748.383 1450.47 744.332 Q1449.66 740.256 1452.74 737.175 Z" fill="#000000" fill-rule="nonzero" fill-opacity="1" /><path clip-path="url(#clip180)" d="M1478.97 742.024 L1481.56 739.433 L1484.68 742.552 L1482.09 745.142 L1478.97 742.024 Z" fill="#000000" fill-rule="nonzero" fill-opacity="1" /><path clip-path="url(#clip180)" d="M1487.71 719.755 Q1489.87 718.355 1492.07 718.564 Q1494.28 718.761 1496.05 720.528 Q1498.76 723.241 1498.38 726.593 Q1498 729.944 1494.56 733.381 Q1493.41 734.535 1491.95 735.53 Q1490.51 736.524 1488.76 737.371 L1486.36 734.977 Q1487.99 734.548 1489.53 733.627 Q1491.06 732.706 1492.4 731.368 Q1494.73 729.036 1495.03 726.9 Q1495.34 724.751 1493.58 722.996 Q1491.96 721.375 1489.91 721.609 Q1487.86 721.817 1485.83 723.843 L1483.7 725.979 L1481.66 723.941 L1483.89 721.707 Q1485.72 719.878 1485.97 718.184 Q1486.2 716.477 1484.83 715.102 Q1483.42 713.69 1481.66 713.948 Q1479.9 714.182 1478.04 716.047 Q1477.02 717.066 1476.07 718.454 Q1475.13 719.841 1474.2 721.707 L1471.99 719.497 Q1473.01 717.692 1474.04 716.268 Q1475.08 714.832 1476.17 713.74 Q1479 710.916 1481.93 710.56 Q1484.85 710.192 1487.04 712.377 Q1488.56 713.899 1488.74 715.827 Q1488.92 717.742 1487.71 719.755 Z" fill="#000000" fill-rule="nonzero" fill-opacity="1" /><path clip-path="url(#clip180)" d="M1494.69 699.156 Q1492.77 701.071 1493.69 703.931 Q1494.61 706.767 1498.39 710.548 Q1502.16 714.317 1505.01 715.25 Q1507.86 716.158 1509.77 714.243 Q1511.7 712.316 1510.78 709.48 Q1509.86 706.619 1506.09 702.851 Q1502.31 699.07 1499.46 698.161 Q1496.61 697.228 1494.69 699.156 M1492.72 697.191 Q1495.8 694.11 1499.87 694.933 Q1503.93 695.731 1508.57 700.371 Q1513.2 704.999 1514.01 709.075 Q1514.82 713.126 1511.74 716.207 Q1508.66 719.288 1504.59 718.49 Q1500.53 717.668 1495.9 713.04 Q1491.26 708.399 1490.45 704.348 Q1489.64 700.273 1492.72 697.191 Z" fill="#000000" fill-rule="nonzero" fill-opacity="1" /><path clip-path="url(#clip180)" d="M1599.57 738.488 Q1597.65 740.403 1598.57 743.264 Q1599.49 746.099 1603.27 749.88 Q1607.04 753.649 1609.89 754.582 Q1612.74 755.491 1614.65 753.576 Q1616.58 751.648 1615.66 748.812 Q1614.74 745.952 1610.97 742.183 Q1607.19 738.402 1604.34 737.494 Q1601.49 736.561 1599.57 738.488 M1597.6 736.524 Q1600.68 733.443 1604.75 734.265 Q1608.81 735.063 1613.45 739.704 Q1618.08 744.332 1618.89 748.407 Q1619.7 752.458 1616.62 755.54 Q1613.54 758.621 1609.47 757.823 Q1605.41 757.001 1600.78 752.372 Q1596.14 747.732 1595.33 743.681 Q1594.52 739.605 1597.6 736.524 Z" fill="#000000" fill-rule="nonzero" fill-opacity="1" /><path clip-path="url(#clip180)" d="M1623.84 741.373 L1626.43 738.783 L1629.55 741.901 L1626.96 744.491 L1623.84 741.373 Z" fill="#000000" fill-rule="nonzero" fill-opacity="1" /><path clip-path="url(#clip180)" d="M1632.58 719.104 Q1634.74 717.705 1636.94 717.913 Q1639.15 718.11 1640.91 719.878 Q1643.63 722.591 1643.25 725.942 Q1642.87 729.293 1639.43 732.731 Q1638.27 733.885 1636.81 734.879 Q1635.38 735.873 1633.62 736.72 L1631.23 734.327 Q1632.86 733.897 1634.39 732.976 Q1635.93 732.056 1637.27 730.717 Q1639.6 728.385 1639.89 726.249 Q1640.2 724.101 1638.45 722.345 Q1636.83 720.725 1634.78 720.958 Q1632.73 721.167 1630.7 723.192 L1628.56 725.328 L1626.53 723.29 L1628.76 721.056 Q1630.59 719.227 1630.83 717.533 Q1631.07 715.827 1629.69 714.452 Q1628.28 713.04 1626.53 713.298 Q1624.77 713.531 1622.9 715.397 Q1621.89 716.416 1620.94 717.803 Q1619.99 719.19 1619.06 721.056 L1616.85 718.846 Q1617.87 717.042 1618.9 715.618 Q1619.95 714.182 1621.04 713.089 Q1623.86 710.265 1626.8 709.909 Q1629.72 709.541 1631.9 711.726 Q1633.42 713.249 1633.61 715.176 Q1633.78 717.091 1632.58 719.104 Z" fill="#000000" fill-rule="nonzero" fill-opacity="1" /><path clip-path="url(#clip180)" d="M1649.29 717.987 L1653.34 713.936 L1639.35 699.954 L1635.83 705.245 L1633.57 702.986 L1637.07 697.719 L1639.55 695.24 L1655.79 711.481 L1659.84 707.43 L1661.93 709.517 L1651.37 720.074 L1649.29 717.987 Z" fill="#000000" fill-rule="nonzero" fill-opacity="1" /><path clip-path="url(#clip180)" d="M1743.98 738.292 Q1742.06 740.207 1742.98 743.067 Q1743.91 745.903 1747.69 749.684 Q1751.46 753.453 1754.3 754.386 Q1757.15 755.294 1759.07 753.379 Q1760.99 751.452 1760.07 748.616 Q1759.15 745.756 1755.38 741.987 Q1751.6 738.206 1748.75 737.297 Q1745.91 736.364 1743.98 738.292 M1742.01 736.328 Q1745.1 733.246 1749.16 734.069 Q1753.22 734.867 1757.86 739.507 Q1762.49 744.135 1763.3 748.211 Q1764.11 752.262 1761.03 755.343 Q1757.95 758.425 1753.89 757.627 Q1749.82 756.804 1745.19 752.176 Q1740.55 747.536 1739.74 743.485 Q1738.93 739.409 1742.01 736.328 Z" fill="#000000" fill-rule="nonzero" fill-opacity="1" /><path clip-path="url(#clip180)" d="M1768.25 741.177 L1770.84 738.586 L1773.96 741.705 L1771.37 744.295 L1768.25 741.177 Z" fill="#000000" fill-rule="nonzero" fill-opacity="1" /><path clip-path="url(#clip180)" d="M1776.99 718.908 Q1779.15 717.508 1781.35 717.717 Q1783.56 717.913 1785.32 719.681 Q1788.04 722.394 1787.66 725.746 Q1787.28 729.097 1783.84 732.534 Q1782.69 733.688 1781.22 734.683 Q1779.79 735.677 1778.03 736.524 L1775.64 734.13 Q1777.27 733.701 1778.81 732.78 Q1780.34 731.859 1781.68 730.521 Q1784.01 728.189 1784.31 726.053 Q1784.61 723.904 1782.86 722.149 Q1781.24 720.528 1779.19 720.762 Q1777.14 720.97 1775.11 722.996 L1772.98 725.132 L1770.94 723.094 L1773.17 720.86 Q1775 719.031 1775.25 717.336 Q1775.48 715.63 1774.1 714.255 Q1772.69 712.843 1770.94 713.101 Q1769.18 713.334 1767.32 715.2 Q1766.3 716.219 1765.35 717.607 Q1764.41 718.994 1763.47 720.86 L1761.26 718.65 Q1762.28 716.845 1763.31 715.421 Q1764.36 713.985 1765.45 712.893 Q1768.27 710.069 1771.21 709.713 Q1774.13 709.345 1776.31 711.53 Q1777.84 713.052 1778.02 714.979 Q1778.19 716.895 1776.99 718.908 Z" fill="#000000" fill-rule="nonzero" fill-opacity="1" /><path clip-path="url(#clip180)" d="M1795.4 716.084 L1804.06 707.43 L1806.15 709.517 L1794.51 721.154 L1792.42 719.067 Q1792.37 716.195 1792.35 711.309 Q1792.32 706.398 1792.24 705.06 Q1792.09 702.532 1791.63 701.144 Q1791.18 699.733 1790.28 698.836 Q1788.82 697.376 1786.87 697.486 Q1784.93 697.584 1783.29 699.229 Q1782.12 700.395 1781.22 702.102 Q1780.34 703.796 1779.69 706.092 L1777.19 703.587 Q1778.08 701.488 1779.08 699.88 Q1780.07 698.272 1781.15 697.191 Q1784 694.343 1787.12 694.073 Q1790.24 693.803 1792.62 696.185 Q1793.75 697.314 1794.34 698.763 Q1794.92 700.187 1795.18 702.679 Q1795.23 703.342 1795.29 706.693 Q1795.34 710.032 1795.4 716.084 Z" fill="#000000" fill-rule="nonzero" fill-opacity="1" /><path clip-path="url(#clip180)" d="M1887.69 738.795 Q1885.78 740.71 1886.7 743.571 Q1887.62 746.406 1891.4 750.187 Q1895.17 753.956 1898.01 754.889 Q1900.86 755.797 1902.78 753.882 Q1904.71 751.955 1903.78 749.119 Q1902.86 746.259 1899.1 742.49 Q1895.31 738.709 1892.47 737.801 Q1889.62 736.868 1887.69 738.795 M1885.73 736.831 Q1888.81 733.75 1892.87 734.572 Q1896.93 735.37 1901.57 740.01 Q1906.2 744.639 1907.01 748.714 Q1907.82 752.765 1904.74 755.847 Q1901.66 758.928 1897.6 758.13 Q1893.53 757.307 1888.91 752.679 Q1884.27 748.039 1883.46 743.988 Q1882.65 739.912 1885.73 736.831 Z" fill="#000000" fill-rule="nonzero" fill-opacity="1" /><path clip-path="url(#clip180)" d="M1911.96 741.68 L1914.55 739.09 L1917.67 742.208 L1915.08 744.798 L1911.96 741.68 Z" fill="#000000" fill-rule="nonzero" fill-opacity="1" /><path clip-path="url(#clip180)" d="M1920.7 719.411 Q1922.86 718.012 1925.06 718.22 Q1927.27 718.417 1929.04 720.185 Q1931.75 722.898 1931.37 726.249 Q1930.99 729.6 1927.55 733.038 Q1926.4 734.192 1924.94 735.186 Q1923.5 736.18 1921.74 737.027 L1919.35 734.634 Q1920.98 734.204 1922.52 733.283 Q1924.05 732.362 1925.39 731.024 Q1927.72 728.692 1928.02 726.556 Q1928.32 724.408 1926.57 722.652 Q1924.95 721.032 1922.9 721.265 Q1920.85 721.474 1918.82 723.499 L1916.69 725.635 L1914.65 723.597 L1916.88 721.363 Q1918.71 719.534 1918.96 717.84 Q1919.19 716.133 1917.82 714.759 Q1916.4 713.347 1914.65 713.605 Q1912.89 713.838 1911.03 715.704 Q1910.01 716.723 1909.06 718.11 Q1908.12 719.497 1907.19 721.363 L1904.98 719.153 Q1905.99 717.349 1907.03 715.925 Q1908.07 714.488 1909.16 713.396 Q1911.98 710.572 1914.92 710.216 Q1917.84 709.848 1920.03 712.033 Q1921.55 713.555 1921.73 715.483 Q1921.9 717.398 1920.7 719.411 Z" fill="#000000" fill-rule="nonzero" fill-opacity="1" /><path clip-path="url(#clip180)" d="M1936.7 703.415 Q1938.86 702.016 1941.05 702.225 Q1943.26 702.421 1945.03 704.189 Q1947.75 706.902 1947.36 710.253 Q1946.98 713.605 1943.55 717.042 Q1942.39 718.196 1940.93 719.19 Q1939.5 720.185 1937.74 721.032 L1935.35 718.638 Q1936.98 718.208 1938.51 717.287 Q1940.05 716.367 1941.39 715.029 Q1943.72 712.696 1944.01 710.56 Q1944.32 708.412 1942.56 706.656 Q1940.94 705.036 1938.89 705.269 Q1936.84 705.478 1934.82 707.503 L1932.68 709.639 L1930.64 707.602 L1932.88 705.367 Q1934.71 703.538 1934.95 701.844 Q1935.19 700.138 1933.81 698.763 Q1932.4 697.351 1930.64 697.609 Q1928.89 697.842 1927.02 699.708 Q1926 700.727 1925.06 702.114 Q1924.11 703.501 1923.18 705.367 L1920.97 703.158 Q1921.99 701.353 1923.02 699.929 Q1924.06 698.493 1925.16 697.4 Q1927.98 694.577 1930.91 694.221 Q1933.84 693.852 1936.02 696.037 Q1937.54 697.56 1937.73 699.487 Q1937.9 701.402 1936.7 703.415 Z" fill="#000000" fill-rule="nonzero" fill-opacity="1" /><path clip-path="url(#clip180)" d="M2031.3 739.397 Q2029.39 741.312 2030.31 744.172 Q2031.23 747.008 2035.01 750.789 Q2038.78 754.558 2041.63 755.491 Q2044.48 756.399 2046.39 754.484 Q2048.32 752.557 2047.4 749.721 Q2046.48 746.86 2042.71 743.092 Q2038.93 739.311 2036.08 738.402 Q2033.23 737.469 2031.3 739.397 M2029.34 737.432 Q2032.42 734.351 2036.48 735.174 Q2040.55 735.972 2045.19 740.612 Q2049.82 745.24 2050.63 749.316 Q2051.44 753.367 2048.36 756.448 Q2045.27 759.529 2041.21 758.731 Q2037.15 757.909 2032.52 753.281 Q2027.88 748.641 2027.07 744.589 Q2026.26 740.514 2029.34 737.432 Z" fill="#000000" fill-rule="nonzero" fill-opacity="1" /><path clip-path="url(#clip180)" d="M2055.57 742.282 L2058.16 739.691 L2061.28 742.809 L2058.69 745.4 L2055.57 742.282 Z" fill="#000000" fill-rule="nonzero" fill-opacity="1" /><path clip-path="url(#clip180)" d="M2064.31 720.013 Q2066.48 718.613 2068.67 718.822 Q2070.88 719.018 2072.65 720.786 Q2075.36 723.499 2074.98 726.85 Q2074.6 730.202 2071.16 733.639 Q2070.01 734.793 2068.55 735.787 Q2067.11 736.782 2065.36 737.629 L2062.96 735.235 Q2064.6 734.805 2066.13 733.885 Q2067.67 732.964 2069 731.626 Q2071.34 729.293 2071.63 727.157 Q2071.94 725.009 2070.18 723.254 Q2068.56 721.633 2066.51 721.866 Q2064.46 722.075 2062.44 724.101 L2060.3 726.237 L2058.26 724.199 L2060.5 721.965 Q2062.33 720.135 2062.57 718.441 Q2062.8 716.735 2061.43 715.36 Q2060.02 713.948 2058.26 714.206 Q2056.51 714.439 2054.64 716.305 Q2053.62 717.324 2052.68 718.711 Q2051.73 720.099 2050.8 721.965 L2048.59 719.755 Q2049.61 717.95 2050.64 716.526 Q2051.68 715.09 2052.77 713.997 Q2055.6 711.174 2058.53 710.818 Q2061.45 710.45 2063.64 712.635 Q2065.16 714.157 2065.35 716.084 Q2065.52 717.999 2064.31 720.013 Z" fill="#000000" fill-rule="nonzero" fill-opacity="1" /><path clip-path="url(#clip180)" d="M2073.33 698.431 L2076.85 714.476 L2083.11 708.215 L2073.33 698.431 M2070.51 696.921 L2073.63 693.803 L2085.58 705.748 L2088.19 703.133 L2090.25 705.195 L2087.64 707.81 L2091.96 712.131 L2089.49 714.599 L2085.17 710.278 L2076.9 718.552 L2074.5 716.158 L2070.51 696.921 Z" fill="#000000" fill-rule="nonzero" fill-opacity="1" /><path clip-path="url(#clip180)" d="M2176.3 738.611 Q2174.39 740.526 2175.31 743.386 Q2176.23 746.222 2180.01 750.003 Q2183.78 753.772 2186.63 754.705 Q2189.48 755.613 2191.39 753.698 Q2193.32 751.771 2192.4 748.935 Q2191.48 746.075 2187.71 742.306 Q2183.93 738.525 2181.08 737.617 Q2178.23 736.684 2176.3 738.611 M2174.34 736.647 Q2177.42 733.565 2181.49 734.388 Q2185.55 735.186 2190.19 739.826 Q2194.82 744.454 2195.63 748.53 Q2196.44 752.581 2193.36 755.662 Q2190.27 758.744 2186.21 757.946 Q2182.15 757.123 2177.52 752.495 Q2172.88 747.855 2172.07 743.804 Q2171.26 739.728 2174.34 736.647 Z" fill="#000000" fill-rule="nonzero" fill-opacity="1" /><path clip-path="url(#clip180)" d="M2200.57 741.496 L2203.16 738.906 L2206.28 742.024 L2203.69 744.614 L2200.57 741.496 Z" fill="#000000" fill-rule="nonzero" fill-opacity="1" /><path clip-path="url(#clip180)" d="M2209.32 719.227 Q2211.48 717.828 2213.67 718.036 Q2215.88 718.233 2217.65 720 Q2220.36 722.713 2219.98 726.065 Q2219.6 729.416 2216.17 732.853 Q2215.01 734.007 2213.55 735.002 Q2212.11 735.996 2210.36 736.843 L2207.96 734.449 Q2209.6 734.02 2211.13 733.099 Q2212.67 732.178 2214 730.84 Q2216.34 728.508 2216.63 726.372 Q2216.94 724.223 2215.18 722.468 Q2213.56 720.847 2211.51 721.081 Q2209.46 721.289 2207.44 723.315 L2205.3 725.451 L2203.26 723.413 L2205.5 721.179 Q2207.33 719.35 2207.57 717.656 Q2207.81 715.949 2206.43 714.574 Q2205.02 713.163 2203.26 713.42 Q2201.51 713.654 2199.64 715.52 Q2198.62 716.539 2197.68 717.926 Q2196.73 719.313 2195.8 721.179 L2193.59 718.969 Q2194.61 717.165 2195.64 715.741 Q2196.68 714.304 2197.78 713.212 Q2200.6 710.388 2203.53 710.032 Q2206.45 709.664 2208.64 711.849 Q2210.16 713.371 2210.35 715.299 Q2210.52 717.214 2209.32 719.227 Z" fill="#000000" fill-rule="nonzero" fill-opacity="1" /><path clip-path="url(#clip180)" d="M2209.38 702.274 L2219.11 692.539 L2221.2 694.626 L2213.73 702.09 L2218.23 706.583 Q2218.58 705.858 2219.04 705.232 Q2219.48 704.594 2220.02 704.054 Q2223.09 700.985 2226.56 700.874 Q2230.04 700.764 2232.91 703.636 Q2235.87 706.595 2235.67 710.081 Q2235.46 713.555 2232.11 716.907 Q2230.96 718.061 2229.56 719.067 Q2228.17 720.062 2226.5 720.946 L2224.01 718.454 Q2225.72 717.95 2227.19 717.066 Q2228.66 716.183 2229.98 714.869 Q2232.1 712.745 2232.22 710.388 Q2232.35 708.031 2230.43 706.116 Q2228.51 704.201 2226.16 704.324 Q2223.8 704.447 2221.68 706.57 Q2220.68 707.565 2219.91 708.78 Q2219.15 709.983 2218.58 711.481 L2209.38 702.274 Z" fill="#000000" fill-rule="nonzero" fill-opacity="1" /><polyline clip-path="url(#clip180)" style="stroke:#000000; stroke-linecap:round; stroke-linejoin:round; stroke-width:4; stroke-opacity:1; fill:none" points="1361.64,667.406 1361.64,97.5521 "/>
<polyline clip-path="url(#clip180)" style="stroke:#000000; stroke-linecap:round; stroke-linejoin:round; stroke-width:4; stroke-opacity:1; fill:none" points="1361.64,651.278 1380.53,651.278 "/>
<polyline clip-path="url(#clip180)" style="stroke:#000000; stroke-linecap:round; stroke-linejoin:round; stroke-width:4; stroke-opacity:1; fill:none" points="1361.64,507.907 1380.53,507.907 "/>
<polyline clip-path="url(#clip180)" style="stroke:#000000; stroke-linecap:round; stroke-linejoin:round; stroke-width:4; stroke-opacity:1; fill:none" points="1361.64,364.535 1380.53,364.535 "/>
<polyline clip-path="url(#clip180)" style="stroke:#000000; stroke-linecap:round; stroke-linejoin:round; stroke-width:4; stroke-opacity:1; fill:none" points="1361.64,221.164 1380.53,221.164 "/>
<path clip-path="url(#clip180)" d="M1260.13 640.627 Q1257.42 640.627 1256.05 643.301 Q1254.7 645.957 1254.7 651.304 Q1254.7 656.634 1256.05 659.308 Q1257.42 661.964 1260.13 661.964 Q1262.86 661.964 1264.21 659.308 Q1265.58 656.634 1265.58 651.304 Q1265.58 645.957 1264.21 643.301 Q1262.86 640.627 1260.13 640.627 M1260.13 637.85 Q1264.49 637.85 1266.78 641.305 Q1269.09 644.742 1269.09 651.304 Q1269.09 657.85 1266.78 661.304 Q1264.49 664.742 1260.13 664.742 Q1255.78 664.742 1253.47 661.304 Q1251.17 657.85 1251.17 651.304 Q1251.17 644.742 1253.47 641.305 Q1255.78 637.85 1260.13 637.85 Z" fill="#000000" fill-rule="nonzero" fill-opacity="1" /><path clip-path="url(#clip180)" d="M1275.25 659.829 L1278.92 659.829 L1278.92 664.238 L1275.25 664.238 L1275.25 659.829 Z" fill="#000000" fill-rule="nonzero" fill-opacity="1" /><path clip-path="url(#clip180)" d="M1294.06 640.627 Q1291.35 640.627 1289.98 643.301 Q1288.62 645.957 1288.62 651.304 Q1288.62 656.634 1289.98 659.308 Q1291.35 661.964 1294.06 661.964 Q1296.78 661.964 1298.14 659.308 Q1299.51 656.634 1299.51 651.304 Q1299.51 645.957 1298.14 643.301 Q1296.78 640.627 1294.06 640.627 M1294.06 637.85 Q1298.41 637.85 1300.71 641.305 Q1303.01 644.742 1303.01 651.304 Q1303.01 657.85 1300.71 661.304 Q1298.41 664.742 1294.06 664.742 Q1289.7 664.742 1287.39 661.304 Q1285.1 657.85 1285.1 651.304 Q1285.1 644.742 1287.39 641.305 Q1289.7 637.85 1294.06 637.85 Z" fill="#000000" fill-rule="nonzero" fill-opacity="1" /><path clip-path="url(#clip180)" d="M1316.68 640.627 Q1313.97 640.627 1312.6 643.301 Q1311.24 645.957 1311.24 651.304 Q1311.24 656.634 1312.6 659.308 Q1313.97 661.964 1316.68 661.964 Q1319.4 661.964 1320.76 659.308 Q1322.13 656.634 1322.13 651.304 Q1322.13 645.957 1320.76 643.301 Q1319.4 640.627 1316.68 640.627 M1316.68 637.85 Q1321.04 637.85 1323.33 641.305 Q1325.64 644.742 1325.64 651.304 Q1325.64 657.85 1323.33 661.304 Q1321.04 664.742 1316.68 664.742 Q1312.32 664.742 1310.01 661.304 Q1307.72 657.85 1307.72 651.304 Q1307.72 644.742 1310.01 641.305 Q1312.32 637.85 1316.68 637.85 Z" fill="#000000" fill-rule="nonzero" fill-opacity="1" /><path clip-path="url(#clip180)" d="M1260.88 497.256 Q1258.17 497.256 1256.8 499.93 Q1255.45 502.586 1255.45 507.933 Q1255.45 513.263 1256.8 515.936 Q1258.17 518.593 1260.88 518.593 Q1263.6 518.593 1264.96 515.936 Q1266.33 513.263 1266.33 507.933 Q1266.33 502.586 1264.96 499.93 Q1263.6 497.256 1260.88 497.256 M1260.88 494.478 Q1265.24 494.478 1267.53 497.933 Q1269.84 501.37 1269.84 507.933 Q1269.84 514.478 1267.53 517.933 Q1265.24 521.37 1260.88 521.37 Q1256.52 521.37 1254.21 517.933 Q1251.92 514.478 1251.92 507.933 Q1251.92 501.37 1254.21 497.933 Q1256.52 494.478 1260.88 494.478 Z" fill="#000000" fill-rule="nonzero" fill-opacity="1" /><path clip-path="url(#clip180)" d="M1276 516.457 L1279.66 516.457 L1279.66 520.867 L1276 520.867 L1276 516.457 Z" fill="#000000" fill-rule="nonzero" fill-opacity="1" /><path clip-path="url(#clip180)" d="M1294.8 497.256 Q1292.09 497.256 1290.72 499.93 Q1289.37 502.586 1289.37 507.933 Q1289.37 513.263 1290.72 515.936 Q1292.09 518.593 1294.8 518.593 Q1297.53 518.593 1298.88 515.936 Q1300.25 513.263 1300.25 507.933 Q1300.25 502.586 1298.88 499.93 Q1297.53 497.256 1294.8 497.256 M1294.8 494.478 Q1299.16 494.478 1301.45 497.933 Q1303.76 501.37 1303.76 507.933 Q1303.76 514.478 1301.45 517.933 Q1299.16 521.37 1294.8 521.37 Q1290.45 521.37 1288.14 517.933 Q1285.84 514.478 1285.84 507.933 Q1285.84 501.37 1288.14 497.933 Q1290.45 494.478 1294.8 494.478 Z" fill="#000000" fill-rule="nonzero" fill-opacity="1" /><path clip-path="url(#clip180)" d="M1309.96 494.947 L1323.73 494.947 L1323.73 497.898 L1313.17 497.898 L1313.17 504.252 Q1313.93 503.992 1314.7 503.87 Q1315.46 503.732 1316.23 503.732 Q1320.57 503.732 1323.1 506.11 Q1325.64 508.489 1325.64 512.551 Q1325.64 516.735 1323.03 519.061 Q1320.43 521.37 1315.69 521.37 Q1314.06 521.37 1312.35 521.093 Q1310.67 520.815 1308.87 520.259 L1308.87 516.735 Q1310.43 517.586 1312.09 518.002 Q1313.76 518.419 1315.62 518.419 Q1318.62 518.419 1320.38 516.839 Q1322.13 515.259 1322.13 512.551 Q1322.13 509.843 1320.38 508.263 Q1318.62 506.683 1315.62 506.683 Q1314.21 506.683 1312.81 506.995 Q1311.42 507.308 1309.96 507.968 L1309.96 494.947 Z" fill="#000000" fill-rule="nonzero" fill-opacity="1" /><path clip-path="url(#clip180)" d="M1260.13 353.884 Q1257.42 353.884 1256.05 356.558 Q1254.7 359.214 1254.7 364.561 Q1254.7 369.891 1256.05 372.565 Q1257.42 375.221 1260.13 375.221 Q1262.86 375.221 1264.21 372.565 Q1265.58 369.891 1265.58 364.561 Q1265.58 359.214 1264.21 356.558 Q1262.86 353.884 1260.13 353.884 M1260.13 351.107 Q1264.49 351.107 1266.78 354.561 Q1269.09 357.999 1269.09 364.561 Q1269.09 371.107 1266.78 374.561 Q1264.49 377.999 1260.13 377.999 Q1255.78 377.999 1253.47 374.561 Q1251.17 371.107 1251.17 364.561 Q1251.17 357.999 1253.47 354.561 Q1255.78 351.107 1260.13 351.107 Z" fill="#000000" fill-rule="nonzero" fill-opacity="1" /><path clip-path="url(#clip180)" d="M1275.25 373.086 L1278.92 373.086 L1278.92 377.495 L1275.25 377.495 L1275.25 373.086 Z" fill="#000000" fill-rule="nonzero" fill-opacity="1" /><path clip-path="url(#clip180)" d="M1287.16 374.544 L1292.89 374.544 L1292.89 354.77 L1286.66 356.02 L1286.66 352.825 L1292.86 351.575 L1296.37 351.575 L1296.37 374.544 L1302.09 374.544 L1302.09 377.495 L1287.16 377.495 L1287.16 374.544 Z" fill="#000000" fill-rule="nonzero" fill-opacity="1" /><path clip-path="url(#clip180)" d="M1316.68 353.884 Q1313.97 353.884 1312.6 356.558 Q1311.24 359.214 1311.24 364.561 Q1311.24 369.891 1312.6 372.565 Q1313.97 375.221 1316.68 375.221 Q1319.4 375.221 1320.76 372.565 Q1322.13 369.891 1322.13 364.561 Q1322.13 359.214 1320.76 356.558 Q1319.4 353.884 1316.68 353.884 M1316.68 351.107 Q1321.04 351.107 1323.33 354.561 Q1325.64 357.999 1325.64 364.561 Q1325.64 371.107 1323.33 374.561 Q1321.04 377.999 1316.68 377.999 Q1312.32 377.999 1310.01 374.561 Q1307.72 371.107 1307.72 364.561 Q1307.72 357.999 1310.01 354.561 Q1312.32 351.107 1316.68 351.107 Z" fill="#000000" fill-rule="nonzero" fill-opacity="1" /><path clip-path="url(#clip180)" d="M1260.88 210.513 Q1258.17 210.513 1256.8 213.186 Q1255.45 215.843 1255.45 221.19 Q1255.45 226.52 1256.8 229.193 Q1258.17 231.85 1260.88 231.85 Q1263.6 231.85 1264.96 229.193 Q1266.33 226.52 1266.33 221.19 Q1266.33 215.843 1264.96 213.186 Q1263.6 210.513 1260.88 210.513 M1260.88 207.735 Q1265.24 207.735 1267.53 211.19 Q1269.84 214.627 1269.84 221.19 Q1269.84 227.735 1267.53 231.19 Q1265.24 234.627 1260.88 234.627 Q1256.52 234.627 1254.21 231.19 Q1251.92 227.735 1251.92 221.19 Q1251.92 214.627 1254.21 211.19 Q1256.52 207.735 1260.88 207.735 Z" fill="#000000" fill-rule="nonzero" fill-opacity="1" /><path clip-path="url(#clip180)" d="M1276 229.714 L1279.66 229.714 L1279.66 234.124 L1276 234.124 L1276 229.714 Z" fill="#000000" fill-rule="nonzero" fill-opacity="1" /><path clip-path="url(#clip180)" d="M1287.91 231.172 L1293.64 231.172 L1293.64 211.398 L1287.41 212.648 L1287.41 209.454 L1293.6 208.204 L1297.11 208.204 L1297.11 231.172 L1302.84 231.172 L1302.84 234.124 L1287.91 234.124 L1287.91 231.172 Z" fill="#000000" fill-rule="nonzero" fill-opacity="1" /><path clip-path="url(#clip180)" d="M1309.96 208.204 L1323.73 208.204 L1323.73 211.155 L1313.17 211.155 L1313.17 217.509 Q1313.93 217.249 1314.7 217.127 Q1315.46 216.989 1316.23 216.989 Q1320.57 216.989 1323.1 219.367 Q1325.64 221.745 1325.64 225.808 Q1325.64 229.992 1323.03 232.318 Q1320.43 234.627 1315.69 234.627 Q1314.06 234.627 1312.35 234.35 Q1310.67 234.072 1308.87 233.516 L1308.87 229.992 Q1310.43 230.843 1312.09 231.259 Q1313.76 231.676 1315.62 231.676 Q1318.62 231.676 1320.38 230.096 Q1322.13 228.516 1322.13 225.808 Q1322.13 223.1 1320.38 221.52 Q1318.62 219.94 1315.62 219.94 Q1314.21 219.94 1312.81 220.252 Q1311.42 220.565 1309.96 221.225 L1309.96 208.204 Z" fill="#000000" fill-rule="nonzero" fill-opacity="1" /><path clip-path="url(#clip180)" d="M1373.53 18.9258 Q1370.02 18.9258 1368.12 21.4721 Q1366.13 24.1341 1366.13 28.5323 Q1366.13 33.185 1368.09 35.8702 Q1370.08 38.5322 1373.53 38.5322 Q1376.94 38.5322 1378.93 35.847 Q1380.92 33.1619 1380.92 28.5323 Q1380.92 24.2962 1378.93 21.4721 Q1377.1 18.9258 1373.53 18.9258 M1373.53 15.5462 L1387.68 15.5462 L1387.68 19.8054 L1382.91 19.8054 Q1385.43 23.4165 1385.43 28.5323 Q1385.43 34.898 1382.26 38.5091 Q1379.09 42.1433 1373.53 42.1433 Q1367.96 42.1433 1364.81 38.5091 Q1361.64 34.898 1361.64 28.5323 Q1361.64 22.1203 1364.81 18.5323 Q1367.42 15.5462 1373.53 15.5462 Z" fill="#000000" fill-rule="nonzero" fill-opacity="1" /><path clip-path="url(#clip180)" d="M1411.84 19.6666 Q1410.99 19.3656 1410.13 19.1342 Q1407.84 18.5323 1405.39 18.5323 Q1401.15 18.5323 1398.79 20.824 Q1396.59 22.9536 1396.17 26.8656 L1411.84 26.8656 L1411.84 30.1989 L1396.17 30.1989 Q1396.59 34.1109 1398.79 36.2405 Q1401.15 38.5322 1405.39 38.5322 Q1408.35 38.5322 1410.13 37.9304 L1411.84 37.3517 L1411.84 41.2174 L1410.02 41.634 Q1407.61 42.1433 1405.13 42.1433 Q1398.93 42.1433 1395.32 38.5322 Q1391.68 34.9211 1391.68 28.5323 Q1391.68 22.1434 1395.32 18.5323 Q1398.93 14.9212 1405.13 14.9212 Q1407.47 14.9212 1410.02 15.4305 Q1410.94 15.6157 1411.84 15.8934 L1411.84 19.6666 Z" fill="#000000" fill-rule="nonzero" fill-opacity="1" /><polyline clip-path="url(#clip183)" style="stroke:#009af9; stroke-linecap:round; stroke-linejoin:round; stroke-width:4; stroke-opacity:1; fill:none" points="1389.69,164.8 1448.13,222.814 1506.56,281.627 1565,341.239 1623.44,401.649 1681.88,462.858 1740.32,524.866 1798.76,587.673 1857.2,651.278 1915.63,586.874 1974.07,521.671 2032.51,455.67 2090.95,388.869 2149.39,321.27 2207.83,252.872 2266.27,183.675 2324.71,113.68 "/>
<circle clip-path="url(#clip183)" cx="1857.2" cy="651.278" r="10.8" fill="#ff0000" fill-rule="evenodd" fill-opacity="1" stroke="#000000" stroke-opacity="1" stroke-width="3.2"/>
<path clip-path="url(#clip180)" d="M161.818 1467.41 L1152.94 1467.41 L1152.94 897.552 L161.818 897.552  Z" fill="#ffffff" fill-rule="evenodd" fill-opacity="1"/>
<defs>
  <clipPath id="clip184">
    <rect x="161" y="897" width="992" height="571"/>
  </clipPath>
</defs>
<polyline clip-path="url(#clip184)" style="stroke:#000000; stroke-linecap:round; stroke-linejoin:round; stroke-width:2; stroke-opacity:0.1; fill:none" points="293.317,1467.41 293.317,897.552 "/>
<polyline clip-path="url(#clip184)" style="stroke:#000000; stroke-linecap:round; stroke-linejoin:round; stroke-width:2; stroke-opacity:0.1; fill:none" points="465.758,1467.41 465.758,897.552 "/>
<polyline clip-path="url(#clip184)" style="stroke:#000000; stroke-linecap:round; stroke-linejoin:round; stroke-width:2; stroke-opacity:0.1; fill:none" points="638.2,1467.41 638.2,897.552 "/>
<polyline clip-path="url(#clip184)" style="stroke:#000000; stroke-linecap:round; stroke-linejoin:round; stroke-width:2; stroke-opacity:0.1; fill:none" points="810.641,1467.41 810.641,897.552 "/>
<polyline clip-path="url(#clip184)" style="stroke:#000000; stroke-linecap:round; stroke-linejoin:round; stroke-width:2; stroke-opacity:0.1; fill:none" points="983.082,1467.41 983.082,897.552 "/>
<polyline clip-path="url(#clip184)" style="stroke:#000000; stroke-linecap:round; stroke-linejoin:round; stroke-width:2; stroke-opacity:0.1; fill:none" points="161.818,1451.28 1152.94,1451.28 "/>
<polyline clip-path="url(#clip184)" style="stroke:#000000; stroke-linecap:round; stroke-linejoin:round; stroke-width:2; stroke-opacity:0.1; fill:none" points="161.818,1331.11 1152.94,1331.11 "/>
<polyline clip-path="url(#clip184)" style="stroke:#000000; stroke-linecap:round; stroke-linejoin:round; stroke-width:2; stroke-opacity:0.1; fill:none" points="161.818,1210.94 1152.94,1210.94 "/>
<polyline clip-path="url(#clip184)" style="stroke:#000000; stroke-linecap:round; stroke-linejoin:round; stroke-width:2; stroke-opacity:0.1; fill:none" points="161.818,1090.77 1152.94,1090.77 "/>
<polyline clip-path="url(#clip184)" style="stroke:#000000; stroke-linecap:round; stroke-linejoin:round; stroke-width:2; stroke-opacity:0.1; fill:none" points="161.818,970.605 1152.94,970.605 "/>
<polyline clip-path="url(#clip180)" style="stroke:#000000; stroke-linecap:round; stroke-linejoin:round; stroke-width:4; stroke-opacity:1; fill:none" points="161.818,1467.41 1152.94,1467.41 "/>
<polyline clip-path="url(#clip180)" style="stroke:#000000; stroke-linecap:round; stroke-linejoin:round; stroke-width:4; stroke-opacity:1; fill:none" points="293.317,1467.41 293.317,1448.51 "/>
<polyline clip-path="url(#clip180)" style="stroke:#000000; stroke-linecap:round; stroke-linejoin:round; stroke-width:4; stroke-opacity:1; fill:none" points="465.758,1467.41 465.758,1448.51 "/>
<polyline clip-path="url(#clip180)" style="stroke:#000000; stroke-linecap:round; stroke-linejoin:round; stroke-width:4; stroke-opacity:1; fill:none" points="638.2,1467.41 638.2,1448.51 "/>
<polyline clip-path="url(#clip180)" style="stroke:#000000; stroke-linecap:round; stroke-linejoin:round; stroke-width:4; stroke-opacity:1; fill:none" points="810.641,1467.41 810.641,1448.51 "/>
<polyline clip-path="url(#clip180)" style="stroke:#000000; stroke-linecap:round; stroke-linejoin:round; stroke-width:4; stroke-opacity:1; fill:none" points="983.082,1467.41 983.082,1448.51 "/>
<path clip-path="url(#clip180)" d="M239.468 1539.14 Q237.553 1541.05 238.474 1543.91 Q239.394 1546.75 243.175 1550.53 Q246.944 1554.3 249.792 1555.23 Q252.64 1556.14 254.555 1554.23 Q256.483 1552.3 255.562 1549.46 Q254.641 1546.6 250.872 1542.83 Q247.091 1539.05 244.243 1538.14 Q241.395 1537.21 239.468 1539.14 M237.504 1537.17 Q240.585 1534.09 244.648 1534.92 Q248.712 1535.71 253.352 1540.35 Q257.98 1544.98 258.79 1549.06 Q259.601 1553.11 256.519 1556.19 Q253.438 1559.27 249.375 1558.47 Q245.311 1557.65 240.683 1553.02 Q236.043 1548.38 235.233 1544.33 Q234.422 1540.26 237.504 1537.17 Z" fill="#000000" fill-rule="nonzero" fill-opacity="1" /><path clip-path="url(#clip180)" d="M263.738 1542.02 L266.328 1539.43 L269.446 1542.55 L266.856 1545.14 L263.738 1542.02 Z" fill="#000000" fill-rule="nonzero" fill-opacity="1" /><path clip-path="url(#clip180)" d="M256.544 1518.8 L266.279 1509.06 L268.366 1511.15 L260.902 1518.61 L265.395 1523.11 Q265.751 1522.38 266.205 1521.76 Q266.647 1521.12 267.187 1520.58 Q270.256 1517.51 273.73 1517.4 Q277.205 1517.29 280.077 1520.16 Q283.036 1523.12 282.839 1526.6 Q282.631 1530.08 279.279 1533.43 Q278.125 1534.58 276.726 1535.59 Q275.339 1536.59 273.669 1537.47 L271.177 1534.98 Q272.883 1534.47 274.357 1533.59 Q275.83 1532.71 277.143 1531.39 Q279.267 1529.27 279.39 1526.91 Q279.512 1524.55 277.597 1522.64 Q275.682 1520.72 273.325 1520.85 Q270.968 1520.97 268.845 1523.09 Q267.85 1524.09 267.077 1525.3 Q266.316 1526.51 265.751 1528 L256.544 1518.8 Z" fill="#000000" fill-rule="nonzero" fill-opacity="1" /><path clip-path="url(#clip180)" d="M279.451 1499.16 Q277.536 1501.07 278.457 1503.93 Q279.377 1506.77 283.158 1510.55 Q286.927 1514.32 289.775 1515.25 Q292.623 1516.16 294.538 1514.24 Q296.466 1512.32 295.545 1509.48 Q294.624 1506.62 290.856 1502.85 Q287.075 1499.07 284.227 1498.16 Q281.378 1497.23 279.451 1499.16 M277.487 1497.19 Q280.568 1494.11 284.632 1494.93 Q288.695 1495.73 293.335 1500.37 Q297.963 1505 298.774 1509.07 Q299.584 1513.13 296.503 1516.21 Q293.421 1519.29 289.358 1518.49 Q285.295 1517.67 280.666 1513.04 Q276.026 1508.4 275.216 1504.35 Q274.406 1500.27 277.487 1497.19 Z" fill="#000000" fill-rule="nonzero" fill-opacity="1" /><path clip-path="url(#clip180)" d="M412.756 1538.29 Q410.841 1540.21 411.762 1543.07 Q412.683 1545.9 416.464 1549.68 Q420.232 1553.45 423.08 1554.39 Q425.929 1555.29 427.844 1553.38 Q429.771 1551.45 428.85 1548.62 Q427.93 1545.76 424.161 1541.99 Q420.38 1538.21 417.532 1537.3 Q414.684 1536.36 412.756 1538.29 M410.792 1536.33 Q413.873 1533.25 417.937 1534.07 Q422 1534.87 426.641 1539.51 Q431.269 1544.14 432.079 1548.21 Q432.889 1552.26 429.808 1555.34 Q426.726 1558.42 422.663 1557.63 Q418.6 1556.8 413.972 1552.18 Q409.331 1547.54 408.521 1543.48 Q407.711 1539.41 410.792 1536.33 Z" fill="#000000" fill-rule="nonzero" fill-opacity="1" /><path clip-path="url(#clip180)" d="M437.026 1541.18 L439.616 1538.59 L442.734 1541.7 L440.144 1544.29 L437.026 1541.18 Z" fill="#000000" fill-rule="nonzero" fill-opacity="1" /><path clip-path="url(#clip180)" d="M429.832 1517.95 L439.567 1508.22 L441.654 1510.3 L434.19 1517.77 L438.683 1522.26 Q439.039 1521.53 439.494 1520.91 Q439.936 1520.27 440.476 1519.73 Q443.545 1516.66 447.019 1516.55 Q450.493 1516.44 453.366 1519.31 Q456.324 1522.27 456.128 1525.76 Q455.919 1529.23 452.568 1532.58 Q451.414 1533.74 450.014 1534.74 Q448.627 1535.74 446.957 1536.62 L444.465 1534.13 Q446.172 1533.63 447.645 1532.74 Q449.118 1531.86 450.432 1530.55 Q452.555 1528.42 452.678 1526.06 Q452.801 1523.71 450.886 1521.79 Q448.971 1519.88 446.614 1520 Q444.257 1520.12 442.133 1522.25 Q441.139 1523.24 440.365 1524.46 Q439.604 1525.66 439.039 1527.16 L429.832 1517.95 Z" fill="#000000" fill-rule="nonzero" fill-opacity="1" /><path clip-path="url(#clip180)" d="M464.181 1516.08 L472.835 1507.43 L474.922 1509.52 L463.285 1521.15 L461.198 1519.07 Q461.149 1516.19 461.124 1511.31 Q461.1 1506.4 461.014 1505.06 Q460.866 1502.53 460.412 1501.14 Q459.958 1499.73 459.062 1498.84 Q457.601 1497.38 455.649 1497.49 Q453.709 1497.58 452.064 1499.23 Q450.898 1500.4 450.002 1502.1 Q449.118 1503.8 448.467 1506.09 L445.963 1503.59 Q446.859 1501.49 447.854 1499.88 Q448.848 1498.27 449.928 1497.19 Q452.776 1494.34 455.894 1494.07 Q459.013 1493.8 461.394 1496.18 Q462.524 1497.31 463.113 1498.76 Q463.702 1500.19 463.96 1502.68 Q464.009 1503.34 464.07 1506.69 Q464.119 1510.03 464.181 1516.08 Z" fill="#000000" fill-rule="nonzero" fill-opacity="1" /><path clip-path="url(#clip180)" d="M584.093 1539.4 Q582.178 1541.31 583.098 1544.17 Q584.019 1547.01 587.8 1550.79 Q591.569 1554.56 594.417 1555.49 Q597.265 1556.4 599.18 1554.48 Q601.107 1552.56 600.187 1549.72 Q599.266 1546.86 595.497 1543.09 Q591.716 1539.31 588.868 1538.4 Q586.02 1537.47 584.093 1539.4 M582.129 1537.43 Q585.21 1534.35 589.273 1535.17 Q593.337 1535.97 597.977 1540.61 Q602.605 1545.24 603.415 1549.32 Q604.226 1553.37 601.144 1556.45 Q598.063 1559.53 594 1558.73 Q589.936 1557.91 585.308 1553.28 Q580.668 1548.64 579.857 1544.59 Q579.047 1540.51 582.129 1537.43 Z" fill="#000000" fill-rule="nonzero" fill-opacity="1" /><path clip-path="url(#clip180)" d="M608.363 1542.28 L610.953 1539.69 L614.071 1542.81 L611.481 1545.4 L608.363 1542.28 Z" fill="#000000" fill-rule="nonzero" fill-opacity="1" /><path clip-path="url(#clip180)" d="M601.169 1519.06 L610.904 1509.32 L612.991 1511.41 L605.527 1518.87 L610.02 1523.36 Q610.376 1522.64 610.83 1522.01 Q611.272 1521.38 611.812 1520.84 Q614.881 1517.77 618.355 1517.66 Q621.829 1517.55 624.702 1520.42 Q627.661 1523.38 627.464 1526.86 Q627.255 1530.34 623.904 1533.69 Q622.75 1534.84 621.351 1535.85 Q619.963 1536.84 618.294 1537.73 L615.802 1535.24 Q617.508 1534.73 618.981 1533.85 Q620.455 1532.96 621.768 1531.65 Q623.892 1529.53 624.015 1527.17 Q624.137 1524.81 622.222 1522.9 Q620.307 1520.98 617.95 1521.11 Q615.593 1521.23 613.469 1523.35 Q612.475 1524.35 611.702 1525.56 Q610.941 1526.76 610.376 1528.26 L601.169 1519.06 Z" fill="#000000" fill-rule="nonzero" fill-opacity="1" /><path clip-path="url(#clip180)" d="M626.114 1498.43 L629.637 1514.48 L635.898 1508.22 L626.114 1498.43 M623.303 1496.92 L626.421 1493.8 L638.365 1505.75 L640.98 1503.13 L643.043 1505.2 L640.428 1507.81 L644.749 1512.13 L642.281 1514.6 L637.96 1510.28 L629.686 1518.55 L627.292 1516.16 L623.303 1496.92 Z" fill="#000000" fill-rule="nonzero" fill-opacity="1" /><path clip-path="url(#clip180)" d="M756.706 1539.22 Q754.791 1541.14 755.712 1544 Q756.632 1546.84 760.413 1550.62 Q764.182 1554.39 767.03 1555.32 Q769.878 1556.23 771.793 1554.31 Q773.721 1552.38 772.8 1549.55 Q771.879 1546.69 768.11 1542.92 Q764.329 1539.14 761.481 1538.23 Q758.633 1537.3 756.706 1539.22 M754.742 1537.26 Q757.823 1534.18 761.886 1535 Q765.95 1535.8 770.59 1540.44 Q775.218 1545.07 776.029 1549.14 Q776.839 1553.19 773.757 1556.28 Q770.676 1559.36 766.613 1558.56 Q762.549 1557.74 757.921 1553.11 Q753.281 1548.47 752.471 1544.42 Q751.66 1540.34 754.742 1537.26 Z" fill="#000000" fill-rule="nonzero" fill-opacity="1" /><path clip-path="url(#clip180)" d="M780.976 1542.11 L783.566 1539.52 L786.684 1542.64 L784.094 1545.23 L780.976 1542.11 Z" fill="#000000" fill-rule="nonzero" fill-opacity="1" /><path clip-path="url(#clip180)" d="M773.782 1518.88 L783.517 1509.15 L785.604 1511.24 L778.14 1518.7 L782.633 1523.19 Q782.989 1522.47 783.443 1521.84 Q783.885 1521.2 784.425 1520.66 Q787.494 1517.59 790.969 1517.48 Q794.443 1517.37 797.315 1520.25 Q800.274 1523.2 800.077 1526.69 Q799.869 1530.17 796.517 1533.52 Q795.363 1534.67 793.964 1535.68 Q792.577 1536.67 790.907 1537.56 L788.415 1535.06 Q790.121 1534.56 791.595 1533.68 Q793.068 1532.79 794.381 1531.48 Q796.505 1529.35 796.628 1527 Q796.751 1524.64 794.836 1522.73 Q792.92 1520.81 790.563 1520.93 Q788.206 1521.06 786.083 1523.18 Q785.088 1524.17 784.315 1525.39 Q783.554 1526.59 782.989 1528.09 L773.782 1518.88 Z" fill="#000000" fill-rule="nonzero" fill-opacity="1" /><path clip-path="url(#clip180)" d="M803.539 1505.48 Q801.87 1507.15 802.029 1509.27 Q802.201 1511.38 804.19 1513.37 Q806.166 1515.35 808.29 1515.53 Q810.414 1515.69 812.083 1514.02 Q813.753 1512.35 813.581 1510.24 Q813.409 1508.1 811.433 1506.13 Q809.444 1504.14 807.32 1503.98 Q805.209 1503.81 803.539 1505.48 M800.691 1492.78 L802.95 1495.04 Q801.575 1495.53 800.384 1496.26 Q799.206 1496.97 798.273 1497.9 Q795.818 1500.36 796.174 1503.32 Q796.542 1506.26 799.709 1509.8 Q799.365 1508.01 799.893 1506.35 Q800.409 1504.68 801.722 1503.37 Q804.485 1500.6 807.762 1500.69 Q811.04 1500.75 813.925 1503.64 Q816.748 1506.46 816.785 1509.84 Q816.822 1513.21 814.048 1515.99 Q810.868 1519.17 806.756 1518.42 Q802.631 1517.66 798.003 1513.03 Q793.657 1508.68 793.141 1504.04 Q792.614 1499.39 796.088 1495.91 Q797.021 1494.98 798.15 1494.22 Q799.292 1493.45 800.691 1492.78 Z" fill="#000000" fill-rule="nonzero" fill-opacity="1" /><path clip-path="url(#clip180)" d="M929.282 1539.09 Q927.367 1541 928.288 1543.87 Q929.209 1546.7 932.99 1550.48 Q936.758 1554.25 939.607 1555.18 Q942.455 1556.09 944.37 1554.18 Q946.297 1552.25 945.376 1549.41 Q944.456 1546.55 940.687 1542.78 Q936.906 1539 934.058 1538.1 Q931.21 1537.16 929.282 1539.09 M927.318 1537.13 Q930.399 1534.04 934.463 1534.87 Q938.526 1535.66 943.167 1540.31 Q947.795 1544.93 948.605 1549.01 Q949.415 1553.06 946.334 1556.14 Q943.253 1559.22 939.189 1558.42 Q935.126 1557.6 930.498 1552.97 Q925.857 1548.33 925.047 1544.28 Q924.237 1540.21 927.318 1537.13 Z" fill="#000000" fill-rule="nonzero" fill-opacity="1" /><path clip-path="url(#clip180)" d="M953.552 1541.97 L956.142 1539.38 L959.261 1542.5 L956.67 1545.09 L953.552 1541.97 Z" fill="#000000" fill-rule="nonzero" fill-opacity="1" /><path clip-path="url(#clip180)" d="M946.358 1518.75 L956.093 1509.01 L958.18 1511.1 L950.716 1518.56 L955.209 1523.06 Q955.565 1522.33 956.02 1521.71 Q956.462 1521.07 957.002 1520.53 Q960.071 1517.46 963.545 1517.35 Q967.019 1517.24 969.892 1520.11 Q972.85 1523.07 972.654 1526.56 Q972.445 1530.03 969.094 1533.38 Q967.94 1534.54 966.54 1535.54 Q965.153 1536.54 963.484 1537.42 L960.991 1534.93 Q962.698 1534.42 964.171 1533.54 Q965.644 1532.66 966.958 1531.34 Q969.081 1529.22 969.204 1526.86 Q969.327 1524.51 967.412 1522.59 Q965.497 1520.68 963.14 1520.8 Q960.783 1520.92 958.659 1523.04 Q957.665 1524.04 956.891 1525.25 Q956.13 1526.46 955.565 1527.96 L946.358 1518.75 Z" fill="#000000" fill-rule="nonzero" fill-opacity="1" /><path clip-path="url(#clip180)" d="M977.257 1507.1 Q975.49 1508.87 975.416 1510.83 Q975.355 1512.78 977.012 1514.44 Q978.669 1516.1 980.621 1516.04 Q982.585 1515.96 984.353 1514.19 Q986.121 1512.43 986.194 1510.46 Q986.256 1508.49 984.611 1506.84 Q982.953 1505.18 980.989 1505.26 Q979.037 1505.32 977.257 1507.1 M973.722 1508.52 Q971.733 1509.73 969.744 1509.53 Q967.768 1509.32 966.197 1507.75 Q963.999 1505.55 964.281 1502.72 Q964.576 1499.87 967.301 1497.14 Q970.039 1494.4 972.875 1494.12 Q975.711 1493.84 977.908 1496.04 Q979.479 1497.61 979.676 1499.6 Q979.884 1501.57 978.694 1503.55 Q980.903 1502.18 983.113 1502.4 Q985.335 1502.61 987.09 1504.36 Q989.754 1507.02 989.546 1510.08 Q989.349 1513.13 986.317 1516.16 Q983.285 1519.19 980.228 1519.4 Q977.184 1519.6 974.52 1516.93 Q972.764 1515.18 972.556 1512.95 Q972.347 1510.73 973.722 1508.52 M968.897 1505.51 Q970.321 1506.94 972.003 1506.85 Q973.697 1506.75 975.305 1505.15 Q976.901 1503.55 977 1501.86 Q977.11 1500.15 975.686 1498.73 Q974.262 1497.3 972.556 1497.41 Q970.861 1497.51 969.266 1499.11 Q967.657 1500.71 967.559 1502.41 Q967.473 1504.09 968.897 1505.51 Z" fill="#000000" fill-rule="nonzero" fill-opacity="1" /><polyline clip-path="url(#clip180)" style="stroke:#000000; stroke-linecap:round; stroke-linejoin:round; stroke-width:4; stroke-opacity:1; fill:none" points="161.818,1467.41 161.818,897.552 "/>
<polyline clip-path="url(#clip180)" style="stroke:#000000; stroke-linecap:round; stroke-linejoin:round; stroke-width:4; stroke-opacity:1; fill:none" points="161.818,1451.28 180.716,1451.28 "/>
<polyline clip-path="url(#clip180)" style="stroke:#000000; stroke-linecap:round; stroke-linejoin:round; stroke-width:4; stroke-opacity:1; fill:none" points="161.818,1331.11 180.716,1331.11 "/>
<polyline clip-path="url(#clip180)" style="stroke:#000000; stroke-linecap:round; stroke-linejoin:round; stroke-width:4; stroke-opacity:1; fill:none" points="161.818,1210.94 180.716,1210.94 "/>
<polyline clip-path="url(#clip180)" style="stroke:#000000; stroke-linecap:round; stroke-linejoin:round; stroke-width:4; stroke-opacity:1; fill:none" points="161.818,1090.77 180.716,1090.77 "/>
<polyline clip-path="url(#clip180)" style="stroke:#000000; stroke-linecap:round; stroke-linejoin:round; stroke-width:4; stroke-opacity:1; fill:none" points="161.818,970.605 180.716,970.605 "/>
<path clip-path="url(#clip180)" d="M60.315 1440.63 Q57.6067 1440.63 56.2352 1443.3 Q54.881 1445.96 54.881 1451.3 Q54.881 1456.63 56.2352 1459.31 Q57.6067 1461.96 60.315 1461.96 Q63.0407 1461.96 64.3948 1459.31 Q65.7664 1456.63 65.7664 1451.3 Q65.7664 1445.96 64.3948 1443.3 Q63.0407 1440.63 60.315 1440.63 M60.315 1437.85 Q64.6726 1437.85 66.9643 1441.3 Q69.2733 1444.74 69.2733 1451.3 Q69.2733 1457.85 66.9643 1461.3 Q64.6726 1464.74 60.315 1464.74 Q55.9574 1464.74 53.6484 1461.3 Q51.3567 1457.85 51.3567 1451.3 Q51.3567 1444.74 53.6484 1441.3 Q55.9574 1437.85 60.315 1437.85 Z" fill="#000000" fill-rule="nonzero" fill-opacity="1" /><path clip-path="url(#clip180)" d="M75.4364 1459.83 L79.0996 1459.83 L79.0996 1464.24 L75.4364 1464.24 L75.4364 1459.83 Z" fill="#000000" fill-rule="nonzero" fill-opacity="1" /><path clip-path="url(#clip180)" d="M94.2384 1440.63 Q91.5301 1440.63 90.1586 1443.3 Q88.8044 1445.96 88.8044 1451.3 Q88.8044 1456.63 90.1586 1459.31 Q91.5301 1461.96 94.2384 1461.96 Q96.9641 1461.96 98.3183 1459.31 Q99.6898 1456.63 99.6898 1451.3 Q99.6898 1445.96 98.3183 1443.3 Q96.9641 1440.63 94.2384 1440.63 M94.2384 1437.85 Q98.596 1437.85 100.888 1441.3 Q103.197 1444.74 103.197 1451.3 Q103.197 1457.85 100.888 1461.3 Q98.596 1464.74 94.2384 1464.74 Q89.8808 1464.74 87.5718 1461.3 Q85.2801 1457.85 85.2801 1451.3 Q85.2801 1444.74 87.5718 1441.3 Q89.8808 1437.85 94.2384 1437.85 Z" fill="#000000" fill-rule="nonzero" fill-opacity="1" /><path clip-path="url(#clip180)" d="M116.86 1440.63 Q114.152 1440.63 112.78 1443.3 Q111.426 1445.96 111.426 1451.3 Q111.426 1456.63 112.78 1459.31 Q114.152 1461.96 116.86 1461.96 Q119.586 1461.96 120.94 1459.31 Q122.311 1456.63 122.311 1451.3 Q122.311 1445.96 120.94 1443.3 Q119.586 1440.63 116.86 1440.63 M116.86 1437.85 Q121.217 1437.85 123.509 1441.3 Q125.818 1444.74 125.818 1451.3 Q125.818 1457.85 123.509 1461.3 Q121.217 1464.74 116.86 1464.74 Q112.502 1464.74 110.193 1461.3 Q107.902 1457.85 107.902 1451.3 Q107.902 1444.74 110.193 1441.3 Q112.502 1437.85 116.86 1437.85 Z" fill="#000000" fill-rule="nonzero" fill-opacity="1" /><path clip-path="url(#clip180)" d="M61.2351 1320.46 Q58.5268 1320.46 57.1553 1323.13 Q55.8011 1325.79 55.8011 1331.14 Q55.8011 1336.47 57.1553 1339.14 Q58.5268 1341.8 61.2351 1341.8 Q63.9608 1341.8 65.315 1339.14 Q66.6865 1336.47 66.6865 1331.14 Q66.6865 1325.79 65.315 1323.13 Q63.9608 1320.46 61.2351 1320.46 M61.2351 1317.68 Q65.5927 1317.68 67.8844 1321.14 Q70.1934 1324.57 70.1934 1331.14 Q70.1934 1337.68 67.8844 1341.14 Q65.5927 1344.57 61.2351 1344.57 Q56.8775 1344.57 54.5685 1341.14 Q52.2768 1337.68 52.2768 1331.14 Q52.2768 1324.57 54.5685 1321.14 Q56.8775 1317.68 61.2351 1317.68 Z" fill="#000000" fill-rule="nonzero" fill-opacity="1" /><path clip-path="url(#clip180)" d="M76.3566 1339.66 L80.0197 1339.66 L80.0197 1344.07 L76.3566 1344.07 L76.3566 1339.66 Z" fill="#000000" fill-rule="nonzero" fill-opacity="1" /><path clip-path="url(#clip180)" d="M95.1586 1320.46 Q92.4502 1320.46 91.0787 1323.13 Q89.7246 1325.79 89.7246 1331.14 Q89.7246 1336.47 91.0787 1339.14 Q92.4502 1341.8 95.1586 1341.8 Q97.8842 1341.8 99.2384 1339.14 Q100.61 1336.47 100.61 1331.14 Q100.61 1325.79 99.2384 1323.13 Q97.8842 1320.46 95.1586 1320.46 M95.1586 1317.68 Q99.5162 1317.68 101.808 1321.14 Q104.117 1324.57 104.117 1331.14 Q104.117 1337.68 101.808 1341.14 Q99.5162 1344.57 95.1586 1344.57 Q90.8009 1344.57 88.4919 1341.14 Q86.2003 1337.68 86.2003 1331.14 Q86.2003 1324.57 88.4919 1321.14 Q90.8009 1317.68 95.1586 1317.68 Z" fill="#000000" fill-rule="nonzero" fill-opacity="1" /><path clip-path="url(#clip180)" d="M110.888 1341.12 L116.617 1341.12 L116.617 1321.34 L110.384 1322.59 L110.384 1319.4 L116.582 1318.15 L120.089 1318.15 L120.089 1341.12 L125.818 1341.12 L125.818 1344.07 L110.888 1344.07 L110.888 1341.12 Z" fill="#000000" fill-rule="nonzero" fill-opacity="1" /><path clip-path="url(#clip180)" d="M61.5129 1200.29 Q58.8046 1200.29 57.4331 1202.96 Q56.0789 1205.62 56.0789 1210.97 Q56.0789 1216.3 57.4331 1218.97 Q58.8046 1221.63 61.5129 1221.63 Q64.2386 1221.63 65.5927 1218.97 Q66.9643 1216.3 66.9643 1210.97 Q66.9643 1205.62 65.5927 1202.96 Q64.2386 1200.29 61.5129 1200.29 M61.5129 1197.51 Q65.8705 1197.51 68.1622 1200.97 Q70.4712 1204.41 70.4712 1210.97 Q70.4712 1217.51 68.1622 1220.97 Q65.8705 1224.41 61.5129 1224.41 Q57.1553 1224.41 54.8463 1220.97 Q52.5546 1217.51 52.5546 1210.97 Q52.5546 1204.41 54.8463 1200.97 Q57.1553 1197.51 61.5129 1197.51 Z" fill="#000000" fill-rule="nonzero" fill-opacity="1" /><path clip-path="url(#clip180)" d="M76.6343 1219.49 L80.2975 1219.49 L80.2975 1223.9 L76.6343 1223.9 L76.6343 1219.49 Z" fill="#000000" fill-rule="nonzero" fill-opacity="1" /><path clip-path="url(#clip180)" d="M95.4363 1200.29 Q92.728 1200.29 91.3565 1202.96 Q90.0023 1205.62 90.0023 1210.97 Q90.0023 1216.3 91.3565 1218.97 Q92.728 1221.63 95.4363 1221.63 Q98.162 1221.63 99.5162 1218.97 Q100.888 1216.3 100.888 1210.97 Q100.888 1205.62 99.5162 1202.96 Q98.162 1200.29 95.4363 1200.29 M95.4363 1197.51 Q99.7939 1197.51 102.086 1200.97 Q104.395 1204.41 104.395 1210.97 Q104.395 1217.51 102.086 1220.97 Q99.7939 1224.41 95.4363 1224.41 Q91.0787 1224.41 88.7697 1220.97 Q86.478 1217.51 86.478 1210.97 Q86.478 1204.41 88.7697 1200.97 Q91.0787 1197.51 95.4363 1197.51 Z" fill="#000000" fill-rule="nonzero" fill-opacity="1" /><path clip-path="url(#clip180)" d="M113.579 1220.95 L125.818 1220.95 L125.818 1223.9 L109.36 1223.9 L109.36 1220.95 Q111.356 1218.88 114.794 1215.41 Q118.249 1211.92 119.134 1210.92 Q120.818 1209.02 121.478 1207.72 Q122.155 1206.4 122.155 1205.13 Q122.155 1203.07 120.697 1201.77 Q119.256 1200.46 116.929 1200.46 Q115.28 1200.46 113.44 1201.04 Q111.617 1201.61 109.533 1202.77 L109.533 1199.23 Q111.652 1198.38 113.492 1197.95 Q115.332 1197.51 116.86 1197.51 Q120.888 1197.51 123.283 1199.53 Q125.679 1201.54 125.679 1204.91 Q125.679 1206.51 125.072 1207.95 Q124.481 1209.37 122.901 1211.32 Q122.467 1211.82 120.141 1214.23 Q117.815 1216.63 113.579 1220.95 Z" fill="#000000" fill-rule="nonzero" fill-opacity="1" /><path clip-path="url(#clip180)" d="M60.8011 1080.12 Q58.0928 1080.12 56.7213 1082.8 Q55.3671 1085.45 55.3671 1090.8 Q55.3671 1096.13 56.7213 1098.8 Q58.0928 1101.46 60.8011 1101.46 Q63.5268 1101.46 64.8809 1098.8 Q66.2525 1096.13 66.2525 1090.8 Q66.2525 1085.45 64.8809 1082.8 Q63.5268 1080.12 60.8011 1080.12 M60.8011 1077.34 Q65.1587 1077.34 67.4504 1080.8 Q69.7594 1084.24 69.7594 1090.8 Q69.7594 1097.34 67.4504 1100.8 Q65.1587 1104.24 60.8011 1104.24 Q56.4435 1104.24 54.1345 1100.8 Q51.8428 1097.34 51.8428 1090.8 Q51.8428 1084.24 54.1345 1080.8 Q56.4435 1077.34 60.8011 1077.34 Z" fill="#000000" fill-rule="nonzero" fill-opacity="1" /><path clip-path="url(#clip180)" d="M75.9225 1099.32 L79.5857 1099.32 L79.5857 1103.73 L75.9225 1103.73 L75.9225 1099.32 Z" fill="#000000" fill-rule="nonzero" fill-opacity="1" /><path clip-path="url(#clip180)" d="M94.7245 1080.12 Q92.0162 1080.12 90.6447 1082.8 Q89.2905 1085.45 89.2905 1090.8 Q89.2905 1096.13 90.6447 1098.8 Q92.0162 1101.46 94.7245 1101.46 Q97.4502 1101.46 98.8044 1098.8 Q100.176 1096.13 100.176 1090.8 Q100.176 1085.45 98.8044 1082.8 Q97.4502 1080.12 94.7245 1080.12 M94.7245 1077.34 Q99.0821 1077.34 101.374 1080.8 Q103.683 1084.24 103.683 1090.8 Q103.683 1097.34 101.374 1100.8 Q99.0821 1104.24 94.7245 1104.24 Q90.3669 1104.24 88.0579 1100.8 Q85.7662 1097.34 85.7662 1090.8 Q85.7662 1084.24 88.0579 1080.8 Q90.3669 1077.34 94.7245 1077.34 Z" fill="#000000" fill-rule="nonzero" fill-opacity="1" /><path clip-path="url(#clip180)" d="M120.471 1089.76 Q122.988 1090.3 124.395 1092 Q125.818 1093.7 125.818 1096.2 Q125.818 1100.04 123.179 1102.14 Q120.54 1104.24 115.679 1104.24 Q114.047 1104.24 112.311 1103.91 Q110.593 1103.59 108.752 1102.95 L108.752 1099.57 Q110.211 1100.42 111.947 1100.85 Q113.683 1101.29 115.575 1101.29 Q118.874 1101.29 120.592 1099.98 Q122.329 1098.68 122.329 1096.2 Q122.329 1093.91 120.714 1092.62 Q119.117 1091.32 116.252 1091.32 L113.231 1091.32 L113.231 1088.44 L116.391 1088.44 Q118.978 1088.44 120.349 1087.41 Q121.721 1086.37 121.721 1084.43 Q121.721 1082.43 120.297 1081.37 Q118.891 1080.3 116.252 1080.3 Q114.811 1080.3 113.162 1080.61 Q111.513 1080.92 109.533 1081.58 L109.533 1078.46 Q111.53 1077.9 113.266 1077.62 Q115.02 1077.34 116.565 1077.34 Q120.558 1077.34 122.884 1079.17 Q125.21 1080.97 125.21 1084.06 Q125.21 1086.22 123.978 1087.71 Q122.745 1089.18 120.471 1089.76 Z" fill="#000000" fill-rule="nonzero" fill-opacity="1" /><path clip-path="url(#clip180)" d="M59.9504 959.954 Q57.2421 959.954 55.8706 962.628 Q54.5164 965.284 54.5164 970.631 Q54.5164 975.961 55.8706 978.635 Q57.2421 981.291 59.9504 981.291 Q62.6761 981.291 64.0303 978.635 Q65.4018 975.961 65.4018 970.631 Q65.4018 965.284 64.0303 962.628 Q62.6761 959.954 59.9504 959.954 M59.9504 957.176 Q64.308 957.176 66.5997 960.631 Q68.9087 964.069 68.9087 970.631 Q68.9087 977.176 66.5997 980.631 Q64.308 984.069 59.9504 984.069 Q55.5928 984.069 53.2838 980.631 Q50.9921 977.176 50.9921 970.631 Q50.9921 964.069 53.2838 960.631 Q55.5928 957.176 59.9504 957.176 Z" fill="#000000" fill-rule="nonzero" fill-opacity="1" /><path clip-path="url(#clip180)" d="M75.0719 979.155 L78.735 979.155 L78.735 983.565 L75.0719 983.565 L75.0719 979.155 Z" fill="#000000" fill-rule="nonzero" fill-opacity="1" /><path clip-path="url(#clip180)" d="M93.8738 959.954 Q91.1655 959.954 89.794 962.628 Q88.4398 965.284 88.4398 970.631 Q88.4398 975.961 89.794 978.635 Q91.1655 981.291 93.8738 981.291 Q96.5995 981.291 97.9537 978.635 Q99.3252 975.961 99.3252 970.631 Q99.3252 965.284 97.9537 962.628 Q96.5995 959.954 93.8738 959.954 M93.8738 957.176 Q98.2315 957.176 100.523 960.631 Q102.832 964.069 102.832 970.631 Q102.832 977.176 100.523 980.631 Q98.2315 984.069 93.8738 984.069 Q89.5162 984.069 87.2072 980.631 Q84.9156 977.176 84.9156 970.631 Q84.9156 964.069 87.2072 960.631 Q89.5162 957.176 93.8738 957.176 Z" fill="#000000" fill-rule="nonzero" fill-opacity="1" /><path clip-path="url(#clip180)" d="M118.631 960.701 L109.777 974.537 L118.631 974.537 L118.631 960.701 M117.711 957.645 L122.12 957.645 L122.12 974.537 L125.818 974.537 L125.818 977.454 L122.12 977.454 L122.12 983.565 L118.631 983.565 L118.631 977.454 L106.929 977.454 L106.929 974.069 L117.711 957.645 Z" fill="#000000" fill-rule="nonzero" fill-opacity="1" /><path clip-path="url(#clip180)" d="M173.716 818.926 Q170.198 818.926 168.3 821.472 Q166.309 824.134 166.309 828.532 Q166.309 833.185 168.276 835.87 Q170.267 838.532 173.716 838.532 Q177.119 838.532 179.11 835.847 Q181.1 833.162 181.1 828.532 Q181.1 824.296 179.11 821.472 Q177.281 818.926 173.716 818.926 M173.716 815.546 L187.86 815.546 L187.86 819.805 L183.091 819.805 Q185.614 823.417 185.614 828.532 Q185.614 834.898 182.443 838.509 Q179.272 842.143 173.716 842.143 Q168.138 842.143 164.989 838.509 Q161.818 834.898 161.818 828.532 Q161.818 822.12 164.989 818.532 Q167.605 815.546 173.716 815.546 Z" fill="#000000" fill-rule="nonzero" fill-opacity="1" /><path clip-path="url(#clip180)" d="M198.878 841.472 L190.961 815.546 L195.545 815.546 L202.235 837.305 Q205.012 834.435 207.327 830.454 Q209.086 827.467 209.179 824.875 Q209.225 823.648 208.67 821.333 Q208.022 818.579 205.568 815.546 L209.873 815.546 L209.873 815.546 Q211.471 817.606 212.535 820.477 Q213.508 823.116 213.508 824.921 Q213.508 829.458 210.36 833.509 Q206.262 838.787 203.415 841.472 L198.878 841.472 Z" fill="#000000" fill-rule="nonzero" fill-opacity="1" /><polyline clip-path="url(#clip184)" style="stroke:#009af9; stroke-linecap:round; stroke-linejoin:round; stroke-width:4; stroke-opacity:1; fill:none" points="189.869,964.717 248.307,1022.75 306.746,1081.57 365.185,1141.2 423.623,1201.62 482.062,1262.84 540.501,1324.85 598.939,1387.67 657.378,1451.28 715.817,1386.87 774.256,1321.66 832.694,1255.66 891.133,1188.86 949.572,1121.26 1008.01,1052.86 1066.45,983.671 1124.89,913.68 "/>
<circle clip-path="url(#clip184)" cx="657.378" cy="1451.28" r="10.8" fill="#ff0000" fill-rule="evenodd" fill-opacity="1" stroke="#000000" stroke-opacity="1" stroke-width="3.2"/>
</svg>
