<?xml version="1.0" encoding="utf-8"?>
<svg xmlns="http://www.w3.org/2000/svg" xmlns:xlink="http://www.w3.org/1999/xlink" width="600" height="400" viewBox="0 0 2400 1600">
<defs>
  <clipPath id="clip360">
    <rect x="0" y="0" width="2400" height="1600"/>
  </clipPath>
</defs>
<path clip-path="url(#clip360)" d="M0 1600 L2400 1600 L2400 0 L0 0  Z" fill="#ffffff" fill-rule="evenodd" fill-opacity="1"/>
<defs>
  <clipPath id="clip361">
    <rect x="480" y="0" width="1681" height="1600"/>
  </clipPath>
</defs>
<path clip-path="url(#clip360)" d="M128.138 667.406 L1152.76 667.406 L1152.76 97.5521 L128.138 97.5521  Z" fill="#ffffff" fill-rule="evenodd" fill-opacity="1"/>
<defs>
  <clipPath id="clip362">
    <rect x="128" y="97" width="1026" height="571"/>
  </clipPath>
</defs>
<polyline clip-path="url(#clip362)" style="stroke:#000000; stroke-linecap:round; stroke-linejoin:round; stroke-width:2; stroke-opacity:0.1; fill:none" points="184.494,667.406 184.494,97.5521 "/>
<polyline clip-path="url(#clip362)" style="stroke:#000000; stroke-linecap:round; stroke-linejoin:round; stroke-width:2; stroke-opacity:0.1; fill:none" points="412.47,667.406 412.47,97.5521 "/>
<polyline clip-path="url(#clip362)" style="stroke:#000000; stroke-linecap:round; stroke-linejoin:round; stroke-width:2; stroke-opacity:0.1; fill:none" points="640.447,667.406 640.447,97.5521 "/>
<polyline clip-path="url(#clip362)" style="stroke:#000000; stroke-linecap:round; stroke-linejoin:round; stroke-width:2; stroke-opacity:0.1; fill:none" points="868.423,667.406 868.423,97.5521 "/>
<polyline clip-path="url(#clip362)" style="stroke:#000000; stroke-linecap:round; stroke-linejoin:round; stroke-width:2; stroke-opacity:0.1; fill:none" points="1096.4,667.406 1096.4,97.5521 "/>
<polyline clip-path="url(#clip362)" style="stroke:#000000; stroke-linecap:round; stroke-linejoin:round; stroke-width:2; stroke-opacity:0.1; fill:none" points="128.138,667.406 1152.76,667.406 "/>
<polyline clip-path="url(#clip362)" style="stroke:#000000; stroke-linecap:round; stroke-linejoin:round; stroke-width:2; stroke-opacity:0.1; fill:none" points="128.138,569.156 1152.76,569.156 "/>
<polyline clip-path="url(#clip362)" style="stroke:#000000; stroke-linecap:round; stroke-linejoin:round; stroke-width:2; stroke-opacity:0.1; fill:none" points="128.138,470.905 1152.76,470.905 "/>
<polyline clip-path="url(#clip362)" style="stroke:#000000; stroke-linecap:round; stroke-linejoin:round; stroke-width:2; stroke-opacity:0.1; fill:none" points="128.138,372.654 1152.76,372.654 "/>
<polyline clip-path="url(#clip362)" style="stroke:#000000; stroke-linecap:round; stroke-linejoin:round; stroke-width:2; stroke-opacity:0.1; fill:none" points="128.138,274.403 1152.76,274.403 "/>
<polyline clip-path="url(#clip362)" style="stroke:#000000; stroke-linecap:round; stroke-linejoin:round; stroke-width:2; stroke-opacity:0.1; fill:none" points="128.138,176.153 1152.76,176.153 "/>
<polyline clip-path="url(#clip360)" style="stroke:#000000; stroke-linecap:round; stroke-linejoin:round; stroke-width:4; stroke-opacity:1; fill:none" points="128.138,667.406 1152.76,667.406 "/>
<polyline clip-path="url(#clip360)" style="stroke:#000000; stroke-linecap:round; stroke-linejoin:round; stroke-width:4; stroke-opacity:1; fill:none" points="184.494,667.406 184.494,648.509 "/>
<polyline clip-path="url(#clip360)" style="stroke:#000000; stroke-linecap:round; stroke-linejoin:round; stroke-width:4; stroke-opacity:1; fill:none" points="412.47,667.406 412.47,648.509 "/>
<polyline clip-path="url(#clip360)" style="stroke:#000000; stroke-linecap:round; stroke-linejoin:round; stroke-width:4; stroke-opacity:1; fill:none" points="640.447,667.406 640.447,648.509 "/>
<polyline clip-path="url(#clip360)" style="stroke:#000000; stroke-linecap:round; stroke-linejoin:round; stroke-width:4; stroke-opacity:1; fill:none" points="868.423,667.406 868.423,648.509 "/>
<polyline clip-path="url(#clip360)" style="stroke:#000000; stroke-linecap:round; stroke-linejoin:round; stroke-width:4; stroke-opacity:1; fill:none" points="1096.4,667.406 1096.4,648.509 "/>
<path clip-path="url(#clip360)" d="M131.123 738.66 Q129.208 740.575 130.129 743.435 Q131.05 746.271 134.831 750.052 Q138.599 753.821 141.447 754.754 Q144.295 755.662 146.211 753.747 Q148.138 751.82 147.217 748.984 Q146.296 746.124 142.528 742.355 Q138.747 738.574 135.899 737.666 Q133.051 736.733 131.123 738.66 M129.159 736.696 Q132.24 733.615 136.304 734.437 Q140.367 735.235 145.008 739.875 Q149.636 744.503 150.446 748.579 Q151.256 752.63 148.175 755.712 Q145.093 758.793 141.03 757.995 Q136.967 757.172 132.339 752.544 Q127.698 747.904 126.888 743.853 Q126.078 739.777 129.159 736.696 Z" fill="#000000" fill-rule="nonzero" fill-opacity="1" /><path clip-path="url(#clip360)" d="M155.393 741.545 L157.983 738.955 L161.101 742.073 L158.511 744.663 L155.393 741.545 Z" fill="#000000" fill-rule="nonzero" fill-opacity="1" /><path clip-path="url(#clip360)" d="M163.102 722.664 Q161.335 724.432 161.261 726.396 Q161.2 728.348 162.857 730.005 Q164.514 731.663 166.466 731.601 Q168.43 731.528 170.198 729.76 Q171.966 727.992 172.039 726.028 Q172.101 724.052 170.456 722.407 Q168.799 720.749 166.834 720.823 Q164.883 720.884 163.102 722.664 M159.567 724.088 Q157.578 725.291 155.589 725.095 Q153.613 724.886 152.042 723.315 Q149.844 721.118 150.127 718.282 Q150.421 715.434 153.147 712.708 Q155.884 709.971 158.72 709.688 Q161.556 709.406 163.753 711.604 Q165.324 713.175 165.521 715.164 Q165.73 717.14 164.539 719.117 Q166.748 717.742 168.958 717.963 Q171.18 718.171 172.936 719.927 Q175.6 722.591 175.391 725.647 Q175.194 728.692 172.162 731.724 Q169.13 734.756 166.073 734.965 Q163.029 735.161 160.365 732.497 Q158.609 730.742 158.401 728.52 Q158.192 726.298 159.567 724.088 M154.742 721.081 Q156.166 722.505 157.848 722.419 Q159.542 722.321 161.151 720.712 Q162.746 719.117 162.845 717.422 Q162.955 715.716 161.531 714.292 Q160.107 712.868 158.401 712.978 Q156.707 713.077 155.111 714.673 Q153.503 716.281 153.404 717.975 Q153.318 719.657 154.742 721.081 Z" fill="#000000" fill-rule="nonzero" fill-opacity="1" /><path clip-path="url(#clip360)" d="M163.544 702.973 L175.329 691.188 L176.385 692.244 L187.004 716.17 L184.414 718.761 L174.433 696.258 L165.631 705.06 L163.544 702.973 Z" fill="#000000" fill-rule="nonzero" fill-opacity="1" /><path clip-path="url(#clip360)" d="M358.67 739.09 Q356.755 741.005 357.676 743.865 Q358.597 746.701 362.378 750.482 Q366.146 754.251 368.994 755.184 Q371.842 756.092 373.758 754.177 Q375.685 752.25 374.764 749.414 Q373.843 746.554 370.075 742.785 Q366.294 739.004 363.446 738.095 Q360.598 737.162 358.67 739.09 M356.706 737.126 Q359.787 734.044 363.851 734.867 Q367.914 735.665 372.554 740.305 Q377.183 744.933 377.993 749.009 Q378.803 753.06 375.722 756.141 Q372.64 759.223 368.577 758.425 Q364.514 757.602 359.886 752.974 Q355.245 748.334 354.435 744.283 Q353.625 740.207 356.706 737.126 Z" fill="#000000" fill-rule="nonzero" fill-opacity="1" /><path clip-path="url(#clip360)" d="M382.94 741.975 L385.53 739.384 L388.648 742.502 L386.058 745.093 L382.94 741.975 Z" fill="#000000" fill-rule="nonzero" fill-opacity="1" /><path clip-path="url(#clip360)" d="M390.649 723.094 Q388.882 724.862 388.808 726.826 Q388.747 728.778 390.404 730.435 Q392.061 732.092 394.013 732.031 Q395.977 731.957 397.745 730.19 Q399.513 728.422 399.586 726.458 Q399.648 724.481 398.003 722.836 Q396.346 721.179 394.381 721.253 Q392.429 721.314 390.649 723.094 M387.114 724.518 Q385.125 725.721 383.136 725.525 Q381.16 725.316 379.589 723.745 Q377.391 721.547 377.674 718.711 Q377.968 715.863 380.694 713.138 Q383.431 710.4 386.267 710.118 Q389.103 709.836 391.3 712.033 Q392.871 713.605 393.068 715.593 Q393.277 717.57 392.086 719.546 Q394.295 718.171 396.505 718.392 Q398.727 718.601 400.483 720.356 Q403.146 723.02 402.938 726.077 Q402.741 729.122 399.709 732.154 Q396.677 735.186 393.62 735.395 Q390.576 735.591 387.912 732.927 Q386.156 731.172 385.948 728.95 Q385.739 726.728 387.114 724.518 M382.289 721.51 Q383.713 722.934 385.395 722.848 Q387.089 722.75 388.698 721.142 Q390.293 719.546 390.392 717.852 Q390.502 716.146 389.078 714.722 Q387.654 713.298 385.948 713.408 Q384.254 713.506 382.658 715.102 Q381.05 716.71 380.951 718.405 Q380.865 720.086 382.289 721.51 Z" fill="#000000" fill-rule="nonzero" fill-opacity="1" /><path clip-path="url(#clip360)" d="M406.645 707.098 Q404.877 708.866 404.804 710.83 Q404.742 712.782 406.4 714.439 Q408.057 716.097 410.009 716.035 Q411.973 715.962 413.741 714.194 Q415.509 712.426 415.582 710.462 Q415.644 708.485 413.999 706.84 Q412.341 705.183 410.377 705.257 Q408.425 705.318 406.645 707.098 M403.11 708.522 Q401.121 709.725 399.132 709.529 Q397.156 709.32 395.584 707.749 Q393.387 705.551 393.669 702.716 Q393.964 699.868 396.689 697.142 Q399.427 694.405 402.263 694.122 Q405.098 693.84 407.296 696.037 Q408.867 697.609 409.064 699.598 Q409.272 701.574 408.081 703.55 Q410.291 702.176 412.501 702.396 Q414.723 702.605 416.478 704.361 Q419.142 707.025 418.934 710.081 Q418.737 713.126 415.705 716.158 Q412.673 719.19 409.616 719.399 Q406.572 719.595 403.908 716.931 Q402.152 715.176 401.943 712.954 Q401.735 710.732 403.11 708.522 M398.285 705.515 Q399.709 706.939 401.391 706.853 Q403.085 706.754 404.693 705.146 Q406.289 703.55 406.387 701.856 Q406.498 700.15 405.074 698.726 Q403.65 697.302 401.943 697.412 Q400.249 697.511 398.653 699.106 Q397.045 700.715 396.947 702.409 Q396.861 704.091 398.285 705.515 Z" fill="#000000" fill-rule="nonzero" fill-opacity="1" /><path clip-path="url(#clip360)" d="M586.696 739.041 Q584.781 740.956 585.702 743.816 Q586.622 746.652 590.403 750.433 Q594.172 754.202 597.02 755.135 Q599.868 756.043 601.783 754.128 Q603.711 752.201 602.79 749.365 Q601.869 746.504 598.1 742.736 Q594.319 738.955 591.471 738.046 Q588.623 737.113 586.696 739.041 M584.732 737.076 Q587.813 733.995 591.876 734.818 Q595.94 735.616 600.58 740.256 Q605.208 744.884 606.019 748.96 Q606.829 753.011 603.747 756.092 Q600.666 759.173 596.603 758.375 Q592.539 757.553 587.911 752.925 Q583.271 748.285 582.461 744.233 Q581.65 740.158 584.732 737.076 Z" fill="#000000" fill-rule="nonzero" fill-opacity="1" /><path clip-path="url(#clip360)" d="M610.966 741.926 L613.556 739.335 L616.674 742.453 L614.084 745.044 L610.966 741.926 Z" fill="#000000" fill-rule="nonzero" fill-opacity="1" /><path clip-path="url(#clip360)" d="M618.675 723.045 Q616.907 724.813 616.834 726.777 Q616.772 728.729 618.43 730.386 Q620.087 732.043 622.039 731.982 Q624.003 731.908 625.771 730.14 Q627.539 728.373 627.612 726.409 Q627.674 724.432 626.029 722.787 Q624.371 721.13 622.407 721.203 Q620.455 721.265 618.675 723.045 M615.14 724.469 Q613.151 725.672 611.162 725.476 Q609.186 725.267 607.614 723.696 Q605.417 721.498 605.699 718.662 Q605.994 715.814 608.719 713.089 Q611.457 710.351 614.293 710.069 Q617.128 709.787 619.326 711.984 Q620.897 713.555 621.094 715.544 Q621.302 717.521 620.111 719.497 Q622.321 718.122 624.531 718.343 Q626.753 718.552 628.508 720.307 Q631.172 722.971 630.964 726.028 Q630.767 729.072 627.735 732.105 Q624.703 735.137 621.646 735.346 Q618.602 735.542 615.938 732.878 Q614.182 731.123 613.973 728.901 Q613.765 726.679 615.14 724.469 M610.315 721.461 Q611.739 722.885 613.421 722.799 Q615.115 722.701 616.723 721.093 Q618.319 719.497 618.417 717.803 Q618.528 716.097 617.104 714.673 Q615.68 713.249 613.973 713.359 Q612.279 713.457 610.683 715.053 Q609.075 716.661 608.977 718.355 Q608.891 720.037 610.315 721.461 Z" fill="#000000" fill-rule="nonzero" fill-opacity="1" /><path clip-path="url(#clip360)" d="M637.764 720.602 L635.506 718.343 Q636.881 717.852 638.071 717.128 Q639.262 716.404 640.183 715.483 Q642.638 713.028 642.282 710.094 Q641.926 707.135 638.747 703.587 Q639.09 705.355 638.562 707.012 Q638.035 708.67 636.709 709.995 Q633.959 712.745 630.693 712.696 Q627.428 712.622 624.543 709.738 Q621.72 706.914 621.683 703.538 Q621.646 700.162 624.42 697.388 Q627.6 694.208 631.712 694.982 Q635.825 695.731 640.465 700.371 Q644.799 704.704 645.327 709.357 Q645.854 713.985 642.38 717.459 Q641.447 718.392 640.306 719.166 Q639.164 719.939 637.764 720.602 M634.929 707.896 Q636.598 706.227 636.426 704.115 Q636.267 701.991 634.278 700.003 Q632.302 698.026 630.178 697.867 Q628.054 697.682 626.385 699.352 Q624.715 701.022 624.887 703.158 Q625.059 705.269 627.035 707.246 Q629.024 709.234 631.135 709.406 Q633.259 709.566 634.929 707.896 Z" fill="#000000" fill-rule="nonzero" fill-opacity="1" /><path clip-path="url(#clip360)" d="M814.574 739.139 Q812.659 741.054 813.58 743.914 Q814.501 746.75 818.282 750.531 Q822.051 754.3 824.899 755.233 Q827.747 756.141 829.662 754.226 Q831.589 752.299 830.668 749.463 Q829.748 746.603 825.979 742.834 Q822.198 739.053 819.35 738.144 Q816.502 737.211 814.574 739.139 M812.61 737.175 Q815.691 734.093 819.755 734.916 Q823.818 735.714 828.459 740.354 Q833.087 744.982 833.897 749.058 Q834.707 753.109 831.626 756.19 Q828.545 759.272 824.481 758.474 Q820.418 757.651 815.79 753.023 Q811.149 748.383 810.339 744.332 Q809.529 740.256 812.61 737.175 Z" fill="#000000" fill-rule="nonzero" fill-opacity="1" /><path clip-path="url(#clip360)" d="M838.844 742.024 L841.434 739.433 L844.553 742.552 L841.962 745.142 L838.844 742.024 Z" fill="#000000" fill-rule="nonzero" fill-opacity="1" /><path clip-path="url(#clip360)" d="M849.647 736.696 L847.388 734.437 Q848.763 733.946 849.954 733.222 Q851.145 732.497 852.066 731.577 Q854.521 729.122 854.165 726.188 Q853.809 723.229 850.629 719.681 Q850.973 721.449 850.445 723.106 Q849.917 724.764 848.591 726.089 Q845.842 728.839 842.576 728.79 Q839.311 728.716 836.426 725.832 Q833.602 723.008 833.565 719.632 Q833.529 716.256 836.303 713.482 Q839.483 710.302 843.595 711.076 Q847.708 711.825 852.348 716.465 Q856.681 720.798 857.209 725.451 Q857.737 730.079 854.263 733.553 Q853.33 734.486 852.188 735.26 Q851.047 736.033 849.647 736.696 M846.811 723.99 Q848.481 722.321 848.309 720.209 Q848.149 718.085 846.161 716.097 Q844.184 714.12 842.061 713.961 Q839.937 713.776 838.267 715.446 Q836.598 717.116 836.77 719.252 Q836.941 721.363 838.918 723.339 Q840.907 725.328 843.018 725.5 Q845.142 725.66 846.811 723.99 Z" fill="#000000" fill-rule="nonzero" fill-opacity="1" /><path clip-path="url(#clip360)" d="M854.558 699.156 Q852.643 701.071 853.563 703.931 Q854.484 706.767 858.265 710.548 Q862.034 714.317 864.882 715.25 Q867.73 716.158 869.645 714.243 Q871.572 712.316 870.652 709.48 Q869.731 706.619 865.962 702.851 Q862.181 699.07 859.333 698.161 Q856.485 697.228 854.558 699.156 M852.593 697.191 Q855.675 694.11 859.738 694.933 Q863.802 695.731 868.442 700.371 Q873.07 704.999 873.88 709.075 Q874.69 713.126 871.609 716.207 Q868.528 719.288 864.464 718.49 Q860.401 717.668 855.773 713.04 Q851.133 708.399 850.322 704.348 Q849.512 700.273 852.593 697.191 Z" fill="#000000" fill-rule="nonzero" fill-opacity="1" /><path clip-path="url(#clip360)" d="M1043.2 738.488 Q1041.29 740.403 1042.21 743.264 Q1043.13 746.099 1046.91 749.88 Q1050.68 753.649 1053.53 754.582 Q1056.37 755.491 1058.29 753.576 Q1060.22 751.648 1059.3 748.812 Q1058.37 745.952 1054.61 742.183 Q1050.83 738.402 1047.98 737.494 Q1045.13 736.561 1043.2 738.488 M1041.24 736.524 Q1044.32 733.443 1048.38 734.265 Q1052.45 735.063 1057.09 739.704 Q1061.71 744.332 1062.52 748.407 Q1063.33 752.458 1060.25 755.54 Q1057.17 758.621 1053.11 757.823 Q1049.05 757.001 1044.42 752.372 Q1039.78 747.732 1038.97 743.681 Q1038.16 739.605 1041.24 736.524 Z" fill="#000000" fill-rule="nonzero" fill-opacity="1" /><path clip-path="url(#clip360)" d="M1067.47 741.373 L1070.06 738.783 L1073.18 741.901 L1070.59 744.491 L1067.47 741.373 Z" fill="#000000" fill-rule="nonzero" fill-opacity="1" /><path clip-path="url(#clip360)" d="M1078.27 736.045 L1076.02 733.786 Q1077.39 733.295 1078.58 732.571 Q1079.77 731.847 1080.69 730.926 Q1083.15 728.471 1082.79 725.537 Q1082.44 722.578 1079.26 719.031 Q1079.6 720.798 1079.07 722.456 Q1078.54 724.113 1077.22 725.439 Q1074.47 728.189 1071.2 728.139 Q1067.94 728.066 1065.05 725.181 Q1062.23 722.357 1062.19 718.981 Q1062.16 715.606 1064.93 712.831 Q1068.11 709.652 1072.22 710.425 Q1076.33 711.174 1080.98 715.814 Q1085.31 720.148 1085.84 724.8 Q1086.36 729.428 1082.89 732.903 Q1081.96 733.836 1080.82 734.609 Q1079.67 735.382 1078.27 736.045 M1075.44 723.339 Q1077.11 721.67 1076.94 719.558 Q1076.78 717.435 1074.79 715.446 Q1072.81 713.47 1070.69 713.31 Q1068.56 713.126 1066.89 714.795 Q1065.22 716.465 1065.4 718.601 Q1065.57 720.712 1067.55 722.689 Q1069.53 724.678 1071.65 724.849 Q1073.77 725.009 1075.44 723.339 Z" fill="#000000" fill-rule="nonzero" fill-opacity="1" /><path clip-path="url(#clip360)" d="M1092.92 717.987 L1096.97 713.936 L1082.99 699.954 L1079.47 705.245 L1077.21 702.986 L1080.71 697.719 L1083.18 695.24 L1099.43 711.481 L1103.48 707.43 L1105.56 709.517 L1095.01 720.074 L1092.92 717.987 Z" fill="#000000" fill-rule="nonzero" fill-opacity="1" /><polyline clip-path="url(#clip360)" style="stroke:#000000; stroke-linecap:round; stroke-linejoin:round; stroke-width:4; stroke-opacity:1; fill:none" points="128.138,667.406 128.138,97.5521 "/>
<polyline clip-path="url(#clip360)" style="stroke:#000000; stroke-linecap:round; stroke-linejoin:round; stroke-width:4; stroke-opacity:1; fill:none" points="128.138,667.406 147.035,667.406 "/>
<polyline clip-path="url(#clip360)" style="stroke:#000000; stroke-linecap:round; stroke-linejoin:round; stroke-width:4; stroke-opacity:1; fill:none" points="128.138,569.156 147.035,569.156 "/>
<polyline clip-path="url(#clip360)" style="stroke:#000000; stroke-linecap:round; stroke-linejoin:round; stroke-width:4; stroke-opacity:1; fill:none" points="128.138,470.905 147.035,470.905 "/>
<polyline clip-path="url(#clip360)" style="stroke:#000000; stroke-linecap:round; stroke-linejoin:round; stroke-width:4; stroke-opacity:1; fill:none" points="128.138,372.654 147.035,372.654 "/>
<polyline clip-path="url(#clip360)" style="stroke:#000000; stroke-linecap:round; stroke-linejoin:round; stroke-width:4; stroke-opacity:1; fill:none" points="128.138,274.403 147.035,274.403 "/>
<polyline clip-path="url(#clip360)" style="stroke:#000000; stroke-linecap:round; stroke-linejoin:round; stroke-width:4; stroke-opacity:1; fill:none" points="128.138,176.153 147.035,176.153 "/>
<path clip-path="url(#clip360)" d="M83.1795 656.755 Q80.4711 656.755 79.0996 659.429 Q77.7455 662.085 77.7455 667.432 Q77.7455 672.762 79.0996 675.436 Q80.4711 678.092 83.1795 678.092 Q85.9051 678.092 87.2593 675.436 Q88.6308 672.762 88.6308 667.432 Q88.6308 662.085 87.2593 659.429 Q85.9051 656.755 83.1795 656.755 M83.1795 653.978 Q87.5371 653.978 89.8287 657.432 Q92.1377 660.87 92.1377 667.432 Q92.1377 673.978 89.8287 677.432 Q87.5371 680.87 83.1795 680.87 Q78.8218 680.87 76.5128 677.432 Q74.2212 673.978 74.2212 667.432 Q74.2212 660.87 76.5128 657.432 Q78.8218 653.978 83.1795 653.978 Z" fill="#000000" fill-rule="nonzero" fill-opacity="1" /><path clip-path="url(#clip360)" d="M53.6657 579.164 L59.3949 579.164 L59.3949 559.39 L53.1623 560.64 L53.1623 557.446 L59.3601 556.196 L62.8671 556.196 L62.8671 579.164 L68.5962 579.164 L68.5962 582.116 L53.6657 582.116 L53.6657 579.164 Z" fill="#000000" fill-rule="nonzero" fill-opacity="1" /><path clip-path="url(#clip360)" d="M83.1795 558.505 Q80.4711 558.505 79.0996 561.178 Q77.7455 563.834 77.7455 569.182 Q77.7455 574.512 79.0996 577.185 Q80.4711 579.841 83.1795 579.841 Q85.9051 579.841 87.2593 577.185 Q88.6308 574.512 88.6308 569.182 Q88.6308 563.834 87.2593 561.178 Q85.9051 558.505 83.1795 558.505 M83.1795 555.727 Q87.5371 555.727 89.8287 559.182 Q92.1377 562.619 92.1377 569.182 Q92.1377 575.727 89.8287 579.182 Q87.5371 582.619 83.1795 582.619 Q78.8218 582.619 76.5128 579.182 Q74.2212 575.727 74.2212 569.182 Q74.2212 562.619 76.5128 559.182 Q78.8218 555.727 83.1795 555.727 Z" fill="#000000" fill-rule="nonzero" fill-opacity="1" /><path clip-path="url(#clip360)" d="M56.0789 480.914 L68.3184 480.914 L68.3184 483.865 L51.8602 483.865 L51.8602 480.914 Q53.8567 478.848 57.2942 475.375 Q60.749 471.886 61.6344 470.879 Q63.3184 468.987 63.9782 467.684 Q64.6552 466.365 64.6552 465.098 Q64.6552 463.032 63.1969 461.73 Q61.756 460.428 59.4296 460.428 Q57.7803 460.428 55.94 461 Q54.1171 461.573 52.0338 462.737 L52.0338 459.195 Q54.1518 458.344 55.9921 457.91 Q57.8324 457.476 59.3601 457.476 Q63.3879 457.476 65.7837 459.49 Q68.1795 461.504 68.1795 464.872 Q68.1795 466.469 67.5719 467.91 Q66.9816 469.334 65.4018 471.278 Q64.9677 471.782 62.6414 474.195 Q60.315 476.591 56.0789 480.914 Z" fill="#000000" fill-rule="nonzero" fill-opacity="1" /><path clip-path="url(#clip360)" d="M83.1795 460.254 Q80.4711 460.254 79.0996 462.928 Q77.7455 465.584 77.7455 470.931 Q77.7455 476.261 79.0996 478.934 Q80.4711 481.591 83.1795 481.591 Q85.9051 481.591 87.2593 478.934 Q88.6308 476.261 88.6308 470.931 Q88.6308 465.584 87.2593 462.928 Q85.9051 460.254 83.1795 460.254 M83.1795 457.476 Q87.5371 457.476 89.8287 460.931 Q92.1377 464.368 92.1377 470.931 Q92.1377 477.476 89.8287 480.931 Q87.5371 484.368 83.1795 484.368 Q78.8218 484.368 76.5128 480.931 Q74.2212 477.476 74.2212 470.931 Q74.2212 464.368 76.5128 460.931 Q78.8218 457.476 83.1795 457.476 Z" fill="#000000" fill-rule="nonzero" fill-opacity="1" /><path clip-path="url(#clip360)" d="M63.683 371.639 Q66.2004 372.177 67.6066 373.878 Q69.0302 375.58 69.0302 378.079 Q69.0302 381.916 66.3913 384.017 Q63.7525 386.118 58.8914 386.118 Q57.2595 386.118 55.5234 385.788 Q53.8046 385.475 51.9643 384.833 L51.9643 381.448 Q53.4227 382.298 55.1588 382.732 Q56.8949 383.166 58.7872 383.166 Q62.0858 383.166 63.8046 381.864 Q65.5407 380.562 65.5407 378.079 Q65.5407 375.788 63.9261 374.503 Q62.3289 373.201 59.4643 373.201 L56.4435 373.201 L56.4435 370.319 L59.6032 370.319 Q62.19 370.319 63.5615 369.295 Q64.933 368.253 64.933 366.309 Q64.933 364.312 63.5094 363.253 Q62.1032 362.177 59.4643 362.177 Q58.0233 362.177 56.374 362.489 Q54.7247 362.802 52.7456 363.462 L52.7456 360.337 Q54.7421 359.781 56.4782 359.503 Q58.2317 359.225 59.7768 359.225 Q63.7698 359.225 66.0962 361.048 Q68.4226 362.854 68.4226 365.944 Q68.4226 368.097 67.19 369.59 Q65.9573 371.066 63.683 371.639 Z" fill="#000000" fill-rule="nonzero" fill-opacity="1" /><path clip-path="url(#clip360)" d="M83.1795 362.003 Q80.4711 362.003 79.0996 364.677 Q77.7455 367.333 77.7455 372.68 Q77.7455 378.01 79.0996 380.684 Q80.4711 383.34 83.1795 383.34 Q85.9051 383.34 87.2593 380.684 Q88.6308 378.01 88.6308 372.68 Q88.6308 367.333 87.2593 364.677 Q85.9051 362.003 83.1795 362.003 M83.1795 359.225 Q87.5371 359.225 89.8287 362.68 Q92.1377 366.118 92.1377 372.68 Q92.1377 379.225 89.8287 382.68 Q87.5371 386.118 83.1795 386.118 Q78.8218 386.118 76.5128 382.68 Q74.2212 379.225 74.2212 372.68 Q74.2212 366.118 76.5128 362.68 Q78.8218 359.225 83.1795 359.225 Z" fill="#000000" fill-rule="nonzero" fill-opacity="1" /><path clip-path="url(#clip360)" d="M62.6935 264.499 L53.8393 278.336 L62.6935 278.336 L62.6935 264.499 M61.7733 261.443 L66.183 261.443 L66.183 278.336 L69.8809 278.336 L69.8809 281.252 L66.183 281.252 L66.183 287.363 L62.6935 287.363 L62.6935 281.252 L50.9921 281.252 L50.9921 277.867 L61.7733 261.443 Z" fill="#000000" fill-rule="nonzero" fill-opacity="1" /><path clip-path="url(#clip360)" d="M83.1795 263.752 Q80.4711 263.752 79.0996 266.426 Q77.7455 269.082 77.7455 274.429 Q77.7455 279.759 79.0996 282.433 Q80.4711 285.089 83.1795 285.089 Q85.9051 285.089 87.2593 282.433 Q88.6308 279.759 88.6308 274.429 Q88.6308 269.082 87.2593 266.426 Q85.9051 263.752 83.1795 263.752 M83.1795 260.975 Q87.5371 260.975 89.8287 264.43 Q92.1377 267.867 92.1377 274.429 Q92.1377 280.975 89.8287 284.429 Q87.5371 287.867 83.1795 287.867 Q78.8218 287.867 76.5128 284.429 Q74.2212 280.975 74.2212 274.429 Q74.2212 267.867 76.5128 264.43 Q78.8218 260.975 83.1795 260.975 Z" fill="#000000" fill-rule="nonzero" fill-opacity="1" /><path clip-path="url(#clip360)" d="M53.0928 163.193 L66.8601 163.193 L66.8601 166.144 L56.3046 166.144 L56.3046 172.498 Q57.0685 172.238 57.8324 172.116 Q58.5963 171.977 59.3601 171.977 Q63.7004 171.977 66.2351 174.356 Q68.7698 176.734 68.7698 180.797 Q68.7698 184.981 66.1657 187.307 Q63.5615 189.616 58.8219 189.616 Q57.19 189.616 55.4886 189.338 Q53.8046 189.061 51.9991 188.505 L51.9991 184.981 Q53.5616 185.831 55.2282 186.248 Q56.8949 186.665 58.7525 186.665 Q61.756 186.665 63.5094 185.085 Q65.2629 183.505 65.2629 180.797 Q65.2629 178.088 63.5094 176.509 Q61.756 174.929 58.7525 174.929 Q57.3463 174.929 55.94 175.241 Q54.5511 175.554 53.0928 176.213 L53.0928 163.193 Z" fill="#000000" fill-rule="nonzero" fill-opacity="1" /><path clip-path="url(#clip360)" d="M83.1795 165.502 Q80.4711 165.502 79.0996 168.175 Q77.7455 170.832 77.7455 176.179 Q77.7455 181.509 79.0996 184.182 Q80.4711 186.838 83.1795 186.838 Q85.9051 186.838 87.2593 184.182 Q88.6308 181.509 88.6308 176.179 Q88.6308 170.832 87.2593 168.175 Q85.9051 165.502 83.1795 165.502 M83.1795 162.724 Q87.5371 162.724 89.8287 166.179 Q92.1377 169.616 92.1377 176.179 Q92.1377 182.724 89.8287 186.179 Q87.5371 189.616 83.1795 189.616 Q78.8218 189.616 76.5128 186.179 Q74.2212 182.724 74.2212 176.179 Q74.2212 169.616 76.5128 166.179 Q78.8218 162.724 83.1795 162.724 Z" fill="#000000" fill-rule="nonzero" fill-opacity="1" /><path clip-path="url(#clip360)" d="M130.221 20.1758 Q131.633 17.8147 135.128 15.7314 Q136.494 14.9212 140.707 14.9212 Q145.429 14.9212 148.369 18.6712 Q151.332 22.4212 151.332 28.5323 Q151.332 34.6433 148.369 38.3933 Q145.429 42.1433 140.707 42.1433 Q137.86 42.1433 135.8 41.0322 Q133.763 39.8979 132.42 37.5831 L132.42 51.3331 L128.138 51.3331 L128.138 28.7637 Q128.138 23.4165 130.221 20.1758 M146.911 28.5323 Q146.911 23.8332 144.966 21.1712 Q143.045 18.486 139.665 18.486 Q136.286 18.486 134.341 21.1712 Q132.42 23.8332 132.42 28.5323 Q132.42 33.2313 134.341 35.9165 Q136.286 38.5785 139.665 38.5785 Q143.045 38.5785 144.966 35.9165 Q146.911 33.2313 146.911 28.5323 Z" fill="#000000" fill-rule="nonzero" fill-opacity="1" /><path clip-path="url(#clip362)" d="M184.494 569.156 L184.494 667.406 L298.482 667.406 L298.482 569.156 L184.494 569.156 L184.494 569.156  Z" fill="#009af9" fill-rule="evenodd" fill-opacity="1"/>
<polyline clip-path="url(#clip362)" style="stroke:#000000; stroke-linecap:round; stroke-linejoin:round; stroke-width:4; stroke-opacity:1; fill:none" points="184.494,569.156 184.494,667.406 298.482,667.406 298.482,569.156 184.494,569.156 "/>
<path clip-path="url(#clip362)" d="M298.482 637.931 L298.482 667.406 L412.47 667.406 L412.47 637.931 L298.482 637.931 L298.482 637.931  Z" fill="#009af9" fill-rule="evenodd" fill-opacity="1"/>
<polyline clip-path="url(#clip362)" style="stroke:#000000; stroke-linecap:round; stroke-linejoin:round; stroke-width:4; stroke-opacity:1; fill:none" points="298.482,637.931 298.482,667.406 412.47,667.406 412.47,637.931 298.482,637.931 "/>
<path clip-path="url(#clip362)" d="M412.47 294.054 L412.47 667.406 L526.459 667.406 L526.459 294.054 L412.47 294.054 L412.47 294.054  Z" fill="#009af9" fill-rule="evenodd" fill-opacity="1"/>
<polyline clip-path="url(#clip362)" style="stroke:#000000; stroke-linecap:round; stroke-linejoin:round; stroke-width:4; stroke-opacity:1; fill:none" points="412.47,294.054 412.47,667.406 526.459,667.406 526.459,294.054 412.47,294.054 "/>
<path clip-path="url(#clip362)" d="M526.459 97.5521 L526.459 667.406 L640.447 667.406 L640.447 97.5521 L526.459 97.5521 L526.459 97.5521  Z" fill="#009af9" fill-rule="evenodd" fill-opacity="1"/>
<polyline clip-path="url(#clip362)" style="stroke:#000000; stroke-linecap:round; stroke-linejoin:round; stroke-width:4; stroke-opacity:1; fill:none" points="526.459,97.5521 526.459,667.406 640.447,667.406 640.447,97.5521 526.459,97.5521 "/>
<path clip-path="url(#clip362)" d="M640.447 254.753 L640.447 667.406 L754.435 667.406 L754.435 254.753 L640.447 254.753 L640.447 254.753  Z" fill="#009af9" fill-rule="evenodd" fill-opacity="1"/>
<polyline clip-path="url(#clip362)" style="stroke:#000000; stroke-linecap:round; stroke-linejoin:round; stroke-width:4; stroke-opacity:1; fill:none" points="640.447,254.753 640.447,667.406 754.435,667.406 754.435,254.753 640.447,254.753 "/>
<path clip-path="url(#clip362)" d="M754.435 284.229 L754.435 667.406 L868.423 667.406 L868.423 284.229 L754.435 284.229 L754.435 284.229  Z" fill="#009af9" fill-rule="evenodd" fill-opacity="1"/>
<polyline clip-path="url(#clip362)" style="stroke:#000000; stroke-linecap:round; stroke-linejoin:round; stroke-width:4; stroke-opacity:1; fill:none" points="754.435,284.229 754.435,667.406 868.423,667.406 868.423,284.229 754.435,284.229 "/>
<path clip-path="url(#clip362)" d="M868.423 480.73 L868.423 667.406 L982.412 667.406 L982.412 480.73 L868.423 480.73 L868.423 480.73  Z" fill="#009af9" fill-rule="evenodd" fill-opacity="1"/>
<polyline clip-path="url(#clip362)" style="stroke:#000000; stroke-linecap:round; stroke-linejoin:round; stroke-width:4; stroke-opacity:1; fill:none" points="868.423,480.73 868.423,667.406 982.412,667.406 982.412,480.73 868.423,480.73 "/>
<path clip-path="url(#clip362)" d="M982.412 549.505 L982.412 667.406 L1096.4 667.406 L1096.4 549.505 L982.412 549.505 L982.412 549.505  Z" fill="#009af9" fill-rule="evenodd" fill-opacity="1"/>
<polyline clip-path="url(#clip362)" style="stroke:#000000; stroke-linecap:round; stroke-linejoin:round; stroke-width:4; stroke-opacity:1; fill:none" points="982.412,549.505 982.412,667.406 1096.4,667.406 1096.4,549.505 982.412,549.505 "/>
<circle clip-path="url(#clip362)" style="fill:#009af9; stroke:none; fill-opacity:0" cx="241.488" cy="569.156" r="2"/>
<circle clip-path="url(#clip362)" style="fill:#009af9; stroke:none; fill-opacity:0" cx="355.476" cy="637.931" r="2"/>
<circle clip-path="url(#clip362)" style="fill:#009af9; stroke:none; fill-opacity:0" cx="469.464" cy="294.054" r="2"/>
<circle clip-path="url(#clip362)" style="fill:#009af9; stroke:none; fill-opacity:0" cx="583.453" cy="97.5521" r="2"/>
<circle clip-path="url(#clip362)" style="fill:#009af9; stroke:none; fill-opacity:0" cx="697.441" cy="254.753" r="2"/>
<circle clip-path="url(#clip362)" style="fill:#009af9; stroke:none; fill-opacity:0" cx="811.429" cy="284.229" r="2"/>
<circle clip-path="url(#clip362)" style="fill:#009af9; stroke:none; fill-opacity:0" cx="925.418" cy="480.73" r="2"/>
<circle clip-path="url(#clip362)" style="fill:#009af9; stroke:none; fill-opacity:0" cx="1039.41" cy="549.505" r="2"/>
<polyline clip-path="url(#clip362)" style="stroke:#ff0000; stroke-linecap:round; stroke-linejoin:round; stroke-width:8; stroke-opacity:1; fill:none" stroke-dasharray="32, 20" points="603.172,1237.26 603.172,-472.302 "/>
<polyline clip-path="url(#clip362)" style="stroke:#ff0000; stroke-linecap:round; stroke-linejoin:round; stroke-width:6; stroke-opacity:1; fill:none" stroke-dasharray="24, 12, 3, 12" points="264.488,1237.26 264.488,-472.302 "/>
<polyline clip-path="url(#clip362)" style="stroke:#ff0000; stroke-linecap:round; stroke-linejoin:round; stroke-width:6; stroke-opacity:1; fill:none" stroke-dasharray="24, 12, 3, 12" points="1044.06,1237.26 1044.06,-472.302 "/>
<path clip-path="url(#clip360)" d="M1328.14 667.406 L2352.76 667.406 L2352.76 97.5521 L1328.14 97.5521  Z" fill="#ffffff" fill-rule="evenodd" fill-opacity="1"/>
<defs>
  <clipPath id="clip363">
    <rect x="1328" y="97" width="1026" height="571"/>
  </clipPath>
</defs>
<polyline clip-path="url(#clip363)" style="stroke:#000000; stroke-linecap:round; stroke-linejoin:round; stroke-width:2; stroke-opacity:0.1; fill:none" points="1514.77,667.406 1514.77,97.5521 "/>
<polyline clip-path="url(#clip363)" style="stroke:#000000; stroke-linecap:round; stroke-linejoin:round; stroke-width:2; stroke-opacity:0.1; fill:none" points="1775.31,667.406 1775.31,97.5521 "/>
<polyline clip-path="url(#clip363)" style="stroke:#000000; stroke-linecap:round; stroke-linejoin:round; stroke-width:2; stroke-opacity:0.1; fill:none" points="2035.86,667.406 2035.86,97.5521 "/>
<polyline clip-path="url(#clip363)" style="stroke:#000000; stroke-linecap:round; stroke-linejoin:round; stroke-width:2; stroke-opacity:0.1; fill:none" points="2296.4,667.406 2296.4,97.5521 "/>
<polyline clip-path="url(#clip363)" style="stroke:#000000; stroke-linecap:round; stroke-linejoin:round; stroke-width:2; stroke-opacity:0.1; fill:none" points="1328.14,667.406 2352.76,667.406 "/>
<polyline clip-path="url(#clip363)" style="stroke:#000000; stroke-linecap:round; stroke-linejoin:round; stroke-width:2; stroke-opacity:0.1; fill:none" points="1328.14,565.647 2352.76,565.647 "/>
<polyline clip-path="url(#clip363)" style="stroke:#000000; stroke-linecap:round; stroke-linejoin:round; stroke-width:2; stroke-opacity:0.1; fill:none" points="1328.14,463.887 2352.76,463.887 "/>
<polyline clip-path="url(#clip363)" style="stroke:#000000; stroke-linecap:round; stroke-linejoin:round; stroke-width:2; stroke-opacity:0.1; fill:none" points="1328.14,362.127 2352.76,362.127 "/>
<polyline clip-path="url(#clip363)" style="stroke:#000000; stroke-linecap:round; stroke-linejoin:round; stroke-width:2; stroke-opacity:0.1; fill:none" points="1328.14,260.368 2352.76,260.368 "/>
<polyline clip-path="url(#clip363)" style="stroke:#000000; stroke-linecap:round; stroke-linejoin:round; stroke-width:2; stroke-opacity:0.1; fill:none" points="1328.14,158.608 2352.76,158.608 "/>
<polyline clip-path="url(#clip360)" style="stroke:#000000; stroke-linecap:round; stroke-linejoin:round; stroke-width:4; stroke-opacity:1; fill:none" points="1328.14,667.406 2352.76,667.406 "/>
<polyline clip-path="url(#clip360)" style="stroke:#000000; stroke-linecap:round; stroke-linejoin:round; stroke-width:4; stroke-opacity:1; fill:none" points="1514.77,667.406 1514.77,648.509 "/>
<polyline clip-path="url(#clip360)" style="stroke:#000000; stroke-linecap:round; stroke-linejoin:round; stroke-width:4; stroke-opacity:1; fill:none" points="1775.31,667.406 1775.31,648.509 "/>
<polyline clip-path="url(#clip360)" style="stroke:#000000; stroke-linecap:round; stroke-linejoin:round; stroke-width:4; stroke-opacity:1; fill:none" points="2035.86,667.406 2035.86,648.509 "/>
<polyline clip-path="url(#clip360)" style="stroke:#000000; stroke-linecap:round; stroke-linejoin:round; stroke-width:4; stroke-opacity:1; fill:none" points="2296.4,667.406 2296.4,648.509 "/>
<path clip-path="url(#clip360)" d="M1460.92 739.139 Q1459 741.054 1459.92 743.914 Q1460.84 746.75 1464.62 750.531 Q1468.39 754.3 1471.24 755.233 Q1474.09 756.141 1476 754.226 Q1477.93 752.299 1477.01 749.463 Q1476.09 746.603 1472.32 742.834 Q1468.54 739.053 1465.69 738.144 Q1462.84 737.211 1460.92 739.139 M1458.95 737.175 Q1462.03 734.093 1466.1 734.916 Q1470.16 735.714 1474.8 740.354 Q1479.43 744.982 1480.24 749.058 Q1481.05 753.109 1477.97 756.19 Q1474.89 759.272 1470.82 758.474 Q1466.76 757.651 1462.13 753.023 Q1457.49 748.383 1456.68 744.332 Q1455.87 740.256 1458.95 737.175 Z" fill="#000000" fill-rule="nonzero" fill-opacity="1" /><path clip-path="url(#clip360)" d="M1485.19 742.024 L1487.78 739.433 L1490.9 742.552 L1488.3 745.142 L1485.19 742.024 Z" fill="#000000" fill-rule="nonzero" fill-opacity="1" /><path clip-path="url(#clip360)" d="M1493.93 719.755 Q1496.09 718.355 1498.29 718.564 Q1500.49 718.761 1502.26 720.528 Q1504.98 723.241 1504.6 726.593 Q1504.21 729.944 1500.78 733.381 Q1499.62 734.535 1498.16 735.53 Q1496.73 736.524 1494.97 737.371 L1492.58 734.977 Q1494.21 734.548 1495.74 733.627 Q1497.28 732.706 1498.62 731.368 Q1500.95 729.036 1501.24 726.9 Q1501.55 724.751 1499.8 722.996 Q1498.17 721.375 1496.12 721.609 Q1494.07 721.817 1492.05 723.843 L1489.91 725.979 L1487.88 723.941 L1490.11 721.707 Q1491.94 719.878 1492.18 718.184 Q1492.42 716.477 1491.04 715.102 Q1489.63 713.69 1487.88 713.948 Q1486.12 714.182 1484.25 716.047 Q1483.23 717.066 1482.29 718.454 Q1481.34 719.841 1480.41 721.707 L1478.2 719.497 Q1479.22 717.692 1480.25 716.268 Q1481.3 714.832 1482.39 713.74 Q1485.21 710.916 1488.15 710.56 Q1491.07 710.192 1493.25 712.377 Q1494.77 713.899 1494.96 715.827 Q1495.13 717.742 1493.93 719.755 Z" fill="#000000" fill-rule="nonzero" fill-opacity="1" /><path clip-path="url(#clip360)" d="M1500.9 699.156 Q1498.99 701.071 1499.91 703.931 Q1500.83 706.767 1504.61 710.548 Q1508.38 714.317 1511.22 715.25 Q1514.07 716.158 1515.99 714.243 Q1517.91 712.316 1516.99 709.48 Q1516.07 706.619 1512.3 702.851 Q1508.52 699.07 1505.68 698.161 Q1502.83 697.228 1500.9 699.156 M1498.94 697.191 Q1502.02 694.11 1506.08 694.933 Q1510.14 695.731 1514.78 700.371 Q1519.41 704.999 1520.22 709.075 Q1521.03 713.126 1517.95 716.207 Q1514.87 719.288 1510.81 718.49 Q1506.74 717.668 1502.12 713.04 Q1497.48 708.399 1496.66 704.348 Q1495.85 700.273 1498.94 697.191 Z" fill="#000000" fill-rule="nonzero" fill-opacity="1" /><path clip-path="url(#clip360)" d="M1722.31 738.292 Q1720.39 740.207 1721.31 743.067 Q1722.23 745.903 1726.02 749.684 Q1729.78 753.453 1732.63 754.386 Q1735.48 755.294 1737.4 753.379 Q1739.32 751.452 1738.4 748.616 Q1737.48 745.756 1733.71 741.987 Q1729.93 738.206 1727.08 737.297 Q1724.24 736.364 1722.31 738.292 M1720.34 736.328 Q1723.43 733.246 1727.49 734.069 Q1731.55 734.867 1736.19 739.507 Q1740.82 744.135 1741.63 748.211 Q1742.44 752.262 1739.36 755.343 Q1736.28 758.425 1732.22 757.627 Q1728.15 756.804 1723.52 752.176 Q1718.88 747.536 1718.07 743.485 Q1717.26 739.409 1720.34 736.328 Z" fill="#000000" fill-rule="nonzero" fill-opacity="1" /><path clip-path="url(#clip360)" d="M1746.58 741.177 L1749.17 738.586 L1752.29 741.705 L1749.7 744.295 L1746.58 741.177 Z" fill="#000000" fill-rule="nonzero" fill-opacity="1" /><path clip-path="url(#clip360)" d="M1755.32 718.908 Q1757.48 717.508 1759.68 717.717 Q1761.89 717.913 1763.65 719.681 Q1766.37 722.394 1765.99 725.746 Q1765.61 729.097 1762.17 732.534 Q1761.02 733.688 1759.55 734.683 Q1758.12 735.677 1756.36 736.524 L1753.97 734.13 Q1755.6 733.701 1757.14 732.78 Q1758.67 731.859 1760.01 730.521 Q1762.34 728.189 1762.64 726.053 Q1762.94 723.904 1761.19 722.149 Q1759.57 720.528 1757.52 720.762 Q1755.47 720.97 1753.44 722.996 L1751.3 725.132 L1749.27 723.094 L1751.5 720.86 Q1753.33 719.031 1753.58 717.336 Q1753.81 715.63 1752.43 714.255 Q1751.02 712.843 1749.27 713.101 Q1747.51 713.334 1745.65 715.2 Q1744.63 716.219 1743.68 717.607 Q1742.74 718.994 1741.8 720.86 L1739.59 718.65 Q1740.61 716.845 1741.64 715.421 Q1742.69 713.985 1743.78 712.893 Q1746.6 710.069 1749.54 709.713 Q1752.46 709.345 1754.64 711.53 Q1756.17 713.052 1756.35 714.979 Q1756.52 716.895 1755.32 718.908 Z" fill="#000000" fill-rule="nonzero" fill-opacity="1" /><path clip-path="url(#clip360)" d="M1773.73 716.084 L1782.39 707.43 L1784.47 709.517 L1772.84 721.154 L1770.75 719.067 Q1770.7 716.195 1770.68 711.309 Q1770.65 706.398 1770.57 705.06 Q1770.42 702.532 1769.96 701.144 Q1769.51 699.733 1768.61 698.836 Q1767.15 697.376 1765.2 697.486 Q1763.26 697.584 1761.62 699.229 Q1760.45 700.395 1759.55 702.102 Q1758.67 703.796 1758.02 706.092 L1755.52 703.587 Q1756.41 701.488 1757.41 699.88 Q1758.4 698.272 1759.48 697.191 Q1762.33 694.343 1765.45 694.073 Q1768.56 693.803 1770.95 696.185 Q1772.08 697.314 1772.67 698.763 Q1773.25 700.187 1773.51 702.679 Q1773.56 703.342 1773.62 706.693 Q1773.67 710.032 1773.73 716.084 Z" fill="#000000" fill-rule="nonzero" fill-opacity="1" /><path clip-path="url(#clip360)" d="M1981.75 739.397 Q1979.83 741.312 1980.75 744.172 Q1981.67 747.008 1985.46 750.789 Q1989.22 754.558 1992.07 755.491 Q1994.92 756.399 1996.84 754.484 Q1998.76 752.557 1997.84 749.721 Q1996.92 746.86 1993.15 743.092 Q1989.37 739.311 1986.52 738.402 Q1983.68 737.469 1981.75 739.397 M1979.78 737.432 Q1982.87 734.351 1986.93 735.174 Q1990.99 735.972 1995.63 740.612 Q2000.26 745.24 2001.07 749.316 Q2001.88 753.367 1998.8 756.448 Q1995.72 759.529 1991.66 758.731 Q1987.59 757.909 1982.96 753.281 Q1978.32 748.641 1977.51 744.589 Q1976.7 740.514 1979.78 737.432 Z" fill="#000000" fill-rule="nonzero" fill-opacity="1" /><path clip-path="url(#clip360)" d="M2006.02 742.282 L2008.61 739.691 L2011.73 742.809 L2009.14 745.4 L2006.02 742.282 Z" fill="#000000" fill-rule="nonzero" fill-opacity="1" /><path clip-path="url(#clip360)" d="M2014.76 720.013 Q2016.92 718.613 2019.12 718.822 Q2021.33 719.018 2023.09 720.786 Q2025.81 723.499 2025.43 726.85 Q2025.05 730.202 2021.61 733.639 Q2020.46 734.793 2018.99 735.787 Q2017.56 736.782 2015.8 737.629 L2013.41 735.235 Q2015.04 734.805 2016.58 733.885 Q2018.11 732.964 2019.45 731.626 Q2021.78 729.293 2022.08 727.157 Q2022.38 725.009 2020.63 723.254 Q2019.01 721.633 2016.96 721.866 Q2014.91 722.075 2012.88 724.101 L2010.74 726.237 L2008.71 724.199 L2010.94 721.965 Q2012.77 720.135 2013.02 718.441 Q2013.25 716.735 2011.87 715.36 Q2010.46 713.948 2008.71 714.206 Q2006.95 714.439 2005.09 716.305 Q2004.07 717.324 2003.12 718.711 Q2002.18 720.099 2001.24 721.965 L1999.03 719.755 Q2000.05 717.95 2001.08 716.526 Q2002.13 715.09 2003.22 713.997 Q2006.04 711.174 2008.98 710.818 Q2011.9 710.45 2014.08 712.635 Q2015.61 714.157 2015.79 716.084 Q2015.96 717.999 2014.76 720.013 Z" fill="#000000" fill-rule="nonzero" fill-opacity="1" /><path clip-path="url(#clip360)" d="M2023.77 698.431 L2027.29 714.476 L2033.55 708.215 L2023.77 698.431 M2020.96 696.921 L2024.08 693.803 L2036.02 705.748 L2038.64 703.133 L2040.7 705.195 L2038.08 707.81 L2042.4 712.131 L2039.94 714.599 L2035.62 710.278 L2027.34 718.552 L2024.95 716.158 L2020.96 696.921 Z" fill="#000000" fill-rule="nonzero" fill-opacity="1" /><path clip-path="url(#clip360)" d="M2242.47 739.225 Q2240.55 741.14 2241.47 744 Q2242.39 746.836 2246.17 750.617 Q2249.94 754.386 2252.79 755.319 Q2255.64 756.227 2257.55 754.312 Q2259.48 752.385 2258.56 749.549 Q2257.64 746.689 2253.87 742.92 Q2250.09 739.139 2247.24 738.23 Q2244.39 737.297 2242.47 739.225 M2240.5 737.261 Q2243.58 734.179 2247.65 735.002 Q2251.71 735.8 2256.35 740.44 Q2260.98 745.068 2261.79 749.144 Q2262.6 753.195 2259.52 756.276 Q2256.44 759.358 2252.37 758.56 Q2248.31 757.737 2243.68 753.109 Q2239.04 748.469 2238.23 744.418 Q2237.42 740.342 2240.5 737.261 Z" fill="#000000" fill-rule="nonzero" fill-opacity="1" /><path clip-path="url(#clip360)" d="M2266.73 742.11 L2269.33 739.519 L2272.44 742.638 L2269.85 745.228 L2266.73 742.11 Z" fill="#000000" fill-rule="nonzero" fill-opacity="1" /><path clip-path="url(#clip360)" d="M2275.48 719.841 Q2277.64 718.441 2279.83 718.65 Q2282.04 718.846 2283.81 720.614 Q2286.52 723.327 2286.14 726.679 Q2285.76 730.03 2282.33 733.467 Q2281.17 734.621 2279.71 735.616 Q2278.27 736.61 2276.52 737.457 L2274.13 735.063 Q2275.76 734.634 2277.29 733.713 Q2278.83 732.792 2280.16 731.454 Q2282.5 729.122 2282.79 726.985 Q2283.1 724.837 2281.34 723.082 Q2279.72 721.461 2277.67 721.695 Q2275.62 721.903 2273.6 723.929 L2271.46 726.065 L2269.42 724.027 L2271.66 721.793 Q2273.49 719.964 2273.73 718.269 Q2273.97 716.563 2272.59 715.188 Q2271.18 713.776 2269.42 714.034 Q2267.67 714.267 2265.8 716.133 Q2264.78 717.152 2263.84 718.54 Q2262.89 719.927 2261.96 721.793 L2259.75 719.583 Q2260.77 717.778 2261.8 716.354 Q2262.84 714.918 2263.94 713.826 Q2266.76 711.002 2269.69 710.646 Q2272.62 710.278 2274.8 712.463 Q2276.32 713.985 2276.51 715.912 Q2276.68 717.828 2275.48 719.841 Z" fill="#000000" fill-rule="nonzero" fill-opacity="1" /><path clip-path="url(#clip360)" d="M2289.3 705.478 Q2287.63 707.147 2287.79 709.271 Q2287.96 711.383 2289.95 713.371 Q2291.93 715.348 2294.05 715.532 Q2296.17 715.691 2297.84 714.022 Q2299.51 712.352 2299.34 710.241 Q2299.17 708.105 2297.19 706.128 Q2295.2 704.14 2293.08 703.98 Q2290.97 703.808 2289.3 705.478 M2286.45 692.784 L2288.71 695.043 Q2287.33 695.534 2286.14 696.258 Q2284.96 696.97 2284.03 697.903 Q2281.58 700.359 2281.93 703.317 Q2282.3 706.263 2285.47 709.799 Q2285.12 708.007 2285.65 706.349 Q2286.17 704.68 2287.48 703.366 Q2290.24 700.604 2293.52 700.69 Q2296.8 700.751 2299.68 703.636 Q2302.51 706.46 2302.54 709.836 Q2302.58 713.212 2299.81 715.986 Q2296.63 719.166 2292.51 718.417 Q2288.39 717.656 2283.76 713.028 Q2279.42 708.682 2278.9 704.041 Q2278.37 699.389 2281.85 695.915 Q2282.78 694.982 2283.91 694.221 Q2285.05 693.447 2286.45 692.784 Z" fill="#000000" fill-rule="nonzero" fill-opacity="1" /><polyline clip-path="url(#clip360)" style="stroke:#000000; stroke-linecap:round; stroke-linejoin:round; stroke-width:4; stroke-opacity:1; fill:none" points="1328.14,667.406 1328.14,97.5521 "/>
<polyline clip-path="url(#clip360)" style="stroke:#000000; stroke-linecap:round; stroke-linejoin:round; stroke-width:4; stroke-opacity:1; fill:none" points="1328.14,667.406 1347.04,667.406 "/>
<polyline clip-path="url(#clip360)" style="stroke:#000000; stroke-linecap:round; stroke-linejoin:round; stroke-width:4; stroke-opacity:1; fill:none" points="1328.14,565.647 1347.04,565.647 "/>
<polyline clip-path="url(#clip360)" style="stroke:#000000; stroke-linecap:round; stroke-linejoin:round; stroke-width:4; stroke-opacity:1; fill:none" points="1328.14,463.887 1347.04,463.887 "/>
<polyline clip-path="url(#clip360)" style="stroke:#000000; stroke-linecap:round; stroke-linejoin:round; stroke-width:4; stroke-opacity:1; fill:none" points="1328.14,362.127 1347.04,362.127 "/>
<polyline clip-path="url(#clip360)" style="stroke:#000000; stroke-linecap:round; stroke-linejoin:round; stroke-width:4; stroke-opacity:1; fill:none" points="1328.14,260.368 1347.04,260.368 "/>
<polyline clip-path="url(#clip360)" style="stroke:#000000; stroke-linecap:round; stroke-linejoin:round; stroke-width:4; stroke-opacity:1; fill:none" points="1328.14,158.608 1347.04,158.608 "/>
<path clip-path="url(#clip360)" d="M1283.18 656.755 Q1280.47 656.755 1279.1 659.429 Q1277.75 662.085 1277.75 667.432 Q1277.75 672.762 1279.1 675.436 Q1280.47 678.092 1283.18 678.092 Q1285.91 678.092 1287.26 675.436 Q1288.63 672.762 1288.63 667.432 Q1288.63 662.085 1287.26 659.429 Q1285.91 656.755 1283.18 656.755 M1283.18 653.978 Q1287.54 653.978 1289.83 657.432 Q1292.14 660.87 1292.14 667.432 Q1292.14 673.978 1289.83 677.432 Q1287.54 680.87 1283.18 680.87 Q1278.82 680.87 1276.51 677.432 Q1274.22 673.978 1274.22 667.432 Q1274.22 660.87 1276.51 657.432 Q1278.82 653.978 1283.18 653.978 Z" fill="#000000" fill-rule="nonzero" fill-opacity="1" /><path clip-path="url(#clip360)" d="M1253.67 575.655 L1259.39 575.655 L1259.39 555.881 L1253.16 557.131 L1253.16 553.937 L1259.36 552.687 L1262.87 552.687 L1262.87 575.655 L1268.6 575.655 L1268.6 578.607 L1253.67 578.607 L1253.67 575.655 Z" fill="#000000" fill-rule="nonzero" fill-opacity="1" /><path clip-path="url(#clip360)" d="M1283.18 554.996 Q1280.47 554.996 1279.1 557.669 Q1277.75 560.326 1277.75 565.673 Q1277.75 571.003 1279.1 573.676 Q1280.47 576.332 1283.18 576.332 Q1285.91 576.332 1287.26 573.676 Q1288.63 571.003 1288.63 565.673 Q1288.63 560.326 1287.26 557.669 Q1285.91 554.996 1283.18 554.996 M1283.18 552.218 Q1287.54 552.218 1289.83 555.673 Q1292.14 559.11 1292.14 565.673 Q1292.14 572.218 1289.83 575.673 Q1287.54 579.11 1283.18 579.11 Q1278.82 579.11 1276.51 575.673 Q1274.22 572.218 1274.22 565.673 Q1274.22 559.11 1276.51 555.673 Q1278.82 552.218 1283.18 552.218 Z" fill="#000000" fill-rule="nonzero" fill-opacity="1" /><path clip-path="url(#clip360)" d="M1256.08 473.896 L1268.32 473.896 L1268.32 476.847 L1251.86 476.847 L1251.86 473.896 Q1253.86 471.83 1257.29 468.357 Q1260.75 464.868 1261.63 463.861 Q1263.32 461.969 1263.98 460.667 Q1264.66 459.347 1264.66 458.08 Q1264.66 456.014 1263.2 454.712 Q1261.76 453.41 1259.43 453.41 Q1257.78 453.41 1255.94 453.983 Q1254.12 454.555 1252.03 455.719 L1252.03 452.177 Q1254.15 451.326 1255.99 450.892 Q1257.83 450.458 1259.36 450.458 Q1263.39 450.458 1265.78 452.472 Q1268.18 454.486 1268.18 457.854 Q1268.18 459.451 1267.57 460.892 Q1266.98 462.316 1265.4 464.26 Q1264.97 464.764 1262.64 467.177 Q1260.31 469.573 1256.08 473.896 Z" fill="#000000" fill-rule="nonzero" fill-opacity="1" /><path clip-path="url(#clip360)" d="M1283.18 453.236 Q1280.47 453.236 1279.1 455.91 Q1277.75 458.566 1277.75 463.913 Q1277.75 469.243 1279.1 471.916 Q1280.47 474.573 1283.18 474.573 Q1285.91 474.573 1287.26 471.916 Q1288.63 469.243 1288.63 463.913 Q1288.63 458.566 1287.26 455.91 Q1285.91 453.236 1283.18 453.236 M1283.18 450.458 Q1287.54 450.458 1289.83 453.913 Q1292.14 457.351 1292.14 463.913 Q1292.14 470.458 1289.83 473.913 Q1287.54 477.35 1283.18 477.35 Q1278.82 477.35 1276.51 473.913 Q1274.22 470.458 1274.22 463.913 Q1274.22 457.351 1276.51 453.913 Q1278.82 450.458 1283.18 450.458 Z" fill="#000000" fill-rule="nonzero" fill-opacity="1" /><path clip-path="url(#clip360)" d="M1263.68 361.112 Q1266.2 361.65 1267.61 363.351 Q1269.03 365.053 1269.03 367.553 Q1269.03 371.389 1266.39 373.49 Q1263.75 375.591 1258.89 375.591 Q1257.26 375.591 1255.52 375.261 Q1253.8 374.948 1251.96 374.306 L1251.96 370.921 Q1253.42 371.771 1255.16 372.205 Q1256.89 372.639 1258.79 372.639 Q1262.09 372.639 1263.8 371.337 Q1265.54 370.035 1265.54 367.553 Q1265.54 365.261 1263.93 363.976 Q1262.33 362.674 1259.46 362.674 L1256.44 362.674 L1256.44 359.792 L1259.6 359.792 Q1262.19 359.792 1263.56 358.768 Q1264.93 357.726 1264.93 355.782 Q1264.93 353.785 1263.51 352.726 Q1262.1 351.65 1259.46 351.65 Q1258.02 351.65 1256.37 351.962 Q1254.72 352.275 1252.75 352.935 L1252.75 349.81 Q1254.74 349.254 1256.48 348.976 Q1258.23 348.699 1259.78 348.699 Q1263.77 348.699 1266.1 350.521 Q1268.42 352.327 1268.42 355.417 Q1268.42 357.57 1267.19 359.063 Q1265.96 360.539 1263.68 361.112 Z" fill="#000000" fill-rule="nonzero" fill-opacity="1" /><path clip-path="url(#clip360)" d="M1283.18 351.476 Q1280.47 351.476 1279.1 354.15 Q1277.75 356.806 1277.75 362.153 Q1277.75 367.483 1279.1 370.157 Q1280.47 372.813 1283.18 372.813 Q1285.91 372.813 1287.26 370.157 Q1288.63 367.483 1288.63 362.153 Q1288.63 356.806 1287.26 354.15 Q1285.91 351.476 1283.18 351.476 M1283.18 348.699 Q1287.54 348.699 1289.83 352.153 Q1292.14 355.591 1292.14 362.153 Q1292.14 368.698 1289.83 372.153 Q1287.54 375.591 1283.18 375.591 Q1278.82 375.591 1276.51 372.153 Q1274.22 368.698 1274.22 362.153 Q1274.22 355.591 1276.51 352.153 Q1278.82 348.699 1283.18 348.699 Z" fill="#000000" fill-rule="nonzero" fill-opacity="1" /><path clip-path="url(#clip360)" d="M1262.69 250.463 L1253.84 264.3 L1262.69 264.3 L1262.69 250.463 M1261.77 247.408 L1266.18 247.408 L1266.18 264.3 L1269.88 264.3 L1269.88 267.217 L1266.18 267.217 L1266.18 273.328 L1262.69 273.328 L1262.69 267.217 L1250.99 267.217 L1250.99 263.831 L1261.77 247.408 Z" fill="#000000" fill-rule="nonzero" fill-opacity="1" /><path clip-path="url(#clip360)" d="M1283.18 249.717 Q1280.47 249.717 1279.1 252.39 Q1277.75 255.046 1277.75 260.394 Q1277.75 265.723 1279.1 268.397 Q1280.47 271.053 1283.18 271.053 Q1285.91 271.053 1287.26 268.397 Q1288.63 265.723 1288.63 260.394 Q1288.63 255.046 1287.26 252.39 Q1285.91 249.717 1283.18 249.717 M1283.18 246.939 Q1287.54 246.939 1289.83 250.394 Q1292.14 253.831 1292.14 260.394 Q1292.14 266.939 1289.83 270.394 Q1287.54 273.831 1283.18 273.831 Q1278.82 273.831 1276.51 270.394 Q1274.22 266.939 1274.22 260.394 Q1274.22 253.831 1276.51 250.394 Q1278.82 246.939 1283.18 246.939 Z" fill="#000000" fill-rule="nonzero" fill-opacity="1" /><path clip-path="url(#clip360)" d="M1253.09 145.648 L1266.86 145.648 L1266.86 148.599 L1256.3 148.599 L1256.3 154.953 Q1257.07 154.693 1257.83 154.571 Q1258.6 154.433 1259.36 154.433 Q1263.7 154.433 1266.24 156.811 Q1268.77 159.19 1268.77 163.252 Q1268.77 167.436 1266.17 169.762 Q1263.56 172.071 1258.82 172.071 Q1257.19 172.071 1255.49 171.794 Q1253.8 171.516 1252 170.96 L1252 167.436 Q1253.56 168.287 1255.23 168.703 Q1256.89 169.12 1258.75 169.12 Q1261.76 169.12 1263.51 167.54 Q1265.26 165.96 1265.26 163.252 Q1265.26 160.544 1263.51 158.964 Q1261.76 157.384 1258.75 157.384 Q1257.35 157.384 1255.94 157.696 Q1254.55 158.009 1253.09 158.669 L1253.09 145.648 Z" fill="#000000" fill-rule="nonzero" fill-opacity="1" /><path clip-path="url(#clip360)" d="M1283.18 147.957 Q1280.47 147.957 1279.1 150.631 Q1277.75 153.287 1277.75 158.634 Q1277.75 163.964 1279.1 166.637 Q1280.47 169.294 1283.18 169.294 Q1285.91 169.294 1287.26 166.637 Q1288.63 163.964 1288.63 158.634 Q1288.63 153.287 1287.26 150.631 Q1285.91 147.957 1283.18 147.957 M1283.18 145.179 Q1287.54 145.179 1289.83 148.634 Q1292.14 152.072 1292.14 158.634 Q1292.14 165.179 1289.83 168.634 Q1287.54 172.071 1283.18 172.071 Q1278.82 172.071 1276.51 168.634 Q1274.22 165.179 1274.22 158.634 Q1274.22 152.072 1276.51 148.634 Q1278.82 145.179 1283.18 145.179 Z" fill="#000000" fill-rule="nonzero" fill-opacity="1" /><path clip-path="url(#clip360)" d="M1340.04 18.9258 Q1336.52 18.9258 1334.62 21.4721 Q1332.63 24.1341 1332.63 28.5323 Q1332.63 33.185 1334.6 35.8702 Q1336.59 38.5322 1340.04 38.5322 Q1343.44 38.5322 1345.43 35.847 Q1347.42 33.1619 1347.42 28.5323 Q1347.42 24.2962 1345.43 21.4721 Q1343.6 18.9258 1340.04 18.9258 M1340.04 15.5462 L1354.18 15.5462 L1354.18 19.8054 L1349.41 19.8054 Q1351.93 23.4165 1351.93 28.5323 Q1351.93 34.898 1348.76 38.5091 Q1345.59 42.1433 1340.04 42.1433 Q1334.46 42.1433 1331.31 38.5091 Q1328.14 34.898 1328.14 28.5323 Q1328.14 22.1203 1331.31 18.5323 Q1333.92 15.5462 1340.04 15.5462 Z" fill="#000000" fill-rule="nonzero" fill-opacity="1" /><path clip-path="url(#clip360)" d="M1378.35 19.6666 Q1377.49 19.3656 1376.63 19.1342 Q1374.34 18.5323 1371.89 18.5323 Q1367.65 18.5323 1365.29 20.824 Q1363.09 22.9536 1362.67 26.8656 L1378.35 26.8656 L1378.35 30.1989 L1362.67 30.1989 Q1363.09 34.1109 1365.29 36.2405 Q1367.65 38.5322 1371.89 38.5322 Q1374.85 38.5322 1376.63 37.9304 L1378.35 37.3517 L1378.35 41.2174 L1376.52 41.634 Q1374.11 42.1433 1371.63 42.1433 Q1365.43 42.1433 1361.82 38.5322 Q1358.18 34.9211 1358.18 28.5323 Q1358.18 22.1434 1361.82 18.5323 Q1365.43 14.9212 1371.63 14.9212 Q1373.97 14.9212 1376.52 15.4305 Q1377.44 15.6157 1378.35 15.8934 L1378.35 19.6666 Z" fill="#000000" fill-rule="nonzero" fill-opacity="1" /><path clip-path="url(#clip363)" d="M1384.49 443.535 L1384.49 667.406 L1514.77 667.406 L1514.77 443.535 L1384.49 443.535 L1384.49 443.535  Z" fill="#009af9" fill-rule="evenodd" fill-opacity="1"/>
<polyline clip-path="url(#clip363)" style="stroke:#000000; stroke-linecap:round; stroke-linejoin:round; stroke-width:4; stroke-opacity:1; fill:none" points="1384.49,443.535 1384.49,667.406 1514.77,667.406 1514.77,443.535 1384.49,443.535 "/>
<path clip-path="url(#clip363)" d="M1514.77 423.183 L1514.77 667.406 L1645.04 667.406 L1645.04 423.183 L1514.77 423.183 L1514.77 423.183  Z" fill="#009af9" fill-rule="evenodd" fill-opacity="1"/>
<polyline clip-path="url(#clip363)" style="stroke:#000000; stroke-linecap:round; stroke-linejoin:round; stroke-width:4; stroke-opacity:1; fill:none" points="1514.77,423.183 1514.77,667.406 1645.04,667.406 1645.04,423.183 1514.77,423.183 "/>
<path clip-path="url(#clip363)" d="M1645.04 138.256 L1645.04 667.406 L1775.31 667.406 L1775.31 138.256 L1645.04 138.256 L1645.04 138.256  Z" fill="#009af9" fill-rule="evenodd" fill-opacity="1"/>
<polyline clip-path="url(#clip363)" style="stroke:#000000; stroke-linecap:round; stroke-linejoin:round; stroke-width:4; stroke-opacity:1; fill:none" points="1645.04,138.256 1645.04,667.406 1775.31,667.406 1775.31,138.256 1645.04,138.256 "/>
<path clip-path="url(#clip363)" d="M1775.31 97.5521 L1775.31 667.406 L1905.58 667.406 L1905.58 97.5521 L1775.31 97.5521 L1775.31 97.5521  Z" fill="#009af9" fill-rule="evenodd" fill-opacity="1"/>
<polyline clip-path="url(#clip363)" style="stroke:#000000; stroke-linecap:round; stroke-linejoin:round; stroke-width:4; stroke-opacity:1; fill:none" points="1775.31,97.5521 1775.31,667.406 1905.58,667.406 1905.58,97.5521 1775.31,97.5521 "/>
<path clip-path="url(#clip363)" d="M1905.58 178.96 L1905.58 667.406 L2035.86 667.406 L2035.86 178.96 L1905.58 178.96 L1905.58 178.96  Z" fill="#009af9" fill-rule="evenodd" fill-opacity="1"/>
<polyline clip-path="url(#clip363)" style="stroke:#000000; stroke-linecap:round; stroke-linejoin:round; stroke-width:4; stroke-opacity:1; fill:none" points="1905.58,178.96 1905.58,667.406 2035.86,667.406 2035.86,178.96 1905.58,178.96 "/>
<path clip-path="url(#clip363)" d="M2035.86 535.119 L2035.86 667.406 L2166.13 667.406 L2166.13 535.119 L2035.86 535.119 L2035.86 535.119  Z" fill="#009af9" fill-rule="evenodd" fill-opacity="1"/>
<polyline clip-path="url(#clip363)" style="stroke:#000000; stroke-linecap:round; stroke-linejoin:round; stroke-width:4; stroke-opacity:1; fill:none" points="2035.86,535.119 2035.86,667.406 2166.13,667.406 2166.13,535.119 2035.86,535.119 "/>
<path clip-path="url(#clip363)" d="M2166.13 606.351 L2166.13 667.406 L2296.4 667.406 L2296.4 606.351 L2166.13 606.351 L2166.13 606.351  Z" fill="#009af9" fill-rule="evenodd" fill-opacity="1"/>
<polyline clip-path="url(#clip363)" style="stroke:#000000; stroke-linecap:round; stroke-linejoin:round; stroke-width:4; stroke-opacity:1; fill:none" points="2166.13,606.351 2166.13,667.406 2296.4,667.406 2296.4,606.351 2166.13,606.351 "/>
<circle clip-path="url(#clip363)" style="fill:#009af9; stroke:none; fill-opacity:0" cx="1449.63" cy="443.535" r="2"/>
<circle clip-path="url(#clip363)" style="fill:#009af9; stroke:none; fill-opacity:0" cx="1579.9" cy="423.183" r="2"/>
<circle clip-path="url(#clip363)" style="fill:#009af9; stroke:none; fill-opacity:0" cx="1710.17" cy="138.256" r="2"/>
<circle clip-path="url(#clip363)" style="fill:#009af9; stroke:none; fill-opacity:0" cx="1840.45" cy="97.5521" r="2"/>
<circle clip-path="url(#clip363)" style="fill:#009af9; stroke:none; fill-opacity:0" cx="1970.72" cy="178.96" r="2"/>
<circle clip-path="url(#clip363)" style="fill:#009af9; stroke:none; fill-opacity:0" cx="2100.99" cy="535.119" r="2"/>
<circle clip-path="url(#clip363)" style="fill:#009af9; stroke:none; fill-opacity:0" cx="2231.26" cy="606.351" r="2"/>
<polyline clip-path="url(#clip363)" style="stroke:#ff0000; stroke-linecap:round; stroke-linejoin:round; stroke-width:8; stroke-opacity:1; fill:none" stroke-dasharray="32, 20" points="1866.83,1237.26 1866.83,-472.302 "/>
<polyline clip-path="url(#clip363)" style="stroke:#ff0000; stroke-linecap:round; stroke-linejoin:round; stroke-width:6; stroke-opacity:1; fill:none" stroke-dasharray="24, 12, 3, 12" points="1414.64,1237.26 1414.64,-472.302 "/>
<polyline clip-path="url(#clip363)" style="stroke:#ff0000; stroke-linecap:round; stroke-linejoin:round; stroke-width:6; stroke-opacity:1; fill:none" stroke-dasharray="24, 12, 3, 12" points="2182.33,1237.26 2182.33,-472.302 "/>
<path clip-path="url(#clip360)" d="M128.138 1467.41 L1152.76 1467.41 L1152.76 897.552 L128.138 897.552  Z" fill="#ffffff" fill-rule="evenodd" fill-opacity="1"/>
<defs>
  <clipPath id="clip364">
    <rect x="128" y="897" width="1026" height="571"/>
  </clipPath>
</defs>
<polyline clip-path="url(#clip364)" style="stroke:#000000; stroke-linecap:round; stroke-linejoin:round; stroke-width:2; stroke-opacity:0.1; fill:none" points="285.817,1467.41 285.817,897.552 "/>
<polyline clip-path="url(#clip364)" style="stroke:#000000; stroke-linecap:round; stroke-linejoin:round; stroke-width:2; stroke-opacity:0.1; fill:none" points="488.462,1467.41 488.462,897.552 "/>
<polyline clip-path="url(#clip364)" style="stroke:#000000; stroke-linecap:round; stroke-linejoin:round; stroke-width:2; stroke-opacity:0.1; fill:none" points="691.108,1467.41 691.108,897.552 "/>
<polyline clip-path="url(#clip364)" style="stroke:#000000; stroke-linecap:round; stroke-linejoin:round; stroke-width:2; stroke-opacity:0.1; fill:none" points="893.754,1467.41 893.754,897.552 "/>
<polyline clip-path="url(#clip364)" style="stroke:#000000; stroke-linecap:round; stroke-linejoin:round; stroke-width:2; stroke-opacity:0.1; fill:none" points="1096.4,1467.41 1096.4,897.552 "/>
<polyline clip-path="url(#clip364)" style="stroke:#000000; stroke-linecap:round; stroke-linejoin:round; stroke-width:2; stroke-opacity:0.1; fill:none" points="128.138,1467.41 1152.76,1467.41 "/>
<polyline clip-path="url(#clip364)" style="stroke:#000000; stroke-linecap:round; stroke-linejoin:round; stroke-width:2; stroke-opacity:0.1; fill:none" points="128.138,1365.65 1152.76,1365.65 "/>
<polyline clip-path="url(#clip364)" style="stroke:#000000; stroke-linecap:round; stroke-linejoin:round; stroke-width:2; stroke-opacity:0.1; fill:none" points="128.138,1263.89 1152.76,1263.89 "/>
<polyline clip-path="url(#clip364)" style="stroke:#000000; stroke-linecap:round; stroke-linejoin:round; stroke-width:2; stroke-opacity:0.1; fill:none" points="128.138,1162.13 1152.76,1162.13 "/>
<polyline clip-path="url(#clip364)" style="stroke:#000000; stroke-linecap:round; stroke-linejoin:round; stroke-width:2; stroke-opacity:0.1; fill:none" points="128.138,1060.37 1152.76,1060.37 "/>
<polyline clip-path="url(#clip364)" style="stroke:#000000; stroke-linecap:round; stroke-linejoin:round; stroke-width:2; stroke-opacity:0.1; fill:none" points="128.138,958.608 1152.76,958.608 "/>
<polyline clip-path="url(#clip360)" style="stroke:#000000; stroke-linecap:round; stroke-linejoin:round; stroke-width:4; stroke-opacity:1; fill:none" points="128.138,1467.41 1152.76,1467.41 "/>
<polyline clip-path="url(#clip360)" style="stroke:#000000; stroke-linecap:round; stroke-linejoin:round; stroke-width:4; stroke-opacity:1; fill:none" points="285.817,1467.41 285.817,1448.51 "/>
<polyline clip-path="url(#clip360)" style="stroke:#000000; stroke-linecap:round; stroke-linejoin:round; stroke-width:4; stroke-opacity:1; fill:none" points="488.462,1467.41 488.462,1448.51 "/>
<polyline clip-path="url(#clip360)" style="stroke:#000000; stroke-linecap:round; stroke-linejoin:round; stroke-width:4; stroke-opacity:1; fill:none" points="691.108,1467.41 691.108,1448.51 "/>
<polyline clip-path="url(#clip360)" style="stroke:#000000; stroke-linecap:round; stroke-linejoin:round; stroke-width:4; stroke-opacity:1; fill:none" points="893.754,1467.41 893.754,1448.51 "/>
<polyline clip-path="url(#clip360)" style="stroke:#000000; stroke-linecap:round; stroke-linejoin:round; stroke-width:4; stroke-opacity:1; fill:none" points="1096.4,1467.41 1096.4,1448.51 "/>
<path clip-path="url(#clip360)" d="M232.311 1538.8 Q230.396 1540.71 231.317 1543.57 Q232.237 1546.41 236.019 1550.19 Q239.787 1553.96 242.635 1554.89 Q245.483 1555.8 247.398 1553.88 Q249.326 1551.96 248.405 1549.12 Q247.484 1546.26 243.716 1542.49 Q239.935 1538.71 237.087 1537.8 Q234.239 1536.87 232.311 1538.8 M230.347 1536.83 Q233.428 1533.75 237.492 1534.57 Q241.555 1535.37 246.195 1540.01 Q250.824 1544.64 251.634 1548.71 Q252.444 1552.77 249.363 1555.85 Q246.281 1558.93 242.218 1558.13 Q238.155 1557.31 233.526 1552.68 Q228.886 1548.04 228.076 1543.99 Q227.266 1539.91 230.347 1536.83 Z" fill="#000000" fill-rule="nonzero" fill-opacity="1" /><path clip-path="url(#clip360)" d="M256.581 1541.68 L259.171 1539.09 L262.289 1542.21 L259.699 1544.8 L256.581 1541.68 Z" fill="#000000" fill-rule="nonzero" fill-opacity="1" /><path clip-path="url(#clip360)" d="M249.387 1518.45 L259.122 1508.72 L261.209 1510.81 L253.745 1518.27 L258.238 1522.76 Q258.594 1522.04 259.048 1521.41 Q259.49 1520.77 260.031 1520.23 Q263.1 1517.16 266.574 1517.05 Q270.048 1516.94 272.92 1519.82 Q275.879 1522.77 275.683 1526.26 Q275.474 1529.74 272.123 1533.09 Q270.969 1534.24 269.569 1535.25 Q268.182 1536.24 266.512 1537.13 L264.02 1534.63 Q265.727 1534.13 267.2 1533.25 Q268.673 1532.36 269.986 1531.05 Q272.11 1528.93 272.233 1526.57 Q272.356 1524.21 270.441 1522.3 Q268.526 1520.38 266.169 1520.5 Q263.812 1520.63 261.688 1522.75 Q260.693 1523.74 259.92 1524.96 Q259.159 1526.16 258.594 1527.66 L249.387 1518.45 Z" fill="#000000" fill-rule="nonzero" fill-opacity="1" /><path clip-path="url(#clip360)" d="M281.317 1503.42 Q283.478 1502.02 285.675 1502.22 Q287.885 1502.42 289.653 1504.19 Q292.366 1506.9 291.985 1510.25 Q291.605 1513.6 288.167 1517.04 Q287.013 1518.2 285.553 1519.19 Q284.116 1520.18 282.361 1521.03 L279.967 1518.64 Q281.6 1518.21 283.134 1517.29 Q284.669 1516.37 286.007 1515.03 Q288.339 1512.7 288.634 1510.56 Q288.941 1508.41 287.185 1506.66 Q285.565 1505.04 283.515 1505.27 Q281.465 1505.48 279.439 1507.5 L277.303 1509.64 L275.265 1507.6 L277.499 1505.37 Q279.329 1503.54 279.574 1501.84 Q279.807 1500.14 278.432 1498.76 Q277.021 1497.35 275.265 1497.61 Q273.51 1497.84 271.644 1499.71 Q270.625 1500.73 269.68 1502.11 Q268.734 1503.5 267.801 1505.37 L265.592 1503.16 Q266.611 1501.35 267.642 1499.93 Q268.685 1498.49 269.778 1497.4 Q272.601 1494.58 275.535 1494.22 Q278.457 1493.85 280.642 1496.04 Q282.164 1497.56 282.349 1499.49 Q282.52 1501.4 281.317 1503.42 Z" fill="#000000" fill-rule="nonzero" fill-opacity="1" /><path clip-path="url(#clip360)" d="M434.356 1539.4 Q432.44 1541.31 433.361 1544.17 Q434.282 1547.01 438.063 1550.79 Q441.832 1554.56 444.68 1555.49 Q447.528 1556.4 449.443 1554.48 Q451.37 1552.56 450.449 1549.72 Q449.529 1546.86 445.76 1543.09 Q441.979 1539.31 439.131 1538.4 Q436.283 1537.47 434.356 1539.4 M432.391 1537.43 Q435.473 1534.35 439.536 1535.17 Q443.599 1535.97 448.24 1540.61 Q452.868 1545.24 453.678 1549.32 Q454.488 1553.37 451.407 1556.45 Q448.326 1559.53 444.262 1558.73 Q440.199 1557.91 435.571 1553.28 Q430.93 1548.64 430.12 1544.59 Q429.31 1540.51 432.391 1537.43 Z" fill="#000000" fill-rule="nonzero" fill-opacity="1" /><path clip-path="url(#clip360)" d="M458.625 1542.28 L461.216 1539.69 L464.334 1542.81 L461.743 1545.4 L458.625 1542.28 Z" fill="#000000" fill-rule="nonzero" fill-opacity="1" /><path clip-path="url(#clip360)" d="M451.432 1519.06 L461.167 1509.32 L463.253 1511.41 L455.79 1518.87 L460.283 1523.36 Q460.639 1522.64 461.093 1522.01 Q461.535 1521.38 462.075 1520.84 Q465.144 1517.77 468.618 1517.66 Q472.092 1517.55 474.965 1520.42 Q477.923 1523.38 477.727 1526.86 Q477.518 1530.34 474.167 1533.69 Q473.013 1534.84 471.613 1535.85 Q470.226 1536.84 468.557 1537.73 L466.065 1535.24 Q467.771 1534.73 469.244 1533.85 Q470.717 1532.96 472.031 1531.65 Q474.155 1529.53 474.277 1527.17 Q474.4 1524.81 472.485 1522.9 Q470.57 1520.98 468.213 1521.11 Q465.856 1521.23 463.732 1523.35 Q462.738 1524.35 461.964 1525.56 Q461.203 1526.76 460.639 1528.26 L451.432 1519.06 Z" fill="#000000" fill-rule="nonzero" fill-opacity="1" /><path clip-path="url(#clip360)" d="M476.377 1498.43 L479.9 1514.48 L486.161 1508.22 L476.377 1498.43 M473.565 1496.92 L476.683 1493.8 L488.628 1505.75 L491.243 1503.13 L493.305 1505.2 L490.691 1507.81 L495.012 1512.13 L492.544 1514.6 L488.223 1510.28 L479.949 1518.55 L477.555 1516.16 L473.565 1496.92 Z" fill="#000000" fill-rule="nonzero" fill-opacity="1" /><path clip-path="url(#clip360)" d="M637.787 1538.61 Q635.872 1540.53 636.793 1543.39 Q637.713 1546.22 641.494 1550 Q645.263 1553.77 648.111 1554.7 Q650.959 1555.61 652.874 1553.7 Q654.802 1551.77 653.881 1548.94 Q652.96 1546.07 649.192 1542.31 Q645.411 1538.53 642.562 1537.62 Q639.714 1536.68 637.787 1538.61 M635.823 1536.65 Q638.904 1533.57 642.968 1534.39 Q647.031 1535.19 651.671 1539.83 Q656.299 1544.45 657.11 1548.53 Q657.92 1552.58 654.839 1555.66 Q651.757 1558.74 647.694 1557.95 Q643.631 1557.12 639.002 1552.5 Q634.362 1547.85 633.552 1543.8 Q632.742 1539.73 635.823 1536.65 Z" fill="#000000" fill-rule="nonzero" fill-opacity="1" /><path clip-path="url(#clip360)" d="M662.057 1541.5 L664.647 1538.91 L667.765 1542.02 L665.175 1544.61 L662.057 1541.5 Z" fill="#000000" fill-rule="nonzero" fill-opacity="1" /><path clip-path="url(#clip360)" d="M654.863 1518.27 L664.598 1508.53 L666.685 1510.62 L659.221 1518.09 L663.714 1522.58 Q664.07 1521.85 664.524 1521.23 Q664.966 1520.59 665.507 1520.05 Q668.576 1516.98 672.05 1516.87 Q675.524 1516.76 678.396 1519.63 Q681.355 1522.59 681.159 1526.08 Q680.95 1529.55 677.598 1532.9 Q676.445 1534.06 675.045 1535.06 Q673.658 1536.06 671.988 1536.94 L669.496 1534.45 Q671.203 1533.95 672.676 1533.06 Q674.149 1532.18 675.462 1530.86 Q677.586 1528.74 677.709 1526.38 Q677.832 1524.03 675.917 1522.11 Q674.002 1520.2 671.645 1520.32 Q669.288 1520.44 667.164 1522.57 Q666.169 1523.56 665.396 1524.78 Q664.635 1525.98 664.07 1527.48 L654.863 1518.27 Z" fill="#000000" fill-rule="nonzero" fill-opacity="1" /><path clip-path="url(#clip360)" d="M670.859 1502.27 L680.594 1492.54 L682.681 1494.63 L675.217 1502.09 L679.71 1506.58 Q680.066 1505.86 680.52 1505.23 Q680.962 1504.59 681.502 1504.05 Q684.571 1500.98 688.045 1500.87 Q691.52 1500.76 694.392 1503.64 Q697.351 1506.59 697.154 1510.08 Q696.946 1513.56 693.594 1516.91 Q692.44 1518.06 691.041 1519.07 Q689.654 1520.06 687.984 1520.95 L685.492 1518.45 Q687.198 1517.95 688.671 1517.07 Q690.145 1516.18 691.458 1514.87 Q693.582 1512.75 693.705 1510.39 Q693.827 1508.03 691.912 1506.12 Q689.997 1504.2 687.64 1504.32 Q685.283 1504.45 683.16 1506.57 Q682.165 1507.56 681.392 1508.78 Q680.631 1509.98 680.066 1511.48 L670.859 1502.27 Z" fill="#000000" fill-rule="nonzero" fill-opacity="1" /><path clip-path="url(#clip360)" d="M839.819 1539.22 Q837.904 1541.14 838.825 1544 Q839.746 1546.84 843.527 1550.62 Q847.295 1554.39 850.143 1555.32 Q852.991 1556.23 854.906 1554.31 Q856.834 1552.38 855.913 1549.55 Q854.992 1546.69 851.224 1542.92 Q847.443 1539.14 844.595 1538.23 Q841.747 1537.3 839.819 1539.22 M837.855 1537.26 Q840.936 1534.18 845 1535 Q849.063 1535.8 853.703 1540.44 Q858.332 1545.07 859.142 1549.14 Q859.952 1553.19 856.871 1556.28 Q853.789 1559.36 849.726 1558.56 Q845.663 1557.74 841.035 1553.11 Q836.394 1548.47 835.584 1544.42 Q834.774 1540.34 837.855 1537.26 Z" fill="#000000" fill-rule="nonzero" fill-opacity="1" /><path clip-path="url(#clip360)" d="M864.089 1542.11 L866.679 1539.52 L869.797 1542.64 L867.207 1545.23 L864.089 1542.11 Z" fill="#000000" fill-rule="nonzero" fill-opacity="1" /><path clip-path="url(#clip360)" d="M856.895 1518.88 L866.63 1509.15 L868.717 1511.24 L861.253 1518.7 L865.746 1523.19 Q866.102 1522.47 866.557 1521.84 Q866.998 1521.2 867.539 1520.66 Q870.608 1517.59 874.082 1517.48 Q877.556 1517.37 880.428 1520.25 Q883.387 1523.2 883.191 1526.69 Q882.982 1530.17 879.631 1533.52 Q878.477 1534.67 877.077 1535.68 Q875.69 1536.67 874.02 1537.56 L871.528 1535.06 Q873.235 1534.56 874.708 1533.68 Q876.181 1532.79 877.495 1531.48 Q879.618 1529.35 879.741 1527 Q879.864 1524.64 877.949 1522.73 Q876.034 1520.81 873.677 1520.93 Q871.32 1521.06 869.196 1523.18 Q868.202 1524.17 867.428 1525.39 Q866.667 1526.59 866.102 1528.09 L856.895 1518.88 Z" fill="#000000" fill-rule="nonzero" fill-opacity="1" /><path clip-path="url(#clip360)" d="M886.652 1505.48 Q884.983 1507.15 885.143 1509.27 Q885.314 1511.38 887.303 1513.37 Q889.28 1515.35 891.403 1515.53 Q893.527 1515.69 895.197 1514.02 Q896.866 1512.35 896.694 1510.24 Q896.522 1508.1 894.546 1506.13 Q892.557 1504.14 890.434 1503.98 Q888.322 1503.81 886.652 1505.48 M883.804 1492.78 L886.063 1495.04 Q884.688 1495.53 883.498 1496.26 Q882.319 1496.97 881.386 1497.9 Q878.931 1500.36 879.287 1503.32 Q879.655 1506.26 882.822 1509.8 Q882.479 1508.01 883.006 1506.35 Q883.522 1504.68 884.836 1503.37 Q887.598 1500.6 890.875 1500.69 Q894.153 1500.75 897.038 1503.64 Q899.862 1506.46 899.898 1509.84 Q899.935 1513.21 897.161 1515.99 Q893.981 1519.17 889.869 1518.42 Q885.744 1517.66 881.116 1513.03 Q876.77 1508.68 876.255 1504.04 Q875.727 1499.39 879.201 1495.91 Q880.134 1494.98 881.263 1494.22 Q882.405 1493.45 883.804 1492.78 Z" fill="#000000" fill-rule="nonzero" fill-opacity="1" /><path clip-path="url(#clip360)" d="M1043.03 1538.66 Q1041.11 1540.58 1042.04 1543.44 Q1042.96 1546.27 1046.74 1550.05 Q1050.51 1553.82 1053.35 1554.75 Q1056.2 1555.66 1058.12 1553.75 Q1060.04 1551.82 1059.12 1548.98 Q1058.2 1546.12 1054.43 1542.36 Q1050.65 1538.57 1047.81 1537.67 Q1044.96 1536.73 1043.03 1538.66 M1041.07 1536.7 Q1044.15 1533.61 1048.21 1534.44 Q1052.27 1535.24 1056.91 1539.88 Q1061.54 1544.5 1062.35 1548.58 Q1063.16 1552.63 1060.08 1555.71 Q1057 1558.79 1052.94 1557.99 Q1048.87 1557.17 1044.25 1552.54 Q1039.6 1547.9 1038.79 1543.85 Q1037.98 1539.78 1041.07 1536.7 Z" fill="#000000" fill-rule="nonzero" fill-opacity="1" /><path clip-path="url(#clip360)" d="M1067.3 1541.54 L1069.89 1538.95 L1073.01 1542.07 L1070.42 1544.66 L1067.3 1541.54 Z" fill="#000000" fill-rule="nonzero" fill-opacity="1" /><path clip-path="url(#clip360)" d="M1060.11 1518.32 L1069.84 1508.58 L1071.93 1510.67 L1064.46 1518.13 L1068.96 1522.63 Q1069.31 1521.9 1069.77 1521.28 Q1070.21 1520.64 1070.75 1520.1 Q1073.82 1517.03 1077.29 1516.92 Q1080.77 1516.81 1083.64 1519.68 Q1086.6 1522.64 1086.4 1526.13 Q1086.19 1529.6 1082.84 1532.95 Q1081.69 1534.11 1080.29 1535.11 Q1078.9 1536.11 1077.23 1536.99 L1074.74 1534.5 Q1076.45 1534 1077.92 1533.11 Q1079.39 1532.23 1080.71 1530.91 Q1082.83 1528.79 1082.95 1526.43 Q1083.07 1524.08 1081.16 1522.16 Q1079.24 1520.25 1076.89 1520.37 Q1074.53 1520.49 1072.41 1522.62 Q1071.41 1523.61 1070.64 1524.82 Q1069.88 1526.03 1069.31 1527.53 L1060.11 1518.32 Z" fill="#000000" fill-rule="nonzero" fill-opacity="1" /><path clip-path="url(#clip360)" d="M1075.45 1502.97 L1087.24 1491.19 L1088.29 1492.24 L1098.91 1516.17 L1096.32 1518.76 L1086.34 1496.26 L1077.54 1505.06 L1075.45 1502.97 Z" fill="#000000" fill-rule="nonzero" fill-opacity="1" /><polyline clip-path="url(#clip360)" style="stroke:#000000; stroke-linecap:round; stroke-linejoin:round; stroke-width:4; stroke-opacity:1; fill:none" points="128.138,1467.41 128.138,897.552 "/>
<polyline clip-path="url(#clip360)" style="stroke:#000000; stroke-linecap:round; stroke-linejoin:round; stroke-width:4; stroke-opacity:1; fill:none" points="128.138,1467.41 147.035,1467.41 "/>
<polyline clip-path="url(#clip360)" style="stroke:#000000; stroke-linecap:round; stroke-linejoin:round; stroke-width:4; stroke-opacity:1; fill:none" points="128.138,1365.65 147.035,1365.65 "/>
<polyline clip-path="url(#clip360)" style="stroke:#000000; stroke-linecap:round; stroke-linejoin:round; stroke-width:4; stroke-opacity:1; fill:none" points="128.138,1263.89 147.035,1263.89 "/>
<polyline clip-path="url(#clip360)" style="stroke:#000000; stroke-linecap:round; stroke-linejoin:round; stroke-width:4; stroke-opacity:1; fill:none" points="128.138,1162.13 147.035,1162.13 "/>
<polyline clip-path="url(#clip360)" style="stroke:#000000; stroke-linecap:round; stroke-linejoin:round; stroke-width:4; stroke-opacity:1; fill:none" points="128.138,1060.37 147.035,1060.37 "/>
<polyline clip-path="url(#clip360)" style="stroke:#000000; stroke-linecap:round; stroke-linejoin:round; stroke-width:4; stroke-opacity:1; fill:none" points="128.138,958.608 147.035,958.608 "/>
<path clip-path="url(#clip360)" d="M83.1795 1456.76 Q80.4711 1456.76 79.0996 1459.43 Q77.7455 1462.09 77.7455 1467.43 Q77.7455 1472.76 79.0996 1475.44 Q80.4711 1478.09 83.1795 1478.09 Q85.9051 1478.09 87.2593 1475.44 Q88.6308 1472.76 88.6308 1467.43 Q88.6308 1462.09 87.2593 1459.43 Q85.9051 1456.76 83.1795 1456.76 M83.1795 1453.98 Q87.5371 1453.98 89.8287 1457.43 Q92.1377 1460.87 92.1377 1467.43 Q92.1377 1473.98 89.8287 1477.43 Q87.5371 1480.87 83.1795 1480.87 Q78.8218 1480.87 76.5128 1477.43 Q74.2212 1473.98 74.2212 1467.43 Q74.2212 1460.87 76.5128 1457.43 Q78.8218 1453.98 83.1795 1453.98 Z" fill="#000000" fill-rule="nonzero" fill-opacity="1" /><path clip-path="url(#clip360)" d="M53.6657 1375.66 L59.3949 1375.66 L59.3949 1355.88 L53.1623 1357.13 L53.1623 1353.94 L59.3601 1352.69 L62.8671 1352.69 L62.8671 1375.66 L68.5962 1375.66 L68.5962 1378.61 L53.6657 1378.61 L53.6657 1375.66 Z" fill="#000000" fill-rule="nonzero" fill-opacity="1" /><path clip-path="url(#clip360)" d="M83.1795 1355 Q80.4711 1355 79.0996 1357.67 Q77.7455 1360.33 77.7455 1365.67 Q77.7455 1371 79.0996 1373.68 Q80.4711 1376.33 83.1795 1376.33 Q85.9051 1376.33 87.2593 1373.68 Q88.6308 1371 88.6308 1365.67 Q88.6308 1360.33 87.2593 1357.67 Q85.9051 1355 83.1795 1355 M83.1795 1352.22 Q87.5371 1352.22 89.8287 1355.67 Q92.1377 1359.11 92.1377 1365.67 Q92.1377 1372.22 89.8287 1375.67 Q87.5371 1379.11 83.1795 1379.11 Q78.8218 1379.11 76.5128 1375.67 Q74.2212 1372.22 74.2212 1365.67 Q74.2212 1359.11 76.5128 1355.67 Q78.8218 1352.22 83.1795 1352.22 Z" fill="#000000" fill-rule="nonzero" fill-opacity="1" /><path clip-path="url(#clip360)" d="M56.0789 1273.9 L68.3184 1273.9 L68.3184 1276.85 L51.8602 1276.85 L51.8602 1273.9 Q53.8567 1271.83 57.2942 1268.36 Q60.749 1264.87 61.6344 1263.86 Q63.3184 1261.97 63.9782 1260.67 Q64.6552 1259.35 64.6552 1258.08 Q64.6552 1256.01 63.1969 1254.71 Q61.756 1253.41 59.4296 1253.41 Q57.7803 1253.41 55.94 1253.98 Q54.1171 1254.56 52.0338 1255.72 L52.0338 1252.18 Q54.1518 1251.33 55.9921 1250.89 Q57.8324 1250.46 59.3601 1250.46 Q63.3879 1250.46 65.7837 1252.47 Q68.1795 1254.49 68.1795 1257.85 Q68.1795 1259.45 67.5719 1260.89 Q66.9816 1262.32 65.4018 1264.26 Q64.9677 1264.76 62.6414 1267.18 Q60.315 1269.57 56.0789 1273.9 Z" fill="#000000" fill-rule="nonzero" fill-opacity="1" /><path clip-path="url(#clip360)" d="M83.1795 1253.24 Q80.4711 1253.24 79.0996 1255.91 Q77.7455 1258.57 77.7455 1263.91 Q77.7455 1269.24 79.0996 1271.92 Q80.4711 1274.57 83.1795 1274.57 Q85.9051 1274.57 87.2593 1271.92 Q88.6308 1269.24 88.6308 1263.91 Q88.6308 1258.57 87.2593 1255.91 Q85.9051 1253.24 83.1795 1253.24 M83.1795 1250.46 Q87.5371 1250.46 89.8287 1253.91 Q92.1377 1257.35 92.1377 1263.91 Q92.1377 1270.46 89.8287 1273.91 Q87.5371 1277.35 83.1795 1277.35 Q78.8218 1277.35 76.5128 1273.91 Q74.2212 1270.46 74.2212 1263.91 Q74.2212 1257.35 76.5128 1253.91 Q78.8218 1250.46 83.1795 1250.46 Z" fill="#000000" fill-rule="nonzero" fill-opacity="1" /><path clip-path="url(#clip360)" d="M63.683 1161.11 Q66.2004 1161.65 67.6066 1163.35 Q69.0302 1165.05 69.0302 1167.55 Q69.0302 1171.39 66.3913 1173.49 Q63.7525 1175.59 58.8914 1175.59 Q57.2595 1175.59 55.5234 1175.26 Q53.8046 1174.95 51.9643 1174.31 L51.9643 1170.92 Q53.4227 1171.77 55.1588 1172.21 Q56.8949 1172.64 58.7872 1172.64 Q62.0858 1172.64 63.8046 1171.34 Q65.5407 1170.04 65.5407 1167.55 Q65.5407 1165.26 63.9261 1163.98 Q62.3289 1162.67 59.4643 1162.67 L56.4435 1162.67 L56.4435 1159.79 L59.6032 1159.79 Q62.19 1159.79 63.5615 1158.77 Q64.933 1157.73 64.933 1155.78 Q64.933 1153.79 63.5094 1152.73 Q62.1032 1151.65 59.4643 1151.65 Q58.0233 1151.65 56.374 1151.96 Q54.7247 1152.27 52.7456 1152.93 L52.7456 1149.81 Q54.7421 1149.25 56.4782 1148.98 Q58.2317 1148.7 59.7768 1148.7 Q63.7698 1148.7 66.0962 1150.52 Q68.4226 1152.33 68.4226 1155.42 Q68.4226 1157.57 67.19 1159.06 Q65.9573 1160.54 63.683 1161.11 Z" fill="#000000" fill-rule="nonzero" fill-opacity="1" /><path clip-path="url(#clip360)" d="M83.1795 1151.48 Q80.4711 1151.48 79.0996 1154.15 Q77.7455 1156.81 77.7455 1162.15 Q77.7455 1167.48 79.0996 1170.16 Q80.4711 1172.81 83.1795 1172.81 Q85.9051 1172.81 87.2593 1170.16 Q88.6308 1167.48 88.6308 1162.15 Q88.6308 1156.81 87.2593 1154.15 Q85.9051 1151.48 83.1795 1151.48 M83.1795 1148.7 Q87.5371 1148.7 89.8287 1152.15 Q92.1377 1155.59 92.1377 1162.15 Q92.1377 1168.7 89.8287 1172.15 Q87.5371 1175.59 83.1795 1175.59 Q78.8218 1175.59 76.5128 1172.15 Q74.2212 1168.7 74.2212 1162.15 Q74.2212 1155.59 76.5128 1152.15 Q78.8218 1148.7 83.1795 1148.7 Z" fill="#000000" fill-rule="nonzero" fill-opacity="1" /><path clip-path="url(#clip360)" d="M62.6935 1050.46 L53.8393 1064.3 L62.6935 1064.3 L62.6935 1050.46 M61.7733 1047.41 L66.183 1047.41 L66.183 1064.3 L69.8809 1064.3 L69.8809 1067.22 L66.183 1067.22 L66.183 1073.33 L62.6935 1073.33 L62.6935 1067.22 L50.9921 1067.22 L50.9921 1063.83 L61.7733 1047.41 Z" fill="#000000" fill-rule="nonzero" fill-opacity="1" /><path clip-path="url(#clip360)" d="M83.1795 1049.72 Q80.4711 1049.72 79.0996 1052.39 Q77.7455 1055.05 77.7455 1060.39 Q77.7455 1065.72 79.0996 1068.4 Q80.4711 1071.05 83.1795 1071.05 Q85.9051 1071.05 87.2593 1068.4 Q88.6308 1065.72 88.6308 1060.39 Q88.6308 1055.05 87.2593 1052.39 Q85.9051 1049.72 83.1795 1049.72 M83.1795 1046.94 Q87.5371 1046.94 89.8287 1050.39 Q92.1377 1053.83 92.1377 1060.39 Q92.1377 1066.94 89.8287 1070.39 Q87.5371 1073.83 83.1795 1073.83 Q78.8218 1073.83 76.5128 1070.39 Q74.2212 1066.94 74.2212 1060.39 Q74.2212 1053.83 76.5128 1050.39 Q78.8218 1046.94 83.1795 1046.94 Z" fill="#000000" fill-rule="nonzero" fill-opacity="1" /><path clip-path="url(#clip360)" d="M53.0928 945.648 L66.8601 945.648 L66.8601 948.599 L56.3046 948.599 L56.3046 954.953 Q57.0685 954.693 57.8324 954.571 Q58.5963 954.433 59.3601 954.433 Q63.7004 954.433 66.2351 956.811 Q68.7698 959.19 68.7698 963.252 Q68.7698 967.436 66.1657 969.762 Q63.5615 972.071 58.8219 972.071 Q57.19 972.071 55.4886 971.794 Q53.8046 971.516 51.9991 970.96 L51.9991 967.436 Q53.5616 968.287 55.2282 968.703 Q56.8949 969.12 58.7525 969.12 Q61.756 969.12 63.5094 967.54 Q65.2629 965.96 65.2629 963.252 Q65.2629 960.544 63.5094 958.964 Q61.756 957.384 58.7525 957.384 Q57.3463 957.384 55.94 957.696 Q54.5511 958.009 53.0928 958.669 L53.0928 945.648 Z" fill="#000000" fill-rule="nonzero" fill-opacity="1" /><path clip-path="url(#clip360)" d="M83.1795 947.957 Q80.4711 947.957 79.0996 950.631 Q77.7455 953.287 77.7455 958.634 Q77.7455 963.964 79.0996 966.637 Q80.4711 969.294 83.1795 969.294 Q85.9051 969.294 87.2593 966.637 Q88.6308 963.964 88.6308 958.634 Q88.6308 953.287 87.2593 950.631 Q85.9051 947.957 83.1795 947.957 M83.1795 945.179 Q87.5371 945.179 89.8287 948.634 Q92.1377 952.072 92.1377 958.634 Q92.1377 965.179 89.8287 968.634 Q87.5371 972.071 83.1795 972.071 Q78.8218 972.071 76.5128 968.634 Q74.2212 965.179 74.2212 958.634 Q74.2212 952.072 76.5128 948.634 Q78.8218 945.179 83.1795 945.179 Z" fill="#000000" fill-rule="nonzero" fill-opacity="1" /><path clip-path="url(#clip360)" d="M140.036 818.926 Q136.517 818.926 134.619 821.472 Q132.628 824.134 132.628 828.532 Q132.628 833.185 134.596 835.87 Q136.587 838.532 140.036 838.532 Q143.439 838.532 145.429 835.847 Q147.42 833.162 147.42 828.532 Q147.42 824.296 145.429 821.472 Q143.601 818.926 140.036 818.926 M140.036 815.546 L154.179 815.546 L154.179 819.805 L149.411 819.805 Q151.934 823.417 151.934 828.532 Q151.934 834.898 148.763 838.509 Q145.591 842.143 140.036 842.143 Q134.457 842.143 131.309 838.509 Q128.138 834.898 128.138 828.532 Q128.138 822.12 131.309 818.532 Q133.925 815.546 140.036 815.546 Z" fill="#000000" fill-rule="nonzero" fill-opacity="1" /><path clip-path="url(#clip360)" d="M165.198 841.472 L157.281 815.546 L161.864 815.546 L168.554 837.305 Q171.332 834.435 173.647 830.454 Q175.406 827.467 175.499 824.875 Q175.545 823.648 174.989 821.333 Q174.341 818.579 171.888 815.546 L176.193 815.546 L176.193 815.546 Q177.79 817.606 178.855 820.477 Q179.827 823.116 179.827 824.921 Q179.827 829.458 176.679 833.509 Q172.582 838.787 169.735 841.472 L165.198 841.472 Z" fill="#000000" fill-rule="nonzero" fill-opacity="1" /><path clip-path="url(#clip364)" d="M184.494 1416.53 L184.494 1467.41 L285.817 1467.41 L285.817 1416.53 L184.494 1416.53 L184.494 1416.53  Z" fill="#009af9" fill-rule="evenodd" fill-opacity="1"/>
<polyline clip-path="url(#clip364)" style="stroke:#000000; stroke-linecap:round; stroke-linejoin:round; stroke-width:4; stroke-opacity:1; fill:none" points="184.494,1416.53 184.494,1467.41 285.817,1467.41 285.817,1416.53 184.494,1416.53 "/>
<path clip-path="url(#clip364)" d="M285.817 1233.36 L285.817 1467.41 L387.139 1467.41 L387.139 1233.36 L285.817 1233.36 L285.817 1233.36  Z" fill="#009af9" fill-rule="evenodd" fill-opacity="1"/>
<polyline clip-path="url(#clip364)" style="stroke:#000000; stroke-linecap:round; stroke-linejoin:round; stroke-width:4; stroke-opacity:1; fill:none" points="285.817,1233.36 285.817,1467.41 387.139,1467.41 387.139,1233.36 285.817,1233.36 "/>
<path clip-path="url(#clip364)" d="M387.139 1223.18 L387.139 1467.41 L488.462 1467.41 L488.462 1223.18 L387.139 1223.18 L387.139 1223.18  Z" fill="#009af9" fill-rule="evenodd" fill-opacity="1"/>
<polyline clip-path="url(#clip364)" style="stroke:#000000; stroke-linecap:round; stroke-linejoin:round; stroke-width:4; stroke-opacity:1; fill:none" points="387.139,1223.18 387.139,1467.41 488.462,1467.41 488.462,1223.18 387.139,1223.18 "/>
<path clip-path="url(#clip364)" d="M488.462 897.552 L488.462 1467.41 L589.785 1467.41 L589.785 897.552 L488.462 897.552 L488.462 897.552  Z" fill="#009af9" fill-rule="evenodd" fill-opacity="1"/>
<polyline clip-path="url(#clip364)" style="stroke:#000000; stroke-linecap:round; stroke-linejoin:round; stroke-width:4; stroke-opacity:1; fill:none" points="488.462,897.552 488.462,1467.41 589.785,1467.41 589.785,897.552 488.462,897.552 "/>
<path clip-path="url(#clip364)" d="M589.785 907.728 L589.785 1467.41 L691.108 1467.41 L691.108 907.728 L589.785 907.728 L589.785 907.728  Z" fill="#009af9" fill-rule="evenodd" fill-opacity="1"/>
<polyline clip-path="url(#clip364)" style="stroke:#000000; stroke-linecap:round; stroke-linejoin:round; stroke-width:4; stroke-opacity:1; fill:none" points="589.785,907.728 589.785,1467.41 691.108,1467.41 691.108,907.728 589.785,907.728 "/>
<path clip-path="url(#clip364)" d="M691.108 1090.9 L691.108 1467.41 L792.431 1467.41 L792.431 1090.9 L691.108 1090.9 L691.108 1090.9  Z" fill="#009af9" fill-rule="evenodd" fill-opacity="1"/>
<polyline clip-path="url(#clip364)" style="stroke:#000000; stroke-linecap:round; stroke-linejoin:round; stroke-width:4; stroke-opacity:1; fill:none" points="691.108,1090.9 691.108,1467.41 792.431,1467.41 792.431,1090.9 691.108,1090.9 "/>
<path clip-path="url(#clip364)" d="M792.431 1386 L792.431 1467.41 L893.754 1467.41 L893.754 1386 L792.431 1386 L792.431 1386  Z" fill="#009af9" fill-rule="evenodd" fill-opacity="1"/>
<polyline clip-path="url(#clip364)" style="stroke:#000000; stroke-linecap:round; stroke-linejoin:round; stroke-width:4; stroke-opacity:1; fill:none" points="792.431,1386 792.431,1467.41 893.754,1467.41 893.754,1386 792.431,1386 "/>
<path clip-path="url(#clip364)" d="M893.754 1365.65 L893.754 1467.41 L995.077 1467.41 L995.077 1365.65 L893.754 1365.65 L893.754 1365.65  Z" fill="#009af9" fill-rule="evenodd" fill-opacity="1"/>
<polyline clip-path="url(#clip364)" style="stroke:#000000; stroke-linecap:round; stroke-linejoin:round; stroke-width:4; stroke-opacity:1; fill:none" points="893.754,1365.65 893.754,1467.41 995.077,1467.41 995.077,1365.65 893.754,1365.65 "/>
<path clip-path="url(#clip364)" d="M995.077 1436.88 L995.077 1467.41 L1096.4 1467.41 L1096.4 1436.88 L995.077 1436.88 L995.077 1436.88  Z" fill="#009af9" fill-rule="evenodd" fill-opacity="1"/>
<polyline clip-path="url(#clip364)" style="stroke:#000000; stroke-linecap:round; stroke-linejoin:round; stroke-width:4; stroke-opacity:1; fill:none" points="995.077,1436.88 995.077,1467.41 1096.4,1467.41 1096.4,1436.88 995.077,1436.88 "/>
<circle clip-path="url(#clip364)" style="fill:#009af9; stroke:none; fill-opacity:0" cx="235.155" cy="1416.53" r="2"/>
<circle clip-path="url(#clip364)" style="fill:#009af9; stroke:none; fill-opacity:0" cx="336.478" cy="1233.36" r="2"/>
<circle clip-path="url(#clip364)" style="fill:#009af9; stroke:none; fill-opacity:0" cx="437.801" cy="1223.18" r="2"/>
<circle clip-path="url(#clip364)" style="fill:#009af9; stroke:none; fill-opacity:0" cx="539.124" cy="897.552" r="2"/>
<circle clip-path="url(#clip364)" style="fill:#009af9; stroke:none; fill-opacity:0" cx="640.447" cy="907.728" r="2"/>
<circle clip-path="url(#clip364)" style="fill:#009af9; stroke:none; fill-opacity:0" cx="741.77" cy="1090.9" r="2"/>
<circle clip-path="url(#clip364)" style="fill:#009af9; stroke:none; fill-opacity:0" cx="843.093" cy="1386" r="2"/>
<circle clip-path="url(#clip364)" style="fill:#009af9; stroke:none; fill-opacity:0" cx="944.416" cy="1365.65" r="2"/>
<circle clip-path="url(#clip364)" style="fill:#009af9; stroke:none; fill-opacity:0" cx="1045.74" cy="1436.88" r="2"/>
<polyline clip-path="url(#clip364)" style="stroke:#ff0000; stroke-linecap:round; stroke-linejoin:round; stroke-width:8; stroke-opacity:1; fill:none" stroke-dasharray="32, 20" points="544.061,2037.26 544.061,327.698 "/>
<polyline clip-path="url(#clip364)" style="stroke:#ff0000; stroke-linecap:round; stroke-linejoin:round; stroke-width:6; stroke-opacity:1; fill:none" stroke-dasharray="24, 12, 3, 12" points="280.028,2037.26 280.028,327.698 "/>
<polyline clip-path="url(#clip364)" style="stroke:#ff0000; stroke-linecap:round; stroke-linejoin:round; stroke-width:6; stroke-opacity:1; fill:none" stroke-dasharray="24, 12, 3, 12" points="992.996,2037.26 992.996,327.698 "/>
</svg>
