<?xml version="1.0" encoding="utf-8"?>
<svg xmlns="http://www.w3.org/2000/svg" xmlns:xlink="http://www.w3.org/1999/xlink" width="600" height="400" viewBox="0 0 2400 1600">
<defs>
  <clipPath id="clip270">
    <rect x="0" y="0" width="2400" height="1600"/>
  </clipPath>
</defs>
<path clip-path="url(#clip270)" d="M0 1600 L2400 1600 L2400 0 L0 0  Z" fill="#ffffff" fill-rule="evenodd" fill-opacity="1"/>
<defs>
  <clipPath id="clip271">
    <rect x="480" y="0" width="1681" height="1600"/>
  </clipPath>
</defs>
<path clip-path="url(#clip270)" d="M161.818 662.16 L1152.94 662.16 L1152.94 97.5521 L161.818 97.5521  Z" fill="#ffffff" fill-rule="evenodd" fill-opacity="1"/>
<defs>
  <clipPath id="clip272">
    <rect x="161" y="97" width="992" height="566"/>
  </clipPath>
</defs>
<polyline clip-path="url(#clip272)" style="stroke:#000000; stroke-linecap:round; stroke-linejoin:round; stroke-width:2; stroke-opacity:0.1; fill:none" points="192.35,662.16 192.35,97.5521 "/>
<polyline clip-path="url(#clip272)" style="stroke:#000000; stroke-linecap:round; stroke-linejoin:round; stroke-width:2; stroke-opacity:0.1; fill:none" points="455.479,662.16 455.479,97.5521 "/>
<polyline clip-path="url(#clip272)" style="stroke:#000000; stroke-linecap:round; stroke-linejoin:round; stroke-width:2; stroke-opacity:0.1; fill:none" points="718.608,662.16 718.608,97.5521 "/>
<polyline clip-path="url(#clip272)" style="stroke:#000000; stroke-linecap:round; stroke-linejoin:round; stroke-width:2; stroke-opacity:0.1; fill:none" points="981.738,662.16 981.738,97.5521 "/>
<polyline clip-path="url(#clip272)" style="stroke:#000000; stroke-linecap:round; stroke-linejoin:round; stroke-width:2; stroke-opacity:0.1; fill:none" points="161.818,646.181 1152.94,646.181 "/>
<polyline clip-path="url(#clip272)" style="stroke:#000000; stroke-linecap:round; stroke-linejoin:round; stroke-width:2; stroke-opacity:0.1; fill:none" points="161.818,507.168 1152.94,507.168 "/>
<polyline clip-path="url(#clip272)" style="stroke:#000000; stroke-linecap:round; stroke-linejoin:round; stroke-width:2; stroke-opacity:0.1; fill:none" points="161.818,368.155 1152.94,368.155 "/>
<polyline clip-path="url(#clip272)" style="stroke:#000000; stroke-linecap:round; stroke-linejoin:round; stroke-width:2; stroke-opacity:0.1; fill:none" points="161.818,229.143 1152.94,229.143 "/>
<polyline clip-path="url(#clip270)" style="stroke:#000000; stroke-linecap:round; stroke-linejoin:round; stroke-width:4; stroke-opacity:1; fill:none" points="161.818,662.16 1152.94,662.16 "/>
<polyline clip-path="url(#clip270)" style="stroke:#000000; stroke-linecap:round; stroke-linejoin:round; stroke-width:4; stroke-opacity:1; fill:none" points="192.35,662.16 192.35,643.263 "/>
<polyline clip-path="url(#clip270)" style="stroke:#000000; stroke-linecap:round; stroke-linejoin:round; stroke-width:4; stroke-opacity:1; fill:none" points="455.479,662.16 455.479,643.263 "/>
<polyline clip-path="url(#clip270)" style="stroke:#000000; stroke-linecap:round; stroke-linejoin:round; stroke-width:4; stroke-opacity:1; fill:none" points="718.608,662.16 718.608,643.263 "/>
<polyline clip-path="url(#clip270)" style="stroke:#000000; stroke-linecap:round; stroke-linejoin:round; stroke-width:4; stroke-opacity:1; fill:none" points="981.738,662.16 981.738,643.263 "/>
<path clip-path="url(#clip270)" d="M138.501 733.893 Q136.586 735.808 137.507 738.668 Q138.427 741.504 142.208 745.285 Q145.977 749.054 148.825 749.987 Q151.673 750.895 153.588 748.98 Q155.516 747.053 154.595 744.217 Q153.674 741.357 149.905 737.588 Q146.124 733.807 143.276 732.898 Q140.428 731.966 138.501 733.893 M136.537 731.929 Q139.618 728.847 143.681 729.67 Q147.745 730.468 152.385 735.108 Q157.013 739.736 157.824 743.812 Q158.634 747.863 155.552 750.944 Q152.471 754.026 148.408 753.228 Q144.344 752.405 139.716 747.777 Q135.076 743.137 134.266 739.086 Q133.455 735.01 136.537 731.929 Z" fill="#000000" fill-rule="nonzero" fill-opacity="1" /><path clip-path="url(#clip270)" d="M162.771 736.778 L165.361 734.187 L168.479 737.306 L165.889 739.896 L162.771 736.778 Z" fill="#000000" fill-rule="nonzero" fill-opacity="1" /><path clip-path="url(#clip270)" d="M170.48 717.897 Q168.712 719.665 168.639 721.629 Q168.577 723.581 170.235 725.238 Q171.892 726.895 173.844 726.834 Q175.808 726.76 177.576 724.993 Q179.344 723.225 179.417 721.261 Q179.479 719.284 177.834 717.639 Q176.176 715.982 174.212 716.056 Q172.26 716.117 170.48 717.897 M166.945 719.321 Q164.956 720.524 162.967 720.328 Q160.991 720.119 159.419 718.548 Q157.222 716.35 157.504 713.515 Q157.799 710.666 160.524 707.941 Q163.262 705.204 166.098 704.921 Q168.933 704.639 171.131 706.836 Q172.702 708.408 172.899 710.396 Q173.107 712.373 171.916 714.349 Q174.126 712.974 176.336 713.195 Q178.558 713.404 180.313 715.16 Q182.977 717.823 182.769 720.88 Q182.572 723.925 179.54 726.957 Q176.508 729.989 173.451 730.198 Q170.407 730.394 167.743 727.73 Q165.987 725.975 165.778 723.753 Q165.57 721.531 166.945 719.321 M162.12 716.313 Q163.544 717.738 165.226 717.652 Q166.92 717.553 168.528 715.945 Q170.124 714.349 170.222 712.655 Q170.333 710.949 168.909 709.525 Q167.485 708.101 165.778 708.211 Q164.084 708.309 162.488 709.905 Q160.88 711.514 160.782 713.208 Q160.696 714.889 162.12 716.313 Z" fill="#000000" fill-rule="nonzero" fill-opacity="1" /><path clip-path="url(#clip270)" d="M178.484 693.91 Q176.569 695.825 177.49 698.685 Q178.411 701.521 182.192 705.302 Q185.96 709.071 188.808 710.004 Q191.656 710.912 193.572 708.997 Q195.499 707.07 194.578 704.234 Q193.657 701.373 189.889 697.605 Q186.108 693.824 183.26 692.915 Q180.412 691.982 178.484 693.91 M176.52 691.945 Q179.601 688.864 183.665 689.687 Q187.728 690.485 192.368 695.125 Q196.997 699.753 197.807 703.829 Q198.617 707.88 195.536 710.961 Q192.454 714.042 188.391 713.244 Q184.328 712.422 179.7 707.794 Q175.059 703.154 174.249 699.102 Q173.439 695.027 176.52 691.945 Z" fill="#000000" fill-rule="nonzero" fill-opacity="1" /><path clip-path="url(#clip270)" d="M402.158 733.365 Q400.243 735.28 401.164 738.14 Q402.084 740.976 405.865 744.757 Q409.634 748.526 412.482 749.459 Q415.33 750.367 417.245 748.452 Q419.173 746.525 418.252 743.689 Q417.331 740.829 413.562 737.06 Q409.781 733.279 406.933 732.371 Q404.085 731.438 402.158 733.365 M400.194 731.401 Q403.275 728.32 407.338 729.142 Q411.402 729.94 416.042 734.58 Q420.67 739.208 421.481 743.284 Q422.291 747.335 419.209 750.416 Q416.128 753.498 412.065 752.7 Q408.001 751.877 403.373 747.249 Q398.733 742.609 397.923 738.558 Q397.113 734.482 400.194 731.401 Z" fill="#000000" fill-rule="nonzero" fill-opacity="1" /><path clip-path="url(#clip270)" d="M426.428 736.25 L429.018 733.66 L432.136 736.778 L429.546 739.368 L426.428 736.25 Z" fill="#000000" fill-rule="nonzero" fill-opacity="1" /><path clip-path="url(#clip270)" d="M434.137 717.369 Q432.369 719.137 432.296 721.101 Q432.234 723.053 433.892 724.71 Q435.549 726.368 437.501 726.306 Q439.465 726.233 441.233 724.465 Q443.001 722.697 443.074 720.733 Q443.136 718.756 441.491 717.111 Q439.833 715.454 437.869 715.528 Q435.917 715.589 434.137 717.369 M430.602 718.793 Q428.613 719.996 426.624 719.8 Q424.648 719.591 423.076 718.02 Q420.879 715.822 421.161 712.987 Q421.456 710.139 424.181 707.413 Q426.919 704.676 429.755 704.393 Q432.59 704.111 434.788 706.308 Q436.359 707.88 436.556 709.869 Q436.764 711.845 435.574 713.821 Q437.783 712.447 439.993 712.667 Q442.215 712.876 443.97 714.632 Q446.634 717.296 446.426 720.352 Q446.229 723.397 443.197 726.429 Q440.165 729.461 437.108 729.67 Q434.064 729.866 431.4 727.202 Q429.644 725.447 429.435 723.225 Q429.227 721.003 430.602 718.793 M425.777 715.786 Q427.201 717.21 428.883 717.124 Q430.577 717.025 432.185 715.417 Q433.781 713.821 433.879 712.127 Q433.99 710.421 432.566 708.997 Q431.142 707.573 429.435 707.683 Q427.741 707.782 426.145 709.377 Q424.537 710.986 424.439 712.68 Q424.353 714.362 425.777 715.786 Z" fill="#000000" fill-rule="nonzero" fill-opacity="1" /><path clip-path="url(#clip270)" d="M435.23 697.028 L444.965 687.293 L447.052 689.38 L439.588 696.844 L444.081 701.337 Q444.437 700.612 444.891 699.986 Q445.333 699.348 445.873 698.808 Q448.942 695.739 452.416 695.628 Q455.89 695.518 458.763 698.39 Q461.722 701.349 461.525 704.835 Q461.316 708.309 457.965 711.661 Q456.811 712.815 455.412 713.821 Q454.024 714.816 452.355 715.7 L449.863 713.208 Q451.569 712.704 453.042 711.82 Q454.516 710.937 455.829 709.623 Q457.953 707.499 458.076 705.142 Q458.198 702.785 456.283 700.87 Q454.368 698.955 452.011 699.078 Q449.654 699.201 447.53 701.324 Q446.536 702.319 445.763 703.534 Q445.002 704.737 444.437 706.235 L435.23 697.028 Z" fill="#000000" fill-rule="nonzero" fill-opacity="1" /><path clip-path="url(#clip270)" d="M664.759 733.893 Q662.844 735.808 663.765 738.668 Q664.686 741.504 668.467 745.285 Q672.235 749.054 675.083 749.987 Q677.932 750.895 679.847 748.98 Q681.774 747.053 680.853 744.217 Q679.933 741.357 676.164 737.588 Q672.383 733.807 669.535 732.898 Q666.687 731.966 664.759 733.893 M662.795 731.929 Q665.876 728.847 669.94 729.67 Q674.003 730.468 678.644 735.108 Q683.272 739.736 684.082 743.812 Q684.892 747.863 681.811 750.944 Q678.729 754.026 674.666 753.228 Q670.603 752.405 665.975 747.777 Q661.334 743.137 660.524 739.086 Q659.714 735.01 662.795 731.929 Z" fill="#000000" fill-rule="nonzero" fill-opacity="1" /><path clip-path="url(#clip270)" d="M689.029 736.778 L691.619 734.187 L694.737 737.306 L692.147 739.896 L689.029 736.778 Z" fill="#000000" fill-rule="nonzero" fill-opacity="1" /><path clip-path="url(#clip270)" d="M699.832 731.45 L697.573 729.191 Q698.948 728.7 700.139 727.976 Q701.33 727.251 702.25 726.331 Q704.706 723.876 704.35 720.942 Q703.994 717.983 700.814 714.435 Q701.158 716.203 700.63 717.86 Q700.102 719.518 698.776 720.843 Q696.026 723.593 692.761 723.544 Q689.496 723.47 686.611 720.586 Q683.787 717.762 683.75 714.386 Q683.714 711.01 686.488 708.236 Q689.667 705.056 693.78 705.83 Q697.892 706.579 702.533 711.219 Q706.866 715.552 707.394 720.205 Q707.922 724.833 704.448 728.307 Q703.515 729.24 702.373 730.014 Q701.232 730.787 699.832 731.45 M696.996 718.744 Q698.666 717.075 698.494 714.963 Q698.334 712.839 696.346 710.851 Q694.369 708.874 692.245 708.715 Q690.122 708.53 688.452 710.2 Q686.783 711.87 686.954 714.006 Q687.126 716.117 689.103 718.094 Q691.091 720.082 693.203 720.254 Q695.327 720.414 696.996 718.744 Z" fill="#000000" fill-rule="nonzero" fill-opacity="1" /><path clip-path="url(#clip270)" d="M704.743 693.91 Q702.827 695.825 703.748 698.685 Q704.669 701.521 708.45 705.302 Q712.219 709.071 715.067 710.004 Q717.915 710.912 719.83 708.997 Q721.757 707.07 720.836 704.234 Q719.916 701.373 716.147 697.605 Q712.366 693.824 709.518 692.915 Q706.67 691.982 704.743 693.91 M702.778 691.945 Q705.86 688.864 709.923 689.687 Q713.986 690.485 718.627 695.125 Q723.255 699.753 724.065 703.829 Q724.875 707.88 721.794 710.961 Q718.713 714.042 714.649 713.244 Q710.586 712.422 705.958 707.794 Q701.317 703.154 700.507 699.102 Q699.697 695.027 702.778 691.945 Z" fill="#000000" fill-rule="nonzero" fill-opacity="1" /><path clip-path="url(#clip270)" d="M928.416 733.365 Q926.501 735.28 927.422 738.14 Q928.343 740.976 932.124 744.757 Q935.892 748.526 938.741 749.459 Q941.589 750.367 943.504 748.452 Q945.431 746.525 944.51 743.689 Q943.59 740.829 939.821 737.06 Q936.04 733.279 933.192 732.371 Q930.344 731.438 928.416 733.365 M926.452 731.401 Q929.533 728.32 933.597 729.142 Q937.66 729.94 942.301 734.58 Q946.929 739.208 947.739 743.284 Q948.549 747.335 945.468 750.416 Q942.387 753.498 938.323 752.7 Q934.26 751.877 929.632 747.249 Q924.991 742.609 924.181 738.558 Q923.371 734.482 926.452 731.401 Z" fill="#000000" fill-rule="nonzero" fill-opacity="1" /><path clip-path="url(#clip270)" d="M952.686 736.25 L955.276 733.66 L958.395 736.778 L955.804 739.368 L952.686 736.25 Z" fill="#000000" fill-rule="nonzero" fill-opacity="1" /><path clip-path="url(#clip270)" d="M963.489 730.922 L961.23 728.663 Q962.605 728.172 963.796 727.448 Q964.987 726.724 965.908 725.803 Q968.363 723.348 968.007 720.414 Q967.651 717.455 964.471 713.907 Q964.815 715.675 964.287 717.332 Q963.759 718.99 962.433 720.315 Q959.684 723.065 956.418 723.016 Q953.153 722.943 950.268 720.058 Q947.444 717.234 947.407 713.858 Q947.371 710.482 950.145 707.708 Q953.325 704.528 957.437 705.302 Q961.549 706.051 966.19 710.691 Q970.523 715.024 971.051 719.677 Q971.579 724.305 968.105 727.779 Q967.172 728.712 966.03 729.486 Q964.889 730.259 963.489 730.922 M960.653 718.216 Q962.323 716.547 962.151 714.435 Q961.991 712.311 960.003 710.323 Q958.026 708.346 955.902 708.187 Q953.779 708.003 952.109 709.672 Q950.44 711.342 950.611 713.478 Q950.783 715.589 952.76 717.566 Q954.749 719.554 956.86 719.726 Q958.984 719.886 960.653 718.216 Z" fill="#000000" fill-rule="nonzero" fill-opacity="1" /><path clip-path="url(#clip270)" d="M961.488 697.028 L971.223 687.293 L973.31 689.38 L965.846 696.844 L970.339 701.337 Q970.695 700.612 971.149 699.986 Q971.591 699.348 972.131 698.808 Q975.201 695.739 978.675 695.628 Q982.149 695.518 985.021 698.39 Q987.98 701.349 987.784 704.835 Q987.575 708.309 984.223 711.661 Q983.069 712.815 981.67 713.821 Q980.283 714.816 978.613 715.7 L976.121 713.208 Q977.828 712.704 979.301 711.82 Q980.774 710.937 982.087 709.623 Q984.211 707.499 984.334 705.142 Q984.457 702.785 982.542 700.87 Q980.627 698.955 978.27 699.078 Q975.913 699.201 973.789 701.324 Q972.794 702.319 972.021 703.534 Q971.26 704.737 970.695 706.235 L961.488 697.028 Z" fill="#000000" fill-rule="nonzero" fill-opacity="1" /><polyline clip-path="url(#clip270)" style="stroke:#000000; stroke-linecap:round; stroke-linejoin:round; stroke-width:4; stroke-opacity:1; fill:none" points="161.818,662.16 161.818,97.5521 "/>
<polyline clip-path="url(#clip270)" style="stroke:#000000; stroke-linecap:round; stroke-linejoin:round; stroke-width:4; stroke-opacity:1; fill:none" points="161.818,646.181 180.716,646.181 "/>
<polyline clip-path="url(#clip270)" style="stroke:#000000; stroke-linecap:round; stroke-linejoin:round; stroke-width:4; stroke-opacity:1; fill:none" points="161.818,507.168 180.716,507.168 "/>
<polyline clip-path="url(#clip270)" style="stroke:#000000; stroke-linecap:round; stroke-linejoin:round; stroke-width:4; stroke-opacity:1; fill:none" points="161.818,368.155 180.716,368.155 "/>
<polyline clip-path="url(#clip270)" style="stroke:#000000; stroke-linecap:round; stroke-linejoin:round; stroke-width:4; stroke-opacity:1; fill:none" points="161.818,229.143 180.716,229.143 "/>
<path clip-path="url(#clip270)" d="M116.86 635.53 Q114.152 635.53 112.78 638.204 Q111.426 640.86 111.426 646.207 Q111.426 651.537 112.78 654.21 Q114.152 656.867 116.86 656.867 Q119.586 656.867 120.94 654.21 Q122.311 651.537 122.311 646.207 Q122.311 640.86 120.94 638.204 Q119.586 635.53 116.86 635.53 M116.86 632.752 Q121.217 632.752 123.509 636.207 Q125.818 639.644 125.818 646.207 Q125.818 652.752 123.509 656.207 Q121.217 659.644 116.86 659.644 Q112.502 659.644 110.193 656.207 Q107.902 652.752 107.902 646.207 Q107.902 639.644 110.193 636.207 Q112.502 632.752 116.86 632.752 Z" fill="#000000" fill-rule="nonzero" fill-opacity="1" /><path clip-path="url(#clip270)" d="M110.888 517.177 L116.617 517.177 L116.617 497.403 L110.384 498.653 L110.384 495.458 L116.582 494.208 L120.089 494.208 L120.089 517.177 L125.818 517.177 L125.818 520.128 L110.888 520.128 L110.888 517.177 Z" fill="#000000" fill-rule="nonzero" fill-opacity="1" /><path clip-path="url(#clip270)" d="M113.579 378.164 L125.818 378.164 L125.818 381.115 L109.36 381.115 L109.36 378.164 Q111.356 376.098 114.794 372.626 Q118.249 369.136 119.134 368.129 Q120.818 366.237 121.478 364.935 Q122.155 363.615 122.155 362.348 Q122.155 360.282 120.697 358.98 Q119.256 357.678 116.929 357.678 Q115.28 357.678 113.44 358.251 Q111.617 358.824 109.533 359.987 L109.533 356.445 Q111.652 355.595 113.492 355.161 Q115.332 354.727 116.86 354.727 Q120.888 354.727 123.283 356.74 Q125.679 358.754 125.679 362.122 Q125.679 363.72 125.072 365.161 Q124.481 366.584 122.901 368.529 Q122.467 369.032 120.141 371.445 Q117.815 373.841 113.579 378.164 Z" fill="#000000" fill-rule="nonzero" fill-opacity="1" /><path clip-path="url(#clip270)" d="M120.471 228.127 Q122.988 228.665 124.395 230.367 Q125.818 232.068 125.818 234.568 Q125.818 238.405 123.179 240.505 Q120.54 242.606 115.679 242.606 Q114.047 242.606 112.311 242.276 Q110.593 241.964 108.752 241.321 L108.752 237.936 Q110.211 238.787 111.947 239.221 Q113.683 239.655 115.575 239.655 Q118.874 239.655 120.592 238.353 Q122.329 237.051 122.329 234.568 Q122.329 232.276 120.714 230.992 Q119.117 229.689 116.252 229.689 L113.231 229.689 L113.231 226.808 L116.391 226.808 Q118.978 226.808 120.349 225.783 Q121.721 224.742 121.721 222.797 Q121.721 220.801 120.297 219.742 Q118.891 218.665 116.252 218.665 Q114.811 218.665 113.162 218.978 Q111.513 219.29 109.533 219.95 L109.533 216.825 Q111.53 216.269 113.266 215.992 Q115.02 215.714 116.565 215.714 Q120.558 215.714 122.884 217.537 Q125.21 219.342 125.21 222.433 Q125.21 224.585 123.978 226.078 Q122.745 227.554 120.471 228.127 Z" fill="#000000" fill-rule="nonzero" fill-opacity="1" /><path clip-path="url(#clip270)" d="M163.901 20.1758 Q165.313 17.8147 168.809 15.7314 Q170.175 14.9212 174.387 14.9212 Q179.11 14.9212 182.049 18.6712 Q185.012 22.4212 185.012 28.5323 Q185.012 34.6433 182.049 38.3933 Q179.11 42.1433 174.387 42.1433 Q171.54 42.1433 169.48 41.0322 Q167.443 39.8979 166.1 37.5831 L166.1 51.3331 L161.818 51.3331 L161.818 28.7637 Q161.818 23.4165 163.901 20.1758 M180.591 28.5323 Q180.591 23.8332 178.647 21.1712 Q176.725 18.486 173.346 18.486 Q169.966 18.486 168.022 21.1712 Q166.1 23.8332 166.1 28.5323 Q166.1 33.2313 168.022 35.9165 Q169.966 38.5785 173.346 38.5785 Q176.725 38.5785 178.647 35.9165 Q180.591 33.2313 180.591 28.5323 Z" fill="#000000" fill-rule="nonzero" fill-opacity="1" /><polyline clip-path="url(#clip272)" style="stroke:#009af9; stroke-linecap:round; stroke-linejoin:round; stroke-width:4; stroke-opacity:1; fill:none" points="189.869,585.514 248.307,589.978 306.746,594.999 365.185,600.69 423.623,607.193 482.062,614.695 540.501,623.446 598.939,633.783 657.378,646.181 715.817,631.041 774.256,612.137 832.694,587.87 891.133,555.586 949.572,510.534 1008.01,443.274 1066.45,332.032 1124.89,113.532 "/>
<circle clip-path="url(#clip272)" cx="657.378" cy="646.181" r="10.8" fill="#ff0000" fill-rule="evenodd" fill-opacity="1" stroke="#000000" stroke-opacity="1" stroke-width="3.2"/>
<path clip-path="url(#clip270)" d="M1361.64 662.16 L2352.76 662.16 L2352.76 97.5521 L1361.64 97.5521  Z" fill="#ffffff" fill-rule="evenodd" fill-opacity="1"/>
<defs>
  <clipPath id="clip273">
    <rect x="1361" y="97" width="992" height="566"/>
  </clipPath>
</defs>
<polyline clip-path="url(#clip273)" style="stroke:#000000; stroke-linecap:round; stroke-linejoin:round; stroke-width:2; stroke-opacity:0.1; fill:none" points="1470.84,662.16 1470.84,97.5521 "/>
<polyline clip-path="url(#clip273)" style="stroke:#000000; stroke-linecap:round; stroke-linejoin:round; stroke-width:2; stroke-opacity:0.1; fill:none" points="1613.8,662.16 1613.8,97.5521 "/>
<polyline clip-path="url(#clip273)" style="stroke:#000000; stroke-linecap:round; stroke-linejoin:round; stroke-width:2; stroke-opacity:0.1; fill:none" points="1756.76,662.16 1756.76,97.5521 "/>
<polyline clip-path="url(#clip273)" style="stroke:#000000; stroke-linecap:round; stroke-linejoin:round; stroke-width:2; stroke-opacity:0.1; fill:none" points="1899.72,662.16 1899.72,97.5521 "/>
<polyline clip-path="url(#clip273)" style="stroke:#000000; stroke-linecap:round; stroke-linejoin:round; stroke-width:2; stroke-opacity:0.1; fill:none" points="2042.68,662.16 2042.68,97.5521 "/>
<polyline clip-path="url(#clip273)" style="stroke:#000000; stroke-linecap:round; stroke-linejoin:round; stroke-width:2; stroke-opacity:0.1; fill:none" points="2185.63,662.16 2185.63,97.5521 "/>
<polyline clip-path="url(#clip273)" style="stroke:#000000; stroke-linecap:round; stroke-linejoin:round; stroke-width:2; stroke-opacity:0.1; fill:none" points="2328.59,662.16 2328.59,97.5521 "/>
<polyline clip-path="url(#clip273)" style="stroke:#000000; stroke-linecap:round; stroke-linejoin:round; stroke-width:2; stroke-opacity:0.1; fill:none" points="1361.64,646.181 2352.76,646.181 "/>
<polyline clip-path="url(#clip273)" style="stroke:#000000; stroke-linecap:round; stroke-linejoin:round; stroke-width:2; stroke-opacity:0.1; fill:none" points="1361.64,504.479 2352.76,504.479 "/>
<polyline clip-path="url(#clip273)" style="stroke:#000000; stroke-linecap:round; stroke-linejoin:round; stroke-width:2; stroke-opacity:0.1; fill:none" points="1361.64,362.776 2352.76,362.776 "/>
<polyline clip-path="url(#clip273)" style="stroke:#000000; stroke-linecap:round; stroke-linejoin:round; stroke-width:2; stroke-opacity:0.1; fill:none" points="1361.64,221.074 2352.76,221.074 "/>
<polyline clip-path="url(#clip270)" style="stroke:#000000; stroke-linecap:round; stroke-linejoin:round; stroke-width:4; stroke-opacity:1; fill:none" points="1361.64,662.16 2352.76,662.16 "/>
<polyline clip-path="url(#clip270)" style="stroke:#000000; stroke-linecap:round; stroke-linejoin:round; stroke-width:4; stroke-opacity:1; fill:none" points="1470.84,662.16 1470.84,643.263 "/>
<polyline clip-path="url(#clip270)" style="stroke:#000000; stroke-linecap:round; stroke-linejoin:round; stroke-width:4; stroke-opacity:1; fill:none" points="1613.8,662.16 1613.8,643.263 "/>
<polyline clip-path="url(#clip270)" style="stroke:#000000; stroke-linecap:round; stroke-linejoin:round; stroke-width:4; stroke-opacity:1; fill:none" points="1756.76,662.16 1756.76,643.263 "/>
<polyline clip-path="url(#clip270)" style="stroke:#000000; stroke-linecap:round; stroke-linejoin:round; stroke-width:4; stroke-opacity:1; fill:none" points="1899.72,662.16 1899.72,643.263 "/>
<polyline clip-path="url(#clip270)" style="stroke:#000000; stroke-linecap:round; stroke-linejoin:round; stroke-width:4; stroke-opacity:1; fill:none" points="2042.68,662.16 2042.68,643.263 "/>
<polyline clip-path="url(#clip270)" style="stroke:#000000; stroke-linecap:round; stroke-linejoin:round; stroke-width:4; stroke-opacity:1; fill:none" points="2185.63,662.16 2185.63,643.263 "/>
<polyline clip-path="url(#clip270)" style="stroke:#000000; stroke-linecap:round; stroke-linejoin:round; stroke-width:4; stroke-opacity:1; fill:none" points="2328.59,662.16 2328.59,643.263 "/>
<path clip-path="url(#clip270)" d="M1416.99 733.893 Q1415.08 735.808 1416 738.668 Q1416.92 741.504 1420.7 745.285 Q1424.47 749.054 1427.32 749.987 Q1430.17 750.895 1432.08 748.98 Q1434.01 747.053 1433.09 744.217 Q1432.17 741.357 1428.4 737.588 Q1424.62 733.807 1421.77 732.898 Q1418.92 731.966 1416.99 733.893 M1415.03 731.929 Q1418.11 728.847 1422.18 729.67 Q1426.24 730.468 1430.88 735.108 Q1435.51 739.736 1436.32 743.812 Q1437.13 747.863 1434.05 750.944 Q1430.96 754.026 1426.9 753.228 Q1422.84 752.405 1418.21 747.777 Q1413.57 743.137 1412.76 739.086 Q1411.95 735.01 1415.03 731.929 Z" fill="#000000" fill-rule="nonzero" fill-opacity="1" /><path clip-path="url(#clip270)" d="M1441.26 736.778 L1443.85 734.187 L1446.97 737.306 L1444.38 739.896 L1441.26 736.778 Z" fill="#000000" fill-rule="nonzero" fill-opacity="1" /><path clip-path="url(#clip270)" d="M1450 714.509 Q1452.17 713.109 1454.36 713.318 Q1456.57 713.515 1458.34 715.282 Q1461.05 717.995 1460.67 721.347 Q1460.29 724.698 1456.86 728.135 Q1455.7 729.289 1454.24 730.284 Q1452.8 731.278 1451.05 732.125 L1448.65 729.731 Q1450.29 729.302 1451.82 728.381 Q1453.36 727.46 1454.69 726.122 Q1457.03 723.79 1457.32 721.654 Q1457.63 719.505 1455.87 717.75 Q1454.25 716.129 1452.2 716.363 Q1450.15 716.571 1448.13 718.597 L1445.99 720.733 L1443.95 718.695 L1446.19 716.461 Q1448.02 714.632 1448.26 712.938 Q1448.5 711.231 1447.12 709.856 Q1445.71 708.445 1443.95 708.702 Q1442.2 708.936 1440.33 710.802 Q1439.31 711.82 1438.37 713.208 Q1437.42 714.595 1436.49 716.461 L1434.28 714.251 Q1435.3 712.447 1436.33 711.022 Q1437.37 709.586 1438.47 708.494 Q1441.29 705.67 1444.22 705.314 Q1447.14 704.946 1449.33 707.131 Q1450.85 708.653 1451.04 710.581 Q1451.21 712.496 1450 714.509 Z" fill="#000000" fill-rule="nonzero" fill-opacity="1" /><path clip-path="url(#clip270)" d="M1456.98 693.91 Q1455.06 695.825 1455.98 698.685 Q1456.9 701.521 1460.69 705.302 Q1464.45 709.071 1467.3 710.004 Q1470.15 710.912 1472.07 708.997 Q1473.99 707.07 1473.07 704.234 Q1472.15 701.373 1468.38 697.605 Q1464.6 693.824 1461.75 692.915 Q1458.91 691.982 1456.98 693.91 M1455.01 691.945 Q1458.09 688.864 1462.16 689.687 Q1466.22 690.485 1470.86 695.125 Q1475.49 699.753 1476.3 703.829 Q1477.11 707.88 1474.03 710.961 Q1470.95 714.042 1466.88 713.244 Q1462.82 712.422 1458.19 707.794 Q1453.55 703.154 1452.74 699.102 Q1451.93 695.027 1455.01 691.945 Z" fill="#000000" fill-rule="nonzero" fill-opacity="1" /><path clip-path="url(#clip270)" d="M1560.6 733.242 Q1558.69 735.157 1559.61 738.018 Q1560.53 740.853 1564.31 744.634 Q1568.08 748.403 1570.93 749.336 Q1573.78 750.245 1575.69 748.33 Q1577.62 746.402 1576.7 743.566 Q1575.78 740.706 1572.01 736.937 Q1568.23 733.156 1565.38 732.248 Q1562.53 731.315 1560.6 733.242 M1558.64 731.278 Q1561.72 728.197 1565.78 729.019 Q1569.85 729.817 1574.49 734.458 Q1579.12 739.086 1579.93 743.161 Q1580.74 747.212 1577.65 750.294 Q1574.57 753.375 1570.51 752.577 Q1566.45 751.755 1561.82 747.126 Q1557.18 742.486 1556.37 738.435 Q1555.56 734.359 1558.64 731.278 Z" fill="#000000" fill-rule="nonzero" fill-opacity="1" /><path clip-path="url(#clip270)" d="M1584.87 736.127 L1587.46 733.537 L1590.58 736.655 L1587.99 739.245 L1584.87 736.127 Z" fill="#000000" fill-rule="nonzero" fill-opacity="1" /><path clip-path="url(#clip270)" d="M1593.61 713.858 Q1595.77 712.459 1597.97 712.667 Q1600.18 712.864 1601.95 714.632 Q1604.66 717.345 1604.28 720.696 Q1603.9 724.047 1600.46 727.485 Q1599.31 728.639 1597.85 729.633 Q1596.41 730.627 1594.66 731.474 L1592.26 729.081 Q1593.9 728.651 1595.43 727.73 Q1596.97 726.81 1598.3 725.471 Q1600.64 723.139 1600.93 721.003 Q1601.24 718.855 1599.48 717.099 Q1597.86 715.479 1595.81 715.712 Q1593.76 715.921 1591.74 717.946 L1589.6 720.082 L1587.56 718.044 L1589.8 715.81 Q1591.62 713.981 1591.87 712.287 Q1592.1 710.581 1590.73 709.206 Q1589.32 707.794 1587.56 708.052 Q1585.81 708.285 1583.94 710.151 Q1582.92 711.17 1581.98 712.557 Q1581.03 713.944 1580.1 715.81 L1577.89 713.6 Q1578.91 711.796 1579.94 710.372 Q1580.98 708.936 1582.07 707.843 Q1584.9 705.019 1587.83 704.663 Q1590.75 704.295 1592.94 706.48 Q1594.46 708.003 1594.64 709.93 Q1594.82 711.845 1593.61 713.858 Z" fill="#000000" fill-rule="nonzero" fill-opacity="1" /><path clip-path="url(#clip270)" d="M1610.32 712.741 L1614.37 708.69 L1600.39 694.708 L1596.87 699.999 L1594.61 697.74 L1598.11 692.473 L1600.59 689.994 L1616.83 706.235 L1620.88 702.184 L1622.97 704.271 L1612.41 714.828 L1610.32 712.741 Z" fill="#000000" fill-rule="nonzero" fill-opacity="1" /><path clip-path="url(#clip270)" d="M1703.76 733.046 Q1701.84 734.961 1702.76 737.821 Q1703.68 740.657 1707.47 744.438 Q1711.23 748.207 1714.08 749.14 Q1716.93 750.048 1718.85 748.133 Q1720.77 746.206 1719.85 743.37 Q1718.93 740.51 1715.16 736.741 Q1711.38 732.96 1708.53 732.051 Q1705.69 731.118 1703.76 733.046 M1701.79 731.082 Q1704.87 728 1708.94 728.823 Q1713 729.621 1717.64 734.261 Q1722.27 738.889 1723.08 742.965 Q1723.89 747.016 1720.81 750.097 Q1717.73 753.179 1713.66 752.381 Q1709.6 751.558 1704.97 746.93 Q1700.33 742.29 1699.52 738.239 Q1698.71 734.163 1701.79 731.082 Z" fill="#000000" fill-rule="nonzero" fill-opacity="1" /><path clip-path="url(#clip270)" d="M1728.03 735.931 L1730.62 733.34 L1733.74 736.459 L1731.15 739.049 L1728.03 735.931 Z" fill="#000000" fill-rule="nonzero" fill-opacity="1" /><path clip-path="url(#clip270)" d="M1736.77 713.662 Q1738.93 712.262 1741.13 712.471 Q1743.34 712.667 1745.1 714.435 Q1747.82 717.148 1747.44 720.5 Q1747.06 723.851 1743.62 727.288 Q1742.46 728.442 1741 729.437 Q1739.57 730.431 1737.81 731.278 L1735.42 728.884 Q1737.05 728.455 1738.59 727.534 Q1740.12 726.613 1741.46 725.275 Q1743.79 722.943 1744.08 720.807 Q1744.39 718.658 1742.64 716.903 Q1741.02 715.282 1738.97 715.516 Q1736.92 715.724 1734.89 717.75 L1732.75 719.886 L1730.72 717.848 L1732.95 715.614 Q1734.78 713.785 1735.02 712.091 Q1735.26 710.384 1733.88 709.009 Q1732.47 707.597 1730.72 707.855 Q1728.96 708.088 1727.09 709.954 Q1726.08 710.973 1725.13 712.361 Q1724.19 713.748 1723.25 715.614 L1721.04 713.404 Q1722.06 711.599 1723.09 710.175 Q1724.14 708.739 1725.23 707.647 Q1728.05 704.823 1730.99 704.467 Q1733.91 704.099 1736.09 706.284 Q1737.62 707.806 1737.8 709.733 Q1737.97 711.649 1736.77 713.662 Z" fill="#000000" fill-rule="nonzero" fill-opacity="1" /><path clip-path="url(#clip270)" d="M1755.18 710.838 L1763.84 702.184 L1765.92 704.271 L1754.29 715.908 L1752.2 713.821 Q1752.15 710.949 1752.13 706.063 Q1752.1 701.153 1752.02 699.814 Q1751.87 697.286 1751.41 695.898 Q1750.96 694.487 1750.06 693.59 Q1748.6 692.13 1746.65 692.24 Q1744.71 692.338 1743.07 693.983 Q1741.9 695.149 1741 696.856 Q1740.12 698.55 1739.47 700.846 L1736.96 698.341 Q1737.86 696.242 1738.86 694.634 Q1739.85 693.026 1740.93 691.945 Q1743.78 689.097 1746.9 688.827 Q1750.01 688.557 1752.4 690.939 Q1753.53 692.068 1754.11 693.517 Q1754.7 694.941 1754.96 697.433 Q1755.01 698.096 1755.07 701.447 Q1755.12 704.786 1755.18 710.838 Z" fill="#000000" fill-rule="nonzero" fill-opacity="1" /><path clip-path="url(#clip270)" d="M1846.21 733.549 Q1844.3 735.464 1845.22 738.325 Q1846.14 741.16 1849.92 744.941 Q1853.69 748.71 1856.54 749.643 Q1859.38 750.552 1861.3 748.636 Q1863.23 746.709 1862.31 743.873 Q1861.39 741.013 1857.62 737.244 Q1853.84 733.463 1850.99 732.555 Q1848.14 731.622 1846.21 733.549 M1844.25 731.585 Q1847.33 728.504 1851.39 729.326 Q1855.46 730.124 1860.1 734.764 Q1864.72 739.393 1865.54 743.468 Q1866.35 747.519 1863.26 750.601 Q1860.18 753.682 1856.12 752.884 Q1852.06 752.061 1847.43 747.433 Q1842.79 742.793 1841.98 738.742 Q1841.17 734.666 1844.25 731.585 Z" fill="#000000" fill-rule="nonzero" fill-opacity="1" /><path clip-path="url(#clip270)" d="M1870.48 736.434 L1873.07 733.844 L1876.19 736.962 L1873.6 739.552 L1870.48 736.434 Z" fill="#000000" fill-rule="nonzero" fill-opacity="1" /><path clip-path="url(#clip270)" d="M1879.22 714.165 Q1881.38 712.766 1883.58 712.974 Q1885.79 713.171 1887.56 714.939 Q1890.27 717.652 1889.89 721.003 Q1889.51 724.354 1886.07 727.792 Q1884.92 728.946 1883.46 729.94 Q1882.02 730.934 1880.27 731.781 L1877.87 729.388 Q1879.51 728.958 1881.04 728.037 Q1882.57 727.116 1883.91 725.778 Q1886.24 723.446 1886.54 721.31 Q1886.85 719.162 1885.09 717.406 Q1883.47 715.786 1881.42 716.019 Q1879.37 716.228 1877.34 718.253 L1875.21 720.389 L1873.17 718.351 L1875.41 716.117 Q1877.23 714.288 1877.48 712.594 Q1877.71 710.887 1876.34 709.513 Q1874.93 708.101 1873.17 708.359 Q1871.42 708.592 1869.55 710.458 Q1868.53 711.477 1867.59 712.864 Q1866.64 714.251 1865.71 716.117 L1863.5 713.907 Q1864.52 712.103 1865.55 710.679 Q1866.59 709.242 1867.68 708.15 Q1870.51 705.326 1873.44 704.97 Q1876.36 704.602 1878.55 706.787 Q1880.07 708.309 1880.25 710.237 Q1880.43 712.152 1879.22 714.165 Z" fill="#000000" fill-rule="nonzero" fill-opacity="1" /><path clip-path="url(#clip270)" d="M1895.22 698.169 Q1897.38 696.77 1899.58 696.979 Q1901.79 697.175 1903.55 698.943 Q1906.27 701.656 1905.89 705.007 Q1905.51 708.359 1902.07 711.796 Q1900.91 712.95 1899.45 713.944 Q1898.02 714.939 1896.26 715.786 L1893.87 713.392 Q1895.5 712.962 1897.04 712.041 Q1898.57 711.121 1899.91 709.783 Q1902.24 707.45 1902.54 705.314 Q1902.84 703.166 1901.09 701.41 Q1899.47 699.79 1897.42 700.023 Q1895.37 700.232 1893.34 702.257 L1891.2 704.393 L1889.17 702.356 L1891.4 700.121 Q1893.23 698.292 1893.48 696.598 Q1893.71 694.892 1892.33 693.517 Q1890.92 692.105 1889.17 692.363 Q1887.41 692.596 1885.55 694.462 Q1884.53 695.481 1883.58 696.868 Q1882.64 698.255 1881.7 700.121 L1879.49 697.912 Q1880.51 696.107 1881.54 694.683 Q1882.59 693.247 1883.68 692.154 Q1886.5 689.331 1889.44 688.975 Q1892.36 688.606 1894.54 690.791 Q1896.07 692.314 1896.25 694.241 Q1896.42 696.156 1895.22 698.169 Z" fill="#000000" fill-rule="nonzero" fill-opacity="1" /><path clip-path="url(#clip270)" d="M1988.57 734.151 Q1986.65 736.066 1987.57 738.926 Q1988.5 741.762 1992.28 745.543 Q1996.05 749.312 1998.89 750.245 Q2001.74 751.153 2003.66 749.238 Q2005.58 747.311 2004.66 744.475 Q2003.74 741.615 1999.97 737.846 Q1996.19 734.065 1993.34 733.156 Q1990.5 732.223 1988.57 734.151 M1986.6 732.186 Q1989.69 729.105 1993.75 729.928 Q1997.81 730.726 2002.45 735.366 Q2007.08 739.994 2007.89 744.07 Q2008.7 748.121 2005.62 751.202 Q2002.54 754.283 1998.48 753.485 Q1994.41 752.663 1989.78 748.035 Q1985.14 743.395 1984.33 739.343 Q1983.52 735.268 1986.6 732.186 Z" fill="#000000" fill-rule="nonzero" fill-opacity="1" /><path clip-path="url(#clip270)" d="M2012.84 737.036 L2015.43 734.445 L2018.55 737.563 L2015.96 740.154 L2012.84 737.036 Z" fill="#000000" fill-rule="nonzero" fill-opacity="1" /><path clip-path="url(#clip270)" d="M2021.58 714.767 Q2023.74 713.367 2025.94 713.576 Q2028.15 713.772 2029.91 715.54 Q2032.63 718.253 2032.25 721.604 Q2031.87 724.956 2028.43 728.393 Q2027.28 729.547 2025.81 730.541 Q2024.38 731.536 2022.62 732.383 L2020.23 729.989 Q2021.86 729.559 2023.4 728.639 Q2024.93 727.718 2026.27 726.38 Q2028.6 724.047 2028.9 721.911 Q2029.2 719.763 2027.45 718.008 Q2025.83 716.387 2023.78 716.62 Q2021.73 716.829 2019.7 718.855 L2017.57 720.991 L2015.53 718.953 L2017.76 716.719 Q2019.59 714.889 2019.84 713.195 Q2020.07 711.489 2018.69 710.114 Q2017.28 708.702 2015.53 708.96 Q2013.77 709.193 2011.91 711.059 Q2010.89 712.078 2009.94 713.465 Q2009 714.853 2008.06 716.719 L2005.85 714.509 Q2006.87 712.704 2007.9 711.28 Q2008.95 709.844 2010.04 708.751 Q2012.86 705.928 2015.8 705.572 Q2018.72 705.204 2020.9 707.389 Q2022.43 708.911 2022.61 710.838 Q2022.78 712.753 2021.58 714.767 Z" fill="#000000" fill-rule="nonzero" fill-opacity="1" /><path clip-path="url(#clip270)" d="M2030.59 693.185 L2034.11 709.23 L2040.37 702.969 L2030.59 693.185 M2027.78 691.675 L2030.9 688.557 L2042.84 700.502 L2045.46 697.887 L2047.52 699.949 L2044.9 702.564 L2049.23 706.885 L2046.76 709.353 L2042.44 705.032 L2034.16 713.306 L2031.77 710.912 L2027.78 691.675 Z" fill="#000000" fill-rule="nonzero" fill-opacity="1" /><path clip-path="url(#clip270)" d="M2132.31 733.365 Q2130.4 735.28 2131.32 738.14 Q2132.24 740.976 2136.02 744.757 Q2139.79 748.526 2142.64 749.459 Q2145.49 750.367 2147.4 748.452 Q2149.33 746.525 2148.41 743.689 Q2147.49 740.829 2143.72 737.06 Q2139.94 733.279 2137.09 732.371 Q2134.24 731.438 2132.31 733.365 M2130.35 731.401 Q2133.43 728.32 2137.49 729.142 Q2141.56 729.94 2146.2 734.58 Q2150.83 739.208 2151.64 743.284 Q2152.45 747.335 2149.36 750.416 Q2146.28 753.498 2142.22 752.7 Q2138.16 751.877 2133.53 747.249 Q2128.89 742.609 2128.08 738.558 Q2127.27 734.482 2130.35 731.401 Z" fill="#000000" fill-rule="nonzero" fill-opacity="1" /><path clip-path="url(#clip270)" d="M2156.58 736.25 L2159.17 733.66 L2162.29 736.778 L2159.7 739.368 L2156.58 736.25 Z" fill="#000000" fill-rule="nonzero" fill-opacity="1" /><path clip-path="url(#clip270)" d="M2165.32 713.981 Q2167.48 712.582 2169.68 712.79 Q2171.89 712.987 2173.66 714.754 Q2176.37 717.467 2175.99 720.819 Q2175.61 724.17 2172.17 727.607 Q2171.02 728.761 2169.56 729.756 Q2168.12 730.75 2166.37 731.597 L2163.97 729.203 Q2165.61 728.774 2167.14 727.853 Q2168.67 726.932 2170.01 725.594 Q2172.35 723.262 2172.64 721.126 Q2172.95 718.977 2171.19 717.222 Q2169.57 715.601 2167.52 715.835 Q2165.47 716.043 2163.45 718.069 L2161.31 720.205 L2159.27 718.167 L2161.51 715.933 Q2163.33 714.104 2163.58 712.41 Q2163.81 710.703 2162.44 709.328 Q2161.03 707.917 2159.27 708.174 Q2157.52 708.408 2155.65 710.274 Q2154.63 711.293 2153.69 712.68 Q2152.74 714.067 2151.81 715.933 L2149.6 713.723 Q2150.62 711.919 2151.65 710.495 Q2152.69 709.058 2153.78 707.966 Q2156.61 705.142 2159.54 704.786 Q2162.46 704.418 2164.65 706.603 Q2166.17 708.125 2166.35 710.053 Q2166.53 711.968 2165.32 713.981 Z" fill="#000000" fill-rule="nonzero" fill-opacity="1" /><path clip-path="url(#clip270)" d="M2165.38 697.028 L2175.12 687.293 L2177.21 689.38 L2169.74 696.844 L2174.24 701.337 Q2174.59 700.612 2175.05 699.986 Q2175.49 699.348 2176.03 698.808 Q2179.1 695.739 2182.57 695.628 Q2186.05 695.518 2188.92 698.39 Q2191.88 701.349 2191.68 704.835 Q2191.47 708.309 2188.12 711.661 Q2186.97 712.815 2185.57 713.821 Q2184.18 714.816 2182.51 715.7 L2180.02 713.208 Q2181.72 712.704 2183.2 711.82 Q2184.67 710.937 2185.98 709.623 Q2188.11 707.499 2188.23 705.142 Q2188.35 702.785 2186.44 700.87 Q2184.52 698.955 2182.17 699.078 Q2179.81 699.201 2177.69 701.324 Q2176.69 702.319 2175.92 703.534 Q2175.16 704.737 2174.59 706.235 L2165.38 697.028 Z" fill="#000000" fill-rule="nonzero" fill-opacity="1" /><path clip-path="url(#clip270)" d="M2274.66 733.979 Q2272.74 735.894 2273.66 738.754 Q2274.58 741.59 2278.36 745.371 Q2282.13 749.14 2284.98 750.073 Q2287.83 750.981 2289.74 749.066 Q2291.67 747.139 2290.75 744.303 Q2289.83 741.443 2286.06 737.674 Q2282.28 733.893 2279.43 732.984 Q2276.58 732.051 2274.66 733.979 M2272.69 732.015 Q2275.77 728.933 2279.84 729.756 Q2283.9 730.554 2288.54 735.194 Q2293.17 739.822 2293.98 743.898 Q2294.79 747.949 2291.71 751.03 Q2288.63 754.112 2284.56 753.314 Q2280.5 752.491 2275.87 747.863 Q2271.23 743.223 2270.42 739.172 Q2269.61 735.096 2272.69 732.015 Z" fill="#000000" fill-rule="nonzero" fill-opacity="1" /><path clip-path="url(#clip270)" d="M2298.93 736.864 L2301.52 734.273 L2304.64 737.392 L2302.05 739.982 L2298.93 736.864 Z" fill="#000000" fill-rule="nonzero" fill-opacity="1" /><path clip-path="url(#clip270)" d="M2307.67 714.595 Q2309.83 713.195 2312.03 713.404 Q2314.24 713.6 2316 715.368 Q2318.72 718.081 2318.34 721.433 Q2317.95 724.784 2314.52 728.221 Q2313.36 729.375 2311.9 730.37 Q2310.47 731.364 2308.71 732.211 L2306.32 729.817 Q2307.95 729.388 2309.48 728.467 Q2311.02 727.546 2312.36 726.208 Q2314.69 723.876 2314.98 721.74 Q2315.29 719.591 2313.54 717.836 Q2311.92 716.215 2309.86 716.449 Q2307.81 716.657 2305.79 718.683 L2303.65 720.819 L2301.62 718.781 L2303.85 716.547 Q2305.68 714.718 2305.92 713.023 Q2306.16 711.317 2304.78 709.942 Q2303.37 708.53 2301.62 708.788 Q2299.86 709.021 2297.99 710.887 Q2296.98 711.906 2296.03 713.294 Q2295.08 714.681 2294.15 716.547 L2291.94 714.337 Q2292.96 712.532 2293.99 711.108 Q2295.04 709.672 2296.13 708.58 Q2298.95 705.756 2301.89 705.4 Q2304.81 705.032 2306.99 707.217 Q2308.51 708.739 2308.7 710.666 Q2308.87 712.582 2307.67 714.595 Z" fill="#000000" fill-rule="nonzero" fill-opacity="1" /><path clip-path="url(#clip270)" d="M2321.49 700.232 Q2319.82 701.901 2319.98 704.025 Q2320.15 706.137 2322.14 708.125 Q2324.12 710.102 2326.24 710.286 Q2328.37 710.446 2330.03 708.776 Q2331.7 707.106 2331.53 704.995 Q2331.36 702.859 2329.38 700.882 Q2327.4 698.894 2325.27 698.734 Q2323.16 698.562 2321.49 700.232 M2318.64 687.538 L2320.9 689.797 Q2319.53 690.288 2318.34 691.012 Q2317.16 691.724 2316.22 692.657 Q2313.77 695.113 2314.12 698.071 Q2314.49 701.017 2317.66 704.553 Q2317.32 702.761 2317.84 701.103 Q2318.36 699.434 2319.67 698.12 Q2322.44 695.358 2325.71 695.444 Q2328.99 695.506 2331.88 698.39 Q2334.7 701.214 2334.74 704.59 Q2334.77 707.966 2332 710.74 Q2328.82 713.92 2324.71 713.171 Q2320.58 712.41 2315.95 707.782 Q2311.61 703.436 2311.09 698.795 Q2310.56 694.143 2314.04 690.669 Q2314.97 689.736 2316.1 688.975 Q2317.24 688.201 2318.64 687.538 Z" fill="#000000" fill-rule="nonzero" fill-opacity="1" /><polyline clip-path="url(#clip270)" style="stroke:#000000; stroke-linecap:round; stroke-linejoin:round; stroke-width:4; stroke-opacity:1; fill:none" points="1361.64,662.16 1361.64,97.5521 "/>
<polyline clip-path="url(#clip270)" style="stroke:#000000; stroke-linecap:round; stroke-linejoin:round; stroke-width:4; stroke-opacity:1; fill:none" points="1361.64,646.181 1380.53,646.181 "/>
<polyline clip-path="url(#clip270)" style="stroke:#000000; stroke-linecap:round; stroke-linejoin:round; stroke-width:4; stroke-opacity:1; fill:none" points="1361.64,504.479 1380.53,504.479 "/>
<polyline clip-path="url(#clip270)" style="stroke:#000000; stroke-linecap:round; stroke-linejoin:round; stroke-width:4; stroke-opacity:1; fill:none" points="1361.64,362.776 1380.53,362.776 "/>
<polyline clip-path="url(#clip270)" style="stroke:#000000; stroke-linecap:round; stroke-linejoin:round; stroke-width:4; stroke-opacity:1; fill:none" points="1361.64,221.074 1380.53,221.074 "/>
<path clip-path="url(#clip270)" d="M1260.13 635.53 Q1257.42 635.53 1256.05 638.204 Q1254.7 640.86 1254.7 646.207 Q1254.7 651.537 1256.05 654.21 Q1257.42 656.867 1260.13 656.867 Q1262.86 656.867 1264.21 654.21 Q1265.58 651.537 1265.58 646.207 Q1265.58 640.86 1264.21 638.204 Q1262.86 635.53 1260.13 635.53 M1260.13 632.752 Q1264.49 632.752 1266.78 636.207 Q1269.09 639.645 1269.09 646.207 Q1269.09 652.752 1266.78 656.207 Q1264.49 659.644 1260.13 659.644 Q1255.78 659.644 1253.47 656.207 Q1251.17 652.752 1251.17 646.207 Q1251.17 639.645 1253.47 636.207 Q1255.78 632.752 1260.13 632.752 Z" fill="#000000" fill-rule="nonzero" fill-opacity="1" /><path clip-path="url(#clip270)" d="M1275.25 654.731 L1278.92 654.731 L1278.92 659.141 L1275.25 659.141 L1275.25 654.731 Z" fill="#000000" fill-rule="nonzero" fill-opacity="1" /><path clip-path="url(#clip270)" d="M1294.06 635.53 Q1291.35 635.53 1289.98 638.204 Q1288.62 640.86 1288.62 646.207 Q1288.62 651.537 1289.98 654.21 Q1291.35 656.867 1294.06 656.867 Q1296.78 656.867 1298.14 654.21 Q1299.51 651.537 1299.51 646.207 Q1299.51 640.86 1298.14 638.204 Q1296.78 635.53 1294.06 635.53 M1294.06 632.752 Q1298.41 632.752 1300.71 636.207 Q1303.01 639.645 1303.01 646.207 Q1303.01 652.752 1300.71 656.207 Q1298.41 659.644 1294.06 659.644 Q1289.7 659.644 1287.39 656.207 Q1285.1 652.752 1285.1 646.207 Q1285.1 639.645 1287.39 636.207 Q1289.7 632.752 1294.06 632.752 Z" fill="#000000" fill-rule="nonzero" fill-opacity="1" /><path clip-path="url(#clip270)" d="M1316.68 635.53 Q1313.97 635.53 1312.6 638.204 Q1311.24 640.86 1311.24 646.207 Q1311.24 651.537 1312.6 654.21 Q1313.97 656.867 1316.68 656.867 Q1319.4 656.867 1320.76 654.21 Q1322.13 651.537 1322.13 646.207 Q1322.13 640.86 1320.76 638.204 Q1319.4 635.53 1316.68 635.53 M1316.68 632.752 Q1321.04 632.752 1323.33 636.207 Q1325.64 639.645 1325.64 646.207 Q1325.64 652.752 1323.33 656.207 Q1321.04 659.644 1316.68 659.644 Q1312.32 659.644 1310.01 656.207 Q1307.72 652.752 1307.72 646.207 Q1307.72 639.645 1310.01 636.207 Q1312.32 632.752 1316.68 632.752 Z" fill="#000000" fill-rule="nonzero" fill-opacity="1" /><path clip-path="url(#clip270)" d="M1260.88 493.828 Q1258.17 493.828 1256.8 496.501 Q1255.45 499.157 1255.45 504.505 Q1255.45 509.834 1256.8 512.508 Q1258.17 515.164 1260.88 515.164 Q1263.6 515.164 1264.96 512.508 Q1266.33 509.834 1266.33 504.505 Q1266.33 499.157 1264.96 496.501 Q1263.6 493.828 1260.88 493.828 M1260.88 491.05 Q1265.24 491.05 1267.53 494.505 Q1269.84 497.942 1269.84 504.505 Q1269.84 511.05 1267.53 514.505 Q1265.24 517.942 1260.88 517.942 Q1256.52 517.942 1254.21 514.505 Q1251.92 511.05 1251.92 504.505 Q1251.92 497.942 1254.21 494.505 Q1256.52 491.05 1260.88 491.05 Z" fill="#000000" fill-rule="nonzero" fill-opacity="1" /><path clip-path="url(#clip270)" d="M1276 513.029 L1279.66 513.029 L1279.66 517.439 L1276 517.439 L1276 513.029 Z" fill="#000000" fill-rule="nonzero" fill-opacity="1" /><path clip-path="url(#clip270)" d="M1294.8 493.828 Q1292.09 493.828 1290.72 496.501 Q1289.37 499.157 1289.37 504.505 Q1289.37 509.834 1290.72 512.508 Q1292.09 515.164 1294.8 515.164 Q1297.53 515.164 1298.88 512.508 Q1300.25 509.834 1300.25 504.505 Q1300.25 499.157 1298.88 496.501 Q1297.53 493.828 1294.8 493.828 M1294.8 491.05 Q1299.16 491.05 1301.45 494.505 Q1303.76 497.942 1303.76 504.505 Q1303.76 511.05 1301.45 514.505 Q1299.16 517.942 1294.8 517.942 Q1290.45 517.942 1288.14 514.505 Q1285.84 511.05 1285.84 504.505 Q1285.84 497.942 1288.14 494.505 Q1290.45 491.05 1294.8 491.05 Z" fill="#000000" fill-rule="nonzero" fill-opacity="1" /><path clip-path="url(#clip270)" d="M1309.96 491.519 L1323.73 491.519 L1323.73 494.47 L1313.17 494.47 L1313.17 500.824 Q1313.93 500.564 1314.7 500.442 Q1315.46 500.303 1316.23 500.303 Q1320.57 500.303 1323.1 502.682 Q1325.64 505.06 1325.64 509.123 Q1325.64 513.307 1323.03 515.633 Q1320.43 517.942 1315.69 517.942 Q1314.06 517.942 1312.35 517.664 Q1310.67 517.387 1308.87 516.831 L1308.87 513.307 Q1310.43 514.157 1312.09 514.574 Q1313.76 514.991 1315.62 514.991 Q1318.62 514.991 1320.38 513.411 Q1322.13 511.831 1322.13 509.123 Q1322.13 506.414 1320.38 504.834 Q1318.62 503.255 1315.62 503.255 Q1314.21 503.255 1312.81 503.567 Q1311.42 503.88 1309.96 504.539 L1309.96 491.519 Z" fill="#000000" fill-rule="nonzero" fill-opacity="1" /><path clip-path="url(#clip270)" d="M1260.13 352.125 Q1257.42 352.125 1256.05 354.799 Q1254.7 357.455 1254.7 362.802 Q1254.7 368.132 1256.05 370.806 Q1257.42 373.462 1260.13 373.462 Q1262.86 373.462 1264.21 370.806 Q1265.58 368.132 1265.58 362.802 Q1265.58 357.455 1264.21 354.799 Q1262.86 352.125 1260.13 352.125 M1260.13 349.347 Q1264.49 349.347 1266.78 352.802 Q1269.09 356.24 1269.09 362.802 Q1269.09 369.347 1266.78 372.802 Q1264.49 376.24 1260.13 376.24 Q1255.78 376.24 1253.47 372.802 Q1251.17 369.347 1251.17 362.802 Q1251.17 356.24 1253.47 352.802 Q1255.78 349.347 1260.13 349.347 Z" fill="#000000" fill-rule="nonzero" fill-opacity="1" /><path clip-path="url(#clip270)" d="M1275.25 371.327 L1278.92 371.327 L1278.92 375.736 L1275.25 375.736 L1275.25 371.327 Z" fill="#000000" fill-rule="nonzero" fill-opacity="1" /><path clip-path="url(#clip270)" d="M1287.16 372.785 L1292.89 372.785 L1292.89 353.011 L1286.66 354.261 L1286.66 351.066 L1292.86 349.816 L1296.37 349.816 L1296.37 372.785 L1302.09 372.785 L1302.09 375.736 L1287.16 375.736 L1287.16 372.785 Z" fill="#000000" fill-rule="nonzero" fill-opacity="1" /><path clip-path="url(#clip270)" d="M1316.68 352.125 Q1313.97 352.125 1312.6 354.799 Q1311.24 357.455 1311.24 362.802 Q1311.24 368.132 1312.6 370.806 Q1313.97 373.462 1316.68 373.462 Q1319.4 373.462 1320.76 370.806 Q1322.13 368.132 1322.13 362.802 Q1322.13 357.455 1320.76 354.799 Q1319.4 352.125 1316.68 352.125 M1316.68 349.347 Q1321.04 349.347 1323.33 352.802 Q1325.64 356.24 1325.64 362.802 Q1325.64 369.347 1323.33 372.802 Q1321.04 376.24 1316.68 376.24 Q1312.32 376.24 1310.01 372.802 Q1307.72 369.347 1307.72 362.802 Q1307.72 356.24 1310.01 352.802 Q1312.32 349.347 1316.68 349.347 Z" fill="#000000" fill-rule="nonzero" fill-opacity="1" /><path clip-path="url(#clip270)" d="M1260.88 210.423 Q1258.17 210.423 1256.8 213.097 Q1255.45 215.753 1255.45 221.1 Q1255.45 226.43 1256.8 229.103 Q1258.17 231.76 1260.88 231.76 Q1263.6 231.76 1264.96 229.103 Q1266.33 226.43 1266.33 221.1 Q1266.33 215.753 1264.96 213.097 Q1263.6 210.423 1260.88 210.423 M1260.88 207.645 Q1265.24 207.645 1267.53 211.1 Q1269.84 214.537 1269.84 221.1 Q1269.84 227.645 1267.53 231.1 Q1265.24 234.537 1260.88 234.537 Q1256.52 234.537 1254.21 231.1 Q1251.92 227.645 1251.92 221.1 Q1251.92 214.537 1254.21 211.1 Q1256.52 207.645 1260.88 207.645 Z" fill="#000000" fill-rule="nonzero" fill-opacity="1" /><path clip-path="url(#clip270)" d="M1276 229.624 L1279.66 229.624 L1279.66 234.034 L1276 234.034 L1276 229.624 Z" fill="#000000" fill-rule="nonzero" fill-opacity="1" /><path clip-path="url(#clip270)" d="M1287.91 231.083 L1293.64 231.083 L1293.64 211.308 L1287.41 212.558 L1287.41 209.364 L1293.6 208.114 L1297.11 208.114 L1297.11 231.083 L1302.84 231.083 L1302.84 234.034 L1287.91 234.034 L1287.91 231.083 Z" fill="#000000" fill-rule="nonzero" fill-opacity="1" /><path clip-path="url(#clip270)" d="M1309.96 208.114 L1323.73 208.114 L1323.73 211.065 L1313.17 211.065 L1313.17 217.419 Q1313.93 217.159 1314.7 217.037 Q1315.46 216.899 1316.23 216.899 Q1320.57 216.899 1323.1 219.277 Q1325.64 221.655 1325.64 225.718 Q1325.64 229.902 1323.03 232.228 Q1320.43 234.537 1315.69 234.537 Q1314.06 234.537 1312.35 234.26 Q1310.67 233.982 1308.87 233.426 L1308.87 229.902 Q1310.43 230.753 1312.09 231.169 Q1313.76 231.586 1315.62 231.586 Q1318.62 231.586 1320.38 230.006 Q1322.13 228.426 1322.13 225.718 Q1322.13 223.01 1320.38 221.43 Q1318.62 219.85 1315.62 219.85 Q1314.21 219.85 1312.81 220.162 Q1311.42 220.475 1309.96 221.135 L1309.96 208.114 Z" fill="#000000" fill-rule="nonzero" fill-opacity="1" /><path clip-path="url(#clip270)" d="M1373.53 18.9258 Q1370.02 18.9258 1368.12 21.4721 Q1366.13 24.1341 1366.13 28.5323 Q1366.13 33.185 1368.09 35.8702 Q1370.08 38.5322 1373.53 38.5322 Q1376.94 38.5322 1378.93 35.847 Q1380.92 33.1619 1380.92 28.5323 Q1380.92 24.2962 1378.93 21.4721 Q1377.1 18.9258 1373.53 18.9258 M1373.53 15.5462 L1387.68 15.5462 L1387.68 19.8054 L1382.91 19.8054 Q1385.43 23.4165 1385.43 28.5323 Q1385.43 34.898 1382.26 38.5091 Q1379.09 42.1433 1373.53 42.1433 Q1367.96 42.1433 1364.81 38.5091 Q1361.64 34.898 1361.64 28.5323 Q1361.64 22.1203 1364.81 18.5323 Q1367.42 15.5462 1373.53 15.5462 Z" fill="#000000" fill-rule="nonzero" fill-opacity="1" /><path clip-path="url(#clip270)" d="M1411.84 19.6666 Q1410.99 19.3656 1410.13 19.1342 Q1407.84 18.5323 1405.39 18.5323 Q1401.15 18.5323 1398.79 20.824 Q1396.59 22.9536 1396.17 26.8656 L1411.84 26.8656 L1411.84 30.1989 L1396.17 30.1989 Q1396.59 34.1109 1398.79 36.2405 Q1401.15 38.5322 1405.39 38.5322 Q1408.35 38.5322 1410.13 37.9304 L1411.84 37.3517 L1411.84 41.2174 L1410.02 41.634 Q1407.61 42.1433 1405.13 42.1433 Q1398.93 42.1433 1395.32 38.5322 Q1391.68 34.9211 1391.68 28.5323 Q1391.68 22.1434 1395.32 18.5323 Q1398.93 14.9212 1405.13 14.9212 Q1407.47 14.9212 1410.02 15.4305 Q1410.94 15.6157 1411.84 15.8934 L1411.84 19.6666 Z" fill="#000000" fill-rule="nonzero" fill-opacity="1" /><polyline clip-path="url(#clip273)" style="stroke:#009af9; stroke-linecap:round; stroke-linejoin:round; stroke-width:4; stroke-opacity:1; fill:none" points="1389.69,164.313 1448.13,221.769 1506.56,280.019 1565,339.062 1623.44,398.899 1681.88,459.529 1740.32,520.953 1798.76,583.17 1857.2,646.181 1915.63,582.377 1974.07,517.779 2032.51,452.388 2090.95,386.204 2149.39,319.226 2207.83,251.455 2266.27,182.89 2324.71,113.532 "/>
<circle clip-path="url(#clip273)" cx="1857.2" cy="646.181" r="10.8" fill="#ff0000" fill-rule="evenodd" fill-opacity="1" stroke="#000000" stroke-opacity="1" stroke-width="3.2"/>
<path clip-path="url(#clip270)" d="M161.818 1456.91 L1152.94 1456.91 L1152.94 892.306 L161.818 892.306  Z" fill="#ffffff" fill-rule="evenodd" fill-opacity="1"/>
<defs>
  <clipPath id="clip274">
    <rect x="161" y="892" width="992" height="566"/>
  </clipPath>
</defs>
<polyline clip-path="url(#clip274)" style="stroke:#000000; stroke-linecap:round; stroke-linejoin:round; stroke-width:2; stroke-opacity:0.1; fill:none" points="289.192,1456.91 289.192,892.306 "/>
<polyline clip-path="url(#clip274)" style="stroke:#000000; stroke-linecap:round; stroke-linejoin:round; stroke-width:2; stroke-opacity:0.1; fill:none" points="504.538,1456.91 504.538,892.306 "/>
<polyline clip-path="url(#clip274)" style="stroke:#000000; stroke-linecap:round; stroke-linejoin:round; stroke-width:2; stroke-opacity:0.1; fill:none" points="719.883,1456.91 719.883,892.306 "/>
<polyline clip-path="url(#clip274)" style="stroke:#000000; stroke-linecap:round; stroke-linejoin:round; stroke-width:2; stroke-opacity:0.1; fill:none" points="935.228,1456.91 935.228,892.306 "/>
<polyline clip-path="url(#clip274)" style="stroke:#000000; stroke-linecap:round; stroke-linejoin:round; stroke-width:2; stroke-opacity:0.1; fill:none" points="1150.57,1456.91 1150.57,892.306 "/>
<polyline clip-path="url(#clip274)" style="stroke:#000000; stroke-linecap:round; stroke-linejoin:round; stroke-width:2; stroke-opacity:0.1; fill:none" points="161.818,1440.94 1152.94,1440.94 "/>
<polyline clip-path="url(#clip274)" style="stroke:#000000; stroke-linecap:round; stroke-linejoin:round; stroke-width:2; stroke-opacity:0.1; fill:none" points="161.818,1321.11 1152.94,1321.11 "/>
<polyline clip-path="url(#clip274)" style="stroke:#000000; stroke-linecap:round; stroke-linejoin:round; stroke-width:2; stroke-opacity:0.1; fill:none" points="161.818,1201.28 1152.94,1201.28 "/>
<polyline clip-path="url(#clip274)" style="stroke:#000000; stroke-linecap:round; stroke-linejoin:round; stroke-width:2; stroke-opacity:0.1; fill:none" points="161.818,1081.45 1152.94,1081.45 "/>
<polyline clip-path="url(#clip274)" style="stroke:#000000; stroke-linecap:round; stroke-linejoin:round; stroke-width:2; stroke-opacity:0.1; fill:none" points="161.818,961.617 1152.94,961.617 "/>
<polyline clip-path="url(#clip270)" style="stroke:#000000; stroke-linecap:round; stroke-linejoin:round; stroke-width:4; stroke-opacity:1; fill:none" points="161.818,1456.91 1152.94,1456.91 "/>
<polyline clip-path="url(#clip270)" style="stroke:#000000; stroke-linecap:round; stroke-linejoin:round; stroke-width:4; stroke-opacity:1; fill:none" points="289.192,1456.91 289.192,1438.02 "/>
<polyline clip-path="url(#clip270)" style="stroke:#000000; stroke-linecap:round; stroke-linejoin:round; stroke-width:4; stroke-opacity:1; fill:none" points="504.538,1456.91 504.538,1438.02 "/>
<polyline clip-path="url(#clip270)" style="stroke:#000000; stroke-linecap:round; stroke-linejoin:round; stroke-width:4; stroke-opacity:1; fill:none" points="719.883,1456.91 719.883,1438.02 "/>
<polyline clip-path="url(#clip270)" style="stroke:#000000; stroke-linecap:round; stroke-linejoin:round; stroke-width:4; stroke-opacity:1; fill:none" points="935.228,1456.91 935.228,1438.02 "/>
<polyline clip-path="url(#clip270)" style="stroke:#000000; stroke-linecap:round; stroke-linejoin:round; stroke-width:4; stroke-opacity:1; fill:none" points="1150.57,1456.91 1150.57,1438.02 "/>
<path clip-path="url(#clip270)" d="M219.347 1544.64 Q217.432 1546.56 218.353 1549.42 Q219.274 1552.25 223.055 1556.03 Q226.823 1559.8 229.671 1560.74 Q232.52 1561.65 234.435 1559.73 Q236.362 1557.8 235.441 1554.97 Q234.521 1552.11 230.752 1548.34 Q226.971 1544.56 224.123 1543.65 Q221.275 1542.72 219.347 1544.64 M217.383 1542.68 Q220.464 1539.6 224.528 1540.42 Q228.591 1541.22 233.232 1545.86 Q237.86 1550.49 238.67 1554.56 Q239.48 1558.61 236.399 1561.69 Q233.317 1564.78 229.254 1563.98 Q225.191 1563.15 220.563 1558.53 Q215.922 1553.89 215.112 1549.84 Q214.302 1545.76 217.383 1542.68 Z" fill="#000000" fill-rule="nonzero" fill-opacity="1" /><path clip-path="url(#clip270)" d="M243.617 1547.53 L246.207 1544.94 L249.325 1548.06 L246.735 1550.65 L243.617 1547.53 Z" fill="#000000" fill-rule="nonzero" fill-opacity="1" /><path clip-path="url(#clip270)" d="M236.423 1524.3 L246.158 1514.57 L248.245 1516.65 L240.781 1524.12 L245.274 1528.61 Q245.63 1527.89 246.085 1527.26 Q246.527 1526.62 247.067 1526.08 Q250.136 1523.01 253.61 1522.9 Q257.084 1522.79 259.957 1525.66 Q262.915 1528.62 262.719 1532.11 Q262.51 1535.58 259.159 1538.93 Q258.005 1540.09 256.605 1541.09 Q255.218 1542.09 253.548 1542.97 L251.056 1540.48 Q252.763 1539.98 254.236 1539.09 Q255.709 1538.21 257.023 1536.9 Q259.146 1534.77 259.269 1532.42 Q259.392 1530.06 257.477 1528.14 Q255.562 1526.23 253.205 1526.35 Q250.848 1526.47 248.724 1528.6 Q247.73 1529.59 246.956 1530.81 Q246.195 1532.01 245.63 1533.51 L236.423 1524.3 Z" fill="#000000" fill-rule="nonzero" fill-opacity="1" /><path clip-path="url(#clip270)" d="M259.331 1504.66 Q257.415 1506.57 258.336 1509.43 Q259.257 1512.27 263.038 1516.05 Q266.807 1519.82 269.655 1520.75 Q272.503 1521.66 274.418 1519.75 Q276.345 1517.82 275.424 1514.98 Q274.504 1512.12 270.735 1508.35 Q266.954 1504.57 264.106 1503.67 Q261.258 1502.73 259.331 1504.66 M257.366 1502.7 Q260.448 1499.61 264.511 1500.44 Q268.574 1501.23 273.215 1505.87 Q277.843 1510.5 278.653 1514.58 Q279.463 1518.63 276.382 1521.71 Q273.301 1524.79 269.237 1523.99 Q265.174 1523.17 260.546 1518.54 Q255.905 1513.9 255.095 1509.85 Q254.285 1505.78 257.366 1502.7 Z" fill="#000000" fill-rule="nonzero" fill-opacity="1" /><path clip-path="url(#clip270)" d="M275.326 1488.66 Q273.411 1490.58 274.332 1493.44 Q275.253 1496.27 279.034 1500.06 Q282.802 1503.82 285.65 1504.76 Q288.499 1505.67 290.414 1503.75 Q292.341 1501.82 291.42 1498.99 Q290.5 1496.13 286.731 1492.36 Q282.95 1488.58 280.102 1487.67 Q277.254 1486.74 275.326 1488.66 M273.362 1486.7 Q276.443 1483.62 280.507 1484.44 Q284.57 1485.24 289.211 1489.88 Q293.839 1494.51 294.649 1498.58 Q295.459 1502.63 292.378 1505.72 Q289.296 1508.8 285.233 1508 Q281.17 1507.18 276.542 1502.55 Q271.901 1497.91 271.091 1493.86 Q270.281 1489.78 273.362 1486.7 Z" fill="#000000" fill-rule="nonzero" fill-opacity="1" /><path clip-path="url(#clip270)" d="M435.221 1544.11 Q433.306 1546.03 434.226 1548.89 Q435.147 1551.73 438.928 1555.51 Q442.697 1559.28 445.545 1560.21 Q448.393 1561.12 450.308 1559.2 Q452.235 1557.27 451.315 1554.44 Q450.394 1551.58 446.625 1547.81 Q442.844 1544.03 439.996 1543.12 Q437.148 1542.19 435.221 1544.11 M433.256 1542.15 Q436.338 1539.07 440.401 1539.89 Q444.464 1540.69 449.105 1545.33 Q453.733 1549.96 454.543 1554.03 Q455.353 1558.08 452.272 1561.17 Q449.191 1564.25 445.127 1563.45 Q441.064 1562.63 436.436 1558 Q431.796 1553.36 430.985 1549.31 Q430.175 1545.23 433.256 1542.15 Z" fill="#000000" fill-rule="nonzero" fill-opacity="1" /><path clip-path="url(#clip270)" d="M459.49 1547 L462.081 1544.41 L465.199 1547.53 L462.609 1550.12 L459.49 1547 Z" fill="#000000" fill-rule="nonzero" fill-opacity="1" /><path clip-path="url(#clip270)" d="M452.297 1523.77 L462.032 1514.04 L464.119 1516.13 L456.655 1523.59 L461.148 1528.08 Q461.504 1527.36 461.958 1526.73 Q462.4 1526.09 462.94 1525.55 Q466.009 1522.48 469.483 1522.37 Q472.957 1522.26 475.83 1525.14 Q478.788 1528.09 478.592 1531.58 Q478.383 1535.05 475.032 1538.41 Q473.878 1539.56 472.479 1540.57 Q471.091 1541.56 469.422 1542.45 L466.93 1539.95 Q468.636 1539.45 470.109 1538.57 Q471.582 1537.68 472.896 1536.37 Q475.02 1534.24 475.142 1531.89 Q475.265 1529.53 473.35 1527.62 Q471.435 1525.7 469.078 1525.82 Q466.721 1525.95 464.597 1528.07 Q463.603 1529.06 462.83 1530.28 Q462.068 1531.48 461.504 1532.98 L452.297 1523.77 Z" fill="#000000" fill-rule="nonzero" fill-opacity="1" /><path clip-path="url(#clip270)" d="M486.645 1521.91 L495.3 1513.25 L497.387 1515.34 L485.749 1526.98 L483.662 1524.89 Q483.613 1522.02 483.588 1517.13 Q483.564 1512.22 483.478 1510.88 Q483.331 1508.35 482.876 1506.97 Q482.422 1505.56 481.526 1504.66 Q480.065 1503.2 478.113 1503.31 Q476.174 1503.41 474.529 1505.05 Q473.362 1506.22 472.466 1507.92 Q471.582 1509.62 470.932 1511.91 L468.427 1509.41 Q469.324 1507.31 470.318 1505.7 Q471.312 1504.09 472.393 1503.01 Q475.241 1500.17 478.359 1499.9 Q481.477 1499.63 483.858 1502.01 Q484.988 1503.14 485.577 1504.59 Q486.166 1506.01 486.424 1508.5 Q486.473 1509.16 486.535 1512.52 Q486.584 1515.86 486.645 1521.91 Z" fill="#000000" fill-rule="nonzero" fill-opacity="1" /><path clip-path="url(#clip270)" d="M484.288 1491.78 L494.023 1482.05 L496.11 1484.13 L488.646 1491.6 L493.139 1496.09 Q493.495 1495.37 493.949 1494.74 Q494.391 1494.1 494.931 1493.56 Q498.001 1490.49 501.475 1490.38 Q504.949 1490.27 507.821 1493.14 Q510.78 1496.1 510.584 1499.59 Q510.375 1503.06 507.023 1506.41 Q505.869 1507.57 504.47 1508.58 Q503.083 1509.57 501.413 1510.45 L498.921 1507.96 Q500.628 1507.46 502.101 1506.57 Q503.574 1505.69 504.887 1504.38 Q507.011 1502.25 507.134 1499.9 Q507.257 1497.54 505.342 1495.62 Q503.427 1493.71 501.07 1493.83 Q498.713 1493.95 496.589 1496.08 Q495.594 1497.07 494.821 1498.29 Q494.06 1499.49 493.495 1500.99 L484.288 1491.78 Z" fill="#000000" fill-rule="nonzero" fill-opacity="1" /><path clip-path="url(#clip270)" d="M650.038 1544.64 Q648.123 1546.56 649.044 1549.42 Q649.964 1552.25 653.746 1556.03 Q657.514 1559.8 660.362 1560.74 Q663.21 1561.65 665.125 1559.73 Q667.053 1557.8 666.132 1554.97 Q665.211 1552.11 661.443 1548.34 Q657.662 1544.56 654.814 1543.65 Q651.965 1542.72 650.038 1544.64 M648.074 1542.68 Q651.155 1539.6 655.219 1540.42 Q659.282 1541.22 663.922 1545.86 Q668.55 1550.49 669.361 1554.56 Q670.171 1558.61 667.09 1561.69 Q664.008 1564.78 659.945 1563.98 Q655.882 1563.15 651.253 1558.53 Q646.613 1553.89 645.803 1549.84 Q644.993 1545.76 648.074 1542.68 Z" fill="#000000" fill-rule="nonzero" fill-opacity="1" /><path clip-path="url(#clip270)" d="M674.308 1547.53 L676.898 1544.94 L680.016 1548.06 L677.426 1550.65 L674.308 1547.53 Z" fill="#000000" fill-rule="nonzero" fill-opacity="1" /><path clip-path="url(#clip270)" d="M667.114 1524.3 L676.849 1514.57 L678.936 1516.65 L671.472 1524.12 L675.965 1528.61 Q676.321 1527.89 676.775 1527.26 Q677.217 1526.62 677.758 1526.08 Q680.827 1523.01 684.301 1522.9 Q687.775 1522.79 690.647 1525.66 Q693.606 1528.62 693.41 1532.11 Q693.201 1535.58 689.85 1538.93 Q688.696 1540.09 687.296 1541.09 Q685.909 1542.09 684.239 1542.97 L681.747 1540.48 Q683.454 1539.98 684.927 1539.09 Q686.4 1538.21 687.713 1536.9 Q689.837 1534.77 689.96 1532.42 Q690.083 1530.06 688.168 1528.14 Q686.253 1526.23 683.896 1526.35 Q681.539 1526.47 679.415 1528.6 Q678.42 1529.59 677.647 1530.81 Q676.886 1532.01 676.321 1533.51 L667.114 1524.3 Z" fill="#000000" fill-rule="nonzero" fill-opacity="1" /><path clip-path="url(#clip270)" d="M683.11 1508.31 L692.845 1498.57 L694.932 1500.66 L687.468 1508.12 L691.961 1512.61 Q692.317 1511.89 692.771 1511.26 Q693.213 1510.63 693.753 1510.09 Q696.822 1507.02 700.296 1506.91 Q703.771 1506.8 706.643 1509.67 Q709.602 1512.63 709.405 1516.11 Q709.197 1519.59 705.845 1522.94 Q704.691 1524.09 703.292 1525.1 Q701.905 1526.09 700.235 1526.98 L697.743 1524.49 Q699.449 1523.98 700.923 1523.1 Q702.396 1522.21 703.709 1520.9 Q705.833 1518.78 705.956 1516.42 Q706.079 1514.06 704.163 1512.15 Q702.248 1510.23 699.891 1510.36 Q697.534 1510.48 695.411 1512.6 Q694.416 1513.6 693.643 1514.81 Q692.882 1516.01 692.317 1517.51 L683.11 1508.31 Z" fill="#000000" fill-rule="nonzero" fill-opacity="1" /><path clip-path="url(#clip270)" d="M706.017 1488.66 Q704.102 1490.58 705.023 1493.44 Q705.943 1496.27 709.725 1500.06 Q713.493 1503.82 716.341 1504.76 Q719.189 1505.67 721.104 1503.75 Q723.032 1501.82 722.111 1498.99 Q721.19 1496.13 717.422 1492.36 Q713.641 1488.58 710.793 1487.67 Q707.944 1486.74 706.017 1488.66 M704.053 1486.7 Q707.134 1483.62 711.198 1484.44 Q715.261 1485.24 719.901 1489.88 Q724.529 1494.51 725.34 1498.58 Q726.15 1502.63 723.069 1505.72 Q719.987 1508.8 715.924 1508 Q711.861 1507.18 707.232 1502.55 Q702.592 1497.91 701.782 1493.86 Q700.972 1489.78 704.053 1486.7 Z" fill="#000000" fill-rule="nonzero" fill-opacity="1" /><path clip-path="url(#clip270)" d="M865.911 1544.11 Q863.996 1546.03 864.917 1548.89 Q865.838 1551.73 869.619 1555.51 Q873.388 1559.28 876.236 1560.21 Q879.084 1561.12 880.999 1559.2 Q882.926 1557.27 882.005 1554.44 Q881.085 1551.58 877.316 1547.81 Q873.535 1544.03 870.687 1543.12 Q867.839 1542.19 865.911 1544.11 M863.947 1542.15 Q867.029 1539.07 871.092 1539.89 Q875.155 1540.69 879.796 1545.33 Q884.424 1549.96 885.234 1554.03 Q886.044 1558.08 882.963 1561.17 Q879.882 1564.25 875.818 1563.45 Q871.755 1562.63 867.127 1558 Q862.486 1553.36 861.676 1549.31 Q860.866 1545.23 863.947 1542.15 Z" fill="#000000" fill-rule="nonzero" fill-opacity="1" /><path clip-path="url(#clip270)" d="M890.181 1547 L892.772 1544.41 L895.89 1547.53 L893.299 1550.12 L890.181 1547 Z" fill="#000000" fill-rule="nonzero" fill-opacity="1" /><path clip-path="url(#clip270)" d="M882.987 1523.77 L892.722 1514.04 L894.809 1516.13 L887.346 1523.59 L891.839 1528.08 Q892.195 1527.36 892.649 1526.73 Q893.091 1526.09 893.631 1525.55 Q896.7 1522.48 900.174 1522.37 Q903.648 1522.26 906.521 1525.14 Q909.479 1528.09 909.283 1531.58 Q909.074 1535.05 905.723 1538.41 Q904.569 1539.56 903.169 1540.57 Q901.782 1541.56 900.113 1542.45 L897.621 1539.95 Q899.327 1539.45 900.8 1538.57 Q902.273 1537.68 903.587 1536.37 Q905.711 1534.24 905.833 1531.89 Q905.956 1529.53 904.041 1527.62 Q902.126 1525.7 899.769 1525.82 Q897.412 1525.95 895.288 1528.07 Q894.294 1529.06 893.52 1530.28 Q892.759 1531.48 892.195 1532.98 L882.987 1523.77 Z" fill="#000000" fill-rule="nonzero" fill-opacity="1" /><path clip-path="url(#clip270)" d="M898.333 1508.43 L910.118 1496.64 L911.173 1497.7 L921.792 1521.62 L919.202 1524.22 L909.222 1501.71 L900.42 1510.52 L898.333 1508.43 Z" fill="#000000" fill-rule="nonzero" fill-opacity="1" /><path clip-path="url(#clip270)" d="M914.979 1491.78 L924.714 1482.05 L926.801 1484.13 L919.337 1491.6 L923.83 1496.09 Q924.186 1495.37 924.64 1494.74 Q925.082 1494.1 925.622 1493.56 Q928.691 1490.49 932.166 1490.38 Q935.64 1490.27 938.512 1493.14 Q941.471 1496.1 941.274 1499.59 Q941.066 1503.06 937.714 1506.41 Q936.56 1507.57 935.161 1508.58 Q933.774 1509.57 932.104 1510.45 L929.612 1507.96 Q931.318 1507.46 932.792 1506.57 Q934.265 1505.69 935.578 1504.38 Q937.702 1502.25 937.825 1499.9 Q937.948 1497.54 936.032 1495.62 Q934.117 1493.71 931.76 1493.83 Q929.403 1493.95 927.28 1496.08 Q926.285 1497.07 925.512 1498.29 Q924.751 1499.49 924.186 1500.99 L914.979 1491.78 Z" fill="#000000" fill-rule="nonzero" fill-opacity="1" /><path clip-path="url(#clip270)" d="M1080.73 1544.64 Q1078.81 1546.56 1079.73 1549.42 Q1080.66 1552.25 1084.44 1556.03 Q1088.21 1559.8 1091.05 1560.74 Q1093.9 1561.65 1095.82 1559.73 Q1097.74 1557.8 1096.82 1554.97 Q1095.9 1552.11 1092.13 1548.34 Q1088.35 1544.56 1085.5 1543.65 Q1082.66 1542.72 1080.73 1544.64 M1078.76 1542.68 Q1081.85 1539.6 1085.91 1540.42 Q1089.97 1541.22 1094.61 1545.86 Q1099.24 1550.49 1100.05 1554.56 Q1100.86 1558.61 1097.78 1561.69 Q1094.7 1564.78 1090.64 1563.98 Q1086.57 1563.15 1081.94 1558.53 Q1077.3 1553.89 1076.49 1549.84 Q1075.68 1545.76 1078.76 1542.68 Z" fill="#000000" fill-rule="nonzero" fill-opacity="1" /><path clip-path="url(#clip270)" d="M1105 1547.53 L1107.59 1544.94 L1110.71 1548.06 L1108.12 1550.65 L1105 1547.53 Z" fill="#000000" fill-rule="nonzero" fill-opacity="1" /><path clip-path="url(#clip270)" d="M1111.57 1526.89 Q1109.9 1528.56 1110.06 1530.68 Q1110.23 1532.8 1112.22 1534.78 Q1114.19 1536.76 1116.32 1536.95 Q1118.44 1537.11 1120.11 1535.44 Q1121.78 1533.77 1121.61 1531.65 Q1121.44 1529.52 1119.46 1527.54 Q1117.47 1525.55 1115.35 1525.39 Q1113.24 1525.22 1111.57 1526.89 M1108.72 1514.2 L1110.98 1516.46 Q1109.6 1516.95 1108.41 1517.67 Q1107.23 1518.38 1106.3 1519.32 Q1103.84 1521.77 1104.2 1524.73 Q1104.57 1527.68 1107.74 1531.21 Q1107.39 1529.42 1107.92 1527.76 Q1108.44 1526.09 1109.75 1524.78 Q1112.51 1522.02 1115.79 1522.1 Q1119.07 1522.17 1121.95 1525.05 Q1124.78 1527.87 1124.81 1531.25 Q1124.85 1534.63 1122.07 1537.4 Q1118.9 1540.58 1114.78 1539.83 Q1110.66 1539.07 1106.03 1534.44 Q1101.68 1530.1 1101.17 1525.46 Q1100.64 1520.8 1104.11 1517.33 Q1105.05 1516.4 1106.18 1515.63 Q1107.32 1514.86 1108.72 1514.2 Z" fill="#000000" fill-rule="nonzero" fill-opacity="1" /><path clip-path="url(#clip270)" d="M1120.71 1504.66 Q1118.8 1506.57 1119.72 1509.43 Q1120.64 1512.27 1124.42 1516.05 Q1128.19 1519.82 1131.04 1520.75 Q1133.88 1521.66 1135.8 1519.75 Q1137.73 1517.82 1136.81 1514.98 Q1135.89 1512.12 1132.12 1508.35 Q1128.34 1504.57 1125.49 1503.67 Q1122.64 1502.73 1120.71 1504.66 M1118.75 1502.7 Q1121.83 1499.61 1125.89 1500.44 Q1129.96 1501.23 1134.6 1505.87 Q1139.22 1510.5 1140.03 1514.58 Q1140.85 1518.63 1137.76 1521.71 Q1134.68 1524.79 1130.62 1523.99 Q1126.56 1523.17 1121.93 1518.54 Q1117.29 1513.9 1116.48 1509.85 Q1115.67 1505.78 1118.75 1502.7 Z" fill="#000000" fill-rule="nonzero" fill-opacity="1" /><path clip-path="url(#clip270)" d="M1136.71 1488.66 Q1134.79 1490.58 1135.71 1493.44 Q1136.63 1496.27 1140.42 1500.06 Q1144.18 1503.82 1147.03 1504.76 Q1149.88 1505.67 1151.8 1503.75 Q1153.72 1501.82 1152.8 1498.99 Q1151.88 1496.13 1148.11 1492.36 Q1144.33 1488.58 1141.48 1487.67 Q1138.64 1486.74 1136.71 1488.66 M1134.74 1486.7 Q1137.83 1483.62 1141.89 1484.44 Q1145.95 1485.24 1150.59 1489.88 Q1155.22 1494.51 1156.03 1498.58 Q1156.84 1502.63 1153.76 1505.72 Q1150.68 1508.8 1146.61 1508 Q1142.55 1507.18 1137.92 1502.55 Q1133.28 1497.91 1132.47 1493.86 Q1131.66 1489.78 1134.74 1486.7 Z" fill="#000000" fill-rule="nonzero" fill-opacity="1" /><polyline clip-path="url(#clip270)" style="stroke:#000000; stroke-linecap:round; stroke-linejoin:round; stroke-width:4; stroke-opacity:1; fill:none" points="161.818,1456.91 161.818,892.306 "/>
<polyline clip-path="url(#clip270)" style="stroke:#000000; stroke-linecap:round; stroke-linejoin:round; stroke-width:4; stroke-opacity:1; fill:none" points="161.818,1440.94 180.716,1440.94 "/>
<polyline clip-path="url(#clip270)" style="stroke:#000000; stroke-linecap:round; stroke-linejoin:round; stroke-width:4; stroke-opacity:1; fill:none" points="161.818,1321.11 180.716,1321.11 "/>
<polyline clip-path="url(#clip270)" style="stroke:#000000; stroke-linecap:round; stroke-linejoin:round; stroke-width:4; stroke-opacity:1; fill:none" points="161.818,1201.28 180.716,1201.28 "/>
<polyline clip-path="url(#clip270)" style="stroke:#000000; stroke-linecap:round; stroke-linejoin:round; stroke-width:4; stroke-opacity:1; fill:none" points="161.818,1081.45 180.716,1081.45 "/>
<polyline clip-path="url(#clip270)" style="stroke:#000000; stroke-linecap:round; stroke-linejoin:round; stroke-width:4; stroke-opacity:1; fill:none" points="161.818,961.617 180.716,961.617 "/>
<path clip-path="url(#clip270)" d="M60.315 1430.28 Q57.6067 1430.28 56.2352 1432.96 Q54.881 1435.61 54.881 1440.96 Q54.881 1446.29 56.2352 1448.96 Q57.6067 1451.62 60.315 1451.62 Q63.0407 1451.62 64.3948 1448.96 Q65.7664 1446.29 65.7664 1440.96 Q65.7664 1435.61 64.3948 1432.96 Q63.0407 1430.28 60.315 1430.28 M60.315 1427.51 Q64.6726 1427.51 66.9643 1430.96 Q69.2733 1434.4 69.2733 1440.96 Q69.2733 1447.51 66.9643 1450.96 Q64.6726 1454.4 60.315 1454.4 Q55.9574 1454.4 53.6484 1450.96 Q51.3567 1447.51 51.3567 1440.96 Q51.3567 1434.4 53.6484 1430.96 Q55.9574 1427.51 60.315 1427.51 Z" fill="#000000" fill-rule="nonzero" fill-opacity="1" /><path clip-path="url(#clip270)" d="M75.4364 1449.49 L79.0996 1449.49 L79.0996 1453.9 L75.4364 1453.9 L75.4364 1449.49 Z" fill="#000000" fill-rule="nonzero" fill-opacity="1" /><path clip-path="url(#clip270)" d="M94.2384 1430.28 Q91.5301 1430.28 90.1586 1432.96 Q88.8044 1435.61 88.8044 1440.96 Q88.8044 1446.29 90.1586 1448.96 Q91.5301 1451.62 94.2384 1451.62 Q96.9641 1451.62 98.3183 1448.96 Q99.6898 1446.29 99.6898 1440.96 Q99.6898 1435.61 98.3183 1432.96 Q96.9641 1430.28 94.2384 1430.28 M94.2384 1427.51 Q98.596 1427.51 100.888 1430.96 Q103.197 1434.4 103.197 1440.96 Q103.197 1447.51 100.888 1450.96 Q98.596 1454.4 94.2384 1454.4 Q89.8808 1454.4 87.5718 1450.96 Q85.2801 1447.51 85.2801 1440.96 Q85.2801 1434.4 87.5718 1430.96 Q89.8808 1427.51 94.2384 1427.51 Z" fill="#000000" fill-rule="nonzero" fill-opacity="1" /><path clip-path="url(#clip270)" d="M116.86 1430.28 Q114.152 1430.28 112.78 1432.96 Q111.426 1435.61 111.426 1440.96 Q111.426 1446.29 112.78 1448.96 Q114.152 1451.62 116.86 1451.62 Q119.586 1451.62 120.94 1448.96 Q122.311 1446.29 122.311 1440.96 Q122.311 1435.61 120.94 1432.96 Q119.586 1430.28 116.86 1430.28 M116.86 1427.51 Q121.217 1427.51 123.509 1430.96 Q125.818 1434.4 125.818 1440.96 Q125.818 1447.51 123.509 1450.96 Q121.217 1454.4 116.86 1454.4 Q112.502 1454.4 110.193 1450.96 Q107.902 1447.51 107.902 1440.96 Q107.902 1434.4 110.193 1430.96 Q112.502 1427.51 116.86 1427.51 Z" fill="#000000" fill-rule="nonzero" fill-opacity="1" /><path clip-path="url(#clip270)" d="M61.2351 1310.45 Q58.5268 1310.45 57.1553 1313.13 Q55.8011 1315.78 55.8011 1321.13 Q55.8011 1326.46 57.1553 1329.13 Q58.5268 1331.79 61.2351 1331.79 Q63.9608 1331.79 65.315 1329.13 Q66.6865 1326.46 66.6865 1321.13 Q66.6865 1315.78 65.315 1313.13 Q63.9608 1310.45 61.2351 1310.45 M61.2351 1307.68 Q65.5927 1307.68 67.8844 1311.13 Q70.1934 1314.57 70.1934 1321.13 Q70.1934 1327.68 67.8844 1331.13 Q65.5927 1334.57 61.2351 1334.57 Q56.8775 1334.57 54.5685 1331.13 Q52.2768 1327.68 52.2768 1321.13 Q52.2768 1314.57 54.5685 1311.13 Q56.8775 1307.68 61.2351 1307.68 Z" fill="#000000" fill-rule="nonzero" fill-opacity="1" /><path clip-path="url(#clip270)" d="M76.3566 1329.66 L80.0197 1329.66 L80.0197 1334.07 L76.3566 1334.07 L76.3566 1329.66 Z" fill="#000000" fill-rule="nonzero" fill-opacity="1" /><path clip-path="url(#clip270)" d="M95.1586 1310.45 Q92.4502 1310.45 91.0787 1313.13 Q89.7246 1315.78 89.7246 1321.13 Q89.7246 1326.46 91.0787 1329.13 Q92.4502 1331.79 95.1586 1331.79 Q97.8842 1331.79 99.2384 1329.13 Q100.61 1326.46 100.61 1321.13 Q100.61 1315.78 99.2384 1313.13 Q97.8842 1310.45 95.1586 1310.45 M95.1586 1307.68 Q99.5162 1307.68 101.808 1311.13 Q104.117 1314.57 104.117 1321.13 Q104.117 1327.68 101.808 1331.13 Q99.5162 1334.57 95.1586 1334.57 Q90.8009 1334.57 88.4919 1331.13 Q86.2003 1327.68 86.2003 1321.13 Q86.2003 1314.57 88.4919 1311.13 Q90.8009 1307.68 95.1586 1307.68 Z" fill="#000000" fill-rule="nonzero" fill-opacity="1" /><path clip-path="url(#clip270)" d="M110.888 1331.11 L116.617 1331.11 L116.617 1311.34 L110.384 1312.59 L110.384 1309.4 L116.582 1308.15 L120.089 1308.15 L120.089 1331.11 L125.818 1331.11 L125.818 1334.07 L110.888 1334.07 L110.888 1331.11 Z" fill="#000000" fill-rule="nonzero" fill-opacity="1" /><path clip-path="url(#clip270)" d="M61.5129 1190.62 Q58.8046 1190.62 57.4331 1193.3 Q56.0789 1195.95 56.0789 1201.3 Q56.0789 1206.63 57.4331 1209.31 Q58.8046 1211.96 61.5129 1211.96 Q64.2386 1211.96 65.5927 1209.31 Q66.9643 1206.63 66.9643 1201.3 Q66.9643 1195.95 65.5927 1193.3 Q64.2386 1190.62 61.5129 1190.62 M61.5129 1187.85 Q65.8705 1187.85 68.1622 1191.3 Q70.4712 1194.74 70.4712 1201.3 Q70.4712 1207.85 68.1622 1211.3 Q65.8705 1214.74 61.5129 1214.74 Q57.1553 1214.74 54.8463 1211.3 Q52.5546 1207.85 52.5546 1201.3 Q52.5546 1194.74 54.8463 1191.3 Q57.1553 1187.85 61.5129 1187.85 Z" fill="#000000" fill-rule="nonzero" fill-opacity="1" /><path clip-path="url(#clip270)" d="M76.6343 1209.83 L80.2975 1209.83 L80.2975 1214.24 L76.6343 1214.24 L76.6343 1209.83 Z" fill="#000000" fill-rule="nonzero" fill-opacity="1" /><path clip-path="url(#clip270)" d="M95.4363 1190.62 Q92.728 1190.62 91.3565 1193.3 Q90.0023 1195.95 90.0023 1201.3 Q90.0023 1206.63 91.3565 1209.31 Q92.728 1211.96 95.4363 1211.96 Q98.162 1211.96 99.5162 1209.31 Q100.888 1206.63 100.888 1201.3 Q100.888 1195.95 99.5162 1193.3 Q98.162 1190.62 95.4363 1190.62 M95.4363 1187.85 Q99.7939 1187.85 102.086 1191.3 Q104.395 1194.74 104.395 1201.3 Q104.395 1207.85 102.086 1211.3 Q99.7939 1214.74 95.4363 1214.74 Q91.0787 1214.74 88.7697 1211.3 Q86.478 1207.85 86.478 1201.3 Q86.478 1194.74 88.7697 1191.3 Q91.0787 1187.85 95.4363 1187.85 Z" fill="#000000" fill-rule="nonzero" fill-opacity="1" /><path clip-path="url(#clip270)" d="M113.579 1211.28 L125.818 1211.28 L125.818 1214.24 L109.36 1214.24 L109.36 1211.28 Q111.356 1209.22 114.794 1205.75 Q118.249 1202.26 119.134 1201.25 Q120.818 1199.36 121.478 1198.06 Q122.155 1196.74 122.155 1195.47 Q122.155 1193.4 120.697 1192.1 Q119.256 1190.8 116.929 1190.8 Q115.28 1190.8 113.44 1191.37 Q111.617 1191.94 109.533 1193.11 L109.533 1189.57 Q111.652 1188.72 113.492 1188.28 Q115.332 1187.85 116.86 1187.85 Q120.888 1187.85 123.283 1189.86 Q125.679 1191.87 125.679 1195.24 Q125.679 1196.84 125.072 1198.28 Q124.481 1199.7 122.901 1201.65 Q122.467 1202.15 120.141 1204.57 Q117.815 1206.96 113.579 1211.28 Z" fill="#000000" fill-rule="nonzero" fill-opacity="1" /><path clip-path="url(#clip270)" d="M60.8011 1070.8 Q58.0928 1070.8 56.7213 1073.47 Q55.3671 1076.13 55.3671 1081.47 Q55.3671 1086.8 56.7213 1089.48 Q58.0928 1092.13 60.8011 1092.13 Q63.5268 1092.13 64.8809 1089.48 Q66.2525 1086.8 66.2525 1081.47 Q66.2525 1076.13 64.8809 1073.47 Q63.5268 1070.8 60.8011 1070.8 M60.8011 1068.02 Q65.1587 1068.02 67.4504 1071.47 Q69.7594 1074.91 69.7594 1081.47 Q69.7594 1088.02 67.4504 1091.47 Q65.1587 1094.91 60.8011 1094.91 Q56.4435 1094.91 54.1345 1091.47 Q51.8428 1088.02 51.8428 1081.47 Q51.8428 1074.91 54.1345 1071.47 Q56.4435 1068.02 60.8011 1068.02 Z" fill="#000000" fill-rule="nonzero" fill-opacity="1" /><path clip-path="url(#clip270)" d="M75.9225 1090 L79.5857 1090 L79.5857 1094.41 L75.9225 1094.41 L75.9225 1090 Z" fill="#000000" fill-rule="nonzero" fill-opacity="1" /><path clip-path="url(#clip270)" d="M94.7245 1070.8 Q92.0162 1070.8 90.6447 1073.47 Q89.2905 1076.13 89.2905 1081.47 Q89.2905 1086.8 90.6447 1089.48 Q92.0162 1092.13 94.7245 1092.13 Q97.4502 1092.13 98.8044 1089.48 Q100.176 1086.8 100.176 1081.47 Q100.176 1076.13 98.8044 1073.47 Q97.4502 1070.8 94.7245 1070.8 M94.7245 1068.02 Q99.0821 1068.02 101.374 1071.47 Q103.683 1074.91 103.683 1081.47 Q103.683 1088.02 101.374 1091.47 Q99.0821 1094.91 94.7245 1094.91 Q90.3669 1094.91 88.0579 1091.47 Q85.7662 1088.02 85.7662 1081.47 Q85.7662 1074.91 88.0579 1071.47 Q90.3669 1068.02 94.7245 1068.02 Z" fill="#000000" fill-rule="nonzero" fill-opacity="1" /><path clip-path="url(#clip270)" d="M120.471 1080.43 Q122.988 1080.97 124.395 1082.67 Q125.818 1084.37 125.818 1086.87 Q125.818 1090.71 123.179 1092.81 Q120.54 1094.91 115.679 1094.91 Q114.047 1094.91 112.311 1094.58 Q110.593 1094.27 108.752 1093.62 L108.752 1090.24 Q110.211 1091.09 111.947 1091.52 Q113.683 1091.96 115.575 1091.96 Q118.874 1091.96 120.592 1090.66 Q122.329 1089.35 122.329 1086.87 Q122.329 1084.58 120.714 1083.3 Q119.117 1081.99 116.252 1081.99 L113.231 1081.99 L113.231 1079.11 L116.391 1079.11 Q118.978 1079.11 120.349 1078.09 Q121.721 1077.05 121.721 1075.1 Q121.721 1073.1 120.297 1072.05 Q118.891 1070.97 116.252 1070.97 Q114.811 1070.97 113.162 1071.28 Q111.513 1071.59 109.533 1072.25 L109.533 1069.13 Q111.53 1068.57 113.266 1068.3 Q115.02 1068.02 116.565 1068.02 Q120.558 1068.02 122.884 1069.84 Q125.21 1071.65 125.21 1074.74 Q125.21 1076.89 123.978 1078.38 Q122.745 1079.86 120.471 1080.43 Z" fill="#000000" fill-rule="nonzero" fill-opacity="1" /><path clip-path="url(#clip270)" d="M59.9504 950.966 Q57.2421 950.966 55.8706 953.639 Q54.5164 956.295 54.5164 961.643 Q54.5164 966.972 55.8706 969.646 Q57.2421 972.302 59.9504 972.302 Q62.6761 972.302 64.0303 969.646 Q65.4018 966.972 65.4018 961.643 Q65.4018 956.295 64.0303 953.639 Q62.6761 950.966 59.9504 950.966 M59.9504 948.188 Q64.308 948.188 66.5997 951.643 Q68.9087 955.08 68.9087 961.643 Q68.9087 968.188 66.5997 971.643 Q64.308 975.08 59.9504 975.08 Q55.5928 975.08 53.2838 971.643 Q50.9921 968.188 50.9921 961.643 Q50.9921 955.08 53.2838 951.643 Q55.5928 948.188 59.9504 948.188 Z" fill="#000000" fill-rule="nonzero" fill-opacity="1" /><path clip-path="url(#clip270)" d="M75.0719 970.167 L78.735 970.167 L78.735 974.577 L75.0719 974.577 L75.0719 970.167 Z" fill="#000000" fill-rule="nonzero" fill-opacity="1" /><path clip-path="url(#clip270)" d="M93.8738 950.966 Q91.1655 950.966 89.794 953.639 Q88.4398 956.295 88.4398 961.643 Q88.4398 966.972 89.794 969.646 Q91.1655 972.302 93.8738 972.302 Q96.5995 972.302 97.9537 969.646 Q99.3252 966.972 99.3252 961.643 Q99.3252 956.295 97.9537 953.639 Q96.5995 950.966 93.8738 950.966 M93.8738 948.188 Q98.2315 948.188 100.523 951.643 Q102.832 955.08 102.832 961.643 Q102.832 968.188 100.523 971.643 Q98.2315 975.08 93.8738 975.08 Q89.5162 975.08 87.2072 971.643 Q84.9156 968.188 84.9156 961.643 Q84.9156 955.08 87.2072 951.643 Q89.5162 948.188 93.8738 948.188 Z" fill="#000000" fill-rule="nonzero" fill-opacity="1" /><path clip-path="url(#clip270)" d="M118.631 951.712 L109.777 965.549 L118.631 965.549 L118.631 951.712 M117.711 948.657 L122.12 948.657 L122.12 965.549 L125.818 965.549 L125.818 968.465 L122.12 968.465 L122.12 974.577 L118.631 974.577 L118.631 968.465 L106.929 968.465 L106.929 965.08 L117.711 948.657 Z" fill="#000000" fill-rule="nonzero" fill-opacity="1" /><path clip-path="url(#clip270)" d="M173.716 813.68 Q170.198 813.68 168.3 816.226 Q166.309 818.888 166.309 823.286 Q166.309 827.939 168.276 830.624 Q170.267 833.286 173.716 833.286 Q177.119 833.286 179.11 830.601 Q181.1 827.916 181.1 823.286 Q181.1 819.05 179.11 816.226 Q177.281 813.68 173.716 813.68 M173.716 810.3 L187.86 810.3 L187.86 814.559 L183.091 814.559 Q185.614 818.171 185.614 823.286 Q185.614 829.652 182.443 833.263 Q179.272 836.897 173.716 836.897 Q168.138 836.897 164.989 833.263 Q161.818 829.652 161.818 823.286 Q161.818 816.874 164.989 813.286 Q167.605 810.3 173.716 810.3 Z" fill="#000000" fill-rule="nonzero" fill-opacity="1" /><path clip-path="url(#clip270)" d="M198.878 836.226 L190.961 810.3 L195.545 810.3 L202.235 832.059 Q205.012 829.189 207.327 825.208 Q209.086 822.221 209.179 819.629 Q209.225 818.402 208.67 816.087 Q208.022 813.333 205.568 810.3 L209.873 810.3 L209.873 810.3 Q211.471 812.36 212.535 815.231 Q213.508 817.87 213.508 819.675 Q213.508 824.212 210.36 828.263 Q206.262 833.541 203.415 836.226 L198.878 836.226 Z" fill="#000000" fill-rule="nonzero" fill-opacity="1" /><polyline clip-path="url(#clip274)" style="stroke:#009af9; stroke-linecap:round; stroke-linejoin:round; stroke-width:4; stroke-opacity:1; fill:none" points="189.869,959.148 248.307,1016.59 306.746,1074.83 365.185,1133.86 423.623,1193.68 482.062,1254.3 540.501,1315.72 598.939,1377.93 657.378,1440.93 715.817,1377.14 774.256,1312.54 832.694,1247.15 891.133,1180.97 949.572,1113.99 1008.01,1046.22 1066.45,977.648 1124.89,908.286 "/>
<circle clip-path="url(#clip274)" cx="657.378" cy="1440.93" r="10.8" fill="#ff0000" fill-rule="evenodd" fill-opacity="1" stroke="#000000" stroke-opacity="1" stroke-width="3.2"/>
</svg>
