<?xml version="1.0" encoding="utf-8"?>
<svg xmlns="http://www.w3.org/2000/svg" xmlns:xlink="http://www.w3.org/1999/xlink" width="600" height="400" viewBox="0 0 2400 1600">
<defs>
  <clipPath id="clip870">
    <rect x="0" y="0" width="2400" height="1600"/>
  </clipPath>
</defs>
<path clip-path="url(#clip870)" d="M0 1600 L2400 1600 L2400 0 L0 0  Z" fill="#ffffff" fill-rule="evenodd" fill-opacity="1"/>
<defs>
  <clipPath id="clip871">
    <rect x="1597" y="897" width="756" height="588"/>
  </clipPath>
</defs>
<path clip-path="url(#clip870)" d="M128.138 667.406 L1152.76 667.406 L1152.76 97.5521 L128.138 97.5521  Z" fill="#ffffff" fill-rule="evenodd" fill-opacity="1"/>
<defs>
  <clipPath id="clip872">
    <rect x="128" y="97" width="1026" height="571"/>
  </clipPath>
</defs>
<polyline clip-path="url(#clip872)" style="stroke:#000000; stroke-linecap:round; stroke-linejoin:round; stroke-width:2; stroke-opacity:0.1; fill:none" points="285.817,667.406 285.817,97.5521 "/>
<polyline clip-path="url(#clip872)" style="stroke:#000000; stroke-linecap:round; stroke-linejoin:round; stroke-width:2; stroke-opacity:0.1; fill:none" points="488.462,667.406 488.462,97.5521 "/>
<polyline clip-path="url(#clip872)" style="stroke:#000000; stroke-linecap:round; stroke-linejoin:round; stroke-width:2; stroke-opacity:0.1; fill:none" points="691.108,667.406 691.108,97.5521 "/>
<polyline clip-path="url(#clip872)" style="stroke:#000000; stroke-linecap:round; stroke-linejoin:round; stroke-width:2; stroke-opacity:0.1; fill:none" points="893.754,667.406 893.754,97.5521 "/>
<polyline clip-path="url(#clip872)" style="stroke:#000000; stroke-linecap:round; stroke-linejoin:round; stroke-width:2; stroke-opacity:0.1; fill:none" points="1096.4,667.406 1096.4,97.5521 "/>
<polyline clip-path="url(#clip872)" style="stroke:#000000; stroke-linecap:round; stroke-linejoin:round; stroke-width:2; stroke-opacity:0.1; fill:none" points="128.138,667.406 1152.76,667.406 "/>
<polyline clip-path="url(#clip872)" style="stroke:#000000; stroke-linecap:round; stroke-linejoin:round; stroke-width:2; stroke-opacity:0.1; fill:none" points="128.138,553.436 1152.76,553.436 "/>
<polyline clip-path="url(#clip872)" style="stroke:#000000; stroke-linecap:round; stroke-linejoin:round; stroke-width:2; stroke-opacity:0.1; fill:none" points="128.138,439.465 1152.76,439.465 "/>
<polyline clip-path="url(#clip872)" style="stroke:#000000; stroke-linecap:round; stroke-linejoin:round; stroke-width:2; stroke-opacity:0.1; fill:none" points="128.138,325.494 1152.76,325.494 "/>
<polyline clip-path="url(#clip872)" style="stroke:#000000; stroke-linecap:round; stroke-linejoin:round; stroke-width:2; stroke-opacity:0.1; fill:none" points="128.138,211.523 1152.76,211.523 "/>
<polyline clip-path="url(#clip872)" style="stroke:#000000; stroke-linecap:round; stroke-linejoin:round; stroke-width:2; stroke-opacity:0.1; fill:none" points="128.138,97.5521 1152.76,97.5521 "/>
<polyline clip-path="url(#clip870)" style="stroke:#000000; stroke-linecap:round; stroke-linejoin:round; stroke-width:4; stroke-opacity:1; fill:none" points="128.138,667.406 1152.76,667.406 "/>
<polyline clip-path="url(#clip870)" style="stroke:#000000; stroke-linecap:round; stroke-linejoin:round; stroke-width:4; stroke-opacity:1; fill:none" points="285.817,667.406 285.817,648.509 "/>
<polyline clip-path="url(#clip870)" style="stroke:#000000; stroke-linecap:round; stroke-linejoin:round; stroke-width:4; stroke-opacity:1; fill:none" points="488.462,667.406 488.462,648.509 "/>
<polyline clip-path="url(#clip870)" style="stroke:#000000; stroke-linecap:round; stroke-linejoin:round; stroke-width:4; stroke-opacity:1; fill:none" points="691.108,667.406 691.108,648.509 "/>
<polyline clip-path="url(#clip870)" style="stroke:#000000; stroke-linecap:round; stroke-linejoin:round; stroke-width:4; stroke-opacity:1; fill:none" points="893.754,667.406 893.754,648.509 "/>
<polyline clip-path="url(#clip870)" style="stroke:#000000; stroke-linecap:round; stroke-linejoin:round; stroke-width:4; stroke-opacity:1; fill:none" points="1096.4,667.406 1096.4,648.509 "/>
<path clip-path="url(#clip870)" d="M232.446 738.66 Q230.531 740.575 231.452 743.435 Q232.373 746.271 236.154 750.052 Q239.922 753.821 242.77 754.754 Q245.618 755.662 247.534 753.747 Q249.461 751.82 248.54 748.984 Q247.619 746.124 243.851 742.355 Q240.07 738.574 237.222 737.666 Q234.374 736.733 232.446 738.66 M230.482 736.696 Q233.563 733.615 237.627 734.437 Q241.69 735.235 246.33 739.875 Q250.959 744.503 251.769 748.579 Q252.579 752.63 249.498 755.712 Q246.416 758.793 242.353 757.995 Q238.29 757.172 233.662 752.544 Q229.021 747.904 228.211 743.853 Q227.401 739.777 230.482 736.696 Z" fill="#000000" fill-rule="nonzero" fill-opacity="1" /><path clip-path="url(#clip870)" d="M256.716 741.545 L259.306 738.955 L262.424 742.073 L259.834 744.663 L256.716 741.545 Z" fill="#000000" fill-rule="nonzero" fill-opacity="1" /><path clip-path="url(#clip870)" d="M264.425 722.664 Q262.658 724.432 262.584 726.396 Q262.523 728.348 264.18 730.005 Q265.837 731.663 267.789 731.601 Q269.753 731.528 271.521 729.76 Q273.289 727.992 273.362 726.028 Q273.424 724.052 271.779 722.407 Q270.122 720.749 268.157 720.823 Q266.205 720.884 264.425 722.664 M260.89 724.088 Q258.901 725.291 256.912 725.095 Q254.936 724.886 253.365 723.315 Q251.167 721.118 251.45 718.282 Q251.744 715.434 254.47 712.708 Q257.207 709.971 260.043 709.688 Q262.879 709.406 265.076 711.604 Q266.647 713.175 266.844 715.164 Q267.052 717.14 265.862 719.117 Q268.071 717.742 270.281 717.963 Q272.503 718.171 274.259 719.927 Q276.922 722.591 276.714 725.647 Q276.517 728.692 273.485 731.724 Q270.453 734.756 267.396 734.965 Q264.352 735.161 261.688 732.497 Q259.932 730.742 259.724 728.52 Q259.515 726.298 260.89 724.088 M256.065 721.081 Q257.489 722.505 259.171 722.419 Q260.865 722.321 262.474 720.712 Q264.069 719.117 264.168 717.422 Q264.278 715.716 262.854 714.292 Q261.43 712.868 259.724 712.978 Q258.03 713.077 256.434 714.673 Q254.826 716.281 254.727 717.975 Q254.641 719.657 256.065 721.081 Z" fill="#000000" fill-rule="nonzero" fill-opacity="1" /><path clip-path="url(#clip870)" d="M264.867 702.973 L276.652 691.188 L277.708 692.244 L288.327 716.17 L285.737 718.761 L275.756 696.258 L266.954 705.06 L264.867 702.973 Z" fill="#000000" fill-rule="nonzero" fill-opacity="1" /><path clip-path="url(#clip870)" d="M434.662 739.09 Q432.747 741.005 433.668 743.865 Q434.589 746.701 438.37 750.482 Q442.139 754.251 444.987 755.184 Q447.835 756.092 449.75 754.177 Q451.677 752.25 450.756 749.414 Q449.836 746.554 446.067 742.785 Q442.286 739.004 439.438 738.095 Q436.59 737.162 434.662 739.09 M432.698 737.126 Q435.78 734.044 439.843 734.867 Q443.906 735.665 448.547 740.305 Q453.175 744.933 453.985 749.009 Q454.795 753.06 451.714 756.141 Q448.633 759.223 444.569 758.425 Q440.506 757.602 435.878 752.974 Q431.237 748.334 430.427 744.283 Q429.617 740.207 432.698 737.126 Z" fill="#000000" fill-rule="nonzero" fill-opacity="1" /><path clip-path="url(#clip870)" d="M458.932 741.975 L461.523 739.384 L464.641 742.502 L462.05 745.093 L458.932 741.975 Z" fill="#000000" fill-rule="nonzero" fill-opacity="1" /><path clip-path="url(#clip870)" d="M466.642 723.094 Q464.874 724.862 464.8 726.826 Q464.739 728.778 466.396 730.435 Q468.053 732.092 470.005 732.031 Q471.969 731.957 473.737 730.19 Q475.505 728.422 475.579 726.458 Q475.64 724.481 473.995 722.836 Q472.338 721.179 470.374 721.253 Q468.422 721.314 466.642 723.094 M463.106 724.518 Q461.117 725.721 459.129 725.525 Q457.152 725.316 455.581 723.745 Q453.383 721.547 453.666 718.711 Q453.96 715.863 456.686 713.138 Q459.423 710.4 462.259 710.118 Q465.095 709.836 467.292 712.033 Q468.864 713.605 469.06 715.593 Q469.269 717.57 468.078 719.546 Q470.288 718.171 472.497 718.392 Q474.719 718.601 476.475 720.356 Q479.139 723.02 478.93 726.077 Q478.734 729.122 475.701 732.154 Q472.669 735.186 469.612 735.395 Q466.568 735.591 463.904 732.927 Q462.149 731.172 461.94 728.95 Q461.731 726.728 463.106 724.518 M458.282 721.51 Q459.706 722.934 461.387 722.848 Q463.082 722.75 464.69 721.142 Q466.286 719.546 466.384 717.852 Q466.494 716.146 465.07 714.722 Q463.646 713.298 461.94 713.408 Q460.246 713.506 458.65 715.102 Q457.042 716.71 456.944 718.405 Q456.858 720.086 458.282 721.51 Z" fill="#000000" fill-rule="nonzero" fill-opacity="1" /><path clip-path="url(#clip870)" d="M482.637 707.098 Q480.87 708.866 480.796 710.83 Q480.735 712.782 482.392 714.439 Q484.049 716.097 486.001 716.035 Q487.965 715.962 489.733 714.194 Q491.501 712.426 491.574 710.462 Q491.636 708.485 489.991 706.84 Q488.334 705.183 486.369 705.257 Q484.417 705.318 482.637 707.098 M479.102 708.522 Q477.113 709.725 475.124 709.529 Q473.148 709.32 471.577 707.749 Q469.379 705.551 469.662 702.716 Q469.956 699.868 472.681 697.142 Q475.419 694.405 478.255 694.122 Q481.091 693.84 483.288 696.037 Q484.859 697.609 485.056 699.598 Q485.264 701.574 484.074 703.55 Q486.283 702.176 488.493 702.396 Q490.715 702.605 492.471 704.361 Q495.134 707.025 494.926 710.081 Q494.729 713.126 491.697 716.158 Q488.665 719.19 485.608 719.399 Q482.564 719.595 479.9 716.931 Q478.144 715.176 477.936 712.954 Q477.727 710.732 479.102 708.522 M474.277 705.515 Q475.701 706.939 477.383 706.853 Q479.077 706.754 480.685 705.146 Q482.281 703.55 482.38 701.856 Q482.49 700.15 481.066 698.726 Q479.642 697.302 477.936 697.412 Q476.242 697.511 474.646 699.106 Q473.037 700.715 472.939 702.409 Q472.853 704.091 474.277 705.515 Z" fill="#000000" fill-rule="nonzero" fill-opacity="1" /><path clip-path="url(#clip870)" d="M637.357 739.041 Q635.442 740.956 636.363 743.816 Q637.284 746.652 641.065 750.433 Q644.834 754.202 647.682 755.135 Q650.53 756.043 652.445 754.128 Q654.372 752.201 653.451 749.365 Q652.531 746.504 648.762 742.736 Q644.981 738.955 642.133 738.046 Q639.285 737.113 637.357 739.041 M635.393 737.076 Q638.475 733.995 642.538 734.818 Q646.601 735.616 651.242 740.256 Q655.87 744.884 656.68 748.96 Q657.49 753.011 654.409 756.092 Q651.328 759.173 647.264 758.375 Q643.201 757.553 638.573 752.925 Q633.932 748.285 633.122 744.233 Q632.312 740.158 635.393 737.076 Z" fill="#000000" fill-rule="nonzero" fill-opacity="1" /><path clip-path="url(#clip870)" d="M661.627 741.926 L664.218 739.335 L667.336 742.453 L664.745 745.044 L661.627 741.926 Z" fill="#000000" fill-rule="nonzero" fill-opacity="1" /><path clip-path="url(#clip870)" d="M669.337 723.045 Q667.569 724.813 667.495 726.777 Q667.434 728.729 669.091 730.386 Q670.748 732.043 672.7 731.982 Q674.664 731.908 676.432 730.14 Q678.2 728.373 678.274 726.409 Q678.335 724.432 676.69 722.787 Q675.033 721.13 673.069 721.203 Q671.117 721.265 669.337 723.045 M665.801 724.469 Q663.812 725.672 661.824 725.476 Q659.847 725.267 658.276 723.696 Q656.078 721.498 656.361 718.662 Q656.655 715.814 659.381 713.089 Q662.118 710.351 664.954 710.069 Q667.79 709.787 669.987 711.984 Q671.559 713.555 671.755 715.544 Q671.964 717.521 670.773 719.497 Q672.983 718.122 675.192 718.343 Q677.414 718.552 679.17 720.307 Q681.834 722.971 681.625 726.028 Q681.429 729.072 678.396 732.105 Q675.364 735.137 672.307 735.346 Q669.263 735.542 666.599 732.878 Q664.844 731.123 664.635 728.901 Q664.426 726.679 665.801 724.469 M660.977 721.461 Q662.401 722.885 664.082 722.799 Q665.777 722.701 667.385 721.093 Q668.981 719.497 669.079 717.803 Q669.189 716.097 667.765 714.673 Q666.341 713.249 664.635 713.359 Q662.941 713.457 661.345 715.053 Q659.737 716.661 659.639 718.355 Q659.553 720.037 660.977 721.461 Z" fill="#000000" fill-rule="nonzero" fill-opacity="1" /><path clip-path="url(#clip870)" d="M688.426 720.602 L686.167 718.343 Q687.542 717.852 688.733 717.128 Q689.924 716.404 690.844 715.483 Q693.3 713.028 692.944 710.094 Q692.588 707.135 689.408 703.587 Q689.752 705.355 689.224 707.012 Q688.696 708.67 687.37 709.995 Q684.62 712.745 681.355 712.696 Q678.089 712.622 675.205 709.738 Q672.381 706.914 672.344 703.538 Q672.307 700.162 675.082 697.388 Q678.261 694.208 682.374 694.982 Q686.486 695.731 691.127 700.371 Q695.46 704.704 695.988 709.357 Q696.516 713.985 693.042 717.459 Q692.109 718.392 690.967 719.166 Q689.825 719.939 688.426 720.602 M685.59 707.896 Q687.26 706.227 687.088 704.115 Q686.928 701.991 684.94 700.003 Q682.963 698.026 680.839 697.867 Q678.716 697.682 677.046 699.352 Q675.376 701.022 675.548 703.158 Q675.72 705.269 677.697 707.246 Q679.685 709.234 681.797 709.406 Q683.921 709.566 685.59 707.896 Z" fill="#000000" fill-rule="nonzero" fill-opacity="1" /><path clip-path="url(#clip870)" d="M839.905 739.139 Q837.99 741.054 838.911 743.914 Q839.831 746.75 843.612 750.531 Q847.381 754.3 850.229 755.233 Q853.077 756.141 854.992 754.226 Q856.92 752.299 855.999 749.463 Q855.078 746.603 851.31 742.834 Q847.529 739.053 844.681 738.144 Q841.832 737.211 839.905 739.139 M837.941 737.175 Q841.022 734.093 845.086 734.916 Q849.149 735.714 853.789 740.354 Q858.417 744.982 859.228 749.058 Q860.038 753.109 856.957 756.19 Q853.875 759.272 849.812 758.474 Q845.749 757.651 841.12 753.023 Q836.48 748.383 835.67 744.332 Q834.86 740.256 837.941 737.175 Z" fill="#000000" fill-rule="nonzero" fill-opacity="1" /><path clip-path="url(#clip870)" d="M864.175 742.024 L866.765 739.433 L869.883 742.552 L867.293 745.142 L864.175 742.024 Z" fill="#000000" fill-rule="nonzero" fill-opacity="1" /><path clip-path="url(#clip870)" d="M874.978 736.696 L872.719 734.437 Q874.094 733.946 875.285 733.222 Q876.476 732.497 877.396 731.577 Q879.852 729.122 879.496 726.188 Q879.139 723.229 875.96 719.681 Q876.304 721.449 875.776 723.106 Q875.248 724.764 873.922 726.089 Q871.172 728.839 867.907 728.79 Q864.641 728.716 861.757 725.832 Q858.933 723.008 858.896 719.632 Q858.859 716.256 861.634 713.482 Q864.813 710.302 868.926 711.076 Q873.038 711.825 877.679 716.465 Q882.012 720.798 882.54 725.451 Q883.068 730.079 879.594 733.553 Q878.661 734.486 877.519 735.26 Q876.377 736.033 874.978 736.696 M872.142 723.99 Q873.812 722.321 873.64 720.209 Q873.48 718.085 871.491 716.097 Q869.515 714.12 867.391 713.961 Q865.268 713.776 863.598 715.446 Q861.928 717.116 862.1 719.252 Q862.272 721.363 864.249 723.339 Q866.237 725.328 868.349 725.5 Q870.473 725.66 872.142 723.99 Z" fill="#000000" fill-rule="nonzero" fill-opacity="1" /><path clip-path="url(#clip870)" d="M879.888 699.156 Q877.973 701.071 878.894 703.931 Q879.815 706.767 883.596 710.548 Q887.364 714.317 890.213 715.25 Q893.061 716.158 894.976 714.243 Q896.903 712.316 895.982 709.48 Q895.062 706.619 891.293 702.851 Q887.512 699.07 884.664 698.161 Q881.816 697.228 879.888 699.156 M877.924 697.191 Q881.005 694.11 885.069 694.933 Q889.132 695.731 893.773 700.371 Q898.401 704.999 899.211 709.075 Q900.021 713.126 896.94 716.207 Q893.859 719.288 889.795 718.49 Q885.732 717.668 881.104 713.04 Q876.463 708.399 875.653 704.348 Q874.843 700.273 877.924 697.191 Z" fill="#000000" fill-rule="nonzero" fill-opacity="1" /><path clip-path="url(#clip870)" d="M1043.2 738.488 Q1041.29 740.403 1042.21 743.264 Q1043.13 746.099 1046.91 749.88 Q1050.68 753.649 1053.53 754.582 Q1056.37 755.491 1058.29 753.576 Q1060.22 751.648 1059.3 748.812 Q1058.37 745.952 1054.61 742.183 Q1050.83 738.402 1047.98 737.494 Q1045.13 736.561 1043.2 738.488 M1041.24 736.524 Q1044.32 733.443 1048.38 734.265 Q1052.45 735.063 1057.09 739.704 Q1061.71 744.332 1062.52 748.407 Q1063.33 752.458 1060.25 755.54 Q1057.17 758.621 1053.11 757.823 Q1049.05 757.001 1044.42 752.372 Q1039.78 747.732 1038.97 743.681 Q1038.16 739.605 1041.24 736.524 Z" fill="#000000" fill-rule="nonzero" fill-opacity="1" /><path clip-path="url(#clip870)" d="M1067.47 741.373 L1070.06 738.783 L1073.18 741.901 L1070.59 744.491 L1067.47 741.373 Z" fill="#000000" fill-rule="nonzero" fill-opacity="1" /><path clip-path="url(#clip870)" d="M1078.27 736.045 L1076.02 733.786 Q1077.39 733.295 1078.58 732.571 Q1079.77 731.847 1080.69 730.926 Q1083.15 728.471 1082.79 725.537 Q1082.44 722.578 1079.26 719.031 Q1079.6 720.798 1079.07 722.456 Q1078.54 724.113 1077.22 725.439 Q1074.47 728.189 1071.2 728.139 Q1067.94 728.066 1065.05 725.181 Q1062.23 722.357 1062.19 718.981 Q1062.16 715.606 1064.93 712.831 Q1068.11 709.652 1072.22 710.425 Q1076.33 711.174 1080.98 715.814 Q1085.31 720.148 1085.84 724.8 Q1086.36 729.428 1082.89 732.903 Q1081.96 733.836 1080.82 734.609 Q1079.67 735.382 1078.27 736.045 M1075.44 723.339 Q1077.11 721.67 1076.94 719.558 Q1076.78 717.435 1074.79 715.446 Q1072.81 713.47 1070.69 713.31 Q1068.56 713.126 1066.89 714.795 Q1065.22 716.465 1065.4 718.601 Q1065.57 720.712 1067.55 722.689 Q1069.53 724.678 1071.65 724.849 Q1073.77 725.009 1075.44 723.339 Z" fill="#000000" fill-rule="nonzero" fill-opacity="1" /><path clip-path="url(#clip870)" d="M1092.92 717.987 L1096.97 713.936 L1082.99 699.954 L1079.47 705.245 L1077.21 702.986 L1080.71 697.719 L1083.18 695.24 L1099.43 711.481 L1103.48 707.43 L1105.56 709.517 L1095.01 720.074 L1092.92 717.987 Z" fill="#000000" fill-rule="nonzero" fill-opacity="1" /><polyline clip-path="url(#clip870)" style="stroke:#000000; stroke-linecap:round; stroke-linejoin:round; stroke-width:4; stroke-opacity:1; fill:none" points="128.138,667.406 128.138,97.5521 "/>
<polyline clip-path="url(#clip870)" style="stroke:#000000; stroke-linecap:round; stroke-linejoin:round; stroke-width:4; stroke-opacity:1; fill:none" points="128.138,667.406 147.035,667.406 "/>
<polyline clip-path="url(#clip870)" style="stroke:#000000; stroke-linecap:round; stroke-linejoin:round; stroke-width:4; stroke-opacity:1; fill:none" points="128.138,553.436 147.035,553.436 "/>
<polyline clip-path="url(#clip870)" style="stroke:#000000; stroke-linecap:round; stroke-linejoin:round; stroke-width:4; stroke-opacity:1; fill:none" points="128.138,439.465 147.035,439.465 "/>
<polyline clip-path="url(#clip870)" style="stroke:#000000; stroke-linecap:round; stroke-linejoin:round; stroke-width:4; stroke-opacity:1; fill:none" points="128.138,325.494 147.035,325.494 "/>
<polyline clip-path="url(#clip870)" style="stroke:#000000; stroke-linecap:round; stroke-linejoin:round; stroke-width:4; stroke-opacity:1; fill:none" points="128.138,211.523 147.035,211.523 "/>
<polyline clip-path="url(#clip870)" style="stroke:#000000; stroke-linecap:round; stroke-linejoin:round; stroke-width:4; stroke-opacity:1; fill:none" points="128.138,97.5521 147.035,97.5521 "/>
<path clip-path="url(#clip870)" d="M83.1795 656.755 Q80.4711 656.755 79.0996 659.429 Q77.7455 662.085 77.7455 667.432 Q77.7455 672.762 79.0996 675.436 Q80.4711 678.092 83.1795 678.092 Q85.9051 678.092 87.2593 675.436 Q88.6308 672.762 88.6308 667.432 Q88.6308 662.085 87.2593 659.429 Q85.9051 656.755 83.1795 656.755 M83.1795 653.978 Q87.5371 653.978 89.8287 657.432 Q92.1377 660.87 92.1377 667.432 Q92.1377 673.978 89.8287 677.432 Q87.5371 680.87 83.1795 680.87 Q78.8218 680.87 76.5128 677.432 Q74.2212 673.978 74.2212 667.432 Q74.2212 660.87 76.5128 657.432 Q78.8218 653.978 83.1795 653.978 Z" fill="#000000" fill-rule="nonzero" fill-opacity="1" /><path clip-path="url(#clip870)" d="M53.6657 563.444 L59.3949 563.444 L59.3949 543.67 L53.1623 544.92 L53.1623 541.726 L59.3601 540.476 L62.8671 540.476 L62.8671 563.444 L68.5962 563.444 L68.5962 566.396 L53.6657 566.396 L53.6657 563.444 Z" fill="#000000" fill-rule="nonzero" fill-opacity="1" /><path clip-path="url(#clip870)" d="M83.1795 542.785 Q80.4711 542.785 79.0996 545.458 Q77.7455 548.114 77.7455 553.462 Q77.7455 558.791 79.0996 561.465 Q80.4711 564.121 83.1795 564.121 Q85.9051 564.121 87.2593 561.465 Q88.6308 558.791 88.6308 553.462 Q88.6308 548.114 87.2593 545.458 Q85.9051 542.785 83.1795 542.785 M83.1795 540.007 Q87.5371 540.007 89.8287 543.462 Q92.1377 546.899 92.1377 553.462 Q92.1377 560.007 89.8287 563.461 Q87.5371 566.899 83.1795 566.899 Q78.8218 566.899 76.5128 563.461 Q74.2212 560.007 74.2212 553.462 Q74.2212 546.899 76.5128 543.462 Q78.8218 540.007 83.1795 540.007 Z" fill="#000000" fill-rule="nonzero" fill-opacity="1" /><path clip-path="url(#clip870)" d="M56.0789 449.473 L68.3184 449.473 L68.3184 452.425 L51.8602 452.425 L51.8602 449.473 Q53.8567 447.407 57.2942 443.935 Q60.749 440.446 61.6344 439.439 Q63.3184 437.546 63.9782 436.244 Q64.6552 434.925 64.6552 433.657 Q64.6552 431.591 63.1969 430.289 Q61.756 428.987 59.4296 428.987 Q57.7803 428.987 55.94 429.56 Q54.1171 430.133 52.0338 431.296 L52.0338 427.755 Q54.1518 426.904 55.9921 426.47 Q57.8324 426.036 59.3601 426.036 Q63.3879 426.036 65.7837 428.05 Q68.1795 430.064 68.1795 433.432 Q68.1795 435.029 67.5719 436.47 Q66.9816 437.893 65.4018 439.838 Q64.9677 440.341 62.6414 442.755 Q60.315 445.15 56.0789 449.473 Z" fill="#000000" fill-rule="nonzero" fill-opacity="1" /><path clip-path="url(#clip870)" d="M83.1795 428.814 Q80.4711 428.814 79.0996 431.487 Q77.7455 434.144 77.7455 439.491 Q77.7455 444.821 79.0996 447.494 Q80.4711 450.15 83.1795 450.15 Q85.9051 450.15 87.2593 447.494 Q88.6308 444.821 88.6308 439.491 Q88.6308 434.144 87.2593 431.487 Q85.9051 428.814 83.1795 428.814 M83.1795 426.036 Q87.5371 426.036 89.8287 429.491 Q92.1377 432.928 92.1377 439.491 Q92.1377 446.036 89.8287 449.491 Q87.5371 452.928 83.1795 452.928 Q78.8218 452.928 76.5128 449.491 Q74.2212 446.036 74.2212 439.491 Q74.2212 432.928 76.5128 429.491 Q78.8218 426.036 83.1795 426.036 Z" fill="#000000" fill-rule="nonzero" fill-opacity="1" /><path clip-path="url(#clip870)" d="M63.683 324.478 Q66.2004 325.016 67.6066 326.718 Q69.0302 328.419 69.0302 330.919 Q69.0302 334.756 66.3913 336.857 Q63.7525 338.957 58.8914 338.957 Q57.2595 338.957 55.5234 338.627 Q53.8046 338.315 51.9643 337.673 L51.9643 334.287 Q53.4227 335.138 55.1588 335.572 Q56.8949 336.006 58.7872 336.006 Q62.0858 336.006 63.8046 334.704 Q65.5407 333.402 65.5407 330.919 Q65.5407 328.627 63.9261 327.343 Q62.3289 326.041 59.4643 326.041 L56.4435 326.041 L56.4435 323.159 L59.6032 323.159 Q62.19 323.159 63.5615 322.134 Q64.933 321.093 64.933 319.148 Q64.933 317.152 63.5094 316.093 Q62.1032 315.016 59.4643 315.016 Q58.0233 315.016 56.374 315.329 Q54.7247 315.641 52.7456 316.301 L52.7456 313.176 Q54.7421 312.621 56.4782 312.343 Q58.2317 312.065 59.7768 312.065 Q63.7698 312.065 66.0962 313.888 Q68.4226 315.694 68.4226 318.784 Q68.4226 320.937 67.19 322.43 Q65.9573 323.905 63.683 324.478 Z" fill="#000000" fill-rule="nonzero" fill-opacity="1" /><path clip-path="url(#clip870)" d="M83.1795 314.843 Q80.4711 314.843 79.0996 317.516 Q77.7455 320.173 77.7455 325.52 Q77.7455 330.85 79.0996 333.523 Q80.4711 336.18 83.1795 336.18 Q85.9051 336.18 87.2593 333.523 Q88.6308 330.85 88.6308 325.52 Q88.6308 320.173 87.2593 317.516 Q85.9051 314.843 83.1795 314.843 M83.1795 312.065 Q87.5371 312.065 89.8287 315.52 Q92.1377 318.957 92.1377 325.52 Q92.1377 332.065 89.8287 335.52 Q87.5371 338.957 83.1795 338.957 Q78.8218 338.957 76.5128 335.52 Q74.2212 332.065 74.2212 325.52 Q74.2212 318.957 76.5128 315.52 Q78.8218 312.065 83.1795 312.065 Z" fill="#000000" fill-rule="nonzero" fill-opacity="1" /><path clip-path="url(#clip870)" d="M62.6935 201.619 L53.8393 215.455 L62.6935 215.455 L62.6935 201.619 M61.7733 198.563 L66.183 198.563 L66.183 215.455 L69.8809 215.455 L69.8809 218.372 L66.183 218.372 L66.183 224.483 L62.6935 224.483 L62.6935 218.372 L50.9921 218.372 L50.9921 214.986 L61.7733 198.563 Z" fill="#000000" fill-rule="nonzero" fill-opacity="1" /><path clip-path="url(#clip870)" d="M83.1795 200.872 Q80.4711 200.872 79.0996 203.546 Q77.7455 206.202 77.7455 211.549 Q77.7455 216.879 79.0996 219.552 Q80.4711 222.209 83.1795 222.209 Q85.9051 222.209 87.2593 219.552 Q88.6308 216.879 88.6308 211.549 Q88.6308 206.202 87.2593 203.546 Q85.9051 200.872 83.1795 200.872 M83.1795 198.094 Q87.5371 198.094 89.8287 201.549 Q92.1377 204.987 92.1377 211.549 Q92.1377 218.094 89.8287 221.549 Q87.5371 224.986 83.1795 224.986 Q78.8218 224.986 76.5128 221.549 Q74.2212 218.094 74.2212 211.549 Q74.2212 204.987 76.5128 201.549 Q78.8218 198.094 83.1795 198.094 Z" fill="#000000" fill-rule="nonzero" fill-opacity="1" /><path clip-path="url(#clip870)" d="M53.0928 84.5921 L66.8601 84.5921 L66.8601 87.5435 L56.3046 87.5435 L56.3046 93.8976 Q57.0685 93.6372 57.8324 93.5157 Q58.5963 93.3768 59.3601 93.3768 Q63.7004 93.3768 66.2351 95.7553 Q68.7698 98.1337 68.7698 102.196 Q68.7698 106.38 66.1657 108.707 Q63.5615 111.016 58.8219 111.016 Q57.19 111.016 55.4886 110.738 Q53.8046 110.46 51.9991 109.904 L51.9991 106.38 Q53.5616 107.231 55.2282 107.648 Q56.8949 108.064 58.7525 108.064 Q61.756 108.064 63.5094 106.484 Q65.2629 104.905 65.2629 102.196 Q65.2629 99.4879 63.5094 97.908 Q61.756 96.3282 58.7525 96.3282 Q57.3463 96.3282 55.94 96.6407 Q54.5511 96.9532 53.0928 97.6129 L53.0928 84.5921 Z" fill="#000000" fill-rule="nonzero" fill-opacity="1" /><path clip-path="url(#clip870)" d="M83.1795 86.9011 Q80.4711 86.9011 79.0996 89.5747 Q77.7455 92.231 77.7455 97.5782 Q77.7455 102.908 79.0996 105.582 Q80.4711 108.238 83.1795 108.238 Q85.9051 108.238 87.2593 105.582 Q88.6308 102.908 88.6308 97.5782 Q88.6308 92.231 87.2593 89.5747 Q85.9051 86.9011 83.1795 86.9011 M83.1795 84.1234 Q87.5371 84.1234 89.8287 87.5782 Q92.1377 91.0157 92.1377 97.5782 Q92.1377 104.123 89.8287 107.578 Q87.5371 111.016 83.1795 111.016 Q78.8218 111.016 76.5128 107.578 Q74.2212 104.123 74.2212 97.5782 Q74.2212 91.0157 76.5128 87.5782 Q78.8218 84.1234 83.1795 84.1234 Z" fill="#000000" fill-rule="nonzero" fill-opacity="1" /><path clip-path="url(#clip870)" d="M130.221 20.1758 Q131.633 17.8147 135.128 15.7314 Q136.494 14.9212 140.707 14.9212 Q145.429 14.9212 148.369 18.6712 Q151.332 22.4212 151.332 28.5323 Q151.332 34.6433 148.369 38.3933 Q145.429 42.1433 140.707 42.1433 Q137.86 42.1433 135.8 41.0322 Q133.763 39.8979 132.42 37.5831 L132.42 51.3331 L128.138 51.3331 L128.138 28.7637 Q128.138 23.4165 130.221 20.1758 M146.911 28.5323 Q146.911 23.8332 144.966 21.1712 Q143.045 18.486 139.665 18.486 Q136.286 18.486 134.341 21.1712 Q132.42 23.8332 132.42 28.5323 Q132.42 33.2313 134.341 35.9165 Q136.286 38.5785 139.665 38.5785 Q143.045 38.5785 144.966 35.9165 Q146.911 33.2313 146.911 28.5323 Z" fill="#000000" fill-rule="nonzero" fill-opacity="1" /><path clip-path="url(#clip872)" d="M184.494 656.009 L184.494 667.406 L285.817 667.406 L285.817 656.009 L184.494 656.009 L184.494 656.009  Z" fill="#009af9" fill-rule="evenodd" fill-opacity="1"/>
<polyline clip-path="url(#clip872)" style="stroke:#000000; stroke-linecap:round; stroke-linejoin:round; stroke-width:4; stroke-opacity:1; fill:none" points="184.494,656.009 184.494,667.406 285.817,667.406 285.817,656.009 184.494,656.009 "/>
<path clip-path="url(#clip872)" d="M285.817 564.833 L285.817 667.406 L387.139 667.406 L387.139 564.833 L285.817 564.833 L285.817 564.833  Z" fill="#009af9" fill-rule="evenodd" fill-opacity="1"/>
<polyline clip-path="url(#clip872)" style="stroke:#000000; stroke-linecap:round; stroke-linejoin:round; stroke-width:4; stroke-opacity:1; fill:none" points="285.817,564.833 285.817,667.406 387.139,667.406 387.139,564.833 285.817,564.833 "/>
<path clip-path="url(#clip872)" d="M387.139 485.053 L387.139 667.406 L488.462 667.406 L488.462 485.053 L387.139 485.053 L387.139 485.053  Z" fill="#009af9" fill-rule="evenodd" fill-opacity="1"/>
<polyline clip-path="url(#clip872)" style="stroke:#000000; stroke-linecap:round; stroke-linejoin:round; stroke-width:4; stroke-opacity:1; fill:none" points="387.139,485.053 387.139,667.406 488.462,667.406 488.462,485.053 387.139,485.053 "/>
<path clip-path="url(#clip872)" d="M488.462 336.891 L488.462 667.406 L589.785 667.406 L589.785 336.891 L488.462 336.891 L488.462 336.891  Z" fill="#009af9" fill-rule="evenodd" fill-opacity="1"/>
<polyline clip-path="url(#clip872)" style="stroke:#000000; stroke-linecap:round; stroke-linejoin:round; stroke-width:4; stroke-opacity:1; fill:none" points="488.462,336.891 488.462,667.406 589.785,667.406 589.785,336.891 488.462,336.891 "/>
<path clip-path="url(#clip872)" d="M589.785 165.935 L589.785 667.406 L691.108 667.406 L691.108 165.935 L589.785 165.935 L589.785 165.935  Z" fill="#009af9" fill-rule="evenodd" fill-opacity="1"/>
<polyline clip-path="url(#clip872)" style="stroke:#000000; stroke-linecap:round; stroke-linejoin:round; stroke-width:4; stroke-opacity:1; fill:none" points="589.785,165.935 589.785,667.406 691.108,667.406 691.108,165.935 589.785,165.935 "/>
<path clip-path="url(#clip872)" d="M691.108 97.5521 L691.108 667.406 L792.431 667.406 L792.431 97.5521 L691.108 97.5521 L691.108 97.5521  Z" fill="#009af9" fill-rule="evenodd" fill-opacity="1"/>
<polyline clip-path="url(#clip872)" style="stroke:#000000; stroke-linecap:round; stroke-linejoin:round; stroke-width:4; stroke-opacity:1; fill:none" points="691.108,97.5521 691.108,667.406 792.431,667.406 792.431,97.5521 691.108,97.5521 "/>
<path clip-path="url(#clip872)" d="M792.431 382.479 L792.431 667.406 L893.754 667.406 L893.754 382.479 L792.431 382.479 L792.431 382.479  Z" fill="#009af9" fill-rule="evenodd" fill-opacity="1"/>
<polyline clip-path="url(#clip872)" style="stroke:#000000; stroke-linecap:round; stroke-linejoin:round; stroke-width:4; stroke-opacity:1; fill:none" points="792.431,382.479 792.431,667.406 893.754,667.406 893.754,382.479 792.431,382.479 "/>
<path clip-path="url(#clip872)" d="M893.754 496.45 L893.754 667.406 L995.077 667.406 L995.077 496.45 L893.754 496.45 L893.754 496.45  Z" fill="#009af9" fill-rule="evenodd" fill-opacity="1"/>
<polyline clip-path="url(#clip872)" style="stroke:#000000; stroke-linecap:round; stroke-linejoin:round; stroke-width:4; stroke-opacity:1; fill:none" points="893.754,496.45 893.754,667.406 995.077,667.406 995.077,496.45 893.754,496.45 "/>
<path clip-path="url(#clip872)" d="M995.077 587.627 L995.077 667.406 L1096.4 667.406 L1096.4 587.627 L995.077 587.627 L995.077 587.627  Z" fill="#009af9" fill-rule="evenodd" fill-opacity="1"/>
<polyline clip-path="url(#clip872)" style="stroke:#000000; stroke-linecap:round; stroke-linejoin:round; stroke-width:4; stroke-opacity:1; fill:none" points="995.077,587.627 995.077,667.406 1096.4,667.406 1096.4,587.627 995.077,587.627 "/>
<circle clip-path="url(#clip872)" style="fill:#009af9; stroke:none; fill-opacity:0" cx="235.155" cy="656.009" r="2"/>
<circle clip-path="url(#clip872)" style="fill:#009af9; stroke:none; fill-opacity:0" cx="336.478" cy="564.833" r="2"/>
<circle clip-path="url(#clip872)" style="fill:#009af9; stroke:none; fill-opacity:0" cx="437.801" cy="485.053" r="2"/>
<circle clip-path="url(#clip872)" style="fill:#009af9; stroke:none; fill-opacity:0" cx="539.124" cy="336.891" r="2"/>
<circle clip-path="url(#clip872)" style="fill:#009af9; stroke:none; fill-opacity:0" cx="640.447" cy="165.935" r="2"/>
<circle clip-path="url(#clip872)" style="fill:#009af9; stroke:none; fill-opacity:0" cx="741.77" cy="97.5521" r="2"/>
<circle clip-path="url(#clip872)" style="fill:#009af9; stroke:none; fill-opacity:0" cx="843.093" cy="382.479" r="2"/>
<circle clip-path="url(#clip872)" style="fill:#009af9; stroke:none; fill-opacity:0" cx="944.416" cy="496.45" r="2"/>
<circle clip-path="url(#clip872)" style="fill:#009af9; stroke:none; fill-opacity:0" cx="1045.74" cy="587.627" r="2"/>
<polyline clip-path="url(#clip872)" style="stroke:#ff0000; stroke-linecap:round; stroke-linejoin:round; stroke-width:8; stroke-opacity:1; fill:none" stroke-dasharray="32, 20" points="683.949,1237.26 683.949,-472.302 "/>
<polyline clip-path="url(#clip872)" style="stroke:#ff0000; stroke-linecap:round; stroke-linejoin:round; stroke-width:6; stroke-opacity:1; fill:none" stroke-dasharray="24, 12, 3, 12" points="316.155,1237.26 316.155,-472.302 "/>
<polyline clip-path="url(#clip872)" style="stroke:#ff0000; stroke-linecap:round; stroke-linejoin:round; stroke-width:6; stroke-opacity:1; fill:none" stroke-dasharray="24, 12, 3, 12" points="1005.45,1237.26 1005.45,-472.302 "/>
<path clip-path="url(#clip870)" d="M1328.14 667.406 L2352.76 667.406 L2352.76 97.5521 L1328.14 97.5521  Z" fill="#ffffff" fill-rule="evenodd" fill-opacity="1"/>
<defs>
  <clipPath id="clip873">
    <rect x="1328" y="97" width="1026" height="571"/>
  </clipPath>
</defs>
<polyline clip-path="url(#clip873)" style="stroke:#000000; stroke-linecap:round; stroke-linejoin:round; stroke-width:2; stroke-opacity:0.1; fill:none" points="1514.77,667.406 1514.77,97.5521 "/>
<polyline clip-path="url(#clip873)" style="stroke:#000000; stroke-linecap:round; stroke-linejoin:round; stroke-width:2; stroke-opacity:0.1; fill:none" points="1775.31,667.406 1775.31,97.5521 "/>
<polyline clip-path="url(#clip873)" style="stroke:#000000; stroke-linecap:round; stroke-linejoin:round; stroke-width:2; stroke-opacity:0.1; fill:none" points="2035.86,667.406 2035.86,97.5521 "/>
<polyline clip-path="url(#clip873)" style="stroke:#000000; stroke-linecap:round; stroke-linejoin:round; stroke-width:2; stroke-opacity:0.1; fill:none" points="2296.4,667.406 2296.4,97.5521 "/>
<polyline clip-path="url(#clip873)" style="stroke:#000000; stroke-linecap:round; stroke-linejoin:round; stroke-width:2; stroke-opacity:0.1; fill:none" points="1328.14,667.406 2352.76,667.406 "/>
<polyline clip-path="url(#clip873)" style="stroke:#000000; stroke-linecap:round; stroke-linejoin:round; stroke-width:2; stroke-opacity:0.1; fill:none" points="1328.14,565.647 2352.76,565.647 "/>
<polyline clip-path="url(#clip873)" style="stroke:#000000; stroke-linecap:round; stroke-linejoin:round; stroke-width:2; stroke-opacity:0.1; fill:none" points="1328.14,463.887 2352.76,463.887 "/>
<polyline clip-path="url(#clip873)" style="stroke:#000000; stroke-linecap:round; stroke-linejoin:round; stroke-width:2; stroke-opacity:0.1; fill:none" points="1328.14,362.127 2352.76,362.127 "/>
<polyline clip-path="url(#clip873)" style="stroke:#000000; stroke-linecap:round; stroke-linejoin:round; stroke-width:2; stroke-opacity:0.1; fill:none" points="1328.14,260.368 2352.76,260.368 "/>
<polyline clip-path="url(#clip873)" style="stroke:#000000; stroke-linecap:round; stroke-linejoin:round; stroke-width:2; stroke-opacity:0.1; fill:none" points="1328.14,158.608 2352.76,158.608 "/>
<polyline clip-path="url(#clip870)" style="stroke:#000000; stroke-linecap:round; stroke-linejoin:round; stroke-width:4; stroke-opacity:1; fill:none" points="1328.14,667.406 2352.76,667.406 "/>
<polyline clip-path="url(#clip870)" style="stroke:#000000; stroke-linecap:round; stroke-linejoin:round; stroke-width:4; stroke-opacity:1; fill:none" points="1514.77,667.406 1514.77,648.509 "/>
<polyline clip-path="url(#clip870)" style="stroke:#000000; stroke-linecap:round; stroke-linejoin:round; stroke-width:4; stroke-opacity:1; fill:none" points="1775.31,667.406 1775.31,648.509 "/>
<polyline clip-path="url(#clip870)" style="stroke:#000000; stroke-linecap:round; stroke-linejoin:round; stroke-width:4; stroke-opacity:1; fill:none" points="2035.86,667.406 2035.86,648.509 "/>
<polyline clip-path="url(#clip870)" style="stroke:#000000; stroke-linecap:round; stroke-linejoin:round; stroke-width:4; stroke-opacity:1; fill:none" points="2296.4,667.406 2296.4,648.509 "/>
<path clip-path="url(#clip870)" d="M1460.92 739.139 Q1459 741.054 1459.92 743.914 Q1460.84 746.75 1464.62 750.531 Q1468.39 754.3 1471.24 755.233 Q1474.09 756.141 1476 754.226 Q1477.93 752.299 1477.01 749.463 Q1476.09 746.603 1472.32 742.834 Q1468.54 739.053 1465.69 738.144 Q1462.84 737.211 1460.92 739.139 M1458.95 737.175 Q1462.03 734.093 1466.1 734.916 Q1470.16 735.714 1474.8 740.354 Q1479.43 744.982 1480.24 749.058 Q1481.05 753.109 1477.97 756.19 Q1474.89 759.272 1470.82 758.474 Q1466.76 757.651 1462.13 753.023 Q1457.49 748.383 1456.68 744.332 Q1455.87 740.256 1458.95 737.175 Z" fill="#000000" fill-rule="nonzero" fill-opacity="1" /><path clip-path="url(#clip870)" d="M1485.19 742.024 L1487.78 739.433 L1490.9 742.552 L1488.3 745.142 L1485.19 742.024 Z" fill="#000000" fill-rule="nonzero" fill-opacity="1" /><path clip-path="url(#clip870)" d="M1493.93 719.755 Q1496.09 718.355 1498.29 718.564 Q1500.49 718.761 1502.26 720.528 Q1504.98 723.241 1504.6 726.593 Q1504.21 729.944 1500.78 733.381 Q1499.62 734.535 1498.16 735.53 Q1496.73 736.524 1494.97 737.371 L1492.58 734.977 Q1494.21 734.548 1495.74 733.627 Q1497.28 732.706 1498.62 731.368 Q1500.95 729.036 1501.24 726.9 Q1501.55 724.751 1499.8 722.996 Q1498.17 721.375 1496.12 721.609 Q1494.07 721.817 1492.05 723.843 L1489.91 725.979 L1487.88 723.941 L1490.11 721.707 Q1491.94 719.878 1492.18 718.184 Q1492.42 716.477 1491.04 715.102 Q1489.63 713.69 1487.88 713.948 Q1486.12 714.182 1484.25 716.047 Q1483.23 717.066 1482.29 718.454 Q1481.34 719.841 1480.41 721.707 L1478.2 719.497 Q1479.22 717.692 1480.25 716.268 Q1481.3 714.832 1482.39 713.74 Q1485.21 710.916 1488.15 710.56 Q1491.07 710.192 1493.25 712.377 Q1494.77 713.899 1494.96 715.827 Q1495.13 717.742 1493.93 719.755 Z" fill="#000000" fill-rule="nonzero" fill-opacity="1" /><path clip-path="url(#clip870)" d="M1500.9 699.156 Q1498.99 701.071 1499.91 703.931 Q1500.83 706.767 1504.61 710.548 Q1508.38 714.317 1511.22 715.25 Q1514.07 716.158 1515.99 714.243 Q1517.91 712.316 1516.99 709.48 Q1516.07 706.619 1512.3 702.851 Q1508.52 699.07 1505.68 698.161 Q1502.83 697.228 1500.9 699.156 M1498.94 697.191 Q1502.02 694.11 1506.08 694.933 Q1510.14 695.731 1514.78 700.371 Q1519.41 704.999 1520.22 709.075 Q1521.03 713.126 1517.95 716.207 Q1514.87 719.288 1510.81 718.49 Q1506.74 717.668 1502.12 713.04 Q1497.48 708.399 1496.66 704.348 Q1495.85 700.273 1498.94 697.191 Z" fill="#000000" fill-rule="nonzero" fill-opacity="1" /><path clip-path="url(#clip870)" d="M1722.31 738.292 Q1720.39 740.207 1721.31 743.067 Q1722.23 745.903 1726.02 749.684 Q1729.78 753.453 1732.63 754.386 Q1735.48 755.294 1737.4 753.379 Q1739.32 751.452 1738.4 748.616 Q1737.48 745.756 1733.71 741.987 Q1729.93 738.206 1727.08 737.297 Q1724.24 736.364 1722.31 738.292 M1720.34 736.328 Q1723.43 733.246 1727.49 734.069 Q1731.55 734.867 1736.19 739.507 Q1740.82 744.135 1741.63 748.211 Q1742.44 752.262 1739.36 755.343 Q1736.28 758.425 1732.22 757.627 Q1728.15 756.804 1723.52 752.176 Q1718.88 747.536 1718.07 743.485 Q1717.26 739.409 1720.34 736.328 Z" fill="#000000" fill-rule="nonzero" fill-opacity="1" /><path clip-path="url(#clip870)" d="M1746.58 741.177 L1749.17 738.586 L1752.29 741.705 L1749.7 744.295 L1746.58 741.177 Z" fill="#000000" fill-rule="nonzero" fill-opacity="1" /><path clip-path="url(#clip870)" d="M1755.32 718.908 Q1757.48 717.508 1759.68 717.717 Q1761.89 717.913 1763.65 719.681 Q1766.37 722.394 1765.99 725.746 Q1765.61 729.097 1762.17 732.534 Q1761.02 733.688 1759.55 734.683 Q1758.12 735.677 1756.36 736.524 L1753.97 734.13 Q1755.6 733.701 1757.14 732.78 Q1758.67 731.859 1760.01 730.521 Q1762.34 728.189 1762.64 726.053 Q1762.94 723.904 1761.19 722.149 Q1759.57 720.528 1757.52 720.762 Q1755.47 720.97 1753.44 722.996 L1751.3 725.132 L1749.27 723.094 L1751.5 720.86 Q1753.33 719.031 1753.58 717.336 Q1753.81 715.63 1752.43 714.255 Q1751.02 712.843 1749.27 713.101 Q1747.51 713.334 1745.65 715.2 Q1744.63 716.219 1743.68 717.607 Q1742.74 718.994 1741.8 720.86 L1739.59 718.65 Q1740.61 716.845 1741.64 715.421 Q1742.69 713.985 1743.78 712.893 Q1746.6 710.069 1749.54 709.713 Q1752.46 709.345 1754.64 711.53 Q1756.17 713.052 1756.35 714.979 Q1756.52 716.895 1755.32 718.908 Z" fill="#000000" fill-rule="nonzero" fill-opacity="1" /><path clip-path="url(#clip870)" d="M1773.73 716.084 L1782.39 707.43 L1784.47 709.517 L1772.84 721.154 L1770.75 719.067 Q1770.7 716.195 1770.68 711.309 Q1770.65 706.398 1770.57 705.06 Q1770.42 702.532 1769.96 701.144 Q1769.51 699.733 1768.61 698.836 Q1767.15 697.376 1765.2 697.486 Q1763.26 697.584 1761.62 699.229 Q1760.45 700.395 1759.55 702.102 Q1758.67 703.796 1758.02 706.092 L1755.52 703.587 Q1756.41 701.488 1757.41 699.88 Q1758.4 698.272 1759.48 697.191 Q1762.33 694.343 1765.45 694.073 Q1768.56 693.803 1770.95 696.185 Q1772.08 697.314 1772.67 698.763 Q1773.25 700.187 1773.51 702.679 Q1773.56 703.342 1773.62 706.693 Q1773.67 710.032 1773.73 716.084 Z" fill="#000000" fill-rule="nonzero" fill-opacity="1" /><path clip-path="url(#clip870)" d="M1981.75 739.397 Q1979.83 741.312 1980.75 744.172 Q1981.67 747.008 1985.46 750.789 Q1989.22 754.558 1992.07 755.491 Q1994.92 756.399 1996.84 754.484 Q1998.76 752.557 1997.84 749.721 Q1996.92 746.86 1993.15 743.092 Q1989.37 739.311 1986.52 738.402 Q1983.68 737.469 1981.75 739.397 M1979.78 737.432 Q1982.87 734.351 1986.93 735.174 Q1990.99 735.972 1995.63 740.612 Q2000.26 745.24 2001.07 749.316 Q2001.88 753.367 1998.8 756.448 Q1995.72 759.529 1991.66 758.731 Q1987.59 757.909 1982.96 753.281 Q1978.32 748.641 1977.51 744.589 Q1976.7 740.514 1979.78 737.432 Z" fill="#000000" fill-rule="nonzero" fill-opacity="1" /><path clip-path="url(#clip870)" d="M2006.02 742.282 L2008.61 739.691 L2011.73 742.809 L2009.14 745.4 L2006.02 742.282 Z" fill="#000000" fill-rule="nonzero" fill-opacity="1" /><path clip-path="url(#clip870)" d="M2014.76 720.013 Q2016.92 718.613 2019.12 718.822 Q2021.33 719.018 2023.09 720.786 Q2025.81 723.499 2025.43 726.85 Q2025.05 730.202 2021.61 733.639 Q2020.46 734.793 2018.99 735.787 Q2017.56 736.782 2015.8 737.629 L2013.41 735.235 Q2015.04 734.805 2016.58 733.885 Q2018.11 732.964 2019.45 731.626 Q2021.78 729.293 2022.08 727.157 Q2022.38 725.009 2020.63 723.254 Q2019.01 721.633 2016.96 721.866 Q2014.91 722.075 2012.88 724.101 L2010.74 726.237 L2008.71 724.199 L2010.94 721.965 Q2012.77 720.135 2013.02 718.441 Q2013.25 716.735 2011.87 715.36 Q2010.46 713.948 2008.71 714.206 Q2006.95 714.439 2005.09 716.305 Q2004.07 717.324 2003.12 718.711 Q2002.18 720.099 2001.24 721.965 L1999.03 719.755 Q2000.05 717.95 2001.08 716.526 Q2002.13 715.09 2003.22 713.997 Q2006.04 711.174 2008.98 710.818 Q2011.9 710.45 2014.08 712.635 Q2015.61 714.157 2015.79 716.084 Q2015.96 717.999 2014.76 720.013 Z" fill="#000000" fill-rule="nonzero" fill-opacity="1" /><path clip-path="url(#clip870)" d="M2023.77 698.431 L2027.29 714.476 L2033.55 708.215 L2023.77 698.431 M2020.96 696.921 L2024.08 693.803 L2036.02 705.748 L2038.64 703.133 L2040.7 705.195 L2038.08 707.81 L2042.4 712.131 L2039.94 714.599 L2035.62 710.278 L2027.34 718.552 L2024.95 716.158 L2020.96 696.921 Z" fill="#000000" fill-rule="nonzero" fill-opacity="1" /><path clip-path="url(#clip870)" d="M2242.47 739.225 Q2240.55 741.14 2241.47 744 Q2242.39 746.836 2246.17 750.617 Q2249.94 754.386 2252.79 755.319 Q2255.64 756.227 2257.55 754.312 Q2259.48 752.385 2258.56 749.549 Q2257.64 746.689 2253.87 742.92 Q2250.09 739.139 2247.24 738.23 Q2244.39 737.297 2242.47 739.225 M2240.5 737.261 Q2243.58 734.179 2247.65 735.002 Q2251.71 735.8 2256.35 740.44 Q2260.98 745.068 2261.79 749.144 Q2262.6 753.195 2259.52 756.276 Q2256.44 759.358 2252.37 758.56 Q2248.31 757.737 2243.68 753.109 Q2239.04 748.469 2238.23 744.418 Q2237.42 740.342 2240.5 737.261 Z" fill="#000000" fill-rule="nonzero" fill-opacity="1" /><path clip-path="url(#clip870)" d="M2266.73 742.11 L2269.33 739.519 L2272.44 742.638 L2269.85 745.228 L2266.73 742.11 Z" fill="#000000" fill-rule="nonzero" fill-opacity="1" /><path clip-path="url(#clip870)" d="M2275.48 719.841 Q2277.64 718.441 2279.83 718.65 Q2282.04 718.846 2283.81 720.614 Q2286.52 723.327 2286.14 726.679 Q2285.76 730.03 2282.33 733.467 Q2281.17 734.621 2279.71 735.616 Q2278.27 736.61 2276.52 737.457 L2274.13 735.063 Q2275.76 734.634 2277.29 733.713 Q2278.83 732.792 2280.16 731.454 Q2282.5 729.122 2282.79 726.985 Q2283.1 724.837 2281.34 723.082 Q2279.72 721.461 2277.67 721.695 Q2275.62 721.903 2273.6 723.929 L2271.46 726.065 L2269.42 724.027 L2271.66 721.793 Q2273.49 719.964 2273.73 718.269 Q2273.97 716.563 2272.59 715.188 Q2271.18 713.776 2269.42 714.034 Q2267.67 714.267 2265.8 716.133 Q2264.78 717.152 2263.84 718.54 Q2262.89 719.927 2261.96 721.793 L2259.75 719.583 Q2260.77 717.778 2261.8 716.354 Q2262.84 714.918 2263.94 713.826 Q2266.76 711.002 2269.69 710.646 Q2272.62 710.278 2274.8 712.463 Q2276.32 713.985 2276.51 715.912 Q2276.68 717.828 2275.48 719.841 Z" fill="#000000" fill-rule="nonzero" fill-opacity="1" /><path clip-path="url(#clip870)" d="M2289.3 705.478 Q2287.63 707.147 2287.79 709.271 Q2287.96 711.383 2289.95 713.371 Q2291.93 715.348 2294.05 715.532 Q2296.17 715.691 2297.84 714.022 Q2299.51 712.352 2299.34 710.241 Q2299.17 708.105 2297.19 706.128 Q2295.2 704.14 2293.08 703.98 Q2290.97 703.808 2289.3 705.478 M2286.45 692.784 L2288.71 695.043 Q2287.33 695.534 2286.14 696.258 Q2284.96 696.97 2284.03 697.903 Q2281.58 700.359 2281.93 703.317 Q2282.3 706.263 2285.47 709.799 Q2285.12 708.007 2285.65 706.349 Q2286.17 704.68 2287.48 703.366 Q2290.24 700.604 2293.52 700.69 Q2296.8 700.751 2299.68 703.636 Q2302.51 706.46 2302.54 709.836 Q2302.58 713.212 2299.81 715.986 Q2296.63 719.166 2292.51 718.417 Q2288.39 717.656 2283.76 713.028 Q2279.42 708.682 2278.9 704.041 Q2278.37 699.389 2281.85 695.915 Q2282.78 694.982 2283.91 694.221 Q2285.05 693.447 2286.45 692.784 Z" fill="#000000" fill-rule="nonzero" fill-opacity="1" /><polyline clip-path="url(#clip870)" style="stroke:#000000; stroke-linecap:round; stroke-linejoin:round; stroke-width:4; stroke-opacity:1; fill:none" points="1328.14,667.406 1328.14,97.5521 "/>
<polyline clip-path="url(#clip870)" style="stroke:#000000; stroke-linecap:round; stroke-linejoin:round; stroke-width:4; stroke-opacity:1; fill:none" points="1328.14,667.406 1347.04,667.406 "/>
<polyline clip-path="url(#clip870)" style="stroke:#000000; stroke-linecap:round; stroke-linejoin:round; stroke-width:4; stroke-opacity:1; fill:none" points="1328.14,565.647 1347.04,565.647 "/>
<polyline clip-path="url(#clip870)" style="stroke:#000000; stroke-linecap:round; stroke-linejoin:round; stroke-width:4; stroke-opacity:1; fill:none" points="1328.14,463.887 1347.04,463.887 "/>
<polyline clip-path="url(#clip870)" style="stroke:#000000; stroke-linecap:round; stroke-linejoin:round; stroke-width:4; stroke-opacity:1; fill:none" points="1328.14,362.127 1347.04,362.127 "/>
<polyline clip-path="url(#clip870)" style="stroke:#000000; stroke-linecap:round; stroke-linejoin:round; stroke-width:4; stroke-opacity:1; fill:none" points="1328.14,260.368 1347.04,260.368 "/>
<polyline clip-path="url(#clip870)" style="stroke:#000000; stroke-linecap:round; stroke-linejoin:round; stroke-width:4; stroke-opacity:1; fill:none" points="1328.14,158.608 1347.04,158.608 "/>
<path clip-path="url(#clip870)" d="M1283.18 656.755 Q1280.47 656.755 1279.1 659.429 Q1277.75 662.085 1277.75 667.432 Q1277.75 672.762 1279.1 675.436 Q1280.47 678.092 1283.18 678.092 Q1285.91 678.092 1287.26 675.436 Q1288.63 672.762 1288.63 667.432 Q1288.63 662.085 1287.26 659.429 Q1285.91 656.755 1283.18 656.755 M1283.18 653.978 Q1287.54 653.978 1289.83 657.432 Q1292.14 660.87 1292.14 667.432 Q1292.14 673.978 1289.83 677.432 Q1287.54 680.87 1283.18 680.87 Q1278.82 680.87 1276.51 677.432 Q1274.22 673.978 1274.22 667.432 Q1274.22 660.87 1276.51 657.432 Q1278.82 653.978 1283.18 653.978 Z" fill="#000000" fill-rule="nonzero" fill-opacity="1" /><path clip-path="url(#clip870)" d="M1253.67 575.655 L1259.39 575.655 L1259.39 555.881 L1253.16 557.131 L1253.16 553.937 L1259.36 552.687 L1262.87 552.687 L1262.87 575.655 L1268.6 575.655 L1268.6 578.607 L1253.67 578.607 L1253.67 575.655 Z" fill="#000000" fill-rule="nonzero" fill-opacity="1" /><path clip-path="url(#clip870)" d="M1283.18 554.996 Q1280.47 554.996 1279.1 557.669 Q1277.75 560.326 1277.75 565.673 Q1277.75 571.003 1279.1 573.676 Q1280.47 576.332 1283.18 576.332 Q1285.91 576.332 1287.26 573.676 Q1288.63 571.003 1288.63 565.673 Q1288.63 560.326 1287.26 557.669 Q1285.91 554.996 1283.18 554.996 M1283.18 552.218 Q1287.54 552.218 1289.83 555.673 Q1292.14 559.11 1292.14 565.673 Q1292.14 572.218 1289.83 575.673 Q1287.54 579.11 1283.18 579.11 Q1278.82 579.11 1276.51 575.673 Q1274.22 572.218 1274.22 565.673 Q1274.22 559.11 1276.51 555.673 Q1278.82 552.218 1283.18 552.218 Z" fill="#000000" fill-rule="nonzero" fill-opacity="1" /><path clip-path="url(#clip870)" d="M1256.08 473.896 L1268.32 473.896 L1268.32 476.847 L1251.86 476.847 L1251.86 473.896 Q1253.86 471.83 1257.29 468.357 Q1260.75 464.868 1261.63 463.861 Q1263.32 461.969 1263.98 460.667 Q1264.66 459.347 1264.66 458.08 Q1264.66 456.014 1263.2 454.712 Q1261.76 453.41 1259.43 453.41 Q1257.78 453.41 1255.94 453.983 Q1254.12 454.555 1252.03 455.719 L1252.03 452.177 Q1254.15 451.326 1255.99 450.892 Q1257.83 450.458 1259.36 450.458 Q1263.39 450.458 1265.78 452.472 Q1268.18 454.486 1268.18 457.854 Q1268.18 459.451 1267.57 460.892 Q1266.98 462.316 1265.4 464.26 Q1264.97 464.764 1262.64 467.177 Q1260.31 469.573 1256.08 473.896 Z" fill="#000000" fill-rule="nonzero" fill-opacity="1" /><path clip-path="url(#clip870)" d="M1283.18 453.236 Q1280.47 453.236 1279.1 455.91 Q1277.75 458.566 1277.75 463.913 Q1277.75 469.243 1279.1 471.916 Q1280.47 474.573 1283.18 474.573 Q1285.91 474.573 1287.26 471.916 Q1288.63 469.243 1288.63 463.913 Q1288.63 458.566 1287.26 455.91 Q1285.91 453.236 1283.18 453.236 M1283.18 450.458 Q1287.54 450.458 1289.83 453.913 Q1292.14 457.351 1292.14 463.913 Q1292.14 470.458 1289.83 473.913 Q1287.54 477.35 1283.18 477.35 Q1278.82 477.35 1276.51 473.913 Q1274.22 470.458 1274.22 463.913 Q1274.22 457.351 1276.51 453.913 Q1278.82 450.458 1283.18 450.458 Z" fill="#000000" fill-rule="nonzero" fill-opacity="1" /><path clip-path="url(#clip870)" d="M1263.68 361.112 Q1266.2 361.65 1267.61 363.351 Q1269.03 365.053 1269.03 367.553 Q1269.03 371.389 1266.39 373.49 Q1263.75 375.591 1258.89 375.591 Q1257.26 375.591 1255.52 375.261 Q1253.8 374.948 1251.96 374.306 L1251.96 370.921 Q1253.42 371.771 1255.16 372.205 Q1256.89 372.639 1258.79 372.639 Q1262.09 372.639 1263.8 371.337 Q1265.54 370.035 1265.54 367.553 Q1265.54 365.261 1263.93 363.976 Q1262.33 362.674 1259.46 362.674 L1256.44 362.674 L1256.44 359.792 L1259.6 359.792 Q1262.19 359.792 1263.56 358.768 Q1264.93 357.726 1264.93 355.782 Q1264.93 353.785 1263.51 352.726 Q1262.1 351.65 1259.46 351.65 Q1258.02 351.65 1256.37 351.962 Q1254.72 352.275 1252.75 352.935 L1252.75 349.81 Q1254.74 349.254 1256.48 348.976 Q1258.23 348.699 1259.78 348.699 Q1263.77 348.699 1266.1 350.521 Q1268.42 352.327 1268.42 355.417 Q1268.42 357.57 1267.19 359.063 Q1265.96 360.539 1263.68 361.112 Z" fill="#000000" fill-rule="nonzero" fill-opacity="1" /><path clip-path="url(#clip870)" d="M1283.18 351.476 Q1280.47 351.476 1279.1 354.15 Q1277.75 356.806 1277.75 362.153 Q1277.75 367.483 1279.1 370.157 Q1280.47 372.813 1283.18 372.813 Q1285.91 372.813 1287.26 370.157 Q1288.63 367.483 1288.63 362.153 Q1288.63 356.806 1287.26 354.15 Q1285.91 351.476 1283.18 351.476 M1283.18 348.699 Q1287.54 348.699 1289.83 352.153 Q1292.14 355.591 1292.14 362.153 Q1292.14 368.698 1289.83 372.153 Q1287.54 375.591 1283.18 375.591 Q1278.82 375.591 1276.51 372.153 Q1274.22 368.698 1274.22 362.153 Q1274.22 355.591 1276.51 352.153 Q1278.82 348.699 1283.18 348.699 Z" fill="#000000" fill-rule="nonzero" fill-opacity="1" /><path clip-path="url(#clip870)" d="M1262.69 250.463 L1253.84 264.3 L1262.69 264.3 L1262.69 250.463 M1261.77 247.408 L1266.18 247.408 L1266.18 264.3 L1269.88 264.3 L1269.88 267.217 L1266.18 267.217 L1266.18 273.328 L1262.69 273.328 L1262.69 267.217 L1250.99 267.217 L1250.99 263.831 L1261.77 247.408 Z" fill="#000000" fill-rule="nonzero" fill-opacity="1" /><path clip-path="url(#clip870)" d="M1283.18 249.717 Q1280.47 249.717 1279.1 252.39 Q1277.75 255.046 1277.75 260.394 Q1277.75 265.723 1279.1 268.397 Q1280.47 271.053 1283.18 271.053 Q1285.91 271.053 1287.26 268.397 Q1288.63 265.723 1288.63 260.394 Q1288.63 255.046 1287.26 252.39 Q1285.91 249.717 1283.18 249.717 M1283.18 246.939 Q1287.54 246.939 1289.83 250.394 Q1292.14 253.831 1292.14 260.394 Q1292.14 266.939 1289.83 270.394 Q1287.54 273.831 1283.18 273.831 Q1278.82 273.831 1276.51 270.394 Q1274.22 266.939 1274.22 260.394 Q1274.22 253.831 1276.51 250.394 Q1278.82 246.939 1283.18 246.939 Z" fill="#000000" fill-rule="nonzero" fill-opacity="1" /><path clip-path="url(#clip870)" d="M1253.09 145.648 L1266.86 145.648 L1266.86 148.599 L1256.3 148.599 L1256.3 154.953 Q1257.07 154.693 1257.83 154.571 Q1258.6 154.433 1259.36 154.433 Q1263.7 154.433 1266.24 156.811 Q1268.77 159.19 1268.77 163.252 Q1268.77 167.436 1266.17 169.762 Q1263.56 172.071 1258.82 172.071 Q1257.19 172.071 1255.49 171.794 Q1253.8 171.516 1252 170.96 L1252 167.436 Q1253.56 168.287 1255.23 168.703 Q1256.89 169.12 1258.75 169.12 Q1261.76 169.12 1263.51 167.54 Q1265.26 165.96 1265.26 163.252 Q1265.26 160.544 1263.51 158.964 Q1261.76 157.384 1258.75 157.384 Q1257.35 157.384 1255.94 157.696 Q1254.55 158.009 1253.09 158.669 L1253.09 145.648 Z" fill="#000000" fill-rule="nonzero" fill-opacity="1" /><path clip-path="url(#clip870)" d="M1283.18 147.957 Q1280.47 147.957 1279.1 150.631 Q1277.75 153.287 1277.75 158.634 Q1277.75 163.964 1279.1 166.637 Q1280.47 169.294 1283.18 169.294 Q1285.91 169.294 1287.26 166.637 Q1288.63 163.964 1288.63 158.634 Q1288.63 153.287 1287.26 150.631 Q1285.91 147.957 1283.18 147.957 M1283.18 145.179 Q1287.54 145.179 1289.83 148.634 Q1292.14 152.072 1292.14 158.634 Q1292.14 165.179 1289.83 168.634 Q1287.54 172.071 1283.18 172.071 Q1278.82 172.071 1276.51 168.634 Q1274.22 165.179 1274.22 158.634 Q1274.22 152.072 1276.51 148.634 Q1278.82 145.179 1283.18 145.179 Z" fill="#000000" fill-rule="nonzero" fill-opacity="1" /><path clip-path="url(#clip870)" d="M1340.04 18.9258 Q1336.52 18.9258 1334.62 21.4721 Q1332.63 24.1341 1332.63 28.5323 Q1332.63 33.185 1334.6 35.8702 Q1336.59 38.5322 1340.04 38.5322 Q1343.44 38.5322 1345.43 35.847 Q1347.42 33.1619 1347.42 28.5323 Q1347.42 24.2962 1345.43 21.4721 Q1343.6 18.9258 1340.04 18.9258 M1340.04 15.5462 L1354.18 15.5462 L1354.18 19.8054 L1349.41 19.8054 Q1351.93 23.4165 1351.93 28.5323 Q1351.93 34.898 1348.76 38.5091 Q1345.59 42.1433 1340.04 42.1433 Q1334.46 42.1433 1331.31 38.5091 Q1328.14 34.898 1328.14 28.5323 Q1328.14 22.1203 1331.31 18.5323 Q1333.92 15.5462 1340.04 15.5462 Z" fill="#000000" fill-rule="nonzero" fill-opacity="1" /><path clip-path="url(#clip870)" d="M1378.35 19.6666 Q1377.49 19.3656 1376.63 19.1342 Q1374.34 18.5323 1371.89 18.5323 Q1367.65 18.5323 1365.29 20.824 Q1363.09 22.9536 1362.67 26.8656 L1378.35 26.8656 L1378.35 30.1989 L1362.67 30.1989 Q1363.09 34.1109 1365.29 36.2405 Q1367.65 38.5322 1371.89 38.5322 Q1374.85 38.5322 1376.63 37.9304 L1378.35 37.3517 L1378.35 41.2174 L1376.52 41.634 Q1374.11 42.1433 1371.63 42.1433 Q1365.43 42.1433 1361.82 38.5322 Q1358.18 34.9211 1358.18 28.5323 Q1358.18 22.1434 1361.82 18.5323 Q1365.43 14.9212 1371.63 14.9212 Q1373.97 14.9212 1376.52 15.4305 Q1377.44 15.6157 1378.35 15.8934 L1378.35 19.6666 Z" fill="#000000" fill-rule="nonzero" fill-opacity="1" /><path clip-path="url(#clip873)" d="M1384.49 606.351 L1384.49 667.406 L1514.77 667.406 L1514.77 606.351 L1384.49 606.351 L1384.49 606.351  Z" fill="#009af9" fill-rule="evenodd" fill-opacity="1"/>
<polyline clip-path="url(#clip873)" style="stroke:#000000; stroke-linecap:round; stroke-linejoin:round; stroke-width:4; stroke-opacity:1; fill:none" points="1384.49,606.351 1384.49,667.406 1514.77,667.406 1514.77,606.351 1384.49,606.351 "/>
<path clip-path="url(#clip873)" d="M1514.77 474.063 L1514.77 667.406 L1645.04 667.406 L1645.04 474.063 L1514.77 474.063 L1514.77 474.063  Z" fill="#009af9" fill-rule="evenodd" fill-opacity="1"/>
<polyline clip-path="url(#clip873)" style="stroke:#000000; stroke-linecap:round; stroke-linejoin:round; stroke-width:4; stroke-opacity:1; fill:none" points="1514.77,474.063 1514.77,667.406 1645.04,667.406 1645.04,474.063 1514.77,474.063 "/>
<path clip-path="url(#clip873)" d="M1645.04 311.247 L1645.04 667.406 L1775.31 667.406 L1775.31 311.247 L1645.04 311.247 L1645.04 311.247  Z" fill="#009af9" fill-rule="evenodd" fill-opacity="1"/>
<polyline clip-path="url(#clip873)" style="stroke:#000000; stroke-linecap:round; stroke-linejoin:round; stroke-width:4; stroke-opacity:1; fill:none" points="1645.04,311.247 1645.04,667.406 1775.31,667.406 1775.31,311.247 1645.04,311.247 "/>
<path clip-path="url(#clip873)" d="M1775.31 97.5521 L1775.31 667.406 L1905.58 667.406 L1905.58 97.5521 L1775.31 97.5521 L1775.31 97.5521  Z" fill="#009af9" fill-rule="evenodd" fill-opacity="1"/>
<polyline clip-path="url(#clip873)" style="stroke:#000000; stroke-linecap:round; stroke-linejoin:round; stroke-width:4; stroke-opacity:1; fill:none" points="1775.31,97.5521 1775.31,667.406 1905.58,667.406 1905.58,97.5521 1775.31,97.5521 "/>
<path clip-path="url(#clip873)" d="M1905.58 117.904 L1905.58 667.406 L2035.86 667.406 L2035.86 117.904 L1905.58 117.904 L1905.58 117.904  Z" fill="#009af9" fill-rule="evenodd" fill-opacity="1"/>
<polyline clip-path="url(#clip873)" style="stroke:#000000; stroke-linecap:round; stroke-linejoin:round; stroke-width:4; stroke-opacity:1; fill:none" points="1905.58,117.904 1905.58,667.406 2035.86,667.406 2035.86,117.904 1905.58,117.904 "/>
<path clip-path="url(#clip873)" d="M2035.86 494.415 L2035.86 667.406 L2166.13 667.406 L2166.13 494.415 L2035.86 494.415 L2035.86 494.415  Z" fill="#009af9" fill-rule="evenodd" fill-opacity="1"/>
<polyline clip-path="url(#clip873)" style="stroke:#000000; stroke-linecap:round; stroke-linejoin:round; stroke-width:4; stroke-opacity:1; fill:none" points="2035.86,494.415 2035.86,667.406 2166.13,667.406 2166.13,494.415 2035.86,494.415 "/>
<path clip-path="url(#clip873)" d="M2166.13 575.823 L2166.13 667.406 L2296.4 667.406 L2296.4 575.823 L2166.13 575.823 L2166.13 575.823  Z" fill="#009af9" fill-rule="evenodd" fill-opacity="1"/>
<polyline clip-path="url(#clip873)" style="stroke:#000000; stroke-linecap:round; stroke-linejoin:round; stroke-width:4; stroke-opacity:1; fill:none" points="2166.13,575.823 2166.13,667.406 2296.4,667.406 2296.4,575.823 2166.13,575.823 "/>
<circle clip-path="url(#clip873)" style="fill:#009af9; stroke:none; fill-opacity:0" cx="1449.63" cy="606.351" r="2"/>
<circle clip-path="url(#clip873)" style="fill:#009af9; stroke:none; fill-opacity:0" cx="1579.9" cy="474.063" r="2"/>
<circle clip-path="url(#clip873)" style="fill:#009af9; stroke:none; fill-opacity:0" cx="1710.17" cy="311.247" r="2"/>
<circle clip-path="url(#clip873)" style="fill:#009af9; stroke:none; fill-opacity:0" cx="1840.45" cy="97.5521" r="2"/>
<circle clip-path="url(#clip873)" style="fill:#009af9; stroke:none; fill-opacity:0" cx="1970.72" cy="117.904" r="2"/>
<circle clip-path="url(#clip873)" style="fill:#009af9; stroke:none; fill-opacity:0" cx="2100.99" cy="494.415" r="2"/>
<circle clip-path="url(#clip873)" style="fill:#009af9; stroke:none; fill-opacity:0" cx="2231.26" cy="575.823" r="2"/>
<polyline clip-path="url(#clip873)" style="stroke:#ff0000; stroke-linecap:round; stroke-linejoin:round; stroke-width:8; stroke-opacity:1; fill:none" stroke-dasharray="32, 20" points="1859.69,1237.26 1859.69,-472.302 "/>
<polyline clip-path="url(#clip873)" style="stroke:#ff0000; stroke-linecap:round; stroke-linejoin:round; stroke-width:6; stroke-opacity:1; fill:none" stroke-dasharray="24, 12, 3, 12" points="1445.11,1237.26 1445.11,-472.302 "/>
<polyline clip-path="url(#clip873)" style="stroke:#ff0000; stroke-linecap:round; stroke-linejoin:round; stroke-width:6; stroke-opacity:1; fill:none" stroke-dasharray="24, 12, 3, 12" points="2186.15,1237.26 2186.15,-472.302 "/>
<path clip-path="url(#clip870)" d="M128.138 1467.41 L1152.76 1467.41 L1152.76 897.552 L128.138 897.552  Z" fill="#ffffff" fill-rule="evenodd" fill-opacity="1"/>
<defs>
  <clipPath id="clip874">
    <rect x="128" y="897" width="1026" height="571"/>
  </clipPath>
</defs>
<polyline clip-path="url(#clip874)" style="stroke:#000000; stroke-linecap:round; stroke-linejoin:round; stroke-width:2; stroke-opacity:0.1; fill:none" points="314.766,1467.41 314.766,897.552 "/>
<polyline clip-path="url(#clip874)" style="stroke:#000000; stroke-linecap:round; stroke-linejoin:round; stroke-width:2; stroke-opacity:0.1; fill:none" points="575.311,1467.41 575.311,897.552 "/>
<polyline clip-path="url(#clip874)" style="stroke:#000000; stroke-linecap:round; stroke-linejoin:round; stroke-width:2; stroke-opacity:0.1; fill:none" points="835.855,1467.41 835.855,897.552 "/>
<polyline clip-path="url(#clip874)" style="stroke:#000000; stroke-linecap:round; stroke-linejoin:round; stroke-width:2; stroke-opacity:0.1; fill:none" points="1096.4,1467.41 1096.4,897.552 "/>
<polyline clip-path="url(#clip874)" style="stroke:#000000; stroke-linecap:round; stroke-linejoin:round; stroke-width:2; stroke-opacity:0.1; fill:none" points="128.138,1467.41 1152.76,1467.41 "/>
<polyline clip-path="url(#clip874)" style="stroke:#000000; stroke-linecap:round; stroke-linejoin:round; stroke-width:2; stroke-opacity:0.1; fill:none" points="128.138,1376.95 1152.76,1376.95 "/>
<polyline clip-path="url(#clip874)" style="stroke:#000000; stroke-linecap:round; stroke-linejoin:round; stroke-width:2; stroke-opacity:0.1; fill:none" points="128.138,1286.5 1152.76,1286.5 "/>
<polyline clip-path="url(#clip874)" style="stroke:#000000; stroke-linecap:round; stroke-linejoin:round; stroke-width:2; stroke-opacity:0.1; fill:none" points="128.138,1196.05 1152.76,1196.05 "/>
<polyline clip-path="url(#clip874)" style="stroke:#000000; stroke-linecap:round; stroke-linejoin:round; stroke-width:2; stroke-opacity:0.1; fill:none" points="128.138,1105.59 1152.76,1105.59 "/>
<polyline clip-path="url(#clip874)" style="stroke:#000000; stroke-linecap:round; stroke-linejoin:round; stroke-width:2; stroke-opacity:0.1; fill:none" points="128.138,1015.14 1152.76,1015.14 "/>
<polyline clip-path="url(#clip874)" style="stroke:#000000; stroke-linecap:round; stroke-linejoin:round; stroke-width:2; stroke-opacity:0.1; fill:none" points="128.138,924.688 1152.76,924.688 "/>
<polyline clip-path="url(#clip870)" style="stroke:#000000; stroke-linecap:round; stroke-linejoin:round; stroke-width:4; stroke-opacity:1; fill:none" points="128.138,1467.41 1152.76,1467.41 "/>
<polyline clip-path="url(#clip870)" style="stroke:#000000; stroke-linecap:round; stroke-linejoin:round; stroke-width:4; stroke-opacity:1; fill:none" points="314.766,1467.41 314.766,1448.51 "/>
<polyline clip-path="url(#clip870)" style="stroke:#000000; stroke-linecap:round; stroke-linejoin:round; stroke-width:4; stroke-opacity:1; fill:none" points="575.311,1467.41 575.311,1448.51 "/>
<polyline clip-path="url(#clip870)" style="stroke:#000000; stroke-linecap:round; stroke-linejoin:round; stroke-width:4; stroke-opacity:1; fill:none" points="835.855,1467.41 835.855,1448.51 "/>
<polyline clip-path="url(#clip870)" style="stroke:#000000; stroke-linecap:round; stroke-linejoin:round; stroke-width:4; stroke-opacity:1; fill:none" points="1096.4,1467.41 1096.4,1448.51 "/>
<path clip-path="url(#clip870)" d="M261.261 1538.8 Q259.345 1540.71 260.266 1543.57 Q261.187 1546.41 264.968 1550.19 Q268.737 1553.96 271.585 1554.89 Q274.433 1555.8 276.348 1553.88 Q278.275 1551.96 277.355 1549.12 Q276.434 1546.26 272.665 1542.49 Q268.884 1538.71 266.036 1537.8 Q263.188 1536.87 261.261 1538.8 M259.296 1536.83 Q262.378 1533.75 266.441 1534.57 Q270.504 1535.37 275.145 1540.01 Q279.773 1544.64 280.583 1548.71 Q281.393 1552.77 278.312 1555.85 Q275.231 1558.93 271.167 1558.13 Q267.104 1557.31 262.476 1552.68 Q257.836 1548.04 257.025 1543.99 Q256.215 1539.91 259.296 1536.83 Z" fill="#000000" fill-rule="nonzero" fill-opacity="1" /><path clip-path="url(#clip870)" d="M285.53 1541.68 L288.121 1539.09 L291.239 1542.21 L288.649 1544.8 L285.53 1541.68 Z" fill="#000000" fill-rule="nonzero" fill-opacity="1" /><path clip-path="url(#clip870)" d="M278.337 1518.45 L288.072 1508.72 L290.158 1510.81 L282.695 1518.27 L287.188 1522.76 Q287.544 1522.04 287.998 1521.41 Q288.44 1520.77 288.98 1520.23 Q292.049 1517.16 295.523 1517.05 Q298.997 1516.94 301.87 1519.82 Q304.828 1522.77 304.632 1526.26 Q304.423 1529.74 301.072 1533.09 Q299.918 1534.24 298.519 1535.25 Q297.131 1536.24 295.462 1537.13 L292.97 1534.63 Q294.676 1534.13 296.149 1533.25 Q297.622 1532.36 298.936 1531.05 Q301.06 1528.93 301.182 1526.57 Q301.305 1524.21 299.39 1522.3 Q297.475 1520.38 295.118 1520.5 Q292.761 1520.63 290.637 1522.75 Q289.643 1523.74 288.87 1524.96 Q288.108 1526.16 287.544 1527.66 L278.337 1518.45 Z" fill="#000000" fill-rule="nonzero" fill-opacity="1" /><path clip-path="url(#clip870)" d="M310.267 1503.42 Q312.427 1502.02 314.625 1502.22 Q316.834 1502.42 318.602 1504.19 Q321.315 1506.9 320.935 1510.25 Q320.554 1513.6 317.117 1517.04 Q315.963 1518.2 314.502 1519.19 Q313.066 1520.18 311.31 1521.03 L308.916 1518.64 Q310.549 1518.21 312.084 1517.29 Q313.618 1516.37 314.956 1515.03 Q317.289 1512.7 317.583 1510.56 Q317.89 1508.41 316.135 1506.66 Q314.514 1505.04 312.464 1505.27 Q310.414 1505.48 308.388 1507.5 L306.252 1509.64 L304.215 1507.6 L306.449 1505.37 Q308.278 1503.54 308.524 1501.84 Q308.757 1500.14 307.382 1498.76 Q305.97 1497.35 304.215 1497.61 Q302.459 1497.84 300.593 1499.71 Q299.574 1500.73 298.629 1502.11 Q297.684 1503.5 296.751 1505.37 L294.541 1503.16 Q295.56 1501.35 296.591 1499.93 Q297.635 1498.49 298.727 1497.4 Q301.551 1494.58 304.485 1494.22 Q307.406 1493.85 309.592 1496.04 Q311.114 1497.56 311.298 1499.49 Q311.47 1501.4 310.267 1503.42 Z" fill="#000000" fill-rule="nonzero" fill-opacity="1" /><path clip-path="url(#clip870)" d="M521.204 1539.4 Q519.289 1541.31 520.209 1544.17 Q521.13 1547.01 524.911 1550.79 Q528.68 1554.56 531.528 1555.49 Q534.376 1556.4 536.291 1554.48 Q538.218 1552.56 537.298 1549.72 Q536.377 1546.86 532.608 1543.09 Q528.827 1539.31 525.979 1538.4 Q523.131 1537.47 521.204 1539.4 M519.24 1537.43 Q522.321 1534.35 526.384 1535.17 Q530.448 1535.97 535.088 1540.61 Q539.716 1545.24 540.526 1549.32 Q541.337 1553.37 538.255 1556.45 Q535.174 1559.53 531.111 1558.73 Q527.047 1557.91 522.419 1553.28 Q517.779 1548.64 516.969 1544.59 Q516.158 1540.51 519.24 1537.43 Z" fill="#000000" fill-rule="nonzero" fill-opacity="1" /><path clip-path="url(#clip870)" d="M545.474 1542.28 L548.064 1539.69 L551.182 1542.81 L548.592 1545.4 L545.474 1542.28 Z" fill="#000000" fill-rule="nonzero" fill-opacity="1" /><path clip-path="url(#clip870)" d="M538.28 1519.06 L548.015 1509.32 L550.102 1511.41 L542.638 1518.87 L547.131 1523.36 Q547.487 1522.64 547.941 1522.01 Q548.383 1521.38 548.923 1520.84 Q551.992 1517.77 555.466 1517.66 Q558.94 1517.55 561.813 1520.42 Q564.772 1523.38 564.575 1526.86 Q564.367 1530.34 561.015 1533.69 Q559.861 1534.84 558.462 1535.85 Q557.075 1536.84 555.405 1537.73 L552.913 1535.24 Q554.619 1534.73 556.092 1533.85 Q557.566 1532.96 558.879 1531.65 Q561.003 1529.53 561.126 1527.17 Q561.248 1524.81 559.333 1522.9 Q557.418 1520.98 555.061 1521.11 Q552.704 1521.23 550.58 1523.35 Q549.586 1524.35 548.813 1525.56 Q548.052 1526.76 547.487 1528.26 L538.28 1519.06 Z" fill="#000000" fill-rule="nonzero" fill-opacity="1" /><path clip-path="url(#clip870)" d="M563.225 1498.43 L566.748 1514.48 L573.009 1508.22 L563.225 1498.43 M560.414 1496.92 L563.532 1493.8 L575.476 1505.75 L578.091 1503.13 L580.154 1505.2 L577.539 1507.81 L581.86 1512.13 L579.392 1514.6 L575.071 1510.28 L566.797 1518.55 L564.403 1516.16 L560.414 1496.92 Z" fill="#000000" fill-rule="nonzero" fill-opacity="1" /><path clip-path="url(#clip870)" d="M782.534 1538.61 Q780.619 1540.53 781.54 1543.39 Q782.46 1546.22 786.242 1550 Q790.01 1553.77 792.858 1554.7 Q795.706 1555.61 797.621 1553.7 Q799.549 1551.77 798.628 1548.94 Q797.707 1546.07 793.939 1542.31 Q790.158 1538.53 787.31 1537.62 Q784.461 1536.68 782.534 1538.61 M780.57 1536.65 Q783.651 1533.57 787.715 1534.39 Q791.778 1535.19 796.418 1539.83 Q801.046 1544.45 801.857 1548.53 Q802.667 1552.58 799.586 1555.66 Q796.504 1558.74 792.441 1557.95 Q788.378 1557.12 783.749 1552.5 Q779.109 1547.85 778.299 1543.8 Q777.489 1539.73 780.57 1536.65 Z" fill="#000000" fill-rule="nonzero" fill-opacity="1" /><path clip-path="url(#clip870)" d="M806.804 1541.5 L809.394 1538.91 L812.512 1542.02 L809.922 1544.61 L806.804 1541.5 Z" fill="#000000" fill-rule="nonzero" fill-opacity="1" /><path clip-path="url(#clip870)" d="M799.61 1518.27 L809.345 1508.53 L811.432 1510.62 L803.968 1518.09 L808.461 1522.58 Q808.817 1521.85 809.271 1521.23 Q809.713 1520.59 810.254 1520.05 Q813.323 1516.98 816.797 1516.87 Q820.271 1516.76 823.143 1519.63 Q826.102 1522.59 825.906 1526.08 Q825.697 1529.55 822.346 1532.9 Q821.192 1534.06 819.792 1535.06 Q818.405 1536.06 816.735 1536.94 L814.243 1534.45 Q815.95 1533.95 817.423 1533.06 Q818.896 1532.18 820.209 1530.86 Q822.333 1528.74 822.456 1526.38 Q822.579 1524.03 820.664 1522.11 Q818.749 1520.2 816.392 1520.32 Q814.035 1520.44 811.911 1522.57 Q810.916 1523.56 810.143 1524.78 Q809.382 1525.98 808.817 1527.48 L799.61 1518.27 Z" fill="#000000" fill-rule="nonzero" fill-opacity="1" /><path clip-path="url(#clip870)" d="M815.606 1502.27 L825.341 1492.54 L827.428 1494.63 L819.964 1502.09 L824.457 1506.58 Q824.813 1505.86 825.267 1505.23 Q825.709 1504.59 826.249 1504.05 Q829.318 1500.98 832.792 1500.87 Q836.267 1500.76 839.139 1503.64 Q842.098 1506.59 841.901 1510.08 Q841.693 1513.56 838.341 1516.91 Q837.187 1518.06 835.788 1519.07 Q834.401 1520.06 832.731 1520.95 L830.239 1518.45 Q831.945 1517.95 833.419 1517.07 Q834.892 1516.18 836.205 1514.87 Q838.329 1512.75 838.452 1510.39 Q838.575 1508.03 836.659 1506.12 Q834.744 1504.2 832.387 1504.32 Q830.03 1504.45 827.907 1506.57 Q826.912 1507.56 826.139 1508.78 Q825.378 1509.98 824.813 1511.48 L815.606 1502.27 Z" fill="#000000" fill-rule="nonzero" fill-opacity="1" /><path clip-path="url(#clip870)" d="M1042.47 1539.22 Q1040.55 1541.14 1041.47 1544 Q1042.39 1546.84 1046.17 1550.62 Q1049.94 1554.39 1052.79 1555.32 Q1055.64 1556.23 1057.55 1554.31 Q1059.48 1552.38 1058.56 1549.55 Q1057.64 1546.69 1053.87 1542.92 Q1050.09 1539.14 1047.24 1538.23 Q1044.39 1537.3 1042.47 1539.22 M1040.5 1537.26 Q1043.58 1534.18 1047.65 1535 Q1051.71 1535.8 1056.35 1540.44 Q1060.98 1545.07 1061.79 1549.14 Q1062.6 1553.19 1059.52 1556.28 Q1056.44 1559.36 1052.37 1558.56 Q1048.31 1557.74 1043.68 1553.11 Q1039.04 1548.47 1038.23 1544.42 Q1037.42 1540.34 1040.5 1537.26 Z" fill="#000000" fill-rule="nonzero" fill-opacity="1" /><path clip-path="url(#clip870)" d="M1066.73 1542.11 L1069.33 1539.52 L1072.44 1542.64 L1069.85 1545.23 L1066.73 1542.11 Z" fill="#000000" fill-rule="nonzero" fill-opacity="1" /><path clip-path="url(#clip870)" d="M1059.54 1518.88 L1069.28 1509.15 L1071.36 1511.24 L1063.9 1518.7 L1068.39 1523.19 Q1068.75 1522.47 1069.2 1521.84 Q1069.64 1521.2 1070.18 1520.66 Q1073.25 1517.59 1076.73 1517.48 Q1080.2 1517.37 1083.07 1520.25 Q1086.03 1523.2 1085.84 1526.69 Q1085.63 1530.17 1082.28 1533.52 Q1081.12 1534.67 1079.72 1535.68 Q1078.34 1536.67 1076.67 1537.56 L1074.17 1535.06 Q1075.88 1534.56 1077.35 1533.68 Q1078.83 1532.79 1080.14 1531.48 Q1082.26 1529.35 1082.39 1527 Q1082.51 1524.64 1080.59 1522.73 Q1078.68 1520.81 1076.32 1520.93 Q1073.97 1521.06 1071.84 1523.18 Q1070.85 1524.17 1070.07 1525.39 Q1069.31 1526.59 1068.75 1528.09 L1059.54 1518.88 Z" fill="#000000" fill-rule="nonzero" fill-opacity="1" /><path clip-path="url(#clip870)" d="M1089.3 1505.48 Q1087.63 1507.15 1087.79 1509.27 Q1087.96 1511.38 1089.95 1513.37 Q1091.93 1515.35 1094.05 1515.53 Q1096.17 1515.69 1097.84 1514.02 Q1099.51 1512.35 1099.34 1510.24 Q1099.17 1508.1 1097.19 1506.13 Q1095.2 1504.14 1093.08 1503.98 Q1090.97 1503.81 1089.3 1505.48 M1086.45 1492.78 L1088.71 1495.04 Q1087.33 1495.53 1086.14 1496.26 Q1084.96 1496.97 1084.03 1497.9 Q1081.58 1500.36 1081.93 1503.32 Q1082.3 1506.26 1085.47 1509.8 Q1085.12 1508.01 1085.65 1506.35 Q1086.17 1504.68 1087.48 1503.37 Q1090.24 1500.6 1093.52 1500.69 Q1096.8 1500.75 1099.68 1503.64 Q1102.51 1506.46 1102.54 1509.84 Q1102.58 1513.21 1099.81 1515.99 Q1096.63 1519.17 1092.51 1518.42 Q1088.39 1517.66 1083.76 1513.03 Q1079.42 1508.68 1078.9 1504.04 Q1078.37 1499.39 1081.85 1495.91 Q1082.78 1494.98 1083.91 1494.22 Q1085.05 1493.45 1086.45 1492.78 Z" fill="#000000" fill-rule="nonzero" fill-opacity="1" /><polyline clip-path="url(#clip870)" style="stroke:#000000; stroke-linecap:round; stroke-linejoin:round; stroke-width:4; stroke-opacity:1; fill:none" points="128.138,1467.41 128.138,897.552 "/>
<polyline clip-path="url(#clip870)" style="stroke:#000000; stroke-linecap:round; stroke-linejoin:round; stroke-width:4; stroke-opacity:1; fill:none" points="128.138,1467.41 147.035,1467.41 "/>
<polyline clip-path="url(#clip870)" style="stroke:#000000; stroke-linecap:round; stroke-linejoin:round; stroke-width:4; stroke-opacity:1; fill:none" points="128.138,1376.95 147.035,1376.95 "/>
<polyline clip-path="url(#clip870)" style="stroke:#000000; stroke-linecap:round; stroke-linejoin:round; stroke-width:4; stroke-opacity:1; fill:none" points="128.138,1286.5 147.035,1286.5 "/>
<polyline clip-path="url(#clip870)" style="stroke:#000000; stroke-linecap:round; stroke-linejoin:round; stroke-width:4; stroke-opacity:1; fill:none" points="128.138,1196.05 147.035,1196.05 "/>
<polyline clip-path="url(#clip870)" style="stroke:#000000; stroke-linecap:round; stroke-linejoin:round; stroke-width:4; stroke-opacity:1; fill:none" points="128.138,1105.59 147.035,1105.59 "/>
<polyline clip-path="url(#clip870)" style="stroke:#000000; stroke-linecap:round; stroke-linejoin:round; stroke-width:4; stroke-opacity:1; fill:none" points="128.138,1015.14 147.035,1015.14 "/>
<polyline clip-path="url(#clip870)" style="stroke:#000000; stroke-linecap:round; stroke-linejoin:round; stroke-width:4; stroke-opacity:1; fill:none" points="128.138,924.688 147.035,924.688 "/>
<path clip-path="url(#clip870)" d="M83.1795 1456.76 Q80.4711 1456.76 79.0996 1459.43 Q77.7455 1462.09 77.7455 1467.43 Q77.7455 1472.76 79.0996 1475.44 Q80.4711 1478.09 83.1795 1478.09 Q85.9051 1478.09 87.2593 1475.44 Q88.6308 1472.76 88.6308 1467.43 Q88.6308 1462.09 87.2593 1459.43 Q85.9051 1456.76 83.1795 1456.76 M83.1795 1453.98 Q87.5371 1453.98 89.8287 1457.43 Q92.1377 1460.87 92.1377 1467.43 Q92.1377 1473.98 89.8287 1477.43 Q87.5371 1480.87 83.1795 1480.87 Q78.8218 1480.87 76.5128 1477.43 Q74.2212 1473.98 74.2212 1467.43 Q74.2212 1460.87 76.5128 1457.43 Q78.8218 1453.98 83.1795 1453.98 Z" fill="#000000" fill-rule="nonzero" fill-opacity="1" /><path clip-path="url(#clip870)" d="M53.6657 1386.96 L59.3949 1386.96 L59.3949 1367.19 L53.1623 1368.44 L53.1623 1365.24 L59.3601 1363.99 L62.8671 1363.99 L62.8671 1386.96 L68.5962 1386.96 L68.5962 1389.91 L53.6657 1389.91 L53.6657 1386.96 Z" fill="#000000" fill-rule="nonzero" fill-opacity="1" /><path clip-path="url(#clip870)" d="M83.1795 1366.3 Q80.4711 1366.3 79.0996 1368.98 Q77.7455 1371.63 77.7455 1376.98 Q77.7455 1382.31 79.0996 1384.98 Q80.4711 1387.64 83.1795 1387.64 Q85.9051 1387.64 87.2593 1384.98 Q88.6308 1382.31 88.6308 1376.98 Q88.6308 1371.63 87.2593 1368.98 Q85.9051 1366.3 83.1795 1366.3 M83.1795 1363.52 Q87.5371 1363.52 89.8287 1366.98 Q92.1377 1370.42 92.1377 1376.98 Q92.1377 1383.52 89.8287 1386.98 Q87.5371 1390.42 83.1795 1390.42 Q78.8218 1390.42 76.5128 1386.98 Q74.2212 1383.52 74.2212 1376.98 Q74.2212 1370.42 76.5128 1366.98 Q78.8218 1363.52 83.1795 1363.52 Z" fill="#000000" fill-rule="nonzero" fill-opacity="1" /><path clip-path="url(#clip870)" d="M56.0789 1296.51 L68.3184 1296.51 L68.3184 1299.46 L51.8602 1299.46 L51.8602 1296.51 Q53.8567 1294.44 57.2942 1290.97 Q60.749 1287.48 61.6344 1286.47 Q63.3184 1284.58 63.9782 1283.28 Q64.6552 1281.96 64.6552 1280.69 Q64.6552 1278.63 63.1969 1277.32 Q61.756 1276.02 59.4296 1276.02 Q57.7803 1276.02 55.94 1276.6 Q54.1171 1277.17 52.0338 1278.33 L52.0338 1274.79 Q54.1518 1273.94 55.9921 1273.51 Q57.8324 1273.07 59.3601 1273.07 Q63.3879 1273.07 65.7837 1275.09 Q68.1795 1277.1 68.1795 1280.47 Q68.1795 1282.06 67.5719 1283.51 Q66.9816 1284.93 65.4018 1286.87 Q64.9677 1287.38 62.6414 1289.79 Q60.315 1292.19 56.0789 1296.51 Z" fill="#000000" fill-rule="nonzero" fill-opacity="1" /><path clip-path="url(#clip870)" d="M83.1795 1275.85 Q80.4711 1275.85 79.0996 1278.52 Q77.7455 1281.18 77.7455 1286.53 Q77.7455 1291.86 79.0996 1294.53 Q80.4711 1297.19 83.1795 1297.19 Q85.9051 1297.19 87.2593 1294.53 Q88.6308 1291.86 88.6308 1286.53 Q88.6308 1281.18 87.2593 1278.52 Q85.9051 1275.85 83.1795 1275.85 M83.1795 1273.07 Q87.5371 1273.07 89.8287 1276.53 Q92.1377 1279.96 92.1377 1286.53 Q92.1377 1293.07 89.8287 1296.53 Q87.5371 1299.96 83.1795 1299.96 Q78.8218 1299.96 76.5128 1296.53 Q74.2212 1293.07 74.2212 1286.53 Q74.2212 1279.96 76.5128 1276.53 Q78.8218 1273.07 83.1795 1273.07 Z" fill="#000000" fill-rule="nonzero" fill-opacity="1" /><path clip-path="url(#clip870)" d="M63.683 1195.03 Q66.2004 1195.57 67.6066 1197.27 Q69.0302 1198.97 69.0302 1201.47 Q69.0302 1205.31 66.3913 1207.41 Q63.7525 1209.51 58.8914 1209.51 Q57.2595 1209.51 55.5234 1209.18 Q53.8046 1208.87 51.9643 1208.23 L51.9643 1204.84 Q53.4227 1205.69 55.1588 1206.13 Q56.8949 1206.56 58.7872 1206.56 Q62.0858 1206.56 63.8046 1205.26 Q65.5407 1203.96 65.5407 1201.47 Q65.5407 1199.18 63.9261 1197.9 Q62.3289 1196.59 59.4643 1196.59 L56.4435 1196.59 L56.4435 1193.71 L59.6032 1193.71 Q62.19 1193.71 63.5615 1192.69 Q64.933 1191.65 64.933 1189.7 Q64.933 1187.71 63.5094 1186.65 Q62.1032 1185.57 59.4643 1185.57 Q58.0233 1185.57 56.374 1185.88 Q54.7247 1186.19 52.7456 1186.85 L52.7456 1183.73 Q54.7421 1183.17 56.4782 1182.9 Q58.2317 1182.62 59.7768 1182.62 Q63.7698 1182.62 66.0962 1184.44 Q68.4226 1186.25 68.4226 1189.34 Q68.4226 1191.49 67.19 1192.98 Q65.9573 1194.46 63.683 1195.03 Z" fill="#000000" fill-rule="nonzero" fill-opacity="1" /><path clip-path="url(#clip870)" d="M83.1795 1185.4 Q80.4711 1185.4 79.0996 1188.07 Q77.7455 1190.73 77.7455 1196.07 Q77.7455 1201.4 79.0996 1204.08 Q80.4711 1206.73 83.1795 1206.73 Q85.9051 1206.73 87.2593 1204.08 Q88.6308 1201.4 88.6308 1196.07 Q88.6308 1190.73 87.2593 1188.07 Q85.9051 1185.4 83.1795 1185.4 M83.1795 1182.62 Q87.5371 1182.62 89.8287 1186.07 Q92.1377 1189.51 92.1377 1196.07 Q92.1377 1202.62 89.8287 1206.07 Q87.5371 1209.51 83.1795 1209.51 Q78.8218 1209.51 76.5128 1206.07 Q74.2212 1202.62 74.2212 1196.07 Q74.2212 1189.51 76.5128 1186.07 Q78.8218 1182.62 83.1795 1182.62 Z" fill="#000000" fill-rule="nonzero" fill-opacity="1" /><path clip-path="url(#clip870)" d="M62.6935 1095.69 L53.8393 1109.53 L62.6935 1109.53 L62.6935 1095.69 M61.7733 1092.63 L66.183 1092.63 L66.183 1109.53 L69.8809 1109.53 L69.8809 1112.44 L66.183 1112.44 L66.183 1118.55 L62.6935 1118.55 L62.6935 1112.44 L50.9921 1112.44 L50.9921 1109.06 L61.7733 1092.63 Z" fill="#000000" fill-rule="nonzero" fill-opacity="1" /><path clip-path="url(#clip870)" d="M83.1795 1094.94 Q80.4711 1094.94 79.0996 1097.62 Q77.7455 1100.27 77.7455 1105.62 Q77.7455 1110.95 79.0996 1113.62 Q80.4711 1116.28 83.1795 1116.28 Q85.9051 1116.28 87.2593 1113.62 Q88.6308 1110.95 88.6308 1105.62 Q88.6308 1100.27 87.2593 1097.62 Q85.9051 1094.94 83.1795 1094.94 M83.1795 1092.17 Q87.5371 1092.17 89.8287 1095.62 Q92.1377 1099.06 92.1377 1105.62 Q92.1377 1112.17 89.8287 1115.62 Q87.5371 1119.06 83.1795 1119.06 Q78.8218 1119.06 76.5128 1115.62 Q74.2212 1112.17 74.2212 1105.62 Q74.2212 1099.06 76.5128 1095.62 Q78.8218 1092.17 83.1795 1092.17 Z" fill="#000000" fill-rule="nonzero" fill-opacity="1" /><path clip-path="url(#clip870)" d="M53.0928 1002.18 L66.8601 1002.18 L66.8601 1005.13 L56.3046 1005.13 L56.3046 1011.49 Q57.0685 1011.23 57.8324 1011.1 Q58.5963 1010.97 59.3601 1010.97 Q63.7004 1010.97 66.2351 1013.34 Q68.7698 1015.72 68.7698 1019.79 Q68.7698 1023.97 66.1657 1026.3 Q63.5615 1028.6 58.8219 1028.6 Q57.19 1028.6 55.4886 1028.33 Q53.8046 1028.05 51.9991 1027.49 L51.9991 1023.97 Q53.5616 1024.82 55.2282 1025.24 Q56.8949 1025.65 58.7525 1025.65 Q61.756 1025.65 63.5094 1024.07 Q65.2629 1022.49 65.2629 1019.79 Q65.2629 1017.08 63.5094 1015.5 Q61.756 1013.92 58.7525 1013.92 Q57.3463 1013.92 55.94 1014.23 Q54.5511 1014.54 53.0928 1015.2 L53.0928 1002.18 Z" fill="#000000" fill-rule="nonzero" fill-opacity="1" /><path clip-path="url(#clip870)" d="M83.1795 1004.49 Q80.4711 1004.49 79.0996 1007.16 Q77.7455 1009.82 77.7455 1015.17 Q77.7455 1020.5 79.0996 1023.17 Q80.4711 1025.83 83.1795 1025.83 Q85.9051 1025.83 87.2593 1023.17 Q88.6308 1020.5 88.6308 1015.17 Q88.6308 1009.82 87.2593 1007.16 Q85.9051 1004.49 83.1795 1004.49 M83.1795 1001.71 Q87.5371 1001.71 89.8287 1005.17 Q92.1377 1008.6 92.1377 1015.17 Q92.1377 1021.71 89.8287 1025.17 Q87.5371 1028.6 83.1795 1028.6 Q78.8218 1028.6 76.5128 1025.17 Q74.2212 1021.71 74.2212 1015.17 Q74.2212 1008.6 76.5128 1005.17 Q78.8218 1001.71 83.1795 1001.71 Z" fill="#000000" fill-rule="nonzero" fill-opacity="1" /><path clip-path="url(#clip870)" d="M60.9921 923.29 Q58.631 923.29 57.2421 924.905 Q55.8706 926.52 55.8706 929.332 Q55.8706 932.127 57.2421 933.759 Q58.631 935.374 60.9921 935.374 Q63.3532 935.374 64.7247 933.759 Q66.1136 932.127 66.1136 929.332 Q66.1136 926.52 64.7247 924.905 Q63.3532 923.29 60.9921 923.29 M67.9538 912.301 L67.9538 915.495 Q66.6344 914.87 65.2802 914.541 Q63.9434 914.211 62.624 914.211 Q59.1518 914.211 57.3115 916.554 Q55.4886 918.898 55.2282 923.638 Q56.2525 922.127 57.7976 921.329 Q59.3428 920.513 61.2004 920.513 Q65.1066 920.513 67.3636 922.891 Q69.6379 925.252 69.6379 929.332 Q69.6379 933.325 67.2768 935.738 Q64.9157 938.152 60.9921 938.152 Q56.4956 938.152 54.1171 934.714 Q51.7386 931.259 51.7386 924.714 Q51.7386 918.568 54.6553 914.922 Q57.572 911.259 62.4851 911.259 Q63.8046 911.259 65.1414 911.52 Q66.4955 911.78 67.9538 912.301 Z" fill="#000000" fill-rule="nonzero" fill-opacity="1" /><path clip-path="url(#clip870)" d="M83.1795 914.037 Q80.4711 914.037 79.0996 916.711 Q77.7455 919.367 77.7455 924.714 Q77.7455 930.044 79.0996 932.718 Q80.4711 935.374 83.1795 935.374 Q85.9051 935.374 87.2593 932.718 Q88.6308 930.044 88.6308 924.714 Q88.6308 919.367 87.2593 916.711 Q85.9051 914.037 83.1795 914.037 M83.1795 911.259 Q87.5371 911.259 89.8287 914.714 Q92.1377 918.152 92.1377 924.714 Q92.1377 931.259 89.8287 934.714 Q87.5371 938.152 83.1795 938.152 Q78.8218 938.152 76.5128 934.714 Q74.2212 931.259 74.2212 924.714 Q74.2212 918.152 76.5128 914.714 Q78.8218 911.259 83.1795 911.259 Z" fill="#000000" fill-rule="nonzero" fill-opacity="1" /><path clip-path="url(#clip870)" d="M140.036 818.926 Q136.517 818.926 134.619 821.472 Q132.628 824.134 132.628 828.532 Q132.628 833.185 134.596 835.87 Q136.587 838.532 140.036 838.532 Q143.439 838.532 145.429 835.847 Q147.42 833.162 147.42 828.532 Q147.42 824.296 145.429 821.472 Q143.601 818.926 140.036 818.926 M140.036 815.546 L154.179 815.546 L154.179 819.805 L149.411 819.805 Q151.934 823.417 151.934 828.532 Q151.934 834.898 148.763 838.509 Q145.591 842.143 140.036 842.143 Q134.457 842.143 131.309 838.509 Q128.138 834.898 128.138 828.532 Q128.138 822.12 131.309 818.532 Q133.925 815.546 140.036 815.546 Z" fill="#000000" fill-rule="nonzero" fill-opacity="1" /><path clip-path="url(#clip870)" d="M165.198 841.472 L157.281 815.546 L161.864 815.546 L168.554 837.305 Q171.332 834.435 173.647 830.454 Q175.406 827.467 175.499 824.875 Q175.545 823.648 174.989 821.333 Q174.341 818.579 171.888 815.546 L176.193 815.546 L176.193 815.546 Q177.79 817.606 178.855 820.477 Q179.827 823.116 179.827 824.921 Q179.827 829.458 176.679 833.509 Q172.582 838.787 169.735 841.472 L165.198 841.472 Z" fill="#000000" fill-rule="nonzero" fill-opacity="1" /><path clip-path="url(#clip874)" d="M184.494 1413.13 L184.494 1467.41 L314.766 1467.41 L314.766 1413.13 L184.494 1413.13 L184.494 1413.13  Z" fill="#009af9" fill-rule="evenodd" fill-opacity="1"/>
<polyline clip-path="url(#clip874)" style="stroke:#000000; stroke-linecap:round; stroke-linejoin:round; stroke-width:4; stroke-opacity:1; fill:none" points="184.494,1413.13 184.494,1467.41 314.766,1467.41 314.766,1413.13 184.494,1413.13 "/>
<path clip-path="url(#clip874)" d="M314.766 1313.64 L314.766 1467.41 L445.038 1467.41 L445.038 1313.64 L314.766 1313.64 L314.766 1313.64  Z" fill="#009af9" fill-rule="evenodd" fill-opacity="1"/>
<polyline clip-path="url(#clip874)" style="stroke:#000000; stroke-linecap:round; stroke-linejoin:round; stroke-width:4; stroke-opacity:1; fill:none" points="314.766,1313.64 314.766,1467.41 445.038,1467.41 445.038,1313.64 314.766,1313.64 "/>
<path clip-path="url(#clip874)" d="M445.038 1006.1 L445.038 1467.41 L575.311 1467.41 L575.311 1006.1 L445.038 1006.1 L445.038 1006.1  Z" fill="#009af9" fill-rule="evenodd" fill-opacity="1"/>
<polyline clip-path="url(#clip874)" style="stroke:#000000; stroke-linecap:round; stroke-linejoin:round; stroke-width:4; stroke-opacity:1; fill:none" points="445.038,1006.1 445.038,1467.41 575.311,1467.41 575.311,1006.1 445.038,1006.1 "/>
<path clip-path="url(#clip874)" d="M575.311 897.552 L575.311 1467.41 L705.583 1467.41 L705.583 897.552 L575.311 897.552 L575.311 897.552  Z" fill="#009af9" fill-rule="evenodd" fill-opacity="1"/>
<polyline clip-path="url(#clip874)" style="stroke:#000000; stroke-linecap:round; stroke-linejoin:round; stroke-width:4; stroke-opacity:1; fill:none" points="575.311,897.552 575.311,1467.41 705.583,1467.41 705.583,897.552 575.311,897.552 "/>
<path clip-path="url(#clip874)" d="M705.583 1105.59 L705.583 1467.41 L835.855 1467.41 L835.855 1105.59 L705.583 1105.59 L705.583 1105.59  Z" fill="#009af9" fill-rule="evenodd" fill-opacity="1"/>
<polyline clip-path="url(#clip874)" style="stroke:#000000; stroke-linecap:round; stroke-linejoin:round; stroke-width:4; stroke-opacity:1; fill:none" points="705.583,1105.59 705.583,1467.41 835.855,1467.41 835.855,1105.59 705.583,1105.59 "/>
<path clip-path="url(#clip874)" d="M835.855 1331.73 L835.855 1467.41 L966.128 1467.41 L966.128 1331.73 L835.855 1331.73 L835.855 1331.73  Z" fill="#009af9" fill-rule="evenodd" fill-opacity="1"/>
<polyline clip-path="url(#clip874)" style="stroke:#000000; stroke-linecap:round; stroke-linejoin:round; stroke-width:4; stroke-opacity:1; fill:none" points="835.855,1331.73 835.855,1467.41 966.128,1467.41 966.128,1331.73 835.855,1331.73 "/>
<path clip-path="url(#clip874)" d="M966.128 1431.23 L966.128 1467.41 L1096.4 1467.41 L1096.4 1431.23 L966.128 1431.23 L966.128 1431.23  Z" fill="#009af9" fill-rule="evenodd" fill-opacity="1"/>
<polyline clip-path="url(#clip874)" style="stroke:#000000; stroke-linecap:round; stroke-linejoin:round; stroke-width:4; stroke-opacity:1; fill:none" points="966.128,1431.23 966.128,1467.41 1096.4,1467.41 1096.4,1431.23 966.128,1431.23 "/>
<circle clip-path="url(#clip874)" style="fill:#009af9; stroke:none; fill-opacity:0" cx="249.63" cy="1413.13" r="2"/>
<circle clip-path="url(#clip874)" style="fill:#009af9; stroke:none; fill-opacity:0" cx="379.902" cy="1313.64" r="2"/>
<circle clip-path="url(#clip874)" style="fill:#009af9; stroke:none; fill-opacity:0" cx="510.174" cy="1006.1" r="2"/>
<circle clip-path="url(#clip874)" style="fill:#009af9; stroke:none; fill-opacity:0" cx="640.447" cy="897.552" r="2"/>
<circle clip-path="url(#clip874)" style="fill:#009af9; stroke:none; fill-opacity:0" cx="770.719" cy="1105.59" r="2"/>
<circle clip-path="url(#clip874)" style="fill:#009af9; stroke:none; fill-opacity:0" cx="900.992" cy="1331.73" r="2"/>
<circle clip-path="url(#clip874)" style="fill:#009af9; stroke:none; fill-opacity:0" cx="1031.26" cy="1431.23" r="2"/>
<polyline clip-path="url(#clip874)" style="stroke:#ff0000; stroke-linecap:round; stroke-linejoin:round; stroke-width:8; stroke-opacity:1; fill:none" stroke-dasharray="32, 20" points="634.008,2037.26 634.008,327.698 "/>
<polyline clip-path="url(#clip874)" style="stroke:#ff0000; stroke-linecap:round; stroke-linejoin:round; stroke-width:6; stroke-opacity:1; fill:none" stroke-dasharray="24, 12, 3, 12" points="307.075,2037.26 307.075,327.698 "/>
<polyline clip-path="url(#clip874)" style="stroke:#ff0000; stroke-linecap:round; stroke-linejoin:round; stroke-width:6; stroke-opacity:1; fill:none" stroke-dasharray="24, 12, 3, 12" points="997.637,2037.26 997.637,327.698 "/>
</svg>
