<?xml version="1.0" encoding="utf-8"?>
<svg xmlns="http://www.w3.org/2000/svg" xmlns:xlink="http://www.w3.org/1999/xlink" width="600" height="400" viewBox="0 0 2400 1600">
<defs>
  <clipPath id="clip780">
    <rect x="0" y="0" width="2400" height="1600"/>
  </clipPath>
</defs>
<path clip-path="url(#clip780)" d="M0 1600 L2400 1600 L2400 0 L0 0  Z" fill="#ffffff" fill-rule="evenodd" fill-opacity="1"/>
<defs>
  <clipPath id="clip781">
    <rect x="162" y="0" width="2195" height="1600"/>
  </clipPath>
</defs>
<path clip-path="url(#clip780)" d="M161.818 667.406 L1152.94 667.406 L1152.94 97.5521 L161.818 97.5521  Z" fill="#ffffff" fill-rule="evenodd" fill-opacity="1"/>
<defs>
  <clipPath id="clip782">
    <rect x="161" y="97" width="992" height="571"/>
  </clipPath>
</defs>
<polyline clip-path="url(#clip782)" style="stroke:#000000; stroke-linecap:round; stroke-linejoin:round; stroke-width:2; stroke-opacity:0.1; fill:none" points="186.285,667.406 186.285,97.5521 "/>
<polyline clip-path="url(#clip782)" style="stroke:#000000; stroke-linecap:round; stroke-linejoin:round; stroke-width:2; stroke-opacity:0.1; fill:none" points="449.035,667.406 449.035,97.5521 "/>
<polyline clip-path="url(#clip782)" style="stroke:#000000; stroke-linecap:round; stroke-linejoin:round; stroke-width:2; stroke-opacity:0.1; fill:none" points="711.785,667.406 711.785,97.5521 "/>
<polyline clip-path="url(#clip782)" style="stroke:#000000; stroke-linecap:round; stroke-linejoin:round; stroke-width:2; stroke-opacity:0.1; fill:none" points="974.535,667.406 974.535,97.5521 "/>
<polyline clip-path="url(#clip782)" style="stroke:#000000; stroke-linecap:round; stroke-linejoin:round; stroke-width:2; stroke-opacity:0.1; fill:none" points="161.818,651.278 1152.94,651.278 "/>
<polyline clip-path="url(#clip782)" style="stroke:#000000; stroke-linecap:round; stroke-linejoin:round; stroke-width:2; stroke-opacity:0.1; fill:none" points="161.818,519.527 1152.94,519.527 "/>
<polyline clip-path="url(#clip782)" style="stroke:#000000; stroke-linecap:round; stroke-linejoin:round; stroke-width:2; stroke-opacity:0.1; fill:none" points="161.818,387.775 1152.94,387.775 "/>
<polyline clip-path="url(#clip782)" style="stroke:#000000; stroke-linecap:round; stroke-linejoin:round; stroke-width:2; stroke-opacity:0.1; fill:none" points="161.818,256.023 1152.94,256.023 "/>
<polyline clip-path="url(#clip782)" style="stroke:#000000; stroke-linecap:round; stroke-linejoin:round; stroke-width:2; stroke-opacity:0.1; fill:none" points="161.818,124.271 1152.94,124.271 "/>
<polyline clip-path="url(#clip780)" style="stroke:#000000; stroke-linecap:round; stroke-linejoin:round; stroke-width:4; stroke-opacity:1; fill:none" points="161.818,667.406 1152.94,667.406 "/>
<polyline clip-path="url(#clip780)" style="stroke:#000000; stroke-linecap:round; stroke-linejoin:round; stroke-width:4; stroke-opacity:1; fill:none" points="186.285,667.406 186.285,648.509 "/>
<polyline clip-path="url(#clip780)" style="stroke:#000000; stroke-linecap:round; stroke-linejoin:round; stroke-width:4; stroke-opacity:1; fill:none" points="449.035,667.406 449.035,648.509 "/>
<polyline clip-path="url(#clip780)" style="stroke:#000000; stroke-linecap:round; stroke-linejoin:round; stroke-width:4; stroke-opacity:1; fill:none" points="711.785,667.406 711.785,648.509 "/>
<polyline clip-path="url(#clip780)" style="stroke:#000000; stroke-linecap:round; stroke-linejoin:round; stroke-width:4; stroke-opacity:1; fill:none" points="974.535,667.406 974.535,648.509 "/>
<path clip-path="url(#clip780)" d="M132.435 739.139 Q130.52 741.054 131.441 743.914 Q132.362 746.75 136.143 750.531 Q139.912 754.3 142.76 755.233 Q145.608 756.141 147.523 754.226 Q149.45 752.299 148.529 749.463 Q147.609 746.603 143.84 742.834 Q140.059 739.053 137.211 738.144 Q134.363 737.211 132.435 739.139 M130.471 737.175 Q133.553 734.093 137.616 734.916 Q141.679 735.714 146.32 740.354 Q150.948 744.982 151.758 749.058 Q152.568 753.109 149.487 756.19 Q146.406 759.272 142.342 758.474 Q138.279 757.651 133.651 753.023 Q129.01 748.383 128.2 744.332 Q127.39 740.256 130.471 737.175 Z" fill="#000000" fill-rule="nonzero" fill-opacity="1" /><path clip-path="url(#clip780)" d="M156.705 742.024 L159.296 739.433 L162.414 742.552 L159.823 745.142 L156.705 742.024 Z" fill="#000000" fill-rule="nonzero" fill-opacity="1" /><path clip-path="url(#clip780)" d="M164.415 723.143 Q162.647 724.911 162.573 726.875 Q162.512 728.827 164.169 730.484 Q165.826 732.141 167.778 732.08 Q169.743 732.006 171.51 730.239 Q173.278 728.471 173.352 726.507 Q173.413 724.53 171.768 722.885 Q170.111 721.228 168.147 721.302 Q166.195 721.363 164.415 723.143 M160.879 724.567 Q158.89 725.77 156.902 725.574 Q154.925 725.365 153.354 723.794 Q151.157 721.596 151.439 718.761 Q151.733 715.912 154.459 713.187 Q157.196 710.45 160.032 710.167 Q162.868 709.885 165.065 712.082 Q166.637 713.654 166.833 715.642 Q167.042 717.619 165.851 719.595 Q168.061 718.22 170.27 718.441 Q172.492 718.65 174.248 720.406 Q176.912 723.069 176.703 726.126 Q176.507 729.171 173.474 732.203 Q170.442 735.235 167.386 735.444 Q164.341 735.64 161.677 732.976 Q159.922 731.221 159.713 728.999 Q159.504 726.777 160.879 724.567 M156.055 721.559 Q157.479 722.983 159.161 722.898 Q160.855 722.799 162.463 721.191 Q164.059 719.595 164.157 717.901 Q164.267 716.195 162.843 714.771 Q161.419 713.347 159.713 713.457 Q158.019 713.555 156.423 715.151 Q154.815 716.76 154.717 718.454 Q154.631 720.135 156.055 721.559 Z" fill="#000000" fill-rule="nonzero" fill-opacity="1" /><path clip-path="url(#clip780)" d="M172.419 699.156 Q170.504 701.071 171.424 703.931 Q172.345 706.767 176.126 710.548 Q179.895 714.317 182.743 715.25 Q185.591 716.158 187.506 714.243 Q189.433 712.316 188.513 709.48 Q187.592 706.619 183.823 702.851 Q180.042 699.07 177.194 698.161 Q174.346 697.228 172.419 699.156 M170.455 697.191 Q173.536 694.11 177.599 694.933 Q181.663 695.731 186.303 700.371 Q190.931 704.999 191.741 709.075 Q192.551 713.126 189.47 716.207 Q186.389 719.288 182.326 718.49 Q178.262 717.668 173.634 713.04 Q168.994 708.399 168.183 704.348 Q167.373 700.273 170.455 697.191 Z" fill="#000000" fill-rule="nonzero" fill-opacity="1" /><path clip-path="url(#clip780)" d="M395.713 738.611 Q393.798 740.526 394.719 743.386 Q395.64 746.222 399.421 750.003 Q403.19 753.772 406.038 754.705 Q408.886 755.613 410.801 753.698 Q412.728 751.771 411.807 748.935 Q410.887 746.075 407.118 742.306 Q403.337 738.525 400.489 737.617 Q397.641 736.684 395.713 738.611 M393.749 736.647 Q396.831 733.565 400.894 734.388 Q404.957 735.186 409.598 739.826 Q414.226 744.454 415.036 748.53 Q415.846 752.581 412.765 755.662 Q409.684 758.744 405.62 757.946 Q401.557 757.123 396.929 752.495 Q392.288 747.855 391.478 743.804 Q390.668 739.728 393.749 736.647 Z" fill="#000000" fill-rule="nonzero" fill-opacity="1" /><path clip-path="url(#clip780)" d="M419.983 741.496 L422.574 738.906 L425.692 742.024 L423.101 744.614 L419.983 741.496 Z" fill="#000000" fill-rule="nonzero" fill-opacity="1" /><path clip-path="url(#clip780)" d="M427.693 722.615 Q425.925 724.383 425.851 726.347 Q425.79 728.299 427.447 729.956 Q429.104 731.614 431.056 731.552 Q433.02 731.479 434.788 729.711 Q436.556 727.943 436.63 725.979 Q436.691 724.002 435.046 722.357 Q433.389 720.7 431.425 720.774 Q429.473 720.835 427.693 722.615 M424.157 724.039 Q422.168 725.242 420.18 725.046 Q418.203 724.837 416.632 723.266 Q414.434 721.068 414.717 718.233 Q415.011 715.385 417.737 712.659 Q420.474 709.922 423.31 709.639 Q426.146 709.357 428.343 711.554 Q429.915 713.126 430.111 715.115 Q430.32 717.091 429.129 719.067 Q431.339 717.692 433.548 717.913 Q435.77 718.122 437.526 719.878 Q440.19 722.542 439.981 725.598 Q439.785 728.643 436.752 731.675 Q433.72 734.707 430.663 734.916 Q427.619 735.112 424.955 732.448 Q423.2 730.693 422.991 728.471 Q422.782 726.249 424.157 724.039 M419.333 721.032 Q420.757 722.456 422.438 722.37 Q424.133 722.271 425.741 720.663 Q427.337 719.067 427.435 717.373 Q427.545 715.667 426.121 714.243 Q424.697 712.819 422.991 712.929 Q421.297 713.028 419.701 714.623 Q418.093 716.232 417.995 717.926 Q417.909 719.608 419.333 721.032 Z" fill="#000000" fill-rule="nonzero" fill-opacity="1" /><path clip-path="url(#clip780)" d="M428.785 702.274 L438.52 692.539 L440.607 694.626 L433.143 702.09 L437.636 706.583 Q437.992 705.858 438.446 705.232 Q438.888 704.594 439.429 704.054 Q442.498 700.985 445.972 700.874 Q449.446 700.764 452.318 703.636 Q455.277 706.595 455.081 710.081 Q454.872 713.555 451.521 716.907 Q450.367 718.061 448.967 719.067 Q447.58 720.062 445.91 720.946 L443.418 718.454 Q445.125 717.95 446.598 717.066 Q448.071 716.183 449.384 714.869 Q451.508 712.745 451.631 710.388 Q451.754 708.031 449.839 706.116 Q447.924 704.201 445.567 704.324 Q443.21 704.447 441.086 706.57 Q440.091 707.565 439.318 708.78 Q438.557 709.983 437.992 711.481 L428.785 702.274 Z" fill="#000000" fill-rule="nonzero" fill-opacity="1" /><path clip-path="url(#clip780)" d="M657.936 739.139 Q656.021 741.054 656.941 743.914 Q657.862 746.75 661.643 750.531 Q665.412 754.3 668.26 755.233 Q671.108 756.141 673.023 754.226 Q674.95 752.299 674.03 749.463 Q673.109 746.603 669.34 742.834 Q665.559 739.053 662.711 738.144 Q659.863 737.211 657.936 739.139 M655.971 737.175 Q659.053 734.093 663.116 734.916 Q667.18 735.714 671.82 740.354 Q676.448 744.982 677.258 749.058 Q678.068 753.109 674.987 756.19 Q671.906 759.272 667.842 758.474 Q663.779 757.651 659.151 753.023 Q654.511 748.383 653.7 744.332 Q652.89 740.256 655.971 737.175 Z" fill="#000000" fill-rule="nonzero" fill-opacity="1" /><path clip-path="url(#clip780)" d="M682.205 742.024 L684.796 739.433 L687.914 742.552 L685.324 745.142 L682.205 742.024 Z" fill="#000000" fill-rule="nonzero" fill-opacity="1" /><path clip-path="url(#clip780)" d="M693.008 736.696 L690.75 734.437 Q692.125 733.946 693.315 733.222 Q694.506 732.497 695.427 731.577 Q697.882 729.122 697.526 726.188 Q697.17 723.229 693.99 719.681 Q694.334 721.449 693.806 723.106 Q693.278 724.764 691.953 726.089 Q689.203 728.839 685.937 728.79 Q682.672 728.716 679.787 725.832 Q676.964 723.008 676.927 719.632 Q676.89 716.256 679.664 713.482 Q682.844 710.302 686.956 711.076 Q691.069 711.825 695.709 716.465 Q700.043 720.798 700.57 725.451 Q701.098 730.079 697.624 733.553 Q696.691 734.486 695.55 735.26 Q694.408 736.033 693.008 736.696 M690.173 723.99 Q691.842 722.321 691.67 720.209 Q691.511 718.085 689.522 716.097 Q687.546 714.12 685.422 713.961 Q683.298 713.776 681.628 715.446 Q679.959 717.116 680.131 719.252 Q680.303 721.363 682.279 723.339 Q684.268 725.328 686.379 725.5 Q688.503 725.66 690.173 723.99 Z" fill="#000000" fill-rule="nonzero" fill-opacity="1" /><path clip-path="url(#clip780)" d="M697.919 699.156 Q696.004 701.071 696.924 703.931 Q697.845 706.767 701.626 710.548 Q705.395 714.317 708.243 715.25 Q711.091 716.158 713.006 714.243 Q714.934 712.316 714.013 709.48 Q713.092 706.619 709.323 702.851 Q705.542 699.07 702.694 698.161 Q699.846 697.228 697.919 699.156 M695.955 697.191 Q699.036 694.11 703.099 694.933 Q707.163 695.731 711.803 700.371 Q716.431 704.999 717.241 709.075 Q718.052 713.126 714.97 716.207 Q711.889 719.288 707.826 718.49 Q703.762 717.668 699.134 713.04 Q694.494 708.399 693.684 704.348 Q692.873 700.273 695.955 697.191 Z" fill="#000000" fill-rule="nonzero" fill-opacity="1" /><path clip-path="url(#clip780)" d="M921.214 738.611 Q919.298 740.526 920.219 743.386 Q921.14 746.222 924.921 750.003 Q928.69 753.772 931.538 754.705 Q934.386 755.613 936.301 753.698 Q938.228 751.771 937.308 748.935 Q936.387 746.075 932.618 742.306 Q928.837 738.525 925.989 737.617 Q923.141 736.684 921.214 738.611 M919.249 736.647 Q922.331 733.565 926.394 734.388 Q930.457 735.186 935.098 739.826 Q939.726 744.454 940.536 748.53 Q941.346 752.581 938.265 755.662 Q935.184 758.744 931.12 757.946 Q927.057 757.123 922.429 752.495 Q917.789 747.855 916.978 743.804 Q916.168 739.728 919.249 736.647 Z" fill="#000000" fill-rule="nonzero" fill-opacity="1" /><path clip-path="url(#clip780)" d="M945.483 741.496 L948.074 738.906 L951.192 742.024 L948.602 744.614 L945.483 741.496 Z" fill="#000000" fill-rule="nonzero" fill-opacity="1" /><path clip-path="url(#clip780)" d="M956.286 736.168 L954.028 733.909 Q955.402 733.418 956.593 732.694 Q957.784 731.97 958.705 731.049 Q961.16 728.594 960.804 725.66 Q960.448 722.701 957.268 719.153 Q957.612 720.921 957.084 722.578 Q956.556 724.236 955.231 725.561 Q952.481 728.311 949.215 728.262 Q945.95 728.189 943.065 725.304 Q940.241 722.48 940.205 719.104 Q940.168 715.728 942.942 712.954 Q946.122 709.774 950.234 710.548 Q954.347 711.297 958.987 715.937 Q963.321 720.27 963.848 724.923 Q964.376 729.551 960.902 733.025 Q959.969 733.958 958.828 734.732 Q957.686 735.505 956.286 736.168 M953.451 723.462 Q955.12 721.793 954.948 719.681 Q954.789 717.557 952.8 715.569 Q950.823 713.592 948.7 713.433 Q946.576 713.249 944.906 714.918 Q943.237 716.588 943.409 718.724 Q943.581 720.835 945.557 722.812 Q947.546 724.8 949.657 724.972 Q951.781 725.132 953.451 723.462 Z" fill="#000000" fill-rule="nonzero" fill-opacity="1" /><path clip-path="url(#clip780)" d="M954.285 702.274 L964.02 692.539 L966.107 694.626 L958.643 702.09 L963.136 706.583 Q963.492 705.858 963.947 705.232 Q964.389 704.594 964.929 704.054 Q967.998 700.985 971.472 700.874 Q974.946 700.764 977.819 703.636 Q980.777 706.595 980.581 710.081 Q980.372 713.555 977.021 716.907 Q975.867 718.061 974.467 719.067 Q973.08 720.062 971.41 720.946 L968.918 718.454 Q970.625 717.95 972.098 717.066 Q973.571 716.183 974.885 714.869 Q977.008 712.745 977.131 710.388 Q977.254 708.031 975.339 706.116 Q973.424 704.201 971.067 704.324 Q968.71 704.447 966.586 706.57 Q965.592 707.565 964.818 708.78 Q964.057 709.983 963.492 711.481 L954.285 702.274 Z" fill="#000000" fill-rule="nonzero" fill-opacity="1" /><polyline clip-path="url(#clip780)" style="stroke:#000000; stroke-linecap:round; stroke-linejoin:round; stroke-width:4; stroke-opacity:1; fill:none" points="161.818,667.406 161.818,97.5521 "/>
<polyline clip-path="url(#clip780)" style="stroke:#000000; stroke-linecap:round; stroke-linejoin:round; stroke-width:4; stroke-opacity:1; fill:none" points="161.818,651.278 180.716,651.278 "/>
<polyline clip-path="url(#clip780)" style="stroke:#000000; stroke-linecap:round; stroke-linejoin:round; stroke-width:4; stroke-opacity:1; fill:none" points="161.818,519.527 180.716,519.527 "/>
<polyline clip-path="url(#clip780)" style="stroke:#000000; stroke-linecap:round; stroke-linejoin:round; stroke-width:4; stroke-opacity:1; fill:none" points="161.818,387.775 180.716,387.775 "/>
<polyline clip-path="url(#clip780)" style="stroke:#000000; stroke-linecap:round; stroke-linejoin:round; stroke-width:4; stroke-opacity:1; fill:none" points="161.818,256.023 180.716,256.023 "/>
<polyline clip-path="url(#clip780)" style="stroke:#000000; stroke-linecap:round; stroke-linejoin:round; stroke-width:4; stroke-opacity:1; fill:none" points="161.818,124.271 180.716,124.271 "/>
<path clip-path="url(#clip780)" d="M116.86 640.627 Q114.152 640.627 112.78 643.301 Q111.426 645.957 111.426 651.304 Q111.426 656.634 112.78 659.308 Q114.152 661.964 116.86 661.964 Q119.586 661.964 120.94 659.308 Q122.311 656.634 122.311 651.304 Q122.311 645.957 120.94 643.301 Q119.586 640.627 116.86 640.627 M116.86 637.85 Q121.217 637.85 123.509 641.305 Q125.818 644.742 125.818 651.304 Q125.818 657.85 123.509 661.304 Q121.217 664.742 116.86 664.742 Q112.502 664.742 110.193 661.304 Q107.902 657.85 107.902 651.304 Q107.902 644.742 110.193 641.305 Q112.502 637.85 116.86 637.85 Z" fill="#000000" fill-rule="nonzero" fill-opacity="1" /><path clip-path="url(#clip780)" d="M110.888 529.535 L116.617 529.535 L116.617 509.761 L110.384 511.011 L110.384 507.817 L116.582 506.567 L120.089 506.567 L120.089 529.535 L125.818 529.535 L125.818 532.487 L110.888 532.487 L110.888 529.535 Z" fill="#000000" fill-rule="nonzero" fill-opacity="1" /><path clip-path="url(#clip780)" d="M113.579 397.783 L125.818 397.783 L125.818 400.735 L109.36 400.735 L109.36 397.783 Q111.356 395.718 114.794 392.245 Q118.249 388.756 119.134 387.749 Q120.818 385.856 121.478 384.554 Q122.155 383.235 122.155 381.968 Q122.155 379.902 120.697 378.6 Q119.256 377.297 116.929 377.297 Q115.28 377.297 113.44 377.87 Q111.617 378.443 109.533 379.606 L109.533 376.065 Q111.652 375.214 113.492 374.78 Q115.332 374.346 116.86 374.346 Q120.888 374.346 123.283 376.36 Q125.679 378.374 125.679 381.742 Q125.679 383.339 125.072 384.78 Q124.481 386.204 122.901 388.148 Q122.467 388.652 120.141 391.065 Q117.815 393.461 113.579 397.783 Z" fill="#000000" fill-rule="nonzero" fill-opacity="1" /><path clip-path="url(#clip780)" d="M120.471 255.007 Q122.988 255.546 124.395 257.247 Q125.818 258.948 125.818 261.448 Q125.818 265.285 123.179 267.386 Q120.54 269.487 115.679 269.487 Q114.047 269.487 112.311 269.157 Q110.593 268.844 108.752 268.202 L108.752 264.816 Q110.211 265.667 111.947 266.101 Q113.683 266.535 115.575 266.535 Q118.874 266.535 120.592 265.233 Q122.329 263.931 122.329 261.448 Q122.329 259.157 120.714 257.872 Q119.117 256.57 116.252 256.57 L113.231 256.57 L113.231 253.688 L116.391 253.688 Q118.978 253.688 120.349 252.664 Q121.721 251.622 121.721 249.678 Q121.721 247.681 120.297 246.622 Q118.891 245.546 116.252 245.546 Q114.811 245.546 113.162 245.858 Q111.513 246.171 109.533 246.83 L109.533 243.705 Q111.53 243.15 113.266 242.872 Q115.02 242.594 116.565 242.594 Q120.558 242.594 122.884 244.417 Q125.21 246.223 125.21 249.313 Q125.21 251.466 123.978 252.959 Q122.745 254.435 120.471 255.007 Z" fill="#000000" fill-rule="nonzero" fill-opacity="1" /><path clip-path="url(#clip780)" d="M118.631 114.367 L109.777 128.204 L118.631 128.204 L118.631 114.367 M117.711 111.311 L122.12 111.311 L122.12 128.204 L125.818 128.204 L125.818 131.12 L122.12 131.12 L122.12 137.231 L118.631 137.231 L118.631 131.12 L106.929 131.12 L106.929 127.735 L117.711 111.311 Z" fill="#000000" fill-rule="nonzero" fill-opacity="1" /><path clip-path="url(#clip780)" d="M163.901 20.1758 Q165.313 17.8147 168.809 15.7314 Q170.175 14.9212 174.387 14.9212 Q179.11 14.9212 182.049 18.6712 Q185.012 22.4212 185.012 28.5323 Q185.012 34.6433 182.049 38.3933 Q179.11 42.1433 174.387 42.1433 Q171.54 42.1433 169.48 41.0322 Q167.443 39.8979 166.1 37.5831 L166.1 51.3331 L161.818 51.3331 L161.818 28.7637 Q161.818 23.4165 163.901 20.1758 M180.591 28.5323 Q180.591 23.8332 178.647 21.1712 Q176.725 18.486 173.346 18.486 Q169.966 18.486 168.022 21.1712 Q166.1 23.8332 166.1 28.5323 Q166.1 33.2313 168.022 35.9165 Q169.966 38.5785 173.346 38.5785 Q176.725 38.5785 178.647 35.9165 Q180.591 33.2313 180.591 28.5323 Z" fill="#000000" fill-rule="nonzero" fill-opacity="1" /><polyline clip-path="url(#clip782)" style="stroke:#009af9; stroke-linecap:round; stroke-linejoin:round; stroke-width:4; stroke-opacity:1; fill:none" points="189.869,593.505 248.307,597.738 306.746,602.504 365.185,607.908 423.623,614.089 482.062,621.227 540.501,629.562 598.939,639.425 657.378,651.278 715.817,636.765 774.256,618.581 832.694,595.132 891.133,563.743 949.572,519.571 1008.01,452.844 1066.45,340.552 1124.89,113.68 "/>
<circle clip-path="url(#clip782)" cx="657.378" cy="651.278" r="10.8" fill="#ff0000" fill-rule="evenodd" fill-opacity="1" stroke="#000000" stroke-opacity="1" stroke-width="3.2"/>
<path clip-path="url(#clip780)" d="M1361.64 667.406 L2352.76 667.406 L2352.76 97.5521 L1361.64 97.5521  Z" fill="#ffffff" fill-rule="evenodd" fill-opacity="1"/>
<defs>
  <clipPath id="clip783">
    <rect x="1361" y="97" width="992" height="571"/>
  </clipPath>
</defs>
<polyline clip-path="url(#clip783)" style="stroke:#000000; stroke-linecap:round; stroke-linejoin:round; stroke-width:2; stroke-opacity:0.1; fill:none" points="1478.05,667.406 1478.05,97.5521 "/>
<polyline clip-path="url(#clip783)" style="stroke:#000000; stroke-linecap:round; stroke-linejoin:round; stroke-width:2; stroke-opacity:0.1; fill:none" points="1621.25,667.406 1621.25,97.5521 "/>
<polyline clip-path="url(#clip783)" style="stroke:#000000; stroke-linecap:round; stroke-linejoin:round; stroke-width:2; stroke-opacity:0.1; fill:none" points="1764.45,667.406 1764.45,97.5521 "/>
<polyline clip-path="url(#clip783)" style="stroke:#000000; stroke-linecap:round; stroke-linejoin:round; stroke-width:2; stroke-opacity:0.1; fill:none" points="1907.65,667.406 1907.65,97.5521 "/>
<polyline clip-path="url(#clip783)" style="stroke:#000000; stroke-linecap:round; stroke-linejoin:round; stroke-width:2; stroke-opacity:0.1; fill:none" points="2050.84,667.406 2050.84,97.5521 "/>
<polyline clip-path="url(#clip783)" style="stroke:#000000; stroke-linecap:round; stroke-linejoin:round; stroke-width:2; stroke-opacity:0.1; fill:none" points="2194.04,667.406 2194.04,97.5521 "/>
<polyline clip-path="url(#clip783)" style="stroke:#000000; stroke-linecap:round; stroke-linejoin:round; stroke-width:2; stroke-opacity:0.1; fill:none" points="2337.24,667.406 2337.24,97.5521 "/>
<polyline clip-path="url(#clip783)" style="stroke:#000000; stroke-linecap:round; stroke-linejoin:round; stroke-width:2; stroke-opacity:0.1; fill:none" points="1361.64,651.278 2352.76,651.278 "/>
<polyline clip-path="url(#clip783)" style="stroke:#000000; stroke-linecap:round; stroke-linejoin:round; stroke-width:2; stroke-opacity:0.1; fill:none" points="1361.64,508.291 2352.76,508.291 "/>
<polyline clip-path="url(#clip783)" style="stroke:#000000; stroke-linecap:round; stroke-linejoin:round; stroke-width:2; stroke-opacity:0.1; fill:none" points="1361.64,365.303 2352.76,365.303 "/>
<polyline clip-path="url(#clip783)" style="stroke:#000000; stroke-linecap:round; stroke-linejoin:round; stroke-width:2; stroke-opacity:0.1; fill:none" points="1361.64,222.315 2352.76,222.315 "/>
<polyline clip-path="url(#clip780)" style="stroke:#000000; stroke-linecap:round; stroke-linejoin:round; stroke-width:4; stroke-opacity:1; fill:none" points="1361.64,667.406 2352.76,667.406 "/>
<polyline clip-path="url(#clip780)" style="stroke:#000000; stroke-linecap:round; stroke-linejoin:round; stroke-width:4; stroke-opacity:1; fill:none" points="1478.05,667.406 1478.05,648.509 "/>
<polyline clip-path="url(#clip780)" style="stroke:#000000; stroke-linecap:round; stroke-linejoin:round; stroke-width:4; stroke-opacity:1; fill:none" points="1621.25,667.406 1621.25,648.509 "/>
<polyline clip-path="url(#clip780)" style="stroke:#000000; stroke-linecap:round; stroke-linejoin:round; stroke-width:4; stroke-opacity:1; fill:none" points="1764.45,667.406 1764.45,648.509 "/>
<polyline clip-path="url(#clip780)" style="stroke:#000000; stroke-linecap:round; stroke-linejoin:round; stroke-width:4; stroke-opacity:1; fill:none" points="1907.65,667.406 1907.65,648.509 "/>
<polyline clip-path="url(#clip780)" style="stroke:#000000; stroke-linecap:round; stroke-linejoin:round; stroke-width:4; stroke-opacity:1; fill:none" points="2050.84,667.406 2050.84,648.509 "/>
<polyline clip-path="url(#clip780)" style="stroke:#000000; stroke-linecap:round; stroke-linejoin:round; stroke-width:4; stroke-opacity:1; fill:none" points="2194.04,667.406 2194.04,648.509 "/>
<polyline clip-path="url(#clip780)" style="stroke:#000000; stroke-linecap:round; stroke-linejoin:round; stroke-width:4; stroke-opacity:1; fill:none" points="2337.24,667.406 2337.24,648.509 "/>
<path clip-path="url(#clip780)" d="M1424.2 739.139 Q1422.29 741.054 1423.21 743.914 Q1424.13 746.75 1427.91 750.531 Q1431.68 754.3 1434.53 755.233 Q1437.37 756.141 1439.29 754.226 Q1441.22 752.299 1440.3 749.463 Q1439.38 746.603 1435.61 742.834 Q1431.83 739.053 1428.98 738.144 Q1426.13 737.211 1424.2 739.139 M1422.24 737.175 Q1425.32 734.093 1429.38 734.916 Q1433.45 735.714 1438.09 740.354 Q1442.71 744.982 1443.52 749.058 Q1444.33 753.109 1441.25 756.19 Q1438.17 759.272 1434.11 758.474 Q1430.05 757.651 1425.42 753.023 Q1420.78 748.383 1419.97 744.332 Q1419.16 740.256 1422.24 737.175 Z" fill="#000000" fill-rule="nonzero" fill-opacity="1" /><path clip-path="url(#clip780)" d="M1448.47 742.024 L1451.06 739.433 L1454.18 742.552 L1451.59 745.142 L1448.47 742.024 Z" fill="#000000" fill-rule="nonzero" fill-opacity="1" /><path clip-path="url(#clip780)" d="M1457.21 719.755 Q1459.37 718.355 1461.57 718.564 Q1463.78 718.761 1465.55 720.528 Q1468.26 723.241 1467.88 726.593 Q1467.5 729.944 1464.06 733.381 Q1462.91 734.535 1461.45 735.53 Q1460.01 736.524 1458.26 737.371 L1455.86 734.977 Q1457.49 734.548 1459.03 733.627 Q1460.56 732.706 1461.9 731.368 Q1464.23 729.036 1464.53 726.9 Q1464.84 724.751 1463.08 722.996 Q1461.46 721.375 1459.41 721.609 Q1457.36 721.817 1455.33 723.843 L1453.2 725.979 L1451.16 723.941 L1453.39 721.707 Q1455.22 719.878 1455.47 718.184 Q1455.7 716.477 1454.33 715.102 Q1452.92 713.69 1451.16 713.948 Q1449.4 714.182 1447.54 716.047 Q1446.52 717.066 1445.57 718.454 Q1444.63 719.841 1443.7 721.707 L1441.49 719.497 Q1442.51 717.692 1443.54 716.268 Q1444.58 714.832 1445.67 713.74 Q1448.5 710.916 1451.43 710.56 Q1454.35 710.192 1456.54 712.377 Q1458.06 713.899 1458.24 715.827 Q1458.42 717.742 1457.21 719.755 Z" fill="#000000" fill-rule="nonzero" fill-opacity="1" /><path clip-path="url(#clip780)" d="M1464.19 699.156 Q1462.27 701.071 1463.19 703.931 Q1464.11 706.767 1467.89 710.548 Q1471.66 714.317 1474.51 715.25 Q1477.36 716.158 1479.27 714.243 Q1481.2 712.316 1480.28 709.48 Q1479.36 706.619 1475.59 702.851 Q1471.81 699.07 1468.96 698.161 Q1466.11 697.228 1464.19 699.156 M1462.22 697.191 Q1465.3 694.11 1469.37 694.933 Q1473.43 695.731 1478.07 700.371 Q1482.7 704.999 1483.51 709.075 Q1484.32 713.126 1481.24 716.207 Q1478.16 719.288 1474.09 718.49 Q1470.03 717.668 1465.4 713.04 Q1460.76 708.399 1459.95 704.348 Q1459.14 700.273 1462.22 697.191 Z" fill="#000000" fill-rule="nonzero" fill-opacity="1" /><path clip-path="url(#clip780)" d="M1568.05 738.488 Q1566.14 740.403 1567.06 743.264 Q1567.98 746.099 1571.76 749.88 Q1575.53 753.649 1578.37 754.582 Q1581.22 755.491 1583.14 753.576 Q1585.07 751.648 1584.14 748.812 Q1583.22 745.952 1579.46 742.183 Q1575.67 738.402 1572.83 737.494 Q1569.98 736.561 1568.05 738.488 M1566.09 736.524 Q1569.17 733.443 1573.23 734.265 Q1577.29 735.063 1581.94 739.704 Q1586.56 744.332 1587.37 748.407 Q1588.18 752.458 1585.1 755.54 Q1582.02 758.621 1577.96 757.823 Q1573.89 757.001 1569.27 752.372 Q1564.63 747.732 1563.82 743.681 Q1563.01 739.605 1566.09 736.524 Z" fill="#000000" fill-rule="nonzero" fill-opacity="1" /><path clip-path="url(#clip780)" d="M1592.32 741.373 L1594.91 738.783 L1598.03 741.901 L1595.44 744.491 L1592.32 741.373 Z" fill="#000000" fill-rule="nonzero" fill-opacity="1" /><path clip-path="url(#clip780)" d="M1601.06 719.104 Q1603.22 717.705 1605.42 717.913 Q1607.63 718.11 1609.4 719.878 Q1612.11 722.591 1611.73 725.942 Q1611.35 729.293 1607.91 732.731 Q1606.76 733.885 1605.3 734.879 Q1603.86 735.873 1602.1 736.72 L1599.71 734.327 Q1601.34 733.897 1602.88 732.976 Q1604.41 732.056 1605.75 730.717 Q1608.08 728.385 1608.38 726.249 Q1608.68 724.101 1606.93 722.345 Q1605.31 720.725 1603.26 720.958 Q1601.21 721.167 1599.18 723.192 L1597.05 725.328 L1595.01 723.29 L1597.24 721.056 Q1599.07 719.227 1599.32 717.533 Q1599.55 715.827 1598.18 714.452 Q1596.76 713.04 1595.01 713.298 Q1593.25 713.531 1591.39 715.397 Q1590.37 716.416 1589.42 717.803 Q1588.48 719.19 1587.55 721.056 L1585.34 718.846 Q1586.35 717.042 1587.39 715.618 Q1588.43 714.182 1589.52 713.089 Q1592.35 710.265 1595.28 709.909 Q1598.2 709.541 1600.39 711.726 Q1601.91 713.249 1602.09 715.176 Q1602.26 717.091 1601.06 719.104 Z" fill="#000000" fill-rule="nonzero" fill-opacity="1" /><path clip-path="url(#clip780)" d="M1617.77 717.987 L1621.82 713.936 L1607.84 699.954 L1604.31 705.245 L1602.06 702.986 L1605.55 697.719 L1608.03 695.24 L1624.28 711.481 L1628.33 707.43 L1630.41 709.517 L1619.86 720.074 L1617.77 717.987 Z" fill="#000000" fill-rule="nonzero" fill-opacity="1" /><path clip-path="url(#clip780)" d="M1711.45 738.292 Q1709.53 740.207 1710.45 743.067 Q1711.37 745.903 1715.15 749.684 Q1718.92 753.453 1721.77 754.386 Q1724.62 755.294 1726.53 753.379 Q1728.46 751.452 1727.54 748.616 Q1726.62 745.756 1722.85 741.987 Q1719.07 738.206 1716.22 737.297 Q1713.37 736.364 1711.45 738.292 M1709.48 736.328 Q1712.56 733.246 1716.63 734.069 Q1720.69 734.867 1725.33 739.507 Q1729.96 744.135 1730.77 748.211 Q1731.58 752.262 1728.5 755.343 Q1725.42 758.425 1721.35 757.627 Q1717.29 756.804 1712.66 752.176 Q1708.02 747.536 1707.21 743.485 Q1706.4 739.409 1709.48 736.328 Z" fill="#000000" fill-rule="nonzero" fill-opacity="1" /><path clip-path="url(#clip780)" d="M1735.72 741.177 L1738.31 738.586 L1741.42 741.705 L1738.83 744.295 L1735.72 741.177 Z" fill="#000000" fill-rule="nonzero" fill-opacity="1" /><path clip-path="url(#clip780)" d="M1744.46 718.908 Q1746.62 717.508 1748.81 717.717 Q1751.02 717.913 1752.79 719.681 Q1755.5 722.394 1755.12 725.746 Q1754.74 729.097 1751.31 732.534 Q1750.15 733.688 1748.69 734.683 Q1747.25 735.677 1745.5 736.524 L1743.11 734.13 Q1744.74 733.701 1746.27 732.78 Q1747.81 731.859 1749.15 730.521 Q1751.48 728.189 1751.77 726.053 Q1752.08 723.904 1750.32 722.149 Q1748.7 720.528 1746.65 720.762 Q1744.6 720.97 1742.58 722.996 L1740.44 725.132 L1738.4 723.094 L1740.64 720.86 Q1742.47 719.031 1742.71 717.336 Q1742.95 715.63 1741.57 714.255 Q1740.16 712.843 1738.4 713.101 Q1736.65 713.334 1734.78 715.2 Q1733.76 716.219 1732.82 717.607 Q1731.87 718.994 1730.94 720.86 L1728.73 718.65 Q1729.75 716.845 1730.78 715.421 Q1731.82 713.985 1732.92 712.893 Q1735.74 710.069 1738.67 709.713 Q1741.6 709.345 1743.78 711.53 Q1745.3 713.052 1745.49 714.979 Q1745.66 716.895 1744.46 718.908 Z" fill="#000000" fill-rule="nonzero" fill-opacity="1" /><path clip-path="url(#clip780)" d="M1762.87 716.084 L1771.52 707.43 L1773.61 709.517 L1761.97 721.154 L1759.89 719.067 Q1759.84 716.195 1759.81 711.309 Q1759.79 706.398 1759.7 705.06 Q1759.56 702.532 1759.1 701.144 Q1758.65 699.733 1757.75 698.836 Q1756.29 697.376 1754.34 697.486 Q1752.4 697.584 1750.75 699.229 Q1749.59 700.395 1748.69 702.102 Q1747.81 703.796 1747.16 706.092 L1744.65 703.587 Q1745.55 701.488 1746.54 699.88 Q1747.54 698.272 1748.62 697.191 Q1751.47 694.343 1754.58 694.073 Q1757.7 693.803 1760.08 696.185 Q1761.21 697.314 1761.8 698.763 Q1762.39 700.187 1762.65 702.679 Q1762.7 703.342 1762.76 706.693 Q1762.81 710.032 1762.87 716.084 Z" fill="#000000" fill-rule="nonzero" fill-opacity="1" /><path clip-path="url(#clip780)" d="M1854.14 738.795 Q1852.23 740.71 1853.15 743.571 Q1854.07 746.406 1857.85 750.187 Q1861.62 753.956 1864.46 754.889 Q1867.31 755.797 1869.23 753.882 Q1871.16 751.955 1870.23 749.119 Q1869.31 746.259 1865.55 742.49 Q1861.76 738.709 1858.92 737.801 Q1856.07 736.868 1854.14 738.795 M1852.18 736.831 Q1855.26 733.75 1859.32 734.572 Q1863.38 735.37 1868.02 740.01 Q1872.65 744.639 1873.46 748.714 Q1874.27 752.765 1871.19 755.847 Q1868.11 758.928 1864.05 758.13 Q1859.98 757.307 1855.36 752.679 Q1850.72 748.039 1849.91 743.988 Q1849.1 739.912 1852.18 736.831 Z" fill="#000000" fill-rule="nonzero" fill-opacity="1" /><path clip-path="url(#clip780)" d="M1878.41 741.68 L1881 739.09 L1884.12 742.208 L1881.53 744.798 L1878.41 741.68 Z" fill="#000000" fill-rule="nonzero" fill-opacity="1" /><path clip-path="url(#clip780)" d="M1887.15 719.411 Q1889.31 718.012 1891.51 718.22 Q1893.72 718.417 1895.49 720.185 Q1898.2 722.898 1897.82 726.249 Q1897.44 729.6 1894 733.038 Q1892.85 734.192 1891.39 735.186 Q1889.95 736.18 1888.19 737.027 L1885.8 734.634 Q1887.43 734.204 1888.97 733.283 Q1890.5 732.362 1891.84 731.024 Q1894.17 728.692 1894.47 726.556 Q1894.77 724.408 1893.02 722.652 Q1891.4 721.032 1889.35 721.265 Q1887.3 721.474 1885.27 723.499 L1883.14 725.635 L1881.1 723.597 L1883.33 721.363 Q1885.16 719.534 1885.41 717.84 Q1885.64 716.133 1884.27 714.759 Q1882.85 713.347 1881.1 713.605 Q1879.34 713.838 1877.48 715.704 Q1876.46 716.723 1875.51 718.11 Q1874.57 719.497 1873.63 721.363 L1871.43 719.153 Q1872.44 717.349 1873.48 715.925 Q1874.52 714.488 1875.61 713.396 Q1878.43 710.572 1881.37 710.216 Q1884.29 709.848 1886.48 712.033 Q1888 713.555 1888.18 715.483 Q1888.35 717.398 1887.15 719.411 Z" fill="#000000" fill-rule="nonzero" fill-opacity="1" /><path clip-path="url(#clip780)" d="M1903.15 703.415 Q1905.31 702.016 1907.5 702.225 Q1909.71 702.421 1911.48 704.189 Q1914.2 706.902 1913.81 710.253 Q1913.43 713.605 1910 717.042 Q1908.84 718.196 1907.38 719.19 Q1905.95 720.185 1904.19 721.032 L1901.8 718.638 Q1903.43 718.208 1904.96 717.287 Q1906.5 716.367 1907.84 715.029 Q1910.17 712.696 1910.46 710.56 Q1910.77 708.412 1909.01 706.656 Q1907.39 705.036 1905.34 705.269 Q1903.29 705.478 1901.27 707.503 L1899.13 709.639 L1897.09 707.602 L1899.33 705.367 Q1901.16 703.538 1901.4 701.844 Q1901.64 700.138 1900.26 698.763 Q1898.85 697.351 1897.09 697.609 Q1895.34 697.842 1893.47 699.708 Q1892.45 700.727 1891.51 702.114 Q1890.56 703.501 1889.63 705.367 L1887.42 703.158 Q1888.44 701.353 1889.47 699.929 Q1890.51 698.493 1891.61 697.4 Q1894.43 694.577 1897.36 694.221 Q1900.29 693.852 1902.47 696.037 Q1903.99 697.56 1904.18 699.487 Q1904.35 701.402 1903.15 703.415 Z" fill="#000000" fill-rule="nonzero" fill-opacity="1" /><path clip-path="url(#clip780)" d="M1996.74 739.397 Q1994.82 741.312 1995.74 744.172 Q1996.66 747.008 2000.44 750.789 Q2004.21 754.558 2007.06 755.491 Q2009.91 756.399 2011.82 754.484 Q2013.75 752.557 2012.83 749.721 Q2011.91 746.86 2008.14 743.092 Q2004.36 739.311 2001.51 738.402 Q1998.66 737.469 1996.74 739.397 M1994.77 737.432 Q1997.85 734.351 2001.92 735.174 Q2005.98 735.972 2010.62 740.612 Q2015.25 745.24 2016.06 749.316 Q2016.87 753.367 2013.79 756.448 Q2010.71 759.529 2006.64 758.731 Q2002.58 757.909 1997.95 753.281 Q1993.31 748.641 1992.5 744.589 Q1991.69 740.514 1994.77 737.432 Z" fill="#000000" fill-rule="nonzero" fill-opacity="1" /><path clip-path="url(#clip780)" d="M2021.01 742.282 L2023.6 739.691 L2026.72 742.809 L2024.13 745.4 L2021.01 742.282 Z" fill="#000000" fill-rule="nonzero" fill-opacity="1" /><path clip-path="url(#clip780)" d="M2029.75 720.013 Q2031.91 718.613 2034.11 718.822 Q2036.32 719.018 2038.08 720.786 Q2040.8 723.499 2040.42 726.85 Q2040.04 730.202 2036.6 733.639 Q2035.44 734.793 2033.98 735.787 Q2032.55 736.782 2030.79 737.629 L2028.4 735.235 Q2030.03 734.805 2031.56 733.885 Q2033.1 732.964 2034.44 731.626 Q2036.77 729.293 2037.06 727.157 Q2037.37 725.009 2035.62 723.254 Q2034 721.633 2031.95 721.866 Q2029.9 722.075 2027.87 724.101 L2025.73 726.237 L2023.7 724.199 L2025.93 721.965 Q2027.76 720.135 2028 718.441 Q2028.24 716.735 2026.86 715.36 Q2025.45 713.948 2023.7 714.206 Q2021.94 714.439 2020.07 716.305 Q2019.06 717.324 2018.11 718.711 Q2017.16 720.099 2016.23 721.965 L2014.02 719.755 Q2015.04 717.95 2016.07 716.526 Q2017.12 715.09 2018.21 713.997 Q2021.03 711.174 2023.97 710.818 Q2026.89 710.45 2029.07 712.635 Q2030.59 714.157 2030.78 716.084 Q2030.95 717.999 2029.75 720.013 Z" fill="#000000" fill-rule="nonzero" fill-opacity="1" /><path clip-path="url(#clip780)" d="M2038.76 698.431 L2042.28 714.476 L2048.54 708.215 L2038.76 698.431 M2035.95 696.921 L2039.07 693.803 L2051.01 705.748 L2053.62 703.133 L2055.69 705.195 L2053.07 707.81 L2057.39 712.131 L2054.93 714.599 L2050.6 710.278 L2042.33 718.552 L2039.94 716.158 L2035.95 696.921 Z" fill="#000000" fill-rule="nonzero" fill-opacity="1" /><path clip-path="url(#clip780)" d="M2140.72 738.611 Q2138.81 740.526 2139.73 743.386 Q2140.65 746.222 2144.43 750.003 Q2148.2 753.772 2151.05 754.705 Q2153.89 755.613 2155.81 753.698 Q2157.74 751.771 2156.82 748.935 Q2155.89 746.075 2152.13 742.306 Q2148.34 738.525 2145.5 737.617 Q2142.65 736.684 2140.72 738.611 M2138.76 736.647 Q2141.84 733.565 2145.9 734.388 Q2149.97 735.186 2154.61 739.826 Q2159.23 744.454 2160.04 748.53 Q2160.85 752.581 2157.77 755.662 Q2154.69 758.744 2150.63 757.946 Q2146.56 757.123 2141.94 752.495 Q2137.3 747.855 2136.49 743.804 Q2135.68 739.728 2138.76 736.647 Z" fill="#000000" fill-rule="nonzero" fill-opacity="1" /><path clip-path="url(#clip780)" d="M2164.99 741.496 L2167.58 738.906 L2170.7 742.024 L2168.11 744.614 L2164.99 741.496 Z" fill="#000000" fill-rule="nonzero" fill-opacity="1" /><path clip-path="url(#clip780)" d="M2173.73 719.227 Q2175.89 717.828 2178.09 718.036 Q2180.3 718.233 2182.07 720 Q2184.78 722.713 2184.4 726.065 Q2184.02 729.416 2180.58 732.853 Q2179.43 734.007 2177.97 735.002 Q2176.53 735.996 2174.78 736.843 L2172.38 734.449 Q2174.01 734.02 2175.55 733.099 Q2177.08 732.178 2178.42 730.84 Q2180.75 728.508 2181.05 726.372 Q2181.36 724.223 2179.6 722.468 Q2177.98 720.847 2175.93 721.081 Q2173.88 721.289 2171.85 723.315 L2169.72 725.451 L2167.68 723.413 L2169.91 721.179 Q2171.74 719.35 2171.99 717.656 Q2172.22 715.949 2170.85 714.574 Q2169.44 713.163 2167.68 713.42 Q2165.92 713.654 2164.06 715.52 Q2163.04 716.539 2162.09 717.926 Q2161.15 719.313 2160.22 721.179 L2158.01 718.969 Q2159.02 717.165 2160.06 715.741 Q2161.1 714.304 2162.19 713.212 Q2165.02 710.388 2167.95 710.032 Q2170.87 709.664 2173.06 711.849 Q2174.58 713.371 2174.76 715.299 Q2174.93 717.214 2173.73 719.227 Z" fill="#000000" fill-rule="nonzero" fill-opacity="1" /><path clip-path="url(#clip780)" d="M2173.79 702.274 L2183.53 692.539 L2185.62 694.626 L2178.15 702.09 L2182.64 706.583 Q2183 705.858 2183.45 705.232 Q2183.9 704.594 2184.44 704.054 Q2187.51 700.985 2190.98 700.874 Q2194.45 700.764 2197.33 703.636 Q2200.28 706.595 2200.09 710.081 Q2199.88 713.555 2196.53 716.907 Q2195.37 718.061 2193.98 719.067 Q2192.59 720.062 2190.92 720.946 L2188.43 718.454 Q2190.13 717.95 2191.61 717.066 Q2193.08 716.183 2194.39 714.869 Q2196.52 712.745 2196.64 710.388 Q2196.76 708.031 2194.85 706.116 Q2192.93 704.201 2190.57 704.324 Q2188.22 704.447 2186.09 706.57 Q2185.1 707.565 2184.33 708.78 Q2183.56 709.983 2183 711.481 L2173.79 702.274 Z" fill="#000000" fill-rule="nonzero" fill-opacity="1" /><path clip-path="url(#clip780)" d="M2283.31 739.225 Q2281.39 741.14 2282.31 744 Q2283.23 746.836 2287.01 750.617 Q2290.78 754.386 2293.63 755.319 Q2296.48 756.227 2298.39 754.312 Q2300.32 752.385 2299.4 749.549 Q2298.48 746.689 2294.71 742.92 Q2290.93 739.139 2288.08 738.23 Q2285.23 737.297 2283.31 739.225 M2281.34 737.261 Q2284.42 734.179 2288.49 735.002 Q2292.55 735.8 2297.19 740.44 Q2301.82 745.068 2302.63 749.144 Q2303.44 753.195 2300.36 756.276 Q2297.28 759.358 2293.21 758.56 Q2289.15 757.737 2284.52 753.109 Q2279.88 748.469 2279.07 744.418 Q2278.26 740.342 2281.34 737.261 Z" fill="#000000" fill-rule="nonzero" fill-opacity="1" /><path clip-path="url(#clip780)" d="M2307.58 742.11 L2310.17 739.519 L2313.28 742.638 L2310.69 745.228 L2307.58 742.11 Z" fill="#000000" fill-rule="nonzero" fill-opacity="1" /><path clip-path="url(#clip780)" d="M2316.32 719.841 Q2318.48 718.441 2320.67 718.65 Q2322.88 718.846 2324.65 720.614 Q2327.36 723.327 2326.98 726.679 Q2326.6 730.03 2323.17 733.467 Q2322.01 734.621 2320.55 735.616 Q2319.12 736.61 2317.36 737.457 L2314.97 735.063 Q2316.6 734.634 2318.13 733.713 Q2319.67 732.792 2321.01 731.454 Q2323.34 729.122 2323.63 726.985 Q2323.94 724.837 2322.18 723.082 Q2320.56 721.461 2318.51 721.695 Q2316.46 721.903 2314.44 723.929 L2312.3 726.065 L2310.26 724.027 L2312.5 721.793 Q2314.33 719.964 2314.57 718.269 Q2314.81 716.563 2313.43 715.188 Q2312.02 713.776 2310.26 714.034 Q2308.51 714.267 2306.64 716.133 Q2305.62 717.152 2304.68 718.54 Q2303.73 719.927 2302.8 721.793 L2300.59 719.583 Q2301.61 717.778 2302.64 716.354 Q2303.68 714.918 2304.78 713.826 Q2307.6 711.002 2310.53 710.646 Q2313.46 710.278 2315.64 712.463 Q2317.16 713.985 2317.35 715.912 Q2317.52 717.828 2316.32 719.841 Z" fill="#000000" fill-rule="nonzero" fill-opacity="1" /><path clip-path="url(#clip780)" d="M2330.14 705.478 Q2328.47 707.147 2328.63 709.271 Q2328.8 711.383 2330.79 713.371 Q2332.77 715.348 2334.89 715.532 Q2337.01 715.691 2338.68 714.022 Q2340.35 712.352 2340.18 710.241 Q2340.01 708.105 2338.03 706.128 Q2336.04 704.14 2333.92 703.98 Q2331.81 703.808 2330.14 705.478 M2327.29 692.784 L2329.55 695.043 Q2328.17 695.534 2326.98 696.258 Q2325.81 696.97 2324.87 697.903 Q2322.42 700.359 2322.77 703.317 Q2323.14 706.263 2326.31 709.799 Q2325.97 708.007 2326.49 706.349 Q2327.01 704.68 2328.32 703.366 Q2331.08 700.604 2334.36 700.69 Q2337.64 700.751 2340.52 703.636 Q2343.35 706.46 2343.39 709.836 Q2343.42 713.212 2340.65 715.986 Q2337.47 719.166 2333.36 718.417 Q2329.23 717.656 2324.6 713.028 Q2320.26 708.682 2319.74 704.041 Q2319.21 699.389 2322.69 695.915 Q2323.62 694.982 2324.75 694.221 Q2325.89 693.447 2327.29 692.784 Z" fill="#000000" fill-rule="nonzero" fill-opacity="1" /><polyline clip-path="url(#clip780)" style="stroke:#000000; stroke-linecap:round; stroke-linejoin:round; stroke-width:4; stroke-opacity:1; fill:none" points="1361.64,667.406 1361.64,97.5521 "/>
<polyline clip-path="url(#clip780)" style="stroke:#000000; stroke-linecap:round; stroke-linejoin:round; stroke-width:4; stroke-opacity:1; fill:none" points="1361.64,651.278 1380.53,651.278 "/>
<polyline clip-path="url(#clip780)" style="stroke:#000000; stroke-linecap:round; stroke-linejoin:round; stroke-width:4; stroke-opacity:1; fill:none" points="1361.64,508.291 1380.53,508.291 "/>
<polyline clip-path="url(#clip780)" style="stroke:#000000; stroke-linecap:round; stroke-linejoin:round; stroke-width:4; stroke-opacity:1; fill:none" points="1361.64,365.303 1380.53,365.303 "/>
<polyline clip-path="url(#clip780)" style="stroke:#000000; stroke-linecap:round; stroke-linejoin:round; stroke-width:4; stroke-opacity:1; fill:none" points="1361.64,222.315 1380.53,222.315 "/>
<path clip-path="url(#clip780)" d="M1260.13 640.627 Q1257.42 640.627 1256.05 643.301 Q1254.7 645.957 1254.7 651.304 Q1254.7 656.634 1256.05 659.308 Q1257.42 661.964 1260.13 661.964 Q1262.86 661.964 1264.21 659.308 Q1265.58 656.634 1265.58 651.304 Q1265.58 645.957 1264.21 643.301 Q1262.86 640.627 1260.13 640.627 M1260.13 637.85 Q1264.49 637.85 1266.78 641.305 Q1269.09 644.742 1269.09 651.304 Q1269.09 657.85 1266.78 661.304 Q1264.49 664.742 1260.13 664.742 Q1255.78 664.742 1253.47 661.304 Q1251.17 657.85 1251.17 651.304 Q1251.17 644.742 1253.47 641.305 Q1255.78 637.85 1260.13 637.85 Z" fill="#000000" fill-rule="nonzero" fill-opacity="1" /><path clip-path="url(#clip780)" d="M1275.25 659.829 L1278.92 659.829 L1278.92 664.238 L1275.25 664.238 L1275.25 659.829 Z" fill="#000000" fill-rule="nonzero" fill-opacity="1" /><path clip-path="url(#clip780)" d="M1294.06 640.627 Q1291.35 640.627 1289.98 643.301 Q1288.62 645.957 1288.62 651.304 Q1288.62 656.634 1289.98 659.308 Q1291.35 661.964 1294.06 661.964 Q1296.78 661.964 1298.14 659.308 Q1299.51 656.634 1299.51 651.304 Q1299.51 645.957 1298.14 643.301 Q1296.78 640.627 1294.06 640.627 M1294.06 637.85 Q1298.41 637.85 1300.71 641.305 Q1303.01 644.742 1303.01 651.304 Q1303.01 657.85 1300.71 661.304 Q1298.41 664.742 1294.06 664.742 Q1289.7 664.742 1287.39 661.304 Q1285.1 657.85 1285.1 651.304 Q1285.1 644.742 1287.39 641.305 Q1289.7 637.85 1294.06 637.85 Z" fill="#000000" fill-rule="nonzero" fill-opacity="1" /><path clip-path="url(#clip780)" d="M1316.68 640.627 Q1313.97 640.627 1312.6 643.301 Q1311.24 645.957 1311.24 651.304 Q1311.24 656.634 1312.6 659.308 Q1313.97 661.964 1316.68 661.964 Q1319.4 661.964 1320.76 659.308 Q1322.13 656.634 1322.13 651.304 Q1322.13 645.957 1320.76 643.301 Q1319.4 640.627 1316.68 640.627 M1316.68 637.85 Q1321.04 637.85 1323.33 641.305 Q1325.64 644.742 1325.64 651.304 Q1325.64 657.85 1323.33 661.304 Q1321.04 664.742 1316.68 664.742 Q1312.32 664.742 1310.01 661.304 Q1307.72 657.85 1307.72 651.304 Q1307.72 644.742 1310.01 641.305 Q1312.32 637.85 1316.68 637.85 Z" fill="#000000" fill-rule="nonzero" fill-opacity="1" /><path clip-path="url(#clip780)" d="M1260.88 497.64 Q1258.17 497.64 1256.8 500.313 Q1255.45 502.969 1255.45 508.317 Q1255.45 513.646 1256.8 516.32 Q1258.17 518.976 1260.88 518.976 Q1263.6 518.976 1264.96 516.32 Q1266.33 513.646 1266.33 508.317 Q1266.33 502.969 1264.96 500.313 Q1263.6 497.64 1260.88 497.64 M1260.88 494.862 Q1265.24 494.862 1267.53 498.317 Q1269.84 501.754 1269.84 508.317 Q1269.84 514.862 1267.53 518.317 Q1265.24 521.754 1260.88 521.754 Q1256.52 521.754 1254.21 518.317 Q1251.92 514.862 1251.92 508.317 Q1251.92 501.754 1254.21 498.317 Q1256.52 494.862 1260.88 494.862 Z" fill="#000000" fill-rule="nonzero" fill-opacity="1" /><path clip-path="url(#clip780)" d="M1276 516.841 L1279.66 516.841 L1279.66 521.251 L1276 521.251 L1276 516.841 Z" fill="#000000" fill-rule="nonzero" fill-opacity="1" /><path clip-path="url(#clip780)" d="M1294.8 497.64 Q1292.09 497.64 1290.72 500.313 Q1289.37 502.969 1289.37 508.317 Q1289.37 513.646 1290.72 516.32 Q1292.09 518.976 1294.8 518.976 Q1297.53 518.976 1298.88 516.32 Q1300.25 513.646 1300.25 508.317 Q1300.25 502.969 1298.88 500.313 Q1297.53 497.64 1294.8 497.64 M1294.8 494.862 Q1299.16 494.862 1301.45 498.317 Q1303.76 501.754 1303.76 508.317 Q1303.76 514.862 1301.45 518.317 Q1299.16 521.754 1294.8 521.754 Q1290.45 521.754 1288.14 518.317 Q1285.84 514.862 1285.84 508.317 Q1285.84 501.754 1288.14 498.317 Q1290.45 494.862 1294.8 494.862 Z" fill="#000000" fill-rule="nonzero" fill-opacity="1" /><path clip-path="url(#clip780)" d="M1309.96 495.331 L1323.73 495.331 L1323.73 498.282 L1313.17 498.282 L1313.17 504.636 Q1313.93 504.376 1314.7 504.254 Q1315.46 504.115 1316.23 504.115 Q1320.57 504.115 1323.1 506.494 Q1325.64 508.872 1325.64 512.935 Q1325.64 517.119 1323.03 519.445 Q1320.43 521.754 1315.69 521.754 Q1314.06 521.754 1312.35 521.476 Q1310.67 521.199 1308.87 520.643 L1308.87 517.119 Q1310.43 517.969 1312.09 518.386 Q1313.76 518.803 1315.62 518.803 Q1318.62 518.803 1320.38 517.223 Q1322.13 515.643 1322.13 512.935 Q1322.13 510.226 1320.38 508.646 Q1318.62 507.067 1315.62 507.067 Q1314.21 507.067 1312.81 507.379 Q1311.42 507.692 1309.96 508.351 L1309.96 495.331 Z" fill="#000000" fill-rule="nonzero" fill-opacity="1" /><path clip-path="url(#clip780)" d="M1260.13 354.652 Q1257.42 354.652 1256.05 357.325 Q1254.7 359.982 1254.7 365.329 Q1254.7 370.659 1256.05 373.332 Q1257.42 375.988 1260.13 375.988 Q1262.86 375.988 1264.21 373.332 Q1265.58 370.659 1265.58 365.329 Q1265.58 359.982 1264.21 357.325 Q1262.86 354.652 1260.13 354.652 M1260.13 351.874 Q1264.49 351.874 1266.78 355.329 Q1269.09 358.766 1269.09 365.329 Q1269.09 371.874 1266.78 375.329 Q1264.49 378.766 1260.13 378.766 Q1255.78 378.766 1253.47 375.329 Q1251.17 371.874 1251.17 365.329 Q1251.17 358.766 1253.47 355.329 Q1255.78 351.874 1260.13 351.874 Z" fill="#000000" fill-rule="nonzero" fill-opacity="1" /><path clip-path="url(#clip780)" d="M1275.25 373.853 L1278.92 373.853 L1278.92 378.263 L1275.25 378.263 L1275.25 373.853 Z" fill="#000000" fill-rule="nonzero" fill-opacity="1" /><path clip-path="url(#clip780)" d="M1287.16 375.311 L1292.89 375.311 L1292.89 355.537 L1286.66 356.787 L1286.66 353.593 L1292.86 352.343 L1296.37 352.343 L1296.37 375.311 L1302.09 375.311 L1302.09 378.263 L1287.16 378.263 L1287.16 375.311 Z" fill="#000000" fill-rule="nonzero" fill-opacity="1" /><path clip-path="url(#clip780)" d="M1316.68 354.652 Q1313.97 354.652 1312.6 357.325 Q1311.24 359.982 1311.24 365.329 Q1311.24 370.659 1312.6 373.332 Q1313.97 375.988 1316.68 375.988 Q1319.4 375.988 1320.76 373.332 Q1322.13 370.659 1322.13 365.329 Q1322.13 359.982 1320.76 357.325 Q1319.4 354.652 1316.68 354.652 M1316.68 351.874 Q1321.04 351.874 1323.33 355.329 Q1325.64 358.766 1325.64 365.329 Q1325.64 371.874 1323.33 375.329 Q1321.04 378.766 1316.68 378.766 Q1312.32 378.766 1310.01 375.329 Q1307.72 371.874 1307.72 365.329 Q1307.72 358.766 1310.01 355.329 Q1312.32 351.874 1316.68 351.874 Z" fill="#000000" fill-rule="nonzero" fill-opacity="1" /><path clip-path="url(#clip780)" d="M1260.88 211.664 Q1258.17 211.664 1256.8 214.337 Q1255.45 216.994 1255.45 222.341 Q1255.45 227.671 1256.8 230.344 Q1258.17 233.001 1260.88 233.001 Q1263.6 233.001 1264.96 230.344 Q1266.33 227.671 1266.33 222.341 Q1266.33 216.994 1264.96 214.337 Q1263.6 211.664 1260.88 211.664 M1260.88 208.886 Q1265.24 208.886 1267.53 212.341 Q1269.84 215.778 1269.84 222.341 Q1269.84 228.886 1267.53 232.341 Q1265.24 235.778 1260.88 235.778 Q1256.52 235.778 1254.21 232.341 Q1251.92 228.886 1251.92 222.341 Q1251.92 215.778 1254.21 212.341 Q1256.52 208.886 1260.88 208.886 Z" fill="#000000" fill-rule="nonzero" fill-opacity="1" /><path clip-path="url(#clip780)" d="M1276 230.865 L1279.66 230.865 L1279.66 235.275 L1276 235.275 L1276 230.865 Z" fill="#000000" fill-rule="nonzero" fill-opacity="1" /><path clip-path="url(#clip780)" d="M1287.91 232.324 L1293.64 232.324 L1293.64 212.549 L1287.41 213.799 L1287.41 210.605 L1293.6 209.355 L1297.11 209.355 L1297.11 232.324 L1302.84 232.324 L1302.84 235.275 L1287.91 235.275 L1287.91 232.324 Z" fill="#000000" fill-rule="nonzero" fill-opacity="1" /><path clip-path="url(#clip780)" d="M1309.96 209.355 L1323.73 209.355 L1323.73 212.306 L1313.17 212.306 L1313.17 218.66 Q1313.93 218.4 1314.7 218.278 Q1315.46 218.14 1316.23 218.14 Q1320.57 218.14 1323.1 220.518 Q1325.64 222.896 1325.64 226.959 Q1325.64 231.143 1323.03 233.469 Q1320.43 235.778 1315.69 235.778 Q1314.06 235.778 1312.35 235.501 Q1310.67 235.223 1308.87 234.667 L1308.87 231.143 Q1310.43 231.994 1312.09 232.41 Q1313.76 232.827 1315.62 232.827 Q1318.62 232.827 1320.38 231.247 Q1322.13 229.667 1322.13 226.959 Q1322.13 224.251 1320.38 222.671 Q1318.62 221.091 1315.62 221.091 Q1314.21 221.091 1312.81 221.403 Q1311.42 221.716 1309.96 222.376 L1309.96 209.355 Z" fill="#000000" fill-rule="nonzero" fill-opacity="1" /><path clip-path="url(#clip780)" d="M1373.53 18.9258 Q1370.02 18.9258 1368.12 21.4721 Q1366.13 24.1341 1366.13 28.5323 Q1366.13 33.185 1368.09 35.8702 Q1370.08 38.5322 1373.53 38.5322 Q1376.94 38.5322 1378.93 35.847 Q1380.92 33.1619 1380.92 28.5323 Q1380.92 24.2962 1378.93 21.4721 Q1377.1 18.9258 1373.53 18.9258 M1373.53 15.5462 L1387.68 15.5462 L1387.68 19.8054 L1382.91 19.8054 Q1385.43 23.4165 1385.43 28.5323 Q1385.43 34.898 1382.26 38.5091 Q1379.09 42.1433 1373.53 42.1433 Q1367.96 42.1433 1364.81 38.5091 Q1361.64 34.898 1361.64 28.5323 Q1361.64 22.1203 1364.81 18.5323 Q1367.42 15.5462 1373.53 15.5462 Z" fill="#000000" fill-rule="nonzero" fill-opacity="1" /><path clip-path="url(#clip780)" d="M1411.84 19.6666 Q1410.99 19.3656 1410.13 19.1342 Q1407.84 18.5323 1405.39 18.5323 Q1401.15 18.5323 1398.79 20.824 Q1396.59 22.9536 1396.17 26.8656 L1411.84 26.8656 L1411.84 30.1989 L1396.17 30.1989 Q1396.59 34.1109 1398.79 36.2405 Q1401.15 38.5322 1405.39 38.5322 Q1408.35 38.5322 1410.13 37.9304 L1411.84 37.3517 L1411.84 41.2174 L1410.02 41.634 Q1407.61 42.1433 1405.13 42.1433 Q1398.93 42.1433 1395.32 38.5322 Q1391.68 34.9211 1391.68 28.5323 Q1391.68 22.1434 1395.32 18.5323 Q1398.93 14.9212 1405.13 14.9212 Q1407.47 14.9212 1410.02 15.4305 Q1410.94 15.6157 1411.84 15.8934 L1411.84 19.6666 Z" fill="#000000" fill-rule="nonzero" fill-opacity="1" /><polyline clip-path="url(#clip783)" style="stroke:#009af9; stroke-linecap:round; stroke-linejoin:round; stroke-width:4; stroke-opacity:1; fill:none" points="1389.69,164.934 1448.13,222.924 1506.56,281.715 1565,341.307 1623.44,401.699 1681.88,462.893 1740.32,524.887 1798.76,587.682 1857.2,651.278 1915.63,586.882 1974.07,521.684 2032.51,455.685 2090.95,388.886 2149.39,321.286 2207.83,252.885 2266.27,183.683 2324.71,113.68 "/>
<circle clip-path="url(#clip783)" cx="1857.2" cy="651.278" r="10.8" fill="#ff0000" fill-rule="evenodd" fill-opacity="1" stroke="#000000" stroke-opacity="1" stroke-width="3.2"/>
<path clip-path="url(#clip780)" d="M161.818 1467.41 L1152.94 1467.41 L1152.94 897.552 L161.818 897.552  Z" fill="#ffffff" fill-rule="evenodd" fill-opacity="1"/>
<defs>
  <clipPath id="clip784">
    <rect x="161" y="897" width="992" height="571"/>
  </clipPath>
</defs>
<polyline clip-path="url(#clip784)" style="stroke:#000000; stroke-linecap:round; stroke-linejoin:round; stroke-width:2; stroke-opacity:0.1; fill:none" points="293.09,1467.41 293.09,897.552 "/>
<polyline clip-path="url(#clip784)" style="stroke:#000000; stroke-linecap:round; stroke-linejoin:round; stroke-width:2; stroke-opacity:0.1; fill:none" points="465.523,1467.41 465.523,897.552 "/>
<polyline clip-path="url(#clip784)" style="stroke:#000000; stroke-linecap:round; stroke-linejoin:round; stroke-width:2; stroke-opacity:0.1; fill:none" points="637.955,1467.41 637.955,897.552 "/>
<polyline clip-path="url(#clip784)" style="stroke:#000000; stroke-linecap:round; stroke-linejoin:round; stroke-width:2; stroke-opacity:0.1; fill:none" points="810.387,1467.41 810.387,897.552 "/>
<polyline clip-path="url(#clip784)" style="stroke:#000000; stroke-linecap:round; stroke-linejoin:round; stroke-width:2; stroke-opacity:0.1; fill:none" points="982.819,1467.41 982.819,897.552 "/>
<polyline clip-path="url(#clip784)" style="stroke:#000000; stroke-linecap:round; stroke-linejoin:round; stroke-width:2; stroke-opacity:0.1; fill:none" points="161.818,1451.28 1152.94,1451.28 "/>
<polyline clip-path="url(#clip784)" style="stroke:#000000; stroke-linecap:round; stroke-linejoin:round; stroke-width:2; stroke-opacity:0.1; fill:none" points="161.818,1330.44 1152.94,1330.44 "/>
<polyline clip-path="url(#clip784)" style="stroke:#000000; stroke-linecap:round; stroke-linejoin:round; stroke-width:2; stroke-opacity:0.1; fill:none" points="161.818,1209.59 1152.94,1209.59 "/>
<polyline clip-path="url(#clip784)" style="stroke:#000000; stroke-linecap:round; stroke-linejoin:round; stroke-width:2; stroke-opacity:0.1; fill:none" points="161.818,1088.75 1152.94,1088.75 "/>
<polyline clip-path="url(#clip784)" style="stroke:#000000; stroke-linecap:round; stroke-linejoin:round; stroke-width:2; stroke-opacity:0.1; fill:none" points="161.818,967.905 1152.94,967.905 "/>
<polyline clip-path="url(#clip780)" style="stroke:#000000; stroke-linecap:round; stroke-linejoin:round; stroke-width:4; stroke-opacity:1; fill:none" points="161.818,1467.41 1152.94,1467.41 "/>
<polyline clip-path="url(#clip780)" style="stroke:#000000; stroke-linecap:round; stroke-linejoin:round; stroke-width:4; stroke-opacity:1; fill:none" points="293.09,1467.41 293.09,1448.51 "/>
<polyline clip-path="url(#clip780)" style="stroke:#000000; stroke-linecap:round; stroke-linejoin:round; stroke-width:4; stroke-opacity:1; fill:none" points="465.523,1467.41 465.523,1448.51 "/>
<polyline clip-path="url(#clip780)" style="stroke:#000000; stroke-linecap:round; stroke-linejoin:round; stroke-width:4; stroke-opacity:1; fill:none" points="637.955,1467.41 637.955,1448.51 "/>
<polyline clip-path="url(#clip780)" style="stroke:#000000; stroke-linecap:round; stroke-linejoin:round; stroke-width:4; stroke-opacity:1; fill:none" points="810.387,1467.41 810.387,1448.51 "/>
<polyline clip-path="url(#clip780)" style="stroke:#000000; stroke-linecap:round; stroke-linejoin:round; stroke-width:4; stroke-opacity:1; fill:none" points="982.819,1467.41 982.819,1448.51 "/>
<path clip-path="url(#clip780)" d="M239.241 1539.14 Q237.326 1541.05 238.247 1543.91 Q239.168 1546.75 242.949 1550.53 Q246.717 1554.3 249.565 1555.23 Q252.414 1556.14 254.329 1554.23 Q256.256 1552.3 255.335 1549.46 Q254.415 1546.6 250.646 1542.83 Q246.865 1539.05 244.017 1538.14 Q241.169 1537.21 239.241 1539.14 M237.277 1537.17 Q240.358 1534.09 244.422 1534.92 Q248.485 1535.71 253.126 1540.35 Q257.754 1544.98 258.564 1549.06 Q259.374 1553.11 256.293 1556.19 Q253.211 1559.27 249.148 1558.47 Q245.085 1557.65 240.457 1553.02 Q235.816 1548.38 235.006 1544.33 Q234.196 1540.26 237.277 1537.17 Z" fill="#000000" fill-rule="nonzero" fill-opacity="1" /><path clip-path="url(#clip780)" d="M263.511 1542.02 L266.101 1539.43 L269.219 1542.55 L266.629 1545.14 L263.511 1542.02 Z" fill="#000000" fill-rule="nonzero" fill-opacity="1" /><path clip-path="url(#clip780)" d="M256.317 1518.8 L266.052 1509.06 L268.139 1511.15 L260.675 1518.61 L265.168 1523.11 Q265.524 1522.38 265.979 1521.76 Q266.421 1521.12 266.961 1520.58 Q270.03 1517.51 273.504 1517.4 Q276.978 1517.29 279.851 1520.16 Q282.809 1523.12 282.613 1526.6 Q282.404 1530.08 279.053 1533.43 Q277.899 1534.58 276.499 1535.59 Q275.112 1536.59 273.442 1537.47 L270.95 1534.98 Q272.657 1534.47 274.13 1533.59 Q275.603 1532.71 276.917 1531.39 Q279.04 1529.27 279.163 1526.91 Q279.286 1524.55 277.371 1522.64 Q275.456 1520.72 273.099 1520.85 Q270.742 1520.97 268.618 1523.09 Q267.624 1524.09 266.85 1525.3 Q266.089 1526.51 265.524 1528 L256.317 1518.8 Z" fill="#000000" fill-rule="nonzero" fill-opacity="1" /><path clip-path="url(#clip780)" d="M279.224 1499.16 Q277.309 1501.07 278.23 1503.93 Q279.151 1506.77 282.932 1510.55 Q286.701 1514.32 289.549 1515.25 Q292.397 1516.16 294.312 1514.24 Q296.239 1512.32 295.318 1509.48 Q294.398 1506.62 290.629 1502.85 Q286.848 1499.07 284 1498.16 Q281.152 1497.23 279.224 1499.16 M277.26 1497.19 Q280.342 1494.11 284.405 1494.93 Q288.468 1495.73 293.109 1500.37 Q297.737 1505 298.547 1509.07 Q299.357 1513.13 296.276 1516.21 Q293.195 1519.29 289.131 1518.49 Q285.068 1517.67 280.44 1513.04 Q275.799 1508.4 274.989 1504.35 Q274.179 1500.27 277.26 1497.19 Z" fill="#000000" fill-rule="nonzero" fill-opacity="1" /><path clip-path="url(#clip780)" d="M412.521 1538.29 Q410.606 1540.21 411.526 1543.07 Q412.447 1545.9 416.228 1549.68 Q419.997 1553.45 422.845 1554.39 Q425.693 1555.29 427.608 1553.38 Q429.535 1551.45 428.615 1548.62 Q427.694 1545.76 423.925 1541.99 Q420.144 1538.21 417.296 1537.3 Q414.448 1536.36 412.521 1538.29 M410.556 1536.33 Q413.638 1533.25 417.701 1534.07 Q421.764 1534.87 426.405 1539.51 Q431.033 1544.14 431.843 1548.21 Q432.653 1552.26 429.572 1555.34 Q426.491 1558.42 422.427 1557.63 Q418.364 1556.8 413.736 1552.18 Q409.096 1547.54 408.285 1543.48 Q407.475 1539.41 410.556 1536.33 Z" fill="#000000" fill-rule="nonzero" fill-opacity="1" /><path clip-path="url(#clip780)" d="M436.79 1541.18 L439.381 1538.59 L442.499 1541.7 L439.909 1544.29 L436.79 1541.18 Z" fill="#000000" fill-rule="nonzero" fill-opacity="1" /><path clip-path="url(#clip780)" d="M429.597 1517.95 L439.332 1508.22 L441.419 1510.3 L433.955 1517.77 L438.448 1522.26 Q438.804 1521.53 439.258 1520.91 Q439.7 1520.27 440.24 1519.73 Q443.309 1516.66 446.783 1516.55 Q450.257 1516.44 453.13 1519.31 Q456.088 1522.27 455.892 1525.76 Q455.683 1529.23 452.332 1532.58 Q451.178 1533.74 449.779 1534.74 Q448.391 1535.74 446.722 1536.62 L444.23 1534.13 Q445.936 1533.63 447.409 1532.74 Q448.882 1531.86 450.196 1530.55 Q452.32 1528.42 452.442 1526.06 Q452.565 1523.71 450.65 1521.79 Q448.735 1519.88 446.378 1520 Q444.021 1520.12 441.897 1522.25 Q440.903 1523.24 440.13 1524.46 Q439.368 1525.66 438.804 1527.16 L429.597 1517.95 Z" fill="#000000" fill-rule="nonzero" fill-opacity="1" /><path clip-path="url(#clip780)" d="M463.945 1516.08 L472.6 1507.43 L474.687 1509.52 L463.049 1521.15 L460.962 1519.07 Q460.913 1516.19 460.888 1511.31 Q460.864 1506.4 460.778 1505.06 Q460.631 1502.53 460.176 1501.14 Q459.722 1499.73 458.826 1498.84 Q457.365 1497.38 455.413 1497.49 Q453.474 1497.58 451.829 1499.23 Q450.662 1500.4 449.766 1502.1 Q448.882 1503.8 448.232 1506.09 L445.727 1503.59 Q446.624 1501.49 447.618 1499.88 Q448.612 1498.27 449.693 1497.19 Q452.541 1494.34 455.659 1494.07 Q458.777 1493.8 461.158 1496.18 Q462.288 1497.31 462.877 1498.76 Q463.466 1500.19 463.724 1502.68 Q463.773 1503.34 463.835 1506.69 Q463.884 1510.03 463.945 1516.08 Z" fill="#000000" fill-rule="nonzero" fill-opacity="1" /><path clip-path="url(#clip780)" d="M583.848 1539.4 Q581.933 1541.31 582.854 1544.17 Q583.774 1547.01 587.555 1550.79 Q591.324 1554.56 594.172 1555.49 Q597.02 1556.4 598.935 1554.48 Q600.863 1552.56 599.942 1549.72 Q599.021 1546.86 595.253 1543.09 Q591.471 1539.31 588.623 1538.4 Q585.775 1537.47 583.848 1539.4 M581.884 1537.43 Q584.965 1534.35 589.029 1535.17 Q593.092 1535.97 597.732 1540.61 Q602.36 1545.24 603.171 1549.32 Q603.981 1553.37 600.9 1556.45 Q597.818 1559.53 593.755 1558.73 Q589.691 1557.91 585.063 1553.28 Q580.423 1548.64 579.613 1544.59 Q578.803 1540.51 581.884 1537.43 Z" fill="#000000" fill-rule="nonzero" fill-opacity="1" /><path clip-path="url(#clip780)" d="M608.118 1542.28 L610.708 1539.69 L613.826 1542.81 L611.236 1545.4 L608.118 1542.28 Z" fill="#000000" fill-rule="nonzero" fill-opacity="1" /><path clip-path="url(#clip780)" d="M600.924 1519.06 L610.659 1509.32 L612.746 1511.41 L605.282 1518.87 L609.775 1523.36 Q610.131 1522.64 610.585 1522.01 Q611.027 1521.38 611.567 1520.84 Q614.636 1517.77 618.111 1517.66 Q621.585 1517.55 624.457 1520.42 Q627.416 1523.38 627.219 1526.86 Q627.011 1530.34 623.659 1533.69 Q622.505 1534.84 621.106 1535.85 Q619.719 1536.84 618.049 1537.73 L615.557 1535.24 Q617.264 1534.73 618.737 1533.85 Q620.21 1532.96 621.523 1531.65 Q623.647 1529.53 623.77 1527.17 Q623.893 1524.81 621.978 1522.9 Q620.062 1520.98 617.705 1521.11 Q615.348 1521.23 613.225 1523.35 Q612.23 1524.35 611.457 1525.56 Q610.696 1526.76 610.131 1528.26 L600.924 1519.06 Z" fill="#000000" fill-rule="nonzero" fill-opacity="1" /><path clip-path="url(#clip780)" d="M625.869 1498.43 L629.392 1514.48 L635.653 1508.22 L625.869 1498.43 M623.058 1496.92 L626.176 1493.8 L638.121 1505.75 L640.735 1503.13 L642.798 1505.2 L640.183 1507.81 L644.504 1512.13 L642.037 1514.6 L637.716 1510.28 L629.441 1518.55 L627.048 1516.16 L623.058 1496.92 Z" fill="#000000" fill-rule="nonzero" fill-opacity="1" /><path clip-path="url(#clip780)" d="M756.452 1539.22 Q754.537 1541.14 755.458 1544 Q756.378 1546.84 760.16 1550.62 Q763.928 1554.39 766.776 1555.32 Q769.624 1556.23 771.539 1554.31 Q773.467 1552.38 772.546 1549.55 Q771.625 1546.69 767.857 1542.92 Q764.076 1539.14 761.228 1538.23 Q758.379 1537.3 756.452 1539.22 M754.488 1537.26 Q757.569 1534.18 761.633 1535 Q765.696 1535.8 770.336 1540.44 Q774.965 1545.07 775.775 1549.14 Q776.585 1553.19 773.504 1556.28 Q770.422 1559.36 766.359 1558.56 Q762.296 1557.74 757.667 1553.11 Q753.027 1548.47 752.217 1544.42 Q751.407 1540.34 754.488 1537.26 Z" fill="#000000" fill-rule="nonzero" fill-opacity="1" /><path clip-path="url(#clip780)" d="M780.722 1542.11 L783.312 1539.52 L786.43 1542.64 L783.84 1545.23 L780.722 1542.11 Z" fill="#000000" fill-rule="nonzero" fill-opacity="1" /><path clip-path="url(#clip780)" d="M773.528 1518.88 L783.263 1509.15 L785.35 1511.24 L777.886 1518.7 L782.379 1523.19 Q782.735 1522.47 783.189 1521.84 Q783.631 1521.2 784.172 1520.66 Q787.241 1517.59 790.715 1517.48 Q794.189 1517.37 797.061 1520.25 Q800.02 1523.2 799.824 1526.69 Q799.615 1530.17 796.264 1533.52 Q795.11 1534.67 793.71 1535.68 Q792.323 1536.67 790.653 1537.56 L788.161 1535.06 Q789.868 1534.56 791.341 1533.68 Q792.814 1532.79 794.127 1531.48 Q796.251 1529.35 796.374 1527 Q796.497 1524.64 794.582 1522.73 Q792.667 1520.81 790.31 1520.93 Q787.953 1521.06 785.829 1523.18 Q784.834 1524.17 784.061 1525.39 Q783.3 1526.59 782.735 1528.09 L773.528 1518.88 Z" fill="#000000" fill-rule="nonzero" fill-opacity="1" /><path clip-path="url(#clip780)" d="M803.285 1505.48 Q801.616 1507.15 801.775 1509.27 Q801.947 1511.38 803.936 1513.37 Q805.913 1515.35 808.036 1515.53 Q810.16 1515.69 811.83 1514.02 Q813.499 1512.35 813.327 1510.24 Q813.155 1508.1 811.179 1506.13 Q809.19 1504.14 807.066 1503.98 Q804.955 1503.81 803.285 1505.48 M800.437 1492.78 L802.696 1495.04 Q801.321 1495.53 800.13 1496.26 Q798.952 1496.97 798.019 1497.9 Q795.564 1500.36 795.92 1503.32 Q796.288 1506.26 799.455 1509.8 Q799.112 1508.01 799.639 1506.35 Q800.155 1504.68 801.469 1503.37 Q804.231 1500.6 807.508 1500.69 Q810.786 1500.75 813.671 1503.64 Q816.495 1506.46 816.531 1509.84 Q816.568 1513.21 813.794 1515.99 Q810.614 1519.17 806.502 1518.42 Q802.377 1517.66 797.749 1513.03 Q793.403 1508.68 792.888 1504.04 Q792.36 1499.39 795.834 1495.91 Q796.767 1494.98 797.896 1494.22 Q799.038 1493.45 800.437 1492.78 Z" fill="#000000" fill-rule="nonzero" fill-opacity="1" /><path clip-path="url(#clip780)" d="M929.019 1539.09 Q927.104 1541 928.025 1543.87 Q928.946 1546.7 932.727 1550.48 Q936.496 1554.25 939.344 1555.18 Q942.192 1556.09 944.107 1554.18 Q946.034 1552.25 945.113 1549.41 Q944.193 1546.55 940.424 1542.78 Q936.643 1539 933.795 1538.1 Q930.947 1537.16 929.019 1539.09 M927.055 1537.13 Q930.137 1534.04 934.2 1534.87 Q938.263 1535.66 942.904 1540.31 Q947.532 1544.93 948.342 1549.01 Q949.152 1553.06 946.071 1556.14 Q942.99 1559.22 938.926 1558.42 Q934.863 1557.6 930.235 1552.97 Q925.594 1548.33 924.784 1544.28 Q923.974 1540.21 927.055 1537.13 Z" fill="#000000" fill-rule="nonzero" fill-opacity="1" /><path clip-path="url(#clip780)" d="M953.289 1541.97 L955.88 1539.38 L958.998 1542.5 L956.407 1545.09 L953.289 1541.97 Z" fill="#000000" fill-rule="nonzero" fill-opacity="1" /><path clip-path="url(#clip780)" d="M946.096 1518.75 L955.83 1509.01 L957.917 1511.1 L950.454 1518.56 L954.947 1523.06 Q955.303 1522.33 955.757 1521.71 Q956.199 1521.07 956.739 1520.53 Q959.808 1517.46 963.282 1517.35 Q966.756 1517.24 969.629 1520.11 Q972.587 1523.07 972.391 1526.56 Q972.182 1530.03 968.831 1533.38 Q967.677 1534.54 966.277 1535.54 Q964.89 1536.54 963.221 1537.42 L960.729 1534.93 Q962.435 1534.42 963.908 1533.54 Q965.381 1532.66 966.695 1531.34 Q968.819 1529.22 968.941 1526.86 Q969.064 1524.51 967.149 1522.59 Q965.234 1520.68 962.877 1520.8 Q960.52 1520.92 958.396 1523.04 Q957.402 1524.04 956.628 1525.25 Q955.867 1526.46 955.303 1527.96 L946.096 1518.75 Z" fill="#000000" fill-rule="nonzero" fill-opacity="1" /><path clip-path="url(#clip780)" d="M976.994 1507.1 Q975.227 1508.87 975.153 1510.83 Q975.092 1512.78 976.749 1514.44 Q978.406 1516.1 980.358 1516.04 Q982.322 1515.96 984.09 1514.19 Q985.858 1512.43 985.931 1510.46 Q985.993 1508.49 984.348 1506.84 Q982.691 1505.18 980.726 1505.26 Q978.774 1505.32 976.994 1507.1 M973.459 1508.52 Q971.47 1509.73 969.481 1509.53 Q967.505 1509.32 965.934 1507.75 Q963.736 1505.55 964.019 1502.72 Q964.313 1499.87 967.039 1497.14 Q969.776 1494.4 972.612 1494.12 Q975.448 1493.84 977.645 1496.04 Q979.216 1497.61 979.413 1499.6 Q979.622 1501.57 978.431 1503.55 Q980.64 1502.18 982.85 1502.4 Q985.072 1502.61 986.828 1504.36 Q989.492 1507.02 989.283 1510.08 Q989.086 1513.13 986.054 1516.16 Q983.022 1519.19 979.965 1519.4 Q976.921 1519.6 974.257 1516.93 Q972.501 1515.18 972.293 1512.95 Q972.084 1510.73 973.459 1508.52 M968.634 1505.51 Q970.058 1506.94 971.74 1506.85 Q973.434 1506.75 975.043 1505.15 Q976.638 1503.55 976.737 1501.86 Q976.847 1500.15 975.423 1498.73 Q973.999 1497.3 972.293 1497.41 Q970.599 1497.51 969.003 1499.11 Q967.395 1500.71 967.296 1502.41 Q967.21 1504.09 968.634 1505.51 Z" fill="#000000" fill-rule="nonzero" fill-opacity="1" /><polyline clip-path="url(#clip780)" style="stroke:#000000; stroke-linecap:round; stroke-linejoin:round; stroke-width:4; stroke-opacity:1; fill:none" points="161.818,1467.41 161.818,897.552 "/>
<polyline clip-path="url(#clip780)" style="stroke:#000000; stroke-linecap:round; stroke-linejoin:round; stroke-width:4; stroke-opacity:1; fill:none" points="161.818,1451.28 180.716,1451.28 "/>
<polyline clip-path="url(#clip780)" style="stroke:#000000; stroke-linecap:round; stroke-linejoin:round; stroke-width:4; stroke-opacity:1; fill:none" points="161.818,1330.44 180.716,1330.44 "/>
<polyline clip-path="url(#clip780)" style="stroke:#000000; stroke-linecap:round; stroke-linejoin:round; stroke-width:4; stroke-opacity:1; fill:none" points="161.818,1209.59 180.716,1209.59 "/>
<polyline clip-path="url(#clip780)" style="stroke:#000000; stroke-linecap:round; stroke-linejoin:round; stroke-width:4; stroke-opacity:1; fill:none" points="161.818,1088.75 180.716,1088.75 "/>
<polyline clip-path="url(#clip780)" style="stroke:#000000; stroke-linecap:round; stroke-linejoin:round; stroke-width:4; stroke-opacity:1; fill:none" points="161.818,967.905 180.716,967.905 "/>
<path clip-path="url(#clip780)" d="M60.315 1440.63 Q57.6067 1440.63 56.2352 1443.3 Q54.881 1445.96 54.881 1451.3 Q54.881 1456.63 56.2352 1459.31 Q57.6067 1461.96 60.315 1461.96 Q63.0407 1461.96 64.3948 1459.31 Q65.7664 1456.63 65.7664 1451.3 Q65.7664 1445.96 64.3948 1443.3 Q63.0407 1440.63 60.315 1440.63 M60.315 1437.85 Q64.6726 1437.85 66.9643 1441.3 Q69.2733 1444.74 69.2733 1451.3 Q69.2733 1457.85 66.9643 1461.3 Q64.6726 1464.74 60.315 1464.74 Q55.9574 1464.74 53.6484 1461.3 Q51.3567 1457.85 51.3567 1451.3 Q51.3567 1444.74 53.6484 1441.3 Q55.9574 1437.85 60.315 1437.85 Z" fill="#000000" fill-rule="nonzero" fill-opacity="1" /><path clip-path="url(#clip780)" d="M75.4364 1459.83 L79.0996 1459.83 L79.0996 1464.24 L75.4364 1464.24 L75.4364 1459.83 Z" fill="#000000" fill-rule="nonzero" fill-opacity="1" /><path clip-path="url(#clip780)" d="M94.2384 1440.63 Q91.5301 1440.63 90.1586 1443.3 Q88.8044 1445.96 88.8044 1451.3 Q88.8044 1456.63 90.1586 1459.31 Q91.5301 1461.96 94.2384 1461.96 Q96.9641 1461.96 98.3183 1459.31 Q99.6898 1456.63 99.6898 1451.3 Q99.6898 1445.96 98.3183 1443.3 Q96.9641 1440.63 94.2384 1440.63 M94.2384 1437.85 Q98.596 1437.85 100.888 1441.3 Q103.197 1444.74 103.197 1451.3 Q103.197 1457.85 100.888 1461.3 Q98.596 1464.74 94.2384 1464.74 Q89.8808 1464.74 87.5718 1461.3 Q85.2801 1457.85 85.2801 1451.3 Q85.2801 1444.74 87.5718 1441.3 Q89.8808 1437.85 94.2384 1437.85 Z" fill="#000000" fill-rule="nonzero" fill-opacity="1" /><path clip-path="url(#clip780)" d="M116.86 1440.63 Q114.152 1440.63 112.78 1443.3 Q111.426 1445.96 111.426 1451.3 Q111.426 1456.63 112.78 1459.31 Q114.152 1461.96 116.86 1461.96 Q119.586 1461.96 120.94 1459.31 Q122.311 1456.63 122.311 1451.3 Q122.311 1445.96 120.94 1443.3 Q119.586 1440.63 116.86 1440.63 M116.86 1437.85 Q121.217 1437.85 123.509 1441.3 Q125.818 1444.74 125.818 1451.3 Q125.818 1457.85 123.509 1461.3 Q121.217 1464.74 116.86 1464.74 Q112.502 1464.74 110.193 1461.3 Q107.902 1457.85 107.902 1451.3 Q107.902 1444.74 110.193 1441.3 Q112.502 1437.85 116.86 1437.85 Z" fill="#000000" fill-rule="nonzero" fill-opacity="1" /><path clip-path="url(#clip780)" d="M61.2351 1319.78 Q58.5268 1319.78 57.1553 1322.46 Q55.8011 1325.11 55.8011 1330.46 Q55.8011 1335.79 57.1553 1338.46 Q58.5268 1341.12 61.2351 1341.12 Q63.9608 1341.12 65.315 1338.46 Q66.6865 1335.79 66.6865 1330.46 Q66.6865 1325.11 65.315 1322.46 Q63.9608 1319.78 61.2351 1319.78 M61.2351 1317.01 Q65.5927 1317.01 67.8844 1320.46 Q70.1934 1323.9 70.1934 1330.46 Q70.1934 1337.01 67.8844 1340.46 Q65.5927 1343.9 61.2351 1343.9 Q56.8775 1343.9 54.5685 1340.46 Q52.2768 1337.01 52.2768 1330.46 Q52.2768 1323.9 54.5685 1320.46 Q56.8775 1317.01 61.2351 1317.01 Z" fill="#000000" fill-rule="nonzero" fill-opacity="1" /><path clip-path="url(#clip780)" d="M76.3566 1338.99 L80.0197 1338.99 L80.0197 1343.4 L76.3566 1343.4 L76.3566 1338.99 Z" fill="#000000" fill-rule="nonzero" fill-opacity="1" /><path clip-path="url(#clip780)" d="M95.1586 1319.78 Q92.4502 1319.78 91.0787 1322.46 Q89.7246 1325.11 89.7246 1330.46 Q89.7246 1335.79 91.0787 1338.46 Q92.4502 1341.12 95.1586 1341.12 Q97.8842 1341.12 99.2384 1338.46 Q100.61 1335.79 100.61 1330.46 Q100.61 1325.11 99.2384 1322.46 Q97.8842 1319.78 95.1586 1319.78 M95.1586 1317.01 Q99.5162 1317.01 101.808 1320.46 Q104.117 1323.9 104.117 1330.46 Q104.117 1337.01 101.808 1340.46 Q99.5162 1343.9 95.1586 1343.9 Q90.8009 1343.9 88.4919 1340.46 Q86.2003 1337.01 86.2003 1330.46 Q86.2003 1323.9 88.4919 1320.46 Q90.8009 1317.01 95.1586 1317.01 Z" fill="#000000" fill-rule="nonzero" fill-opacity="1" /><path clip-path="url(#clip780)" d="M110.888 1340.44 L116.617 1340.44 L116.617 1320.67 L110.384 1321.92 L110.384 1318.73 L116.582 1317.48 L120.089 1317.48 L120.089 1340.44 L125.818 1340.44 L125.818 1343.4 L110.888 1343.4 L110.888 1340.44 Z" fill="#000000" fill-rule="nonzero" fill-opacity="1" /><path clip-path="url(#clip780)" d="M61.5129 1198.94 Q58.8046 1198.94 57.4331 1201.61 Q56.0789 1204.27 56.0789 1209.62 Q56.0789 1214.95 57.4331 1217.62 Q58.8046 1220.28 61.5129 1220.28 Q64.2386 1220.28 65.5927 1217.62 Q66.9643 1214.95 66.9643 1209.62 Q66.9643 1204.27 65.5927 1201.61 Q64.2386 1198.94 61.5129 1198.94 M61.5129 1196.16 Q65.8705 1196.16 68.1622 1199.62 Q70.4712 1203.06 70.4712 1209.62 Q70.4712 1216.16 68.1622 1219.62 Q65.8705 1223.06 61.5129 1223.06 Q57.1553 1223.06 54.8463 1219.62 Q52.5546 1216.16 52.5546 1209.62 Q52.5546 1203.06 54.8463 1199.62 Q57.1553 1196.16 61.5129 1196.16 Z" fill="#000000" fill-rule="nonzero" fill-opacity="1" /><path clip-path="url(#clip780)" d="M76.6343 1218.14 L80.2975 1218.14 L80.2975 1222.55 L76.6343 1222.55 L76.6343 1218.14 Z" fill="#000000" fill-rule="nonzero" fill-opacity="1" /><path clip-path="url(#clip780)" d="M95.4363 1198.94 Q92.728 1198.94 91.3565 1201.61 Q90.0023 1204.27 90.0023 1209.62 Q90.0023 1214.95 91.3565 1217.62 Q92.728 1220.28 95.4363 1220.28 Q98.162 1220.28 99.5162 1217.62 Q100.888 1214.95 100.888 1209.62 Q100.888 1204.27 99.5162 1201.61 Q98.162 1198.94 95.4363 1198.94 M95.4363 1196.16 Q99.7939 1196.16 102.086 1199.62 Q104.395 1203.06 104.395 1209.62 Q104.395 1216.16 102.086 1219.62 Q99.7939 1223.06 95.4363 1223.06 Q91.0787 1223.06 88.7697 1219.62 Q86.478 1216.16 86.478 1209.62 Q86.478 1203.06 88.7697 1199.62 Q91.0787 1196.16 95.4363 1196.16 Z" fill="#000000" fill-rule="nonzero" fill-opacity="1" /><path clip-path="url(#clip780)" d="M113.579 1219.6 L125.818 1219.6 L125.818 1222.55 L109.36 1222.55 L109.36 1219.6 Q111.356 1217.53 114.794 1214.06 Q118.249 1210.57 119.134 1209.57 Q120.818 1207.67 121.478 1206.37 Q122.155 1205.05 122.155 1203.78 Q122.155 1201.72 120.697 1200.42 Q119.256 1199.11 116.929 1199.11 Q115.28 1199.11 113.44 1199.69 Q111.617 1200.26 109.533 1201.42 L109.533 1197.88 Q111.652 1197.03 113.492 1196.6 Q115.332 1196.16 116.86 1196.16 Q120.888 1196.16 123.283 1198.18 Q125.679 1200.19 125.679 1203.56 Q125.679 1205.16 125.072 1206.6 Q124.481 1208.02 122.901 1209.96 Q122.467 1210.47 120.141 1212.88 Q117.815 1215.28 113.579 1219.6 Z" fill="#000000" fill-rule="nonzero" fill-opacity="1" /><path clip-path="url(#clip780)" d="M60.8011 1078.1 Q58.0928 1078.1 56.7213 1080.77 Q55.3671 1083.43 55.3671 1088.77 Q55.3671 1094.1 56.7213 1096.78 Q58.0928 1099.43 60.8011 1099.43 Q63.5268 1099.43 64.8809 1096.78 Q66.2525 1094.1 66.2525 1088.77 Q66.2525 1083.43 64.8809 1080.77 Q63.5268 1078.1 60.8011 1078.1 M60.8011 1075.32 Q65.1587 1075.32 67.4504 1078.77 Q69.7594 1082.21 69.7594 1088.77 Q69.7594 1095.32 67.4504 1098.77 Q65.1587 1102.21 60.8011 1102.21 Q56.4435 1102.21 54.1345 1098.77 Q51.8428 1095.32 51.8428 1088.77 Q51.8428 1082.21 54.1345 1078.77 Q56.4435 1075.32 60.8011 1075.32 Z" fill="#000000" fill-rule="nonzero" fill-opacity="1" /><path clip-path="url(#clip780)" d="M75.9225 1097.3 L79.5857 1097.3 L79.5857 1101.71 L75.9225 1101.71 L75.9225 1097.3 Z" fill="#000000" fill-rule="nonzero" fill-opacity="1" /><path clip-path="url(#clip780)" d="M94.7245 1078.1 Q92.0162 1078.1 90.6447 1080.77 Q89.2905 1083.43 89.2905 1088.77 Q89.2905 1094.1 90.6447 1096.78 Q92.0162 1099.43 94.7245 1099.43 Q97.4502 1099.43 98.8044 1096.78 Q100.176 1094.1 100.176 1088.77 Q100.176 1083.43 98.8044 1080.77 Q97.4502 1078.1 94.7245 1078.1 M94.7245 1075.32 Q99.0821 1075.32 101.374 1078.77 Q103.683 1082.21 103.683 1088.77 Q103.683 1095.32 101.374 1098.77 Q99.0821 1102.21 94.7245 1102.21 Q90.3669 1102.21 88.0579 1098.77 Q85.7662 1095.32 85.7662 1088.77 Q85.7662 1082.21 88.0579 1078.77 Q90.3669 1075.32 94.7245 1075.32 Z" fill="#000000" fill-rule="nonzero" fill-opacity="1" /><path clip-path="url(#clip780)" d="M120.471 1087.73 Q122.988 1088.27 124.395 1089.97 Q125.818 1091.67 125.818 1094.17 Q125.818 1098.01 123.179 1100.11 Q120.54 1102.21 115.679 1102.21 Q114.047 1102.21 112.311 1101.88 Q110.593 1101.57 108.752 1100.93 L108.752 1097.54 Q110.211 1098.39 111.947 1098.83 Q113.683 1099.26 115.575 1099.26 Q118.874 1099.26 120.592 1097.96 Q122.329 1096.66 122.329 1094.17 Q122.329 1091.88 120.714 1090.6 Q119.117 1089.3 116.252 1089.3 L113.231 1089.3 L113.231 1086.41 L116.391 1086.41 Q118.978 1086.41 120.349 1085.39 Q121.721 1084.35 121.721 1082.4 Q121.721 1080.41 120.297 1079.35 Q118.891 1078.27 116.252 1078.27 Q114.811 1078.27 113.162 1078.58 Q111.513 1078.9 109.533 1079.56 L109.533 1076.43 Q111.53 1075.87 113.266 1075.6 Q115.02 1075.32 116.565 1075.32 Q120.558 1075.32 122.884 1077.14 Q125.21 1078.95 125.21 1082.04 Q125.21 1084.19 123.978 1085.68 Q122.745 1087.16 120.471 1087.73 Z" fill="#000000" fill-rule="nonzero" fill-opacity="1" /><path clip-path="url(#clip780)" d="M59.9504 957.254 Q57.2421 957.254 55.8706 959.927 Q54.5164 962.584 54.5164 967.931 Q54.5164 973.261 55.8706 975.934 Q57.2421 978.59 59.9504 978.59 Q62.6761 978.59 64.0303 975.934 Q65.4018 973.261 65.4018 967.931 Q65.4018 962.584 64.0303 959.927 Q62.6761 957.254 59.9504 957.254 M59.9504 954.476 Q64.308 954.476 66.5997 957.931 Q68.9087 961.368 68.9087 967.931 Q68.9087 974.476 66.5997 977.931 Q64.308 981.368 59.9504 981.368 Q55.5928 981.368 53.2838 977.931 Q50.9921 974.476 50.9921 967.931 Q50.9921 961.368 53.2838 957.931 Q55.5928 954.476 59.9504 954.476 Z" fill="#000000" fill-rule="nonzero" fill-opacity="1" /><path clip-path="url(#clip780)" d="M75.0719 976.455 L78.735 976.455 L78.735 980.865 L75.0719 980.865 L75.0719 976.455 Z" fill="#000000" fill-rule="nonzero" fill-opacity="1" /><path clip-path="url(#clip780)" d="M93.8738 957.254 Q91.1655 957.254 89.794 959.927 Q88.4398 962.584 88.4398 967.931 Q88.4398 973.261 89.794 975.934 Q91.1655 978.59 93.8738 978.59 Q96.5995 978.59 97.9537 975.934 Q99.3252 973.261 99.3252 967.931 Q99.3252 962.584 97.9537 959.927 Q96.5995 957.254 93.8738 957.254 M93.8738 954.476 Q98.2315 954.476 100.523 957.931 Q102.832 961.368 102.832 967.931 Q102.832 974.476 100.523 977.931 Q98.2315 981.368 93.8738 981.368 Q89.5162 981.368 87.2072 977.931 Q84.9156 974.476 84.9156 967.931 Q84.9156 961.368 87.2072 957.931 Q89.5162 954.476 93.8738 954.476 Z" fill="#000000" fill-rule="nonzero" fill-opacity="1" /><path clip-path="url(#clip780)" d="M118.631 958 L109.777 971.837 L118.631 971.837 L118.631 958 M117.711 954.945 L122.12 954.945 L122.12 971.837 L125.818 971.837 L125.818 974.754 L122.12 974.754 L122.12 980.865 L118.631 980.865 L118.631 974.754 L106.929 974.754 L106.929 971.368 L117.711 954.945 Z" fill="#000000" fill-rule="nonzero" fill-opacity="1" /><path clip-path="url(#clip780)" d="M173.716 818.926 Q170.198 818.926 168.3 821.472 Q166.309 824.134 166.309 828.532 Q166.309 833.185 168.276 835.87 Q170.267 838.532 173.716 838.532 Q177.119 838.532 179.11 835.847 Q181.1 833.162 181.1 828.532 Q181.1 824.296 179.11 821.472 Q177.281 818.926 173.716 818.926 M173.716 815.546 L187.86 815.546 L187.86 819.805 L183.091 819.805 Q185.614 823.417 185.614 828.532 Q185.614 834.898 182.443 838.509 Q179.272 842.143 173.716 842.143 Q168.138 842.143 164.989 838.509 Q161.818 834.898 161.818 828.532 Q161.818 822.12 164.989 818.532 Q167.605 815.546 173.716 815.546 Z" fill="#000000" fill-rule="nonzero" fill-opacity="1" /><path clip-path="url(#clip780)" d="M198.878 841.472 L190.961 815.546 L195.545 815.546 L202.235 837.305 Q205.012 834.435 207.327 830.454 Q209.086 827.467 209.179 824.875 Q209.225 823.648 208.67 821.333 Q208.022 818.579 205.568 815.546 L209.873 815.546 L209.873 815.546 Q211.471 817.606 212.535 820.477 Q213.508 823.116 213.508 824.921 Q213.508 829.458 210.36 833.509 Q206.262 838.787 203.415 841.472 L198.878 841.472 Z" fill="#000000" fill-rule="nonzero" fill-opacity="1" /><polyline clip-path="url(#clip784)" style="stroke:#009af9; stroke-linecap:round; stroke-linejoin:round; stroke-width:4; stroke-opacity:1; fill:none" points="189.869,964.967 248.307,1022.95 306.746,1081.74 365.185,1141.32 423.623,1201.71 482.062,1262.9 540.501,1324.89 598.939,1387.68 657.378,1451.28 715.817,1386.88 774.256,1321.69 832.694,1255.69 891.133,1188.89 949.572,1121.29 1008.01,1052.89 1066.45,983.685 1124.89,913.68 "/>
<circle clip-path="url(#clip784)" cx="657.378" cy="1451.28" r="10.8" fill="#ff0000" fill-rule="evenodd" fill-opacity="1" stroke="#000000" stroke-opacity="1" stroke-width="3.2"/>
</svg>
