<?xml version="1.0" encoding="utf-8"?>
<svg xmlns="http://www.w3.org/2000/svg" xmlns:xlink="http://www.w3.org/1999/xlink" width="600" height="400" viewBox="0 0 2400 1600">
<defs>
  <clipPath id="clip890">
    <rect x="0" y="0" width="2400" height="1600"/>
  </clipPath>
</defs>
<path clip-path="url(#clip890)" d="M0 1600 L2400 1600 L2400 0 L0 0  Z" fill="#ffffff" fill-rule="evenodd" fill-opacity="1"/>
<defs>
  <clipPath id="clip891">
    <rect x="480" y="0" width="1681" height="1600"/>
  </clipPath>
</defs>
<path clip-path="url(#clip890)" d="M161.818 662.16 L1152.94 662.16 L1152.94 97.5521 L161.818 97.5521  Z" fill="#ffffff" fill-rule="evenodd" fill-opacity="1"/>
<defs>
  <clipPath id="clip892">
    <rect x="161" y="97" width="992" height="566"/>
  </clipPath>
</defs>
<polyline clip-path="url(#clip892)" style="stroke:#000000; stroke-linecap:round; stroke-linejoin:round; stroke-width:2; stroke-opacity:0.1; fill:none" points="180.027,662.16 180.027,97.5521 "/>
<polyline clip-path="url(#clip892)" style="stroke:#000000; stroke-linecap:round; stroke-linejoin:round; stroke-width:2; stroke-opacity:0.1; fill:none" points="442.386,662.16 442.386,97.5521 "/>
<polyline clip-path="url(#clip892)" style="stroke:#000000; stroke-linecap:round; stroke-linejoin:round; stroke-width:2; stroke-opacity:0.1; fill:none" points="704.745,662.16 704.745,97.5521 "/>
<polyline clip-path="url(#clip892)" style="stroke:#000000; stroke-linecap:round; stroke-linejoin:round; stroke-width:2; stroke-opacity:0.1; fill:none" points="967.104,662.16 967.104,97.5521 "/>
<polyline clip-path="url(#clip892)" style="stroke:#000000; stroke-linecap:round; stroke-linejoin:round; stroke-width:2; stroke-opacity:0.1; fill:none" points="161.818,646.181 1152.94,646.181 "/>
<polyline clip-path="url(#clip892)" style="stroke:#000000; stroke-linecap:round; stroke-linejoin:round; stroke-width:2; stroke-opacity:0.1; fill:none" points="161.818,524.56 1152.94,524.56 "/>
<polyline clip-path="url(#clip892)" style="stroke:#000000; stroke-linecap:round; stroke-linejoin:round; stroke-width:2; stroke-opacity:0.1; fill:none" points="161.818,402.938 1152.94,402.938 "/>
<polyline clip-path="url(#clip892)" style="stroke:#000000; stroke-linecap:round; stroke-linejoin:round; stroke-width:2; stroke-opacity:0.1; fill:none" points="161.818,281.317 1152.94,281.317 "/>
<polyline clip-path="url(#clip892)" style="stroke:#000000; stroke-linecap:round; stroke-linejoin:round; stroke-width:2; stroke-opacity:0.1; fill:none" points="161.818,159.696 1152.94,159.696 "/>
<polyline clip-path="url(#clip890)" style="stroke:#000000; stroke-linecap:round; stroke-linejoin:round; stroke-width:4; stroke-opacity:1; fill:none" points="161.818,662.16 1152.94,662.16 "/>
<polyline clip-path="url(#clip890)" style="stroke:#000000; stroke-linecap:round; stroke-linejoin:round; stroke-width:4; stroke-opacity:1; fill:none" points="180.027,662.16 180.027,643.263 "/>
<polyline clip-path="url(#clip890)" style="stroke:#000000; stroke-linecap:round; stroke-linejoin:round; stroke-width:4; stroke-opacity:1; fill:none" points="442.386,662.16 442.386,643.263 "/>
<polyline clip-path="url(#clip890)" style="stroke:#000000; stroke-linecap:round; stroke-linejoin:round; stroke-width:4; stroke-opacity:1; fill:none" points="704.745,662.16 704.745,643.263 "/>
<polyline clip-path="url(#clip890)" style="stroke:#000000; stroke-linecap:round; stroke-linejoin:round; stroke-width:4; stroke-opacity:1; fill:none" points="967.104,662.16 967.104,643.263 "/>
<path clip-path="url(#clip890)" d="M126.178 733.893 Q124.263 735.808 125.184 738.668 Q126.105 741.504 129.886 745.285 Q133.654 749.054 136.502 749.987 Q139.35 750.895 141.265 748.98 Q143.193 747.053 142.272 744.217 Q141.351 741.357 137.583 737.588 Q133.802 733.807 130.954 732.898 Q128.106 731.966 126.178 733.893 M124.214 731.929 Q127.295 728.847 131.359 729.67 Q135.422 730.468 140.062 735.108 Q144.691 739.736 145.501 743.812 Q146.311 747.863 143.23 750.944 Q140.148 754.026 136.085 753.228 Q132.022 752.405 127.394 747.777 Q122.753 743.137 121.943 739.086 Q121.133 735.01 124.214 731.929 Z" fill="#000000" fill-rule="nonzero" fill-opacity="1" /><path clip-path="url(#clip890)" d="M150.448 736.778 L153.038 734.187 L156.156 737.306 L153.566 739.896 L150.448 736.778 Z" fill="#000000" fill-rule="nonzero" fill-opacity="1" /><path clip-path="url(#clip890)" d="M158.157 717.897 Q156.39 719.665 156.316 721.629 Q156.255 723.581 157.912 725.238 Q159.569 726.895 161.521 726.834 Q163.485 726.76 165.253 724.993 Q167.021 723.225 167.094 721.261 Q167.156 719.284 165.511 717.639 Q163.853 715.982 161.889 716.056 Q159.937 716.117 158.157 717.897 M154.622 719.321 Q152.633 720.524 150.644 720.328 Q148.668 720.119 147.097 718.548 Q144.899 716.35 145.182 713.515 Q145.476 710.666 148.201 707.941 Q150.939 705.204 153.775 704.921 Q156.611 704.639 158.808 706.836 Q160.379 708.408 160.576 710.396 Q160.784 712.373 159.594 714.349 Q161.803 712.974 164.013 713.195 Q166.235 713.404 167.991 715.16 Q170.654 717.823 170.446 720.88 Q170.249 723.925 167.217 726.957 Q164.185 729.989 161.128 730.198 Q158.084 730.394 155.42 727.73 Q153.664 725.975 153.456 723.753 Q153.247 721.531 154.622 719.321 M149.797 716.313 Q151.221 717.738 152.903 717.652 Q154.597 717.553 156.205 715.945 Q157.801 714.349 157.9 712.655 Q158.01 710.949 156.586 709.525 Q155.162 708.101 153.456 708.211 Q151.762 708.309 150.166 709.905 Q148.557 711.514 148.459 713.208 Q148.373 714.889 149.797 716.313 Z" fill="#000000" fill-rule="nonzero" fill-opacity="1" /><path clip-path="url(#clip890)" d="M166.161 693.91 Q164.246 695.825 165.167 698.685 Q166.088 701.521 169.869 705.302 Q173.638 709.071 176.486 710.004 Q179.334 710.912 181.249 708.997 Q183.176 707.07 182.255 704.234 Q181.335 701.373 177.566 697.605 Q173.785 693.824 170.937 692.915 Q168.089 691.982 166.161 693.91 M164.197 691.945 Q167.279 688.864 171.342 689.687 Q175.405 690.485 180.046 695.125 Q184.674 699.753 185.484 703.829 Q186.294 707.88 183.213 710.961 Q180.132 714.042 176.068 713.244 Q172.005 712.422 167.377 707.794 Q162.736 703.154 161.926 699.102 Q161.116 695.027 164.197 691.945 Z" fill="#000000" fill-rule="nonzero" fill-opacity="1" /><path clip-path="url(#clip890)" d="M389.065 733.365 Q387.15 735.28 388.071 738.14 Q388.991 740.976 392.772 744.757 Q396.541 748.526 399.389 749.459 Q402.237 750.367 404.152 748.452 Q406.08 746.525 405.159 743.689 Q404.238 740.829 400.47 737.06 Q396.688 733.279 393.84 732.371 Q390.992 731.438 389.065 733.365 M387.101 731.401 Q390.182 728.32 394.246 729.142 Q398.309 729.94 402.949 734.58 Q407.577 739.208 408.388 743.284 Q409.198 747.335 406.117 750.416 Q403.035 753.498 398.972 752.7 Q394.908 751.877 390.28 747.249 Q385.64 742.609 384.83 738.558 Q384.02 734.482 387.101 731.401 Z" fill="#000000" fill-rule="nonzero" fill-opacity="1" /><path clip-path="url(#clip890)" d="M413.335 736.25 L415.925 733.66 L419.043 736.778 L416.453 739.368 L413.335 736.25 Z" fill="#000000" fill-rule="nonzero" fill-opacity="1" /><path clip-path="url(#clip890)" d="M421.044 717.369 Q419.276 719.137 419.203 721.101 Q419.141 723.053 420.799 724.71 Q422.456 726.368 424.408 726.306 Q426.372 726.233 428.14 724.465 Q429.908 722.697 429.981 720.733 Q430.043 718.756 428.398 717.111 Q426.74 715.454 424.776 715.528 Q422.824 715.589 421.044 717.369 M417.509 718.793 Q415.52 719.996 413.531 719.8 Q411.555 719.591 409.983 718.02 Q407.786 715.822 408.068 712.987 Q408.363 710.139 411.088 707.413 Q413.826 704.676 416.662 704.393 Q419.497 704.111 421.695 706.308 Q423.266 707.88 423.463 709.869 Q423.671 711.845 422.481 713.821 Q424.69 712.447 426.9 712.667 Q429.122 712.876 430.877 714.632 Q433.541 717.296 433.333 720.352 Q433.136 723.397 430.104 726.429 Q427.072 729.461 424.015 729.67 Q420.971 729.866 418.307 727.202 Q416.551 725.447 416.343 723.225 Q416.134 721.003 417.509 718.793 M412.684 715.786 Q414.108 717.21 415.79 717.124 Q417.484 717.025 419.092 715.417 Q420.688 713.821 420.786 712.127 Q420.897 710.421 419.473 708.997 Q418.049 707.573 416.343 707.683 Q414.648 707.782 413.053 709.377 Q411.444 710.986 411.346 712.68 Q411.26 714.362 412.684 715.786 Z" fill="#000000" fill-rule="nonzero" fill-opacity="1" /><path clip-path="url(#clip890)" d="M422.137 697.028 L431.872 687.293 L433.959 689.38 L426.495 696.844 L430.988 701.337 Q431.344 700.612 431.798 699.986 Q432.24 699.348 432.78 698.808 Q435.849 695.739 439.323 695.628 Q442.797 695.518 445.67 698.39 Q448.629 701.349 448.432 704.835 Q448.224 708.309 444.872 711.661 Q443.718 712.815 442.319 713.821 Q440.932 714.816 439.262 715.7 L436.77 713.208 Q438.476 712.704 439.949 711.82 Q441.423 710.937 442.736 709.623 Q444.86 707.499 444.983 705.142 Q445.105 702.785 443.19 700.87 Q441.275 698.955 438.918 699.078 Q436.561 699.201 434.437 701.324 Q433.443 702.319 432.67 703.534 Q431.909 704.737 431.344 706.235 L422.137 697.028 Z" fill="#000000" fill-rule="nonzero" fill-opacity="1" /><path clip-path="url(#clip890)" d="M650.896 733.893 Q648.981 735.808 649.902 738.668 Q650.822 741.504 654.604 745.285 Q658.372 749.054 661.22 749.987 Q664.068 750.895 665.983 748.98 Q667.911 747.053 666.99 744.217 Q666.069 741.357 662.301 737.588 Q658.52 733.807 655.672 732.898 Q652.823 731.966 650.896 733.893 M648.932 731.929 Q652.013 728.847 656.077 729.67 Q660.14 730.468 664.78 735.108 Q669.408 739.736 670.219 743.812 Q671.029 747.863 667.948 750.944 Q664.866 754.026 660.803 753.228 Q656.74 752.405 652.111 747.777 Q647.471 743.137 646.661 739.086 Q645.851 735.01 648.932 731.929 Z" fill="#000000" fill-rule="nonzero" fill-opacity="1" /><path clip-path="url(#clip890)" d="M675.166 736.778 L677.756 734.187 L680.874 737.306 L678.284 739.896 L675.166 736.778 Z" fill="#000000" fill-rule="nonzero" fill-opacity="1" /><path clip-path="url(#clip890)" d="M685.969 731.45 L683.71 729.191 Q685.085 728.7 686.276 727.976 Q687.467 727.251 688.387 726.331 Q690.843 723.876 690.487 720.942 Q690.131 717.983 686.951 714.435 Q687.295 716.203 686.767 717.86 Q686.239 719.518 684.913 720.843 Q682.163 723.593 678.898 723.544 Q675.632 723.47 672.748 720.586 Q669.924 717.762 669.887 714.386 Q669.85 711.01 672.625 708.236 Q675.804 705.056 679.917 705.83 Q684.029 706.579 688.67 711.219 Q693.003 715.552 693.531 720.205 Q694.059 724.833 690.585 728.307 Q689.652 729.24 688.51 730.014 Q687.368 730.787 685.969 731.45 M683.133 718.744 Q684.803 717.075 684.631 714.963 Q684.471 712.839 682.483 710.851 Q680.506 708.874 678.382 708.715 Q676.259 708.53 674.589 710.2 Q672.919 711.87 673.091 714.006 Q673.263 716.117 675.24 718.094 Q677.228 720.082 679.34 720.254 Q681.464 720.414 683.133 718.744 Z" fill="#000000" fill-rule="nonzero" fill-opacity="1" /><path clip-path="url(#clip890)" d="M690.879 693.91 Q688.964 695.825 689.885 698.685 Q690.806 701.521 694.587 705.302 Q698.356 709.071 701.204 710.004 Q704.052 710.912 705.967 708.997 Q707.894 707.07 706.973 704.234 Q706.053 701.373 702.284 697.605 Q698.503 693.824 695.655 692.915 Q692.807 691.982 690.879 693.91 M688.915 691.945 Q691.997 688.864 696.06 689.687 Q700.123 690.485 704.764 695.125 Q709.392 699.753 710.202 703.829 Q711.012 707.88 707.931 710.961 Q704.85 714.042 700.786 713.244 Q696.723 712.422 692.095 707.794 Q687.454 703.154 686.644 699.102 Q685.834 695.027 688.915 691.945 Z" fill="#000000" fill-rule="nonzero" fill-opacity="1" /><path clip-path="url(#clip890)" d="M913.783 733.365 Q911.868 735.28 912.789 738.14 Q913.709 740.976 917.49 744.757 Q921.259 748.526 924.107 749.459 Q926.955 750.367 928.87 748.452 Q930.798 746.525 929.877 743.689 Q928.956 740.829 925.187 737.06 Q921.406 733.279 918.558 732.371 Q915.71 731.438 913.783 733.365 M911.819 731.401 Q914.9 728.32 918.964 729.142 Q923.027 729.94 927.667 734.58 Q932.295 739.208 933.106 743.284 Q933.916 747.335 930.835 750.416 Q927.753 753.498 923.69 752.7 Q919.626 751.877 914.998 747.249 Q910.358 742.609 909.548 738.558 Q908.738 734.482 911.819 731.401 Z" fill="#000000" fill-rule="nonzero" fill-opacity="1" /><path clip-path="url(#clip890)" d="M938.053 736.25 L940.643 733.66 L943.761 736.778 L941.171 739.368 L938.053 736.25 Z" fill="#000000" fill-rule="nonzero" fill-opacity="1" /><path clip-path="url(#clip890)" d="M948.856 730.922 L946.597 728.663 Q947.972 728.172 949.163 727.448 Q950.353 726.724 951.274 725.803 Q953.729 723.348 953.373 720.414 Q953.017 717.455 949.838 713.907 Q950.182 715.675 949.654 717.332 Q949.126 718.99 947.8 720.315 Q945.05 723.065 941.785 723.016 Q938.519 722.943 935.634 720.058 Q932.811 717.234 932.774 713.858 Q932.737 710.482 935.512 707.708 Q938.691 704.528 942.804 705.302 Q946.916 706.051 951.557 710.691 Q955.89 715.024 956.418 719.677 Q956.946 724.305 953.472 727.779 Q952.539 728.712 951.397 729.486 Q950.255 730.259 948.856 730.922 M946.02 718.216 Q947.69 716.547 947.518 714.435 Q947.358 712.311 945.369 710.323 Q943.393 708.346 941.269 708.187 Q939.145 708.003 937.476 709.672 Q935.806 711.342 935.978 713.478 Q936.15 715.589 938.127 717.566 Q940.115 719.554 942.227 719.726 Q944.35 719.886 946.02 718.216 Z" fill="#000000" fill-rule="nonzero" fill-opacity="1" /><path clip-path="url(#clip890)" d="M946.855 697.028 L956.59 687.293 L958.677 689.38 L951.213 696.844 L955.706 701.337 Q956.062 700.612 956.516 699.986 Q956.958 699.348 957.498 698.808 Q960.567 695.739 964.041 695.628 Q967.515 695.518 970.388 698.39 Q973.347 701.349 973.15 704.835 Q972.942 708.309 969.59 711.661 Q968.436 712.815 967.037 713.821 Q965.65 714.816 963.98 715.7 L961.488 713.208 Q963.194 712.704 964.667 711.82 Q966.141 710.937 967.454 709.623 Q969.578 707.499 969.701 705.142 Q969.823 702.785 967.908 700.87 Q965.993 698.955 963.636 699.078 Q961.279 699.201 959.155 701.324 Q958.161 702.319 957.388 703.534 Q956.627 704.737 956.062 706.235 L946.855 697.028 Z" fill="#000000" fill-rule="nonzero" fill-opacity="1" /><polyline clip-path="url(#clip890)" style="stroke:#000000; stroke-linecap:round; stroke-linejoin:round; stroke-width:4; stroke-opacity:1; fill:none" points="161.818,662.16 161.818,97.5521 "/>
<polyline clip-path="url(#clip890)" style="stroke:#000000; stroke-linecap:round; stroke-linejoin:round; stroke-width:4; stroke-opacity:1; fill:none" points="161.818,646.181 180.716,646.181 "/>
<polyline clip-path="url(#clip890)" style="stroke:#000000; stroke-linecap:round; stroke-linejoin:round; stroke-width:4; stroke-opacity:1; fill:none" points="161.818,524.56 180.716,524.56 "/>
<polyline clip-path="url(#clip890)" style="stroke:#000000; stroke-linecap:round; stroke-linejoin:round; stroke-width:4; stroke-opacity:1; fill:none" points="161.818,402.938 180.716,402.938 "/>
<polyline clip-path="url(#clip890)" style="stroke:#000000; stroke-linecap:round; stroke-linejoin:round; stroke-width:4; stroke-opacity:1; fill:none" points="161.818,281.317 180.716,281.317 "/>
<polyline clip-path="url(#clip890)" style="stroke:#000000; stroke-linecap:round; stroke-linejoin:round; stroke-width:4; stroke-opacity:1; fill:none" points="161.818,159.696 180.716,159.696 "/>
<path clip-path="url(#clip890)" d="M116.86 635.53 Q114.152 635.53 112.78 638.204 Q111.426 640.86 111.426 646.207 Q111.426 651.537 112.78 654.21 Q114.152 656.867 116.86 656.867 Q119.586 656.867 120.94 654.21 Q122.311 651.537 122.311 646.207 Q122.311 640.86 120.94 638.204 Q119.586 635.53 116.86 635.53 M116.86 632.752 Q121.217 632.752 123.509 636.207 Q125.818 639.644 125.818 646.207 Q125.818 652.752 123.509 656.207 Q121.217 659.644 116.86 659.644 Q112.502 659.644 110.193 656.207 Q107.902 652.752 107.902 646.207 Q107.902 639.644 110.193 636.207 Q112.502 632.752 116.86 632.752 Z" fill="#000000" fill-rule="nonzero" fill-opacity="1" /><path clip-path="url(#clip890)" d="M110.888 534.568 L116.617 534.568 L116.617 514.794 L110.384 516.044 L110.384 512.85 L116.582 511.6 L120.089 511.6 L120.089 534.568 L125.818 534.568 L125.818 537.52 L110.888 537.52 L110.888 534.568 Z" fill="#000000" fill-rule="nonzero" fill-opacity="1" /><path clip-path="url(#clip890)" d="M113.579 412.947 L125.818 412.947 L125.818 415.898 L109.36 415.898 L109.36 412.947 Q111.356 410.881 114.794 407.409 Q118.249 403.919 119.134 402.912 Q120.818 401.02 121.478 399.718 Q122.155 398.399 122.155 397.131 Q122.155 395.065 120.697 393.763 Q119.256 392.461 116.929 392.461 Q115.28 392.461 113.44 393.034 Q111.617 393.607 109.533 394.77 L109.533 391.228 Q111.652 390.378 113.492 389.944 Q115.332 389.51 116.86 389.51 Q120.888 389.51 123.283 391.524 Q125.679 393.537 125.679 396.905 Q125.679 398.503 125.072 399.944 Q124.481 401.367 122.901 403.312 Q122.467 403.815 120.141 406.228 Q117.815 408.624 113.579 412.947 Z" fill="#000000" fill-rule="nonzero" fill-opacity="1" /><path clip-path="url(#clip890)" d="M120.471 280.302 Q122.988 280.84 124.395 282.541 Q125.818 284.243 125.818 286.743 Q125.818 290.579 123.179 292.68 Q120.54 294.781 115.679 294.781 Q114.047 294.781 112.311 294.451 Q110.593 294.138 108.752 293.496 L108.752 290.111 Q110.211 290.961 111.947 291.395 Q113.683 291.829 115.575 291.829 Q118.874 291.829 120.592 290.527 Q122.329 289.225 122.329 286.743 Q122.329 284.451 120.714 283.166 Q119.117 281.864 116.252 281.864 L113.231 281.864 L113.231 278.982 L116.391 278.982 Q118.978 278.982 120.349 277.958 Q121.721 276.916 121.721 274.972 Q121.721 272.975 120.297 271.916 Q118.891 270.84 116.252 270.84 Q114.811 270.84 113.162 271.152 Q111.513 271.465 109.533 272.125 L109.533 269 Q111.53 268.444 113.266 268.166 Q115.02 267.888 116.565 267.888 Q120.558 267.888 122.884 269.711 Q125.21 271.517 125.21 274.607 Q125.21 276.76 123.978 278.253 Q122.745 279.729 120.471 280.302 Z" fill="#000000" fill-rule="nonzero" fill-opacity="1" /><path clip-path="url(#clip890)" d="M118.631 149.791 L109.777 163.628 L118.631 163.628 L118.631 149.791 M117.711 146.736 L122.12 146.736 L122.12 163.628 L125.818 163.628 L125.818 166.545 L122.12 166.545 L122.12 172.656 L118.631 172.656 L118.631 166.545 L106.929 166.545 L106.929 163.159 L117.711 146.736 Z" fill="#000000" fill-rule="nonzero" fill-opacity="1" /><path clip-path="url(#clip890)" d="M163.901 20.1758 Q165.313 17.8147 168.809 15.7314 Q170.175 14.9212 174.387 14.9212 Q179.11 14.9212 182.049 18.6712 Q185.012 22.4212 185.012 28.5323 Q185.012 34.6433 182.049 38.3933 Q179.11 42.1433 174.387 42.1433 Q171.54 42.1433 169.48 41.0322 Q167.443 39.8979 166.1 37.5831 L166.1 51.3331 L161.818 51.3331 L161.818 28.7637 Q161.818 23.4165 163.901 20.1758 M180.591 28.5323 Q180.591 23.8332 178.647 21.1712 Q176.725 18.486 173.346 18.486 Q169.966 18.486 168.022 21.1712 Q166.1 23.8332 166.1 28.5323 Q166.1 33.2313 168.022 35.9165 Q169.966 38.5785 173.346 38.5785 Q176.725 38.5785 178.647 35.9165 Q180.591 33.2313 180.591 28.5323 Z" fill="#000000" fill-rule="nonzero" fill-opacity="1" /><polyline clip-path="url(#clip892)" style="stroke:#009af9; stroke-linecap:round; stroke-linejoin:round; stroke-width:4; stroke-opacity:1; fill:none" points="189.869,592.416 248.307,596.328 306.746,600.736 365.185,605.743 423.623,611.479 482.062,618.115 540.501,625.879 598.939,635.087 657.378,646.181 715.817,632.557 774.256,615.43 832.694,593.251 891.133,563.406 949.572,521.103 1008.01,456.499 1066.45,345.719 1124.89,113.532 "/>
<circle clip-path="url(#clip892)" cx="657.378" cy="646.181" r="10.8" fill="#ff0000" fill-rule="evenodd" fill-opacity="1" stroke="#000000" stroke-opacity="1" stroke-width="3.2"/>
<path clip-path="url(#clip890)" d="M1361.64 662.16 L2352.76 662.16 L2352.76 97.5521 L1361.64 97.5521  Z" fill="#ffffff" fill-rule="evenodd" fill-opacity="1"/>
<defs>
  <clipPath id="clip893">
    <rect x="1361" y="97" width="992" height="566"/>
  </clipPath>
</defs>
<polyline clip-path="url(#clip893)" style="stroke:#000000; stroke-linecap:round; stroke-linejoin:round; stroke-width:2; stroke-opacity:0.1; fill:none" points="1385.11,662.16 1385.11,97.5521 "/>
<polyline clip-path="url(#clip893)" style="stroke:#000000; stroke-linecap:round; stroke-linejoin:round; stroke-width:2; stroke-opacity:0.1; fill:none" points="1530.04,662.16 1530.04,97.5521 "/>
<polyline clip-path="url(#clip893)" style="stroke:#000000; stroke-linecap:round; stroke-linejoin:round; stroke-width:2; stroke-opacity:0.1; fill:none" points="1674.98,662.16 1674.98,97.5521 "/>
<polyline clip-path="url(#clip893)" style="stroke:#000000; stroke-linecap:round; stroke-linejoin:round; stroke-width:2; stroke-opacity:0.1; fill:none" points="1819.91,662.16 1819.91,97.5521 "/>
<polyline clip-path="url(#clip893)" style="stroke:#000000; stroke-linecap:round; stroke-linejoin:round; stroke-width:2; stroke-opacity:0.1; fill:none" points="1964.84,662.16 1964.84,97.5521 "/>
<polyline clip-path="url(#clip893)" style="stroke:#000000; stroke-linecap:round; stroke-linejoin:round; stroke-width:2; stroke-opacity:0.1; fill:none" points="2109.77,662.16 2109.77,97.5521 "/>
<polyline clip-path="url(#clip893)" style="stroke:#000000; stroke-linecap:round; stroke-linejoin:round; stroke-width:2; stroke-opacity:0.1; fill:none" points="2254.7,662.16 2254.7,97.5521 "/>
<polyline clip-path="url(#clip893)" style="stroke:#000000; stroke-linecap:round; stroke-linejoin:round; stroke-width:2; stroke-opacity:0.1; fill:none" points="1361.64,646.181 2352.76,646.181 "/>
<polyline clip-path="url(#clip893)" style="stroke:#000000; stroke-linecap:round; stroke-linejoin:round; stroke-width:2; stroke-opacity:0.1; fill:none" points="1361.64,504.331 2352.76,504.331 "/>
<polyline clip-path="url(#clip893)" style="stroke:#000000; stroke-linecap:round; stroke-linejoin:round; stroke-width:2; stroke-opacity:0.1; fill:none" points="1361.64,362.48 2352.76,362.48 "/>
<polyline clip-path="url(#clip893)" style="stroke:#000000; stroke-linecap:round; stroke-linejoin:round; stroke-width:2; stroke-opacity:0.1; fill:none" points="1361.64,220.63 2352.76,220.63 "/>
<polyline clip-path="url(#clip890)" style="stroke:#000000; stroke-linecap:round; stroke-linejoin:round; stroke-width:4; stroke-opacity:1; fill:none" points="1361.64,662.16 2352.76,662.16 "/>
<polyline clip-path="url(#clip890)" style="stroke:#000000; stroke-linecap:round; stroke-linejoin:round; stroke-width:4; stroke-opacity:1; fill:none" points="1385.11,662.16 1385.11,643.263 "/>
<polyline clip-path="url(#clip890)" style="stroke:#000000; stroke-linecap:round; stroke-linejoin:round; stroke-width:4; stroke-opacity:1; fill:none" points="1530.04,662.16 1530.04,643.263 "/>
<polyline clip-path="url(#clip890)" style="stroke:#000000; stroke-linecap:round; stroke-linejoin:round; stroke-width:4; stroke-opacity:1; fill:none" points="1674.98,662.16 1674.98,643.263 "/>
<polyline clip-path="url(#clip890)" style="stroke:#000000; stroke-linecap:round; stroke-linejoin:round; stroke-width:4; stroke-opacity:1; fill:none" points="1819.91,662.16 1819.91,643.263 "/>
<polyline clip-path="url(#clip890)" style="stroke:#000000; stroke-linecap:round; stroke-linejoin:round; stroke-width:4; stroke-opacity:1; fill:none" points="1964.84,662.16 1964.84,643.263 "/>
<polyline clip-path="url(#clip890)" style="stroke:#000000; stroke-linecap:round; stroke-linejoin:round; stroke-width:4; stroke-opacity:1; fill:none" points="2109.77,662.16 2109.77,643.263 "/>
<polyline clip-path="url(#clip890)" style="stroke:#000000; stroke-linecap:round; stroke-linejoin:round; stroke-width:4; stroke-opacity:1; fill:none" points="2254.7,662.16 2254.7,643.263 "/>
<path clip-path="url(#clip890)" d="M1331.36 733.795 Q1329.45 735.71 1330.37 738.57 Q1331.29 741.406 1335.07 745.187 Q1338.84 748.956 1341.69 749.889 Q1344.53 750.797 1346.45 748.882 Q1348.38 746.955 1347.46 744.119 Q1346.54 741.259 1342.77 737.49 Q1338.99 733.709 1336.14 732.8 Q1333.29 731.867 1331.36 733.795 M1329.4 731.83 Q1332.48 728.749 1336.54 729.572 Q1340.61 730.37 1345.25 735.01 Q1349.87 739.638 1350.69 743.714 Q1351.5 747.765 1348.41 750.846 Q1345.33 753.927 1341.27 753.129 Q1337.21 752.307 1332.58 747.679 Q1327.94 743.039 1327.13 738.987 Q1326.32 734.912 1329.4 731.83 Z" fill="#000000" fill-rule="nonzero" fill-opacity="1" /><path clip-path="url(#clip890)" d="M1355.63 736.68 L1358.22 734.089 L1361.34 737.207 L1358.75 739.798 L1355.63 736.68 Z" fill="#000000" fill-rule="nonzero" fill-opacity="1" /><path clip-path="url(#clip890)" d="M1366.79 727.583 L1375.45 718.928 L1377.53 721.015 L1365.9 732.653 L1363.81 730.566 Q1363.76 727.693 1363.73 722.808 Q1363.71 717.897 1363.62 716.559 Q1363.48 714.03 1363.02 712.643 Q1362.57 711.231 1361.67 710.335 Q1360.21 708.874 1358.26 708.985 Q1356.32 709.083 1354.67 710.728 Q1353.51 711.894 1352.61 713.6 Q1351.73 715.295 1351.08 717.59 L1348.57 715.086 Q1349.47 712.987 1350.46 711.378 Q1351.46 709.77 1352.54 708.69 Q1355.39 705.842 1358.5 705.572 Q1361.62 705.302 1364 707.683 Q1365.13 708.813 1365.72 710.261 Q1366.31 711.685 1366.57 714.177 Q1366.62 714.84 1366.68 718.192 Q1366.73 721.531 1366.79 727.583 Z" fill="#000000" fill-rule="nonzero" fill-opacity="1" /><path clip-path="url(#clip890)" d="M1382.43 715.356 L1380.17 713.097 Q1381.55 712.606 1382.74 711.882 Q1383.93 711.158 1384.85 710.237 Q1387.3 707.782 1386.95 704.848 Q1386.59 701.889 1383.41 698.341 Q1383.76 700.109 1383.23 701.766 Q1382.7 703.424 1381.38 704.749 Q1378.63 707.499 1375.36 707.45 Q1372.09 707.376 1369.21 704.492 Q1366.39 701.668 1366.35 698.292 Q1366.31 694.916 1369.09 692.142 Q1372.27 688.962 1376.38 689.736 Q1380.49 690.485 1385.13 695.125 Q1389.47 699.458 1389.99 704.111 Q1390.52 708.739 1387.05 712.213 Q1386.11 713.146 1384.97 713.92 Q1383.83 714.693 1382.43 715.356 M1379.6 702.65 Q1381.26 700.981 1381.09 698.869 Q1380.93 696.745 1378.94 694.757 Q1376.97 692.78 1374.84 692.621 Q1372.72 692.436 1371.05 694.106 Q1369.38 695.776 1369.55 697.912 Q1369.73 700.023 1371.7 702 Q1373.69 703.988 1375.8 704.16 Q1377.93 704.32 1379.6 702.65 Z" fill="#000000" fill-rule="nonzero" fill-opacity="1" /><path clip-path="url(#clip890)" d="M1476.2 733.893 Q1474.28 735.808 1475.2 738.668 Q1476.12 741.504 1479.9 745.285 Q1483.67 749.054 1486.52 749.987 Q1489.37 750.895 1491.28 748.98 Q1493.21 747.053 1492.29 744.217 Q1491.37 741.357 1487.6 737.588 Q1483.82 733.807 1480.97 732.898 Q1478.12 731.966 1476.2 733.893 M1474.23 731.929 Q1477.31 728.847 1481.38 729.67 Q1485.44 730.468 1490.08 735.108 Q1494.71 739.736 1495.52 743.812 Q1496.33 747.863 1493.25 750.944 Q1490.17 754.026 1486.1 753.228 Q1482.04 752.405 1477.41 747.777 Q1472.77 743.137 1471.96 739.086 Q1471.15 735.01 1474.23 731.929 Z" fill="#000000" fill-rule="nonzero" fill-opacity="1" /><path clip-path="url(#clip890)" d="M1500.47 736.778 L1503.06 734.187 L1506.17 737.306 L1503.58 739.896 L1500.47 736.778 Z" fill="#000000" fill-rule="nonzero" fill-opacity="1" /><path clip-path="url(#clip890)" d="M1509.21 714.509 Q1511.37 713.109 1513.56 713.318 Q1515.77 713.515 1517.54 715.282 Q1520.25 717.995 1519.87 721.347 Q1519.49 724.698 1516.06 728.135 Q1514.9 729.289 1513.44 730.284 Q1512.01 731.278 1510.25 732.125 L1507.86 729.731 Q1509.49 729.302 1511.02 728.381 Q1512.56 727.46 1513.9 726.122 Q1516.23 723.79 1516.52 721.654 Q1516.83 719.505 1515.07 717.75 Q1513.45 716.129 1511.4 716.363 Q1509.35 716.571 1507.33 718.597 L1505.19 720.733 L1503.15 718.695 L1505.39 716.461 Q1507.22 714.632 1507.46 712.938 Q1507.7 711.231 1506.32 709.856 Q1504.91 708.445 1503.15 708.702 Q1501.4 708.936 1499.53 710.802 Q1498.51 711.82 1497.57 713.208 Q1496.62 714.595 1495.69 716.461 L1493.48 714.251 Q1494.5 712.447 1495.53 711.022 Q1496.57 709.586 1497.67 708.494 Q1500.49 705.67 1503.42 705.314 Q1506.35 704.946 1508.53 707.131 Q1510.05 708.653 1510.24 710.581 Q1510.41 712.496 1509.21 714.509 Z" fill="#000000" fill-rule="nonzero" fill-opacity="1" /><path clip-path="url(#clip890)" d="M1516.18 693.91 Q1514.26 695.825 1515.18 698.685 Q1516.11 701.521 1519.89 705.302 Q1523.66 709.071 1526.5 710.004 Q1529.35 710.912 1531.27 708.997 Q1533.19 707.07 1532.27 704.234 Q1531.35 701.373 1527.58 697.605 Q1523.8 693.824 1520.95 692.915 Q1518.11 691.982 1516.18 693.91 M1514.21 691.945 Q1517.3 688.864 1521.36 689.687 Q1525.42 690.485 1530.06 695.125 Q1534.69 699.753 1535.5 703.829 Q1536.31 707.88 1533.23 710.961 Q1530.15 714.042 1526.09 713.244 Q1522.02 712.422 1517.39 707.794 Q1512.75 703.154 1511.94 699.102 Q1511.13 695.027 1514.21 691.945 Z" fill="#000000" fill-rule="nonzero" fill-opacity="1" /><path clip-path="url(#clip890)" d="M1621.78 733.242 Q1619.86 735.157 1620.78 738.018 Q1621.7 740.853 1625.49 744.634 Q1629.25 748.403 1632.1 749.336 Q1634.95 750.245 1636.87 748.33 Q1638.79 746.402 1637.87 743.566 Q1636.95 740.706 1633.18 736.937 Q1629.4 733.156 1626.55 732.248 Q1623.71 731.315 1621.78 733.242 M1619.81 731.278 Q1622.89 728.197 1626.96 729.019 Q1631.02 729.817 1635.66 734.458 Q1640.29 739.086 1641.1 743.161 Q1641.91 747.212 1638.83 750.294 Q1635.75 753.375 1631.68 752.577 Q1627.62 751.755 1622.99 747.126 Q1618.35 742.486 1617.54 738.435 Q1616.73 734.359 1619.81 731.278 Z" fill="#000000" fill-rule="nonzero" fill-opacity="1" /><path clip-path="url(#clip890)" d="M1646.05 736.127 L1648.64 733.537 L1651.76 736.655 L1649.17 739.245 L1646.05 736.127 Z" fill="#000000" fill-rule="nonzero" fill-opacity="1" /><path clip-path="url(#clip890)" d="M1654.79 713.858 Q1656.95 712.459 1659.15 712.667 Q1661.36 712.864 1663.12 714.632 Q1665.84 717.345 1665.46 720.696 Q1665.08 724.047 1661.64 727.485 Q1660.48 728.639 1659.02 729.633 Q1657.59 730.627 1655.83 731.474 L1653.44 729.081 Q1655.07 728.651 1656.61 727.73 Q1658.14 726.81 1659.48 725.471 Q1661.81 723.139 1662.1 721.003 Q1662.41 718.855 1660.66 717.099 Q1659.04 715.479 1656.99 715.712 Q1654.94 715.921 1652.91 717.946 L1650.77 720.082 L1648.74 718.044 L1650.97 715.81 Q1652.8 713.981 1653.04 712.287 Q1653.28 710.581 1651.9 709.206 Q1650.49 707.794 1648.74 708.052 Q1646.98 708.285 1645.11 710.151 Q1644.1 711.17 1643.15 712.557 Q1642.21 713.944 1641.27 715.81 L1639.06 713.6 Q1640.08 711.796 1641.11 710.372 Q1642.16 708.936 1643.25 707.843 Q1646.07 705.019 1649.01 704.663 Q1651.93 704.295 1654.11 706.48 Q1655.64 708.003 1655.82 709.93 Q1655.99 711.845 1654.79 713.858 Z" fill="#000000" fill-rule="nonzero" fill-opacity="1" /><path clip-path="url(#clip890)" d="M1671.5 712.741 L1675.55 708.69 L1661.56 694.708 L1658.04 699.999 L1655.78 697.74 L1659.28 692.473 L1661.76 689.994 L1678 706.235 L1682.05 702.184 L1684.14 704.271 L1673.58 714.828 L1671.5 712.741 Z" fill="#000000" fill-rule="nonzero" fill-opacity="1" /><path clip-path="url(#clip890)" d="M1766.91 733.046 Q1764.99 734.961 1765.91 737.821 Q1766.83 740.657 1770.61 744.438 Q1774.38 748.207 1777.23 749.14 Q1780.08 750.048 1781.99 748.133 Q1783.92 746.206 1783 743.37 Q1782.08 740.51 1778.31 736.741 Q1774.53 732.96 1771.68 732.051 Q1768.83 731.118 1766.91 733.046 M1764.94 731.082 Q1768.02 728 1772.09 728.823 Q1776.15 729.621 1780.79 734.261 Q1785.42 738.889 1786.23 742.965 Q1787.04 747.016 1783.96 750.097 Q1780.88 753.179 1776.81 752.381 Q1772.75 751.558 1768.12 746.93 Q1763.48 742.29 1762.67 738.239 Q1761.86 734.163 1764.94 731.082 Z" fill="#000000" fill-rule="nonzero" fill-opacity="1" /><path clip-path="url(#clip890)" d="M1791.18 735.931 L1793.77 733.34 L1796.88 736.459 L1794.29 739.049 L1791.18 735.931 Z" fill="#000000" fill-rule="nonzero" fill-opacity="1" /><path clip-path="url(#clip890)" d="M1799.92 713.662 Q1802.08 712.262 1804.27 712.471 Q1806.48 712.667 1808.25 714.435 Q1810.96 717.148 1810.58 720.5 Q1810.2 723.851 1806.77 727.288 Q1805.61 728.442 1804.15 729.437 Q1802.72 730.431 1800.96 731.278 L1798.57 728.884 Q1800.2 728.455 1801.73 727.534 Q1803.27 726.613 1804.61 725.275 Q1806.94 722.943 1807.23 720.807 Q1807.54 718.658 1805.78 716.903 Q1804.16 715.282 1802.11 715.516 Q1800.06 715.724 1798.04 717.75 L1795.9 719.886 L1793.86 717.848 L1796.1 715.614 Q1797.93 713.785 1798.17 712.091 Q1798.41 710.384 1797.03 709.009 Q1795.62 707.597 1793.86 707.855 Q1792.11 708.088 1790.24 709.954 Q1789.22 710.973 1788.28 712.361 Q1787.33 713.748 1786.4 715.614 L1784.19 713.404 Q1785.21 711.599 1786.24 710.175 Q1787.28 708.739 1788.38 707.647 Q1791.2 704.823 1794.13 704.467 Q1797.06 704.099 1799.24 706.284 Q1800.76 707.806 1800.95 709.733 Q1801.12 711.649 1799.92 713.662 Z" fill="#000000" fill-rule="nonzero" fill-opacity="1" /><path clip-path="url(#clip890)" d="M1818.33 710.838 L1826.98 702.184 L1829.07 704.271 L1817.43 715.908 L1815.35 713.821 Q1815.3 710.949 1815.27 706.063 Q1815.25 701.153 1815.16 699.814 Q1815.02 697.286 1814.56 695.898 Q1814.11 694.487 1813.21 693.59 Q1811.75 692.13 1809.8 692.24 Q1807.86 692.338 1806.21 693.983 Q1805.05 695.149 1804.15 696.856 Q1803.27 698.55 1802.62 700.846 L1800.11 698.341 Q1801.01 696.242 1802 694.634 Q1803 693.026 1804.08 691.945 Q1806.93 689.097 1810.04 688.827 Q1813.16 688.557 1815.54 690.939 Q1816.67 692.068 1817.26 693.517 Q1817.85 694.941 1818.11 697.433 Q1818.16 698.096 1818.22 701.447 Q1818.27 704.786 1818.33 710.838 Z" fill="#000000" fill-rule="nonzero" fill-opacity="1" /><path clip-path="url(#clip890)" d="M1911.33 733.549 Q1909.42 735.464 1910.34 738.325 Q1911.26 741.16 1915.04 744.941 Q1918.81 748.71 1921.66 749.643 Q1924.51 750.552 1926.42 748.636 Q1928.35 746.709 1927.43 743.873 Q1926.51 741.013 1922.74 737.244 Q1918.96 733.463 1916.11 732.555 Q1913.26 731.622 1911.33 733.549 M1909.37 731.585 Q1912.45 728.504 1916.51 729.326 Q1920.58 730.124 1925.22 734.764 Q1929.85 739.393 1930.66 743.468 Q1931.47 747.519 1928.39 750.601 Q1925.3 753.682 1921.24 752.884 Q1917.18 752.061 1912.55 747.433 Q1907.91 742.793 1907.1 738.742 Q1906.29 734.666 1909.37 731.585 Z" fill="#000000" fill-rule="nonzero" fill-opacity="1" /><path clip-path="url(#clip890)" d="M1935.6 736.434 L1938.19 733.844 L1941.31 736.962 L1938.72 739.552 L1935.6 736.434 Z" fill="#000000" fill-rule="nonzero" fill-opacity="1" /><path clip-path="url(#clip890)" d="M1944.34 714.165 Q1946.5 712.766 1948.7 712.974 Q1950.91 713.171 1952.68 714.939 Q1955.39 717.652 1955.01 721.003 Q1954.63 724.354 1951.19 727.792 Q1950.04 728.946 1948.58 729.94 Q1947.14 730.934 1945.39 731.781 L1942.99 729.388 Q1944.63 728.958 1946.16 728.037 Q1947.7 727.116 1949.03 725.778 Q1951.37 723.446 1951.66 721.31 Q1951.97 719.162 1950.21 717.406 Q1948.59 715.786 1946.54 716.019 Q1944.49 716.228 1942.47 718.253 L1940.33 720.389 L1938.29 718.351 L1940.53 716.117 Q1942.36 714.288 1942.6 712.594 Q1942.83 710.887 1941.46 709.513 Q1940.05 708.101 1938.29 708.359 Q1936.54 708.592 1934.67 710.458 Q1933.65 711.477 1932.71 712.864 Q1931.76 714.251 1930.83 716.117 L1928.62 713.907 Q1929.64 712.103 1930.67 710.679 Q1931.71 709.242 1932.8 708.15 Q1935.63 705.326 1938.56 704.97 Q1941.48 704.602 1943.67 706.787 Q1945.19 708.309 1945.38 710.237 Q1945.55 712.152 1944.34 714.165 Z" fill="#000000" fill-rule="nonzero" fill-opacity="1" /><path clip-path="url(#clip890)" d="M1960.34 698.169 Q1962.5 696.77 1964.7 696.979 Q1966.91 697.175 1968.68 698.943 Q1971.39 701.656 1971.01 705.007 Q1970.63 708.359 1967.19 711.796 Q1966.04 712.95 1964.58 713.944 Q1963.14 714.939 1961.38 715.786 L1958.99 713.392 Q1960.62 712.962 1962.16 712.041 Q1963.69 711.121 1965.03 709.783 Q1967.36 707.45 1967.66 705.314 Q1967.96 703.166 1966.21 701.41 Q1964.59 699.79 1962.54 700.023 Q1960.49 700.232 1958.46 702.257 L1956.33 704.393 L1954.29 702.356 L1956.52 700.121 Q1958.35 698.292 1958.6 696.598 Q1958.83 694.892 1957.46 693.517 Q1956.04 692.105 1954.29 692.363 Q1952.53 692.596 1950.67 694.462 Q1949.65 695.481 1948.7 696.868 Q1947.76 698.255 1946.82 700.121 L1944.61 697.912 Q1945.63 696.107 1946.66 694.683 Q1947.71 693.247 1948.8 692.154 Q1951.62 689.331 1954.56 688.975 Q1957.48 688.606 1959.66 690.791 Q1961.19 692.314 1961.37 694.241 Q1961.54 696.156 1960.34 698.169 Z" fill="#000000" fill-rule="nonzero" fill-opacity="1" /><path clip-path="url(#clip890)" d="M2055.66 734.151 Q2053.75 736.066 2054.67 738.926 Q2055.59 741.762 2059.37 745.543 Q2063.14 749.312 2065.99 750.245 Q2068.84 751.153 2070.75 749.238 Q2072.68 747.311 2071.76 744.475 Q2070.84 741.615 2067.07 737.846 Q2063.29 734.065 2060.44 733.156 Q2057.59 732.223 2055.66 734.151 M2053.7 732.186 Q2056.78 729.105 2060.84 729.928 Q2064.91 730.726 2069.55 735.366 Q2074.18 739.994 2074.99 744.07 Q2075.8 748.121 2072.72 751.202 Q2069.63 754.283 2065.57 753.485 Q2061.51 752.663 2056.88 748.035 Q2052.24 743.395 2051.43 739.343 Q2050.62 735.268 2053.7 732.186 Z" fill="#000000" fill-rule="nonzero" fill-opacity="1" /><path clip-path="url(#clip890)" d="M2079.93 737.036 L2082.52 734.445 L2085.64 737.563 L2083.05 740.154 L2079.93 737.036 Z" fill="#000000" fill-rule="nonzero" fill-opacity="1" /><path clip-path="url(#clip890)" d="M2088.67 714.767 Q2090.83 713.367 2093.03 713.576 Q2095.24 713.772 2097.01 715.54 Q2099.72 718.253 2099.34 721.604 Q2098.96 724.956 2095.52 728.393 Q2094.37 729.547 2092.91 730.541 Q2091.47 731.536 2089.72 732.383 L2087.32 729.989 Q2088.96 729.559 2090.49 728.639 Q2092.03 727.718 2093.36 726.38 Q2095.7 724.047 2095.99 721.911 Q2096.3 719.763 2094.54 718.008 Q2092.92 716.387 2090.87 716.62 Q2088.82 716.829 2086.8 718.855 L2084.66 720.991 L2082.62 718.953 L2084.86 716.719 Q2086.69 714.889 2086.93 713.195 Q2087.16 711.489 2085.79 710.114 Q2084.38 708.702 2082.62 708.96 Q2080.87 709.193 2079 711.059 Q2077.98 712.078 2077.04 713.465 Q2076.09 714.853 2075.16 716.719 L2072.95 714.509 Q2073.97 712.704 2075 711.28 Q2076.04 709.844 2077.13 708.751 Q2079.96 705.928 2082.89 705.572 Q2085.81 705.204 2088 707.389 Q2089.52 708.911 2089.71 710.838 Q2089.88 712.753 2088.67 714.767 Z" fill="#000000" fill-rule="nonzero" fill-opacity="1" /><path clip-path="url(#clip890)" d="M2097.68 693.185 L2101.21 709.23 L2107.47 702.969 L2097.68 693.185 M2094.87 691.675 L2097.99 688.557 L2109.94 700.502 L2112.55 697.887 L2114.61 699.949 L2112 702.564 L2116.32 706.885 L2113.85 709.353 L2109.53 705.032 L2101.26 713.306 L2098.86 710.912 L2094.87 691.675 Z" fill="#000000" fill-rule="nonzero" fill-opacity="1" /><path clip-path="url(#clip890)" d="M2201.38 733.365 Q2199.47 735.28 2200.39 738.14 Q2201.31 740.976 2205.09 744.757 Q2208.86 748.526 2211.71 749.459 Q2214.55 750.367 2216.47 748.452 Q2218.4 746.525 2217.47 743.689 Q2216.55 740.829 2212.79 737.06 Q2209 733.279 2206.16 732.371 Q2203.31 731.438 2201.38 733.365 M2199.42 731.401 Q2202.5 728.32 2206.56 729.142 Q2210.62 729.94 2215.27 734.58 Q2219.89 739.208 2220.7 743.284 Q2221.51 747.335 2218.43 750.416 Q2215.35 753.498 2211.29 752.7 Q2207.22 751.877 2202.6 747.249 Q2197.96 742.609 2197.15 738.558 Q2196.34 734.482 2199.42 731.401 Z" fill="#000000" fill-rule="nonzero" fill-opacity="1" /><path clip-path="url(#clip890)" d="M2225.65 736.25 L2228.24 733.66 L2231.36 736.778 L2228.77 739.368 L2225.65 736.25 Z" fill="#000000" fill-rule="nonzero" fill-opacity="1" /><path clip-path="url(#clip890)" d="M2234.39 713.981 Q2236.55 712.582 2238.75 712.79 Q2240.96 712.987 2242.73 714.754 Q2245.44 717.467 2245.06 720.819 Q2244.68 724.17 2241.24 727.607 Q2240.09 728.761 2238.63 729.756 Q2237.19 730.75 2235.43 731.597 L2233.04 729.203 Q2234.67 728.774 2236.21 727.853 Q2237.74 726.932 2239.08 725.594 Q2241.41 723.262 2241.71 721.126 Q2242.01 718.977 2240.26 717.222 Q2238.64 715.601 2236.59 715.835 Q2234.54 716.043 2232.51 718.069 L2230.38 720.205 L2228.34 718.167 L2230.57 715.933 Q2232.4 714.104 2232.65 712.41 Q2232.88 710.703 2231.51 709.328 Q2230.09 707.917 2228.34 708.174 Q2226.58 708.408 2224.72 710.274 Q2223.7 711.293 2222.75 712.68 Q2221.81 714.067 2220.88 715.933 L2218.67 713.723 Q2219.68 711.919 2220.72 710.495 Q2221.76 709.058 2222.85 707.966 Q2225.68 705.142 2228.61 704.786 Q2231.53 704.418 2233.72 706.603 Q2235.24 708.125 2235.42 710.053 Q2235.59 711.968 2234.39 713.981 Z" fill="#000000" fill-rule="nonzero" fill-opacity="1" /><path clip-path="url(#clip890)" d="M2234.45 697.028 L2244.19 687.293 L2246.27 689.38 L2238.81 696.844 L2243.3 701.337 Q2243.66 700.612 2244.11 699.986 Q2244.56 699.348 2245.1 698.808 Q2248.17 695.739 2251.64 695.628 Q2255.11 695.518 2257.99 698.39 Q2260.94 701.349 2260.75 704.835 Q2260.54 708.309 2257.19 711.661 Q2256.03 712.815 2254.63 713.821 Q2253.25 714.816 2251.58 715.7 L2249.09 713.208 Q2250.79 712.704 2252.27 711.82 Q2253.74 710.937 2255.05 709.623 Q2257.18 707.499 2257.3 705.142 Q2257.42 702.785 2255.51 700.87 Q2253.59 698.955 2251.23 699.078 Q2248.88 699.201 2246.75 701.324 Q2245.76 702.319 2244.99 703.534 Q2244.22 704.737 2243.66 706.235 L2234.45 697.028 Z" fill="#000000" fill-rule="nonzero" fill-opacity="1" /><polyline clip-path="url(#clip890)" style="stroke:#000000; stroke-linecap:round; stroke-linejoin:round; stroke-width:4; stroke-opacity:1; fill:none" points="1361.64,662.16 1361.64,97.5521 "/>
<polyline clip-path="url(#clip890)" style="stroke:#000000; stroke-linecap:round; stroke-linejoin:round; stroke-width:4; stroke-opacity:1; fill:none" points="1361.64,646.181 1380.53,646.181 "/>
<polyline clip-path="url(#clip890)" style="stroke:#000000; stroke-linecap:round; stroke-linejoin:round; stroke-width:4; stroke-opacity:1; fill:none" points="1361.64,504.331 1380.53,504.331 "/>
<polyline clip-path="url(#clip890)" style="stroke:#000000; stroke-linecap:round; stroke-linejoin:round; stroke-width:4; stroke-opacity:1; fill:none" points="1361.64,362.48 1380.53,362.48 "/>
<polyline clip-path="url(#clip890)" style="stroke:#000000; stroke-linecap:round; stroke-linejoin:round; stroke-width:4; stroke-opacity:1; fill:none" points="1361.64,220.63 1380.53,220.63 "/>
<path clip-path="url(#clip890)" d="M1260.13 635.53 Q1257.42 635.53 1256.05 638.204 Q1254.7 640.86 1254.7 646.207 Q1254.7 651.537 1256.05 654.21 Q1257.42 656.867 1260.13 656.867 Q1262.86 656.867 1264.21 654.21 Q1265.58 651.537 1265.58 646.207 Q1265.58 640.86 1264.21 638.204 Q1262.86 635.53 1260.13 635.53 M1260.13 632.752 Q1264.49 632.752 1266.78 636.207 Q1269.09 639.645 1269.09 646.207 Q1269.09 652.752 1266.78 656.207 Q1264.49 659.644 1260.13 659.644 Q1255.78 659.644 1253.47 656.207 Q1251.17 652.752 1251.17 646.207 Q1251.17 639.645 1253.47 636.207 Q1255.78 632.752 1260.13 632.752 Z" fill="#000000" fill-rule="nonzero" fill-opacity="1" /><path clip-path="url(#clip890)" d="M1275.25 654.731 L1278.92 654.731 L1278.92 659.141 L1275.25 659.141 L1275.25 654.731 Z" fill="#000000" fill-rule="nonzero" fill-opacity="1" /><path clip-path="url(#clip890)" d="M1294.06 635.53 Q1291.35 635.53 1289.98 638.204 Q1288.62 640.86 1288.62 646.207 Q1288.62 651.537 1289.98 654.21 Q1291.35 656.867 1294.06 656.867 Q1296.78 656.867 1298.14 654.21 Q1299.51 651.537 1299.51 646.207 Q1299.51 640.86 1298.14 638.204 Q1296.78 635.53 1294.06 635.53 M1294.06 632.752 Q1298.41 632.752 1300.71 636.207 Q1303.01 639.645 1303.01 646.207 Q1303.01 652.752 1300.71 656.207 Q1298.41 659.644 1294.06 659.644 Q1289.7 659.644 1287.39 656.207 Q1285.1 652.752 1285.1 646.207 Q1285.1 639.645 1287.39 636.207 Q1289.7 632.752 1294.06 632.752 Z" fill="#000000" fill-rule="nonzero" fill-opacity="1" /><path clip-path="url(#clip890)" d="M1316.68 635.53 Q1313.97 635.53 1312.6 638.204 Q1311.24 640.86 1311.24 646.207 Q1311.24 651.537 1312.6 654.21 Q1313.97 656.867 1316.68 656.867 Q1319.4 656.867 1320.76 654.21 Q1322.13 651.537 1322.13 646.207 Q1322.13 640.86 1320.76 638.204 Q1319.4 635.53 1316.68 635.53 M1316.68 632.752 Q1321.04 632.752 1323.33 636.207 Q1325.64 639.645 1325.64 646.207 Q1325.64 652.752 1323.33 656.207 Q1321.04 659.644 1316.68 659.644 Q1312.32 659.644 1310.01 656.207 Q1307.72 652.752 1307.72 646.207 Q1307.72 639.645 1310.01 636.207 Q1312.32 632.752 1316.68 632.752 Z" fill="#000000" fill-rule="nonzero" fill-opacity="1" /><path clip-path="url(#clip890)" d="M1260.88 493.68 Q1258.17 493.68 1256.8 496.353 Q1255.45 499.01 1255.45 504.357 Q1255.45 509.687 1256.8 512.36 Q1258.17 515.016 1260.88 515.016 Q1263.6 515.016 1264.96 512.36 Q1266.33 509.687 1266.33 504.357 Q1266.33 499.01 1264.96 496.353 Q1263.6 493.68 1260.88 493.68 M1260.88 490.902 Q1265.24 490.902 1267.53 494.357 Q1269.84 497.794 1269.84 504.357 Q1269.84 510.902 1267.53 514.357 Q1265.24 517.794 1260.88 517.794 Q1256.52 517.794 1254.21 514.357 Q1251.92 510.902 1251.92 504.357 Q1251.92 497.794 1254.21 494.357 Q1256.52 490.902 1260.88 490.902 Z" fill="#000000" fill-rule="nonzero" fill-opacity="1" /><path clip-path="url(#clip890)" d="M1276 512.881 L1279.66 512.881 L1279.66 517.291 L1276 517.291 L1276 512.881 Z" fill="#000000" fill-rule="nonzero" fill-opacity="1" /><path clip-path="url(#clip890)" d="M1294.8 493.68 Q1292.09 493.68 1290.72 496.353 Q1289.37 499.01 1289.37 504.357 Q1289.37 509.687 1290.72 512.36 Q1292.09 515.016 1294.8 515.016 Q1297.53 515.016 1298.88 512.36 Q1300.25 509.687 1300.25 504.357 Q1300.25 499.01 1298.88 496.353 Q1297.53 493.68 1294.8 493.68 M1294.8 490.902 Q1299.16 490.902 1301.45 494.357 Q1303.76 497.794 1303.76 504.357 Q1303.76 510.902 1301.45 514.357 Q1299.16 517.794 1294.8 517.794 Q1290.45 517.794 1288.14 514.357 Q1285.84 510.902 1285.84 504.357 Q1285.84 497.794 1288.14 494.357 Q1290.45 490.902 1294.8 490.902 Z" fill="#000000" fill-rule="nonzero" fill-opacity="1" /><path clip-path="url(#clip890)" d="M1309.96 491.371 L1323.73 491.371 L1323.73 494.322 L1313.17 494.322 L1313.17 500.676 Q1313.93 500.416 1314.7 500.294 Q1315.46 500.155 1316.23 500.155 Q1320.57 500.155 1323.1 502.534 Q1325.64 504.912 1325.64 508.975 Q1325.64 513.159 1323.03 515.485 Q1320.43 517.794 1315.69 517.794 Q1314.06 517.794 1312.35 517.516 Q1310.67 517.239 1308.87 516.683 L1308.87 513.159 Q1310.43 514.009 1312.09 514.426 Q1313.76 514.843 1315.62 514.843 Q1318.62 514.843 1320.38 513.263 Q1322.13 511.683 1322.13 508.975 Q1322.13 506.266 1320.38 504.687 Q1318.62 503.107 1315.62 503.107 Q1314.21 503.107 1312.81 503.419 Q1311.42 503.732 1309.96 504.391 L1309.96 491.371 Z" fill="#000000" fill-rule="nonzero" fill-opacity="1" /><path clip-path="url(#clip890)" d="M1260.13 351.829 Q1257.42 351.829 1256.05 354.503 Q1254.7 357.159 1254.7 362.507 Q1254.7 367.836 1256.05 370.51 Q1257.42 373.166 1260.13 373.166 Q1262.86 373.166 1264.21 370.51 Q1265.58 367.836 1265.58 362.507 Q1265.58 357.159 1264.21 354.503 Q1262.86 351.829 1260.13 351.829 M1260.13 349.052 Q1264.49 349.052 1266.78 352.507 Q1269.09 355.944 1269.09 362.507 Q1269.09 369.052 1266.78 372.506 Q1264.49 375.944 1260.13 375.944 Q1255.78 375.944 1253.47 372.506 Q1251.17 369.052 1251.17 362.507 Q1251.17 355.944 1253.47 352.507 Q1255.78 349.052 1260.13 349.052 Z" fill="#000000" fill-rule="nonzero" fill-opacity="1" /><path clip-path="url(#clip890)" d="M1275.25 371.031 L1278.92 371.031 L1278.92 375.44 L1275.25 375.44 L1275.25 371.031 Z" fill="#000000" fill-rule="nonzero" fill-opacity="1" /><path clip-path="url(#clip890)" d="M1287.16 372.489 L1292.89 372.489 L1292.89 352.715 L1286.66 353.965 L1286.66 350.77 L1292.86 349.52 L1296.37 349.52 L1296.37 372.489 L1302.09 372.489 L1302.09 375.44 L1287.16 375.44 L1287.16 372.489 Z" fill="#000000" fill-rule="nonzero" fill-opacity="1" /><path clip-path="url(#clip890)" d="M1316.68 351.829 Q1313.97 351.829 1312.6 354.503 Q1311.24 357.159 1311.24 362.507 Q1311.24 367.836 1312.6 370.51 Q1313.97 373.166 1316.68 373.166 Q1319.4 373.166 1320.76 370.51 Q1322.13 367.836 1322.13 362.507 Q1322.13 357.159 1320.76 354.503 Q1319.4 351.829 1316.68 351.829 M1316.68 349.052 Q1321.04 349.052 1323.33 352.507 Q1325.64 355.944 1325.64 362.507 Q1325.64 369.052 1323.33 372.506 Q1321.04 375.944 1316.68 375.944 Q1312.32 375.944 1310.01 372.506 Q1307.72 369.052 1307.72 362.507 Q1307.72 355.944 1310.01 352.507 Q1312.32 349.052 1316.68 349.052 Z" fill="#000000" fill-rule="nonzero" fill-opacity="1" /><path clip-path="url(#clip890)" d="M1260.88 209.979 Q1258.17 209.979 1256.8 212.653 Q1255.45 215.309 1255.45 220.656 Q1255.45 225.986 1256.8 228.66 Q1258.17 231.316 1260.88 231.316 Q1263.6 231.316 1264.96 228.66 Q1266.33 225.986 1266.33 220.656 Q1266.33 215.309 1264.96 212.653 Q1263.6 209.979 1260.88 209.979 M1260.88 207.202 Q1265.24 207.202 1267.53 210.656 Q1269.84 214.094 1269.84 220.656 Q1269.84 227.201 1267.53 230.656 Q1265.24 234.094 1260.88 234.094 Q1256.52 234.094 1254.21 230.656 Q1251.92 227.201 1251.92 220.656 Q1251.92 214.094 1254.21 210.656 Q1256.52 207.202 1260.88 207.202 Z" fill="#000000" fill-rule="nonzero" fill-opacity="1" /><path clip-path="url(#clip890)" d="M1276 229.181 L1279.66 229.181 L1279.66 233.59 L1276 233.59 L1276 229.181 Z" fill="#000000" fill-rule="nonzero" fill-opacity="1" /><path clip-path="url(#clip890)" d="M1287.91 230.639 L1293.64 230.639 L1293.64 210.865 L1287.41 212.115 L1287.41 208.92 L1293.6 207.67 L1297.11 207.67 L1297.11 230.639 L1302.84 230.639 L1302.84 233.59 L1287.91 233.59 L1287.91 230.639 Z" fill="#000000" fill-rule="nonzero" fill-opacity="1" /><path clip-path="url(#clip890)" d="M1309.96 207.67 L1323.73 207.67 L1323.73 210.622 L1313.17 210.622 L1313.17 216.976 Q1313.93 216.715 1314.7 216.594 Q1315.46 216.455 1316.23 216.455 Q1320.57 216.455 1323.1 218.833 Q1325.64 221.212 1325.64 225.274 Q1325.64 229.458 1323.03 231.785 Q1320.43 234.094 1315.69 234.094 Q1314.06 234.094 1312.35 233.816 Q1310.67 233.538 1308.87 232.983 L1308.87 229.458 Q1310.43 230.309 1312.09 230.726 Q1313.76 231.142 1315.62 231.142 Q1318.62 231.142 1320.38 229.562 Q1322.13 227.983 1322.13 225.274 Q1322.13 222.566 1320.38 220.986 Q1318.62 219.406 1315.62 219.406 Q1314.21 219.406 1312.81 219.719 Q1311.42 220.031 1309.96 220.691 L1309.96 207.67 Z" fill="#000000" fill-rule="nonzero" fill-opacity="1" /><path clip-path="url(#clip890)" d="M1373.53 18.9258 Q1370.02 18.9258 1368.12 21.4721 Q1366.13 24.1341 1366.13 28.5323 Q1366.13 33.185 1368.09 35.8702 Q1370.08 38.5322 1373.53 38.5322 Q1376.94 38.5322 1378.93 35.847 Q1380.92 33.1619 1380.92 28.5323 Q1380.92 24.2962 1378.93 21.4721 Q1377.1 18.9258 1373.53 18.9258 M1373.53 15.5462 L1387.68 15.5462 L1387.68 19.8054 L1382.91 19.8054 Q1385.43 23.4165 1385.43 28.5323 Q1385.43 34.898 1382.26 38.5091 Q1379.09 42.1433 1373.53 42.1433 Q1367.96 42.1433 1364.81 38.5091 Q1361.64 34.898 1361.64 28.5323 Q1361.64 22.1203 1364.81 18.5323 Q1367.42 15.5462 1373.53 15.5462 Z" fill="#000000" fill-rule="nonzero" fill-opacity="1" /><path clip-path="url(#clip890)" d="M1411.84 19.6666 Q1410.99 19.3656 1410.13 19.1342 Q1407.84 18.5323 1405.39 18.5323 Q1401.15 18.5323 1398.79 20.824 Q1396.59 22.9536 1396.17 26.8656 L1411.84 26.8656 L1411.84 30.1989 L1396.17 30.1989 Q1396.59 34.1109 1398.79 36.2405 Q1401.15 38.5322 1405.39 38.5322 Q1408.35 38.5322 1410.13 37.9304 L1411.84 37.3517 L1411.84 41.2174 L1410.02 41.634 Q1407.61 42.1433 1405.13 42.1433 Q1398.93 42.1433 1395.32 38.5322 Q1391.68 34.9211 1391.68 28.5323 Q1391.68 22.1434 1395.32 18.5323 Q1398.93 14.9212 1405.13 14.9212 Q1407.47 14.9212 1410.02 15.4305 Q1410.94 15.6157 1411.84 15.8934 L1411.84 19.6666 Z" fill="#000000" fill-rule="nonzero" fill-opacity="1" /><polyline clip-path="url(#clip893)" style="stroke:#009af9; stroke-linecap:round; stroke-linejoin:round; stroke-width:4; stroke-opacity:1; fill:none" points="1389.69,164.238 1448.13,221.708 1506.56,279.97 1565,339.024 1623.44,398.871 1681.88,459.51 1740.32,520.941 1798.76,583.165 1857.2,646.181 1915.63,582.373 1974.07,517.772 2032.51,452.38 2090.95,386.195 2149.39,319.217 2207.83,251.448 2266.27,182.886 2324.71,113.532 "/>
<circle clip-path="url(#clip893)" cx="1857.2" cy="646.181" r="10.8" fill="#ff0000" fill-rule="evenodd" fill-opacity="1" stroke="#000000" stroke-opacity="1" stroke-width="3.2"/>
<path clip-path="url(#clip890)" d="M161.818 1456.91 L1152.94 1456.91 L1152.94 892.306 L161.818 892.306  Z" fill="#ffffff" fill-rule="evenodd" fill-opacity="1"/>
<defs>
  <clipPath id="clip894">
    <rect x="161" y="892" width="992" height="566"/>
  </clipPath>
</defs>
<polyline clip-path="url(#clip894)" style="stroke:#000000; stroke-linecap:round; stroke-linejoin:round; stroke-width:2; stroke-opacity:0.1; fill:none" points="285.398,1456.91 285.398,892.306 "/>
<polyline clip-path="url(#clip894)" style="stroke:#000000; stroke-linecap:round; stroke-linejoin:round; stroke-width:2; stroke-opacity:0.1; fill:none" points="500.554,1456.91 500.554,892.306 "/>
<polyline clip-path="url(#clip894)" style="stroke:#000000; stroke-linecap:round; stroke-linejoin:round; stroke-width:2; stroke-opacity:0.1; fill:none" points="715.71,1456.91 715.71,892.306 "/>
<polyline clip-path="url(#clip894)" style="stroke:#000000; stroke-linecap:round; stroke-linejoin:round; stroke-width:2; stroke-opacity:0.1; fill:none" points="930.866,1456.91 930.866,892.306 "/>
<polyline clip-path="url(#clip894)" style="stroke:#000000; stroke-linecap:round; stroke-linejoin:round; stroke-width:2; stroke-opacity:0.1; fill:none" points="1146.02,1456.91 1146.02,892.306 "/>
<polyline clip-path="url(#clip894)" style="stroke:#000000; stroke-linecap:round; stroke-linejoin:round; stroke-width:2; stroke-opacity:0.1; fill:none" points="161.818,1440.94 1152.94,1440.94 "/>
<polyline clip-path="url(#clip894)" style="stroke:#000000; stroke-linecap:round; stroke-linejoin:round; stroke-width:2; stroke-opacity:0.1; fill:none" points="161.818,1321.9 1152.94,1321.9 "/>
<polyline clip-path="url(#clip894)" style="stroke:#000000; stroke-linecap:round; stroke-linejoin:round; stroke-width:2; stroke-opacity:0.1; fill:none" points="161.818,1202.86 1152.94,1202.86 "/>
<polyline clip-path="url(#clip894)" style="stroke:#000000; stroke-linecap:round; stroke-linejoin:round; stroke-width:2; stroke-opacity:0.1; fill:none" points="161.818,1083.82 1152.94,1083.82 "/>
<polyline clip-path="url(#clip894)" style="stroke:#000000; stroke-linecap:round; stroke-linejoin:round; stroke-width:2; stroke-opacity:0.1; fill:none" points="161.818,964.788 1152.94,964.788 "/>
<polyline clip-path="url(#clip890)" style="stroke:#000000; stroke-linecap:round; stroke-linejoin:round; stroke-width:4; stroke-opacity:1; fill:none" points="161.818,1456.91 1152.94,1456.91 "/>
<polyline clip-path="url(#clip890)" style="stroke:#000000; stroke-linecap:round; stroke-linejoin:round; stroke-width:4; stroke-opacity:1; fill:none" points="285.398,1456.91 285.398,1438.02 "/>
<polyline clip-path="url(#clip890)" style="stroke:#000000; stroke-linecap:round; stroke-linejoin:round; stroke-width:4; stroke-opacity:1; fill:none" points="500.554,1456.91 500.554,1438.02 "/>
<polyline clip-path="url(#clip890)" style="stroke:#000000; stroke-linecap:round; stroke-linejoin:round; stroke-width:4; stroke-opacity:1; fill:none" points="715.71,1456.91 715.71,1438.02 "/>
<polyline clip-path="url(#clip890)" style="stroke:#000000; stroke-linecap:round; stroke-linejoin:round; stroke-width:4; stroke-opacity:1; fill:none" points="930.866,1456.91 930.866,1438.02 "/>
<polyline clip-path="url(#clip890)" style="stroke:#000000; stroke-linecap:round; stroke-linejoin:round; stroke-width:4; stroke-opacity:1; fill:none" points="1146.02,1456.91 1146.02,1438.02 "/>
<path clip-path="url(#clip890)" d="M215.554 1544.64 Q213.638 1546.56 214.559 1549.42 Q215.48 1552.25 219.261 1556.03 Q223.03 1559.8 225.878 1560.74 Q228.726 1561.65 230.641 1559.73 Q232.568 1557.8 231.648 1554.97 Q230.727 1552.11 226.958 1548.34 Q223.177 1544.56 220.329 1543.65 Q217.481 1542.72 215.554 1544.64 M213.589 1542.68 Q216.671 1539.6 220.734 1540.42 Q224.797 1541.22 229.438 1545.86 Q234.066 1550.49 234.876 1554.56 Q235.686 1558.61 232.605 1561.69 Q229.524 1564.78 225.46 1563.98 Q221.397 1563.15 216.769 1558.53 Q212.129 1553.89 211.318 1549.84 Q210.508 1545.76 213.589 1542.68 Z" fill="#000000" fill-rule="nonzero" fill-opacity="1" /><path clip-path="url(#clip890)" d="M239.823 1547.53 L242.414 1544.94 L245.532 1548.06 L242.942 1550.65 L239.823 1547.53 Z" fill="#000000" fill-rule="nonzero" fill-opacity="1" /><path clip-path="url(#clip890)" d="M232.63 1524.3 L242.365 1514.57 L244.451 1516.65 L236.988 1524.12 L241.481 1528.61 Q241.837 1527.89 242.291 1527.26 Q242.733 1526.62 243.273 1526.08 Q246.342 1523.01 249.816 1522.9 Q253.29 1522.79 256.163 1525.66 Q259.121 1528.62 258.925 1532.11 Q258.716 1535.58 255.365 1538.93 Q254.211 1540.09 252.811 1541.09 Q251.424 1542.09 249.755 1542.97 L247.263 1540.48 Q248.969 1539.98 250.442 1539.09 Q251.915 1538.21 253.229 1536.9 Q255.353 1534.77 255.475 1532.42 Q255.598 1530.06 253.683 1528.14 Q251.768 1526.23 249.411 1526.35 Q247.054 1526.47 244.93 1528.6 Q243.936 1529.59 243.162 1530.81 Q242.401 1532.01 241.837 1533.51 L232.63 1524.3 Z" fill="#000000" fill-rule="nonzero" fill-opacity="1" /><path clip-path="url(#clip890)" d="M255.537 1504.66 Q253.622 1506.57 254.542 1509.43 Q255.463 1512.27 259.244 1516.05 Q263.013 1519.82 265.861 1520.75 Q268.709 1521.66 270.624 1519.75 Q272.551 1517.82 271.631 1514.98 Q270.71 1512.12 266.941 1508.35 Q263.16 1504.57 260.312 1503.67 Q257.464 1502.73 255.537 1504.66 M253.573 1502.7 Q256.654 1499.61 260.717 1500.44 Q264.781 1501.23 269.421 1505.87 Q274.049 1510.5 274.859 1514.58 Q275.67 1518.63 272.588 1521.71 Q269.507 1524.79 265.444 1523.99 Q261.38 1523.17 256.752 1518.54 Q252.112 1513.9 251.302 1509.85 Q250.491 1505.78 253.573 1502.7 Z" fill="#000000" fill-rule="nonzero" fill-opacity="1" /><path clip-path="url(#clip890)" d="M271.533 1488.66 Q269.617 1490.58 270.538 1493.44 Q271.459 1496.27 275.24 1500.06 Q279.009 1503.82 281.857 1504.76 Q284.705 1505.67 286.62 1503.75 Q288.547 1501.82 287.626 1498.99 Q286.706 1496.13 282.937 1492.36 Q279.156 1488.58 276.308 1487.67 Q273.46 1486.74 271.533 1488.66 M269.568 1486.7 Q272.65 1483.62 276.713 1484.44 Q280.776 1485.24 285.417 1489.88 Q290.045 1494.51 290.855 1498.58 Q291.665 1502.63 288.584 1505.72 Q285.503 1508.8 281.439 1508 Q277.376 1507.18 272.748 1502.55 Q268.108 1497.91 267.297 1493.86 Q266.487 1489.78 269.568 1486.7 Z" fill="#000000" fill-rule="nonzero" fill-opacity="1" /><path clip-path="url(#clip890)" d="M431.237 1544.11 Q429.322 1546.03 430.243 1548.89 Q431.164 1551.73 434.945 1555.51 Q438.713 1559.28 441.561 1560.21 Q444.409 1561.12 446.324 1559.2 Q448.252 1557.27 447.331 1554.44 Q446.41 1551.58 442.642 1547.81 Q438.861 1544.03 436.013 1543.12 Q433.165 1542.19 431.237 1544.11 M429.273 1542.15 Q432.354 1539.07 436.418 1539.89 Q440.481 1540.69 445.121 1545.33 Q449.75 1549.96 450.56 1554.03 Q451.37 1558.08 448.289 1561.17 Q445.207 1564.25 441.144 1563.45 Q437.081 1562.63 432.453 1558 Q427.812 1553.36 427.002 1549.31 Q426.192 1545.23 429.273 1542.15 Z" fill="#000000" fill-rule="nonzero" fill-opacity="1" /><path clip-path="url(#clip890)" d="M455.507 1547 L458.097 1544.41 L461.215 1547.53 L458.625 1550.12 L455.507 1547 Z" fill="#000000" fill-rule="nonzero" fill-opacity="1" /><path clip-path="url(#clip890)" d="M448.313 1523.77 L458.048 1514.04 L460.135 1516.13 L452.671 1523.59 L457.164 1528.08 Q457.52 1527.36 457.974 1526.73 Q458.416 1526.09 458.957 1525.55 Q462.026 1522.48 465.5 1522.37 Q468.974 1522.26 471.846 1525.14 Q474.805 1528.09 474.609 1531.58 Q474.4 1535.05 471.049 1538.41 Q469.895 1539.56 468.495 1540.57 Q467.108 1541.56 465.438 1542.45 L462.946 1539.95 Q464.653 1539.45 466.126 1538.57 Q467.599 1537.68 468.912 1536.37 Q471.036 1534.24 471.159 1531.89 Q471.282 1529.53 469.367 1527.62 Q467.452 1525.7 465.095 1525.82 Q462.738 1525.95 460.614 1528.07 Q459.619 1529.06 458.846 1530.28 Q458.085 1531.48 457.52 1532.98 L448.313 1523.77 Z" fill="#000000" fill-rule="nonzero" fill-opacity="1" /><path clip-path="url(#clip890)" d="M482.662 1521.91 L491.316 1513.25 L493.403 1515.34 L481.766 1526.98 L479.679 1524.89 Q479.63 1522.02 479.605 1517.13 Q479.58 1512.22 479.494 1510.88 Q479.347 1508.35 478.893 1506.97 Q478.439 1505.56 477.543 1504.66 Q476.082 1503.2 474.13 1503.31 Q472.19 1503.41 470.545 1505.05 Q469.379 1506.22 468.483 1507.92 Q467.599 1509.62 466.948 1511.91 L464.444 1509.41 Q465.34 1507.31 466.335 1505.7 Q467.329 1504.09 468.409 1503.01 Q471.257 1500.17 474.375 1499.9 Q477.493 1499.63 479.875 1502.01 Q481.004 1503.14 481.594 1504.59 Q482.183 1506.01 482.441 1508.5 Q482.49 1509.16 482.551 1512.52 Q482.6 1515.86 482.662 1521.91 Z" fill="#000000" fill-rule="nonzero" fill-opacity="1" /><path clip-path="url(#clip890)" d="M480.305 1491.78 L490.04 1482.05 L492.127 1484.13 L484.663 1491.6 L489.156 1496.09 Q489.512 1495.37 489.966 1494.74 Q490.408 1494.1 490.948 1493.56 Q494.017 1490.49 497.491 1490.38 Q500.965 1490.27 503.838 1493.14 Q506.797 1496.1 506.6 1499.59 Q506.391 1503.06 503.04 1506.41 Q501.886 1507.57 500.487 1508.58 Q499.099 1509.57 497.43 1510.45 L494.938 1507.96 Q496.644 1507.46 498.117 1506.57 Q499.59 1505.69 500.904 1504.38 Q503.028 1502.25 503.151 1499.9 Q503.273 1497.54 501.358 1495.62 Q499.443 1493.71 497.086 1493.83 Q494.729 1493.95 492.605 1496.08 Q491.611 1497.07 490.838 1498.29 Q490.076 1499.49 489.512 1500.99 L480.305 1491.78 Z" fill="#000000" fill-rule="nonzero" fill-opacity="1" /><path clip-path="url(#clip890)" d="M645.865 1544.64 Q643.95 1546.56 644.871 1549.42 Q645.791 1552.25 649.572 1556.03 Q653.341 1559.8 656.189 1560.74 Q659.037 1561.65 660.952 1559.73 Q662.88 1557.8 661.959 1554.97 Q661.038 1552.11 657.27 1548.34 Q653.488 1544.56 650.64 1543.65 Q647.792 1542.72 645.865 1544.64 M643.901 1542.68 Q646.982 1539.6 651.046 1540.42 Q655.109 1541.22 659.749 1545.86 Q664.377 1550.49 665.188 1554.56 Q665.998 1558.61 662.917 1561.69 Q659.835 1564.78 655.772 1563.98 Q651.708 1563.15 647.08 1558.53 Q642.44 1553.89 641.63 1549.84 Q640.82 1545.76 643.901 1542.68 Z" fill="#000000" fill-rule="nonzero" fill-opacity="1" /><path clip-path="url(#clip890)" d="M670.135 1547.53 L672.725 1544.94 L675.843 1548.06 L673.253 1550.65 L670.135 1547.53 Z" fill="#000000" fill-rule="nonzero" fill-opacity="1" /><path clip-path="url(#clip890)" d="M662.941 1524.3 L672.676 1514.57 L674.763 1516.65 L667.299 1524.12 L671.792 1528.61 Q672.148 1527.89 672.602 1527.26 Q673.044 1526.62 673.584 1526.08 Q676.653 1523.01 680.128 1522.9 Q683.602 1522.79 686.474 1525.66 Q689.433 1528.62 689.236 1532.11 Q689.028 1535.58 685.676 1538.93 Q684.522 1540.09 683.123 1541.09 Q681.736 1542.09 680.066 1542.97 L677.574 1540.48 Q679.281 1539.98 680.754 1539.09 Q682.227 1538.21 683.54 1536.9 Q685.664 1534.77 685.787 1532.42 Q685.91 1530.06 683.995 1528.14 Q682.08 1526.23 679.723 1526.35 Q677.365 1526.47 675.242 1528.6 Q674.247 1529.59 673.474 1530.81 Q672.713 1532.01 672.148 1533.51 L662.941 1524.3 Z" fill="#000000" fill-rule="nonzero" fill-opacity="1" /><path clip-path="url(#clip890)" d="M678.937 1508.31 L688.672 1498.57 L690.759 1500.66 L683.295 1508.12 L687.788 1512.61 Q688.144 1511.89 688.598 1511.26 Q689.04 1510.63 689.58 1510.09 Q692.649 1507.02 696.123 1506.91 Q699.598 1506.8 702.47 1509.67 Q705.429 1512.63 705.232 1516.11 Q705.024 1519.59 701.672 1522.94 Q700.518 1524.09 699.119 1525.1 Q697.732 1526.09 696.062 1526.98 L693.57 1524.49 Q695.276 1523.98 696.749 1523.1 Q698.223 1522.21 699.536 1520.9 Q701.66 1518.78 701.783 1516.42 Q701.905 1514.06 699.99 1512.15 Q698.075 1510.23 695.718 1510.36 Q693.361 1510.48 691.237 1512.6 Q690.243 1513.6 689.47 1514.81 Q688.709 1516.01 688.144 1517.51 L678.937 1508.31 Z" fill="#000000" fill-rule="nonzero" fill-opacity="1" /><path clip-path="url(#clip890)" d="M701.844 1488.66 Q699.929 1490.58 700.85 1493.44 Q701.77 1496.27 705.551 1500.06 Q709.32 1503.82 712.168 1504.76 Q715.016 1505.67 716.931 1503.75 Q718.859 1501.82 717.938 1498.99 Q717.017 1496.13 713.249 1492.36 Q709.467 1488.58 706.619 1487.67 Q703.771 1486.74 701.844 1488.66 M699.88 1486.7 Q702.961 1483.62 707.025 1484.44 Q711.088 1485.24 715.728 1489.88 Q720.356 1494.51 721.167 1498.58 Q721.977 1502.63 718.896 1505.72 Q715.814 1508.8 711.751 1508 Q707.687 1507.18 703.059 1502.55 Q698.419 1497.91 697.609 1493.86 Q696.799 1489.78 699.88 1486.7 Z" fill="#000000" fill-rule="nonzero" fill-opacity="1" /><path clip-path="url(#clip890)" d="M861.549 1544.11 Q859.634 1546.03 860.554 1548.89 Q861.475 1551.73 865.256 1555.51 Q869.025 1559.28 871.873 1560.21 Q874.721 1561.12 876.636 1559.2 Q878.563 1557.27 877.643 1554.44 Q876.722 1551.58 872.953 1547.81 Q869.172 1544.03 866.324 1543.12 Q863.476 1542.19 861.549 1544.11 M859.584 1542.15 Q862.666 1539.07 866.729 1539.89 Q870.793 1540.69 875.433 1545.33 Q880.061 1549.96 880.871 1554.03 Q881.681 1558.08 878.6 1561.17 Q875.519 1564.25 871.455 1563.45 Q867.392 1562.63 862.764 1558 Q858.124 1553.36 857.313 1549.31 Q856.503 1545.23 859.584 1542.15 Z" fill="#000000" fill-rule="nonzero" fill-opacity="1" /><path clip-path="url(#clip890)" d="M885.818 1547 L888.409 1544.41 L891.527 1547.53 L888.937 1550.12 L885.818 1547 Z" fill="#000000" fill-rule="nonzero" fill-opacity="1" /><path clip-path="url(#clip890)" d="M878.625 1523.77 L888.36 1514.04 L890.447 1516.13 L882.983 1523.59 L887.476 1528.08 Q887.832 1527.36 888.286 1526.73 Q888.728 1526.09 889.268 1525.55 Q892.337 1522.48 895.811 1522.37 Q899.285 1522.26 902.158 1525.14 Q905.117 1528.09 904.92 1531.58 Q904.711 1535.05 901.36 1538.41 Q900.206 1539.56 898.807 1540.57 Q897.419 1541.56 895.75 1542.45 L893.258 1539.95 Q894.964 1539.45 896.437 1538.57 Q897.91 1537.68 899.224 1536.37 Q901.348 1534.24 901.471 1531.89 Q901.593 1529.53 899.678 1527.62 Q897.763 1525.7 895.406 1525.82 Q893.049 1525.95 890.925 1528.07 Q889.931 1529.06 889.158 1530.28 Q888.396 1531.48 887.832 1532.98 L878.625 1523.77 Z" fill="#000000" fill-rule="nonzero" fill-opacity="1" /><path clip-path="url(#clip890)" d="M893.97 1508.43 L905.755 1496.64 L906.811 1497.7 L917.429 1521.62 L914.839 1524.22 L904.859 1501.71 L896.057 1510.52 L893.97 1508.43 Z" fill="#000000" fill-rule="nonzero" fill-opacity="1" /><path clip-path="url(#clip890)" d="M910.616 1491.78 L920.351 1482.05 L922.438 1484.13 L914.974 1491.6 L919.467 1496.09 Q919.823 1495.37 920.277 1494.74 Q920.719 1494.1 921.26 1493.56 Q924.329 1490.49 927.803 1490.38 Q931.277 1490.27 934.149 1493.14 Q937.108 1496.1 936.912 1499.59 Q936.703 1503.06 933.352 1506.41 Q932.198 1507.57 930.798 1508.58 Q929.411 1509.57 927.741 1510.45 L925.249 1507.96 Q926.956 1507.46 928.429 1506.57 Q929.902 1505.69 931.215 1504.38 Q933.339 1502.25 933.462 1499.9 Q933.585 1497.54 931.67 1495.62 Q929.755 1493.71 927.398 1493.83 Q925.041 1493.95 922.917 1496.08 Q921.922 1497.07 921.149 1498.29 Q920.388 1499.49 919.823 1500.99 L910.616 1491.78 Z" fill="#000000" fill-rule="nonzero" fill-opacity="1" /><path clip-path="url(#clip890)" d="M1076.18 1544.64 Q1074.26 1546.56 1075.18 1549.42 Q1076.1 1552.25 1079.88 1556.03 Q1083.65 1559.8 1086.5 1560.74 Q1089.35 1561.65 1091.26 1559.73 Q1093.19 1557.8 1092.27 1554.97 Q1091.35 1552.11 1087.58 1548.34 Q1083.8 1544.56 1080.95 1543.65 Q1078.1 1542.72 1076.18 1544.64 M1074.21 1542.68 Q1077.29 1539.6 1081.36 1540.42 Q1085.42 1541.22 1090.06 1545.86 Q1094.69 1550.49 1095.5 1554.56 Q1096.31 1558.61 1093.23 1561.69 Q1090.15 1564.78 1086.08 1563.98 Q1082.02 1563.15 1077.39 1558.53 Q1072.75 1553.89 1071.94 1549.84 Q1071.13 1545.76 1074.21 1542.68 Z" fill="#000000" fill-rule="nonzero" fill-opacity="1" /><path clip-path="url(#clip890)" d="M1100.45 1547.53 L1103.04 1544.94 L1106.15 1548.06 L1103.56 1550.65 L1100.45 1547.53 Z" fill="#000000" fill-rule="nonzero" fill-opacity="1" /><path clip-path="url(#clip890)" d="M1107.01 1526.89 Q1105.34 1528.56 1105.5 1530.68 Q1105.68 1532.8 1107.66 1534.78 Q1109.64 1536.76 1111.76 1536.95 Q1113.89 1537.11 1115.56 1535.44 Q1117.23 1533.77 1117.06 1531.65 Q1116.88 1529.52 1114.91 1527.54 Q1112.92 1525.55 1110.8 1525.39 Q1108.68 1525.22 1107.01 1526.89 M1104.17 1514.2 L1106.42 1516.46 Q1105.05 1516.95 1103.86 1517.67 Q1102.68 1518.38 1101.75 1519.32 Q1099.29 1521.77 1099.65 1524.73 Q1100.02 1527.68 1103.18 1531.21 Q1102.84 1529.42 1103.37 1527.76 Q1103.88 1526.09 1105.2 1524.78 Q1107.96 1522.02 1111.24 1522.1 Q1114.51 1522.17 1117.4 1525.05 Q1120.22 1527.87 1120.26 1531.25 Q1120.3 1534.63 1117.52 1537.4 Q1114.34 1540.58 1110.23 1539.83 Q1106.11 1539.07 1101.48 1534.44 Q1097.13 1530.1 1096.62 1525.46 Q1096.09 1520.8 1099.56 1517.33 Q1100.5 1516.4 1101.62 1515.63 Q1102.77 1514.86 1104.17 1514.2 Z" fill="#000000" fill-rule="nonzero" fill-opacity="1" /><path clip-path="url(#clip890)" d="M1116.16 1504.66 Q1114.24 1506.57 1115.17 1509.43 Q1116.09 1512.27 1119.87 1516.05 Q1123.64 1519.82 1126.48 1520.75 Q1129.33 1521.66 1131.25 1519.75 Q1133.17 1517.82 1132.25 1514.98 Q1131.33 1512.12 1127.56 1508.35 Q1123.78 1504.57 1120.94 1503.67 Q1118.09 1502.73 1116.16 1504.66 M1114.2 1502.7 Q1117.28 1499.61 1121.34 1500.44 Q1125.4 1501.23 1130.04 1505.87 Q1134.67 1510.5 1135.48 1514.58 Q1136.29 1518.63 1133.21 1521.71 Q1130.13 1524.79 1126.07 1523.99 Q1122 1523.17 1117.38 1518.54 Q1112.73 1513.9 1111.92 1509.85 Q1111.11 1505.78 1114.2 1502.7 Z" fill="#000000" fill-rule="nonzero" fill-opacity="1" /><path clip-path="url(#clip890)" d="M1132.16 1488.66 Q1130.24 1490.58 1131.16 1493.44 Q1132.08 1496.27 1135.86 1500.06 Q1139.63 1503.82 1142.48 1504.76 Q1145.33 1505.67 1147.24 1503.75 Q1149.17 1501.82 1148.25 1498.99 Q1147.33 1496.13 1143.56 1492.36 Q1139.78 1488.58 1136.93 1487.67 Q1134.08 1486.74 1132.16 1488.66 M1130.19 1486.7 Q1133.27 1483.62 1137.34 1484.44 Q1141.4 1485.24 1146.04 1489.88 Q1150.67 1494.51 1151.48 1498.58 Q1152.29 1502.63 1149.21 1505.72 Q1146.13 1508.8 1142.06 1508 Q1138 1507.18 1133.37 1502.55 Q1128.73 1497.91 1127.92 1493.86 Q1127.11 1489.78 1130.19 1486.7 Z" fill="#000000" fill-rule="nonzero" fill-opacity="1" /><polyline clip-path="url(#clip890)" style="stroke:#000000; stroke-linecap:round; stroke-linejoin:round; stroke-width:4; stroke-opacity:1; fill:none" points="161.818,1456.91 161.818,892.306 "/>
<polyline clip-path="url(#clip890)" style="stroke:#000000; stroke-linecap:round; stroke-linejoin:round; stroke-width:4; stroke-opacity:1; fill:none" points="161.818,1440.94 180.716,1440.94 "/>
<polyline clip-path="url(#clip890)" style="stroke:#000000; stroke-linecap:round; stroke-linejoin:round; stroke-width:4; stroke-opacity:1; fill:none" points="161.818,1321.9 180.716,1321.9 "/>
<polyline clip-path="url(#clip890)" style="stroke:#000000; stroke-linecap:round; stroke-linejoin:round; stroke-width:4; stroke-opacity:1; fill:none" points="161.818,1202.86 180.716,1202.86 "/>
<polyline clip-path="url(#clip890)" style="stroke:#000000; stroke-linecap:round; stroke-linejoin:round; stroke-width:4; stroke-opacity:1; fill:none" points="161.818,1083.82 180.716,1083.82 "/>
<polyline clip-path="url(#clip890)" style="stroke:#000000; stroke-linecap:round; stroke-linejoin:round; stroke-width:4; stroke-opacity:1; fill:none" points="161.818,964.788 180.716,964.788 "/>
<path clip-path="url(#clip890)" d="M60.315 1430.28 Q57.6067 1430.28 56.2352 1432.96 Q54.881 1435.61 54.881 1440.96 Q54.881 1446.29 56.2352 1448.96 Q57.6067 1451.62 60.315 1451.62 Q63.0407 1451.62 64.3948 1448.96 Q65.7664 1446.29 65.7664 1440.96 Q65.7664 1435.61 64.3948 1432.96 Q63.0407 1430.28 60.315 1430.28 M60.315 1427.51 Q64.6726 1427.51 66.9643 1430.96 Q69.2733 1434.4 69.2733 1440.96 Q69.2733 1447.51 66.9643 1450.96 Q64.6726 1454.4 60.315 1454.4 Q55.9574 1454.4 53.6484 1450.96 Q51.3567 1447.51 51.3567 1440.96 Q51.3567 1434.4 53.6484 1430.96 Q55.9574 1427.51 60.315 1427.51 Z" fill="#000000" fill-rule="nonzero" fill-opacity="1" /><path clip-path="url(#clip890)" d="M75.4364 1449.49 L79.0996 1449.49 L79.0996 1453.9 L75.4364 1453.9 L75.4364 1449.49 Z" fill="#000000" fill-rule="nonzero" fill-opacity="1" /><path clip-path="url(#clip890)" d="M94.2384 1430.28 Q91.5301 1430.28 90.1586 1432.96 Q88.8044 1435.61 88.8044 1440.96 Q88.8044 1446.29 90.1586 1448.96 Q91.5301 1451.62 94.2384 1451.62 Q96.9641 1451.62 98.3183 1448.96 Q99.6898 1446.29 99.6898 1440.96 Q99.6898 1435.61 98.3183 1432.96 Q96.9641 1430.28 94.2384 1430.28 M94.2384 1427.51 Q98.596 1427.51 100.888 1430.96 Q103.197 1434.4 103.197 1440.96 Q103.197 1447.51 100.888 1450.96 Q98.596 1454.4 94.2384 1454.4 Q89.8808 1454.4 87.5718 1450.96 Q85.2801 1447.51 85.2801 1440.96 Q85.2801 1434.4 87.5718 1430.96 Q89.8808 1427.51 94.2384 1427.51 Z" fill="#000000" fill-rule="nonzero" fill-opacity="1" /><path clip-path="url(#clip890)" d="M116.86 1430.28 Q114.152 1430.28 112.78 1432.96 Q111.426 1435.61 111.426 1440.96 Q111.426 1446.29 112.78 1448.96 Q114.152 1451.62 116.86 1451.62 Q119.586 1451.62 120.94 1448.96 Q122.311 1446.29 122.311 1440.96 Q122.311 1435.61 120.94 1432.96 Q119.586 1430.28 116.86 1430.28 M116.86 1427.51 Q121.217 1427.51 123.509 1430.96 Q125.818 1434.4 125.818 1440.96 Q125.818 1447.51 123.509 1450.96 Q121.217 1454.4 116.86 1454.4 Q112.502 1454.4 110.193 1450.96 Q107.902 1447.51 107.902 1440.96 Q107.902 1434.4 110.193 1430.96 Q112.502 1427.51 116.86 1427.51 Z" fill="#000000" fill-rule="nonzero" fill-opacity="1" /><path clip-path="url(#clip890)" d="M61.2351 1311.25 Q58.5268 1311.25 57.1553 1313.92 Q55.8011 1316.58 55.8011 1321.92 Q55.8011 1327.25 57.1553 1329.93 Q58.5268 1332.58 61.2351 1332.58 Q63.9608 1332.58 65.315 1329.93 Q66.6865 1327.25 66.6865 1321.92 Q66.6865 1316.58 65.315 1313.92 Q63.9608 1311.25 61.2351 1311.25 M61.2351 1308.47 Q65.5927 1308.47 67.8844 1311.92 Q70.1934 1315.36 70.1934 1321.92 Q70.1934 1328.47 67.8844 1331.92 Q65.5927 1335.36 61.2351 1335.36 Q56.8775 1335.36 54.5685 1331.92 Q52.2768 1328.47 52.2768 1321.92 Q52.2768 1315.36 54.5685 1311.92 Q56.8775 1308.47 61.2351 1308.47 Z" fill="#000000" fill-rule="nonzero" fill-opacity="1" /><path clip-path="url(#clip890)" d="M76.3566 1330.45 L80.0197 1330.45 L80.0197 1334.86 L76.3566 1334.86 L76.3566 1330.45 Z" fill="#000000" fill-rule="nonzero" fill-opacity="1" /><path clip-path="url(#clip890)" d="M95.1586 1311.25 Q92.4502 1311.25 91.0787 1313.92 Q89.7246 1316.58 89.7246 1321.92 Q89.7246 1327.25 91.0787 1329.93 Q92.4502 1332.58 95.1586 1332.58 Q97.8842 1332.58 99.2384 1329.93 Q100.61 1327.25 100.61 1321.92 Q100.61 1316.58 99.2384 1313.92 Q97.8842 1311.25 95.1586 1311.25 M95.1586 1308.47 Q99.5162 1308.47 101.808 1311.92 Q104.117 1315.36 104.117 1321.92 Q104.117 1328.47 101.808 1331.92 Q99.5162 1335.36 95.1586 1335.36 Q90.8009 1335.36 88.4919 1331.92 Q86.2003 1328.47 86.2003 1321.92 Q86.2003 1315.36 88.4919 1311.92 Q90.8009 1308.47 95.1586 1308.47 Z" fill="#000000" fill-rule="nonzero" fill-opacity="1" /><path clip-path="url(#clip890)" d="M110.888 1331.91 L116.617 1331.91 L116.617 1312.13 L110.384 1313.38 L110.384 1310.19 L116.582 1308.94 L120.089 1308.94 L120.089 1331.91 L125.818 1331.91 L125.818 1334.86 L110.888 1334.86 L110.888 1331.91 Z" fill="#000000" fill-rule="nonzero" fill-opacity="1" /><path clip-path="url(#clip890)" d="M61.5129 1192.21 Q58.8046 1192.21 57.4331 1194.88 Q56.0789 1197.54 56.0789 1202.89 Q56.0789 1208.22 57.4331 1210.89 Q58.8046 1213.55 61.5129 1213.55 Q64.2386 1213.55 65.5927 1210.89 Q66.9643 1208.22 66.9643 1202.89 Q66.9643 1197.54 65.5927 1194.88 Q64.2386 1192.21 61.5129 1192.21 M61.5129 1189.43 Q65.8705 1189.43 68.1622 1192.89 Q70.4712 1196.32 70.4712 1202.89 Q70.4712 1209.43 68.1622 1212.89 Q65.8705 1216.32 61.5129 1216.32 Q57.1553 1216.32 54.8463 1212.89 Q52.5546 1209.43 52.5546 1202.89 Q52.5546 1196.32 54.8463 1192.89 Q57.1553 1189.43 61.5129 1189.43 Z" fill="#000000" fill-rule="nonzero" fill-opacity="1" /><path clip-path="url(#clip890)" d="M76.6343 1211.41 L80.2975 1211.41 L80.2975 1215.82 L76.6343 1215.82 L76.6343 1211.41 Z" fill="#000000" fill-rule="nonzero" fill-opacity="1" /><path clip-path="url(#clip890)" d="M95.4363 1192.21 Q92.728 1192.21 91.3565 1194.88 Q90.0023 1197.54 90.0023 1202.89 Q90.0023 1208.22 91.3565 1210.89 Q92.728 1213.55 95.4363 1213.55 Q98.162 1213.55 99.5162 1210.89 Q100.888 1208.22 100.888 1202.89 Q100.888 1197.54 99.5162 1194.88 Q98.162 1192.21 95.4363 1192.21 M95.4363 1189.43 Q99.7939 1189.43 102.086 1192.89 Q104.395 1196.32 104.395 1202.89 Q104.395 1209.43 102.086 1212.89 Q99.7939 1216.32 95.4363 1216.32 Q91.0787 1216.32 88.7697 1212.89 Q86.478 1209.43 86.478 1202.89 Q86.478 1196.32 88.7697 1192.89 Q91.0787 1189.43 95.4363 1189.43 Z" fill="#000000" fill-rule="nonzero" fill-opacity="1" /><path clip-path="url(#clip890)" d="M113.579 1212.87 L125.818 1212.87 L125.818 1215.82 L109.36 1215.82 L109.36 1212.87 Q111.356 1210.8 114.794 1207.33 Q118.249 1203.84 119.134 1202.84 Q120.818 1200.94 121.478 1199.64 Q122.155 1198.32 122.155 1197.05 Q122.155 1194.99 120.697 1193.69 Q119.256 1192.38 116.929 1192.38 Q115.28 1192.38 113.44 1192.96 Q111.617 1193.53 109.533 1194.69 L109.533 1191.15 Q111.652 1190.3 113.492 1189.87 Q115.332 1189.43 116.86 1189.43 Q120.888 1189.43 123.283 1191.45 Q125.679 1193.46 125.679 1196.83 Q125.679 1198.43 125.072 1199.87 Q124.481 1201.29 122.901 1203.23 Q122.467 1203.74 120.141 1206.15 Q117.815 1208.55 113.579 1212.87 Z" fill="#000000" fill-rule="nonzero" fill-opacity="1" /><path clip-path="url(#clip890)" d="M60.8011 1073.17 Q58.0928 1073.17 56.7213 1075.85 Q55.3671 1078.5 55.3671 1083.85 Q55.3671 1089.18 56.7213 1091.85 Q58.0928 1094.51 60.8011 1094.51 Q63.5268 1094.51 64.8809 1091.85 Q66.2525 1089.18 66.2525 1083.85 Q66.2525 1078.5 64.8809 1075.85 Q63.5268 1073.17 60.8011 1073.17 M60.8011 1070.4 Q65.1587 1070.4 67.4504 1073.85 Q69.7594 1077.29 69.7594 1083.85 Q69.7594 1090.4 67.4504 1093.85 Q65.1587 1097.29 60.8011 1097.29 Q56.4435 1097.29 54.1345 1093.85 Q51.8428 1090.4 51.8428 1083.85 Q51.8428 1077.29 54.1345 1073.85 Q56.4435 1070.4 60.8011 1070.4 Z" fill="#000000" fill-rule="nonzero" fill-opacity="1" /><path clip-path="url(#clip890)" d="M75.9225 1092.37 L79.5857 1092.37 L79.5857 1096.78 L75.9225 1096.78 L75.9225 1092.37 Z" fill="#000000" fill-rule="nonzero" fill-opacity="1" /><path clip-path="url(#clip890)" d="M94.7245 1073.17 Q92.0162 1073.17 90.6447 1075.85 Q89.2905 1078.5 89.2905 1083.85 Q89.2905 1089.18 90.6447 1091.85 Q92.0162 1094.51 94.7245 1094.51 Q97.4502 1094.51 98.8044 1091.85 Q100.176 1089.18 100.176 1083.85 Q100.176 1078.5 98.8044 1075.85 Q97.4502 1073.17 94.7245 1073.17 M94.7245 1070.4 Q99.0821 1070.4 101.374 1073.85 Q103.683 1077.29 103.683 1083.85 Q103.683 1090.4 101.374 1093.85 Q99.0821 1097.29 94.7245 1097.29 Q90.3669 1097.29 88.0579 1093.85 Q85.7662 1090.4 85.7662 1083.85 Q85.7662 1077.29 88.0579 1073.85 Q90.3669 1070.4 94.7245 1070.4 Z" fill="#000000" fill-rule="nonzero" fill-opacity="1" /><path clip-path="url(#clip890)" d="M120.471 1082.81 Q122.988 1083.35 124.395 1085.05 Q125.818 1086.75 125.818 1089.25 Q125.818 1093.09 123.179 1095.19 Q120.54 1097.29 115.679 1097.29 Q114.047 1097.29 112.311 1096.96 Q110.593 1096.65 108.752 1096 L108.752 1092.62 Q110.211 1093.47 111.947 1093.9 Q113.683 1094.34 115.575 1094.34 Q118.874 1094.34 120.592 1093.03 Q122.329 1091.73 122.329 1089.25 Q122.329 1086.96 120.714 1085.67 Q119.117 1084.37 116.252 1084.37 L113.231 1084.37 L113.231 1081.49 L116.391 1081.49 Q118.978 1081.49 120.349 1080.47 Q121.721 1079.42 121.721 1077.48 Q121.721 1075.48 120.297 1074.42 Q118.891 1073.35 116.252 1073.35 Q114.811 1073.35 113.162 1073.66 Q111.513 1073.97 109.533 1074.63 L109.533 1071.51 Q111.53 1070.95 113.266 1070.67 Q115.02 1070.4 116.565 1070.4 Q120.558 1070.4 122.884 1072.22 Q125.21 1074.02 125.21 1077.11 Q125.21 1079.27 123.978 1080.76 Q122.745 1082.24 120.471 1082.81 Z" fill="#000000" fill-rule="nonzero" fill-opacity="1" /><path clip-path="url(#clip890)" d="M59.9504 954.137 Q57.2421 954.137 55.8706 956.81 Q54.5164 959.467 54.5164 964.814 Q54.5164 970.144 55.8706 972.817 Q57.2421 975.473 59.9504 975.473 Q62.6761 975.473 64.0303 972.817 Q65.4018 970.144 65.4018 964.814 Q65.4018 959.467 64.0303 956.81 Q62.6761 954.137 59.9504 954.137 M59.9504 951.359 Q64.308 951.359 66.5997 954.814 Q68.9087 958.251 68.9087 964.814 Q68.9087 971.359 66.5997 974.814 Q64.308 978.251 59.9504 978.251 Q55.5928 978.251 53.2838 974.814 Q50.9921 971.359 50.9921 964.814 Q50.9921 958.251 53.2838 954.814 Q55.5928 951.359 59.9504 951.359 Z" fill="#000000" fill-rule="nonzero" fill-opacity="1" /><path clip-path="url(#clip890)" d="M75.0719 973.338 L78.735 973.338 L78.735 977.748 L75.0719 977.748 L75.0719 973.338 Z" fill="#000000" fill-rule="nonzero" fill-opacity="1" /><path clip-path="url(#clip890)" d="M93.8738 954.137 Q91.1655 954.137 89.794 956.81 Q88.4398 959.467 88.4398 964.814 Q88.4398 970.144 89.794 972.817 Q91.1655 975.473 93.8738 975.473 Q96.5995 975.473 97.9537 972.817 Q99.3252 970.144 99.3252 964.814 Q99.3252 959.467 97.9537 956.81 Q96.5995 954.137 93.8738 954.137 M93.8738 951.359 Q98.2315 951.359 100.523 954.814 Q102.832 958.251 102.832 964.814 Q102.832 971.359 100.523 974.814 Q98.2315 978.251 93.8738 978.251 Q89.5162 978.251 87.2072 974.814 Q84.9156 971.359 84.9156 964.814 Q84.9156 958.251 87.2072 954.814 Q89.5162 951.359 93.8738 951.359 Z" fill="#000000" fill-rule="nonzero" fill-opacity="1" /><path clip-path="url(#clip890)" d="M118.631 954.883 L109.777 968.72 L118.631 968.72 L118.631 954.883 M117.711 951.828 L122.12 951.828 L122.12 968.72 L125.818 968.72 L125.818 971.637 L122.12 971.637 L122.12 977.748 L118.631 977.748 L118.631 971.637 L106.929 971.637 L106.929 968.251 L117.711 951.828 Z" fill="#000000" fill-rule="nonzero" fill-opacity="1" /><path clip-path="url(#clip890)" d="M173.716 813.68 Q170.198 813.68 168.3 816.226 Q166.309 818.888 166.309 823.286 Q166.309 827.939 168.276 830.624 Q170.267 833.286 173.716 833.286 Q177.119 833.286 179.11 830.601 Q181.1 827.916 181.1 823.286 Q181.1 819.05 179.11 816.226 Q177.281 813.68 173.716 813.68 M173.716 810.3 L187.86 810.3 L187.86 814.559 L183.091 814.559 Q185.614 818.171 185.614 823.286 Q185.614 829.652 182.443 833.263 Q179.272 836.897 173.716 836.897 Q168.138 836.897 164.989 833.263 Q161.818 829.652 161.818 823.286 Q161.818 816.874 164.989 813.286 Q167.605 810.3 173.716 810.3 Z" fill="#000000" fill-rule="nonzero" fill-opacity="1" /><path clip-path="url(#clip890)" d="M198.878 836.226 L190.961 810.3 L195.545 810.3 L202.235 832.059 Q205.012 829.189 207.327 825.208 Q209.086 822.221 209.179 819.629 Q209.225 818.402 208.67 816.087 Q208.022 813.333 205.568 810.3 L209.873 810.3 L209.873 810.3 Q211.471 812.36 212.535 815.231 Q213.508 817.87 213.508 819.675 Q213.508 824.212 210.36 828.263 Q206.262 833.541 203.415 836.226 L198.878 836.226 Z" fill="#000000" fill-rule="nonzero" fill-opacity="1" /><polyline clip-path="url(#clip894)" style="stroke:#009af9; stroke-linecap:round; stroke-linejoin:round; stroke-width:4; stroke-opacity:1; fill:none" points="189.869,958.958 248.307,1016.43 306.746,1074.7 365.185,1133.76 423.623,1193.61 482.062,1254.26 540.501,1315.69 598.939,1377.92 657.378,1440.93 715.817,1377.13 774.256,1312.52 832.694,1247.13 891.133,1180.94 949.572,1113.97 1008.01,1046.2 1066.45,977.638 1124.89,908.286 "/>
<circle clip-path="url(#clip894)" cx="657.378" cy="1440.93" r="10.8" fill="#ff0000" fill-rule="evenodd" fill-opacity="1" stroke="#000000" stroke-opacity="1" stroke-width="3.2"/>
</svg>
