<?xml version="1.0" encoding="utf-8"?>
<svg xmlns="http://www.w3.org/2000/svg" xmlns:xlink="http://www.w3.org/1999/xlink" width="600" height="400" viewBox="0 0 2400 1600">
<defs>
  <clipPath id="clip940">
    <rect x="0" y="0" width="2400" height="1600"/>
  </clipPath>
</defs>
<path clip-path="url(#clip940)" d="M0 1600 L2400 1600 L2400 0 L0 0  Z" fill="#ffffff" fill-rule="evenodd" fill-opacity="1"/>
<defs>
  <clipPath id="clip941">
    <rect x="1597" y="897" width="756" height="588"/>
  </clipPath>
</defs>
<path clip-path="url(#clip940)" d="M128.138 667.406 L1152.76 667.406 L1152.76 97.5521 L128.138 97.5521  Z" fill="#ffffff" fill-rule="evenodd" fill-opacity="1"/>
<defs>
  <clipPath id="clip942">
    <rect x="128" y="97" width="1026" height="571"/>
  </clipPath>
</defs>
<polyline clip-path="url(#clip942)" style="stroke:#000000; stroke-linecap:round; stroke-linejoin:round; stroke-width:2; stroke-opacity:0.1; fill:none" points="285.817,667.406 285.817,97.5521 "/>
<polyline clip-path="url(#clip942)" style="stroke:#000000; stroke-linecap:round; stroke-linejoin:round; stroke-width:2; stroke-opacity:0.1; fill:none" points="488.462,667.406 488.462,97.5521 "/>
<polyline clip-path="url(#clip942)" style="stroke:#000000; stroke-linecap:round; stroke-linejoin:round; stroke-width:2; stroke-opacity:0.1; fill:none" points="691.108,667.406 691.108,97.5521 "/>
<polyline clip-path="url(#clip942)" style="stroke:#000000; stroke-linecap:round; stroke-linejoin:round; stroke-width:2; stroke-opacity:0.1; fill:none" points="893.754,667.406 893.754,97.5521 "/>
<polyline clip-path="url(#clip942)" style="stroke:#000000; stroke-linecap:round; stroke-linejoin:round; stroke-width:2; stroke-opacity:0.1; fill:none" points="1096.4,667.406 1096.4,97.5521 "/>
<polyline clip-path="url(#clip942)" style="stroke:#000000; stroke-linecap:round; stroke-linejoin:round; stroke-width:2; stroke-opacity:0.1; fill:none" points="128.138,667.406 1152.76,667.406 "/>
<polyline clip-path="url(#clip942)" style="stroke:#000000; stroke-linecap:round; stroke-linejoin:round; stroke-width:2; stroke-opacity:0.1; fill:none" points="128.138,540.772 1152.76,540.772 "/>
<polyline clip-path="url(#clip942)" style="stroke:#000000; stroke-linecap:round; stroke-linejoin:round; stroke-width:2; stroke-opacity:0.1; fill:none" points="128.138,414.138 1152.76,414.138 "/>
<polyline clip-path="url(#clip942)" style="stroke:#000000; stroke-linecap:round; stroke-linejoin:round; stroke-width:2; stroke-opacity:0.1; fill:none" points="128.138,287.504 1152.76,287.504 "/>
<polyline clip-path="url(#clip942)" style="stroke:#000000; stroke-linecap:round; stroke-linejoin:round; stroke-width:2; stroke-opacity:0.1; fill:none" points="128.138,160.869 1152.76,160.869 "/>
<polyline clip-path="url(#clip940)" style="stroke:#000000; stroke-linecap:round; stroke-linejoin:round; stroke-width:4; stroke-opacity:1; fill:none" points="128.138,667.406 1152.76,667.406 "/>
<polyline clip-path="url(#clip940)" style="stroke:#000000; stroke-linecap:round; stroke-linejoin:round; stroke-width:4; stroke-opacity:1; fill:none" points="285.817,667.406 285.817,648.509 "/>
<polyline clip-path="url(#clip940)" style="stroke:#000000; stroke-linecap:round; stroke-linejoin:round; stroke-width:4; stroke-opacity:1; fill:none" points="488.462,667.406 488.462,648.509 "/>
<polyline clip-path="url(#clip940)" style="stroke:#000000; stroke-linecap:round; stroke-linejoin:round; stroke-width:4; stroke-opacity:1; fill:none" points="691.108,667.406 691.108,648.509 "/>
<polyline clip-path="url(#clip940)" style="stroke:#000000; stroke-linecap:round; stroke-linejoin:round; stroke-width:4; stroke-opacity:1; fill:none" points="893.754,667.406 893.754,648.509 "/>
<polyline clip-path="url(#clip940)" style="stroke:#000000; stroke-linecap:round; stroke-linejoin:round; stroke-width:4; stroke-opacity:1; fill:none" points="1096.4,667.406 1096.4,648.509 "/>
<path clip-path="url(#clip940)" d="M232.446 738.66 Q230.531 740.575 231.452 743.435 Q232.373 746.271 236.154 750.052 Q239.922 753.821 242.77 754.754 Q245.618 755.662 247.534 753.747 Q249.461 751.82 248.54 748.984 Q247.619 746.124 243.851 742.355 Q240.07 738.574 237.222 737.666 Q234.374 736.733 232.446 738.66 M230.482 736.696 Q233.563 733.615 237.627 734.437 Q241.69 735.235 246.33 739.875 Q250.959 744.503 251.769 748.579 Q252.579 752.63 249.498 755.712 Q246.416 758.793 242.353 757.995 Q238.29 757.172 233.662 752.544 Q229.021 747.904 228.211 743.853 Q227.401 739.777 230.482 736.696 Z" fill="#000000" fill-rule="nonzero" fill-opacity="1" /><path clip-path="url(#clip940)" d="M256.716 741.545 L259.306 738.955 L262.424 742.073 L259.834 744.663 L256.716 741.545 Z" fill="#000000" fill-rule="nonzero" fill-opacity="1" /><path clip-path="url(#clip940)" d="M264.425 722.664 Q262.658 724.432 262.584 726.396 Q262.523 728.348 264.18 730.005 Q265.837 731.663 267.789 731.601 Q269.753 731.528 271.521 729.76 Q273.289 727.992 273.362 726.028 Q273.424 724.052 271.779 722.407 Q270.122 720.749 268.157 720.823 Q266.205 720.884 264.425 722.664 M260.89 724.088 Q258.901 725.291 256.912 725.095 Q254.936 724.886 253.365 723.315 Q251.167 721.118 251.45 718.282 Q251.744 715.434 254.47 712.708 Q257.207 709.971 260.043 709.688 Q262.879 709.406 265.076 711.604 Q266.647 713.175 266.844 715.164 Q267.052 717.14 265.862 719.117 Q268.071 717.742 270.281 717.963 Q272.503 718.171 274.259 719.927 Q276.922 722.591 276.714 725.647 Q276.517 728.692 273.485 731.724 Q270.453 734.756 267.396 734.965 Q264.352 735.161 261.688 732.497 Q259.932 730.742 259.724 728.52 Q259.515 726.298 260.89 724.088 M256.065 721.081 Q257.489 722.505 259.171 722.419 Q260.865 722.321 262.474 720.712 Q264.069 719.117 264.168 717.422 Q264.278 715.716 262.854 714.292 Q261.43 712.868 259.724 712.978 Q258.03 713.077 256.434 714.673 Q254.826 716.281 254.727 717.975 Q254.641 719.657 256.065 721.081 Z" fill="#000000" fill-rule="nonzero" fill-opacity="1" /><path clip-path="url(#clip940)" d="M264.867 702.973 L276.652 691.188 L277.708 692.244 L288.327 716.17 L285.737 718.761 L275.756 696.258 L266.954 705.06 L264.867 702.973 Z" fill="#000000" fill-rule="nonzero" fill-opacity="1" /><path clip-path="url(#clip940)" d="M434.662 739.09 Q432.747 741.005 433.668 743.865 Q434.589 746.701 438.37 750.482 Q442.139 754.251 444.987 755.184 Q447.835 756.092 449.75 754.177 Q451.677 752.25 450.756 749.414 Q449.836 746.554 446.067 742.785 Q442.286 739.004 439.438 738.095 Q436.59 737.162 434.662 739.09 M432.698 737.126 Q435.78 734.044 439.843 734.867 Q443.906 735.665 448.547 740.305 Q453.175 744.933 453.985 749.009 Q454.795 753.06 451.714 756.141 Q448.633 759.223 444.569 758.425 Q440.506 757.602 435.878 752.974 Q431.237 748.334 430.427 744.283 Q429.617 740.207 432.698 737.126 Z" fill="#000000" fill-rule="nonzero" fill-opacity="1" /><path clip-path="url(#clip940)" d="M458.932 741.975 L461.523 739.384 L464.641 742.502 L462.05 745.093 L458.932 741.975 Z" fill="#000000" fill-rule="nonzero" fill-opacity="1" /><path clip-path="url(#clip940)" d="M466.642 723.094 Q464.874 724.862 464.8 726.826 Q464.739 728.778 466.396 730.435 Q468.053 732.092 470.005 732.031 Q471.969 731.957 473.737 730.19 Q475.505 728.422 475.579 726.458 Q475.64 724.481 473.995 722.836 Q472.338 721.179 470.374 721.253 Q468.422 721.314 466.642 723.094 M463.106 724.518 Q461.117 725.721 459.129 725.525 Q457.152 725.316 455.581 723.745 Q453.383 721.547 453.666 718.711 Q453.96 715.863 456.686 713.138 Q459.423 710.4 462.259 710.118 Q465.095 709.836 467.292 712.033 Q468.864 713.605 469.06 715.593 Q469.269 717.57 468.078 719.546 Q470.288 718.171 472.497 718.392 Q474.719 718.601 476.475 720.356 Q479.139 723.02 478.93 726.077 Q478.734 729.122 475.701 732.154 Q472.669 735.186 469.612 735.395 Q466.568 735.591 463.904 732.927 Q462.149 731.172 461.94 728.95 Q461.731 726.728 463.106 724.518 M458.282 721.51 Q459.706 722.934 461.387 722.848 Q463.082 722.75 464.69 721.142 Q466.286 719.546 466.384 717.852 Q466.494 716.146 465.07 714.722 Q463.646 713.298 461.94 713.408 Q460.246 713.506 458.65 715.102 Q457.042 716.71 456.944 718.405 Q456.858 720.086 458.282 721.51 Z" fill="#000000" fill-rule="nonzero" fill-opacity="1" /><path clip-path="url(#clip940)" d="M482.637 707.098 Q480.87 708.866 480.796 710.83 Q480.735 712.782 482.392 714.439 Q484.049 716.097 486.001 716.035 Q487.965 715.962 489.733 714.194 Q491.501 712.426 491.574 710.462 Q491.636 708.485 489.991 706.84 Q488.334 705.183 486.369 705.257 Q484.417 705.318 482.637 707.098 M479.102 708.522 Q477.113 709.725 475.124 709.529 Q473.148 709.32 471.577 707.749 Q469.379 705.551 469.662 702.716 Q469.956 699.868 472.681 697.142 Q475.419 694.405 478.255 694.122 Q481.091 693.84 483.288 696.037 Q484.859 697.609 485.056 699.598 Q485.264 701.574 484.074 703.55 Q486.283 702.176 488.493 702.396 Q490.715 702.605 492.471 704.361 Q495.134 707.025 494.926 710.081 Q494.729 713.126 491.697 716.158 Q488.665 719.19 485.608 719.399 Q482.564 719.595 479.9 716.931 Q478.144 715.176 477.936 712.954 Q477.727 710.732 479.102 708.522 M474.277 705.515 Q475.701 706.939 477.383 706.853 Q479.077 706.754 480.685 705.146 Q482.281 703.55 482.38 701.856 Q482.49 700.15 481.066 698.726 Q479.642 697.302 477.936 697.412 Q476.242 697.511 474.646 699.106 Q473.037 700.715 472.939 702.409 Q472.853 704.091 474.277 705.515 Z" fill="#000000" fill-rule="nonzero" fill-opacity="1" /><path clip-path="url(#clip940)" d="M637.357 739.041 Q635.442 740.956 636.363 743.816 Q637.284 746.652 641.065 750.433 Q644.834 754.202 647.682 755.135 Q650.53 756.043 652.445 754.128 Q654.372 752.201 653.451 749.365 Q652.531 746.504 648.762 742.736 Q644.981 738.955 642.133 738.046 Q639.285 737.113 637.357 739.041 M635.393 737.076 Q638.475 733.995 642.538 734.818 Q646.601 735.616 651.242 740.256 Q655.87 744.884 656.68 748.96 Q657.49 753.011 654.409 756.092 Q651.328 759.173 647.264 758.375 Q643.201 757.553 638.573 752.925 Q633.932 748.285 633.122 744.233 Q632.312 740.158 635.393 737.076 Z" fill="#000000" fill-rule="nonzero" fill-opacity="1" /><path clip-path="url(#clip940)" d="M661.627 741.926 L664.218 739.335 L667.336 742.453 L664.745 745.044 L661.627 741.926 Z" fill="#000000" fill-rule="nonzero" fill-opacity="1" /><path clip-path="url(#clip940)" d="M669.337 723.045 Q667.569 724.813 667.495 726.777 Q667.434 728.729 669.091 730.386 Q670.748 732.043 672.7 731.982 Q674.664 731.908 676.432 730.14 Q678.2 728.373 678.274 726.409 Q678.335 724.432 676.69 722.787 Q675.033 721.13 673.069 721.203 Q671.117 721.265 669.337 723.045 M665.801 724.469 Q663.812 725.672 661.824 725.476 Q659.847 725.267 658.276 723.696 Q656.078 721.498 656.361 718.662 Q656.655 715.814 659.381 713.089 Q662.118 710.351 664.954 710.069 Q667.79 709.787 669.987 711.984 Q671.559 713.555 671.755 715.544 Q671.964 717.521 670.773 719.497 Q672.983 718.122 675.192 718.343 Q677.414 718.552 679.17 720.307 Q681.834 722.971 681.625 726.028 Q681.429 729.072 678.396 732.105 Q675.364 735.137 672.307 735.346 Q669.263 735.542 666.599 732.878 Q664.844 731.123 664.635 728.901 Q664.426 726.679 665.801 724.469 M660.977 721.461 Q662.401 722.885 664.082 722.799 Q665.777 722.701 667.385 721.093 Q668.981 719.497 669.079 717.803 Q669.189 716.097 667.765 714.673 Q666.341 713.249 664.635 713.359 Q662.941 713.457 661.345 715.053 Q659.737 716.661 659.639 718.355 Q659.553 720.037 660.977 721.461 Z" fill="#000000" fill-rule="nonzero" fill-opacity="1" /><path clip-path="url(#clip940)" d="M688.426 720.602 L686.167 718.343 Q687.542 717.852 688.733 717.128 Q689.924 716.404 690.844 715.483 Q693.3 713.028 692.944 710.094 Q692.588 707.135 689.408 703.587 Q689.752 705.355 689.224 707.012 Q688.696 708.67 687.37 709.995 Q684.62 712.745 681.355 712.696 Q678.089 712.622 675.205 709.738 Q672.381 706.914 672.344 703.538 Q672.307 700.162 675.082 697.388 Q678.261 694.208 682.374 694.982 Q686.486 695.731 691.127 700.371 Q695.46 704.704 695.988 709.357 Q696.516 713.985 693.042 717.459 Q692.109 718.392 690.967 719.166 Q689.825 719.939 688.426 720.602 M685.59 707.896 Q687.26 706.227 687.088 704.115 Q686.928 701.991 684.94 700.003 Q682.963 698.026 680.839 697.867 Q678.716 697.682 677.046 699.352 Q675.376 701.022 675.548 703.158 Q675.72 705.269 677.697 707.246 Q679.685 709.234 681.797 709.406 Q683.921 709.566 685.59 707.896 Z" fill="#000000" fill-rule="nonzero" fill-opacity="1" /><path clip-path="url(#clip940)" d="M839.905 739.139 Q837.99 741.054 838.911 743.914 Q839.831 746.75 843.612 750.531 Q847.381 754.3 850.229 755.233 Q853.077 756.141 854.992 754.226 Q856.92 752.299 855.999 749.463 Q855.078 746.603 851.31 742.834 Q847.529 739.053 844.681 738.144 Q841.832 737.211 839.905 739.139 M837.941 737.175 Q841.022 734.093 845.086 734.916 Q849.149 735.714 853.789 740.354 Q858.417 744.982 859.228 749.058 Q860.038 753.109 856.957 756.19 Q853.875 759.272 849.812 758.474 Q845.749 757.651 841.12 753.023 Q836.48 748.383 835.67 744.332 Q834.86 740.256 837.941 737.175 Z" fill="#000000" fill-rule="nonzero" fill-opacity="1" /><path clip-path="url(#clip940)" d="M864.175 742.024 L866.765 739.433 L869.883 742.552 L867.293 745.142 L864.175 742.024 Z" fill="#000000" fill-rule="nonzero" fill-opacity="1" /><path clip-path="url(#clip940)" d="M874.978 736.696 L872.719 734.437 Q874.094 733.946 875.285 733.222 Q876.476 732.497 877.396 731.577 Q879.852 729.122 879.496 726.188 Q879.139 723.229 875.96 719.681 Q876.304 721.449 875.776 723.106 Q875.248 724.764 873.922 726.089 Q871.172 728.839 867.907 728.79 Q864.641 728.716 861.757 725.832 Q858.933 723.008 858.896 719.632 Q858.859 716.256 861.634 713.482 Q864.813 710.302 868.926 711.076 Q873.038 711.825 877.679 716.465 Q882.012 720.798 882.54 725.451 Q883.068 730.079 879.594 733.553 Q878.661 734.486 877.519 735.26 Q876.377 736.033 874.978 736.696 M872.142 723.99 Q873.812 722.321 873.64 720.209 Q873.48 718.085 871.491 716.097 Q869.515 714.12 867.391 713.961 Q865.268 713.776 863.598 715.446 Q861.928 717.116 862.1 719.252 Q862.272 721.363 864.249 723.339 Q866.237 725.328 868.349 725.5 Q870.473 725.66 872.142 723.99 Z" fill="#000000" fill-rule="nonzero" fill-opacity="1" /><path clip-path="url(#clip940)" d="M879.888 699.156 Q877.973 701.071 878.894 703.931 Q879.815 706.767 883.596 710.548 Q887.364 714.317 890.213 715.25 Q893.061 716.158 894.976 714.243 Q896.903 712.316 895.982 709.48 Q895.062 706.619 891.293 702.851 Q887.512 699.07 884.664 698.161 Q881.816 697.228 879.888 699.156 M877.924 697.191 Q881.005 694.11 885.069 694.933 Q889.132 695.731 893.773 700.371 Q898.401 704.999 899.211 709.075 Q900.021 713.126 896.94 716.207 Q893.859 719.288 889.795 718.49 Q885.732 717.668 881.104 713.04 Q876.463 708.399 875.653 704.348 Q874.843 700.273 877.924 697.191 Z" fill="#000000" fill-rule="nonzero" fill-opacity="1" /><path clip-path="url(#clip940)" d="M1043.2 738.488 Q1041.29 740.403 1042.21 743.264 Q1043.13 746.099 1046.91 749.88 Q1050.68 753.649 1053.53 754.582 Q1056.37 755.491 1058.29 753.576 Q1060.22 751.648 1059.3 748.812 Q1058.37 745.952 1054.61 742.183 Q1050.83 738.402 1047.98 737.494 Q1045.13 736.561 1043.2 738.488 M1041.24 736.524 Q1044.32 733.443 1048.38 734.265 Q1052.45 735.063 1057.09 739.704 Q1061.71 744.332 1062.52 748.407 Q1063.33 752.458 1060.25 755.54 Q1057.17 758.621 1053.11 757.823 Q1049.05 757.001 1044.42 752.372 Q1039.78 747.732 1038.97 743.681 Q1038.16 739.605 1041.24 736.524 Z" fill="#000000" fill-rule="nonzero" fill-opacity="1" /><path clip-path="url(#clip940)" d="M1067.47 741.373 L1070.06 738.783 L1073.18 741.901 L1070.59 744.491 L1067.47 741.373 Z" fill="#000000" fill-rule="nonzero" fill-opacity="1" /><path clip-path="url(#clip940)" d="M1078.27 736.045 L1076.02 733.786 Q1077.39 733.295 1078.58 732.571 Q1079.77 731.847 1080.69 730.926 Q1083.15 728.471 1082.79 725.537 Q1082.44 722.578 1079.26 719.031 Q1079.6 720.798 1079.07 722.456 Q1078.54 724.113 1077.22 725.439 Q1074.47 728.189 1071.2 728.139 Q1067.94 728.066 1065.05 725.181 Q1062.23 722.357 1062.19 718.981 Q1062.16 715.606 1064.93 712.831 Q1068.11 709.652 1072.22 710.425 Q1076.33 711.174 1080.98 715.814 Q1085.31 720.148 1085.84 724.8 Q1086.36 729.428 1082.89 732.903 Q1081.96 733.836 1080.82 734.609 Q1079.67 735.382 1078.27 736.045 M1075.44 723.339 Q1077.11 721.67 1076.94 719.558 Q1076.78 717.435 1074.79 715.446 Q1072.81 713.47 1070.69 713.31 Q1068.56 713.126 1066.89 714.795 Q1065.22 716.465 1065.4 718.601 Q1065.57 720.712 1067.55 722.689 Q1069.53 724.678 1071.65 724.849 Q1073.77 725.009 1075.44 723.339 Z" fill="#000000" fill-rule="nonzero" fill-opacity="1" /><path clip-path="url(#clip940)" d="M1092.92 717.987 L1096.97 713.936 L1082.99 699.954 L1079.47 705.245 L1077.21 702.986 L1080.71 697.719 L1083.18 695.24 L1099.43 711.481 L1103.48 707.43 L1105.56 709.517 L1095.01 720.074 L1092.92 717.987 Z" fill="#000000" fill-rule="nonzero" fill-opacity="1" /><polyline clip-path="url(#clip940)" style="stroke:#000000; stroke-linecap:round; stroke-linejoin:round; stroke-width:4; stroke-opacity:1; fill:none" points="128.138,667.406 128.138,97.5521 "/>
<polyline clip-path="url(#clip940)" style="stroke:#000000; stroke-linecap:round; stroke-linejoin:round; stroke-width:4; stroke-opacity:1; fill:none" points="128.138,667.406 147.035,667.406 "/>
<polyline clip-path="url(#clip940)" style="stroke:#000000; stroke-linecap:round; stroke-linejoin:round; stroke-width:4; stroke-opacity:1; fill:none" points="128.138,540.772 147.035,540.772 "/>
<polyline clip-path="url(#clip940)" style="stroke:#000000; stroke-linecap:round; stroke-linejoin:round; stroke-width:4; stroke-opacity:1; fill:none" points="128.138,414.138 147.035,414.138 "/>
<polyline clip-path="url(#clip940)" style="stroke:#000000; stroke-linecap:round; stroke-linejoin:round; stroke-width:4; stroke-opacity:1; fill:none" points="128.138,287.504 147.035,287.504 "/>
<polyline clip-path="url(#clip940)" style="stroke:#000000; stroke-linecap:round; stroke-linejoin:round; stroke-width:4; stroke-opacity:1; fill:none" points="128.138,160.869 147.035,160.869 "/>
<path clip-path="url(#clip940)" d="M83.1795 656.755 Q80.4711 656.755 79.0996 659.429 Q77.7455 662.085 77.7455 667.432 Q77.7455 672.762 79.0996 675.436 Q80.4711 678.092 83.1795 678.092 Q85.9051 678.092 87.2593 675.436 Q88.6308 672.762 88.6308 667.432 Q88.6308 662.085 87.2593 659.429 Q85.9051 656.755 83.1795 656.755 M83.1795 653.978 Q87.5371 653.978 89.8287 657.432 Q92.1377 660.87 92.1377 667.432 Q92.1377 673.978 89.8287 677.432 Q87.5371 680.87 83.1795 680.87 Q78.8218 680.87 76.5128 677.432 Q74.2212 673.978 74.2212 667.432 Q74.2212 660.87 76.5128 657.432 Q78.8218 653.978 83.1795 653.978 Z" fill="#000000" fill-rule="nonzero" fill-opacity="1" /><path clip-path="url(#clip940)" d="M53.6657 550.781 L59.3949 550.781 L59.3949 531.007 L53.1623 532.257 L53.1623 529.062 L59.3601 527.812 L62.8671 527.812 L62.8671 550.781 L68.5962 550.781 L68.5962 553.732 L53.6657 553.732 L53.6657 550.781 Z" fill="#000000" fill-rule="nonzero" fill-opacity="1" /><path clip-path="url(#clip940)" d="M83.1795 530.121 Q80.4711 530.121 79.0996 532.795 Q77.7455 535.451 77.7455 540.798 Q77.7455 546.128 79.0996 548.802 Q80.4711 551.458 83.1795 551.458 Q85.9051 551.458 87.2593 548.802 Q88.6308 546.128 88.6308 540.798 Q88.6308 535.451 87.2593 532.795 Q85.9051 530.121 83.1795 530.121 M83.1795 527.343 Q87.5371 527.343 89.8287 530.798 Q92.1377 534.236 92.1377 540.798 Q92.1377 547.343 89.8287 550.798 Q87.5371 554.236 83.1795 554.236 Q78.8218 554.236 76.5128 550.798 Q74.2212 547.343 74.2212 540.798 Q74.2212 534.236 76.5128 530.798 Q78.8218 527.343 83.1795 527.343 Z" fill="#000000" fill-rule="nonzero" fill-opacity="1" /><path clip-path="url(#clip940)" d="M56.0789 424.146 L68.3184 424.146 L68.3184 427.098 L51.8602 427.098 L51.8602 424.146 Q53.8567 422.08 57.2942 418.608 Q60.749 415.119 61.6344 414.112 Q63.3184 412.219 63.9782 410.917 Q64.6552 409.598 64.6552 408.331 Q64.6552 406.265 63.1969 404.963 Q61.756 403.66 59.4296 403.66 Q57.7803 403.66 55.94 404.233 Q54.1171 404.806 52.0338 405.969 L52.0338 402.428 Q54.1518 401.577 55.9921 401.143 Q57.8324 400.709 59.3601 400.709 Q63.3879 400.709 65.7837 402.723 Q68.1795 404.737 68.1795 408.105 Q68.1795 409.702 67.5719 411.143 Q66.9816 412.567 65.4018 414.511 Q64.9677 415.015 62.6414 417.428 Q60.315 419.824 56.0789 424.146 Z" fill="#000000" fill-rule="nonzero" fill-opacity="1" /><path clip-path="url(#clip940)" d="M83.1795 403.487 Q80.4711 403.487 79.0996 406.16 Q77.7455 408.817 77.7455 414.164 Q77.7455 419.494 79.0996 422.167 Q80.4711 424.824 83.1795 424.824 Q85.9051 424.824 87.2593 422.167 Q88.6308 419.494 88.6308 414.164 Q88.6308 408.817 87.2593 406.16 Q85.9051 403.487 83.1795 403.487 M83.1795 400.709 Q87.5371 400.709 89.8287 404.164 Q92.1377 407.601 92.1377 414.164 Q92.1377 420.709 89.8287 424.164 Q87.5371 427.601 83.1795 427.601 Q78.8218 427.601 76.5128 424.164 Q74.2212 420.709 74.2212 414.164 Q74.2212 407.601 76.5128 404.164 Q78.8218 400.709 83.1795 400.709 Z" fill="#000000" fill-rule="nonzero" fill-opacity="1" /><path clip-path="url(#clip940)" d="M63.683 286.488 Q66.2004 287.026 67.6066 288.727 Q69.0302 290.429 69.0302 292.929 Q69.0302 296.766 66.3913 298.866 Q63.7525 300.967 58.8914 300.967 Q57.2595 300.967 55.5234 300.637 Q53.8046 300.325 51.9643 299.682 L51.9643 296.297 Q53.4227 297.148 55.1588 297.582 Q56.8949 298.016 58.7872 298.016 Q62.0858 298.016 63.8046 296.714 Q65.5407 295.411 65.5407 292.929 Q65.5407 290.637 63.9261 289.352 Q62.3289 288.05 59.4643 288.05 L56.4435 288.05 L56.4435 285.168 L59.6032 285.168 Q62.19 285.168 63.5615 284.144 Q64.933 283.103 64.933 281.158 Q64.933 279.162 63.5094 278.103 Q62.1032 277.026 59.4643 277.026 Q58.0233 277.026 56.374 277.339 Q54.7247 277.651 52.7456 278.311 L52.7456 275.186 Q54.7421 274.63 56.4782 274.353 Q58.2317 274.075 59.7768 274.075 Q63.7698 274.075 66.0962 275.898 Q68.4226 277.703 68.4226 280.794 Q68.4226 282.946 67.19 284.439 Q65.9573 285.915 63.683 286.488 Z" fill="#000000" fill-rule="nonzero" fill-opacity="1" /><path clip-path="url(#clip940)" d="M83.1795 276.853 Q80.4711 276.853 79.0996 279.526 Q77.7455 282.182 77.7455 287.53 Q77.7455 292.859 79.0996 295.533 Q80.4711 298.189 83.1795 298.189 Q85.9051 298.189 87.2593 295.533 Q88.6308 292.859 88.6308 287.53 Q88.6308 282.182 87.2593 279.526 Q85.9051 276.853 83.1795 276.853 M83.1795 274.075 Q87.5371 274.075 89.8287 277.53 Q92.1377 280.967 92.1377 287.53 Q92.1377 294.075 89.8287 297.53 Q87.5371 300.967 83.1795 300.967 Q78.8218 300.967 76.5128 297.53 Q74.2212 294.075 74.2212 287.53 Q74.2212 280.967 76.5128 277.53 Q78.8218 274.075 83.1795 274.075 Z" fill="#000000" fill-rule="nonzero" fill-opacity="1" /><path clip-path="url(#clip940)" d="M62.6935 150.965 L53.8393 164.802 L62.6935 164.802 L62.6935 150.965 M61.7733 147.909 L66.183 147.909 L66.183 164.802 L69.8809 164.802 L69.8809 167.718 L66.183 167.718 L66.183 173.829 L62.6935 173.829 L62.6935 167.718 L50.9921 167.718 L50.9921 164.333 L61.7733 147.909 Z" fill="#000000" fill-rule="nonzero" fill-opacity="1" /><path clip-path="url(#clip940)" d="M83.1795 150.218 Q80.4711 150.218 79.0996 152.892 Q77.7455 155.548 77.7455 160.895 Q77.7455 166.225 79.0996 168.899 Q80.4711 171.555 83.1795 171.555 Q85.9051 171.555 87.2593 168.899 Q88.6308 166.225 88.6308 160.895 Q88.6308 155.548 87.2593 152.892 Q85.9051 150.218 83.1795 150.218 M83.1795 147.441 Q87.5371 147.441 89.8287 150.895 Q92.1377 154.333 92.1377 160.895 Q92.1377 167.44 89.8287 170.895 Q87.5371 174.333 83.1795 174.333 Q78.8218 174.333 76.5128 170.895 Q74.2212 167.44 74.2212 160.895 Q74.2212 154.333 76.5128 150.895 Q78.8218 147.441 83.1795 147.441 Z" fill="#000000" fill-rule="nonzero" fill-opacity="1" /><path clip-path="url(#clip940)" d="M130.221 20.1758 Q131.633 17.8147 135.128 15.7314 Q136.494 14.9212 140.707 14.9212 Q145.429 14.9212 148.369 18.6712 Q151.332 22.4212 151.332 28.5323 Q151.332 34.6433 148.369 38.3933 Q145.429 42.1433 140.707 42.1433 Q137.86 42.1433 135.8 41.0322 Q133.763 39.8979 132.42 37.5831 L132.42 51.3331 L128.138 51.3331 L128.138 28.7637 Q128.138 23.4165 130.221 20.1758 M146.911 28.5323 Q146.911 23.8332 144.966 21.1712 Q143.045 18.486 139.665 18.486 Q136.286 18.486 134.341 21.1712 Q132.42 23.8332 132.42 28.5323 Q132.42 33.2313 134.341 35.9165 Q136.286 38.5785 139.665 38.5785 Q143.045 38.5785 144.966 35.9165 Q146.911 33.2313 146.911 28.5323 Z" fill="#000000" fill-rule="nonzero" fill-opacity="1" /><path clip-path="url(#clip942)" d="M184.494 654.743 L184.494 667.406 L285.817 667.406 L285.817 654.743 L184.494 654.743 L184.494 654.743  Z" fill="#009af9" fill-rule="evenodd" fill-opacity="1"/>
<polyline clip-path="url(#clip942)" style="stroke:#000000; stroke-linecap:round; stroke-linejoin:round; stroke-width:4; stroke-opacity:1; fill:none" points="184.494,654.743 184.494,667.406 285.817,667.406 285.817,654.743 184.494,654.743 "/>
<path clip-path="url(#clip942)" d="M285.817 578.762 L285.817 667.406 L387.139 667.406 L387.139 578.762 L285.817 578.762 L285.817 578.762  Z" fill="#009af9" fill-rule="evenodd" fill-opacity="1"/>
<polyline clip-path="url(#clip942)" style="stroke:#000000; stroke-linecap:round; stroke-linejoin:round; stroke-width:4; stroke-opacity:1; fill:none" points="285.817,578.762 285.817,667.406 387.139,667.406 387.139,578.762 285.817,578.762 "/>
<path clip-path="url(#clip942)" d="M387.139 464.792 L387.139 667.406 L488.462 667.406 L488.462 464.792 L387.139 464.792 L387.139 464.792  Z" fill="#009af9" fill-rule="evenodd" fill-opacity="1"/>
<polyline clip-path="url(#clip942)" style="stroke:#000000; stroke-linecap:round; stroke-linejoin:round; stroke-width:4; stroke-opacity:1; fill:none" points="387.139,464.792 387.139,667.406 488.462,667.406 488.462,464.792 387.139,464.792 "/>
<path clip-path="url(#clip942)" d="M488.462 287.504 L488.462 667.406 L589.785 667.406 L589.785 287.504 L488.462 287.504 L488.462 287.504  Z" fill="#009af9" fill-rule="evenodd" fill-opacity="1"/>
<polyline clip-path="url(#clip942)" style="stroke:#000000; stroke-linecap:round; stroke-linejoin:round; stroke-width:4; stroke-opacity:1; fill:none" points="488.462,287.504 488.462,667.406 589.785,667.406 589.785,287.504 488.462,287.504 "/>
<path clip-path="url(#clip942)" d="M589.785 97.5521 L589.785 667.406 L691.108 667.406 L691.108 97.5521 L589.785 97.5521 L589.785 97.5521  Z" fill="#009af9" fill-rule="evenodd" fill-opacity="1"/>
<polyline clip-path="url(#clip942)" style="stroke:#000000; stroke-linecap:round; stroke-linejoin:round; stroke-width:4; stroke-opacity:1; fill:none" points="589.785,97.5521 589.785,667.406 691.108,667.406 691.108,97.5521 589.785,97.5521 "/>
<path clip-path="url(#clip942)" d="M691.108 287.504 L691.108 667.406 L792.431 667.406 L792.431 287.504 L691.108 287.504 L691.108 287.504  Z" fill="#009af9" fill-rule="evenodd" fill-opacity="1"/>
<polyline clip-path="url(#clip942)" style="stroke:#000000; stroke-linecap:round; stroke-linejoin:round; stroke-width:4; stroke-opacity:1; fill:none" points="691.108,287.504 691.108,667.406 792.431,667.406 792.431,287.504 691.108,287.504 "/>
<path clip-path="url(#clip942)" d="M792.431 160.869 L792.431 667.406 L893.754 667.406 L893.754 160.869 L792.431 160.869 L792.431 160.869  Z" fill="#009af9" fill-rule="evenodd" fill-opacity="1"/>
<polyline clip-path="url(#clip942)" style="stroke:#000000; stroke-linecap:round; stroke-linejoin:round; stroke-width:4; stroke-opacity:1; fill:none" points="792.431,160.869 792.431,667.406 893.754,667.406 893.754,160.869 792.431,160.869 "/>
<path clip-path="url(#clip942)" d="M893.754 439.465 L893.754 667.406 L995.077 667.406 L995.077 439.465 L893.754 439.465 L893.754 439.465  Z" fill="#009af9" fill-rule="evenodd" fill-opacity="1"/>
<polyline clip-path="url(#clip942)" style="stroke:#000000; stroke-linecap:round; stroke-linejoin:round; stroke-width:4; stroke-opacity:1; fill:none" points="893.754,439.465 893.754,667.406 995.077,667.406 995.077,439.465 893.754,439.465 "/>
<path clip-path="url(#clip942)" d="M995.077 553.436 L995.077 667.406 L1096.4 667.406 L1096.4 553.436 L995.077 553.436 L995.077 553.436  Z" fill="#009af9" fill-rule="evenodd" fill-opacity="1"/>
<polyline clip-path="url(#clip942)" style="stroke:#000000; stroke-linecap:round; stroke-linejoin:round; stroke-width:4; stroke-opacity:1; fill:none" points="995.077,553.436 995.077,667.406 1096.4,667.406 1096.4,553.436 995.077,553.436 "/>
<circle clip-path="url(#clip942)" style="fill:#009af9; stroke:none; fill-opacity:0" cx="235.155" cy="654.743" r="2"/>
<circle clip-path="url(#clip942)" style="fill:#009af9; stroke:none; fill-opacity:0" cx="336.478" cy="578.762" r="2"/>
<circle clip-path="url(#clip942)" style="fill:#009af9; stroke:none; fill-opacity:0" cx="437.801" cy="464.792" r="2"/>
<circle clip-path="url(#clip942)" style="fill:#009af9; stroke:none; fill-opacity:0" cx="539.124" cy="287.504" r="2"/>
<circle clip-path="url(#clip942)" style="fill:#009af9; stroke:none; fill-opacity:0" cx="640.447" cy="97.5521" r="2"/>
<circle clip-path="url(#clip942)" style="fill:#009af9; stroke:none; fill-opacity:0" cx="741.77" cy="287.504" r="2"/>
<circle clip-path="url(#clip942)" style="fill:#009af9; stroke:none; fill-opacity:0" cx="843.093" cy="160.869" r="2"/>
<circle clip-path="url(#clip942)" style="fill:#009af9; stroke:none; fill-opacity:0" cx="944.416" cy="439.465" r="2"/>
<circle clip-path="url(#clip942)" style="fill:#009af9; stroke:none; fill-opacity:0" cx="1045.74" cy="553.436" r="2"/>
<polyline clip-path="url(#clip942)" style="stroke:#ff0000; stroke-linecap:round; stroke-linejoin:round; stroke-width:8; stroke-opacity:1; fill:none" stroke-dasharray="32, 20" points="686.314,1237.26 686.314,-472.302 "/>
<polyline clip-path="url(#clip942)" style="stroke:#ff0000; stroke-linecap:round; stroke-linejoin:round; stroke-width:6; stroke-opacity:1; fill:none" stroke-dasharray="24, 12, 3, 12" points="348.2,1237.26 348.2,-472.302 "/>
<polyline clip-path="url(#clip942)" style="stroke:#ff0000; stroke-linecap:round; stroke-linejoin:round; stroke-width:6; stroke-opacity:1; fill:none" stroke-dasharray="24, 12, 3, 12" points="1034.43,1237.26 1034.43,-472.302 "/>
<path clip-path="url(#clip940)" d="M1328.14 667.406 L2352.76 667.406 L2352.76 97.5521 L1328.14 97.5521  Z" fill="#ffffff" fill-rule="evenodd" fill-opacity="1"/>
<defs>
  <clipPath id="clip943">
    <rect x="1328" y="97" width="1026" height="571"/>
  </clipPath>
</defs>
<polyline clip-path="url(#clip943)" style="stroke:#000000; stroke-linecap:round; stroke-linejoin:round; stroke-width:2; stroke-opacity:0.1; fill:none" points="1514.77,667.406 1514.77,97.5521 "/>
<polyline clip-path="url(#clip943)" style="stroke:#000000; stroke-linecap:round; stroke-linejoin:round; stroke-width:2; stroke-opacity:0.1; fill:none" points="1775.31,667.406 1775.31,97.5521 "/>
<polyline clip-path="url(#clip943)" style="stroke:#000000; stroke-linecap:round; stroke-linejoin:round; stroke-width:2; stroke-opacity:0.1; fill:none" points="2035.86,667.406 2035.86,97.5521 "/>
<polyline clip-path="url(#clip943)" style="stroke:#000000; stroke-linecap:round; stroke-linejoin:round; stroke-width:2; stroke-opacity:0.1; fill:none" points="2296.4,667.406 2296.4,97.5521 "/>
<polyline clip-path="url(#clip943)" style="stroke:#000000; stroke-linecap:round; stroke-linejoin:round; stroke-width:2; stroke-opacity:0.1; fill:none" points="1328.14,667.406 2352.76,667.406 "/>
<polyline clip-path="url(#clip943)" style="stroke:#000000; stroke-linecap:round; stroke-linejoin:round; stroke-width:2; stroke-opacity:0.1; fill:none" points="1328.14,553.436 2352.76,553.436 "/>
<polyline clip-path="url(#clip943)" style="stroke:#000000; stroke-linecap:round; stroke-linejoin:round; stroke-width:2; stroke-opacity:0.1; fill:none" points="1328.14,439.465 2352.76,439.465 "/>
<polyline clip-path="url(#clip943)" style="stroke:#000000; stroke-linecap:round; stroke-linejoin:round; stroke-width:2; stroke-opacity:0.1; fill:none" points="1328.14,325.494 2352.76,325.494 "/>
<polyline clip-path="url(#clip943)" style="stroke:#000000; stroke-linecap:round; stroke-linejoin:round; stroke-width:2; stroke-opacity:0.1; fill:none" points="1328.14,211.523 2352.76,211.523 "/>
<polyline clip-path="url(#clip943)" style="stroke:#000000; stroke-linecap:round; stroke-linejoin:round; stroke-width:2; stroke-opacity:0.1; fill:none" points="1328.14,97.5521 2352.76,97.5521 "/>
<polyline clip-path="url(#clip940)" style="stroke:#000000; stroke-linecap:round; stroke-linejoin:round; stroke-width:4; stroke-opacity:1; fill:none" points="1328.14,667.406 2352.76,667.406 "/>
<polyline clip-path="url(#clip940)" style="stroke:#000000; stroke-linecap:round; stroke-linejoin:round; stroke-width:4; stroke-opacity:1; fill:none" points="1514.77,667.406 1514.77,648.509 "/>
<polyline clip-path="url(#clip940)" style="stroke:#000000; stroke-linecap:round; stroke-linejoin:round; stroke-width:4; stroke-opacity:1; fill:none" points="1775.31,667.406 1775.31,648.509 "/>
<polyline clip-path="url(#clip940)" style="stroke:#000000; stroke-linecap:round; stroke-linejoin:round; stroke-width:4; stroke-opacity:1; fill:none" points="2035.86,667.406 2035.86,648.509 "/>
<polyline clip-path="url(#clip940)" style="stroke:#000000; stroke-linecap:round; stroke-linejoin:round; stroke-width:4; stroke-opacity:1; fill:none" points="2296.4,667.406 2296.4,648.509 "/>
<path clip-path="url(#clip940)" d="M1460.92 739.139 Q1459 741.054 1459.92 743.914 Q1460.84 746.75 1464.62 750.531 Q1468.39 754.3 1471.24 755.233 Q1474.09 756.141 1476 754.226 Q1477.93 752.299 1477.01 749.463 Q1476.09 746.603 1472.32 742.834 Q1468.54 739.053 1465.69 738.144 Q1462.84 737.211 1460.92 739.139 M1458.95 737.175 Q1462.03 734.093 1466.1 734.916 Q1470.16 735.714 1474.8 740.354 Q1479.43 744.982 1480.24 749.058 Q1481.05 753.109 1477.97 756.19 Q1474.89 759.272 1470.82 758.474 Q1466.76 757.651 1462.13 753.023 Q1457.49 748.383 1456.68 744.332 Q1455.87 740.256 1458.95 737.175 Z" fill="#000000" fill-rule="nonzero" fill-opacity="1" /><path clip-path="url(#clip940)" d="M1485.19 742.024 L1487.78 739.433 L1490.9 742.552 L1488.3 745.142 L1485.19 742.024 Z" fill="#000000" fill-rule="nonzero" fill-opacity="1" /><path clip-path="url(#clip940)" d="M1493.93 719.755 Q1496.09 718.355 1498.29 718.564 Q1500.49 718.761 1502.26 720.528 Q1504.98 723.241 1504.6 726.593 Q1504.21 729.944 1500.78 733.381 Q1499.62 734.535 1498.16 735.53 Q1496.73 736.524 1494.97 737.371 L1492.58 734.977 Q1494.21 734.548 1495.74 733.627 Q1497.28 732.706 1498.62 731.368 Q1500.95 729.036 1501.24 726.9 Q1501.55 724.751 1499.8 722.996 Q1498.17 721.375 1496.12 721.609 Q1494.07 721.817 1492.05 723.843 L1489.91 725.979 L1487.88 723.941 L1490.11 721.707 Q1491.94 719.878 1492.18 718.184 Q1492.42 716.477 1491.04 715.102 Q1489.63 713.69 1487.88 713.948 Q1486.12 714.182 1484.25 716.047 Q1483.23 717.066 1482.29 718.454 Q1481.34 719.841 1480.41 721.707 L1478.2 719.497 Q1479.22 717.692 1480.25 716.268 Q1481.3 714.832 1482.39 713.74 Q1485.21 710.916 1488.15 710.56 Q1491.07 710.192 1493.25 712.377 Q1494.77 713.899 1494.96 715.827 Q1495.13 717.742 1493.93 719.755 Z" fill="#000000" fill-rule="nonzero" fill-opacity="1" /><path clip-path="url(#clip940)" d="M1500.9 699.156 Q1498.99 701.071 1499.91 703.931 Q1500.83 706.767 1504.61 710.548 Q1508.38 714.317 1511.22 715.25 Q1514.07 716.158 1515.99 714.243 Q1517.91 712.316 1516.99 709.48 Q1516.07 706.619 1512.3 702.851 Q1508.52 699.07 1505.68 698.161 Q1502.83 697.228 1500.9 699.156 M1498.94 697.191 Q1502.02 694.11 1506.08 694.933 Q1510.14 695.731 1514.78 700.371 Q1519.41 704.999 1520.22 709.075 Q1521.03 713.126 1517.95 716.207 Q1514.87 719.288 1510.81 718.49 Q1506.74 717.668 1502.12 713.04 Q1497.48 708.399 1496.66 704.348 Q1495.85 700.273 1498.94 697.191 Z" fill="#000000" fill-rule="nonzero" fill-opacity="1" /><path clip-path="url(#clip940)" d="M1722.31 738.292 Q1720.39 740.207 1721.31 743.067 Q1722.23 745.903 1726.02 749.684 Q1729.78 753.453 1732.63 754.386 Q1735.48 755.294 1737.4 753.379 Q1739.32 751.452 1738.4 748.616 Q1737.48 745.756 1733.71 741.987 Q1729.93 738.206 1727.08 737.297 Q1724.24 736.364 1722.31 738.292 M1720.34 736.328 Q1723.43 733.246 1727.49 734.069 Q1731.55 734.867 1736.19 739.507 Q1740.82 744.135 1741.63 748.211 Q1742.44 752.262 1739.36 755.343 Q1736.28 758.425 1732.22 757.627 Q1728.15 756.804 1723.52 752.176 Q1718.88 747.536 1718.07 743.485 Q1717.26 739.409 1720.34 736.328 Z" fill="#000000" fill-rule="nonzero" fill-opacity="1" /><path clip-path="url(#clip940)" d="M1746.58 741.177 L1749.17 738.586 L1752.29 741.705 L1749.7 744.295 L1746.58 741.177 Z" fill="#000000" fill-rule="nonzero" fill-opacity="1" /><path clip-path="url(#clip940)" d="M1755.32 718.908 Q1757.48 717.508 1759.68 717.717 Q1761.89 717.913 1763.65 719.681 Q1766.37 722.394 1765.99 725.746 Q1765.61 729.097 1762.17 732.534 Q1761.02 733.688 1759.55 734.683 Q1758.12 735.677 1756.36 736.524 L1753.97 734.13 Q1755.6 733.701 1757.14 732.78 Q1758.67 731.859 1760.01 730.521 Q1762.34 728.189 1762.64 726.053 Q1762.94 723.904 1761.19 722.149 Q1759.57 720.528 1757.52 720.762 Q1755.47 720.97 1753.44 722.996 L1751.3 725.132 L1749.27 723.094 L1751.5 720.86 Q1753.33 719.031 1753.58 717.336 Q1753.81 715.63 1752.43 714.255 Q1751.02 712.843 1749.27 713.101 Q1747.51 713.334 1745.65 715.2 Q1744.63 716.219 1743.68 717.607 Q1742.74 718.994 1741.8 720.86 L1739.59 718.65 Q1740.61 716.845 1741.64 715.421 Q1742.69 713.985 1743.78 712.893 Q1746.6 710.069 1749.54 709.713 Q1752.46 709.345 1754.64 711.53 Q1756.17 713.052 1756.35 714.979 Q1756.52 716.895 1755.32 718.908 Z" fill="#000000" fill-rule="nonzero" fill-opacity="1" /><path clip-path="url(#clip940)" d="M1773.73 716.084 L1782.39 707.43 L1784.47 709.517 L1772.84 721.154 L1770.75 719.067 Q1770.7 716.195 1770.68 711.309 Q1770.65 706.398 1770.57 705.06 Q1770.42 702.532 1769.96 701.144 Q1769.51 699.733 1768.61 698.836 Q1767.15 697.376 1765.2 697.486 Q1763.26 697.584 1761.62 699.229 Q1760.45 700.395 1759.55 702.102 Q1758.67 703.796 1758.02 706.092 L1755.52 703.587 Q1756.41 701.488 1757.41 699.88 Q1758.4 698.272 1759.48 697.191 Q1762.33 694.343 1765.45 694.073 Q1768.56 693.803 1770.95 696.185 Q1772.08 697.314 1772.67 698.763 Q1773.25 700.187 1773.51 702.679 Q1773.56 703.342 1773.62 706.693 Q1773.67 710.032 1773.73 716.084 Z" fill="#000000" fill-rule="nonzero" fill-opacity="1" /><path clip-path="url(#clip940)" d="M1981.75 739.397 Q1979.83 741.312 1980.75 744.172 Q1981.67 747.008 1985.46 750.789 Q1989.22 754.558 1992.07 755.491 Q1994.92 756.399 1996.84 754.484 Q1998.76 752.557 1997.84 749.721 Q1996.92 746.86 1993.15 743.092 Q1989.37 739.311 1986.52 738.402 Q1983.68 737.469 1981.75 739.397 M1979.78 737.432 Q1982.87 734.351 1986.93 735.174 Q1990.99 735.972 1995.63 740.612 Q2000.26 745.24 2001.07 749.316 Q2001.88 753.367 1998.8 756.448 Q1995.72 759.529 1991.66 758.731 Q1987.59 757.909 1982.96 753.281 Q1978.32 748.641 1977.51 744.589 Q1976.7 740.514 1979.78 737.432 Z" fill="#000000" fill-rule="nonzero" fill-opacity="1" /><path clip-path="url(#clip940)" d="M2006.02 742.282 L2008.61 739.691 L2011.73 742.809 L2009.14 745.4 L2006.02 742.282 Z" fill="#000000" fill-rule="nonzero" fill-opacity="1" /><path clip-path="url(#clip940)" d="M2014.76 720.013 Q2016.92 718.613 2019.12 718.822 Q2021.33 719.018 2023.09 720.786 Q2025.81 723.499 2025.43 726.85 Q2025.05 730.202 2021.61 733.639 Q2020.46 734.793 2018.99 735.787 Q2017.56 736.782 2015.8 737.629 L2013.41 735.235 Q2015.04 734.805 2016.58 733.885 Q2018.11 732.964 2019.45 731.626 Q2021.78 729.293 2022.08 727.157 Q2022.38 725.009 2020.63 723.254 Q2019.01 721.633 2016.96 721.866 Q2014.91 722.075 2012.88 724.101 L2010.74 726.237 L2008.71 724.199 L2010.94 721.965 Q2012.77 720.135 2013.02 718.441 Q2013.25 716.735 2011.87 715.36 Q2010.46 713.948 2008.71 714.206 Q2006.95 714.439 2005.09 716.305 Q2004.07 717.324 2003.12 718.711 Q2002.18 720.099 2001.24 721.965 L1999.03 719.755 Q2000.05 717.95 2001.08 716.526 Q2002.13 715.09 2003.22 713.997 Q2006.04 711.174 2008.98 710.818 Q2011.9 710.45 2014.08 712.635 Q2015.61 714.157 2015.79 716.084 Q2015.96 717.999 2014.76 720.013 Z" fill="#000000" fill-rule="nonzero" fill-opacity="1" /><path clip-path="url(#clip940)" d="M2023.77 698.431 L2027.29 714.476 L2033.55 708.215 L2023.77 698.431 M2020.96 696.921 L2024.08 693.803 L2036.02 705.748 L2038.64 703.133 L2040.7 705.195 L2038.08 707.81 L2042.4 712.131 L2039.94 714.599 L2035.62 710.278 L2027.34 718.552 L2024.95 716.158 L2020.96 696.921 Z" fill="#000000" fill-rule="nonzero" fill-opacity="1" /><path clip-path="url(#clip940)" d="M2242.47 739.225 Q2240.55 741.14 2241.47 744 Q2242.39 746.836 2246.17 750.617 Q2249.94 754.386 2252.79 755.319 Q2255.64 756.227 2257.55 754.312 Q2259.48 752.385 2258.56 749.549 Q2257.64 746.689 2253.87 742.92 Q2250.09 739.139 2247.24 738.23 Q2244.39 737.297 2242.47 739.225 M2240.5 737.261 Q2243.58 734.179 2247.65 735.002 Q2251.71 735.8 2256.35 740.44 Q2260.98 745.068 2261.79 749.144 Q2262.6 753.195 2259.52 756.276 Q2256.44 759.358 2252.37 758.56 Q2248.31 757.737 2243.68 753.109 Q2239.04 748.469 2238.23 744.418 Q2237.42 740.342 2240.5 737.261 Z" fill="#000000" fill-rule="nonzero" fill-opacity="1" /><path clip-path="url(#clip940)" d="M2266.73 742.11 L2269.33 739.519 L2272.44 742.638 L2269.85 745.228 L2266.73 742.11 Z" fill="#000000" fill-rule="nonzero" fill-opacity="1" /><path clip-path="url(#clip940)" d="M2275.48 719.841 Q2277.64 718.441 2279.83 718.65 Q2282.04 718.846 2283.81 720.614 Q2286.52 723.327 2286.14 726.679 Q2285.76 730.03 2282.33 733.467 Q2281.17 734.621 2279.71 735.616 Q2278.27 736.61 2276.52 737.457 L2274.13 735.063 Q2275.76 734.634 2277.29 733.713 Q2278.83 732.792 2280.16 731.454 Q2282.5 729.122 2282.79 726.985 Q2283.1 724.837 2281.34 723.082 Q2279.72 721.461 2277.67 721.695 Q2275.62 721.903 2273.6 723.929 L2271.46 726.065 L2269.42 724.027 L2271.66 721.793 Q2273.49 719.964 2273.73 718.269 Q2273.97 716.563 2272.59 715.188 Q2271.18 713.776 2269.42 714.034 Q2267.67 714.267 2265.8 716.133 Q2264.78 717.152 2263.84 718.54 Q2262.89 719.927 2261.96 721.793 L2259.75 719.583 Q2260.77 717.778 2261.8 716.354 Q2262.84 714.918 2263.94 713.826 Q2266.76 711.002 2269.69 710.646 Q2272.62 710.278 2274.8 712.463 Q2276.32 713.985 2276.51 715.912 Q2276.68 717.828 2275.48 719.841 Z" fill="#000000" fill-rule="nonzero" fill-opacity="1" /><path clip-path="url(#clip940)" d="M2289.3 705.478 Q2287.63 707.147 2287.79 709.271 Q2287.96 711.383 2289.95 713.371 Q2291.93 715.348 2294.05 715.532 Q2296.17 715.691 2297.84 714.022 Q2299.51 712.352 2299.34 710.241 Q2299.17 708.105 2297.19 706.128 Q2295.2 704.14 2293.08 703.98 Q2290.97 703.808 2289.3 705.478 M2286.45 692.784 L2288.71 695.043 Q2287.33 695.534 2286.14 696.258 Q2284.96 696.97 2284.03 697.903 Q2281.58 700.359 2281.93 703.317 Q2282.3 706.263 2285.47 709.799 Q2285.12 708.007 2285.65 706.349 Q2286.17 704.68 2287.48 703.366 Q2290.24 700.604 2293.52 700.69 Q2296.8 700.751 2299.68 703.636 Q2302.51 706.46 2302.54 709.836 Q2302.58 713.212 2299.81 715.986 Q2296.63 719.166 2292.51 718.417 Q2288.39 717.656 2283.76 713.028 Q2279.42 708.682 2278.9 704.041 Q2278.37 699.389 2281.85 695.915 Q2282.78 694.982 2283.91 694.221 Q2285.05 693.447 2286.45 692.784 Z" fill="#000000" fill-rule="nonzero" fill-opacity="1" /><polyline clip-path="url(#clip940)" style="stroke:#000000; stroke-linecap:round; stroke-linejoin:round; stroke-width:4; stroke-opacity:1; fill:none" points="1328.14,667.406 1328.14,97.5521 "/>
<polyline clip-path="url(#clip940)" style="stroke:#000000; stroke-linecap:round; stroke-linejoin:round; stroke-width:4; stroke-opacity:1; fill:none" points="1328.14,667.406 1347.04,667.406 "/>
<polyline clip-path="url(#clip940)" style="stroke:#000000; stroke-linecap:round; stroke-linejoin:round; stroke-width:4; stroke-opacity:1; fill:none" points="1328.14,553.436 1347.04,553.436 "/>
<polyline clip-path="url(#clip940)" style="stroke:#000000; stroke-linecap:round; stroke-linejoin:round; stroke-width:4; stroke-opacity:1; fill:none" points="1328.14,439.465 1347.04,439.465 "/>
<polyline clip-path="url(#clip940)" style="stroke:#000000; stroke-linecap:round; stroke-linejoin:round; stroke-width:4; stroke-opacity:1; fill:none" points="1328.14,325.494 1347.04,325.494 "/>
<polyline clip-path="url(#clip940)" style="stroke:#000000; stroke-linecap:round; stroke-linejoin:round; stroke-width:4; stroke-opacity:1; fill:none" points="1328.14,211.523 1347.04,211.523 "/>
<polyline clip-path="url(#clip940)" style="stroke:#000000; stroke-linecap:round; stroke-linejoin:round; stroke-width:4; stroke-opacity:1; fill:none" points="1328.14,97.5521 1347.04,97.5521 "/>
<path clip-path="url(#clip940)" d="M1283.18 656.755 Q1280.47 656.755 1279.1 659.429 Q1277.75 662.085 1277.75 667.432 Q1277.75 672.762 1279.1 675.436 Q1280.47 678.092 1283.18 678.092 Q1285.91 678.092 1287.26 675.436 Q1288.63 672.762 1288.63 667.432 Q1288.63 662.085 1287.26 659.429 Q1285.91 656.755 1283.18 656.755 M1283.18 653.978 Q1287.54 653.978 1289.83 657.432 Q1292.14 660.87 1292.14 667.432 Q1292.14 673.978 1289.83 677.432 Q1287.54 680.87 1283.18 680.87 Q1278.82 680.87 1276.51 677.432 Q1274.22 673.978 1274.22 667.432 Q1274.22 660.87 1276.51 657.432 Q1278.82 653.978 1283.18 653.978 Z" fill="#000000" fill-rule="nonzero" fill-opacity="1" /><path clip-path="url(#clip940)" d="M1253.67 563.444 L1259.39 563.444 L1259.39 543.67 L1253.16 544.92 L1253.16 541.726 L1259.36 540.476 L1262.87 540.476 L1262.87 563.444 L1268.6 563.444 L1268.6 566.396 L1253.67 566.396 L1253.67 563.444 Z" fill="#000000" fill-rule="nonzero" fill-opacity="1" /><path clip-path="url(#clip940)" d="M1283.18 542.785 Q1280.47 542.785 1279.1 545.458 Q1277.75 548.114 1277.75 553.462 Q1277.75 558.791 1279.1 561.465 Q1280.47 564.121 1283.18 564.121 Q1285.91 564.121 1287.26 561.465 Q1288.63 558.791 1288.63 553.462 Q1288.63 548.114 1287.26 545.458 Q1285.91 542.785 1283.18 542.785 M1283.18 540.007 Q1287.54 540.007 1289.83 543.462 Q1292.14 546.899 1292.14 553.462 Q1292.14 560.007 1289.83 563.461 Q1287.54 566.899 1283.18 566.899 Q1278.82 566.899 1276.51 563.461 Q1274.22 560.007 1274.22 553.462 Q1274.22 546.899 1276.51 543.462 Q1278.82 540.007 1283.18 540.007 Z" fill="#000000" fill-rule="nonzero" fill-opacity="1" /><path clip-path="url(#clip940)" d="M1256.08 449.473 L1268.32 449.473 L1268.32 452.425 L1251.86 452.425 L1251.86 449.473 Q1253.86 447.407 1257.29 443.935 Q1260.75 440.446 1261.63 439.439 Q1263.32 437.546 1263.98 436.244 Q1264.66 434.925 1264.66 433.657 Q1264.66 431.591 1263.2 430.289 Q1261.76 428.987 1259.43 428.987 Q1257.78 428.987 1255.94 429.56 Q1254.12 430.133 1252.03 431.296 L1252.03 427.755 Q1254.15 426.904 1255.99 426.47 Q1257.83 426.036 1259.36 426.036 Q1263.39 426.036 1265.78 428.05 Q1268.18 430.064 1268.18 433.432 Q1268.18 435.029 1267.57 436.47 Q1266.98 437.893 1265.4 439.838 Q1264.97 440.341 1262.64 442.755 Q1260.31 445.15 1256.08 449.473 Z" fill="#000000" fill-rule="nonzero" fill-opacity="1" /><path clip-path="url(#clip940)" d="M1283.18 428.814 Q1280.47 428.814 1279.1 431.487 Q1277.75 434.144 1277.75 439.491 Q1277.75 444.821 1279.1 447.494 Q1280.47 450.15 1283.18 450.15 Q1285.91 450.15 1287.26 447.494 Q1288.63 444.821 1288.63 439.491 Q1288.63 434.144 1287.26 431.487 Q1285.91 428.814 1283.18 428.814 M1283.18 426.036 Q1287.54 426.036 1289.83 429.491 Q1292.14 432.928 1292.14 439.491 Q1292.14 446.036 1289.83 449.491 Q1287.54 452.928 1283.18 452.928 Q1278.82 452.928 1276.51 449.491 Q1274.22 446.036 1274.22 439.491 Q1274.22 432.928 1276.51 429.491 Q1278.82 426.036 1283.18 426.036 Z" fill="#000000" fill-rule="nonzero" fill-opacity="1" /><path clip-path="url(#clip940)" d="M1263.68 324.478 Q1266.2 325.016 1267.61 326.718 Q1269.03 328.419 1269.03 330.919 Q1269.03 334.756 1266.39 336.857 Q1263.75 338.957 1258.89 338.957 Q1257.26 338.957 1255.52 338.627 Q1253.8 338.315 1251.96 337.673 L1251.96 334.287 Q1253.42 335.138 1255.16 335.572 Q1256.89 336.006 1258.79 336.006 Q1262.09 336.006 1263.8 334.704 Q1265.54 333.402 1265.54 330.919 Q1265.54 328.627 1263.93 327.343 Q1262.33 326.041 1259.46 326.041 L1256.44 326.041 L1256.44 323.159 L1259.6 323.159 Q1262.19 323.159 1263.56 322.134 Q1264.93 321.093 1264.93 319.148 Q1264.93 317.152 1263.51 316.093 Q1262.1 315.016 1259.46 315.016 Q1258.02 315.016 1256.37 315.329 Q1254.72 315.641 1252.75 316.301 L1252.75 313.176 Q1254.74 312.621 1256.48 312.343 Q1258.23 312.065 1259.78 312.065 Q1263.77 312.065 1266.1 313.888 Q1268.42 315.694 1268.42 318.784 Q1268.42 320.937 1267.19 322.43 Q1265.96 323.905 1263.68 324.478 Z" fill="#000000" fill-rule="nonzero" fill-opacity="1" /><path clip-path="url(#clip940)" d="M1283.18 314.843 Q1280.47 314.843 1279.1 317.516 Q1277.75 320.173 1277.75 325.52 Q1277.75 330.85 1279.1 333.523 Q1280.47 336.18 1283.18 336.18 Q1285.91 336.18 1287.26 333.523 Q1288.63 330.85 1288.63 325.52 Q1288.63 320.173 1287.26 317.516 Q1285.91 314.843 1283.18 314.843 M1283.18 312.065 Q1287.54 312.065 1289.83 315.52 Q1292.14 318.957 1292.14 325.52 Q1292.14 332.065 1289.83 335.52 Q1287.54 338.957 1283.18 338.957 Q1278.82 338.957 1276.51 335.52 Q1274.22 332.065 1274.22 325.52 Q1274.22 318.957 1276.51 315.52 Q1278.82 312.065 1283.18 312.065 Z" fill="#000000" fill-rule="nonzero" fill-opacity="1" /><path clip-path="url(#clip940)" d="M1262.69 201.619 L1253.84 215.455 L1262.69 215.455 L1262.69 201.619 M1261.77 198.563 L1266.18 198.563 L1266.18 215.455 L1269.88 215.455 L1269.88 218.372 L1266.18 218.372 L1266.18 224.483 L1262.69 224.483 L1262.69 218.372 L1250.99 218.372 L1250.99 214.986 L1261.77 198.563 Z" fill="#000000" fill-rule="nonzero" fill-opacity="1" /><path clip-path="url(#clip940)" d="M1283.18 200.872 Q1280.47 200.872 1279.1 203.546 Q1277.75 206.202 1277.75 211.549 Q1277.75 216.879 1279.1 219.552 Q1280.47 222.209 1283.18 222.209 Q1285.91 222.209 1287.26 219.552 Q1288.63 216.879 1288.63 211.549 Q1288.63 206.202 1287.26 203.546 Q1285.91 200.872 1283.18 200.872 M1283.18 198.094 Q1287.54 198.094 1289.83 201.549 Q1292.14 204.987 1292.14 211.549 Q1292.14 218.094 1289.83 221.549 Q1287.54 224.986 1283.18 224.986 Q1278.82 224.986 1276.51 221.549 Q1274.22 218.094 1274.22 211.549 Q1274.22 204.987 1276.51 201.549 Q1278.82 198.094 1283.18 198.094 Z" fill="#000000" fill-rule="nonzero" fill-opacity="1" /><path clip-path="url(#clip940)" d="M1253.09 84.5921 L1266.86 84.5921 L1266.86 87.5435 L1256.3 87.5435 L1256.3 93.8976 Q1257.07 93.6372 1257.83 93.5157 Q1258.6 93.3768 1259.36 93.3768 Q1263.7 93.3768 1266.24 95.7553 Q1268.77 98.1337 1268.77 102.196 Q1268.77 106.38 1266.17 108.707 Q1263.56 111.016 1258.82 111.016 Q1257.19 111.016 1255.49 110.738 Q1253.8 110.46 1252 109.904 L1252 106.38 Q1253.56 107.231 1255.23 107.648 Q1256.89 108.064 1258.75 108.064 Q1261.76 108.064 1263.51 106.484 Q1265.26 104.905 1265.26 102.196 Q1265.26 99.4879 1263.51 97.908 Q1261.76 96.3282 1258.75 96.3282 Q1257.35 96.3282 1255.94 96.6407 Q1254.55 96.9532 1253.09 97.6129 L1253.09 84.5921 Z" fill="#000000" fill-rule="nonzero" fill-opacity="1" /><path clip-path="url(#clip940)" d="M1283.18 86.9011 Q1280.47 86.9011 1279.1 89.5747 Q1277.75 92.231 1277.75 97.5782 Q1277.75 102.908 1279.1 105.582 Q1280.47 108.238 1283.18 108.238 Q1285.91 108.238 1287.26 105.582 Q1288.63 102.908 1288.63 97.5782 Q1288.63 92.231 1287.26 89.5747 Q1285.91 86.9011 1283.18 86.9011 M1283.18 84.1234 Q1287.54 84.1234 1289.83 87.5782 Q1292.14 91.0157 1292.14 97.5782 Q1292.14 104.123 1289.83 107.578 Q1287.54 111.016 1283.18 111.016 Q1278.82 111.016 1276.51 107.578 Q1274.22 104.123 1274.22 97.5782 Q1274.22 91.0157 1276.51 87.5782 Q1278.82 84.1234 1283.18 84.1234 Z" fill="#000000" fill-rule="nonzero" fill-opacity="1" /><path clip-path="url(#clip940)" d="M1340.04 18.9258 Q1336.52 18.9258 1334.62 21.4721 Q1332.63 24.1341 1332.63 28.5323 Q1332.63 33.185 1334.6 35.8702 Q1336.59 38.5322 1340.04 38.5322 Q1343.44 38.5322 1345.43 35.847 Q1347.42 33.1619 1347.42 28.5323 Q1347.42 24.2962 1345.43 21.4721 Q1343.6 18.9258 1340.04 18.9258 M1340.04 15.5462 L1354.18 15.5462 L1354.18 19.8054 L1349.41 19.8054 Q1351.93 23.4165 1351.93 28.5323 Q1351.93 34.898 1348.76 38.5091 Q1345.59 42.1433 1340.04 42.1433 Q1334.46 42.1433 1331.31 38.5091 Q1328.14 34.898 1328.14 28.5323 Q1328.14 22.1203 1331.31 18.5323 Q1333.92 15.5462 1340.04 15.5462 Z" fill="#000000" fill-rule="nonzero" fill-opacity="1" /><path clip-path="url(#clip940)" d="M1378.35 19.6666 Q1377.49 19.3656 1376.63 19.1342 Q1374.34 18.5323 1371.89 18.5323 Q1367.65 18.5323 1365.29 20.824 Q1363.09 22.9536 1362.67 26.8656 L1378.35 26.8656 L1378.35 30.1989 L1362.67 30.1989 Q1363.09 34.1109 1365.29 36.2405 Q1367.65 38.5322 1371.89 38.5322 Q1374.85 38.5322 1376.63 37.9304 L1378.35 37.3517 L1378.35 41.2174 L1376.52 41.634 Q1374.11 42.1433 1371.63 42.1433 Q1365.43 42.1433 1361.82 38.5322 Q1358.18 34.9211 1358.18 28.5323 Q1358.18 22.1434 1361.82 18.5323 Q1365.43 14.9212 1371.63 14.9212 Q1373.97 14.9212 1376.52 15.4305 Q1377.44 15.6157 1378.35 15.8934 L1378.35 19.6666 Z" fill="#000000" fill-rule="nonzero" fill-opacity="1" /><path clip-path="url(#clip943)" d="M1384.49 553.436 L1384.49 667.406 L1514.77 667.406 L1514.77 553.436 L1384.49 553.436 L1384.49 553.436  Z" fill="#009af9" fill-rule="evenodd" fill-opacity="1"/>
<polyline clip-path="url(#clip943)" style="stroke:#000000; stroke-linecap:round; stroke-linejoin:round; stroke-width:4; stroke-opacity:1; fill:none" points="1384.49,553.436 1384.49,667.406 1514.77,667.406 1514.77,553.436 1384.49,553.436 "/>
<path clip-path="url(#clip943)" d="M1514.77 450.862 L1514.77 667.406 L1645.04 667.406 L1645.04 450.862 L1514.77 450.862 L1514.77 450.862  Z" fill="#009af9" fill-rule="evenodd" fill-opacity="1"/>
<polyline clip-path="url(#clip943)" style="stroke:#000000; stroke-linecap:round; stroke-linejoin:round; stroke-width:4; stroke-opacity:1; fill:none" points="1514.77,450.862 1514.77,667.406 1645.04,667.406 1645.04,450.862 1514.77,450.862 "/>
<path clip-path="url(#clip943)" d="M1645.04 108.949 L1645.04 667.406 L1775.31 667.406 L1775.31 108.949 L1645.04 108.949 L1645.04 108.949  Z" fill="#009af9" fill-rule="evenodd" fill-opacity="1"/>
<polyline clip-path="url(#clip943)" style="stroke:#000000; stroke-linecap:round; stroke-linejoin:round; stroke-width:4; stroke-opacity:1; fill:none" points="1645.04,108.949 1645.04,667.406 1775.31,667.406 1775.31,108.949 1645.04,108.949 "/>
<path clip-path="url(#clip943)" d="M1775.31 97.5521 L1775.31 667.406 L1905.58 667.406 L1905.58 97.5521 L1775.31 97.5521 L1775.31 97.5521  Z" fill="#009af9" fill-rule="evenodd" fill-opacity="1"/>
<polyline clip-path="url(#clip943)" style="stroke:#000000; stroke-linecap:round; stroke-linejoin:round; stroke-width:4; stroke-opacity:1; fill:none" points="1775.31,97.5521 1775.31,667.406 1905.58,667.406 1905.58,97.5521 1775.31,97.5521 "/>
<path clip-path="url(#clip943)" d="M1905.58 165.935 L1905.58 667.406 L2035.86 667.406 L2035.86 165.935 L1905.58 165.935 L1905.58 165.935  Z" fill="#009af9" fill-rule="evenodd" fill-opacity="1"/>
<polyline clip-path="url(#clip943)" style="stroke:#000000; stroke-linecap:round; stroke-linejoin:round; stroke-width:4; stroke-opacity:1; fill:none" points="1905.58,165.935 1905.58,667.406 2035.86,667.406 2035.86,165.935 1905.58,165.935 "/>
<path clip-path="url(#clip943)" d="M2035.86 462.259 L2035.86 667.406 L2166.13 667.406 L2166.13 462.259 L2035.86 462.259 L2035.86 462.259  Z" fill="#009af9" fill-rule="evenodd" fill-opacity="1"/>
<polyline clip-path="url(#clip943)" style="stroke:#000000; stroke-linecap:round; stroke-linejoin:round; stroke-width:4; stroke-opacity:1; fill:none" points="2035.86,462.259 2035.86,667.406 2166.13,667.406 2166.13,462.259 2035.86,462.259 "/>
<path clip-path="url(#clip943)" d="M2166.13 599.024 L2166.13 667.406 L2296.4 667.406 L2296.4 599.024 L2166.13 599.024 L2166.13 599.024  Z" fill="#009af9" fill-rule="evenodd" fill-opacity="1"/>
<polyline clip-path="url(#clip943)" style="stroke:#000000; stroke-linecap:round; stroke-linejoin:round; stroke-width:4; stroke-opacity:1; fill:none" points="2166.13,599.024 2166.13,667.406 2296.4,667.406 2296.4,599.024 2166.13,599.024 "/>
<circle clip-path="url(#clip943)" style="fill:#009af9; stroke:none; fill-opacity:0" cx="1449.63" cy="553.436" r="2"/>
<circle clip-path="url(#clip943)" style="fill:#009af9; stroke:none; fill-opacity:0" cx="1579.9" cy="450.862" r="2"/>
<circle clip-path="url(#clip943)" style="fill:#009af9; stroke:none; fill-opacity:0" cx="1710.17" cy="108.949" r="2"/>
<circle clip-path="url(#clip943)" style="fill:#009af9; stroke:none; fill-opacity:0" cx="1840.45" cy="97.5521" r="2"/>
<circle clip-path="url(#clip943)" style="fill:#009af9; stroke:none; fill-opacity:0" cx="1970.72" cy="165.935" r="2"/>
<circle clip-path="url(#clip943)" style="fill:#009af9; stroke:none; fill-opacity:0" cx="2100.99" cy="462.259" r="2"/>
<circle clip-path="url(#clip943)" style="fill:#009af9; stroke:none; fill-opacity:0" cx="2231.26" cy="599.024" r="2"/>
<polyline clip-path="url(#clip943)" style="stroke:#ff0000; stroke-linecap:round; stroke-linejoin:round; stroke-width:8; stroke-opacity:1; fill:none" stroke-dasharray="32, 20" points="1845.48,1237.26 1845.48,-472.302 "/>
<polyline clip-path="url(#clip943)" style="stroke:#ff0000; stroke-linecap:round; stroke-linejoin:round; stroke-width:6; stroke-opacity:1; fill:none" stroke-dasharray="24, 12, 3, 12" points="1475.01,1237.26 1475.01,-472.302 "/>
<polyline clip-path="url(#clip943)" style="stroke:#ff0000; stroke-linecap:round; stroke-linejoin:round; stroke-width:6; stroke-opacity:1; fill:none" stroke-dasharray="24, 12, 3, 12" points="2185.59,1237.26 2185.59,-472.302 "/>
<path clip-path="url(#clip940)" d="M128.138 1467.41 L1152.76 1467.41 L1152.76 897.552 L128.138 897.552  Z" fill="#ffffff" fill-rule="evenodd" fill-opacity="1"/>
<defs>
  <clipPath id="clip944">
    <rect x="128" y="897" width="1026" height="571"/>
  </clipPath>
</defs>
<polyline clip-path="url(#clip944)" style="stroke:#000000; stroke-linecap:round; stroke-linejoin:round; stroke-width:2; stroke-opacity:0.1; fill:none" points="184.494,1467.41 184.494,897.552 "/>
<polyline clip-path="url(#clip944)" style="stroke:#000000; stroke-linecap:round; stroke-linejoin:round; stroke-width:2; stroke-opacity:0.1; fill:none" points="387.139,1467.41 387.139,897.552 "/>
<polyline clip-path="url(#clip944)" style="stroke:#000000; stroke-linecap:round; stroke-linejoin:round; stroke-width:2; stroke-opacity:0.1; fill:none" points="589.785,1467.41 589.785,897.552 "/>
<polyline clip-path="url(#clip944)" style="stroke:#000000; stroke-linecap:round; stroke-linejoin:round; stroke-width:2; stroke-opacity:0.1; fill:none" points="792.431,1467.41 792.431,897.552 "/>
<polyline clip-path="url(#clip944)" style="stroke:#000000; stroke-linecap:round; stroke-linejoin:round; stroke-width:2; stroke-opacity:0.1; fill:none" points="995.077,1467.41 995.077,897.552 "/>
<polyline clip-path="url(#clip944)" style="stroke:#000000; stroke-linecap:round; stroke-linejoin:round; stroke-width:2; stroke-opacity:0.1; fill:none" points="128.138,1467.41 1152.76,1467.41 "/>
<polyline clip-path="url(#clip944)" style="stroke:#000000; stroke-linecap:round; stroke-linejoin:round; stroke-width:2; stroke-opacity:0.1; fill:none" points="128.138,1369.16 1152.76,1369.16 "/>
<polyline clip-path="url(#clip944)" style="stroke:#000000; stroke-linecap:round; stroke-linejoin:round; stroke-width:2; stroke-opacity:0.1; fill:none" points="128.138,1270.9 1152.76,1270.9 "/>
<polyline clip-path="url(#clip944)" style="stroke:#000000; stroke-linecap:round; stroke-linejoin:round; stroke-width:2; stroke-opacity:0.1; fill:none" points="128.138,1172.65 1152.76,1172.65 "/>
<polyline clip-path="url(#clip944)" style="stroke:#000000; stroke-linecap:round; stroke-linejoin:round; stroke-width:2; stroke-opacity:0.1; fill:none" points="128.138,1074.4 1152.76,1074.4 "/>
<polyline clip-path="url(#clip944)" style="stroke:#000000; stroke-linecap:round; stroke-linejoin:round; stroke-width:2; stroke-opacity:0.1; fill:none" points="128.138,976.153 1152.76,976.153 "/>
<polyline clip-path="url(#clip940)" style="stroke:#000000; stroke-linecap:round; stroke-linejoin:round; stroke-width:4; stroke-opacity:1; fill:none" points="128.138,1467.41 1152.76,1467.41 "/>
<polyline clip-path="url(#clip940)" style="stroke:#000000; stroke-linecap:round; stroke-linejoin:round; stroke-width:4; stroke-opacity:1; fill:none" points="184.494,1467.41 184.494,1448.51 "/>
<polyline clip-path="url(#clip940)" style="stroke:#000000; stroke-linecap:round; stroke-linejoin:round; stroke-width:4; stroke-opacity:1; fill:none" points="387.139,1467.41 387.139,1448.51 "/>
<polyline clip-path="url(#clip940)" style="stroke:#000000; stroke-linecap:round; stroke-linejoin:round; stroke-width:4; stroke-opacity:1; fill:none" points="589.785,1467.41 589.785,1448.51 "/>
<polyline clip-path="url(#clip940)" style="stroke:#000000; stroke-linecap:round; stroke-linejoin:round; stroke-width:4; stroke-opacity:1; fill:none" points="792.431,1467.41 792.431,1448.51 "/>
<polyline clip-path="url(#clip940)" style="stroke:#000000; stroke-linecap:round; stroke-linejoin:round; stroke-width:4; stroke-opacity:1; fill:none" points="995.077,1467.41 995.077,1448.51 "/>
<path clip-path="url(#clip940)" d="M131.492 1538.29 Q129.576 1540.21 130.497 1543.07 Q131.418 1545.9 135.199 1549.68 Q138.968 1553.45 141.816 1554.39 Q144.664 1555.29 146.579 1553.38 Q148.506 1551.45 147.585 1548.62 Q146.665 1545.76 142.896 1541.99 Q139.115 1538.21 136.267 1537.3 Q133.419 1536.36 131.492 1538.29 M129.527 1536.33 Q132.609 1533.25 136.672 1534.07 Q140.735 1534.87 145.376 1539.51 Q150.004 1544.14 150.814 1548.21 Q151.624 1552.26 148.543 1555.34 Q145.462 1558.42 141.398 1557.63 Q137.335 1556.8 132.707 1552.18 Q128.066 1547.54 127.256 1543.48 Q126.446 1539.41 129.527 1536.33 Z" fill="#000000" fill-rule="nonzero" fill-opacity="1" /><path clip-path="url(#clip940)" d="M155.761 1541.18 L158.352 1538.59 L161.47 1541.7 L158.879 1544.29 L155.761 1541.18 Z" fill="#000000" fill-rule="nonzero" fill-opacity="1" /><path clip-path="url(#clip940)" d="M148.568 1517.95 L158.303 1508.22 L160.389 1510.3 L152.926 1517.77 L157.419 1522.26 Q157.775 1521.53 158.229 1520.91 Q158.671 1520.27 159.211 1519.73 Q162.28 1516.66 165.754 1516.55 Q169.228 1516.44 172.101 1519.31 Q175.059 1522.27 174.863 1525.76 Q174.654 1529.23 171.303 1532.58 Q170.149 1533.74 168.749 1534.74 Q167.362 1535.74 165.693 1536.62 L163.201 1534.13 Q164.907 1533.63 166.38 1532.74 Q167.853 1531.86 169.167 1530.55 Q171.291 1528.42 171.413 1526.06 Q171.536 1523.71 169.621 1521.79 Q167.706 1519.88 165.349 1520 Q162.992 1520.12 160.868 1522.25 Q159.874 1523.24 159.1 1524.46 Q158.339 1525.66 157.775 1527.16 L148.568 1517.95 Z" fill="#000000" fill-rule="nonzero" fill-opacity="1" /><path clip-path="url(#clip940)" d="M182.916 1516.08 L191.571 1507.43 L193.658 1509.52 L182.02 1521.15 L179.933 1519.07 Q179.884 1516.19 179.859 1511.31 Q179.835 1506.4 179.749 1505.06 Q179.602 1502.53 179.147 1501.14 Q178.693 1499.73 177.797 1498.84 Q176.336 1497.38 174.384 1497.49 Q172.445 1497.58 170.8 1499.23 Q169.633 1500.4 168.737 1502.1 Q167.853 1503.8 167.203 1506.09 L164.698 1503.59 Q165.595 1501.49 166.589 1499.88 Q167.583 1498.27 168.664 1497.19 Q171.512 1494.34 174.63 1494.07 Q177.748 1493.8 180.129 1496.18 Q181.259 1497.31 181.848 1498.76 Q182.437 1500.19 182.695 1502.68 Q182.744 1503.34 182.806 1506.69 Q182.855 1510.03 182.916 1516.08 Z" fill="#000000" fill-rule="nonzero" fill-opacity="1" /><path clip-path="url(#clip940)" d="M333.634 1538.8 Q331.719 1540.71 332.64 1543.57 Q333.56 1546.41 337.341 1550.19 Q341.11 1553.96 343.958 1554.89 Q346.806 1555.8 348.721 1553.88 Q350.649 1551.96 349.728 1549.12 Q348.807 1546.26 345.039 1542.49 Q341.258 1538.71 338.41 1537.8 Q335.561 1536.87 333.634 1538.8 M331.67 1536.83 Q334.751 1533.75 338.815 1534.57 Q342.878 1535.37 347.518 1540.01 Q352.146 1544.64 352.957 1548.71 Q353.767 1552.77 350.686 1555.85 Q347.604 1558.93 343.541 1558.13 Q339.478 1557.31 334.849 1552.68 Q330.209 1548.04 329.399 1543.99 Q328.589 1539.91 331.67 1536.83 Z" fill="#000000" fill-rule="nonzero" fill-opacity="1" /><path clip-path="url(#clip940)" d="M357.904 1541.68 L360.494 1539.09 L363.612 1542.21 L361.022 1544.8 L357.904 1541.68 Z" fill="#000000" fill-rule="nonzero" fill-opacity="1" /><path clip-path="url(#clip940)" d="M350.71 1518.45 L360.445 1508.72 L362.532 1510.81 L355.068 1518.27 L359.561 1522.76 Q359.917 1522.04 360.371 1521.41 Q360.813 1520.77 361.354 1520.23 Q364.423 1517.16 367.897 1517.05 Q371.371 1516.94 374.243 1519.82 Q377.202 1522.77 377.006 1526.26 Q376.797 1529.74 373.445 1533.09 Q372.292 1534.24 370.892 1535.25 Q369.505 1536.24 367.835 1537.13 L365.343 1534.63 Q367.05 1534.13 368.523 1533.25 Q369.996 1532.36 371.309 1531.05 Q373.433 1528.93 373.556 1526.57 Q373.679 1524.21 371.764 1522.3 Q369.849 1520.38 367.492 1520.5 Q365.135 1520.63 363.011 1522.75 Q362.016 1523.74 361.243 1524.96 Q360.482 1526.16 359.917 1527.66 L350.71 1518.45 Z" fill="#000000" fill-rule="nonzero" fill-opacity="1" /><path clip-path="url(#clip940)" d="M382.64 1503.42 Q384.801 1502.02 386.998 1502.22 Q389.208 1502.42 390.976 1504.19 Q393.689 1506.9 393.308 1510.25 Q392.928 1513.6 389.49 1517.04 Q388.336 1518.2 386.876 1519.19 Q385.439 1520.18 383.684 1521.03 L381.29 1518.64 Q382.923 1518.21 384.457 1517.29 Q385.992 1516.37 387.33 1515.03 Q389.662 1512.7 389.957 1510.56 Q390.264 1508.41 388.508 1506.66 Q386.888 1505.04 384.838 1505.27 Q382.788 1505.48 380.762 1507.5 L378.626 1509.64 L376.588 1507.6 L378.822 1505.37 Q380.652 1503.54 380.897 1501.84 Q381.13 1500.14 379.755 1498.76 Q378.344 1497.35 376.588 1497.61 Q374.833 1497.84 372.967 1499.71 Q371.948 1500.73 371.003 1502.11 Q370.057 1503.5 369.124 1505.37 L366.915 1503.16 Q367.934 1501.35 368.965 1499.93 Q370.008 1498.49 371.101 1497.4 Q373.924 1494.58 376.858 1494.22 Q379.78 1493.85 381.965 1496.04 Q383.487 1497.56 383.671 1499.49 Q383.843 1501.4 382.64 1503.42 Z" fill="#000000" fill-rule="nonzero" fill-opacity="1" /><path clip-path="url(#clip940)" d="M535.678 1539.4 Q533.763 1541.31 534.684 1544.17 Q535.605 1547.01 539.386 1550.79 Q543.155 1554.56 546.003 1555.49 Q548.851 1556.4 550.766 1554.48 Q552.693 1552.56 551.772 1549.72 Q550.852 1546.86 547.083 1543.09 Q543.302 1539.31 540.454 1538.4 Q537.606 1537.47 535.678 1539.4 M533.714 1537.43 Q536.796 1534.35 540.859 1535.17 Q544.922 1535.97 549.563 1540.61 Q554.191 1545.24 555.001 1549.32 Q555.811 1553.37 552.73 1556.45 Q549.649 1559.53 545.585 1558.73 Q541.522 1557.91 536.894 1553.28 Q532.253 1548.64 531.443 1544.59 Q530.633 1540.51 533.714 1537.43 Z" fill="#000000" fill-rule="nonzero" fill-opacity="1" /><path clip-path="url(#clip940)" d="M559.948 1542.28 L562.539 1539.69 L565.657 1542.81 L563.066 1545.4 L559.948 1542.28 Z" fill="#000000" fill-rule="nonzero" fill-opacity="1" /><path clip-path="url(#clip940)" d="M552.755 1519.06 L562.489 1509.32 L564.576 1511.41 L557.113 1518.87 L561.606 1523.36 Q561.962 1522.64 562.416 1522.01 Q562.858 1521.38 563.398 1520.84 Q566.467 1517.77 569.941 1517.66 Q573.415 1517.55 576.288 1520.42 Q579.246 1523.38 579.05 1526.86 Q578.841 1530.34 575.49 1533.69 Q574.336 1534.84 572.936 1535.85 Q571.549 1536.84 569.88 1537.73 L567.388 1535.24 Q569.094 1534.73 570.567 1533.85 Q572.04 1532.96 573.354 1531.65 Q575.478 1529.53 575.6 1527.17 Q575.723 1524.81 573.808 1522.9 Q571.893 1520.98 569.536 1521.11 Q567.179 1521.23 565.055 1523.35 Q564.061 1524.35 563.287 1525.56 Q562.526 1526.76 561.962 1528.26 L552.755 1519.06 Z" fill="#000000" fill-rule="nonzero" fill-opacity="1" /><path clip-path="url(#clip940)" d="M577.7 1498.43 L581.223 1514.48 L587.484 1508.22 L577.7 1498.43 M574.888 1496.92 L578.006 1493.8 L589.951 1505.75 L592.566 1503.13 L594.628 1505.2 L592.013 1507.81 L596.335 1512.13 L593.867 1514.6 L589.546 1510.28 L581.272 1518.55 L578.878 1516.16 L574.888 1496.92 Z" fill="#000000" fill-rule="nonzero" fill-opacity="1" /><path clip-path="url(#clip940)" d="M739.11 1538.61 Q737.195 1540.53 738.116 1543.39 Q739.036 1546.22 742.817 1550 Q746.586 1553.77 749.434 1554.7 Q752.282 1555.61 754.197 1553.7 Q756.125 1551.77 755.204 1548.94 Q754.283 1546.07 750.515 1542.31 Q746.733 1538.53 743.885 1537.62 Q741.037 1536.68 739.11 1538.61 M737.146 1536.65 Q740.227 1533.57 744.291 1534.39 Q748.354 1535.19 752.994 1539.83 Q757.622 1544.45 758.433 1548.53 Q759.243 1552.58 756.162 1555.66 Q753.08 1558.74 749.017 1557.95 Q744.953 1557.12 740.325 1552.5 Q735.685 1547.85 734.875 1543.8 Q734.065 1539.73 737.146 1536.65 Z" fill="#000000" fill-rule="nonzero" fill-opacity="1" /><path clip-path="url(#clip940)" d="M763.38 1541.5 L765.97 1538.91 L769.088 1542.02 L766.498 1544.61 L763.38 1541.5 Z" fill="#000000" fill-rule="nonzero" fill-opacity="1" /><path clip-path="url(#clip940)" d="M756.186 1518.27 L765.921 1508.53 L768.008 1510.62 L760.544 1518.09 L765.037 1522.58 Q765.393 1521.85 765.847 1521.23 Q766.289 1520.59 766.829 1520.05 Q769.898 1516.98 773.373 1516.87 Q776.847 1516.76 779.719 1519.63 Q782.678 1522.59 782.481 1526.08 Q782.273 1529.55 778.921 1532.9 Q777.767 1534.06 776.368 1535.06 Q774.981 1536.06 773.311 1536.94 L770.819 1534.45 Q772.526 1533.95 773.999 1533.06 Q775.472 1532.18 776.785 1530.86 Q778.909 1528.74 779.032 1526.38 Q779.155 1524.03 777.24 1522.11 Q775.325 1520.2 772.967 1520.32 Q770.61 1520.44 768.487 1522.57 Q767.492 1523.56 766.719 1524.78 Q765.958 1525.98 765.393 1527.48 L756.186 1518.27 Z" fill="#000000" fill-rule="nonzero" fill-opacity="1" /><path clip-path="url(#clip940)" d="M772.182 1502.27 L781.917 1492.54 L784.004 1494.63 L776.54 1502.09 L781.033 1506.58 Q781.389 1505.86 781.843 1505.23 Q782.285 1504.59 782.825 1504.05 Q785.894 1500.98 789.368 1500.87 Q792.842 1500.76 795.715 1503.64 Q798.674 1506.59 798.477 1510.08 Q798.269 1513.56 794.917 1516.91 Q793.763 1518.06 792.364 1519.07 Q790.977 1520.06 789.307 1520.95 L786.815 1518.45 Q788.521 1517.95 789.994 1517.07 Q791.468 1516.18 792.781 1514.87 Q794.905 1512.75 795.028 1510.39 Q795.15 1508.03 793.235 1506.12 Q791.32 1504.2 788.963 1504.32 Q786.606 1504.45 784.482 1506.57 Q783.488 1507.56 782.715 1508.78 Q781.954 1509.98 781.389 1511.48 L772.182 1502.27 Z" fill="#000000" fill-rule="nonzero" fill-opacity="1" /><path clip-path="url(#clip940)" d="M941.142 1539.22 Q939.227 1541.14 940.148 1544 Q941.068 1546.84 944.849 1550.62 Q948.618 1554.39 951.466 1555.32 Q954.314 1556.23 956.229 1554.31 Q958.157 1552.38 957.236 1549.55 Q956.315 1546.69 952.547 1542.92 Q948.766 1539.14 945.918 1538.23 Q943.069 1537.3 941.142 1539.22 M939.178 1537.26 Q942.259 1534.18 946.323 1535 Q950.386 1535.8 955.026 1540.44 Q959.654 1545.07 960.465 1549.14 Q961.275 1553.19 958.194 1556.28 Q955.112 1559.36 951.049 1558.56 Q946.986 1557.74 942.357 1553.11 Q937.717 1548.47 936.907 1544.42 Q936.097 1540.34 939.178 1537.26 Z" fill="#000000" fill-rule="nonzero" fill-opacity="1" /><path clip-path="url(#clip940)" d="M965.412 1542.11 L968.002 1539.52 L971.12 1542.64 L968.53 1545.23 L965.412 1542.11 Z" fill="#000000" fill-rule="nonzero" fill-opacity="1" /><path clip-path="url(#clip940)" d="M958.218 1518.88 L967.953 1509.15 L970.04 1511.24 L962.576 1518.7 L967.069 1523.19 Q967.425 1522.47 967.879 1521.84 Q968.321 1521.2 968.862 1520.66 Q971.931 1517.59 975.405 1517.48 Q978.879 1517.37 981.751 1520.25 Q984.71 1523.2 984.514 1526.69 Q984.305 1530.17 980.953 1533.52 Q979.8 1534.67 978.4 1535.68 Q977.013 1536.67 975.343 1537.56 L972.851 1535.06 Q974.558 1534.56 976.031 1533.68 Q977.504 1532.79 978.817 1531.48 Q980.941 1529.35 981.064 1527 Q981.187 1524.64 979.272 1522.73 Q977.357 1520.81 975 1520.93 Q972.643 1521.06 970.519 1523.18 Q969.524 1524.17 968.751 1525.39 Q967.99 1526.59 967.425 1528.09 L958.218 1518.88 Z" fill="#000000" fill-rule="nonzero" fill-opacity="1" /><path clip-path="url(#clip940)" d="M987.975 1505.48 Q986.306 1507.15 986.465 1509.27 Q986.637 1511.38 988.626 1513.37 Q990.602 1515.35 992.726 1515.53 Q994.85 1515.69 996.52 1514.02 Q998.189 1512.35 998.017 1510.24 Q997.845 1508.1 995.869 1506.13 Q993.88 1504.14 991.756 1503.98 Q989.645 1503.81 987.975 1505.48 M985.127 1492.78 L987.386 1495.04 Q986.011 1495.53 984.82 1496.26 Q983.642 1496.97 982.709 1497.9 Q980.254 1500.36 980.61 1503.32 Q980.978 1506.26 984.145 1509.8 Q983.802 1508.01 984.329 1506.35 Q984.845 1504.68 986.159 1503.37 Q988.921 1500.6 992.198 1500.69 Q995.476 1500.75 998.361 1503.64 Q1001.18 1506.46 1001.22 1509.84 Q1001.26 1513.21 998.484 1515.99 Q995.304 1519.17 991.192 1518.42 Q987.067 1517.66 982.439 1513.03 Q978.093 1508.68 977.578 1504.04 Q977.05 1499.39 980.524 1495.91 Q981.457 1494.98 982.586 1494.22 Q983.728 1493.45 985.127 1492.78 Z" fill="#000000" fill-rule="nonzero" fill-opacity="1" /><polyline clip-path="url(#clip940)" style="stroke:#000000; stroke-linecap:round; stroke-linejoin:round; stroke-width:4; stroke-opacity:1; fill:none" points="128.138,1467.41 128.138,897.552 "/>
<polyline clip-path="url(#clip940)" style="stroke:#000000; stroke-linecap:round; stroke-linejoin:round; stroke-width:4; stroke-opacity:1; fill:none" points="128.138,1467.41 147.035,1467.41 "/>
<polyline clip-path="url(#clip940)" style="stroke:#000000; stroke-linecap:round; stroke-linejoin:round; stroke-width:4; stroke-opacity:1; fill:none" points="128.138,1369.16 147.035,1369.16 "/>
<polyline clip-path="url(#clip940)" style="stroke:#000000; stroke-linecap:round; stroke-linejoin:round; stroke-width:4; stroke-opacity:1; fill:none" points="128.138,1270.9 147.035,1270.9 "/>
<polyline clip-path="url(#clip940)" style="stroke:#000000; stroke-linecap:round; stroke-linejoin:round; stroke-width:4; stroke-opacity:1; fill:none" points="128.138,1172.65 147.035,1172.65 "/>
<polyline clip-path="url(#clip940)" style="stroke:#000000; stroke-linecap:round; stroke-linejoin:round; stroke-width:4; stroke-opacity:1; fill:none" points="128.138,1074.4 147.035,1074.4 "/>
<polyline clip-path="url(#clip940)" style="stroke:#000000; stroke-linecap:round; stroke-linejoin:round; stroke-width:4; stroke-opacity:1; fill:none" points="128.138,976.153 147.035,976.153 "/>
<path clip-path="url(#clip940)" d="M83.1795 1456.76 Q80.4711 1456.76 79.0996 1459.43 Q77.7455 1462.09 77.7455 1467.43 Q77.7455 1472.76 79.0996 1475.44 Q80.4711 1478.09 83.1795 1478.09 Q85.9051 1478.09 87.2593 1475.44 Q88.6308 1472.76 88.6308 1467.43 Q88.6308 1462.09 87.2593 1459.43 Q85.9051 1456.76 83.1795 1456.76 M83.1795 1453.98 Q87.5371 1453.98 89.8287 1457.43 Q92.1377 1460.87 92.1377 1467.43 Q92.1377 1473.98 89.8287 1477.43 Q87.5371 1480.87 83.1795 1480.87 Q78.8218 1480.87 76.5128 1477.43 Q74.2212 1473.98 74.2212 1467.43 Q74.2212 1460.87 76.5128 1457.43 Q78.8218 1453.98 83.1795 1453.98 Z" fill="#000000" fill-rule="nonzero" fill-opacity="1" /><path clip-path="url(#clip940)" d="M53.6657 1379.16 L59.3949 1379.16 L59.3949 1359.39 L53.1623 1360.64 L53.1623 1357.45 L59.3601 1356.2 L62.8671 1356.2 L62.8671 1379.16 L68.5962 1379.16 L68.5962 1382.12 L53.6657 1382.12 L53.6657 1379.16 Z" fill="#000000" fill-rule="nonzero" fill-opacity="1" /><path clip-path="url(#clip940)" d="M83.1795 1358.5 Q80.4711 1358.5 79.0996 1361.18 Q77.7455 1363.83 77.7455 1369.18 Q77.7455 1374.51 79.0996 1377.19 Q80.4711 1379.84 83.1795 1379.84 Q85.9051 1379.84 87.2593 1377.19 Q88.6308 1374.51 88.6308 1369.18 Q88.6308 1363.83 87.2593 1361.18 Q85.9051 1358.5 83.1795 1358.5 M83.1795 1355.73 Q87.5371 1355.73 89.8287 1359.18 Q92.1377 1362.62 92.1377 1369.18 Q92.1377 1375.73 89.8287 1379.18 Q87.5371 1382.62 83.1795 1382.62 Q78.8218 1382.62 76.5128 1379.18 Q74.2212 1375.73 74.2212 1369.18 Q74.2212 1362.62 76.5128 1359.18 Q78.8218 1355.73 83.1795 1355.73 Z" fill="#000000" fill-rule="nonzero" fill-opacity="1" /><path clip-path="url(#clip940)" d="M56.0789 1280.91 L68.3184 1280.91 L68.3184 1283.86 L51.8602 1283.86 L51.8602 1280.91 Q53.8567 1278.85 57.2942 1275.38 Q60.749 1271.89 61.6344 1270.88 Q63.3184 1268.99 63.9782 1267.68 Q64.6552 1266.36 64.6552 1265.1 Q64.6552 1263.03 63.1969 1261.73 Q61.756 1260.43 59.4296 1260.43 Q57.7803 1260.43 55.94 1261 Q54.1171 1261.57 52.0338 1262.74 L52.0338 1259.19 Q54.1518 1258.34 55.9921 1257.91 Q57.8324 1257.48 59.3601 1257.48 Q63.3879 1257.48 65.7837 1259.49 Q68.1795 1261.5 68.1795 1264.87 Q68.1795 1266.47 67.5719 1267.91 Q66.9816 1269.33 65.4018 1271.28 Q64.9677 1271.78 62.6414 1274.19 Q60.315 1276.59 56.0789 1280.91 Z" fill="#000000" fill-rule="nonzero" fill-opacity="1" /><path clip-path="url(#clip940)" d="M83.1795 1260.25 Q80.4711 1260.25 79.0996 1262.93 Q77.7455 1265.58 77.7455 1270.93 Q77.7455 1276.26 79.0996 1278.93 Q80.4711 1281.59 83.1795 1281.59 Q85.9051 1281.59 87.2593 1278.93 Q88.6308 1276.26 88.6308 1270.93 Q88.6308 1265.58 87.2593 1262.93 Q85.9051 1260.25 83.1795 1260.25 M83.1795 1257.48 Q87.5371 1257.48 89.8287 1260.93 Q92.1377 1264.37 92.1377 1270.93 Q92.1377 1277.48 89.8287 1280.93 Q87.5371 1284.37 83.1795 1284.37 Q78.8218 1284.37 76.5128 1280.93 Q74.2212 1277.48 74.2212 1270.93 Q74.2212 1264.37 76.5128 1260.93 Q78.8218 1257.48 83.1795 1257.48 Z" fill="#000000" fill-rule="nonzero" fill-opacity="1" /><path clip-path="url(#clip940)" d="M63.683 1171.64 Q66.2004 1172.18 67.6066 1173.88 Q69.0302 1175.58 69.0302 1178.08 Q69.0302 1181.92 66.3913 1184.02 Q63.7525 1186.12 58.8914 1186.12 Q57.2595 1186.12 55.5234 1185.79 Q53.8046 1185.48 51.9643 1184.83 L51.9643 1181.45 Q53.4227 1182.3 55.1588 1182.73 Q56.8949 1183.17 58.7872 1183.17 Q62.0858 1183.17 63.8046 1181.86 Q65.5407 1180.56 65.5407 1178.08 Q65.5407 1175.79 63.9261 1174.5 Q62.3289 1173.2 59.4643 1173.2 L56.4435 1173.2 L56.4435 1170.32 L59.6032 1170.32 Q62.19 1170.32 63.5615 1169.29 Q64.933 1168.25 64.933 1166.31 Q64.933 1164.31 63.5094 1163.25 Q62.1032 1162.18 59.4643 1162.18 Q58.0233 1162.18 56.374 1162.49 Q54.7247 1162.8 52.7456 1163.46 L52.7456 1160.34 Q54.7421 1159.78 56.4782 1159.5 Q58.2317 1159.23 59.7768 1159.23 Q63.7698 1159.23 66.0962 1161.05 Q68.4226 1162.85 68.4226 1165.94 Q68.4226 1168.1 67.19 1169.59 Q65.9573 1171.07 63.683 1171.64 Z" fill="#000000" fill-rule="nonzero" fill-opacity="1" /><path clip-path="url(#clip940)" d="M83.1795 1162 Q80.4711 1162 79.0996 1164.68 Q77.7455 1167.33 77.7455 1172.68 Q77.7455 1178.01 79.0996 1180.68 Q80.4711 1183.34 83.1795 1183.34 Q85.9051 1183.34 87.2593 1180.68 Q88.6308 1178.01 88.6308 1172.68 Q88.6308 1167.33 87.2593 1164.68 Q85.9051 1162 83.1795 1162 M83.1795 1159.23 Q87.5371 1159.23 89.8287 1162.68 Q92.1377 1166.12 92.1377 1172.68 Q92.1377 1179.23 89.8287 1182.68 Q87.5371 1186.12 83.1795 1186.12 Q78.8218 1186.12 76.5128 1182.68 Q74.2212 1179.23 74.2212 1172.68 Q74.2212 1166.12 76.5128 1162.68 Q78.8218 1159.23 83.1795 1159.23 Z" fill="#000000" fill-rule="nonzero" fill-opacity="1" /><path clip-path="url(#clip940)" d="M62.6935 1064.5 L53.8393 1078.34 L62.6935 1078.34 L62.6935 1064.5 M61.7733 1061.44 L66.183 1061.44 L66.183 1078.34 L69.8809 1078.34 L69.8809 1081.25 L66.183 1081.25 L66.183 1087.36 L62.6935 1087.36 L62.6935 1081.25 L50.9921 1081.25 L50.9921 1077.87 L61.7733 1061.44 Z" fill="#000000" fill-rule="nonzero" fill-opacity="1" /><path clip-path="url(#clip940)" d="M83.1795 1063.75 Q80.4711 1063.75 79.0996 1066.43 Q77.7455 1069.08 77.7455 1074.43 Q77.7455 1079.76 79.0996 1082.43 Q80.4711 1085.09 83.1795 1085.09 Q85.9051 1085.09 87.2593 1082.43 Q88.6308 1079.76 88.6308 1074.43 Q88.6308 1069.08 87.2593 1066.43 Q85.9051 1063.75 83.1795 1063.75 M83.1795 1060.97 Q87.5371 1060.97 89.8287 1064.43 Q92.1377 1067.87 92.1377 1074.43 Q92.1377 1080.97 89.8287 1084.43 Q87.5371 1087.87 83.1795 1087.87 Q78.8218 1087.87 76.5128 1084.43 Q74.2212 1080.97 74.2212 1074.43 Q74.2212 1067.87 76.5128 1064.43 Q78.8218 1060.97 83.1795 1060.97 Z" fill="#000000" fill-rule="nonzero" fill-opacity="1" /><path clip-path="url(#clip940)" d="M53.0928 963.193 L66.8601 963.193 L66.8601 966.144 L56.3046 966.144 L56.3046 972.498 Q57.0685 972.238 57.8324 972.116 Q58.5963 971.977 59.3601 971.977 Q63.7004 971.977 66.2351 974.356 Q68.7698 976.734 68.7698 980.797 Q68.7698 984.981 66.1657 987.307 Q63.5615 989.616 58.8219 989.616 Q57.19 989.616 55.4886 989.338 Q53.8046 989.061 51.9991 988.505 L51.9991 984.981 Q53.5616 985.831 55.2282 986.248 Q56.8949 986.665 58.7525 986.665 Q61.756 986.665 63.5094 985.085 Q65.2629 983.505 65.2629 980.797 Q65.2629 978.088 63.5094 976.509 Q61.756 974.929 58.7525 974.929 Q57.3463 974.929 55.94 975.241 Q54.5511 975.554 53.0928 976.213 L53.0928 963.193 Z" fill="#000000" fill-rule="nonzero" fill-opacity="1" /><path clip-path="url(#clip940)" d="M83.1795 965.502 Q80.4711 965.502 79.0996 968.175 Q77.7455 970.832 77.7455 976.179 Q77.7455 981.509 79.0996 984.182 Q80.4711 986.838 83.1795 986.838 Q85.9051 986.838 87.2593 984.182 Q88.6308 981.509 88.6308 976.179 Q88.6308 970.832 87.2593 968.175 Q85.9051 965.502 83.1795 965.502 M83.1795 962.724 Q87.5371 962.724 89.8287 966.179 Q92.1377 969.616 92.1377 976.179 Q92.1377 982.724 89.8287 986.179 Q87.5371 989.616 83.1795 989.616 Q78.8218 989.616 76.5128 986.179 Q74.2212 982.724 74.2212 976.179 Q74.2212 969.616 76.5128 966.179 Q78.8218 962.724 83.1795 962.724 Z" fill="#000000" fill-rule="nonzero" fill-opacity="1" /><path clip-path="url(#clip940)" d="M140.036 818.926 Q136.517 818.926 134.619 821.472 Q132.628 824.134 132.628 828.532 Q132.628 833.185 134.596 835.87 Q136.587 838.532 140.036 838.532 Q143.439 838.532 145.429 835.847 Q147.42 833.162 147.42 828.532 Q147.42 824.296 145.429 821.472 Q143.601 818.926 140.036 818.926 M140.036 815.546 L154.179 815.546 L154.179 819.805 L149.411 819.805 Q151.934 823.417 151.934 828.532 Q151.934 834.898 148.763 838.509 Q145.591 842.143 140.036 842.143 Q134.457 842.143 131.309 838.509 Q128.138 834.898 128.138 828.532 Q128.138 822.12 131.309 818.532 Q133.925 815.546 140.036 815.546 Z" fill="#000000" fill-rule="nonzero" fill-opacity="1" /><path clip-path="url(#clip940)" d="M165.198 841.472 L157.281 815.546 L161.864 815.546 L168.554 837.305 Q171.332 834.435 173.647 830.454 Q175.406 827.467 175.499 824.875 Q175.545 823.648 174.989 821.333 Q174.341 818.579 171.888 815.546 L176.193 815.546 L176.193 815.546 Q177.79 817.606 178.855 820.477 Q179.827 823.116 179.827 824.921 Q179.827 829.458 176.679 833.509 Q172.582 838.787 169.735 841.472 L165.198 841.472 Z" fill="#000000" fill-rule="nonzero" fill-opacity="1" /><path clip-path="url(#clip944)" d="M184.494 1457.58 L184.494 1467.41 L285.817 1467.41 L285.817 1457.58 L184.494 1457.58 L184.494 1457.58  Z" fill="#009af9" fill-rule="evenodd" fill-opacity="1"/>
<polyline clip-path="url(#clip944)" style="stroke:#000000; stroke-linecap:round; stroke-linejoin:round; stroke-width:4; stroke-opacity:1; fill:none" points="184.494,1457.58 184.494,1467.41 285.817,1467.41 285.817,1457.58 184.494,1457.58 "/>
<path clip-path="url(#clip944)" d="M285.817 1447.76 L285.817 1467.41 L387.139 1467.41 L387.139 1447.76 L285.817 1447.76 L285.817 1447.76  Z" fill="#009af9" fill-rule="evenodd" fill-opacity="1"/>
<polyline clip-path="url(#clip944)" style="stroke:#000000; stroke-linecap:round; stroke-linejoin:round; stroke-width:4; stroke-opacity:1; fill:none" points="285.817,1447.76 285.817,1467.41 387.139,1467.41 387.139,1447.76 285.817,1447.76 "/>
<path clip-path="url(#clip944)" d="M387.139 1270.9 L387.139 1467.41 L488.462 1467.41 L488.462 1270.9 L387.139 1270.9 L387.139 1270.9  Z" fill="#009af9" fill-rule="evenodd" fill-opacity="1"/>
<polyline clip-path="url(#clip944)" style="stroke:#000000; stroke-linecap:round; stroke-linejoin:round; stroke-width:4; stroke-opacity:1; fill:none" points="387.139,1270.9 387.139,1467.41 488.462,1467.41 488.462,1270.9 387.139,1270.9 "/>
<path clip-path="url(#clip944)" d="M488.462 1064.58 L488.462 1467.41 L589.785 1467.41 L589.785 1064.58 L488.462 1064.58 L488.462 1064.58  Z" fill="#009af9" fill-rule="evenodd" fill-opacity="1"/>
<polyline clip-path="url(#clip944)" style="stroke:#000000; stroke-linecap:round; stroke-linejoin:round; stroke-width:4; stroke-opacity:1; fill:none" points="488.462,1064.58 488.462,1467.41 589.785,1467.41 589.785,1064.58 488.462,1064.58 "/>
<path clip-path="url(#clip944)" d="M589.785 897.552 L589.785 1467.41 L691.108 1467.41 L691.108 897.552 L589.785 897.552 L589.785 897.552  Z" fill="#009af9" fill-rule="evenodd" fill-opacity="1"/>
<polyline clip-path="url(#clip944)" style="stroke:#000000; stroke-linecap:round; stroke-linejoin:round; stroke-width:4; stroke-opacity:1; fill:none" points="589.785,897.552 589.785,1467.41 691.108,1467.41 691.108,897.552 589.785,897.552 "/>
<path clip-path="url(#clip944)" d="M691.108 1015.45 L691.108 1467.41 L792.431 1467.41 L792.431 1015.45 L691.108 1015.45 L691.108 1015.45  Z" fill="#009af9" fill-rule="evenodd" fill-opacity="1"/>
<polyline clip-path="url(#clip944)" style="stroke:#000000; stroke-linecap:round; stroke-linejoin:round; stroke-width:4; stroke-opacity:1; fill:none" points="691.108,1015.45 691.108,1467.41 792.431,1467.41 792.431,1015.45 691.108,1015.45 "/>
<path clip-path="url(#clip944)" d="M792.431 1270.9 L792.431 1467.41 L893.754 1467.41 L893.754 1270.9 L792.431 1270.9 L792.431 1270.9  Z" fill="#009af9" fill-rule="evenodd" fill-opacity="1"/>
<polyline clip-path="url(#clip944)" style="stroke:#000000; stroke-linecap:round; stroke-linejoin:round; stroke-width:4; stroke-opacity:1; fill:none" points="792.431,1270.9 792.431,1467.41 893.754,1467.41 893.754,1270.9 792.431,1270.9 "/>
<path clip-path="url(#clip944)" d="M893.754 1398.63 L893.754 1467.41 L995.077 1467.41 L995.077 1398.63 L893.754 1398.63 L893.754 1398.63  Z" fill="#009af9" fill-rule="evenodd" fill-opacity="1"/>
<polyline clip-path="url(#clip944)" style="stroke:#000000; stroke-linecap:round; stroke-linejoin:round; stroke-width:4; stroke-opacity:1; fill:none" points="893.754,1398.63 893.754,1467.41 995.077,1467.41 995.077,1398.63 893.754,1398.63 "/>
<path clip-path="url(#clip944)" d="M995.077 1457.58 L995.077 1467.41 L1096.4 1467.41 L1096.4 1457.58 L995.077 1457.58 L995.077 1457.58  Z" fill="#009af9" fill-rule="evenodd" fill-opacity="1"/>
<polyline clip-path="url(#clip944)" style="stroke:#000000; stroke-linecap:round; stroke-linejoin:round; stroke-width:4; stroke-opacity:1; fill:none" points="995.077,1457.58 995.077,1467.41 1096.4,1467.41 1096.4,1457.58 995.077,1457.58 "/>
<circle clip-path="url(#clip944)" style="fill:#009af9; stroke:none; fill-opacity:0" cx="235.155" cy="1457.58" r="2"/>
<circle clip-path="url(#clip944)" style="fill:#009af9; stroke:none; fill-opacity:0" cx="336.478" cy="1447.76" r="2"/>
<circle clip-path="url(#clip944)" style="fill:#009af9; stroke:none; fill-opacity:0" cx="437.801" cy="1270.9" r="2"/>
<circle clip-path="url(#clip944)" style="fill:#009af9; stroke:none; fill-opacity:0" cx="539.124" cy="1064.58" r="2"/>
<circle clip-path="url(#clip944)" style="fill:#009af9; stroke:none; fill-opacity:0" cx="640.447" cy="897.552" r="2"/>
<circle clip-path="url(#clip944)" style="fill:#009af9; stroke:none; fill-opacity:0" cx="741.77" cy="1015.45" r="2"/>
<circle clip-path="url(#clip944)" style="fill:#009af9; stroke:none; fill-opacity:0" cx="843.093" cy="1270.9" r="2"/>
<circle clip-path="url(#clip944)" style="fill:#009af9; stroke:none; fill-opacity:0" cx="944.416" cy="1398.63" r="2"/>
<circle clip-path="url(#clip944)" style="fill:#009af9; stroke:none; fill-opacity:0" cx="1045.74" cy="1457.58" r="2"/>
<polyline clip-path="url(#clip944)" style="stroke:#ff0000; stroke-linecap:round; stroke-linejoin:round; stroke-width:8; stroke-opacity:1; fill:none" stroke-dasharray="32, 20" points="634.145,2037.26 634.145,327.698 "/>
<polyline clip-path="url(#clip944)" style="stroke:#ff0000; stroke-linecap:round; stroke-linejoin:round; stroke-width:6; stroke-opacity:1; fill:none" stroke-dasharray="24, 12, 3, 12" points="341.696,2037.26 341.696,327.698 "/>
<polyline clip-path="url(#clip944)" style="stroke:#ff0000; stroke-linecap:round; stroke-linejoin:round; stroke-width:6; stroke-opacity:1; fill:none" stroke-dasharray="24, 12, 3, 12" points="913.109,2037.26 913.109,327.698 "/>
</svg>
