<?xml version="1.0" encoding="utf-8"?>
<svg xmlns="http://www.w3.org/2000/svg" xmlns:xlink="http://www.w3.org/1999/xlink" width="600" height="400" viewBox="0 0 2400 1600">
<defs>
  <clipPath id="clip850">
    <rect x="0" y="0" width="2400" height="1600"/>
  </clipPath>
</defs>
<path clip-path="url(#clip850)" d="M0 1600 L2400 1600 L2400 0 L0 0  Z" fill="#ffffff" fill-rule="evenodd" fill-opacity="1"/>
<defs>
  <clipPath id="clip851">
    <rect x="162" y="0" width="2195" height="1600"/>
  </clipPath>
</defs>
<path clip-path="url(#clip850)" d="M161.818 667.406 L1152.94 667.406 L1152.94 97.5521 L161.818 97.5521  Z" fill="#ffffff" fill-rule="evenodd" fill-opacity="1"/>
<defs>
  <clipPath id="clip852">
    <rect x="161" y="97" width="992" height="571"/>
  </clipPath>
</defs>
<polyline clip-path="url(#clip852)" style="stroke:#000000; stroke-linecap:round; stroke-linejoin:round; stroke-width:2; stroke-opacity:0.1; fill:none" points="185.733,667.406 185.733,97.5521 "/>
<polyline clip-path="url(#clip852)" style="stroke:#000000; stroke-linecap:round; stroke-linejoin:round; stroke-width:2; stroke-opacity:0.1; fill:none" points="448.449,667.406 448.449,97.5521 "/>
<polyline clip-path="url(#clip852)" style="stroke:#000000; stroke-linecap:round; stroke-linejoin:round; stroke-width:2; stroke-opacity:0.1; fill:none" points="711.164,667.406 711.164,97.5521 "/>
<polyline clip-path="url(#clip852)" style="stroke:#000000; stroke-linecap:round; stroke-linejoin:round; stroke-width:2; stroke-opacity:0.1; fill:none" points="973.88,667.406 973.88,97.5521 "/>
<polyline clip-path="url(#clip852)" style="stroke:#000000; stroke-linecap:round; stroke-linejoin:round; stroke-width:2; stroke-opacity:0.1; fill:none" points="161.818,651.278 1152.94,651.278 "/>
<polyline clip-path="url(#clip852)" style="stroke:#000000; stroke-linecap:round; stroke-linejoin:round; stroke-width:2; stroke-opacity:0.1; fill:none" points="161.818,520.63 1152.94,520.63 "/>
<polyline clip-path="url(#clip852)" style="stroke:#000000; stroke-linecap:round; stroke-linejoin:round; stroke-width:2; stroke-opacity:0.1; fill:none" points="161.818,389.981 1152.94,389.981 "/>
<polyline clip-path="url(#clip852)" style="stroke:#000000; stroke-linecap:round; stroke-linejoin:round; stroke-width:2; stroke-opacity:0.1; fill:none" points="161.818,259.332 1152.94,259.332 "/>
<polyline clip-path="url(#clip852)" style="stroke:#000000; stroke-linecap:round; stroke-linejoin:round; stroke-width:2; stroke-opacity:0.1; fill:none" points="161.818,128.683 1152.94,128.683 "/>
<polyline clip-path="url(#clip850)" style="stroke:#000000; stroke-linecap:round; stroke-linejoin:round; stroke-width:4; stroke-opacity:1; fill:none" points="161.818,667.406 1152.94,667.406 "/>
<polyline clip-path="url(#clip850)" style="stroke:#000000; stroke-linecap:round; stroke-linejoin:round; stroke-width:4; stroke-opacity:1; fill:none" points="185.733,667.406 185.733,648.509 "/>
<polyline clip-path="url(#clip850)" style="stroke:#000000; stroke-linecap:round; stroke-linejoin:round; stroke-width:4; stroke-opacity:1; fill:none" points="448.449,667.406 448.449,648.509 "/>
<polyline clip-path="url(#clip850)" style="stroke:#000000; stroke-linecap:round; stroke-linejoin:round; stroke-width:4; stroke-opacity:1; fill:none" points="711.164,667.406 711.164,648.509 "/>
<polyline clip-path="url(#clip850)" style="stroke:#000000; stroke-linecap:round; stroke-linejoin:round; stroke-width:4; stroke-opacity:1; fill:none" points="973.88,667.406 973.88,648.509 "/>
<path clip-path="url(#clip850)" d="M131.884 739.139 Q129.969 741.054 130.89 743.914 Q131.81 746.75 135.591 750.531 Q139.36 754.3 142.208 755.233 Q145.056 756.141 146.971 754.226 Q148.899 752.299 147.978 749.463 Q147.057 746.603 143.289 742.834 Q139.507 739.053 136.659 738.144 Q133.811 737.211 131.884 739.139 M129.92 737.175 Q133.001 734.093 137.065 734.916 Q141.128 735.714 145.768 740.354 Q150.396 744.982 151.207 749.058 Q152.017 753.109 148.936 756.19 Q145.854 759.272 141.791 758.474 Q137.727 757.651 133.099 753.023 Q128.459 748.383 127.649 744.332 Q126.839 740.256 129.92 737.175 Z" fill="#000000" fill-rule="nonzero" fill-opacity="1" /><path clip-path="url(#clip850)" d="M156.154 742.024 L158.744 739.433 L161.862 742.552 L159.272 745.142 L156.154 742.024 Z" fill="#000000" fill-rule="nonzero" fill-opacity="1" /><path clip-path="url(#clip850)" d="M163.863 723.143 Q162.095 724.911 162.022 726.875 Q161.96 728.827 163.618 730.484 Q165.275 732.141 167.227 732.08 Q169.191 732.006 170.959 730.239 Q172.727 728.471 172.8 726.507 Q172.862 724.53 171.217 722.885 Q169.559 721.228 167.595 721.302 Q165.643 721.363 163.863 723.143 M160.328 724.567 Q158.339 725.77 156.35 725.574 Q154.374 725.365 152.802 723.794 Q150.605 721.596 150.887 718.761 Q151.182 715.912 153.907 713.187 Q156.645 710.45 159.481 710.167 Q162.316 709.885 164.514 712.082 Q166.085 713.654 166.282 715.642 Q166.49 717.619 165.3 719.595 Q167.509 718.22 169.719 718.441 Q171.941 718.65 173.696 720.406 Q176.36 723.069 176.152 726.126 Q175.955 729.171 172.923 732.203 Q169.891 735.235 166.834 735.444 Q163.79 735.64 161.126 732.976 Q159.37 731.221 159.161 728.999 Q158.953 726.777 160.328 724.567 M155.503 721.559 Q156.927 722.983 158.609 722.898 Q160.303 722.799 161.911 721.191 Q163.507 719.595 163.605 717.901 Q163.716 716.195 162.292 714.771 Q160.868 713.347 159.161 713.457 Q157.467 713.555 155.872 715.151 Q154.263 716.76 154.165 718.454 Q154.079 720.135 155.503 721.559 Z" fill="#000000" fill-rule="nonzero" fill-opacity="1" /><path clip-path="url(#clip850)" d="M171.867 699.156 Q169.952 701.071 170.873 703.931 Q171.794 706.767 175.575 710.548 Q179.343 714.317 182.191 715.25 Q185.04 716.158 186.955 714.243 Q188.882 712.316 187.961 709.48 Q187.041 706.619 183.272 702.851 Q179.491 699.07 176.643 698.161 Q173.795 697.228 171.867 699.156 M169.903 697.191 Q172.984 694.11 177.048 694.933 Q181.111 695.731 185.752 700.371 Q190.38 704.999 191.19 709.075 Q192 713.126 188.919 716.207 Q185.837 719.288 181.774 718.49 Q177.711 717.668 173.083 713.04 Q168.442 708.399 167.632 704.348 Q166.822 700.273 169.903 697.191 Z" fill="#000000" fill-rule="nonzero" fill-opacity="1" /><path clip-path="url(#clip850)" d="M395.127 738.611 Q393.212 740.526 394.133 743.386 Q395.054 746.222 398.835 750.003 Q402.604 753.772 405.452 754.705 Q408.3 755.613 410.215 753.698 Q412.142 751.771 411.221 748.935 Q410.301 746.075 406.532 742.306 Q402.751 738.525 399.903 737.617 Q397.055 736.684 395.127 738.611 M393.163 736.647 Q396.245 733.565 400.308 734.388 Q404.371 735.186 409.012 739.826 Q413.64 744.454 414.45 748.53 Q415.26 752.581 412.179 755.662 Q409.098 758.744 405.034 757.946 Q400.971 757.123 396.343 752.495 Q391.702 747.855 390.892 743.804 Q390.082 739.728 393.163 736.647 Z" fill="#000000" fill-rule="nonzero" fill-opacity="1" /><path clip-path="url(#clip850)" d="M419.397 741.496 L421.988 738.906 L425.106 742.024 L422.515 744.614 L419.397 741.496 Z" fill="#000000" fill-rule="nonzero" fill-opacity="1" /><path clip-path="url(#clip850)" d="M427.107 722.615 Q425.339 724.383 425.265 726.347 Q425.204 728.299 426.861 729.956 Q428.518 731.614 430.47 731.552 Q432.435 731.479 434.202 729.711 Q435.97 727.943 436.044 725.979 Q436.105 724.002 434.46 722.357 Q432.803 720.7 430.839 720.774 Q428.887 720.835 427.107 722.615 M423.571 724.039 Q421.582 725.242 419.594 725.046 Q417.617 724.837 416.046 723.266 Q413.849 721.068 414.131 718.233 Q414.426 715.385 417.151 712.659 Q419.888 709.922 422.724 709.639 Q425.56 709.357 427.757 711.554 Q429.329 713.126 429.525 715.115 Q429.734 717.091 428.543 719.067 Q430.753 717.692 432.962 717.913 Q435.184 718.122 436.94 719.878 Q439.604 722.542 439.395 725.598 Q439.199 728.643 436.166 731.675 Q433.134 734.707 430.078 734.916 Q427.033 735.112 424.369 732.448 Q422.614 730.693 422.405 728.471 Q422.196 726.249 423.571 724.039 M418.747 721.032 Q420.171 722.456 421.853 722.37 Q423.547 722.271 425.155 720.663 Q426.751 719.067 426.849 717.373 Q426.959 715.667 425.535 714.243 Q424.111 712.819 422.405 712.929 Q420.711 713.028 419.115 714.623 Q417.507 716.232 417.409 717.926 Q417.323 719.608 418.747 721.032 Z" fill="#000000" fill-rule="nonzero" fill-opacity="1" /><path clip-path="url(#clip850)" d="M428.199 702.274 L437.934 692.539 L440.021 694.626 L432.557 702.09 L437.05 706.583 Q437.406 705.858 437.861 705.232 Q438.303 704.594 438.843 704.054 Q441.912 700.985 445.386 700.874 Q448.86 700.764 451.733 703.636 Q454.691 706.595 454.495 710.081 Q454.286 713.555 450.935 716.907 Q449.781 718.061 448.381 719.067 Q446.994 720.062 445.324 720.946 L442.832 718.454 Q444.539 717.95 446.012 717.066 Q447.485 716.183 448.799 714.869 Q450.922 712.745 451.045 710.388 Q451.168 708.031 449.253 706.116 Q447.338 704.201 444.981 704.324 Q442.624 704.447 440.5 706.57 Q439.506 707.565 438.732 708.78 Q437.971 709.983 437.406 711.481 L428.199 702.274 Z" fill="#000000" fill-rule="nonzero" fill-opacity="1" /><path clip-path="url(#clip850)" d="M657.315 739.139 Q655.4 741.054 656.321 743.914 Q657.242 746.75 661.023 750.531 Q664.791 754.3 667.639 755.233 Q670.487 756.141 672.403 754.226 Q674.33 752.299 673.409 749.463 Q672.488 746.603 668.72 742.834 Q664.939 739.053 662.091 738.144 Q659.243 737.211 657.315 739.139 M655.351 737.175 Q658.432 734.093 662.496 734.916 Q666.559 735.714 671.199 740.354 Q675.828 744.982 676.638 749.058 Q677.448 753.109 674.367 756.19 Q671.285 759.272 667.222 758.474 Q663.159 757.651 658.531 753.023 Q653.89 748.383 653.08 744.332 Q652.27 740.256 655.351 737.175 Z" fill="#000000" fill-rule="nonzero" fill-opacity="1" /><path clip-path="url(#clip850)" d="M681.585 742.024 L684.175 739.433 L687.293 742.552 L684.703 745.142 L681.585 742.024 Z" fill="#000000" fill-rule="nonzero" fill-opacity="1" /><path clip-path="url(#clip850)" d="M692.388 736.696 L690.129 734.437 Q691.504 733.946 692.695 733.222 Q693.886 732.497 694.806 731.577 Q697.262 729.122 696.906 726.188 Q696.55 723.229 693.37 719.681 Q693.714 721.449 693.186 723.106 Q692.658 724.764 691.332 726.089 Q688.582 728.839 685.317 728.79 Q682.052 728.716 679.167 725.832 Q676.343 723.008 676.306 719.632 Q676.27 716.256 679.044 713.482 Q682.223 710.302 686.336 711.076 Q690.448 711.825 695.089 716.465 Q699.422 720.798 699.95 725.451 Q700.478 730.079 697.004 733.553 Q696.071 734.486 694.929 735.26 Q693.788 736.033 692.388 736.696 M689.552 723.99 Q691.222 722.321 691.05 720.209 Q690.89 718.085 688.902 716.097 Q686.925 714.12 684.801 713.961 Q682.678 713.776 681.008 715.446 Q679.339 717.116 679.51 719.252 Q679.682 721.363 681.659 723.339 Q683.647 725.328 685.759 725.5 Q687.883 725.66 689.552 723.99 Z" fill="#000000" fill-rule="nonzero" fill-opacity="1" /><path clip-path="url(#clip850)" d="M697.298 699.156 Q695.383 701.071 696.304 703.931 Q697.225 706.767 701.006 710.548 Q704.775 714.317 707.623 715.25 Q710.471 716.158 712.386 714.243 Q714.313 712.316 713.392 709.48 Q712.472 706.619 708.703 702.851 Q704.922 699.07 702.074 698.161 Q699.226 697.228 697.298 699.156 M695.334 697.191 Q698.416 694.11 702.479 694.933 Q706.542 695.731 711.183 700.371 Q715.811 704.999 716.621 709.075 Q717.431 713.126 714.35 716.207 Q711.269 719.288 707.205 718.49 Q703.142 717.668 698.514 713.04 Q693.873 708.399 693.063 704.348 Q692.253 700.273 695.334 697.191 Z" fill="#000000" fill-rule="nonzero" fill-opacity="1" /><path clip-path="url(#clip850)" d="M920.559 738.611 Q918.644 740.526 919.564 743.386 Q920.485 746.222 924.266 750.003 Q928.035 753.772 930.883 754.705 Q933.731 755.613 935.646 753.698 Q937.573 751.771 936.653 748.935 Q935.732 746.075 931.963 742.306 Q928.182 738.525 925.334 737.617 Q922.486 736.684 920.559 738.611 M918.595 736.647 Q921.676 733.565 925.739 734.388 Q929.803 735.186 934.443 739.826 Q939.071 744.454 939.881 748.53 Q940.691 752.581 937.61 755.662 Q934.529 758.744 930.466 757.946 Q926.402 757.123 921.774 752.495 Q917.134 747.855 916.323 743.804 Q915.513 739.728 918.595 736.647 Z" fill="#000000" fill-rule="nonzero" fill-opacity="1" /><path clip-path="url(#clip850)" d="M944.829 741.496 L947.419 738.906 L950.537 742.024 L947.947 744.614 L944.829 741.496 Z" fill="#000000" fill-rule="nonzero" fill-opacity="1" /><path clip-path="url(#clip850)" d="M955.632 736.168 L953.373 733.909 Q954.748 733.418 955.938 732.694 Q957.129 731.97 958.05 731.049 Q960.505 728.594 960.149 725.66 Q959.793 722.701 956.614 719.153 Q956.957 720.921 956.429 722.578 Q955.902 724.236 954.576 725.561 Q951.826 728.311 948.56 728.262 Q945.295 728.189 942.41 725.304 Q939.587 722.48 939.55 719.104 Q939.513 715.728 942.287 712.954 Q945.467 709.774 949.579 710.548 Q953.692 711.297 958.332 715.937 Q962.666 720.27 963.194 724.923 Q963.721 729.551 960.247 733.025 Q959.314 733.958 958.173 734.732 Q957.031 735.505 955.632 736.168 M952.796 723.462 Q954.465 721.793 954.293 719.681 Q954.134 717.557 952.145 715.569 Q950.169 713.592 948.045 713.433 Q945.921 713.249 944.252 714.918 Q942.582 716.588 942.754 718.724 Q942.926 720.835 944.902 722.812 Q946.891 724.8 949.002 724.972 Q951.126 725.132 952.796 723.462 Z" fill="#000000" fill-rule="nonzero" fill-opacity="1" /><path clip-path="url(#clip850)" d="M953.631 702.274 L963.365 692.539 L965.452 694.626 L957.989 702.09 L962.482 706.583 Q962.838 705.858 963.292 705.232 Q963.734 704.594 964.274 704.054 Q967.343 700.985 970.817 700.874 Q974.291 700.764 977.164 703.636 Q980.122 706.595 979.926 710.081 Q979.717 713.555 976.366 716.907 Q975.212 718.061 973.812 719.067 Q972.425 720.062 970.756 720.946 L968.264 718.454 Q969.97 717.95 971.443 717.066 Q972.916 716.183 974.23 714.869 Q976.354 712.745 976.476 710.388 Q976.599 708.031 974.684 706.116 Q972.769 704.201 970.412 704.324 Q968.055 704.447 965.931 706.57 Q964.937 707.565 964.163 708.78 Q963.402 709.983 962.838 711.481 L953.631 702.274 Z" fill="#000000" fill-rule="nonzero" fill-opacity="1" /><polyline clip-path="url(#clip850)" style="stroke:#000000; stroke-linecap:round; stroke-linejoin:round; stroke-width:4; stroke-opacity:1; fill:none" points="161.818,667.406 161.818,97.5521 "/>
<polyline clip-path="url(#clip850)" style="stroke:#000000; stroke-linecap:round; stroke-linejoin:round; stroke-width:4; stroke-opacity:1; fill:none" points="161.818,651.278 180.716,651.278 "/>
<polyline clip-path="url(#clip850)" style="stroke:#000000; stroke-linecap:round; stroke-linejoin:round; stroke-width:4; stroke-opacity:1; fill:none" points="161.818,520.63 180.716,520.63 "/>
<polyline clip-path="url(#clip850)" style="stroke:#000000; stroke-linecap:round; stroke-linejoin:round; stroke-width:4; stroke-opacity:1; fill:none" points="161.818,389.981 180.716,389.981 "/>
<polyline clip-path="url(#clip850)" style="stroke:#000000; stroke-linecap:round; stroke-linejoin:round; stroke-width:4; stroke-opacity:1; fill:none" points="161.818,259.332 180.716,259.332 "/>
<polyline clip-path="url(#clip850)" style="stroke:#000000; stroke-linecap:round; stroke-linejoin:round; stroke-width:4; stroke-opacity:1; fill:none" points="161.818,128.683 180.716,128.683 "/>
<path clip-path="url(#clip850)" d="M116.86 640.627 Q114.152 640.627 112.78 643.301 Q111.426 645.957 111.426 651.304 Q111.426 656.634 112.78 659.308 Q114.152 661.964 116.86 661.964 Q119.586 661.964 120.94 659.308 Q122.311 656.634 122.311 651.304 Q122.311 645.957 120.94 643.301 Q119.586 640.627 116.86 640.627 M116.86 637.85 Q121.217 637.85 123.509 641.305 Q125.818 644.742 125.818 651.304 Q125.818 657.85 123.509 661.304 Q121.217 664.742 116.86 664.742 Q112.502 664.742 110.193 661.304 Q107.902 657.85 107.902 651.304 Q107.902 644.742 110.193 641.305 Q112.502 637.85 116.86 637.85 Z" fill="#000000" fill-rule="nonzero" fill-opacity="1" /><path clip-path="url(#clip850)" d="M110.888 530.638 L116.617 530.638 L116.617 510.864 L110.384 512.114 L110.384 508.92 L116.582 507.67 L120.089 507.67 L120.089 530.638 L125.818 530.638 L125.818 533.59 L110.888 533.59 L110.888 530.638 Z" fill="#000000" fill-rule="nonzero" fill-opacity="1" /><path clip-path="url(#clip850)" d="M113.579 399.989 L125.818 399.989 L125.818 402.941 L109.36 402.941 L109.36 399.989 Q111.356 397.924 114.794 394.451 Q118.249 390.962 119.134 389.955 Q120.818 388.062 121.478 386.76 Q122.155 385.441 122.155 384.174 Q122.155 382.108 120.697 380.806 Q119.256 379.503 116.929 379.503 Q115.28 379.503 113.44 380.076 Q111.617 380.649 109.533 381.812 L109.533 378.271 Q111.652 377.42 113.492 376.986 Q115.332 376.552 116.86 376.552 Q120.888 376.552 123.283 378.566 Q125.679 380.58 125.679 383.948 Q125.679 385.545 125.072 386.986 Q124.481 388.41 122.901 390.354 Q122.467 390.858 120.141 393.271 Q117.815 395.667 113.579 399.989 Z" fill="#000000" fill-rule="nonzero" fill-opacity="1" /><path clip-path="url(#clip850)" d="M120.471 258.316 Q122.988 258.855 124.395 260.556 Q125.818 262.257 125.818 264.757 Q125.818 268.594 123.179 270.695 Q120.54 272.796 115.679 272.796 Q114.047 272.796 112.311 272.466 Q110.593 272.153 108.752 271.511 L108.752 268.125 Q110.211 268.976 111.947 269.41 Q113.683 269.844 115.575 269.844 Q118.874 269.844 120.592 268.542 Q122.329 267.24 122.329 264.757 Q122.329 262.466 120.714 261.181 Q119.117 259.879 116.252 259.879 L113.231 259.879 L113.231 256.997 L116.391 256.997 Q118.978 256.997 120.349 255.973 Q121.721 254.931 121.721 252.987 Q121.721 250.99 120.297 249.931 Q118.891 248.855 116.252 248.855 Q114.811 248.855 113.162 249.167 Q111.513 249.48 109.533 250.139 L109.533 247.014 Q111.53 246.459 113.266 246.181 Q115.02 245.903 116.565 245.903 Q120.558 245.903 122.884 247.726 Q125.21 249.532 125.21 252.622 Q125.21 254.775 123.978 256.268 Q122.745 257.744 120.471 258.316 Z" fill="#000000" fill-rule="nonzero" fill-opacity="1" /><path clip-path="url(#clip850)" d="M118.631 118.779 L109.777 132.616 L118.631 132.616 L118.631 118.779 M117.711 115.723 L122.12 115.723 L122.12 132.616 L125.818 132.616 L125.818 135.532 L122.12 135.532 L122.12 141.643 L118.631 141.643 L118.631 135.532 L106.929 135.532 L106.929 132.147 L117.711 115.723 Z" fill="#000000" fill-rule="nonzero" fill-opacity="1" /><path clip-path="url(#clip850)" d="M163.901 20.1758 Q165.313 17.8147 168.809 15.7314 Q170.175 14.9212 174.387 14.9212 Q179.11 14.9212 182.049 18.6712 Q185.012 22.4212 185.012 28.5323 Q185.012 34.6433 182.049 38.3933 Q179.11 42.1433 174.387 42.1433 Q171.54 42.1433 169.48 41.0322 Q167.443 39.8979 166.1 37.5831 L166.1 51.3331 L161.818 51.3331 L161.818 28.7637 Q161.818 23.4165 163.901 20.1758 M180.591 28.5323 Q180.591 23.8332 178.647 21.1712 Q176.725 18.486 173.346 18.486 Q169.966 18.486 168.022 21.1712 Q166.1 23.8332 166.1 28.5323 Q166.1 33.2313 168.022 35.9165 Q169.966 38.5785 173.346 38.5785 Q176.725 38.5785 178.647 35.9165 Q180.591 33.2313 180.591 28.5323 Z" fill="#000000" fill-rule="nonzero" fill-opacity="1" /><polyline clip-path="url(#clip852)" style="stroke:#009af9; stroke-linecap:round; stroke-linejoin:round; stroke-width:4; stroke-opacity:1; fill:none" points="189.869,593.98 248.307,598.174 306.746,602.895 365.185,608.25 423.623,614.377 482.062,621.455 540.501,629.723 598.939,639.511 657.378,651.278 715.817,636.862 774.256,618.79 832.694,595.469 891.133,564.229 949.572,520.22 1008.01,453.644 1066.45,341.35 1124.89,113.68 "/>
<circle clip-path="url(#clip852)" cx="657.378" cy="651.278" r="10.8" fill="#ff0000" fill-rule="evenodd" fill-opacity="1" stroke="#000000" stroke-opacity="1" stroke-width="3.2"/>
<path clip-path="url(#clip850)" d="M1361.64 667.406 L2352.76 667.406 L2352.76 97.5521 L1361.64 97.5521  Z" fill="#ffffff" fill-rule="evenodd" fill-opacity="1"/>
<defs>
  <clipPath id="clip853">
    <rect x="1361" y="97" width="992" height="571"/>
  </clipPath>
</defs>
<polyline clip-path="url(#clip853)" style="stroke:#000000; stroke-linecap:round; stroke-linejoin:round; stroke-width:2; stroke-opacity:0.1; fill:none" points="1492.45,667.406 1492.45,97.5521 "/>
<polyline clip-path="url(#clip853)" style="stroke:#000000; stroke-linecap:round; stroke-linejoin:round; stroke-width:2; stroke-opacity:0.1; fill:none" points="1636.13,667.406 1636.13,97.5521 "/>
<polyline clip-path="url(#clip853)" style="stroke:#000000; stroke-linecap:round; stroke-linejoin:round; stroke-width:2; stroke-opacity:0.1; fill:none" points="1779.8,667.406 1779.8,97.5521 "/>
<polyline clip-path="url(#clip853)" style="stroke:#000000; stroke-linecap:round; stroke-linejoin:round; stroke-width:2; stroke-opacity:0.1; fill:none" points="1923.48,667.406 1923.48,97.5521 "/>
<polyline clip-path="url(#clip853)" style="stroke:#000000; stroke-linecap:round; stroke-linejoin:round; stroke-width:2; stroke-opacity:0.1; fill:none" points="2067.16,667.406 2067.16,97.5521 "/>
<polyline clip-path="url(#clip853)" style="stroke:#000000; stroke-linecap:round; stroke-linejoin:round; stroke-width:2; stroke-opacity:0.1; fill:none" points="2210.84,667.406 2210.84,97.5521 "/>
<polyline clip-path="url(#clip853)" style="stroke:#000000; stroke-linecap:round; stroke-linejoin:round; stroke-width:2; stroke-opacity:0.1; fill:none" points="1361.64,651.278 2352.76,651.278 "/>
<polyline clip-path="url(#clip853)" style="stroke:#000000; stroke-linecap:round; stroke-linejoin:round; stroke-width:2; stroke-opacity:0.1; fill:none" points="1361.64,508.288 2352.76,508.288 "/>
<polyline clip-path="url(#clip853)" style="stroke:#000000; stroke-linecap:round; stroke-linejoin:round; stroke-width:2; stroke-opacity:0.1; fill:none" points="1361.64,365.297 2352.76,365.297 "/>
<polyline clip-path="url(#clip853)" style="stroke:#000000; stroke-linecap:round; stroke-linejoin:round; stroke-width:2; stroke-opacity:0.1; fill:none" points="1361.64,222.306 2352.76,222.306 "/>
<polyline clip-path="url(#clip850)" style="stroke:#000000; stroke-linecap:round; stroke-linejoin:round; stroke-width:4; stroke-opacity:1; fill:none" points="1361.64,667.406 2352.76,667.406 "/>
<polyline clip-path="url(#clip850)" style="stroke:#000000; stroke-linecap:round; stroke-linejoin:round; stroke-width:4; stroke-opacity:1; fill:none" points="1492.45,667.406 1492.45,648.509 "/>
<polyline clip-path="url(#clip850)" style="stroke:#000000; stroke-linecap:round; stroke-linejoin:round; stroke-width:4; stroke-opacity:1; fill:none" points="1636.13,667.406 1636.13,648.509 "/>
<polyline clip-path="url(#clip850)" style="stroke:#000000; stroke-linecap:round; stroke-linejoin:round; stroke-width:4; stroke-opacity:1; fill:none" points="1779.8,667.406 1779.8,648.509 "/>
<polyline clip-path="url(#clip850)" style="stroke:#000000; stroke-linecap:round; stroke-linejoin:round; stroke-width:4; stroke-opacity:1; fill:none" points="1923.48,667.406 1923.48,648.509 "/>
<polyline clip-path="url(#clip850)" style="stroke:#000000; stroke-linecap:round; stroke-linejoin:round; stroke-width:4; stroke-opacity:1; fill:none" points="2067.16,667.406 2067.16,648.509 "/>
<polyline clip-path="url(#clip850)" style="stroke:#000000; stroke-linecap:round; stroke-linejoin:round; stroke-width:4; stroke-opacity:1; fill:none" points="2210.84,667.406 2210.84,648.509 "/>
<path clip-path="url(#clip850)" d="M1438.6 739.139 Q1436.68 741.054 1437.6 743.914 Q1438.52 746.75 1442.31 750.531 Q1446.07 754.3 1448.92 755.233 Q1451.77 756.141 1453.69 754.226 Q1455.61 752.299 1454.69 749.463 Q1453.77 746.603 1450 742.834 Q1446.22 739.053 1443.37 738.144 Q1440.53 737.211 1438.6 739.139 M1436.63 737.175 Q1439.72 734.093 1443.78 734.916 Q1447.84 735.714 1452.48 740.354 Q1457.11 744.982 1457.92 749.058 Q1458.73 753.109 1455.65 756.19 Q1452.57 759.272 1448.51 758.474 Q1444.44 757.651 1439.81 753.023 Q1435.17 748.383 1434.36 744.332 Q1433.55 740.256 1436.63 737.175 Z" fill="#000000" fill-rule="nonzero" fill-opacity="1" /><path clip-path="url(#clip850)" d="M1462.87 742.024 L1465.46 739.433 L1468.58 742.552 L1465.99 745.142 L1462.87 742.024 Z" fill="#000000" fill-rule="nonzero" fill-opacity="1" /><path clip-path="url(#clip850)" d="M1471.61 719.755 Q1473.77 718.355 1475.97 718.564 Q1478.18 718.761 1479.94 720.528 Q1482.66 723.241 1482.28 726.593 Q1481.9 729.944 1478.46 733.381 Q1477.31 734.535 1475.84 735.53 Q1474.41 736.524 1472.65 737.371 L1470.26 734.977 Q1471.89 734.548 1473.43 733.627 Q1474.96 732.706 1476.3 731.368 Q1478.63 729.036 1478.93 726.9 Q1479.23 724.751 1477.48 722.996 Q1475.86 721.375 1473.81 721.609 Q1471.76 721.817 1469.73 723.843 L1467.59 725.979 L1465.56 723.941 L1467.79 721.707 Q1469.62 719.878 1469.87 718.184 Q1470.1 716.477 1468.72 715.102 Q1467.31 713.69 1465.56 713.948 Q1463.8 714.182 1461.94 716.047 Q1460.92 717.066 1459.97 718.454 Q1459.03 719.841 1458.09 721.707 L1455.88 719.497 Q1456.9 717.692 1457.93 716.268 Q1458.98 714.832 1460.07 713.74 Q1462.89 710.916 1465.83 710.56 Q1468.75 710.192 1470.93 712.377 Q1472.46 713.899 1472.64 715.827 Q1472.81 717.742 1471.61 719.755 Z" fill="#000000" fill-rule="nonzero" fill-opacity="1" /><path clip-path="url(#clip850)" d="M1478.58 699.156 Q1476.67 701.071 1477.59 703.931 Q1478.51 706.767 1482.29 710.548 Q1486.06 714.317 1488.91 715.25 Q1491.75 716.158 1493.67 714.243 Q1495.6 712.316 1494.68 709.48 Q1493.76 706.619 1489.99 702.851 Q1486.21 699.07 1483.36 698.161 Q1480.51 697.228 1478.58 699.156 M1476.62 697.191 Q1479.7 694.11 1483.76 694.933 Q1487.83 695.731 1492.47 700.371 Q1497.09 704.999 1497.9 709.075 Q1498.71 713.126 1495.63 716.207 Q1492.55 719.288 1488.49 718.49 Q1484.43 717.668 1479.8 713.04 Q1475.16 708.399 1474.35 704.348 Q1473.54 700.273 1476.62 697.191 Z" fill="#000000" fill-rule="nonzero" fill-opacity="1" /><path clip-path="url(#clip850)" d="M1582.93 738.488 Q1581.01 740.403 1581.93 743.264 Q1582.85 746.099 1586.63 749.88 Q1590.4 753.649 1593.25 754.582 Q1596.1 755.491 1598.01 753.576 Q1599.94 751.648 1599.02 748.812 Q1598.1 745.952 1594.33 742.183 Q1590.55 738.402 1587.7 737.494 Q1584.85 736.561 1582.93 738.488 M1580.96 736.524 Q1584.04 733.443 1588.11 734.265 Q1592.17 735.063 1596.81 739.704 Q1601.44 744.332 1602.25 748.407 Q1603.06 752.458 1599.98 755.54 Q1596.9 758.621 1592.83 757.823 Q1588.77 757.001 1584.14 752.372 Q1579.5 747.732 1578.69 743.681 Q1577.88 739.605 1580.96 736.524 Z" fill="#000000" fill-rule="nonzero" fill-opacity="1" /><path clip-path="url(#clip850)" d="M1607.2 741.373 L1609.79 738.783 L1612.91 741.901 L1610.32 744.491 L1607.2 741.373 Z" fill="#000000" fill-rule="nonzero" fill-opacity="1" /><path clip-path="url(#clip850)" d="M1615.94 719.104 Q1618.1 717.705 1620.3 717.913 Q1622.51 718.11 1624.27 719.878 Q1626.99 722.591 1626.61 725.942 Q1626.23 729.293 1622.79 732.731 Q1621.63 733.885 1620.17 734.879 Q1618.74 735.873 1616.98 736.72 L1614.59 734.327 Q1616.22 733.897 1617.75 732.976 Q1619.29 732.056 1620.63 730.717 Q1622.96 728.385 1623.25 726.249 Q1623.56 724.101 1621.81 722.345 Q1620.19 720.725 1618.14 720.958 Q1616.09 721.167 1614.06 723.192 L1611.92 725.328 L1609.89 723.29 L1612.12 721.056 Q1613.95 719.227 1614.19 717.533 Q1614.43 715.827 1613.05 714.452 Q1611.64 713.04 1609.89 713.298 Q1608.13 713.531 1606.26 715.397 Q1605.25 716.416 1604.3 717.803 Q1603.35 719.19 1602.42 721.056 L1600.21 718.846 Q1601.23 717.042 1602.26 715.618 Q1603.31 714.182 1604.4 713.089 Q1607.22 710.265 1610.16 709.909 Q1613.08 709.541 1615.26 711.726 Q1616.78 713.249 1616.97 715.176 Q1617.14 717.091 1615.94 719.104 Z" fill="#000000" fill-rule="nonzero" fill-opacity="1" /><path clip-path="url(#clip850)" d="M1632.65 717.987 L1636.7 713.936 L1622.71 699.954 L1619.19 705.245 L1616.93 702.986 L1620.43 697.719 L1622.91 695.24 L1639.15 711.481 L1643.2 707.43 L1645.29 709.517 L1634.73 720.074 L1632.65 717.987 Z" fill="#000000" fill-rule="nonzero" fill-opacity="1" /><path clip-path="url(#clip850)" d="M1726.8 738.292 Q1724.89 740.207 1725.81 743.067 Q1726.73 745.903 1730.51 749.684 Q1734.28 753.453 1737.13 754.386 Q1739.97 755.294 1741.89 753.379 Q1743.82 751.452 1742.9 748.616 Q1741.98 745.756 1738.21 741.987 Q1734.43 738.206 1731.58 737.297 Q1728.73 736.364 1726.8 738.292 M1724.84 736.328 Q1727.92 733.246 1731.98 734.069 Q1736.05 734.867 1740.69 739.507 Q1745.31 744.135 1746.12 748.211 Q1746.93 752.262 1743.85 755.343 Q1740.77 758.425 1736.71 757.627 Q1732.65 756.804 1728.02 752.176 Q1723.38 747.536 1722.57 743.485 Q1721.76 739.409 1724.84 736.328 Z" fill="#000000" fill-rule="nonzero" fill-opacity="1" /><path clip-path="url(#clip850)" d="M1751.07 741.177 L1753.66 738.586 L1756.78 741.705 L1754.19 744.295 L1751.07 741.177 Z" fill="#000000" fill-rule="nonzero" fill-opacity="1" /><path clip-path="url(#clip850)" d="M1759.81 718.908 Q1761.97 717.508 1764.17 717.717 Q1766.38 717.913 1768.15 719.681 Q1770.86 722.394 1770.48 725.746 Q1770.1 729.097 1766.66 732.534 Q1765.51 733.688 1764.05 734.683 Q1762.61 735.677 1760.86 736.524 L1758.46 734.13 Q1760.09 733.701 1761.63 732.78 Q1763.16 731.859 1764.5 730.521 Q1766.83 728.189 1767.13 726.053 Q1767.44 723.904 1765.68 722.149 Q1764.06 720.528 1762.01 720.762 Q1759.96 720.97 1757.93 722.996 L1755.8 725.132 L1753.76 723.094 L1755.99 720.86 Q1757.82 719.031 1758.07 717.336 Q1758.3 715.63 1756.93 714.255 Q1755.52 712.843 1753.76 713.101 Q1752 713.334 1750.14 715.2 Q1749.12 716.219 1748.17 717.607 Q1747.23 718.994 1746.3 720.86 L1744.09 718.65 Q1745.11 716.845 1746.14 715.421 Q1747.18 713.985 1748.27 712.893 Q1751.1 710.069 1754.03 709.713 Q1756.95 709.345 1759.14 711.53 Q1760.66 713.052 1760.84 714.979 Q1761.02 716.895 1759.81 718.908 Z" fill="#000000" fill-rule="nonzero" fill-opacity="1" /><path clip-path="url(#clip850)" d="M1778.23 716.084 L1786.88 707.43 L1788.97 709.517 L1777.33 721.154 L1775.24 719.067 Q1775.19 716.195 1775.17 711.309 Q1775.15 706.398 1775.06 705.06 Q1774.91 702.532 1774.46 701.144 Q1774 699.733 1773.11 698.836 Q1771.65 697.376 1769.69 697.486 Q1767.76 697.584 1766.11 699.229 Q1764.94 700.395 1764.05 702.102 Q1763.16 703.796 1762.51 706.092 L1760.01 703.587 Q1760.91 701.488 1761.9 699.88 Q1762.89 698.272 1763.97 697.191 Q1766.82 694.343 1769.94 694.073 Q1773.06 693.803 1775.44 696.185 Q1776.57 697.314 1777.16 698.763 Q1777.75 700.187 1778.01 702.679 Q1778.05 703.342 1778.12 706.693 Q1778.17 710.032 1778.23 716.084 Z" fill="#000000" fill-rule="nonzero" fill-opacity="1" /><path clip-path="url(#clip850)" d="M1869.98 738.795 Q1868.06 740.71 1868.98 743.571 Q1869.9 746.406 1873.68 750.187 Q1877.45 753.956 1880.3 754.889 Q1883.15 755.797 1885.06 753.882 Q1886.99 751.955 1886.07 749.119 Q1885.15 746.259 1881.38 742.49 Q1877.6 738.709 1874.75 737.801 Q1871.9 736.868 1869.98 738.795 M1868.01 736.831 Q1871.09 733.75 1875.16 734.572 Q1879.22 735.37 1883.86 740.01 Q1888.49 744.639 1889.3 748.714 Q1890.11 752.765 1887.03 755.847 Q1883.95 758.928 1879.88 758.13 Q1875.82 757.307 1871.19 752.679 Q1866.55 748.039 1865.74 743.988 Q1864.93 739.912 1868.01 736.831 Z" fill="#000000" fill-rule="nonzero" fill-opacity="1" /><path clip-path="url(#clip850)" d="M1894.25 741.68 L1896.84 739.09 L1899.96 742.208 L1897.36 744.798 L1894.25 741.68 Z" fill="#000000" fill-rule="nonzero" fill-opacity="1" /><path clip-path="url(#clip850)" d="M1902.99 719.411 Q1905.15 718.012 1907.35 718.22 Q1909.56 718.417 1911.32 720.185 Q1914.04 722.898 1913.66 726.249 Q1913.27 729.6 1909.84 733.038 Q1908.68 734.192 1907.22 735.186 Q1905.79 736.18 1904.03 737.027 L1901.64 734.634 Q1903.27 734.204 1904.8 733.283 Q1906.34 732.362 1907.68 731.024 Q1910.01 728.692 1910.3 726.556 Q1910.61 724.408 1908.86 722.652 Q1907.23 721.032 1905.18 721.265 Q1903.13 721.474 1901.11 723.499 L1898.97 725.635 L1896.94 723.597 L1899.17 721.363 Q1901 719.534 1901.24 717.84 Q1901.48 716.133 1900.1 714.759 Q1898.69 713.347 1896.94 713.605 Q1895.18 713.838 1893.31 715.704 Q1892.29 716.723 1891.35 718.11 Q1890.4 719.497 1889.47 721.363 L1887.26 719.153 Q1888.28 717.349 1889.31 715.925 Q1890.36 714.488 1891.45 713.396 Q1894.27 710.572 1897.21 710.216 Q1900.13 709.848 1902.31 712.033 Q1903.83 713.555 1904.02 715.483 Q1904.19 717.398 1902.99 719.411 Z" fill="#000000" fill-rule="nonzero" fill-opacity="1" /><path clip-path="url(#clip850)" d="M1918.98 703.415 Q1921.14 702.016 1923.34 702.225 Q1925.55 702.421 1927.32 704.189 Q1930.03 706.902 1929.65 710.253 Q1929.27 713.605 1925.83 717.042 Q1924.68 718.196 1923.22 719.19 Q1921.78 720.185 1920.03 721.032 L1917.63 718.638 Q1919.27 718.208 1920.8 717.287 Q1922.33 716.367 1923.67 715.029 Q1926.01 712.696 1926.3 710.56 Q1926.61 708.412 1924.85 706.656 Q1923.23 705.036 1921.18 705.269 Q1919.13 705.478 1917.1 707.503 L1914.97 709.639 L1912.93 707.602 L1915.17 705.367 Q1916.99 703.538 1917.24 701.844 Q1917.47 700.138 1916.1 698.763 Q1914.69 697.351 1912.93 697.609 Q1911.18 697.842 1909.31 699.708 Q1908.29 700.727 1907.35 702.114 Q1906.4 703.501 1905.47 705.367 L1903.26 703.158 Q1904.28 701.353 1905.31 699.929 Q1906.35 698.493 1907.44 697.4 Q1910.27 694.577 1913.2 694.221 Q1916.12 693.852 1918.31 696.037 Q1919.83 697.56 1920.01 699.487 Q1920.19 701.402 1918.98 703.415 Z" fill="#000000" fill-rule="nonzero" fill-opacity="1" /><path clip-path="url(#clip850)" d="M2013.05 739.397 Q2011.14 741.312 2012.06 744.172 Q2012.98 747.008 2016.76 750.789 Q2020.53 754.558 2023.38 755.491 Q2026.23 756.399 2028.14 754.484 Q2030.07 752.557 2029.15 749.721 Q2028.23 746.86 2024.46 743.092 Q2020.68 739.311 2017.83 738.402 Q2014.98 737.469 2013.05 739.397 M2011.09 737.432 Q2014.17 734.351 2018.23 735.174 Q2022.3 735.972 2026.94 740.612 Q2031.57 745.24 2032.38 749.316 Q2033.19 753.367 2030.11 756.448 Q2027.02 759.529 2022.96 758.731 Q2018.9 757.909 2014.27 753.281 Q2009.63 748.641 2008.82 744.589 Q2008.01 740.514 2011.09 737.432 Z" fill="#000000" fill-rule="nonzero" fill-opacity="1" /><path clip-path="url(#clip850)" d="M2037.32 742.282 L2039.91 739.691 L2043.03 742.809 L2040.44 745.4 L2037.32 742.282 Z" fill="#000000" fill-rule="nonzero" fill-opacity="1" /><path clip-path="url(#clip850)" d="M2046.06 720.013 Q2048.22 718.613 2050.42 718.822 Q2052.63 719.018 2054.4 720.786 Q2057.11 723.499 2056.73 726.85 Q2056.35 730.202 2052.91 733.639 Q2051.76 734.793 2050.3 735.787 Q2048.86 736.782 2047.11 737.629 L2044.71 735.235 Q2046.35 734.805 2047.88 733.885 Q2049.42 732.964 2050.75 731.626 Q2053.09 729.293 2053.38 727.157 Q2053.69 725.009 2051.93 723.254 Q2050.31 721.633 2048.26 721.866 Q2046.21 722.075 2044.19 724.101 L2042.05 726.237 L2040.01 724.199 L2042.25 721.965 Q2044.08 720.135 2044.32 718.441 Q2044.55 716.735 2043.18 715.36 Q2041.77 713.948 2040.01 714.206 Q2038.26 714.439 2036.39 716.305 Q2035.37 717.324 2034.43 718.711 Q2033.48 720.099 2032.55 721.965 L2030.34 719.755 Q2031.36 717.95 2032.39 716.526 Q2033.43 715.09 2034.52 713.997 Q2037.35 711.174 2040.28 710.818 Q2043.2 710.45 2045.39 712.635 Q2046.91 714.157 2047.1 716.084 Q2047.27 717.999 2046.06 720.013 Z" fill="#000000" fill-rule="nonzero" fill-opacity="1" /><path clip-path="url(#clip850)" d="M2055.07 698.431 L2058.6 714.476 L2064.86 708.215 L2055.07 698.431 M2052.26 696.921 L2055.38 693.803 L2067.33 705.748 L2069.94 703.133 L2072 705.195 L2069.39 707.81 L2073.71 712.131 L2071.24 714.599 L2066.92 710.278 L2058.65 718.552 L2056.25 716.158 L2052.26 696.921 Z" fill="#000000" fill-rule="nonzero" fill-opacity="1" /><path clip-path="url(#clip850)" d="M2157.52 738.611 Q2155.6 740.526 2156.52 743.386 Q2157.44 746.222 2161.22 750.003 Q2164.99 753.772 2167.84 754.705 Q2170.69 755.613 2172.6 753.698 Q2174.53 751.771 2173.61 748.935 Q2172.69 746.075 2168.92 742.306 Q2165.14 738.525 2162.29 737.617 Q2159.44 736.684 2157.52 738.611 M2155.55 736.647 Q2158.63 733.565 2162.7 734.388 Q2166.76 735.186 2171.4 739.826 Q2176.03 744.454 2176.84 748.53 Q2177.65 752.581 2174.57 755.662 Q2171.49 758.744 2167.42 757.946 Q2163.36 757.123 2158.73 752.495 Q2154.09 747.855 2153.28 743.804 Q2152.47 739.728 2155.55 736.647 Z" fill="#000000" fill-rule="nonzero" fill-opacity="1" /><path clip-path="url(#clip850)" d="M2181.79 741.496 L2184.38 738.906 L2187.5 742.024 L2184.91 744.614 L2181.79 741.496 Z" fill="#000000" fill-rule="nonzero" fill-opacity="1" /><path clip-path="url(#clip850)" d="M2190.53 719.227 Q2192.69 717.828 2194.89 718.036 Q2197.1 718.233 2198.86 720 Q2201.58 722.713 2201.2 726.065 Q2200.82 729.416 2197.38 732.853 Q2196.22 734.007 2194.76 735.002 Q2193.33 735.996 2191.57 736.843 L2189.18 734.449 Q2190.81 734.02 2192.34 733.099 Q2193.88 732.178 2195.22 730.84 Q2197.55 728.508 2197.84 726.372 Q2198.15 724.223 2196.4 722.468 Q2194.78 720.847 2192.73 721.081 Q2190.68 721.289 2188.65 723.315 L2186.51 725.451 L2184.48 723.413 L2186.71 721.179 Q2188.54 719.35 2188.78 717.656 Q2189.02 715.949 2187.64 714.574 Q2186.23 713.163 2184.48 713.42 Q2182.72 713.654 2180.85 715.52 Q2179.84 716.539 2178.89 717.926 Q2177.94 719.313 2177.01 721.179 L2174.8 718.969 Q2175.82 717.165 2176.85 715.741 Q2177.9 714.304 2178.99 713.212 Q2181.81 710.388 2184.75 710.032 Q2187.67 709.664 2189.85 711.849 Q2191.37 713.371 2191.56 715.299 Q2191.73 717.214 2190.53 719.227 Z" fill="#000000" fill-rule="nonzero" fill-opacity="1" /><path clip-path="url(#clip850)" d="M2190.59 702.274 L2200.32 692.539 L2202.41 694.626 L2194.95 702.09 L2199.44 706.583 Q2199.8 705.858 2200.25 705.232 Q2200.69 704.594 2201.23 704.054 Q2204.3 700.985 2207.78 700.874 Q2211.25 700.764 2214.12 703.636 Q2217.08 706.595 2216.88 710.081 Q2216.68 713.555 2213.32 716.907 Q2212.17 718.061 2210.77 719.067 Q2209.38 720.062 2207.71 720.946 L2205.22 718.454 Q2206.93 717.95 2208.4 717.066 Q2209.88 716.183 2211.19 714.869 Q2213.31 712.745 2213.44 710.388 Q2213.56 708.031 2211.64 706.116 Q2209.73 704.201 2207.37 704.324 Q2205.01 704.447 2202.89 706.57 Q2201.9 707.565 2201.12 708.78 Q2200.36 709.983 2199.8 711.481 L2190.59 702.274 Z" fill="#000000" fill-rule="nonzero" fill-opacity="1" /><polyline clip-path="url(#clip850)" style="stroke:#000000; stroke-linecap:round; stroke-linejoin:round; stroke-width:4; stroke-opacity:1; fill:none" points="1361.64,667.406 1361.64,97.5521 "/>
<polyline clip-path="url(#clip850)" style="stroke:#000000; stroke-linecap:round; stroke-linejoin:round; stroke-width:4; stroke-opacity:1; fill:none" points="1361.64,651.278 1380.53,651.278 "/>
<polyline clip-path="url(#clip850)" style="stroke:#000000; stroke-linecap:round; stroke-linejoin:round; stroke-width:4; stroke-opacity:1; fill:none" points="1361.64,508.288 1380.53,508.288 "/>
<polyline clip-path="url(#clip850)" style="stroke:#000000; stroke-linecap:round; stroke-linejoin:round; stroke-width:4; stroke-opacity:1; fill:none" points="1361.64,365.297 1380.53,365.297 "/>
<polyline clip-path="url(#clip850)" style="stroke:#000000; stroke-linecap:round; stroke-linejoin:round; stroke-width:4; stroke-opacity:1; fill:none" points="1361.64,222.306 1380.53,222.306 "/>
<path clip-path="url(#clip850)" d="M1260.13 640.627 Q1257.42 640.627 1256.05 643.301 Q1254.7 645.957 1254.7 651.304 Q1254.7 656.634 1256.05 659.308 Q1257.42 661.964 1260.13 661.964 Q1262.86 661.964 1264.21 659.308 Q1265.58 656.634 1265.58 651.304 Q1265.58 645.957 1264.21 643.301 Q1262.86 640.627 1260.13 640.627 M1260.13 637.85 Q1264.49 637.85 1266.78 641.305 Q1269.09 644.742 1269.09 651.304 Q1269.09 657.85 1266.78 661.304 Q1264.49 664.742 1260.13 664.742 Q1255.78 664.742 1253.47 661.304 Q1251.17 657.85 1251.17 651.304 Q1251.17 644.742 1253.47 641.305 Q1255.78 637.85 1260.13 637.85 Z" fill="#000000" fill-rule="nonzero" fill-opacity="1" /><path clip-path="url(#clip850)" d="M1275.25 659.829 L1278.92 659.829 L1278.92 664.238 L1275.25 664.238 L1275.25 659.829 Z" fill="#000000" fill-rule="nonzero" fill-opacity="1" /><path clip-path="url(#clip850)" d="M1294.06 640.627 Q1291.35 640.627 1289.98 643.301 Q1288.62 645.957 1288.62 651.304 Q1288.62 656.634 1289.98 659.308 Q1291.35 661.964 1294.06 661.964 Q1296.78 661.964 1298.14 659.308 Q1299.51 656.634 1299.51 651.304 Q1299.51 645.957 1298.14 643.301 Q1296.78 640.627 1294.06 640.627 M1294.06 637.85 Q1298.41 637.85 1300.71 641.305 Q1303.01 644.742 1303.01 651.304 Q1303.01 657.85 1300.71 661.304 Q1298.41 664.742 1294.06 664.742 Q1289.7 664.742 1287.39 661.304 Q1285.1 657.85 1285.1 651.304 Q1285.1 644.742 1287.39 641.305 Q1289.7 637.85 1294.06 637.85 Z" fill="#000000" fill-rule="nonzero" fill-opacity="1" /><path clip-path="url(#clip850)" d="M1316.68 640.627 Q1313.97 640.627 1312.6 643.301 Q1311.24 645.957 1311.24 651.304 Q1311.24 656.634 1312.6 659.308 Q1313.97 661.964 1316.68 661.964 Q1319.4 661.964 1320.76 659.308 Q1322.13 656.634 1322.13 651.304 Q1322.13 645.957 1320.76 643.301 Q1319.4 640.627 1316.68 640.627 M1316.68 637.85 Q1321.04 637.85 1323.33 641.305 Q1325.64 644.742 1325.64 651.304 Q1325.64 657.85 1323.33 661.304 Q1321.04 664.742 1316.68 664.742 Q1312.32 664.742 1310.01 661.304 Q1307.72 657.85 1307.72 651.304 Q1307.72 644.742 1310.01 641.305 Q1312.32 637.85 1316.68 637.85 Z" fill="#000000" fill-rule="nonzero" fill-opacity="1" /><path clip-path="url(#clip850)" d="M1260.88 497.637 Q1258.17 497.637 1256.8 500.31 Q1255.45 502.967 1255.45 508.314 Q1255.45 513.644 1256.8 516.317 Q1258.17 518.973 1260.88 518.973 Q1263.6 518.973 1264.96 516.317 Q1266.33 513.644 1266.33 508.314 Q1266.33 502.967 1264.96 500.31 Q1263.6 497.637 1260.88 497.637 M1260.88 494.859 Q1265.24 494.859 1267.53 498.314 Q1269.84 501.751 1269.84 508.314 Q1269.84 514.859 1267.53 518.314 Q1265.24 521.751 1260.88 521.751 Q1256.52 521.751 1254.21 518.314 Q1251.92 514.859 1251.92 508.314 Q1251.92 501.751 1254.21 498.314 Q1256.52 494.859 1260.88 494.859 Z" fill="#000000" fill-rule="nonzero" fill-opacity="1" /><path clip-path="url(#clip850)" d="M1276 516.838 L1279.66 516.838 L1279.66 521.248 L1276 521.248 L1276 516.838 Z" fill="#000000" fill-rule="nonzero" fill-opacity="1" /><path clip-path="url(#clip850)" d="M1294.8 497.637 Q1292.09 497.637 1290.72 500.31 Q1289.37 502.967 1289.37 508.314 Q1289.37 513.644 1290.72 516.317 Q1292.09 518.973 1294.8 518.973 Q1297.53 518.973 1298.88 516.317 Q1300.25 513.644 1300.25 508.314 Q1300.25 502.967 1298.88 500.31 Q1297.53 497.637 1294.8 497.637 M1294.8 494.859 Q1299.16 494.859 1301.45 498.314 Q1303.76 501.751 1303.76 508.314 Q1303.76 514.859 1301.45 518.314 Q1299.16 521.751 1294.8 521.751 Q1290.45 521.751 1288.14 518.314 Q1285.84 514.859 1285.84 508.314 Q1285.84 501.751 1288.14 498.314 Q1290.45 494.859 1294.8 494.859 Z" fill="#000000" fill-rule="nonzero" fill-opacity="1" /><path clip-path="url(#clip850)" d="M1309.96 495.328 L1323.73 495.328 L1323.73 498.279 L1313.17 498.279 L1313.17 504.633 Q1313.93 504.373 1314.7 504.251 Q1315.46 504.112 1316.23 504.112 Q1320.57 504.112 1323.1 506.491 Q1325.64 508.869 1325.64 512.932 Q1325.64 517.116 1323.03 519.442 Q1320.43 521.751 1315.69 521.751 Q1314.06 521.751 1312.35 521.473 Q1310.67 521.196 1308.87 520.64 L1308.87 517.116 Q1310.43 517.966 1312.09 518.383 Q1313.76 518.8 1315.62 518.8 Q1318.62 518.8 1320.38 517.22 Q1322.13 515.64 1322.13 512.932 Q1322.13 510.223 1320.38 508.644 Q1318.62 507.064 1315.62 507.064 Q1314.21 507.064 1312.81 507.376 Q1311.42 507.689 1309.96 508.348 L1309.96 495.328 Z" fill="#000000" fill-rule="nonzero" fill-opacity="1" /><path clip-path="url(#clip850)" d="M1260.13 354.646 Q1257.42 354.646 1256.05 357.32 Q1254.7 359.976 1254.7 365.323 Q1254.7 370.653 1256.05 373.326 Q1257.42 375.983 1260.13 375.983 Q1262.86 375.983 1264.21 373.326 Q1265.58 370.653 1265.58 365.323 Q1265.58 359.976 1264.21 357.32 Q1262.86 354.646 1260.13 354.646 M1260.13 351.868 Q1264.49 351.868 1266.78 355.323 Q1269.09 358.761 1269.09 365.323 Q1269.09 371.868 1266.78 375.323 Q1264.49 378.76 1260.13 378.76 Q1255.78 378.76 1253.47 375.323 Q1251.17 371.868 1251.17 365.323 Q1251.17 358.761 1253.47 355.323 Q1255.78 351.868 1260.13 351.868 Z" fill="#000000" fill-rule="nonzero" fill-opacity="1" /><path clip-path="url(#clip850)" d="M1275.25 373.847 L1278.92 373.847 L1278.92 378.257 L1275.25 378.257 L1275.25 373.847 Z" fill="#000000" fill-rule="nonzero" fill-opacity="1" /><path clip-path="url(#clip850)" d="M1287.16 375.306 L1292.89 375.306 L1292.89 355.531 L1286.66 356.781 L1286.66 353.587 L1292.86 352.337 L1296.37 352.337 L1296.37 375.306 L1302.09 375.306 L1302.09 378.257 L1287.16 378.257 L1287.16 375.306 Z" fill="#000000" fill-rule="nonzero" fill-opacity="1" /><path clip-path="url(#clip850)" d="M1316.68 354.646 Q1313.97 354.646 1312.6 357.32 Q1311.24 359.976 1311.24 365.323 Q1311.24 370.653 1312.6 373.326 Q1313.97 375.983 1316.68 375.983 Q1319.4 375.983 1320.76 373.326 Q1322.13 370.653 1322.13 365.323 Q1322.13 359.976 1320.76 357.32 Q1319.4 354.646 1316.68 354.646 M1316.68 351.868 Q1321.04 351.868 1323.33 355.323 Q1325.64 358.761 1325.64 365.323 Q1325.64 371.868 1323.33 375.323 Q1321.04 378.76 1316.68 378.76 Q1312.32 378.76 1310.01 375.323 Q1307.72 371.868 1307.72 365.323 Q1307.72 358.761 1310.01 355.323 Q1312.32 351.868 1316.68 351.868 Z" fill="#000000" fill-rule="nonzero" fill-opacity="1" /><path clip-path="url(#clip850)" d="M1260.88 211.655 Q1258.17 211.655 1256.8 214.329 Q1255.45 216.985 1255.45 222.332 Q1255.45 227.662 1256.8 230.336 Q1258.17 232.992 1260.88 232.992 Q1263.6 232.992 1264.96 230.336 Q1266.33 227.662 1266.33 222.332 Q1266.33 216.985 1264.96 214.329 Q1263.6 211.655 1260.88 211.655 M1260.88 208.878 Q1265.24 208.878 1267.53 212.332 Q1269.84 215.77 1269.84 222.332 Q1269.84 228.877 1267.53 232.332 Q1265.24 235.77 1260.88 235.77 Q1256.52 235.77 1254.21 232.332 Q1251.92 228.877 1251.92 222.332 Q1251.92 215.77 1254.21 212.332 Q1256.52 208.878 1260.88 208.878 Z" fill="#000000" fill-rule="nonzero" fill-opacity="1" /><path clip-path="url(#clip850)" d="M1276 230.857 L1279.66 230.857 L1279.66 235.266 L1276 235.266 L1276 230.857 Z" fill="#000000" fill-rule="nonzero" fill-opacity="1" /><path clip-path="url(#clip850)" d="M1287.91 232.315 L1293.64 232.315 L1293.64 212.541 L1287.41 213.791 L1287.41 210.596 L1293.6 209.346 L1297.11 209.346 L1297.11 232.315 L1302.84 232.315 L1302.84 235.266 L1287.91 235.266 L1287.91 232.315 Z" fill="#000000" fill-rule="nonzero" fill-opacity="1" /><path clip-path="url(#clip850)" d="M1309.96 209.346 L1323.73 209.346 L1323.73 212.298 L1313.17 212.298 L1313.17 218.652 Q1313.93 218.391 1314.7 218.27 Q1315.46 218.131 1316.23 218.131 Q1320.57 218.131 1323.1 220.509 Q1325.64 222.888 1325.64 226.95 Q1325.64 231.134 1323.03 233.461 Q1320.43 235.77 1315.69 235.77 Q1314.06 235.77 1312.35 235.492 Q1310.67 235.214 1308.87 234.659 L1308.87 231.134 Q1310.43 231.985 1312.09 232.402 Q1313.76 232.818 1315.62 232.818 Q1318.62 232.818 1320.38 231.239 Q1322.13 229.659 1322.13 226.95 Q1322.13 224.242 1320.38 222.662 Q1318.62 221.082 1315.62 221.082 Q1314.21 221.082 1312.81 221.395 Q1311.42 221.707 1309.96 222.367 L1309.96 209.346 Z" fill="#000000" fill-rule="nonzero" fill-opacity="1" /><path clip-path="url(#clip850)" d="M1373.53 18.9258 Q1370.02 18.9258 1368.12 21.4721 Q1366.13 24.1341 1366.13 28.5323 Q1366.13 33.185 1368.09 35.8702 Q1370.08 38.5322 1373.53 38.5322 Q1376.94 38.5322 1378.93 35.847 Q1380.92 33.1619 1380.92 28.5323 Q1380.92 24.2962 1378.93 21.4721 Q1377.1 18.9258 1373.53 18.9258 M1373.53 15.5462 L1387.68 15.5462 L1387.68 19.8054 L1382.91 19.8054 Q1385.43 23.4165 1385.43 28.5323 Q1385.43 34.898 1382.26 38.5091 Q1379.09 42.1433 1373.53 42.1433 Q1367.96 42.1433 1364.81 38.5091 Q1361.64 34.898 1361.64 28.5323 Q1361.64 22.1203 1364.81 18.5323 Q1367.42 15.5462 1373.53 15.5462 Z" fill="#000000" fill-rule="nonzero" fill-opacity="1" /><path clip-path="url(#clip850)" d="M1411.84 19.6666 Q1410.99 19.3656 1410.13 19.1342 Q1407.84 18.5323 1405.39 18.5323 Q1401.15 18.5323 1398.79 20.824 Q1396.59 22.9536 1396.17 26.8656 L1411.84 26.8656 L1411.84 30.1989 L1396.17 30.1989 Q1396.59 34.1109 1398.79 36.2405 Q1401.15 38.5322 1405.39 38.5322 Q1408.35 38.5322 1410.13 37.9304 L1411.84 37.3517 L1411.84 41.2174 L1410.02 41.634 Q1407.61 42.1433 1405.13 42.1433 Q1398.93 42.1433 1395.32 38.5322 Q1391.68 34.9211 1391.68 28.5323 Q1391.68 22.1434 1395.32 18.5323 Q1398.93 14.9212 1405.13 14.9212 Q1407.47 14.9212 1410.02 15.4305 Q1410.94 15.6157 1411.84 15.8934 L1411.84 19.6666 Z" fill="#000000" fill-rule="nonzero" fill-opacity="1" /><polyline clip-path="url(#clip853)" style="stroke:#009af9; stroke-linecap:round; stroke-linejoin:round; stroke-width:4; stroke-opacity:1; fill:none" points="1389.69,164.933 1448.13,222.923 1506.56,281.714 1565,341.306 1623.44,401.699 1681.88,462.893 1740.32,524.887 1798.76,587.682 1857.2,651.278 1915.63,586.882 1974.07,521.684 2032.51,455.685 2090.95,388.886 2149.39,321.286 2207.83,252.885 2266.27,183.683 2324.71,113.68 "/>
<circle clip-path="url(#clip853)" cx="1857.2" cy="651.278" r="10.8" fill="#ff0000" fill-rule="evenodd" fill-opacity="1" stroke="#000000" stroke-opacity="1" stroke-width="3.2"/>
<path clip-path="url(#clip850)" d="M161.818 1467.41 L1152.94 1467.41 L1152.94 897.552 L161.818 897.552  Z" fill="#ffffff" fill-rule="evenodd" fill-opacity="1"/>
<defs>
  <clipPath id="clip854">
    <rect x="161" y="897" width="992" height="571"/>
  </clipPath>
</defs>
<polyline clip-path="url(#clip854)" style="stroke:#000000; stroke-linecap:round; stroke-linejoin:round; stroke-width:2; stroke-opacity:0.1; fill:none" points="293.598,1467.41 293.598,897.552 "/>
<polyline clip-path="url(#clip854)" style="stroke:#000000; stroke-linecap:round; stroke-linejoin:round; stroke-width:2; stroke-opacity:0.1; fill:none" points="466.05,1467.41 466.05,897.552 "/>
<polyline clip-path="url(#clip854)" style="stroke:#000000; stroke-linecap:round; stroke-linejoin:round; stroke-width:2; stroke-opacity:0.1; fill:none" points="638.503,1467.41 638.503,897.552 "/>
<polyline clip-path="url(#clip854)" style="stroke:#000000; stroke-linecap:round; stroke-linejoin:round; stroke-width:2; stroke-opacity:0.1; fill:none" points="810.956,1467.41 810.956,897.552 "/>
<polyline clip-path="url(#clip854)" style="stroke:#000000; stroke-linecap:round; stroke-linejoin:round; stroke-width:2; stroke-opacity:0.1; fill:none" points="983.408,1467.41 983.408,897.552 "/>
<polyline clip-path="url(#clip854)" style="stroke:#000000; stroke-linecap:round; stroke-linejoin:round; stroke-width:2; stroke-opacity:0.1; fill:none" points="161.818,1451.28 1152.94,1451.28 "/>
<polyline clip-path="url(#clip854)" style="stroke:#000000; stroke-linecap:round; stroke-linejoin:round; stroke-width:2; stroke-opacity:0.1; fill:none" points="161.818,1330.53 1152.94,1330.53 "/>
<polyline clip-path="url(#clip854)" style="stroke:#000000; stroke-linecap:round; stroke-linejoin:round; stroke-width:2; stroke-opacity:0.1; fill:none" points="161.818,1209.78 1152.94,1209.78 "/>
<polyline clip-path="url(#clip854)" style="stroke:#000000; stroke-linecap:round; stroke-linejoin:round; stroke-width:2; stroke-opacity:0.1; fill:none" points="161.818,1089.04 1152.94,1089.04 "/>
<polyline clip-path="url(#clip854)" style="stroke:#000000; stroke-linecap:round; stroke-linejoin:round; stroke-width:2; stroke-opacity:0.1; fill:none" points="161.818,968.29 1152.94,968.29 "/>
<polyline clip-path="url(#clip850)" style="stroke:#000000; stroke-linecap:round; stroke-linejoin:round; stroke-width:4; stroke-opacity:1; fill:none" points="161.818,1467.41 1152.94,1467.41 "/>
<polyline clip-path="url(#clip850)" style="stroke:#000000; stroke-linecap:round; stroke-linejoin:round; stroke-width:4; stroke-opacity:1; fill:none" points="293.598,1467.41 293.598,1448.51 "/>
<polyline clip-path="url(#clip850)" style="stroke:#000000; stroke-linecap:round; stroke-linejoin:round; stroke-width:4; stroke-opacity:1; fill:none" points="466.05,1467.41 466.05,1448.51 "/>
<polyline clip-path="url(#clip850)" style="stroke:#000000; stroke-linecap:round; stroke-linejoin:round; stroke-width:4; stroke-opacity:1; fill:none" points="638.503,1467.41 638.503,1448.51 "/>
<polyline clip-path="url(#clip850)" style="stroke:#000000; stroke-linecap:round; stroke-linejoin:round; stroke-width:4; stroke-opacity:1; fill:none" points="810.956,1467.41 810.956,1448.51 "/>
<polyline clip-path="url(#clip850)" style="stroke:#000000; stroke-linecap:round; stroke-linejoin:round; stroke-width:4; stroke-opacity:1; fill:none" points="983.408,1467.41 983.408,1448.51 "/>
<path clip-path="url(#clip850)" d="M239.749 1539.14 Q237.834 1541.05 238.754 1543.91 Q239.675 1546.75 243.456 1550.53 Q247.225 1554.3 250.073 1555.23 Q252.921 1556.14 254.836 1554.23 Q256.764 1552.3 255.843 1549.46 Q254.922 1546.6 251.153 1542.83 Q247.372 1539.05 244.524 1538.14 Q241.676 1537.21 239.749 1539.14 M237.785 1537.17 Q240.866 1534.09 244.929 1534.92 Q248.993 1535.71 253.633 1540.35 Q258.261 1544.98 259.071 1549.06 Q259.882 1553.11 256.8 1556.19 Q253.719 1559.27 249.656 1558.47 Q245.592 1557.65 240.964 1553.02 Q236.324 1548.38 235.514 1544.33 Q234.703 1540.26 237.785 1537.17 Z" fill="#000000" fill-rule="nonzero" fill-opacity="1" /><path clip-path="url(#clip850)" d="M264.019 1542.02 L266.609 1539.43 L269.727 1542.55 L267.137 1545.14 L264.019 1542.02 Z" fill="#000000" fill-rule="nonzero" fill-opacity="1" /><path clip-path="url(#clip850)" d="M256.825 1518.8 L266.56 1509.06 L268.647 1511.15 L261.183 1518.61 L265.676 1523.11 Q266.032 1522.38 266.486 1521.76 Q266.928 1521.12 267.468 1520.58 Q270.537 1517.51 274.011 1517.4 Q277.486 1517.29 280.358 1520.16 Q283.317 1523.12 283.12 1526.6 Q282.912 1530.08 279.56 1533.43 Q278.406 1534.58 277.007 1535.59 Q275.62 1536.59 273.95 1537.47 L271.458 1534.98 Q273.164 1534.47 274.637 1533.59 Q276.111 1532.71 277.424 1531.39 Q279.548 1529.27 279.671 1526.91 Q279.793 1524.55 277.878 1522.64 Q275.963 1520.72 273.606 1520.85 Q271.249 1520.97 269.126 1523.09 Q268.131 1524.09 267.358 1525.3 Q266.597 1526.51 266.032 1528 L256.825 1518.8 Z" fill="#000000" fill-rule="nonzero" fill-opacity="1" /><path clip-path="url(#clip850)" d="M279.732 1499.16 Q277.817 1501.07 278.738 1503.93 Q279.658 1506.77 283.439 1510.55 Q287.208 1514.32 290.056 1515.25 Q292.904 1516.16 294.819 1514.24 Q296.747 1512.32 295.826 1509.48 Q294.905 1506.62 291.137 1502.85 Q287.356 1499.07 284.507 1498.16 Q281.659 1497.23 279.732 1499.16 M277.768 1497.19 Q280.849 1494.11 284.913 1494.93 Q288.976 1495.73 293.616 1500.37 Q298.244 1505 299.055 1509.07 Q299.865 1513.13 296.784 1516.21 Q293.702 1519.29 289.639 1518.49 Q285.575 1517.67 280.947 1513.04 Q276.307 1508.4 275.497 1504.35 Q274.687 1500.27 277.768 1497.19 Z" fill="#000000" fill-rule="nonzero" fill-opacity="1" /><path clip-path="url(#clip850)" d="M413.048 1538.29 Q411.133 1540.21 412.054 1543.07 Q412.975 1545.9 416.756 1549.68 Q420.525 1553.45 423.373 1554.39 Q426.221 1555.29 428.136 1553.38 Q430.063 1551.45 429.142 1548.62 Q428.222 1545.76 424.453 1541.99 Q420.672 1538.21 417.824 1537.3 Q414.976 1536.36 413.048 1538.29 M411.084 1536.33 Q414.166 1533.25 418.229 1534.07 Q422.292 1534.87 426.933 1539.51 Q431.561 1544.14 432.371 1548.21 Q433.181 1552.26 430.1 1555.34 Q427.019 1558.42 422.955 1557.63 Q418.892 1556.8 414.264 1552.18 Q409.623 1547.54 408.813 1543.48 Q408.003 1539.41 411.084 1536.33 Z" fill="#000000" fill-rule="nonzero" fill-opacity="1" /><path clip-path="url(#clip850)" d="M437.318 1541.18 L439.909 1538.59 L443.027 1541.7 L440.436 1544.29 L437.318 1541.18 Z" fill="#000000" fill-rule="nonzero" fill-opacity="1" /><path clip-path="url(#clip850)" d="M430.125 1517.95 L439.859 1508.22 L441.946 1510.3 L434.483 1517.77 L438.976 1522.26 Q439.332 1521.53 439.786 1520.91 Q440.228 1520.27 440.768 1519.73 Q443.837 1516.66 447.311 1516.55 Q450.785 1516.44 453.658 1519.31 Q456.616 1522.27 456.42 1525.76 Q456.211 1529.23 452.86 1532.58 Q451.706 1533.74 450.306 1534.74 Q448.919 1535.74 447.25 1536.62 L444.758 1534.13 Q446.464 1533.63 447.937 1532.74 Q449.41 1531.86 450.724 1530.55 Q452.848 1528.42 452.97 1526.06 Q453.093 1523.71 451.178 1521.79 Q449.263 1519.88 446.906 1520 Q444.549 1520.12 442.425 1522.25 Q441.431 1523.24 440.657 1524.46 Q439.896 1525.66 439.332 1527.16 L430.125 1517.95 Z" fill="#000000" fill-rule="nonzero" fill-opacity="1" /><path clip-path="url(#clip850)" d="M464.473 1516.08 L473.128 1507.43 L475.215 1509.52 L463.577 1521.15 L461.49 1519.07 Q461.441 1516.19 461.416 1511.31 Q461.392 1506.4 461.306 1505.06 Q461.158 1502.53 460.704 1501.14 Q460.25 1499.73 459.354 1498.84 Q457.893 1497.38 455.941 1497.49 Q454.002 1497.58 452.357 1499.23 Q451.19 1500.4 450.294 1502.1 Q449.41 1503.8 448.76 1506.09 L446.255 1503.59 Q447.151 1501.49 448.146 1499.88 Q449.14 1498.27 450.22 1497.19 Q453.069 1494.34 456.187 1494.07 Q459.305 1493.8 461.686 1496.18 Q462.816 1497.31 463.405 1498.76 Q463.994 1500.19 464.252 1502.68 Q464.301 1503.34 464.363 1506.69 Q464.412 1510.03 464.473 1516.08 Z" fill="#000000" fill-rule="nonzero" fill-opacity="1" /><path clip-path="url(#clip850)" d="M584.396 1539.4 Q582.481 1541.31 583.402 1544.17 Q584.323 1547.01 588.104 1550.79 Q591.872 1554.56 594.72 1555.49 Q597.568 1556.4 599.484 1554.48 Q601.411 1552.56 600.49 1549.72 Q599.569 1546.86 595.801 1543.09 Q592.02 1539.31 589.172 1538.4 Q586.324 1537.47 584.396 1539.4 M582.432 1537.43 Q585.513 1534.35 589.577 1535.17 Q593.64 1535.97 598.28 1540.61 Q602.909 1545.24 603.719 1549.32 Q604.529 1553.37 601.448 1556.45 Q598.366 1559.53 594.303 1558.73 Q590.24 1557.91 585.612 1553.28 Q580.971 1548.64 580.161 1544.59 Q579.351 1540.51 582.432 1537.43 Z" fill="#000000" fill-rule="nonzero" fill-opacity="1" /><path clip-path="url(#clip850)" d="M608.666 1542.28 L611.256 1539.69 L614.374 1542.81 L611.784 1545.4 L608.666 1542.28 Z" fill="#000000" fill-rule="nonzero" fill-opacity="1" /><path clip-path="url(#clip850)" d="M601.472 1519.06 L611.207 1509.32 L613.294 1511.41 L605.83 1518.87 L610.323 1523.36 Q610.679 1522.64 611.134 1522.01 Q611.575 1521.38 612.116 1520.84 Q615.185 1517.77 618.659 1517.66 Q622.133 1517.55 625.006 1520.42 Q627.964 1523.38 627.768 1526.86 Q627.559 1530.34 624.208 1533.69 Q623.054 1534.84 621.654 1535.85 Q620.267 1536.84 618.597 1537.73 L616.105 1535.24 Q617.812 1534.73 619.285 1533.85 Q620.758 1532.96 622.072 1531.65 Q624.195 1529.53 624.318 1527.17 Q624.441 1524.81 622.526 1522.9 Q620.611 1520.98 618.254 1521.11 Q615.897 1521.23 613.773 1523.35 Q612.779 1524.35 612.005 1525.56 Q611.244 1526.76 610.679 1528.26 L601.472 1519.06 Z" fill="#000000" fill-rule="nonzero" fill-opacity="1" /><path clip-path="url(#clip850)" d="M626.417 1498.43 L629.941 1514.48 L636.201 1508.22 L626.417 1498.43 M623.606 1496.92 L626.724 1493.8 L638.669 1505.75 L641.284 1503.13 L643.346 1505.2 L640.731 1507.81 L645.052 1512.13 L642.585 1514.6 L638.264 1510.28 L629.99 1518.55 L627.596 1516.16 L623.606 1496.92 Z" fill="#000000" fill-rule="nonzero" fill-opacity="1" /><path clip-path="url(#clip850)" d="M757.021 1539.22 Q755.106 1541.14 756.026 1544 Q756.947 1546.84 760.728 1550.62 Q764.497 1554.39 767.345 1555.32 Q770.193 1556.23 772.108 1554.31 Q774.035 1552.38 773.115 1549.55 Q772.194 1546.69 768.425 1542.92 Q764.644 1539.14 761.796 1538.23 Q758.948 1537.3 757.021 1539.22 M755.056 1537.26 Q758.138 1534.18 762.201 1535 Q766.265 1535.8 770.905 1540.44 Q775.533 1545.07 776.343 1549.14 Q777.153 1553.19 774.072 1556.28 Q770.991 1559.36 766.927 1558.56 Q762.864 1557.74 758.236 1553.11 Q753.596 1548.47 752.785 1544.42 Q751.975 1540.34 755.056 1537.26 Z" fill="#000000" fill-rule="nonzero" fill-opacity="1" /><path clip-path="url(#clip850)" d="M781.29 1542.11 L783.881 1539.52 L786.999 1542.64 L784.409 1545.23 L781.29 1542.11 Z" fill="#000000" fill-rule="nonzero" fill-opacity="1" /><path clip-path="url(#clip850)" d="M774.097 1518.88 L783.832 1509.15 L785.919 1511.24 L778.455 1518.7 L782.948 1523.19 Q783.304 1522.47 783.758 1521.84 Q784.2 1521.2 784.74 1520.66 Q787.809 1517.59 791.283 1517.48 Q794.757 1517.37 797.63 1520.25 Q800.588 1523.2 800.392 1526.69 Q800.183 1530.17 796.832 1533.52 Q795.678 1534.67 794.279 1535.68 Q792.891 1536.67 791.222 1537.56 L788.73 1535.06 Q790.436 1534.56 791.909 1533.68 Q793.382 1532.79 794.696 1531.48 Q796.82 1529.35 796.942 1527 Q797.065 1524.64 795.15 1522.73 Q793.235 1520.81 790.878 1520.93 Q788.521 1521.06 786.397 1523.18 Q785.403 1524.17 784.63 1525.39 Q783.868 1526.59 783.304 1528.09 L774.097 1518.88 Z" fill="#000000" fill-rule="nonzero" fill-opacity="1" /><path clip-path="url(#clip850)" d="M803.854 1505.48 Q802.184 1507.15 802.344 1509.27 Q802.516 1511.38 804.505 1513.37 Q806.481 1515.35 808.605 1515.53 Q810.729 1515.69 812.398 1514.02 Q814.068 1512.35 813.896 1510.24 Q813.724 1508.1 811.747 1506.13 Q809.759 1504.14 807.635 1503.98 Q805.523 1503.81 803.854 1505.48 M801.006 1492.78 L803.265 1495.04 Q801.89 1495.53 800.699 1496.26 Q799.52 1496.97 798.587 1497.9 Q796.132 1500.36 796.488 1503.32 Q796.857 1506.26 800.024 1509.8 Q799.68 1508.01 800.208 1506.35 Q800.724 1504.68 802.037 1503.37 Q804.799 1500.6 808.077 1500.69 Q811.355 1500.75 814.24 1503.64 Q817.063 1506.46 817.1 1509.84 Q817.137 1513.21 814.362 1515.99 Q811.183 1519.17 807.07 1518.42 Q802.946 1517.66 798.317 1513.03 Q793.972 1508.68 793.456 1504.04 Q792.928 1499.39 796.402 1495.91 Q797.335 1494.98 798.465 1494.22 Q799.606 1493.45 801.006 1492.78 Z" fill="#000000" fill-rule="nonzero" fill-opacity="1" /><path clip-path="url(#clip850)" d="M929.608 1539.09 Q927.693 1541 928.614 1543.87 Q929.535 1546.7 933.316 1550.48 Q937.084 1554.25 939.932 1555.18 Q942.781 1556.09 944.696 1554.18 Q946.623 1552.25 945.702 1549.41 Q944.782 1546.55 941.013 1542.78 Q937.232 1539 934.384 1538.1 Q931.536 1537.16 929.608 1539.09 M927.644 1537.13 Q930.725 1534.04 934.789 1534.87 Q938.852 1535.66 943.493 1540.31 Q948.121 1544.93 948.931 1549.01 Q949.741 1553.06 946.66 1556.14 Q943.578 1559.22 939.515 1558.42 Q935.452 1557.6 930.824 1552.97 Q926.183 1548.33 925.373 1544.28 Q924.563 1540.21 927.644 1537.13 Z" fill="#000000" fill-rule="nonzero" fill-opacity="1" /><path clip-path="url(#clip850)" d="M953.878 1541.97 L956.468 1539.38 L959.586 1542.5 L956.996 1545.09 L953.878 1541.97 Z" fill="#000000" fill-rule="nonzero" fill-opacity="1" /><path clip-path="url(#clip850)" d="M946.684 1518.75 L956.419 1509.01 L958.506 1511.1 L951.042 1518.56 L955.535 1523.06 Q955.891 1522.33 956.346 1521.71 Q956.788 1521.07 957.328 1520.53 Q960.397 1517.46 963.871 1517.35 Q967.345 1517.24 970.218 1520.11 Q973.176 1523.07 972.98 1526.56 Q972.771 1530.03 969.42 1533.38 Q968.266 1534.54 966.866 1535.54 Q965.479 1536.54 963.809 1537.42 L961.317 1534.93 Q963.024 1534.42 964.497 1533.54 Q965.97 1532.66 967.284 1531.34 Q969.407 1529.22 969.53 1526.86 Q969.653 1524.51 967.738 1522.59 Q965.823 1520.68 963.466 1520.8 Q961.109 1520.92 958.985 1523.04 Q957.991 1524.04 957.217 1525.25 Q956.456 1526.46 955.891 1527.96 L946.684 1518.75 Z" fill="#000000" fill-rule="nonzero" fill-opacity="1" /><path clip-path="url(#clip850)" d="M977.583 1507.1 Q975.815 1508.87 975.742 1510.83 Q975.68 1512.78 977.338 1514.44 Q978.995 1516.1 980.947 1516.04 Q982.911 1515.96 984.679 1514.19 Q986.447 1512.43 986.52 1510.46 Q986.582 1508.49 984.937 1506.84 Q983.279 1505.18 981.315 1505.26 Q979.363 1505.32 977.583 1507.1 M974.048 1508.52 Q972.059 1509.73 970.07 1509.53 Q968.094 1509.32 966.522 1507.75 Q964.325 1505.55 964.607 1502.72 Q964.902 1499.87 967.627 1497.14 Q970.365 1494.4 973.201 1494.12 Q976.036 1493.84 978.234 1496.04 Q979.805 1497.61 980.002 1499.6 Q980.21 1501.57 979.02 1503.55 Q981.229 1502.18 983.439 1502.4 Q985.661 1502.61 987.416 1504.36 Q990.08 1507.02 989.872 1510.08 Q989.675 1513.13 986.643 1516.16 Q983.611 1519.19 980.554 1519.4 Q977.51 1519.6 974.846 1516.93 Q973.09 1515.18 972.881 1512.95 Q972.673 1510.73 974.048 1508.52 M969.223 1505.51 Q970.647 1506.94 972.329 1506.85 Q974.023 1506.75 975.631 1505.15 Q977.227 1503.55 977.325 1501.86 Q977.436 1500.15 976.012 1498.73 Q974.588 1497.3 972.881 1497.41 Q971.187 1497.51 969.591 1499.11 Q967.983 1500.71 967.885 1502.41 Q967.799 1504.09 969.223 1505.51 Z" fill="#000000" fill-rule="nonzero" fill-opacity="1" /><polyline clip-path="url(#clip850)" style="stroke:#000000; stroke-linecap:round; stroke-linejoin:round; stroke-width:4; stroke-opacity:1; fill:none" points="161.818,1467.41 161.818,897.552 "/>
<polyline clip-path="url(#clip850)" style="stroke:#000000; stroke-linecap:round; stroke-linejoin:round; stroke-width:4; stroke-opacity:1; fill:none" points="161.818,1451.28 180.716,1451.28 "/>
<polyline clip-path="url(#clip850)" style="stroke:#000000; stroke-linecap:round; stroke-linejoin:round; stroke-width:4; stroke-opacity:1; fill:none" points="161.818,1330.53 180.716,1330.53 "/>
<polyline clip-path="url(#clip850)" style="stroke:#000000; stroke-linecap:round; stroke-linejoin:round; stroke-width:4; stroke-opacity:1; fill:none" points="161.818,1209.78 180.716,1209.78 "/>
<polyline clip-path="url(#clip850)" style="stroke:#000000; stroke-linecap:round; stroke-linejoin:round; stroke-width:4; stroke-opacity:1; fill:none" points="161.818,1089.04 180.716,1089.04 "/>
<polyline clip-path="url(#clip850)" style="stroke:#000000; stroke-linecap:round; stroke-linejoin:round; stroke-width:4; stroke-opacity:1; fill:none" points="161.818,968.29 180.716,968.29 "/>
<path clip-path="url(#clip850)" d="M60.315 1440.63 Q57.6067 1440.63 56.2352 1443.3 Q54.881 1445.96 54.881 1451.3 Q54.881 1456.63 56.2352 1459.31 Q57.6067 1461.96 60.315 1461.96 Q63.0407 1461.96 64.3948 1459.31 Q65.7664 1456.63 65.7664 1451.3 Q65.7664 1445.96 64.3948 1443.3 Q63.0407 1440.63 60.315 1440.63 M60.315 1437.85 Q64.6726 1437.85 66.9643 1441.3 Q69.2733 1444.74 69.2733 1451.3 Q69.2733 1457.85 66.9643 1461.3 Q64.6726 1464.74 60.315 1464.74 Q55.9574 1464.74 53.6484 1461.3 Q51.3567 1457.85 51.3567 1451.3 Q51.3567 1444.74 53.6484 1441.3 Q55.9574 1437.85 60.315 1437.85 Z" fill="#000000" fill-rule="nonzero" fill-opacity="1" /><path clip-path="url(#clip850)" d="M75.4364 1459.83 L79.0996 1459.83 L79.0996 1464.24 L75.4364 1464.24 L75.4364 1459.83 Z" fill="#000000" fill-rule="nonzero" fill-opacity="1" /><path clip-path="url(#clip850)" d="M94.2384 1440.63 Q91.5301 1440.63 90.1586 1443.3 Q88.8044 1445.96 88.8044 1451.3 Q88.8044 1456.63 90.1586 1459.31 Q91.5301 1461.96 94.2384 1461.96 Q96.9641 1461.96 98.3183 1459.31 Q99.6898 1456.63 99.6898 1451.3 Q99.6898 1445.96 98.3183 1443.3 Q96.9641 1440.63 94.2384 1440.63 M94.2384 1437.85 Q98.596 1437.85 100.888 1441.3 Q103.197 1444.74 103.197 1451.3 Q103.197 1457.85 100.888 1461.3 Q98.596 1464.74 94.2384 1464.74 Q89.8808 1464.74 87.5718 1461.3 Q85.2801 1457.85 85.2801 1451.3 Q85.2801 1444.74 87.5718 1441.3 Q89.8808 1437.85 94.2384 1437.85 Z" fill="#000000" fill-rule="nonzero" fill-opacity="1" /><path clip-path="url(#clip850)" d="M116.86 1440.63 Q114.152 1440.63 112.78 1443.3 Q111.426 1445.96 111.426 1451.3 Q111.426 1456.63 112.78 1459.31 Q114.152 1461.96 116.86 1461.96 Q119.586 1461.96 120.94 1459.31 Q122.311 1456.63 122.311 1451.3 Q122.311 1445.96 120.94 1443.3 Q119.586 1440.63 116.86 1440.63 M116.86 1437.85 Q121.217 1437.85 123.509 1441.3 Q125.818 1444.74 125.818 1451.3 Q125.818 1457.85 123.509 1461.3 Q121.217 1464.74 116.86 1464.74 Q112.502 1464.74 110.193 1461.3 Q107.902 1457.85 107.902 1451.3 Q107.902 1444.74 110.193 1441.3 Q112.502 1437.85 116.86 1437.85 Z" fill="#000000" fill-rule="nonzero" fill-opacity="1" /><path clip-path="url(#clip850)" d="M61.2351 1319.88 Q58.5268 1319.88 57.1553 1322.55 Q55.8011 1325.21 55.8011 1330.56 Q55.8011 1335.89 57.1553 1338.56 Q58.5268 1341.22 61.2351 1341.22 Q63.9608 1341.22 65.315 1338.56 Q66.6865 1335.89 66.6865 1330.56 Q66.6865 1325.21 65.315 1322.55 Q63.9608 1319.88 61.2351 1319.88 M61.2351 1317.1 Q65.5927 1317.1 67.8844 1320.56 Q70.1934 1323.99 70.1934 1330.56 Q70.1934 1337.1 67.8844 1340.56 Q65.5927 1343.99 61.2351 1343.99 Q56.8775 1343.99 54.5685 1340.56 Q52.2768 1337.1 52.2768 1330.56 Q52.2768 1323.99 54.5685 1320.56 Q56.8775 1317.1 61.2351 1317.1 Z" fill="#000000" fill-rule="nonzero" fill-opacity="1" /><path clip-path="url(#clip850)" d="M76.3566 1339.08 L80.0197 1339.08 L80.0197 1343.49 L76.3566 1343.49 L76.3566 1339.08 Z" fill="#000000" fill-rule="nonzero" fill-opacity="1" /><path clip-path="url(#clip850)" d="M95.1586 1319.88 Q92.4502 1319.88 91.0787 1322.55 Q89.7246 1325.21 89.7246 1330.56 Q89.7246 1335.89 91.0787 1338.56 Q92.4502 1341.22 95.1586 1341.22 Q97.8842 1341.22 99.2384 1338.56 Q100.61 1335.89 100.61 1330.56 Q100.61 1325.21 99.2384 1322.55 Q97.8842 1319.88 95.1586 1319.88 M95.1586 1317.1 Q99.5162 1317.1 101.808 1320.56 Q104.117 1323.99 104.117 1330.56 Q104.117 1337.1 101.808 1340.56 Q99.5162 1343.99 95.1586 1343.99 Q90.8009 1343.99 88.4919 1340.56 Q86.2003 1337.1 86.2003 1330.56 Q86.2003 1323.99 88.4919 1320.56 Q90.8009 1317.1 95.1586 1317.1 Z" fill="#000000" fill-rule="nonzero" fill-opacity="1" /><path clip-path="url(#clip850)" d="M110.888 1340.54 L116.617 1340.54 L116.617 1320.77 L110.384 1322.02 L110.384 1318.82 L116.582 1317.57 L120.089 1317.57 L120.089 1340.54 L125.818 1340.54 L125.818 1343.49 L110.888 1343.49 L110.888 1340.54 Z" fill="#000000" fill-rule="nonzero" fill-opacity="1" /><path clip-path="url(#clip850)" d="M61.5129 1199.13 Q58.8046 1199.13 57.4331 1201.81 Q56.0789 1204.46 56.0789 1209.81 Q56.0789 1215.14 57.4331 1217.81 Q58.8046 1220.47 61.5129 1220.47 Q64.2386 1220.47 65.5927 1217.81 Q66.9643 1215.14 66.9643 1209.81 Q66.9643 1204.46 65.5927 1201.81 Q64.2386 1199.13 61.5129 1199.13 M61.5129 1196.36 Q65.8705 1196.36 68.1622 1199.81 Q70.4712 1203.25 70.4712 1209.81 Q70.4712 1216.36 68.1622 1219.81 Q65.8705 1223.25 61.5129 1223.25 Q57.1553 1223.25 54.8463 1219.81 Q52.5546 1216.36 52.5546 1209.81 Q52.5546 1203.25 54.8463 1199.81 Q57.1553 1196.36 61.5129 1196.36 Z" fill="#000000" fill-rule="nonzero" fill-opacity="1" /><path clip-path="url(#clip850)" d="M76.6343 1218.33 L80.2975 1218.33 L80.2975 1222.74 L76.6343 1222.74 L76.6343 1218.33 Z" fill="#000000" fill-rule="nonzero" fill-opacity="1" /><path clip-path="url(#clip850)" d="M95.4363 1199.13 Q92.728 1199.13 91.3565 1201.81 Q90.0023 1204.46 90.0023 1209.81 Q90.0023 1215.14 91.3565 1217.81 Q92.728 1220.47 95.4363 1220.47 Q98.162 1220.47 99.5162 1217.81 Q100.888 1215.14 100.888 1209.81 Q100.888 1204.46 99.5162 1201.81 Q98.162 1199.13 95.4363 1199.13 M95.4363 1196.36 Q99.7939 1196.36 102.086 1199.81 Q104.395 1203.25 104.395 1209.81 Q104.395 1216.36 102.086 1219.81 Q99.7939 1223.25 95.4363 1223.25 Q91.0787 1223.25 88.7697 1219.81 Q86.478 1216.36 86.478 1209.81 Q86.478 1203.25 88.7697 1199.81 Q91.0787 1196.36 95.4363 1196.36 Z" fill="#000000" fill-rule="nonzero" fill-opacity="1" /><path clip-path="url(#clip850)" d="M113.579 1219.79 L125.818 1219.79 L125.818 1222.74 L109.36 1222.74 L109.36 1219.79 Q111.356 1217.73 114.794 1214.25 Q118.249 1210.76 119.134 1209.76 Q120.818 1207.87 121.478 1206.56 Q122.155 1205.24 122.155 1203.98 Q122.155 1201.91 120.697 1200.61 Q119.256 1199.31 116.929 1199.31 Q115.28 1199.31 113.44 1199.88 Q111.617 1200.45 109.533 1201.62 L109.533 1198.07 Q111.652 1197.22 113.492 1196.79 Q115.332 1196.36 116.86 1196.36 Q120.888 1196.36 123.283 1198.37 Q125.679 1200.38 125.679 1203.75 Q125.679 1205.35 125.072 1206.79 Q124.481 1208.21 122.901 1210.16 Q122.467 1210.66 120.141 1213.07 Q117.815 1215.47 113.579 1219.79 Z" fill="#000000" fill-rule="nonzero" fill-opacity="1" /><path clip-path="url(#clip850)" d="M60.8011 1078.39 Q58.0928 1078.39 56.7213 1081.06 Q55.3671 1083.72 55.3671 1089.06 Q55.3671 1094.39 56.7213 1097.07 Q58.0928 1099.72 60.8011 1099.72 Q63.5268 1099.72 64.8809 1097.07 Q66.2525 1094.39 66.2525 1089.06 Q66.2525 1083.72 64.8809 1081.06 Q63.5268 1078.39 60.8011 1078.39 M60.8011 1075.61 Q65.1587 1075.61 67.4504 1079.06 Q69.7594 1082.5 69.7594 1089.06 Q69.7594 1095.61 67.4504 1099.06 Q65.1587 1102.5 60.8011 1102.5 Q56.4435 1102.5 54.1345 1099.06 Q51.8428 1095.61 51.8428 1089.06 Q51.8428 1082.5 54.1345 1079.06 Q56.4435 1075.61 60.8011 1075.61 Z" fill="#000000" fill-rule="nonzero" fill-opacity="1" /><path clip-path="url(#clip850)" d="M75.9225 1097.59 L79.5857 1097.59 L79.5857 1102 L75.9225 1102 L75.9225 1097.59 Z" fill="#000000" fill-rule="nonzero" fill-opacity="1" /><path clip-path="url(#clip850)" d="M94.7245 1078.39 Q92.0162 1078.39 90.6447 1081.06 Q89.2905 1083.72 89.2905 1089.06 Q89.2905 1094.39 90.6447 1097.07 Q92.0162 1099.72 94.7245 1099.72 Q97.4502 1099.72 98.8044 1097.07 Q100.176 1094.39 100.176 1089.06 Q100.176 1083.72 98.8044 1081.06 Q97.4502 1078.39 94.7245 1078.39 M94.7245 1075.61 Q99.0821 1075.61 101.374 1079.06 Q103.683 1082.5 103.683 1089.06 Q103.683 1095.61 101.374 1099.06 Q99.0821 1102.5 94.7245 1102.5 Q90.3669 1102.5 88.0579 1099.06 Q85.7662 1095.61 85.7662 1089.06 Q85.7662 1082.5 88.0579 1079.06 Q90.3669 1075.61 94.7245 1075.61 Z" fill="#000000" fill-rule="nonzero" fill-opacity="1" /><path clip-path="url(#clip850)" d="M120.471 1088.02 Q122.988 1088.56 124.395 1090.26 Q125.818 1091.96 125.818 1094.46 Q125.818 1098.3 123.179 1100.4 Q120.54 1102.5 115.679 1102.5 Q114.047 1102.5 112.311 1102.17 Q110.593 1101.86 108.752 1101.22 L108.752 1097.83 Q110.211 1098.68 111.947 1099.11 Q113.683 1099.55 115.575 1099.55 Q118.874 1099.55 120.592 1098.25 Q122.329 1096.94 122.329 1094.46 Q122.329 1092.17 120.714 1090.89 Q119.117 1089.58 116.252 1089.58 L113.231 1089.58 L113.231 1086.7 L116.391 1086.7 Q118.978 1086.7 120.349 1085.68 Q121.721 1084.64 121.721 1082.69 Q121.721 1080.69 120.297 1079.64 Q118.891 1078.56 116.252 1078.56 Q114.811 1078.56 113.162 1078.87 Q111.513 1079.18 109.533 1079.84 L109.533 1076.72 Q111.53 1076.16 113.266 1075.89 Q115.02 1075.61 116.565 1075.61 Q120.558 1075.61 122.884 1077.43 Q125.21 1079.24 125.21 1082.33 Q125.21 1084.48 123.978 1085.97 Q122.745 1087.45 120.471 1088.02 Z" fill="#000000" fill-rule="nonzero" fill-opacity="1" /><path clip-path="url(#clip850)" d="M59.9504 957.639 Q57.2421 957.639 55.8706 960.312 Q54.5164 962.968 54.5164 968.316 Q54.5164 973.646 55.8706 976.319 Q57.2421 978.975 59.9504 978.975 Q62.6761 978.975 64.0303 976.319 Q65.4018 973.646 65.4018 968.316 Q65.4018 962.968 64.0303 960.312 Q62.6761 957.639 59.9504 957.639 M59.9504 954.861 Q64.308 954.861 66.5997 958.316 Q68.9087 961.753 68.9087 968.316 Q68.9087 974.861 66.5997 978.316 Q64.308 981.753 59.9504 981.753 Q55.5928 981.753 53.2838 978.316 Q50.9921 974.861 50.9921 968.316 Q50.9921 961.753 53.2838 958.316 Q55.5928 954.861 59.9504 954.861 Z" fill="#000000" fill-rule="nonzero" fill-opacity="1" /><path clip-path="url(#clip850)" d="M75.0719 976.84 L78.735 976.84 L78.735 981.25 L75.0719 981.25 L75.0719 976.84 Z" fill="#000000" fill-rule="nonzero" fill-opacity="1" /><path clip-path="url(#clip850)" d="M93.8738 957.639 Q91.1655 957.639 89.794 960.312 Q88.4398 962.968 88.4398 968.316 Q88.4398 973.646 89.794 976.319 Q91.1655 978.975 93.8738 978.975 Q96.5995 978.975 97.9537 976.319 Q99.3252 973.646 99.3252 968.316 Q99.3252 962.968 97.9537 960.312 Q96.5995 957.639 93.8738 957.639 M93.8738 954.861 Q98.2315 954.861 100.523 958.316 Q102.832 961.753 102.832 968.316 Q102.832 974.861 100.523 978.316 Q98.2315 981.753 93.8738 981.753 Q89.5162 981.753 87.2072 978.316 Q84.9156 974.861 84.9156 968.316 Q84.9156 961.753 87.2072 958.316 Q89.5162 954.861 93.8738 954.861 Z" fill="#000000" fill-rule="nonzero" fill-opacity="1" /><path clip-path="url(#clip850)" d="M118.631 958.385 L109.777 972.222 L118.631 972.222 L118.631 958.385 M117.711 955.33 L122.12 955.33 L122.12 972.222 L125.818 972.222 L125.818 975.139 L122.12 975.139 L122.12 981.25 L118.631 981.25 L118.631 975.139 L106.929 975.139 L106.929 971.753 L117.711 955.33 Z" fill="#000000" fill-rule="nonzero" fill-opacity="1" /><path clip-path="url(#clip850)" d="M173.716 818.926 Q170.198 818.926 168.3 821.472 Q166.309 824.134 166.309 828.532 Q166.309 833.185 168.276 835.87 Q170.267 838.532 173.716 838.532 Q177.119 838.532 179.11 835.847 Q181.1 833.162 181.1 828.532 Q181.1 824.296 179.11 821.472 Q177.281 818.926 173.716 818.926 M173.716 815.546 L187.86 815.546 L187.86 819.805 L183.091 819.805 Q185.614 823.417 185.614 828.532 Q185.614 834.898 182.443 838.509 Q179.272 842.143 173.716 842.143 Q168.138 842.143 164.989 838.509 Q161.818 834.898 161.818 828.532 Q161.818 822.12 164.989 818.532 Q167.605 815.546 173.716 815.546 Z" fill="#000000" fill-rule="nonzero" fill-opacity="1" /><path clip-path="url(#clip850)" d="M198.878 841.472 L190.961 815.546 L195.545 815.546 L202.235 837.305 Q205.012 834.435 207.327 830.454 Q209.086 827.467 209.179 824.875 Q209.225 823.648 208.67 821.333 Q208.022 818.579 205.568 815.546 L209.873 815.546 L209.873 815.546 Q211.471 817.606 212.535 820.477 Q213.508 823.116 213.508 824.921 Q213.508 829.458 210.36 833.509 Q206.262 838.787 203.415 841.472 L198.878 841.472 Z" fill="#000000" fill-rule="nonzero" fill-opacity="1" /><polyline clip-path="url(#clip854)" style="stroke:#009af9; stroke-linecap:round; stroke-linejoin:round; stroke-width:4; stroke-opacity:1; fill:none" points="189.869,964.96 248.307,1022.95 306.746,1081.73 365.185,1141.32 423.623,1201.71 482.062,1262.9 540.501,1324.89 598.939,1387.68 657.378,1451.28 715.817,1386.88 774.256,1321.69 832.694,1255.69 891.133,1188.89 949.572,1121.29 1008.01,1052.89 1066.45,983.684 1124.89,913.68 "/>
<circle clip-path="url(#clip854)" cx="657.378" cy="1451.28" r="10.8" fill="#ff0000" fill-rule="evenodd" fill-opacity="1" stroke="#000000" stroke-opacity="1" stroke-width="3.2"/>
</svg>
