<?xml version="1.0" encoding="utf-8"?>
<svg xmlns="http://www.w3.org/2000/svg" xmlns:xlink="http://www.w3.org/1999/xlink" width="600" height="400" viewBox="0 0 2400 1600">
<defs>
  <clipPath id="clip270">
    <rect x="0" y="0" width="2400" height="1600"/>
  </clipPath>
</defs>
<path clip-path="url(#clip270)" d="M0 1600 L2400 1600 L2400 0 L0 0  Z" fill="#ffffff" fill-rule="evenodd" fill-opacity="1"/>
<defs>
  <clipPath id="clip271">
    <rect x="480" y="0" width="1681" height="1600"/>
  </clipPath>
</defs>
<path clip-path="url(#clip270)" d="M161.818 667.406 L1152.94 667.406 L1152.94 97.5521 L161.818 97.5521  Z" fill="#ffffff" fill-rule="evenodd" fill-opacity="1"/>
<defs>
  <clipPath id="clip272">
    <rect x="161" y="97" width="992" height="571"/>
  </clipPath>
</defs>
<polyline clip-path="url(#clip272)" style="stroke:#000000; stroke-linecap:round; stroke-linejoin:round; stroke-width:2; stroke-opacity:0.1; fill:none" points="194.606,667.406 194.606,97.5521 "/>
<polyline clip-path="url(#clip272)" style="stroke:#000000; stroke-linecap:round; stroke-linejoin:round; stroke-width:2; stroke-opacity:0.1; fill:none" points="457.876,667.406 457.876,97.5521 "/>
<polyline clip-path="url(#clip272)" style="stroke:#000000; stroke-linecap:round; stroke-linejoin:round; stroke-width:2; stroke-opacity:0.1; fill:none" points="721.146,667.406 721.146,97.5521 "/>
<polyline clip-path="url(#clip272)" style="stroke:#000000; stroke-linecap:round; stroke-linejoin:round; stroke-width:2; stroke-opacity:0.1; fill:none" points="984.417,667.406 984.417,97.5521 "/>
<polyline clip-path="url(#clip272)" style="stroke:#000000; stroke-linecap:round; stroke-linejoin:round; stroke-width:2; stroke-opacity:0.1; fill:none" points="161.818,651.278 1152.94,651.278 "/>
<polyline clip-path="url(#clip272)" style="stroke:#000000; stroke-linecap:round; stroke-linejoin:round; stroke-width:2; stroke-opacity:0.1; fill:none" points="161.818,507.859 1152.94,507.859 "/>
<polyline clip-path="url(#clip272)" style="stroke:#000000; stroke-linecap:round; stroke-linejoin:round; stroke-width:2; stroke-opacity:0.1; fill:none" points="161.818,364.44 1152.94,364.44 "/>
<polyline clip-path="url(#clip272)" style="stroke:#000000; stroke-linecap:round; stroke-linejoin:round; stroke-width:2; stroke-opacity:0.1; fill:none" points="161.818,221.02 1152.94,221.02 "/>
<polyline clip-path="url(#clip270)" style="stroke:#000000; stroke-linecap:round; stroke-linejoin:round; stroke-width:4; stroke-opacity:1; fill:none" points="161.818,667.406 1152.94,667.406 "/>
<polyline clip-path="url(#clip270)" style="stroke:#000000; stroke-linecap:round; stroke-linejoin:round; stroke-width:4; stroke-opacity:1; fill:none" points="194.606,667.406 194.606,648.509 "/>
<polyline clip-path="url(#clip270)" style="stroke:#000000; stroke-linecap:round; stroke-linejoin:round; stroke-width:4; stroke-opacity:1; fill:none" points="457.876,667.406 457.876,648.509 "/>
<polyline clip-path="url(#clip270)" style="stroke:#000000; stroke-linecap:round; stroke-linejoin:round; stroke-width:4; stroke-opacity:1; fill:none" points="721.146,667.406 721.146,648.509 "/>
<polyline clip-path="url(#clip270)" style="stroke:#000000; stroke-linecap:round; stroke-linejoin:round; stroke-width:4; stroke-opacity:1; fill:none" points="984.417,667.406 984.417,648.509 "/>
<path clip-path="url(#clip270)" d="M140.757 739.139 Q138.842 741.054 139.763 743.914 Q140.683 746.75 144.464 750.531 Q148.233 754.3 151.081 755.233 Q153.929 756.141 155.844 754.226 Q157.772 752.299 156.851 749.463 Q155.93 746.603 152.162 742.834 Q148.38 739.053 145.532 738.144 Q142.684 737.211 140.757 739.139 M138.793 737.175 Q141.874 734.093 145.938 734.916 Q150.001 735.714 154.641 740.354 Q159.269 744.982 160.08 749.058 Q160.89 753.109 157.809 756.19 Q154.727 759.272 150.664 758.474 Q146.6 757.651 141.972 753.023 Q137.332 748.383 136.522 744.332 Q135.712 740.256 138.793 737.175 Z" fill="#000000" fill-rule="nonzero" fill-opacity="1" /><path clip-path="url(#clip270)" d="M165.027 742.024 L167.617 739.433 L170.735 742.552 L168.145 745.142 L165.027 742.024 Z" fill="#000000" fill-rule="nonzero" fill-opacity="1" /><path clip-path="url(#clip270)" d="M172.736 723.143 Q170.968 724.911 170.895 726.875 Q170.833 728.827 172.491 730.484 Q174.148 732.141 176.1 732.08 Q178.064 732.006 179.832 730.239 Q181.6 728.471 181.673 726.507 Q181.735 724.53 180.09 722.885 Q178.432 721.228 176.468 721.302 Q174.516 721.363 172.736 723.143 M169.201 724.567 Q167.212 725.77 165.223 725.574 Q163.247 725.365 161.675 723.794 Q159.478 721.596 159.76 718.761 Q160.055 715.912 162.78 713.187 Q165.518 710.45 168.354 710.167 Q171.189 709.885 173.387 712.082 Q174.958 713.654 175.155 715.642 Q175.363 717.619 174.173 719.595 Q176.382 718.22 178.592 718.441 Q180.814 718.65 182.569 720.406 Q185.233 723.069 185.025 726.126 Q184.828 729.171 181.796 732.203 Q178.764 735.235 175.707 735.444 Q172.663 735.64 169.999 732.976 Q168.243 731.221 168.035 728.999 Q167.826 726.777 169.201 724.567 M164.376 721.559 Q165.8 722.983 167.482 722.898 Q169.176 722.799 170.784 721.191 Q172.38 719.595 172.478 717.901 Q172.589 716.195 171.165 714.771 Q169.741 713.347 168.035 713.457 Q166.34 713.555 164.745 715.151 Q163.136 716.76 163.038 718.454 Q162.952 720.135 164.376 721.559 Z" fill="#000000" fill-rule="nonzero" fill-opacity="1" /><path clip-path="url(#clip270)" d="M180.74 699.156 Q178.825 701.071 179.746 703.931 Q180.667 706.767 184.448 710.548 Q188.216 714.317 191.064 715.25 Q193.913 716.158 195.828 714.243 Q197.755 712.316 196.834 709.48 Q195.914 706.619 192.145 702.851 Q188.364 699.07 185.516 698.161 Q182.668 697.228 180.74 699.156 M178.776 697.191 Q181.857 694.11 185.921 694.933 Q189.984 695.731 194.625 700.371 Q199.253 704.999 200.063 709.075 Q200.873 713.126 197.792 716.207 Q194.71 719.288 190.647 718.49 Q186.584 717.668 181.956 713.04 Q177.315 708.399 176.505 704.348 Q175.695 700.273 178.776 697.191 Z" fill="#000000" fill-rule="nonzero" fill-opacity="1" /><path clip-path="url(#clip270)" d="M404.555 738.611 Q402.64 740.526 403.561 743.386 Q404.481 746.222 408.262 750.003 Q412.031 753.772 414.879 754.705 Q417.727 755.613 419.642 753.698 Q421.57 751.771 420.649 748.935 Q419.728 746.075 415.96 742.306 Q412.179 738.525 409.33 737.617 Q406.482 736.684 404.555 738.611 M402.591 736.647 Q405.672 733.565 409.736 734.388 Q413.799 735.186 418.439 739.826 Q423.067 744.454 423.878 748.53 Q424.688 752.581 421.607 755.662 Q418.525 758.744 414.462 757.946 Q410.398 757.123 405.77 752.495 Q401.13 747.855 400.32 743.804 Q399.51 739.728 402.591 736.647 Z" fill="#000000" fill-rule="nonzero" fill-opacity="1" /><path clip-path="url(#clip270)" d="M428.825 741.496 L431.415 738.906 L434.533 742.024 L431.943 744.614 L428.825 741.496 Z" fill="#000000" fill-rule="nonzero" fill-opacity="1" /><path clip-path="url(#clip270)" d="M436.534 722.615 Q434.767 724.383 434.693 726.347 Q434.631 728.299 436.289 729.956 Q437.946 731.614 439.898 731.552 Q441.862 731.479 443.63 729.711 Q445.398 727.943 445.471 725.979 Q445.533 724.002 443.888 722.357 Q442.23 720.7 440.266 720.774 Q438.314 720.835 436.534 722.615 M432.999 724.039 Q431.01 725.242 429.021 725.046 Q427.045 724.837 425.474 723.266 Q423.276 721.068 423.558 718.233 Q423.853 715.385 426.578 712.659 Q429.316 709.922 432.152 709.639 Q434.988 709.357 437.185 711.554 Q438.756 713.126 438.953 715.115 Q439.161 717.091 437.971 719.067 Q440.18 717.692 442.39 717.913 Q444.612 718.122 446.367 719.878 Q449.031 722.542 448.823 725.598 Q448.626 728.643 445.594 731.675 Q442.562 734.707 439.505 734.916 Q436.461 735.112 433.797 732.448 Q432.041 730.693 431.833 728.471 Q431.624 726.249 432.999 724.039 M428.174 721.032 Q429.598 722.456 431.28 722.37 Q432.974 722.271 434.582 720.663 Q436.178 719.067 436.276 717.373 Q436.387 715.667 434.963 714.243 Q433.539 712.819 431.833 712.929 Q430.138 713.028 428.543 714.623 Q426.934 716.232 426.836 717.926 Q426.75 719.608 428.174 721.032 Z" fill="#000000" fill-rule="nonzero" fill-opacity="1" /><path clip-path="url(#clip270)" d="M437.627 702.274 L447.362 692.539 L449.449 694.626 L441.985 702.09 L446.478 706.583 Q446.834 705.858 447.288 705.232 Q447.73 704.594 448.27 704.054 Q451.339 700.985 454.813 700.874 Q458.288 700.764 461.16 703.636 Q464.119 706.595 463.922 710.081 Q463.714 713.555 460.362 716.907 Q459.208 718.061 457.809 719.067 Q456.422 720.062 454.752 720.946 L452.26 718.454 Q453.966 717.95 455.439 717.066 Q456.913 716.183 458.226 714.869 Q460.35 712.745 460.473 710.388 Q460.595 708.031 458.68 706.116 Q456.765 704.201 454.408 704.324 Q452.051 704.447 449.928 706.57 Q448.933 707.565 448.16 708.78 Q447.399 709.983 446.834 711.481 L437.627 702.274 Z" fill="#000000" fill-rule="nonzero" fill-opacity="1" /><path clip-path="url(#clip270)" d="M667.297 739.139 Q665.382 741.054 666.303 743.914 Q667.224 746.75 671.005 750.531 Q674.774 754.3 677.622 755.233 Q680.47 756.141 682.385 754.226 Q684.312 752.299 683.391 749.463 Q682.471 746.603 678.702 742.834 Q674.921 739.053 672.073 738.144 Q669.225 737.211 667.297 739.139 M665.333 737.175 Q668.414 734.093 672.478 734.916 Q676.541 735.714 681.182 740.354 Q685.81 744.982 686.62 749.058 Q687.43 753.109 684.349 756.19 Q681.268 759.272 677.204 758.474 Q673.141 757.651 668.513 753.023 Q663.872 748.383 663.062 744.332 Q662.252 740.256 665.333 737.175 Z" fill="#000000" fill-rule="nonzero" fill-opacity="1" /><path clip-path="url(#clip270)" d="M691.567 742.024 L694.157 739.433 L697.276 742.552 L694.685 745.142 L691.567 742.024 Z" fill="#000000" fill-rule="nonzero" fill-opacity="1" /><path clip-path="url(#clip270)" d="M702.37 736.696 L700.111 734.437 Q701.486 733.946 702.677 733.222 Q703.868 732.497 704.789 731.577 Q707.244 729.122 706.888 726.188 Q706.532 723.229 703.352 719.681 Q703.696 721.449 703.168 723.106 Q702.64 724.764 701.314 726.089 Q698.565 728.839 695.299 728.79 Q692.034 728.716 689.149 725.832 Q686.325 723.008 686.288 719.632 Q686.252 716.256 689.026 713.482 Q692.206 710.302 696.318 711.076 Q700.431 711.825 705.071 716.465 Q709.404 720.798 709.932 725.451 Q710.46 730.079 706.986 733.553 Q706.053 734.486 704.911 735.26 Q703.77 736.033 702.37 736.696 M699.534 723.99 Q701.204 722.321 701.032 720.209 Q700.872 718.085 698.884 716.097 Q696.907 714.12 694.784 713.961 Q692.66 713.776 690.99 715.446 Q689.321 717.116 689.493 719.252 Q689.664 721.363 691.641 723.339 Q693.63 725.328 695.741 725.5 Q697.865 725.66 699.534 723.99 Z" fill="#000000" fill-rule="nonzero" fill-opacity="1" /><path clip-path="url(#clip270)" d="M707.281 699.156 Q705.366 701.071 706.286 703.931 Q707.207 706.767 710.988 710.548 Q714.757 714.317 717.605 715.25 Q720.453 716.158 722.368 714.243 Q724.295 712.316 723.375 709.48 Q722.454 706.619 718.685 702.851 Q714.904 699.07 712.056 698.161 Q709.208 697.228 707.281 699.156 M705.316 697.191 Q708.398 694.11 712.461 694.933 Q716.524 695.731 721.165 700.371 Q725.793 704.999 726.603 709.075 Q727.413 713.126 724.332 716.207 Q721.251 719.288 717.187 718.49 Q713.124 717.668 708.496 713.04 Q703.856 708.399 703.045 704.348 Q702.235 700.273 705.316 697.191 Z" fill="#000000" fill-rule="nonzero" fill-opacity="1" /><path clip-path="url(#clip270)" d="M931.095 738.611 Q929.18 740.526 930.101 743.386 Q931.022 746.222 934.803 750.003 Q938.572 753.772 941.42 754.705 Q944.268 755.613 946.183 753.698 Q948.11 751.771 947.189 748.935 Q946.269 746.075 942.5 742.306 Q938.719 738.525 935.871 737.617 Q933.023 736.684 931.095 738.611 M929.131 736.647 Q932.213 733.565 936.276 734.388 Q940.339 735.186 944.98 739.826 Q949.608 744.454 950.418 748.53 Q951.228 752.581 948.147 755.662 Q945.066 758.744 941.002 757.946 Q936.939 757.123 932.311 752.495 Q927.67 747.855 926.86 743.804 Q926.05 739.728 929.131 736.647 Z" fill="#000000" fill-rule="nonzero" fill-opacity="1" /><path clip-path="url(#clip270)" d="M955.365 741.496 L957.955 738.906 L961.074 742.024 L958.483 744.614 L955.365 741.496 Z" fill="#000000" fill-rule="nonzero" fill-opacity="1" /><path clip-path="url(#clip270)" d="M966.168 736.168 L963.909 733.909 Q965.284 733.418 966.475 732.694 Q967.666 731.97 968.587 731.049 Q971.042 728.594 970.686 725.66 Q970.33 722.701 967.15 719.153 Q967.494 720.921 966.966 722.578 Q966.438 724.236 965.112 725.561 Q962.363 728.311 959.097 728.262 Q955.832 728.189 952.947 725.304 Q950.123 722.48 950.087 719.104 Q950.05 715.728 952.824 712.954 Q956.004 709.774 960.116 710.548 Q964.229 711.297 968.869 715.937 Q973.202 720.27 973.73 724.923 Q974.258 729.551 970.784 733.025 Q969.851 733.958 968.709 734.732 Q967.568 735.505 966.168 736.168 M963.332 723.462 Q965.002 721.793 964.83 719.681 Q964.671 717.557 962.682 715.569 Q960.705 713.592 958.582 713.433 Q956.458 713.249 954.788 714.918 Q953.119 716.588 953.291 718.724 Q953.462 720.835 955.439 722.812 Q957.428 724.8 959.539 724.972 Q961.663 725.132 963.332 723.462 Z" fill="#000000" fill-rule="nonzero" fill-opacity="1" /><path clip-path="url(#clip270)" d="M964.167 702.274 L973.902 692.539 L975.989 694.626 L968.525 702.09 L973.018 706.583 Q973.374 705.858 973.828 705.232 Q974.27 704.594 974.811 704.054 Q977.88 700.985 981.354 700.874 Q984.828 700.764 987.7 703.636 Q990.659 706.595 990.463 710.081 Q990.254 713.555 986.903 716.907 Q985.749 718.061 984.349 719.067 Q982.962 720.062 981.292 720.946 L978.8 718.454 Q980.507 717.95 981.98 717.066 Q983.453 716.183 984.766 714.869 Q986.89 712.745 987.013 710.388 Q987.136 708.031 985.221 706.116 Q983.306 704.201 980.949 704.324 Q978.592 704.447 976.468 706.57 Q975.473 707.565 974.7 708.78 Q973.939 709.983 973.374 711.481 L964.167 702.274 Z" fill="#000000" fill-rule="nonzero" fill-opacity="1" /><polyline clip-path="url(#clip270)" style="stroke:#000000; stroke-linecap:round; stroke-linejoin:round; stroke-width:4; stroke-opacity:1; fill:none" points="161.818,667.406 161.818,97.5521 "/>
<polyline clip-path="url(#clip270)" style="stroke:#000000; stroke-linecap:round; stroke-linejoin:round; stroke-width:4; stroke-opacity:1; fill:none" points="161.818,651.278 180.716,651.278 "/>
<polyline clip-path="url(#clip270)" style="stroke:#000000; stroke-linecap:round; stroke-linejoin:round; stroke-width:4; stroke-opacity:1; fill:none" points="161.818,507.859 180.716,507.859 "/>
<polyline clip-path="url(#clip270)" style="stroke:#000000; stroke-linecap:round; stroke-linejoin:round; stroke-width:4; stroke-opacity:1; fill:none" points="161.818,364.44 180.716,364.44 "/>
<polyline clip-path="url(#clip270)" style="stroke:#000000; stroke-linecap:round; stroke-linejoin:round; stroke-width:4; stroke-opacity:1; fill:none" points="161.818,221.02 180.716,221.02 "/>
<path clip-path="url(#clip270)" d="M116.86 640.627 Q114.152 640.627 112.78 643.301 Q111.426 645.957 111.426 651.304 Q111.426 656.634 112.78 659.308 Q114.152 661.964 116.86 661.964 Q119.586 661.964 120.94 659.308 Q122.311 656.634 122.311 651.304 Q122.311 645.957 120.94 643.301 Q119.586 640.627 116.86 640.627 M116.86 637.85 Q121.217 637.85 123.509 641.305 Q125.818 644.742 125.818 651.304 Q125.818 657.85 123.509 661.304 Q121.217 664.742 116.86 664.742 Q112.502 664.742 110.193 661.304 Q107.902 657.85 107.902 651.304 Q107.902 644.742 110.193 641.305 Q112.502 637.85 116.86 637.85 Z" fill="#000000" fill-rule="nonzero" fill-opacity="1" /><path clip-path="url(#clip270)" d="M110.888 517.868 L116.617 517.868 L116.617 498.093 L110.384 499.343 L110.384 496.149 L116.582 494.899 L120.089 494.899 L120.089 517.868 L125.818 517.868 L125.818 520.819 L110.888 520.819 L110.888 517.868 Z" fill="#000000" fill-rule="nonzero" fill-opacity="1" /><path clip-path="url(#clip270)" d="M113.579 374.448 L125.818 374.448 L125.818 377.4 L109.36 377.4 L109.36 374.448 Q111.356 372.382 114.794 368.91 Q118.249 365.42 119.134 364.414 Q120.818 362.521 121.478 361.219 Q122.155 359.9 122.155 358.632 Q122.155 356.566 120.697 355.264 Q119.256 353.962 116.929 353.962 Q115.28 353.962 113.44 354.535 Q111.617 355.108 109.533 356.271 L109.533 352.73 Q111.652 351.879 113.492 351.445 Q115.332 351.011 116.86 351.011 Q120.888 351.011 123.283 353.025 Q125.679 355.039 125.679 358.407 Q125.679 360.004 125.072 361.445 Q124.481 362.868 122.901 364.813 Q122.467 365.316 120.141 367.729 Q117.815 370.125 113.579 374.448 Z" fill="#000000" fill-rule="nonzero" fill-opacity="1" /><path clip-path="url(#clip270)" d="M120.471 220.005 Q122.988 220.543 124.395 222.244 Q125.818 223.946 125.818 226.445 Q125.818 230.282 123.179 232.383 Q120.54 234.484 115.679 234.484 Q114.047 234.484 112.311 234.154 Q110.593 233.841 108.752 233.199 L108.752 229.814 Q110.211 230.664 111.947 231.098 Q113.683 231.532 115.575 231.532 Q118.874 231.532 120.592 230.23 Q122.329 228.928 122.329 226.445 Q122.329 224.154 120.714 222.869 Q119.117 221.567 116.252 221.567 L113.231 221.567 L113.231 218.685 L116.391 218.685 Q118.978 218.685 120.349 217.661 Q121.721 216.619 121.721 214.675 Q121.721 212.678 120.297 211.619 Q118.891 210.543 116.252 210.543 Q114.811 210.543 113.162 210.855 Q111.513 211.168 109.533 211.828 L109.533 208.703 Q111.53 208.147 113.266 207.869 Q115.02 207.591 116.565 207.591 Q120.558 207.591 122.884 209.414 Q125.21 211.22 125.21 214.31 Q125.21 216.463 123.978 217.956 Q122.745 219.432 120.471 220.005 Z" fill="#000000" fill-rule="nonzero" fill-opacity="1" /><path clip-path="url(#clip270)" d="M163.901 20.1758 Q165.313 17.8147 168.809 15.7314 Q170.175 14.9212 174.387 14.9212 Q179.11 14.9212 182.049 18.6712 Q185.012 22.4212 185.012 28.5323 Q185.012 34.6433 182.049 38.3933 Q179.11 42.1433 174.387 42.1433 Q171.54 42.1433 169.48 41.0322 Q167.443 39.8979 166.1 37.5831 L166.1 51.3331 L161.818 51.3331 L161.818 28.7637 Q161.818 23.4165 163.901 20.1758 M180.591 28.5323 Q180.591 23.8332 178.647 21.1712 Q176.725 18.486 173.346 18.486 Q169.966 18.486 168.022 21.1712 Q166.1 23.8332 166.1 28.5323 Q166.1 33.2313 168.022 35.9165 Q169.966 38.5785 173.346 38.5785 Q176.725 38.5785 178.647 35.9165 Q180.591 33.2313 180.591 28.5323 Z" fill="#000000" fill-rule="nonzero" fill-opacity="1" /><polyline clip-path="url(#clip272)" style="stroke:#009af9; stroke-linecap:round; stroke-linejoin:round; stroke-width:4; stroke-opacity:1; fill:none" points="189.869,588.864 248.307,593.461 306.746,598.632 365.185,604.491 423.623,611.184 482.062,618.904 540.501,627.905 598.939,638.535 657.378,651.278 715.817,635.723 774.256,616.314 832.694,591.422 891.133,558.355 949.572,512.315 1008.01,443.852 1066.45,331.425 1124.89,113.68 "/>
<circle clip-path="url(#clip272)" cx="657.378" cy="651.278" r="10.8" fill="#ff0000" fill-rule="evenodd" fill-opacity="1" stroke="#000000" stroke-opacity="1" stroke-width="3.2"/>
<path clip-path="url(#clip270)" d="M1361.64 667.406 L2352.76 667.406 L2352.76 97.5521 L1361.64 97.5521  Z" fill="#ffffff" fill-rule="evenodd" fill-opacity="1"/>
<defs>
  <clipPath id="clip273">
    <rect x="1361" y="97" width="992" height="571"/>
  </clipPath>
</defs>
<polyline clip-path="url(#clip273)" style="stroke:#000000; stroke-linecap:round; stroke-linejoin:round; stroke-width:2; stroke-opacity:0.1; fill:none" points="1479.82,667.406 1479.82,97.5521 "/>
<polyline clip-path="url(#clip273)" style="stroke:#000000; stroke-linecap:round; stroke-linejoin:round; stroke-width:2; stroke-opacity:0.1; fill:none" points="1623.08,667.406 1623.08,97.5521 "/>
<polyline clip-path="url(#clip273)" style="stroke:#000000; stroke-linecap:round; stroke-linejoin:round; stroke-width:2; stroke-opacity:0.1; fill:none" points="1766.33,667.406 1766.33,97.5521 "/>
<polyline clip-path="url(#clip273)" style="stroke:#000000; stroke-linecap:round; stroke-linejoin:round; stroke-width:2; stroke-opacity:0.1; fill:none" points="1909.59,667.406 1909.59,97.5521 "/>
<polyline clip-path="url(#clip273)" style="stroke:#000000; stroke-linecap:round; stroke-linejoin:round; stroke-width:2; stroke-opacity:0.1; fill:none" points="2052.85,667.406 2052.85,97.5521 "/>
<polyline clip-path="url(#clip273)" style="stroke:#000000; stroke-linecap:round; stroke-linejoin:round; stroke-width:2; stroke-opacity:0.1; fill:none" points="2196.1,667.406 2196.1,97.5521 "/>
<polyline clip-path="url(#clip273)" style="stroke:#000000; stroke-linecap:round; stroke-linejoin:round; stroke-width:2; stroke-opacity:0.1; fill:none" points="2339.36,667.406 2339.36,97.5521 "/>
<polyline clip-path="url(#clip273)" style="stroke:#000000; stroke-linecap:round; stroke-linejoin:round; stroke-width:2; stroke-opacity:0.1; fill:none" points="1361.64,651.278 2352.76,651.278 "/>
<polyline clip-path="url(#clip273)" style="stroke:#000000; stroke-linecap:round; stroke-linejoin:round; stroke-width:2; stroke-opacity:0.1; fill:none" points="1361.64,508.007 2352.76,508.007 "/>
<polyline clip-path="url(#clip273)" style="stroke:#000000; stroke-linecap:round; stroke-linejoin:round; stroke-width:2; stroke-opacity:0.1; fill:none" points="1361.64,364.736 2352.76,364.736 "/>
<polyline clip-path="url(#clip273)" style="stroke:#000000; stroke-linecap:round; stroke-linejoin:round; stroke-width:2; stroke-opacity:0.1; fill:none" points="1361.64,221.465 2352.76,221.465 "/>
<polyline clip-path="url(#clip270)" style="stroke:#000000; stroke-linecap:round; stroke-linejoin:round; stroke-width:4; stroke-opacity:1; fill:none" points="1361.64,667.406 2352.76,667.406 "/>
<polyline clip-path="url(#clip270)" style="stroke:#000000; stroke-linecap:round; stroke-linejoin:round; stroke-width:4; stroke-opacity:1; fill:none" points="1479.82,667.406 1479.82,648.509 "/>
<polyline clip-path="url(#clip270)" style="stroke:#000000; stroke-linecap:round; stroke-linejoin:round; stroke-width:4; stroke-opacity:1; fill:none" points="1623.08,667.406 1623.08,648.509 "/>
<polyline clip-path="url(#clip270)" style="stroke:#000000; stroke-linecap:round; stroke-linejoin:round; stroke-width:4; stroke-opacity:1; fill:none" points="1766.33,667.406 1766.33,648.509 "/>
<polyline clip-path="url(#clip270)" style="stroke:#000000; stroke-linecap:round; stroke-linejoin:round; stroke-width:4; stroke-opacity:1; fill:none" points="1909.59,667.406 1909.59,648.509 "/>
<polyline clip-path="url(#clip270)" style="stroke:#000000; stroke-linecap:round; stroke-linejoin:round; stroke-width:4; stroke-opacity:1; fill:none" points="2052.85,667.406 2052.85,648.509 "/>
<polyline clip-path="url(#clip270)" style="stroke:#000000; stroke-linecap:round; stroke-linejoin:round; stroke-width:4; stroke-opacity:1; fill:none" points="2196.1,667.406 2196.1,648.509 "/>
<polyline clip-path="url(#clip270)" style="stroke:#000000; stroke-linecap:round; stroke-linejoin:round; stroke-width:4; stroke-opacity:1; fill:none" points="2339.36,667.406 2339.36,648.509 "/>
<path clip-path="url(#clip270)" d="M1425.97 739.139 Q1424.05 741.054 1424.97 743.914 Q1425.9 746.75 1429.68 750.531 Q1433.45 754.3 1436.29 755.233 Q1439.14 756.141 1441.06 754.226 Q1442.98 752.299 1442.06 749.463 Q1441.14 746.603 1437.37 742.834 Q1433.59 739.053 1430.74 738.144 Q1427.9 737.211 1425.97 739.139 M1424 737.175 Q1427.09 734.093 1431.15 734.916 Q1435.21 735.714 1439.85 740.354 Q1444.48 744.982 1445.29 749.058 Q1446.1 753.109 1443.02 756.19 Q1439.94 759.272 1435.88 758.474 Q1431.81 757.651 1427.18 753.023 Q1422.54 748.383 1421.73 744.332 Q1420.92 740.256 1424 737.175 Z" fill="#000000" fill-rule="nonzero" fill-opacity="1" /><path clip-path="url(#clip270)" d="M1450.24 742.024 L1452.83 739.433 L1455.95 742.552 L1453.36 745.142 L1450.24 742.024 Z" fill="#000000" fill-rule="nonzero" fill-opacity="1" /><path clip-path="url(#clip270)" d="M1458.98 719.755 Q1461.14 718.355 1463.34 718.564 Q1465.55 718.761 1467.31 720.528 Q1470.03 723.241 1469.65 726.593 Q1469.27 729.944 1465.83 733.381 Q1464.68 734.535 1463.21 735.53 Q1461.78 736.524 1460.02 737.371 L1457.63 734.977 Q1459.26 734.548 1460.8 733.627 Q1462.33 732.706 1463.67 731.368 Q1466 729.036 1466.3 726.9 Q1466.6 724.751 1464.85 722.996 Q1463.23 721.375 1461.18 721.609 Q1459.13 721.817 1457.1 723.843 L1454.97 725.979 L1452.93 723.941 L1455.16 721.707 Q1456.99 719.878 1457.24 718.184 Q1457.47 716.477 1456.09 715.102 Q1454.68 713.69 1452.93 713.948 Q1451.17 714.182 1449.31 716.047 Q1448.29 717.066 1447.34 718.454 Q1446.4 719.841 1445.46 721.707 L1443.25 719.497 Q1444.27 717.692 1445.3 716.268 Q1446.35 714.832 1447.44 713.74 Q1450.26 710.916 1453.2 710.56 Q1456.12 710.192 1458.3 712.377 Q1459.83 713.899 1460.01 715.827 Q1460.18 717.742 1458.98 719.755 Z" fill="#000000" fill-rule="nonzero" fill-opacity="1" /><path clip-path="url(#clip270)" d="M1465.95 699.156 Q1464.04 701.071 1464.96 703.931 Q1465.88 706.767 1469.66 710.548 Q1473.43 714.317 1476.28 715.25 Q1479.12 716.158 1481.04 714.243 Q1482.97 712.316 1482.05 709.48 Q1481.13 706.619 1477.36 702.851 Q1473.58 699.07 1470.73 698.161 Q1467.88 697.228 1465.95 699.156 M1463.99 697.191 Q1467.07 694.11 1471.13 694.933 Q1475.2 695.731 1479.84 700.371 Q1484.46 704.999 1485.27 709.075 Q1486.08 713.126 1483 716.207 Q1479.92 719.288 1475.86 718.49 Q1471.8 717.668 1467.17 713.04 Q1462.53 708.399 1461.72 704.348 Q1460.91 700.273 1463.99 697.191 Z" fill="#000000" fill-rule="nonzero" fill-opacity="1" /><path clip-path="url(#clip270)" d="M1569.88 738.488 Q1567.96 740.403 1568.88 743.264 Q1569.8 746.099 1573.58 749.88 Q1577.35 753.649 1580.2 754.582 Q1583.05 755.491 1584.96 753.576 Q1586.89 751.648 1585.97 748.812 Q1585.05 745.952 1581.28 742.183 Q1577.5 738.402 1574.65 737.494 Q1571.8 736.561 1569.88 738.488 M1567.91 736.524 Q1570.99 733.443 1575.06 734.265 Q1579.12 735.063 1583.76 739.704 Q1588.39 744.332 1589.2 748.407 Q1590.01 752.458 1586.93 755.54 Q1583.85 758.621 1579.78 757.823 Q1575.72 757.001 1571.09 752.372 Q1566.45 747.732 1565.64 743.681 Q1564.83 739.605 1567.91 736.524 Z" fill="#000000" fill-rule="nonzero" fill-opacity="1" /><path clip-path="url(#clip270)" d="M1594.15 741.373 L1596.74 738.783 L1599.86 741.901 L1597.26 744.491 L1594.15 741.373 Z" fill="#000000" fill-rule="nonzero" fill-opacity="1" /><path clip-path="url(#clip270)" d="M1602.89 719.104 Q1605.05 717.705 1607.25 717.913 Q1609.45 718.11 1611.22 719.878 Q1613.94 722.591 1613.56 725.942 Q1613.17 729.293 1609.74 732.731 Q1608.58 733.885 1607.12 734.879 Q1605.69 735.873 1603.93 736.72 L1601.54 734.327 Q1603.17 733.897 1604.7 732.976 Q1606.24 732.056 1607.58 730.717 Q1609.91 728.385 1610.2 726.249 Q1610.51 724.101 1608.76 722.345 Q1607.13 720.725 1605.08 720.958 Q1603.03 721.167 1601.01 723.192 L1598.87 725.328 L1596.84 723.29 L1599.07 721.056 Q1600.9 719.227 1601.14 717.533 Q1601.38 715.827 1600 714.452 Q1598.59 713.04 1596.84 713.298 Q1595.08 713.531 1593.21 715.397 Q1592.19 716.416 1591.25 717.803 Q1590.3 719.19 1589.37 721.056 L1587.16 718.846 Q1588.18 717.042 1589.21 715.618 Q1590.26 714.182 1591.35 713.089 Q1594.17 710.265 1597.11 709.909 Q1600.03 709.541 1602.21 711.726 Q1603.73 713.249 1603.92 715.176 Q1604.09 717.091 1602.89 719.104 Z" fill="#000000" fill-rule="nonzero" fill-opacity="1" /><path clip-path="url(#clip270)" d="M1619.59 717.987 L1623.65 713.936 L1609.66 699.954 L1606.14 705.245 L1603.88 702.986 L1607.38 697.719 L1609.86 695.24 L1626.1 711.481 L1630.15 707.43 L1632.24 709.517 L1621.68 720.074 L1619.59 717.987 Z" fill="#000000" fill-rule="nonzero" fill-opacity="1" /><path clip-path="url(#clip270)" d="M1713.33 738.292 Q1711.42 740.207 1712.34 743.067 Q1713.26 745.903 1717.04 749.684 Q1720.81 753.453 1723.65 754.386 Q1726.5 755.294 1728.42 753.379 Q1730.35 751.452 1729.42 748.616 Q1728.5 745.756 1724.73 741.987 Q1720.95 738.206 1718.11 737.297 Q1715.26 736.364 1713.33 738.292 M1711.37 736.328 Q1714.45 733.246 1718.51 734.069 Q1722.57 734.867 1727.21 739.507 Q1731.84 744.135 1732.65 748.211 Q1733.46 752.262 1730.38 755.343 Q1727.3 758.425 1723.24 757.627 Q1719.17 756.804 1714.55 752.176 Q1709.91 747.536 1709.1 743.485 Q1708.28 739.409 1711.37 736.328 Z" fill="#000000" fill-rule="nonzero" fill-opacity="1" /><path clip-path="url(#clip270)" d="M1737.6 741.177 L1740.19 738.586 L1743.31 741.705 L1740.72 744.295 L1737.6 741.177 Z" fill="#000000" fill-rule="nonzero" fill-opacity="1" /><path clip-path="url(#clip270)" d="M1746.34 718.908 Q1748.5 717.508 1750.7 717.717 Q1752.91 717.913 1754.68 719.681 Q1757.39 722.394 1757.01 725.746 Q1756.63 729.097 1753.19 732.534 Q1752.04 733.688 1750.58 734.683 Q1749.14 735.677 1747.38 736.524 L1744.99 734.13 Q1746.62 733.701 1748.16 732.78 Q1749.69 731.859 1751.03 730.521 Q1753.36 728.189 1753.66 726.053 Q1753.96 723.904 1752.21 722.149 Q1750.59 720.528 1748.54 720.762 Q1746.49 720.97 1744.46 722.996 L1742.33 725.132 L1740.29 723.094 L1742.52 720.86 Q1744.35 719.031 1744.6 717.336 Q1744.83 715.63 1743.46 714.255 Q1742.04 712.843 1740.29 713.101 Q1738.53 713.334 1736.67 715.2 Q1735.65 716.219 1734.7 717.607 Q1733.76 718.994 1732.82 720.86 L1730.62 718.65 Q1731.63 716.845 1732.67 715.421 Q1733.71 713.985 1734.8 712.893 Q1737.62 710.069 1740.56 709.713 Q1743.48 709.345 1745.67 711.53 Q1747.19 713.052 1747.37 714.979 Q1747.54 716.895 1746.34 718.908 Z" fill="#000000" fill-rule="nonzero" fill-opacity="1" /><path clip-path="url(#clip270)" d="M1764.76 716.084 L1773.41 707.43 L1775.5 709.517 L1763.86 721.154 L1761.77 719.067 Q1761.72 716.195 1761.7 711.309 Q1761.67 706.398 1761.59 705.06 Q1761.44 702.532 1760.99 701.144 Q1760.53 699.733 1759.64 698.836 Q1758.18 697.376 1756.22 697.486 Q1754.28 697.584 1752.64 699.229 Q1751.47 700.395 1750.58 702.102 Q1749.69 703.796 1749.04 706.092 L1746.54 703.587 Q1747.43 701.488 1748.43 699.88 Q1749.42 698.272 1750.5 697.191 Q1753.35 694.343 1756.47 694.073 Q1759.59 693.803 1761.97 696.185 Q1763.1 697.314 1763.69 698.763 Q1764.28 700.187 1764.53 702.679 Q1764.58 703.342 1764.64 706.693 Q1764.69 710.032 1764.76 716.084 Z" fill="#000000" fill-rule="nonzero" fill-opacity="1" /><path clip-path="url(#clip270)" d="M1856.08 738.795 Q1854.17 740.71 1855.09 743.571 Q1856.01 746.406 1859.79 750.187 Q1863.56 753.956 1866.41 754.889 Q1869.26 755.797 1871.17 753.882 Q1873.1 751.955 1872.18 749.119 Q1871.26 746.259 1867.49 742.49 Q1863.71 738.709 1860.86 737.801 Q1858.01 736.868 1856.08 738.795 M1854.12 736.831 Q1857.2 733.75 1861.26 734.572 Q1865.33 735.37 1869.97 740.01 Q1874.6 744.639 1875.41 748.714 Q1876.22 752.765 1873.14 755.847 Q1870.05 758.928 1865.99 758.13 Q1861.93 757.307 1857.3 752.679 Q1852.66 748.039 1851.85 743.988 Q1851.04 739.912 1854.12 736.831 Z" fill="#000000" fill-rule="nonzero" fill-opacity="1" /><path clip-path="url(#clip270)" d="M1880.35 741.68 L1882.94 739.09 L1886.06 742.208 L1883.47 744.798 L1880.35 741.68 Z" fill="#000000" fill-rule="nonzero" fill-opacity="1" /><path clip-path="url(#clip270)" d="M1889.09 719.411 Q1891.26 718.012 1893.45 718.22 Q1895.66 718.417 1897.43 720.185 Q1900.14 722.898 1899.76 726.249 Q1899.38 729.6 1895.94 733.038 Q1894.79 734.192 1893.33 735.186 Q1891.89 736.18 1890.14 737.027 L1887.74 734.634 Q1889.38 734.204 1890.91 733.283 Q1892.45 732.362 1893.78 731.024 Q1896.12 728.692 1896.41 726.556 Q1896.72 724.408 1894.96 722.652 Q1893.34 721.032 1891.29 721.265 Q1889.24 721.474 1887.22 723.499 L1885.08 725.635 L1883.04 723.597 L1885.28 721.363 Q1887.11 719.534 1887.35 717.84 Q1887.58 716.133 1886.21 714.759 Q1884.8 713.347 1883.04 713.605 Q1881.29 713.838 1879.42 715.704 Q1878.4 716.723 1877.46 718.11 Q1876.51 719.497 1875.58 721.363 L1873.37 719.153 Q1874.39 717.349 1875.42 715.925 Q1876.46 714.488 1877.56 713.396 Q1880.38 710.572 1883.31 710.216 Q1886.23 709.848 1888.42 712.033 Q1889.94 713.555 1890.13 715.483 Q1890.3 717.398 1889.09 719.411 Z" fill="#000000" fill-rule="nonzero" fill-opacity="1" /><path clip-path="url(#clip270)" d="M1905.09 703.415 Q1907.25 702.016 1909.45 702.225 Q1911.66 702.421 1913.43 704.189 Q1916.14 706.902 1915.76 710.253 Q1915.38 713.605 1911.94 717.042 Q1910.79 718.196 1909.33 719.19 Q1907.89 720.185 1906.13 721.032 L1903.74 718.638 Q1905.37 718.208 1906.91 717.287 Q1908.44 716.367 1909.78 715.029 Q1912.11 712.696 1912.41 710.56 Q1912.71 708.412 1910.96 706.656 Q1909.34 705.036 1907.29 705.269 Q1905.24 705.478 1903.21 707.503 L1901.08 709.639 L1899.04 707.602 L1901.27 705.367 Q1903.1 703.538 1903.35 701.844 Q1903.58 700.138 1902.21 698.763 Q1900.79 697.351 1899.04 697.609 Q1897.28 697.842 1895.42 699.708 Q1894.4 700.727 1893.45 702.114 Q1892.51 703.501 1891.57 705.367 L1889.36 703.158 Q1890.38 701.353 1891.41 699.929 Q1892.46 698.493 1893.55 697.4 Q1896.37 694.577 1899.31 694.221 Q1902.23 693.852 1904.42 696.037 Q1905.94 697.56 1906.12 699.487 Q1906.29 701.402 1905.09 703.415 Z" fill="#000000" fill-rule="nonzero" fill-opacity="1" /><path clip-path="url(#clip270)" d="M1998.74 739.397 Q1996.83 741.312 1997.75 744.172 Q1998.67 747.008 2002.45 750.789 Q2006.22 754.558 2009.06 755.491 Q2011.91 756.399 2013.83 754.484 Q2015.75 752.557 2014.83 749.721 Q2013.91 746.86 2010.14 743.092 Q2006.36 739.311 2003.52 738.402 Q2000.67 737.469 1998.74 739.397 M1996.78 737.432 Q1999.86 734.351 2003.92 735.174 Q2007.98 735.972 2012.62 740.612 Q2017.25 745.24 2018.06 749.316 Q2018.87 753.367 2015.79 756.448 Q2012.71 759.529 2008.65 758.731 Q2004.58 757.909 1999.96 753.281 Q1995.32 748.641 1994.5 744.589 Q1993.69 740.514 1996.78 737.432 Z" fill="#000000" fill-rule="nonzero" fill-opacity="1" /><path clip-path="url(#clip270)" d="M2023.01 742.282 L2025.6 739.691 L2028.72 742.809 L2026.13 745.4 L2023.01 742.282 Z" fill="#000000" fill-rule="nonzero" fill-opacity="1" /><path clip-path="url(#clip270)" d="M2031.75 720.013 Q2033.91 718.613 2036.11 718.822 Q2038.32 719.018 2040.09 720.786 Q2042.8 723.499 2042.42 726.85 Q2042.04 730.202 2038.6 733.639 Q2037.45 734.793 2035.99 735.787 Q2034.55 736.782 2032.79 737.629 L2030.4 735.235 Q2032.03 734.805 2033.57 733.885 Q2035.1 732.964 2036.44 731.626 Q2038.77 729.293 2039.07 727.157 Q2039.37 725.009 2037.62 723.254 Q2036 721.633 2033.95 721.866 Q2031.9 722.075 2029.87 724.101 L2027.74 726.237 L2025.7 724.199 L2027.93 721.965 Q2029.76 720.135 2030.01 718.441 Q2030.24 716.735 2028.87 715.36 Q2027.45 713.948 2025.7 714.206 Q2023.94 714.439 2022.08 716.305 Q2021.06 717.324 2020.11 718.711 Q2019.17 720.099 2018.23 721.965 L2016.02 719.755 Q2017.04 717.95 2018.07 716.526 Q2019.12 715.09 2020.21 713.997 Q2023.03 711.174 2025.97 710.818 Q2028.89 710.45 2031.08 712.635 Q2032.6 714.157 2032.78 716.084 Q2032.95 717.999 2031.75 720.013 Z" fill="#000000" fill-rule="nonzero" fill-opacity="1" /><path clip-path="url(#clip270)" d="M2040.76 698.431 L2044.28 714.476 L2050.55 708.215 L2040.76 698.431 M2037.95 696.921 L2041.07 693.803 L2053.01 705.748 L2055.63 703.133 L2057.69 705.195 L2055.08 707.81 L2059.4 712.131 L2056.93 714.599 L2052.61 710.278 L2044.33 718.552 L2041.94 716.158 L2037.95 696.921 Z" fill="#000000" fill-rule="nonzero" fill-opacity="1" /><path clip-path="url(#clip270)" d="M2142.78 738.611 Q2140.87 740.526 2141.79 743.386 Q2142.71 746.222 2146.49 750.003 Q2150.26 753.772 2153.11 754.705 Q2155.96 755.613 2157.87 753.698 Q2159.8 751.771 2158.88 748.935 Q2157.96 746.075 2154.19 742.306 Q2150.41 738.525 2147.56 737.617 Q2144.71 736.684 2142.78 738.611 M2140.82 736.647 Q2143.9 733.565 2147.96 734.388 Q2152.03 735.186 2156.67 739.826 Q2161.3 744.454 2162.11 748.53 Q2162.92 752.581 2159.83 755.662 Q2156.75 758.744 2152.69 757.946 Q2148.63 757.123 2144 752.495 Q2139.36 747.855 2138.55 743.804 Q2137.74 739.728 2140.82 736.647 Z" fill="#000000" fill-rule="nonzero" fill-opacity="1" /><path clip-path="url(#clip270)" d="M2167.05 741.496 L2169.64 738.906 L2172.76 742.024 L2170.17 744.614 L2167.05 741.496 Z" fill="#000000" fill-rule="nonzero" fill-opacity="1" /><path clip-path="url(#clip270)" d="M2175.79 719.227 Q2177.95 717.828 2180.15 718.036 Q2182.36 718.233 2184.13 720 Q2186.84 722.713 2186.46 726.065 Q2186.08 729.416 2182.64 732.853 Q2181.49 734.007 2180.03 735.002 Q2178.59 735.996 2176.84 736.843 L2174.44 734.449 Q2176.08 734.02 2177.61 733.099 Q2179.14 732.178 2180.48 730.84 Q2182.82 728.508 2183.11 726.372 Q2183.42 724.223 2181.66 722.468 Q2180.04 720.847 2177.99 721.081 Q2175.94 721.289 2173.92 723.315 L2171.78 725.451 L2169.74 723.413 L2171.98 721.179 Q2173.8 719.35 2174.05 717.656 Q2174.28 715.949 2172.91 714.574 Q2171.5 713.163 2169.74 713.42 Q2167.99 713.654 2166.12 715.52 Q2165.1 716.539 2164.16 717.926 Q2163.21 719.313 2162.28 721.179 L2160.07 718.969 Q2161.09 717.165 2162.12 715.741 Q2163.16 714.304 2164.25 713.212 Q2167.08 710.388 2170.01 710.032 Q2172.93 709.664 2175.12 711.849 Q2176.64 713.371 2176.82 715.299 Q2177 717.214 2175.79 719.227 Z" fill="#000000" fill-rule="nonzero" fill-opacity="1" /><path clip-path="url(#clip270)" d="M2175.85 702.274 L2185.59 692.539 L2187.68 694.626 L2180.21 702.09 L2184.71 706.583 Q2185.06 705.858 2185.52 705.232 Q2185.96 704.594 2186.5 704.054 Q2189.57 700.985 2193.04 700.874 Q2196.52 700.764 2199.39 703.636 Q2202.35 706.595 2202.15 710.081 Q2201.94 713.555 2198.59 716.907 Q2197.44 718.061 2196.04 719.067 Q2194.65 720.062 2192.98 720.946 L2190.49 718.454 Q2192.19 717.95 2193.67 717.066 Q2195.14 716.183 2196.45 714.869 Q2198.58 712.745 2198.7 710.388 Q2198.82 708.031 2196.91 706.116 Q2194.99 704.201 2192.64 704.324 Q2190.28 704.447 2188.16 706.57 Q2187.16 707.565 2186.39 708.78 Q2185.63 709.983 2185.06 711.481 L2175.85 702.274 Z" fill="#000000" fill-rule="nonzero" fill-opacity="1" /><path clip-path="url(#clip270)" d="M2285.43 739.225 Q2283.51 741.14 2284.43 744 Q2285.35 746.836 2289.13 750.617 Q2292.9 754.386 2295.75 755.319 Q2298.6 756.227 2300.51 754.312 Q2302.44 752.385 2301.52 749.549 Q2300.6 746.689 2296.83 742.92 Q2293.05 739.139 2290.2 738.23 Q2287.35 737.297 2285.43 739.225 M2283.46 737.261 Q2286.54 734.179 2290.61 735.002 Q2294.67 735.8 2299.31 740.44 Q2303.94 745.068 2304.75 749.144 Q2305.56 753.195 2302.48 756.276 Q2299.4 759.358 2295.33 758.56 Q2291.27 757.737 2286.64 753.109 Q2282 748.469 2281.19 744.418 Q2280.38 740.342 2283.46 737.261 Z" fill="#000000" fill-rule="nonzero" fill-opacity="1" /><path clip-path="url(#clip270)" d="M2309.7 742.11 L2312.29 739.519 L2315.4 742.638 L2312.81 745.228 L2309.7 742.11 Z" fill="#000000" fill-rule="nonzero" fill-opacity="1" /><path clip-path="url(#clip270)" d="M2318.44 719.841 Q2320.6 718.441 2322.79 718.65 Q2325 718.846 2326.77 720.614 Q2329.49 723.327 2329.1 726.679 Q2328.72 730.03 2325.29 733.467 Q2324.13 734.621 2322.67 735.616 Q2321.24 736.61 2319.48 737.457 L2317.09 735.063 Q2318.72 734.634 2320.25 733.713 Q2321.79 732.792 2323.13 731.454 Q2325.46 729.122 2325.75 726.985 Q2326.06 724.837 2324.3 723.082 Q2322.68 721.461 2320.63 721.695 Q2318.58 721.903 2316.56 723.929 L2314.42 726.065 L2312.38 724.027 L2314.62 721.793 Q2316.45 719.964 2316.69 718.269 Q2316.93 716.563 2315.55 715.188 Q2314.14 713.776 2312.38 714.034 Q2310.63 714.267 2308.76 716.133 Q2307.74 717.152 2306.8 718.54 Q2305.85 719.927 2304.92 721.793 L2302.71 719.583 Q2303.73 717.778 2304.76 716.354 Q2305.8 714.918 2306.9 713.826 Q2309.72 711.002 2312.65 710.646 Q2315.58 710.278 2317.76 712.463 Q2319.28 713.985 2319.47 715.912 Q2319.64 717.828 2318.44 719.841 Z" fill="#000000" fill-rule="nonzero" fill-opacity="1" /><path clip-path="url(#clip270)" d="M2332.26 705.478 Q2330.59 707.147 2330.75 709.271 Q2330.92 711.383 2332.91 713.371 Q2334.89 715.348 2337.01 715.532 Q2339.13 715.691 2340.8 714.022 Q2342.47 712.352 2342.3 710.241 Q2342.13 708.105 2340.15 706.128 Q2338.16 704.14 2336.04 703.98 Q2333.93 703.808 2332.26 705.478 M2329.41 692.784 L2331.67 695.043 Q2330.3 695.534 2329.1 696.258 Q2327.93 696.97 2326.99 697.903 Q2324.54 700.359 2324.89 703.317 Q2325.26 706.263 2328.43 709.799 Q2328.09 708.007 2328.61 706.349 Q2329.13 704.68 2330.44 703.366 Q2333.2 700.604 2336.48 700.69 Q2339.76 700.751 2342.65 703.636 Q2345.47 706.46 2345.51 709.836 Q2345.54 713.212 2342.77 715.986 Q2339.59 719.166 2335.48 718.417 Q2331.35 717.656 2326.72 713.028 Q2322.38 708.682 2321.86 704.041 Q2321.33 699.389 2324.81 695.915 Q2325.74 694.982 2326.87 694.221 Q2328.01 693.447 2329.41 692.784 Z" fill="#000000" fill-rule="nonzero" fill-opacity="1" /><polyline clip-path="url(#clip270)" style="stroke:#000000; stroke-linecap:round; stroke-linejoin:round; stroke-width:4; stroke-opacity:1; fill:none" points="1361.64,667.406 1361.64,97.5521 "/>
<polyline clip-path="url(#clip270)" style="stroke:#000000; stroke-linecap:round; stroke-linejoin:round; stroke-width:4; stroke-opacity:1; fill:none" points="1361.64,651.278 1380.53,651.278 "/>
<polyline clip-path="url(#clip270)" style="stroke:#000000; stroke-linecap:round; stroke-linejoin:round; stroke-width:4; stroke-opacity:1; fill:none" points="1361.64,508.007 1380.53,508.007 "/>
<polyline clip-path="url(#clip270)" style="stroke:#000000; stroke-linecap:round; stroke-linejoin:round; stroke-width:4; stroke-opacity:1; fill:none" points="1361.64,364.736 1380.53,364.736 "/>
<polyline clip-path="url(#clip270)" style="stroke:#000000; stroke-linecap:round; stroke-linejoin:round; stroke-width:4; stroke-opacity:1; fill:none" points="1361.64,221.465 1380.53,221.465 "/>
<path clip-path="url(#clip270)" d="M1260.13 640.627 Q1257.42 640.627 1256.05 643.301 Q1254.7 645.957 1254.7 651.304 Q1254.7 656.634 1256.05 659.308 Q1257.42 661.964 1260.13 661.964 Q1262.86 661.964 1264.21 659.308 Q1265.58 656.634 1265.58 651.304 Q1265.58 645.957 1264.21 643.301 Q1262.86 640.627 1260.13 640.627 M1260.13 637.85 Q1264.49 637.85 1266.78 641.305 Q1269.09 644.742 1269.09 651.304 Q1269.09 657.85 1266.78 661.304 Q1264.49 664.742 1260.13 664.742 Q1255.78 664.742 1253.47 661.304 Q1251.17 657.85 1251.17 651.304 Q1251.17 644.742 1253.47 641.305 Q1255.78 637.85 1260.13 637.85 Z" fill="#000000" fill-rule="nonzero" fill-opacity="1" /><path clip-path="url(#clip270)" d="M1275.25 659.829 L1278.92 659.829 L1278.92 664.238 L1275.25 664.238 L1275.25 659.829 Z" fill="#000000" fill-rule="nonzero" fill-opacity="1" /><path clip-path="url(#clip270)" d="M1294.06 640.627 Q1291.35 640.627 1289.98 643.301 Q1288.62 645.957 1288.62 651.304 Q1288.62 656.634 1289.98 659.308 Q1291.35 661.964 1294.06 661.964 Q1296.78 661.964 1298.14 659.308 Q1299.51 656.634 1299.51 651.304 Q1299.51 645.957 1298.14 643.301 Q1296.78 640.627 1294.06 640.627 M1294.06 637.85 Q1298.41 637.85 1300.71 641.305 Q1303.01 644.742 1303.01 651.304 Q1303.01 657.85 1300.71 661.304 Q1298.41 664.742 1294.06 664.742 Q1289.7 664.742 1287.39 661.304 Q1285.1 657.85 1285.1 651.304 Q1285.1 644.742 1287.39 641.305 Q1289.7 637.85 1294.06 637.85 Z" fill="#000000" fill-rule="nonzero" fill-opacity="1" /><path clip-path="url(#clip270)" d="M1316.68 640.627 Q1313.97 640.627 1312.6 643.301 Q1311.24 645.957 1311.24 651.304 Q1311.24 656.634 1312.6 659.308 Q1313.97 661.964 1316.68 661.964 Q1319.4 661.964 1320.76 659.308 Q1322.13 656.634 1322.13 651.304 Q1322.13 645.957 1320.76 643.301 Q1319.4 640.627 1316.68 640.627 M1316.68 637.85 Q1321.04 637.85 1323.33 641.305 Q1325.64 644.742 1325.64 651.304 Q1325.64 657.85 1323.33 661.304 Q1321.04 664.742 1316.68 664.742 Q1312.32 664.742 1310.01 661.304 Q1307.72 657.85 1307.72 651.304 Q1307.72 644.742 1310.01 641.305 Q1312.32 637.85 1316.68 637.85 Z" fill="#000000" fill-rule="nonzero" fill-opacity="1" /><path clip-path="url(#clip270)" d="M1260.88 497.356 Q1258.17 497.356 1256.8 500.03 Q1255.45 502.686 1255.45 508.033 Q1255.45 513.363 1256.8 516.037 Q1258.17 518.693 1260.88 518.693 Q1263.6 518.693 1264.96 516.037 Q1266.33 513.363 1266.33 508.033 Q1266.33 502.686 1264.96 500.03 Q1263.6 497.356 1260.88 497.356 M1260.88 494.579 Q1265.24 494.579 1267.53 498.033 Q1269.84 501.471 1269.84 508.033 Q1269.84 514.579 1267.53 518.033 Q1265.24 521.471 1260.88 521.471 Q1256.52 521.471 1254.21 518.033 Q1251.92 514.579 1251.92 508.033 Q1251.92 501.471 1254.21 498.033 Q1256.52 494.579 1260.88 494.579 Z" fill="#000000" fill-rule="nonzero" fill-opacity="1" /><path clip-path="url(#clip270)" d="M1276 516.558 L1279.66 516.558 L1279.66 520.967 L1276 520.967 L1276 516.558 Z" fill="#000000" fill-rule="nonzero" fill-opacity="1" /><path clip-path="url(#clip270)" d="M1294.8 497.356 Q1292.09 497.356 1290.72 500.03 Q1289.37 502.686 1289.37 508.033 Q1289.37 513.363 1290.72 516.037 Q1292.09 518.693 1294.8 518.693 Q1297.53 518.693 1298.88 516.037 Q1300.25 513.363 1300.25 508.033 Q1300.25 502.686 1298.88 500.03 Q1297.53 497.356 1294.8 497.356 M1294.8 494.579 Q1299.16 494.579 1301.45 498.033 Q1303.76 501.471 1303.76 508.033 Q1303.76 514.579 1301.45 518.033 Q1299.16 521.471 1294.8 521.471 Q1290.45 521.471 1288.14 518.033 Q1285.84 514.579 1285.84 508.033 Q1285.84 501.471 1288.14 498.033 Q1290.45 494.579 1294.8 494.579 Z" fill="#000000" fill-rule="nonzero" fill-opacity="1" /><path clip-path="url(#clip270)" d="M1309.96 495.047 L1323.73 495.047 L1323.73 497.999 L1313.17 497.999 L1313.17 504.353 Q1313.93 504.092 1314.7 503.971 Q1315.46 503.832 1316.23 503.832 Q1320.57 503.832 1323.1 506.211 Q1325.64 508.589 1325.64 512.651 Q1325.64 516.835 1323.03 519.162 Q1320.43 521.471 1315.69 521.471 Q1314.06 521.471 1312.35 521.193 Q1310.67 520.915 1308.87 520.36 L1308.87 516.835 Q1310.43 517.686 1312.09 518.103 Q1313.76 518.519 1315.62 518.519 Q1318.62 518.519 1320.38 516.94 Q1322.13 515.36 1322.13 512.651 Q1322.13 509.943 1320.38 508.363 Q1318.62 506.783 1315.62 506.783 Q1314.21 506.783 1312.81 507.096 Q1311.42 507.408 1309.96 508.068 L1309.96 495.047 Z" fill="#000000" fill-rule="nonzero" fill-opacity="1" /><path clip-path="url(#clip270)" d="M1260.13 354.085 Q1257.42 354.085 1256.05 356.759 Q1254.7 359.415 1254.7 364.762 Q1254.7 370.092 1256.05 372.766 Q1257.42 375.422 1260.13 375.422 Q1262.86 375.422 1264.21 372.766 Q1265.58 370.092 1265.58 364.762 Q1265.58 359.415 1264.21 356.759 Q1262.86 354.085 1260.13 354.085 M1260.13 351.308 Q1264.49 351.308 1266.78 354.762 Q1269.09 358.2 1269.09 364.762 Q1269.09 371.307 1266.78 374.762 Q1264.49 378.2 1260.13 378.2 Q1255.78 378.2 1253.47 374.762 Q1251.17 371.307 1251.17 364.762 Q1251.17 358.2 1253.47 354.762 Q1255.78 351.308 1260.13 351.308 Z" fill="#000000" fill-rule="nonzero" fill-opacity="1" /><path clip-path="url(#clip270)" d="M1275.25 373.287 L1278.92 373.287 L1278.92 377.696 L1275.25 377.696 L1275.25 373.287 Z" fill="#000000" fill-rule="nonzero" fill-opacity="1" /><path clip-path="url(#clip270)" d="M1287.16 374.745 L1292.89 374.745 L1292.89 354.971 L1286.66 356.221 L1286.66 353.026 L1292.86 351.776 L1296.37 351.776 L1296.37 374.745 L1302.09 374.745 L1302.09 377.696 L1287.16 377.696 L1287.16 374.745 Z" fill="#000000" fill-rule="nonzero" fill-opacity="1" /><path clip-path="url(#clip270)" d="M1316.68 354.085 Q1313.97 354.085 1312.6 356.759 Q1311.24 359.415 1311.24 364.762 Q1311.24 370.092 1312.6 372.766 Q1313.97 375.422 1316.68 375.422 Q1319.4 375.422 1320.76 372.766 Q1322.13 370.092 1322.13 364.762 Q1322.13 359.415 1320.76 356.759 Q1319.4 354.085 1316.68 354.085 M1316.68 351.308 Q1321.04 351.308 1323.33 354.762 Q1325.64 358.2 1325.64 364.762 Q1325.64 371.307 1323.33 374.762 Q1321.04 378.2 1316.68 378.2 Q1312.32 378.2 1310.01 374.762 Q1307.72 371.307 1307.72 364.762 Q1307.72 358.2 1310.01 354.762 Q1312.32 351.308 1316.68 351.308 Z" fill="#000000" fill-rule="nonzero" fill-opacity="1" /><path clip-path="url(#clip270)" d="M1260.88 210.814 Q1258.17 210.814 1256.8 213.488 Q1255.45 216.144 1255.45 221.491 Q1255.45 226.821 1256.8 229.495 Q1258.17 232.151 1260.88 232.151 Q1263.6 232.151 1264.96 229.495 Q1266.33 226.821 1266.33 221.491 Q1266.33 216.144 1264.96 213.488 Q1263.6 210.814 1260.88 210.814 M1260.88 208.037 Q1265.24 208.037 1267.53 211.491 Q1269.84 214.929 1269.84 221.491 Q1269.84 228.036 1267.53 231.491 Q1265.24 234.929 1260.88 234.929 Q1256.52 234.929 1254.21 231.491 Q1251.92 228.036 1251.92 221.491 Q1251.92 214.929 1254.21 211.491 Q1256.52 208.037 1260.88 208.037 Z" fill="#000000" fill-rule="nonzero" fill-opacity="1" /><path clip-path="url(#clip270)" d="M1276 230.016 L1279.66 230.016 L1279.66 234.425 L1276 234.425 L1276 230.016 Z" fill="#000000" fill-rule="nonzero" fill-opacity="1" /><path clip-path="url(#clip270)" d="M1287.91 231.474 L1293.64 231.474 L1293.64 211.7 L1287.41 212.95 L1287.41 209.755 L1293.6 208.505 L1297.11 208.505 L1297.11 231.474 L1302.84 231.474 L1302.84 234.425 L1287.91 234.425 L1287.91 231.474 Z" fill="#000000" fill-rule="nonzero" fill-opacity="1" /><path clip-path="url(#clip270)" d="M1309.96 208.505 L1323.73 208.505 L1323.73 211.457 L1313.17 211.457 L1313.17 217.811 Q1313.93 217.55 1314.7 217.429 Q1315.46 217.29 1316.23 217.29 Q1320.57 217.29 1323.1 219.668 Q1325.64 222.047 1325.64 226.109 Q1325.64 230.293 1323.03 232.62 Q1320.43 234.929 1315.69 234.929 Q1314.06 234.929 1312.35 234.651 Q1310.67 234.373 1308.87 233.818 L1308.87 230.293 Q1310.43 231.144 1312.09 231.561 Q1313.76 231.977 1315.62 231.977 Q1318.62 231.977 1320.38 230.398 Q1322.13 228.818 1322.13 226.109 Q1322.13 223.401 1320.38 221.821 Q1318.62 220.241 1315.62 220.241 Q1314.21 220.241 1312.81 220.554 Q1311.42 220.866 1309.96 221.526 L1309.96 208.505 Z" fill="#000000" fill-rule="nonzero" fill-opacity="1" /><path clip-path="url(#clip270)" d="M1373.53 18.9258 Q1370.02 18.9258 1368.12 21.4721 Q1366.13 24.1341 1366.13 28.5323 Q1366.13 33.185 1368.09 35.8702 Q1370.08 38.5322 1373.53 38.5322 Q1376.94 38.5322 1378.93 35.847 Q1380.92 33.1619 1380.92 28.5323 Q1380.92 24.2962 1378.93 21.4721 Q1377.1 18.9258 1373.53 18.9258 M1373.53 15.5462 L1387.68 15.5462 L1387.68 19.8054 L1382.91 19.8054 Q1385.43 23.4165 1385.43 28.5323 Q1385.43 34.898 1382.26 38.5091 Q1379.09 42.1433 1373.53 42.1433 Q1367.96 42.1433 1364.81 38.5091 Q1361.64 34.898 1361.64 28.5323 Q1361.64 22.1203 1364.81 18.5323 Q1367.42 15.5462 1373.53 15.5462 Z" fill="#000000" fill-rule="nonzero" fill-opacity="1" /><path clip-path="url(#clip270)" d="M1411.84 19.6666 Q1410.99 19.3656 1410.13 19.1342 Q1407.84 18.5323 1405.39 18.5323 Q1401.15 18.5323 1398.79 20.824 Q1396.59 22.9536 1396.17 26.8656 L1411.84 26.8656 L1411.84 30.1989 L1396.17 30.1989 Q1396.59 34.1109 1398.79 36.2405 Q1401.15 38.5322 1405.39 38.5322 Q1408.35 38.5322 1410.13 37.9304 L1411.84 37.3517 L1411.84 41.2174 L1410.02 41.634 Q1407.61 42.1433 1405.13 42.1433 Q1398.93 42.1433 1395.32 38.5322 Q1391.68 34.9211 1391.68 28.5323 Q1391.68 22.1434 1395.32 18.5323 Q1398.93 14.9212 1405.13 14.9212 Q1407.47 14.9212 1410.02 15.4305 Q1410.94 15.6157 1411.84 15.8934 L1411.84 19.6666 Z" fill="#000000" fill-rule="nonzero" fill-opacity="1" /><polyline clip-path="url(#clip273)" style="stroke:#009af9; stroke-linecap:round; stroke-linejoin:round; stroke-width:4; stroke-opacity:1; fill:none" points="1389.69,164.824 1448.13,222.833 1506.56,281.643 1565,341.251 1623.44,401.658 1681.88,462.864 1740.32,524.87 1798.76,587.675 1857.2,651.278 1915.63,586.876 1974.07,521.674 2032.51,455.672 2090.95,388.872 2149.39,321.273 2207.83,252.874 2266.27,183.677 2324.71,113.68 "/>
<circle clip-path="url(#clip273)" cx="1857.2" cy="651.278" r="10.8" fill="#ff0000" fill-rule="evenodd" fill-opacity="1" stroke="#000000" stroke-opacity="1" stroke-width="3.2"/>
<path clip-path="url(#clip270)" d="M161.818 1467.41 L1152.94 1467.41 L1152.94 897.552 L161.818 897.552  Z" fill="#ffffff" fill-rule="evenodd" fill-opacity="1"/>
<defs>
  <clipPath id="clip274">
    <rect x="161" y="897" width="992" height="571"/>
  </clipPath>
</defs>
<polyline clip-path="url(#clip274)" style="stroke:#000000; stroke-linecap:round; stroke-linejoin:round; stroke-width:2; stroke-opacity:0.1; fill:none" points="295.498,1467.41 295.498,897.552 "/>
<polyline clip-path="url(#clip274)" style="stroke:#000000; stroke-linecap:round; stroke-linejoin:round; stroke-width:2; stroke-opacity:0.1; fill:none" points="468.026,1467.41 468.026,897.552 "/>
<polyline clip-path="url(#clip274)" style="stroke:#000000; stroke-linecap:round; stroke-linejoin:round; stroke-width:2; stroke-opacity:0.1; fill:none" points="640.555,1467.41 640.555,897.552 "/>
<polyline clip-path="url(#clip274)" style="stroke:#000000; stroke-linecap:round; stroke-linejoin:round; stroke-width:2; stroke-opacity:0.1; fill:none" points="813.083,1467.41 813.083,897.552 "/>
<polyline clip-path="url(#clip274)" style="stroke:#000000; stroke-linecap:round; stroke-linejoin:round; stroke-width:2; stroke-opacity:0.1; fill:none" points="985.612,1467.41 985.612,897.552 "/>
<polyline clip-path="url(#clip274)" style="stroke:#000000; stroke-linecap:round; stroke-linejoin:round; stroke-width:2; stroke-opacity:0.1; fill:none" points="161.818,1451.28 1152.94,1451.28 "/>
<polyline clip-path="url(#clip274)" style="stroke:#000000; stroke-linecap:round; stroke-linejoin:round; stroke-width:2; stroke-opacity:0.1; fill:none" points="161.818,1330.57 1152.94,1330.57 "/>
<polyline clip-path="url(#clip274)" style="stroke:#000000; stroke-linecap:round; stroke-linejoin:round; stroke-width:2; stroke-opacity:0.1; fill:none" points="161.818,1209.86 1152.94,1209.86 "/>
<polyline clip-path="url(#clip274)" style="stroke:#000000; stroke-linecap:round; stroke-linejoin:round; stroke-width:2; stroke-opacity:0.1; fill:none" points="161.818,1089.15 1152.94,1089.15 "/>
<polyline clip-path="url(#clip274)" style="stroke:#000000; stroke-linecap:round; stroke-linejoin:round; stroke-width:2; stroke-opacity:0.1; fill:none" points="161.818,968.443 1152.94,968.443 "/>
<polyline clip-path="url(#clip270)" style="stroke:#000000; stroke-linecap:round; stroke-linejoin:round; stroke-width:4; stroke-opacity:1; fill:none" points="161.818,1467.41 1152.94,1467.41 "/>
<polyline clip-path="url(#clip270)" style="stroke:#000000; stroke-linecap:round; stroke-linejoin:round; stroke-width:4; stroke-opacity:1; fill:none" points="295.498,1467.41 295.498,1448.51 "/>
<polyline clip-path="url(#clip270)" style="stroke:#000000; stroke-linecap:round; stroke-linejoin:round; stroke-width:4; stroke-opacity:1; fill:none" points="468.026,1467.41 468.026,1448.51 "/>
<polyline clip-path="url(#clip270)" style="stroke:#000000; stroke-linecap:round; stroke-linejoin:round; stroke-width:4; stroke-opacity:1; fill:none" points="640.555,1467.41 640.555,1448.51 "/>
<polyline clip-path="url(#clip270)" style="stroke:#000000; stroke-linecap:round; stroke-linejoin:round; stroke-width:4; stroke-opacity:1; fill:none" points="813.083,1467.41 813.083,1448.51 "/>
<polyline clip-path="url(#clip270)" style="stroke:#000000; stroke-linecap:round; stroke-linejoin:round; stroke-width:4; stroke-opacity:1; fill:none" points="985.612,1467.41 985.612,1448.51 "/>
<path clip-path="url(#clip270)" d="M241.649 1539.14 Q239.733 1541.05 240.654 1543.91 Q241.575 1546.75 245.356 1550.53 Q249.125 1554.3 251.973 1555.23 Q254.821 1556.14 256.736 1554.23 Q258.663 1552.3 257.742 1549.46 Q256.822 1546.6 253.053 1542.83 Q249.272 1539.05 246.424 1538.14 Q243.576 1537.21 241.649 1539.14 M239.684 1537.17 Q242.766 1534.09 246.829 1534.92 Q250.892 1535.71 255.533 1540.35 Q260.161 1544.98 260.971 1549.06 Q261.781 1553.11 258.7 1556.19 Q255.619 1559.27 251.555 1558.47 Q247.492 1557.65 242.864 1553.02 Q238.224 1548.38 237.413 1544.33 Q236.603 1540.26 239.684 1537.17 Z" fill="#000000" fill-rule="nonzero" fill-opacity="1" /><path clip-path="url(#clip270)" d="M265.918 1542.02 L268.509 1539.43 L271.627 1542.55 L269.037 1545.14 L265.918 1542.02 Z" fill="#000000" fill-rule="nonzero" fill-opacity="1" /><path clip-path="url(#clip270)" d="M258.725 1518.8 L268.46 1509.06 L270.546 1511.15 L263.083 1518.61 L267.576 1523.11 Q267.932 1522.38 268.386 1521.76 Q268.828 1521.12 269.368 1520.58 Q272.437 1517.51 275.911 1517.4 Q279.385 1517.29 282.258 1520.16 Q285.216 1523.12 285.02 1526.6 Q284.811 1530.08 281.46 1533.43 Q280.306 1534.58 278.906 1535.59 Q277.519 1536.59 275.85 1537.47 L273.358 1534.98 Q275.064 1534.47 276.537 1533.59 Q278.01 1532.71 279.324 1531.39 Q281.448 1529.27 281.57 1526.91 Q281.693 1524.55 279.778 1522.64 Q277.863 1520.72 275.506 1520.85 Q273.149 1520.97 271.025 1523.09 Q270.031 1524.09 269.257 1525.3 Q268.496 1526.51 267.932 1528 L258.725 1518.8 Z" fill="#000000" fill-rule="nonzero" fill-opacity="1" /><path clip-path="url(#clip270)" d="M281.632 1499.16 Q279.717 1501.07 280.637 1503.93 Q281.558 1506.77 285.339 1510.55 Q289.108 1514.32 291.956 1515.25 Q294.804 1516.16 296.719 1514.24 Q298.646 1512.32 297.726 1509.48 Q296.805 1506.62 293.036 1502.85 Q289.255 1499.07 286.407 1498.16 Q283.559 1497.23 281.632 1499.16 M279.668 1497.19 Q282.749 1494.11 286.812 1494.93 Q290.876 1495.73 295.516 1500.37 Q300.144 1505 300.954 1509.07 Q301.765 1513.13 298.683 1516.21 Q295.602 1519.29 291.539 1518.49 Q287.475 1517.67 282.847 1513.04 Q278.207 1508.4 277.397 1504.35 Q276.586 1500.27 279.668 1497.19 Z" fill="#000000" fill-rule="nonzero" fill-opacity="1" /><path clip-path="url(#clip270)" d="M415.024 1538.29 Q413.109 1540.21 414.03 1543.07 Q414.95 1545.9 418.732 1549.68 Q422.5 1553.45 425.348 1554.39 Q428.196 1555.29 430.111 1553.38 Q432.039 1551.45 431.118 1548.62 Q430.197 1545.76 426.429 1541.99 Q422.648 1538.21 419.8 1537.3 Q416.952 1536.36 415.024 1538.29 M413.06 1536.33 Q416.141 1533.25 420.205 1534.07 Q424.268 1534.87 428.908 1539.51 Q433.537 1544.14 434.347 1548.21 Q435.157 1552.26 432.076 1555.34 Q428.994 1558.42 424.931 1557.63 Q420.868 1556.8 416.239 1552.18 Q411.599 1547.54 410.789 1543.48 Q409.979 1539.41 413.06 1536.33 Z" fill="#000000" fill-rule="nonzero" fill-opacity="1" /><path clip-path="url(#clip270)" d="M439.294 1541.18 L441.884 1538.59 L445.002 1541.7 L442.412 1544.29 L439.294 1541.18 Z" fill="#000000" fill-rule="nonzero" fill-opacity="1" /><path clip-path="url(#clip270)" d="M432.1 1517.95 L441.835 1508.22 L443.922 1510.3 L436.458 1517.77 L440.951 1522.26 Q441.307 1521.53 441.761 1520.91 Q442.203 1520.27 442.744 1519.73 Q445.813 1516.66 449.287 1516.55 Q452.761 1516.44 455.633 1519.31 Q458.592 1522.27 458.396 1525.76 Q458.187 1529.23 454.836 1532.58 Q453.682 1533.74 452.282 1534.74 Q450.895 1535.74 449.225 1536.62 L446.733 1534.13 Q448.44 1533.63 449.913 1532.74 Q451.386 1531.86 452.699 1530.55 Q454.823 1528.42 454.946 1526.06 Q455.069 1523.71 453.154 1521.79 Q451.239 1519.88 448.882 1520 Q446.525 1520.12 444.401 1522.25 Q443.406 1523.24 442.633 1524.46 Q441.872 1525.66 441.307 1527.16 L432.1 1517.95 Z" fill="#000000" fill-rule="nonzero" fill-opacity="1" /><path clip-path="url(#clip270)" d="M466.449 1516.08 L475.103 1507.43 L477.19 1509.52 L465.553 1521.15 L463.466 1519.07 Q463.417 1516.19 463.392 1511.31 Q463.367 1506.4 463.281 1505.06 Q463.134 1502.53 462.68 1501.14 Q462.226 1499.73 461.33 1498.84 Q459.869 1497.38 457.917 1497.49 Q455.977 1497.58 454.332 1499.23 Q453.166 1500.4 452.27 1502.1 Q451.386 1503.8 450.735 1506.09 L448.231 1503.59 Q449.127 1501.49 450.122 1499.88 Q451.116 1498.27 452.196 1497.19 Q455.044 1494.34 458.162 1494.07 Q461.28 1493.8 463.662 1496.18 Q464.791 1497.31 465.381 1498.76 Q465.97 1500.19 466.228 1502.68 Q466.277 1503.34 466.338 1506.69 Q466.387 1510.03 466.449 1516.08 Z" fill="#000000" fill-rule="nonzero" fill-opacity="1" /><path clip-path="url(#clip270)" d="M586.448 1539.4 Q584.533 1541.31 585.454 1544.17 Q586.374 1547.01 590.155 1550.79 Q593.924 1554.56 596.772 1555.49 Q599.62 1556.4 601.535 1554.48 Q603.463 1552.56 602.542 1549.72 Q601.621 1546.86 597.852 1543.09 Q594.071 1539.31 591.223 1538.4 Q588.375 1537.47 586.448 1539.4 M584.484 1537.43 Q587.565 1534.35 591.628 1535.17 Q595.692 1535.97 600.332 1540.61 Q604.96 1545.24 605.77 1549.32 Q606.581 1553.37 603.499 1556.45 Q600.418 1559.53 596.355 1558.73 Q592.291 1557.91 587.663 1553.28 Q583.023 1548.64 582.213 1544.59 Q581.402 1540.51 584.484 1537.43 Z" fill="#000000" fill-rule="nonzero" fill-opacity="1" /><path clip-path="url(#clip270)" d="M610.718 1542.28 L613.308 1539.69 L616.426 1542.81 L613.836 1545.4 L610.718 1542.28 Z" fill="#000000" fill-rule="nonzero" fill-opacity="1" /><path clip-path="url(#clip270)" d="M603.524 1519.06 L613.259 1509.32 L615.346 1511.41 L607.882 1518.87 L612.375 1523.36 Q612.731 1522.64 613.185 1522.01 Q613.627 1521.38 614.167 1520.84 Q617.236 1517.77 620.71 1517.66 Q624.185 1517.55 627.057 1520.42 Q630.016 1523.38 629.819 1526.86 Q629.611 1530.34 626.259 1533.69 Q625.105 1534.84 623.706 1535.85 Q622.319 1536.84 620.649 1537.73 L618.157 1535.24 Q619.863 1534.73 621.337 1533.85 Q622.81 1532.96 624.123 1531.65 Q626.247 1529.53 626.37 1527.17 Q626.492 1524.81 624.577 1522.9 Q622.662 1520.98 620.305 1521.11 Q617.948 1521.23 615.825 1523.35 Q614.83 1524.35 614.057 1525.56 Q613.296 1526.76 612.731 1528.26 L603.524 1519.06 Z" fill="#000000" fill-rule="nonzero" fill-opacity="1" /><path clip-path="url(#clip270)" d="M628.469 1498.43 L631.992 1514.48 L638.253 1508.22 L628.469 1498.43 M625.658 1496.92 L628.776 1493.8 L640.72 1505.75 L643.335 1503.13 L645.398 1505.2 L642.783 1507.81 L647.104 1512.13 L644.637 1514.6 L640.315 1510.28 L632.041 1518.55 L629.647 1516.16 L625.658 1496.92 Z" fill="#000000" fill-rule="nonzero" fill-opacity="1" /><path clip-path="url(#clip270)" d="M759.148 1539.22 Q757.233 1541.14 758.154 1544 Q759.075 1546.84 762.856 1550.62 Q766.624 1554.39 769.473 1555.32 Q772.321 1556.23 774.236 1554.31 Q776.163 1552.38 775.242 1549.55 Q774.322 1546.69 770.553 1542.92 Q766.772 1539.14 763.924 1538.23 Q761.076 1537.3 759.148 1539.22 M757.184 1537.26 Q760.265 1534.18 764.329 1535 Q768.392 1535.8 773.033 1540.44 Q777.661 1545.07 778.471 1549.14 Q779.281 1553.19 776.2 1556.28 Q773.119 1559.36 769.055 1558.56 Q764.992 1557.74 760.364 1553.11 Q755.723 1548.47 754.913 1544.42 Q754.103 1540.34 757.184 1537.26 Z" fill="#000000" fill-rule="nonzero" fill-opacity="1" /><path clip-path="url(#clip270)" d="M783.418 1542.11 L786.008 1539.52 L789.127 1542.64 L786.536 1545.23 L783.418 1542.11 Z" fill="#000000" fill-rule="nonzero" fill-opacity="1" /><path clip-path="url(#clip270)" d="M776.224 1518.88 L785.959 1509.15 L788.046 1511.24 L780.582 1518.7 L785.075 1523.19 Q785.431 1522.47 785.886 1521.84 Q786.328 1521.2 786.868 1520.66 Q789.937 1517.59 793.411 1517.48 Q796.885 1517.37 799.758 1520.25 Q802.716 1523.2 802.52 1526.69 Q802.311 1530.17 798.96 1533.52 Q797.806 1534.67 796.406 1535.68 Q795.019 1536.67 793.35 1537.56 L790.857 1535.06 Q792.564 1534.56 794.037 1533.68 Q795.51 1532.79 796.824 1531.48 Q798.947 1529.35 799.07 1527 Q799.193 1524.64 797.278 1522.73 Q795.363 1520.81 793.006 1520.93 Q790.649 1521.06 788.525 1523.18 Q787.531 1524.17 786.757 1525.39 Q785.996 1526.59 785.431 1528.09 L776.224 1518.88 Z" fill="#000000" fill-rule="nonzero" fill-opacity="1" /><path clip-path="url(#clip270)" d="M805.982 1505.48 Q804.312 1507.15 804.472 1509.27 Q804.644 1511.38 806.632 1513.37 Q808.609 1515.35 810.732 1515.53 Q812.856 1515.69 814.526 1514.02 Q816.195 1512.35 816.023 1510.24 Q815.852 1508.1 813.875 1506.13 Q811.886 1504.14 809.763 1503.98 Q807.651 1503.81 805.982 1505.48 M803.134 1492.78 L805.392 1495.04 Q804.017 1495.53 802.827 1496.26 Q801.648 1496.97 800.715 1497.9 Q798.26 1500.36 798.616 1503.32 Q798.984 1506.26 802.151 1509.8 Q801.808 1508.01 802.336 1506.35 Q802.851 1504.68 804.165 1503.37 Q806.927 1500.6 810.205 1500.69 Q813.482 1500.75 816.367 1503.64 Q819.191 1506.46 819.228 1509.84 Q819.264 1513.21 816.49 1515.99 Q813.31 1519.17 809.198 1518.42 Q805.073 1517.66 800.445 1513.03 Q796.099 1508.68 795.584 1504.04 Q795.056 1499.39 798.53 1495.91 Q799.463 1494.98 800.592 1494.22 Q801.734 1493.45 803.134 1492.78 Z" fill="#000000" fill-rule="nonzero" fill-opacity="1" /><path clip-path="url(#clip270)" d="M931.812 1539.09 Q929.897 1541 930.818 1543.87 Q931.738 1546.7 935.519 1550.48 Q939.288 1554.25 942.136 1555.18 Q944.984 1556.09 946.899 1554.18 Q948.827 1552.25 947.906 1549.41 Q946.985 1546.55 943.216 1542.78 Q939.435 1539 936.587 1538.1 Q933.739 1537.16 931.812 1539.09 M929.848 1537.13 Q932.929 1534.04 936.992 1534.87 Q941.056 1535.66 945.696 1540.31 Q950.324 1544.93 951.134 1549.01 Q951.945 1553.06 948.863 1556.14 Q945.782 1559.22 941.719 1558.42 Q937.655 1557.6 933.027 1552.97 Q928.387 1548.33 927.577 1544.28 Q926.766 1540.21 929.848 1537.13 Z" fill="#000000" fill-rule="nonzero" fill-opacity="1" /><path clip-path="url(#clip270)" d="M956.082 1541.97 L958.672 1539.38 L961.79 1542.5 L959.2 1545.09 L956.082 1541.97 Z" fill="#000000" fill-rule="nonzero" fill-opacity="1" /><path clip-path="url(#clip270)" d="M948.888 1518.75 L958.623 1509.01 L960.71 1511.1 L953.246 1518.56 L957.739 1523.06 Q958.095 1522.33 958.549 1521.71 Q958.991 1521.07 959.531 1520.53 Q962.6 1517.46 966.074 1517.35 Q969.549 1517.24 972.421 1520.11 Q975.38 1523.07 975.183 1526.56 Q974.975 1530.03 971.623 1533.38 Q970.469 1534.54 969.07 1535.54 Q967.683 1536.54 966.013 1537.42 L963.521 1534.93 Q965.227 1534.42 966.701 1533.54 Q968.174 1532.66 969.487 1531.34 Q971.611 1529.22 971.734 1526.86 Q971.857 1524.51 969.941 1522.59 Q968.026 1520.68 965.669 1520.8 Q963.312 1520.92 961.189 1523.04 Q960.194 1524.04 959.421 1525.25 Q958.66 1526.46 958.095 1527.96 L948.888 1518.75 Z" fill="#000000" fill-rule="nonzero" fill-opacity="1" /><path clip-path="url(#clip270)" d="M979.787 1507.1 Q978.019 1508.87 977.945 1510.83 Q977.884 1512.78 979.541 1514.44 Q981.199 1516.1 983.151 1516.04 Q985.115 1515.96 986.882 1514.19 Q988.65 1512.43 988.724 1510.46 Q988.785 1508.49 987.14 1506.84 Q985.483 1505.18 983.519 1505.26 Q981.567 1505.32 979.787 1507.1 M976.251 1508.52 Q974.263 1509.73 972.274 1509.53 Q970.297 1509.32 968.726 1507.75 Q966.529 1505.55 966.811 1502.72 Q967.106 1499.87 969.831 1497.14 Q972.569 1494.4 975.404 1494.12 Q978.24 1493.84 980.438 1496.04 Q982.009 1497.61 982.205 1499.6 Q982.414 1501.57 981.223 1503.55 Q983.433 1502.18 985.643 1502.4 Q987.865 1502.61 989.62 1504.36 Q992.284 1507.02 992.075 1510.08 Q991.879 1513.13 988.847 1516.16 Q985.814 1519.19 982.758 1519.4 Q979.713 1519.6 977.049 1516.93 Q975.294 1515.18 975.085 1512.95 Q974.876 1510.73 976.251 1508.52 M971.427 1505.51 Q972.851 1506.94 974.533 1506.85 Q976.227 1506.75 977.835 1505.15 Q979.431 1503.55 979.529 1501.86 Q979.64 1500.15 978.216 1498.73 Q976.792 1497.3 975.085 1497.41 Q973.391 1497.51 971.795 1499.11 Q970.187 1500.71 970.089 1502.41 Q970.003 1504.09 971.427 1505.51 Z" fill="#000000" fill-rule="nonzero" fill-opacity="1" /><polyline clip-path="url(#clip270)" style="stroke:#000000; stroke-linecap:round; stroke-linejoin:round; stroke-width:4; stroke-opacity:1; fill:none" points="161.818,1467.41 161.818,897.552 "/>
<polyline clip-path="url(#clip270)" style="stroke:#000000; stroke-linecap:round; stroke-linejoin:round; stroke-width:4; stroke-opacity:1; fill:none" points="161.818,1451.28 180.716,1451.28 "/>
<polyline clip-path="url(#clip270)" style="stroke:#000000; stroke-linecap:round; stroke-linejoin:round; stroke-width:4; stroke-opacity:1; fill:none" points="161.818,1330.57 180.716,1330.57 "/>
<polyline clip-path="url(#clip270)" style="stroke:#000000; stroke-linecap:round; stroke-linejoin:round; stroke-width:4; stroke-opacity:1; fill:none" points="161.818,1209.86 180.716,1209.86 "/>
<polyline clip-path="url(#clip270)" style="stroke:#000000; stroke-linecap:round; stroke-linejoin:round; stroke-width:4; stroke-opacity:1; fill:none" points="161.818,1089.15 180.716,1089.15 "/>
<polyline clip-path="url(#clip270)" style="stroke:#000000; stroke-linecap:round; stroke-linejoin:round; stroke-width:4; stroke-opacity:1; fill:none" points="161.818,968.443 180.716,968.443 "/>
<path clip-path="url(#clip270)" d="M60.315 1440.63 Q57.6067 1440.63 56.2352 1443.3 Q54.881 1445.96 54.881 1451.3 Q54.881 1456.63 56.2352 1459.31 Q57.6067 1461.96 60.315 1461.96 Q63.0407 1461.96 64.3948 1459.31 Q65.7664 1456.63 65.7664 1451.3 Q65.7664 1445.96 64.3948 1443.3 Q63.0407 1440.63 60.315 1440.63 M60.315 1437.85 Q64.6726 1437.85 66.9643 1441.3 Q69.2733 1444.74 69.2733 1451.3 Q69.2733 1457.85 66.9643 1461.3 Q64.6726 1464.74 60.315 1464.74 Q55.9574 1464.74 53.6484 1461.3 Q51.3567 1457.85 51.3567 1451.3 Q51.3567 1444.74 53.6484 1441.3 Q55.9574 1437.85 60.315 1437.85 Z" fill="#000000" fill-rule="nonzero" fill-opacity="1" /><path clip-path="url(#clip270)" d="M75.4364 1459.83 L79.0996 1459.83 L79.0996 1464.24 L75.4364 1464.24 L75.4364 1459.83 Z" fill="#000000" fill-rule="nonzero" fill-opacity="1" /><path clip-path="url(#clip270)" d="M94.2384 1440.63 Q91.5301 1440.63 90.1586 1443.3 Q88.8044 1445.96 88.8044 1451.3 Q88.8044 1456.63 90.1586 1459.31 Q91.5301 1461.96 94.2384 1461.96 Q96.9641 1461.96 98.3183 1459.31 Q99.6898 1456.63 99.6898 1451.3 Q99.6898 1445.96 98.3183 1443.3 Q96.9641 1440.63 94.2384 1440.63 M94.2384 1437.85 Q98.596 1437.85 100.888 1441.3 Q103.197 1444.74 103.197 1451.3 Q103.197 1457.85 100.888 1461.3 Q98.596 1464.74 94.2384 1464.74 Q89.8808 1464.74 87.5718 1461.3 Q85.2801 1457.85 85.2801 1451.3 Q85.2801 1444.74 87.5718 1441.3 Q89.8808 1437.85 94.2384 1437.85 Z" fill="#000000" fill-rule="nonzero" fill-opacity="1" /><path clip-path="url(#clip270)" d="M116.86 1440.63 Q114.152 1440.63 112.78 1443.3 Q111.426 1445.96 111.426 1451.3 Q111.426 1456.63 112.78 1459.31 Q114.152 1461.96 116.86 1461.96 Q119.586 1461.96 120.94 1459.31 Q122.311 1456.63 122.311 1451.3 Q122.311 1445.96 120.94 1443.3 Q119.586 1440.63 116.86 1440.63 M116.86 1437.85 Q121.217 1437.85 123.509 1441.3 Q125.818 1444.74 125.818 1451.3 Q125.818 1457.85 123.509 1461.3 Q121.217 1464.74 116.86 1464.74 Q112.502 1464.74 110.193 1461.3 Q107.902 1457.85 107.902 1451.3 Q107.902 1444.74 110.193 1441.3 Q112.502 1437.85 116.86 1437.85 Z" fill="#000000" fill-rule="nonzero" fill-opacity="1" /><path clip-path="url(#clip270)" d="M61.2351 1319.92 Q58.5268 1319.92 57.1553 1322.59 Q55.8011 1325.25 55.8011 1330.6 Q55.8011 1335.93 57.1553 1338.6 Q58.5268 1341.26 61.2351 1341.26 Q63.9608 1341.26 65.315 1338.6 Q66.6865 1335.93 66.6865 1330.6 Q66.6865 1325.25 65.315 1322.59 Q63.9608 1319.92 61.2351 1319.92 M61.2351 1317.14 Q65.5927 1317.14 67.8844 1320.6 Q70.1934 1324.03 70.1934 1330.6 Q70.1934 1337.14 67.8844 1340.6 Q65.5927 1344.03 61.2351 1344.03 Q56.8775 1344.03 54.5685 1340.6 Q52.2768 1337.14 52.2768 1330.6 Q52.2768 1324.03 54.5685 1320.6 Q56.8775 1317.14 61.2351 1317.14 Z" fill="#000000" fill-rule="nonzero" fill-opacity="1" /><path clip-path="url(#clip270)" d="M76.3566 1339.12 L80.0197 1339.12 L80.0197 1343.53 L76.3566 1343.53 L76.3566 1339.12 Z" fill="#000000" fill-rule="nonzero" fill-opacity="1" /><path clip-path="url(#clip270)" d="M95.1586 1319.92 Q92.4502 1319.92 91.0787 1322.59 Q89.7246 1325.25 89.7246 1330.6 Q89.7246 1335.93 91.0787 1338.6 Q92.4502 1341.26 95.1586 1341.26 Q97.8842 1341.26 99.2384 1338.6 Q100.61 1335.93 100.61 1330.6 Q100.61 1325.25 99.2384 1322.59 Q97.8842 1319.92 95.1586 1319.92 M95.1586 1317.14 Q99.5162 1317.14 101.808 1320.6 Q104.117 1324.03 104.117 1330.6 Q104.117 1337.14 101.808 1340.6 Q99.5162 1344.03 95.1586 1344.03 Q90.8009 1344.03 88.4919 1340.6 Q86.2003 1337.14 86.2003 1330.6 Q86.2003 1324.03 88.4919 1320.6 Q90.8009 1317.14 95.1586 1317.14 Z" fill="#000000" fill-rule="nonzero" fill-opacity="1" /><path clip-path="url(#clip270)" d="M110.888 1340.58 L116.617 1340.58 L116.617 1320.8 L110.384 1322.05 L110.384 1318.86 L116.582 1317.61 L120.089 1317.61 L120.089 1340.58 L125.818 1340.58 L125.818 1343.53 L110.888 1343.53 L110.888 1340.58 Z" fill="#000000" fill-rule="nonzero" fill-opacity="1" /><path clip-path="url(#clip270)" d="M61.5129 1199.21 Q58.8046 1199.21 57.4331 1201.88 Q56.0789 1204.54 56.0789 1209.89 Q56.0789 1215.22 57.4331 1217.89 Q58.8046 1220.55 61.5129 1220.55 Q64.2386 1220.55 65.5927 1217.89 Q66.9643 1215.22 66.9643 1209.89 Q66.9643 1204.54 65.5927 1201.88 Q64.2386 1199.21 61.5129 1199.21 M61.5129 1196.43 Q65.8705 1196.43 68.1622 1199.89 Q70.4712 1203.32 70.4712 1209.89 Q70.4712 1216.43 68.1622 1219.89 Q65.8705 1223.32 61.5129 1223.32 Q57.1553 1223.32 54.8463 1219.89 Q52.5546 1216.43 52.5546 1209.89 Q52.5546 1203.32 54.8463 1199.89 Q57.1553 1196.43 61.5129 1196.43 Z" fill="#000000" fill-rule="nonzero" fill-opacity="1" /><path clip-path="url(#clip270)" d="M76.6343 1218.41 L80.2975 1218.41 L80.2975 1222.82 L76.6343 1222.82 L76.6343 1218.41 Z" fill="#000000" fill-rule="nonzero" fill-opacity="1" /><path clip-path="url(#clip270)" d="M95.4363 1199.21 Q92.728 1199.21 91.3565 1201.88 Q90.0023 1204.54 90.0023 1209.89 Q90.0023 1215.22 91.3565 1217.89 Q92.728 1220.55 95.4363 1220.55 Q98.162 1220.55 99.5162 1217.89 Q100.888 1215.22 100.888 1209.89 Q100.888 1204.54 99.5162 1201.88 Q98.162 1199.21 95.4363 1199.21 M95.4363 1196.43 Q99.7939 1196.43 102.086 1199.89 Q104.395 1203.32 104.395 1209.89 Q104.395 1216.43 102.086 1219.89 Q99.7939 1223.32 95.4363 1223.32 Q91.0787 1223.32 88.7697 1219.89 Q86.478 1216.43 86.478 1209.89 Q86.478 1203.32 88.7697 1199.89 Q91.0787 1196.43 95.4363 1196.43 Z" fill="#000000" fill-rule="nonzero" fill-opacity="1" /><path clip-path="url(#clip270)" d="M113.579 1219.87 L125.818 1219.87 L125.818 1222.82 L109.36 1222.82 L109.36 1219.87 Q111.356 1217.8 114.794 1214.33 Q118.249 1210.84 119.134 1209.83 Q120.818 1207.94 121.478 1206.64 Q122.155 1205.32 122.155 1204.05 Q122.155 1201.99 120.697 1200.69 Q119.256 1199.38 116.929 1199.38 Q115.28 1199.38 113.44 1199.96 Q111.617 1200.53 109.533 1201.69 L109.533 1198.15 Q111.652 1197.3 113.492 1196.87 Q115.332 1196.43 116.86 1196.43 Q120.888 1196.43 123.283 1198.45 Q125.679 1200.46 125.679 1203.83 Q125.679 1205.43 125.072 1206.87 Q124.481 1208.29 122.901 1210.23 Q122.467 1210.74 120.141 1213.15 Q117.815 1215.55 113.579 1219.87 Z" fill="#000000" fill-rule="nonzero" fill-opacity="1" /><path clip-path="url(#clip270)" d="M60.8011 1078.5 Q58.0928 1078.5 56.7213 1081.17 Q55.3671 1083.83 55.3671 1089.18 Q55.3671 1094.51 56.7213 1097.18 Q58.0928 1099.84 60.8011 1099.84 Q63.5268 1099.84 64.8809 1097.18 Q66.2525 1094.51 66.2525 1089.18 Q66.2525 1083.83 64.8809 1081.17 Q63.5268 1078.5 60.8011 1078.5 M60.8011 1075.72 Q65.1587 1075.72 67.4504 1079.18 Q69.7594 1082.62 69.7594 1089.18 Q69.7594 1095.72 67.4504 1099.18 Q65.1587 1102.62 60.8011 1102.62 Q56.4435 1102.62 54.1345 1099.18 Q51.8428 1095.72 51.8428 1089.18 Q51.8428 1082.62 54.1345 1079.18 Q56.4435 1075.72 60.8011 1075.72 Z" fill="#000000" fill-rule="nonzero" fill-opacity="1" /><path clip-path="url(#clip270)" d="M75.9225 1097.7 L79.5857 1097.7 L79.5857 1102.11 L75.9225 1102.11 L75.9225 1097.7 Z" fill="#000000" fill-rule="nonzero" fill-opacity="1" /><path clip-path="url(#clip270)" d="M94.7245 1078.5 Q92.0162 1078.5 90.6447 1081.17 Q89.2905 1083.83 89.2905 1089.18 Q89.2905 1094.51 90.6447 1097.18 Q92.0162 1099.84 94.7245 1099.84 Q97.4502 1099.84 98.8044 1097.18 Q100.176 1094.51 100.176 1089.18 Q100.176 1083.83 98.8044 1081.17 Q97.4502 1078.5 94.7245 1078.5 M94.7245 1075.72 Q99.0821 1075.72 101.374 1079.18 Q103.683 1082.62 103.683 1089.18 Q103.683 1095.72 101.374 1099.18 Q99.0821 1102.62 94.7245 1102.62 Q90.3669 1102.62 88.0579 1099.18 Q85.7662 1095.72 85.7662 1089.18 Q85.7662 1082.62 88.0579 1079.18 Q90.3669 1075.72 94.7245 1075.72 Z" fill="#000000" fill-rule="nonzero" fill-opacity="1" /><path clip-path="url(#clip270)" d="M120.471 1088.14 Q122.988 1088.67 124.395 1090.38 Q125.818 1092.08 125.818 1094.58 Q125.818 1098.41 123.179 1100.51 Q120.54 1102.62 115.679 1102.62 Q114.047 1102.62 112.311 1102.29 Q110.593 1101.97 108.752 1101.33 L108.752 1097.95 Q110.211 1098.8 111.947 1099.23 Q113.683 1099.66 115.575 1099.66 Q118.874 1099.66 120.592 1098.36 Q122.329 1097.06 122.329 1094.58 Q122.329 1092.29 120.714 1091 Q119.117 1089.7 116.252 1089.7 L113.231 1089.7 L113.231 1086.82 L116.391 1086.82 Q118.978 1086.82 120.349 1085.79 Q121.721 1084.75 121.721 1082.81 Q121.721 1080.81 120.297 1079.75 Q118.891 1078.67 116.252 1078.67 Q114.811 1078.67 113.162 1078.99 Q111.513 1079.3 109.533 1079.96 L109.533 1076.83 Q111.53 1076.28 113.266 1076 Q115.02 1075.72 116.565 1075.72 Q120.558 1075.72 122.884 1077.55 Q125.21 1079.35 125.21 1082.44 Q125.21 1084.59 123.978 1086.09 Q122.745 1087.56 120.471 1088.14 Z" fill="#000000" fill-rule="nonzero" fill-opacity="1" /><path clip-path="url(#clip270)" d="M59.9504 957.792 Q57.2421 957.792 55.8706 960.466 Q54.5164 963.122 54.5164 968.469 Q54.5164 973.799 55.8706 976.473 Q57.2421 979.129 59.9504 979.129 Q62.6761 979.129 64.0303 976.473 Q65.4018 973.799 65.4018 968.469 Q65.4018 963.122 64.0303 960.466 Q62.6761 957.792 59.9504 957.792 M59.9504 955.015 Q64.308 955.015 66.5997 958.469 Q68.9087 961.907 68.9087 968.469 Q68.9087 975.014 66.5997 978.469 Q64.308 981.907 59.9504 981.907 Q55.5928 981.907 53.2838 978.469 Q50.9921 975.014 50.9921 968.469 Q50.9921 961.907 53.2838 958.469 Q55.5928 955.015 59.9504 955.015 Z" fill="#000000" fill-rule="nonzero" fill-opacity="1" /><path clip-path="url(#clip270)" d="M75.0719 976.994 L78.735 976.994 L78.735 981.403 L75.0719 981.403 L75.0719 976.994 Z" fill="#000000" fill-rule="nonzero" fill-opacity="1" /><path clip-path="url(#clip270)" d="M93.8738 957.792 Q91.1655 957.792 89.794 960.466 Q88.4398 963.122 88.4398 968.469 Q88.4398 973.799 89.794 976.473 Q91.1655 979.129 93.8738 979.129 Q96.5995 979.129 97.9537 976.473 Q99.3252 973.799 99.3252 968.469 Q99.3252 963.122 97.9537 960.466 Q96.5995 957.792 93.8738 957.792 M93.8738 955.015 Q98.2315 955.015 100.523 958.469 Q102.832 961.907 102.832 968.469 Q102.832 975.014 100.523 978.469 Q98.2315 981.907 93.8738 981.907 Q89.5162 981.907 87.2072 978.469 Q84.9156 975.014 84.9156 968.469 Q84.9156 961.907 87.2072 958.469 Q89.5162 955.015 93.8738 955.015 Z" fill="#000000" fill-rule="nonzero" fill-opacity="1" /><path clip-path="url(#clip270)" d="M118.631 958.539 L109.777 972.376 L118.631 972.376 L118.631 958.539 M117.711 955.483 L122.12 955.483 L122.12 972.376 L125.818 972.376 L125.818 975.292 L122.12 975.292 L122.12 981.403 L118.631 981.403 L118.631 975.292 L106.929 975.292 L106.929 971.907 L117.711 955.483 Z" fill="#000000" fill-rule="nonzero" fill-opacity="1" /><path clip-path="url(#clip270)" d="M173.716 818.926 Q170.198 818.926 168.3 821.472 Q166.309 824.134 166.309 828.532 Q166.309 833.185 168.276 835.87 Q170.267 838.532 173.716 838.532 Q177.119 838.532 179.11 835.847 Q181.1 833.162 181.1 828.532 Q181.1 824.296 179.11 821.472 Q177.281 818.926 173.716 818.926 M173.716 815.546 L187.86 815.546 L187.86 819.805 L183.091 819.805 Q185.614 823.417 185.614 828.532 Q185.614 834.898 182.443 838.509 Q179.272 842.143 173.716 842.143 Q168.138 842.143 164.989 838.509 Q161.818 834.898 161.818 828.532 Q161.818 822.12 164.989 818.532 Q167.605 815.546 173.716 815.546 Z" fill="#000000" fill-rule="nonzero" fill-opacity="1" /><path clip-path="url(#clip270)" d="M198.878 841.472 L190.961 815.546 L195.545 815.546 L202.235 837.305 Q205.012 834.435 207.327 830.454 Q209.086 827.467 209.179 824.875 Q209.225 823.648 208.67 821.333 Q208.022 818.579 205.568 815.546 L209.873 815.546 L209.873 815.546 Q211.471 817.606 212.535 820.477 Q213.508 823.116 213.508 824.921 Q213.508 829.458 210.36 833.509 Q206.262 838.787 203.415 841.472 L198.878 841.472 Z" fill="#000000" fill-rule="nonzero" fill-opacity="1" /><polyline clip-path="url(#clip274)" style="stroke:#009af9; stroke-linecap:round; stroke-linejoin:round; stroke-width:4; stroke-opacity:1; fill:none" points="189.869,964.803 248.307,1022.82 306.746,1081.63 365.185,1141.24 423.623,1201.65 482.062,1262.86 540.501,1324.87 598.939,1387.67 657.378,1451.28 715.817,1386.87 774.256,1321.67 832.694,1255.67 891.133,1188.87 949.572,1121.27 1008.01,1052.87 1066.45,983.676 1124.89,913.68 "/>
<circle clip-path="url(#clip274)" cx="657.378" cy="1451.28" r="10.8" fill="#ff0000" fill-rule="evenodd" fill-opacity="1" stroke="#000000" stroke-opacity="1" stroke-width="3.2"/>
</svg>
