<?xml version="1.0" encoding="utf-8"?>
<svg xmlns="http://www.w3.org/2000/svg" xmlns:xlink="http://www.w3.org/1999/xlink" width="600" height="400" viewBox="0 0 2400 1600">
<defs>
  <clipPath id="clip480">
    <rect x="0" y="0" width="2400" height="1600"/>
  </clipPath>
</defs>
<path clip-path="url(#clip480)" d="M0 1600 L2400 1600 L2400 0 L0 0  Z" fill="#ffffff" fill-rule="evenodd" fill-opacity="1"/>
<defs>
  <clipPath id="clip481">
    <rect x="480" y="0" width="1681" height="1600"/>
  </clipPath>
</defs>
<path clip-path="url(#clip480)" d="M161.818 662.16 L1152.94 662.16 L1152.94 97.5521 L161.818 97.5521  Z" fill="#ffffff" fill-rule="evenodd" fill-opacity="1"/>
<defs>
  <clipPath id="clip482">
    <rect x="161" y="97" width="992" height="566"/>
  </clipPath>
</defs>
<polyline clip-path="url(#clip482)" style="stroke:#000000; stroke-linecap:round; stroke-linejoin:round; stroke-width:2; stroke-opacity:0.1; fill:none" points="182.638,662.16 182.638,97.5521 "/>
<polyline clip-path="url(#clip482)" style="stroke:#000000; stroke-linecap:round; stroke-linejoin:round; stroke-width:2; stroke-opacity:0.1; fill:none" points="445.16,662.16 445.16,97.5521 "/>
<polyline clip-path="url(#clip482)" style="stroke:#000000; stroke-linecap:round; stroke-linejoin:round; stroke-width:2; stroke-opacity:0.1; fill:none" points="707.682,662.16 707.682,97.5521 "/>
<polyline clip-path="url(#clip482)" style="stroke:#000000; stroke-linecap:round; stroke-linejoin:round; stroke-width:2; stroke-opacity:0.1; fill:none" points="970.204,662.16 970.204,97.5521 "/>
<polyline clip-path="url(#clip482)" style="stroke:#000000; stroke-linecap:round; stroke-linejoin:round; stroke-width:2; stroke-opacity:0.1; fill:none" points="161.818,646.181 1152.94,646.181 "/>
<polyline clip-path="url(#clip482)" style="stroke:#000000; stroke-linecap:round; stroke-linejoin:round; stroke-width:2; stroke-opacity:0.1; fill:none" points="161.818,521.899 1152.94,521.899 "/>
<polyline clip-path="url(#clip482)" style="stroke:#000000; stroke-linecap:round; stroke-linejoin:round; stroke-width:2; stroke-opacity:0.1; fill:none" points="161.818,397.617 1152.94,397.617 "/>
<polyline clip-path="url(#clip482)" style="stroke:#000000; stroke-linecap:round; stroke-linejoin:round; stroke-width:2; stroke-opacity:0.1; fill:none" points="161.818,273.335 1152.94,273.335 "/>
<polyline clip-path="url(#clip482)" style="stroke:#000000; stroke-linecap:round; stroke-linejoin:round; stroke-width:2; stroke-opacity:0.1; fill:none" points="161.818,149.053 1152.94,149.053 "/>
<polyline clip-path="url(#clip480)" style="stroke:#000000; stroke-linecap:round; stroke-linejoin:round; stroke-width:4; stroke-opacity:1; fill:none" points="161.818,662.16 1152.94,662.16 "/>
<polyline clip-path="url(#clip480)" style="stroke:#000000; stroke-linecap:round; stroke-linejoin:round; stroke-width:4; stroke-opacity:1; fill:none" points="182.638,662.16 182.638,643.263 "/>
<polyline clip-path="url(#clip480)" style="stroke:#000000; stroke-linecap:round; stroke-linejoin:round; stroke-width:4; stroke-opacity:1; fill:none" points="445.16,662.16 445.16,643.263 "/>
<polyline clip-path="url(#clip480)" style="stroke:#000000; stroke-linecap:round; stroke-linejoin:round; stroke-width:4; stroke-opacity:1; fill:none" points="707.682,662.16 707.682,643.263 "/>
<polyline clip-path="url(#clip480)" style="stroke:#000000; stroke-linecap:round; stroke-linejoin:round; stroke-width:4; stroke-opacity:1; fill:none" points="970.204,662.16 970.204,643.263 "/>
<path clip-path="url(#clip480)" d="M128.789 733.893 Q126.874 735.808 127.794 738.668 Q128.715 741.504 132.496 745.285 Q136.265 749.054 139.113 749.987 Q141.961 750.895 143.876 748.98 Q145.803 747.053 144.883 744.217 Q143.962 741.357 140.193 737.588 Q136.412 733.807 133.564 732.898 Q130.716 731.966 128.789 733.893 M126.825 731.929 Q129.906 728.847 133.969 729.67 Q138.033 730.468 142.673 735.108 Q147.301 739.736 148.111 743.812 Q148.922 747.863 145.84 750.944 Q142.759 754.026 138.696 753.228 Q134.632 752.405 130.004 747.777 Q125.364 743.137 124.554 739.086 Q123.743 735.01 126.825 731.929 Z" fill="#000000" fill-rule="nonzero" fill-opacity="1" /><path clip-path="url(#clip480)" d="M153.059 736.778 L155.649 734.187 L158.767 737.306 L156.177 739.896 L153.059 736.778 Z" fill="#000000" fill-rule="nonzero" fill-opacity="1" /><path clip-path="url(#clip480)" d="M160.768 717.897 Q159 719.665 158.927 721.629 Q158.865 723.581 160.523 725.238 Q162.18 726.895 164.132 726.834 Q166.096 726.76 167.864 724.993 Q169.631 723.225 169.705 721.261 Q169.766 719.284 168.121 717.639 Q166.464 715.982 164.5 716.056 Q162.548 716.117 160.768 717.897 M157.233 719.321 Q155.244 720.524 153.255 720.328 Q151.279 720.119 149.707 718.548 Q147.51 716.35 147.792 713.515 Q148.087 710.666 150.812 707.941 Q153.55 705.204 156.385 704.921 Q159.221 704.639 161.419 706.836 Q162.99 708.408 163.186 710.396 Q163.395 712.373 162.204 714.349 Q164.414 712.974 166.624 713.195 Q168.846 713.404 170.601 715.16 Q173.265 717.823 173.056 720.88 Q172.86 723.925 169.828 726.957 Q166.796 729.989 163.739 730.198 Q160.694 730.394 158.03 727.73 Q156.275 725.975 156.066 723.753 Q155.858 721.531 157.233 719.321 M152.408 716.313 Q153.832 717.738 155.514 717.652 Q157.208 717.553 158.816 715.945 Q160.412 714.349 160.51 712.655 Q160.621 710.949 159.197 709.525 Q157.773 708.101 156.066 708.211 Q154.372 708.309 152.776 709.905 Q151.168 711.514 151.07 713.208 Q150.984 714.889 152.408 716.313 Z" fill="#000000" fill-rule="nonzero" fill-opacity="1" /><path clip-path="url(#clip480)" d="M168.772 693.91 Q166.857 695.825 167.778 698.685 Q168.698 701.521 172.479 705.302 Q176.248 709.071 179.096 710.004 Q181.944 710.912 183.859 708.997 Q185.787 707.07 184.866 704.234 Q183.945 701.373 180.177 697.605 Q176.396 693.824 173.547 692.915 Q170.699 691.982 168.772 693.91 M166.808 691.945 Q169.889 688.864 173.953 689.687 Q178.016 690.485 182.656 695.125 Q187.284 699.753 188.095 703.829 Q188.905 707.88 185.824 710.961 Q182.742 714.042 178.679 713.244 Q174.615 712.422 169.987 707.794 Q165.347 703.154 164.537 699.102 Q163.727 695.027 166.808 691.945 Z" fill="#000000" fill-rule="nonzero" fill-opacity="1" /><path clip-path="url(#clip480)" d="M391.839 733.365 Q389.924 735.28 390.844 738.14 Q391.765 740.976 395.546 744.757 Q399.315 748.526 402.163 749.459 Q405.011 750.367 406.926 748.452 Q408.854 746.525 407.933 743.689 Q407.012 740.829 403.243 737.06 Q399.462 733.279 396.614 732.371 Q393.766 731.438 391.839 733.365 M389.875 731.401 Q392.956 728.32 397.019 729.142 Q401.083 729.94 405.723 734.58 Q410.351 739.208 411.161 743.284 Q411.972 747.335 408.89 750.416 Q405.809 753.498 401.746 752.7 Q397.682 751.877 393.054 747.249 Q388.414 742.609 387.604 738.558 Q386.793 734.482 389.875 731.401 Z" fill="#000000" fill-rule="nonzero" fill-opacity="1" /><path clip-path="url(#clip480)" d="M416.109 736.25 L418.699 733.66 L421.817 736.778 L419.227 739.368 L416.109 736.25 Z" fill="#000000" fill-rule="nonzero" fill-opacity="1" /><path clip-path="url(#clip480)" d="M423.818 717.369 Q422.05 719.137 421.977 721.101 Q421.915 723.053 423.573 724.71 Q425.23 726.368 427.182 726.306 Q429.146 726.233 430.914 724.465 Q432.681 722.697 432.755 720.733 Q432.816 718.756 431.171 717.111 Q429.514 715.454 427.55 715.528 Q425.598 715.589 423.818 717.369 M420.283 718.793 Q418.294 719.996 416.305 719.8 Q414.329 719.591 412.757 718.02 Q410.56 715.822 410.842 712.987 Q411.137 710.139 413.862 707.413 Q416.6 704.676 419.436 704.393 Q422.271 704.111 424.469 706.308 Q426.04 707.88 426.236 709.869 Q426.445 711.845 425.254 713.821 Q427.464 712.447 429.674 712.667 Q431.896 712.876 433.651 714.632 Q436.315 717.296 436.106 720.352 Q435.91 723.397 432.878 726.429 Q429.846 729.461 426.789 729.67 Q423.744 729.866 421.08 727.202 Q419.325 725.447 419.116 723.225 Q418.908 721.003 420.283 718.793 M415.458 715.786 Q416.882 717.21 418.564 717.124 Q420.258 717.025 421.866 715.417 Q423.462 713.821 423.56 712.127 Q423.671 710.421 422.247 708.997 Q420.823 707.573 419.116 707.683 Q417.422 707.782 415.826 709.377 Q414.218 710.986 414.12 712.68 Q414.034 714.362 415.458 715.786 Z" fill="#000000" fill-rule="nonzero" fill-opacity="1" /><path clip-path="url(#clip480)" d="M424.911 697.028 L434.646 687.293 L436.733 689.38 L429.269 696.844 L433.762 701.337 Q434.118 700.612 434.572 699.986 Q435.014 699.348 435.554 698.808 Q438.623 695.739 442.097 695.628 Q445.571 695.518 448.444 698.39 Q451.402 701.349 451.206 704.835 Q450.997 708.309 447.646 711.661 Q446.492 712.815 445.093 713.821 Q443.705 714.816 442.036 715.7 L439.544 713.208 Q441.25 712.704 442.723 711.82 Q444.196 710.937 445.51 709.623 Q447.634 707.499 447.756 705.142 Q447.879 702.785 445.964 700.87 Q444.049 698.955 441.692 699.078 Q439.335 699.201 437.211 701.324 Q436.217 702.319 435.444 703.534 Q434.682 704.737 434.118 706.235 L424.911 697.028 Z" fill="#000000" fill-rule="nonzero" fill-opacity="1" /><path clip-path="url(#clip480)" d="M653.833 733.893 Q651.918 735.808 652.839 738.668 Q653.759 741.504 657.541 745.285 Q661.309 749.054 664.157 749.987 Q667.005 750.895 668.92 748.98 Q670.848 747.053 669.927 744.217 Q669.006 741.357 665.238 737.588 Q661.457 733.807 658.609 732.898 Q655.76 731.966 653.833 733.893 M651.869 731.929 Q654.95 728.847 659.014 729.67 Q663.077 730.468 667.717 735.108 Q672.345 739.736 673.156 743.812 Q673.966 747.863 670.885 750.944 Q667.803 754.026 663.74 753.228 Q659.677 752.405 655.048 747.777 Q650.408 743.137 649.598 739.086 Q648.788 735.01 651.869 731.929 Z" fill="#000000" fill-rule="nonzero" fill-opacity="1" /><path clip-path="url(#clip480)" d="M678.103 736.778 L680.693 734.187 L683.811 737.306 L681.221 739.896 L678.103 736.778 Z" fill="#000000" fill-rule="nonzero" fill-opacity="1" /><path clip-path="url(#clip480)" d="M688.906 731.45 L686.647 729.191 Q688.022 728.7 689.213 727.976 Q690.404 727.251 691.324 726.331 Q693.78 723.876 693.424 720.942 Q693.068 717.983 689.888 714.435 Q690.232 716.203 689.704 717.86 Q689.176 719.518 687.85 720.843 Q685.1 723.593 681.835 723.544 Q678.569 723.47 675.685 720.586 Q672.861 717.762 672.824 714.386 Q672.787 711.01 675.562 708.236 Q678.741 705.056 682.854 705.83 Q686.966 706.579 691.607 711.219 Q695.94 715.552 696.468 720.205 Q696.996 724.833 693.522 728.307 Q692.589 729.24 691.447 730.014 Q690.305 730.787 688.906 731.45 M686.07 718.744 Q687.74 717.075 687.568 714.963 Q687.408 712.839 685.42 710.851 Q683.443 708.874 681.319 708.715 Q679.196 708.53 677.526 710.2 Q675.856 711.87 676.028 714.006 Q676.2 716.117 678.177 718.094 Q680.165 720.082 682.277 720.254 Q684.401 720.414 686.07 718.744 Z" fill="#000000" fill-rule="nonzero" fill-opacity="1" /><path clip-path="url(#clip480)" d="M693.816 693.91 Q691.901 695.825 692.822 698.685 Q693.743 701.521 697.524 705.302 Q701.293 709.071 704.141 710.004 Q706.989 710.912 708.904 708.997 Q710.831 707.07 709.91 704.234 Q708.99 701.373 705.221 697.605 Q701.44 693.824 698.592 692.915 Q695.744 691.982 693.816 693.91 M691.852 691.945 Q694.933 688.864 698.997 689.687 Q703.06 690.485 707.701 695.125 Q712.329 699.753 713.139 703.829 Q713.949 707.88 710.868 710.961 Q707.787 714.042 703.723 713.244 Q699.66 712.422 695.032 707.794 Q690.391 703.154 689.581 699.102 Q688.771 695.027 691.852 691.945 Z" fill="#000000" fill-rule="nonzero" fill-opacity="1" /><path clip-path="url(#clip480)" d="M916.883 733.365 Q914.968 735.28 915.889 738.14 Q916.809 740.976 920.591 744.757 Q924.359 748.526 927.207 749.459 Q930.055 750.367 931.97 748.452 Q933.898 746.525 932.977 743.689 Q932.056 740.829 928.288 737.06 Q924.507 733.279 921.659 732.371 Q918.811 731.438 916.883 733.365 M914.919 731.401 Q918 728.32 922.064 729.142 Q926.127 729.94 930.767 734.58 Q935.396 739.208 936.206 743.284 Q937.016 747.335 933.935 750.416 Q930.853 753.498 926.79 752.7 Q922.727 751.877 918.098 747.249 Q913.458 742.609 912.648 738.558 Q911.838 734.482 914.919 731.401 Z" fill="#000000" fill-rule="nonzero" fill-opacity="1" /><path clip-path="url(#clip480)" d="M941.153 736.25 L943.743 733.66 L946.861 736.778 L944.271 739.368 L941.153 736.25 Z" fill="#000000" fill-rule="nonzero" fill-opacity="1" /><path clip-path="url(#clip480)" d="M951.956 730.922 L949.697 728.663 Q951.072 728.172 952.263 727.448 Q953.454 726.724 954.374 725.803 Q956.83 723.348 956.474 720.414 Q956.118 717.455 952.938 713.907 Q953.282 715.675 952.754 717.332 Q952.226 718.99 950.9 720.315 Q948.15 723.065 944.885 723.016 Q941.619 722.943 938.735 720.058 Q935.911 717.234 935.874 713.858 Q935.837 710.482 938.612 707.708 Q941.791 704.528 945.904 705.302 Q950.016 706.051 954.657 710.691 Q958.99 715.024 959.518 719.677 Q960.046 724.305 956.572 727.779 Q955.639 728.712 954.497 729.486 Q953.355 730.259 951.956 730.922 M949.12 718.216 Q950.79 716.547 950.618 714.435 Q950.458 712.311 948.47 710.323 Q946.493 708.346 944.369 708.187 Q942.246 708.003 940.576 709.672 Q938.906 711.342 939.078 713.478 Q939.25 715.589 941.227 717.566 Q943.215 719.554 945.327 719.726 Q947.451 719.886 949.12 718.216 Z" fill="#000000" fill-rule="nonzero" fill-opacity="1" /><path clip-path="url(#clip480)" d="M949.955 697.028 L959.69 687.293 L961.777 689.38 L954.313 696.844 L958.806 701.337 Q959.162 700.612 959.616 699.986 Q960.058 699.348 960.598 698.808 Q963.667 695.739 967.141 695.628 Q970.616 695.518 973.488 698.39 Q976.447 701.349 976.25 704.835 Q976.042 708.309 972.69 711.661 Q971.536 712.815 970.137 713.821 Q968.75 714.816 967.08 715.7 L964.588 713.208 Q966.294 712.704 967.768 711.82 Q969.241 710.937 970.554 709.623 Q972.678 707.499 972.801 705.142 Q972.924 702.785 971.008 700.87 Q969.093 698.955 966.736 699.078 Q964.379 699.201 962.256 701.324 Q961.261 702.319 960.488 703.534 Q959.727 704.737 959.162 706.235 L949.955 697.028 Z" fill="#000000" fill-rule="nonzero" fill-opacity="1" /><polyline clip-path="url(#clip480)" style="stroke:#000000; stroke-linecap:round; stroke-linejoin:round; stroke-width:4; stroke-opacity:1; fill:none" points="161.818,662.16 161.818,97.5521 "/>
<polyline clip-path="url(#clip480)" style="stroke:#000000; stroke-linecap:round; stroke-linejoin:round; stroke-width:4; stroke-opacity:1; fill:none" points="161.818,646.181 180.716,646.181 "/>
<polyline clip-path="url(#clip480)" style="stroke:#000000; stroke-linecap:round; stroke-linejoin:round; stroke-width:4; stroke-opacity:1; fill:none" points="161.818,521.899 180.716,521.899 "/>
<polyline clip-path="url(#clip480)" style="stroke:#000000; stroke-linecap:round; stroke-linejoin:round; stroke-width:4; stroke-opacity:1; fill:none" points="161.818,397.617 180.716,397.617 "/>
<polyline clip-path="url(#clip480)" style="stroke:#000000; stroke-linecap:round; stroke-linejoin:round; stroke-width:4; stroke-opacity:1; fill:none" points="161.818,273.335 180.716,273.335 "/>
<polyline clip-path="url(#clip480)" style="stroke:#000000; stroke-linecap:round; stroke-linejoin:round; stroke-width:4; stroke-opacity:1; fill:none" points="161.818,149.053 180.716,149.053 "/>
<path clip-path="url(#clip480)" d="M116.86 635.53 Q114.152 635.53 112.78 638.204 Q111.426 640.86 111.426 646.207 Q111.426 651.537 112.78 654.21 Q114.152 656.867 116.86 656.867 Q119.586 656.867 120.94 654.21 Q122.311 651.537 122.311 646.207 Q122.311 640.86 120.94 638.204 Q119.586 635.53 116.86 635.53 M116.86 632.752 Q121.217 632.752 123.509 636.207 Q125.818 639.644 125.818 646.207 Q125.818 652.752 123.509 656.207 Q121.217 659.644 116.86 659.644 Q112.502 659.644 110.193 656.207 Q107.902 652.752 107.902 646.207 Q107.902 639.644 110.193 636.207 Q112.502 632.752 116.86 632.752 Z" fill="#000000" fill-rule="nonzero" fill-opacity="1" /><path clip-path="url(#clip480)" d="M110.888 531.907 L116.617 531.907 L116.617 512.133 L110.384 513.383 L110.384 510.189 L116.582 508.939 L120.089 508.939 L120.089 531.907 L125.818 531.907 L125.818 534.859 L110.888 534.859 L110.888 531.907 Z" fill="#000000" fill-rule="nonzero" fill-opacity="1" /><path clip-path="url(#clip480)" d="M113.579 407.625 L125.818 407.625 L125.818 410.577 L109.36 410.577 L109.36 407.625 Q111.356 405.56 114.794 402.087 Q118.249 398.598 119.134 397.591 Q120.818 395.698 121.478 394.396 Q122.155 393.077 122.155 391.81 Q122.155 389.744 120.697 388.442 Q119.256 387.139 116.929 387.139 Q115.28 387.139 113.44 387.712 Q111.617 388.285 109.533 389.448 L109.533 385.907 Q111.652 385.056 113.492 384.622 Q115.332 384.188 116.86 384.188 Q120.888 384.188 123.283 386.202 Q125.679 388.216 125.679 391.584 Q125.679 393.181 125.072 394.622 Q124.481 396.046 122.901 397.99 Q122.467 398.494 120.141 400.907 Q117.815 403.303 113.579 407.625 Z" fill="#000000" fill-rule="nonzero" fill-opacity="1" /><path clip-path="url(#clip480)" d="M120.471 272.319 Q122.988 272.857 124.395 274.559 Q125.818 276.26 125.818 278.76 Q125.818 282.597 123.179 284.698 Q120.54 286.798 115.679 286.798 Q114.047 286.798 112.311 286.468 Q110.593 286.156 108.752 285.514 L108.752 282.128 Q110.211 282.979 111.947 283.413 Q113.683 283.847 115.575 283.847 Q118.874 283.847 120.592 282.545 Q122.329 281.243 122.329 278.76 Q122.329 276.468 120.714 275.184 Q119.117 273.882 116.252 273.882 L113.231 273.882 L113.231 271 L116.391 271 Q118.978 271 120.349 269.975 Q121.721 268.934 121.721 266.989 Q121.721 264.993 120.297 263.934 Q118.891 262.857 116.252 262.857 Q114.811 262.857 113.162 263.17 Q111.513 263.482 109.533 264.142 L109.533 261.017 Q111.53 260.462 113.266 260.184 Q115.02 259.906 116.565 259.906 Q120.558 259.906 122.884 261.729 Q125.21 263.535 125.21 266.625 Q125.21 268.778 123.978 270.271 Q122.745 271.746 120.471 272.319 Z" fill="#000000" fill-rule="nonzero" fill-opacity="1" /><path clip-path="url(#clip480)" d="M118.631 139.148 L109.777 152.985 L118.631 152.985 L118.631 139.148 M117.711 136.093 L122.12 136.093 L122.12 152.985 L125.818 152.985 L125.818 155.902 L122.12 155.902 L122.12 162.013 L118.631 162.013 L118.631 155.902 L106.929 155.902 L106.929 152.516 L117.711 136.093 Z" fill="#000000" fill-rule="nonzero" fill-opacity="1" /><path clip-path="url(#clip480)" d="M163.901 20.1758 Q165.313 17.8147 168.809 15.7314 Q170.175 14.9212 174.387 14.9212 Q179.11 14.9212 182.049 18.6712 Q185.012 22.4212 185.012 28.5323 Q185.012 34.6433 182.049 38.3933 Q179.11 42.1433 174.387 42.1433 Q171.54 42.1433 169.48 41.0322 Q167.443 39.8979 166.1 37.5831 L166.1 51.3331 L161.818 51.3331 L161.818 28.7637 Q161.818 23.4165 163.901 20.1758 M180.591 28.5323 Q180.591 23.8332 178.647 21.1712 Q176.725 18.486 173.346 18.486 Q169.966 18.486 168.022 21.1712 Q166.1 23.8332 166.1 28.5323 Q166.1 33.2313 168.022 35.9165 Q169.966 38.5785 173.346 38.5785 Q176.725 38.5785 178.647 35.9165 Q180.591 33.2313 180.591 28.5323 Z" fill="#000000" fill-rule="nonzero" fill-opacity="1" /><polyline clip-path="url(#clip482)" style="stroke:#009af9; stroke-linecap:round; stroke-linejoin:round; stroke-width:4; stroke-opacity:1; fill:none" points="189.869,591.432 248.307,595.428 306.746,599.929 365.185,605.038 423.623,610.887 482.062,617.647 540.501,625.551 598.939,634.913 657.378,646.181 715.817,632.361 774.256,615.009 832.694,592.572 891.133,562.423 949.572,519.755 1008.01,454.727 1066.45,343.676 1124.89,113.532 "/>
<circle clip-path="url(#clip482)" cx="657.378" cy="646.181" r="10.8" fill="#ff0000" fill-rule="evenodd" fill-opacity="1" stroke="#000000" stroke-opacity="1" stroke-width="3.2"/>
<path clip-path="url(#clip480)" d="M1361.64 662.16 L2352.76 662.16 L2352.76 97.5521 L1361.64 97.5521  Z" fill="#ffffff" fill-rule="evenodd" fill-opacity="1"/>
<defs>
  <clipPath id="clip483">
    <rect x="1361" y="97" width="992" height="566"/>
  </clipPath>
</defs>
<polyline clip-path="url(#clip483)" style="stroke:#000000; stroke-linecap:round; stroke-linejoin:round; stroke-width:2; stroke-opacity:0.1; fill:none" points="1376.56,662.16 1376.56,97.5521 "/>
<polyline clip-path="url(#clip483)" style="stroke:#000000; stroke-linecap:round; stroke-linejoin:round; stroke-width:2; stroke-opacity:0.1; fill:none" points="1521.2,662.16 1521.2,97.5521 "/>
<polyline clip-path="url(#clip483)" style="stroke:#000000; stroke-linecap:round; stroke-linejoin:round; stroke-width:2; stroke-opacity:0.1; fill:none" points="1665.83,662.16 1665.83,97.5521 "/>
<polyline clip-path="url(#clip483)" style="stroke:#000000; stroke-linecap:round; stroke-linejoin:round; stroke-width:2; stroke-opacity:0.1; fill:none" points="1810.47,662.16 1810.47,97.5521 "/>
<polyline clip-path="url(#clip483)" style="stroke:#000000; stroke-linecap:round; stroke-linejoin:round; stroke-width:2; stroke-opacity:0.1; fill:none" points="1955.11,662.16 1955.11,97.5521 "/>
<polyline clip-path="url(#clip483)" style="stroke:#000000; stroke-linecap:round; stroke-linejoin:round; stroke-width:2; stroke-opacity:0.1; fill:none" points="2099.74,662.16 2099.74,97.5521 "/>
<polyline clip-path="url(#clip483)" style="stroke:#000000; stroke-linecap:round; stroke-linejoin:round; stroke-width:2; stroke-opacity:0.1; fill:none" points="2244.38,662.16 2244.38,97.5521 "/>
<polyline clip-path="url(#clip483)" style="stroke:#000000; stroke-linecap:round; stroke-linejoin:round; stroke-width:2; stroke-opacity:0.1; fill:none" points="1361.64,646.181 2352.76,646.181 "/>
<polyline clip-path="url(#clip483)" style="stroke:#000000; stroke-linecap:round; stroke-linejoin:round; stroke-width:2; stroke-opacity:0.1; fill:none" points="1361.64,504.348 2352.76,504.348 "/>
<polyline clip-path="url(#clip483)" style="stroke:#000000; stroke-linecap:round; stroke-linejoin:round; stroke-width:2; stroke-opacity:0.1; fill:none" points="1361.64,362.514 2352.76,362.514 "/>
<polyline clip-path="url(#clip483)" style="stroke:#000000; stroke-linecap:round; stroke-linejoin:round; stroke-width:2; stroke-opacity:0.1; fill:none" points="1361.64,220.681 2352.76,220.681 "/>
<polyline clip-path="url(#clip480)" style="stroke:#000000; stroke-linecap:round; stroke-linejoin:round; stroke-width:4; stroke-opacity:1; fill:none" points="1361.64,662.16 2352.76,662.16 "/>
<polyline clip-path="url(#clip480)" style="stroke:#000000; stroke-linecap:round; stroke-linejoin:round; stroke-width:4; stroke-opacity:1; fill:none" points="1376.56,662.16 1376.56,643.263 "/>
<polyline clip-path="url(#clip480)" style="stroke:#000000; stroke-linecap:round; stroke-linejoin:round; stroke-width:4; stroke-opacity:1; fill:none" points="1521.2,662.16 1521.2,643.263 "/>
<polyline clip-path="url(#clip480)" style="stroke:#000000; stroke-linecap:round; stroke-linejoin:round; stroke-width:4; stroke-opacity:1; fill:none" points="1665.83,662.16 1665.83,643.263 "/>
<polyline clip-path="url(#clip480)" style="stroke:#000000; stroke-linecap:round; stroke-linejoin:round; stroke-width:4; stroke-opacity:1; fill:none" points="1810.47,662.16 1810.47,643.263 "/>
<polyline clip-path="url(#clip480)" style="stroke:#000000; stroke-linecap:round; stroke-linejoin:round; stroke-width:4; stroke-opacity:1; fill:none" points="1955.11,662.16 1955.11,643.263 "/>
<polyline clip-path="url(#clip480)" style="stroke:#000000; stroke-linecap:round; stroke-linejoin:round; stroke-width:4; stroke-opacity:1; fill:none" points="2099.74,662.16 2099.74,643.263 "/>
<polyline clip-path="url(#clip480)" style="stroke:#000000; stroke-linecap:round; stroke-linejoin:round; stroke-width:4; stroke-opacity:1; fill:none" points="2244.38,662.16 2244.38,643.263 "/>
<path clip-path="url(#clip480)" d="M1322.81 733.795 Q1320.89 735.71 1321.81 738.57 Q1322.74 741.406 1326.52 745.187 Q1330.29 748.956 1333.13 749.889 Q1335.98 750.797 1337.9 748.882 Q1339.82 746.955 1338.9 744.119 Q1337.98 741.259 1334.21 737.49 Q1330.43 733.709 1327.58 732.8 Q1324.74 731.867 1322.81 733.795 M1320.85 731.83 Q1323.93 728.749 1327.99 729.572 Q1332.05 730.37 1336.69 735.01 Q1341.32 739.638 1342.13 743.714 Q1342.94 747.765 1339.86 750.846 Q1336.78 753.927 1332.72 753.129 Q1328.65 752.307 1324.02 747.679 Q1319.38 743.039 1318.57 738.987 Q1317.76 734.912 1320.85 731.83 Z" fill="#000000" fill-rule="nonzero" fill-opacity="1" /><path clip-path="url(#clip480)" d="M1347.08 736.68 L1349.67 734.089 L1352.79 737.207 L1350.2 739.798 L1347.08 736.68 Z" fill="#000000" fill-rule="nonzero" fill-opacity="1" /><path clip-path="url(#clip480)" d="M1358.24 727.583 L1366.89 718.928 L1368.98 721.015 L1357.34 732.653 L1355.25 730.566 Q1355.21 727.693 1355.18 722.808 Q1355.16 717.897 1355.07 716.559 Q1354.92 714.03 1354.47 712.643 Q1354.02 711.231 1353.12 710.335 Q1351.66 708.874 1349.71 708.985 Q1347.77 709.083 1346.12 710.728 Q1344.96 711.894 1344.06 713.6 Q1343.18 715.295 1342.52 717.59 L1340.02 715.086 Q1340.92 712.987 1341.91 711.378 Q1342.91 709.77 1343.99 708.69 Q1346.83 705.842 1349.95 705.572 Q1353.07 705.302 1355.45 707.683 Q1356.58 708.813 1357.17 710.261 Q1357.76 711.685 1358.02 714.177 Q1358.07 714.84 1358.13 718.192 Q1358.18 721.531 1358.24 727.583 Z" fill="#000000" fill-rule="nonzero" fill-opacity="1" /><path clip-path="url(#clip480)" d="M1373.88 715.356 L1371.62 713.097 Q1372.99 712.606 1374.18 711.882 Q1375.38 711.158 1376.3 710.237 Q1378.75 707.782 1378.4 704.848 Q1378.04 701.889 1374.86 698.341 Q1375.2 700.109 1374.68 701.766 Q1374.15 703.424 1372.82 704.749 Q1370.07 707.499 1366.81 707.45 Q1363.54 707.376 1360.66 704.492 Q1357.83 701.668 1357.8 698.292 Q1357.76 694.916 1360.53 692.142 Q1363.71 688.962 1367.83 689.736 Q1371.94 690.485 1376.58 695.125 Q1380.91 699.458 1381.44 704.111 Q1381.97 708.739 1378.49 712.213 Q1377.56 713.146 1376.42 713.92 Q1375.28 714.693 1373.88 715.356 M1371.04 702.65 Q1372.71 700.981 1372.54 698.869 Q1372.38 696.745 1370.39 694.757 Q1368.41 692.78 1366.29 692.621 Q1364.17 692.436 1362.5 694.106 Q1360.83 695.776 1361 697.912 Q1361.17 700.023 1363.15 702 Q1365.14 703.988 1367.25 704.16 Q1369.37 704.32 1371.04 702.65 Z" fill="#000000" fill-rule="nonzero" fill-opacity="1" /><path clip-path="url(#clip480)" d="M1467.35 733.893 Q1465.43 735.808 1466.35 738.668 Q1467.27 741.504 1471.05 745.285 Q1474.82 749.054 1477.67 749.987 Q1480.52 750.895 1482.43 748.98 Q1484.36 747.053 1483.44 744.217 Q1482.52 741.357 1478.75 737.588 Q1474.97 733.807 1472.12 732.898 Q1469.27 731.966 1467.35 733.893 M1465.38 731.929 Q1468.46 728.847 1472.53 729.67 Q1476.59 730.468 1481.23 735.108 Q1485.86 739.736 1486.67 743.812 Q1487.48 747.863 1484.4 750.944 Q1481.32 754.026 1477.25 753.228 Q1473.19 752.405 1468.56 747.777 Q1463.92 743.137 1463.11 739.086 Q1462.3 735.01 1465.38 731.929 Z" fill="#000000" fill-rule="nonzero" fill-opacity="1" /><path clip-path="url(#clip480)" d="M1491.62 736.778 L1494.21 734.187 L1497.33 737.306 L1494.74 739.896 L1491.62 736.778 Z" fill="#000000" fill-rule="nonzero" fill-opacity="1" /><path clip-path="url(#clip480)" d="M1500.36 714.509 Q1502.52 713.109 1504.72 713.318 Q1506.93 713.515 1508.69 715.282 Q1511.41 717.995 1511.03 721.347 Q1510.65 724.698 1507.21 728.135 Q1506.05 729.289 1504.59 730.284 Q1503.16 731.278 1501.4 732.125 L1499.01 729.731 Q1500.64 729.302 1502.17 728.381 Q1503.71 727.46 1505.05 726.122 Q1507.38 723.79 1507.67 721.654 Q1507.98 719.505 1506.23 717.75 Q1504.61 716.129 1502.56 716.363 Q1500.51 716.571 1498.48 718.597 L1496.34 720.733 L1494.31 718.695 L1496.54 716.461 Q1498.37 714.632 1498.61 712.938 Q1498.85 711.231 1497.47 709.856 Q1496.06 708.445 1494.31 708.702 Q1492.55 708.936 1490.68 710.802 Q1489.67 711.82 1488.72 713.208 Q1487.77 714.595 1486.84 716.461 L1484.63 714.251 Q1485.65 712.447 1486.68 711.022 Q1487.73 709.586 1488.82 708.494 Q1491.64 705.67 1494.58 705.314 Q1497.5 704.946 1499.68 707.131 Q1501.2 708.653 1501.39 710.581 Q1501.56 712.496 1500.36 714.509 Z" fill="#000000" fill-rule="nonzero" fill-opacity="1" /><path clip-path="url(#clip480)" d="M1507.33 693.91 Q1505.42 695.825 1506.34 698.685 Q1507.26 701.521 1511.04 705.302 Q1514.81 709.071 1517.65 710.004 Q1520.5 710.912 1522.42 708.997 Q1524.35 707.07 1523.42 704.234 Q1522.5 701.373 1518.74 697.605 Q1514.95 693.824 1512.11 692.915 Q1509.26 691.982 1507.33 693.91 M1505.37 691.945 Q1508.45 688.864 1512.51 689.687 Q1516.57 690.485 1521.22 695.125 Q1525.84 699.753 1526.65 703.829 Q1527.46 707.88 1524.38 710.961 Q1521.3 714.042 1517.24 713.244 Q1513.17 712.422 1508.55 707.794 Q1503.91 703.154 1503.1 699.102 Q1502.29 695.027 1505.37 691.945 Z" fill="#000000" fill-rule="nonzero" fill-opacity="1" /><path clip-path="url(#clip480)" d="M1612.63 733.242 Q1610.72 735.157 1611.64 738.018 Q1612.56 740.853 1616.34 744.634 Q1620.11 748.403 1622.96 749.336 Q1625.81 750.245 1627.72 748.33 Q1629.65 746.402 1628.73 743.566 Q1627.81 740.706 1624.04 736.937 Q1620.26 733.156 1617.41 732.248 Q1614.56 731.315 1612.63 733.242 M1610.67 731.278 Q1613.75 728.197 1617.82 729.019 Q1621.88 729.817 1626.52 734.458 Q1631.15 739.086 1631.96 743.161 Q1632.77 747.212 1629.69 750.294 Q1626.6 753.375 1622.54 752.577 Q1618.48 751.755 1613.85 747.126 Q1609.21 742.486 1608.4 738.435 Q1607.59 734.359 1610.67 731.278 Z" fill="#000000" fill-rule="nonzero" fill-opacity="1" /><path clip-path="url(#clip480)" d="M1636.9 736.127 L1639.49 733.537 L1642.61 736.655 L1640.02 739.245 L1636.9 736.127 Z" fill="#000000" fill-rule="nonzero" fill-opacity="1" /><path clip-path="url(#clip480)" d="M1645.65 713.858 Q1647.81 712.459 1650 712.667 Q1652.21 712.864 1653.98 714.632 Q1656.69 717.345 1656.31 720.696 Q1655.93 724.047 1652.5 727.485 Q1651.34 728.639 1649.88 729.633 Q1648.44 730.627 1646.69 731.474 L1644.29 729.081 Q1645.93 728.651 1647.46 727.73 Q1649 726.81 1650.33 725.471 Q1652.67 723.139 1652.96 721.003 Q1653.27 718.855 1651.51 717.099 Q1649.89 715.479 1647.84 715.712 Q1645.79 715.921 1643.77 717.946 L1641.63 720.082 L1639.59 718.044 L1641.83 715.81 Q1643.66 713.981 1643.9 712.287 Q1644.14 710.581 1642.76 709.206 Q1641.35 707.794 1639.59 708.052 Q1637.84 708.285 1635.97 710.151 Q1634.95 711.17 1634.01 712.557 Q1633.06 713.944 1632.13 715.81 L1629.92 713.6 Q1630.94 711.796 1631.97 710.372 Q1633.01 708.936 1634.11 707.843 Q1636.93 705.019 1639.86 704.663 Q1642.78 704.295 1644.97 706.48 Q1646.49 708.003 1646.68 709.93 Q1646.85 711.845 1645.65 713.858 Z" fill="#000000" fill-rule="nonzero" fill-opacity="1" /><path clip-path="url(#clip480)" d="M1662.35 712.741 L1666.4 708.69 L1652.42 694.708 L1648.9 699.999 L1646.64 697.74 L1650.14 692.473 L1652.62 689.994 L1668.86 706.235 L1672.91 702.184 L1675 704.271 L1664.44 714.828 L1662.35 712.741 Z" fill="#000000" fill-rule="nonzero" fill-opacity="1" /><path clip-path="url(#clip480)" d="M1757.47 733.046 Q1755.55 734.961 1756.47 737.821 Q1757.39 740.657 1761.17 744.438 Q1764.94 748.207 1767.79 749.14 Q1770.64 750.048 1772.55 748.133 Q1774.48 746.206 1773.56 743.37 Q1772.64 740.51 1768.87 736.741 Q1765.09 732.96 1762.24 732.051 Q1759.39 731.118 1757.47 733.046 M1755.5 731.082 Q1758.58 728 1762.65 728.823 Q1766.71 729.621 1771.35 734.261 Q1775.98 738.889 1776.79 742.965 Q1777.6 747.016 1774.52 750.097 Q1771.44 753.179 1767.37 752.381 Q1763.31 751.558 1758.68 746.93 Q1754.04 742.29 1753.23 738.239 Q1752.42 734.163 1755.5 731.082 Z" fill="#000000" fill-rule="nonzero" fill-opacity="1" /><path clip-path="url(#clip480)" d="M1781.74 735.931 L1784.33 733.34 L1787.45 736.459 L1784.86 739.049 L1781.74 735.931 Z" fill="#000000" fill-rule="nonzero" fill-opacity="1" /><path clip-path="url(#clip480)" d="M1790.48 713.662 Q1792.64 712.262 1794.84 712.471 Q1797.05 712.667 1798.81 714.435 Q1801.53 717.148 1801.15 720.5 Q1800.77 723.851 1797.33 727.288 Q1796.17 728.442 1794.71 729.437 Q1793.28 730.431 1791.52 731.278 L1789.13 728.884 Q1790.76 728.455 1792.29 727.534 Q1793.83 726.613 1795.17 725.275 Q1797.5 722.943 1797.79 720.807 Q1798.1 718.658 1796.35 716.903 Q1794.73 715.282 1792.68 715.516 Q1790.63 715.724 1788.6 717.75 L1786.46 719.886 L1784.43 717.848 L1786.66 715.614 Q1788.49 713.785 1788.73 712.091 Q1788.97 710.384 1787.59 709.009 Q1786.18 707.597 1784.43 707.855 Q1782.67 708.088 1780.8 709.954 Q1779.79 710.973 1778.84 712.361 Q1777.9 713.748 1776.96 715.614 L1774.75 713.404 Q1775.77 711.599 1776.8 710.175 Q1777.85 708.739 1778.94 707.647 Q1781.76 704.823 1784.7 704.467 Q1787.62 704.099 1789.8 706.284 Q1791.33 707.806 1791.51 709.733 Q1791.68 711.649 1790.48 713.662 Z" fill="#000000" fill-rule="nonzero" fill-opacity="1" /><path clip-path="url(#clip480)" d="M1808.89 710.838 L1817.55 702.184 L1819.63 704.271 L1808 715.908 L1805.91 713.821 Q1805.86 710.949 1805.84 706.063 Q1805.81 701.153 1805.72 699.814 Q1805.58 697.286 1805.12 695.898 Q1804.67 694.487 1803.77 693.59 Q1802.31 692.13 1800.36 692.24 Q1798.42 692.338 1796.78 693.983 Q1795.61 695.149 1794.71 696.856 Q1793.83 698.55 1793.18 700.846 L1790.67 698.341 Q1791.57 696.242 1792.56 694.634 Q1793.56 693.026 1794.64 691.945 Q1797.49 689.097 1800.61 688.827 Q1803.72 688.557 1806.11 690.939 Q1807.23 692.068 1807.82 693.517 Q1808.41 694.941 1808.67 697.433 Q1808.72 698.096 1808.78 701.447 Q1808.83 704.786 1808.89 710.838 Z" fill="#000000" fill-rule="nonzero" fill-opacity="1" /><path clip-path="url(#clip480)" d="M1901.6 733.549 Q1899.69 735.464 1900.61 738.325 Q1901.53 741.16 1905.31 744.941 Q1909.08 748.71 1911.92 749.643 Q1914.77 750.552 1916.69 748.636 Q1918.62 746.709 1917.69 743.873 Q1916.77 741.013 1913.01 737.244 Q1909.22 733.463 1906.38 732.555 Q1903.53 731.622 1901.6 733.549 M1899.64 731.585 Q1902.72 728.504 1906.78 729.326 Q1910.84 730.124 1915.49 734.764 Q1920.11 739.393 1920.92 743.468 Q1921.73 747.519 1918.65 750.601 Q1915.57 753.682 1911.51 752.884 Q1907.44 752.061 1902.82 747.433 Q1898.18 742.793 1897.37 738.742 Q1896.56 734.666 1899.64 731.585 Z" fill="#000000" fill-rule="nonzero" fill-opacity="1" /><path clip-path="url(#clip480)" d="M1925.87 736.434 L1928.46 733.844 L1931.58 736.962 L1928.99 739.552 L1925.87 736.434 Z" fill="#000000" fill-rule="nonzero" fill-opacity="1" /><path clip-path="url(#clip480)" d="M1934.61 714.165 Q1936.77 712.766 1938.97 712.974 Q1941.18 713.171 1942.95 714.939 Q1945.66 717.652 1945.28 721.003 Q1944.9 724.354 1941.46 727.792 Q1940.31 728.946 1938.85 729.94 Q1937.41 730.934 1935.65 731.781 L1933.26 729.388 Q1934.89 728.958 1936.43 728.037 Q1937.96 727.116 1939.3 725.778 Q1941.63 723.446 1941.93 721.31 Q1942.23 719.162 1940.48 717.406 Q1938.86 715.786 1936.81 716.019 Q1934.76 716.228 1932.73 718.253 L1930.6 720.389 L1928.56 718.351 L1930.79 716.117 Q1932.62 714.288 1932.87 712.594 Q1933.1 710.887 1931.73 709.513 Q1930.31 708.101 1928.56 708.359 Q1926.8 708.592 1924.94 710.458 Q1923.92 711.477 1922.97 712.864 Q1922.03 714.251 1921.1 716.117 L1918.89 713.907 Q1919.9 712.103 1920.94 710.679 Q1921.98 709.242 1923.07 708.15 Q1925.9 705.326 1928.83 704.97 Q1931.75 704.602 1933.94 706.787 Q1935.46 708.309 1935.64 710.237 Q1935.81 712.152 1934.61 714.165 Z" fill="#000000" fill-rule="nonzero" fill-opacity="1" /><path clip-path="url(#clip480)" d="M1950.61 698.169 Q1952.77 696.77 1954.96 696.979 Q1957.17 697.175 1958.94 698.943 Q1961.66 701.656 1961.27 705.007 Q1960.89 708.359 1957.46 711.796 Q1956.3 712.95 1954.84 713.944 Q1953.41 714.939 1951.65 715.786 L1949.26 713.392 Q1950.89 712.962 1952.42 712.041 Q1953.96 711.121 1955.3 709.783 Q1957.63 707.45 1957.92 705.314 Q1958.23 703.166 1956.47 701.41 Q1954.85 699.79 1952.8 700.023 Q1950.75 700.232 1948.73 702.257 L1946.59 704.393 L1944.55 702.356 L1946.79 700.121 Q1948.62 698.292 1948.86 696.598 Q1949.1 694.892 1947.72 693.517 Q1946.31 692.105 1944.55 692.363 Q1942.8 692.596 1940.93 694.462 Q1939.91 695.481 1938.97 696.868 Q1938.02 698.255 1937.09 700.121 L1934.88 697.912 Q1935.9 696.107 1936.93 694.683 Q1937.97 693.247 1939.07 692.154 Q1941.89 689.331 1944.82 688.975 Q1947.75 688.606 1949.93 690.791 Q1951.45 692.314 1951.64 694.241 Q1951.81 696.156 1950.61 698.169 Z" fill="#000000" fill-rule="nonzero" fill-opacity="1" /><path clip-path="url(#clip480)" d="M2045.64 734.151 Q2043.72 736.066 2044.64 738.926 Q2045.56 741.762 2049.34 745.543 Q2053.11 749.312 2055.96 750.245 Q2058.81 751.153 2060.72 749.238 Q2062.65 747.311 2061.73 744.475 Q2060.81 741.615 2057.04 737.846 Q2053.26 734.065 2050.41 733.156 Q2047.56 732.223 2045.64 734.151 M2043.67 732.186 Q2046.75 729.105 2050.82 729.928 Q2054.88 730.726 2059.52 735.366 Q2064.15 739.994 2064.96 744.07 Q2065.77 748.121 2062.69 751.202 Q2059.61 754.283 2055.54 753.485 Q2051.48 752.663 2046.85 748.035 Q2042.21 743.395 2041.4 739.343 Q2040.59 735.268 2043.67 732.186 Z" fill="#000000" fill-rule="nonzero" fill-opacity="1" /><path clip-path="url(#clip480)" d="M2069.91 737.036 L2072.5 734.445 L2075.61 737.563 L2073.02 740.154 L2069.91 737.036 Z" fill="#000000" fill-rule="nonzero" fill-opacity="1" /><path clip-path="url(#clip480)" d="M2078.65 714.767 Q2080.81 713.367 2083 713.576 Q2085.21 713.772 2086.98 715.54 Q2089.69 718.253 2089.31 721.604 Q2088.93 724.956 2085.5 728.393 Q2084.34 729.547 2082.88 730.541 Q2081.45 731.536 2079.69 732.383 L2077.3 729.989 Q2078.93 729.559 2080.46 728.639 Q2082 727.718 2083.34 726.38 Q2085.67 724.047 2085.96 721.911 Q2086.27 719.763 2084.51 718.008 Q2082.89 716.387 2080.84 716.62 Q2078.79 716.829 2076.77 718.855 L2074.63 720.991 L2072.59 718.953 L2074.83 716.719 Q2076.66 714.889 2076.9 713.195 Q2077.14 711.489 2075.76 710.114 Q2074.35 708.702 2072.59 708.96 Q2070.84 709.193 2068.97 711.059 Q2067.95 712.078 2067.01 713.465 Q2066.06 714.853 2065.13 716.719 L2062.92 714.509 Q2063.94 712.704 2064.97 711.28 Q2066.01 709.844 2067.11 708.751 Q2069.93 705.928 2072.86 705.572 Q2075.79 705.204 2077.97 707.389 Q2079.49 708.911 2079.68 710.838 Q2079.85 712.753 2078.65 714.767 Z" fill="#000000" fill-rule="nonzero" fill-opacity="1" /><path clip-path="url(#clip480)" d="M2087.66 693.185 L2091.18 709.23 L2097.44 702.969 L2087.66 693.185 M2084.85 691.675 L2087.96 688.557 L2099.91 700.502 L2102.52 697.887 L2104.59 699.949 L2101.97 702.564 L2106.29 706.885 L2103.82 709.353 L2099.5 705.032 L2091.23 713.306 L2088.84 710.912 L2084.85 691.675 Z" fill="#000000" fill-rule="nonzero" fill-opacity="1" /><path clip-path="url(#clip480)" d="M2191.06 733.365 Q2189.14 735.28 2190.06 738.14 Q2190.98 740.976 2194.77 744.757 Q2198.53 748.526 2201.38 749.459 Q2204.23 750.367 2206.15 748.452 Q2208.07 746.525 2207.15 743.689 Q2206.23 740.829 2202.46 737.06 Q2198.68 733.279 2195.83 732.371 Q2192.99 731.438 2191.06 733.365 M2189.09 731.401 Q2192.18 728.32 2196.24 729.142 Q2200.3 729.94 2204.94 734.58 Q2209.57 739.208 2210.38 743.284 Q2211.19 747.335 2208.11 750.416 Q2205.03 753.498 2200.96 752.7 Q2196.9 751.877 2192.27 747.249 Q2187.63 742.609 2186.82 738.558 Q2186.01 734.482 2189.09 731.401 Z" fill="#000000" fill-rule="nonzero" fill-opacity="1" /><path clip-path="url(#clip480)" d="M2215.33 736.25 L2217.92 733.66 L2221.04 736.778 L2218.45 739.368 L2215.33 736.25 Z" fill="#000000" fill-rule="nonzero" fill-opacity="1" /><path clip-path="url(#clip480)" d="M2224.07 713.981 Q2226.23 712.582 2228.43 712.79 Q2230.64 712.987 2232.4 714.754 Q2235.12 717.467 2234.74 720.819 Q2234.36 724.17 2230.92 727.607 Q2229.76 728.761 2228.3 729.756 Q2226.87 730.75 2225.11 731.597 L2222.72 729.203 Q2224.35 728.774 2225.89 727.853 Q2227.42 726.932 2228.76 725.594 Q2231.09 723.262 2231.38 721.126 Q2231.69 718.977 2229.94 717.222 Q2228.32 715.601 2226.27 715.835 Q2224.22 716.043 2222.19 718.069 L2220.05 720.205 L2218.02 718.167 L2220.25 715.933 Q2222.08 714.104 2222.33 712.41 Q2222.56 710.703 2221.18 709.328 Q2219.77 707.917 2218.02 708.174 Q2216.26 708.408 2214.39 710.274 Q2213.38 711.293 2212.43 712.68 Q2211.49 714.067 2210.55 715.933 L2208.34 713.723 Q2209.36 711.919 2210.39 710.495 Q2211.44 709.058 2212.53 707.966 Q2215.35 705.142 2218.29 704.786 Q2221.21 704.418 2223.39 706.603 Q2224.92 708.125 2225.1 710.053 Q2225.27 711.968 2224.07 713.981 Z" fill="#000000" fill-rule="nonzero" fill-opacity="1" /><path clip-path="url(#clip480)" d="M2224.13 697.028 L2233.86 687.293 L2235.95 689.38 L2228.49 696.844 L2232.98 701.337 Q2233.34 700.612 2233.79 699.986 Q2234.23 699.348 2234.77 698.808 Q2237.84 695.739 2241.32 695.628 Q2244.79 695.518 2247.66 698.39 Q2250.62 701.349 2250.43 704.835 Q2250.22 708.309 2246.87 711.661 Q2245.71 712.815 2244.31 713.821 Q2242.92 714.816 2241.25 715.7 L2238.76 713.208 Q2240.47 712.704 2241.94 711.82 Q2243.42 710.937 2244.73 709.623 Q2246.85 707.499 2246.98 705.142 Q2247.1 702.785 2245.18 700.87 Q2243.27 698.955 2240.91 699.078 Q2238.55 699.201 2236.43 701.324 Q2235.44 702.319 2234.66 703.534 Q2233.9 704.737 2233.34 706.235 L2224.13 697.028 Z" fill="#000000" fill-rule="nonzero" fill-opacity="1" /><polyline clip-path="url(#clip480)" style="stroke:#000000; stroke-linecap:round; stroke-linejoin:round; stroke-width:4; stroke-opacity:1; fill:none" points="1361.64,662.16 1361.64,97.5521 "/>
<polyline clip-path="url(#clip480)" style="stroke:#000000; stroke-linecap:round; stroke-linejoin:round; stroke-width:4; stroke-opacity:1; fill:none" points="1361.64,646.181 1380.53,646.181 "/>
<polyline clip-path="url(#clip480)" style="stroke:#000000; stroke-linecap:round; stroke-linejoin:round; stroke-width:4; stroke-opacity:1; fill:none" points="1361.64,504.348 1380.53,504.348 "/>
<polyline clip-path="url(#clip480)" style="stroke:#000000; stroke-linecap:round; stroke-linejoin:round; stroke-width:4; stroke-opacity:1; fill:none" points="1361.64,362.514 1380.53,362.514 "/>
<polyline clip-path="url(#clip480)" style="stroke:#000000; stroke-linecap:round; stroke-linejoin:round; stroke-width:4; stroke-opacity:1; fill:none" points="1361.64,220.681 1380.53,220.681 "/>
<path clip-path="url(#clip480)" d="M1260.13 635.53 Q1257.42 635.53 1256.05 638.204 Q1254.7 640.86 1254.7 646.207 Q1254.7 651.537 1256.05 654.21 Q1257.42 656.867 1260.13 656.867 Q1262.86 656.867 1264.21 654.21 Q1265.58 651.537 1265.58 646.207 Q1265.58 640.86 1264.21 638.204 Q1262.86 635.53 1260.13 635.53 M1260.13 632.752 Q1264.49 632.752 1266.78 636.207 Q1269.09 639.644 1269.09 646.207 Q1269.09 652.752 1266.78 656.207 Q1264.49 659.644 1260.13 659.644 Q1255.78 659.644 1253.47 656.207 Q1251.17 652.752 1251.17 646.207 Q1251.17 639.644 1253.47 636.207 Q1255.78 632.752 1260.13 632.752 Z" fill="#000000" fill-rule="nonzero" fill-opacity="1" /><path clip-path="url(#clip480)" d="M1275.25 654.731 L1278.92 654.731 L1278.92 659.141 L1275.25 659.141 L1275.25 654.731 Z" fill="#000000" fill-rule="nonzero" fill-opacity="1" /><path clip-path="url(#clip480)" d="M1294.06 635.53 Q1291.35 635.53 1289.98 638.204 Q1288.62 640.86 1288.62 646.207 Q1288.62 651.537 1289.98 654.21 Q1291.35 656.867 1294.06 656.867 Q1296.78 656.867 1298.14 654.21 Q1299.51 651.537 1299.51 646.207 Q1299.51 640.86 1298.14 638.204 Q1296.78 635.53 1294.06 635.53 M1294.06 632.752 Q1298.41 632.752 1300.71 636.207 Q1303.01 639.644 1303.01 646.207 Q1303.01 652.752 1300.71 656.207 Q1298.41 659.644 1294.06 659.644 Q1289.7 659.644 1287.39 656.207 Q1285.1 652.752 1285.1 646.207 Q1285.1 639.644 1287.39 636.207 Q1289.7 632.752 1294.06 632.752 Z" fill="#000000" fill-rule="nonzero" fill-opacity="1" /><path clip-path="url(#clip480)" d="M1316.68 635.53 Q1313.97 635.53 1312.6 638.204 Q1311.24 640.86 1311.24 646.207 Q1311.24 651.537 1312.6 654.21 Q1313.97 656.867 1316.68 656.867 Q1319.4 656.867 1320.76 654.21 Q1322.13 651.537 1322.13 646.207 Q1322.13 640.86 1320.76 638.204 Q1319.4 635.53 1316.68 635.53 M1316.68 632.752 Q1321.04 632.752 1323.33 636.207 Q1325.64 639.644 1325.64 646.207 Q1325.64 652.752 1323.33 656.207 Q1321.04 659.644 1316.68 659.644 Q1312.32 659.644 1310.01 656.207 Q1307.72 652.752 1307.72 646.207 Q1307.72 639.644 1310.01 636.207 Q1312.32 632.752 1316.68 632.752 Z" fill="#000000" fill-rule="nonzero" fill-opacity="1" /><path clip-path="url(#clip480)" d="M1260.88 493.697 Q1258.17 493.697 1256.8 496.37 Q1255.45 499.026 1255.45 504.374 Q1255.45 509.703 1256.8 512.377 Q1258.17 515.033 1260.88 515.033 Q1263.6 515.033 1264.96 512.377 Q1266.33 509.703 1266.33 504.374 Q1266.33 499.026 1264.96 496.37 Q1263.6 493.697 1260.88 493.697 M1260.88 490.919 Q1265.24 490.919 1267.53 494.374 Q1269.84 497.811 1269.84 504.374 Q1269.84 510.919 1267.53 514.374 Q1265.24 517.811 1260.88 517.811 Q1256.52 517.811 1254.21 514.374 Q1251.92 510.919 1251.92 504.374 Q1251.92 497.811 1254.21 494.374 Q1256.52 490.919 1260.88 490.919 Z" fill="#000000" fill-rule="nonzero" fill-opacity="1" /><path clip-path="url(#clip480)" d="M1276 512.898 L1279.66 512.898 L1279.66 517.308 L1276 517.308 L1276 512.898 Z" fill="#000000" fill-rule="nonzero" fill-opacity="1" /><path clip-path="url(#clip480)" d="M1294.8 493.697 Q1292.09 493.697 1290.72 496.37 Q1289.37 499.026 1289.37 504.374 Q1289.37 509.703 1290.72 512.377 Q1292.09 515.033 1294.8 515.033 Q1297.53 515.033 1298.88 512.377 Q1300.25 509.703 1300.25 504.374 Q1300.25 499.026 1298.88 496.37 Q1297.53 493.697 1294.8 493.697 M1294.8 490.919 Q1299.16 490.919 1301.45 494.374 Q1303.76 497.811 1303.76 504.374 Q1303.76 510.919 1301.45 514.374 Q1299.16 517.811 1294.8 517.811 Q1290.45 517.811 1288.14 514.374 Q1285.84 510.919 1285.84 504.374 Q1285.84 497.811 1288.14 494.374 Q1290.45 490.919 1294.8 490.919 Z" fill="#000000" fill-rule="nonzero" fill-opacity="1" /><path clip-path="url(#clip480)" d="M1309.96 491.388 L1323.73 491.388 L1323.73 494.339 L1313.17 494.339 L1313.17 500.693 Q1313.93 500.433 1314.7 500.311 Q1315.46 500.172 1316.23 500.172 Q1320.57 500.172 1323.1 502.551 Q1325.64 504.929 1325.64 508.992 Q1325.64 513.176 1323.03 515.502 Q1320.43 517.811 1315.69 517.811 Q1314.06 517.811 1312.35 517.533 Q1310.67 517.255 1308.87 516.7 L1308.87 513.176 Q1310.43 514.026 1312.09 514.443 Q1313.76 514.86 1315.62 514.86 Q1318.62 514.86 1320.38 513.28 Q1322.13 511.7 1322.13 508.992 Q1322.13 506.283 1320.38 504.703 Q1318.62 503.124 1315.62 503.124 Q1314.21 503.124 1312.81 503.436 Q1311.42 503.749 1309.96 504.408 L1309.96 491.388 Z" fill="#000000" fill-rule="nonzero" fill-opacity="1" /><path clip-path="url(#clip480)" d="M1260.13 351.863 Q1257.42 351.863 1256.05 354.537 Q1254.7 357.193 1254.7 362.54 Q1254.7 367.87 1256.05 370.544 Q1257.42 373.2 1260.13 373.2 Q1262.86 373.2 1264.21 370.544 Q1265.58 367.87 1265.58 362.54 Q1265.58 357.193 1264.21 354.537 Q1262.86 351.863 1260.13 351.863 M1260.13 349.085 Q1264.49 349.085 1266.78 352.54 Q1269.09 355.978 1269.09 362.54 Q1269.09 369.085 1266.78 372.54 Q1264.49 375.978 1260.13 375.978 Q1255.78 375.978 1253.47 372.54 Q1251.17 369.085 1251.17 362.54 Q1251.17 355.978 1253.47 352.54 Q1255.78 349.085 1260.13 349.085 Z" fill="#000000" fill-rule="nonzero" fill-opacity="1" /><path clip-path="url(#clip480)" d="M1275.25 371.065 L1278.92 371.065 L1278.92 375.474 L1275.25 375.474 L1275.25 371.065 Z" fill="#000000" fill-rule="nonzero" fill-opacity="1" /><path clip-path="url(#clip480)" d="M1287.16 372.523 L1292.89 372.523 L1292.89 352.749 L1286.66 353.999 L1286.66 350.804 L1292.86 349.554 L1296.37 349.554 L1296.37 372.523 L1302.09 372.523 L1302.09 375.474 L1287.16 375.474 L1287.16 372.523 Z" fill="#000000" fill-rule="nonzero" fill-opacity="1" /><path clip-path="url(#clip480)" d="M1316.68 351.863 Q1313.97 351.863 1312.6 354.537 Q1311.24 357.193 1311.24 362.54 Q1311.24 367.87 1312.6 370.544 Q1313.97 373.2 1316.68 373.2 Q1319.4 373.2 1320.76 370.544 Q1322.13 367.87 1322.13 362.54 Q1322.13 357.193 1320.76 354.537 Q1319.4 351.863 1316.68 351.863 M1316.68 349.085 Q1321.04 349.085 1323.33 352.54 Q1325.64 355.978 1325.64 362.54 Q1325.64 369.085 1323.33 372.54 Q1321.04 375.978 1316.68 375.978 Q1312.32 375.978 1310.01 372.54 Q1307.72 369.085 1307.72 362.54 Q1307.72 355.978 1310.01 352.54 Q1312.32 349.085 1316.68 349.085 Z" fill="#000000" fill-rule="nonzero" fill-opacity="1" /><path clip-path="url(#clip480)" d="M1260.88 210.03 Q1258.17 210.03 1256.8 212.704 Q1255.45 215.36 1255.45 220.707 Q1255.45 226.037 1256.8 228.71 Q1258.17 231.367 1260.88 231.367 Q1263.6 231.367 1264.96 228.71 Q1266.33 226.037 1266.33 220.707 Q1266.33 215.36 1264.96 212.704 Q1263.6 210.03 1260.88 210.03 M1260.88 207.252 Q1265.24 207.252 1267.53 210.707 Q1269.84 214.144 1269.84 220.707 Q1269.84 227.252 1267.53 230.707 Q1265.24 234.144 1260.88 234.144 Q1256.52 234.144 1254.21 230.707 Q1251.92 227.252 1251.92 220.707 Q1251.92 214.144 1254.21 210.707 Q1256.52 207.252 1260.88 207.252 Z" fill="#000000" fill-rule="nonzero" fill-opacity="1" /><path clip-path="url(#clip480)" d="M1276 229.231 L1279.66 229.231 L1279.66 233.641 L1276 233.641 L1276 229.231 Z" fill="#000000" fill-rule="nonzero" fill-opacity="1" /><path clip-path="url(#clip480)" d="M1287.91 230.69 L1293.64 230.69 L1293.64 210.915 L1287.41 212.165 L1287.41 208.971 L1293.6 207.721 L1297.11 207.721 L1297.11 230.69 L1302.84 230.69 L1302.84 233.641 L1287.91 233.641 L1287.91 230.69 Z" fill="#000000" fill-rule="nonzero" fill-opacity="1" /><path clip-path="url(#clip480)" d="M1309.96 207.721 L1323.73 207.721 L1323.73 210.672 L1313.17 210.672 L1313.17 217.026 Q1313.93 216.766 1314.7 216.644 Q1315.46 216.506 1316.23 216.506 Q1320.57 216.506 1323.1 218.884 Q1325.64 221.263 1325.64 225.325 Q1325.64 229.509 1323.03 231.835 Q1320.43 234.144 1315.69 234.144 Q1314.06 234.144 1312.35 233.867 Q1310.67 233.589 1308.87 233.033 L1308.87 229.509 Q1310.43 230.36 1312.09 230.776 Q1313.76 231.193 1315.62 231.193 Q1318.62 231.193 1320.38 229.613 Q1322.13 228.033 1322.13 225.325 Q1322.13 222.617 1320.38 221.037 Q1318.62 219.457 1315.62 219.457 Q1314.21 219.457 1312.81 219.769 Q1311.42 220.082 1309.96 220.742 L1309.96 207.721 Z" fill="#000000" fill-rule="nonzero" fill-opacity="1" /><path clip-path="url(#clip480)" d="M1373.53 18.9258 Q1370.02 18.9258 1368.12 21.4721 Q1366.13 24.1341 1366.13 28.5323 Q1366.13 33.185 1368.09 35.8702 Q1370.08 38.5322 1373.53 38.5322 Q1376.94 38.5322 1378.93 35.847 Q1380.92 33.1619 1380.92 28.5323 Q1380.92 24.2962 1378.93 21.4721 Q1377.1 18.9258 1373.53 18.9258 M1373.53 15.5462 L1387.68 15.5462 L1387.68 19.8054 L1382.91 19.8054 Q1385.43 23.4165 1385.43 28.5323 Q1385.43 34.898 1382.26 38.5091 Q1379.09 42.1433 1373.53 42.1433 Q1367.96 42.1433 1364.81 38.5091 Q1361.64 34.898 1361.64 28.5323 Q1361.64 22.1203 1364.81 18.5323 Q1367.42 15.5462 1373.53 15.5462 Z" fill="#000000" fill-rule="nonzero" fill-opacity="1" /><path clip-path="url(#clip480)" d="M1411.84 19.6666 Q1410.99 19.3656 1410.13 19.1342 Q1407.84 18.5323 1405.39 18.5323 Q1401.15 18.5323 1398.79 20.824 Q1396.59 22.9536 1396.17 26.8656 L1411.84 26.8656 L1411.84 30.1989 L1396.17 30.1989 Q1396.59 34.1109 1398.79 36.2405 Q1401.15 38.5322 1405.39 38.5322 Q1408.35 38.5322 1410.13 37.9304 L1411.84 37.3517 L1411.84 41.2174 L1410.02 41.634 Q1407.61 42.1433 1405.13 42.1433 Q1398.93 42.1433 1395.32 38.5322 Q1391.68 34.9211 1391.68 28.5323 Q1391.68 22.1434 1395.32 18.5323 Q1398.93 14.9212 1405.13 14.9212 Q1407.47 14.9212 1410.02 15.4305 Q1410.94 15.6157 1411.84 15.8934 L1411.84 19.6666 Z" fill="#000000" fill-rule="nonzero" fill-opacity="1" /><polyline clip-path="url(#clip483)" style="stroke:#009af9; stroke-linecap:round; stroke-linejoin:round; stroke-width:4; stroke-opacity:1; fill:none" points="1389.69,164.277 1448.13,221.74 1506.56,279.995 1565,339.044 1623.44,398.886 1681.88,459.52 1740.32,520.947 1798.76,583.168 1857.2,646.181 1915.63,582.375 1974.07,517.776 2032.51,452.384 2090.95,386.199 2149.39,319.222 2207.83,251.451 2266.27,182.888 2324.71,113.532 "/>
<circle clip-path="url(#clip483)" cx="1857.2" cy="646.181" r="10.8" fill="#ff0000" fill-rule="evenodd" fill-opacity="1" stroke="#000000" stroke-opacity="1" stroke-width="3.2"/>
<path clip-path="url(#clip480)" d="M161.818 1456.91 L1152.94 1456.91 L1152.94 892.306 L161.818 892.306  Z" fill="#ffffff" fill-rule="evenodd" fill-opacity="1"/>
<defs>
  <clipPath id="clip484">
    <rect x="161" y="892" width="992" height="566"/>
  </clipPath>
</defs>
<polyline clip-path="url(#clip484)" style="stroke:#000000; stroke-linecap:round; stroke-linejoin:round; stroke-width:2; stroke-opacity:0.1; fill:none" points="290.957,1456.91 290.957,892.306 "/>
<polyline clip-path="url(#clip484)" style="stroke:#000000; stroke-linecap:round; stroke-linejoin:round; stroke-width:2; stroke-opacity:0.1; fill:none" points="506.391,1456.91 506.391,892.306 "/>
<polyline clip-path="url(#clip484)" style="stroke:#000000; stroke-linecap:round; stroke-linejoin:round; stroke-width:2; stroke-opacity:0.1; fill:none" points="721.824,1456.91 721.824,892.306 "/>
<polyline clip-path="url(#clip484)" style="stroke:#000000; stroke-linecap:round; stroke-linejoin:round; stroke-width:2; stroke-opacity:0.1; fill:none" points="937.258,1456.91 937.258,892.306 "/>
<polyline clip-path="url(#clip484)" style="stroke:#000000; stroke-linecap:round; stroke-linejoin:round; stroke-width:2; stroke-opacity:0.1; fill:none" points="1152.69,1456.91 1152.69,892.306 "/>
<polyline clip-path="url(#clip484)" style="stroke:#000000; stroke-linecap:round; stroke-linejoin:round; stroke-width:2; stroke-opacity:0.1; fill:none" points="161.818,1440.93 1152.94,1440.93 "/>
<polyline clip-path="url(#clip484)" style="stroke:#000000; stroke-linecap:round; stroke-linejoin:round; stroke-width:2; stroke-opacity:0.1; fill:none" points="161.818,1321.78 1152.94,1321.78 "/>
<polyline clip-path="url(#clip484)" style="stroke:#000000; stroke-linecap:round; stroke-linejoin:round; stroke-width:2; stroke-opacity:0.1; fill:none" points="161.818,1202.62 1152.94,1202.62 "/>
<polyline clip-path="url(#clip484)" style="stroke:#000000; stroke-linecap:round; stroke-linejoin:round; stroke-width:2; stroke-opacity:0.1; fill:none" points="161.818,1083.46 1152.94,1083.46 "/>
<polyline clip-path="url(#clip484)" style="stroke:#000000; stroke-linecap:round; stroke-linejoin:round; stroke-width:2; stroke-opacity:0.1; fill:none" points="161.818,964.307 1152.94,964.307 "/>
<polyline clip-path="url(#clip480)" style="stroke:#000000; stroke-linecap:round; stroke-linejoin:round; stroke-width:4; stroke-opacity:1; fill:none" points="161.818,1456.91 1152.94,1456.91 "/>
<polyline clip-path="url(#clip480)" style="stroke:#000000; stroke-linecap:round; stroke-linejoin:round; stroke-width:4; stroke-opacity:1; fill:none" points="290.957,1456.91 290.957,1438.02 "/>
<polyline clip-path="url(#clip480)" style="stroke:#000000; stroke-linecap:round; stroke-linejoin:round; stroke-width:4; stroke-opacity:1; fill:none" points="506.391,1456.91 506.391,1438.02 "/>
<polyline clip-path="url(#clip480)" style="stroke:#000000; stroke-linecap:round; stroke-linejoin:round; stroke-width:4; stroke-opacity:1; fill:none" points="721.824,1456.91 721.824,1438.02 "/>
<polyline clip-path="url(#clip480)" style="stroke:#000000; stroke-linecap:round; stroke-linejoin:round; stroke-width:4; stroke-opacity:1; fill:none" points="937.258,1456.91 937.258,1438.02 "/>
<polyline clip-path="url(#clip480)" style="stroke:#000000; stroke-linecap:round; stroke-linejoin:round; stroke-width:4; stroke-opacity:1; fill:none" points="1152.69,1456.91 1152.69,1438.02 "/>
<path clip-path="url(#clip480)" d="M221.112 1544.64 Q219.197 1546.56 220.118 1549.42 Q221.038 1552.25 224.819 1556.03 Q228.588 1559.8 231.436 1560.74 Q234.284 1561.65 236.199 1559.73 Q238.127 1557.8 237.206 1554.97 Q236.285 1552.11 232.517 1548.34 Q228.736 1544.56 225.887 1543.65 Q223.039 1542.72 221.112 1544.64 M219.148 1542.68 Q222.229 1539.6 226.293 1540.42 Q230.356 1541.22 234.996 1545.86 Q239.624 1550.49 240.435 1554.56 Q241.245 1558.61 238.164 1561.69 Q235.082 1564.78 231.019 1563.98 Q226.956 1563.15 222.327 1558.53 Q217.687 1553.89 216.877 1549.84 Q216.067 1545.76 219.148 1542.68 Z" fill="#000000" fill-rule="nonzero" fill-opacity="1" /><path clip-path="url(#clip480)" d="M245.382 1547.53 L247.972 1544.94 L251.09 1548.06 L248.5 1550.65 L245.382 1547.53 Z" fill="#000000" fill-rule="nonzero" fill-opacity="1" /><path clip-path="url(#clip480)" d="M238.188 1524.3 L247.923 1514.57 L250.01 1516.65 L242.546 1524.12 L247.039 1528.61 Q247.395 1527.89 247.849 1527.26 Q248.291 1526.62 248.832 1526.08 Q251.901 1523.01 255.375 1522.9 Q258.849 1522.79 261.721 1525.66 Q264.68 1528.62 264.484 1532.11 Q264.275 1535.58 260.923 1538.93 Q259.77 1540.09 258.37 1541.09 Q256.983 1542.09 255.313 1542.97 L252.821 1540.48 Q254.528 1539.98 256.001 1539.09 Q257.474 1538.21 258.787 1536.9 Q260.911 1534.77 261.034 1532.42 Q261.157 1530.06 259.242 1528.14 Q257.327 1526.23 254.97 1526.35 Q252.613 1526.47 250.489 1528.6 Q249.494 1529.59 248.721 1530.81 Q247.96 1532.01 247.395 1533.51 L238.188 1524.3 Z" fill="#000000" fill-rule="nonzero" fill-opacity="1" /><path clip-path="url(#clip480)" d="M261.095 1504.66 Q259.18 1506.57 260.101 1509.43 Q261.022 1512.27 264.803 1516.05 Q268.571 1519.82 271.42 1520.75 Q274.268 1521.66 276.183 1519.75 Q278.11 1517.82 277.189 1514.98 Q276.269 1512.12 272.5 1508.35 Q268.719 1504.57 265.871 1503.67 Q263.023 1502.73 261.095 1504.66 M259.131 1502.7 Q262.212 1499.61 266.276 1500.44 Q270.339 1501.23 274.98 1505.87 Q279.608 1510.5 280.418 1514.58 Q281.228 1518.63 278.147 1521.71 Q275.066 1524.79 271.002 1523.99 Q266.939 1523.17 262.311 1518.54 Q257.67 1513.9 256.86 1509.85 Q256.05 1505.78 259.131 1502.7 Z" fill="#000000" fill-rule="nonzero" fill-opacity="1" /><path clip-path="url(#clip480)" d="M277.091 1488.66 Q275.176 1490.58 276.097 1493.44 Q277.017 1496.27 280.798 1500.06 Q284.567 1503.82 287.415 1504.76 Q290.263 1505.67 292.178 1503.75 Q294.106 1501.82 293.185 1498.99 Q292.264 1496.13 288.496 1492.36 Q284.715 1488.58 281.866 1487.67 Q279.018 1486.74 277.091 1488.66 M275.127 1486.7 Q278.208 1483.62 282.272 1484.44 Q286.335 1485.24 290.975 1489.88 Q295.603 1494.51 296.414 1498.58 Q297.224 1502.63 294.143 1505.72 Q291.061 1508.8 286.998 1508 Q282.935 1507.18 278.306 1502.55 Q273.666 1497.91 272.856 1493.86 Q272.046 1489.78 275.127 1486.7 Z" fill="#000000" fill-rule="nonzero" fill-opacity="1" /><path clip-path="url(#clip480)" d="M437.074 1544.11 Q435.159 1546.03 436.079 1548.89 Q437 1551.73 440.781 1555.51 Q444.55 1559.28 447.398 1560.21 Q450.246 1561.12 452.161 1559.2 Q454.088 1557.27 453.168 1554.44 Q452.247 1551.58 448.478 1547.81 Q444.697 1544.03 441.849 1543.12 Q439.001 1542.19 437.074 1544.11 M435.109 1542.15 Q438.191 1539.07 442.254 1539.89 Q446.318 1540.69 450.958 1545.33 Q455.586 1549.96 456.396 1554.03 Q457.206 1558.08 454.125 1561.17 Q451.044 1564.25 446.98 1563.45 Q442.917 1562.63 438.289 1558 Q433.649 1553.36 432.838 1549.31 Q432.028 1545.23 435.109 1542.15 Z" fill="#000000" fill-rule="nonzero" fill-opacity="1" /><path clip-path="url(#clip480)" d="M461.343 1547 L463.934 1544.41 L467.052 1547.53 L464.462 1550.12 L461.343 1547 Z" fill="#000000" fill-rule="nonzero" fill-opacity="1" /><path clip-path="url(#clip480)" d="M454.15 1523.77 L463.885 1514.04 L465.972 1516.13 L458.508 1523.59 L463.001 1528.08 Q463.357 1527.36 463.811 1526.73 Q464.253 1526.09 464.793 1525.55 Q467.862 1522.48 471.336 1522.37 Q474.81 1522.26 477.683 1525.14 Q480.641 1528.09 480.445 1531.58 Q480.236 1535.05 476.885 1538.41 Q475.731 1539.56 474.332 1540.57 Q472.944 1541.56 471.275 1542.45 L468.783 1539.95 Q470.489 1539.45 471.962 1538.57 Q473.435 1537.68 474.749 1536.37 Q476.873 1534.24 476.995 1531.89 Q477.118 1529.53 475.203 1527.62 Q473.288 1525.7 470.931 1525.82 Q468.574 1525.95 466.45 1528.07 Q465.456 1529.06 464.683 1530.28 Q463.921 1531.48 463.357 1532.98 L454.15 1523.77 Z" fill="#000000" fill-rule="nonzero" fill-opacity="1" /><path clip-path="url(#clip480)" d="M488.498 1521.91 L497.153 1513.25 L499.24 1515.34 L487.602 1526.98 L485.515 1524.89 Q485.466 1522.02 485.441 1517.13 Q485.417 1512.22 485.331 1510.88 Q485.184 1508.35 484.729 1506.97 Q484.275 1505.56 483.379 1504.66 Q481.918 1503.2 479.966 1503.31 Q478.027 1503.41 476.382 1505.05 Q475.215 1506.22 474.319 1507.92 Q473.435 1509.62 472.785 1511.91 L470.28 1509.41 Q471.177 1507.31 472.171 1505.7 Q473.165 1504.09 474.246 1503.01 Q477.094 1500.17 480.212 1499.9 Q483.33 1499.63 485.712 1502.01 Q486.841 1503.14 487.43 1504.59 Q488.019 1506.01 488.277 1508.5 Q488.326 1509.16 488.388 1512.52 Q488.437 1515.86 488.498 1521.91 Z" fill="#000000" fill-rule="nonzero" fill-opacity="1" /><path clip-path="url(#clip480)" d="M486.141 1491.78 L495.876 1482.05 L497.963 1484.13 L490.499 1491.6 L494.992 1496.09 Q495.348 1495.37 495.802 1494.74 Q496.244 1494.1 496.785 1493.56 Q499.854 1490.49 503.328 1490.38 Q506.802 1490.27 509.674 1493.14 Q512.633 1496.1 512.437 1499.59 Q512.228 1503.06 508.877 1506.41 Q507.723 1507.57 506.323 1508.58 Q504.936 1509.57 503.266 1510.45 L500.774 1507.96 Q502.481 1507.46 503.954 1506.57 Q505.427 1505.69 506.74 1504.38 Q508.864 1502.25 508.987 1499.9 Q509.11 1497.54 507.195 1495.62 Q505.28 1493.71 502.923 1493.83 Q500.566 1493.95 498.442 1496.08 Q497.447 1497.07 496.674 1498.29 Q495.913 1499.49 495.348 1500.99 L486.141 1491.78 Z" fill="#000000" fill-rule="nonzero" fill-opacity="1" /><path clip-path="url(#clip480)" d="M651.979 1544.64 Q650.064 1546.56 650.985 1549.42 Q651.906 1552.25 655.687 1556.03 Q659.456 1559.8 662.304 1560.74 Q665.152 1561.65 667.067 1559.73 Q668.994 1557.8 668.073 1554.97 Q667.153 1552.11 663.384 1548.34 Q659.603 1544.56 656.755 1543.65 Q653.907 1542.72 651.979 1544.64 M650.015 1542.68 Q653.097 1539.6 657.16 1540.42 Q661.223 1541.22 665.864 1545.86 Q670.492 1550.49 671.302 1554.56 Q672.112 1558.61 669.031 1561.69 Q665.95 1564.78 661.886 1563.98 Q657.823 1563.15 653.195 1558.53 Q648.554 1553.89 647.744 1549.84 Q646.934 1545.76 650.015 1542.68 Z" fill="#000000" fill-rule="nonzero" fill-opacity="1" /><path clip-path="url(#clip480)" d="M676.249 1547.53 L678.84 1544.94 L681.958 1548.06 L679.367 1550.65 L676.249 1547.53 Z" fill="#000000" fill-rule="nonzero" fill-opacity="1" /><path clip-path="url(#clip480)" d="M669.055 1524.3 L678.79 1514.57 L680.877 1516.65 L673.414 1524.12 L677.907 1528.61 Q678.263 1527.89 678.717 1527.26 Q679.159 1526.62 679.699 1526.08 Q682.768 1523.01 686.242 1522.9 Q689.716 1522.79 692.589 1525.66 Q695.547 1528.62 695.351 1532.11 Q695.142 1535.58 691.791 1538.93 Q690.637 1540.09 689.237 1541.09 Q687.85 1542.09 686.181 1542.97 L683.689 1540.48 Q685.395 1539.98 686.868 1539.09 Q688.341 1538.21 689.655 1536.9 Q691.779 1534.77 691.901 1532.42 Q692.024 1530.06 690.109 1528.14 Q688.194 1526.23 685.837 1526.35 Q683.48 1526.47 681.356 1528.6 Q680.362 1529.59 679.588 1530.81 Q678.827 1532.01 678.263 1533.51 L669.055 1524.3 Z" fill="#000000" fill-rule="nonzero" fill-opacity="1" /><path clip-path="url(#clip480)" d="M685.051 1508.31 L694.786 1498.57 L696.873 1500.66 L689.409 1508.12 L693.902 1512.61 Q694.258 1511.89 694.713 1511.26 Q695.154 1510.63 695.695 1510.09 Q698.764 1507.02 702.238 1506.91 Q705.712 1506.8 708.585 1509.67 Q711.543 1512.63 711.347 1516.11 Q711.138 1519.59 707.787 1522.94 Q706.633 1524.09 705.233 1525.1 Q703.846 1526.09 702.176 1526.98 L699.684 1524.49 Q701.391 1523.98 702.864 1523.1 Q704.337 1522.21 705.651 1520.9 Q707.774 1518.78 707.897 1516.42 Q708.02 1514.06 706.105 1512.15 Q704.19 1510.23 701.833 1510.36 Q699.476 1510.48 697.352 1512.6 Q696.358 1513.6 695.584 1514.81 Q694.823 1516.01 694.258 1517.51 L685.051 1508.31 Z" fill="#000000" fill-rule="nonzero" fill-opacity="1" /><path clip-path="url(#clip480)" d="M707.958 1488.66 Q706.043 1490.58 706.964 1493.44 Q707.885 1496.27 711.666 1500.06 Q715.435 1503.82 718.283 1504.76 Q721.131 1505.67 723.046 1503.75 Q724.973 1501.82 724.052 1498.99 Q723.132 1496.13 719.363 1492.36 Q715.582 1488.58 712.734 1487.67 Q709.886 1486.74 707.958 1488.66 M705.994 1486.7 Q709.076 1483.62 713.139 1484.44 Q717.202 1485.24 721.843 1489.88 Q726.471 1494.51 727.281 1498.58 Q728.091 1502.63 725.01 1505.72 Q721.929 1508.8 717.865 1508 Q713.802 1507.18 709.174 1502.55 Q704.533 1497.91 703.723 1493.86 Q702.913 1489.78 705.994 1486.7 Z" fill="#000000" fill-rule="nonzero" fill-opacity="1" /><path clip-path="url(#clip480)" d="M867.941 1544.11 Q866.026 1546.03 866.947 1548.89 Q867.867 1551.73 871.648 1555.51 Q875.417 1559.28 878.265 1560.21 Q881.113 1561.12 883.028 1559.2 Q884.956 1557.27 884.035 1554.44 Q883.114 1551.58 879.345 1547.81 Q875.564 1544.03 872.716 1543.12 Q869.868 1542.19 867.941 1544.11 M865.977 1542.15 Q869.058 1539.07 873.122 1539.89 Q877.185 1540.69 881.825 1545.33 Q886.453 1549.96 887.264 1554.03 Q888.074 1558.08 884.992 1561.17 Q881.911 1564.25 877.848 1563.45 Q873.784 1562.63 869.156 1558 Q864.516 1553.36 863.706 1549.31 Q862.896 1545.23 865.977 1542.15 Z" fill="#000000" fill-rule="nonzero" fill-opacity="1" /><path clip-path="url(#clip480)" d="M892.211 1547 L894.801 1544.41 L897.919 1547.53 L895.329 1550.12 L892.211 1547 Z" fill="#000000" fill-rule="nonzero" fill-opacity="1" /><path clip-path="url(#clip480)" d="M885.017 1523.77 L894.752 1514.04 L896.839 1516.13 L889.375 1523.59 L893.868 1528.08 Q894.224 1527.36 894.678 1526.73 Q895.12 1526.09 895.66 1525.55 Q898.729 1522.48 902.204 1522.37 Q905.678 1522.26 908.55 1525.14 Q911.509 1528.09 911.312 1531.58 Q911.104 1535.05 907.752 1538.41 Q906.598 1539.56 905.199 1540.57 Q903.812 1541.56 902.142 1542.45 L899.65 1539.95 Q901.357 1539.45 902.83 1538.57 Q904.303 1537.68 905.616 1536.37 Q907.74 1534.24 907.863 1531.89 Q907.986 1529.53 906.071 1527.62 Q904.155 1525.7 901.798 1525.82 Q899.441 1525.95 897.318 1528.07 Q896.323 1529.06 895.55 1530.28 Q894.789 1531.48 894.224 1532.98 L885.017 1523.77 Z" fill="#000000" fill-rule="nonzero" fill-opacity="1" /><path clip-path="url(#clip480)" d="M900.362 1508.43 L912.147 1496.64 L913.203 1497.7 L923.822 1521.62 L921.232 1524.22 L911.251 1501.71 L902.449 1510.52 L900.362 1508.43 Z" fill="#000000" fill-rule="nonzero" fill-opacity="1" /><path clip-path="url(#clip480)" d="M917.009 1491.78 L926.743 1482.05 L928.83 1484.13 L921.367 1491.6 L925.86 1496.09 Q926.216 1495.37 926.67 1494.74 Q927.112 1494.1 927.652 1493.56 Q930.721 1490.49 934.195 1490.38 Q937.669 1490.27 940.542 1493.14 Q943.5 1496.1 943.304 1499.59 Q943.095 1503.06 939.744 1506.41 Q938.59 1507.57 937.19 1508.58 Q935.803 1509.57 934.134 1510.45 L931.642 1507.96 Q933.348 1507.46 934.821 1506.57 Q936.294 1505.69 937.608 1504.38 Q939.732 1502.25 939.854 1499.9 Q939.977 1497.54 938.062 1495.62 Q936.147 1493.71 933.79 1493.83 Q931.433 1493.95 929.309 1496.08 Q928.315 1497.07 927.541 1498.29 Q926.78 1499.49 926.216 1500.99 L917.009 1491.78 Z" fill="#000000" fill-rule="nonzero" fill-opacity="1" /><path clip-path="url(#clip480)" d="M1082.85 1544.64 Q1080.93 1546.56 1081.85 1549.42 Q1082.77 1552.25 1086.55 1556.03 Q1090.32 1559.8 1093.17 1560.74 Q1096.02 1561.65 1097.93 1559.73 Q1099.86 1557.8 1098.94 1554.97 Q1098.02 1552.11 1094.25 1548.34 Q1090.47 1544.56 1087.62 1543.65 Q1084.77 1542.72 1082.85 1544.64 M1080.88 1542.68 Q1083.96 1539.6 1088.03 1540.42 Q1092.09 1541.22 1096.73 1545.86 Q1101.36 1550.49 1102.17 1554.56 Q1102.98 1558.61 1099.9 1561.69 Q1096.82 1564.78 1092.75 1563.98 Q1088.69 1563.15 1084.06 1558.53 Q1079.42 1553.89 1078.61 1549.84 Q1077.8 1545.76 1080.88 1542.68 Z" fill="#000000" fill-rule="nonzero" fill-opacity="1" /><path clip-path="url(#clip480)" d="M1107.12 1547.53 L1109.71 1544.94 L1112.83 1548.06 L1110.23 1550.65 L1107.12 1547.53 Z" fill="#000000" fill-rule="nonzero" fill-opacity="1" /><path clip-path="url(#clip480)" d="M1113.68 1526.89 Q1112.01 1528.56 1112.17 1530.68 Q1112.35 1532.8 1114.33 1534.78 Q1116.31 1536.76 1118.44 1536.95 Q1120.56 1537.11 1122.23 1535.44 Q1123.9 1533.77 1123.73 1531.65 Q1123.55 1529.52 1121.58 1527.54 Q1119.59 1525.55 1117.47 1525.39 Q1115.35 1525.22 1113.68 1526.89 M1110.84 1514.2 L1113.1 1516.46 Q1111.72 1516.95 1110.53 1517.67 Q1109.35 1518.38 1108.42 1519.32 Q1105.96 1521.77 1106.32 1524.73 Q1106.69 1527.68 1109.85 1531.21 Q1109.51 1529.42 1110.04 1527.76 Q1110.55 1526.09 1111.87 1524.78 Q1114.63 1522.02 1117.91 1522.1 Q1121.19 1522.17 1124.07 1525.05 Q1126.89 1527.87 1126.93 1531.25 Q1126.97 1534.63 1124.19 1537.4 Q1121.01 1540.58 1116.9 1539.83 Q1112.78 1539.07 1108.15 1534.44 Q1103.8 1530.1 1103.29 1525.46 Q1102.76 1520.8 1106.23 1517.33 Q1107.17 1516.4 1108.3 1515.63 Q1109.44 1514.86 1110.84 1514.2 Z" fill="#000000" fill-rule="nonzero" fill-opacity="1" /><path clip-path="url(#clip480)" d="M1122.83 1504.66 Q1120.91 1506.57 1121.84 1509.43 Q1122.76 1512.27 1126.54 1516.05 Q1130.31 1519.82 1133.15 1520.75 Q1136 1521.66 1137.92 1519.75 Q1139.84 1517.82 1138.92 1514.98 Q1138 1512.12 1134.23 1508.35 Q1130.45 1504.57 1127.61 1503.67 Q1124.76 1502.73 1122.83 1504.66 M1120.87 1502.7 Q1123.95 1499.61 1128.01 1500.44 Q1132.07 1501.23 1136.71 1505.87 Q1141.34 1510.5 1142.15 1514.58 Q1142.96 1518.63 1139.88 1521.71 Q1136.8 1524.79 1132.74 1523.99 Q1128.67 1523.17 1124.05 1518.54 Q1119.41 1513.9 1118.59 1509.85 Q1117.78 1505.78 1120.87 1502.7 Z" fill="#000000" fill-rule="nonzero" fill-opacity="1" /><path clip-path="url(#clip480)" d="M1138.83 1488.66 Q1136.91 1490.58 1137.83 1493.44 Q1138.75 1496.27 1142.53 1500.06 Q1146.3 1503.82 1149.15 1504.76 Q1152 1505.67 1153.91 1503.75 Q1155.84 1501.82 1154.92 1498.99 Q1154 1496.13 1150.23 1492.36 Q1146.45 1488.58 1143.6 1487.67 Q1140.75 1486.74 1138.83 1488.66 M1136.86 1486.7 Q1139.94 1483.62 1144.01 1484.44 Q1148.07 1485.24 1152.71 1489.88 Q1157.34 1494.51 1158.15 1498.58 Q1158.96 1502.63 1155.88 1505.72 Q1152.8 1508.8 1148.73 1508 Q1144.67 1507.18 1140.04 1502.55 Q1135.4 1497.91 1134.59 1493.86 Q1133.78 1489.78 1136.86 1486.7 Z" fill="#000000" fill-rule="nonzero" fill-opacity="1" /><polyline clip-path="url(#clip480)" style="stroke:#000000; stroke-linecap:round; stroke-linejoin:round; stroke-width:4; stroke-opacity:1; fill:none" points="161.818,1456.91 161.818,892.306 "/>
<polyline clip-path="url(#clip480)" style="stroke:#000000; stroke-linecap:round; stroke-linejoin:round; stroke-width:4; stroke-opacity:1; fill:none" points="161.818,1440.93 180.716,1440.93 "/>
<polyline clip-path="url(#clip480)" style="stroke:#000000; stroke-linecap:round; stroke-linejoin:round; stroke-width:4; stroke-opacity:1; fill:none" points="161.818,1321.78 180.716,1321.78 "/>
<polyline clip-path="url(#clip480)" style="stroke:#000000; stroke-linecap:round; stroke-linejoin:round; stroke-width:4; stroke-opacity:1; fill:none" points="161.818,1202.62 180.716,1202.62 "/>
<polyline clip-path="url(#clip480)" style="stroke:#000000; stroke-linecap:round; stroke-linejoin:round; stroke-width:4; stroke-opacity:1; fill:none" points="161.818,1083.46 180.716,1083.46 "/>
<polyline clip-path="url(#clip480)" style="stroke:#000000; stroke-linecap:round; stroke-linejoin:round; stroke-width:4; stroke-opacity:1; fill:none" points="161.818,964.307 180.716,964.307 "/>
<path clip-path="url(#clip480)" d="M60.315 1430.28 Q57.6067 1430.28 56.2352 1432.96 Q54.881 1435.61 54.881 1440.96 Q54.881 1446.29 56.2352 1448.96 Q57.6067 1451.62 60.315 1451.62 Q63.0407 1451.62 64.3948 1448.96 Q65.7664 1446.29 65.7664 1440.96 Q65.7664 1435.61 64.3948 1432.96 Q63.0407 1430.28 60.315 1430.28 M60.315 1427.51 Q64.6726 1427.51 66.9643 1430.96 Q69.2733 1434.4 69.2733 1440.96 Q69.2733 1447.51 66.9643 1450.96 Q64.6726 1454.4 60.315 1454.4 Q55.9574 1454.4 53.6484 1450.96 Q51.3567 1447.51 51.3567 1440.96 Q51.3567 1434.4 53.6484 1430.96 Q55.9574 1427.51 60.315 1427.51 Z" fill="#000000" fill-rule="nonzero" fill-opacity="1" /><path clip-path="url(#clip480)" d="M75.4364 1449.49 L79.0996 1449.49 L79.0996 1453.89 L75.4364 1453.89 L75.4364 1449.49 Z" fill="#000000" fill-rule="nonzero" fill-opacity="1" /><path clip-path="url(#clip480)" d="M94.2384 1430.28 Q91.5301 1430.28 90.1586 1432.96 Q88.8044 1435.61 88.8044 1440.96 Q88.8044 1446.29 90.1586 1448.96 Q91.5301 1451.62 94.2384 1451.62 Q96.9641 1451.62 98.3183 1448.96 Q99.6898 1446.29 99.6898 1440.96 Q99.6898 1435.61 98.3183 1432.96 Q96.9641 1430.28 94.2384 1430.28 M94.2384 1427.51 Q98.596 1427.51 100.888 1430.96 Q103.197 1434.4 103.197 1440.96 Q103.197 1447.51 100.888 1450.96 Q98.596 1454.4 94.2384 1454.4 Q89.8808 1454.4 87.5718 1450.96 Q85.2801 1447.51 85.2801 1440.96 Q85.2801 1434.4 87.5718 1430.96 Q89.8808 1427.51 94.2384 1427.51 Z" fill="#000000" fill-rule="nonzero" fill-opacity="1" /><path clip-path="url(#clip480)" d="M116.86 1430.28 Q114.152 1430.28 112.78 1432.96 Q111.426 1435.61 111.426 1440.96 Q111.426 1446.29 112.78 1448.96 Q114.152 1451.62 116.86 1451.62 Q119.586 1451.62 120.94 1448.96 Q122.311 1446.29 122.311 1440.96 Q122.311 1435.61 120.94 1432.96 Q119.586 1430.28 116.86 1430.28 M116.86 1427.51 Q121.217 1427.51 123.509 1430.96 Q125.818 1434.4 125.818 1440.96 Q125.818 1447.51 123.509 1450.96 Q121.217 1454.4 116.86 1454.4 Q112.502 1454.4 110.193 1450.96 Q107.902 1447.51 107.902 1440.96 Q107.902 1434.4 110.193 1430.96 Q112.502 1427.51 116.86 1427.51 Z" fill="#000000" fill-rule="nonzero" fill-opacity="1" /><path clip-path="url(#clip480)" d="M61.2351 1311.13 Q58.5268 1311.13 57.1553 1313.8 Q55.8011 1316.46 55.8011 1321.8 Q55.8011 1327.13 57.1553 1329.81 Q58.5268 1332.46 61.2351 1332.46 Q63.9608 1332.46 65.315 1329.81 Q66.6865 1327.13 66.6865 1321.8 Q66.6865 1316.46 65.315 1313.8 Q63.9608 1311.13 61.2351 1311.13 M61.2351 1308.35 Q65.5927 1308.35 67.8844 1311.8 Q70.1934 1315.24 70.1934 1321.8 Q70.1934 1328.35 67.8844 1331.8 Q65.5927 1335.24 61.2351 1335.24 Q56.8775 1335.24 54.5685 1331.8 Q52.2768 1328.35 52.2768 1321.8 Q52.2768 1315.24 54.5685 1311.8 Q56.8775 1308.35 61.2351 1308.35 Z" fill="#000000" fill-rule="nonzero" fill-opacity="1" /><path clip-path="url(#clip480)" d="M76.3566 1330.33 L80.0197 1330.33 L80.0197 1334.74 L76.3566 1334.74 L76.3566 1330.33 Z" fill="#000000" fill-rule="nonzero" fill-opacity="1" /><path clip-path="url(#clip480)" d="M95.1586 1311.13 Q92.4502 1311.13 91.0787 1313.8 Q89.7246 1316.46 89.7246 1321.8 Q89.7246 1327.13 91.0787 1329.81 Q92.4502 1332.46 95.1586 1332.46 Q97.8842 1332.46 99.2384 1329.81 Q100.61 1327.13 100.61 1321.8 Q100.61 1316.46 99.2384 1313.8 Q97.8842 1311.13 95.1586 1311.13 M95.1586 1308.35 Q99.5162 1308.35 101.808 1311.8 Q104.117 1315.24 104.117 1321.8 Q104.117 1328.35 101.808 1331.8 Q99.5162 1335.24 95.1586 1335.24 Q90.8009 1335.24 88.4919 1331.8 Q86.2003 1328.35 86.2003 1321.8 Q86.2003 1315.24 88.4919 1311.8 Q90.8009 1308.35 95.1586 1308.35 Z" fill="#000000" fill-rule="nonzero" fill-opacity="1" /><path clip-path="url(#clip480)" d="M110.888 1331.79 L116.617 1331.79 L116.617 1312.01 L110.384 1313.26 L110.384 1310.07 L116.582 1308.82 L120.089 1308.82 L120.089 1331.79 L125.818 1331.79 L125.818 1334.74 L110.888 1334.74 L110.888 1331.79 Z" fill="#000000" fill-rule="nonzero" fill-opacity="1" /><path clip-path="url(#clip480)" d="M61.5129 1191.97 Q58.8046 1191.97 57.4331 1194.64 Q56.0789 1197.3 56.0789 1202.65 Q56.0789 1207.98 57.4331 1210.65 Q58.8046 1213.31 61.5129 1213.31 Q64.2386 1213.31 65.5927 1210.65 Q66.9643 1207.98 66.9643 1202.65 Q66.9643 1197.3 65.5927 1194.64 Q64.2386 1191.97 61.5129 1191.97 M61.5129 1189.19 Q65.8705 1189.19 68.1622 1192.65 Q70.4712 1196.08 70.4712 1202.65 Q70.4712 1209.19 68.1622 1212.65 Q65.8705 1216.08 61.5129 1216.08 Q57.1553 1216.08 54.8463 1212.65 Q52.5546 1209.19 52.5546 1202.65 Q52.5546 1196.08 54.8463 1192.65 Q57.1553 1189.19 61.5129 1189.19 Z" fill="#000000" fill-rule="nonzero" fill-opacity="1" /><path clip-path="url(#clip480)" d="M76.6343 1211.17 L80.2975 1211.17 L80.2975 1215.58 L76.6343 1215.58 L76.6343 1211.17 Z" fill="#000000" fill-rule="nonzero" fill-opacity="1" /><path clip-path="url(#clip480)" d="M95.4363 1191.97 Q92.728 1191.97 91.3565 1194.64 Q90.0023 1197.3 90.0023 1202.65 Q90.0023 1207.98 91.3565 1210.65 Q92.728 1213.31 95.4363 1213.31 Q98.162 1213.31 99.5162 1210.65 Q100.888 1207.98 100.888 1202.65 Q100.888 1197.3 99.5162 1194.64 Q98.162 1191.97 95.4363 1191.97 M95.4363 1189.19 Q99.7939 1189.19 102.086 1192.65 Q104.395 1196.08 104.395 1202.65 Q104.395 1209.19 102.086 1212.65 Q99.7939 1216.08 95.4363 1216.08 Q91.0787 1216.08 88.7697 1212.65 Q86.478 1209.19 86.478 1202.65 Q86.478 1196.08 88.7697 1192.65 Q91.0787 1189.19 95.4363 1189.19 Z" fill="#000000" fill-rule="nonzero" fill-opacity="1" /><path clip-path="url(#clip480)" d="M113.579 1212.63 L125.818 1212.63 L125.818 1215.58 L109.36 1215.58 L109.36 1212.63 Q111.356 1210.56 114.794 1207.09 Q118.249 1203.6 119.134 1202.59 Q120.818 1200.7 121.478 1199.4 Q122.155 1198.08 122.155 1196.81 Q122.155 1194.75 120.697 1193.45 Q119.256 1192.14 116.929 1192.14 Q115.28 1192.14 113.44 1192.72 Q111.617 1193.29 109.533 1194.45 L109.533 1190.91 Q111.652 1190.06 113.492 1189.63 Q115.332 1189.19 116.86 1189.19 Q120.888 1189.19 123.283 1191.21 Q125.679 1193.22 125.679 1196.59 Q125.679 1198.19 125.072 1199.63 Q124.481 1201.05 122.901 1202.99 Q122.467 1203.5 120.141 1205.91 Q117.815 1208.31 113.579 1212.63 Z" fill="#000000" fill-rule="nonzero" fill-opacity="1" /><path clip-path="url(#clip480)" d="M60.8011 1072.81 Q58.0928 1072.81 56.7213 1075.49 Q55.3671 1078.14 55.3671 1083.49 Q55.3671 1088.82 56.7213 1091.49 Q58.0928 1094.15 60.8011 1094.15 Q63.5268 1094.15 64.8809 1091.49 Q66.2525 1088.82 66.2525 1083.49 Q66.2525 1078.14 64.8809 1075.49 Q63.5268 1072.81 60.8011 1072.81 M60.8011 1070.04 Q65.1587 1070.04 67.4504 1073.49 Q69.7594 1076.93 69.7594 1083.49 Q69.7594 1090.04 67.4504 1093.49 Q65.1587 1096.93 60.8011 1096.93 Q56.4435 1096.93 54.1345 1093.49 Q51.8428 1090.04 51.8428 1083.49 Q51.8428 1076.93 54.1345 1073.49 Q56.4435 1070.04 60.8011 1070.04 Z" fill="#000000" fill-rule="nonzero" fill-opacity="1" /><path clip-path="url(#clip480)" d="M75.9225 1092.01 L79.5857 1092.01 L79.5857 1096.42 L75.9225 1096.42 L75.9225 1092.01 Z" fill="#000000" fill-rule="nonzero" fill-opacity="1" /><path clip-path="url(#clip480)" d="M94.7245 1072.81 Q92.0162 1072.81 90.6447 1075.49 Q89.2905 1078.14 89.2905 1083.49 Q89.2905 1088.82 90.6447 1091.49 Q92.0162 1094.15 94.7245 1094.15 Q97.4502 1094.15 98.8044 1091.49 Q100.176 1088.82 100.176 1083.49 Q100.176 1078.14 98.8044 1075.49 Q97.4502 1072.81 94.7245 1072.81 M94.7245 1070.04 Q99.0821 1070.04 101.374 1073.49 Q103.683 1076.93 103.683 1083.49 Q103.683 1090.04 101.374 1093.49 Q99.0821 1096.93 94.7245 1096.93 Q90.3669 1096.93 88.0579 1093.49 Q85.7662 1090.04 85.7662 1083.49 Q85.7662 1076.93 88.0579 1073.49 Q90.3669 1070.04 94.7245 1070.04 Z" fill="#000000" fill-rule="nonzero" fill-opacity="1" /><path clip-path="url(#clip480)" d="M120.471 1082.45 Q122.988 1082.99 124.395 1084.69 Q125.818 1086.39 125.818 1088.89 Q125.818 1092.73 123.179 1094.83 Q120.54 1096.93 115.679 1096.93 Q114.047 1096.93 112.311 1096.6 Q110.593 1096.29 108.752 1095.64 L108.752 1092.26 Q110.211 1093.11 111.947 1093.54 Q113.683 1093.98 115.575 1093.98 Q118.874 1093.98 120.592 1092.67 Q122.329 1091.37 122.329 1088.89 Q122.329 1086.6 120.714 1085.31 Q119.117 1084.01 116.252 1084.01 L113.231 1084.01 L113.231 1081.13 L116.391 1081.13 Q118.978 1081.13 120.349 1080.1 Q121.721 1079.06 121.721 1077.12 Q121.721 1075.12 120.297 1074.06 Q118.891 1072.99 116.252 1072.99 Q114.811 1072.99 113.162 1073.3 Q111.513 1073.61 109.533 1074.27 L109.533 1071.15 Q111.53 1070.59 113.266 1070.31 Q115.02 1070.04 116.565 1070.04 Q120.558 1070.04 122.884 1071.86 Q125.21 1073.66 125.21 1076.75 Q125.21 1078.91 123.978 1080.4 Q122.745 1081.88 120.471 1082.45 Z" fill="#000000" fill-rule="nonzero" fill-opacity="1" /><path clip-path="url(#clip480)" d="M59.9504 953.656 Q57.2421 953.656 55.8706 956.33 Q54.5164 958.986 54.5164 964.333 Q54.5164 969.663 55.8706 972.337 Q57.2421 974.993 59.9504 974.993 Q62.6761 974.993 64.0303 972.337 Q65.4018 969.663 65.4018 964.333 Q65.4018 958.986 64.0303 956.33 Q62.6761 953.656 59.9504 953.656 M59.9504 950.878 Q64.308 950.878 66.5997 954.333 Q68.9087 957.771 68.9087 964.333 Q68.9087 970.878 66.5997 974.333 Q64.308 977.771 59.9504 977.771 Q55.5928 977.771 53.2838 974.333 Q50.9921 970.878 50.9921 964.333 Q50.9921 957.771 53.2838 954.333 Q55.5928 950.878 59.9504 950.878 Z" fill="#000000" fill-rule="nonzero" fill-opacity="1" /><path clip-path="url(#clip480)" d="M75.0719 972.857 L78.735 972.857 L78.735 977.267 L75.0719 977.267 L75.0719 972.857 Z" fill="#000000" fill-rule="nonzero" fill-opacity="1" /><path clip-path="url(#clip480)" d="M93.8738 953.656 Q91.1655 953.656 89.794 956.33 Q88.4398 958.986 88.4398 964.333 Q88.4398 969.663 89.794 972.337 Q91.1655 974.993 93.8738 974.993 Q96.5995 974.993 97.9537 972.337 Q99.3252 969.663 99.3252 964.333 Q99.3252 958.986 97.9537 956.33 Q96.5995 953.656 93.8738 953.656 M93.8738 950.878 Q98.2315 950.878 100.523 954.333 Q102.832 957.771 102.832 964.333 Q102.832 970.878 100.523 974.333 Q98.2315 977.771 93.8738 977.771 Q89.5162 977.771 87.2072 974.333 Q84.9156 970.878 84.9156 964.333 Q84.9156 957.771 87.2072 954.333 Q89.5162 950.878 93.8738 950.878 Z" fill="#000000" fill-rule="nonzero" fill-opacity="1" /><path clip-path="url(#clip480)" d="M118.631 954.403 L109.777 968.239 L118.631 968.239 L118.631 954.403 M117.711 951.347 L122.12 951.347 L122.12 968.239 L125.818 968.239 L125.818 971.156 L122.12 971.156 L122.12 977.267 L118.631 977.267 L118.631 971.156 L106.929 971.156 L106.929 967.771 L117.711 951.347 Z" fill="#000000" fill-rule="nonzero" fill-opacity="1" /><path clip-path="url(#clip480)" d="M173.716 813.68 Q170.198 813.68 168.3 816.226 Q166.309 818.888 166.309 823.286 Q166.309 827.939 168.276 830.624 Q170.267 833.286 173.716 833.286 Q177.119 833.286 179.11 830.601 Q181.1 827.916 181.1 823.286 Q181.1 819.05 179.11 816.226 Q177.281 813.68 173.716 813.68 M173.716 810.3 L187.86 810.3 L187.86 814.559 L183.091 814.559 Q185.614 818.171 185.614 823.286 Q185.614 829.652 182.443 833.263 Q179.272 836.897 173.716 836.897 Q168.138 836.897 164.989 833.263 Q161.818 829.652 161.818 823.286 Q161.818 816.874 164.989 813.286 Q167.605 810.3 173.716 810.3 Z" fill="#000000" fill-rule="nonzero" fill-opacity="1" /><path clip-path="url(#clip480)" d="M198.878 836.226 L190.961 810.3 L195.545 810.3 L202.235 832.059 Q205.012 829.189 207.327 825.208 Q209.086 822.221 209.179 819.629 Q209.225 818.402 208.67 816.087 Q208.022 813.333 205.568 810.3 L209.873 810.3 L209.873 810.3 Q211.471 812.36 212.535 815.231 Q213.508 817.87 213.508 819.675 Q213.508 824.212 210.36 828.263 Q206.262 833.541 203.415 836.226 L198.878 836.226 Z" fill="#000000" fill-rule="nonzero" fill-opacity="1" /><polyline clip-path="url(#clip484)" style="stroke:#009af9; stroke-linecap:round; stroke-linejoin:round; stroke-width:4; stroke-opacity:1; fill:none" points="189.869,959.024 248.307,1016.49 306.746,1074.74 365.185,1133.79 423.623,1193.64 482.062,1254.27 540.501,1315.7 598.939,1377.92 657.378,1440.93 715.817,1377.13 774.256,1312.53 832.694,1247.14 891.133,1180.95 949.572,1113.98 1008.01,1046.2 1066.45,977.642 1124.89,908.286 "/>
<circle clip-path="url(#clip484)" cx="657.378" cy="1440.93" r="10.8" fill="#ff0000" fill-rule="evenodd" fill-opacity="1" stroke="#000000" stroke-opacity="1" stroke-width="3.2"/>
</svg>
