<?xml version="1.0" encoding="utf-8"?>
<svg xmlns="http://www.w3.org/2000/svg" xmlns:xlink="http://www.w3.org/1999/xlink" width="600" height="400" viewBox="0 0 2400 1600">
<defs>
  <clipPath id="clip120">
    <rect x="0" y="0" width="2400" height="1600"/>
  </clipPath>
</defs>
<path clip-path="url(#clip120)" d="M0 1600 L2400 1600 L2400 0 L0 0  Z" fill="#ffffff" fill-rule="evenodd" fill-opacity="1"/>
<defs>
  <clipPath id="clip121">
    <rect x="480" y="0" width="1681" height="1600"/>
  </clipPath>
</defs>
<path clip-path="url(#clip120)" d="M148.589 662.16 L1162.98 662.16 L1162.98 97.5521 L148.589 97.5521  Z" fill="#ffffff" fill-rule="evenodd" fill-opacity="1"/>
<defs>
  <clipPath id="clip122">
    <rect x="148" y="97" width="1015" height="566"/>
  </clipPath>
</defs>
<polyline clip-path="url(#clip122)" style="stroke:#000000; stroke-linecap:round; stroke-linejoin:round; stroke-width:2; stroke-opacity:0.1; fill:none" points="204.382,662.16 204.382,97.5521 "/>
<polyline clip-path="url(#clip122)" style="stroke:#000000; stroke-linecap:round; stroke-linejoin:round; stroke-width:2; stroke-opacity:0.1; fill:none" points="462.327,662.16 462.327,97.5521 "/>
<polyline clip-path="url(#clip122)" style="stroke:#000000; stroke-linecap:round; stroke-linejoin:round; stroke-width:2; stroke-opacity:0.1; fill:none" points="720.271,662.16 720.271,97.5521 "/>
<polyline clip-path="url(#clip122)" style="stroke:#000000; stroke-linecap:round; stroke-linejoin:round; stroke-width:2; stroke-opacity:0.1; fill:none" points="978.216,662.16 978.216,97.5521 "/>
<polyline clip-path="url(#clip122)" style="stroke:#000000; stroke-linecap:round; stroke-linejoin:round; stroke-width:2; stroke-opacity:0.1; fill:none" points="148.589,662.16 1162.98,662.16 "/>
<polyline clip-path="url(#clip122)" style="stroke:#000000; stroke-linecap:round; stroke-linejoin:round; stroke-width:2; stroke-opacity:0.1; fill:none" points="148.589,542.031 1162.98,542.031 "/>
<polyline clip-path="url(#clip122)" style="stroke:#000000; stroke-linecap:round; stroke-linejoin:round; stroke-width:2; stroke-opacity:0.1; fill:none" points="148.589,421.902 1162.98,421.902 "/>
<polyline clip-path="url(#clip122)" style="stroke:#000000; stroke-linecap:round; stroke-linejoin:round; stroke-width:2; stroke-opacity:0.1; fill:none" points="148.589,301.772 1162.98,301.772 "/>
<polyline clip-path="url(#clip122)" style="stroke:#000000; stroke-linecap:round; stroke-linejoin:round; stroke-width:2; stroke-opacity:0.1; fill:none" points="148.589,181.643 1162.98,181.643 "/>
<polyline clip-path="url(#clip120)" style="stroke:#000000; stroke-linecap:round; stroke-linejoin:round; stroke-width:4; stroke-opacity:1; fill:none" points="148.589,662.16 1162.98,662.16 "/>
<polyline clip-path="url(#clip120)" style="stroke:#000000; stroke-linecap:round; stroke-linejoin:round; stroke-width:4; stroke-opacity:1; fill:none" points="204.382,662.16 204.382,643.263 "/>
<polyline clip-path="url(#clip120)" style="stroke:#000000; stroke-linecap:round; stroke-linejoin:round; stroke-width:4; stroke-opacity:1; fill:none" points="462.327,662.16 462.327,643.263 "/>
<polyline clip-path="url(#clip120)" style="stroke:#000000; stroke-linecap:round; stroke-linejoin:round; stroke-width:4; stroke-opacity:1; fill:none" points="720.271,662.16 720.271,643.263 "/>
<polyline clip-path="url(#clip120)" style="stroke:#000000; stroke-linecap:round; stroke-linejoin:round; stroke-width:4; stroke-opacity:1; fill:none" points="978.216,662.16 978.216,643.263 "/>
<path clip-path="url(#clip120)" d="M151.012 733.414 Q149.097 735.329 150.018 738.189 Q150.938 741.025 154.719 744.806 Q158.488 748.575 161.336 749.508 Q164.184 750.416 166.099 748.501 Q168.027 746.574 167.106 743.738 Q166.185 740.878 162.417 737.109 Q158.636 733.328 155.787 732.42 Q152.939 731.487 151.012 733.414 M149.048 731.45 Q152.129 728.369 156.193 729.191 Q160.256 729.989 164.896 734.629 Q169.524 739.257 170.335 743.333 Q171.145 747.384 168.064 750.466 Q164.982 753.547 160.919 752.749 Q156.856 751.926 152.227 747.298 Q147.587 742.658 146.777 738.607 Q145.967 734.531 149.048 731.45 Z" fill="#000000" fill-rule="nonzero" fill-opacity="1" /><path clip-path="url(#clip120)" d="M175.282 736.299 L177.872 733.709 L180.99 736.827 L178.4 739.417 L175.282 736.299 Z" fill="#000000" fill-rule="nonzero" fill-opacity="1" /><path clip-path="url(#clip120)" d="M182.991 717.418 Q181.224 719.186 181.15 721.15 Q181.089 723.102 182.746 724.759 Q184.403 726.417 186.355 726.355 Q188.319 726.282 190.087 724.514 Q191.855 722.746 191.928 720.782 Q191.99 718.806 190.345 717.161 Q188.687 715.503 186.723 715.577 Q184.771 715.638 182.991 717.418 M179.456 718.842 Q177.467 720.045 175.478 719.849 Q173.502 719.64 171.931 718.069 Q169.733 715.872 170.015 713.036 Q170.31 710.188 173.035 707.462 Q175.773 704.725 178.609 704.442 Q181.445 704.16 183.642 706.358 Q185.213 707.929 185.41 709.918 Q185.618 711.894 184.428 713.871 Q186.637 712.496 188.847 712.717 Q191.069 712.925 192.824 714.681 Q195.488 717.345 195.28 720.401 Q195.083 723.446 192.051 726.478 Q189.019 729.51 185.962 729.719 Q182.918 729.915 180.254 727.251 Q178.498 725.496 178.29 723.274 Q178.081 721.052 179.456 718.842 M174.631 715.835 Q176.055 717.259 177.737 717.173 Q179.431 717.075 181.039 715.466 Q182.635 713.871 182.734 712.176 Q182.844 710.47 181.42 709.046 Q179.996 707.622 178.29 707.732 Q176.595 707.831 175 709.427 Q173.391 711.035 173.293 712.729 Q173.207 714.411 174.631 715.835 Z" fill="#000000" fill-rule="nonzero" fill-opacity="1" /><path clip-path="url(#clip120)" d="M183.433 697.727 L195.218 685.942 L196.274 686.998 L206.893 710.924 L204.303 713.515 L194.322 691.012 L185.52 699.814 L183.433 697.727 Z" fill="#000000" fill-rule="nonzero" fill-opacity="1" /><path clip-path="url(#clip120)" d="M408.527 733.844 Q406.612 735.759 407.533 738.619 Q408.453 741.455 412.234 745.236 Q416.003 749.005 418.851 749.938 Q421.699 750.846 423.614 748.931 Q425.542 747.004 424.621 744.168 Q423.7 741.308 419.931 737.539 Q416.15 733.758 413.302 732.849 Q410.454 731.916 408.527 733.844 M406.563 731.88 Q409.644 728.798 413.707 729.621 Q417.771 730.419 422.411 735.059 Q427.039 739.687 427.85 743.763 Q428.66 747.814 425.578 750.895 Q422.497 753.977 418.434 753.179 Q414.37 752.356 409.742 747.728 Q405.102 743.088 404.292 739.037 Q403.481 734.961 406.563 731.88 Z" fill="#000000" fill-rule="nonzero" fill-opacity="1" /><path clip-path="url(#clip120)" d="M432.797 736.729 L435.387 734.138 L438.505 737.256 L435.915 739.847 L432.797 736.729 Z" fill="#000000" fill-rule="nonzero" fill-opacity="1" /><path clip-path="url(#clip120)" d="M440.506 717.848 Q438.738 719.616 438.665 721.58 Q438.603 723.532 440.261 725.189 Q441.918 726.846 443.87 726.785 Q445.834 726.711 447.602 724.944 Q449.369 723.176 449.443 721.212 Q449.505 719.235 447.86 717.59 Q446.202 715.933 444.238 716.007 Q442.286 716.068 440.506 717.848 M436.971 719.272 Q434.982 720.475 432.993 720.279 Q431.017 720.07 429.445 718.499 Q427.248 716.301 427.53 713.465 Q427.825 710.617 430.55 707.892 Q433.288 705.155 436.124 704.872 Q438.959 704.59 441.157 706.787 Q442.728 708.359 442.925 710.347 Q443.133 712.324 441.942 714.3 Q444.152 712.925 446.362 713.146 Q448.584 713.355 450.339 715.11 Q453.003 717.774 452.795 720.831 Q452.598 723.876 449.566 726.908 Q446.534 729.94 443.477 730.149 Q440.432 730.345 437.769 727.681 Q436.013 725.926 435.804 723.704 Q435.596 721.482 436.971 719.272 M432.146 716.264 Q433.57 717.688 435.252 717.602 Q436.946 717.504 438.554 715.896 Q440.15 714.3 440.248 712.606 Q440.359 710.9 438.935 709.476 Q437.511 708.052 435.804 708.162 Q434.11 708.26 432.514 709.856 Q430.906 711.464 430.808 713.159 Q430.722 714.84 432.146 716.264 Z" fill="#000000" fill-rule="nonzero" fill-opacity="1" /><path clip-path="url(#clip120)" d="M456.502 701.852 Q454.734 703.62 454.66 705.584 Q454.599 707.536 456.256 709.193 Q457.914 710.851 459.866 710.789 Q461.83 710.716 463.597 708.948 Q465.365 707.18 465.439 705.216 Q465.5 703.239 463.855 701.594 Q462.198 699.937 460.234 700.011 Q458.282 700.072 456.502 701.852 M452.966 703.276 Q450.978 704.479 448.989 704.283 Q447.012 704.074 445.441 702.503 Q443.244 700.305 443.526 697.47 Q443.821 694.622 446.546 691.896 Q449.284 689.159 452.119 688.876 Q454.955 688.594 457.153 690.791 Q458.724 692.363 458.92 694.352 Q459.129 696.328 457.938 698.304 Q460.148 696.93 462.358 697.15 Q464.58 697.359 466.335 699.115 Q468.999 701.779 468.79 704.835 Q468.594 707.88 465.562 710.912 Q462.529 713.944 459.473 714.153 Q456.428 714.349 453.764 711.685 Q452.009 709.93 451.8 707.708 Q451.591 705.486 452.966 703.276 M448.142 700.269 Q449.566 701.693 451.248 701.607 Q452.942 701.509 454.55 699.9 Q456.146 698.304 456.244 696.61 Q456.355 694.904 454.931 693.48 Q453.507 692.056 451.8 692.166 Q450.106 692.265 448.51 693.861 Q446.902 695.469 446.804 697.163 Q446.718 698.845 448.142 700.269 Z" fill="#000000" fill-rule="nonzero" fill-opacity="1" /><path clip-path="url(#clip120)" d="M666.521 733.795 Q664.605 735.71 665.526 738.57 Q666.447 741.406 670.228 745.187 Q673.997 748.956 676.845 749.889 Q679.693 750.797 681.608 748.882 Q683.535 746.955 682.614 744.119 Q681.694 741.259 677.925 737.49 Q674.144 733.709 671.296 732.8 Q668.448 731.867 666.521 733.795 M664.556 731.83 Q667.638 728.749 671.701 729.572 Q675.764 730.37 680.405 735.01 Q685.033 739.638 685.843 743.714 Q686.653 747.765 683.572 750.846 Q680.491 753.927 676.427 753.129 Q672.364 752.307 667.736 747.679 Q663.095 743.039 662.285 738.987 Q661.475 734.912 664.556 731.83 Z" fill="#000000" fill-rule="nonzero" fill-opacity="1" /><path clip-path="url(#clip120)" d="M690.79 736.68 L693.381 734.089 L696.499 737.207 L693.908 739.798 L690.79 736.68 Z" fill="#000000" fill-rule="nonzero" fill-opacity="1" /><path clip-path="url(#clip120)" d="M698.5 717.799 Q696.732 719.567 696.658 721.531 Q696.597 723.483 698.254 725.14 Q699.912 726.797 701.863 726.736 Q703.828 726.662 705.595 724.894 Q707.363 723.127 707.437 721.163 Q707.498 719.186 705.853 717.541 Q704.196 715.884 702.232 715.957 Q700.28 716.019 698.5 717.799 M694.964 719.223 Q692.976 720.426 690.987 720.23 Q689.01 720.021 687.439 718.45 Q685.242 716.252 685.524 713.416 Q685.819 710.568 688.544 707.843 Q691.281 705.105 694.117 704.823 Q696.953 704.541 699.15 706.738 Q700.722 708.309 700.918 710.298 Q701.127 712.275 699.936 714.251 Q702.146 712.876 704.355 713.097 Q706.577 713.306 708.333 715.061 Q710.997 717.725 710.788 720.782 Q710.592 723.826 707.56 726.859 Q704.527 729.891 701.471 730.1 Q698.426 730.296 695.762 727.632 Q694.007 725.877 693.798 723.655 Q693.589 721.433 694.964 719.223 M690.14 716.215 Q691.564 717.639 693.246 717.553 Q694.94 717.455 696.548 715.847 Q698.144 714.251 698.242 712.557 Q698.352 710.851 696.928 709.427 Q695.504 708.003 693.798 708.113 Q692.104 708.211 690.508 709.807 Q688.9 711.415 688.802 713.109 Q688.716 714.791 690.14 716.215 Z" fill="#000000" fill-rule="nonzero" fill-opacity="1" /><path clip-path="url(#clip120)" d="M717.589 715.356 L715.33 713.097 Q716.705 712.606 717.896 711.882 Q719.087 711.158 720.007 710.237 Q722.463 707.782 722.107 704.848 Q721.751 701.889 718.571 698.341 Q718.915 700.109 718.387 701.766 Q717.859 703.424 716.533 704.749 Q713.783 707.499 710.518 707.45 Q707.253 707.376 704.368 704.492 Q701.544 701.668 701.507 698.292 Q701.471 694.916 704.245 692.142 Q707.424 688.962 711.537 689.736 Q715.649 690.485 720.29 695.125 Q724.623 699.458 725.151 704.111 Q725.679 708.739 722.205 712.213 Q721.272 713.146 720.13 713.92 Q718.989 714.693 717.589 715.356 M714.753 702.65 Q716.423 700.981 716.251 698.869 Q716.091 696.745 714.103 694.757 Q712.126 692.78 710.002 692.621 Q707.879 692.436 706.209 694.106 Q704.54 695.776 704.711 697.912 Q704.883 700.023 706.86 702 Q708.849 703.988 710.96 704.16 Q713.084 704.32 714.753 702.65 Z" fill="#000000" fill-rule="nonzero" fill-opacity="1" /><path clip-path="url(#clip120)" d="M924.367 733.893 Q922.452 735.808 923.372 738.668 Q924.293 741.504 928.074 745.285 Q931.843 749.054 934.691 749.987 Q937.539 750.895 939.454 748.98 Q941.381 747.053 940.461 744.217 Q939.54 741.357 935.771 737.588 Q931.99 733.807 929.142 732.898 Q926.294 731.966 924.367 733.893 M922.403 731.929 Q925.484 728.847 929.547 729.67 Q933.611 730.468 938.251 735.108 Q942.879 739.736 943.689 743.812 Q944.5 747.863 941.418 750.944 Q938.337 754.026 934.274 753.228 Q930.21 752.405 925.582 747.777 Q920.942 743.137 920.132 739.086 Q919.321 735.01 922.403 731.929 Z" fill="#000000" fill-rule="nonzero" fill-opacity="1" /><path clip-path="url(#clip120)" d="M948.637 736.778 L951.227 734.187 L954.345 737.306 L951.755 739.896 L948.637 736.778 Z" fill="#000000" fill-rule="nonzero" fill-opacity="1" /><path clip-path="url(#clip120)" d="M959.44 731.45 L957.181 729.191 Q958.556 728.7 959.747 727.976 Q960.937 727.251 961.858 726.331 Q964.313 723.876 963.957 720.942 Q963.601 717.983 960.422 714.435 Q960.765 716.203 960.238 717.86 Q959.71 719.518 958.384 720.843 Q955.634 723.593 952.369 723.544 Q949.103 723.47 946.218 720.586 Q943.395 717.762 943.358 714.386 Q943.321 711.01 946.096 708.236 Q949.275 705.056 953.388 705.83 Q957.5 706.579 962.14 711.219 Q966.474 715.552 967.002 720.205 Q967.53 724.833 964.055 728.307 Q963.122 729.24 961.981 730.014 Q960.839 730.787 959.44 731.45 M956.604 718.744 Q958.273 717.075 958.102 714.963 Q957.942 712.839 955.953 710.851 Q953.977 708.874 951.853 708.715 Q949.729 708.53 948.06 710.2 Q946.39 711.87 946.562 714.006 Q946.734 716.117 948.71 718.094 Q950.699 720.082 952.811 720.254 Q954.934 720.414 956.604 718.744 Z" fill="#000000" fill-rule="nonzero" fill-opacity="1" /><path clip-path="url(#clip120)" d="M964.35 693.91 Q962.435 695.825 963.356 698.685 Q964.276 701.521 968.057 705.302 Q971.826 709.071 974.674 710.004 Q977.522 710.912 979.437 708.997 Q981.365 707.07 980.444 704.234 Q979.523 701.373 975.755 697.605 Q971.974 693.824 969.125 692.915 Q966.277 691.982 964.35 693.91 M962.386 691.945 Q965.467 688.864 969.531 689.687 Q973.594 690.485 978.234 695.125 Q982.862 699.753 983.673 703.829 Q984.483 707.88 981.402 710.961 Q978.32 714.042 974.257 713.244 Q970.193 712.422 965.565 707.794 Q960.925 703.154 960.115 699.102 Q959.305 695.027 962.386 691.945 Z" fill="#000000" fill-rule="nonzero" fill-opacity="1" /><polyline clip-path="url(#clip120)" style="stroke:#000000; stroke-linecap:round; stroke-linejoin:round; stroke-width:4; stroke-opacity:1; fill:none" points="148.589,662.16 148.589,97.5521 "/>
<polyline clip-path="url(#clip120)" style="stroke:#000000; stroke-linecap:round; stroke-linejoin:round; stroke-width:4; stroke-opacity:1; fill:none" points="148.589,662.16 167.487,662.16 "/>
<polyline clip-path="url(#clip120)" style="stroke:#000000; stroke-linecap:round; stroke-linejoin:round; stroke-width:4; stroke-opacity:1; fill:none" points="148.589,542.031 167.487,542.031 "/>
<polyline clip-path="url(#clip120)" style="stroke:#000000; stroke-linecap:round; stroke-linejoin:round; stroke-width:4; stroke-opacity:1; fill:none" points="148.589,421.902 167.487,421.902 "/>
<polyline clip-path="url(#clip120)" style="stroke:#000000; stroke-linecap:round; stroke-linejoin:round; stroke-width:4; stroke-opacity:1; fill:none" points="148.589,301.772 167.487,301.772 "/>
<polyline clip-path="url(#clip120)" style="stroke:#000000; stroke-linecap:round; stroke-linejoin:round; stroke-width:4; stroke-opacity:1; fill:none" points="148.589,181.643 167.487,181.643 "/>
<path clip-path="url(#clip120)" d="M103.631 651.509 Q100.922 651.509 99.5509 654.183 Q98.1967 656.839 98.1967 662.186 Q98.1967 667.516 99.5509 670.19 Q100.922 672.846 103.631 672.846 Q106.356 672.846 107.711 670.19 Q109.082 667.516 109.082 662.186 Q109.082 656.839 107.711 654.183 Q106.356 651.509 103.631 651.509 M103.631 648.732 Q107.988 648.732 110.28 652.186 Q112.589 655.624 112.589 662.186 Q112.589 668.732 110.28 672.186 Q107.988 675.624 103.631 675.624 Q99.2731 675.624 96.9641 672.186 Q94.6724 668.732 94.6724 662.186 Q94.6724 655.624 96.9641 652.186 Q99.2731 648.732 103.631 648.732 Z" fill="#000000" fill-rule="nonzero" fill-opacity="1" /><path clip-path="url(#clip120)" d="M76.5302 552.04 L88.7697 552.04 L88.7697 554.991 L72.3115 554.991 L72.3115 552.04 Q74.308 549.974 77.7455 546.501 Q81.2003 543.012 82.0857 542.005 Q83.7697 540.113 84.4294 538.81 Q85.1065 537.491 85.1065 536.224 Q85.1065 534.158 83.6482 532.856 Q82.2072 531.554 79.8809 531.554 Q78.2316 531.554 76.3913 532.126 Q74.5684 532.699 72.4851 533.863 L72.4851 530.321 Q74.6031 529.47 76.4434 529.036 Q78.2836 528.602 79.8114 528.602 Q83.8392 528.602 86.235 530.616 Q88.6308 532.63 88.6308 535.998 Q88.6308 537.595 88.0232 539.036 Q87.4329 540.46 85.8531 542.404 Q85.419 542.908 83.0926 545.321 Q80.7663 547.717 76.5302 552.04 Z" fill="#000000" fill-rule="nonzero" fill-opacity="1" /><path clip-path="url(#clip120)" d="M103.631 531.38 Q100.922 531.38 99.5509 534.054 Q98.1967 536.71 98.1967 542.057 Q98.1967 547.387 99.5509 550.06 Q100.922 552.717 103.631 552.717 Q106.356 552.717 107.711 550.06 Q109.082 547.387 109.082 542.057 Q109.082 536.71 107.711 534.054 Q106.356 531.38 103.631 531.38 M103.631 528.602 Q107.988 528.602 110.28 532.057 Q112.589 535.495 112.589 542.057 Q112.589 548.602 110.28 552.057 Q107.988 555.494 103.631 555.494 Q99.2731 555.494 96.9641 552.057 Q94.6724 548.602 94.6724 542.057 Q94.6724 535.495 96.9641 532.057 Q99.2731 528.602 103.631 528.602 Z" fill="#000000" fill-rule="nonzero" fill-opacity="1" /><path clip-path="url(#clip120)" d="M83.1447 411.997 L74.2906 425.834 L83.1447 425.834 L83.1447 411.997 M82.2246 408.942 L86.6343 408.942 L86.6343 425.834 L90.3322 425.834 L90.3322 428.75 L86.6343 428.75 L86.6343 434.862 L83.1447 434.862 L83.1447 428.75 L71.4434 428.75 L71.4434 425.365 L82.2246 408.942 Z" fill="#000000" fill-rule="nonzero" fill-opacity="1" /><path clip-path="url(#clip120)" d="M103.631 411.251 Q100.922 411.251 99.5509 413.924 Q98.1967 416.58 98.1967 421.928 Q98.1967 427.257 99.5509 429.931 Q100.922 432.587 103.631 432.587 Q106.356 432.587 107.711 429.931 Q109.082 427.257 109.082 421.928 Q109.082 416.58 107.711 413.924 Q106.356 411.251 103.631 411.251 M103.631 408.473 Q107.988 408.473 110.28 411.928 Q112.589 415.365 112.589 421.928 Q112.589 428.473 110.28 431.928 Q107.988 435.365 103.631 435.365 Q99.2731 435.365 96.9641 431.928 Q94.6724 428.473 94.6724 421.928 Q94.6724 415.365 96.9641 411.928 Q99.2731 408.473 103.631 408.473 Z" fill="#000000" fill-rule="nonzero" fill-opacity="1" /><path clip-path="url(#clip120)" d="M81.4434 300.375 Q79.0823 300.375 77.6934 301.989 Q76.3219 303.604 76.3219 306.416 Q76.3219 309.211 77.6934 310.843 Q79.0823 312.458 81.4434 312.458 Q83.8045 312.458 85.176 310.843 Q86.5649 309.211 86.5649 306.416 Q86.5649 303.604 85.176 301.989 Q83.8045 300.375 81.4434 300.375 M88.4051 289.385 L88.4051 292.579 Q87.0857 291.954 85.7315 291.625 Q84.3947 291.295 83.0753 291.295 Q79.6031 291.295 77.7628 293.638 Q75.9399 295.982 75.6795 300.722 Q76.7038 299.211 78.2489 298.413 Q79.7941 297.597 81.6517 297.597 Q85.5579 297.597 87.8148 299.975 Q90.0891 302.336 90.0891 306.416 Q90.0891 310.409 87.728 312.822 Q85.3669 315.236 81.4434 315.236 Q76.9468 315.236 74.5684 311.798 Q72.1899 308.343 72.1899 301.798 Q72.1899 295.652 75.1066 292.007 Q78.0232 288.343 82.9364 288.343 Q84.2558 288.343 85.5926 288.604 Q86.9468 288.864 88.4051 289.385 Z" fill="#000000" fill-rule="nonzero" fill-opacity="1" /><path clip-path="url(#clip120)" d="M103.631 291.121 Q100.922 291.121 99.5509 293.795 Q98.1967 296.451 98.1967 301.798 Q98.1967 307.128 99.5509 309.802 Q100.922 312.458 103.631 312.458 Q106.356 312.458 107.711 309.802 Q109.082 307.128 109.082 301.798 Q109.082 296.451 107.711 293.795 Q106.356 291.121 103.631 291.121 M103.631 288.343 Q107.988 288.343 110.28 291.798 Q112.589 295.236 112.589 301.798 Q112.589 308.343 110.28 311.798 Q107.988 315.236 103.631 315.236 Q99.2731 315.236 96.9641 311.798 Q94.6724 308.343 94.6724 301.798 Q94.6724 295.236 96.9641 291.798 Q99.2731 288.343 103.631 288.343 Z" fill="#000000" fill-rule="nonzero" fill-opacity="1" /><path clip-path="url(#clip120)" d="M81.0093 182.294 Q78.5093 182.294 77.0684 183.631 Q75.6448 184.967 75.6448 187.311 Q75.6448 189.655 77.0684 190.992 Q78.5093 192.328 81.0093 192.328 Q83.5093 192.328 84.9503 190.992 Q86.3912 189.637 86.3912 187.311 Q86.3912 184.967 84.9503 183.631 Q83.5267 182.294 81.0093 182.294 M77.5024 180.801 Q75.2455 180.245 73.9781 178.7 Q72.7281 177.155 72.7281 174.933 Q72.7281 171.825 74.933 170.02 Q77.1552 168.214 81.0093 168.214 Q84.8808 168.214 87.0857 170.02 Q89.2905 171.825 89.2905 174.933 Q89.2905 177.155 88.0232 178.7 Q86.7732 180.245 84.5336 180.801 Q87.0683 181.391 88.4746 183.11 Q89.8982 184.828 89.8982 187.311 Q89.8982 191.078 87.5892 193.092 Q85.2975 195.106 81.0093 195.106 Q76.7212 195.106 74.4121 193.092 Q72.1205 191.078 72.1205 187.311 Q72.1205 184.828 73.5441 183.11 Q74.9677 181.391 77.5024 180.801 M76.2177 175.263 Q76.2177 177.276 77.4677 178.405 Q78.735 179.533 81.0093 179.533 Q83.2663 179.533 84.5336 178.405 Q85.8183 177.276 85.8183 175.263 Q85.8183 173.249 84.5336 172.12 Q83.2663 170.992 81.0093 170.992 Q78.735 170.992 77.4677 172.12 Q76.2177 173.249 76.2177 175.263 Z" fill="#000000" fill-rule="nonzero" fill-opacity="1" /><path clip-path="url(#clip120)" d="M103.631 170.992 Q100.922 170.992 99.5509 173.665 Q98.1967 176.322 98.1967 181.669 Q98.1967 186.999 99.5509 189.672 Q100.922 192.328 103.631 192.328 Q106.356 192.328 107.711 189.672 Q109.082 186.999 109.082 181.669 Q109.082 176.322 107.711 173.665 Q106.356 170.992 103.631 170.992 M103.631 168.214 Q107.988 168.214 110.28 171.669 Q112.589 175.106 112.589 181.669 Q112.589 188.214 110.28 191.669 Q107.988 195.106 103.631 195.106 Q99.2731 195.106 96.9641 191.669 Q94.6724 188.214 94.6724 181.669 Q94.6724 175.106 96.9641 171.669 Q99.2731 168.214 103.631 168.214 Z" fill="#000000" fill-rule="nonzero" fill-opacity="1" /><path clip-path="url(#clip120)" d="M150.672 20.1758 Q152.084 17.8147 155.58 15.7314 Q156.945 14.9212 161.158 14.9212 Q165.881 14.9212 168.82 18.6712 Q171.783 22.4212 171.783 28.5323 Q171.783 34.6433 168.82 38.3933 Q165.881 42.1433 161.158 42.1433 Q158.311 42.1433 156.251 41.0322 Q154.214 39.8979 152.871 37.5831 L152.871 51.3331 L148.589 51.3331 L148.589 28.7637 Q148.589 23.4165 150.672 20.1758 M167.362 28.5323 Q167.362 23.8332 165.418 21.1712 Q163.496 18.486 160.117 18.486 Q156.737 18.486 154.793 21.1712 Q152.871 23.8332 152.871 28.5323 Q152.871 33.2313 154.793 35.9165 Q156.737 38.5785 160.117 38.5785 Q163.496 38.5785 165.418 35.9165 Q167.362 33.2313 167.362 28.5323 Z" fill="#000000" fill-rule="nonzero" fill-opacity="1" /><path clip-path="url(#clip122)" d="M204.382 656.154 L204.382 662.16 L333.355 662.16 L333.355 656.154 L204.382 656.154 L204.382 656.154  Z" fill="#009af9" fill-rule="evenodd" fill-opacity="1"/>
<polyline clip-path="url(#clip122)" style="stroke:#000000; stroke-linecap:round; stroke-linejoin:round; stroke-width:4; stroke-opacity:1; fill:none" points="204.382,656.154 204.382,662.16 333.355,662.16 333.355,656.154 204.382,656.154 "/>
<path clip-path="url(#clip122)" d="M333.355 584.076 L333.355 662.16 L462.327 662.16 L462.327 584.076 L333.355 584.076 L333.355 584.076  Z" fill="#009af9" fill-rule="evenodd" fill-opacity="1"/>
<polyline clip-path="url(#clip122)" style="stroke:#000000; stroke-linecap:round; stroke-linejoin:round; stroke-width:4; stroke-opacity:1; fill:none" points="333.355,584.076 333.355,662.16 462.327,662.16 462.327,584.076 333.355,584.076 "/>
<path clip-path="url(#clip122)" d="M462.327 511.999 L462.327 662.16 L591.299 662.16 L591.299 511.999 L462.327 511.999 L462.327 511.999  Z" fill="#009af9" fill-rule="evenodd" fill-opacity="1"/>
<polyline clip-path="url(#clip122)" style="stroke:#000000; stroke-linecap:round; stroke-linejoin:round; stroke-width:4; stroke-opacity:1; fill:none" points="462.327,511.999 462.327,662.16 591.299,662.16 591.299,511.999 462.327,511.999 "/>
<path clip-path="url(#clip122)" d="M591.299 536.024 L591.299 662.16 L720.271 662.16 L720.271 536.024 L591.299 536.024 L591.299 536.024  Z" fill="#009af9" fill-rule="evenodd" fill-opacity="1"/>
<polyline clip-path="url(#clip122)" style="stroke:#000000; stroke-linecap:round; stroke-linejoin:round; stroke-width:4; stroke-opacity:1; fill:none" points="591.299,536.024 591.299,662.16 720.271,662.16 720.271,536.024 591.299,536.024 "/>
<path clip-path="url(#clip122)" d="M720.271 439.921 L720.271 662.16 L849.244 662.16 L849.244 439.921 L720.271 439.921 L720.271 439.921  Z" fill="#009af9" fill-rule="evenodd" fill-opacity="1"/>
<polyline clip-path="url(#clip122)" style="stroke:#000000; stroke-linecap:round; stroke-linejoin:round; stroke-width:4; stroke-opacity:1; fill:none" points="720.271,439.921 720.271,662.16 849.244,662.16 849.244,439.921 720.271,439.921 "/>
<path clip-path="url(#clip122)" d="M849.244 97.5521 L849.244 662.16 L978.216 662.16 L978.216 97.5521 L849.244 97.5521 L849.244 97.5521  Z" fill="#009af9" fill-rule="evenodd" fill-opacity="1"/>
<polyline clip-path="url(#clip122)" style="stroke:#000000; stroke-linecap:round; stroke-linejoin:round; stroke-width:4; stroke-opacity:1; fill:none" points="849.244,97.5521 849.244,662.16 978.216,662.16 978.216,97.5521 849.244,97.5521 "/>
<path clip-path="url(#clip122)" d="M978.216 481.966 L978.216 662.16 L1107.19 662.16 L1107.19 481.966 L978.216 481.966 L978.216 481.966  Z" fill="#009af9" fill-rule="evenodd" fill-opacity="1"/>
<polyline clip-path="url(#clip122)" style="stroke:#000000; stroke-linecap:round; stroke-linejoin:round; stroke-width:4; stroke-opacity:1; fill:none" points="978.216,481.966 978.216,662.16 1107.19,662.16 1107.19,481.966 978.216,481.966 "/>
<circle clip-path="url(#clip122)" style="fill:#009af9; stroke:none; fill-opacity:0" cx="268.869" cy="656.154" r="2"/>
<circle clip-path="url(#clip122)" style="fill:#009af9; stroke:none; fill-opacity:0" cx="397.841" cy="584.076" r="2"/>
<circle clip-path="url(#clip122)" style="fill:#009af9; stroke:none; fill-opacity:0" cx="526.813" cy="511.999" r="2"/>
<circle clip-path="url(#clip122)" style="fill:#009af9; stroke:none; fill-opacity:0" cx="655.785" cy="536.024" r="2"/>
<circle clip-path="url(#clip122)" style="fill:#009af9; stroke:none; fill-opacity:0" cx="784.758" cy="439.921" r="2"/>
<circle clip-path="url(#clip122)" style="fill:#009af9; stroke:none; fill-opacity:0" cx="913.73" cy="97.5521" r="2"/>
<circle clip-path="url(#clip122)" style="fill:#009af9; stroke:none; fill-opacity:0" cx="1042.7" cy="481.966" r="2"/>
<polyline clip-path="url(#clip122)" style="stroke:#ff0000; stroke-linecap:round; stroke-linejoin:round; stroke-width:8; stroke-opacity:1; fill:none" stroke-dasharray="32, 20" points="790.018,1226.77 790.018,-467.056 "/>
<polyline clip-path="url(#clip122)" style="stroke:#ff0000; stroke-linecap:round; stroke-linejoin:round; stroke-width:6; stroke-opacity:1; fill:none" stroke-dasharray="24, 12, 3, 12" points="362.724,1226.77 362.724,-467.056 "/>
<polyline clip-path="url(#clip122)" style="stroke:#ff0000; stroke-linecap:round; stroke-linejoin:round; stroke-width:6; stroke-opacity:1; fill:none" stroke-dasharray="24, 12, 3, 12" points="1064.38,1226.77 1064.38,-467.056 "/>
<path clip-path="url(#clip120)" d="M1338.36 662.16 L2352.76 662.16 L2352.76 97.5521 L1338.36 97.5521  Z" fill="#ffffff" fill-rule="evenodd" fill-opacity="1"/>
<defs>
  <clipPath id="clip123">
    <rect x="1338" y="97" width="1015" height="566"/>
  </clipPath>
</defs>
<polyline clip-path="url(#clip123)" style="stroke:#000000; stroke-linecap:round; stroke-linejoin:round; stroke-width:2; stroke-opacity:0.1; fill:none" points="1394.16,662.16 1394.16,97.5521 "/>
<polyline clip-path="url(#clip123)" style="stroke:#000000; stroke-linecap:round; stroke-linejoin:round; stroke-width:2; stroke-opacity:0.1; fill:none" points="1544.62,662.16 1544.62,97.5521 "/>
<polyline clip-path="url(#clip123)" style="stroke:#000000; stroke-linecap:round; stroke-linejoin:round; stroke-width:2; stroke-opacity:0.1; fill:none" points="1695.09,662.16 1695.09,97.5521 "/>
<polyline clip-path="url(#clip123)" style="stroke:#000000; stroke-linecap:round; stroke-linejoin:round; stroke-width:2; stroke-opacity:0.1; fill:none" points="1845.56,662.16 1845.56,97.5521 "/>
<polyline clip-path="url(#clip123)" style="stroke:#000000; stroke-linecap:round; stroke-linejoin:round; stroke-width:2; stroke-opacity:0.1; fill:none" points="1996.03,662.16 1996.03,97.5521 "/>
<polyline clip-path="url(#clip123)" style="stroke:#000000; stroke-linecap:round; stroke-linejoin:round; stroke-width:2; stroke-opacity:0.1; fill:none" points="2146.49,662.16 2146.49,97.5521 "/>
<polyline clip-path="url(#clip123)" style="stroke:#000000; stroke-linecap:round; stroke-linejoin:round; stroke-width:2; stroke-opacity:0.1; fill:none" points="2296.96,662.16 2296.96,97.5521 "/>
<polyline clip-path="url(#clip123)" style="stroke:#000000; stroke-linecap:round; stroke-linejoin:round; stroke-width:2; stroke-opacity:0.1; fill:none" points="1338.36,662.16 2352.76,662.16 "/>
<polyline clip-path="url(#clip123)" style="stroke:#000000; stroke-linecap:round; stroke-linejoin:round; stroke-width:2; stroke-opacity:0.1; fill:none" points="1338.36,576.614 2352.76,576.614 "/>
<polyline clip-path="url(#clip123)" style="stroke:#000000; stroke-linecap:round; stroke-linejoin:round; stroke-width:2; stroke-opacity:0.1; fill:none" points="1338.36,491.067 2352.76,491.067 "/>
<polyline clip-path="url(#clip123)" style="stroke:#000000; stroke-linecap:round; stroke-linejoin:round; stroke-width:2; stroke-opacity:0.1; fill:none" points="1338.36,405.52 2352.76,405.52 "/>
<polyline clip-path="url(#clip123)" style="stroke:#000000; stroke-linecap:round; stroke-linejoin:round; stroke-width:2; stroke-opacity:0.1; fill:none" points="1338.36,319.974 2352.76,319.974 "/>
<polyline clip-path="url(#clip123)" style="stroke:#000000; stroke-linecap:round; stroke-linejoin:round; stroke-width:2; stroke-opacity:0.1; fill:none" points="1338.36,234.427 2352.76,234.427 "/>
<polyline clip-path="url(#clip123)" style="stroke:#000000; stroke-linecap:round; stroke-linejoin:round; stroke-width:2; stroke-opacity:0.1; fill:none" points="1338.36,148.88 2352.76,148.88 "/>
<polyline clip-path="url(#clip120)" style="stroke:#000000; stroke-linecap:round; stroke-linejoin:round; stroke-width:4; stroke-opacity:1; fill:none" points="1338.36,662.16 2352.76,662.16 "/>
<polyline clip-path="url(#clip120)" style="stroke:#000000; stroke-linecap:round; stroke-linejoin:round; stroke-width:4; stroke-opacity:1; fill:none" points="1394.16,662.16 1394.16,643.263 "/>
<polyline clip-path="url(#clip120)" style="stroke:#000000; stroke-linecap:round; stroke-linejoin:round; stroke-width:4; stroke-opacity:1; fill:none" points="1544.62,662.16 1544.62,643.263 "/>
<polyline clip-path="url(#clip120)" style="stroke:#000000; stroke-linecap:round; stroke-linejoin:round; stroke-width:4; stroke-opacity:1; fill:none" points="1695.09,662.16 1695.09,643.263 "/>
<polyline clip-path="url(#clip120)" style="stroke:#000000; stroke-linecap:round; stroke-linejoin:round; stroke-width:4; stroke-opacity:1; fill:none" points="1845.56,662.16 1845.56,643.263 "/>
<polyline clip-path="url(#clip120)" style="stroke:#000000; stroke-linecap:round; stroke-linejoin:round; stroke-width:4; stroke-opacity:1; fill:none" points="1996.03,662.16 1996.03,643.263 "/>
<polyline clip-path="url(#clip120)" style="stroke:#000000; stroke-linecap:round; stroke-linejoin:round; stroke-width:4; stroke-opacity:1; fill:none" points="2146.49,662.16 2146.49,643.263 "/>
<polyline clip-path="url(#clip120)" style="stroke:#000000; stroke-linecap:round; stroke-linejoin:round; stroke-width:4; stroke-opacity:1; fill:none" points="2296.96,662.16 2296.96,643.263 "/>
<path clip-path="url(#clip120)" d="M1340.41 733.795 Q1338.49 735.71 1339.41 738.57 Q1340.33 741.406 1344.11 745.187 Q1347.88 748.956 1350.73 749.889 Q1353.58 750.797 1355.49 748.882 Q1357.42 746.955 1356.5 744.119 Q1355.58 741.259 1351.81 737.49 Q1348.03 733.709 1345.18 732.8 Q1342.33 731.867 1340.41 733.795 M1338.44 731.83 Q1341.52 728.749 1345.59 729.572 Q1349.65 730.37 1354.29 735.01 Q1358.92 739.638 1359.73 743.714 Q1360.54 747.765 1357.46 750.846 Q1354.38 753.927 1350.31 753.129 Q1346.25 752.307 1341.62 747.679 Q1336.98 743.039 1336.17 738.987 Q1335.36 734.912 1338.44 731.83 Z" fill="#000000" fill-rule="nonzero" fill-opacity="1" /><path clip-path="url(#clip120)" d="M1364.68 736.68 L1367.27 734.089 L1370.38 737.207 L1367.79 739.798 L1364.68 736.68 Z" fill="#000000" fill-rule="nonzero" fill-opacity="1" /><path clip-path="url(#clip120)" d="M1375.83 727.583 L1384.49 718.928 L1386.58 721.015 L1374.94 732.653 L1372.85 730.566 Q1372.8 727.693 1372.78 722.808 Q1372.75 717.897 1372.67 716.559 Q1372.52 714.03 1372.07 712.643 Q1371.61 711.231 1370.72 710.335 Q1369.25 708.874 1367.3 708.985 Q1365.36 709.083 1363.72 710.728 Q1362.55 711.894 1361.66 713.6 Q1360.77 715.295 1360.12 717.59 L1357.62 715.086 Q1358.51 712.987 1359.51 711.378 Q1360.5 709.77 1361.58 708.69 Q1364.43 705.842 1367.55 705.572 Q1370.67 705.302 1373.05 707.683 Q1374.18 708.813 1374.77 710.261 Q1375.36 711.685 1375.61 714.177 Q1375.66 714.84 1375.72 718.192 Q1375.77 721.531 1375.83 727.583 Z" fill="#000000" fill-rule="nonzero" fill-opacity="1" /><path clip-path="url(#clip120)" d="M1391.47 715.356 L1389.22 713.097 Q1390.59 712.606 1391.78 711.882 Q1392.97 711.158 1393.89 710.237 Q1396.35 707.782 1395.99 704.848 Q1395.64 701.889 1392.46 698.341 Q1392.8 700.109 1392.27 701.766 Q1391.74 703.424 1390.42 704.749 Q1387.67 707.499 1384.4 707.45 Q1381.14 707.376 1378.25 704.492 Q1375.43 701.668 1375.39 698.292 Q1375.36 694.916 1378.13 692.142 Q1381.31 688.962 1385.42 689.736 Q1389.53 690.485 1394.18 695.125 Q1398.51 699.458 1399.04 704.111 Q1399.56 708.739 1396.09 712.213 Q1395.16 713.146 1394.02 713.92 Q1392.87 714.693 1391.47 715.356 M1388.64 702.65 Q1390.31 700.981 1390.14 698.869 Q1389.98 696.745 1387.99 694.757 Q1386.01 692.78 1383.89 692.621 Q1381.76 692.436 1380.09 694.106 Q1378.42 695.776 1378.6 697.912 Q1378.77 700.023 1380.75 702 Q1382.73 703.988 1384.85 704.16 Q1386.97 704.32 1388.64 702.65 Z" fill="#000000" fill-rule="nonzero" fill-opacity="1" /><path clip-path="url(#clip120)" d="M1490.78 733.893 Q1488.86 735.808 1489.78 738.668 Q1490.7 741.504 1494.48 745.285 Q1498.25 749.054 1501.1 749.987 Q1503.95 750.895 1505.86 748.98 Q1507.79 747.053 1506.87 744.217 Q1505.95 741.357 1502.18 737.588 Q1498.4 733.807 1495.55 732.898 Q1492.7 731.966 1490.78 733.893 M1488.81 731.929 Q1491.89 728.847 1495.96 729.67 Q1500.02 730.468 1504.66 735.108 Q1509.29 739.736 1510.1 743.812 Q1510.91 747.863 1507.83 750.944 Q1504.75 754.026 1500.68 753.228 Q1496.62 752.405 1491.99 747.777 Q1487.35 743.137 1486.54 739.086 Q1485.73 735.01 1488.81 731.929 Z" fill="#000000" fill-rule="nonzero" fill-opacity="1" /><path clip-path="url(#clip120)" d="M1515.05 736.778 L1517.64 734.187 L1520.75 737.306 L1518.16 739.896 L1515.05 736.778 Z" fill="#000000" fill-rule="nonzero" fill-opacity="1" /><path clip-path="url(#clip120)" d="M1523.79 714.509 Q1525.95 713.109 1528.14 713.318 Q1530.35 713.515 1532.12 715.282 Q1534.83 717.995 1534.45 721.347 Q1534.07 724.698 1530.64 728.135 Q1529.48 729.289 1528.02 730.284 Q1526.58 731.278 1524.83 732.125 L1522.44 729.731 Q1524.07 729.302 1525.6 728.381 Q1527.14 727.46 1528.48 726.122 Q1530.81 723.79 1531.1 721.654 Q1531.41 719.505 1529.65 717.75 Q1528.03 716.129 1525.98 716.363 Q1523.93 716.571 1521.91 718.597 L1519.77 720.733 L1517.73 718.695 L1519.97 716.461 Q1521.8 714.632 1522.04 712.938 Q1522.28 711.231 1520.9 709.856 Q1519.49 708.445 1517.73 708.702 Q1515.98 708.936 1514.11 710.802 Q1513.09 711.82 1512.15 713.208 Q1511.2 714.595 1510.27 716.461 L1508.06 714.251 Q1509.08 712.447 1510.11 711.022 Q1511.15 709.586 1512.25 708.494 Q1515.07 705.67 1518 705.314 Q1520.93 704.946 1523.11 707.131 Q1524.63 708.653 1524.82 710.581 Q1524.99 712.496 1523.79 714.509 Z" fill="#000000" fill-rule="nonzero" fill-opacity="1" /><path clip-path="url(#clip120)" d="M1530.76 693.91 Q1528.84 695.825 1529.76 698.685 Q1530.68 701.521 1534.47 705.302 Q1538.23 709.071 1541.08 710.004 Q1543.93 710.912 1545.85 708.997 Q1547.77 707.07 1546.85 704.234 Q1545.93 701.373 1542.16 697.605 Q1538.38 693.824 1535.53 692.915 Q1532.69 691.982 1530.76 693.91 M1528.79 691.945 Q1531.88 688.864 1535.94 689.687 Q1540 690.485 1544.64 695.125 Q1549.27 699.753 1550.08 703.829 Q1550.89 707.88 1547.81 710.961 Q1544.73 714.042 1540.67 713.244 Q1536.6 712.422 1531.97 707.794 Q1527.33 703.154 1526.52 699.102 Q1525.71 695.027 1528.79 691.945 Z" fill="#000000" fill-rule="nonzero" fill-opacity="1" /><path clip-path="url(#clip120)" d="M1641.89 733.242 Q1639.98 735.157 1640.9 738.018 Q1641.82 740.853 1645.6 744.634 Q1649.37 748.403 1652.22 749.336 Q1655.07 750.245 1656.98 748.33 Q1658.91 746.402 1657.99 743.566 Q1657.07 740.706 1653.3 736.937 Q1649.52 733.156 1646.67 732.248 Q1643.82 731.315 1641.89 733.242 M1639.93 731.278 Q1643.01 728.197 1647.07 729.019 Q1651.14 729.817 1655.78 734.458 Q1660.41 739.086 1661.22 743.161 Q1662.03 747.212 1658.95 750.294 Q1655.86 753.375 1651.8 752.577 Q1647.74 751.755 1643.11 747.126 Q1638.47 742.486 1637.66 738.435 Q1636.85 734.359 1639.93 731.278 Z" fill="#000000" fill-rule="nonzero" fill-opacity="1" /><path clip-path="url(#clip120)" d="M1666.16 736.127 L1668.75 733.537 L1671.87 736.655 L1669.28 739.245 L1666.16 736.127 Z" fill="#000000" fill-rule="nonzero" fill-opacity="1" /><path clip-path="url(#clip120)" d="M1674.9 713.858 Q1677.06 712.459 1679.26 712.667 Q1681.47 712.864 1683.24 714.632 Q1685.95 717.345 1685.57 720.696 Q1685.19 724.047 1681.75 727.485 Q1680.6 728.639 1679.14 729.633 Q1677.7 730.627 1675.95 731.474 L1673.55 729.081 Q1675.19 728.651 1676.72 727.73 Q1678.26 726.81 1679.59 725.471 Q1681.93 723.139 1682.22 721.003 Q1682.53 718.855 1680.77 717.099 Q1679.15 715.479 1677.1 715.712 Q1675.05 715.921 1673.03 717.946 L1670.89 720.082 L1668.85 718.044 L1671.09 715.81 Q1672.92 713.981 1673.16 712.287 Q1673.39 710.581 1672.02 709.206 Q1670.61 707.794 1668.85 708.052 Q1667.1 708.285 1665.23 710.151 Q1664.21 711.17 1663.27 712.557 Q1662.32 713.944 1661.39 715.81 L1659.18 713.6 Q1660.2 711.796 1661.23 710.372 Q1662.27 708.936 1663.36 707.843 Q1666.19 705.019 1669.12 704.663 Q1672.04 704.295 1674.23 706.48 Q1675.75 708.003 1675.94 709.93 Q1676.11 711.845 1674.9 713.858 Z" fill="#000000" fill-rule="nonzero" fill-opacity="1" /><path clip-path="url(#clip120)" d="M1691.61 712.741 L1695.66 708.69 L1681.68 694.708 L1678.16 699.999 L1675.9 697.74 L1679.4 692.473 L1681.88 689.994 L1698.12 706.235 L1702.17 702.184 L1704.26 704.271 L1693.7 714.828 L1691.61 712.741 Z" fill="#000000" fill-rule="nonzero" fill-opacity="1" /><path clip-path="url(#clip120)" d="M1792.56 733.046 Q1790.64 734.961 1791.56 737.821 Q1792.48 740.657 1796.26 744.438 Q1800.03 748.207 1802.88 749.14 Q1805.73 750.048 1807.64 748.133 Q1809.57 746.206 1808.65 743.37 Q1807.73 740.51 1803.96 736.741 Q1800.18 732.96 1797.33 732.051 Q1794.48 731.118 1792.56 733.046 M1790.59 731.082 Q1793.67 728 1797.74 728.823 Q1801.8 729.621 1806.44 734.261 Q1811.07 738.889 1811.88 742.965 Q1812.69 747.016 1809.61 750.097 Q1806.53 753.179 1802.46 752.381 Q1798.4 751.558 1793.77 746.93 Q1789.13 742.29 1788.32 738.239 Q1787.51 734.163 1790.59 731.082 Z" fill="#000000" fill-rule="nonzero" fill-opacity="1" /><path clip-path="url(#clip120)" d="M1816.83 735.931 L1819.42 733.34 L1822.54 736.459 L1819.95 739.049 L1816.83 735.931 Z" fill="#000000" fill-rule="nonzero" fill-opacity="1" /><path clip-path="url(#clip120)" d="M1825.57 713.662 Q1827.73 712.262 1829.93 712.471 Q1832.14 712.667 1833.9 714.435 Q1836.62 717.148 1836.24 720.5 Q1835.86 723.851 1832.42 727.288 Q1831.26 728.442 1829.8 729.437 Q1828.37 730.431 1826.61 731.278 L1824.22 728.884 Q1825.85 728.455 1827.38 727.534 Q1828.92 726.613 1830.26 725.275 Q1832.59 722.943 1832.88 720.807 Q1833.19 718.658 1831.44 716.903 Q1829.82 715.282 1827.77 715.516 Q1825.72 715.724 1823.69 717.75 L1821.55 719.886 L1819.52 717.848 L1821.75 715.614 Q1823.58 713.785 1823.82 712.091 Q1824.06 710.384 1822.68 709.009 Q1821.27 707.597 1819.52 707.855 Q1817.76 708.088 1815.89 709.954 Q1814.88 710.973 1813.93 712.361 Q1812.99 713.748 1812.05 715.614 L1809.84 713.404 Q1810.86 711.599 1811.89 710.175 Q1812.94 708.739 1814.03 707.647 Q1816.85 704.823 1819.79 704.467 Q1822.71 704.099 1824.89 706.284 Q1826.42 707.806 1826.6 709.733 Q1826.77 711.649 1825.57 713.662 Z" fill="#000000" fill-rule="nonzero" fill-opacity="1" /><path clip-path="url(#clip120)" d="M1843.98 710.838 L1852.64 702.184 L1854.72 704.271 L1843.09 715.908 L1841 713.821 Q1840.95 710.949 1840.93 706.063 Q1840.9 701.153 1840.81 699.814 Q1840.67 697.286 1840.21 695.898 Q1839.76 694.487 1838.86 693.59 Q1837.4 692.13 1835.45 692.24 Q1833.51 692.338 1831.87 693.983 Q1830.7 695.149 1829.8 696.856 Q1828.92 698.55 1828.27 700.846 L1825.76 698.341 Q1826.66 696.242 1827.65 694.634 Q1828.65 693.026 1829.73 691.945 Q1832.58 689.097 1835.7 688.827 Q1838.81 688.557 1841.2 690.939 Q1842.32 692.068 1842.91 693.517 Q1843.5 694.941 1843.76 697.433 Q1843.81 698.096 1843.87 701.447 Q1843.92 704.786 1843.98 710.838 Z" fill="#000000" fill-rule="nonzero" fill-opacity="1" /><path clip-path="url(#clip120)" d="M1942.52 733.549 Q1940.61 735.464 1941.53 738.325 Q1942.45 741.16 1946.23 744.941 Q1950 748.71 1952.85 749.643 Q1955.69 750.552 1957.61 748.636 Q1959.54 746.709 1958.62 743.873 Q1957.7 741.013 1953.93 737.244 Q1950.15 733.463 1947.3 732.555 Q1944.45 731.622 1942.52 733.549 M1940.56 731.585 Q1943.64 728.504 1947.7 729.326 Q1951.77 730.124 1956.41 734.764 Q1961.03 739.393 1961.84 743.468 Q1962.65 747.519 1959.57 750.601 Q1956.49 753.682 1952.43 752.884 Q1948.37 752.061 1943.74 747.433 Q1939.1 742.793 1938.29 738.742 Q1937.48 734.666 1940.56 731.585 Z" fill="#000000" fill-rule="nonzero" fill-opacity="1" /><path clip-path="url(#clip120)" d="M1966.79 736.434 L1969.38 733.844 L1972.5 736.962 L1969.91 739.552 L1966.79 736.434 Z" fill="#000000" fill-rule="nonzero" fill-opacity="1" /><path clip-path="url(#clip120)" d="M1975.53 714.165 Q1977.69 712.766 1979.89 712.974 Q1982.1 713.171 1983.87 714.939 Q1986.58 717.652 1986.2 721.003 Q1985.82 724.354 1982.38 727.792 Q1981.23 728.946 1979.77 729.94 Q1978.33 730.934 1976.58 731.781 L1974.18 729.388 Q1975.81 728.958 1977.35 728.037 Q1978.88 727.116 1980.22 725.778 Q1982.55 723.446 1982.85 721.31 Q1983.16 719.162 1981.4 717.406 Q1979.78 715.786 1977.73 716.019 Q1975.68 716.228 1973.65 718.253 L1971.52 720.389 L1969.48 718.351 L1971.71 716.117 Q1973.54 714.288 1973.79 712.594 Q1974.02 710.887 1972.65 709.513 Q1971.24 708.101 1969.48 708.359 Q1967.72 708.592 1965.86 710.458 Q1964.84 711.477 1963.89 712.864 Q1962.95 714.251 1962.02 716.117 L1959.81 713.907 Q1960.83 712.103 1961.86 710.679 Q1962.9 709.242 1963.99 708.15 Q1966.82 705.326 1969.75 704.97 Q1972.67 704.602 1974.86 706.787 Q1976.38 708.309 1976.56 710.237 Q1976.74 712.152 1975.53 714.165 Z" fill="#000000" fill-rule="nonzero" fill-opacity="1" /><path clip-path="url(#clip120)" d="M1991.53 698.169 Q1993.69 696.77 1995.89 696.979 Q1998.1 697.175 1999.86 698.943 Q2002.58 701.656 2002.2 705.007 Q2001.82 708.359 1998.38 711.796 Q1997.22 712.95 1995.76 713.944 Q1994.33 714.939 1992.57 715.786 L1990.18 713.392 Q1991.81 712.962 1993.34 712.041 Q1994.88 711.121 1996.22 709.783 Q1998.55 707.45 1998.84 705.314 Q1999.15 703.166 1997.4 701.41 Q1995.78 699.79 1993.73 700.023 Q1991.68 700.232 1989.65 702.257 L1987.51 704.393 L1985.48 702.356 L1987.71 700.121 Q1989.54 698.292 1989.78 696.598 Q1990.02 694.892 1988.64 693.517 Q1987.23 692.105 1985.48 692.363 Q1983.72 692.596 1981.85 694.462 Q1980.84 695.481 1979.89 696.868 Q1978.95 698.255 1978.01 700.121 L1975.8 697.912 Q1976.82 696.107 1977.85 694.683 Q1978.9 693.247 1979.99 692.154 Q1982.81 689.331 1985.75 688.975 Q1988.67 688.606 1990.85 690.791 Q1992.38 692.314 1992.56 694.241 Q1992.73 696.156 1991.53 698.169 Z" fill="#000000" fill-rule="nonzero" fill-opacity="1" /><path clip-path="url(#clip120)" d="M2092.39 734.151 Q2090.47 736.066 2091.39 738.926 Q2092.31 741.762 2096.1 745.543 Q2099.86 749.312 2102.71 750.245 Q2105.56 751.153 2107.48 749.238 Q2109.4 747.311 2108.48 744.475 Q2107.56 741.615 2103.79 737.846 Q2100.01 734.065 2097.16 733.156 Q2094.32 732.223 2092.39 734.151 M2090.42 732.186 Q2093.51 729.105 2097.57 729.928 Q2101.63 730.726 2106.27 735.366 Q2110.9 739.994 2111.71 744.07 Q2112.52 748.121 2109.44 751.202 Q2106.36 754.283 2102.29 753.485 Q2098.23 752.663 2093.6 748.035 Q2088.96 743.395 2088.15 739.343 Q2087.34 735.268 2090.42 732.186 Z" fill="#000000" fill-rule="nonzero" fill-opacity="1" /><path clip-path="url(#clip120)" d="M2116.66 737.036 L2119.25 734.445 L2122.37 737.563 L2119.78 740.154 L2116.66 737.036 Z" fill="#000000" fill-rule="nonzero" fill-opacity="1" /><path clip-path="url(#clip120)" d="M2125.4 714.767 Q2127.56 713.367 2129.76 713.576 Q2131.97 713.772 2133.73 715.54 Q2136.45 718.253 2136.07 721.604 Q2135.69 724.956 2132.25 728.393 Q2131.09 729.547 2129.63 730.541 Q2128.2 731.536 2126.44 732.383 L2124.05 729.989 Q2125.68 729.559 2127.22 728.639 Q2128.75 727.718 2130.09 726.38 Q2132.42 724.047 2132.71 721.911 Q2133.02 719.763 2131.27 718.008 Q2129.65 716.387 2127.6 716.62 Q2125.55 716.829 2123.52 718.855 L2121.38 720.991 L2119.35 718.953 L2121.58 716.719 Q2123.41 714.889 2123.66 713.195 Q2123.89 711.489 2122.51 710.114 Q2121.1 708.702 2119.35 708.96 Q2117.59 709.193 2115.72 711.059 Q2114.71 712.078 2113.76 713.465 Q2112.82 714.853 2111.88 716.719 L2109.67 714.509 Q2110.69 712.704 2111.72 711.28 Q2112.77 709.844 2113.86 708.751 Q2116.68 705.928 2119.62 705.572 Q2122.54 705.204 2124.72 707.389 Q2126.25 708.911 2126.43 710.838 Q2126.6 712.753 2125.4 714.767 Z" fill="#000000" fill-rule="nonzero" fill-opacity="1" /><path clip-path="url(#clip120)" d="M2134.41 693.185 L2137.93 709.23 L2144.19 702.969 L2134.41 693.185 M2131.6 691.675 L2134.72 688.557 L2146.66 700.502 L2149.28 697.887 L2151.34 699.949 L2148.72 702.564 L2153.04 706.885 L2150.58 709.353 L2146.26 705.032 L2137.98 713.306 L2135.59 710.912 L2131.6 691.675 Z" fill="#000000" fill-rule="nonzero" fill-opacity="1" /><path clip-path="url(#clip120)" d="M2243.64 733.365 Q2241.73 735.28 2242.65 738.14 Q2243.57 740.976 2247.35 744.757 Q2251.12 748.526 2253.97 749.459 Q2256.81 750.367 2258.73 748.452 Q2260.66 746.525 2259.74 743.689 Q2258.81 740.829 2255.05 737.06 Q2251.26 733.279 2248.42 732.371 Q2245.57 731.438 2243.64 733.365 M2241.68 731.401 Q2244.76 728.32 2248.82 729.142 Q2252.89 729.94 2257.53 734.58 Q2262.15 739.208 2262.96 743.284 Q2263.77 747.335 2260.69 750.416 Q2257.61 753.498 2253.55 752.7 Q2249.48 751.877 2244.86 747.249 Q2240.22 742.609 2239.41 738.558 Q2238.6 734.482 2241.68 731.401 Z" fill="#000000" fill-rule="nonzero" fill-opacity="1" /><path clip-path="url(#clip120)" d="M2267.91 736.25 L2270.5 733.66 L2273.62 736.778 L2271.03 739.368 L2267.91 736.25 Z" fill="#000000" fill-rule="nonzero" fill-opacity="1" /><path clip-path="url(#clip120)" d="M2276.65 713.981 Q2278.81 712.582 2281.01 712.79 Q2283.22 712.987 2284.99 714.754 Q2287.7 717.467 2287.32 720.819 Q2286.94 724.17 2283.5 727.607 Q2282.35 728.761 2280.89 729.756 Q2279.45 730.75 2277.7 731.597 L2275.3 729.203 Q2276.93 728.774 2278.47 727.853 Q2280 726.932 2281.34 725.594 Q2283.67 723.262 2283.97 721.126 Q2284.28 718.977 2282.52 717.222 Q2280.9 715.601 2278.85 715.835 Q2276.8 716.043 2274.77 718.069 L2272.64 720.205 L2270.6 718.167 L2272.83 715.933 Q2274.66 714.104 2274.91 712.41 Q2275.14 710.703 2273.77 709.328 Q2272.36 707.917 2270.6 708.174 Q2268.84 708.408 2266.98 710.274 Q2265.96 711.293 2265.01 712.68 Q2264.07 714.067 2263.14 715.933 L2260.93 713.723 Q2261.94 711.919 2262.98 710.495 Q2264.02 709.058 2265.11 707.966 Q2267.94 705.142 2270.87 704.786 Q2273.79 704.418 2275.98 706.603 Q2277.5 708.125 2277.68 710.053 Q2277.85 711.968 2276.65 713.981 Z" fill="#000000" fill-rule="nonzero" fill-opacity="1" /><path clip-path="url(#clip120)" d="M2276.71 697.028 L2286.45 687.293 L2288.53 689.38 L2281.07 696.844 L2285.56 701.337 Q2285.92 700.612 2286.37 699.986 Q2286.82 699.348 2287.36 698.808 Q2290.43 695.739 2293.9 695.628 Q2297.37 695.518 2300.25 698.39 Q2303.2 701.349 2303.01 704.835 Q2302.8 708.309 2299.45 711.661 Q2298.29 712.815 2296.89 713.821 Q2295.51 714.816 2293.84 715.7 L2291.35 713.208 Q2293.05 712.704 2294.53 711.82 Q2296 710.937 2297.31 709.623 Q2299.44 707.499 2299.56 705.142 Q2299.68 702.785 2297.77 700.87 Q2295.85 698.955 2293.49 699.078 Q2291.14 699.201 2289.01 701.324 Q2288.02 702.319 2287.25 703.534 Q2286.48 704.737 2285.92 706.235 L2276.71 697.028 Z" fill="#000000" fill-rule="nonzero" fill-opacity="1" /><polyline clip-path="url(#clip120)" style="stroke:#000000; stroke-linecap:round; stroke-linejoin:round; stroke-width:4; stroke-opacity:1; fill:none" points="1338.36,662.16 1338.36,97.5521 "/>
<polyline clip-path="url(#clip120)" style="stroke:#000000; stroke-linecap:round; stroke-linejoin:round; stroke-width:4; stroke-opacity:1; fill:none" points="1338.36,662.16 1357.26,662.16 "/>
<polyline clip-path="url(#clip120)" style="stroke:#000000; stroke-linecap:round; stroke-linejoin:round; stroke-width:4; stroke-opacity:1; fill:none" points="1338.36,576.614 1357.26,576.614 "/>
<polyline clip-path="url(#clip120)" style="stroke:#000000; stroke-linecap:round; stroke-linejoin:round; stroke-width:4; stroke-opacity:1; fill:none" points="1338.36,491.067 1357.26,491.067 "/>
<polyline clip-path="url(#clip120)" style="stroke:#000000; stroke-linecap:round; stroke-linejoin:round; stroke-width:4; stroke-opacity:1; fill:none" points="1338.36,405.52 1357.26,405.52 "/>
<polyline clip-path="url(#clip120)" style="stroke:#000000; stroke-linecap:round; stroke-linejoin:round; stroke-width:4; stroke-opacity:1; fill:none" points="1338.36,319.974 1357.26,319.974 "/>
<polyline clip-path="url(#clip120)" style="stroke:#000000; stroke-linecap:round; stroke-linejoin:round; stroke-width:4; stroke-opacity:1; fill:none" points="1338.36,234.427 1357.26,234.427 "/>
<polyline clip-path="url(#clip120)" style="stroke:#000000; stroke-linecap:round; stroke-linejoin:round; stroke-width:4; stroke-opacity:1; fill:none" points="1338.36,148.88 1357.26,148.88 "/>
<path clip-path="url(#clip120)" d="M1293.41 651.509 Q1290.7 651.509 1289.33 654.183 Q1287.97 656.839 1287.97 662.186 Q1287.97 667.516 1289.33 670.19 Q1290.7 672.846 1293.41 672.846 Q1296.13 672.846 1297.48 670.19 Q1298.86 667.516 1298.86 662.186 Q1298.86 656.839 1297.48 654.183 Q1296.13 651.509 1293.41 651.509 M1293.41 648.732 Q1297.76 648.732 1300.05 652.186 Q1302.36 655.624 1302.36 662.186 Q1302.36 668.732 1300.05 672.186 Q1297.76 675.624 1293.41 675.624 Q1289.05 675.624 1286.74 672.186 Q1284.45 668.732 1284.45 662.186 Q1284.45 655.624 1286.74 652.186 Q1289.05 648.732 1293.41 648.732 Z" fill="#000000" fill-rule="nonzero" fill-opacity="1" /><path clip-path="url(#clip120)" d="M1263.89 586.622 L1269.62 586.622 L1269.62 566.848 L1263.39 568.098 L1263.39 564.904 L1269.59 563.654 L1273.09 563.654 L1273.09 586.622 L1278.82 586.622 L1278.82 589.574 L1263.89 589.574 L1263.89 586.622 Z" fill="#000000" fill-rule="nonzero" fill-opacity="1" /><path clip-path="url(#clip120)" d="M1293.41 565.963 Q1290.7 565.963 1289.33 568.636 Q1287.97 571.293 1287.97 576.64 Q1287.97 581.97 1289.33 584.643 Q1290.7 587.299 1293.41 587.299 Q1296.13 587.299 1297.48 584.643 Q1298.86 581.97 1298.86 576.64 Q1298.86 571.293 1297.48 568.636 Q1296.13 565.963 1293.41 565.963 M1293.41 563.185 Q1297.76 563.185 1300.05 566.64 Q1302.36 570.077 1302.36 576.64 Q1302.36 583.185 1300.05 586.64 Q1297.76 590.077 1293.41 590.077 Q1289.05 590.077 1286.74 586.64 Q1284.45 583.185 1284.45 576.64 Q1284.45 570.077 1286.74 566.64 Q1289.05 563.185 1293.41 563.185 Z" fill="#000000" fill-rule="nonzero" fill-opacity="1" /><path clip-path="url(#clip120)" d="M1266.3 501.076 L1278.54 501.076 L1278.54 504.027 L1262.09 504.027 L1262.09 501.076 Q1264.08 499.01 1267.52 495.537 Q1270.97 492.048 1271.86 491.041 Q1273.54 489.149 1274.2 487.846 Q1274.88 486.527 1274.88 485.26 Q1274.88 483.194 1273.42 481.892 Q1271.98 480.59 1269.66 480.59 Q1268.01 480.59 1266.17 481.163 Q1264.34 481.735 1262.26 482.899 L1262.26 479.357 Q1264.38 478.506 1266.22 478.072 Q1268.06 477.638 1269.59 477.638 Q1273.61 477.638 1276.01 479.652 Q1278.41 481.666 1278.41 485.034 Q1278.41 486.631 1277.8 488.072 Q1277.21 489.496 1275.63 491.44 Q1275.19 491.944 1272.87 494.357 Q1270.54 496.753 1266.3 501.076 Z" fill="#000000" fill-rule="nonzero" fill-opacity="1" /><path clip-path="url(#clip120)" d="M1293.41 480.416 Q1290.7 480.416 1289.33 483.09 Q1287.97 485.746 1287.97 491.093 Q1287.97 496.423 1289.33 499.096 Q1290.7 501.753 1293.41 501.753 Q1296.13 501.753 1297.48 499.096 Q1298.86 496.423 1298.86 491.093 Q1298.86 485.746 1297.48 483.09 Q1296.13 480.416 1293.41 480.416 M1293.41 477.638 Q1297.76 477.638 1300.05 481.093 Q1302.36 484.531 1302.36 491.093 Q1302.36 497.638 1300.05 501.093 Q1297.76 504.53 1293.41 504.53 Q1289.05 504.53 1286.74 501.093 Q1284.45 497.638 1284.45 491.093 Q1284.45 484.531 1286.74 481.093 Q1289.05 477.638 1293.41 477.638 Z" fill="#000000" fill-rule="nonzero" fill-opacity="1" /><path clip-path="url(#clip120)" d="M1273.91 404.505 Q1276.43 405.043 1277.83 406.744 Q1279.26 408.446 1279.26 410.946 Q1279.26 414.782 1276.62 416.883 Q1273.98 418.984 1269.12 418.984 Q1267.49 418.984 1265.75 418.654 Q1264.03 418.341 1262.19 417.699 L1262.19 414.314 Q1263.65 415.164 1265.38 415.598 Q1267.12 416.032 1269.01 416.032 Q1272.31 416.032 1274.03 414.73 Q1275.77 413.428 1275.77 410.946 Q1275.77 408.654 1274.15 407.369 Q1272.55 406.067 1269.69 406.067 L1266.67 406.067 L1266.67 403.185 L1269.83 403.185 Q1272.42 403.185 1273.79 402.161 Q1275.16 401.119 1275.16 399.175 Q1275.16 397.178 1273.74 396.119 Q1272.33 395.043 1269.69 395.043 Q1268.25 395.043 1266.6 395.355 Q1264.95 395.668 1262.97 396.328 L1262.97 393.203 Q1264.97 392.647 1266.7 392.369 Q1268.46 392.092 1270 392.092 Q1274 392.092 1276.32 393.914 Q1278.65 395.72 1278.65 398.81 Q1278.65 400.963 1277.42 402.456 Q1276.18 403.932 1273.91 404.505 Z" fill="#000000" fill-rule="nonzero" fill-opacity="1" /><path clip-path="url(#clip120)" d="M1293.41 394.869 Q1290.7 394.869 1289.33 397.543 Q1287.97 400.199 1287.97 405.546 Q1287.97 410.876 1289.33 413.55 Q1290.7 416.206 1293.41 416.206 Q1296.13 416.206 1297.48 413.55 Q1298.86 410.876 1298.86 405.546 Q1298.86 400.199 1297.48 397.543 Q1296.13 394.869 1293.41 394.869 M1293.41 392.092 Q1297.76 392.092 1300.05 395.546 Q1302.36 398.984 1302.36 405.546 Q1302.36 412.091 1300.05 415.546 Q1297.76 418.984 1293.41 418.984 Q1289.05 418.984 1286.74 415.546 Q1284.45 412.091 1284.45 405.546 Q1284.45 398.984 1286.74 395.546 Q1289.05 392.092 1293.41 392.092 Z" fill="#000000" fill-rule="nonzero" fill-opacity="1" /><path clip-path="url(#clip120)" d="M1272.92 310.069 L1264.06 323.906 L1272.92 323.906 L1272.92 310.069 M1272 307.014 L1276.41 307.014 L1276.41 323.906 L1280.11 323.906 L1280.11 326.822 L1276.41 326.822 L1276.41 332.934 L1272.92 332.934 L1272.92 326.822 L1261.22 326.822 L1261.22 323.437 L1272 307.014 Z" fill="#000000" fill-rule="nonzero" fill-opacity="1" /><path clip-path="url(#clip120)" d="M1293.41 309.323 Q1290.7 309.323 1289.33 311.996 Q1287.97 314.652 1287.97 320 Q1287.97 325.329 1289.33 328.003 Q1290.7 330.659 1293.41 330.659 Q1296.13 330.659 1297.48 328.003 Q1298.86 325.329 1298.86 320 Q1298.86 314.652 1297.48 311.996 Q1296.13 309.323 1293.41 309.323 M1293.41 306.545 Q1297.76 306.545 1300.05 310 Q1302.36 313.437 1302.36 320 Q1302.36 326.545 1300.05 330 Q1297.76 333.437 1293.41 333.437 Q1289.05 333.437 1286.74 330 Q1284.45 326.545 1284.45 320 Q1284.45 313.437 1286.74 310 Q1289.05 306.545 1293.41 306.545 Z" fill="#000000" fill-rule="nonzero" fill-opacity="1" /><path clip-path="url(#clip120)" d="M1263.32 221.467 L1277.09 221.467 L1277.09 224.418 L1266.53 224.418 L1266.53 230.772 Q1267.29 230.512 1268.06 230.39 Q1268.82 230.252 1269.59 230.252 Q1273.93 230.252 1276.46 232.63 Q1279 235.008 1279 239.071 Q1279 243.255 1276.39 245.581 Q1273.79 247.89 1269.05 247.89 Q1267.42 247.89 1265.71 247.613 Q1264.03 247.335 1262.22 246.779 L1262.22 243.255 Q1263.79 244.106 1265.45 244.522 Q1267.12 244.939 1268.98 244.939 Q1271.98 244.939 1273.74 243.359 Q1275.49 241.779 1275.49 239.071 Q1275.49 236.363 1273.74 234.783 Q1271.98 233.203 1268.98 233.203 Q1267.57 233.203 1266.17 233.515 Q1264.78 233.828 1263.32 234.488 L1263.32 221.467 Z" fill="#000000" fill-rule="nonzero" fill-opacity="1" /><path clip-path="url(#clip120)" d="M1293.41 223.776 Q1290.7 223.776 1289.33 226.449 Q1287.97 229.106 1287.97 234.453 Q1287.97 239.783 1289.33 242.456 Q1290.7 245.113 1293.41 245.113 Q1296.13 245.113 1297.48 242.456 Q1298.86 239.783 1298.86 234.453 Q1298.86 229.106 1297.48 226.449 Q1296.13 223.776 1293.41 223.776 M1293.41 220.998 Q1297.76 220.998 1300.05 224.453 Q1302.36 227.89 1302.36 234.453 Q1302.36 240.998 1300.05 244.453 Q1297.76 247.89 1293.41 247.89 Q1289.05 247.89 1286.74 244.453 Q1284.45 240.998 1284.45 234.453 Q1284.45 227.89 1286.74 224.453 Q1289.05 220.998 1293.41 220.998 Z" fill="#000000" fill-rule="nonzero" fill-opacity="1" /><path clip-path="url(#clip120)" d="M1271.22 147.483 Q1268.86 147.483 1267.47 149.097 Q1266.1 150.712 1266.1 153.524 Q1266.1 156.319 1267.47 157.951 Q1268.86 159.566 1271.22 159.566 Q1273.58 159.566 1274.95 157.951 Q1276.34 156.319 1276.34 153.524 Q1276.34 150.712 1274.95 149.097 Q1273.58 147.483 1271.22 147.483 M1278.18 136.493 L1278.18 139.687 Q1276.86 139.062 1275.51 138.733 Q1274.17 138.403 1272.85 138.403 Q1269.38 138.403 1267.54 140.747 Q1265.71 143.09 1265.45 147.83 Q1266.48 146.319 1268.02 145.521 Q1269.57 144.705 1271.43 144.705 Q1275.33 144.705 1277.59 147.083 Q1279.86 149.444 1279.86 153.524 Q1279.86 157.517 1277.5 159.93 Q1275.14 162.344 1271.22 162.344 Q1266.72 162.344 1264.34 158.906 Q1261.96 155.451 1261.96 148.906 Q1261.96 142.76 1264.88 139.115 Q1267.8 135.451 1272.71 135.451 Q1274.03 135.451 1275.37 135.712 Q1276.72 135.972 1278.18 136.493 Z" fill="#000000" fill-rule="nonzero" fill-opacity="1" /><path clip-path="url(#clip120)" d="M1293.41 138.229 Q1290.7 138.229 1289.33 140.903 Q1287.97 143.559 1287.97 148.906 Q1287.97 154.236 1289.33 156.91 Q1290.7 159.566 1293.41 159.566 Q1296.13 159.566 1297.48 156.91 Q1298.86 154.236 1298.86 148.906 Q1298.86 143.559 1297.48 140.903 Q1296.13 138.229 1293.41 138.229 M1293.41 135.451 Q1297.76 135.451 1300.05 138.906 Q1302.36 142.344 1302.36 148.906 Q1302.36 155.451 1300.05 158.906 Q1297.76 162.344 1293.41 162.344 Q1289.05 162.344 1286.74 158.906 Q1284.45 155.451 1284.45 148.906 Q1284.45 142.344 1286.74 138.906 Q1289.05 135.451 1293.41 135.451 Z" fill="#000000" fill-rule="nonzero" fill-opacity="1" /><path clip-path="url(#clip120)" d="M1350.26 18.9258 Q1346.74 18.9258 1344.84 21.4721 Q1342.85 24.1341 1342.85 28.5323 Q1342.85 33.185 1344.82 35.8702 Q1346.81 38.5322 1350.26 38.5322 Q1353.66 38.5322 1355.65 35.847 Q1357.65 33.1619 1357.65 28.5323 Q1357.65 24.2962 1355.65 21.4721 Q1353.83 18.9258 1350.26 18.9258 M1350.26 15.5462 L1364.4 15.5462 L1364.4 19.8054 L1359.64 19.8054 Q1362.16 23.4165 1362.16 28.5323 Q1362.16 34.898 1358.99 38.5091 Q1355.82 42.1433 1350.26 42.1433 Q1344.68 42.1433 1341.53 38.5091 Q1338.36 34.898 1338.36 28.5323 Q1338.36 22.1203 1341.53 18.5323 Q1344.15 15.5462 1350.26 15.5462 Z" fill="#000000" fill-rule="nonzero" fill-opacity="1" /><path clip-path="url(#clip120)" d="M1388.57 19.6666 Q1387.71 19.3656 1386.86 19.1342 Q1384.57 18.5323 1382.11 18.5323 Q1377.88 18.5323 1375.52 20.824 Q1373.32 22.9536 1372.9 26.8656 L1388.57 26.8656 L1388.57 30.1989 L1372.9 30.1989 Q1373.32 34.1109 1375.52 36.2405 Q1377.88 38.5322 1382.11 38.5322 Q1385.08 38.5322 1386.86 37.9304 L1388.57 37.3517 L1388.57 41.2174 L1386.74 41.634 Q1384.34 42.1433 1381.86 42.1433 Q1375.65 42.1433 1372.04 38.5322 Q1368.41 34.9211 1368.41 28.5323 Q1368.41 22.1434 1372.04 18.5323 Q1375.65 14.9212 1381.86 14.9212 Q1384.2 14.9212 1386.74 15.4305 Q1387.67 15.6157 1388.57 15.8934 L1388.57 19.6666 Z" fill="#000000" fill-rule="nonzero" fill-opacity="1" /><path clip-path="url(#clip123)" d="M1394.16 465.403 L1394.16 662.16 L1544.62 662.16 L1544.62 465.403 L1394.16 465.403 L1394.16 465.403  Z" fill="#009af9" fill-rule="evenodd" fill-opacity="1"/>
<polyline clip-path="url(#clip123)" style="stroke:#000000; stroke-linecap:round; stroke-linejoin:round; stroke-width:4; stroke-opacity:1; fill:none" points="1394.16,465.403 1394.16,662.16 1544.62,662.16 1544.62,465.403 1394.16,465.403 "/>
<path clip-path="url(#clip123)" d="M1544.62 165.989 L1544.62 662.16 L1695.09 662.16 L1695.09 165.989 L1544.62 165.989 L1544.62 165.989  Z" fill="#009af9" fill-rule="evenodd" fill-opacity="1"/>
<polyline clip-path="url(#clip123)" style="stroke:#000000; stroke-linecap:round; stroke-linejoin:round; stroke-width:4; stroke-opacity:1; fill:none" points="1544.62,165.989 1544.62,662.16 1695.09,662.16 1695.09,165.989 1544.62,165.989 "/>
<path clip-path="url(#clip123)" d="M1695.09 97.5521 L1695.09 662.16 L1845.56 662.16 L1845.56 97.5521 L1695.09 97.5521 L1695.09 97.5521  Z" fill="#009af9" fill-rule="evenodd" fill-opacity="1"/>
<polyline clip-path="url(#clip123)" style="stroke:#000000; stroke-linecap:round; stroke-linejoin:round; stroke-width:4; stroke-opacity:1; fill:none" points="1695.09,97.5521 1695.09,662.16 1845.56,662.16 1845.56,97.5521 1695.09,97.5521 "/>
<path clip-path="url(#clip123)" d="M1845.56 354.192 L1845.56 662.16 L1996.03 662.16 L1996.03 354.192 L1845.56 354.192 L1845.56 354.192  Z" fill="#009af9" fill-rule="evenodd" fill-opacity="1"/>
<polyline clip-path="url(#clip123)" style="stroke:#000000; stroke-linecap:round; stroke-linejoin:round; stroke-width:4; stroke-opacity:1; fill:none" points="1845.56,354.192 1845.56,662.16 1996.03,662.16 1996.03,354.192 1845.56,354.192 "/>
<path clip-path="url(#clip123)" d="M1996.03 439.739 L1996.03 662.16 L2146.49 662.16 L2146.49 439.739 L1996.03 439.739 L1996.03 439.739  Z" fill="#009af9" fill-rule="evenodd" fill-opacity="1"/>
<polyline clip-path="url(#clip123)" style="stroke:#000000; stroke-linecap:round; stroke-linejoin:round; stroke-width:4; stroke-opacity:1; fill:none" points="1996.03,439.739 1996.03,662.16 2146.49,662.16 2146.49,439.739 1996.03,439.739 "/>
<path clip-path="url(#clip123)" d="M2146.49 559.504 L2146.49 662.16 L2296.96 662.16 L2296.96 559.504 L2146.49 559.504 L2146.49 559.504  Z" fill="#009af9" fill-rule="evenodd" fill-opacity="1"/>
<polyline clip-path="url(#clip123)" style="stroke:#000000; stroke-linecap:round; stroke-linejoin:round; stroke-width:4; stroke-opacity:1; fill:none" points="2146.49,559.504 2146.49,662.16 2296.96,662.16 2296.96,559.504 2146.49,559.504 "/>
<circle clip-path="url(#clip123)" style="fill:#009af9; stroke:none; fill-opacity:0" cx="1469.39" cy="465.403" r="2"/>
<circle clip-path="url(#clip123)" style="fill:#009af9; stroke:none; fill-opacity:0" cx="1619.86" cy="165.989" r="2"/>
<circle clip-path="url(#clip123)" style="fill:#009af9; stroke:none; fill-opacity:0" cx="1770.33" cy="97.5521" r="2"/>
<circle clip-path="url(#clip123)" style="fill:#009af9; stroke:none; fill-opacity:0" cx="1920.79" cy="354.192" r="2"/>
<circle clip-path="url(#clip123)" style="fill:#009af9; stroke:none; fill-opacity:0" cx="2071.26" cy="439.739" r="2"/>
<circle clip-path="url(#clip123)" style="fill:#009af9; stroke:none; fill-opacity:0" cx="2221.73" cy="559.504" r="2"/>
<polyline clip-path="url(#clip123)" style="stroke:#ff0000; stroke-linecap:round; stroke-linejoin:round; stroke-width:8; stroke-opacity:1; fill:none" stroke-dasharray="32, 20" points="1826.7,1226.77 1826.7,-467.056 "/>
<polyline clip-path="url(#clip123)" style="stroke:#ff0000; stroke-linecap:round; stroke-linejoin:round; stroke-width:6; stroke-opacity:1; fill:none" stroke-dasharray="24, 12, 3, 12" points="1422.49,1226.77 1422.49,-467.056 "/>
<polyline clip-path="url(#clip123)" style="stroke:#ff0000; stroke-linecap:round; stroke-linejoin:round; stroke-width:6; stroke-opacity:1; fill:none" stroke-dasharray="24, 12, 3, 12" points="2217.97,1226.77 2217.97,-467.056 "/>
<path clip-path="url(#clip120)" d="M148.589 1456.91 L1162.98 1456.91 L1162.98 892.306 L148.589 892.306  Z" fill="#ffffff" fill-rule="evenodd" fill-opacity="1"/>
<defs>
  <clipPath id="clip124">
    <rect x="148" y="892" width="1015" height="566"/>
  </clipPath>
</defs>
<polyline clip-path="url(#clip124)" style="stroke:#000000; stroke-linecap:round; stroke-linejoin:round; stroke-width:2; stroke-opacity:0.1; fill:none" points="204.382,1456.91 204.382,892.306 "/>
<polyline clip-path="url(#clip124)" style="stroke:#000000; stroke-linecap:round; stroke-linejoin:round; stroke-width:2; stroke-opacity:0.1; fill:none" points="384.944,1456.91 384.944,892.306 "/>
<polyline clip-path="url(#clip124)" style="stroke:#000000; stroke-linecap:round; stroke-linejoin:round; stroke-width:2; stroke-opacity:0.1; fill:none" points="565.505,1456.91 565.505,892.306 "/>
<polyline clip-path="url(#clip124)" style="stroke:#000000; stroke-linecap:round; stroke-linejoin:round; stroke-width:2; stroke-opacity:0.1; fill:none" points="746.066,1456.91 746.066,892.306 "/>
<polyline clip-path="url(#clip124)" style="stroke:#000000; stroke-linecap:round; stroke-linejoin:round; stroke-width:2; stroke-opacity:0.1; fill:none" points="926.627,1456.91 926.627,892.306 "/>
<polyline clip-path="url(#clip124)" style="stroke:#000000; stroke-linecap:round; stroke-linejoin:round; stroke-width:2; stroke-opacity:0.1; fill:none" points="1107.19,1456.91 1107.19,892.306 "/>
<polyline clip-path="url(#clip124)" style="stroke:#000000; stroke-linecap:round; stroke-linejoin:round; stroke-width:2; stroke-opacity:0.1; fill:none" points="148.589,1456.91 1162.98,1456.91 "/>
<polyline clip-path="url(#clip124)" style="stroke:#000000; stroke-linecap:round; stroke-linejoin:round; stroke-width:2; stroke-opacity:0.1; fill:none" points="148.589,1317.16 1162.98,1317.16 "/>
<polyline clip-path="url(#clip124)" style="stroke:#000000; stroke-linecap:round; stroke-linejoin:round; stroke-width:2; stroke-opacity:0.1; fill:none" points="148.589,1177.41 1162.98,1177.41 "/>
<polyline clip-path="url(#clip124)" style="stroke:#000000; stroke-linecap:round; stroke-linejoin:round; stroke-width:2; stroke-opacity:0.1; fill:none" points="148.589,1037.65 1162.98,1037.65 "/>
<polyline clip-path="url(#clip124)" style="stroke:#000000; stroke-linecap:round; stroke-linejoin:round; stroke-width:2; stroke-opacity:0.1; fill:none" points="148.589,897.896 1162.98,897.896 "/>
<polyline clip-path="url(#clip120)" style="stroke:#000000; stroke-linecap:round; stroke-linejoin:round; stroke-width:4; stroke-opacity:1; fill:none" points="148.589,1456.91 1162.98,1456.91 "/>
<polyline clip-path="url(#clip120)" style="stroke:#000000; stroke-linecap:round; stroke-linejoin:round; stroke-width:4; stroke-opacity:1; fill:none" points="204.382,1456.91 204.382,1438.02 "/>
<polyline clip-path="url(#clip120)" style="stroke:#000000; stroke-linecap:round; stroke-linejoin:round; stroke-width:4; stroke-opacity:1; fill:none" points="384.944,1456.91 384.944,1438.02 "/>
<polyline clip-path="url(#clip120)" style="stroke:#000000; stroke-linecap:round; stroke-linejoin:round; stroke-width:4; stroke-opacity:1; fill:none" points="565.505,1456.91 565.505,1438.02 "/>
<polyline clip-path="url(#clip120)" style="stroke:#000000; stroke-linecap:round; stroke-linejoin:round; stroke-width:4; stroke-opacity:1; fill:none" points="746.066,1456.91 746.066,1438.02 "/>
<polyline clip-path="url(#clip120)" style="stroke:#000000; stroke-linecap:round; stroke-linejoin:round; stroke-width:4; stroke-opacity:1; fill:none" points="926.627,1456.91 926.627,1438.02 "/>
<polyline clip-path="url(#clip120)" style="stroke:#000000; stroke-linecap:round; stroke-linejoin:round; stroke-width:4; stroke-opacity:1; fill:none" points="1107.19,1456.91 1107.19,1438.02 "/>
<path clip-path="url(#clip120)" d="M135.065 1544.11 Q133.15 1546.03 134.071 1548.89 Q134.992 1551.73 138.773 1555.51 Q142.542 1559.28 145.39 1560.21 Q148.238 1561.12 150.153 1559.2 Q152.08 1557.27 151.159 1554.44 Q150.239 1551.58 146.47 1547.81 Q142.689 1544.03 139.841 1543.12 Q136.993 1542.19 135.065 1544.11 M133.101 1542.15 Q136.183 1539.07 140.246 1539.89 Q144.309 1540.69 148.95 1545.33 Q153.578 1549.96 154.388 1554.03 Q155.198 1558.08 152.117 1561.17 Q149.036 1564.25 144.972 1563.45 Q140.909 1562.63 136.281 1558 Q131.64 1553.36 130.83 1549.31 Q130.02 1545.23 133.101 1542.15 Z" fill="#000000" fill-rule="nonzero" fill-opacity="1" /><path clip-path="url(#clip120)" d="M159.335 1547 L161.926 1544.41 L165.044 1547.53 L162.453 1550.12 L159.335 1547 Z" fill="#000000" fill-rule="nonzero" fill-opacity="1" /><path clip-path="url(#clip120)" d="M152.141 1523.77 L161.876 1514.04 L163.963 1516.13 L156.5 1523.59 L160.993 1528.08 Q161.349 1527.36 161.803 1526.73 Q162.245 1526.09 162.785 1525.55 Q165.854 1522.48 169.328 1522.37 Q172.802 1522.26 175.675 1525.14 Q178.633 1528.09 178.437 1531.58 Q178.228 1535.05 174.877 1538.41 Q173.723 1539.56 172.323 1540.57 Q170.936 1541.56 169.267 1542.45 L166.775 1539.95 Q168.481 1539.45 169.954 1538.57 Q171.427 1537.68 172.741 1536.37 Q174.865 1534.24 174.987 1531.89 Q175.11 1529.53 173.195 1527.62 Q171.28 1525.7 168.923 1525.82 Q166.566 1525.95 164.442 1528.07 Q163.448 1529.06 162.674 1530.28 Q161.913 1531.48 161.349 1532.98 L152.141 1523.77 Z" fill="#000000" fill-rule="nonzero" fill-opacity="1" /><path clip-path="url(#clip120)" d="M184.072 1508.74 Q186.232 1507.34 188.43 1507.54 Q190.639 1507.74 192.407 1509.51 Q195.12 1512.22 194.74 1515.57 Q194.359 1518.92 190.922 1522.36 Q189.768 1523.52 188.307 1524.51 Q186.871 1525.5 185.115 1526.35 L182.721 1523.96 Q184.354 1523.53 185.888 1522.61 Q187.423 1521.69 188.761 1520.35 Q191.094 1518.02 191.388 1515.88 Q191.695 1513.73 189.94 1511.98 Q188.319 1510.36 186.269 1510.59 Q184.219 1510.8 182.193 1512.82 L180.057 1514.96 L178.02 1512.92 L180.254 1510.69 Q182.083 1508.86 182.328 1507.16 Q182.562 1505.46 181.187 1504.08 Q179.775 1502.67 178.02 1502.93 Q176.264 1503.16 174.398 1505.03 Q173.379 1506.05 172.434 1507.43 Q171.489 1508.82 170.556 1510.69 L168.346 1508.48 Q169.365 1506.67 170.396 1505.25 Q171.44 1503.81 172.532 1502.72 Q175.356 1499.9 178.29 1499.54 Q181.211 1499.17 183.396 1501.36 Q184.919 1502.88 185.103 1504.81 Q185.275 1506.72 184.072 1508.74 Z" fill="#000000" fill-rule="nonzero" fill-opacity="1" /><path clip-path="url(#clip120)" d="M184.133 1491.78 L193.868 1482.05 L195.955 1484.13 L188.491 1491.6 L192.984 1496.09 Q193.34 1495.37 193.794 1494.74 Q194.236 1494.1 194.776 1493.56 Q197.845 1490.49 201.32 1490.38 Q204.794 1490.27 207.666 1493.14 Q210.625 1496.1 210.428 1499.59 Q210.22 1503.06 206.868 1506.41 Q205.714 1507.57 204.315 1508.58 Q202.928 1509.57 201.258 1510.45 L198.766 1507.96 Q200.472 1507.46 201.946 1506.57 Q203.419 1505.69 204.732 1504.38 Q206.856 1502.25 206.979 1499.9 Q207.102 1497.54 205.186 1495.62 Q203.271 1493.71 200.914 1493.83 Q198.557 1493.95 196.434 1496.08 Q195.439 1497.07 194.666 1498.29 Q193.905 1499.49 193.34 1500.99 L184.133 1491.78 Z" fill="#000000" fill-rule="nonzero" fill-opacity="1" /><path clip-path="url(#clip120)" d="M315.099 1544.64 Q313.184 1546.56 314.104 1549.42 Q315.025 1552.25 318.806 1556.03 Q322.575 1559.8 325.423 1560.74 Q328.271 1561.65 330.186 1559.73 Q332.113 1557.8 331.193 1554.97 Q330.272 1552.11 326.503 1548.34 Q322.722 1544.56 319.874 1543.65 Q317.026 1542.72 315.099 1544.64 M313.135 1542.68 Q316.216 1539.6 320.279 1540.42 Q324.343 1541.22 328.983 1545.86 Q333.611 1550.49 334.421 1554.56 Q335.232 1558.61 332.15 1561.69 Q329.069 1564.78 325.006 1563.98 Q320.942 1563.15 316.314 1558.53 Q311.674 1553.89 310.863 1549.84 Q310.053 1545.76 313.135 1542.68 Z" fill="#000000" fill-rule="nonzero" fill-opacity="1" /><path clip-path="url(#clip120)" d="M339.369 1547.53 L341.959 1544.94 L345.077 1548.06 L342.487 1550.65 L339.369 1547.53 Z" fill="#000000" fill-rule="nonzero" fill-opacity="1" /><path clip-path="url(#clip120)" d="M332.175 1524.3 L341.91 1514.57 L343.997 1516.65 L336.533 1524.12 L341.026 1528.61 Q341.382 1527.89 341.836 1527.26 Q342.278 1526.62 342.818 1526.08 Q345.887 1523.01 349.361 1522.9 Q352.835 1522.79 355.708 1525.66 Q358.667 1528.62 358.47 1532.11 Q358.261 1535.58 354.91 1538.93 Q353.756 1540.09 352.357 1541.09 Q350.969 1542.09 349.3 1542.97 L346.808 1540.48 Q348.514 1539.98 349.987 1539.09 Q351.461 1538.21 352.774 1536.9 Q354.898 1534.77 355.021 1532.42 Q355.143 1530.06 353.228 1528.14 Q351.313 1526.23 348.956 1526.35 Q346.599 1526.47 344.475 1528.6 Q343.481 1529.59 342.708 1530.81 Q341.947 1532.01 341.382 1533.51 L332.175 1524.3 Z" fill="#000000" fill-rule="nonzero" fill-opacity="1" /><path clip-path="url(#clip120)" d="M357.12 1503.68 L360.643 1519.72 L366.904 1513.46 L357.12 1503.68 M354.309 1502.17 L357.427 1499.05 L369.371 1510.99 L371.986 1508.38 L374.049 1510.44 L371.434 1513.06 L375.755 1517.38 L373.287 1519.84 L368.966 1515.52 L360.692 1523.8 L358.298 1521.4 L354.309 1502.17 Z" fill="#000000" fill-rule="nonzero" fill-opacity="1" /><path clip-path="url(#clip120)" d="M371.078 1488.66 Q369.163 1490.58 370.083 1493.44 Q371.004 1496.27 374.785 1500.06 Q378.554 1503.82 381.402 1504.76 Q384.25 1505.67 386.165 1503.75 Q388.092 1501.82 387.172 1498.99 Q386.251 1496.13 382.482 1492.36 Q378.701 1488.58 375.853 1487.67 Q373.005 1486.74 371.078 1488.66 M369.114 1486.7 Q372.195 1483.62 376.258 1484.44 Q380.322 1485.24 384.962 1489.88 Q389.59 1494.51 390.4 1498.58 Q391.211 1502.63 388.129 1505.72 Q385.048 1508.8 380.985 1508 Q376.921 1507.18 372.293 1502.55 Q367.653 1497.91 366.842 1493.86 Q366.032 1489.78 369.114 1486.7 Z" fill="#000000" fill-rule="nonzero" fill-opacity="1" /><path clip-path="url(#clip120)" d="M496.188 1544.11 Q494.273 1546.03 495.193 1548.89 Q496.114 1551.73 499.895 1555.51 Q503.664 1559.28 506.512 1560.21 Q509.36 1561.12 511.275 1559.2 Q513.202 1557.27 512.282 1554.44 Q511.361 1551.58 507.592 1547.81 Q503.811 1544.03 500.963 1543.12 Q498.115 1542.19 496.188 1544.11 M494.224 1542.15 Q497.305 1539.07 501.368 1539.89 Q505.432 1540.69 510.072 1545.33 Q514.7 1549.96 515.51 1554.03 Q516.321 1558.08 513.239 1561.17 Q510.158 1564.25 506.095 1563.45 Q502.031 1562.63 497.403 1558 Q492.763 1553.36 491.952 1549.31 Q491.142 1545.23 494.224 1542.15 Z" fill="#000000" fill-rule="nonzero" fill-opacity="1" /><path clip-path="url(#clip120)" d="M520.458 1547 L523.048 1544.41 L526.166 1547.53 L523.576 1550.12 L520.458 1547 Z" fill="#000000" fill-rule="nonzero" fill-opacity="1" /><path clip-path="url(#clip120)" d="M513.264 1523.77 L522.999 1514.04 L525.086 1516.13 L517.622 1523.59 L522.115 1528.08 Q522.471 1527.36 522.925 1526.73 Q523.367 1526.09 523.907 1525.55 Q526.976 1522.48 530.45 1522.37 Q533.924 1522.26 536.797 1525.14 Q539.756 1528.09 539.559 1531.58 Q539.35 1535.05 535.999 1538.41 Q534.845 1539.56 533.446 1540.57 Q532.058 1541.56 530.389 1542.45 L527.897 1539.95 Q529.603 1539.45 531.076 1538.57 Q532.55 1537.68 533.863 1536.37 Q535.987 1534.24 536.11 1531.89 Q536.232 1529.53 534.317 1527.62 Q532.402 1525.7 530.045 1525.82 Q527.688 1525.95 525.564 1528.07 Q524.57 1529.06 523.797 1530.28 Q523.036 1531.48 522.471 1532.98 L513.264 1523.77 Z" fill="#000000" fill-rule="nonzero" fill-opacity="1" /><path clip-path="url(#clip120)" d="M538.209 1503.15 L541.732 1519.19 L547.993 1512.93 L538.209 1503.15 M535.398 1501.64 L538.516 1498.52 L550.46 1510.47 L553.075 1507.85 L555.138 1509.91 L552.523 1512.53 L556.844 1516.85 L554.376 1519.32 L550.055 1515 L541.781 1523.27 L539.387 1520.88 L535.398 1501.64 Z" fill="#000000" fill-rule="nonzero" fill-opacity="1" /><path clip-path="url(#clip120)" d="M545.255 1491.78 L554.99 1482.05 L557.077 1484.13 L549.613 1491.6 L554.106 1496.09 Q554.462 1495.37 554.917 1494.74 Q555.359 1494.1 555.899 1493.56 Q558.968 1490.49 562.442 1490.38 Q565.916 1490.27 568.789 1493.14 Q571.747 1496.1 571.551 1499.59 Q571.342 1503.06 567.991 1506.41 Q566.837 1507.57 565.437 1508.58 Q564.05 1509.57 562.38 1510.45 L559.888 1507.96 Q561.595 1507.46 563.068 1506.57 Q564.541 1505.69 565.855 1504.38 Q567.978 1502.25 568.101 1499.9 Q568.224 1497.54 566.309 1495.62 Q564.394 1493.71 562.037 1493.83 Q559.68 1493.95 557.556 1496.08 Q556.562 1497.07 555.788 1498.29 Q555.027 1499.49 554.462 1500.99 L545.255 1491.78 Z" fill="#000000" fill-rule="nonzero" fill-opacity="1" /><path clip-path="url(#clip120)" d="M676.221 1544.64 Q674.306 1546.56 675.227 1549.42 Q676.147 1552.25 679.928 1556.03 Q683.697 1559.8 686.545 1560.74 Q689.393 1561.65 691.308 1559.73 Q693.236 1557.8 692.315 1554.97 Q691.394 1552.11 687.626 1548.34 Q683.844 1544.56 680.996 1543.65 Q678.148 1542.72 676.221 1544.64 M674.257 1542.68 Q677.338 1539.6 681.402 1540.42 Q685.465 1541.22 690.105 1545.86 Q694.733 1550.49 695.544 1554.56 Q696.354 1558.61 693.273 1561.69 Q690.191 1564.78 686.128 1563.98 Q682.064 1563.15 677.436 1558.53 Q672.796 1553.89 671.986 1549.84 Q671.176 1545.76 674.257 1542.68 Z" fill="#000000" fill-rule="nonzero" fill-opacity="1" /><path clip-path="url(#clip120)" d="M700.491 1547.53 L703.081 1544.94 L706.199 1548.06 L703.609 1550.65 L700.491 1547.53 Z" fill="#000000" fill-rule="nonzero" fill-opacity="1" /><path clip-path="url(#clip120)" d="M693.297 1524.3 L703.032 1514.57 L705.119 1516.65 L697.655 1524.12 L702.148 1528.61 Q702.504 1527.89 702.958 1527.26 Q703.4 1526.62 703.94 1526.08 Q707.009 1523.01 710.484 1522.9 Q713.958 1522.79 716.83 1525.66 Q719.789 1528.62 719.592 1532.11 Q719.384 1535.58 716.032 1538.93 Q714.878 1540.09 713.479 1541.09 Q712.092 1542.09 710.422 1542.97 L707.93 1540.48 Q709.637 1539.98 711.11 1539.09 Q712.583 1538.21 713.896 1536.9 Q716.02 1534.77 716.143 1532.42 Q716.266 1530.06 714.351 1528.14 Q712.435 1526.23 710.078 1526.35 Q707.721 1526.47 705.598 1528.6 Q704.603 1529.59 703.83 1530.81 Q703.069 1532.01 702.504 1533.51 L693.297 1524.3 Z" fill="#000000" fill-rule="nonzero" fill-opacity="1" /><path clip-path="url(#clip120)" d="M709.293 1508.31 L719.028 1498.57 L721.115 1500.66 L713.651 1508.12 L718.144 1512.61 Q718.5 1511.89 718.954 1511.26 Q719.396 1510.63 719.936 1510.09 Q723.005 1507.02 726.479 1506.91 Q729.953 1506.8 732.826 1509.67 Q735.785 1512.63 735.588 1516.11 Q735.38 1519.59 732.028 1522.94 Q730.874 1524.09 729.475 1525.1 Q728.088 1526.09 726.418 1526.98 L723.926 1524.49 Q725.632 1523.98 727.105 1523.1 Q728.579 1522.21 729.892 1520.9 Q732.016 1518.78 732.139 1516.42 Q732.261 1514.06 730.346 1512.15 Q728.431 1510.23 726.074 1510.36 Q723.717 1510.48 721.593 1512.6 Q720.599 1513.6 719.826 1514.81 Q719.065 1516.01 718.5 1517.51 L709.293 1508.31 Z" fill="#000000" fill-rule="nonzero" fill-opacity="1" /><path clip-path="url(#clip120)" d="M732.2 1488.66 Q730.285 1490.58 731.206 1493.44 Q732.126 1496.27 735.907 1500.06 Q739.676 1503.82 742.524 1504.76 Q745.372 1505.67 747.287 1503.75 Q749.215 1501.82 748.294 1498.99 Q747.373 1496.13 743.604 1492.36 Q739.823 1488.58 736.975 1487.67 Q734.127 1486.74 732.2 1488.66 M730.236 1486.7 Q733.317 1483.62 737.381 1484.44 Q741.444 1485.24 746.084 1489.88 Q750.712 1494.51 751.523 1498.58 Q752.333 1502.63 749.252 1505.72 Q746.17 1508.8 742.107 1508 Q738.043 1507.18 733.415 1502.55 Q728.775 1497.91 727.965 1493.86 Q727.155 1489.78 730.236 1486.7 Z" fill="#000000" fill-rule="nonzero" fill-opacity="1" /><path clip-path="url(#clip120)" d="M857.31 1544.11 Q855.395 1546.03 856.316 1548.89 Q857.236 1551.73 861.017 1555.51 Q864.786 1559.28 867.634 1560.21 Q870.482 1561.12 872.397 1559.2 Q874.325 1557.27 873.404 1554.44 Q872.483 1551.58 868.715 1547.81 Q864.933 1544.03 862.085 1543.12 Q859.237 1542.19 857.31 1544.11 M855.346 1542.15 Q858.427 1539.07 862.491 1539.89 Q866.554 1540.69 871.194 1545.33 Q875.822 1549.96 876.633 1554.03 Q877.443 1558.08 874.362 1561.17 Q871.28 1564.25 867.217 1563.45 Q863.153 1562.63 858.525 1558 Q853.885 1553.36 853.075 1549.31 Q852.265 1545.23 855.346 1542.15 Z" fill="#000000" fill-rule="nonzero" fill-opacity="1" /><path clip-path="url(#clip120)" d="M881.58 1547 L884.17 1544.41 L887.288 1547.53 L884.698 1550.12 L881.58 1547 Z" fill="#000000" fill-rule="nonzero" fill-opacity="1" /><path clip-path="url(#clip120)" d="M874.386 1523.77 L884.121 1514.04 L886.208 1516.13 L878.744 1523.59 L883.237 1528.08 Q883.593 1527.36 884.047 1526.73 Q884.489 1526.09 885.029 1525.55 Q888.098 1522.48 891.573 1522.37 Q895.047 1522.26 897.919 1525.14 Q900.878 1528.09 900.681 1531.58 Q900.473 1535.05 897.121 1538.41 Q895.967 1539.56 894.568 1540.57 Q893.181 1541.56 891.511 1542.45 L889.019 1539.95 Q890.726 1539.45 892.199 1538.57 Q893.672 1537.68 894.985 1536.37 Q897.109 1534.24 897.232 1531.89 Q897.355 1529.53 895.44 1527.62 Q893.525 1525.7 891.168 1525.82 Q888.81 1525.95 886.687 1528.07 Q885.692 1529.06 884.919 1530.28 Q884.158 1531.48 883.593 1532.98 L874.386 1523.77 Z" fill="#000000" fill-rule="nonzero" fill-opacity="1" /><path clip-path="url(#clip120)" d="M890.382 1507.78 L900.117 1498.04 L902.204 1500.13 L894.74 1507.59 L899.233 1512.09 Q899.589 1511.36 900.043 1510.74 Q900.485 1510.1 901.025 1509.56 Q904.094 1506.49 907.568 1506.38 Q911.043 1506.27 913.915 1509.14 Q916.874 1512.1 916.677 1515.59 Q916.469 1519.06 913.117 1522.41 Q911.963 1523.56 910.564 1524.57 Q909.177 1525.57 907.507 1526.45 L905.015 1523.96 Q906.721 1523.45 908.194 1522.57 Q909.668 1521.69 910.981 1520.37 Q913.105 1518.25 913.228 1515.89 Q913.35 1513.53 911.435 1511.62 Q909.52 1509.7 907.163 1509.83 Q904.806 1509.95 902.682 1512.07 Q901.688 1513.07 900.915 1514.28 Q900.154 1515.49 899.589 1516.98 L890.382 1507.78 Z" fill="#000000" fill-rule="nonzero" fill-opacity="1" /><path clip-path="url(#clip120)" d="M906.378 1491.78 L916.113 1482.05 L918.199 1484.13 L910.736 1491.6 L915.229 1496.09 Q915.585 1495.37 916.039 1494.74 Q916.481 1494.1 917.021 1493.56 Q920.09 1490.49 923.564 1490.38 Q927.038 1490.27 929.911 1493.14 Q932.869 1496.1 932.673 1499.59 Q932.464 1503.06 929.113 1506.41 Q927.959 1507.57 926.559 1508.58 Q925.172 1509.57 923.503 1510.45 L921.011 1507.96 Q922.717 1507.46 924.19 1506.57 Q925.663 1505.69 926.977 1504.38 Q929.101 1502.25 929.223 1499.9 Q929.346 1497.54 927.431 1495.62 Q925.516 1493.71 923.159 1493.83 Q920.802 1493.95 918.678 1496.08 Q917.684 1497.07 916.91 1498.29 Q916.149 1499.49 915.585 1500.99 L906.378 1491.78 Z" fill="#000000" fill-rule="nonzero" fill-opacity="1" /><path clip-path="url(#clip120)" d="M1037.34 1544.64 Q1035.43 1546.56 1036.35 1549.42 Q1037.27 1552.25 1041.05 1556.03 Q1044.82 1559.8 1047.67 1560.74 Q1050.52 1561.65 1052.43 1559.73 Q1054.36 1557.8 1053.44 1554.97 Q1052.52 1552.11 1048.75 1548.34 Q1044.97 1544.56 1042.12 1543.65 Q1039.27 1542.72 1037.34 1544.64 M1035.38 1542.68 Q1038.46 1539.6 1042.52 1540.42 Q1046.59 1541.22 1051.23 1545.86 Q1055.86 1550.49 1056.67 1554.56 Q1057.48 1558.61 1054.39 1561.69 Q1051.31 1564.78 1047.25 1563.98 Q1043.19 1563.15 1038.56 1558.53 Q1033.92 1553.89 1033.11 1549.84 Q1032.3 1545.76 1035.38 1542.68 Z" fill="#000000" fill-rule="nonzero" fill-opacity="1" /><path clip-path="url(#clip120)" d="M1061.61 1547.53 L1064.2 1544.94 L1067.32 1548.06 L1064.73 1550.65 L1061.61 1547.53 Z" fill="#000000" fill-rule="nonzero" fill-opacity="1" /><path clip-path="url(#clip120)" d="M1054.42 1524.3 L1064.15 1514.57 L1066.24 1516.65 L1058.78 1524.12 L1063.27 1528.61 Q1063.63 1527.89 1064.08 1527.26 Q1064.52 1526.62 1065.06 1526.08 Q1068.13 1523.01 1071.61 1522.9 Q1075.08 1522.79 1077.95 1525.66 Q1080.91 1528.62 1080.71 1532.11 Q1080.51 1535.58 1077.15 1538.93 Q1076 1540.09 1074.6 1541.09 Q1073.21 1542.09 1071.54 1542.97 L1069.05 1540.48 Q1070.76 1539.98 1072.23 1539.09 Q1073.71 1538.21 1075.02 1536.9 Q1077.14 1534.77 1077.27 1532.42 Q1077.39 1530.06 1075.47 1528.14 Q1073.56 1526.23 1071.2 1526.35 Q1068.84 1526.47 1066.72 1528.6 Q1065.73 1529.59 1064.95 1530.81 Q1064.19 1532.01 1063.63 1533.51 L1054.42 1524.3 Z" fill="#000000" fill-rule="nonzero" fill-opacity="1" /><path clip-path="url(#clip120)" d="M1084.18 1510.9 Q1082.51 1512.57 1082.67 1514.69 Q1082.84 1516.8 1084.83 1518.79 Q1086.8 1520.77 1088.93 1520.95 Q1091.05 1521.11 1092.72 1519.44 Q1094.39 1517.77 1094.22 1515.66 Q1094.05 1513.52 1092.07 1511.55 Q1090.08 1509.56 1087.96 1509.4 Q1085.85 1509.23 1084.18 1510.9 M1081.33 1498.2 L1083.59 1500.46 Q1082.21 1500.95 1081.02 1501.68 Q1079.84 1502.39 1078.91 1503.32 Q1076.45 1505.78 1076.81 1508.74 Q1077.18 1511.68 1080.35 1515.22 Q1080 1513.42 1080.53 1511.77 Q1081.05 1510.1 1082.36 1508.78 Q1085.12 1506.02 1088.4 1506.11 Q1091.68 1506.17 1094.56 1509.05 Q1097.39 1511.88 1097.42 1515.25 Q1097.46 1518.63 1094.68 1521.4 Q1091.51 1524.58 1087.39 1523.83 Q1083.27 1523.07 1078.64 1518.45 Q1074.29 1514.1 1073.78 1509.46 Q1073.25 1504.81 1076.73 1501.33 Q1077.66 1500.4 1078.79 1499.64 Q1079.93 1498.87 1081.33 1498.2 Z" fill="#000000" fill-rule="nonzero" fill-opacity="1" /><path clip-path="url(#clip120)" d="M1093.32 1488.66 Q1091.41 1490.58 1092.33 1493.44 Q1093.25 1496.27 1097.03 1500.06 Q1100.8 1503.82 1103.65 1504.76 Q1106.49 1505.67 1108.41 1503.75 Q1110.34 1501.82 1109.42 1498.99 Q1108.5 1496.13 1104.73 1492.36 Q1100.95 1488.58 1098.1 1487.67 Q1095.25 1486.74 1093.32 1488.66 M1091.36 1486.7 Q1094.44 1483.62 1098.5 1484.44 Q1102.57 1485.24 1107.21 1489.88 Q1111.83 1494.51 1112.64 1498.58 Q1113.46 1502.63 1110.37 1505.72 Q1107.29 1508.8 1103.23 1508 Q1099.17 1507.18 1094.54 1502.55 Q1089.9 1497.91 1089.09 1493.86 Q1088.28 1489.78 1091.36 1486.7 Z" fill="#000000" fill-rule="nonzero" fill-opacity="1" /><polyline clip-path="url(#clip120)" style="stroke:#000000; stroke-linecap:round; stroke-linejoin:round; stroke-width:4; stroke-opacity:1; fill:none" points="148.589,1456.91 148.589,892.306 "/>
<polyline clip-path="url(#clip120)" style="stroke:#000000; stroke-linecap:round; stroke-linejoin:round; stroke-width:4; stroke-opacity:1; fill:none" points="148.589,1456.91 167.487,1456.91 "/>
<polyline clip-path="url(#clip120)" style="stroke:#000000; stroke-linecap:round; stroke-linejoin:round; stroke-width:4; stroke-opacity:1; fill:none" points="148.589,1317.16 167.487,1317.16 "/>
<polyline clip-path="url(#clip120)" style="stroke:#000000; stroke-linecap:round; stroke-linejoin:round; stroke-width:4; stroke-opacity:1; fill:none" points="148.589,1177.41 167.487,1177.41 "/>
<polyline clip-path="url(#clip120)" style="stroke:#000000; stroke-linecap:round; stroke-linejoin:round; stroke-width:4; stroke-opacity:1; fill:none" points="148.589,1037.65 167.487,1037.65 "/>
<polyline clip-path="url(#clip120)" style="stroke:#000000; stroke-linecap:round; stroke-linejoin:round; stroke-width:4; stroke-opacity:1; fill:none" points="148.589,897.896 167.487,897.896 "/>
<path clip-path="url(#clip120)" d="M103.631 1446.26 Q100.922 1446.26 99.5509 1448.94 Q98.1967 1451.59 98.1967 1456.94 Q98.1967 1462.27 99.5509 1464.94 Q100.922 1467.6 103.631 1467.6 Q106.356 1467.6 107.711 1464.94 Q109.082 1462.27 109.082 1456.94 Q109.082 1451.59 107.711 1448.94 Q106.356 1446.26 103.631 1446.26 M103.631 1443.49 Q107.988 1443.49 110.28 1446.94 Q112.589 1450.38 112.589 1456.94 Q112.589 1463.49 110.28 1466.94 Q107.988 1470.38 103.631 1470.38 Q99.2731 1470.38 96.9641 1466.94 Q94.6724 1463.49 94.6724 1456.94 Q94.6724 1450.38 96.9641 1446.94 Q99.2731 1443.49 103.631 1443.49 Z" fill="#000000" fill-rule="nonzero" fill-opacity="1" /><path clip-path="url(#clip120)" d="M77.2767 1327.17 L89.5162 1327.17 L89.5162 1330.12 L73.058 1330.12 L73.058 1327.17 Q75.0545 1325.1 78.492 1321.63 Q81.9468 1318.14 82.8322 1317.13 Q84.5163 1315.24 85.176 1313.94 Q85.8531 1312.62 85.8531 1311.35 Q85.8531 1309.29 84.3947 1307.98 Q82.9538 1306.68 80.6274 1306.68 Q78.9781 1306.68 77.1378 1307.26 Q75.3149 1307.83 73.2316 1308.99 L73.2316 1305.45 Q75.3496 1304.6 77.1899 1304.17 Q79.0302 1303.73 80.5579 1303.73 Q84.5857 1303.73 86.9815 1305.75 Q89.3773 1307.76 89.3773 1311.13 Q89.3773 1312.72 88.7697 1314.17 Q88.1794 1315.59 86.5996 1317.53 Q86.1655 1318.04 83.8392 1320.45 Q81.5128 1322.85 77.2767 1327.17 Z" fill="#000000" fill-rule="nonzero" fill-opacity="1" /><path clip-path="url(#clip120)" d="M96.912 1304.2 L110.679 1304.2 L110.679 1307.15 L100.124 1307.15 L100.124 1313.51 Q100.888 1313.24 101.652 1313.12 Q102.415 1312.98 103.179 1312.98 Q107.52 1312.98 110.054 1315.36 Q112.589 1317.74 112.589 1321.8 Q112.589 1325.99 109.985 1328.31 Q107.381 1330.62 102.641 1330.62 Q101.009 1330.62 99.3078 1330.35 Q97.6238 1330.07 95.8183 1329.51 L95.8183 1325.99 Q97.3808 1326.84 99.0474 1327.26 Q100.714 1327.67 102.572 1327.67 Q105.575 1327.67 107.329 1326.09 Q109.082 1324.51 109.082 1321.8 Q109.082 1319.1 107.329 1317.52 Q105.575 1315.94 102.572 1315.94 Q101.165 1315.94 99.7592 1316.25 Q98.3703 1316.56 96.912 1317.22 L96.912 1304.2 Z" fill="#000000" fill-rule="nonzero" fill-opacity="1" /><path clip-path="url(#clip120)" d="M73.5441 1164.45 L87.3114 1164.45 L87.3114 1167.4 L76.7559 1167.4 L76.7559 1173.75 Q77.5198 1173.49 78.2836 1173.37 Q79.0475 1173.23 79.8114 1173.23 Q84.1517 1173.23 86.6864 1175.61 Q89.2211 1177.99 89.2211 1182.05 Q89.2211 1186.23 86.6169 1188.56 Q84.0128 1190.87 79.2732 1190.87 Q77.6413 1190.87 75.9399 1190.59 Q74.2559 1190.31 72.4503 1189.76 L72.4503 1186.23 Q74.0128 1187.08 75.6795 1187.5 Q77.3462 1187.92 79.2038 1187.92 Q82.2072 1187.92 83.9607 1186.34 Q85.7142 1184.76 85.7142 1182.05 Q85.7142 1179.34 83.9607 1177.76 Q82.2072 1176.18 79.2038 1176.18 Q77.7975 1176.18 76.3913 1176.49 Q75.0024 1176.81 73.5441 1177.47 L73.5441 1164.45 Z" fill="#000000" fill-rule="nonzero" fill-opacity="1" /><path clip-path="url(#clip120)" d="M103.631 1166.75 Q100.922 1166.75 99.5509 1169.43 Q98.1967 1172.08 98.1967 1177.43 Q98.1967 1182.76 99.5509 1185.43 Q100.922 1188.09 103.631 1188.09 Q106.356 1188.09 107.711 1185.43 Q109.082 1182.76 109.082 1177.43 Q109.082 1172.08 107.711 1169.43 Q106.356 1166.75 103.631 1166.75 M103.631 1163.98 Q107.988 1163.98 110.28 1167.43 Q112.589 1170.87 112.589 1177.43 Q112.589 1183.98 110.28 1187.43 Q107.988 1190.87 103.631 1190.87 Q99.2731 1190.87 96.9641 1187.43 Q94.6724 1183.98 94.6724 1177.43 Q94.6724 1170.87 96.9641 1167.43 Q99.2731 1163.98 103.631 1163.98 Z" fill="#000000" fill-rule="nonzero" fill-opacity="1" /><path clip-path="url(#clip120)" d="M73.3705 1024.69 L90.0371 1024.69 L90.0371 1026.18 L80.6274 1050.61 L76.9642 1050.61 L85.8183 1027.64 L73.3705 1027.64 L73.3705 1024.69 Z" fill="#000000" fill-rule="nonzero" fill-opacity="1" /><path clip-path="url(#clip120)" d="M96.912 1024.69 L110.679 1024.69 L110.679 1027.64 L100.124 1027.64 L100.124 1034 Q100.888 1033.74 101.652 1033.61 Q102.415 1033.48 103.179 1033.48 Q107.52 1033.48 110.054 1035.85 Q112.589 1038.23 112.589 1042.29 Q112.589 1046.48 109.985 1048.81 Q107.381 1051.11 102.641 1051.11 Q101.009 1051.11 99.3078 1050.84 Q97.6238 1050.56 95.8183 1050 L95.8183 1046.48 Q97.3808 1047.33 99.0474 1047.75 Q100.714 1048.16 102.572 1048.16 Q105.575 1048.16 107.329 1046.58 Q109.082 1045 109.082 1042.29 Q109.082 1039.59 107.329 1038.01 Q105.575 1036.43 102.572 1036.43 Q101.165 1036.43 99.7592 1036.74 Q98.3703 1037.05 96.912 1037.71 L96.912 1024.69 Z" fill="#000000" fill-rule="nonzero" fill-opacity="1" /><path clip-path="url(#clip120)" d="M51.4956 907.905 L57.2247 907.905 L57.2247 888.131 L50.9921 889.381 L50.9921 886.186 L57.19 884.936 L60.6969 884.936 L60.6969 907.905 L66.4261 907.905 L66.4261 910.856 L51.4956 910.856 L51.4956 907.905 Z" fill="#000000" fill-rule="nonzero" fill-opacity="1" /><path clip-path="url(#clip120)" d="M81.0093 887.245 Q78.301 887.245 76.9295 889.919 Q75.5753 892.575 75.5753 897.922 Q75.5753 903.252 76.9295 905.926 Q78.301 908.582 81.0093 908.582 Q83.735 908.582 85.0892 905.926 Q86.4607 903.252 86.4607 897.922 Q86.4607 892.575 85.0892 889.919 Q83.735 887.245 81.0093 887.245 M81.0093 884.468 Q85.3669 884.468 87.6586 887.922 Q89.9676 891.36 89.9676 897.922 Q89.9676 904.467 87.6586 907.922 Q85.3669 911.36 81.0093 911.36 Q76.6517 911.36 74.3427 907.922 Q72.051 904.467 72.051 897.922 Q72.051 891.36 74.3427 887.922 Q76.6517 884.468 81.0093 884.468 Z" fill="#000000" fill-rule="nonzero" fill-opacity="1" /><path clip-path="url(#clip120)" d="M103.631 887.245 Q100.922 887.245 99.5509 889.919 Q98.1967 892.575 98.1967 897.922 Q98.1967 903.252 99.5509 905.926 Q100.922 908.582 103.631 908.582 Q106.356 908.582 107.711 905.926 Q109.082 903.252 109.082 897.922 Q109.082 892.575 107.711 889.919 Q106.356 887.245 103.631 887.245 M103.631 884.468 Q107.988 884.468 110.28 887.922 Q112.589 891.36 112.589 897.922 Q112.589 904.467 110.28 907.922 Q107.988 911.36 103.631 911.36 Q99.2731 911.36 96.9641 907.922 Q94.6724 904.467 94.6724 897.922 Q94.6724 891.36 96.9641 887.922 Q99.2731 884.468 103.631 884.468 Z" fill="#000000" fill-rule="nonzero" fill-opacity="1" /><path clip-path="url(#clip120)" d="M160.487 813.68 Q156.969 813.68 155.07 816.226 Q153.08 818.888 153.08 823.286 Q153.08 827.939 155.047 830.624 Q157.038 833.286 160.487 833.286 Q163.89 833.286 165.881 830.601 Q167.871 827.916 167.871 823.286 Q167.871 819.05 165.881 816.226 Q164.052 813.68 160.487 813.68 M160.487 810.3 L174.631 810.3 L174.631 814.559 L169.862 814.559 Q172.385 818.171 172.385 823.286 Q172.385 829.652 169.214 833.263 Q166.043 836.897 160.487 836.897 Q154.908 836.897 151.76 833.263 Q148.589 829.652 148.589 823.286 Q148.589 816.874 151.76 813.286 Q154.376 810.3 160.487 810.3 Z" fill="#000000" fill-rule="nonzero" fill-opacity="1" /><path clip-path="url(#clip120)" d="M185.649 836.226 L177.732 810.3 L182.316 810.3 L189.005 832.059 Q191.783 829.189 194.098 825.208 Q195.857 822.221 195.95 819.629 Q195.996 818.402 195.441 816.087 Q194.792 813.333 192.339 810.3 L196.644 810.3 L196.644 810.3 Q198.242 812.36 199.306 815.231 Q200.279 817.87 200.279 819.675 Q200.279 824.212 197.13 828.263 Q193.033 833.541 190.186 836.226 L185.649 836.226 Z" fill="#000000" fill-rule="nonzero" fill-opacity="1" /><path clip-path="url(#clip124)" d="M204.382 1183 L204.382 1456.91 L384.944 1456.91 L384.944 1183 L204.382 1183 L204.382 1183  Z" fill="#009af9" fill-rule="evenodd" fill-opacity="1"/>
<polyline clip-path="url(#clip124)" style="stroke:#000000; stroke-linecap:round; stroke-linejoin:round; stroke-width:4; stroke-opacity:1; fill:none" points="204.382,1183 204.382,1456.91 384.944,1456.91 384.944,1183 204.382,1183 "/>
<path clip-path="url(#clip124)" d="M384.944 1233.31 L384.944 1456.91 L565.505 1456.91 L565.505 1233.31 L384.944 1233.31 L384.944 1233.31  Z" fill="#009af9" fill-rule="evenodd" fill-opacity="1"/>
<polyline clip-path="url(#clip124)" style="stroke:#000000; stroke-linecap:round; stroke-linejoin:round; stroke-width:4; stroke-opacity:1; fill:none" points="384.944,1233.31 384.944,1456.91 565.505,1456.91 565.505,1233.31 384.944,1233.31 "/>
<path clip-path="url(#clip124)" d="M565.505 892.306 L565.505 1456.91 L746.066 1456.91 L746.066 892.306 L565.505 892.306 L565.505 892.306  Z" fill="#009af9" fill-rule="evenodd" fill-opacity="1"/>
<polyline clip-path="url(#clip124)" style="stroke:#000000; stroke-linecap:round; stroke-linejoin:round; stroke-width:4; stroke-opacity:1; fill:none" points="565.505,892.306 565.505,1456.91 746.066,1456.91 746.066,892.306 565.505,892.306 "/>
<path clip-path="url(#clip124)" d="M746.066 1305.98 L746.066 1456.91 L926.627 1456.91 L926.627 1305.98 L746.066 1305.98 L746.066 1305.98  Z" fill="#009af9" fill-rule="evenodd" fill-opacity="1"/>
<polyline clip-path="url(#clip124)" style="stroke:#000000; stroke-linecap:round; stroke-linejoin:round; stroke-width:4; stroke-opacity:1; fill:none" points="746.066,1305.98 746.066,1456.91 926.627,1456.91 926.627,1305.98 746.066,1305.98 "/>
<path clip-path="url(#clip124)" d="M926.627 1434.55 L926.627 1456.91 L1107.19 1456.91 L1107.19 1434.55 L926.627 1434.55 L926.627 1434.55  Z" fill="#009af9" fill-rule="evenodd" fill-opacity="1"/>
<polyline clip-path="url(#clip124)" style="stroke:#000000; stroke-linecap:round; stroke-linejoin:round; stroke-width:4; stroke-opacity:1; fill:none" points="926.627,1434.55 926.627,1456.91 1107.19,1456.91 1107.19,1434.55 926.627,1434.55 "/>
<circle clip-path="url(#clip124)" style="fill:#009af9; stroke:none; fill-opacity:0" cx="294.663" cy="1183" r="2"/>
<circle clip-path="url(#clip124)" style="fill:#009af9; stroke:none; fill-opacity:0" cx="475.224" cy="1233.31" r="2"/>
<circle clip-path="url(#clip124)" style="fill:#009af9; stroke:none; fill-opacity:0" cx="655.785" cy="892.306" r="2"/>
<circle clip-path="url(#clip124)" style="fill:#009af9; stroke:none; fill-opacity:0" cx="836.346" cy="1305.98" r="2"/>
<circle clip-path="url(#clip124)" style="fill:#009af9; stroke:none; fill-opacity:0" cx="1016.91" cy="1434.55" r="2"/>
<polyline clip-path="url(#clip124)" style="stroke:#ff0000; stroke-linecap:round; stroke-linejoin:round; stroke-width:8; stroke-opacity:1; fill:none" stroke-dasharray="32, 20" points="560.026,2021.52 560.026,327.698 "/>
<polyline clip-path="url(#clip124)" style="stroke:#ff0000; stroke-linecap:round; stroke-linejoin:round; stroke-width:6; stroke-opacity:1; fill:none" stroke-dasharray="24, 12, 3, 12" points="266.839,2021.52 266.839,327.698 "/>
<polyline clip-path="url(#clip124)" style="stroke:#ff0000; stroke-linecap:round; stroke-linejoin:round; stroke-width:6; stroke-opacity:1; fill:none" stroke-dasharray="24, 12, 3, 12" points="925.162,2021.52 925.162,327.698 "/>
</svg>
