<?xml version="1.0" encoding="utf-8"?>
<svg xmlns="http://www.w3.org/2000/svg" xmlns:xlink="http://www.w3.org/1999/xlink" width="600" height="400" viewBox="0 0 2400 1600">
<defs>
  <clipPath id="clip710">
    <rect x="0" y="0" width="2400" height="1600"/>
  </clipPath>
</defs>
<path clip-path="url(#clip710)" d="M0 1600 L2400 1600 L2400 0 L0 0  Z" fill="#ffffff" fill-rule="evenodd" fill-opacity="1"/>
<defs>
  <clipPath id="clip711">
    <rect x="480" y="0" width="1681" height="1600"/>
  </clipPath>
</defs>
<path clip-path="url(#clip710)" d="M128.138 662.16 L1152.76 662.16 L1152.76 97.5521 L128.138 97.5521  Z" fill="#ffffff" fill-rule="evenodd" fill-opacity="1"/>
<defs>
  <clipPath id="clip712">
    <rect x="128" y="97" width="1026" height="566"/>
  </clipPath>
</defs>
<polyline clip-path="url(#clip712)" style="stroke:#000000; stroke-linecap:round; stroke-linejoin:round; stroke-width:2; stroke-opacity:0.1; fill:none" points="298.482,662.16 298.482,97.5521 "/>
<polyline clip-path="url(#clip712)" style="stroke:#000000; stroke-linecap:round; stroke-linejoin:round; stroke-width:2; stroke-opacity:0.1; fill:none" points="526.459,662.16 526.459,97.5521 "/>
<polyline clip-path="url(#clip712)" style="stroke:#000000; stroke-linecap:round; stroke-linejoin:round; stroke-width:2; stroke-opacity:0.1; fill:none" points="754.435,662.16 754.435,97.5521 "/>
<polyline clip-path="url(#clip712)" style="stroke:#000000; stroke-linecap:round; stroke-linejoin:round; stroke-width:2; stroke-opacity:0.1; fill:none" points="982.412,662.16 982.412,97.5521 "/>
<polyline clip-path="url(#clip712)" style="stroke:#000000; stroke-linecap:round; stroke-linejoin:round; stroke-width:2; stroke-opacity:0.1; fill:none" points="128.138,662.16 1152.76,662.16 "/>
<polyline clip-path="url(#clip712)" style="stroke:#000000; stroke-linecap:round; stroke-linejoin:round; stroke-width:2; stroke-opacity:0.1; fill:none" points="128.138,551.453 1152.76,551.453 "/>
<polyline clip-path="url(#clip712)" style="stroke:#000000; stroke-linecap:round; stroke-linejoin:round; stroke-width:2; stroke-opacity:0.1; fill:none" points="128.138,440.745 1152.76,440.745 "/>
<polyline clip-path="url(#clip712)" style="stroke:#000000; stroke-linecap:round; stroke-linejoin:round; stroke-width:2; stroke-opacity:0.1; fill:none" points="128.138,330.038 1152.76,330.038 "/>
<polyline clip-path="url(#clip712)" style="stroke:#000000; stroke-linecap:round; stroke-linejoin:round; stroke-width:2; stroke-opacity:0.1; fill:none" points="128.138,219.33 1152.76,219.33 "/>
<polyline clip-path="url(#clip712)" style="stroke:#000000; stroke-linecap:round; stroke-linejoin:round; stroke-width:2; stroke-opacity:0.1; fill:none" points="128.138,108.623 1152.76,108.623 "/>
<polyline clip-path="url(#clip710)" style="stroke:#000000; stroke-linecap:round; stroke-linejoin:round; stroke-width:4; stroke-opacity:1; fill:none" points="128.138,662.16 1152.76,662.16 "/>
<polyline clip-path="url(#clip710)" style="stroke:#000000; stroke-linecap:round; stroke-linejoin:round; stroke-width:4; stroke-opacity:1; fill:none" points="298.482,662.16 298.482,643.263 "/>
<polyline clip-path="url(#clip710)" style="stroke:#000000; stroke-linecap:round; stroke-linejoin:round; stroke-width:4; stroke-opacity:1; fill:none" points="526.459,662.16 526.459,643.263 "/>
<polyline clip-path="url(#clip710)" style="stroke:#000000; stroke-linecap:round; stroke-linejoin:round; stroke-width:4; stroke-opacity:1; fill:none" points="754.435,662.16 754.435,643.263 "/>
<polyline clip-path="url(#clip710)" style="stroke:#000000; stroke-linecap:round; stroke-linejoin:round; stroke-width:4; stroke-opacity:1; fill:none" points="982.412,662.16 982.412,643.263 "/>
<path clip-path="url(#clip710)" d="M245.112 733.414 Q243.196 735.329 244.117 738.189 Q245.038 741.025 248.819 744.806 Q252.588 748.575 255.436 749.508 Q258.284 750.416 260.199 748.501 Q262.126 746.574 261.206 743.738 Q260.285 740.878 256.516 737.109 Q252.735 733.328 249.887 732.42 Q247.039 731.487 245.112 733.414 M243.147 731.45 Q246.229 728.369 250.292 729.191 Q254.355 729.989 258.996 734.629 Q263.624 739.257 264.434 743.333 Q265.244 747.384 262.163 750.466 Q259.082 753.547 255.018 752.749 Q250.955 751.926 246.327 747.298 Q241.687 742.658 240.876 738.607 Q240.066 734.531 243.147 731.45 Z" fill="#000000" fill-rule="nonzero" fill-opacity="1" /><path clip-path="url(#clip710)" d="M269.381 736.299 L271.972 733.709 L275.09 736.827 L272.5 739.417 L269.381 736.299 Z" fill="#000000" fill-rule="nonzero" fill-opacity="1" /><path clip-path="url(#clip710)" d="M277.091 717.418 Q275.323 719.186 275.249 721.15 Q275.188 723.102 276.845 724.759 Q278.503 726.417 280.454 726.355 Q282.419 726.282 284.186 724.514 Q285.954 722.746 286.028 720.782 Q286.089 718.806 284.444 717.161 Q282.787 715.503 280.823 715.577 Q278.871 715.638 277.091 717.418 M273.555 718.842 Q271.567 720.045 269.578 719.849 Q267.601 719.64 266.03 718.069 Q263.833 715.872 264.115 713.036 Q264.41 710.188 267.135 707.462 Q269.872 704.725 272.708 704.442 Q275.544 704.16 277.741 706.358 Q279.313 707.929 279.509 709.918 Q279.718 711.894 278.527 713.871 Q280.737 712.496 282.946 712.717 Q285.168 712.925 286.924 714.681 Q289.588 717.345 289.379 720.401 Q289.183 723.446 286.151 726.478 Q283.118 729.51 280.062 729.719 Q277.017 729.915 274.353 727.251 Q272.598 725.496 272.389 723.274 Q272.18 721.052 273.555 718.842 M268.731 715.835 Q270.155 717.259 271.837 717.173 Q273.531 717.075 275.139 715.466 Q276.735 713.871 276.833 712.176 Q276.943 710.47 275.519 709.046 Q274.095 707.622 272.389 707.732 Q270.695 707.831 269.099 709.427 Q267.491 711.035 267.393 712.729 Q267.307 714.411 268.731 715.835 Z" fill="#000000" fill-rule="nonzero" fill-opacity="1" /><path clip-path="url(#clip710)" d="M277.533 697.727 L289.318 685.942 L290.374 686.998 L300.992 710.924 L298.402 713.515 L288.422 691.012 L279.62 699.814 L277.533 697.727 Z" fill="#000000" fill-rule="nonzero" fill-opacity="1" /><path clip-path="url(#clip710)" d="M472.659 733.844 Q470.743 735.759 471.664 738.619 Q472.585 741.455 476.366 745.236 Q480.135 749.005 482.983 749.938 Q485.831 750.846 487.746 748.931 Q489.673 747.004 488.752 744.168 Q487.832 741.308 484.063 737.539 Q480.282 733.758 477.434 732.849 Q474.586 731.916 472.659 733.844 M470.694 731.88 Q473.776 728.798 477.839 729.621 Q481.902 730.419 486.543 735.059 Q491.171 739.687 491.981 743.763 Q492.791 747.814 489.71 750.895 Q486.629 753.977 482.565 753.179 Q478.502 752.356 473.874 747.728 Q469.233 743.088 468.423 739.037 Q467.613 734.961 470.694 731.88 Z" fill="#000000" fill-rule="nonzero" fill-opacity="1" /><path clip-path="url(#clip710)" d="M496.928 736.729 L499.519 734.138 L502.637 737.256 L500.046 739.847 L496.928 736.729 Z" fill="#000000" fill-rule="nonzero" fill-opacity="1" /><path clip-path="url(#clip710)" d="M504.638 717.848 Q502.87 719.616 502.796 721.58 Q502.735 723.532 504.392 725.189 Q506.05 726.846 508.001 726.785 Q509.966 726.711 511.733 724.944 Q513.501 723.176 513.575 721.212 Q513.636 719.235 511.991 717.59 Q510.334 715.933 508.37 716.007 Q506.418 716.068 504.638 717.848 M501.102 719.272 Q499.114 720.475 497.125 720.279 Q495.148 720.07 493.577 718.499 Q491.38 716.301 491.662 713.465 Q491.957 710.617 494.682 707.892 Q497.419 705.155 500.255 704.872 Q503.091 704.59 505.288 706.787 Q506.86 708.359 507.056 710.347 Q507.265 712.324 506.074 714.3 Q508.284 712.925 510.493 713.146 Q512.715 713.355 514.471 715.11 Q517.135 717.774 516.926 720.831 Q516.73 723.876 513.698 726.908 Q510.665 729.94 507.609 730.149 Q504.564 730.345 501.9 727.681 Q500.145 725.926 499.936 723.704 Q499.727 721.482 501.102 719.272 M496.278 716.264 Q497.702 717.688 499.384 717.602 Q501.078 717.504 502.686 715.896 Q504.282 714.3 504.38 712.606 Q504.49 710.9 503.066 709.476 Q501.642 708.052 499.936 708.162 Q498.242 708.26 496.646 709.856 Q495.038 711.464 494.94 713.159 Q494.854 714.84 496.278 716.264 Z" fill="#000000" fill-rule="nonzero" fill-opacity="1" /><path clip-path="url(#clip710)" d="M520.634 701.852 Q518.866 703.62 518.792 705.584 Q518.731 707.536 520.388 709.193 Q522.045 710.851 523.997 710.789 Q525.961 710.716 527.729 708.948 Q529.497 707.18 529.57 705.216 Q529.632 703.239 527.987 701.594 Q526.33 699.937 524.365 700.011 Q522.414 700.072 520.634 701.852 M517.098 703.276 Q515.109 704.479 513.121 704.283 Q511.144 704.074 509.573 702.503 Q507.375 700.305 507.658 697.47 Q507.952 694.622 510.678 691.896 Q513.415 689.159 516.251 688.876 Q519.087 688.594 521.284 690.791 Q522.855 692.363 523.052 694.352 Q523.261 696.328 522.07 698.304 Q524.28 696.93 526.489 697.15 Q528.711 697.359 530.467 699.115 Q533.131 701.779 532.922 704.835 Q532.725 707.88 529.693 710.912 Q526.661 713.944 523.604 714.153 Q520.56 714.349 517.896 711.685 Q516.14 709.93 515.932 707.708 Q515.723 705.486 517.098 703.276 M512.273 700.269 Q513.698 701.693 515.379 701.607 Q517.073 701.509 518.682 699.9 Q520.277 698.304 520.376 696.61 Q520.486 694.904 519.062 693.48 Q517.638 692.056 515.932 692.166 Q514.238 692.265 512.642 693.861 Q511.034 695.469 510.935 697.163 Q510.849 698.845 512.273 700.269 Z" fill="#000000" fill-rule="nonzero" fill-opacity="1" /><path clip-path="url(#clip710)" d="M700.684 733.795 Q698.769 735.71 699.69 738.57 Q700.611 741.406 704.392 745.187 Q708.16 748.956 711.008 749.889 Q713.857 750.797 715.772 748.882 Q717.699 746.955 716.778 744.119 Q715.858 741.259 712.089 737.49 Q708.308 733.709 705.46 732.8 Q702.612 731.867 700.684 733.795 M698.72 731.83 Q701.801 728.749 705.865 729.572 Q709.928 730.37 714.569 735.01 Q719.197 739.638 720.007 743.714 Q720.817 747.765 717.736 750.846 Q714.654 753.927 710.591 753.129 Q706.528 752.307 701.9 747.679 Q697.259 743.039 696.449 738.987 Q695.639 734.912 698.72 731.83 Z" fill="#000000" fill-rule="nonzero" fill-opacity="1" /><path clip-path="url(#clip710)" d="M724.954 736.68 L727.544 734.089 L730.662 737.207 L728.072 739.798 L724.954 736.68 Z" fill="#000000" fill-rule="nonzero" fill-opacity="1" /><path clip-path="url(#clip710)" d="M732.663 717.799 Q730.896 719.567 730.822 721.531 Q730.761 723.483 732.418 725.14 Q734.075 726.797 736.027 726.736 Q737.991 726.662 739.759 724.894 Q741.527 723.127 741.6 721.163 Q741.662 719.186 740.017 717.541 Q738.36 715.884 736.395 715.957 Q734.444 716.019 732.663 717.799 M729.128 719.223 Q727.139 720.426 725.151 720.23 Q723.174 720.021 721.603 718.45 Q719.405 716.252 719.688 713.416 Q719.982 710.568 722.708 707.843 Q725.445 705.105 728.281 704.823 Q731.117 704.541 733.314 706.738 Q734.885 708.309 735.082 710.298 Q735.291 712.275 734.1 714.251 Q736.309 712.876 738.519 713.097 Q740.741 713.306 742.497 715.061 Q745.161 717.725 744.952 720.782 Q744.755 723.826 741.723 726.859 Q738.691 729.891 735.634 730.1 Q732.59 730.296 729.926 727.632 Q728.17 725.877 727.962 723.655 Q727.753 721.433 729.128 719.223 M724.303 716.215 Q725.727 717.639 727.409 717.553 Q729.103 717.455 730.712 715.847 Q732.307 714.251 732.406 712.557 Q732.516 710.851 731.092 709.427 Q729.668 708.003 727.962 708.113 Q726.268 708.211 724.672 709.807 Q723.064 711.415 722.965 713.109 Q722.879 714.791 724.303 716.215 Z" fill="#000000" fill-rule="nonzero" fill-opacity="1" /><path clip-path="url(#clip710)" d="M751.753 715.356 L749.494 713.097 Q750.869 712.606 752.06 711.882 Q753.25 711.158 754.171 710.237 Q756.626 707.782 756.27 704.848 Q755.914 701.889 752.735 698.341 Q753.079 700.109 752.551 701.766 Q752.023 703.424 750.697 704.749 Q747.947 707.499 744.682 707.45 Q741.416 707.376 738.531 704.492 Q735.708 701.668 735.671 698.292 Q735.634 694.916 738.409 692.142 Q741.588 688.962 745.701 689.736 Q749.813 690.485 754.454 695.125 Q758.787 699.458 759.315 704.111 Q759.843 708.739 756.369 712.213 Q755.436 713.146 754.294 713.92 Q753.152 714.693 751.753 715.356 M748.917 702.65 Q750.587 700.981 750.415 698.869 Q750.255 696.745 748.266 694.757 Q746.29 692.78 744.166 692.621 Q742.042 692.436 740.373 694.106 Q738.703 695.776 738.875 697.912 Q739.047 700.023 741.024 702 Q743.012 703.988 745.124 704.16 Q747.247 704.32 748.917 702.65 Z" fill="#000000" fill-rule="nonzero" fill-opacity="1" /><path clip-path="url(#clip710)" d="M928.563 733.893 Q926.648 735.808 927.568 738.668 Q928.489 741.504 932.27 745.285 Q936.039 749.054 938.887 749.987 Q941.735 750.895 943.65 748.98 Q945.577 747.053 944.657 744.217 Q943.736 741.357 939.967 737.588 Q936.186 733.807 933.338 732.898 Q930.49 731.966 928.563 733.893 M926.599 731.929 Q929.68 728.847 933.743 729.67 Q937.807 730.468 942.447 735.108 Q947.075 739.736 947.885 743.812 Q948.695 747.863 945.614 750.944 Q942.533 754.026 938.469 753.228 Q934.406 752.405 929.778 747.777 Q925.138 743.137 924.327 739.086 Q923.517 735.01 926.599 731.929 Z" fill="#000000" fill-rule="nonzero" fill-opacity="1" /><path clip-path="url(#clip710)" d="M952.833 736.778 L955.423 734.187 L958.541 737.306 L955.951 739.896 L952.833 736.778 Z" fill="#000000" fill-rule="nonzero" fill-opacity="1" /><path clip-path="url(#clip710)" d="M963.635 731.45 L961.377 729.191 Q962.752 728.7 963.942 727.976 Q965.133 727.251 966.054 726.331 Q968.509 723.876 968.153 720.942 Q967.797 717.983 964.618 714.435 Q964.961 716.203 964.433 717.86 Q963.906 719.518 962.58 720.843 Q959.83 723.593 956.564 723.544 Q953.299 723.47 950.414 720.586 Q947.591 717.762 947.554 714.386 Q947.517 711.01 950.291 708.236 Q953.471 705.056 957.583 705.83 Q961.696 706.579 966.336 711.219 Q970.67 715.552 971.198 720.205 Q971.725 724.833 968.251 728.307 Q967.318 729.24 966.177 730.014 Q965.035 730.787 963.635 731.45 M960.8 718.744 Q962.469 717.075 962.297 714.963 Q962.138 712.839 960.149 710.851 Q958.173 708.874 956.049 708.715 Q953.925 708.53 952.256 710.2 Q950.586 711.87 950.758 714.006 Q950.93 716.117 952.906 718.094 Q954.895 720.082 957.006 720.254 Q959.13 720.414 960.8 718.744 Z" fill="#000000" fill-rule="nonzero" fill-opacity="1" /><path clip-path="url(#clip710)" d="M968.546 693.91 Q966.631 695.825 967.552 698.685 Q968.472 701.521 972.253 705.302 Q976.022 709.071 978.87 710.004 Q981.718 710.912 983.633 708.997 Q985.561 707.07 984.64 704.234 Q983.719 701.373 979.95 697.605 Q976.169 693.824 973.321 692.915 Q970.473 691.982 968.546 693.91 M966.582 691.945 Q969.663 688.864 973.726 689.687 Q977.79 690.485 982.43 695.125 Q987.058 699.753 987.868 703.829 Q988.679 707.88 985.597 710.961 Q982.516 714.042 978.453 713.244 Q974.389 712.422 969.761 707.794 Q965.121 703.154 964.311 699.102 Q963.5 695.027 966.582 691.945 Z" fill="#000000" fill-rule="nonzero" fill-opacity="1" /><polyline clip-path="url(#clip710)" style="stroke:#000000; stroke-linecap:round; stroke-linejoin:round; stroke-width:4; stroke-opacity:1; fill:none" points="128.138,662.16 128.138,97.5521 "/>
<polyline clip-path="url(#clip710)" style="stroke:#000000; stroke-linecap:round; stroke-linejoin:round; stroke-width:4; stroke-opacity:1; fill:none" points="128.138,662.16 147.035,662.16 "/>
<polyline clip-path="url(#clip710)" style="stroke:#000000; stroke-linecap:round; stroke-linejoin:round; stroke-width:4; stroke-opacity:1; fill:none" points="128.138,551.453 147.035,551.453 "/>
<polyline clip-path="url(#clip710)" style="stroke:#000000; stroke-linecap:round; stroke-linejoin:round; stroke-width:4; stroke-opacity:1; fill:none" points="128.138,440.745 147.035,440.745 "/>
<polyline clip-path="url(#clip710)" style="stroke:#000000; stroke-linecap:round; stroke-linejoin:round; stroke-width:4; stroke-opacity:1; fill:none" points="128.138,330.038 147.035,330.038 "/>
<polyline clip-path="url(#clip710)" style="stroke:#000000; stroke-linecap:round; stroke-linejoin:round; stroke-width:4; stroke-opacity:1; fill:none" points="128.138,219.33 147.035,219.33 "/>
<polyline clip-path="url(#clip710)" style="stroke:#000000; stroke-linecap:round; stroke-linejoin:round; stroke-width:4; stroke-opacity:1; fill:none" points="128.138,108.623 147.035,108.623 "/>
<path clip-path="url(#clip710)" d="M83.1795 651.509 Q80.4711 651.509 79.0996 654.183 Q77.7455 656.839 77.7455 662.186 Q77.7455 667.516 79.0996 670.19 Q80.4711 672.846 83.1795 672.846 Q85.9051 672.846 87.2593 670.19 Q88.6308 667.516 88.6308 662.186 Q88.6308 656.839 87.2593 654.183 Q85.9051 651.509 83.1795 651.509 M83.1795 648.732 Q87.5371 648.732 89.8287 652.186 Q92.1377 655.624 92.1377 662.186 Q92.1377 668.732 89.8287 672.186 Q87.5371 675.624 83.1795 675.624 Q78.8218 675.624 76.5128 672.186 Q74.2212 668.732 74.2212 662.186 Q74.2212 655.624 76.5128 652.186 Q78.8218 648.732 83.1795 648.732 Z" fill="#000000" fill-rule="nonzero" fill-opacity="1" /><path clip-path="url(#clip710)" d="M53.6657 561.462 L59.3949 561.462 L59.3949 541.687 L53.1623 542.937 L53.1623 539.743 L59.3601 538.493 L62.8671 538.493 L62.8671 561.462 L68.5962 561.462 L68.5962 564.413 L53.6657 564.413 L53.6657 561.462 Z" fill="#000000" fill-rule="nonzero" fill-opacity="1" /><path clip-path="url(#clip710)" d="M83.1795 540.802 Q80.4711 540.802 79.0996 543.475 Q77.7455 546.132 77.7455 551.479 Q77.7455 556.809 79.0996 559.482 Q80.4711 562.139 83.1795 562.139 Q85.9051 562.139 87.2593 559.482 Q88.6308 556.809 88.6308 551.479 Q88.6308 546.132 87.2593 543.475 Q85.9051 540.802 83.1795 540.802 M83.1795 538.024 Q87.5371 538.024 89.8287 541.479 Q92.1377 544.916 92.1377 551.479 Q92.1377 558.024 89.8287 561.479 Q87.5371 564.916 83.1795 564.916 Q78.8218 564.916 76.5128 561.479 Q74.2212 558.024 74.2212 551.479 Q74.2212 544.916 76.5128 541.479 Q78.8218 538.024 83.1795 538.024 Z" fill="#000000" fill-rule="nonzero" fill-opacity="1" /><path clip-path="url(#clip710)" d="M56.0789 450.754 L68.3184 450.754 L68.3184 453.705 L51.8602 453.705 L51.8602 450.754 Q53.8567 448.688 57.2942 445.216 Q60.749 441.726 61.6344 440.719 Q63.3184 438.827 63.9782 437.525 Q64.6552 436.205 64.6552 434.938 Q64.6552 432.872 63.1969 431.57 Q61.756 430.268 59.4296 430.268 Q57.7803 430.268 55.94 430.841 Q54.1171 431.414 52.0338 432.577 L52.0338 429.035 Q54.1518 428.185 55.9921 427.751 Q57.8324 427.317 59.3601 427.317 Q63.3879 427.317 65.7837 429.331 Q68.1795 431.344 68.1795 434.712 Q68.1795 436.31 67.5719 437.751 Q66.9816 439.174 65.4018 441.119 Q64.9677 441.622 62.6414 444.035 Q60.315 446.431 56.0789 450.754 Z" fill="#000000" fill-rule="nonzero" fill-opacity="1" /><path clip-path="url(#clip710)" d="M83.1795 430.094 Q80.4711 430.094 79.0996 432.768 Q77.7455 435.424 77.7455 440.771 Q77.7455 446.101 79.0996 448.775 Q80.4711 451.431 83.1795 451.431 Q85.9051 451.431 87.2593 448.775 Q88.6308 446.101 88.6308 440.771 Q88.6308 435.424 87.2593 432.768 Q85.9051 430.094 83.1795 430.094 M83.1795 427.317 Q87.5371 427.317 89.8287 430.771 Q92.1377 434.209 92.1377 440.771 Q92.1377 447.317 89.8287 450.771 Q87.5371 454.209 83.1795 454.209 Q78.8218 454.209 76.5128 450.771 Q74.2212 447.317 74.2212 440.771 Q74.2212 434.209 76.5128 430.771 Q78.8218 427.317 83.1795 427.317 Z" fill="#000000" fill-rule="nonzero" fill-opacity="1" /><path clip-path="url(#clip710)" d="M63.683 329.022 Q66.2004 329.56 67.6066 331.262 Q69.0302 332.963 69.0302 335.463 Q69.0302 339.3 66.3913 341.401 Q63.7525 343.501 58.8914 343.501 Q57.2595 343.501 55.5234 343.171 Q53.8046 342.859 51.9643 342.217 L51.9643 338.831 Q53.4227 339.682 55.1588 340.116 Q56.8949 340.55 58.7872 340.55 Q62.0858 340.55 63.8046 339.248 Q65.5407 337.946 65.5407 335.463 Q65.5407 333.172 63.9261 331.887 Q62.3289 330.585 59.4643 330.585 L56.4435 330.585 L56.4435 327.703 L59.6032 327.703 Q62.19 327.703 63.5615 326.679 Q64.933 325.637 64.933 323.692 Q64.933 321.696 63.5094 320.637 Q62.1032 319.561 59.4643 319.561 Q58.0233 319.561 56.374 319.873 Q54.7247 320.185 52.7456 320.845 L52.7456 317.72 Q54.7421 317.165 56.4782 316.887 Q58.2317 316.609 59.7768 316.609 Q63.7698 316.609 66.0962 318.432 Q68.4226 320.238 68.4226 323.328 Q68.4226 325.481 67.19 326.974 Q65.9573 328.449 63.683 329.022 Z" fill="#000000" fill-rule="nonzero" fill-opacity="1" /><path clip-path="url(#clip710)" d="M83.1795 319.387 Q80.4711 319.387 79.0996 322.06 Q77.7455 324.717 77.7455 330.064 Q77.7455 335.394 79.0996 338.067 Q80.4711 340.724 83.1795 340.724 Q85.9051 340.724 87.2593 338.067 Q88.6308 335.394 88.6308 330.064 Q88.6308 324.717 87.2593 322.06 Q85.9051 319.387 83.1795 319.387 M83.1795 316.609 Q87.5371 316.609 89.8287 320.064 Q92.1377 323.501 92.1377 330.064 Q92.1377 336.609 89.8287 340.064 Q87.5371 343.501 83.1795 343.501 Q78.8218 343.501 76.5128 340.064 Q74.2212 336.609 74.2212 330.064 Q74.2212 323.501 76.5128 320.064 Q78.8218 316.609 83.1795 316.609 Z" fill="#000000" fill-rule="nonzero" fill-opacity="1" /><path clip-path="url(#clip710)" d="M62.6935 209.426 L53.8393 223.263 L62.6935 223.263 L62.6935 209.426 M61.7733 206.37 L66.183 206.37 L66.183 223.263 L69.8809 223.263 L69.8809 226.179 L66.183 226.179 L66.183 232.29 L62.6935 232.29 L62.6935 226.179 L50.9921 226.179 L50.9921 222.794 L61.7733 206.37 Z" fill="#000000" fill-rule="nonzero" fill-opacity="1" /><path clip-path="url(#clip710)" d="M83.1795 208.679 Q80.4711 208.679 79.0996 211.353 Q77.7455 214.009 77.7455 219.356 Q77.7455 224.686 79.0996 227.36 Q80.4711 230.016 83.1795 230.016 Q85.9051 230.016 87.2593 227.36 Q88.6308 224.686 88.6308 219.356 Q88.6308 214.009 87.2593 211.353 Q85.9051 208.679 83.1795 208.679 M83.1795 205.902 Q87.5371 205.902 89.8287 209.356 Q92.1377 212.794 92.1377 219.356 Q92.1377 225.902 89.8287 229.356 Q87.5371 232.794 83.1795 232.794 Q78.8218 232.794 76.5128 229.356 Q74.2212 225.902 74.2212 219.356 Q74.2212 212.794 76.5128 209.356 Q78.8218 205.902 83.1795 205.902 Z" fill="#000000" fill-rule="nonzero" fill-opacity="1" /><path clip-path="url(#clip710)" d="M53.0928 95.6629 L66.8601 95.6629 L66.8601 98.6142 L56.3046 98.6142 L56.3046 104.968 Q57.0685 104.708 57.8324 104.586 Q58.5963 104.448 59.3601 104.448 Q63.7004 104.448 66.2351 106.826 Q68.7698 109.204 68.7698 113.267 Q68.7698 117.451 66.1657 119.777 Q63.5615 122.086 58.8219 122.086 Q57.19 122.086 55.4886 121.809 Q53.8046 121.531 51.9991 120.975 L51.9991 117.451 Q53.5616 118.302 55.2282 118.718 Q56.8949 119.135 58.7525 119.135 Q61.756 119.135 63.5094 117.555 Q65.2629 115.975 65.2629 113.267 Q65.2629 110.559 63.5094 108.979 Q61.756 107.399 58.7525 107.399 Q57.3463 107.399 55.94 107.711 Q54.5511 108.024 53.0928 108.684 L53.0928 95.6629 Z" fill="#000000" fill-rule="nonzero" fill-opacity="1" /><path clip-path="url(#clip710)" d="M83.1795 97.9719 Q80.4711 97.9719 79.0996 100.645 Q77.7455 103.302 77.7455 108.649 Q77.7455 113.979 79.0996 116.652 Q80.4711 119.309 83.1795 119.309 Q85.9051 119.309 87.2593 116.652 Q88.6308 113.979 88.6308 108.649 Q88.6308 103.302 87.2593 100.645 Q85.9051 97.9719 83.1795 97.9719 M83.1795 95.1941 Q87.5371 95.1941 89.8287 98.649 Q92.1377 102.086 92.1377 108.649 Q92.1377 115.194 89.8287 118.649 Q87.5371 122.086 83.1795 122.086 Q78.8218 122.086 76.5128 118.649 Q74.2212 115.194 74.2212 108.649 Q74.2212 102.086 76.5128 98.649 Q78.8218 95.1941 83.1795 95.1941 Z" fill="#000000" fill-rule="nonzero" fill-opacity="1" /><path clip-path="url(#clip710)" d="M130.221 20.1758 Q131.633 17.8147 135.128 15.7314 Q136.494 14.9212 140.707 14.9212 Q145.429 14.9212 148.369 18.6712 Q151.332 22.4212 151.332 28.5323 Q151.332 34.6433 148.369 38.3933 Q145.429 42.1433 140.707 42.1433 Q137.86 42.1433 135.8 41.0322 Q133.763 39.8979 132.42 37.5831 L132.42 51.3331 L128.138 51.3331 L128.138 28.7637 Q128.138 23.4165 130.221 20.1758 M146.911 28.5323 Q146.911 23.8332 144.966 21.1712 Q143.045 18.486 139.665 18.486 Q136.286 18.486 134.341 21.1712 Q132.42 23.8332 132.42 28.5323 Q132.42 33.2313 134.341 35.9165 Q136.286 38.5785 139.665 38.5785 Q143.045 38.5785 144.966 35.9165 Q146.911 33.2313 146.911 28.5323 Z" fill="#000000" fill-rule="nonzero" fill-opacity="1" /><path clip-path="url(#clip712)" d="M184.494 562.524 L184.494 662.16 L298.482 662.16 L298.482 562.524 L184.494 562.524 L184.494 562.524  Z" fill="#009af9" fill-rule="evenodd" fill-opacity="1"/>
<polyline clip-path="url(#clip712)" style="stroke:#000000; stroke-linecap:round; stroke-linejoin:round; stroke-width:4; stroke-opacity:1; fill:none" points="184.494,562.524 184.494,662.16 298.482,662.16 298.482,562.524 184.494,562.524 "/>
<path clip-path="url(#clip712)" d="M298.482 584.665 L298.482 662.16 L412.47 662.16 L412.47 584.665 L298.482 584.665 L298.482 584.665  Z" fill="#009af9" fill-rule="evenodd" fill-opacity="1"/>
<polyline clip-path="url(#clip712)" style="stroke:#000000; stroke-linecap:round; stroke-linejoin:round; stroke-width:4; stroke-opacity:1; fill:none" points="298.482,584.665 298.482,662.16 412.47,662.16 412.47,584.665 298.482,584.665 "/>
<path clip-path="url(#clip712)" d="M412.47 97.5521 L412.47 662.16 L526.459 662.16 L526.459 97.5521 L412.47 97.5521 L412.47 97.5521  Z" fill="#009af9" fill-rule="evenodd" fill-opacity="1"/>
<polyline clip-path="url(#clip712)" style="stroke:#000000; stroke-linecap:round; stroke-linejoin:round; stroke-width:4; stroke-opacity:1; fill:none" points="412.47,97.5521 412.47,662.16 526.459,662.16 526.459,97.5521 412.47,97.5521 "/>
<path clip-path="url(#clip712)" d="M526.459 175.047 L526.459 662.16 L640.447 662.16 L640.447 175.047 L526.459 175.047 L526.459 175.047  Z" fill="#009af9" fill-rule="evenodd" fill-opacity="1"/>
<polyline clip-path="url(#clip712)" style="stroke:#000000; stroke-linecap:round; stroke-linejoin:round; stroke-width:4; stroke-opacity:1; fill:none" points="526.459,175.047 526.459,662.16 640.447,662.16 640.447,175.047 526.459,175.047 "/>
<path clip-path="url(#clip712)" d="M640.447 263.613 L640.447 662.16 L754.435 662.16 L754.435 263.613 L640.447 263.613 L640.447 263.613  Z" fill="#009af9" fill-rule="evenodd" fill-opacity="1"/>
<polyline clip-path="url(#clip712)" style="stroke:#000000; stroke-linecap:round; stroke-linejoin:round; stroke-width:4; stroke-opacity:1; fill:none" points="640.447,263.613 640.447,662.16 754.435,662.16 754.435,263.613 640.447,263.613 "/>
<path clip-path="url(#clip712)" d="M754.435 219.33 L754.435 662.16 L868.423 662.16 L868.423 219.33 L754.435 219.33 L754.435 219.33  Z" fill="#009af9" fill-rule="evenodd" fill-opacity="1"/>
<polyline clip-path="url(#clip712)" style="stroke:#000000; stroke-linecap:round; stroke-linejoin:round; stroke-width:4; stroke-opacity:1; fill:none" points="754.435,219.33 754.435,662.16 868.423,662.16 868.423,219.33 754.435,219.33 "/>
<path clip-path="url(#clip712)" d="M868.423 374.321 L868.423 662.16 L982.412 662.16 L982.412 374.321 L868.423 374.321 L868.423 374.321  Z" fill="#009af9" fill-rule="evenodd" fill-opacity="1"/>
<polyline clip-path="url(#clip712)" style="stroke:#000000; stroke-linecap:round; stroke-linejoin:round; stroke-width:4; stroke-opacity:1; fill:none" points="868.423,374.321 868.423,662.16 982.412,662.16 982.412,374.321 868.423,374.321 "/>
<path clip-path="url(#clip712)" d="M982.412 573.594 L982.412 662.16 L1096.4 662.16 L1096.4 573.594 L982.412 573.594 L982.412 573.594  Z" fill="#009af9" fill-rule="evenodd" fill-opacity="1"/>
<polyline clip-path="url(#clip712)" style="stroke:#000000; stroke-linecap:round; stroke-linejoin:round; stroke-width:4; stroke-opacity:1; fill:none" points="982.412,573.594 982.412,662.16 1096.4,662.16 1096.4,573.594 982.412,573.594 "/>
<circle clip-path="url(#clip712)" style="fill:#009af9; stroke:none; fill-opacity:0" cx="241.488" cy="562.524" r="2"/>
<circle clip-path="url(#clip712)" style="fill:#009af9; stroke:none; fill-opacity:0" cx="355.476" cy="584.665" r="2"/>
<circle clip-path="url(#clip712)" style="fill:#009af9; stroke:none; fill-opacity:0" cx="469.464" cy="97.5521" r="2"/>
<circle clip-path="url(#clip712)" style="fill:#009af9; stroke:none; fill-opacity:0" cx="583.453" cy="175.047" r="2"/>
<circle clip-path="url(#clip712)" style="fill:#009af9; stroke:none; fill-opacity:0" cx="697.441" cy="263.613" r="2"/>
<circle clip-path="url(#clip712)" style="fill:#009af9; stroke:none; fill-opacity:0" cx="811.429" cy="219.33" r="2"/>
<circle clip-path="url(#clip712)" style="fill:#009af9; stroke:none; fill-opacity:0" cx="925.418" cy="374.321" r="2"/>
<circle clip-path="url(#clip712)" style="fill:#009af9; stroke:none; fill-opacity:0" cx="1039.41" cy="573.594" r="2"/>
<polyline clip-path="url(#clip712)" style="stroke:#ff0000; stroke-linecap:round; stroke-linejoin:round; stroke-width:8; stroke-opacity:1; fill:none" stroke-dasharray="32, 20" points="715.965,1226.77 715.965,-467.056 "/>
<polyline clip-path="url(#clip712)" style="stroke:#ff0000; stroke-linecap:round; stroke-linejoin:round; stroke-width:6; stroke-opacity:1; fill:none" stroke-dasharray="24, 12, 3, 12" points="280.271,1226.77 280.271,-467.056 "/>
<polyline clip-path="url(#clip712)" style="stroke:#ff0000; stroke-linecap:round; stroke-linejoin:round; stroke-width:6; stroke-opacity:1; fill:none" stroke-dasharray="24, 12, 3, 12" points="986.68,1226.77 986.68,-467.056 "/>
<path clip-path="url(#clip710)" d="M1328.14 662.16 L2352.76 662.16 L2352.76 97.5521 L1328.14 97.5521  Z" fill="#ffffff" fill-rule="evenodd" fill-opacity="1"/>
<defs>
  <clipPath id="clip713">
    <rect x="1328" y="97" width="1026" height="566"/>
  </clipPath>
</defs>
<polyline clip-path="url(#clip713)" style="stroke:#000000; stroke-linecap:round; stroke-linejoin:round; stroke-width:2; stroke-opacity:0.1; fill:none" points="1384.49,662.16 1384.49,97.5521 "/>
<polyline clip-path="url(#clip713)" style="stroke:#000000; stroke-linecap:round; stroke-linejoin:round; stroke-width:2; stroke-opacity:0.1; fill:none" points="1566.87,662.16 1566.87,97.5521 "/>
<polyline clip-path="url(#clip713)" style="stroke:#000000; stroke-linecap:round; stroke-linejoin:round; stroke-width:2; stroke-opacity:0.1; fill:none" points="1749.26,662.16 1749.26,97.5521 "/>
<polyline clip-path="url(#clip713)" style="stroke:#000000; stroke-linecap:round; stroke-linejoin:round; stroke-width:2; stroke-opacity:0.1; fill:none" points="1931.64,662.16 1931.64,97.5521 "/>
<polyline clip-path="url(#clip713)" style="stroke:#000000; stroke-linecap:round; stroke-linejoin:round; stroke-width:2; stroke-opacity:0.1; fill:none" points="2114.02,662.16 2114.02,97.5521 "/>
<polyline clip-path="url(#clip713)" style="stroke:#000000; stroke-linecap:round; stroke-linejoin:round; stroke-width:2; stroke-opacity:0.1; fill:none" points="2296.4,662.16 2296.4,97.5521 "/>
<polyline clip-path="url(#clip713)" style="stroke:#000000; stroke-linecap:round; stroke-linejoin:round; stroke-width:2; stroke-opacity:0.1; fill:none" points="1328.14,662.16 2352.76,662.16 "/>
<polyline clip-path="url(#clip713)" style="stroke:#000000; stroke-linecap:round; stroke-linejoin:round; stroke-width:2; stroke-opacity:0.1; fill:none" points="1328.14,513.579 2352.76,513.579 "/>
<polyline clip-path="url(#clip713)" style="stroke:#000000; stroke-linecap:round; stroke-linejoin:round; stroke-width:2; stroke-opacity:0.1; fill:none" points="1328.14,364.998 2352.76,364.998 "/>
<polyline clip-path="url(#clip713)" style="stroke:#000000; stroke-linecap:round; stroke-linejoin:round; stroke-width:2; stroke-opacity:0.1; fill:none" points="1328.14,216.417 2352.76,216.417 "/>
<polyline clip-path="url(#clip710)" style="stroke:#000000; stroke-linecap:round; stroke-linejoin:round; stroke-width:4; stroke-opacity:1; fill:none" points="1328.14,662.16 2352.76,662.16 "/>
<polyline clip-path="url(#clip710)" style="stroke:#000000; stroke-linecap:round; stroke-linejoin:round; stroke-width:4; stroke-opacity:1; fill:none" points="1384.49,662.16 1384.49,643.263 "/>
<polyline clip-path="url(#clip710)" style="stroke:#000000; stroke-linecap:round; stroke-linejoin:round; stroke-width:4; stroke-opacity:1; fill:none" points="1566.87,662.16 1566.87,643.263 "/>
<polyline clip-path="url(#clip710)" style="stroke:#000000; stroke-linecap:round; stroke-linejoin:round; stroke-width:4; stroke-opacity:1; fill:none" points="1749.26,662.16 1749.26,643.263 "/>
<polyline clip-path="url(#clip710)" style="stroke:#000000; stroke-linecap:round; stroke-linejoin:round; stroke-width:4; stroke-opacity:1; fill:none" points="1931.64,662.16 1931.64,643.263 "/>
<polyline clip-path="url(#clip710)" style="stroke:#000000; stroke-linecap:round; stroke-linejoin:round; stroke-width:4; stroke-opacity:1; fill:none" points="2114.02,662.16 2114.02,643.263 "/>
<polyline clip-path="url(#clip710)" style="stroke:#000000; stroke-linecap:round; stroke-linejoin:round; stroke-width:4; stroke-opacity:1; fill:none" points="2296.4,662.16 2296.4,643.263 "/>
<path clip-path="url(#clip710)" d="M1331.3 733.242 Q1329.38 735.157 1330.3 738.018 Q1331.22 740.853 1335 744.634 Q1338.77 748.403 1341.62 749.336 Q1344.47 750.245 1346.38 748.33 Q1348.31 746.402 1347.39 743.566 Q1346.47 740.706 1342.7 736.937 Q1338.92 733.156 1336.07 732.248 Q1333.22 731.315 1331.3 733.242 M1329.33 731.278 Q1332.41 728.197 1336.48 729.019 Q1340.54 729.817 1345.18 734.458 Q1349.81 739.086 1350.62 743.161 Q1351.43 747.212 1348.35 750.294 Q1345.27 753.375 1341.2 752.577 Q1337.14 751.755 1332.51 747.126 Q1327.87 742.486 1327.06 738.435 Q1326.25 734.359 1329.33 731.278 Z" fill="#000000" fill-rule="nonzero" fill-opacity="1" /><path clip-path="url(#clip710)" d="M1355.56 736.127 L1358.16 733.537 L1361.27 736.655 L1358.68 739.245 L1355.56 736.127 Z" fill="#000000" fill-rule="nonzero" fill-opacity="1" /><path clip-path="url(#clip710)" d="M1364.31 713.858 Q1366.47 712.459 1368.66 712.667 Q1370.87 712.864 1372.64 714.632 Q1375.35 717.345 1374.97 720.696 Q1374.59 724.047 1371.16 727.485 Q1370 728.639 1368.54 729.633 Q1367.1 730.627 1365.35 731.474 L1362.96 729.081 Q1364.59 728.651 1366.12 727.73 Q1367.66 726.81 1368.99 725.471 Q1371.33 723.139 1371.62 721.003 Q1371.93 718.855 1370.17 717.099 Q1368.55 715.479 1366.5 715.712 Q1364.45 715.921 1362.43 717.946 L1360.29 720.082 L1358.25 718.044 L1360.49 715.81 Q1362.32 713.981 1362.56 712.287 Q1362.8 710.581 1361.42 709.206 Q1360.01 707.794 1358.25 708.052 Q1356.5 708.285 1354.63 710.151 Q1353.61 711.17 1352.67 712.557 Q1351.72 713.944 1350.79 715.81 L1348.58 713.6 Q1349.6 711.796 1350.63 710.372 Q1351.67 708.936 1352.77 707.843 Q1355.59 705.019 1358.52 704.663 Q1361.45 704.295 1363.63 706.48 Q1365.15 708.003 1365.34 709.93 Q1365.51 711.845 1364.31 713.858 Z" fill="#000000" fill-rule="nonzero" fill-opacity="1" /><path clip-path="url(#clip710)" d="M1381.01 712.741 L1385.06 708.69 L1371.08 694.708 L1367.56 699.999 L1365.3 697.74 L1368.8 692.473 L1371.28 689.994 L1387.52 706.235 L1391.57 702.184 L1393.66 704.271 L1383.1 714.828 L1381.01 712.741 Z" fill="#000000" fill-rule="nonzero" fill-opacity="1" /><path clip-path="url(#clip710)" d="M1513.87 733.046 Q1511.96 734.961 1512.88 737.821 Q1513.8 740.657 1517.58 744.438 Q1521.35 748.207 1524.2 749.14 Q1527.05 750.048 1528.96 748.133 Q1530.89 746.206 1529.97 743.37 Q1529.05 740.51 1525.28 736.741 Q1521.5 732.96 1518.65 732.051 Q1515.8 731.118 1513.87 733.046 M1511.91 731.082 Q1514.99 728 1519.05 728.823 Q1523.12 729.621 1527.76 734.261 Q1532.39 738.889 1533.2 742.965 Q1534.01 747.016 1530.92 750.097 Q1527.84 753.179 1523.78 752.381 Q1519.72 751.558 1515.09 746.93 Q1510.45 742.29 1509.64 738.239 Q1508.83 734.163 1511.91 731.082 Z" fill="#000000" fill-rule="nonzero" fill-opacity="1" /><path clip-path="url(#clip710)" d="M1538.14 735.931 L1540.73 733.34 L1543.85 736.459 L1541.26 739.049 L1538.14 735.931 Z" fill="#000000" fill-rule="nonzero" fill-opacity="1" /><path clip-path="url(#clip710)" d="M1546.88 713.662 Q1549.04 712.262 1551.24 712.471 Q1553.45 712.667 1555.22 714.435 Q1557.93 717.148 1557.55 720.5 Q1557.17 723.851 1553.73 727.288 Q1552.58 728.442 1551.12 729.437 Q1549.68 730.431 1547.93 731.278 L1545.53 728.884 Q1547.17 728.455 1548.7 727.534 Q1550.23 726.613 1551.57 725.275 Q1553.91 722.943 1554.2 720.807 Q1554.51 718.658 1552.75 716.903 Q1551.13 715.282 1549.08 715.516 Q1547.03 715.724 1545.01 717.75 L1542.87 719.886 L1540.83 717.848 L1543.07 715.614 Q1544.89 713.785 1545.14 712.091 Q1545.37 710.384 1544 709.009 Q1542.59 707.597 1540.83 707.855 Q1539.08 708.088 1537.21 709.954 Q1536.19 710.973 1535.25 712.361 Q1534.3 713.748 1533.37 715.614 L1531.16 713.404 Q1532.18 711.599 1533.21 710.175 Q1534.25 708.739 1535.34 707.647 Q1538.17 704.823 1541.1 704.467 Q1544.02 704.099 1546.21 706.284 Q1547.73 707.806 1547.91 709.733 Q1548.09 711.649 1546.88 713.662 Z" fill="#000000" fill-rule="nonzero" fill-opacity="1" /><path clip-path="url(#clip710)" d="M1565.3 710.838 L1573.95 702.184 L1576.04 704.271 L1564.4 715.908 L1562.31 713.821 Q1562.27 710.949 1562.24 706.063 Q1562.22 701.153 1562.13 699.814 Q1561.98 697.286 1561.53 695.898 Q1561.07 694.487 1560.18 693.59 Q1558.72 692.13 1556.77 692.24 Q1554.83 692.338 1553.18 693.983 Q1552.01 695.149 1551.12 696.856 Q1550.23 698.55 1549.58 700.846 L1547.08 698.341 Q1547.98 696.242 1548.97 694.634 Q1549.96 693.026 1551.04 691.945 Q1553.89 689.097 1557.01 688.827 Q1560.13 688.557 1562.51 690.939 Q1563.64 692.068 1564.23 693.517 Q1564.82 694.941 1565.08 697.433 Q1565.13 698.096 1565.19 701.447 Q1565.24 704.786 1565.3 710.838 Z" fill="#000000" fill-rule="nonzero" fill-opacity="1" /><path clip-path="url(#clip710)" d="M1695.75 733.549 Q1693.84 735.464 1694.76 738.325 Q1695.68 741.16 1699.46 744.941 Q1703.23 748.71 1706.08 749.643 Q1708.92 750.552 1710.84 748.636 Q1712.77 746.709 1711.84 743.873 Q1710.92 741.013 1707.16 737.244 Q1703.37 733.463 1700.53 732.555 Q1697.68 731.622 1695.75 733.549 M1693.79 731.585 Q1696.87 728.504 1700.93 729.326 Q1704.99 730.124 1709.64 734.764 Q1714.26 739.393 1715.07 743.468 Q1715.88 747.519 1712.8 750.601 Q1709.72 753.682 1705.66 752.884 Q1701.59 752.061 1696.97 747.433 Q1692.33 742.793 1691.52 738.742 Q1690.71 734.666 1693.79 731.585 Z" fill="#000000" fill-rule="nonzero" fill-opacity="1" /><path clip-path="url(#clip710)" d="M1720.02 736.434 L1722.61 733.844 L1725.73 736.962 L1723.14 739.552 L1720.02 736.434 Z" fill="#000000" fill-rule="nonzero" fill-opacity="1" /><path clip-path="url(#clip710)" d="M1728.76 714.165 Q1730.92 712.766 1733.12 712.974 Q1735.33 713.171 1737.1 714.939 Q1739.81 717.652 1739.43 721.003 Q1739.05 724.354 1735.61 727.792 Q1734.46 728.946 1733 729.94 Q1731.56 730.934 1729.8 731.781 L1727.41 729.388 Q1729.04 728.958 1730.58 728.037 Q1732.11 727.116 1733.45 725.778 Q1735.78 723.446 1736.08 721.31 Q1736.38 719.162 1734.63 717.406 Q1733.01 715.786 1730.96 716.019 Q1728.91 716.228 1726.88 718.253 L1724.75 720.389 L1722.71 718.351 L1724.94 716.117 Q1726.77 714.288 1727.02 712.594 Q1727.25 710.887 1725.88 709.513 Q1724.46 708.101 1722.71 708.359 Q1720.95 708.592 1719.09 710.458 Q1718.07 711.477 1717.12 712.864 Q1716.18 714.251 1715.25 716.117 L1713.04 713.907 Q1714.05 712.103 1715.09 710.679 Q1716.13 709.242 1717.22 708.15 Q1720.05 705.326 1722.98 704.97 Q1725.9 704.602 1728.09 706.787 Q1729.61 708.309 1729.79 710.237 Q1729.96 712.152 1728.76 714.165 Z" fill="#000000" fill-rule="nonzero" fill-opacity="1" /><path clip-path="url(#clip710)" d="M1744.76 698.169 Q1746.92 696.77 1749.11 696.979 Q1751.32 697.175 1753.09 698.943 Q1755.81 701.656 1755.42 705.007 Q1755.04 708.359 1751.61 711.796 Q1750.45 712.95 1748.99 713.944 Q1747.56 714.939 1745.8 715.786 L1743.41 713.392 Q1745.04 712.962 1746.57 712.041 Q1748.11 711.121 1749.45 709.783 Q1751.78 707.45 1752.07 705.314 Q1752.38 703.166 1750.62 701.41 Q1749 699.79 1746.95 700.023 Q1744.9 700.232 1742.88 702.257 L1740.74 704.393 L1738.7 702.356 L1740.94 700.121 Q1742.77 698.292 1743.01 696.598 Q1743.25 694.892 1741.87 693.517 Q1740.46 692.105 1738.7 692.363 Q1736.95 692.596 1735.08 694.462 Q1734.06 695.481 1733.12 696.868 Q1732.17 698.255 1731.24 700.121 L1729.03 697.912 Q1730.05 696.107 1731.08 694.683 Q1732.12 693.247 1733.22 692.154 Q1736.04 689.331 1738.97 688.975 Q1741.9 688.606 1744.08 690.791 Q1745.6 692.314 1745.79 694.241 Q1745.96 696.156 1744.76 698.169 Z" fill="#000000" fill-rule="nonzero" fill-opacity="1" /><path clip-path="url(#clip710)" d="M1877.53 734.151 Q1875.62 736.066 1876.54 738.926 Q1877.46 741.762 1881.24 745.543 Q1885.01 749.312 1887.85 750.245 Q1890.7 751.153 1892.62 749.238 Q1894.55 747.311 1893.62 744.475 Q1892.7 741.615 1888.94 737.846 Q1885.15 734.065 1882.31 733.156 Q1879.46 732.223 1877.53 734.151 M1875.57 732.186 Q1878.65 729.105 1882.71 729.928 Q1886.77 730.726 1891.41 735.366 Q1896.04 739.994 1896.85 744.07 Q1897.66 748.121 1894.58 751.202 Q1891.5 754.283 1887.44 753.485 Q1883.37 752.663 1878.75 748.035 Q1874.11 743.395 1873.3 739.343 Q1872.49 735.268 1875.57 732.186 Z" fill="#000000" fill-rule="nonzero" fill-opacity="1" /><path clip-path="url(#clip710)" d="M1901.8 737.036 L1904.39 734.445 L1907.51 737.563 L1904.92 740.154 L1901.8 737.036 Z" fill="#000000" fill-rule="nonzero" fill-opacity="1" /><path clip-path="url(#clip710)" d="M1910.54 714.767 Q1912.7 713.367 1914.9 713.576 Q1917.11 713.772 1918.88 715.54 Q1921.59 718.253 1921.21 721.604 Q1920.83 724.956 1917.39 728.393 Q1916.24 729.547 1914.78 730.541 Q1913.34 731.536 1911.58 732.383 L1909.19 729.989 Q1910.82 729.559 1912.36 728.639 Q1913.89 727.718 1915.23 726.38 Q1917.56 724.047 1917.86 721.911 Q1918.16 719.763 1916.41 718.008 Q1914.79 716.387 1912.74 716.62 Q1910.69 716.829 1908.66 718.855 L1906.53 720.991 L1904.49 718.953 L1906.72 716.719 Q1908.55 714.889 1908.8 713.195 Q1909.03 711.489 1907.66 710.114 Q1906.24 708.702 1904.49 708.96 Q1902.73 709.193 1900.87 711.059 Q1899.85 712.078 1898.9 713.465 Q1897.96 714.853 1897.03 716.719 L1894.82 714.509 Q1895.83 712.704 1896.87 711.28 Q1897.91 709.844 1899 708.751 Q1901.82 705.928 1904.76 705.572 Q1907.68 705.204 1909.87 707.389 Q1911.39 708.911 1911.57 710.838 Q1911.74 712.753 1910.54 714.767 Z" fill="#000000" fill-rule="nonzero" fill-opacity="1" /><path clip-path="url(#clip710)" d="M1919.55 693.185 L1923.07 709.23 L1929.34 702.969 L1919.55 693.185 M1916.74 691.675 L1919.86 688.557 L1931.8 700.502 L1934.42 697.887 L1936.48 699.949 L1933.87 702.564 L1938.19 706.885 L1935.72 709.353 L1931.4 705.032 L1923.12 713.306 L1920.73 710.912 L1916.74 691.675 Z" fill="#000000" fill-rule="nonzero" fill-opacity="1" /><path clip-path="url(#clip710)" d="M2060.7 733.365 Q2058.78 735.28 2059.7 738.14 Q2060.62 740.976 2064.4 744.757 Q2068.17 748.526 2071.02 749.459 Q2073.87 750.367 2075.78 748.452 Q2077.71 746.525 2076.79 743.689 Q2075.87 740.829 2072.1 737.06 Q2068.32 733.279 2065.47 732.371 Q2062.62 731.438 2060.7 733.365 M2058.73 731.401 Q2061.81 728.32 2065.88 729.142 Q2069.94 729.94 2074.58 734.58 Q2079.21 739.208 2080.02 743.284 Q2080.83 747.335 2077.75 750.416 Q2074.67 753.498 2070.6 752.7 Q2066.54 751.877 2061.91 747.249 Q2057.27 742.609 2056.46 738.558 Q2055.65 734.482 2058.73 731.401 Z" fill="#000000" fill-rule="nonzero" fill-opacity="1" /><path clip-path="url(#clip710)" d="M2084.97 736.25 L2087.56 733.66 L2090.68 736.778 L2088.09 739.368 L2084.97 736.25 Z" fill="#000000" fill-rule="nonzero" fill-opacity="1" /><path clip-path="url(#clip710)" d="M2093.71 713.981 Q2095.87 712.582 2098.07 712.79 Q2100.28 712.987 2102.04 714.754 Q2104.76 717.467 2104.38 720.819 Q2104 724.17 2100.56 727.607 Q2099.4 728.761 2097.94 729.756 Q2096.51 730.75 2094.75 731.597 L2092.36 729.203 Q2093.99 728.774 2095.52 727.853 Q2097.06 726.932 2098.4 725.594 Q2100.73 723.262 2101.02 721.126 Q2101.33 718.977 2099.58 717.222 Q2097.96 715.601 2095.91 715.835 Q2093.86 716.043 2091.83 718.069 L2089.69 720.205 L2087.66 718.167 L2089.89 715.933 Q2091.72 714.104 2091.96 712.41 Q2092.2 710.703 2090.82 709.328 Q2089.41 707.917 2087.66 708.174 Q2085.9 708.408 2084.03 710.274 Q2083.02 711.293 2082.07 712.68 Q2081.12 714.067 2080.19 715.933 L2077.98 713.723 Q2079 711.919 2080.03 710.495 Q2081.08 709.058 2082.17 707.966 Q2084.99 705.142 2087.93 704.786 Q2090.85 704.418 2093.03 706.603 Q2094.56 708.125 2094.74 710.053 Q2094.91 711.968 2093.71 713.981 Z" fill="#000000" fill-rule="nonzero" fill-opacity="1" /><path clip-path="url(#clip710)" d="M2093.77 697.028 L2103.5 687.293 L2105.59 689.38 L2098.13 696.844 L2102.62 701.337 Q2102.98 700.612 2103.43 699.986 Q2103.87 699.348 2104.41 698.808 Q2107.48 695.739 2110.96 695.628 Q2114.43 695.518 2117.3 698.39 Q2120.26 701.349 2120.06 704.835 Q2119.86 708.309 2116.5 711.661 Q2115.35 712.815 2113.95 713.821 Q2112.56 714.816 2110.89 715.7 L2108.4 713.208 Q2110.11 712.704 2111.58 711.82 Q2113.06 710.937 2114.37 709.623 Q2116.49 707.499 2116.62 705.142 Q2116.74 702.785 2114.82 700.87 Q2112.91 698.955 2110.55 699.078 Q2108.19 699.201 2106.07 701.324 Q2105.08 702.319 2104.3 703.534 Q2103.54 704.737 2102.98 706.235 L2093.77 697.028 Z" fill="#000000" fill-rule="nonzero" fill-opacity="1" /><path clip-path="url(#clip710)" d="M2242.47 733.979 Q2240.55 735.894 2241.47 738.754 Q2242.39 741.59 2246.17 745.371 Q2249.94 749.14 2252.79 750.073 Q2255.64 750.981 2257.55 749.066 Q2259.48 747.139 2258.56 744.303 Q2257.64 741.443 2253.87 737.674 Q2250.09 733.893 2247.24 732.984 Q2244.39 732.051 2242.47 733.979 M2240.5 732.015 Q2243.58 728.933 2247.65 729.756 Q2251.71 730.554 2256.35 735.194 Q2260.98 739.822 2261.79 743.898 Q2262.6 747.949 2259.52 751.03 Q2256.44 754.112 2252.37 753.314 Q2248.31 752.491 2243.68 747.863 Q2239.04 743.223 2238.23 739.172 Q2237.42 735.096 2240.5 732.015 Z" fill="#000000" fill-rule="nonzero" fill-opacity="1" /><path clip-path="url(#clip710)" d="M2266.73 736.864 L2269.33 734.273 L2272.44 737.392 L2269.85 739.982 L2266.73 736.864 Z" fill="#000000" fill-rule="nonzero" fill-opacity="1" /><path clip-path="url(#clip710)" d="M2275.48 714.595 Q2277.64 713.195 2279.83 713.404 Q2282.04 713.6 2283.81 715.368 Q2286.52 718.081 2286.14 721.433 Q2285.76 724.784 2282.33 728.221 Q2281.17 729.375 2279.71 730.37 Q2278.27 731.364 2276.52 732.211 L2274.13 729.817 Q2275.76 729.388 2277.29 728.467 Q2278.83 727.546 2280.16 726.208 Q2282.5 723.876 2282.79 721.74 Q2283.1 719.591 2281.34 717.836 Q2279.72 716.215 2277.67 716.449 Q2275.62 716.657 2273.6 718.683 L2271.46 720.819 L2269.42 718.781 L2271.66 716.547 Q2273.49 714.718 2273.73 713.023 Q2273.97 711.317 2272.59 709.942 Q2271.18 708.53 2269.42 708.788 Q2267.67 709.021 2265.8 710.887 Q2264.78 711.906 2263.84 713.294 Q2262.89 714.681 2261.96 716.547 L2259.75 714.337 Q2260.77 712.532 2261.8 711.108 Q2262.84 709.672 2263.94 708.58 Q2266.76 705.756 2269.69 705.4 Q2272.62 705.032 2274.8 707.217 Q2276.32 708.739 2276.51 710.666 Q2276.68 712.582 2275.48 714.595 Z" fill="#000000" fill-rule="nonzero" fill-opacity="1" /><path clip-path="url(#clip710)" d="M2289.3 700.232 Q2287.63 701.901 2287.79 704.025 Q2287.96 706.137 2289.95 708.125 Q2291.93 710.102 2294.05 710.286 Q2296.17 710.446 2297.84 708.776 Q2299.51 707.106 2299.34 704.995 Q2299.17 702.859 2297.19 700.882 Q2295.2 698.894 2293.08 698.734 Q2290.97 698.562 2289.3 700.232 M2286.45 687.538 L2288.71 689.797 Q2287.33 690.288 2286.14 691.012 Q2284.96 691.724 2284.03 692.657 Q2281.58 695.113 2281.93 698.071 Q2282.3 701.017 2285.47 704.553 Q2285.12 702.761 2285.65 701.103 Q2286.17 699.434 2287.48 698.12 Q2290.24 695.358 2293.52 695.444 Q2296.8 695.506 2299.68 698.39 Q2302.51 701.214 2302.54 704.59 Q2302.58 707.966 2299.81 710.74 Q2296.63 713.92 2292.51 713.171 Q2288.39 712.41 2283.76 707.782 Q2279.42 703.436 2278.9 698.795 Q2278.37 694.143 2281.85 690.669 Q2282.78 689.736 2283.91 688.975 Q2285.05 688.201 2286.45 687.538 Z" fill="#000000" fill-rule="nonzero" fill-opacity="1" /><polyline clip-path="url(#clip710)" style="stroke:#000000; stroke-linecap:round; stroke-linejoin:round; stroke-width:4; stroke-opacity:1; fill:none" points="1328.14,662.16 1328.14,97.5521 "/>
<polyline clip-path="url(#clip710)" style="stroke:#000000; stroke-linecap:round; stroke-linejoin:round; stroke-width:4; stroke-opacity:1; fill:none" points="1328.14,662.16 1347.04,662.16 "/>
<polyline clip-path="url(#clip710)" style="stroke:#000000; stroke-linecap:round; stroke-linejoin:round; stroke-width:4; stroke-opacity:1; fill:none" points="1328.14,513.579 1347.04,513.579 "/>
<polyline clip-path="url(#clip710)" style="stroke:#000000; stroke-linecap:round; stroke-linejoin:round; stroke-width:4; stroke-opacity:1; fill:none" points="1328.14,364.998 1347.04,364.998 "/>
<polyline clip-path="url(#clip710)" style="stroke:#000000; stroke-linecap:round; stroke-linejoin:round; stroke-width:4; stroke-opacity:1; fill:none" points="1328.14,216.417 1347.04,216.417 "/>
<path clip-path="url(#clip710)" d="M1283.18 651.509 Q1280.47 651.509 1279.1 654.183 Q1277.75 656.839 1277.75 662.186 Q1277.75 667.516 1279.1 670.19 Q1280.47 672.846 1283.18 672.846 Q1285.91 672.846 1287.26 670.19 Q1288.63 667.516 1288.63 662.186 Q1288.63 656.839 1287.26 654.183 Q1285.91 651.509 1283.18 651.509 M1283.18 648.732 Q1287.54 648.732 1289.83 652.186 Q1292.14 655.624 1292.14 662.186 Q1292.14 668.732 1289.83 672.186 Q1287.54 675.624 1283.18 675.624 Q1278.82 675.624 1276.51 672.186 Q1274.22 668.732 1274.22 662.186 Q1274.22 655.624 1276.51 652.186 Q1278.82 648.732 1283.18 648.732 Z" fill="#000000" fill-rule="nonzero" fill-opacity="1" /><path clip-path="url(#clip710)" d="M1256.08 523.588 L1268.32 523.588 L1268.32 526.539 L1251.86 526.539 L1251.86 523.588 Q1253.86 521.522 1257.29 518.05 Q1260.75 514.56 1261.63 513.553 Q1263.32 511.661 1263.98 510.359 Q1264.66 509.039 1264.66 507.772 Q1264.66 505.706 1263.2 504.404 Q1261.76 503.102 1259.43 503.102 Q1257.78 503.102 1255.94 503.675 Q1254.12 504.248 1252.03 505.411 L1252.03 501.869 Q1254.15 501.019 1255.99 500.585 Q1257.83 500.151 1259.36 500.151 Q1263.39 500.151 1265.78 502.164 Q1268.18 504.178 1268.18 507.546 Q1268.18 509.144 1267.57 510.584 Q1266.98 512.008 1265.4 513.953 Q1264.97 514.456 1262.64 516.869 Q1260.31 519.265 1256.08 523.588 Z" fill="#000000" fill-rule="nonzero" fill-opacity="1" /><path clip-path="url(#clip710)" d="M1283.18 502.928 Q1280.47 502.928 1279.1 505.602 Q1277.75 508.258 1277.75 513.605 Q1277.75 518.935 1279.1 521.609 Q1280.47 524.265 1283.18 524.265 Q1285.91 524.265 1287.26 521.609 Q1288.63 518.935 1288.63 513.605 Q1288.63 508.258 1287.26 505.602 Q1285.91 502.928 1283.18 502.928 M1283.18 500.151 Q1287.54 500.151 1289.83 503.605 Q1292.14 507.043 1292.14 513.605 Q1292.14 520.15 1289.83 523.605 Q1287.54 527.043 1283.18 527.043 Q1278.82 527.043 1276.51 523.605 Q1274.22 520.15 1274.22 513.605 Q1274.22 507.043 1276.51 503.605 Q1278.82 500.151 1283.18 500.151 Z" fill="#000000" fill-rule="nonzero" fill-opacity="1" /><path clip-path="url(#clip710)" d="M1262.69 355.094 L1253.84 368.93 L1262.69 368.93 L1262.69 355.094 M1261.77 352.038 L1266.18 352.038 L1266.18 368.93 L1269.88 368.93 L1269.88 371.847 L1266.18 371.847 L1266.18 377.958 L1262.69 377.958 L1262.69 371.847 L1250.99 371.847 L1250.99 368.462 L1261.77 352.038 Z" fill="#000000" fill-rule="nonzero" fill-opacity="1" /><path clip-path="url(#clip710)" d="M1283.18 354.347 Q1280.47 354.347 1279.1 357.021 Q1277.75 359.677 1277.75 365.024 Q1277.75 370.354 1279.1 373.028 Q1280.47 375.684 1283.18 375.684 Q1285.91 375.684 1287.26 373.028 Q1288.63 370.354 1288.63 365.024 Q1288.63 359.677 1287.26 357.021 Q1285.91 354.347 1283.18 354.347 M1283.18 351.569 Q1287.54 351.569 1289.83 355.024 Q1292.14 358.462 1292.14 365.024 Q1292.14 371.569 1289.83 375.024 Q1287.54 378.462 1283.18 378.462 Q1278.82 378.462 1276.51 375.024 Q1274.22 371.569 1274.22 365.024 Q1274.22 358.462 1276.51 355.024 Q1278.82 351.569 1283.18 351.569 Z" fill="#000000" fill-rule="nonzero" fill-opacity="1" /><path clip-path="url(#clip710)" d="M1260.99 215.019 Q1258.63 215.019 1257.24 216.634 Q1255.87 218.249 1255.87 221.061 Q1255.87 223.856 1257.24 225.488 Q1258.63 227.103 1260.99 227.103 Q1263.35 227.103 1264.72 225.488 Q1266.11 223.856 1266.11 221.061 Q1266.11 218.249 1264.72 216.634 Q1263.35 215.019 1260.99 215.019 M1267.95 204.03 L1267.95 207.224 Q1266.63 206.599 1265.28 206.27 Q1263.94 205.94 1262.62 205.94 Q1259.15 205.94 1257.31 208.283 Q1255.49 210.627 1255.23 215.367 Q1256.25 213.856 1257.8 213.058 Q1259.34 212.242 1261.2 212.242 Q1265.11 212.242 1267.36 214.62 Q1269.64 216.981 1269.64 221.061 Q1269.64 225.054 1267.28 227.467 Q1264.92 229.88 1260.99 229.88 Q1256.5 229.88 1254.12 226.443 Q1251.74 222.988 1251.74 216.443 Q1251.74 210.297 1254.66 206.651 Q1257.57 202.988 1262.49 202.988 Q1263.8 202.988 1265.14 203.249 Q1266.5 203.509 1267.95 204.03 Z" fill="#000000" fill-rule="nonzero" fill-opacity="1" /><path clip-path="url(#clip710)" d="M1283.18 205.766 Q1280.47 205.766 1279.1 208.44 Q1277.75 211.096 1277.75 216.443 Q1277.75 221.773 1279.1 224.446 Q1280.47 227.103 1283.18 227.103 Q1285.91 227.103 1287.26 224.446 Q1288.63 221.773 1288.63 216.443 Q1288.63 211.096 1287.26 208.44 Q1285.91 205.766 1283.18 205.766 M1283.18 202.988 Q1287.54 202.988 1289.83 206.443 Q1292.14 209.881 1292.14 216.443 Q1292.14 222.988 1289.83 226.443 Q1287.54 229.88 1283.18 229.88 Q1278.82 229.88 1276.51 226.443 Q1274.22 222.988 1274.22 216.443 Q1274.22 209.881 1276.51 206.443 Q1278.82 202.988 1283.18 202.988 Z" fill="#000000" fill-rule="nonzero" fill-opacity="1" /><path clip-path="url(#clip710)" d="M1340.04 18.9258 Q1336.52 18.9258 1334.62 21.4721 Q1332.63 24.1341 1332.63 28.5323 Q1332.63 33.185 1334.6 35.8702 Q1336.59 38.5322 1340.04 38.5322 Q1343.44 38.5322 1345.43 35.847 Q1347.42 33.1619 1347.42 28.5323 Q1347.42 24.2962 1345.43 21.4721 Q1343.6 18.9258 1340.04 18.9258 M1340.04 15.5462 L1354.18 15.5462 L1354.18 19.8054 L1349.41 19.8054 Q1351.93 23.4165 1351.93 28.5323 Q1351.93 34.898 1348.76 38.5091 Q1345.59 42.1433 1340.04 42.1433 Q1334.46 42.1433 1331.31 38.5091 Q1328.14 34.898 1328.14 28.5323 Q1328.14 22.1203 1331.31 18.5323 Q1333.92 15.5462 1340.04 15.5462 Z" fill="#000000" fill-rule="nonzero" fill-opacity="1" /><path clip-path="url(#clip710)" d="M1378.35 19.6666 Q1377.49 19.3656 1376.63 19.1342 Q1374.34 18.5323 1371.89 18.5323 Q1367.65 18.5323 1365.29 20.824 Q1363.09 22.9536 1362.67 26.8656 L1378.35 26.8656 L1378.35 30.1989 L1362.67 30.1989 Q1363.09 34.1109 1365.29 36.2405 Q1367.65 38.5322 1371.89 38.5322 Q1374.85 38.5322 1376.63 37.9304 L1378.35 37.3517 L1378.35 41.2174 L1376.52 41.634 Q1374.11 42.1433 1371.63 42.1433 Q1365.43 42.1433 1361.82 38.5322 Q1358.18 34.9211 1358.18 28.5323 Q1358.18 22.1434 1361.82 18.5323 Q1365.43 14.9212 1371.63 14.9212 Q1373.97 14.9212 1376.52 15.4305 Q1377.44 15.6157 1378.35 15.8934 L1378.35 19.6666 Z" fill="#000000" fill-rule="nonzero" fill-opacity="1" /><path clip-path="url(#clip713)" d="M1384.49 253.562 L1384.49 662.16 L1566.87 662.16 L1566.87 253.562 L1384.49 253.562 L1384.49 253.562  Z" fill="#009af9" fill-rule="evenodd" fill-opacity="1"/>
<polyline clip-path="url(#clip713)" style="stroke:#000000; stroke-linecap:round; stroke-linejoin:round; stroke-width:4; stroke-opacity:1; fill:none" points="1384.49,253.562 1384.49,662.16 1566.87,662.16 1566.87,253.562 1384.49,253.562 "/>
<path clip-path="url(#clip713)" d="M1566.87 424.431 L1566.87 662.16 L1749.26 662.16 L1749.26 424.431 L1566.87 424.431 L1566.87 424.431  Z" fill="#009af9" fill-rule="evenodd" fill-opacity="1"/>
<polyline clip-path="url(#clip713)" style="stroke:#000000; stroke-linecap:round; stroke-linejoin:round; stroke-width:4; stroke-opacity:1; fill:none" points="1566.87,424.431 1566.87,662.16 1749.26,662.16 1749.26,424.431 1566.87,424.431 "/>
<path clip-path="url(#clip713)" d="M1749.26 97.5521 L1749.26 662.16 L1931.64 662.16 L1931.64 97.5521 L1749.26 97.5521 L1749.26 97.5521  Z" fill="#009af9" fill-rule="evenodd" fill-opacity="1"/>
<polyline clip-path="url(#clip713)" style="stroke:#000000; stroke-linecap:round; stroke-linejoin:round; stroke-width:4; stroke-opacity:1; fill:none" points="1749.26,97.5521 1749.26,662.16 1931.64,662.16 1931.64,97.5521 1749.26,97.5521 "/>
<path clip-path="url(#clip713)" d="M1931.64 283.279 L1931.64 662.16 L2114.02 662.16 L2114.02 283.279 L1931.64 283.279 L1931.64 283.279  Z" fill="#009af9" fill-rule="evenodd" fill-opacity="1"/>
<polyline clip-path="url(#clip713)" style="stroke:#000000; stroke-linecap:round; stroke-linejoin:round; stroke-width:4; stroke-opacity:1; fill:none" points="1931.64,283.279 1931.64,662.16 2114.02,662.16 2114.02,283.279 1931.64,283.279 "/>
<path clip-path="url(#clip713)" d="M2114.02 610.157 L2114.02 662.16 L2296.4 662.16 L2296.4 610.157 L2114.02 610.157 L2114.02 610.157  Z" fill="#009af9" fill-rule="evenodd" fill-opacity="1"/>
<polyline clip-path="url(#clip713)" style="stroke:#000000; stroke-linecap:round; stroke-linejoin:round; stroke-width:4; stroke-opacity:1; fill:none" points="2114.02,610.157 2114.02,662.16 2296.4,662.16 2296.4,610.157 2114.02,610.157 "/>
<circle clip-path="url(#clip713)" style="fill:#009af9; stroke:none; fill-opacity:0" cx="1475.68" cy="253.562" r="2"/>
<circle clip-path="url(#clip713)" style="fill:#009af9; stroke:none; fill-opacity:0" cx="1658.07" cy="424.431" r="2"/>
<circle clip-path="url(#clip713)" style="fill:#009af9; stroke:none; fill-opacity:0" cx="1840.45" cy="97.5521" r="2"/>
<circle clip-path="url(#clip713)" style="fill:#009af9; stroke:none; fill-opacity:0" cx="2022.83" cy="283.279" r="2"/>
<circle clip-path="url(#clip713)" style="fill:#009af9; stroke:none; fill-opacity:0" cx="2205.21" cy="610.157" r="2"/>
<polyline clip-path="url(#clip713)" style="stroke:#ff0000; stroke-linecap:round; stroke-linejoin:round; stroke-width:8; stroke-opacity:1; fill:none" stroke-dasharray="32, 20" points="1701.45,1226.77 1701.45,-467.056 "/>
<polyline clip-path="url(#clip713)" style="stroke:#ff0000; stroke-linecap:round; stroke-linejoin:round; stroke-width:6; stroke-opacity:1; fill:none" stroke-dasharray="24, 12, 3, 12" points="1470.95,1226.77 1470.95,-467.056 "/>
<polyline clip-path="url(#clip713)" style="stroke:#ff0000; stroke-linecap:round; stroke-linejoin:round; stroke-width:6; stroke-opacity:1; fill:none" stroke-dasharray="24, 12, 3, 12" points="2120.75,1226.77 2120.75,-467.056 "/>
<path clip-path="url(#clip710)" d="M128.138 1456.91 L1152.76 1456.91 L1152.76 892.306 L128.138 892.306  Z" fill="#ffffff" fill-rule="evenodd" fill-opacity="1"/>
<defs>
  <clipPath id="clip714">
    <rect x="128" y="892" width="1026" height="566"/>
  </clipPath>
</defs>
<polyline clip-path="url(#clip714)" style="stroke:#000000; stroke-linecap:round; stroke-linejoin:round; stroke-width:2; stroke-opacity:0.1; fill:none" points="184.494,1456.91 184.494,892.306 "/>
<polyline clip-path="url(#clip714)" style="stroke:#000000; stroke-linecap:round; stroke-linejoin:round; stroke-width:2; stroke-opacity:0.1; fill:none" points="366.875,1456.91 366.875,892.306 "/>
<polyline clip-path="url(#clip714)" style="stroke:#000000; stroke-linecap:round; stroke-linejoin:round; stroke-width:2; stroke-opacity:0.1; fill:none" points="549.256,1456.91 549.256,892.306 "/>
<polyline clip-path="url(#clip714)" style="stroke:#000000; stroke-linecap:round; stroke-linejoin:round; stroke-width:2; stroke-opacity:0.1; fill:none" points="731.637,1456.91 731.637,892.306 "/>
<polyline clip-path="url(#clip714)" style="stroke:#000000; stroke-linecap:round; stroke-linejoin:round; stroke-width:2; stroke-opacity:0.1; fill:none" points="914.019,1456.91 914.019,892.306 "/>
<polyline clip-path="url(#clip714)" style="stroke:#000000; stroke-linecap:round; stroke-linejoin:round; stroke-width:2; stroke-opacity:0.1; fill:none" points="1096.4,1456.91 1096.4,892.306 "/>
<polyline clip-path="url(#clip714)" style="stroke:#000000; stroke-linecap:round; stroke-linejoin:round; stroke-width:2; stroke-opacity:0.1; fill:none" points="128.138,1456.91 1152.76,1456.91 "/>
<polyline clip-path="url(#clip714)" style="stroke:#000000; stroke-linecap:round; stroke-linejoin:round; stroke-width:2; stroke-opacity:0.1; fill:none" points="128.138,1354.26 1152.76,1354.26 "/>
<polyline clip-path="url(#clip714)" style="stroke:#000000; stroke-linecap:round; stroke-linejoin:round; stroke-width:2; stroke-opacity:0.1; fill:none" points="128.138,1251.6 1152.76,1251.6 "/>
<polyline clip-path="url(#clip714)" style="stroke:#000000; stroke-linecap:round; stroke-linejoin:round; stroke-width:2; stroke-opacity:0.1; fill:none" points="128.138,1148.95 1152.76,1148.95 "/>
<polyline clip-path="url(#clip714)" style="stroke:#000000; stroke-linecap:round; stroke-linejoin:round; stroke-width:2; stroke-opacity:0.1; fill:none" points="128.138,1046.29 1152.76,1046.29 "/>
<polyline clip-path="url(#clip714)" style="stroke:#000000; stroke-linecap:round; stroke-linejoin:round; stroke-width:2; stroke-opacity:0.1; fill:none" points="128.138,943.634 1152.76,943.634 "/>
<polyline clip-path="url(#clip710)" style="stroke:#000000; stroke-linecap:round; stroke-linejoin:round; stroke-width:4; stroke-opacity:1; fill:none" points="128.138,1456.91 1152.76,1456.91 "/>
<polyline clip-path="url(#clip710)" style="stroke:#000000; stroke-linecap:round; stroke-linejoin:round; stroke-width:4; stroke-opacity:1; fill:none" points="184.494,1456.91 184.494,1438.02 "/>
<polyline clip-path="url(#clip710)" style="stroke:#000000; stroke-linecap:round; stroke-linejoin:round; stroke-width:4; stroke-opacity:1; fill:none" points="366.875,1456.91 366.875,1438.02 "/>
<polyline clip-path="url(#clip710)" style="stroke:#000000; stroke-linecap:round; stroke-linejoin:round; stroke-width:4; stroke-opacity:1; fill:none" points="549.256,1456.91 549.256,1438.02 "/>
<polyline clip-path="url(#clip710)" style="stroke:#000000; stroke-linecap:round; stroke-linejoin:round; stroke-width:4; stroke-opacity:1; fill:none" points="731.637,1456.91 731.637,1438.02 "/>
<polyline clip-path="url(#clip710)" style="stroke:#000000; stroke-linecap:round; stroke-linejoin:round; stroke-width:4; stroke-opacity:1; fill:none" points="914.019,1456.91 914.019,1438.02 "/>
<polyline clip-path="url(#clip710)" style="stroke:#000000; stroke-linecap:round; stroke-linejoin:round; stroke-width:4; stroke-opacity:1; fill:none" points="1096.4,1456.91 1096.4,1438.02 "/>
<path clip-path="url(#clip710)" d="M115.177 1544.11 Q113.262 1546.03 114.182 1548.89 Q115.103 1551.73 118.884 1555.51 Q122.653 1559.28 125.501 1560.21 Q128.349 1561.12 130.264 1559.2 Q132.191 1557.27 131.271 1554.44 Q130.35 1551.58 126.581 1547.81 Q122.8 1544.03 119.952 1543.12 Q117.104 1542.19 115.177 1544.11 M113.212 1542.15 Q116.294 1539.07 120.357 1539.89 Q124.42 1540.69 129.061 1545.33 Q133.689 1549.96 134.499 1554.03 Q135.309 1558.08 132.228 1561.17 Q129.147 1564.25 125.083 1563.45 Q121.02 1562.63 116.392 1558 Q111.752 1553.36 110.941 1549.31 Q110.131 1545.23 113.212 1542.15 Z" fill="#000000" fill-rule="nonzero" fill-opacity="1" /><path clip-path="url(#clip710)" d="M139.446 1547 L142.037 1544.41 L145.155 1547.53 L142.565 1550.12 L139.446 1547 Z" fill="#000000" fill-rule="nonzero" fill-opacity="1" /><path clip-path="url(#clip710)" d="M132.253 1523.77 L141.988 1514.04 L144.075 1516.13 L136.611 1523.59 L141.104 1528.08 Q141.46 1527.36 141.914 1526.73 Q142.356 1526.09 142.896 1525.55 Q145.965 1522.48 149.439 1522.37 Q152.913 1522.26 155.786 1525.14 Q158.744 1528.09 158.548 1531.58 Q158.339 1535.05 154.988 1538.41 Q153.834 1539.56 152.435 1540.57 Q151.047 1541.56 149.378 1542.45 L146.886 1539.95 Q148.592 1539.45 150.065 1538.57 Q151.538 1537.68 152.852 1536.37 Q154.976 1534.24 155.098 1531.89 Q155.221 1529.53 153.306 1527.62 Q151.391 1525.7 149.034 1525.82 Q146.677 1525.95 144.553 1528.07 Q143.559 1529.06 142.786 1530.28 Q142.024 1531.48 141.46 1532.98 L132.253 1523.77 Z" fill="#000000" fill-rule="nonzero" fill-opacity="1" /><path clip-path="url(#clip710)" d="M166.601 1521.91 L175.256 1513.25 L177.343 1515.34 L165.705 1526.98 L163.618 1524.89 Q163.569 1522.02 163.544 1517.13 Q163.52 1512.22 163.434 1510.88 Q163.287 1508.35 162.832 1506.97 Q162.378 1505.56 161.482 1504.66 Q160.021 1503.2 158.069 1503.31 Q156.13 1503.41 154.485 1505.05 Q153.318 1506.22 152.422 1507.92 Q151.538 1509.62 150.888 1511.91 L148.383 1509.41 Q149.28 1507.31 150.274 1505.7 Q151.268 1504.09 152.349 1503.01 Q155.197 1500.17 158.315 1499.9 Q161.433 1499.63 163.814 1502.01 Q164.944 1503.14 165.533 1504.59 Q166.122 1506.01 166.38 1508.5 Q166.429 1509.16 166.491 1512.52 Q166.54 1515.86 166.601 1521.91 Z" fill="#000000" fill-rule="nonzero" fill-opacity="1" /><path clip-path="url(#clip710)" d="M164.244 1491.78 L173.979 1482.05 L176.066 1484.13 L168.602 1491.6 L173.095 1496.09 Q173.451 1495.37 173.905 1494.74 Q174.347 1494.1 174.888 1493.56 Q177.957 1490.49 181.431 1490.38 Q184.905 1490.27 187.777 1493.14 Q190.736 1496.1 190.54 1499.59 Q190.331 1503.06 186.979 1506.41 Q185.826 1507.57 184.426 1508.58 Q183.039 1509.57 181.369 1510.45 L178.877 1507.96 Q180.584 1507.46 182.057 1506.57 Q183.53 1505.69 184.843 1504.38 Q186.967 1502.25 187.09 1499.9 Q187.213 1497.54 185.298 1495.62 Q183.383 1493.71 181.026 1493.83 Q178.669 1493.95 176.545 1496.08 Q175.55 1497.07 174.777 1498.29 Q174.016 1499.49 173.451 1500.99 L164.244 1491.78 Z" fill="#000000" fill-rule="nonzero" fill-opacity="1" /><path clip-path="url(#clip710)" d="M297.03 1544.64 Q295.115 1546.56 296.036 1549.42 Q296.956 1552.25 300.737 1556.03 Q304.506 1559.8 307.354 1560.74 Q310.202 1561.65 312.117 1559.73 Q314.045 1557.8 313.124 1554.97 Q312.203 1552.11 308.435 1548.34 Q304.653 1544.56 301.805 1543.65 Q298.957 1542.72 297.03 1544.64 M295.066 1542.68 Q298.147 1539.6 302.211 1540.42 Q306.274 1541.22 310.914 1545.86 Q315.542 1550.49 316.353 1554.56 Q317.163 1558.61 314.082 1561.69 Q311 1564.78 306.937 1563.98 Q302.873 1563.15 298.245 1558.53 Q293.605 1553.89 292.795 1549.84 Q291.985 1545.76 295.066 1542.68 Z" fill="#000000" fill-rule="nonzero" fill-opacity="1" /><path clip-path="url(#clip710)" d="M321.3 1547.53 L323.89 1544.94 L327.008 1548.06 L324.418 1550.65 L321.3 1547.53 Z" fill="#000000" fill-rule="nonzero" fill-opacity="1" /><path clip-path="url(#clip710)" d="M314.106 1524.3 L323.841 1514.57 L325.928 1516.65 L318.464 1524.12 L322.957 1528.61 Q323.313 1527.89 323.767 1527.26 Q324.209 1526.62 324.749 1526.08 Q327.818 1523.01 331.293 1522.9 Q334.767 1522.79 337.639 1525.66 Q340.598 1528.62 340.401 1532.11 Q340.193 1535.58 336.841 1538.93 Q335.687 1540.09 334.288 1541.09 Q332.901 1542.09 331.231 1542.97 L328.739 1540.48 Q330.446 1539.98 331.919 1539.09 Q333.392 1538.21 334.705 1536.9 Q336.829 1534.77 336.952 1532.42 Q337.075 1530.06 335.16 1528.14 Q333.245 1526.23 330.887 1526.35 Q328.53 1526.47 326.407 1528.6 Q325.412 1529.59 324.639 1530.81 Q323.878 1532.01 323.313 1533.51 L314.106 1524.3 Z" fill="#000000" fill-rule="nonzero" fill-opacity="1" /><path clip-path="url(#clip710)" d="M346.036 1509.26 Q348.197 1507.86 350.394 1508.07 Q352.604 1508.27 354.372 1510.04 Q357.085 1512.75 356.704 1516.1 Q356.324 1519.45 352.886 1522.89 Q351.732 1524.04 350.271 1525.04 Q348.835 1526.03 347.08 1526.88 L344.686 1524.49 Q346.319 1524.06 347.853 1523.13 Q349.388 1522.21 350.726 1520.88 Q353.058 1518.54 353.353 1516.41 Q353.66 1514.26 351.904 1512.5 Q350.284 1510.88 348.234 1511.12 Q346.184 1511.33 344.158 1513.35 L342.022 1515.49 L339.984 1513.45 L342.218 1511.21 Q344.047 1509.39 344.293 1507.69 Q344.526 1505.99 343.151 1504.61 Q341.74 1503.2 339.984 1503.46 Q338.229 1503.69 336.363 1505.56 Q335.344 1506.57 334.398 1507.96 Q333.453 1509.35 332.52 1511.21 L330.311 1509.01 Q331.329 1507.2 332.361 1505.78 Q333.404 1504.34 334.497 1503.25 Q337.32 1500.42 340.254 1500.07 Q343.176 1499.7 345.361 1501.88 Q346.883 1503.41 347.067 1505.33 Q347.239 1507.25 346.036 1509.26 Z" fill="#000000" fill-rule="nonzero" fill-opacity="1" /><path clip-path="url(#clip710)" d="M353.009 1488.66 Q351.094 1490.58 352.015 1493.44 Q352.935 1496.27 356.716 1500.06 Q360.485 1503.82 363.333 1504.76 Q366.181 1505.67 368.096 1503.75 Q370.024 1501.82 369.103 1498.99 Q368.182 1496.13 364.414 1492.36 Q360.632 1488.58 357.784 1487.67 Q354.936 1486.74 353.009 1488.66 M351.045 1486.7 Q354.126 1483.62 358.19 1484.44 Q362.253 1485.24 366.893 1489.88 Q371.521 1494.51 372.332 1498.58 Q373.142 1502.63 370.061 1505.72 Q366.979 1508.8 362.916 1508 Q358.852 1507.18 354.224 1502.55 Q349.584 1497.91 348.774 1493.86 Q347.964 1489.78 351.045 1486.7 Z" fill="#000000" fill-rule="nonzero" fill-opacity="1" /><path clip-path="url(#clip710)" d="M479.939 1544.11 Q478.024 1546.03 478.945 1548.89 Q479.866 1551.73 483.647 1555.51 Q487.415 1559.28 490.263 1560.21 Q493.111 1561.12 495.027 1559.2 Q496.954 1557.27 496.033 1554.44 Q495.112 1551.58 491.344 1547.81 Q487.563 1544.03 484.715 1543.12 Q481.867 1542.19 479.939 1544.11 M477.975 1542.15 Q481.056 1539.07 485.12 1539.89 Q489.183 1540.69 493.823 1545.33 Q498.452 1549.96 499.262 1554.03 Q500.072 1558.08 496.991 1561.17 Q493.909 1564.25 489.846 1563.45 Q485.783 1562.63 481.155 1558 Q476.514 1553.36 475.704 1549.31 Q474.894 1545.23 477.975 1542.15 Z" fill="#000000" fill-rule="nonzero" fill-opacity="1" /><path clip-path="url(#clip710)" d="M504.209 1547 L506.799 1544.41 L509.917 1547.53 L507.327 1550.12 L504.209 1547 Z" fill="#000000" fill-rule="nonzero" fill-opacity="1" /><path clip-path="url(#clip710)" d="M497.015 1523.77 L506.75 1514.04 L508.837 1516.13 L501.373 1523.59 L505.866 1528.08 Q506.222 1527.36 506.677 1526.73 Q507.118 1526.09 507.659 1525.55 Q510.728 1522.48 514.202 1522.37 Q517.676 1522.26 520.549 1525.14 Q523.507 1528.09 523.311 1531.58 Q523.102 1535.05 519.751 1538.41 Q518.597 1539.56 517.197 1540.57 Q515.81 1541.56 514.14 1542.45 L511.648 1539.95 Q513.355 1539.45 514.828 1538.57 Q516.301 1537.68 517.615 1536.37 Q519.738 1534.24 519.861 1531.89 Q519.984 1529.53 518.069 1527.62 Q516.154 1525.7 513.797 1525.82 Q511.44 1525.95 509.316 1528.07 Q508.322 1529.06 507.548 1530.28 Q506.787 1531.48 506.222 1532.98 L497.015 1523.77 Z" fill="#000000" fill-rule="nonzero" fill-opacity="1" /><path clip-path="url(#clip710)" d="M528.945 1508.74 Q531.106 1507.34 533.303 1507.54 Q535.513 1507.74 537.281 1509.51 Q539.994 1512.22 539.613 1515.57 Q539.233 1518.92 535.795 1522.36 Q534.641 1523.52 533.181 1524.51 Q531.744 1525.5 529.989 1526.35 L527.595 1523.96 Q529.228 1523.53 530.762 1522.61 Q532.297 1521.69 533.635 1520.35 Q535.967 1518.02 536.262 1515.88 Q536.569 1513.73 534.813 1511.98 Q533.193 1510.36 531.143 1510.59 Q529.093 1510.8 527.067 1512.82 L524.931 1514.96 L522.893 1512.92 L525.128 1510.69 Q526.957 1508.86 527.202 1507.16 Q527.435 1505.46 526.06 1504.08 Q524.649 1502.67 522.893 1502.93 Q521.138 1503.16 519.272 1505.03 Q518.253 1506.05 517.308 1507.43 Q516.362 1508.82 515.429 1510.69 L513.22 1508.48 Q514.239 1506.67 515.27 1505.25 Q516.313 1503.81 517.406 1502.72 Q520.229 1499.9 523.163 1499.54 Q526.085 1499.17 528.27 1501.36 Q529.792 1502.88 529.977 1504.81 Q530.148 1506.72 528.945 1508.74 Z" fill="#000000" fill-rule="nonzero" fill-opacity="1" /><path clip-path="url(#clip710)" d="M529.007 1491.78 L538.742 1482.05 L540.829 1484.13 L533.365 1491.6 L537.858 1496.09 Q538.214 1495.37 538.668 1494.74 Q539.11 1494.1 539.65 1493.56 Q542.719 1490.49 546.193 1490.38 Q549.667 1490.27 552.54 1493.14 Q555.499 1496.1 555.302 1499.59 Q555.093 1503.06 551.742 1506.41 Q550.588 1507.57 549.189 1508.58 Q547.801 1509.57 546.132 1510.45 L543.64 1507.96 Q545.346 1507.46 546.819 1506.57 Q548.292 1505.69 549.606 1504.38 Q551.73 1502.25 551.853 1499.9 Q551.975 1497.54 550.06 1495.62 Q548.145 1493.71 545.788 1493.83 Q543.431 1493.95 541.307 1496.08 Q540.313 1497.07 539.54 1498.29 Q538.779 1499.49 538.214 1500.99 L529.007 1491.78 Z" fill="#000000" fill-rule="nonzero" fill-opacity="1" /><path clip-path="url(#clip710)" d="M661.793 1544.64 Q659.878 1546.56 660.798 1549.42 Q661.719 1552.25 665.5 1556.03 Q669.269 1559.8 672.117 1560.74 Q674.965 1561.65 676.88 1559.73 Q678.807 1557.8 677.887 1554.97 Q676.966 1552.11 673.197 1548.34 Q669.416 1544.56 666.568 1543.65 Q663.72 1542.72 661.793 1544.64 M659.828 1542.68 Q662.91 1539.6 666.973 1540.42 Q671.037 1541.22 675.677 1545.86 Q680.305 1550.49 681.115 1554.56 Q681.925 1558.61 678.844 1561.69 Q675.763 1564.78 671.699 1563.98 Q667.636 1563.15 663.008 1558.53 Q658.368 1553.89 657.557 1549.84 Q656.747 1545.76 659.828 1542.68 Z" fill="#000000" fill-rule="nonzero" fill-opacity="1" /><path clip-path="url(#clip710)" d="M686.062 1547.53 L688.653 1544.94 L691.771 1548.06 L689.181 1550.65 L686.062 1547.53 Z" fill="#000000" fill-rule="nonzero" fill-opacity="1" /><path clip-path="url(#clip710)" d="M678.869 1524.3 L688.604 1514.57 L690.691 1516.65 L683.227 1524.12 L687.72 1528.61 Q688.076 1527.89 688.53 1527.26 Q688.972 1526.62 689.512 1526.08 Q692.581 1523.01 696.055 1522.9 Q699.529 1522.79 702.402 1525.66 Q705.36 1528.62 705.164 1532.11 Q704.955 1535.58 701.604 1538.93 Q700.45 1540.09 699.051 1541.09 Q697.663 1542.09 695.994 1542.97 L693.502 1540.48 Q695.208 1539.98 696.681 1539.09 Q698.154 1538.21 699.468 1536.9 Q701.592 1534.77 701.714 1532.42 Q701.837 1530.06 699.922 1528.14 Q698.007 1526.23 695.65 1526.35 Q693.293 1526.47 691.169 1528.6 Q690.175 1529.59 689.402 1530.81 Q688.64 1532.01 688.076 1533.51 L678.869 1524.3 Z" fill="#000000" fill-rule="nonzero" fill-opacity="1" /><path clip-path="url(#clip710)" d="M703.814 1503.68 L707.337 1519.72 L713.598 1513.46 L703.814 1503.68 M701.002 1502.17 L704.121 1499.05 L716.065 1510.99 L718.68 1508.38 L720.742 1510.44 L718.128 1513.06 L722.449 1517.38 L719.981 1519.84 L715.66 1515.52 L707.386 1523.8 L704.992 1521.4 L701.002 1502.17 Z" fill="#000000" fill-rule="nonzero" fill-opacity="1" /><path clip-path="url(#clip710)" d="M717.772 1488.66 Q715.857 1490.58 716.777 1493.44 Q717.698 1496.27 721.479 1500.06 Q725.248 1503.82 728.096 1504.76 Q730.944 1505.67 732.859 1503.75 Q734.786 1501.82 733.866 1498.99 Q732.945 1496.13 729.176 1492.36 Q725.395 1488.58 722.547 1487.67 Q719.699 1486.74 717.772 1488.66 M715.807 1486.7 Q718.889 1483.62 722.952 1484.44 Q727.016 1485.24 731.656 1489.88 Q736.284 1494.51 737.094 1498.58 Q737.904 1502.63 734.823 1505.72 Q731.742 1508.8 727.678 1508 Q723.615 1507.18 718.987 1502.55 Q714.347 1497.91 713.536 1493.86 Q712.726 1489.78 715.807 1486.7 Z" fill="#000000" fill-rule="nonzero" fill-opacity="1" /><path clip-path="url(#clip710)" d="M844.702 1544.11 Q842.787 1546.03 843.707 1548.89 Q844.628 1551.73 848.409 1555.51 Q852.178 1559.28 855.026 1560.21 Q857.874 1561.12 859.789 1559.2 Q861.716 1557.27 860.796 1554.44 Q859.875 1551.58 856.106 1547.81 Q852.325 1544.03 849.477 1543.12 Q846.629 1542.19 844.702 1544.11 M842.738 1542.15 Q845.819 1539.07 849.882 1539.89 Q853.946 1540.69 858.586 1545.33 Q863.214 1549.96 864.024 1554.03 Q864.835 1558.08 861.753 1561.17 Q858.672 1564.25 854.609 1563.45 Q850.545 1562.63 845.917 1558 Q841.277 1553.36 840.467 1549.31 Q839.656 1545.23 842.738 1542.15 Z" fill="#000000" fill-rule="nonzero" fill-opacity="1" /><path clip-path="url(#clip710)" d="M868.972 1547 L871.562 1544.41 L874.68 1547.53 L872.09 1550.12 L868.972 1547 Z" fill="#000000" fill-rule="nonzero" fill-opacity="1" /><path clip-path="url(#clip710)" d="M861.778 1523.77 L871.513 1514.04 L873.6 1516.13 L866.136 1523.59 L870.629 1528.08 Q870.985 1527.36 871.439 1526.73 Q871.881 1526.09 872.421 1525.55 Q875.49 1522.48 878.964 1522.37 Q882.439 1522.26 885.311 1525.14 Q888.27 1528.09 888.073 1531.58 Q887.865 1535.05 884.513 1538.41 Q883.359 1539.56 881.96 1540.57 Q880.573 1541.56 878.903 1542.45 L876.411 1539.95 Q878.117 1539.45 879.59 1538.57 Q881.064 1537.68 882.377 1536.37 Q884.501 1534.24 884.624 1531.89 Q884.746 1529.53 882.831 1527.62 Q880.916 1525.7 878.559 1525.82 Q876.202 1525.95 874.079 1528.07 Q873.084 1529.06 872.311 1530.28 Q871.55 1531.48 870.985 1532.98 L861.778 1523.77 Z" fill="#000000" fill-rule="nonzero" fill-opacity="1" /><path clip-path="url(#clip710)" d="M886.723 1503.15 L890.246 1519.19 L896.507 1512.93 L886.723 1503.15 M883.912 1501.64 L887.03 1498.52 L898.974 1510.47 L901.589 1507.85 L903.652 1509.91 L901.037 1512.53 L905.358 1516.85 L902.89 1519.32 L898.569 1515 L890.295 1523.27 L887.901 1520.88 L883.912 1501.64 Z" fill="#000000" fill-rule="nonzero" fill-opacity="1" /><path clip-path="url(#clip710)" d="M893.769 1491.78 L903.504 1482.05 L905.591 1484.13 L898.127 1491.6 L902.62 1496.09 Q902.976 1495.37 903.431 1494.74 Q903.873 1494.1 904.413 1493.56 Q907.482 1490.49 910.956 1490.38 Q914.43 1490.27 917.303 1493.14 Q920.261 1496.1 920.065 1499.59 Q919.856 1503.06 916.505 1506.41 Q915.351 1507.57 913.951 1508.58 Q912.564 1509.57 910.895 1510.45 L908.402 1507.96 Q910.109 1507.46 911.582 1506.57 Q913.055 1505.69 914.369 1504.38 Q916.492 1502.25 916.615 1499.9 Q916.738 1497.54 914.823 1495.62 Q912.908 1493.71 910.551 1493.83 Q908.194 1493.95 906.07 1496.08 Q905.076 1497.07 904.302 1498.29 Q903.541 1499.49 902.976 1500.99 L893.769 1491.78 Z" fill="#000000" fill-rule="nonzero" fill-opacity="1" /><path clip-path="url(#clip710)" d="M1026.56 1544.64 Q1024.64 1546.56 1025.56 1549.42 Q1026.48 1552.25 1030.26 1556.03 Q1034.03 1559.8 1036.88 1560.74 Q1039.73 1561.65 1041.64 1559.73 Q1043.57 1557.8 1042.65 1554.97 Q1041.73 1552.11 1037.96 1548.34 Q1034.18 1544.56 1031.33 1543.65 Q1028.48 1542.72 1026.56 1544.64 M1024.59 1542.68 Q1027.67 1539.6 1031.74 1540.42 Q1035.8 1541.22 1040.44 1545.86 Q1045.07 1550.49 1045.88 1554.56 Q1046.69 1558.61 1043.61 1561.69 Q1040.53 1564.78 1036.46 1563.98 Q1032.4 1563.15 1027.77 1558.53 Q1023.13 1553.89 1022.32 1549.84 Q1021.51 1545.76 1024.59 1542.68 Z" fill="#000000" fill-rule="nonzero" fill-opacity="1" /><path clip-path="url(#clip710)" d="M1050.83 1547.53 L1053.42 1544.94 L1056.53 1548.06 L1053.94 1550.65 L1050.83 1547.53 Z" fill="#000000" fill-rule="nonzero" fill-opacity="1" /><path clip-path="url(#clip710)" d="M1043.63 1524.3 L1053.37 1514.57 L1055.45 1516.65 L1047.99 1524.12 L1052.48 1528.61 Q1052.84 1527.89 1053.29 1527.26 Q1053.73 1526.62 1054.27 1526.08 Q1057.34 1523.01 1060.82 1522.9 Q1064.29 1522.79 1067.16 1525.66 Q1070.12 1528.62 1069.93 1532.11 Q1069.72 1535.58 1066.37 1538.93 Q1065.21 1540.09 1063.81 1541.09 Q1062.43 1542.09 1060.76 1542.97 L1058.26 1540.48 Q1059.97 1539.98 1061.44 1539.09 Q1062.92 1538.21 1064.23 1536.9 Q1066.35 1534.77 1066.48 1532.42 Q1066.6 1530.06 1064.68 1528.14 Q1062.77 1526.23 1060.41 1526.35 Q1058.06 1526.47 1055.93 1528.6 Q1054.94 1529.59 1054.16 1530.81 Q1053.4 1532.01 1052.84 1533.51 L1043.63 1524.3 Z" fill="#000000" fill-rule="nonzero" fill-opacity="1" /><path clip-path="url(#clip710)" d="M1059.63 1508.31 L1069.36 1498.57 L1071.45 1500.66 L1063.99 1508.12 L1068.48 1512.61 Q1068.83 1511.89 1069.29 1511.26 Q1069.73 1510.63 1070.27 1510.09 Q1073.34 1507.02 1076.81 1506.91 Q1080.29 1506.8 1083.16 1509.67 Q1086.12 1512.63 1085.92 1516.11 Q1085.71 1519.59 1082.36 1522.94 Q1081.21 1524.09 1079.81 1525.1 Q1078.42 1526.09 1076.75 1526.98 L1074.26 1524.49 Q1075.97 1523.98 1077.44 1523.1 Q1078.91 1522.21 1080.23 1520.9 Q1082.35 1518.78 1082.47 1516.42 Q1082.6 1514.06 1080.68 1512.15 Q1078.77 1510.23 1076.41 1510.36 Q1074.05 1510.48 1071.93 1512.6 Q1070.93 1513.6 1070.16 1514.81 Q1069.4 1516.01 1068.83 1517.51 L1059.63 1508.31 Z" fill="#000000" fill-rule="nonzero" fill-opacity="1" /><path clip-path="url(#clip710)" d="M1082.53 1488.66 Q1080.62 1490.58 1081.54 1493.44 Q1082.46 1496.27 1086.24 1500.06 Q1090.01 1503.82 1092.86 1504.76 Q1095.71 1505.67 1097.62 1503.75 Q1099.55 1501.82 1098.63 1498.99 Q1097.71 1496.13 1093.94 1492.36 Q1090.16 1488.58 1087.31 1487.67 Q1084.46 1486.74 1082.53 1488.66 M1080.57 1486.7 Q1083.65 1483.62 1087.71 1484.44 Q1091.78 1485.24 1096.42 1489.88 Q1101.05 1494.51 1101.86 1498.58 Q1102.67 1502.63 1099.59 1505.72 Q1096.5 1508.8 1092.44 1508 Q1088.38 1507.18 1083.75 1502.55 Q1079.11 1497.91 1078.3 1493.86 Q1077.49 1489.78 1080.57 1486.7 Z" fill="#000000" fill-rule="nonzero" fill-opacity="1" /><polyline clip-path="url(#clip710)" style="stroke:#000000; stroke-linecap:round; stroke-linejoin:round; stroke-width:4; stroke-opacity:1; fill:none" points="128.138,1456.91 128.138,892.306 "/>
<polyline clip-path="url(#clip710)" style="stroke:#000000; stroke-linecap:round; stroke-linejoin:round; stroke-width:4; stroke-opacity:1; fill:none" points="128.138,1456.91 147.035,1456.91 "/>
<polyline clip-path="url(#clip710)" style="stroke:#000000; stroke-linecap:round; stroke-linejoin:round; stroke-width:4; stroke-opacity:1; fill:none" points="128.138,1354.26 147.035,1354.26 "/>
<polyline clip-path="url(#clip710)" style="stroke:#000000; stroke-linecap:round; stroke-linejoin:round; stroke-width:4; stroke-opacity:1; fill:none" points="128.138,1251.6 147.035,1251.6 "/>
<polyline clip-path="url(#clip710)" style="stroke:#000000; stroke-linecap:round; stroke-linejoin:round; stroke-width:4; stroke-opacity:1; fill:none" points="128.138,1148.95 147.035,1148.95 "/>
<polyline clip-path="url(#clip710)" style="stroke:#000000; stroke-linecap:round; stroke-linejoin:round; stroke-width:4; stroke-opacity:1; fill:none" points="128.138,1046.29 147.035,1046.29 "/>
<polyline clip-path="url(#clip710)" style="stroke:#000000; stroke-linecap:round; stroke-linejoin:round; stroke-width:4; stroke-opacity:1; fill:none" points="128.138,943.634 147.035,943.634 "/>
<path clip-path="url(#clip710)" d="M83.1795 1446.26 Q80.4711 1446.26 79.0996 1448.94 Q77.7455 1451.59 77.7455 1456.94 Q77.7455 1462.27 79.0996 1464.94 Q80.4711 1467.6 83.1795 1467.6 Q85.9051 1467.6 87.2593 1464.94 Q88.6308 1462.27 88.6308 1456.94 Q88.6308 1451.59 87.2593 1448.94 Q85.9051 1446.26 83.1795 1446.26 M83.1795 1443.49 Q87.5371 1443.49 89.8287 1446.94 Q92.1377 1450.38 92.1377 1456.94 Q92.1377 1463.49 89.8287 1466.94 Q87.5371 1470.38 83.1795 1470.38 Q78.8218 1470.38 76.5128 1466.94 Q74.2212 1463.49 74.2212 1456.94 Q74.2212 1450.38 76.5128 1446.94 Q78.8218 1443.49 83.1795 1443.49 Z" fill="#000000" fill-rule="nonzero" fill-opacity="1" /><path clip-path="url(#clip710)" d="M53.6657 1364.27 L59.3949 1364.27 L59.3949 1344.49 L53.1623 1345.74 L53.1623 1342.55 L59.3601 1341.3 L62.8671 1341.3 L62.8671 1364.27 L68.5962 1364.27 L68.5962 1367.22 L53.6657 1367.22 L53.6657 1364.27 Z" fill="#000000" fill-rule="nonzero" fill-opacity="1" /><path clip-path="url(#clip710)" d="M83.1795 1343.61 Q80.4711 1343.61 79.0996 1346.28 Q77.7455 1348.94 77.7455 1354.28 Q77.7455 1359.61 79.0996 1362.29 Q80.4711 1364.94 83.1795 1364.94 Q85.9051 1364.94 87.2593 1362.29 Q88.6308 1359.61 88.6308 1354.28 Q88.6308 1348.94 87.2593 1346.28 Q85.9051 1343.61 83.1795 1343.61 M83.1795 1340.83 Q87.5371 1340.83 89.8287 1344.28 Q92.1377 1347.72 92.1377 1354.28 Q92.1377 1360.83 89.8287 1364.28 Q87.5371 1367.72 83.1795 1367.72 Q78.8218 1367.72 76.5128 1364.28 Q74.2212 1360.83 74.2212 1354.28 Q74.2212 1347.72 76.5128 1344.28 Q78.8218 1340.83 83.1795 1340.83 Z" fill="#000000" fill-rule="nonzero" fill-opacity="1" /><path clip-path="url(#clip710)" d="M56.0789 1261.61 L68.3184 1261.61 L68.3184 1264.56 L51.8602 1264.56 L51.8602 1261.61 Q53.8567 1259.54 57.2942 1256.07 Q60.749 1252.58 61.6344 1251.58 Q63.3184 1249.68 63.9782 1248.38 Q64.6552 1247.06 64.6552 1245.8 Q64.6552 1243.73 63.1969 1242.43 Q61.756 1241.12 59.4296 1241.12 Q57.7803 1241.12 55.94 1241.7 Q54.1171 1242.27 52.0338 1243.43 L52.0338 1239.89 Q54.1518 1239.04 55.9921 1238.61 Q57.8324 1238.17 59.3601 1238.17 Q63.3879 1238.17 65.7837 1240.19 Q68.1795 1242.2 68.1795 1245.57 Q68.1795 1247.17 67.5719 1248.61 Q66.9816 1250.03 65.4018 1251.98 Q64.9677 1252.48 62.6414 1254.89 Q60.315 1257.29 56.0789 1261.61 Z" fill="#000000" fill-rule="nonzero" fill-opacity="1" /><path clip-path="url(#clip710)" d="M83.1795 1240.95 Q80.4711 1240.95 79.0996 1243.62 Q77.7455 1246.28 77.7455 1251.63 Q77.7455 1256.96 79.0996 1259.63 Q80.4711 1262.29 83.1795 1262.29 Q85.9051 1262.29 87.2593 1259.63 Q88.6308 1256.96 88.6308 1251.63 Q88.6308 1246.28 87.2593 1243.62 Q85.9051 1240.95 83.1795 1240.95 M83.1795 1238.17 Q87.5371 1238.17 89.8287 1241.63 Q92.1377 1245.07 92.1377 1251.63 Q92.1377 1258.17 89.8287 1261.63 Q87.5371 1265.07 83.1795 1265.07 Q78.8218 1265.07 76.5128 1261.63 Q74.2212 1258.17 74.2212 1251.63 Q74.2212 1245.07 76.5128 1241.63 Q78.8218 1238.17 83.1795 1238.17 Z" fill="#000000" fill-rule="nonzero" fill-opacity="1" /><path clip-path="url(#clip710)" d="M63.683 1147.93 Q66.2004 1148.47 67.6066 1150.17 Q69.0302 1151.87 69.0302 1154.37 Q69.0302 1158.21 66.3913 1160.31 Q63.7525 1162.41 58.8914 1162.41 Q57.2595 1162.41 55.5234 1162.08 Q53.8046 1161.77 51.9643 1161.13 L51.9643 1157.74 Q53.4227 1158.59 55.1588 1159.02 Q56.8949 1159.46 58.7872 1159.46 Q62.0858 1159.46 63.8046 1158.16 Q65.5407 1156.85 65.5407 1154.37 Q65.5407 1152.08 63.9261 1150.8 Q62.3289 1149.49 59.4643 1149.49 L56.4435 1149.49 L56.4435 1146.61 L59.6032 1146.61 Q62.19 1146.61 63.5615 1145.59 Q64.933 1144.55 64.933 1142.6 Q64.933 1140.6 63.5094 1139.55 Q62.1032 1138.47 59.4643 1138.47 Q58.0233 1138.47 56.374 1138.78 Q54.7247 1139.09 52.7456 1139.75 L52.7456 1136.63 Q54.7421 1136.07 56.4782 1135.8 Q58.2317 1135.52 59.7768 1135.52 Q63.7698 1135.52 66.0962 1137.34 Q68.4226 1139.15 68.4226 1142.24 Q68.4226 1144.39 67.19 1145.88 Q65.9573 1147.36 63.683 1147.93 Z" fill="#000000" fill-rule="nonzero" fill-opacity="1" /><path clip-path="url(#clip710)" d="M83.1795 1138.3 Q80.4711 1138.3 79.0996 1140.97 Q77.7455 1143.63 77.7455 1148.97 Q77.7455 1154.3 79.0996 1156.98 Q80.4711 1159.63 83.1795 1159.63 Q85.9051 1159.63 87.2593 1156.98 Q88.6308 1154.3 88.6308 1148.97 Q88.6308 1143.63 87.2593 1140.97 Q85.9051 1138.3 83.1795 1138.3 M83.1795 1135.52 Q87.5371 1135.52 89.8287 1138.97 Q92.1377 1142.41 92.1377 1148.97 Q92.1377 1155.52 89.8287 1158.97 Q87.5371 1162.41 83.1795 1162.41 Q78.8218 1162.41 76.5128 1158.97 Q74.2212 1155.52 74.2212 1148.97 Q74.2212 1142.41 76.5128 1138.97 Q78.8218 1135.52 83.1795 1135.52 Z" fill="#000000" fill-rule="nonzero" fill-opacity="1" /><path clip-path="url(#clip710)" d="M62.6935 1036.39 L53.8393 1050.22 L62.6935 1050.22 L62.6935 1036.39 M61.7733 1033.33 L66.183 1033.33 L66.183 1050.22 L69.8809 1050.22 L69.8809 1053.14 L66.183 1053.14 L66.183 1059.25 L62.6935 1059.25 L62.6935 1053.14 L50.9921 1053.14 L50.9921 1049.75 L61.7733 1033.33 Z" fill="#000000" fill-rule="nonzero" fill-opacity="1" /><path clip-path="url(#clip710)" d="M83.1795 1035.64 Q80.4711 1035.64 79.0996 1038.31 Q77.7455 1040.97 77.7455 1046.32 Q77.7455 1051.65 79.0996 1054.32 Q80.4711 1056.98 83.1795 1056.98 Q85.9051 1056.98 87.2593 1054.32 Q88.6308 1051.65 88.6308 1046.32 Q88.6308 1040.97 87.2593 1038.31 Q85.9051 1035.64 83.1795 1035.64 M83.1795 1032.86 Q87.5371 1032.86 89.8287 1036.32 Q92.1377 1039.75 92.1377 1046.32 Q92.1377 1052.86 89.8287 1056.32 Q87.5371 1059.75 83.1795 1059.75 Q78.8218 1059.75 76.5128 1056.32 Q74.2212 1052.86 74.2212 1046.32 Q74.2212 1039.75 76.5128 1036.32 Q78.8218 1032.86 83.1795 1032.86 Z" fill="#000000" fill-rule="nonzero" fill-opacity="1" /><path clip-path="url(#clip710)" d="M53.0928 930.674 L66.8601 930.674 L66.8601 933.626 L56.3046 933.626 L56.3046 939.98 Q57.0685 939.719 57.8324 939.598 Q58.5963 939.459 59.3601 939.459 Q63.7004 939.459 66.2351 941.837 Q68.7698 944.216 68.7698 948.278 Q68.7698 952.462 66.1657 954.789 Q63.5615 957.098 58.8219 957.098 Q57.19 957.098 55.4886 956.82 Q53.8046 956.542 51.9991 955.987 L51.9991 952.462 Q53.5616 953.313 55.2282 953.73 Q56.8949 954.146 58.7525 954.146 Q61.756 954.146 63.5094 952.566 Q65.2629 950.987 65.2629 948.278 Q65.2629 945.57 63.5094 943.99 Q61.756 942.41 58.7525 942.41 Q57.3463 942.41 55.94 942.723 Q54.5511 943.035 53.0928 943.695 L53.0928 930.674 Z" fill="#000000" fill-rule="nonzero" fill-opacity="1" /><path clip-path="url(#clip710)" d="M83.1795 932.983 Q80.4711 932.983 79.0996 935.657 Q77.7455 938.313 77.7455 943.66 Q77.7455 948.99 79.0996 951.664 Q80.4711 954.32 83.1795 954.32 Q85.9051 954.32 87.2593 951.664 Q88.6308 948.99 88.6308 943.66 Q88.6308 938.313 87.2593 935.657 Q85.9051 932.983 83.1795 932.983 M83.1795 930.205 Q87.5371 930.205 89.8287 933.66 Q92.1377 937.098 92.1377 943.66 Q92.1377 950.205 89.8287 953.66 Q87.5371 957.098 83.1795 957.098 Q78.8218 957.098 76.5128 953.66 Q74.2212 950.205 74.2212 943.66 Q74.2212 937.098 76.5128 933.66 Q78.8218 930.205 83.1795 930.205 Z" fill="#000000" fill-rule="nonzero" fill-opacity="1" /><path clip-path="url(#clip710)" d="M140.036 813.68 Q136.517 813.68 134.619 816.226 Q132.628 818.888 132.628 823.286 Q132.628 827.939 134.596 830.624 Q136.587 833.286 140.036 833.286 Q143.439 833.286 145.429 830.601 Q147.42 827.916 147.42 823.286 Q147.42 819.05 145.429 816.226 Q143.601 813.68 140.036 813.68 M140.036 810.3 L154.179 810.3 L154.179 814.559 L149.411 814.559 Q151.934 818.171 151.934 823.286 Q151.934 829.652 148.763 833.263 Q145.591 836.897 140.036 836.897 Q134.457 836.897 131.309 833.263 Q128.138 829.652 128.138 823.286 Q128.138 816.874 131.309 813.286 Q133.925 810.3 140.036 810.3 Z" fill="#000000" fill-rule="nonzero" fill-opacity="1" /><path clip-path="url(#clip710)" d="M165.198 836.226 L157.281 810.3 L161.864 810.3 L168.554 832.059 Q171.332 829.189 173.647 825.208 Q175.406 822.221 175.499 819.629 Q175.545 818.402 174.989 816.087 Q174.341 813.333 171.888 810.3 L176.193 810.3 L176.193 810.3 Q177.79 812.36 178.855 815.231 Q179.827 817.87 179.827 819.675 Q179.827 824.212 176.679 828.263 Q172.582 833.541 169.735 836.226 L165.198 836.226 Z" fill="#000000" fill-rule="nonzero" fill-opacity="1" /><path clip-path="url(#clip714)" d="M184.494 1169.48 L184.494 1456.91 L366.875 1456.91 L366.875 1169.48 L184.494 1169.48 L184.494 1169.48  Z" fill="#009af9" fill-rule="evenodd" fill-opacity="1"/>
<polyline clip-path="url(#clip714)" style="stroke:#000000; stroke-linecap:round; stroke-linejoin:round; stroke-width:4; stroke-opacity:1; fill:none" points="184.494,1169.48 184.494,1456.91 366.875,1456.91 366.875,1169.48 184.494,1169.48 "/>
<path clip-path="url(#clip714)" d="M366.875 892.306 L366.875 1456.91 L549.256 1456.91 L549.256 892.306 L366.875 892.306 L366.875 892.306  Z" fill="#009af9" fill-rule="evenodd" fill-opacity="1"/>
<polyline clip-path="url(#clip714)" style="stroke:#000000; stroke-linecap:round; stroke-linejoin:round; stroke-width:4; stroke-opacity:1; fill:none" points="366.875,892.306 366.875,1456.91 549.256,1456.91 549.256,892.306 366.875,892.306 "/>
<path clip-path="url(#clip714)" d="M549.256 943.634 L549.256 1456.91 L731.637 1456.91 L731.637 943.634 L549.256 943.634 L549.256 943.634  Z" fill="#009af9" fill-rule="evenodd" fill-opacity="1"/>
<polyline clip-path="url(#clip714)" style="stroke:#000000; stroke-linecap:round; stroke-linejoin:round; stroke-width:4; stroke-opacity:1; fill:none" points="549.256,943.634 549.256,1456.91 731.637,1456.91 731.637,943.634 549.256,943.634 "/>
<path clip-path="url(#clip714)" d="M731.637 994.962 L731.637 1456.91 L914.019 1456.91 L914.019 994.962 L731.637 994.962 L731.637 994.962  Z" fill="#009af9" fill-rule="evenodd" fill-opacity="1"/>
<polyline clip-path="url(#clip714)" style="stroke:#000000; stroke-linecap:round; stroke-linejoin:round; stroke-width:4; stroke-opacity:1; fill:none" points="731.637,994.962 731.637,1456.91 914.019,1456.91 914.019,994.962 731.637,994.962 "/>
<path clip-path="url(#clip714)" d="M914.019 1015.49 L914.019 1456.91 L1096.4 1456.91 L1096.4 1015.49 L914.019 1015.49 L914.019 1015.49  Z" fill="#009af9" fill-rule="evenodd" fill-opacity="1"/>
<polyline clip-path="url(#clip714)" style="stroke:#000000; stroke-linecap:round; stroke-linejoin:round; stroke-width:4; stroke-opacity:1; fill:none" points="914.019,1015.49 914.019,1456.91 1096.4,1456.91 1096.4,1015.49 914.019,1015.49 "/>
<circle clip-path="url(#clip714)" style="fill:#009af9; stroke:none; fill-opacity:0" cx="275.684" cy="1169.48" r="2"/>
<circle clip-path="url(#clip714)" style="fill:#009af9; stroke:none; fill-opacity:0" cx="640.447" cy="943.634" r="2"/>
<circle clip-path="url(#clip714)" style="fill:#009af9; stroke:none; fill-opacity:0" cx="822.828" cy="994.962" r="2"/>
<circle clip-path="url(#clip714)" style="fill:#009af9; stroke:none; fill-opacity:0" cx="1005.21" cy="1015.49" r="2"/>
<polyline clip-path="url(#clip714)" style="stroke:#ff0000; stroke-linecap:round; stroke-linejoin:round; stroke-width:8; stroke-opacity:1; fill:none" stroke-dasharray="32, 20" points="775.116,2021.52 775.116,327.698 "/>
<polyline clip-path="url(#clip714)" style="stroke:#ff0000; stroke-linecap:round; stroke-linejoin:round; stroke-width:6; stroke-opacity:1; fill:none" stroke-dasharray="24, 12, 3, 12" points="219.214,2021.52 219.214,327.698 "/>
<polyline clip-path="url(#clip714)" style="stroke:#ff0000; stroke-linecap:round; stroke-linejoin:round; stroke-width:6; stroke-opacity:1; fill:none" stroke-dasharray="24, 12, 3, 12" points="1055.71,2021.52 1055.71,327.698 "/>
</svg>
