<?xml version="1.0" encoding="utf-8"?>
<svg xmlns="http://www.w3.org/2000/svg" xmlns:xlink="http://www.w3.org/1999/xlink" width="600" height="400" viewBox="0 0 2400 1600">
<defs>
  <clipPath id="clip000">
    <rect x="0" y="0" width="2400" height="1600"/>
  </clipPath>
</defs>
<path clip-path="url(#clip000)" d="M0 1600 L2400 1600 L2400 0 L0 0  Z" fill="#ffffff" fill-rule="evenodd" fill-opacity="1"/>
<defs>
  <clipPath id="clip001">
    <rect x="480" y="0" width="1681" height="1600"/>
  </clipPath>
</defs>
<path clip-path="url(#clip000)" d="M128.138 662.16 L1152.76 662.16 L1152.76 97.5521 L128.138 97.5521  Z" fill="#ffffff" fill-rule="evenodd" fill-opacity="1"/>
<defs>
  <clipPath id="clip002">
    <rect x="128" y="97" width="1026" height="566"/>
  </clipPath>
</defs>
<polyline clip-path="url(#clip002)" style="stroke:#000000; stroke-linecap:round; stroke-linejoin:round; stroke-width:2; stroke-opacity:0.1; fill:none" points="184.494,662.16 184.494,97.5521 "/>
<polyline clip-path="url(#clip002)" style="stroke:#000000; stroke-linecap:round; stroke-linejoin:round; stroke-width:2; stroke-opacity:0.1; fill:none" points="445.038,662.16 445.038,97.5521 "/>
<polyline clip-path="url(#clip002)" style="stroke:#000000; stroke-linecap:round; stroke-linejoin:round; stroke-width:2; stroke-opacity:0.1; fill:none" points="705.583,662.16 705.583,97.5521 "/>
<polyline clip-path="url(#clip002)" style="stroke:#000000; stroke-linecap:round; stroke-linejoin:round; stroke-width:2; stroke-opacity:0.1; fill:none" points="966.128,662.16 966.128,97.5521 "/>
<polyline clip-path="url(#clip002)" style="stroke:#000000; stroke-linecap:round; stroke-linejoin:round; stroke-width:2; stroke-opacity:0.1; fill:none" points="128.138,662.16 1152.76,662.16 "/>
<polyline clip-path="url(#clip002)" style="stroke:#000000; stroke-linecap:round; stroke-linejoin:round; stroke-width:2; stroke-opacity:0.1; fill:none" points="128.138,561.337 1152.76,561.337 "/>
<polyline clip-path="url(#clip002)" style="stroke:#000000; stroke-linecap:round; stroke-linejoin:round; stroke-width:2; stroke-opacity:0.1; fill:none" points="128.138,460.515 1152.76,460.515 "/>
<polyline clip-path="url(#clip002)" style="stroke:#000000; stroke-linecap:round; stroke-linejoin:round; stroke-width:2; stroke-opacity:0.1; fill:none" points="128.138,359.692 1152.76,359.692 "/>
<polyline clip-path="url(#clip002)" style="stroke:#000000; stroke-linecap:round; stroke-linejoin:round; stroke-width:2; stroke-opacity:0.1; fill:none" points="128.138,258.869 1152.76,258.869 "/>
<polyline clip-path="url(#clip002)" style="stroke:#000000; stroke-linecap:round; stroke-linejoin:round; stroke-width:2; stroke-opacity:0.1; fill:none" points="128.138,158.046 1152.76,158.046 "/>
<polyline clip-path="url(#clip000)" style="stroke:#000000; stroke-linecap:round; stroke-linejoin:round; stroke-width:4; stroke-opacity:1; fill:none" points="128.138,662.16 1152.76,662.16 "/>
<polyline clip-path="url(#clip000)" style="stroke:#000000; stroke-linecap:round; stroke-linejoin:round; stroke-width:4; stroke-opacity:1; fill:none" points="184.494,662.16 184.494,643.263 "/>
<polyline clip-path="url(#clip000)" style="stroke:#000000; stroke-linecap:round; stroke-linejoin:round; stroke-width:4; stroke-opacity:1; fill:none" points="445.038,662.16 445.038,643.263 "/>
<polyline clip-path="url(#clip000)" style="stroke:#000000; stroke-linecap:round; stroke-linejoin:round; stroke-width:4; stroke-opacity:1; fill:none" points="705.583,662.16 705.583,643.263 "/>
<polyline clip-path="url(#clip000)" style="stroke:#000000; stroke-linecap:round; stroke-linejoin:round; stroke-width:4; stroke-opacity:1; fill:none" points="966.128,662.16 966.128,643.263 "/>
<path clip-path="url(#clip000)" d="M131.123 733.414 Q129.208 735.329 130.129 738.189 Q131.05 741.025 134.831 744.806 Q138.599 748.575 141.447 749.508 Q144.295 750.416 146.211 748.501 Q148.138 746.574 147.217 743.738 Q146.296 740.878 142.528 737.109 Q138.747 733.328 135.899 732.42 Q133.051 731.487 131.123 733.414 M129.159 731.45 Q132.24 728.369 136.304 729.191 Q140.367 729.989 145.008 734.629 Q149.636 739.257 150.446 743.333 Q151.256 747.384 148.175 750.466 Q145.093 753.547 141.03 752.749 Q136.967 751.926 132.339 747.298 Q127.698 742.658 126.888 738.607 Q126.078 734.531 129.159 731.45 Z" fill="#000000" fill-rule="nonzero" fill-opacity="1" /><path clip-path="url(#clip000)" d="M155.393 736.299 L157.983 733.709 L161.101 736.827 L158.511 739.417 L155.393 736.299 Z" fill="#000000" fill-rule="nonzero" fill-opacity="1" /><path clip-path="url(#clip000)" d="M163.102 717.418 Q161.335 719.186 161.261 721.15 Q161.2 723.102 162.857 724.759 Q164.514 726.417 166.466 726.355 Q168.43 726.282 170.198 724.514 Q171.966 722.746 172.039 720.782 Q172.101 718.806 170.456 717.161 Q168.799 715.503 166.834 715.577 Q164.883 715.638 163.102 717.418 M159.567 718.842 Q157.578 720.045 155.589 719.849 Q153.613 719.64 152.042 718.069 Q149.844 715.872 150.127 713.036 Q150.421 710.188 153.147 707.462 Q155.884 704.725 158.72 704.442 Q161.556 704.16 163.753 706.358 Q165.324 707.929 165.521 709.918 Q165.73 711.894 164.539 713.871 Q166.748 712.496 168.958 712.717 Q171.18 712.925 172.936 714.681 Q175.6 717.345 175.391 720.401 Q175.194 723.446 172.162 726.478 Q169.13 729.51 166.073 729.719 Q163.029 729.915 160.365 727.251 Q158.609 725.496 158.401 723.274 Q158.192 721.052 159.567 718.842 M154.742 715.835 Q156.166 717.259 157.848 717.173 Q159.542 717.075 161.151 715.466 Q162.746 713.871 162.845 712.176 Q162.955 710.47 161.531 709.046 Q160.107 707.622 158.401 707.732 Q156.707 707.831 155.111 709.427 Q153.503 711.035 153.404 712.729 Q153.318 714.411 154.742 715.835 Z" fill="#000000" fill-rule="nonzero" fill-opacity="1" /><path clip-path="url(#clip000)" d="M163.544 697.727 L175.329 685.942 L176.385 686.998 L187.004 710.924 L184.414 713.515 L174.433 691.012 L165.631 699.814 L163.544 697.727 Z" fill="#000000" fill-rule="nonzero" fill-opacity="1" /><path clip-path="url(#clip000)" d="M391.238 733.844 Q389.323 735.759 390.244 738.619 Q391.165 741.455 394.946 745.236 Q398.714 749.005 401.562 749.938 Q404.411 750.846 406.326 748.931 Q408.253 747.004 407.332 744.168 Q406.412 741.308 402.643 737.539 Q398.862 733.758 396.014 732.849 Q393.166 731.916 391.238 733.844 M389.274 731.88 Q392.355 728.798 396.419 729.621 Q400.482 730.419 405.123 735.059 Q409.751 739.687 410.561 743.763 Q411.371 747.814 408.29 750.895 Q405.208 753.977 401.145 753.179 Q397.082 752.356 392.454 747.728 Q387.813 743.088 387.003 739.037 Q386.193 734.961 389.274 731.88 Z" fill="#000000" fill-rule="nonzero" fill-opacity="1" /><path clip-path="url(#clip000)" d="M415.508 736.729 L418.098 734.138 L421.217 737.256 L418.626 739.847 L415.508 736.729 Z" fill="#000000" fill-rule="nonzero" fill-opacity="1" /><path clip-path="url(#clip000)" d="M423.218 717.848 Q421.45 719.616 421.376 721.58 Q421.315 723.532 422.972 725.189 Q424.629 726.846 426.581 726.785 Q428.545 726.711 430.313 724.944 Q432.081 723.176 432.155 721.212 Q432.216 719.235 430.571 717.59 Q428.914 715.933 426.949 716.007 Q424.998 716.068 423.218 717.848 M419.682 719.272 Q417.693 720.475 415.705 720.279 Q413.728 720.07 412.157 718.499 Q409.959 716.301 410.242 713.465 Q410.536 710.617 413.262 707.892 Q415.999 705.155 418.835 704.872 Q421.671 704.59 423.868 706.787 Q425.439 708.359 425.636 710.347 Q425.845 712.324 424.654 714.3 Q426.864 712.925 429.073 713.146 Q431.295 713.355 433.051 715.11 Q435.715 717.774 435.506 720.831 Q435.309 723.876 432.277 726.908 Q429.245 729.94 426.188 730.149 Q423.144 730.345 420.48 727.681 Q418.724 725.926 418.516 723.704 Q418.307 721.482 419.682 719.272 M414.858 716.264 Q416.282 717.688 417.963 717.602 Q419.657 717.504 421.266 715.896 Q422.862 714.3 422.96 712.606 Q423.07 710.9 421.646 709.476 Q420.222 708.052 418.516 708.162 Q416.822 708.26 415.226 709.856 Q413.618 711.464 413.519 713.159 Q413.433 714.84 414.858 716.264 Z" fill="#000000" fill-rule="nonzero" fill-opacity="1" /><path clip-path="url(#clip000)" d="M439.213 701.852 Q437.446 703.62 437.372 705.584 Q437.31 707.536 438.968 709.193 Q440.625 710.851 442.577 710.789 Q444.541 710.716 446.309 708.948 Q448.077 707.18 448.15 705.216 Q448.212 703.239 446.567 701.594 Q444.909 699.937 442.945 700.011 Q440.993 700.072 439.213 701.852 M435.678 703.276 Q433.689 704.479 431.7 704.283 Q429.724 704.074 428.153 702.503 Q425.955 700.305 426.237 697.47 Q426.532 694.622 429.257 691.896 Q431.995 689.159 434.831 688.876 Q437.666 688.594 439.864 690.791 Q441.435 692.363 441.632 694.352 Q441.84 696.328 440.65 698.304 Q442.859 696.93 445.069 697.15 Q447.291 697.359 449.046 699.115 Q451.71 701.779 451.502 704.835 Q451.305 707.88 448.273 710.912 Q445.241 713.944 442.184 714.153 Q439.14 714.349 436.476 711.685 Q434.72 709.93 434.512 707.708 Q434.303 705.486 435.678 703.276 M430.853 700.269 Q432.277 701.693 433.959 701.607 Q435.653 701.509 437.261 699.9 Q438.857 698.304 438.955 696.61 Q439.066 694.904 437.642 693.48 Q436.218 692.056 434.512 692.166 Q432.817 692.265 431.222 693.861 Q429.613 695.469 429.515 697.163 Q429.429 698.845 430.853 700.269 Z" fill="#000000" fill-rule="nonzero" fill-opacity="1" /><path clip-path="url(#clip000)" d="M651.832 733.795 Q649.917 735.71 650.838 738.57 Q651.758 741.406 655.54 745.187 Q659.308 748.956 662.156 749.889 Q665.004 750.797 666.919 748.882 Q668.847 746.955 667.926 744.119 Q667.005 741.259 663.237 737.49 Q659.456 733.709 656.608 732.8 Q653.759 731.867 651.832 733.795 M649.868 731.83 Q652.949 728.749 657.013 729.572 Q661.076 730.37 665.716 735.01 Q670.344 739.638 671.155 743.714 Q671.965 747.765 668.884 750.846 Q665.802 753.927 661.739 753.129 Q657.676 752.307 653.047 747.679 Q648.407 743.039 647.597 738.987 Q646.787 734.912 649.868 731.83 Z" fill="#000000" fill-rule="nonzero" fill-opacity="1" /><path clip-path="url(#clip000)" d="M676.102 736.68 L678.692 734.089 L681.81 737.207 L679.22 739.798 L676.102 736.68 Z" fill="#000000" fill-rule="nonzero" fill-opacity="1" /><path clip-path="url(#clip000)" d="M683.811 717.799 Q682.044 719.567 681.97 721.531 Q681.909 723.483 683.566 725.14 Q685.223 726.797 687.175 726.736 Q689.139 726.662 690.907 724.894 Q692.675 723.127 692.748 721.163 Q692.81 719.186 691.165 717.541 Q689.507 715.884 687.543 715.957 Q685.591 716.019 683.811 717.799 M680.276 719.223 Q678.287 720.426 676.298 720.23 Q674.322 720.021 672.751 718.45 Q670.553 716.252 670.836 713.416 Q671.13 710.568 673.855 707.843 Q676.593 705.105 679.429 704.823 Q682.265 704.541 684.462 706.738 Q686.033 708.309 686.23 710.298 Q686.438 712.275 685.248 714.251 Q687.457 712.876 689.667 713.097 Q691.889 713.306 693.645 715.061 Q696.308 717.725 696.1 720.782 Q695.903 723.826 692.871 726.859 Q689.839 729.891 686.782 730.1 Q683.738 730.296 681.074 727.632 Q679.318 725.877 679.11 723.655 Q678.901 721.433 680.276 719.223 M675.451 716.215 Q676.875 717.639 678.557 717.553 Q680.251 717.455 681.859 715.847 Q683.455 714.251 683.554 712.557 Q683.664 710.851 682.24 709.427 Q680.816 708.003 679.11 708.113 Q677.416 708.211 675.82 709.807 Q674.211 711.415 674.113 713.109 Q674.027 714.791 675.451 716.215 Z" fill="#000000" fill-rule="nonzero" fill-opacity="1" /><path clip-path="url(#clip000)" d="M702.901 715.356 L700.642 713.097 Q702.017 712.606 703.208 711.882 Q704.398 711.158 705.319 710.237 Q707.774 707.782 707.418 704.848 Q707.062 701.889 703.883 698.341 Q704.226 700.109 703.699 701.766 Q703.171 703.424 701.845 704.749 Q699.095 707.499 695.83 707.45 Q692.564 707.376 689.679 704.492 Q686.856 701.668 686.819 698.292 Q686.782 694.916 689.557 692.142 Q692.736 688.962 696.849 689.736 Q700.961 690.485 705.601 695.125 Q709.935 699.458 710.463 704.111 Q710.991 708.739 707.516 712.213 Q706.584 713.146 705.442 713.92 Q704.3 714.693 702.901 715.356 M700.065 702.65 Q701.734 700.981 701.563 698.869 Q701.403 696.745 699.414 694.757 Q697.438 692.78 695.314 692.621 Q693.19 692.436 691.521 694.106 Q689.851 695.776 690.023 697.912 Q690.195 700.023 692.171 702 Q694.16 703.988 696.272 704.16 Q698.395 704.32 700.065 702.65 Z" fill="#000000" fill-rule="nonzero" fill-opacity="1" /><path clip-path="url(#clip000)" d="M912.279 733.893 Q910.364 735.808 911.284 738.668 Q912.205 741.504 915.986 745.285 Q919.755 749.054 922.603 749.987 Q925.451 750.895 927.366 748.98 Q929.293 747.053 928.373 744.217 Q927.452 741.357 923.683 737.588 Q919.902 733.807 917.054 732.898 Q914.206 731.966 912.279 733.893 M910.314 731.929 Q913.396 728.847 917.459 729.67 Q921.523 730.468 926.163 735.108 Q930.791 739.736 931.601 743.812 Q932.411 747.863 929.33 750.944 Q926.249 754.026 922.185 753.228 Q918.122 752.405 913.494 747.777 Q908.854 743.137 908.043 739.086 Q907.233 735.01 910.314 731.929 Z" fill="#000000" fill-rule="nonzero" fill-opacity="1" /><path clip-path="url(#clip000)" d="M936.548 736.778 L939.139 734.187 L942.257 737.306 L939.667 739.896 L936.548 736.778 Z" fill="#000000" fill-rule="nonzero" fill-opacity="1" /><path clip-path="url(#clip000)" d="M947.351 731.45 L945.093 729.191 Q946.468 728.7 947.658 727.976 Q948.849 727.251 949.77 726.331 Q952.225 723.876 951.869 720.942 Q951.513 717.983 948.334 714.435 Q948.677 716.203 948.149 717.86 Q947.622 719.518 946.296 720.843 Q943.546 723.593 940.28 723.544 Q937.015 723.47 934.13 720.586 Q931.307 717.762 931.27 714.386 Q931.233 711.01 934.007 708.236 Q937.187 705.056 941.299 705.83 Q945.412 706.579 950.052 711.219 Q954.386 715.552 954.914 720.205 Q955.441 724.833 951.967 728.307 Q951.034 729.24 949.893 730.014 Q948.751 730.787 947.351 731.45 M944.516 718.744 Q946.185 717.075 946.013 714.963 Q945.854 712.839 943.865 710.851 Q941.889 708.874 939.765 708.715 Q937.641 708.53 935.971 710.2 Q934.302 711.87 934.474 714.006 Q934.646 716.117 936.622 718.094 Q938.611 720.082 940.722 720.254 Q942.846 720.414 944.516 718.744 Z" fill="#000000" fill-rule="nonzero" fill-opacity="1" /><path clip-path="url(#clip000)" d="M952.262 693.91 Q950.347 695.825 951.268 698.685 Q952.188 701.521 955.969 705.302 Q959.738 709.071 962.586 710.004 Q965.434 710.912 967.349 708.997 Q969.277 707.07 968.356 704.234 Q967.435 701.373 963.666 697.605 Q959.885 693.824 957.037 692.915 Q954.189 691.982 952.262 693.91 M950.298 691.945 Q953.379 688.864 957.442 689.687 Q961.506 690.485 966.146 695.125 Q970.774 699.753 971.584 703.829 Q972.395 707.88 969.313 710.961 Q966.232 714.042 962.169 713.244 Q958.105 712.422 953.477 707.794 Q948.837 703.154 948.027 699.102 Q947.216 695.027 950.298 691.945 Z" fill="#000000" fill-rule="nonzero" fill-opacity="1" /><polyline clip-path="url(#clip000)" style="stroke:#000000; stroke-linecap:round; stroke-linejoin:round; stroke-width:4; stroke-opacity:1; fill:none" points="128.138,662.16 128.138,97.5521 "/>
<polyline clip-path="url(#clip000)" style="stroke:#000000; stroke-linecap:round; stroke-linejoin:round; stroke-width:4; stroke-opacity:1; fill:none" points="128.138,662.16 147.035,662.16 "/>
<polyline clip-path="url(#clip000)" style="stroke:#000000; stroke-linecap:round; stroke-linejoin:round; stroke-width:4; stroke-opacity:1; fill:none" points="128.138,561.337 147.035,561.337 "/>
<polyline clip-path="url(#clip000)" style="stroke:#000000; stroke-linecap:round; stroke-linejoin:round; stroke-width:4; stroke-opacity:1; fill:none" points="128.138,460.515 147.035,460.515 "/>
<polyline clip-path="url(#clip000)" style="stroke:#000000; stroke-linecap:round; stroke-linejoin:round; stroke-width:4; stroke-opacity:1; fill:none" points="128.138,359.692 147.035,359.692 "/>
<polyline clip-path="url(#clip000)" style="stroke:#000000; stroke-linecap:round; stroke-linejoin:round; stroke-width:4; stroke-opacity:1; fill:none" points="128.138,258.869 147.035,258.869 "/>
<polyline clip-path="url(#clip000)" style="stroke:#000000; stroke-linecap:round; stroke-linejoin:round; stroke-width:4; stroke-opacity:1; fill:none" points="128.138,158.046 147.035,158.046 "/>
<path clip-path="url(#clip000)" d="M83.1795 651.509 Q80.4711 651.509 79.0996 654.183 Q77.7455 656.839 77.7455 662.186 Q77.7455 667.516 79.0996 670.19 Q80.4711 672.846 83.1795 672.846 Q85.9051 672.846 87.2593 670.19 Q88.6308 667.516 88.6308 662.186 Q88.6308 656.839 87.2593 654.183 Q85.9051 651.509 83.1795 651.509 M83.1795 648.732 Q87.5371 648.732 89.8287 652.186 Q92.1377 655.624 92.1377 662.186 Q92.1377 668.732 89.8287 672.186 Q87.5371 675.624 83.1795 675.624 Q78.8218 675.624 76.5128 672.186 Q74.2212 668.732 74.2212 662.186 Q74.2212 655.624 76.5128 652.186 Q78.8218 648.732 83.1795 648.732 Z" fill="#000000" fill-rule="nonzero" fill-opacity="1" /><path clip-path="url(#clip000)" d="M53.6657 571.346 L59.3949 571.346 L59.3949 551.572 L53.1623 552.822 L53.1623 549.627 L59.3601 548.377 L62.8671 548.377 L62.8671 571.346 L68.5962 571.346 L68.5962 574.297 L53.6657 574.297 L53.6657 571.346 Z" fill="#000000" fill-rule="nonzero" fill-opacity="1" /><path clip-path="url(#clip000)" d="M83.1795 550.686 Q80.4711 550.686 79.0996 553.36 Q77.7455 556.016 77.7455 561.364 Q77.7455 566.693 79.0996 569.367 Q80.4711 572.023 83.1795 572.023 Q85.9051 572.023 87.2593 569.367 Q88.6308 566.693 88.6308 561.364 Q88.6308 556.016 87.2593 553.36 Q85.9051 550.686 83.1795 550.686 M83.1795 547.909 Q87.5371 547.909 89.8287 551.364 Q92.1377 554.801 92.1377 561.364 Q92.1377 567.909 89.8287 571.363 Q87.5371 574.801 83.1795 574.801 Q78.8218 574.801 76.5128 571.363 Q74.2212 567.909 74.2212 561.364 Q74.2212 554.801 76.5128 551.364 Q78.8218 547.909 83.1795 547.909 Z" fill="#000000" fill-rule="nonzero" fill-opacity="1" /><path clip-path="url(#clip000)" d="M56.0789 470.523 L68.3184 470.523 L68.3184 473.475 L51.8602 473.475 L51.8602 470.523 Q53.8567 468.457 57.2942 464.985 Q60.749 461.495 61.6344 460.489 Q63.3184 458.596 63.9782 457.294 Q64.6552 455.975 64.6552 454.707 Q64.6552 452.641 63.1969 451.339 Q61.756 450.037 59.4296 450.037 Q57.7803 450.037 55.94 450.61 Q54.1171 451.183 52.0338 452.346 L52.0338 448.805 Q54.1518 447.954 55.9921 447.52 Q57.8324 447.086 59.3601 447.086 Q63.3879 447.086 65.7837 449.1 Q68.1795 451.114 68.1795 454.482 Q68.1795 456.079 67.5719 457.52 Q66.9816 458.943 65.4018 460.888 Q64.9677 461.391 62.6414 463.804 Q60.315 466.2 56.0789 470.523 Z" fill="#000000" fill-rule="nonzero" fill-opacity="1" /><path clip-path="url(#clip000)" d="M83.1795 449.864 Q80.4711 449.864 79.0996 452.537 Q77.7455 455.193 77.7455 460.541 Q77.7455 465.87 79.0996 468.544 Q80.4711 471.2 83.1795 471.2 Q85.9051 471.2 87.2593 468.544 Q88.6308 465.87 88.6308 460.541 Q88.6308 455.193 87.2593 452.537 Q85.9051 449.864 83.1795 449.864 M83.1795 447.086 Q87.5371 447.086 89.8287 450.541 Q92.1377 453.978 92.1377 460.541 Q92.1377 467.086 89.8287 470.541 Q87.5371 473.978 83.1795 473.978 Q78.8218 473.978 76.5128 470.541 Q74.2212 467.086 74.2212 460.541 Q74.2212 453.978 76.5128 450.541 Q78.8218 447.086 83.1795 447.086 Z" fill="#000000" fill-rule="nonzero" fill-opacity="1" /><path clip-path="url(#clip000)" d="M63.683 358.676 Q66.2004 359.214 67.6066 360.916 Q69.0302 362.617 69.0302 365.117 Q69.0302 368.954 66.3913 371.054 Q63.7525 373.155 58.8914 373.155 Q57.2595 373.155 55.5234 372.825 Q53.8046 372.513 51.9643 371.87 L51.9643 368.485 Q53.4227 369.336 55.1588 369.77 Q56.8949 370.204 58.7872 370.204 Q62.0858 370.204 63.8046 368.902 Q65.5407 367.6 65.5407 365.117 Q65.5407 362.825 63.9261 361.541 Q62.3289 360.239 59.4643 360.239 L56.4435 360.239 L56.4435 357.357 L59.6032 357.357 Q62.19 357.357 63.5615 356.332 Q64.933 355.291 64.933 353.346 Q64.933 351.35 63.5094 350.291 Q62.1032 349.214 59.4643 349.214 Q58.0233 349.214 56.374 349.527 Q54.7247 349.839 52.7456 350.499 L52.7456 347.374 Q54.7421 346.818 56.4782 346.541 Q58.2317 346.263 59.7768 346.263 Q63.7698 346.263 66.0962 348.086 Q68.4226 349.891 68.4226 352.982 Q68.4226 355.134 67.19 356.627 Q65.9573 358.103 63.683 358.676 Z" fill="#000000" fill-rule="nonzero" fill-opacity="1" /><path clip-path="url(#clip000)" d="M83.1795 349.041 Q80.4711 349.041 79.0996 351.714 Q77.7455 354.371 77.7455 359.718 Q77.7455 365.048 79.0996 367.721 Q80.4711 370.377 83.1795 370.377 Q85.9051 370.377 87.2593 367.721 Q88.6308 365.048 88.6308 359.718 Q88.6308 354.371 87.2593 351.714 Q85.9051 349.041 83.1795 349.041 M83.1795 346.263 Q87.5371 346.263 89.8287 349.718 Q92.1377 353.155 92.1377 359.718 Q92.1377 366.263 89.8287 369.718 Q87.5371 373.155 83.1795 373.155 Q78.8218 373.155 76.5128 369.718 Q74.2212 366.263 74.2212 359.718 Q74.2212 353.155 76.5128 349.718 Q78.8218 346.263 83.1795 346.263 Z" fill="#000000" fill-rule="nonzero" fill-opacity="1" /><path clip-path="url(#clip000)" d="M62.6935 248.964 L53.8393 262.801 L62.6935 262.801 L62.6935 248.964 M61.7733 245.909 L66.183 245.909 L66.183 262.801 L69.8809 262.801 L69.8809 265.718 L66.183 265.718 L66.183 271.829 L62.6935 271.829 L62.6935 265.718 L50.9921 265.718 L50.9921 262.332 L61.7733 245.909 Z" fill="#000000" fill-rule="nonzero" fill-opacity="1" /><path clip-path="url(#clip000)" d="M83.1795 248.218 Q80.4711 248.218 79.0996 250.891 Q77.7455 253.548 77.7455 258.895 Q77.7455 264.225 79.0996 266.898 Q80.4711 269.554 83.1795 269.554 Q85.9051 269.554 87.2593 266.898 Q88.6308 264.225 88.6308 258.895 Q88.6308 253.548 87.2593 250.891 Q85.9051 248.218 83.1795 248.218 M83.1795 245.44 Q87.5371 245.44 89.8287 248.895 Q92.1377 252.332 92.1377 258.895 Q92.1377 265.44 89.8287 268.895 Q87.5371 272.332 83.1795 272.332 Q78.8218 272.332 76.5128 268.895 Q74.2212 265.44 74.2212 258.895 Q74.2212 252.332 76.5128 248.895 Q78.8218 245.44 83.1795 245.44 Z" fill="#000000" fill-rule="nonzero" fill-opacity="1" /><path clip-path="url(#clip000)" d="M53.0928 145.086 L66.8601 145.086 L66.8601 148.037 L56.3046 148.037 L56.3046 154.391 Q57.0685 154.131 57.8324 154.009 Q58.5963 153.871 59.3601 153.871 Q63.7004 153.871 66.2351 156.249 Q68.7698 158.627 68.7698 162.69 Q68.7698 166.874 66.1657 169.2 Q63.5615 171.509 58.8219 171.509 Q57.19 171.509 55.4886 171.232 Q53.8046 170.954 51.9991 170.398 L51.9991 166.874 Q53.5616 167.725 55.2282 168.141 Q56.8949 168.558 58.7525 168.558 Q61.756 168.558 63.5094 166.978 Q65.2629 165.398 65.2629 162.69 Q65.2629 159.982 63.5094 158.402 Q61.756 156.822 58.7525 156.822 Q57.3463 156.822 55.94 157.134 Q54.5511 157.447 53.0928 158.107 L53.0928 145.086 Z" fill="#000000" fill-rule="nonzero" fill-opacity="1" /><path clip-path="url(#clip000)" d="M83.1795 147.395 Q80.4711 147.395 79.0996 150.068 Q77.7455 152.725 77.7455 158.072 Q77.7455 163.402 79.0996 166.075 Q80.4711 168.732 83.1795 168.732 Q85.9051 168.732 87.2593 166.075 Q88.6308 163.402 88.6308 158.072 Q88.6308 152.725 87.2593 150.068 Q85.9051 147.395 83.1795 147.395 M83.1795 144.617 Q87.5371 144.617 89.8287 148.072 Q92.1377 151.509 92.1377 158.072 Q92.1377 164.617 89.8287 168.072 Q87.5371 171.509 83.1795 171.509 Q78.8218 171.509 76.5128 168.072 Q74.2212 164.617 74.2212 158.072 Q74.2212 151.509 76.5128 148.072 Q78.8218 144.617 83.1795 144.617 Z" fill="#000000" fill-rule="nonzero" fill-opacity="1" /><path clip-path="url(#clip000)" d="M130.221 20.1758 Q131.633 17.8147 135.128 15.7314 Q136.494 14.9212 140.707 14.9212 Q145.429 14.9212 148.369 18.6712 Q151.332 22.4212 151.332 28.5323 Q151.332 34.6433 148.369 38.3933 Q145.429 42.1433 140.707 42.1433 Q137.86 42.1433 135.8 41.0322 Q133.763 39.8979 132.42 37.5831 L132.42 51.3331 L128.138 51.3331 L128.138 28.7637 Q128.138 23.4165 130.221 20.1758 M146.911 28.5323 Q146.911 23.8332 144.966 21.1712 Q143.045 18.486 139.665 18.486 Q136.286 18.486 134.341 21.1712 Q132.42 23.8332 132.42 28.5323 Q132.42 33.2313 134.341 35.9165 Q136.286 38.5785 139.665 38.5785 Q143.045 38.5785 144.966 35.9165 Q146.911 33.2313 146.911 28.5323 Z" fill="#000000" fill-rule="nonzero" fill-opacity="1" /><path clip-path="url(#clip002)" d="M184.494 531.091 L184.494 662.16 L314.766 662.16 L314.766 531.091 L184.494 531.091 L184.494 531.091  Z" fill="#009af9" fill-rule="evenodd" fill-opacity="1"/>
<polyline clip-path="url(#clip002)" style="stroke:#000000; stroke-linecap:round; stroke-linejoin:round; stroke-width:4; stroke-opacity:1; fill:none" points="184.494,531.091 184.494,662.16 314.766,662.16 314.766,531.091 184.494,531.091 "/>
<path clip-path="url(#clip002)" d="M314.766 521.008 L314.766 662.16 L445.038 662.16 L445.038 521.008 L314.766 521.008 L314.766 521.008  Z" fill="#009af9" fill-rule="evenodd" fill-opacity="1"/>
<polyline clip-path="url(#clip002)" style="stroke:#000000; stroke-linecap:round; stroke-linejoin:round; stroke-width:4; stroke-opacity:1; fill:none" points="314.766,521.008 314.766,662.16 445.038,662.16 445.038,521.008 314.766,521.008 "/>
<path clip-path="url(#clip002)" d="M445.038 238.704 L445.038 662.16 L575.311 662.16 L575.311 238.704 L445.038 238.704 L445.038 238.704  Z" fill="#009af9" fill-rule="evenodd" fill-opacity="1"/>
<polyline clip-path="url(#clip002)" style="stroke:#000000; stroke-linecap:round; stroke-linejoin:round; stroke-width:4; stroke-opacity:1; fill:none" points="445.038,238.704 445.038,662.16 575.311,662.16 575.311,238.704 445.038,238.704 "/>
<path clip-path="url(#clip002)" d="M575.311 147.964 L575.311 662.16 L705.583 662.16 L705.583 147.964 L575.311 147.964 L575.311 147.964  Z" fill="#009af9" fill-rule="evenodd" fill-opacity="1"/>
<polyline clip-path="url(#clip002)" style="stroke:#000000; stroke-linecap:round; stroke-linejoin:round; stroke-width:4; stroke-opacity:1; fill:none" points="575.311,147.964 575.311,662.16 705.583,662.16 705.583,147.964 575.311,147.964 "/>
<path clip-path="url(#clip002)" d="M705.583 97.5521 L705.583 662.16 L835.855 662.16 L835.855 97.5521 L705.583 97.5521 L705.583 97.5521  Z" fill="#009af9" fill-rule="evenodd" fill-opacity="1"/>
<polyline clip-path="url(#clip002)" style="stroke:#000000; stroke-linecap:round; stroke-linejoin:round; stroke-width:4; stroke-opacity:1; fill:none" points="705.583,97.5521 705.583,662.16 835.855,662.16 835.855,97.5521 705.583,97.5521 "/>
<path clip-path="url(#clip002)" d="M835.855 329.445 L835.855 662.16 L966.128 662.16 L966.128 329.445 L835.855 329.445 L835.855 329.445  Z" fill="#009af9" fill-rule="evenodd" fill-opacity="1"/>
<polyline clip-path="url(#clip002)" style="stroke:#000000; stroke-linecap:round; stroke-linejoin:round; stroke-width:4; stroke-opacity:1; fill:none" points="835.855,329.445 835.855,662.16 966.128,662.16 966.128,329.445 835.855,329.445 "/>
<path clip-path="url(#clip002)" d="M966.128 541.173 L966.128 662.16 L1096.4 662.16 L1096.4 541.173 L966.128 541.173 L966.128 541.173  Z" fill="#009af9" fill-rule="evenodd" fill-opacity="1"/>
<polyline clip-path="url(#clip002)" style="stroke:#000000; stroke-linecap:round; stroke-linejoin:round; stroke-width:4; stroke-opacity:1; fill:none" points="966.128,541.173 966.128,662.16 1096.4,662.16 1096.4,541.173 966.128,541.173 "/>
<circle clip-path="url(#clip002)" style="fill:#009af9; stroke:none; fill-opacity:0" cx="249.63" cy="531.091" r="2"/>
<circle clip-path="url(#clip002)" style="fill:#009af9; stroke:none; fill-opacity:0" cx="379.902" cy="521.008" r="2"/>
<circle clip-path="url(#clip002)" style="fill:#009af9; stroke:none; fill-opacity:0" cx="510.174" cy="238.704" r="2"/>
<circle clip-path="url(#clip002)" style="fill:#009af9; stroke:none; fill-opacity:0" cx="640.447" cy="147.964" r="2"/>
<circle clip-path="url(#clip002)" style="fill:#009af9; stroke:none; fill-opacity:0" cx="770.719" cy="97.5521" r="2"/>
<circle clip-path="url(#clip002)" style="fill:#009af9; stroke:none; fill-opacity:0" cx="900.992" cy="329.445" r="2"/>
<circle clip-path="url(#clip002)" style="fill:#009af9; stroke:none; fill-opacity:0" cx="1031.26" cy="541.173" r="2"/>
<polyline clip-path="url(#clip002)" style="stroke:#ff0000; stroke-linecap:round; stroke-linejoin:round; stroke-width:8; stroke-opacity:1; fill:none" stroke-dasharray="32, 20" points="706.28,1226.77 706.28,-467.056 "/>
<polyline clip-path="url(#clip002)" style="stroke:#ff0000; stroke-linecap:round; stroke-linejoin:round; stroke-width:6; stroke-opacity:1; fill:none" stroke-dasharray="24, 12, 3, 12" points="209.206,1226.77 209.206,-467.056 "/>
<polyline clip-path="url(#clip002)" style="stroke:#ff0000; stroke-linecap:round; stroke-linejoin:round; stroke-width:6; stroke-opacity:1; fill:none" stroke-dasharray="24, 12, 3, 12" points="1000.62,1226.77 1000.62,-467.056 "/>
<path clip-path="url(#clip000)" d="M1328.14 662.16 L2352.76 662.16 L2352.76 97.5521 L1328.14 97.5521  Z" fill="#ffffff" fill-rule="evenodd" fill-opacity="1"/>
<defs>
  <clipPath id="clip003">
    <rect x="1328" y="97" width="1026" height="566"/>
  </clipPath>
</defs>
<polyline clip-path="url(#clip003)" style="stroke:#000000; stroke-linecap:round; stroke-linejoin:round; stroke-width:2; stroke-opacity:0.1; fill:none" points="1384.49,662.16 1384.49,97.5521 "/>
<polyline clip-path="url(#clip003)" style="stroke:#000000; stroke-linecap:round; stroke-linejoin:round; stroke-width:2; stroke-opacity:0.1; fill:none" points="1566.87,662.16 1566.87,97.5521 "/>
<polyline clip-path="url(#clip003)" style="stroke:#000000; stroke-linecap:round; stroke-linejoin:round; stroke-width:2; stroke-opacity:0.1; fill:none" points="1749.26,662.16 1749.26,97.5521 "/>
<polyline clip-path="url(#clip003)" style="stroke:#000000; stroke-linecap:round; stroke-linejoin:round; stroke-width:2; stroke-opacity:0.1; fill:none" points="1931.64,662.16 1931.64,97.5521 "/>
<polyline clip-path="url(#clip003)" style="stroke:#000000; stroke-linecap:round; stroke-linejoin:round; stroke-width:2; stroke-opacity:0.1; fill:none" points="2114.02,662.16 2114.02,97.5521 "/>
<polyline clip-path="url(#clip003)" style="stroke:#000000; stroke-linecap:round; stroke-linejoin:round; stroke-width:2; stroke-opacity:0.1; fill:none" points="2296.4,662.16 2296.4,97.5521 "/>
<polyline clip-path="url(#clip003)" style="stroke:#000000; stroke-linecap:round; stroke-linejoin:round; stroke-width:2; stroke-opacity:0.1; fill:none" points="1328.14,662.16 2352.76,662.16 "/>
<polyline clip-path="url(#clip003)" style="stroke:#000000; stroke-linecap:round; stroke-linejoin:round; stroke-width:2; stroke-opacity:0.1; fill:none" points="1328.14,503.116 2352.76,503.116 "/>
<polyline clip-path="url(#clip003)" style="stroke:#000000; stroke-linecap:round; stroke-linejoin:round; stroke-width:2; stroke-opacity:0.1; fill:none" points="1328.14,344.071 2352.76,344.071 "/>
<polyline clip-path="url(#clip003)" style="stroke:#000000; stroke-linecap:round; stroke-linejoin:round; stroke-width:2; stroke-opacity:0.1; fill:none" points="1328.14,185.027 2352.76,185.027 "/>
<polyline clip-path="url(#clip000)" style="stroke:#000000; stroke-linecap:round; stroke-linejoin:round; stroke-width:4; stroke-opacity:1; fill:none" points="1328.14,662.16 2352.76,662.16 "/>
<polyline clip-path="url(#clip000)" style="stroke:#000000; stroke-linecap:round; stroke-linejoin:round; stroke-width:4; stroke-opacity:1; fill:none" points="1384.49,662.16 1384.49,643.263 "/>
<polyline clip-path="url(#clip000)" style="stroke:#000000; stroke-linecap:round; stroke-linejoin:round; stroke-width:4; stroke-opacity:1; fill:none" points="1566.87,662.16 1566.87,643.263 "/>
<polyline clip-path="url(#clip000)" style="stroke:#000000; stroke-linecap:round; stroke-linejoin:round; stroke-width:4; stroke-opacity:1; fill:none" points="1749.26,662.16 1749.26,643.263 "/>
<polyline clip-path="url(#clip000)" style="stroke:#000000; stroke-linecap:round; stroke-linejoin:round; stroke-width:4; stroke-opacity:1; fill:none" points="1931.64,662.16 1931.64,643.263 "/>
<polyline clip-path="url(#clip000)" style="stroke:#000000; stroke-linecap:round; stroke-linejoin:round; stroke-width:4; stroke-opacity:1; fill:none" points="2114.02,662.16 2114.02,643.263 "/>
<polyline clip-path="url(#clip000)" style="stroke:#000000; stroke-linecap:round; stroke-linejoin:round; stroke-width:4; stroke-opacity:1; fill:none" points="2296.4,662.16 2296.4,643.263 "/>
<path clip-path="url(#clip000)" d="M1330.64 733.893 Q1328.73 735.808 1329.65 738.668 Q1330.57 741.504 1334.35 745.285 Q1338.12 749.054 1340.97 749.987 Q1343.82 750.895 1345.73 748.98 Q1347.66 747.053 1346.74 744.217 Q1345.82 741.357 1342.05 737.588 Q1338.27 733.807 1335.42 732.898 Q1332.57 731.966 1330.64 733.893 M1328.68 731.929 Q1331.76 728.847 1335.82 729.67 Q1339.89 730.468 1344.53 735.108 Q1349.16 739.736 1349.97 743.812 Q1350.78 747.863 1347.7 750.944 Q1344.61 754.026 1340.55 753.228 Q1336.49 752.405 1331.86 747.777 Q1327.22 743.137 1326.41 739.086 Q1325.6 735.01 1328.68 731.929 Z" fill="#000000" fill-rule="nonzero" fill-opacity="1" /><path clip-path="url(#clip000)" d="M1354.91 736.778 L1357.5 734.187 L1360.62 737.306 L1358.03 739.896 L1354.91 736.778 Z" fill="#000000" fill-rule="nonzero" fill-opacity="1" /><path clip-path="url(#clip000)" d="M1363.65 714.509 Q1365.82 713.109 1368.01 713.318 Q1370.22 713.515 1371.99 715.282 Q1374.7 717.995 1374.32 721.347 Q1373.94 724.698 1370.5 728.135 Q1369.35 729.289 1367.89 730.284 Q1366.45 731.278 1364.7 732.125 L1362.3 729.731 Q1363.94 729.302 1365.47 728.381 Q1367.01 727.46 1368.34 726.122 Q1370.68 723.79 1370.97 721.654 Q1371.28 719.505 1369.52 717.75 Q1367.9 716.129 1365.85 716.363 Q1363.8 716.571 1361.78 718.597 L1359.64 720.733 L1357.6 718.695 L1359.84 716.461 Q1361.67 714.632 1361.91 712.938 Q1362.14 711.231 1360.77 709.856 Q1359.36 708.445 1357.6 708.702 Q1355.85 708.936 1353.98 710.802 Q1352.96 711.82 1352.02 713.208 Q1351.07 714.595 1350.14 716.461 L1347.93 714.251 Q1348.95 712.447 1349.98 711.022 Q1351.02 709.586 1352.12 708.494 Q1354.94 705.67 1357.87 705.314 Q1360.79 704.946 1362.98 707.131 Q1364.5 708.653 1364.69 710.581 Q1364.86 712.496 1363.65 714.509 Z" fill="#000000" fill-rule="nonzero" fill-opacity="1" /><path clip-path="url(#clip000)" d="M1370.63 693.91 Q1368.71 695.825 1369.63 698.685 Q1370.55 701.521 1374.34 705.302 Q1378.1 709.071 1380.95 710.004 Q1383.8 710.912 1385.72 708.997 Q1387.64 707.07 1386.72 704.234 Q1385.8 701.373 1382.03 697.605 Q1378.25 693.824 1375.4 692.915 Q1372.56 691.982 1370.63 693.91 M1368.66 691.945 Q1371.74 688.864 1375.81 689.687 Q1379.87 690.485 1384.51 695.125 Q1389.14 699.753 1389.95 703.829 Q1390.76 707.88 1387.68 710.961 Q1384.6 714.042 1380.53 713.244 Q1376.47 712.422 1371.84 707.794 Q1367.2 703.154 1366.39 699.102 Q1365.58 695.027 1368.66 691.945 Z" fill="#000000" fill-rule="nonzero" fill-opacity="1" /><path clip-path="url(#clip000)" d="M1513.68 733.242 Q1511.76 735.157 1512.68 738.018 Q1513.6 740.853 1517.38 744.634 Q1521.15 748.403 1524 749.336 Q1526.85 750.245 1528.76 748.33 Q1530.69 746.402 1529.77 743.566 Q1528.85 740.706 1525.08 736.937 Q1521.3 733.156 1518.45 732.248 Q1515.6 731.315 1513.68 733.242 M1511.71 731.278 Q1514.79 728.197 1518.86 729.019 Q1522.92 729.817 1527.56 734.458 Q1532.19 739.086 1533 743.161 Q1533.81 747.212 1530.73 750.294 Q1527.65 753.375 1523.58 752.577 Q1519.52 751.755 1514.89 747.126 Q1510.25 742.486 1509.44 738.435 Q1508.63 734.359 1511.71 731.278 Z" fill="#000000" fill-rule="nonzero" fill-opacity="1" /><path clip-path="url(#clip000)" d="M1537.95 736.127 L1540.54 733.537 L1543.65 736.655 L1541.06 739.245 L1537.95 736.127 Z" fill="#000000" fill-rule="nonzero" fill-opacity="1" /><path clip-path="url(#clip000)" d="M1546.69 713.858 Q1548.85 712.459 1551.04 712.667 Q1553.25 712.864 1555.02 714.632 Q1557.74 717.345 1557.35 720.696 Q1556.97 724.047 1553.54 727.485 Q1552.38 728.639 1550.92 729.633 Q1549.49 730.627 1547.73 731.474 L1545.34 729.081 Q1546.97 728.651 1548.5 727.73 Q1550.04 726.81 1551.38 725.471 Q1553.71 723.139 1554 721.003 Q1554.31 718.855 1552.55 717.099 Q1550.93 715.479 1548.88 715.712 Q1546.83 715.921 1544.81 717.946 L1542.67 720.082 L1540.63 718.044 L1542.87 715.81 Q1544.7 713.981 1544.94 712.287 Q1545.18 710.581 1543.8 709.206 Q1542.39 707.794 1540.63 708.052 Q1538.88 708.285 1537.01 710.151 Q1535.99 711.17 1535.05 712.557 Q1534.1 713.944 1533.17 715.81 L1530.96 713.6 Q1531.98 711.796 1533.01 710.372 Q1534.05 708.936 1535.15 707.843 Q1537.97 705.019 1540.9 704.663 Q1543.83 704.295 1546.01 706.48 Q1547.53 708.003 1547.72 709.93 Q1547.89 711.845 1546.69 713.858 Z" fill="#000000" fill-rule="nonzero" fill-opacity="1" /><path clip-path="url(#clip000)" d="M1563.39 712.741 L1567.45 708.69 L1553.46 694.708 L1549.94 699.999 L1547.68 697.74 L1551.18 692.473 L1553.66 689.994 L1569.9 706.235 L1573.95 702.184 L1576.04 704.271 L1565.48 714.828 L1563.39 712.741 Z" fill="#000000" fill-rule="nonzero" fill-opacity="1" /><path clip-path="url(#clip000)" d="M1696.25 733.046 Q1694.34 734.961 1695.26 737.821 Q1696.18 740.657 1699.96 744.438 Q1703.73 748.207 1706.58 749.14 Q1709.43 750.048 1711.34 748.133 Q1713.27 746.206 1712.35 743.37 Q1711.43 740.51 1707.66 736.741 Q1703.88 732.96 1701.03 732.051 Q1698.18 731.118 1696.25 733.046 M1694.29 731.082 Q1697.37 728 1701.43 728.823 Q1705.5 729.621 1710.14 734.261 Q1714.77 738.889 1715.58 742.965 Q1716.39 747.016 1713.31 750.097 Q1710.22 753.179 1706.16 752.381 Q1702.1 751.558 1697.47 746.93 Q1692.83 742.29 1692.02 738.239 Q1691.21 734.163 1694.29 731.082 Z" fill="#000000" fill-rule="nonzero" fill-opacity="1" /><path clip-path="url(#clip000)" d="M1720.52 735.931 L1723.11 733.34 L1726.23 736.459 L1723.64 739.049 L1720.52 735.931 Z" fill="#000000" fill-rule="nonzero" fill-opacity="1" /><path clip-path="url(#clip000)" d="M1729.26 713.662 Q1731.43 712.262 1733.62 712.471 Q1735.83 712.667 1737.6 714.435 Q1740.31 717.148 1739.93 720.5 Q1739.55 723.851 1736.11 727.288 Q1734.96 728.442 1733.5 729.437 Q1732.06 730.431 1730.31 731.278 L1727.91 728.884 Q1729.55 728.455 1731.08 727.534 Q1732.62 726.613 1733.95 725.275 Q1736.29 722.943 1736.58 720.807 Q1736.89 718.658 1735.13 716.903 Q1733.51 715.282 1731.46 715.516 Q1729.41 715.724 1727.39 717.75 L1725.25 719.886 L1723.21 717.848 L1725.45 715.614 Q1727.28 713.785 1727.52 712.091 Q1727.75 710.384 1726.38 709.009 Q1724.97 707.597 1723.21 707.855 Q1721.46 708.088 1719.59 709.954 Q1718.57 710.973 1717.63 712.361 Q1716.68 713.748 1715.75 715.614 L1713.54 713.404 Q1714.56 711.599 1715.59 710.175 Q1716.63 708.739 1717.73 707.647 Q1720.55 704.823 1723.48 704.467 Q1726.4 704.099 1728.59 706.284 Q1730.11 707.806 1730.3 709.733 Q1730.47 711.649 1729.26 713.662 Z" fill="#000000" fill-rule="nonzero" fill-opacity="1" /><path clip-path="url(#clip000)" d="M1747.68 710.838 L1756.33 702.184 L1758.42 704.271 L1746.78 715.908 L1744.7 713.821 Q1744.65 710.949 1744.62 706.063 Q1744.6 701.153 1744.51 699.814 Q1744.36 697.286 1743.91 695.898 Q1743.46 694.487 1742.56 693.59 Q1741.1 692.13 1739.15 692.24 Q1737.21 692.338 1735.56 693.983 Q1734.4 695.149 1733.5 696.856 Q1732.62 698.55 1731.97 700.846 L1729.46 698.341 Q1730.36 696.242 1731.35 694.634 Q1732.35 693.026 1733.43 691.945 Q1736.27 689.097 1739.39 688.827 Q1742.51 688.557 1744.89 690.939 Q1746.02 692.068 1746.61 693.517 Q1747.2 694.941 1747.46 697.433 Q1747.51 698.096 1747.57 701.447 Q1747.62 704.786 1747.68 710.838 Z" fill="#000000" fill-rule="nonzero" fill-opacity="1" /><path clip-path="url(#clip000)" d="M1878.13 733.549 Q1876.22 735.464 1877.14 738.325 Q1878.06 741.16 1881.84 744.941 Q1885.61 748.71 1888.46 749.643 Q1891.3 750.552 1893.22 748.636 Q1895.15 746.709 1894.23 743.873 Q1893.31 741.013 1889.54 737.244 Q1885.76 733.463 1882.91 732.555 Q1880.06 731.622 1878.13 733.549 M1876.17 731.585 Q1879.25 728.504 1883.31 729.326 Q1887.38 730.124 1892.02 734.764 Q1896.64 739.393 1897.45 743.468 Q1898.26 747.519 1895.18 750.601 Q1892.1 753.682 1888.04 752.884 Q1883.98 752.061 1879.35 747.433 Q1874.71 742.793 1873.9 738.742 Q1873.09 734.666 1876.17 731.585 Z" fill="#000000" fill-rule="nonzero" fill-opacity="1" /><path clip-path="url(#clip000)" d="M1902.4 736.434 L1904.99 733.844 L1908.11 736.962 L1905.52 739.552 L1902.4 736.434 Z" fill="#000000" fill-rule="nonzero" fill-opacity="1" /><path clip-path="url(#clip000)" d="M1911.14 714.165 Q1913.3 712.766 1915.5 712.974 Q1917.71 713.171 1919.48 714.939 Q1922.19 717.652 1921.81 721.003 Q1921.43 724.354 1917.99 727.792 Q1916.84 728.946 1915.38 729.94 Q1913.94 730.934 1912.19 731.781 L1909.79 729.388 Q1911.42 728.958 1912.96 728.037 Q1914.49 727.116 1915.83 725.778 Q1918.16 723.446 1918.46 721.31 Q1918.77 719.162 1917.01 717.406 Q1915.39 715.786 1913.34 716.019 Q1911.29 716.228 1909.26 718.253 L1907.13 720.389 L1905.09 718.351 L1907.32 716.117 Q1909.15 714.288 1909.4 712.594 Q1909.63 710.887 1908.26 709.513 Q1906.85 708.101 1905.09 708.359 Q1903.33 708.592 1901.47 710.458 Q1900.45 711.477 1899.5 712.864 Q1898.56 714.251 1897.63 716.117 L1895.42 713.907 Q1896.44 712.103 1897.47 710.679 Q1898.51 709.242 1899.6 708.15 Q1902.43 705.326 1905.36 704.97 Q1908.28 704.602 1910.47 706.787 Q1911.99 708.309 1912.17 710.237 Q1912.35 712.152 1911.14 714.165 Z" fill="#000000" fill-rule="nonzero" fill-opacity="1" /><path clip-path="url(#clip000)" d="M1927.14 698.169 Q1929.3 696.77 1931.5 696.979 Q1933.71 697.175 1935.47 698.943 Q1938.19 701.656 1937.81 705.007 Q1937.43 708.359 1933.99 711.796 Q1932.83 712.95 1931.37 713.944 Q1929.94 714.939 1928.18 715.786 L1925.79 713.392 Q1927.42 712.962 1928.96 712.041 Q1930.49 711.121 1931.83 709.783 Q1934.16 707.45 1934.45 705.314 Q1934.76 703.166 1933.01 701.41 Q1931.39 699.79 1929.34 700.023 Q1927.29 700.232 1925.26 702.257 L1923.12 704.393 L1921.09 702.356 L1923.32 700.121 Q1925.15 698.292 1925.4 696.598 Q1925.63 694.892 1924.25 693.517 Q1922.84 692.105 1921.09 692.363 Q1919.33 692.596 1917.46 694.462 Q1916.45 695.481 1915.5 696.868 Q1914.56 698.255 1913.62 700.121 L1911.41 697.912 Q1912.43 696.107 1913.46 694.683 Q1914.51 693.247 1915.6 692.154 Q1918.42 689.331 1921.36 688.975 Q1924.28 688.606 1926.46 690.791 Q1927.99 692.314 1928.17 694.241 Q1928.34 696.156 1927.14 698.169 Z" fill="#000000" fill-rule="nonzero" fill-opacity="1" /><path clip-path="url(#clip000)" d="M2059.91 734.151 Q2058 736.066 2058.92 738.926 Q2059.84 741.762 2063.62 745.543 Q2067.39 749.312 2070.24 750.245 Q2073.08 751.153 2075 749.238 Q2076.93 747.311 2076.01 744.475 Q2075.09 741.615 2071.32 737.846 Q2067.54 734.065 2064.69 733.156 Q2061.84 732.223 2059.91 734.151 M2057.95 732.186 Q2061.03 729.105 2065.09 729.928 Q2069.16 730.726 2073.8 735.366 Q2078.42 739.994 2079.23 744.07 Q2080.04 748.121 2076.96 751.202 Q2073.88 754.283 2069.82 753.485 Q2065.76 752.663 2061.13 748.035 Q2056.49 743.395 2055.68 739.343 Q2054.87 735.268 2057.95 732.186 Z" fill="#000000" fill-rule="nonzero" fill-opacity="1" /><path clip-path="url(#clip000)" d="M2084.18 737.036 L2086.77 734.445 L2089.89 737.563 L2087.3 740.154 L2084.18 737.036 Z" fill="#000000" fill-rule="nonzero" fill-opacity="1" /><path clip-path="url(#clip000)" d="M2092.92 714.767 Q2095.08 713.367 2097.28 713.576 Q2099.49 713.772 2101.26 715.54 Q2103.97 718.253 2103.59 721.604 Q2103.21 724.956 2099.77 728.393 Q2098.62 729.547 2097.16 730.541 Q2095.72 731.536 2093.97 732.383 L2091.57 729.989 Q2093.2 729.559 2094.74 728.639 Q2096.27 727.718 2097.61 726.38 Q2099.94 724.047 2100.24 721.911 Q2100.55 719.763 2098.79 718.008 Q2097.17 716.387 2095.12 716.62 Q2093.07 716.829 2091.04 718.855 L2088.91 720.991 L2086.87 718.953 L2089.1 716.719 Q2090.93 714.889 2091.18 713.195 Q2091.41 711.489 2090.04 710.114 Q2088.63 708.702 2086.87 708.96 Q2085.11 709.193 2083.25 711.059 Q2082.23 712.078 2081.28 713.465 Q2080.34 714.853 2079.41 716.719 L2077.2 714.509 Q2078.22 712.704 2079.25 711.28 Q2080.29 709.844 2081.38 708.751 Q2084.21 705.928 2087.14 705.572 Q2090.06 705.204 2092.25 707.389 Q2093.77 708.911 2093.95 710.838 Q2094.13 712.753 2092.92 714.767 Z" fill="#000000" fill-rule="nonzero" fill-opacity="1" /><path clip-path="url(#clip000)" d="M2101.93 693.185 L2105.46 709.23 L2111.72 702.969 L2101.93 693.185 M2099.12 691.675 L2102.24 688.557 L2114.18 700.502 L2116.8 697.887 L2118.86 699.949 L2116.25 702.564 L2120.57 706.885 L2118.1 709.353 L2113.78 705.032 L2105.51 713.306 L2103.11 710.912 L2099.12 691.675 Z" fill="#000000" fill-rule="nonzero" fill-opacity="1" /><path clip-path="url(#clip000)" d="M2243.08 733.365 Q2241.16 735.28 2242.08 738.14 Q2243.01 740.976 2246.79 744.757 Q2250.56 748.526 2253.4 749.459 Q2256.25 750.367 2258.17 748.452 Q2260.09 746.525 2259.17 743.689 Q2258.25 740.829 2254.48 737.06 Q2250.7 733.279 2247.85 732.371 Q2245.01 731.438 2243.08 733.365 M2241.11 731.401 Q2244.2 728.32 2248.26 729.142 Q2252.32 729.94 2256.96 734.58 Q2261.59 739.208 2262.4 743.284 Q2263.21 747.335 2260.13 750.416 Q2257.05 753.498 2252.99 752.7 Q2248.92 751.877 2244.29 747.249 Q2239.65 742.609 2238.84 738.558 Q2238.03 734.482 2241.11 731.401 Z" fill="#000000" fill-rule="nonzero" fill-opacity="1" /><path clip-path="url(#clip000)" d="M2267.35 736.25 L2269.94 733.66 L2273.06 736.778 L2270.47 739.368 L2267.35 736.25 Z" fill="#000000" fill-rule="nonzero" fill-opacity="1" /><path clip-path="url(#clip000)" d="M2276.09 713.981 Q2278.25 712.582 2280.45 712.79 Q2282.66 712.987 2284.42 714.754 Q2287.14 717.467 2286.76 720.819 Q2286.38 724.17 2282.94 727.607 Q2281.79 728.761 2280.32 729.756 Q2278.89 730.75 2277.13 731.597 L2274.74 729.203 Q2276.37 728.774 2277.91 727.853 Q2279.44 726.932 2280.78 725.594 Q2283.11 723.262 2283.41 721.126 Q2283.71 718.977 2281.96 717.222 Q2280.34 715.601 2278.29 715.835 Q2276.24 716.043 2274.21 718.069 L2272.08 720.205 L2270.04 718.167 L2272.27 715.933 Q2274.1 714.104 2274.35 712.41 Q2274.58 710.703 2273.2 709.328 Q2271.79 707.917 2270.04 708.174 Q2268.28 708.408 2266.42 710.274 Q2265.4 711.293 2264.45 712.68 Q2263.51 714.067 2262.57 715.933 L2260.36 713.723 Q2261.38 711.919 2262.41 710.495 Q2263.46 709.058 2264.55 707.966 Q2267.37 705.142 2270.31 704.786 Q2273.23 704.418 2275.41 706.603 Q2276.94 708.125 2277.12 710.053 Q2277.29 711.968 2276.09 713.981 Z" fill="#000000" fill-rule="nonzero" fill-opacity="1" /><path clip-path="url(#clip000)" d="M2276.15 697.028 L2285.89 687.293 L2287.97 689.38 L2280.51 696.844 L2285 701.337 Q2285.36 700.612 2285.81 699.986 Q2286.25 699.348 2286.79 698.808 Q2289.86 695.739 2293.34 695.628 Q2296.81 695.518 2299.68 698.39 Q2302.64 701.349 2302.45 704.835 Q2302.24 708.309 2298.89 711.661 Q2297.73 712.815 2296.33 713.821 Q2294.95 714.816 2293.28 715.7 L2290.78 713.208 Q2292.49 712.704 2293.96 711.82 Q2295.44 710.937 2296.75 709.623 Q2298.87 707.499 2299 705.142 Q2299.12 702.785 2297.2 700.87 Q2295.29 698.955 2292.93 699.078 Q2290.58 699.201 2288.45 701.324 Q2287.46 702.319 2286.68 703.534 Q2285.92 704.737 2285.36 706.235 L2276.15 697.028 Z" fill="#000000" fill-rule="nonzero" fill-opacity="1" /><polyline clip-path="url(#clip000)" style="stroke:#000000; stroke-linecap:round; stroke-linejoin:round; stroke-width:4; stroke-opacity:1; fill:none" points="1328.14,662.16 1328.14,97.5521 "/>
<polyline clip-path="url(#clip000)" style="stroke:#000000; stroke-linecap:round; stroke-linejoin:round; stroke-width:4; stroke-opacity:1; fill:none" points="1328.14,662.16 1347.04,662.16 "/>
<polyline clip-path="url(#clip000)" style="stroke:#000000; stroke-linecap:round; stroke-linejoin:round; stroke-width:4; stroke-opacity:1; fill:none" points="1328.14,503.116 1347.04,503.116 "/>
<polyline clip-path="url(#clip000)" style="stroke:#000000; stroke-linecap:round; stroke-linejoin:round; stroke-width:4; stroke-opacity:1; fill:none" points="1328.14,344.071 1347.04,344.071 "/>
<polyline clip-path="url(#clip000)" style="stroke:#000000; stroke-linecap:round; stroke-linejoin:round; stroke-width:4; stroke-opacity:1; fill:none" points="1328.14,185.027 1347.04,185.027 "/>
<path clip-path="url(#clip000)" d="M1283.18 651.509 Q1280.47 651.509 1279.1 654.183 Q1277.75 656.839 1277.75 662.186 Q1277.75 667.516 1279.1 670.19 Q1280.47 672.846 1283.18 672.846 Q1285.91 672.846 1287.26 670.19 Q1288.63 667.516 1288.63 662.186 Q1288.63 656.839 1287.26 654.183 Q1285.91 651.509 1283.18 651.509 M1283.18 648.732 Q1287.54 648.732 1289.83 652.186 Q1292.14 655.624 1292.14 662.186 Q1292.14 668.732 1289.83 672.186 Q1287.54 675.624 1283.18 675.624 Q1278.82 675.624 1276.51 672.186 Q1274.22 668.732 1274.22 662.186 Q1274.22 655.624 1276.51 652.186 Q1278.82 648.732 1283.18 648.732 Z" fill="#000000" fill-rule="nonzero" fill-opacity="1" /><path clip-path="url(#clip000)" d="M1256.08 513.124 L1268.32 513.124 L1268.32 516.076 L1251.86 516.076 L1251.86 513.124 Q1253.86 511.058 1257.29 507.586 Q1260.75 504.097 1261.63 503.09 Q1263.32 501.197 1263.98 499.895 Q1264.66 498.576 1264.66 497.309 Q1264.66 495.243 1263.2 493.94 Q1261.76 492.638 1259.43 492.638 Q1257.78 492.638 1255.94 493.211 Q1254.12 493.784 1252.03 494.947 L1252.03 491.406 Q1254.15 490.555 1255.99 490.121 Q1257.83 489.687 1259.36 489.687 Q1263.39 489.687 1265.78 491.701 Q1268.18 493.715 1268.18 497.083 Q1268.18 498.68 1267.57 500.121 Q1266.98 501.545 1265.4 503.489 Q1264.97 503.993 1262.64 506.406 Q1260.31 508.802 1256.08 513.124 Z" fill="#000000" fill-rule="nonzero" fill-opacity="1" /><path clip-path="url(#clip000)" d="M1283.18 492.465 Q1280.47 492.465 1279.1 495.138 Q1277.75 497.795 1277.75 503.142 Q1277.75 508.472 1279.1 511.145 Q1280.47 513.802 1283.18 513.802 Q1285.91 513.802 1287.26 511.145 Q1288.63 508.472 1288.63 503.142 Q1288.63 497.795 1287.26 495.138 Q1285.91 492.465 1283.18 492.465 M1283.18 489.687 Q1287.54 489.687 1289.83 493.142 Q1292.14 496.579 1292.14 503.142 Q1292.14 509.687 1289.83 513.142 Q1287.54 516.579 1283.18 516.579 Q1278.82 516.579 1276.51 513.142 Q1274.22 509.687 1274.22 503.142 Q1274.22 496.579 1276.51 493.142 Q1278.82 489.687 1283.18 489.687 Z" fill="#000000" fill-rule="nonzero" fill-opacity="1" /><path clip-path="url(#clip000)" d="M1262.69 334.167 L1253.84 348.003 L1262.69 348.003 L1262.69 334.167 M1261.77 331.111 L1266.18 331.111 L1266.18 348.003 L1269.88 348.003 L1269.88 350.92 L1266.18 350.92 L1266.18 357.031 L1262.69 357.031 L1262.69 350.92 L1250.99 350.92 L1250.99 347.535 L1261.77 331.111 Z" fill="#000000" fill-rule="nonzero" fill-opacity="1" /><path clip-path="url(#clip000)" d="M1283.18 333.42 Q1280.47 333.42 1279.1 336.094 Q1277.75 338.75 1277.75 344.097 Q1277.75 349.427 1279.1 352.101 Q1280.47 354.757 1283.18 354.757 Q1285.91 354.757 1287.26 352.101 Q1288.63 349.427 1288.63 344.097 Q1288.63 338.75 1287.26 336.094 Q1285.91 333.42 1283.18 333.42 M1283.18 330.642 Q1287.54 330.642 1289.83 334.097 Q1292.14 337.535 1292.14 344.097 Q1292.14 350.642 1289.83 354.097 Q1287.54 357.535 1283.18 357.535 Q1278.82 357.535 1276.51 354.097 Q1274.22 350.642 1274.22 344.097 Q1274.22 337.535 1276.51 334.097 Q1278.82 330.642 1283.18 330.642 Z" fill="#000000" fill-rule="nonzero" fill-opacity="1" /><path clip-path="url(#clip000)" d="M1260.99 183.629 Q1258.63 183.629 1257.24 185.244 Q1255.87 186.858 1255.87 189.671 Q1255.87 192.466 1257.24 194.098 Q1258.63 195.712 1260.99 195.712 Q1263.35 195.712 1264.72 194.098 Q1266.11 192.466 1266.11 189.671 Q1266.11 186.858 1264.72 185.244 Q1263.35 183.629 1260.99 183.629 M1267.95 172.64 L1267.95 175.834 Q1266.63 175.209 1265.28 174.879 Q1263.94 174.549 1262.62 174.549 Q1259.15 174.549 1257.31 176.893 Q1255.49 179.237 1255.23 183.976 Q1256.25 182.466 1257.8 181.667 Q1259.34 180.851 1261.2 180.851 Q1265.11 180.851 1267.36 183.23 Q1269.64 185.591 1269.64 189.671 Q1269.64 193.664 1267.28 196.077 Q1264.92 198.49 1260.99 198.49 Q1256.5 198.49 1254.12 195.053 Q1251.74 191.598 1251.74 185.053 Q1251.74 178.907 1254.66 175.261 Q1257.57 171.598 1262.49 171.598 Q1263.8 171.598 1265.14 171.858 Q1266.5 172.119 1267.95 172.64 Z" fill="#000000" fill-rule="nonzero" fill-opacity="1" /><path clip-path="url(#clip000)" d="M1283.18 174.376 Q1280.47 174.376 1279.1 177.049 Q1277.75 179.705 1277.75 185.053 Q1277.75 190.383 1279.1 193.056 Q1280.47 195.712 1283.18 195.712 Q1285.91 195.712 1287.26 193.056 Q1288.63 190.383 1288.63 185.053 Q1288.63 179.705 1287.26 177.049 Q1285.91 174.376 1283.18 174.376 M1283.18 171.598 Q1287.54 171.598 1289.83 175.053 Q1292.14 178.49 1292.14 185.053 Q1292.14 191.598 1289.83 195.053 Q1287.54 198.49 1283.18 198.49 Q1278.82 198.49 1276.51 195.053 Q1274.22 191.598 1274.22 185.053 Q1274.22 178.49 1276.51 175.053 Q1278.82 171.598 1283.18 171.598 Z" fill="#000000" fill-rule="nonzero" fill-opacity="1" /><path clip-path="url(#clip000)" d="M1340.04 18.9258 Q1336.52 18.9258 1334.62 21.4721 Q1332.63 24.1341 1332.63 28.5323 Q1332.63 33.185 1334.6 35.8702 Q1336.59 38.5322 1340.04 38.5322 Q1343.44 38.5322 1345.43 35.847 Q1347.42 33.1619 1347.42 28.5323 Q1347.42 24.2962 1345.43 21.4721 Q1343.6 18.9258 1340.04 18.9258 M1340.04 15.5462 L1354.18 15.5462 L1354.18 19.8054 L1349.41 19.8054 Q1351.93 23.4165 1351.93 28.5323 Q1351.93 34.898 1348.76 38.5091 Q1345.59 42.1433 1340.04 42.1433 Q1334.46 42.1433 1331.31 38.5091 Q1328.14 34.898 1328.14 28.5323 Q1328.14 22.1203 1331.31 18.5323 Q1333.92 15.5462 1340.04 15.5462 Z" fill="#000000" fill-rule="nonzero" fill-opacity="1" /><path clip-path="url(#clip000)" d="M1378.35 19.6666 Q1377.49 19.3656 1376.63 19.1342 Q1374.34 18.5323 1371.89 18.5323 Q1367.65 18.5323 1365.29 20.824 Q1363.09 22.9536 1362.67 26.8656 L1378.35 26.8656 L1378.35 30.1989 L1362.67 30.1989 Q1363.09 34.1109 1365.29 36.2405 Q1367.65 38.5322 1371.89 38.5322 Q1374.85 38.5322 1376.63 37.9304 L1378.35 37.3517 L1378.35 41.2174 L1376.52 41.634 Q1374.11 42.1433 1371.63 42.1433 Q1365.43 42.1433 1361.82 38.5322 Q1358.18 34.9211 1358.18 28.5323 Q1358.18 22.1434 1361.82 18.5323 Q1365.43 14.9212 1371.63 14.9212 Q1373.97 14.9212 1376.52 15.4305 Q1377.44 15.6157 1378.35 15.8934 L1378.35 19.6666 Z" fill="#000000" fill-rule="nonzero" fill-opacity="1" /><path clip-path="url(#clip003)" d="M1384.49 423.594 L1384.49 662.16 L1566.87 662.16 L1566.87 423.594 L1384.49 423.594 L1384.49 423.594  Z" fill="#009af9" fill-rule="evenodd" fill-opacity="1"/>
<polyline clip-path="url(#clip003)" style="stroke:#000000; stroke-linecap:round; stroke-linejoin:round; stroke-width:4; stroke-opacity:1; fill:none" points="1384.49,423.594 1384.49,662.16 1566.87,662.16 1566.87,423.594 1384.49,423.594 "/>
<path clip-path="url(#clip003)" d="M1566.87 97.5521 L1566.87 662.16 L1749.26 662.16 L1749.26 97.5521 L1566.87 97.5521 L1566.87 97.5521  Z" fill="#009af9" fill-rule="evenodd" fill-opacity="1"/>
<polyline clip-path="url(#clip003)" style="stroke:#000000; stroke-linecap:round; stroke-linejoin:round; stroke-width:4; stroke-opacity:1; fill:none" points="1566.87,97.5521 1566.87,662.16 1749.26,662.16 1749.26,97.5521 1566.87,97.5521 "/>
<path clip-path="url(#clip003)" d="M1749.26 312.262 L1749.26 662.16 L1931.64 662.16 L1931.64 312.262 L1749.26 312.262 L1749.26 312.262  Z" fill="#009af9" fill-rule="evenodd" fill-opacity="1"/>
<polyline clip-path="url(#clip003)" style="stroke:#000000; stroke-linecap:round; stroke-linejoin:round; stroke-width:4; stroke-opacity:1; fill:none" points="1749.26,312.262 1749.26,662.16 1931.64,662.16 1931.64,312.262 1749.26,312.262 "/>
<path clip-path="url(#clip003)" d="M1931.64 192.979 L1931.64 662.16 L2114.02 662.16 L2114.02 192.979 L1931.64 192.979 L1931.64 192.979  Z" fill="#009af9" fill-rule="evenodd" fill-opacity="1"/>
<polyline clip-path="url(#clip003)" style="stroke:#000000; stroke-linecap:round; stroke-linejoin:round; stroke-width:4; stroke-opacity:1; fill:none" points="1931.64,192.979 1931.64,662.16 2114.02,662.16 2114.02,192.979 1931.64,192.979 "/>
<path clip-path="url(#clip003)" d="M2114.02 526.972 L2114.02 662.16 L2296.4 662.16 L2296.4 526.972 L2114.02 526.972 L2114.02 526.972  Z" fill="#009af9" fill-rule="evenodd" fill-opacity="1"/>
<polyline clip-path="url(#clip003)" style="stroke:#000000; stroke-linecap:round; stroke-linejoin:round; stroke-width:4; stroke-opacity:1; fill:none" points="2114.02,526.972 2114.02,662.16 2296.4,662.16 2296.4,526.972 2114.02,526.972 "/>
<circle clip-path="url(#clip003)" style="fill:#009af9; stroke:none; fill-opacity:0" cx="1475.68" cy="423.594" r="2"/>
<circle clip-path="url(#clip003)" style="fill:#009af9; stroke:none; fill-opacity:0" cx="1658.07" cy="97.5521" r="2"/>
<circle clip-path="url(#clip003)" style="fill:#009af9; stroke:none; fill-opacity:0" cx="1840.45" cy="312.262" r="2"/>
<circle clip-path="url(#clip003)" style="fill:#009af9; stroke:none; fill-opacity:0" cx="2022.83" cy="192.979" r="2"/>
<circle clip-path="url(#clip003)" style="fill:#009af9; stroke:none; fill-opacity:0" cx="2205.21" cy="526.972" r="2"/>
<polyline clip-path="url(#clip003)" style="stroke:#ff0000; stroke-linecap:round; stroke-linejoin:round; stroke-width:8; stroke-opacity:1; fill:none" stroke-dasharray="32, 20" points="1840.42,1226.77 1840.42,-467.056 "/>
<polyline clip-path="url(#clip003)" style="stroke:#ff0000; stroke-linecap:round; stroke-linejoin:round; stroke-width:6; stroke-opacity:1; fill:none" stroke-dasharray="24, 12, 3, 12" points="1440.86,1226.77 1440.86,-467.056 "/>
<polyline clip-path="url(#clip003)" style="stroke:#ff0000; stroke-linecap:round; stroke-linejoin:round; stroke-width:6; stroke-opacity:1; fill:none" stroke-dasharray="24, 12, 3, 12" points="2270.29,1226.77 2270.29,-467.056 "/>
<path clip-path="url(#clip000)" d="M128.138 1456.91 L1152.76 1456.91 L1152.76 892.306 L128.138 892.306  Z" fill="#ffffff" fill-rule="evenodd" fill-opacity="1"/>
<defs>
  <clipPath id="clip004">
    <rect x="128" y="892" width="1026" height="566"/>
  </clipPath>
</defs>
<polyline clip-path="url(#clip004)" style="stroke:#000000; stroke-linecap:round; stroke-linejoin:round; stroke-width:2; stroke-opacity:0.1; fill:none" points="184.494,1456.91 184.494,892.306 "/>
<polyline clip-path="url(#clip004)" style="stroke:#000000; stroke-linecap:round; stroke-linejoin:round; stroke-width:2; stroke-opacity:0.1; fill:none" points="366.875,1456.91 366.875,892.306 "/>
<polyline clip-path="url(#clip004)" style="stroke:#000000; stroke-linecap:round; stroke-linejoin:round; stroke-width:2; stroke-opacity:0.1; fill:none" points="549.256,1456.91 549.256,892.306 "/>
<polyline clip-path="url(#clip004)" style="stroke:#000000; stroke-linecap:round; stroke-linejoin:round; stroke-width:2; stroke-opacity:0.1; fill:none" points="731.637,1456.91 731.637,892.306 "/>
<polyline clip-path="url(#clip004)" style="stroke:#000000; stroke-linecap:round; stroke-linejoin:round; stroke-width:2; stroke-opacity:0.1; fill:none" points="914.019,1456.91 914.019,892.306 "/>
<polyline clip-path="url(#clip004)" style="stroke:#000000; stroke-linecap:round; stroke-linejoin:round; stroke-width:2; stroke-opacity:0.1; fill:none" points="1096.4,1456.91 1096.4,892.306 "/>
<polyline clip-path="url(#clip004)" style="stroke:#000000; stroke-linecap:round; stroke-linejoin:round; stroke-width:2; stroke-opacity:0.1; fill:none" points="128.138,1456.91 1152.76,1456.91 "/>
<polyline clip-path="url(#clip004)" style="stroke:#000000; stroke-linecap:round; stroke-linejoin:round; stroke-width:2; stroke-opacity:0.1; fill:none" points="128.138,1327.12 1152.76,1327.12 "/>
<polyline clip-path="url(#clip004)" style="stroke:#000000; stroke-linecap:round; stroke-linejoin:round; stroke-width:2; stroke-opacity:0.1; fill:none" points="128.138,1197.32 1152.76,1197.32 "/>
<polyline clip-path="url(#clip004)" style="stroke:#000000; stroke-linecap:round; stroke-linejoin:round; stroke-width:2; stroke-opacity:0.1; fill:none" points="128.138,1067.53 1152.76,1067.53 "/>
<polyline clip-path="url(#clip004)" style="stroke:#000000; stroke-linecap:round; stroke-linejoin:round; stroke-width:2; stroke-opacity:0.1; fill:none" points="128.138,937.734 1152.76,937.734 "/>
<polyline clip-path="url(#clip000)" style="stroke:#000000; stroke-linecap:round; stroke-linejoin:round; stroke-width:4; stroke-opacity:1; fill:none" points="128.138,1456.91 1152.76,1456.91 "/>
<polyline clip-path="url(#clip000)" style="stroke:#000000; stroke-linecap:round; stroke-linejoin:round; stroke-width:4; stroke-opacity:1; fill:none" points="184.494,1456.91 184.494,1438.02 "/>
<polyline clip-path="url(#clip000)" style="stroke:#000000; stroke-linecap:round; stroke-linejoin:round; stroke-width:4; stroke-opacity:1; fill:none" points="366.875,1456.91 366.875,1438.02 "/>
<polyline clip-path="url(#clip000)" style="stroke:#000000; stroke-linecap:round; stroke-linejoin:round; stroke-width:4; stroke-opacity:1; fill:none" points="549.256,1456.91 549.256,1438.02 "/>
<polyline clip-path="url(#clip000)" style="stroke:#000000; stroke-linecap:round; stroke-linejoin:round; stroke-width:4; stroke-opacity:1; fill:none" points="731.637,1456.91 731.637,1438.02 "/>
<polyline clip-path="url(#clip000)" style="stroke:#000000; stroke-linecap:round; stroke-linejoin:round; stroke-width:4; stroke-opacity:1; fill:none" points="914.019,1456.91 914.019,1438.02 "/>
<polyline clip-path="url(#clip000)" style="stroke:#000000; stroke-linecap:round; stroke-linejoin:round; stroke-width:4; stroke-opacity:1; fill:none" points="1096.4,1456.91 1096.4,1438.02 "/>
<path clip-path="url(#clip000)" d="M114.649 1544.64 Q112.734 1546.56 113.654 1549.42 Q114.575 1552.25 118.356 1556.03 Q122.125 1559.8 124.973 1560.74 Q127.821 1561.65 129.736 1559.73 Q131.663 1557.8 130.743 1554.97 Q129.822 1552.11 126.053 1548.34 Q122.272 1544.56 119.424 1543.65 Q116.576 1542.72 114.649 1544.64 M112.685 1542.68 Q115.766 1539.6 119.829 1540.42 Q123.893 1541.22 128.533 1545.86 Q133.161 1550.49 133.971 1554.56 Q134.782 1558.61 131.7 1561.69 Q128.619 1564.78 124.556 1563.98 Q120.492 1563.15 115.864 1558.53 Q111.224 1553.89 110.413 1549.84 Q109.603 1545.76 112.685 1542.68 Z" fill="#000000" fill-rule="nonzero" fill-opacity="1" /><path clip-path="url(#clip000)" d="M138.919 1547.53 L141.509 1544.94 L144.627 1548.06 L142.037 1550.65 L138.919 1547.53 Z" fill="#000000" fill-rule="nonzero" fill-opacity="1" /><path clip-path="url(#clip000)" d="M131.725 1524.3 L141.46 1514.57 L143.547 1516.65 L136.083 1524.12 L140.576 1528.61 Q140.932 1527.89 141.386 1527.26 Q141.828 1526.62 142.368 1526.08 Q145.437 1523.01 148.911 1522.9 Q152.385 1522.79 155.258 1525.66 Q158.217 1528.62 158.02 1532.11 Q157.811 1535.58 154.46 1538.93 Q153.306 1540.09 151.907 1541.09 Q150.519 1542.09 148.85 1542.97 L146.358 1540.48 Q148.064 1539.98 149.537 1539.09 Q151.011 1538.21 152.324 1536.9 Q154.448 1534.77 154.571 1532.42 Q154.693 1530.06 152.778 1528.14 Q150.863 1526.23 148.506 1526.35 Q146.149 1526.47 144.025 1528.6 Q143.031 1529.59 142.258 1530.81 Q141.497 1532.01 140.932 1533.51 L131.725 1524.3 Z" fill="#000000" fill-rule="nonzero" fill-opacity="1" /><path clip-path="url(#clip000)" d="M163.655 1509.26 Q165.815 1507.86 168.013 1508.07 Q170.223 1508.27 171.99 1510.04 Q174.703 1512.75 174.323 1516.1 Q173.942 1519.45 170.505 1522.89 Q169.351 1524.04 167.89 1525.04 Q166.454 1526.03 164.698 1526.88 L162.305 1524.49 Q163.937 1524.06 165.472 1523.13 Q167.006 1522.21 168.344 1520.88 Q170.677 1518.54 170.971 1516.41 Q171.278 1514.26 169.523 1512.5 Q167.902 1510.88 165.852 1511.12 Q163.802 1511.33 161.777 1513.35 L159.641 1515.49 L157.603 1513.45 L159.837 1511.21 Q161.666 1509.39 161.912 1507.69 Q162.145 1505.99 160.77 1504.61 Q159.358 1503.2 157.603 1503.46 Q155.847 1503.69 153.981 1505.56 Q152.962 1506.57 152.017 1507.96 Q151.072 1509.35 150.139 1511.21 L147.929 1509.01 Q148.948 1507.2 149.979 1505.78 Q151.023 1504.34 152.115 1503.25 Q154.939 1500.42 157.873 1500.07 Q160.795 1499.7 162.98 1501.88 Q164.502 1503.41 164.686 1505.33 Q164.858 1507.25 163.655 1509.26 Z" fill="#000000" fill-rule="nonzero" fill-opacity="1" /><path clip-path="url(#clip000)" d="M170.628 1488.66 Q168.713 1490.58 169.633 1493.44 Q170.554 1496.27 174.335 1500.06 Q178.104 1503.82 180.952 1504.76 Q183.8 1505.67 185.715 1503.75 Q187.642 1501.82 186.722 1498.99 Q185.801 1496.13 182.032 1492.36 Q178.251 1488.58 175.403 1487.67 Q172.555 1486.74 170.628 1488.66 M168.664 1486.7 Q171.745 1483.62 175.808 1484.44 Q179.872 1485.24 184.512 1489.88 Q189.14 1494.51 189.95 1498.58 Q190.761 1502.63 187.679 1505.72 Q184.598 1508.8 180.535 1508 Q176.471 1507.18 171.843 1502.55 Q167.203 1497.91 166.392 1493.86 Q165.582 1489.78 168.664 1486.7 Z" fill="#000000" fill-rule="nonzero" fill-opacity="1" /><path clip-path="url(#clip000)" d="M297.558 1544.11 Q295.643 1546.03 296.564 1548.89 Q297.484 1551.73 301.265 1555.51 Q305.034 1559.28 307.882 1560.21 Q310.73 1561.12 312.645 1559.2 Q314.573 1557.27 313.652 1554.44 Q312.731 1551.58 308.962 1547.81 Q305.181 1544.03 302.333 1543.12 Q299.485 1542.19 297.558 1544.11 M295.594 1542.15 Q298.675 1539.07 302.738 1539.89 Q306.802 1540.69 311.442 1545.33 Q316.07 1549.96 316.88 1554.03 Q317.691 1558.08 314.609 1561.17 Q311.528 1564.25 307.465 1563.45 Q303.401 1562.63 298.773 1558 Q294.133 1553.36 293.323 1549.31 Q292.512 1545.23 295.594 1542.15 Z" fill="#000000" fill-rule="nonzero" fill-opacity="1" /><path clip-path="url(#clip000)" d="M321.828 1547 L324.418 1544.41 L327.536 1547.53 L324.946 1550.12 L321.828 1547 Z" fill="#000000" fill-rule="nonzero" fill-opacity="1" /><path clip-path="url(#clip000)" d="M314.634 1523.77 L324.369 1514.04 L326.456 1516.13 L318.992 1523.59 L323.485 1528.08 Q323.841 1527.36 324.295 1526.73 Q324.737 1526.09 325.277 1525.55 Q328.346 1522.48 331.82 1522.37 Q335.295 1522.26 338.167 1525.14 Q341.126 1528.09 340.929 1531.58 Q340.721 1535.05 337.369 1538.41 Q336.215 1539.56 334.816 1540.57 Q333.429 1541.56 331.759 1542.45 L329.267 1539.95 Q330.973 1539.45 332.447 1538.57 Q333.92 1537.68 335.233 1536.37 Q337.357 1534.24 337.48 1531.89 Q337.603 1529.53 335.687 1527.62 Q333.772 1525.7 331.415 1525.82 Q329.058 1525.95 326.935 1528.07 Q325.94 1529.06 325.167 1530.28 Q324.406 1531.48 323.841 1532.98 L314.634 1523.77 Z" fill="#000000" fill-rule="nonzero" fill-opacity="1" /><path clip-path="url(#clip000)" d="M346.564 1508.74 Q348.725 1507.34 350.922 1507.54 Q353.132 1507.74 354.9 1509.51 Q357.613 1512.22 357.232 1515.57 Q356.851 1518.92 353.414 1522.36 Q352.26 1523.52 350.799 1524.51 Q349.363 1525.5 347.608 1526.35 L345.214 1523.96 Q346.846 1523.53 348.381 1522.61 Q349.915 1521.69 351.254 1520.35 Q353.586 1518.02 353.881 1515.88 Q354.188 1513.73 352.432 1511.98 Q350.812 1510.36 348.761 1510.59 Q346.711 1510.8 344.686 1512.82 L342.55 1514.96 L340.512 1512.92 L342.746 1510.69 Q344.575 1508.86 344.821 1507.16 Q345.054 1505.46 343.679 1504.08 Q342.267 1502.67 340.512 1502.93 Q338.756 1503.16 336.891 1505.03 Q335.872 1506.05 334.926 1507.43 Q333.981 1508.82 333.048 1510.69 L330.838 1508.48 Q331.857 1506.67 332.889 1505.25 Q333.932 1503.81 335.025 1502.72 Q337.848 1499.9 340.782 1499.54 Q343.704 1499.17 345.889 1501.36 Q347.411 1502.88 347.595 1504.81 Q347.767 1506.72 346.564 1508.74 Z" fill="#000000" fill-rule="nonzero" fill-opacity="1" /><path clip-path="url(#clip000)" d="M346.625 1491.78 L356.36 1482.05 L358.447 1484.13 L350.983 1491.6 L355.477 1496.09 Q355.833 1495.37 356.287 1494.74 Q356.729 1494.1 357.269 1493.56 Q360.338 1490.49 363.812 1490.38 Q367.286 1490.27 370.159 1493.14 Q373.117 1496.1 372.921 1499.59 Q372.712 1503.06 369.361 1506.41 Q368.207 1507.57 366.807 1508.58 Q365.42 1509.57 363.751 1510.45 L361.259 1507.96 Q362.965 1507.46 364.438 1506.57 Q365.911 1505.69 367.225 1504.38 Q369.348 1502.25 369.471 1499.9 Q369.594 1497.54 367.679 1495.62 Q365.764 1493.71 363.407 1493.83 Q361.05 1493.95 358.926 1496.08 Q357.932 1497.07 357.158 1498.29 Q356.397 1499.49 355.833 1500.99 L346.625 1491.78 Z" fill="#000000" fill-rule="nonzero" fill-opacity="1" /><path clip-path="url(#clip000)" d="M479.411 1544.64 Q477.496 1546.56 478.417 1549.42 Q479.338 1552.25 483.119 1556.03 Q486.887 1559.8 489.736 1560.74 Q492.584 1561.65 494.499 1559.73 Q496.426 1557.8 495.505 1554.97 Q494.585 1552.11 490.816 1548.34 Q487.035 1544.56 484.187 1543.65 Q481.339 1542.72 479.411 1544.64 M477.447 1542.68 Q480.528 1539.6 484.592 1540.42 Q488.655 1541.22 493.296 1545.86 Q497.924 1550.49 498.734 1554.56 Q499.544 1558.61 496.463 1561.69 Q493.382 1564.78 489.318 1563.98 Q485.255 1563.15 480.627 1558.53 Q475.986 1553.89 475.176 1549.84 Q474.366 1545.76 477.447 1542.68 Z" fill="#000000" fill-rule="nonzero" fill-opacity="1" /><path clip-path="url(#clip000)" d="M503.681 1547.53 L506.271 1544.94 L509.39 1548.06 L506.799 1550.65 L503.681 1547.53 Z" fill="#000000" fill-rule="nonzero" fill-opacity="1" /><path clip-path="url(#clip000)" d="M496.487 1524.3 L506.222 1514.57 L508.309 1516.65 L500.845 1524.12 L505.338 1528.61 Q505.694 1527.89 506.149 1527.26 Q506.591 1526.62 507.131 1526.08 Q510.2 1523.01 513.674 1522.9 Q517.148 1522.79 520.021 1525.66 Q522.979 1528.62 522.783 1532.11 Q522.574 1535.58 519.223 1538.93 Q518.069 1540.09 516.669 1541.09 Q515.282 1542.09 513.613 1542.97 L511.12 1540.48 Q512.827 1539.98 514.3 1539.09 Q515.773 1538.21 517.087 1536.9 Q519.21 1534.77 519.333 1532.42 Q519.456 1530.06 517.541 1528.14 Q515.626 1526.23 513.269 1526.35 Q510.912 1526.47 508.788 1528.6 Q507.794 1529.59 507.02 1530.81 Q506.259 1532.01 505.694 1533.51 L496.487 1524.3 Z" fill="#000000" fill-rule="nonzero" fill-opacity="1" /><path clip-path="url(#clip000)" d="M521.432 1503.68 L524.956 1519.72 L531.216 1513.46 L521.432 1503.68 M518.621 1502.17 L521.739 1499.05 L533.684 1510.99 L536.299 1508.38 L538.361 1510.44 L535.746 1513.06 L540.068 1517.38 L537.6 1519.84 L533.279 1515.52 L525.005 1523.8 L522.611 1521.4 L518.621 1502.17 Z" fill="#000000" fill-rule="nonzero" fill-opacity="1" /><path clip-path="url(#clip000)" d="M535.39 1488.66 Q533.475 1490.58 534.396 1493.44 Q535.317 1496.27 539.098 1500.06 Q542.866 1503.82 545.715 1504.76 Q548.563 1505.67 550.478 1503.75 Q552.405 1501.82 551.484 1498.99 Q550.564 1496.13 546.795 1492.36 Q543.014 1488.58 540.166 1487.67 Q537.318 1486.74 535.39 1488.66 M533.426 1486.7 Q536.507 1483.62 540.571 1484.44 Q544.634 1485.24 549.275 1489.88 Q553.903 1494.51 554.713 1498.58 Q555.523 1502.63 552.442 1505.72 Q549.361 1508.8 545.297 1508 Q541.234 1507.18 536.606 1502.55 Q531.965 1497.91 531.155 1493.86 Q530.345 1489.78 533.426 1486.7 Z" fill="#000000" fill-rule="nonzero" fill-opacity="1" /><path clip-path="url(#clip000)" d="M662.321 1544.11 Q660.405 1546.03 661.326 1548.89 Q662.247 1551.73 666.028 1555.51 Q669.797 1559.28 672.645 1560.21 Q675.493 1561.12 677.408 1559.2 Q679.335 1557.27 678.414 1554.44 Q677.494 1551.58 673.725 1547.81 Q669.944 1544.03 667.096 1543.12 Q664.248 1542.19 662.321 1544.11 M660.356 1542.15 Q663.438 1539.07 667.501 1539.89 Q671.564 1540.69 676.205 1545.33 Q680.833 1549.96 681.643 1554.03 Q682.453 1558.08 679.372 1561.17 Q676.291 1564.25 672.227 1563.45 Q668.164 1562.63 663.536 1558 Q658.895 1553.36 658.085 1549.31 Q657.275 1545.23 660.356 1542.15 Z" fill="#000000" fill-rule="nonzero" fill-opacity="1" /><path clip-path="url(#clip000)" d="M686.59 1547 L689.181 1544.41 L692.299 1547.53 L689.708 1550.12 L686.59 1547 Z" fill="#000000" fill-rule="nonzero" fill-opacity="1" /><path clip-path="url(#clip000)" d="M679.397 1523.77 L689.132 1514.04 L691.218 1516.13 L683.755 1523.59 L688.248 1528.08 Q688.604 1527.36 689.058 1526.73 Q689.5 1526.09 690.04 1525.55 Q693.109 1522.48 696.583 1522.37 Q700.057 1522.26 702.93 1525.14 Q705.888 1528.09 705.692 1531.58 Q705.483 1535.05 702.132 1538.41 Q700.978 1539.56 699.578 1540.57 Q698.191 1541.56 696.522 1542.45 L694.03 1539.95 Q695.736 1539.45 697.209 1538.57 Q698.682 1537.68 699.996 1536.37 Q702.12 1534.24 702.242 1531.89 Q702.365 1529.53 700.45 1527.62 Q698.535 1525.7 696.178 1525.82 Q693.821 1525.95 691.697 1528.07 Q690.703 1529.06 689.929 1530.28 Q689.168 1531.48 688.604 1532.98 L679.397 1523.77 Z" fill="#000000" fill-rule="nonzero" fill-opacity="1" /><path clip-path="url(#clip000)" d="M704.342 1503.15 L707.865 1519.19 L714.126 1512.93 L704.342 1503.15 M701.53 1501.64 L704.648 1498.52 L716.593 1510.47 L719.208 1507.85 L721.27 1509.91 L718.656 1512.53 L722.977 1516.85 L720.509 1519.32 L716.188 1515 L707.914 1523.27 L705.52 1520.88 L701.53 1501.64 Z" fill="#000000" fill-rule="nonzero" fill-opacity="1" /><path clip-path="url(#clip000)" d="M711.388 1491.78 L721.123 1482.05 L723.21 1484.13 L715.746 1491.6 L720.239 1496.09 Q720.595 1495.37 721.049 1494.74 Q721.491 1494.1 722.031 1493.56 Q725.1 1490.49 728.575 1490.38 Q732.049 1490.27 734.921 1493.14 Q737.88 1496.1 737.683 1499.59 Q737.475 1503.06 734.123 1506.41 Q732.969 1507.57 731.57 1508.58 Q730.183 1509.57 728.513 1510.45 L726.021 1507.96 Q727.728 1507.46 729.201 1506.57 Q730.674 1505.69 731.987 1504.38 Q734.111 1502.25 734.234 1499.9 Q734.357 1497.54 732.442 1495.62 Q730.526 1493.71 728.169 1493.83 Q725.812 1493.95 723.689 1496.08 Q722.694 1497.07 721.921 1498.29 Q721.16 1499.49 720.595 1500.99 L711.388 1491.78 Z" fill="#000000" fill-rule="nonzero" fill-opacity="1" /><path clip-path="url(#clip000)" d="M844.174 1544.64 Q842.259 1546.56 843.18 1549.42 Q844.1 1552.25 847.881 1556.03 Q851.65 1559.8 854.498 1560.74 Q857.346 1561.65 859.261 1559.73 Q861.189 1557.8 860.268 1554.97 Q859.347 1552.11 855.578 1548.34 Q851.797 1544.56 848.949 1543.65 Q846.101 1542.72 844.174 1544.64 M842.21 1542.68 Q845.291 1539.6 849.354 1540.42 Q853.418 1541.22 858.058 1545.86 Q862.686 1550.49 863.497 1554.56 Q864.307 1558.61 861.225 1561.69 Q858.144 1564.78 854.081 1563.98 Q850.017 1563.15 845.389 1558.53 Q840.749 1553.89 839.939 1549.84 Q839.128 1545.76 842.21 1542.68 Z" fill="#000000" fill-rule="nonzero" fill-opacity="1" /><path clip-path="url(#clip000)" d="M868.444 1547.53 L871.034 1544.94 L874.152 1548.06 L871.562 1550.65 L868.444 1547.53 Z" fill="#000000" fill-rule="nonzero" fill-opacity="1" /><path clip-path="url(#clip000)" d="M861.25 1524.3 L870.985 1514.57 L873.072 1516.65 L865.608 1524.12 L870.101 1528.61 Q870.457 1527.89 870.911 1527.26 Q871.353 1526.62 871.893 1526.08 Q874.962 1523.01 878.437 1522.9 Q881.911 1522.79 884.783 1525.66 Q887.742 1528.62 887.545 1532.11 Q887.337 1535.58 883.985 1538.93 Q882.831 1540.09 881.432 1541.09 Q880.045 1542.09 878.375 1542.97 L875.883 1540.48 Q877.589 1539.98 879.063 1539.09 Q880.536 1538.21 881.849 1536.9 Q883.973 1534.77 884.096 1532.42 Q884.219 1530.06 882.303 1528.14 Q880.388 1526.23 878.031 1526.35 Q875.674 1526.47 873.551 1528.6 Q872.556 1529.59 871.783 1530.81 Q871.022 1532.01 870.457 1533.51 L861.25 1524.3 Z" fill="#000000" fill-rule="nonzero" fill-opacity="1" /><path clip-path="url(#clip000)" d="M877.246 1508.31 L886.981 1498.57 L889.068 1500.66 L881.604 1508.12 L886.097 1512.61 Q886.453 1511.89 886.907 1511.26 Q887.349 1510.63 887.889 1510.09 Q890.958 1507.02 894.432 1506.91 Q897.906 1506.8 900.779 1509.67 Q903.738 1512.63 903.541 1516.11 Q903.332 1519.59 899.981 1522.94 Q898.827 1524.09 897.428 1525.1 Q896.04 1526.09 894.371 1526.98 L891.879 1524.49 Q893.585 1523.98 895.058 1523.1 Q896.531 1522.21 897.845 1520.9 Q899.969 1518.78 900.092 1516.42 Q900.214 1514.06 898.299 1512.15 Q896.384 1510.23 894.027 1510.36 Q891.67 1510.48 889.546 1512.6 Q888.552 1513.6 887.779 1514.81 Q887.018 1516.01 886.453 1517.51 L877.246 1508.31 Z" fill="#000000" fill-rule="nonzero" fill-opacity="1" /><path clip-path="url(#clip000)" d="M900.153 1488.66 Q898.238 1490.58 899.159 1493.44 Q900.079 1496.27 903.86 1500.06 Q907.629 1503.82 910.477 1504.76 Q913.325 1505.67 915.24 1503.75 Q917.168 1501.82 916.247 1498.99 Q915.326 1496.13 911.557 1492.36 Q907.776 1488.58 904.928 1487.67 Q902.08 1486.74 900.153 1488.66 M898.189 1486.7 Q901.27 1483.62 905.333 1484.44 Q909.397 1485.24 914.037 1489.88 Q918.665 1494.51 919.476 1498.58 Q920.286 1502.63 917.204 1505.72 Q914.123 1508.8 910.06 1508 Q905.996 1507.18 901.368 1502.55 Q896.728 1497.91 895.918 1493.86 Q895.107 1489.78 898.189 1486.7 Z" fill="#000000" fill-rule="nonzero" fill-opacity="1" /><path clip-path="url(#clip000)" d="M1027.08 1544.11 Q1025.17 1546.03 1026.09 1548.89 Q1027.01 1551.73 1030.79 1555.51 Q1034.56 1559.28 1037.41 1560.21 Q1040.26 1561.12 1042.17 1559.2 Q1044.1 1557.27 1043.18 1554.44 Q1042.26 1551.58 1038.49 1547.81 Q1034.71 1544.03 1031.86 1543.12 Q1029.01 1542.19 1027.08 1544.11 M1025.12 1542.15 Q1028.2 1539.07 1032.26 1539.89 Q1036.33 1540.69 1040.97 1545.33 Q1045.6 1549.96 1046.41 1554.03 Q1047.22 1558.08 1044.13 1561.17 Q1041.05 1564.25 1036.99 1563.45 Q1032.93 1562.63 1028.3 1558 Q1023.66 1553.36 1022.85 1549.31 Q1022.04 1545.23 1025.12 1542.15 Z" fill="#000000" fill-rule="nonzero" fill-opacity="1" /><path clip-path="url(#clip000)" d="M1051.35 1547 L1053.94 1544.41 L1057.06 1547.53 L1054.47 1550.12 L1051.35 1547 Z" fill="#000000" fill-rule="nonzero" fill-opacity="1" /><path clip-path="url(#clip000)" d="M1044.16 1523.77 L1053.89 1514.04 L1055.98 1516.13 L1048.52 1523.59 L1053.01 1528.08 Q1053.37 1527.36 1053.82 1526.73 Q1054.26 1526.09 1054.8 1525.55 Q1057.87 1522.48 1061.35 1522.37 Q1064.82 1522.26 1067.69 1525.14 Q1070.65 1528.09 1070.45 1531.58 Q1070.25 1535.05 1066.89 1538.41 Q1065.74 1539.56 1064.34 1540.57 Q1062.95 1541.56 1061.28 1542.45 L1058.79 1539.95 Q1060.5 1539.45 1061.97 1538.57 Q1063.44 1537.68 1064.76 1536.37 Q1066.88 1534.24 1067 1531.89 Q1067.13 1529.53 1065.21 1527.62 Q1063.3 1525.7 1060.94 1525.82 Q1058.58 1525.95 1056.46 1528.07 Q1055.47 1529.06 1054.69 1530.28 Q1053.93 1531.48 1053.37 1532.98 L1044.16 1523.77 Z" fill="#000000" fill-rule="nonzero" fill-opacity="1" /><path clip-path="url(#clip000)" d="M1060.15 1507.78 L1069.89 1498.04 L1071.98 1500.13 L1064.51 1507.59 L1069.01 1512.09 Q1069.36 1511.36 1069.82 1510.74 Q1070.26 1510.1 1070.8 1509.56 Q1073.87 1506.49 1077.34 1506.38 Q1080.82 1506.27 1083.69 1509.14 Q1086.65 1512.1 1086.45 1515.59 Q1086.24 1519.06 1082.89 1522.41 Q1081.74 1523.56 1080.34 1524.57 Q1078.95 1525.57 1077.28 1526.45 L1074.79 1523.96 Q1076.49 1523.45 1077.97 1522.57 Q1079.44 1521.69 1080.75 1520.37 Q1082.88 1518.25 1083 1515.89 Q1083.12 1513.53 1081.21 1511.62 Q1079.29 1509.7 1076.94 1509.83 Q1074.58 1509.95 1072.46 1512.07 Q1071.46 1513.07 1070.69 1514.28 Q1069.93 1515.49 1069.36 1516.98 L1060.15 1507.78 Z" fill="#000000" fill-rule="nonzero" fill-opacity="1" /><path clip-path="url(#clip000)" d="M1076.15 1491.78 L1085.89 1482.05 L1087.97 1484.13 L1080.51 1491.6 L1085 1496.09 Q1085.36 1495.37 1085.81 1494.74 Q1086.25 1494.1 1086.79 1493.56 Q1089.86 1490.49 1093.34 1490.38 Q1096.81 1490.27 1099.68 1493.14 Q1102.64 1496.1 1102.45 1499.59 Q1102.24 1503.06 1098.89 1506.41 Q1097.73 1507.57 1096.33 1508.58 Q1094.95 1509.57 1093.28 1510.45 L1090.78 1507.96 Q1092.49 1507.46 1093.96 1506.57 Q1095.44 1505.69 1096.75 1504.38 Q1098.87 1502.25 1099 1499.9 Q1099.12 1497.54 1097.2 1495.62 Q1095.29 1493.71 1092.93 1493.83 Q1090.58 1493.95 1088.45 1496.08 Q1087.46 1497.07 1086.68 1498.29 Q1085.92 1499.49 1085.36 1500.99 L1076.15 1491.78 Z" fill="#000000" fill-rule="nonzero" fill-opacity="1" /><polyline clip-path="url(#clip000)" style="stroke:#000000; stroke-linecap:round; stroke-linejoin:round; stroke-width:4; stroke-opacity:1; fill:none" points="128.138,1456.91 128.138,892.306 "/>
<polyline clip-path="url(#clip000)" style="stroke:#000000; stroke-linecap:round; stroke-linejoin:round; stroke-width:4; stroke-opacity:1; fill:none" points="128.138,1456.91 147.035,1456.91 "/>
<polyline clip-path="url(#clip000)" style="stroke:#000000; stroke-linecap:round; stroke-linejoin:round; stroke-width:4; stroke-opacity:1; fill:none" points="128.138,1327.12 147.035,1327.12 "/>
<polyline clip-path="url(#clip000)" style="stroke:#000000; stroke-linecap:round; stroke-linejoin:round; stroke-width:4; stroke-opacity:1; fill:none" points="128.138,1197.32 147.035,1197.32 "/>
<polyline clip-path="url(#clip000)" style="stroke:#000000; stroke-linecap:round; stroke-linejoin:round; stroke-width:4; stroke-opacity:1; fill:none" points="128.138,1067.53 147.035,1067.53 "/>
<polyline clip-path="url(#clip000)" style="stroke:#000000; stroke-linecap:round; stroke-linejoin:round; stroke-width:4; stroke-opacity:1; fill:none" points="128.138,937.734 147.035,937.734 "/>
<path clip-path="url(#clip000)" d="M83.1795 1446.26 Q80.4711 1446.26 79.0996 1448.94 Q77.7455 1451.59 77.7455 1456.94 Q77.7455 1462.27 79.0996 1464.94 Q80.4711 1467.6 83.1795 1467.6 Q85.9051 1467.6 87.2593 1464.94 Q88.6308 1462.27 88.6308 1456.94 Q88.6308 1451.59 87.2593 1448.94 Q85.9051 1446.26 83.1795 1446.26 M83.1795 1443.49 Q87.5371 1443.49 89.8287 1446.94 Q92.1377 1450.38 92.1377 1456.94 Q92.1377 1463.49 89.8287 1466.94 Q87.5371 1470.38 83.1795 1470.38 Q78.8218 1470.38 76.5128 1466.94 Q74.2212 1463.49 74.2212 1456.94 Q74.2212 1450.38 76.5128 1446.94 Q78.8218 1443.49 83.1795 1443.49 Z" fill="#000000" fill-rule="nonzero" fill-opacity="1" /><path clip-path="url(#clip000)" d="M56.0789 1337.13 L68.3184 1337.13 L68.3184 1340.08 L51.8602 1340.08 L51.8602 1337.13 Q53.8567 1335.06 57.2942 1331.59 Q60.749 1328.1 61.6344 1327.09 Q63.3184 1325.2 63.9782 1323.9 Q64.6552 1322.58 64.6552 1321.31 Q64.6552 1319.25 63.1969 1317.94 Q61.756 1316.64 59.4296 1316.64 Q57.7803 1316.64 55.94 1317.21 Q54.1171 1317.79 52.0338 1318.95 L52.0338 1315.41 Q54.1518 1314.56 55.9921 1314.12 Q57.8324 1313.69 59.3601 1313.69 Q63.3879 1313.69 65.7837 1315.7 Q68.1795 1317.72 68.1795 1321.09 Q68.1795 1322.68 67.5719 1324.12 Q66.9816 1325.55 65.4018 1327.49 Q64.9677 1328 62.6414 1330.41 Q60.315 1332.81 56.0789 1337.13 Z" fill="#000000" fill-rule="nonzero" fill-opacity="1" /><path clip-path="url(#clip000)" d="M83.1795 1316.47 Q80.4711 1316.47 79.0996 1319.14 Q77.7455 1321.8 77.7455 1327.15 Q77.7455 1332.48 79.0996 1335.15 Q80.4711 1337.81 83.1795 1337.81 Q85.9051 1337.81 87.2593 1335.15 Q88.6308 1332.48 88.6308 1327.15 Q88.6308 1321.8 87.2593 1319.14 Q85.9051 1316.47 83.1795 1316.47 M83.1795 1313.69 Q87.5371 1313.69 89.8287 1317.15 Q92.1377 1320.58 92.1377 1327.15 Q92.1377 1333.69 89.8287 1337.15 Q87.5371 1340.58 83.1795 1340.58 Q78.8218 1340.58 76.5128 1337.15 Q74.2212 1333.69 74.2212 1327.15 Q74.2212 1320.58 76.5128 1317.15 Q78.8218 1313.69 83.1795 1313.69 Z" fill="#000000" fill-rule="nonzero" fill-opacity="1" /><path clip-path="url(#clip000)" d="M62.6935 1187.42 L53.8393 1201.26 L62.6935 1201.26 L62.6935 1187.42 M61.7733 1184.36 L66.183 1184.36 L66.183 1201.26 L69.8809 1201.26 L69.8809 1204.17 L66.183 1204.17 L66.183 1210.28 L62.6935 1210.28 L62.6935 1204.17 L50.9921 1204.17 L50.9921 1200.79 L61.7733 1184.36 Z" fill="#000000" fill-rule="nonzero" fill-opacity="1" /><path clip-path="url(#clip000)" d="M83.1795 1186.67 Q80.4711 1186.67 79.0996 1189.35 Q77.7455 1192 77.7455 1197.35 Q77.7455 1202.68 79.0996 1205.35 Q80.4711 1208.01 83.1795 1208.01 Q85.9051 1208.01 87.2593 1205.35 Q88.6308 1202.68 88.6308 1197.35 Q88.6308 1192 87.2593 1189.35 Q85.9051 1186.67 83.1795 1186.67 M83.1795 1183.9 Q87.5371 1183.9 89.8287 1187.35 Q92.1377 1190.79 92.1377 1197.35 Q92.1377 1203.9 89.8287 1207.35 Q87.5371 1210.79 83.1795 1210.79 Q78.8218 1210.79 76.5128 1207.35 Q74.2212 1203.9 74.2212 1197.35 Q74.2212 1190.79 76.5128 1187.35 Q78.8218 1183.9 83.1795 1183.9 Z" fill="#000000" fill-rule="nonzero" fill-opacity="1" /><path clip-path="url(#clip000)" d="M60.9921 1066.13 Q58.631 1066.13 57.2421 1067.75 Q55.8706 1069.36 55.8706 1072.17 Q55.8706 1074.97 57.2421 1076.6 Q58.631 1078.22 60.9921 1078.22 Q63.3532 1078.22 64.7247 1076.6 Q66.1136 1074.97 66.1136 1072.17 Q66.1136 1069.36 64.7247 1067.75 Q63.3532 1066.13 60.9921 1066.13 M67.9538 1055.14 L67.9538 1058.34 Q66.6344 1057.71 65.2802 1057.38 Q63.9434 1057.05 62.624 1057.05 Q59.1518 1057.05 57.3115 1059.4 Q55.4886 1061.74 55.2282 1066.48 Q56.2525 1064.97 57.7976 1064.17 Q59.3428 1063.35 61.2004 1063.35 Q65.1066 1063.35 67.3636 1065.73 Q69.6379 1068.09 69.6379 1072.17 Q69.6379 1076.17 67.2768 1078.58 Q64.9157 1080.99 60.9921 1080.99 Q56.4956 1080.99 54.1171 1077.56 Q51.7386 1074.1 51.7386 1067.56 Q51.7386 1061.41 54.6553 1057.76 Q57.572 1054.1 62.4851 1054.1 Q63.8046 1054.1 65.1414 1054.36 Q66.4955 1054.62 67.9538 1055.14 Z" fill="#000000" fill-rule="nonzero" fill-opacity="1" /><path clip-path="url(#clip000)" d="M83.1795 1056.88 Q80.4711 1056.88 79.0996 1059.55 Q77.7455 1062.21 77.7455 1067.56 Q77.7455 1072.89 79.0996 1075.56 Q80.4711 1078.22 83.1795 1078.22 Q85.9051 1078.22 87.2593 1075.56 Q88.6308 1072.89 88.6308 1067.56 Q88.6308 1062.21 87.2593 1059.55 Q85.9051 1056.88 83.1795 1056.88 M83.1795 1054.1 Q87.5371 1054.1 89.8287 1057.56 Q92.1377 1060.99 92.1377 1067.56 Q92.1377 1074.1 89.8287 1077.56 Q87.5371 1080.99 83.1795 1080.99 Q78.8218 1080.99 76.5128 1077.56 Q74.2212 1074.1 74.2212 1067.56 Q74.2212 1060.99 76.5128 1057.56 Q78.8218 1054.1 83.1795 1054.1 Z" fill="#000000" fill-rule="nonzero" fill-opacity="1" /><path clip-path="url(#clip000)" d="M60.558 938.385 Q58.0581 938.385 56.6171 939.722 Q55.1935 941.059 55.1935 943.403 Q55.1935 945.747 56.6171 947.083 Q58.0581 948.42 60.558 948.42 Q63.058 948.42 64.499 947.083 Q65.94 945.729 65.94 943.403 Q65.94 941.059 64.499 939.722 Q63.0754 938.385 60.558 938.385 M57.0511 936.892 Q54.7942 936.337 53.5268 934.792 Q52.2768 933.247 52.2768 931.024 Q52.2768 927.917 54.4817 926.111 Q56.7039 924.306 60.558 924.306 Q64.4296 924.306 66.6344 926.111 Q68.8393 927.917 68.8393 931.024 Q68.8393 933.247 67.5719 934.792 Q66.3219 936.337 64.0823 936.892 Q66.617 937.483 68.0233 939.201 Q69.4469 940.92 69.4469 943.403 Q69.4469 947.17 67.1379 949.184 Q64.8462 951.198 60.558 951.198 Q56.2699 951.198 53.9609 949.184 Q51.6692 947.17 51.6692 943.403 Q51.6692 940.92 53.0928 939.201 Q54.5164 937.483 57.0511 936.892 M55.7664 931.354 Q55.7664 933.368 57.0164 934.497 Q58.2838 935.625 60.558 935.625 Q62.815 935.625 64.0823 934.497 Q65.367 933.368 65.367 931.354 Q65.367 929.34 64.0823 928.212 Q62.815 927.083 60.558 927.083 Q58.2838 927.083 57.0164 928.212 Q55.7664 929.34 55.7664 931.354 Z" fill="#000000" fill-rule="nonzero" fill-opacity="1" /><path clip-path="url(#clip000)" d="M83.1795 927.083 Q80.4711 927.083 79.0996 929.757 Q77.7455 932.413 77.7455 937.76 Q77.7455 943.09 79.0996 945.764 Q80.4711 948.42 83.1795 948.42 Q85.9051 948.42 87.2593 945.764 Q88.6308 943.09 88.6308 937.76 Q88.6308 932.413 87.2593 929.757 Q85.9051 927.083 83.1795 927.083 M83.1795 924.306 Q87.5371 924.306 89.8287 927.76 Q92.1377 931.198 92.1377 937.76 Q92.1377 944.306 89.8287 947.76 Q87.5371 951.198 83.1795 951.198 Q78.8218 951.198 76.5128 947.76 Q74.2212 944.306 74.2212 937.76 Q74.2212 931.198 76.5128 927.76 Q78.8218 924.306 83.1795 924.306 Z" fill="#000000" fill-rule="nonzero" fill-opacity="1" /><path clip-path="url(#clip000)" d="M140.036 813.68 Q136.517 813.68 134.619 816.226 Q132.628 818.888 132.628 823.286 Q132.628 827.939 134.596 830.624 Q136.587 833.286 140.036 833.286 Q143.439 833.286 145.429 830.601 Q147.42 827.916 147.42 823.286 Q147.42 819.05 145.429 816.226 Q143.601 813.68 140.036 813.68 M140.036 810.3 L154.179 810.3 L154.179 814.559 L149.411 814.559 Q151.934 818.171 151.934 823.286 Q151.934 829.652 148.763 833.263 Q145.591 836.897 140.036 836.897 Q134.457 836.897 131.309 833.263 Q128.138 829.652 128.138 823.286 Q128.138 816.874 131.309 813.286 Q133.925 810.3 140.036 810.3 Z" fill="#000000" fill-rule="nonzero" fill-opacity="1" /><path clip-path="url(#clip000)" d="M165.198 836.226 L157.281 810.3 L161.864 810.3 L168.554 832.059 Q171.332 829.189 173.647 825.208 Q175.406 822.221 175.499 819.629 Q175.545 818.402 174.989 816.087 Q174.341 813.333 171.888 810.3 L176.193 810.3 L176.193 810.3 Q177.79 812.36 178.855 815.231 Q179.827 817.87 179.827 819.675 Q179.827 824.212 176.679 828.263 Q172.582 833.541 169.735 836.226 L165.198 836.226 Z" fill="#000000" fill-rule="nonzero" fill-opacity="1" /><path clip-path="url(#clip004)" d="M184.494 1359.57 L184.494 1456.91 L366.875 1456.91 L366.875 1359.57 L184.494 1359.57 L184.494 1359.57  Z" fill="#009af9" fill-rule="evenodd" fill-opacity="1"/>
<polyline clip-path="url(#clip004)" style="stroke:#000000; stroke-linecap:round; stroke-linejoin:round; stroke-width:4; stroke-opacity:1; fill:none" points="184.494,1359.57 184.494,1456.91 366.875,1456.91 366.875,1359.57 184.494,1359.57 "/>
<path clip-path="url(#clip004)" d="M366.875 1099.98 L366.875 1456.91 L549.256 1456.91 L549.256 1099.98 L366.875 1099.98 L366.875 1099.98  Z" fill="#009af9" fill-rule="evenodd" fill-opacity="1"/>
<polyline clip-path="url(#clip004)" style="stroke:#000000; stroke-linecap:round; stroke-linejoin:round; stroke-width:4; stroke-opacity:1; fill:none" points="366.875,1099.98 366.875,1456.91 549.256,1456.91 549.256,1099.98 366.875,1099.98 "/>
<path clip-path="url(#clip004)" d="M549.256 892.306 L549.256 1456.91 L731.637 1456.91 L731.637 892.306 L549.256 892.306 L549.256 892.306  Z" fill="#009af9" fill-rule="evenodd" fill-opacity="1"/>
<polyline clip-path="url(#clip004)" style="stroke:#000000; stroke-linecap:round; stroke-linejoin:round; stroke-width:4; stroke-opacity:1; fill:none" points="549.256,892.306 549.256,1456.91 731.637,1456.91 731.637,892.306 549.256,892.306 "/>
<path clip-path="url(#clip004)" d="M731.637 1132.43 L731.637 1456.91 L914.019 1456.91 L914.019 1132.43 L731.637 1132.43 L731.637 1132.43  Z" fill="#009af9" fill-rule="evenodd" fill-opacity="1"/>
<polyline clip-path="url(#clip004)" style="stroke:#000000; stroke-linecap:round; stroke-linejoin:round; stroke-width:4; stroke-opacity:1; fill:none" points="731.637,1132.43 731.637,1456.91 914.019,1456.91 914.019,1132.43 731.637,1132.43 "/>
<path clip-path="url(#clip004)" d="M914.019 1366.06 L914.019 1456.91 L1096.4 1456.91 L1096.4 1366.06 L914.019 1366.06 L914.019 1366.06  Z" fill="#009af9" fill-rule="evenodd" fill-opacity="1"/>
<polyline clip-path="url(#clip004)" style="stroke:#000000; stroke-linecap:round; stroke-linejoin:round; stroke-width:4; stroke-opacity:1; fill:none" points="914.019,1366.06 914.019,1456.91 1096.4,1456.91 1096.4,1366.06 914.019,1366.06 "/>
<circle clip-path="url(#clip004)" style="fill:#009af9; stroke:none; fill-opacity:0" cx="275.684" cy="1359.57" r="2"/>
<circle clip-path="url(#clip004)" style="fill:#009af9; stroke:none; fill-opacity:0" cx="458.066" cy="1099.98" r="2"/>
<circle clip-path="url(#clip004)" style="fill:#009af9; stroke:none; fill-opacity:0" cx="640.447" cy="892.306" r="2"/>
<circle clip-path="url(#clip004)" style="fill:#009af9; stroke:none; fill-opacity:0" cx="822.828" cy="1132.43" r="2"/>
<circle clip-path="url(#clip004)" style="fill:#009af9; stroke:none; fill-opacity:0" cx="1005.21" cy="1366.06" r="2"/>
<polyline clip-path="url(#clip004)" style="stroke:#ff0000; stroke-linecap:round; stroke-linejoin:round; stroke-width:8; stroke-opacity:1; fill:none" stroke-dasharray="32, 20" points="611.087,2021.52 611.087,327.698 "/>
<polyline clip-path="url(#clip004)" style="stroke:#ff0000; stroke-linecap:round; stroke-linejoin:round; stroke-width:6; stroke-opacity:1; fill:none" stroke-dasharray="24, 12, 3, 12" points="241.312,2021.52 241.312,327.698 "/>
<polyline clip-path="url(#clip004)" style="stroke:#ff0000; stroke-linecap:round; stroke-linejoin:round; stroke-width:6; stroke-opacity:1; fill:none" stroke-dasharray="24, 12, 3, 12" points="1007.59,2021.52 1007.59,327.698 "/>
</svg>
