<?xml version="1.0" encoding="utf-8"?>
<svg xmlns="http://www.w3.org/2000/svg" xmlns:xlink="http://www.w3.org/1999/xlink" width="600" height="400" viewBox="0 0 2400 1600">
<defs>
  <clipPath id="clip030">
    <rect x="0" y="0" width="2400" height="1600"/>
  </clipPath>
</defs>
<path clip-path="url(#clip030)" d="M0 1600 L2400 1600 L2400 0 L0 0  Z" fill="#ffffff" fill-rule="evenodd" fill-opacity="1"/>
<defs>
  <clipPath id="clip031">
    <rect x="480" y="0" width="1681" height="1600"/>
  </clipPath>
</defs>
<path clip-path="url(#clip030)" d="M161.818 662.16 L1152.94 662.16 L1152.94 97.5521 L161.818 97.5521  Z" fill="#ffffff" fill-rule="evenodd" fill-opacity="1"/>
<defs>
  <clipPath id="clip032">
    <rect x="161" y="97" width="992" height="566"/>
  </clipPath>
</defs>
<polyline clip-path="url(#clip032)" style="stroke:#000000; stroke-linecap:round; stroke-linejoin:round; stroke-width:2; stroke-opacity:0.1; fill:none" points="171.887,662.16 171.887,97.5521 "/>
<polyline clip-path="url(#clip032)" style="stroke:#000000; stroke-linecap:round; stroke-linejoin:round; stroke-width:2; stroke-opacity:0.1; fill:none" points="433.737,662.16 433.737,97.5521 "/>
<polyline clip-path="url(#clip032)" style="stroke:#000000; stroke-linecap:round; stroke-linejoin:round; stroke-width:2; stroke-opacity:0.1; fill:none" points="695.588,662.16 695.588,97.5521 "/>
<polyline clip-path="url(#clip032)" style="stroke:#000000; stroke-linecap:round; stroke-linejoin:round; stroke-width:2; stroke-opacity:0.1; fill:none" points="957.438,662.16 957.438,97.5521 "/>
<polyline clip-path="url(#clip032)" style="stroke:#000000; stroke-linecap:round; stroke-linejoin:round; stroke-width:2; stroke-opacity:0.1; fill:none" points="161.818,646.181 1152.94,646.181 "/>
<polyline clip-path="url(#clip032)" style="stroke:#000000; stroke-linecap:round; stroke-linejoin:round; stroke-width:2; stroke-opacity:0.1; fill:none" points="161.818,536.948 1152.94,536.948 "/>
<polyline clip-path="url(#clip032)" style="stroke:#000000; stroke-linecap:round; stroke-linejoin:round; stroke-width:2; stroke-opacity:0.1; fill:none" points="161.818,427.716 1152.94,427.716 "/>
<polyline clip-path="url(#clip032)" style="stroke:#000000; stroke-linecap:round; stroke-linejoin:round; stroke-width:2; stroke-opacity:0.1; fill:none" points="161.818,318.483 1152.94,318.483 "/>
<polyline clip-path="url(#clip032)" style="stroke:#000000; stroke-linecap:round; stroke-linejoin:round; stroke-width:2; stroke-opacity:0.1; fill:none" points="161.818,209.251 1152.94,209.251 "/>
<polyline clip-path="url(#clip032)" style="stroke:#000000; stroke-linecap:round; stroke-linejoin:round; stroke-width:2; stroke-opacity:0.1; fill:none" points="161.818,100.018 1152.94,100.018 "/>
<polyline clip-path="url(#clip030)" style="stroke:#000000; stroke-linecap:round; stroke-linejoin:round; stroke-width:4; stroke-opacity:1; fill:none" points="161.818,662.16 1152.94,662.16 "/>
<polyline clip-path="url(#clip030)" style="stroke:#000000; stroke-linecap:round; stroke-linejoin:round; stroke-width:4; stroke-opacity:1; fill:none" points="171.887,662.16 171.887,643.263 "/>
<polyline clip-path="url(#clip030)" style="stroke:#000000; stroke-linecap:round; stroke-linejoin:round; stroke-width:4; stroke-opacity:1; fill:none" points="433.737,662.16 433.737,643.263 "/>
<polyline clip-path="url(#clip030)" style="stroke:#000000; stroke-linecap:round; stroke-linejoin:round; stroke-width:4; stroke-opacity:1; fill:none" points="695.588,662.16 695.588,643.263 "/>
<polyline clip-path="url(#clip030)" style="stroke:#000000; stroke-linecap:round; stroke-linejoin:round; stroke-width:4; stroke-opacity:1; fill:none" points="957.438,662.16 957.438,643.263 "/>
<path clip-path="url(#clip030)" d="M118.038 733.893 Q116.123 735.808 117.044 738.668 Q117.964 741.504 121.745 745.285 Q125.514 749.054 128.362 749.987 Q131.21 750.895 133.125 748.98 Q135.053 747.053 134.132 744.217 Q133.211 741.357 129.443 737.588 Q125.662 733.807 122.813 732.898 Q119.965 731.966 118.038 733.893 M116.074 731.929 Q119.155 728.847 123.219 729.67 Q127.282 730.468 131.922 735.108 Q136.55 739.736 137.361 743.812 Q138.171 747.863 135.09 750.944 Q132.008 754.026 127.945 753.228 Q123.882 752.405 119.253 747.777 Q114.613 743.137 113.803 739.086 Q112.993 735.01 116.074 731.929 Z" fill="#000000" fill-rule="nonzero" fill-opacity="1" /><path clip-path="url(#clip030)" d="M142.308 736.778 L144.898 734.187 L148.016 737.306 L145.426 739.896 L142.308 736.778 Z" fill="#000000" fill-rule="nonzero" fill-opacity="1" /><path clip-path="url(#clip030)" d="M150.017 717.897 Q148.25 719.665 148.176 721.629 Q148.115 723.581 149.772 725.238 Q151.429 726.895 153.381 726.834 Q155.345 726.76 157.113 724.993 Q158.881 723.225 158.954 721.261 Q159.016 719.284 157.371 717.639 Q155.713 715.982 153.749 716.056 Q151.797 716.117 150.017 717.897 M146.482 719.321 Q144.493 720.524 142.504 720.328 Q140.528 720.119 138.957 718.548 Q136.759 716.35 137.041 713.515 Q137.336 710.666 140.061 707.941 Q142.799 705.204 145.635 704.921 Q148.471 704.639 150.668 706.836 Q152.239 708.408 152.436 710.396 Q152.644 712.373 151.454 714.349 Q153.663 712.974 155.873 713.195 Q158.095 713.404 159.85 715.16 Q162.514 717.823 162.306 720.88 Q162.109 723.925 159.077 726.957 Q156.045 729.989 152.988 730.198 Q149.944 730.394 147.28 727.73 Q145.524 725.975 145.316 723.753 Q145.107 721.531 146.482 719.321 M141.657 716.313 Q143.081 717.738 144.763 717.652 Q146.457 717.553 148.065 715.945 Q149.661 714.349 149.76 712.655 Q149.87 710.949 148.446 709.525 Q147.022 708.101 145.316 708.211 Q143.621 708.309 142.026 709.905 Q140.417 711.514 140.319 713.208 Q140.233 714.889 141.657 716.313 Z" fill="#000000" fill-rule="nonzero" fill-opacity="1" /><path clip-path="url(#clip030)" d="M158.021 693.91 Q156.106 695.825 157.027 698.685 Q157.948 701.521 161.729 705.302 Q165.497 709.071 168.346 710.004 Q171.194 710.912 173.109 708.997 Q175.036 707.07 174.115 704.234 Q173.195 701.373 169.426 697.605 Q165.645 693.824 162.797 692.915 Q159.949 691.982 158.021 693.91 M156.057 691.945 Q159.138 688.864 163.202 689.687 Q167.265 690.485 171.906 695.125 Q176.534 699.753 177.344 703.829 Q178.154 707.88 175.073 710.961 Q171.992 714.042 167.928 713.244 Q163.865 712.422 159.237 707.794 Q154.596 703.154 153.786 699.102 Q152.976 695.027 156.057 691.945 Z" fill="#000000" fill-rule="nonzero" fill-opacity="1" /><path clip-path="url(#clip030)" d="M380.416 733.365 Q378.501 735.28 379.422 738.14 Q380.343 740.976 384.124 744.757 Q387.892 748.526 390.74 749.459 Q393.588 750.367 395.504 748.452 Q397.431 746.525 396.51 743.689 Q395.589 740.829 391.821 737.06 Q388.04 733.279 385.192 732.371 Q382.344 731.438 380.416 733.365 M378.452 731.401 Q381.533 728.32 385.597 729.142 Q389.66 729.94 394.3 734.58 Q398.929 739.208 399.739 743.284 Q400.549 747.335 397.468 750.416 Q394.386 753.498 390.323 752.7 Q386.26 751.877 381.632 747.249 Q376.991 742.609 376.181 738.558 Q375.371 734.482 378.452 731.401 Z" fill="#000000" fill-rule="nonzero" fill-opacity="1" /><path clip-path="url(#clip030)" d="M404.686 736.25 L407.276 733.66 L410.394 736.778 L407.804 739.368 L404.686 736.25 Z" fill="#000000" fill-rule="nonzero" fill-opacity="1" /><path clip-path="url(#clip030)" d="M412.395 717.369 Q410.628 719.137 410.554 721.101 Q410.493 723.053 412.15 724.71 Q413.807 726.368 415.759 726.306 Q417.723 726.233 419.491 724.465 Q421.259 722.697 421.332 720.733 Q421.394 718.756 419.749 717.111 Q418.092 715.454 416.127 715.528 Q414.175 715.589 412.395 717.369 M408.86 718.793 Q406.871 719.996 404.882 719.8 Q402.906 719.591 401.335 718.02 Q399.137 715.822 399.42 712.987 Q399.714 710.139 402.44 707.413 Q405.177 704.676 408.013 704.393 Q410.849 704.111 413.046 706.308 Q414.617 707.88 414.814 709.869 Q415.023 711.845 413.832 713.821 Q416.041 712.447 418.251 712.667 Q420.473 712.876 422.229 714.632 Q424.892 717.296 424.684 720.352 Q424.487 723.397 421.455 726.429 Q418.423 729.461 415.366 729.67 Q412.322 729.866 409.658 727.202 Q407.902 725.447 407.694 723.225 Q407.485 721.003 408.86 718.793 M404.035 715.786 Q405.459 717.21 407.141 717.124 Q408.835 717.025 410.444 715.417 Q412.039 713.821 412.138 712.127 Q412.248 710.421 410.824 708.997 Q409.4 707.573 407.694 707.683 Q406 707.782 404.404 709.377 Q402.796 710.986 402.697 712.68 Q402.611 714.362 404.035 715.786 Z" fill="#000000" fill-rule="nonzero" fill-opacity="1" /><path clip-path="url(#clip030)" d="M413.488 697.028 L423.223 687.293 L425.31 689.38 L417.846 696.844 L422.339 701.337 Q422.695 700.612 423.149 699.986 Q423.591 699.348 424.131 698.808 Q427.2 695.739 430.675 695.628 Q434.149 695.518 437.021 698.39 Q439.98 701.349 439.783 704.835 Q439.575 708.309 436.223 711.661 Q435.069 712.815 433.67 713.821 Q432.283 714.816 430.613 715.7 L428.121 713.208 Q429.827 712.704 431.301 711.82 Q432.774 710.937 434.087 709.623 Q436.211 707.499 436.334 705.142 Q436.457 702.785 434.542 700.87 Q432.626 698.955 430.269 699.078 Q427.912 699.201 425.789 701.324 Q424.794 702.319 424.021 703.534 Q423.26 704.737 422.695 706.235 L413.488 697.028 Z" fill="#000000" fill-rule="nonzero" fill-opacity="1" /><path clip-path="url(#clip030)" d="M641.739 733.893 Q639.823 735.808 640.744 738.668 Q641.665 741.504 645.446 745.285 Q649.215 749.054 652.063 749.987 Q654.911 750.895 656.826 748.98 Q658.753 747.053 657.833 744.217 Q656.912 741.357 653.143 737.588 Q649.362 733.807 646.514 732.898 Q643.666 731.966 641.739 733.893 M639.774 731.929 Q642.856 728.847 646.919 729.67 Q650.982 730.468 655.623 735.108 Q660.251 739.736 661.061 743.812 Q661.871 747.863 658.79 750.944 Q655.709 754.026 651.645 753.228 Q647.582 752.405 642.954 747.777 Q638.314 743.137 637.503 739.086 Q636.693 735.01 639.774 731.929 Z" fill="#000000" fill-rule="nonzero" fill-opacity="1" /><path clip-path="url(#clip030)" d="M666.008 736.778 L668.599 734.187 L671.717 737.306 L669.127 739.896 L666.008 736.778 Z" fill="#000000" fill-rule="nonzero" fill-opacity="1" /><path clip-path="url(#clip030)" d="M676.811 731.45 L674.553 729.191 Q675.927 728.7 677.118 727.976 Q678.309 727.251 679.23 726.331 Q681.685 723.876 681.329 720.942 Q680.973 717.983 677.793 714.435 Q678.137 716.203 677.609 717.86 Q677.081 719.518 675.756 720.843 Q673.006 723.593 669.74 723.544 Q666.475 723.47 663.59 720.586 Q660.767 717.762 660.73 714.386 Q660.693 711.01 663.467 708.236 Q666.647 705.056 670.759 705.83 Q674.872 706.579 679.512 711.219 Q683.846 715.552 684.373 720.205 Q684.901 724.833 681.427 728.307 Q680.494 729.24 679.353 730.014 Q678.211 730.787 676.811 731.45 M673.976 718.744 Q675.645 717.075 675.473 714.963 Q675.314 712.839 673.325 710.851 Q671.349 708.874 669.225 708.715 Q667.101 708.53 665.431 710.2 Q663.762 711.87 663.934 714.006 Q664.106 716.117 666.082 718.094 Q668.071 720.082 670.182 720.254 Q672.306 720.414 673.976 718.744 Z" fill="#000000" fill-rule="nonzero" fill-opacity="1" /><path clip-path="url(#clip030)" d="M681.722 693.91 Q679.807 695.825 680.727 698.685 Q681.648 701.521 685.429 705.302 Q689.198 709.071 692.046 710.004 Q694.894 710.912 696.809 708.997 Q698.736 707.07 697.816 704.234 Q696.895 701.373 693.126 697.605 Q689.345 693.824 686.497 692.915 Q683.649 691.982 681.722 693.91 M679.758 691.945 Q682.839 688.864 686.902 689.687 Q690.966 690.485 695.606 695.125 Q700.234 699.753 701.044 703.829 Q701.855 707.88 698.773 710.961 Q695.692 714.042 691.629 713.244 Q687.565 712.422 682.937 707.794 Q678.297 703.154 677.487 699.102 Q676.676 695.027 679.758 691.945 Z" fill="#000000" fill-rule="nonzero" fill-opacity="1" /><path clip-path="url(#clip030)" d="M904.117 733.365 Q902.202 735.28 903.122 738.14 Q904.043 740.976 907.824 744.757 Q911.593 748.526 914.441 749.459 Q917.289 750.367 919.204 748.452 Q921.131 746.525 920.211 743.689 Q919.29 740.829 915.521 737.06 Q911.74 733.279 908.892 732.371 Q906.044 731.438 904.117 733.365 M902.152 731.401 Q905.234 728.32 909.297 729.142 Q913.361 729.94 918.001 734.58 Q922.629 739.208 923.439 743.284 Q924.249 747.335 921.168 750.416 Q918.087 753.498 914.023 752.7 Q909.96 751.877 905.332 747.249 Q900.692 742.609 899.881 738.558 Q899.071 734.482 902.152 731.401 Z" fill="#000000" fill-rule="nonzero" fill-opacity="1" /><path clip-path="url(#clip030)" d="M928.387 736.25 L930.977 733.66 L934.095 736.778 L931.505 739.368 L928.387 736.25 Z" fill="#000000" fill-rule="nonzero" fill-opacity="1" /><path clip-path="url(#clip030)" d="M939.189 730.922 L936.931 728.663 Q938.306 728.172 939.496 727.448 Q940.687 726.724 941.608 725.803 Q944.063 723.348 943.707 720.414 Q943.351 717.455 940.172 713.907 Q940.515 715.675 939.987 717.332 Q939.46 718.99 938.134 720.315 Q935.384 723.065 932.118 723.016 Q928.853 722.943 925.968 720.058 Q923.145 717.234 923.108 713.858 Q923.071 710.482 925.845 707.708 Q929.025 704.528 933.137 705.302 Q937.25 706.051 941.89 710.691 Q946.224 715.024 946.752 719.677 Q947.279 724.305 943.805 727.779 Q942.872 728.712 941.731 729.486 Q940.589 730.259 939.189 730.922 M936.354 718.216 Q938.023 716.547 937.851 714.435 Q937.692 712.311 935.703 710.323 Q933.727 708.346 931.603 708.187 Q929.479 708.003 927.81 709.672 Q926.14 711.342 926.312 713.478 Q926.484 715.589 928.46 717.566 Q930.449 719.554 932.56 719.726 Q934.684 719.886 936.354 718.216 Z" fill="#000000" fill-rule="nonzero" fill-opacity="1" /><path clip-path="url(#clip030)" d="M937.188 697.028 L946.923 687.293 L949.01 689.38 L941.546 696.844 L946.04 701.337 Q946.396 700.612 946.85 699.986 Q947.292 699.348 947.832 698.808 Q950.901 695.739 954.375 695.628 Q957.849 695.518 960.722 698.39 Q963.68 701.349 963.484 704.835 Q963.275 708.309 959.924 711.661 Q958.77 712.815 957.37 713.821 Q955.983 714.816 954.314 715.7 L951.822 713.208 Q953.528 712.704 955.001 711.82 Q956.474 710.937 957.788 709.623 Q959.912 707.499 960.034 705.142 Q960.157 702.785 958.242 700.87 Q956.327 698.955 953.97 699.078 Q951.613 699.201 949.489 701.324 Q948.495 702.319 947.721 703.534 Q946.96 704.737 946.396 706.235 L937.188 697.028 Z" fill="#000000" fill-rule="nonzero" fill-opacity="1" /><polyline clip-path="url(#clip030)" style="stroke:#000000; stroke-linecap:round; stroke-linejoin:round; stroke-width:4; stroke-opacity:1; fill:none" points="161.818,662.16 161.818,97.5521 "/>
<polyline clip-path="url(#clip030)" style="stroke:#000000; stroke-linecap:round; stroke-linejoin:round; stroke-width:4; stroke-opacity:1; fill:none" points="161.818,646.181 180.716,646.181 "/>
<polyline clip-path="url(#clip030)" style="stroke:#000000; stroke-linecap:round; stroke-linejoin:round; stroke-width:4; stroke-opacity:1; fill:none" points="161.818,536.948 180.716,536.948 "/>
<polyline clip-path="url(#clip030)" style="stroke:#000000; stroke-linecap:round; stroke-linejoin:round; stroke-width:4; stroke-opacity:1; fill:none" points="161.818,427.716 180.716,427.716 "/>
<polyline clip-path="url(#clip030)" style="stroke:#000000; stroke-linecap:round; stroke-linejoin:round; stroke-width:4; stroke-opacity:1; fill:none" points="161.818,318.483 180.716,318.483 "/>
<polyline clip-path="url(#clip030)" style="stroke:#000000; stroke-linecap:round; stroke-linejoin:round; stroke-width:4; stroke-opacity:1; fill:none" points="161.818,209.251 180.716,209.251 "/>
<polyline clip-path="url(#clip030)" style="stroke:#000000; stroke-linecap:round; stroke-linejoin:round; stroke-width:4; stroke-opacity:1; fill:none" points="161.818,100.018 180.716,100.018 "/>
<path clip-path="url(#clip030)" d="M116.86 635.53 Q114.152 635.53 112.78 638.204 Q111.426 640.86 111.426 646.207 Q111.426 651.537 112.78 654.21 Q114.152 656.867 116.86 656.867 Q119.586 656.867 120.94 654.21 Q122.311 651.537 122.311 646.207 Q122.311 640.86 120.94 638.204 Q119.586 635.53 116.86 635.53 M116.86 632.752 Q121.217 632.752 123.509 636.207 Q125.818 639.644 125.818 646.207 Q125.818 652.752 123.509 656.207 Q121.217 659.644 116.86 659.644 Q112.502 659.644 110.193 656.207 Q107.902 652.752 107.902 646.207 Q107.902 639.644 110.193 636.207 Q112.502 632.752 116.86 632.752 Z" fill="#000000" fill-rule="nonzero" fill-opacity="1" /><path clip-path="url(#clip030)" d="M110.888 546.957 L116.617 546.957 L116.617 527.183 L110.384 528.433 L110.384 525.238 L116.582 523.988 L120.089 523.988 L120.089 546.957 L125.818 546.957 L125.818 549.908 L110.888 549.908 L110.888 546.957 Z" fill="#000000" fill-rule="nonzero" fill-opacity="1" /><path clip-path="url(#clip030)" d="M113.579 437.724 L125.818 437.724 L125.818 440.676 L109.36 440.676 L109.36 437.724 Q111.356 435.658 114.794 432.186 Q118.249 428.697 119.134 427.69 Q120.818 425.797 121.478 424.495 Q122.155 423.176 122.155 421.908 Q122.155 419.842 120.697 418.54 Q119.256 417.238 116.929 417.238 Q115.28 417.238 113.44 417.811 Q111.617 418.384 109.533 419.547 L109.533 416.006 Q111.652 415.155 113.492 414.721 Q115.332 414.287 116.86 414.287 Q120.888 414.287 123.283 416.301 Q125.679 418.315 125.679 421.683 Q125.679 423.28 125.072 424.721 Q124.481 426.145 122.901 428.089 Q122.467 428.592 120.141 431.006 Q117.815 433.401 113.579 437.724 Z" fill="#000000" fill-rule="nonzero" fill-opacity="1" /><path clip-path="url(#clip030)" d="M120.471 317.467 Q122.988 318.006 124.395 319.707 Q125.818 321.408 125.818 323.908 Q125.818 327.745 123.179 329.846 Q120.54 331.947 115.679 331.947 Q114.047 331.947 112.311 331.617 Q110.593 331.304 108.752 330.662 L108.752 327.276 Q110.211 328.127 111.947 328.561 Q113.683 328.995 115.575 328.995 Q118.874 328.995 120.592 327.693 Q122.329 326.391 122.329 323.908 Q122.329 321.617 120.714 320.332 Q119.117 319.03 116.252 319.03 L113.231 319.03 L113.231 316.148 L116.391 316.148 Q118.978 316.148 120.349 315.124 Q121.721 314.082 121.721 312.138 Q121.721 310.141 120.297 309.082 Q118.891 308.006 116.252 308.006 Q114.811 308.006 113.162 308.318 Q111.513 308.631 109.533 309.29 L109.533 306.165 Q111.53 305.61 113.266 305.332 Q115.02 305.054 116.565 305.054 Q120.558 305.054 122.884 306.877 Q125.21 308.683 125.21 311.773 Q125.21 313.926 123.978 315.419 Q122.745 316.895 120.471 317.467 Z" fill="#000000" fill-rule="nonzero" fill-opacity="1" /><path clip-path="url(#clip030)" d="M118.631 199.346 L109.777 213.183 L118.631 213.183 L118.631 199.346 M117.711 196.291 L122.12 196.291 L122.12 213.183 L125.818 213.183 L125.818 216.099 L122.12 216.099 L122.12 222.211 L118.631 222.211 L118.631 216.099 L106.929 216.099 L106.929 212.714 L117.711 196.291 Z" fill="#000000" fill-rule="nonzero" fill-opacity="1" /><path clip-path="url(#clip030)" d="M110.141 87.0579 L123.908 87.0579 L123.908 90.0093 L113.353 90.0093 L113.353 96.3634 Q114.117 96.103 114.881 95.9815 Q115.645 95.8426 116.408 95.8426 Q120.749 95.8426 123.283 98.2211 Q125.818 100.6 125.818 104.662 Q125.818 108.846 123.214 111.172 Q120.61 113.481 115.87 113.481 Q114.238 113.481 112.537 113.204 Q110.853 112.926 109.047 112.37 L109.047 108.846 Q110.61 109.697 112.277 110.113 Q113.943 110.53 115.801 110.53 Q118.804 110.53 120.558 108.95 Q122.311 107.37 122.311 104.662 Q122.311 101.954 120.558 100.374 Q118.804 98.794 115.801 98.794 Q114.395 98.794 112.988 99.1065 Q111.599 99.419 110.141 100.079 L110.141 87.0579 Z" fill="#000000" fill-rule="nonzero" fill-opacity="1" /><path clip-path="url(#clip030)" d="M163.901 20.1758 Q165.313 17.8147 168.809 15.7314 Q170.175 14.9212 174.387 14.9212 Q179.11 14.9212 182.049 18.6712 Q185.012 22.4212 185.012 28.5323 Q185.012 34.6433 182.049 38.3933 Q179.11 42.1433 174.387 42.1433 Q171.54 42.1433 169.48 41.0322 Q167.443 39.8979 166.1 37.5831 L166.1 51.3331 L161.818 51.3331 L161.818 28.7637 Q161.818 23.4165 163.901 20.1758 M180.591 28.5323 Q180.591 23.8332 178.647 21.1712 Q176.725 18.486 173.346 18.486 Q169.966 18.486 168.022 21.1712 Q166.1 23.8332 166.1 28.5323 Q166.1 33.2313 168.022 35.9165 Q169.966 38.5785 173.346 38.5785 Q176.725 38.5785 178.647 35.9165 Q180.591 33.2313 180.591 28.5323 Z" fill="#000000" fill-rule="nonzero" fill-opacity="1" /><polyline clip-path="url(#clip032)" style="stroke:#009af9; stroke-linecap:round; stroke-linejoin:round; stroke-width:4; stroke-opacity:1; fill:none" points="189.869,597.51 248.307,601.025 306.746,604.991 365.185,609.503 423.623,614.679 482.062,620.677 540.501,627.712 598.939,636.075 657.378,646.181 715.817,633.723 774.256,617.986 832.694,597.477 891.133,569.634 949.572,529.664 1008.01,467.43 1066.45,357.32 1124.89,113.532 "/>
<circle clip-path="url(#clip032)" cx="657.378" cy="646.181" r="10.8" fill="#ff0000" fill-rule="evenodd" fill-opacity="1" stroke="#000000" stroke-opacity="1" stroke-width="3.2"/>
<path clip-path="url(#clip030)" d="M1361.64 662.16 L2352.76 662.16 L2352.76 97.5521 L1361.64 97.5521  Z" fill="#ffffff" fill-rule="evenodd" fill-opacity="1"/>
<defs>
  <clipPath id="clip033">
    <rect x="1361" y="97" width="992" height="566"/>
  </clipPath>
</defs>
<polyline clip-path="url(#clip033)" style="stroke:#000000; stroke-linecap:round; stroke-linejoin:round; stroke-width:2; stroke-opacity:0.1; fill:none" points="1435.57,662.16 1435.57,97.5521 "/>
<polyline clip-path="url(#clip033)" style="stroke:#000000; stroke-linecap:round; stroke-linejoin:round; stroke-width:2; stroke-opacity:0.1; fill:none" points="1582.24,662.16 1582.24,97.5521 "/>
<polyline clip-path="url(#clip033)" style="stroke:#000000; stroke-linecap:round; stroke-linejoin:round; stroke-width:2; stroke-opacity:0.1; fill:none" points="1728.91,662.16 1728.91,97.5521 "/>
<polyline clip-path="url(#clip033)" style="stroke:#000000; stroke-linecap:round; stroke-linejoin:round; stroke-width:2; stroke-opacity:0.1; fill:none" points="1875.58,662.16 1875.58,97.5521 "/>
<polyline clip-path="url(#clip033)" style="stroke:#000000; stroke-linecap:round; stroke-linejoin:round; stroke-width:2; stroke-opacity:0.1; fill:none" points="2022.25,662.16 2022.25,97.5521 "/>
<polyline clip-path="url(#clip033)" style="stroke:#000000; stroke-linecap:round; stroke-linejoin:round; stroke-width:2; stroke-opacity:0.1; fill:none" points="2168.93,662.16 2168.93,97.5521 "/>
<polyline clip-path="url(#clip033)" style="stroke:#000000; stroke-linecap:round; stroke-linejoin:round; stroke-width:2; stroke-opacity:0.1; fill:none" points="2315.6,662.16 2315.6,97.5521 "/>
<polyline clip-path="url(#clip033)" style="stroke:#000000; stroke-linecap:round; stroke-linejoin:round; stroke-width:2; stroke-opacity:0.1; fill:none" points="1361.64,646.181 2352.76,646.181 "/>
<polyline clip-path="url(#clip033)" style="stroke:#000000; stroke-linecap:round; stroke-linejoin:round; stroke-width:2; stroke-opacity:0.1; fill:none" points="1361.64,504.352 2352.76,504.352 "/>
<polyline clip-path="url(#clip033)" style="stroke:#000000; stroke-linecap:round; stroke-linejoin:round; stroke-width:2; stroke-opacity:0.1; fill:none" points="1361.64,362.522 2352.76,362.522 "/>
<polyline clip-path="url(#clip033)" style="stroke:#000000; stroke-linecap:round; stroke-linejoin:round; stroke-width:2; stroke-opacity:0.1; fill:none" points="1361.64,220.693 2352.76,220.693 "/>
<polyline clip-path="url(#clip030)" style="stroke:#000000; stroke-linecap:round; stroke-linejoin:round; stroke-width:4; stroke-opacity:1; fill:none" points="1361.64,662.16 2352.76,662.16 "/>
<polyline clip-path="url(#clip030)" style="stroke:#000000; stroke-linecap:round; stroke-linejoin:round; stroke-width:4; stroke-opacity:1; fill:none" points="1435.57,662.16 1435.57,643.263 "/>
<polyline clip-path="url(#clip030)" style="stroke:#000000; stroke-linecap:round; stroke-linejoin:round; stroke-width:4; stroke-opacity:1; fill:none" points="1582.24,662.16 1582.24,643.263 "/>
<polyline clip-path="url(#clip030)" style="stroke:#000000; stroke-linecap:round; stroke-linejoin:round; stroke-width:4; stroke-opacity:1; fill:none" points="1728.91,662.16 1728.91,643.263 "/>
<polyline clip-path="url(#clip030)" style="stroke:#000000; stroke-linecap:round; stroke-linejoin:round; stroke-width:4; stroke-opacity:1; fill:none" points="1875.58,662.16 1875.58,643.263 "/>
<polyline clip-path="url(#clip030)" style="stroke:#000000; stroke-linecap:round; stroke-linejoin:round; stroke-width:4; stroke-opacity:1; fill:none" points="2022.25,662.16 2022.25,643.263 "/>
<polyline clip-path="url(#clip030)" style="stroke:#000000; stroke-linecap:round; stroke-linejoin:round; stroke-width:4; stroke-opacity:1; fill:none" points="2168.93,662.16 2168.93,643.263 "/>
<polyline clip-path="url(#clip030)" style="stroke:#000000; stroke-linecap:round; stroke-linejoin:round; stroke-width:4; stroke-opacity:1; fill:none" points="2315.6,662.16 2315.6,643.263 "/>
<path clip-path="url(#clip030)" d="M1381.82 733.795 Q1379.9 735.71 1380.82 738.57 Q1381.74 741.406 1385.53 745.187 Q1389.29 748.956 1392.14 749.889 Q1394.99 750.797 1396.91 748.882 Q1398.83 746.955 1397.91 744.119 Q1396.99 741.259 1393.22 737.49 Q1389.44 733.709 1386.59 732.8 Q1383.75 731.867 1381.82 733.795 M1379.85 731.83 Q1382.94 728.749 1387 729.572 Q1391.06 730.37 1395.7 735.01 Q1400.33 739.638 1401.14 743.714 Q1401.95 747.765 1398.87 750.846 Q1395.79 753.927 1391.72 753.129 Q1387.66 752.307 1383.03 747.679 Q1378.39 743.039 1377.58 738.987 Q1376.77 734.912 1379.85 731.83 Z" fill="#000000" fill-rule="nonzero" fill-opacity="1" /><path clip-path="url(#clip030)" d="M1406.09 736.68 L1408.68 734.089 L1411.8 737.207 L1409.21 739.798 L1406.09 736.68 Z" fill="#000000" fill-rule="nonzero" fill-opacity="1" /><path clip-path="url(#clip030)" d="M1417.25 727.583 L1425.9 718.928 L1427.99 721.015 L1416.35 732.653 L1414.26 730.566 Q1414.21 727.693 1414.19 722.808 Q1414.17 717.897 1414.08 716.559 Q1413.93 714.03 1413.48 712.643 Q1413.02 711.231 1412.13 710.335 Q1410.67 708.874 1408.71 708.985 Q1406.78 709.083 1405.13 710.728 Q1403.96 711.894 1403.07 713.6 Q1402.18 715.295 1401.53 717.59 L1399.03 715.086 Q1399.93 712.987 1400.92 711.378 Q1401.91 709.77 1402.99 708.69 Q1405.84 705.842 1408.96 705.572 Q1412.08 705.302 1414.46 707.683 Q1415.59 708.813 1416.18 710.261 Q1416.77 711.685 1417.03 714.177 Q1417.07 714.84 1417.14 718.192 Q1417.19 721.531 1417.25 727.583 Z" fill="#000000" fill-rule="nonzero" fill-opacity="1" /><path clip-path="url(#clip030)" d="M1432.89 715.356 L1430.63 713.097 Q1432 712.606 1433.19 711.882 Q1434.38 711.158 1435.3 710.237 Q1437.76 707.782 1437.4 704.848 Q1437.05 701.889 1433.87 698.341 Q1434.21 700.109 1433.68 701.766 Q1433.16 703.424 1431.83 704.749 Q1429.08 707.499 1425.82 707.45 Q1422.55 707.376 1419.67 704.492 Q1416.84 701.668 1416.8 698.292 Q1416.77 694.916 1419.54 692.142 Q1422.72 688.962 1426.83 689.736 Q1430.95 690.485 1435.59 695.125 Q1439.92 699.458 1440.45 704.111 Q1440.98 708.739 1437.5 712.213 Q1436.57 713.146 1435.43 713.92 Q1434.29 714.693 1432.89 715.356 M1430.05 702.65 Q1431.72 700.981 1431.55 698.869 Q1431.39 696.745 1429.4 694.757 Q1427.42 692.78 1425.3 692.621 Q1423.18 692.436 1421.51 694.106 Q1419.84 695.776 1420.01 697.912 Q1420.18 700.023 1422.16 702 Q1424.15 703.988 1426.26 704.16 Q1428.38 704.32 1430.05 702.65 Z" fill="#000000" fill-rule="nonzero" fill-opacity="1" /><path clip-path="url(#clip030)" d="M1528.39 733.893 Q1526.48 735.808 1527.4 738.668 Q1528.32 741.504 1532.1 745.285 Q1535.87 749.054 1538.72 749.987 Q1541.56 750.895 1543.48 748.98 Q1545.41 747.053 1544.48 744.217 Q1543.56 741.357 1539.8 737.588 Q1536.01 733.807 1533.17 732.898 Q1530.32 731.966 1528.39 733.893 M1526.43 731.929 Q1529.51 728.847 1533.57 729.67 Q1537.63 730.468 1542.28 735.108 Q1546.9 739.736 1547.71 743.812 Q1548.52 747.863 1545.44 750.944 Q1542.36 754.026 1538.3 753.228 Q1534.23 752.405 1529.61 747.777 Q1524.97 743.137 1524.16 739.086 Q1523.35 735.01 1526.43 731.929 Z" fill="#000000" fill-rule="nonzero" fill-opacity="1" /><path clip-path="url(#clip030)" d="M1552.66 736.778 L1555.25 734.187 L1558.37 737.306 L1555.78 739.896 L1552.66 736.778 Z" fill="#000000" fill-rule="nonzero" fill-opacity="1" /><path clip-path="url(#clip030)" d="M1561.4 714.509 Q1563.56 713.109 1565.76 713.318 Q1567.97 713.515 1569.74 715.282 Q1572.45 717.995 1572.07 721.347 Q1571.69 724.698 1568.25 728.135 Q1567.1 729.289 1565.64 730.284 Q1564.2 731.278 1562.44 732.125 L1560.05 729.731 Q1561.68 729.302 1563.22 728.381 Q1564.75 727.46 1566.09 726.122 Q1568.42 723.79 1568.72 721.654 Q1569.02 719.505 1567.27 717.75 Q1565.65 716.129 1563.6 716.363 Q1561.55 716.571 1559.52 718.597 L1557.39 720.733 L1555.35 718.695 L1557.58 716.461 Q1559.41 714.632 1559.66 712.938 Q1559.89 711.231 1558.52 709.856 Q1557.1 708.445 1555.35 708.702 Q1553.59 708.936 1551.73 710.802 Q1550.71 711.82 1549.76 713.208 Q1548.82 714.595 1547.89 716.461 L1545.68 714.251 Q1546.69 712.447 1547.73 711.022 Q1548.77 709.586 1549.86 708.494 Q1552.69 705.67 1555.62 705.314 Q1558.54 704.946 1560.73 707.131 Q1562.25 708.653 1562.43 710.581 Q1562.6 712.496 1561.4 714.509 Z" fill="#000000" fill-rule="nonzero" fill-opacity="1" /><path clip-path="url(#clip030)" d="M1568.37 693.91 Q1566.46 695.825 1567.38 698.685 Q1568.3 701.521 1572.08 705.302 Q1575.85 709.071 1578.7 710.004 Q1581.55 710.912 1583.46 708.997 Q1585.39 707.07 1584.47 704.234 Q1583.55 701.373 1579.78 697.605 Q1576 693.824 1573.15 692.915 Q1570.3 691.982 1568.37 693.91 M1566.41 691.945 Q1569.49 688.864 1573.55 689.687 Q1577.62 690.485 1582.26 695.125 Q1586.89 699.753 1587.7 703.829 Q1588.51 707.88 1585.43 710.961 Q1582.34 714.042 1578.28 713.244 Q1574.22 712.422 1569.59 707.794 Q1564.95 703.154 1564.14 699.102 Q1563.33 695.027 1566.41 691.945 Z" fill="#000000" fill-rule="nonzero" fill-opacity="1" /><path clip-path="url(#clip030)" d="M1675.71 733.242 Q1673.8 735.157 1674.72 738.018 Q1675.64 740.853 1679.42 744.634 Q1683.19 748.403 1686.04 749.336 Q1688.89 750.245 1690.8 748.33 Q1692.73 746.402 1691.81 743.566 Q1690.89 740.706 1687.12 736.937 Q1683.34 733.156 1680.49 732.248 Q1677.64 731.315 1675.71 733.242 M1673.75 731.278 Q1676.83 728.197 1680.89 729.019 Q1684.96 729.817 1689.6 734.458 Q1694.23 739.086 1695.04 743.161 Q1695.85 747.212 1692.76 750.294 Q1689.68 753.375 1685.62 752.577 Q1681.56 751.755 1676.93 747.126 Q1672.29 742.486 1671.48 738.435 Q1670.67 734.359 1673.75 731.278 Z" fill="#000000" fill-rule="nonzero" fill-opacity="1" /><path clip-path="url(#clip030)" d="M1699.98 736.127 L1702.57 733.537 L1705.69 736.655 L1703.1 739.245 L1699.98 736.127 Z" fill="#000000" fill-rule="nonzero" fill-opacity="1" /><path clip-path="url(#clip030)" d="M1708.72 713.858 Q1710.88 712.459 1713.08 712.667 Q1715.29 712.864 1717.06 714.632 Q1719.77 717.345 1719.39 720.696 Q1719.01 724.047 1715.57 727.485 Q1714.42 728.639 1712.96 729.633 Q1711.52 730.627 1709.77 731.474 L1707.37 729.081 Q1709.01 728.651 1710.54 727.73 Q1712.07 726.81 1713.41 725.471 Q1715.75 723.139 1716.04 721.003 Q1716.35 718.855 1714.59 717.099 Q1712.97 715.479 1710.92 715.712 Q1708.87 715.921 1706.85 717.946 L1704.71 720.082 L1702.67 718.044 L1704.91 715.81 Q1706.73 713.981 1706.98 712.287 Q1707.21 710.581 1705.84 709.206 Q1704.43 707.794 1702.67 708.052 Q1700.92 708.285 1699.05 710.151 Q1698.03 711.17 1697.09 712.557 Q1696.14 713.944 1695.21 715.81 L1693 713.6 Q1694.02 711.796 1695.05 710.372 Q1696.09 708.936 1697.18 707.843 Q1700.01 705.019 1702.94 704.663 Q1705.86 704.295 1708.05 706.48 Q1709.57 708.003 1709.75 709.93 Q1709.93 711.845 1708.72 713.858 Z" fill="#000000" fill-rule="nonzero" fill-opacity="1" /><path clip-path="url(#clip030)" d="M1725.43 712.741 L1729.48 708.69 L1715.5 694.708 L1711.98 699.999 L1709.72 697.74 L1713.22 692.473 L1715.7 689.994 L1731.94 706.235 L1735.99 702.184 L1738.08 704.271 L1727.52 714.828 L1725.43 712.741 Z" fill="#000000" fill-rule="nonzero" fill-opacity="1" /><path clip-path="url(#clip030)" d="M1822.58 733.046 Q1820.67 734.961 1821.59 737.821 Q1822.51 740.657 1826.29 744.438 Q1830.06 748.207 1832.9 749.14 Q1835.75 750.048 1837.67 748.133 Q1839.6 746.206 1838.67 743.37 Q1837.75 740.51 1833.99 736.741 Q1830.2 732.96 1827.36 732.051 Q1824.51 731.118 1822.58 733.046 M1820.62 731.082 Q1823.7 728 1827.76 728.823 Q1831.82 729.621 1836.46 734.261 Q1841.09 738.889 1841.9 742.965 Q1842.71 747.016 1839.63 750.097 Q1836.55 753.179 1832.49 752.381 Q1828.42 751.558 1823.8 746.93 Q1819.16 742.29 1818.35 738.239 Q1817.54 734.163 1820.62 731.082 Z" fill="#000000" fill-rule="nonzero" fill-opacity="1" /><path clip-path="url(#clip030)" d="M1846.85 735.931 L1849.44 733.34 L1852.56 736.459 L1849.97 739.049 L1846.85 735.931 Z" fill="#000000" fill-rule="nonzero" fill-opacity="1" /><path clip-path="url(#clip030)" d="M1855.59 713.662 Q1857.75 712.262 1859.95 712.471 Q1862.16 712.667 1863.93 714.435 Q1866.64 717.148 1866.26 720.5 Q1865.88 723.851 1862.44 727.288 Q1861.29 728.442 1859.83 729.437 Q1858.39 730.431 1856.63 731.278 L1854.24 728.884 Q1855.87 728.455 1857.41 727.534 Q1858.94 726.613 1860.28 725.275 Q1862.61 722.943 1862.91 720.807 Q1863.21 718.658 1861.46 716.903 Q1859.84 715.282 1857.79 715.516 Q1855.74 715.724 1853.71 717.75 L1851.58 719.886 L1849.54 717.848 L1851.77 715.614 Q1853.6 713.785 1853.85 712.091 Q1854.08 710.384 1852.71 709.009 Q1851.29 707.597 1849.54 707.855 Q1847.78 708.088 1845.92 709.954 Q1844.9 710.973 1843.95 712.361 Q1843.01 713.748 1842.08 715.614 L1839.87 713.404 Q1840.88 711.599 1841.92 710.175 Q1842.96 708.739 1844.05 707.647 Q1846.88 704.823 1849.81 704.467 Q1852.73 704.099 1854.92 706.284 Q1856.44 707.806 1856.62 709.733 Q1856.79 711.649 1855.59 713.662 Z" fill="#000000" fill-rule="nonzero" fill-opacity="1" /><path clip-path="url(#clip030)" d="M1874.01 710.838 L1882.66 702.184 L1884.75 704.271 L1873.11 715.908 L1871.02 713.821 Q1870.97 710.949 1870.95 706.063 Q1870.92 701.153 1870.84 699.814 Q1870.69 697.286 1870.24 695.898 Q1869.78 694.487 1868.89 693.59 Q1867.43 692.13 1865.47 692.24 Q1863.53 692.338 1861.89 693.983 Q1860.72 695.149 1859.83 696.856 Q1858.94 698.55 1858.29 700.846 L1855.79 698.341 Q1856.68 696.242 1857.68 694.634 Q1858.67 693.026 1859.75 691.945 Q1862.6 689.097 1865.72 688.827 Q1868.84 688.557 1871.22 690.939 Q1872.35 692.068 1872.94 693.517 Q1873.53 694.941 1873.78 697.433 Q1873.83 698.096 1873.89 701.447 Q1873.94 704.786 1874.01 710.838 Z" fill="#000000" fill-rule="nonzero" fill-opacity="1" /><path clip-path="url(#clip030)" d="M1968.75 733.549 Q1966.83 735.464 1967.75 738.325 Q1968.67 741.16 1972.46 744.941 Q1976.22 748.71 1979.07 749.643 Q1981.92 750.552 1983.84 748.636 Q1985.76 746.709 1984.84 743.873 Q1983.92 741.013 1980.15 737.244 Q1976.37 733.463 1973.52 732.555 Q1970.68 731.622 1968.75 733.549 M1966.78 731.585 Q1969.87 728.504 1973.93 729.326 Q1977.99 730.124 1982.63 734.764 Q1987.26 739.393 1988.07 743.468 Q1988.88 747.519 1985.8 750.601 Q1982.72 753.682 1978.66 752.884 Q1974.59 752.061 1969.96 747.433 Q1965.32 742.793 1964.51 738.742 Q1963.7 734.666 1966.78 731.585 Z" fill="#000000" fill-rule="nonzero" fill-opacity="1" /><path clip-path="url(#clip030)" d="M1993.02 736.434 L1995.61 733.844 L1998.73 736.962 L1996.14 739.552 L1993.02 736.434 Z" fill="#000000" fill-rule="nonzero" fill-opacity="1" /><path clip-path="url(#clip030)" d="M2001.76 714.165 Q2003.92 712.766 2006.12 712.974 Q2008.33 713.171 2010.09 714.939 Q2012.81 717.652 2012.43 721.003 Q2012.05 724.354 2008.61 727.792 Q2007.46 728.946 2005.99 729.94 Q2004.56 730.934 2002.8 731.781 L2000.41 729.388 Q2002.04 728.958 2003.58 728.037 Q2005.11 727.116 2006.45 725.778 Q2008.78 723.446 2009.08 721.31 Q2009.38 719.162 2007.63 717.406 Q2006.01 715.786 2003.96 716.019 Q2001.91 716.228 1999.88 718.253 L1997.74 720.389 L1995.71 718.351 L1997.94 716.117 Q1999.77 714.288 2000.02 712.594 Q2000.25 710.887 1998.87 709.513 Q1997.46 708.101 1995.71 708.359 Q1993.95 708.592 1992.09 710.458 Q1991.07 711.477 1990.12 712.864 Q1989.18 714.251 1988.24 716.117 L1986.03 713.907 Q1987.05 712.103 1988.08 710.679 Q1989.13 709.242 1990.22 708.15 Q1993.04 705.326 1995.98 704.97 Q1998.9 704.602 2001.08 706.787 Q2002.61 708.309 2002.79 710.237 Q2002.96 712.152 2001.76 714.165 Z" fill="#000000" fill-rule="nonzero" fill-opacity="1" /><path clip-path="url(#clip030)" d="M2017.75 698.169 Q2019.92 696.77 2022.11 696.979 Q2024.32 697.175 2026.09 698.943 Q2028.8 701.656 2028.42 705.007 Q2028.04 708.359 2024.6 711.796 Q2023.45 712.95 2021.99 713.944 Q2020.55 714.939 2018.8 715.786 L2016.4 713.392 Q2018.04 712.962 2019.57 712.041 Q2021.11 711.121 2022.44 709.783 Q2024.78 707.45 2025.07 705.314 Q2025.38 703.166 2023.62 701.41 Q2022 699.79 2019.95 700.023 Q2017.9 700.232 2015.88 702.257 L2013.74 704.393 L2011.7 702.356 L2013.94 700.121 Q2015.77 698.292 2016.01 696.598 Q2016.24 694.892 2014.87 693.517 Q2013.46 692.105 2011.7 692.363 Q2009.95 692.596 2008.08 694.462 Q2007.06 695.481 2006.12 696.868 Q2005.17 698.255 2004.24 700.121 L2002.03 697.912 Q2003.05 696.107 2004.08 694.683 Q2005.12 693.247 2006.22 692.154 Q2009.04 689.331 2011.97 688.975 Q2014.89 688.606 2017.08 690.791 Q2018.6 692.314 2018.79 694.241 Q2018.96 696.156 2017.75 698.169 Z" fill="#000000" fill-rule="nonzero" fill-opacity="1" /><path clip-path="url(#clip030)" d="M2114.82 734.151 Q2112.9 736.066 2113.82 738.926 Q2114.74 741.762 2118.53 745.543 Q2122.29 749.312 2125.14 750.245 Q2127.99 751.153 2129.91 749.238 Q2131.83 747.311 2130.91 744.475 Q2129.99 741.615 2126.22 737.846 Q2122.44 734.065 2119.59 733.156 Q2116.75 732.223 2114.82 734.151 M2112.85 732.186 Q2115.94 729.105 2120 729.928 Q2124.06 730.726 2128.7 735.366 Q2133.33 739.994 2134.14 744.07 Q2134.95 748.121 2131.87 751.202 Q2128.79 754.283 2124.73 753.485 Q2120.66 752.663 2116.03 748.035 Q2111.39 743.395 2110.58 739.343 Q2109.77 735.268 2112.85 732.186 Z" fill="#000000" fill-rule="nonzero" fill-opacity="1" /><path clip-path="url(#clip030)" d="M2139.09 737.036 L2141.68 734.445 L2144.8 737.563 L2142.21 740.154 L2139.09 737.036 Z" fill="#000000" fill-rule="nonzero" fill-opacity="1" /><path clip-path="url(#clip030)" d="M2147.83 714.767 Q2149.99 713.367 2152.19 713.576 Q2154.4 713.772 2156.16 715.54 Q2158.88 718.253 2158.5 721.604 Q2158.12 724.956 2154.68 728.393 Q2153.52 729.547 2152.06 730.541 Q2150.63 731.536 2148.87 732.383 L2146.48 729.989 Q2148.11 729.559 2149.65 728.639 Q2151.18 727.718 2152.52 726.38 Q2154.85 724.047 2155.15 721.911 Q2155.45 719.763 2153.7 718.008 Q2152.08 716.387 2150.03 716.62 Q2147.98 716.829 2145.95 718.855 L2143.81 720.991 L2141.78 718.953 L2144.01 716.719 Q2145.84 714.889 2146.09 713.195 Q2146.32 711.489 2144.94 710.114 Q2143.53 708.702 2141.78 708.96 Q2140.02 709.193 2138.16 711.059 Q2137.14 712.078 2136.19 713.465 Q2135.25 714.853 2134.31 716.719 L2132.1 714.509 Q2133.12 712.704 2134.15 711.28 Q2135.2 709.844 2136.29 708.751 Q2139.11 705.928 2142.05 705.572 Q2144.97 705.204 2147.15 707.389 Q2148.68 708.911 2148.86 710.838 Q2149.03 712.753 2147.83 714.767 Z" fill="#000000" fill-rule="nonzero" fill-opacity="1" /><path clip-path="url(#clip030)" d="M2156.84 693.185 L2160.36 709.23 L2166.62 702.969 L2156.84 693.185 M2154.03 691.675 L2157.15 688.557 L2169.09 700.502 L2171.71 697.887 L2173.77 699.949 L2171.15 702.564 L2175.47 706.885 L2173.01 709.353 L2168.69 705.032 L2160.41 713.306 L2158.02 710.912 L2154.03 691.675 Z" fill="#000000" fill-rule="nonzero" fill-opacity="1" /><path clip-path="url(#clip030)" d="M2262.28 733.365 Q2260.36 735.28 2261.28 738.14 Q2262.2 740.976 2265.98 744.757 Q2269.75 748.526 2272.6 749.459 Q2275.45 750.367 2277.36 748.452 Q2279.29 746.525 2278.37 743.689 Q2277.45 740.829 2273.68 737.06 Q2269.9 733.279 2267.05 732.371 Q2264.2 731.438 2262.28 733.365 M2260.31 731.401 Q2263.39 728.32 2267.46 729.142 Q2271.52 729.94 2276.16 734.58 Q2280.79 739.208 2281.6 743.284 Q2282.41 747.335 2279.33 750.416 Q2276.25 753.498 2272.18 752.7 Q2268.12 751.877 2263.49 747.249 Q2258.85 742.609 2258.04 738.558 Q2257.23 734.482 2260.31 731.401 Z" fill="#000000" fill-rule="nonzero" fill-opacity="1" /><path clip-path="url(#clip030)" d="M2286.55 736.25 L2289.14 733.66 L2292.25 736.778 L2289.66 739.368 L2286.55 736.25 Z" fill="#000000" fill-rule="nonzero" fill-opacity="1" /><path clip-path="url(#clip030)" d="M2295.29 713.981 Q2297.45 712.582 2299.64 712.79 Q2301.85 712.987 2303.62 714.754 Q2306.33 717.467 2305.95 720.819 Q2305.57 724.17 2302.14 727.607 Q2300.98 728.761 2299.52 729.756 Q2298.08 730.75 2296.33 731.597 L2293.94 729.203 Q2295.57 728.774 2297.1 727.853 Q2298.64 726.932 2299.98 725.594 Q2302.31 723.262 2302.6 721.126 Q2302.91 718.977 2301.15 717.222 Q2299.53 715.601 2297.48 715.835 Q2295.43 716.043 2293.41 718.069 L2291.27 720.205 L2289.23 718.167 L2291.47 715.933 Q2293.3 714.104 2293.54 712.41 Q2293.78 710.703 2292.4 709.328 Q2290.99 707.917 2289.23 708.174 Q2287.48 708.408 2285.61 710.274 Q2284.59 711.293 2283.65 712.68 Q2282.7 714.067 2281.77 715.933 L2279.56 713.723 Q2280.58 711.919 2281.61 710.495 Q2282.65 709.058 2283.75 707.966 Q2286.57 705.142 2289.5 704.786 Q2292.43 704.418 2294.61 706.603 Q2296.13 708.125 2296.32 710.053 Q2296.49 711.968 2295.29 713.981 Z" fill="#000000" fill-rule="nonzero" fill-opacity="1" /><path clip-path="url(#clip030)" d="M2295.35 697.028 L2305.08 687.293 L2307.17 689.38 L2299.71 696.844 L2304.2 701.337 Q2304.55 700.612 2305.01 699.986 Q2305.45 699.348 2305.99 698.808 Q2309.06 695.739 2312.53 695.628 Q2316.01 695.518 2318.88 698.39 Q2321.84 701.349 2321.64 704.835 Q2321.43 708.309 2318.08 711.661 Q2316.93 712.815 2315.53 713.821 Q2314.14 714.816 2312.47 715.7 L2309.98 713.208 Q2311.69 712.704 2313.16 711.82 Q2314.63 710.937 2315.95 709.623 Q2318.07 707.499 2318.19 705.142 Q2318.32 702.785 2316.4 700.87 Q2314.49 698.955 2312.13 699.078 Q2309.77 699.201 2307.65 701.324 Q2306.65 702.319 2305.88 703.534 Q2305.12 704.737 2304.55 706.235 L2295.35 697.028 Z" fill="#000000" fill-rule="nonzero" fill-opacity="1" /><polyline clip-path="url(#clip030)" style="stroke:#000000; stroke-linecap:round; stroke-linejoin:round; stroke-width:4; stroke-opacity:1; fill:none" points="1361.64,662.16 1361.64,97.5521 "/>
<polyline clip-path="url(#clip030)" style="stroke:#000000; stroke-linecap:round; stroke-linejoin:round; stroke-width:4; stroke-opacity:1; fill:none" points="1361.64,646.181 1380.53,646.181 "/>
<polyline clip-path="url(#clip030)" style="stroke:#000000; stroke-linecap:round; stroke-linejoin:round; stroke-width:4; stroke-opacity:1; fill:none" points="1361.64,504.352 1380.53,504.352 "/>
<polyline clip-path="url(#clip030)" style="stroke:#000000; stroke-linecap:round; stroke-linejoin:round; stroke-width:4; stroke-opacity:1; fill:none" points="1361.64,362.522 1380.53,362.522 "/>
<polyline clip-path="url(#clip030)" style="stroke:#000000; stroke-linecap:round; stroke-linejoin:round; stroke-width:4; stroke-opacity:1; fill:none" points="1361.64,220.693 1380.53,220.693 "/>
<path clip-path="url(#clip030)" d="M1260.13 635.53 Q1257.42 635.53 1256.05 638.204 Q1254.7 640.86 1254.7 646.207 Q1254.7 651.537 1256.05 654.21 Q1257.42 656.867 1260.13 656.867 Q1262.86 656.867 1264.21 654.21 Q1265.58 651.537 1265.58 646.207 Q1265.58 640.86 1264.21 638.204 Q1262.86 635.53 1260.13 635.53 M1260.13 632.752 Q1264.49 632.752 1266.78 636.207 Q1269.09 639.644 1269.09 646.207 Q1269.09 652.752 1266.78 656.207 Q1264.49 659.644 1260.13 659.644 Q1255.78 659.644 1253.47 656.207 Q1251.17 652.752 1251.17 646.207 Q1251.17 639.644 1253.47 636.207 Q1255.78 632.752 1260.13 632.752 Z" fill="#000000" fill-rule="nonzero" fill-opacity="1" /><path clip-path="url(#clip030)" d="M1275.25 654.731 L1278.92 654.731 L1278.92 659.141 L1275.25 659.141 L1275.25 654.731 Z" fill="#000000" fill-rule="nonzero" fill-opacity="1" /><path clip-path="url(#clip030)" d="M1294.06 635.53 Q1291.35 635.53 1289.98 638.204 Q1288.62 640.86 1288.62 646.207 Q1288.62 651.537 1289.98 654.21 Q1291.35 656.867 1294.06 656.867 Q1296.78 656.867 1298.14 654.21 Q1299.51 651.537 1299.51 646.207 Q1299.51 640.86 1298.14 638.204 Q1296.78 635.53 1294.06 635.53 M1294.06 632.752 Q1298.41 632.752 1300.71 636.207 Q1303.01 639.644 1303.01 646.207 Q1303.01 652.752 1300.71 656.207 Q1298.41 659.644 1294.06 659.644 Q1289.7 659.644 1287.39 656.207 Q1285.1 652.752 1285.1 646.207 Q1285.1 639.644 1287.39 636.207 Q1289.7 632.752 1294.06 632.752 Z" fill="#000000" fill-rule="nonzero" fill-opacity="1" /><path clip-path="url(#clip030)" d="M1316.68 635.53 Q1313.97 635.53 1312.6 638.204 Q1311.24 640.86 1311.24 646.207 Q1311.24 651.537 1312.6 654.21 Q1313.97 656.867 1316.68 656.867 Q1319.4 656.867 1320.76 654.21 Q1322.13 651.537 1322.13 646.207 Q1322.13 640.86 1320.76 638.204 Q1319.4 635.53 1316.68 635.53 M1316.68 632.752 Q1321.04 632.752 1323.33 636.207 Q1325.64 639.644 1325.64 646.207 Q1325.64 652.752 1323.33 656.207 Q1321.04 659.644 1316.68 659.644 Q1312.32 659.644 1310.01 656.207 Q1307.72 652.752 1307.72 646.207 Q1307.72 639.644 1310.01 636.207 Q1312.32 632.752 1316.68 632.752 Z" fill="#000000" fill-rule="nonzero" fill-opacity="1" /><path clip-path="url(#clip030)" d="M1260.88 493.701 Q1258.17 493.701 1256.8 496.374 Q1255.45 499.03 1255.45 504.378 Q1255.45 509.707 1256.8 512.381 Q1258.17 515.037 1260.88 515.037 Q1263.6 515.037 1264.96 512.381 Q1266.33 509.707 1266.33 504.378 Q1266.33 499.03 1264.96 496.374 Q1263.6 493.701 1260.88 493.701 M1260.88 490.923 Q1265.24 490.923 1267.53 494.378 Q1269.84 497.815 1269.84 504.378 Q1269.84 510.923 1267.53 514.378 Q1265.24 517.815 1260.88 517.815 Q1256.52 517.815 1254.21 514.378 Q1251.92 510.923 1251.92 504.378 Q1251.92 497.815 1254.21 494.378 Q1256.52 490.923 1260.88 490.923 Z" fill="#000000" fill-rule="nonzero" fill-opacity="1" /><path clip-path="url(#clip030)" d="M1276 512.902 L1279.66 512.902 L1279.66 517.312 L1276 517.312 L1276 512.902 Z" fill="#000000" fill-rule="nonzero" fill-opacity="1" /><path clip-path="url(#clip030)" d="M1294.8 493.701 Q1292.09 493.701 1290.72 496.374 Q1289.37 499.03 1289.37 504.378 Q1289.37 509.707 1290.72 512.381 Q1292.09 515.037 1294.8 515.037 Q1297.53 515.037 1298.88 512.381 Q1300.25 509.707 1300.25 504.378 Q1300.25 499.03 1298.88 496.374 Q1297.53 493.701 1294.8 493.701 M1294.8 490.923 Q1299.16 490.923 1301.45 494.378 Q1303.76 497.815 1303.76 504.378 Q1303.76 510.923 1301.45 514.378 Q1299.16 517.815 1294.8 517.815 Q1290.45 517.815 1288.14 514.378 Q1285.84 510.923 1285.84 504.378 Q1285.84 497.815 1288.14 494.378 Q1290.45 490.923 1294.8 490.923 Z" fill="#000000" fill-rule="nonzero" fill-opacity="1" /><path clip-path="url(#clip030)" d="M1309.96 491.392 L1323.73 491.392 L1323.73 494.343 L1313.17 494.343 L1313.17 500.697 Q1313.93 500.437 1314.7 500.315 Q1315.46 500.176 1316.23 500.176 Q1320.57 500.176 1323.1 502.555 Q1325.64 504.933 1325.64 508.996 Q1325.64 513.18 1323.03 515.506 Q1320.43 517.815 1315.69 517.815 Q1314.06 517.815 1312.35 517.537 Q1310.67 517.259 1308.87 516.704 L1308.87 513.18 Q1310.43 514.03 1312.09 514.447 Q1313.76 514.864 1315.62 514.864 Q1318.62 514.864 1320.38 513.284 Q1322.13 511.704 1322.13 508.996 Q1322.13 506.287 1320.38 504.707 Q1318.62 503.128 1315.62 503.128 Q1314.21 503.128 1312.81 503.44 Q1311.42 503.753 1309.96 504.412 L1309.96 491.392 Z" fill="#000000" fill-rule="nonzero" fill-opacity="1" /><path clip-path="url(#clip030)" d="M1260.13 351.871 Q1257.42 351.871 1256.05 354.545 Q1254.7 357.201 1254.7 362.548 Q1254.7 367.878 1256.05 370.552 Q1257.42 373.208 1260.13 373.208 Q1262.86 373.208 1264.21 370.552 Q1265.58 367.878 1265.58 362.548 Q1265.58 357.201 1264.21 354.545 Q1262.86 351.871 1260.13 351.871 M1260.13 349.093 Q1264.49 349.093 1266.78 352.548 Q1269.09 355.986 1269.09 362.548 Q1269.09 369.093 1266.78 372.548 Q1264.49 375.986 1260.13 375.986 Q1255.78 375.986 1253.47 372.548 Q1251.17 369.093 1251.17 362.548 Q1251.17 355.986 1253.47 352.548 Q1255.78 349.093 1260.13 349.093 Z" fill="#000000" fill-rule="nonzero" fill-opacity="1" /><path clip-path="url(#clip030)" d="M1275.25 371.073 L1278.92 371.073 L1278.92 375.482 L1275.25 375.482 L1275.25 371.073 Z" fill="#000000" fill-rule="nonzero" fill-opacity="1" /><path clip-path="url(#clip030)" d="M1287.16 372.531 L1292.89 372.531 L1292.89 352.757 L1286.66 354.007 L1286.66 350.812 L1292.86 349.562 L1296.37 349.562 L1296.37 372.531 L1302.09 372.531 L1302.09 375.482 L1287.16 375.482 L1287.16 372.531 Z" fill="#000000" fill-rule="nonzero" fill-opacity="1" /><path clip-path="url(#clip030)" d="M1316.68 351.871 Q1313.97 351.871 1312.6 354.545 Q1311.24 357.201 1311.24 362.548 Q1311.24 367.878 1312.6 370.552 Q1313.97 373.208 1316.68 373.208 Q1319.4 373.208 1320.76 370.552 Q1322.13 367.878 1322.13 362.548 Q1322.13 357.201 1320.76 354.545 Q1319.4 351.871 1316.68 351.871 M1316.68 349.093 Q1321.04 349.093 1323.33 352.548 Q1325.64 355.986 1325.64 362.548 Q1325.64 369.093 1323.33 372.548 Q1321.04 375.986 1316.68 375.986 Q1312.32 375.986 1310.01 372.548 Q1307.72 369.093 1307.72 362.548 Q1307.72 355.986 1310.01 352.548 Q1312.32 349.093 1316.68 349.093 Z" fill="#000000" fill-rule="nonzero" fill-opacity="1" /><path clip-path="url(#clip030)" d="M1260.88 210.042 Q1258.17 210.042 1256.8 212.716 Q1255.45 215.372 1255.45 220.719 Q1255.45 226.049 1256.8 228.722 Q1258.17 231.379 1260.88 231.379 Q1263.6 231.379 1264.96 228.722 Q1266.33 226.049 1266.33 220.719 Q1266.33 215.372 1264.96 212.716 Q1263.6 210.042 1260.88 210.042 M1260.88 207.264 Q1265.24 207.264 1267.53 210.719 Q1269.84 214.156 1269.84 220.719 Q1269.84 227.264 1267.53 230.719 Q1265.24 234.156 1260.88 234.156 Q1256.52 234.156 1254.21 230.719 Q1251.92 227.264 1251.92 220.719 Q1251.92 214.156 1254.21 210.719 Q1256.52 207.264 1260.88 207.264 Z" fill="#000000" fill-rule="nonzero" fill-opacity="1" /><path clip-path="url(#clip030)" d="M1276 229.243 L1279.66 229.243 L1279.66 233.653 L1276 233.653 L1276 229.243 Z" fill="#000000" fill-rule="nonzero" fill-opacity="1" /><path clip-path="url(#clip030)" d="M1287.91 230.702 L1293.64 230.702 L1293.64 210.927 L1287.41 212.177 L1287.41 208.983 L1293.6 207.733 L1297.11 207.733 L1297.11 230.702 L1302.84 230.702 L1302.84 233.653 L1287.91 233.653 L1287.91 230.702 Z" fill="#000000" fill-rule="nonzero" fill-opacity="1" /><path clip-path="url(#clip030)" d="M1309.96 207.733 L1323.73 207.733 L1323.73 210.684 L1313.17 210.684 L1313.17 217.038 Q1313.93 216.778 1314.7 216.656 Q1315.46 216.518 1316.23 216.518 Q1320.57 216.518 1323.1 218.896 Q1325.64 221.274 1325.64 225.337 Q1325.64 229.521 1323.03 231.847 Q1320.43 234.156 1315.69 234.156 Q1314.06 234.156 1312.35 233.879 Q1310.67 233.601 1308.87 233.045 L1308.87 229.521 Q1310.43 230.372 1312.09 230.788 Q1313.76 231.205 1315.62 231.205 Q1318.62 231.205 1320.38 229.625 Q1322.13 228.045 1322.13 225.337 Q1322.13 222.629 1320.38 221.049 Q1318.62 219.469 1315.62 219.469 Q1314.21 219.469 1312.81 219.781 Q1311.42 220.094 1309.96 220.754 L1309.96 207.733 Z" fill="#000000" fill-rule="nonzero" fill-opacity="1" /><path clip-path="url(#clip030)" d="M1373.53 18.9258 Q1370.02 18.9258 1368.12 21.4721 Q1366.13 24.1341 1366.13 28.5323 Q1366.13 33.185 1368.09 35.8702 Q1370.08 38.5322 1373.53 38.5322 Q1376.94 38.5322 1378.93 35.847 Q1380.92 33.1619 1380.92 28.5323 Q1380.92 24.2962 1378.93 21.4721 Q1377.1 18.9258 1373.53 18.9258 M1373.53 15.5462 L1387.68 15.5462 L1387.68 19.8054 L1382.91 19.8054 Q1385.43 23.4165 1385.43 28.5323 Q1385.43 34.898 1382.26 38.5091 Q1379.09 42.1433 1373.53 42.1433 Q1367.96 42.1433 1364.81 38.5091 Q1361.64 34.898 1361.64 28.5323 Q1361.64 22.1203 1364.81 18.5323 Q1367.42 15.5462 1373.53 15.5462 Z" fill="#000000" fill-rule="nonzero" fill-opacity="1" /><path clip-path="url(#clip030)" d="M1411.84 19.6666 Q1410.99 19.3656 1410.13 19.1342 Q1407.84 18.5323 1405.39 18.5323 Q1401.15 18.5323 1398.79 20.824 Q1396.59 22.9536 1396.17 26.8656 L1411.84 26.8656 L1411.84 30.1989 L1396.17 30.1989 Q1396.59 34.1109 1398.79 36.2405 Q1401.15 38.5322 1405.39 38.5322 Q1408.35 38.5322 1410.13 37.9304 L1411.84 37.3517 L1411.84 41.2174 L1410.02 41.634 Q1407.61 42.1433 1405.13 42.1433 Q1398.93 42.1433 1395.32 38.5322 Q1391.68 34.9211 1391.68 28.5323 Q1391.68 22.1434 1395.32 18.5323 Q1398.93 14.9212 1405.13 14.9212 Q1407.47 14.9212 1410.02 15.4305 Q1410.94 15.6157 1411.84 15.8934 L1411.84 19.6666 Z" fill="#000000" fill-rule="nonzero" fill-opacity="1" /><polyline clip-path="url(#clip033)" style="stroke:#009af9; stroke-linecap:round; stroke-linejoin:round; stroke-width:4; stroke-opacity:1; fill:none" points="1389.69,164.274 1448.13,221.737 1506.56,279.994 1565,339.043 1623.44,398.885 1681.88,459.519 1740.32,520.947 1798.76,583.168 1857.2,646.181 1915.63,582.375 1974.07,517.776 2032.51,452.384 2090.95,386.199 2149.39,319.221 2207.83,251.451 2266.27,182.888 2324.71,113.532 "/>
<circle clip-path="url(#clip033)" cx="1857.2" cy="646.181" r="10.8" fill="#ff0000" fill-rule="evenodd" fill-opacity="1" stroke="#000000" stroke-opacity="1" stroke-width="3.2"/>
<path clip-path="url(#clip030)" d="M161.818 1456.91 L1152.94 1456.91 L1152.94 892.306 L161.818 892.306  Z" fill="#ffffff" fill-rule="evenodd" fill-opacity="1"/>
<defs>
  <clipPath id="clip034">
    <rect x="161" y="892" width="992" height="566"/>
  </clipPath>
</defs>
<polyline clip-path="url(#clip034)" style="stroke:#000000; stroke-linecap:round; stroke-linejoin:round; stroke-width:2; stroke-opacity:0.1; fill:none" points="272.555,1456.91 272.555,892.306 "/>
<polyline clip-path="url(#clip034)" style="stroke:#000000; stroke-linecap:round; stroke-linejoin:round; stroke-width:2; stroke-opacity:0.1; fill:none" points="487.069,1456.91 487.069,892.306 "/>
<polyline clip-path="url(#clip034)" style="stroke:#000000; stroke-linecap:round; stroke-linejoin:round; stroke-width:2; stroke-opacity:0.1; fill:none" points="701.583,1456.91 701.583,892.306 "/>
<polyline clip-path="url(#clip034)" style="stroke:#000000; stroke-linecap:round; stroke-linejoin:round; stroke-width:2; stroke-opacity:0.1; fill:none" points="916.096,1456.91 916.096,892.306 "/>
<polyline clip-path="url(#clip034)" style="stroke:#000000; stroke-linecap:round; stroke-linejoin:round; stroke-width:2; stroke-opacity:0.1; fill:none" points="1130.61,1456.91 1130.61,892.306 "/>
<polyline clip-path="url(#clip034)" style="stroke:#000000; stroke-linecap:round; stroke-linejoin:round; stroke-width:2; stroke-opacity:0.1; fill:none" points="161.818,1440.93 1152.94,1440.93 "/>
<polyline clip-path="url(#clip034)" style="stroke:#000000; stroke-linecap:round; stroke-linejoin:round; stroke-width:2; stroke-opacity:0.1; fill:none" points="161.818,1322.47 1152.94,1322.47 "/>
<polyline clip-path="url(#clip034)" style="stroke:#000000; stroke-linecap:round; stroke-linejoin:round; stroke-width:2; stroke-opacity:0.1; fill:none" points="161.818,1204 1152.94,1204 "/>
<polyline clip-path="url(#clip034)" style="stroke:#000000; stroke-linecap:round; stroke-linejoin:round; stroke-width:2; stroke-opacity:0.1; fill:none" points="161.818,1085.54 1152.94,1085.54 "/>
<polyline clip-path="url(#clip034)" style="stroke:#000000; stroke-linecap:round; stroke-linejoin:round; stroke-width:2; stroke-opacity:0.1; fill:none" points="161.818,967.069 1152.94,967.069 "/>
<polyline clip-path="url(#clip030)" style="stroke:#000000; stroke-linecap:round; stroke-linejoin:round; stroke-width:4; stroke-opacity:1; fill:none" points="161.818,1456.91 1152.94,1456.91 "/>
<polyline clip-path="url(#clip030)" style="stroke:#000000; stroke-linecap:round; stroke-linejoin:round; stroke-width:4; stroke-opacity:1; fill:none" points="272.555,1456.91 272.555,1438.02 "/>
<polyline clip-path="url(#clip030)" style="stroke:#000000; stroke-linecap:round; stroke-linejoin:round; stroke-width:4; stroke-opacity:1; fill:none" points="487.069,1456.91 487.069,1438.02 "/>
<polyline clip-path="url(#clip030)" style="stroke:#000000; stroke-linecap:round; stroke-linejoin:round; stroke-width:4; stroke-opacity:1; fill:none" points="701.583,1456.91 701.583,1438.02 "/>
<polyline clip-path="url(#clip030)" style="stroke:#000000; stroke-linecap:round; stroke-linejoin:round; stroke-width:4; stroke-opacity:1; fill:none" points="916.096,1456.91 916.096,1438.02 "/>
<polyline clip-path="url(#clip030)" style="stroke:#000000; stroke-linecap:round; stroke-linejoin:round; stroke-width:4; stroke-opacity:1; fill:none" points="1130.61,1456.91 1130.61,1438.02 "/>
<path clip-path="url(#clip030)" d="M202.711 1544.64 Q200.796 1546.56 201.716 1549.42 Q202.637 1552.25 206.418 1556.03 Q210.187 1559.8 213.035 1560.74 Q215.883 1561.65 217.798 1559.73 Q219.725 1557.8 218.805 1554.97 Q217.884 1552.11 214.115 1548.34 Q210.334 1544.56 207.486 1543.65 Q204.638 1542.72 202.711 1544.64 M200.746 1542.68 Q203.828 1539.6 207.891 1540.42 Q211.955 1541.22 216.595 1545.86 Q221.223 1550.49 222.033 1554.56 Q222.843 1558.61 219.762 1561.69 Q216.681 1564.78 212.617 1563.98 Q208.554 1563.15 203.926 1558.53 Q199.286 1553.89 198.475 1549.84 Q197.665 1545.76 200.746 1542.68 Z" fill="#000000" fill-rule="nonzero" fill-opacity="1" /><path clip-path="url(#clip030)" d="M226.98 1547.53 L229.571 1544.94 L232.689 1548.06 L230.099 1550.65 L226.98 1547.53 Z" fill="#000000" fill-rule="nonzero" fill-opacity="1" /><path clip-path="url(#clip030)" d="M219.787 1524.3 L229.522 1514.57 L231.609 1516.65 L224.145 1524.12 L228.638 1528.61 Q228.994 1527.89 229.448 1527.26 Q229.89 1526.62 230.43 1526.08 Q233.499 1523.01 236.973 1522.9 Q240.447 1522.79 243.32 1525.66 Q246.278 1528.62 246.082 1532.11 Q245.873 1535.58 242.522 1538.93 Q241.368 1540.09 239.969 1541.09 Q238.581 1542.09 236.912 1542.97 L234.42 1540.48 Q236.126 1539.98 237.599 1539.09 Q239.072 1538.21 240.386 1536.9 Q242.51 1534.77 242.632 1532.42 Q242.755 1530.06 240.84 1528.14 Q238.925 1526.23 236.568 1526.35 Q234.211 1526.47 232.087 1528.6 Q231.093 1529.59 230.32 1530.81 Q229.558 1532.01 228.994 1533.51 L219.787 1524.3 Z" fill="#000000" fill-rule="nonzero" fill-opacity="1" /><path clip-path="url(#clip030)" d="M242.694 1504.66 Q240.779 1506.57 241.699 1509.43 Q242.62 1512.27 246.401 1516.05 Q250.17 1519.82 253.018 1520.75 Q255.866 1521.66 257.781 1519.75 Q259.709 1517.82 258.788 1514.98 Q257.867 1512.12 254.098 1508.35 Q250.317 1504.57 247.469 1503.67 Q244.621 1502.73 242.694 1504.66 M240.73 1502.7 Q243.811 1499.61 247.874 1500.44 Q251.938 1501.23 256.578 1505.87 Q261.206 1510.5 262.016 1514.58 Q262.827 1518.63 259.745 1521.71 Q256.664 1524.79 252.601 1523.99 Q248.537 1523.17 243.909 1518.54 Q239.269 1513.9 238.459 1509.85 Q237.648 1505.78 240.73 1502.7 Z" fill="#000000" fill-rule="nonzero" fill-opacity="1" /><path clip-path="url(#clip030)" d="M258.69 1488.66 Q256.775 1490.58 257.695 1493.44 Q258.616 1496.27 262.397 1500.06 Q266.166 1503.82 269.014 1504.76 Q271.862 1505.67 273.777 1503.75 Q275.704 1501.82 274.784 1498.99 Q273.863 1496.13 270.094 1492.36 Q266.313 1488.58 263.465 1487.67 Q260.617 1486.74 258.69 1488.66 M256.725 1486.7 Q259.807 1483.62 263.87 1484.44 Q267.933 1485.24 272.574 1489.88 Q277.202 1494.51 278.012 1498.58 Q278.822 1502.63 275.741 1505.72 Q272.66 1508.8 268.596 1508 Q264.533 1507.18 259.905 1502.55 Q255.265 1497.91 254.454 1493.86 Q253.644 1489.78 256.725 1486.7 Z" fill="#000000" fill-rule="nonzero" fill-opacity="1" /><path clip-path="url(#clip030)" d="M417.752 1544.11 Q415.837 1546.03 416.758 1548.89 Q417.678 1551.73 421.459 1555.51 Q425.228 1559.28 428.076 1560.21 Q430.924 1561.12 432.839 1559.2 Q434.767 1557.27 433.846 1554.44 Q432.925 1551.58 429.157 1547.81 Q425.376 1544.03 422.527 1543.12 Q419.679 1542.19 417.752 1544.11 M415.788 1542.15 Q418.869 1539.07 422.933 1539.89 Q426.996 1540.69 431.636 1545.33 Q436.264 1549.96 437.075 1554.03 Q437.885 1558.08 434.804 1561.17 Q431.722 1564.25 427.659 1563.45 Q423.596 1562.63 418.967 1558 Q414.327 1553.36 413.517 1549.31 Q412.707 1545.23 415.788 1542.15 Z" fill="#000000" fill-rule="nonzero" fill-opacity="1" /><path clip-path="url(#clip030)" d="M442.022 1547 L444.612 1544.41 L447.73 1547.53 L445.14 1550.12 L442.022 1547 Z" fill="#000000" fill-rule="nonzero" fill-opacity="1" /><path clip-path="url(#clip030)" d="M434.828 1523.77 L444.563 1514.04 L446.65 1516.13 L439.186 1523.59 L443.679 1528.08 Q444.035 1527.36 444.489 1526.73 Q444.931 1526.09 445.472 1525.55 Q448.541 1522.48 452.015 1522.37 Q455.489 1522.26 458.361 1525.14 Q461.32 1528.09 461.124 1531.58 Q460.915 1535.05 457.563 1538.41 Q456.41 1539.56 455.01 1540.57 Q453.623 1541.56 451.953 1542.45 L449.461 1539.95 Q451.168 1539.45 452.641 1538.57 Q454.114 1537.68 455.427 1536.37 Q457.551 1534.24 457.674 1531.89 Q457.797 1529.53 455.882 1527.62 Q453.967 1525.7 451.61 1525.82 Q449.253 1525.95 447.129 1528.07 Q446.134 1529.06 445.361 1530.28 Q444.6 1531.48 444.035 1532.98 L434.828 1523.77 Z" fill="#000000" fill-rule="nonzero" fill-opacity="1" /><path clip-path="url(#clip030)" d="M469.177 1521.91 L477.831 1513.25 L479.918 1515.34 L468.28 1526.98 L466.194 1524.89 Q466.144 1522.02 466.12 1517.13 Q466.095 1512.22 466.009 1510.88 Q465.862 1508.35 465.408 1506.97 Q464.954 1505.56 464.058 1504.66 Q462.597 1503.2 460.645 1503.31 Q458.705 1503.41 457.06 1505.05 Q455.894 1506.22 454.998 1507.92 Q454.114 1509.62 453.463 1511.91 L450.959 1509.41 Q451.855 1507.31 452.849 1505.7 Q453.844 1504.09 454.924 1503.01 Q457.772 1500.17 460.89 1499.9 Q464.008 1499.63 466.39 1502.01 Q467.519 1503.14 468.109 1504.59 Q468.698 1506.01 468.956 1508.5 Q469.005 1509.16 469.066 1512.52 Q469.115 1515.86 469.177 1521.91 Z" fill="#000000" fill-rule="nonzero" fill-opacity="1" /><path clip-path="url(#clip030)" d="M466.82 1491.78 L476.555 1482.05 L478.642 1484.13 L471.178 1491.6 L475.671 1496.09 Q476.027 1495.37 476.481 1494.74 Q476.923 1494.1 477.463 1493.56 Q480.532 1490.49 484.006 1490.38 Q487.48 1490.27 490.353 1493.14 Q493.311 1496.1 493.115 1499.59 Q492.906 1503.06 489.555 1506.41 Q488.401 1507.57 487.002 1508.58 Q485.614 1509.57 483.945 1510.45 L481.453 1507.96 Q483.159 1507.46 484.632 1506.57 Q486.105 1505.69 487.419 1504.38 Q489.543 1502.25 489.665 1499.9 Q489.788 1497.54 487.873 1495.62 Q485.958 1493.71 483.601 1493.83 Q481.244 1493.95 479.12 1496.08 Q478.126 1497.07 477.353 1498.29 Q476.591 1499.49 476.027 1500.99 L466.82 1491.78 Z" fill="#000000" fill-rule="nonzero" fill-opacity="1" /><path clip-path="url(#clip030)" d="M631.738 1544.64 Q629.823 1546.56 630.743 1549.42 Q631.664 1552.25 635.445 1556.03 Q639.214 1559.8 642.062 1560.74 Q644.91 1561.65 646.825 1559.73 Q648.752 1557.8 647.832 1554.97 Q646.911 1552.11 643.142 1548.34 Q639.361 1544.56 636.513 1543.65 Q633.665 1542.72 631.738 1544.64 M629.774 1542.68 Q632.855 1539.6 636.918 1540.42 Q640.982 1541.22 645.622 1545.86 Q650.25 1550.49 651.06 1554.56 Q651.871 1558.61 648.789 1561.69 Q645.708 1564.78 641.645 1563.98 Q637.581 1563.15 632.953 1558.53 Q628.313 1553.89 627.503 1549.84 Q626.692 1545.76 629.774 1542.68 Z" fill="#000000" fill-rule="nonzero" fill-opacity="1" /><path clip-path="url(#clip030)" d="M656.008 1547.53 L658.598 1544.94 L661.716 1548.06 L659.126 1550.65 L656.008 1547.53 Z" fill="#000000" fill-rule="nonzero" fill-opacity="1" /><path clip-path="url(#clip030)" d="M648.814 1524.3 L658.549 1514.57 L660.636 1516.65 L653.172 1524.12 L657.665 1528.61 Q658.021 1527.89 658.475 1527.26 Q658.917 1526.62 659.457 1526.08 Q662.526 1523.01 666 1522.9 Q669.475 1522.79 672.347 1525.66 Q675.306 1528.62 675.109 1532.11 Q674.901 1535.58 671.549 1538.93 Q670.395 1540.09 668.996 1541.09 Q667.609 1542.09 665.939 1542.97 L663.447 1540.48 Q665.153 1539.98 666.626 1539.09 Q668.1 1538.21 669.413 1536.9 Q671.537 1534.77 671.66 1532.42 Q671.782 1530.06 669.867 1528.14 Q667.952 1526.23 665.595 1526.35 Q663.238 1526.47 661.115 1528.6 Q660.12 1529.59 659.347 1530.81 Q658.586 1532.01 658.021 1533.51 L648.814 1524.3 Z" fill="#000000" fill-rule="nonzero" fill-opacity="1" /><path clip-path="url(#clip030)" d="M664.81 1508.31 L674.545 1498.57 L676.631 1500.66 L669.168 1508.12 L673.661 1512.61 Q674.017 1511.89 674.471 1511.26 Q674.913 1510.63 675.453 1510.09 Q678.522 1507.02 681.996 1506.91 Q685.47 1506.8 688.343 1509.67 Q691.301 1512.63 691.105 1516.11 Q690.896 1519.59 687.545 1522.94 Q686.391 1524.09 684.992 1525.1 Q683.604 1526.09 681.935 1526.98 L679.443 1524.49 Q681.149 1523.98 682.622 1523.1 Q684.095 1522.21 685.409 1520.9 Q687.533 1518.78 687.655 1516.42 Q687.778 1514.06 685.863 1512.15 Q683.948 1510.23 681.591 1510.36 Q679.234 1510.48 677.11 1512.6 Q676.116 1513.6 675.342 1514.81 Q674.581 1516.01 674.017 1517.51 L664.81 1508.31 Z" fill="#000000" fill-rule="nonzero" fill-opacity="1" /><path clip-path="url(#clip030)" d="M687.717 1488.66 Q685.802 1490.58 686.722 1493.44 Q687.643 1496.27 691.424 1500.06 Q695.193 1503.82 698.041 1504.76 Q700.889 1505.67 702.804 1503.75 Q704.731 1501.82 703.811 1498.99 Q702.89 1496.13 699.121 1492.36 Q695.34 1488.58 692.492 1487.67 Q689.644 1486.74 687.717 1488.66 M685.753 1486.7 Q688.834 1483.62 692.897 1484.44 Q696.961 1485.24 701.601 1489.88 Q706.229 1494.51 707.039 1498.58 Q707.85 1502.63 704.768 1505.72 Q701.687 1508.8 697.624 1508 Q693.56 1507.18 688.932 1502.55 Q684.292 1497.91 683.482 1493.86 Q682.671 1489.78 685.753 1486.7 Z" fill="#000000" fill-rule="nonzero" fill-opacity="1" /><path clip-path="url(#clip030)" d="M846.779 1544.11 Q844.864 1546.03 845.785 1548.89 Q846.706 1551.73 850.487 1555.51 Q854.255 1559.28 857.103 1560.21 Q859.952 1561.12 861.867 1559.2 Q863.794 1557.27 862.873 1554.44 Q861.953 1551.58 858.184 1547.81 Q854.403 1544.03 851.555 1543.12 Q848.707 1542.19 846.779 1544.11 M844.815 1542.15 Q847.896 1539.07 851.96 1539.89 Q856.023 1540.69 860.664 1545.33 Q865.292 1549.96 866.102 1554.03 Q866.912 1558.08 863.831 1561.17 Q860.749 1564.25 856.686 1563.45 Q852.623 1562.63 847.995 1558 Q843.354 1553.36 842.544 1549.31 Q841.734 1545.23 844.815 1542.15 Z" fill="#000000" fill-rule="nonzero" fill-opacity="1" /><path clip-path="url(#clip030)" d="M871.049 1547 L873.639 1544.41 L876.758 1547.53 L874.167 1550.12 L871.049 1547 Z" fill="#000000" fill-rule="nonzero" fill-opacity="1" /><path clip-path="url(#clip030)" d="M863.855 1523.77 L873.59 1514.04 L875.677 1516.13 L868.213 1523.59 L872.706 1528.08 Q873.062 1527.36 873.517 1526.73 Q873.959 1526.09 874.499 1525.55 Q877.568 1522.48 881.042 1522.37 Q884.516 1522.26 887.389 1525.14 Q890.347 1528.09 890.151 1531.58 Q889.942 1535.05 886.591 1538.41 Q885.437 1539.56 884.037 1540.57 Q882.65 1541.56 880.98 1542.45 L878.488 1539.95 Q880.195 1539.45 881.668 1538.57 Q883.141 1537.68 884.455 1536.37 Q886.578 1534.24 886.701 1531.89 Q886.824 1529.53 884.909 1527.62 Q882.994 1525.7 880.637 1525.82 Q878.28 1525.95 876.156 1528.07 Q875.162 1529.06 874.388 1530.28 Q873.627 1531.48 873.062 1532.98 L863.855 1523.77 Z" fill="#000000" fill-rule="nonzero" fill-opacity="1" /><path clip-path="url(#clip030)" d="M879.2 1508.43 L890.985 1496.64 L892.041 1497.7 L902.66 1521.62 L900.07 1524.22 L890.089 1501.71 L881.287 1510.52 L879.2 1508.43 Z" fill="#000000" fill-rule="nonzero" fill-opacity="1" /><path clip-path="url(#clip030)" d="M895.847 1491.78 L905.582 1482.05 L907.669 1484.13 L900.205 1491.6 L904.698 1496.09 Q905.054 1495.37 905.508 1494.74 Q905.95 1494.1 906.49 1493.56 Q909.559 1490.49 913.033 1490.38 Q916.507 1490.27 919.38 1493.14 Q922.339 1496.1 922.142 1499.59 Q921.934 1503.06 918.582 1506.41 Q917.428 1507.57 916.029 1508.58 Q914.642 1509.57 912.972 1510.45 L910.48 1507.96 Q912.186 1507.46 913.659 1506.57 Q915.133 1505.69 916.446 1504.38 Q918.57 1502.25 918.693 1499.9 Q918.815 1497.54 916.9 1495.62 Q914.985 1493.71 912.628 1493.83 Q910.271 1493.95 908.147 1496.08 Q907.153 1497.07 906.38 1498.29 Q905.619 1499.49 905.054 1500.99 L895.847 1491.78 Z" fill="#000000" fill-rule="nonzero" fill-opacity="1" /><path clip-path="url(#clip030)" d="M1060.77 1544.64 Q1058.85 1546.56 1059.77 1549.42 Q1060.69 1552.25 1064.47 1556.03 Q1068.24 1559.8 1071.09 1560.74 Q1073.94 1561.65 1075.85 1559.73 Q1077.78 1557.8 1076.86 1554.97 Q1075.94 1552.11 1072.17 1548.34 Q1068.39 1544.56 1065.54 1543.65 Q1062.69 1542.72 1060.77 1544.64 M1058.8 1542.68 Q1061.88 1539.6 1065.95 1540.42 Q1070.01 1541.22 1074.65 1545.86 Q1079.28 1550.49 1080.09 1554.56 Q1080.9 1558.61 1077.82 1561.69 Q1074.74 1564.78 1070.67 1563.98 Q1066.61 1563.15 1061.98 1558.53 Q1057.34 1553.89 1056.53 1549.84 Q1055.72 1545.76 1058.8 1542.68 Z" fill="#000000" fill-rule="nonzero" fill-opacity="1" /><path clip-path="url(#clip030)" d="M1085.03 1547.53 L1087.63 1544.94 L1090.74 1548.06 L1088.15 1550.65 L1085.03 1547.53 Z" fill="#000000" fill-rule="nonzero" fill-opacity="1" /><path clip-path="url(#clip030)" d="M1091.6 1526.89 Q1089.93 1528.56 1090.09 1530.68 Q1090.26 1532.8 1092.25 1534.78 Q1094.23 1536.76 1096.35 1536.95 Q1098.48 1537.11 1100.15 1535.44 Q1101.82 1533.77 1101.64 1531.65 Q1101.47 1529.52 1099.5 1527.54 Q1097.51 1525.55 1095.38 1525.39 Q1093.27 1525.22 1091.6 1526.89 M1088.75 1514.2 L1091.01 1516.46 Q1089.64 1516.95 1088.45 1517.67 Q1087.27 1518.38 1086.34 1519.32 Q1083.88 1521.77 1084.24 1524.73 Q1084.61 1527.68 1087.77 1531.21 Q1087.43 1529.42 1087.96 1527.76 Q1088.47 1526.09 1089.79 1524.78 Q1092.55 1522.02 1095.83 1522.1 Q1099.1 1522.17 1101.99 1525.05 Q1104.81 1527.87 1104.85 1531.25 Q1104.89 1534.63 1102.11 1537.4 Q1098.93 1540.58 1094.82 1539.83 Q1090.69 1539.07 1086.07 1534.44 Q1081.72 1530.1 1081.2 1525.46 Q1080.68 1520.8 1084.15 1517.33 Q1085.08 1516.4 1086.21 1515.63 Q1087.36 1514.86 1088.75 1514.2 Z" fill="#000000" fill-rule="nonzero" fill-opacity="1" /><path clip-path="url(#clip030)" d="M1100.75 1504.66 Q1098.83 1506.57 1099.75 1509.43 Q1100.67 1512.27 1104.46 1516.05 Q1108.22 1519.82 1111.07 1520.75 Q1113.92 1521.66 1115.84 1519.75 Q1117.76 1517.82 1116.84 1514.98 Q1115.92 1512.12 1112.15 1508.35 Q1108.37 1504.57 1105.52 1503.67 Q1102.68 1502.73 1100.75 1504.66 M1098.78 1502.7 Q1101.87 1499.61 1105.93 1500.44 Q1109.99 1501.23 1114.63 1505.87 Q1119.26 1510.5 1120.07 1514.58 Q1120.88 1518.63 1117.8 1521.71 Q1114.72 1524.79 1110.66 1523.99 Q1106.59 1523.17 1101.96 1518.54 Q1097.32 1513.9 1096.51 1509.85 Q1095.7 1505.78 1098.78 1502.7 Z" fill="#000000" fill-rule="nonzero" fill-opacity="1" /><path clip-path="url(#clip030)" d="M1116.74 1488.66 Q1114.83 1490.58 1115.75 1493.44 Q1116.67 1496.27 1120.45 1500.06 Q1124.22 1503.82 1127.07 1504.76 Q1129.92 1505.67 1131.83 1503.75 Q1133.76 1501.82 1132.84 1498.99 Q1131.92 1496.13 1128.15 1492.36 Q1124.37 1488.58 1121.52 1487.67 Q1118.67 1486.74 1116.74 1488.66 M1114.78 1486.7 Q1117.86 1483.62 1121.92 1484.44 Q1125.99 1485.24 1130.63 1489.88 Q1135.26 1494.51 1136.07 1498.58 Q1136.88 1502.63 1133.8 1505.72 Q1130.71 1508.8 1126.65 1508 Q1122.59 1507.18 1117.96 1502.55 Q1113.32 1497.91 1112.51 1493.86 Q1111.7 1489.78 1114.78 1486.7 Z" fill="#000000" fill-rule="nonzero" fill-opacity="1" /><polyline clip-path="url(#clip030)" style="stroke:#000000; stroke-linecap:round; stroke-linejoin:round; stroke-width:4; stroke-opacity:1; fill:none" points="161.818,1456.91 161.818,892.306 "/>
<polyline clip-path="url(#clip030)" style="stroke:#000000; stroke-linecap:round; stroke-linejoin:round; stroke-width:4; stroke-opacity:1; fill:none" points="161.818,1440.93 180.716,1440.93 "/>
<polyline clip-path="url(#clip030)" style="stroke:#000000; stroke-linecap:round; stroke-linejoin:round; stroke-width:4; stroke-opacity:1; fill:none" points="161.818,1322.47 180.716,1322.47 "/>
<polyline clip-path="url(#clip030)" style="stroke:#000000; stroke-linecap:round; stroke-linejoin:round; stroke-width:4; stroke-opacity:1; fill:none" points="161.818,1204 180.716,1204 "/>
<polyline clip-path="url(#clip030)" style="stroke:#000000; stroke-linecap:round; stroke-linejoin:round; stroke-width:4; stroke-opacity:1; fill:none" points="161.818,1085.54 180.716,1085.54 "/>
<polyline clip-path="url(#clip030)" style="stroke:#000000; stroke-linecap:round; stroke-linejoin:round; stroke-width:4; stroke-opacity:1; fill:none" points="161.818,967.069 180.716,967.069 "/>
<path clip-path="url(#clip030)" d="M60.315 1430.28 Q57.6067 1430.28 56.2352 1432.96 Q54.881 1435.61 54.881 1440.96 Q54.881 1446.29 56.2352 1448.96 Q57.6067 1451.62 60.315 1451.62 Q63.0407 1451.62 64.3948 1448.96 Q65.7664 1446.29 65.7664 1440.96 Q65.7664 1435.61 64.3948 1432.96 Q63.0407 1430.28 60.315 1430.28 M60.315 1427.51 Q64.6726 1427.51 66.9643 1430.96 Q69.2733 1434.4 69.2733 1440.96 Q69.2733 1447.51 66.9643 1450.96 Q64.6726 1454.4 60.315 1454.4 Q55.9574 1454.4 53.6484 1450.96 Q51.3567 1447.51 51.3567 1440.96 Q51.3567 1434.4 53.6484 1430.96 Q55.9574 1427.51 60.315 1427.51 Z" fill="#000000" fill-rule="nonzero" fill-opacity="1" /><path clip-path="url(#clip030)" d="M75.4364 1449.49 L79.0996 1449.49 L79.0996 1453.89 L75.4364 1453.89 L75.4364 1449.49 Z" fill="#000000" fill-rule="nonzero" fill-opacity="1" /><path clip-path="url(#clip030)" d="M94.2384 1430.28 Q91.5301 1430.28 90.1586 1432.96 Q88.8044 1435.61 88.8044 1440.96 Q88.8044 1446.29 90.1586 1448.96 Q91.5301 1451.62 94.2384 1451.62 Q96.9641 1451.62 98.3183 1448.96 Q99.6898 1446.29 99.6898 1440.96 Q99.6898 1435.61 98.3183 1432.96 Q96.9641 1430.28 94.2384 1430.28 M94.2384 1427.51 Q98.596 1427.51 100.888 1430.96 Q103.197 1434.4 103.197 1440.96 Q103.197 1447.51 100.888 1450.96 Q98.596 1454.4 94.2384 1454.4 Q89.8808 1454.4 87.5718 1450.96 Q85.2801 1447.51 85.2801 1440.96 Q85.2801 1434.4 87.5718 1430.96 Q89.8808 1427.51 94.2384 1427.51 Z" fill="#000000" fill-rule="nonzero" fill-opacity="1" /><path clip-path="url(#clip030)" d="M116.86 1430.28 Q114.152 1430.28 112.78 1432.96 Q111.426 1435.61 111.426 1440.96 Q111.426 1446.29 112.78 1448.96 Q114.152 1451.62 116.86 1451.62 Q119.586 1451.62 120.94 1448.96 Q122.311 1446.29 122.311 1440.96 Q122.311 1435.61 120.94 1432.96 Q119.586 1430.28 116.86 1430.28 M116.86 1427.51 Q121.217 1427.51 123.509 1430.96 Q125.818 1434.4 125.818 1440.96 Q125.818 1447.51 123.509 1450.96 Q121.217 1454.4 116.86 1454.4 Q112.502 1454.4 110.193 1450.96 Q107.902 1447.51 107.902 1440.96 Q107.902 1434.4 110.193 1430.96 Q112.502 1427.51 116.86 1427.51 Z" fill="#000000" fill-rule="nonzero" fill-opacity="1" /><path clip-path="url(#clip030)" d="M61.2351 1311.82 Q58.5268 1311.82 57.1553 1314.49 Q55.8011 1317.15 55.8011 1322.49 Q55.8011 1327.82 57.1553 1330.5 Q58.5268 1333.15 61.2351 1333.15 Q63.9608 1333.15 65.315 1330.5 Q66.6865 1327.82 66.6865 1322.49 Q66.6865 1317.15 65.315 1314.49 Q63.9608 1311.82 61.2351 1311.82 M61.2351 1309.04 Q65.5927 1309.04 67.8844 1312.49 Q70.1934 1315.93 70.1934 1322.49 Q70.1934 1329.04 67.8844 1332.49 Q65.5927 1335.93 61.2351 1335.93 Q56.8775 1335.93 54.5685 1332.49 Q52.2768 1329.04 52.2768 1322.49 Q52.2768 1315.93 54.5685 1312.49 Q56.8775 1309.04 61.2351 1309.04 Z" fill="#000000" fill-rule="nonzero" fill-opacity="1" /><path clip-path="url(#clip030)" d="M76.3566 1331.02 L80.0197 1331.02 L80.0197 1335.43 L76.3566 1335.43 L76.3566 1331.02 Z" fill="#000000" fill-rule="nonzero" fill-opacity="1" /><path clip-path="url(#clip030)" d="M95.1586 1311.82 Q92.4502 1311.82 91.0787 1314.49 Q89.7246 1317.15 89.7246 1322.49 Q89.7246 1327.82 91.0787 1330.5 Q92.4502 1333.15 95.1586 1333.15 Q97.8842 1333.15 99.2384 1330.5 Q100.61 1327.82 100.61 1322.49 Q100.61 1317.15 99.2384 1314.49 Q97.8842 1311.82 95.1586 1311.82 M95.1586 1309.04 Q99.5162 1309.04 101.808 1312.49 Q104.117 1315.93 104.117 1322.49 Q104.117 1329.04 101.808 1332.49 Q99.5162 1335.93 95.1586 1335.93 Q90.8009 1335.93 88.4919 1332.49 Q86.2003 1329.04 86.2003 1322.49 Q86.2003 1315.93 88.4919 1312.49 Q90.8009 1309.04 95.1586 1309.04 Z" fill="#000000" fill-rule="nonzero" fill-opacity="1" /><path clip-path="url(#clip030)" d="M110.888 1332.48 L116.617 1332.48 L116.617 1312.7 L110.384 1313.95 L110.384 1310.76 L116.582 1309.51 L120.089 1309.51 L120.089 1332.48 L125.818 1332.48 L125.818 1335.43 L110.888 1335.43 L110.888 1332.48 Z" fill="#000000" fill-rule="nonzero" fill-opacity="1" /><path clip-path="url(#clip030)" d="M61.5129 1193.35 Q58.8046 1193.35 57.4331 1196.02 Q56.0789 1198.68 56.0789 1204.03 Q56.0789 1209.36 57.4331 1212.03 Q58.8046 1214.69 61.5129 1214.69 Q64.2386 1214.69 65.5927 1212.03 Q66.9643 1209.36 66.9643 1204.03 Q66.9643 1198.68 65.5927 1196.02 Q64.2386 1193.35 61.5129 1193.35 M61.5129 1190.57 Q65.8705 1190.57 68.1622 1194.03 Q70.4712 1197.47 70.4712 1204.03 Q70.4712 1210.57 68.1622 1214.03 Q65.8705 1217.47 61.5129 1217.47 Q57.1553 1217.47 54.8463 1214.03 Q52.5546 1210.57 52.5546 1204.03 Q52.5546 1197.47 54.8463 1194.03 Q57.1553 1190.57 61.5129 1190.57 Z" fill="#000000" fill-rule="nonzero" fill-opacity="1" /><path clip-path="url(#clip030)" d="M76.6343 1212.55 L80.2975 1212.55 L80.2975 1216.96 L76.6343 1216.96 L76.6343 1212.55 Z" fill="#000000" fill-rule="nonzero" fill-opacity="1" /><path clip-path="url(#clip030)" d="M95.4363 1193.35 Q92.728 1193.35 91.3565 1196.02 Q90.0023 1198.68 90.0023 1204.03 Q90.0023 1209.36 91.3565 1212.03 Q92.728 1214.69 95.4363 1214.69 Q98.162 1214.69 99.5162 1212.03 Q100.888 1209.36 100.888 1204.03 Q100.888 1198.68 99.5162 1196.02 Q98.162 1193.35 95.4363 1193.35 M95.4363 1190.57 Q99.7939 1190.57 102.086 1194.03 Q104.395 1197.47 104.395 1204.03 Q104.395 1210.57 102.086 1214.03 Q99.7939 1217.47 95.4363 1217.47 Q91.0787 1217.47 88.7697 1214.03 Q86.478 1210.57 86.478 1204.03 Q86.478 1197.47 88.7697 1194.03 Q91.0787 1190.57 95.4363 1190.57 Z" fill="#000000" fill-rule="nonzero" fill-opacity="1" /><path clip-path="url(#clip030)" d="M113.579 1214.01 L125.818 1214.01 L125.818 1216.96 L109.36 1216.96 L109.36 1214.01 Q111.356 1211.94 114.794 1208.47 Q118.249 1204.98 119.134 1203.98 Q120.818 1202.08 121.478 1200.78 Q122.155 1199.46 122.155 1198.19 Q122.155 1196.13 120.697 1194.83 Q119.256 1193.52 116.929 1193.52 Q115.28 1193.52 113.44 1194.1 Q111.617 1194.67 109.533 1195.83 L109.533 1192.29 Q111.652 1191.44 113.492 1191.01 Q115.332 1190.57 116.86 1190.57 Q120.888 1190.57 123.283 1192.59 Q125.679 1194.6 125.679 1197.97 Q125.679 1199.57 125.072 1201.01 Q124.481 1202.43 122.901 1204.38 Q122.467 1204.88 120.141 1207.29 Q117.815 1209.69 113.579 1214.01 Z" fill="#000000" fill-rule="nonzero" fill-opacity="1" /><path clip-path="url(#clip030)" d="M60.8011 1074.88 Q58.0928 1074.88 56.7213 1077.56 Q55.3671 1080.21 55.3671 1085.56 Q55.3671 1090.89 56.7213 1093.57 Q58.0928 1096.22 60.8011 1096.22 Q63.5268 1096.22 64.8809 1093.57 Q66.2525 1090.89 66.2525 1085.56 Q66.2525 1080.21 64.8809 1077.56 Q63.5268 1074.88 60.8011 1074.88 M60.8011 1072.11 Q65.1587 1072.11 67.4504 1075.56 Q69.7594 1079 69.7594 1085.56 Q69.7594 1092.11 67.4504 1095.56 Q65.1587 1099 60.8011 1099 Q56.4435 1099 54.1345 1095.56 Q51.8428 1092.11 51.8428 1085.56 Q51.8428 1079 54.1345 1075.56 Q56.4435 1072.11 60.8011 1072.11 Z" fill="#000000" fill-rule="nonzero" fill-opacity="1" /><path clip-path="url(#clip030)" d="M75.9225 1094.09 L79.5857 1094.09 L79.5857 1098.5 L75.9225 1098.5 L75.9225 1094.09 Z" fill="#000000" fill-rule="nonzero" fill-opacity="1" /><path clip-path="url(#clip030)" d="M94.7245 1074.88 Q92.0162 1074.88 90.6447 1077.56 Q89.2905 1080.21 89.2905 1085.56 Q89.2905 1090.89 90.6447 1093.57 Q92.0162 1096.22 94.7245 1096.22 Q97.4502 1096.22 98.8044 1093.57 Q100.176 1090.89 100.176 1085.56 Q100.176 1080.21 98.8044 1077.56 Q97.4502 1074.88 94.7245 1074.88 M94.7245 1072.11 Q99.0821 1072.11 101.374 1075.56 Q103.683 1079 103.683 1085.56 Q103.683 1092.11 101.374 1095.56 Q99.0821 1099 94.7245 1099 Q90.3669 1099 88.0579 1095.56 Q85.7662 1092.11 85.7662 1085.56 Q85.7662 1079 88.0579 1075.56 Q90.3669 1072.11 94.7245 1072.11 Z" fill="#000000" fill-rule="nonzero" fill-opacity="1" /><path clip-path="url(#clip030)" d="M120.471 1084.52 Q122.988 1085.06 124.395 1086.76 Q125.818 1088.46 125.818 1090.96 Q125.818 1094.8 123.179 1096.9 Q120.54 1099 115.679 1099 Q114.047 1099 112.311 1098.67 Q110.593 1098.36 108.752 1097.71 L108.752 1094.33 Q110.211 1095.18 111.947 1095.61 Q113.683 1096.05 115.575 1096.05 Q118.874 1096.05 120.592 1094.75 Q122.329 1093.44 122.329 1090.96 Q122.329 1088.67 120.714 1087.38 Q119.117 1086.08 116.252 1086.08 L113.231 1086.08 L113.231 1083.2 L116.391 1083.2 Q118.978 1083.2 120.349 1082.18 Q121.721 1081.13 121.721 1079.19 Q121.721 1077.19 120.297 1076.13 Q118.891 1075.06 116.252 1075.06 Q114.811 1075.06 113.162 1075.37 Q111.513 1075.68 109.533 1076.34 L109.533 1073.22 Q111.53 1072.66 113.266 1072.38 Q115.02 1072.11 116.565 1072.11 Q120.558 1072.11 122.884 1073.93 Q125.21 1075.74 125.21 1078.83 Q125.21 1080.98 123.978 1082.47 Q122.745 1083.95 120.471 1084.52 Z" fill="#000000" fill-rule="nonzero" fill-opacity="1" /><path clip-path="url(#clip030)" d="M59.9504 956.418 Q57.2421 956.418 55.8706 959.092 Q54.5164 961.748 54.5164 967.095 Q54.5164 972.425 55.8706 975.099 Q57.2421 977.755 59.9504 977.755 Q62.6761 977.755 64.0303 975.099 Q65.4018 972.425 65.4018 967.095 Q65.4018 961.748 64.0303 959.092 Q62.6761 956.418 59.9504 956.418 M59.9504 953.64 Q64.308 953.64 66.5997 957.095 Q68.9087 960.533 68.9087 967.095 Q68.9087 973.64 66.5997 977.095 Q64.308 980.533 59.9504 980.533 Q55.5928 980.533 53.2838 977.095 Q50.9921 973.64 50.9921 967.095 Q50.9921 960.533 53.2838 957.095 Q55.5928 953.64 59.9504 953.64 Z" fill="#000000" fill-rule="nonzero" fill-opacity="1" /><path clip-path="url(#clip030)" d="M75.0719 975.62 L78.735 975.62 L78.735 980.029 L75.0719 980.029 L75.0719 975.62 Z" fill="#000000" fill-rule="nonzero" fill-opacity="1" /><path clip-path="url(#clip030)" d="M93.8738 956.418 Q91.1655 956.418 89.794 959.092 Q88.4398 961.748 88.4398 967.095 Q88.4398 972.425 89.794 975.099 Q91.1655 977.755 93.8738 977.755 Q96.5995 977.755 97.9537 975.099 Q99.3252 972.425 99.3252 967.095 Q99.3252 961.748 97.9537 959.092 Q96.5995 956.418 93.8738 956.418 M93.8738 953.64 Q98.2315 953.64 100.523 957.095 Q102.832 960.533 102.832 967.095 Q102.832 973.64 100.523 977.095 Q98.2315 980.533 93.8738 980.533 Q89.5162 980.533 87.2072 977.095 Q84.9156 973.64 84.9156 967.095 Q84.9156 960.533 87.2072 957.095 Q89.5162 953.64 93.8738 953.64 Z" fill="#000000" fill-rule="nonzero" fill-opacity="1" /><path clip-path="url(#clip030)" d="M118.631 957.165 L109.777 971.001 L118.631 971.001 L118.631 957.165 M117.711 954.109 L122.12 954.109 L122.12 971.001 L125.818 971.001 L125.818 973.918 L122.12 973.918 L122.12 980.029 L118.631 980.029 L118.631 973.918 L106.929 973.918 L106.929 970.533 L117.711 954.109 Z" fill="#000000" fill-rule="nonzero" fill-opacity="1" /><path clip-path="url(#clip030)" d="M173.716 813.68 Q170.198 813.68 168.3 816.226 Q166.309 818.888 166.309 823.286 Q166.309 827.939 168.276 830.624 Q170.267 833.286 173.716 833.286 Q177.119 833.286 179.11 830.601 Q181.1 827.916 181.1 823.286 Q181.1 819.05 179.11 816.226 Q177.281 813.68 173.716 813.68 M173.716 810.3 L187.86 810.3 L187.86 814.559 L183.091 814.559 Q185.614 818.171 185.614 823.286 Q185.614 829.652 182.443 833.263 Q179.272 836.897 173.716 836.897 Q168.138 836.897 164.989 833.263 Q161.818 829.652 161.818 823.286 Q161.818 816.874 164.989 813.286 Q167.605 810.3 173.716 810.3 Z" fill="#000000" fill-rule="nonzero" fill-opacity="1" /><path clip-path="url(#clip030)" d="M198.878 836.226 L190.961 810.3 L195.545 810.3 L202.235 832.059 Q205.012 829.189 207.327 825.208 Q209.086 822.221 209.179 819.629 Q209.225 818.402 208.67 816.087 Q208.022 813.333 205.568 810.3 L209.873 810.3 L209.873 810.3 Q211.471 812.36 212.535 815.231 Q213.508 817.87 213.508 819.675 Q213.508 824.212 210.36 828.263 Q206.262 833.541 203.415 836.226 L198.878 836.226 Z" fill="#000000" fill-rule="nonzero" fill-opacity="1" /><polyline clip-path="url(#clip034)" style="stroke:#009af9; stroke-linecap:round; stroke-linejoin:round; stroke-width:4; stroke-opacity:1; fill:none" points="189.869,959.006 248.307,1016.47 306.746,1074.73 365.185,1133.79 423.623,1193.63 482.062,1254.27 540.501,1315.7 598.939,1377.92 657.378,1440.93 715.817,1377.13 774.256,1312.53 832.694,1247.14 891.133,1180.95 949.572,1113.97 1008.01,1046.2 1066.45,977.641 1124.89,908.286 "/>
<circle clip-path="url(#clip034)" cx="657.378" cy="1440.93" r="10.8" fill="#ff0000" fill-rule="evenodd" fill-opacity="1" stroke="#000000" stroke-opacity="1" stroke-width="3.2"/>
</svg>
