<?xml version="1.0" encoding="utf-8"?>
<svg xmlns="http://www.w3.org/2000/svg" xmlns:xlink="http://www.w3.org/1999/xlink" width="600" height="400" viewBox="0 0 2400 1600">
<defs>
  <clipPath id="clip620">
    <rect x="0" y="0" width="2400" height="1600"/>
  </clipPath>
</defs>
<path clip-path="url(#clip620)" d="M0 1600 L2400 1600 L2400 0 L0 0  Z" fill="#ffffff" fill-rule="evenodd" fill-opacity="1"/>
<defs>
  <clipPath id="clip621">
    <rect x="480" y="0" width="1681" height="1600"/>
  </clipPath>
</defs>
<path clip-path="url(#clip620)" d="M161.818 667.406 L1152.94 667.406 L1152.94 97.5521 L161.818 97.5521  Z" fill="#ffffff" fill-rule="evenodd" fill-opacity="1"/>
<defs>
  <clipPath id="clip622">
    <rect x="161" y="97" width="992" height="571"/>
  </clipPath>
</defs>
<polyline clip-path="url(#clip622)" style="stroke:#000000; stroke-linecap:round; stroke-linejoin:round; stroke-width:2; stroke-opacity:0.1; fill:none" points="192.599,667.406 192.599,97.5521 "/>
<polyline clip-path="url(#clip622)" style="stroke:#000000; stroke-linecap:round; stroke-linejoin:round; stroke-width:2; stroke-opacity:0.1; fill:none" points="455.743,667.406 455.743,97.5521 "/>
<polyline clip-path="url(#clip622)" style="stroke:#000000; stroke-linecap:round; stroke-linejoin:round; stroke-width:2; stroke-opacity:0.1; fill:none" points="718.888,667.406 718.888,97.5521 "/>
<polyline clip-path="url(#clip622)" style="stroke:#000000; stroke-linecap:round; stroke-linejoin:round; stroke-width:2; stroke-opacity:0.1; fill:none" points="982.033,667.406 982.033,97.5521 "/>
<polyline clip-path="url(#clip622)" style="stroke:#000000; stroke-linecap:round; stroke-linejoin:round; stroke-width:2; stroke-opacity:0.1; fill:none" points="161.818,651.278 1152.94,651.278 "/>
<polyline clip-path="url(#clip622)" style="stroke:#000000; stroke-linecap:round; stroke-linejoin:round; stroke-width:2; stroke-opacity:0.1; fill:none" points="161.818,510.598 1152.94,510.598 "/>
<polyline clip-path="url(#clip622)" style="stroke:#000000; stroke-linecap:round; stroke-linejoin:round; stroke-width:2; stroke-opacity:0.1; fill:none" points="161.818,369.917 1152.94,369.917 "/>
<polyline clip-path="url(#clip622)" style="stroke:#000000; stroke-linecap:round; stroke-linejoin:round; stroke-width:2; stroke-opacity:0.1; fill:none" points="161.818,229.236 1152.94,229.236 "/>
<polyline clip-path="url(#clip620)" style="stroke:#000000; stroke-linecap:round; stroke-linejoin:round; stroke-width:4; stroke-opacity:1; fill:none" points="161.818,667.406 1152.94,667.406 "/>
<polyline clip-path="url(#clip620)" style="stroke:#000000; stroke-linecap:round; stroke-linejoin:round; stroke-width:4; stroke-opacity:1; fill:none" points="192.599,667.406 192.599,648.509 "/>
<polyline clip-path="url(#clip620)" style="stroke:#000000; stroke-linecap:round; stroke-linejoin:round; stroke-width:4; stroke-opacity:1; fill:none" points="455.743,667.406 455.743,648.509 "/>
<polyline clip-path="url(#clip620)" style="stroke:#000000; stroke-linecap:round; stroke-linejoin:round; stroke-width:4; stroke-opacity:1; fill:none" points="718.888,667.406 718.888,648.509 "/>
<polyline clip-path="url(#clip620)" style="stroke:#000000; stroke-linecap:round; stroke-linejoin:round; stroke-width:4; stroke-opacity:1; fill:none" points="982.033,667.406 982.033,648.509 "/>
<path clip-path="url(#clip620)" d="M138.75 739.139 Q136.834 741.054 137.755 743.914 Q138.676 746.75 142.457 750.531 Q146.226 754.3 149.074 755.233 Q151.922 756.141 153.837 754.226 Q155.764 752.299 154.844 749.463 Q153.923 746.603 150.154 742.834 Q146.373 739.053 143.525 738.144 Q140.677 737.211 138.75 739.139 M136.785 737.175 Q139.867 734.093 143.93 734.916 Q147.993 735.714 152.634 740.354 Q157.262 744.982 158.072 749.058 Q158.882 753.109 155.801 756.19 Q152.72 759.272 148.656 758.474 Q144.593 757.651 139.965 753.023 Q135.325 748.383 134.514 744.332 Q133.704 740.256 136.785 737.175 Z" fill="#000000" fill-rule="nonzero" fill-opacity="1" /><path clip-path="url(#clip620)" d="M163.019 742.024 L165.61 739.433 L168.728 742.552 L166.138 745.142 L163.019 742.024 Z" fill="#000000" fill-rule="nonzero" fill-opacity="1" /><path clip-path="url(#clip620)" d="M170.729 723.143 Q168.961 724.911 168.887 726.875 Q168.826 728.827 170.483 730.484 Q172.141 732.141 174.092 732.08 Q176.057 732.006 177.824 730.239 Q179.592 728.471 179.666 726.507 Q179.727 724.53 178.082 722.885 Q176.425 721.228 174.461 721.302 Q172.509 721.363 170.729 723.143 M167.193 724.567 Q165.205 725.77 163.216 725.574 Q161.239 725.365 159.668 723.794 Q157.471 721.596 157.753 718.761 Q158.048 715.912 160.773 713.187 Q163.51 710.45 166.346 710.167 Q169.182 709.885 171.379 712.082 Q172.951 713.654 173.147 715.642 Q173.356 717.619 172.165 719.595 Q174.375 718.22 176.584 718.441 Q178.806 718.65 180.562 720.406 Q183.226 723.069 183.017 726.126 Q182.821 729.171 179.789 732.203 Q176.756 735.235 173.7 735.444 Q170.655 735.64 167.991 732.976 Q166.236 731.221 166.027 728.999 Q165.818 726.777 167.193 724.567 M162.369 721.559 Q163.793 722.983 165.475 722.898 Q167.169 722.799 168.777 721.191 Q170.373 719.595 170.471 717.901 Q170.581 716.195 169.157 714.771 Q167.733 713.347 166.027 713.457 Q164.333 713.555 162.737 715.151 Q161.129 716.76 161.031 718.454 Q160.945 720.135 162.369 721.559 Z" fill="#000000" fill-rule="nonzero" fill-opacity="1" /><path clip-path="url(#clip620)" d="M178.733 699.156 Q176.818 701.071 177.738 703.931 Q178.659 706.767 182.44 710.548 Q186.209 714.317 189.057 715.25 Q191.905 716.158 193.82 714.243 Q195.747 712.316 194.827 709.48 Q193.906 706.619 190.137 702.851 Q186.356 699.07 183.508 698.161 Q180.66 697.228 178.733 699.156 M176.769 697.191 Q179.85 694.11 183.913 694.933 Q187.977 695.731 192.617 700.371 Q197.245 704.999 198.055 709.075 Q198.866 713.126 195.784 716.207 Q192.703 719.288 188.64 718.49 Q184.576 717.668 179.948 713.04 Q175.308 708.399 174.498 704.348 Q173.687 700.273 176.769 697.191 Z" fill="#000000" fill-rule="nonzero" fill-opacity="1" /><path clip-path="url(#clip620)" d="M402.422 738.611 Q400.507 740.526 401.428 743.386 Q402.348 746.222 406.13 750.003 Q409.898 753.772 412.746 754.705 Q415.594 755.613 417.509 753.698 Q419.437 751.771 418.516 748.935 Q417.595 746.075 413.827 742.306 Q410.046 738.525 407.198 737.617 Q404.349 736.684 402.422 738.611 M400.458 736.647 Q403.539 733.565 407.603 734.388 Q411.666 735.186 416.306 739.826 Q420.934 744.454 421.745 748.53 Q422.555 752.581 419.474 755.662 Q416.392 758.744 412.329 757.946 Q408.266 757.123 403.637 752.495 Q398.997 747.855 398.187 743.804 Q397.377 739.728 400.458 736.647 Z" fill="#000000" fill-rule="nonzero" fill-opacity="1" /><path clip-path="url(#clip620)" d="M426.692 741.496 L429.282 738.906 L432.4 742.024 L429.81 744.614 L426.692 741.496 Z" fill="#000000" fill-rule="nonzero" fill-opacity="1" /><path clip-path="url(#clip620)" d="M434.401 722.615 Q432.634 724.383 432.56 726.347 Q432.499 728.299 434.156 729.956 Q435.813 731.614 437.765 731.552 Q439.729 731.479 441.497 729.711 Q443.265 727.943 443.338 725.979 Q443.4 724.002 441.755 722.357 Q440.097 720.7 438.133 720.774 Q436.181 720.835 434.401 722.615 M430.866 724.039 Q428.877 725.242 426.888 725.046 Q424.912 724.837 423.341 723.266 Q421.143 721.068 421.426 718.233 Q421.72 715.385 424.445 712.659 Q427.183 709.922 430.019 709.639 Q432.855 709.357 435.052 711.554 Q436.623 713.126 436.82 715.115 Q437.028 717.091 435.838 719.067 Q438.047 717.692 440.257 717.913 Q442.479 718.122 444.234 719.878 Q446.898 722.542 446.69 725.598 Q446.493 728.643 443.461 731.675 Q440.429 734.707 437.372 734.916 Q434.328 735.112 431.664 732.448 Q429.908 730.693 429.7 728.471 Q429.491 726.249 430.866 724.039 M426.041 721.032 Q427.465 722.456 429.147 722.37 Q430.841 722.271 432.449 720.663 Q434.045 719.067 434.144 717.373 Q434.254 715.667 432.83 714.243 Q431.406 712.819 429.7 712.929 Q428.006 713.028 426.41 714.623 Q424.801 716.232 424.703 717.926 Q424.617 719.608 426.041 721.032 Z" fill="#000000" fill-rule="nonzero" fill-opacity="1" /><path clip-path="url(#clip620)" d="M435.494 702.274 L445.229 692.539 L447.316 694.626 L439.852 702.09 L444.345 706.583 Q444.701 705.858 445.155 705.232 Q445.597 704.594 446.137 704.054 Q449.206 700.985 452.68 700.874 Q456.155 700.764 459.027 703.636 Q461.986 706.595 461.789 710.081 Q461.581 713.555 458.229 716.907 Q457.075 718.061 455.676 719.067 Q454.289 720.062 452.619 720.946 L450.127 718.454 Q451.833 717.95 453.307 717.066 Q454.78 716.183 456.093 714.869 Q458.217 712.745 458.34 710.388 Q458.462 708.031 456.547 706.116 Q454.632 704.201 452.275 704.324 Q449.918 704.447 447.795 706.57 Q446.8 707.565 446.027 708.78 Q445.266 709.983 444.701 711.481 L435.494 702.274 Z" fill="#000000" fill-rule="nonzero" fill-opacity="1" /><path clip-path="url(#clip620)" d="M665.039 739.139 Q663.124 741.054 664.045 743.914 Q664.965 746.75 668.746 750.531 Q672.515 754.3 675.363 755.233 Q678.211 756.141 680.126 754.226 Q682.054 752.299 681.133 749.463 Q680.212 746.603 676.443 742.834 Q672.662 739.053 669.814 738.144 Q666.966 737.211 665.039 739.139 M663.075 737.175 Q666.156 734.093 670.219 734.916 Q674.283 735.714 678.923 740.354 Q683.551 744.982 684.362 749.058 Q685.172 753.109 682.09 756.19 Q679.009 759.272 674.946 758.474 Q670.882 757.651 666.254 753.023 Q661.614 748.383 660.804 744.332 Q659.993 740.256 663.075 737.175 Z" fill="#000000" fill-rule="nonzero" fill-opacity="1" /><path clip-path="url(#clip620)" d="M689.309 742.024 L691.899 739.433 L695.017 742.552 L692.427 745.142 L689.309 742.024 Z" fill="#000000" fill-rule="nonzero" fill-opacity="1" /><path clip-path="url(#clip620)" d="M700.112 736.696 L697.853 734.437 Q699.228 733.946 700.419 733.222 Q701.609 732.497 702.53 731.577 Q704.985 729.122 704.629 726.188 Q704.273 723.229 701.094 719.681 Q701.438 721.449 700.91 723.106 Q700.382 724.764 699.056 726.089 Q696.306 728.839 693.041 728.79 Q689.775 728.716 686.89 725.832 Q684.067 723.008 684.03 719.632 Q683.993 716.256 686.768 713.482 Q689.947 710.302 694.06 711.076 Q698.172 711.825 702.812 716.465 Q707.146 720.798 707.674 725.451 Q708.202 730.079 704.728 733.553 Q703.795 734.486 702.653 735.26 Q701.511 736.033 700.112 736.696 M697.276 723.99 Q698.946 722.321 698.774 720.209 Q698.614 718.085 696.625 716.097 Q694.649 714.12 692.525 713.961 Q690.401 713.776 688.732 715.446 Q687.062 717.116 687.234 719.252 Q687.406 721.363 689.382 723.339 Q691.371 725.328 693.483 725.5 Q695.606 725.66 697.276 723.99 Z" fill="#000000" fill-rule="nonzero" fill-opacity="1" /><path clip-path="url(#clip620)" d="M705.022 699.156 Q703.107 701.071 704.028 703.931 Q704.949 706.767 708.73 710.548 Q712.498 714.317 715.346 715.25 Q718.194 716.158 720.11 714.243 Q722.037 712.316 721.116 709.48 Q720.195 706.619 716.427 702.851 Q712.646 699.07 709.798 698.161 Q706.95 697.228 705.022 699.156 M703.058 697.191 Q706.139 694.11 710.203 694.933 Q714.266 695.731 718.906 700.371 Q723.535 704.999 724.345 709.075 Q725.155 713.126 722.074 716.207 Q718.992 719.288 714.929 718.49 Q710.866 717.668 706.238 713.04 Q701.597 708.399 700.787 704.348 Q699.977 700.273 703.058 697.191 Z" fill="#000000" fill-rule="nonzero" fill-opacity="1" /><path clip-path="url(#clip620)" d="M928.712 738.611 Q926.796 740.526 927.717 743.386 Q928.638 746.222 932.419 750.003 Q936.188 753.772 939.036 754.705 Q941.884 755.613 943.799 753.698 Q945.726 751.771 944.805 748.935 Q943.885 746.075 940.116 742.306 Q936.335 738.525 933.487 737.617 Q930.639 736.684 928.712 738.611 M926.747 736.647 Q929.829 733.565 933.892 734.388 Q937.955 735.186 942.596 739.826 Q947.224 744.454 948.034 748.53 Q948.844 752.581 945.763 755.662 Q942.682 758.744 938.618 757.946 Q934.555 757.123 929.927 752.495 Q925.286 747.855 924.476 743.804 Q923.666 739.728 926.747 736.647 Z" fill="#000000" fill-rule="nonzero" fill-opacity="1" /><path clip-path="url(#clip620)" d="M952.981 741.496 L955.572 738.906 L958.69 742.024 L956.099 744.614 L952.981 741.496 Z" fill="#000000" fill-rule="nonzero" fill-opacity="1" /><path clip-path="url(#clip620)" d="M963.784 736.168 L961.526 733.909 Q962.9 733.418 964.091 732.694 Q965.282 731.97 966.203 731.049 Q968.658 728.594 968.302 725.66 Q967.946 722.701 964.766 719.153 Q965.11 720.921 964.582 722.578 Q964.054 724.236 962.729 725.561 Q959.979 728.311 956.713 728.262 Q953.448 728.189 950.563 725.304 Q947.739 722.48 947.703 719.104 Q947.666 715.728 950.44 712.954 Q953.62 709.774 957.732 710.548 Q961.845 711.297 966.485 715.937 Q970.819 720.27 971.346 724.923 Q971.874 729.551 968.4 733.025 Q967.467 733.958 966.325 734.732 Q965.184 735.505 963.784 736.168 M960.949 723.462 Q962.618 721.793 962.446 719.681 Q962.287 717.557 960.298 715.569 Q958.321 713.592 956.198 713.433 Q954.074 713.249 952.404 714.918 Q950.735 716.588 950.907 718.724 Q951.079 720.835 953.055 722.812 Q955.044 724.8 957.155 724.972 Q959.279 725.132 960.949 723.462 Z" fill="#000000" fill-rule="nonzero" fill-opacity="1" /><path clip-path="url(#clip620)" d="M961.783 702.274 L971.518 692.539 L973.605 694.626 L966.141 702.09 L970.634 706.583 Q970.99 705.858 971.445 705.232 Q971.887 704.594 972.427 704.054 Q975.496 700.985 978.97 700.874 Q982.444 700.764 985.317 703.636 Q988.275 706.595 988.079 710.081 Q987.87 713.555 984.519 716.907 Q983.365 718.061 981.965 719.067 Q980.578 720.062 978.908 720.946 L976.416 718.454 Q978.123 717.95 979.596 717.066 Q981.069 716.183 982.383 714.869 Q984.506 712.745 984.629 710.388 Q984.752 708.031 982.837 706.116 Q980.922 704.201 978.565 704.324 Q976.208 704.447 974.084 706.57 Q973.09 707.565 972.316 708.78 Q971.555 709.983 970.99 711.481 L961.783 702.274 Z" fill="#000000" fill-rule="nonzero" fill-opacity="1" /><polyline clip-path="url(#clip620)" style="stroke:#000000; stroke-linecap:round; stroke-linejoin:round; stroke-width:4; stroke-opacity:1; fill:none" points="161.818,667.406 161.818,97.5521 "/>
<polyline clip-path="url(#clip620)" style="stroke:#000000; stroke-linecap:round; stroke-linejoin:round; stroke-width:4; stroke-opacity:1; fill:none" points="161.818,651.278 180.716,651.278 "/>
<polyline clip-path="url(#clip620)" style="stroke:#000000; stroke-linecap:round; stroke-linejoin:round; stroke-width:4; stroke-opacity:1; fill:none" points="161.818,510.598 180.716,510.598 "/>
<polyline clip-path="url(#clip620)" style="stroke:#000000; stroke-linecap:round; stroke-linejoin:round; stroke-width:4; stroke-opacity:1; fill:none" points="161.818,369.917 180.716,369.917 "/>
<polyline clip-path="url(#clip620)" style="stroke:#000000; stroke-linecap:round; stroke-linejoin:round; stroke-width:4; stroke-opacity:1; fill:none" points="161.818,229.236 180.716,229.236 "/>
<path clip-path="url(#clip620)" d="M116.86 640.627 Q114.152 640.627 112.78 643.301 Q111.426 645.957 111.426 651.304 Q111.426 656.634 112.78 659.308 Q114.152 661.964 116.86 661.964 Q119.586 661.964 120.94 659.308 Q122.311 656.634 122.311 651.304 Q122.311 645.957 120.94 643.301 Q119.586 640.627 116.86 640.627 M116.86 637.85 Q121.217 637.85 123.509 641.305 Q125.818 644.742 125.818 651.304 Q125.818 657.85 123.509 661.304 Q121.217 664.742 116.86 664.742 Q112.502 664.742 110.193 661.304 Q107.902 657.85 107.902 651.304 Q107.902 644.742 110.193 641.305 Q112.502 637.85 116.86 637.85 Z" fill="#000000" fill-rule="nonzero" fill-opacity="1" /><path clip-path="url(#clip620)" d="M110.888 520.606 L116.617 520.606 L116.617 500.832 L110.384 502.082 L110.384 498.888 L116.582 497.638 L120.089 497.638 L120.089 520.606 L125.818 520.606 L125.818 523.558 L110.888 523.558 L110.888 520.606 Z" fill="#000000" fill-rule="nonzero" fill-opacity="1" /><path clip-path="url(#clip620)" d="M113.579 379.925 L125.818 379.925 L125.818 382.877 L109.36 382.877 L109.36 379.925 Q111.356 377.859 114.794 374.387 Q118.249 370.898 119.134 369.891 Q120.818 367.998 121.478 366.696 Q122.155 365.377 122.155 364.11 Q122.155 362.044 120.697 360.742 Q119.256 359.439 116.929 359.439 Q115.28 359.439 113.44 360.012 Q111.617 360.585 109.533 361.748 L109.533 358.207 Q111.652 357.356 113.492 356.922 Q115.332 356.488 116.86 356.488 Q120.888 356.488 123.283 358.502 Q125.679 360.516 125.679 363.884 Q125.679 365.481 125.072 366.922 Q124.481 368.346 122.901 370.29 Q122.467 370.794 120.141 373.207 Q117.815 375.603 113.579 379.925 Z" fill="#000000" fill-rule="nonzero" fill-opacity="1" /><path clip-path="url(#clip620)" d="M120.471 228.22 Q122.988 228.759 124.395 230.46 Q125.818 232.161 125.818 234.661 Q125.818 238.498 123.179 240.599 Q120.54 242.7 115.679 242.7 Q114.047 242.7 112.311 242.37 Q110.593 242.057 108.752 241.415 L108.752 238.029 Q110.211 238.88 111.947 239.314 Q113.683 239.748 115.575 239.748 Q118.874 239.748 120.592 238.446 Q122.329 237.144 122.329 234.661 Q122.329 232.37 120.714 231.085 Q119.117 229.783 116.252 229.783 L113.231 229.783 L113.231 226.901 L116.391 226.901 Q118.978 226.901 120.349 225.877 Q121.721 224.835 121.721 222.891 Q121.721 220.894 120.297 219.835 Q118.891 218.759 116.252 218.759 Q114.811 218.759 113.162 219.071 Q111.513 219.384 109.533 220.043 L109.533 216.918 Q111.53 216.363 113.266 216.085 Q115.02 215.807 116.565 215.807 Q120.558 215.807 122.884 217.63 Q125.21 219.436 125.21 222.526 Q125.21 224.679 123.978 226.172 Q122.745 227.647 120.471 228.22 Z" fill="#000000" fill-rule="nonzero" fill-opacity="1" /><path clip-path="url(#clip620)" d="M163.901 20.1758 Q165.313 17.8147 168.809 15.7314 Q170.175 14.9212 174.387 14.9212 Q179.11 14.9212 182.049 18.6712 Q185.012 22.4212 185.012 28.5323 Q185.012 34.6433 182.049 38.3933 Q179.11 42.1433 174.387 42.1433 Q171.54 42.1433 169.48 41.0322 Q167.443 39.8979 166.1 37.5831 L166.1 51.3331 L161.818 51.3331 L161.818 28.7637 Q161.818 23.4165 163.901 20.1758 M180.591 28.5323 Q180.591 23.8332 178.647 21.1712 Q176.725 18.486 173.346 18.486 Q169.966 18.486 168.022 21.1712 Q166.1 23.8332 166.1 28.5323 Q166.1 33.2313 168.022 35.9165 Q169.966 38.5785 173.346 38.5785 Q176.725 38.5785 178.647 35.9165 Q180.591 33.2313 180.591 28.5323 Z" fill="#000000" fill-rule="nonzero" fill-opacity="1" /><polyline clip-path="url(#clip622)" style="stroke:#009af9; stroke-linecap:round; stroke-linejoin:round; stroke-width:4; stroke-opacity:1; fill:none" points="189.869,589.863 248.307,594.388 306.746,599.478 365.185,605.245 423.623,611.833 482.062,619.43 540.501,628.287 598.939,638.744 657.378,651.278 715.817,635.981 774.256,616.892 832.694,592.404 891.133,559.841 949.572,514.406 1008.01,446.555 1066.45,334.262 1124.89,113.68 "/>
<circle clip-path="url(#clip622)" cx="657.378" cy="651.278" r="10.8" fill="#ff0000" fill-rule="evenodd" fill-opacity="1" stroke="#000000" stroke-opacity="1" stroke-width="3.2"/>
<path clip-path="url(#clip620)" d="M1361.64 667.406 L2352.76 667.406 L2352.76 97.5521 L1361.64 97.5521  Z" fill="#ffffff" fill-rule="evenodd" fill-opacity="1"/>
<defs>
  <clipPath id="clip623">
    <rect x="1361" y="97" width="992" height="571"/>
  </clipPath>
</defs>
<polyline clip-path="url(#clip623)" style="stroke:#000000; stroke-linecap:round; stroke-linejoin:round; stroke-width:2; stroke-opacity:0.1; fill:none" points="1466.22,667.406 1466.22,97.5521 "/>
<polyline clip-path="url(#clip623)" style="stroke:#000000; stroke-linecap:round; stroke-linejoin:round; stroke-width:2; stroke-opacity:0.1; fill:none" points="1609.02,667.406 1609.02,97.5521 "/>
<polyline clip-path="url(#clip623)" style="stroke:#000000; stroke-linecap:round; stroke-linejoin:round; stroke-width:2; stroke-opacity:0.1; fill:none" points="1751.82,667.406 1751.82,97.5521 "/>
<polyline clip-path="url(#clip623)" style="stroke:#000000; stroke-linecap:round; stroke-linejoin:round; stroke-width:2; stroke-opacity:0.1; fill:none" points="1894.63,667.406 1894.63,97.5521 "/>
<polyline clip-path="url(#clip623)" style="stroke:#000000; stroke-linecap:round; stroke-linejoin:round; stroke-width:2; stroke-opacity:0.1; fill:none" points="2037.43,667.406 2037.43,97.5521 "/>
<polyline clip-path="url(#clip623)" style="stroke:#000000; stroke-linecap:round; stroke-linejoin:round; stroke-width:2; stroke-opacity:0.1; fill:none" points="2180.24,667.406 2180.24,97.5521 "/>
<polyline clip-path="url(#clip623)" style="stroke:#000000; stroke-linecap:round; stroke-linejoin:round; stroke-width:2; stroke-opacity:0.1; fill:none" points="2323.04,667.406 2323.04,97.5521 "/>
<polyline clip-path="url(#clip623)" style="stroke:#000000; stroke-linecap:round; stroke-linejoin:round; stroke-width:2; stroke-opacity:0.1; fill:none" points="1361.64,651.278 2352.76,651.278 "/>
<polyline clip-path="url(#clip623)" style="stroke:#000000; stroke-linecap:round; stroke-linejoin:round; stroke-width:2; stroke-opacity:0.1; fill:none" points="1361.64,508.273 2352.76,508.273 "/>
<polyline clip-path="url(#clip623)" style="stroke:#000000; stroke-linecap:round; stroke-linejoin:round; stroke-width:2; stroke-opacity:0.1; fill:none" points="1361.64,365.267 2352.76,365.267 "/>
<polyline clip-path="url(#clip623)" style="stroke:#000000; stroke-linecap:round; stroke-linejoin:round; stroke-width:2; stroke-opacity:0.1; fill:none" points="1361.64,222.261 2352.76,222.261 "/>
<polyline clip-path="url(#clip620)" style="stroke:#000000; stroke-linecap:round; stroke-linejoin:round; stroke-width:4; stroke-opacity:1; fill:none" points="1361.64,667.406 2352.76,667.406 "/>
<polyline clip-path="url(#clip620)" style="stroke:#000000; stroke-linecap:round; stroke-linejoin:round; stroke-width:4; stroke-opacity:1; fill:none" points="1466.22,667.406 1466.22,648.509 "/>
<polyline clip-path="url(#clip620)" style="stroke:#000000; stroke-linecap:round; stroke-linejoin:round; stroke-width:4; stroke-opacity:1; fill:none" points="1609.02,667.406 1609.02,648.509 "/>
<polyline clip-path="url(#clip620)" style="stroke:#000000; stroke-linecap:round; stroke-linejoin:round; stroke-width:4; stroke-opacity:1; fill:none" points="1751.82,667.406 1751.82,648.509 "/>
<polyline clip-path="url(#clip620)" style="stroke:#000000; stroke-linecap:round; stroke-linejoin:round; stroke-width:4; stroke-opacity:1; fill:none" points="1894.63,667.406 1894.63,648.509 "/>
<polyline clip-path="url(#clip620)" style="stroke:#000000; stroke-linecap:round; stroke-linejoin:round; stroke-width:4; stroke-opacity:1; fill:none" points="2037.43,667.406 2037.43,648.509 "/>
<polyline clip-path="url(#clip620)" style="stroke:#000000; stroke-linecap:round; stroke-linejoin:round; stroke-width:4; stroke-opacity:1; fill:none" points="2180.24,667.406 2180.24,648.509 "/>
<polyline clip-path="url(#clip620)" style="stroke:#000000; stroke-linecap:round; stroke-linejoin:round; stroke-width:4; stroke-opacity:1; fill:none" points="2323.04,667.406 2323.04,648.509 "/>
<path clip-path="url(#clip620)" d="M1412.37 739.139 Q1410.45 741.054 1411.37 743.914 Q1412.29 746.75 1416.07 750.531 Q1419.84 754.3 1422.69 755.233 Q1425.54 756.141 1427.45 754.226 Q1429.38 752.299 1428.46 749.463 Q1427.54 746.603 1423.77 742.834 Q1419.99 739.053 1417.14 738.144 Q1414.29 737.211 1412.37 739.139 M1410.4 737.175 Q1413.48 734.093 1417.55 734.916 Q1421.61 735.714 1426.25 740.354 Q1430.88 744.982 1431.69 749.058 Q1432.5 753.109 1429.42 756.19 Q1426.34 759.272 1422.27 758.474 Q1418.21 757.651 1413.58 753.023 Q1408.94 748.383 1408.13 744.332 Q1407.32 740.256 1410.4 737.175 Z" fill="#000000" fill-rule="nonzero" fill-opacity="1" /><path clip-path="url(#clip620)" d="M1436.64 742.024 L1439.23 739.433 L1442.35 742.552 L1439.76 745.142 L1436.64 742.024 Z" fill="#000000" fill-rule="nonzero" fill-opacity="1" /><path clip-path="url(#clip620)" d="M1445.38 719.755 Q1447.54 718.355 1449.74 718.564 Q1451.95 718.761 1453.71 720.528 Q1456.43 723.241 1456.05 726.593 Q1455.67 729.944 1452.23 733.381 Q1451.07 734.535 1449.61 735.53 Q1448.18 736.524 1446.42 737.371 L1444.03 734.977 Q1445.66 734.548 1447.19 733.627 Q1448.73 732.706 1450.07 731.368 Q1452.4 729.036 1452.69 726.9 Q1453 724.751 1451.25 722.996 Q1449.63 721.375 1447.58 721.609 Q1445.53 721.817 1443.5 723.843 L1441.36 725.979 L1439.33 723.941 L1441.56 721.707 Q1443.39 719.878 1443.63 718.184 Q1443.87 716.477 1442.49 715.102 Q1441.08 713.69 1439.33 713.948 Q1437.57 714.182 1435.7 716.047 Q1434.69 717.066 1433.74 718.454 Q1432.79 719.841 1431.86 721.707 L1429.65 719.497 Q1430.67 717.692 1431.7 716.268 Q1432.75 714.832 1433.84 713.74 Q1436.66 710.916 1439.6 710.56 Q1442.52 710.192 1444.7 712.377 Q1446.22 713.899 1446.41 715.827 Q1446.58 717.742 1445.38 719.755 Z" fill="#000000" fill-rule="nonzero" fill-opacity="1" /><path clip-path="url(#clip620)" d="M1452.35 699.156 Q1450.44 701.071 1451.36 703.931 Q1452.28 706.767 1456.06 710.548 Q1459.83 714.317 1462.67 715.25 Q1465.52 716.158 1467.44 714.243 Q1469.37 712.316 1468.44 709.48 Q1467.52 706.619 1463.76 702.851 Q1459.97 699.07 1457.13 698.161 Q1454.28 697.228 1452.35 699.156 M1450.39 697.191 Q1453.47 694.11 1457.53 694.933 Q1461.59 695.731 1466.23 700.371 Q1470.86 704.999 1471.67 709.075 Q1472.48 713.126 1469.4 716.207 Q1466.32 719.288 1462.26 718.49 Q1458.19 717.668 1453.57 713.04 Q1448.93 708.399 1448.12 704.348 Q1447.31 700.273 1450.39 697.191 Z" fill="#000000" fill-rule="nonzero" fill-opacity="1" /><path clip-path="url(#clip620)" d="M1555.82 738.488 Q1553.91 740.403 1554.83 743.264 Q1555.75 746.099 1559.53 749.88 Q1563.3 753.649 1566.15 754.582 Q1568.99 755.491 1570.91 753.576 Q1572.84 751.648 1571.92 748.812 Q1571 745.952 1567.23 742.183 Q1563.45 738.402 1560.6 737.494 Q1557.75 736.561 1555.82 738.488 M1553.86 736.524 Q1556.94 733.443 1561 734.265 Q1565.07 735.063 1569.71 739.704 Q1574.33 744.332 1575.14 748.407 Q1575.95 752.458 1572.87 755.54 Q1569.79 758.621 1565.73 757.823 Q1561.67 757.001 1557.04 752.372 Q1552.4 747.732 1551.59 743.681 Q1550.78 739.605 1553.86 736.524 Z" fill="#000000" fill-rule="nonzero" fill-opacity="1" /><path clip-path="url(#clip620)" d="M1580.09 741.373 L1582.68 738.783 L1585.8 741.901 L1583.21 744.491 L1580.09 741.373 Z" fill="#000000" fill-rule="nonzero" fill-opacity="1" /><path clip-path="url(#clip620)" d="M1588.83 719.104 Q1590.99 717.705 1593.19 717.913 Q1595.4 718.11 1597.17 719.878 Q1599.88 722.591 1599.5 725.942 Q1599.12 729.293 1595.68 732.731 Q1594.53 733.885 1593.07 734.879 Q1591.63 735.873 1589.88 736.72 L1587.48 734.327 Q1589.11 733.897 1590.65 732.976 Q1592.18 732.056 1593.52 730.717 Q1595.85 728.385 1596.15 726.249 Q1596.46 724.101 1594.7 722.345 Q1593.08 720.725 1591.03 720.958 Q1588.98 721.167 1586.95 723.192 L1584.82 725.328 L1582.78 723.29 L1585.01 721.056 Q1586.84 719.227 1587.09 717.533 Q1587.32 715.827 1585.95 714.452 Q1584.54 713.04 1582.78 713.298 Q1581.02 713.531 1579.16 715.397 Q1578.14 716.416 1577.19 717.803 Q1576.25 719.19 1575.32 721.056 L1573.11 718.846 Q1574.13 717.042 1575.16 715.618 Q1576.2 714.182 1577.29 713.089 Q1580.12 710.265 1583.05 709.909 Q1585.97 709.541 1588.16 711.726 Q1589.68 713.249 1589.86 715.176 Q1590.04 717.091 1588.83 719.104 Z" fill="#000000" fill-rule="nonzero" fill-opacity="1" /><path clip-path="url(#clip620)" d="M1605.54 717.987 L1609.59 713.936 L1595.61 699.954 L1592.09 705.245 L1589.83 702.986 L1593.33 697.719 L1595.81 695.24 L1612.05 711.481 L1616.1 707.43 L1618.18 709.517 L1607.63 720.074 L1605.54 717.987 Z" fill="#000000" fill-rule="nonzero" fill-opacity="1" /><path clip-path="url(#clip620)" d="M1698.82 738.292 Q1696.91 740.207 1697.83 743.067 Q1698.75 745.903 1702.53 749.684 Q1706.3 753.453 1709.15 754.386 Q1711.99 755.294 1713.91 753.379 Q1715.84 751.452 1714.92 748.616 Q1714 745.756 1710.23 741.987 Q1706.45 738.206 1703.6 737.297 Q1700.75 736.364 1698.82 738.292 M1696.86 736.328 Q1699.94 733.246 1704 734.069 Q1708.07 734.867 1712.71 739.507 Q1717.33 744.135 1718.14 748.211 Q1718.95 752.262 1715.87 755.343 Q1712.79 758.425 1708.73 757.627 Q1704.67 756.804 1700.04 752.176 Q1695.4 747.536 1694.59 743.485 Q1693.78 739.409 1696.86 736.328 Z" fill="#000000" fill-rule="nonzero" fill-opacity="1" /><path clip-path="url(#clip620)" d="M1723.09 741.177 L1725.68 738.586 L1728.8 741.705 L1726.21 744.295 L1723.09 741.177 Z" fill="#000000" fill-rule="nonzero" fill-opacity="1" /><path clip-path="url(#clip620)" d="M1731.83 718.908 Q1733.99 717.508 1736.19 717.717 Q1738.4 717.913 1740.17 719.681 Q1742.88 722.394 1742.5 725.746 Q1742.12 729.097 1738.68 732.534 Q1737.53 733.688 1736.07 734.683 Q1734.63 735.677 1732.88 736.524 L1730.48 734.13 Q1732.11 733.701 1733.65 732.78 Q1735.18 731.859 1736.52 730.521 Q1738.85 728.189 1739.15 726.053 Q1739.46 723.904 1737.7 722.149 Q1736.08 720.528 1734.03 720.762 Q1731.98 720.97 1729.95 722.996 L1727.82 725.132 L1725.78 723.094 L1728.01 720.86 Q1729.84 719.031 1730.09 717.336 Q1730.32 715.63 1728.95 714.255 Q1727.54 712.843 1725.78 713.101 Q1724.03 713.334 1722.16 715.2 Q1721.14 716.219 1720.19 717.607 Q1719.25 718.994 1718.32 720.86 L1716.11 718.65 Q1717.13 716.845 1718.16 715.421 Q1719.2 713.985 1720.29 712.893 Q1723.12 710.069 1726.05 709.713 Q1728.97 709.345 1731.16 711.53 Q1732.68 713.052 1732.86 714.979 Q1733.04 716.895 1731.83 718.908 Z" fill="#000000" fill-rule="nonzero" fill-opacity="1" /><path clip-path="url(#clip620)" d="M1750.25 716.084 L1758.9 707.43 L1760.99 709.517 L1749.35 721.154 L1747.26 719.067 Q1747.21 716.195 1747.19 711.309 Q1747.17 706.398 1747.08 705.06 Q1746.93 702.532 1746.48 701.144 Q1746.02 699.733 1745.13 698.836 Q1743.67 697.376 1741.71 697.486 Q1739.78 697.584 1738.13 699.229 Q1736.96 700.395 1736.07 702.102 Q1735.18 703.796 1734.53 706.092 L1732.03 703.587 Q1732.93 701.488 1733.92 699.88 Q1734.91 698.272 1735.99 697.191 Q1738.84 694.343 1741.96 694.073 Q1745.08 693.803 1747.46 696.185 Q1748.59 697.314 1749.18 698.763 Q1749.77 700.187 1750.03 702.679 Q1750.07 703.342 1750.14 706.693 Q1750.19 710.032 1750.25 716.084 Z" fill="#000000" fill-rule="nonzero" fill-opacity="1" /><path clip-path="url(#clip620)" d="M1841.12 738.795 Q1839.21 740.71 1840.13 743.571 Q1841.05 746.406 1844.83 750.187 Q1848.6 753.956 1851.45 754.889 Q1854.29 755.797 1856.21 753.882 Q1858.14 751.955 1857.22 749.119 Q1856.3 746.259 1852.53 742.49 Q1848.75 738.709 1845.9 737.801 Q1843.05 736.868 1841.12 738.795 M1839.16 736.831 Q1842.24 733.75 1846.3 734.572 Q1850.37 735.37 1855.01 740.01 Q1859.64 744.639 1860.45 748.714 Q1861.26 752.765 1858.17 755.847 Q1855.09 758.928 1851.03 758.13 Q1846.97 757.307 1842.34 752.679 Q1837.7 748.039 1836.89 743.988 Q1836.08 739.912 1839.16 736.831 Z" fill="#000000" fill-rule="nonzero" fill-opacity="1" /><path clip-path="url(#clip620)" d="M1865.39 741.68 L1867.98 739.09 L1871.1 742.208 L1868.51 744.798 L1865.39 741.68 Z" fill="#000000" fill-rule="nonzero" fill-opacity="1" /><path clip-path="url(#clip620)" d="M1874.13 719.411 Q1876.29 718.012 1878.49 718.22 Q1880.7 718.417 1882.47 720.185 Q1885.18 722.898 1884.8 726.249 Q1884.42 729.6 1880.98 733.038 Q1879.83 734.192 1878.37 735.186 Q1876.93 736.18 1875.18 737.027 L1872.78 734.634 Q1874.42 734.204 1875.95 733.283 Q1877.48 732.362 1878.82 731.024 Q1881.16 728.692 1881.45 726.556 Q1881.76 724.408 1880 722.652 Q1878.38 721.032 1876.33 721.265 Q1874.28 721.474 1872.25 723.499 L1870.12 725.635 L1868.08 723.597 L1870.32 721.363 Q1872.14 719.534 1872.39 717.84 Q1872.62 716.133 1871.25 714.759 Q1869.84 713.347 1868.08 713.605 Q1866.33 713.838 1864.46 715.704 Q1863.44 716.723 1862.5 718.11 Q1861.55 719.497 1860.62 721.363 L1858.41 719.153 Q1859.43 717.349 1860.46 715.925 Q1861.5 714.488 1862.59 713.396 Q1865.42 710.572 1868.35 710.216 Q1871.27 709.848 1873.46 712.033 Q1874.98 713.555 1875.16 715.483 Q1875.34 717.398 1874.13 719.411 Z" fill="#000000" fill-rule="nonzero" fill-opacity="1" /><path clip-path="url(#clip620)" d="M1890.13 703.415 Q1892.29 702.016 1894.49 702.225 Q1896.7 702.421 1898.46 704.189 Q1901.18 706.902 1900.8 710.253 Q1900.42 713.605 1896.98 717.042 Q1895.82 718.196 1894.36 719.19 Q1892.93 720.185 1891.17 721.032 L1888.78 718.638 Q1890.41 718.208 1891.95 717.287 Q1893.48 716.367 1894.82 715.029 Q1897.15 712.696 1897.45 710.56 Q1897.75 708.412 1896 706.656 Q1894.38 705.036 1892.33 705.269 Q1890.28 705.478 1888.25 707.503 L1886.11 709.639 L1884.08 707.602 L1886.31 705.367 Q1888.14 703.538 1888.39 701.844 Q1888.62 700.138 1887.24 698.763 Q1885.83 697.351 1884.08 697.609 Q1882.32 697.842 1880.46 699.708 Q1879.44 700.727 1878.49 702.114 Q1877.55 703.501 1876.61 705.367 L1874.4 703.158 Q1875.42 701.353 1876.45 699.929 Q1877.5 698.493 1878.59 697.4 Q1881.41 694.577 1884.35 694.221 Q1887.27 693.852 1889.45 696.037 Q1890.98 697.56 1891.16 699.487 Q1891.33 701.402 1890.13 703.415 Z" fill="#000000" fill-rule="nonzero" fill-opacity="1" /><path clip-path="url(#clip620)" d="M1983.33 739.397 Q1981.41 741.312 1982.33 744.172 Q1983.25 747.008 1987.03 750.789 Q1990.8 754.558 1993.65 755.491 Q1996.5 756.399 1998.41 754.484 Q2000.34 752.557 1999.42 749.721 Q1998.5 746.86 1994.73 743.092 Q1990.95 739.311 1988.1 738.402 Q1985.25 737.469 1983.33 739.397 M1981.36 737.432 Q1984.44 734.351 1988.51 735.174 Q1992.57 735.972 1997.21 740.612 Q2001.84 745.24 2002.65 749.316 Q2003.46 753.367 2000.38 756.448 Q1997.3 759.529 1993.23 758.731 Q1989.17 757.909 1984.54 753.281 Q1979.9 748.641 1979.09 744.589 Q1978.28 740.514 1981.36 737.432 Z" fill="#000000" fill-rule="nonzero" fill-opacity="1" /><path clip-path="url(#clip620)" d="M2007.59 742.282 L2010.19 739.691 L2013.3 742.809 L2010.71 745.4 L2007.59 742.282 Z" fill="#000000" fill-rule="nonzero" fill-opacity="1" /><path clip-path="url(#clip620)" d="M2016.34 720.013 Q2018.5 718.613 2020.69 718.822 Q2022.9 719.018 2024.67 720.786 Q2027.38 723.499 2027 726.85 Q2026.62 730.202 2023.19 733.639 Q2022.03 734.793 2020.57 735.787 Q2019.13 736.782 2017.38 737.629 L2014.99 735.235 Q2016.62 734.805 2018.15 733.885 Q2019.69 732.964 2021.02 731.626 Q2023.36 729.293 2023.65 727.157 Q2023.96 725.009 2022.2 723.254 Q2020.58 721.633 2018.53 721.866 Q2016.48 722.075 2014.46 724.101 L2012.32 726.237 L2010.28 724.199 L2012.52 721.965 Q2014.35 720.135 2014.59 718.441 Q2014.83 716.735 2013.45 715.36 Q2012.04 713.948 2010.28 714.206 Q2008.53 714.439 2006.66 716.305 Q2005.64 717.324 2004.7 718.711 Q2003.75 720.099 2002.82 721.965 L2000.61 719.755 Q2001.63 717.95 2002.66 716.526 Q2003.7 715.09 2004.8 713.997 Q2007.62 711.174 2010.55 710.818 Q2013.48 710.45 2015.66 712.635 Q2017.18 714.157 2017.37 716.084 Q2017.54 717.999 2016.34 720.013 Z" fill="#000000" fill-rule="nonzero" fill-opacity="1" /><path clip-path="url(#clip620)" d="M2025.35 698.431 L2028.87 714.476 L2035.13 708.215 L2025.35 698.431 M2022.53 696.921 L2025.65 693.803 L2037.6 705.748 L2040.21 703.133 L2042.27 705.195 L2039.66 707.81 L2043.98 712.131 L2041.51 714.599 L2037.19 710.278 L2028.92 718.552 L2026.52 716.158 L2022.53 696.921 Z" fill="#000000" fill-rule="nonzero" fill-opacity="1" /><path clip-path="url(#clip620)" d="M2126.91 738.611 Q2125 740.526 2125.92 743.386 Q2126.84 746.222 2130.62 750.003 Q2134.39 753.772 2137.24 754.705 Q2140.09 755.613 2142 753.698 Q2143.93 751.771 2143.01 748.935 Q2142.09 746.075 2138.32 742.306 Q2134.54 738.525 2131.69 737.617 Q2128.84 736.684 2126.91 738.611 M2124.95 736.647 Q2128.03 733.565 2132.1 734.388 Q2136.16 735.186 2140.8 739.826 Q2145.43 744.454 2146.24 748.53 Q2147.05 752.581 2143.97 755.662 Q2140.88 758.744 2136.82 757.946 Q2132.76 757.123 2128.13 752.495 Q2123.49 747.855 2122.68 743.804 Q2121.87 739.728 2124.95 736.647 Z" fill="#000000" fill-rule="nonzero" fill-opacity="1" /><path clip-path="url(#clip620)" d="M2151.18 741.496 L2153.77 738.906 L2156.89 742.024 L2154.3 744.614 L2151.18 741.496 Z" fill="#000000" fill-rule="nonzero" fill-opacity="1" /><path clip-path="url(#clip620)" d="M2159.92 719.227 Q2162.09 717.828 2164.28 718.036 Q2166.49 718.233 2168.26 720 Q2170.97 722.713 2170.59 726.065 Q2170.21 729.416 2166.78 732.853 Q2165.62 734.007 2164.16 735.002 Q2162.72 735.996 2160.97 736.843 L2158.57 734.449 Q2160.21 734.02 2161.74 733.099 Q2163.28 732.178 2164.61 730.84 Q2166.95 728.508 2167.24 726.372 Q2167.55 724.223 2165.79 722.468 Q2164.17 720.847 2162.12 721.081 Q2160.07 721.289 2158.05 723.315 L2155.91 725.451 L2153.87 723.413 L2156.11 721.179 Q2157.94 719.35 2158.18 717.656 Q2158.42 715.949 2157.04 714.574 Q2155.63 713.163 2153.87 713.42 Q2152.12 713.654 2150.25 715.52 Q2149.23 716.539 2148.29 717.926 Q2147.34 719.313 2146.41 721.179 L2144.2 718.969 Q2145.22 717.165 2146.25 715.741 Q2147.29 714.304 2148.39 713.212 Q2151.21 710.388 2154.14 710.032 Q2157.06 709.664 2159.25 711.849 Q2160.77 713.371 2160.96 715.299 Q2161.13 717.214 2159.92 719.227 Z" fill="#000000" fill-rule="nonzero" fill-opacity="1" /><path clip-path="url(#clip620)" d="M2159.99 702.274 L2169.72 692.539 L2171.81 694.626 L2164.34 702.09 L2168.84 706.583 Q2169.19 705.858 2169.65 705.232 Q2170.09 704.594 2170.63 704.054 Q2173.7 700.985 2177.17 700.874 Q2180.65 700.764 2183.52 703.636 Q2186.48 706.595 2186.28 710.081 Q2186.07 713.555 2182.72 716.907 Q2181.57 718.061 2180.17 719.067 Q2178.78 720.062 2177.11 720.946 L2174.62 718.454 Q2176.33 717.95 2177.8 717.066 Q2179.27 716.183 2180.59 714.869 Q2182.71 712.745 2182.83 710.388 Q2182.95 708.031 2181.04 706.116 Q2179.12 704.201 2176.77 704.324 Q2174.41 704.447 2172.29 706.57 Q2171.29 707.565 2170.52 708.78 Q2169.76 709.983 2169.19 711.481 L2159.99 702.274 Z" fill="#000000" fill-rule="nonzero" fill-opacity="1" /><path clip-path="url(#clip620)" d="M2269.1 739.225 Q2267.19 741.14 2268.11 744 Q2269.03 746.836 2272.81 750.617 Q2276.58 754.386 2279.43 755.319 Q2282.28 756.227 2284.19 754.312 Q2286.12 752.385 2285.2 749.549 Q2284.28 746.689 2280.51 742.92 Q2276.73 739.139 2273.88 738.23 Q2271.03 737.297 2269.1 739.225 M2267.14 737.261 Q2270.22 734.179 2274.29 735.002 Q2278.35 735.8 2282.99 740.44 Q2287.62 745.068 2288.43 749.144 Q2289.24 753.195 2286.16 756.276 Q2283.07 759.358 2279.01 758.56 Q2274.95 757.737 2270.32 753.109 Q2265.68 748.469 2264.87 744.418 Q2264.06 740.342 2267.14 737.261 Z" fill="#000000" fill-rule="nonzero" fill-opacity="1" /><path clip-path="url(#clip620)" d="M2293.37 742.11 L2295.96 739.519 L2299.08 742.638 L2296.49 745.228 L2293.37 742.11 Z" fill="#000000" fill-rule="nonzero" fill-opacity="1" /><path clip-path="url(#clip620)" d="M2302.12 719.841 Q2304.28 718.441 2306.47 718.65 Q2308.68 718.846 2310.45 720.614 Q2313.16 723.327 2312.78 726.679 Q2312.4 730.03 2308.97 733.467 Q2307.81 734.621 2306.35 735.616 Q2304.91 736.61 2303.16 737.457 L2300.76 735.063 Q2302.4 734.634 2303.93 733.713 Q2305.47 732.792 2306.8 731.454 Q2309.14 729.122 2309.43 726.985 Q2309.74 724.837 2307.98 723.082 Q2306.36 721.461 2304.31 721.695 Q2302.26 721.903 2300.24 723.929 L2298.1 726.065 L2296.06 724.027 L2298.3 721.793 Q2300.13 719.964 2300.37 718.269 Q2300.61 716.563 2299.23 715.188 Q2297.82 713.776 2296.06 714.034 Q2294.31 714.267 2292.44 716.133 Q2291.42 717.152 2290.48 718.54 Q2289.53 719.927 2288.6 721.793 L2286.39 719.583 Q2287.41 717.778 2288.44 716.354 Q2289.48 714.918 2290.58 713.826 Q2293.4 711.002 2296.33 710.646 Q2299.25 710.278 2301.44 712.463 Q2302.96 713.985 2303.15 715.912 Q2303.32 717.828 2302.12 719.841 Z" fill="#000000" fill-rule="nonzero" fill-opacity="1" /><path clip-path="url(#clip620)" d="M2315.94 705.478 Q2314.27 707.147 2314.43 709.271 Q2314.6 711.383 2316.59 713.371 Q2318.56 715.348 2320.69 715.532 Q2322.81 715.691 2324.48 714.022 Q2326.15 712.352 2325.98 710.241 Q2325.81 708.105 2323.83 706.128 Q2321.84 704.14 2319.72 703.98 Q2317.61 703.808 2315.94 705.478 M2313.09 692.784 L2315.35 695.043 Q2313.97 695.534 2312.78 696.258 Q2311.6 696.97 2310.67 697.903 Q2308.22 700.359 2308.57 703.317 Q2308.94 706.263 2312.11 709.799 Q2311.76 708.007 2312.29 706.349 Q2312.81 704.68 2314.12 703.366 Q2316.88 700.604 2320.16 700.69 Q2323.44 700.751 2326.32 703.636 Q2329.15 706.46 2329.18 709.836 Q2329.22 713.212 2326.45 715.986 Q2323.27 719.166 2319.15 718.417 Q2315.03 717.656 2310.4 713.028 Q2306.06 708.682 2305.54 704.041 Q2305.01 699.389 2308.49 695.915 Q2309.42 694.982 2310.55 694.221 Q2311.69 693.447 2313.09 692.784 Z" fill="#000000" fill-rule="nonzero" fill-opacity="1" /><polyline clip-path="url(#clip620)" style="stroke:#000000; stroke-linecap:round; stroke-linejoin:round; stroke-width:4; stroke-opacity:1; fill:none" points="1361.64,667.406 1361.64,97.5521 "/>
<polyline clip-path="url(#clip620)" style="stroke:#000000; stroke-linecap:round; stroke-linejoin:round; stroke-width:4; stroke-opacity:1; fill:none" points="1361.64,651.278 1380.53,651.278 "/>
<polyline clip-path="url(#clip620)" style="stroke:#000000; stroke-linecap:round; stroke-linejoin:round; stroke-width:4; stroke-opacity:1; fill:none" points="1361.64,508.273 1380.53,508.273 "/>
<polyline clip-path="url(#clip620)" style="stroke:#000000; stroke-linecap:round; stroke-linejoin:round; stroke-width:4; stroke-opacity:1; fill:none" points="1361.64,365.267 1380.53,365.267 "/>
<polyline clip-path="url(#clip620)" style="stroke:#000000; stroke-linecap:round; stroke-linejoin:round; stroke-width:4; stroke-opacity:1; fill:none" points="1361.64,222.261 1380.53,222.261 "/>
<path clip-path="url(#clip620)" d="M1260.13 640.627 Q1257.42 640.627 1256.05 643.301 Q1254.7 645.957 1254.7 651.304 Q1254.7 656.634 1256.05 659.308 Q1257.42 661.964 1260.13 661.964 Q1262.86 661.964 1264.21 659.308 Q1265.58 656.634 1265.58 651.304 Q1265.58 645.957 1264.21 643.301 Q1262.86 640.627 1260.13 640.627 M1260.13 637.85 Q1264.49 637.85 1266.78 641.305 Q1269.09 644.742 1269.09 651.304 Q1269.09 657.85 1266.78 661.304 Q1264.49 664.742 1260.13 664.742 Q1255.78 664.742 1253.47 661.304 Q1251.17 657.85 1251.17 651.304 Q1251.17 644.742 1253.47 641.305 Q1255.78 637.85 1260.13 637.85 Z" fill="#000000" fill-rule="nonzero" fill-opacity="1" /><path clip-path="url(#clip620)" d="M1275.25 659.829 L1278.92 659.829 L1278.92 664.238 L1275.25 664.238 L1275.25 659.829 Z" fill="#000000" fill-rule="nonzero" fill-opacity="1" /><path clip-path="url(#clip620)" d="M1294.06 640.627 Q1291.35 640.627 1289.98 643.301 Q1288.62 645.957 1288.62 651.304 Q1288.62 656.634 1289.98 659.308 Q1291.35 661.964 1294.06 661.964 Q1296.78 661.964 1298.14 659.308 Q1299.51 656.634 1299.51 651.304 Q1299.51 645.957 1298.14 643.301 Q1296.78 640.627 1294.06 640.627 M1294.06 637.85 Q1298.41 637.85 1300.71 641.305 Q1303.01 644.742 1303.01 651.304 Q1303.01 657.85 1300.71 661.304 Q1298.41 664.742 1294.06 664.742 Q1289.7 664.742 1287.39 661.304 Q1285.1 657.85 1285.1 651.304 Q1285.1 644.742 1287.39 641.305 Q1289.7 637.85 1294.06 637.85 Z" fill="#000000" fill-rule="nonzero" fill-opacity="1" /><path clip-path="url(#clip620)" d="M1316.68 640.627 Q1313.97 640.627 1312.6 643.301 Q1311.24 645.957 1311.24 651.304 Q1311.24 656.634 1312.6 659.308 Q1313.97 661.964 1316.68 661.964 Q1319.4 661.964 1320.76 659.308 Q1322.13 656.634 1322.13 651.304 Q1322.13 645.957 1320.76 643.301 Q1319.4 640.627 1316.68 640.627 M1316.68 637.85 Q1321.04 637.85 1323.33 641.305 Q1325.64 644.742 1325.64 651.304 Q1325.64 657.85 1323.33 661.304 Q1321.04 664.742 1316.68 664.742 Q1312.32 664.742 1310.01 661.304 Q1307.72 657.85 1307.72 651.304 Q1307.72 644.742 1310.01 641.305 Q1312.32 637.85 1316.68 637.85 Z" fill="#000000" fill-rule="nonzero" fill-opacity="1" /><path clip-path="url(#clip620)" d="M1260.88 497.622 Q1258.17 497.622 1256.8 500.295 Q1255.45 502.951 1255.45 508.299 Q1255.45 513.628 1256.8 516.302 Q1258.17 518.958 1260.88 518.958 Q1263.6 518.958 1264.96 516.302 Q1266.33 513.628 1266.33 508.299 Q1266.33 502.951 1264.96 500.295 Q1263.6 497.622 1260.88 497.622 M1260.88 494.844 Q1265.24 494.844 1267.53 498.299 Q1269.84 501.736 1269.84 508.299 Q1269.84 514.844 1267.53 518.298 Q1265.24 521.736 1260.88 521.736 Q1256.52 521.736 1254.21 518.298 Q1251.92 514.844 1251.92 508.299 Q1251.92 501.736 1254.21 498.299 Q1256.52 494.844 1260.88 494.844 Z" fill="#000000" fill-rule="nonzero" fill-opacity="1" /><path clip-path="url(#clip620)" d="M1276 516.823 L1279.66 516.823 L1279.66 521.233 L1276 521.233 L1276 516.823 Z" fill="#000000" fill-rule="nonzero" fill-opacity="1" /><path clip-path="url(#clip620)" d="M1294.8 497.622 Q1292.09 497.622 1290.72 500.295 Q1289.37 502.951 1289.37 508.299 Q1289.37 513.628 1290.72 516.302 Q1292.09 518.958 1294.8 518.958 Q1297.53 518.958 1298.88 516.302 Q1300.25 513.628 1300.25 508.299 Q1300.25 502.951 1298.88 500.295 Q1297.53 497.622 1294.8 497.622 M1294.8 494.844 Q1299.16 494.844 1301.45 498.299 Q1303.76 501.736 1303.76 508.299 Q1303.76 514.844 1301.45 518.298 Q1299.16 521.736 1294.8 521.736 Q1290.45 521.736 1288.14 518.298 Q1285.84 514.844 1285.84 508.299 Q1285.84 501.736 1288.14 498.299 Q1290.45 494.844 1294.8 494.844 Z" fill="#000000" fill-rule="nonzero" fill-opacity="1" /><path clip-path="url(#clip620)" d="M1309.96 495.313 L1323.73 495.313 L1323.73 498.264 L1313.17 498.264 L1313.17 504.618 Q1313.93 504.358 1314.7 504.236 Q1315.46 504.097 1316.23 504.097 Q1320.57 504.097 1323.1 506.476 Q1325.64 508.854 1325.64 512.917 Q1325.64 517.101 1323.03 519.427 Q1320.43 521.736 1315.69 521.736 Q1314.06 521.736 1312.35 521.458 Q1310.67 521.18 1308.87 520.625 L1308.87 517.101 Q1310.43 517.951 1312.09 518.368 Q1313.76 518.785 1315.62 518.785 Q1318.62 518.785 1320.38 517.205 Q1322.13 515.625 1322.13 512.917 Q1322.13 510.208 1320.38 508.628 Q1318.62 507.049 1315.62 507.049 Q1314.21 507.049 1312.81 507.361 Q1311.42 507.674 1309.96 508.333 L1309.96 495.313 Z" fill="#000000" fill-rule="nonzero" fill-opacity="1" /><path clip-path="url(#clip620)" d="M1260.13 354.616 Q1257.42 354.616 1256.05 357.289 Q1254.7 359.945 1254.7 365.293 Q1254.7 370.622 1256.05 373.296 Q1257.42 375.952 1260.13 375.952 Q1262.86 375.952 1264.21 373.296 Q1265.58 370.622 1265.58 365.293 Q1265.58 359.945 1264.21 357.289 Q1262.86 354.616 1260.13 354.616 M1260.13 351.838 Q1264.49 351.838 1266.78 355.293 Q1269.09 358.73 1269.09 365.293 Q1269.09 371.838 1266.78 375.293 Q1264.49 378.73 1260.13 378.73 Q1255.78 378.73 1253.47 375.293 Q1251.17 371.838 1251.17 365.293 Q1251.17 358.73 1253.47 355.293 Q1255.78 351.838 1260.13 351.838 Z" fill="#000000" fill-rule="nonzero" fill-opacity="1" /><path clip-path="url(#clip620)" d="M1275.25 373.817 L1278.92 373.817 L1278.92 378.227 L1275.25 378.227 L1275.25 373.817 Z" fill="#000000" fill-rule="nonzero" fill-opacity="1" /><path clip-path="url(#clip620)" d="M1287.16 375.275 L1292.89 375.275 L1292.89 355.501 L1286.66 356.751 L1286.66 353.557 L1292.86 352.307 L1296.37 352.307 L1296.37 375.275 L1302.09 375.275 L1302.09 378.227 L1287.16 378.227 L1287.16 375.275 Z" fill="#000000" fill-rule="nonzero" fill-opacity="1" /><path clip-path="url(#clip620)" d="M1316.68 354.616 Q1313.97 354.616 1312.6 357.289 Q1311.24 359.945 1311.24 365.293 Q1311.24 370.622 1312.6 373.296 Q1313.97 375.952 1316.68 375.952 Q1319.4 375.952 1320.76 373.296 Q1322.13 370.622 1322.13 365.293 Q1322.13 359.945 1320.76 357.289 Q1319.4 354.616 1316.68 354.616 M1316.68 351.838 Q1321.04 351.838 1323.33 355.293 Q1325.64 358.73 1325.64 365.293 Q1325.64 371.838 1323.33 375.293 Q1321.04 378.73 1316.68 378.73 Q1312.32 378.73 1310.01 375.293 Q1307.72 371.838 1307.72 365.293 Q1307.72 358.73 1310.01 355.293 Q1312.32 351.838 1316.68 351.838 Z" fill="#000000" fill-rule="nonzero" fill-opacity="1" /><path clip-path="url(#clip620)" d="M1260.88 211.61 Q1258.17 211.61 1256.8 214.283 Q1255.45 216.939 1255.45 222.287 Q1255.45 227.617 1256.8 230.29 Q1258.17 232.946 1260.88 232.946 Q1263.6 232.946 1264.96 230.29 Q1266.33 227.617 1266.33 222.287 Q1266.33 216.939 1264.96 214.283 Q1263.6 211.61 1260.88 211.61 M1260.88 208.832 Q1265.24 208.832 1267.53 212.287 Q1269.84 215.724 1269.84 222.287 Q1269.84 228.832 1267.53 232.287 Q1265.24 235.724 1260.88 235.724 Q1256.52 235.724 1254.21 232.287 Q1251.92 228.832 1251.92 222.287 Q1251.92 215.724 1254.21 212.287 Q1256.52 208.832 1260.88 208.832 Z" fill="#000000" fill-rule="nonzero" fill-opacity="1" /><path clip-path="url(#clip620)" d="M1276 230.811 L1279.66 230.811 L1279.66 235.221 L1276 235.221 L1276 230.811 Z" fill="#000000" fill-rule="nonzero" fill-opacity="1" /><path clip-path="url(#clip620)" d="M1287.91 232.269 L1293.64 232.269 L1293.64 212.495 L1287.41 213.745 L1287.41 210.551 L1293.6 209.301 L1297.11 209.301 L1297.11 232.269 L1302.84 232.269 L1302.84 235.221 L1287.91 235.221 L1287.91 232.269 Z" fill="#000000" fill-rule="nonzero" fill-opacity="1" /><path clip-path="url(#clip620)" d="M1309.96 209.301 L1323.73 209.301 L1323.73 212.252 L1313.17 212.252 L1313.17 218.606 Q1313.93 218.346 1314.7 218.224 Q1315.46 218.085 1316.23 218.085 Q1320.57 218.085 1323.1 220.464 Q1325.64 222.842 1325.64 226.905 Q1325.64 231.089 1323.03 233.415 Q1320.43 235.724 1315.69 235.724 Q1314.06 235.724 1312.35 235.446 Q1310.67 235.169 1308.87 234.613 L1308.87 231.089 Q1310.43 231.939 1312.09 232.356 Q1313.76 232.773 1315.62 232.773 Q1318.62 232.773 1320.38 231.193 Q1322.13 229.613 1322.13 226.905 Q1322.13 224.196 1320.38 222.617 Q1318.62 221.037 1315.62 221.037 Q1314.21 221.037 1312.81 221.349 Q1311.42 221.662 1309.96 222.321 L1309.96 209.301 Z" fill="#000000" fill-rule="nonzero" fill-opacity="1" /><path clip-path="url(#clip620)" d="M1373.53 18.9258 Q1370.02 18.9258 1368.12 21.4721 Q1366.13 24.1341 1366.13 28.5323 Q1366.13 33.185 1368.09 35.8702 Q1370.08 38.5322 1373.53 38.5322 Q1376.94 38.5322 1378.93 35.847 Q1380.92 33.1619 1380.92 28.5323 Q1380.92 24.2962 1378.93 21.4721 Q1377.1 18.9258 1373.53 18.9258 M1373.53 15.5462 L1387.68 15.5462 L1387.68 19.8054 L1382.91 19.8054 Q1385.43 23.4165 1385.43 28.5323 Q1385.43 34.898 1382.26 38.5091 Q1379.09 42.1433 1373.53 42.1433 Q1367.96 42.1433 1364.81 38.5091 Q1361.64 34.898 1361.64 28.5323 Q1361.64 22.1203 1364.81 18.5323 Q1367.42 15.5462 1373.53 15.5462 Z" fill="#000000" fill-rule="nonzero" fill-opacity="1" /><path clip-path="url(#clip620)" d="M1411.84 19.6666 Q1410.99 19.3656 1410.13 19.1342 Q1407.84 18.5323 1405.39 18.5323 Q1401.15 18.5323 1398.79 20.824 Q1396.59 22.9536 1396.17 26.8656 L1411.84 26.8656 L1411.84 30.1989 L1396.17 30.1989 Q1396.59 34.1109 1398.79 36.2405 Q1401.15 38.5322 1405.39 38.5322 Q1408.35 38.5322 1410.13 37.9304 L1411.84 37.3517 L1411.84 41.2174 L1410.02 41.634 Q1407.61 42.1433 1405.13 42.1433 Q1398.93 42.1433 1395.32 38.5322 Q1391.68 34.9211 1391.68 28.5323 Q1391.68 22.1434 1395.32 18.5323 Q1398.93 14.9212 1405.13 14.9212 Q1407.47 14.9212 1410.02 15.4305 Q1410.94 15.6157 1411.84 15.8934 L1411.84 19.6666 Z" fill="#000000" fill-rule="nonzero" fill-opacity="1" /><polyline clip-path="url(#clip623)" style="stroke:#009af9; stroke-linecap:round; stroke-linejoin:round; stroke-width:4; stroke-opacity:1; fill:none" points="1389.69,164.876 1448.13,222.877 1506.56,281.677 1565,341.278 1623.44,401.678 1681.88,462.878 1740.32,524.878 1798.76,587.678 1857.2,651.278 1915.63,586.878 1974.07,521.679 2032.51,455.679 2090.95,388.879 2149.39,321.279 2207.83,252.879 2266.27,183.68 2324.71,113.68 "/>
<circle clip-path="url(#clip623)" cx="1857.2" cy="651.278" r="10.8" fill="#ff0000" fill-rule="evenodd" fill-opacity="1" stroke="#000000" stroke-opacity="1" stroke-width="3.2"/>
<path clip-path="url(#clip620)" d="M161.818 1467.41 L1152.94 1467.41 L1152.94 897.552 L161.818 897.552  Z" fill="#ffffff" fill-rule="evenodd" fill-opacity="1"/>
<defs>
  <clipPath id="clip624">
    <rect x="161" y="897" width="992" height="571"/>
  </clipPath>
</defs>
<polyline clip-path="url(#clip624)" style="stroke:#000000; stroke-linecap:round; stroke-linejoin:round; stroke-width:2; stroke-opacity:0.1; fill:none" points="301.541,1467.41 301.541,897.552 "/>
<polyline clip-path="url(#clip624)" style="stroke:#000000; stroke-linecap:round; stroke-linejoin:round; stroke-width:2; stroke-opacity:0.1; fill:none" points="474.311,1467.41 474.311,897.552 "/>
<polyline clip-path="url(#clip624)" style="stroke:#000000; stroke-linecap:round; stroke-linejoin:round; stroke-width:2; stroke-opacity:0.1; fill:none" points="647.081,1467.41 647.081,897.552 "/>
<polyline clip-path="url(#clip624)" style="stroke:#000000; stroke-linecap:round; stroke-linejoin:round; stroke-width:2; stroke-opacity:0.1; fill:none" points="819.852,1467.41 819.852,897.552 "/>
<polyline clip-path="url(#clip624)" style="stroke:#000000; stroke-linecap:round; stroke-linejoin:round; stroke-width:2; stroke-opacity:0.1; fill:none" points="992.622,1467.41 992.622,897.552 "/>
<polyline clip-path="url(#clip624)" style="stroke:#000000; stroke-linecap:round; stroke-linejoin:round; stroke-width:2; stroke-opacity:0.1; fill:none" points="161.818,1451.28 1152.94,1451.28 "/>
<polyline clip-path="url(#clip624)" style="stroke:#000000; stroke-linecap:round; stroke-linejoin:round; stroke-width:2; stroke-opacity:0.1; fill:none" points="161.818,1330.05 1152.94,1330.05 "/>
<polyline clip-path="url(#clip624)" style="stroke:#000000; stroke-linecap:round; stroke-linejoin:round; stroke-width:2; stroke-opacity:0.1; fill:none" points="161.818,1208.81 1152.94,1208.81 "/>
<polyline clip-path="url(#clip624)" style="stroke:#000000; stroke-linecap:round; stroke-linejoin:round; stroke-width:2; stroke-opacity:0.1; fill:none" points="161.818,1087.58 1152.94,1087.58 "/>
<polyline clip-path="url(#clip624)" style="stroke:#000000; stroke-linecap:round; stroke-linejoin:round; stroke-width:2; stroke-opacity:0.1; fill:none" points="161.818,966.347 1152.94,966.347 "/>
<polyline clip-path="url(#clip620)" style="stroke:#000000; stroke-linecap:round; stroke-linejoin:round; stroke-width:4; stroke-opacity:1; fill:none" points="161.818,1467.41 1152.94,1467.41 "/>
<polyline clip-path="url(#clip620)" style="stroke:#000000; stroke-linecap:round; stroke-linejoin:round; stroke-width:4; stroke-opacity:1; fill:none" points="301.541,1467.41 301.541,1448.51 "/>
<polyline clip-path="url(#clip620)" style="stroke:#000000; stroke-linecap:round; stroke-linejoin:round; stroke-width:4; stroke-opacity:1; fill:none" points="474.311,1467.41 474.311,1448.51 "/>
<polyline clip-path="url(#clip620)" style="stroke:#000000; stroke-linecap:round; stroke-linejoin:round; stroke-width:4; stroke-opacity:1; fill:none" points="647.081,1467.41 647.081,1448.51 "/>
<polyline clip-path="url(#clip620)" style="stroke:#000000; stroke-linecap:round; stroke-linejoin:round; stroke-width:4; stroke-opacity:1; fill:none" points="819.852,1467.41 819.852,1448.51 "/>
<polyline clip-path="url(#clip620)" style="stroke:#000000; stroke-linecap:round; stroke-linejoin:round; stroke-width:4; stroke-opacity:1; fill:none" points="992.622,1467.41 992.622,1448.51 "/>
<path clip-path="url(#clip620)" d="M247.692 1539.14 Q245.777 1541.05 246.697 1543.91 Q247.618 1546.75 251.399 1550.53 Q255.168 1554.3 258.016 1555.23 Q260.864 1556.14 262.779 1554.23 Q264.706 1552.3 263.786 1549.46 Q262.865 1546.6 259.096 1542.83 Q255.315 1539.05 252.467 1538.14 Q249.619 1537.21 247.692 1539.14 M245.728 1537.17 Q248.809 1534.09 252.872 1534.92 Q256.936 1535.71 261.576 1540.35 Q266.204 1544.98 267.014 1549.06 Q267.824 1553.11 264.743 1556.19 Q261.662 1559.27 257.599 1558.47 Q253.535 1557.65 248.907 1553.02 Q244.267 1548.38 243.456 1544.33 Q242.646 1540.26 245.728 1537.17 Z" fill="#000000" fill-rule="nonzero" fill-opacity="1" /><path clip-path="url(#clip620)" d="M271.962 1542.02 L274.552 1539.43 L277.67 1542.55 L275.08 1545.14 L271.962 1542.02 Z" fill="#000000" fill-rule="nonzero" fill-opacity="1" /><path clip-path="url(#clip620)" d="M264.768 1518.8 L274.503 1509.06 L276.59 1511.15 L269.126 1518.61 L273.619 1523.11 Q273.975 1522.38 274.429 1521.76 Q274.871 1521.12 275.411 1520.58 Q278.48 1517.51 281.954 1517.4 Q285.428 1517.29 288.301 1520.16 Q291.26 1523.12 291.063 1526.6 Q290.854 1530.08 287.503 1533.43 Q286.349 1534.58 284.95 1535.59 Q283.562 1536.59 281.893 1537.47 L279.401 1534.98 Q281.107 1534.47 282.58 1533.59 Q284.053 1532.71 285.367 1531.39 Q287.491 1529.27 287.614 1526.91 Q287.736 1524.55 285.821 1522.64 Q283.906 1520.72 281.549 1520.85 Q279.192 1520.97 277.068 1523.09 Q276.074 1524.09 275.301 1525.3 Q274.54 1526.51 273.975 1528 L264.768 1518.8 Z" fill="#000000" fill-rule="nonzero" fill-opacity="1" /><path clip-path="url(#clip620)" d="M287.675 1499.16 Q285.76 1501.07 286.681 1503.93 Q287.601 1506.77 291.382 1510.55 Q295.151 1514.32 297.999 1515.25 Q300.847 1516.16 302.762 1514.24 Q304.69 1512.32 303.769 1509.48 Q302.848 1506.62 299.079 1502.85 Q295.298 1499.07 292.45 1498.16 Q289.602 1497.23 287.675 1499.16 M285.711 1497.19 Q288.792 1494.11 292.855 1494.93 Q296.919 1495.73 301.559 1500.37 Q306.187 1505 306.998 1509.07 Q307.808 1513.13 304.726 1516.21 Q301.645 1519.29 297.582 1518.49 Q293.518 1517.67 288.89 1513.04 Q284.25 1508.4 283.44 1504.35 Q282.629 1500.27 285.711 1497.19 Z" fill="#000000" fill-rule="nonzero" fill-opacity="1" /><path clip-path="url(#clip620)" d="M421.309 1538.29 Q419.394 1540.21 420.315 1543.07 Q421.235 1545.9 425.016 1549.68 Q428.785 1553.45 431.633 1554.39 Q434.481 1555.29 436.396 1553.38 Q438.324 1551.45 437.403 1548.62 Q436.482 1545.76 432.714 1541.99 Q428.932 1538.21 426.084 1537.3 Q423.236 1536.36 421.309 1538.29 M419.345 1536.33 Q422.426 1533.25 426.49 1534.07 Q430.553 1534.87 435.193 1539.51 Q439.821 1544.14 440.632 1548.21 Q441.442 1552.26 438.361 1555.34 Q435.279 1558.42 431.216 1557.63 Q427.152 1556.8 422.524 1552.18 Q417.884 1547.54 417.074 1543.48 Q416.264 1539.41 419.345 1536.33 Z" fill="#000000" fill-rule="nonzero" fill-opacity="1" /><path clip-path="url(#clip620)" d="M445.579 1541.18 L448.169 1538.59 L451.287 1541.7 L448.697 1544.29 L445.579 1541.18 Z" fill="#000000" fill-rule="nonzero" fill-opacity="1" /><path clip-path="url(#clip620)" d="M438.385 1517.95 L448.12 1508.22 L450.207 1510.3 L442.743 1517.77 L447.236 1522.26 Q447.592 1521.53 448.046 1520.91 Q448.488 1520.27 449.028 1519.73 Q452.097 1516.66 455.572 1516.55 Q459.046 1516.44 461.918 1519.31 Q464.877 1522.27 464.68 1525.76 Q464.472 1529.23 461.12 1532.58 Q459.966 1533.74 458.567 1534.74 Q457.18 1535.74 455.51 1536.62 L453.018 1534.13 Q454.725 1533.63 456.198 1532.74 Q457.671 1531.86 458.984 1530.55 Q461.108 1528.42 461.231 1526.06 Q461.354 1523.71 459.439 1521.79 Q457.524 1519.88 455.167 1520 Q452.809 1520.12 450.686 1522.25 Q449.691 1523.24 448.918 1524.46 Q448.157 1525.66 447.592 1527.16 L438.385 1517.95 Z" fill="#000000" fill-rule="nonzero" fill-opacity="1" /><path clip-path="url(#clip620)" d="M472.734 1516.08 L481.388 1507.43 L483.475 1509.52 L471.837 1521.15 L469.751 1519.07 Q469.701 1516.19 469.677 1511.31 Q469.652 1506.4 469.566 1505.06 Q469.419 1502.53 468.965 1501.14 Q468.511 1499.73 467.614 1498.84 Q466.154 1497.38 464.202 1497.49 Q462.262 1497.58 460.617 1499.23 Q459.451 1500.4 458.555 1502.1 Q457.671 1503.8 457.02 1506.09 L454.516 1503.59 Q455.412 1501.49 456.406 1499.88 Q457.401 1498.27 458.481 1497.19 Q461.329 1494.34 464.447 1494.07 Q467.565 1493.8 469.947 1496.18 Q471.076 1497.31 471.666 1498.76 Q472.255 1500.19 472.513 1502.68 Q472.562 1503.34 472.623 1506.69 Q472.672 1510.03 472.734 1516.08 Z" fill="#000000" fill-rule="nonzero" fill-opacity="1" /><path clip-path="url(#clip620)" d="M592.974 1539.4 Q591.059 1541.31 591.98 1544.17 Q592.901 1547.01 596.682 1550.79 Q600.451 1554.56 603.299 1555.49 Q606.147 1556.4 608.062 1554.48 Q609.989 1552.56 609.068 1549.72 Q608.148 1546.86 604.379 1543.09 Q600.598 1539.31 597.75 1538.4 Q594.902 1537.47 592.974 1539.4 M591.01 1537.43 Q594.092 1534.35 598.155 1535.17 Q602.218 1535.97 606.859 1540.61 Q611.487 1545.24 612.297 1549.32 Q613.107 1553.37 610.026 1556.45 Q606.945 1559.53 602.881 1558.73 Q598.818 1557.91 594.19 1553.28 Q589.549 1548.64 588.739 1544.59 Q587.929 1540.51 591.01 1537.43 Z" fill="#000000" fill-rule="nonzero" fill-opacity="1" /><path clip-path="url(#clip620)" d="M617.244 1542.28 L619.835 1539.69 L622.953 1542.81 L620.362 1545.4 L617.244 1542.28 Z" fill="#000000" fill-rule="nonzero" fill-opacity="1" /><path clip-path="url(#clip620)" d="M610.051 1519.06 L619.785 1509.32 L621.872 1511.41 L614.409 1518.87 L618.902 1523.36 Q619.258 1522.64 619.712 1522.01 Q620.154 1521.38 620.694 1520.84 Q623.763 1517.77 627.237 1517.66 Q630.711 1517.55 633.584 1520.42 Q636.542 1523.38 636.346 1526.86 Q636.137 1530.34 632.786 1533.69 Q631.632 1534.84 630.232 1535.85 Q628.845 1536.84 627.176 1537.73 L624.684 1535.24 Q626.39 1534.73 627.863 1533.85 Q629.336 1532.96 630.65 1531.65 Q632.774 1529.53 632.896 1527.17 Q633.019 1524.81 631.104 1522.9 Q629.189 1520.98 626.832 1521.11 Q624.475 1521.23 622.351 1523.35 Q621.357 1524.35 620.583 1525.56 Q619.822 1526.76 619.258 1528.26 L610.051 1519.06 Z" fill="#000000" fill-rule="nonzero" fill-opacity="1" /><path clip-path="url(#clip620)" d="M634.996 1498.43 L638.519 1514.48 L644.78 1508.22 L634.996 1498.43 M632.184 1496.92 L635.302 1493.8 L647.247 1505.75 L649.862 1503.13 L651.924 1505.2 L649.309 1507.81 L653.631 1512.13 L651.163 1514.6 L646.842 1510.28 L638.568 1518.55 L636.174 1516.16 L632.184 1496.92 Z" fill="#000000" fill-rule="nonzero" fill-opacity="1" /><path clip-path="url(#clip620)" d="M765.917 1539.22 Q764.002 1541.14 764.922 1544 Q765.843 1546.84 769.624 1550.62 Q773.393 1554.39 776.241 1555.32 Q779.089 1556.23 781.004 1554.31 Q782.931 1552.38 782.011 1549.55 Q781.09 1546.69 777.321 1542.92 Q773.54 1539.14 770.692 1538.23 Q767.844 1537.3 765.917 1539.22 M763.952 1537.26 Q767.034 1534.18 771.097 1535 Q775.161 1535.8 779.801 1540.44 Q784.429 1545.07 785.239 1549.14 Q786.049 1553.19 782.968 1556.28 Q779.887 1559.36 775.823 1558.56 Q771.76 1557.74 767.132 1553.11 Q762.492 1548.47 761.681 1544.42 Q760.871 1540.34 763.952 1537.26 Z" fill="#000000" fill-rule="nonzero" fill-opacity="1" /><path clip-path="url(#clip620)" d="M790.186 1542.11 L792.777 1539.52 L795.895 1542.64 L793.305 1545.23 L790.186 1542.11 Z" fill="#000000" fill-rule="nonzero" fill-opacity="1" /><path clip-path="url(#clip620)" d="M782.993 1518.88 L792.728 1509.15 L794.815 1511.24 L787.351 1518.7 L791.844 1523.19 Q792.2 1522.47 792.654 1521.84 Q793.096 1521.2 793.636 1520.66 Q796.705 1517.59 800.179 1517.48 Q803.653 1517.37 806.526 1520.25 Q809.485 1523.2 809.288 1526.69 Q809.079 1530.17 805.728 1533.52 Q804.574 1534.67 803.175 1535.68 Q801.787 1536.67 800.118 1537.56 L797.626 1535.06 Q799.332 1534.56 800.805 1533.68 Q802.278 1532.79 803.592 1531.48 Q805.716 1529.35 805.839 1527 Q805.961 1524.64 804.046 1522.73 Q802.131 1520.81 799.774 1520.93 Q797.417 1521.06 795.293 1523.18 Q794.299 1524.17 793.526 1525.39 Q792.764 1526.59 792.2 1528.09 L782.993 1518.88 Z" fill="#000000" fill-rule="nonzero" fill-opacity="1" /><path clip-path="url(#clip620)" d="M812.75 1505.48 Q811.08 1507.15 811.24 1509.27 Q811.412 1511.38 813.401 1513.37 Q815.377 1515.35 817.501 1515.53 Q819.625 1515.69 821.294 1514.02 Q822.964 1512.35 822.792 1510.24 Q822.62 1508.1 820.643 1506.13 Q818.655 1504.14 816.531 1503.98 Q814.419 1503.81 812.75 1505.48 M809.902 1492.78 L812.161 1495.04 Q810.786 1495.53 809.595 1496.26 Q808.416 1496.97 807.483 1497.9 Q805.028 1500.36 805.384 1503.32 Q805.753 1506.26 808.92 1509.8 Q808.576 1508.01 809.104 1506.35 Q809.62 1504.68 810.933 1503.37 Q813.695 1500.6 816.973 1500.69 Q820.251 1500.75 823.136 1503.64 Q825.959 1506.46 825.996 1509.84 Q826.033 1513.21 823.258 1515.99 Q820.079 1519.17 815.966 1518.42 Q811.842 1517.66 807.213 1513.03 Q802.868 1508.68 802.352 1504.04 Q801.824 1499.39 805.298 1495.91 Q806.231 1494.98 807.361 1494.22 Q808.502 1493.45 809.902 1492.78 Z" fill="#000000" fill-rule="nonzero" fill-opacity="1" /><path clip-path="url(#clip620)" d="M938.822 1539.09 Q936.907 1541 937.828 1543.87 Q938.748 1546.7 942.529 1550.48 Q946.298 1554.25 949.146 1555.18 Q951.994 1556.09 953.909 1554.18 Q955.837 1552.25 954.916 1549.41 Q953.995 1546.55 950.226 1542.78 Q946.445 1539 943.597 1538.1 Q940.749 1537.16 938.822 1539.09 M936.858 1537.13 Q939.939 1534.04 944.002 1534.87 Q948.066 1535.66 952.706 1540.31 Q957.334 1544.93 958.145 1549.01 Q958.955 1553.06 955.873 1556.14 Q952.792 1559.22 948.729 1558.42 Q944.665 1557.6 940.037 1552.97 Q935.397 1548.33 934.587 1544.28 Q933.777 1540.21 936.858 1537.13 Z" fill="#000000" fill-rule="nonzero" fill-opacity="1" /><path clip-path="url(#clip620)" d="M963.092 1541.97 L965.682 1539.38 L968.8 1542.5 L966.21 1545.09 L963.092 1541.97 Z" fill="#000000" fill-rule="nonzero" fill-opacity="1" /><path clip-path="url(#clip620)" d="M955.898 1518.75 L965.633 1509.01 L967.72 1511.1 L960.256 1518.56 L964.749 1523.06 Q965.105 1522.33 965.559 1521.71 Q966.001 1521.07 966.541 1520.53 Q969.61 1517.46 973.085 1517.35 Q976.559 1517.24 979.431 1520.11 Q982.39 1523.07 982.193 1526.56 Q981.985 1530.03 978.633 1533.38 Q977.479 1534.54 976.08 1535.54 Q974.693 1536.54 973.023 1537.42 L970.531 1534.93 Q972.238 1534.42 973.711 1533.54 Q975.184 1532.66 976.497 1531.34 Q978.621 1529.22 978.744 1526.86 Q978.867 1524.51 976.952 1522.59 Q975.036 1520.68 972.679 1520.8 Q970.322 1520.92 968.199 1523.04 Q967.204 1524.04 966.431 1525.25 Q965.67 1526.46 965.105 1527.96 L955.898 1518.75 Z" fill="#000000" fill-rule="nonzero" fill-opacity="1" /><path clip-path="url(#clip620)" d="M986.797 1507.1 Q985.029 1508.87 984.956 1510.83 Q984.894 1512.78 986.551 1514.44 Q988.209 1516.1 990.161 1516.04 Q992.125 1515.96 993.893 1514.19 Q995.66 1512.43 995.734 1510.46 Q995.795 1508.49 994.15 1506.84 Q992.493 1505.18 990.529 1505.26 Q988.577 1505.32 986.797 1507.1 M983.261 1508.52 Q981.273 1509.73 979.284 1509.53 Q977.308 1509.32 975.736 1507.75 Q973.539 1505.55 973.821 1502.72 Q974.116 1499.87 976.841 1497.14 Q979.579 1494.4 982.414 1494.12 Q985.25 1493.84 987.448 1496.04 Q989.019 1497.61 989.215 1499.6 Q989.424 1501.57 988.233 1503.55 Q990.443 1502.18 992.653 1502.4 Q994.875 1502.61 996.63 1504.36 Q999.294 1507.02 999.085 1510.08 Q998.889 1513.13 995.857 1516.16 Q992.825 1519.19 989.768 1519.4 Q986.723 1519.6 984.059 1516.93 Q982.304 1515.18 982.095 1512.95 Q981.887 1510.73 983.261 1508.52 M978.437 1505.51 Q979.861 1506.94 981.543 1506.85 Q983.237 1506.75 984.845 1505.15 Q986.441 1503.55 986.539 1501.86 Q986.65 1500.15 985.226 1498.73 Q983.802 1497.3 982.095 1497.41 Q980.401 1497.51 978.805 1499.11 Q977.197 1500.71 977.099 1502.41 Q977.013 1504.09 978.437 1505.51 Z" fill="#000000" fill-rule="nonzero" fill-opacity="1" /><polyline clip-path="url(#clip620)" style="stroke:#000000; stroke-linecap:round; stroke-linejoin:round; stroke-width:4; stroke-opacity:1; fill:none" points="161.818,1467.41 161.818,897.552 "/>
<polyline clip-path="url(#clip620)" style="stroke:#000000; stroke-linecap:round; stroke-linejoin:round; stroke-width:4; stroke-opacity:1; fill:none" points="161.818,1451.28 180.716,1451.28 "/>
<polyline clip-path="url(#clip620)" style="stroke:#000000; stroke-linecap:round; stroke-linejoin:round; stroke-width:4; stroke-opacity:1; fill:none" points="161.818,1330.05 180.716,1330.05 "/>
<polyline clip-path="url(#clip620)" style="stroke:#000000; stroke-linecap:round; stroke-linejoin:round; stroke-width:4; stroke-opacity:1; fill:none" points="161.818,1208.81 180.716,1208.81 "/>
<polyline clip-path="url(#clip620)" style="stroke:#000000; stroke-linecap:round; stroke-linejoin:round; stroke-width:4; stroke-opacity:1; fill:none" points="161.818,1087.58 180.716,1087.58 "/>
<polyline clip-path="url(#clip620)" style="stroke:#000000; stroke-linecap:round; stroke-linejoin:round; stroke-width:4; stroke-opacity:1; fill:none" points="161.818,966.347 180.716,966.347 "/>
<path clip-path="url(#clip620)" d="M60.315 1440.63 Q57.6067 1440.63 56.2352 1443.3 Q54.881 1445.96 54.881 1451.3 Q54.881 1456.63 56.2352 1459.31 Q57.6067 1461.96 60.315 1461.96 Q63.0407 1461.96 64.3948 1459.31 Q65.7664 1456.63 65.7664 1451.3 Q65.7664 1445.96 64.3948 1443.3 Q63.0407 1440.63 60.315 1440.63 M60.315 1437.85 Q64.6726 1437.85 66.9643 1441.3 Q69.2733 1444.74 69.2733 1451.3 Q69.2733 1457.85 66.9643 1461.3 Q64.6726 1464.74 60.315 1464.74 Q55.9574 1464.74 53.6484 1461.3 Q51.3567 1457.85 51.3567 1451.3 Q51.3567 1444.74 53.6484 1441.3 Q55.9574 1437.85 60.315 1437.85 Z" fill="#000000" fill-rule="nonzero" fill-opacity="1" /><path clip-path="url(#clip620)" d="M75.4364 1459.83 L79.0996 1459.83 L79.0996 1464.24 L75.4364 1464.24 L75.4364 1459.83 Z" fill="#000000" fill-rule="nonzero" fill-opacity="1" /><path clip-path="url(#clip620)" d="M94.2384 1440.63 Q91.5301 1440.63 90.1586 1443.3 Q88.8044 1445.96 88.8044 1451.3 Q88.8044 1456.63 90.1586 1459.31 Q91.5301 1461.96 94.2384 1461.96 Q96.9641 1461.96 98.3183 1459.31 Q99.6898 1456.63 99.6898 1451.3 Q99.6898 1445.96 98.3183 1443.3 Q96.9641 1440.63 94.2384 1440.63 M94.2384 1437.85 Q98.596 1437.85 100.888 1441.3 Q103.197 1444.74 103.197 1451.3 Q103.197 1457.85 100.888 1461.3 Q98.596 1464.74 94.2384 1464.74 Q89.8808 1464.74 87.5718 1461.3 Q85.2801 1457.85 85.2801 1451.3 Q85.2801 1444.74 87.5718 1441.3 Q89.8808 1437.85 94.2384 1437.85 Z" fill="#000000" fill-rule="nonzero" fill-opacity="1" /><path clip-path="url(#clip620)" d="M116.86 1440.63 Q114.152 1440.63 112.78 1443.3 Q111.426 1445.96 111.426 1451.3 Q111.426 1456.63 112.78 1459.31 Q114.152 1461.96 116.86 1461.96 Q119.586 1461.96 120.94 1459.31 Q122.311 1456.63 122.311 1451.3 Q122.311 1445.96 120.94 1443.3 Q119.586 1440.63 116.86 1440.63 M116.86 1437.85 Q121.217 1437.85 123.509 1441.3 Q125.818 1444.74 125.818 1451.3 Q125.818 1457.85 123.509 1461.3 Q121.217 1464.74 116.86 1464.74 Q112.502 1464.74 110.193 1461.3 Q107.902 1457.85 107.902 1451.3 Q107.902 1444.74 110.193 1441.3 Q112.502 1437.85 116.86 1437.85 Z" fill="#000000" fill-rule="nonzero" fill-opacity="1" /><path clip-path="url(#clip620)" d="M61.2351 1319.39 Q58.5268 1319.39 57.1553 1322.07 Q55.8011 1324.72 55.8011 1330.07 Q55.8011 1335.4 57.1553 1338.08 Q58.5268 1340.73 61.2351 1340.73 Q63.9608 1340.73 65.315 1338.08 Q66.6865 1335.4 66.6865 1330.07 Q66.6865 1324.72 65.315 1322.07 Q63.9608 1319.39 61.2351 1319.39 M61.2351 1316.62 Q65.5927 1316.62 67.8844 1320.07 Q70.1934 1323.51 70.1934 1330.07 Q70.1934 1336.62 67.8844 1340.07 Q65.5927 1343.51 61.2351 1343.51 Q56.8775 1343.51 54.5685 1340.07 Q52.2768 1336.62 52.2768 1330.07 Q52.2768 1323.51 54.5685 1320.07 Q56.8775 1316.62 61.2351 1316.62 Z" fill="#000000" fill-rule="nonzero" fill-opacity="1" /><path clip-path="url(#clip620)" d="M76.3566 1338.6 L80.0197 1338.6 L80.0197 1343.01 L76.3566 1343.01 L76.3566 1338.6 Z" fill="#000000" fill-rule="nonzero" fill-opacity="1" /><path clip-path="url(#clip620)" d="M95.1586 1319.39 Q92.4502 1319.39 91.0787 1322.07 Q89.7246 1324.72 89.7246 1330.07 Q89.7246 1335.4 91.0787 1338.08 Q92.4502 1340.73 95.1586 1340.73 Q97.8842 1340.73 99.2384 1338.08 Q100.61 1335.4 100.61 1330.07 Q100.61 1324.72 99.2384 1322.07 Q97.8842 1319.39 95.1586 1319.39 M95.1586 1316.62 Q99.5162 1316.62 101.808 1320.07 Q104.117 1323.51 104.117 1330.07 Q104.117 1336.62 101.808 1340.07 Q99.5162 1343.51 95.1586 1343.51 Q90.8009 1343.51 88.4919 1340.07 Q86.2003 1336.62 86.2003 1330.07 Q86.2003 1323.51 88.4919 1320.07 Q90.8009 1316.62 95.1586 1316.62 Z" fill="#000000" fill-rule="nonzero" fill-opacity="1" /><path clip-path="url(#clip620)" d="M110.888 1340.05 L116.617 1340.05 L116.617 1320.28 L110.384 1321.53 L110.384 1318.34 L116.582 1317.09 L120.089 1317.09 L120.089 1340.05 L125.818 1340.05 L125.818 1343.01 L110.888 1343.01 L110.888 1340.05 Z" fill="#000000" fill-rule="nonzero" fill-opacity="1" /><path clip-path="url(#clip620)" d="M61.5129 1198.16 Q58.8046 1198.16 57.4331 1200.84 Q56.0789 1203.49 56.0789 1208.84 Q56.0789 1214.17 57.4331 1216.84 Q58.8046 1219.5 61.5129 1219.5 Q64.2386 1219.5 65.5927 1216.84 Q66.9643 1214.17 66.9643 1208.84 Q66.9643 1203.49 65.5927 1200.84 Q64.2386 1198.16 61.5129 1198.16 M61.5129 1195.38 Q65.8705 1195.38 68.1622 1198.84 Q70.4712 1202.28 70.4712 1208.84 Q70.4712 1215.38 68.1622 1218.84 Q65.8705 1222.28 61.5129 1222.28 Q57.1553 1222.28 54.8463 1218.84 Q52.5546 1215.38 52.5546 1208.84 Q52.5546 1202.28 54.8463 1198.84 Q57.1553 1195.38 61.5129 1195.38 Z" fill="#000000" fill-rule="nonzero" fill-opacity="1" /><path clip-path="url(#clip620)" d="M76.6343 1217.36 L80.2975 1217.36 L80.2975 1221.77 L76.6343 1221.77 L76.6343 1217.36 Z" fill="#000000" fill-rule="nonzero" fill-opacity="1" /><path clip-path="url(#clip620)" d="M95.4363 1198.16 Q92.728 1198.16 91.3565 1200.84 Q90.0023 1203.49 90.0023 1208.84 Q90.0023 1214.17 91.3565 1216.84 Q92.728 1219.5 95.4363 1219.5 Q98.162 1219.5 99.5162 1216.84 Q100.888 1214.17 100.888 1208.84 Q100.888 1203.49 99.5162 1200.84 Q98.162 1198.16 95.4363 1198.16 M95.4363 1195.38 Q99.7939 1195.38 102.086 1198.84 Q104.395 1202.28 104.395 1208.84 Q104.395 1215.38 102.086 1218.84 Q99.7939 1222.28 95.4363 1222.28 Q91.0787 1222.28 88.7697 1218.84 Q86.478 1215.38 86.478 1208.84 Q86.478 1202.28 88.7697 1198.84 Q91.0787 1195.38 95.4363 1195.38 Z" fill="#000000" fill-rule="nonzero" fill-opacity="1" /><path clip-path="url(#clip620)" d="M113.579 1218.82 L125.818 1218.82 L125.818 1221.77 L109.36 1221.77 L109.36 1218.82 Q111.356 1216.76 114.794 1213.28 Q118.249 1209.79 119.134 1208.79 Q120.818 1206.89 121.478 1205.59 Q122.155 1204.27 122.155 1203.01 Q122.155 1200.94 120.697 1199.64 Q119.256 1198.34 116.929 1198.34 Q115.28 1198.34 113.44 1198.91 Q111.617 1199.48 109.533 1200.64 L109.533 1197.1 Q111.652 1196.25 113.492 1195.82 Q115.332 1195.38 116.86 1195.38 Q120.888 1195.38 123.283 1197.4 Q125.679 1199.41 125.679 1202.78 Q125.679 1204.38 125.072 1205.82 Q124.481 1207.24 122.901 1209.19 Q122.467 1209.69 120.141 1212.1 Q117.815 1214.5 113.579 1218.82 Z" fill="#000000" fill-rule="nonzero" fill-opacity="1" /><path clip-path="url(#clip620)" d="M60.8011 1076.93 Q58.0928 1076.93 56.7213 1079.6 Q55.3671 1082.26 55.3671 1087.61 Q55.3671 1092.94 56.7213 1095.61 Q58.0928 1098.27 60.8011 1098.27 Q63.5268 1098.27 64.8809 1095.61 Q66.2525 1092.94 66.2525 1087.61 Q66.2525 1082.26 64.8809 1079.6 Q63.5268 1076.93 60.8011 1076.93 M60.8011 1074.15 Q65.1587 1074.15 67.4504 1077.61 Q69.7594 1081.04 69.7594 1087.61 Q69.7594 1094.15 67.4504 1097.61 Q65.1587 1101.04 60.8011 1101.04 Q56.4435 1101.04 54.1345 1097.61 Q51.8428 1094.15 51.8428 1087.61 Q51.8428 1081.04 54.1345 1077.61 Q56.4435 1074.15 60.8011 1074.15 Z" fill="#000000" fill-rule="nonzero" fill-opacity="1" /><path clip-path="url(#clip620)" d="M75.9225 1096.13 L79.5857 1096.13 L79.5857 1100.54 L75.9225 1100.54 L75.9225 1096.13 Z" fill="#000000" fill-rule="nonzero" fill-opacity="1" /><path clip-path="url(#clip620)" d="M94.7245 1076.93 Q92.0162 1076.93 90.6447 1079.6 Q89.2905 1082.26 89.2905 1087.61 Q89.2905 1092.94 90.6447 1095.61 Q92.0162 1098.27 94.7245 1098.27 Q97.4502 1098.27 98.8044 1095.61 Q100.176 1092.94 100.176 1087.61 Q100.176 1082.26 98.8044 1079.6 Q97.4502 1076.93 94.7245 1076.93 M94.7245 1074.15 Q99.0821 1074.15 101.374 1077.61 Q103.683 1081.04 103.683 1087.61 Q103.683 1094.15 101.374 1097.61 Q99.0821 1101.04 94.7245 1101.04 Q90.3669 1101.04 88.0579 1097.61 Q85.7662 1094.15 85.7662 1087.61 Q85.7662 1081.04 88.0579 1077.61 Q90.3669 1074.15 94.7245 1074.15 Z" fill="#000000" fill-rule="nonzero" fill-opacity="1" /><path clip-path="url(#clip620)" d="M120.471 1086.56 Q122.988 1087.1 124.395 1088.8 Q125.818 1090.51 125.818 1093.01 Q125.818 1096.84 123.179 1098.94 Q120.54 1101.04 115.679 1101.04 Q114.047 1101.04 112.311 1100.71 Q110.593 1100.4 108.752 1099.76 L108.752 1096.37 Q110.211 1097.22 111.947 1097.66 Q113.683 1098.09 115.575 1098.09 Q118.874 1098.09 120.592 1096.79 Q122.329 1095.49 122.329 1093.01 Q122.329 1090.71 120.714 1089.43 Q119.117 1088.13 116.252 1088.13 L113.231 1088.13 L113.231 1085.24 L116.391 1085.24 Q118.978 1085.24 120.349 1084.22 Q121.721 1083.18 121.721 1081.23 Q121.721 1079.24 120.297 1078.18 Q118.891 1077.1 116.252 1077.1 Q114.811 1077.1 113.162 1077.41 Q111.513 1077.73 109.533 1078.39 L109.533 1075.26 Q111.53 1074.71 113.266 1074.43 Q115.02 1074.15 116.565 1074.15 Q120.558 1074.15 122.884 1075.97 Q125.21 1077.78 125.21 1080.87 Q125.21 1083.02 123.978 1084.52 Q122.745 1085.99 120.471 1086.56 Z" fill="#000000" fill-rule="nonzero" fill-opacity="1" /><path clip-path="url(#clip620)" d="M59.9504 955.696 Q57.2421 955.696 55.8706 958.37 Q54.5164 961.026 54.5164 966.373 Q54.5164 971.703 55.8706 974.376 Q57.2421 977.033 59.9504 977.033 Q62.6761 977.033 64.0303 974.376 Q65.4018 971.703 65.4018 966.373 Q65.4018 961.026 64.0303 958.37 Q62.6761 955.696 59.9504 955.696 M59.9504 952.918 Q64.308 952.918 66.5997 956.373 Q68.9087 959.811 68.9087 966.373 Q68.9087 972.918 66.5997 976.373 Q64.308 979.81 59.9504 979.81 Q55.5928 979.81 53.2838 976.373 Q50.9921 972.918 50.9921 966.373 Q50.9921 959.811 53.2838 956.373 Q55.5928 952.918 59.9504 952.918 Z" fill="#000000" fill-rule="nonzero" fill-opacity="1" /><path clip-path="url(#clip620)" d="M75.0719 974.897 L78.735 974.897 L78.735 979.307 L75.0719 979.307 L75.0719 974.897 Z" fill="#000000" fill-rule="nonzero" fill-opacity="1" /><path clip-path="url(#clip620)" d="M93.8738 955.696 Q91.1655 955.696 89.794 958.37 Q88.4398 961.026 88.4398 966.373 Q88.4398 971.703 89.794 974.376 Q91.1655 977.033 93.8738 977.033 Q96.5995 977.033 97.9537 974.376 Q99.3252 971.703 99.3252 966.373 Q99.3252 961.026 97.9537 958.37 Q96.5995 955.696 93.8738 955.696 M93.8738 952.918 Q98.2315 952.918 100.523 956.373 Q102.832 959.811 102.832 966.373 Q102.832 972.918 100.523 976.373 Q98.2315 979.81 93.8738 979.81 Q89.5162 979.81 87.2072 976.373 Q84.9156 972.918 84.9156 966.373 Q84.9156 959.811 87.2072 956.373 Q89.5162 952.918 93.8738 952.918 Z" fill="#000000" fill-rule="nonzero" fill-opacity="1" /><path clip-path="url(#clip620)" d="M118.631 956.442 L109.777 970.279 L118.631 970.279 L118.631 956.442 M117.711 953.387 L122.12 953.387 L122.12 970.279 L125.818 970.279 L125.818 973.196 L122.12 973.196 L122.12 979.307 L118.631 979.307 L118.631 973.196 L106.929 973.196 L106.929 969.81 L117.711 953.387 Z" fill="#000000" fill-rule="nonzero" fill-opacity="1" /><path clip-path="url(#clip620)" d="M173.716 818.926 Q170.198 818.926 168.3 821.472 Q166.309 824.134 166.309 828.532 Q166.309 833.185 168.276 835.87 Q170.267 838.532 173.716 838.532 Q177.119 838.532 179.11 835.847 Q181.1 833.162 181.1 828.532 Q181.1 824.296 179.11 821.472 Q177.281 818.926 173.716 818.926 M173.716 815.546 L187.86 815.546 L187.86 819.805 L183.091 819.805 Q185.614 823.417 185.614 828.532 Q185.614 834.898 182.443 838.509 Q179.272 842.143 173.716 842.143 Q168.138 842.143 164.989 838.509 Q161.818 834.898 161.818 828.532 Q161.818 822.12 164.989 818.532 Q167.605 815.546 173.716 815.546 Z" fill="#000000" fill-rule="nonzero" fill-opacity="1" /><path clip-path="url(#clip620)" d="M198.878 841.472 L190.961 815.546 L195.545 815.546 L202.235 837.305 Q205.012 834.435 207.327 830.454 Q209.086 827.467 209.179 824.875 Q209.225 823.648 208.67 821.333 Q208.022 818.579 205.568 815.546 L209.873 815.546 L209.873 815.546 Q211.471 817.606 212.535 820.477 Q213.508 823.116 213.508 824.921 Q213.508 829.458 210.36 833.509 Q206.262 838.787 203.415 841.472 L198.878 841.472 Z" fill="#000000" fill-rule="nonzero" fill-opacity="1" /><polyline clip-path="url(#clip624)" style="stroke:#009af9; stroke-linecap:round; stroke-linejoin:round; stroke-width:4; stroke-opacity:1; fill:none" points="189.869,964.847 248.307,1022.85 306.746,1081.66 365.185,1141.26 423.623,1201.67 482.062,1262.87 540.501,1324.87 598.939,1387.68 657.378,1451.28 715.817,1386.88 774.256,1321.68 832.694,1255.68 891.133,1188.88 949.572,1121.28 1008.01,1052.88 1066.45,983.678 1124.89,913.68 "/>
<circle clip-path="url(#clip624)" cx="657.378" cy="1451.28" r="10.8" fill="#ff0000" fill-rule="evenodd" fill-opacity="1" stroke="#000000" stroke-opacity="1" stroke-width="3.2"/>
</svg>
