<?xml version="1.0" encoding="utf-8"?>
<svg xmlns="http://www.w3.org/2000/svg" xmlns:xlink="http://www.w3.org/1999/xlink" width="600" height="400" viewBox="0 0 2400 1600">
<defs>
  <clipPath id="clip910">
    <rect x="0" y="0" width="2400" height="1600"/>
  </clipPath>
</defs>
<path clip-path="url(#clip910)" d="M0 1600 L2400 1600 L2400 0 L0 0  Z" fill="#ffffff" fill-rule="evenodd" fill-opacity="1"/>
<defs>
  <clipPath id="clip911">
    <rect x="480" y="0" width="1681" height="1600"/>
  </clipPath>
</defs>
<path clip-path="url(#clip910)" d="M161.818 667.406 L1152.94 667.406 L1152.94 97.5521 L161.818 97.5521  Z" fill="#ffffff" fill-rule="evenodd" fill-opacity="1"/>
<defs>
  <clipPath id="clip912">
    <rect x="161" y="97" width="992" height="571"/>
  </clipPath>
</defs>
<polyline clip-path="url(#clip912)" style="stroke:#000000; stroke-linecap:round; stroke-linejoin:round; stroke-width:2; stroke-opacity:0.1; fill:none" points="184.49,667.406 184.49,97.5521 "/>
<polyline clip-path="url(#clip912)" style="stroke:#000000; stroke-linecap:round; stroke-linejoin:round; stroke-width:2; stroke-opacity:0.1; fill:none" points="447.127,667.406 447.127,97.5521 "/>
<polyline clip-path="url(#clip912)" style="stroke:#000000; stroke-linecap:round; stroke-linejoin:round; stroke-width:2; stroke-opacity:0.1; fill:none" points="709.765,667.406 709.765,97.5521 "/>
<polyline clip-path="url(#clip912)" style="stroke:#000000; stroke-linecap:round; stroke-linejoin:round; stroke-width:2; stroke-opacity:0.1; fill:none" points="972.403,667.406 972.403,97.5521 "/>
<polyline clip-path="url(#clip912)" style="stroke:#000000; stroke-linecap:round; stroke-linejoin:round; stroke-width:2; stroke-opacity:0.1; fill:none" points="161.818,651.278 1152.94,651.278 "/>
<polyline clip-path="url(#clip912)" style="stroke:#000000; stroke-linecap:round; stroke-linejoin:round; stroke-width:2; stroke-opacity:0.1; fill:none" points="161.818,521.552 1152.94,521.552 "/>
<polyline clip-path="url(#clip912)" style="stroke:#000000; stroke-linecap:round; stroke-linejoin:round; stroke-width:2; stroke-opacity:0.1; fill:none" points="161.818,391.825 1152.94,391.825 "/>
<polyline clip-path="url(#clip912)" style="stroke:#000000; stroke-linecap:round; stroke-linejoin:round; stroke-width:2; stroke-opacity:0.1; fill:none" points="161.818,262.099 1152.94,262.099 "/>
<polyline clip-path="url(#clip912)" style="stroke:#000000; stroke-linecap:round; stroke-linejoin:round; stroke-width:2; stroke-opacity:0.1; fill:none" points="161.818,132.372 1152.94,132.372 "/>
<polyline clip-path="url(#clip910)" style="stroke:#000000; stroke-linecap:round; stroke-linejoin:round; stroke-width:4; stroke-opacity:1; fill:none" points="161.818,667.406 1152.94,667.406 "/>
<polyline clip-path="url(#clip910)" style="stroke:#000000; stroke-linecap:round; stroke-linejoin:round; stroke-width:4; stroke-opacity:1; fill:none" points="184.49,667.406 184.49,648.509 "/>
<polyline clip-path="url(#clip910)" style="stroke:#000000; stroke-linecap:round; stroke-linejoin:round; stroke-width:4; stroke-opacity:1; fill:none" points="447.127,667.406 447.127,648.509 "/>
<polyline clip-path="url(#clip910)" style="stroke:#000000; stroke-linecap:round; stroke-linejoin:round; stroke-width:4; stroke-opacity:1; fill:none" points="709.765,667.406 709.765,648.509 "/>
<polyline clip-path="url(#clip910)" style="stroke:#000000; stroke-linecap:round; stroke-linejoin:round; stroke-width:4; stroke-opacity:1; fill:none" points="972.403,667.406 972.403,648.509 "/>
<path clip-path="url(#clip910)" d="M130.64 739.139 Q128.725 741.054 129.646 743.914 Q130.567 746.75 134.348 750.531 Q138.117 754.3 140.965 755.233 Q143.813 756.141 145.728 754.226 Q147.655 752.299 146.734 749.463 Q145.814 746.603 142.045 742.834 Q138.264 739.053 135.416 738.144 Q132.568 737.211 130.64 739.139 M128.676 737.175 Q131.758 734.093 135.821 734.916 Q139.884 735.714 144.525 740.354 Q149.153 744.982 149.963 749.058 Q150.773 753.109 147.692 756.19 Q144.611 759.272 140.547 758.474 Q136.484 757.651 131.856 753.023 Q127.215 748.383 126.405 744.332 Q125.595 740.256 128.676 737.175 Z" fill="#000000" fill-rule="nonzero" fill-opacity="1" /><path clip-path="url(#clip910)" d="M154.91 742.024 L157.501 739.433 L160.619 742.552 L158.028 745.142 L154.91 742.024 Z" fill="#000000" fill-rule="nonzero" fill-opacity="1" /><path clip-path="url(#clip910)" d="M162.62 723.143 Q160.852 724.911 160.778 726.875 Q160.717 728.827 162.374 730.484 Q164.031 732.141 165.983 732.08 Q167.947 732.006 169.715 730.239 Q171.483 728.471 171.557 726.507 Q171.618 724.53 169.973 722.885 Q168.316 721.228 166.352 721.302 Q164.4 721.363 162.62 723.143 M159.084 724.567 Q157.095 725.77 155.107 725.574 Q153.13 725.365 151.559 723.794 Q149.361 721.596 149.644 718.761 Q149.938 715.912 152.664 713.187 Q155.401 710.45 158.237 710.167 Q161.073 709.885 163.27 712.082 Q164.842 713.654 165.038 715.642 Q165.247 717.619 164.056 719.595 Q166.266 718.22 168.475 718.441 Q170.697 718.65 172.453 720.406 Q175.117 723.069 174.908 726.126 Q174.712 729.171 171.679 732.203 Q168.647 735.235 165.59 735.444 Q162.546 735.64 159.882 732.976 Q158.127 731.221 157.918 728.999 Q157.709 726.777 159.084 724.567 M154.26 721.559 Q155.684 722.983 157.365 722.898 Q159.06 722.799 160.668 721.191 Q162.264 719.595 162.362 717.901 Q162.472 716.195 161.048 714.771 Q159.624 713.347 157.918 713.457 Q156.224 713.555 154.628 715.151 Q153.02 716.76 152.922 718.454 Q152.836 720.135 154.26 721.559 Z" fill="#000000" fill-rule="nonzero" fill-opacity="1" /><path clip-path="url(#clip910)" d="M170.624 699.156 Q168.709 701.071 169.629 703.931 Q170.55 706.767 174.331 710.548 Q178.1 714.317 180.948 715.25 Q183.796 716.158 185.711 714.243 Q187.638 712.316 186.718 709.48 Q185.797 706.619 182.028 702.851 Q178.247 699.07 175.399 698.161 Q172.551 697.228 170.624 699.156 M168.659 697.191 Q171.741 694.11 175.804 694.933 Q179.868 695.731 184.508 700.371 Q189.136 704.999 189.946 709.075 Q190.756 713.126 187.675 716.207 Q184.594 719.288 180.53 718.49 Q176.467 717.668 171.839 713.04 Q167.199 708.399 166.388 704.348 Q165.578 700.273 168.659 697.191 Z" fill="#000000" fill-rule="nonzero" fill-opacity="1" /><path clip-path="url(#clip910)" d="M393.806 738.611 Q391.891 740.526 392.812 743.386 Q393.733 746.222 397.514 750.003 Q401.282 753.772 404.13 754.705 Q406.978 755.613 408.893 753.698 Q410.821 751.771 409.9 748.935 Q408.979 746.075 405.211 742.306 Q401.43 738.525 398.582 737.617 Q395.734 736.684 393.806 738.611 M391.842 736.647 Q394.923 733.565 398.987 734.388 Q403.05 735.186 407.69 739.826 Q412.319 744.454 413.129 748.53 Q413.939 752.581 410.858 755.662 Q407.776 758.744 403.713 757.946 Q399.65 757.123 395.022 752.495 Q390.381 747.855 389.571 743.804 Q388.761 739.728 391.842 736.647 Z" fill="#000000" fill-rule="nonzero" fill-opacity="1" /><path clip-path="url(#clip910)" d="M418.076 741.496 L420.666 738.906 L423.784 742.024 L421.194 744.614 L418.076 741.496 Z" fill="#000000" fill-rule="nonzero" fill-opacity="1" /><path clip-path="url(#clip910)" d="M425.785 722.615 Q424.018 724.383 423.944 726.347 Q423.883 728.299 425.54 729.956 Q427.197 731.614 429.149 731.552 Q431.113 731.479 432.881 729.711 Q434.649 727.943 434.722 725.979 Q434.784 724.002 433.139 722.357 Q431.482 720.7 429.517 720.774 Q427.565 720.835 425.785 722.615 M422.25 724.039 Q420.261 725.242 418.272 725.046 Q416.296 724.837 414.725 723.266 Q412.527 721.068 412.81 718.233 Q413.104 715.385 415.829 712.659 Q418.567 709.922 421.403 709.639 Q424.239 709.357 426.436 711.554 Q428.007 713.126 428.204 715.115 Q428.412 717.091 427.222 719.067 Q429.431 717.692 431.641 717.913 Q433.863 718.122 435.619 719.878 Q438.282 722.542 438.074 725.598 Q437.877 728.643 434.845 731.675 Q431.813 734.707 428.756 734.916 Q425.712 735.112 423.048 732.448 Q421.292 730.693 421.084 728.471 Q420.875 726.249 422.25 724.039 M417.425 721.032 Q418.849 722.456 420.531 722.37 Q422.225 722.271 423.834 720.663 Q425.429 719.067 425.528 717.373 Q425.638 715.667 424.214 714.243 Q422.79 712.819 421.084 712.929 Q419.39 713.028 417.794 714.623 Q416.185 716.232 416.087 717.926 Q416.001 719.608 417.425 721.032 Z" fill="#000000" fill-rule="nonzero" fill-opacity="1" /><path clip-path="url(#clip910)" d="M426.878 702.274 L436.613 692.539 L438.7 694.626 L431.236 702.09 L435.729 706.583 Q436.085 705.858 436.539 705.232 Q436.981 704.594 437.521 704.054 Q440.59 700.985 444.065 700.874 Q447.539 700.764 450.411 703.636 Q453.37 706.595 453.173 710.081 Q452.965 713.555 449.613 716.907 Q448.459 718.061 447.06 719.067 Q445.673 720.062 444.003 720.946 L441.511 718.454 Q443.217 717.95 444.691 717.066 Q446.164 716.183 447.477 714.869 Q449.601 712.745 449.724 710.388 Q449.847 708.031 447.931 706.116 Q446.016 704.201 443.659 704.324 Q441.302 704.447 439.179 706.57 Q438.184 707.565 437.411 708.78 Q436.65 709.983 436.085 711.481 L426.878 702.274 Z" fill="#000000" fill-rule="nonzero" fill-opacity="1" /><path clip-path="url(#clip910)" d="M655.916 739.139 Q654.001 741.054 654.922 743.914 Q655.843 746.75 659.624 750.531 Q663.392 754.3 666.24 755.233 Q669.088 756.141 671.004 754.226 Q672.931 752.299 672.01 749.463 Q671.089 746.603 667.321 742.834 Q663.54 739.053 660.692 738.144 Q657.844 737.211 655.916 739.139 M653.952 737.175 Q657.033 734.093 661.097 734.916 Q665.16 735.714 669.8 740.354 Q674.429 744.982 675.239 749.058 Q676.049 753.109 672.968 756.19 Q669.886 759.272 665.823 758.474 Q661.76 757.651 657.132 753.023 Q652.491 748.383 651.681 744.332 Q650.871 740.256 653.952 737.175 Z" fill="#000000" fill-rule="nonzero" fill-opacity="1" /><path clip-path="url(#clip910)" d="M680.186 742.024 L682.776 739.433 L685.894 742.552 L683.304 745.142 L680.186 742.024 Z" fill="#000000" fill-rule="nonzero" fill-opacity="1" /><path clip-path="url(#clip910)" d="M690.989 736.696 L688.73 734.437 Q690.105 733.946 691.296 733.222 Q692.487 732.497 693.407 731.577 Q695.863 729.122 695.507 726.188 Q695.151 723.229 691.971 719.681 Q692.315 721.449 691.787 723.106 Q691.259 724.764 689.933 726.089 Q687.183 728.839 683.918 728.79 Q680.653 728.716 677.768 725.832 Q674.944 723.008 674.907 719.632 Q674.87 716.256 677.645 713.482 Q680.824 710.302 684.937 711.076 Q689.049 711.825 693.69 716.465 Q698.023 720.798 698.551 725.451 Q699.079 730.079 695.605 733.553 Q694.672 734.486 693.53 735.26 Q692.388 736.033 690.989 736.696 M688.153 723.99 Q689.823 722.321 689.651 720.209 Q689.491 718.085 687.503 716.097 Q685.526 714.12 683.402 713.961 Q681.279 713.776 679.609 715.446 Q677.94 717.116 678.111 719.252 Q678.283 721.363 680.26 723.339 Q682.248 725.328 684.36 725.5 Q686.484 725.66 688.153 723.99 Z" fill="#000000" fill-rule="nonzero" fill-opacity="1" /><path clip-path="url(#clip910)" d="M695.899 699.156 Q693.984 701.071 694.905 703.931 Q695.826 706.767 699.607 710.548 Q703.376 714.317 706.224 715.25 Q709.072 716.158 710.987 714.243 Q712.914 712.316 711.993 709.48 Q711.073 706.619 707.304 702.851 Q703.523 699.07 700.675 698.161 Q697.827 697.228 695.899 699.156 M693.935 697.191 Q697.017 694.11 701.08 694.933 Q705.143 695.731 709.784 700.371 Q714.412 704.999 715.222 709.075 Q716.032 713.126 712.951 716.207 Q709.87 719.288 705.806 718.49 Q701.743 717.668 697.115 713.04 Q692.474 708.399 691.664 704.348 Q690.854 700.273 693.935 697.191 Z" fill="#000000" fill-rule="nonzero" fill-opacity="1" /><path clip-path="url(#clip910)" d="M919.082 738.611 Q917.167 740.526 918.088 743.386 Q919.008 746.222 922.789 750.003 Q926.558 753.772 929.406 754.705 Q932.254 755.613 934.169 753.698 Q936.097 751.771 935.176 748.935 Q934.255 746.075 930.486 742.306 Q926.705 738.525 923.857 737.617 Q921.009 736.684 919.082 738.611 M917.118 736.647 Q920.199 733.565 924.262 734.388 Q928.326 735.186 932.966 739.826 Q937.594 744.454 938.405 748.53 Q939.215 752.581 936.133 755.662 Q933.052 758.744 928.989 757.946 Q924.925 757.123 920.297 752.495 Q915.657 747.855 914.847 743.804 Q914.036 739.728 917.118 736.647 Z" fill="#000000" fill-rule="nonzero" fill-opacity="1" /><path clip-path="url(#clip910)" d="M943.352 741.496 L945.942 738.906 L949.06 742.024 L946.47 744.614 L943.352 741.496 Z" fill="#000000" fill-rule="nonzero" fill-opacity="1" /><path clip-path="url(#clip910)" d="M954.155 736.168 L951.896 733.909 Q953.271 733.418 954.462 732.694 Q955.652 731.97 956.573 731.049 Q959.028 728.594 958.672 725.66 Q958.316 722.701 955.137 719.153 Q955.481 720.921 954.953 722.578 Q954.425 724.236 953.099 725.561 Q950.349 728.311 947.084 728.262 Q943.818 728.189 940.933 725.304 Q938.11 722.48 938.073 719.104 Q938.036 715.728 940.811 712.954 Q943.99 709.774 948.103 710.548 Q952.215 711.297 956.855 715.937 Q961.189 720.27 961.717 724.923 Q962.245 729.551 958.771 733.025 Q957.838 733.958 956.696 734.732 Q955.554 735.505 954.155 736.168 M951.319 723.462 Q952.989 721.793 952.817 719.681 Q952.657 717.557 950.668 715.569 Q948.692 713.592 946.568 713.433 Q944.444 713.249 942.775 714.918 Q941.105 716.588 941.277 718.724 Q941.449 720.835 943.425 722.812 Q945.414 724.8 947.526 724.972 Q949.649 725.132 951.319 723.462 Z" fill="#000000" fill-rule="nonzero" fill-opacity="1" /><path clip-path="url(#clip910)" d="M952.154 702.274 L961.889 692.539 L963.976 694.626 L956.512 702.09 L961.005 706.583 Q961.361 705.858 961.815 705.232 Q962.257 704.594 962.797 704.054 Q965.866 700.985 969.34 700.874 Q972.814 700.764 975.687 703.636 Q978.646 706.595 978.449 710.081 Q978.24 713.555 974.889 716.907 Q973.735 718.061 972.336 719.067 Q970.948 720.062 969.279 720.946 L966.787 718.454 Q968.493 717.95 969.966 717.066 Q971.439 716.183 972.753 714.869 Q974.877 712.745 975 710.388 Q975.122 708.031 973.207 706.116 Q971.292 704.201 968.935 704.324 Q966.578 704.447 964.454 706.57 Q963.46 707.565 962.687 708.78 Q961.926 709.983 961.361 711.481 L952.154 702.274 Z" fill="#000000" fill-rule="nonzero" fill-opacity="1" /><polyline clip-path="url(#clip910)" style="stroke:#000000; stroke-linecap:round; stroke-linejoin:round; stroke-width:4; stroke-opacity:1; fill:none" points="161.818,667.406 161.818,97.5521 "/>
<polyline clip-path="url(#clip910)" style="stroke:#000000; stroke-linecap:round; stroke-linejoin:round; stroke-width:4; stroke-opacity:1; fill:none" points="161.818,651.278 180.716,651.278 "/>
<polyline clip-path="url(#clip910)" style="stroke:#000000; stroke-linecap:round; stroke-linejoin:round; stroke-width:4; stroke-opacity:1; fill:none" points="161.818,521.552 180.716,521.552 "/>
<polyline clip-path="url(#clip910)" style="stroke:#000000; stroke-linecap:round; stroke-linejoin:round; stroke-width:4; stroke-opacity:1; fill:none" points="161.818,391.825 180.716,391.825 "/>
<polyline clip-path="url(#clip910)" style="stroke:#000000; stroke-linecap:round; stroke-linejoin:round; stroke-width:4; stroke-opacity:1; fill:none" points="161.818,262.099 180.716,262.099 "/>
<polyline clip-path="url(#clip910)" style="stroke:#000000; stroke-linecap:round; stroke-linejoin:round; stroke-width:4; stroke-opacity:1; fill:none" points="161.818,132.372 180.716,132.372 "/>
<path clip-path="url(#clip910)" d="M116.86 640.627 Q114.152 640.627 112.78 643.301 Q111.426 645.957 111.426 651.304 Q111.426 656.634 112.78 659.308 Q114.152 661.964 116.86 661.964 Q119.586 661.964 120.94 659.308 Q122.311 656.634 122.311 651.304 Q122.311 645.957 120.94 643.301 Q119.586 640.627 116.86 640.627 M116.86 637.85 Q121.217 637.85 123.509 641.305 Q125.818 644.742 125.818 651.304 Q125.818 657.85 123.509 661.304 Q121.217 664.742 116.86 664.742 Q112.502 664.742 110.193 661.304 Q107.902 657.85 107.902 651.304 Q107.902 644.742 110.193 641.305 Q112.502 637.85 116.86 637.85 Z" fill="#000000" fill-rule="nonzero" fill-opacity="1" /><path clip-path="url(#clip910)" d="M110.888 531.561 L116.617 531.561 L116.617 511.786 L110.384 513.036 L110.384 509.842 L116.582 508.592 L120.089 508.592 L120.089 531.561 L125.818 531.561 L125.818 534.512 L110.888 534.512 L110.888 531.561 Z" fill="#000000" fill-rule="nonzero" fill-opacity="1" /><path clip-path="url(#clip910)" d="M113.579 401.834 L125.818 401.834 L125.818 404.785 L109.36 404.785 L109.36 401.834 Q111.356 399.768 114.794 396.296 Q118.249 392.806 119.134 391.799 Q120.818 389.907 121.478 388.605 Q122.155 387.285 122.155 386.018 Q122.155 383.952 120.697 382.65 Q119.256 381.348 116.929 381.348 Q115.28 381.348 113.44 381.921 Q111.617 382.494 109.533 383.657 L109.533 380.115 Q111.652 379.265 113.492 378.831 Q115.332 378.397 116.86 378.397 Q120.888 378.397 123.283 380.41 Q125.679 382.424 125.679 385.792 Q125.679 387.39 125.072 388.831 Q124.481 390.254 122.901 392.199 Q122.467 392.702 120.141 395.115 Q117.815 397.511 113.579 401.834 Z" fill="#000000" fill-rule="nonzero" fill-opacity="1" /><path clip-path="url(#clip910)" d="M120.471 261.083 Q122.988 261.621 124.395 263.323 Q125.818 265.024 125.818 267.524 Q125.818 271.361 123.179 273.462 Q120.54 275.562 115.679 275.562 Q114.047 275.562 112.311 275.232 Q110.593 274.92 108.752 274.278 L108.752 270.892 Q110.211 271.743 111.947 272.177 Q113.683 272.611 115.575 272.611 Q118.874 272.611 120.592 271.309 Q122.329 270.007 122.329 267.524 Q122.329 265.232 120.714 263.948 Q119.117 262.646 116.252 262.646 L113.231 262.646 L113.231 259.764 L116.391 259.764 Q118.978 259.764 120.349 258.739 Q121.721 257.698 121.721 255.753 Q121.721 253.757 120.297 252.698 Q118.891 251.621 116.252 251.621 Q114.811 251.621 113.162 251.934 Q111.513 252.246 109.533 252.906 L109.533 249.781 Q111.53 249.226 113.266 248.948 Q115.02 248.67 116.565 248.67 Q120.558 248.67 122.884 250.493 Q125.21 252.299 125.21 255.389 Q125.21 257.542 123.978 259.035 Q122.745 260.51 120.471 261.083 Z" fill="#000000" fill-rule="nonzero" fill-opacity="1" /><path clip-path="url(#clip910)" d="M118.631 122.468 L109.777 136.305 L118.631 136.305 L118.631 122.468 M117.711 119.412 L122.12 119.412 L122.12 136.305 L125.818 136.305 L125.818 139.221 L122.12 139.221 L122.12 145.332 L118.631 145.332 L118.631 139.221 L106.929 139.221 L106.929 135.836 L117.711 119.412 Z" fill="#000000" fill-rule="nonzero" fill-opacity="1" /><path clip-path="url(#clip910)" d="M163.901 20.1758 Q165.313 17.8147 168.809 15.7314 Q170.175 14.9212 174.387 14.9212 Q179.11 14.9212 182.049 18.6712 Q185.012 22.4212 185.012 28.5323 Q185.012 34.6433 182.049 38.3933 Q179.11 42.1433 174.387 42.1433 Q171.54 42.1433 169.48 41.0322 Q167.443 39.8979 166.1 37.5831 L166.1 51.3331 L161.818 51.3331 L161.818 28.7637 Q161.818 23.4165 163.901 20.1758 M180.591 28.5323 Q180.591 23.8332 178.647 21.1712 Q176.725 18.486 173.346 18.486 Q169.966 18.486 168.022 21.1712 Q166.1 23.8332 166.1 28.5323 Q166.1 33.2313 168.022 35.9165 Q169.966 38.5785 173.346 38.5785 Q176.725 38.5785 178.647 35.9165 Q180.591 33.2313 180.591 28.5323 Z" fill="#000000" fill-rule="nonzero" fill-opacity="1" /><polyline clip-path="url(#clip912)" style="stroke:#009af9; stroke-linecap:round; stroke-linejoin:round; stroke-width:4; stroke-opacity:1; fill:none" points="189.869,594.244 248.307,598.414 306.746,603.11 365.185,608.439 423.623,614.537 482.062,621.583 540.501,629.815 598.939,639.561 657.378,651.278 715.817,636.924 774.256,618.932 832.694,595.721 891.133,564.635 949.572,520.852 1008.01,454.589 1066.45,342.569 1124.89,113.68 "/>
<circle clip-path="url(#clip912)" cx="657.378" cy="651.278" r="10.8" fill="#ff0000" fill-rule="evenodd" fill-opacity="1" stroke="#000000" stroke-opacity="1" stroke-width="3.2"/>
<path clip-path="url(#clip910)" d="M1361.64 667.406 L2352.76 667.406 L2352.76 97.5521 L1361.64 97.5521  Z" fill="#ffffff" fill-rule="evenodd" fill-opacity="1"/>
<defs>
  <clipPath id="clip913">
    <rect x="1361" y="97" width="992" height="571"/>
  </clipPath>
</defs>
<polyline clip-path="url(#clip913)" style="stroke:#000000; stroke-linecap:round; stroke-linejoin:round; stroke-width:2; stroke-opacity:0.1; fill:none" points="1497.59,667.406 1497.59,97.5521 "/>
<polyline clip-path="url(#clip913)" style="stroke:#000000; stroke-linecap:round; stroke-linejoin:round; stroke-width:2; stroke-opacity:0.1; fill:none" points="1641.44,667.406 1641.44,97.5521 "/>
<polyline clip-path="url(#clip913)" style="stroke:#000000; stroke-linecap:round; stroke-linejoin:round; stroke-width:2; stroke-opacity:0.1; fill:none" points="1785.29,667.406 1785.29,97.5521 "/>
<polyline clip-path="url(#clip913)" style="stroke:#000000; stroke-linecap:round; stroke-linejoin:round; stroke-width:2; stroke-opacity:0.1; fill:none" points="1929.14,667.406 1929.14,97.5521 "/>
<polyline clip-path="url(#clip913)" style="stroke:#000000; stroke-linecap:round; stroke-linejoin:round; stroke-width:2; stroke-opacity:0.1; fill:none" points="2072.99,667.406 2072.99,97.5521 "/>
<polyline clip-path="url(#clip913)" style="stroke:#000000; stroke-linecap:round; stroke-linejoin:round; stroke-width:2; stroke-opacity:0.1; fill:none" points="2216.84,667.406 2216.84,97.5521 "/>
<polyline clip-path="url(#clip913)" style="stroke:#000000; stroke-linecap:round; stroke-linejoin:round; stroke-width:2; stroke-opacity:0.1; fill:none" points="1361.64,651.278 2352.76,651.278 "/>
<polyline clip-path="url(#clip913)" style="stroke:#000000; stroke-linecap:round; stroke-linejoin:round; stroke-width:2; stroke-opacity:0.1; fill:none" points="1361.64,508.087 2352.76,508.087 "/>
<polyline clip-path="url(#clip913)" style="stroke:#000000; stroke-linecap:round; stroke-linejoin:round; stroke-width:2; stroke-opacity:0.1; fill:none" points="1361.64,364.895 2352.76,364.895 "/>
<polyline clip-path="url(#clip913)" style="stroke:#000000; stroke-linecap:round; stroke-linejoin:round; stroke-width:2; stroke-opacity:0.1; fill:none" points="1361.64,221.703 2352.76,221.703 "/>
<polyline clip-path="url(#clip910)" style="stroke:#000000; stroke-linecap:round; stroke-linejoin:round; stroke-width:4; stroke-opacity:1; fill:none" points="1361.64,667.406 2352.76,667.406 "/>
<polyline clip-path="url(#clip910)" style="stroke:#000000; stroke-linecap:round; stroke-linejoin:round; stroke-width:4; stroke-opacity:1; fill:none" points="1497.59,667.406 1497.59,648.509 "/>
<polyline clip-path="url(#clip910)" style="stroke:#000000; stroke-linecap:round; stroke-linejoin:round; stroke-width:4; stroke-opacity:1; fill:none" points="1641.44,667.406 1641.44,648.509 "/>
<polyline clip-path="url(#clip910)" style="stroke:#000000; stroke-linecap:round; stroke-linejoin:round; stroke-width:4; stroke-opacity:1; fill:none" points="1785.29,667.406 1785.29,648.509 "/>
<polyline clip-path="url(#clip910)" style="stroke:#000000; stroke-linecap:round; stroke-linejoin:round; stroke-width:4; stroke-opacity:1; fill:none" points="1929.14,667.406 1929.14,648.509 "/>
<polyline clip-path="url(#clip910)" style="stroke:#000000; stroke-linecap:round; stroke-linejoin:round; stroke-width:4; stroke-opacity:1; fill:none" points="2072.99,667.406 2072.99,648.509 "/>
<polyline clip-path="url(#clip910)" style="stroke:#000000; stroke-linecap:round; stroke-linejoin:round; stroke-width:4; stroke-opacity:1; fill:none" points="2216.84,667.406 2216.84,648.509 "/>
<path clip-path="url(#clip910)" d="M1443.74 739.139 Q1441.83 741.054 1442.75 743.914 Q1443.67 746.75 1447.45 750.531 Q1451.22 754.3 1454.07 755.233 Q1456.91 756.141 1458.83 754.226 Q1460.76 752.299 1459.84 749.463 Q1458.92 746.603 1455.15 742.834 Q1451.37 739.053 1448.52 738.144 Q1445.67 737.211 1443.74 739.139 M1441.78 737.175 Q1444.86 734.093 1448.92 734.916 Q1452.99 735.714 1457.63 740.354 Q1462.25 744.982 1463.06 749.058 Q1463.88 753.109 1460.79 756.19 Q1457.71 759.272 1453.65 758.474 Q1449.59 757.651 1444.96 753.023 Q1440.32 748.383 1439.51 744.332 Q1438.7 740.256 1441.78 737.175 Z" fill="#000000" fill-rule="nonzero" fill-opacity="1" /><path clip-path="url(#clip910)" d="M1468.01 742.024 L1470.6 739.433 L1473.72 742.552 L1471.13 745.142 L1468.01 742.024 Z" fill="#000000" fill-rule="nonzero" fill-opacity="1" /><path clip-path="url(#clip910)" d="M1476.75 719.755 Q1478.91 718.355 1481.11 718.564 Q1483.32 718.761 1485.09 720.528 Q1487.8 723.241 1487.42 726.593 Q1487.04 729.944 1483.6 733.381 Q1482.45 734.535 1480.99 735.53 Q1479.55 736.524 1477.8 737.371 L1475.4 734.977 Q1477.04 734.548 1478.57 733.627 Q1480.1 732.706 1481.44 731.368 Q1483.77 729.036 1484.07 726.9 Q1484.38 724.751 1482.62 722.996 Q1481 721.375 1478.95 721.609 Q1476.9 721.817 1474.87 723.843 L1472.74 725.979 L1470.7 723.941 L1472.93 721.707 Q1474.76 719.878 1475.01 718.184 Q1475.24 716.477 1473.87 715.102 Q1472.46 713.69 1470.7 713.948 Q1468.95 714.182 1467.08 716.047 Q1466.06 717.066 1465.11 718.454 Q1464.17 719.841 1463.24 721.707 L1461.03 719.497 Q1462.05 717.692 1463.08 716.268 Q1464.12 714.832 1465.21 713.74 Q1468.04 710.916 1470.97 710.56 Q1473.89 710.192 1476.08 712.377 Q1477.6 713.899 1477.78 715.827 Q1477.96 717.742 1476.75 719.755 Z" fill="#000000" fill-rule="nonzero" fill-opacity="1" /><path clip-path="url(#clip910)" d="M1483.73 699.156 Q1481.81 701.071 1482.73 703.931 Q1483.65 706.767 1487.43 710.548 Q1491.2 714.317 1494.05 715.25 Q1496.9 716.158 1498.81 714.243 Q1500.74 712.316 1499.82 709.48 Q1498.9 706.619 1495.13 702.851 Q1491.35 699.07 1488.5 698.161 Q1485.65 697.228 1483.73 699.156 M1481.76 697.191 Q1484.84 694.11 1488.91 694.933 Q1492.97 695.731 1497.61 700.371 Q1502.24 704.999 1503.05 709.075 Q1503.86 713.126 1500.78 716.207 Q1497.7 719.288 1493.63 718.49 Q1489.57 717.668 1484.94 713.04 Q1480.3 708.399 1479.49 704.348 Q1478.68 700.273 1481.76 697.191 Z" fill="#000000" fill-rule="nonzero" fill-opacity="1" /><path clip-path="url(#clip910)" d="M1588.24 738.488 Q1586.33 740.403 1587.25 743.264 Q1588.17 746.099 1591.95 749.88 Q1595.72 753.649 1598.57 754.582 Q1601.41 755.491 1603.33 753.576 Q1605.26 751.648 1604.34 748.812 Q1603.42 745.952 1599.65 742.183 Q1595.87 738.402 1593.02 737.494 Q1590.17 736.561 1588.24 738.488 M1586.28 736.524 Q1589.36 733.443 1593.42 734.265 Q1597.49 735.063 1602.13 739.704 Q1606.75 744.332 1607.57 748.407 Q1608.38 752.458 1605.29 755.54 Q1602.21 758.621 1598.15 757.823 Q1594.09 757.001 1589.46 752.372 Q1584.82 747.732 1584.01 743.681 Q1583.2 739.605 1586.28 736.524 Z" fill="#000000" fill-rule="nonzero" fill-opacity="1" /><path clip-path="url(#clip910)" d="M1612.51 741.373 L1615.1 738.783 L1618.22 741.901 L1615.63 744.491 L1612.51 741.373 Z" fill="#000000" fill-rule="nonzero" fill-opacity="1" /><path clip-path="url(#clip910)" d="M1621.25 719.104 Q1623.41 717.705 1625.61 717.913 Q1627.82 718.11 1629.59 719.878 Q1632.3 722.591 1631.92 725.942 Q1631.54 729.293 1628.1 732.731 Q1626.95 733.885 1625.49 734.879 Q1624.05 735.873 1622.3 736.72 L1619.9 734.327 Q1621.54 733.897 1623.07 732.976 Q1624.6 732.056 1625.94 730.717 Q1628.27 728.385 1628.57 726.249 Q1628.88 724.101 1627.12 722.345 Q1625.5 720.725 1623.45 720.958 Q1621.4 721.167 1619.37 723.192 L1617.24 725.328 L1615.2 723.29 L1617.44 721.056 Q1619.26 719.227 1619.51 717.533 Q1619.74 715.827 1618.37 714.452 Q1616.96 713.04 1615.2 713.298 Q1613.45 713.531 1611.58 715.397 Q1610.56 716.416 1609.62 717.803 Q1608.67 719.19 1607.74 721.056 L1605.53 718.846 Q1606.55 717.042 1607.58 715.618 Q1608.62 714.182 1609.71 713.089 Q1612.54 710.265 1615.47 709.909 Q1618.39 709.541 1620.58 711.726 Q1622.1 713.249 1622.28 715.176 Q1622.46 717.091 1621.25 719.104 Z" fill="#000000" fill-rule="nonzero" fill-opacity="1" /><path clip-path="url(#clip910)" d="M1637.96 717.987 L1642.01 713.936 L1628.03 699.954 L1624.51 705.245 L1622.25 702.986 L1625.75 697.719 L1628.23 695.24 L1644.47 711.481 L1648.52 707.43 L1650.61 709.517 L1640.05 720.074 L1637.96 717.987 Z" fill="#000000" fill-rule="nonzero" fill-opacity="1" /><path clip-path="url(#clip910)" d="M1732.29 738.292 Q1730.37 740.207 1731.29 743.067 Q1732.21 745.903 1736 749.684 Q1739.76 753.453 1742.61 754.386 Q1745.46 755.294 1747.38 753.379 Q1749.3 751.452 1748.38 748.616 Q1747.46 745.756 1743.69 741.987 Q1739.91 738.206 1737.06 737.297 Q1734.22 736.364 1732.29 738.292 M1730.32 736.328 Q1733.41 733.246 1737.47 734.069 Q1741.53 734.867 1746.17 739.507 Q1750.8 744.135 1751.61 748.211 Q1752.42 752.262 1749.34 755.343 Q1746.26 758.425 1742.2 757.627 Q1738.13 756.804 1733.5 752.176 Q1728.86 747.536 1728.05 743.485 Q1727.24 739.409 1730.32 736.328 Z" fill="#000000" fill-rule="nonzero" fill-opacity="1" /><path clip-path="url(#clip910)" d="M1756.56 741.177 L1759.15 738.586 L1762.27 741.705 L1759.68 744.295 L1756.56 741.177 Z" fill="#000000" fill-rule="nonzero" fill-opacity="1" /><path clip-path="url(#clip910)" d="M1765.3 718.908 Q1767.46 717.508 1769.66 717.717 Q1771.87 717.913 1773.63 719.681 Q1776.35 722.394 1775.97 725.746 Q1775.59 729.097 1772.15 732.534 Q1771 733.688 1769.53 734.683 Q1768.1 735.677 1766.34 736.524 L1763.95 734.13 Q1765.58 733.701 1767.12 732.78 Q1768.65 731.859 1769.99 730.521 Q1772.32 728.189 1772.62 726.053 Q1772.92 723.904 1771.17 722.149 Q1769.55 720.528 1767.5 720.762 Q1765.45 720.97 1763.42 722.996 L1761.28 725.132 L1759.25 723.094 L1761.48 720.86 Q1763.31 719.031 1763.56 717.336 Q1763.79 715.63 1762.41 714.255 Q1761 712.843 1759.25 713.101 Q1757.49 713.334 1755.63 715.2 Q1754.61 716.219 1753.66 717.607 Q1752.72 718.994 1751.78 720.86 L1749.57 718.65 Q1750.59 716.845 1751.62 715.421 Q1752.67 713.985 1753.76 712.893 Q1756.58 710.069 1759.52 709.713 Q1762.44 709.345 1764.62 711.53 Q1766.15 713.052 1766.33 714.979 Q1766.5 716.895 1765.3 718.908 Z" fill="#000000" fill-rule="nonzero" fill-opacity="1" /><path clip-path="url(#clip910)" d="M1783.71 716.084 L1792.37 707.43 L1794.45 709.517 L1782.82 721.154 L1780.73 719.067 Q1780.68 716.195 1780.66 711.309 Q1780.63 706.398 1780.55 705.06 Q1780.4 702.532 1779.94 701.144 Q1779.49 699.733 1778.59 698.836 Q1777.13 697.376 1775.18 697.486 Q1773.24 697.584 1771.6 699.229 Q1770.43 700.395 1769.53 702.102 Q1768.65 703.796 1768 706.092 L1765.5 703.587 Q1766.39 701.488 1767.39 699.88 Q1768.38 698.272 1769.46 697.191 Q1772.31 694.343 1775.43 694.073 Q1778.54 693.803 1780.93 696.185 Q1782.06 697.314 1782.65 698.763 Q1783.23 700.187 1783.49 702.679 Q1783.54 703.342 1783.6 706.693 Q1783.65 710.032 1783.71 716.084 Z" fill="#000000" fill-rule="nonzero" fill-opacity="1" /><path clip-path="url(#clip910)" d="M1875.63 738.795 Q1873.72 740.71 1874.64 743.571 Q1875.56 746.406 1879.34 750.187 Q1883.11 753.956 1885.96 754.889 Q1888.81 755.797 1890.72 753.882 Q1892.65 751.955 1891.73 749.119 Q1890.81 746.259 1887.04 742.49 Q1883.26 738.709 1880.41 737.801 Q1877.56 736.868 1875.63 738.795 M1873.67 736.831 Q1876.75 733.75 1880.82 734.572 Q1884.88 735.37 1889.52 740.01 Q1894.15 744.639 1894.96 748.714 Q1895.77 752.765 1892.69 755.847 Q1889.61 758.928 1885.54 758.13 Q1881.48 757.307 1876.85 752.679 Q1872.21 748.039 1871.4 743.988 Q1870.59 739.912 1873.67 736.831 Z" fill="#000000" fill-rule="nonzero" fill-opacity="1" /><path clip-path="url(#clip910)" d="M1899.9 741.68 L1902.5 739.09 L1905.61 742.208 L1903.02 744.798 L1899.9 741.68 Z" fill="#000000" fill-rule="nonzero" fill-opacity="1" /><path clip-path="url(#clip910)" d="M1908.65 719.411 Q1910.81 718.012 1913 718.22 Q1915.21 718.417 1916.98 720.185 Q1919.69 722.898 1919.31 726.249 Q1918.93 729.6 1915.5 733.038 Q1914.34 734.192 1912.88 735.186 Q1911.44 736.18 1909.69 737.027 L1907.3 734.634 Q1908.93 734.204 1910.46 733.283 Q1912 732.362 1913.33 731.024 Q1915.67 728.692 1915.96 726.556 Q1916.27 724.408 1914.51 722.652 Q1912.89 721.032 1910.84 721.265 Q1908.79 721.474 1906.77 723.499 L1904.63 725.635 L1902.59 723.597 L1904.83 721.363 Q1906.66 719.534 1906.9 717.84 Q1907.14 716.133 1905.76 714.759 Q1904.35 713.347 1902.59 713.605 Q1900.84 713.838 1898.97 715.704 Q1897.95 716.723 1897.01 718.11 Q1896.06 719.497 1895.13 721.363 L1892.92 719.153 Q1893.94 717.349 1894.97 715.925 Q1896.01 714.488 1897.11 713.396 Q1899.93 710.572 1902.86 710.216 Q1905.79 709.848 1907.97 712.033 Q1909.49 713.555 1909.68 715.483 Q1909.85 717.398 1908.65 719.411 Z" fill="#000000" fill-rule="nonzero" fill-opacity="1" /><path clip-path="url(#clip910)" d="M1924.64 703.415 Q1926.8 702.016 1929 702.225 Q1931.21 702.421 1932.98 704.189 Q1935.69 706.902 1935.31 710.253 Q1934.93 713.605 1931.49 717.042 Q1930.34 718.196 1928.88 719.19 Q1927.44 720.185 1925.68 721.032 L1923.29 718.638 Q1924.92 718.208 1926.46 717.287 Q1927.99 716.367 1929.33 715.029 Q1931.66 712.696 1931.96 710.56 Q1932.26 708.412 1930.51 706.656 Q1928.89 705.036 1926.84 705.269 Q1924.79 705.478 1922.76 707.503 L1920.63 709.639 L1918.59 707.602 L1920.82 705.367 Q1922.65 703.538 1922.9 701.844 Q1923.13 700.138 1921.76 698.763 Q1920.34 697.351 1918.59 697.609 Q1916.83 697.842 1914.97 699.708 Q1913.95 700.727 1913 702.114 Q1912.06 703.501 1911.13 705.367 L1908.92 703.158 Q1909.93 701.353 1910.97 699.929 Q1912.01 698.493 1913.1 697.4 Q1915.93 694.577 1918.86 694.221 Q1921.78 693.852 1923.97 696.037 Q1925.49 697.56 1925.67 699.487 Q1925.84 701.402 1924.64 703.415 Z" fill="#000000" fill-rule="nonzero" fill-opacity="1" /><path clip-path="url(#clip910)" d="M2018.88 739.397 Q2016.97 741.312 2017.89 744.172 Q2018.81 747.008 2022.59 750.789 Q2026.36 754.558 2029.21 755.491 Q2032.06 756.399 2033.97 754.484 Q2035.9 752.557 2034.98 749.721 Q2034.06 746.86 2030.29 743.092 Q2026.51 739.311 2023.66 738.402 Q2020.81 737.469 2018.88 739.397 M2016.92 737.432 Q2020 734.351 2024.06 735.174 Q2028.13 735.972 2032.77 740.612 Q2037.4 745.24 2038.21 749.316 Q2039.02 753.367 2035.93 756.448 Q2032.85 759.529 2028.79 758.731 Q2024.73 757.909 2020.1 753.281 Q2015.46 748.641 2014.65 744.589 Q2013.84 740.514 2016.92 737.432 Z" fill="#000000" fill-rule="nonzero" fill-opacity="1" /><path clip-path="url(#clip910)" d="M2043.15 742.282 L2045.74 739.691 L2048.86 742.809 L2046.27 745.4 L2043.15 742.282 Z" fill="#000000" fill-rule="nonzero" fill-opacity="1" /><path clip-path="url(#clip910)" d="M2051.89 720.013 Q2054.05 718.613 2056.25 718.822 Q2058.46 719.018 2060.23 720.786 Q2062.94 723.499 2062.56 726.85 Q2062.18 730.202 2058.74 733.639 Q2057.59 734.793 2056.13 735.787 Q2054.69 736.782 2052.94 737.629 L2050.54 735.235 Q2052.18 734.805 2053.71 733.885 Q2055.24 732.964 2056.58 731.626 Q2058.92 729.293 2059.21 727.157 Q2059.52 725.009 2057.76 723.254 Q2056.14 721.633 2054.09 721.866 Q2052.04 722.075 2050.02 724.101 L2047.88 726.237 L2045.84 724.199 L2048.08 721.965 Q2049.9 720.135 2050.15 718.441 Q2050.38 716.735 2049.01 715.36 Q2047.6 713.948 2045.84 714.206 Q2044.09 714.439 2042.22 716.305 Q2041.2 717.324 2040.26 718.711 Q2039.31 720.099 2038.38 721.965 L2036.17 719.755 Q2037.19 717.95 2038.22 716.526 Q2039.26 715.09 2040.35 713.997 Q2043.18 711.174 2046.11 710.818 Q2049.03 710.45 2051.22 712.635 Q2052.74 714.157 2052.92 716.084 Q2053.1 717.999 2051.89 720.013 Z" fill="#000000" fill-rule="nonzero" fill-opacity="1" /><path clip-path="url(#clip910)" d="M2060.9 698.431 L2064.43 714.476 L2070.69 708.215 L2060.9 698.431 M2058.09 696.921 L2061.21 693.803 L2073.16 705.748 L2075.77 703.133 L2077.83 705.195 L2075.22 707.81 L2079.54 712.131 L2077.07 714.599 L2072.75 710.278 L2064.48 718.552 L2062.08 716.158 L2058.09 696.921 Z" fill="#000000" fill-rule="nonzero" fill-opacity="1" /><path clip-path="url(#clip910)" d="M2163.52 738.611 Q2161.6 740.526 2162.52 743.386 Q2163.44 746.222 2167.23 750.003 Q2170.99 753.772 2173.84 754.705 Q2176.69 755.613 2178.61 753.698 Q2180.53 751.771 2179.61 748.935 Q2178.69 746.075 2174.92 742.306 Q2171.14 738.525 2168.29 737.617 Q2165.45 736.684 2163.52 738.611 M2161.55 736.647 Q2164.64 733.565 2168.7 734.388 Q2172.76 735.186 2177.4 739.826 Q2182.03 744.454 2182.84 748.53 Q2183.65 752.581 2180.57 755.662 Q2177.49 758.744 2173.43 757.946 Q2169.36 757.123 2164.73 752.495 Q2160.09 747.855 2159.28 743.804 Q2158.47 739.728 2161.55 736.647 Z" fill="#000000" fill-rule="nonzero" fill-opacity="1" /><path clip-path="url(#clip910)" d="M2187.79 741.496 L2190.38 738.906 L2193.5 742.024 L2190.91 744.614 L2187.79 741.496 Z" fill="#000000" fill-rule="nonzero" fill-opacity="1" /><path clip-path="url(#clip910)" d="M2196.53 719.227 Q2198.69 717.828 2200.89 718.036 Q2203.1 718.233 2204.86 720 Q2207.58 722.713 2207.2 726.065 Q2206.82 729.416 2203.38 732.853 Q2202.23 734.007 2200.76 735.002 Q2199.33 735.996 2197.57 736.843 L2195.18 734.449 Q2196.81 734.02 2198.35 733.099 Q2199.88 732.178 2201.22 730.84 Q2203.55 728.508 2203.85 726.372 Q2204.15 724.223 2202.4 722.468 Q2200.78 720.847 2198.73 721.081 Q2196.68 721.289 2194.65 723.315 L2192.51 725.451 L2190.48 723.413 L2192.71 721.179 Q2194.54 719.35 2194.79 717.656 Q2195.02 715.949 2193.64 714.574 Q2192.23 713.163 2190.48 713.42 Q2188.72 713.654 2186.86 715.52 Q2185.84 716.539 2184.89 717.926 Q2183.95 719.313 2183.01 721.179 L2180.8 718.969 Q2181.82 717.165 2182.85 715.741 Q2183.9 714.304 2184.99 713.212 Q2187.81 710.388 2190.75 710.032 Q2193.67 709.664 2195.85 711.849 Q2197.38 713.371 2197.56 715.299 Q2197.73 717.214 2196.53 719.227 Z" fill="#000000" fill-rule="nonzero" fill-opacity="1" /><path clip-path="url(#clip910)" d="M2196.59 702.274 L2206.33 692.539 L2208.41 694.626 L2200.95 702.09 L2205.44 706.583 Q2205.8 705.858 2206.25 705.232 Q2206.69 704.594 2207.23 704.054 Q2210.3 700.985 2213.78 700.874 Q2217.25 700.764 2220.12 703.636 Q2223.08 706.595 2222.89 710.081 Q2222.68 713.555 2219.33 716.907 Q2218.17 718.061 2216.77 719.067 Q2215.38 720.062 2213.72 720.946 L2211.22 718.454 Q2212.93 717.95 2214.4 717.066 Q2215.88 716.183 2217.19 714.869 Q2219.31 712.745 2219.44 710.388 Q2219.56 708.031 2217.64 706.116 Q2215.73 704.201 2213.37 704.324 Q2211.01 704.447 2208.89 706.57 Q2207.9 707.565 2207.12 708.78 Q2206.36 709.983 2205.8 711.481 L2196.59 702.274 Z" fill="#000000" fill-rule="nonzero" fill-opacity="1" /><polyline clip-path="url(#clip910)" style="stroke:#000000; stroke-linecap:round; stroke-linejoin:round; stroke-width:4; stroke-opacity:1; fill:none" points="1361.64,667.406 1361.64,97.5521 "/>
<polyline clip-path="url(#clip910)" style="stroke:#000000; stroke-linecap:round; stroke-linejoin:round; stroke-width:4; stroke-opacity:1; fill:none" points="1361.64,651.278 1380.53,651.278 "/>
<polyline clip-path="url(#clip910)" style="stroke:#000000; stroke-linecap:round; stroke-linejoin:round; stroke-width:4; stroke-opacity:1; fill:none" points="1361.64,508.087 1380.53,508.087 "/>
<polyline clip-path="url(#clip910)" style="stroke:#000000; stroke-linecap:round; stroke-linejoin:round; stroke-width:4; stroke-opacity:1; fill:none" points="1361.64,364.895 1380.53,364.895 "/>
<polyline clip-path="url(#clip910)" style="stroke:#000000; stroke-linecap:round; stroke-linejoin:round; stroke-width:4; stroke-opacity:1; fill:none" points="1361.64,221.703 1380.53,221.703 "/>
<path clip-path="url(#clip910)" d="M1260.13 640.627 Q1257.42 640.627 1256.05 643.301 Q1254.7 645.957 1254.7 651.304 Q1254.7 656.634 1256.05 659.308 Q1257.42 661.964 1260.13 661.964 Q1262.86 661.964 1264.21 659.308 Q1265.58 656.634 1265.58 651.304 Q1265.58 645.957 1264.21 643.301 Q1262.86 640.627 1260.13 640.627 M1260.13 637.85 Q1264.49 637.85 1266.78 641.305 Q1269.09 644.742 1269.09 651.304 Q1269.09 657.85 1266.78 661.304 Q1264.49 664.742 1260.13 664.742 Q1255.78 664.742 1253.47 661.304 Q1251.17 657.85 1251.17 651.304 Q1251.17 644.742 1253.47 641.305 Q1255.78 637.85 1260.13 637.85 Z" fill="#000000" fill-rule="nonzero" fill-opacity="1" /><path clip-path="url(#clip910)" d="M1275.25 659.829 L1278.92 659.829 L1278.92 664.238 L1275.25 664.238 L1275.25 659.829 Z" fill="#000000" fill-rule="nonzero" fill-opacity="1" /><path clip-path="url(#clip910)" d="M1294.06 640.627 Q1291.35 640.627 1289.98 643.301 Q1288.62 645.957 1288.62 651.304 Q1288.62 656.634 1289.98 659.308 Q1291.35 661.964 1294.06 661.964 Q1296.78 661.964 1298.14 659.308 Q1299.51 656.634 1299.51 651.304 Q1299.51 645.957 1298.14 643.301 Q1296.78 640.627 1294.06 640.627 M1294.06 637.85 Q1298.41 637.85 1300.71 641.305 Q1303.01 644.742 1303.01 651.304 Q1303.01 657.85 1300.71 661.304 Q1298.41 664.742 1294.06 664.742 Q1289.7 664.742 1287.39 661.304 Q1285.1 657.85 1285.1 651.304 Q1285.1 644.742 1287.39 641.305 Q1289.7 637.85 1294.06 637.85 Z" fill="#000000" fill-rule="nonzero" fill-opacity="1" /><path clip-path="url(#clip910)" d="M1316.68 640.627 Q1313.97 640.627 1312.6 643.301 Q1311.24 645.957 1311.24 651.304 Q1311.24 656.634 1312.6 659.308 Q1313.97 661.964 1316.68 661.964 Q1319.4 661.964 1320.76 659.308 Q1322.13 656.634 1322.13 651.304 Q1322.13 645.957 1320.76 643.301 Q1319.4 640.627 1316.68 640.627 M1316.68 637.85 Q1321.04 637.85 1323.33 641.305 Q1325.64 644.742 1325.64 651.304 Q1325.64 657.85 1323.33 661.304 Q1321.04 664.742 1316.68 664.742 Q1312.32 664.742 1310.01 661.304 Q1307.72 657.85 1307.72 651.304 Q1307.72 644.742 1310.01 641.305 Q1312.32 637.85 1316.68 637.85 Z" fill="#000000" fill-rule="nonzero" fill-opacity="1" /><path clip-path="url(#clip910)" d="M1260.88 497.436 Q1258.17 497.436 1256.8 500.109 Q1255.45 502.766 1255.45 508.113 Q1255.45 513.443 1256.8 516.116 Q1258.17 518.772 1260.88 518.772 Q1263.6 518.772 1264.96 516.116 Q1266.33 513.443 1266.33 508.113 Q1266.33 502.766 1264.96 500.109 Q1263.6 497.436 1260.88 497.436 M1260.88 494.658 Q1265.24 494.658 1267.53 498.113 Q1269.84 501.55 1269.84 508.113 Q1269.84 514.658 1267.53 518.113 Q1265.24 521.55 1260.88 521.55 Q1256.52 521.55 1254.21 518.113 Q1251.92 514.658 1251.92 508.113 Q1251.92 501.55 1254.21 498.113 Q1256.52 494.658 1260.88 494.658 Z" fill="#000000" fill-rule="nonzero" fill-opacity="1" /><path clip-path="url(#clip910)" d="M1276 516.637 L1279.66 516.637 L1279.66 521.047 L1276 521.047 L1276 516.637 Z" fill="#000000" fill-rule="nonzero" fill-opacity="1" /><path clip-path="url(#clip910)" d="M1294.8 497.436 Q1292.09 497.436 1290.72 500.109 Q1289.37 502.766 1289.37 508.113 Q1289.37 513.443 1290.72 516.116 Q1292.09 518.772 1294.8 518.772 Q1297.53 518.772 1298.88 516.116 Q1300.25 513.443 1300.25 508.113 Q1300.25 502.766 1298.88 500.109 Q1297.53 497.436 1294.8 497.436 M1294.8 494.658 Q1299.16 494.658 1301.45 498.113 Q1303.76 501.55 1303.76 508.113 Q1303.76 514.658 1301.45 518.113 Q1299.16 521.55 1294.8 521.55 Q1290.45 521.55 1288.14 518.113 Q1285.84 514.658 1285.84 508.113 Q1285.84 501.55 1288.14 498.113 Q1290.45 494.658 1294.8 494.658 Z" fill="#000000" fill-rule="nonzero" fill-opacity="1" /><path clip-path="url(#clip910)" d="M1309.96 495.127 L1323.73 495.127 L1323.73 498.078 L1313.17 498.078 L1313.17 504.432 Q1313.93 504.172 1314.7 504.05 Q1315.46 503.911 1316.23 503.911 Q1320.57 503.911 1323.1 506.29 Q1325.64 508.668 1325.64 512.731 Q1325.64 516.915 1323.03 519.241 Q1320.43 521.55 1315.69 521.55 Q1314.06 521.55 1312.35 521.272 Q1310.67 520.995 1308.87 520.439 L1308.87 516.915 Q1310.43 517.766 1312.09 518.182 Q1313.76 518.599 1315.62 518.599 Q1318.62 518.599 1320.38 517.019 Q1322.13 515.439 1322.13 512.731 Q1322.13 510.022 1320.38 508.443 Q1318.62 506.863 1315.62 506.863 Q1314.21 506.863 1312.81 507.175 Q1311.42 507.488 1309.96 508.147 L1309.96 495.127 Z" fill="#000000" fill-rule="nonzero" fill-opacity="1" /><path clip-path="url(#clip910)" d="M1260.13 354.244 Q1257.42 354.244 1256.05 356.918 Q1254.7 359.574 1254.7 364.921 Q1254.7 370.251 1256.05 372.925 Q1257.42 375.581 1260.13 375.581 Q1262.86 375.581 1264.21 372.925 Q1265.58 370.251 1265.58 364.921 Q1265.58 359.574 1264.21 356.918 Q1262.86 354.244 1260.13 354.244 M1260.13 351.466 Q1264.49 351.466 1266.78 354.921 Q1269.09 358.359 1269.09 364.921 Q1269.09 371.466 1266.78 374.921 Q1264.49 378.359 1260.13 378.359 Q1255.78 378.359 1253.47 374.921 Q1251.17 371.466 1251.17 364.921 Q1251.17 358.359 1253.47 354.921 Q1255.78 351.466 1260.13 351.466 Z" fill="#000000" fill-rule="nonzero" fill-opacity="1" /><path clip-path="url(#clip910)" d="M1275.25 373.445 L1278.92 373.445 L1278.92 377.855 L1275.25 377.855 L1275.25 373.445 Z" fill="#000000" fill-rule="nonzero" fill-opacity="1" /><path clip-path="url(#clip910)" d="M1287.16 374.904 L1292.89 374.904 L1292.89 355.129 L1286.66 356.379 L1286.66 353.185 L1292.86 351.935 L1296.37 351.935 L1296.37 374.904 L1302.09 374.904 L1302.09 377.855 L1287.16 377.855 L1287.16 374.904 Z" fill="#000000" fill-rule="nonzero" fill-opacity="1" /><path clip-path="url(#clip910)" d="M1316.68 354.244 Q1313.97 354.244 1312.6 356.918 Q1311.24 359.574 1311.24 364.921 Q1311.24 370.251 1312.6 372.925 Q1313.97 375.581 1316.68 375.581 Q1319.4 375.581 1320.76 372.925 Q1322.13 370.251 1322.13 364.921 Q1322.13 359.574 1320.76 356.918 Q1319.4 354.244 1316.68 354.244 M1316.68 351.466 Q1321.04 351.466 1323.33 354.921 Q1325.64 358.359 1325.64 364.921 Q1325.64 371.466 1323.33 374.921 Q1321.04 378.359 1316.68 378.359 Q1312.32 378.359 1310.01 374.921 Q1307.72 371.466 1307.72 364.921 Q1307.72 358.359 1310.01 354.921 Q1312.32 351.466 1316.68 351.466 Z" fill="#000000" fill-rule="nonzero" fill-opacity="1" /><path clip-path="url(#clip910)" d="M1260.88 211.052 Q1258.17 211.052 1256.8 213.726 Q1255.45 216.382 1255.45 221.729 Q1255.45 227.059 1256.8 229.733 Q1258.17 232.389 1260.88 232.389 Q1263.6 232.389 1264.96 229.733 Q1266.33 227.059 1266.33 221.729 Q1266.33 216.382 1264.96 213.726 Q1263.6 211.052 1260.88 211.052 M1260.88 208.275 Q1265.24 208.275 1267.53 211.729 Q1269.84 215.167 1269.84 221.729 Q1269.84 228.274 1267.53 231.729 Q1265.24 235.167 1260.88 235.167 Q1256.52 235.167 1254.21 231.729 Q1251.92 228.274 1251.92 221.729 Q1251.92 215.167 1254.21 211.729 Q1256.52 208.275 1260.88 208.275 Z" fill="#000000" fill-rule="nonzero" fill-opacity="1" /><path clip-path="url(#clip910)" d="M1276 230.254 L1279.66 230.254 L1279.66 234.663 L1276 234.663 L1276 230.254 Z" fill="#000000" fill-rule="nonzero" fill-opacity="1" /><path clip-path="url(#clip910)" d="M1287.91 231.712 L1293.64 231.712 L1293.64 211.938 L1287.41 213.188 L1287.41 209.993 L1293.6 208.743 L1297.11 208.743 L1297.11 231.712 L1302.84 231.712 L1302.84 234.663 L1287.91 234.663 L1287.91 231.712 Z" fill="#000000" fill-rule="nonzero" fill-opacity="1" /><path clip-path="url(#clip910)" d="M1309.96 208.743 L1323.73 208.743 L1323.73 211.695 L1313.17 211.695 L1313.17 218.049 Q1313.93 217.788 1314.7 217.667 Q1315.46 217.528 1316.23 217.528 Q1320.57 217.528 1323.1 219.906 Q1325.64 222.285 1325.64 226.347 Q1325.64 230.531 1323.03 232.858 Q1320.43 235.167 1315.69 235.167 Q1314.06 235.167 1312.35 234.889 Q1310.67 234.611 1308.87 234.056 L1308.87 230.531 Q1310.43 231.382 1312.09 231.799 Q1313.76 232.215 1315.62 232.215 Q1318.62 232.215 1320.38 230.636 Q1322.13 229.056 1322.13 226.347 Q1322.13 223.639 1320.38 222.059 Q1318.62 220.479 1315.62 220.479 Q1314.21 220.479 1312.81 220.792 Q1311.42 221.104 1309.96 221.764 L1309.96 208.743 Z" fill="#000000" fill-rule="nonzero" fill-opacity="1" /><path clip-path="url(#clip910)" d="M1373.53 18.9258 Q1370.02 18.9258 1368.12 21.4721 Q1366.13 24.1341 1366.13 28.5323 Q1366.13 33.185 1368.09 35.8702 Q1370.08 38.5322 1373.53 38.5322 Q1376.94 38.5322 1378.93 35.847 Q1380.92 33.1619 1380.92 28.5323 Q1380.92 24.2962 1378.93 21.4721 Q1377.1 18.9258 1373.53 18.9258 M1373.53 15.5462 L1387.68 15.5462 L1387.68 19.8054 L1382.91 19.8054 Q1385.43 23.4165 1385.43 28.5323 Q1385.43 34.898 1382.26 38.5091 Q1379.09 42.1433 1373.53 42.1433 Q1367.96 42.1433 1364.81 38.5091 Q1361.64 34.898 1361.64 28.5323 Q1361.64 22.1203 1364.81 18.5323 Q1367.42 15.5462 1373.53 15.5462 Z" fill="#000000" fill-rule="nonzero" fill-opacity="1" /><path clip-path="url(#clip910)" d="M1411.84 19.6666 Q1410.99 19.3656 1410.13 19.1342 Q1407.84 18.5323 1405.39 18.5323 Q1401.15 18.5323 1398.79 20.824 Q1396.59 22.9536 1396.17 26.8656 L1411.84 26.8656 L1411.84 30.1989 L1396.17 30.1989 Q1396.59 34.1109 1398.79 36.2405 Q1401.15 38.5322 1405.39 38.5322 Q1408.35 38.5322 1410.13 37.9304 L1411.84 37.3517 L1411.84 41.2174 L1410.02 41.634 Q1407.61 42.1433 1405.13 42.1433 Q1398.93 42.1433 1395.32 38.5322 Q1391.68 34.9211 1391.68 28.5323 Q1391.68 22.1434 1395.32 18.5323 Q1398.93 14.9212 1405.13 14.9212 Q1407.47 14.9212 1410.02 15.4305 Q1410.94 15.6157 1411.84 15.8934 L1411.84 19.6666 Z" fill="#000000" fill-rule="nonzero" fill-opacity="1" /><polyline clip-path="url(#clip913)" style="stroke:#009af9; stroke-linecap:round; stroke-linejoin:round; stroke-width:4; stroke-opacity:1; fill:none" points="1389.69,164.828 1448.13,222.837 1506.56,281.646 1565,341.253 1623.44,401.66 1681.88,462.866 1740.32,524.871 1798.76,587.675 1857.2,651.278 1915.63,586.876 1974.07,521.674 2032.51,455.673 2090.95,388.873 2149.39,321.273 2207.83,252.875 2266.27,183.677 2324.71,113.68 "/>
<circle clip-path="url(#clip913)" cx="1857.2" cy="651.278" r="10.8" fill="#ff0000" fill-rule="evenodd" fill-opacity="1" stroke="#000000" stroke-opacity="1" stroke-width="3.2"/>
<path clip-path="url(#clip910)" d="M161.818 1467.41 L1152.94 1467.41 L1152.94 897.552 L161.818 897.552  Z" fill="#ffffff" fill-rule="evenodd" fill-opacity="1"/>
<defs>
  <clipPath id="clip914">
    <rect x="161" y="897" width="992" height="571"/>
  </clipPath>
</defs>
<polyline clip-path="url(#clip914)" style="stroke:#000000; stroke-linecap:round; stroke-linejoin:round; stroke-width:2; stroke-opacity:0.1; fill:none" points="297.529,1467.41 297.529,897.552 "/>
<polyline clip-path="url(#clip914)" style="stroke:#000000; stroke-linecap:round; stroke-linejoin:round; stroke-width:2; stroke-opacity:0.1; fill:none" points="470.139,1467.41 470.139,897.552 "/>
<polyline clip-path="url(#clip914)" style="stroke:#000000; stroke-linecap:round; stroke-linejoin:round; stroke-width:2; stroke-opacity:0.1; fill:none" points="642.749,1467.41 642.749,897.552 "/>
<polyline clip-path="url(#clip914)" style="stroke:#000000; stroke-linecap:round; stroke-linejoin:round; stroke-width:2; stroke-opacity:0.1; fill:none" points="815.359,1467.41 815.359,897.552 "/>
<polyline clip-path="url(#clip914)" style="stroke:#000000; stroke-linecap:round; stroke-linejoin:round; stroke-width:2; stroke-opacity:0.1; fill:none" points="987.968,1467.41 987.968,897.552 "/>
<polyline clip-path="url(#clip914)" style="stroke:#000000; stroke-linecap:round; stroke-linejoin:round; stroke-width:2; stroke-opacity:0.1; fill:none" points="161.818,1451.28 1152.94,1451.28 "/>
<polyline clip-path="url(#clip914)" style="stroke:#000000; stroke-linecap:round; stroke-linejoin:round; stroke-width:2; stroke-opacity:0.1; fill:none" points="161.818,1330.73 1152.94,1330.73 "/>
<polyline clip-path="url(#clip914)" style="stroke:#000000; stroke-linecap:round; stroke-linejoin:round; stroke-width:2; stroke-opacity:0.1; fill:none" points="161.818,1210.19 1152.94,1210.19 "/>
<polyline clip-path="url(#clip914)" style="stroke:#000000; stroke-linecap:round; stroke-linejoin:round; stroke-width:2; stroke-opacity:0.1; fill:none" points="161.818,1089.65 1152.94,1089.65 "/>
<polyline clip-path="url(#clip914)" style="stroke:#000000; stroke-linecap:round; stroke-linejoin:round; stroke-width:2; stroke-opacity:0.1; fill:none" points="161.818,969.103 1152.94,969.103 "/>
<polyline clip-path="url(#clip910)" style="stroke:#000000; stroke-linecap:round; stroke-linejoin:round; stroke-width:4; stroke-opacity:1; fill:none" points="161.818,1467.41 1152.94,1467.41 "/>
<polyline clip-path="url(#clip910)" style="stroke:#000000; stroke-linecap:round; stroke-linejoin:round; stroke-width:4; stroke-opacity:1; fill:none" points="297.529,1467.41 297.529,1448.51 "/>
<polyline clip-path="url(#clip910)" style="stroke:#000000; stroke-linecap:round; stroke-linejoin:round; stroke-width:4; stroke-opacity:1; fill:none" points="470.139,1467.41 470.139,1448.51 "/>
<polyline clip-path="url(#clip910)" style="stroke:#000000; stroke-linecap:round; stroke-linejoin:round; stroke-width:4; stroke-opacity:1; fill:none" points="642.749,1467.41 642.749,1448.51 "/>
<polyline clip-path="url(#clip910)" style="stroke:#000000; stroke-linecap:round; stroke-linejoin:round; stroke-width:4; stroke-opacity:1; fill:none" points="815.359,1467.41 815.359,1448.51 "/>
<polyline clip-path="url(#clip910)" style="stroke:#000000; stroke-linecap:round; stroke-linejoin:round; stroke-width:4; stroke-opacity:1; fill:none" points="987.968,1467.41 987.968,1448.51 "/>
<path clip-path="url(#clip910)" d="M243.68 1539.14 Q241.765 1541.05 242.686 1543.91 Q243.606 1546.75 247.387 1550.53 Q251.156 1554.3 254.004 1555.23 Q256.852 1556.14 258.767 1554.23 Q260.695 1552.3 259.774 1549.46 Q258.853 1546.6 255.084 1542.83 Q251.303 1539.05 248.455 1538.14 Q245.607 1537.21 243.68 1539.14 M241.716 1537.17 Q244.797 1534.09 248.86 1534.92 Q252.924 1535.71 257.564 1540.35 Q262.192 1544.98 263.003 1549.06 Q263.813 1553.11 260.731 1556.19 Q257.65 1559.27 253.587 1558.47 Q249.523 1557.65 244.895 1553.02 Q240.255 1548.38 239.445 1544.33 Q238.634 1540.26 241.716 1537.17 Z" fill="#000000" fill-rule="nonzero" fill-opacity="1" /><path clip-path="url(#clip910)" d="M267.95 1542.02 L270.54 1539.43 L273.658 1542.55 L271.068 1545.14 L267.95 1542.02 Z" fill="#000000" fill-rule="nonzero" fill-opacity="1" /><path clip-path="url(#clip910)" d="M260.756 1518.8 L270.491 1509.06 L272.578 1511.15 L265.114 1518.61 L269.607 1523.11 Q269.963 1522.38 270.417 1521.76 Q270.859 1521.12 271.399 1520.58 Q274.468 1517.51 277.943 1517.4 Q281.417 1517.29 284.289 1520.16 Q287.248 1523.12 287.051 1526.6 Q286.843 1530.08 283.491 1533.43 Q282.337 1534.58 280.938 1535.59 Q279.551 1536.59 277.881 1537.47 L275.389 1534.98 Q277.095 1534.47 278.569 1533.59 Q280.042 1532.71 281.355 1531.39 Q283.479 1529.27 283.602 1526.91 Q283.725 1524.55 281.81 1522.64 Q279.894 1520.72 277.537 1520.85 Q275.18 1520.97 273.057 1523.09 Q272.062 1524.09 271.289 1525.3 Q270.528 1526.51 269.963 1528 L260.756 1518.8 Z" fill="#000000" fill-rule="nonzero" fill-opacity="1" /><path clip-path="url(#clip910)" d="M283.663 1499.16 Q281.748 1501.07 282.669 1503.93 Q283.59 1506.77 287.371 1510.55 Q291.139 1514.32 293.987 1515.25 Q296.835 1516.16 298.751 1514.24 Q300.678 1512.32 299.757 1509.48 Q298.836 1506.62 295.068 1502.85 Q291.287 1499.07 288.439 1498.16 Q285.591 1497.23 283.663 1499.16 M281.699 1497.19 Q284.78 1494.11 288.844 1494.93 Q292.907 1495.73 297.547 1500.37 Q302.176 1505 302.986 1509.07 Q303.796 1513.13 300.715 1516.21 Q297.633 1519.29 293.57 1518.49 Q289.507 1517.67 284.879 1513.04 Q280.238 1508.4 279.428 1504.35 Q278.618 1500.27 281.699 1497.19 Z" fill="#000000" fill-rule="nonzero" fill-opacity="1" /><path clip-path="url(#clip910)" d="M417.137 1538.29 Q415.222 1540.21 416.142 1543.07 Q417.063 1545.9 420.844 1549.68 Q424.613 1553.45 427.461 1554.39 Q430.309 1555.29 432.224 1553.38 Q434.151 1551.45 433.231 1548.62 Q432.31 1545.76 428.541 1541.99 Q424.76 1538.21 421.912 1537.3 Q419.064 1536.36 417.137 1538.29 M415.173 1536.33 Q418.254 1533.25 422.317 1534.07 Q426.381 1534.87 431.021 1539.51 Q435.649 1544.14 436.459 1548.21 Q437.27 1552.26 434.188 1555.34 Q431.107 1558.42 427.044 1557.63 Q422.98 1556.8 418.352 1552.18 Q413.712 1547.54 412.902 1543.48 Q412.091 1539.41 415.173 1536.33 Z" fill="#000000" fill-rule="nonzero" fill-opacity="1" /><path clip-path="url(#clip910)" d="M441.407 1541.18 L443.997 1538.59 L447.115 1541.7 L444.525 1544.29 L441.407 1541.18 Z" fill="#000000" fill-rule="nonzero" fill-opacity="1" /><path clip-path="url(#clip910)" d="M434.213 1517.95 L443.948 1508.22 L446.035 1510.3 L438.571 1517.77 L443.064 1522.26 Q443.42 1521.53 443.874 1520.91 Q444.316 1520.27 444.856 1519.73 Q447.925 1516.66 451.399 1516.55 Q454.874 1516.44 457.746 1519.31 Q460.705 1522.27 460.508 1525.76 Q460.3 1529.23 456.948 1532.58 Q455.794 1533.74 454.395 1534.74 Q453.008 1535.74 451.338 1536.62 L448.846 1534.13 Q450.552 1533.63 452.025 1532.74 Q453.499 1531.86 454.812 1530.55 Q456.936 1528.42 457.059 1526.06 Q457.181 1523.71 455.266 1521.79 Q453.351 1519.88 450.994 1520 Q448.637 1520.12 446.514 1522.25 Q445.519 1523.24 444.746 1524.46 Q443.985 1525.66 443.42 1527.16 L434.213 1517.95 Z" fill="#000000" fill-rule="nonzero" fill-opacity="1" /><path clip-path="url(#clip910)" d="M468.561 1516.08 L477.216 1507.43 L479.303 1509.52 L467.665 1521.15 L465.578 1519.07 Q465.529 1516.19 465.505 1511.31 Q465.48 1506.4 465.394 1505.06 Q465.247 1502.53 464.793 1501.14 Q464.338 1499.73 463.442 1498.84 Q461.981 1497.38 460.03 1497.49 Q458.09 1497.58 456.445 1499.23 Q455.279 1500.4 454.383 1502.1 Q453.499 1503.8 452.848 1506.09 L450.344 1503.59 Q451.24 1501.49 452.234 1499.88 Q453.229 1498.27 454.309 1497.19 Q457.157 1494.34 460.275 1494.07 Q463.393 1493.8 465.775 1496.18 Q466.904 1497.31 467.493 1498.76 Q468.083 1500.19 468.34 1502.68 Q468.39 1503.34 468.451 1506.69 Q468.5 1510.03 468.561 1516.08 Z" fill="#000000" fill-rule="nonzero" fill-opacity="1" /><path clip-path="url(#clip910)" d="M588.642 1539.4 Q586.727 1541.31 587.647 1544.17 Q588.568 1547.01 592.349 1550.79 Q596.118 1554.56 598.966 1555.49 Q601.814 1556.4 603.729 1554.48 Q605.656 1552.56 604.736 1549.72 Q603.815 1546.86 600.046 1543.09 Q596.265 1539.31 593.417 1538.4 Q590.569 1537.47 588.642 1539.4 M586.678 1537.43 Q589.759 1534.35 593.822 1535.17 Q597.886 1535.97 602.526 1540.61 Q607.154 1545.24 607.964 1549.32 Q608.775 1553.37 605.693 1556.45 Q602.612 1559.53 598.549 1558.73 Q594.485 1557.91 589.857 1553.28 Q585.217 1548.64 584.407 1544.59 Q583.596 1540.51 586.678 1537.43 Z" fill="#000000" fill-rule="nonzero" fill-opacity="1" /><path clip-path="url(#clip910)" d="M612.912 1542.28 L615.502 1539.69 L618.62 1542.81 L616.03 1545.4 L612.912 1542.28 Z" fill="#000000" fill-rule="nonzero" fill-opacity="1" /><path clip-path="url(#clip910)" d="M605.718 1519.06 L615.453 1509.32 L617.54 1511.41 L610.076 1518.87 L614.569 1523.36 Q614.925 1522.64 615.379 1522.01 Q615.821 1521.38 616.361 1520.84 Q619.43 1517.77 622.904 1517.66 Q626.379 1517.55 629.251 1520.42 Q632.21 1523.38 632.013 1526.86 Q631.805 1530.34 628.453 1533.69 Q627.299 1534.84 625.9 1535.85 Q624.513 1536.84 622.843 1537.73 L620.351 1535.24 Q622.057 1534.73 623.53 1533.85 Q625.004 1532.96 626.317 1531.65 Q628.441 1529.53 628.564 1527.17 Q628.686 1524.81 626.771 1522.9 Q624.856 1520.98 622.499 1521.11 Q620.142 1521.23 618.019 1523.35 Q617.024 1524.35 616.251 1525.56 Q615.49 1526.76 614.925 1528.26 L605.718 1519.06 Z" fill="#000000" fill-rule="nonzero" fill-opacity="1" /><path clip-path="url(#clip910)" d="M630.663 1498.43 L634.186 1514.48 L640.447 1508.22 L630.663 1498.43 M627.852 1496.92 L630.97 1493.8 L642.914 1505.75 L645.529 1503.13 L647.592 1505.2 L644.977 1507.81 L649.298 1512.13 L646.83 1514.6 L642.509 1510.28 L634.235 1518.55 L631.841 1516.16 L627.852 1496.92 Z" fill="#000000" fill-rule="nonzero" fill-opacity="1" /><path clip-path="url(#clip910)" d="M761.423 1539.22 Q759.508 1541.14 760.429 1544 Q761.35 1546.84 765.131 1550.62 Q768.9 1554.39 771.748 1555.32 Q774.596 1556.23 776.511 1554.31 Q778.438 1552.38 777.517 1549.55 Q776.597 1546.69 772.828 1542.92 Q769.047 1539.14 766.199 1538.23 Q763.351 1537.3 761.423 1539.22 M759.459 1537.26 Q762.541 1534.18 766.604 1535 Q770.667 1535.8 775.308 1540.44 Q779.936 1545.07 780.746 1549.14 Q781.556 1553.19 778.475 1556.28 Q775.394 1559.36 771.33 1558.56 Q767.267 1557.74 762.639 1553.11 Q757.998 1548.47 757.188 1544.42 Q756.378 1540.34 759.459 1537.26 Z" fill="#000000" fill-rule="nonzero" fill-opacity="1" /><path clip-path="url(#clip910)" d="M785.693 1542.11 L788.284 1539.52 L791.402 1542.64 L788.811 1545.23 L785.693 1542.11 Z" fill="#000000" fill-rule="nonzero" fill-opacity="1" /><path clip-path="url(#clip910)" d="M778.5 1518.88 L788.234 1509.15 L790.321 1511.24 L782.858 1518.7 L787.351 1523.19 Q787.707 1522.47 788.161 1521.84 Q788.603 1521.2 789.143 1520.66 Q792.212 1517.59 795.686 1517.48 Q799.16 1517.37 802.033 1520.25 Q804.991 1523.2 804.795 1526.69 Q804.586 1530.17 801.235 1533.52 Q800.081 1534.67 798.681 1535.68 Q797.294 1536.67 795.625 1537.56 L793.133 1535.06 Q794.839 1534.56 796.312 1533.68 Q797.785 1532.79 799.099 1531.48 Q801.223 1529.35 801.345 1527 Q801.468 1524.64 799.553 1522.73 Q797.638 1520.81 795.281 1520.93 Q792.924 1521.06 790.8 1523.18 Q789.806 1524.17 789.032 1525.39 Q788.271 1526.59 787.707 1528.09 L778.5 1518.88 Z" fill="#000000" fill-rule="nonzero" fill-opacity="1" /><path clip-path="url(#clip910)" d="M808.257 1505.48 Q806.587 1507.15 806.747 1509.27 Q806.919 1511.38 808.907 1513.37 Q810.884 1515.35 813.008 1515.53 Q815.131 1515.69 816.801 1514.02 Q818.471 1512.35 818.299 1510.24 Q818.127 1508.1 816.15 1506.13 Q814.162 1504.14 812.038 1503.98 Q809.926 1503.81 808.257 1505.48 M805.409 1492.78 L807.668 1495.04 Q806.293 1495.53 805.102 1496.26 Q803.923 1496.97 802.99 1497.9 Q800.535 1500.36 800.891 1503.32 Q801.259 1506.26 804.427 1509.8 Q804.083 1508.01 804.611 1506.35 Q805.126 1504.68 806.44 1503.37 Q809.202 1500.6 812.48 1500.69 Q815.757 1500.75 818.642 1503.64 Q821.466 1506.46 821.503 1509.84 Q821.54 1513.21 818.765 1515.99 Q815.586 1519.17 811.473 1518.42 Q807.348 1517.66 802.72 1513.03 Q798.375 1508.68 797.859 1504.04 Q797.331 1499.39 800.805 1495.91 Q801.738 1494.98 802.868 1494.22 Q804.009 1493.45 805.409 1492.78 Z" fill="#000000" fill-rule="nonzero" fill-opacity="1" /><path clip-path="url(#clip910)" d="M934.168 1539.09 Q932.253 1541 933.174 1543.87 Q934.095 1546.7 937.876 1550.48 Q941.645 1554.25 944.493 1555.18 Q947.341 1556.09 949.256 1554.18 Q951.183 1552.25 950.262 1549.41 Q949.342 1546.55 945.573 1542.78 Q941.792 1539 938.944 1538.1 Q936.096 1537.16 934.168 1539.09 M932.204 1537.13 Q935.285 1534.04 939.349 1534.87 Q943.412 1535.66 948.053 1540.31 Q952.681 1544.93 953.491 1549.01 Q954.301 1553.06 951.22 1556.14 Q948.139 1559.22 944.075 1558.42 Q940.012 1557.6 935.384 1552.97 Q930.743 1548.33 929.933 1544.28 Q929.123 1540.21 932.204 1537.13 Z" fill="#000000" fill-rule="nonzero" fill-opacity="1" /><path clip-path="url(#clip910)" d="M958.438 1541.97 L961.028 1539.38 L964.147 1542.5 L961.556 1545.09 L958.438 1541.97 Z" fill="#000000" fill-rule="nonzero" fill-opacity="1" /><path clip-path="url(#clip910)" d="M951.244 1518.75 L960.979 1509.01 L963.066 1511.1 L955.602 1518.56 L960.095 1523.06 Q960.451 1522.33 960.906 1521.71 Q961.348 1521.07 961.888 1520.53 Q964.957 1517.46 968.431 1517.35 Q971.905 1517.24 974.778 1520.11 Q977.736 1523.07 977.54 1526.56 Q977.331 1530.03 973.98 1533.38 Q972.826 1534.54 971.426 1535.54 Q970.039 1536.54 968.37 1537.42 L965.878 1534.93 Q967.584 1534.42 969.057 1533.54 Q970.53 1532.66 971.844 1531.34 Q973.967 1529.22 974.09 1526.86 Q974.213 1524.51 972.298 1522.59 Q970.383 1520.68 968.026 1520.8 Q965.669 1520.92 963.545 1523.04 Q962.551 1524.04 961.777 1525.25 Q961.016 1526.46 960.451 1527.96 L951.244 1518.75 Z" fill="#000000" fill-rule="nonzero" fill-opacity="1" /><path clip-path="url(#clip910)" d="M982.143 1507.1 Q980.376 1508.87 980.302 1510.83 Q980.241 1512.78 981.898 1514.44 Q983.555 1516.1 985.507 1516.04 Q987.471 1515.96 989.239 1514.19 Q991.007 1512.43 991.08 1510.46 Q991.142 1508.49 989.497 1506.84 Q987.839 1505.18 985.875 1505.26 Q983.923 1505.32 982.143 1507.1 M978.608 1508.52 Q976.619 1509.73 974.63 1509.53 Q972.654 1509.32 971.083 1507.75 Q968.885 1505.55 969.168 1502.72 Q969.462 1499.87 972.187 1497.14 Q974.925 1494.4 977.761 1494.12 Q980.597 1493.84 982.794 1496.04 Q984.365 1497.61 984.562 1499.6 Q984.77 1501.57 983.58 1503.55 Q985.789 1502.18 987.999 1502.4 Q990.221 1502.61 991.976 1504.36 Q994.64 1507.02 994.432 1510.08 Q994.235 1513.13 991.203 1516.16 Q988.171 1519.19 985.114 1519.4 Q982.07 1519.6 979.406 1516.93 Q977.65 1515.18 977.442 1512.95 Q977.233 1510.73 978.608 1508.52 M973.783 1505.51 Q975.207 1506.94 976.889 1506.85 Q978.583 1506.75 980.191 1505.15 Q981.787 1503.55 981.886 1501.86 Q981.996 1500.15 980.572 1498.73 Q979.148 1497.3 977.442 1497.41 Q975.747 1497.51 974.152 1499.11 Q972.543 1500.71 972.445 1502.41 Q972.359 1504.09 973.783 1505.51 Z" fill="#000000" fill-rule="nonzero" fill-opacity="1" /><polyline clip-path="url(#clip910)" style="stroke:#000000; stroke-linecap:round; stroke-linejoin:round; stroke-width:4; stroke-opacity:1; fill:none" points="161.818,1467.41 161.818,897.552 "/>
<polyline clip-path="url(#clip910)" style="stroke:#000000; stroke-linecap:round; stroke-linejoin:round; stroke-width:4; stroke-opacity:1; fill:none" points="161.818,1451.28 180.716,1451.28 "/>
<polyline clip-path="url(#clip910)" style="stroke:#000000; stroke-linecap:round; stroke-linejoin:round; stroke-width:4; stroke-opacity:1; fill:none" points="161.818,1330.73 180.716,1330.73 "/>
<polyline clip-path="url(#clip910)" style="stroke:#000000; stroke-linecap:round; stroke-linejoin:round; stroke-width:4; stroke-opacity:1; fill:none" points="161.818,1210.19 180.716,1210.19 "/>
<polyline clip-path="url(#clip910)" style="stroke:#000000; stroke-linecap:round; stroke-linejoin:round; stroke-width:4; stroke-opacity:1; fill:none" points="161.818,1089.65 180.716,1089.65 "/>
<polyline clip-path="url(#clip910)" style="stroke:#000000; stroke-linecap:round; stroke-linejoin:round; stroke-width:4; stroke-opacity:1; fill:none" points="161.818,969.103 180.716,969.103 "/>
<path clip-path="url(#clip910)" d="M60.315 1440.63 Q57.6067 1440.63 56.2352 1443.3 Q54.881 1445.96 54.881 1451.3 Q54.881 1456.63 56.2352 1459.31 Q57.6067 1461.96 60.315 1461.96 Q63.0407 1461.96 64.3948 1459.31 Q65.7664 1456.63 65.7664 1451.3 Q65.7664 1445.96 64.3948 1443.3 Q63.0407 1440.63 60.315 1440.63 M60.315 1437.85 Q64.6726 1437.85 66.9643 1441.3 Q69.2733 1444.74 69.2733 1451.3 Q69.2733 1457.85 66.9643 1461.3 Q64.6726 1464.74 60.315 1464.74 Q55.9574 1464.74 53.6484 1461.3 Q51.3567 1457.85 51.3567 1451.3 Q51.3567 1444.74 53.6484 1441.3 Q55.9574 1437.85 60.315 1437.85 Z" fill="#000000" fill-rule="nonzero" fill-opacity="1" /><path clip-path="url(#clip910)" d="M75.4364 1459.83 L79.0996 1459.83 L79.0996 1464.24 L75.4364 1464.24 L75.4364 1459.83 Z" fill="#000000" fill-rule="nonzero" fill-opacity="1" /><path clip-path="url(#clip910)" d="M94.2384 1440.63 Q91.5301 1440.63 90.1586 1443.3 Q88.8044 1445.96 88.8044 1451.3 Q88.8044 1456.63 90.1586 1459.31 Q91.5301 1461.96 94.2384 1461.96 Q96.9641 1461.96 98.3183 1459.31 Q99.6898 1456.63 99.6898 1451.3 Q99.6898 1445.96 98.3183 1443.3 Q96.9641 1440.63 94.2384 1440.63 M94.2384 1437.85 Q98.596 1437.85 100.888 1441.3 Q103.197 1444.74 103.197 1451.3 Q103.197 1457.85 100.888 1461.3 Q98.596 1464.74 94.2384 1464.74 Q89.8808 1464.74 87.5718 1461.3 Q85.2801 1457.85 85.2801 1451.3 Q85.2801 1444.74 87.5718 1441.3 Q89.8808 1437.85 94.2384 1437.85 Z" fill="#000000" fill-rule="nonzero" fill-opacity="1" /><path clip-path="url(#clip910)" d="M116.86 1440.63 Q114.152 1440.63 112.78 1443.3 Q111.426 1445.96 111.426 1451.3 Q111.426 1456.63 112.78 1459.31 Q114.152 1461.96 116.86 1461.96 Q119.586 1461.96 120.94 1459.31 Q122.311 1456.63 122.311 1451.3 Q122.311 1445.96 120.94 1443.3 Q119.586 1440.63 116.86 1440.63 M116.86 1437.85 Q121.217 1437.85 123.509 1441.3 Q125.818 1444.74 125.818 1451.3 Q125.818 1457.85 123.509 1461.3 Q121.217 1464.74 116.86 1464.74 Q112.502 1464.74 110.193 1461.3 Q107.902 1457.85 107.902 1451.3 Q107.902 1444.74 110.193 1441.3 Q112.502 1437.85 116.86 1437.85 Z" fill="#000000" fill-rule="nonzero" fill-opacity="1" /><path clip-path="url(#clip910)" d="M61.2351 1320.08 Q58.5268 1320.08 57.1553 1322.76 Q55.8011 1325.41 55.8011 1330.76 Q55.8011 1336.09 57.1553 1338.76 Q58.5268 1341.42 61.2351 1341.42 Q63.9608 1341.42 65.315 1338.76 Q66.6865 1336.09 66.6865 1330.76 Q66.6865 1325.41 65.315 1322.76 Q63.9608 1320.08 61.2351 1320.08 M61.2351 1317.31 Q65.5927 1317.31 67.8844 1320.76 Q70.1934 1324.2 70.1934 1330.76 Q70.1934 1337.31 67.8844 1340.76 Q65.5927 1344.2 61.2351 1344.2 Q56.8775 1344.2 54.5685 1340.76 Q52.2768 1337.31 52.2768 1330.76 Q52.2768 1324.2 54.5685 1320.76 Q56.8775 1317.31 61.2351 1317.31 Z" fill="#000000" fill-rule="nonzero" fill-opacity="1" /><path clip-path="url(#clip910)" d="M76.3566 1339.28 L80.0197 1339.28 L80.0197 1343.69 L76.3566 1343.69 L76.3566 1339.28 Z" fill="#000000" fill-rule="nonzero" fill-opacity="1" /><path clip-path="url(#clip910)" d="M95.1586 1320.08 Q92.4502 1320.08 91.0787 1322.76 Q89.7246 1325.41 89.7246 1330.76 Q89.7246 1336.09 91.0787 1338.76 Q92.4502 1341.42 95.1586 1341.42 Q97.8842 1341.42 99.2384 1338.76 Q100.61 1336.09 100.61 1330.76 Q100.61 1325.41 99.2384 1322.76 Q97.8842 1320.08 95.1586 1320.08 M95.1586 1317.31 Q99.5162 1317.31 101.808 1320.76 Q104.117 1324.2 104.117 1330.76 Q104.117 1337.31 101.808 1340.76 Q99.5162 1344.2 95.1586 1344.2 Q90.8009 1344.2 88.4919 1340.76 Q86.2003 1337.31 86.2003 1330.76 Q86.2003 1324.2 88.4919 1320.76 Q90.8009 1317.31 95.1586 1317.31 Z" fill="#000000" fill-rule="nonzero" fill-opacity="1" /><path clip-path="url(#clip910)" d="M110.888 1340.74 L116.617 1340.74 L116.617 1320.97 L110.384 1322.22 L110.384 1319.02 L116.582 1317.77 L120.089 1317.77 L120.089 1340.74 L125.818 1340.74 L125.818 1343.69 L110.888 1343.69 L110.888 1340.74 Z" fill="#000000" fill-rule="nonzero" fill-opacity="1" /><path clip-path="url(#clip910)" d="M61.5129 1199.54 Q58.8046 1199.54 57.4331 1202.21 Q56.0789 1204.87 56.0789 1210.22 Q56.0789 1215.55 57.4331 1218.22 Q58.8046 1220.88 61.5129 1220.88 Q64.2386 1220.88 65.5927 1218.22 Q66.9643 1215.55 66.9643 1210.22 Q66.9643 1204.87 65.5927 1202.21 Q64.2386 1199.54 61.5129 1199.54 M61.5129 1196.76 Q65.8705 1196.76 68.1622 1200.22 Q70.4712 1203.65 70.4712 1210.22 Q70.4712 1216.76 68.1622 1220.22 Q65.8705 1223.65 61.5129 1223.65 Q57.1553 1223.65 54.8463 1220.22 Q52.5546 1216.76 52.5546 1210.22 Q52.5546 1203.65 54.8463 1200.22 Q57.1553 1196.76 61.5129 1196.76 Z" fill="#000000" fill-rule="nonzero" fill-opacity="1" /><path clip-path="url(#clip910)" d="M76.6343 1218.74 L80.2975 1218.74 L80.2975 1223.15 L76.6343 1223.15 L76.6343 1218.74 Z" fill="#000000" fill-rule="nonzero" fill-opacity="1" /><path clip-path="url(#clip910)" d="M95.4363 1199.54 Q92.728 1199.54 91.3565 1202.21 Q90.0023 1204.87 90.0023 1210.22 Q90.0023 1215.55 91.3565 1218.22 Q92.728 1220.88 95.4363 1220.88 Q98.162 1220.88 99.5162 1218.22 Q100.888 1215.55 100.888 1210.22 Q100.888 1204.87 99.5162 1202.21 Q98.162 1199.54 95.4363 1199.54 M95.4363 1196.76 Q99.7939 1196.76 102.086 1200.22 Q104.395 1203.65 104.395 1210.22 Q104.395 1216.76 102.086 1220.22 Q99.7939 1223.65 95.4363 1223.65 Q91.0787 1223.65 88.7697 1220.22 Q86.478 1216.76 86.478 1210.22 Q86.478 1203.65 88.7697 1200.22 Q91.0787 1196.76 95.4363 1196.76 Z" fill="#000000" fill-rule="nonzero" fill-opacity="1" /><path clip-path="url(#clip910)" d="M113.579 1220.2 L125.818 1220.2 L125.818 1223.15 L109.36 1223.15 L109.36 1220.2 Q111.356 1218.13 114.794 1214.66 Q118.249 1211.17 119.134 1210.16 Q120.818 1208.27 121.478 1206.97 Q122.155 1205.65 122.155 1204.38 Q122.155 1202.32 120.697 1201.02 Q119.256 1199.71 116.929 1199.71 Q115.28 1199.71 113.44 1200.29 Q111.617 1200.86 109.533 1202.02 L109.533 1198.48 Q111.652 1197.63 113.492 1197.2 Q115.332 1196.76 116.86 1196.76 Q120.888 1196.76 123.283 1198.78 Q125.679 1200.79 125.679 1204.16 Q125.679 1205.75 125.072 1207.2 Q124.481 1208.62 122.901 1210.56 Q122.467 1211.07 120.141 1213.48 Q117.815 1215.88 113.579 1220.2 Z" fill="#000000" fill-rule="nonzero" fill-opacity="1" /><path clip-path="url(#clip910)" d="M60.8011 1079 Q58.0928 1079 56.7213 1081.67 Q55.3671 1084.33 55.3671 1089.67 Q55.3671 1095 56.7213 1097.68 Q58.0928 1100.33 60.8011 1100.33 Q63.5268 1100.33 64.8809 1097.68 Q66.2525 1095 66.2525 1089.67 Q66.2525 1084.33 64.8809 1081.67 Q63.5268 1079 60.8011 1079 M60.8011 1076.22 Q65.1587 1076.22 67.4504 1079.67 Q69.7594 1083.11 69.7594 1089.67 Q69.7594 1096.22 67.4504 1099.67 Q65.1587 1103.11 60.8011 1103.11 Q56.4435 1103.11 54.1345 1099.67 Q51.8428 1096.22 51.8428 1089.67 Q51.8428 1083.11 54.1345 1079.67 Q56.4435 1076.22 60.8011 1076.22 Z" fill="#000000" fill-rule="nonzero" fill-opacity="1" /><path clip-path="url(#clip910)" d="M75.9225 1098.2 L79.5857 1098.2 L79.5857 1102.61 L75.9225 1102.61 L75.9225 1098.2 Z" fill="#000000" fill-rule="nonzero" fill-opacity="1" /><path clip-path="url(#clip910)" d="M94.7245 1079 Q92.0162 1079 90.6447 1081.67 Q89.2905 1084.33 89.2905 1089.67 Q89.2905 1095 90.6447 1097.68 Q92.0162 1100.33 94.7245 1100.33 Q97.4502 1100.33 98.8044 1097.68 Q100.176 1095 100.176 1089.67 Q100.176 1084.33 98.8044 1081.67 Q97.4502 1079 94.7245 1079 M94.7245 1076.22 Q99.0821 1076.22 101.374 1079.67 Q103.683 1083.11 103.683 1089.67 Q103.683 1096.22 101.374 1099.67 Q99.0821 1103.11 94.7245 1103.11 Q90.3669 1103.11 88.0579 1099.67 Q85.7662 1096.22 85.7662 1089.67 Q85.7662 1083.11 88.0579 1079.67 Q90.3669 1076.22 94.7245 1076.22 Z" fill="#000000" fill-rule="nonzero" fill-opacity="1" /><path clip-path="url(#clip910)" d="M120.471 1088.63 Q122.988 1089.17 124.395 1090.87 Q125.818 1092.57 125.818 1095.07 Q125.818 1098.91 123.179 1101.01 Q120.54 1103.11 115.679 1103.11 Q114.047 1103.11 112.311 1102.78 Q110.593 1102.47 108.752 1101.83 L108.752 1098.44 Q110.211 1099.29 111.947 1099.72 Q113.683 1100.16 115.575 1100.16 Q118.874 1100.16 120.592 1098.86 Q122.329 1097.55 122.329 1095.07 Q122.329 1092.78 120.714 1091.5 Q119.117 1090.19 116.252 1090.19 L113.231 1090.19 L113.231 1087.31 L116.391 1087.31 Q118.978 1087.31 120.349 1086.29 Q121.721 1085.25 121.721 1083.3 Q121.721 1081.3 120.297 1080.25 Q118.891 1079.17 116.252 1079.17 Q114.811 1079.17 113.162 1079.48 Q111.513 1079.79 109.533 1080.45 L109.533 1077.33 Q111.53 1076.77 113.266 1076.5 Q115.02 1076.22 116.565 1076.22 Q120.558 1076.22 122.884 1078.04 Q125.21 1079.85 125.21 1082.94 Q125.21 1085.09 123.978 1086.58 Q122.745 1088.06 120.471 1088.63 Z" fill="#000000" fill-rule="nonzero" fill-opacity="1" /><path clip-path="url(#clip910)" d="M59.9504 958.452 Q57.2421 958.452 55.8706 961.125 Q54.5164 963.782 54.5164 969.129 Q54.5164 974.459 55.8706 977.132 Q57.2421 979.788 59.9504 979.788 Q62.6761 979.788 64.0303 977.132 Q65.4018 974.459 65.4018 969.129 Q65.4018 963.782 64.0303 961.125 Q62.6761 958.452 59.9504 958.452 M59.9504 955.674 Q64.308 955.674 66.5997 959.129 Q68.9087 962.566 68.9087 969.129 Q68.9087 975.674 66.5997 979.129 Q64.308 982.566 59.9504 982.566 Q55.5928 982.566 53.2838 979.129 Q50.9921 975.674 50.9921 969.129 Q50.9921 962.566 53.2838 959.129 Q55.5928 955.674 59.9504 955.674 Z" fill="#000000" fill-rule="nonzero" fill-opacity="1" /><path clip-path="url(#clip910)" d="M75.0719 977.653 L78.735 977.653 L78.735 982.063 L75.0719 982.063 L75.0719 977.653 Z" fill="#000000" fill-rule="nonzero" fill-opacity="1" /><path clip-path="url(#clip910)" d="M93.8738 958.452 Q91.1655 958.452 89.794 961.125 Q88.4398 963.782 88.4398 969.129 Q88.4398 974.459 89.794 977.132 Q91.1655 979.788 93.8738 979.788 Q96.5995 979.788 97.9537 977.132 Q99.3252 974.459 99.3252 969.129 Q99.3252 963.782 97.9537 961.125 Q96.5995 958.452 93.8738 958.452 M93.8738 955.674 Q98.2315 955.674 100.523 959.129 Q102.832 962.566 102.832 969.129 Q102.832 975.674 100.523 979.129 Q98.2315 982.566 93.8738 982.566 Q89.5162 982.566 87.2072 979.129 Q84.9156 975.674 84.9156 969.129 Q84.9156 962.566 87.2072 959.129 Q89.5162 955.674 93.8738 955.674 Z" fill="#000000" fill-rule="nonzero" fill-opacity="1" /><path clip-path="url(#clip910)" d="M118.631 959.198 L109.777 973.035 L118.631 973.035 L118.631 959.198 M117.711 956.143 L122.12 956.143 L122.12 973.035 L125.818 973.035 L125.818 975.952 L122.12 975.952 L122.12 982.063 L118.631 982.063 L118.631 975.952 L106.929 975.952 L106.929 972.566 L117.711 956.143 Z" fill="#000000" fill-rule="nonzero" fill-opacity="1" /><path clip-path="url(#clip910)" d="M173.716 818.926 Q170.198 818.926 168.3 821.472 Q166.309 824.134 166.309 828.532 Q166.309 833.185 168.276 835.87 Q170.267 838.532 173.716 838.532 Q177.119 838.532 179.11 835.847 Q181.1 833.162 181.1 828.532 Q181.1 824.296 179.11 821.472 Q177.281 818.926 173.716 818.926 M173.716 815.546 L187.86 815.546 L187.86 819.805 L183.091 819.805 Q185.614 823.417 185.614 828.532 Q185.614 834.898 182.443 838.509 Q179.272 842.143 173.716 842.143 Q168.138 842.143 164.989 838.509 Q161.818 834.898 161.818 828.532 Q161.818 822.12 164.989 818.532 Q167.605 815.546 173.716 815.546 Z" fill="#000000" fill-rule="nonzero" fill-opacity="1" /><path clip-path="url(#clip910)" d="M198.878 841.472 L190.961 815.546 L195.545 815.546 L202.235 837.305 Q205.012 834.435 207.327 830.454 Q209.086 827.467 209.179 824.875 Q209.225 823.648 208.67 821.333 Q208.022 818.579 205.568 815.546 L209.873 815.546 L209.873 815.546 Q211.471 817.606 212.535 820.477 Q213.508 823.116 213.508 824.921 Q213.508 829.458 210.36 833.509 Q206.262 838.787 203.415 841.472 L198.878 841.472 Z" fill="#000000" fill-rule="nonzero" fill-opacity="1" /><polyline clip-path="url(#clip914)" style="stroke:#009af9; stroke-linecap:round; stroke-linejoin:round; stroke-width:4; stroke-opacity:1; fill:none" points="189.869,964.771 248.307,1022.79 306.746,1081.61 365.185,1141.22 423.623,1201.64 482.062,1262.85 540.501,1324.86 598.939,1387.67 657.378,1451.28 715.817,1386.87 774.256,1321.67 832.694,1255.67 891.133,1188.87 949.572,1121.27 1008.01,1052.87 1066.45,983.674 1124.89,913.68 "/>
<circle clip-path="url(#clip914)" cx="657.378" cy="1451.28" r="10.8" fill="#ff0000" fill-rule="evenodd" fill-opacity="1" stroke="#000000" stroke-opacity="1" stroke-width="3.2"/>
</svg>
