<?xml version="1.0" encoding="utf-8"?>
<svg xmlns="http://www.w3.org/2000/svg" xmlns:xlink="http://www.w3.org/1999/xlink" width="600" height="400" viewBox="0 0 2400 1600">
<defs>
  <clipPath id="clip640">
    <rect x="0" y="0" width="2400" height="1600"/>
  </clipPath>
</defs>
<path clip-path="url(#clip640)" d="M0 1600 L2400 1600 L2400 0 L0 0  Z" fill="#ffffff" fill-rule="evenodd" fill-opacity="1"/>
<defs>
  <clipPath id="clip641">
    <rect x="480" y="0" width="1681" height="1600"/>
  </clipPath>
</defs>
<path clip-path="url(#clip640)" d="M128.138 662.16 L1153.26 662.16 L1153.26 97.5521 L128.138 97.5521  Z" fill="#ffffff" fill-rule="evenodd" fill-opacity="1"/>
<defs>
  <clipPath id="clip642">
    <rect x="128" y="97" width="1026" height="566"/>
  </clipPath>
</defs>
<polyline clip-path="url(#clip642)" style="stroke:#000000; stroke-linecap:round; stroke-linejoin:round; stroke-width:2; stroke-opacity:0.1; fill:none" points="314.858,662.16 314.858,97.5521 "/>
<polyline clip-path="url(#clip642)" style="stroke:#000000; stroke-linecap:round; stroke-linejoin:round; stroke-width:2; stroke-opacity:0.1; fill:none" points="575.53,662.16 575.53,97.5521 "/>
<polyline clip-path="url(#clip642)" style="stroke:#000000; stroke-linecap:round; stroke-linejoin:round; stroke-width:2; stroke-opacity:0.1; fill:none" points="836.203,662.16 836.203,97.5521 "/>
<polyline clip-path="url(#clip642)" style="stroke:#000000; stroke-linecap:round; stroke-linejoin:round; stroke-width:2; stroke-opacity:0.1; fill:none" points="1096.88,662.16 1096.88,97.5521 "/>
<polyline clip-path="url(#clip642)" style="stroke:#000000; stroke-linecap:round; stroke-linejoin:round; stroke-width:2; stroke-opacity:0.1; fill:none" points="128.138,662.16 1153.26,662.16 "/>
<polyline clip-path="url(#clip642)" style="stroke:#000000; stroke-linecap:round; stroke-linejoin:round; stroke-width:2; stroke-opacity:0.1; fill:none" points="128.138,580.333 1153.26,580.333 "/>
<polyline clip-path="url(#clip642)" style="stroke:#000000; stroke-linecap:round; stroke-linejoin:round; stroke-width:2; stroke-opacity:0.1; fill:none" points="128.138,498.506 1153.26,498.506 "/>
<polyline clip-path="url(#clip642)" style="stroke:#000000; stroke-linecap:round; stroke-linejoin:round; stroke-width:2; stroke-opacity:0.1; fill:none" points="128.138,416.679 1153.26,416.679 "/>
<polyline clip-path="url(#clip642)" style="stroke:#000000; stroke-linecap:round; stroke-linejoin:round; stroke-width:2; stroke-opacity:0.1; fill:none" points="128.138,334.851 1153.26,334.851 "/>
<polyline clip-path="url(#clip642)" style="stroke:#000000; stroke-linecap:round; stroke-linejoin:round; stroke-width:2; stroke-opacity:0.1; fill:none" points="128.138,253.024 1153.26,253.024 "/>
<polyline clip-path="url(#clip642)" style="stroke:#000000; stroke-linecap:round; stroke-linejoin:round; stroke-width:2; stroke-opacity:0.1; fill:none" points="128.138,171.197 1153.26,171.197 "/>
<polyline clip-path="url(#clip640)" style="stroke:#000000; stroke-linecap:round; stroke-linejoin:round; stroke-width:4; stroke-opacity:1; fill:none" points="128.138,662.16 1153.26,662.16 "/>
<polyline clip-path="url(#clip640)" style="stroke:#000000; stroke-linecap:round; stroke-linejoin:round; stroke-width:4; stroke-opacity:1; fill:none" points="314.858,662.16 314.858,643.263 "/>
<polyline clip-path="url(#clip640)" style="stroke:#000000; stroke-linecap:round; stroke-linejoin:round; stroke-width:4; stroke-opacity:1; fill:none" points="575.53,662.16 575.53,643.263 "/>
<polyline clip-path="url(#clip640)" style="stroke:#000000; stroke-linecap:round; stroke-linejoin:round; stroke-width:4; stroke-opacity:1; fill:none" points="836.203,662.16 836.203,643.263 "/>
<polyline clip-path="url(#clip640)" style="stroke:#000000; stroke-linecap:round; stroke-linejoin:round; stroke-width:4; stroke-opacity:1; fill:none" points="1096.88,662.16 1096.88,643.263 "/>
<path clip-path="url(#clip640)" d="M261.058 733.844 Q259.143 735.759 260.063 738.619 Q260.984 741.455 264.765 745.236 Q268.534 749.005 271.382 749.938 Q274.23 750.846 276.145 748.931 Q278.072 747.004 277.152 744.168 Q276.231 741.308 272.462 737.539 Q268.681 733.758 265.833 732.849 Q262.985 731.916 261.058 733.844 M259.093 731.88 Q262.175 728.798 266.238 729.621 Q270.302 730.419 274.942 735.059 Q279.57 739.687 280.38 743.763 Q281.19 747.814 278.109 750.895 Q275.028 753.977 270.964 753.179 Q266.901 752.356 262.273 747.728 Q257.633 743.088 256.822 739.037 Q256.012 734.961 259.093 731.88 Z" fill="#000000" fill-rule="nonzero" fill-opacity="1" /><path clip-path="url(#clip640)" d="M285.327 736.729 L287.918 734.138 L291.036 737.256 L288.446 739.847 L285.327 736.729 Z" fill="#000000" fill-rule="nonzero" fill-opacity="1" /><path clip-path="url(#clip640)" d="M293.037 717.848 Q291.269 719.616 291.195 721.58 Q291.134 723.532 292.791 725.189 Q294.449 726.846 296.401 726.785 Q298.365 726.711 300.132 724.944 Q301.9 723.176 301.974 721.212 Q302.035 719.235 300.39 717.59 Q298.733 715.933 296.769 716.007 Q294.817 716.068 293.037 717.848 M289.501 719.272 Q287.513 720.475 285.524 720.279 Q283.547 720.07 281.976 718.499 Q279.779 716.301 280.061 713.465 Q280.356 710.617 283.081 707.892 Q285.819 705.155 288.654 704.872 Q291.49 704.59 293.688 706.787 Q295.259 708.359 295.455 710.347 Q295.664 712.324 294.473 714.3 Q296.683 712.925 298.893 713.146 Q301.115 713.355 302.87 715.11 Q305.534 717.774 305.325 720.831 Q305.129 723.876 302.097 726.908 Q299.064 729.94 296.008 730.149 Q292.963 730.345 290.299 727.681 Q288.544 725.926 288.335 723.704 Q288.126 721.482 289.501 719.272 M284.677 716.264 Q286.101 717.688 287.783 717.602 Q289.477 717.504 291.085 715.896 Q292.681 714.3 292.779 712.606 Q292.89 710.9 291.466 709.476 Q290.042 708.052 288.335 708.162 Q286.641 708.26 285.045 709.856 Q283.437 711.464 283.339 713.159 Q283.253 714.84 284.677 716.264 Z" fill="#000000" fill-rule="nonzero" fill-opacity="1" /><path clip-path="url(#clip640)" d="M309.033 701.852 Q307.265 703.62 307.191 705.584 Q307.13 707.536 308.787 709.193 Q310.444 710.851 312.396 710.789 Q314.36 710.716 316.128 708.948 Q317.896 707.18 317.97 705.216 Q318.031 703.239 316.386 701.594 Q314.729 699.937 312.765 700.011 Q310.813 700.072 309.033 701.852 M305.497 703.276 Q303.508 704.479 301.52 704.283 Q299.543 704.074 297.972 702.503 Q295.774 700.305 296.057 697.47 Q296.351 694.622 299.077 691.896 Q301.814 689.159 304.65 688.876 Q307.486 688.594 309.683 690.791 Q311.255 692.363 311.451 694.352 Q311.66 696.328 310.469 698.304 Q312.679 696.93 314.888 697.15 Q317.11 697.359 318.866 699.115 Q321.53 701.779 321.321 704.835 Q321.125 707.88 318.092 710.912 Q315.06 713.944 312.003 714.153 Q308.959 714.349 306.295 711.685 Q304.54 709.93 304.331 707.708 Q304.122 705.486 305.497 703.276 M300.673 700.269 Q302.097 701.693 303.778 701.607 Q305.473 701.509 307.081 699.9 Q308.677 698.304 308.775 696.61 Q308.885 694.904 307.461 693.48 Q306.037 692.056 304.331 692.166 Q302.637 692.265 301.041 693.861 Q299.433 695.469 299.335 697.163 Q299.249 698.845 300.673 700.269 Z" fill="#000000" fill-rule="nonzero" fill-opacity="1" /><path clip-path="url(#clip640)" d="M521.779 733.795 Q519.864 735.71 520.785 738.57 Q521.706 741.406 525.487 745.187 Q529.256 748.956 532.104 749.889 Q534.952 750.797 536.867 748.882 Q538.794 746.955 537.873 744.119 Q536.953 741.259 533.184 737.49 Q529.403 733.709 526.555 732.8 Q523.707 731.867 521.779 733.795 M519.815 731.83 Q522.897 728.749 526.96 729.572 Q531.023 730.37 535.664 735.01 Q540.292 739.638 541.102 743.714 Q541.912 747.765 538.831 750.846 Q535.75 753.927 531.686 753.129 Q527.623 752.307 522.995 747.679 Q518.354 743.039 517.544 738.987 Q516.734 734.912 519.815 731.83 Z" fill="#000000" fill-rule="nonzero" fill-opacity="1" /><path clip-path="url(#clip640)" d="M546.049 736.68 L548.64 734.089 L551.758 737.207 L549.167 739.798 L546.049 736.68 Z" fill="#000000" fill-rule="nonzero" fill-opacity="1" /><path clip-path="url(#clip640)" d="M553.759 717.799 Q551.991 719.567 551.917 721.531 Q551.856 723.483 553.513 725.14 Q555.17 726.797 557.122 726.736 Q559.087 726.662 560.854 724.894 Q562.622 723.127 562.696 721.163 Q562.757 719.186 561.112 717.541 Q559.455 715.884 557.491 715.957 Q555.539 716.019 553.759 717.799 M550.223 719.223 Q548.234 720.426 546.246 720.23 Q544.269 720.021 542.698 718.45 Q540.501 716.252 540.783 713.416 Q541.078 710.568 543.803 707.843 Q546.54 705.105 549.376 704.823 Q552.212 704.541 554.409 706.738 Q555.981 708.309 556.177 710.298 Q556.386 712.275 555.195 714.251 Q557.405 712.876 559.614 713.097 Q561.836 713.306 563.592 715.061 Q566.256 717.725 566.047 720.782 Q565.851 723.826 562.818 726.859 Q559.786 729.891 556.73 730.1 Q553.685 730.296 551.021 727.632 Q549.266 725.877 549.057 723.655 Q548.848 721.433 550.223 719.223 M545.399 716.215 Q546.823 717.639 548.505 717.553 Q550.199 717.455 551.807 715.847 Q553.403 714.251 553.501 712.557 Q553.611 710.851 552.187 709.427 Q550.763 708.003 549.057 708.113 Q547.363 708.211 545.767 709.807 Q544.159 711.415 544.061 713.109 Q543.975 714.791 545.399 716.215 Z" fill="#000000" fill-rule="nonzero" fill-opacity="1" /><path clip-path="url(#clip640)" d="M572.848 715.356 L570.589 713.097 Q571.964 712.606 573.155 711.882 Q574.346 711.158 575.266 710.237 Q577.722 707.782 577.366 704.848 Q577.01 701.889 573.83 698.341 Q574.174 700.109 573.646 701.766 Q573.118 703.424 571.792 704.749 Q569.042 707.499 565.777 707.45 Q562.512 707.376 559.627 704.492 Q556.803 701.668 556.766 698.292 Q556.73 694.916 559.504 692.142 Q562.683 688.962 566.796 689.736 Q570.908 690.485 575.549 695.125 Q579.882 699.458 580.41 704.111 Q580.938 708.739 577.464 712.213 Q576.531 713.146 575.389 713.92 Q574.248 714.693 572.848 715.356 M570.012 702.65 Q571.682 700.981 571.51 698.869 Q571.35 696.745 569.362 694.757 Q567.385 692.78 565.261 692.621 Q563.138 692.436 561.468 694.106 Q559.799 695.776 559.97 697.912 Q560.142 700.023 562.119 702 Q564.107 703.988 566.219 704.16 Q568.343 704.32 570.012 702.65 Z" fill="#000000" fill-rule="nonzero" fill-opacity="1" /><path clip-path="url(#clip640)" d="M782.354 733.893 Q780.439 735.808 781.36 738.668 Q782.28 741.504 786.061 745.285 Q789.83 749.054 792.678 749.987 Q795.526 750.895 797.441 748.98 Q799.369 747.053 798.448 744.217 Q797.527 741.357 793.759 737.588 Q789.977 733.807 787.129 732.898 Q784.281 731.966 782.354 733.893 M780.39 731.929 Q783.471 728.847 787.535 729.67 Q791.598 730.468 796.238 735.108 Q800.866 739.736 801.677 743.812 Q802.487 747.863 799.406 750.944 Q796.324 754.026 792.261 753.228 Q788.197 752.405 783.569 747.777 Q778.929 743.137 778.119 739.086 Q777.309 735.01 780.39 731.929 Z" fill="#000000" fill-rule="nonzero" fill-opacity="1" /><path clip-path="url(#clip640)" d="M806.624 736.778 L809.214 734.187 L812.332 737.306 L809.742 739.896 L806.624 736.778 Z" fill="#000000" fill-rule="nonzero" fill-opacity="1" /><path clip-path="url(#clip640)" d="M817.427 731.45 L815.168 729.191 Q816.543 728.7 817.734 727.976 Q818.925 727.251 819.845 726.331 Q822.3 723.876 821.944 720.942 Q821.588 717.983 818.409 714.435 Q818.753 716.203 818.225 717.86 Q817.697 719.518 816.371 720.843 Q813.621 723.593 810.356 723.544 Q807.09 723.47 804.205 720.586 Q801.382 717.762 801.345 714.386 Q801.308 711.01 804.083 708.236 Q807.262 705.056 811.375 705.83 Q815.487 706.579 820.128 711.219 Q824.461 715.552 824.989 720.205 Q825.517 724.833 822.043 728.307 Q821.11 729.24 819.968 730.014 Q818.826 730.787 817.427 731.45 M814.591 718.744 Q816.261 717.075 816.089 714.963 Q815.929 712.839 813.94 710.851 Q811.964 708.874 809.84 708.715 Q807.716 708.53 806.047 710.2 Q804.377 711.87 804.549 714.006 Q804.721 716.117 806.698 718.094 Q808.686 720.082 810.798 720.254 Q812.922 720.414 814.591 718.744 Z" fill="#000000" fill-rule="nonzero" fill-opacity="1" /><path clip-path="url(#clip640)" d="M822.337 693.91 Q820.422 695.825 821.343 698.685 Q822.264 701.521 826.045 705.302 Q829.813 709.071 832.661 710.004 Q835.51 710.912 837.425 708.997 Q839.352 707.07 838.431 704.234 Q837.511 701.373 833.742 697.605 Q829.961 693.824 827.113 692.915 Q824.265 691.982 822.337 693.91 M820.373 691.945 Q823.454 688.864 827.518 689.687 Q831.581 690.485 836.222 695.125 Q840.85 699.753 841.66 703.829 Q842.47 707.88 839.389 710.961 Q836.307 714.042 832.244 713.244 Q828.181 712.422 823.553 707.794 Q818.912 703.154 818.102 699.102 Q817.292 695.027 820.373 691.945 Z" fill="#000000" fill-rule="nonzero" fill-opacity="1" /><path clip-path="url(#clip640)" d="M1043.68 733.242 Q1041.76 735.157 1042.68 738.018 Q1043.6 740.853 1047.38 744.634 Q1051.15 748.403 1054 749.336 Q1056.85 750.245 1058.76 748.33 Q1060.69 746.402 1059.77 743.566 Q1058.85 740.706 1055.08 736.937 Q1051.3 733.156 1048.45 732.248 Q1045.6 731.315 1043.68 733.242 M1041.71 731.278 Q1044.79 728.197 1048.86 729.019 Q1052.92 729.817 1057.56 734.458 Q1062.19 739.086 1063 743.161 Q1063.81 747.212 1060.73 750.294 Q1057.65 753.375 1053.58 752.577 Q1049.52 751.755 1044.89 747.126 Q1040.25 742.486 1039.44 738.435 Q1038.63 734.359 1041.71 731.278 Z" fill="#000000" fill-rule="nonzero" fill-opacity="1" /><path clip-path="url(#clip640)" d="M1067.95 736.127 L1070.54 733.537 L1073.66 736.655 L1071.07 739.245 L1067.95 736.127 Z" fill="#000000" fill-rule="nonzero" fill-opacity="1" /><path clip-path="url(#clip640)" d="M1078.75 730.799 L1076.49 728.54 Q1077.87 728.049 1079.06 727.325 Q1080.25 726.601 1081.17 725.68 Q1083.62 723.225 1083.27 720.291 Q1082.91 717.332 1079.73 713.785 Q1080.08 715.552 1079.55 717.21 Q1079.02 718.867 1077.69 720.193 Q1074.94 722.943 1071.68 722.893 Q1068.41 722.82 1065.53 719.935 Q1062.71 717.111 1062.67 713.736 Q1062.63 710.36 1065.41 707.585 Q1068.59 704.406 1072.7 705.179 Q1076.81 705.928 1081.45 710.568 Q1085.78 714.902 1086.31 719.554 Q1086.84 724.182 1083.37 727.657 Q1082.43 728.59 1081.29 729.363 Q1080.15 730.136 1078.75 730.799 M1075.91 718.094 Q1077.58 716.424 1077.41 714.312 Q1077.25 712.189 1075.26 710.2 Q1073.29 708.224 1071.16 708.064 Q1069.04 707.88 1067.37 709.549 Q1065.7 711.219 1065.87 713.355 Q1066.04 715.466 1068.02 717.443 Q1070.01 719.432 1072.12 719.603 Q1074.24 719.763 1075.91 718.094 Z" fill="#000000" fill-rule="nonzero" fill-opacity="1" /><path clip-path="url(#clip640)" d="M1093.4 712.741 L1097.45 708.69 L1083.46 694.708 L1079.94 699.999 L1077.68 697.74 L1081.18 692.473 L1083.66 689.994 L1099.9 706.235 L1103.95 702.184 L1106.04 704.271 L1095.48 714.828 L1093.4 712.741 Z" fill="#000000" fill-rule="nonzero" fill-opacity="1" /><polyline clip-path="url(#clip640)" style="stroke:#000000; stroke-linecap:round; stroke-linejoin:round; stroke-width:4; stroke-opacity:1; fill:none" points="128.138,662.16 128.138,97.5521 "/>
<polyline clip-path="url(#clip640)" style="stroke:#000000; stroke-linecap:round; stroke-linejoin:round; stroke-width:4; stroke-opacity:1; fill:none" points="128.138,662.16 147.035,662.16 "/>
<polyline clip-path="url(#clip640)" style="stroke:#000000; stroke-linecap:round; stroke-linejoin:round; stroke-width:4; stroke-opacity:1; fill:none" points="128.138,580.333 147.035,580.333 "/>
<polyline clip-path="url(#clip640)" style="stroke:#000000; stroke-linecap:round; stroke-linejoin:round; stroke-width:4; stroke-opacity:1; fill:none" points="128.138,498.506 147.035,498.506 "/>
<polyline clip-path="url(#clip640)" style="stroke:#000000; stroke-linecap:round; stroke-linejoin:round; stroke-width:4; stroke-opacity:1; fill:none" points="128.138,416.679 147.035,416.679 "/>
<polyline clip-path="url(#clip640)" style="stroke:#000000; stroke-linecap:round; stroke-linejoin:round; stroke-width:4; stroke-opacity:1; fill:none" points="128.138,334.851 147.035,334.851 "/>
<polyline clip-path="url(#clip640)" style="stroke:#000000; stroke-linecap:round; stroke-linejoin:round; stroke-width:4; stroke-opacity:1; fill:none" points="128.138,253.024 147.035,253.024 "/>
<polyline clip-path="url(#clip640)" style="stroke:#000000; stroke-linecap:round; stroke-linejoin:round; stroke-width:4; stroke-opacity:1; fill:none" points="128.138,171.197 147.035,171.197 "/>
<path clip-path="url(#clip640)" d="M83.1795 651.509 Q80.4711 651.509 79.0996 654.183 Q77.7455 656.839 77.7455 662.186 Q77.7455 667.516 79.0996 670.19 Q80.4711 672.846 83.1795 672.846 Q85.9051 672.846 87.2593 670.19 Q88.6308 667.516 88.6308 662.186 Q88.6308 656.839 87.2593 654.183 Q85.9051 651.509 83.1795 651.509 M83.1795 648.732 Q87.5371 648.732 89.8287 652.186 Q92.1377 655.624 92.1377 662.186 Q92.1377 668.732 89.8287 672.186 Q87.5371 675.624 83.1795 675.624 Q78.8218 675.624 76.5128 672.186 Q74.2212 668.732 74.2212 662.186 Q74.2212 655.624 76.5128 652.186 Q78.8218 648.732 83.1795 648.732 Z" fill="#000000" fill-rule="nonzero" fill-opacity="1" /><path clip-path="url(#clip640)" d="M53.6657 590.342 L59.3949 590.342 L59.3949 570.568 L53.1623 571.818 L53.1623 568.623 L59.3601 567.373 L62.8671 567.373 L62.8671 590.342 L68.5962 590.342 L68.5962 593.293 L53.6657 593.293 L53.6657 590.342 Z" fill="#000000" fill-rule="nonzero" fill-opacity="1" /><path clip-path="url(#clip640)" d="M83.1795 569.682 Q80.4711 569.682 79.0996 572.356 Q77.7455 575.012 77.7455 580.359 Q77.7455 585.689 79.0996 588.363 Q80.4711 591.019 83.1795 591.019 Q85.9051 591.019 87.2593 588.363 Q88.6308 585.689 88.6308 580.359 Q88.6308 575.012 87.2593 572.356 Q85.9051 569.682 83.1795 569.682 M83.1795 566.904 Q87.5371 566.904 89.8287 570.359 Q92.1377 573.797 92.1377 580.359 Q92.1377 586.904 89.8287 590.359 Q87.5371 593.797 83.1795 593.797 Q78.8218 593.797 76.5128 590.359 Q74.2212 586.904 74.2212 580.359 Q74.2212 573.797 76.5128 570.359 Q78.8218 566.904 83.1795 566.904 Z" fill="#000000" fill-rule="nonzero" fill-opacity="1" /><path clip-path="url(#clip640)" d="M56.0789 508.514 L68.3184 508.514 L68.3184 511.466 L51.8602 511.466 L51.8602 508.514 Q53.8567 506.448 57.2942 502.976 Q60.749 499.487 61.6344 498.48 Q63.3184 496.587 63.9782 495.285 Q64.6552 493.966 64.6552 492.699 Q64.6552 490.633 63.1969 489.331 Q61.756 488.028 59.4296 488.028 Q57.7803 488.028 55.94 488.601 Q54.1171 489.174 52.0338 490.337 L52.0338 486.796 Q54.1518 485.945 55.9921 485.511 Q57.8324 485.077 59.3601 485.077 Q63.3879 485.077 65.7837 487.091 Q68.1795 489.105 68.1795 492.473 Q68.1795 494.07 67.5719 495.511 Q66.9816 496.935 65.4018 498.879 Q64.9677 499.383 62.6414 501.796 Q60.315 504.192 56.0789 508.514 Z" fill="#000000" fill-rule="nonzero" fill-opacity="1" /><path clip-path="url(#clip640)" d="M83.1795 487.855 Q80.4711 487.855 79.0996 490.528 Q77.7455 493.185 77.7455 498.532 Q77.7455 503.862 79.0996 506.535 Q80.4711 509.192 83.1795 509.192 Q85.9051 509.192 87.2593 506.535 Q88.6308 503.862 88.6308 498.532 Q88.6308 493.185 87.2593 490.528 Q85.9051 487.855 83.1795 487.855 M83.1795 485.077 Q87.5371 485.077 89.8287 488.532 Q92.1377 491.969 92.1377 498.532 Q92.1377 505.077 89.8287 508.532 Q87.5371 511.969 83.1795 511.969 Q78.8218 511.969 76.5128 508.532 Q74.2212 505.077 74.2212 498.532 Q74.2212 491.969 76.5128 488.532 Q78.8218 485.077 83.1795 485.077 Z" fill="#000000" fill-rule="nonzero" fill-opacity="1" /><path clip-path="url(#clip640)" d="M63.683 415.663 Q66.2004 416.201 67.6066 417.902 Q69.0302 419.604 69.0302 422.104 Q69.0302 425.941 66.3913 428.041 Q63.7525 430.142 58.8914 430.142 Q57.2595 430.142 55.5234 429.812 Q53.8046 429.5 51.9643 428.857 L51.9643 425.472 Q53.4227 426.323 55.1588 426.757 Q56.8949 427.191 58.7872 427.191 Q62.0858 427.191 63.8046 425.889 Q65.5407 424.586 65.5407 422.104 Q65.5407 419.812 63.9261 418.527 Q62.3289 417.225 59.4643 417.225 L56.4435 417.225 L56.4435 414.343 L59.6032 414.343 Q62.19 414.343 63.5615 413.319 Q64.933 412.278 64.933 410.333 Q64.933 408.337 63.5094 407.278 Q62.1032 406.201 59.4643 406.201 Q58.0233 406.201 56.374 406.514 Q54.7247 406.826 52.7456 407.486 L52.7456 404.361 Q54.7421 403.805 56.4782 403.528 Q58.2317 403.25 59.7768 403.25 Q63.7698 403.25 66.0962 405.073 Q68.4226 406.878 68.4226 409.968 Q68.4226 412.121 67.19 413.614 Q65.9573 415.09 63.683 415.663 Z" fill="#000000" fill-rule="nonzero" fill-opacity="1" /><path clip-path="url(#clip640)" d="M83.1795 406.028 Q80.4711 406.028 79.0996 408.701 Q77.7455 411.357 77.7455 416.705 Q77.7455 422.034 79.0996 424.708 Q80.4711 427.364 83.1795 427.364 Q85.9051 427.364 87.2593 424.708 Q88.6308 422.034 88.6308 416.705 Q88.6308 411.357 87.2593 408.701 Q85.9051 406.028 83.1795 406.028 M83.1795 403.25 Q87.5371 403.25 89.8287 406.705 Q92.1377 410.142 92.1377 416.705 Q92.1377 423.25 89.8287 426.705 Q87.5371 430.142 83.1795 430.142 Q78.8218 430.142 76.5128 426.705 Q74.2212 423.25 74.2212 416.705 Q74.2212 410.142 76.5128 406.705 Q78.8218 403.25 83.1795 403.25 Z" fill="#000000" fill-rule="nonzero" fill-opacity="1" /><path clip-path="url(#clip640)" d="M62.6935 324.947 L53.8393 338.784 L62.6935 338.784 L62.6935 324.947 M61.7733 321.891 L66.183 321.891 L66.183 338.784 L69.8809 338.784 L69.8809 341.7 L66.183 341.7 L66.183 347.811 L62.6935 347.811 L62.6935 341.7 L50.9921 341.7 L50.9921 338.315 L61.7733 321.891 Z" fill="#000000" fill-rule="nonzero" fill-opacity="1" /><path clip-path="url(#clip640)" d="M83.1795 324.2 Q80.4711 324.2 79.0996 326.874 Q77.7455 329.53 77.7455 334.877 Q77.7455 340.207 79.0996 342.881 Q80.4711 345.537 83.1795 345.537 Q85.9051 345.537 87.2593 342.881 Q88.6308 340.207 88.6308 334.877 Q88.6308 329.53 87.2593 326.874 Q85.9051 324.2 83.1795 324.2 M83.1795 321.422 Q87.5371 321.422 89.8287 324.877 Q92.1377 328.315 92.1377 334.877 Q92.1377 341.422 89.8287 344.877 Q87.5371 348.315 83.1795 348.315 Q78.8218 348.315 76.5128 344.877 Q74.2212 341.422 74.2212 334.877 Q74.2212 328.315 76.5128 324.877 Q78.8218 321.422 83.1795 321.422 Z" fill="#000000" fill-rule="nonzero" fill-opacity="1" /><path clip-path="url(#clip640)" d="M53.0928 240.064 L66.8601 240.064 L66.8601 243.015 L56.3046 243.015 L56.3046 249.369 Q57.0685 249.109 57.8324 248.988 Q58.5963 248.849 59.3601 248.849 Q63.7004 248.849 66.2351 251.227 Q68.7698 253.606 68.7698 257.668 Q68.7698 261.852 66.1657 264.178 Q63.5615 266.487 58.8219 266.487 Q57.19 266.487 55.4886 266.21 Q53.8046 265.932 51.9991 265.376 L51.9991 261.852 Q53.5616 262.703 55.2282 263.119 Q56.8949 263.536 58.7525 263.536 Q61.756 263.536 63.5094 261.956 Q65.2629 260.376 65.2629 257.668 Q65.2629 254.96 63.5094 253.38 Q61.756 251.8 58.7525 251.8 Q57.3463 251.8 55.94 252.113 Q54.5511 252.425 53.0928 253.085 L53.0928 240.064 Z" fill="#000000" fill-rule="nonzero" fill-opacity="1" /><path clip-path="url(#clip640)" d="M83.1795 242.373 Q80.4711 242.373 79.0996 245.047 Q77.7455 247.703 77.7455 253.05 Q77.7455 258.38 79.0996 261.053 Q80.4711 263.71 83.1795 263.71 Q85.9051 263.71 87.2593 261.053 Q88.6308 258.38 88.6308 253.05 Q88.6308 247.703 87.2593 245.047 Q85.9051 242.373 83.1795 242.373 M83.1795 239.595 Q87.5371 239.595 89.8287 243.05 Q92.1377 246.488 92.1377 253.05 Q92.1377 259.595 89.8287 263.05 Q87.5371 266.487 83.1795 266.487 Q78.8218 266.487 76.5128 263.05 Q74.2212 259.595 74.2212 253.05 Q74.2212 246.488 76.5128 243.05 Q78.8218 239.595 83.1795 239.595 Z" fill="#000000" fill-rule="nonzero" fill-opacity="1" /><path clip-path="url(#clip640)" d="M60.9921 169.799 Q58.631 169.799 57.2421 171.414 Q55.8706 173.028 55.8706 175.841 Q55.8706 178.636 57.2421 180.268 Q58.631 181.882 60.9921 181.882 Q63.3532 181.882 64.7247 180.268 Q66.1136 178.636 66.1136 175.841 Q66.1136 173.028 64.7247 171.414 Q63.3532 169.799 60.9921 169.799 M67.9538 158.81 L67.9538 162.004 Q66.6344 161.379 65.2802 161.049 Q63.9434 160.719 62.624 160.719 Q59.1518 160.719 57.3115 163.063 Q55.4886 165.407 55.2282 170.146 Q56.2525 168.636 57.7976 167.837 Q59.3428 167.021 61.2004 167.021 Q65.1066 167.021 67.3636 169.4 Q69.6379 171.761 69.6379 175.841 Q69.6379 179.834 67.2768 182.247 Q64.9157 184.66 60.9921 184.66 Q56.4956 184.66 54.1171 181.223 Q51.7386 177.768 51.7386 171.223 Q51.7386 165.077 54.6553 161.431 Q57.572 157.768 62.4851 157.768 Q63.8046 157.768 65.1414 158.028 Q66.4955 158.289 67.9538 158.81 Z" fill="#000000" fill-rule="nonzero" fill-opacity="1" /><path clip-path="url(#clip640)" d="M83.1795 160.546 Q80.4711 160.546 79.0996 163.219 Q77.7455 165.876 77.7455 171.223 Q77.7455 176.553 79.0996 179.226 Q80.4711 181.882 83.1795 181.882 Q85.9051 181.882 87.2593 179.226 Q88.6308 176.553 88.6308 171.223 Q88.6308 165.876 87.2593 163.219 Q85.9051 160.546 83.1795 160.546 M83.1795 157.768 Q87.5371 157.768 89.8287 161.223 Q92.1377 164.66 92.1377 171.223 Q92.1377 177.768 89.8287 181.223 Q87.5371 184.66 83.1795 184.66 Q78.8218 184.66 76.5128 181.223 Q74.2212 177.768 74.2212 171.223 Q74.2212 164.66 76.5128 161.223 Q78.8218 157.768 83.1795 157.768 Z" fill="#000000" fill-rule="nonzero" fill-opacity="1" /><path clip-path="url(#clip640)" d="M130.221 20.1758 Q131.633 17.8147 135.128 15.7314 Q136.494 14.9212 140.707 14.9212 Q145.429 14.9212 148.369 18.6712 Q151.332 22.4212 151.332 28.5323 Q151.332 34.6433 148.369 38.3933 Q145.429 42.1433 140.707 42.1433 Q137.86 42.1433 135.8 41.0322 Q133.763 39.8979 132.42 37.5831 L132.42 51.3331 L128.138 51.3331 L128.138 28.7637 Q128.138 23.4165 130.221 20.1758 M146.911 28.5323 Q146.911 23.8332 144.966 21.1712 Q143.045 18.486 139.665 18.486 Q136.286 18.486 134.341 21.1712 Q132.42 23.8332 132.42 28.5323 Q132.42 33.2313 134.341 35.9165 Q136.286 38.5785 139.665 38.5785 Q143.045 38.5785 144.966 35.9165 Q146.911 33.2313 146.911 28.5323 Z" fill="#000000" fill-rule="nonzero" fill-opacity="1" /><path clip-path="url(#clip642)" d="M184.521 506.689 L184.521 662.16 L314.858 662.16 L314.858 506.689 L184.521 506.689 L184.521 506.689  Z" fill="#009af9" fill-rule="evenodd" fill-opacity="1"/>
<polyline clip-path="url(#clip642)" style="stroke:#000000; stroke-linecap:round; stroke-linejoin:round; stroke-width:4; stroke-opacity:1; fill:none" points="184.521,506.689 184.521,662.16 314.858,662.16 314.858,506.689 184.521,506.689 "/>
<path clip-path="url(#clip642)" d="M314.858 220.293 L314.858 662.16 L445.194 662.16 L445.194 220.293 L314.858 220.293 L314.858 220.293  Z" fill="#009af9" fill-rule="evenodd" fill-opacity="1"/>
<polyline clip-path="url(#clip642)" style="stroke:#000000; stroke-linecap:round; stroke-linejoin:round; stroke-width:4; stroke-opacity:1; fill:none" points="314.858,220.293 314.858,662.16 445.194,662.16 445.194,220.293 314.858,220.293 "/>
<path clip-path="url(#clip642)" d="M445.194 97.5521 L445.194 662.16 L575.53 662.16 L575.53 97.5521 L445.194 97.5521 L445.194 97.5521  Z" fill="#009af9" fill-rule="evenodd" fill-opacity="1"/>
<polyline clip-path="url(#clip642)" style="stroke:#000000; stroke-linecap:round; stroke-linejoin:round; stroke-width:4; stroke-opacity:1; fill:none" points="445.194,97.5521 445.194,662.16 575.53,662.16 575.53,97.5521 445.194,97.5521 "/>
<path clip-path="url(#clip642)" d="M575.53 236.659 L575.53 662.16 L705.867 662.16 L705.867 236.659 L575.53 236.659 L575.53 236.659  Z" fill="#009af9" fill-rule="evenodd" fill-opacity="1"/>
<polyline clip-path="url(#clip642)" style="stroke:#000000; stroke-linecap:round; stroke-linejoin:round; stroke-width:4; stroke-opacity:1; fill:none" points="575.53,236.659 575.53,662.16 705.867,662.16 705.867,236.659 575.53,236.659 "/>
<path clip-path="url(#clip642)" d="M705.867 547.602 L705.867 662.16 L836.203 662.16 L836.203 547.602 L705.867 547.602 L705.867 547.602  Z" fill="#009af9" fill-rule="evenodd" fill-opacity="1"/>
<polyline clip-path="url(#clip642)" style="stroke:#000000; stroke-linecap:round; stroke-linejoin:round; stroke-width:4; stroke-opacity:1; fill:none" points="705.867,547.602 705.867,662.16 836.203,662.16 836.203,547.602 705.867,547.602 "/>
<path clip-path="url(#clip642)" d="M836.203 662.16 L836.203 662.16 L966.539 662.16 L966.539 662.16 L836.203 662.16 L836.203 662.16  Z" fill="#009af9" fill-rule="evenodd" fill-opacity="1"/>
<polyline clip-path="url(#clip642)" style="stroke:#000000; stroke-linecap:round; stroke-linejoin:round; stroke-width:4; stroke-opacity:1; fill:none" points="836.203,662.16 836.203,662.16 966.539,662.16 836.203,662.16 "/>
<path clip-path="url(#clip642)" d="M966.539 555.785 L966.539 662.16 L1096.88 662.16 L1096.88 555.785 L966.539 555.785 L966.539 555.785  Z" fill="#009af9" fill-rule="evenodd" fill-opacity="1"/>
<polyline clip-path="url(#clip642)" style="stroke:#000000; stroke-linecap:round; stroke-linejoin:round; stroke-width:4; stroke-opacity:1; fill:none" points="966.539,555.785 966.539,662.16 1096.88,662.16 1096.88,555.785 966.539,555.785 "/>
<circle clip-path="url(#clip642)" style="fill:#009af9; stroke:none; fill-opacity:0" cx="249.689" cy="506.689" r="2"/>
<circle clip-path="url(#clip642)" style="fill:#009af9; stroke:none; fill-opacity:0" cx="380.026" cy="220.293" r="2"/>
<circle clip-path="url(#clip642)" style="fill:#009af9; stroke:none; fill-opacity:0" cx="510.362" cy="97.5521" r="2"/>
<circle clip-path="url(#clip642)" style="fill:#009af9; stroke:none; fill-opacity:0" cx="640.699" cy="236.659" r="2"/>
<circle clip-path="url(#clip642)" style="fill:#009af9; stroke:none; fill-opacity:0" cx="771.035" cy="547.602" r="2"/>
<circle clip-path="url(#clip642)" style="fill:#009af9; stroke:none; fill-opacity:0" cx="901.371" cy="662.16" r="2"/>
<circle clip-path="url(#clip642)" style="fill:#009af9; stroke:none; fill-opacity:0" cx="1031.71" cy="555.785" r="2"/>
<polyline clip-path="url(#clip642)" style="stroke:#ff0000; stroke-linecap:round; stroke-linejoin:round; stroke-width:8; stroke-opacity:1; fill:none" stroke-dasharray="32, 20" points="556.871,1226.77 556.871,-467.056 "/>
<polyline clip-path="url(#clip642)" style="stroke:#ff0000; stroke-linecap:round; stroke-linejoin:round; stroke-width:6; stroke-opacity:1; fill:none" stroke-dasharray="24, 12, 3, 12" points="285.455,1226.77 285.455,-467.056 "/>
<polyline clip-path="url(#clip642)" style="stroke:#ff0000; stroke-linecap:round; stroke-linejoin:round; stroke-width:6; stroke-opacity:1; fill:none" stroke-dasharray="24, 12, 3, 12" points="1023.66,1226.77 1023.66,-467.056 "/>
<path clip-path="url(#clip640)" d="M1327.63 662.16 L2352.76 662.16 L2352.76 97.5521 L1327.63 97.5521  Z" fill="#ffffff" fill-rule="evenodd" fill-opacity="1"/>
<defs>
  <clipPath id="clip643">
    <rect x="1327" y="97" width="1026" height="566"/>
  </clipPath>
</defs>
<polyline clip-path="url(#clip643)" style="stroke:#000000; stroke-linecap:round; stroke-linejoin:round; stroke-width:2; stroke-opacity:0.1; fill:none" points="1384.02,662.16 1384.02,97.5521 "/>
<polyline clip-path="url(#clip643)" style="stroke:#000000; stroke-linecap:round; stroke-linejoin:round; stroke-width:2; stroke-opacity:0.1; fill:none" points="1566.49,662.16 1566.49,97.5521 "/>
<polyline clip-path="url(#clip643)" style="stroke:#000000; stroke-linecap:round; stroke-linejoin:round; stroke-width:2; stroke-opacity:0.1; fill:none" points="1748.96,662.16 1748.96,97.5521 "/>
<polyline clip-path="url(#clip643)" style="stroke:#000000; stroke-linecap:round; stroke-linejoin:round; stroke-width:2; stroke-opacity:0.1; fill:none" points="1931.43,662.16 1931.43,97.5521 "/>
<polyline clip-path="url(#clip643)" style="stroke:#000000; stroke-linecap:round; stroke-linejoin:round; stroke-width:2; stroke-opacity:0.1; fill:none" points="2113.9,662.16 2113.9,97.5521 "/>
<polyline clip-path="url(#clip643)" style="stroke:#000000; stroke-linecap:round; stroke-linejoin:round; stroke-width:2; stroke-opacity:0.1; fill:none" points="2296.37,662.16 2296.37,97.5521 "/>
<polyline clip-path="url(#clip643)" style="stroke:#000000; stroke-linecap:round; stroke-linejoin:round; stroke-width:2; stroke-opacity:0.1; fill:none" points="1327.63,662.16 2352.76,662.16 "/>
<polyline clip-path="url(#clip643)" style="stroke:#000000; stroke-linecap:round; stroke-linejoin:round; stroke-width:2; stroke-opacity:0.1; fill:none" points="1327.63,473.958 2352.76,473.958 "/>
<polyline clip-path="url(#clip643)" style="stroke:#000000; stroke-linecap:round; stroke-linejoin:round; stroke-width:2; stroke-opacity:0.1; fill:none" points="1327.63,285.755 2352.76,285.755 "/>
<polyline clip-path="url(#clip643)" style="stroke:#000000; stroke-linecap:round; stroke-linejoin:round; stroke-width:2; stroke-opacity:0.1; fill:none" points="1327.63,97.5521 2352.76,97.5521 "/>
<polyline clip-path="url(#clip640)" style="stroke:#000000; stroke-linecap:round; stroke-linejoin:round; stroke-width:4; stroke-opacity:1; fill:none" points="1327.63,662.16 2352.76,662.16 "/>
<polyline clip-path="url(#clip640)" style="stroke:#000000; stroke-linecap:round; stroke-linejoin:round; stroke-width:4; stroke-opacity:1; fill:none" points="1384.02,662.16 1384.02,643.263 "/>
<polyline clip-path="url(#clip640)" style="stroke:#000000; stroke-linecap:round; stroke-linejoin:round; stroke-width:4; stroke-opacity:1; fill:none" points="1566.49,662.16 1566.49,643.263 "/>
<polyline clip-path="url(#clip640)" style="stroke:#000000; stroke-linecap:round; stroke-linejoin:round; stroke-width:4; stroke-opacity:1; fill:none" points="1748.96,662.16 1748.96,643.263 "/>
<polyline clip-path="url(#clip640)" style="stroke:#000000; stroke-linecap:round; stroke-linejoin:round; stroke-width:4; stroke-opacity:1; fill:none" points="1931.43,662.16 1931.43,643.263 "/>
<polyline clip-path="url(#clip640)" style="stroke:#000000; stroke-linecap:round; stroke-linejoin:round; stroke-width:4; stroke-opacity:1; fill:none" points="2113.9,662.16 2113.9,643.263 "/>
<polyline clip-path="url(#clip640)" style="stroke:#000000; stroke-linecap:round; stroke-linejoin:round; stroke-width:4; stroke-opacity:1; fill:none" points="2296.37,662.16 2296.37,643.263 "/>
<path clip-path="url(#clip640)" d="M1330.17 733.893 Q1328.25 735.808 1329.17 738.668 Q1330.1 741.504 1333.88 745.285 Q1337.64 749.054 1340.49 749.987 Q1343.34 750.895 1345.26 748.98 Q1347.18 747.053 1346.26 744.217 Q1345.34 741.357 1341.57 737.588 Q1337.79 733.807 1334.94 732.898 Q1332.1 731.966 1330.17 733.893 M1328.2 731.929 Q1331.29 728.847 1335.35 729.67 Q1339.41 730.468 1344.05 735.108 Q1348.68 739.736 1349.49 743.812 Q1350.3 747.863 1347.22 750.944 Q1344.14 754.026 1340.08 753.228 Q1336.01 752.405 1331.38 747.777 Q1326.74 743.137 1325.93 739.086 Q1325.12 735.01 1328.2 731.929 Z" fill="#000000" fill-rule="nonzero" fill-opacity="1" /><path clip-path="url(#clip640)" d="M1354.44 736.778 L1357.03 734.187 L1360.15 737.306 L1357.56 739.896 L1354.44 736.778 Z" fill="#000000" fill-rule="nonzero" fill-opacity="1" /><path clip-path="url(#clip640)" d="M1363.18 714.509 Q1365.34 713.109 1367.54 713.318 Q1369.75 713.515 1371.51 715.282 Q1374.23 717.995 1373.85 721.347 Q1373.47 724.698 1370.03 728.135 Q1368.88 729.289 1367.41 730.284 Q1365.98 731.278 1364.22 732.125 L1361.83 729.731 Q1363.46 729.302 1365 728.381 Q1366.53 727.46 1367.87 726.122 Q1370.2 723.79 1370.5 721.654 Q1370.8 719.505 1369.05 717.75 Q1367.43 716.129 1365.38 716.363 Q1363.33 716.571 1361.3 718.597 L1359.16 720.733 L1357.13 718.695 L1359.36 716.461 Q1361.19 714.632 1361.44 712.938 Q1361.67 711.231 1360.29 709.856 Q1358.88 708.445 1357.13 708.702 Q1355.37 708.936 1353.51 710.802 Q1352.49 711.82 1351.54 713.208 Q1350.6 714.595 1349.66 716.461 L1347.45 714.251 Q1348.47 712.447 1349.5 711.022 Q1350.55 709.586 1351.64 708.494 Q1354.46 705.67 1357.4 705.314 Q1360.32 704.946 1362.5 707.131 Q1364.03 708.653 1364.21 710.581 Q1364.38 712.496 1363.18 714.509 Z" fill="#000000" fill-rule="nonzero" fill-opacity="1" /><path clip-path="url(#clip640)" d="M1370.15 693.91 Q1368.24 695.825 1369.16 698.685 Q1370.08 701.521 1373.86 705.302 Q1377.63 709.071 1380.48 710.004 Q1383.32 710.912 1385.24 708.997 Q1387.17 707.07 1386.25 704.234 Q1385.33 701.373 1381.56 697.605 Q1377.78 693.824 1374.93 692.915 Q1372.08 691.982 1370.15 693.91 M1368.19 691.945 Q1371.27 688.864 1375.33 689.687 Q1379.4 690.485 1384.04 695.125 Q1388.66 699.753 1389.47 703.829 Q1390.28 707.88 1387.2 710.961 Q1384.12 714.042 1380.06 713.244 Q1376 712.422 1371.37 707.794 Q1366.73 703.154 1365.92 699.102 Q1365.11 695.027 1368.19 691.945 Z" fill="#000000" fill-rule="nonzero" fill-opacity="1" /><path clip-path="url(#clip640)" d="M1513.29 733.242 Q1511.38 735.157 1512.3 738.018 Q1513.22 740.853 1517 744.634 Q1520.77 748.403 1523.61 749.336 Q1526.46 750.245 1528.38 748.33 Q1530.3 746.402 1529.38 743.566 Q1528.46 740.706 1524.69 736.937 Q1520.91 733.156 1518.07 732.248 Q1515.22 731.315 1513.29 733.242 M1511.33 731.278 Q1514.41 728.197 1518.47 729.019 Q1522.53 729.817 1527.17 734.458 Q1531.8 739.086 1532.61 743.161 Q1533.42 747.212 1530.34 750.294 Q1527.26 753.375 1523.2 752.577 Q1519.13 751.755 1514.51 747.126 Q1509.87 742.486 1509.06 738.435 Q1508.24 734.359 1511.33 731.278 Z" fill="#000000" fill-rule="nonzero" fill-opacity="1" /><path clip-path="url(#clip640)" d="M1537.56 736.127 L1540.15 733.537 L1543.27 736.655 L1540.68 739.245 L1537.56 736.127 Z" fill="#000000" fill-rule="nonzero" fill-opacity="1" /><path clip-path="url(#clip640)" d="M1546.3 713.858 Q1548.46 712.459 1550.66 712.667 Q1552.87 712.864 1554.64 714.632 Q1557.35 717.345 1556.97 720.696 Q1556.59 724.047 1553.15 727.485 Q1552 728.639 1550.54 729.633 Q1549.1 730.627 1547.34 731.474 L1544.95 729.081 Q1546.58 728.651 1548.12 727.73 Q1549.65 726.81 1550.99 725.471 Q1553.32 723.139 1553.62 721.003 Q1553.92 718.855 1552.17 717.099 Q1550.55 715.479 1548.5 715.712 Q1546.45 715.921 1544.42 717.946 L1542.29 720.082 L1540.25 718.044 L1542.48 715.81 Q1544.31 713.981 1544.56 712.287 Q1544.79 710.581 1543.42 709.206 Q1542 707.794 1540.25 708.052 Q1538.49 708.285 1536.63 710.151 Q1535.61 711.17 1534.66 712.557 Q1533.72 713.944 1532.78 715.81 L1530.57 713.6 Q1531.59 711.796 1532.63 710.372 Q1533.67 708.936 1534.76 707.843 Q1537.58 705.019 1540.52 704.663 Q1543.44 704.295 1545.63 706.48 Q1547.15 708.003 1547.33 709.93 Q1547.5 711.845 1546.3 713.858 Z" fill="#000000" fill-rule="nonzero" fill-opacity="1" /><path clip-path="url(#clip640)" d="M1563.01 712.741 L1567.06 708.69 L1553.08 694.708 L1549.55 699.999 L1547.3 697.74 L1550.79 692.473 L1553.27 689.994 L1569.51 706.235 L1573.57 702.184 L1575.65 704.271 L1565.1 714.828 L1563.01 712.741 Z" fill="#000000" fill-rule="nonzero" fill-opacity="1" /><path clip-path="url(#clip640)" d="M1695.96 733.046 Q1694.04 734.961 1694.96 737.821 Q1695.88 740.657 1699.66 744.438 Q1703.43 748.207 1706.28 749.14 Q1709.13 750.048 1711.04 748.133 Q1712.97 746.206 1712.05 743.37 Q1711.13 740.51 1707.36 736.741 Q1703.58 732.96 1700.73 732.051 Q1697.88 731.118 1695.96 733.046 M1693.99 731.082 Q1697.07 728 1701.14 728.823 Q1705.2 729.621 1709.84 734.261 Q1714.47 738.889 1715.28 742.965 Q1716.09 747.016 1713.01 750.097 Q1709.93 753.179 1705.86 752.381 Q1701.8 751.558 1697.17 746.93 Q1692.53 742.29 1691.72 738.239 Q1690.91 734.163 1693.99 731.082 Z" fill="#000000" fill-rule="nonzero" fill-opacity="1" /><path clip-path="url(#clip640)" d="M1720.23 735.931 L1722.82 733.34 L1725.94 736.459 L1723.35 739.049 L1720.23 735.931 Z" fill="#000000" fill-rule="nonzero" fill-opacity="1" /><path clip-path="url(#clip640)" d="M1728.97 713.662 Q1731.13 712.262 1733.33 712.471 Q1735.54 712.667 1737.3 714.435 Q1740.02 717.148 1739.64 720.5 Q1739.26 723.851 1735.82 727.288 Q1734.66 728.442 1733.2 729.437 Q1731.77 730.431 1730.01 731.278 L1727.62 728.884 Q1729.25 728.455 1730.78 727.534 Q1732.32 726.613 1733.66 725.275 Q1735.99 722.943 1736.28 720.807 Q1736.59 718.658 1734.84 716.903 Q1733.22 715.282 1731.17 715.516 Q1729.12 715.724 1727.09 717.75 L1724.95 719.886 L1722.92 717.848 L1725.15 715.614 Q1726.98 713.785 1727.22 712.091 Q1727.46 710.384 1726.08 709.009 Q1724.67 707.597 1722.92 707.855 Q1721.16 708.088 1719.29 709.954 Q1718.28 710.973 1717.33 712.361 Q1716.39 713.748 1715.45 715.614 L1713.24 713.404 Q1714.26 711.599 1715.29 710.175 Q1716.34 708.739 1717.43 707.647 Q1720.25 704.823 1723.19 704.467 Q1726.11 704.099 1728.29 706.284 Q1729.82 707.806 1730 709.733 Q1730.17 711.649 1728.97 713.662 Z" fill="#000000" fill-rule="nonzero" fill-opacity="1" /><path clip-path="url(#clip640)" d="M1747.38 710.838 L1756.04 702.184 L1758.12 704.271 L1746.49 715.908 L1744.4 713.821 Q1744.35 710.949 1744.33 706.063 Q1744.3 701.153 1744.21 699.814 Q1744.07 697.286 1743.61 695.898 Q1743.16 694.487 1742.26 693.59 Q1740.8 692.13 1738.85 692.24 Q1736.91 692.338 1735.27 693.983 Q1734.1 695.149 1733.2 696.856 Q1732.32 698.55 1731.67 700.846 L1729.16 698.341 Q1730.06 696.242 1731.05 694.634 Q1732.05 693.026 1733.13 691.945 Q1735.98 689.097 1739.1 688.827 Q1742.21 688.557 1744.6 690.939 Q1745.72 692.068 1746.31 693.517 Q1746.9 694.941 1747.16 697.433 Q1747.21 698.096 1747.27 701.447 Q1747.32 704.786 1747.38 710.838 Z" fill="#000000" fill-rule="nonzero" fill-opacity="1" /><path clip-path="url(#clip640)" d="M1877.93 733.549 Q1876.01 735.464 1876.93 738.325 Q1877.85 741.16 1881.63 744.941 Q1885.4 748.71 1888.25 749.643 Q1891.1 750.552 1893.01 748.636 Q1894.94 746.709 1894.02 743.873 Q1893.1 741.013 1889.33 737.244 Q1885.55 733.463 1882.7 732.555 Q1879.85 731.622 1877.93 733.549 M1875.96 731.585 Q1879.04 728.504 1883.11 729.326 Q1887.17 730.124 1891.81 734.764 Q1896.44 739.393 1897.25 743.468 Q1898.06 747.519 1894.98 750.601 Q1891.9 753.682 1887.83 752.884 Q1883.77 752.061 1879.14 747.433 Q1874.5 742.793 1873.69 738.742 Q1872.88 734.666 1875.96 731.585 Z" fill="#000000" fill-rule="nonzero" fill-opacity="1" /><path clip-path="url(#clip640)" d="M1902.2 736.434 L1904.79 733.844 L1907.9 736.962 L1905.31 739.552 L1902.2 736.434 Z" fill="#000000" fill-rule="nonzero" fill-opacity="1" /><path clip-path="url(#clip640)" d="M1910.94 714.165 Q1913.1 712.766 1915.29 712.974 Q1917.5 713.171 1919.27 714.939 Q1921.98 717.652 1921.6 721.003 Q1921.22 724.354 1917.79 727.792 Q1916.63 728.946 1915.17 729.94 Q1913.73 730.934 1911.98 731.781 L1909.59 729.388 Q1911.22 728.958 1912.75 728.037 Q1914.29 727.116 1915.63 725.778 Q1917.96 723.446 1918.25 721.31 Q1918.56 719.162 1916.8 717.406 Q1915.18 715.786 1913.13 716.019 Q1911.08 716.228 1909.06 718.253 L1906.92 720.389 L1904.88 718.351 L1907.12 716.117 Q1908.95 714.288 1909.19 712.594 Q1909.43 710.887 1908.05 709.513 Q1906.64 708.101 1904.88 708.359 Q1903.13 708.592 1901.26 710.458 Q1900.24 711.477 1899.3 712.864 Q1898.35 714.251 1897.42 716.117 L1895.21 713.907 Q1896.23 712.103 1897.26 710.679 Q1898.3 709.242 1899.4 708.15 Q1902.22 705.326 1905.15 704.97 Q1908.08 704.602 1910.26 706.787 Q1911.78 708.309 1911.97 710.237 Q1912.14 712.152 1910.94 714.165 Z" fill="#000000" fill-rule="nonzero" fill-opacity="1" /><path clip-path="url(#clip640)" d="M1926.93 698.169 Q1929.09 696.77 1931.29 696.979 Q1933.5 697.175 1935.27 698.943 Q1937.98 701.656 1937.6 705.007 Q1937.22 708.359 1933.78 711.796 Q1932.63 712.95 1931.17 713.944 Q1929.73 714.939 1927.97 715.786 L1925.58 713.392 Q1927.21 712.962 1928.75 712.041 Q1930.28 711.121 1931.62 709.783 Q1933.95 707.45 1934.25 705.314 Q1934.55 703.166 1932.8 701.41 Q1931.18 699.79 1929.13 700.023 Q1927.08 700.232 1925.05 702.257 L1922.92 704.393 L1920.88 702.356 L1923.11 700.121 Q1924.94 698.292 1925.19 696.598 Q1925.42 694.892 1924.05 693.517 Q1922.63 692.105 1920.88 692.363 Q1919.12 692.596 1917.26 694.462 Q1916.24 695.481 1915.29 696.868 Q1914.35 698.255 1913.42 700.121 L1911.21 697.912 Q1912.22 696.107 1913.26 694.683 Q1914.3 693.247 1915.39 692.154 Q1918.22 689.331 1921.15 688.975 Q1924.07 688.606 1926.26 690.791 Q1927.78 692.314 1927.96 694.241 Q1928.13 696.156 1926.93 698.169 Z" fill="#000000" fill-rule="nonzero" fill-opacity="1" /><path clip-path="url(#clip640)" d="M2059.79 734.151 Q2057.88 736.066 2058.8 738.926 Q2059.72 741.762 2063.5 745.543 Q2067.27 749.312 2070.12 750.245 Q2072.97 751.153 2074.88 749.238 Q2076.81 747.311 2075.89 744.475 Q2074.97 741.615 2071.2 737.846 Q2067.42 734.065 2064.57 733.156 Q2061.72 732.223 2059.79 734.151 M2057.83 732.186 Q2060.91 729.105 2064.98 729.928 Q2069.04 730.726 2073.68 735.366 Q2078.31 739.994 2079.12 744.07 Q2079.93 748.121 2076.85 751.202 Q2073.76 754.283 2069.7 753.485 Q2065.64 752.663 2061.01 748.035 Q2056.37 743.395 2055.56 739.343 Q2054.75 735.268 2057.83 732.186 Z" fill="#000000" fill-rule="nonzero" fill-opacity="1" /><path clip-path="url(#clip640)" d="M2084.06 737.036 L2086.65 734.445 L2089.77 737.563 L2087.18 740.154 L2084.06 737.036 Z" fill="#000000" fill-rule="nonzero" fill-opacity="1" /><path clip-path="url(#clip640)" d="M2092.81 714.767 Q2094.97 713.367 2097.16 713.576 Q2099.37 713.772 2101.14 715.54 Q2103.85 718.253 2103.47 721.604 Q2103.09 724.956 2099.66 728.393 Q2098.5 729.547 2097.04 730.541 Q2095.6 731.536 2093.85 732.383 L2091.45 729.989 Q2093.09 729.559 2094.62 728.639 Q2096.16 727.718 2097.49 726.38 Q2099.83 724.047 2100.12 721.911 Q2100.43 719.763 2098.67 718.008 Q2097.05 716.387 2095 716.62 Q2092.95 716.829 2090.93 718.855 L2088.79 720.991 L2086.75 718.953 L2088.99 716.719 Q2090.82 714.889 2091.06 713.195 Q2091.3 711.489 2089.92 710.114 Q2088.51 708.702 2086.75 708.96 Q2085 709.193 2083.13 711.059 Q2082.11 712.078 2081.17 713.465 Q2080.22 714.853 2079.29 716.719 L2077.08 714.509 Q2078.1 712.704 2079.13 711.28 Q2080.17 709.844 2081.27 708.751 Q2084.09 705.928 2087.02 705.572 Q2089.94 705.204 2092.13 707.389 Q2093.65 708.911 2093.84 710.838 Q2094.01 712.753 2092.81 714.767 Z" fill="#000000" fill-rule="nonzero" fill-opacity="1" /><path clip-path="url(#clip640)" d="M2101.82 693.185 L2105.34 709.23 L2111.6 702.969 L2101.82 693.185 M2099 691.675 L2102.12 688.557 L2114.07 700.502 L2116.68 697.887 L2118.74 699.949 L2116.13 702.564 L2120.45 706.885 L2117.98 709.353 L2113.66 705.032 L2105.39 713.306 L2102.99 710.912 L2099 691.675 Z" fill="#000000" fill-rule="nonzero" fill-opacity="1" /><path clip-path="url(#clip640)" d="M2243.05 733.365 Q2241.14 735.28 2242.06 738.14 Q2242.98 740.976 2246.76 744.757 Q2250.53 748.526 2253.38 749.459 Q2256.22 750.367 2258.14 748.452 Q2260.07 746.525 2259.15 743.689 Q2258.22 740.829 2254.46 737.06 Q2250.67 733.279 2247.83 732.371 Q2244.98 731.438 2243.05 733.365 M2241.09 731.401 Q2244.17 728.32 2248.23 729.142 Q2252.3 729.94 2256.94 734.58 Q2261.56 739.208 2262.37 743.284 Q2263.18 747.335 2260.1 750.416 Q2257.02 753.498 2252.96 752.7 Q2248.89 751.877 2244.27 747.249 Q2239.63 742.609 2238.82 738.558 Q2238.01 734.482 2241.09 731.401 Z" fill="#000000" fill-rule="nonzero" fill-opacity="1" /><path clip-path="url(#clip640)" d="M2267.32 736.25 L2269.91 733.66 L2273.03 736.778 L2270.44 739.368 L2267.32 736.25 Z" fill="#000000" fill-rule="nonzero" fill-opacity="1" /><path clip-path="url(#clip640)" d="M2276.06 713.981 Q2278.22 712.582 2280.42 712.79 Q2282.63 712.987 2284.4 714.754 Q2287.11 717.467 2286.73 720.819 Q2286.35 724.17 2282.91 727.607 Q2281.76 728.761 2280.3 729.756 Q2278.86 730.75 2277.11 731.597 L2274.71 729.203 Q2276.34 728.774 2277.88 727.853 Q2279.41 726.932 2280.75 725.594 Q2283.08 723.262 2283.38 721.126 Q2283.69 718.977 2281.93 717.222 Q2280.31 715.601 2278.26 715.835 Q2276.21 716.043 2274.18 718.069 L2272.05 720.205 L2270.01 718.167 L2272.24 715.933 Q2274.07 714.104 2274.32 712.41 Q2274.55 710.703 2273.18 709.328 Q2271.76 707.917 2270.01 708.174 Q2268.25 708.408 2266.39 710.274 Q2265.37 711.293 2264.42 712.68 Q2263.48 714.067 2262.55 715.933 L2260.34 713.723 Q2261.35 711.919 2262.39 710.495 Q2263.43 709.058 2264.52 707.966 Q2267.35 705.142 2270.28 704.786 Q2273.2 704.418 2275.39 706.603 Q2276.91 708.125 2277.09 710.053 Q2277.26 711.968 2276.06 713.981 Z" fill="#000000" fill-rule="nonzero" fill-opacity="1" /><path clip-path="url(#clip640)" d="M2276.12 697.028 L2285.86 687.293 L2287.94 689.38 L2280.48 696.844 L2284.97 701.337 Q2285.33 700.612 2285.78 699.986 Q2286.23 699.348 2286.77 698.808 Q2289.84 695.739 2293.31 695.628 Q2296.78 695.518 2299.66 698.39 Q2302.61 701.349 2302.42 704.835 Q2302.21 708.309 2298.86 711.661 Q2297.7 712.815 2296.3 713.821 Q2294.92 714.816 2293.25 715.7 L2290.76 713.208 Q2292.46 712.704 2293.94 711.82 Q2295.41 710.937 2296.72 709.623 Q2298.85 707.499 2298.97 705.142 Q2299.09 702.785 2297.18 700.87 Q2295.26 698.955 2292.9 699.078 Q2290.55 699.201 2288.42 701.324 Q2287.43 702.319 2286.66 703.534 Q2285.89 704.737 2285.33 706.235 L2276.12 697.028 Z" fill="#000000" fill-rule="nonzero" fill-opacity="1" /><polyline clip-path="url(#clip640)" style="stroke:#000000; stroke-linecap:round; stroke-linejoin:round; stroke-width:4; stroke-opacity:1; fill:none" points="1327.63,662.16 1327.63,97.5521 "/>
<polyline clip-path="url(#clip640)" style="stroke:#000000; stroke-linecap:round; stroke-linejoin:round; stroke-width:4; stroke-opacity:1; fill:none" points="1327.63,662.16 1346.53,662.16 "/>
<polyline clip-path="url(#clip640)" style="stroke:#000000; stroke-linecap:round; stroke-linejoin:round; stroke-width:4; stroke-opacity:1; fill:none" points="1327.63,473.958 1346.53,473.958 "/>
<polyline clip-path="url(#clip640)" style="stroke:#000000; stroke-linecap:round; stroke-linejoin:round; stroke-width:4; stroke-opacity:1; fill:none" points="1327.63,285.755 1346.53,285.755 "/>
<polyline clip-path="url(#clip640)" style="stroke:#000000; stroke-linecap:round; stroke-linejoin:round; stroke-width:4; stroke-opacity:1; fill:none" points="1327.63,97.5521 1346.53,97.5521 "/>
<path clip-path="url(#clip640)" d="M1282.68 651.509 Q1279.97 651.509 1278.6 654.183 Q1277.24 656.839 1277.24 662.186 Q1277.24 667.516 1278.6 670.19 Q1279.97 672.846 1282.68 672.846 Q1285.4 672.846 1286.76 670.19 Q1288.13 667.516 1288.13 662.186 Q1288.13 656.839 1286.76 654.183 Q1285.4 651.509 1282.68 651.509 M1282.68 648.732 Q1287.03 648.732 1289.33 652.186 Q1291.63 655.624 1291.63 662.186 Q1291.63 668.732 1289.33 672.186 Q1287.03 675.624 1282.68 675.624 Q1278.32 675.624 1276.01 672.186 Q1273.72 668.732 1273.72 662.186 Q1273.72 655.624 1276.01 652.186 Q1278.32 648.732 1282.68 648.732 Z" fill="#000000" fill-rule="nonzero" fill-opacity="1" /><path clip-path="url(#clip640)" d="M1256.32 483.966 L1268.56 483.966 L1268.56 486.918 L1252.1 486.918 L1252.1 483.966 Q1254.1 481.9 1257.54 478.428 Q1260.99 474.939 1261.88 473.932 Q1263.56 472.039 1264.22 470.737 Q1264.9 469.418 1264.9 468.15 Q1264.9 466.084 1263.44 464.782 Q1262 463.48 1259.67 463.48 Q1258.02 463.48 1256.18 464.053 Q1254.36 464.626 1252.28 465.789 L1252.28 462.248 Q1254.39 461.397 1256.24 460.963 Q1258.08 460.529 1259.6 460.529 Q1263.63 460.529 1266.03 462.543 Q1268.42 464.557 1268.42 467.925 Q1268.42 469.522 1267.81 470.963 Q1267.22 472.386 1265.64 474.331 Q1265.21 474.834 1262.88 477.248 Q1260.56 479.643 1256.32 483.966 Z" fill="#000000" fill-rule="nonzero" fill-opacity="1" /><path clip-path="url(#clip640)" d="M1275.96 460.998 L1289.72 460.998 L1289.72 463.949 L1279.17 463.949 L1279.17 470.303 Q1279.93 470.043 1280.7 469.921 Q1281.46 469.782 1282.22 469.782 Q1286.56 469.782 1289.1 472.161 Q1291.63 474.539 1291.63 478.602 Q1291.63 482.786 1289.03 485.112 Q1286.43 487.421 1281.69 487.421 Q1280.05 487.421 1278.35 487.143 Q1276.67 486.866 1274.86 486.31 L1274.86 482.786 Q1276.43 483.636 1278.09 484.053 Q1279.76 484.47 1281.62 484.47 Q1284.62 484.47 1286.37 482.89 Q1288.13 481.31 1288.13 478.602 Q1288.13 475.893 1286.37 474.314 Q1284.62 472.734 1281.62 472.734 Q1280.21 472.734 1278.8 473.046 Q1277.42 473.359 1275.96 474.018 L1275.96 460.998 Z" fill="#000000" fill-rule="nonzero" fill-opacity="1" /><path clip-path="url(#clip640)" d="M1252.59 272.795 L1266.36 272.795 L1266.36 275.746 L1255.8 275.746 L1255.8 282.1 Q1256.57 281.84 1257.33 281.718 Q1258.09 281.58 1258.86 281.58 Q1263.2 281.58 1265.73 283.958 Q1268.27 286.336 1268.27 290.399 Q1268.27 294.583 1265.66 296.909 Q1263.06 299.218 1258.32 299.218 Q1256.69 299.218 1254.99 298.941 Q1253.3 298.663 1251.5 298.107 L1251.5 294.583 Q1253.06 295.434 1254.72 295.85 Q1256.39 296.267 1258.25 296.267 Q1261.25 296.267 1263.01 294.687 Q1264.76 293.107 1264.76 290.399 Q1264.76 287.691 1263.01 286.111 Q1261.25 284.531 1258.25 284.531 Q1256.84 284.531 1255.44 284.843 Q1254.05 285.156 1252.59 285.816 L1252.59 272.795 Z" fill="#000000" fill-rule="nonzero" fill-opacity="1" /><path clip-path="url(#clip640)" d="M1282.68 275.104 Q1279.97 275.104 1278.6 277.777 Q1277.24 280.434 1277.24 285.781 Q1277.24 291.111 1278.6 293.784 Q1279.97 296.441 1282.68 296.441 Q1285.4 296.441 1286.76 293.784 Q1288.13 291.111 1288.13 285.781 Q1288.13 280.434 1286.76 277.777 Q1285.4 275.104 1282.68 275.104 M1282.68 272.326 Q1287.03 272.326 1289.33 275.781 Q1291.63 279.218 1291.63 285.781 Q1291.63 292.326 1289.33 295.781 Q1287.03 299.218 1282.68 299.218 Q1278.32 299.218 1276.01 295.781 Q1273.72 292.326 1273.72 285.781 Q1273.72 279.218 1276.01 275.781 Q1278.32 272.326 1282.68 272.326 Z" fill="#000000" fill-rule="nonzero" fill-opacity="1" /><path clip-path="url(#clip640)" d="M1252.42 84.5921 L1269.08 84.5921 L1269.08 86.0852 L1259.67 110.512 L1256.01 110.512 L1264.86 87.5435 L1252.42 87.5435 L1252.42 84.5921 Z" fill="#000000" fill-rule="nonzero" fill-opacity="1" /><path clip-path="url(#clip640)" d="M1275.96 84.5921 L1289.72 84.5921 L1289.72 87.5435 L1279.17 87.5435 L1279.17 93.8976 Q1279.93 93.6372 1280.7 93.5157 Q1281.46 93.3768 1282.22 93.3768 Q1286.56 93.3768 1289.1 95.7553 Q1291.63 98.1337 1291.63 102.196 Q1291.63 106.38 1289.03 108.707 Q1286.43 111.016 1281.69 111.016 Q1280.05 111.016 1278.35 110.738 Q1276.67 110.46 1274.86 109.904 L1274.86 106.38 Q1276.43 107.231 1278.09 107.648 Q1279.76 108.064 1281.62 108.064 Q1284.62 108.064 1286.37 106.484 Q1288.13 104.905 1288.13 102.196 Q1288.13 99.4879 1286.37 97.908 Q1284.62 96.3282 1281.62 96.3282 Q1280.21 96.3282 1278.8 96.6407 Q1277.42 96.9532 1275.96 97.6129 L1275.96 84.5921 Z" fill="#000000" fill-rule="nonzero" fill-opacity="1" /><path clip-path="url(#clip640)" d="M1339.53 18.9258 Q1336.01 18.9258 1334.12 21.4721 Q1332.12 24.1341 1332.12 28.5323 Q1332.12 33.185 1334.09 35.8702 Q1336.08 38.5322 1339.53 38.5322 Q1342.94 38.5322 1344.93 35.847 Q1346.92 33.1619 1346.92 28.5323 Q1346.92 24.2962 1344.93 21.4721 Q1343.1 18.9258 1339.53 18.9258 M1339.53 15.5462 L1353.68 15.5462 L1353.68 19.8054 L1348.91 19.8054 Q1351.43 23.4165 1351.43 28.5323 Q1351.43 34.898 1348.26 38.5091 Q1345.09 42.1433 1339.53 42.1433 Q1333.95 42.1433 1330.81 38.5091 Q1327.63 34.898 1327.63 28.5323 Q1327.63 22.1203 1330.81 18.5323 Q1333.42 15.5462 1339.53 15.5462 Z" fill="#000000" fill-rule="nonzero" fill-opacity="1" /><path clip-path="url(#clip640)" d="M1377.84 19.6666 Q1376.99 19.3656 1376.13 19.1342 Q1373.84 18.5323 1371.38 18.5323 Q1367.15 18.5323 1364.79 20.824 Q1362.59 22.9536 1362.17 26.8656 L1377.84 26.8656 L1377.84 30.1989 L1362.17 30.1989 Q1362.59 34.1109 1364.79 36.2405 Q1367.15 38.5322 1371.38 38.5322 Q1374.35 38.5322 1376.13 37.9304 L1377.84 37.3517 L1377.84 41.2174 L1376.01 41.634 Q1373.61 42.1433 1371.13 42.1433 Q1364.93 42.1433 1361.31 38.5322 Q1357.68 34.9211 1357.68 28.5323 Q1357.68 22.1434 1361.31 18.5323 Q1364.93 14.9212 1371.13 14.9212 Q1373.47 14.9212 1376.01 15.4305 Q1376.94 15.6157 1377.84 15.8934 L1377.84 19.6666 Z" fill="#000000" fill-rule="nonzero" fill-opacity="1" /><path clip-path="url(#clip643)" d="M1384.02 564.295 L1384.02 662.16 L1475.25 662.16 L1475.25 564.295 L1384.02 564.295 L1384.02 564.295  Z" fill="#009af9" fill-rule="evenodd" fill-opacity="1"/>
<polyline clip-path="url(#clip643)" style="stroke:#000000; stroke-linecap:round; stroke-linejoin:round; stroke-width:4; stroke-opacity:1; fill:none" points="1384.02,564.295 1384.02,662.16 1475.25,662.16 1475.25,564.295 1384.02,564.295 "/>
<path clip-path="url(#clip643)" d="M1475.25 662.16 L1475.25 662.16 L1566.49 662.16 L1566.49 662.16 L1475.25 662.16 L1475.25 662.16  Z" fill="#009af9" fill-rule="evenodd" fill-opacity="1"/>
<polyline clip-path="url(#clip643)" style="stroke:#000000; stroke-linecap:round; stroke-linejoin:round; stroke-width:4; stroke-opacity:1; fill:none" points="1475.25,662.16 1475.25,662.16 1566.49,662.16 1475.25,662.16 "/>
<path clip-path="url(#clip643)" d="M1566.49 556.767 L1566.49 662.16 L1657.72 662.16 L1657.72 556.767 L1566.49 556.767 L1566.49 556.767  Z" fill="#009af9" fill-rule="evenodd" fill-opacity="1"/>
<polyline clip-path="url(#clip643)" style="stroke:#000000; stroke-linecap:round; stroke-linejoin:round; stroke-width:4; stroke-opacity:1; fill:none" points="1566.49,556.767 1566.49,662.16 1657.72,662.16 1657.72,556.767 1566.49,556.767 "/>
<path clip-path="url(#clip643)" d="M1657.72 616.992 L1657.72 662.16 L1748.96 662.16 L1748.96 616.992 L1657.72 616.992 L1657.72 616.992  Z" fill="#009af9" fill-rule="evenodd" fill-opacity="1"/>
<polyline clip-path="url(#clip643)" style="stroke:#000000; stroke-linecap:round; stroke-linejoin:round; stroke-width:4; stroke-opacity:1; fill:none" points="1657.72,616.992 1657.72,662.16 1748.96,662.16 1748.96,616.992 1657.72,616.992 "/>
<path clip-path="url(#clip643)" d="M1748.96 97.5521 L1748.96 662.16 L1840.2 662.16 L1840.2 97.5521 L1748.96 97.5521 L1748.96 97.5521  Z" fill="#009af9" fill-rule="evenodd" fill-opacity="1"/>
<polyline clip-path="url(#clip643)" style="stroke:#000000; stroke-linecap:round; stroke-linejoin:round; stroke-width:4; stroke-opacity:1; fill:none" points="1748.96,97.5521 1748.96,662.16 1840.2,662.16 1840.2,97.5521 1748.96,97.5521 "/>
<path clip-path="url(#clip643)" d="M1840.2 383.62 L1840.2 662.16 L1931.43 662.16 L1931.43 383.62 L1840.2 383.62 L1840.2 383.62  Z" fill="#009af9" fill-rule="evenodd" fill-opacity="1"/>
<polyline clip-path="url(#clip643)" style="stroke:#000000; stroke-linecap:round; stroke-linejoin:round; stroke-width:4; stroke-opacity:1; fill:none" points="1840.2,383.62 1840.2,662.16 1931.43,662.16 1931.43,383.62 1840.2,383.62 "/>
<path clip-path="url(#clip643)" d="M1931.43 511.598 L1931.43 662.16 L2022.67 662.16 L2022.67 511.598 L1931.43 511.598 L1931.43 511.598  Z" fill="#009af9" fill-rule="evenodd" fill-opacity="1"/>
<polyline clip-path="url(#clip643)" style="stroke:#000000; stroke-linecap:round; stroke-linejoin:round; stroke-width:4; stroke-opacity:1; fill:none" points="1931.43,511.598 1931.43,662.16 2022.67,662.16 2022.67,511.598 1931.43,511.598 "/>
<path clip-path="url(#clip643)" d="M2022.67 519.126 L2022.67 662.16 L2113.9 662.16 L2113.9 519.126 L2022.67 519.126 L2022.67 519.126  Z" fill="#009af9" fill-rule="evenodd" fill-opacity="1"/>
<polyline clip-path="url(#clip643)" style="stroke:#000000; stroke-linecap:round; stroke-linejoin:round; stroke-width:4; stroke-opacity:1; fill:none" points="2022.67,519.126 2022.67,662.16 2113.9,662.16 2113.9,519.126 2022.67,519.126 "/>
<path clip-path="url(#clip643)" d="M2113.9 443.845 L2113.9 662.16 L2205.14 662.16 L2205.14 443.845 L2113.9 443.845 L2113.9 443.845  Z" fill="#009af9" fill-rule="evenodd" fill-opacity="1"/>
<polyline clip-path="url(#clip643)" style="stroke:#000000; stroke-linecap:round; stroke-linejoin:round; stroke-width:4; stroke-opacity:1; fill:none" points="2113.9,443.845 2113.9,662.16 2205.14,662.16 2205.14,443.845 2113.9,443.845 "/>
<path clip-path="url(#clip643)" d="M2205.14 601.935 L2205.14 662.16 L2296.37 662.16 L2296.37 601.935 L2205.14 601.935 L2205.14 601.935  Z" fill="#009af9" fill-rule="evenodd" fill-opacity="1"/>
<polyline clip-path="url(#clip643)" style="stroke:#000000; stroke-linecap:round; stroke-linejoin:round; stroke-width:4; stroke-opacity:1; fill:none" points="2205.14,601.935 2205.14,662.16 2296.37,662.16 2296.37,601.935 2205.14,601.935 "/>
<circle clip-path="url(#clip643)" style="fill:#009af9; stroke:none; fill-opacity:0" cx="1429.64" cy="564.295" r="2"/>
<circle clip-path="url(#clip643)" style="fill:#009af9; stroke:none; fill-opacity:0" cx="1520.87" cy="662.16" r="2"/>
<circle clip-path="url(#clip643)" style="fill:#009af9; stroke:none; fill-opacity:0" cx="1612.11" cy="556.767" r="2"/>
<circle clip-path="url(#clip643)" style="fill:#009af9; stroke:none; fill-opacity:0" cx="1703.34" cy="616.992" r="2"/>
<circle clip-path="url(#clip643)" style="fill:#009af9; stroke:none; fill-opacity:0" cx="1794.58" cy="97.5521" r="2"/>
<circle clip-path="url(#clip643)" style="fill:#009af9; stroke:none; fill-opacity:0" cx="1885.81" cy="383.62" r="2"/>
<circle clip-path="url(#clip643)" style="fill:#009af9; stroke:none; fill-opacity:0" cx="1977.05" cy="511.598" r="2"/>
<circle clip-path="url(#clip643)" style="fill:#009af9; stroke:none; fill-opacity:0" cx="2068.28" cy="519.126" r="2"/>
<circle clip-path="url(#clip643)" style="fill:#009af9; stroke:none; fill-opacity:0" cx="2159.52" cy="443.845" r="2"/>
<circle clip-path="url(#clip643)" style="fill:#009af9; stroke:none; fill-opacity:0" cx="2250.75" cy="601.935" r="2"/>
<polyline clip-path="url(#clip643)" style="stroke:#ff0000; stroke-linecap:round; stroke-linejoin:round; stroke-width:8; stroke-opacity:1; fill:none" stroke-dasharray="32, 20" points="1857.92,1226.77 1857.92,-467.056 "/>
<polyline clip-path="url(#clip643)" style="stroke:#ff0000; stroke-linecap:round; stroke-linejoin:round; stroke-width:6; stroke-opacity:1; fill:none" stroke-dasharray="24, 12, 3, 12" points="1408.2,1226.77 1408.2,-467.056 "/>
<polyline clip-path="url(#clip643)" style="stroke:#ff0000; stroke-linecap:round; stroke-linejoin:round; stroke-width:6; stroke-opacity:1; fill:none" stroke-dasharray="24, 12, 3, 12" points="2213.44,1226.77 2213.44,-467.056 "/>
<path clip-path="url(#clip640)" d="M128.138 1456.91 L1153.26 1456.91 L1153.26 892.306 L128.138 892.306  Z" fill="#ffffff" fill-rule="evenodd" fill-opacity="1"/>
<defs>
  <clipPath id="clip644">
    <rect x="128" y="892" width="1026" height="566"/>
  </clipPath>
</defs>
<polyline clip-path="url(#clip644)" style="stroke:#000000; stroke-linecap:round; stroke-linejoin:round; stroke-width:2; stroke-opacity:0.1; fill:none" points="184.521,1456.91 184.521,892.306 "/>
<polyline clip-path="url(#clip644)" style="stroke:#000000; stroke-linecap:round; stroke-linejoin:round; stroke-width:2; stroke-opacity:0.1; fill:none" points="391.875,1456.91 391.875,892.306 "/>
<polyline clip-path="url(#clip644)" style="stroke:#000000; stroke-linecap:round; stroke-linejoin:round; stroke-width:2; stroke-opacity:0.1; fill:none" points="599.228,1456.91 599.228,892.306 "/>
<polyline clip-path="url(#clip644)" style="stroke:#000000; stroke-linecap:round; stroke-linejoin:round; stroke-width:2; stroke-opacity:0.1; fill:none" points="806.581,1456.91 806.581,892.306 "/>
<polyline clip-path="url(#clip644)" style="stroke:#000000; stroke-linecap:round; stroke-linejoin:round; stroke-width:2; stroke-opacity:0.1; fill:none" points="1013.93,1456.91 1013.93,892.306 "/>
<polyline clip-path="url(#clip644)" style="stroke:#000000; stroke-linecap:round; stroke-linejoin:round; stroke-width:2; stroke-opacity:0.1; fill:none" points="128.138,1456.91 1153.26,1456.91 "/>
<polyline clip-path="url(#clip644)" style="stroke:#000000; stroke-linecap:round; stroke-linejoin:round; stroke-width:2; stroke-opacity:0.1; fill:none" points="128.138,1322.48 1153.26,1322.48 "/>
<polyline clip-path="url(#clip644)" style="stroke:#000000; stroke-linecap:round; stroke-linejoin:round; stroke-width:2; stroke-opacity:0.1; fill:none" points="128.138,1188.05 1153.26,1188.05 "/>
<polyline clip-path="url(#clip644)" style="stroke:#000000; stroke-linecap:round; stroke-linejoin:round; stroke-width:2; stroke-opacity:0.1; fill:none" points="128.138,1053.62 1153.26,1053.62 "/>
<polyline clip-path="url(#clip644)" style="stroke:#000000; stroke-linecap:round; stroke-linejoin:round; stroke-width:2; stroke-opacity:0.1; fill:none" points="128.138,919.192 1153.26,919.192 "/>
<polyline clip-path="url(#clip640)" style="stroke:#000000; stroke-linecap:round; stroke-linejoin:round; stroke-width:4; stroke-opacity:1; fill:none" points="128.138,1456.91 1153.26,1456.91 "/>
<polyline clip-path="url(#clip640)" style="stroke:#000000; stroke-linecap:round; stroke-linejoin:round; stroke-width:4; stroke-opacity:1; fill:none" points="184.521,1456.91 184.521,1438.02 "/>
<polyline clip-path="url(#clip640)" style="stroke:#000000; stroke-linecap:round; stroke-linejoin:round; stroke-width:4; stroke-opacity:1; fill:none" points="391.875,1456.91 391.875,1438.02 "/>
<polyline clip-path="url(#clip640)" style="stroke:#000000; stroke-linecap:round; stroke-linejoin:round; stroke-width:4; stroke-opacity:1; fill:none" points="599.228,1456.91 599.228,1438.02 "/>
<polyline clip-path="url(#clip640)" style="stroke:#000000; stroke-linecap:round; stroke-linejoin:round; stroke-width:4; stroke-opacity:1; fill:none" points="806.581,1456.91 806.581,1438.02 "/>
<polyline clip-path="url(#clip640)" style="stroke:#000000; stroke-linecap:round; stroke-linejoin:round; stroke-width:4; stroke-opacity:1; fill:none" points="1013.93,1456.91 1013.93,1438.02 "/>
<path clip-path="url(#clip640)" d="M114.676 1544.64 Q112.761 1546.56 113.682 1549.42 Q114.603 1552.25 118.384 1556.03 Q122.153 1559.8 125.001 1560.74 Q127.849 1561.65 129.764 1559.73 Q131.691 1557.8 130.77 1554.97 Q129.85 1552.11 126.081 1548.34 Q122.3 1544.56 119.452 1543.65 Q116.604 1542.72 114.676 1544.64 M112.712 1542.68 Q115.794 1539.6 119.857 1540.42 Q123.92 1541.22 128.561 1545.86 Q133.189 1550.49 133.999 1554.56 Q134.809 1558.61 131.728 1561.69 Q128.647 1564.78 124.583 1563.98 Q120.52 1563.15 115.892 1558.53 Q111.251 1553.89 110.441 1549.84 Q109.631 1545.76 112.712 1542.68 Z" fill="#000000" fill-rule="nonzero" fill-opacity="1" /><path clip-path="url(#clip640)" d="M138.946 1547.53 L141.537 1544.94 L144.655 1548.06 L142.064 1550.65 L138.946 1547.53 Z" fill="#000000" fill-rule="nonzero" fill-opacity="1" /><path clip-path="url(#clip640)" d="M131.752 1524.3 L141.487 1514.57 L143.574 1516.65 L136.11 1524.12 L140.604 1528.61 Q140.96 1527.89 141.414 1527.26 Q141.856 1526.62 142.396 1526.08 Q145.465 1523.01 148.939 1522.9 Q152.413 1522.79 155.286 1525.66 Q158.244 1528.62 158.048 1532.11 Q157.839 1535.58 154.488 1538.93 Q153.334 1540.09 151.934 1541.09 Q150.547 1542.09 148.878 1542.97 L146.386 1540.48 Q148.092 1539.98 149.565 1539.09 Q151.038 1538.21 152.352 1536.9 Q154.476 1534.77 154.598 1532.42 Q154.721 1530.06 152.806 1528.14 Q150.891 1526.23 148.534 1526.35 Q146.177 1526.47 144.053 1528.6 Q143.059 1529.59 142.285 1530.81 Q141.524 1532.01 140.96 1533.51 L131.752 1524.3 Z" fill="#000000" fill-rule="nonzero" fill-opacity="1" /><path clip-path="url(#clip640)" d="M163.683 1509.26 Q165.843 1507.86 168.041 1508.07 Q170.25 1508.27 172.018 1510.04 Q174.731 1512.75 174.351 1516.1 Q173.97 1519.45 170.533 1522.89 Q169.379 1524.04 167.918 1525.04 Q166.482 1526.03 164.726 1526.88 L162.332 1524.49 Q163.965 1524.06 165.499 1523.13 Q167.034 1522.21 168.372 1520.88 Q170.705 1518.54 170.999 1516.41 Q171.306 1514.26 169.551 1512.5 Q167.93 1510.88 165.88 1511.12 Q163.83 1511.33 161.804 1513.35 L159.668 1515.49 L157.63 1513.45 L159.865 1511.21 Q161.694 1509.39 161.939 1507.69 Q162.173 1505.99 160.798 1504.61 Q159.386 1503.2 157.63 1503.46 Q155.875 1503.69 154.009 1505.56 Q152.99 1506.57 152.045 1507.96 Q151.1 1509.35 150.167 1511.21 L147.957 1509.01 Q148.976 1507.2 150.007 1505.78 Q151.05 1504.34 152.143 1503.25 Q154.967 1500.42 157.901 1500.07 Q160.822 1499.7 163.007 1501.88 Q164.53 1503.41 164.714 1505.33 Q164.886 1507.25 163.683 1509.26 Z" fill="#000000" fill-rule="nonzero" fill-opacity="1" /><path clip-path="url(#clip640)" d="M170.655 1488.66 Q168.74 1490.58 169.661 1493.44 Q170.582 1496.27 174.363 1500.06 Q178.132 1503.82 180.98 1504.76 Q183.828 1505.67 185.743 1503.75 Q187.67 1501.82 186.749 1498.99 Q185.829 1496.13 182.06 1492.36 Q178.279 1488.58 175.431 1487.67 Q172.583 1486.74 170.655 1488.66 M168.691 1486.7 Q171.773 1483.62 175.836 1484.44 Q179.899 1485.24 184.54 1489.88 Q189.168 1494.51 189.978 1498.58 Q190.788 1502.63 187.707 1505.72 Q184.626 1508.8 180.562 1508 Q176.499 1507.18 171.871 1502.55 Q167.23 1497.91 166.42 1493.86 Q165.61 1489.78 168.691 1486.7 Z" fill="#000000" fill-rule="nonzero" fill-opacity="1" /><path clip-path="url(#clip640)" d="M322.558 1544.11 Q320.643 1546.03 321.563 1548.89 Q322.484 1551.73 326.265 1555.51 Q330.034 1559.28 332.882 1560.21 Q335.73 1561.12 337.645 1559.2 Q339.572 1557.27 338.652 1554.44 Q337.731 1551.58 333.962 1547.81 Q330.181 1544.03 327.333 1543.12 Q324.485 1542.19 322.558 1544.11 M320.593 1542.15 Q323.675 1539.07 327.738 1539.89 Q331.802 1540.69 336.442 1545.33 Q341.07 1549.96 341.88 1554.03 Q342.69 1558.08 339.609 1561.17 Q336.528 1564.25 332.464 1563.45 Q328.401 1562.63 323.773 1558 Q319.133 1553.36 318.322 1549.31 Q317.512 1545.23 320.593 1542.15 Z" fill="#000000" fill-rule="nonzero" fill-opacity="1" /><path clip-path="url(#clip640)" d="M346.827 1547 L349.418 1544.41 L352.536 1547.53 L349.946 1550.12 L346.827 1547 Z" fill="#000000" fill-rule="nonzero" fill-opacity="1" /><path clip-path="url(#clip640)" d="M339.634 1523.77 L349.369 1514.04 L351.456 1516.13 L343.992 1523.59 L348.485 1528.08 Q348.841 1527.36 349.295 1526.73 Q349.737 1526.09 350.277 1525.55 Q353.346 1522.48 356.82 1522.37 Q360.294 1522.26 363.167 1525.14 Q366.125 1528.09 365.929 1531.58 Q365.72 1535.05 362.369 1538.41 Q361.215 1539.56 359.816 1540.57 Q358.428 1541.56 356.759 1542.45 L354.267 1539.95 Q355.973 1539.45 357.446 1538.57 Q358.919 1537.68 360.233 1536.37 Q362.357 1534.24 362.479 1531.89 Q362.602 1529.53 360.687 1527.62 Q358.772 1525.7 356.415 1525.82 Q354.058 1525.95 351.934 1528.07 Q350.94 1529.06 350.167 1530.28 Q349.405 1531.48 348.841 1532.98 L339.634 1523.77 Z" fill="#000000" fill-rule="nonzero" fill-opacity="1" /><path clip-path="url(#clip640)" d="M371.564 1508.74 Q373.724 1507.34 375.922 1507.54 Q378.131 1507.74 379.899 1509.51 Q382.612 1512.22 382.232 1515.57 Q381.851 1518.92 378.414 1522.36 Q377.26 1523.52 375.799 1524.51 Q374.363 1525.5 372.607 1526.35 L370.213 1523.96 Q371.846 1523.53 373.381 1522.61 Q374.915 1521.69 376.253 1520.35 Q378.586 1518.02 378.88 1515.88 Q379.187 1513.73 377.432 1511.98 Q375.811 1510.36 373.761 1510.59 Q371.711 1510.8 369.686 1512.82 L367.549 1514.96 L365.512 1512.92 L367.746 1510.69 Q369.575 1508.86 369.821 1507.16 Q370.054 1505.46 368.679 1504.08 Q367.267 1502.67 365.512 1502.93 Q363.756 1503.16 361.89 1505.03 Q360.871 1506.05 359.926 1507.43 Q358.981 1508.82 358.048 1510.69 L355.838 1508.48 Q356.857 1506.67 357.888 1505.25 Q358.932 1503.81 360.024 1502.72 Q362.848 1499.9 365.782 1499.54 Q368.703 1499.17 370.889 1501.36 Q372.411 1502.88 372.595 1504.81 Q372.767 1506.72 371.564 1508.74 Z" fill="#000000" fill-rule="nonzero" fill-opacity="1" /><path clip-path="url(#clip640)" d="M371.625 1491.78 L381.36 1482.05 L383.447 1484.13 L375.983 1491.6 L380.476 1496.09 Q380.832 1495.37 381.286 1494.74 Q381.728 1494.1 382.269 1493.56 Q385.338 1490.49 388.812 1490.38 Q392.286 1490.27 395.158 1493.14 Q398.117 1496.1 397.921 1499.59 Q397.712 1503.06 394.36 1506.41 Q393.207 1507.57 391.807 1508.58 Q390.42 1509.57 388.75 1510.45 L386.258 1507.96 Q387.965 1507.46 389.438 1506.57 Q390.911 1505.69 392.224 1504.38 Q394.348 1502.25 394.471 1499.9 Q394.594 1497.54 392.679 1495.62 Q390.764 1493.71 388.407 1493.83 Q386.05 1493.95 383.926 1496.08 Q382.931 1497.07 382.158 1498.29 Q381.397 1499.49 380.832 1500.99 L371.625 1491.78 Z" fill="#000000" fill-rule="nonzero" fill-opacity="1" /><path clip-path="url(#clip640)" d="M529.383 1544.64 Q527.468 1546.56 528.389 1549.42 Q529.309 1552.25 533.09 1556.03 Q536.859 1559.8 539.707 1560.74 Q542.555 1561.65 544.47 1559.73 Q546.398 1557.8 545.477 1554.97 Q544.556 1552.11 540.788 1548.34 Q537.007 1544.56 534.158 1543.65 Q531.31 1542.72 529.383 1544.64 M527.419 1542.68 Q530.5 1539.6 534.564 1540.42 Q538.627 1541.22 543.267 1545.86 Q547.895 1550.49 548.706 1554.56 Q549.516 1558.61 546.435 1561.69 Q543.353 1564.78 539.29 1563.98 Q535.226 1563.15 530.598 1558.53 Q525.958 1553.89 525.148 1549.84 Q524.338 1545.76 527.419 1542.68 Z" fill="#000000" fill-rule="nonzero" fill-opacity="1" /><path clip-path="url(#clip640)" d="M553.653 1547.53 L556.243 1544.94 L559.361 1548.06 L556.771 1550.65 L553.653 1547.53 Z" fill="#000000" fill-rule="nonzero" fill-opacity="1" /><path clip-path="url(#clip640)" d="M546.459 1524.3 L556.194 1514.57 L558.281 1516.65 L550.817 1524.12 L555.31 1528.61 Q555.666 1527.89 556.12 1527.26 Q556.562 1526.62 557.102 1526.08 Q560.172 1523.01 563.646 1522.9 Q567.12 1522.79 569.992 1525.66 Q572.951 1528.62 572.754 1532.11 Q572.546 1535.58 569.194 1538.93 Q568.04 1540.09 566.641 1541.09 Q565.254 1542.09 563.584 1542.97 L561.092 1540.48 Q562.799 1539.98 564.272 1539.09 Q565.745 1538.21 567.058 1536.9 Q569.182 1534.77 569.305 1532.42 Q569.428 1530.06 567.513 1528.14 Q565.598 1526.23 563.241 1526.35 Q560.884 1526.47 558.76 1528.6 Q557.765 1529.59 556.992 1530.81 Q556.231 1532.01 555.666 1533.51 L546.459 1524.3 Z" fill="#000000" fill-rule="nonzero" fill-opacity="1" /><path clip-path="url(#clip640)" d="M571.404 1503.68 L574.927 1519.72 L581.188 1513.46 L571.404 1503.68 M568.593 1502.17 L571.711 1499.05 L583.656 1510.99 L586.27 1508.38 L588.333 1510.44 L585.718 1513.06 L590.039 1517.38 L587.572 1519.84 L583.251 1515.52 L574.976 1523.8 L572.583 1521.4 L568.593 1502.17 Z" fill="#000000" fill-rule="nonzero" fill-opacity="1" /><path clip-path="url(#clip640)" d="M585.362 1488.66 Q583.447 1490.58 584.368 1493.44 Q585.288 1496.27 589.069 1500.06 Q592.838 1503.82 595.686 1504.76 Q598.534 1505.67 600.449 1503.75 Q602.377 1501.82 601.456 1498.99 Q600.535 1496.13 596.767 1492.36 Q592.985 1488.58 590.137 1487.67 Q587.289 1486.74 585.362 1488.66 M583.398 1486.7 Q586.479 1483.62 590.543 1484.44 Q594.606 1485.24 599.246 1489.88 Q603.874 1494.51 604.685 1498.58 Q605.495 1502.63 602.414 1505.72 Q599.332 1508.8 595.269 1508 Q591.205 1507.18 586.577 1502.55 Q581.937 1497.91 581.127 1493.86 Q580.317 1489.78 583.398 1486.7 Z" fill="#000000" fill-rule="nonzero" fill-opacity="1" /><path clip-path="url(#clip640)" d="M737.264 1544.11 Q735.349 1546.03 736.27 1548.89 Q737.191 1551.73 740.972 1555.51 Q744.74 1559.28 747.588 1560.21 Q750.436 1561.12 752.352 1559.2 Q754.279 1557.27 753.358 1554.44 Q752.438 1551.58 748.669 1547.81 Q744.888 1544.03 742.04 1543.12 Q739.192 1542.19 737.264 1544.11 M735.3 1542.15 Q738.381 1539.07 742.445 1539.89 Q746.508 1540.69 751.149 1545.33 Q755.777 1549.96 756.587 1554.03 Q757.397 1558.08 754.316 1561.17 Q751.234 1564.25 747.171 1563.45 Q743.108 1562.63 738.48 1558 Q733.839 1553.36 733.029 1549.31 Q732.219 1545.23 735.3 1542.15 Z" fill="#000000" fill-rule="nonzero" fill-opacity="1" /><path clip-path="url(#clip640)" d="M761.534 1547 L764.124 1544.41 L767.242 1547.53 L764.652 1550.12 L761.534 1547 Z" fill="#000000" fill-rule="nonzero" fill-opacity="1" /><path clip-path="url(#clip640)" d="M754.34 1523.77 L764.075 1514.04 L766.162 1516.13 L758.698 1523.59 L763.191 1528.08 Q763.547 1527.36 764.002 1526.73 Q764.444 1526.09 764.984 1525.55 Q768.053 1522.48 771.527 1522.37 Q775.001 1522.26 777.874 1525.14 Q780.832 1528.09 780.636 1531.58 Q780.427 1535.05 777.076 1538.41 Q775.922 1539.56 774.522 1540.57 Q773.135 1541.56 771.465 1542.45 L768.973 1539.95 Q770.68 1539.45 772.153 1538.57 Q773.626 1537.68 774.94 1536.37 Q777.063 1534.24 777.186 1531.89 Q777.309 1529.53 775.394 1527.62 Q773.479 1525.7 771.122 1525.82 Q768.765 1525.95 766.641 1528.07 Q765.647 1529.06 764.873 1530.28 Q764.112 1531.48 763.547 1532.98 L754.34 1523.77 Z" fill="#000000" fill-rule="nonzero" fill-opacity="1" /><path clip-path="url(#clip640)" d="M779.285 1503.15 L782.809 1519.19 L789.069 1512.93 L779.285 1503.15 M776.474 1501.64 L779.592 1498.52 L791.537 1510.47 L794.152 1507.85 L796.214 1509.91 L793.599 1512.53 L797.92 1516.85 L795.453 1519.32 L791.132 1515 L782.858 1523.27 L780.464 1520.88 L776.474 1501.64 Z" fill="#000000" fill-rule="nonzero" fill-opacity="1" /><path clip-path="url(#clip640)" d="M786.332 1491.78 L796.067 1482.05 L798.154 1484.13 L790.69 1491.6 L795.183 1496.09 Q795.539 1495.37 795.993 1494.74 Q796.435 1494.1 796.975 1493.56 Q800.044 1490.49 803.518 1490.38 Q806.992 1490.27 809.865 1493.14 Q812.824 1496.1 812.627 1499.59 Q812.418 1503.06 809.067 1506.41 Q807.913 1507.57 806.514 1508.58 Q805.126 1509.57 803.457 1510.45 L800.965 1507.96 Q802.671 1507.46 804.144 1506.57 Q805.618 1505.69 806.931 1504.38 Q809.055 1502.25 809.178 1499.9 Q809.3 1497.54 807.385 1495.62 Q805.47 1493.71 803.113 1493.83 Q800.756 1493.95 798.632 1496.08 Q797.638 1497.07 796.865 1498.29 Q796.104 1499.49 795.539 1500.99 L786.332 1491.78 Z" fill="#000000" fill-rule="nonzero" fill-opacity="1" /><path clip-path="url(#clip640)" d="M944.09 1544.64 Q942.175 1546.56 943.095 1549.42 Q944.016 1552.25 947.797 1556.03 Q951.566 1559.8 954.414 1560.74 Q957.262 1561.65 959.177 1559.73 Q961.104 1557.8 960.184 1554.97 Q959.263 1552.11 955.494 1548.34 Q951.713 1544.56 948.865 1543.65 Q946.017 1542.72 944.09 1544.64 M942.126 1542.68 Q945.207 1539.6 949.27 1540.42 Q953.334 1541.22 957.974 1545.86 Q962.602 1550.49 963.412 1554.56 Q964.222 1558.61 961.141 1561.69 Q958.06 1564.78 953.997 1563.98 Q949.933 1563.15 945.305 1558.53 Q940.665 1553.89 939.854 1549.84 Q939.044 1545.76 942.126 1542.68 Z" fill="#000000" fill-rule="nonzero" fill-opacity="1" /><path clip-path="url(#clip640)" d="M968.36 1547.53 L970.95 1544.94 L974.068 1548.06 L971.478 1550.65 L968.36 1547.53 Z" fill="#000000" fill-rule="nonzero" fill-opacity="1" /><path clip-path="url(#clip640)" d="M961.166 1524.3 L970.901 1514.57 L972.988 1516.65 L965.524 1524.12 L970.017 1528.61 Q970.373 1527.89 970.827 1527.26 Q971.269 1526.62 971.809 1526.08 Q974.878 1523.01 978.352 1522.9 Q981.826 1522.79 984.699 1525.66 Q987.658 1528.62 987.461 1532.11 Q987.252 1535.58 983.901 1538.93 Q982.747 1540.09 981.348 1541.09 Q979.96 1542.09 978.291 1542.97 L975.799 1540.48 Q977.505 1539.98 978.978 1539.09 Q980.451 1538.21 981.765 1536.9 Q983.889 1534.77 984.012 1532.42 Q984.134 1530.06 982.219 1528.14 Q980.304 1526.23 977.947 1526.35 Q975.59 1526.47 973.466 1528.6 Q972.472 1529.59 971.699 1530.81 Q970.938 1532.01 970.373 1533.51 L961.166 1524.3 Z" fill="#000000" fill-rule="nonzero" fill-opacity="1" /><path clip-path="url(#clip640)" d="M977.161 1508.31 L986.896 1498.57 L988.983 1500.66 L981.52 1508.12 L986.013 1512.61 Q986.369 1511.89 986.823 1511.26 Q987.265 1510.63 987.805 1510.09 Q990.874 1507.02 994.348 1506.91 Q997.822 1506.8 1000.69 1509.67 Q1003.65 1512.63 1003.46 1516.11 Q1003.25 1519.59 999.897 1522.94 Q998.743 1524.09 997.343 1525.1 Q995.956 1526.09 994.287 1526.98 L991.795 1524.49 Q993.501 1523.98 994.974 1523.1 Q996.447 1522.21 997.761 1520.9 Q999.885 1518.78 1000.01 1516.42 Q1000.13 1514.06 998.215 1512.15 Q996.3 1510.23 993.943 1510.36 Q991.586 1510.48 989.462 1512.6 Q988.468 1513.6 987.694 1514.81 Q986.933 1516.01 986.369 1517.51 L977.161 1508.31 Z" fill="#000000" fill-rule="nonzero" fill-opacity="1" /><path clip-path="url(#clip640)" d="M1000.07 1488.66 Q998.154 1490.58 999.074 1493.44 Q999.995 1496.27 1003.78 1500.06 Q1007.54 1503.82 1010.39 1504.76 Q1013.24 1505.67 1015.16 1503.75 Q1017.08 1501.82 1016.16 1498.99 Q1015.24 1496.13 1011.47 1492.36 Q1007.69 1488.58 1004.84 1487.67 Q1002 1486.74 1000.07 1488.66 M998.105 1486.7 Q1001.19 1483.62 1005.25 1484.44 Q1009.31 1485.24 1013.95 1489.88 Q1018.58 1494.51 1019.39 1498.58 Q1020.2 1502.63 1017.12 1505.72 Q1014.04 1508.8 1009.98 1508 Q1005.91 1507.18 1001.28 1502.55 Q996.644 1497.91 995.833 1493.86 Q995.023 1489.78 998.105 1486.7 Z" fill="#000000" fill-rule="nonzero" fill-opacity="1" /><polyline clip-path="url(#clip640)" style="stroke:#000000; stroke-linecap:round; stroke-linejoin:round; stroke-width:4; stroke-opacity:1; fill:none" points="128.138,1456.91 128.138,892.306 "/>
<polyline clip-path="url(#clip640)" style="stroke:#000000; stroke-linecap:round; stroke-linejoin:round; stroke-width:4; stroke-opacity:1; fill:none" points="128.138,1456.91 147.035,1456.91 "/>
<polyline clip-path="url(#clip640)" style="stroke:#000000; stroke-linecap:round; stroke-linejoin:round; stroke-width:4; stroke-opacity:1; fill:none" points="128.138,1322.48 147.035,1322.48 "/>
<polyline clip-path="url(#clip640)" style="stroke:#000000; stroke-linecap:round; stroke-linejoin:round; stroke-width:4; stroke-opacity:1; fill:none" points="128.138,1188.05 147.035,1188.05 "/>
<polyline clip-path="url(#clip640)" style="stroke:#000000; stroke-linecap:round; stroke-linejoin:round; stroke-width:4; stroke-opacity:1; fill:none" points="128.138,1053.62 147.035,1053.62 "/>
<polyline clip-path="url(#clip640)" style="stroke:#000000; stroke-linecap:round; stroke-linejoin:round; stroke-width:4; stroke-opacity:1; fill:none" points="128.138,919.192 147.035,919.192 "/>
<path clip-path="url(#clip640)" d="M83.1795 1446.26 Q80.4711 1446.26 79.0996 1448.94 Q77.7455 1451.59 77.7455 1456.94 Q77.7455 1462.27 79.0996 1464.94 Q80.4711 1467.6 83.1795 1467.6 Q85.9051 1467.6 87.2593 1464.94 Q88.6308 1462.27 88.6308 1456.94 Q88.6308 1451.59 87.2593 1448.94 Q85.9051 1446.26 83.1795 1446.26 M83.1795 1443.49 Q87.5371 1443.49 89.8287 1446.94 Q92.1377 1450.38 92.1377 1456.94 Q92.1377 1463.49 89.8287 1466.94 Q87.5371 1470.38 83.1795 1470.38 Q78.8218 1470.38 76.5128 1466.94 Q74.2212 1463.49 74.2212 1456.94 Q74.2212 1450.38 76.5128 1446.94 Q78.8218 1443.49 83.1795 1443.49 Z" fill="#000000" fill-rule="nonzero" fill-opacity="1" /><path clip-path="url(#clip640)" d="M53.6657 1332.49 L59.3949 1332.49 L59.3949 1312.72 L53.1623 1313.97 L53.1623 1310.77 L59.3601 1309.52 L62.8671 1309.52 L62.8671 1332.49 L68.5962 1332.49 L68.5962 1335.44 L53.6657 1335.44 L53.6657 1332.49 Z" fill="#000000" fill-rule="nonzero" fill-opacity="1" /><path clip-path="url(#clip640)" d="M83.1795 1311.83 Q80.4711 1311.83 79.0996 1314.51 Q77.7455 1317.16 77.7455 1322.51 Q77.7455 1327.84 79.0996 1330.51 Q80.4711 1333.17 83.1795 1333.17 Q85.9051 1333.17 87.2593 1330.51 Q88.6308 1327.84 88.6308 1322.51 Q88.6308 1317.16 87.2593 1314.51 Q85.9051 1311.83 83.1795 1311.83 M83.1795 1309.06 Q87.5371 1309.06 89.8287 1312.51 Q92.1377 1315.95 92.1377 1322.51 Q92.1377 1329.05 89.8287 1332.51 Q87.5371 1335.95 83.1795 1335.95 Q78.8218 1335.95 76.5128 1332.51 Q74.2212 1329.05 74.2212 1322.51 Q74.2212 1315.95 76.5128 1312.51 Q78.8218 1309.06 83.1795 1309.06 Z" fill="#000000" fill-rule="nonzero" fill-opacity="1" /><path clip-path="url(#clip640)" d="M56.0789 1198.06 L68.3184 1198.06 L68.3184 1201.01 L51.8602 1201.01 L51.8602 1198.06 Q53.8567 1196 57.2942 1192.52 Q60.749 1189.03 61.6344 1188.03 Q63.3184 1186.13 63.9782 1184.83 Q64.6552 1183.51 64.6552 1182.25 Q64.6552 1180.18 63.1969 1178.88 Q61.756 1177.58 59.4296 1177.58 Q57.7803 1177.58 55.94 1178.15 Q54.1171 1178.72 52.0338 1179.88 L52.0338 1176.34 Q54.1518 1175.49 55.9921 1175.06 Q57.8324 1174.62 59.3601 1174.62 Q63.3879 1174.62 65.7837 1176.64 Q68.1795 1178.65 68.1795 1182.02 Q68.1795 1183.62 67.5719 1185.06 Q66.9816 1186.48 65.4018 1188.43 Q64.9677 1188.93 62.6414 1191.34 Q60.315 1193.74 56.0789 1198.06 Z" fill="#000000" fill-rule="nonzero" fill-opacity="1" /><path clip-path="url(#clip640)" d="M83.1795 1177.4 Q80.4711 1177.4 79.0996 1180.08 Q77.7455 1182.73 77.7455 1188.08 Q77.7455 1193.41 79.0996 1196.08 Q80.4711 1198.74 83.1795 1198.74 Q85.9051 1198.74 87.2593 1196.08 Q88.6308 1193.41 88.6308 1188.08 Q88.6308 1182.73 87.2593 1180.08 Q85.9051 1177.4 83.1795 1177.4 M83.1795 1174.62 Q87.5371 1174.62 89.8287 1178.08 Q92.1377 1181.52 92.1377 1188.08 Q92.1377 1194.62 89.8287 1198.08 Q87.5371 1201.52 83.1795 1201.52 Q78.8218 1201.52 76.5128 1198.08 Q74.2212 1194.62 74.2212 1188.08 Q74.2212 1181.52 76.5128 1178.08 Q78.8218 1174.62 83.1795 1174.62 Z" fill="#000000" fill-rule="nonzero" fill-opacity="1" /><path clip-path="url(#clip640)" d="M63.683 1052.61 Q66.2004 1053.15 67.6066 1054.85 Q69.0302 1056.55 69.0302 1059.05 Q69.0302 1062.88 66.3913 1064.99 Q63.7525 1067.09 58.8914 1067.09 Q57.2595 1067.09 55.5234 1066.76 Q53.8046 1066.44 51.9643 1065.8 L51.9643 1062.42 Q53.4227 1063.27 55.1588 1063.7 Q56.8949 1064.13 58.7872 1064.13 Q62.0858 1064.13 63.8046 1062.83 Q65.5407 1061.53 65.5407 1059.05 Q65.5407 1056.76 63.9261 1055.47 Q62.3289 1054.17 59.4643 1054.17 L56.4435 1054.17 L56.4435 1051.29 L59.6032 1051.29 Q62.19 1051.29 63.5615 1050.26 Q64.933 1049.22 64.933 1047.28 Q64.933 1045.28 63.5094 1044.22 Q62.1032 1043.15 59.4643 1043.15 Q58.0233 1043.15 56.374 1043.46 Q54.7247 1043.77 52.7456 1044.43 L52.7456 1041.31 Q54.7421 1040.75 56.4782 1040.47 Q58.2317 1040.19 59.7768 1040.19 Q63.7698 1040.19 66.0962 1042.02 Q68.4226 1043.82 68.4226 1046.91 Q68.4226 1049.07 67.19 1050.56 Q65.9573 1052.03 63.683 1052.61 Z" fill="#000000" fill-rule="nonzero" fill-opacity="1" /><path clip-path="url(#clip640)" d="M83.1795 1042.97 Q80.4711 1042.97 79.0996 1045.65 Q77.7455 1048.3 77.7455 1053.65 Q77.7455 1058.98 79.0996 1061.65 Q80.4711 1064.31 83.1795 1064.31 Q85.9051 1064.31 87.2593 1061.65 Q88.6308 1058.98 88.6308 1053.65 Q88.6308 1048.3 87.2593 1045.65 Q85.9051 1042.97 83.1795 1042.97 M83.1795 1040.19 Q87.5371 1040.19 89.8287 1043.65 Q92.1377 1047.09 92.1377 1053.65 Q92.1377 1060.19 89.8287 1063.65 Q87.5371 1067.09 83.1795 1067.09 Q78.8218 1067.09 76.5128 1063.65 Q74.2212 1060.19 74.2212 1053.65 Q74.2212 1047.09 76.5128 1043.65 Q78.8218 1040.19 83.1795 1040.19 Z" fill="#000000" fill-rule="nonzero" fill-opacity="1" /><path clip-path="url(#clip640)" d="M62.6935 909.288 L53.8393 923.125 L62.6935 923.125 L62.6935 909.288 M61.7733 906.232 L66.183 906.232 L66.183 923.125 L69.8809 923.125 L69.8809 926.041 L66.183 926.041 L66.183 932.152 L62.6935 932.152 L62.6935 926.041 L50.9921 926.041 L50.9921 922.656 L61.7733 906.232 Z" fill="#000000" fill-rule="nonzero" fill-opacity="1" /><path clip-path="url(#clip640)" d="M83.1795 908.541 Q80.4711 908.541 79.0996 911.215 Q77.7455 913.871 77.7455 919.218 Q77.7455 924.548 79.0996 927.222 Q80.4711 929.878 83.1795 929.878 Q85.9051 929.878 87.2593 927.222 Q88.6308 924.548 88.6308 919.218 Q88.6308 913.871 87.2593 911.215 Q85.9051 908.541 83.1795 908.541 M83.1795 905.764 Q87.5371 905.764 89.8287 909.218 Q92.1377 912.656 92.1377 919.218 Q92.1377 925.763 89.8287 929.218 Q87.5371 932.656 83.1795 932.656 Q78.8218 932.656 76.5128 929.218 Q74.2212 925.763 74.2212 919.218 Q74.2212 912.656 76.5128 909.218 Q78.8218 905.764 83.1795 905.764 Z" fill="#000000" fill-rule="nonzero" fill-opacity="1" /><path clip-path="url(#clip640)" d="M140.036 813.68 Q136.517 813.68 134.619 816.226 Q132.628 818.888 132.628 823.286 Q132.628 827.939 134.596 830.624 Q136.587 833.286 140.036 833.286 Q143.439 833.286 145.429 830.601 Q147.42 827.916 147.42 823.286 Q147.42 819.05 145.429 816.226 Q143.601 813.68 140.036 813.68 M140.036 810.3 L154.179 810.3 L154.179 814.559 L149.411 814.559 Q151.934 818.171 151.934 823.286 Q151.934 829.652 148.763 833.263 Q145.591 836.897 140.036 836.897 Q134.457 836.897 131.309 833.263 Q128.138 829.652 128.138 823.286 Q128.138 816.874 131.309 813.286 Q133.925 810.3 140.036 810.3 Z" fill="#000000" fill-rule="nonzero" fill-opacity="1" /><path clip-path="url(#clip640)" d="M165.198 836.226 L157.281 810.3 L161.864 810.3 L168.554 832.059 Q171.332 829.189 173.647 825.208 Q175.406 822.221 175.499 819.629 Q175.545 818.402 174.989 816.087 Q174.341 813.333 171.888 810.3 L176.193 810.3 L176.193 810.3 Q177.79 812.36 178.855 815.231 Q179.827 817.87 179.827 819.675 Q179.827 824.212 176.679 828.263 Q172.582 833.541 169.735 836.226 L165.198 836.226 Z" fill="#000000" fill-rule="nonzero" fill-opacity="1" /><path clip-path="url(#clip644)" d="M184.521 1309.04 L184.521 1456.91 L267.463 1456.91 L267.463 1309.04 L184.521 1309.04 L184.521 1309.04  Z" fill="#009af9" fill-rule="evenodd" fill-opacity="1"/>
<polyline clip-path="url(#clip644)" style="stroke:#000000; stroke-linecap:round; stroke-linejoin:round; stroke-width:4; stroke-opacity:1; fill:none" points="184.521,1309.04 184.521,1456.91 267.463,1456.91 267.463,1309.04 184.521,1309.04 "/>
<path clip-path="url(#clip644)" d="M267.463 1416.59 L267.463 1456.91 L350.404 1456.91 L350.404 1416.59 L267.463 1416.59 L267.463 1416.59  Z" fill="#009af9" fill-rule="evenodd" fill-opacity="1"/>
<polyline clip-path="url(#clip644)" style="stroke:#000000; stroke-linecap:round; stroke-linejoin:round; stroke-width:4; stroke-opacity:1; fill:none" points="267.463,1416.59 267.463,1456.91 350.404,1456.91 350.404,1416.59 267.463,1416.59 "/>
<path clip-path="url(#clip644)" d="M350.404 1201.5 L350.404 1456.91 L433.345 1456.91 L433.345 1201.5 L350.404 1201.5 L350.404 1201.5  Z" fill="#009af9" fill-rule="evenodd" fill-opacity="1"/>
<polyline clip-path="url(#clip644)" style="stroke:#000000; stroke-linecap:round; stroke-linejoin:round; stroke-width:4; stroke-opacity:1; fill:none" points="350.404,1201.5 350.404,1456.91 433.345,1456.91 433.345,1201.5 350.404,1201.5 "/>
<path clip-path="url(#clip644)" d="M433.345 1026.74 L433.345 1456.91 L516.287 1456.91 L516.287 1026.74 L433.345 1026.74 L433.345 1026.74  Z" fill="#009af9" fill-rule="evenodd" fill-opacity="1"/>
<polyline clip-path="url(#clip644)" style="stroke:#000000; stroke-linecap:round; stroke-linejoin:round; stroke-width:4; stroke-opacity:1; fill:none" points="433.345,1026.74 433.345,1456.91 516.287,1456.91 516.287,1026.74 433.345,1026.74 "/>
<path clip-path="url(#clip644)" d="M516.287 959.521 L516.287 1456.91 L599.228 1456.91 L599.228 959.521 L516.287 959.521 L516.287 959.521  Z" fill="#009af9" fill-rule="evenodd" fill-opacity="1"/>
<polyline clip-path="url(#clip644)" style="stroke:#000000; stroke-linecap:round; stroke-linejoin:round; stroke-width:4; stroke-opacity:1; fill:none" points="516.287,959.521 516.287,1456.91 599.228,1456.91 599.228,959.521 516.287,959.521 "/>
<path clip-path="url(#clip644)" d="M599.228 1335.93 L599.228 1456.91 L682.169 1456.91 L682.169 1335.93 L599.228 1335.93 L599.228 1335.93  Z" fill="#009af9" fill-rule="evenodd" fill-opacity="1"/>
<polyline clip-path="url(#clip644)" style="stroke:#000000; stroke-linecap:round; stroke-linejoin:round; stroke-width:4; stroke-opacity:1; fill:none" points="599.228,1335.93 599.228,1456.91 682.169,1456.91 682.169,1335.93 599.228,1335.93 "/>
<path clip-path="url(#clip644)" d="M682.169 892.306 L682.169 1456.91 L765.111 1456.91 L765.111 892.306 L682.169 892.306 L682.169 892.306  Z" fill="#009af9" fill-rule="evenodd" fill-opacity="1"/>
<polyline clip-path="url(#clip644)" style="stroke:#000000; stroke-linecap:round; stroke-linejoin:round; stroke-width:4; stroke-opacity:1; fill:none" points="682.169,892.306 682.169,1456.91 765.111,1456.91 765.111,892.306 682.169,892.306 "/>
<path clip-path="url(#clip644)" d="M765.111 932.635 L765.111 1456.91 L848.052 1456.91 L848.052 932.635 L765.111 932.635 L765.111 932.635  Z" fill="#009af9" fill-rule="evenodd" fill-opacity="1"/>
<polyline clip-path="url(#clip644)" style="stroke:#000000; stroke-linecap:round; stroke-linejoin:round; stroke-width:4; stroke-opacity:1; fill:none" points="765.111,932.635 765.111,1456.91 848.052,1456.91 848.052,932.635 765.111,932.635 "/>
<path clip-path="url(#clip644)" d="M848.052 1443.47 L848.052 1456.91 L930.993 1456.91 L930.993 1443.47 L848.052 1443.47 L848.052 1443.47  Z" fill="#009af9" fill-rule="evenodd" fill-opacity="1"/>
<polyline clip-path="url(#clip644)" style="stroke:#000000; stroke-linecap:round; stroke-linejoin:round; stroke-width:4; stroke-opacity:1; fill:none" points="848.052,1443.47 848.052,1456.91 930.993,1456.91 930.993,1443.47 848.052,1443.47 "/>
<path clip-path="url(#clip644)" d="M930.993 1188.05 L930.993 1456.91 L1013.93 1456.91 L1013.93 1188.05 L930.993 1188.05 L930.993 1188.05  Z" fill="#009af9" fill-rule="evenodd" fill-opacity="1"/>
<polyline clip-path="url(#clip644)" style="stroke:#000000; stroke-linecap:round; stroke-linejoin:round; stroke-width:4; stroke-opacity:1; fill:none" points="930.993,1188.05 930.993,1456.91 1013.93,1456.91 1013.93,1188.05 930.993,1188.05 "/>
<path clip-path="url(#clip644)" d="M1013.93 1349.37 L1013.93 1456.91 L1096.88 1456.91 L1096.88 1349.37 L1013.93 1349.37 L1013.93 1349.37  Z" fill="#009af9" fill-rule="evenodd" fill-opacity="1"/>
<polyline clip-path="url(#clip644)" style="stroke:#000000; stroke-linecap:round; stroke-linejoin:round; stroke-width:4; stroke-opacity:1; fill:none" points="1013.93,1349.37 1013.93,1456.91 1096.88,1456.91 1096.88,1349.37 1013.93,1349.37 "/>
<circle clip-path="url(#clip644)" style="fill:#009af9; stroke:none; fill-opacity:0" cx="225.992" cy="1309.04" r="2"/>
<circle clip-path="url(#clip644)" style="fill:#009af9; stroke:none; fill-opacity:0" cx="308.933" cy="1416.59" r="2"/>
<circle clip-path="url(#clip644)" style="fill:#009af9; stroke:none; fill-opacity:0" cx="391.875" cy="1201.5" r="2"/>
<circle clip-path="url(#clip644)" style="fill:#009af9; stroke:none; fill-opacity:0" cx="474.816" cy="1026.74" r="2"/>
<circle clip-path="url(#clip644)" style="fill:#009af9; stroke:none; fill-opacity:0" cx="557.757" cy="959.521" r="2"/>
<circle clip-path="url(#clip644)" style="fill:#009af9; stroke:none; fill-opacity:0" cx="640.699" cy="1335.93" r="2"/>
<circle clip-path="url(#clip644)" style="fill:#009af9; stroke:none; fill-opacity:0" cx="806.581" cy="932.635" r="2"/>
<circle clip-path="url(#clip644)" style="fill:#009af9; stroke:none; fill-opacity:0" cx="889.523" cy="1443.47" r="2"/>
<circle clip-path="url(#clip644)" style="fill:#009af9; stroke:none; fill-opacity:0" cx="972.464" cy="1188.05" r="2"/>
<circle clip-path="url(#clip644)" style="fill:#009af9; stroke:none; fill-opacity:0" cx="1055.41" cy="1349.37" r="2"/>
<polyline clip-path="url(#clip644)" style="stroke:#ff0000; stroke-linecap:round; stroke-linejoin:round; stroke-width:8; stroke-opacity:1; fill:none" stroke-dasharray="32, 20" points="703.641,2021.52 703.641,327.698 "/>
<polyline clip-path="url(#clip644)" style="stroke:#ff0000; stroke-linecap:round; stroke-linejoin:round; stroke-width:6; stroke-opacity:1; fill:none" stroke-dasharray="24, 12, 3, 12" points="236.81,2021.52 236.81,327.698 "/>
<polyline clip-path="url(#clip644)" style="stroke:#ff0000; stroke-linecap:round; stroke-linejoin:round; stroke-width:6; stroke-opacity:1; fill:none" stroke-dasharray="24, 12, 3, 12" points="1021.13,2021.52 1021.13,327.698 "/>
</svg>
