<?xml version="1.0" encoding="utf-8"?>
<svg xmlns="http://www.w3.org/2000/svg" xmlns:xlink="http://www.w3.org/1999/xlink" width="600" height="400" viewBox="0 0 2400 1600">
<defs>
  <clipPath id="clip550">
    <rect x="0" y="0" width="2400" height="1600"/>
  </clipPath>
</defs>
<path clip-path="url(#clip550)" d="M0 1600 L2400 1600 L2400 0 L0 0  Z" fill="#ffffff" fill-rule="evenodd" fill-opacity="1"/>
<defs>
  <clipPath id="clip551">
    <rect x="480" y="0" width="1681" height="1600"/>
  </clipPath>
</defs>
<path clip-path="url(#clip550)" d="M161.818 662.16 L1152.94 662.16 L1152.94 97.5521 L161.818 97.5521  Z" fill="#ffffff" fill-rule="evenodd" fill-opacity="1"/>
<defs>
  <clipPath id="clip552">
    <rect x="161" y="97" width="992" height="566"/>
  </clipPath>
</defs>
<polyline clip-path="url(#clip552)" style="stroke:#000000; stroke-linecap:round; stroke-linejoin:round; stroke-width:2; stroke-opacity:0.1; fill:none" points="187.998,662.16 187.998,97.5521 "/>
<polyline clip-path="url(#clip552)" style="stroke:#000000; stroke-linecap:round; stroke-linejoin:round; stroke-width:2; stroke-opacity:0.1; fill:none" points="450.856,662.16 450.856,97.5521 "/>
<polyline clip-path="url(#clip552)" style="stroke:#000000; stroke-linecap:round; stroke-linejoin:round; stroke-width:2; stroke-opacity:0.1; fill:none" points="713.713,662.16 713.713,97.5521 "/>
<polyline clip-path="url(#clip552)" style="stroke:#000000; stroke-linecap:round; stroke-linejoin:round; stroke-width:2; stroke-opacity:0.1; fill:none" points="976.57,662.16 976.57,97.5521 "/>
<polyline clip-path="url(#clip552)" style="stroke:#000000; stroke-linecap:round; stroke-linejoin:round; stroke-width:2; stroke-opacity:0.1; fill:none" points="161.818,646.181 1152.94,646.181 "/>
<polyline clip-path="url(#clip552)" style="stroke:#000000; stroke-linecap:round; stroke-linejoin:round; stroke-width:2; stroke-opacity:0.1; fill:none" points="161.818,513.121 1152.94,513.121 "/>
<polyline clip-path="url(#clip552)" style="stroke:#000000; stroke-linecap:round; stroke-linejoin:round; stroke-width:2; stroke-opacity:0.1; fill:none" points="161.818,380.061 1152.94,380.061 "/>
<polyline clip-path="url(#clip552)" style="stroke:#000000; stroke-linecap:round; stroke-linejoin:round; stroke-width:2; stroke-opacity:0.1; fill:none" points="161.818,247.002 1152.94,247.002 "/>
<polyline clip-path="url(#clip552)" style="stroke:#000000; stroke-linecap:round; stroke-linejoin:round; stroke-width:2; stroke-opacity:0.1; fill:none" points="161.818,113.942 1152.94,113.942 "/>
<polyline clip-path="url(#clip550)" style="stroke:#000000; stroke-linecap:round; stroke-linejoin:round; stroke-width:4; stroke-opacity:1; fill:none" points="161.818,662.16 1152.94,662.16 "/>
<polyline clip-path="url(#clip550)" style="stroke:#000000; stroke-linecap:round; stroke-linejoin:round; stroke-width:4; stroke-opacity:1; fill:none" points="187.998,662.16 187.998,643.263 "/>
<polyline clip-path="url(#clip550)" style="stroke:#000000; stroke-linecap:round; stroke-linejoin:round; stroke-width:4; stroke-opacity:1; fill:none" points="450.856,662.16 450.856,643.263 "/>
<polyline clip-path="url(#clip550)" style="stroke:#000000; stroke-linecap:round; stroke-linejoin:round; stroke-width:4; stroke-opacity:1; fill:none" points="713.713,662.16 713.713,643.263 "/>
<polyline clip-path="url(#clip550)" style="stroke:#000000; stroke-linecap:round; stroke-linejoin:round; stroke-width:4; stroke-opacity:1; fill:none" points="976.57,662.16 976.57,643.263 "/>
<path clip-path="url(#clip550)" d="M134.149 733.893 Q132.234 735.808 133.155 738.668 Q134.076 741.504 137.857 745.285 Q141.625 749.054 144.473 749.987 Q147.321 750.895 149.237 748.98 Q151.164 747.053 150.243 744.217 Q149.322 741.357 145.554 737.588 Q141.773 733.807 138.925 732.898 Q136.077 731.966 134.149 733.893 M132.185 731.929 Q135.266 728.847 139.33 729.67 Q143.393 730.468 148.034 735.108 Q152.662 739.736 153.472 743.812 Q154.282 747.863 151.201 750.944 Q148.119 754.026 144.056 753.228 Q139.993 752.405 135.365 747.777 Q130.724 743.137 129.914 739.086 Q129.104 735.01 132.185 731.929 Z" fill="#000000" fill-rule="nonzero" fill-opacity="1" /><path clip-path="url(#clip550)" d="M158.419 736.778 L161.009 734.187 L164.127 737.306 L161.537 739.896 L158.419 736.778 Z" fill="#000000" fill-rule="nonzero" fill-opacity="1" /><path clip-path="url(#clip550)" d="M166.128 717.897 Q164.361 719.665 164.287 721.629 Q164.226 723.581 165.883 725.238 Q167.54 726.895 169.492 726.834 Q171.456 726.76 173.224 724.993 Q174.992 723.225 175.065 721.261 Q175.127 719.284 173.482 717.639 Q171.825 715.982 169.86 716.056 Q167.909 716.117 166.128 717.897 M162.593 719.321 Q160.604 720.524 158.616 720.328 Q156.639 720.119 155.068 718.548 Q152.87 716.35 153.153 713.515 Q153.447 710.666 156.173 707.941 Q158.91 705.204 161.746 704.921 Q164.582 704.639 166.779 706.836 Q168.35 708.408 168.547 710.396 Q168.756 712.373 167.565 714.349 Q169.774 712.974 171.984 713.195 Q174.206 713.404 175.962 715.16 Q178.626 717.823 178.417 720.88 Q178.22 723.925 175.188 726.957 Q172.156 729.989 169.099 730.198 Q166.055 730.394 163.391 727.73 Q161.635 725.975 161.427 723.753 Q161.218 721.531 162.593 719.321 M157.768 716.313 Q159.192 717.738 160.874 717.652 Q162.568 717.553 164.177 715.945 Q165.772 714.349 165.871 712.655 Q165.981 710.949 164.557 709.525 Q163.133 708.101 161.427 708.211 Q159.733 708.309 158.137 709.905 Q156.529 711.514 156.43 713.208 Q156.344 714.889 157.768 716.313 Z" fill="#000000" fill-rule="nonzero" fill-opacity="1" /><path clip-path="url(#clip550)" d="M174.132 693.91 Q172.217 695.825 173.138 698.685 Q174.059 701.521 177.84 705.302 Q181.609 709.071 184.457 710.004 Q187.305 710.912 189.22 708.997 Q191.147 707.07 190.226 704.234 Q189.306 701.373 185.537 697.605 Q181.756 693.824 178.908 692.915 Q176.06 691.982 174.132 693.91 M172.168 691.945 Q175.25 688.864 179.313 689.687 Q183.376 690.485 188.017 695.125 Q192.645 699.753 193.455 703.829 Q194.265 707.88 191.184 710.961 Q188.103 714.042 184.039 713.244 Q179.976 712.422 175.348 707.794 Q170.707 703.154 169.897 699.102 Q169.087 695.027 172.168 691.945 Z" fill="#000000" fill-rule="nonzero" fill-opacity="1" /><path clip-path="url(#clip550)" d="M397.534 733.365 Q395.619 735.28 396.54 738.14 Q397.461 740.976 401.242 744.757 Q405.01 748.526 407.858 749.459 Q410.707 750.367 412.622 748.452 Q414.549 746.525 413.628 743.689 Q412.708 740.829 408.939 737.06 Q405.158 733.279 402.31 732.371 Q399.462 731.438 397.534 733.365 M395.57 731.401 Q398.651 728.32 402.715 729.142 Q406.778 729.94 411.419 734.58 Q416.047 739.208 416.857 743.284 Q417.667 747.335 414.586 750.416 Q411.504 753.498 407.441 752.7 Q403.378 751.877 398.75 747.249 Q394.109 742.609 393.299 738.558 Q392.489 734.482 395.57 731.401 Z" fill="#000000" fill-rule="nonzero" fill-opacity="1" /><path clip-path="url(#clip550)" d="M421.804 736.25 L424.394 733.66 L427.513 736.778 L424.922 739.368 L421.804 736.25 Z" fill="#000000" fill-rule="nonzero" fill-opacity="1" /><path clip-path="url(#clip550)" d="M429.514 717.369 Q427.746 719.137 427.672 721.101 Q427.611 723.053 429.268 724.71 Q430.925 726.368 432.877 726.306 Q434.841 726.233 436.609 724.465 Q438.377 722.697 438.451 720.733 Q438.512 718.756 436.867 717.111 Q435.21 715.454 433.245 715.528 Q431.294 715.589 429.514 717.369 M425.978 718.793 Q423.989 719.996 422.001 719.8 Q420.024 719.591 418.453 718.02 Q416.255 715.822 416.538 712.987 Q416.832 710.139 419.558 707.413 Q422.295 704.676 425.131 704.393 Q427.967 704.111 430.164 706.308 Q431.735 707.88 431.932 709.869 Q432.141 711.845 430.95 713.821 Q433.16 712.447 435.369 712.667 Q437.591 712.876 439.347 714.632 Q442.011 717.296 441.802 720.352 Q441.605 723.397 438.573 726.429 Q435.541 729.461 432.484 729.67 Q429.44 729.866 426.776 727.202 Q425.02 725.447 424.812 723.225 Q424.603 721.003 425.978 718.793 M421.154 715.786 Q422.578 717.21 424.259 717.124 Q425.953 717.025 427.562 715.417 Q429.158 713.821 429.256 712.127 Q429.366 710.421 427.942 708.997 Q426.518 707.573 424.812 707.683 Q423.118 707.782 421.522 709.377 Q419.914 710.986 419.815 712.68 Q419.729 714.362 421.154 715.786 Z" fill="#000000" fill-rule="nonzero" fill-opacity="1" /><path clip-path="url(#clip550)" d="M430.606 697.028 L440.341 687.293 L442.428 689.38 L434.964 696.844 L439.457 701.337 Q439.813 700.612 440.267 699.986 Q440.709 699.348 441.249 698.808 Q444.318 695.739 447.793 695.628 Q451.267 695.518 454.139 698.39 Q457.098 701.349 456.901 704.835 Q456.693 708.309 453.341 711.661 Q452.187 712.815 450.788 713.821 Q449.401 714.816 447.731 715.7 L445.239 713.208 Q446.946 712.704 448.419 711.82 Q449.892 710.937 451.205 709.623 Q453.329 707.499 453.452 705.142 Q453.575 702.785 451.66 700.87 Q449.745 698.955 447.388 699.078 Q445.031 699.201 442.907 701.324 Q441.912 702.319 441.139 703.534 Q440.378 704.737 439.813 706.235 L430.606 697.028 Z" fill="#000000" fill-rule="nonzero" fill-opacity="1" /><path clip-path="url(#clip550)" d="M659.864 733.893 Q657.949 735.808 658.869 738.668 Q659.79 741.504 663.571 745.285 Q667.34 749.054 670.188 749.987 Q673.036 750.895 674.951 748.98 Q676.878 747.053 675.958 744.217 Q675.037 741.357 671.268 737.588 Q667.487 733.807 664.639 732.898 Q661.791 731.966 659.864 733.893 M657.899 731.929 Q660.981 728.847 665.044 729.67 Q669.108 730.468 673.748 735.108 Q678.376 739.736 679.186 743.812 Q679.996 747.863 676.915 750.944 Q673.834 754.026 669.77 753.228 Q665.707 752.405 661.079 747.777 Q656.439 743.137 655.628 739.086 Q654.818 735.01 657.899 731.929 Z" fill="#000000" fill-rule="nonzero" fill-opacity="1" /><path clip-path="url(#clip550)" d="M684.133 736.778 L686.724 734.187 L689.842 737.306 L687.252 739.896 L684.133 736.778 Z" fill="#000000" fill-rule="nonzero" fill-opacity="1" /><path clip-path="url(#clip550)" d="M694.936 731.45 L692.678 729.191 Q694.053 728.7 695.243 727.976 Q696.434 727.251 697.355 726.331 Q699.81 723.876 699.454 720.942 Q699.098 717.983 695.918 714.435 Q696.262 716.203 695.734 717.86 Q695.206 719.518 693.881 720.843 Q691.131 723.593 687.865 723.544 Q684.6 723.47 681.715 720.586 Q678.892 717.762 678.855 714.386 Q678.818 711.01 681.592 708.236 Q684.772 705.056 688.884 705.83 Q692.997 706.579 697.637 711.219 Q701.971 715.552 702.498 720.205 Q703.026 724.833 699.552 728.307 Q698.619 729.24 697.478 730.014 Q696.336 730.787 694.936 731.45 M692.101 718.744 Q693.77 717.075 693.598 714.963 Q693.439 712.839 691.45 710.851 Q689.474 708.874 687.35 708.715 Q685.226 708.53 683.556 710.2 Q681.887 711.87 682.059 714.006 Q682.231 716.117 684.207 718.094 Q686.196 720.082 688.307 720.254 Q690.431 720.414 692.101 718.744 Z" fill="#000000" fill-rule="nonzero" fill-opacity="1" /><path clip-path="url(#clip550)" d="M699.847 693.91 Q697.932 695.825 698.852 698.685 Q699.773 701.521 703.554 705.302 Q707.323 709.071 710.171 710.004 Q713.019 710.912 714.934 708.997 Q716.862 707.07 715.941 704.234 Q715.02 701.373 711.251 697.605 Q707.47 693.824 704.622 692.915 Q701.774 691.982 699.847 693.91 M697.883 691.945 Q700.964 688.864 705.027 689.687 Q709.091 690.485 713.731 695.125 Q718.359 699.753 719.169 703.829 Q719.98 707.88 716.898 710.961 Q713.817 714.042 709.754 713.244 Q705.69 712.422 701.062 707.794 Q696.422 703.154 695.612 699.102 Q694.801 695.027 697.883 691.945 Z" fill="#000000" fill-rule="nonzero" fill-opacity="1" /><path clip-path="url(#clip550)" d="M923.249 733.365 Q921.334 735.28 922.254 738.14 Q923.175 740.976 926.956 744.757 Q930.725 748.526 933.573 749.459 Q936.421 750.367 938.336 748.452 Q940.263 746.525 939.343 743.689 Q938.422 740.829 934.653 737.06 Q930.872 733.279 928.024 732.371 Q925.176 731.438 923.249 733.365 M921.284 731.401 Q924.366 728.32 928.429 729.142 Q932.493 729.94 937.133 734.58 Q941.761 739.208 942.571 743.284 Q943.381 747.335 940.3 750.416 Q937.219 753.498 933.155 752.7 Q929.092 751.877 924.464 747.249 Q919.824 742.609 919.013 738.558 Q918.203 734.482 921.284 731.401 Z" fill="#000000" fill-rule="nonzero" fill-opacity="1" /><path clip-path="url(#clip550)" d="M947.518 736.25 L950.109 733.66 L953.227 736.778 L950.637 739.368 L947.518 736.25 Z" fill="#000000" fill-rule="nonzero" fill-opacity="1" /><path clip-path="url(#clip550)" d="M958.321 730.922 L956.063 728.663 Q957.438 728.172 958.628 727.448 Q959.819 726.724 960.74 725.803 Q963.195 723.348 962.839 720.414 Q962.483 717.455 959.304 713.907 Q959.647 715.675 959.119 717.332 Q958.592 718.99 957.266 720.315 Q954.516 723.065 951.25 723.016 Q947.985 722.943 945.1 720.058 Q942.277 717.234 942.24 713.858 Q942.203 710.482 944.977 707.708 Q948.157 704.528 952.269 705.302 Q956.382 706.051 961.022 710.691 Q965.356 715.024 965.884 719.677 Q966.411 724.305 962.937 727.779 Q962.004 728.712 960.863 729.486 Q959.721 730.259 958.321 730.922 M955.486 718.216 Q957.155 716.547 956.983 714.435 Q956.824 712.311 954.835 710.323 Q952.859 708.346 950.735 708.187 Q948.611 708.003 946.942 709.672 Q945.272 711.342 945.444 713.478 Q945.616 715.589 947.592 717.566 Q949.581 719.554 951.692 719.726 Q953.816 719.886 955.486 718.216 Z" fill="#000000" fill-rule="nonzero" fill-opacity="1" /><path clip-path="url(#clip550)" d="M956.32 697.028 L966.055 687.293 L968.142 689.38 L960.678 696.844 L965.172 701.337 Q965.528 700.612 965.982 699.986 Q966.424 699.348 966.964 698.808 Q970.033 695.739 973.507 695.628 Q976.981 695.518 979.854 698.39 Q982.812 701.349 982.616 704.835 Q982.407 708.309 979.056 711.661 Q977.902 712.815 976.502 713.821 Q975.115 714.816 973.446 715.7 L970.954 713.208 Q972.66 712.704 974.133 711.82 Q975.606 710.937 976.92 709.623 Q979.044 707.499 979.166 705.142 Q979.289 702.785 977.374 700.87 Q975.459 698.955 973.102 699.078 Q970.745 699.201 968.621 701.324 Q967.627 702.319 966.853 703.534 Q966.092 704.737 965.528 706.235 L956.32 697.028 Z" fill="#000000" fill-rule="nonzero" fill-opacity="1" /><polyline clip-path="url(#clip550)" style="stroke:#000000; stroke-linecap:round; stroke-linejoin:round; stroke-width:4; stroke-opacity:1; fill:none" points="161.818,662.16 161.818,97.5521 "/>
<polyline clip-path="url(#clip550)" style="stroke:#000000; stroke-linecap:round; stroke-linejoin:round; stroke-width:4; stroke-opacity:1; fill:none" points="161.818,646.181 180.716,646.181 "/>
<polyline clip-path="url(#clip550)" style="stroke:#000000; stroke-linecap:round; stroke-linejoin:round; stroke-width:4; stroke-opacity:1; fill:none" points="161.818,513.121 180.716,513.121 "/>
<polyline clip-path="url(#clip550)" style="stroke:#000000; stroke-linecap:round; stroke-linejoin:round; stroke-width:4; stroke-opacity:1; fill:none" points="161.818,380.061 180.716,380.061 "/>
<polyline clip-path="url(#clip550)" style="stroke:#000000; stroke-linecap:round; stroke-linejoin:round; stroke-width:4; stroke-opacity:1; fill:none" points="161.818,247.002 180.716,247.002 "/>
<polyline clip-path="url(#clip550)" style="stroke:#000000; stroke-linecap:round; stroke-linejoin:round; stroke-width:4; stroke-opacity:1; fill:none" points="161.818,113.942 180.716,113.942 "/>
<path clip-path="url(#clip550)" d="M116.86 635.53 Q114.152 635.53 112.78 638.204 Q111.426 640.86 111.426 646.207 Q111.426 651.537 112.78 654.21 Q114.152 656.867 116.86 656.867 Q119.586 656.867 120.94 654.21 Q122.311 651.537 122.311 646.207 Q122.311 640.86 120.94 638.204 Q119.586 635.53 116.86 635.53 M116.86 632.752 Q121.217 632.752 123.509 636.207 Q125.818 639.644 125.818 646.207 Q125.818 652.752 123.509 656.207 Q121.217 659.644 116.86 659.644 Q112.502 659.644 110.193 656.207 Q107.902 652.752 107.902 646.207 Q107.902 639.644 110.193 636.207 Q112.502 632.752 116.86 632.752 Z" fill="#000000" fill-rule="nonzero" fill-opacity="1" /><path clip-path="url(#clip550)" d="M110.888 523.13 L116.617 523.13 L116.617 503.356 L110.384 504.606 L110.384 501.411 L116.582 500.161 L120.089 500.161 L120.089 523.13 L125.818 523.13 L125.818 526.081 L110.888 526.081 L110.888 523.13 Z" fill="#000000" fill-rule="nonzero" fill-opacity="1" /><path clip-path="url(#clip550)" d="M113.579 390.07 L125.818 390.07 L125.818 393.021 L109.36 393.021 L109.36 390.07 Q111.356 388.004 114.794 384.532 Q118.249 381.042 119.134 380.035 Q120.818 378.143 121.478 376.841 Q122.155 375.522 122.155 374.254 Q122.155 372.188 120.697 370.886 Q119.256 369.584 116.929 369.584 Q115.28 369.584 113.44 370.157 Q111.617 370.73 109.533 371.893 L109.533 368.351 Q111.652 367.501 113.492 367.067 Q115.332 366.633 116.86 366.633 Q120.888 366.633 123.283 368.647 Q125.679 370.66 125.679 374.029 Q125.679 375.626 125.072 377.067 Q124.481 378.49 122.901 380.435 Q122.467 380.938 120.141 383.351 Q117.815 385.747 113.579 390.07 Z" fill="#000000" fill-rule="nonzero" fill-opacity="1" /><path clip-path="url(#clip550)" d="M120.471 245.986 Q122.988 246.524 124.395 248.226 Q125.818 249.927 125.818 252.427 Q125.818 256.264 123.179 258.365 Q120.54 260.465 115.679 260.465 Q114.047 260.465 112.311 260.135 Q110.593 259.823 108.752 259.181 L108.752 255.795 Q110.211 256.646 111.947 257.08 Q113.683 257.514 115.575 257.514 Q118.874 257.514 120.592 256.212 Q122.329 254.91 122.329 252.427 Q122.329 250.135 120.714 248.851 Q119.117 247.549 116.252 247.549 L113.231 247.549 L113.231 244.667 L116.391 244.667 Q118.978 244.667 120.349 243.642 Q121.721 242.601 121.721 240.656 Q121.721 238.66 120.297 237.601 Q118.891 236.524 116.252 236.524 Q114.811 236.524 113.162 236.837 Q111.513 237.149 109.533 237.809 L109.533 234.684 Q111.53 234.129 113.266 233.851 Q115.02 233.573 116.565 233.573 Q120.558 233.573 122.884 235.396 Q125.21 237.201 125.21 240.292 Q125.21 242.445 123.978 243.938 Q122.745 245.413 120.471 245.986 Z" fill="#000000" fill-rule="nonzero" fill-opacity="1" /><path clip-path="url(#clip550)" d="M118.631 104.038 L109.777 117.874 L118.631 117.874 L118.631 104.038 M117.711 100.982 L122.12 100.982 L122.12 117.874 L125.818 117.874 L125.818 120.791 L122.12 120.791 L122.12 126.902 L118.631 126.902 L118.631 120.791 L106.929 120.791 L106.929 117.406 L117.711 100.982 Z" fill="#000000" fill-rule="nonzero" fill-opacity="1" /><path clip-path="url(#clip550)" d="M163.901 20.1758 Q165.313 17.8147 168.809 15.7314 Q170.175 14.9212 174.387 14.9212 Q179.11 14.9212 182.049 18.6712 Q185.012 22.4212 185.012 28.5323 Q185.012 34.6433 182.049 38.3933 Q179.11 42.1433 174.387 42.1433 Q171.54 42.1433 169.48 41.0322 Q167.443 39.8979 166.1 37.5831 L166.1 51.3331 L161.818 51.3331 L161.818 28.7637 Q161.818 23.4165 163.901 20.1758 M180.591 28.5323 Q180.591 23.8332 178.647 21.1712 Q176.725 18.486 173.346 18.486 Q169.966 18.486 168.022 21.1712 Q166.1 23.8332 166.1 28.5323 Q166.1 33.2313 168.022 35.9165 Q169.966 38.5785 173.346 38.5785 Q176.725 38.5785 178.647 35.9165 Q180.591 33.2313 180.591 28.5323 Z" fill="#000000" fill-rule="nonzero" fill-opacity="1" /><polyline clip-path="url(#clip552)" style="stroke:#009af9; stroke-linecap:round; stroke-linejoin:round; stroke-width:4; stroke-opacity:1; fill:none" points="189.869,587.836 248.307,592.115 306.746,596.931 365.185,602.393 423.623,608.639 482.062,615.85 540.501,624.268 598.939,634.224 657.378,646.181 715.817,631.554 774.256,613.253 832.694,589.693 891.133,558.229 949.572,514.086 1008.01,447.665 1066.45,336.469 1124.89,113.532 "/>
<circle clip-path="url(#clip552)" cx="657.378" cy="646.181" r="10.8" fill="#ff0000" fill-rule="evenodd" fill-opacity="1" stroke="#000000" stroke-opacity="1" stroke-width="3.2"/>
<path clip-path="url(#clip550)" d="M1361.64 662.16 L2352.76 662.16 L2352.76 97.5521 L1361.64 97.5521  Z" fill="#ffffff" fill-rule="evenodd" fill-opacity="1"/>
<defs>
  <clipPath id="clip553">
    <rect x="1361" y="97" width="992" height="566"/>
  </clipPath>
</defs>
<polyline clip-path="url(#clip553)" style="stroke:#000000; stroke-linecap:round; stroke-linejoin:round; stroke-width:2; stroke-opacity:0.1; fill:none" points="1484.71,662.16 1484.71,97.5521 "/>
<polyline clip-path="url(#clip553)" style="stroke:#000000; stroke-linecap:round; stroke-linejoin:round; stroke-width:2; stroke-opacity:0.1; fill:none" points="1628.13,662.16 1628.13,97.5521 "/>
<polyline clip-path="url(#clip553)" style="stroke:#000000; stroke-linecap:round; stroke-linejoin:round; stroke-width:2; stroke-opacity:0.1; fill:none" points="1771.55,662.16 1771.55,97.5521 "/>
<polyline clip-path="url(#clip553)" style="stroke:#000000; stroke-linecap:round; stroke-linejoin:round; stroke-width:2; stroke-opacity:0.1; fill:none" points="1914.97,662.16 1914.97,97.5521 "/>
<polyline clip-path="url(#clip553)" style="stroke:#000000; stroke-linecap:round; stroke-linejoin:round; stroke-width:2; stroke-opacity:0.1; fill:none" points="2058.39,662.16 2058.39,97.5521 "/>
<polyline clip-path="url(#clip553)" style="stroke:#000000; stroke-linecap:round; stroke-linejoin:round; stroke-width:2; stroke-opacity:0.1; fill:none" points="2201.82,662.16 2201.82,97.5521 "/>
<polyline clip-path="url(#clip553)" style="stroke:#000000; stroke-linecap:round; stroke-linejoin:round; stroke-width:2; stroke-opacity:0.1; fill:none" points="2345.24,662.16 2345.24,97.5521 "/>
<polyline clip-path="url(#clip553)" style="stroke:#000000; stroke-linecap:round; stroke-linejoin:round; stroke-width:2; stroke-opacity:0.1; fill:none" points="1361.64,646.181 2352.76,646.181 "/>
<polyline clip-path="url(#clip553)" style="stroke:#000000; stroke-linecap:round; stroke-linejoin:round; stroke-width:2; stroke-opacity:0.1; fill:none" points="1361.64,504.579 2352.76,504.579 "/>
<polyline clip-path="url(#clip553)" style="stroke:#000000; stroke-linecap:round; stroke-linejoin:round; stroke-width:2; stroke-opacity:0.1; fill:none" points="1361.64,362.978 2352.76,362.978 "/>
<polyline clip-path="url(#clip553)" style="stroke:#000000; stroke-linecap:round; stroke-linejoin:round; stroke-width:2; stroke-opacity:0.1; fill:none" points="1361.64,221.376 2352.76,221.376 "/>
<polyline clip-path="url(#clip550)" style="stroke:#000000; stroke-linecap:round; stroke-linejoin:round; stroke-width:4; stroke-opacity:1; fill:none" points="1361.64,662.16 2352.76,662.16 "/>
<polyline clip-path="url(#clip550)" style="stroke:#000000; stroke-linecap:round; stroke-linejoin:round; stroke-width:4; stroke-opacity:1; fill:none" points="1484.71,662.16 1484.71,643.263 "/>
<polyline clip-path="url(#clip550)" style="stroke:#000000; stroke-linecap:round; stroke-linejoin:round; stroke-width:4; stroke-opacity:1; fill:none" points="1628.13,662.16 1628.13,643.263 "/>
<polyline clip-path="url(#clip550)" style="stroke:#000000; stroke-linecap:round; stroke-linejoin:round; stroke-width:4; stroke-opacity:1; fill:none" points="1771.55,662.16 1771.55,643.263 "/>
<polyline clip-path="url(#clip550)" style="stroke:#000000; stroke-linecap:round; stroke-linejoin:round; stroke-width:4; stroke-opacity:1; fill:none" points="1914.97,662.16 1914.97,643.263 "/>
<polyline clip-path="url(#clip550)" style="stroke:#000000; stroke-linecap:round; stroke-linejoin:round; stroke-width:4; stroke-opacity:1; fill:none" points="2058.39,662.16 2058.39,643.263 "/>
<polyline clip-path="url(#clip550)" style="stroke:#000000; stroke-linecap:round; stroke-linejoin:round; stroke-width:4; stroke-opacity:1; fill:none" points="2201.82,662.16 2201.82,643.263 "/>
<polyline clip-path="url(#clip550)" style="stroke:#000000; stroke-linecap:round; stroke-linejoin:round; stroke-width:4; stroke-opacity:1; fill:none" points="2345.24,662.16 2345.24,643.263 "/>
<path clip-path="url(#clip550)" d="M1430.86 733.893 Q1428.95 735.808 1429.87 738.668 Q1430.79 741.504 1434.57 745.285 Q1438.34 749.054 1441.19 749.987 Q1444.04 750.895 1445.95 748.98 Q1447.88 747.053 1446.96 744.217 Q1446.04 741.357 1442.27 737.588 Q1438.49 733.807 1435.64 732.898 Q1432.79 731.966 1430.86 733.893 M1428.9 731.929 Q1431.98 728.847 1436.04 729.67 Q1440.11 730.468 1444.75 735.108 Q1449.38 739.736 1450.19 743.812 Q1451 747.863 1447.92 750.944 Q1444.83 754.026 1440.77 753.228 Q1436.71 752.405 1432.08 747.777 Q1427.44 743.137 1426.63 739.086 Q1425.82 735.01 1428.9 731.929 Z" fill="#000000" fill-rule="nonzero" fill-opacity="1" /><path clip-path="url(#clip550)" d="M1455.13 736.778 L1457.72 734.187 L1460.84 737.306 L1458.25 739.896 L1455.13 736.778 Z" fill="#000000" fill-rule="nonzero" fill-opacity="1" /><path clip-path="url(#clip550)" d="M1463.87 714.509 Q1466.04 713.109 1468.23 713.318 Q1470.44 713.515 1472.21 715.282 Q1474.92 717.995 1474.54 721.347 Q1474.16 724.698 1470.72 728.135 Q1469.57 729.289 1468.11 730.284 Q1466.67 731.278 1464.92 732.125 L1462.52 729.731 Q1464.16 729.302 1465.69 728.381 Q1467.23 727.46 1468.56 726.122 Q1470.9 723.79 1471.19 721.654 Q1471.5 719.505 1469.74 717.75 Q1468.12 716.129 1466.07 716.363 Q1464.02 716.571 1462 718.597 L1459.86 720.733 L1457.82 718.695 L1460.06 716.461 Q1461.89 714.632 1462.13 712.938 Q1462.36 711.231 1460.99 709.856 Q1459.58 708.445 1457.82 708.702 Q1456.07 708.936 1454.2 710.802 Q1453.18 711.82 1452.24 713.208 Q1451.29 714.595 1450.36 716.461 L1448.15 714.251 Q1449.17 712.447 1450.2 711.022 Q1451.24 709.586 1452.34 708.494 Q1455.16 705.67 1458.09 705.314 Q1461.01 704.946 1463.2 707.131 Q1464.72 708.653 1464.91 710.581 Q1465.08 712.496 1463.87 714.509 Z" fill="#000000" fill-rule="nonzero" fill-opacity="1" /><path clip-path="url(#clip550)" d="M1470.85 693.91 Q1468.93 695.825 1469.85 698.685 Q1470.77 701.521 1474.55 705.302 Q1478.32 709.071 1481.17 710.004 Q1484.02 710.912 1485.93 708.997 Q1487.86 707.07 1486.94 704.234 Q1486.02 701.373 1482.25 697.605 Q1478.47 693.824 1475.62 692.915 Q1472.77 691.982 1470.85 693.91 M1468.88 691.945 Q1471.96 688.864 1476.03 689.687 Q1480.09 690.485 1484.73 695.125 Q1489.36 699.753 1490.17 703.829 Q1490.98 707.88 1487.9 710.961 Q1484.82 714.042 1480.75 713.244 Q1476.69 712.422 1472.06 707.794 Q1467.42 703.154 1466.61 699.102 Q1465.8 695.027 1468.88 691.945 Z" fill="#000000" fill-rule="nonzero" fill-opacity="1" /><path clip-path="url(#clip550)" d="M1574.94 733.242 Q1573.02 735.157 1573.94 738.018 Q1574.86 740.853 1578.64 744.634 Q1582.41 748.403 1585.26 749.336 Q1588.11 750.245 1590.02 748.33 Q1591.95 746.402 1591.03 743.566 Q1590.11 740.706 1586.34 736.937 Q1582.56 733.156 1579.71 732.248 Q1576.86 731.315 1574.94 733.242 M1572.97 731.278 Q1576.05 728.197 1580.12 729.019 Q1584.18 729.817 1588.82 734.458 Q1593.45 739.086 1594.26 743.161 Q1595.07 747.212 1591.99 750.294 Q1588.91 753.375 1584.84 752.577 Q1580.78 751.755 1576.15 747.126 Q1571.51 742.486 1570.7 738.435 Q1569.89 734.359 1572.97 731.278 Z" fill="#000000" fill-rule="nonzero" fill-opacity="1" /><path clip-path="url(#clip550)" d="M1599.21 736.127 L1601.8 733.537 L1604.91 736.655 L1602.32 739.245 L1599.21 736.127 Z" fill="#000000" fill-rule="nonzero" fill-opacity="1" /><path clip-path="url(#clip550)" d="M1607.95 713.858 Q1610.11 712.459 1612.3 712.667 Q1614.51 712.864 1616.28 714.632 Q1618.99 717.345 1618.61 720.696 Q1618.23 724.047 1614.8 727.485 Q1613.64 728.639 1612.18 729.633 Q1610.74 730.627 1608.99 731.474 L1606.6 729.081 Q1608.23 728.651 1609.76 727.73 Q1611.3 726.81 1612.64 725.471 Q1614.97 723.139 1615.26 721.003 Q1615.57 718.855 1613.81 717.099 Q1612.19 715.479 1610.14 715.712 Q1608.09 715.921 1606.07 717.946 L1603.93 720.082 L1601.89 718.044 L1604.13 715.81 Q1605.96 713.981 1606.2 712.287 Q1606.44 710.581 1605.06 709.206 Q1603.65 707.794 1601.89 708.052 Q1600.14 708.285 1598.27 710.151 Q1597.25 711.17 1596.31 712.557 Q1595.36 713.944 1594.43 715.81 L1592.22 713.6 Q1593.24 711.796 1594.27 710.372 Q1595.31 708.936 1596.41 707.843 Q1599.23 705.019 1602.16 704.663 Q1605.09 704.295 1607.27 706.48 Q1608.79 708.003 1608.98 709.93 Q1609.15 711.845 1607.95 713.858 Z" fill="#000000" fill-rule="nonzero" fill-opacity="1" /><path clip-path="url(#clip550)" d="M1624.65 712.741 L1628.7 708.69 L1614.72 694.708 L1611.2 699.999 L1608.94 697.74 L1612.44 692.473 L1614.92 689.994 L1631.16 706.235 L1635.21 702.184 L1637.3 704.271 L1626.74 714.828 L1624.65 712.741 Z" fill="#000000" fill-rule="nonzero" fill-opacity="1" /><path clip-path="url(#clip550)" d="M1718.55 733.046 Q1716.64 734.961 1717.56 737.821 Q1718.48 740.657 1722.26 744.438 Q1726.03 748.207 1728.88 749.14 Q1731.72 750.048 1733.64 748.133 Q1735.57 746.206 1734.65 743.37 Q1733.73 740.51 1729.96 736.741 Q1726.18 732.96 1723.33 732.051 Q1720.48 731.118 1718.55 733.046 M1716.59 731.082 Q1719.67 728 1723.73 728.823 Q1727.8 729.621 1732.44 734.261 Q1737.06 738.889 1737.87 742.965 Q1738.68 747.016 1735.6 750.097 Q1732.52 753.179 1728.46 752.381 Q1724.4 751.558 1719.77 746.93 Q1715.13 742.29 1714.32 738.239 Q1713.51 734.163 1716.59 731.082 Z" fill="#000000" fill-rule="nonzero" fill-opacity="1" /><path clip-path="url(#clip550)" d="M1742.82 735.931 L1745.41 733.34 L1748.53 736.459 L1745.94 739.049 L1742.82 735.931 Z" fill="#000000" fill-rule="nonzero" fill-opacity="1" /><path clip-path="url(#clip550)" d="M1751.56 713.662 Q1753.72 712.262 1755.92 712.471 Q1758.13 712.667 1759.9 714.435 Q1762.61 717.148 1762.23 720.5 Q1761.85 723.851 1758.41 727.288 Q1757.26 728.442 1755.8 729.437 Q1754.36 730.431 1752.61 731.278 L1750.21 728.884 Q1751.84 728.455 1753.38 727.534 Q1754.91 726.613 1756.25 725.275 Q1758.58 722.943 1758.88 720.807 Q1759.19 718.658 1757.43 716.903 Q1755.81 715.282 1753.76 715.516 Q1751.71 715.724 1749.68 717.75 L1747.55 719.886 L1745.51 717.848 L1747.74 715.614 Q1749.57 713.785 1749.82 712.091 Q1750.05 710.384 1748.68 709.009 Q1747.27 707.597 1745.51 707.855 Q1743.75 708.088 1741.89 709.954 Q1740.87 710.973 1739.92 712.361 Q1738.98 713.748 1738.05 715.614 L1735.84 713.404 Q1736.86 711.599 1737.89 710.175 Q1738.93 708.739 1740.02 707.647 Q1742.85 704.823 1745.78 704.467 Q1748.7 704.099 1750.89 706.284 Q1752.41 707.806 1752.59 709.733 Q1752.77 711.649 1751.56 713.662 Z" fill="#000000" fill-rule="nonzero" fill-opacity="1" /><path clip-path="url(#clip550)" d="M1769.98 710.838 L1778.63 702.184 L1780.72 704.271 L1769.08 715.908 L1766.99 713.821 Q1766.94 710.949 1766.92 706.063 Q1766.9 701.153 1766.81 699.814 Q1766.66 697.286 1766.21 695.898 Q1765.75 694.487 1764.86 693.59 Q1763.4 692.13 1761.44 692.24 Q1759.51 692.338 1757.86 693.983 Q1756.69 695.149 1755.8 696.856 Q1754.91 698.55 1754.26 700.846 L1751.76 698.341 Q1752.66 696.242 1753.65 694.634 Q1754.64 693.026 1755.72 691.945 Q1758.57 689.097 1761.69 688.827 Q1764.81 688.557 1767.19 690.939 Q1768.32 692.068 1768.91 693.517 Q1769.5 694.941 1769.76 697.433 Q1769.8 698.096 1769.87 701.447 Q1769.92 704.786 1769.98 710.838 Z" fill="#000000" fill-rule="nonzero" fill-opacity="1" /><path clip-path="url(#clip550)" d="M1861.47 733.549 Q1859.55 735.464 1860.47 738.325 Q1861.4 741.16 1865.18 744.941 Q1868.95 748.71 1871.79 749.643 Q1874.64 750.552 1876.56 748.636 Q1878.48 746.709 1877.56 743.873 Q1876.64 741.013 1872.87 737.244 Q1869.09 733.463 1866.24 732.555 Q1863.4 731.622 1861.47 733.549 M1859.51 731.585 Q1862.59 728.504 1866.65 729.326 Q1870.71 730.124 1875.35 734.764 Q1879.98 739.393 1880.79 743.468 Q1881.6 747.519 1878.52 750.601 Q1875.44 753.682 1871.38 752.884 Q1867.31 752.061 1862.68 747.433 Q1858.04 742.793 1857.23 738.742 Q1856.42 734.666 1859.51 731.585 Z" fill="#000000" fill-rule="nonzero" fill-opacity="1" /><path clip-path="url(#clip550)" d="M1885.74 736.434 L1888.33 733.844 L1891.45 736.962 L1888.86 739.552 L1885.74 736.434 Z" fill="#000000" fill-rule="nonzero" fill-opacity="1" /><path clip-path="url(#clip550)" d="M1894.48 714.165 Q1896.64 712.766 1898.84 712.974 Q1901.05 713.171 1902.82 714.939 Q1905.53 717.652 1905.15 721.003 Q1904.77 724.354 1901.33 727.792 Q1900.18 728.946 1898.71 729.94 Q1897.28 730.934 1895.52 731.781 L1893.13 729.388 Q1894.76 728.958 1896.3 728.037 Q1897.83 727.116 1899.17 725.778 Q1901.5 723.446 1901.8 721.31 Q1902.1 719.162 1900.35 717.406 Q1898.73 715.786 1896.68 716.019 Q1894.63 716.228 1892.6 718.253 L1890.47 720.389 L1888.43 718.351 L1890.66 716.117 Q1892.49 714.288 1892.74 712.594 Q1892.97 710.887 1891.59 709.513 Q1890.18 708.101 1888.43 708.359 Q1886.67 708.592 1884.81 710.458 Q1883.79 711.477 1882.84 712.864 Q1881.9 714.251 1880.96 716.117 L1878.75 713.907 Q1879.77 712.103 1880.8 710.679 Q1881.85 709.242 1882.94 708.15 Q1885.76 705.326 1888.7 704.97 Q1891.62 704.602 1893.8 706.787 Q1895.33 708.309 1895.51 710.237 Q1895.68 712.152 1894.48 714.165 Z" fill="#000000" fill-rule="nonzero" fill-opacity="1" /><path clip-path="url(#clip550)" d="M1910.48 698.169 Q1912.64 696.77 1914.83 696.979 Q1917.04 697.175 1918.81 698.943 Q1921.52 701.656 1921.14 705.007 Q1920.76 708.359 1917.33 711.796 Q1916.17 712.95 1914.71 713.944 Q1913.27 714.939 1911.52 715.786 L1909.13 713.392 Q1910.76 712.962 1912.29 712.041 Q1913.83 711.121 1915.16 709.783 Q1917.5 707.45 1917.79 705.314 Q1918.1 703.166 1916.34 701.41 Q1914.72 699.79 1912.67 700.023 Q1910.62 700.232 1908.6 702.257 L1906.46 704.393 L1904.42 702.356 L1906.66 700.121 Q1908.49 698.292 1908.73 696.598 Q1908.97 694.892 1907.59 693.517 Q1906.18 692.105 1904.42 692.363 Q1902.67 692.596 1900.8 694.462 Q1899.78 695.481 1898.84 696.868 Q1897.89 698.255 1896.96 700.121 L1894.75 697.912 Q1895.77 696.107 1896.8 694.683 Q1897.84 693.247 1898.94 692.154 Q1901.76 689.331 1904.69 688.975 Q1907.62 688.606 1909.8 690.791 Q1911.32 692.314 1911.51 694.241 Q1911.68 696.156 1910.48 698.169 Z" fill="#000000" fill-rule="nonzero" fill-opacity="1" /><path clip-path="url(#clip550)" d="M2004.29 734.151 Q2002.37 736.066 2003.29 738.926 Q2004.21 741.762 2008 745.543 Q2011.76 749.312 2014.61 750.245 Q2017.46 751.153 2019.38 749.238 Q2021.3 747.311 2020.38 744.475 Q2019.46 741.615 2015.69 737.846 Q2011.91 734.065 2009.06 733.156 Q2006.22 732.223 2004.29 734.151 M2002.32 732.186 Q2005.41 729.105 2009.47 729.928 Q2013.53 730.726 2018.17 735.366 Q2022.8 739.994 2023.61 744.07 Q2024.42 748.121 2021.34 751.202 Q2018.26 754.283 2014.19 753.485 Q2010.13 752.663 2005.5 748.035 Q2000.86 743.395 2000.05 739.343 Q1999.24 735.268 2002.32 732.186 Z" fill="#000000" fill-rule="nonzero" fill-opacity="1" /><path clip-path="url(#clip550)" d="M2028.56 737.036 L2031.15 734.445 L2034.27 737.563 L2031.68 740.154 L2028.56 737.036 Z" fill="#000000" fill-rule="nonzero" fill-opacity="1" /><path clip-path="url(#clip550)" d="M2037.3 714.767 Q2039.46 713.367 2041.66 713.576 Q2043.87 713.772 2045.63 715.54 Q2048.35 718.253 2047.97 721.604 Q2047.59 724.956 2044.15 728.393 Q2042.99 729.547 2041.53 730.541 Q2040.1 731.536 2038.34 732.383 L2035.95 729.989 Q2037.58 729.559 2039.12 728.639 Q2040.65 727.718 2041.99 726.38 Q2044.32 724.047 2044.62 721.911 Q2044.92 719.763 2043.17 718.008 Q2041.55 716.387 2039.5 716.62 Q2037.45 716.829 2035.42 718.855 L2033.28 720.991 L2031.25 718.953 L2033.48 716.719 Q2035.31 714.889 2035.56 713.195 Q2035.79 711.489 2034.41 710.114 Q2033 708.702 2031.25 708.96 Q2029.49 709.193 2027.62 711.059 Q2026.61 712.078 2025.66 713.465 Q2024.72 714.853 2023.78 716.719 L2021.57 714.509 Q2022.59 712.704 2023.62 711.28 Q2024.67 709.844 2025.76 708.751 Q2028.58 705.928 2031.52 705.572 Q2034.44 705.204 2036.62 707.389 Q2038.15 708.911 2038.33 710.838 Q2038.5 712.753 2037.3 714.767 Z" fill="#000000" fill-rule="nonzero" fill-opacity="1" /><path clip-path="url(#clip550)" d="M2046.31 693.185 L2049.83 709.23 L2056.09 702.969 L2046.31 693.185 M2043.5 691.675 L2046.62 688.557 L2058.56 700.502 L2061.18 697.887 L2063.24 699.949 L2060.62 702.564 L2064.94 706.885 L2062.48 709.353 L2058.16 705.032 L2049.88 713.306 L2047.49 710.912 L2043.5 691.675 Z" fill="#000000" fill-rule="nonzero" fill-opacity="1" /><path clip-path="url(#clip550)" d="M2148.49 733.365 Q2146.58 735.28 2147.5 738.14 Q2148.42 740.976 2152.2 744.757 Q2155.97 748.526 2158.82 749.459 Q2161.67 750.367 2163.58 748.452 Q2165.51 746.525 2164.59 743.689 Q2163.67 740.829 2159.9 737.06 Q2156.12 733.279 2153.27 732.371 Q2150.42 731.438 2148.49 733.365 M2146.53 731.401 Q2149.61 728.32 2153.67 729.142 Q2157.74 729.94 2162.38 734.58 Q2167.01 739.208 2167.82 743.284 Q2168.63 747.335 2165.55 750.416 Q2162.46 753.498 2158.4 752.7 Q2154.34 751.877 2149.71 747.249 Q2145.07 742.609 2144.26 738.558 Q2143.45 734.482 2146.53 731.401 Z" fill="#000000" fill-rule="nonzero" fill-opacity="1" /><path clip-path="url(#clip550)" d="M2172.76 736.25 L2175.35 733.66 L2178.47 736.778 L2175.88 739.368 L2172.76 736.25 Z" fill="#000000" fill-rule="nonzero" fill-opacity="1" /><path clip-path="url(#clip550)" d="M2181.5 713.981 Q2183.67 712.582 2185.86 712.79 Q2188.07 712.987 2189.84 714.754 Q2192.55 717.467 2192.17 720.819 Q2191.79 724.17 2188.35 727.607 Q2187.2 728.761 2185.74 729.756 Q2184.3 730.75 2182.55 731.597 L2180.15 729.203 Q2181.79 728.774 2183.32 727.853 Q2184.86 726.932 2186.19 725.594 Q2188.53 723.262 2188.82 721.126 Q2189.13 718.977 2187.37 717.222 Q2185.75 715.601 2183.7 715.835 Q2181.65 716.043 2179.63 718.069 L2177.49 720.205 L2175.45 718.167 L2177.69 715.933 Q2179.52 714.104 2179.76 712.41 Q2179.99 710.703 2178.62 709.328 Q2177.21 707.917 2175.45 708.174 Q2173.7 708.408 2171.83 710.274 Q2170.81 711.293 2169.87 712.68 Q2168.92 714.067 2167.99 715.933 L2165.78 713.723 Q2166.8 711.919 2167.83 710.495 Q2168.87 709.058 2169.97 707.966 Q2172.79 705.142 2175.72 704.786 Q2178.64 704.418 2180.83 706.603 Q2182.35 708.125 2182.54 710.053 Q2182.71 711.968 2181.5 713.981 Z" fill="#000000" fill-rule="nonzero" fill-opacity="1" /><path clip-path="url(#clip550)" d="M2181.57 697.028 L2191.3 687.293 L2193.39 689.38 L2185.92 696.844 L2190.42 701.337 Q2190.77 700.612 2191.23 699.986 Q2191.67 699.348 2192.21 698.808 Q2195.28 695.739 2198.75 695.628 Q2202.23 695.518 2205.1 698.39 Q2208.06 701.349 2207.86 704.835 Q2207.65 708.309 2204.3 711.661 Q2203.15 712.815 2201.75 713.821 Q2200.36 714.816 2198.69 715.7 L2196.2 713.208 Q2197.91 712.704 2199.38 711.82 Q2200.85 710.937 2202.17 709.623 Q2204.29 707.499 2204.41 705.142 Q2204.53 702.785 2202.62 700.87 Q2200.7 698.955 2198.35 699.078 Q2195.99 699.201 2193.87 701.324 Q2192.87 702.319 2192.1 703.534 Q2191.34 704.737 2190.77 706.235 L2181.57 697.028 Z" fill="#000000" fill-rule="nonzero" fill-opacity="1" /><path clip-path="url(#clip550)" d="M2291.3 733.979 Q2289.39 735.894 2290.31 738.754 Q2291.23 741.59 2295.01 745.371 Q2298.78 749.14 2301.62 750.073 Q2304.47 750.981 2306.39 749.066 Q2308.32 747.139 2307.39 744.303 Q2306.47 741.443 2302.71 737.674 Q2298.92 733.893 2296.08 732.984 Q2293.23 732.051 2291.3 733.979 M2289.34 732.015 Q2292.42 728.933 2296.48 729.756 Q2300.54 730.554 2305.19 735.194 Q2309.81 739.822 2310.62 743.898 Q2311.43 747.949 2308.35 751.03 Q2305.27 754.112 2301.21 753.314 Q2297.14 752.491 2292.52 747.863 Q2287.88 743.223 2287.07 739.172 Q2286.26 735.096 2289.34 732.015 Z" fill="#000000" fill-rule="nonzero" fill-opacity="1" /><path clip-path="url(#clip550)" d="M2315.57 736.864 L2318.16 734.273 L2321.28 737.392 L2318.69 739.982 L2315.57 736.864 Z" fill="#000000" fill-rule="nonzero" fill-opacity="1" /><path clip-path="url(#clip550)" d="M2324.31 714.595 Q2326.47 713.195 2328.67 713.404 Q2330.88 713.6 2332.65 715.368 Q2335.36 718.081 2334.98 721.433 Q2334.6 724.784 2331.16 728.221 Q2330.01 729.375 2328.55 730.37 Q2327.11 731.364 2325.35 732.211 L2322.96 729.817 Q2324.59 729.388 2326.13 728.467 Q2327.66 727.546 2329 726.208 Q2331.33 723.876 2331.63 721.74 Q2331.93 719.591 2330.18 717.836 Q2328.56 716.215 2326.51 716.449 Q2324.46 716.657 2322.43 718.683 L2320.3 720.819 L2318.26 718.781 L2320.49 716.547 Q2322.32 714.718 2322.57 713.023 Q2322.8 711.317 2321.43 709.942 Q2320.01 708.53 2318.26 708.788 Q2316.5 709.021 2314.64 710.887 Q2313.62 711.906 2312.67 713.294 Q2311.73 714.681 2310.8 716.547 L2308.59 714.337 Q2309.6 712.532 2310.64 711.108 Q2311.68 709.672 2312.77 708.58 Q2315.6 705.756 2318.53 705.4 Q2321.45 705.032 2323.64 707.217 Q2325.16 708.739 2325.34 710.666 Q2325.51 712.582 2324.31 714.595 Z" fill="#000000" fill-rule="nonzero" fill-opacity="1" /><path clip-path="url(#clip550)" d="M2338.13 700.232 Q2336.46 701.901 2336.62 704.025 Q2336.8 706.137 2338.78 708.125 Q2340.76 710.102 2342.88 710.286 Q2345.01 710.446 2346.68 708.776 Q2348.35 707.106 2348.18 704.995 Q2348 702.859 2346.03 700.882 Q2344.04 698.894 2341.92 698.734 Q2339.8 698.562 2338.13 700.232 M2335.29 687.538 L2337.54 689.797 Q2336.17 690.288 2334.98 691.012 Q2333.8 691.724 2332.87 692.657 Q2330.41 695.113 2330.77 698.071 Q2331.14 701.017 2334.3 704.553 Q2333.96 702.761 2334.49 701.103 Q2335 699.434 2336.32 698.12 Q2339.08 695.358 2342.36 695.444 Q2345.63 695.506 2348.52 698.39 Q2351.34 701.214 2351.38 704.59 Q2351.42 707.966 2348.64 710.74 Q2345.46 713.92 2341.35 713.171 Q2337.23 712.41 2332.6 707.782 Q2328.25 703.436 2327.74 698.795 Q2327.21 694.143 2330.68 690.669 Q2331.62 689.736 2332.74 688.975 Q2333.89 688.201 2335.29 687.538 Z" fill="#000000" fill-rule="nonzero" fill-opacity="1" /><polyline clip-path="url(#clip550)" style="stroke:#000000; stroke-linecap:round; stroke-linejoin:round; stroke-width:4; stroke-opacity:1; fill:none" points="1361.64,662.16 1361.64,97.5521 "/>
<polyline clip-path="url(#clip550)" style="stroke:#000000; stroke-linecap:round; stroke-linejoin:round; stroke-width:4; stroke-opacity:1; fill:none" points="1361.64,646.181 1380.53,646.181 "/>
<polyline clip-path="url(#clip550)" style="stroke:#000000; stroke-linecap:round; stroke-linejoin:round; stroke-width:4; stroke-opacity:1; fill:none" points="1361.64,504.579 1380.53,504.579 "/>
<polyline clip-path="url(#clip550)" style="stroke:#000000; stroke-linecap:round; stroke-linejoin:round; stroke-width:4; stroke-opacity:1; fill:none" points="1361.64,362.978 1380.53,362.978 "/>
<polyline clip-path="url(#clip550)" style="stroke:#000000; stroke-linecap:round; stroke-linejoin:round; stroke-width:4; stroke-opacity:1; fill:none" points="1361.64,221.376 1380.53,221.376 "/>
<path clip-path="url(#clip550)" d="M1260.13 635.53 Q1257.42 635.53 1256.05 638.204 Q1254.7 640.86 1254.7 646.207 Q1254.7 651.537 1256.05 654.21 Q1257.42 656.867 1260.13 656.867 Q1262.86 656.867 1264.21 654.21 Q1265.58 651.537 1265.58 646.207 Q1265.58 640.86 1264.21 638.204 Q1262.86 635.53 1260.13 635.53 M1260.13 632.752 Q1264.49 632.752 1266.78 636.207 Q1269.09 639.644 1269.09 646.207 Q1269.09 652.752 1266.78 656.207 Q1264.49 659.644 1260.13 659.644 Q1255.78 659.644 1253.47 656.207 Q1251.17 652.752 1251.17 646.207 Q1251.17 639.644 1253.47 636.207 Q1255.78 632.752 1260.13 632.752 Z" fill="#000000" fill-rule="nonzero" fill-opacity="1" /><path clip-path="url(#clip550)" d="M1275.25 654.731 L1278.92 654.731 L1278.92 659.141 L1275.25 659.141 L1275.25 654.731 Z" fill="#000000" fill-rule="nonzero" fill-opacity="1" /><path clip-path="url(#clip550)" d="M1294.06 635.53 Q1291.35 635.53 1289.98 638.204 Q1288.62 640.86 1288.62 646.207 Q1288.62 651.537 1289.98 654.21 Q1291.35 656.867 1294.06 656.867 Q1296.78 656.867 1298.14 654.21 Q1299.51 651.537 1299.51 646.207 Q1299.51 640.86 1298.14 638.204 Q1296.78 635.53 1294.06 635.53 M1294.06 632.752 Q1298.41 632.752 1300.71 636.207 Q1303.01 639.644 1303.01 646.207 Q1303.01 652.752 1300.71 656.207 Q1298.41 659.644 1294.06 659.644 Q1289.7 659.644 1287.39 656.207 Q1285.1 652.752 1285.1 646.207 Q1285.1 639.644 1287.39 636.207 Q1289.7 632.752 1294.06 632.752 Z" fill="#000000" fill-rule="nonzero" fill-opacity="1" /><path clip-path="url(#clip550)" d="M1316.68 635.53 Q1313.97 635.53 1312.6 638.204 Q1311.24 640.86 1311.24 646.207 Q1311.24 651.537 1312.6 654.21 Q1313.97 656.867 1316.68 656.867 Q1319.4 656.867 1320.76 654.21 Q1322.13 651.537 1322.13 646.207 Q1322.13 640.86 1320.76 638.204 Q1319.4 635.53 1316.68 635.53 M1316.68 632.752 Q1321.04 632.752 1323.33 636.207 Q1325.64 639.644 1325.64 646.207 Q1325.64 652.752 1323.33 656.207 Q1321.04 659.644 1316.68 659.644 Q1312.32 659.644 1310.01 656.207 Q1307.72 652.752 1307.72 646.207 Q1307.72 639.644 1310.01 636.207 Q1312.32 632.752 1316.68 632.752 Z" fill="#000000" fill-rule="nonzero" fill-opacity="1" /><path clip-path="url(#clip550)" d="M1260.88 493.928 Q1258.17 493.928 1256.8 496.602 Q1255.45 499.258 1255.45 504.605 Q1255.45 509.935 1256.8 512.609 Q1258.17 515.265 1260.88 515.265 Q1263.6 515.265 1264.96 512.609 Q1266.33 509.935 1266.33 504.605 Q1266.33 499.258 1264.96 496.602 Q1263.6 493.928 1260.88 493.928 M1260.88 491.151 Q1265.24 491.151 1267.53 494.605 Q1269.84 498.043 1269.84 504.605 Q1269.84 511.151 1267.53 514.605 Q1265.24 518.043 1260.88 518.043 Q1256.52 518.043 1254.21 514.605 Q1251.92 511.151 1251.92 504.605 Q1251.92 498.043 1254.21 494.605 Q1256.52 491.151 1260.88 491.151 Z" fill="#000000" fill-rule="nonzero" fill-opacity="1" /><path clip-path="url(#clip550)" d="M1276 513.13 L1279.66 513.13 L1279.66 517.539 L1276 517.539 L1276 513.13 Z" fill="#000000" fill-rule="nonzero" fill-opacity="1" /><path clip-path="url(#clip550)" d="M1294.8 493.928 Q1292.09 493.928 1290.72 496.602 Q1289.37 499.258 1289.37 504.605 Q1289.37 509.935 1290.72 512.609 Q1292.09 515.265 1294.8 515.265 Q1297.53 515.265 1298.88 512.609 Q1300.25 509.935 1300.25 504.605 Q1300.25 499.258 1298.88 496.602 Q1297.53 493.928 1294.8 493.928 M1294.8 491.151 Q1299.16 491.151 1301.45 494.605 Q1303.76 498.043 1303.76 504.605 Q1303.76 511.151 1301.45 514.605 Q1299.16 518.043 1294.8 518.043 Q1290.45 518.043 1288.14 514.605 Q1285.84 511.151 1285.84 504.605 Q1285.84 498.043 1288.14 494.605 Q1290.45 491.151 1294.8 491.151 Z" fill="#000000" fill-rule="nonzero" fill-opacity="1" /><path clip-path="url(#clip550)" d="M1309.96 491.619 L1323.73 491.619 L1323.73 494.571 L1313.17 494.571 L1313.17 500.925 Q1313.93 500.664 1314.7 500.543 Q1315.46 500.404 1316.23 500.404 Q1320.57 500.404 1323.1 502.783 Q1325.64 505.161 1325.64 509.223 Q1325.64 513.407 1323.03 515.734 Q1320.43 518.043 1315.69 518.043 Q1314.06 518.043 1312.35 517.765 Q1310.67 517.487 1308.87 516.932 L1308.87 513.407 Q1310.43 514.258 1312.09 514.675 Q1313.76 515.091 1315.62 515.091 Q1318.62 515.091 1320.38 513.512 Q1322.13 511.932 1322.13 509.223 Q1322.13 506.515 1320.38 504.935 Q1318.62 503.355 1315.62 503.355 Q1314.21 503.355 1312.81 503.668 Q1311.42 503.98 1309.96 504.64 L1309.96 491.619 Z" fill="#000000" fill-rule="nonzero" fill-opacity="1" /><path clip-path="url(#clip550)" d="M1260.13 352.327 Q1257.42 352.327 1256.05 355 Q1254.7 357.657 1254.7 363.004 Q1254.7 368.334 1256.05 371.007 Q1257.42 373.664 1260.13 373.664 Q1262.86 373.664 1264.21 371.007 Q1265.58 368.334 1265.58 363.004 Q1265.58 357.657 1264.21 355 Q1262.86 352.327 1260.13 352.327 M1260.13 349.549 Q1264.49 349.549 1266.78 353.004 Q1269.09 356.441 1269.09 363.004 Q1269.09 369.549 1266.78 373.004 Q1264.49 376.441 1260.13 376.441 Q1255.78 376.441 1253.47 373.004 Q1251.17 369.549 1251.17 363.004 Q1251.17 356.441 1253.47 353.004 Q1255.78 349.549 1260.13 349.549 Z" fill="#000000" fill-rule="nonzero" fill-opacity="1" /><path clip-path="url(#clip550)" d="M1275.25 371.528 L1278.92 371.528 L1278.92 375.938 L1275.25 375.938 L1275.25 371.528 Z" fill="#000000" fill-rule="nonzero" fill-opacity="1" /><path clip-path="url(#clip550)" d="M1287.16 372.987 L1292.89 372.987 L1292.89 353.212 L1286.66 354.462 L1286.66 351.268 L1292.86 350.018 L1296.37 350.018 L1296.37 372.987 L1302.09 372.987 L1302.09 375.938 L1287.16 375.938 L1287.16 372.987 Z" fill="#000000" fill-rule="nonzero" fill-opacity="1" /><path clip-path="url(#clip550)" d="M1316.68 352.327 Q1313.97 352.327 1312.6 355 Q1311.24 357.657 1311.24 363.004 Q1311.24 368.334 1312.6 371.007 Q1313.97 373.664 1316.68 373.664 Q1319.4 373.664 1320.76 371.007 Q1322.13 368.334 1322.13 363.004 Q1322.13 357.657 1320.76 355 Q1319.4 352.327 1316.68 352.327 M1316.68 349.549 Q1321.04 349.549 1323.33 353.004 Q1325.64 356.441 1325.64 363.004 Q1325.64 369.549 1323.33 373.004 Q1321.04 376.441 1316.68 376.441 Q1312.32 376.441 1310.01 373.004 Q1307.72 369.549 1307.72 363.004 Q1307.72 356.441 1310.01 353.004 Q1312.32 349.549 1316.68 349.549 Z" fill="#000000" fill-rule="nonzero" fill-opacity="1" /><path clip-path="url(#clip550)" d="M1260.88 210.725 Q1258.17 210.725 1256.8 213.399 Q1255.45 216.055 1255.45 221.402 Q1255.45 226.732 1256.8 229.406 Q1258.17 232.062 1260.88 232.062 Q1263.6 232.062 1264.96 229.406 Q1266.33 226.732 1266.33 221.402 Q1266.33 216.055 1264.96 213.399 Q1263.6 210.725 1260.88 210.725 M1260.88 207.948 Q1265.24 207.948 1267.53 211.402 Q1269.84 214.84 1269.84 221.402 Q1269.84 227.948 1267.53 231.402 Q1265.24 234.84 1260.88 234.84 Q1256.52 234.84 1254.21 231.402 Q1251.92 227.948 1251.92 221.402 Q1251.92 214.84 1254.21 211.402 Q1256.52 207.948 1260.88 207.948 Z" fill="#000000" fill-rule="nonzero" fill-opacity="1" /><path clip-path="url(#clip550)" d="M1276 229.927 L1279.66 229.927 L1279.66 234.336 L1276 234.336 L1276 229.927 Z" fill="#000000" fill-rule="nonzero" fill-opacity="1" /><path clip-path="url(#clip550)" d="M1287.91 231.385 L1293.64 231.385 L1293.64 211.611 L1287.41 212.861 L1287.41 209.666 L1293.6 208.416 L1297.11 208.416 L1297.11 231.385 L1302.84 231.385 L1302.84 234.336 L1287.91 234.336 L1287.91 231.385 Z" fill="#000000" fill-rule="nonzero" fill-opacity="1" /><path clip-path="url(#clip550)" d="M1309.96 208.416 L1323.73 208.416 L1323.73 211.368 L1313.17 211.368 L1313.17 217.722 Q1313.93 217.461 1314.7 217.34 Q1315.46 217.201 1316.23 217.201 Q1320.57 217.201 1323.1 219.579 Q1325.64 221.958 1325.64 226.02 Q1325.64 230.204 1323.03 232.531 Q1320.43 234.84 1315.69 234.84 Q1314.06 234.84 1312.35 234.562 Q1310.67 234.284 1308.87 233.729 L1308.87 230.204 Q1310.43 231.055 1312.09 231.472 Q1313.76 231.888 1315.62 231.888 Q1318.62 231.888 1320.38 230.309 Q1322.13 228.729 1322.13 226.02 Q1322.13 223.312 1320.38 221.732 Q1318.62 220.152 1315.62 220.152 Q1314.21 220.152 1312.81 220.465 Q1311.42 220.777 1309.96 221.437 L1309.96 208.416 Z" fill="#000000" fill-rule="nonzero" fill-opacity="1" /><path clip-path="url(#clip550)" d="M1373.53 18.9258 Q1370.02 18.9258 1368.12 21.4721 Q1366.13 24.1341 1366.13 28.5323 Q1366.13 33.185 1368.09 35.8702 Q1370.08 38.5322 1373.53 38.5322 Q1376.94 38.5322 1378.93 35.847 Q1380.92 33.1619 1380.92 28.5323 Q1380.92 24.2962 1378.93 21.4721 Q1377.1 18.9258 1373.53 18.9258 M1373.53 15.5462 L1387.68 15.5462 L1387.68 19.8054 L1382.91 19.8054 Q1385.43 23.4165 1385.43 28.5323 Q1385.43 34.898 1382.26 38.5091 Q1379.09 42.1433 1373.53 42.1433 Q1367.96 42.1433 1364.81 38.5091 Q1361.64 34.898 1361.64 28.5323 Q1361.64 22.1203 1364.81 18.5323 Q1367.42 15.5462 1373.53 15.5462 Z" fill="#000000" fill-rule="nonzero" fill-opacity="1" /><path clip-path="url(#clip550)" d="M1411.84 19.6666 Q1410.99 19.3656 1410.13 19.1342 Q1407.84 18.5323 1405.39 18.5323 Q1401.15 18.5323 1398.79 20.824 Q1396.59 22.9536 1396.17 26.8656 L1411.84 26.8656 L1411.84 30.1989 L1396.17 30.1989 Q1396.59 34.1109 1398.79 36.2405 Q1401.15 38.5322 1405.39 38.5322 Q1408.35 38.5322 1410.13 37.9304 L1411.84 37.3517 L1411.84 41.2174 L1410.02 41.634 Q1407.61 42.1433 1405.13 42.1433 Q1398.93 42.1433 1395.32 38.5322 Q1391.68 34.9211 1391.68 28.5323 Q1391.68 22.1434 1395.32 18.5323 Q1398.93 14.9212 1405.13 14.9212 Q1407.47 14.9212 1410.02 15.4305 Q1410.94 15.6157 1411.84 15.8934 L1411.84 19.6666 Z" fill="#000000" fill-rule="nonzero" fill-opacity="1" /><polyline clip-path="url(#clip553)" style="stroke:#009af9; stroke-linecap:round; stroke-linejoin:round; stroke-width:4; stroke-opacity:1; fill:none" points="1389.69,164.326 1448.13,221.78 1506.56,280.027 1565,339.069 1623.44,398.904 1681.88,459.533 1740.32,520.955 1798.76,583.171 1857.2,646.181 1915.63,582.378 1974.07,517.781 2032.51,452.39 2090.95,386.205 2149.39,319.228 2207.83,251.456 2266.27,182.891 2324.71,113.532 "/>
<circle clip-path="url(#clip553)" cx="1857.2" cy="646.181" r="10.8" fill="#ff0000" fill-rule="evenodd" fill-opacity="1" stroke="#000000" stroke-opacity="1" stroke-width="3.2"/>
<path clip-path="url(#clip550)" d="M161.818 1456.91 L1152.94 1456.91 L1152.94 892.306 L161.818 892.306  Z" fill="#ffffff" fill-rule="evenodd" fill-opacity="1"/>
<defs>
  <clipPath id="clip554">
    <rect x="161" y="892" width="992" height="566"/>
  </clipPath>
</defs>
<polyline clip-path="url(#clip554)" style="stroke:#000000; stroke-linecap:round; stroke-linejoin:round; stroke-width:2; stroke-opacity:0.1; fill:none" points="290.985,1456.91 290.985,892.306 "/>
<polyline clip-path="url(#clip554)" style="stroke:#000000; stroke-linecap:round; stroke-linejoin:round; stroke-width:2; stroke-opacity:0.1; fill:none" points="506.421,1456.91 506.421,892.306 "/>
<polyline clip-path="url(#clip554)" style="stroke:#000000; stroke-linecap:round; stroke-linejoin:round; stroke-width:2; stroke-opacity:0.1; fill:none" points="721.856,1456.91 721.856,892.306 "/>
<polyline clip-path="url(#clip554)" style="stroke:#000000; stroke-linecap:round; stroke-linejoin:round; stroke-width:2; stroke-opacity:0.1; fill:none" points="937.291,1456.91 937.291,892.306 "/>
<polyline clip-path="url(#clip554)" style="stroke:#000000; stroke-linecap:round; stroke-linejoin:round; stroke-width:2; stroke-opacity:0.1; fill:none" points="1152.73,1456.91 1152.73,892.306 "/>
<polyline clip-path="url(#clip554)" style="stroke:#000000; stroke-linecap:round; stroke-linejoin:round; stroke-width:2; stroke-opacity:0.1; fill:none" points="161.818,1440.93 1152.94,1440.93 "/>
<polyline clip-path="url(#clip554)" style="stroke:#000000; stroke-linecap:round; stroke-linejoin:round; stroke-width:2; stroke-opacity:0.1; fill:none" points="161.818,1321.24 1152.94,1321.24 "/>
<polyline clip-path="url(#clip554)" style="stroke:#000000; stroke-linecap:round; stroke-linejoin:round; stroke-width:2; stroke-opacity:0.1; fill:none" points="161.818,1201.55 1152.94,1201.55 "/>
<polyline clip-path="url(#clip554)" style="stroke:#000000; stroke-linecap:round; stroke-linejoin:round; stroke-width:2; stroke-opacity:0.1; fill:none" points="161.818,1081.86 1152.94,1081.86 "/>
<polyline clip-path="url(#clip554)" style="stroke:#000000; stroke-linecap:round; stroke-linejoin:round; stroke-width:2; stroke-opacity:0.1; fill:none" points="161.818,962.168 1152.94,962.168 "/>
<polyline clip-path="url(#clip550)" style="stroke:#000000; stroke-linecap:round; stroke-linejoin:round; stroke-width:4; stroke-opacity:1; fill:none" points="161.818,1456.91 1152.94,1456.91 "/>
<polyline clip-path="url(#clip550)" style="stroke:#000000; stroke-linecap:round; stroke-linejoin:round; stroke-width:4; stroke-opacity:1; fill:none" points="290.985,1456.91 290.985,1438.02 "/>
<polyline clip-path="url(#clip550)" style="stroke:#000000; stroke-linecap:round; stroke-linejoin:round; stroke-width:4; stroke-opacity:1; fill:none" points="506.421,1456.91 506.421,1438.02 "/>
<polyline clip-path="url(#clip550)" style="stroke:#000000; stroke-linecap:round; stroke-linejoin:round; stroke-width:4; stroke-opacity:1; fill:none" points="721.856,1456.91 721.856,1438.02 "/>
<polyline clip-path="url(#clip550)" style="stroke:#000000; stroke-linecap:round; stroke-linejoin:round; stroke-width:4; stroke-opacity:1; fill:none" points="937.291,1456.91 937.291,1438.02 "/>
<polyline clip-path="url(#clip550)" style="stroke:#000000; stroke-linecap:round; stroke-linejoin:round; stroke-width:4; stroke-opacity:1; fill:none" points="1152.73,1456.91 1152.73,1438.02 "/>
<path clip-path="url(#clip550)" d="M221.141 1544.64 Q219.226 1546.56 220.146 1549.42 Q221.067 1552.25 224.848 1556.03 Q228.617 1559.8 231.465 1560.74 Q234.313 1561.65 236.228 1559.73 Q238.155 1557.8 237.235 1554.97 Q236.314 1552.11 232.545 1548.34 Q228.764 1544.56 225.916 1543.65 Q223.068 1542.72 221.141 1544.64 M219.176 1542.68 Q222.258 1539.6 226.321 1540.42 Q230.384 1541.22 235.025 1545.86 Q239.653 1550.49 240.463 1554.56 Q241.273 1558.61 238.192 1561.69 Q235.111 1564.78 231.047 1563.98 Q226.984 1563.15 222.356 1558.53 Q217.716 1553.89 216.905 1549.84 Q216.095 1545.76 219.176 1542.68 Z" fill="#000000" fill-rule="nonzero" fill-opacity="1" /><path clip-path="url(#clip550)" d="M245.41 1547.53 L248.001 1544.94 L251.119 1548.06 L248.529 1550.65 L245.41 1547.53 Z" fill="#000000" fill-rule="nonzero" fill-opacity="1" /><path clip-path="url(#clip550)" d="M238.217 1524.3 L247.952 1514.57 L250.038 1516.65 L242.575 1524.12 L247.068 1528.61 Q247.424 1527.89 247.878 1527.26 Q248.32 1526.62 248.86 1526.08 Q251.929 1523.01 255.403 1522.9 Q258.877 1522.79 261.75 1525.66 Q264.708 1528.62 264.512 1532.11 Q264.303 1535.58 260.952 1538.93 Q259.798 1540.09 258.399 1541.09 Q257.011 1542.09 255.342 1542.97 L252.85 1540.48 Q254.556 1539.98 256.029 1539.09 Q257.502 1538.21 258.816 1536.9 Q260.94 1534.77 261.062 1532.42 Q261.185 1530.06 259.27 1528.14 Q257.355 1526.23 254.998 1526.35 Q252.641 1526.47 250.517 1528.6 Q249.523 1529.59 248.75 1530.81 Q247.988 1532.01 247.424 1533.51 L238.217 1524.3 Z" fill="#000000" fill-rule="nonzero" fill-opacity="1" /><path clip-path="url(#clip550)" d="M261.124 1504.66 Q259.209 1506.57 260.129 1509.43 Q261.05 1512.27 264.831 1516.05 Q268.6 1519.82 271.448 1520.75 Q274.296 1521.66 276.211 1519.75 Q278.138 1517.82 277.218 1514.98 Q276.297 1512.12 272.528 1508.35 Q268.747 1504.57 265.899 1503.67 Q263.051 1502.73 261.124 1504.66 M259.16 1502.7 Q262.241 1499.61 266.304 1500.44 Q270.368 1501.23 275.008 1505.87 Q279.636 1510.5 280.446 1514.58 Q281.257 1518.63 278.175 1521.71 Q275.094 1524.79 271.031 1523.99 Q266.967 1523.17 262.339 1518.54 Q257.699 1513.9 256.889 1509.85 Q256.078 1505.78 259.16 1502.7 Z" fill="#000000" fill-rule="nonzero" fill-opacity="1" /><path clip-path="url(#clip550)" d="M277.12 1488.66 Q275.204 1490.58 276.125 1493.44 Q277.046 1496.27 280.827 1500.06 Q284.596 1503.82 287.444 1504.76 Q290.292 1505.67 292.207 1503.75 Q294.134 1501.82 293.214 1498.99 Q292.293 1496.13 288.524 1492.36 Q284.743 1488.58 281.895 1487.67 Q279.047 1486.74 277.12 1488.66 M275.155 1486.7 Q278.237 1483.62 282.3 1484.44 Q286.363 1485.24 291.004 1489.88 Q295.632 1494.51 296.442 1498.58 Q297.252 1502.63 294.171 1505.72 Q291.09 1508.8 287.026 1508 Q282.963 1507.18 278.335 1502.55 Q273.695 1497.91 272.884 1493.86 Q272.074 1489.78 275.155 1486.7 Z" fill="#000000" fill-rule="nonzero" fill-opacity="1" /><path clip-path="url(#clip550)" d="M437.104 1544.11 Q435.188 1546.03 436.109 1548.89 Q437.03 1551.73 440.811 1555.51 Q444.58 1559.28 447.428 1560.21 Q450.276 1561.12 452.191 1559.2 Q454.118 1557.27 453.198 1554.44 Q452.277 1551.58 448.508 1547.81 Q444.727 1544.03 441.879 1543.12 Q439.031 1542.19 437.104 1544.11 M435.139 1542.15 Q438.221 1539.07 442.284 1539.89 Q446.347 1540.69 450.988 1545.33 Q455.616 1549.96 456.426 1554.03 Q457.236 1558.08 454.155 1561.17 Q451.074 1564.25 447.01 1563.45 Q442.947 1562.63 438.319 1558 Q433.679 1553.36 432.868 1549.31 Q432.058 1545.23 435.139 1542.15 Z" fill="#000000" fill-rule="nonzero" fill-opacity="1" /><path clip-path="url(#clip550)" d="M461.373 1547 L463.964 1544.41 L467.082 1547.53 L464.492 1550.12 L461.373 1547 Z" fill="#000000" fill-rule="nonzero" fill-opacity="1" /><path clip-path="url(#clip550)" d="M454.18 1523.77 L463.915 1514.04 L466.001 1516.13 L458.538 1523.59 L463.031 1528.08 Q463.387 1527.36 463.841 1526.73 Q464.283 1526.09 464.823 1525.55 Q467.892 1522.48 471.366 1522.37 Q474.84 1522.26 477.713 1525.14 Q480.671 1528.09 480.475 1531.58 Q480.266 1535.05 476.915 1538.41 Q475.761 1539.56 474.361 1540.57 Q472.974 1541.56 471.305 1542.45 L468.813 1539.95 Q470.519 1539.45 471.992 1538.57 Q473.465 1537.68 474.779 1536.37 Q476.903 1534.24 477.025 1531.89 Q477.148 1529.53 475.233 1527.62 Q473.318 1525.7 470.961 1525.82 Q468.604 1525.95 466.48 1528.07 Q465.486 1529.06 464.712 1530.28 Q463.951 1531.48 463.387 1532.98 L454.18 1523.77 Z" fill="#000000" fill-rule="nonzero" fill-opacity="1" /><path clip-path="url(#clip550)" d="M488.528 1521.91 L497.183 1513.25 L499.27 1515.34 L487.632 1526.98 L485.545 1524.89 Q485.496 1522.02 485.471 1517.13 Q485.447 1512.22 485.361 1510.88 Q485.214 1508.35 484.759 1506.97 Q484.305 1505.56 483.409 1504.66 Q481.948 1503.2 479.996 1503.31 Q478.057 1503.41 476.412 1505.05 Q475.245 1506.22 474.349 1507.92 Q473.465 1509.62 472.815 1511.91 L470.31 1509.41 Q471.207 1507.31 472.201 1505.7 Q473.195 1504.09 474.276 1503.01 Q477.124 1500.17 480.242 1499.9 Q483.36 1499.63 485.741 1502.01 Q486.871 1503.14 487.46 1504.59 Q488.049 1506.01 488.307 1508.5 Q488.356 1509.16 488.418 1512.52 Q488.467 1515.86 488.528 1521.91 Z" fill="#000000" fill-rule="nonzero" fill-opacity="1" /><path clip-path="url(#clip550)" d="M486.171 1491.78 L495.906 1482.05 L497.993 1484.13 L490.529 1491.6 L495.022 1496.09 Q495.378 1495.37 495.832 1494.74 Q496.274 1494.1 496.814 1493.56 Q499.883 1490.49 503.358 1490.38 Q506.832 1490.27 509.704 1493.14 Q512.663 1496.1 512.466 1499.59 Q512.258 1503.06 508.906 1506.41 Q507.752 1507.57 506.353 1508.58 Q504.966 1509.57 503.296 1510.45 L500.804 1507.96 Q502.511 1507.46 503.984 1506.57 Q505.457 1505.69 506.77 1504.38 Q508.894 1502.25 509.017 1499.9 Q509.14 1497.54 507.225 1495.62 Q505.31 1493.71 502.953 1493.83 Q500.595 1493.95 498.472 1496.08 Q497.477 1497.07 496.704 1498.29 Q495.943 1499.49 495.378 1500.99 L486.171 1491.78 Z" fill="#000000" fill-rule="nonzero" fill-opacity="1" /><path clip-path="url(#clip550)" d="M652.011 1544.64 Q650.096 1546.56 651.016 1549.42 Q651.937 1552.25 655.718 1556.03 Q659.487 1559.8 662.335 1560.74 Q665.183 1561.65 667.098 1559.73 Q669.025 1557.8 668.105 1554.97 Q667.184 1552.11 663.415 1548.34 Q659.634 1544.56 656.786 1543.65 Q653.938 1542.72 652.011 1544.64 M650.047 1542.68 Q653.128 1539.6 657.191 1540.42 Q661.255 1541.22 665.895 1545.86 Q670.523 1550.49 671.333 1554.56 Q672.144 1558.61 669.062 1561.69 Q665.981 1564.78 661.918 1563.98 Q657.854 1563.15 653.226 1558.53 Q648.586 1553.89 647.776 1549.84 Q646.965 1545.76 650.047 1542.68 Z" fill="#000000" fill-rule="nonzero" fill-opacity="1" /><path clip-path="url(#clip550)" d="M676.281 1547.53 L678.871 1544.94 L681.989 1548.06 L679.399 1550.65 L676.281 1547.53 Z" fill="#000000" fill-rule="nonzero" fill-opacity="1" /><path clip-path="url(#clip550)" d="M669.087 1524.3 L678.822 1514.57 L680.909 1516.65 L673.445 1524.12 L677.938 1528.61 Q678.294 1527.89 678.748 1527.26 Q679.19 1526.62 679.73 1526.08 Q682.799 1523.01 686.273 1522.9 Q689.747 1522.79 692.62 1525.66 Q695.579 1528.62 695.382 1532.11 Q695.174 1535.58 691.822 1538.93 Q690.668 1540.09 689.269 1541.09 Q687.882 1542.09 686.212 1542.97 L683.72 1540.48 Q685.426 1539.98 686.899 1539.09 Q688.373 1538.21 689.686 1536.9 Q691.81 1534.77 691.933 1532.42 Q692.055 1530.06 690.14 1528.14 Q688.225 1526.23 685.868 1526.35 Q683.511 1526.47 681.387 1528.6 Q680.393 1529.59 679.62 1530.81 Q678.859 1532.01 678.294 1533.51 L669.087 1524.3 Z" fill="#000000" fill-rule="nonzero" fill-opacity="1" /><path clip-path="url(#clip550)" d="M685.083 1508.31 L694.818 1498.57 L696.904 1500.66 L689.441 1508.12 L693.934 1512.61 Q694.29 1511.89 694.744 1511.26 Q695.186 1510.63 695.726 1510.09 Q698.795 1507.02 702.269 1506.91 Q705.743 1506.8 708.616 1509.67 Q711.574 1512.63 711.378 1516.11 Q711.169 1519.59 707.818 1522.94 Q706.664 1524.09 705.264 1525.1 Q703.877 1526.09 702.208 1526.98 L699.716 1524.49 Q701.422 1523.98 702.895 1523.1 Q704.368 1522.21 705.682 1520.9 Q707.806 1518.78 707.928 1516.42 Q708.051 1514.06 706.136 1512.15 Q704.221 1510.23 701.864 1510.36 Q699.507 1510.48 697.383 1512.6 Q696.389 1513.6 695.615 1514.81 Q694.854 1516.01 694.29 1517.51 L685.083 1508.31 Z" fill="#000000" fill-rule="nonzero" fill-opacity="1" /><path clip-path="url(#clip550)" d="M707.99 1488.66 Q706.075 1490.58 706.995 1493.44 Q707.916 1496.27 711.697 1500.06 Q715.466 1503.82 718.314 1504.76 Q721.162 1505.67 723.077 1503.75 Q725.004 1501.82 724.084 1498.99 Q723.163 1496.13 719.394 1492.36 Q715.613 1488.58 712.765 1487.67 Q709.917 1486.74 707.99 1488.66 M706.026 1486.7 Q709.107 1483.62 713.17 1484.44 Q717.234 1485.24 721.874 1489.88 Q726.502 1494.51 727.312 1498.58 Q728.123 1502.63 725.041 1505.72 Q721.96 1508.8 717.897 1508 Q713.833 1507.18 709.205 1502.55 Q704.565 1497.91 703.755 1493.86 Q702.944 1489.78 706.026 1486.7 Z" fill="#000000" fill-rule="nonzero" fill-opacity="1" /><path clip-path="url(#clip550)" d="M867.974 1544.11 Q866.059 1546.03 866.979 1548.89 Q867.9 1551.73 871.681 1555.51 Q875.45 1559.28 878.298 1560.21 Q881.146 1561.12 883.061 1559.2 Q884.988 1557.27 884.068 1554.44 Q883.147 1551.58 879.378 1547.81 Q875.597 1544.03 872.749 1543.12 Q869.901 1542.19 867.974 1544.11 M866.01 1542.15 Q869.091 1539.07 873.154 1539.89 Q877.218 1540.69 881.858 1545.33 Q886.486 1549.96 887.296 1554.03 Q888.107 1558.08 885.025 1561.17 Q881.944 1564.25 877.881 1563.45 Q873.817 1562.63 869.189 1558 Q864.549 1553.36 863.738 1549.31 Q862.928 1545.23 866.01 1542.15 Z" fill="#000000" fill-rule="nonzero" fill-opacity="1" /><path clip-path="url(#clip550)" d="M892.244 1547 L894.834 1544.41 L897.952 1547.53 L895.362 1550.12 L892.244 1547 Z" fill="#000000" fill-rule="nonzero" fill-opacity="1" /><path clip-path="url(#clip550)" d="M885.05 1523.77 L894.785 1514.04 L896.872 1516.13 L889.408 1523.59 L893.901 1528.08 Q894.257 1527.36 894.711 1526.73 Q895.153 1526.09 895.693 1525.55 Q898.762 1522.48 902.236 1522.37 Q905.71 1522.26 908.583 1525.14 Q911.542 1528.09 911.345 1531.58 Q911.136 1535.05 907.785 1538.41 Q906.631 1539.56 905.232 1540.57 Q903.844 1541.56 902.175 1542.45 L899.683 1539.95 Q901.389 1539.45 902.862 1538.57 Q904.336 1537.68 905.649 1536.37 Q907.773 1534.24 907.896 1531.89 Q908.018 1529.53 906.103 1527.62 Q904.188 1525.7 901.831 1525.82 Q899.474 1525.95 897.35 1528.07 Q896.356 1529.06 895.583 1530.28 Q894.822 1531.48 894.257 1532.98 L885.05 1523.77 Z" fill="#000000" fill-rule="nonzero" fill-opacity="1" /><path clip-path="url(#clip550)" d="M900.395 1508.43 L912.18 1496.64 L913.236 1497.7 L923.855 1521.62 L921.264 1524.22 L911.284 1501.71 L902.482 1510.52 L900.395 1508.43 Z" fill="#000000" fill-rule="nonzero" fill-opacity="1" /><path clip-path="url(#clip550)" d="M917.041 1491.78 L926.776 1482.05 L928.863 1484.13 L921.399 1491.6 L925.892 1496.09 Q926.248 1495.37 926.703 1494.74 Q927.145 1494.1 927.685 1493.56 Q930.754 1490.49 934.228 1490.38 Q937.702 1490.27 940.575 1493.14 Q943.533 1496.1 943.337 1499.59 Q943.128 1503.06 939.777 1506.41 Q938.623 1507.57 937.223 1508.58 Q935.836 1509.57 934.166 1510.45 L931.674 1507.96 Q933.381 1507.46 934.854 1506.57 Q936.327 1505.69 937.641 1504.38 Q939.764 1502.25 939.887 1499.9 Q940.01 1497.54 938.095 1495.62 Q936.18 1493.71 933.823 1493.83 Q931.466 1493.95 929.342 1496.08 Q928.348 1497.07 927.574 1498.29 Q926.813 1499.49 926.248 1500.99 L917.041 1491.78 Z" fill="#000000" fill-rule="nonzero" fill-opacity="1" /><path clip-path="url(#clip550)" d="M1082.88 1544.64 Q1080.97 1546.56 1081.89 1549.42 Q1082.81 1552.25 1086.59 1556.03 Q1090.36 1559.8 1093.21 1560.74 Q1096.05 1561.65 1097.97 1559.73 Q1099.9 1557.8 1098.97 1554.97 Q1098.05 1552.11 1094.29 1548.34 Q1090.5 1544.56 1087.66 1543.65 Q1084.81 1542.72 1082.88 1544.64 M1080.92 1542.68 Q1084 1539.6 1088.06 1540.42 Q1092.12 1541.22 1096.77 1545.86 Q1101.39 1550.49 1102.2 1554.56 Q1103.01 1558.61 1099.93 1561.69 Q1096.85 1564.78 1092.79 1563.98 Q1088.72 1563.15 1084.1 1558.53 Q1079.46 1553.89 1078.65 1549.84 Q1077.84 1545.76 1080.92 1542.68 Z" fill="#000000" fill-rule="nonzero" fill-opacity="1" /><path clip-path="url(#clip550)" d="M1107.15 1547.53 L1109.74 1544.94 L1112.86 1548.06 L1110.27 1550.65 L1107.15 1547.53 Z" fill="#000000" fill-rule="nonzero" fill-opacity="1" /><path clip-path="url(#clip550)" d="M1113.72 1526.89 Q1112.05 1528.56 1112.21 1530.68 Q1112.38 1532.8 1114.37 1534.78 Q1116.35 1536.76 1118.47 1536.95 Q1120.59 1537.11 1122.26 1535.44 Q1123.93 1533.77 1123.76 1531.65 Q1123.59 1529.52 1121.61 1527.54 Q1119.62 1525.55 1117.5 1525.39 Q1115.39 1525.22 1113.72 1526.89 M1110.87 1514.2 L1113.13 1516.46 Q1111.75 1516.95 1110.56 1517.67 Q1109.39 1518.38 1108.45 1519.32 Q1106 1521.77 1106.35 1524.73 Q1106.72 1527.68 1109.89 1531.21 Q1109.54 1529.42 1110.07 1527.76 Q1110.59 1526.09 1111.9 1524.78 Q1114.66 1522.02 1117.94 1522.1 Q1121.22 1522.17 1124.1 1525.05 Q1126.93 1527.87 1126.96 1531.25 Q1127 1534.63 1124.23 1537.4 Q1121.05 1540.58 1116.93 1539.83 Q1112.81 1539.07 1108.18 1534.44 Q1103.84 1530.1 1103.32 1525.46 Q1102.79 1520.8 1106.27 1517.33 Q1107.2 1516.4 1108.33 1515.63 Q1109.47 1514.86 1110.87 1514.2 Z" fill="#000000" fill-rule="nonzero" fill-opacity="1" /><path clip-path="url(#clip550)" d="M1122.86 1504.66 Q1120.95 1506.57 1121.87 1509.43 Q1122.79 1512.27 1126.57 1516.05 Q1130.34 1519.82 1133.19 1520.75 Q1136.04 1521.66 1137.95 1519.75 Q1139.88 1517.82 1138.96 1514.98 Q1138.04 1512.12 1134.27 1508.35 Q1130.49 1504.57 1127.64 1503.67 Q1124.79 1502.73 1122.86 1504.66 M1120.9 1502.7 Q1123.98 1499.61 1128.04 1500.44 Q1132.11 1501.23 1136.75 1505.87 Q1141.38 1510.5 1142.19 1514.58 Q1143 1518.63 1139.92 1521.71 Q1136.83 1524.79 1132.77 1523.99 Q1128.71 1523.17 1124.08 1518.54 Q1119.44 1513.9 1118.63 1509.85 Q1117.82 1505.78 1120.9 1502.7 Z" fill="#000000" fill-rule="nonzero" fill-opacity="1" /><path clip-path="url(#clip550)" d="M1138.86 1488.66 Q1136.94 1490.58 1137.87 1493.44 Q1138.79 1496.27 1142.57 1500.06 Q1146.34 1503.82 1149.18 1504.76 Q1152.03 1505.67 1153.95 1503.75 Q1155.87 1501.82 1154.95 1498.99 Q1154.03 1496.13 1150.26 1492.36 Q1146.48 1488.58 1143.64 1487.67 Q1140.79 1486.74 1138.86 1488.66 M1136.9 1486.7 Q1139.98 1483.62 1144.04 1484.44 Q1148.1 1485.24 1152.74 1489.88 Q1157.37 1494.51 1158.18 1498.58 Q1158.99 1502.63 1155.91 1505.72 Q1152.83 1508.8 1148.77 1508 Q1144.7 1507.18 1140.08 1502.55 Q1135.43 1497.91 1134.62 1493.86 Q1133.81 1489.78 1136.9 1486.7 Z" fill="#000000" fill-rule="nonzero" fill-opacity="1" /><polyline clip-path="url(#clip550)" style="stroke:#000000; stroke-linecap:round; stroke-linejoin:round; stroke-width:4; stroke-opacity:1; fill:none" points="161.818,1456.91 161.818,892.306 "/>
<polyline clip-path="url(#clip550)" style="stroke:#000000; stroke-linecap:round; stroke-linejoin:round; stroke-width:4; stroke-opacity:1; fill:none" points="161.818,1440.93 180.716,1440.93 "/>
<polyline clip-path="url(#clip550)" style="stroke:#000000; stroke-linecap:round; stroke-linejoin:round; stroke-width:4; stroke-opacity:1; fill:none" points="161.818,1321.24 180.716,1321.24 "/>
<polyline clip-path="url(#clip550)" style="stroke:#000000; stroke-linecap:round; stroke-linejoin:round; stroke-width:4; stroke-opacity:1; fill:none" points="161.818,1201.55 180.716,1201.55 "/>
<polyline clip-path="url(#clip550)" style="stroke:#000000; stroke-linecap:round; stroke-linejoin:round; stroke-width:4; stroke-opacity:1; fill:none" points="161.818,1081.86 180.716,1081.86 "/>
<polyline clip-path="url(#clip550)" style="stroke:#000000; stroke-linecap:round; stroke-linejoin:round; stroke-width:4; stroke-opacity:1; fill:none" points="161.818,962.168 180.716,962.168 "/>
<path clip-path="url(#clip550)" d="M60.315 1430.28 Q57.6067 1430.28 56.2352 1432.96 Q54.881 1435.61 54.881 1440.96 Q54.881 1446.29 56.2352 1448.96 Q57.6067 1451.62 60.315 1451.62 Q63.0407 1451.62 64.3948 1448.96 Q65.7664 1446.29 65.7664 1440.96 Q65.7664 1435.61 64.3948 1432.96 Q63.0407 1430.28 60.315 1430.28 M60.315 1427.51 Q64.6726 1427.51 66.9643 1430.96 Q69.2733 1434.4 69.2733 1440.96 Q69.2733 1447.51 66.9643 1450.96 Q64.6726 1454.4 60.315 1454.4 Q55.9574 1454.4 53.6484 1450.96 Q51.3567 1447.51 51.3567 1440.96 Q51.3567 1434.4 53.6484 1430.96 Q55.9574 1427.51 60.315 1427.51 Z" fill="#000000" fill-rule="nonzero" fill-opacity="1" /><path clip-path="url(#clip550)" d="M75.4364 1449.49 L79.0996 1449.49 L79.0996 1453.89 L75.4364 1453.89 L75.4364 1449.49 Z" fill="#000000" fill-rule="nonzero" fill-opacity="1" /><path clip-path="url(#clip550)" d="M94.2384 1430.28 Q91.5301 1430.28 90.1586 1432.96 Q88.8044 1435.61 88.8044 1440.96 Q88.8044 1446.29 90.1586 1448.96 Q91.5301 1451.62 94.2384 1451.62 Q96.9641 1451.62 98.3183 1448.96 Q99.6898 1446.29 99.6898 1440.96 Q99.6898 1435.61 98.3183 1432.96 Q96.9641 1430.28 94.2384 1430.28 M94.2384 1427.51 Q98.596 1427.51 100.888 1430.96 Q103.197 1434.4 103.197 1440.96 Q103.197 1447.51 100.888 1450.96 Q98.596 1454.4 94.2384 1454.4 Q89.8808 1454.4 87.5718 1450.96 Q85.2801 1447.51 85.2801 1440.96 Q85.2801 1434.4 87.5718 1430.96 Q89.8808 1427.51 94.2384 1427.51 Z" fill="#000000" fill-rule="nonzero" fill-opacity="1" /><path clip-path="url(#clip550)" d="M116.86 1430.28 Q114.152 1430.28 112.78 1432.96 Q111.426 1435.61 111.426 1440.96 Q111.426 1446.29 112.78 1448.96 Q114.152 1451.62 116.86 1451.62 Q119.586 1451.62 120.94 1448.96 Q122.311 1446.29 122.311 1440.96 Q122.311 1435.61 120.94 1432.96 Q119.586 1430.28 116.86 1430.28 M116.86 1427.51 Q121.217 1427.51 123.509 1430.96 Q125.818 1434.4 125.818 1440.96 Q125.818 1447.51 123.509 1450.96 Q121.217 1454.4 116.86 1454.4 Q112.502 1454.4 110.193 1450.96 Q107.902 1447.51 107.902 1440.96 Q107.902 1434.4 110.193 1430.96 Q112.502 1427.51 116.86 1427.51 Z" fill="#000000" fill-rule="nonzero" fill-opacity="1" /><path clip-path="url(#clip550)" d="M61.2351 1310.59 Q58.5268 1310.59 57.1553 1313.27 Q55.8011 1315.92 55.8011 1321.27 Q55.8011 1326.6 57.1553 1329.27 Q58.5268 1331.93 61.2351 1331.93 Q63.9608 1331.93 65.315 1329.27 Q66.6865 1326.6 66.6865 1321.27 Q66.6865 1315.92 65.315 1313.27 Q63.9608 1310.59 61.2351 1310.59 M61.2351 1307.81 Q65.5927 1307.81 67.8844 1311.27 Q70.1934 1314.71 70.1934 1321.27 Q70.1934 1327.81 67.8844 1331.27 Q65.5927 1334.71 61.2351 1334.71 Q56.8775 1334.71 54.5685 1331.27 Q52.2768 1327.81 52.2768 1321.27 Q52.2768 1314.71 54.5685 1311.27 Q56.8775 1307.81 61.2351 1307.81 Z" fill="#000000" fill-rule="nonzero" fill-opacity="1" /><path clip-path="url(#clip550)" d="M76.3566 1329.79 L80.0197 1329.79 L80.0197 1334.2 L76.3566 1334.2 L76.3566 1329.79 Z" fill="#000000" fill-rule="nonzero" fill-opacity="1" /><path clip-path="url(#clip550)" d="M95.1586 1310.59 Q92.4502 1310.59 91.0787 1313.27 Q89.7246 1315.92 89.7246 1321.27 Q89.7246 1326.6 91.0787 1329.27 Q92.4502 1331.93 95.1586 1331.93 Q97.8842 1331.93 99.2384 1329.27 Q100.61 1326.6 100.61 1321.27 Q100.61 1315.92 99.2384 1313.27 Q97.8842 1310.59 95.1586 1310.59 M95.1586 1307.81 Q99.5162 1307.81 101.808 1311.27 Q104.117 1314.71 104.117 1321.27 Q104.117 1327.81 101.808 1331.27 Q99.5162 1334.71 95.1586 1334.71 Q90.8009 1334.71 88.4919 1331.27 Q86.2003 1327.81 86.2003 1321.27 Q86.2003 1314.71 88.4919 1311.27 Q90.8009 1307.81 95.1586 1307.81 Z" fill="#000000" fill-rule="nonzero" fill-opacity="1" /><path clip-path="url(#clip550)" d="M110.888 1331.25 L116.617 1331.25 L116.617 1311.48 L110.384 1312.73 L110.384 1309.53 L116.582 1308.28 L120.089 1308.28 L120.089 1331.25 L125.818 1331.25 L125.818 1334.2 L110.888 1334.2 L110.888 1331.25 Z" fill="#000000" fill-rule="nonzero" fill-opacity="1" /><path clip-path="url(#clip550)" d="M61.5129 1190.9 Q58.8046 1190.9 57.4331 1193.57 Q56.0789 1196.23 56.0789 1201.58 Q56.0789 1206.91 57.4331 1209.58 Q58.8046 1212.24 61.5129 1212.24 Q64.2386 1212.24 65.5927 1209.58 Q66.9643 1206.91 66.9643 1201.58 Q66.9643 1196.23 65.5927 1193.57 Q64.2386 1190.9 61.5129 1190.9 M61.5129 1188.12 Q65.8705 1188.12 68.1622 1191.58 Q70.4712 1195.02 70.4712 1201.58 Q70.4712 1208.12 68.1622 1211.58 Q65.8705 1215.02 61.5129 1215.02 Q57.1553 1215.02 54.8463 1211.58 Q52.5546 1208.12 52.5546 1201.58 Q52.5546 1195.02 54.8463 1191.58 Q57.1553 1188.12 61.5129 1188.12 Z" fill="#000000" fill-rule="nonzero" fill-opacity="1" /><path clip-path="url(#clip550)" d="M76.6343 1210.1 L80.2975 1210.1 L80.2975 1214.51 L76.6343 1214.51 L76.6343 1210.1 Z" fill="#000000" fill-rule="nonzero" fill-opacity="1" /><path clip-path="url(#clip550)" d="M95.4363 1190.9 Q92.728 1190.9 91.3565 1193.57 Q90.0023 1196.23 90.0023 1201.58 Q90.0023 1206.91 91.3565 1209.58 Q92.728 1212.24 95.4363 1212.24 Q98.162 1212.24 99.5162 1209.58 Q100.888 1206.91 100.888 1201.58 Q100.888 1196.23 99.5162 1193.57 Q98.162 1190.9 95.4363 1190.9 M95.4363 1188.12 Q99.7939 1188.12 102.086 1191.58 Q104.395 1195.02 104.395 1201.58 Q104.395 1208.12 102.086 1211.58 Q99.7939 1215.02 95.4363 1215.02 Q91.0787 1215.02 88.7697 1211.58 Q86.478 1208.12 86.478 1201.58 Q86.478 1195.02 88.7697 1191.58 Q91.0787 1188.12 95.4363 1188.12 Z" fill="#000000" fill-rule="nonzero" fill-opacity="1" /><path clip-path="url(#clip550)" d="M113.579 1211.56 L125.818 1211.56 L125.818 1214.51 L109.36 1214.51 L109.36 1211.56 Q111.356 1209.49 114.794 1206.02 Q118.249 1202.53 119.134 1201.53 Q120.818 1199.63 121.478 1198.33 Q122.155 1197.01 122.155 1195.74 Q122.155 1193.68 120.697 1192.38 Q119.256 1191.07 116.929 1191.07 Q115.28 1191.07 113.44 1191.65 Q111.617 1192.22 109.533 1193.38 L109.533 1189.84 Q111.652 1188.99 113.492 1188.56 Q115.332 1188.12 116.86 1188.12 Q120.888 1188.12 123.283 1190.14 Q125.679 1192.15 125.679 1195.52 Q125.679 1197.12 125.072 1198.56 Q124.481 1199.98 122.901 1201.92 Q122.467 1202.43 120.141 1204.84 Q117.815 1207.24 113.579 1211.56 Z" fill="#000000" fill-rule="nonzero" fill-opacity="1" /><path clip-path="url(#clip550)" d="M60.8011 1071.21 Q58.0928 1071.21 56.7213 1073.88 Q55.3671 1076.54 55.3671 1081.89 Q55.3671 1087.22 56.7213 1089.89 Q58.0928 1092.55 60.8011 1092.55 Q63.5268 1092.55 64.8809 1089.89 Q66.2525 1087.22 66.2525 1081.89 Q66.2525 1076.54 64.8809 1073.88 Q63.5268 1071.21 60.8011 1071.21 M60.8011 1068.43 Q65.1587 1068.43 67.4504 1071.89 Q69.7594 1075.32 69.7594 1081.89 Q69.7594 1088.43 67.4504 1091.89 Q65.1587 1095.32 60.8011 1095.32 Q56.4435 1095.32 54.1345 1091.89 Q51.8428 1088.43 51.8428 1081.89 Q51.8428 1075.32 54.1345 1071.89 Q56.4435 1068.43 60.8011 1068.43 Z" fill="#000000" fill-rule="nonzero" fill-opacity="1" /><path clip-path="url(#clip550)" d="M75.9225 1090.41 L79.5857 1090.41 L79.5857 1094.82 L75.9225 1094.82 L75.9225 1090.41 Z" fill="#000000" fill-rule="nonzero" fill-opacity="1" /><path clip-path="url(#clip550)" d="M94.7245 1071.21 Q92.0162 1071.21 90.6447 1073.88 Q89.2905 1076.54 89.2905 1081.89 Q89.2905 1087.22 90.6447 1089.89 Q92.0162 1092.55 94.7245 1092.55 Q97.4502 1092.55 98.8044 1089.89 Q100.176 1087.22 100.176 1081.89 Q100.176 1076.54 98.8044 1073.88 Q97.4502 1071.21 94.7245 1071.21 M94.7245 1068.43 Q99.0821 1068.43 101.374 1071.89 Q103.683 1075.32 103.683 1081.89 Q103.683 1088.43 101.374 1091.89 Q99.0821 1095.32 94.7245 1095.32 Q90.3669 1095.32 88.0579 1091.89 Q85.7662 1088.43 85.7662 1081.89 Q85.7662 1075.32 88.0579 1071.89 Q90.3669 1068.43 94.7245 1068.43 Z" fill="#000000" fill-rule="nonzero" fill-opacity="1" /><path clip-path="url(#clip550)" d="M120.471 1080.84 Q122.988 1081.38 124.395 1083.08 Q125.818 1084.79 125.818 1087.29 Q125.818 1091.12 123.179 1093.22 Q120.54 1095.32 115.679 1095.32 Q114.047 1095.32 112.311 1094.99 Q110.593 1094.68 108.752 1094.04 L108.752 1090.65 Q110.211 1091.5 111.947 1091.94 Q113.683 1092.37 115.575 1092.37 Q118.874 1092.37 120.592 1091.07 Q122.329 1089.77 122.329 1087.29 Q122.329 1084.99 120.714 1083.71 Q119.117 1082.41 116.252 1082.41 L113.231 1082.41 L113.231 1079.52 L116.391 1079.52 Q118.978 1079.52 120.349 1078.5 Q121.721 1077.46 121.721 1075.51 Q121.721 1073.52 120.297 1072.46 Q118.891 1071.38 116.252 1071.38 Q114.811 1071.38 113.162 1071.69 Q111.513 1072.01 109.533 1072.67 L109.533 1069.54 Q111.53 1068.99 113.266 1068.71 Q115.02 1068.43 116.565 1068.43 Q120.558 1068.43 122.884 1070.25 Q125.21 1072.06 125.21 1075.15 Q125.21 1077.3 123.978 1078.8 Q122.745 1080.27 120.471 1080.84 Z" fill="#000000" fill-rule="nonzero" fill-opacity="1" /><path clip-path="url(#clip550)" d="M59.9504 951.517 Q57.2421 951.517 55.8706 954.191 Q54.5164 956.847 54.5164 962.194 Q54.5164 967.524 55.8706 970.198 Q57.2421 972.854 59.9504 972.854 Q62.6761 972.854 64.0303 970.198 Q65.4018 967.524 65.4018 962.194 Q65.4018 956.847 64.0303 954.191 Q62.6761 951.517 59.9504 951.517 M59.9504 948.739 Q64.308 948.739 66.5997 952.194 Q68.9087 955.632 68.9087 962.194 Q68.9087 968.739 66.5997 972.194 Q64.308 975.632 59.9504 975.632 Q55.5928 975.632 53.2838 972.194 Q50.9921 968.739 50.9921 962.194 Q50.9921 955.632 53.2838 952.194 Q55.5928 948.739 59.9504 948.739 Z" fill="#000000" fill-rule="nonzero" fill-opacity="1" /><path clip-path="url(#clip550)" d="M75.0719 970.718 L78.735 970.718 L78.735 975.128 L75.0719 975.128 L75.0719 970.718 Z" fill="#000000" fill-rule="nonzero" fill-opacity="1" /><path clip-path="url(#clip550)" d="M93.8738 951.517 Q91.1655 951.517 89.794 954.191 Q88.4398 956.847 88.4398 962.194 Q88.4398 967.524 89.794 970.198 Q91.1655 972.854 93.8738 972.854 Q96.5995 972.854 97.9537 970.198 Q99.3252 967.524 99.3252 962.194 Q99.3252 956.847 97.9537 954.191 Q96.5995 951.517 93.8738 951.517 M93.8738 948.739 Q98.2315 948.739 100.523 952.194 Q102.832 955.632 102.832 962.194 Q102.832 968.739 100.523 972.194 Q98.2315 975.632 93.8738 975.632 Q89.5162 975.632 87.2072 972.194 Q84.9156 968.739 84.9156 962.194 Q84.9156 955.632 87.2072 952.194 Q89.5162 948.739 93.8738 948.739 Z" fill="#000000" fill-rule="nonzero" fill-opacity="1" /><path clip-path="url(#clip550)" d="M118.631 952.264 L109.777 966.1 L118.631 966.1 L118.631 952.264 M117.711 949.208 L122.12 949.208 L122.12 966.1 L125.818 966.1 L125.818 969.017 L122.12 969.017 L122.12 975.128 L118.631 975.128 L118.631 969.017 L106.929 969.017 L106.929 965.632 L117.711 949.208 Z" fill="#000000" fill-rule="nonzero" fill-opacity="1" /><path clip-path="url(#clip550)" d="M173.716 813.68 Q170.198 813.68 168.3 816.226 Q166.309 818.888 166.309 823.286 Q166.309 827.939 168.276 830.624 Q170.267 833.286 173.716 833.286 Q177.119 833.286 179.11 830.601 Q181.1 827.916 181.1 823.286 Q181.1 819.05 179.11 816.226 Q177.281 813.68 173.716 813.68 M173.716 810.3 L187.86 810.3 L187.86 814.559 L183.091 814.559 Q185.614 818.171 185.614 823.286 Q185.614 829.652 182.443 833.263 Q179.272 836.897 173.716 836.897 Q168.138 836.897 164.989 833.263 Q161.818 829.652 161.818 823.286 Q161.818 816.874 164.989 813.286 Q167.605 810.3 173.716 810.3 Z" fill="#000000" fill-rule="nonzero" fill-opacity="1" /><path clip-path="url(#clip550)" d="M198.878 836.226 L190.961 810.3 L195.545 810.3 L202.235 832.059 Q205.012 829.189 207.327 825.208 Q209.086 822.221 209.179 819.629 Q209.225 818.402 208.67 816.087 Q208.022 813.333 205.568 810.3 L209.873 810.3 L209.873 810.3 Q211.471 812.36 212.535 815.231 Q213.508 817.87 213.508 819.675 Q213.508 824.212 210.36 828.263 Q206.262 833.541 203.415 836.226 L198.878 836.226 Z" fill="#000000" fill-rule="nonzero" fill-opacity="1" /><polyline clip-path="url(#clip554)" style="stroke:#009af9; stroke-linecap:round; stroke-linejoin:round; stroke-width:4; stroke-opacity:1; fill:none" points="189.869,959.158 248.307,1016.6 306.746,1074.83 365.185,1133.86 423.623,1193.69 482.062,1254.31 540.501,1315.72 598.939,1377.93 657.378,1440.93 715.817,1377.14 774.256,1312.54 832.694,1247.15 891.133,1180.97 949.572,1113.99 1008.01,1046.22 1066.45,977.649 1124.89,908.286 "/>
<circle clip-path="url(#clip554)" cx="657.378" cy="1440.93" r="10.8" fill="#ff0000" fill-rule="evenodd" fill-opacity="1" stroke="#000000" stroke-opacity="1" stroke-width="3.2"/>
</svg>
