<?xml version="1.0" encoding="utf-8"?>
<svg xmlns="http://www.w3.org/2000/svg" xmlns:xlink="http://www.w3.org/1999/xlink" width="600" height="400" viewBox="0 0 2400 1600">
<defs>
  <clipPath id="clip580">
    <rect x="0" y="0" width="2400" height="1600"/>
  </clipPath>
</defs>
<path clip-path="url(#clip580)" d="M0 1600 L2400 1600 L2400 0 L0 0  Z" fill="#ffffff" fill-rule="evenodd" fill-opacity="1"/>
<defs>
  <clipPath id="clip581">
    <rect x="480" y="0" width="1681" height="1600"/>
  </clipPath>
</defs>
<path clip-path="url(#clip580)" d="M161.454 677.963 L1152.76 677.963 L1152.76 106.192 L161.454 106.192  Z" fill="#ffffff" fill-rule="evenodd" fill-opacity="1"/>
<defs>
  <clipPath id="clip582">
    <rect x="161" y="106" width="992" height="573"/>
  </clipPath>
</defs>
<polyline clip-path="url(#clip582)" style="stroke:#000000; stroke-linecap:round; stroke-linejoin:round; stroke-width:2; stroke-opacity:0.1; fill:none" points="180.063,677.963 180.063,106.192 "/>
<polyline clip-path="url(#clip582)" style="stroke:#000000; stroke-linecap:round; stroke-linejoin:round; stroke-width:2; stroke-opacity:0.1; fill:none" points="416.222,677.963 416.222,106.192 "/>
<polyline clip-path="url(#clip582)" style="stroke:#000000; stroke-linecap:round; stroke-linejoin:round; stroke-width:2; stroke-opacity:0.1; fill:none" points="652.382,677.963 652.382,106.192 "/>
<polyline clip-path="url(#clip582)" style="stroke:#000000; stroke-linecap:round; stroke-linejoin:round; stroke-width:2; stroke-opacity:0.1; fill:none" points="888.541,677.963 888.541,106.192 "/>
<polyline clip-path="url(#clip582)" style="stroke:#000000; stroke-linecap:round; stroke-linejoin:round; stroke-width:2; stroke-opacity:0.1; fill:none" points="1124.7,677.963 1124.7,106.192 "/>
<polyline clip-path="url(#clip582)" style="stroke:#000000; stroke-linecap:round; stroke-linejoin:round; stroke-width:2; stroke-opacity:0.1; fill:none" points="161.454,662.382 1152.76,662.382 "/>
<polyline clip-path="url(#clip582)" style="stroke:#000000; stroke-linecap:round; stroke-linejoin:round; stroke-width:2; stroke-opacity:0.1; fill:none" points="161.454,543.717 1152.76,543.717 "/>
<polyline clip-path="url(#clip582)" style="stroke:#000000; stroke-linecap:round; stroke-linejoin:round; stroke-width:2; stroke-opacity:0.1; fill:none" points="161.454,425.051 1152.76,425.051 "/>
<polyline clip-path="url(#clip582)" style="stroke:#000000; stroke-linecap:round; stroke-linejoin:round; stroke-width:2; stroke-opacity:0.1; fill:none" points="161.454,306.386 1152.76,306.386 "/>
<polyline clip-path="url(#clip582)" style="stroke:#000000; stroke-linecap:round; stroke-linejoin:round; stroke-width:2; stroke-opacity:0.1; fill:none" points="161.454,187.721 1152.76,187.721 "/>
<polyline clip-path="url(#clip580)" style="stroke:#000000; stroke-linecap:round; stroke-linejoin:round; stroke-width:4; stroke-opacity:1; fill:none" points="161.454,677.963 1152.76,677.963 "/>
<polyline clip-path="url(#clip580)" style="stroke:#000000; stroke-linecap:round; stroke-linejoin:round; stroke-width:4; stroke-opacity:1; fill:none" points="180.063,677.963 180.063,659.065 "/>
<polyline clip-path="url(#clip580)" style="stroke:#000000; stroke-linecap:round; stroke-linejoin:round; stroke-width:4; stroke-opacity:1; fill:none" points="416.222,677.963 416.222,659.065 "/>
<polyline clip-path="url(#clip580)" style="stroke:#000000; stroke-linecap:round; stroke-linejoin:round; stroke-width:4; stroke-opacity:1; fill:none" points="652.382,677.963 652.382,659.065 "/>
<polyline clip-path="url(#clip580)" style="stroke:#000000; stroke-linecap:round; stroke-linejoin:round; stroke-width:4; stroke-opacity:1; fill:none" points="888.541,677.963 888.541,659.065 "/>
<polyline clip-path="url(#clip580)" style="stroke:#000000; stroke-linecap:round; stroke-linejoin:round; stroke-width:4; stroke-opacity:1; fill:none" points="1124.7,677.963 1124.7,659.065 "/>
<path clip-path="url(#clip580)" d="M166.197 709.712 Q164.282 711.627 165.203 714.487 Q166.123 717.323 169.904 721.104 Q173.673 724.873 176.521 725.806 Q179.369 726.714 181.284 724.799 Q183.212 722.872 182.291 720.036 Q181.37 717.176 177.602 713.407 Q173.82 709.626 170.972 708.717 Q168.124 707.785 166.197 709.712 M164.233 707.748 Q167.314 704.666 171.378 705.489 Q175.441 706.287 180.081 710.927 Q184.709 715.555 185.52 719.631 Q186.33 723.682 183.249 726.763 Q180.167 729.845 176.104 729.047 Q172.04 728.224 167.412 723.596 Q162.772 718.956 161.962 714.905 Q161.152 710.829 164.233 707.748 Z" fill="#000000" fill-rule="nonzero" fill-opacity="1" /><path clip-path="url(#clip580)" d="M398.33 742.956 L406.984 734.301 L409.071 736.388 L397.434 748.026 L395.347 745.939 Q395.298 743.066 395.273 738.18 Q395.249 733.27 395.163 731.932 Q395.015 729.403 394.561 728.016 Q394.107 726.604 393.211 725.708 Q391.75 724.247 389.798 724.357 Q387.858 724.455 386.213 726.1 Q385.047 727.267 384.151 728.973 Q383.267 730.667 382.616 732.963 L380.112 730.458 Q381.008 728.359 382.003 726.751 Q382.997 725.143 384.077 724.063 Q386.925 721.215 390.043 720.944 Q393.162 720.674 395.543 723.056 Q396.673 724.185 397.262 725.634 Q397.851 727.058 398.109 729.55 Q398.158 730.213 398.219 733.564 Q398.268 736.903 398.33 742.956 Z" fill="#000000" fill-rule="nonzero" fill-opacity="1" /><path clip-path="url(#clip580)" d="M395.973 712.83 L405.708 703.095 L407.795 705.182 L400.331 712.646 L404.824 717.139 Q405.18 716.415 405.634 715.789 Q406.076 715.15 406.616 714.61 Q409.685 711.541 413.159 711.431 Q416.633 711.32 419.506 714.193 Q422.465 717.151 422.268 720.638 Q422.059 724.112 418.708 727.463 Q417.554 728.617 416.155 729.624 Q414.767 730.618 413.098 731.502 L410.606 729.01 Q412.312 728.507 413.785 727.623 Q415.259 726.739 416.572 725.425 Q418.696 723.301 418.819 720.944 Q418.941 718.587 417.026 716.672 Q415.111 714.757 412.754 714.88 Q410.397 715.003 408.273 717.127 Q407.279 718.121 406.506 719.336 Q405.745 720.539 405.18 722.037 L395.973 712.83 Z" fill="#000000" fill-rule="nonzero" fill-opacity="1" /><path clip-path="url(#clip580)" d="M615.608 729.354 L625.343 719.619 L627.43 721.706 L619.967 729.169 L624.46 733.663 Q624.816 732.938 625.27 732.312 Q625.712 731.674 626.252 731.134 Q629.321 728.065 632.795 727.954 Q636.269 727.844 639.142 730.716 Q642.1 733.675 641.904 737.161 Q641.695 740.635 638.344 743.987 Q637.19 745.141 635.79 746.147 Q634.403 747.142 632.734 748.026 L630.242 745.533 Q631.948 745.03 633.421 744.146 Q634.894 743.262 636.208 741.949 Q638.332 739.825 638.454 737.468 Q638.577 735.111 636.662 733.196 Q634.747 731.281 632.39 731.404 Q630.033 731.526 627.909 733.65 Q626.915 734.645 626.141 735.86 Q625.38 737.063 624.816 738.561 L615.608 729.354 Z" fill="#000000" fill-rule="nonzero" fill-opacity="1" /><path clip-path="url(#clip580)" d="M638.516 709.712 Q636.601 711.627 637.521 714.487 Q638.442 717.323 642.223 721.104 Q645.992 724.873 648.84 725.806 Q651.688 726.714 653.603 724.799 Q655.53 722.872 654.61 720.036 Q653.689 717.176 649.92 713.407 Q646.139 709.626 643.291 708.717 Q640.443 707.785 638.516 709.712 M636.552 707.748 Q639.633 704.666 643.696 705.489 Q647.76 706.287 652.4 710.927 Q657.028 715.555 657.838 719.631 Q658.648 723.682 655.567 726.763 Q652.486 729.845 648.422 729.047 Q644.359 728.224 639.731 723.596 Q635.091 718.956 634.28 714.905 Q633.47 710.829 636.552 707.748 Z" fill="#000000" fill-rule="nonzero" fill-opacity="1" /><path clip-path="url(#clip580)" d="M851.645 729.476 L863.43 717.691 L864.486 718.747 L875.105 742.673 L872.514 745.263 L862.534 722.761 L853.732 731.563 L851.645 729.476 Z" fill="#000000" fill-rule="nonzero" fill-opacity="1" /><path clip-path="url(#clip580)" d="M868.291 712.83 L878.026 703.095 L880.113 705.182 L872.649 712.646 L877.143 717.139 Q877.499 716.415 877.953 715.789 Q878.395 715.15 878.935 714.61 Q882.004 711.541 885.478 711.431 Q888.952 711.32 891.825 714.193 Q894.783 717.151 894.587 720.638 Q894.378 724.112 891.027 727.463 Q889.873 728.617 888.473 729.624 Q887.086 730.618 885.417 731.502 L882.925 729.01 Q884.631 728.507 886.104 727.623 Q887.577 726.739 888.891 725.425 Q891.014 723.301 891.137 720.944 Q891.26 718.587 889.345 716.672 Q887.43 714.757 885.073 714.88 Q882.716 715.003 880.592 717.127 Q879.598 718.121 878.824 719.336 Q878.063 720.539 877.499 722.037 L868.291 712.83 Z" fill="#000000" fill-rule="nonzero" fill-opacity="1" /><path clip-path="url(#clip580)" d="M1088.58 761.186 L1092.63 757.134 L1078.65 743.152 L1075.12 748.443 L1072.86 746.184 L1076.36 740.918 L1078.84 738.438 L1095.08 754.679 L1099.14 750.628 L1101.22 752.715 L1090.66 763.272 L1088.58 761.186 Z" fill="#000000" fill-rule="nonzero" fill-opacity="1" /><path clip-path="url(#clip580)" d="M1094.84 725.708 Q1092.92 727.623 1093.84 730.483 Q1094.76 733.319 1098.55 737.1 Q1102.31 740.869 1105.16 741.802 Q1108.01 742.71 1109.93 740.795 Q1111.85 738.868 1110.93 736.032 Q1110.01 733.171 1106.24 729.403 Q1102.46 725.622 1099.61 724.713 Q1096.77 723.78 1094.84 725.708 M1092.87 723.743 Q1095.96 720.662 1100.02 721.485 Q1104.08 722.283 1108.72 726.923 Q1113.35 731.551 1114.16 735.627 Q1114.97 739.678 1111.89 742.759 Q1108.81 745.84 1104.75 745.042 Q1100.68 744.22 1096.05 739.592 Q1091.41 734.951 1090.6 730.9 Q1089.79 726.825 1092.87 723.743 Z" fill="#000000" fill-rule="nonzero" fill-opacity="1" /><path clip-path="url(#clip580)" d="M1110.83 709.712 Q1108.92 711.627 1109.84 714.487 Q1110.76 717.323 1114.54 721.104 Q1118.31 724.873 1121.16 725.806 Q1124.01 726.714 1125.92 724.799 Q1127.85 722.872 1126.93 720.036 Q1126.01 717.176 1122.24 713.407 Q1118.46 709.626 1115.61 708.717 Q1112.76 707.785 1110.83 709.712 M1108.87 707.748 Q1111.95 704.666 1116.01 705.489 Q1120.08 706.287 1124.72 710.927 Q1129.35 715.555 1130.16 719.631 Q1130.97 723.682 1127.89 726.763 Q1124.8 729.845 1120.74 729.047 Q1116.68 728.224 1112.05 723.596 Q1107.41 718.956 1106.6 714.905 Q1105.79 710.829 1108.87 707.748 Z" fill="#000000" fill-rule="nonzero" fill-opacity="1" /><polyline clip-path="url(#clip580)" style="stroke:#000000; stroke-linecap:round; stroke-linejoin:round; stroke-width:4; stroke-opacity:1; fill:none" points="161.454,677.963 161.454,106.192 "/>
<polyline clip-path="url(#clip580)" style="stroke:#000000; stroke-linecap:round; stroke-linejoin:round; stroke-width:4; stroke-opacity:1; fill:none" points="161.454,662.382 180.351,662.382 "/>
<polyline clip-path="url(#clip580)" style="stroke:#000000; stroke-linecap:round; stroke-linejoin:round; stroke-width:4; stroke-opacity:1; fill:none" points="161.454,543.717 180.351,543.717 "/>
<polyline clip-path="url(#clip580)" style="stroke:#000000; stroke-linecap:round; stroke-linejoin:round; stroke-width:4; stroke-opacity:1; fill:none" points="161.454,425.051 180.351,425.051 "/>
<polyline clip-path="url(#clip580)" style="stroke:#000000; stroke-linecap:round; stroke-linejoin:round; stroke-width:4; stroke-opacity:1; fill:none" points="161.454,306.386 180.351,306.386 "/>
<polyline clip-path="url(#clip580)" style="stroke:#000000; stroke-linecap:round; stroke-linejoin:round; stroke-width:4; stroke-opacity:1; fill:none" points="161.454,187.721 180.351,187.721 "/>
<path clip-path="url(#clip580)" d="M116.495 651.731 Q113.787 651.731 112.415 654.405 Q111.061 657.061 111.061 662.408 Q111.061 667.738 112.415 670.411 Q113.787 673.068 116.495 673.068 Q119.221 673.068 120.575 670.411 Q121.947 667.738 121.947 662.408 Q121.947 657.061 120.575 654.405 Q119.221 651.731 116.495 651.731 M116.495 648.953 Q120.853 648.953 123.145 652.408 Q125.454 655.846 125.454 662.408 Q125.454 668.953 123.145 672.408 Q120.853 675.845 116.495 675.845 Q112.138 675.845 109.829 672.408 Q107.537 668.953 107.537 662.408 Q107.537 655.846 109.829 652.408 Q112.138 648.953 116.495 648.953 Z" fill="#000000" fill-rule="nonzero" fill-opacity="1" /><path clip-path="url(#clip580)" d="M90.1412 553.725 L102.381 553.725 L102.381 556.677 L85.9225 556.677 L85.9225 553.725 Q87.919 551.659 91.3565 548.187 Q94.8113 544.698 95.6967 543.691 Q97.3808 541.798 98.0405 540.496 Q98.7176 539.177 98.7176 537.909 Q98.7176 535.843 97.2592 534.541 Q95.8183 533.239 93.4919 533.239 Q91.8426 533.239 90.0023 533.812 Q88.1794 534.385 86.0961 535.548 L86.0961 532.007 Q88.2141 531.156 90.0544 530.722 Q91.8947 530.288 93.4225 530.288 Q97.4502 530.288 99.846 532.302 Q102.242 534.316 102.242 537.684 Q102.242 539.281 101.634 540.722 Q101.044 542.146 99.4641 544.09 Q99.0301 544.593 96.7037 547.007 Q94.3773 549.402 90.1412 553.725 Z" fill="#000000" fill-rule="nonzero" fill-opacity="1" /><path clip-path="url(#clip580)" d="M109.777 530.757 L123.544 530.757 L123.544 533.708 L112.988 533.708 L112.988 540.062 Q113.752 539.802 114.516 539.68 Q115.28 539.541 116.044 539.541 Q120.384 539.541 122.919 541.92 Q125.454 544.298 125.454 548.361 Q125.454 552.545 122.849 554.871 Q120.245 557.18 115.506 557.18 Q113.874 557.18 112.172 556.902 Q110.488 556.625 108.683 556.069 L108.683 552.545 Q110.245 553.395 111.912 553.812 Q113.579 554.229 115.436 554.229 Q118.44 554.229 120.193 552.649 Q121.947 551.069 121.947 548.361 Q121.947 545.652 120.193 544.073 Q118.44 542.493 115.436 542.493 Q114.03 542.493 112.624 542.805 Q111.235 543.118 109.777 543.777 L109.777 530.757 Z" fill="#000000" fill-rule="nonzero" fill-opacity="1" /><path clip-path="url(#clip580)" d="M86.4086 412.091 L100.176 412.091 L100.176 415.043 L89.6204 415.043 L89.6204 421.397 Q90.3843 421.136 91.1482 421.015 Q91.912 420.876 92.6759 420.876 Q97.0162 420.876 99.5509 423.255 Q102.086 425.633 102.086 429.695 Q102.086 433.879 99.4814 436.206 Q96.8773 438.515 92.1377 438.515 Q90.5058 438.515 88.8044 438.237 Q87.1204 437.959 85.3149 437.404 L85.3149 433.879 Q86.8774 434.73 88.544 435.147 Q90.2107 435.563 92.0683 435.563 Q95.0718 435.563 96.8252 433.984 Q98.5787 432.404 98.5787 429.695 Q98.5787 426.987 96.8252 425.407 Q95.0718 423.827 92.0683 423.827 Q90.6621 423.827 89.2558 424.14 Q87.8669 424.452 86.4086 425.112 L86.4086 412.091 Z" fill="#000000" fill-rule="nonzero" fill-opacity="1" /><path clip-path="url(#clip580)" d="M116.495 414.4 Q113.787 414.4 112.415 417.074 Q111.061 419.73 111.061 425.077 Q111.061 430.407 112.415 433.081 Q113.787 435.737 116.495 435.737 Q119.221 435.737 120.575 433.081 Q121.947 430.407 121.947 425.077 Q121.947 419.73 120.575 417.074 Q119.221 414.4 116.495 414.4 M116.495 411.623 Q120.853 411.623 123.145 415.077 Q125.454 418.515 125.454 425.077 Q125.454 431.623 123.145 435.077 Q120.853 438.515 116.495 438.515 Q112.138 438.515 109.829 435.077 Q107.537 431.623 107.537 425.077 Q107.537 418.515 109.829 415.077 Q112.138 411.623 116.495 411.623 Z" fill="#000000" fill-rule="nonzero" fill-opacity="1" /><path clip-path="url(#clip580)" d="M86.235 293.426 L102.902 293.426 L102.902 294.919 L93.4919 319.346 L89.8287 319.346 L98.6828 296.377 L86.235 296.377 L86.235 293.426 Z" fill="#000000" fill-rule="nonzero" fill-opacity="1" /><path clip-path="url(#clip580)" d="M109.777 293.426 L123.544 293.426 L123.544 296.377 L112.988 296.377 L112.988 302.732 Q113.752 302.471 114.516 302.35 Q115.28 302.211 116.044 302.211 Q120.384 302.211 122.919 304.589 Q125.454 306.968 125.454 311.03 Q125.454 315.214 122.849 317.541 Q120.245 319.85 115.506 319.85 Q113.874 319.85 112.172 319.572 Q110.488 319.294 108.683 318.738 L108.683 315.214 Q110.245 316.065 111.912 316.482 Q113.579 316.898 115.436 316.898 Q118.44 316.898 120.193 315.318 Q121.947 313.738 121.947 311.03 Q121.947 308.322 120.193 306.742 Q118.44 305.162 115.436 305.162 Q114.03 305.162 112.624 305.475 Q111.235 305.787 109.777 306.447 L109.777 293.426 Z" fill="#000000" fill-rule="nonzero" fill-opacity="1" /><path clip-path="url(#clip580)" d="M64.3601 197.729 L70.0892 197.729 L70.0892 177.955 L63.8566 179.205 L63.8566 176.011 L70.0545 174.761 L73.5614 174.761 L73.5614 197.729 L79.2906 197.729 L79.2906 200.681 L64.3601 200.681 L64.3601 197.729 Z" fill="#000000" fill-rule="nonzero" fill-opacity="1" /><path clip-path="url(#clip580)" d="M93.8738 177.07 Q91.1655 177.07 89.794 179.743 Q88.4398 182.4 88.4398 187.747 Q88.4398 193.077 89.794 195.75 Q91.1655 198.406 93.8738 198.406 Q96.5995 198.406 97.9537 195.75 Q99.3252 193.077 99.3252 187.747 Q99.3252 182.4 97.9537 179.743 Q96.5995 177.07 93.8738 177.07 M93.8738 174.292 Q98.2315 174.292 100.523 177.747 Q102.832 181.184 102.832 187.747 Q102.832 194.292 100.523 197.747 Q98.2315 201.184 93.8738 201.184 Q89.5162 201.184 87.2072 197.747 Q84.9156 194.292 84.9156 187.747 Q84.9156 181.184 87.2072 177.747 Q89.5162 174.292 93.8738 174.292 Z" fill="#000000" fill-rule="nonzero" fill-opacity="1" /><path clip-path="url(#clip580)" d="M116.495 177.07 Q113.787 177.07 112.415 179.743 Q111.061 182.4 111.061 187.747 Q111.061 193.077 112.415 195.75 Q113.787 198.406 116.495 198.406 Q119.221 198.406 120.575 195.75 Q121.947 193.077 121.947 187.747 Q121.947 182.4 120.575 179.743 Q119.221 177.07 116.495 177.07 M116.495 174.292 Q120.853 174.292 123.145 177.747 Q125.454 181.184 125.454 187.747 Q125.454 194.292 123.145 197.747 Q120.853 201.184 116.495 201.184 Q112.138 201.184 109.829 197.747 Q107.537 194.292 107.537 187.747 Q107.537 181.184 109.829 177.747 Q112.138 174.292 116.495 174.292 Z" fill="#000000" fill-rule="nonzero" fill-opacity="1" /><path clip-path="url(#clip580)" d="M176.326 23.1654 Q172.044 23.1654 169.555 26.5218 Q167.067 29.8494 167.067 35.6653 Q167.067 41.4813 169.526 44.8377 Q172.015 48.1653 176.326 48.1653 Q180.58 48.1653 183.068 44.8088 Q185.556 41.4523 185.556 35.6653 Q185.556 29.9072 183.068 26.5508 Q180.58 23.1654 176.326 23.1654 M176.326 18.6515 Q183.271 18.6515 187.235 23.1654 Q191.199 27.6792 191.199 35.6653 Q191.199 43.6225 187.235 48.1653 Q183.271 52.6791 176.326 52.6791 Q169.353 52.6791 165.389 48.1653 Q161.454 43.6225 161.454 35.6653 Q161.454 27.6792 165.389 23.1654 Q169.353 18.6515 176.326 18.6515 Z" fill="#000000" fill-rule="nonzero" fill-opacity="1" /><path clip-path="url(#clip580)" d="M223.288 35.6653 Q223.288 29.7915 220.857 26.464 Q218.456 23.1075 214.231 23.1075 Q210.007 23.1075 207.576 26.464 Q205.174 29.7915 205.174 35.6653 Q205.174 41.5391 207.576 44.8956 Q210.007 48.2231 214.231 48.2231 Q218.456 48.2231 220.857 44.8956 Q223.288 41.5391 223.288 35.6653 M205.174 24.3517 Q206.853 21.4582 209.399 20.0693 Q211.974 18.6515 215.533 18.6515 Q221.436 18.6515 225.111 23.339 Q228.814 28.0265 228.814 35.6653 Q228.814 43.3042 225.111 47.9916 Q221.436 52.6791 215.533 52.6791 Q211.974 52.6791 209.399 51.2902 Q206.853 49.8724 205.174 46.9789 L205.174 51.84 L199.821 51.84 L199.821 6.81709 L205.174 6.81709 L205.174 24.3517 Z" fill="#000000" fill-rule="nonzero" fill-opacity="1" /><path clip-path="url(#clip580)" d="M237.639 19.4328 L242.964 19.4328 L242.964 52.4187 Q242.964 58.6108 240.591 61.3886 Q238.247 64.1663 233.01 64.1663 L230.984 64.1663 L230.984 59.6525 L232.402 59.6525 Q235.44 59.6525 236.54 58.2346 Q237.639 56.8458 237.639 52.4187 L237.639 19.4328 M237.639 6.81709 L242.964 6.81709 L242.964 13.559 L237.639 13.559 L237.639 6.81709 Z" fill="#000000" fill-rule="nonzero" fill-opacity="1" /><path clip-path="url(#clip580)" d="M281.823 34.3054 L281.823 36.9095 L257.344 36.9095 Q257.691 42.4072 260.643 45.3007 Q263.623 48.1653 268.918 48.1653 Q271.985 48.1653 274.85 47.4129 Q277.743 46.6606 280.579 45.156 L280.579 50.1907 Q277.714 51.406 274.705 52.0425 Q271.696 52.6791 268.6 52.6791 Q260.845 52.6791 256.303 48.1653 Q251.789 43.6514 251.789 35.9547 Q251.789 27.9975 256.071 23.339 Q260.382 18.6515 267.674 18.6515 Q274.213 18.6515 278.004 22.876 Q281.823 27.0716 281.823 34.3054 M276.499 32.7429 Q276.441 28.3737 274.04 25.7695 Q271.667 23.1654 267.732 23.1654 Q263.276 23.1654 260.585 25.6827 Q257.923 28.2001 257.518 32.7718 L276.499 32.7429 Z" fill="#000000" fill-rule="nonzero" fill-opacity="1" /><path clip-path="url(#clip580)" d="M313.883 20.677 L313.883 25.6538 Q311.626 24.4096 309.34 23.802 Q307.084 23.1654 304.769 23.1654 Q299.589 23.1654 296.725 26.464 Q293.86 29.7336 293.86 35.6653 Q293.86 41.597 296.725 44.8956 Q299.589 48.1653 304.769 48.1653 Q307.084 48.1653 309.34 47.5576 Q311.626 46.921 313.883 45.6768 L313.883 50.5958 Q311.655 51.6375 309.254 52.1583 Q306.881 52.6791 304.19 52.6791 Q296.869 52.6791 292.558 48.0784 Q288.247 43.4778 288.247 35.6653 Q288.247 27.7371 292.587 23.1943 Q296.956 18.6515 304.537 18.6515 Q306.997 18.6515 309.34 19.1724 Q311.684 19.6642 313.883 20.677 Z" fill="#000000" fill-rule="nonzero" fill-opacity="1" /><path clip-path="url(#clip580)" d="M328.409 10.2314 L328.409 19.4328 L339.375 19.4328 L339.375 23.5705 L328.409 23.5705 L328.409 41.163 Q328.409 45.1271 329.479 46.2555 Q330.579 47.384 333.906 47.384 L339.375 47.384 L339.375 51.84 L333.906 51.84 Q327.743 51.84 325.399 49.5541 Q323.056 47.2393 323.056 41.163 L323.056 23.5705 L319.149 23.5705 L319.149 19.4328 L323.056 19.4328 L323.056 10.2314 L328.409 10.2314 Z" fill="#000000" fill-rule="nonzero" fill-opacity="1" /><path clip-path="url(#clip580)" d="M346.377 19.4328 L351.701 19.4328 L351.701 51.84 L346.377 51.84 L346.377 19.4328 M346.377 6.81709 L351.701 6.81709 L351.701 13.559 L346.377 13.559 L346.377 6.81709 Z" fill="#000000" fill-rule="nonzero" fill-opacity="1" /><path clip-path="url(#clip580)" d="M359.022 19.4328 L364.664 19.4328 L374.792 46.6317 L384.919 19.4328 L390.561 19.4328 L378.408 51.84 L371.175 51.84 L359.022 19.4328 Z" fill="#000000" fill-rule="nonzero" fill-opacity="1" /><path clip-path="url(#clip580)" d="M425.63 34.3054 L425.63 36.9095 L401.151 36.9095 Q401.499 42.4072 404.45 45.3007 Q407.43 48.1653 412.725 48.1653 Q415.792 48.1653 418.657 47.4129 Q421.551 46.6606 424.386 45.156 L424.386 50.1907 Q421.522 51.406 418.512 52.0425 Q415.503 52.6791 412.407 52.6791 Q404.652 52.6791 400.11 48.1653 Q395.596 43.6514 395.596 35.9547 Q395.596 27.9975 399.878 23.339 Q404.19 18.6515 411.481 18.6515 Q418.02 18.6515 421.811 22.876 Q425.63 27.0716 425.63 34.3054 M420.306 32.7429 Q420.248 28.3737 417.847 25.7695 Q415.474 23.1654 411.539 23.1654 Q407.083 23.1654 404.392 25.6827 Q401.73 28.2001 401.325 32.7718 L420.306 32.7429 Z" fill="#000000" fill-rule="nonzero" fill-opacity="1" /><polyline clip-path="url(#clip582)" style="stroke:#009af9; stroke-linecap:round; stroke-linejoin:round; stroke-width:4; stroke-opacity:1; fill:none" points="189.509,661.78 198.956,661.698 208.402,661.427 217.848,661.318 227.295,661.05 236.741,660.869 246.187,660.631 255.634,660.585 265.08,660.572 274.527,660.496 283.973,660.448 293.419,660.406 302.866,660.133 312.312,660.129 321.758,659.767 331.205,659.692 340.651,659.571 350.098,659.528 359.544,659.522 368.99,659.505 378.437,659.504 387.883,659.462 397.329,659.345 406.776,659.334 416.222,659.3 425.669,659.242 435.115,659.103 444.561,659.087 454.008,659.056 463.454,659.014 472.9,658.978 482.347,658.952 491.793,658.916 501.24,658.914 510.686,658.905 520.132,658.834 529.579,658.817 539.025,658.816 548.471,658.799 557.918,658.773 567.364,658.731 576.811,658.696 586.257,658.687 595.703,658.677 605.15,658.639 614.596,658.632 624.042,658.631 633.489,658.63 642.935,658.624 652.382,658.62 661.828,658.562 671.274,658.551 680.721,658.546 690.167,658.53 699.613,658.518 709.06,658.511 718.506,658.506 727.953,658.506 737.399,658.491 746.845,658.485 756.292,658.481 765.738,658.47 775.184,658.436 784.631,658.414 794.077,658.406 803.523,658.405 812.97,658.387 822.416,658.336 831.863,658.284 841.309,658.243 850.755,658.186 860.202,658.171 869.648,658.163 879.094,658.103 888.541,657.995 897.987,657.958 907.434,657.958 916.88,657.949 926.326,657.944 935.773,657.846 945.219,657.844 954.665,657.815 964.112,657.802 973.558,657.789 983.005,657.747 992.451,657.271 1001.9,656.985 1011.34,656.379 1020.79,655.483 1030.24,655.098 1039.68,653.576 1049.13,649.009 1058.58,642.636 1068.02,641.169 1077.47,640.185 1086.91,638.934 1096.36,634.283 1105.81,613.332 1115.25,592.16 1124.7,122.374 "/>
<path clip-path="url(#clip580)" d="M1361.45 677.963 L2352.76 677.963 L2352.76 106.192 L1361.45 106.192  Z" fill="#ffffff" fill-rule="evenodd" fill-opacity="1"/>
<defs>
  <clipPath id="clip583">
    <rect x="1361" y="106" width="992" height="573"/>
  </clipPath>
</defs>
<polyline clip-path="url(#clip583)" style="stroke:#000000; stroke-linecap:round; stroke-linejoin:round; stroke-width:2; stroke-opacity:0.1; fill:none" points="1380.06,677.963 1380.06,106.192 "/>
<polyline clip-path="url(#clip583)" style="stroke:#000000; stroke-linecap:round; stroke-linejoin:round; stroke-width:2; stroke-opacity:0.1; fill:none" points="1616.22,677.963 1616.22,106.192 "/>
<polyline clip-path="url(#clip583)" style="stroke:#000000; stroke-linecap:round; stroke-linejoin:round; stroke-width:2; stroke-opacity:0.1; fill:none" points="1852.38,677.963 1852.38,106.192 "/>
<polyline clip-path="url(#clip583)" style="stroke:#000000; stroke-linecap:round; stroke-linejoin:round; stroke-width:2; stroke-opacity:0.1; fill:none" points="2088.54,677.963 2088.54,106.192 "/>
<polyline clip-path="url(#clip583)" style="stroke:#000000; stroke-linecap:round; stroke-linejoin:round; stroke-width:2; stroke-opacity:0.1; fill:none" points="2324.7,677.963 2324.7,106.192 "/>
<polyline clip-path="url(#clip583)" style="stroke:#000000; stroke-linecap:round; stroke-linejoin:round; stroke-width:2; stroke-opacity:0.1; fill:none" points="1361.45,670.411 2352.76,670.411 "/>
<polyline clip-path="url(#clip583)" style="stroke:#000000; stroke-linecap:round; stroke-linejoin:round; stroke-width:2; stroke-opacity:0.1; fill:none" points="1361.45,532.323 2352.76,532.323 "/>
<polyline clip-path="url(#clip583)" style="stroke:#000000; stroke-linecap:round; stroke-linejoin:round; stroke-width:2; stroke-opacity:0.1; fill:none" points="1361.45,394.235 2352.76,394.235 "/>
<polyline clip-path="url(#clip583)" style="stroke:#000000; stroke-linecap:round; stroke-linejoin:round; stroke-width:2; stroke-opacity:0.1; fill:none" points="1361.45,256.147 2352.76,256.147 "/>
<polyline clip-path="url(#clip583)" style="stroke:#000000; stroke-linecap:round; stroke-linejoin:round; stroke-width:2; stroke-opacity:0.1; fill:none" points="1361.45,118.059 2352.76,118.059 "/>
<polyline clip-path="url(#clip580)" style="stroke:#000000; stroke-linecap:round; stroke-linejoin:round; stroke-width:4; stroke-opacity:1; fill:none" points="1361.45,677.963 2352.76,677.963 "/>
<polyline clip-path="url(#clip580)" style="stroke:#000000; stroke-linecap:round; stroke-linejoin:round; stroke-width:4; stroke-opacity:1; fill:none" points="1380.06,677.963 1380.06,659.065 "/>
<polyline clip-path="url(#clip580)" style="stroke:#000000; stroke-linecap:round; stroke-linejoin:round; stroke-width:4; stroke-opacity:1; fill:none" points="1616.22,677.963 1616.22,659.065 "/>
<polyline clip-path="url(#clip580)" style="stroke:#000000; stroke-linecap:round; stroke-linejoin:round; stroke-width:4; stroke-opacity:1; fill:none" points="1852.38,677.963 1852.38,659.065 "/>
<polyline clip-path="url(#clip580)" style="stroke:#000000; stroke-linecap:round; stroke-linejoin:round; stroke-width:4; stroke-opacity:1; fill:none" points="2088.54,677.963 2088.54,659.065 "/>
<polyline clip-path="url(#clip580)" style="stroke:#000000; stroke-linecap:round; stroke-linejoin:round; stroke-width:4; stroke-opacity:1; fill:none" points="2324.7,677.963 2324.7,659.065 "/>
<path clip-path="url(#clip580)" d="M1366.2 709.712 Q1364.28 711.627 1365.2 714.487 Q1366.12 717.323 1369.9 721.104 Q1373.67 724.873 1376.52 725.806 Q1379.37 726.714 1381.28 724.799 Q1383.21 722.872 1382.29 720.036 Q1381.37 717.176 1377.6 713.407 Q1373.82 709.626 1370.97 708.717 Q1368.12 707.785 1366.2 709.712 M1364.23 707.748 Q1367.31 704.666 1371.38 705.489 Q1375.44 706.287 1380.08 710.927 Q1384.71 715.555 1385.52 719.631 Q1386.33 723.682 1383.25 726.763 Q1380.17 729.845 1376.1 729.047 Q1372.04 728.224 1367.41 723.596 Q1362.77 718.956 1361.96 714.905 Q1361.15 710.829 1364.23 707.748 Z" fill="#000000" fill-rule="nonzero" fill-opacity="1" /><path clip-path="url(#clip580)" d="M1598.33 742.956 L1606.98 734.301 L1609.07 736.388 L1597.43 748.026 L1595.35 745.939 Q1595.3 743.066 1595.27 738.18 Q1595.25 733.27 1595.16 731.932 Q1595.02 729.403 1594.56 728.016 Q1594.11 726.604 1593.21 725.708 Q1591.75 724.247 1589.8 724.357 Q1587.86 724.455 1586.21 726.1 Q1585.05 727.267 1584.15 728.973 Q1583.27 730.667 1582.62 732.963 L1580.11 730.458 Q1581.01 728.359 1582 726.751 Q1583 725.143 1584.08 724.063 Q1586.93 721.215 1590.04 720.944 Q1593.16 720.674 1595.54 723.056 Q1596.67 724.185 1597.26 725.634 Q1597.85 727.058 1598.11 729.55 Q1598.16 730.213 1598.22 733.564 Q1598.27 736.903 1598.33 742.956 Z" fill="#000000" fill-rule="nonzero" fill-opacity="1" /><path clip-path="url(#clip580)" d="M1595.97 712.83 L1605.71 703.095 L1607.79 705.182 L1600.33 712.646 L1604.82 717.139 Q1605.18 716.415 1605.63 715.789 Q1606.08 715.15 1606.62 714.61 Q1609.69 711.541 1613.16 711.431 Q1616.63 711.32 1619.51 714.193 Q1622.46 717.151 1622.27 720.638 Q1622.06 724.112 1618.71 727.463 Q1617.55 728.617 1616.15 729.624 Q1614.77 730.618 1613.1 731.502 L1610.61 729.01 Q1612.31 728.507 1613.79 727.623 Q1615.26 726.739 1616.57 725.425 Q1618.7 723.301 1618.82 720.944 Q1618.94 718.587 1617.03 716.672 Q1615.11 714.757 1612.75 714.88 Q1610.4 715.003 1608.27 717.127 Q1607.28 718.121 1606.51 719.336 Q1605.74 720.539 1605.18 722.037 L1595.97 712.83 Z" fill="#000000" fill-rule="nonzero" fill-opacity="1" /><path clip-path="url(#clip580)" d="M1815.61 729.354 L1825.34 719.619 L1827.43 721.706 L1819.97 729.169 L1824.46 733.663 Q1824.82 732.938 1825.27 732.312 Q1825.71 731.674 1826.25 731.134 Q1829.32 728.065 1832.8 727.954 Q1836.27 727.844 1839.14 730.716 Q1842.1 733.675 1841.9 737.161 Q1841.7 740.635 1838.34 743.987 Q1837.19 745.141 1835.79 746.147 Q1834.4 747.142 1832.73 748.026 L1830.24 745.533 Q1831.95 745.03 1833.42 744.146 Q1834.89 743.262 1836.21 741.949 Q1838.33 739.825 1838.45 737.468 Q1838.58 735.111 1836.66 733.196 Q1834.75 731.281 1832.39 731.404 Q1830.03 731.526 1827.91 733.65 Q1826.91 734.645 1826.14 735.86 Q1825.38 737.063 1824.82 738.561 L1815.61 729.354 Z" fill="#000000" fill-rule="nonzero" fill-opacity="1" /><path clip-path="url(#clip580)" d="M1838.52 709.712 Q1836.6 711.627 1837.52 714.487 Q1838.44 717.323 1842.22 721.104 Q1845.99 724.873 1848.84 725.806 Q1851.69 726.714 1853.6 724.799 Q1855.53 722.872 1854.61 720.036 Q1853.69 717.176 1849.92 713.407 Q1846.14 709.626 1843.29 708.717 Q1840.44 707.785 1838.52 709.712 M1836.55 707.748 Q1839.63 704.666 1843.7 705.489 Q1847.76 706.287 1852.4 710.927 Q1857.03 715.555 1857.84 719.631 Q1858.65 723.682 1855.57 726.763 Q1852.49 729.845 1848.42 729.047 Q1844.36 728.224 1839.73 723.596 Q1835.09 718.956 1834.28 714.905 Q1833.47 710.829 1836.55 707.748 Z" fill="#000000" fill-rule="nonzero" fill-opacity="1" /><path clip-path="url(#clip580)" d="M2051.65 729.476 L2063.43 717.691 L2064.49 718.747 L2075.1 742.673 L2072.51 745.263 L2062.53 722.761 L2053.73 731.563 L2051.65 729.476 Z" fill="#000000" fill-rule="nonzero" fill-opacity="1" /><path clip-path="url(#clip580)" d="M2068.29 712.83 L2078.03 703.095 L2080.11 705.182 L2072.65 712.646 L2077.14 717.139 Q2077.5 716.415 2077.95 715.789 Q2078.39 715.15 2078.93 714.61 Q2082 711.541 2085.48 711.431 Q2088.95 711.32 2091.82 714.193 Q2094.78 717.151 2094.59 720.638 Q2094.38 724.112 2091.03 727.463 Q2089.87 728.617 2088.47 729.624 Q2087.09 730.618 2085.42 731.502 L2082.92 729.01 Q2084.63 728.507 2086.1 727.623 Q2087.58 726.739 2088.89 725.425 Q2091.01 723.301 2091.14 720.944 Q2091.26 718.587 2089.34 716.672 Q2087.43 714.757 2085.07 714.88 Q2082.72 715.003 2080.59 717.127 Q2079.6 718.121 2078.82 719.336 Q2078.06 720.539 2077.5 722.037 L2068.29 712.83 Z" fill="#000000" fill-rule="nonzero" fill-opacity="1" /><path clip-path="url(#clip580)" d="M2288.58 761.186 L2292.63 757.134 L2278.65 743.152 L2275.12 748.443 L2272.86 746.184 L2276.36 740.918 L2278.84 738.438 L2295.08 754.679 L2299.14 750.628 L2301.22 752.715 L2290.66 763.272 L2288.58 761.186 Z" fill="#000000" fill-rule="nonzero" fill-opacity="1" /><path clip-path="url(#clip580)" d="M2294.84 725.708 Q2292.92 727.623 2293.84 730.483 Q2294.76 733.319 2298.55 737.1 Q2302.31 740.869 2305.16 741.802 Q2308.01 742.71 2309.93 740.795 Q2311.85 738.868 2310.93 736.032 Q2310.01 733.171 2306.24 729.403 Q2302.46 725.622 2299.61 724.713 Q2296.77 723.78 2294.84 725.708 M2292.87 723.743 Q2295.96 720.662 2300.02 721.485 Q2304.08 722.283 2308.72 726.923 Q2313.35 731.551 2314.16 735.627 Q2314.97 739.678 2311.89 742.759 Q2308.81 745.84 2304.75 745.042 Q2300.68 744.22 2296.05 739.592 Q2291.41 734.951 2290.6 730.9 Q2289.79 726.825 2292.87 723.743 Z" fill="#000000" fill-rule="nonzero" fill-opacity="1" /><path clip-path="url(#clip580)" d="M2310.83 709.712 Q2308.92 711.627 2309.84 714.487 Q2310.76 717.323 2314.54 721.104 Q2318.31 724.873 2321.16 725.806 Q2324.01 726.714 2325.92 724.799 Q2327.85 722.872 2326.93 720.036 Q2326.01 717.176 2322.24 713.407 Q2318.46 709.626 2315.61 708.717 Q2312.76 707.785 2310.83 709.712 M2308.87 707.748 Q2311.95 704.666 2316.01 705.489 Q2320.08 706.287 2324.72 710.927 Q2329.35 715.555 2330.16 719.631 Q2330.97 723.682 2327.89 726.763 Q2324.8 729.845 2320.74 729.047 Q2316.68 728.224 2312.05 723.596 Q2307.41 718.956 2306.6 714.905 Q2305.79 710.829 2308.87 707.748 Z" fill="#000000" fill-rule="nonzero" fill-opacity="1" /><polyline clip-path="url(#clip580)" style="stroke:#000000; stroke-linecap:round; stroke-linejoin:round; stroke-width:4; stroke-opacity:1; fill:none" points="1361.45,677.963 1361.45,106.192 "/>
<polyline clip-path="url(#clip580)" style="stroke:#000000; stroke-linecap:round; stroke-linejoin:round; stroke-width:4; stroke-opacity:1; fill:none" points="1361.45,670.411 1380.35,670.411 "/>
<polyline clip-path="url(#clip580)" style="stroke:#000000; stroke-linecap:round; stroke-linejoin:round; stroke-width:4; stroke-opacity:1; fill:none" points="1361.45,532.323 1380.35,532.323 "/>
<polyline clip-path="url(#clip580)" style="stroke:#000000; stroke-linecap:round; stroke-linejoin:round; stroke-width:4; stroke-opacity:1; fill:none" points="1361.45,394.235 1380.35,394.235 "/>
<polyline clip-path="url(#clip580)" style="stroke:#000000; stroke-linecap:round; stroke-linejoin:round; stroke-width:4; stroke-opacity:1; fill:none" points="1361.45,256.147 1380.35,256.147 "/>
<polyline clip-path="url(#clip580)" style="stroke:#000000; stroke-linecap:round; stroke-linejoin:round; stroke-width:4; stroke-opacity:1; fill:none" points="1361.45,118.059 1380.35,118.059 "/>
<path clip-path="url(#clip580)" d="M1259.95 659.76 Q1257.24 659.76 1255.87 662.434 Q1254.52 665.09 1254.52 670.437 Q1254.52 675.767 1255.87 678.44 Q1257.24 681.097 1259.95 681.097 Q1262.68 681.097 1264.03 678.44 Q1265.4 675.767 1265.4 670.437 Q1265.4 665.09 1264.03 662.434 Q1262.68 659.76 1259.95 659.76 M1259.95 656.982 Q1264.31 656.982 1266.6 660.437 Q1268.91 663.875 1268.91 670.437 Q1268.91 676.982 1266.6 680.437 Q1264.31 683.874 1259.95 683.874 Q1255.59 683.874 1253.28 680.437 Q1250.99 676.982 1250.99 670.437 Q1250.99 663.875 1253.28 660.437 Q1255.59 656.982 1259.95 656.982 Z" fill="#000000" fill-rule="nonzero" fill-opacity="1" /><path clip-path="url(#clip580)" d="M1275.07 678.961 L1278.74 678.961 L1278.74 683.371 L1275.07 683.371 L1275.07 678.961 Z" fill="#000000" fill-rule="nonzero" fill-opacity="1" /><path clip-path="url(#clip580)" d="M1293.87 659.76 Q1291.17 659.76 1289.79 662.434 Q1288.44 665.09 1288.44 670.437 Q1288.44 675.767 1289.79 678.44 Q1291.17 681.097 1293.87 681.097 Q1296.6 681.097 1297.95 678.44 Q1299.33 675.767 1299.33 670.437 Q1299.33 665.09 1297.95 662.434 Q1296.6 659.76 1293.87 659.76 M1293.87 656.982 Q1298.23 656.982 1300.52 660.437 Q1302.83 663.875 1302.83 670.437 Q1302.83 676.982 1300.52 680.437 Q1298.23 683.874 1293.87 683.874 Q1289.52 683.874 1287.21 680.437 Q1284.92 676.982 1284.92 670.437 Q1284.92 663.875 1287.21 660.437 Q1289.52 656.982 1293.87 656.982 Z" fill="#000000" fill-rule="nonzero" fill-opacity="1" /><path clip-path="url(#clip580)" d="M1316.5 659.76 Q1313.79 659.76 1312.42 662.434 Q1311.06 665.09 1311.06 670.437 Q1311.06 675.767 1312.42 678.44 Q1313.79 681.097 1316.5 681.097 Q1319.22 681.097 1320.58 678.44 Q1321.95 675.767 1321.95 670.437 Q1321.95 665.09 1320.58 662.434 Q1319.22 659.76 1316.5 659.76 M1316.5 656.982 Q1320.85 656.982 1323.14 660.437 Q1325.45 663.875 1325.45 670.437 Q1325.45 676.982 1323.14 680.437 Q1320.85 683.874 1316.5 683.874 Q1312.14 683.874 1309.83 680.437 Q1307.54 676.982 1307.54 670.437 Q1307.54 663.875 1309.83 660.437 Q1312.14 656.982 1316.5 656.982 Z" fill="#000000" fill-rule="nonzero" fill-opacity="1" /><path clip-path="url(#clip580)" d="M1260.7 521.672 Q1257.99 521.672 1256.62 524.346 Q1255.26 527.002 1255.26 532.349 Q1255.26 537.679 1256.62 540.352 Q1257.99 543.009 1260.7 543.009 Q1263.42 543.009 1264.78 540.352 Q1266.15 537.679 1266.15 532.349 Q1266.15 527.002 1264.78 524.346 Q1263.42 521.672 1260.7 521.672 M1260.7 518.894 Q1265.05 518.894 1267.35 522.349 Q1269.66 525.787 1269.66 532.349 Q1269.66 538.894 1267.35 542.349 Q1265.05 545.786 1260.7 545.786 Q1256.34 545.786 1254.03 542.349 Q1251.74 538.894 1251.74 532.349 Q1251.74 525.787 1254.03 522.349 Q1256.34 518.894 1260.7 518.894 Z" fill="#000000" fill-rule="nonzero" fill-opacity="1" /><path clip-path="url(#clip580)" d="M1275.82 540.873 L1279.48 540.873 L1279.48 545.283 L1275.82 545.283 L1275.82 540.873 Z" fill="#000000" fill-rule="nonzero" fill-opacity="1" /><path clip-path="url(#clip580)" d="M1290.14 542.332 L1302.38 542.332 L1302.38 545.283 L1285.92 545.283 L1285.92 542.332 Q1287.92 540.266 1291.36 536.793 Q1294.81 533.304 1295.7 532.297 Q1297.38 530.405 1298.04 529.102 Q1298.72 527.783 1298.72 526.516 Q1298.72 524.45 1297.26 523.148 Q1295.82 521.846 1293.49 521.846 Q1291.84 521.846 1290 522.418 Q1288.18 522.991 1286.1 524.155 L1286.1 520.613 Q1288.21 519.762 1290.05 519.328 Q1291.89 518.894 1293.42 518.894 Q1297.45 518.894 1299.85 520.908 Q1302.24 522.922 1302.24 526.29 Q1302.24 527.887 1301.63 529.328 Q1301.04 530.752 1299.46 532.696 Q1299.03 533.2 1296.7 535.613 Q1294.38 538.009 1290.14 542.332 Z" fill="#000000" fill-rule="nonzero" fill-opacity="1" /><path clip-path="url(#clip580)" d="M1309.78 519.363 L1323.54 519.363 L1323.54 522.314 L1312.99 522.314 L1312.99 528.668 Q1313.75 528.408 1314.52 528.287 Q1315.28 528.148 1316.04 528.148 Q1320.38 528.148 1322.92 530.526 Q1325.45 532.905 1325.45 536.967 Q1325.45 541.151 1322.85 543.477 Q1320.25 545.786 1315.51 545.786 Q1313.87 545.786 1312.17 545.509 Q1310.49 545.231 1308.68 544.675 L1308.68 541.151 Q1310.25 542.002 1311.91 542.418 Q1313.58 542.835 1315.44 542.835 Q1318.44 542.835 1320.19 541.255 Q1321.95 539.675 1321.95 536.967 Q1321.95 534.259 1320.19 532.679 Q1318.44 531.099 1315.44 531.099 Q1314.03 531.099 1312.62 531.412 Q1311.23 531.724 1309.78 532.384 L1309.78 519.363 Z" fill="#000000" fill-rule="nonzero" fill-opacity="1" /><path clip-path="url(#clip580)" d="M1259.95 383.584 Q1257.24 383.584 1255.87 386.258 Q1254.52 388.914 1254.52 394.261 Q1254.52 399.591 1255.87 402.264 Q1257.24 404.921 1259.95 404.921 Q1262.68 404.921 1264.03 402.264 Q1265.4 399.591 1265.4 394.261 Q1265.4 388.914 1264.03 386.258 Q1262.68 383.584 1259.95 383.584 M1259.95 380.806 Q1264.31 380.806 1266.6 384.261 Q1268.91 387.699 1268.91 394.261 Q1268.91 400.806 1266.6 404.261 Q1264.31 407.698 1259.95 407.698 Q1255.59 407.698 1253.28 404.261 Q1250.99 400.806 1250.99 394.261 Q1250.99 387.699 1253.28 384.261 Q1255.59 380.806 1259.95 380.806 Z" fill="#000000" fill-rule="nonzero" fill-opacity="1" /><path clip-path="url(#clip580)" d="M1275.07 402.785 L1278.74 402.785 L1278.74 407.195 L1275.07 407.195 L1275.07 402.785 Z" fill="#000000" fill-rule="nonzero" fill-opacity="1" /><path clip-path="url(#clip580)" d="M1286.41 381.275 L1300.18 381.275 L1300.18 384.226 L1289.62 384.226 L1289.62 390.58 Q1290.38 390.32 1291.15 390.199 Q1291.91 390.06 1292.68 390.06 Q1297.02 390.06 1299.55 392.438 Q1302.09 394.817 1302.09 398.879 Q1302.09 403.063 1299.48 405.389 Q1296.88 407.698 1292.14 407.698 Q1290.51 407.698 1288.8 407.421 Q1287.12 407.143 1285.31 406.587 L1285.31 403.063 Q1286.88 403.914 1288.54 404.33 Q1290.21 404.747 1292.07 404.747 Q1295.07 404.747 1296.83 403.167 Q1298.58 401.587 1298.58 398.879 Q1298.58 396.171 1296.83 394.591 Q1295.07 393.011 1292.07 393.011 Q1290.66 393.011 1289.26 393.324 Q1287.87 393.636 1286.41 394.296 L1286.41 381.275 Z" fill="#000000" fill-rule="nonzero" fill-opacity="1" /><path clip-path="url(#clip580)" d="M1316.5 383.584 Q1313.79 383.584 1312.42 386.258 Q1311.06 388.914 1311.06 394.261 Q1311.06 399.591 1312.42 402.264 Q1313.79 404.921 1316.5 404.921 Q1319.22 404.921 1320.58 402.264 Q1321.95 399.591 1321.95 394.261 Q1321.95 388.914 1320.58 386.258 Q1319.22 383.584 1316.5 383.584 M1316.5 380.806 Q1320.85 380.806 1323.14 384.261 Q1325.45 387.699 1325.45 394.261 Q1325.45 400.806 1323.14 404.261 Q1320.85 407.698 1316.5 407.698 Q1312.14 407.698 1309.83 404.261 Q1307.54 400.806 1307.54 394.261 Q1307.54 387.699 1309.83 384.261 Q1312.14 380.806 1316.5 380.806 Z" fill="#000000" fill-rule="nonzero" fill-opacity="1" /><path clip-path="url(#clip580)" d="M1260.7 245.496 Q1257.99 245.496 1256.62 248.17 Q1255.26 250.826 1255.26 256.173 Q1255.26 261.503 1256.62 264.176 Q1257.99 266.833 1260.7 266.833 Q1263.42 266.833 1264.78 264.176 Q1266.15 261.503 1266.15 256.173 Q1266.15 250.826 1264.78 248.17 Q1263.42 245.496 1260.7 245.496 M1260.7 242.718 Q1265.05 242.718 1267.35 246.173 Q1269.66 249.611 1269.66 256.173 Q1269.66 262.718 1267.35 266.173 Q1265.05 269.61 1260.7 269.61 Q1256.34 269.61 1254.03 266.173 Q1251.74 262.718 1251.74 256.173 Q1251.74 249.611 1254.03 246.173 Q1256.34 242.718 1260.7 242.718 Z" fill="#000000" fill-rule="nonzero" fill-opacity="1" /><path clip-path="url(#clip580)" d="M1275.82 264.697 L1279.48 264.697 L1279.48 269.107 L1275.82 269.107 L1275.82 264.697 Z" fill="#000000" fill-rule="nonzero" fill-opacity="1" /><path clip-path="url(#clip580)" d="M1286.23 243.187 L1302.9 243.187 L1302.9 244.68 L1293.49 269.107 L1289.83 269.107 L1298.68 246.138 L1286.23 246.138 L1286.23 243.187 Z" fill="#000000" fill-rule="nonzero" fill-opacity="1" /><path clip-path="url(#clip580)" d="M1309.78 243.187 L1323.54 243.187 L1323.54 246.138 L1312.99 246.138 L1312.99 252.493 Q1313.75 252.232 1314.52 252.111 Q1315.28 251.972 1316.04 251.972 Q1320.38 251.972 1322.92 254.35 Q1325.45 256.729 1325.45 260.791 Q1325.45 264.975 1322.85 267.301 Q1320.25 269.61 1315.51 269.61 Q1313.87 269.61 1312.17 269.333 Q1310.49 269.055 1308.68 268.499 L1308.68 264.975 Q1310.25 265.826 1311.91 266.242 Q1313.58 266.659 1315.44 266.659 Q1318.44 266.659 1320.19 265.079 Q1321.95 263.499 1321.95 260.791 Q1321.95 258.083 1320.19 256.503 Q1318.44 254.923 1315.44 254.923 Q1314.03 254.923 1312.62 255.236 Q1311.23 255.548 1309.78 256.208 L1309.78 243.187 Z" fill="#000000" fill-rule="nonzero" fill-opacity="1" /><path clip-path="url(#clip580)" d="M1253.06 128.068 L1258.79 128.068 L1258.79 108.293 L1252.55 109.543 L1252.55 106.349 L1258.75 105.099 L1262.26 105.099 L1262.26 128.068 L1267.99 128.068 L1267.99 131.019 L1253.06 131.019 L1253.06 128.068 Z" fill="#000000" fill-rule="nonzero" fill-opacity="1" /><path clip-path="url(#clip580)" d="M1275.07 126.609 L1278.74 126.609 L1278.74 131.019 L1275.07 131.019 L1275.07 126.609 Z" fill="#000000" fill-rule="nonzero" fill-opacity="1" /><path clip-path="url(#clip580)" d="M1293.87 107.408 Q1291.17 107.408 1289.79 110.082 Q1288.44 112.738 1288.44 118.085 Q1288.44 123.415 1289.79 126.089 Q1291.17 128.745 1293.87 128.745 Q1296.6 128.745 1297.95 126.089 Q1299.33 123.415 1299.33 118.085 Q1299.33 112.738 1297.95 110.082 Q1296.6 107.408 1293.87 107.408 M1293.87 104.63 Q1298.23 104.63 1300.52 108.085 Q1302.83 111.523 1302.83 118.085 Q1302.83 124.63 1300.52 128.085 Q1298.23 131.523 1293.87 131.523 Q1289.52 131.523 1287.21 128.085 Q1284.92 124.63 1284.92 118.085 Q1284.92 111.523 1287.21 108.085 Q1289.52 104.63 1293.87 104.63 Z" fill="#000000" fill-rule="nonzero" fill-opacity="1" /><path clip-path="url(#clip580)" d="M1316.5 107.408 Q1313.79 107.408 1312.42 110.082 Q1311.06 112.738 1311.06 118.085 Q1311.06 123.415 1312.42 126.089 Q1313.79 128.745 1316.5 128.745 Q1319.22 128.745 1320.58 126.089 Q1321.95 123.415 1321.95 118.085 Q1321.95 112.738 1320.58 110.082 Q1319.22 107.408 1316.5 107.408 M1316.5 104.63 Q1320.85 104.63 1323.14 108.085 Q1325.45 111.523 1325.45 118.085 Q1325.45 124.63 1323.14 128.085 Q1320.85 131.523 1316.5 131.523 Q1312.14 131.523 1309.83 128.085 Q1307.54 124.63 1307.54 118.085 Q1307.54 111.523 1309.83 108.085 Q1312.14 104.63 1316.5 104.63 Z" fill="#000000" fill-rule="nonzero" fill-opacity="1" /><path clip-path="url(#clip580)" d="M1363.54 20.1758 Q1364.95 17.8147 1368.44 15.7314 Q1369.81 14.9212 1374.02 14.9212 Q1378.75 14.9212 1381.68 18.6712 Q1384.65 22.4212 1384.65 28.5323 Q1384.65 34.6433 1381.68 38.3933 Q1378.75 42.1433 1374.02 42.1433 Q1371.18 42.1433 1369.12 41.0322 Q1367.08 39.8979 1365.74 37.5831 L1365.74 51.3331 L1361.45 51.3331 L1361.45 28.7637 Q1361.45 23.4165 1363.54 20.1758 M1380.23 28.5323 Q1380.23 23.8332 1378.28 21.1712 Q1376.36 18.486 1372.98 18.486 Q1369.6 18.486 1367.66 21.1712 Q1365.74 23.8332 1365.74 28.5323 Q1365.74 33.2313 1367.66 35.9165 Q1369.6 38.5785 1372.98 38.5785 Q1376.36 38.5785 1378.28 35.9165 Q1380.23 33.2313 1380.23 28.5323 Z" fill="#000000" fill-rule="nonzero" fill-opacity="1" /><polyline clip-path="url(#clip583)" style="stroke:#009af9; stroke-linecap:round; stroke-linejoin:round; stroke-width:4; stroke-opacity:1; fill:none" points="1389.51,307.93 1398.96,247.517 1408.4,351.083 1417.85,368.344 1427.29,329.506 1436.74,212.995 1446.19,381.289 1455.63,402.865 1465.08,264.778 1474.53,446.018 1483.97,234.571 1493.42,191.418 1502.87,489.17 1512.31,467.594 1521.76,273.408 1531.2,372.659 1540.65,277.723 1550.1,299.3 1559.54,364.028 1568.99,394.235 1578.44,433.072 1587.88,480.54 1597.33,510.747 1606.78,549.584 1616.22,428.757 1625.67,178.473 1635.11,398.55 1644.56,359.713 1654.01,532.323 1663.45,204.364 1672.9,519.377 1682.35,536.638 1691.79,471.909 1701.24,385.604 1710.69,558.214 1720.13,506.431 1729.58,454.648 1739.03,290.669 1748.47,588.421 1757.92,463.279 1767.36,256.147 1776.81,640.204 1786.26,441.703 1795.7,260.462 1805.15,609.997 1814.6,601.367 1824.04,152.581 1833.49,420.126 1842.94,333.822 1852.38,325.191 1861.83,243.201 1871.27,566.845 1880.72,661.78 1890.17,411.496 1899.61,657.465 1909.06,502.116 1918.51,635.889 1927.95,627.258 1937.4,230.256 1946.85,484.855 1956.29,346.767 1965.74,312.245 1975.18,644.519 1984.63,622.943 1994.08,618.628 2003.52,653.15 2012.97,575.475 2022.42,605.682 2031.86,415.811 2041.31,523.692 2050.76,169.842 2060.2,584.106 2069.65,592.736 2079.09,571.16 2088.54,450.333 2097.99,648.835 2107.43,515.062 2116.88,497.801 2126.33,376.974 2135.77,156.896 2145.22,282.039 2154.67,294.984 2164.11,553.899 2173.56,540.953 2183,437.387 2192.45,316.561 2201.9,225.94 2211.34,342.452 2220.79,221.625 2230.24,238.886 2239.68,174.157 2249.13,208.679 2258.58,161.212 2268.02,139.635 2277.47,187.103 2286.91,195.734 2296.36,126.69 2305.81,135.32 2315.25,143.951 2324.7,122.374 "/>
<polyline clip-path="url(#clip583)" style="stroke:#ff0000; stroke-linecap:round; stroke-linejoin:round; stroke-width:4; stroke-opacity:1; fill:none" stroke-dasharray="16, 10" points="1389.51,307.93 1398.96,307.93 1408.4,307.93 1417.85,307.93 1427.29,307.93 1436.74,307.93 1446.19,307.93 1455.63,307.93 1465.08,307.93 1474.53,307.93 1483.97,307.93 1493.42,307.93 1502.87,307.93 1512.31,307.93 1521.76,307.93 1531.2,307.93 1540.65,307.93 1550.1,307.93 1559.54,307.93 1568.99,307.93 1578.44,307.93 1587.88,307.93 1597.33,307.93 1606.78,307.93 1616.22,307.93 1625.67,307.93 1635.11,307.93 1644.56,307.93 1654.01,307.93 1663.45,307.93 1672.9,307.93 1682.35,307.93 1691.79,307.93 1701.24,307.93 1710.69,307.93 1720.13,307.93 1729.58,307.93 1739.03,307.93 1748.47,307.93 1757.92,307.93 1767.36,307.93 1776.81,307.93 1786.26,307.93 1795.7,307.93 1805.15,307.93 1814.6,307.93 1824.04,307.93 1833.49,307.93 1842.94,307.93 1852.38,307.93 1861.83,307.93 1871.27,307.93 1880.72,307.93 1890.17,307.93 1899.61,307.93 1909.06,307.93 1918.51,307.93 1927.95,307.93 1937.4,307.93 1946.85,307.93 1956.29,307.93 1965.74,307.93 1975.18,307.93 1984.63,307.93 1994.08,307.93 2003.52,307.93 2012.97,307.93 2022.42,307.93 2031.86,307.93 2041.31,307.93 2050.76,307.93 2060.2,307.93 2069.65,307.93 2079.09,307.93 2088.54,307.93 2097.99,307.93 2107.43,307.93 2116.88,307.93 2126.33,307.93 2135.77,307.93 2145.22,307.93 2154.67,307.93 2164.11,307.93 2173.56,307.93 2183,307.93 2192.45,307.93 2201.9,307.93 2211.34,307.93 2220.79,307.93 2230.24,307.93 2239.68,307.93 2249.13,307.93 2258.58,307.93 2268.02,307.93 2277.47,307.93 2286.91,307.93 2296.36,307.93 2305.81,307.93 2315.25,307.93 2324.7,307.93 "/>
<path clip-path="url(#clip580)" d="M161.454 1473.64 L1152.76 1473.64 L1152.76 901.872 L161.454 901.872  Z" fill="#ffffff" fill-rule="evenodd" fill-opacity="1"/>
<defs>
  <clipPath id="clip584">
    <rect x="161" y="901" width="992" height="573"/>
  </clipPath>
</defs>
<polyline clip-path="url(#clip584)" style="stroke:#000000; stroke-linecap:round; stroke-linejoin:round; stroke-width:2; stroke-opacity:0.1; fill:none" points="180.063,1473.64 180.063,901.872 "/>
<polyline clip-path="url(#clip584)" style="stroke:#000000; stroke-linecap:round; stroke-linejoin:round; stroke-width:2; stroke-opacity:0.1; fill:none" points="416.222,1473.64 416.222,901.872 "/>
<polyline clip-path="url(#clip584)" style="stroke:#000000; stroke-linecap:round; stroke-linejoin:round; stroke-width:2; stroke-opacity:0.1; fill:none" points="652.382,1473.64 652.382,901.872 "/>
<polyline clip-path="url(#clip584)" style="stroke:#000000; stroke-linecap:round; stroke-linejoin:round; stroke-width:2; stroke-opacity:0.1; fill:none" points="888.541,1473.64 888.541,901.872 "/>
<polyline clip-path="url(#clip584)" style="stroke:#000000; stroke-linecap:round; stroke-linejoin:round; stroke-width:2; stroke-opacity:0.1; fill:none" points="1124.7,1473.64 1124.7,901.872 "/>
<polyline clip-path="url(#clip584)" style="stroke:#000000; stroke-linecap:round; stroke-linejoin:round; stroke-width:2; stroke-opacity:0.1; fill:none" points="161.454,1466.09 1152.76,1466.09 "/>
<polyline clip-path="url(#clip584)" style="stroke:#000000; stroke-linecap:round; stroke-linejoin:round; stroke-width:2; stroke-opacity:0.1; fill:none" points="161.454,1328 1152.76,1328 "/>
<polyline clip-path="url(#clip584)" style="stroke:#000000; stroke-linecap:round; stroke-linejoin:round; stroke-width:2; stroke-opacity:0.1; fill:none" points="161.454,1189.91 1152.76,1189.91 "/>
<polyline clip-path="url(#clip584)" style="stroke:#000000; stroke-linecap:round; stroke-linejoin:round; stroke-width:2; stroke-opacity:0.1; fill:none" points="161.454,1051.83 1152.76,1051.83 "/>
<polyline clip-path="url(#clip584)" style="stroke:#000000; stroke-linecap:round; stroke-linejoin:round; stroke-width:2; stroke-opacity:0.1; fill:none" points="161.454,913.739 1152.76,913.739 "/>
<polyline clip-path="url(#clip580)" style="stroke:#000000; stroke-linecap:round; stroke-linejoin:round; stroke-width:4; stroke-opacity:1; fill:none" points="161.454,1473.64 1152.76,1473.64 "/>
<polyline clip-path="url(#clip580)" style="stroke:#000000; stroke-linecap:round; stroke-linejoin:round; stroke-width:4; stroke-opacity:1; fill:none" points="180.063,1473.64 180.063,1454.74 "/>
<polyline clip-path="url(#clip580)" style="stroke:#000000; stroke-linecap:round; stroke-linejoin:round; stroke-width:4; stroke-opacity:1; fill:none" points="416.222,1473.64 416.222,1454.74 "/>
<polyline clip-path="url(#clip580)" style="stroke:#000000; stroke-linecap:round; stroke-linejoin:round; stroke-width:4; stroke-opacity:1; fill:none" points="652.382,1473.64 652.382,1454.74 "/>
<polyline clip-path="url(#clip580)" style="stroke:#000000; stroke-linecap:round; stroke-linejoin:round; stroke-width:4; stroke-opacity:1; fill:none" points="888.541,1473.64 888.541,1454.74 "/>
<polyline clip-path="url(#clip580)" style="stroke:#000000; stroke-linecap:round; stroke-linejoin:round; stroke-width:4; stroke-opacity:1; fill:none" points="1124.7,1473.64 1124.7,1454.74 "/>
<path clip-path="url(#clip580)" d="M166.197 1505.39 Q164.282 1507.31 165.203 1510.17 Q166.123 1513 169.904 1516.78 Q173.673 1520.55 176.521 1521.49 Q179.369 1522.39 181.284 1520.48 Q183.212 1518.55 182.291 1515.72 Q181.37 1512.86 177.602 1509.09 Q173.82 1505.31 170.972 1504.4 Q168.124 1503.46 166.197 1505.39 M164.233 1503.43 Q167.314 1500.35 171.378 1501.17 Q175.441 1501.97 180.081 1506.61 Q184.709 1511.24 185.52 1515.31 Q186.33 1519.36 183.249 1522.44 Q180.167 1525.52 176.104 1524.73 Q172.04 1523.9 167.412 1519.28 Q162.772 1514.64 161.962 1510.58 Q161.152 1506.51 164.233 1503.43 Z" fill="#000000" fill-rule="nonzero" fill-opacity="1" /><path clip-path="url(#clip580)" d="M398.33 1538.64 L406.984 1529.98 L409.071 1532.07 L397.434 1543.71 L395.347 1541.62 Q395.298 1538.75 395.273 1533.86 Q395.249 1528.95 395.163 1527.61 Q395.015 1525.08 394.561 1523.7 Q394.107 1522.28 393.211 1521.39 Q391.75 1519.93 389.798 1520.04 Q387.858 1520.14 386.213 1521.78 Q385.047 1522.95 384.151 1524.65 Q383.267 1526.35 382.616 1528.64 L380.112 1526.14 Q381.008 1524.04 382.003 1522.43 Q382.997 1520.82 384.077 1519.74 Q386.925 1516.89 390.043 1516.62 Q393.162 1516.35 395.543 1518.74 Q396.673 1519.87 397.262 1521.31 Q397.851 1522.74 398.109 1525.23 Q398.158 1525.89 398.219 1529.24 Q398.268 1532.58 398.33 1538.64 Z" fill="#000000" fill-rule="nonzero" fill-opacity="1" /><path clip-path="url(#clip580)" d="M395.973 1508.51 L405.708 1498.78 L407.795 1500.86 L400.331 1508.33 L404.824 1512.82 Q405.18 1512.09 405.634 1511.47 Q406.076 1510.83 406.616 1510.29 Q409.685 1507.22 413.159 1507.11 Q416.633 1507 419.506 1509.87 Q422.465 1512.83 422.268 1516.32 Q422.059 1519.79 418.708 1523.14 Q417.554 1524.3 416.155 1525.3 Q414.767 1526.3 413.098 1527.18 L410.606 1524.69 Q412.312 1524.19 413.785 1523.3 Q415.259 1522.42 416.572 1521.11 Q418.696 1518.98 418.819 1516.62 Q418.941 1514.27 417.026 1512.35 Q415.111 1510.44 412.754 1510.56 Q410.397 1510.68 408.273 1512.81 Q407.279 1513.8 406.506 1515.02 Q405.745 1516.22 405.18 1517.72 L395.973 1508.51 Z" fill="#000000" fill-rule="nonzero" fill-opacity="1" /><path clip-path="url(#clip580)" d="M615.608 1525.03 L625.343 1515.3 L627.43 1517.39 L619.967 1524.85 L624.46 1529.34 Q624.816 1528.62 625.27 1527.99 Q625.712 1527.35 626.252 1526.81 Q629.321 1523.74 632.795 1523.63 Q636.269 1523.52 639.142 1526.4 Q642.1 1529.35 641.904 1532.84 Q641.695 1536.32 638.344 1539.67 Q637.19 1540.82 635.79 1541.83 Q634.403 1542.82 632.734 1543.71 L630.242 1541.21 Q631.948 1540.71 633.421 1539.83 Q634.894 1538.94 636.208 1537.63 Q638.332 1535.51 638.454 1533.15 Q638.577 1530.79 636.662 1528.88 Q634.747 1526.96 632.39 1527.08 Q630.033 1527.21 627.909 1529.33 Q626.915 1530.32 626.141 1531.54 Q625.38 1532.74 624.816 1534.24 L615.608 1525.03 Z" fill="#000000" fill-rule="nonzero" fill-opacity="1" /><path clip-path="url(#clip580)" d="M638.516 1505.39 Q636.601 1507.31 637.521 1510.17 Q638.442 1513 642.223 1516.78 Q645.992 1520.55 648.84 1521.49 Q651.688 1522.39 653.603 1520.48 Q655.53 1518.55 654.61 1515.72 Q653.689 1512.86 649.92 1509.09 Q646.139 1505.31 643.291 1504.4 Q640.443 1503.46 638.516 1505.39 M636.552 1503.43 Q639.633 1500.35 643.696 1501.17 Q647.76 1501.97 652.4 1506.61 Q657.028 1511.24 657.838 1515.31 Q658.648 1519.36 655.567 1522.44 Q652.486 1525.52 648.422 1524.73 Q644.359 1523.9 639.731 1519.28 Q635.091 1514.64 634.28 1510.58 Q633.47 1506.51 636.552 1503.43 Z" fill="#000000" fill-rule="nonzero" fill-opacity="1" /><path clip-path="url(#clip580)" d="M851.645 1525.16 L863.43 1513.37 L864.486 1514.43 L875.105 1538.35 L872.514 1540.94 L862.534 1518.44 L853.732 1527.24 L851.645 1525.16 Z" fill="#000000" fill-rule="nonzero" fill-opacity="1" /><path clip-path="url(#clip580)" d="M868.291 1508.51 L878.026 1498.78 L880.113 1500.86 L872.649 1508.33 L877.143 1512.82 Q877.499 1512.09 877.953 1511.47 Q878.395 1510.83 878.935 1510.29 Q882.004 1507.22 885.478 1507.11 Q888.952 1507 891.825 1509.87 Q894.783 1512.83 894.587 1516.32 Q894.378 1519.79 891.027 1523.14 Q889.873 1524.3 888.473 1525.3 Q887.086 1526.3 885.417 1527.18 L882.925 1524.69 Q884.631 1524.19 886.104 1523.3 Q887.577 1522.42 888.891 1521.11 Q891.014 1518.98 891.137 1516.62 Q891.26 1514.27 889.345 1512.35 Q887.43 1510.44 885.073 1510.56 Q882.716 1510.68 880.592 1512.81 Q879.598 1513.8 878.824 1515.02 Q878.063 1516.22 877.499 1517.72 L868.291 1508.51 Z" fill="#000000" fill-rule="nonzero" fill-opacity="1" /><path clip-path="url(#clip580)" d="M1088.58 1556.87 L1092.63 1552.81 L1078.65 1538.83 L1075.12 1544.12 L1072.86 1541.86 L1076.36 1536.6 L1078.84 1534.12 L1095.08 1550.36 L1099.14 1546.31 L1101.22 1548.4 L1090.66 1558.95 L1088.58 1556.87 Z" fill="#000000" fill-rule="nonzero" fill-opacity="1" /><path clip-path="url(#clip580)" d="M1094.84 1521.39 Q1092.92 1523.3 1093.84 1526.16 Q1094.76 1529 1098.55 1532.78 Q1102.31 1536.55 1105.16 1537.48 Q1108.01 1538.39 1109.93 1536.47 Q1111.85 1534.55 1110.93 1531.71 Q1110.01 1528.85 1106.24 1525.08 Q1102.46 1521.3 1099.61 1520.39 Q1096.77 1519.46 1094.84 1521.39 M1092.87 1519.42 Q1095.96 1516.34 1100.02 1517.16 Q1104.08 1517.96 1108.72 1522.6 Q1113.35 1527.23 1114.16 1531.31 Q1114.97 1535.36 1111.89 1538.44 Q1108.81 1541.52 1104.75 1540.72 Q1100.68 1539.9 1096.05 1535.27 Q1091.41 1530.63 1090.6 1526.58 Q1089.79 1522.5 1092.87 1519.42 Z" fill="#000000" fill-rule="nonzero" fill-opacity="1" /><path clip-path="url(#clip580)" d="M1110.83 1505.39 Q1108.92 1507.31 1109.84 1510.17 Q1110.76 1513 1114.54 1516.78 Q1118.31 1520.55 1121.16 1521.49 Q1124.01 1522.39 1125.92 1520.48 Q1127.85 1518.55 1126.93 1515.72 Q1126.01 1512.86 1122.24 1509.09 Q1118.46 1505.31 1115.61 1504.4 Q1112.76 1503.46 1110.83 1505.39 M1108.87 1503.43 Q1111.95 1500.35 1116.01 1501.17 Q1120.08 1501.97 1124.72 1506.61 Q1129.35 1511.24 1130.16 1515.31 Q1130.97 1519.36 1127.89 1522.44 Q1124.8 1525.52 1120.74 1524.73 Q1116.68 1523.9 1112.05 1519.28 Q1107.41 1514.64 1106.6 1510.58 Q1105.79 1506.51 1108.87 1503.43 Z" fill="#000000" fill-rule="nonzero" fill-opacity="1" /><polyline clip-path="url(#clip580)" style="stroke:#000000; stroke-linecap:round; stroke-linejoin:round; stroke-width:4; stroke-opacity:1; fill:none" points="161.454,1473.64 161.454,901.872 "/>
<polyline clip-path="url(#clip580)" style="stroke:#000000; stroke-linecap:round; stroke-linejoin:round; stroke-width:4; stroke-opacity:1; fill:none" points="161.454,1466.09 180.351,1466.09 "/>
<polyline clip-path="url(#clip580)" style="stroke:#000000; stroke-linecap:round; stroke-linejoin:round; stroke-width:4; stroke-opacity:1; fill:none" points="161.454,1328 180.351,1328 "/>
<polyline clip-path="url(#clip580)" style="stroke:#000000; stroke-linecap:round; stroke-linejoin:round; stroke-width:4; stroke-opacity:1; fill:none" points="161.454,1189.91 180.351,1189.91 "/>
<polyline clip-path="url(#clip580)" style="stroke:#000000; stroke-linecap:round; stroke-linejoin:round; stroke-width:4; stroke-opacity:1; fill:none" points="161.454,1051.83 180.351,1051.83 "/>
<polyline clip-path="url(#clip580)" style="stroke:#000000; stroke-linecap:round; stroke-linejoin:round; stroke-width:4; stroke-opacity:1; fill:none" points="161.454,913.739 180.351,913.739 "/>
<path clip-path="url(#clip580)" d="M59.9504 1455.44 Q57.2421 1455.44 55.8706 1458.11 Q54.5164 1460.77 54.5164 1466.12 Q54.5164 1471.45 55.8706 1474.12 Q57.2421 1476.78 59.9504 1476.78 Q62.6761 1476.78 64.0303 1474.12 Q65.4018 1471.45 65.4018 1466.12 Q65.4018 1460.77 64.0303 1458.11 Q62.6761 1455.44 59.9504 1455.44 M59.9504 1452.66 Q64.308 1452.66 66.5997 1456.12 Q68.9087 1459.55 68.9087 1466.12 Q68.9087 1472.66 66.5997 1476.12 Q64.308 1479.55 59.9504 1479.55 Q55.5928 1479.55 53.2838 1476.12 Q50.9921 1472.66 50.9921 1466.12 Q50.9921 1459.55 53.2838 1456.12 Q55.5928 1452.66 59.9504 1452.66 Z" fill="#000000" fill-rule="nonzero" fill-opacity="1" /><path clip-path="url(#clip580)" d="M75.0719 1474.64 L78.735 1474.64 L78.735 1479.05 L75.0719 1479.05 L75.0719 1474.64 Z" fill="#000000" fill-rule="nonzero" fill-opacity="1" /><path clip-path="url(#clip580)" d="M93.8738 1455.44 Q91.1655 1455.44 89.794 1458.11 Q88.4398 1460.77 88.4398 1466.12 Q88.4398 1471.45 89.794 1474.12 Q91.1655 1476.78 93.8738 1476.78 Q96.5995 1476.78 97.9537 1474.12 Q99.3252 1471.45 99.3252 1466.12 Q99.3252 1460.77 97.9537 1458.11 Q96.5995 1455.44 93.8738 1455.44 M93.8738 1452.66 Q98.2315 1452.66 100.523 1456.12 Q102.832 1459.55 102.832 1466.12 Q102.832 1472.66 100.523 1476.12 Q98.2315 1479.55 93.8738 1479.55 Q89.5162 1479.55 87.2072 1476.12 Q84.9156 1472.66 84.9156 1466.12 Q84.9156 1459.55 87.2072 1456.12 Q89.5162 1452.66 93.8738 1452.66 Z" fill="#000000" fill-rule="nonzero" fill-opacity="1" /><path clip-path="url(#clip580)" d="M116.495 1455.44 Q113.787 1455.44 112.415 1458.11 Q111.061 1460.77 111.061 1466.12 Q111.061 1471.45 112.415 1474.12 Q113.787 1476.78 116.495 1476.78 Q119.221 1476.78 120.575 1474.12 Q121.947 1471.45 121.947 1466.12 Q121.947 1460.77 120.575 1458.11 Q119.221 1455.44 116.495 1455.44 M116.495 1452.66 Q120.853 1452.66 123.145 1456.12 Q125.454 1459.55 125.454 1466.12 Q125.454 1472.66 123.145 1476.12 Q120.853 1479.55 116.495 1479.55 Q112.138 1479.55 109.829 1476.12 Q107.537 1472.66 107.537 1466.12 Q107.537 1459.55 109.829 1456.12 Q112.138 1452.66 116.495 1452.66 Z" fill="#000000" fill-rule="nonzero" fill-opacity="1" /><path clip-path="url(#clip580)" d="M60.6969 1317.35 Q57.9886 1317.35 56.6171 1320.03 Q55.2629 1322.68 55.2629 1328.03 Q55.2629 1333.36 56.6171 1336.03 Q57.9886 1338.69 60.6969 1338.69 Q63.4226 1338.69 64.7768 1336.03 Q66.1483 1333.36 66.1483 1328.03 Q66.1483 1322.68 64.7768 1320.03 Q63.4226 1317.35 60.6969 1317.35 M60.6969 1314.57 Q65.0546 1314.57 67.3462 1318.03 Q69.6552 1321.47 69.6552 1328.03 Q69.6552 1334.57 67.3462 1338.03 Q65.0546 1341.47 60.6969 1341.47 Q56.3393 1341.47 54.0303 1338.03 Q51.7386 1334.57 51.7386 1328.03 Q51.7386 1321.47 54.0303 1318.03 Q56.3393 1314.57 60.6969 1314.57 Z" fill="#000000" fill-rule="nonzero" fill-opacity="1" /><path clip-path="url(#clip580)" d="M75.8184 1336.55 L79.4816 1336.55 L79.4816 1340.96 L75.8184 1340.96 L75.8184 1336.55 Z" fill="#000000" fill-rule="nonzero" fill-opacity="1" /><path clip-path="url(#clip580)" d="M90.1412 1338.01 L102.381 1338.01 L102.381 1340.96 L85.9225 1340.96 L85.9225 1338.01 Q87.919 1335.95 91.3565 1332.47 Q94.8113 1328.98 95.6967 1327.98 Q97.3808 1326.08 98.0405 1324.78 Q98.7176 1323.46 98.7176 1322.2 Q98.7176 1320.13 97.2592 1318.83 Q95.8183 1317.53 93.4919 1317.53 Q91.8426 1317.53 90.0023 1318.1 Q88.1794 1318.67 86.0961 1319.83 L86.0961 1316.29 Q88.2141 1315.44 90.0544 1315.01 Q91.8947 1314.57 93.4225 1314.57 Q97.4502 1314.57 99.846 1316.59 Q102.242 1318.6 102.242 1321.97 Q102.242 1323.57 101.634 1325.01 Q101.044 1326.43 99.4641 1328.38 Q99.0301 1328.88 96.7037 1331.29 Q94.3773 1333.69 90.1412 1338.01 Z" fill="#000000" fill-rule="nonzero" fill-opacity="1" /><path clip-path="url(#clip580)" d="M109.777 1315.04 L123.544 1315.04 L123.544 1317.99 L112.988 1317.99 L112.988 1324.35 Q113.752 1324.09 114.516 1323.97 Q115.28 1323.83 116.044 1323.83 Q120.384 1323.83 122.919 1326.21 Q125.454 1328.58 125.454 1332.65 Q125.454 1336.83 122.849 1339.16 Q120.245 1341.47 115.506 1341.47 Q113.874 1341.47 112.172 1341.19 Q110.488 1340.91 108.683 1340.36 L108.683 1336.83 Q110.245 1337.68 111.912 1338.1 Q113.579 1338.52 115.436 1338.52 Q118.44 1338.52 120.193 1336.94 Q121.947 1335.36 121.947 1332.65 Q121.947 1329.94 120.193 1328.36 Q118.44 1326.78 115.436 1326.78 Q114.03 1326.78 112.624 1327.09 Q111.235 1327.4 109.777 1328.06 L109.777 1315.04 Z" fill="#000000" fill-rule="nonzero" fill-opacity="1" /><path clip-path="url(#clip580)" d="M59.9504 1179.26 Q57.2421 1179.26 55.8706 1181.94 Q54.5164 1184.59 54.5164 1189.94 Q54.5164 1195.27 55.8706 1197.94 Q57.2421 1200.6 59.9504 1200.6 Q62.6761 1200.6 64.0303 1197.94 Q65.4018 1195.27 65.4018 1189.94 Q65.4018 1184.59 64.0303 1181.94 Q62.6761 1179.26 59.9504 1179.26 M59.9504 1176.49 Q64.308 1176.49 66.5997 1179.94 Q68.9087 1183.38 68.9087 1189.94 Q68.9087 1196.49 66.5997 1199.94 Q64.308 1203.38 59.9504 1203.38 Q55.5928 1203.38 53.2838 1199.94 Q50.9921 1196.49 50.9921 1189.94 Q50.9921 1183.38 53.2838 1179.94 Q55.5928 1176.49 59.9504 1176.49 Z" fill="#000000" fill-rule="nonzero" fill-opacity="1" /><path clip-path="url(#clip580)" d="M75.0719 1198.47 L78.735 1198.47 L78.735 1202.87 L75.0719 1202.87 L75.0719 1198.47 Z" fill="#000000" fill-rule="nonzero" fill-opacity="1" /><path clip-path="url(#clip580)" d="M86.4086 1176.95 L100.176 1176.95 L100.176 1179.91 L89.6204 1179.91 L89.6204 1186.26 Q90.3843 1186 91.1482 1185.88 Q91.912 1185.74 92.6759 1185.74 Q97.0162 1185.74 99.5509 1188.12 Q102.086 1190.5 102.086 1194.56 Q102.086 1198.74 99.4814 1201.07 Q96.8773 1203.38 92.1377 1203.38 Q90.5058 1203.38 88.8044 1203.1 Q87.1204 1202.82 85.3149 1202.27 L85.3149 1198.74 Q86.8774 1199.59 88.544 1200.01 Q90.2107 1200.43 92.0683 1200.43 Q95.0718 1200.43 96.8252 1198.85 Q98.5787 1197.27 98.5787 1194.56 Q98.5787 1191.85 96.8252 1190.27 Q95.0718 1188.69 92.0683 1188.69 Q90.6621 1188.69 89.2558 1189 Q87.8669 1189.32 86.4086 1189.98 L86.4086 1176.95 Z" fill="#000000" fill-rule="nonzero" fill-opacity="1" /><path clip-path="url(#clip580)" d="M116.495 1179.26 Q113.787 1179.26 112.415 1181.94 Q111.061 1184.59 111.061 1189.94 Q111.061 1195.27 112.415 1197.94 Q113.787 1200.6 116.495 1200.6 Q119.221 1200.6 120.575 1197.94 Q121.947 1195.27 121.947 1189.94 Q121.947 1184.59 120.575 1181.94 Q119.221 1179.26 116.495 1179.26 M116.495 1176.49 Q120.853 1176.49 123.145 1179.94 Q125.454 1183.38 125.454 1189.94 Q125.454 1196.49 123.145 1199.94 Q120.853 1203.38 116.495 1203.38 Q112.138 1203.38 109.829 1199.94 Q107.537 1196.49 107.537 1189.94 Q107.537 1183.38 109.829 1179.94 Q112.138 1176.49 116.495 1176.49 Z" fill="#000000" fill-rule="nonzero" fill-opacity="1" /><path clip-path="url(#clip580)" d="M60.6969 1041.18 Q57.9886 1041.18 56.6171 1043.85 Q55.2629 1046.51 55.2629 1051.85 Q55.2629 1057.18 56.6171 1059.86 Q57.9886 1062.51 60.6969 1062.51 Q63.4226 1062.51 64.7768 1059.86 Q66.1483 1057.18 66.1483 1051.85 Q66.1483 1046.51 64.7768 1043.85 Q63.4226 1041.18 60.6969 1041.18 M60.6969 1038.4 Q65.0546 1038.4 67.3462 1041.85 Q69.6552 1045.29 69.6552 1051.85 Q69.6552 1058.4 67.3462 1061.85 Q65.0546 1065.29 60.6969 1065.29 Q56.3393 1065.29 54.0303 1061.85 Q51.7386 1058.4 51.7386 1051.85 Q51.7386 1045.29 54.0303 1041.85 Q56.3393 1038.4 60.6969 1038.4 Z" fill="#000000" fill-rule="nonzero" fill-opacity="1" /><path clip-path="url(#clip580)" d="M75.8184 1060.38 L79.4816 1060.38 L79.4816 1064.79 L75.8184 1064.79 L75.8184 1060.38 Z" fill="#000000" fill-rule="nonzero" fill-opacity="1" /><path clip-path="url(#clip580)" d="M86.235 1038.87 L102.902 1038.87 L102.902 1040.36 L93.4919 1064.79 L89.8287 1064.79 L98.6828 1041.82 L86.235 1041.82 L86.235 1038.87 Z" fill="#000000" fill-rule="nonzero" fill-opacity="1" /><path clip-path="url(#clip580)" d="M109.777 1038.87 L123.544 1038.87 L123.544 1041.82 L112.988 1041.82 L112.988 1048.17 Q113.752 1047.91 114.516 1047.79 Q115.28 1047.65 116.044 1047.65 Q120.384 1047.65 122.919 1050.03 Q125.454 1052.41 125.454 1056.47 Q125.454 1060.66 122.849 1062.98 Q120.245 1065.29 115.506 1065.29 Q113.874 1065.29 112.172 1065.01 Q110.488 1064.73 108.683 1064.18 L108.683 1060.66 Q110.245 1061.51 111.912 1061.92 Q113.579 1062.34 115.436 1062.34 Q118.44 1062.34 120.193 1060.76 Q121.947 1059.18 121.947 1056.47 Q121.947 1053.76 120.193 1052.18 Q118.44 1050.6 115.436 1050.6 Q114.03 1050.6 112.624 1050.92 Q111.235 1051.23 109.777 1051.89 L109.777 1038.87 Z" fill="#000000" fill-rule="nonzero" fill-opacity="1" /><path clip-path="url(#clip580)" d="M53.0581 923.748 L58.7872 923.748 L58.7872 903.973 L52.5546 905.223 L52.5546 902.029 L58.7525 900.779 L62.2594 900.779 L62.2594 923.748 L67.9886 923.748 L67.9886 926.699 L53.0581 926.699 L53.0581 923.748 Z" fill="#000000" fill-rule="nonzero" fill-opacity="1" /><path clip-path="url(#clip580)" d="M75.0719 922.289 L78.735 922.289 L78.735 926.699 L75.0719 926.699 L75.0719 922.289 Z" fill="#000000" fill-rule="nonzero" fill-opacity="1" /><path clip-path="url(#clip580)" d="M93.8738 903.088 Q91.1655 903.088 89.794 905.762 Q88.4398 908.418 88.4398 913.765 Q88.4398 919.095 89.794 921.769 Q91.1655 924.425 93.8738 924.425 Q96.5995 924.425 97.9537 921.769 Q99.3252 919.095 99.3252 913.765 Q99.3252 908.418 97.9537 905.762 Q96.5995 903.088 93.8738 903.088 M93.8738 900.31 Q98.2315 900.31 100.523 903.765 Q102.832 907.203 102.832 913.765 Q102.832 920.31 100.523 923.765 Q98.2315 927.203 93.8738 927.203 Q89.5162 927.203 87.2072 923.765 Q84.9156 920.31 84.9156 913.765 Q84.9156 907.203 87.2072 903.765 Q89.5162 900.31 93.8738 900.31 Z" fill="#000000" fill-rule="nonzero" fill-opacity="1" /><path clip-path="url(#clip580)" d="M116.495 903.088 Q113.787 903.088 112.415 905.762 Q111.061 908.418 111.061 913.765 Q111.061 919.095 112.415 921.769 Q113.787 924.425 116.495 924.425 Q119.221 924.425 120.575 921.769 Q121.947 919.095 121.947 913.765 Q121.947 908.418 120.575 905.762 Q119.221 903.088 116.495 903.088 M116.495 900.31 Q120.853 900.31 123.145 903.765 Q125.454 907.203 125.454 913.765 Q125.454 920.31 123.145 923.765 Q120.853 927.203 116.495 927.203 Q112.138 927.203 109.829 923.765 Q107.537 920.31 107.537 913.765 Q107.537 907.203 109.829 903.765 Q112.138 900.31 116.495 900.31 Z" fill="#000000" fill-rule="nonzero" fill-opacity="1" /><path clip-path="url(#clip580)" d="M173.352 823.246 Q169.833 823.246 167.935 825.792 Q165.944 828.454 165.944 832.852 Q165.944 837.505 167.912 840.19 Q169.903 842.852 173.352 842.852 Q176.754 842.852 178.745 840.167 Q180.736 837.482 180.736 832.852 Q180.736 828.616 178.745 825.792 Q176.916 823.246 173.352 823.246 M173.352 819.866 L187.495 819.866 L187.495 824.125 L182.727 824.125 Q185.25 827.737 185.25 832.852 Q185.25 839.218 182.078 842.829 Q178.907 846.463 173.352 846.463 Q167.773 846.463 164.625 842.829 Q161.454 839.218 161.454 832.852 Q161.454 826.44 164.625 822.852 Q167.241 819.866 173.352 819.866 Z" fill="#000000" fill-rule="nonzero" fill-opacity="1" /><path clip-path="url(#clip580)" d="M211.662 823.987 Q210.805 823.686 209.949 823.454 Q207.657 822.852 205.203 822.852 Q200.967 822.852 198.606 825.144 Q196.407 827.274 195.99 831.186 L211.662 831.186 L211.662 834.519 L195.99 834.519 Q196.407 838.431 198.606 840.561 Q200.967 842.852 205.203 842.852 Q208.166 842.852 209.949 842.25 L211.662 841.672 L211.662 845.537 L209.833 845.954 Q207.426 846.463 204.949 846.463 Q198.745 846.463 195.134 842.852 Q191.5 839.241 191.5 832.852 Q191.5 826.463 195.134 822.852 Q198.745 819.241 204.949 819.241 Q207.287 819.241 209.833 819.75 Q210.759 819.936 211.662 820.213 L211.662 823.987 Z" fill="#000000" fill-rule="nonzero" fill-opacity="1" /><polyline clip-path="url(#clip584)" style="stroke:#009af9; stroke-linecap:round; stroke-linejoin:round; stroke-width:4; stroke-opacity:1; fill:none" points="189.509,1103.61 198.956,1164.02 208.402,1060.46 217.848,1043.2 227.295,1125.19 236.741,1198.55 246.187,969.837 255.634,1008.67 265.08,1146.76 274.527,965.522 283.973,1254.64 293.419,1263.27 302.866,922.37 312.312,987.098 321.758,1276.22 331.205,1116.56 340.651,1073.4 350.098,1250.33 359.544,1228.75 368.99,1189.91 378.437,1159.71 387.883,1069.09 397.329,978.468 406.776,1000.04 416.222,1155.39 425.669,1371.16 435.115,1194.23 444.561,1224.44 454.008,1051.83 463.454,1345.26 472.9,1107.93 482.347,1056.14 491.793,1215.81 501.24,1302.11 510.686,1129.5 520.132,1181.28 529.579,1094.98 539.025,1017.31 548.471,1038.88 557.918,1258.96 567.364,1328 576.811,952.576 586.257,1323.69 595.703,1332.32 605.15,1077.72 614.596,1120.87 624.042,1431.57 633.489,1267.59 642.935,1353.89 652.382,1397.05 661.828,1384.1 671.274,1293.48 680.721,1025.94 690.167,1414.31 699.613,1246.01 709.06,1366.84 718.506,948.261 727.953,1336.63 737.399,1457.46 746.845,1280.54 756.292,1418.62 765.738,1315.06 775.184,1319.37 784.631,1142.45 794.077,1207.18 803.523,1172.65 812.97,974.153 822.416,1401.36 831.863,935.315 841.309,1440.2 850.755,1241.7 860.202,1379.79 869.648,1233.07 879.094,1297.8 888.541,1453.15 897.987,1392.73 907.434,1310.74 916.88,1362.52 926.326,1448.83 935.773,1435.88 945.219,1405.68 954.665,1021.62 964.112,1349.58 973.558,1422.94 983.005,1388.42 992.451,956.892 1001.9,1090.66 1011.34,931 1020.79,1086.35 1030.24,1034.57 1039.68,1176.97 1049.13,1004.36 1058.58,1112.24 1068.02,1211.49 1077.47,982.783 1086.91,939.631 1096.36,1284.85 1105.81,1138.13 1115.25,991.414 1124.7,918.054 "/>
<polyline clip-path="url(#clip584)" style="stroke:#ff0000; stroke-linecap:round; stroke-linejoin:round; stroke-width:4; stroke-opacity:1; fill:none" stroke-dasharray="16, 10" points="189.509,1103.61 198.956,1103.61 208.402,1103.61 217.848,1103.61 227.295,1103.61 236.741,1103.61 246.187,1103.61 255.634,1103.61 265.08,1103.61 274.527,1103.61 283.973,1103.61 293.419,1103.61 302.866,1103.61 312.312,1103.61 321.758,1103.61 331.205,1103.61 340.651,1103.61 350.098,1103.61 359.544,1103.61 368.99,1103.61 378.437,1103.61 387.883,1103.61 397.329,1103.61 406.776,1103.61 416.222,1103.61 425.669,1103.61 435.115,1103.61 444.561,1103.61 454.008,1103.61 463.454,1103.61 472.9,1103.61 482.347,1103.61 491.793,1103.61 501.24,1103.61 510.686,1103.61 520.132,1103.61 529.579,1103.61 539.025,1103.61 548.471,1103.61 557.918,1103.61 567.364,1103.61 576.811,1103.61 586.257,1103.61 595.703,1103.61 605.15,1103.61 614.596,1103.61 624.042,1103.61 633.489,1103.61 642.935,1103.61 652.382,1103.61 661.828,1103.61 671.274,1103.61 680.721,1103.61 690.167,1103.61 699.613,1103.61 709.06,1103.61 718.506,1103.61 727.953,1103.61 737.399,1103.61 746.845,1103.61 756.292,1103.61 765.738,1103.61 775.184,1103.61 784.631,1103.61 794.077,1103.61 803.523,1103.61 812.97,1103.61 822.416,1103.61 831.863,1103.61 841.309,1103.61 850.755,1103.61 860.202,1103.61 869.648,1103.61 879.094,1103.61 888.541,1103.61 897.987,1103.61 907.434,1103.61 916.88,1103.61 926.326,1103.61 935.773,1103.61 945.219,1103.61 954.665,1103.61 964.112,1103.61 973.558,1103.61 983.005,1103.61 992.451,1103.61 1001.9,1103.61 1011.34,1103.61 1020.79,1103.61 1030.24,1103.61 1039.68,1103.61 1049.13,1103.61 1058.58,1103.61 1068.02,1103.61 1077.47,1103.61 1086.91,1103.61 1096.36,1103.61 1105.81,1103.61 1115.25,1103.61 1124.7,1103.61 "/>
<path clip-path="url(#clip580)" d="M1361.45 1473.64 L2352.76 1473.64 L2352.76 901.872 L1361.45 901.872  Z" fill="#ffffff" fill-rule="evenodd" fill-opacity="1"/>
<defs>
  <clipPath id="clip585">
    <rect x="1361" y="901" width="992" height="573"/>
  </clipPath>
</defs>
<polyline clip-path="url(#clip585)" style="stroke:#000000; stroke-linecap:round; stroke-linejoin:round; stroke-width:2; stroke-opacity:0.1; fill:none" points="1380.06,1473.64 1380.06,901.872 "/>
<polyline clip-path="url(#clip585)" style="stroke:#000000; stroke-linecap:round; stroke-linejoin:round; stroke-width:2; stroke-opacity:0.1; fill:none" points="1616.22,1473.64 1616.22,901.872 "/>
<polyline clip-path="url(#clip585)" style="stroke:#000000; stroke-linecap:round; stroke-linejoin:round; stroke-width:2; stroke-opacity:0.1; fill:none" points="1852.38,1473.64 1852.38,901.872 "/>
<polyline clip-path="url(#clip585)" style="stroke:#000000; stroke-linecap:round; stroke-linejoin:round; stroke-width:2; stroke-opacity:0.1; fill:none" points="2088.54,1473.64 2088.54,901.872 "/>
<polyline clip-path="url(#clip585)" style="stroke:#000000; stroke-linecap:round; stroke-linejoin:round; stroke-width:2; stroke-opacity:0.1; fill:none" points="2324.7,1473.64 2324.7,901.872 "/>
<polyline clip-path="url(#clip585)" style="stroke:#000000; stroke-linecap:round; stroke-linejoin:round; stroke-width:2; stroke-opacity:0.1; fill:none" points="1361.45,1461.78 2352.76,1461.78 "/>
<polyline clip-path="url(#clip585)" style="stroke:#000000; stroke-linecap:round; stroke-linejoin:round; stroke-width:2; stroke-opacity:0.1; fill:none" points="1361.45,1323.69 2352.76,1323.69 "/>
<polyline clip-path="url(#clip585)" style="stroke:#000000; stroke-linecap:round; stroke-linejoin:round; stroke-width:2; stroke-opacity:0.1; fill:none" points="1361.45,1185.6 2352.76,1185.6 "/>
<polyline clip-path="url(#clip585)" style="stroke:#000000; stroke-linecap:round; stroke-linejoin:round; stroke-width:2; stroke-opacity:0.1; fill:none" points="1361.45,1047.51 2352.76,1047.51 "/>
<polyline clip-path="url(#clip585)" style="stroke:#000000; stroke-linecap:round; stroke-linejoin:round; stroke-width:2; stroke-opacity:0.1; fill:none" points="1361.45,909.424 2352.76,909.424 "/>
<polyline clip-path="url(#clip580)" style="stroke:#000000; stroke-linecap:round; stroke-linejoin:round; stroke-width:4; stroke-opacity:1; fill:none" points="1361.45,1473.64 2352.76,1473.64 "/>
<polyline clip-path="url(#clip580)" style="stroke:#000000; stroke-linecap:round; stroke-linejoin:round; stroke-width:4; stroke-opacity:1; fill:none" points="1380.06,1473.64 1380.06,1454.74 "/>
<polyline clip-path="url(#clip580)" style="stroke:#000000; stroke-linecap:round; stroke-linejoin:round; stroke-width:4; stroke-opacity:1; fill:none" points="1616.22,1473.64 1616.22,1454.74 "/>
<polyline clip-path="url(#clip580)" style="stroke:#000000; stroke-linecap:round; stroke-linejoin:round; stroke-width:4; stroke-opacity:1; fill:none" points="1852.38,1473.64 1852.38,1454.74 "/>
<polyline clip-path="url(#clip580)" style="stroke:#000000; stroke-linecap:round; stroke-linejoin:round; stroke-width:4; stroke-opacity:1; fill:none" points="2088.54,1473.64 2088.54,1454.74 "/>
<polyline clip-path="url(#clip580)" style="stroke:#000000; stroke-linecap:round; stroke-linejoin:round; stroke-width:4; stroke-opacity:1; fill:none" points="2324.7,1473.64 2324.7,1454.74 "/>
<path clip-path="url(#clip580)" d="M1366.2 1505.39 Q1364.28 1507.31 1365.2 1510.17 Q1366.12 1513 1369.9 1516.78 Q1373.67 1520.55 1376.52 1521.49 Q1379.37 1522.39 1381.28 1520.48 Q1383.21 1518.55 1382.29 1515.72 Q1381.37 1512.86 1377.6 1509.09 Q1373.82 1505.31 1370.97 1504.4 Q1368.12 1503.46 1366.2 1505.39 M1364.23 1503.43 Q1367.31 1500.35 1371.38 1501.17 Q1375.44 1501.97 1380.08 1506.61 Q1384.71 1511.24 1385.52 1515.31 Q1386.33 1519.36 1383.25 1522.44 Q1380.17 1525.52 1376.1 1524.73 Q1372.04 1523.9 1367.41 1519.28 Q1362.77 1514.64 1361.96 1510.58 Q1361.15 1506.51 1364.23 1503.43 Z" fill="#000000" fill-rule="nonzero" fill-opacity="1" /><path clip-path="url(#clip580)" d="M1598.33 1538.64 L1606.98 1529.98 L1609.07 1532.07 L1597.43 1543.71 L1595.35 1541.62 Q1595.3 1538.75 1595.27 1533.86 Q1595.25 1528.95 1595.16 1527.61 Q1595.02 1525.08 1594.56 1523.7 Q1594.11 1522.28 1593.21 1521.39 Q1591.75 1519.93 1589.8 1520.04 Q1587.86 1520.14 1586.21 1521.78 Q1585.05 1522.95 1584.15 1524.65 Q1583.27 1526.35 1582.62 1528.64 L1580.11 1526.14 Q1581.01 1524.04 1582 1522.43 Q1583 1520.82 1584.08 1519.74 Q1586.93 1516.89 1590.04 1516.62 Q1593.16 1516.35 1595.54 1518.74 Q1596.67 1519.87 1597.26 1521.31 Q1597.85 1522.74 1598.11 1525.23 Q1598.16 1525.89 1598.22 1529.24 Q1598.27 1532.58 1598.33 1538.64 Z" fill="#000000" fill-rule="nonzero" fill-opacity="1" /><path clip-path="url(#clip580)" d="M1595.97 1508.51 L1605.71 1498.78 L1607.79 1500.86 L1600.33 1508.33 L1604.82 1512.82 Q1605.18 1512.09 1605.63 1511.47 Q1606.08 1510.83 1606.62 1510.29 Q1609.69 1507.22 1613.16 1507.11 Q1616.63 1507 1619.51 1509.87 Q1622.46 1512.83 1622.27 1516.32 Q1622.06 1519.79 1618.71 1523.14 Q1617.55 1524.3 1616.15 1525.3 Q1614.77 1526.3 1613.1 1527.18 L1610.61 1524.69 Q1612.31 1524.19 1613.79 1523.3 Q1615.26 1522.42 1616.57 1521.11 Q1618.7 1518.98 1618.82 1516.62 Q1618.94 1514.27 1617.03 1512.35 Q1615.11 1510.44 1612.75 1510.56 Q1610.4 1510.68 1608.27 1512.81 Q1607.28 1513.8 1606.51 1515.02 Q1605.74 1516.22 1605.18 1517.72 L1595.97 1508.51 Z" fill="#000000" fill-rule="nonzero" fill-opacity="1" /><path clip-path="url(#clip580)" d="M1815.61 1525.03 L1825.34 1515.3 L1827.43 1517.39 L1819.97 1524.85 L1824.46 1529.34 Q1824.82 1528.62 1825.27 1527.99 Q1825.71 1527.35 1826.25 1526.81 Q1829.32 1523.74 1832.8 1523.63 Q1836.27 1523.52 1839.14 1526.4 Q1842.1 1529.35 1841.9 1532.84 Q1841.7 1536.32 1838.34 1539.67 Q1837.19 1540.82 1835.79 1541.83 Q1834.4 1542.82 1832.73 1543.71 L1830.24 1541.21 Q1831.95 1540.71 1833.42 1539.83 Q1834.89 1538.94 1836.21 1537.63 Q1838.33 1535.51 1838.45 1533.15 Q1838.58 1530.79 1836.66 1528.88 Q1834.75 1526.96 1832.39 1527.08 Q1830.03 1527.21 1827.91 1529.33 Q1826.91 1530.32 1826.14 1531.54 Q1825.38 1532.74 1824.82 1534.24 L1815.61 1525.03 Z" fill="#000000" fill-rule="nonzero" fill-opacity="1" /><path clip-path="url(#clip580)" d="M1838.52 1505.39 Q1836.6 1507.31 1837.52 1510.17 Q1838.44 1513 1842.22 1516.78 Q1845.99 1520.55 1848.84 1521.49 Q1851.69 1522.39 1853.6 1520.48 Q1855.53 1518.55 1854.61 1515.72 Q1853.69 1512.86 1849.92 1509.09 Q1846.14 1505.31 1843.29 1504.4 Q1840.44 1503.46 1838.52 1505.39 M1836.55 1503.43 Q1839.63 1500.35 1843.7 1501.17 Q1847.76 1501.97 1852.4 1506.61 Q1857.03 1511.24 1857.84 1515.31 Q1858.65 1519.36 1855.57 1522.44 Q1852.49 1525.52 1848.42 1524.73 Q1844.36 1523.9 1839.73 1519.28 Q1835.09 1514.64 1834.28 1510.58 Q1833.47 1506.51 1836.55 1503.43 Z" fill="#000000" fill-rule="nonzero" fill-opacity="1" /><path clip-path="url(#clip580)" d="M2051.65 1525.16 L2063.43 1513.37 L2064.49 1514.43 L2075.1 1538.35 L2072.51 1540.94 L2062.53 1518.44 L2053.73 1527.24 L2051.65 1525.16 Z" fill="#000000" fill-rule="nonzero" fill-opacity="1" /><path clip-path="url(#clip580)" d="M2068.29 1508.51 L2078.03 1498.78 L2080.11 1500.86 L2072.65 1508.33 L2077.14 1512.82 Q2077.5 1512.09 2077.95 1511.47 Q2078.39 1510.83 2078.93 1510.29 Q2082 1507.22 2085.48 1507.11 Q2088.95 1507 2091.82 1509.87 Q2094.78 1512.83 2094.59 1516.32 Q2094.38 1519.79 2091.03 1523.14 Q2089.87 1524.3 2088.47 1525.3 Q2087.09 1526.3 2085.42 1527.18 L2082.92 1524.69 Q2084.63 1524.19 2086.1 1523.3 Q2087.58 1522.42 2088.89 1521.11 Q2091.01 1518.98 2091.14 1516.62 Q2091.26 1514.27 2089.34 1512.35 Q2087.43 1510.44 2085.07 1510.56 Q2082.72 1510.68 2080.59 1512.81 Q2079.6 1513.8 2078.82 1515.02 Q2078.06 1516.22 2077.5 1517.72 L2068.29 1508.51 Z" fill="#000000" fill-rule="nonzero" fill-opacity="1" /><path clip-path="url(#clip580)" d="M2288.58 1556.87 L2292.63 1552.81 L2278.65 1538.83 L2275.12 1544.12 L2272.86 1541.86 L2276.36 1536.6 L2278.84 1534.12 L2295.08 1550.36 L2299.14 1546.31 L2301.22 1548.4 L2290.66 1558.95 L2288.58 1556.87 Z" fill="#000000" fill-rule="nonzero" fill-opacity="1" /><path clip-path="url(#clip580)" d="M2294.84 1521.39 Q2292.92 1523.3 2293.84 1526.16 Q2294.76 1529 2298.55 1532.78 Q2302.31 1536.55 2305.16 1537.48 Q2308.01 1538.39 2309.93 1536.47 Q2311.85 1534.55 2310.93 1531.71 Q2310.01 1528.85 2306.24 1525.08 Q2302.46 1521.3 2299.61 1520.39 Q2296.77 1519.46 2294.84 1521.39 M2292.87 1519.42 Q2295.96 1516.34 2300.02 1517.16 Q2304.08 1517.96 2308.72 1522.6 Q2313.35 1527.23 2314.16 1531.31 Q2314.97 1535.36 2311.89 1538.44 Q2308.81 1541.52 2304.75 1540.72 Q2300.68 1539.9 2296.05 1535.27 Q2291.41 1530.63 2290.6 1526.58 Q2289.79 1522.5 2292.87 1519.42 Z" fill="#000000" fill-rule="nonzero" fill-opacity="1" /><path clip-path="url(#clip580)" d="M2310.83 1505.39 Q2308.92 1507.31 2309.84 1510.17 Q2310.76 1513 2314.54 1516.78 Q2318.31 1520.55 2321.16 1521.49 Q2324.01 1522.39 2325.92 1520.48 Q2327.85 1518.55 2326.93 1515.72 Q2326.01 1512.86 2322.24 1509.09 Q2318.46 1505.31 2315.61 1504.4 Q2312.76 1503.46 2310.83 1505.39 M2308.87 1503.43 Q2311.95 1500.35 2316.01 1501.17 Q2320.08 1501.97 2324.72 1506.61 Q2329.35 1511.24 2330.16 1515.31 Q2330.97 1519.36 2327.89 1522.44 Q2324.8 1525.52 2320.74 1524.73 Q2316.68 1523.9 2312.05 1519.28 Q2307.41 1514.64 2306.6 1510.58 Q2305.79 1506.51 2308.87 1503.43 Z" fill="#000000" fill-rule="nonzero" fill-opacity="1" /><polyline clip-path="url(#clip580)" style="stroke:#000000; stroke-linecap:round; stroke-linejoin:round; stroke-width:4; stroke-opacity:1; fill:none" points="1361.45,1473.64 1361.45,901.872 "/>
<polyline clip-path="url(#clip580)" style="stroke:#000000; stroke-linecap:round; stroke-linejoin:round; stroke-width:4; stroke-opacity:1; fill:none" points="1361.45,1461.78 1380.35,1461.78 "/>
<polyline clip-path="url(#clip580)" style="stroke:#000000; stroke-linecap:round; stroke-linejoin:round; stroke-width:4; stroke-opacity:1; fill:none" points="1361.45,1323.69 1380.35,1323.69 "/>
<polyline clip-path="url(#clip580)" style="stroke:#000000; stroke-linecap:round; stroke-linejoin:round; stroke-width:4; stroke-opacity:1; fill:none" points="1361.45,1185.6 1380.35,1185.6 "/>
<polyline clip-path="url(#clip580)" style="stroke:#000000; stroke-linecap:round; stroke-linejoin:round; stroke-width:4; stroke-opacity:1; fill:none" points="1361.45,1047.51 1380.35,1047.51 "/>
<polyline clip-path="url(#clip580)" style="stroke:#000000; stroke-linecap:round; stroke-linejoin:round; stroke-width:4; stroke-opacity:1; fill:none" points="1361.45,909.424 1380.35,909.424 "/>
<path clip-path="url(#clip580)" d="M1259.95 1451.12 Q1257.24 1451.12 1255.87 1453.8 Q1254.52 1456.45 1254.52 1461.8 Q1254.52 1467.13 1255.87 1469.81 Q1257.24 1472.46 1259.95 1472.46 Q1262.68 1472.46 1264.03 1469.81 Q1265.4 1467.13 1265.4 1461.8 Q1265.4 1456.45 1264.03 1453.8 Q1262.68 1451.12 1259.95 1451.12 M1259.95 1448.35 Q1264.31 1448.35 1266.6 1451.8 Q1268.91 1455.24 1268.91 1461.8 Q1268.91 1468.35 1266.6 1471.8 Q1264.31 1475.24 1259.95 1475.24 Q1255.59 1475.24 1253.28 1471.8 Q1250.99 1468.35 1250.99 1461.8 Q1250.99 1455.24 1253.28 1451.8 Q1255.59 1448.35 1259.95 1448.35 Z" fill="#000000" fill-rule="nonzero" fill-opacity="1" /><path clip-path="url(#clip580)" d="M1275.07 1470.33 L1278.74 1470.33 L1278.74 1474.74 L1275.07 1474.74 L1275.07 1470.33 Z" fill="#000000" fill-rule="nonzero" fill-opacity="1" /><path clip-path="url(#clip580)" d="M1293.87 1451.12 Q1291.17 1451.12 1289.79 1453.8 Q1288.44 1456.45 1288.44 1461.8 Q1288.44 1467.13 1289.79 1469.81 Q1291.17 1472.46 1293.87 1472.46 Q1296.6 1472.46 1297.95 1469.81 Q1299.33 1467.13 1299.33 1461.8 Q1299.33 1456.45 1297.95 1453.8 Q1296.6 1451.12 1293.87 1451.12 M1293.87 1448.35 Q1298.23 1448.35 1300.52 1451.8 Q1302.83 1455.24 1302.83 1461.8 Q1302.83 1468.35 1300.52 1471.8 Q1298.23 1475.24 1293.87 1475.24 Q1289.52 1475.24 1287.21 1471.8 Q1284.92 1468.35 1284.92 1461.8 Q1284.92 1455.24 1287.21 1451.8 Q1289.52 1448.35 1293.87 1448.35 Z" fill="#000000" fill-rule="nonzero" fill-opacity="1" /><path clip-path="url(#clip580)" d="M1316.5 1451.12 Q1313.79 1451.12 1312.42 1453.8 Q1311.06 1456.45 1311.06 1461.8 Q1311.06 1467.13 1312.42 1469.81 Q1313.79 1472.46 1316.5 1472.46 Q1319.22 1472.46 1320.58 1469.81 Q1321.95 1467.13 1321.95 1461.8 Q1321.95 1456.45 1320.58 1453.8 Q1319.22 1451.12 1316.5 1451.12 M1316.5 1448.35 Q1320.85 1448.35 1323.14 1451.8 Q1325.45 1455.24 1325.45 1461.8 Q1325.45 1468.35 1323.14 1471.8 Q1320.85 1475.24 1316.5 1475.24 Q1312.14 1475.24 1309.83 1471.8 Q1307.54 1468.35 1307.54 1461.8 Q1307.54 1455.24 1309.83 1451.8 Q1312.14 1448.35 1316.5 1448.35 Z" fill="#000000" fill-rule="nonzero" fill-opacity="1" /><path clip-path="url(#clip580)" d="M1260.7 1313.04 Q1257.99 1313.04 1256.62 1315.71 Q1255.26 1318.37 1255.26 1323.71 Q1255.26 1329.04 1256.62 1331.72 Q1257.99 1334.37 1260.7 1334.37 Q1263.42 1334.37 1264.78 1331.72 Q1266.15 1329.04 1266.15 1323.71 Q1266.15 1318.37 1264.78 1315.71 Q1263.42 1313.04 1260.7 1313.04 M1260.7 1310.26 Q1265.05 1310.26 1267.35 1313.71 Q1269.66 1317.15 1269.66 1323.71 Q1269.66 1330.26 1267.35 1333.71 Q1265.05 1337.15 1260.7 1337.15 Q1256.34 1337.15 1254.03 1333.71 Q1251.74 1330.26 1251.74 1323.71 Q1251.74 1317.15 1254.03 1313.71 Q1256.34 1310.26 1260.7 1310.26 Z" fill="#000000" fill-rule="nonzero" fill-opacity="1" /><path clip-path="url(#clip580)" d="M1275.82 1332.24 L1279.48 1332.24 L1279.48 1336.65 L1275.82 1336.65 L1275.82 1332.24 Z" fill="#000000" fill-rule="nonzero" fill-opacity="1" /><path clip-path="url(#clip580)" d="M1290.14 1333.7 L1302.38 1333.7 L1302.38 1336.65 L1285.92 1336.65 L1285.92 1333.7 Q1287.92 1331.63 1291.36 1328.16 Q1294.81 1324.67 1295.7 1323.66 Q1297.38 1321.77 1298.04 1320.47 Q1298.72 1319.15 1298.72 1317.88 Q1298.72 1315.81 1297.26 1314.51 Q1295.82 1313.21 1293.49 1313.21 Q1291.84 1313.21 1290 1313.78 Q1288.18 1314.36 1286.1 1315.52 L1286.1 1311.98 Q1288.21 1311.13 1290.05 1310.69 Q1291.89 1310.26 1293.42 1310.26 Q1297.45 1310.26 1299.85 1312.27 Q1302.24 1314.29 1302.24 1317.65 Q1302.24 1319.25 1301.63 1320.69 Q1301.04 1322.12 1299.46 1324.06 Q1299.03 1324.56 1296.7 1326.98 Q1294.38 1329.37 1290.14 1333.7 Z" fill="#000000" fill-rule="nonzero" fill-opacity="1" /><path clip-path="url(#clip580)" d="M1309.78 1310.73 L1323.54 1310.73 L1323.54 1313.68 L1312.99 1313.68 L1312.99 1320.03 Q1313.75 1319.77 1314.52 1319.65 Q1315.28 1319.51 1316.04 1319.51 Q1320.38 1319.51 1322.92 1321.89 Q1325.45 1324.27 1325.45 1328.33 Q1325.45 1332.52 1322.85 1334.84 Q1320.25 1337.15 1315.51 1337.15 Q1313.87 1337.15 1312.17 1336.87 Q1310.49 1336.6 1308.68 1336.04 L1308.68 1332.52 Q1310.25 1333.37 1311.91 1333.78 Q1313.58 1334.2 1315.44 1334.2 Q1318.44 1334.2 1320.19 1332.62 Q1321.95 1331.04 1321.95 1328.33 Q1321.95 1325.62 1320.19 1324.04 Q1318.44 1322.46 1315.44 1322.46 Q1314.03 1322.46 1312.62 1322.78 Q1311.23 1323.09 1309.78 1323.75 L1309.78 1310.73 Z" fill="#000000" fill-rule="nonzero" fill-opacity="1" /><path clip-path="url(#clip580)" d="M1259.95 1174.95 Q1257.24 1174.95 1255.87 1177.62 Q1254.52 1180.28 1254.52 1185.63 Q1254.52 1190.96 1255.87 1193.63 Q1257.24 1196.29 1259.95 1196.29 Q1262.68 1196.29 1264.03 1193.63 Q1265.4 1190.96 1265.4 1185.63 Q1265.4 1180.28 1264.03 1177.62 Q1262.68 1174.95 1259.95 1174.95 M1259.95 1172.17 Q1264.31 1172.17 1266.6 1175.63 Q1268.91 1179.06 1268.91 1185.63 Q1268.91 1192.17 1266.6 1195.63 Q1264.31 1199.06 1259.95 1199.06 Q1255.59 1199.06 1253.28 1195.63 Q1250.99 1192.17 1250.99 1185.63 Q1250.99 1179.06 1253.28 1175.63 Q1255.59 1172.17 1259.95 1172.17 Z" fill="#000000" fill-rule="nonzero" fill-opacity="1" /><path clip-path="url(#clip580)" d="M1275.07 1194.15 L1278.74 1194.15 L1278.74 1198.56 L1275.07 1198.56 L1275.07 1194.15 Z" fill="#000000" fill-rule="nonzero" fill-opacity="1" /><path clip-path="url(#clip580)" d="M1286.41 1172.64 L1300.18 1172.64 L1300.18 1175.59 L1289.62 1175.59 L1289.62 1181.95 Q1290.38 1181.68 1291.15 1181.56 Q1291.91 1181.42 1292.68 1181.42 Q1297.02 1181.42 1299.55 1183.8 Q1302.09 1186.18 1302.09 1190.24 Q1302.09 1194.43 1299.48 1196.75 Q1296.88 1199.06 1292.14 1199.06 Q1290.51 1199.06 1288.8 1198.79 Q1287.12 1198.51 1285.31 1197.95 L1285.31 1194.43 Q1286.88 1195.28 1288.54 1195.7 Q1290.21 1196.11 1292.07 1196.11 Q1295.07 1196.11 1296.83 1194.53 Q1298.58 1192.95 1298.58 1190.24 Q1298.58 1187.54 1296.83 1185.96 Q1295.07 1184.38 1292.07 1184.38 Q1290.66 1184.38 1289.26 1184.69 Q1287.87 1185 1286.41 1185.66 L1286.41 1172.64 Z" fill="#000000" fill-rule="nonzero" fill-opacity="1" /><path clip-path="url(#clip580)" d="M1316.5 1174.95 Q1313.79 1174.95 1312.42 1177.62 Q1311.06 1180.28 1311.06 1185.63 Q1311.06 1190.96 1312.42 1193.63 Q1313.79 1196.29 1316.5 1196.29 Q1319.22 1196.29 1320.58 1193.63 Q1321.95 1190.96 1321.95 1185.63 Q1321.95 1180.28 1320.58 1177.62 Q1319.22 1174.95 1316.5 1174.95 M1316.5 1172.17 Q1320.85 1172.17 1323.14 1175.63 Q1325.45 1179.06 1325.45 1185.63 Q1325.45 1192.17 1323.14 1195.63 Q1320.85 1199.06 1316.5 1199.06 Q1312.14 1199.06 1309.83 1195.63 Q1307.54 1192.17 1307.54 1185.63 Q1307.54 1179.06 1309.83 1175.63 Q1312.14 1172.17 1316.5 1172.17 Z" fill="#000000" fill-rule="nonzero" fill-opacity="1" /><path clip-path="url(#clip580)" d="M1260.7 1036.86 Q1257.99 1036.86 1256.62 1039.53 Q1255.26 1042.19 1255.26 1047.54 Q1255.26 1052.87 1256.62 1055.54 Q1257.99 1058.2 1260.7 1058.2 Q1263.42 1058.2 1264.78 1055.54 Q1266.15 1052.87 1266.15 1047.54 Q1266.15 1042.19 1264.78 1039.53 Q1263.42 1036.86 1260.7 1036.86 M1260.7 1034.08 Q1265.05 1034.08 1267.35 1037.54 Q1269.66 1040.98 1269.66 1047.54 Q1269.66 1054.08 1267.35 1057.54 Q1265.05 1060.98 1260.7 1060.98 Q1256.34 1060.98 1254.03 1057.54 Q1251.74 1054.08 1251.74 1047.54 Q1251.74 1040.98 1254.03 1037.54 Q1256.34 1034.08 1260.7 1034.08 Z" fill="#000000" fill-rule="nonzero" fill-opacity="1" /><path clip-path="url(#clip580)" d="M1275.82 1056.06 L1279.48 1056.06 L1279.48 1060.47 L1275.82 1060.47 L1275.82 1056.06 Z" fill="#000000" fill-rule="nonzero" fill-opacity="1" /><path clip-path="url(#clip580)" d="M1286.23 1034.55 L1302.9 1034.55 L1302.9 1036.04 L1293.49 1060.47 L1289.83 1060.47 L1298.68 1037.5 L1286.23 1037.5 L1286.23 1034.55 Z" fill="#000000" fill-rule="nonzero" fill-opacity="1" /><path clip-path="url(#clip580)" d="M1309.78 1034.55 L1323.54 1034.55 L1323.54 1037.5 L1312.99 1037.5 L1312.99 1043.86 Q1313.75 1043.6 1314.52 1043.48 Q1315.28 1043.34 1316.04 1043.34 Q1320.38 1043.34 1322.92 1045.71 Q1325.45 1048.09 1325.45 1052.16 Q1325.45 1056.34 1322.85 1058.67 Q1320.25 1060.98 1315.51 1060.98 Q1313.87 1060.98 1312.17 1060.7 Q1310.49 1060.42 1308.68 1059.86 L1308.68 1056.34 Q1310.25 1057.19 1311.91 1057.61 Q1313.58 1058.02 1315.44 1058.02 Q1318.44 1058.02 1320.19 1056.44 Q1321.95 1054.86 1321.95 1052.16 Q1321.95 1049.45 1320.19 1047.87 Q1318.44 1046.29 1315.44 1046.29 Q1314.03 1046.29 1312.62 1046.6 Q1311.23 1046.91 1309.78 1047.57 L1309.78 1034.55 Z" fill="#000000" fill-rule="nonzero" fill-opacity="1" /><path clip-path="url(#clip580)" d="M1253.06 919.432 L1258.79 919.432 L1258.79 899.658 L1252.55 900.908 L1252.55 897.714 L1258.75 896.464 L1262.26 896.464 L1262.26 919.432 L1267.99 919.432 L1267.99 922.384 L1253.06 922.384 L1253.06 919.432 Z" fill="#000000" fill-rule="nonzero" fill-opacity="1" /><path clip-path="url(#clip580)" d="M1275.07 917.974 L1278.74 917.974 L1278.74 922.384 L1275.07 922.384 L1275.07 917.974 Z" fill="#000000" fill-rule="nonzero" fill-opacity="1" /><path clip-path="url(#clip580)" d="M1293.87 898.773 Q1291.17 898.773 1289.79 901.446 Q1288.44 904.103 1288.44 909.45 Q1288.44 914.78 1289.79 917.453 Q1291.17 920.11 1293.87 920.11 Q1296.6 920.11 1297.95 917.453 Q1299.33 914.78 1299.33 909.45 Q1299.33 904.103 1297.95 901.446 Q1296.6 898.773 1293.87 898.773 M1293.87 895.995 Q1298.23 895.995 1300.52 899.45 Q1302.83 902.887 1302.83 909.45 Q1302.83 915.995 1300.52 919.45 Q1298.23 922.887 1293.87 922.887 Q1289.52 922.887 1287.21 919.45 Q1284.92 915.995 1284.92 909.45 Q1284.92 902.887 1287.21 899.45 Q1289.52 895.995 1293.87 895.995 Z" fill="#000000" fill-rule="nonzero" fill-opacity="1" /><path clip-path="url(#clip580)" d="M1316.5 898.773 Q1313.79 898.773 1312.42 901.446 Q1311.06 904.103 1311.06 909.45 Q1311.06 914.78 1312.42 917.453 Q1313.79 920.11 1316.5 920.11 Q1319.22 920.11 1320.58 917.453 Q1321.95 914.78 1321.95 909.45 Q1321.95 904.103 1320.58 901.446 Q1319.22 898.773 1316.5 898.773 M1316.5 895.995 Q1320.85 895.995 1323.14 899.45 Q1325.45 902.887 1325.45 909.45 Q1325.45 915.995 1323.14 919.45 Q1320.85 922.887 1316.5 922.887 Q1312.14 922.887 1309.83 919.45 Q1307.54 915.995 1307.54 909.45 Q1307.54 902.887 1309.83 899.45 Q1312.14 895.995 1316.5 895.995 Z" fill="#000000" fill-rule="nonzero" fill-opacity="1" /><path clip-path="url(#clip580)" d="M1373.35 823.246 Q1369.83 823.246 1367.93 825.792 Q1365.94 828.454 1365.94 832.852 Q1365.94 837.505 1367.91 840.19 Q1369.9 842.852 1373.35 842.852 Q1376.75 842.852 1378.75 840.167 Q1380.74 837.482 1380.74 832.852 Q1380.74 828.616 1378.75 825.792 Q1376.92 823.246 1373.35 823.246 M1373.35 819.866 L1387.5 819.866 L1387.5 824.125 L1382.73 824.125 Q1385.25 827.737 1385.25 832.852 Q1385.25 839.218 1382.08 842.829 Q1378.91 846.463 1373.35 846.463 Q1367.77 846.463 1364.62 842.829 Q1361.45 839.218 1361.45 832.852 Q1361.45 826.44 1364.62 822.852 Q1367.24 819.866 1373.35 819.866 Z" fill="#000000" fill-rule="nonzero" fill-opacity="1" /><path clip-path="url(#clip580)" d="M1398.51 845.792 L1390.6 819.866 L1395.18 819.866 L1401.87 841.625 Q1404.65 838.755 1406.96 834.774 Q1408.72 831.787 1408.81 829.195 Q1408.86 827.968 1408.31 825.653 Q1407.66 822.899 1405.2 819.866 L1409.51 819.866 L1409.51 819.866 Q1411.11 821.926 1412.17 824.797 Q1413.14 827.436 1413.14 829.241 Q1413.14 833.778 1409.99 837.829 Q1405.9 843.107 1403.05 845.792 L1398.51 845.792 Z" fill="#000000" fill-rule="nonzero" fill-opacity="1" /><polyline clip-path="url(#clip585)" style="stroke:#009af9; stroke-linecap:round; stroke-linejoin:round; stroke-width:4; stroke-opacity:1; fill:none" points="1389.51,1444.51 1398.96,1401.36 1408.4,1297.8 1417.85,1349.58 1427.29,1371.16 1436.74,1159.71 1446.19,1284.85 1455.63,1176.97 1465.08,1038.88 1474.53,1306.43 1483.97,1379.79 1493.42,956.892 1502.87,1435.88 1512.31,1233.07 1521.76,1133.82 1531.2,965.522 1540.65,1112.24 1550.1,1280.54 1559.54,1060.46 1568.99,1185.6 1578.44,1129.5 1587.88,1064.77 1597.33,1103.61 1606.78,1409.99 1616.22,1358.21 1625.67,1194.23 1635.11,1440.2 1644.56,1427.25 1654.01,1047.51 1663.45,1340.95 1672.9,1422.94 1682.35,1025.94 1691.79,969.837 1701.24,987.098 1710.69,1090.66 1720.13,1211.49 1729.58,918.054 1739.03,1220.12 1748.47,1077.72 1757.92,1116.56 1767.36,1323.69 1776.81,1336.63 1786.26,1034.57 1795.7,1302.11 1805.15,1384.1 1814.6,1254.64 1824.04,1082.03 1833.49,1228.75 1842.94,1107.93 1852.38,978.468 1861.83,1146.76 1871.27,943.946 1880.72,1263.27 1890.17,995.729 1899.61,1008.67 1909.06,922.37 1918.51,1151.08 1927.95,1021.62 1937.4,935.315 1946.85,1181.28 1956.29,1043.2 1965.74,1353.89 1975.18,1073.4 1984.63,1319.37 1994.08,1202.86 2003.52,961.207 2012.97,1004.36 2022.42,1094.98 2031.86,974.153 2041.31,1125.19 2050.76,1030.25 2060.2,1168.34 2069.65,1332.32 2079.09,1267.59 2088.54,1215.81 2097.99,1241.7 2107.43,1375.47 2116.88,1289.17 2126.33,1237.38 2135.77,1405.68 2145.22,1366.84 2154.67,991.414 2164.11,1388.42 2173.56,1315.06 2183,1418.62 2192.45,1056.14 2201.9,1198.55 2211.34,926.685 2220.79,1012.99 2230.24,1099.29 2239.68,939.631 2249.13,1457.46 2258.58,1142.45 2268.02,1250.33 2277.47,1392.73 2286.91,1246.01 2296.36,1453.15 2305.81,1271.9 2315.25,952.576 2324.7,1164.02 "/>
<polyline clip-path="url(#clip585)" style="stroke:#ff0000; stroke-linecap:round; stroke-linejoin:round; stroke-width:4; stroke-opacity:1; fill:none" stroke-dasharray="16, 10" points="1389.51,1444.51 1398.96,1444.51 1408.4,1444.51 1417.85,1444.51 1427.29,1444.51 1436.74,1444.51 1446.19,1444.51 1455.63,1444.51 1465.08,1444.51 1474.53,1444.51 1483.97,1444.51 1493.42,1444.51 1502.87,1444.51 1512.31,1444.51 1521.76,1444.51 1531.2,1444.51 1540.65,1444.51 1550.1,1444.51 1559.54,1444.51 1568.99,1444.51 1578.44,1444.51 1587.88,1444.51 1597.33,1444.51 1606.78,1444.51 1616.22,1444.51 1625.67,1444.51 1635.11,1444.51 1644.56,1444.51 1654.01,1444.51 1663.45,1444.51 1672.9,1444.51 1682.35,1444.51 1691.79,1444.51 1701.24,1444.51 1710.69,1444.51 1720.13,1444.51 1729.58,1444.51 1739.03,1444.51 1748.47,1444.51 1757.92,1444.51 1767.36,1444.51 1776.81,1444.51 1786.26,1444.51 1795.7,1444.51 1805.15,1444.51 1814.6,1444.51 1824.04,1444.51 1833.49,1444.51 1842.94,1444.51 1852.38,1444.51 1861.83,1444.51 1871.27,1444.51 1880.72,1444.51 1890.17,1444.51 1899.61,1444.51 1909.06,1444.51 1918.51,1444.51 1927.95,1444.51 1937.4,1444.51 1946.85,1444.51 1956.29,1444.51 1965.74,1444.51 1975.18,1444.51 1984.63,1444.51 1994.08,1444.51 2003.52,1444.51 2012.97,1444.51 2022.42,1444.51 2031.86,1444.51 2041.31,1444.51 2050.76,1444.51 2060.2,1444.51 2069.65,1444.51 2079.09,1444.51 2088.54,1444.51 2097.99,1444.51 2107.43,1444.51 2116.88,1444.51 2126.33,1444.51 2135.77,1444.51 2145.22,1444.51 2154.67,1444.51 2164.11,1444.51 2173.56,1444.51 2183,1444.51 2192.45,1444.51 2201.9,1444.51 2211.34,1444.51 2220.79,1444.51 2230.24,1444.51 2239.68,1444.51 2249.13,1444.51 2258.58,1444.51 2268.02,1444.51 2277.47,1444.51 2286.91,1444.51 2296.36,1444.51 2305.81,1444.51 2315.25,1444.51 2324.7,1444.51 "/>
</svg>
