<?xml version="1.0" encoding="utf-8"?>
<svg xmlns="http://www.w3.org/2000/svg" xmlns:xlink="http://www.w3.org/1999/xlink" width="600" height="400" viewBox="0 0 2400 1600">
<defs>
  <clipPath id="clip240">
    <rect x="0" y="0" width="2400" height="1600"/>
  </clipPath>
</defs>
<path clip-path="url(#clip240)" d="M0 1600 L2400 1600 L2400 0 L0 0  Z" fill="#ffffff" fill-rule="evenodd" fill-opacity="1"/>
<defs>
  <clipPath id="clip241">
    <rect x="480" y="0" width="1681" height="1600"/>
  </clipPath>
</defs>
<path clip-path="url(#clip240)" d="M128.138 667.406 L1152.76 667.406 L1152.76 97.5521 L128.138 97.5521  Z" fill="#ffffff" fill-rule="evenodd" fill-opacity="1"/>
<defs>
  <clipPath id="clip242">
    <rect x="128" y="97" width="1026" height="571"/>
  </clipPath>
</defs>
<polyline clip-path="url(#clip242)" style="stroke:#000000; stroke-linecap:round; stroke-linejoin:round; stroke-width:2; stroke-opacity:0.1; fill:none" points="285.817,667.406 285.817,97.5521 "/>
<polyline clip-path="url(#clip242)" style="stroke:#000000; stroke-linecap:round; stroke-linejoin:round; stroke-width:2; stroke-opacity:0.1; fill:none" points="488.462,667.406 488.462,97.5521 "/>
<polyline clip-path="url(#clip242)" style="stroke:#000000; stroke-linecap:round; stroke-linejoin:round; stroke-width:2; stroke-opacity:0.1; fill:none" points="691.108,667.406 691.108,97.5521 "/>
<polyline clip-path="url(#clip242)" style="stroke:#000000; stroke-linecap:round; stroke-linejoin:round; stroke-width:2; stroke-opacity:0.1; fill:none" points="893.754,667.406 893.754,97.5521 "/>
<polyline clip-path="url(#clip242)" style="stroke:#000000; stroke-linecap:round; stroke-linejoin:round; stroke-width:2; stroke-opacity:0.1; fill:none" points="1096.4,667.406 1096.4,97.5521 "/>
<polyline clip-path="url(#clip242)" style="stroke:#000000; stroke-linecap:round; stroke-linejoin:round; stroke-width:2; stroke-opacity:0.1; fill:none" points="128.138,667.406 1152.76,667.406 "/>
<polyline clip-path="url(#clip242)" style="stroke:#000000; stroke-linecap:round; stroke-linejoin:round; stroke-width:2; stroke-opacity:0.1; fill:none" points="128.138,575.494 1152.76,575.494 "/>
<polyline clip-path="url(#clip242)" style="stroke:#000000; stroke-linecap:round; stroke-linejoin:round; stroke-width:2; stroke-opacity:0.1; fill:none" points="128.138,483.582 1152.76,483.582 "/>
<polyline clip-path="url(#clip242)" style="stroke:#000000; stroke-linecap:round; stroke-linejoin:round; stroke-width:2; stroke-opacity:0.1; fill:none" points="128.138,391.67 1152.76,391.67 "/>
<polyline clip-path="url(#clip242)" style="stroke:#000000; stroke-linecap:round; stroke-linejoin:round; stroke-width:2; stroke-opacity:0.1; fill:none" points="128.138,299.758 1152.76,299.758 "/>
<polyline clip-path="url(#clip242)" style="stroke:#000000; stroke-linecap:round; stroke-linejoin:round; stroke-width:2; stroke-opacity:0.1; fill:none" points="128.138,207.846 1152.76,207.846 "/>
<polyline clip-path="url(#clip242)" style="stroke:#000000; stroke-linecap:round; stroke-linejoin:round; stroke-width:2; stroke-opacity:0.1; fill:none" points="128.138,115.935 1152.76,115.935 "/>
<polyline clip-path="url(#clip240)" style="stroke:#000000; stroke-linecap:round; stroke-linejoin:round; stroke-width:4; stroke-opacity:1; fill:none" points="128.138,667.406 1152.76,667.406 "/>
<polyline clip-path="url(#clip240)" style="stroke:#000000; stroke-linecap:round; stroke-linejoin:round; stroke-width:4; stroke-opacity:1; fill:none" points="285.817,667.406 285.817,648.509 "/>
<polyline clip-path="url(#clip240)" style="stroke:#000000; stroke-linecap:round; stroke-linejoin:round; stroke-width:4; stroke-opacity:1; fill:none" points="488.462,667.406 488.462,648.509 "/>
<polyline clip-path="url(#clip240)" style="stroke:#000000; stroke-linecap:round; stroke-linejoin:round; stroke-width:4; stroke-opacity:1; fill:none" points="691.108,667.406 691.108,648.509 "/>
<polyline clip-path="url(#clip240)" style="stroke:#000000; stroke-linecap:round; stroke-linejoin:round; stroke-width:4; stroke-opacity:1; fill:none" points="893.754,667.406 893.754,648.509 "/>
<polyline clip-path="url(#clip240)" style="stroke:#000000; stroke-linecap:round; stroke-linejoin:round; stroke-width:4; stroke-opacity:1; fill:none" points="1096.4,667.406 1096.4,648.509 "/>
<path clip-path="url(#clip240)" d="M232.446 738.66 Q230.531 740.575 231.452 743.435 Q232.373 746.271 236.154 750.052 Q239.922 753.821 242.77 754.754 Q245.618 755.662 247.534 753.747 Q249.461 751.82 248.54 748.984 Q247.619 746.124 243.851 742.355 Q240.07 738.574 237.222 737.666 Q234.374 736.733 232.446 738.66 M230.482 736.696 Q233.563 733.615 237.627 734.437 Q241.69 735.235 246.33 739.875 Q250.959 744.503 251.769 748.579 Q252.579 752.63 249.498 755.712 Q246.416 758.793 242.353 757.995 Q238.29 757.172 233.662 752.544 Q229.021 747.904 228.211 743.853 Q227.401 739.777 230.482 736.696 Z" fill="#000000" fill-rule="nonzero" fill-opacity="1" /><path clip-path="url(#clip240)" d="M256.716 741.545 L259.306 738.955 L262.424 742.073 L259.834 744.663 L256.716 741.545 Z" fill="#000000" fill-rule="nonzero" fill-opacity="1" /><path clip-path="url(#clip240)" d="M264.425 722.664 Q262.658 724.432 262.584 726.396 Q262.523 728.348 264.18 730.005 Q265.837 731.663 267.789 731.601 Q269.753 731.528 271.521 729.76 Q273.289 727.992 273.362 726.028 Q273.424 724.052 271.779 722.407 Q270.122 720.749 268.157 720.823 Q266.205 720.884 264.425 722.664 M260.89 724.088 Q258.901 725.291 256.912 725.095 Q254.936 724.886 253.365 723.315 Q251.167 721.118 251.45 718.282 Q251.744 715.434 254.47 712.708 Q257.207 709.971 260.043 709.688 Q262.879 709.406 265.076 711.604 Q266.647 713.175 266.844 715.164 Q267.052 717.14 265.862 719.117 Q268.071 717.742 270.281 717.963 Q272.503 718.171 274.259 719.927 Q276.922 722.591 276.714 725.647 Q276.517 728.692 273.485 731.724 Q270.453 734.756 267.396 734.965 Q264.352 735.161 261.688 732.497 Q259.932 730.742 259.724 728.52 Q259.515 726.298 260.89 724.088 M256.065 721.081 Q257.489 722.505 259.171 722.419 Q260.865 722.321 262.474 720.712 Q264.069 719.117 264.168 717.422 Q264.278 715.716 262.854 714.292 Q261.43 712.868 259.724 712.978 Q258.03 713.077 256.434 714.673 Q254.826 716.281 254.727 717.975 Q254.641 719.657 256.065 721.081 Z" fill="#000000" fill-rule="nonzero" fill-opacity="1" /><path clip-path="url(#clip240)" d="M264.867 702.973 L276.652 691.188 L277.708 692.244 L288.327 716.17 L285.737 718.761 L275.756 696.258 L266.954 705.06 L264.867 702.973 Z" fill="#000000" fill-rule="nonzero" fill-opacity="1" /><path clip-path="url(#clip240)" d="M434.662 739.09 Q432.747 741.005 433.668 743.865 Q434.589 746.701 438.37 750.482 Q442.139 754.251 444.987 755.184 Q447.835 756.092 449.75 754.177 Q451.677 752.25 450.756 749.414 Q449.836 746.554 446.067 742.785 Q442.286 739.004 439.438 738.095 Q436.59 737.162 434.662 739.09 M432.698 737.126 Q435.78 734.044 439.843 734.867 Q443.906 735.665 448.547 740.305 Q453.175 744.933 453.985 749.009 Q454.795 753.06 451.714 756.141 Q448.633 759.223 444.569 758.425 Q440.506 757.602 435.878 752.974 Q431.237 748.334 430.427 744.283 Q429.617 740.207 432.698 737.126 Z" fill="#000000" fill-rule="nonzero" fill-opacity="1" /><path clip-path="url(#clip240)" d="M458.932 741.975 L461.523 739.384 L464.641 742.502 L462.05 745.093 L458.932 741.975 Z" fill="#000000" fill-rule="nonzero" fill-opacity="1" /><path clip-path="url(#clip240)" d="M466.642 723.094 Q464.874 724.862 464.8 726.826 Q464.739 728.778 466.396 730.435 Q468.053 732.092 470.005 732.031 Q471.969 731.957 473.737 730.19 Q475.505 728.422 475.579 726.458 Q475.64 724.481 473.995 722.836 Q472.338 721.179 470.374 721.253 Q468.422 721.314 466.642 723.094 M463.106 724.518 Q461.117 725.721 459.129 725.525 Q457.152 725.316 455.581 723.745 Q453.383 721.547 453.666 718.711 Q453.96 715.863 456.686 713.138 Q459.423 710.4 462.259 710.118 Q465.095 709.836 467.292 712.033 Q468.864 713.605 469.06 715.593 Q469.269 717.57 468.078 719.546 Q470.288 718.171 472.497 718.392 Q474.719 718.601 476.475 720.356 Q479.139 723.02 478.93 726.077 Q478.734 729.122 475.701 732.154 Q472.669 735.186 469.612 735.395 Q466.568 735.591 463.904 732.927 Q462.149 731.172 461.94 728.95 Q461.731 726.728 463.106 724.518 M458.282 721.51 Q459.706 722.934 461.387 722.848 Q463.082 722.75 464.69 721.142 Q466.286 719.546 466.384 717.852 Q466.494 716.146 465.07 714.722 Q463.646 713.298 461.94 713.408 Q460.246 713.506 458.65 715.102 Q457.042 716.71 456.944 718.405 Q456.858 720.086 458.282 721.51 Z" fill="#000000" fill-rule="nonzero" fill-opacity="1" /><path clip-path="url(#clip240)" d="M482.637 707.098 Q480.87 708.866 480.796 710.83 Q480.735 712.782 482.392 714.439 Q484.049 716.097 486.001 716.035 Q487.965 715.962 489.733 714.194 Q491.501 712.426 491.574 710.462 Q491.636 708.485 489.991 706.84 Q488.334 705.183 486.369 705.257 Q484.417 705.318 482.637 707.098 M479.102 708.522 Q477.113 709.725 475.124 709.529 Q473.148 709.32 471.577 707.749 Q469.379 705.551 469.662 702.716 Q469.956 699.868 472.681 697.142 Q475.419 694.405 478.255 694.122 Q481.091 693.84 483.288 696.037 Q484.859 697.609 485.056 699.598 Q485.264 701.574 484.074 703.55 Q486.283 702.176 488.493 702.396 Q490.715 702.605 492.471 704.361 Q495.134 707.025 494.926 710.081 Q494.729 713.126 491.697 716.158 Q488.665 719.19 485.608 719.399 Q482.564 719.595 479.9 716.931 Q478.144 715.176 477.936 712.954 Q477.727 710.732 479.102 708.522 M474.277 705.515 Q475.701 706.939 477.383 706.853 Q479.077 706.754 480.685 705.146 Q482.281 703.55 482.38 701.856 Q482.49 700.15 481.066 698.726 Q479.642 697.302 477.936 697.412 Q476.242 697.511 474.646 699.106 Q473.037 700.715 472.939 702.409 Q472.853 704.091 474.277 705.515 Z" fill="#000000" fill-rule="nonzero" fill-opacity="1" /><path clip-path="url(#clip240)" d="M637.357 739.041 Q635.442 740.956 636.363 743.816 Q637.284 746.652 641.065 750.433 Q644.834 754.202 647.682 755.135 Q650.53 756.043 652.445 754.128 Q654.372 752.201 653.451 749.365 Q652.531 746.504 648.762 742.736 Q644.981 738.955 642.133 738.046 Q639.285 737.113 637.357 739.041 M635.393 737.076 Q638.475 733.995 642.538 734.818 Q646.601 735.616 651.242 740.256 Q655.87 744.884 656.68 748.96 Q657.49 753.011 654.409 756.092 Q651.328 759.173 647.264 758.375 Q643.201 757.553 638.573 752.925 Q633.932 748.285 633.122 744.233 Q632.312 740.158 635.393 737.076 Z" fill="#000000" fill-rule="nonzero" fill-opacity="1" /><path clip-path="url(#clip240)" d="M661.627 741.926 L664.218 739.335 L667.336 742.453 L664.745 745.044 L661.627 741.926 Z" fill="#000000" fill-rule="nonzero" fill-opacity="1" /><path clip-path="url(#clip240)" d="M669.337 723.045 Q667.569 724.813 667.495 726.777 Q667.434 728.729 669.091 730.386 Q670.748 732.043 672.7 731.982 Q674.664 731.908 676.432 730.14 Q678.2 728.373 678.274 726.409 Q678.335 724.432 676.69 722.787 Q675.033 721.13 673.069 721.203 Q671.117 721.265 669.337 723.045 M665.801 724.469 Q663.812 725.672 661.824 725.476 Q659.847 725.267 658.276 723.696 Q656.078 721.498 656.361 718.662 Q656.655 715.814 659.381 713.089 Q662.118 710.351 664.954 710.069 Q667.79 709.787 669.987 711.984 Q671.559 713.555 671.755 715.544 Q671.964 717.521 670.773 719.497 Q672.983 718.122 675.192 718.343 Q677.414 718.552 679.17 720.307 Q681.834 722.971 681.625 726.028 Q681.429 729.072 678.396 732.105 Q675.364 735.137 672.307 735.346 Q669.263 735.542 666.599 732.878 Q664.844 731.123 664.635 728.901 Q664.426 726.679 665.801 724.469 M660.977 721.461 Q662.401 722.885 664.082 722.799 Q665.777 722.701 667.385 721.093 Q668.981 719.497 669.079 717.803 Q669.189 716.097 667.765 714.673 Q666.341 713.249 664.635 713.359 Q662.941 713.457 661.345 715.053 Q659.737 716.661 659.639 718.355 Q659.553 720.037 660.977 721.461 Z" fill="#000000" fill-rule="nonzero" fill-opacity="1" /><path clip-path="url(#clip240)" d="M688.426 720.602 L686.167 718.343 Q687.542 717.852 688.733 717.128 Q689.924 716.404 690.844 715.483 Q693.3 713.028 692.944 710.094 Q692.588 707.135 689.408 703.587 Q689.752 705.355 689.224 707.012 Q688.696 708.67 687.37 709.995 Q684.62 712.745 681.355 712.696 Q678.089 712.622 675.205 709.738 Q672.381 706.914 672.344 703.538 Q672.307 700.162 675.082 697.388 Q678.261 694.208 682.374 694.982 Q686.486 695.731 691.127 700.371 Q695.46 704.704 695.988 709.357 Q696.516 713.985 693.042 717.459 Q692.109 718.392 690.967 719.166 Q689.825 719.939 688.426 720.602 M685.59 707.896 Q687.26 706.227 687.088 704.115 Q686.928 701.991 684.94 700.003 Q682.963 698.026 680.839 697.867 Q678.716 697.682 677.046 699.352 Q675.376 701.022 675.548 703.158 Q675.72 705.269 677.697 707.246 Q679.685 709.234 681.797 709.406 Q683.921 709.566 685.59 707.896 Z" fill="#000000" fill-rule="nonzero" fill-opacity="1" /><path clip-path="url(#clip240)" d="M839.905 739.139 Q837.99 741.054 838.911 743.914 Q839.831 746.75 843.612 750.531 Q847.381 754.3 850.229 755.233 Q853.077 756.141 854.992 754.226 Q856.92 752.299 855.999 749.463 Q855.078 746.603 851.31 742.834 Q847.529 739.053 844.681 738.144 Q841.832 737.211 839.905 739.139 M837.941 737.175 Q841.022 734.093 845.086 734.916 Q849.149 735.714 853.789 740.354 Q858.417 744.982 859.228 749.058 Q860.038 753.109 856.957 756.19 Q853.875 759.272 849.812 758.474 Q845.749 757.651 841.12 753.023 Q836.48 748.383 835.67 744.332 Q834.86 740.256 837.941 737.175 Z" fill="#000000" fill-rule="nonzero" fill-opacity="1" /><path clip-path="url(#clip240)" d="M864.175 742.024 L866.765 739.433 L869.883 742.552 L867.293 745.142 L864.175 742.024 Z" fill="#000000" fill-rule="nonzero" fill-opacity="1" /><path clip-path="url(#clip240)" d="M874.978 736.696 L872.719 734.437 Q874.094 733.946 875.285 733.222 Q876.476 732.497 877.396 731.577 Q879.852 729.122 879.496 726.188 Q879.139 723.229 875.96 719.681 Q876.304 721.449 875.776 723.106 Q875.248 724.764 873.922 726.089 Q871.172 728.839 867.907 728.79 Q864.641 728.716 861.757 725.832 Q858.933 723.008 858.896 719.632 Q858.859 716.256 861.634 713.482 Q864.813 710.302 868.926 711.076 Q873.038 711.825 877.679 716.465 Q882.012 720.798 882.54 725.451 Q883.068 730.079 879.594 733.553 Q878.661 734.486 877.519 735.26 Q876.377 736.033 874.978 736.696 M872.142 723.99 Q873.812 722.321 873.64 720.209 Q873.48 718.085 871.491 716.097 Q869.515 714.12 867.391 713.961 Q865.268 713.776 863.598 715.446 Q861.928 717.116 862.1 719.252 Q862.272 721.363 864.249 723.339 Q866.237 725.328 868.349 725.5 Q870.473 725.66 872.142 723.99 Z" fill="#000000" fill-rule="nonzero" fill-opacity="1" /><path clip-path="url(#clip240)" d="M879.888 699.156 Q877.973 701.071 878.894 703.931 Q879.815 706.767 883.596 710.548 Q887.364 714.317 890.213 715.25 Q893.061 716.158 894.976 714.243 Q896.903 712.316 895.982 709.48 Q895.062 706.619 891.293 702.851 Q887.512 699.07 884.664 698.161 Q881.816 697.228 879.888 699.156 M877.924 697.191 Q881.005 694.11 885.069 694.933 Q889.132 695.731 893.773 700.371 Q898.401 704.999 899.211 709.075 Q900.021 713.126 896.94 716.207 Q893.859 719.288 889.795 718.49 Q885.732 717.668 881.104 713.04 Q876.463 708.399 875.653 704.348 Q874.843 700.273 877.924 697.191 Z" fill="#000000" fill-rule="nonzero" fill-opacity="1" /><path clip-path="url(#clip240)" d="M1043.2 738.488 Q1041.29 740.403 1042.21 743.264 Q1043.13 746.099 1046.91 749.88 Q1050.68 753.649 1053.53 754.582 Q1056.37 755.491 1058.29 753.576 Q1060.22 751.648 1059.3 748.812 Q1058.37 745.952 1054.61 742.183 Q1050.83 738.402 1047.98 737.494 Q1045.13 736.561 1043.2 738.488 M1041.24 736.524 Q1044.32 733.443 1048.38 734.265 Q1052.45 735.063 1057.09 739.704 Q1061.71 744.332 1062.52 748.407 Q1063.33 752.458 1060.25 755.54 Q1057.17 758.621 1053.11 757.823 Q1049.05 757.001 1044.42 752.372 Q1039.78 747.732 1038.97 743.681 Q1038.16 739.605 1041.24 736.524 Z" fill="#000000" fill-rule="nonzero" fill-opacity="1" /><path clip-path="url(#clip240)" d="M1067.47 741.373 L1070.06 738.783 L1073.18 741.901 L1070.59 744.491 L1067.47 741.373 Z" fill="#000000" fill-rule="nonzero" fill-opacity="1" /><path clip-path="url(#clip240)" d="M1078.27 736.045 L1076.02 733.786 Q1077.39 733.295 1078.58 732.571 Q1079.77 731.847 1080.69 730.926 Q1083.15 728.471 1082.79 725.537 Q1082.44 722.578 1079.26 719.031 Q1079.6 720.798 1079.07 722.456 Q1078.54 724.113 1077.22 725.439 Q1074.47 728.189 1071.2 728.139 Q1067.94 728.066 1065.05 725.181 Q1062.23 722.357 1062.19 718.981 Q1062.16 715.606 1064.93 712.831 Q1068.11 709.652 1072.22 710.425 Q1076.33 711.174 1080.98 715.814 Q1085.31 720.148 1085.84 724.8 Q1086.36 729.428 1082.89 732.903 Q1081.96 733.836 1080.82 734.609 Q1079.67 735.382 1078.27 736.045 M1075.44 723.339 Q1077.11 721.67 1076.94 719.558 Q1076.78 717.435 1074.79 715.446 Q1072.81 713.47 1070.69 713.31 Q1068.56 713.126 1066.89 714.795 Q1065.22 716.465 1065.4 718.601 Q1065.57 720.712 1067.55 722.689 Q1069.53 724.678 1071.65 724.849 Q1073.77 725.009 1075.44 723.339 Z" fill="#000000" fill-rule="nonzero" fill-opacity="1" /><path clip-path="url(#clip240)" d="M1092.92 717.987 L1096.97 713.936 L1082.99 699.954 L1079.47 705.245 L1077.21 702.986 L1080.71 697.719 L1083.18 695.24 L1099.43 711.481 L1103.48 707.43 L1105.56 709.517 L1095.01 720.074 L1092.92 717.987 Z" fill="#000000" fill-rule="nonzero" fill-opacity="1" /><polyline clip-path="url(#clip240)" style="stroke:#000000; stroke-linecap:round; stroke-linejoin:round; stroke-width:4; stroke-opacity:1; fill:none" points="128.138,667.406 128.138,97.5521 "/>
<polyline clip-path="url(#clip240)" style="stroke:#000000; stroke-linecap:round; stroke-linejoin:round; stroke-width:4; stroke-opacity:1; fill:none" points="128.138,667.406 147.035,667.406 "/>
<polyline clip-path="url(#clip240)" style="stroke:#000000; stroke-linecap:round; stroke-linejoin:round; stroke-width:4; stroke-opacity:1; fill:none" points="128.138,575.494 147.035,575.494 "/>
<polyline clip-path="url(#clip240)" style="stroke:#000000; stroke-linecap:round; stroke-linejoin:round; stroke-width:4; stroke-opacity:1; fill:none" points="128.138,483.582 147.035,483.582 "/>
<polyline clip-path="url(#clip240)" style="stroke:#000000; stroke-linecap:round; stroke-linejoin:round; stroke-width:4; stroke-opacity:1; fill:none" points="128.138,391.67 147.035,391.67 "/>
<polyline clip-path="url(#clip240)" style="stroke:#000000; stroke-linecap:round; stroke-linejoin:round; stroke-width:4; stroke-opacity:1; fill:none" points="128.138,299.758 147.035,299.758 "/>
<polyline clip-path="url(#clip240)" style="stroke:#000000; stroke-linecap:round; stroke-linejoin:round; stroke-width:4; stroke-opacity:1; fill:none" points="128.138,207.846 147.035,207.846 "/>
<polyline clip-path="url(#clip240)" style="stroke:#000000; stroke-linecap:round; stroke-linejoin:round; stroke-width:4; stroke-opacity:1; fill:none" points="128.138,115.935 147.035,115.935 "/>
<path clip-path="url(#clip240)" d="M83.1795 656.755 Q80.4711 656.755 79.0996 659.429 Q77.7455 662.085 77.7455 667.432 Q77.7455 672.762 79.0996 675.436 Q80.4711 678.092 83.1795 678.092 Q85.9051 678.092 87.2593 675.436 Q88.6308 672.762 88.6308 667.432 Q88.6308 662.085 87.2593 659.429 Q85.9051 656.755 83.1795 656.755 M83.1795 653.978 Q87.5371 653.978 89.8287 657.432 Q92.1377 660.87 92.1377 667.432 Q92.1377 673.978 89.8287 677.432 Q87.5371 680.87 83.1795 680.87 Q78.8218 680.87 76.5128 677.432 Q74.2212 673.978 74.2212 667.432 Q74.2212 660.87 76.5128 657.432 Q78.8218 653.978 83.1795 653.978 Z" fill="#000000" fill-rule="nonzero" fill-opacity="1" /><path clip-path="url(#clip240)" d="M53.6657 585.503 L59.3949 585.503 L59.3949 565.729 L53.1623 566.979 L53.1623 563.784 L59.3601 562.534 L62.8671 562.534 L62.8671 585.503 L68.5962 585.503 L68.5962 588.454 L53.6657 588.454 L53.6657 585.503 Z" fill="#000000" fill-rule="nonzero" fill-opacity="1" /><path clip-path="url(#clip240)" d="M83.1795 564.843 Q80.4711 564.843 79.0996 567.517 Q77.7455 570.173 77.7455 575.52 Q77.7455 580.85 79.0996 583.524 Q80.4711 586.18 83.1795 586.18 Q85.9051 586.18 87.2593 583.524 Q88.6308 580.85 88.6308 575.52 Q88.6308 570.173 87.2593 567.517 Q85.9051 564.843 83.1795 564.843 M83.1795 562.066 Q87.5371 562.066 89.8287 565.52 Q92.1377 568.958 92.1377 575.52 Q92.1377 582.066 89.8287 585.52 Q87.5371 588.958 83.1795 588.958 Q78.8218 588.958 76.5128 585.52 Q74.2212 582.066 74.2212 575.52 Q74.2212 568.958 76.5128 565.52 Q78.8218 562.066 83.1795 562.066 Z" fill="#000000" fill-rule="nonzero" fill-opacity="1" /><path clip-path="url(#clip240)" d="M56.0789 493.591 L68.3184 493.591 L68.3184 496.542 L51.8602 496.542 L51.8602 493.591 Q53.8567 491.525 57.2942 488.053 Q60.749 484.563 61.6344 483.556 Q63.3184 481.664 63.9782 480.362 Q64.6552 479.043 64.6552 477.775 Q64.6552 475.709 63.1969 474.407 Q61.756 473.105 59.4296 473.105 Q57.7803 473.105 55.94 473.678 Q54.1171 474.251 52.0338 475.414 L52.0338 471.872 Q54.1518 471.022 55.9921 470.588 Q57.8324 470.154 59.3601 470.154 Q63.3879 470.154 65.7837 472.168 Q68.1795 474.181 68.1795 477.549 Q68.1795 479.147 67.5719 480.588 Q66.9816 482.011 65.4018 483.956 Q64.9677 484.459 62.6414 486.872 Q60.315 489.268 56.0789 493.591 Z" fill="#000000" fill-rule="nonzero" fill-opacity="1" /><path clip-path="url(#clip240)" d="M83.1795 472.931 Q80.4711 472.931 79.0996 475.605 Q77.7455 478.261 77.7455 483.608 Q77.7455 488.938 79.0996 491.612 Q80.4711 494.268 83.1795 494.268 Q85.9051 494.268 87.2593 491.612 Q88.6308 488.938 88.6308 483.608 Q88.6308 478.261 87.2593 475.605 Q85.9051 472.931 83.1795 472.931 M83.1795 470.154 Q87.5371 470.154 89.8287 473.609 Q92.1377 477.046 92.1377 483.608 Q92.1377 490.154 89.8287 493.608 Q87.5371 497.046 83.1795 497.046 Q78.8218 497.046 76.5128 493.608 Q74.2212 490.154 74.2212 483.608 Q74.2212 477.046 76.5128 473.609 Q78.8218 470.154 83.1795 470.154 Z" fill="#000000" fill-rule="nonzero" fill-opacity="1" /><path clip-path="url(#clip240)" d="M63.683 390.655 Q66.2004 391.193 67.6066 392.894 Q69.0302 394.596 69.0302 397.096 Q69.0302 400.933 66.3913 403.033 Q63.7525 405.134 58.8914 405.134 Q57.2595 405.134 55.5234 404.804 Q53.8046 404.492 51.9643 403.849 L51.9643 400.464 Q53.4227 401.314 55.1588 401.749 Q56.8949 402.183 58.7872 402.183 Q62.0858 402.183 63.8046 400.88 Q65.5407 399.578 65.5407 397.096 Q65.5407 394.804 63.9261 393.519 Q62.3289 392.217 59.4643 392.217 L56.4435 392.217 L56.4435 389.335 L59.6032 389.335 Q62.19 389.335 63.5615 388.311 Q64.933 387.269 64.933 385.325 Q64.933 383.328 63.5094 382.269 Q62.1032 381.193 59.4643 381.193 Q58.0233 381.193 56.374 381.506 Q54.7247 381.818 52.7456 382.478 L52.7456 379.353 Q54.7421 378.797 56.4782 378.519 Q58.2317 378.242 59.7768 378.242 Q63.7698 378.242 66.0962 380.065 Q68.4226 381.87 68.4226 384.96 Q68.4226 387.113 67.19 388.606 Q65.9573 390.082 63.683 390.655 Z" fill="#000000" fill-rule="nonzero" fill-opacity="1" /><path clip-path="url(#clip240)" d="M83.1795 381.019 Q80.4711 381.019 79.0996 383.693 Q77.7455 386.349 77.7455 391.696 Q77.7455 397.026 79.0996 399.7 Q80.4711 402.356 83.1795 402.356 Q85.9051 402.356 87.2593 399.7 Q88.6308 397.026 88.6308 391.696 Q88.6308 386.349 87.2593 383.693 Q85.9051 381.019 83.1795 381.019 M83.1795 378.242 Q87.5371 378.242 89.8287 381.697 Q92.1377 385.134 92.1377 391.696 Q92.1377 398.242 89.8287 401.696 Q87.5371 405.134 83.1795 405.134 Q78.8218 405.134 76.5128 401.696 Q74.2212 398.242 74.2212 391.696 Q74.2212 385.134 76.5128 381.697 Q78.8218 378.242 83.1795 378.242 Z" fill="#000000" fill-rule="nonzero" fill-opacity="1" /><path clip-path="url(#clip240)" d="M62.6935 289.854 L53.8393 303.691 L62.6935 303.691 L62.6935 289.854 M61.7733 286.798 L66.183 286.798 L66.183 303.691 L69.8809 303.691 L69.8809 306.607 L66.183 306.607 L66.183 312.718 L62.6935 312.718 L62.6935 306.607 L50.9921 306.607 L50.9921 303.222 L61.7733 286.798 Z" fill="#000000" fill-rule="nonzero" fill-opacity="1" /><path clip-path="url(#clip240)" d="M83.1795 289.107 Q80.4711 289.107 79.0996 291.781 Q77.7455 294.437 77.7455 299.785 Q77.7455 305.114 79.0996 307.788 Q80.4711 310.444 83.1795 310.444 Q85.9051 310.444 87.2593 307.788 Q88.6308 305.114 88.6308 299.785 Q88.6308 294.437 87.2593 291.781 Q85.9051 289.107 83.1795 289.107 M83.1795 286.33 Q87.5371 286.33 89.8287 289.785 Q92.1377 293.222 92.1377 299.785 Q92.1377 306.33 89.8287 309.784 Q87.5371 313.222 83.1795 313.222 Q78.8218 313.222 76.5128 309.784 Q74.2212 306.33 74.2212 299.785 Q74.2212 293.222 76.5128 289.785 Q78.8218 286.33 83.1795 286.33 Z" fill="#000000" fill-rule="nonzero" fill-opacity="1" /><path clip-path="url(#clip240)" d="M53.0928 194.886 L66.8601 194.886 L66.8601 197.838 L56.3046 197.838 L56.3046 204.192 Q57.0685 203.932 57.8324 203.81 Q58.5963 203.671 59.3601 203.671 Q63.7004 203.671 66.2351 206.05 Q68.7698 208.428 68.7698 212.491 Q68.7698 216.675 66.1657 219.001 Q63.5615 221.31 58.8219 221.31 Q57.19 221.31 55.4886 221.032 Q53.8046 220.754 51.9991 220.199 L51.9991 216.675 Q53.5616 217.525 55.2282 217.942 Q56.8949 218.359 58.7525 218.359 Q61.756 218.359 63.5094 216.779 Q65.2629 215.199 65.2629 212.491 Q65.2629 209.782 63.5094 208.202 Q61.756 206.623 58.7525 206.623 Q57.3463 206.623 55.94 206.935 Q54.5511 207.248 53.0928 207.907 L53.0928 194.886 Z" fill="#000000" fill-rule="nonzero" fill-opacity="1" /><path clip-path="url(#clip240)" d="M83.1795 197.196 Q80.4711 197.196 79.0996 199.869 Q77.7455 202.525 77.7455 207.873 Q77.7455 213.202 79.0996 215.876 Q80.4711 218.532 83.1795 218.532 Q85.9051 218.532 87.2593 215.876 Q88.6308 213.202 88.6308 207.873 Q88.6308 202.525 87.2593 199.869 Q85.9051 197.196 83.1795 197.196 M83.1795 194.418 Q87.5371 194.418 89.8287 197.873 Q92.1377 201.31 92.1377 207.873 Q92.1377 214.418 89.8287 217.872 Q87.5371 221.31 83.1795 221.31 Q78.8218 221.31 76.5128 217.872 Q74.2212 214.418 74.2212 207.873 Q74.2212 201.31 76.5128 197.873 Q78.8218 194.418 83.1795 194.418 Z" fill="#000000" fill-rule="nonzero" fill-opacity="1" /><path clip-path="url(#clip240)" d="M60.9921 114.537 Q58.631 114.537 57.2421 116.152 Q55.8706 117.766 55.8706 120.579 Q55.8706 123.374 57.2421 125.006 Q58.631 126.62 60.9921 126.62 Q63.3532 126.62 64.7247 125.006 Q66.1136 123.374 66.1136 120.579 Q66.1136 117.766 64.7247 116.152 Q63.3532 114.537 60.9921 114.537 M67.9538 103.547 L67.9538 106.742 Q66.6344 106.117 65.2802 105.787 Q63.9434 105.457 62.624 105.457 Q59.1518 105.457 57.3115 107.801 Q55.4886 110.145 55.2282 114.884 Q56.2525 113.374 57.7976 112.575 Q59.3428 111.759 61.2004 111.759 Q65.1066 111.759 67.3636 114.138 Q69.6379 116.499 69.6379 120.579 Q69.6379 124.572 67.2768 126.985 Q64.9157 129.398 60.9921 129.398 Q56.4956 129.398 54.1171 125.961 Q51.7386 122.506 51.7386 115.961 Q51.7386 109.815 54.6553 106.169 Q57.572 102.506 62.4851 102.506 Q63.8046 102.506 65.1414 102.766 Q66.4955 103.027 67.9538 103.547 Z" fill="#000000" fill-rule="nonzero" fill-opacity="1" /><path clip-path="url(#clip240)" d="M83.1795 105.284 Q80.4711 105.284 79.0996 107.957 Q77.7455 110.613 77.7455 115.961 Q77.7455 121.29 79.0996 123.964 Q80.4711 126.62 83.1795 126.62 Q85.9051 126.62 87.2593 123.964 Q88.6308 121.29 88.6308 115.961 Q88.6308 110.613 87.2593 107.957 Q85.9051 105.284 83.1795 105.284 M83.1795 102.506 Q87.5371 102.506 89.8287 105.961 Q92.1377 109.398 92.1377 115.961 Q92.1377 122.506 89.8287 125.961 Q87.5371 129.398 83.1795 129.398 Q78.8218 129.398 76.5128 125.961 Q74.2212 122.506 74.2212 115.961 Q74.2212 109.398 76.5128 105.961 Q78.8218 102.506 83.1795 102.506 Z" fill="#000000" fill-rule="nonzero" fill-opacity="1" /><path clip-path="url(#clip240)" d="M130.221 20.1758 Q131.633 17.8147 135.128 15.7314 Q136.494 14.9212 140.707 14.9212 Q145.429 14.9212 148.369 18.6712 Q151.332 22.4212 151.332 28.5323 Q151.332 34.6433 148.369 38.3933 Q145.429 42.1433 140.707 42.1433 Q137.86 42.1433 135.8 41.0322 Q133.763 39.8979 132.42 37.5831 L132.42 51.3331 L128.138 51.3331 L128.138 28.7637 Q128.138 23.4165 130.221 20.1758 M146.911 28.5323 Q146.911 23.8332 144.966 21.1712 Q143.045 18.486 139.665 18.486 Q136.286 18.486 134.341 21.1712 Q132.42 23.8332 132.42 28.5323 Q132.42 33.2313 134.341 35.9165 Q136.286 38.5785 139.665 38.5785 Q143.045 38.5785 144.966 35.9165 Q146.911 33.2313 146.911 28.5323 Z" fill="#000000" fill-rule="nonzero" fill-opacity="1" /><path clip-path="url(#clip242)" d="M184.494 547.921 L184.494 667.406 L285.817 667.406 L285.817 547.921 L184.494 547.921 L184.494 547.921  Z" fill="#009af9" fill-rule="evenodd" fill-opacity="1"/>
<polyline clip-path="url(#clip242)" style="stroke:#000000; stroke-linecap:round; stroke-linejoin:round; stroke-width:4; stroke-opacity:1; fill:none" points="184.494,547.921 184.494,667.406 285.817,667.406 285.817,547.921 184.494,547.921 "/>
<path clip-path="url(#clip242)" d="M285.817 667.406 L285.817 667.406 L387.139 667.406 L387.139 667.406 L285.817 667.406 L285.817 667.406  Z" fill="#009af9" fill-rule="evenodd" fill-opacity="1"/>
<polyline clip-path="url(#clip242)" style="stroke:#000000; stroke-linecap:round; stroke-linejoin:round; stroke-width:4; stroke-opacity:1; fill:none" points="285.817,667.406 285.817,667.406 387.139,667.406 285.817,667.406 "/>
<path clip-path="url(#clip242)" d="M387.139 667.406 L387.139 667.406 L488.462 667.406 L488.462 667.406 L387.139 667.406 L387.139 667.406  Z" fill="#009af9" fill-rule="evenodd" fill-opacity="1"/>
<polyline clip-path="url(#clip242)" style="stroke:#000000; stroke-linecap:round; stroke-linejoin:round; stroke-width:4; stroke-opacity:1; fill:none" points="387.139,667.406 387.139,667.406 488.462,667.406 387.139,667.406 "/>
<path clip-path="url(#clip242)" d="M488.462 364.097 L488.462 667.406 L589.785 667.406 L589.785 364.097 L488.462 364.097 L488.462 364.097  Z" fill="#009af9" fill-rule="evenodd" fill-opacity="1"/>
<polyline clip-path="url(#clip242)" style="stroke:#000000; stroke-linecap:round; stroke-linejoin:round; stroke-width:4; stroke-opacity:1; fill:none" points="488.462,364.097 488.462,667.406 589.785,667.406 589.785,364.097 488.462,364.097 "/>
<path clip-path="url(#clip242)" d="M589.785 97.5521 L589.785 667.406 L691.108 667.406 L691.108 97.5521 L589.785 97.5521 L589.785 97.5521  Z" fill="#009af9" fill-rule="evenodd" fill-opacity="1"/>
<polyline clip-path="url(#clip242)" style="stroke:#000000; stroke-linecap:round; stroke-linejoin:round; stroke-width:4; stroke-opacity:1; fill:none" points="589.785,97.5521 589.785,667.406 691.108,667.406 691.108,97.5521 589.785,97.5521 "/>
<path clip-path="url(#clip242)" d="M691.108 345.714 L691.108 667.406 L792.431 667.406 L792.431 345.714 L691.108 345.714 L691.108 345.714  Z" fill="#009af9" fill-rule="evenodd" fill-opacity="1"/>
<polyline clip-path="url(#clip242)" style="stroke:#000000; stroke-linecap:round; stroke-linejoin:round; stroke-width:4; stroke-opacity:1; fill:none" points="691.108,345.714 691.108,667.406 792.431,667.406 792.431,345.714 691.108,345.714 "/>
<path clip-path="url(#clip242)" d="M792.431 382.479 L792.431 667.406 L893.754 667.406 L893.754 382.479 L792.431 382.479 L792.431 382.479  Z" fill="#009af9" fill-rule="evenodd" fill-opacity="1"/>
<polyline clip-path="url(#clip242)" style="stroke:#000000; stroke-linecap:round; stroke-linejoin:round; stroke-width:4; stroke-opacity:1; fill:none" points="792.431,382.479 792.431,667.406 893.754,667.406 893.754,382.479 792.431,382.479 "/>
<path clip-path="url(#clip242)" d="M893.754 382.479 L893.754 667.406 L995.077 667.406 L995.077 382.479 L893.754 382.479 L893.754 382.479  Z" fill="#009af9" fill-rule="evenodd" fill-opacity="1"/>
<polyline clip-path="url(#clip242)" style="stroke:#000000; stroke-linecap:round; stroke-linejoin:round; stroke-width:4; stroke-opacity:1; fill:none" points="893.754,382.479 893.754,667.406 995.077,667.406 995.077,382.479 893.754,382.479 "/>
<path clip-path="url(#clip242)" d="M995.077 520.347 L995.077 667.406 L1096.4 667.406 L1096.4 520.347 L995.077 520.347 L995.077 520.347  Z" fill="#009af9" fill-rule="evenodd" fill-opacity="1"/>
<polyline clip-path="url(#clip242)" style="stroke:#000000; stroke-linecap:round; stroke-linejoin:round; stroke-width:4; stroke-opacity:1; fill:none" points="995.077,520.347 995.077,667.406 1096.4,667.406 1096.4,520.347 995.077,520.347 "/>
<circle clip-path="url(#clip242)" style="fill:#009af9; stroke:none; fill-opacity:0" cx="235.155" cy="547.921" r="2"/>
<circle clip-path="url(#clip242)" style="fill:#009af9; stroke:none; fill-opacity:0" cx="336.478" cy="667.406" r="2"/>
<circle clip-path="url(#clip242)" style="fill:#009af9; stroke:none; fill-opacity:0" cx="437.801" cy="667.406" r="2"/>
<circle clip-path="url(#clip242)" style="fill:#009af9; stroke:none; fill-opacity:0" cx="539.124" cy="364.097" r="2"/>
<circle clip-path="url(#clip242)" style="fill:#009af9; stroke:none; fill-opacity:0" cx="640.447" cy="97.5521" r="2"/>
<circle clip-path="url(#clip242)" style="fill:#009af9; stroke:none; fill-opacity:0" cx="741.77" cy="345.714" r="2"/>
<circle clip-path="url(#clip242)" style="fill:#009af9; stroke:none; fill-opacity:0" cx="843.093" cy="382.479" r="2"/>
<circle clip-path="url(#clip242)" style="fill:#009af9; stroke:none; fill-opacity:0" cx="944.416" cy="382.479" r="2"/>
<circle clip-path="url(#clip242)" style="fill:#009af9; stroke:none; fill-opacity:0" cx="1045.74" cy="520.347" r="2"/>
<polyline clip-path="url(#clip242)" style="stroke:#ff0000; stroke-linecap:round; stroke-linejoin:round; stroke-width:8; stroke-opacity:1; fill:none" stroke-dasharray="32, 20" points="678.125,1237.26 678.125,-472.302 "/>
<polyline clip-path="url(#clip242)" style="stroke:#ff0000; stroke-linecap:round; stroke-linejoin:round; stroke-width:6; stroke-opacity:1; fill:none" stroke-dasharray="24, 12, 3, 12" points="234.667,1237.26 234.667,-472.302 "/>
<polyline clip-path="url(#clip242)" style="stroke:#ff0000; stroke-linecap:round; stroke-linejoin:round; stroke-width:6; stroke-opacity:1; fill:none" stroke-dasharray="24, 12, 3, 12" points="1058.65,1237.26 1058.65,-472.302 "/>
<path clip-path="url(#clip240)" d="M1328.14 667.406 L2352.76 667.406 L2352.76 97.5521 L1328.14 97.5521  Z" fill="#ffffff" fill-rule="evenodd" fill-opacity="1"/>
<defs>
  <clipPath id="clip243">
    <rect x="1328" y="97" width="1026" height="571"/>
  </clipPath>
</defs>
<polyline clip-path="url(#clip243)" style="stroke:#000000; stroke-linecap:round; stroke-linejoin:round; stroke-width:2; stroke-opacity:0.1; fill:none" points="1384.49,667.406 1384.49,97.5521 "/>
<polyline clip-path="url(#clip243)" style="stroke:#000000; stroke-linecap:round; stroke-linejoin:round; stroke-width:2; stroke-opacity:0.1; fill:none" points="1536.48,667.406 1536.48,97.5521 "/>
<polyline clip-path="url(#clip243)" style="stroke:#000000; stroke-linecap:round; stroke-linejoin:round; stroke-width:2; stroke-opacity:0.1; fill:none" points="1688.46,667.406 1688.46,97.5521 "/>
<polyline clip-path="url(#clip243)" style="stroke:#000000; stroke-linecap:round; stroke-linejoin:round; stroke-width:2; stroke-opacity:0.1; fill:none" points="1840.45,667.406 1840.45,97.5521 "/>
<polyline clip-path="url(#clip243)" style="stroke:#000000; stroke-linecap:round; stroke-linejoin:round; stroke-width:2; stroke-opacity:0.1; fill:none" points="1992.43,667.406 1992.43,97.5521 "/>
<polyline clip-path="url(#clip243)" style="stroke:#000000; stroke-linecap:round; stroke-linejoin:round; stroke-width:2; stroke-opacity:0.1; fill:none" points="2144.42,667.406 2144.42,97.5521 "/>
<polyline clip-path="url(#clip243)" style="stroke:#000000; stroke-linecap:round; stroke-linejoin:round; stroke-width:2; stroke-opacity:0.1; fill:none" points="2296.4,667.406 2296.4,97.5521 "/>
<polyline clip-path="url(#clip243)" style="stroke:#000000; stroke-linecap:round; stroke-linejoin:round; stroke-width:2; stroke-opacity:0.1; fill:none" points="1328.14,667.406 2352.76,667.406 "/>
<polyline clip-path="url(#clip243)" style="stroke:#000000; stroke-linecap:round; stroke-linejoin:round; stroke-width:2; stroke-opacity:0.1; fill:none" points="1328.14,570.821 2352.76,570.821 "/>
<polyline clip-path="url(#clip243)" style="stroke:#000000; stroke-linecap:round; stroke-linejoin:round; stroke-width:2; stroke-opacity:0.1; fill:none" points="1328.14,474.235 2352.76,474.235 "/>
<polyline clip-path="url(#clip243)" style="stroke:#000000; stroke-linecap:round; stroke-linejoin:round; stroke-width:2; stroke-opacity:0.1; fill:none" points="1328.14,377.65 2352.76,377.65 "/>
<polyline clip-path="url(#clip243)" style="stroke:#000000; stroke-linecap:round; stroke-linejoin:round; stroke-width:2; stroke-opacity:0.1; fill:none" points="1328.14,281.065 2352.76,281.065 "/>
<polyline clip-path="url(#clip243)" style="stroke:#000000; stroke-linecap:round; stroke-linejoin:round; stroke-width:2; stroke-opacity:0.1; fill:none" points="1328.14,184.479 2352.76,184.479 "/>
<polyline clip-path="url(#clip240)" style="stroke:#000000; stroke-linecap:round; stroke-linejoin:round; stroke-width:4; stroke-opacity:1; fill:none" points="1328.14,667.406 2352.76,667.406 "/>
<polyline clip-path="url(#clip240)" style="stroke:#000000; stroke-linecap:round; stroke-linejoin:round; stroke-width:4; stroke-opacity:1; fill:none" points="1384.49,667.406 1384.49,648.509 "/>
<polyline clip-path="url(#clip240)" style="stroke:#000000; stroke-linecap:round; stroke-linejoin:round; stroke-width:4; stroke-opacity:1; fill:none" points="1536.48,667.406 1536.48,648.509 "/>
<polyline clip-path="url(#clip240)" style="stroke:#000000; stroke-linecap:round; stroke-linejoin:round; stroke-width:4; stroke-opacity:1; fill:none" points="1688.46,667.406 1688.46,648.509 "/>
<polyline clip-path="url(#clip240)" style="stroke:#000000; stroke-linecap:round; stroke-linejoin:round; stroke-width:4; stroke-opacity:1; fill:none" points="1840.45,667.406 1840.45,648.509 "/>
<polyline clip-path="url(#clip240)" style="stroke:#000000; stroke-linecap:round; stroke-linejoin:round; stroke-width:4; stroke-opacity:1; fill:none" points="1992.43,667.406 1992.43,648.509 "/>
<polyline clip-path="url(#clip240)" style="stroke:#000000; stroke-linecap:round; stroke-linejoin:round; stroke-width:4; stroke-opacity:1; fill:none" points="2144.42,667.406 2144.42,648.509 "/>
<polyline clip-path="url(#clip240)" style="stroke:#000000; stroke-linecap:round; stroke-linejoin:round; stroke-width:4; stroke-opacity:1; fill:none" points="2296.4,667.406 2296.4,648.509 "/>
<path clip-path="url(#clip240)" d="M1330.74 739.041 Q1328.83 740.956 1329.75 743.816 Q1330.67 746.652 1334.45 750.433 Q1338.22 754.202 1341.07 755.135 Q1343.91 756.043 1345.83 754.128 Q1347.76 752.201 1346.84 749.365 Q1345.92 746.504 1342.15 742.736 Q1338.37 738.955 1335.52 738.046 Q1332.67 737.113 1330.74 739.041 M1328.78 737.076 Q1331.86 733.995 1335.92 734.818 Q1339.99 735.616 1344.63 740.256 Q1349.26 744.884 1350.07 748.96 Q1350.88 753.011 1347.79 756.092 Q1344.71 759.173 1340.65 758.375 Q1336.59 757.553 1331.96 752.925 Q1327.32 748.285 1326.51 744.233 Q1325.7 740.158 1328.78 737.076 Z" fill="#000000" fill-rule="nonzero" fill-opacity="1" /><path clip-path="url(#clip240)" d="M1355.01 741.926 L1357.6 739.335 L1360.72 742.453 L1358.13 745.044 L1355.01 741.926 Z" fill="#000000" fill-rule="nonzero" fill-opacity="1" /><path clip-path="url(#clip240)" d="M1366.17 732.829 L1374.83 724.174 L1376.91 726.261 L1365.28 737.899 L1363.19 735.812 Q1363.14 732.939 1363.11 728.054 Q1363.09 723.143 1363 721.805 Q1362.86 719.276 1362.4 717.889 Q1361.95 716.477 1361.05 715.581 Q1359.59 714.12 1357.64 714.231 Q1355.7 714.329 1354.05 715.974 Q1352.89 717.14 1351.99 718.846 Q1351.11 720.541 1350.46 722.836 L1347.95 720.332 Q1348.85 718.233 1349.84 716.624 Q1350.84 715.016 1351.92 713.936 Q1354.77 711.088 1357.89 710.818 Q1361 710.548 1363.38 712.929 Q1364.51 714.059 1365.1 715.507 Q1365.69 716.931 1365.95 719.423 Q1366 720.086 1366.06 723.438 Q1366.11 726.777 1366.17 732.829 Z" fill="#000000" fill-rule="nonzero" fill-opacity="1" /><path clip-path="url(#clip240)" d="M1381.81 720.602 L1379.55 718.343 Q1380.93 717.852 1382.12 717.128 Q1383.31 716.404 1384.23 715.483 Q1386.68 713.028 1386.33 710.094 Q1385.97 707.135 1382.79 703.587 Q1383.14 705.355 1382.61 707.012 Q1382.08 708.67 1380.76 709.995 Q1378.01 712.745 1374.74 712.696 Q1371.47 712.622 1368.59 709.738 Q1365.77 706.914 1365.73 703.538 Q1365.69 700.162 1368.47 697.388 Q1371.65 694.208 1375.76 694.982 Q1379.87 695.731 1384.51 700.371 Q1388.85 704.704 1389.37 709.357 Q1389.9 713.985 1386.43 717.459 Q1385.49 718.392 1384.35 719.166 Q1383.21 719.939 1381.81 720.602 M1378.98 707.896 Q1380.65 706.227 1380.47 704.115 Q1380.31 701.991 1378.32 700.003 Q1376.35 698.026 1374.22 697.867 Q1372.1 697.682 1370.43 699.352 Q1368.76 701.022 1368.93 703.158 Q1369.11 705.269 1371.08 707.246 Q1373.07 709.234 1375.18 709.406 Q1377.31 709.566 1378.98 707.896 Z" fill="#000000" fill-rule="nonzero" fill-opacity="1" /><path clip-path="url(#clip240)" d="M1482.63 739.139 Q1480.71 741.054 1481.63 743.914 Q1482.56 746.75 1486.34 750.531 Q1490.11 754.3 1492.95 755.233 Q1495.8 756.141 1497.72 754.226 Q1499.64 752.299 1498.72 749.463 Q1497.8 746.603 1494.03 742.834 Q1490.25 739.053 1487.4 738.144 Q1484.56 737.211 1482.63 739.139 M1480.66 737.175 Q1483.75 734.093 1487.81 734.916 Q1491.87 735.714 1496.51 740.354 Q1501.14 744.982 1501.95 749.058 Q1502.76 753.109 1499.68 756.19 Q1496.6 759.272 1492.54 758.474 Q1488.47 757.651 1483.84 753.023 Q1479.2 748.383 1478.39 744.332 Q1477.58 740.256 1480.66 737.175 Z" fill="#000000" fill-rule="nonzero" fill-opacity="1" /><path clip-path="url(#clip240)" d="M1506.9 742.024 L1509.49 739.433 L1512.61 742.552 L1510.02 745.142 L1506.9 742.024 Z" fill="#000000" fill-rule="nonzero" fill-opacity="1" /><path clip-path="url(#clip240)" d="M1515.64 719.755 Q1517.8 718.355 1520 718.564 Q1522.21 718.761 1523.97 720.528 Q1526.69 723.241 1526.31 726.593 Q1525.93 729.944 1522.49 733.381 Q1521.34 734.535 1519.87 735.53 Q1518.44 736.524 1516.68 737.371 L1514.29 734.977 Q1515.92 734.548 1517.46 733.627 Q1518.99 732.706 1520.33 731.368 Q1522.66 729.036 1522.96 726.9 Q1523.26 724.751 1521.51 722.996 Q1519.89 721.375 1517.84 721.609 Q1515.79 721.817 1513.76 723.843 L1511.63 725.979 L1509.59 723.941 L1511.82 721.707 Q1513.65 719.878 1513.9 718.184 Q1514.13 716.477 1512.75 715.102 Q1511.34 713.69 1509.59 713.948 Q1507.83 714.182 1505.97 716.047 Q1504.95 717.066 1504 718.454 Q1503.06 719.841 1502.12 721.707 L1499.91 719.497 Q1500.93 717.692 1501.96 716.268 Q1503.01 714.832 1504.1 713.74 Q1506.92 710.916 1509.86 710.56 Q1512.78 710.192 1514.96 712.377 Q1516.49 713.899 1516.67 715.827 Q1516.84 717.742 1515.64 719.755 Z" fill="#000000" fill-rule="nonzero" fill-opacity="1" /><path clip-path="url(#clip240)" d="M1522.61 699.156 Q1520.7 701.071 1521.62 703.931 Q1522.54 706.767 1526.32 710.548 Q1530.09 714.317 1532.94 715.25 Q1535.78 716.158 1537.7 714.243 Q1539.63 712.316 1538.71 709.48 Q1537.79 706.619 1534.02 702.851 Q1530.24 699.07 1527.39 698.161 Q1524.54 697.228 1522.61 699.156 M1520.65 697.191 Q1523.73 694.11 1527.79 694.933 Q1531.86 695.731 1536.5 700.371 Q1541.12 704.999 1541.93 709.075 Q1542.74 713.126 1539.66 716.207 Q1536.58 719.288 1532.52 718.49 Q1528.46 717.668 1523.83 713.04 Q1519.19 708.399 1518.38 704.348 Q1517.57 700.273 1520.65 697.191 Z" fill="#000000" fill-rule="nonzero" fill-opacity="1" /><path clip-path="url(#clip240)" d="M1635.26 738.488 Q1633.35 740.403 1634.27 743.264 Q1635.19 746.099 1638.97 749.88 Q1642.74 753.649 1645.59 754.582 Q1648.44 755.491 1650.35 753.576 Q1652.28 751.648 1651.36 748.812 Q1650.44 745.952 1646.67 742.183 Q1642.89 738.402 1640.04 737.494 Q1637.19 736.561 1635.26 738.488 M1633.3 736.524 Q1636.38 733.443 1640.44 734.265 Q1644.51 735.063 1649.15 739.704 Q1653.78 744.332 1654.59 748.407 Q1655.4 752.458 1652.32 755.54 Q1649.23 758.621 1645.17 757.823 Q1641.11 757.001 1636.48 752.372 Q1631.84 747.732 1631.03 743.681 Q1630.22 739.605 1633.3 736.524 Z" fill="#000000" fill-rule="nonzero" fill-opacity="1" /><path clip-path="url(#clip240)" d="M1659.53 741.373 L1662.12 738.783 L1665.24 741.901 L1662.65 744.491 L1659.53 741.373 Z" fill="#000000" fill-rule="nonzero" fill-opacity="1" /><path clip-path="url(#clip240)" d="M1668.27 719.104 Q1670.43 717.705 1672.63 717.913 Q1674.84 718.11 1676.61 719.878 Q1679.32 722.591 1678.94 725.942 Q1678.56 729.293 1675.12 732.731 Q1673.97 733.885 1672.51 734.879 Q1671.07 735.873 1669.32 736.72 L1666.92 734.327 Q1668.56 733.897 1670.09 732.976 Q1671.63 732.056 1672.96 730.717 Q1675.3 728.385 1675.59 726.249 Q1675.9 724.101 1674.14 722.345 Q1672.52 720.725 1670.47 720.958 Q1668.42 721.167 1666.4 723.192 L1664.26 725.328 L1662.22 723.29 L1664.46 721.056 Q1666.29 719.227 1666.53 717.533 Q1666.76 715.827 1665.39 714.452 Q1663.98 713.04 1662.22 713.298 Q1660.47 713.531 1658.6 715.397 Q1657.58 716.416 1656.64 717.803 Q1655.69 719.19 1654.76 721.056 L1652.55 718.846 Q1653.57 717.042 1654.6 715.618 Q1655.64 714.182 1656.73 713.089 Q1659.56 710.265 1662.49 709.909 Q1665.41 709.541 1667.6 711.726 Q1669.12 713.249 1669.31 715.176 Q1669.48 717.091 1668.27 719.104 Z" fill="#000000" fill-rule="nonzero" fill-opacity="1" /><path clip-path="url(#clip240)" d="M1684.98 717.987 L1689.03 713.936 L1675.05 699.954 L1671.53 705.245 L1669.27 702.986 L1672.77 697.719 L1675.25 695.24 L1691.49 711.481 L1695.54 707.43 L1697.63 709.517 L1687.07 720.074 L1684.98 717.987 Z" fill="#000000" fill-rule="nonzero" fill-opacity="1" /><path clip-path="url(#clip240)" d="M1787.44 738.292 Q1785.53 740.207 1786.45 743.067 Q1787.37 745.903 1791.15 749.684 Q1794.92 753.453 1797.77 754.386 Q1800.62 755.294 1802.53 753.379 Q1804.46 751.452 1803.54 748.616 Q1802.62 745.756 1798.85 741.987 Q1795.07 738.206 1792.22 737.297 Q1789.37 736.364 1787.44 738.292 M1785.48 736.328 Q1788.56 733.246 1792.63 734.069 Q1796.69 734.867 1801.33 739.507 Q1805.96 744.135 1806.77 748.211 Q1807.58 752.262 1804.5 755.343 Q1801.41 758.425 1797.35 757.627 Q1793.29 756.804 1788.66 752.176 Q1784.02 747.536 1783.21 743.485 Q1782.4 739.409 1785.48 736.328 Z" fill="#000000" fill-rule="nonzero" fill-opacity="1" /><path clip-path="url(#clip240)" d="M1811.71 741.177 L1814.3 738.586 L1817.42 741.705 L1814.83 744.295 L1811.71 741.177 Z" fill="#000000" fill-rule="nonzero" fill-opacity="1" /><path clip-path="url(#clip240)" d="M1820.46 718.908 Q1822.62 717.508 1824.81 717.717 Q1827.02 717.913 1828.79 719.681 Q1831.5 722.394 1831.12 725.746 Q1830.74 729.097 1827.31 732.534 Q1826.15 733.688 1824.69 734.683 Q1823.25 735.677 1821.5 736.524 L1819.1 734.13 Q1820.74 733.701 1822.27 732.78 Q1823.81 731.859 1825.14 730.521 Q1827.48 728.189 1827.77 726.053 Q1828.08 723.904 1826.32 722.149 Q1824.7 720.528 1822.65 720.762 Q1820.6 720.97 1818.58 722.996 L1816.44 725.132 L1814.4 723.094 L1816.64 720.86 Q1818.47 719.031 1818.71 717.336 Q1818.95 715.63 1817.57 714.255 Q1816.16 712.843 1814.4 713.101 Q1812.65 713.334 1810.78 715.2 Q1809.76 716.219 1808.82 717.607 Q1807.87 718.994 1806.94 720.86 L1804.73 718.65 Q1805.75 716.845 1806.78 715.421 Q1807.82 713.985 1808.92 712.893 Q1811.74 710.069 1814.67 709.713 Q1817.59 709.345 1819.78 711.53 Q1821.3 713.052 1821.49 714.979 Q1821.66 716.895 1820.46 718.908 Z" fill="#000000" fill-rule="nonzero" fill-opacity="1" /><path clip-path="url(#clip240)" d="M1838.87 716.084 L1847.52 707.43 L1849.61 709.517 L1837.97 721.154 L1835.89 719.067 Q1835.84 716.195 1835.81 711.309 Q1835.79 706.398 1835.7 705.06 Q1835.55 702.532 1835.1 701.144 Q1834.65 699.733 1833.75 698.836 Q1832.29 697.376 1830.34 697.486 Q1828.4 697.584 1826.75 699.229 Q1825.59 700.395 1824.69 702.102 Q1823.81 703.796 1823.16 706.092 L1820.65 703.587 Q1821.55 701.488 1822.54 699.88 Q1823.54 698.272 1824.62 697.191 Q1827.46 694.343 1830.58 694.073 Q1833.7 693.803 1836.08 696.185 Q1837.21 697.314 1837.8 698.763 Q1838.39 700.187 1838.65 702.679 Q1838.7 703.342 1838.76 706.693 Q1838.81 710.032 1838.87 716.084 Z" fill="#000000" fill-rule="nonzero" fill-opacity="1" /><path clip-path="url(#clip240)" d="M1938.93 738.795 Q1937.01 740.71 1937.93 743.571 Q1938.85 746.406 1942.63 750.187 Q1946.4 753.956 1949.25 754.889 Q1952.1 755.797 1954.01 753.882 Q1955.94 751.955 1955.02 749.119 Q1954.1 746.259 1950.33 742.49 Q1946.55 738.709 1943.7 737.801 Q1940.85 736.868 1938.93 738.795 M1936.96 736.831 Q1940.04 733.75 1944.11 734.572 Q1948.17 735.37 1952.81 740.01 Q1957.44 744.639 1958.25 748.714 Q1959.06 752.765 1955.98 755.847 Q1952.9 758.928 1948.83 758.13 Q1944.77 757.307 1940.14 752.679 Q1935.5 748.039 1934.69 743.988 Q1933.88 739.912 1936.96 736.831 Z" fill="#000000" fill-rule="nonzero" fill-opacity="1" /><path clip-path="url(#clip240)" d="M1963.2 741.68 L1965.79 739.09 L1968.9 742.208 L1966.31 744.798 L1963.2 741.68 Z" fill="#000000" fill-rule="nonzero" fill-opacity="1" /><path clip-path="url(#clip240)" d="M1971.94 719.411 Q1974.1 718.012 1976.29 718.22 Q1978.5 718.417 1980.27 720.185 Q1982.98 722.898 1982.6 726.249 Q1982.22 729.6 1978.79 733.038 Q1977.63 734.192 1976.17 735.186 Q1974.74 736.18 1972.98 737.027 L1970.59 734.634 Q1972.22 734.204 1973.75 733.283 Q1975.29 732.362 1976.63 731.024 Q1978.96 728.692 1979.25 726.556 Q1979.56 724.408 1977.8 722.652 Q1976.18 721.032 1974.13 721.265 Q1972.08 721.474 1970.06 723.499 L1967.92 725.635 L1965.88 723.597 L1968.12 721.363 Q1969.95 719.534 1970.19 717.84 Q1970.43 716.133 1969.05 714.759 Q1967.64 713.347 1965.88 713.605 Q1964.13 713.838 1962.26 715.704 Q1961.24 716.723 1960.3 718.11 Q1959.35 719.497 1958.42 721.363 L1956.21 719.153 Q1957.23 717.349 1958.26 715.925 Q1959.3 714.488 1960.4 713.396 Q1963.22 710.572 1966.15 710.216 Q1969.08 709.848 1971.26 712.033 Q1972.78 713.555 1972.97 715.483 Q1973.14 717.398 1971.94 719.411 Z" fill="#000000" fill-rule="nonzero" fill-opacity="1" /><path clip-path="url(#clip240)" d="M1987.93 703.415 Q1990.09 702.016 1992.29 702.225 Q1994.5 702.421 1996.27 704.189 Q1998.98 706.902 1998.6 710.253 Q1998.22 713.605 1994.78 717.042 Q1993.63 718.196 1992.17 719.19 Q1990.73 720.185 1988.98 721.032 L1986.58 718.638 Q1988.21 718.208 1989.75 717.287 Q1991.28 716.367 1992.62 715.029 Q1994.95 712.696 1995.25 710.56 Q1995.56 708.412 1993.8 706.656 Q1992.18 705.036 1990.13 705.269 Q1988.08 705.478 1986.05 707.503 L1983.92 709.639 L1981.88 707.602 L1984.11 705.367 Q1985.94 703.538 1986.19 701.844 Q1986.42 700.138 1985.05 698.763 Q1983.64 697.351 1981.88 697.609 Q1980.12 697.842 1978.26 699.708 Q1977.24 700.727 1976.29 702.114 Q1975.35 703.501 1974.42 705.367 L1972.21 703.158 Q1973.23 701.353 1974.26 699.929 Q1975.3 698.493 1976.39 697.4 Q1979.22 694.577 1982.15 694.221 Q1985.07 693.852 1987.26 696.037 Q1988.78 697.56 1988.96 699.487 Q1989.14 701.402 1987.93 703.415 Z" fill="#000000" fill-rule="nonzero" fill-opacity="1" /><path clip-path="url(#clip240)" d="M2090.31 739.397 Q2088.39 741.312 2089.31 744.172 Q2090.24 747.008 2094.02 750.789 Q2097.78 754.558 2100.63 755.491 Q2103.48 756.399 2105.4 754.484 Q2107.32 752.557 2106.4 749.721 Q2105.48 746.86 2101.71 743.092 Q2097.93 739.311 2095.08 738.402 Q2092.24 737.469 2090.31 739.397 M2088.34 737.432 Q2091.43 734.351 2095.49 735.174 Q2099.55 735.972 2104.19 740.612 Q2108.82 745.24 2109.63 749.316 Q2110.44 753.367 2107.36 756.448 Q2104.28 759.529 2100.22 758.731 Q2096.15 757.909 2091.52 753.281 Q2086.88 748.641 2086.07 744.589 Q2085.26 740.514 2088.34 737.432 Z" fill="#000000" fill-rule="nonzero" fill-opacity="1" /><path clip-path="url(#clip240)" d="M2114.58 742.282 L2117.17 739.691 L2120.29 742.809 L2117.7 745.4 L2114.58 742.282 Z" fill="#000000" fill-rule="nonzero" fill-opacity="1" /><path clip-path="url(#clip240)" d="M2123.32 720.013 Q2125.48 718.613 2127.68 718.822 Q2129.89 719.018 2131.65 720.786 Q2134.37 723.499 2133.99 726.85 Q2133.61 730.202 2130.17 733.639 Q2129.02 734.793 2127.55 735.787 Q2126.12 736.782 2124.36 737.629 L2121.97 735.235 Q2123.6 734.805 2125.14 733.885 Q2126.67 732.964 2128.01 731.626 Q2130.34 729.293 2130.64 727.157 Q2130.94 725.009 2129.19 723.254 Q2127.57 721.633 2125.52 721.866 Q2123.47 722.075 2121.44 724.101 L2119.3 726.237 L2117.27 724.199 L2119.5 721.965 Q2121.33 720.135 2121.58 718.441 Q2121.81 716.735 2120.43 715.36 Q2119.02 713.948 2117.27 714.206 Q2115.51 714.439 2113.65 716.305 Q2112.63 717.324 2111.68 718.711 Q2110.74 720.099 2109.8 721.965 L2107.59 719.755 Q2108.61 717.95 2109.64 716.526 Q2110.69 715.09 2111.78 713.997 Q2114.6 711.174 2117.54 710.818 Q2120.46 710.45 2122.64 712.635 Q2124.17 714.157 2124.35 716.084 Q2124.52 717.999 2123.32 720.013 Z" fill="#000000" fill-rule="nonzero" fill-opacity="1" /><path clip-path="url(#clip240)" d="M2132.33 698.431 L2135.85 714.476 L2142.11 708.215 L2132.33 698.431 M2129.52 696.921 L2132.64 693.803 L2144.58 705.748 L2147.2 703.133 L2149.26 705.195 L2146.64 707.81 L2150.96 712.131 L2148.5 714.599 L2144.18 710.278 L2135.9 718.552 L2133.51 716.158 L2129.52 696.921 Z" fill="#000000" fill-rule="nonzero" fill-opacity="1" /><path clip-path="url(#clip240)" d="M2243.08 738.611 Q2241.16 740.526 2242.08 743.386 Q2243.01 746.222 2246.79 750.003 Q2250.56 753.772 2253.4 754.705 Q2256.25 755.613 2258.17 753.698 Q2260.09 751.771 2259.17 748.935 Q2258.25 746.075 2254.48 742.306 Q2250.7 738.525 2247.85 737.617 Q2245.01 736.684 2243.08 738.611 M2241.11 736.647 Q2244.2 733.565 2248.26 734.388 Q2252.32 735.186 2256.96 739.826 Q2261.59 744.454 2262.4 748.53 Q2263.21 752.581 2260.13 755.662 Q2257.05 758.744 2252.99 757.946 Q2248.92 757.123 2244.29 752.495 Q2239.65 747.855 2238.84 743.804 Q2238.03 739.728 2241.11 736.647 Z" fill="#000000" fill-rule="nonzero" fill-opacity="1" /><path clip-path="url(#clip240)" d="M2267.35 741.496 L2269.94 738.906 L2273.06 742.024 L2270.47 744.614 L2267.35 741.496 Z" fill="#000000" fill-rule="nonzero" fill-opacity="1" /><path clip-path="url(#clip240)" d="M2276.09 719.227 Q2278.25 717.828 2280.45 718.036 Q2282.66 718.233 2284.42 720 Q2287.14 722.713 2286.76 726.065 Q2286.38 729.416 2282.94 732.853 Q2281.79 734.007 2280.32 735.002 Q2278.89 735.996 2277.13 736.843 L2274.74 734.449 Q2276.37 734.02 2277.91 733.099 Q2279.44 732.178 2280.78 730.84 Q2283.11 728.508 2283.41 726.372 Q2283.71 724.223 2281.96 722.468 Q2280.34 720.847 2278.29 721.081 Q2276.24 721.289 2274.21 723.315 L2272.08 725.451 L2270.04 723.413 L2272.27 721.179 Q2274.1 719.35 2274.35 717.656 Q2274.58 715.949 2273.2 714.574 Q2271.79 713.163 2270.04 713.42 Q2268.28 713.654 2266.42 715.52 Q2265.4 716.539 2264.45 717.926 Q2263.51 719.313 2262.57 721.179 L2260.36 718.969 Q2261.38 717.165 2262.41 715.741 Q2263.46 714.304 2264.55 713.212 Q2267.37 710.388 2270.31 710.032 Q2273.23 709.664 2275.41 711.849 Q2276.94 713.371 2277.12 715.299 Q2277.29 717.214 2276.09 719.227 Z" fill="#000000" fill-rule="nonzero" fill-opacity="1" /><path clip-path="url(#clip240)" d="M2276.15 702.274 L2285.89 692.539 L2287.97 694.626 L2280.51 702.09 L2285 706.583 Q2285.36 705.858 2285.81 705.232 Q2286.25 704.594 2286.79 704.054 Q2289.86 700.985 2293.34 700.874 Q2296.81 700.764 2299.68 703.636 Q2302.64 706.595 2302.45 710.081 Q2302.24 713.555 2298.89 716.907 Q2297.73 718.061 2296.33 719.067 Q2294.95 720.062 2293.28 720.946 L2290.78 718.454 Q2292.49 717.95 2293.96 717.066 Q2295.44 716.183 2296.75 714.869 Q2298.87 712.745 2299 710.388 Q2299.12 708.031 2297.2 706.116 Q2295.29 704.201 2292.93 704.324 Q2290.58 704.447 2288.45 706.57 Q2287.46 707.565 2286.68 708.78 Q2285.92 709.983 2285.36 711.481 L2276.15 702.274 Z" fill="#000000" fill-rule="nonzero" fill-opacity="1" /><polyline clip-path="url(#clip240)" style="stroke:#000000; stroke-linecap:round; stroke-linejoin:round; stroke-width:4; stroke-opacity:1; fill:none" points="1328.14,667.406 1328.14,97.5521 "/>
<polyline clip-path="url(#clip240)" style="stroke:#000000; stroke-linecap:round; stroke-linejoin:round; stroke-width:4; stroke-opacity:1; fill:none" points="1328.14,667.406 1347.04,667.406 "/>
<polyline clip-path="url(#clip240)" style="stroke:#000000; stroke-linecap:round; stroke-linejoin:round; stroke-width:4; stroke-opacity:1; fill:none" points="1328.14,570.821 1347.04,570.821 "/>
<polyline clip-path="url(#clip240)" style="stroke:#000000; stroke-linecap:round; stroke-linejoin:round; stroke-width:4; stroke-opacity:1; fill:none" points="1328.14,474.235 1347.04,474.235 "/>
<polyline clip-path="url(#clip240)" style="stroke:#000000; stroke-linecap:round; stroke-linejoin:round; stroke-width:4; stroke-opacity:1; fill:none" points="1328.14,377.65 1347.04,377.65 "/>
<polyline clip-path="url(#clip240)" style="stroke:#000000; stroke-linecap:round; stroke-linejoin:round; stroke-width:4; stroke-opacity:1; fill:none" points="1328.14,281.065 1347.04,281.065 "/>
<polyline clip-path="url(#clip240)" style="stroke:#000000; stroke-linecap:round; stroke-linejoin:round; stroke-width:4; stroke-opacity:1; fill:none" points="1328.14,184.479 1347.04,184.479 "/>
<path clip-path="url(#clip240)" d="M1283.18 656.755 Q1280.47 656.755 1279.1 659.429 Q1277.75 662.085 1277.75 667.432 Q1277.75 672.762 1279.1 675.436 Q1280.47 678.092 1283.18 678.092 Q1285.91 678.092 1287.26 675.436 Q1288.63 672.762 1288.63 667.432 Q1288.63 662.085 1287.26 659.429 Q1285.91 656.755 1283.18 656.755 M1283.18 653.978 Q1287.54 653.978 1289.83 657.432 Q1292.14 660.87 1292.14 667.432 Q1292.14 673.978 1289.83 677.432 Q1287.54 680.87 1283.18 680.87 Q1278.82 680.87 1276.51 677.432 Q1274.22 673.978 1274.22 667.432 Q1274.22 660.87 1276.51 657.432 Q1278.82 653.978 1283.18 653.978 Z" fill="#000000" fill-rule="nonzero" fill-opacity="1" /><path clip-path="url(#clip240)" d="M1253.67 580.83 L1259.39 580.83 L1259.39 561.055 L1253.16 562.305 L1253.16 559.111 L1259.36 557.861 L1262.87 557.861 L1262.87 580.83 L1268.6 580.83 L1268.6 583.781 L1253.67 583.781 L1253.67 580.83 Z" fill="#000000" fill-rule="nonzero" fill-opacity="1" /><path clip-path="url(#clip240)" d="M1283.18 560.17 Q1280.47 560.17 1279.1 562.844 Q1277.75 565.5 1277.75 570.847 Q1277.75 576.177 1279.1 578.85 Q1280.47 581.507 1283.18 581.507 Q1285.91 581.507 1287.26 578.85 Q1288.63 576.177 1288.63 570.847 Q1288.63 565.5 1287.26 562.844 Q1285.91 560.17 1283.18 560.17 M1283.18 557.392 Q1287.54 557.392 1289.83 560.847 Q1292.14 564.284 1292.14 570.847 Q1292.14 577.392 1289.83 580.847 Q1287.54 584.284 1283.18 584.284 Q1278.82 584.284 1276.51 580.847 Q1274.22 577.392 1274.22 570.847 Q1274.22 564.284 1276.51 560.847 Q1278.82 557.392 1283.18 557.392 Z" fill="#000000" fill-rule="nonzero" fill-opacity="1" /><path clip-path="url(#clip240)" d="M1256.08 484.244 L1268.32 484.244 L1268.32 487.195 L1251.86 487.195 L1251.86 484.244 Q1253.86 482.178 1257.29 478.706 Q1260.75 475.216 1261.63 474.209 Q1263.32 472.317 1263.98 471.015 Q1264.66 469.696 1264.66 468.428 Q1264.66 466.362 1263.2 465.06 Q1261.76 463.758 1259.43 463.758 Q1257.78 463.758 1255.94 464.331 Q1254.12 464.904 1252.03 466.067 L1252.03 462.525 Q1254.15 461.675 1255.99 461.241 Q1257.83 460.807 1259.36 460.807 Q1263.39 460.807 1265.78 462.821 Q1268.18 464.834 1268.18 468.202 Q1268.18 469.8 1267.57 471.241 Q1266.98 472.664 1265.4 474.609 Q1264.97 475.112 1262.64 477.525 Q1260.31 479.921 1256.08 484.244 Z" fill="#000000" fill-rule="nonzero" fill-opacity="1" /><path clip-path="url(#clip240)" d="M1283.18 463.584 Q1280.47 463.584 1279.1 466.258 Q1277.75 468.914 1277.75 474.261 Q1277.75 479.591 1279.1 482.265 Q1280.47 484.921 1283.18 484.921 Q1285.91 484.921 1287.26 482.265 Q1288.63 479.591 1288.63 474.261 Q1288.63 468.914 1287.26 466.258 Q1285.91 463.584 1283.18 463.584 M1283.18 460.807 Q1287.54 460.807 1289.83 464.262 Q1292.14 467.699 1292.14 474.261 Q1292.14 480.807 1289.83 484.261 Q1287.54 487.699 1283.18 487.699 Q1278.82 487.699 1276.51 484.261 Q1274.22 480.807 1274.22 474.261 Q1274.22 467.699 1276.51 464.262 Q1278.82 460.807 1283.18 460.807 Z" fill="#000000" fill-rule="nonzero" fill-opacity="1" /><path clip-path="url(#clip240)" d="M1263.68 376.634 Q1266.2 377.173 1267.61 378.874 Q1269.03 380.575 1269.03 383.075 Q1269.03 386.912 1266.39 389.013 Q1263.75 391.113 1258.89 391.113 Q1257.26 391.113 1255.52 390.784 Q1253.8 390.471 1251.96 389.829 L1251.96 386.443 Q1253.42 387.294 1255.16 387.728 Q1256.89 388.162 1258.79 388.162 Q1262.09 388.162 1263.8 386.86 Q1265.54 385.558 1265.54 383.075 Q1265.54 380.784 1263.93 379.499 Q1262.33 378.197 1259.46 378.197 L1256.44 378.197 L1256.44 375.315 L1259.6 375.315 Q1262.19 375.315 1263.56 374.291 Q1264.93 373.249 1264.93 371.305 Q1264.93 369.308 1263.51 368.249 Q1262.1 367.173 1259.46 367.173 Q1258.02 367.173 1256.37 367.485 Q1254.72 367.798 1252.75 368.457 L1252.75 365.332 Q1254.74 364.777 1256.48 364.499 Q1258.23 364.221 1259.78 364.221 Q1263.77 364.221 1266.1 366.044 Q1268.42 367.85 1268.42 370.94 Q1268.42 373.093 1267.19 374.586 Q1265.96 376.061 1263.68 376.634 Z" fill="#000000" fill-rule="nonzero" fill-opacity="1" /><path clip-path="url(#clip240)" d="M1283.18 366.999 Q1280.47 366.999 1279.1 369.673 Q1277.75 372.329 1277.75 377.676 Q1277.75 383.006 1279.1 385.679 Q1280.47 388.336 1283.18 388.336 Q1285.91 388.336 1287.26 385.679 Q1288.63 383.006 1288.63 377.676 Q1288.63 372.329 1287.26 369.673 Q1285.91 366.999 1283.18 366.999 M1283.18 364.221 Q1287.54 364.221 1289.83 367.676 Q1292.14 371.114 1292.14 377.676 Q1292.14 384.221 1289.83 387.676 Q1287.54 391.113 1283.18 391.113 Q1278.82 391.113 1276.51 387.676 Q1274.22 384.221 1274.22 377.676 Q1274.22 371.114 1276.51 367.676 Q1278.82 364.221 1283.18 364.221 Z" fill="#000000" fill-rule="nonzero" fill-opacity="1" /><path clip-path="url(#clip240)" d="M1262.69 271.16 L1253.84 284.997 L1262.69 284.997 L1262.69 271.16 M1261.77 268.105 L1266.18 268.105 L1266.18 284.997 L1269.88 284.997 L1269.88 287.913 L1266.18 287.913 L1266.18 294.025 L1262.69 294.025 L1262.69 287.913 L1250.99 287.913 L1250.99 284.528 L1261.77 268.105 Z" fill="#000000" fill-rule="nonzero" fill-opacity="1" /><path clip-path="url(#clip240)" d="M1283.18 270.414 Q1280.47 270.414 1279.1 273.087 Q1277.75 275.743 1277.75 281.091 Q1277.75 286.42 1279.1 289.094 Q1280.47 291.75 1283.18 291.75 Q1285.91 291.75 1287.26 289.094 Q1288.63 286.42 1288.63 281.091 Q1288.63 275.743 1287.26 273.087 Q1285.91 270.414 1283.18 270.414 M1283.18 267.636 Q1287.54 267.636 1289.83 271.091 Q1292.14 274.528 1292.14 281.091 Q1292.14 287.636 1289.83 291.09 Q1287.54 294.528 1283.18 294.528 Q1278.82 294.528 1276.51 291.09 Q1274.22 287.636 1274.22 281.091 Q1274.22 274.528 1276.51 271.091 Q1278.82 267.636 1283.18 267.636 Z" fill="#000000" fill-rule="nonzero" fill-opacity="1" /><path clip-path="url(#clip240)" d="M1253.09 171.519 L1266.86 171.519 L1266.86 174.47 L1256.3 174.47 L1256.3 180.825 Q1257.07 180.564 1257.83 180.443 Q1258.6 180.304 1259.36 180.304 Q1263.7 180.304 1266.24 182.682 Q1268.77 185.061 1268.77 189.123 Q1268.77 193.307 1266.17 195.633 Q1263.56 197.943 1258.82 197.943 Q1257.19 197.943 1255.49 197.665 Q1253.8 197.387 1252 196.831 L1252 193.307 Q1253.56 194.158 1255.23 194.574 Q1256.89 194.991 1258.75 194.991 Q1261.76 194.991 1263.51 193.411 Q1265.26 191.831 1265.26 189.123 Q1265.26 186.415 1263.51 184.835 Q1261.76 183.255 1258.75 183.255 Q1257.35 183.255 1255.94 183.568 Q1254.55 183.88 1253.09 184.54 L1253.09 171.519 Z" fill="#000000" fill-rule="nonzero" fill-opacity="1" /><path clip-path="url(#clip240)" d="M1283.18 173.828 Q1280.47 173.828 1279.1 176.502 Q1277.75 179.158 1277.75 184.505 Q1277.75 189.835 1279.1 192.509 Q1280.47 195.165 1283.18 195.165 Q1285.91 195.165 1287.26 192.509 Q1288.63 189.835 1288.63 184.505 Q1288.63 179.158 1287.26 176.502 Q1285.91 173.828 1283.18 173.828 M1283.18 171.05 Q1287.54 171.05 1289.83 174.505 Q1292.14 177.943 1292.14 184.505 Q1292.14 191.05 1289.83 194.505 Q1287.54 197.943 1283.18 197.943 Q1278.82 197.943 1276.51 194.505 Q1274.22 191.05 1274.22 184.505 Q1274.22 177.943 1276.51 174.505 Q1278.82 171.05 1283.18 171.05 Z" fill="#000000" fill-rule="nonzero" fill-opacity="1" /><path clip-path="url(#clip240)" d="M1340.04 18.9258 Q1336.52 18.9258 1334.62 21.4721 Q1332.63 24.1341 1332.63 28.5323 Q1332.63 33.185 1334.6 35.8702 Q1336.59 38.5322 1340.04 38.5322 Q1343.44 38.5322 1345.43 35.847 Q1347.42 33.1619 1347.42 28.5323 Q1347.42 24.2962 1345.43 21.4721 Q1343.6 18.9258 1340.04 18.9258 M1340.04 15.5462 L1354.18 15.5462 L1354.18 19.8054 L1349.41 19.8054 Q1351.93 23.4165 1351.93 28.5323 Q1351.93 34.898 1348.76 38.5091 Q1345.59 42.1433 1340.04 42.1433 Q1334.46 42.1433 1331.31 38.5091 Q1328.14 34.898 1328.14 28.5323 Q1328.14 22.1203 1331.31 18.5323 Q1333.92 15.5462 1340.04 15.5462 Z" fill="#000000" fill-rule="nonzero" fill-opacity="1" /><path clip-path="url(#clip240)" d="M1378.35 19.6666 Q1377.49 19.3656 1376.63 19.1342 Q1374.34 18.5323 1371.89 18.5323 Q1367.65 18.5323 1365.29 20.824 Q1363.09 22.9536 1362.67 26.8656 L1378.35 26.8656 L1378.35 30.1989 L1362.67 30.1989 Q1363.09 34.1109 1365.29 36.2405 Q1367.65 38.5322 1371.89 38.5322 Q1374.85 38.5322 1376.63 37.9304 L1378.35 37.3517 L1378.35 41.2174 L1376.52 41.634 Q1374.11 42.1433 1371.63 42.1433 Q1365.43 42.1433 1361.82 38.5322 Q1358.18 34.9211 1358.18 28.5323 Q1358.18 22.1434 1361.82 18.5323 Q1365.43 14.9212 1371.63 14.9212 Q1373.97 14.9212 1376.52 15.4305 Q1377.44 15.6157 1378.35 15.8934 L1378.35 19.6666 Z" fill="#000000" fill-rule="nonzero" fill-opacity="1" /><path clip-path="url(#clip243)" d="M1384.49 619.114 L1384.49 667.406 L1536.48 667.406 L1536.48 619.114 L1384.49 619.114 L1384.49 619.114  Z" fill="#009af9" fill-rule="evenodd" fill-opacity="1"/>
<polyline clip-path="url(#clip243)" style="stroke:#000000; stroke-linecap:round; stroke-linejoin:round; stroke-width:4; stroke-opacity:1; fill:none" points="1384.49,619.114 1384.49,667.406 1536.48,667.406 1536.48,619.114 1384.49,619.114 "/>
<path clip-path="url(#clip243)" d="M1536.48 174.82 L1536.48 667.406 L1688.46 667.406 L1688.46 174.82 L1536.48 174.82 L1536.48 174.82  Z" fill="#009af9" fill-rule="evenodd" fill-opacity="1"/>
<polyline clip-path="url(#clip243)" style="stroke:#000000; stroke-linecap:round; stroke-linejoin:round; stroke-width:4; stroke-opacity:1; fill:none" points="1536.48,174.82 1536.48,667.406 1688.46,667.406 1688.46,174.82 1536.48,174.82 "/>
<path clip-path="url(#clip243)" d="M1688.46 194.138 L1688.46 667.406 L1840.45 667.406 L1840.45 194.138 L1688.46 194.138 L1688.46 194.138  Z" fill="#009af9" fill-rule="evenodd" fill-opacity="1"/>
<polyline clip-path="url(#clip243)" style="stroke:#000000; stroke-linecap:round; stroke-linejoin:round; stroke-width:4; stroke-opacity:1; fill:none" points="1688.46,194.138 1688.46,667.406 1840.45,667.406 1840.45,194.138 1688.46,194.138 "/>
<path clip-path="url(#clip243)" d="M1840.45 252.089 L1840.45 667.406 L1992.43 667.406 L1992.43 252.089 L1840.45 252.089 L1840.45 252.089  Z" fill="#009af9" fill-rule="evenodd" fill-opacity="1"/>
<polyline clip-path="url(#clip243)" style="stroke:#000000; stroke-linecap:round; stroke-linejoin:round; stroke-width:4; stroke-opacity:1; fill:none" points="1840.45,252.089 1840.45,667.406 1992.43,667.406 1992.43,252.089 1840.45,252.089 "/>
<path clip-path="url(#clip243)" d="M1992.43 97.5521 L1992.43 667.406 L2144.42 667.406 L2144.42 97.5521 L1992.43 97.5521 L1992.43 97.5521  Z" fill="#009af9" fill-rule="evenodd" fill-opacity="1"/>
<polyline clip-path="url(#clip243)" style="stroke:#000000; stroke-linecap:round; stroke-linejoin:round; stroke-width:4; stroke-opacity:1; fill:none" points="1992.43,97.5521 1992.43,667.406 2144.42,667.406 2144.42,97.5521 1992.43,97.5521 "/>
<path clip-path="url(#clip243)" d="M2144.42 532.187 L2144.42 667.406 L2296.4 667.406 L2296.4 532.187 L2144.42 532.187 L2144.42 532.187  Z" fill="#009af9" fill-rule="evenodd" fill-opacity="1"/>
<polyline clip-path="url(#clip243)" style="stroke:#000000; stroke-linecap:round; stroke-linejoin:round; stroke-width:4; stroke-opacity:1; fill:none" points="2144.42,532.187 2144.42,667.406 2296.4,667.406 2296.4,532.187 2144.42,532.187 "/>
<circle clip-path="url(#clip243)" style="fill:#009af9; stroke:none; fill-opacity:0" cx="1460.49" cy="619.114" r="2"/>
<circle clip-path="url(#clip243)" style="fill:#009af9; stroke:none; fill-opacity:0" cx="1612.47" cy="174.82" r="2"/>
<circle clip-path="url(#clip243)" style="fill:#009af9; stroke:none; fill-opacity:0" cx="1764.45" cy="194.138" r="2"/>
<circle clip-path="url(#clip243)" style="fill:#009af9; stroke:none; fill-opacity:0" cx="1916.44" cy="252.089" r="2"/>
<circle clip-path="url(#clip243)" style="fill:#009af9; stroke:none; fill-opacity:0" cx="2068.42" cy="97.5521" r="2"/>
<circle clip-path="url(#clip243)" style="fill:#009af9; stroke:none; fill-opacity:0" cx="2220.41" cy="532.187" r="2"/>
<polyline clip-path="url(#clip243)" style="stroke:#ff0000; stroke-linecap:round; stroke-linejoin:round; stroke-width:8; stroke-opacity:1; fill:none" stroke-dasharray="32, 20" points="1922.4,1237.26 1922.4,-472.302 "/>
<polyline clip-path="url(#clip243)" style="stroke:#ff0000; stroke-linecap:round; stroke-linejoin:round; stroke-width:6; stroke-opacity:1; fill:none" stroke-dasharray="24, 12, 3, 12" points="1530.83,1237.26 1530.83,-472.302 "/>
<polyline clip-path="url(#clip243)" style="stroke:#ff0000; stroke-linecap:round; stroke-linejoin:round; stroke-width:6; stroke-opacity:1; fill:none" stroke-dasharray="24, 12, 3, 12" points="2228.8,1237.26 2228.8,-472.302 "/>
<path clip-path="url(#clip240)" d="M128.138 1467.41 L1152.76 1467.41 L1152.76 897.552 L128.138 897.552  Z" fill="#ffffff" fill-rule="evenodd" fill-opacity="1"/>
<defs>
  <clipPath id="clip244">
    <rect x="128" y="897" width="1026" height="571"/>
  </clipPath>
</defs>
<polyline clip-path="url(#clip244)" style="stroke:#000000; stroke-linecap:round; stroke-linejoin:round; stroke-width:2; stroke-opacity:0.1; fill:none" points="314.766,1467.41 314.766,897.552 "/>
<polyline clip-path="url(#clip244)" style="stroke:#000000; stroke-linecap:round; stroke-linejoin:round; stroke-width:2; stroke-opacity:0.1; fill:none" points="575.311,1467.41 575.311,897.552 "/>
<polyline clip-path="url(#clip244)" style="stroke:#000000; stroke-linecap:round; stroke-linejoin:round; stroke-width:2; stroke-opacity:0.1; fill:none" points="835.855,1467.41 835.855,897.552 "/>
<polyline clip-path="url(#clip244)" style="stroke:#000000; stroke-linecap:round; stroke-linejoin:round; stroke-width:2; stroke-opacity:0.1; fill:none" points="1096.4,1467.41 1096.4,897.552 "/>
<polyline clip-path="url(#clip244)" style="stroke:#000000; stroke-linecap:round; stroke-linejoin:round; stroke-width:2; stroke-opacity:0.1; fill:none" points="128.138,1467.41 1152.76,1467.41 "/>
<polyline clip-path="url(#clip244)" style="stroke:#000000; stroke-linecap:round; stroke-linejoin:round; stroke-width:2; stroke-opacity:0.1; fill:none" points="128.138,1383.6 1152.76,1383.6 "/>
<polyline clip-path="url(#clip244)" style="stroke:#000000; stroke-linecap:round; stroke-linejoin:round; stroke-width:2; stroke-opacity:0.1; fill:none" points="128.138,1299.8 1152.76,1299.8 "/>
<polyline clip-path="url(#clip244)" style="stroke:#000000; stroke-linecap:round; stroke-linejoin:round; stroke-width:2; stroke-opacity:0.1; fill:none" points="128.138,1216 1152.76,1216 "/>
<polyline clip-path="url(#clip244)" style="stroke:#000000; stroke-linecap:round; stroke-linejoin:round; stroke-width:2; stroke-opacity:0.1; fill:none" points="128.138,1132.2 1152.76,1132.2 "/>
<polyline clip-path="url(#clip244)" style="stroke:#000000; stroke-linecap:round; stroke-linejoin:round; stroke-width:2; stroke-opacity:0.1; fill:none" points="128.138,1048.4 1152.76,1048.4 "/>
<polyline clip-path="url(#clip244)" style="stroke:#000000; stroke-linecap:round; stroke-linejoin:round; stroke-width:2; stroke-opacity:0.1; fill:none" points="128.138,964.594 1152.76,964.594 "/>
<polyline clip-path="url(#clip240)" style="stroke:#000000; stroke-linecap:round; stroke-linejoin:round; stroke-width:4; stroke-opacity:1; fill:none" points="128.138,1467.41 1152.76,1467.41 "/>
<polyline clip-path="url(#clip240)" style="stroke:#000000; stroke-linecap:round; stroke-linejoin:round; stroke-width:4; stroke-opacity:1; fill:none" points="314.766,1467.41 314.766,1448.51 "/>
<polyline clip-path="url(#clip240)" style="stroke:#000000; stroke-linecap:round; stroke-linejoin:round; stroke-width:4; stroke-opacity:1; fill:none" points="575.311,1467.41 575.311,1448.51 "/>
<polyline clip-path="url(#clip240)" style="stroke:#000000; stroke-linecap:round; stroke-linejoin:round; stroke-width:4; stroke-opacity:1; fill:none" points="835.855,1467.41 835.855,1448.51 "/>
<polyline clip-path="url(#clip240)" style="stroke:#000000; stroke-linecap:round; stroke-linejoin:round; stroke-width:4; stroke-opacity:1; fill:none" points="1096.4,1467.41 1096.4,1448.51 "/>
<path clip-path="url(#clip240)" d="M261.261 1538.8 Q259.345 1540.71 260.266 1543.57 Q261.187 1546.41 264.968 1550.19 Q268.737 1553.96 271.585 1554.89 Q274.433 1555.8 276.348 1553.88 Q278.275 1551.96 277.355 1549.12 Q276.434 1546.26 272.665 1542.49 Q268.884 1538.71 266.036 1537.8 Q263.188 1536.87 261.261 1538.8 M259.296 1536.83 Q262.378 1533.75 266.441 1534.57 Q270.504 1535.37 275.145 1540.01 Q279.773 1544.64 280.583 1548.71 Q281.393 1552.77 278.312 1555.85 Q275.231 1558.93 271.167 1558.13 Q267.104 1557.31 262.476 1552.68 Q257.836 1548.04 257.025 1543.99 Q256.215 1539.91 259.296 1536.83 Z" fill="#000000" fill-rule="nonzero" fill-opacity="1" /><path clip-path="url(#clip240)" d="M285.53 1541.68 L288.121 1539.09 L291.239 1542.21 L288.649 1544.8 L285.53 1541.68 Z" fill="#000000" fill-rule="nonzero" fill-opacity="1" /><path clip-path="url(#clip240)" d="M278.337 1518.45 L288.072 1508.72 L290.158 1510.81 L282.695 1518.27 L287.188 1522.76 Q287.544 1522.04 287.998 1521.41 Q288.44 1520.77 288.98 1520.23 Q292.049 1517.16 295.523 1517.05 Q298.997 1516.94 301.87 1519.82 Q304.828 1522.77 304.632 1526.26 Q304.423 1529.74 301.072 1533.09 Q299.918 1534.24 298.519 1535.25 Q297.131 1536.24 295.462 1537.13 L292.97 1534.63 Q294.676 1534.13 296.149 1533.25 Q297.622 1532.36 298.936 1531.05 Q301.06 1528.93 301.182 1526.57 Q301.305 1524.21 299.39 1522.3 Q297.475 1520.38 295.118 1520.5 Q292.761 1520.63 290.637 1522.75 Q289.643 1523.74 288.87 1524.96 Q288.108 1526.16 287.544 1527.66 L278.337 1518.45 Z" fill="#000000" fill-rule="nonzero" fill-opacity="1" /><path clip-path="url(#clip240)" d="M310.267 1503.42 Q312.427 1502.02 314.625 1502.22 Q316.834 1502.42 318.602 1504.19 Q321.315 1506.9 320.935 1510.25 Q320.554 1513.6 317.117 1517.04 Q315.963 1518.2 314.502 1519.19 Q313.066 1520.18 311.31 1521.03 L308.916 1518.64 Q310.549 1518.21 312.084 1517.29 Q313.618 1516.37 314.956 1515.03 Q317.289 1512.7 317.583 1510.56 Q317.89 1508.41 316.135 1506.66 Q314.514 1505.04 312.464 1505.27 Q310.414 1505.48 308.388 1507.5 L306.252 1509.64 L304.215 1507.6 L306.449 1505.37 Q308.278 1503.54 308.524 1501.84 Q308.757 1500.14 307.382 1498.76 Q305.97 1497.35 304.215 1497.61 Q302.459 1497.84 300.593 1499.71 Q299.574 1500.73 298.629 1502.11 Q297.684 1503.5 296.751 1505.37 L294.541 1503.16 Q295.56 1501.35 296.591 1499.93 Q297.635 1498.49 298.727 1497.4 Q301.551 1494.58 304.485 1494.22 Q307.406 1493.85 309.592 1496.04 Q311.114 1497.56 311.298 1499.49 Q311.47 1501.4 310.267 1503.42 Z" fill="#000000" fill-rule="nonzero" fill-opacity="1" /><path clip-path="url(#clip240)" d="M521.204 1539.4 Q519.289 1541.31 520.209 1544.17 Q521.13 1547.01 524.911 1550.79 Q528.68 1554.56 531.528 1555.49 Q534.376 1556.4 536.291 1554.48 Q538.218 1552.56 537.298 1549.72 Q536.377 1546.86 532.608 1543.09 Q528.827 1539.31 525.979 1538.4 Q523.131 1537.47 521.204 1539.4 M519.24 1537.43 Q522.321 1534.35 526.384 1535.17 Q530.448 1535.97 535.088 1540.61 Q539.716 1545.24 540.526 1549.32 Q541.337 1553.37 538.255 1556.45 Q535.174 1559.53 531.111 1558.73 Q527.047 1557.91 522.419 1553.28 Q517.779 1548.64 516.969 1544.59 Q516.158 1540.51 519.24 1537.43 Z" fill="#000000" fill-rule="nonzero" fill-opacity="1" /><path clip-path="url(#clip240)" d="M545.474 1542.28 L548.064 1539.69 L551.182 1542.81 L548.592 1545.4 L545.474 1542.28 Z" fill="#000000" fill-rule="nonzero" fill-opacity="1" /><path clip-path="url(#clip240)" d="M538.28 1519.06 L548.015 1509.32 L550.102 1511.41 L542.638 1518.87 L547.131 1523.36 Q547.487 1522.64 547.941 1522.01 Q548.383 1521.38 548.923 1520.84 Q551.992 1517.77 555.466 1517.66 Q558.94 1517.55 561.813 1520.42 Q564.772 1523.38 564.575 1526.86 Q564.367 1530.34 561.015 1533.69 Q559.861 1534.84 558.462 1535.85 Q557.075 1536.84 555.405 1537.73 L552.913 1535.24 Q554.619 1534.73 556.092 1533.85 Q557.566 1532.96 558.879 1531.65 Q561.003 1529.53 561.126 1527.17 Q561.248 1524.81 559.333 1522.9 Q557.418 1520.98 555.061 1521.11 Q552.704 1521.23 550.58 1523.35 Q549.586 1524.35 548.813 1525.56 Q548.052 1526.76 547.487 1528.26 L538.28 1519.06 Z" fill="#000000" fill-rule="nonzero" fill-opacity="1" /><path clip-path="url(#clip240)" d="M563.225 1498.43 L566.748 1514.48 L573.009 1508.22 L563.225 1498.43 M560.414 1496.92 L563.532 1493.8 L575.476 1505.75 L578.091 1503.13 L580.154 1505.2 L577.539 1507.81 L581.86 1512.13 L579.392 1514.6 L575.071 1510.28 L566.797 1518.55 L564.403 1516.16 L560.414 1496.92 Z" fill="#000000" fill-rule="nonzero" fill-opacity="1" /><path clip-path="url(#clip240)" d="M782.534 1538.61 Q780.619 1540.53 781.54 1543.39 Q782.46 1546.22 786.242 1550 Q790.01 1553.77 792.858 1554.7 Q795.706 1555.61 797.621 1553.7 Q799.549 1551.77 798.628 1548.94 Q797.707 1546.07 793.939 1542.31 Q790.158 1538.53 787.31 1537.62 Q784.461 1536.68 782.534 1538.61 M780.57 1536.65 Q783.651 1533.57 787.715 1534.39 Q791.778 1535.19 796.418 1539.83 Q801.046 1544.45 801.857 1548.53 Q802.667 1552.58 799.586 1555.66 Q796.504 1558.74 792.441 1557.95 Q788.378 1557.12 783.749 1552.5 Q779.109 1547.85 778.299 1543.8 Q777.489 1539.73 780.57 1536.65 Z" fill="#000000" fill-rule="nonzero" fill-opacity="1" /><path clip-path="url(#clip240)" d="M806.804 1541.5 L809.394 1538.91 L812.512 1542.02 L809.922 1544.61 L806.804 1541.5 Z" fill="#000000" fill-rule="nonzero" fill-opacity="1" /><path clip-path="url(#clip240)" d="M799.61 1518.27 L809.345 1508.53 L811.432 1510.62 L803.968 1518.09 L808.461 1522.58 Q808.817 1521.85 809.271 1521.23 Q809.713 1520.59 810.254 1520.05 Q813.323 1516.98 816.797 1516.87 Q820.271 1516.76 823.143 1519.63 Q826.102 1522.59 825.906 1526.08 Q825.697 1529.55 822.346 1532.9 Q821.192 1534.06 819.792 1535.06 Q818.405 1536.06 816.735 1536.94 L814.243 1534.45 Q815.95 1533.95 817.423 1533.06 Q818.896 1532.18 820.209 1530.86 Q822.333 1528.74 822.456 1526.38 Q822.579 1524.03 820.664 1522.11 Q818.749 1520.2 816.392 1520.32 Q814.035 1520.44 811.911 1522.57 Q810.916 1523.56 810.143 1524.78 Q809.382 1525.98 808.817 1527.48 L799.61 1518.27 Z" fill="#000000" fill-rule="nonzero" fill-opacity="1" /><path clip-path="url(#clip240)" d="M815.606 1502.27 L825.341 1492.54 L827.428 1494.63 L819.964 1502.09 L824.457 1506.58 Q824.813 1505.86 825.267 1505.23 Q825.709 1504.59 826.249 1504.05 Q829.318 1500.98 832.792 1500.87 Q836.267 1500.76 839.139 1503.64 Q842.098 1506.59 841.901 1510.08 Q841.693 1513.56 838.341 1516.91 Q837.187 1518.06 835.788 1519.07 Q834.401 1520.06 832.731 1520.95 L830.239 1518.45 Q831.945 1517.95 833.419 1517.07 Q834.892 1516.18 836.205 1514.87 Q838.329 1512.75 838.452 1510.39 Q838.575 1508.03 836.659 1506.12 Q834.744 1504.2 832.387 1504.32 Q830.03 1504.45 827.907 1506.57 Q826.912 1507.56 826.139 1508.78 Q825.378 1509.98 824.813 1511.48 L815.606 1502.27 Z" fill="#000000" fill-rule="nonzero" fill-opacity="1" /><path clip-path="url(#clip240)" d="M1042.47 1539.22 Q1040.55 1541.14 1041.47 1544 Q1042.39 1546.84 1046.17 1550.62 Q1049.94 1554.39 1052.79 1555.32 Q1055.64 1556.23 1057.55 1554.31 Q1059.48 1552.38 1058.56 1549.55 Q1057.64 1546.69 1053.87 1542.92 Q1050.09 1539.14 1047.24 1538.23 Q1044.39 1537.3 1042.47 1539.22 M1040.5 1537.26 Q1043.58 1534.18 1047.65 1535 Q1051.71 1535.8 1056.35 1540.44 Q1060.98 1545.07 1061.79 1549.14 Q1062.6 1553.19 1059.52 1556.28 Q1056.44 1559.36 1052.37 1558.56 Q1048.31 1557.74 1043.68 1553.11 Q1039.04 1548.47 1038.23 1544.42 Q1037.42 1540.34 1040.5 1537.26 Z" fill="#000000" fill-rule="nonzero" fill-opacity="1" /><path clip-path="url(#clip240)" d="M1066.73 1542.11 L1069.33 1539.52 L1072.44 1542.64 L1069.85 1545.23 L1066.73 1542.11 Z" fill="#000000" fill-rule="nonzero" fill-opacity="1" /><path clip-path="url(#clip240)" d="M1059.54 1518.88 L1069.28 1509.15 L1071.36 1511.24 L1063.9 1518.7 L1068.39 1523.19 Q1068.75 1522.47 1069.2 1521.84 Q1069.64 1521.2 1070.18 1520.66 Q1073.25 1517.59 1076.73 1517.48 Q1080.2 1517.37 1083.07 1520.25 Q1086.03 1523.2 1085.84 1526.69 Q1085.63 1530.17 1082.28 1533.52 Q1081.12 1534.67 1079.72 1535.68 Q1078.34 1536.67 1076.67 1537.56 L1074.17 1535.06 Q1075.88 1534.56 1077.35 1533.68 Q1078.83 1532.79 1080.14 1531.48 Q1082.26 1529.35 1082.39 1527 Q1082.51 1524.64 1080.59 1522.73 Q1078.68 1520.81 1076.32 1520.93 Q1073.97 1521.06 1071.84 1523.18 Q1070.85 1524.17 1070.07 1525.39 Q1069.31 1526.59 1068.75 1528.09 L1059.54 1518.88 Z" fill="#000000" fill-rule="nonzero" fill-opacity="1" /><path clip-path="url(#clip240)" d="M1089.3 1505.48 Q1087.63 1507.15 1087.79 1509.27 Q1087.96 1511.38 1089.95 1513.37 Q1091.93 1515.35 1094.05 1515.53 Q1096.17 1515.69 1097.84 1514.02 Q1099.51 1512.35 1099.34 1510.24 Q1099.17 1508.1 1097.19 1506.13 Q1095.2 1504.14 1093.08 1503.98 Q1090.97 1503.81 1089.3 1505.48 M1086.45 1492.78 L1088.71 1495.04 Q1087.33 1495.53 1086.14 1496.26 Q1084.96 1496.97 1084.03 1497.9 Q1081.58 1500.36 1081.93 1503.32 Q1082.3 1506.26 1085.47 1509.8 Q1085.12 1508.01 1085.65 1506.35 Q1086.17 1504.68 1087.48 1503.37 Q1090.24 1500.6 1093.52 1500.69 Q1096.8 1500.75 1099.68 1503.64 Q1102.51 1506.46 1102.54 1509.84 Q1102.58 1513.21 1099.81 1515.99 Q1096.63 1519.17 1092.51 1518.42 Q1088.39 1517.66 1083.76 1513.03 Q1079.42 1508.68 1078.9 1504.04 Q1078.37 1499.39 1081.85 1495.91 Q1082.78 1494.98 1083.91 1494.22 Q1085.05 1493.45 1086.45 1492.78 Z" fill="#000000" fill-rule="nonzero" fill-opacity="1" /><polyline clip-path="url(#clip240)" style="stroke:#000000; stroke-linecap:round; stroke-linejoin:round; stroke-width:4; stroke-opacity:1; fill:none" points="128.138,1467.41 128.138,897.552 "/>
<polyline clip-path="url(#clip240)" style="stroke:#000000; stroke-linecap:round; stroke-linejoin:round; stroke-width:4; stroke-opacity:1; fill:none" points="128.138,1467.41 147.035,1467.41 "/>
<polyline clip-path="url(#clip240)" style="stroke:#000000; stroke-linecap:round; stroke-linejoin:round; stroke-width:4; stroke-opacity:1; fill:none" points="128.138,1383.6 147.035,1383.6 "/>
<polyline clip-path="url(#clip240)" style="stroke:#000000; stroke-linecap:round; stroke-linejoin:round; stroke-width:4; stroke-opacity:1; fill:none" points="128.138,1299.8 147.035,1299.8 "/>
<polyline clip-path="url(#clip240)" style="stroke:#000000; stroke-linecap:round; stroke-linejoin:round; stroke-width:4; stroke-opacity:1; fill:none" points="128.138,1216 147.035,1216 "/>
<polyline clip-path="url(#clip240)" style="stroke:#000000; stroke-linecap:round; stroke-linejoin:round; stroke-width:4; stroke-opacity:1; fill:none" points="128.138,1132.2 147.035,1132.2 "/>
<polyline clip-path="url(#clip240)" style="stroke:#000000; stroke-linecap:round; stroke-linejoin:round; stroke-width:4; stroke-opacity:1; fill:none" points="128.138,1048.4 147.035,1048.4 "/>
<polyline clip-path="url(#clip240)" style="stroke:#000000; stroke-linecap:round; stroke-linejoin:round; stroke-width:4; stroke-opacity:1; fill:none" points="128.138,964.594 147.035,964.594 "/>
<path clip-path="url(#clip240)" d="M83.1795 1456.76 Q80.4711 1456.76 79.0996 1459.43 Q77.7455 1462.09 77.7455 1467.43 Q77.7455 1472.76 79.0996 1475.44 Q80.4711 1478.09 83.1795 1478.09 Q85.9051 1478.09 87.2593 1475.44 Q88.6308 1472.76 88.6308 1467.43 Q88.6308 1462.09 87.2593 1459.43 Q85.9051 1456.76 83.1795 1456.76 M83.1795 1453.98 Q87.5371 1453.98 89.8287 1457.43 Q92.1377 1460.87 92.1377 1467.43 Q92.1377 1473.98 89.8287 1477.43 Q87.5371 1480.87 83.1795 1480.87 Q78.8218 1480.87 76.5128 1477.43 Q74.2212 1473.98 74.2212 1467.43 Q74.2212 1460.87 76.5128 1457.43 Q78.8218 1453.98 83.1795 1453.98 Z" fill="#000000" fill-rule="nonzero" fill-opacity="1" /><path clip-path="url(#clip240)" d="M53.6657 1393.61 L59.3949 1393.61 L59.3949 1373.84 L53.1623 1375.09 L53.1623 1371.89 L59.3601 1370.64 L62.8671 1370.64 L62.8671 1393.61 L68.5962 1393.61 L68.5962 1396.56 L53.6657 1396.56 L53.6657 1393.61 Z" fill="#000000" fill-rule="nonzero" fill-opacity="1" /><path clip-path="url(#clip240)" d="M83.1795 1372.95 Q80.4711 1372.95 79.0996 1375.63 Q77.7455 1378.28 77.7455 1383.63 Q77.7455 1388.96 79.0996 1391.63 Q80.4711 1394.29 83.1795 1394.29 Q85.9051 1394.29 87.2593 1391.63 Q88.6308 1388.96 88.6308 1383.63 Q88.6308 1378.28 87.2593 1375.63 Q85.9051 1372.95 83.1795 1372.95 M83.1795 1370.18 Q87.5371 1370.18 89.8287 1373.63 Q92.1377 1377.07 92.1377 1383.63 Q92.1377 1390.18 89.8287 1393.63 Q87.5371 1397.07 83.1795 1397.07 Q78.8218 1397.07 76.5128 1393.63 Q74.2212 1390.18 74.2212 1383.63 Q74.2212 1377.07 76.5128 1373.63 Q78.8218 1370.18 83.1795 1370.18 Z" fill="#000000" fill-rule="nonzero" fill-opacity="1" /><path clip-path="url(#clip240)" d="M56.0789 1309.81 L68.3184 1309.81 L68.3184 1312.76 L51.8602 1312.76 L51.8602 1309.81 Q53.8567 1307.74 57.2942 1304.27 Q60.749 1300.78 61.6344 1299.78 Q63.3184 1297.88 63.9782 1296.58 Q64.6552 1295.26 64.6552 1293.99 Q64.6552 1291.93 63.1969 1290.63 Q61.756 1289.32 59.4296 1289.32 Q57.7803 1289.32 55.94 1289.9 Q54.1171 1290.47 52.0338 1291.63 L52.0338 1288.09 Q54.1518 1287.24 55.9921 1286.81 Q57.8324 1286.37 59.3601 1286.37 Q63.3879 1286.37 65.7837 1288.39 Q68.1795 1290.4 68.1795 1293.77 Q68.1795 1295.37 67.5719 1296.81 Q66.9816 1298.23 65.4018 1300.18 Q64.9677 1300.68 62.6414 1303.09 Q60.315 1305.49 56.0789 1309.81 Z" fill="#000000" fill-rule="nonzero" fill-opacity="1" /><path clip-path="url(#clip240)" d="M83.1795 1289.15 Q80.4711 1289.15 79.0996 1291.82 Q77.7455 1294.48 77.7455 1299.83 Q77.7455 1305.16 79.0996 1307.83 Q80.4711 1310.49 83.1795 1310.49 Q85.9051 1310.49 87.2593 1307.83 Q88.6308 1305.16 88.6308 1299.83 Q88.6308 1294.48 87.2593 1291.82 Q85.9051 1289.15 83.1795 1289.15 M83.1795 1286.37 Q87.5371 1286.37 89.8287 1289.83 Q92.1377 1293.27 92.1377 1299.83 Q92.1377 1306.37 89.8287 1309.83 Q87.5371 1313.27 83.1795 1313.27 Q78.8218 1313.27 76.5128 1309.83 Q74.2212 1306.37 74.2212 1299.83 Q74.2212 1293.27 76.5128 1289.83 Q78.8218 1286.37 83.1795 1286.37 Z" fill="#000000" fill-rule="nonzero" fill-opacity="1" /><path clip-path="url(#clip240)" d="M63.683 1214.98 Q66.2004 1215.52 67.6066 1217.22 Q69.0302 1218.93 69.0302 1221.43 Q69.0302 1225.26 66.3913 1227.36 Q63.7525 1229.46 58.8914 1229.46 Q57.2595 1229.46 55.5234 1229.13 Q53.8046 1228.82 51.9643 1228.18 L51.9643 1224.79 Q53.4227 1225.64 55.1588 1226.08 Q56.8949 1226.51 58.7872 1226.51 Q62.0858 1226.51 63.8046 1225.21 Q65.5407 1223.91 65.5407 1221.43 Q65.5407 1219.13 63.9261 1217.85 Q62.3289 1216.55 59.4643 1216.55 L56.4435 1216.55 L56.4435 1213.67 L59.6032 1213.67 Q62.19 1213.67 63.5615 1212.64 Q64.933 1211.6 64.933 1209.65 Q64.933 1207.66 63.5094 1206.6 Q62.1032 1205.52 59.4643 1205.52 Q58.0233 1205.52 56.374 1205.84 Q54.7247 1206.15 52.7456 1206.81 L52.7456 1203.68 Q54.7421 1203.13 56.4782 1202.85 Q58.2317 1202.57 59.7768 1202.57 Q63.7698 1202.57 66.0962 1204.39 Q68.4226 1206.2 68.4226 1209.29 Q68.4226 1211.44 67.19 1212.94 Q65.9573 1214.41 63.683 1214.98 Z" fill="#000000" fill-rule="nonzero" fill-opacity="1" /><path clip-path="url(#clip240)" d="M83.1795 1205.35 Q80.4711 1205.35 79.0996 1208.02 Q77.7455 1210.68 77.7455 1216.03 Q77.7455 1221.36 79.0996 1224.03 Q80.4711 1226.69 83.1795 1226.69 Q85.9051 1226.69 87.2593 1224.03 Q88.6308 1221.36 88.6308 1216.03 Q88.6308 1210.68 87.2593 1208.02 Q85.9051 1205.35 83.1795 1205.35 M83.1795 1202.57 Q87.5371 1202.57 89.8287 1206.03 Q92.1377 1209.46 92.1377 1216.03 Q92.1377 1222.57 89.8287 1226.03 Q87.5371 1229.46 83.1795 1229.46 Q78.8218 1229.46 76.5128 1226.03 Q74.2212 1222.57 74.2212 1216.03 Q74.2212 1209.46 76.5128 1206.03 Q78.8218 1202.57 83.1795 1202.57 Z" fill="#000000" fill-rule="nonzero" fill-opacity="1" /><path clip-path="url(#clip240)" d="M62.6935 1122.29 L53.8393 1136.13 L62.6935 1136.13 L62.6935 1122.29 M61.7733 1119.24 L66.183 1119.24 L66.183 1136.13 L69.8809 1136.13 L69.8809 1139.05 L66.183 1139.05 L66.183 1145.16 L62.6935 1145.16 L62.6935 1139.05 L50.9921 1139.05 L50.9921 1135.66 L61.7733 1119.24 Z" fill="#000000" fill-rule="nonzero" fill-opacity="1" /><path clip-path="url(#clip240)" d="M83.1795 1121.55 Q80.4711 1121.55 79.0996 1124.22 Q77.7455 1126.88 77.7455 1132.22 Q77.7455 1137.55 79.0996 1140.23 Q80.4711 1142.88 83.1795 1142.88 Q85.9051 1142.88 87.2593 1140.23 Q88.6308 1137.55 88.6308 1132.22 Q88.6308 1126.88 87.2593 1124.22 Q85.9051 1121.55 83.1795 1121.55 M83.1795 1118.77 Q87.5371 1118.77 89.8287 1122.22 Q92.1377 1125.66 92.1377 1132.22 Q92.1377 1138.77 89.8287 1142.22 Q87.5371 1145.66 83.1795 1145.66 Q78.8218 1145.66 76.5128 1142.22 Q74.2212 1138.77 74.2212 1132.22 Q74.2212 1125.66 76.5128 1122.22 Q78.8218 1118.77 83.1795 1118.77 Z" fill="#000000" fill-rule="nonzero" fill-opacity="1" /><path clip-path="url(#clip240)" d="M53.0928 1035.44 L66.8601 1035.44 L66.8601 1038.39 L56.3046 1038.39 L56.3046 1044.74 Q57.0685 1044.48 57.8324 1044.36 Q58.5963 1044.22 59.3601 1044.22 Q63.7004 1044.22 66.2351 1046.6 Q68.7698 1048.98 68.7698 1053.04 Q68.7698 1057.22 66.1657 1059.55 Q63.5615 1061.86 58.8219 1061.86 Q57.19 1061.86 55.4886 1061.58 Q53.8046 1061.3 51.9991 1060.75 L51.9991 1057.22 Q53.5616 1058.07 55.2282 1058.49 Q56.8949 1058.91 58.7525 1058.91 Q61.756 1058.91 63.5094 1057.33 Q65.2629 1055.75 65.2629 1053.04 Q65.2629 1050.33 63.5094 1048.75 Q61.756 1047.17 58.7525 1047.17 Q57.3463 1047.17 55.94 1047.48 Q54.5511 1047.8 53.0928 1048.46 L53.0928 1035.44 Z" fill="#000000" fill-rule="nonzero" fill-opacity="1" /><path clip-path="url(#clip240)" d="M83.1795 1037.74 Q80.4711 1037.74 79.0996 1040.42 Q77.7455 1043.07 77.7455 1048.42 Q77.7455 1053.75 79.0996 1056.43 Q80.4711 1059.08 83.1795 1059.08 Q85.9051 1059.08 87.2593 1056.43 Q88.6308 1053.75 88.6308 1048.42 Q88.6308 1043.07 87.2593 1040.42 Q85.9051 1037.74 83.1795 1037.74 M83.1795 1034.97 Q87.5371 1034.97 89.8287 1038.42 Q92.1377 1041.86 92.1377 1048.42 Q92.1377 1054.97 89.8287 1058.42 Q87.5371 1061.86 83.1795 1061.86 Q78.8218 1061.86 76.5128 1058.42 Q74.2212 1054.97 74.2212 1048.42 Q74.2212 1041.86 76.5128 1038.42 Q78.8218 1034.97 83.1795 1034.97 Z" fill="#000000" fill-rule="nonzero" fill-opacity="1" /><path clip-path="url(#clip240)" d="M60.9921 963.196 Q58.631 963.196 57.2421 964.811 Q55.8706 966.425 55.8706 969.238 Q55.8706 972.033 57.2421 973.665 Q58.631 975.28 60.9921 975.28 Q63.3532 975.28 64.7247 973.665 Q66.1136 972.033 66.1136 969.238 Q66.1136 966.425 64.7247 964.811 Q63.3532 963.196 60.9921 963.196 M67.9538 952.207 L67.9538 955.401 Q66.6344 954.776 65.2802 954.446 Q63.9434 954.116 62.624 954.116 Q59.1518 954.116 57.3115 956.46 Q55.4886 958.804 55.2282 963.543 Q56.2525 962.033 57.7976 961.234 Q59.3428 960.418 61.2004 960.418 Q65.1066 960.418 67.3636 962.797 Q69.6379 965.158 69.6379 969.238 Q69.6379 973.231 67.2768 975.644 Q64.9157 978.057 60.9921 978.057 Q56.4956 978.057 54.1171 974.62 Q51.7386 971.165 51.7386 964.62 Q51.7386 958.474 54.6553 954.828 Q57.572 951.165 62.4851 951.165 Q63.8046 951.165 65.1414 951.425 Q66.4955 951.686 67.9538 952.207 Z" fill="#000000" fill-rule="nonzero" fill-opacity="1" /><path clip-path="url(#clip240)" d="M83.1795 953.943 Q80.4711 953.943 79.0996 956.616 Q77.7455 959.273 77.7455 964.62 Q77.7455 969.95 79.0996 972.623 Q80.4711 975.28 83.1795 975.28 Q85.9051 975.28 87.2593 972.623 Q88.6308 969.95 88.6308 964.62 Q88.6308 959.273 87.2593 956.616 Q85.9051 953.943 83.1795 953.943 M83.1795 951.165 Q87.5371 951.165 89.8287 954.62 Q92.1377 958.057 92.1377 964.62 Q92.1377 971.165 89.8287 974.62 Q87.5371 978.057 83.1795 978.057 Q78.8218 978.057 76.5128 974.62 Q74.2212 971.165 74.2212 964.62 Q74.2212 958.057 76.5128 954.62 Q78.8218 951.165 83.1795 951.165 Z" fill="#000000" fill-rule="nonzero" fill-opacity="1" /><path clip-path="url(#clip240)" d="M140.036 818.926 Q136.517 818.926 134.619 821.472 Q132.628 824.134 132.628 828.532 Q132.628 833.185 134.596 835.87 Q136.587 838.532 140.036 838.532 Q143.439 838.532 145.429 835.847 Q147.42 833.162 147.42 828.532 Q147.42 824.296 145.429 821.472 Q143.601 818.926 140.036 818.926 M140.036 815.546 L154.179 815.546 L154.179 819.805 L149.411 819.805 Q151.934 823.417 151.934 828.532 Q151.934 834.898 148.763 838.509 Q145.591 842.143 140.036 842.143 Q134.457 842.143 131.309 838.509 Q128.138 834.898 128.138 828.532 Q128.138 822.12 131.309 818.532 Q133.925 815.546 140.036 815.546 Z" fill="#000000" fill-rule="nonzero" fill-opacity="1" /><path clip-path="url(#clip240)" d="M165.198 841.472 L157.281 815.546 L161.864 815.546 L168.554 837.305 Q171.332 834.435 173.647 830.454 Q175.406 827.467 175.499 824.875 Q175.545 823.648 174.989 821.333 Q174.341 818.579 171.888 815.546 L176.193 815.546 L176.193 815.546 Q177.79 817.606 178.855 820.477 Q179.827 823.116 179.827 824.921 Q179.827 829.458 176.679 833.509 Q172.582 838.787 169.735 841.472 L165.198 841.472 Z" fill="#000000" fill-rule="nonzero" fill-opacity="1" /><path clip-path="url(#clip244)" d="M184.494 1316.56 L184.494 1467.41 L314.766 1467.41 L314.766 1316.56 L184.494 1316.56 L184.494 1316.56  Z" fill="#009af9" fill-rule="evenodd" fill-opacity="1"/>
<polyline clip-path="url(#clip244)" style="stroke:#000000; stroke-linecap:round; stroke-linejoin:round; stroke-width:4; stroke-opacity:1; fill:none" points="184.494,1316.56 184.494,1467.41 314.766,1467.41 314.766,1316.56 184.494,1316.56 "/>
<path clip-path="url(#clip244)" d="M314.766 1366.84 L314.766 1467.41 L445.038 1467.41 L445.038 1366.84 L314.766 1366.84 L314.766 1366.84  Z" fill="#009af9" fill-rule="evenodd" fill-opacity="1"/>
<polyline clip-path="url(#clip244)" style="stroke:#000000; stroke-linecap:round; stroke-linejoin:round; stroke-width:4; stroke-opacity:1; fill:none" points="314.766,1366.84 314.766,1467.41 445.038,1467.41 445.038,1366.84 314.766,1366.84 "/>
<path clip-path="url(#clip244)" d="M445.038 1023.26 L445.038 1467.41 L575.311 1467.41 L575.311 1023.26 L445.038 1023.26 L445.038 1023.26  Z" fill="#009af9" fill-rule="evenodd" fill-opacity="1"/>
<polyline clip-path="url(#clip244)" style="stroke:#000000; stroke-linecap:round; stroke-linejoin:round; stroke-width:4; stroke-opacity:1; fill:none" points="445.038,1023.26 445.038,1467.41 575.311,1467.41 575.311,1023.26 445.038,1023.26 "/>
<path clip-path="url(#clip244)" d="M575.311 1090.3 L575.311 1467.41 L705.583 1467.41 L705.583 1090.3 L575.311 1090.3 L575.311 1090.3  Z" fill="#009af9" fill-rule="evenodd" fill-opacity="1"/>
<polyline clip-path="url(#clip244)" style="stroke:#000000; stroke-linecap:round; stroke-linejoin:round; stroke-width:4; stroke-opacity:1; fill:none" points="575.311,1090.3 575.311,1467.41 705.583,1467.41 705.583,1090.3 575.311,1090.3 "/>
<path clip-path="url(#clip244)" d="M705.583 897.552 L705.583 1467.41 L835.855 1467.41 L835.855 897.552 L705.583 897.552 L705.583 897.552  Z" fill="#009af9" fill-rule="evenodd" fill-opacity="1"/>
<polyline clip-path="url(#clip244)" style="stroke:#000000; stroke-linecap:round; stroke-linejoin:round; stroke-width:4; stroke-opacity:1; fill:none" points="705.583,897.552 705.583,1467.41 835.855,1467.41 835.855,897.552 705.583,897.552 "/>
<path clip-path="url(#clip244)" d="M835.855 1291.42 L835.855 1467.41 L966.128 1467.41 L966.128 1291.42 L835.855 1291.42 L835.855 1291.42  Z" fill="#009af9" fill-rule="evenodd" fill-opacity="1"/>
<polyline clip-path="url(#clip244)" style="stroke:#000000; stroke-linecap:round; stroke-linejoin:round; stroke-width:4; stroke-opacity:1; fill:none" points="835.855,1291.42 835.855,1467.41 966.128,1467.41 966.128,1291.42 835.855,1291.42 "/>
<path clip-path="url(#clip244)" d="M966.128 1433.89 L966.128 1467.41 L1096.4 1467.41 L1096.4 1433.89 L966.128 1433.89 L966.128 1433.89  Z" fill="#009af9" fill-rule="evenodd" fill-opacity="1"/>
<polyline clip-path="url(#clip244)" style="stroke:#000000; stroke-linecap:round; stroke-linejoin:round; stroke-width:4; stroke-opacity:1; fill:none" points="966.128,1433.89 966.128,1467.41 1096.4,1467.41 1096.4,1433.89 966.128,1433.89 "/>
<circle clip-path="url(#clip244)" style="fill:#009af9; stroke:none; fill-opacity:0" cx="249.63" cy="1316.56" r="2"/>
<circle clip-path="url(#clip244)" style="fill:#009af9; stroke:none; fill-opacity:0" cx="379.902" cy="1366.84" r="2"/>
<circle clip-path="url(#clip244)" style="fill:#009af9; stroke:none; fill-opacity:0" cx="510.174" cy="1023.26" r="2"/>
<circle clip-path="url(#clip244)" style="fill:#009af9; stroke:none; fill-opacity:0" cx="640.447" cy="1090.3" r="2"/>
<circle clip-path="url(#clip244)" style="fill:#009af9; stroke:none; fill-opacity:0" cx="770.719" cy="897.552" r="2"/>
<circle clip-path="url(#clip244)" style="fill:#009af9; stroke:none; fill-opacity:0" cx="900.992" cy="1291.42" r="2"/>
<circle clip-path="url(#clip244)" style="fill:#009af9; stroke:none; fill-opacity:0" cx="1031.26" cy="1433.89" r="2"/>
<polyline clip-path="url(#clip244)" style="stroke:#ff0000; stroke-linecap:round; stroke-linejoin:round; stroke-width:8; stroke-opacity:1; fill:none" stroke-dasharray="32, 20" points="636.139,2037.26 636.139,327.698 "/>
<polyline clip-path="url(#clip244)" style="stroke:#ff0000; stroke-linecap:round; stroke-linejoin:round; stroke-width:6; stroke-opacity:1; fill:none" stroke-dasharray="24, 12, 3, 12" points="274.219,2037.26 274.219,327.698 "/>
<polyline clip-path="url(#clip244)" style="stroke:#ff0000; stroke-linecap:round; stroke-linejoin:round; stroke-width:6; stroke-opacity:1; fill:none" stroke-dasharray="24, 12, 3, 12" points="965.852,2037.26 965.852,327.698 "/>
</svg>
