<?xml version="1.0" encoding="utf-8"?>
<svg xmlns="http://www.w3.org/2000/svg" xmlns:xlink="http://www.w3.org/1999/xlink" width="600" height="400" viewBox="0 0 2400 1600">
<defs>
  <clipPath id="clip150">
    <rect x="0" y="0" width="2400" height="1600"/>
  </clipPath>
</defs>
<path clip-path="url(#clip150)" d="M0 1600 L2400 1600 L2400 0 L0 0  Z" fill="#ffffff" fill-rule="evenodd" fill-opacity="1"/>
<defs>
  <clipPath id="clip151">
    <rect x="480" y="0" width="1681" height="1600"/>
  </clipPath>
</defs>
<path clip-path="url(#clip150)" d="M161.818 667.406 L1152.94 667.406 L1152.94 97.5521 L161.818 97.5521  Z" fill="#ffffff" fill-rule="evenodd" fill-opacity="1"/>
<defs>
  <clipPath id="clip152">
    <rect x="161" y="97" width="992" height="571"/>
  </clipPath>
</defs>
<polyline clip-path="url(#clip152)" style="stroke:#000000; stroke-linecap:round; stroke-linejoin:round; stroke-width:2; stroke-opacity:0.1; fill:none" points="187.643,667.406 187.643,97.5521 "/>
<polyline clip-path="url(#clip152)" style="stroke:#000000; stroke-linecap:round; stroke-linejoin:round; stroke-width:2; stroke-opacity:0.1; fill:none" points="450.478,667.406 450.478,97.5521 "/>
<polyline clip-path="url(#clip152)" style="stroke:#000000; stroke-linecap:round; stroke-linejoin:round; stroke-width:2; stroke-opacity:0.1; fill:none" points="713.313,667.406 713.313,97.5521 "/>
<polyline clip-path="url(#clip152)" style="stroke:#000000; stroke-linecap:round; stroke-linejoin:round; stroke-width:2; stroke-opacity:0.1; fill:none" points="976.148,667.406 976.148,97.5521 "/>
<polyline clip-path="url(#clip152)" style="stroke:#000000; stroke-linecap:round; stroke-linejoin:round; stroke-width:2; stroke-opacity:0.1; fill:none" points="161.818,651.278 1152.94,651.278 "/>
<polyline clip-path="url(#clip152)" style="stroke:#000000; stroke-linecap:round; stroke-linejoin:round; stroke-width:2; stroke-opacity:0.1; fill:none" points="161.818,517.915 1152.94,517.915 "/>
<polyline clip-path="url(#clip152)" style="stroke:#000000; stroke-linecap:round; stroke-linejoin:round; stroke-width:2; stroke-opacity:0.1; fill:none" points="161.818,384.552 1152.94,384.552 "/>
<polyline clip-path="url(#clip152)" style="stroke:#000000; stroke-linecap:round; stroke-linejoin:round; stroke-width:2; stroke-opacity:0.1; fill:none" points="161.818,251.189 1152.94,251.189 "/>
<polyline clip-path="url(#clip152)" style="stroke:#000000; stroke-linecap:round; stroke-linejoin:round; stroke-width:2; stroke-opacity:0.1; fill:none" points="161.818,117.826 1152.94,117.826 "/>
<polyline clip-path="url(#clip150)" style="stroke:#000000; stroke-linecap:round; stroke-linejoin:round; stroke-width:4; stroke-opacity:1; fill:none" points="161.818,667.406 1152.94,667.406 "/>
<polyline clip-path="url(#clip150)" style="stroke:#000000; stroke-linecap:round; stroke-linejoin:round; stroke-width:4; stroke-opacity:1; fill:none" points="187.643,667.406 187.643,648.509 "/>
<polyline clip-path="url(#clip150)" style="stroke:#000000; stroke-linecap:round; stroke-linejoin:round; stroke-width:4; stroke-opacity:1; fill:none" points="450.478,667.406 450.478,648.509 "/>
<polyline clip-path="url(#clip150)" style="stroke:#000000; stroke-linecap:round; stroke-linejoin:round; stroke-width:4; stroke-opacity:1; fill:none" points="713.313,667.406 713.313,648.509 "/>
<polyline clip-path="url(#clip150)" style="stroke:#000000; stroke-linecap:round; stroke-linejoin:round; stroke-width:4; stroke-opacity:1; fill:none" points="976.148,667.406 976.148,648.509 "/>
<path clip-path="url(#clip150)" d="M133.794 739.139 Q131.879 741.054 132.8 743.914 Q133.72 746.75 137.501 750.531 Q141.27 754.3 144.118 755.233 Q146.966 756.141 148.881 754.226 Q150.809 752.299 149.888 749.463 Q148.967 746.603 145.199 742.834 Q141.417 739.053 138.569 738.144 Q135.721 737.211 133.794 739.139 M131.83 737.175 Q134.911 734.093 138.975 734.916 Q143.038 735.714 147.678 740.354 Q152.306 744.982 153.117 749.058 Q153.927 753.109 150.846 756.19 Q147.764 759.272 143.701 758.474 Q139.637 757.651 135.009 753.023 Q130.369 748.383 129.559 744.332 Q128.749 740.256 131.83 737.175 Z" fill="#000000" fill-rule="nonzero" fill-opacity="1" /><path clip-path="url(#clip150)" d="M158.064 742.024 L160.654 739.433 L163.772 742.552 L161.182 745.142 L158.064 742.024 Z" fill="#000000" fill-rule="nonzero" fill-opacity="1" /><path clip-path="url(#clip150)" d="M165.773 723.143 Q164.005 724.911 163.932 726.875 Q163.87 728.827 165.528 730.484 Q167.185 732.141 169.137 732.08 Q171.101 732.006 172.869 730.239 Q174.637 728.471 174.71 726.507 Q174.772 724.53 173.127 722.885 Q171.469 721.228 169.505 721.302 Q167.553 721.363 165.773 723.143 M162.238 724.567 Q160.249 725.77 158.26 725.574 Q156.284 725.365 154.712 723.794 Q152.515 721.596 152.797 718.761 Q153.092 715.912 155.817 713.187 Q158.555 710.45 161.391 710.167 Q164.226 709.885 166.424 712.082 Q167.995 713.654 168.192 715.642 Q168.4 717.619 167.21 719.595 Q169.419 718.22 171.629 718.441 Q173.851 718.65 175.606 720.406 Q178.27 723.069 178.062 726.126 Q177.865 729.171 174.833 732.203 Q171.801 735.235 168.744 735.444 Q165.7 735.64 163.036 732.976 Q161.28 731.221 161.072 728.999 Q160.863 726.777 162.238 724.567 M157.413 721.559 Q158.837 722.983 160.519 722.898 Q162.213 722.799 163.821 721.191 Q165.417 719.595 165.515 717.901 Q165.626 716.195 164.202 714.771 Q162.778 713.347 161.072 713.457 Q159.377 713.555 157.782 715.151 Q156.173 716.76 156.075 718.454 Q155.989 720.135 157.413 721.559 Z" fill="#000000" fill-rule="nonzero" fill-opacity="1" /><path clip-path="url(#clip150)" d="M173.777 699.156 Q171.862 701.071 172.783 703.931 Q173.704 706.767 177.485 710.548 Q181.253 714.317 184.101 715.25 Q186.95 716.158 188.865 714.243 Q190.792 712.316 189.871 709.48 Q188.951 706.619 185.182 702.851 Q181.401 699.07 178.553 698.161 Q175.705 697.228 173.777 699.156 M171.813 697.191 Q174.894 694.11 178.958 694.933 Q183.021 695.731 187.662 700.371 Q192.29 704.999 193.1 709.075 Q193.91 713.126 190.829 716.207 Q187.747 719.288 183.684 718.49 Q179.621 717.668 174.993 713.04 Q170.352 708.399 169.542 704.348 Q168.732 700.273 171.813 697.191 Z" fill="#000000" fill-rule="nonzero" fill-opacity="1" /><path clip-path="url(#clip150)" d="M397.157 738.611 Q395.242 740.526 396.163 743.386 Q397.083 746.222 400.864 750.003 Q404.633 753.772 407.481 754.705 Q410.329 755.613 412.244 753.698 Q414.172 751.771 413.251 748.935 Q412.33 746.075 408.561 742.306 Q404.78 738.525 401.932 737.617 Q399.084 736.684 397.157 738.611 M395.193 736.647 Q398.274 733.565 402.337 734.388 Q406.401 735.186 411.041 739.826 Q415.669 744.454 416.479 748.53 Q417.29 752.581 414.208 755.662 Q411.127 758.744 407.064 757.946 Q403 757.123 398.372 752.495 Q393.732 747.855 392.922 743.804 Q392.111 739.728 395.193 736.647 Z" fill="#000000" fill-rule="nonzero" fill-opacity="1" /><path clip-path="url(#clip150)" d="M421.427 741.496 L424.017 738.906 L427.135 742.024 L424.545 744.614 L421.427 741.496 Z" fill="#000000" fill-rule="nonzero" fill-opacity="1" /><path clip-path="url(#clip150)" d="M429.136 722.615 Q427.368 724.383 427.295 726.347 Q427.233 728.299 428.891 729.956 Q430.548 731.614 432.5 731.552 Q434.464 731.479 436.232 729.711 Q437.999 727.943 438.073 725.979 Q438.134 724.002 436.489 722.357 Q434.832 720.7 432.868 720.774 Q430.916 720.835 429.136 722.615 M425.601 724.039 Q423.612 725.242 421.623 725.046 Q419.647 724.837 418.075 723.266 Q415.878 721.068 416.16 718.233 Q416.455 715.385 419.18 712.659 Q421.918 709.922 424.754 709.639 Q427.589 709.357 429.787 711.554 Q431.358 713.126 431.555 715.115 Q431.763 717.091 430.572 719.067 Q432.782 717.692 434.992 717.913 Q437.214 718.122 438.969 719.878 Q441.633 722.542 441.424 725.598 Q441.228 728.643 438.196 731.675 Q435.164 734.707 432.107 734.916 Q429.062 735.112 426.399 732.448 Q424.643 730.693 424.434 728.471 Q424.226 726.249 425.601 724.039 M420.776 721.032 Q422.2 722.456 423.882 722.37 Q425.576 722.271 427.184 720.663 Q428.78 719.067 428.878 717.373 Q428.989 715.667 427.565 714.243 Q426.141 712.819 424.434 712.929 Q422.74 713.028 421.144 714.623 Q419.536 716.232 419.438 717.926 Q419.352 719.608 420.776 721.032 Z" fill="#000000" fill-rule="nonzero" fill-opacity="1" /><path clip-path="url(#clip150)" d="M430.229 702.274 L439.964 692.539 L442.051 694.626 L434.587 702.09 L439.08 706.583 Q439.436 705.858 439.89 705.232 Q440.332 704.594 440.872 704.054 Q443.941 700.985 447.415 700.874 Q450.889 700.764 453.762 703.636 Q456.72 706.595 456.524 710.081 Q456.315 713.555 452.964 716.907 Q451.81 718.061 450.411 719.067 Q449.023 720.062 447.354 720.946 L444.862 718.454 Q446.568 717.95 448.041 717.066 Q449.514 716.183 450.828 714.869 Q452.952 712.745 453.074 710.388 Q453.197 708.031 451.282 706.116 Q449.367 704.201 447.01 704.324 Q444.653 704.447 442.529 706.57 Q441.535 707.565 440.762 708.78 Q440 709.983 439.436 711.481 L430.229 702.274 Z" fill="#000000" fill-rule="nonzero" fill-opacity="1" /><path clip-path="url(#clip150)" d="M659.464 739.139 Q657.549 741.054 658.47 743.914 Q659.39 746.75 663.171 750.531 Q666.94 754.3 669.788 755.233 Q672.636 756.141 674.551 754.226 Q676.479 752.299 675.558 749.463 Q674.637 746.603 670.868 742.834 Q667.087 739.053 664.239 738.144 Q661.391 737.211 659.464 739.139 M657.5 737.175 Q660.581 734.093 664.645 734.916 Q668.708 735.714 673.348 740.354 Q677.976 744.982 678.787 749.058 Q679.597 753.109 676.515 756.19 Q673.434 759.272 669.371 758.474 Q665.307 757.651 660.679 753.023 Q656.039 748.383 655.229 744.332 Q654.419 740.256 657.5 737.175 Z" fill="#000000" fill-rule="nonzero" fill-opacity="1" /><path clip-path="url(#clip150)" d="M683.734 742.024 L686.324 739.433 L689.442 742.552 L686.852 745.142 L683.734 742.024 Z" fill="#000000" fill-rule="nonzero" fill-opacity="1" /><path clip-path="url(#clip150)" d="M694.537 736.696 L692.278 734.437 Q693.653 733.946 694.844 733.222 Q696.034 732.497 696.955 731.577 Q699.41 729.122 699.054 726.188 Q698.698 723.229 695.519 719.681 Q695.863 721.449 695.335 723.106 Q694.807 724.764 693.481 726.089 Q690.731 728.839 687.466 728.79 Q684.2 728.716 681.315 725.832 Q678.492 723.008 678.455 719.632 Q678.418 716.256 681.193 713.482 Q684.372 710.302 688.485 711.076 Q692.597 711.825 697.238 716.465 Q701.571 720.798 702.099 725.451 Q702.627 730.079 699.153 733.553 Q698.22 734.486 697.078 735.26 Q695.936 736.033 694.537 736.696 M691.701 723.99 Q693.371 722.321 693.199 720.209 Q693.039 718.085 691.05 716.097 Q689.074 714.12 686.95 713.961 Q684.826 713.776 683.157 715.446 Q681.487 717.116 681.659 719.252 Q681.831 721.363 683.807 723.339 Q685.796 725.328 687.908 725.5 Q690.031 725.66 691.701 723.99 Z" fill="#000000" fill-rule="nonzero" fill-opacity="1" /><path clip-path="url(#clip150)" d="M699.447 699.156 Q697.532 701.071 698.453 703.931 Q699.374 706.767 703.155 710.548 Q706.923 714.317 709.771 715.25 Q712.619 716.158 714.535 714.243 Q716.462 712.316 715.541 709.48 Q714.62 706.619 710.852 702.851 Q707.071 699.07 704.223 698.161 Q701.375 697.228 699.447 699.156 M697.483 697.191 Q700.564 694.11 704.628 694.933 Q708.691 695.731 713.331 700.371 Q717.96 704.999 718.77 709.075 Q719.58 713.126 716.499 716.207 Q713.417 719.288 709.354 718.49 Q705.291 717.668 700.663 713.04 Q696.022 708.399 695.212 704.348 Q694.402 700.273 697.483 697.191 Z" fill="#000000" fill-rule="nonzero" fill-opacity="1" /><path clip-path="url(#clip150)" d="M922.827 738.611 Q920.912 740.526 921.832 743.386 Q922.753 746.222 926.534 750.003 Q930.303 753.772 933.151 754.705 Q935.999 755.613 937.914 753.698 Q939.842 751.771 938.921 748.935 Q938 746.075 934.231 742.306 Q930.45 738.525 927.602 737.617 Q924.754 736.684 922.827 738.611 M920.863 736.647 Q923.944 733.565 928.007 734.388 Q932.071 735.186 936.711 739.826 Q941.339 744.454 942.149 748.53 Q942.96 752.581 939.878 755.662 Q936.797 758.744 932.734 757.946 Q928.67 757.123 924.042 752.495 Q919.402 747.855 918.592 743.804 Q917.781 739.728 920.863 736.647 Z" fill="#000000" fill-rule="nonzero" fill-opacity="1" /><path clip-path="url(#clip150)" d="M947.097 741.496 L949.687 738.906 L952.805 742.024 L950.215 744.614 L947.097 741.496 Z" fill="#000000" fill-rule="nonzero" fill-opacity="1" /><path clip-path="url(#clip150)" d="M957.9 736.168 L955.641 733.909 Q957.016 733.418 958.207 732.694 Q959.397 731.97 960.318 731.049 Q962.773 728.594 962.417 725.66 Q962.061 722.701 958.882 719.153 Q959.225 720.921 958.698 722.578 Q958.17 724.236 956.844 725.561 Q954.094 728.311 950.829 728.262 Q947.563 728.189 944.678 725.304 Q941.855 722.48 941.818 719.104 Q941.781 715.728 944.556 712.954 Q947.735 709.774 951.848 710.548 Q955.96 711.297 960.6 715.937 Q964.934 720.27 965.462 724.923 Q965.99 729.551 962.515 733.025 Q961.582 733.958 960.441 734.732 Q959.299 735.505 957.9 736.168 M955.064 723.462 Q956.733 721.793 956.562 719.681 Q956.402 717.557 954.413 715.569 Q952.437 713.592 950.313 713.433 Q948.189 713.249 946.52 714.918 Q944.85 716.588 945.022 718.724 Q945.194 720.835 947.17 722.812 Q949.159 724.8 951.271 724.972 Q953.394 725.132 955.064 723.462 Z" fill="#000000" fill-rule="nonzero" fill-opacity="1" /><path clip-path="url(#clip150)" d="M955.899 702.274 L965.634 692.539 L967.721 694.626 L960.257 702.09 L964.75 706.583 Q965.106 705.858 965.56 705.232 Q966.002 704.594 966.542 704.054 Q969.611 700.985 973.085 700.874 Q976.559 700.764 979.432 703.636 Q982.39 706.595 982.194 710.081 Q981.985 713.555 978.634 716.907 Q977.48 718.061 976.081 719.067 Q974.693 720.062 973.024 720.946 L970.532 718.454 Q972.238 717.95 973.711 717.066 Q975.184 716.183 976.498 714.869 Q978.622 712.745 978.744 710.388 Q978.867 708.031 976.952 706.116 Q975.037 704.201 972.68 704.324 Q970.323 704.447 968.199 706.57 Q967.205 707.565 966.432 708.78 Q965.67 709.983 965.106 711.481 L955.899 702.274 Z" fill="#000000" fill-rule="nonzero" fill-opacity="1" /><polyline clip-path="url(#clip150)" style="stroke:#000000; stroke-linecap:round; stroke-linejoin:round; stroke-width:4; stroke-opacity:1; fill:none" points="161.818,667.406 161.818,97.5521 "/>
<polyline clip-path="url(#clip150)" style="stroke:#000000; stroke-linecap:round; stroke-linejoin:round; stroke-width:4; stroke-opacity:1; fill:none" points="161.818,651.278 180.716,651.278 "/>
<polyline clip-path="url(#clip150)" style="stroke:#000000; stroke-linecap:round; stroke-linejoin:round; stroke-width:4; stroke-opacity:1; fill:none" points="161.818,517.915 180.716,517.915 "/>
<polyline clip-path="url(#clip150)" style="stroke:#000000; stroke-linecap:round; stroke-linejoin:round; stroke-width:4; stroke-opacity:1; fill:none" points="161.818,384.552 180.716,384.552 "/>
<polyline clip-path="url(#clip150)" style="stroke:#000000; stroke-linecap:round; stroke-linejoin:round; stroke-width:4; stroke-opacity:1; fill:none" points="161.818,251.189 180.716,251.189 "/>
<polyline clip-path="url(#clip150)" style="stroke:#000000; stroke-linecap:round; stroke-linejoin:round; stroke-width:4; stroke-opacity:1; fill:none" points="161.818,117.826 180.716,117.826 "/>
<path clip-path="url(#clip150)" d="M116.86 640.627 Q114.152 640.627 112.78 643.301 Q111.426 645.957 111.426 651.304 Q111.426 656.634 112.78 659.308 Q114.152 661.964 116.86 661.964 Q119.586 661.964 120.94 659.308 Q122.311 656.634 122.311 651.304 Q122.311 645.957 120.94 643.301 Q119.586 640.627 116.86 640.627 M116.86 637.85 Q121.217 637.85 123.509 641.305 Q125.818 644.742 125.818 651.304 Q125.818 657.85 123.509 661.304 Q121.217 664.742 116.86 664.742 Q112.502 664.742 110.193 661.304 Q107.902 657.85 107.902 651.304 Q107.902 644.742 110.193 641.305 Q112.502 637.85 116.86 637.85 Z" fill="#000000" fill-rule="nonzero" fill-opacity="1" /><path clip-path="url(#clip150)" d="M110.888 527.924 L116.617 527.924 L116.617 508.15 L110.384 509.4 L110.384 506.205 L116.582 504.955 L120.089 504.955 L120.089 527.924 L125.818 527.924 L125.818 530.875 L110.888 530.875 L110.888 527.924 Z" fill="#000000" fill-rule="nonzero" fill-opacity="1" /><path clip-path="url(#clip150)" d="M113.579 394.561 L125.818 394.561 L125.818 397.512 L109.36 397.512 L109.36 394.561 Q111.356 392.495 114.794 389.022 Q118.249 385.533 119.134 384.526 Q120.818 382.634 121.478 381.331 Q122.155 380.012 122.155 378.745 Q122.155 376.679 120.697 375.377 Q119.256 374.075 116.929 374.075 Q115.28 374.075 113.44 374.647 Q111.617 375.22 109.533 376.384 L109.533 372.842 Q111.652 371.991 113.492 371.557 Q115.332 371.123 116.86 371.123 Q120.888 371.123 123.283 373.137 Q125.679 375.151 125.679 378.519 Q125.679 380.116 125.072 381.557 Q124.481 382.981 122.901 384.925 Q122.467 385.429 120.141 387.842 Q117.815 390.238 113.579 394.561 Z" fill="#000000" fill-rule="nonzero" fill-opacity="1" /><path clip-path="url(#clip150)" d="M120.471 250.173 Q122.988 250.711 124.395 252.413 Q125.818 254.114 125.818 256.614 Q125.818 260.451 123.179 262.552 Q120.54 264.652 115.679 264.652 Q114.047 264.652 112.311 264.322 Q110.593 264.01 108.752 263.367 L108.752 259.982 Q110.211 260.833 111.947 261.267 Q113.683 261.701 115.575 261.701 Q118.874 261.701 120.592 260.399 Q122.329 259.097 122.329 256.614 Q122.329 254.322 120.714 253.038 Q119.117 251.736 116.252 251.736 L113.231 251.736 L113.231 248.854 L116.391 248.854 Q118.978 248.854 120.349 247.829 Q121.721 246.788 121.721 244.843 Q121.721 242.847 120.297 241.788 Q118.891 240.711 116.252 240.711 Q114.811 240.711 113.162 241.024 Q111.513 241.336 109.533 241.996 L109.533 238.871 Q111.53 238.316 113.266 238.038 Q115.02 237.76 116.565 237.76 Q120.558 237.76 122.884 239.583 Q125.21 241.388 125.21 244.479 Q125.21 246.631 123.978 248.125 Q122.745 249.6 120.471 250.173 Z" fill="#000000" fill-rule="nonzero" fill-opacity="1" /><path clip-path="url(#clip150)" d="M118.631 107.921 L109.777 121.758 L118.631 121.758 L118.631 107.921 M117.711 104.866 L122.12 104.866 L122.12 121.758 L125.818 121.758 L125.818 124.674 L122.12 124.674 L122.12 130.786 L118.631 130.786 L118.631 124.674 L106.929 124.674 L106.929 121.289 L117.711 104.866 Z" fill="#000000" fill-rule="nonzero" fill-opacity="1" /><path clip-path="url(#clip150)" d="M163.901 20.1758 Q165.313 17.8147 168.809 15.7314 Q170.175 14.9212 174.387 14.9212 Q179.11 14.9212 182.049 18.6712 Q185.012 22.4212 185.012 28.5323 Q185.012 34.6433 182.049 38.3933 Q179.11 42.1433 174.387 42.1433 Q171.54 42.1433 169.48 41.0322 Q167.443 39.8979 166.1 37.5831 L166.1 51.3331 L161.818 51.3331 L161.818 28.7637 Q161.818 23.4165 163.901 20.1758 M180.591 28.5323 Q180.591 23.8332 178.647 21.1712 Q176.725 18.486 173.346 18.486 Q169.966 18.486 168.022 21.1712 Q166.1 23.8332 166.1 28.5323 Q166.1 33.2313 168.022 35.9165 Q169.966 38.5785 173.346 38.5785 Q176.725 38.5785 178.647 35.9165 Q180.591 33.2313 180.591 28.5323 Z" fill="#000000" fill-rule="nonzero" fill-opacity="1" /><polyline clip-path="url(#clip152)" style="stroke:#009af9; stroke-linecap:round; stroke-linejoin:round; stroke-width:4; stroke-opacity:1; fill:none" points="189.869,592.769 248.307,597.059 306.746,601.888 365.185,607.365 423.623,613.628 482.062,620.859 540.501,629.301 598.939,639.286 657.378,651.278 715.817,636.607 774.256,618.246 832.694,594.603 891.133,563.012 949.572,518.648 1008.01,451.789 1066.45,339.559 1124.89,113.68 "/>
<circle clip-path="url(#clip152)" cx="657.378" cy="651.278" r="10.8" fill="#ff0000" fill-rule="evenodd" fill-opacity="1" stroke="#000000" stroke-opacity="1" stroke-width="3.2"/>
<path clip-path="url(#clip150)" d="M1361.64 667.406 L2352.76 667.406 L2352.76 97.5521 L1361.64 97.5521  Z" fill="#ffffff" fill-rule="evenodd" fill-opacity="1"/>
<defs>
  <clipPath id="clip153">
    <rect x="1361" y="97" width="992" height="571"/>
  </clipPath>
</defs>
<polyline clip-path="url(#clip153)" style="stroke:#000000; stroke-linecap:round; stroke-linejoin:round; stroke-width:2; stroke-opacity:0.1; fill:none" points="1492.37,667.406 1492.37,97.5521 "/>
<polyline clip-path="url(#clip153)" style="stroke:#000000; stroke-linecap:round; stroke-linejoin:round; stroke-width:2; stroke-opacity:0.1; fill:none" points="1636.05,667.406 1636.05,97.5521 "/>
<polyline clip-path="url(#clip153)" style="stroke:#000000; stroke-linecap:round; stroke-linejoin:round; stroke-width:2; stroke-opacity:0.1; fill:none" points="1779.73,667.406 1779.73,97.5521 "/>
<polyline clip-path="url(#clip153)" style="stroke:#000000; stroke-linecap:round; stroke-linejoin:round; stroke-width:2; stroke-opacity:0.1; fill:none" points="1923.4,667.406 1923.4,97.5521 "/>
<polyline clip-path="url(#clip153)" style="stroke:#000000; stroke-linecap:round; stroke-linejoin:round; stroke-width:2; stroke-opacity:0.1; fill:none" points="2067.08,667.406 2067.08,97.5521 "/>
<polyline clip-path="url(#clip153)" style="stroke:#000000; stroke-linecap:round; stroke-linejoin:round; stroke-width:2; stroke-opacity:0.1; fill:none" points="2210.75,667.406 2210.75,97.5521 "/>
<polyline clip-path="url(#clip153)" style="stroke:#000000; stroke-linecap:round; stroke-linejoin:round; stroke-width:2; stroke-opacity:0.1; fill:none" points="1361.64,651.278 2352.76,651.278 "/>
<polyline clip-path="url(#clip153)" style="stroke:#000000; stroke-linecap:round; stroke-linejoin:round; stroke-width:2; stroke-opacity:0.1; fill:none" points="1361.64,508.123 2352.76,508.123 "/>
<polyline clip-path="url(#clip153)" style="stroke:#000000; stroke-linecap:round; stroke-linejoin:round; stroke-width:2; stroke-opacity:0.1; fill:none" points="1361.64,364.967 2352.76,364.967 "/>
<polyline clip-path="url(#clip153)" style="stroke:#000000; stroke-linecap:round; stroke-linejoin:round; stroke-width:2; stroke-opacity:0.1; fill:none" points="1361.64,221.811 2352.76,221.811 "/>
<polyline clip-path="url(#clip150)" style="stroke:#000000; stroke-linecap:round; stroke-linejoin:round; stroke-width:4; stroke-opacity:1; fill:none" points="1361.64,667.406 2352.76,667.406 "/>
<polyline clip-path="url(#clip150)" style="stroke:#000000; stroke-linecap:round; stroke-linejoin:round; stroke-width:4; stroke-opacity:1; fill:none" points="1492.37,667.406 1492.37,648.509 "/>
<polyline clip-path="url(#clip150)" style="stroke:#000000; stroke-linecap:round; stroke-linejoin:round; stroke-width:4; stroke-opacity:1; fill:none" points="1636.05,667.406 1636.05,648.509 "/>
<polyline clip-path="url(#clip150)" style="stroke:#000000; stroke-linecap:round; stroke-linejoin:round; stroke-width:4; stroke-opacity:1; fill:none" points="1779.73,667.406 1779.73,648.509 "/>
<polyline clip-path="url(#clip150)" style="stroke:#000000; stroke-linecap:round; stroke-linejoin:round; stroke-width:4; stroke-opacity:1; fill:none" points="1923.4,667.406 1923.4,648.509 "/>
<polyline clip-path="url(#clip150)" style="stroke:#000000; stroke-linecap:round; stroke-linejoin:round; stroke-width:4; stroke-opacity:1; fill:none" points="2067.08,667.406 2067.08,648.509 "/>
<polyline clip-path="url(#clip150)" style="stroke:#000000; stroke-linecap:round; stroke-linejoin:round; stroke-width:4; stroke-opacity:1; fill:none" points="2210.75,667.406 2210.75,648.509 "/>
<path clip-path="url(#clip150)" d="M1438.53 739.139 Q1436.61 741.054 1437.53 743.914 Q1438.45 746.75 1442.23 750.531 Q1446 754.3 1448.85 755.233 Q1451.7 756.141 1453.61 754.226 Q1455.54 752.299 1454.62 749.463 Q1453.7 746.603 1449.93 742.834 Q1446.15 739.053 1443.3 738.144 Q1440.45 737.211 1438.53 739.139 M1436.56 737.175 Q1439.64 734.093 1443.71 734.916 Q1447.77 735.714 1452.41 740.354 Q1457.04 744.982 1457.85 749.058 Q1458.66 753.109 1455.58 756.19 Q1452.5 759.272 1448.43 758.474 Q1444.37 757.651 1439.74 753.023 Q1435.1 748.383 1434.29 744.332 Q1433.48 740.256 1436.56 737.175 Z" fill="#000000" fill-rule="nonzero" fill-opacity="1" /><path clip-path="url(#clip150)" d="M1462.79 742.024 L1465.39 739.433 L1468.5 742.552 L1465.91 745.142 L1462.79 742.024 Z" fill="#000000" fill-rule="nonzero" fill-opacity="1" /><path clip-path="url(#clip150)" d="M1471.54 719.755 Q1473.7 718.355 1475.89 718.564 Q1478.1 718.761 1479.87 720.528 Q1482.58 723.241 1482.2 726.593 Q1481.82 729.944 1478.39 733.381 Q1477.23 734.535 1475.77 735.53 Q1474.33 736.524 1472.58 737.371 L1470.19 734.977 Q1471.82 734.548 1473.35 733.627 Q1474.89 732.706 1476.23 731.368 Q1478.56 729.036 1478.85 726.9 Q1479.16 724.751 1477.4 722.996 Q1475.78 721.375 1473.73 721.609 Q1471.68 721.817 1469.66 723.843 L1467.52 725.979 L1465.48 723.941 L1467.72 721.707 Q1469.55 719.878 1469.79 718.184 Q1470.03 716.477 1468.65 715.102 Q1467.24 713.69 1465.48 713.948 Q1463.73 714.182 1461.86 716.047 Q1460.84 717.066 1459.9 718.454 Q1458.95 719.841 1458.02 721.707 L1455.81 719.497 Q1456.83 717.692 1457.86 716.268 Q1458.9 714.832 1460 713.74 Q1462.82 710.916 1465.75 710.56 Q1468.68 710.192 1470.86 712.377 Q1472.38 713.899 1472.57 715.827 Q1472.74 717.742 1471.54 719.755 Z" fill="#000000" fill-rule="nonzero" fill-opacity="1" /><path clip-path="url(#clip150)" d="M1478.51 699.156 Q1476.59 701.071 1477.51 703.931 Q1478.43 706.767 1482.22 710.548 Q1485.98 714.317 1488.83 715.25 Q1491.68 716.158 1493.6 714.243 Q1495.52 712.316 1494.6 709.48 Q1493.68 706.619 1489.91 702.851 Q1486.13 699.07 1483.28 698.161 Q1480.44 697.228 1478.51 699.156 M1476.54 697.191 Q1479.63 694.11 1483.69 694.933 Q1487.75 695.731 1492.39 700.371 Q1497.02 704.999 1497.83 709.075 Q1498.64 713.126 1495.56 716.207 Q1492.48 719.288 1488.42 718.49 Q1484.35 717.668 1479.72 713.04 Q1475.08 708.399 1474.27 704.348 Q1473.46 700.273 1476.54 697.191 Z" fill="#000000" fill-rule="nonzero" fill-opacity="1" /><path clip-path="url(#clip150)" d="M1582.85 738.488 Q1580.94 740.403 1581.86 743.264 Q1582.78 746.099 1586.56 749.88 Q1590.33 753.649 1593.18 754.582 Q1596.02 755.491 1597.94 753.576 Q1599.87 751.648 1598.95 748.812 Q1598.02 745.952 1594.26 742.183 Q1590.47 738.402 1587.63 737.494 Q1584.78 736.561 1582.85 738.488 M1580.89 736.524 Q1583.97 733.443 1588.03 734.265 Q1592.1 735.063 1596.74 739.704 Q1601.36 744.332 1602.17 748.407 Q1602.98 752.458 1599.9 755.54 Q1596.82 758.621 1592.76 757.823 Q1588.69 757.001 1584.07 752.372 Q1579.43 747.732 1578.62 743.681 Q1577.81 739.605 1580.89 736.524 Z" fill="#000000" fill-rule="nonzero" fill-opacity="1" /><path clip-path="url(#clip150)" d="M1607.12 741.373 L1609.71 738.783 L1612.83 741.901 L1610.24 744.491 L1607.12 741.373 Z" fill="#000000" fill-rule="nonzero" fill-opacity="1" /><path clip-path="url(#clip150)" d="M1615.86 719.104 Q1618.02 717.705 1620.22 717.913 Q1622.43 718.11 1624.2 719.878 Q1626.91 722.591 1626.53 725.942 Q1626.15 729.293 1622.71 732.731 Q1621.56 733.885 1620.1 734.879 Q1618.66 735.873 1616.91 736.72 L1614.51 734.327 Q1616.14 733.897 1617.68 732.976 Q1619.21 732.056 1620.55 730.717 Q1622.88 728.385 1623.18 726.249 Q1623.49 724.101 1621.73 722.345 Q1620.11 720.725 1618.06 720.958 Q1616.01 721.167 1613.98 723.192 L1611.85 725.328 L1609.81 723.29 L1612.04 721.056 Q1613.87 719.227 1614.12 717.533 Q1614.35 715.827 1612.98 714.452 Q1611.57 713.04 1609.81 713.298 Q1608.05 713.531 1606.19 715.397 Q1605.17 716.416 1604.22 717.803 Q1603.28 719.19 1602.35 721.056 L1600.14 718.846 Q1601.16 717.042 1602.19 715.618 Q1603.23 714.182 1604.32 713.089 Q1607.15 710.265 1610.08 709.909 Q1613 709.541 1615.19 711.726 Q1616.71 713.249 1616.89 715.176 Q1617.07 717.091 1615.86 719.104 Z" fill="#000000" fill-rule="nonzero" fill-opacity="1" /><path clip-path="url(#clip150)" d="M1632.57 717.987 L1636.62 713.936 L1622.64 699.954 L1619.12 705.245 L1616.86 702.986 L1620.35 697.719 L1622.83 695.24 L1639.08 711.481 L1643.13 707.43 L1645.21 709.517 L1634.66 720.074 L1632.57 717.987 Z" fill="#000000" fill-rule="nonzero" fill-opacity="1" /><path clip-path="url(#clip150)" d="M1726.72 738.292 Q1724.81 740.207 1725.73 743.067 Q1726.65 745.903 1730.43 749.684 Q1734.2 753.453 1737.05 754.386 Q1739.9 755.294 1741.81 753.379 Q1743.74 751.452 1742.82 748.616 Q1741.9 745.756 1738.13 741.987 Q1734.35 738.206 1731.5 737.297 Q1728.65 736.364 1726.72 738.292 M1724.76 736.328 Q1727.84 733.246 1731.9 734.069 Q1735.97 734.867 1740.61 739.507 Q1745.24 744.135 1746.05 748.211 Q1746.86 752.262 1743.78 755.343 Q1740.69 758.425 1736.63 757.627 Q1732.57 756.804 1727.94 752.176 Q1723.3 747.536 1722.49 743.485 Q1721.68 739.409 1724.76 736.328 Z" fill="#000000" fill-rule="nonzero" fill-opacity="1" /><path clip-path="url(#clip150)" d="M1750.99 741.177 L1753.58 738.586 L1756.7 741.705 L1754.11 744.295 L1750.99 741.177 Z" fill="#000000" fill-rule="nonzero" fill-opacity="1" /><path clip-path="url(#clip150)" d="M1759.73 718.908 Q1761.89 717.508 1764.09 717.717 Q1766.3 717.913 1768.07 719.681 Q1770.78 722.394 1770.4 725.746 Q1770.02 729.097 1766.58 732.534 Q1765.43 733.688 1763.97 734.683 Q1762.53 735.677 1760.78 736.524 L1758.38 734.13 Q1760.02 733.701 1761.55 732.78 Q1763.09 731.859 1764.42 730.521 Q1766.76 728.189 1767.05 726.053 Q1767.36 723.904 1765.6 722.149 Q1763.98 720.528 1761.93 720.762 Q1759.88 720.97 1757.86 722.996 L1755.72 725.132 L1753.68 723.094 L1755.92 720.86 Q1757.75 719.031 1757.99 717.336 Q1758.22 715.63 1756.85 714.255 Q1755.44 712.843 1753.68 713.101 Q1751.93 713.334 1750.06 715.2 Q1749.04 716.219 1748.1 717.607 Q1747.15 718.994 1746.22 720.86 L1744.01 718.65 Q1745.03 716.845 1746.06 715.421 Q1747.1 713.985 1748.19 712.893 Q1751.02 710.069 1753.95 709.713 Q1756.87 709.345 1759.06 711.53 Q1760.58 713.052 1760.77 714.979 Q1760.94 716.895 1759.73 718.908 Z" fill="#000000" fill-rule="nonzero" fill-opacity="1" /><path clip-path="url(#clip150)" d="M1778.15 716.084 L1786.8 707.43 L1788.89 709.517 L1777.25 721.154 L1775.17 719.067 Q1775.12 716.195 1775.09 711.309 Q1775.07 706.398 1774.98 705.06 Q1774.83 702.532 1774.38 701.144 Q1773.93 699.733 1773.03 698.836 Q1771.57 697.376 1769.62 697.486 Q1767.68 697.584 1766.03 699.229 Q1764.87 700.395 1763.97 702.102 Q1763.09 703.796 1762.43 706.092 L1759.93 703.587 Q1760.83 701.488 1761.82 699.88 Q1762.82 698.272 1763.9 697.191 Q1766.74 694.343 1769.86 694.073 Q1772.98 693.803 1775.36 696.185 Q1776.49 697.314 1777.08 698.763 Q1777.67 700.187 1777.93 702.679 Q1777.98 703.342 1778.04 706.693 Q1778.09 710.032 1778.15 716.084 Z" fill="#000000" fill-rule="nonzero" fill-opacity="1" /><path clip-path="url(#clip150)" d="M1869.9 738.795 Q1867.98 740.71 1868.9 743.571 Q1869.82 746.406 1873.6 750.187 Q1877.37 753.956 1880.22 754.889 Q1883.07 755.797 1884.98 753.882 Q1886.91 751.955 1885.99 749.119 Q1885.07 746.259 1881.3 742.49 Q1877.52 738.709 1874.67 737.801 Q1871.82 736.868 1869.9 738.795 M1867.93 736.831 Q1871.01 733.75 1875.08 734.572 Q1879.14 735.37 1883.78 740.01 Q1888.41 744.639 1889.22 748.714 Q1890.03 752.765 1886.95 755.847 Q1883.87 758.928 1879.8 758.13 Q1875.74 757.307 1871.11 752.679 Q1866.47 748.039 1865.66 743.988 Q1864.85 739.912 1867.93 736.831 Z" fill="#000000" fill-rule="nonzero" fill-opacity="1" /><path clip-path="url(#clip150)" d="M1894.17 741.68 L1896.76 739.09 L1899.87 742.208 L1897.28 744.798 L1894.17 741.68 Z" fill="#000000" fill-rule="nonzero" fill-opacity="1" /><path clip-path="url(#clip150)" d="M1902.91 719.411 Q1905.07 718.012 1907.26 718.22 Q1909.47 718.417 1911.24 720.185 Q1913.96 722.898 1913.57 726.249 Q1913.19 729.6 1909.76 733.038 Q1908.6 734.192 1907.14 735.186 Q1905.71 736.18 1903.95 737.027 L1901.56 734.634 Q1903.19 734.204 1904.72 733.283 Q1906.26 732.362 1907.6 731.024 Q1909.93 728.692 1910.22 726.556 Q1910.53 724.408 1908.77 722.652 Q1907.15 721.032 1905.1 721.265 Q1903.05 721.474 1901.03 723.499 L1898.89 725.635 L1896.85 723.597 L1899.09 721.363 Q1900.92 719.534 1901.16 717.84 Q1901.4 716.133 1900.02 714.759 Q1898.61 713.347 1896.85 713.605 Q1895.1 713.838 1893.23 715.704 Q1892.21 716.723 1891.27 718.11 Q1890.32 719.497 1889.39 721.363 L1887.18 719.153 Q1888.2 717.349 1889.23 715.925 Q1890.27 714.488 1891.37 713.396 Q1894.19 710.572 1897.12 710.216 Q1900.05 709.848 1902.23 712.033 Q1903.75 713.555 1903.94 715.483 Q1904.11 717.398 1902.91 719.411 Z" fill="#000000" fill-rule="nonzero" fill-opacity="1" /><path clip-path="url(#clip150)" d="M1918.9 703.415 Q1921.06 702.016 1923.26 702.225 Q1925.47 702.421 1927.24 704.189 Q1929.95 706.902 1929.57 710.253 Q1929.19 713.605 1925.75 717.042 Q1924.6 718.196 1923.14 719.19 Q1921.7 720.185 1919.95 721.032 L1917.55 718.638 Q1919.18 718.208 1920.72 717.287 Q1922.25 716.367 1923.59 715.029 Q1925.92 712.696 1926.22 710.56 Q1926.53 708.412 1924.77 706.656 Q1923.15 705.036 1921.1 705.269 Q1919.05 705.478 1917.02 707.503 L1914.89 709.639 L1912.85 707.602 L1915.08 705.367 Q1916.91 703.538 1917.16 701.844 Q1917.39 700.138 1916.02 698.763 Q1914.61 697.351 1912.85 697.609 Q1911.09 697.842 1909.23 699.708 Q1908.21 700.727 1907.26 702.114 Q1906.32 703.501 1905.39 705.367 L1903.18 703.158 Q1904.2 701.353 1905.23 699.929 Q1906.27 698.493 1907.36 697.4 Q1910.19 694.577 1913.12 694.221 Q1916.04 693.852 1918.23 696.037 Q1919.75 697.56 1919.93 699.487 Q1920.11 701.402 1918.9 703.415 Z" fill="#000000" fill-rule="nonzero" fill-opacity="1" /><path clip-path="url(#clip150)" d="M2012.97 739.397 Q2011.06 741.312 2011.98 744.172 Q2012.9 747.008 2016.68 750.789 Q2020.45 754.558 2023.29 755.491 Q2026.14 756.399 2028.06 754.484 Q2029.99 752.557 2029.06 749.721 Q2028.14 746.86 2024.37 743.092 Q2020.59 739.311 2017.75 738.402 Q2014.9 737.469 2012.97 739.397 M2011.01 737.432 Q2014.09 734.351 2018.15 735.174 Q2022.21 735.972 2026.85 740.612 Q2031.48 745.24 2032.29 749.316 Q2033.1 753.367 2030.02 756.448 Q2026.94 759.529 2022.88 758.731 Q2018.81 757.909 2014.19 753.281 Q2009.55 748.641 2008.74 744.589 Q2007.92 740.514 2011.01 737.432 Z" fill="#000000" fill-rule="nonzero" fill-opacity="1" /><path clip-path="url(#clip150)" d="M2037.24 742.282 L2039.83 739.691 L2042.95 742.809 L2040.36 745.4 L2037.24 742.282 Z" fill="#000000" fill-rule="nonzero" fill-opacity="1" /><path clip-path="url(#clip150)" d="M2045.98 720.013 Q2048.14 718.613 2050.34 718.822 Q2052.55 719.018 2054.32 720.786 Q2057.03 723.499 2056.65 726.85 Q2056.27 730.202 2052.83 733.639 Q2051.68 734.793 2050.22 735.787 Q2048.78 736.782 2047.02 737.629 L2044.63 735.235 Q2046.26 734.805 2047.8 733.885 Q2049.33 732.964 2050.67 731.626 Q2053 729.293 2053.3 727.157 Q2053.6 725.009 2051.85 723.254 Q2050.23 721.633 2048.18 721.866 Q2046.13 722.075 2044.1 724.101 L2041.97 726.237 L2039.93 724.199 L2042.16 721.965 Q2043.99 720.135 2044.24 718.441 Q2044.47 716.735 2043.1 715.36 Q2041.68 713.948 2039.93 714.206 Q2038.17 714.439 2036.31 716.305 Q2035.29 717.324 2034.34 718.711 Q2033.4 720.099 2032.46 721.965 L2030.26 719.755 Q2031.27 717.95 2032.31 716.526 Q2033.35 715.09 2034.44 713.997 Q2037.26 711.174 2040.2 710.818 Q2043.12 710.45 2045.31 712.635 Q2046.83 714.157 2047.01 716.084 Q2047.18 717.999 2045.98 720.013 Z" fill="#000000" fill-rule="nonzero" fill-opacity="1" /><path clip-path="url(#clip150)" d="M2054.99 698.431 L2058.51 714.476 L2064.78 708.215 L2054.99 698.431 M2052.18 696.921 L2055.3 693.803 L2067.24 705.748 L2069.86 703.133 L2071.92 705.195 L2069.31 707.81 L2073.63 712.131 L2071.16 714.599 L2066.84 710.278 L2058.56 718.552 L2056.17 716.158 L2052.18 696.921 Z" fill="#000000" fill-rule="nonzero" fill-opacity="1" /><path clip-path="url(#clip150)" d="M2157.43 738.611 Q2155.52 740.526 2156.44 743.386 Q2157.36 746.222 2161.14 750.003 Q2164.91 753.772 2167.76 754.705 Q2170.6 755.613 2172.52 753.698 Q2174.45 751.771 2173.53 748.935 Q2172.61 746.075 2168.84 742.306 Q2165.06 738.525 2162.21 737.617 Q2159.36 736.684 2157.43 738.611 M2155.47 736.647 Q2158.55 733.565 2162.61 734.388 Q2166.68 735.186 2171.32 739.826 Q2175.94 744.454 2176.75 748.53 Q2177.56 752.581 2174.48 755.662 Q2171.4 758.744 2167.34 757.946 Q2163.28 757.123 2158.65 752.495 Q2154.01 747.855 2153.2 743.804 Q2152.39 739.728 2155.47 736.647 Z" fill="#000000" fill-rule="nonzero" fill-opacity="1" /><path clip-path="url(#clip150)" d="M2181.7 741.496 L2184.29 738.906 L2187.41 742.024 L2184.82 744.614 L2181.7 741.496 Z" fill="#000000" fill-rule="nonzero" fill-opacity="1" /><path clip-path="url(#clip150)" d="M2190.44 719.227 Q2192.6 717.828 2194.8 718.036 Q2197.01 718.233 2198.78 720 Q2201.49 722.713 2201.11 726.065 Q2200.73 729.416 2197.29 732.853 Q2196.14 734.007 2194.68 735.002 Q2193.24 735.996 2191.49 736.843 L2189.09 734.449 Q2190.72 734.02 2192.26 733.099 Q2193.79 732.178 2195.13 730.84 Q2197.46 728.508 2197.76 726.372 Q2198.07 724.223 2196.31 722.468 Q2194.69 720.847 2192.64 721.081 Q2190.59 721.289 2188.56 723.315 L2186.43 725.451 L2184.39 723.413 L2186.62 721.179 Q2188.45 719.35 2188.7 717.656 Q2188.93 715.949 2187.56 714.574 Q2186.15 713.163 2184.39 713.42 Q2182.63 713.654 2180.77 715.52 Q2179.75 716.539 2178.8 717.926 Q2177.86 719.313 2176.93 721.179 L2174.72 718.969 Q2175.74 717.165 2176.77 715.741 Q2177.81 714.304 2178.9 713.212 Q2181.73 710.388 2184.66 710.032 Q2187.58 709.664 2189.77 711.849 Q2191.29 713.371 2191.47 715.299 Q2191.65 717.214 2190.44 719.227 Z" fill="#000000" fill-rule="nonzero" fill-opacity="1" /><path clip-path="url(#clip150)" d="M2190.5 702.274 L2200.24 692.539 L2202.33 694.626 L2194.86 702.09 L2199.35 706.583 Q2199.71 705.858 2200.16 705.232 Q2200.61 704.594 2201.15 704.054 Q2204.22 700.985 2207.69 700.874 Q2211.16 700.764 2214.04 703.636 Q2217 706.595 2216.8 710.081 Q2216.59 713.555 2213.24 716.907 Q2212.09 718.061 2210.69 719.067 Q2209.3 720.062 2207.63 720.946 L2205.14 718.454 Q2206.84 717.95 2208.32 717.066 Q2209.79 716.183 2211.1 714.869 Q2213.23 712.745 2213.35 710.388 Q2213.47 708.031 2211.56 706.116 Q2209.64 704.201 2207.29 704.324 Q2204.93 704.447 2202.8 706.57 Q2201.81 707.565 2201.04 708.78 Q2200.28 709.983 2199.71 711.481 L2190.5 702.274 Z" fill="#000000" fill-rule="nonzero" fill-opacity="1" /><polyline clip-path="url(#clip150)" style="stroke:#000000; stroke-linecap:round; stroke-linejoin:round; stroke-width:4; stroke-opacity:1; fill:none" points="1361.64,667.406 1361.64,97.5521 "/>
<polyline clip-path="url(#clip150)" style="stroke:#000000; stroke-linecap:round; stroke-linejoin:round; stroke-width:4; stroke-opacity:1; fill:none" points="1361.64,651.278 1380.53,651.278 "/>
<polyline clip-path="url(#clip150)" style="stroke:#000000; stroke-linecap:round; stroke-linejoin:round; stroke-width:4; stroke-opacity:1; fill:none" points="1361.64,508.123 1380.53,508.123 "/>
<polyline clip-path="url(#clip150)" style="stroke:#000000; stroke-linecap:round; stroke-linejoin:round; stroke-width:4; stroke-opacity:1; fill:none" points="1361.64,364.967 1380.53,364.967 "/>
<polyline clip-path="url(#clip150)" style="stroke:#000000; stroke-linecap:round; stroke-linejoin:round; stroke-width:4; stroke-opacity:1; fill:none" points="1361.64,221.811 1380.53,221.811 "/>
<path clip-path="url(#clip150)" d="M1260.13 640.627 Q1257.42 640.627 1256.05 643.301 Q1254.7 645.957 1254.7 651.305 Q1254.7 656.634 1256.05 659.308 Q1257.42 661.964 1260.13 661.964 Q1262.86 661.964 1264.21 659.308 Q1265.58 656.634 1265.58 651.305 Q1265.58 645.957 1264.21 643.301 Q1262.86 640.627 1260.13 640.627 M1260.13 637.85 Q1264.49 637.85 1266.78 641.305 Q1269.09 644.742 1269.09 651.305 Q1269.09 657.85 1266.78 661.304 Q1264.49 664.742 1260.13 664.742 Q1255.78 664.742 1253.47 661.304 Q1251.17 657.85 1251.17 651.305 Q1251.17 644.742 1253.47 641.305 Q1255.78 637.85 1260.13 637.85 Z" fill="#000000" fill-rule="nonzero" fill-opacity="1" /><path clip-path="url(#clip150)" d="M1275.25 659.829 L1278.92 659.829 L1278.92 664.238 L1275.25 664.238 L1275.25 659.829 Z" fill="#000000" fill-rule="nonzero" fill-opacity="1" /><path clip-path="url(#clip150)" d="M1294.06 640.627 Q1291.35 640.627 1289.98 643.301 Q1288.62 645.957 1288.62 651.305 Q1288.62 656.634 1289.98 659.308 Q1291.35 661.964 1294.06 661.964 Q1296.78 661.964 1298.14 659.308 Q1299.51 656.634 1299.51 651.305 Q1299.51 645.957 1298.14 643.301 Q1296.78 640.627 1294.06 640.627 M1294.06 637.85 Q1298.41 637.85 1300.71 641.305 Q1303.01 644.742 1303.01 651.305 Q1303.01 657.85 1300.71 661.304 Q1298.41 664.742 1294.06 664.742 Q1289.7 664.742 1287.39 661.304 Q1285.1 657.85 1285.1 651.305 Q1285.1 644.742 1287.39 641.305 Q1289.7 637.85 1294.06 637.85 Z" fill="#000000" fill-rule="nonzero" fill-opacity="1" /><path clip-path="url(#clip150)" d="M1316.68 640.627 Q1313.97 640.627 1312.6 643.301 Q1311.24 645.957 1311.24 651.305 Q1311.24 656.634 1312.6 659.308 Q1313.97 661.964 1316.68 661.964 Q1319.4 661.964 1320.76 659.308 Q1322.13 656.634 1322.13 651.305 Q1322.13 645.957 1320.76 643.301 Q1319.4 640.627 1316.68 640.627 M1316.68 637.85 Q1321.04 637.85 1323.33 641.305 Q1325.64 644.742 1325.64 651.305 Q1325.64 657.85 1323.33 661.304 Q1321.04 664.742 1316.68 664.742 Q1312.32 664.742 1310.01 661.304 Q1307.72 657.85 1307.72 651.305 Q1307.72 644.742 1310.01 641.305 Q1312.32 637.85 1316.68 637.85 Z" fill="#000000" fill-rule="nonzero" fill-opacity="1" /><path clip-path="url(#clip150)" d="M1260.88 497.472 Q1258.17 497.472 1256.8 500.145 Q1255.45 502.802 1255.45 508.149 Q1255.45 513.479 1256.8 516.152 Q1258.17 518.808 1260.88 518.808 Q1263.6 518.808 1264.96 516.152 Q1266.33 513.479 1266.33 508.149 Q1266.33 502.802 1264.96 500.145 Q1263.6 497.472 1260.88 497.472 M1260.88 494.694 Q1265.24 494.694 1267.53 498.149 Q1269.84 501.586 1269.84 508.149 Q1269.84 514.694 1267.53 518.149 Q1265.24 521.586 1260.88 521.586 Q1256.52 521.586 1254.21 518.149 Q1251.92 514.694 1251.92 508.149 Q1251.92 501.586 1254.21 498.149 Q1256.52 494.694 1260.88 494.694 Z" fill="#000000" fill-rule="nonzero" fill-opacity="1" /><path clip-path="url(#clip150)" d="M1276 516.673 L1279.66 516.673 L1279.66 521.083 L1276 521.083 L1276 516.673 Z" fill="#000000" fill-rule="nonzero" fill-opacity="1" /><path clip-path="url(#clip150)" d="M1294.8 497.472 Q1292.09 497.472 1290.72 500.145 Q1289.37 502.802 1289.37 508.149 Q1289.37 513.479 1290.72 516.152 Q1292.09 518.808 1294.8 518.808 Q1297.53 518.808 1298.88 516.152 Q1300.25 513.479 1300.25 508.149 Q1300.25 502.802 1298.88 500.145 Q1297.53 497.472 1294.8 497.472 M1294.8 494.694 Q1299.16 494.694 1301.45 498.149 Q1303.76 501.586 1303.76 508.149 Q1303.76 514.694 1301.45 518.149 Q1299.16 521.586 1294.8 521.586 Q1290.45 521.586 1288.14 518.149 Q1285.84 514.694 1285.84 508.149 Q1285.84 501.586 1288.14 498.149 Q1290.45 494.694 1294.8 494.694 Z" fill="#000000" fill-rule="nonzero" fill-opacity="1" /><path clip-path="url(#clip150)" d="M1309.96 495.163 L1323.73 495.163 L1323.73 498.114 L1313.17 498.114 L1313.17 504.468 Q1313.93 504.208 1314.7 504.086 Q1315.46 503.947 1316.23 503.947 Q1320.57 503.947 1323.1 506.326 Q1325.64 508.704 1325.64 512.767 Q1325.64 516.951 1323.03 519.277 Q1320.43 521.586 1315.69 521.586 Q1314.06 521.586 1312.35 521.308 Q1310.67 521.031 1308.87 520.475 L1308.87 516.951 Q1310.43 517.802 1312.09 518.218 Q1313.76 518.635 1315.62 518.635 Q1318.62 518.635 1320.38 517.055 Q1322.13 515.475 1322.13 512.767 Q1322.13 510.059 1320.38 508.479 Q1318.62 506.899 1315.62 506.899 Q1314.21 506.899 1312.81 507.211 Q1311.42 507.524 1309.96 508.184 L1309.96 495.163 Z" fill="#000000" fill-rule="nonzero" fill-opacity="1" /><path clip-path="url(#clip150)" d="M1260.13 354.316 Q1257.42 354.316 1256.05 356.99 Q1254.7 359.646 1254.7 364.993 Q1254.7 370.323 1256.05 372.997 Q1257.42 375.653 1260.13 375.653 Q1262.86 375.653 1264.21 372.997 Q1265.58 370.323 1265.58 364.993 Q1265.58 359.646 1264.21 356.99 Q1262.86 354.316 1260.13 354.316 M1260.13 351.538 Q1264.49 351.538 1266.78 354.993 Q1269.09 358.431 1269.09 364.993 Q1269.09 371.538 1266.78 374.993 Q1264.49 378.431 1260.13 378.431 Q1255.78 378.431 1253.47 374.993 Q1251.17 371.538 1251.17 364.993 Q1251.17 358.431 1253.47 354.993 Q1255.78 351.538 1260.13 351.538 Z" fill="#000000" fill-rule="nonzero" fill-opacity="1" /><path clip-path="url(#clip150)" d="M1275.25 373.517 L1278.92 373.517 L1278.92 377.927 L1275.25 377.927 L1275.25 373.517 Z" fill="#000000" fill-rule="nonzero" fill-opacity="1" /><path clip-path="url(#clip150)" d="M1287.16 374.976 L1292.89 374.976 L1292.89 355.202 L1286.66 356.452 L1286.66 353.257 L1292.86 352.007 L1296.37 352.007 L1296.37 374.976 L1302.09 374.976 L1302.09 377.927 L1287.16 377.927 L1287.16 374.976 Z" fill="#000000" fill-rule="nonzero" fill-opacity="1" /><path clip-path="url(#clip150)" d="M1316.68 354.316 Q1313.97 354.316 1312.6 356.99 Q1311.24 359.646 1311.24 364.993 Q1311.24 370.323 1312.6 372.997 Q1313.97 375.653 1316.68 375.653 Q1319.4 375.653 1320.76 372.997 Q1322.13 370.323 1322.13 364.993 Q1322.13 359.646 1320.76 356.99 Q1319.4 354.316 1316.68 354.316 M1316.68 351.538 Q1321.04 351.538 1323.33 354.993 Q1325.64 358.431 1325.64 364.993 Q1325.64 371.538 1323.33 374.993 Q1321.04 378.431 1316.68 378.431 Q1312.32 378.431 1310.01 374.993 Q1307.72 371.538 1307.72 364.993 Q1307.72 358.431 1310.01 354.993 Q1312.32 351.538 1316.68 351.538 Z" fill="#000000" fill-rule="nonzero" fill-opacity="1" /><path clip-path="url(#clip150)" d="M1260.88 211.16 Q1258.17 211.16 1256.8 213.834 Q1255.45 216.49 1255.45 221.837 Q1255.45 227.167 1256.8 229.841 Q1258.17 232.497 1260.88 232.497 Q1263.6 232.497 1264.96 229.841 Q1266.33 227.167 1266.33 221.837 Q1266.33 216.49 1264.96 213.834 Q1263.6 211.16 1260.88 211.16 M1260.88 208.383 Q1265.24 208.383 1267.53 211.838 Q1269.84 215.275 1269.84 221.837 Q1269.84 228.383 1267.53 231.837 Q1265.24 235.275 1260.88 235.275 Q1256.52 235.275 1254.21 231.837 Q1251.92 228.383 1251.92 221.837 Q1251.92 215.275 1254.21 211.838 Q1256.52 208.383 1260.88 208.383 Z" fill="#000000" fill-rule="nonzero" fill-opacity="1" /><path clip-path="url(#clip150)" d="M1276 230.362 L1279.66 230.362 L1279.66 234.771 L1276 234.771 L1276 230.362 Z" fill="#000000" fill-rule="nonzero" fill-opacity="1" /><path clip-path="url(#clip150)" d="M1287.91 231.82 L1293.64 231.82 L1293.64 212.046 L1287.41 213.296 L1287.41 210.101 L1293.6 208.851 L1297.11 208.851 L1297.11 231.82 L1302.84 231.82 L1302.84 234.771 L1287.91 234.771 L1287.91 231.82 Z" fill="#000000" fill-rule="nonzero" fill-opacity="1" /><path clip-path="url(#clip150)" d="M1309.96 208.851 L1323.73 208.851 L1323.73 211.803 L1313.17 211.803 L1313.17 218.157 Q1313.93 217.897 1314.7 217.775 Q1315.46 217.636 1316.23 217.636 Q1320.57 217.636 1323.1 220.015 Q1325.64 222.393 1325.64 226.456 Q1325.64 230.64 1323.03 232.966 Q1320.43 235.275 1315.69 235.275 Q1314.06 235.275 1312.35 234.997 Q1310.67 234.719 1308.87 234.164 L1308.87 230.64 Q1310.43 231.49 1312.09 231.907 Q1313.76 232.324 1315.62 232.324 Q1318.62 232.324 1320.38 230.744 Q1322.13 229.164 1322.13 226.456 Q1322.13 223.747 1320.38 222.167 Q1318.62 220.587 1315.62 220.587 Q1314.21 220.587 1312.81 220.9 Q1311.42 221.212 1309.96 221.872 L1309.96 208.851 Z" fill="#000000" fill-rule="nonzero" fill-opacity="1" /><path clip-path="url(#clip150)" d="M1373.53 18.9258 Q1370.02 18.9258 1368.12 21.4721 Q1366.13 24.1341 1366.13 28.5323 Q1366.13 33.185 1368.09 35.8702 Q1370.08 38.5322 1373.53 38.5322 Q1376.94 38.5322 1378.93 35.847 Q1380.92 33.1619 1380.92 28.5323 Q1380.92 24.2962 1378.93 21.4721 Q1377.1 18.9258 1373.53 18.9258 M1373.53 15.5462 L1387.68 15.5462 L1387.68 19.8054 L1382.91 19.8054 Q1385.43 23.4165 1385.43 28.5323 Q1385.43 34.898 1382.26 38.5091 Q1379.09 42.1433 1373.53 42.1433 Q1367.96 42.1433 1364.81 38.5091 Q1361.64 34.898 1361.64 28.5323 Q1361.64 22.1203 1364.81 18.5323 Q1367.42 15.5462 1373.53 15.5462 Z" fill="#000000" fill-rule="nonzero" fill-opacity="1" /><path clip-path="url(#clip150)" d="M1411.84 19.6666 Q1410.99 19.3656 1410.13 19.1342 Q1407.84 18.5323 1405.39 18.5323 Q1401.15 18.5323 1398.79 20.824 Q1396.59 22.9536 1396.17 26.8656 L1411.84 26.8656 L1411.84 30.1989 L1396.17 30.1989 Q1396.59 34.1109 1398.79 36.2405 Q1401.15 38.5322 1405.39 38.5322 Q1408.35 38.5322 1410.13 37.9304 L1411.84 37.3517 L1411.84 41.2174 L1410.02 41.634 Q1407.61 42.1433 1405.13 42.1433 Q1398.93 42.1433 1395.32 38.5322 Q1391.68 34.9211 1391.68 28.5323 Q1391.68 22.1434 1395.32 18.5323 Q1398.93 14.9212 1405.13 14.9212 Q1407.47 14.9212 1410.02 15.4305 Q1410.94 15.6157 1411.84 15.8934 L1411.84 19.6666 Z" fill="#000000" fill-rule="nonzero" fill-opacity="1" /><polyline clip-path="url(#clip153)" style="stroke:#009af9; stroke-linecap:round; stroke-linejoin:round; stroke-width:4; stroke-opacity:1; fill:none" points="1389.69,164.815 1448.13,222.826 1506.56,281.637 1565,341.246 1623.44,401.655 1681.88,462.862 1740.32,524.869 1798.76,587.674 1857.2,651.278 1915.63,586.875 1974.07,521.673 2032.51,455.671 2090.95,388.871 2149.39,321.272 2207.83,252.874 2266.27,183.676 2324.71,113.68 "/>
<circle clip-path="url(#clip153)" cx="1857.2" cy="651.278" r="10.8" fill="#ff0000" fill-rule="evenodd" fill-opacity="1" stroke="#000000" stroke-opacity="1" stroke-width="3.2"/>
<path clip-path="url(#clip150)" d="M161.818 1467.41 L1152.94 1467.41 L1152.94 897.552 L161.818 897.552  Z" fill="#ffffff" fill-rule="evenodd" fill-opacity="1"/>
<defs>
  <clipPath id="clip154">
    <rect x="161" y="897" width="992" height="571"/>
  </clipPath>
</defs>
<polyline clip-path="url(#clip154)" style="stroke:#000000; stroke-linecap:round; stroke-linejoin:round; stroke-width:2; stroke-opacity:0.1; fill:none" points="292.44,1467.41 292.44,897.552 "/>
<polyline clip-path="url(#clip154)" style="stroke:#000000; stroke-linecap:round; stroke-linejoin:round; stroke-width:2; stroke-opacity:0.1; fill:none" points="464.846,1467.41 464.846,897.552 "/>
<polyline clip-path="url(#clip154)" style="stroke:#000000; stroke-linecap:round; stroke-linejoin:round; stroke-width:2; stroke-opacity:0.1; fill:none" points="637.253,1467.41 637.253,897.552 "/>
<polyline clip-path="url(#clip154)" style="stroke:#000000; stroke-linecap:round; stroke-linejoin:round; stroke-width:2; stroke-opacity:0.1; fill:none" points="809.659,1467.41 809.659,897.552 "/>
<polyline clip-path="url(#clip154)" style="stroke:#000000; stroke-linecap:round; stroke-linejoin:round; stroke-width:2; stroke-opacity:0.1; fill:none" points="982.065,1467.41 982.065,897.552 "/>
<polyline clip-path="url(#clip154)" style="stroke:#000000; stroke-linecap:round; stroke-linejoin:round; stroke-width:2; stroke-opacity:0.1; fill:none" points="161.818,1451.28 1152.94,1451.28 "/>
<polyline clip-path="url(#clip154)" style="stroke:#000000; stroke-linecap:round; stroke-linejoin:round; stroke-width:2; stroke-opacity:0.1; fill:none" points="161.818,1330.6 1152.94,1330.6 "/>
<polyline clip-path="url(#clip154)" style="stroke:#000000; stroke-linecap:round; stroke-linejoin:round; stroke-width:2; stroke-opacity:0.1; fill:none" points="161.818,1209.93 1152.94,1209.93 "/>
<polyline clip-path="url(#clip154)" style="stroke:#000000; stroke-linecap:round; stroke-linejoin:round; stroke-width:2; stroke-opacity:0.1; fill:none" points="161.818,1089.26 1152.94,1089.26 "/>
<polyline clip-path="url(#clip154)" style="stroke:#000000; stroke-linecap:round; stroke-linejoin:round; stroke-width:2; stroke-opacity:0.1; fill:none" points="161.818,968.582 1152.94,968.582 "/>
<polyline clip-path="url(#clip150)" style="stroke:#000000; stroke-linecap:round; stroke-linejoin:round; stroke-width:4; stroke-opacity:1; fill:none" points="161.818,1467.41 1152.94,1467.41 "/>
<polyline clip-path="url(#clip150)" style="stroke:#000000; stroke-linecap:round; stroke-linejoin:round; stroke-width:4; stroke-opacity:1; fill:none" points="292.44,1467.41 292.44,1448.51 "/>
<polyline clip-path="url(#clip150)" style="stroke:#000000; stroke-linecap:round; stroke-linejoin:round; stroke-width:4; stroke-opacity:1; fill:none" points="464.846,1467.41 464.846,1448.51 "/>
<polyline clip-path="url(#clip150)" style="stroke:#000000; stroke-linecap:round; stroke-linejoin:round; stroke-width:4; stroke-opacity:1; fill:none" points="637.253,1467.41 637.253,1448.51 "/>
<polyline clip-path="url(#clip150)" style="stroke:#000000; stroke-linecap:round; stroke-linejoin:round; stroke-width:4; stroke-opacity:1; fill:none" points="809.659,1467.41 809.659,1448.51 "/>
<polyline clip-path="url(#clip150)" style="stroke:#000000; stroke-linecap:round; stroke-linejoin:round; stroke-width:4; stroke-opacity:1; fill:none" points="982.065,1467.41 982.065,1448.51 "/>
<path clip-path="url(#clip150)" d="M238.591 1539.14 Q236.676 1541.05 237.597 1543.91 Q238.517 1546.75 242.298 1550.53 Q246.067 1554.3 248.915 1555.23 Q251.763 1556.14 253.678 1554.23 Q255.606 1552.3 254.685 1549.46 Q253.764 1546.6 249.996 1542.83 Q246.214 1539.05 243.366 1538.14 Q240.518 1537.21 238.591 1539.14 M236.627 1537.17 Q239.708 1534.09 243.772 1534.92 Q247.835 1535.71 252.475 1540.35 Q257.103 1544.98 257.914 1549.06 Q258.724 1553.11 255.643 1556.19 Q252.561 1559.27 248.498 1558.47 Q244.434 1557.65 239.806 1553.02 Q235.166 1548.38 234.356 1544.33 Q233.546 1540.26 236.627 1537.17 Z" fill="#000000" fill-rule="nonzero" fill-opacity="1" /><path clip-path="url(#clip150)" d="M262.861 1542.02 L265.451 1539.43 L268.569 1542.55 L265.979 1545.14 L262.861 1542.02 Z" fill="#000000" fill-rule="nonzero" fill-opacity="1" /><path clip-path="url(#clip150)" d="M255.667 1518.8 L265.402 1509.06 L267.489 1511.15 L260.025 1518.61 L264.518 1523.11 Q264.874 1522.38 265.328 1521.76 Q265.77 1521.12 266.31 1520.58 Q269.379 1517.51 272.854 1517.4 Q276.328 1517.29 279.2 1520.16 Q282.159 1523.12 281.962 1526.6 Q281.754 1530.08 278.402 1533.43 Q277.248 1534.58 275.849 1535.59 Q274.462 1536.59 272.792 1537.47 L270.3 1534.98 Q272.007 1534.47 273.48 1533.59 Q274.953 1532.71 276.266 1531.39 Q278.39 1529.27 278.513 1526.91 Q278.636 1524.55 276.721 1522.64 Q274.805 1520.72 272.448 1520.85 Q270.091 1520.97 267.968 1523.09 Q266.973 1524.09 266.2 1525.3 Q265.439 1526.51 264.874 1528 L255.667 1518.8 Z" fill="#000000" fill-rule="nonzero" fill-opacity="1" /><path clip-path="url(#clip150)" d="M278.574 1499.16 Q276.659 1501.07 277.58 1503.93 Q278.501 1506.77 282.282 1510.55 Q286.05 1514.32 288.898 1515.25 Q291.747 1516.16 293.662 1514.24 Q295.589 1512.32 294.668 1509.48 Q293.748 1506.62 289.979 1502.85 Q286.198 1499.07 283.35 1498.16 Q280.502 1497.23 278.574 1499.16 M276.61 1497.19 Q279.691 1494.11 283.755 1494.93 Q287.818 1495.73 292.459 1500.37 Q297.087 1505 297.897 1509.07 Q298.707 1513.13 295.626 1516.21 Q292.544 1519.29 288.481 1518.49 Q284.418 1517.67 279.79 1513.04 Q275.149 1508.4 274.339 1504.35 Q273.529 1500.27 276.61 1497.19 Z" fill="#000000" fill-rule="nonzero" fill-opacity="1" /><path clip-path="url(#clip150)" d="M411.844 1538.29 Q409.929 1540.21 410.85 1543.07 Q411.771 1545.9 415.552 1549.68 Q419.32 1553.45 422.169 1554.39 Q425.017 1555.29 426.932 1553.38 Q428.859 1551.45 427.938 1548.62 Q427.018 1545.76 423.249 1541.99 Q419.468 1538.21 416.62 1537.3 Q413.772 1536.36 411.844 1538.29 M409.88 1536.33 Q412.961 1533.25 417.025 1534.07 Q421.088 1534.87 425.729 1539.51 Q430.357 1544.14 431.167 1548.21 Q431.977 1552.26 428.896 1555.34 Q425.815 1558.42 421.751 1557.63 Q417.688 1556.8 413.06 1552.18 Q408.419 1547.54 407.609 1543.48 Q406.799 1539.41 409.88 1536.33 Z" fill="#000000" fill-rule="nonzero" fill-opacity="1" /><path clip-path="url(#clip150)" d="M436.114 1541.18 L438.704 1538.59 L441.823 1541.7 L439.232 1544.29 L436.114 1541.18 Z" fill="#000000" fill-rule="nonzero" fill-opacity="1" /><path clip-path="url(#clip150)" d="M428.92 1517.95 L438.655 1508.22 L440.742 1510.3 L433.278 1517.77 L437.771 1522.26 Q438.127 1521.53 438.582 1520.91 Q439.024 1520.27 439.564 1519.73 Q442.633 1516.66 446.107 1516.55 Q449.581 1516.44 452.454 1519.31 Q455.412 1522.27 455.216 1525.76 Q455.007 1529.23 451.656 1532.58 Q450.502 1533.74 449.102 1534.74 Q447.715 1535.74 446.046 1536.62 L443.553 1534.13 Q445.26 1533.63 446.733 1532.74 Q448.206 1531.86 449.52 1530.55 Q451.643 1528.42 451.766 1526.06 Q451.889 1523.71 449.974 1521.79 Q448.059 1519.88 445.702 1520 Q443.345 1520.12 441.221 1522.25 Q440.227 1523.24 439.453 1524.46 Q438.692 1525.66 438.127 1527.16 L428.92 1517.95 Z" fill="#000000" fill-rule="nonzero" fill-opacity="1" /><path clip-path="url(#clip150)" d="M463.269 1516.08 L471.924 1507.43 L474.01 1509.52 L462.373 1521.15 L460.286 1519.07 Q460.237 1516.19 460.212 1511.31 Q460.188 1506.4 460.102 1505.06 Q459.954 1502.53 459.5 1501.14 Q459.046 1499.73 458.15 1498.84 Q456.689 1497.38 454.737 1497.49 Q452.797 1497.58 451.152 1499.23 Q449.986 1500.4 449.09 1502.1 Q448.206 1503.8 447.555 1506.09 L445.051 1503.59 Q445.947 1501.49 446.942 1499.88 Q447.936 1498.27 449.016 1497.19 Q451.864 1494.34 454.983 1494.07 Q458.101 1493.8 460.482 1496.18 Q461.612 1497.31 462.201 1498.76 Q462.79 1500.19 463.048 1502.68 Q463.097 1503.34 463.158 1506.69 Q463.208 1510.03 463.269 1516.08 Z" fill="#000000" fill-rule="nonzero" fill-opacity="1" /><path clip-path="url(#clip150)" d="M583.146 1539.4 Q581.231 1541.31 582.151 1544.17 Q583.072 1547.01 586.853 1550.79 Q590.622 1554.56 593.47 1555.49 Q596.318 1556.4 598.233 1554.48 Q600.16 1552.56 599.24 1549.72 Q598.319 1546.86 594.55 1543.09 Q590.769 1539.31 587.921 1538.4 Q585.073 1537.47 583.146 1539.4 M581.182 1537.43 Q584.263 1534.35 588.326 1535.17 Q592.39 1535.97 597.03 1540.61 Q601.658 1545.24 602.468 1549.32 Q603.279 1553.37 600.197 1556.45 Q597.116 1559.53 593.053 1558.73 Q588.989 1557.91 584.361 1553.28 Q579.721 1548.64 578.911 1544.59 Q578.1 1540.51 581.182 1537.43 Z" fill="#000000" fill-rule="nonzero" fill-opacity="1" /><path clip-path="url(#clip150)" d="M607.416 1542.28 L610.006 1539.69 L613.124 1542.81 L610.534 1545.4 L607.416 1542.28 Z" fill="#000000" fill-rule="nonzero" fill-opacity="1" /><path clip-path="url(#clip150)" d="M600.222 1519.06 L609.957 1509.32 L612.044 1511.41 L604.58 1518.87 L609.073 1523.36 Q609.429 1522.64 609.883 1522.01 Q610.325 1521.38 610.865 1520.84 Q613.934 1517.77 617.408 1517.66 Q620.882 1517.55 623.755 1520.42 Q626.714 1523.38 626.517 1526.86 Q626.309 1530.34 622.957 1533.69 Q621.803 1534.84 620.404 1535.85 Q619.017 1536.84 617.347 1537.73 L614.855 1535.24 Q616.561 1534.73 618.034 1533.85 Q619.508 1532.96 620.821 1531.65 Q622.945 1529.53 623.068 1527.17 Q623.19 1524.81 621.275 1522.9 Q619.36 1520.98 617.003 1521.11 Q614.646 1521.23 612.522 1523.35 Q611.528 1524.35 610.755 1525.56 Q609.994 1526.76 609.429 1528.26 L600.222 1519.06 Z" fill="#000000" fill-rule="nonzero" fill-opacity="1" /><path clip-path="url(#clip150)" d="M625.167 1498.43 L628.69 1514.48 L634.951 1508.22 L625.167 1498.43 M622.356 1496.92 L625.474 1493.8 L637.418 1505.75 L640.033 1503.13 L642.096 1505.2 L639.481 1507.81 L643.802 1512.13 L641.334 1514.6 L637.013 1510.28 L628.739 1518.55 L626.345 1516.16 L622.356 1496.92 Z" fill="#000000" fill-rule="nonzero" fill-opacity="1" /><path clip-path="url(#clip150)" d="M755.724 1539.22 Q753.809 1541.14 754.73 1544 Q755.65 1546.84 759.431 1550.62 Q763.2 1554.39 766.048 1555.32 Q768.896 1556.23 770.811 1554.31 Q772.739 1552.38 771.818 1549.55 Q770.897 1546.69 767.128 1542.92 Q763.347 1539.14 760.499 1538.23 Q757.651 1537.3 755.724 1539.22 M753.76 1537.26 Q756.841 1534.18 760.904 1535 Q764.968 1535.8 769.608 1540.44 Q774.236 1545.07 775.046 1549.14 Q775.857 1553.19 772.775 1556.28 Q769.694 1559.36 765.631 1558.56 Q761.567 1557.74 756.939 1553.11 Q752.299 1548.47 751.489 1544.42 Q750.678 1540.34 753.76 1537.26 Z" fill="#000000" fill-rule="nonzero" fill-opacity="1" /><path clip-path="url(#clip150)" d="M779.994 1542.11 L782.584 1539.52 L785.702 1542.64 L783.112 1545.23 L779.994 1542.11 Z" fill="#000000" fill-rule="nonzero" fill-opacity="1" /><path clip-path="url(#clip150)" d="M772.8 1518.88 L782.535 1509.15 L784.622 1511.24 L777.158 1518.7 L781.651 1523.19 Q782.007 1522.47 782.461 1521.84 Q782.903 1521.2 783.443 1520.66 Q786.512 1517.59 789.986 1517.48 Q793.461 1517.37 796.333 1520.25 Q799.292 1523.2 799.095 1526.69 Q798.887 1530.17 795.535 1533.52 Q794.381 1534.67 792.982 1535.68 Q791.595 1536.67 789.925 1537.56 L787.433 1535.06 Q789.139 1534.56 790.613 1533.68 Q792.086 1532.79 793.399 1531.48 Q795.523 1529.35 795.646 1527 Q795.769 1524.64 793.853 1522.73 Q791.938 1520.81 789.581 1520.93 Q787.224 1521.06 785.101 1523.18 Q784.106 1524.17 783.333 1525.39 Q782.572 1526.59 782.007 1528.09 L772.8 1518.88 Z" fill="#000000" fill-rule="nonzero" fill-opacity="1" /><path clip-path="url(#clip150)" d="M802.557 1505.48 Q800.888 1507.15 801.047 1509.27 Q801.219 1511.38 803.208 1513.37 Q805.184 1515.35 807.308 1515.53 Q809.432 1515.69 811.101 1514.02 Q812.771 1512.35 812.599 1510.24 Q812.427 1508.1 810.451 1506.13 Q808.462 1504.14 806.338 1503.98 Q804.227 1503.81 802.557 1505.48 M799.709 1492.78 L801.968 1495.04 Q800.593 1495.53 799.402 1496.26 Q798.224 1496.97 797.291 1497.9 Q794.836 1500.36 795.192 1503.32 Q795.56 1506.26 798.727 1509.8 Q798.383 1508.01 798.911 1506.35 Q799.427 1504.68 800.74 1503.37 Q803.502 1500.6 806.78 1500.69 Q810.058 1500.75 812.943 1503.64 Q815.766 1506.46 815.803 1509.84 Q815.84 1513.21 813.066 1515.99 Q809.886 1519.17 805.774 1518.42 Q801.649 1517.66 797.021 1513.03 Q792.675 1508.68 792.159 1504.04 Q791.631 1499.39 795.106 1495.91 Q796.039 1494.98 797.168 1494.22 Q798.31 1493.45 799.709 1492.78 Z" fill="#000000" fill-rule="nonzero" fill-opacity="1" /><path clip-path="url(#clip150)" d="M928.265 1539.09 Q926.35 1541 927.271 1543.87 Q928.192 1546.7 931.973 1550.48 Q935.741 1554.25 938.589 1555.18 Q941.437 1556.09 943.353 1554.18 Q945.28 1552.25 944.359 1549.41 Q943.438 1546.55 939.67 1542.78 Q935.889 1539 933.041 1538.1 Q930.193 1537.16 928.265 1539.09 M926.301 1537.13 Q929.382 1534.04 933.446 1534.87 Q937.509 1535.66 942.149 1540.31 Q946.778 1544.93 947.588 1549.01 Q948.398 1553.06 945.317 1556.14 Q942.235 1559.22 938.172 1558.42 Q934.109 1557.6 929.481 1552.97 Q924.84 1548.33 924.03 1544.28 Q923.22 1540.21 926.301 1537.13 Z" fill="#000000" fill-rule="nonzero" fill-opacity="1" /><path clip-path="url(#clip150)" d="M952.535 1541.97 L955.125 1539.38 L958.243 1542.5 L955.653 1545.09 L952.535 1541.97 Z" fill="#000000" fill-rule="nonzero" fill-opacity="1" /><path clip-path="url(#clip150)" d="M945.341 1518.75 L955.076 1509.01 L957.163 1511.1 L949.699 1518.56 L954.192 1523.06 Q954.548 1522.33 955.003 1521.71 Q955.444 1521.07 955.985 1520.53 Q959.054 1517.46 962.528 1517.35 Q966.002 1517.24 968.875 1520.11 Q971.833 1523.07 971.637 1526.56 Q971.428 1530.03 968.077 1533.38 Q966.923 1534.54 965.523 1535.54 Q964.136 1536.54 962.466 1537.42 L959.974 1534.93 Q961.681 1534.42 963.154 1533.54 Q964.627 1532.66 965.941 1531.34 Q968.064 1529.22 968.187 1526.86 Q968.31 1524.51 966.395 1522.59 Q964.48 1520.68 962.123 1520.8 Q959.766 1520.92 957.642 1523.04 Q956.648 1524.04 955.874 1525.25 Q955.113 1526.46 954.548 1527.96 L945.341 1518.75 Z" fill="#000000" fill-rule="nonzero" fill-opacity="1" /><path clip-path="url(#clip150)" d="M976.24 1507.1 Q974.472 1508.87 974.399 1510.83 Q974.337 1512.78 975.995 1514.44 Q977.652 1516.1 979.604 1516.04 Q981.568 1515.96 983.336 1514.19 Q985.104 1512.43 985.177 1510.46 Q985.239 1508.49 983.594 1506.84 Q981.936 1505.18 979.972 1505.26 Q978.02 1505.32 976.24 1507.1 M972.705 1508.52 Q970.716 1509.73 968.727 1509.53 Q966.751 1509.32 965.179 1507.75 Q962.982 1505.55 963.264 1502.72 Q963.559 1499.87 966.284 1497.14 Q969.022 1494.4 971.858 1494.12 Q974.693 1493.84 976.891 1496.04 Q978.462 1497.61 978.659 1499.6 Q978.867 1501.57 977.676 1503.55 Q979.886 1502.18 982.096 1502.4 Q984.318 1502.61 986.073 1504.36 Q988.737 1507.02 988.529 1510.08 Q988.332 1513.13 985.3 1516.16 Q982.268 1519.19 979.211 1519.4 Q976.167 1519.6 973.503 1516.93 Q971.747 1515.18 971.538 1512.95 Q971.33 1510.73 972.705 1508.52 M967.88 1505.51 Q969.304 1506.94 970.986 1506.85 Q972.68 1506.75 974.288 1505.15 Q975.884 1503.55 975.982 1501.86 Q976.093 1500.15 974.669 1498.73 Q973.245 1497.3 971.538 1497.41 Q969.844 1497.51 968.248 1499.11 Q966.64 1500.71 966.542 1502.41 Q966.456 1504.09 967.88 1505.51 Z" fill="#000000" fill-rule="nonzero" fill-opacity="1" /><polyline clip-path="url(#clip150)" style="stroke:#000000; stroke-linecap:round; stroke-linejoin:round; stroke-width:4; stroke-opacity:1; fill:none" points="161.818,1467.41 161.818,897.552 "/>
<polyline clip-path="url(#clip150)" style="stroke:#000000; stroke-linecap:round; stroke-linejoin:round; stroke-width:4; stroke-opacity:1; fill:none" points="161.818,1451.28 180.716,1451.28 "/>
<polyline clip-path="url(#clip150)" style="stroke:#000000; stroke-linecap:round; stroke-linejoin:round; stroke-width:4; stroke-opacity:1; fill:none" points="161.818,1330.6 180.716,1330.6 "/>
<polyline clip-path="url(#clip150)" style="stroke:#000000; stroke-linecap:round; stroke-linejoin:round; stroke-width:4; stroke-opacity:1; fill:none" points="161.818,1209.93 180.716,1209.93 "/>
<polyline clip-path="url(#clip150)" style="stroke:#000000; stroke-linecap:round; stroke-linejoin:round; stroke-width:4; stroke-opacity:1; fill:none" points="161.818,1089.26 180.716,1089.26 "/>
<polyline clip-path="url(#clip150)" style="stroke:#000000; stroke-linecap:round; stroke-linejoin:round; stroke-width:4; stroke-opacity:1; fill:none" points="161.818,968.582 180.716,968.582 "/>
<path clip-path="url(#clip150)" d="M60.315 1440.63 Q57.6067 1440.63 56.2352 1443.3 Q54.881 1445.96 54.881 1451.3 Q54.881 1456.63 56.2352 1459.31 Q57.6067 1461.96 60.315 1461.96 Q63.0407 1461.96 64.3948 1459.31 Q65.7664 1456.63 65.7664 1451.3 Q65.7664 1445.96 64.3948 1443.3 Q63.0407 1440.63 60.315 1440.63 M60.315 1437.85 Q64.6726 1437.85 66.9643 1441.3 Q69.2733 1444.74 69.2733 1451.3 Q69.2733 1457.85 66.9643 1461.3 Q64.6726 1464.74 60.315 1464.74 Q55.9574 1464.74 53.6484 1461.3 Q51.3567 1457.85 51.3567 1451.3 Q51.3567 1444.74 53.6484 1441.3 Q55.9574 1437.85 60.315 1437.85 Z" fill="#000000" fill-rule="nonzero" fill-opacity="1" /><path clip-path="url(#clip150)" d="M75.4364 1459.83 L79.0996 1459.83 L79.0996 1464.24 L75.4364 1464.24 L75.4364 1459.83 Z" fill="#000000" fill-rule="nonzero" fill-opacity="1" /><path clip-path="url(#clip150)" d="M94.2384 1440.63 Q91.5301 1440.63 90.1586 1443.3 Q88.8044 1445.96 88.8044 1451.3 Q88.8044 1456.63 90.1586 1459.31 Q91.5301 1461.96 94.2384 1461.96 Q96.9641 1461.96 98.3183 1459.31 Q99.6898 1456.63 99.6898 1451.3 Q99.6898 1445.96 98.3183 1443.3 Q96.9641 1440.63 94.2384 1440.63 M94.2384 1437.85 Q98.596 1437.85 100.888 1441.3 Q103.197 1444.74 103.197 1451.3 Q103.197 1457.85 100.888 1461.3 Q98.596 1464.74 94.2384 1464.74 Q89.8808 1464.74 87.5718 1461.3 Q85.2801 1457.85 85.2801 1451.3 Q85.2801 1444.74 87.5718 1441.3 Q89.8808 1437.85 94.2384 1437.85 Z" fill="#000000" fill-rule="nonzero" fill-opacity="1" /><path clip-path="url(#clip150)" d="M116.86 1440.63 Q114.152 1440.63 112.78 1443.3 Q111.426 1445.96 111.426 1451.3 Q111.426 1456.63 112.78 1459.31 Q114.152 1461.96 116.86 1461.96 Q119.586 1461.96 120.94 1459.31 Q122.311 1456.63 122.311 1451.3 Q122.311 1445.96 120.94 1443.3 Q119.586 1440.63 116.86 1440.63 M116.86 1437.85 Q121.217 1437.85 123.509 1441.3 Q125.818 1444.74 125.818 1451.3 Q125.818 1457.85 123.509 1461.3 Q121.217 1464.74 116.86 1464.74 Q112.502 1464.74 110.193 1461.3 Q107.902 1457.85 107.902 1451.3 Q107.902 1444.74 110.193 1441.3 Q112.502 1437.85 116.86 1437.85 Z" fill="#000000" fill-rule="nonzero" fill-opacity="1" /><path clip-path="url(#clip150)" d="M61.2351 1319.95 Q58.5268 1319.95 57.1553 1322.63 Q55.8011 1325.28 55.8011 1330.63 Q55.8011 1335.96 57.1553 1338.63 Q58.5268 1341.29 61.2351 1341.29 Q63.9608 1341.29 65.315 1338.63 Q66.6865 1335.96 66.6865 1330.63 Q66.6865 1325.28 65.315 1322.63 Q63.9608 1319.95 61.2351 1319.95 M61.2351 1317.18 Q65.5927 1317.18 67.8844 1320.63 Q70.1934 1324.07 70.1934 1330.63 Q70.1934 1337.18 67.8844 1340.63 Q65.5927 1344.07 61.2351 1344.07 Q56.8775 1344.07 54.5685 1340.63 Q52.2768 1337.18 52.2768 1330.63 Q52.2768 1324.07 54.5685 1320.63 Q56.8775 1317.18 61.2351 1317.18 Z" fill="#000000" fill-rule="nonzero" fill-opacity="1" /><path clip-path="url(#clip150)" d="M76.3566 1339.15 L80.0197 1339.15 L80.0197 1343.56 L76.3566 1343.56 L76.3566 1339.15 Z" fill="#000000" fill-rule="nonzero" fill-opacity="1" /><path clip-path="url(#clip150)" d="M95.1586 1319.95 Q92.4502 1319.95 91.0787 1322.63 Q89.7246 1325.28 89.7246 1330.63 Q89.7246 1335.96 91.0787 1338.63 Q92.4502 1341.29 95.1586 1341.29 Q97.8842 1341.29 99.2384 1338.63 Q100.61 1335.96 100.61 1330.63 Q100.61 1325.28 99.2384 1322.63 Q97.8842 1319.95 95.1586 1319.95 M95.1586 1317.18 Q99.5162 1317.18 101.808 1320.63 Q104.117 1324.07 104.117 1330.63 Q104.117 1337.18 101.808 1340.63 Q99.5162 1344.07 95.1586 1344.07 Q90.8009 1344.07 88.4919 1340.63 Q86.2003 1337.18 86.2003 1330.63 Q86.2003 1324.07 88.4919 1320.63 Q90.8009 1317.18 95.1586 1317.18 Z" fill="#000000" fill-rule="nonzero" fill-opacity="1" /><path clip-path="url(#clip150)" d="M110.888 1340.61 L116.617 1340.61 L116.617 1320.84 L110.384 1322.09 L110.384 1318.89 L116.582 1317.64 L120.089 1317.64 L120.089 1340.61 L125.818 1340.61 L125.818 1343.56 L110.888 1343.56 L110.888 1340.61 Z" fill="#000000" fill-rule="nonzero" fill-opacity="1" /><path clip-path="url(#clip150)" d="M61.5129 1199.28 Q58.8046 1199.28 57.4331 1201.95 Q56.0789 1204.61 56.0789 1209.96 Q56.0789 1215.29 57.4331 1217.96 Q58.8046 1220.62 61.5129 1220.62 Q64.2386 1220.62 65.5927 1217.96 Q66.9643 1215.29 66.9643 1209.96 Q66.9643 1204.61 65.5927 1201.95 Q64.2386 1199.28 61.5129 1199.28 M61.5129 1196.5 Q65.8705 1196.5 68.1622 1199.96 Q70.4712 1203.39 70.4712 1209.96 Q70.4712 1216.5 68.1622 1219.96 Q65.8705 1223.39 61.5129 1223.39 Q57.1553 1223.39 54.8463 1219.96 Q52.5546 1216.5 52.5546 1209.96 Q52.5546 1203.39 54.8463 1199.96 Q57.1553 1196.5 61.5129 1196.5 Z" fill="#000000" fill-rule="nonzero" fill-opacity="1" /><path clip-path="url(#clip150)" d="M76.6343 1218.48 L80.2975 1218.48 L80.2975 1222.89 L76.6343 1222.89 L76.6343 1218.48 Z" fill="#000000" fill-rule="nonzero" fill-opacity="1" /><path clip-path="url(#clip150)" d="M95.4363 1199.28 Q92.728 1199.28 91.3565 1201.95 Q90.0023 1204.61 90.0023 1209.96 Q90.0023 1215.29 91.3565 1217.96 Q92.728 1220.62 95.4363 1220.62 Q98.162 1220.62 99.5162 1217.96 Q100.888 1215.29 100.888 1209.96 Q100.888 1204.61 99.5162 1201.95 Q98.162 1199.28 95.4363 1199.28 M95.4363 1196.5 Q99.7939 1196.5 102.086 1199.96 Q104.395 1203.39 104.395 1209.96 Q104.395 1216.5 102.086 1219.96 Q99.7939 1223.39 95.4363 1223.39 Q91.0787 1223.39 88.7697 1219.96 Q86.478 1216.5 86.478 1209.96 Q86.478 1203.39 88.7697 1199.96 Q91.0787 1196.5 95.4363 1196.5 Z" fill="#000000" fill-rule="nonzero" fill-opacity="1" /><path clip-path="url(#clip150)" d="M113.579 1219.94 L125.818 1219.94 L125.818 1222.89 L109.36 1222.89 L109.36 1219.94 Q111.356 1217.87 114.794 1214.4 Q118.249 1210.91 119.134 1209.9 Q120.818 1208.01 121.478 1206.71 Q122.155 1205.39 122.155 1204.12 Q122.155 1202.06 120.697 1200.76 Q119.256 1199.45 116.929 1199.45 Q115.28 1199.45 113.44 1200.03 Q111.617 1200.6 109.533 1201.76 L109.533 1198.22 Q111.652 1197.37 113.492 1196.94 Q115.332 1196.5 116.86 1196.5 Q120.888 1196.5 123.283 1198.52 Q125.679 1200.53 125.679 1203.9 Q125.679 1205.49 125.072 1206.94 Q124.481 1208.36 122.901 1210.3 Q122.467 1210.81 120.141 1213.22 Q117.815 1215.62 113.579 1219.94 Z" fill="#000000" fill-rule="nonzero" fill-opacity="1" /><path clip-path="url(#clip150)" d="M60.8011 1078.61 Q58.0928 1078.61 56.7213 1081.28 Q55.3671 1083.94 55.3671 1089.28 Q55.3671 1094.61 56.7213 1097.29 Q58.0928 1099.94 60.8011 1099.94 Q63.5268 1099.94 64.8809 1097.29 Q66.2525 1094.61 66.2525 1089.28 Q66.2525 1083.94 64.8809 1081.28 Q63.5268 1078.61 60.8011 1078.61 M60.8011 1075.83 Q65.1587 1075.83 67.4504 1079.28 Q69.7594 1082.72 69.7594 1089.28 Q69.7594 1095.83 67.4504 1099.28 Q65.1587 1102.72 60.8011 1102.72 Q56.4435 1102.72 54.1345 1099.28 Q51.8428 1095.83 51.8428 1089.28 Q51.8428 1082.72 54.1345 1079.28 Q56.4435 1075.83 60.8011 1075.83 Z" fill="#000000" fill-rule="nonzero" fill-opacity="1" /><path clip-path="url(#clip150)" d="M75.9225 1097.81 L79.5857 1097.81 L79.5857 1102.22 L75.9225 1102.22 L75.9225 1097.81 Z" fill="#000000" fill-rule="nonzero" fill-opacity="1" /><path clip-path="url(#clip150)" d="M94.7245 1078.61 Q92.0162 1078.61 90.6447 1081.28 Q89.2905 1083.94 89.2905 1089.28 Q89.2905 1094.61 90.6447 1097.29 Q92.0162 1099.94 94.7245 1099.94 Q97.4502 1099.94 98.8044 1097.29 Q100.176 1094.61 100.176 1089.28 Q100.176 1083.94 98.8044 1081.28 Q97.4502 1078.61 94.7245 1078.61 M94.7245 1075.83 Q99.0821 1075.83 101.374 1079.28 Q103.683 1082.72 103.683 1089.28 Q103.683 1095.83 101.374 1099.28 Q99.0821 1102.72 94.7245 1102.72 Q90.3669 1102.72 88.0579 1099.28 Q85.7662 1095.83 85.7662 1089.28 Q85.7662 1082.72 88.0579 1079.28 Q90.3669 1075.83 94.7245 1075.83 Z" fill="#000000" fill-rule="nonzero" fill-opacity="1" /><path clip-path="url(#clip150)" d="M120.471 1088.24 Q122.988 1088.78 124.395 1090.48 Q125.818 1092.18 125.818 1094.68 Q125.818 1098.52 123.179 1100.62 Q120.54 1102.72 115.679 1102.72 Q114.047 1102.72 112.311 1102.39 Q110.593 1102.08 108.752 1101.43 L108.752 1098.05 Q110.211 1098.9 111.947 1099.33 Q113.683 1099.77 115.575 1099.77 Q118.874 1099.77 120.592 1098.47 Q122.329 1097.16 122.329 1094.68 Q122.329 1092.39 120.714 1091.11 Q119.117 1089.8 116.252 1089.8 L113.231 1089.8 L113.231 1086.92 L116.391 1086.92 Q118.978 1086.92 120.349 1085.9 Q121.721 1084.86 121.721 1082.91 Q121.721 1080.91 120.297 1079.86 Q118.891 1078.78 116.252 1078.78 Q114.811 1078.78 113.162 1079.09 Q111.513 1079.4 109.533 1080.06 L109.533 1076.94 Q111.53 1076.38 113.266 1076.11 Q115.02 1075.83 116.565 1075.83 Q120.558 1075.83 122.884 1077.65 Q125.21 1079.46 125.21 1082.55 Q125.21 1084.7 123.978 1086.19 Q122.745 1087.67 120.471 1088.24 Z" fill="#000000" fill-rule="nonzero" fill-opacity="1" /><path clip-path="url(#clip150)" d="M59.9504 957.931 Q57.2421 957.931 55.8706 960.605 Q54.5164 963.261 54.5164 968.608 Q54.5164 973.938 55.8706 976.612 Q57.2421 979.268 59.9504 979.268 Q62.6761 979.268 64.0303 976.612 Q65.4018 973.938 65.4018 968.608 Q65.4018 963.261 64.0303 960.605 Q62.6761 957.931 59.9504 957.931 M59.9504 955.153 Q64.308 955.153 66.5997 958.608 Q68.9087 962.046 68.9087 968.608 Q68.9087 975.153 66.5997 978.608 Q64.308 982.046 59.9504 982.046 Q55.5928 982.046 53.2838 978.608 Q50.9921 975.153 50.9921 968.608 Q50.9921 962.046 53.2838 958.608 Q55.5928 955.153 59.9504 955.153 Z" fill="#000000" fill-rule="nonzero" fill-opacity="1" /><path clip-path="url(#clip150)" d="M75.0719 977.132 L78.735 977.132 L78.735 981.542 L75.0719 981.542 L75.0719 977.132 Z" fill="#000000" fill-rule="nonzero" fill-opacity="1" /><path clip-path="url(#clip150)" d="M93.8738 957.931 Q91.1655 957.931 89.794 960.605 Q88.4398 963.261 88.4398 968.608 Q88.4398 973.938 89.794 976.612 Q91.1655 979.268 93.8738 979.268 Q96.5995 979.268 97.9537 976.612 Q99.3252 973.938 99.3252 968.608 Q99.3252 963.261 97.9537 960.605 Q96.5995 957.931 93.8738 957.931 M93.8738 955.153 Q98.2315 955.153 100.523 958.608 Q102.832 962.046 102.832 968.608 Q102.832 975.153 100.523 978.608 Q98.2315 982.046 93.8738 982.046 Q89.5162 982.046 87.2072 978.608 Q84.9156 975.153 84.9156 968.608 Q84.9156 962.046 87.2072 958.608 Q89.5162 955.153 93.8738 955.153 Z" fill="#000000" fill-rule="nonzero" fill-opacity="1" /><path clip-path="url(#clip150)" d="M118.631 958.678 L109.777 972.514 L118.631 972.514 L118.631 958.678 M117.711 955.622 L122.12 955.622 L122.12 972.514 L125.818 972.514 L125.818 975.431 L122.12 975.431 L122.12 981.542 L118.631 981.542 L118.631 975.431 L106.929 975.431 L106.929 972.046 L117.711 955.622 Z" fill="#000000" fill-rule="nonzero" fill-opacity="1" /><path clip-path="url(#clip150)" d="M173.716 818.926 Q170.198 818.926 168.3 821.472 Q166.309 824.134 166.309 828.532 Q166.309 833.185 168.276 835.87 Q170.267 838.532 173.716 838.532 Q177.119 838.532 179.11 835.847 Q181.1 833.162 181.1 828.532 Q181.1 824.296 179.11 821.472 Q177.281 818.926 173.716 818.926 M173.716 815.546 L187.86 815.546 L187.86 819.805 L183.091 819.805 Q185.614 823.417 185.614 828.532 Q185.614 834.898 182.443 838.509 Q179.272 842.143 173.716 842.143 Q168.138 842.143 164.989 838.509 Q161.818 834.898 161.818 828.532 Q161.818 822.12 164.989 818.532 Q167.605 815.546 173.716 815.546 Z" fill="#000000" fill-rule="nonzero" fill-opacity="1" /><path clip-path="url(#clip150)" d="M198.878 841.472 L190.961 815.546 L195.545 815.546 L202.235 837.305 Q205.012 834.435 207.327 830.454 Q209.086 827.467 209.179 824.875 Q209.225 823.648 208.67 821.333 Q208.022 818.579 205.568 815.546 L209.873 815.546 L209.873 815.546 Q211.471 817.606 212.535 820.477 Q213.508 823.116 213.508 824.921 Q213.508 829.458 210.36 833.509 Q206.262 838.787 203.415 841.472 L198.878 841.472 Z" fill="#000000" fill-rule="nonzero" fill-opacity="1" /><polyline clip-path="url(#clip154)" style="stroke:#009af9; stroke-linecap:round; stroke-linejoin:round; stroke-width:4; stroke-opacity:1; fill:none" points="189.869,964.746 248.307,1022.77 306.746,1081.59 365.185,1141.21 423.623,1201.63 482.062,1262.84 540.501,1324.86 598.939,1387.67 657.378,1451.28 715.817,1386.87 774.256,1321.67 832.694,1255.66 891.133,1188.86 949.572,1121.26 1008.01,1052.87 1066.45,983.673 1124.89,913.68 "/>
<circle clip-path="url(#clip154)" cx="657.378" cy="1451.28" r="10.8" fill="#ff0000" fill-rule="evenodd" fill-opacity="1" stroke="#000000" stroke-opacity="1" stroke-width="3.2"/>
</svg>
